<svg 
 xmlns="http://www.w3.org/2000/svg"
 xmlns:xlink="http://www.w3.org/1999/xlink"
 width="54px" height="50px">
<path fill-rule="evenodd"  fill="rgb(60, 186, 228)"
 d="M51.323,15.462 L40.237,15.462 L31.946,2.263 C31.605,1.678 30.055,0.261 29.398,0.087 C28.739,-0.088 28.050,0.002 27.461,0.339 C27.292,0.435 27.138,0.550 26.999,0.678 C26.859,0.550 26.706,0.435 26.537,0.339 C25.947,0.002 25.259,-0.088 24.601,0.087 C23.943,0.262 22.392,1.679 22.051,2.263 L14.760,15.462 L2.676,15.462 C1.748,15.462 -0.008,17.209 -0.008,18.127 L-0.008,22.422 C-0.008,23.340 1.070,25.000 1.999,25.000 L1.999,25.000 L3.302,45.849 C3.426,47.614 5.924,49.998 7.714,49.998 L47.284,49.998 C49.074,49.998 50.573,47.615 50.697,45.849 L51.999,25.000 L51.999,25.000 C52.927,25.000 54.005,23.340 54.005,22.422 L54.005,18.127 C54.005,17.209 52.251,15.462 51.323,15.462 ZM27.846,3.288 C27.909,3.052 28.062,2.855 28.276,2.733 C28.418,2.653 28.576,2.611 28.735,2.611 C28.816,2.611 28.896,2.622 28.976,2.642 C29.214,2.705 29.412,2.857 29.536,3.068 L38.223,17.946 C38.477,18.382 38.326,18.941 37.886,19.193 C37.672,19.315 37.423,19.348 37.185,19.284 C36.947,19.221 36.748,19.071 36.624,18.859 L27.937,3.980 C27.814,3.769 27.781,3.523 27.846,3.288 ZM26.999,5.999 L32.999,15.999 L21.999,15.999 L26.999,5.999 ZM15.775,17.946 L24.462,3.068 C24.585,2.857 24.784,2.706 25.023,2.642 C25.261,2.580 25.509,2.612 25.723,2.734 C25.936,2.856 26.089,3.052 26.153,3.288 C26.217,3.524 26.184,3.769 26.061,3.981 L17.373,18.859 C17.250,19.071 17.052,19.221 16.813,19.285 C16.575,19.348 16.327,19.315 16.113,19.193 C15.673,18.941 15.520,18.382 15.775,17.946 ZM51.377,22.422 C51.377,22.452 51.353,22.476 51.323,22.476 L47.848,22.476 C47.399,22.476 47.034,22.836 47.034,23.282 C47.034,23.726 47.549,25.000 47.999,25.000 L48.999,25.000 L48.071,45.738 C48.007,46.663 47.222,47.388 46.284,47.388 L7.714,47.388 C6.776,47.388 5.991,46.663 5.926,45.738 L4.999,25.000 L43.372,25.087 C43.823,25.087 44.914,24.866 44.999,23.999 C45.103,22.954 43.823,22.476 43.372,22.476 L2.676,22.476 C2.646,22.476 2.621,22.452 2.621,22.422 L2.621,18.127 C2.621,18.098 2.646,18.074 2.676,18.074 L13.044,18.074 C12.916,19.055 13.080,20.475 13.999,20.999 C14.392,21.224 16.128,21.927 16.570,21.927 C16.792,21.927 17.015,21.898 17.235,21.840 C17.893,21.665 18.173,21.529 18.999,20.999 L20.712,19.073 L34.000,18.999 L34.999,19.999 C35.340,20.583 36.341,21.825 36.998,21.999 C37.219,22.058 37.777,21.999 37.999,21.999 C38.441,21.999 38.606,22.224 39.000,21.999 C39.918,21.474 40.128,19.980 39.999,18.999 L50.999,18.999 C51.029,18.999 50.999,18.970 50.999,18.999 L51.377,22.422 L51.377,22.422 Z"/>
<path fill-rule="evenodd"  fill="rgb(53, 53, 53)"
 d="M42.636,31.925 C43.086,31.925 43.450,32.286 43.450,32.730 L43.450,42.179 C43.450,43.571 42.305,44.703 40.898,44.703 C39.491,44.703 38.347,43.571 38.347,42.179 L38.347,29.294 C38.347,27.903 39.491,26.771 40.898,26.771 C42.305,26.771 43.450,27.903 43.450,29.294 C43.450,29.739 43.086,30.100 42.636,30.100 C42.185,30.100 41.821,29.739 41.821,29.294 C41.821,28.791 41.407,28.381 40.898,28.381 C40.389,28.381 39.975,28.791 39.975,29.294 L39.975,42.179 C39.975,42.683 40.389,43.092 40.898,43.092 C41.407,43.092 41.821,42.683 41.821,42.179 L41.821,32.730 C41.821,32.286 42.185,31.925 42.636,31.925 ZM33.948,44.703 C32.542,44.703 31.397,43.571 31.397,42.179 L31.397,29.294 C31.397,27.903 32.542,26.771 33.948,26.771 C35.356,26.771 36.501,27.903 36.501,29.294 C36.501,29.739 36.135,30.100 35.686,30.100 C35.236,30.100 34.871,29.739 34.871,29.294 C34.871,28.791 34.457,28.381 33.948,28.381 C33.439,28.381 33.026,28.791 33.026,29.294 L33.026,42.179 C33.026,42.683 33.439,43.092 33.948,43.092 C34.457,43.092 34.871,42.683 34.871,42.179 L34.871,32.730 C34.871,32.286 35.236,31.925 35.686,31.925 C36.135,31.925 36.501,32.286 36.501,32.730 L36.501,42.179 C36.501,43.571 35.356,44.703 33.948,44.703 ZM26.999,44.703 C25.592,44.703 24.448,43.571 24.448,42.179 L24.448,29.294 C24.448,27.903 25.592,26.771 26.999,26.771 C28.407,26.771 29.551,27.903 29.551,29.294 C29.551,29.739 29.186,30.100 28.737,30.100 C28.287,30.100 27.922,29.739 27.922,29.294 C27.922,28.791 27.508,28.381 26.999,28.381 C26.490,28.381 26.076,28.791 26.076,29.294 L26.076,42.179 C26.076,42.683 26.490,43.092 26.999,43.092 C27.508,43.092 27.922,42.683 27.922,42.179 L27.922,32.730 C27.922,32.286 28.287,31.925 28.737,31.925 C29.186,31.925 29.551,32.286 29.551,32.730 L29.551,42.179 C29.551,43.571 28.407,44.703 26.999,44.703 ZM20.050,44.703 C18.642,44.703 17.498,43.571 17.498,42.179 L17.498,29.294 C17.498,27.903 18.642,26.771 20.050,26.771 C21.457,26.771 22.601,27.903 22.601,29.294 C22.601,29.739 22.237,30.100 21.786,30.100 C21.337,30.100 20.973,29.739 20.973,29.294 C20.973,28.791 20.559,28.381 20.050,28.381 C19.540,28.381 19.126,28.791 19.126,29.294 L19.126,42.179 C19.126,42.683 19.540,43.092 20.050,43.092 C20.559,43.092 20.973,42.683 20.973,42.179 L20.973,32.730 C20.973,32.286 21.337,31.925 21.786,31.925 C22.237,31.925 22.601,32.286 22.601,32.730 L22.601,42.179 C22.601,43.571 21.457,44.703 20.050,44.703 ZM13.099,44.703 C11.693,44.703 10.548,43.571 10.548,42.179 L10.548,29.294 C10.548,27.903 11.693,26.771 13.099,26.771 C14.507,26.771 15.652,27.903 15.652,29.294 C15.652,29.739 15.287,30.100 14.837,30.100 C14.388,30.100 14.023,29.739 14.023,29.294 C14.023,28.791 13.608,28.381 13.099,28.381 C12.590,28.381 12.177,28.791 12.177,29.294 L12.177,42.179 C12.177,42.683 12.590,43.092 13.099,43.092 C13.608,43.092 14.023,42.683 14.023,42.179 L14.023,32.730 C14.023,32.286 14.388,31.925 14.837,31.925 C15.287,31.925 15.652,32.286 15.652,32.730 L15.652,42.179 C15.652,43.571 14.507,44.703 13.099,44.703 Z"/>
</svg>