<svg 
 xmlns="http://www.w3.org/2000/svg"
 xmlns:xlink="http://www.w3.org/1999/xlink"
 width="77px" height="71px">
<path fill-rule="evenodd"  fill="rgb(60, 186, 228)"
 d="M3.294,70.493 L73.704,70.493 C75.206,70.493 76.380,69.318 76.380,67.819 L76.380,8.137 C76.380,6.637 75.206,5.463 73.704,5.463 L59.458,5.463 L59.458,3.179 C59.458,1.680 59.283,0.506 57.782,0.506 C56.282,0.506 56.107,1.680 56.107,3.179 L56.107,5.463 L21.349,5.463 L21.349,3.179 C21.349,1.680 21.174,0.506 19.673,0.506 C18.172,0.506 17.997,1.680 17.997,3.179 L17.997,5.463 L3.294,5.463 C1.793,5.463 0.617,6.637 0.617,8.137 L0.617,67.885 C0.617,69.318 1.858,70.493 3.294,70.493 ZM3.969,8.811 L17.997,8.811 L17.997,12.246 C17.997,13.747 18.172,14.921 19.673,14.921 C21.174,14.921 21.349,13.747 21.349,12.246 L21.349,8.811 L56.107,8.811 L56.107,12.246 C56.107,13.747 56.282,14.921 57.782,14.921 C59.283,14.921 59.458,13.747 59.458,12.246 L59.458,8.811 L73.094,8.811 L73.094,17.725 L3.969,17.725 L3.969,8.811 ZM3.969,21.074 L73.029,21.074 L73.029,67.210 L3.969,67.210 L3.969,21.074 Z"/>
<path fill-rule="evenodd"  fill="rgb(53, 53, 53)"
 d="M57.782,39.685 L19.281,39.685 C17.781,39.685 16.606,39.510 16.606,38.010 C16.606,36.510 17.781,36.336 19.281,36.336 L57.782,36.336 C59.283,36.336 60.458,36.510 60.458,38.010 C60.458,39.510 59.283,39.685 57.782,39.685 ZM19.281,49.251 L38.532,49.251 C40.033,49.251 41.207,49.425 41.207,50.925 C41.207,52.426 40.033,52.599 38.532,52.599 L19.281,52.599 C17.781,52.599 16.606,52.426 16.606,50.925 C16.606,49.425 17.781,49.251 19.281,49.251 Z"/>
</svg>