<svg 
 xmlns="http://www.w3.org/2000/svg"
 xmlns:xlink="http://www.w3.org/1999/xlink"
 width="71px" height="70px">
<path fill-rule="evenodd"  fill="rgb(60, 186, 228)"
 d="M59.881,10.259 C53.269,3.649 44.488,-0.001 35.137,-0.001 C25.783,-0.001 17.003,3.649 10.392,10.259 C-2.361,23.011 -3.284,43.383 8.075,57.189 C6.508,60.399 4.660,62.539 2.564,63.565 C1.288,64.195 0.570,65.572 0.775,66.980 C0.995,68.402 2.080,69.501 3.501,69.721 C4.279,69.838 5.114,69.912 5.980,69.912 L5.980,69.912 C10.274,69.912 14.789,68.431 18.557,65.837 C23.628,68.563 29.331,69.999 35.137,69.999 C44.488,69.999 53.269,66.364 59.881,59.755 C66.492,53.145 70.127,44.350 70.127,35.014 C70.127,25.678 66.492,16.869 59.881,10.259 ZM57.081,56.940 C51.217,62.803 43.418,66.027 35.137,66.027 C29.595,66.027 24.157,64.547 19.422,61.762 C19.115,61.586 18.762,61.484 18.425,61.484 C18.000,61.484 17.560,61.630 17.208,61.894 C12.723,65.368 8.208,65.881 6.229,65.925 C8.589,64.166 10.567,61.439 12.224,57.644 C12.532,56.940 12.400,56.120 11.887,55.533 C1.039,43.281 1.611,24.608 13.192,13.029 C19.056,7.166 26.853,3.942 35.137,3.942 C43.418,3.942 51.217,7.166 57.081,13.029 C69.189,25.150 69.189,44.849 57.081,56.940 Z"/>
<path fill-rule="evenodd"  fill="rgb(53, 53, 53)"
 d="M49.795,36.978 L20.477,36.978 C19.378,36.978 18.499,36.099 18.499,34.999 C18.499,33.900 19.378,33.020 20.477,33.020 L49.795,33.020 C50.880,33.020 51.775,33.900 51.775,34.999 C51.775,36.099 50.895,36.978 49.795,36.978 ZM49.795,27.407 L20.477,27.407 C19.378,27.407 18.499,26.528 18.499,25.429 C18.499,24.329 19.378,23.450 20.477,23.450 L49.795,23.450 C50.880,23.450 51.775,24.329 51.775,25.429 C51.775,26.528 50.895,27.407 49.795,27.407 ZM20.477,42.591 L49.795,42.591 C50.880,42.591 51.775,43.471 51.775,44.570 C51.775,45.669 50.895,46.549 49.795,46.549 L20.477,46.549 C19.378,46.549 18.499,45.669 18.499,44.570 C18.499,43.471 19.378,42.591 20.477,42.591 Z"/>
</svg>