<svg 
 xmlns="http://www.w3.org/2000/svg"
 xmlns:xlink="http://www.w3.org/1999/xlink"
 width="80px" height="71px">
<path fill-rule="evenodd"  fill="rgb(60, 186, 228)"
 d="M79.126,70.326 C78.891,70.627 78.530,70.803 78.149,70.803 L46.422,70.803 C46.040,70.803 45.681,70.627 45.446,70.326 C45.211,70.024 45.127,69.632 45.220,69.261 L46.041,65.972 C46.474,64.238 48.024,63.027 49.809,63.027 L50.471,63.027 L50.471,60.297 C50.471,58.883 51.620,57.733 53.032,57.733 L71.540,57.733 C72.951,57.733 74.101,58.883 74.101,60.297 L74.101,63.027 L74.763,63.027 C76.548,63.027 78.098,64.238 78.530,65.972 L79.352,69.261 C79.444,69.632 79.361,70.024 79.126,70.326 ZM76.126,66.574 C75.969,65.946 75.408,65.508 74.763,65.508 L59.641,65.508 C58.956,65.508 58.402,64.952 58.402,64.267 C58.402,63.582 58.956,63.027 59.641,63.027 L71.622,63.027 L71.622,60.297 C71.622,60.251 71.584,60.214 71.539,60.214 L53.032,60.214 C52.987,60.214 52.949,60.251 52.949,60.297 L52.949,63.027 L54.354,63.027 C55.039,63.027 55.593,63.582 55.593,64.267 C55.593,64.952 55.039,65.508 54.354,65.508 L49.809,65.508 C49.163,65.508 48.603,65.946 48.446,66.574 L48.010,68.321 L76.561,68.321 L76.126,66.574 ZM51.352,37.017 C50.868,37.501 50.225,37.768 49.540,37.768 C48.857,37.768 48.213,37.501 47.730,37.016 L43.990,33.273 C43.506,32.788 43.241,32.144 43.241,31.460 C43.241,30.775 43.507,30.130 43.990,29.646 L44.049,29.588 L42.063,27.599 L40.134,29.529 C39.651,30.014 39.008,30.280 38.324,30.280 C38.081,30.280 37.843,30.245 37.616,30.180 L6.867,60.967 C6.110,61.726 5.115,62.104 4.121,62.104 C3.126,62.104 2.131,61.726 1.374,60.967 C0.641,60.233 0.237,59.257 0.237,58.219 C0.237,57.180 0.641,56.203 1.374,55.469 L32.124,24.681 C32.059,24.454 32.024,24.217 32.024,23.973 C32.024,23.287 32.290,22.643 32.774,22.159 L34.702,20.229 L32.716,18.240 L32.657,18.299 C31.659,19.298 30.034,19.298 29.036,18.299 L25.296,14.555 C24.297,13.555 24.297,11.928 25.296,10.928 L34.644,1.569 C35.641,0.570 37.267,0.569 38.265,1.569 L42.005,5.313 C42.488,5.797 42.755,6.441 42.755,7.126 C42.755,7.811 42.488,8.455 42.005,8.939 L41.946,8.998 L53.280,20.346 L53.339,20.288 C53.822,19.803 54.465,19.537 55.149,19.537 C55.834,19.537 56.477,19.803 56.960,20.288 L60.699,24.031 C61.183,24.516 61.449,25.160 61.449,25.844 C61.449,26.529 61.183,27.173 60.699,27.657 L51.352,37.017 ZM3.127,57.224 C2.861,57.490 2.716,57.843 2.716,58.219 C2.716,58.594 2.862,58.948 3.127,59.214 C3.675,59.761 4.566,59.761 5.114,59.214 L35.637,28.652 L33.650,26.663 L3.127,57.224 ZM34.526,23.914 C34.520,23.920 34.502,23.938 34.502,23.973 C34.502,24.007 34.520,24.025 34.526,24.031 L38.265,27.775 C38.271,27.781 38.290,27.799 38.324,27.799 C38.357,27.799 38.376,27.781 38.382,27.775 L40.310,25.844 L36.454,21.984 L34.526,23.914 ZM58.946,25.786 L55.207,22.041 C55.202,22.036 55.183,22.018 55.149,22.018 C55.115,22.018 55.097,22.036 55.091,22.041 L50.417,26.722 C49.933,27.207 49.148,27.207 48.665,26.722 C48.422,26.480 48.301,26.162 48.301,25.844 C48.301,25.527 48.422,25.209 48.665,24.967 L51.528,22.101 L39.317,9.875 C38.839,9.397 38.832,8.624 39.300,8.137 C39.308,8.130 39.314,8.123 39.321,8.116 C39.382,8.056 40.251,7.184 40.251,7.184 C40.284,7.152 40.284,7.100 40.251,7.067 L36.513,3.324 C36.480,3.292 36.429,3.291 36.396,3.324 L27.048,12.683 C27.016,12.715 27.016,12.768 27.048,12.800 L30.787,16.543 C30.820,16.575 30.872,16.575 30.904,16.543 L35.579,11.864 C36.062,11.380 36.846,11.380 37.330,11.864 C37.814,12.349 37.814,13.134 37.330,13.619 L34.467,16.485 L46.679,28.711 C47.162,29.195 47.162,29.980 46.679,30.465 L45.743,31.402 C45.737,31.407 45.719,31.426 45.719,31.460 C45.719,31.494 45.737,31.512 45.743,31.518 L49.483,35.262 C49.488,35.268 49.507,35.286 49.540,35.286 C49.574,35.286 49.593,35.268 49.599,35.262 L58.946,25.903 C58.953,25.896 58.970,25.878 58.970,25.844 C58.970,25.810 58.953,25.792 58.946,25.786 Z"/>
<path fill-rule="evenodd"  fill="rgb(53, 53, 53)"
 d="M62.500,46.000 C63.328,46.000 64.000,46.671 64.000,47.500 L64.000,53.500 C64.000,54.328 63.328,55.000 62.500,55.000 C61.672,55.000 61.000,54.328 61.000,53.500 L61.000,47.500 C61.000,46.671 61.672,46.000 62.500,46.000 Z"/>
<path fill-rule="evenodd"  fill="rgb(53, 53, 53)"
 d="M69.732,48.229 C70.495,48.550 70.920,49.272 70.681,49.843 L68.947,53.968 C68.708,54.537 67.895,54.739 67.130,54.418 C66.367,54.098 65.943,53.375 66.181,52.805 L67.915,48.680 C68.155,48.111 68.968,47.909 69.732,48.229 Z"/>
<path fill-rule="evenodd"  fill="rgb(53, 53, 53)"
 d="M55.092,48.180 C54.272,48.526 53.816,49.303 54.072,49.917 L55.934,54.360 C56.191,54.973 57.064,55.190 57.885,54.845 C58.705,54.499 59.160,53.722 58.904,53.109 L57.043,48.665 C56.785,48.051 55.913,47.835 55.092,48.180 Z"/>
</svg>