<svg 
 xmlns="http://www.w3.org/2000/svg"
 xmlns:xlink="http://www.w3.org/1999/xlink"
 width="487px" height="394px">
<path fill-rule="evenodd"  fill="rgb(246, 246, 246)"
 d="M199.705,390.498 C197.370,391.081 195.033,391.665 192.698,392.249 C192.698,392.833 192.698,393.416 192.698,394.000 C168.175,394.000 143.645,394.000 119.122,394.000 C119.122,393.416 119.122,392.833 119.122,392.249 C119.706,392.249 120.290,392.249 120.874,392.249 C121.458,388.747 122.042,385.244 122.626,381.742 C123.210,381.742 123.794,381.742 124.378,381.742 C124.378,379.991 124.378,378.240 124.378,376.489 C124.962,376.489 125.546,376.489 126.129,376.489 C126.129,375.322 126.129,374.154 126.129,372.987 C126.713,372.987 127.297,372.987 127.881,372.987 C128.465,369.485 129.049,365.982 129.633,362.480 C132.112,356.266 135.726,351.646 136.640,343.218 C125.323,342.968 111.044,339.083 101.604,336.213 C98.101,336.213 94.597,336.213 91.094,336.213 C76.923,331.856 57.983,330.019 43.795,325.707 C40.292,325.707 36.787,325.707 33.284,325.707 C33.284,325.123 33.284,324.539 33.284,323.956 C30.365,323.956 27.445,323.956 24.525,323.956 C24.525,323.372 24.525,322.788 24.525,322.204 C18.182,320.213 12.980,322.751 8.759,318.702 C8.175,318.702 7.591,318.702 7.007,318.702 C7.007,314.617 7.007,310.530 7.007,306.444 C6.423,306.444 5.839,306.444 5.255,306.444 C5.255,302.359 5.255,298.272 5.255,294.187 C2.890,285.943 0.465,274.110 -0.000,264.418 C60.723,242.239 121.464,220.054 182.187,197.876 C182.187,199.043 182.187,200.210 182.187,201.378 C181.603,201.378 181.019,201.378 180.435,201.378 C179.851,204.296 179.267,207.215 178.683,210.133 C178.100,210.133 177.516,210.133 176.932,210.133 C176.932,211.884 176.932,213.636 176.932,215.387 C176.348,215.387 175.764,215.387 175.180,215.387 C175.180,217.138 175.180,218.889 175.180,220.640 C170.425,232.599 166.232,246.950 161.165,259.164 C134.891,267.919 108.609,276.676 82.335,285.431 C82.335,286.015 82.335,286.599 82.335,287.182 C86.422,287.182 90.510,287.182 94.597,287.182 C94.597,287.766 94.597,288.350 94.597,288.933 C98.100,288.933 101.605,288.933 105.108,288.933 C115.394,291.957 129.861,292.906 140.144,295.938 C143.647,295.938 147.151,295.938 150.655,295.938 C150.655,296.521 150.655,297.105 150.655,297.689 C151.239,297.689 151.823,297.689 152.406,297.689 C152.990,297.689 153.574,297.689 154.158,297.689 C154.158,297.105 154.158,296.521 154.158,295.938 C154.742,295.938 155.326,295.938 155.910,295.938 C156.494,293.020 157.078,290.100 157.662,287.182 C158.246,287.182 158.830,287.182 159.414,287.182 C159.414,285.431 159.414,283.680 159.414,281.929 C159.998,281.929 160.582,281.929 161.165,281.929 C161.165,280.178 161.165,278.426 161.165,276.676 C161.749,276.676 162.333,276.676 162.917,276.676 C162.917,274.925 162.917,273.173 162.917,271.422 C163.501,271.422 164.085,271.422 164.669,271.422 C164.669,270.255 164.669,269.087 164.669,267.920 C165.253,267.920 165.837,267.920 166.421,267.920 C167.005,264.418 167.589,260.915 168.173,257.413 C168.757,257.413 169.341,257.413 169.924,257.413 C169.924,256.246 169.924,255.078 169.924,253.911 C170.508,253.911 171.092,253.911 171.676,253.911 C172.260,250.409 172.844,246.906 173.428,243.404 C174.012,243.404 174.596,243.404 175.180,243.404 C175.180,242.237 175.180,241.070 175.180,239.902 C175.764,239.902 176.348,239.902 176.932,239.902 C177.516,236.400 178.100,232.897 178.683,229.396 C199.910,181.078 215.320,127.177 236.493,78.800 C237.077,75.298 237.661,71.795 238.245,68.293 C238.828,68.293 239.413,68.293 239.996,68.293 C239.996,67.126 239.996,65.958 239.996,64.791 C240.580,64.791 241.164,64.791 241.748,64.791 C242.916,59.538 244.084,54.284 245.252,49.031 C245.836,49.031 246.420,49.031 247.004,49.031 C247.004,47.864 247.004,46.696 247.004,45.529 C247.587,45.529 248.172,45.529 248.755,45.529 C249.339,42.027 249.923,38.524 250.507,35.022 C251.091,35.022 251.675,35.022 252.259,35.022 C252.259,33.855 252.259,32.687 252.259,31.520 C252.843,31.520 253.427,31.520 254.011,31.520 C254.595,28.018 255.179,24.515 255.763,21.013 C256.346,21.013 256.931,21.013 257.514,21.013 C259.850,14.010 262.186,7.004 264.522,0.000 C290.212,0.000 315.910,0.000 341.601,0.000 C390.062,131.320 438.538,262.680 487.000,394.000 C460.726,394.000 434.443,394.000 408.169,394.000 C408.169,393.416 408.169,392.833 408.169,392.249 C398.827,391.082 389.482,389.914 380.140,388.747 C380.140,388.163 380.140,387.579 380.140,386.996 C376.637,386.996 373.133,386.996 369.629,386.996 C336.951,377.086 297.219,375.850 264.522,365.982 C261.018,365.982 257.514,365.982 254.011,365.982 C254.011,365.399 254.011,364.815 254.011,364.231 C251.091,364.231 248.171,364.231 245.252,364.231 C245.252,363.647 245.252,363.064 245.252,362.480 C241.749,362.480 238.244,362.480 234.741,362.480 C234.741,361.896 234.741,361.313 234.741,360.729 C228.318,360.145 221.894,359.561 215.471,358.978 C215.471,358.394 215.471,357.810 215.471,357.227 C213.080,356.580 215.393,357.727 213.719,358.978 C213.136,358.978 212.551,358.978 211.968,358.978 C211.384,363.063 210.800,367.150 210.216,371.236 C209.632,371.236 209.048,371.236 208.464,371.236 C208.464,372.986 208.464,374.738 208.464,376.489 C207.880,376.489 207.296,376.489 206.712,376.489 C206.128,378.823 205.544,381.159 204.960,383.493 C204.377,383.493 203.793,383.493 203.209,383.493 C201.177,386.149 200.770,386.565 199.705,390.498 ZM301.309,78.800 C283.793,135.414 266.272,192.044 248.755,248.658 C248.172,248.658 247.587,248.658 247.004,248.658 C246.420,252.743 245.836,256.830 245.252,260.916 C244.668,260.916 244.084,260.916 243.500,260.916 C243.500,262.666 243.500,264.418 243.500,266.169 C242.916,266.169 242.332,266.169 241.748,266.169 C241.748,267.920 241.748,269.671 241.748,271.422 C241.164,271.422 240.580,271.422 239.996,271.422 C239.996,273.173 239.996,274.925 239.996,276.676 C239.413,276.676 238.828,276.676 238.245,276.676 C238.245,278.426 238.245,280.178 238.245,281.929 C237.661,281.929 237.077,281.929 236.493,281.929 C236.493,283.680 236.493,285.431 236.493,287.182 C235.909,287.182 235.325,287.182 234.741,287.182 C234.741,289.517 234.741,291.852 234.741,294.187 C234.157,294.187 233.573,294.187 232.989,294.187 C232.427,295.684 229.486,308.196 229.486,308.196 C230.069,308.196 230.654,308.196 231.237,308.196 C282.034,316.367 332.847,324.540 383.644,332.711 C383.484,323.046 379.400,316.796 376.637,309.947 C375.469,304.110 374.301,298.272 373.133,292.436 C372.549,292.436 371.965,292.436 371.381,292.436 C371.381,290.685 371.381,288.933 371.381,287.182 C370.797,287.182 370.213,287.182 369.629,287.182 C369.629,285.431 369.629,283.680 369.629,281.929 C369.046,281.929 368.462,281.929 367.878,281.929 C367.878,280.178 367.878,278.426 367.878,276.676 C367.294,276.676 366.710,276.676 366.126,276.676 C366.126,274.925 366.126,273.173 366.126,271.422 C365.542,271.422 364.958,271.422 364.374,271.422 C364.374,269.671 364.374,267.920 364.374,266.169 C363.790,266.169 363.206,266.169 362.622,266.169 C362.038,262.083 361.454,257.997 360.871,253.911 C349.213,224.629 340.973,190.393 329.338,161.102 C328.754,157.017 328.170,152.930 327.586,148.844 C327.002,148.844 326.418,148.844 325.835,148.844 C325.835,147.094 325.835,145.342 325.835,143.591 C325.251,143.591 324.667,143.591 324.083,143.591 C324.083,141.840 324.083,140.089 324.083,138.338 C323.499,138.338 322.915,138.338 322.331,138.338 C322.331,136.587 322.331,134.835 322.331,133.084 C321.747,133.084 321.163,133.084 320.579,133.084 C320.579,131.334 320.579,129.582 320.579,127.831 C319.995,127.831 319.411,127.831 318.827,127.831 C318.243,124.329 317.659,120.826 317.076,117.324 C316.492,117.324 315.908,117.324 315.324,117.324 C314.740,113.239 314.156,109.152 313.572,105.067 C310.421,97.086 305.957,88.908 304.813,78.800 C303.645,78.800 302.477,78.800 301.309,78.800 Z"/>
</svg>