<svg 
 xmlns="http://www.w3.org/2000/svg"
 xmlns:xlink="http://www.w3.org/1999/xlink"
 width="52.5px" height="43.5px">
<path fill-rule="evenodd"  fill="rgb(255, 255, 255)"
 d="M34.176,8.000 C34.059,8.000 33.941,8.000 33.824,8.000 C33.757,9.013 33.253,9.878 32.943,10.667 C32.884,11.081 32.825,11.496 32.767,11.911 C32.708,11.911 32.649,11.911 32.590,11.911 C32.590,12.089 32.590,12.267 32.590,12.444 C32.532,12.444 32.473,12.444 32.414,12.444 C32.414,12.622 32.414,12.800 32.414,12.978 C32.356,12.978 32.297,12.978 32.238,12.978 C32.238,13.156 32.238,13.333 32.238,13.511 C32.179,13.511 32.121,13.511 32.062,13.511 C32.062,13.689 32.062,13.867 32.062,14.044 C32.003,14.044 31.944,14.044 31.886,14.044 C31.827,14.400 31.768,14.756 31.710,15.111 C31.651,15.111 31.592,15.111 31.533,15.111 C31.533,15.348 31.533,15.585 31.533,15.822 C31.475,15.822 31.416,15.822 31.357,15.822 C31.357,16.000 31.357,16.178 31.357,16.356 C31.298,16.356 31.240,16.356 31.181,16.356 C31.181,16.533 31.181,16.711 31.181,16.889 C31.122,16.889 31.063,16.889 31.005,16.889 C31.005,17.067 31.005,17.244 31.005,17.422 C30.946,17.422 30.887,17.422 30.829,17.422 C30.829,17.600 30.829,17.778 30.829,17.956 C30.770,17.956 30.711,17.956 30.652,17.956 C30.594,18.311 30.535,18.667 30.476,19.022 C30.417,19.022 30.359,19.022 30.300,19.022 C30.300,19.259 30.300,19.496 30.300,19.733 C30.241,19.733 30.183,19.733 30.124,19.733 C30.124,19.911 30.124,20.089 30.124,20.267 C30.065,20.267 30.006,20.267 29.948,20.267 C29.948,20.444 29.948,20.622 29.948,20.800 C29.889,20.800 29.830,20.800 29.771,20.800 C29.771,20.978 29.771,21.156 29.771,21.333 C29.713,21.333 29.654,21.333 29.595,21.333 C29.595,21.511 29.595,21.689 29.595,21.867 C29.537,21.867 29.478,21.867 29.419,21.867 C29.419,22.044 29.419,22.222 29.419,22.400 C29.360,22.400 29.302,22.400 29.243,22.400 C29.243,22.637 29.243,22.874 29.243,23.111 C29.184,23.111 29.125,23.111 29.067,23.111 C29.067,23.289 29.067,23.467 29.067,23.644 C29.008,23.644 28.949,23.644 28.890,23.644 C28.890,23.822 28.890,24.000 28.890,24.178 C28.832,24.178 28.773,24.178 28.714,24.178 C28.714,24.356 28.714,24.533 28.714,24.711 C28.656,24.711 28.597,24.711 28.538,24.711 C28.538,24.889 28.538,25.067 28.538,25.244 C28.479,25.244 28.421,25.244 28.362,25.244 C28.303,25.600 28.244,25.956 28.186,26.311 C28.127,26.311 28.068,26.311 28.010,26.311 C28.010,26.548 28.010,26.785 28.010,27.022 C27.951,27.022 27.892,27.022 27.833,27.022 C27.833,27.200 27.833,27.378 27.833,27.556 C27.775,27.556 27.716,27.556 27.657,27.556 C27.657,27.733 27.657,27.911 27.657,28.089 C27.598,28.089 27.540,28.089 27.481,28.089 C27.481,28.267 27.481,28.444 27.481,28.622 C27.422,28.622 27.363,28.622 27.305,28.622 C27.305,28.800 27.305,28.978 27.305,29.156 C27.246,29.156 27.187,29.156 27.129,29.156 C27.070,29.511 27.011,29.867 26.952,30.222 C26.894,30.222 26.835,30.222 26.776,30.222 C26.776,30.459 26.776,30.696 26.776,30.933 C26.717,30.933 26.659,30.933 26.600,30.933 C26.541,31.289 26.483,31.644 26.424,32.000 C26.365,32.000 26.306,32.000 26.248,32.000 C26.248,32.178 26.248,32.356 26.248,32.533 C26.189,32.533 26.130,32.533 26.071,32.533 C26.071,32.711 26.071,32.889 26.071,33.067 C26.013,33.067 25.954,33.067 25.895,33.067 C25.895,33.244 25.895,33.422 25.895,33.600 C25.837,33.600 25.778,33.600 25.719,33.600 C25.719,33.778 25.719,33.956 25.719,34.133 C25.660,34.133 25.602,34.133 25.543,34.133 C25.367,34.904 25.190,35.674 25.014,36.444 C24.956,36.444 24.897,36.444 24.838,36.444 C24.603,37.274 24.368,38.104 24.133,38.933 C23.722,39.289 23.311,39.644 22.900,40.000 C20.434,40.000 17.966,40.000 15.500,40.000 C15.500,39.941 15.500,39.881 15.500,39.822 C15.559,39.822 15.617,39.822 15.676,39.822 C15.735,39.467 15.794,39.111 15.852,38.756 C15.911,38.756 15.970,38.756 16.029,38.756 C16.029,38.637 16.029,38.519 16.029,38.400 C16.087,38.400 16.146,38.400 16.205,38.400 C16.205,38.222 16.205,38.044 16.205,37.867 C16.263,37.867 16.322,37.867 16.381,37.867 C16.381,37.689 16.381,37.511 16.381,37.333 C16.440,37.333 16.498,37.333 16.557,37.333 C16.557,37.156 16.557,36.978 16.557,36.800 C16.616,36.800 16.675,36.800 16.733,36.800 C16.733,36.681 16.733,36.563 16.733,36.444 C16.792,36.444 16.851,36.444 16.910,36.444 C16.968,36.089 17.027,35.733 17.086,35.378 C17.144,35.378 17.203,35.378 17.262,35.378 C17.262,35.259 17.262,35.141 17.262,35.022 C17.321,35.022 17.379,35.022 17.438,35.022 C17.556,34.489 17.673,33.956 17.790,33.422 C17.849,33.422 17.908,33.422 17.967,33.422 C17.967,33.304 17.967,33.185 17.967,33.067 C18.025,33.067 18.084,33.067 18.143,33.067 C18.202,32.711 18.260,32.356 18.319,32.000 C18.378,32.000 18.437,32.000 18.495,32.000 C18.495,31.881 18.495,31.763 18.495,31.644 C18.554,31.644 18.613,31.644 18.671,31.644 C18.789,31.111 18.906,30.578 19.024,30.044 C21.352,24.681 23.048,18.702 25.367,13.333 C25.425,12.978 25.484,12.622 25.543,12.267 C25.602,12.267 25.660,12.267 25.719,12.267 C25.719,12.089 25.719,11.911 25.719,11.733 C25.778,11.733 25.837,11.733 25.895,11.733 C25.895,11.615 25.895,11.496 25.895,11.378 C25.954,11.378 26.013,11.378 26.071,11.378 C26.071,11.200 26.071,11.022 26.071,10.844 C26.130,10.844 26.189,10.844 26.248,10.844 C26.248,10.667 26.248,10.489 26.248,10.311 C26.306,10.311 26.365,10.311 26.424,10.311 C26.424,10.193 26.424,10.074 26.424,9.956 C26.483,9.956 26.541,9.956 26.600,9.956 C26.717,9.422 26.835,8.889 26.952,8.356 C27.011,8.356 27.070,8.356 27.129,8.356 C27.129,8.237 27.129,8.119 27.129,8.000 C27.187,8.000 27.246,8.000 27.305,8.000 C27.363,7.644 27.422,7.289 27.481,6.933 C27.540,6.933 27.598,6.933 27.657,6.933 C27.657,6.815 27.657,6.696 27.657,6.578 C27.716,6.578 27.775,6.578 27.833,6.578 C27.951,6.044 28.068,5.511 28.186,4.978 C28.244,4.978 28.303,4.978 28.362,4.978 C28.362,4.859 28.362,4.741 28.362,4.622 C28.421,4.622 28.479,4.622 28.538,4.622 C28.597,4.267 28.656,3.911 28.714,3.556 C28.773,3.556 28.832,3.556 28.890,3.556 C28.890,3.437 28.890,3.319 28.890,3.200 C28.949,3.200 29.008,3.200 29.067,3.200 C29.067,3.022 29.067,2.844 29.067,2.667 C29.125,2.667 29.184,2.667 29.243,2.667 C29.412,2.241 29.920,0.119 30.124,0.000 C32.708,0.000 35.292,0.000 37.876,0.000 C42.750,13.332 47.626,26.668 52.500,40.000 C50.034,40.000 47.566,40.000 45.100,40.000 C45.100,39.941 45.100,39.881 45.100,39.822 C44.360,39.599 44.196,39.208 43.867,38.578 C43.808,38.578 43.749,38.578 43.690,38.578 C43.690,38.400 43.690,38.222 43.690,38.044 C43.632,38.044 43.573,38.044 43.514,38.044 C43.514,37.867 43.514,37.689 43.514,37.511 C43.456,37.511 43.397,37.511 43.338,37.511 C43.338,37.333 43.338,37.156 43.338,36.978 C43.279,36.978 43.221,36.978 43.162,36.978 C43.162,36.800 43.162,36.622 43.162,36.444 C43.103,36.444 43.044,36.444 42.986,36.444 C42.986,36.267 42.986,36.089 42.986,35.911 C42.927,35.911 42.868,35.911 42.810,35.911 C42.810,35.733 42.810,35.556 42.810,35.378 C42.751,35.378 42.692,35.378 42.633,35.378 C42.633,35.200 42.633,35.022 42.633,34.844 C42.575,34.844 42.516,34.844 42.457,34.844 C42.281,34.074 42.105,33.304 41.929,32.533 C40.454,28.801 39.522,24.531 38.052,20.800 C37.876,20.030 37.700,19.259 37.524,18.489 C37.465,18.489 37.406,18.489 37.348,18.489 C37.289,18.133 37.230,17.778 37.171,17.422 C37.113,17.422 37.054,17.422 36.995,17.422 C36.995,17.244 36.995,17.067 36.995,16.889 C36.937,16.889 36.878,16.889 36.819,16.889 C36.819,16.711 36.819,16.533 36.819,16.356 C36.760,16.356 36.702,16.356 36.643,16.356 C36.643,16.178 36.643,16.000 36.643,15.822 C36.584,15.822 36.525,15.822 36.467,15.822 C36.349,15.230 36.232,14.637 36.114,14.044 C36.056,14.044 35.997,14.044 35.938,14.044 C35.879,13.689 35.821,13.333 35.762,12.978 C35.703,12.978 35.644,12.978 35.586,12.978 C35.527,12.622 35.468,12.267 35.410,11.911 C35.351,11.911 35.292,11.911 35.233,11.911 C35.233,11.674 35.233,11.437 35.233,11.200 C34.880,10.214 34.314,9.204 34.176,8.000 Z"/>
<path fill-rule="evenodd"  stroke-width="1px" stroke="rgb(53, 53, 53)" fill="rgb(255, 226, 46)"
 d="M21.831,20.000 C21.764,21.025 21.256,21.906 20.941,22.703 C20.822,23.243 20.703,23.784 20.585,24.324 C20.525,24.324 20.466,24.324 20.407,24.324 C20.407,24.504 20.407,24.685 20.407,24.865 C20.347,24.865 20.288,24.865 20.229,24.865 C20.169,25.225 20.110,25.586 20.051,25.946 C19.992,25.946 19.932,25.946 19.873,25.946 C19.469,26.385 19.503,26.090 18.983,26.306 C18.983,26.366 18.983,26.426 18.983,26.486 C18.805,26.486 18.627,26.486 18.449,26.486 C18.449,26.547 18.449,26.607 18.449,26.667 C18.271,26.667 18.093,26.667 17.915,26.667 C17.915,26.727 17.915,26.787 17.915,26.847 C17.737,26.847 17.559,26.847 17.381,26.847 C17.381,26.907 17.381,26.967 17.381,27.027 C15.483,27.628 13.585,28.228 11.686,28.829 C11.686,28.889 11.686,28.949 11.686,29.009 C12.042,29.009 12.398,29.009 12.754,29.009 C13.288,29.459 14.458,29.133 15.246,29.369 C16.210,29.658 17.662,29.804 18.627,30.090 C19.042,30.090 19.458,30.090 19.873,30.090 C19.873,30.150 19.873,30.210 19.873,30.270 C20.229,30.270 20.585,30.270 20.941,30.270 C20.941,30.330 20.941,30.390 20.941,30.450 C21.356,30.450 21.771,30.450 22.186,30.450 C22.186,30.511 22.186,30.571 22.186,30.631 C22.602,30.631 23.017,30.631 23.432,30.631 C26.265,31.479 29.844,31.409 32.686,32.252 C33.102,32.252 33.517,32.252 33.932,32.252 C33.932,32.312 33.932,32.372 33.932,32.432 C34.288,32.432 34.644,32.432 35.000,32.432 C35.000,32.492 35.000,32.553 35.000,32.613 C35.415,32.613 35.831,32.613 36.246,32.613 C36.246,32.673 36.246,32.733 36.246,32.793 C36.602,32.793 36.958,32.793 37.314,32.793 C38.346,33.104 39.856,33.211 40.873,33.514 C41.664,33.749 42.128,33.343 42.653,33.874 C43.167,34.348 43.049,34.880 43.364,35.495 C43.424,35.495 43.483,35.495 43.542,35.495 C43.720,36.036 43.898,36.577 44.076,37.117 C44.136,37.117 44.195,37.117 44.254,37.117 C44.254,37.237 44.254,37.357 44.254,37.477 C44.314,37.477 44.373,37.477 44.432,37.477 C44.432,37.598 44.432,37.718 44.432,37.838 C44.492,37.838 44.551,37.838 44.610,37.838 C44.610,37.958 44.610,38.078 44.610,38.198 C44.669,38.198 44.729,38.198 44.788,38.198 C44.788,38.318 44.788,38.438 44.788,38.559 C44.847,38.559 44.907,38.559 44.966,38.559 C44.966,38.739 44.966,38.919 44.966,39.099 C45.025,39.099 45.085,39.099 45.144,39.099 C45.144,39.219 45.144,39.339 45.144,39.459 C45.203,39.459 45.263,39.459 45.322,39.459 C45.381,39.640 45.441,39.820 45.500,40.000 C45.322,40.000 45.144,40.000 44.966,40.000 C44.966,39.940 44.966,39.880 44.966,39.820 C44.017,39.700 43.068,39.580 42.119,39.459 C40.030,38.803 37.435,38.658 35.356,38.018 C35.000,38.018 34.644,38.018 34.288,38.018 C30.689,36.902 26.312,36.780 22.720,35.676 C22.364,35.676 22.008,35.676 21.653,35.676 C21.653,35.616 21.653,35.556 21.653,35.495 C21.356,35.495 21.059,35.495 20.763,35.495 C20.763,35.435 20.763,35.375 20.763,35.315 C20.407,35.315 20.051,35.315 19.695,35.315 C17.626,34.676 15.003,34.509 12.932,33.874 C12.576,33.874 12.220,33.874 11.864,33.874 C10.763,33.535 9.220,33.308 8.127,32.973 C7.771,32.973 7.415,32.973 7.059,32.973 C6.299,32.739 5.352,32.492 4.390,32.432 C4.093,30.511 3.797,28.588 3.500,26.667 C6.428,25.565 9.586,24.487 12.398,23.243 C12.576,23.243 12.754,23.243 12.932,23.243 C12.932,23.183 12.932,23.123 12.932,23.063 C13.288,23.003 13.644,22.943 14.000,22.883 C14.000,22.823 14.000,22.763 14.000,22.703 C14.119,22.703 14.237,22.703 14.356,22.703 C14.356,22.643 14.356,22.583 14.356,22.523 C14.534,22.523 14.712,22.523 14.890,22.523 C14.890,22.462 14.890,22.402 14.890,22.342 C15.246,22.282 15.602,22.222 15.958,22.162 C15.958,22.102 15.958,22.042 15.958,21.982 C16.076,21.982 16.195,21.982 16.314,21.982 C16.314,21.922 16.314,21.862 16.314,21.802 C16.847,21.682 17.381,21.562 17.915,21.441 C17.915,21.381 17.915,21.321 17.915,21.261 C18.034,21.261 18.153,21.261 18.271,21.261 C18.271,21.201 18.271,21.141 18.271,21.081 C18.805,20.961 19.339,20.841 19.873,20.721 C19.873,20.661 19.873,20.601 19.873,20.541 C19.992,20.541 20.110,20.541 20.229,20.541 C20.229,20.480 20.229,20.420 20.229,20.360 C20.763,20.240 21.297,20.120 21.831,20.000 Z"/>
</svg>