<svg 
 xmlns="http://www.w3.org/2000/svg"
 xmlns:xlink="http://www.w3.org/1999/xlink"
 width="46px" height="72px">
<path fill-rule="evenodd"  fill="rgb(60, 186, 228)"
 d="M39.627,-0.007 L6.371,-0.007 C3.113,-0.007 -0.001,3.744 -0.001,7.000 L-0.001,64.999 C-0.001,68.255 3.113,72.006 6.371,72.006 L39.627,72.006 C42.885,72.006 45.999,68.255 45.999,64.999 L45.999,7.000 C45.999,3.744 42.885,-0.007 39.627,-0.007 ZM6.371,3.363 L39.627,3.363 C41.577,3.363 43.164,4.949 43.164,6.898 L43.164,11.740 L2.834,11.740 L2.834,6.898 C2.834,4.949 4.421,3.363 6.371,3.363 ZM43.164,15.110 L43.164,56.888 L2.834,56.888 L2.834,15.110 L43.164,15.110 ZM39.627,68.635 L6.371,68.635 C4.421,68.635 2.834,67.050 2.834,65.101 L2.999,60.000 L42.999,60.000 L43.164,65.101 C43.164,67.050 41.577,68.635 39.627,68.635 Z"/>
<path fill-rule="evenodd"  fill="rgb(53, 53, 53)"
 d="M28.061,8.736 L17.939,8.736 C17.282,8.736 16.752,8.206 16.752,7.552 C16.752,6.897 17.282,6.366 17.939,6.366 L28.061,6.366 C28.715,6.366 29.246,6.897 29.246,7.552 C29.246,8.206 28.715,8.736 28.061,8.736 ZM22.999,60.828 C24.961,60.828 26.557,62.423 26.557,64.383 C26.557,66.345 24.961,67.939 22.999,67.939 C21.037,67.939 19.440,66.345 19.440,64.383 C19.440,62.423 21.037,60.828 22.999,60.828 ZM22.999,65.569 C23.653,65.569 24.185,65.037 24.185,64.383 C24.185,63.730 23.653,63.199 22.999,63.199 C22.345,63.199 21.812,63.730 21.812,64.383 C21.812,65.037 22.345,65.569 22.999,65.569 Z"/>
</svg>