<svg 
 xmlns="http://www.w3.org/2000/svg"
 xmlns:xlink="http://www.w3.org/1999/xlink"
 width="72px" height="72px">
<path fill-rule="evenodd"  fill="rgb(60, 186, 228)"
 d="M47.068,66.392 C43.550,67.847 39.826,68.585 35.999,68.585 C28.293,68.585 20.880,65.477 15.461,60.026 C15.627,60.026 12.796,62.068 12.999,61.999 C18.887,68.047 27.544,72.000 35.999,72.000 C40.145,72.000 44.180,71.199 47.991,69.620 C48.606,69.366 49.472,68.106 48.999,66.999 C48.744,66.385 47.682,66.137 47.068,66.392 Z"/>
<path fill-rule="evenodd"  fill="rgb(60, 186, 228)"
 d="M8.408,37.297 C8.768,33.517 9.860,29.895 11.653,26.529 C15.265,19.752 21.488,14.698 28.851,12.502 C28.775,12.647 28.294,9.195 28.259,9.406 C20.149,11.733 12.595,17.482 8.633,24.919 C6.689,28.565 5.507,32.490 5.118,36.587 C5.055,37.248 5.764,38.603 6.964,38.710 C7.628,38.775 8.345,37.959 8.408,37.297 Z"/>
<path fill-rule="evenodd"  fill="rgb(60, 186, 228)"
 d="M50.062,15.710 C53.449,17.727 56.358,20.346 58.708,23.496 C63.440,29.839 65.371,37.817 64.103,45.569 C64.001,45.434 67.065,47.476 66.999,46.999 C68.481,38.500 66.777,28.395 61.585,21.435 C59.040,18.022 55.887,15.184 52.217,13.000 C51.624,12.647 50.030,12.697 49.387,13.754 C49.026,14.334 49.469,15.357 50.062,15.710 Z"/>
<path fill-rule="evenodd"  fill="rgb(53, 53, 53)"
 d="M71.999,55.102 C71.999,59.760 67.210,64.551 62.552,64.551 C57.892,64.551 53.102,59.760 53.102,55.102 C53.102,50.650 57.480,46.087 61.936,45.693 C64.654,46.064 71.999,47.815 71.999,55.102 ZM62.552,49.068 C59.223,49.068 56.516,51.775 56.516,55.102 C56.516,58.430 59.223,61.137 62.552,61.137 C65.878,61.137 68.586,58.430 68.586,55.102 C68.586,51.775 65.878,49.068 62.552,49.068 ZM61.502,45.640 C60.689,45.614 60.818,45.568 61.502,45.640 ZM62.552,45.654 C62.346,45.654 62.141,45.675 61.936,45.693 C61.776,45.671 61.628,45.653 61.502,45.640 C61.758,45.648 62.098,45.654 62.552,45.654 ZM9.447,64.551 C4.789,64.551 -0.001,59.760 -0.001,55.102 C-0.001,50.445 4.789,45.654 9.447,45.654 C14.106,45.654 18.896,50.445 18.896,55.102 C18.896,63.551 9.064,64.551 9.447,64.551 ZM9.447,49.068 C6.120,49.068 3.413,51.775 3.413,55.102 C3.413,58.430 6.120,61.137 9.447,61.137 C12.775,61.137 15.482,58.430 15.482,55.102 C15.482,51.775 12.775,49.068 9.447,49.068 Z"/>
<path fill-rule="evenodd"  fill="rgb(53, 53, 53)"
 d="M36.551,0.655 C31.893,0.655 27.102,5.445 27.102,10.103 C27.102,14.760 31.893,19.551 36.551,19.551 C41.210,19.551 45.999,14.760 45.999,10.103 C45.999,-0.688 29.879,0.655 36.551,0.655 ZM36.551,16.137 C33.224,16.137 30.516,13.430 30.516,10.103 C30.516,6.776 33.224,4.069 36.551,4.069 C39.878,4.069 42.585,6.776 42.585,10.103 C42.585,13.430 39.878,16.137 36.551,16.137 Z"/>
</svg>