<svg xmlns="http://www.w3.org/2000/svg" viewBox="0 0 105600 1174" width="105600" height="1174"><path d="M0 0h1920v1079l-195-1-353-1-187 1H912l-475 1H0V0z" fill="rgba(255,255,255,0.5)"/><path d="M0 3l1921-3-1 1174H0V3z" fill="#ffffff"/><path d="M1920 .004h1920V1078.26l-195.022-.715-353.328-4.428-186.581.993-272.896 1.909-475.003.336-344.181 2.609-92.989-2.79V.004z" fill="rgba(255,255,255,0.5)"/><path d="M1920 3l1920.996-3-1 1172.89-202.807-2.167-394.188-1.314-478.53-.024-282.783 1.394-165.453-1.374-180.668-.004-215.567.538V3z" fill="#ffffff"/><path d="M3840 .016h1920v1075.752l-195.095.246-354.434-15.978-185.171.969-272.543 8.34-475.016-1.901-344.788 11.398-92.953-12.186V.016z" fill="rgba(255,255,255,0.5)"/><path d="M3840 3l1920.984-3-1 1169.577-202.23-8.631-394.749-5.239-480.112-.095-282.136 5.555-163.82-5.476-182.663-.016-214.274 2.146V3z" fill="#ffffff"/><path d="M5760 .039h1920v1070.959l-195.234 2.083-356.552-38.084-182.472.922-271.868 20.65-475.039-6.182-345.952 28.223-92.883-30.175V.039z" fill="rgba(255,255,255,0.5)"/><path d="M5760 3.001L7680.965 0l-1 1164.114-201.279-19.294-395.675-11.71-482.722-.212-281.067 12.416-161.127-12.239-185.953-.036-212.142 4.797V3.001z" fill="#ffffff"/><path d="M7680 .077h1920v1063.156l-195.461 5.076-359.999-74.065-178.079.847-270.769 40.685-475.077-13.151-347.846 55.606-92.769-59.452V.077z" fill="rgba(255,255,255,0.5)"/><path d="M7680 3.001L9600.938 0l-1 1156.587-199.969-33.986-396.95-20.627-486.316-.373-279.597 21.87-157.416-21.559-190.486-.062-209.204 8.449V3.001z" fill="#ffffff"/><path d="M9600 .134h1920v1051.462l-195.802 9.561-365.165-127.992-171.493.732-269.124 70.715-475.133-23.597-350.684 96.648L9600 974.332V.134z" fill="rgba(255,255,255,0.5)"/><path d="M9600 3.002L11520.905 0l-1 1147.113-198.321-52.474-398.554-31.85-490.841-.575-277.745 33.768-152.746-33.289-196.191-.095L9600 1075.644V3.002z" fill="#ffffff"/><path d="M11520 .213h1920v1035.156l-196.277 15.814-372.368-203.194-162.311.574-266.828 112.59-475.213-38.162-354.642 153.881L11520 912.35V.213z" fill="rgba(255,255,255,0.5)"/><path d="M11520 3.002L13440.865 0l-1 1135.843-196.359-74.471-400.464-45.199-496.224-.817-275.541 47.923-147.191-47.242-202.977-.136-201.109 18.515V3.002z" fill="#ffffff"/><path d="M13440 .312h1920v1014.633l-196.875 23.684-381.434-297.841-150.754.375-263.939 165.294-475.312-56.494-359.623 225.912L13440 834.34V.312z" fill="rgba(255,255,255,0.5)"/><path d="M13440 3.003L15360.819 0l-1 1122.953-194.116-99.626-402.647-60.468-502.379-1.093-273.023 64.111-140.836-63.2-210.74-.182-196.078 24.77V3.003z" fill="#ffffff"/><path d="M15360 .421h1920v992.262l-197.526 32.264-391.317-401.007-138.157.158-260.789 222.74-475.421-76.475-365.053 304.426L15360 749.311V.421z" fill="rgba(255,255,255,0.5)"/><path d="M15360 3.004L17280.768 0l-1 1108.647-191.625-127.547-405.071-77.414-509.212-1.399-270.226 82.078-133.784-80.912-219.355-.233L15360 934.932V3.004z" fill="#ffffff"/><path d="M17280 .524h1920v971.081l-198.143 40.387-400.673-498.683-126.23-.047-257.808 277.13-475.524-95.393-370.194 378.762L17280 668.805V.524z" fill="rgba(255,255,255,0.5)"/><path d="M17280 3.005L19200.713 0l-.999 1093.15-188.929-157.792-407.696-95.771-516.613-1.731-267.197 101.541-126.145-100.098-228.687-.289L17280 878.242V3.005z" fill="#ffffff"/><path d="M19200 .613h1920v952.734l-198.678 47.422-408.777-583.296-115.899-.226-255.225 324.247-475.613-111.781-374.647 443.158L19200 599.065V.613z" fill="rgba(255,255,255,0.5)"/><path d="M19200 3.006L21120.655 0l-1 1076.706-186.066-189.885-410.482-115.25-524.467-2.083-263.983 122.193-118.038-120.457-238.59-.348L19200 818.087V3.006z" fill="#ffffff"/><path d="M21120 .687h1920v937.429l-199.123 53.292-415.539-653.875-107.281-.374-253.07 363.548-475.687-125.451-378.362 496.872L21120 540.894V.687z" fill="rgba(255,255,255,0.5)"/><path d="M21120 3.007L23040.594 0l-.999 1059.574-183.085-223.322-413.384-135.544-532.649-2.45-260.634 143.71-109.593-141.669-248.907-.408L21120 755.416V3.007z" fill="#ffffff"/><path d="M23040 .749h1920v924.798l-199.491 58.135-421.119-712.125-100.167-.498-251.292 395.985-475.749-136.734-381.428 541.204L23040 492.883V.749z" fill="rgba(255,255,255,0.5)"/><path d="M23040 3.008L24960.532 0l-1 1042.023-180.03-257.575-416.356-156.334-541.032-2.825-257.204 165.752-100.941-163.398-259.475-.471L23040 691.213V3.008z" fill="#ffffff"/><path d="M24960 .799h1920v914.377l-199.795 62.132-425.722-760.185-94.299-.599-249.825 422.747-475.799-146.042-383.957 577.78L24960 453.271V.799z" fill="rgba(255,255,255,0.5)"/><path d="M24960 3.01L26880.469 0l-.999 1024.33-176.951-292.105-419.354-177.292-549.481-3.204-253.746 187.973-92.219-185.303-270.13-.534L24960 626.491V3.01z" fill="#ffffff"/><path d="M26880 .841h1920v905.761l-200.046 65.436-429.528-799.919-89.448-.682-248.612 444.872-475.841-153.738-386.048 608.019L26880 420.523V.841z" fill="rgba(255,255,255,0.5)"/><path d="M26880 3.011L28800.407 0l-.999 1006.774-173.896-326.369-422.328-198.089-557.865-3.58-250.315 210.022-83.565-207.038-280.702-.597L26880 562.268V3.011z" fill="#ffffff"/><path d="M28800 .876h1920v898.628l-200.254 68.172-432.678-832.812-85.432-.751-247.608 463.188-475.875-160.109-387.78 633.052L28800 393.412V.876z" fill="rgba(255,255,255,0.5)"/><path d="M28800 3.012L30720.346 0l-.999 989.631-170.912-359.828-425.232-218.396-566.053-3.947-246.964 231.553-75.113-228.263-291.026-.658L28800 499.556V3.012z" fill="#ffffff"/><path d="M30720 .904h1920v892.729l-200.425 70.434-435.285-860.018-82.11-.808-246.777 478.337-475.904-165.378-389.212 653.758L30720 370.989V.904z" fill="rgba(255,255,255,0.5)"/><path d="M30720 3.013L32640.288 0l-.999 973.17-168.048-391.952-428.02-237.895-573.914-4.299-243.747 252.226-66.999-248.643-300.938-.717L30720 439.341V3.013z" fill="#ffffff"/><path d="M32640 .928h1920v887.867l-200.567 72.299-437.432-882.437-79.372-.855-246.093 490.821-475.928-169.721-390.391 670.82L32640 352.511V.928z" fill="rgba(255,255,255,0.5)"/><path d="M32640 3.014L34560.233 0l-.999 957.652-165.347-422.24-430.648-256.276-581.327-4.632-240.713 271.716-59.349-267.856-310.283-.772L32640 382.573V3.014z" fill="#ffffff"/><path d="M34560 .947h1920v883.891l-200.683 73.824-439.189-900.774-77.133-.894-245.533 501.032-475.947-173.272-391.356 684.775L34560 337.397V.947z" fill="rgba(255,255,255,0.5)"/><path d="M34560 3.015L36480.182 0l-.999 943.32-162.852-450.211-433.077-273.254-588.171-4.938-237.911 289.715-52.285-285.6-318.914-.823L34560 330.145V3.015z" fill="#ffffff"/><path d="M36480 .963h1920v880.678l-200.776 75.055-440.608-915.59-75.324-.925-245.081 509.282-475.963-176.142-392.136 696.052L36480 325.185V.963z" fill="rgba(255,255,255,0.5)"/><path d="M36480 3.016L38400.136 0l-.999 930.4-160.603-475.427-435.265-288.558-594.342-5.215-235.386 305.942-45.916-301.596-326.694-.869L36480 282.882V3.016z" fill="#ffffff"/><path d="M38400 .975h1920v878.131l-200.851 76.032-441.733-927.339-73.889-.95-244.723 515.825-475.975-178.418-392.754 704.993L38400 315.502V.975z" fill="rgba(255,255,255,0.5)"/><path d="M38400 3.016L40320.096 0l-.999 919.095-158.636-497.489-437.18-301.949-599.74-5.457-233.177 320.14-40.343-315.592-333.502-.909L38400 241.529V3.016z" fill="#ffffff"/><path d="M40320 .985h1920v876.168l-200.908 76.785-442.6-936.389-72.784-.969-244.446 520.864-475.985-180.17-393.231 711.88L40320 308.043V.985z" fill="rgba(255,255,255,0.5)"/><path d="M40320 3.017L42240.062 0l-.999 909.584-156.98-516.051-438.791-313.215-604.283-5.661-231.318 332.085-35.655-327.368-339.228-.943L40320 206.737V3.017z" fill="#ffffff"/><path d="M42240 .992h1920v874.725l-200.95 77.338-443.238-943.044-71.971-.983-244.243 524.57-475.992-181.46-393.581 716.946L42240 302.557V.992z" fill="rgba(255,255,255,0.5)"/><path d="M42240 3.017L44160.036 0l-1 902.017-155.663-530.822L43563.3 49.016l-607.897-5.823-229.839 341.589-31.924-336.737-343.786-.97L42240 179.053V3.017z" fill="#ffffff"/><path d="M44160 .996h1920v873.746l-200.978 77.714-443.671-947.56-71.42-.993-244.105 527.085-475.996-182.334-393.819 720.382L44160 298.835V.996z" fill="rgba(255,255,255,0.5)"/><path d="M44160 3.018L46080.016 0l-.999 896.511-154.705-541.566-441.006-328.701-610.526-5.94-228.763 348.503-29.21-343.553-347.101-.99L44160 158.913V3.018z" fill="#ffffff"/><path d="M46080 .999h1920v873.184l-200.995 77.93-443.918-950.151-71.104-.999-244.026 528.528-475.999-182.836-393.955 722.354L46080 296.7V.999z" fill="rgba(255,255,255,0.5)"/><path d="M46080 3.018L48000.004 0l-.999 893.155-154.121-548.116-441.574-332.677-612.13-6.013-228.106 352.719-27.556-347.708-349.122-1.002L46080 146.636V3.018z" fill="#ffffff"/><path d="M48000 1h1920v873l-201 78-444-951-71-1-244 529-476-183-394 723-90-773V1z" fill="rgba(255,255,255,0.5)"/><path d="M48000 3.018L49920 0l-.999 892-153.92-550.369-441.77-334.044-612.681-6.037-227.881 354.168-26.986-349.137-349.818-1.006L48000 142.413V3.018z" fill="#ffffff"/><path d="M49920.005 1.003h1920l-.002 870.773-200.985 77.799L51195.25.997l-71.296-.994-244.074 527.65-475.997-182.53-393.873 721.156-90.007-771.029-.003-173.556.005-120.691z" fill="rgba(255,255,255,0.5)"/><path d="M49920 3.01L51840 0l-.999 889.497-153.92-548.826-441.77-333.107-612.681-6.02-227.881 353.175-26.986-348.158-349.818-1.004L49920 142.011V3.01z" fill="#ffffff"/><path d="M51840.022 1.011h1920l-.011 863.207-200.932 77.114L53116.099.989l-72.301-.978-244.325 523.066-475.989-180.936-393.439 714.89-90.034-764.329-.011-172.048.022-119.643z" fill="rgba(255,255,255,0.5)"/><path d="M51840 2.984L53760 0l-.999 881.811-153.92-544.083-441.77-330.23-612.681-5.968-227.881 350.124-26.986-345.15-349.818-.995L51840 140.784V2.984z" fill="#ffffff"/><g><path d="M53760.055 1.028h1920l-.027 848.962-200.835 75.825L55037.698.972l-74.194-.944-244.798 514.434-475.973-177.934-392.623 703.093-90.082-751.716-.028-169.209.055-117.668z" fill="rgba(255,255,255,0.5)"/><path d="M53760 2.94L55680 0l-.999 869.033-153.92-536.199-441.77-325.444-612.681-5.882-227.881 345.05-26.986-340.148-349.818-.98L53760 138.744V2.94z" fill="#ffffff"/></g><g><path d="M55680.107 1.054h1920l-.053 826.278-200.679 73.772L56960.245.946l-77.208-.892-245.552 500.688-475.947-173.152-391.324 684.306-90.16-731.63-.054-164.688.107-114.524z" fill="rgba(255,255,255,0.5)"/><path d="M55680 2.88L57600 0l-.999 851.311-153.92-525.265-441.77-318.807-612.681-5.762-227.881 338.014-26.986-333.212-349.818-.96L55680 135.915V2.88z" fill="#ffffff"/></g><g><path d="M57600.183 1.092h1920l-.091 792.92-200.45 70.754L58883.989.908l-81.64-.816-246.66 480.475-475.909-166.122-389.413 656.68-90.275-702.093-.092-158.039.183-109.901z" fill="rgba(255,255,255,0.5)"/><path d="M57600 2.804L59520 0l-.999 828.855-153.92-511.409-441.77-310.398-612.681-5.61-227.881 329.098-26.986-324.423-349.818-.935L57600 132.33V2.804z" fill="#ffffff"/></g><g><path d="M59520.29 1.145h1920l-.145 746.421-200.13 66.546L60809.209.855l-87.819-.71-248.205 452.299-475.855-156.321-386.75 618.17-90.435-660.921-.145-148.771.29-103.456z" fill="rgba(255,255,255,0.5)"/><path d="M59520 2.713L61440 0l-.999 801.927-153.92-494.794-441.77-300.314-612.681-5.427-227.881 318.405-26.986-313.882-349.818-.905L59520 128.031V2.713z" fill="#ffffff"/></g><g><path d="M61440.43 1.215h1920l-.215 685.117-199.708 60.999L62736.091.785l-95.965-.57-250.241 415.151-475.785-143.4-383.239 567.4-90.646-606.639-.215-136.553.43-94.959z" fill="rgba(255,255,255,0.5)"/><path d="M61440 2.608L63360 0l-.999 770.844-153.92-475.616-441.77-288.673-612.681-5.217-227.881 306.064-26.986-301.717-349.818-.869L61440 123.068V2.608z" fill="#ffffff"/></g><g><path d="M63360.601 1.301h1920l-.3 610.455-199.196 54.241L64664.472.699l-105.885-.398-252.722 369.909-475.699-127.664-378.963 505.566-90.902-540.529-.301-121.672.601-84.61z" fill="rgba(255,255,255,0.5)"/><path d="M63360 2.49L65280 0l-.999 735.97-153.92-454.098-441.77-275.614-612.681-4.981-227.881 292.218-26.986-288.067-349.818-.83L63360 117.5V2.49z" fill="#ffffff"/></g><g><path d="M65280.789 1.394h1920l-.395 528.81-198.634 46.853L66593.638.606l-116.735-.212-255.433 320.436-475.606-110.456-374.287 437.948-91.183-468.235-.394-105.398.789-73.295z" fill="rgba(255,255,255,0.5)"/><path d="M65280 2.361L67200 0l-.999 697.716-153.92-430.495-441.77-261.288-612.681-4.722-227.881 277.028-26.986-273.093-349.818-.787L65280 111.393V2.361z" fill="#ffffff"/></g><g><path d="M67200.972 1.486h1920l-.486 448.888-198.085 39.621L68522.609.514l-127.354-.028-258.088 272.007-475.514-93.611-369.71 371.759-91.457-397.469-.486-89.469.972-62.217z" fill="rgba(255,255,255,0.5)"/><path d="M67200 2.221L69120 0l-.999 656.53-153.92-405.083-441.77-245.864-612.681-4.444-227.881 260.676-26.986-256.973-349.818-.74L67200 104.818V2.221z" fill="#ffffff"/></g><g><path d="M69121.137 1.568h1920l-.569 376.713-197.589 33.09L70450.712.432l-136.945.136-260.486 228.272-475.431-78.399-365.576 311.986-91.706-333.562-.568-75.083 1.137-52.214z" fill="rgba(255,255,255,0.5)"/><path d="M69120 2.074L71040 0l-.999 612.896-153.92-378.161-441.77-229.523-612.681-4.148-227.881 243.35-26.986-239.893-349.818-.692L69120 97.851V2.074z" fill="#ffffff"/></g><g><path d="M71041.28 1.64h1920l-.64 314.259-197.16 27.438L72377.722.36l-145.242.28-262.561 190.427-475.36-65.235-361.999 260.262-91.92-278.261-.64-62.636 1.28-43.557z" fill="rgba(255,255,255,0.5)"/><path d="M71040 1.92L72960 0l-.999 567.326-153.92-350.044-441.77-212.458L71750.63.985l-227.881 225.257-26.986-222.057-349.818-.64L71040 90.576V1.92z" fill="#ffffff"/></g><g><path d="M72961.402 1.701h1920l-.701 261.135-196.795 22.631L74303.686.299l-152.302.402-264.325 158.237-475.299-54.039-358.956 216.267-92.103-231.223-.701-52.048 1.402-36.194z" fill="rgba(255,255,255,0.5)"/><path d="M72960 1.761L74880 0l-.999 520.355-153.92-321.062-441.77-194.868L73670.63.903l-227.881 206.607-26.986-203.672-349.818-.587L72960 83.077V1.761z" fill="#ffffff"/></g><g><path d="M74881.505 1.752h1920l-.753 216.154-196.485 18.56L76228.735.248l-158.278.504-265.82 130.98-475.247-44.558-356.38 179.013-92.258-191.393-.752-43.082 1.505-29.96z" fill="rgba(255,255,255,0.5)"/><path d="M74880 1.599L76800 0l-.999 472.535-153.92-291.557-441.77-176.96L75590.63.82l-227.881 187.62-26.986-184.955-349.818-.533L74880 75.442V1.599z" fill="#ffffff"/></g><g><path d="M76801.592 1.796h1920l-.796 178.05-196.224 15.112L78153.013.204l-163.342.592-267.085 107.89-475.204-36.527-354.198 147.457-92.388-157.654-.796-35.488 1.592-24.678z" fill="rgba(255,255,255,0.5)"/><path d="M76800 1.436L78720 0l-.999 424.426-153.92-261.874-441.77-158.943L77510.63.737l-227.881 168.518-26.986-166.124-349.818-.479L76800 67.761V1.436z" fill="#ffffff"/></g><g><path d="M78721.666 1.833h1920l-.833 145.721-196.001 12.186L80076.642.167l-167.637.666-268.16 88.3-475.167-29.713-352.346 120.683-92.499-129.029-.833-29.044 1.666-20.197z" fill="rgba(255,255,255,0.5)"/><path d="M78720 1.274L80640 0l-.999 376.595-153.92-232.362-441.77-141.031L79430.63.654l-227.881 149.527-26.986-147.403-349.818-.425L78720 60.125V1.274z" fill="#ffffff"/></g><g><path d="M80641.729 1.865h1920l-.864 118.259-195.813 9.702L81999.725.135l-171.287.73-269.071 71.66-475.136-23.926-350.773 97.94-92.593-104.713-.865-23.57 1.729-16.391z" fill="rgba(255,255,255,0.5)"/><path d="M80640 1.115L82560 0l-.999 329.601-153.92-203.366-441.77-123.432L81350.63.572l-227.881 130.868-26.986-129.009-349.818-.372L80640 52.622V1.115z" fill="#ffffff"/></g><g><path d="M82561.783 1.891h1920l-.892 94.936-195.652 7.591L83922.343.109l-174.386.782-269.846 57.527-475.109-19.009-349.437 78.624-92.674-84.061-.891-18.922 1.783-13.159z" fill="rgba(255,255,255,0.5)"/><path d="M82560 .961L84480 0l-.999 283.998-153.92-175.229-441.77-106.354L83270.63.493l-227.881 112.761-26.986-111.159-349.818-.321L82560 45.342V.961z" fill="#ffffff"/></g><g><path d="M84481.828 1.914h1920l-.914 75.164-195.517 5.801L85844.562.086l-177.012.828-270.503 45.546-475.086-14.842-348.305 62.249-92.742-66.554-.914-14.981 1.828-10.418z" fill="rgba(255,255,255,0.5)"/><path d="M84480 .813L86400 0l-.999 240.32-153.92-148.279-441.77-89.997L85190.63.417l-227.881 95.419-26.986-94.063-349.818-.272L84480 38.368V.813z" fill="#ffffff"/></g><g><path d="M86401.866 1.933h1920l-.933 58.467-195.402 4.291L87766.437.067l-179.231.866-271.058 35.429-475.067-11.323-347.349 48.421-92.799-51.77-.933-11.653 1.866-8.104z" fill="rgba(255,255,255,0.5)"/><path d="M86400 .674L88320 0l-.999 199.08-153.92-122.834-441.77-74.553L87110.63.346l-227.881 79.044-26.986-77.921-349.818-.225L86400 31.784V.674z" fill="#ffffff"/></g><g><path d="M88321.898 1.949h1920l-.949 44.461-195.306 3.023L89688.009.051l-181.092.898-271.523 26.941-475.051-8.371-346.547 36.822-92.847-39.368-.949-8.862 1.898-6.162z" fill="rgba(255,255,255,0.5)"/><path d="M88320 .544L90240 0l-.999 160.763-153.92-99.192-441.77-60.204L89030.63.279l-227.881 63.831-26.986-62.924-349.818-.182L88320 25.667V.544z" fill="#ffffff"/></g><g><path d="M90241.925 1.962h1920l-.963 32.826-195.225 1.97-356.422-36.72-182.638.924-271.91 19.891-475.037-5.918-345.88 27.185-92.888-29.065-.962-6.543 1.925-4.55z" fill="rgba(255,255,255,0.5)"/><path d="M90240 .426L92160 0l-.999 125.818-153.92-77.631-441.77-47.117-612.681-.852-227.881 49.956-26.986-49.246-349.818-.142L90240 20.088V.426z" fill="#ffffff"/></g><g><path d="M92161.947 1.973h1920l-.974 23.297-195.16 1.109L93530.385.027l-183.905.946-272.226 14.117-475.026-3.91-345.335 19.294-92.92-20.628-.973-4.644 1.947-3.229z" fill="rgba(255,255,255,0.5)"/><path d="M92160 .321L94080 0l-.999 94.655-153.92-58.403-441.77-35.447-612.681-.641-227.881 37.583-26.986-37.048-349.818-.108L92160 15.112V.321z" fill="#ffffff"/></g><g><path d="M94081.964 1.982h1920l-.982 15.654-195.108.416L95451.243.018l-184.92.964-272.48 9.486-475.018-2.3-344.897 12.964-92.946-13.86-.982-3.12 1.964-2.17z" fill="rgba(255,255,255,0.5)"/><path d="M94080 .229L96000 0l-.999 67.641-153.92-41.735-441.77-25.331-612.681-.458-227.881 26.857-26.986-26.475-349.818-.076L94080 10.799V.229z" fill="#ffffff"/></g><g><path d="M96001.978 1.989h1920l-.989 9.707-195.067-.121L97371.91.011l-185.71.978-272.677 5.882-475.011-1.046-344.556 8.04-92.967-8.596-.989-1.935 1.978-1.345z" fill="rgba(255,255,255,0.5)"/><path d="M96000 .153L97920 0l-.999 45.092-153.92-27.822-441.77-16.887-612.681-.305-227.881 17.904-26.986-17.649-349.818-.051L96000 7.2V.153z" fill="#ffffff"/></g><g><path d="M97921.988 1.994h1920l-.994 5.298-195.036-.521-353.553-6.765-186.296.988-272.824 3.21-475.006-.116-344.303 4.387-92.982-4.691-.994-1.056 1.988-.734z" fill="rgba(255,255,255,0.5)"/><path d="M97920 .093L99840 0l-.999 27.274-153.92-16.828-441.77-10.214-612.681-.185-227.881 10.829-26.986-10.674-349.818-.032L97920 4.355V.093z" fill="#ffffff"/></g><g><path d="M99841.995 1.997h1920l-.998 2.288-195.015-.793-353.239-3.489-186.696.994-272.924 1.386-475.002.518-344.131 1.895-92.993-2.026-.997-.456 1.995-.317z" fill="rgba(255,255,255,0.5)"/><path d="M99840 .049L101760 0l-.999 14.395-153.92-8.882-441.77-5.391-612.681-.097-227.881 5.715-26.986-5.633-349.818-.017L99840 2.299V.049z" fill="#ffffff"/></g><g><path d="M101761.999 1.999h1920l-1 .556-195.003-.949-353.058-1.605-186.927.998-272.981.337-475.001.883-344.032.461-92.998-.493-.999-.111 1.999-.077z" fill="rgba(255,255,255,0.5)"/><path d="M101760 .023L103680 0l-.999 6.606-153.92-4.076-441.77-2.474-612.681-.044-227.881 2.622-26.986-2.585-349.818-.008L101760 1.055V.023z" fill="#ffffff"/></g><g><path d="M103682 2h1920-1l-195-1-353-1-187 1h-273l-475 1h-438 2z" fill="rgba(255,255,255,0.5)"/><path d="M103680 .014L105600 0l-.999 4-153.92-2.468-441.77-1.498-612.681-.027-227.881 1.588-26.986-1.565-349.818-.005-105.945.614V.014z" fill="#ffffff"/></g></svg>
