<svg 
 xmlns="http://www.w3.org/2000/svg"
 xmlns:xlink="http://www.w3.org/1999/xlink"
 width="29px" height="19px">
<path fill-rule="evenodd"  fill="rgb(246, 62, 16)"
 d="M-0.000,10.834 C-0.000,9.945 -0.000,9.056 -0.000,8.167 C7.950,8.167 15.903,8.167 23.853,8.167 C23.853,8.159 23.853,8.150 23.853,8.142 C23.783,8.101 23.710,7.998 23.652,7.940 C23.631,7.923 23.610,7.906 23.589,7.889 C23.471,7.767 23.353,7.645 23.235,7.523 C23.122,7.413 23.008,7.303 22.895,7.194 C22.554,6.848 22.214,6.503 21.873,6.157 C21.381,5.669 20.889,5.180 20.397,4.691 C19.914,4.202 19.430,3.714 18.946,3.225 C18.694,2.976 18.442,2.728 18.190,2.479 C18.139,2.424 18.089,2.370 18.038,2.315 C17.946,2.226 17.853,2.138 17.761,2.049 C17.761,2.045 17.761,2.041 17.761,2.037 C17.716,1.991 17.655,1.954 17.622,1.898 C17.692,1.857 17.765,1.754 17.824,1.695 C17.845,1.679 17.866,1.662 17.887,1.645 C18.005,1.523 18.122,1.400 18.240,1.278 C18.316,1.207 18.391,1.135 18.467,1.063 C18.682,0.844 18.896,0.625 19.110,0.406 C19.123,0.398 19.136,0.389 19.148,0.381 C19.228,0.297 19.308,0.212 19.388,0.128 C19.429,0.087 19.484,0.054 19.514,0.002 C19.528,0.012 19.516,-0.000 19.527,0.014 C22.684,3.174 25.843,6.335 29.000,9.494 C29.000,9.499 29.000,9.503 29.000,9.507 C28.996,9.507 28.992,9.507 28.987,9.507 C25.834,12.671 22.680,15.836 19.527,19.000 C19.523,19.000 19.518,19.000 19.514,19.000 C19.514,18.996 19.514,18.992 19.514,18.987 C19.444,18.946 19.371,18.844 19.312,18.785 C19.291,18.768 19.270,18.751 19.249,18.735 C19.132,18.612 19.014,18.490 18.896,18.368 C18.820,18.296 18.745,18.225 18.669,18.153 C18.455,17.934 18.240,17.715 18.026,17.496 C18.013,17.487 18.000,17.479 17.988,17.471 C17.908,17.386 17.828,17.302 17.748,17.218 C17.707,17.176 17.652,17.143 17.622,17.091 C17.679,17.058 17.716,16.997 17.761,16.952 C17.773,16.944 17.786,16.935 17.799,16.927 C17.891,16.830 17.984,16.733 18.076,16.636 C18.148,16.569 18.219,16.501 18.291,16.434 C18.551,16.169 18.812,15.903 19.073,15.638 C19.636,15.077 20.200,14.517 20.763,13.957 C21.267,13.447 21.772,12.937 22.277,12.427 C22.584,12.124 22.891,11.820 23.197,11.517 C23.273,11.437 23.349,11.357 23.425,11.277 C23.530,11.171 23.635,11.066 23.740,10.961 C23.781,10.919 23.849,10.886 23.866,10.822 C23.862,10.822 23.858,10.822 23.853,10.822 C23.832,10.840 23.780,10.834 23.740,10.834 C23.643,10.834 23.546,10.834 23.450,10.834 C23.067,10.834 22.684,10.834 22.302,10.834 C20.793,10.834 19.283,10.834 17.773,10.834 C11.850,10.834 5.924,10.834 -0.000,10.834 Z"/>
</svg>