<svg 
 xmlns="http://www.w3.org/2000/svg"
 xmlns:xlink="http://www.w3.org/1999/xlink"
 width="16px" height="9px">
<path fill-rule="evenodd"  fill="rgb(64, 64, 64)"
 d="M0.743,0.001 C0.945,-0.002 1.087,0.038 1.208,0.116 C1.218,0.119 1.228,0.121 1.238,0.124 C1.240,0.129 1.243,0.134 1.245,0.139 C1.250,0.139 1.255,0.139 1.260,0.139 C1.263,0.144 1.265,0.149 1.268,0.154 C1.273,0.154 1.278,0.154 1.283,0.154 C1.288,0.162 1.293,0.170 1.298,0.177 C1.379,0.236 1.439,0.306 1.508,0.376 C1.545,0.412 1.583,0.448 1.620,0.484 C1.718,0.586 1.815,0.688 1.913,0.790 C1.965,0.841 2.018,0.892 2.070,0.943 C2.195,1.073 2.320,1.203 2.445,1.333 C2.540,1.428 2.635,1.522 2.730,1.617 C2.730,1.622 2.730,1.627 2.730,1.632 C4.045,2.972 5.360,4.312 6.675,5.652 C6.905,5.889 7.135,6.127 7.364,6.364 C7.459,6.458 7.554,6.553 7.649,6.647 C7.722,6.724 7.794,6.800 7.867,6.877 C7.877,6.885 7.887,6.892 7.897,6.900 C7.924,6.928 7.966,6.993 8.009,6.999 C9.891,5.075 11.774,3.150 13.656,1.226 C13.738,1.145 13.821,1.063 13.903,0.981 C13.921,0.961 13.938,0.940 13.956,0.920 C14.013,0.862 14.073,0.812 14.121,0.744 C14.213,0.652 14.306,0.560 14.398,0.468 C14.477,0.388 14.547,0.298 14.638,0.231 C14.653,0.213 14.668,0.195 14.683,0.177 C14.688,0.177 14.693,0.177 14.698,0.177 C14.703,0.170 14.708,0.162 14.713,0.154 C14.718,0.154 14.723,0.154 14.728,0.154 C14.731,0.149 14.733,0.144 14.736,0.139 C14.741,0.139 14.746,0.139 14.751,0.139 C14.753,0.134 14.756,0.129 14.758,0.124 C14.768,0.121 14.778,0.119 14.788,0.116 C14.791,0.111 14.793,0.106 14.796,0.101 C14.806,0.098 14.816,0.096 14.826,0.093 C14.826,0.091 14.826,0.088 14.826,0.085 C14.836,0.083 14.846,0.080 14.856,0.078 C14.856,0.075 14.856,0.073 14.856,0.070 C14.863,0.070 14.871,0.070 14.878,0.070 C14.878,0.068 14.878,0.065 14.878,0.062 C14.883,0.062 14.888,0.062 14.893,0.062 C14.893,0.060 14.893,0.057 14.893,0.055 C14.901,0.055 14.908,0.055 14.916,0.055 C14.916,0.052 14.916,0.050 14.916,0.047 C14.923,0.047 14.931,0.047 14.938,0.047 C14.938,0.045 14.938,0.042 14.938,0.039 C14.946,0.039 14.953,0.039 14.961,0.039 C14.961,0.037 14.961,0.034 14.961,0.032 C14.971,0.032 14.981,0.032 14.991,0.032 C14.991,0.029 14.991,0.027 14.991,0.024 C15.001,0.024 15.011,0.024 15.021,0.024 C15.021,0.022 15.021,0.019 15.021,0.017 C15.033,0.017 15.046,0.017 15.058,0.017 C15.058,0.014 15.058,0.011 15.058,0.009 C15.078,0.009 15.098,0.009 15.118,0.009 C15.175,-0.007 15.271,0.001 15.321,0.017 C15.333,0.017 15.346,0.017 15.358,0.017 C15.358,0.019 15.358,0.022 15.358,0.024 C15.368,0.024 15.378,0.024 15.388,0.024 C15.388,0.027 15.388,0.029 15.388,0.032 C15.398,0.032 15.408,0.032 15.418,0.032 C15.418,0.034 15.418,0.037 15.418,0.039 C15.426,0.039 15.433,0.039 15.441,0.039 C15.441,0.042 15.441,0.045 15.441,0.047 C15.448,0.047 15.456,0.047 15.463,0.047 C15.463,0.050 15.463,0.052 15.463,0.055 C15.471,0.055 15.478,0.055 15.486,0.055 C15.486,0.057 15.486,0.060 15.486,0.062 C15.491,0.062 15.496,0.062 15.501,0.062 C15.501,0.065 15.501,0.068 15.501,0.070 C15.508,0.070 15.516,0.070 15.523,0.070 C15.523,0.073 15.523,0.075 15.523,0.078 C15.533,0.080 15.543,0.083 15.553,0.085 C15.553,0.088 15.553,0.091 15.553,0.093 C15.563,0.096 15.573,0.098 15.583,0.101 C15.586,0.106 15.588,0.111 15.591,0.116 C15.601,0.119 15.611,0.121 15.621,0.124 C15.623,0.129 15.626,0.134 15.628,0.139 C15.633,0.139 15.638,0.139 15.643,0.139 C15.646,0.144 15.648,0.149 15.651,0.154 C15.656,0.154 15.661,0.154 15.666,0.154 C15.673,0.165 15.681,0.175 15.688,0.185 C15.693,0.185 15.698,0.185 15.703,0.185 C15.723,0.208 15.743,0.231 15.763,0.254 C15.781,0.269 15.798,0.284 15.816,0.300 C15.816,0.305 15.816,0.310 15.816,0.315 C15.826,0.323 15.836,0.330 15.846,0.338 C15.846,0.343 15.846,0.348 15.846,0.353 C15.851,0.356 15.856,0.359 15.861,0.361 C15.863,0.369 15.866,0.376 15.868,0.384 C15.871,0.384 15.873,0.384 15.876,0.384 C15.878,0.394 15.881,0.404 15.883,0.415 C15.888,0.417 15.893,0.420 15.898,0.422 C15.901,0.433 15.903,0.443 15.906,0.453 C15.908,0.453 15.911,0.453 15.913,0.453 C15.916,0.463 15.918,0.473 15.921,0.484 C15.923,0.484 15.926,0.484 15.928,0.484 C15.931,0.496 15.933,0.509 15.936,0.522 C15.938,0.522 15.941,0.522 15.943,0.522 C15.943,0.530 15.943,0.537 15.943,0.545 C15.946,0.545 15.948,0.545 15.951,0.545 C15.951,0.552 15.951,0.560 15.951,0.568 C15.953,0.568 15.956,0.568 15.958,0.568 C15.958,0.575 15.958,0.583 15.958,0.591 C15.961,0.591 15.963,0.591 15.966,0.591 C15.966,0.598 15.966,0.606 15.966,0.614 C15.968,0.614 15.971,0.614 15.973,0.614 C15.973,0.624 15.973,0.634 15.973,0.644 C15.976,0.644 15.978,0.644 15.981,0.644 C15.983,0.675 15.986,0.706 15.988,0.736 C16.019,0.850 15.982,1.017 15.951,1.096 C15.951,1.104 15.951,1.111 15.951,1.119 C15.948,1.119 15.946,1.119 15.943,1.119 C15.943,1.124 15.943,1.129 15.943,1.134 C15.941,1.134 15.938,1.134 15.936,1.134 C15.936,1.142 15.936,1.150 15.936,1.157 C15.933,1.157 15.931,1.157 15.928,1.157 C15.923,1.173 15.918,1.188 15.913,1.203 C15.911,1.203 15.908,1.203 15.906,1.203 C15.906,1.208 15.906,1.214 15.906,1.219 C15.903,1.219 15.901,1.219 15.898,1.219 C15.896,1.229 15.893,1.239 15.891,1.249 C15.886,1.252 15.881,1.254 15.876,1.257 C15.876,1.262 15.876,1.267 15.876,1.272 C15.873,1.272 15.871,1.272 15.868,1.272 C15.866,1.280 15.863,1.288 15.861,1.295 C15.856,1.298 15.851,1.300 15.846,1.303 C15.846,1.308 15.846,1.313 15.846,1.318 C15.838,1.323 15.831,1.328 15.823,1.333 C15.823,1.339 15.823,1.344 15.823,1.349 C15.808,1.362 15.793,1.374 15.778,1.387 C15.778,1.392 15.778,1.397 15.778,1.402 C15.748,1.430 15.718,1.459 15.688,1.487 C15.671,1.507 15.653,1.527 15.636,1.548 C15.561,1.622 15.486,1.696 15.411,1.770 C15.123,2.066 14.836,2.362 14.548,2.658 C13.099,4.136 11.649,5.614 10.199,7.091 C9.942,7.357 9.684,7.622 9.427,7.888 C9.277,8.038 9.127,8.189 8.977,8.339 C8.909,8.411 8.842,8.482 8.774,8.554 C8.744,8.582 8.714,8.610 8.684,8.638 C8.634,8.692 8.584,8.745 8.534,8.799 C8.529,8.799 8.524,8.799 8.519,8.799 C8.512,8.809 8.504,8.819 8.497,8.829 C8.489,8.832 8.482,8.835 8.474,8.837 C8.472,8.842 8.469,8.847 8.467,8.852 C8.462,8.852 8.457,8.852 8.452,8.852 C8.449,8.857 8.447,8.863 8.444,8.868 C8.437,8.870 8.429,8.873 8.422,8.875 C8.422,8.878 8.422,8.880 8.422,8.883 C8.407,8.888 8.392,8.893 8.377,8.898 C8.377,8.901 8.377,8.903 8.377,8.906 C8.372,8.906 8.367,8.906 8.362,8.906 C8.362,8.909 8.362,8.911 8.362,8.914 C8.347,8.919 8.332,8.924 8.317,8.929 C8.317,8.931 8.317,8.934 8.317,8.937 C8.302,8.939 8.287,8.942 8.272,8.944 C8.272,8.947 8.272,8.949 8.272,8.952 C8.267,8.952 8.262,8.952 8.257,8.952 C8.257,8.954 8.257,8.957 8.257,8.960 C8.227,8.965 8.197,8.970 8.167,8.975 C7.925,9.051 7.649,8.939 7.507,8.837 C7.499,8.827 7.492,8.817 7.484,8.806 C7.479,8.806 7.474,8.806 7.469,8.806 C7.424,8.758 7.379,8.709 7.334,8.661 C7.307,8.635 7.279,8.610 7.252,8.584 C7.160,8.487 7.067,8.390 6.975,8.293 C6.852,8.171 6.730,8.048 6.607,7.926 C6.355,7.666 6.102,7.405 5.850,7.145 C5.545,6.836 5.240,6.527 4.935,6.218 C3.865,5.124 2.795,4.029 1.725,2.934 C1.620,2.829 1.515,2.724 1.410,2.620 C1.138,2.339 0.866,2.058 0.593,1.778 C0.528,1.714 0.463,1.650 0.398,1.586 C0.366,1.550 0.333,1.515 0.301,1.479 C0.271,1.451 0.241,1.423 0.211,1.395 C0.211,1.390 0.211,1.385 0.211,1.379 C0.196,1.367 0.181,1.354 0.166,1.341 C0.166,1.336 0.166,1.331 0.166,1.326 C0.158,1.321 0.151,1.316 0.143,1.310 C0.143,1.305 0.143,1.300 0.143,1.295 C0.138,1.293 0.133,1.290 0.128,1.288 C0.126,1.277 0.123,1.267 0.121,1.257 C0.116,1.254 0.111,1.252 0.106,1.249 C0.081,1.191 0.056,1.132 0.031,1.073 C0.031,1.063 0.031,1.053 0.031,1.043 C-0.004,0.937 -0.013,0.758 0.023,0.644 C0.023,0.634 0.023,0.624 0.023,0.614 C0.026,0.614 0.028,0.614 0.031,0.614 C0.031,0.606 0.031,0.598 0.031,0.591 C0.033,0.591 0.036,0.591 0.038,0.591 C0.038,0.583 0.038,0.575 0.038,0.568 C0.041,0.568 0.043,0.568 0.046,0.568 C0.046,0.560 0.046,0.552 0.046,0.545 C0.048,0.545 0.051,0.545 0.053,0.545 C0.053,0.537 0.053,0.530 0.053,0.522 C0.056,0.522 0.058,0.522 0.061,0.522 C0.061,0.517 0.061,0.512 0.061,0.507 C0.063,0.507 0.066,0.507 0.068,0.507 C0.068,0.499 0.068,0.491 0.068,0.484 C0.071,0.484 0.073,0.484 0.076,0.484 C0.078,0.473 0.081,0.463 0.083,0.453 C0.086,0.453 0.088,0.453 0.091,0.453 C0.093,0.443 0.096,0.433 0.098,0.422 C0.103,0.420 0.108,0.417 0.113,0.415 C0.116,0.404 0.118,0.394 0.121,0.384 C0.126,0.381 0.131,0.379 0.136,0.376 C0.136,0.371 0.136,0.366 0.136,0.361 C0.143,0.356 0.151,0.351 0.158,0.346 C0.158,0.341 0.158,0.336 0.158,0.330 C0.166,0.325 0.173,0.320 0.181,0.315 C0.181,0.310 0.181,0.305 0.181,0.300 C0.201,0.282 0.221,0.264 0.241,0.246 C0.258,0.226 0.276,0.205 0.293,0.185 C0.298,0.185 0.303,0.185 0.308,0.185 C0.313,0.177 0.318,0.170 0.323,0.162 C0.328,0.162 0.333,0.162 0.338,0.162 C0.341,0.157 0.343,0.152 0.346,0.147 C0.353,0.144 0.361,0.142 0.368,0.139 C0.368,0.136 0.368,0.134 0.368,0.131 C0.373,0.131 0.378,0.131 0.383,0.131 C0.386,0.126 0.388,0.121 0.391,0.116 C0.406,0.111 0.421,0.106 0.436,0.101 C0.438,0.096 0.441,0.091 0.443,0.085 C0.451,0.085 0.458,0.085 0.466,0.085 C0.466,0.083 0.466,0.080 0.466,0.078 C0.476,0.075 0.486,0.073 0.496,0.070 C0.496,0.068 0.496,0.065 0.496,0.062 C0.503,0.062 0.511,0.062 0.518,0.062 C0.518,0.060 0.518,0.057 0.518,0.055 C0.523,0.055 0.528,0.055 0.533,0.055 C0.533,0.052 0.533,0.050 0.533,0.047 C0.551,0.045 0.568,0.042 0.586,0.039 C0.586,0.037 0.586,0.034 0.586,0.032 C0.593,0.032 0.601,0.032 0.608,0.032 C0.608,0.029 0.608,0.027 0.608,0.024 C0.618,0.024 0.628,0.024 0.638,0.024 C0.638,0.022 0.638,0.019 0.638,0.017 C0.668,0.007 0.723,0.019 0.743,0.001 Z"/>
</svg>