<svg 
 xmlns="http://www.w3.org/2000/svg"
 xmlns:xlink="http://www.w3.org/1999/xlink"
 width="69px" height="64px">
<path fill-rule="evenodd"  fill="rgb(255, 255, 255)"
 d="M61.999,40.999 C61.999,40.999 61.475,40.841 59.875,40.841 L17.976,40.841 L18.973,45.692 L59.560,45.692 L59.560,49.089 L18.973,49.089 C17.373,49.089 15.977,47.948 15.654,46.378 L7.456,6.495 L0.020,3.260 L1.369,0.145 L8.805,3.380 C9.816,3.820 10.552,4.728 10.775,5.810 L11.841,10.995 L64.613,10.995 C66.259,10.995 68.999,10.999 68.999,10.999 L61.999,40.999 ZM12.539,14.391 L17.278,37.446 L59.875,37.446 L64.613,14.391 L12.539,14.391 ZM26.435,19.811 L50.713,19.811 L50.713,23.207 L26.435,23.207 L26.435,19.811 ZM49.392,32.026 L27.757,32.026 L27.757,28.629 L49.392,28.629 L49.392,32.026 ZM27.934,51.835 C31.280,51.835 34.002,54.563 34.002,57.917 C34.002,61.271 31.280,63.999 27.934,63.999 C24.587,63.999 21.865,61.271 21.865,57.917 C21.865,54.563 24.587,51.835 27.934,51.835 ZM27.934,60.603 C29.411,60.603 30.613,59.398 30.613,57.917 C30.613,56.436 29.411,55.230 27.934,55.230 C26.455,55.230 25.253,56.436 25.253,57.917 C25.253,59.397 26.455,60.603 27.934,60.603 ZM49.219,51.835 C52.565,51.835 55.288,54.563 55.288,57.917 C55.288,61.271 52.565,63.999 49.219,63.999 C45.873,63.999 43.151,61.271 43.151,57.917 C43.151,54.563 45.873,51.835 49.219,51.835 ZM49.219,60.603 C50.698,60.603 51.900,59.398 51.900,57.917 C51.900,56.436 50.698,55.230 49.219,55.230 C47.742,55.230 46.539,56.436 46.539,57.917 C46.539,59.397 47.742,60.603 49.219,60.603 Z"/>
</svg>