<svg 
 xmlns="http://www.w3.org/2000/svg"
 xmlns:xlink="http://www.w3.org/1999/xlink"
 width="14px" height="27px">
<path fill-rule="evenodd"  fill="rgb(0, 0, 0)"
 d="M8.777,26.681 L3.117,26.681 L3.117,14.860 L-0.001,14.860 L-0.001,9.432 L3.117,9.432 L3.117,6.384 C3.117,3.585 4.864,0.318 9.789,0.318 C11.525,0.318 12.799,0.480 12.853,0.488 L13.375,0.556 L13.250,5.636 L12.673,5.631 C12.673,5.631 11.378,5.619 9.967,5.619 C8.917,5.619 8.777,5.878 8.777,6.911 L8.777,9.433 L13.414,9.433 L13.157,14.862 L8.778,14.862 L8.778,26.681 L8.777,26.681 L8.777,26.681 ZM4.287,25.508 L7.606,25.508 L7.606,13.688 L12.038,13.688 L12.184,10.605 L7.606,10.605 L7.606,6.910 C7.606,5.691 7.886,4.444 9.965,4.444 C10.801,4.444 11.596,4.448 12.107,4.453 L12.177,1.596 C11.661,1.550 10.801,1.491 9.787,1.491 C5.732,1.491 4.286,4.018 4.286,6.384 L4.286,10.605 L1.168,10.605 L1.168,13.688 L4.286,13.688 L4.286,25.508 L4.287,25.508 L4.287,25.508 Z"/>
</svg>