<svg 
 xmlns="http://www.w3.org/2000/svg"
 xmlns:xlink="http://www.w3.org/1999/xlink"
 width="64px" height="64px">
<path fill-rule="evenodd"  fill="rgb(255, 255, 255)"
 d="M-0.001,63.999 L-0.001,26.249 L3.750,26.249 L3.750,18.749 L7.499,18.749 L7.499,-0.001 L18.749,-0.001 L18.749,18.749 L22.499,18.749 L22.499,26.249 L26.250,26.249 L26.250,34.749 L37.749,34.749 L37.749,26.249 L41.500,26.249 L41.500,18.749 L45.249,18.749 L45.249,-0.001 L56.499,-0.001 L56.499,18.749 L60.249,18.749 L60.249,26.249 L64.000,26.249 L64.000,63.999 L-0.001,63.999 ZM16.000,2.750 L10.250,2.750 L10.250,18.749 L16.000,18.749 L16.000,2.750 ZM19.749,21.499 L6.500,21.499 L6.500,26.249 L19.749,26.249 L19.749,21.499 ZM23.500,28.999 L2.749,28.999 L2.749,61.249 L23.500,61.249 L23.500,28.999 ZM37.749,37.499 L26.250,37.499 L26.250,61.249 L37.749,61.249 L37.749,37.499 ZM53.749,2.750 L47.999,2.750 L47.999,18.749 L53.749,18.749 L53.749,2.750 ZM57.500,21.499 L44.250,21.499 L44.250,26.249 L57.500,26.249 L57.500,21.499 ZM61.249,28.999 L40.499,28.999 L40.499,61.249 L61.249,61.249 L61.249,28.999 ZM48.999,37.499 L45.249,37.499 L45.249,33.749 L48.999,33.749 L48.999,37.499 ZM48.999,44.999 L45.249,44.999 L45.249,41.249 L48.999,41.249 L48.999,44.999 ZM56.499,37.499 L52.750,37.499 L52.750,33.749 L56.499,33.749 L56.499,37.499 ZM56.499,44.999 L52.750,44.999 L52.750,41.249 L56.499,41.249 L56.499,44.999 ZM11.249,37.499 L7.499,37.499 L7.499,33.749 L11.249,33.749 L11.249,37.499 ZM11.249,44.999 L7.499,44.999 L7.499,41.249 L11.249,41.249 L11.249,44.999 ZM18.749,37.499 L15.000,37.499 L15.000,33.749 L18.749,33.749 L18.749,37.499 ZM18.749,44.999 L15.000,44.999 L15.000,41.249 L18.749,41.249 L18.749,44.999 Z"/>
</svg>