<svg 
 xmlns="http://www.w3.org/2000/svg"
 xmlns:xlink="http://www.w3.org/1999/xlink"
 width="41px" height="31px">
<path fill-rule="evenodd"  fill="rgb(0, 0, 0)"
 d="M40.216,6.430 C35.837,8.592 33.443,11.074 33.087,13.817 C35.109,14.204 36.828,15.150 38.205,16.635 C39.771,18.321 40.564,20.306 40.564,22.533 C40.564,24.887 39.791,26.904 38.264,28.529 C36.726,30.168 34.767,30.999 32.444,30.999 C29.865,30.999 27.606,29.941 25.734,27.854 C23.883,25.792 22.944,23.262 22.944,20.330 C22.944,11.839 27.699,5.125 37.078,0.375 L37.821,-0.001 L40.999,6.044 L40.216,6.430 ZM37.103,2.278 C33.056,4.435 29.962,6.993 27.899,9.890 C25.736,12.927 24.640,16.439 24.640,20.330 C24.640,22.863 25.409,24.951 26.993,26.714 C28.553,28.452 30.336,29.297 32.444,29.297 C34.307,29.297 35.808,28.664 37.032,27.361 C38.268,26.045 38.869,24.465 38.868,22.533 C38.868,20.725 38.245,19.176 36.965,17.795 C35.674,16.404 34.081,15.616 32.096,15.386 L31.346,15.298 L31.346,14.540 C31.346,10.990 33.816,7.884 38.691,5.300 L37.103,2.278 ZM10.079,13.814 C12.140,14.200 13.879,15.147 15.259,16.635 C16.824,18.322 17.618,20.306 17.618,22.533 C17.618,24.889 16.833,26.908 15.283,28.534 C13.723,30.169 11.756,30.999 9.435,30.999 C6.854,30.999 4.606,29.939 2.752,27.851 C0.925,25.790 -0.001,23.260 -0.001,20.330 C-0.001,11.840 4.732,5.127 14.067,0.376 L14.804,0.002 L18.062,6.042 L17.268,6.431 C12.854,8.593 10.440,11.074 10.079,13.814 ZM14.103,2.276 C10.073,4.432 6.993,6.991 4.939,9.888 C2.786,12.926 1.695,16.439 1.695,20.330 C1.695,22.865 2.455,24.954 4.019,26.718 C5.557,28.454 7.329,29.297 9.435,29.297 C11.301,29.297 12.813,28.662 14.059,27.357 C15.313,26.040 15.923,24.463 15.923,22.533 C15.923,20.726 15.300,19.176 14.019,17.795 C12.728,16.404 11.116,15.616 9.089,15.386 L8.337,15.300 L8.337,14.540 C8.337,10.990 10.825,7.885 15.735,5.302 L14.103,2.276 Z"/>
</svg>