<svg 
 xmlns="http://www.w3.org/2000/svg"
 xmlns:xlink="http://www.w3.org/1999/xlink"
 width="73px" height="65px">
<path fill-rule="evenodd"  fill="rgb(255, 255, 255)"
 d="M72.276,41.504 L45.878,60.725 C43.344,62.566 40.113,63.350 37.018,62.852 L15.748,59.473 L9.999,63.999 C9.650,64.286 10.044,63.999 9.634,63.999 C9.118,63.999 4.999,63.999 4.999,63.999 C4.999,63.999 7.692,61.434 8.466,60.800 L14.049,56.169 C14.458,55.837 14.990,55.701 15.505,55.777 L37.579,59.277 C39.719,59.609 41.948,59.081 43.708,57.798 L68.453,39.769 C68.422,39.754 68.407,39.739 68.377,39.724 C67.420,39.136 66.314,39.136 64.993,39.724 C60.366,41.760 50.445,46.513 50.445,46.513 L48.867,43.254 C48.867,43.254 58.849,38.487 63.522,36.420 C68.467,34.248 72.777,39.181 72.777,39.181 C72.777,39.181 72.989,40.961 72.276,41.504 ZM51.506,16.474 C49.307,16.474 47.213,15.630 45.650,14.061 C42.419,10.847 42.419,5.627 45.650,2.413 C47.213,0.859 49.291,-0.001 51.506,-0.001 C53.721,-0.001 55.800,0.859 57.362,2.413 C60.594,5.627 60.594,10.847 57.362,14.061 C55.800,15.614 53.721,16.474 51.506,16.474 ZM54.814,4.978 C53.934,4.103 52.765,3.620 51.522,3.620 C50.278,3.620 49.109,4.103 48.229,4.978 C46.424,6.773 46.424,9.701 48.229,11.511 C49.109,12.386 50.278,12.869 51.522,12.869 C52.765,12.869 53.934,12.386 54.814,11.511 C56.619,9.715 56.619,6.773 54.814,4.978 ZM46.561,19.085 C50.702,23.203 50.702,29.887 46.561,34.006 C44.543,35.997 41.888,37.099 39.051,37.099 C36.214,37.099 33.559,35.997 31.541,34.006 C27.400,29.887 27.400,23.203 31.541,19.085 C33.559,17.093 36.214,15.992 39.051,15.992 C41.888,15.992 44.558,17.093 46.561,19.085 ZM39.051,19.612 C37.185,19.612 35.440,20.337 34.120,21.649 C31.405,24.350 31.405,28.756 34.120,31.456 C35.440,32.769 37.185,33.493 39.051,33.493 C40.917,33.493 42.662,32.769 43.981,31.456 C46.697,28.756 46.697,24.350 43.981,21.649 C42.662,20.337 40.917,19.612 39.051,19.612 ZM42.995,44.310 C43.223,46.679 41.994,50.435 37.701,51.115 C33.377,51.809 26.428,51.386 26.428,51.386 L26.656,47.780 C26.656,47.780 33.210,48.173 37.125,47.554 C38.186,47.388 38.839,46.905 39.157,46.045 C39.188,45.970 39.218,45.880 39.233,45.804 L27.324,42.213 C22.363,40.720 16.552,43.481 15.976,43.782 L2.762,51.703 L0.880,48.595 L14.155,40.614 C14.186,40.584 14.232,40.569 14.262,40.554 C14.565,40.403 21.787,36.752 28.370,38.728 L41.706,42.741 C42.419,42.953 42.920,43.571 42.995,44.310 Z"/>
</svg>