<svg 
 xmlns="http://www.w3.org/2000/svg"
 xmlns:xlink="http://www.w3.org/1999/xlink"
 width="93px" height="64px">
<path fill-rule="evenodd"  fill="rgb(255, 255, 255)"
 d="M83.369,55.999 C82.610,60.524 78.692,64.000 74.010,64.000 C69.326,64.000 65.410,60.524 64.650,55.999 L29.406,55.999 C28.647,60.524 24.730,64.000 20.047,64.000 C15.364,64.000 11.446,60.524 10.687,55.999 L1.000,55.999 C1.000,55.999 1.014,54.689 1.215,54.079 L4.955,33.597 C4.960,33.492 4.978,33.386 5.013,33.279 L5.811,28.799 L0.582,28.799 L0.582,25.599 L6.380,25.599 L6.950,22.399 L1.848,22.399 L1.848,19.199 L7.520,19.199 L8.089,15.999 L2.956,15.999 L2.956,12.799 L8.659,12.799 L9.229,9.599 L4.063,9.599 L4.063,6.399 L9.799,6.399 L10.999,-0.001 C10.999,-0.001 11.343,-0.001 12.134,-0.001 L69.262,-0.001 C70.105,-0.001 70.999,-0.001 70.999,-0.001 C70.999,-0.001 70.076,8.543 67.999,14.999 L75.999,14.999 C78.215,14.999 79.999,14.999 79.999,14.999 L84.770,34.080 L90.942,36.639 C92.208,37.119 92.999,38.239 92.999,39.679 L92.999,52.799 C92.999,54.559 93.000,55.999 93.000,55.999 L83.369,55.999 ZM74.010,60.799 C77.490,60.799 80.340,57.919 80.340,54.400 C80.340,50.880 77.490,47.999 74.010,47.999 C70.528,47.999 67.680,50.880 67.680,54.400 C67.680,57.919 70.528,60.799 74.010,60.799 ZM20.047,60.799 C23.529,60.799 26.376,57.919 26.376,54.400 C26.376,50.880 23.528,47.999 20.047,47.999 C16.565,47.999 13.717,50.880 13.717,54.400 C13.717,57.919 16.565,60.799 20.047,60.799 ZM13.559,3.199 L12.996,6.399 L30.016,6.399 L30.016,9.599 L12.433,9.599 L11.870,12.799 L28.909,12.799 L28.909,15.999 L11.308,15.999 L10.745,19.200 L27.801,19.200 L27.801,22.399 L10.182,22.399 L9.620,25.600 L26.535,25.600 L26.693,28.799 L9.057,28.799 L8.494,31.999 L48.690,31.999 C48.861,31.999 49.030,31.994 49.198,31.985 C49.248,31.983 49.297,31.981 49.346,31.978 C49.494,31.968 49.639,31.956 49.784,31.941 C49.877,31.931 49.968,31.919 50.059,31.907 C50.102,31.901 50.146,31.895 50.189,31.889 C56.760,30.914 61.078,23.624 63.670,16.937 C65.764,11.465 66.899,5.952 67.363,3.199 L13.559,3.199 ZM89.835,39.520 L82.872,36.800 L74.484,36.800 C71.635,36.800 69.263,34.400 69.263,31.519 L69.263,24.000 L72.427,24.000 L72.427,31.519 C72.427,32.640 73.377,33.600 74.484,33.600 L81.413,33.600 L77.999,17.999 L66.794,17.599 C63.603,26.022 58.186,34.733 49.399,35.181 C49.384,35.181 49.370,35.182 49.354,35.182 C49.135,35.193 48.914,35.200 48.690,35.200 L7.862,35.200 L4.538,52.799 L10.687,52.799 C11.220,49.616 13.319,46.954 16.146,45.655 C16.209,45.625 16.271,45.596 16.336,45.568 C16.375,45.551 16.415,45.535 16.455,45.518 C16.557,45.476 16.661,45.433 16.765,45.394 C16.794,45.384 16.822,45.374 16.850,45.364 C16.967,45.321 17.083,45.281 17.201,45.243 C17.227,45.234 17.253,45.227 17.278,45.219 C17.398,45.182 17.520,45.146 17.642,45.114 C17.669,45.107 17.696,45.100 17.723,45.093 C17.844,45.062 17.965,45.033 18.087,45.007 C18.118,45.001 18.148,44.994 18.179,44.988 C18.297,44.964 18.416,44.943 18.535,44.923 C18.571,44.917 18.606,44.911 18.642,44.906 C18.757,44.888 18.873,44.874 18.990,44.861 C19.030,44.856 19.069,44.850 19.109,44.847 C19.225,44.835 19.343,44.827 19.461,44.820 C19.500,44.817 19.538,44.813 19.577,44.811 C19.732,44.804 19.889,44.799 20.047,44.799 C20.204,44.799 20.360,44.804 20.515,44.811 C20.554,44.813 20.593,44.817 20.632,44.820 C20.749,44.827 20.867,44.835 20.984,44.847 C21.024,44.851 21.063,44.856 21.102,44.861 C21.219,44.874 21.335,44.888 21.451,44.906 C21.486,44.911 21.521,44.917 21.556,44.923 C21.676,44.942 21.795,44.964 21.913,44.988 C21.944,44.994 21.975,45.001 22.006,45.007 C22.128,45.033 22.249,45.062 22.369,45.093 C22.395,45.100 22.423,45.107 22.450,45.114 C22.572,45.146 22.694,45.182 22.814,45.219 C22.839,45.226 22.865,45.234 22.891,45.243 C23.008,45.281 23.125,45.321 23.241,45.363 C23.270,45.374 23.299,45.384 23.327,45.394 C23.431,45.433 23.534,45.475 23.636,45.518 C23.677,45.535 23.717,45.551 23.757,45.568 C23.820,45.595 23.883,45.625 23.946,45.654 C26.775,46.953 28.871,49.615 29.406,52.799 L64.514,52.799 C65.306,48.319 69.104,44.799 73.851,44.799 C73.879,44.799 73.907,44.801 73.935,44.801 C73.960,44.801 73.984,44.799 74.010,44.799 C78.692,44.799 82.610,48.274 83.369,52.799 L89.835,52.799 L89.835,52.799 L89.835,39.520 ZM65.097,40.000 L70.262,40.000 L70.262,43.199 L65.097,43.199 L65.097,40.000 ZM20.047,51.199 C21.788,51.199 23.211,52.639 23.211,54.400 C23.211,56.159 21.788,57.600 20.047,57.600 C18.305,57.600 16.882,56.159 16.882,54.400 C16.882,52.639 18.305,51.199 20.047,51.199 ZM74.010,51.199 C75.750,51.199 77.175,52.639 77.175,54.400 C77.175,56.159 75.750,57.600 74.010,57.600 C72.269,57.600 70.844,56.159 70.844,54.400 C70.844,52.639 72.269,51.199 74.010,51.199 Z"/>
</svg>