<svg 
 xmlns="http://www.w3.org/2000/svg"
 xmlns:xlink="http://www.w3.org/1999/xlink"
 width="36px" height="27px">
<path fill-rule="evenodd"  fill="rgb(0, 0, 0)"
 d="M12.156,26.996 C8.786,26.996 5.446,26.072 2.500,24.326 L0.400,23.081 L2.847,23.122 C2.927,23.125 3.054,23.132 3.255,23.132 C4.187,23.132 7.155,22.984 10.198,21.284 C7.911,20.611 6.020,18.860 5.242,16.568 L4.856,15.434 L5.907,15.704 C4.224,14.424 3.122,12.457 3.002,10.264 L2.944,9.214 L3.917,9.635 C4.095,9.712 4.276,9.780 4.459,9.838 C3.076,7.923 2.239,4.963 3.984,1.819 L4.464,0.952 L5.075,1.735 C8.002,5.479 12.342,7.763 17.075,8.077 C17.046,7.786 17.026,7.518 17.026,7.434 C17.026,3.958 19.699,0.363 24.171,0.363 C26.048,0.363 27.856,1.101 29.187,2.400 C30.971,1.986 32.676,0.956 32.694,0.945 L34.241,0.002 L33.656,1.705 C33.377,2.520 32.950,3.272 32.402,3.927 C32.701,3.831 32.994,3.720 33.296,3.590 L35.154,2.691 L34.373,4.351 C33.729,5.721 32.654,6.852 31.319,7.575 C31.613,12.112 29.728,17.174 26.337,20.891 C23.820,23.651 19.337,26.950 12.276,26.994 L12.156,26.996 ZM5.274,24.280 C7.457,25.212 9.798,25.699 12.156,25.699 L12.267,25.699 C18.852,25.657 23.025,22.589 25.365,20.022 C28.628,16.445 30.398,11.553 29.981,7.255 L29.937,6.799 L30.356,6.606 C31.021,6.299 31.616,5.874 32.116,5.356 C31.557,5.496 30.960,5.601 30.272,5.683 L29.770,5.743 L29.379,4.760 L29.835,4.413 C30.473,4.043 31.030,3.561 31.479,2.996 C30.768,3.297 29.927,3.590 29.087,3.745 L28.729,3.811 L28.483,3.544 C27.379,2.345 25.808,1.658 24.171,1.658 C20.519,1.658 18.336,4.595 18.336,7.433 C18.336,7.605 18.422,8.387 18.453,8.588 L18.750,9.424 L17.805,9.404 C12.737,9.296 8.022,7.098 4.712,3.336 C3.403,6.739 5.601,9.459 6.651,10.273 L8.187,11.465 L6.237,11.432 C5.626,11.421 5.027,11.339 4.448,11.186 C4.963,13.460 6.780,15.288 9.139,15.789 L11.723,16.339 L9.180,17.047 C8.736,17.170 8.233,17.233 7.684,17.233 C7.428,17.233 7.182,17.219 6.956,17.198 C7.978,18.980 9.883,20.178 11.990,20.279 L13.831,20.369 L12.347,21.449 C9.802,23.302 7.162,24.015 5.274,24.280 Z"/>
</svg>