<svg 
 xmlns="http://www.w3.org/2000/svg"
 xmlns:xlink="http://www.w3.org/1999/xlink"
 width="38px" height="27px">
<path fill-rule="evenodd"  fill="rgb(0, 0, 0)"
 d="M19.932,26.980 C19.932,26.980 19.932,26.980 19.932,26.980 C15.703,26.980 11.098,26.848 6.248,26.589 C3.382,26.434 1.159,24.246 0.842,21.268 C0.313,16.293 0.313,11.270 0.842,6.341 C1.158,3.387 3.378,1.200 6.241,1.021 C14.607,0.500 23.215,0.500 31.839,1.021 C34.736,1.195 36.906,3.332 37.241,6.338 C37.769,11.098 37.770,16.118 37.242,21.266 C36.937,24.241 34.769,26.380 31.847,26.588 C28.171,26.848 24.161,26.980 19.932,26.980 ZM18.943,2.044 C14.727,2.044 10.484,2.176 6.330,2.434 C4.142,2.569 2.507,4.200 2.262,6.490 C1.744,11.321 1.744,16.242 2.262,21.119 C2.507,23.428 4.139,25.058 6.324,25.176 C11.149,25.434 15.728,25.565 19.931,25.565 C24.127,25.565 28.101,25.434 31.745,25.177 C33.949,25.020 35.587,23.391 35.819,21.123 C36.337,16.075 36.337,11.153 35.820,6.493 C35.564,4.196 33.930,2.565 31.752,2.434 C27.470,2.175 23.160,2.044 18.943,2.044 ZM15.403,8.794 L15.403,18.503 L24.817,13.681 L15.403,8.794 Z"/>
</svg>