<svg 
 xmlns="http://www.w3.org/2000/svg"
 xmlns:xlink="http://www.w3.org/1999/xlink"
 width="6px" height="10px">
<path fill-rule="evenodd"  fill="rgb(64, 196, 177)"
 d="M1.113,0.126 C1.113,0.133 1.113,0.141 1.113,0.149 C1.121,0.149 1.129,0.149 1.138,0.149 C1.138,0.157 1.138,0.164 1.138,0.172 C1.146,0.172 1.154,0.172 1.162,0.172 C1.162,0.180 1.162,0.187 1.162,0.195 C1.170,0.195 1.178,0.195 1.187,0.195 C1.187,0.202 1.187,0.210 1.187,0.218 C1.195,0.218 1.203,0.218 1.211,0.218 C1.211,0.226 1.211,0.233 1.211,0.241 C1.219,0.241 1.227,0.241 1.236,0.241 C1.236,0.249 1.236,0.256 1.236,0.264 C1.244,0.264 1.252,0.264 1.260,0.264 C1.260,0.271 1.260,0.279 1.260,0.287 C1.268,0.287 1.276,0.287 1.284,0.287 C1.284,0.295 1.284,0.302 1.284,0.310 C1.293,0.310 1.301,0.310 1.309,0.310 C1.309,0.318 1.309,0.326 1.309,0.333 C1.317,0.333 1.325,0.333 1.333,0.333 C1.333,0.341 1.333,0.349 1.333,0.356 C1.341,0.356 1.350,0.356 1.358,0.356 C1.358,0.364 1.358,0.371 1.358,0.379 C1.366,0.379 1.374,0.379 1.382,0.379 C1.382,0.387 1.382,0.394 1.382,0.402 C1.390,0.402 1.399,0.402 1.407,0.402 C1.407,0.410 1.407,0.418 1.407,0.425 C1.415,0.425 1.423,0.425 1.431,0.425 C1.431,0.433 1.431,0.441 1.431,0.448 C1.439,0.448 1.448,0.448 1.456,0.448 C1.456,0.456 1.456,0.463 1.456,0.471 C1.464,0.471 1.472,0.471 1.480,0.471 C1.480,0.479 1.480,0.486 1.480,0.494 C1.488,0.494 1.496,0.494 1.505,0.494 C1.505,0.502 1.505,0.510 1.505,0.518 C1.513,0.518 1.521,0.518 1.529,0.518 C1.529,0.525 1.529,0.533 1.529,0.540 C1.537,0.540 1.545,0.540 1.554,0.540 C1.554,0.549 1.554,0.556 1.554,0.563 C1.562,0.563 1.570,0.563 1.578,0.563 C1.578,0.571 1.578,0.579 1.578,0.587 C1.586,0.587 1.594,0.587 1.603,0.587 C1.603,0.594 1.603,0.602 1.603,0.609 C1.611,0.609 1.619,0.609 1.627,0.609 C1.627,0.617 1.627,0.625 1.627,0.632 C1.635,0.632 1.643,0.632 1.651,0.632 C1.651,0.640 1.651,0.648 1.651,0.656 C1.660,0.656 1.668,0.656 1.676,0.656 C1.676,0.663 1.676,0.671 1.676,0.679 C1.684,0.679 1.692,0.679 1.700,0.679 C1.700,0.686 1.700,0.694 1.700,0.702 C1.709,0.702 1.717,0.702 1.725,0.702 C1.725,0.709 1.725,0.717 1.725,0.725 C1.733,0.725 1.741,0.725 1.749,0.725 C1.749,0.733 1.749,0.740 1.749,0.748 C1.757,0.748 1.766,0.748 1.774,0.748 C1.774,0.755 1.774,0.763 1.774,0.771 C1.782,0.771 1.790,0.771 1.798,0.771 C1.798,0.778 1.798,0.786 1.798,0.794 C1.806,0.794 1.815,0.794 1.823,0.794 C1.823,0.802 1.823,0.809 1.823,0.817 C1.831,0.817 1.839,0.817 1.847,0.817 C1.847,0.824 1.847,0.832 1.847,0.840 C1.855,0.840 1.863,0.840 1.872,0.840 C1.872,0.847 1.872,0.855 1.872,0.863 C1.880,0.863 1.888,0.863 1.896,0.863 C1.896,0.870 1.896,0.878 1.896,0.886 C1.904,0.886 1.912,0.886 1.921,0.886 C1.921,0.893 1.921,0.901 1.921,0.909 C1.929,0.909 1.937,0.909 1.945,0.909 C1.945,0.917 1.945,0.924 1.945,0.932 C1.953,0.932 1.961,0.932 1.970,0.932 C1.970,0.939 1.970,0.947 1.970,0.955 C1.978,0.955 1.986,0.955 1.994,0.955 C1.994,0.963 1.994,0.971 1.994,0.978 C2.002,0.978 2.010,0.978 2.019,0.978 C2.019,0.986 2.019,0.994 2.019,1.001 C2.027,1.001 2.035,1.001 2.043,1.001 C2.043,1.009 2.043,1.016 2.043,1.024 C2.051,1.024 2.059,1.024 2.067,1.024 C2.067,1.032 2.067,1.039 2.067,1.047 C2.076,1.047 2.084,1.047 2.092,1.047 C2.092,1.055 2.092,1.062 2.092,1.070 C2.100,1.070 2.108,1.070 2.116,1.070 C2.116,1.078 2.116,1.085 2.116,1.093 C2.124,1.093 2.133,1.093 2.141,1.093 C2.141,1.101 2.141,1.108 2.141,1.116 C2.149,1.116 2.157,1.116 2.165,1.116 C2.165,1.124 2.165,1.132 2.165,1.140 C2.173,1.140 2.182,1.140 2.190,1.140 C2.190,1.147 2.190,1.155 2.190,1.162 C2.198,1.162 2.206,1.162 2.214,1.162 C2.214,1.170 2.214,1.178 2.214,1.185 C2.222,1.185 2.231,1.185 2.239,1.185 C2.239,1.193 2.239,1.200 2.239,1.208 C2.247,1.208 2.255,1.208 2.263,1.208 C2.263,1.216 2.263,1.224 2.263,1.232 C2.271,1.232 2.279,1.232 2.288,1.232 C2.288,1.239 2.288,1.247 2.288,1.254 C2.296,1.254 2.304,1.254 2.312,1.254 C2.312,1.262 2.312,1.269 2.312,1.277 C2.320,1.277 2.328,1.277 2.337,1.277 C2.337,1.285 2.337,1.292 2.337,1.301 C2.345,1.301 2.353,1.301 2.361,1.301 C2.361,1.309 2.361,1.315 2.361,1.324 C2.369,1.324 2.377,1.324 2.386,1.324 C2.386,1.331 2.386,1.339 2.386,1.346 C2.394,1.346 2.402,1.346 2.410,1.346 C2.410,1.354 2.410,1.362 2.410,1.369 C2.418,1.369 2.426,1.369 2.434,1.369 C2.434,1.377 2.434,1.385 2.434,1.393 C2.443,1.393 2.451,1.393 2.459,1.393 C2.459,1.400 2.459,1.408 2.459,1.416 C2.467,1.416 2.475,1.416 2.483,1.416 C2.483,1.423 2.483,1.431 2.483,1.439 C2.492,1.439 2.500,1.439 2.508,1.439 C2.508,1.446 2.508,1.454 2.508,1.461 C2.516,1.461 2.524,1.461 2.532,1.461 C2.532,1.469 2.532,1.477 2.532,1.485 C2.540,1.485 2.549,1.485 2.557,1.485 C2.557,1.492 2.557,1.500 2.557,1.507 C2.565,1.507 2.573,1.507 2.581,1.507 C2.581,1.515 2.581,1.523 2.581,1.531 C2.589,1.531 2.598,1.531 2.606,1.531 C2.606,1.538 2.606,1.546 2.606,1.554 C2.614,1.554 2.622,1.554 2.630,1.554 C2.630,1.562 2.630,1.569 2.630,1.577 C2.638,1.577 2.646,1.577 2.655,1.577 C2.655,1.585 2.655,1.592 2.655,1.600 C2.663,1.600 2.671,1.600 2.679,1.600 C2.679,1.607 2.679,1.615 2.679,1.623 C2.687,1.623 2.695,1.623 2.704,1.623 C2.704,1.631 2.704,1.638 2.704,1.646 C2.712,1.646 2.720,1.646 2.728,1.646 C2.728,1.653 2.728,1.661 2.728,1.669 C2.736,1.669 2.744,1.669 2.753,1.669 C2.753,1.677 2.753,1.684 2.753,1.692 C2.761,1.692 2.769,1.692 2.777,1.692 C2.777,1.699 2.777,1.707 2.777,1.715 C2.785,1.715 2.793,1.715 2.801,1.715 C2.801,1.723 2.801,1.730 2.801,1.738 C2.810,1.738 2.818,1.738 2.826,1.738 C2.826,1.746 2.826,1.754 2.826,1.761 C2.834,1.761 2.842,1.761 2.850,1.761 C2.850,1.769 2.850,1.776 2.850,1.784 C2.859,1.784 2.867,1.784 2.875,1.784 C2.875,1.791 2.875,1.799 2.875,1.807 C2.883,1.807 2.891,1.807 2.899,1.807 C2.899,1.815 2.899,1.822 2.899,1.830 C2.908,1.830 2.916,1.830 2.924,1.830 C2.924,1.838 2.924,1.845 2.924,1.853 C2.932,1.853 2.940,1.853 2.948,1.853 C2.948,1.861 2.948,1.868 2.948,1.876 C2.956,1.876 2.965,1.876 2.973,1.876 C2.973,1.884 2.973,1.891 2.973,1.899 C2.981,1.899 2.989,1.899 2.997,1.899 C2.997,1.907 2.997,1.914 2.997,1.922 C3.005,1.922 3.013,1.922 3.022,1.922 C3.022,1.930 3.022,1.938 3.022,1.945 C3.030,1.945 3.038,1.945 3.046,1.945 C3.046,1.953 3.046,1.961 3.046,1.968 C3.054,1.968 3.062,1.968 3.071,1.968 C3.071,1.976 3.071,1.984 3.071,1.991 C3.079,1.991 3.087,1.991 3.095,1.991 C3.095,1.999 3.095,2.007 3.095,2.014 C3.103,2.014 3.111,2.014 3.120,2.014 C3.120,2.022 3.120,2.030 3.120,2.038 C3.128,2.038 3.136,2.038 3.144,2.038 C3.144,2.045 3.144,2.053 3.144,2.060 C3.152,2.060 3.160,2.060 3.168,2.060 C3.168,2.068 3.168,2.075 3.168,2.083 C3.177,2.083 3.185,2.083 3.193,2.083 C3.193,2.091 3.193,2.098 3.193,2.106 C3.201,2.106 3.209,2.106 3.217,2.106 C3.217,2.114 3.217,2.122 3.217,2.129 C3.226,2.129 3.234,2.129 3.242,2.129 C3.242,2.137 3.242,2.145 3.242,2.152 C3.250,2.152 3.258,2.152 3.266,2.152 C3.266,2.160 3.266,2.168 3.266,2.175 C3.275,2.175 3.283,2.175 3.291,2.175 C3.291,2.183 3.291,2.191 3.291,2.199 C3.299,2.199 3.307,2.199 3.315,2.199 C3.315,2.206 3.315,2.214 3.315,2.222 C3.323,2.222 3.332,2.222 3.340,2.222 C3.340,2.229 3.340,2.237 3.340,2.245 C3.348,2.245 3.356,2.245 3.364,2.245 C3.364,2.252 3.364,2.260 3.364,2.267 C3.372,2.267 3.380,2.267 3.389,2.267 C3.389,2.275 3.389,2.283 3.389,2.291 C3.397,2.291 3.405,2.291 3.413,2.291 C3.413,2.298 3.413,2.306 3.413,2.314 C3.421,2.314 3.429,2.314 3.438,2.314 C3.438,2.321 3.438,2.329 3.438,2.336 C3.446,2.336 3.454,2.336 3.462,2.336 C3.462,2.344 3.462,2.352 3.462,2.360 C3.470,2.360 3.478,2.360 3.487,2.360 C3.487,2.367 3.487,2.375 3.487,2.383 C3.495,2.383 3.503,2.383 3.511,2.383 C3.511,2.391 3.511,2.398 3.511,2.406 C3.519,2.406 3.527,2.406 3.535,2.406 C3.535,2.413 3.535,2.421 3.535,2.429 C3.544,2.429 3.552,2.429 3.560,2.429 C3.560,2.436 3.560,2.444 3.560,2.452 C3.568,2.452 3.576,2.452 3.584,2.452 C3.584,2.460 3.584,2.467 3.584,2.475 C3.593,2.475 3.601,2.475 3.609,2.475 C3.609,2.483 3.609,2.490 3.609,2.498 C3.617,2.498 3.625,2.498 3.633,2.498 C3.633,2.505 3.633,2.513 3.633,2.520 C3.642,2.520 3.650,2.520 3.658,2.520 C3.658,2.528 3.658,2.536 3.658,2.544 C3.666,2.544 3.674,2.544 3.682,2.544 C3.682,2.552 3.682,2.559 3.682,2.567 C3.690,2.567 3.699,2.567 3.707,2.567 C3.707,2.575 3.707,2.583 3.707,2.590 C3.715,2.590 3.723,2.590 3.731,2.590 C3.731,2.598 3.731,2.605 3.731,2.613 C3.739,2.613 3.747,2.613 3.756,2.613 C3.756,2.621 3.756,2.628 3.756,2.636 C3.764,2.636 3.772,2.636 3.780,2.636 C3.780,2.644 3.780,2.651 3.780,2.659 C3.788,2.659 3.796,2.659 3.805,2.659 C3.805,2.667 3.805,2.674 3.805,2.682 C3.813,2.682 3.821,2.682 3.829,2.682 C3.829,2.690 3.829,2.697 3.829,2.705 C3.837,2.705 3.845,2.705 3.854,2.705 C3.854,2.713 3.854,2.720 3.854,2.728 C3.862,2.728 3.870,2.728 3.878,2.728 C3.878,2.736 3.878,2.743 3.878,2.751 C3.886,2.751 3.894,2.751 3.902,2.751 C3.902,2.759 3.902,2.766 3.902,2.775 C3.911,2.775 3.919,2.775 3.927,2.775 C3.927,2.781 3.927,2.790 3.927,2.798 C3.935,2.798 3.943,2.798 3.951,2.798 C3.951,2.805 3.951,2.813 3.951,2.820 C3.960,2.820 3.968,2.820 3.976,2.820 C3.976,2.828 3.976,2.836 3.976,2.843 C3.984,2.843 3.992,2.843 4.000,2.843 C4.000,2.851 4.000,2.858 4.000,2.866 C4.009,2.866 4.017,2.866 4.025,2.866 C4.025,2.874 4.025,2.882 4.025,2.889 C4.033,2.889 4.041,2.889 4.049,2.889 C4.049,2.897 4.049,2.905 4.049,2.912 C4.058,2.912 4.066,2.912 4.074,2.912 C4.074,2.920 4.074,2.928 4.074,2.935 C4.082,2.935 4.090,2.935 4.098,2.935 C4.098,2.943 4.098,2.951 4.098,2.959 C4.106,2.959 4.115,2.959 4.123,2.959 C4.123,2.966 4.123,2.974 4.123,2.982 C4.131,2.982 4.139,2.982 4.147,2.982 C4.147,2.989 4.147,2.997 4.147,3.005 C4.155,3.005 4.163,3.005 4.172,3.005 C4.172,3.012 4.172,3.020 4.172,3.028 C4.180,3.028 4.188,3.028 4.196,3.028 C4.196,3.036 4.196,3.043 4.196,3.051 C4.204,3.051 4.212,3.051 4.221,3.051 C4.221,3.058 4.221,3.066 4.221,3.073 C4.229,3.073 4.237,3.073 4.245,3.073 C4.245,3.081 4.245,3.089 4.245,3.096 C4.253,3.096 4.261,3.096 4.270,3.096 C4.270,3.104 4.270,3.112 4.270,3.120 C4.278,3.120 4.286,3.120 4.294,3.120 C4.294,3.127 4.294,3.135 4.294,3.143 C4.302,3.143 4.310,3.143 4.318,3.143 C4.318,3.150 4.318,3.158 4.318,3.166 C4.327,3.166 4.335,3.166 4.343,3.166 C4.343,3.173 4.343,3.181 4.343,3.188 C4.351,3.188 4.359,3.188 4.367,3.188 C4.367,3.197 4.367,3.204 4.367,3.212 C4.376,3.212 4.384,3.212 4.392,3.212 C4.392,3.220 4.392,3.227 4.392,3.235 C4.400,3.235 4.408,3.235 4.416,3.235 C4.416,3.243 4.416,3.250 4.416,3.258 C4.425,3.258 4.433,3.258 4.441,3.258 C4.441,3.266 4.441,3.273 4.441,3.281 C4.449,3.281 4.457,3.281 4.465,3.281 C4.465,3.289 4.465,3.296 4.465,3.304 C4.473,3.304 4.482,3.304 4.490,3.304 C4.490,3.312 4.490,3.319 4.490,3.327 C4.498,3.327 4.506,3.327 4.514,3.327 C4.514,3.334 4.514,3.342 4.514,3.350 C4.522,3.350 4.531,3.350 4.539,3.350 C4.539,3.357 4.539,3.366 4.539,3.373 C4.547,3.373 4.555,3.373 4.563,3.373 C4.563,3.381 4.563,3.388 4.563,3.396 C4.571,3.396 4.579,3.396 4.588,3.396 C4.588,3.404 4.588,3.411 4.588,3.419 C4.596,3.419 4.604,3.419 4.612,3.419 C4.612,3.427 4.612,3.434 4.612,3.443 C4.620,3.443 4.628,3.443 4.637,3.443 C4.637,3.450 4.637,3.458 4.637,3.465 C4.645,3.465 4.653,3.465 4.661,3.465 C4.661,3.473 4.661,3.481 4.661,3.488 C4.669,3.488 4.677,3.488 4.685,3.488 C4.685,3.496 4.685,3.504 4.685,3.511 C4.694,3.511 4.702,3.511 4.710,3.511 C4.710,3.518 4.710,3.526 4.710,3.535 C4.718,3.535 4.726,3.535 4.734,3.535 C4.734,3.542 4.734,3.550 4.734,3.557 C4.743,3.557 4.751,3.557 4.759,3.557 C4.759,3.565 4.759,3.572 4.759,3.580 C4.767,3.580 4.775,3.580 4.783,3.580 C4.783,3.588 4.783,3.595 4.783,3.603 C4.792,3.603 4.800,3.603 4.808,3.603 C4.808,3.611 4.808,3.619 4.808,3.627 C4.816,3.627 4.824,3.627 4.832,3.627 C4.832,3.634 4.832,3.642 4.832,3.649 C4.840,3.649 4.849,3.649 4.857,3.649 C4.857,3.657 4.857,3.665 4.857,3.672 C4.865,3.672 4.873,3.672 4.881,3.672 C4.881,3.680 4.881,3.688 4.881,3.695 C4.889,3.695 4.898,3.695 4.906,3.695 C4.906,3.703 4.906,3.711 4.906,3.719 C4.914,3.719 4.922,3.719 4.930,3.719 C4.930,3.726 4.930,3.734 4.930,3.741 C4.938,3.741 4.946,3.741 4.955,3.741 C4.955,3.749 4.955,3.757 4.955,3.764 C4.963,3.764 4.971,3.764 4.979,3.764 C4.979,3.772 4.979,3.779 4.979,3.788 C4.987,3.788 4.995,3.788 5.004,3.788 C5.004,3.795 5.004,3.803 5.004,3.811 C5.012,3.811 5.020,3.811 5.028,3.811 C5.028,3.819 5.028,3.826 5.028,3.834 C5.036,3.834 5.044,3.834 5.052,3.834 C5.052,3.841 5.052,3.849 5.052,3.856 C5.061,3.856 5.069,3.856 5.077,3.856 C5.077,3.864 5.077,3.872 5.077,3.880 C5.085,3.880 5.093,3.880 5.101,3.880 C5.101,3.887 5.101,3.895 5.101,3.903 C5.110,3.903 5.118,3.903 5.126,3.903 C5.126,3.910 5.126,3.918 5.126,3.926 C5.134,3.926 5.142,3.926 5.150,3.926 C5.150,3.933 5.150,3.941 5.150,3.949 C5.159,3.949 5.167,3.949 5.175,3.949 C5.175,3.956 5.175,3.964 5.175,3.972 C5.183,3.972 5.191,3.972 5.199,3.972 C5.199,3.980 5.199,3.987 5.199,3.995 C5.207,3.995 5.216,3.995 5.224,3.995 C5.224,4.002 5.224,4.010 5.224,4.017 C5.232,4.017 5.240,4.017 5.248,4.017 C5.248,4.026 5.248,4.034 5.248,4.041 C5.256,4.041 5.265,4.041 5.273,4.041 C5.273,4.049 5.273,4.056 5.273,4.064 C5.281,4.064 5.289,4.064 5.297,4.064 C5.297,4.072 5.297,4.079 5.297,4.087 C5.305,4.087 5.314,4.087 5.322,4.087 C5.322,4.095 5.322,4.102 5.322,4.110 C5.330,4.110 5.338,4.110 5.346,4.110 C5.346,4.118 5.346,4.125 5.346,4.133 C5.354,4.133 5.362,4.133 5.371,4.133 C5.371,4.141 5.371,4.148 5.371,4.156 C5.379,4.156 5.387,4.156 5.395,4.156 C5.395,4.164 5.395,4.171 5.395,4.179 C5.403,4.179 5.411,4.179 5.419,4.179 C5.419,4.187 5.419,4.194 5.419,4.202 C5.428,4.202 5.436,4.202 5.444,4.202 C5.444,4.210 5.444,4.217 5.444,4.225 C5.452,4.225 5.460,4.225 5.468,4.225 C5.468,4.233 5.468,4.241 5.468,4.248 C5.477,4.248 5.485,4.248 5.493,4.248 C5.493,4.256 5.493,4.264 5.493,4.272 C5.501,4.272 5.509,4.272 5.517,4.272 C5.517,4.279 5.517,4.287 5.517,4.294 C5.526,4.294 5.534,4.294 5.542,4.294 C5.542,4.302 5.542,4.309 5.542,4.317 C5.550,4.317 5.558,4.317 5.566,4.317 C5.566,4.325 5.566,4.332 5.566,4.340 C5.574,4.340 5.583,4.340 5.591,4.340 C5.591,4.348 5.591,4.356 5.591,4.364 C5.599,4.364 5.607,4.364 5.615,4.364 C5.615,4.371 5.615,4.379 5.615,4.386 C5.623,4.386 5.632,4.386 5.640,4.386 C5.640,4.394 5.640,4.401 5.640,4.409 C5.648,4.409 5.656,4.409 5.664,4.409 C5.664,4.417 5.664,4.425 5.664,4.432 C5.672,4.432 5.681,4.432 5.689,4.432 C5.689,4.440 5.689,4.448 5.689,4.456 C5.697,4.456 5.705,4.456 5.713,4.456 C5.713,4.463 5.713,4.471 5.713,4.479 C5.721,4.479 5.729,4.479 5.738,4.479 C5.738,4.486 5.738,4.494 5.738,4.501 C5.746,4.501 5.754,4.501 5.762,4.501 C5.762,4.509 5.762,4.517 5.762,4.525 C5.770,4.525 5.778,4.525 5.786,4.525 C5.786,4.532 5.786,4.540 5.786,4.548 C5.795,4.548 5.803,4.548 5.811,4.548 C5.811,4.555 5.811,4.563 5.811,4.570 C5.819,4.570 5.827,4.570 5.835,4.570 C5.835,4.578 5.835,4.586 5.835,4.593 C5.844,4.593 5.852,4.593 5.860,4.593 C5.869,4.624 5.880,4.630 5.897,4.651 C5.901,4.651 5.905,4.651 5.909,4.651 C5.909,4.663 5.909,4.674 5.909,4.686 C5.917,4.690 5.925,4.694 5.933,4.697 C5.933,4.709 5.933,4.720 5.933,4.732 C5.941,4.736 5.950,4.740 5.958,4.743 C5.958,4.759 5.958,4.774 5.958,4.789 C5.962,4.789 5.966,4.789 5.970,4.789 C5.970,4.797 5.970,4.805 5.970,4.812 C5.974,4.812 5.978,4.812 5.982,4.812 C5.982,4.828 5.982,4.843 5.982,4.858 C5.986,4.858 5.990,4.858 5.995,4.858 C6.008,4.901 5.994,5.130 5.982,5.158 C5.978,5.158 5.974,5.158 5.970,5.158 C5.970,5.165 5.970,5.173 5.970,5.181 C5.966,5.181 5.962,5.181 5.958,5.181 C5.958,5.196 5.958,5.211 5.958,5.227 C5.950,5.231 5.941,5.235 5.933,5.239 C5.933,5.250 5.933,5.261 5.933,5.273 C5.925,5.277 5.917,5.281 5.909,5.285 C5.909,5.296 5.909,5.307 5.909,5.319 C5.901,5.323 5.893,5.327 5.884,5.331 C5.884,5.342 5.884,5.354 5.884,5.365 C5.880,5.365 5.876,5.365 5.872,5.365 C5.855,5.387 5.844,5.392 5.835,5.423 C5.827,5.423 5.819,5.423 5.811,5.423 C5.811,5.430 5.811,5.438 5.811,5.446 C5.803,5.446 5.795,5.446 5.786,5.446 C5.786,5.453 5.786,5.461 5.786,5.469 C5.778,5.469 5.770,5.469 5.762,5.469 C5.762,5.476 5.762,5.484 5.762,5.492 C5.754,5.492 5.746,5.492 5.738,5.492 C5.738,5.500 5.738,5.507 5.738,5.515 C5.729,5.515 5.721,5.515 5.713,5.515 C5.713,5.523 5.713,5.530 5.713,5.538 C5.705,5.538 5.697,5.538 5.689,5.538 C5.689,5.545 5.689,5.553 5.689,5.561 C5.681,5.561 5.672,5.561 5.664,5.561 C5.664,5.568 5.664,5.576 5.664,5.584 C5.656,5.584 5.648,5.584 5.640,5.584 C5.640,5.592 5.640,5.600 5.640,5.607 C5.632,5.607 5.623,5.607 5.615,5.607 C5.615,5.615 5.615,5.622 5.615,5.630 C5.607,5.630 5.599,5.630 5.591,5.630 C5.591,5.637 5.591,5.645 5.591,5.653 C5.583,5.653 5.574,5.653 5.566,5.653 C5.566,5.660 5.566,5.668 5.566,5.676 C5.558,5.676 5.550,5.676 5.542,5.676 C5.542,5.684 5.542,5.692 5.542,5.699 C5.534,5.699 5.526,5.699 5.517,5.699 C5.517,5.707 5.517,5.714 5.517,5.722 C5.509,5.722 5.501,5.722 5.493,5.722 C5.493,5.730 5.493,5.737 5.493,5.745 C5.485,5.745 5.477,5.745 5.468,5.745 C5.468,5.753 5.468,5.761 5.468,5.768 C5.460,5.768 5.452,5.768 5.444,5.768 C5.444,5.776 5.444,5.784 5.444,5.791 C5.436,5.791 5.428,5.791 5.419,5.791 C5.419,5.799 5.419,5.806 5.419,5.814 C5.411,5.814 5.403,5.814 5.395,5.814 C5.395,5.822 5.395,5.829 5.395,5.837 C5.387,5.837 5.379,5.837 5.371,5.837 C5.371,5.844 5.371,5.853 5.371,5.860 C5.362,5.860 5.354,5.860 5.346,5.860 C5.346,5.868 5.346,5.875 5.346,5.883 C5.338,5.883 5.330,5.883 5.322,5.883 C5.322,5.891 5.322,5.898 5.322,5.906 C5.314,5.906 5.305,5.906 5.297,5.906 C5.297,5.914 5.297,5.922 5.297,5.929 C5.289,5.929 5.281,5.929 5.273,5.929 C5.273,5.937 5.273,5.945 5.273,5.953 C5.265,5.953 5.256,5.953 5.248,5.953 C5.248,5.960 5.248,5.968 5.248,5.975 C5.240,5.975 5.232,5.975 5.224,5.975 C5.224,5.983 5.224,5.991 5.224,5.998 C5.216,5.998 5.207,5.998 5.199,5.998 C5.199,6.006 5.199,6.014 5.199,6.021 C5.191,6.021 5.183,6.021 5.175,6.021 C5.175,6.029 5.175,6.037 5.175,6.045 C5.167,6.045 5.159,6.045 5.150,6.045 C5.150,6.052 5.150,6.060 5.150,6.067 C5.142,6.067 5.134,6.067 5.126,6.067 C5.126,6.075 5.126,6.082 5.126,6.090 C5.118,6.090 5.110,6.090 5.101,6.090 C5.101,6.098 5.101,6.106 5.101,6.113 C5.093,6.113 5.085,6.113 5.077,6.113 C5.077,6.121 5.077,6.129 5.077,6.137 C5.069,6.137 5.061,6.137 5.052,6.137 C5.052,6.144 5.052,6.152 5.052,6.159 C5.044,6.159 5.036,6.159 5.028,6.159 C5.028,6.167 5.028,6.175 5.028,6.183 C5.020,6.183 5.012,6.183 5.004,6.183 C5.004,6.190 5.004,6.198 5.004,6.206 C4.995,6.206 4.987,6.206 4.979,6.206 C4.979,6.213 4.979,6.221 4.979,6.229 C4.971,6.229 4.963,6.229 4.955,6.229 C4.955,6.236 4.955,6.244 4.955,6.252 C4.946,6.252 4.938,6.252 4.930,6.252 C4.930,6.260 4.930,6.267 4.930,6.275 C4.922,6.275 4.914,6.275 4.906,6.275 C4.906,6.282 4.906,6.290 4.906,6.298 C4.898,6.298 4.889,6.298 4.881,6.298 C4.881,6.305 4.881,6.314 4.881,6.321 C4.873,6.321 4.865,6.321 4.857,6.321 C4.857,6.329 4.857,6.336 4.857,6.344 C4.849,6.344 4.840,6.344 4.832,6.344 C4.832,6.352 4.832,6.359 4.832,6.367 C4.824,6.367 4.816,6.367 4.808,6.367 C4.808,6.374 4.808,6.382 4.808,6.390 C4.800,6.390 4.792,6.390 4.783,6.390 C4.783,6.398 4.783,6.405 4.783,6.413 C4.775,6.413 4.767,6.413 4.759,6.413 C4.759,6.421 4.759,6.428 4.759,6.436 C4.751,6.436 4.743,6.436 4.734,6.436 C4.734,6.444 4.734,6.451 4.734,6.459 C4.726,6.459 4.718,6.459 4.710,6.459 C4.710,6.466 4.710,6.474 4.710,6.482 C4.702,6.482 4.694,6.482 4.685,6.482 C4.685,6.490 4.685,6.497 4.685,6.505 C4.677,6.505 4.669,6.505 4.661,6.505 C4.661,6.513 4.661,6.521 4.661,6.528 C4.653,6.528 4.645,6.528 4.637,6.528 C4.637,6.536 4.637,6.544 4.637,6.551 C4.628,6.551 4.620,6.551 4.612,6.551 C4.612,6.559 4.612,6.567 4.612,6.575 C4.604,6.575 4.596,6.575 4.588,6.575 C4.588,6.582 4.588,6.589 4.588,6.597 C4.579,6.597 4.571,6.597 4.563,6.597 C4.563,6.605 4.563,6.613 4.563,6.620 C4.555,6.620 4.547,6.620 4.539,6.620 C4.539,6.628 4.539,6.635 4.539,6.643 C4.531,6.643 4.522,6.643 4.514,6.643 C4.514,6.651 4.514,6.658 4.514,6.666 C4.506,6.666 4.498,6.666 4.490,6.666 C4.490,6.674 4.490,6.682 4.490,6.689 C4.482,6.689 4.473,6.689 4.465,6.689 C4.465,6.697 4.465,6.705 4.465,6.712 C4.457,6.712 4.449,6.712 4.441,6.712 C4.441,6.720 4.441,6.727 4.441,6.735 C4.433,6.735 4.425,6.735 4.416,6.735 C4.416,6.743 4.416,6.751 4.416,6.759 C4.408,6.759 4.400,6.759 4.392,6.759 C4.392,6.766 4.392,6.774 4.392,6.781 C4.384,6.781 4.376,6.781 4.367,6.781 C4.367,6.789 4.367,6.797 4.367,6.805 C4.359,6.805 4.351,6.805 4.343,6.805 C4.343,6.812 4.343,6.819 4.343,6.828 C4.335,6.828 4.327,6.828 4.318,6.828 C4.318,6.836 4.318,6.843 4.318,6.851 C4.310,6.851 4.302,6.851 4.294,6.851 C4.294,6.858 4.294,6.866 4.294,6.874 C4.286,6.874 4.278,6.874 4.270,6.874 C4.270,6.881 4.270,6.889 4.270,6.896 C4.261,6.896 4.253,6.896 4.245,6.896 C4.245,6.904 4.245,6.912 4.245,6.919 C4.237,6.919 4.229,6.919 4.221,6.919 C4.221,6.927 4.221,6.935 4.221,6.943 C4.212,6.943 4.204,6.943 4.196,6.943 C4.196,6.950 4.196,6.958 4.196,6.966 C4.188,6.966 4.180,6.966 4.172,6.966 C4.172,6.973 4.172,6.981 4.172,6.989 C4.163,6.989 4.155,6.989 4.147,6.989 C4.147,6.996 4.147,7.004 4.147,7.012 C4.139,7.012 4.131,7.012 4.123,7.012 C4.123,7.020 4.123,7.027 4.123,7.035 C4.115,7.035 4.106,7.035 4.098,7.035 C4.098,7.042 4.098,7.050 4.098,7.058 C4.090,7.058 4.082,7.058 4.074,7.058 C4.074,7.066 4.074,7.073 4.074,7.080 C4.066,7.080 4.058,7.080 4.049,7.080 C4.049,7.088 4.049,7.097 4.049,7.104 C4.041,7.104 4.033,7.104 4.025,7.104 C4.025,7.111 4.025,7.119 4.025,7.127 C4.017,7.127 4.009,7.127 4.000,7.127 C4.000,7.134 4.000,7.142 4.000,7.150 C3.992,7.150 3.984,7.150 3.976,7.150 C3.976,7.158 3.976,7.165 3.976,7.173 C3.968,7.173 3.960,7.173 3.951,7.173 C3.951,7.181 3.951,7.189 3.951,7.196 C3.943,7.196 3.935,7.196 3.927,7.196 C3.927,7.204 3.927,7.211 3.927,7.219 C3.919,7.219 3.911,7.219 3.902,7.219 C3.902,7.227 3.902,7.234 3.902,7.242 C3.894,7.242 3.886,7.242 3.878,7.242 C3.878,7.250 3.878,7.257 3.878,7.265 C3.870,7.265 3.862,7.265 3.854,7.265 C3.854,7.273 3.854,7.281 3.854,7.288 C3.845,7.288 3.837,7.288 3.829,7.288 C3.829,7.296 3.829,7.303 3.829,7.311 C3.821,7.311 3.813,7.311 3.805,7.311 C3.805,7.319 3.805,7.326 3.805,7.334 C3.796,7.334 3.788,7.334 3.780,7.334 C3.780,7.342 3.780,7.350 3.780,7.357 C3.772,7.357 3.764,7.357 3.756,7.357 C3.756,7.365 3.756,7.373 3.756,7.381 C3.747,7.381 3.739,7.381 3.731,7.381 C3.731,7.388 3.731,7.396 3.731,7.403 C3.723,7.403 3.715,7.403 3.707,7.403 C3.707,7.411 3.707,7.418 3.707,7.426 C3.699,7.426 3.690,7.426 3.682,7.426 C3.682,7.434 3.682,7.441 3.682,7.449 C3.674,7.449 3.666,7.449 3.658,7.449 C3.658,7.457 3.658,7.465 3.658,7.472 C3.650,7.472 3.642,7.472 3.633,7.472 C3.633,7.480 3.633,7.488 3.633,7.495 C3.625,7.495 3.617,7.495 3.609,7.495 C3.609,7.503 3.609,7.511 3.609,7.518 C3.601,7.518 3.593,7.518 3.584,7.518 C3.584,7.526 3.584,7.534 3.584,7.542 C3.576,7.542 3.568,7.542 3.560,7.542 C3.560,7.549 3.560,7.557 3.560,7.565 C3.552,7.565 3.544,7.565 3.535,7.565 C3.535,7.572 3.535,7.580 3.535,7.588 C3.527,7.588 3.519,7.588 3.511,7.588 C3.511,7.595 3.511,7.603 3.511,7.610 C3.503,7.610 3.495,7.610 3.487,7.610 C3.487,7.618 3.487,7.626 3.487,7.634 C3.478,7.634 3.470,7.634 3.462,7.634 C3.462,7.641 3.462,7.649 3.462,7.657 C3.454,7.657 3.446,7.657 3.438,7.657 C3.438,7.664 3.438,7.672 3.438,7.679 C3.429,7.679 3.421,7.679 3.413,7.679 C3.413,7.687 3.413,7.695 3.413,7.702 C3.405,7.702 3.397,7.702 3.389,7.702 C3.389,7.710 3.389,7.718 3.389,7.726 C3.380,7.726 3.372,7.726 3.364,7.726 C3.364,7.733 3.364,7.741 3.364,7.749 C3.356,7.749 3.348,7.749 3.340,7.749 C3.340,7.756 3.340,7.764 3.340,7.771 C3.332,7.771 3.323,7.771 3.315,7.771 C3.315,7.780 3.315,7.787 3.315,7.795 C3.307,7.795 3.299,7.795 3.291,7.795 C3.291,7.802 3.291,7.810 3.291,7.818 C3.283,7.818 3.275,7.818 3.266,7.818 C3.266,7.826 3.266,7.833 3.266,7.841 C3.258,7.841 3.250,7.841 3.242,7.841 C3.242,7.849 3.242,7.856 3.242,7.864 C3.234,7.864 3.226,7.864 3.217,7.864 C3.217,7.871 3.217,7.879 3.217,7.887 C3.209,7.887 3.201,7.887 3.193,7.887 C3.193,7.894 3.193,7.902 3.193,7.910 C3.185,7.910 3.177,7.910 3.168,7.910 C3.168,7.918 3.168,7.925 3.168,7.933 C3.160,7.933 3.152,7.933 3.144,7.933 C3.144,7.940 3.144,7.948 3.144,7.956 C3.136,7.956 3.128,7.956 3.120,7.956 C3.120,7.963 3.120,7.971 3.120,7.979 C3.111,7.979 3.103,7.979 3.095,7.979 C3.095,7.987 3.095,7.994 3.095,8.002 C3.087,8.002 3.079,8.002 3.071,8.002 C3.071,8.010 3.071,8.018 3.071,8.025 C3.062,8.025 3.054,8.025 3.046,8.025 C3.046,8.033 3.046,8.041 3.046,8.048 C3.038,8.048 3.030,8.048 3.022,8.048 C3.022,8.056 3.022,8.063 3.022,8.071 C3.013,8.071 3.005,8.071 2.997,8.071 C2.997,8.079 2.997,8.087 2.997,8.094 C2.989,8.094 2.981,8.094 2.973,8.094 C2.973,8.102 2.973,8.110 2.973,8.117 C2.965,8.117 2.956,8.117 2.948,8.117 C2.948,8.125 2.948,8.132 2.948,8.140 C2.940,8.140 2.932,8.140 2.924,8.140 C2.924,8.148 2.924,8.155 2.924,8.163 C2.916,8.163 2.908,8.163 2.899,8.163 C2.899,8.171 2.899,8.178 2.899,8.186 C2.891,8.186 2.883,8.186 2.875,8.186 C2.875,8.194 2.875,8.202 2.875,8.210 C2.867,8.210 2.859,8.210 2.850,8.210 C2.850,8.217 2.850,8.225 2.850,8.232 C2.842,8.232 2.834,8.232 2.826,8.232 C2.826,8.240 2.826,8.248 2.826,8.255 C2.818,8.255 2.810,8.255 2.801,8.255 C2.801,8.263 2.801,8.271 2.801,8.279 C2.793,8.279 2.785,8.279 2.777,8.279 C2.777,8.286 2.777,8.294 2.777,8.302 C2.769,8.302 2.761,8.302 2.753,8.302 C2.753,8.309 2.753,8.317 2.753,8.324 C2.744,8.324 2.736,8.324 2.728,8.324 C2.728,8.332 2.728,8.339 2.728,8.348 C2.720,8.348 2.712,8.348 2.704,8.348 C2.704,8.355 2.704,8.363 2.704,8.370 C2.695,8.370 2.687,8.370 2.679,8.370 C2.679,8.378 2.679,8.386 2.679,8.393 C2.671,8.393 2.663,8.393 2.655,8.393 C2.655,8.401 2.655,8.409 2.655,8.417 C2.646,8.417 2.638,8.417 2.630,8.417 C2.630,8.424 2.630,8.433 2.630,8.440 C2.622,8.440 2.614,8.440 2.606,8.440 C2.606,8.447 2.606,8.455 2.606,8.463 C2.598,8.463 2.589,8.463 2.581,8.463 C2.581,8.470 2.581,8.478 2.581,8.486 C2.573,8.486 2.565,8.486 2.557,8.486 C2.557,8.493 2.557,8.501 2.557,8.509 C2.549,8.509 2.540,8.509 2.532,8.509 C2.532,8.516 2.532,8.524 2.532,8.532 C2.524,8.532 2.516,8.532 2.508,8.532 C2.508,8.540 2.508,8.547 2.508,8.555 C2.500,8.555 2.492,8.555 2.483,8.555 C2.483,8.562 2.483,8.570 2.483,8.578 C2.475,8.578 2.467,8.578 2.459,8.578 C2.459,8.585 2.459,8.593 2.459,8.600 C2.451,8.600 2.443,8.600 2.434,8.600 C2.434,8.609 2.434,8.617 2.434,8.624 C2.426,8.624 2.418,8.624 2.410,8.624 C2.410,8.632 2.410,8.639 2.410,8.647 C2.402,8.647 2.394,8.647 2.386,8.647 C2.386,8.655 2.386,8.662 2.386,8.670 C2.377,8.670 2.369,8.670 2.361,8.670 C2.361,8.678 2.361,8.685 2.361,8.693 C2.353,8.693 2.345,8.693 2.337,8.693 C2.337,8.701 2.337,8.708 2.337,8.716 C2.328,8.716 2.320,8.716 2.312,8.716 C2.312,8.724 2.312,8.731 2.312,8.739 C2.304,8.739 2.296,8.739 2.288,8.739 C2.288,8.747 2.288,8.754 2.288,8.762 C2.279,8.762 2.271,8.762 2.263,8.762 C2.263,8.770 2.263,8.777 2.263,8.785 C2.255,8.785 2.247,8.785 2.239,8.785 C2.239,8.793 2.239,8.801 2.239,8.808 C2.231,8.808 2.222,8.808 2.214,8.808 C2.214,8.815 2.214,8.824 2.214,8.831 C2.206,8.831 2.198,8.831 2.190,8.831 C2.190,8.839 2.190,8.846 2.190,8.854 C2.182,8.854 2.173,8.854 2.165,8.854 C2.165,8.862 2.165,8.870 2.165,8.878 C2.157,8.878 2.149,8.878 2.141,8.878 C2.141,8.885 2.141,8.893 2.141,8.900 C2.133,8.900 2.124,8.900 2.116,8.900 C2.116,8.908 2.116,8.915 2.116,8.923 C2.108,8.923 2.100,8.923 2.092,8.923 C2.092,8.931 2.092,8.939 2.092,8.946 C2.084,8.946 2.076,8.946 2.067,8.946 C2.067,8.954 2.067,8.961 2.067,8.969 C2.059,8.969 2.051,8.969 2.043,8.969 C2.043,8.977 2.043,8.985 2.043,8.992 C2.035,8.992 2.027,8.992 2.019,8.992 C2.019,9.000 2.019,9.008 2.019,9.015 C2.010,9.015 2.002,9.015 1.994,9.015 C1.994,9.023 1.994,9.031 1.994,9.038 C1.986,9.038 1.978,9.038 1.970,9.038 C1.970,9.046 1.970,9.054 1.970,9.062 C1.961,9.062 1.953,9.062 1.945,9.062 C1.945,9.069 1.945,9.077 1.945,9.085 C1.937,9.085 1.929,9.085 1.921,9.085 C1.921,9.092 1.921,9.100 1.921,9.107 C1.912,9.107 1.904,9.107 1.896,9.107 C1.896,9.115 1.896,9.123 1.896,9.131 C1.888,9.131 1.880,9.131 1.872,9.131 C1.872,9.138 1.872,9.146 1.872,9.154 C1.863,9.154 1.855,9.154 1.847,9.154 C1.847,9.162 1.847,9.169 1.847,9.176 C1.839,9.176 1.831,9.176 1.823,9.176 C1.823,9.184 1.823,9.192 1.823,9.199 C1.815,9.199 1.806,9.199 1.798,9.199 C1.798,9.207 1.798,9.215 1.798,9.222 C1.790,9.222 1.782,9.222 1.774,9.222 C1.774,9.230 1.774,9.238 1.774,9.246 C1.766,9.246 1.757,9.246 1.749,9.246 C1.749,9.254 1.749,9.261 1.749,9.269 C1.741,9.269 1.733,9.269 1.725,9.269 C1.725,9.276 1.725,9.284 1.725,9.292 C1.717,9.292 1.709,9.292 1.700,9.292 C1.700,9.299 1.700,9.307 1.700,9.315 C1.692,9.315 1.684,9.315 1.676,9.315 C1.676,9.322 1.676,9.330 1.676,9.338 C1.668,9.338 1.660,9.338 1.651,9.338 C1.651,9.346 1.651,9.353 1.651,9.361 C1.643,9.361 1.635,9.361 1.627,9.361 C1.627,9.368 1.627,9.376 1.627,9.384 C1.619,9.384 1.611,9.384 1.603,9.384 C1.603,9.391 1.603,9.399 1.603,9.406 C1.594,9.406 1.586,9.406 1.578,9.406 C1.578,9.415 1.578,9.422 1.578,9.430 C1.570,9.430 1.562,9.430 1.554,9.430 C1.554,9.437 1.554,9.446 1.554,9.453 C1.545,9.453 1.537,9.453 1.529,9.453 C1.529,9.461 1.529,9.468 1.529,9.476 C1.521,9.476 1.513,9.476 1.505,9.476 C1.505,9.484 1.505,9.491 1.505,9.499 C1.496,9.499 1.488,9.499 1.480,9.499 C1.480,9.507 1.480,9.514 1.480,9.522 C1.472,9.522 1.464,9.522 1.456,9.522 C1.456,9.530 1.456,9.537 1.456,9.545 C1.448,9.545 1.439,9.545 1.431,9.545 C1.431,9.553 1.431,9.560 1.431,9.568 C1.423,9.568 1.415,9.568 1.407,9.568 C1.407,9.576 1.407,9.583 1.407,9.591 C1.399,9.591 1.390,9.591 1.382,9.591 C1.382,9.599 1.382,9.607 1.382,9.614 C1.374,9.614 1.366,9.614 1.358,9.614 C1.358,9.622 1.358,9.629 1.358,9.637 C1.350,9.637 1.341,9.637 1.333,9.637 C1.333,9.644 1.333,9.652 1.333,9.660 C1.325,9.660 1.317,9.660 1.309,9.660 C1.309,9.668 1.309,9.675 1.309,9.684 C1.301,9.684 1.293,9.684 1.284,9.684 C1.284,9.691 1.284,9.699 1.284,9.706 C1.276,9.706 1.268,9.706 1.260,9.706 C1.260,9.714 1.260,9.722 1.260,9.729 C1.252,9.729 1.244,9.729 1.236,9.729 C1.236,9.737 1.236,9.745 1.236,9.752 C1.227,9.752 1.219,9.752 1.211,9.752 C1.211,9.760 1.211,9.767 1.211,9.775 C1.203,9.775 1.195,9.775 1.187,9.775 C1.187,9.783 1.187,9.791 1.187,9.798 C1.178,9.798 1.170,9.798 1.162,9.798 C1.162,9.806 1.162,9.814 1.162,9.821 C1.154,9.821 1.146,9.821 1.138,9.821 C1.138,9.829 1.138,9.836 1.138,9.844 C1.105,9.853 1.099,9.863 1.076,9.879 C1.076,9.883 1.076,9.887 1.076,9.891 C1.064,9.891 1.052,9.891 1.040,9.891 C1.036,9.898 1.032,9.906 1.027,9.914 C1.015,9.914 1.003,9.914 0.991,9.914 C0.987,9.921 0.983,9.929 0.979,9.936 C0.966,9.936 0.954,9.936 0.942,9.936 C0.938,9.944 0.934,9.952 0.930,9.959 C0.913,9.959 0.897,9.959 0.881,9.959 C0.881,9.963 0.881,9.967 0.881,9.971 C0.873,9.971 0.864,9.971 0.856,9.971 C0.856,9.975 0.856,9.979 0.856,9.983 C0.827,9.993 0.583,10.007 0.538,9.994 C0.538,9.990 0.538,9.986 0.538,9.983 C0.522,9.983 0.506,9.983 0.489,9.983 C0.489,9.979 0.489,9.975 0.489,9.971 C0.481,9.971 0.473,9.971 0.465,9.971 C0.465,9.967 0.465,9.963 0.465,9.959 C0.448,9.959 0.432,9.959 0.416,9.959 C0.412,9.952 0.408,9.944 0.404,9.936 C0.391,9.936 0.379,9.936 0.367,9.936 C0.363,9.929 0.359,9.921 0.355,9.914 C0.342,9.914 0.330,9.914 0.318,9.914 C0.318,9.910 0.318,9.906 0.318,9.902 C0.295,9.886 0.289,9.876 0.257,9.868 C0.257,9.860 0.257,9.852 0.257,9.844 C0.249,9.844 0.240,9.844 0.232,9.844 C0.232,9.836 0.232,9.829 0.232,9.821 C0.224,9.821 0.216,9.821 0.208,9.821 C0.208,9.814 0.208,9.806 0.208,9.798 C0.200,9.798 0.191,9.798 0.183,9.798 C0.183,9.791 0.183,9.783 0.183,9.775 C0.175,9.775 0.167,9.775 0.159,9.775 C0.159,9.767 0.159,9.760 0.159,9.752 C0.151,9.752 0.143,9.752 0.134,9.752 C0.126,9.722 0.115,9.715 0.098,9.695 C0.094,9.695 0.090,9.695 0.086,9.695 C0.086,9.687 0.086,9.679 0.086,9.672 C0.081,9.672 0.077,9.672 0.073,9.672 C0.073,9.664 0.073,9.657 0.073,9.648 C0.069,9.648 0.065,9.648 0.061,9.648 C0.061,9.641 0.061,9.633 0.061,9.626 C0.057,9.626 0.053,9.626 0.049,9.626 C0.049,9.618 0.049,9.610 0.049,9.603 C0.045,9.603 0.041,9.603 0.037,9.603 C0.037,9.591 0.037,9.579 0.037,9.568 C0.028,9.564 0.020,9.560 0.012,9.557 C0.012,9.541 0.012,9.526 0.012,9.511 C0.008,9.511 0.004,9.511 -0.000,9.511 C-0.000,9.403 -0.000,9.296 -0.000,9.188 C0.004,9.188 0.008,9.188 0.012,9.188 C0.012,9.172 0.012,9.158 0.012,9.142 C0.016,9.142 0.020,9.142 0.024,9.142 C0.024,9.134 0.024,9.127 0.024,9.119 C0.028,9.119 0.033,9.119 0.037,9.119 C0.037,9.104 0.037,9.089 0.037,9.073 C0.045,9.069 0.053,9.066 0.061,9.062 C0.061,9.050 0.061,9.038 0.061,9.027 C0.073,9.019 0.086,9.011 0.098,9.004 C0.102,8.988 0.106,8.973 0.110,8.958 C0.114,8.958 0.118,8.958 0.122,8.958 C0.140,8.937 0.150,8.930 0.159,8.900 C0.167,8.900 0.175,8.900 0.183,8.900 C0.183,8.893 0.183,8.885 0.183,8.878 C0.191,8.878 0.200,8.878 0.208,8.878 C0.208,8.870 0.208,8.862 0.208,8.854 C0.216,8.854 0.224,8.854 0.232,8.854 C0.232,8.846 0.232,8.839 0.232,8.831 C0.240,8.831 0.249,8.831 0.257,8.831 C0.257,8.824 0.257,8.815 0.257,8.808 C0.265,8.808 0.273,8.808 0.281,8.808 C0.281,8.801 0.281,8.793 0.281,8.785 C0.289,8.785 0.298,8.785 0.306,8.785 C0.306,8.777 0.306,8.770 0.306,8.762 C0.314,8.762 0.322,8.762 0.330,8.762 C0.330,8.754 0.330,8.747 0.330,8.739 C0.338,8.739 0.347,8.739 0.355,8.739 C0.355,8.731 0.355,8.724 0.355,8.716 C0.363,8.716 0.371,8.716 0.379,8.716 C0.379,8.708 0.379,8.701 0.379,8.693 C0.387,8.693 0.395,8.693 0.404,8.693 C0.404,8.685 0.404,8.678 0.404,8.670 C0.412,8.670 0.420,8.670 0.428,8.670 C0.428,8.662 0.428,8.655 0.428,8.647 C0.436,8.647 0.444,8.647 0.453,8.647 C0.453,8.639 0.453,8.632 0.453,8.624 C0.461,8.624 0.469,8.624 0.477,8.624 C0.477,8.617 0.477,8.609 0.477,8.600 C0.485,8.600 0.493,8.600 0.501,8.600 C0.501,8.593 0.501,8.585 0.501,8.578 C0.510,8.578 0.518,8.578 0.526,8.578 C0.526,8.570 0.526,8.562 0.526,8.555 C0.534,8.555 0.542,8.555 0.550,8.555 C0.550,8.547 0.550,8.540 0.550,8.532 C0.559,8.532 0.567,8.532 0.575,8.532 C0.575,8.524 0.575,8.516 0.575,8.509 C0.583,8.509 0.591,8.509 0.599,8.509 C0.599,8.501 0.599,8.493 0.599,8.486 C0.607,8.486 0.616,8.486 0.624,8.486 C0.624,8.478 0.624,8.470 0.624,8.463 C0.632,8.463 0.640,8.463 0.648,8.463 C0.648,8.455 0.648,8.447 0.648,8.440 C0.656,8.440 0.665,8.440 0.673,8.440 C0.673,8.433 0.673,8.424 0.673,8.417 C0.681,8.417 0.689,8.417 0.697,8.417 C0.697,8.409 0.697,8.401 0.697,8.393 C0.705,8.393 0.714,8.393 0.722,8.393 C0.722,8.386 0.722,8.378 0.722,8.370 C0.730,8.370 0.738,8.370 0.746,8.370 C0.746,8.363 0.746,8.355 0.746,8.348 C0.754,8.348 0.762,8.348 0.771,8.348 C0.771,8.339 0.771,8.332 0.771,8.324 C0.779,8.324 0.787,8.324 0.795,8.324 C0.795,8.317 0.795,8.309 0.795,8.302 C0.803,8.302 0.811,8.302 0.820,8.302 C0.820,8.294 0.820,8.286 0.820,8.279 C0.828,8.279 0.836,8.279 0.844,8.279 C0.844,8.271 0.844,8.263 0.844,8.255 C0.852,8.255 0.860,8.255 0.869,8.255 C0.869,8.248 0.869,8.240 0.869,8.232 C0.877,8.232 0.885,8.232 0.893,8.232 C0.893,8.225 0.893,8.217 0.893,8.210 C0.901,8.210 0.909,8.210 0.917,8.210 C0.917,8.202 0.917,8.194 0.917,8.186 C0.926,8.186 0.934,8.186 0.942,8.186 C0.942,8.178 0.942,8.171 0.942,8.163 C0.950,8.163 0.958,8.163 0.966,8.163 C0.966,8.155 0.966,8.148 0.966,8.140 C0.974,8.140 0.983,8.140 0.991,8.140 C0.991,8.132 0.991,8.125 0.991,8.117 C0.999,8.117 1.007,8.117 1.015,8.117 C1.015,8.110 1.015,8.102 1.015,8.094 C1.023,8.094 1.032,8.094 1.040,8.094 C1.040,8.087 1.040,8.079 1.040,8.071 C1.048,8.071 1.056,8.071 1.064,8.071 C1.064,8.063 1.064,8.056 1.064,8.048 C1.072,8.048 1.081,8.048 1.089,8.048 C1.089,8.041 1.089,8.033 1.089,8.025 C1.097,8.025 1.105,8.025 1.113,8.025 C1.113,8.018 1.113,8.010 1.113,8.002 C1.121,8.002 1.129,8.002 1.138,8.002 C1.138,7.994 1.138,7.987 1.138,7.979 C1.146,7.979 1.154,7.979 1.162,7.979 C1.162,7.971 1.162,7.963 1.162,7.956 C1.170,7.956 1.178,7.956 1.187,7.956 C1.187,7.948 1.187,7.940 1.187,7.933 C1.195,7.933 1.203,7.933 1.211,7.933 C1.211,7.925 1.211,7.918 1.211,7.910 C1.219,7.910 1.227,7.910 1.236,7.910 C1.236,7.902 1.236,7.894 1.236,7.887 C1.244,7.887 1.252,7.887 1.260,7.887 C1.260,7.879 1.260,7.871 1.260,7.864 C1.268,7.864 1.276,7.864 1.284,7.864 C1.284,7.856 1.284,7.849 1.284,7.841 C1.293,7.841 1.301,7.841 1.309,7.841 C1.309,7.833 1.309,7.826 1.309,7.818 C1.317,7.818 1.325,7.818 1.333,7.818 C1.333,7.810 1.333,7.802 1.333,7.795 C1.341,7.795 1.350,7.795 1.358,7.795 C1.358,7.787 1.358,7.780 1.358,7.771 C1.366,7.771 1.374,7.771 1.382,7.771 C1.382,7.764 1.382,7.756 1.382,7.749 C1.390,7.749 1.399,7.749 1.407,7.749 C1.407,7.741 1.407,7.733 1.407,7.726 C1.415,7.726 1.423,7.726 1.431,7.726 C1.431,7.718 1.431,7.710 1.431,7.702 C1.439,7.702 1.448,7.702 1.456,7.702 C1.456,7.695 1.456,7.687 1.456,7.679 C1.464,7.679 1.472,7.679 1.480,7.679 C1.480,7.672 1.480,7.664 1.480,7.657 C1.488,7.657 1.496,7.657 1.505,7.657 C1.505,7.649 1.505,7.641 1.505,7.634 C1.513,7.634 1.521,7.634 1.529,7.634 C1.529,7.626 1.529,7.618 1.529,7.610 C1.537,7.610 1.545,7.610 1.554,7.610 C1.554,7.603 1.554,7.595 1.554,7.588 C1.562,7.588 1.570,7.588 1.578,7.588 C1.578,7.580 1.578,7.572 1.578,7.565 C1.586,7.565 1.594,7.565 1.603,7.565 C1.603,7.557 1.603,7.549 1.603,7.542 C1.611,7.542 1.619,7.542 1.627,7.542 C1.627,7.534 1.627,7.526 1.627,7.518 C1.635,7.518 1.643,7.518 1.651,7.518 C1.651,7.511 1.651,7.503 1.651,7.495 C1.660,7.495 1.668,7.495 1.676,7.495 C1.676,7.488 1.676,7.480 1.676,7.472 C1.684,7.472 1.692,7.472 1.700,7.472 C1.700,7.465 1.700,7.457 1.700,7.449 C1.709,7.449 1.717,7.449 1.725,7.449 C1.725,7.441 1.725,7.434 1.725,7.426 C1.733,7.426 1.741,7.426 1.749,7.426 C1.749,7.418 1.749,7.411 1.749,7.403 C1.757,7.403 1.766,7.403 1.774,7.403 C1.774,7.396 1.774,7.388 1.774,7.381 C1.782,7.381 1.790,7.381 1.798,7.381 C1.798,7.373 1.798,7.365 1.798,7.357 C1.806,7.357 1.815,7.357 1.823,7.357 C1.823,7.350 1.823,7.342 1.823,7.334 C1.831,7.334 1.839,7.334 1.847,7.334 C1.847,7.326 1.847,7.319 1.847,7.311 C1.855,7.311 1.863,7.311 1.872,7.311 C1.872,7.303 1.872,7.296 1.872,7.288 C1.880,7.288 1.888,7.288 1.896,7.288 C1.896,7.281 1.896,7.273 1.896,7.265 C1.904,7.265 1.912,7.265 1.921,7.265 C1.921,7.257 1.921,7.250 1.921,7.242 C1.929,7.242 1.937,7.242 1.945,7.242 C1.945,7.234 1.945,7.227 1.945,7.219 C1.953,7.219 1.961,7.219 1.970,7.219 C1.970,7.211 1.970,7.204 1.970,7.196 C1.978,7.196 1.986,7.196 1.994,7.196 C1.994,7.189 1.994,7.181 1.994,7.173 C2.002,7.173 2.010,7.173 2.019,7.173 C2.019,7.165 2.019,7.158 2.019,7.150 C2.027,7.150 2.035,7.150 2.043,7.150 C2.043,7.142 2.043,7.134 2.043,7.127 C2.051,7.127 2.059,7.127 2.067,7.127 C2.067,7.119 2.067,7.111 2.067,7.104 C2.076,7.104 2.084,7.104 2.092,7.104 C2.092,7.097 2.092,7.088 2.092,7.080 C2.100,7.080 2.108,7.080 2.116,7.080 C2.116,7.073 2.116,7.066 2.116,7.058 C2.124,7.058 2.133,7.058 2.141,7.058 C2.141,7.050 2.141,7.042 2.141,7.035 C2.149,7.035 2.157,7.035 2.165,7.035 C2.165,7.027 2.165,7.020 2.165,7.012 C2.173,7.012 2.182,7.012 2.190,7.012 C2.190,7.004 2.190,6.996 2.190,6.989 C2.198,6.989 2.206,6.989 2.214,6.989 C2.214,6.981 2.214,6.973 2.214,6.966 C2.222,6.966 2.231,6.966 2.239,6.966 C2.239,6.958 2.239,6.950 2.239,6.943 C2.247,6.943 2.255,6.943 2.263,6.943 C2.263,6.935 2.263,6.927 2.263,6.919 C2.271,6.919 2.279,6.919 2.288,6.919 C2.288,6.912 2.288,6.904 2.288,6.896 C2.296,6.896 2.304,6.896 2.312,6.896 C2.312,6.889 2.312,6.881 2.312,6.874 C2.320,6.874 2.328,6.874 2.337,6.874 C2.337,6.866 2.337,6.858 2.337,6.851 C2.345,6.851 2.353,6.851 2.361,6.851 C2.361,6.843 2.361,6.836 2.361,6.828 C2.369,6.828 2.377,6.828 2.386,6.828 C2.386,6.819 2.386,6.812 2.386,6.805 C2.394,6.805 2.402,6.805 2.410,6.805 C2.410,6.797 2.410,6.789 2.410,6.781 C2.418,6.781 2.426,6.781 2.434,6.781 C2.434,6.774 2.434,6.766 2.434,6.759 C2.443,6.759 2.451,6.759 2.459,6.759 C2.459,6.751 2.459,6.743 2.459,6.735 C2.467,6.735 2.475,6.735 2.483,6.735 C2.483,6.727 2.483,6.720 2.483,6.712 C2.492,6.712 2.500,6.712 2.508,6.712 C2.508,6.705 2.508,6.697 2.508,6.689 C2.516,6.689 2.524,6.689 2.532,6.689 C2.532,6.682 2.532,6.674 2.532,6.666 C2.540,6.666 2.549,6.666 2.557,6.666 C2.557,6.658 2.557,6.651 2.557,6.643 C2.565,6.643 2.573,6.643 2.581,6.643 C2.581,6.635 2.581,6.628 2.581,6.620 C2.589,6.620 2.598,6.620 2.606,6.620 C2.606,6.613 2.606,6.605 2.606,6.597 C2.614,6.597 2.622,6.597 2.630,6.597 C2.630,6.589 2.630,6.582 2.630,6.575 C2.638,6.575 2.646,6.575 2.655,6.575 C2.655,6.567 2.655,6.559 2.655,6.551 C2.663,6.551 2.671,6.551 2.679,6.551 C2.679,6.544 2.679,6.536 2.679,6.528 C2.687,6.528 2.695,6.528 2.704,6.528 C2.704,6.521 2.704,6.513 2.704,6.505 C2.712,6.505 2.720,6.505 2.728,6.505 C2.728,6.497 2.728,6.490 2.728,6.482 C2.736,6.482 2.744,6.482 2.753,6.482 C2.753,6.474 2.753,6.466 2.753,6.459 C2.761,6.459 2.769,6.459 2.777,6.459 C2.777,6.451 2.777,6.444 2.777,6.436 C2.785,6.436 2.793,6.436 2.801,6.436 C2.801,6.428 2.801,6.421 2.801,6.413 C2.810,6.413 2.818,6.413 2.826,6.413 C2.826,6.405 2.826,6.398 2.826,6.390 C2.834,6.390 2.842,6.390 2.850,6.390 C2.850,6.382 2.850,6.374 2.850,6.367 C2.859,6.367 2.867,6.367 2.875,6.367 C2.875,6.359 2.875,6.352 2.875,6.344 C2.883,6.344 2.891,6.344 2.899,6.344 C2.899,6.336 2.899,6.329 2.899,6.321 C2.908,6.321 2.916,6.321 2.924,6.321 C2.924,6.314 2.924,6.305 2.924,6.298 C2.932,6.298 2.940,6.298 2.948,6.298 C2.948,6.290 2.948,6.282 2.948,6.275 C2.956,6.275 2.965,6.275 2.973,6.275 C2.973,6.267 2.973,6.260 2.973,6.252 C2.981,6.252 2.989,6.252 2.997,6.252 C2.997,6.244 2.997,6.236 2.997,6.229 C3.005,6.229 3.013,6.229 3.022,6.229 C3.022,6.221 3.022,6.213 3.022,6.206 C3.030,6.206 3.038,6.206 3.046,6.206 C3.046,6.198 3.046,6.190 3.046,6.183 C3.054,6.183 3.062,6.183 3.071,6.183 C3.071,6.175 3.071,6.167 3.071,6.159 C3.079,6.159 3.087,6.159 3.095,6.159 C3.095,6.152 3.095,6.144 3.095,6.137 C3.103,6.137 3.111,6.137 3.120,6.137 C3.120,6.129 3.120,6.121 3.120,6.113 C3.128,6.113 3.136,6.113 3.144,6.113 C3.144,6.106 3.144,6.098 3.144,6.090 C3.152,6.090 3.160,6.090 3.168,6.090 C3.168,6.082 3.168,6.075 3.168,6.067 C3.177,6.067 3.185,6.067 3.193,6.067 C3.193,6.060 3.193,6.052 3.193,6.045 C3.201,6.045 3.209,6.045 3.217,6.045 C3.217,6.037 3.217,6.029 3.217,6.021 C3.226,6.021 3.234,6.021 3.242,6.021 C3.242,6.014 3.242,6.006 3.242,5.998 C3.250,5.998 3.258,5.998 3.266,5.998 C3.266,5.991 3.266,5.983 3.266,5.975 C3.275,5.975 3.283,5.975 3.291,5.975 C3.291,5.968 3.291,5.960 3.291,5.953 C3.299,5.953 3.307,5.953 3.315,5.953 C3.315,5.945 3.315,5.937 3.315,5.929 C3.323,5.929 3.332,5.929 3.340,5.929 C3.340,5.922 3.340,5.914 3.340,5.906 C3.348,5.906 3.356,5.906 3.364,5.906 C3.364,5.898 3.364,5.891 3.364,5.883 C3.372,5.883 3.380,5.883 3.389,5.883 C3.389,5.875 3.389,5.868 3.389,5.860 C3.397,5.860 3.405,5.860 3.413,5.860 C3.413,5.853 3.413,5.844 3.413,5.837 C3.421,5.837 3.429,5.837 3.438,5.837 C3.438,5.829 3.438,5.822 3.438,5.814 C3.446,5.814 3.454,5.814 3.462,5.814 C3.462,5.806 3.462,5.799 3.462,5.791 C3.470,5.791 3.478,5.791 3.487,5.791 C3.487,5.784 3.487,5.776 3.487,5.768 C3.495,5.768 3.503,5.768 3.511,5.768 C3.511,5.761 3.511,5.753 3.511,5.745 C3.519,5.745 3.527,5.745 3.535,5.745 C3.535,5.737 3.535,5.730 3.535,5.722 C3.544,5.722 3.552,5.722 3.560,5.722 C3.560,5.714 3.560,5.707 3.560,5.699 C3.568,5.699 3.576,5.699 3.584,5.699 C3.584,5.692 3.584,5.684 3.584,5.676 C3.593,5.676 3.601,5.676 3.609,5.676 C3.609,5.668 3.609,5.660 3.609,5.653 C3.617,5.653 3.625,5.653 3.633,5.653 C3.633,5.645 3.633,5.637 3.633,5.630 C3.642,5.630 3.650,5.630 3.658,5.630 C3.658,5.622 3.658,5.615 3.658,5.607 C3.666,5.607 3.674,5.607 3.682,5.607 C3.682,5.600 3.682,5.592 3.682,5.584 C3.690,5.584 3.699,5.584 3.707,5.584 C3.707,5.576 3.707,5.568 3.707,5.561 C3.715,5.561 3.723,5.561 3.731,5.561 C3.731,5.553 3.731,5.545 3.731,5.538 C3.739,5.538 3.747,5.538 3.756,5.538 C3.756,5.530 3.756,5.523 3.756,5.515 C3.764,5.515 3.772,5.515 3.780,5.515 C3.780,5.507 3.780,5.500 3.780,5.492 C3.788,5.492 3.796,5.492 3.805,5.492 C3.805,5.484 3.805,5.476 3.805,5.469 C3.813,5.469 3.821,5.469 3.829,5.469 C3.829,5.461 3.829,5.453 3.829,5.446 C3.837,5.446 3.845,5.446 3.854,5.446 C3.854,5.438 3.854,5.430 3.854,5.423 C3.862,5.423 3.870,5.423 3.878,5.423 C3.878,5.415 3.878,5.407 3.878,5.400 C3.886,5.400 3.894,5.400 3.902,5.400 C3.902,5.392 3.902,5.384 3.902,5.377 C3.911,5.377 3.919,5.377 3.927,5.377 C3.927,5.369 3.927,5.361 3.927,5.354 C3.935,5.354 3.943,5.354 3.951,5.354 C3.951,5.346 3.951,5.338 3.951,5.331 C3.960,5.331 3.968,5.331 3.976,5.331 C3.976,5.323 3.976,5.316 3.976,5.307 C3.984,5.307 3.992,5.307 4.000,5.307 C4.000,5.300 4.000,5.292 4.000,5.285 C4.009,5.285 4.017,5.285 4.025,5.285 C4.025,5.277 4.025,5.269 4.025,5.261 C4.033,5.261 4.041,5.261 4.049,5.261 C4.049,5.254 4.049,5.246 4.049,5.239 C4.058,5.239 4.066,5.239 4.074,5.239 C4.074,5.231 4.074,5.223 4.074,5.215 C4.082,5.215 4.090,5.215 4.098,5.215 C4.098,5.208 4.098,5.200 4.098,5.192 C4.106,5.192 4.115,5.192 4.123,5.192 C4.123,5.185 4.123,5.177 4.123,5.169 C4.131,5.169 4.139,5.169 4.147,5.169 C4.147,5.162 4.147,5.154 4.147,5.146 C4.155,5.146 4.163,5.146 4.172,5.146 C4.172,5.139 4.172,5.131 4.172,5.123 C4.180,5.123 4.188,5.123 4.196,5.123 C4.196,5.116 4.196,5.108 4.196,5.100 C4.204,5.100 4.212,5.100 4.221,5.100 C4.221,5.093 4.221,5.085 4.221,5.077 C4.229,5.077 4.237,5.077 4.245,5.077 C4.245,5.069 4.245,5.062 4.245,5.055 C4.253,5.055 4.261,5.055 4.270,5.055 C4.270,5.047 4.270,5.039 4.270,5.031 C4.278,5.031 4.286,5.031 4.294,5.031 C4.303,4.986 4.303,4.984 4.294,4.939 C4.286,4.939 4.278,4.939 4.270,4.939 C4.270,4.931 4.270,4.924 4.270,4.916 C4.261,4.916 4.253,4.916 4.245,4.916 C4.245,4.908 4.245,4.901 4.245,4.893 C4.237,4.893 4.229,4.893 4.221,4.893 C4.221,4.885 4.221,4.878 4.221,4.870 C4.212,4.870 4.204,4.870 4.196,4.870 C4.196,4.862 4.196,4.854 4.196,4.847 C4.188,4.847 4.180,4.847 4.172,4.847 C4.172,4.839 4.172,4.831 4.172,4.824 C4.163,4.824 4.155,4.824 4.147,4.824 C4.147,4.816 4.147,4.809 4.147,4.801 C4.139,4.801 4.131,4.801 4.123,4.801 C4.123,4.793 4.123,4.786 4.123,4.778 C4.115,4.778 4.106,4.778 4.098,4.778 C4.098,4.770 4.098,4.762 4.098,4.754 C4.090,4.754 4.082,4.754 4.074,4.754 C4.074,4.747 4.074,4.740 4.074,4.732 C4.066,4.732 4.058,4.732 4.049,4.732 C4.049,4.724 4.049,4.717 4.049,4.709 C4.041,4.709 4.033,4.709 4.025,4.709 C4.025,4.701 4.025,4.694 4.025,4.686 C4.017,4.686 4.009,4.686 4.000,4.686 C4.000,4.678 4.000,4.670 4.000,4.663 C3.992,4.663 3.984,4.663 3.976,4.663 C3.976,4.655 3.976,4.647 3.976,4.639 C3.968,4.639 3.960,4.639 3.951,4.639 C3.951,4.632 3.951,4.624 3.951,4.617 C3.943,4.617 3.935,4.617 3.927,4.617 C3.927,4.609 3.927,4.601 3.927,4.593 C3.919,4.593 3.911,4.593 3.902,4.593 C3.902,4.586 3.902,4.578 3.902,4.570 C3.894,4.570 3.886,4.570 3.878,4.570 C3.878,4.563 3.878,4.555 3.878,4.548 C3.870,4.548 3.862,4.548 3.854,4.548 C3.854,4.540 3.854,4.532 3.854,4.525 C3.845,4.525 3.837,4.525 3.829,4.525 C3.829,4.517 3.829,4.509 3.829,4.501 C3.821,4.501 3.813,4.501 3.805,4.501 C3.805,4.494 3.805,4.486 3.805,4.479 C3.796,4.479 3.788,4.479 3.780,4.479 C3.780,4.471 3.780,4.463 3.780,4.456 C3.772,4.456 3.764,4.456 3.756,4.456 C3.756,4.448 3.756,4.440 3.756,4.432 C3.747,4.432 3.739,4.432 3.731,4.432 C3.731,4.425 3.731,4.417 3.731,4.409 C3.723,4.409 3.715,4.409 3.707,4.409 C3.707,4.401 3.707,4.394 3.707,4.386 C3.699,4.386 3.690,4.386 3.682,4.386 C3.682,4.379 3.682,4.371 3.682,4.364 C3.674,4.364 3.666,4.364 3.658,4.364 C3.658,4.356 3.658,4.348 3.658,4.340 C3.650,4.340 3.642,4.340 3.633,4.340 C3.633,4.332 3.633,4.325 3.633,4.317 C3.625,4.317 3.617,4.317 3.609,4.317 C3.609,4.309 3.609,4.302 3.609,4.294 C3.601,4.294 3.593,4.294 3.584,4.294 C3.584,4.287 3.584,4.279 3.584,4.272 C3.576,4.272 3.568,4.272 3.560,4.272 C3.560,4.264 3.560,4.256 3.560,4.248 C3.552,4.248 3.544,4.248 3.535,4.248 C3.535,4.241 3.535,4.233 3.535,4.225 C3.527,4.225 3.519,4.225 3.511,4.225 C3.511,4.217 3.511,4.210 3.511,4.202 C3.503,4.202 3.495,4.202 3.487,4.202 C3.487,4.194 3.487,4.187 3.487,4.179 C3.478,4.179 3.470,4.179 3.462,4.179 C3.462,4.171 3.462,4.164 3.462,4.156 C3.454,4.156 3.446,4.156 3.438,4.156 C3.438,4.148 3.438,4.141 3.438,4.133 C3.429,4.133 3.421,4.133 3.413,4.133 C3.413,4.125 3.413,4.118 3.413,4.110 C3.405,4.110 3.397,4.110 3.389,4.110 C3.389,4.102 3.389,4.095 3.389,4.087 C3.380,4.087 3.372,4.087 3.364,4.087 C3.364,4.079 3.364,4.072 3.364,4.064 C3.356,4.064 3.348,4.064 3.340,4.064 C3.340,4.056 3.340,4.049 3.340,4.041 C3.332,4.041 3.323,4.041 3.315,4.041 C3.315,4.034 3.315,4.026 3.315,4.017 C3.307,4.017 3.299,4.017 3.291,4.017 C3.291,4.010 3.291,4.002 3.291,3.995 C3.283,3.995 3.275,3.995 3.266,3.995 C3.266,3.987 3.266,3.980 3.266,3.972 C3.258,3.972 3.250,3.972 3.242,3.972 C3.242,3.964 3.242,3.956 3.242,3.949 C3.234,3.949 3.226,3.949 3.217,3.949 C3.217,3.941 3.217,3.933 3.217,3.926 C3.209,3.926 3.201,3.926 3.193,3.926 C3.193,3.918 3.193,3.910 3.193,3.903 C3.185,3.903 3.177,3.903 3.168,3.903 C3.168,3.895 3.168,3.887 3.168,3.880 C3.160,3.880 3.152,3.880 3.144,3.880 C3.144,3.872 3.144,3.864 3.144,3.856 C3.136,3.856 3.128,3.856 3.120,3.856 C3.120,3.849 3.120,3.841 3.120,3.834 C3.111,3.834 3.103,3.834 3.095,3.834 C3.095,3.826 3.095,3.819 3.095,3.811 C3.087,3.811 3.079,3.811 3.071,3.811 C3.071,3.803 3.071,3.795 3.071,3.788 C3.062,3.788 3.054,3.788 3.046,3.788 C3.046,3.779 3.046,3.772 3.046,3.764 C3.038,3.764 3.030,3.764 3.022,3.764 C3.022,3.757 3.022,3.749 3.022,3.741 C3.013,3.741 3.005,3.741 2.997,3.741 C2.997,3.734 2.997,3.726 2.997,3.719 C2.989,3.719 2.981,3.719 2.973,3.719 C2.973,3.711 2.973,3.703 2.973,3.695 C2.965,3.695 2.956,3.695 2.948,3.695 C2.948,3.688 2.948,3.680 2.948,3.672 C2.940,3.672 2.932,3.672 2.924,3.672 C2.924,3.665 2.924,3.657 2.924,3.649 C2.916,3.649 2.908,3.649 2.899,3.649 C2.899,3.642 2.899,3.634 2.899,3.627 C2.891,3.627 2.883,3.627 2.875,3.627 C2.875,3.619 2.875,3.611 2.875,3.603 C2.867,3.603 2.859,3.603 2.850,3.603 C2.850,3.595 2.850,3.588 2.850,3.580 C2.842,3.580 2.834,3.580 2.826,3.580 C2.826,3.572 2.826,3.565 2.826,3.557 C2.818,3.557 2.810,3.557 2.801,3.557 C2.801,3.550 2.801,3.542 2.801,3.535 C2.793,3.535 2.785,3.535 2.777,3.535 C2.777,3.526 2.777,3.518 2.777,3.511 C2.769,3.511 2.761,3.511 2.753,3.511 C2.753,3.504 2.753,3.496 2.753,3.488 C2.744,3.488 2.736,3.488 2.728,3.488 C2.728,3.481 2.728,3.473 2.728,3.465 C2.720,3.465 2.712,3.465 2.704,3.465 C2.704,3.458 2.704,3.450 2.704,3.443 C2.695,3.443 2.687,3.443 2.679,3.443 C2.679,3.434 2.679,3.427 2.679,3.419 C2.671,3.419 2.663,3.419 2.655,3.419 C2.655,3.411 2.655,3.404 2.655,3.396 C2.646,3.396 2.638,3.396 2.630,3.396 C2.630,3.388 2.630,3.381 2.630,3.373 C2.622,3.373 2.614,3.373 2.606,3.373 C2.606,3.366 2.606,3.357 2.606,3.350 C2.598,3.350 2.589,3.350 2.581,3.350 C2.581,3.342 2.581,3.334 2.581,3.327 C2.573,3.327 2.565,3.327 2.557,3.327 C2.557,3.319 2.557,3.312 2.557,3.304 C2.549,3.304 2.540,3.304 2.532,3.304 C2.532,3.296 2.532,3.289 2.532,3.281 C2.524,3.281 2.516,3.281 2.508,3.281 C2.508,3.273 2.508,3.266 2.508,3.258 C2.500,3.258 2.492,3.258 2.483,3.258 C2.483,3.250 2.483,3.243 2.483,3.235 C2.475,3.235 2.467,3.235 2.459,3.235 C2.459,3.227 2.459,3.220 2.459,3.212 C2.451,3.212 2.443,3.212 2.434,3.212 C2.434,3.204 2.434,3.197 2.434,3.188 C2.426,3.188 2.418,3.188 2.410,3.188 C2.410,3.181 2.410,3.173 2.410,3.166 C2.402,3.166 2.394,3.166 2.386,3.166 C2.386,3.158 2.386,3.150 2.386,3.143 C2.377,3.143 2.369,3.143 2.361,3.143 C2.361,3.135 2.361,3.127 2.361,3.120 C2.353,3.120 2.345,3.120 2.337,3.120 C2.337,3.112 2.337,3.104 2.337,3.096 C2.328,3.096 2.320,3.096 2.312,3.096 C2.312,3.089 2.312,3.081 2.312,3.073 C2.304,3.073 2.296,3.073 2.288,3.073 C2.288,3.066 2.288,3.058 2.288,3.051 C2.279,3.051 2.271,3.051 2.263,3.051 C2.263,3.043 2.263,3.036 2.263,3.028 C2.255,3.028 2.247,3.028 2.239,3.028 C2.239,3.020 2.239,3.012 2.239,3.005 C2.231,3.005 2.222,3.005 2.214,3.005 C2.214,2.997 2.214,2.989 2.214,2.982 C2.206,2.982 2.198,2.982 2.190,2.982 C2.190,2.974 2.190,2.966 2.190,2.959 C2.182,2.959 2.173,2.959 2.165,2.959 C2.165,2.951 2.165,2.943 2.165,2.935 C2.157,2.935 2.149,2.935 2.141,2.935 C2.141,2.928 2.141,2.920 2.141,2.912 C2.133,2.912 2.124,2.912 2.116,2.912 C2.116,2.905 2.116,2.897 2.116,2.889 C2.108,2.889 2.100,2.889 2.092,2.889 C2.092,2.882 2.092,2.874 2.092,2.866 C2.084,2.866 2.076,2.866 2.067,2.866 C2.067,2.858 2.067,2.851 2.067,2.843 C2.059,2.843 2.051,2.843 2.043,2.843 C2.043,2.836 2.043,2.828 2.043,2.820 C2.035,2.820 2.027,2.820 2.019,2.820 C2.019,2.813 2.019,2.805 2.019,2.798 C2.010,2.798 2.002,2.798 1.994,2.798 C1.994,2.790 1.994,2.781 1.994,2.775 C1.986,2.775 1.978,2.775 1.970,2.775 C1.970,2.766 1.970,2.759 1.970,2.751 C1.961,2.751 1.953,2.751 1.945,2.751 C1.945,2.743 1.945,2.736 1.945,2.728 C1.937,2.728 1.929,2.728 1.921,2.728 C1.921,2.720 1.921,2.713 1.921,2.705 C1.912,2.705 1.904,2.705 1.896,2.705 C1.896,2.697 1.896,2.690 1.896,2.682 C1.888,2.682 1.880,2.682 1.872,2.682 C1.872,2.674 1.872,2.667 1.872,2.659 C1.863,2.659 1.855,2.659 1.847,2.659 C1.847,2.651 1.847,2.644 1.847,2.636 C1.839,2.636 1.831,2.636 1.823,2.636 C1.823,2.628 1.823,2.621 1.823,2.613 C1.815,2.613 1.806,2.613 1.798,2.613 C1.798,2.605 1.798,2.598 1.798,2.590 C1.790,2.590 1.782,2.590 1.774,2.590 C1.774,2.583 1.774,2.575 1.774,2.567 C1.766,2.567 1.757,2.567 1.749,2.567 C1.749,2.559 1.749,2.552 1.749,2.544 C1.741,2.544 1.733,2.544 1.725,2.544 C1.725,2.536 1.725,2.528 1.725,2.520 C1.717,2.520 1.709,2.520 1.700,2.520 C1.700,2.513 1.700,2.505 1.700,2.498 C1.692,2.498 1.684,2.498 1.676,2.498 C1.676,2.490 1.676,2.483 1.676,2.475 C1.668,2.475 1.660,2.475 1.651,2.475 C1.651,2.467 1.651,2.460 1.651,2.452 C1.643,2.452 1.635,2.452 1.627,2.452 C1.627,2.444 1.627,2.436 1.627,2.429 C1.619,2.429 1.611,2.429 1.603,2.429 C1.603,2.421 1.603,2.413 1.603,2.406 C1.594,2.406 1.586,2.406 1.578,2.406 C1.578,2.398 1.578,2.391 1.578,2.383 C1.570,2.383 1.562,2.383 1.554,2.383 C1.554,2.375 1.554,2.367 1.554,2.360 C1.545,2.360 1.537,2.360 1.529,2.360 C1.529,2.352 1.529,2.344 1.529,2.336 C1.521,2.336 1.513,2.336 1.505,2.336 C1.505,2.329 1.505,2.321 1.505,2.314 C1.496,2.314 1.488,2.314 1.480,2.314 C1.480,2.306 1.480,2.298 1.480,2.291 C1.472,2.291 1.464,2.291 1.456,2.291 C1.456,2.283 1.456,2.275 1.456,2.267 C1.448,2.267 1.439,2.267 1.431,2.267 C1.431,2.260 1.431,2.252 1.431,2.245 C1.423,2.245 1.415,2.245 1.407,2.245 C1.407,2.237 1.407,2.229 1.407,2.222 C1.399,2.222 1.390,2.222 1.382,2.222 C1.382,2.214 1.382,2.206 1.382,2.199 C1.374,2.199 1.366,2.199 1.358,2.199 C1.358,2.191 1.358,2.183 1.358,2.175 C1.350,2.175 1.341,2.175 1.333,2.175 C1.333,2.168 1.333,2.160 1.333,2.152 C1.325,2.152 1.317,2.152 1.309,2.152 C1.309,2.145 1.309,2.137 1.309,2.129 C1.301,2.129 1.293,2.129 1.284,2.129 C1.284,2.122 1.284,2.114 1.284,2.106 C1.276,2.106 1.268,2.106 1.260,2.106 C1.260,2.098 1.260,2.091 1.260,2.083 C1.252,2.083 1.244,2.083 1.236,2.083 C1.236,2.075 1.236,2.068 1.236,2.060 C1.227,2.060 1.219,2.060 1.211,2.060 C1.211,2.053 1.211,2.045 1.211,2.038 C1.203,2.038 1.195,2.038 1.187,2.038 C1.187,2.030 1.187,2.022 1.187,2.014 C1.178,2.014 1.170,2.014 1.162,2.014 C1.162,2.007 1.162,1.999 1.162,1.991 C1.154,1.991 1.146,1.991 1.138,1.991 C1.138,1.984 1.138,1.976 1.138,1.968 C1.129,1.968 1.121,1.968 1.113,1.968 C1.113,1.961 1.113,1.953 1.113,1.945 C1.105,1.945 1.097,1.945 1.089,1.945 C1.089,1.938 1.089,1.930 1.089,1.922 C1.081,1.922 1.072,1.922 1.064,1.922 C1.064,1.914 1.064,1.907 1.064,1.899 C1.056,1.899 1.048,1.899 1.040,1.899 C1.040,1.891 1.040,1.884 1.040,1.876 C1.032,1.876 1.023,1.876 1.015,1.876 C1.015,1.868 1.015,1.861 1.015,1.853 C1.007,1.853 0.999,1.853 0.991,1.853 C0.991,1.845 0.991,1.838 0.991,1.830 C0.983,1.830 0.974,1.830 0.966,1.830 C0.966,1.822 0.966,1.815 0.966,1.807 C0.958,1.807 0.950,1.807 0.942,1.807 C0.942,1.799 0.942,1.791 0.942,1.784 C0.934,1.784 0.926,1.784 0.917,1.784 C0.917,1.776 0.917,1.769 0.917,1.761 C0.909,1.761 0.901,1.761 0.893,1.761 C0.893,1.754 0.893,1.746 0.893,1.738 C0.885,1.738 0.877,1.738 0.869,1.738 C0.869,1.730 0.869,1.723 0.869,1.715 C0.860,1.715 0.852,1.715 0.844,1.715 C0.844,1.707 0.844,1.699 0.844,1.692 C0.836,1.692 0.828,1.692 0.820,1.692 C0.820,1.684 0.820,1.677 0.820,1.669 C0.811,1.669 0.803,1.669 0.795,1.669 C0.795,1.661 0.795,1.653 0.795,1.646 C0.787,1.646 0.779,1.646 0.771,1.646 C0.771,1.638 0.771,1.631 0.771,1.623 C0.762,1.623 0.754,1.623 0.746,1.623 C0.746,1.615 0.746,1.607 0.746,1.600 C0.738,1.600 0.730,1.600 0.722,1.600 C0.722,1.592 0.722,1.585 0.722,1.577 C0.714,1.577 0.705,1.577 0.697,1.577 C0.697,1.569 0.697,1.562 0.697,1.554 C0.689,1.554 0.681,1.554 0.673,1.554 C0.673,1.546 0.673,1.538 0.673,1.531 C0.665,1.531 0.656,1.531 0.648,1.531 C0.648,1.523 0.648,1.515 0.648,1.507 C0.640,1.507 0.632,1.507 0.624,1.507 C0.624,1.500 0.624,1.492 0.624,1.485 C0.616,1.485 0.607,1.485 0.599,1.485 C0.599,1.477 0.599,1.469 0.599,1.461 C0.591,1.461 0.583,1.461 0.575,1.461 C0.575,1.454 0.575,1.446 0.575,1.439 C0.567,1.439 0.559,1.439 0.550,1.439 C0.550,1.431 0.550,1.423 0.550,1.416 C0.542,1.416 0.534,1.416 0.526,1.416 C0.526,1.408 0.526,1.400 0.526,1.393 C0.518,1.393 0.510,1.393 0.501,1.393 C0.501,1.385 0.501,1.377 0.501,1.369 C0.493,1.369 0.485,1.369 0.477,1.369 C0.477,1.362 0.477,1.354 0.477,1.346 C0.469,1.346 0.461,1.346 0.453,1.346 C0.453,1.339 0.453,1.331 0.453,1.324 C0.444,1.324 0.436,1.324 0.428,1.324 C0.428,1.315 0.428,1.309 0.428,1.301 C0.420,1.301 0.412,1.301 0.404,1.301 C0.404,1.292 0.404,1.285 0.404,1.277 C0.395,1.277 0.387,1.277 0.379,1.277 C0.379,1.269 0.379,1.262 0.379,1.254 C0.371,1.254 0.363,1.254 0.355,1.254 C0.355,1.247 0.355,1.239 0.355,1.232 C0.347,1.232 0.338,1.232 0.330,1.232 C0.330,1.224 0.330,1.216 0.330,1.208 C0.322,1.208 0.314,1.208 0.306,1.208 C0.306,1.200 0.306,1.193 0.306,1.185 C0.298,1.185 0.289,1.185 0.281,1.185 C0.281,1.178 0.281,1.170 0.281,1.162 C0.273,1.162 0.265,1.162 0.257,1.162 C0.257,1.155 0.257,1.147 0.257,1.140 C0.249,1.140 0.240,1.140 0.232,1.140 C0.232,1.132 0.232,1.124 0.232,1.116 C0.224,1.116 0.216,1.116 0.208,1.116 C0.208,1.108 0.208,1.101 0.208,1.093 C0.200,1.093 0.191,1.093 0.183,1.093 C0.183,1.085 0.183,1.078 0.183,1.070 C0.175,1.070 0.167,1.070 0.159,1.070 C0.159,1.062 0.159,1.055 0.159,1.047 C0.151,1.047 0.143,1.047 0.134,1.047 C0.125,1.016 0.115,1.011 0.098,0.989 C0.094,0.989 0.090,0.989 0.086,0.989 C0.086,0.978 0.086,0.967 0.086,0.955 C0.077,0.951 0.069,0.947 0.061,0.944 C0.061,0.932 0.061,0.920 0.061,0.909 C0.053,0.905 0.045,0.901 0.037,0.897 C0.037,0.882 0.037,0.867 0.037,0.851 C0.033,0.851 0.028,0.851 0.024,0.851 C0.024,0.843 0.024,0.836 0.024,0.828 C0.020,0.828 0.016,0.828 0.012,0.828 C0.012,0.813 0.012,0.798 0.012,0.782 C0.008,0.782 0.004,0.782 -0.000,0.782 C-0.000,0.683 -0.000,0.582 -0.000,0.483 C0.004,0.483 0.008,0.483 0.012,0.483 C0.012,0.467 0.012,0.452 0.012,0.437 C0.016,0.437 0.020,0.437 0.024,0.437 C0.024,0.429 0.024,0.421 0.024,0.414 C0.028,0.414 0.033,0.414 0.037,0.414 C0.037,0.398 0.037,0.383 0.037,0.368 C0.045,0.364 0.053,0.360 0.061,0.356 C0.061,0.344 0.061,0.333 0.061,0.322 C0.069,0.318 0.077,0.314 0.086,0.310 C0.086,0.298 0.086,0.287 0.086,0.275 C0.090,0.275 0.094,0.275 0.098,0.275 C0.115,0.254 0.125,0.249 0.134,0.218 C0.143,0.218 0.151,0.218 0.159,0.218 C0.159,0.210 0.159,0.202 0.159,0.195 C0.167,0.195 0.175,0.195 0.183,0.195 C0.183,0.187 0.183,0.180 0.183,0.172 C0.191,0.172 0.200,0.172 0.208,0.172 C0.208,0.164 0.208,0.157 0.208,0.149 C0.216,0.149 0.224,0.149 0.232,0.149 C0.232,0.141 0.232,0.133 0.232,0.126 C0.265,0.117 0.271,0.107 0.293,0.091 C0.293,0.088 0.293,0.084 0.293,0.080 C0.306,0.080 0.318,0.080 0.330,0.080 C0.334,0.073 0.338,0.065 0.342,0.056 C0.355,0.056 0.367,0.056 0.379,0.056 C0.383,0.049 0.387,0.041 0.391,0.034 C0.408,0.034 0.424,0.034 0.440,0.034 C0.440,0.030 0.440,0.026 0.440,0.022 C0.448,0.022 0.457,0.022 0.465,0.022 C0.465,0.018 0.465,0.014 0.465,0.010 C0.481,0.010 0.497,0.010 0.514,0.010 C0.514,0.007 0.514,0.003 0.514,-0.001 C0.628,-0.001 0.742,-0.001 0.856,-0.001 C0.856,0.003 0.856,0.007 0.856,0.010 C0.873,0.010 0.889,0.010 0.905,0.010 C0.909,0.018 0.913,0.026 0.917,0.034 C0.930,0.034 0.942,0.034 0.954,0.034 C0.958,0.041 0.962,0.049 0.966,0.056 C0.979,0.056 0.991,0.056 1.003,0.056 C1.007,0.065 1.011,0.073 1.015,0.080 C1.027,0.080 1.040,0.080 1.052,0.080 C1.052,0.084 1.052,0.088 1.052,0.091 C1.075,0.107 1.081,0.117 1.113,0.126 Z"/>
</svg>