<svg 
 xmlns="http://www.w3.org/2000/svg"
 xmlns:xlink="http://www.w3.org/1999/xlink"
 width="13px" height="13px">
<path fill-rule="evenodd"  fill="rgb(112, 111, 111)"
 d="M0.008,0.803 C0.273,0.538 0.538,0.273 0.803,0.008 C2.702,1.907 4.601,3.806 6.500,5.705 C8.399,3.806 10.298,1.907 12.197,0.008 C12.462,0.273 12.727,0.538 12.992,0.803 C11.093,2.702 9.194,4.601 7.295,6.500 C9.194,8.399 11.093,10.298 12.992,12.197 C12.727,12.462 12.462,12.727 12.197,12.992 C10.298,11.093 8.399,9.194 6.500,7.295 C4.601,9.194 2.702,11.093 0.803,12.992 C0.538,12.727 0.273,12.462 0.008,12.197 C1.907,10.298 3.806,8.399 5.705,6.500 C3.806,4.601 1.907,2.702 0.008,0.803 Z"/>
</svg>