<svg 
 xmlns="http://www.w3.org/2000/svg"
 xmlns:xlink="http://www.w3.org/1999/xlink"
 width="101px" height="31px">
<path fill-rule="evenodd"  fill="rgb(229, 229, 229)"
 d="M-0.000,0.036 C5.895,0.036 11.792,0.036 17.687,0.036 C17.687,1.561 17.687,3.086 17.687,4.611 C17.687,5.255 17.808,6.209 17.619,6.727 C17.372,6.637 16.944,6.659 16.594,6.659 C15.934,6.659 15.274,6.659 14.614,6.659 C12.406,6.659 10.198,6.659 7.990,6.659 C7.990,8.092 7.990,9.526 7.990,10.960 C10.949,10.960 13.909,10.960 16.867,10.960 C16.867,12.234 16.867,13.509 16.867,14.783 C16.890,14.783 16.913,14.783 16.936,14.783 C16.936,14.738 16.936,14.692 16.936,14.647 C17.111,14.501 17.146,14.296 17.277,14.100 C17.323,14.078 17.368,14.055 17.414,14.032 C17.414,13.987 17.414,13.941 17.414,13.896 C17.505,13.827 17.596,13.759 17.687,13.691 C17.687,13.645 17.687,13.600 17.687,13.554 C17.778,13.486 17.869,13.418 17.960,13.349 C17.960,13.304 17.960,13.258 17.960,13.213 C18.074,13.122 18.188,13.031 18.302,12.940 C18.484,12.735 18.666,12.530 18.848,12.325 C18.893,12.325 18.939,12.325 18.984,12.325 C19.053,12.234 19.121,12.143 19.189,12.052 C19.235,12.052 19.280,12.052 19.326,12.052 C19.371,11.984 19.417,11.916 19.462,11.847 C19.508,11.847 19.554,11.847 19.599,11.847 C19.645,11.779 19.690,11.711 19.736,11.643 C19.781,11.643 19.827,11.643 19.872,11.643 C19.895,11.597 19.918,11.552 19.941,11.506 C19.986,11.506 20.032,11.506 20.077,11.506 C20.100,11.461 20.123,11.415 20.145,11.370 C20.282,11.324 20.419,11.278 20.555,11.233 C21.912,10.382 23.755,9.799 25.950,9.799 C26.724,9.822 27.498,9.845 28.272,9.868 C28.595,9.960 29.054,10.039 29.364,10.141 C29.455,10.141 29.547,10.141 29.638,10.141 C29.638,10.163 29.638,10.186 29.638,10.209 C29.706,10.209 29.774,10.209 29.842,10.209 C29.842,10.232 29.842,10.254 29.842,10.277 C29.911,10.277 29.979,10.277 30.047,10.277 C30.047,10.300 30.047,10.323 30.047,10.345 C30.138,10.345 30.229,10.345 30.320,10.345 C30.320,10.368 30.320,10.391 30.320,10.414 C30.366,10.414 30.412,10.414 30.457,10.414 C30.457,10.436 30.457,10.459 30.457,10.482 C30.594,10.505 30.730,10.527 30.867,10.550 C30.867,10.573 30.867,10.596 30.867,10.619 C30.958,10.641 31.049,10.664 31.140,10.687 C31.140,10.710 31.140,10.732 31.140,10.755 C31.208,10.755 31.277,10.755 31.345,10.755 C31.345,10.778 31.345,10.801 31.345,10.823 C31.436,10.846 31.527,10.869 31.618,10.892 C31.618,10.914 31.618,10.937 31.618,10.960 C31.709,10.983 31.800,11.005 31.891,11.028 C31.914,11.074 31.937,11.119 31.959,11.165 C32.096,11.210 32.233,11.256 32.369,11.301 C32.369,11.324 32.369,11.347 32.369,11.370 C32.437,11.392 32.506,11.415 32.574,11.438 C32.597,11.483 32.620,11.529 32.642,11.574 C32.688,11.574 32.733,11.574 32.779,11.574 C32.824,11.643 32.870,11.711 32.915,11.779 C32.961,11.779 33.007,11.779 33.052,11.779 C33.098,11.847 33.143,11.916 33.189,11.984 C33.234,11.984 33.280,11.984 33.325,11.984 C33.462,12.143 33.598,12.303 33.735,12.462 C33.780,12.462 33.826,12.462 33.872,12.462 C33.894,12.507 33.917,12.553 33.940,12.598 C34.031,12.667 34.122,12.735 34.213,12.803 C34.213,12.849 34.213,12.894 34.213,12.940 C34.372,13.076 34.532,13.213 34.691,13.349 C34.691,13.395 34.691,13.440 34.691,13.486 C34.759,13.531 34.828,13.577 34.896,13.623 C34.896,13.668 34.896,13.714 34.896,13.759 C34.964,13.805 35.032,13.850 35.101,13.896 C35.101,13.941 35.101,13.987 35.101,14.032 C35.146,14.055 35.192,14.078 35.237,14.100 C35.237,14.146 35.237,14.191 35.237,14.237 C35.283,14.260 35.328,14.282 35.374,14.305 C35.397,14.396 35.419,14.487 35.442,14.578 C35.488,14.601 35.533,14.624 35.579,14.647 C35.624,14.783 35.670,14.920 35.715,15.056 C35.738,15.056 35.761,15.056 35.784,15.056 C35.784,15.102 35.784,15.147 35.784,15.193 C35.806,15.193 35.829,15.193 35.852,15.193 C35.852,15.238 35.852,15.284 35.852,15.329 C35.875,15.329 35.897,15.329 35.920,15.329 C35.966,15.466 36.011,15.602 36.057,15.739 C36.080,15.739 36.102,15.739 36.125,15.739 C36.148,15.853 36.171,15.967 36.193,16.080 C36.216,16.080 36.239,16.080 36.262,16.080 C36.262,16.126 36.262,16.171 36.262,16.217 C36.284,16.217 36.307,16.217 36.330,16.217 C36.330,16.285 36.330,16.353 36.330,16.422 C36.353,16.422 36.375,16.422 36.398,16.422 C36.398,16.490 36.398,16.558 36.398,16.626 C36.421,16.626 36.444,16.626 36.467,16.626 C36.489,16.763 36.512,16.900 36.535,17.036 C36.558,17.036 36.580,17.036 36.603,17.036 C36.603,17.013 36.603,16.991 36.603,16.968 C36.626,16.968 36.649,16.968 36.671,16.968 C36.694,16.831 36.717,16.695 36.740,16.558 C36.762,16.558 36.785,16.558 36.808,16.558 C36.808,16.490 36.808,16.422 36.808,16.353 C36.831,16.353 36.854,16.353 36.876,16.353 C36.876,16.285 36.876,16.217 36.876,16.149 C36.899,16.149 36.922,16.149 36.945,16.149 C36.967,16.058 36.990,15.967 37.013,15.875 C37.036,15.875 37.058,15.875 37.081,15.875 C37.081,15.807 37.081,15.739 37.081,15.671 C37.104,15.671 37.127,15.671 37.149,15.671 C37.195,15.534 37.240,15.398 37.286,15.261 C37.309,15.261 37.332,15.261 37.354,15.261 C37.354,15.216 37.354,15.170 37.354,15.125 C37.377,15.125 37.400,15.125 37.423,15.125 C37.468,14.988 37.514,14.851 37.559,14.715 C37.605,14.692 37.650,14.669 37.696,14.647 C37.719,14.556 37.741,14.465 37.764,14.374 C37.810,14.351 37.855,14.328 37.901,14.305 C37.901,14.260 37.901,14.214 37.901,14.169 C37.946,14.146 37.992,14.123 38.037,14.100 C38.037,14.055 38.037,14.009 38.037,13.964 C38.083,13.941 38.128,13.918 38.174,13.896 C38.174,13.850 38.174,13.805 38.174,13.759 C38.265,13.691 38.356,13.622 38.447,13.554 C38.447,13.509 38.447,13.463 38.447,13.418 C38.538,13.349 38.629,13.281 38.720,13.213 C38.720,13.167 38.720,13.122 38.720,13.076 C38.948,12.872 39.175,12.667 39.403,12.462 C39.494,12.348 39.585,12.234 39.676,12.121 C39.722,12.121 39.767,12.121 39.813,12.121 C39.904,12.007 39.995,11.893 40.086,11.779 C40.131,11.779 40.177,11.779 40.222,11.779 C40.268,11.711 40.314,11.643 40.359,11.574 C40.405,11.574 40.450,11.574 40.496,11.574 C40.518,11.529 40.541,11.483 40.564,11.438 C40.609,11.438 40.655,11.438 40.700,11.438 C40.723,11.392 40.746,11.347 40.769,11.301 C40.837,11.278 40.905,11.256 40.974,11.233 C40.974,11.210 40.974,11.187 40.974,11.165 C41.110,11.119 41.247,11.074 41.383,11.028 C41.406,10.983 41.429,10.937 41.452,10.892 C41.657,10.823 41.861,10.755 42.066,10.687 C42.066,10.664 42.066,10.641 42.066,10.619 C42.157,10.596 42.248,10.573 42.339,10.550 C42.339,10.527 42.339,10.505 42.339,10.482 C42.886,10.323 43.432,10.163 43.978,10.004 C44.115,10.004 44.252,10.004 44.388,10.004 C45.403,9.712 47.201,9.846 48.076,10.141 C48.235,10.163 48.394,10.186 48.554,10.209 C48.986,10.391 49.419,10.573 49.851,10.755 C49.874,10.801 49.897,10.846 49.920,10.892 C49.965,10.892 50.011,10.892 50.056,10.892 C50.056,10.914 50.056,10.937 50.056,10.960 C50.124,10.983 50.193,11.005 50.261,11.028 C50.284,11.074 50.307,11.119 50.329,11.165 C50.375,11.165 50.420,11.165 50.466,11.165 C50.511,11.233 50.557,11.301 50.602,11.370 C50.648,11.370 50.693,11.370 50.739,11.370 C50.785,11.438 50.830,11.506 50.876,11.574 C51.126,11.802 51.376,12.030 51.627,12.257 C51.627,8.207 51.627,4.155 51.627,0.105 C52.129,-0.078 53.235,0.036 53.880,0.036 C55.496,0.036 57.113,0.036 58.729,0.036 C64.214,0.036 69.701,0.036 75.187,0.036 C75.187,2.266 75.187,4.497 75.187,6.727 C75.164,6.727 75.141,6.727 75.118,6.727 C74.994,6.618 74.666,6.659 74.435,6.659 C73.844,6.659 73.252,6.659 72.660,6.659 C70.338,6.659 68.016,6.659 65.694,6.659 C65.694,8.092 65.694,9.526 65.694,10.960 C71.840,10.960 77.987,10.960 84.133,10.960 C84.315,11.165 84.497,11.370 84.679,11.574 C84.724,11.597 84.770,11.620 84.815,11.643 C84.815,11.688 84.815,11.734 84.815,11.779 C85.043,11.984 85.271,12.189 85.498,12.394 C85.498,12.439 85.498,12.485 85.498,12.530 C85.703,12.712 85.908,12.894 86.113,13.076 C86.113,13.122 86.113,13.167 86.113,13.213 C86.295,13.372 86.477,13.531 86.659,13.691 C86.659,13.714 86.659,13.736 86.659,13.759 C86.705,13.782 86.750,13.805 86.796,13.827 C86.796,13.873 86.796,13.918 86.796,13.964 C87.023,14.169 87.251,14.374 87.479,14.578 C87.479,14.624 87.479,14.669 87.479,14.715 C87.524,14.738 87.570,14.760 87.615,14.783 C87.833,15.013 88.087,15.234 88.230,15.534 C88.253,15.534 88.275,15.534 88.298,15.534 C88.298,15.511 88.298,15.489 88.298,15.466 C88.435,15.352 88.571,15.238 88.708,15.125 C88.708,15.079 88.708,15.033 88.708,14.988 C88.867,14.851 89.027,14.715 89.186,14.578 C89.186,14.533 89.186,14.487 89.186,14.442 C89.345,14.305 89.505,14.169 89.664,14.032 C89.664,13.987 89.664,13.941 89.664,13.896 C89.823,13.759 89.983,13.622 90.142,13.486 C90.142,13.440 90.142,13.395 90.142,13.349 C90.301,13.213 90.461,13.076 90.620,12.940 C90.620,12.894 90.620,12.849 90.620,12.803 C90.779,12.667 90.939,12.530 91.098,12.394 C91.098,12.348 91.098,12.303 91.098,12.257 C91.257,12.121 91.417,11.984 91.576,11.847 C91.576,11.802 91.576,11.756 91.576,11.711 C91.713,11.597 91.849,11.483 91.986,11.370 C91.986,11.324 91.986,11.278 91.986,11.233 C92.077,11.165 92.168,11.096 92.259,11.028 C92.259,11.005 92.259,10.983 92.259,10.960 C95.127,10.960 97.996,10.960 100.863,10.960 C100.863,10.983 100.863,11.005 100.863,11.028 C100.704,11.165 100.545,11.301 100.385,11.438 C100.385,11.483 100.385,11.529 100.385,11.574 C100.203,11.734 100.021,11.893 99.839,12.052 C99.839,12.098 99.839,12.143 99.839,12.189 C99.657,12.348 99.475,12.507 99.293,12.667 C99.293,12.712 99.293,12.758 99.293,12.803 C99.111,12.963 98.929,13.122 98.746,13.281 C98.746,13.327 98.746,13.372 98.746,13.418 C98.655,13.486 98.564,13.554 98.473,13.623 C98.405,13.714 98.337,13.805 98.268,13.896 C98.246,13.896 98.223,13.896 98.200,13.896 C98.200,13.941 98.200,13.987 98.200,14.032 C98.018,14.191 97.836,14.351 97.654,14.510 C97.654,14.556 97.654,14.601 97.654,14.647 C97.472,14.806 97.290,14.965 97.108,15.125 C96.436,16.052 95.593,16.791 94.922,17.719 C94.740,17.878 94.558,18.037 94.376,18.197 C94.376,18.242 94.376,18.288 94.376,18.333 C94.194,18.493 94.012,18.652 93.830,18.811 C93.830,18.857 93.830,18.902 93.830,18.948 C93.648,19.107 93.465,19.266 93.283,19.426 C93.283,19.471 93.283,19.517 93.283,19.562 C93.238,19.585 93.192,19.608 93.147,19.630 C92.937,19.852 92.620,20.124 92.532,20.450 C92.669,20.564 92.805,20.677 92.942,20.791 C92.942,20.837 92.942,20.882 92.942,20.928 C93.124,21.087 93.306,21.246 93.488,21.406 C93.488,21.451 93.488,21.497 93.488,21.542 C93.693,21.724 93.898,21.906 94.103,22.088 C94.103,22.134 94.103,22.179 94.103,22.225 C94.285,22.384 94.467,22.543 94.649,22.703 C94.649,22.748 94.649,22.794 94.649,22.839 C94.854,23.021 95.059,23.203 95.264,23.385 C95.264,23.431 95.264,23.477 95.264,23.522 C95.355,23.590 95.446,23.659 95.537,23.727 C95.605,23.818 95.673,23.909 95.742,24.000 C95.764,24.000 95.787,24.000 95.810,24.000 C95.810,24.045 95.810,24.091 95.810,24.136 C96.015,24.319 96.220,24.501 96.425,24.683 C96.425,24.728 96.425,24.774 96.425,24.819 C96.607,24.978 96.789,25.138 96.971,25.297 C97.679,26.276 98.584,27.049 99.293,28.028 C99.452,28.165 99.611,28.301 99.771,28.438 C99.771,28.460 99.771,28.483 99.771,28.506 C99.816,28.529 99.862,28.551 99.907,28.574 C99.907,28.620 99.907,28.665 99.907,28.711 C100.089,28.870 100.272,29.029 100.454,29.189 C100.454,29.234 100.454,29.280 100.454,29.325 C100.499,29.348 100.545,29.371 100.590,29.393 C100.727,29.553 100.863,29.712 101.000,29.871 C98.018,29.871 95.036,29.871 92.054,29.871 C91.804,29.576 91.553,29.280 91.303,28.984 C91.235,28.938 91.166,28.893 91.098,28.847 C91.098,28.802 91.098,28.756 91.098,28.711 C90.916,28.551 90.734,28.392 90.552,28.233 C90.552,28.187 90.552,28.142 90.552,28.096 C90.347,27.914 90.142,27.732 89.937,27.550 C89.937,27.505 89.937,27.459 89.937,27.414 C89.846,27.345 89.755,27.277 89.664,27.209 C89.596,27.118 89.527,27.027 89.459,26.936 C89.436,26.936 89.414,26.936 89.391,26.936 C89.391,26.890 89.391,26.845 89.391,26.799 C89.231,26.663 89.072,26.526 88.913,26.389 C88.890,26.321 88.867,26.253 88.844,26.185 C88.662,26.025 88.480,25.866 88.298,25.707 C88.151,25.504 88.170,25.373 87.888,25.297 C86.546,26.822 85.202,28.347 83.859,29.871 C73.116,29.871 62.370,29.871 51.627,29.871 C51.627,29.234 51.627,28.597 51.627,27.960 C51.604,27.960 51.581,27.960 51.558,27.960 C51.349,28.350 51.038,28.617 50.739,28.916 C50.580,29.098 50.420,29.280 50.261,29.462 C49.440,30.050 48.536,30.489 47.461,30.827 C47.165,30.850 46.869,30.873 46.573,30.895 C46.573,30.918 46.573,30.941 46.573,30.964 C46.257,31.052 45.425,30.957 45.208,30.895 C45.003,30.895 44.798,30.895 44.593,30.895 C44.593,30.873 44.593,30.850 44.593,30.827 C44.456,30.827 44.320,30.827 44.183,30.827 C44.183,30.804 44.183,30.782 44.183,30.759 C44.069,30.759 43.956,30.759 43.842,30.759 C43.842,30.736 43.842,30.713 43.842,30.691 C43.751,30.691 43.660,30.691 43.569,30.691 C43.569,30.668 43.569,30.645 43.569,30.622 C43.478,30.622 43.387,30.622 43.295,30.622 C43.295,30.600 43.295,30.577 43.295,30.554 C43.227,30.554 43.159,30.554 43.091,30.554 C43.091,30.531 43.091,30.509 43.091,30.486 C43.022,30.486 42.954,30.486 42.886,30.486 C42.886,30.463 42.886,30.440 42.886,30.418 C42.817,30.418 42.749,30.418 42.681,30.418 C42.681,30.395 42.681,30.372 42.681,30.349 C42.635,30.349 42.590,30.349 42.544,30.349 C42.544,30.327 42.544,30.304 42.544,30.281 C42.476,30.281 42.408,30.281 42.339,30.281 C42.339,30.258 42.339,30.235 42.339,30.213 C42.248,30.190 42.157,30.167 42.066,30.144 C42.066,30.122 42.066,30.099 42.066,30.076 C41.998,30.076 41.930,30.076 41.861,30.076 C41.861,30.053 41.861,30.031 41.861,30.008 C41.816,30.008 41.770,30.008 41.725,30.008 C41.725,29.985 41.725,29.962 41.725,29.940 C41.679,29.940 41.634,29.940 41.588,29.940 C41.565,29.894 41.543,29.849 41.520,29.803 C41.383,29.758 41.247,29.712 41.110,29.667 C41.110,29.644 41.110,29.621 41.110,29.598 C41.042,29.576 40.974,29.553 40.905,29.530 C40.883,29.484 40.860,29.439 40.837,29.393 C40.792,29.393 40.746,29.393 40.700,29.393 C40.678,29.348 40.655,29.302 40.632,29.257 C40.587,29.257 40.541,29.257 40.496,29.257 C40.450,29.189 40.405,29.120 40.359,29.052 C40.314,29.052 40.268,29.052 40.222,29.052 C40.177,28.984 40.131,28.916 40.086,28.847 C40.040,28.847 39.995,28.847 39.949,28.847 C39.927,28.802 39.904,28.756 39.881,28.711 C39.716,28.555 39.502,28.299 39.266,28.233 C39.266,28.187 39.266,28.142 39.266,28.096 C38.869,27.857 38.645,27.448 38.379,27.072 C38.310,27.027 38.242,26.981 38.174,26.936 C38.174,26.890 38.174,26.845 38.174,26.799 C38.128,26.776 38.083,26.754 38.037,26.731 C38.037,26.685 38.037,26.640 38.037,26.594 C37.992,26.572 37.946,26.549 37.901,26.526 C37.901,26.481 37.901,26.435 37.901,26.389 C37.855,26.367 37.810,26.344 37.764,26.321 C37.764,26.276 37.764,26.230 37.764,26.185 C37.719,26.162 37.673,26.139 37.627,26.116 C37.627,26.071 37.627,26.025 37.627,25.980 C37.605,25.980 37.582,25.980 37.559,25.980 C37.559,25.934 37.559,25.889 37.559,25.843 C37.536,25.843 37.514,25.843 37.491,25.843 C37.491,25.798 37.491,25.752 37.491,25.707 C37.468,25.707 37.445,25.707 37.423,25.707 C37.423,25.661 37.423,25.616 37.423,25.570 C37.400,25.570 37.377,25.570 37.354,25.570 C37.354,25.525 37.354,25.479 37.354,25.434 C36.805,24.405 36.341,23.177 36.193,21.747 C31.596,21.747 26.997,21.747 22.399,21.747 C22.377,23.391 23.154,24.352 24.106,25.024 C24.152,25.092 24.197,25.161 24.243,25.229 C24.334,25.252 24.425,25.274 24.516,25.297 C24.516,25.320 24.516,25.343 24.516,25.365 C24.652,25.411 24.789,25.456 24.926,25.502 C24.926,25.525 24.926,25.547 24.926,25.570 C24.994,25.570 25.062,25.570 25.130,25.570 C25.130,25.593 25.130,25.616 25.130,25.638 C25.199,25.638 25.267,25.638 25.335,25.638 C25.335,25.661 25.335,25.684 25.335,25.707 C25.426,25.707 25.517,25.707 25.609,25.707 C25.609,25.729 25.609,25.752 25.609,25.775 C25.791,25.775 25.973,25.775 26.155,25.775 C26.155,25.798 26.155,25.821 26.155,25.843 C26.337,25.843 26.519,25.843 26.701,25.843 C26.701,25.821 26.701,25.798 26.701,25.775 C26.952,25.775 27.202,25.775 27.452,25.775 C27.452,25.752 27.452,25.729 27.452,25.707 C27.566,25.707 27.680,25.707 27.794,25.707 C27.794,25.684 27.794,25.661 27.794,25.638 C27.885,25.638 27.976,25.638 28.067,25.638 C28.067,25.616 28.067,25.593 28.067,25.570 C28.112,25.570 28.158,25.570 28.204,25.570 C28.204,25.547 28.204,25.525 28.204,25.502 C28.272,25.502 28.340,25.502 28.408,25.502 C28.431,25.456 28.454,25.411 28.477,25.365 C28.568,25.343 28.659,25.320 28.750,25.297 C28.750,25.274 28.750,25.252 28.750,25.229 C28.891,25.115 28.957,25.013 29.160,24.956 C29.224,24.709 29.362,24.700 29.501,24.546 C29.583,24.455 29.665,24.190 29.774,24.136 C30.320,24.136 30.867,24.136 31.413,24.136 C33.120,24.136 34.828,24.136 36.535,24.136 C36.437,24.645 36.134,25.035 35.920,25.434 C35.875,25.570 35.829,25.707 35.784,25.843 C35.761,25.843 35.738,25.843 35.715,25.843 C35.693,25.912 35.670,25.980 35.647,26.048 C35.602,26.071 35.556,26.094 35.510,26.116 C35.488,26.207 35.465,26.298 35.442,26.389 C35.397,26.412 35.351,26.435 35.306,26.458 C35.306,26.503 35.306,26.549 35.306,26.594 C35.237,26.640 35.169,26.685 35.101,26.731 C35.101,26.776 35.101,26.822 35.101,26.867 C35.032,26.913 34.964,26.958 34.896,27.004 C34.896,27.049 34.896,27.095 34.896,27.140 C34.805,27.209 34.714,27.277 34.623,27.345 C34.623,27.391 34.623,27.436 34.623,27.482 C34.395,27.687 34.167,27.891 33.940,28.096 C33.826,28.233 33.712,28.369 33.598,28.506 C33.553,28.506 33.507,28.506 33.462,28.506 C33.394,28.597 33.325,28.688 33.257,28.779 C33.189,28.802 33.120,28.825 33.052,28.847 C33.029,28.893 33.007,28.938 32.984,28.984 C32.938,28.984 32.893,28.984 32.847,28.984 C32.824,29.029 32.802,29.075 32.779,29.120 C32.711,29.143 32.642,29.166 32.574,29.189 C32.574,29.211 32.574,29.234 32.574,29.257 C32.529,29.257 32.483,29.257 32.437,29.257 C32.415,29.302 32.392,29.348 32.369,29.393 C32.233,29.439 32.096,29.484 31.959,29.530 C31.937,29.576 31.914,29.621 31.891,29.667 C31.345,29.894 30.798,30.122 30.252,30.349 C29.638,30.486 29.023,30.622 28.408,30.759 C28.249,30.759 28.090,30.759 27.930,30.759 C27.930,30.782 27.930,30.804 27.930,30.827 C27.202,30.850 26.473,30.873 25.745,30.895 C25.745,30.873 25.745,30.850 25.745,30.827 C25.313,30.804 24.880,30.782 24.448,30.759 C23.788,30.600 23.127,30.440 22.467,30.281 C22.467,30.258 22.467,30.235 22.467,30.213 C22.422,30.213 22.376,30.213 22.331,30.213 C22.331,30.190 22.331,30.167 22.331,30.144 C22.194,30.122 22.057,30.099 21.921,30.076 C21.921,30.053 21.921,30.031 21.921,30.008 C21.830,29.985 21.739,29.962 21.648,29.940 C21.648,29.917 21.648,29.894 21.648,29.871 C21.602,29.871 21.557,29.871 21.511,29.871 C21.511,29.849 21.511,29.826 21.511,29.803 C21.443,29.803 21.375,29.803 21.306,29.803 C21.306,29.780 21.306,29.758 21.306,29.735 C21.261,29.735 21.215,29.735 21.170,29.735 C21.170,29.712 21.170,29.689 21.170,29.667 C21.124,29.667 21.079,29.667 21.033,29.667 C21.010,29.621 20.988,29.576 20.965,29.530 C20.919,29.530 20.874,29.530 20.828,29.530 C20.828,29.507 20.828,29.484 20.828,29.462 C20.783,29.462 20.737,29.462 20.692,29.462 C20.692,29.439 20.692,29.416 20.692,29.393 C20.646,29.393 20.601,29.393 20.555,29.393 C20.555,29.371 20.555,29.348 20.555,29.325 C20.510,29.325 20.464,29.325 20.419,29.325 C20.396,29.280 20.373,29.234 20.350,29.189 C20.305,29.189 20.259,29.189 20.214,29.189 C20.191,29.143 20.168,29.098 20.145,29.052 C20.100,29.052 20.054,29.052 20.009,29.052 C19.986,29.007 19.963,28.961 19.941,28.916 C19.895,28.916 19.849,28.916 19.804,28.916 C19.781,28.870 19.758,28.825 19.736,28.779 C19.690,28.779 19.645,28.779 19.599,28.779 C19.531,28.688 19.462,28.597 19.394,28.506 C19.349,28.506 19.303,28.506 19.258,28.506 C19.167,28.392 19.075,28.278 18.984,28.165 C18.939,28.165 18.893,28.165 18.848,28.165 C18.689,27.983 18.529,27.800 18.370,27.618 C18.279,27.550 18.188,27.482 18.097,27.414 C18.097,27.368 18.097,27.323 18.097,27.277 C17.983,27.186 17.869,27.095 17.755,27.004 C17.755,26.958 17.755,26.913 17.755,26.867 C17.687,26.822 17.619,26.776 17.550,26.731 C17.528,26.663 17.505,26.594 17.482,26.526 C17.437,26.503 17.391,26.480 17.346,26.458 C17.004,25.843 16.663,25.229 16.321,24.614 C16.321,24.546 16.321,24.478 16.321,24.410 C16.298,24.410 16.276,24.410 16.253,24.410 C16.253,24.364 16.253,24.319 16.253,24.273 C16.230,24.273 16.207,24.273 16.185,24.273 C16.185,24.205 16.185,24.136 16.185,24.068 C16.162,24.068 16.139,24.068 16.116,24.068 C16.116,24.000 16.116,23.932 16.116,23.863 C16.094,23.863 16.071,23.863 16.048,23.863 C16.048,23.795 16.048,23.727 16.048,23.659 C16.025,23.659 16.002,23.659 15.980,23.659 C15.980,23.590 15.980,23.522 15.980,23.454 C15.957,23.454 15.934,23.454 15.911,23.454 C15.911,23.363 15.911,23.272 15.911,23.181 C15.889,23.181 15.866,23.181 15.843,23.181 C15.843,23.090 15.843,22.999 15.843,22.908 C15.820,22.908 15.798,22.908 15.775,22.908 C15.775,22.817 15.775,22.726 15.775,22.634 C15.752,22.634 15.729,22.634 15.707,22.634 C15.707,22.498 15.707,22.361 15.707,22.225 C15.684,22.225 15.661,22.225 15.638,22.225 C15.638,22.066 15.638,21.906 15.638,21.747 C15.616,21.747 15.593,21.747 15.570,21.747 C15.570,21.519 15.570,21.292 15.570,21.064 C15.498,20.807 15.402,19.780 15.502,19.426 C15.615,18.720 15.729,18.015 15.843,17.309 C13.226,17.309 10.607,17.309 7.990,17.309 C7.990,21.496 7.990,25.684 7.990,29.871 C5.327,29.871 2.663,29.871 -0.000,29.871 C-0.000,19.927 -0.000,9.980 -0.000,0.036 ZM75.187,11.028 C75.187,13.122 75.187,15.216 75.187,17.309 C72.023,17.309 68.858,17.309 65.694,17.309 C65.694,19.266 65.694,21.224 65.694,23.181 C68.858,23.181 72.023,23.181 75.187,23.181 C75.187,25.388 75.187,27.596 75.187,29.803 C75.232,29.803 75.278,29.803 75.323,29.803 C75.505,29.576 75.687,29.348 75.870,29.120 C75.938,29.075 76.006,29.029 76.074,28.984 C76.074,28.938 76.074,28.893 76.074,28.847 C76.097,28.847 76.120,28.847 76.143,28.847 C76.188,28.779 76.234,28.711 76.279,28.642 C76.393,28.551 76.507,28.460 76.621,28.369 C76.621,28.324 76.621,28.278 76.621,28.233 C76.803,28.074 76.985,27.914 77.167,27.755 C77.167,27.709 77.167,27.664 77.167,27.618 C77.258,27.550 77.349,27.482 77.440,27.414 C77.508,27.323 77.577,27.231 77.645,27.140 C77.668,27.140 77.691,27.140 77.713,27.140 C77.713,27.095 77.713,27.049 77.713,27.004 C77.895,26.845 78.078,26.685 78.260,26.526 C78.260,26.481 78.260,26.435 78.260,26.389 C78.442,26.230 78.624,26.071 78.806,25.912 C78.806,25.866 78.806,25.821 78.806,25.775 C78.988,25.616 79.170,25.456 79.352,25.297 C80.042,24.345 80.916,23.588 81.606,22.634 C81.788,22.475 81.970,22.316 82.152,22.157 C82.152,22.111 82.152,22.066 82.152,22.020 C82.334,21.861 82.516,21.701 82.698,21.542 C82.698,21.497 82.698,21.451 82.698,21.406 C82.881,21.246 83.063,21.087 83.245,20.928 C83.245,20.882 83.245,20.837 83.245,20.791 C83.268,20.791 83.290,20.791 83.313,20.791 C83.427,20.655 83.541,20.518 83.654,20.381 C83.563,20.313 83.472,20.245 83.381,20.177 C83.381,20.131 83.381,20.086 83.381,20.040 C83.199,19.881 83.017,19.722 82.835,19.562 C82.835,19.517 82.835,19.471 82.835,19.426 C82.653,19.266 82.471,19.107 82.289,18.948 C82.289,18.902 82.289,18.857 82.289,18.811 C82.107,18.652 81.924,18.493 81.742,18.333 C81.742,18.288 81.742,18.242 81.742,18.197 C81.651,18.128 81.560,18.060 81.469,17.992 C81.401,17.901 81.333,17.810 81.264,17.719 C81.242,17.719 81.219,17.719 81.196,17.719 C81.196,17.673 81.196,17.628 81.196,17.582 C81.014,17.423 80.832,17.264 80.650,17.104 C80.650,17.059 80.650,17.013 80.650,16.968 C80.445,16.786 80.240,16.604 80.035,16.422 C79.364,15.494 78.521,14.755 77.850,13.827 C77.668,13.668 77.486,13.509 77.304,13.349 C77.304,13.304 77.304,13.258 77.304,13.213 C77.121,13.054 76.939,12.894 76.757,12.735 C76.757,12.689 76.757,12.644 76.757,12.598 C76.643,12.507 76.530,12.416 76.416,12.325 C76.370,12.257 76.325,12.189 76.279,12.121 C76.256,12.121 76.234,12.121 76.211,12.121 C76.211,12.075 76.211,12.029 76.211,11.984 C76.074,11.870 75.938,11.756 75.801,11.643 C75.586,11.421 75.544,11.125 75.187,11.028 ZM22.604,17.446 C25.107,17.446 27.612,17.446 30.116,17.446 C29.830,15.805 28.844,14.845 27.384,14.374 C27.247,14.374 27.111,14.374 26.974,14.374 C26.974,14.351 26.974,14.328 26.974,14.305 C26.528,14.180 25.678,14.350 25.404,14.442 C25.313,14.442 25.222,14.442 25.130,14.442 C25.130,14.465 25.130,14.487 25.130,14.510 C25.085,14.510 25.039,14.510 24.994,14.510 C24.994,14.533 24.994,14.556 24.994,14.578 C24.789,14.647 24.584,14.715 24.379,14.783 C24.357,14.829 24.334,14.874 24.311,14.920 C24.265,14.920 24.220,14.920 24.174,14.920 C24.129,14.988 24.083,15.056 24.038,15.125 C23.992,15.125 23.947,15.125 23.901,15.125 C23.856,15.193 23.810,15.261 23.765,15.329 C23.651,15.420 23.537,15.511 23.423,15.602 C23.423,15.648 23.423,15.693 23.423,15.739 C23.355,15.784 23.287,15.830 23.218,15.875 C23.218,15.921 23.218,15.967 23.218,16.012 C23.173,16.035 23.127,16.058 23.082,16.080 C23.082,16.126 23.082,16.171 23.082,16.217 C23.059,16.217 23.036,16.217 23.014,16.217 C23.014,16.262 23.014,16.308 23.014,16.353 C22.991,16.353 22.968,16.353 22.945,16.353 C22.945,16.399 22.945,16.444 22.945,16.490 C22.922,16.490 22.900,16.490 22.877,16.490 C22.786,16.809 22.695,17.127 22.604,17.446 ZM50.124,24.341 C50.207,24.045 50.341,24.108 50.466,23.932 C50.466,23.886 50.466,23.841 50.466,23.795 C50.511,23.772 50.557,23.750 50.602,23.727 C50.602,23.681 50.602,23.636 50.602,23.590 C50.648,23.568 50.693,23.545 50.739,23.522 C50.762,23.431 50.785,23.340 50.807,23.249 C50.830,23.249 50.853,23.249 50.876,23.249 C50.898,23.158 50.921,23.067 50.944,22.976 C50.967,22.976 50.989,22.976 51.012,22.976 C51.035,22.862 51.058,22.748 51.080,22.634 C51.103,22.634 51.126,22.634 51.149,22.634 C51.149,22.543 51.149,22.452 51.149,22.361 C51.172,22.361 51.194,22.361 51.217,22.361 C51.217,22.293 51.217,22.225 51.217,22.157 C51.240,22.157 51.263,22.157 51.285,22.157 C51.285,22.043 51.285,21.929 51.285,21.815 C51.308,21.815 51.331,21.815 51.354,21.815 C51.354,21.701 51.354,21.588 51.354,21.474 C51.376,21.474 51.399,21.474 51.422,21.474 C51.519,21.137 51.425,19.607 51.354,19.357 C51.354,19.198 51.354,19.039 51.354,18.879 C51.331,18.879 51.308,18.879 51.285,18.879 C51.285,18.788 51.285,18.697 51.285,18.606 C51.263,18.606 51.240,18.606 51.217,18.606 C51.217,18.515 51.217,18.424 51.217,18.333 C51.194,18.333 51.172,18.333 51.149,18.333 C51.149,18.242 51.149,18.151 51.149,18.060 C51.126,18.060 51.103,18.060 51.080,18.060 C51.080,17.992 51.080,17.924 51.080,17.855 C51.058,17.855 51.035,17.855 51.012,17.855 C51.012,17.810 51.012,17.764 51.012,17.719 C50.989,17.719 50.967,17.719 50.944,17.719 C50.944,17.651 50.944,17.582 50.944,17.514 C50.921,17.514 50.898,17.514 50.876,17.514 C50.853,17.423 50.830,17.332 50.807,17.241 C50.785,17.241 50.762,17.241 50.739,17.241 C50.716,17.150 50.693,17.059 50.671,16.968 C50.648,16.968 50.625,16.968 50.602,16.968 C50.580,16.900 50.557,16.831 50.534,16.763 C50.489,16.740 50.443,16.718 50.398,16.695 C50.398,16.649 50.398,16.604 50.398,16.558 C50.215,16.399 50.033,16.240 49.851,16.080 C49.783,15.989 49.715,15.898 49.646,15.807 C49.601,15.807 49.555,15.807 49.510,15.807 C49.487,15.762 49.464,15.716 49.442,15.671 C49.237,15.602 49.032,15.534 48.827,15.466 C48.827,15.443 48.827,15.420 48.827,15.398 C48.781,15.398 48.736,15.398 48.690,15.398 C48.690,15.375 48.690,15.352 48.690,15.329 C48.599,15.329 48.508,15.329 48.417,15.329 C48.164,15.246 47.196,15.070 46.778,15.193 C46.778,15.216 46.778,15.238 46.778,15.261 C46.664,15.261 46.551,15.261 46.437,15.261 C46.437,15.284 46.437,15.307 46.437,15.329 C46.368,15.329 46.300,15.329 46.232,15.329 C46.232,15.352 46.232,15.375 46.232,15.398 C46.164,15.398 46.095,15.398 46.027,15.398 C46.027,15.420 46.027,15.443 46.027,15.466 C45.959,15.466 45.890,15.466 45.822,15.466 C45.822,15.489 45.822,15.511 45.822,15.534 C45.777,15.534 45.731,15.534 45.686,15.534 C45.686,15.557 45.686,15.580 45.686,15.602 C45.640,15.602 45.595,15.602 45.549,15.602 C44.375,16.337 43.809,17.422 43.364,18.879 C43.341,19.221 43.318,19.562 43.295,19.904 C43.137,20.478 43.276,21.272 43.432,21.747 C43.500,22.043 43.569,22.339 43.637,22.634 C43.660,22.634 43.682,22.634 43.705,22.634 C43.705,22.680 43.705,22.726 43.705,22.771 C43.728,22.771 43.751,22.771 43.773,22.771 C43.773,22.817 43.773,22.862 43.773,22.908 C43.796,22.908 43.819,22.908 43.842,22.908 C43.842,22.953 43.842,22.999 43.842,23.044 C43.865,23.044 43.887,23.044 43.910,23.044 C43.910,23.090 43.910,23.135 43.910,23.181 C43.933,23.181 43.956,23.181 43.978,23.181 C43.978,23.226 43.978,23.272 43.978,23.317 C44.024,23.340 44.069,23.363 44.115,23.385 C44.115,23.431 44.115,23.477 44.115,23.522 C44.160,23.545 44.206,23.568 44.252,23.590 C44.252,23.636 44.252,23.681 44.252,23.727 C44.320,23.772 44.388,23.818 44.456,23.863 C44.456,23.909 44.456,23.954 44.456,24.000 C44.593,24.114 44.730,24.228 44.866,24.341 C44.889,24.387 44.912,24.432 44.934,24.478 C44.980,24.478 45.025,24.478 45.071,24.478 C45.117,24.546 45.162,24.614 45.208,24.683 C45.253,24.683 45.299,24.683 45.344,24.683 C45.367,24.728 45.390,24.774 45.412,24.819 C45.503,24.842 45.595,24.865 45.686,24.887 C45.686,24.910 45.686,24.933 45.686,24.956 C45.777,24.979 45.868,25.001 45.959,25.024 C45.959,25.047 45.959,25.070 45.959,25.092 C46.027,25.092 46.095,25.092 46.164,25.092 C46.164,25.115 46.164,25.138 46.164,25.161 C46.911,25.453 48.087,25.361 48.759,25.092 C48.827,25.092 48.895,25.092 48.963,25.092 C48.963,25.070 48.963,25.047 48.963,25.024 C49.055,25.001 49.146,24.979 49.237,24.956 C49.237,24.933 49.237,24.910 49.237,24.887 C49.328,24.865 49.419,24.842 49.510,24.819 C49.533,24.774 49.555,24.728 49.578,24.683 C49.624,24.683 49.669,24.683 49.715,24.683 C49.891,24.558 49.828,24.425 50.124,24.341 Z"/>
</svg>