<svg 
 xmlns="http://www.w3.org/2000/svg"
 xmlns:xlink="http://www.w3.org/1999/xlink"
 width="108px" height="30px">
<path fill-rule="evenodd"  fill="rgb(229, 229, 229)"
 d="M0.174,23.371 C0.156,23.316 0.138,23.262 0.120,23.207 C0.102,23.207 0.084,23.207 0.066,23.207 C0.066,23.153 0.066,23.098 0.066,23.043 C0.048,23.043 0.030,23.043 0.012,23.043 C-0.043,22.869 0.087,22.392 0.120,22.279 C0.120,22.170 0.120,22.061 0.120,21.952 C0.240,21.549 0.273,20.990 0.390,20.588 C0.390,20.461 0.390,20.333 0.390,20.206 C0.605,19.473 0.605,18.539 0.822,17.805 C0.948,16.877 1.074,15.949 1.200,15.022 C1.218,15.022 1.236,15.022 1.254,15.022 C1.254,14.913 1.254,14.804 1.254,14.694 C1.272,14.694 1.290,14.694 1.308,14.694 C1.308,14.585 1.308,14.476 1.308,14.367 C1.326,14.367 1.344,14.367 1.362,14.367 C1.362,14.240 1.362,14.112 1.362,13.985 C1.380,13.985 1.398,13.985 1.416,13.985 C1.416,13.876 1.416,13.767 1.416,13.658 C1.434,13.658 1.452,13.658 1.470,13.658 C1.470,13.548 1.470,13.439 1.470,13.330 C1.488,13.330 1.506,13.330 1.524,13.330 C1.524,13.203 1.524,13.076 1.524,12.948 C1.738,12.217 1.744,11.279 1.956,10.547 C1.992,10.202 2.028,9.856 2.064,9.510 C2.082,9.510 2.100,9.510 2.118,9.510 C2.118,9.383 2.118,9.256 2.118,9.128 C2.236,8.726 2.269,8.168 2.388,7.764 C2.406,7.528 2.424,7.291 2.442,7.055 C2.560,6.653 2.593,6.095 2.712,5.691 C2.730,5.454 2.748,5.218 2.766,4.981 C3.046,4.022 3.026,2.834 3.306,1.871 C3.306,1.762 3.306,1.652 3.306,1.543 C3.324,1.543 3.342,1.543 3.360,1.543 C3.360,1.434 3.360,1.325 3.360,1.216 C3.378,1.216 3.396,1.216 3.414,1.216 C3.414,1.107 3.414,0.998 3.414,0.888 C3.432,0.888 3.450,0.888 3.468,0.888 C3.468,0.834 3.468,0.779 3.468,0.725 C3.486,0.725 3.504,0.725 3.522,0.725 C3.522,0.688 3.522,0.652 3.522,0.616 C3.558,0.597 3.594,0.579 3.630,0.561 C3.630,0.525 3.630,0.488 3.630,0.452 C3.702,0.397 3.774,0.343 3.846,0.288 C3.846,0.270 3.846,0.252 3.846,0.234 C4.175,0.001 4.634,0.015 5.197,0.015 C5.989,0.015 6.781,0.015 7.573,0.015 C9.175,0.015 10.778,0.015 12.380,0.015 C13.088,0.015 13.921,-0.038 14.486,0.124 C14.630,0.124 14.774,0.124 14.918,0.124 C15.174,0.199 15.537,0.261 15.783,0.343 C15.855,0.343 15.927,0.343 15.999,0.343 C15.999,0.361 15.999,0.379 15.999,0.397 C16.125,0.416 16.251,0.434 16.377,0.452 C16.377,0.470 16.377,0.488 16.377,0.506 C16.431,0.506 16.485,0.506 16.539,0.506 C16.539,0.525 16.539,0.543 16.539,0.561 C16.593,0.561 16.647,0.561 16.701,0.561 C16.701,0.579 16.701,0.597 16.701,0.616 C16.737,0.616 16.773,0.616 16.809,0.616 C16.809,0.634 16.809,0.652 16.809,0.670 C16.863,0.670 16.917,0.670 16.971,0.670 C16.971,0.688 16.971,0.707 16.971,0.725 C17.007,0.725 17.043,0.725 17.079,0.725 C17.079,0.743 17.079,0.761 17.079,0.779 C17.133,0.779 17.187,0.779 17.241,0.779 C17.241,0.798 17.241,0.816 17.241,0.834 C17.349,0.870 17.457,0.907 17.565,0.943 C17.565,0.961 17.565,0.979 17.565,0.998 C17.637,1.016 17.709,1.034 17.781,1.052 C17.799,1.089 17.817,1.125 17.835,1.161 C17.871,1.161 17.907,1.161 17.943,1.161 C17.943,1.179 17.943,1.198 17.943,1.216 C17.997,1.234 18.051,1.252 18.105,1.270 C18.123,1.307 18.141,1.343 18.159,1.380 C18.195,1.380 18.231,1.380 18.267,1.380 C18.303,1.434 18.339,1.489 18.375,1.543 C18.411,1.543 18.447,1.543 18.483,1.543 C18.555,1.634 18.627,1.725 18.699,1.816 C18.861,1.962 19.023,2.107 19.185,2.253 C19.185,2.289 19.185,2.325 19.185,2.362 C19.239,2.398 19.293,2.435 19.347,2.471 C19.347,2.507 19.347,2.544 19.347,2.580 C19.383,2.598 19.419,2.616 19.455,2.635 C19.455,2.671 19.455,2.707 19.455,2.744 C19.491,2.762 19.527,2.780 19.563,2.798 C19.581,2.871 19.599,2.944 19.617,3.017 C19.635,3.017 19.653,3.017 19.671,3.017 C19.671,3.053 19.671,3.089 19.671,3.126 C19.689,3.126 19.707,3.126 19.725,3.126 C19.761,3.235 19.797,3.344 19.833,3.453 C19.851,3.453 19.869,3.453 19.887,3.453 C20.469,4.799 20.393,7.204 19.941,8.637 C19.941,8.728 19.941,8.819 19.941,8.910 C19.923,8.910 19.905,8.910 19.887,8.910 C19.887,8.983 19.887,9.056 19.887,9.128 C19.869,9.128 19.851,9.128 19.833,9.128 C19.833,9.183 19.833,9.238 19.833,9.292 C19.815,9.292 19.797,9.292 19.779,9.292 C19.779,9.365 19.779,9.438 19.779,9.510 C19.761,9.510 19.743,9.510 19.725,9.510 C19.689,9.674 19.653,9.838 19.617,10.001 C19.599,10.001 19.581,10.001 19.563,10.001 C19.563,10.038 19.563,10.074 19.563,10.111 C19.545,10.111 19.527,10.111 19.509,10.111 C19.491,10.220 19.473,10.329 19.455,10.438 C19.437,10.438 19.419,10.438 19.401,10.438 C19.401,10.474 19.401,10.511 19.401,10.547 C19.383,10.547 19.365,10.547 19.347,10.547 C19.329,10.638 19.311,10.729 19.293,10.820 C19.275,10.820 19.257,10.820 19.239,10.820 C19.203,10.929 19.167,11.038 19.131,11.147 C19.113,11.147 19.095,11.147 19.077,11.147 C19.077,11.184 19.077,11.220 19.077,11.257 C19.059,11.257 19.041,11.257 19.023,11.257 C18.987,11.366 18.951,11.475 18.915,11.584 C18.879,11.602 18.843,11.620 18.807,11.639 C18.789,11.711 18.771,11.784 18.753,11.857 C18.717,11.875 18.681,11.893 18.645,11.911 C18.645,11.948 18.645,11.984 18.645,12.021 C18.627,12.021 18.609,12.021 18.591,12.021 C18.573,12.075 18.555,12.130 18.537,12.184 C18.501,12.202 18.465,12.221 18.429,12.239 C18.429,12.275 18.429,12.312 18.429,12.348 C18.393,12.366 18.357,12.384 18.321,12.403 C18.303,12.457 18.285,12.512 18.267,12.566 C18.177,12.639 18.087,12.712 17.997,12.784 C17.165,13.948 15.788,14.714 14.324,15.240 C14.252,15.240 14.180,15.240 14.108,15.240 C14.108,15.258 14.108,15.276 14.108,15.295 C14.054,15.295 14.000,15.295 13.946,15.295 C13.946,15.313 13.946,15.331 13.946,15.349 C13.874,15.349 13.802,15.349 13.730,15.349 C13.730,15.367 13.730,15.386 13.730,15.404 C13.640,15.404 13.550,15.404 13.460,15.404 C12.462,15.714 11.133,15.731 9.842,15.731 C8.986,15.731 7.715,15.577 7.195,15.949 C7.177,15.986 7.159,16.022 7.141,16.059 C7.087,16.095 7.033,16.131 6.979,16.168 C6.943,16.277 6.907,16.386 6.871,16.495 C6.853,16.495 6.835,16.495 6.817,16.495 C6.817,16.568 6.817,16.641 6.817,16.713 C6.799,16.713 6.781,16.713 6.763,16.713 C6.763,16.841 6.763,16.968 6.763,17.095 C6.745,17.095 6.727,17.095 6.709,17.095 C6.709,17.205 6.709,17.314 6.709,17.423 C6.691,17.423 6.673,17.423 6.655,17.423 C6.655,17.532 6.655,17.641 6.655,17.750 C6.637,17.750 6.619,17.750 6.601,17.750 C6.601,17.878 6.601,18.005 6.601,18.132 C6.583,18.132 6.565,18.132 6.547,18.132 C6.547,18.241 6.547,18.351 6.547,18.460 C6.331,19.194 6.327,20.126 6.115,20.861 C6.097,21.097 6.079,21.334 6.061,21.570 C6.043,21.570 6.025,21.570 6.007,21.570 C6.007,21.679 6.007,21.788 6.007,21.898 C5.989,21.898 5.971,21.898 5.953,21.898 C5.953,22.025 5.953,22.152 5.953,22.279 C5.935,22.279 5.917,22.279 5.899,22.279 C5.899,22.389 5.899,22.498 5.899,22.607 C5.881,22.607 5.863,22.607 5.845,22.607 C5.845,22.680 5.845,22.752 5.845,22.825 C5.827,22.825 5.809,22.825 5.791,22.825 C5.791,22.862 5.791,22.898 5.791,22.934 C5.773,22.934 5.755,22.934 5.737,22.934 C5.737,22.971 5.737,23.007 5.737,23.043 C5.665,23.098 5.593,23.153 5.521,23.207 C5.418,23.311 5.425,23.379 5.251,23.425 C5.034,23.644 4.343,23.589 3.900,23.589 C2.802,23.589 1.704,23.589 0.606,23.589 C0.454,23.539 0.341,23.415 0.174,23.371 ZM64.229,0.015 C66.263,0.015 68.298,0.015 70.332,0.015 C71.466,0.015 72.600,0.015 73.734,0.015 C73.734,0.034 73.734,0.052 73.734,0.070 C73.951,0.070 74.167,0.070 74.383,0.070 C74.383,0.088 74.383,0.106 74.383,0.124 C74.527,0.124 74.671,0.124 74.815,0.124 C74.815,0.143 74.815,0.161 74.815,0.179 C74.923,0.179 75.031,0.179 75.139,0.179 C75.139,0.197 75.139,0.215 75.139,0.234 C75.229,0.234 75.319,0.234 75.409,0.234 C75.409,0.252 75.409,0.270 75.409,0.288 C75.499,0.288 75.589,0.288 75.679,0.288 C76.129,0.434 76.579,0.579 77.029,0.725 C77.029,0.743 77.029,0.761 77.029,0.779 C77.137,0.816 77.245,0.852 77.353,0.888 C77.353,0.907 77.353,0.925 77.353,0.943 C77.461,0.979 77.569,1.016 77.677,1.052 C77.677,1.070 77.677,1.089 77.677,1.107 C77.731,1.125 77.785,1.143 77.839,1.161 C77.857,1.198 77.875,1.234 77.893,1.270 C77.929,1.270 77.965,1.270 78.001,1.270 C78.019,1.307 78.037,1.343 78.055,1.380 C78.091,1.380 78.127,1.380 78.163,1.380 C78.199,1.434 78.235,1.489 78.271,1.543 C78.307,1.543 78.343,1.543 78.379,1.543 C78.505,1.689 78.631,1.834 78.757,1.980 C78.883,2.089 79.009,2.198 79.135,2.307 C79.135,2.344 79.135,2.380 79.135,2.416 C79.171,2.435 79.207,2.453 79.243,2.471 C79.243,2.507 79.243,2.544 79.243,2.580 C79.279,2.598 79.315,2.616 79.351,2.635 C79.369,2.689 79.387,2.744 79.405,2.798 C79.423,2.798 79.441,2.798 79.459,2.798 C79.477,2.871 79.495,2.944 79.513,3.017 C79.531,3.017 79.549,3.017 79.567,3.017 C79.567,3.053 79.567,3.089 79.567,3.126 C79.585,3.126 79.603,3.126 79.621,3.126 C79.657,3.235 79.694,3.344 79.730,3.453 C79.748,3.453 79.766,3.453 79.784,3.453 C79.784,3.508 79.784,3.562 79.784,3.617 C79.802,3.617 79.820,3.617 79.838,3.617 C79.838,3.653 79.838,3.690 79.838,3.726 C79.856,3.726 79.874,3.726 79.892,3.726 C79.910,3.853 79.928,3.981 79.946,4.108 C79.964,4.108 79.982,4.108 80.000,4.108 C80.000,4.181 80.000,4.254 80.000,4.326 C80.018,4.326 80.036,4.326 80.054,4.326 C80.054,4.399 80.054,4.472 80.054,4.545 C80.072,4.545 80.090,4.545 80.108,4.545 C80.126,4.854 80.144,5.163 80.162,5.472 C80.216,5.670 80.294,6.228 80.216,6.509 C80.198,6.509 80.180,6.509 80.162,6.509 C80.162,6.709 80.162,6.909 80.162,7.109 C80.144,7.109 80.126,7.109 80.108,7.109 C80.108,7.255 80.108,7.400 80.108,7.546 C80.090,7.546 80.072,7.546 80.054,7.546 C80.054,7.655 80.054,7.764 80.054,7.873 C80.036,7.873 80.018,7.873 80.000,7.873 C80.000,7.964 80.000,8.055 80.000,8.146 C79.982,8.146 79.964,8.146 79.946,8.146 C79.946,8.237 79.946,8.328 79.946,8.419 C79.928,8.419 79.910,8.419 79.892,8.419 C79.892,8.510 79.892,8.601 79.892,8.692 C79.874,8.692 79.856,8.692 79.838,8.692 C79.838,8.765 79.838,8.837 79.838,8.910 C79.820,8.910 79.802,8.910 79.784,8.910 C79.784,8.983 79.784,9.056 79.784,9.128 C79.766,9.128 79.748,9.128 79.730,9.128 C79.730,9.183 79.730,9.238 79.730,9.292 C79.712,9.292 79.694,9.292 79.676,9.292 C79.676,9.365 79.676,9.438 79.676,9.510 C79.658,9.510 79.639,9.510 79.621,9.510 C79.621,9.565 79.621,9.619 79.621,9.674 C79.603,9.674 79.585,9.674 79.567,9.674 C79.567,9.729 79.567,9.783 79.567,9.838 C79.549,9.838 79.531,9.838 79.513,9.838 C79.513,9.892 79.513,9.947 79.513,10.001 C79.495,10.001 79.477,10.001 79.459,10.001 C79.459,10.056 79.459,10.111 79.459,10.165 C79.441,10.165 79.423,10.165 79.405,10.165 C79.405,10.202 79.405,10.238 79.405,10.274 C79.387,10.274 79.369,10.274 79.351,10.274 C79.351,10.329 79.351,10.383 79.351,10.438 C79.333,10.438 79.315,10.438 79.297,10.438 C79.297,10.474 79.297,10.511 79.297,10.547 C79.279,10.547 79.261,10.547 79.243,10.547 C79.243,10.602 79.243,10.656 79.243,10.711 C79.225,10.711 79.207,10.711 79.189,10.711 C79.153,10.820 79.117,10.929 79.081,11.038 C79.063,11.038 79.045,11.038 79.027,11.038 C79.027,11.075 79.027,11.111 79.027,11.147 C79.009,11.147 78.991,11.147 78.973,11.147 C78.973,11.184 78.973,11.220 78.973,11.257 C78.955,11.257 78.937,11.257 78.919,11.257 C78.919,11.293 78.919,11.329 78.919,11.366 C78.901,11.366 78.883,11.366 78.865,11.366 C78.865,11.402 78.865,11.438 78.865,11.475 C78.847,11.475 78.829,11.475 78.811,11.475 C78.811,11.511 78.811,11.548 78.811,11.584 C78.775,11.602 78.739,11.620 78.703,11.639 C78.685,11.711 78.667,11.784 78.649,11.857 C78.613,11.875 78.577,11.893 78.541,11.911 C78.541,11.948 78.541,11.984 78.541,12.021 C78.523,12.021 78.505,12.021 78.487,12.021 C78.469,12.075 78.451,12.130 78.433,12.184 C78.397,12.202 78.361,12.221 78.325,12.239 C78.325,12.275 78.325,12.312 78.325,12.348 C78.289,12.366 78.253,12.384 78.217,12.403 C78.199,12.457 78.181,12.512 78.163,12.566 C78.091,12.621 78.019,12.675 77.947,12.730 C77.176,13.813 75.993,14.516 74.707,15.076 C74.599,15.095 74.491,15.113 74.383,15.131 C74.383,15.149 74.383,15.167 74.383,15.186 C74.329,15.186 74.275,15.186 74.221,15.186 C74.221,15.204 74.221,15.222 74.221,15.240 C74.095,15.258 73.969,15.276 73.843,15.295 C73.843,15.313 73.843,15.331 73.843,15.349 C73.770,15.349 73.698,15.349 73.626,15.349 C73.626,15.367 73.626,15.386 73.626,15.404 C73.446,15.422 73.266,15.440 73.086,15.458 C73.086,15.477 73.086,15.495 73.086,15.513 C72.870,15.531 72.654,15.549 72.438,15.568 C72.438,15.586 72.438,15.604 72.438,15.622 C71.988,15.640 71.538,15.658 71.088,15.677 C70.510,15.840 69.457,15.731 68.766,15.731 C68.118,15.731 67.464,15.681 67.091,15.949 C67.055,16.004 67.019,16.059 66.983,16.113 C66.965,16.113 66.947,16.113 66.929,16.113 C66.929,16.150 66.929,16.186 66.929,16.222 C66.893,16.241 66.857,16.259 66.821,16.277 C66.803,16.350 66.785,16.422 66.767,16.495 C66.749,16.495 66.731,16.495 66.713,16.495 C66.713,16.586 66.713,16.677 66.713,16.768 C66.695,16.768 66.677,16.768 66.659,16.768 C66.659,16.877 66.659,16.986 66.659,17.095 C66.641,17.095 66.623,17.095 66.605,17.095 C66.605,17.205 66.605,17.314 66.605,17.423 C66.587,17.423 66.569,17.423 66.551,17.423 C66.551,17.550 66.551,17.678 66.551,17.805 C66.405,18.313 66.373,18.988 66.227,19.496 C66.227,19.624 66.227,19.751 66.227,19.878 C66.141,20.178 66.099,20.611 66.011,20.915 C66.011,21.024 66.011,21.134 66.011,21.243 C65.893,21.647 65.859,22.205 65.741,22.607 C65.741,22.716 65.741,22.825 65.741,22.934 C65.723,22.934 65.705,22.934 65.687,22.934 C65.669,23.025 65.651,23.116 65.633,23.207 C65.507,23.316 65.381,23.425 65.255,23.535 C64.943,23.666 64.214,23.589 63.797,23.589 C62.633,23.589 61.220,23.678 60.232,23.480 C60.138,23.326 59.967,23.229 59.908,23.043 C59.843,22.838 60.027,22.156 60.070,22.007 C60.088,21.770 60.106,21.534 60.124,21.297 C60.313,20.668 60.315,19.854 60.502,19.224 C60.556,18.769 60.610,18.314 60.664,17.859 C60.852,17.226 60.858,16.416 61.042,15.786 C61.042,15.658 61.042,15.531 61.042,15.404 C61.191,14.897 61.218,14.220 61.366,13.712 C61.366,13.585 61.366,13.457 61.366,13.330 C61.515,12.823 61.542,12.146 61.690,11.639 C61.690,11.511 61.690,11.384 61.690,11.257 C61.708,11.257 61.726,11.257 61.744,11.257 C61.744,11.147 61.744,11.038 61.744,10.929 C61.762,10.929 61.780,10.929 61.798,10.929 C61.798,10.820 61.798,10.711 61.798,10.602 C61.816,10.602 61.834,10.602 61.852,10.602 C61.852,10.474 61.852,10.347 61.852,10.220 C61.870,10.220 61.888,10.220 61.906,10.220 C61.906,10.111 61.906,10.001 61.906,9.892 C61.924,9.892 61.942,9.892 61.960,9.892 C61.960,9.783 61.960,9.674 61.960,9.565 C61.978,9.565 61.996,9.565 62.014,9.565 C62.014,9.438 62.014,9.310 62.014,9.183 C62.229,8.452 62.234,7.513 62.447,6.782 C62.483,6.436 62.519,6.091 62.555,5.745 C62.573,5.745 62.591,5.745 62.609,5.745 C62.627,5.509 62.645,5.272 62.663,5.036 C62.880,4.302 62.881,3.368 63.095,2.635 C63.113,2.398 63.131,2.162 63.149,1.925 C63.167,1.925 63.185,1.925 63.203,1.925 C63.257,1.525 63.311,1.125 63.365,0.725 C63.383,0.725 63.401,0.725 63.419,0.725 C63.419,0.688 63.419,0.652 63.419,0.616 C63.455,0.597 63.491,0.579 63.527,0.561 C63.527,0.525 63.527,0.488 63.527,0.452 C63.599,0.397 63.671,0.343 63.743,0.288 C63.743,0.270 63.743,0.252 63.743,0.234 C63.779,0.234 63.815,0.234 63.851,0.234 C63.869,0.197 63.887,0.161 63.905,0.124 C64.013,0.106 64.121,0.088 64.229,0.070 C64.229,0.052 64.229,0.034 64.229,0.015 ZM103.224,0.015 C104.646,0.015 106.068,0.015 107.490,0.015 C107.490,0.034 107.490,0.052 107.490,0.070 C107.562,0.088 107.634,0.106 107.706,0.124 C107.796,0.252 107.886,0.379 107.976,0.506 C108.058,0.736 107.909,1.186 107.868,1.325 C107.868,1.452 107.868,1.580 107.868,1.707 C107.719,2.214 107.693,2.891 107.544,3.399 C107.490,3.872 107.436,4.345 107.382,4.817 C107.166,5.550 107.168,6.484 106.950,7.218 C106.932,7.455 106.914,7.691 106.896,7.928 C106.747,8.435 106.720,9.112 106.572,9.619 C106.572,9.747 106.572,9.874 106.572,10.001 C106.423,10.509 106.396,11.185 106.248,11.693 C106.248,11.820 106.248,11.948 106.248,12.075 C106.160,12.374 106.121,12.807 106.032,13.112 C106.032,13.221 106.032,13.330 106.032,13.439 C106.014,13.439 105.996,13.439 105.978,13.439 C105.978,13.548 105.978,13.658 105.978,13.767 C105.960,13.767 105.942,13.767 105.924,13.767 C105.924,13.894 105.924,14.021 105.924,14.149 C105.906,14.149 105.888,14.149 105.870,14.149 C105.870,14.258 105.870,14.367 105.870,14.476 C105.852,14.476 105.834,14.476 105.816,14.476 C105.816,14.585 105.816,14.694 105.816,14.804 C105.798,14.804 105.780,14.804 105.762,14.804 C105.762,14.931 105.762,15.058 105.762,15.186 C105.517,16.022 105.520,17.077 105.276,17.914 C105.258,18.150 105.240,18.387 105.222,18.623 C105.004,19.357 105.003,20.291 104.790,21.024 C104.772,21.261 104.754,21.497 104.736,21.734 C104.718,21.734 104.700,21.734 104.682,21.734 C104.682,21.843 104.682,21.952 104.682,22.061 C104.664,22.061 104.646,22.061 104.628,22.061 C104.628,22.189 104.628,22.316 104.628,22.443 C104.574,22.625 104.520,22.807 104.466,22.989 C104.430,23.007 104.394,23.025 104.358,23.043 C104.358,23.080 104.358,23.116 104.358,23.153 C104.340,23.153 104.322,23.153 104.304,23.153 C104.268,23.207 104.232,23.262 104.196,23.316 C103.787,23.610 103.279,23.589 102.575,23.589 C101.579,23.589 100.377,23.650 99.551,23.480 C99.461,23.353 99.371,23.225 99.281,23.098 C99.190,22.841 99.344,22.326 99.389,22.170 C99.389,22.043 99.389,21.916 99.389,21.788 C99.507,21.386 99.541,20.829 99.659,20.424 C99.659,20.297 99.659,20.169 99.659,20.042 C99.777,19.640 99.809,19.082 99.929,18.678 C99.983,18.223 100.037,17.768 100.091,17.314 C100.109,17.314 100.127,17.314 100.145,17.314 C100.145,17.186 100.145,17.059 100.145,16.932 C100.163,16.932 100.181,16.932 100.199,16.932 C100.199,16.823 100.199,16.713 100.199,16.604 C100.217,16.604 100.235,16.604 100.253,16.604 C100.253,16.477 100.253,16.350 100.253,16.222 C100.499,15.386 100.495,14.331 100.739,13.494 C100.793,13.021 100.847,12.548 100.901,12.075 C100.919,12.075 100.937,12.075 100.955,12.075 C100.973,11.839 100.991,11.602 101.009,11.366 C101.224,10.633 101.224,9.699 101.441,8.965 C101.459,8.728 101.477,8.492 101.495,8.255 C101.679,7.628 101.688,6.811 101.873,6.182 C101.891,5.945 101.909,5.709 101.927,5.472 C102.076,4.965 102.104,4.288 102.251,3.781 C102.251,3.653 102.251,3.526 102.251,3.399 C102.269,3.399 102.287,3.399 102.305,3.399 C102.305,3.289 102.305,3.180 102.305,3.071 C102.323,3.071 102.341,3.071 102.359,3.071 C102.359,2.962 102.359,2.853 102.359,2.744 C102.377,2.744 102.395,2.744 102.413,2.744 C102.413,2.616 102.413,2.489 102.413,2.362 C102.532,1.957 102.567,1.400 102.683,0.998 C102.683,0.870 102.683,0.743 102.683,0.616 C102.701,0.616 102.719,0.616 102.737,0.616 C102.755,0.525 102.773,0.434 102.791,0.343 C102.881,0.270 102.972,0.197 103.062,0.124 C103.062,0.106 103.062,0.088 103.062,0.070 C103.116,0.070 103.170,0.070 103.224,0.070 C103.224,0.052 103.224,0.034 103.224,0.015 ZM7.681,10.984 C8.988,10.996 10.577,11.104 11.570,10.765 C11.750,10.729 11.930,10.693 12.110,10.656 C12.110,10.638 12.110,10.620 12.110,10.602 C12.182,10.584 12.254,10.565 12.326,10.547 C12.326,10.529 12.326,10.511 12.326,10.493 C12.398,10.474 12.470,10.456 12.542,10.438 C12.560,10.402 12.578,10.365 12.596,10.329 C12.632,10.329 12.668,10.329 12.704,10.329 C12.758,10.256 12.812,10.183 12.866,10.111 C12.902,10.111 12.938,10.111 12.974,10.111 C12.974,10.092 12.974,10.074 12.974,10.056 C13.028,10.020 13.082,9.983 13.136,9.947 C13.136,9.911 13.136,9.874 13.136,9.838 C13.208,9.783 13.280,9.729 13.352,9.674 C13.370,9.601 13.388,9.529 13.406,9.456 C13.442,9.438 13.478,9.419 13.514,9.401 C13.514,9.365 13.514,9.328 13.514,9.292 C13.532,9.292 13.550,9.292 13.568,9.292 C13.568,9.256 13.568,9.219 13.568,9.183 C13.586,9.183 13.604,9.183 13.622,9.183 C13.622,9.128 13.622,9.074 13.622,9.019 C13.640,9.019 13.658,9.019 13.676,9.019 C13.676,8.983 13.676,8.946 13.676,8.910 C13.694,8.910 13.712,8.910 13.730,8.910 C13.730,8.856 13.730,8.801 13.730,8.746 C13.748,8.746 13.766,8.746 13.784,8.746 C13.784,8.692 13.784,8.637 13.784,8.583 C13.802,8.583 13.820,8.583 13.838,8.583 C13.838,8.510 13.838,8.437 13.838,8.364 C13.861,8.291 13.878,8.386 13.892,8.310 C14.002,7.733 14.068,6.935 13.892,6.400 C13.892,6.327 13.892,6.254 13.892,6.182 C13.874,6.182 13.856,6.182 13.838,6.182 C13.802,6.073 13.766,5.963 13.730,5.854 C13.712,5.854 13.694,5.854 13.676,5.854 C13.676,5.818 13.676,5.781 13.676,5.745 C13.622,5.709 13.568,5.672 13.514,5.636 C13.514,5.600 13.514,5.563 13.514,5.527 C13.478,5.509 13.442,5.490 13.406,5.472 C13.406,5.454 13.406,5.436 13.406,5.418 C13.370,5.418 13.334,5.418 13.298,5.418 C13.262,5.363 13.226,5.309 13.190,5.254 C13.154,5.254 13.118,5.254 13.082,5.254 C13.064,5.218 13.046,5.181 13.028,5.145 C12.956,5.127 12.884,5.108 12.812,5.090 C12.812,5.072 12.812,5.054 12.812,5.036 C12.434,4.945 12.056,4.854 11.678,4.763 C11.426,4.763 11.174,4.763 10.922,4.763 C10.592,4.671 10.043,4.708 9.625,4.708 C9.463,4.708 9.301,4.708 9.139,4.708 C9.139,4.726 9.139,4.745 9.139,4.763 C9.049,4.781 8.959,4.799 8.869,4.817 C8.815,4.890 8.761,4.963 8.707,5.036 C8.689,5.036 8.671,5.036 8.653,5.036 C8.635,5.127 8.617,5.218 8.599,5.309 C8.581,5.309 8.563,5.309 8.545,5.309 C8.473,5.891 8.401,6.473 8.329,7.055 C8.181,7.562 8.152,8.238 8.005,8.746 C8.005,8.874 8.005,9.001 8.005,9.128 C7.987,9.128 7.969,9.128 7.951,9.128 C7.951,9.237 7.951,9.347 7.951,9.456 C7.933,9.456 7.915,9.456 7.897,9.456 C7.897,9.565 7.897,9.674 7.897,9.783 C7.879,9.783 7.861,9.783 7.843,9.783 C7.843,9.911 7.843,10.038 7.843,10.165 C7.776,10.394 7.709,10.716 7.681,10.984 ZM67.577,10.984 C70.196,11.008 72.333,11.148 73.356,9.510 C73.356,9.474 73.356,9.438 73.356,9.401 C73.374,9.401 73.392,9.401 73.410,9.401 C73.446,9.292 73.482,9.183 73.518,9.074 C73.536,9.074 73.554,9.074 73.572,9.074 C73.608,8.910 73.644,8.746 73.680,8.583 C73.698,8.583 73.716,8.583 73.734,8.583 C73.734,8.510 73.734,8.437 73.734,8.364 C73.752,8.364 73.770,8.364 73.788,8.364 C73.788,8.273 73.788,8.182 73.788,8.092 C73.818,7.993 73.886,7.718 73.897,7.600 C74.044,5.919 73.365,5.257 72.222,4.872 C72.132,4.872 72.042,4.872 71.952,4.872 C71.952,4.854 71.952,4.836 71.952,4.817 C71.826,4.817 71.700,4.817 71.574,4.817 C71.574,4.799 71.574,4.781 71.574,4.763 C71.322,4.763 71.070,4.763 70.818,4.763 C70.489,4.671 69.940,4.708 69.522,4.708 C69.360,4.708 69.198,4.708 69.036,4.708 C69.036,4.726 69.036,4.745 69.036,4.763 C68.946,4.781 68.856,4.799 68.766,4.817 C68.676,4.927 68.586,5.036 68.496,5.145 C68.406,5.800 68.316,6.455 68.226,7.109 C68.208,7.109 68.190,7.109 68.172,7.109 C68.172,7.218 68.172,7.328 68.172,7.437 C68.154,7.437 68.136,7.437 68.118,7.437 C68.118,7.546 68.118,7.655 68.118,7.764 C68.100,7.764 68.082,7.764 68.064,7.764 C68.064,7.891 68.064,8.019 68.064,8.146 C68.046,8.146 68.028,8.146 68.010,8.146 C68.010,8.255 68.010,8.364 68.010,8.474 C67.992,8.474 67.973,8.474 67.955,8.474 C67.955,8.583 67.955,8.692 67.955,8.801 C67.937,8.801 67.919,8.801 67.901,8.801 C67.901,8.928 67.901,9.056 67.901,9.183 C67.744,9.721 67.687,10.409 67.577,10.984 ZM27.341,7.491 C28.942,7.463 30.262,7.557 31.337,8.037 C31.391,8.037 31.445,8.037 31.499,8.037 C31.499,8.055 31.499,8.073 31.499,8.092 C31.571,8.110 31.643,8.128 31.715,8.146 C31.715,8.164 31.715,8.183 31.715,8.201 C31.787,8.219 31.859,8.237 31.931,8.255 C31.931,8.273 31.931,8.292 31.931,8.310 C31.985,8.328 32.039,8.346 32.093,8.364 C32.111,8.401 32.129,8.437 32.147,8.474 C32.183,8.474 32.219,8.474 32.255,8.474 C32.309,8.546 32.363,8.619 32.417,8.692 C32.471,8.710 32.525,8.728 32.579,8.746 C32.597,8.801 32.615,8.856 32.633,8.910 C32.687,8.946 32.741,8.983 32.795,9.019 C32.886,9.115 33.085,9.423 33.120,9.565 C33.181,9.503 33.141,9.565 33.174,9.456 C33.192,9.456 33.210,9.456 33.228,9.456 C33.228,9.347 33.228,9.237 33.228,9.128 C33.246,9.128 33.264,9.128 33.282,9.128 C33.318,8.837 33.354,8.546 33.390,8.255 C33.426,8.237 33.462,8.219 33.498,8.201 C33.498,8.164 33.498,8.128 33.498,8.092 C33.516,8.092 33.534,8.092 33.552,8.092 C33.625,8.010 33.579,8.019 33.714,7.982 C33.882,7.788 34.503,7.873 34.848,7.873 C35.748,7.873 36.648,7.873 37.548,7.873 C38.035,7.873 38.342,7.822 38.574,8.092 C38.592,8.092 38.610,8.092 38.628,8.092 C38.628,8.128 38.628,8.164 38.628,8.201 C38.646,8.201 38.664,8.201 38.682,8.201 C38.682,8.237 38.682,8.273 38.682,8.310 C38.700,8.310 38.718,8.310 38.736,8.310 C38.736,8.364 38.736,8.419 38.736,8.474 C38.754,8.474 38.772,8.474 38.790,8.474 C38.820,8.592 38.736,8.637 38.736,8.637 C38.736,8.765 38.736,8.892 38.736,9.019 C38.718,9.019 38.700,9.019 38.682,9.019 C38.682,9.128 38.682,9.238 38.682,9.347 C38.664,9.347 38.646,9.347 38.628,9.347 C38.628,9.456 38.628,9.565 38.628,9.674 C38.610,9.674 38.592,9.674 38.574,9.674 C38.574,9.801 38.574,9.929 38.574,10.056 C38.556,10.056 38.538,10.056 38.520,10.056 C38.520,10.165 38.520,10.274 38.520,10.383 C38.502,10.383 38.484,10.383 38.466,10.383 C38.466,10.493 38.466,10.602 38.466,10.711 C38.448,10.711 38.430,10.711 38.412,10.711 C38.394,10.947 38.376,11.184 38.358,11.420 C38.238,11.824 38.206,12.382 38.088,12.784 C38.088,12.912 38.088,13.039 38.088,13.166 C37.939,13.674 37.912,14.350 37.764,14.858 C37.764,14.985 37.764,15.113 37.764,15.240 C37.746,15.240 37.728,15.240 37.710,15.240 C37.710,15.349 37.710,15.458 37.710,15.568 C37.692,15.568 37.674,15.568 37.656,15.568 C37.656,15.677 37.656,15.786 37.656,15.895 C37.638,15.895 37.620,15.895 37.602,15.895 C37.602,16.022 37.602,16.150 37.602,16.277 C37.584,16.277 37.566,16.277 37.548,16.277 C37.548,16.386 37.548,16.495 37.548,16.604 C37.530,16.604 37.512,16.604 37.494,16.604 C37.494,16.713 37.494,16.823 37.494,16.932 C37.476,16.932 37.458,16.932 37.440,16.932 C37.440,17.059 37.440,17.186 37.440,17.314 C37.195,18.150 37.198,19.205 36.954,20.042 C36.954,20.169 36.954,20.297 36.954,20.424 C36.709,21.262 36.752,22.958 36.144,23.371 C35.778,23.619 35.193,23.589 34.578,23.589 C33.557,23.589 32.434,23.588 31.499,23.535 C31.417,23.401 31.345,23.451 31.283,23.371 C31.283,23.334 31.283,23.298 31.283,23.262 C31.265,23.262 31.247,23.262 31.229,23.262 C31.177,23.195 31.191,23.156 31.121,23.098 C31.115,22.547 31.254,22.169 31.283,21.679 C31.265,21.679 31.247,21.679 31.229,21.679 C31.068,21.958 30.785,22.095 30.527,22.279 C30.491,22.334 30.455,22.389 30.419,22.443 C30.383,22.443 30.347,22.443 30.311,22.443 C30.275,22.498 30.239,22.552 30.203,22.607 C30.131,22.625 30.059,22.643 29.987,22.661 C29.969,22.698 29.951,22.734 29.933,22.771 C29.879,22.789 29.825,22.807 29.771,22.825 C29.771,22.843 29.771,22.862 29.771,22.880 C29.663,22.916 29.555,22.953 29.447,22.989 C29.447,23.007 29.447,23.025 29.447,23.043 C29.411,23.043 29.375,23.043 29.339,23.043 C29.339,23.062 29.339,23.080 29.339,23.098 C29.303,23.098 29.267,23.098 29.231,23.098 C29.231,23.116 29.231,23.134 29.231,23.153 C29.123,23.189 29.015,23.225 28.907,23.262 C28.907,23.280 28.907,23.298 28.907,23.316 C28.853,23.316 28.799,23.316 28.745,23.316 C28.745,23.334 28.745,23.353 28.745,23.371 C28.709,23.371 28.673,23.371 28.637,23.371 C28.637,23.389 28.637,23.407 28.637,23.425 C28.583,23.425 28.529,23.425 28.475,23.425 C28.475,23.444 28.475,23.462 28.475,23.480 C28.439,23.480 28.403,23.480 28.367,23.480 C28.367,23.498 28.367,23.516 28.367,23.535 C28.259,23.553 28.151,23.571 28.043,23.589 C28.043,23.607 28.043,23.626 28.043,23.644 C27.719,23.698 27.394,23.753 27.070,23.807 C27.070,23.826 27.070,23.844 27.070,23.862 C26.962,23.862 26.854,23.862 26.746,23.862 C26.746,23.880 26.746,23.898 26.746,23.917 C26.512,23.917 26.278,23.917 26.044,23.917 C26.044,23.935 26.044,23.953 26.044,23.971 C25.828,23.971 25.612,23.971 25.396,23.971 C25.396,23.953 25.396,23.935 25.396,23.917 C25.234,23.917 25.072,23.917 24.910,23.917 C24.586,23.880 24.262,23.844 23.938,23.807 C23.938,23.789 23.938,23.771 23.938,23.753 C23.866,23.753 23.794,23.753 23.722,23.753 C23.722,23.735 23.722,23.716 23.722,23.698 C23.650,23.698 23.578,23.698 23.506,23.698 C23.506,23.680 23.506,23.662 23.506,23.644 C23.452,23.644 23.398,23.644 23.344,23.644 C23.344,23.626 23.344,23.607 23.344,23.589 C23.272,23.589 23.200,23.589 23.128,23.589 C23.128,23.571 23.128,23.553 23.128,23.535 C23.092,23.535 23.056,23.535 23.020,23.535 C23.020,23.516 23.020,23.498 23.020,23.480 C22.966,23.480 22.912,23.480 22.858,23.480 C22.858,23.462 22.858,23.444 22.858,23.425 C22.822,23.425 22.786,23.425 22.750,23.425 C22.750,23.407 22.750,23.389 22.750,23.371 C22.696,23.371 22.642,23.371 22.588,23.371 C22.588,23.353 22.588,23.334 22.588,23.316 C22.480,23.280 22.372,23.244 22.264,23.207 C22.264,23.189 22.264,23.171 22.264,23.153 C22.192,23.134 22.120,23.116 22.048,23.098 C22.030,23.062 22.012,23.025 21.994,22.989 C21.958,22.989 21.922,22.989 21.886,22.989 C21.886,22.971 21.886,22.953 21.886,22.934 C21.832,22.916 21.778,22.898 21.724,22.880 C21.706,22.843 21.688,22.807 21.670,22.771 C21.634,22.771 21.598,22.771 21.562,22.771 C21.526,22.716 21.490,22.661 21.453,22.607 C21.417,22.607 21.381,22.607 21.345,22.607 C21.255,22.498 21.165,22.389 21.075,22.279 C20.913,22.134 20.751,21.988 20.589,21.843 C20.589,21.807 20.589,21.770 20.589,21.734 C20.535,21.697 20.481,21.661 20.427,21.625 C20.409,21.570 20.391,21.516 20.373,21.461 C20.337,21.443 20.301,21.425 20.265,21.406 C20.265,21.370 20.265,21.334 20.265,21.297 C20.229,21.279 20.193,21.261 20.157,21.243 C20.139,21.170 20.121,21.097 20.103,21.024 C20.067,21.006 20.031,20.988 19.995,20.970 C19.959,20.861 19.923,20.752 19.887,20.642 C19.869,20.642 19.851,20.642 19.833,20.642 C19.833,20.606 19.833,20.570 19.833,20.533 C19.815,20.533 19.797,20.533 19.779,20.533 C19.743,20.424 19.707,20.315 19.671,20.206 C19.653,20.206 19.635,20.206 19.617,20.206 C19.509,19.878 19.401,19.551 19.293,19.224 C19.293,19.151 19.293,19.078 19.293,19.005 C19.108,18.443 19.077,17.766 19.077,16.986 C19.077,16.713 19.077,16.441 19.077,16.168 C19.095,16.168 19.113,16.168 19.131,16.168 C19.131,16.022 19.131,15.877 19.131,15.731 C19.149,15.731 19.167,15.731 19.185,15.731 C19.185,15.622 19.185,15.513 19.185,15.404 C19.203,15.404 19.221,15.404 19.239,15.404 C19.257,15.222 19.275,15.040 19.293,14.858 C19.311,14.858 19.329,14.858 19.347,14.858 C19.347,14.785 19.347,14.713 19.347,14.640 C19.365,14.640 19.383,14.640 19.401,14.640 C19.419,14.513 19.437,14.385 19.455,14.258 C19.473,14.258 19.491,14.258 19.509,14.258 C19.509,14.203 19.509,14.149 19.509,14.094 C19.527,14.094 19.545,14.094 19.563,14.094 C19.563,14.040 19.563,13.985 19.563,13.930 C19.581,13.930 19.599,13.930 19.617,13.930 C19.635,13.821 19.653,13.712 19.671,13.603 C19.689,13.603 19.707,13.603 19.725,13.603 C19.725,13.567 19.725,13.530 19.725,13.494 C19.743,13.494 19.761,13.494 19.779,13.494 C19.779,13.439 19.779,13.385 19.779,13.330 C19.797,13.330 19.815,13.330 19.833,13.330 C19.833,13.294 19.833,13.257 19.833,13.221 C19.851,13.221 19.869,13.221 19.887,13.221 C19.887,13.166 19.887,13.112 19.887,13.057 C19.905,13.057 19.923,13.057 19.941,13.057 C19.977,12.948 20.013,12.839 20.049,12.730 C20.067,12.730 20.085,12.730 20.103,12.730 C20.103,12.694 20.103,12.657 20.103,12.621 C20.121,12.621 20.139,12.621 20.157,12.621 C20.157,12.584 20.157,12.548 20.157,12.512 C20.175,12.512 20.193,12.512 20.211,12.512 C20.247,12.403 20.283,12.293 20.319,12.184 C20.355,12.166 20.391,12.148 20.427,12.130 C20.445,12.057 20.463,11.984 20.481,11.911 C20.517,11.893 20.553,11.875 20.589,11.857 C20.607,11.784 20.625,11.711 20.643,11.639 C20.679,11.620 20.715,11.602 20.751,11.584 C20.751,11.548 20.751,11.511 20.751,11.475 C20.805,11.438 20.859,11.402 20.913,11.366 C20.913,11.329 20.913,11.293 20.913,11.257 C20.967,11.220 21.021,11.184 21.075,11.147 C21.075,11.111 21.075,11.075 21.075,11.038 C21.129,11.002 21.183,10.966 21.237,10.929 C21.237,10.893 21.237,10.856 21.237,10.820 C21.345,10.729 21.454,10.638 21.562,10.547 C21.562,10.511 21.562,10.474 21.562,10.438 C21.724,10.293 21.886,10.147 22.048,10.001 C22.102,9.929 22.156,9.856 22.210,9.783 C22.246,9.783 22.282,9.783 22.318,9.783 C22.408,9.674 22.498,9.565 22.588,9.456 C22.624,9.456 22.660,9.456 22.696,9.456 C22.732,9.401 22.768,9.347 22.804,9.292 C22.840,9.292 22.876,9.292 22.912,9.292 C22.948,9.238 22.984,9.183 23.020,9.128 C23.056,9.128 23.092,9.128 23.128,9.128 C23.146,9.092 23.164,9.056 23.182,9.019 C23.218,9.019 23.254,9.019 23.290,9.019 C23.308,8.983 23.326,8.946 23.344,8.910 C23.398,8.892 23.452,8.874 23.506,8.856 C23.506,8.837 23.506,8.819 23.506,8.801 C23.578,8.783 23.650,8.765 23.722,8.746 C23.740,8.710 23.758,8.674 23.776,8.637 C23.812,8.637 23.848,8.637 23.884,8.637 C23.884,8.619 23.884,8.601 23.884,8.583 C23.920,8.583 23.956,8.583 23.992,8.583 C23.992,8.564 23.992,8.546 23.992,8.528 C24.028,8.528 24.064,8.528 24.100,8.528 C24.100,8.510 24.100,8.492 24.100,8.474 C24.136,8.474 24.172,8.474 24.208,8.474 C24.208,8.455 24.208,8.437 24.208,8.419 C24.244,8.419 24.280,8.419 24.316,8.419 C24.316,8.401 24.316,8.383 24.316,8.364 C24.352,8.364 24.388,8.364 24.424,8.364 C24.424,8.346 24.424,8.328 24.424,8.310 C24.532,8.273 24.640,8.237 24.748,8.201 C24.748,8.183 24.748,8.164 24.748,8.146 C25.180,8.001 25.612,7.855 26.044,7.710 C26.134,7.710 26.224,7.710 26.314,7.710 C26.314,7.691 26.314,7.673 26.314,7.655 C26.404,7.655 26.494,7.655 26.584,7.655 C26.584,7.637 26.584,7.619 26.584,7.600 C26.692,7.600 26.800,7.600 26.908,7.600 C26.908,7.582 26.908,7.564 26.908,7.546 C27.052,7.546 27.197,7.546 27.341,7.546 C27.341,7.528 27.341,7.509 27.341,7.491 ZM93.124,9.510 C93.120,8.970 93.299,8.508 93.394,8.092 C93.493,8.037 93.618,7.910 93.718,7.873 C94.186,7.873 94.654,7.873 95.122,7.873 C96.192,7.873 97.525,7.789 98.417,7.982 C98.495,8.120 98.638,8.263 98.687,8.419 C98.738,8.583 98.609,8.973 98.579,9.074 C98.579,9.183 98.579,9.292 98.579,9.401 C98.488,9.705 98.450,10.139 98.363,10.438 C98.345,10.674 98.327,10.911 98.309,11.147 C98.156,11.658 98.133,12.331 97.985,12.839 C97.985,12.966 97.985,13.094 97.985,13.221 C97.967,13.221 97.949,13.221 97.931,13.221 C97.931,13.330 97.931,13.439 97.931,13.548 C97.913,13.548 97.895,13.548 97.877,13.548 C97.877,13.658 97.877,13.767 97.877,13.876 C97.859,13.876 97.841,13.876 97.823,13.876 C97.823,14.003 97.823,14.131 97.823,14.258 C97.805,14.258 97.787,14.258 97.769,14.258 C97.769,14.367 97.769,14.476 97.769,14.585 C97.751,14.585 97.733,14.585 97.715,14.585 C97.715,14.694 97.715,14.804 97.715,14.913 C97.697,14.913 97.679,14.913 97.661,14.913 C97.661,15.040 97.661,15.167 97.661,15.295 C97.415,16.131 97.418,17.186 97.175,18.023 C97.175,18.150 97.175,18.278 97.175,18.405 C97.057,18.807 97.024,19.365 96.904,19.769 C96.886,20.006 96.868,20.242 96.850,20.479 C96.702,20.986 96.674,21.663 96.526,22.170 C96.526,22.298 96.526,22.425 96.526,22.552 C96.508,22.552 96.490,22.552 96.472,22.552 C96.472,22.625 96.472,22.698 96.472,22.771 C96.454,22.771 96.436,22.771 96.418,22.771 C96.382,22.880 96.346,22.989 96.310,23.098 C96.238,23.153 96.166,23.207 96.094,23.262 C96.076,23.298 96.058,23.334 96.040,23.371 C95.674,23.619 95.090,23.589 94.474,23.589 C93.520,23.589 92.566,23.589 91.612,23.589 C91.460,23.539 91.347,23.415 91.179,23.371 C91.161,23.316 91.143,23.262 91.125,23.207 C91.107,23.207 91.089,23.207 91.071,23.207 C91.071,23.153 91.071,23.098 91.071,23.043 C91.053,23.043 91.035,23.043 91.017,23.043 C91.071,22.589 91.125,22.134 91.179,21.679 C91.161,21.679 91.143,21.679 91.125,21.679 C90.953,21.978 90.646,22.136 90.369,22.334 C90.333,22.389 90.297,22.443 90.261,22.498 C90.225,22.498 90.189,22.498 90.153,22.498 C90.135,22.534 90.117,22.571 90.099,22.607 C90.063,22.607 90.027,22.607 89.991,22.607 C89.973,22.643 89.955,22.680 89.937,22.716 C89.865,22.734 89.793,22.752 89.721,22.771 C89.703,22.807 89.685,22.843 89.667,22.880 C89.559,22.916 89.451,22.953 89.343,22.989 C89.343,23.007 89.343,23.025 89.343,23.043 C89.307,23.043 89.271,23.043 89.235,23.043 C89.235,23.062 89.235,23.080 89.235,23.098 C89.199,23.098 89.163,23.098 89.127,23.098 C89.127,23.116 89.127,23.134 89.127,23.153 C89.091,23.153 89.055,23.153 89.019,23.153 C89.019,23.171 89.019,23.189 89.019,23.207 C88.911,23.244 88.803,23.280 88.695,23.316 C88.695,23.334 88.695,23.353 88.695,23.371 C88.641,23.371 88.587,23.371 88.533,23.371 C88.533,23.389 88.533,23.407 88.533,23.425 C88.497,23.425 88.461,23.425 88.425,23.425 C88.425,23.444 88.425,23.462 88.425,23.480 C88.263,23.516 88.101,23.553 87.939,23.589 C87.939,23.607 87.939,23.626 87.939,23.644 C87.867,23.644 87.795,23.644 87.723,23.644 C87.723,23.662 87.723,23.680 87.723,23.698 C87.651,23.698 87.579,23.698 87.507,23.698 C87.507,23.716 87.507,23.735 87.507,23.753 C87.435,23.753 87.363,23.753 87.291,23.753 C87.291,23.771 87.291,23.789 87.291,23.807 C87.183,23.807 87.075,23.807 86.967,23.807 C86.967,23.826 86.967,23.844 86.967,23.862 C86.859,23.862 86.751,23.862 86.643,23.862 C86.643,23.880 86.643,23.898 86.643,23.917 C86.193,23.935 85.743,23.953 85.292,23.971 C85.292,23.953 85.292,23.935 85.292,23.917 C85.040,23.917 84.788,23.917 84.536,23.917 C84.536,23.898 84.536,23.880 84.536,23.862 C84.410,23.862 84.284,23.862 84.158,23.862 C84.158,23.844 84.158,23.826 84.158,23.807 C84.068,23.807 83.978,23.807 83.888,23.807 C83.888,23.789 83.888,23.771 83.888,23.753 C83.798,23.753 83.708,23.753 83.618,23.753 C82.307,23.332 81.262,22.804 80.540,21.788 C80.468,21.734 80.396,21.679 80.324,21.625 C80.324,21.588 80.324,21.552 80.324,21.516 C80.288,21.497 80.252,21.479 80.216,21.461 C80.198,21.406 80.180,21.352 80.162,21.297 C80.144,21.297 80.126,21.297 80.108,21.297 C80.108,21.261 80.108,21.224 80.108,21.188 C80.072,21.170 80.036,21.152 80.000,21.134 C80.000,21.097 80.000,21.061 80.000,21.024 C79.964,21.006 79.928,20.988 79.892,20.970 C79.874,20.897 79.856,20.824 79.838,20.752 C79.820,20.752 79.802,20.752 79.784,20.752 C79.784,20.715 79.784,20.679 79.784,20.642 C79.766,20.642 79.748,20.642 79.730,20.642 C79.694,20.533 79.657,20.424 79.621,20.315 C79.603,20.315 79.585,20.315 79.567,20.315 C79.567,20.260 79.567,20.206 79.567,20.151 C79.549,20.151 79.531,20.151 79.513,20.151 C79.513,20.115 79.513,20.079 79.513,20.042 C79.495,20.042 79.477,20.042 79.459,20.042 C79.441,19.933 79.423,19.824 79.405,19.715 C79.387,19.715 79.369,19.715 79.351,19.715 C79.351,19.660 79.351,19.606 79.351,19.551 C79.333,19.551 79.315,19.551 79.297,19.551 C79.297,19.496 79.297,19.442 79.297,19.387 C79.279,19.387 79.261,19.387 79.243,19.387 C79.243,19.333 79.243,19.278 79.243,19.224 C79.225,19.224 79.207,19.224 79.189,19.224 C79.189,19.133 79.189,19.042 79.189,18.951 C79.018,18.399 78.973,17.791 78.973,17.041 C78.973,16.786 78.973,16.532 78.973,16.277 C78.991,16.277 79.009,16.277 79.027,16.277 C79.045,16.004 79.063,15.731 79.081,15.458 C79.099,15.458 79.117,15.458 79.135,15.458 C79.135,15.367 79.135,15.276 79.135,15.186 C79.153,15.186 79.171,15.186 79.189,15.186 C79.189,15.095 79.189,15.004 79.189,14.913 C79.207,14.913 79.225,14.913 79.243,14.913 C79.243,14.840 79.243,14.767 79.243,14.694 C79.261,14.694 79.279,14.694 79.297,14.694 C79.297,14.622 79.297,14.549 79.297,14.476 C79.315,14.476 79.333,14.476 79.351,14.476 C79.351,14.422 79.351,14.367 79.351,14.312 C79.369,14.312 79.387,14.312 79.405,14.312 C79.441,14.131 79.477,13.949 79.513,13.767 C79.531,13.767 79.549,13.767 79.567,13.767 C79.567,13.730 79.567,13.694 79.567,13.658 C79.585,13.658 79.603,13.658 79.621,13.658 C79.621,13.603 79.621,13.548 79.621,13.494 C79.639,13.494 79.658,13.494 79.676,13.494 C79.676,13.458 79.676,13.421 79.676,13.385 C79.694,13.385 79.712,13.385 79.730,13.385 C79.730,13.330 79.730,13.276 79.730,13.221 C79.748,13.221 79.766,13.221 79.784,13.221 C79.802,13.148 79.820,13.076 79.838,13.003 C79.856,13.003 79.874,13.003 79.892,13.003 C79.892,12.948 79.892,12.894 79.892,12.839 C79.910,12.839 79.928,12.839 79.946,12.839 C79.982,12.730 80.018,12.621 80.054,12.512 C80.072,12.512 80.090,12.512 80.108,12.512 C80.126,12.439 80.144,12.366 80.162,12.293 C80.198,12.275 80.234,12.257 80.270,12.239 C80.288,12.166 80.306,12.093 80.324,12.021 C80.360,12.002 80.396,11.984 80.432,11.966 C80.432,11.930 80.432,11.893 80.432,11.857 C80.450,11.857 80.468,11.857 80.486,11.857 C80.486,11.820 80.486,11.784 80.486,11.748 C80.522,11.729 80.558,11.711 80.594,11.693 C80.594,11.657 80.594,11.620 80.594,11.584 C80.612,11.584 80.630,11.584 80.648,11.584 C80.666,11.529 80.684,11.475 80.702,11.420 C80.738,11.402 80.774,11.384 80.810,11.366 C80.810,11.329 80.810,11.293 80.810,11.257 C80.864,11.220 80.918,11.184 80.972,11.147 C80.972,11.111 80.972,11.075 80.972,11.038 C81.044,10.984 81.116,10.929 81.188,10.875 C81.188,10.838 81.188,10.802 81.188,10.765 C81.314,10.656 81.440,10.547 81.566,10.438 C81.566,10.402 81.566,10.365 81.566,10.329 C81.692,10.220 81.818,10.111 81.944,10.001 C81.962,9.965 81.980,9.929 81.998,9.892 C82.034,9.892 82.070,9.892 82.106,9.892 C82.214,9.765 82.322,9.638 82.430,9.510 C82.466,9.510 82.502,9.510 82.538,9.510 C82.592,9.438 82.646,9.365 82.700,9.292 C82.754,9.274 82.808,9.256 82.862,9.238 C82.880,9.201 82.898,9.165 82.916,9.128 C82.952,9.128 82.988,9.128 83.024,9.128 C83.042,9.092 83.060,9.056 83.078,9.019 C83.132,9.001 83.186,8.983 83.240,8.965 C83.240,8.946 83.240,8.928 83.240,8.910 C83.276,8.910 83.312,8.910 83.348,8.910 C83.366,8.874 83.384,8.837 83.402,8.801 C83.474,8.783 83.546,8.765 83.618,8.746 C83.636,8.710 83.654,8.674 83.672,8.637 C83.780,8.601 83.888,8.564 83.996,8.528 C83.996,8.510 83.996,8.492 83.996,8.474 C84.032,8.474 84.068,8.474 84.104,8.474 C84.104,8.455 84.104,8.437 84.104,8.419 C84.140,8.419 84.176,8.419 84.212,8.419 C84.212,8.401 84.212,8.383 84.212,8.364 C84.320,8.328 84.428,8.292 84.536,8.255 C84.536,8.237 84.536,8.219 84.536,8.201 C84.626,8.183 84.716,8.164 84.806,8.146 C84.806,8.128 84.806,8.110 84.806,8.092 C84.842,8.092 84.878,8.092 84.914,8.092 C84.914,8.073 84.914,8.055 84.914,8.037 C84.968,8.037 85.022,8.037 85.076,8.037 C85.076,8.019 85.076,8.001 85.076,7.982 C85.130,7.982 85.184,7.982 85.238,7.982 C85.238,7.964 85.238,7.946 85.238,7.928 C85.292,7.928 85.346,7.928 85.400,7.928 C85.400,7.910 85.400,7.891 85.400,7.873 C85.454,7.873 85.509,7.873 85.563,7.873 C85.563,7.855 85.563,7.837 85.563,7.819 C85.635,7.819 85.707,7.819 85.779,7.819 C86.598,7.528 88.522,7.296 89.559,7.600 C89.775,7.619 89.991,7.637 90.207,7.655 C90.207,7.673 90.207,7.691 90.207,7.710 C90.351,7.728 90.495,7.746 90.639,7.764 C90.639,7.782 90.639,7.801 90.639,7.819 C90.801,7.855 90.963,7.891 91.125,7.928 C91.125,7.946 91.125,7.964 91.125,7.982 C91.215,8.001 91.306,8.019 91.396,8.037 C91.396,8.055 91.396,8.073 91.396,8.092 C91.468,8.110 91.540,8.128 91.612,8.146 C91.612,8.164 91.612,8.183 91.612,8.201 C91.684,8.219 91.756,8.237 91.828,8.255 C91.846,8.292 91.864,8.328 91.882,8.364 C91.918,8.364 91.954,8.364 91.990,8.364 C92.008,8.401 92.026,8.437 92.044,8.474 C92.080,8.474 92.116,8.474 92.152,8.474 C92.206,8.546 92.260,8.619 92.314,8.692 C92.350,8.692 92.386,8.692 92.422,8.692 C92.476,8.765 92.530,8.837 92.584,8.910 C92.602,8.910 92.620,8.910 92.638,8.910 C92.638,8.946 92.638,8.983 92.638,9.019 C92.692,9.056 92.746,9.092 92.800,9.128 C92.800,9.165 92.800,9.201 92.800,9.238 C92.854,9.274 92.908,9.310 92.962,9.347 C92.980,9.401 92.998,9.456 93.016,9.510 C93.052,9.510 93.088,9.510 93.124,9.510 ZM46.298,8.201 C46.316,8.255 46.334,8.310 46.352,8.364 C46.370,8.364 46.388,8.364 46.406,8.364 C46.406,8.401 46.406,8.437 46.406,8.474 C46.442,8.492 46.478,8.510 46.514,8.528 C46.550,8.710 46.586,8.892 46.622,9.074 C46.640,9.074 46.658,9.074 46.676,9.074 C46.676,9.128 46.676,9.183 46.676,9.238 C46.694,9.238 46.712,9.238 46.730,9.238 C46.730,9.292 46.730,9.347 46.730,9.401 C46.748,9.401 46.766,9.401 46.784,9.401 C46.820,9.583 46.856,9.765 46.892,9.947 C46.910,9.947 46.928,9.947 46.946,9.947 C46.946,10.020 46.946,10.092 46.946,10.165 C46.964,10.165 46.982,10.165 47.000,10.165 C47.000,10.220 47.000,10.274 47.000,10.329 C47.018,10.329 47.036,10.329 47.054,10.329 C47.054,10.383 47.054,10.438 47.054,10.493 C47.072,10.493 47.090,10.493 47.108,10.493 C47.108,10.565 47.108,10.638 47.108,10.711 C47.524,11.860 47.830,13.162 48.242,14.312 C48.242,14.385 48.242,14.458 48.242,14.531 C48.260,14.531 48.278,14.531 48.296,14.531 C48.296,14.585 48.296,14.640 48.296,14.694 C48.314,14.694 48.332,14.694 48.350,14.694 C48.350,14.749 48.350,14.804 48.350,14.858 C48.368,14.858 48.386,14.858 48.404,14.858 C48.440,15.040 48.476,15.222 48.512,15.404 C48.530,15.404 48.548,15.404 48.566,15.404 C48.602,15.586 48.638,15.768 48.674,15.949 C48.692,15.949 48.710,15.949 48.728,15.949 C48.728,16.022 48.728,16.095 48.728,16.168 C48.746,16.168 48.764,16.168 48.782,16.168 C48.782,16.222 48.782,16.277 48.782,16.331 C48.800,16.331 48.818,16.331 48.836,16.331 C48.854,16.441 48.872,16.550 48.890,16.659 C48.908,16.659 48.926,16.659 48.944,16.659 C48.944,16.623 48.944,16.586 48.944,16.550 C49.148,16.420 49.188,16.207 49.322,16.004 C49.358,15.986 49.394,15.968 49.430,15.949 C49.430,15.913 49.430,15.877 49.430,15.840 C49.466,15.822 49.502,15.804 49.538,15.786 C49.538,15.749 49.538,15.713 49.538,15.677 C49.556,15.677 49.574,15.677 49.592,15.677 C49.610,15.622 49.628,15.568 49.646,15.513 C49.682,15.495 49.718,15.477 49.754,15.458 C49.754,15.422 49.754,15.386 49.754,15.349 C49.790,15.331 49.826,15.313 49.862,15.295 C49.862,15.258 49.862,15.222 49.862,15.186 C49.916,15.149 49.970,15.113 50.024,15.076 C50.024,15.040 50.024,15.004 50.024,14.967 C50.060,14.949 50.096,14.931 50.132,14.913 C50.150,14.858 50.168,14.804 50.186,14.749 C50.204,14.749 50.222,14.749 50.240,14.749 C50.240,14.713 50.240,14.676 50.240,14.640 C50.276,14.622 50.312,14.603 50.348,14.585 C50.348,14.549 50.348,14.513 50.348,14.476 C50.384,14.458 50.420,14.440 50.456,14.422 C50.456,14.385 50.456,14.349 50.456,14.312 C50.492,14.294 50.529,14.276 50.565,14.258 C50.565,14.221 50.565,14.185 50.565,14.149 C50.583,14.149 50.601,14.149 50.619,14.149 C50.637,14.094 50.655,14.040 50.673,13.985 C50.709,13.967 50.745,13.949 50.781,13.930 C50.781,13.894 50.781,13.858 50.781,13.821 C50.817,13.803 50.853,13.785 50.889,13.767 C50.889,13.730 50.889,13.694 50.889,13.658 C50.943,13.621 50.997,13.585 51.051,13.548 C51.051,13.512 51.051,13.476 51.051,13.439 C51.087,13.421 51.123,13.403 51.159,13.385 C51.177,13.330 51.195,13.276 51.213,13.221 C51.231,13.221 51.249,13.221 51.267,13.221 C51.267,13.185 51.267,13.148 51.267,13.112 C51.303,13.094 51.339,13.076 51.375,13.057 C51.375,13.021 51.375,12.985 51.375,12.948 C51.411,12.930 51.447,12.912 51.483,12.894 C51.483,12.857 51.483,12.821 51.483,12.784 C51.519,12.766 51.555,12.748 51.591,12.730 C51.591,12.694 51.591,12.657 51.591,12.621 C51.609,12.621 51.627,12.621 51.645,12.621 C51.663,12.566 51.681,12.512 51.699,12.457 C51.735,12.439 51.771,12.421 51.807,12.403 C51.807,12.366 51.807,12.330 51.807,12.293 C51.861,12.257 51.915,12.221 51.969,12.184 C51.969,12.148 51.969,12.111 51.969,12.075 C52.005,12.057 52.041,12.039 52.077,12.021 C52.095,11.966 52.113,11.911 52.131,11.857 C52.149,11.857 52.167,11.857 52.185,11.857 C52.185,11.820 52.185,11.784 52.185,11.748 C52.221,11.729 52.257,11.711 52.293,11.693 C52.293,11.657 52.293,11.620 52.293,11.584 C52.329,11.566 52.365,11.548 52.401,11.529 C52.401,11.493 52.401,11.457 52.401,11.420 C52.437,11.402 52.473,11.384 52.509,11.366 C52.509,11.329 52.509,11.293 52.509,11.257 C52.545,11.238 52.581,11.220 52.617,11.202 C52.617,11.166 52.617,11.129 52.617,11.093 C52.635,11.093 52.653,11.093 52.671,11.093 C52.689,11.038 52.707,10.984 52.725,10.929 C52.761,10.911 52.797,10.893 52.833,10.875 C52.833,10.838 52.833,10.802 52.833,10.765 C52.887,10.729 52.941,10.693 52.995,10.656 C52.995,10.620 52.995,10.584 52.995,10.547 C53.031,10.529 53.067,10.511 53.103,10.493 C53.103,10.456 53.103,10.420 53.103,10.383 C53.139,10.365 53.175,10.347 53.211,10.329 C53.211,10.293 53.211,10.256 53.211,10.220 C53.229,10.220 53.247,10.220 53.265,10.220 C53.283,10.165 53.301,10.111 53.319,10.056 C53.355,10.038 53.391,10.020 53.427,10.001 C53.427,9.965 53.427,9.929 53.427,9.892 C53.463,9.874 53.499,9.856 53.535,9.838 C53.535,9.801 53.535,9.765 53.535,9.729 C53.553,9.729 53.571,9.729 53.589,9.729 C53.607,9.674 53.625,9.619 53.643,9.565 C53.679,9.547 53.715,9.529 53.751,9.510 C53.751,9.474 53.751,9.438 53.751,9.401 C53.805,9.365 53.859,9.328 53.913,9.292 C53.913,9.256 53.913,9.219 53.913,9.183 C53.949,9.165 53.985,9.147 54.021,9.128 C54.021,9.092 54.021,9.056 54.021,9.019 C54.057,9.001 54.093,8.983 54.129,8.965 C54.129,8.928 54.129,8.892 54.129,8.856 C54.147,8.856 54.165,8.856 54.183,8.856 C54.201,8.801 54.219,8.746 54.237,8.692 C54.273,8.674 54.309,8.655 54.345,8.637 C54.345,8.601 54.345,8.564 54.345,8.528 C54.381,8.510 54.417,8.492 54.453,8.474 C54.453,8.437 54.453,8.401 54.453,8.364 C54.489,8.346 54.525,8.328 54.561,8.310 C54.633,8.219 54.705,8.128 54.777,8.037 C54.849,8.019 54.921,8.001 54.993,7.982 C54.993,7.964 54.993,7.946 54.993,7.928 C55.266,7.809 55.768,7.873 56.127,7.873 C56.956,7.873 57.784,7.873 58.612,7.873 C58.866,7.873 59.619,7.815 59.746,7.928 C59.910,7.967 59.998,8.072 60.070,8.201 C60.191,8.319 60.183,8.554 60.178,8.801 C60.072,8.898 60.133,8.921 60.070,9.019 C60.034,9.037 59.998,9.056 59.962,9.074 C59.962,9.110 59.962,9.147 59.962,9.183 C59.908,9.219 59.854,9.256 59.800,9.292 C59.800,9.328 59.800,9.365 59.800,9.401 C59.764,9.419 59.728,9.438 59.692,9.456 C59.692,9.492 59.692,9.529 59.692,9.565 C59.674,9.565 59.656,9.565 59.638,9.565 C59.620,9.619 59.602,9.674 59.584,9.729 C59.548,9.747 59.512,9.765 59.476,9.783 C59.476,9.820 59.476,9.856 59.476,9.892 C59.422,9.929 59.368,9.965 59.314,10.001 C59.314,10.038 59.314,10.074 59.314,10.111 C59.278,10.129 59.242,10.147 59.206,10.165 C59.206,10.202 59.206,10.238 59.206,10.274 C59.188,10.274 59.170,10.274 59.152,10.274 C59.134,10.329 59.116,10.383 59.098,10.438 C59.062,10.456 59.026,10.474 58.990,10.493 C58.990,10.529 58.990,10.565 58.990,10.602 C58.936,10.638 58.882,10.674 58.828,10.711 C58.828,10.747 58.828,10.784 58.828,10.820 C58.792,10.838 58.756,10.856 58.720,10.875 C58.720,10.911 58.720,10.947 58.720,10.984 C58.702,10.984 58.684,10.984 58.666,10.984 C58.648,11.038 58.630,11.093 58.612,11.147 C58.576,11.166 58.540,11.184 58.504,11.202 C58.504,11.238 58.504,11.275 58.504,11.311 C58.450,11.348 58.396,11.384 58.342,11.420 C58.342,11.457 58.342,11.493 58.342,11.529 C58.306,11.548 58.270,11.566 58.234,11.584 C58.234,11.620 58.234,11.657 58.234,11.693 C58.216,11.693 58.198,11.693 58.180,11.693 C58.162,11.748 58.144,11.802 58.126,11.857 C58.090,11.875 58.054,11.893 58.018,11.911 C58.018,11.948 58.018,11.984 58.018,12.021 C57.964,12.057 57.910,12.093 57.856,12.130 C57.856,12.166 57.856,12.202 57.856,12.239 C57.820,12.257 57.784,12.275 57.748,12.293 C57.748,12.330 57.748,12.366 57.748,12.403 C57.730,12.403 57.712,12.403 57.694,12.403 C57.676,12.457 57.658,12.512 57.640,12.566 C57.604,12.584 57.568,12.603 57.532,12.621 C57.532,12.657 57.532,12.694 57.532,12.730 C57.478,12.766 57.424,12.803 57.370,12.839 C57.370,12.875 57.370,12.912 57.370,12.948 C57.352,12.948 57.334,12.948 57.316,12.948 C57.298,13.003 57.280,13.057 57.262,13.112 C57.226,13.130 57.190,13.148 57.154,13.166 C57.154,13.203 57.154,13.239 57.154,13.276 C57.100,13.312 57.046,13.348 56.992,13.385 C56.992,13.421 56.992,13.458 56.992,13.494 C56.956,13.512 56.920,13.530 56.884,13.548 C56.884,13.585 56.884,13.621 56.884,13.658 C56.866,13.658 56.848,13.658 56.830,13.658 C56.812,13.712 56.794,13.767 56.776,13.821 C56.740,13.839 56.704,13.858 56.668,13.876 C56.668,13.912 56.668,13.949 56.668,13.985 C56.614,14.021 56.560,14.058 56.506,14.094 C56.506,14.131 56.506,14.167 56.506,14.203 C56.470,14.221 56.434,14.240 56.398,14.258 C56.398,14.294 56.398,14.331 56.398,14.367 C56.380,14.367 56.361,14.367 56.343,14.367 C56.325,14.422 56.307,14.476 56.289,14.531 C56.253,14.549 56.217,14.567 56.181,14.585 C56.181,14.622 56.181,14.658 56.181,14.694 C56.127,14.731 56.073,14.767 56.019,14.804 C56.019,14.840 56.019,14.876 56.019,14.913 C55.983,14.931 55.947,14.949 55.911,14.967 C55.893,15.022 55.875,15.076 55.857,15.131 C55.839,15.131 55.821,15.131 55.803,15.131 C55.803,15.167 55.803,15.204 55.803,15.240 C55.767,15.258 55.731,15.276 55.695,15.295 C55.695,15.331 55.695,15.367 55.695,15.404 C55.641,15.440 55.587,15.477 55.533,15.513 C55.533,15.549 55.533,15.586 55.533,15.622 C55.497,15.640 55.461,15.658 55.425,15.677 C55.425,15.713 55.425,15.749 55.425,15.786 C55.407,15.786 55.389,15.786 55.371,15.786 C55.353,15.840 55.335,15.895 55.317,15.949 C55.281,15.968 55.245,15.986 55.209,16.004 C55.209,16.040 55.209,16.077 55.209,16.113 C55.155,16.150 55.101,16.186 55.047,16.222 C55.047,16.259 55.047,16.295 55.047,16.331 C55.011,16.350 54.975,16.368 54.939,16.386 C54.939,16.422 54.939,16.459 54.939,16.495 C54.921,16.495 54.903,16.495 54.885,16.495 C54.867,16.550 54.849,16.604 54.831,16.659 C54.795,16.677 54.759,16.695 54.723,16.713 C54.723,16.750 54.723,16.786 54.723,16.823 C54.669,16.859 54.615,16.895 54.561,16.932 C54.561,16.968 54.561,17.004 54.561,17.041 C54.525,17.059 54.489,17.077 54.453,17.095 C54.453,17.132 54.453,17.168 54.453,17.205 C54.435,17.205 54.417,17.205 54.399,17.205 C54.381,17.259 54.363,17.314 54.345,17.368 C54.309,17.386 54.273,17.405 54.237,17.423 C54.237,17.459 54.237,17.496 54.237,17.532 C54.183,17.568 54.129,17.605 54.075,17.641 C54.075,17.678 54.075,17.714 54.075,17.750 C54.057,17.750 54.039,17.750 54.021,17.750 C54.003,17.805 53.985,17.859 53.967,17.914 C53.931,17.932 53.895,17.950 53.859,17.969 C53.859,18.005 53.859,18.041 53.859,18.078 C53.805,18.114 53.751,18.150 53.697,18.187 C53.697,18.223 53.697,18.260 53.697,18.296 C53.661,18.314 53.625,18.332 53.589,18.351 C53.589,18.387 53.589,18.423 53.589,18.460 C53.571,18.460 53.553,18.460 53.535,18.460 C53.517,18.514 53.499,18.569 53.481,18.623 C53.445,18.642 53.409,18.660 53.373,18.678 C53.373,18.714 53.373,18.751 53.373,18.787 C53.319,18.823 53.265,18.860 53.211,18.896 C53.211,18.933 53.211,18.969 53.211,19.005 C53.175,19.024 53.139,19.042 53.103,19.060 C53.103,19.096 53.103,19.133 53.103,19.169 C53.085,19.169 53.067,19.169 53.049,19.169 C53.031,19.224 53.013,19.278 52.995,19.333 C52.959,19.351 52.923,19.369 52.887,19.387 C52.887,19.424 52.887,19.460 52.887,19.496 C52.833,19.533 52.779,19.569 52.725,19.606 C52.725,19.642 52.725,19.678 52.725,19.715 C52.689,19.733 52.653,19.751 52.617,19.769 C52.617,19.806 52.617,19.842 52.617,19.878 C52.599,19.878 52.581,19.878 52.563,19.878 C52.545,19.933 52.527,19.988 52.509,20.042 C52.473,20.060 52.437,20.079 52.401,20.097 C52.401,20.133 52.401,20.169 52.401,20.206 C52.347,20.242 52.293,20.279 52.239,20.315 C52.239,20.351 52.239,20.388 52.239,20.424 C52.203,20.442 52.167,20.461 52.131,20.479 C52.131,20.515 52.131,20.551 52.131,20.588 C52.113,20.588 52.095,20.588 52.077,20.588 C52.059,20.642 52.041,20.697 52.023,20.752 C51.987,20.770 51.951,20.788 51.915,20.806 C51.915,20.843 51.915,20.879 51.915,20.915 C51.861,20.952 51.807,20.988 51.753,21.024 C51.753,21.061 51.753,21.097 51.753,21.134 C51.717,21.152 51.681,21.170 51.645,21.188 C51.645,21.224 51.645,21.261 51.645,21.297 C51.627,21.297 51.609,21.297 51.591,21.297 C51.573,21.352 51.555,21.406 51.537,21.461 C51.501,21.479 51.465,21.497 51.429,21.516 C51.429,21.552 51.429,21.588 51.429,21.625 C51.375,21.661 51.321,21.697 51.267,21.734 C51.267,21.770 51.267,21.807 51.267,21.843 C51.231,21.861 51.195,21.879 51.159,21.898 C51.159,21.934 51.159,21.970 51.159,22.007 C51.141,22.007 51.123,22.007 51.105,22.007 C51.087,22.061 51.069,22.116 51.051,22.170 C51.015,22.189 50.979,22.207 50.943,22.225 C50.943,22.261 50.943,22.298 50.943,22.334 C50.889,22.370 50.835,22.407 50.781,22.443 C50.781,22.480 50.781,22.516 50.781,22.552 C50.763,22.552 50.745,22.552 50.727,22.552 C50.709,22.607 50.691,22.661 50.673,22.716 C50.637,22.734 50.601,22.752 50.565,22.771 C50.565,22.807 50.565,22.843 50.565,22.880 C50.510,22.916 50.456,22.953 50.402,22.989 C50.402,23.025 50.402,23.062 50.402,23.098 C50.366,23.116 50.330,23.134 50.294,23.153 C50.294,23.189 50.294,23.225 50.294,23.262 C50.276,23.262 50.258,23.262 50.240,23.262 C50.222,23.316 50.204,23.371 50.186,23.425 C50.150,23.444 50.114,23.462 50.078,23.480 C50.078,23.516 50.078,23.553 50.078,23.589 C50.024,23.626 49.970,23.662 49.916,23.698 C49.916,23.735 49.916,23.771 49.916,23.807 C49.880,23.826 49.844,23.844 49.808,23.862 C49.808,23.898 49.808,23.935 49.808,23.971 C49.790,23.971 49.772,23.971 49.754,23.971 C49.736,24.026 49.718,24.080 49.700,24.135 C49.664,24.153 49.628,24.171 49.592,24.189 C49.592,24.226 49.592,24.262 49.592,24.299 C49.538,24.335 49.484,24.371 49.430,24.408 C49.430,24.444 49.430,24.480 49.430,24.517 C49.394,24.535 49.358,24.553 49.322,24.571 C49.322,24.608 49.322,24.644 49.322,24.681 C49.304,24.681 49.286,24.681 49.268,24.681 C49.250,24.735 49.232,24.790 49.214,24.844 C49.178,24.862 49.142,24.881 49.106,24.899 C49.106,24.935 49.106,24.972 49.106,25.008 C49.052,25.044 48.998,25.081 48.944,25.117 C48.944,25.153 48.944,25.190 48.944,25.226 C48.908,25.244 48.872,25.263 48.836,25.281 C48.836,25.317 48.836,25.354 48.836,25.390 C48.818,25.390 48.800,25.390 48.782,25.390 C48.764,25.444 48.746,25.499 48.728,25.554 C48.692,25.572 48.656,25.590 48.620,25.608 C48.620,25.645 48.620,25.681 48.620,25.717 C48.566,25.754 48.512,25.790 48.458,25.826 C48.458,25.863 48.458,25.899 48.458,25.936 C48.422,25.954 48.386,25.972 48.350,25.990 C48.350,26.027 48.350,26.063 48.350,26.099 C48.332,26.099 48.314,26.099 48.296,26.099 C48.278,26.154 48.260,26.208 48.242,26.263 C48.206,26.281 48.170,26.299 48.134,26.318 C48.134,26.354 48.134,26.390 48.134,26.427 C48.080,26.463 48.026,26.499 47.972,26.536 C47.972,26.572 47.972,26.609 47.972,26.645 C47.936,26.663 47.900,26.681 47.864,26.700 C47.864,26.736 47.864,26.772 47.864,26.809 C47.846,26.809 47.828,26.809 47.810,26.809 C47.792,26.863 47.774,26.918 47.756,26.972 C47.720,26.991 47.684,27.009 47.648,27.027 C47.648,27.063 47.648,27.100 47.648,27.136 C47.594,27.173 47.540,27.209 47.486,27.245 C47.486,27.282 47.486,27.318 47.486,27.354 C47.468,27.354 47.450,27.354 47.432,27.354 C47.414,27.409 47.396,27.464 47.378,27.518 C47.342,27.536 47.306,27.554 47.270,27.573 C47.270,27.609 47.270,27.645 47.270,27.682 C47.216,27.718 47.162,27.755 47.108,27.791 C47.108,27.827 47.108,27.864 47.108,27.900 C47.072,27.918 47.036,27.936 47.000,27.955 C47.000,27.991 47.000,28.027 47.000,28.064 C46.982,28.064 46.964,28.064 46.946,28.064 C46.928,28.118 46.910,28.173 46.892,28.228 C46.856,28.246 46.820,28.264 46.784,28.282 C46.784,28.318 46.784,28.355 46.784,28.391 C46.730,28.428 46.676,28.464 46.622,28.500 C46.622,28.537 46.622,28.573 46.622,28.609 C46.586,28.628 46.550,28.646 46.514,28.664 C46.460,28.737 46.406,28.810 46.352,28.882 C46.261,28.945 46.229,28.884 46.136,28.991 C45.092,28.991 44.047,28.991 43.003,28.991 C42.402,28.991 41.681,29.031 41.167,28.937 C41.117,28.848 40.981,28.695 40.951,28.609 C40.951,28.446 40.951,28.282 40.951,28.118 C40.969,28.118 40.987,28.118 41.005,28.118 C41.023,28.046 41.041,27.973 41.059,27.900 C41.095,27.882 41.131,27.864 41.167,27.846 C41.167,27.809 41.167,27.773 41.167,27.736 C41.221,27.700 41.275,27.664 41.329,27.627 C41.329,27.591 41.329,27.554 41.329,27.518 C41.365,27.500 41.401,27.482 41.437,27.464 C41.437,27.427 41.437,27.391 41.437,27.354 C41.491,27.318 41.545,27.282 41.599,27.245 C41.599,27.209 41.599,27.173 41.599,27.136 C41.617,27.136 41.635,27.136 41.653,27.136 C41.671,27.082 41.689,27.027 41.707,26.972 C41.743,26.954 41.779,26.936 41.815,26.918 C41.815,26.881 41.815,26.845 41.815,26.809 C41.869,26.772 41.923,26.736 41.977,26.700 C41.977,26.663 41.977,26.627 41.977,26.590 C42.013,26.572 42.049,26.554 42.085,26.536 C42.085,26.499 42.085,26.463 42.085,26.427 C42.139,26.390 42.193,26.354 42.247,26.318 C42.247,26.281 42.247,26.245 42.247,26.208 C42.283,26.190 42.319,26.172 42.355,26.154 C42.355,26.118 42.355,26.081 42.355,26.045 C42.409,26.008 42.463,25.972 42.517,25.936 C42.517,25.899 42.517,25.863 42.517,25.826 C42.535,25.826 42.553,25.826 42.571,25.826 C42.589,25.772 42.607,25.717 42.625,25.663 C42.661,25.645 42.697,25.626 42.733,25.608 C42.733,25.572 42.733,25.535 42.733,25.499 C42.787,25.463 42.841,25.426 42.895,25.390 C42.895,25.354 42.895,25.317 42.895,25.281 C42.931,25.263 42.967,25.244 43.003,25.226 C43.003,25.190 43.003,25.153 43.003,25.117 C43.057,25.081 43.111,25.044 43.165,25.008 C43.165,24.972 43.165,24.935 43.165,24.899 C43.201,24.881 43.237,24.862 43.273,24.844 C43.273,24.808 43.273,24.771 43.273,24.735 C43.327,24.699 43.381,24.662 43.435,24.626 C43.435,24.590 43.435,24.553 43.435,24.517 C43.453,24.517 43.471,24.517 43.489,24.517 C43.507,24.462 43.525,24.408 43.543,24.353 C43.579,24.335 43.615,24.317 43.651,24.299 C43.651,24.262 43.651,24.226 43.651,24.189 C43.705,24.153 43.759,24.117 43.813,24.080 C43.813,24.044 43.813,24.008 43.813,23.971 C43.849,23.953 43.885,23.935 43.921,23.917 C43.921,23.880 43.921,23.844 43.921,23.807 C43.975,23.771 44.029,23.735 44.083,23.698 C44.083,23.662 44.083,23.626 44.083,23.589 C44.119,23.571 44.155,23.553 44.191,23.535 C44.191,23.498 44.191,23.462 44.191,23.425 C44.245,23.389 44.299,23.353 44.353,23.316 C44.353,23.280 44.353,23.244 44.353,23.207 C44.389,23.189 44.425,23.171 44.461,23.153 C44.461,23.116 44.461,23.080 44.461,23.043 C44.515,23.007 44.569,22.971 44.623,22.934 C44.623,22.898 44.623,22.862 44.623,22.825 C44.641,22.825 44.659,22.825 44.677,22.825 C44.695,22.771 44.713,22.716 44.732,22.661 C44.768,22.643 44.804,22.625 44.840,22.607 C44.840,22.571 44.840,22.534 44.840,22.498 C44.894,22.461 44.948,22.425 45.002,22.389 C45.002,22.352 45.002,22.316 45.002,22.279 C45.038,22.261 45.074,22.243 45.110,22.225 C45.110,22.189 45.110,22.152 45.110,22.116 C45.128,22.116 45.146,22.116 45.164,22.116 C45.217,22.035 45.207,21.981 45.218,21.843 C45.060,21.670 45.045,21.271 44.948,21.024 C44.930,21.024 44.912,21.024 44.894,21.024 C44.894,20.970 44.894,20.915 44.894,20.861 C44.876,20.861 44.858,20.861 44.840,20.861 C44.840,20.806 44.840,20.752 44.840,20.697 C44.822,20.697 44.804,20.697 44.786,20.697 C44.786,20.642 44.786,20.588 44.786,20.533 C44.768,20.533 44.750,20.533 44.732,20.533 C44.732,20.479 44.732,20.424 44.732,20.370 C44.713,20.370 44.695,20.370 44.677,20.370 C44.677,20.333 44.677,20.297 44.677,20.260 C44.659,20.260 44.641,20.260 44.623,20.260 C44.605,20.151 44.587,20.042 44.569,19.933 C44.551,19.933 44.533,19.933 44.515,19.933 C44.479,19.769 44.443,19.606 44.407,19.442 C44.389,19.442 44.371,19.442 44.353,19.442 C44.317,19.278 44.281,19.114 44.245,18.951 C44.227,18.951 44.209,18.951 44.191,18.951 C44.191,18.896 44.191,18.842 44.191,18.787 C44.173,18.787 44.155,18.787 44.137,18.787 C44.137,18.733 44.137,18.678 44.137,18.623 C44.119,18.623 44.101,18.623 44.083,18.623 C44.083,18.569 44.083,18.514 44.083,18.460 C44.065,18.460 44.047,18.460 44.029,18.460 C44.029,18.405 44.029,18.351 44.029,18.296 C44.011,18.296 43.993,18.296 43.975,18.296 C43.957,18.187 43.939,18.078 43.921,17.969 C43.903,17.969 43.885,17.969 43.867,17.969 C43.867,17.932 43.867,17.896 43.867,17.859 C43.849,17.859 43.831,17.859 43.813,17.859 C43.813,17.805 43.813,17.750 43.813,17.696 C43.795,17.696 43.777,17.696 43.759,17.696 C43.741,17.587 43.723,17.477 43.705,17.368 C43.687,17.368 43.669,17.368 43.651,17.368 C43.615,17.205 43.579,17.041 43.543,16.877 C43.525,16.877 43.507,16.877 43.489,16.877 C43.453,16.713 43.417,16.550 43.381,16.386 C43.363,16.386 43.345,16.386 43.327,16.386 C43.327,16.331 43.327,16.277 43.327,16.222 C43.309,16.222 43.291,16.222 43.273,16.222 C43.273,16.168 43.273,16.113 43.273,16.059 C43.255,16.059 43.237,16.059 43.219,16.059 C43.219,16.004 43.219,15.949 43.219,15.895 C43.201,15.895 43.183,15.895 43.165,15.895 C43.165,15.840 43.165,15.786 43.165,15.731 C43.147,15.731 43.129,15.731 43.111,15.731 C43.111,15.677 43.111,15.622 43.111,15.568 C43.093,15.568 43.075,15.568 43.057,15.568 C43.057,15.531 43.057,15.495 43.057,15.458 C43.039,15.458 43.021,15.458 43.003,15.458 C42.985,15.349 42.967,15.240 42.949,15.131 C42.931,15.131 42.913,15.131 42.895,15.131 C42.859,14.967 42.823,14.804 42.787,14.640 C42.769,14.640 42.751,14.640 42.733,14.640 C42.733,14.585 42.733,14.531 42.733,14.476 C42.715,14.476 42.697,14.476 42.679,14.476 C42.679,14.422 42.679,14.367 42.679,14.312 C42.661,14.312 42.643,14.312 42.625,14.312 C42.625,14.258 42.625,14.203 42.625,14.149 C42.607,14.149 42.589,14.149 42.571,14.149 C42.571,14.094 42.571,14.040 42.571,13.985 C42.553,13.985 42.535,13.985 42.517,13.985 C42.517,13.930 42.517,13.876 42.517,13.821 C42.499,13.821 42.481,13.821 42.463,13.821 C42.445,13.712 42.427,13.603 42.409,13.494 C42.391,13.494 42.373,13.494 42.355,13.494 C42.337,13.385 42.319,13.276 42.301,13.166 C42.283,13.166 42.265,13.166 42.247,13.166 C42.247,13.130 42.247,13.094 42.247,13.057 C42.229,13.057 42.211,13.057 42.193,13.057 C42.193,13.003 42.193,12.948 42.193,12.894 C42.175,12.894 42.157,12.894 42.139,12.894 C42.139,12.839 42.139,12.784 42.139,12.730 C42.121,12.730 42.103,12.730 42.085,12.730 C42.085,12.675 42.085,12.621 42.085,12.566 C42.067,12.566 42.049,12.566 42.031,12.566 C42.031,12.512 42.031,12.457 42.031,12.403 C42.013,12.403 41.995,12.403 41.977,12.403 C41.977,12.348 41.977,12.293 41.977,12.239 C41.959,12.239 41.941,12.239 41.923,12.239 C41.923,12.184 41.923,12.130 41.923,12.075 C41.905,12.075 41.887,12.075 41.869,12.075 C41.869,12.021 41.869,11.966 41.869,11.911 C41.851,11.911 41.833,11.911 41.815,11.911 C41.797,11.802 41.779,11.693 41.761,11.584 C41.561,11.077 41.365,10.507 41.167,10.001 C41.167,9.947 41.167,9.892 41.167,9.838 C41.149,9.838 41.131,9.838 41.113,9.838 C41.113,9.783 41.113,9.729 41.113,9.674 C41.095,9.674 41.077,9.674 41.059,9.674 C41.059,9.619 41.059,9.565 41.059,9.510 C41.041,9.510 41.023,9.510 41.005,9.510 C41.005,9.456 41.005,9.401 41.005,9.347 C40.987,9.347 40.969,9.347 40.951,9.347 C40.951,9.292 40.951,9.237 40.951,9.183 C40.933,9.183 40.915,9.183 40.897,9.183 C40.897,9.128 40.897,9.074 40.897,9.019 C40.879,9.019 40.861,9.019 40.843,9.019 C40.843,8.965 40.843,8.910 40.843,8.856 C40.825,8.856 40.807,8.856 40.789,8.856 C40.789,8.801 40.789,8.746 40.789,8.692 C40.771,8.692 40.753,8.692 40.735,8.692 C40.753,8.546 40.771,8.401 40.789,8.255 C40.807,8.255 40.825,8.255 40.843,8.255 C40.861,8.201 40.879,8.146 40.897,8.092 C40.933,8.073 40.969,8.055 41.005,8.037 C41.005,8.019 41.005,8.001 41.005,7.982 C41.077,7.964 41.149,7.946 41.221,7.928 C41.221,7.910 41.221,7.891 41.221,7.873 C42.283,7.873 43.345,7.873 44.407,7.873 C44.839,7.873 45.272,7.873 45.704,7.873 C45.704,7.891 45.704,7.910 45.704,7.928 C45.758,7.928 45.812,7.928 45.866,7.928 C45.866,7.946 45.866,7.964 45.866,7.982 C45.902,7.982 45.938,7.982 45.974,7.982 C45.974,8.001 45.974,8.019 45.974,8.037 C46.010,8.037 46.046,8.037 46.082,8.037 C46.082,8.055 46.082,8.073 46.082,8.092 C46.164,8.155 46.177,8.167 46.298,8.201 ZM28.475,11.802 C28.475,11.820 28.475,11.839 28.475,11.857 C28.367,11.857 28.259,11.857 28.151,11.857 C28.151,11.875 28.151,11.893 28.151,11.911 C28.079,11.911 28.007,11.911 27.935,11.911 C27.935,11.930 27.935,11.948 27.935,11.966 C27.863,11.966 27.791,11.966 27.719,11.966 C27.719,11.984 27.719,12.002 27.719,12.021 C27.665,12.021 27.611,12.021 27.557,12.021 C27.557,12.039 27.557,12.057 27.557,12.075 C27.503,12.075 27.449,12.075 27.395,12.075 C27.395,12.093 27.395,12.111 27.395,12.130 C27.287,12.166 27.178,12.202 27.070,12.239 C27.070,12.257 27.070,12.275 27.070,12.293 C27.034,12.293 26.998,12.293 26.962,12.293 C26.962,12.312 26.962,12.330 26.962,12.348 C26.854,12.384 26.746,12.421 26.638,12.457 C26.620,12.493 26.602,12.530 26.584,12.566 C26.548,12.566 26.512,12.566 26.476,12.566 C26.440,12.621 26.404,12.675 26.368,12.730 C26.332,12.730 26.296,12.730 26.260,12.730 C26.188,12.821 26.116,12.912 26.044,13.003 C26.008,13.003 25.972,13.003 25.936,13.003 C25.936,13.021 25.936,13.039 25.936,13.057 C25.882,13.094 25.828,13.130 25.774,13.166 C25.774,13.203 25.774,13.239 25.774,13.276 C25.684,13.348 25.594,13.421 25.504,13.494 C25.504,13.530 25.504,13.567 25.504,13.603 C25.450,13.639 25.396,13.676 25.342,13.712 C25.342,13.749 25.342,13.785 25.342,13.821 C25.306,13.839 25.270,13.858 25.234,13.876 C25.198,13.985 25.162,14.094 25.126,14.203 C25.090,14.221 25.054,14.240 25.018,14.258 C25.000,14.349 24.982,14.440 24.964,14.531 C24.946,14.531 24.928,14.531 24.910,14.531 C24.910,14.567 24.910,14.603 24.910,14.640 C24.892,14.640 24.874,14.640 24.856,14.640 C24.838,14.749 24.820,14.858 24.802,14.967 C24.497,15.758 24.421,16.815 24.748,17.641 C24.748,17.696 24.748,17.750 24.748,17.805 C24.766,17.805 24.784,17.805 24.802,17.805 C24.820,17.878 24.838,17.950 24.856,18.023 C24.874,18.023 24.892,18.023 24.910,18.023 C24.910,18.059 24.910,18.096 24.910,18.132 C24.946,18.150 24.982,18.169 25.018,18.187 C25.036,18.260 25.054,18.332 25.072,18.405 C25.162,18.478 25.252,18.551 25.342,18.623 C25.450,18.751 25.558,18.878 25.666,19.005 C25.702,19.005 25.738,19.005 25.774,19.005 C25.792,19.042 25.810,19.078 25.828,19.114 C25.882,19.133 25.936,19.151 25.990,19.169 C25.990,19.187 25.990,19.205 25.990,19.224 C26.044,19.224 26.098,19.224 26.152,19.224 C26.170,19.260 26.188,19.296 26.206,19.333 C26.512,19.424 26.818,19.515 27.124,19.606 C27.286,19.606 27.449,19.606 27.611,19.606 C27.611,19.624 27.611,19.642 27.611,19.660 C28.079,19.624 28.547,19.587 29.015,19.551 C29.015,19.533 29.015,19.515 29.015,19.496 C29.087,19.496 29.159,19.496 29.231,19.496 C29.231,19.478 29.231,19.460 29.231,19.442 C29.285,19.442 29.339,19.442 29.393,19.442 C29.393,19.424 29.393,19.406 29.393,19.387 C29.447,19.387 29.501,19.387 29.555,19.387 C29.555,19.369 29.555,19.351 29.555,19.333 C29.609,19.333 29.663,19.333 29.717,19.333 C29.717,19.315 29.717,19.296 29.717,19.278 C29.753,19.278 29.789,19.278 29.825,19.278 C29.825,19.260 29.825,19.242 29.825,19.224 C29.879,19.224 29.933,19.224 29.987,19.224 C29.987,19.205 29.987,19.187 29.987,19.169 C30.023,19.169 30.059,19.169 30.095,19.169 C30.113,19.133 30.131,19.096 30.149,19.060 C30.257,19.024 30.365,18.987 30.473,18.951 C30.491,18.914 30.509,18.878 30.527,18.842 C30.563,18.842 30.599,18.842 30.635,18.842 C30.671,18.787 30.707,18.733 30.743,18.678 C31.528,18.115 32.015,17.332 32.363,16.331 C32.363,16.259 32.363,16.186 32.363,16.113 C32.590,15.425 32.562,14.514 32.309,13.876 C32.309,13.821 32.309,13.767 32.309,13.712 C32.291,13.712 32.273,13.712 32.255,13.712 C32.237,13.639 32.219,13.567 32.201,13.494 C32.183,13.494 32.165,13.494 32.147,13.494 C32.129,13.421 32.111,13.348 32.093,13.276 C32.057,13.257 32.021,13.239 31.985,13.221 C31.985,13.185 31.985,13.148 31.985,13.112 C31.949,13.094 31.913,13.076 31.877,13.057 C31.877,13.021 31.877,12.985 31.877,12.948 C31.805,12.894 31.733,12.839 31.661,12.784 C31.589,12.694 31.517,12.603 31.445,12.512 C30.949,12.152 30.435,11.995 29.771,11.802 C29.339,11.802 28.907,11.802 28.475,11.802 ZM88.371,11.802 C88.065,11.875 87.759,11.948 87.453,12.021 C87.453,12.039 87.453,12.057 87.453,12.075 C87.399,12.075 87.345,12.075 87.291,12.075 C87.291,12.093 87.291,12.111 87.291,12.130 C87.183,12.166 87.075,12.202 86.967,12.239 C86.967,12.257 86.967,12.275 86.967,12.293 C86.931,12.293 86.895,12.293 86.859,12.293 C86.859,12.312 86.859,12.330 86.859,12.348 C86.787,12.366 86.715,12.384 86.643,12.403 C86.625,12.439 86.607,12.475 86.589,12.512 C86.517,12.530 86.445,12.548 86.373,12.566 C86.337,12.621 86.301,12.675 86.265,12.730 C86.229,12.730 86.193,12.730 86.157,12.730 C86.013,12.894 85.869,13.057 85.725,13.221 C85.617,13.312 85.508,13.403 85.400,13.494 C85.400,13.530 85.400,13.567 85.400,13.603 C85.346,13.639 85.292,13.676 85.238,13.712 C85.238,13.749 85.238,13.785 85.238,13.821 C85.202,13.839 85.166,13.858 85.130,13.876 C85.094,13.985 85.058,14.094 85.022,14.203 C85.004,14.203 84.986,14.203 84.968,14.203 C84.968,14.240 84.968,14.276 84.968,14.312 C84.950,14.312 84.932,14.312 84.914,14.312 C84.878,14.422 84.842,14.531 84.806,14.640 C84.788,14.640 84.770,14.640 84.752,14.640 C84.734,14.749 84.716,14.858 84.698,14.967 C84.424,15.678 84.322,16.627 84.590,17.423 C84.590,17.496 84.590,17.568 84.590,17.641 C84.608,17.641 84.626,17.641 84.644,17.641 C84.644,17.678 84.644,17.714 84.644,17.750 C84.662,17.750 84.680,17.750 84.698,17.750 C84.698,17.805 84.698,17.859 84.698,17.914 C84.716,17.914 84.734,17.914 84.752,17.914 C84.752,17.950 84.752,17.987 84.752,18.023 C84.770,18.023 84.788,18.023 84.806,18.023 C84.806,18.059 84.806,18.096 84.806,18.132 C84.842,18.150 84.878,18.169 84.914,18.187 C84.914,18.223 84.914,18.260 84.914,18.296 C84.950,18.314 84.986,18.332 85.022,18.351 C85.022,18.387 85.022,18.423 85.022,18.460 C85.094,18.514 85.166,18.569 85.238,18.623 C85.346,18.751 85.455,18.878 85.563,19.005 C85.599,19.005 85.635,19.005 85.671,19.005 C85.689,19.042 85.707,19.078 85.725,19.114 C85.797,19.133 85.869,19.151 85.941,19.169 C85.941,19.187 85.941,19.205 85.941,19.224 C86.049,19.260 86.157,19.296 86.265,19.333 C86.265,19.351 86.265,19.369 86.265,19.387 C86.427,19.424 86.589,19.460 86.751,19.496 C86.751,19.515 86.751,19.533 86.751,19.551 C86.841,19.551 86.931,19.551 87.021,19.551 C87.021,19.569 87.021,19.587 87.021,19.606 C87.183,19.606 87.345,19.606 87.507,19.606 C87.507,19.624 87.507,19.642 87.507,19.660 C87.975,19.624 88.443,19.587 88.911,19.551 C88.911,19.533 88.911,19.515 88.911,19.496 C88.983,19.496 89.055,19.496 89.127,19.496 C89.127,19.478 89.127,19.460 89.127,19.442 C89.181,19.442 89.235,19.442 89.289,19.442 C89.289,19.424 89.289,19.406 89.289,19.387 C89.343,19.387 89.397,19.387 89.451,19.387 C89.451,19.369 89.451,19.351 89.451,19.333 C89.505,19.333 89.559,19.333 89.613,19.333 C89.613,19.315 89.613,19.296 89.613,19.278 C89.649,19.278 89.685,19.278 89.721,19.278 C89.721,19.260 89.721,19.242 89.721,19.224 C89.775,19.224 89.829,19.224 89.883,19.224 C89.883,19.205 89.883,19.187 89.883,19.169 C89.919,19.169 89.955,19.169 89.991,19.169 C89.991,19.151 89.991,19.133 89.991,19.114 C90.027,19.114 90.063,19.114 90.099,19.114 C90.117,19.078 90.135,19.042 90.153,19.005 C90.225,18.987 90.297,18.969 90.369,18.951 C90.387,18.914 90.405,18.878 90.423,18.842 C90.459,18.842 90.495,18.842 90.531,18.842 C90.567,18.787 90.603,18.733 90.639,18.678 C90.675,18.678 90.711,18.678 90.747,18.678 C90.819,18.587 90.891,18.496 90.963,18.405 C91.125,18.260 91.288,18.114 91.450,17.969 C91.450,17.932 91.450,17.896 91.450,17.859 C91.504,17.823 91.558,17.787 91.612,17.750 C91.612,17.714 91.612,17.678 91.612,17.641 C91.648,17.623 91.684,17.605 91.720,17.587 C91.738,17.514 91.756,17.441 91.774,17.368 C91.810,17.350 91.846,17.332 91.882,17.314 C91.882,17.277 91.882,17.241 91.882,17.205 C91.900,17.205 91.918,17.205 91.936,17.205 C91.936,17.168 91.936,17.132 91.936,17.095 C91.954,17.095 91.972,17.095 91.990,17.095 C91.990,17.041 91.990,16.986 91.990,16.932 C92.008,16.932 92.026,16.932 92.044,16.932 C92.044,16.895 92.044,16.859 92.044,16.823 C92.062,16.823 92.080,16.823 92.098,16.823 C92.098,16.768 92.098,16.713 92.098,16.659 C92.116,16.659 92.134,16.659 92.152,16.659 C92.152,16.623 92.152,16.586 92.152,16.550 C92.170,16.550 92.188,16.550 92.206,16.550 C92.206,16.477 92.206,16.404 92.206,16.331 C92.224,16.331 92.242,16.331 92.260,16.331 C92.260,16.277 92.260,16.222 92.260,16.168 C92.278,16.168 92.296,16.168 92.314,16.168 C92.314,16.077 92.314,15.986 92.314,15.895 C92.508,15.244 92.421,14.420 92.206,13.876 C92.206,13.821 92.206,13.767 92.206,13.712 C92.188,13.712 92.170,13.712 92.152,13.712 C92.116,13.603 92.080,13.494 92.044,13.385 C92.026,13.385 92.008,13.385 91.990,13.385 C91.972,13.312 91.954,13.239 91.936,13.166 C91.882,13.130 91.828,13.094 91.774,13.057 C91.774,13.021 91.774,12.985 91.774,12.948 C91.648,12.839 91.522,12.730 91.396,12.621 C91.360,12.566 91.324,12.512 91.288,12.457 C91.251,12.457 91.215,12.457 91.179,12.457 C91.161,12.421 91.143,12.384 91.125,12.348 C91.071,12.330 91.017,12.312 90.963,12.293 C90.963,12.275 90.963,12.257 90.963,12.239 C90.801,12.184 90.639,12.130 90.477,12.075 C90.477,12.057 90.477,12.039 90.477,12.021 C90.441,12.021 90.405,12.021 90.369,12.021 C90.369,12.002 90.369,11.984 90.369,11.966 C89.852,11.762 89.079,11.798 88.371,11.802 Z"/>
</svg>