<svg 
 xmlns="http://www.w3.org/2000/svg"
 xmlns:xlink="http://www.w3.org/1999/xlink"
 width="16px" height="12px">
<path fill-rule="evenodd"  fill="rgb(86, 193, 178)"
 d="M6.958,0.005 C7.413,0.005 7.868,0.005 8.323,0.005 C8.571,0.005 8.896,-0.017 9.089,0.038 C9.200,0.038 9.311,0.038 9.422,0.038 C9.644,0.050 9.866,0.061 10.088,0.072 C10.088,0.084 10.088,0.095 10.088,0.107 C10.243,0.107 10.399,0.107 10.554,0.107 C10.554,0.118 10.554,0.129 10.554,0.140 C10.643,0.140 10.732,0.140 10.820,0.140 C10.820,0.152 10.820,0.163 10.820,0.175 C10.909,0.175 10.998,0.175 11.087,0.175 C11.087,0.186 11.087,0.197 11.087,0.209 C11.187,0.209 11.287,0.209 11.386,0.209 C11.386,0.220 11.386,0.231 11.386,0.243 C11.542,0.254 11.697,0.266 11.853,0.277 C11.853,0.288 11.853,0.299 11.853,0.311 C11.986,0.322 12.119,0.333 12.252,0.345 C12.252,0.356 12.252,0.367 12.252,0.379 C12.308,0.379 12.363,0.379 12.419,0.379 C12.419,0.390 12.419,0.401 12.419,0.413 C12.474,0.413 12.530,0.413 12.585,0.413 C12.585,0.424 12.585,0.436 12.585,0.447 C12.630,0.447 12.674,0.447 12.718,0.447 C12.718,0.458 12.718,0.469 12.718,0.481 C12.829,0.492 12.940,0.503 13.051,0.515 C13.051,0.526 13.051,0.538 13.051,0.549 C13.195,0.571 13.340,0.594 13.484,0.617 C13.484,0.628 13.484,0.639 13.484,0.651 C13.528,0.651 13.573,0.651 13.617,0.651 C13.617,0.662 13.617,0.674 13.617,0.685 C13.695,0.696 13.773,0.708 13.850,0.719 C13.850,0.730 13.850,0.742 13.850,0.753 C13.884,0.753 13.917,0.753 13.950,0.753 C13.950,0.764 13.950,0.776 13.950,0.787 C14.061,0.809 14.172,0.832 14.283,0.855 C14.283,0.866 14.283,0.878 14.283,0.889 C14.305,0.889 14.327,0.889 14.350,0.889 C14.350,0.900 14.350,0.912 14.350,0.923 C14.383,0.923 14.416,0.923 14.450,0.923 C14.450,0.934 14.450,0.946 14.450,0.957 C14.494,0.968 14.538,0.980 14.583,0.991 C14.583,1.002 14.583,1.014 14.583,1.025 C14.627,1.037 14.671,1.047 14.716,1.059 C14.951,1.211 15.124,1.440 15.315,1.637 C15.360,1.671 15.404,1.705 15.448,1.739 C15.448,1.762 15.448,1.784 15.448,1.807 C15.471,1.819 15.493,1.830 15.515,1.841 C15.526,1.875 15.537,1.909 15.548,1.943 C15.559,1.943 15.570,1.943 15.582,1.943 C15.593,1.989 15.604,2.034 15.615,2.079 C15.626,2.079 15.637,2.079 15.648,2.079 C15.648,2.102 15.648,2.125 15.648,2.147 C15.659,2.147 15.670,2.147 15.681,2.147 C15.704,2.215 15.726,2.284 15.748,2.352 C15.759,2.352 15.770,2.352 15.781,2.352 C15.781,2.385 15.781,2.420 15.781,2.454 C15.792,2.454 15.804,2.454 15.815,2.454 C15.815,2.476 15.815,2.499 15.815,2.521 C15.826,2.521 15.837,2.521 15.848,2.521 C15.859,2.601 15.870,2.680 15.881,2.760 C15.892,2.760 15.903,2.760 15.915,2.760 C15.926,2.873 15.937,2.986 15.948,3.100 C15.959,3.100 15.970,3.100 15.981,3.100 C16.026,3.264 15.981,3.732 15.948,3.848 C15.948,3.916 15.948,3.984 15.948,4.052 C15.937,4.052 15.926,4.052 15.915,4.052 C15.915,4.086 15.915,4.120 15.915,4.154 C15.903,4.154 15.892,4.154 15.881,4.154 C15.881,4.211 15.881,4.267 15.881,4.324 C15.870,4.324 15.859,4.324 15.848,4.324 C15.848,4.381 15.848,4.438 15.848,4.494 C15.837,4.494 15.826,4.494 15.815,4.494 C15.815,4.551 15.815,4.608 15.815,4.664 C15.804,4.664 15.792,4.664 15.781,4.664 C15.781,4.698 15.781,4.732 15.781,4.767 C15.770,4.767 15.759,4.767 15.748,4.767 C15.726,4.834 15.704,4.902 15.681,4.970 C15.670,4.970 15.659,4.970 15.648,4.970 C15.648,4.993 15.648,5.016 15.648,5.038 C15.604,5.072 15.559,5.107 15.515,5.141 C15.471,5.197 15.426,5.254 15.382,5.311 C15.293,5.371 14.847,5.508 14.649,5.446 C14.649,5.435 14.649,5.424 14.649,5.413 C14.605,5.413 14.561,5.413 14.516,5.413 C14.516,5.401 14.516,5.390 14.516,5.378 C14.461,5.378 14.405,5.378 14.350,5.378 C14.350,5.367 14.350,5.356 14.350,5.345 C14.283,5.345 14.216,5.345 14.150,5.345 C14.150,5.333 14.150,5.322 14.150,5.311 C14.094,5.311 14.039,5.311 13.983,5.311 C13.983,5.299 13.983,5.288 13.983,5.276 C13.884,5.265 13.784,5.254 13.684,5.243 C13.684,5.231 13.684,5.220 13.684,5.208 C13.639,5.208 13.595,5.208 13.551,5.208 C13.551,5.197 13.551,5.186 13.551,5.174 C13.473,5.174 13.395,5.174 13.318,5.174 C13.318,5.163 13.318,5.152 13.318,5.141 C13.273,5.141 13.229,5.141 13.184,5.141 C13.184,5.129 13.184,5.118 13.184,5.107 C13.085,5.095 12.985,5.084 12.885,5.072 C12.885,5.061 12.885,5.050 12.885,5.038 C12.818,5.038 12.752,5.038 12.685,5.038 C12.685,5.027 12.685,5.016 12.685,5.004 C12.630,5.004 12.574,5.004 12.519,5.004 C12.385,4.959 12.252,4.914 12.119,4.868 C12.097,4.834 12.075,4.800 12.052,4.767 C11.986,4.710 11.919,4.653 11.853,4.596 C11.853,4.574 11.853,4.551 11.853,4.528 C11.841,4.528 11.830,4.528 11.819,4.528 C11.797,4.460 11.775,4.392 11.753,4.324 C11.742,4.324 11.730,4.324 11.719,4.324 C11.719,4.279 11.719,4.233 11.719,4.188 C11.708,4.188 11.697,4.188 11.686,4.188 C11.614,3.942 11.739,3.486 11.786,3.338 C11.786,3.292 11.786,3.247 11.786,3.202 C11.802,3.150 11.855,2.964 11.819,2.861 C11.808,2.861 11.797,2.861 11.786,2.861 C11.775,2.816 11.764,2.771 11.753,2.725 C11.697,2.680 11.642,2.635 11.586,2.590 C11.575,2.567 11.564,2.544 11.553,2.521 C11.531,2.521 11.509,2.521 11.486,2.521 C11.486,2.510 11.486,2.499 11.486,2.487 C11.464,2.487 11.442,2.487 11.420,2.487 C11.420,2.476 11.420,2.465 11.420,2.454 C11.386,2.454 11.353,2.454 11.320,2.454 C11.320,2.442 11.320,2.431 11.320,2.420 C11.298,2.420 11.275,2.420 11.253,2.420 C11.253,2.408 11.253,2.397 11.253,2.385 C10.965,2.306 10.676,2.227 10.388,2.147 C10.321,2.147 10.255,2.147 10.188,2.147 C9.520,1.944 8.618,1.977 7.757,1.977 C7.315,1.977 6.808,1.944 6.459,2.045 C6.359,2.045 6.259,2.045 6.159,2.045 C6.159,2.057 6.159,2.068 6.159,2.079 C6.070,2.079 5.982,2.079 5.893,2.079 C5.893,2.091 5.893,2.102 5.893,2.114 C5.826,2.114 5.760,2.114 5.693,2.114 C5.693,2.125 5.693,2.136 5.693,2.147 C5.638,2.147 5.582,2.147 5.527,2.147 C5.527,2.159 5.527,2.170 5.527,2.181 C5.493,2.181 5.460,2.181 5.427,2.181 C5.427,2.193 5.427,2.204 5.427,2.215 C5.371,2.215 5.316,2.215 5.260,2.215 C5.260,2.227 5.260,2.238 5.260,2.250 C5.172,2.261 5.083,2.272 4.994,2.284 C4.994,2.295 4.994,2.306 4.994,2.317 C4.927,2.329 4.861,2.340 4.794,2.352 C4.794,2.363 4.794,2.374 4.794,2.385 C4.739,2.397 4.683,2.408 4.628,2.420 C4.628,2.431 4.628,2.442 4.628,2.454 C4.605,2.454 4.583,2.454 4.561,2.454 C4.561,2.465 4.561,2.476 4.561,2.487 C4.517,2.499 4.472,2.510 4.428,2.521 C4.384,2.578 4.339,2.635 4.295,2.691 C4.273,2.703 4.250,2.714 4.228,2.725 C4.190,2.783 4.228,2.803 4.162,2.861 C4.173,3.032 4.184,3.202 4.195,3.372 C4.206,3.372 4.217,3.372 4.228,3.372 C4.228,3.429 4.228,3.485 4.228,3.542 C4.239,3.542 4.250,3.542 4.261,3.542 C4.261,3.576 4.261,3.610 4.261,3.644 C4.273,3.644 4.284,3.644 4.295,3.644 C4.295,3.723 4.295,3.803 4.295,3.882 C4.296,4.191 4.262,4.268 4.162,4.460 C4.162,4.483 4.162,4.505 4.162,4.528 C4.150,4.528 4.139,4.528 4.128,4.528 C4.128,4.551 4.128,4.574 4.128,4.596 C4.073,4.642 4.017,4.687 3.962,4.732 C3.929,4.778 3.895,4.823 3.862,4.868 C3.840,4.868 3.818,4.868 3.795,4.868 C3.795,4.880 3.795,4.891 3.795,4.902 C3.773,4.902 3.751,4.902 3.729,4.902 C3.729,4.914 3.729,4.925 3.729,4.937 C3.695,4.937 3.662,4.937 3.629,4.937 C3.629,4.947 3.629,4.959 3.629,4.970 C3.562,4.970 3.496,4.970 3.429,4.970 C3.429,4.982 3.429,4.993 3.429,5.004 C3.374,5.004 3.318,5.004 3.263,5.004 C3.263,5.016 3.263,5.027 3.263,5.038 C3.218,5.038 3.174,5.038 3.130,5.038 C3.130,5.050 3.130,5.061 3.130,5.072 C3.074,5.072 3.019,5.072 2.963,5.072 C2.963,5.084 2.963,5.095 2.963,5.107 C2.896,5.107 2.830,5.107 2.763,5.107 C2.763,5.118 2.763,5.129 2.763,5.141 C2.663,5.152 2.564,5.163 2.464,5.174 C2.464,5.186 2.464,5.197 2.464,5.208 C2.419,5.208 2.375,5.208 2.330,5.208 C2.330,5.220 2.330,5.231 2.330,5.243 C2.264,5.243 2.197,5.243 2.131,5.243 C2.131,5.254 2.131,5.265 2.131,5.276 C2.075,5.276 2.020,5.276 1.964,5.276 C1.964,5.288 1.964,5.299 1.964,5.311 C1.909,5.311 1.853,5.311 1.798,5.311 C1.798,5.322 1.798,5.333 1.798,5.345 C1.687,5.356 1.576,5.367 1.465,5.378 C1.465,5.390 1.465,5.401 1.465,5.413 C1.287,5.424 1.110,5.435 0.932,5.446 C0.932,5.435 0.932,5.424 0.932,5.413 C0.865,5.401 0.799,5.390 0.732,5.378 C0.732,5.367 0.732,5.356 0.732,5.345 C0.688,5.333 0.644,5.322 0.599,5.311 C0.533,5.231 0.466,5.152 0.399,5.072 C0.377,5.061 0.355,5.050 0.333,5.038 C0.333,5.016 0.333,4.993 0.333,4.970 C0.322,4.970 0.311,4.970 0.299,4.970 C0.277,4.902 0.255,4.834 0.233,4.767 C0.222,4.767 0.211,4.767 0.200,4.767 C0.189,4.664 0.177,4.562 0.166,4.460 C0.155,4.460 0.144,4.460 0.133,4.460 C0.133,4.415 0.133,4.369 0.133,4.324 C0.122,4.324 0.111,4.324 0.100,4.324 C0.089,4.222 0.078,4.120 0.066,4.018 C0.055,4.018 0.044,4.018 0.033,4.018 C0.033,3.961 0.033,3.905 0.033,3.848 C0.022,3.848 0.011,3.848 -0.000,3.848 C-0.000,3.700 -0.000,3.553 -0.000,3.406 C0.000,2.904 0.131,2.540 0.299,2.215 C0.299,2.193 0.299,2.170 0.299,2.147 C0.311,2.147 0.322,2.147 0.333,2.147 C0.333,2.125 0.333,2.102 0.333,2.079 C0.344,2.079 0.355,2.079 0.366,2.079 C0.366,2.057 0.366,2.034 0.366,2.011 C0.377,2.011 0.388,2.011 0.399,2.011 C0.399,1.989 0.399,1.966 0.399,1.943 C0.422,1.932 0.444,1.921 0.466,1.909 C0.466,1.886 0.466,1.864 0.466,1.841 C0.488,1.830 0.510,1.819 0.533,1.807 C0.533,1.784 0.533,1.762 0.533,1.739 C0.588,1.694 0.644,1.648 0.699,1.603 C0.880,1.418 1.043,1.203 1.265,1.059 C1.287,1.059 1.309,1.059 1.332,1.059 C1.332,1.047 1.332,1.037 1.332,1.025 C1.398,1.002 1.465,0.980 1.531,0.957 C1.531,0.946 1.531,0.934 1.531,0.923 C1.565,0.923 1.598,0.923 1.631,0.923 C1.631,0.912 1.631,0.900 1.631,0.889 C1.665,0.889 1.698,0.889 1.731,0.889 C1.731,0.878 1.731,0.866 1.731,0.855 C1.753,0.855 1.775,0.855 1.798,0.855 C1.798,0.844 1.798,0.832 1.798,0.821 C1.831,0.821 1.864,0.821 1.898,0.821 C1.898,0.809 1.898,0.798 1.898,0.787 C1.942,0.787 1.986,0.787 2.031,0.787 C2.031,0.776 2.031,0.764 2.031,0.753 C2.064,0.753 2.097,0.753 2.131,0.753 C2.131,0.742 2.131,0.730 2.131,0.719 C2.208,0.708 2.286,0.696 2.364,0.685 C2.364,0.674 2.364,0.662 2.364,0.651 C2.508,0.628 2.652,0.606 2.797,0.583 C2.797,0.571 2.797,0.560 2.797,0.549 C2.896,0.538 2.996,0.526 3.096,0.515 C3.096,0.503 3.096,0.492 3.096,0.481 C3.196,0.469 3.296,0.458 3.396,0.447 C3.396,0.436 3.396,0.424 3.396,0.413 C3.507,0.401 3.618,0.390 3.729,0.379 C3.729,0.367 3.729,0.356 3.729,0.345 C3.806,0.345 3.884,0.345 3.962,0.345 C3.962,0.333 3.962,0.322 3.962,0.311 C4.017,0.311 4.073,0.311 4.128,0.311 C4.128,0.299 4.128,0.288 4.128,0.277 C4.217,0.277 4.306,0.277 4.395,0.277 C4.395,0.266 4.395,0.254 4.395,0.243 C4.461,0.243 4.528,0.243 4.594,0.243 C4.594,0.231 4.594,0.220 4.594,0.209 C4.672,0.209 4.750,0.209 4.828,0.209 C4.828,0.197 4.828,0.186 4.828,0.175 C4.939,0.175 5.050,0.175 5.160,0.175 C5.160,0.163 5.160,0.152 5.160,0.140 C5.249,0.140 5.338,0.140 5.427,0.140 C5.427,0.129 5.427,0.118 5.427,0.107 C5.582,0.107 5.738,0.107 5.893,0.107 C5.893,0.095 5.893,0.084 5.893,0.072 C6.037,0.072 6.181,0.072 6.326,0.072 C6.326,0.061 6.326,0.050 6.326,0.038 C6.508,-0.014 6.835,0.116 6.958,0.005 ZM6.459,2.590 C6.474,2.774 6.557,2.874 6.625,2.998 C6.625,3.020 6.625,3.043 6.625,3.065 C6.648,3.077 6.670,3.088 6.692,3.100 C6.692,3.122 6.692,3.145 6.692,3.168 C6.770,3.236 6.847,3.304 6.925,3.372 C6.958,3.417 6.992,3.462 7.025,3.508 C7.047,3.508 7.069,3.508 7.091,3.508 C7.103,3.530 7.114,3.553 7.125,3.576 C7.147,3.576 7.169,3.576 7.191,3.576 C7.191,3.587 7.191,3.599 7.191,3.610 C7.258,3.633 7.325,3.655 7.391,3.678 C7.391,3.689 7.391,3.700 7.391,3.712 C7.458,3.723 7.524,3.735 7.591,3.746 C7.702,3.788 8.061,3.875 8.257,3.814 C8.824,3.638 9.129,3.425 9.389,2.930 C9.400,2.930 9.411,2.930 9.422,2.930 C9.471,2.836 9.511,2.712 9.522,2.590 C9.937,2.589 10.256,2.748 10.654,2.760 C10.654,3.225 10.654,3.689 10.654,4.154 C10.665,4.154 10.676,4.154 10.687,4.154 C10.687,4.211 10.687,4.267 10.687,4.324 C10.698,4.324 10.710,4.324 10.721,4.324 C10.721,4.369 10.721,4.415 10.721,4.460 C10.732,4.460 10.743,4.460 10.754,4.460 C10.754,4.494 10.754,4.528 10.754,4.562 C10.765,4.562 10.776,4.562 10.787,4.562 C10.787,4.596 10.787,4.630 10.787,4.664 C10.798,4.664 10.809,4.664 10.820,4.664 C10.820,4.687 10.820,4.710 10.820,4.732 C10.832,4.732 10.843,4.732 10.854,4.732 C10.854,4.767 10.854,4.800 10.854,4.834 C10.865,4.834 10.876,4.834 10.887,4.834 C10.887,4.857 10.887,4.880 10.887,4.902 C10.898,4.902 10.909,4.902 10.920,4.902 C10.920,4.925 10.920,4.947 10.920,4.970 C10.943,4.982 10.965,4.993 10.987,5.004 C10.998,5.050 11.009,5.095 11.020,5.141 C11.031,5.141 11.042,5.141 11.054,5.141 C11.065,5.174 11.076,5.208 11.087,5.243 C11.109,5.254 11.131,5.265 11.153,5.276 C11.153,5.299 11.153,5.322 11.153,5.345 C11.198,5.378 11.242,5.413 11.287,5.446 C11.916,6.338 12.971,6.745 13.318,7.930 C13.318,8.292 13.318,8.655 13.318,9.018 C13.318,9.721 13.318,10.424 13.318,11.127 C13.306,11.127 13.295,11.127 13.284,11.127 C13.284,11.160 13.284,11.195 13.284,11.229 C13.273,11.229 13.262,11.229 13.251,11.229 C13.251,11.251 13.251,11.274 13.251,11.297 C13.240,11.297 13.229,11.297 13.218,11.297 C13.218,11.331 13.218,11.365 13.218,11.399 C13.195,11.410 13.173,11.421 13.151,11.433 C13.151,11.455 13.151,11.478 13.151,11.501 C13.073,11.569 12.996,11.637 12.918,11.705 C12.896,11.739 12.874,11.773 12.851,11.807 C12.455,12.091 11.082,11.977 10.388,11.977 C8.623,11.977 6.858,11.977 5.094,11.977 C4.561,11.977 4.028,11.977 3.496,11.977 C3.496,11.966 3.496,11.954 3.496,11.943 C3.462,11.943 3.429,11.943 3.396,11.943 C3.396,11.932 3.396,11.920 3.396,11.909 C3.374,11.909 3.351,11.909 3.329,11.909 C3.329,11.898 3.329,11.886 3.329,11.875 C3.296,11.875 3.263,11.875 3.229,11.875 C3.218,11.852 3.207,11.829 3.196,11.807 C3.174,11.807 3.152,11.807 3.130,11.807 C3.063,11.728 2.996,11.648 2.930,11.569 C2.896,11.546 2.863,11.523 2.830,11.501 C2.830,11.478 2.830,11.455 2.830,11.433 C2.808,11.421 2.785,11.410 2.763,11.399 C2.763,11.365 2.763,11.331 2.763,11.297 C2.752,11.297 2.741,11.297 2.730,11.297 C2.730,11.274 2.730,11.251 2.730,11.229 C2.719,11.229 2.708,11.229 2.697,11.229 C2.697,11.195 2.697,11.160 2.697,11.127 C2.686,11.127 2.674,11.127 2.663,11.127 C2.663,10.617 2.663,10.106 2.663,9.596 C2.663,8.983 2.573,8.030 2.763,7.590 C2.774,7.590 2.785,7.590 2.797,7.590 C2.797,7.567 2.797,7.544 2.797,7.521 C2.808,7.521 2.819,7.521 2.830,7.521 C2.841,7.476 2.852,7.431 2.863,7.385 C2.885,7.374 2.908,7.362 2.930,7.351 C2.930,7.329 2.930,7.306 2.930,7.283 C2.952,7.272 2.974,7.261 2.996,7.250 C2.996,7.227 2.996,7.204 2.996,7.181 C3.030,7.159 3.063,7.136 3.096,7.113 C3.096,7.091 3.096,7.068 3.096,7.045 C3.196,6.955 3.296,6.863 3.396,6.773 C3.474,6.682 3.551,6.592 3.629,6.501 C3.651,6.501 3.673,6.501 3.695,6.501 C3.773,6.410 3.851,6.320 3.929,6.229 C3.951,6.229 3.973,6.229 3.995,6.229 C4.095,6.115 4.195,6.002 4.295,5.889 C4.428,5.764 4.561,5.639 4.694,5.515 C4.694,5.492 4.694,5.469 4.694,5.446 C4.739,5.413 4.783,5.378 4.828,5.345 C4.828,5.322 4.828,5.299 4.828,5.276 C4.850,5.265 4.872,5.254 4.894,5.243 C4.905,5.208 4.916,5.174 4.927,5.141 C4.939,5.141 4.950,5.141 4.961,5.141 C4.972,5.095 4.983,5.050 4.994,5.004 C5.016,4.993 5.038,4.982 5.061,4.970 C5.061,4.947 5.061,4.925 5.061,4.902 C5.072,4.902 5.083,4.902 5.094,4.902 C5.094,4.880 5.094,4.857 5.094,4.834 C5.105,4.834 5.116,4.834 5.127,4.834 C5.127,4.800 5.127,4.767 5.127,4.732 C5.138,4.732 5.149,4.732 5.160,4.732 C5.160,4.710 5.160,4.687 5.160,4.664 C5.172,4.664 5.183,4.664 5.194,4.664 C5.194,4.630 5.194,4.596 5.194,4.562 C5.205,4.562 5.216,4.562 5.227,4.562 C5.227,4.528 5.227,4.494 5.227,4.460 C5.238,4.460 5.249,4.460 5.260,4.460 C5.260,4.415 5.260,4.369 5.260,4.324 C5.271,4.324 5.283,4.324 5.294,4.324 C5.294,4.267 5.294,4.211 5.294,4.154 C5.305,4.154 5.316,4.154 5.327,4.154 C5.327,3.689 5.327,3.225 5.327,2.760 C5.708,2.729 6.023,2.597 6.459,2.590 ZM7.658,5.446 C7.592,5.505 7.480,5.479 7.391,5.515 C7.214,5.594 7.036,5.673 6.858,5.753 C6.847,5.775 6.836,5.798 6.825,5.821 C6.803,5.821 6.781,5.821 6.759,5.821 C6.736,5.854 6.714,5.889 6.692,5.923 C6.670,5.923 6.648,5.923 6.625,5.923 C6.592,5.968 6.559,6.013 6.525,6.059 C6.459,6.115 6.392,6.172 6.326,6.229 C6.326,6.252 6.326,6.274 6.326,6.297 C6.292,6.320 6.259,6.342 6.226,6.365 C6.226,6.388 6.226,6.410 6.226,6.433 C6.204,6.444 6.181,6.455 6.159,6.467 C6.148,6.512 6.137,6.558 6.126,6.603 C6.115,6.603 6.104,6.603 6.093,6.603 C6.070,6.671 6.048,6.739 6.026,6.807 C6.015,6.807 6.004,6.807 5.993,6.807 C5.971,6.909 5.948,7.011 5.926,7.113 C5.915,7.113 5.904,7.113 5.893,7.113 C5.893,7.170 5.893,7.227 5.893,7.283 C5.882,7.283 5.871,7.283 5.860,7.283 C5.823,7.414 5.862,8.041 5.893,8.134 C5.904,8.134 5.915,8.134 5.926,8.134 C5.926,8.168 5.926,8.201 5.926,8.236 C5.937,8.236 5.948,8.236 5.960,8.236 C5.971,8.304 5.982,8.371 5.993,8.440 C6.004,8.440 6.015,8.440 6.026,8.440 C6.026,8.462 6.026,8.485 6.026,8.508 C6.037,8.508 6.048,8.508 6.059,8.508 C6.059,8.530 6.059,8.553 6.059,8.575 C6.070,8.575 6.082,8.575 6.093,8.575 C6.093,8.598 6.093,8.621 6.093,8.644 C6.104,8.644 6.115,8.644 6.126,8.644 C6.126,8.667 6.126,8.689 6.126,8.712 C6.137,8.712 6.148,8.712 6.159,8.712 C6.159,8.735 6.159,8.757 6.159,8.780 C6.181,8.791 6.204,8.802 6.226,8.814 C6.226,8.836 6.226,8.859 6.226,8.882 C6.259,8.905 6.292,8.927 6.326,8.950 C6.326,8.973 6.326,8.995 6.326,9.018 C6.403,9.086 6.481,9.154 6.559,9.222 C6.581,9.256 6.603,9.290 6.625,9.324 C6.648,9.324 6.670,9.324 6.692,9.324 C6.714,9.358 6.736,9.392 6.759,9.426 C6.781,9.426 6.803,9.426 6.825,9.426 C6.836,9.449 6.847,9.471 6.858,9.494 C6.881,9.494 6.903,9.494 6.925,9.494 C6.925,9.505 6.925,9.517 6.925,9.528 C6.947,9.528 6.969,9.528 6.992,9.528 C6.992,9.539 6.992,9.551 6.992,9.562 C7.014,9.562 7.036,9.562 7.058,9.562 C7.058,9.574 7.058,9.585 7.058,9.596 C7.080,9.596 7.103,9.596 7.125,9.596 C7.125,9.607 7.125,9.619 7.125,9.630 C7.147,9.630 7.169,9.630 7.191,9.630 C7.191,9.641 7.191,9.653 7.191,9.664 C7.225,9.664 7.258,9.664 7.291,9.664 C7.291,9.675 7.291,9.687 7.291,9.698 C7.325,9.698 7.358,9.698 7.391,9.698 C7.391,9.709 7.391,9.721 7.391,9.732 C7.424,9.732 7.458,9.732 7.491,9.732 C7.491,9.744 7.491,9.755 7.491,9.766 C7.582,9.797 8.197,9.838 8.323,9.800 C8.935,9.617 9.326,9.425 9.655,8.950 C9.689,8.927 9.722,8.905 9.755,8.882 C9.755,8.859 9.755,8.836 9.755,8.814 C9.777,8.802 9.800,8.791 9.822,8.780 C9.844,8.712 9.866,8.644 9.888,8.575 C9.899,8.575 9.910,8.575 9.922,8.575 C9.933,8.530 9.944,8.485 9.955,8.440 C9.966,8.440 9.977,8.440 9.988,8.440 C9.988,8.406 9.988,8.371 9.988,8.338 C9.999,8.338 10.010,8.338 10.021,8.338 C10.021,8.304 10.021,8.270 10.021,8.236 C10.033,8.236 10.044,8.236 10.055,8.236 C10.055,8.201 10.055,8.168 10.055,8.134 C10.066,8.134 10.077,8.134 10.088,8.134 C10.088,8.077 10.088,8.020 10.088,7.964 C10.099,7.964 10.110,7.964 10.121,7.964 C10.158,7.833 10.119,7.206 10.088,7.113 C10.077,7.113 10.066,7.113 10.055,7.113 C10.055,7.079 10.055,7.045 10.055,7.011 C10.044,7.011 10.033,7.011 10.021,7.011 C10.010,6.943 9.999,6.875 9.988,6.807 C9.977,6.807 9.966,6.807 9.955,6.807 C9.955,6.784 9.955,6.762 9.955,6.739 C9.944,6.739 9.933,6.739 9.922,6.739 C9.922,6.716 9.922,6.693 9.922,6.671 C9.910,6.671 9.899,6.671 9.888,6.671 C9.888,6.648 9.888,6.626 9.888,6.603 C9.877,6.603 9.866,6.603 9.855,6.603 C9.855,6.580 9.855,6.558 9.855,6.535 C9.844,6.535 9.833,6.535 9.822,6.535 C9.822,6.512 9.822,6.490 9.822,6.467 C9.800,6.455 9.777,6.444 9.755,6.433 C9.755,6.410 9.755,6.388 9.755,6.365 C9.722,6.342 9.689,6.320 9.655,6.297 C9.655,6.274 9.655,6.252 9.655,6.229 C9.611,6.195 9.566,6.161 9.522,6.127 C9.466,6.059 9.411,5.991 9.355,5.923 C9.333,5.923 9.311,5.923 9.289,5.923 C9.267,5.889 9.245,5.854 9.222,5.821 C9.200,5.821 9.178,5.821 9.156,5.821 C9.145,5.798 9.134,5.775 9.122,5.753 C9.078,5.741 9.034,5.730 8.989,5.719 C8.989,5.708 8.989,5.696 8.989,5.685 C8.923,5.662 8.856,5.639 8.790,5.617 C8.790,5.606 8.790,5.594 8.790,5.583 C8.690,5.560 8.590,5.537 8.490,5.515 C8.490,5.503 8.490,5.492 8.490,5.481 C8.299,5.416 7.904,5.445 7.658,5.446 Z"/>
</svg>