<svg 
 xmlns="http://www.w3.org/2000/svg"
 xmlns:xlink="http://www.w3.org/1999/xlink"
 width="18px" height="17px">
<path fill-rule="evenodd"  fill="rgb(220, 217, 217)"
 d="M12.762,5.676 C13.594,5.676 14.426,5.676 15.258,5.676 C15.649,5.676 16.093,5.650 16.383,5.745 C16.429,5.745 16.476,5.745 16.523,5.745 C16.523,5.757 16.523,5.768 16.523,5.779 C16.547,5.779 16.570,5.779 16.594,5.779 C16.594,5.791 16.594,5.803 16.594,5.814 C16.629,5.814 16.664,5.814 16.699,5.814 C16.699,5.825 16.699,5.837 16.699,5.848 C16.746,5.860 16.793,5.872 16.840,5.883 C16.840,5.894 16.840,5.906 16.840,5.918 C16.863,5.918 16.887,5.918 16.910,5.918 C16.922,5.941 16.933,5.964 16.945,5.987 C16.992,5.998 17.039,6.010 17.086,6.021 C17.121,6.067 17.156,6.113 17.191,6.159 C17.215,6.159 17.238,6.159 17.262,6.159 C17.320,6.228 17.379,6.297 17.437,6.366 C17.461,6.378 17.484,6.389 17.508,6.401 C17.508,6.424 17.508,6.447 17.508,6.470 C17.555,6.504 17.601,6.539 17.648,6.573 C17.660,6.619 17.672,6.666 17.683,6.712 C17.707,6.723 17.730,6.734 17.754,6.746 C17.765,6.792 17.777,6.838 17.789,6.884 C17.801,6.884 17.812,6.884 17.824,6.884 C17.836,6.930 17.848,6.976 17.859,7.022 C17.871,7.022 17.883,7.022 17.894,7.022 C17.894,7.057 17.894,7.091 17.894,7.126 C17.979,7.345 18.000,7.528 18.000,7.851 C18.000,7.977 18.000,8.104 18.000,8.231 C17.988,8.231 17.976,8.231 17.965,8.231 C17.965,8.288 17.965,8.346 17.965,8.403 C17.953,8.403 17.941,8.403 17.929,8.403 C17.929,8.449 17.929,8.495 17.929,8.541 C17.918,8.541 17.906,8.541 17.894,8.541 C17.894,8.576 17.894,8.610 17.894,8.645 C17.883,8.645 17.871,8.645 17.859,8.645 C17.859,8.680 17.859,8.714 17.859,8.748 C17.848,8.748 17.836,8.748 17.824,8.748 C17.824,8.772 17.824,8.795 17.824,8.817 C17.812,8.817 17.801,8.817 17.789,8.817 C17.777,8.875 17.765,8.933 17.754,8.990 C17.730,9.002 17.707,9.013 17.683,9.025 C17.672,9.071 17.660,9.117 17.648,9.163 C17.625,9.174 17.601,9.186 17.578,9.197 C17.578,9.220 17.578,9.243 17.578,9.266 C17.555,9.278 17.531,9.289 17.508,9.301 C17.496,9.335 17.484,9.370 17.473,9.405 C17.461,9.405 17.449,9.405 17.437,9.405 C17.426,9.439 17.414,9.474 17.402,9.508 C17.414,9.508 17.426,9.508 17.437,9.508 C17.449,9.589 17.461,9.669 17.473,9.750 C17.484,9.750 17.496,9.750 17.508,9.750 C17.508,9.796 17.508,9.842 17.508,9.888 C17.608,10.200 17.577,10.692 17.473,10.993 C17.473,11.039 17.473,11.085 17.473,11.131 C17.461,11.131 17.449,11.131 17.437,11.131 C17.437,11.154 17.437,11.177 17.437,11.200 C17.426,11.200 17.414,11.200 17.402,11.200 C17.402,11.234 17.402,11.269 17.402,11.303 C17.390,11.303 17.379,11.303 17.367,11.303 C17.355,11.349 17.344,11.395 17.332,11.441 C17.320,11.441 17.308,11.441 17.297,11.441 C17.285,11.488 17.273,11.533 17.262,11.579 C17.238,11.591 17.215,11.603 17.191,11.614 C17.191,11.637 17.191,11.660 17.191,11.683 C17.168,11.695 17.144,11.706 17.121,11.718 C17.121,11.741 17.121,11.764 17.121,11.787 C17.109,11.787 17.097,11.787 17.086,11.787 C17.097,11.867 17.109,11.948 17.121,12.028 C17.133,12.028 17.144,12.028 17.156,12.028 C17.156,12.144 17.156,12.259 17.156,12.374 C17.168,12.374 17.180,12.374 17.191,12.374 C17.156,12.627 17.121,12.880 17.086,13.133 C17.074,13.133 17.062,13.133 17.051,13.133 C17.027,13.237 17.004,13.340 16.980,13.444 C16.969,13.444 16.957,13.444 16.945,13.444 C16.922,13.513 16.898,13.582 16.875,13.651 C16.863,13.651 16.851,13.651 16.840,13.651 C16.840,13.674 16.840,13.697 16.840,13.720 C16.828,13.720 16.816,13.720 16.805,13.720 C16.793,13.755 16.781,13.789 16.769,13.824 C16.746,13.835 16.722,13.847 16.699,13.858 C16.699,13.881 16.699,13.904 16.699,13.927 C16.629,13.985 16.558,14.042 16.488,14.100 C16.488,14.330 16.488,14.560 16.488,14.790 C16.476,14.790 16.465,14.790 16.453,14.790 C16.453,14.871 16.453,14.951 16.453,15.032 C16.441,15.032 16.429,15.032 16.418,15.032 C16.418,15.089 16.418,15.147 16.418,15.205 C16.406,15.205 16.394,15.205 16.383,15.205 C16.383,15.251 16.383,15.297 16.383,15.343 C16.371,15.343 16.359,15.343 16.347,15.343 C16.347,15.377 16.347,15.412 16.347,15.446 C16.336,15.446 16.324,15.446 16.312,15.446 C16.312,15.481 16.312,15.515 16.312,15.550 C16.301,15.550 16.289,15.550 16.277,15.550 C16.277,15.573 16.277,15.596 16.277,15.619 C16.266,15.619 16.254,15.619 16.242,15.619 C16.219,15.688 16.195,15.757 16.172,15.826 C16.148,15.837 16.125,15.849 16.101,15.861 C16.101,15.883 16.101,15.907 16.101,15.929 C16.078,15.941 16.054,15.953 16.031,15.964 C16.031,15.987 16.031,16.010 16.031,16.033 C15.996,16.056 15.961,16.079 15.926,16.102 C15.926,16.125 15.926,16.148 15.926,16.171 C15.855,16.229 15.785,16.286 15.715,16.344 C15.703,16.367 15.691,16.390 15.680,16.413 C15.656,16.413 15.633,16.413 15.609,16.413 C15.586,16.448 15.562,16.482 15.539,16.516 C15.515,16.516 15.492,16.516 15.469,16.516 C15.457,16.539 15.445,16.563 15.433,16.585 C15.410,16.585 15.387,16.585 15.363,16.585 C15.351,16.609 15.340,16.632 15.328,16.655 C15.305,16.655 15.281,16.655 15.258,16.655 C15.258,16.666 15.258,16.678 15.258,16.689 C15.234,16.689 15.211,16.689 15.187,16.689 C15.187,16.701 15.187,16.712 15.187,16.724 C15.152,16.724 15.117,16.724 15.082,16.724 C15.082,16.735 15.082,16.747 15.082,16.758 C15.058,16.758 15.035,16.758 15.012,16.758 C15.012,16.770 15.012,16.781 15.012,16.793 C14.976,16.793 14.941,16.793 14.906,16.793 C14.906,16.804 14.906,16.816 14.906,16.827 C14.871,16.827 14.836,16.827 14.801,16.827 C14.801,16.839 14.801,16.850 14.801,16.862 C14.766,16.862 14.730,16.862 14.695,16.862 C14.695,16.873 14.695,16.885 14.695,16.896 C14.648,16.896 14.601,16.896 14.554,16.896 C14.554,16.908 14.554,16.919 14.554,16.931 C14.496,16.931 14.437,16.931 14.379,16.931 C14.379,16.942 14.379,16.954 14.379,16.965 C14.297,16.965 14.215,16.965 14.133,16.965 C14.133,16.977 14.133,16.988 14.133,17.000 C13.582,17.000 13.031,17.000 12.480,17.000 C11.595,17.000 10.829,16.934 10.160,16.724 C10.008,16.701 9.855,16.678 9.703,16.655 C9.703,16.643 9.703,16.632 9.703,16.620 C9.609,16.609 9.515,16.597 9.422,16.585 C9.422,16.574 9.422,16.563 9.422,16.551 C9.340,16.539 9.258,16.528 9.176,16.516 C9.176,16.505 9.176,16.494 9.176,16.482 C9.141,16.482 9.105,16.482 9.070,16.482 C9.070,16.470 9.070,16.459 9.070,16.448 C9.035,16.448 9.000,16.448 8.965,16.448 C8.965,16.436 8.965,16.424 8.965,16.413 C8.929,16.413 8.894,16.413 8.859,16.413 C8.859,16.401 8.859,16.390 8.859,16.378 C8.824,16.378 8.789,16.378 8.754,16.378 C8.754,16.367 8.754,16.355 8.754,16.344 C8.719,16.344 8.683,16.344 8.648,16.344 C8.648,16.332 8.648,16.321 8.648,16.309 C8.543,16.286 8.437,16.263 8.332,16.240 C8.332,16.229 8.332,16.217 8.332,16.206 C8.297,16.206 8.262,16.206 8.226,16.206 C8.226,16.194 8.226,16.183 8.226,16.171 C8.191,16.171 8.156,16.171 8.121,16.171 C8.121,16.160 8.121,16.148 8.121,16.137 C8.086,16.137 8.051,16.137 8.015,16.137 C8.015,16.125 8.015,16.114 8.015,16.102 C7.980,16.102 7.945,16.102 7.910,16.102 C7.910,16.091 7.910,16.079 7.910,16.068 C7.875,16.068 7.840,16.068 7.805,16.068 C7.805,16.056 7.805,16.045 7.805,16.033 C7.769,16.033 7.734,16.033 7.699,16.033 C7.699,16.022 7.699,16.010 7.699,15.999 C7.629,15.987 7.558,15.976 7.488,15.964 C7.488,15.953 7.488,15.941 7.488,15.929 C7.336,15.895 7.183,15.861 7.031,15.826 C7.031,15.815 7.031,15.803 7.031,15.792 C6.996,15.792 6.961,15.792 6.926,15.792 C6.926,15.780 6.926,15.769 6.926,15.757 C6.891,15.757 6.855,15.757 6.820,15.757 C6.820,15.745 6.820,15.734 6.820,15.722 C6.773,15.722 6.726,15.722 6.679,15.722 C6.679,15.711 6.679,15.699 6.679,15.688 C6.586,15.676 6.492,15.665 6.398,15.653 C6.398,15.642 6.398,15.630 6.398,15.619 C6.246,15.607 6.094,15.596 5.941,15.584 C5.941,15.573 5.941,15.561 5.941,15.550 C5.906,15.550 5.871,15.550 5.836,15.550 C5.836,15.538 5.836,15.527 5.836,15.515 C5.789,15.504 5.742,15.492 5.695,15.481 C5.683,15.458 5.672,15.435 5.660,15.412 C5.601,15.366 5.543,15.320 5.484,15.274 C5.363,15.095 5.379,14.812 5.379,14.514 C5.379,14.054 5.379,13.593 5.379,13.133 C5.379,11.270 5.321,9.310 5.414,7.506 C5.505,7.446 5.543,7.335 5.625,7.264 C5.625,7.253 5.625,7.241 5.625,7.229 C5.648,7.229 5.672,7.229 5.695,7.229 C5.707,7.206 5.719,7.183 5.730,7.160 C5.754,7.160 5.777,7.160 5.801,7.160 C5.801,7.149 5.801,7.137 5.801,7.126 C5.824,7.126 5.847,7.126 5.871,7.126 C5.871,7.114 5.871,7.103 5.871,7.091 C5.918,7.091 5.965,7.091 6.012,7.091 C6.012,7.080 6.012,7.068 6.012,7.057 C6.094,7.045 6.176,7.034 6.258,7.022 C6.269,6.999 6.281,6.976 6.293,6.953 C6.316,6.953 6.340,6.953 6.363,6.953 C6.387,6.919 6.410,6.884 6.433,6.850 C6.457,6.850 6.480,6.850 6.504,6.850 C6.562,6.781 6.621,6.712 6.679,6.643 C6.797,6.539 6.914,6.435 7.031,6.332 C7.031,6.309 7.031,6.286 7.031,6.263 C7.101,6.205 7.172,6.148 7.242,6.090 C7.242,6.067 7.242,6.044 7.242,6.021 C7.324,5.952 7.406,5.883 7.488,5.814 C7.488,5.791 7.488,5.768 7.488,5.745 C7.535,5.710 7.582,5.676 7.629,5.641 C7.629,5.618 7.629,5.595 7.629,5.572 C7.652,5.561 7.676,5.549 7.699,5.538 C7.699,5.526 7.699,5.515 7.699,5.503 C7.722,5.492 7.746,5.480 7.769,5.469 C7.769,5.446 7.769,5.423 7.769,5.400 C7.816,5.365 7.863,5.331 7.910,5.296 C7.910,5.273 7.910,5.250 7.910,5.227 C7.957,5.192 8.004,5.158 8.051,5.124 C8.051,5.100 8.051,5.077 8.051,5.054 C8.098,5.020 8.144,4.985 8.191,4.951 C8.191,4.928 8.191,4.905 8.191,4.882 C8.238,4.847 8.285,4.813 8.332,4.778 C8.332,4.755 8.332,4.732 8.332,4.709 C8.390,4.663 8.449,4.617 8.508,4.571 C8.508,4.548 8.508,4.525 8.508,4.502 C8.554,4.467 8.601,4.433 8.648,4.398 C8.648,4.376 8.648,4.352 8.648,4.329 C8.719,4.272 8.789,4.214 8.859,4.157 C8.859,4.134 8.859,4.111 8.859,4.088 C8.953,4.007 9.047,3.927 9.140,3.846 C9.140,3.823 9.140,3.800 9.140,3.777 C9.176,3.754 9.211,3.731 9.246,3.708 C9.246,3.696 9.246,3.685 9.246,3.673 C9.269,3.662 9.293,3.650 9.316,3.639 C9.316,3.616 9.316,3.593 9.316,3.570 C9.351,3.547 9.387,3.524 9.422,3.501 C9.422,3.478 9.422,3.455 9.422,3.432 C9.433,3.432 9.445,3.432 9.457,3.432 C9.712,2.980 9.779,2.381 9.949,1.844 C9.973,1.671 9.996,1.498 10.019,1.326 C10.031,1.326 10.043,1.326 10.055,1.326 C10.055,1.291 10.055,1.257 10.055,1.222 C10.066,1.222 10.078,1.222 10.090,1.222 C10.090,1.188 10.090,1.153 10.090,1.119 C10.101,1.119 10.113,1.119 10.125,1.119 C10.125,1.084 10.125,1.049 10.125,1.015 C10.137,1.015 10.148,1.015 10.160,1.015 C10.172,0.969 10.183,0.923 10.195,0.877 C10.207,0.877 10.219,0.877 10.230,0.877 C10.242,0.819 10.254,0.762 10.265,0.704 C10.289,0.693 10.312,0.681 10.336,0.670 C10.359,0.601 10.383,0.532 10.406,0.463 C10.453,0.428 10.500,0.393 10.547,0.359 C10.547,0.336 10.547,0.313 10.547,0.290 C10.629,0.221 10.711,0.152 10.793,0.083 C10.816,0.083 10.840,0.083 10.863,0.083 C10.863,0.072 10.863,0.060 10.863,0.048 C10.898,0.048 10.933,0.048 10.969,0.048 C11.370,-0.094 12.062,0.111 12.340,0.221 C12.375,0.221 12.410,0.221 12.445,0.221 C12.445,0.232 12.445,0.244 12.445,0.256 C12.516,0.279 12.586,0.302 12.656,0.325 C12.656,0.336 12.656,0.348 12.656,0.359 C12.703,0.371 12.750,0.382 12.797,0.393 C12.844,0.451 12.891,0.509 12.937,0.566 C12.961,0.566 12.984,0.566 13.008,0.566 C13.019,0.589 13.031,0.612 13.043,0.635 C13.055,0.635 13.066,0.635 13.078,0.635 C13.078,0.658 13.078,0.681 13.078,0.704 C13.125,0.739 13.172,0.773 13.219,0.808 C13.219,0.831 13.219,0.854 13.219,0.877 C13.242,0.888 13.265,0.900 13.289,0.912 C13.301,0.958 13.312,1.004 13.324,1.049 C13.347,1.061 13.371,1.073 13.394,1.084 C13.406,1.142 13.418,1.199 13.430,1.257 C13.441,1.257 13.453,1.257 13.465,1.257 C13.465,1.280 13.465,1.303 13.465,1.326 C13.476,1.326 13.488,1.326 13.500,1.326 C13.500,1.360 13.500,1.395 13.500,1.429 C13.512,1.429 13.523,1.429 13.535,1.429 C13.535,1.464 13.535,1.498 13.535,1.533 C13.547,1.533 13.558,1.533 13.570,1.533 C13.570,1.579 13.570,1.625 13.570,1.671 C13.582,1.671 13.594,1.671 13.605,1.671 C13.605,1.729 13.605,1.786 13.605,1.844 C13.617,1.844 13.629,1.844 13.640,1.844 C13.640,1.936 13.640,2.028 13.640,2.120 C13.652,2.120 13.664,2.120 13.676,2.120 C13.676,2.246 13.676,2.373 13.676,2.500 C13.687,2.500 13.699,2.500 13.711,2.500 C13.711,2.638 13.711,2.776 13.711,2.914 C13.699,2.914 13.687,2.914 13.676,2.914 C13.676,3.064 13.676,3.213 13.676,3.363 C13.664,3.363 13.652,3.363 13.640,3.363 C13.640,3.420 13.640,3.478 13.640,3.535 C13.629,3.535 13.617,3.535 13.605,3.535 C13.605,3.593 13.605,3.650 13.605,3.708 C13.594,3.708 13.582,3.708 13.570,3.708 C13.570,3.754 13.570,3.800 13.570,3.846 C13.558,3.846 13.547,3.846 13.535,3.846 C13.535,3.881 13.535,3.915 13.535,3.950 C13.523,3.950 13.512,3.950 13.500,3.950 C13.500,3.996 13.500,4.042 13.500,4.088 C13.336,4.433 13.172,4.778 13.008,5.124 C12.915,5.294 12.789,5.437 12.762,5.676 ZM0.492,7.091 C1.476,7.091 2.461,7.091 3.445,7.091 C3.692,7.091 4.107,7.032 4.289,7.126 C4.301,7.149 4.312,7.172 4.324,7.195 C4.348,7.195 4.371,7.195 4.394,7.195 C4.418,7.229 4.441,7.264 4.465,7.299 C4.532,7.364 4.575,7.360 4.605,7.471 C4.750,7.616 4.711,8.142 4.711,8.438 C4.711,9.289 4.711,10.141 4.711,10.993 C4.711,11.971 4.711,12.949 4.711,13.927 C4.711,14.317 4.753,14.816 4.640,15.101 C4.640,15.136 4.640,15.170 4.640,15.205 C4.617,15.216 4.594,15.228 4.570,15.239 C4.570,15.262 4.570,15.285 4.570,15.308 C4.535,15.331 4.500,15.354 4.465,15.377 C4.441,15.412 4.418,15.446 4.394,15.481 C4.162,15.633 3.684,15.584 3.304,15.584 C2.379,15.584 1.453,15.584 0.527,15.584 C0.449,15.560 0.379,15.502 0.281,15.481 C0.234,15.423 0.187,15.366 0.140,15.308 C0.129,15.308 0.117,15.308 0.105,15.308 C0.082,15.239 0.058,15.170 0.035,15.101 C0.023,15.101 0.012,15.101 -0.000,15.101 C-0.000,14.480 -0.000,13.858 -0.000,13.237 C-0.000,11.350 -0.000,9.462 -0.000,7.575 C0.012,7.575 0.023,7.575 0.035,7.575 C0.058,7.506 0.082,7.437 0.105,7.368 C0.152,7.333 0.199,7.299 0.246,7.264 C0.258,7.241 0.269,7.218 0.281,7.195 C0.305,7.195 0.328,7.195 0.351,7.195 C0.351,7.183 0.351,7.172 0.351,7.160 C0.423,7.121 0.430,7.160 0.492,7.091 ZM1.652,13.962 C1.731,13.983 1.739,13.991 1.793,14.031 C1.793,14.042 1.793,14.054 1.793,14.065 C1.851,14.077 1.910,14.088 1.969,14.100 C1.969,14.111 1.969,14.123 1.969,14.134 C2.131,14.185 2.337,14.111 2.461,14.100 C2.461,14.088 2.461,14.077 2.461,14.065 C2.496,14.054 2.531,14.042 2.566,14.031 C2.578,14.008 2.590,13.985 2.601,13.962 C2.648,13.927 2.695,13.893 2.742,13.858 C2.813,13.759 2.916,13.480 2.848,13.271 C2.836,13.271 2.824,13.271 2.812,13.271 C2.801,13.214 2.789,13.156 2.777,13.099 C2.707,13.041 2.637,12.984 2.566,12.926 C2.555,12.903 2.543,12.880 2.531,12.857 C2.473,12.817 2.451,12.857 2.390,12.788 C2.231,12.780 2.036,12.728 1.933,12.822 C1.887,12.834 1.840,12.845 1.793,12.857 C1.781,12.880 1.769,12.903 1.758,12.926 C1.734,12.926 1.711,12.926 1.687,12.926 C1.676,12.949 1.664,12.972 1.652,12.995 C1.641,12.995 1.629,12.995 1.617,12.995 C1.617,13.018 1.617,13.041 1.617,13.064 C1.594,13.076 1.570,13.087 1.547,13.099 C1.506,13.161 1.546,13.176 1.476,13.237 C1.472,13.425 1.438,13.597 1.512,13.755 C1.523,13.755 1.535,13.755 1.547,13.755 C1.547,13.778 1.547,13.801 1.547,13.824 C1.558,13.824 1.570,13.824 1.582,13.824 C1.623,13.877 1.630,13.884 1.652,13.962 Z"/>
</svg>