<svg 
 xmlns="http://www.w3.org/2000/svg"
 xmlns:xlink="http://www.w3.org/1999/xlink"
 width="18px" height="18px">
<path fill-rule="evenodd"  fill="rgb(220, 217, 217)"
 d="M5.238,11.345 C4.406,11.345 3.574,11.345 2.742,11.345 C2.351,11.345 1.907,11.370 1.617,11.275 C1.570,11.275 1.523,11.275 1.476,11.275 C1.476,11.264 1.476,11.252 1.476,11.241 C1.453,11.241 1.430,11.241 1.406,11.241 C1.406,11.229 1.406,11.218 1.406,11.206 C1.371,11.206 1.336,11.206 1.301,11.206 C1.301,11.195 1.301,11.183 1.301,11.172 C1.254,11.160 1.207,11.149 1.160,11.137 C1.160,11.126 1.160,11.114 1.160,11.103 C1.137,11.103 1.113,11.103 1.090,11.103 C1.078,11.079 1.066,11.056 1.055,11.033 C1.008,11.022 0.961,11.010 0.914,10.999 C0.879,10.953 0.844,10.906 0.808,10.860 C0.785,10.860 0.762,10.860 0.738,10.860 C0.679,10.791 0.621,10.722 0.562,10.653 C0.539,10.641 0.515,10.630 0.492,10.618 C0.492,10.595 0.492,10.572 0.492,10.549 C0.445,10.515 0.398,10.480 0.351,10.445 C0.340,10.399 0.328,10.353 0.316,10.307 C0.293,10.296 0.269,10.284 0.246,10.272 C0.234,10.226 0.223,10.180 0.211,10.134 C0.199,10.134 0.187,10.134 0.176,10.134 C0.164,10.088 0.152,10.042 0.140,9.996 C0.129,9.996 0.117,9.996 0.105,9.996 C0.105,9.961 0.105,9.927 0.105,9.892 C0.021,9.673 -0.000,9.489 -0.000,9.166 C-0.000,9.039 -0.000,8.912 -0.000,8.785 C0.012,8.785 0.023,8.785 0.035,8.785 C0.035,8.728 0.035,8.670 0.035,8.612 C0.047,8.612 0.058,8.612 0.070,8.612 C0.070,8.566 0.070,8.520 0.070,8.474 C0.082,8.474 0.094,8.474 0.105,8.474 C0.105,8.439 0.105,8.405 0.105,8.370 C0.117,8.370 0.129,8.370 0.140,8.370 C0.140,8.335 0.140,8.301 0.140,8.266 C0.152,8.266 0.164,8.266 0.176,8.266 C0.176,8.243 0.176,8.220 0.176,8.197 C0.187,8.197 0.199,8.197 0.211,8.197 C0.223,8.140 0.234,8.082 0.246,8.024 C0.269,8.013 0.293,8.001 0.316,7.990 C0.328,7.944 0.340,7.897 0.351,7.851 C0.375,7.840 0.398,7.828 0.422,7.817 C0.422,7.794 0.422,7.771 0.422,7.748 C0.445,7.736 0.469,7.725 0.492,7.713 C0.504,7.678 0.515,7.644 0.527,7.609 C0.539,7.609 0.551,7.609 0.562,7.609 C0.574,7.575 0.586,7.540 0.598,7.505 C0.586,7.505 0.574,7.505 0.562,7.505 C0.551,7.425 0.539,7.344 0.527,7.263 C0.515,7.263 0.504,7.263 0.492,7.263 C0.492,7.217 0.492,7.171 0.492,7.125 C0.392,6.812 0.423,6.319 0.527,6.018 C0.527,5.972 0.527,5.926 0.527,5.880 C0.539,5.880 0.551,5.880 0.562,5.880 C0.562,5.857 0.562,5.834 0.562,5.811 C0.574,5.811 0.586,5.811 0.598,5.811 C0.598,5.776 0.598,5.741 0.598,5.707 C0.609,5.707 0.621,5.707 0.633,5.707 C0.644,5.661 0.656,5.615 0.668,5.569 C0.679,5.569 0.691,5.569 0.703,5.569 C0.715,5.522 0.726,5.476 0.738,5.430 C0.762,5.419 0.785,5.407 0.808,5.395 C0.808,5.373 0.808,5.349 0.808,5.326 C0.832,5.315 0.855,5.303 0.879,5.292 C0.879,5.269 0.879,5.246 0.879,5.223 C0.891,5.223 0.902,5.223 0.914,5.223 C0.902,5.142 0.891,5.061 0.879,4.980 C0.867,4.980 0.855,4.980 0.844,4.980 C0.844,4.865 0.844,4.750 0.844,4.635 C0.832,4.635 0.820,4.635 0.808,4.635 C0.844,4.381 0.879,4.127 0.914,3.874 C0.926,3.874 0.937,3.874 0.949,3.874 C0.972,3.770 0.996,3.666 1.019,3.562 C1.031,3.562 1.043,3.562 1.055,3.562 C1.078,3.493 1.101,3.424 1.125,3.355 C1.137,3.355 1.148,3.355 1.160,3.355 C1.160,3.332 1.160,3.309 1.160,3.286 C1.172,3.286 1.183,3.286 1.195,3.286 C1.207,3.251 1.219,3.217 1.230,3.182 C1.254,3.170 1.277,3.159 1.301,3.147 C1.301,3.124 1.301,3.101 1.301,3.078 C1.371,3.021 1.441,2.963 1.512,2.905 C1.512,2.675 1.512,2.444 1.512,2.214 C1.523,2.214 1.535,2.214 1.547,2.214 C1.547,2.133 1.547,2.052 1.547,1.971 C1.558,1.971 1.570,1.971 1.582,1.971 C1.582,1.914 1.582,1.856 1.582,1.798 C1.594,1.798 1.605,1.798 1.617,1.798 C1.617,1.752 1.617,1.706 1.617,1.660 C1.629,1.660 1.640,1.660 1.652,1.660 C1.652,1.625 1.652,1.591 1.652,1.556 C1.664,1.556 1.676,1.556 1.687,1.556 C1.687,1.522 1.687,1.487 1.687,1.453 C1.699,1.453 1.711,1.453 1.722,1.453 C1.722,1.430 1.722,1.406 1.722,1.383 C1.734,1.383 1.746,1.383 1.758,1.383 C1.781,1.314 1.805,1.245 1.828,1.176 C1.851,1.164 1.875,1.153 1.898,1.141 C1.898,1.118 1.898,1.095 1.898,1.072 C1.922,1.061 1.945,1.049 1.969,1.037 C1.969,1.014 1.969,0.991 1.969,0.968 C2.004,0.945 2.039,0.922 2.074,0.899 C2.074,0.876 2.074,0.853 2.074,0.830 C2.144,0.772 2.215,0.715 2.285,0.657 C2.297,0.634 2.308,0.611 2.320,0.588 C2.344,0.588 2.367,0.588 2.390,0.588 C2.414,0.553 2.437,0.519 2.461,0.484 C2.484,0.484 2.508,0.484 2.531,0.484 C2.543,0.461 2.554,0.438 2.566,0.415 C2.590,0.415 2.613,0.415 2.637,0.415 C2.648,0.392 2.660,0.369 2.672,0.346 C2.695,0.346 2.719,0.346 2.742,0.346 C2.742,0.334 2.742,0.323 2.742,0.311 C2.766,0.311 2.789,0.311 2.812,0.311 C2.812,0.300 2.812,0.288 2.812,0.277 C2.847,0.277 2.883,0.277 2.918,0.277 C2.918,0.265 2.918,0.253 2.918,0.242 C2.941,0.242 2.965,0.242 2.988,0.242 C2.988,0.230 2.988,0.219 2.988,0.207 C3.023,0.207 3.058,0.207 3.094,0.207 C3.094,0.196 3.094,0.184 3.094,0.173 C3.129,0.173 3.164,0.173 3.199,0.173 C3.199,0.161 3.199,0.150 3.199,0.138 C3.234,0.138 3.269,0.138 3.305,0.138 C3.305,0.127 3.305,0.115 3.305,0.104 C3.351,0.104 3.398,0.104 3.445,0.104 C3.445,0.092 3.445,0.081 3.445,0.069 C3.504,0.069 3.562,0.069 3.621,0.069 C3.621,0.058 3.621,0.046 3.621,0.034 C3.703,0.034 3.785,0.034 3.867,0.034 C3.867,0.023 3.867,0.011 3.867,-0.000 C4.418,-0.000 4.969,-0.000 5.519,-0.000 C6.404,-0.000 7.171,0.066 7.840,0.277 C7.992,0.300 8.144,0.323 8.297,0.346 C8.297,0.357 8.297,0.369 8.297,0.380 C8.391,0.392 8.484,0.403 8.578,0.415 C8.578,0.427 8.578,0.438 8.578,0.449 C8.660,0.461 8.742,0.473 8.824,0.484 C8.824,0.496 8.824,0.507 8.824,0.519 C8.859,0.519 8.894,0.519 8.930,0.519 C8.930,0.530 8.930,0.542 8.930,0.553 C8.965,0.553 9.000,0.553 9.035,0.553 C9.035,0.565 9.035,0.576 9.035,0.588 C9.070,0.588 9.105,0.588 9.140,0.588 C9.140,0.599 9.140,0.611 9.140,0.622 C9.176,0.622 9.211,0.622 9.246,0.622 C9.246,0.634 9.246,0.646 9.246,0.657 C9.281,0.657 9.316,0.657 9.351,0.657 C9.351,0.668 9.351,0.680 9.351,0.692 C9.457,0.715 9.562,0.738 9.668,0.761 C9.668,0.772 9.668,0.784 9.668,0.795 C9.703,0.795 9.738,0.795 9.773,0.795 C9.773,0.807 9.773,0.818 9.773,0.830 C9.808,0.830 9.844,0.830 9.879,0.830 C9.879,0.842 9.879,0.853 9.879,0.865 C9.914,0.865 9.949,0.865 9.984,0.865 C9.984,0.876 9.984,0.888 9.984,0.899 C10.019,0.899 10.054,0.899 10.090,0.899 C10.090,0.911 10.090,0.922 10.090,0.934 C10.125,0.934 10.160,0.934 10.195,0.934 C10.195,0.945 10.195,0.957 10.195,0.968 C10.230,0.968 10.266,0.968 10.301,0.968 C10.301,0.980 10.301,0.991 10.301,1.003 C10.371,1.014 10.441,1.026 10.512,1.037 C10.512,1.049 10.512,1.061 10.512,1.072 C10.664,1.107 10.816,1.141 10.969,1.176 C10.969,1.187 10.969,1.199 10.969,1.210 C11.004,1.210 11.039,1.210 11.074,1.210 C11.074,1.222 11.074,1.233 11.074,1.245 C11.109,1.245 11.144,1.245 11.180,1.245 C11.180,1.257 11.180,1.268 11.180,1.280 C11.226,1.280 11.273,1.280 11.320,1.280 C11.320,1.291 11.320,1.303 11.320,1.314 C11.414,1.326 11.508,1.337 11.601,1.349 C11.601,1.360 11.601,1.372 11.601,1.383 C11.754,1.395 11.906,1.406 12.058,1.418 C12.058,1.430 12.058,1.441 12.058,1.453 C12.094,1.453 12.129,1.453 12.164,1.453 C12.164,1.464 12.164,1.476 12.164,1.487 C12.211,1.499 12.258,1.510 12.305,1.522 C12.316,1.545 12.328,1.568 12.340,1.591 C12.398,1.637 12.457,1.683 12.515,1.729 C12.637,1.908 12.621,2.192 12.621,2.490 C12.621,2.951 12.621,3.413 12.621,3.874 C12.621,5.740 12.679,7.704 12.586,9.512 C12.494,9.571 12.456,9.683 12.375,9.754 C12.375,9.765 12.375,9.777 12.375,9.788 C12.351,9.788 12.328,9.788 12.305,9.788 C12.293,9.811 12.281,9.834 12.269,9.857 C12.246,9.857 12.222,9.857 12.199,9.857 C12.199,9.869 12.199,9.880 12.199,9.892 C12.176,9.892 12.152,9.892 12.129,9.892 C12.129,9.903 12.129,9.915 12.129,9.927 C12.082,9.927 12.035,9.927 11.988,9.927 C11.988,9.938 11.988,9.950 11.988,9.961 C11.906,9.973 11.824,9.984 11.742,9.996 C11.730,10.019 11.719,10.042 11.707,10.065 C11.683,10.065 11.660,10.065 11.637,10.065 C11.613,10.100 11.590,10.134 11.566,10.169 C11.543,10.169 11.519,10.169 11.496,10.169 C11.437,10.238 11.379,10.307 11.320,10.376 C11.203,10.480 11.086,10.584 10.969,10.687 C10.969,10.711 10.969,10.734 10.969,10.757 C10.898,10.814 10.828,10.872 10.758,10.930 C10.758,10.953 10.758,10.976 10.758,10.999 C10.676,11.068 10.594,11.137 10.512,11.206 C10.512,11.229 10.512,11.252 10.512,11.275 C10.465,11.310 10.418,11.345 10.371,11.379 C10.371,11.402 10.371,11.425 10.371,11.448 C10.347,11.460 10.324,11.471 10.301,11.483 C10.301,11.494 10.301,11.506 10.301,11.518 C10.277,11.529 10.254,11.541 10.230,11.552 C10.230,11.575 10.230,11.598 10.230,11.621 C10.183,11.656 10.137,11.691 10.090,11.725 C10.090,11.748 10.090,11.771 10.090,11.794 C10.043,11.829 9.996,11.863 9.949,11.898 C9.949,11.921 9.949,11.944 9.949,11.967 C9.902,12.002 9.855,12.036 9.808,12.071 C9.808,12.094 9.808,12.117 9.808,12.140 C9.762,12.175 9.715,12.209 9.668,12.244 C9.668,12.267 9.668,12.290 9.668,12.313 C9.609,12.359 9.551,12.405 9.492,12.451 C9.492,12.475 9.492,12.498 9.492,12.521 C9.445,12.555 9.398,12.590 9.351,12.624 C9.351,12.647 9.351,12.671 9.351,12.694 C9.281,12.751 9.211,12.809 9.140,12.867 C9.140,12.890 9.140,12.913 9.140,12.936 C9.047,13.016 8.953,13.097 8.859,13.178 C8.859,13.201 8.859,13.224 8.859,13.247 C8.824,13.270 8.789,13.293 8.754,13.316 C8.754,13.328 8.754,13.339 8.754,13.351 C8.730,13.362 8.707,13.374 8.683,13.385 C8.683,13.408 8.683,13.431 8.683,13.455 C8.648,13.478 8.613,13.501 8.578,13.524 C8.578,13.547 8.578,13.570 8.578,13.593 C8.566,13.593 8.555,13.593 8.543,13.593 C8.287,14.046 8.221,14.646 8.051,15.184 C8.027,15.357 8.004,15.530 7.980,15.703 C7.969,15.703 7.957,15.703 7.945,15.703 C7.945,15.737 7.945,15.772 7.945,15.806 C7.933,15.806 7.922,15.806 7.910,15.806 C7.910,15.841 7.910,15.876 7.910,15.910 C7.898,15.910 7.887,15.910 7.875,15.910 C7.875,15.945 7.875,15.979 7.875,16.014 C7.863,16.014 7.851,16.014 7.840,16.014 C7.828,16.060 7.816,16.106 7.805,16.152 C7.793,16.152 7.781,16.152 7.769,16.152 C7.758,16.210 7.746,16.268 7.734,16.325 C7.711,16.337 7.687,16.348 7.664,16.360 C7.640,16.429 7.617,16.498 7.594,16.567 C7.547,16.602 7.500,16.637 7.453,16.671 C7.453,16.694 7.453,16.717 7.453,16.741 C7.371,16.810 7.289,16.879 7.207,16.948 C7.183,16.948 7.160,16.948 7.137,16.948 C7.137,16.960 7.137,16.971 7.137,16.982 C7.101,16.982 7.066,16.982 7.031,16.982 C6.630,17.125 5.937,16.920 5.660,16.810 C5.625,16.810 5.590,16.810 5.555,16.810 C5.555,16.798 5.555,16.786 5.555,16.775 C5.484,16.752 5.414,16.729 5.344,16.706 C5.344,16.694 5.344,16.683 5.344,16.671 C5.297,16.660 5.250,16.648 5.203,16.637 C5.156,16.579 5.109,16.521 5.062,16.464 C5.039,16.464 5.015,16.464 4.992,16.464 C4.980,16.441 4.969,16.417 4.957,16.395 C4.945,16.395 4.933,16.395 4.922,16.395 C4.922,16.372 4.922,16.348 4.922,16.325 C4.875,16.291 4.828,16.256 4.781,16.221 C4.781,16.198 4.781,16.176 4.781,16.152 C4.758,16.141 4.734,16.129 4.711,16.118 C4.699,16.072 4.687,16.026 4.676,15.979 C4.652,15.968 4.629,15.957 4.605,15.945 C4.594,15.887 4.582,15.830 4.570,15.772 C4.558,15.772 4.547,15.772 4.535,15.772 C4.535,15.749 4.535,15.726 4.535,15.703 C4.523,15.703 4.512,15.703 4.500,15.703 C4.500,15.668 4.500,15.633 4.500,15.599 C4.488,15.599 4.476,15.599 4.465,15.599 C4.465,15.564 4.465,15.530 4.465,15.495 C4.453,15.495 4.441,15.495 4.429,15.495 C4.429,15.449 4.429,15.403 4.429,15.357 C4.418,15.357 4.406,15.357 4.394,15.357 C4.394,15.299 4.394,15.242 4.394,15.184 C4.383,15.184 4.371,15.184 4.359,15.184 C4.359,15.092 4.359,14.999 4.359,14.907 C4.348,14.907 4.336,14.907 4.324,14.907 C4.324,14.780 4.324,14.654 4.324,14.527 C4.312,14.527 4.301,14.527 4.289,14.527 C4.289,14.389 4.289,14.250 4.289,14.112 C4.301,14.112 4.312,14.112 4.324,14.112 C4.324,13.962 4.324,13.812 4.324,13.662 C4.336,13.662 4.348,13.662 4.359,13.662 C4.359,13.604 4.359,13.547 4.359,13.489 C4.371,13.489 4.383,13.489 4.394,13.489 C4.394,13.431 4.394,13.374 4.394,13.316 C4.406,13.316 4.418,13.316 4.429,13.316 C4.429,13.270 4.429,13.224 4.429,13.178 C4.441,13.178 4.453,13.178 4.465,13.178 C4.465,13.143 4.465,13.109 4.465,13.074 C4.476,13.074 4.488,13.074 4.500,13.074 C4.500,13.028 4.500,12.982 4.500,12.936 C4.664,12.590 4.828,12.244 4.992,11.898 C5.085,11.727 5.210,11.584 5.238,11.345 ZM17.508,9.927 C16.523,9.927 15.539,9.927 14.555,9.927 C14.308,9.927 13.893,9.986 13.711,9.892 C13.699,9.869 13.687,9.846 13.676,9.823 C13.652,9.823 13.629,9.823 13.605,9.823 C13.582,9.788 13.558,9.754 13.535,9.719 C13.468,9.653 13.425,9.658 13.394,9.546 C13.249,9.401 13.289,8.874 13.289,8.578 C13.289,7.725 13.289,6.871 13.289,6.018 C13.289,5.038 13.289,4.058 13.289,3.078 C13.289,2.687 13.246,2.188 13.359,1.902 C13.359,1.868 13.359,1.833 13.359,1.798 C13.383,1.787 13.406,1.775 13.430,1.764 C13.430,1.741 13.430,1.718 13.430,1.695 C13.465,1.672 13.500,1.649 13.535,1.625 C13.558,1.591 13.582,1.556 13.605,1.522 C13.837,1.369 14.316,1.418 14.695,1.418 C15.621,1.418 16.547,1.418 17.473,1.418 C17.551,1.443 17.621,1.501 17.719,1.522 C17.766,1.579 17.812,1.637 17.859,1.695 C17.871,1.695 17.883,1.695 17.894,1.695 C17.918,1.764 17.941,1.833 17.965,1.902 C17.976,1.902 17.988,1.902 18.000,1.902 C18.000,2.525 18.000,3.147 18.000,3.770 C18.000,5.661 18.000,7.552 18.000,9.442 C17.988,9.442 17.976,9.442 17.965,9.442 C17.941,9.512 17.918,9.581 17.894,9.650 C17.847,9.684 17.801,9.719 17.754,9.754 C17.742,9.777 17.730,9.800 17.719,9.823 C17.695,9.823 17.672,9.823 17.648,9.823 C17.648,9.834 17.648,9.846 17.648,9.857 C17.577,9.897 17.569,9.857 17.508,9.927 ZM16.347,3.044 C16.268,3.022 16.261,3.014 16.207,2.974 C16.207,2.963 16.207,2.951 16.207,2.940 C16.148,2.928 16.090,2.917 16.031,2.905 C16.031,2.894 16.031,2.882 16.031,2.871 C15.869,2.819 15.663,2.894 15.539,2.905 C15.539,2.917 15.539,2.928 15.539,2.940 C15.504,2.951 15.469,2.963 15.433,2.974 C15.422,2.998 15.410,3.021 15.398,3.044 C15.351,3.078 15.305,3.113 15.258,3.147 C15.187,3.247 15.084,3.527 15.152,3.735 C15.164,3.735 15.176,3.735 15.187,3.735 C15.199,3.793 15.211,3.851 15.223,3.908 C15.293,3.966 15.363,4.024 15.433,4.081 C15.445,4.104 15.457,4.127 15.469,4.150 C15.527,4.190 15.549,4.150 15.609,4.220 C15.769,4.228 15.964,4.279 16.066,4.185 C16.113,4.173 16.160,4.162 16.207,4.150 C16.219,4.127 16.230,4.104 16.242,4.081 C16.265,4.081 16.289,4.081 16.312,4.081 C16.324,4.058 16.336,4.035 16.347,4.012 C16.359,4.012 16.371,4.012 16.383,4.012 C16.383,3.989 16.383,3.966 16.383,3.943 C16.406,3.931 16.430,3.920 16.453,3.908 C16.494,3.846 16.453,3.831 16.523,3.770 C16.528,3.581 16.561,3.410 16.488,3.251 C16.476,3.251 16.465,3.251 16.453,3.251 C16.453,3.228 16.453,3.205 16.453,3.182 C16.441,3.182 16.430,3.182 16.418,3.182 C16.377,3.129 16.369,3.121 16.347,3.044 Z"/>
</svg>