<svg 
 xmlns="http://www.w3.org/2000/svg"
 xmlns:xlink="http://www.w3.org/1999/xlink"
 width="62px" height="68px">
<path fill-rule="evenodd"  fill="rgb(116, 202, 189)"
 d="M38.911,36.167 C39.055,35.599 39.357,35.681 39.613,35.327 C39.613,35.234 39.613,35.141 39.613,35.048 C39.707,35.001 39.800,34.955 39.894,34.908 C39.894,34.862 39.894,34.815 39.894,34.769 C39.987,34.722 40.081,34.675 40.175,34.629 C40.175,34.535 40.175,34.442 40.175,34.349 C40.268,34.302 40.362,34.255 40.456,34.209 C40.456,34.116 40.456,34.023 40.456,33.929 C40.596,33.836 40.736,33.743 40.877,33.650 C40.924,33.463 40.970,33.277 41.017,33.090 C41.111,33.044 41.205,32.997 41.298,32.951 C41.345,32.764 41.392,32.578 41.439,32.391 C41.532,32.344 41.626,32.298 41.719,32.251 C41.766,32.065 41.813,31.878 41.860,31.692 C41.907,31.692 41.954,31.692 42.000,31.692 C42.000,31.599 42.000,31.506 42.000,31.413 C42.047,31.413 42.094,31.413 42.141,31.413 C42.234,31.133 42.328,30.853 42.422,30.574 C42.468,30.574 42.515,30.574 42.562,30.574 C42.562,30.434 42.562,30.294 42.562,30.154 C42.609,30.154 42.656,30.154 42.703,30.154 C42.703,30.061 42.703,29.968 42.703,29.874 C42.749,29.874 42.796,29.874 42.843,29.874 C42.843,29.735 42.843,29.595 42.843,29.455 C44.100,26.620 44.726,23.121 44.388,19.107 C44.042,18.895 44.300,18.937 44.107,18.688 C43.686,18.409 43.264,18.129 42.843,17.849 C42.656,17.849 42.468,17.849 42.281,17.849 C42.281,17.803 42.281,17.756 42.281,17.709 C42.094,17.709 41.907,17.709 41.719,17.709 C41.719,17.663 41.719,17.616 41.719,17.570 C41.532,17.570 41.345,17.570 41.158,17.570 C41.158,17.523 41.158,17.476 41.158,17.430 C40.737,17.383 40.315,17.337 39.894,17.290 C39.894,17.244 39.894,17.197 39.894,17.150 C39.660,17.150 39.426,17.150 39.192,17.150 C39.192,17.103 39.192,17.057 39.192,17.010 C38.349,16.870 37.506,16.731 36.664,16.591 C36.664,16.544 36.664,16.498 36.664,16.451 C36.242,16.404 35.821,16.358 35.400,16.311 C35.400,16.265 35.400,16.218 35.400,16.171 C34.791,16.078 34.182,15.985 33.574,15.892 C33.574,15.845 33.574,15.798 33.574,15.752 C33.246,15.705 32.918,15.658 32.591,15.612 C32.591,15.566 32.591,15.519 32.591,15.472 C32.404,15.472 32.216,15.472 32.029,15.472 C32.029,15.426 32.029,15.379 32.029,15.332 C31.842,15.332 31.655,15.332 31.467,15.332 C31.467,15.286 31.467,15.239 31.467,15.193 C31.327,15.193 31.186,15.193 31.046,15.193 C31.046,15.146 31.046,15.099 31.046,15.052 C30.250,14.866 29.454,14.680 28.659,14.493 C28.659,14.447 28.659,14.400 28.659,14.354 C28.565,14.354 28.471,14.354 28.378,14.354 C28.378,14.307 28.378,14.260 28.378,14.214 C28.237,14.214 28.097,14.214 27.956,14.214 C27.956,14.167 27.956,14.121 27.956,14.074 C27.863,14.074 27.769,14.074 27.675,14.074 C27.675,14.027 27.675,13.980 27.675,13.934 C27.535,13.934 27.395,13.934 27.254,13.934 C27.254,13.887 27.254,13.841 27.254,13.794 C26.973,13.701 26.692,13.608 26.411,13.515 C26.411,13.468 26.411,13.421 26.411,13.375 C26.224,13.328 26.037,13.282 25.850,13.235 C25.803,13.142 25.756,13.049 25.709,12.955 C25.616,12.955 25.522,12.955 25.428,12.955 C25.382,12.862 25.335,12.769 25.288,12.676 C25.194,12.676 25.101,12.676 25.007,12.676 C25.007,12.629 25.007,12.582 25.007,12.536 C24.427,12.221 24.115,12.290 23.462,12.396 C23.415,12.536 23.369,12.676 23.322,12.815 C23.275,12.815 23.228,12.815 23.181,12.815 C23.181,12.955 23.181,13.095 23.181,13.235 C23.135,13.235 23.088,13.235 23.041,13.235 C22.994,13.421 22.947,13.608 22.901,13.794 C22.854,13.794 22.807,13.794 22.760,13.794 C22.760,13.934 22.760,14.074 22.760,14.214 C22.713,14.214 22.666,14.214 22.620,14.214 C22.620,14.354 22.620,14.493 22.620,14.633 C22.573,14.633 22.526,14.633 22.479,14.633 C22.479,14.773 22.479,14.913 22.479,15.052 C22.432,15.052 22.386,15.052 22.339,15.052 C22.292,15.379 22.245,15.705 22.198,16.031 C22.152,16.031 22.105,16.031 22.058,16.031 C22.011,16.544 21.964,17.057 21.917,17.570 C21.125,20.306 21.533,24.550 22.339,26.938 C22.526,27.730 22.713,28.523 22.901,29.315 C22.947,29.315 22.994,29.315 23.041,29.315 C23.041,29.408 23.041,29.502 23.041,29.595 C23.088,29.595 23.135,29.595 23.181,29.595 C23.181,29.735 23.181,29.874 23.181,30.014 C23.228,30.014 23.275,30.014 23.322,30.014 C23.415,30.294 23.509,30.574 23.603,30.853 C23.649,30.853 23.696,30.853 23.743,30.853 C23.743,30.946 23.743,31.040 23.743,31.133 C23.790,31.133 23.837,31.133 23.884,31.133 C23.977,31.413 24.071,31.692 24.164,31.972 C24.258,32.018 24.352,32.065 24.445,32.112 C24.492,32.298 24.539,32.485 24.586,32.671 C24.679,32.718 24.773,32.764 24.867,32.811 C24.867,32.904 24.867,32.997 24.867,33.090 C24.960,33.137 25.054,33.184 25.147,33.230 C25.147,33.324 25.147,33.417 25.147,33.510 C25.241,33.557 25.335,33.603 25.428,33.650 C25.428,33.743 25.428,33.836 25.428,33.929 C25.522,33.976 25.616,34.023 25.709,34.069 C25.709,34.162 25.709,34.255 25.709,34.349 C25.850,34.442 25.990,34.535 26.131,34.629 C26.131,34.722 26.131,34.815 26.131,34.908 C26.224,34.955 26.318,35.001 26.411,35.048 C26.411,35.141 26.411,35.234 26.411,35.327 C26.505,35.374 26.599,35.421 26.692,35.468 C26.692,35.561 26.692,35.654 26.692,35.747 C26.739,35.747 26.786,35.747 26.833,35.747 C26.880,35.887 26.926,36.027 26.973,36.167 C25.522,35.794 24.071,35.421 22.620,35.048 C22.620,35.001 22.620,34.955 22.620,34.908 C22.526,34.908 22.432,34.908 22.339,34.908 C22.339,34.862 22.339,34.815 22.339,34.769 C22.198,34.769 22.058,34.769 21.917,34.769 C21.917,34.722 21.917,34.675 21.917,34.629 C21.730,34.582 21.543,34.535 21.356,34.489 C21.356,34.442 21.356,34.396 21.356,34.349 C21.262,34.349 21.168,34.349 21.075,34.349 C21.075,34.302 21.075,34.255 21.075,34.209 C20.934,34.209 20.794,34.209 20.653,34.209 C20.607,34.116 20.560,34.023 20.513,33.929 C20.419,33.929 20.326,33.929 20.232,33.929 C20.232,33.883 20.232,33.836 20.232,33.790 C20.139,33.790 20.045,33.790 19.951,33.790 C19.951,33.743 19.951,33.696 19.951,33.650 C19.858,33.650 19.764,33.650 19.670,33.650 C19.670,33.603 19.670,33.557 19.670,33.510 C19.577,33.510 19.483,33.510 19.389,33.510 C19.389,33.463 19.389,33.417 19.389,33.370 C19.296,33.370 19.202,33.370 19.109,33.370 C19.062,33.277 19.015,33.184 18.968,33.090 C18.781,33.044 18.594,32.997 18.406,32.951 C18.406,32.904 18.406,32.857 18.406,32.811 C18.266,32.764 18.125,32.718 17.985,32.671 C17.938,32.578 17.891,32.485 17.845,32.391 C17.751,32.391 17.657,32.391 17.564,32.391 C17.517,32.298 17.470,32.205 17.423,32.112 C17.376,32.112 17.330,32.112 17.283,32.112 C17.236,32.018 17.189,31.925 17.142,31.832 C17.049,31.832 16.955,31.832 16.862,31.832 C16.674,31.599 16.487,31.366 16.300,31.133 C16.206,31.133 16.112,31.133 16.019,31.133 C16.019,31.086 16.019,31.040 16.019,30.993 C15.785,30.807 15.551,30.620 15.317,30.434 C15.317,30.341 15.317,30.247 15.317,30.154 C15.223,30.107 15.129,30.061 15.036,30.014 C15.036,29.968 15.036,29.921 15.036,29.874 C14.755,29.641 14.474,29.408 14.193,29.175 C14.193,29.082 14.193,28.989 14.193,28.896 C14.053,28.802 13.912,28.709 13.772,28.616 C13.772,28.523 13.772,28.430 13.772,28.336 C13.631,28.243 13.491,28.150 13.351,28.057 C13.304,27.870 13.257,27.684 13.210,27.497 C13.117,27.451 13.023,27.404 12.929,27.358 C12.929,27.264 12.929,27.171 12.929,27.078 C12.882,27.078 12.836,27.078 12.789,27.078 C12.789,26.985 12.789,26.891 12.789,26.798 C12.695,26.752 12.602,26.705 12.508,26.658 C12.461,26.192 12.414,25.726 12.368,25.260 C12.642,25.011 12.484,24.955 12.648,24.701 C12.742,24.654 12.836,24.608 12.929,24.561 C12.929,24.468 12.929,24.375 12.929,24.281 C12.976,24.281 13.023,24.281 13.070,24.281 C13.070,24.188 13.070,24.095 13.070,24.002 C13.117,24.002 13.163,24.002 13.210,24.002 C13.210,23.908 13.210,23.815 13.210,23.722 C13.304,23.676 13.397,23.629 13.491,23.582 C13.491,23.489 13.491,23.396 13.491,23.303 C13.538,23.303 13.585,23.303 13.631,23.303 C13.678,23.116 13.725,22.930 13.772,22.743 C13.865,22.697 13.959,22.650 14.053,22.603 C14.100,22.417 14.146,22.231 14.193,22.044 C14.287,21.997 14.380,21.951 14.474,21.904 C14.521,21.718 14.568,21.531 14.615,21.345 C14.708,21.299 14.802,21.252 14.895,21.205 C14.895,21.112 14.895,21.019 14.895,20.925 C14.942,20.925 14.989,20.925 15.036,20.925 C15.036,20.832 15.036,20.739 15.036,20.646 C15.083,20.646 15.129,20.646 15.176,20.646 C15.176,20.506 15.176,20.366 15.176,20.226 C15.223,20.226 15.270,20.226 15.317,20.226 C15.317,20.133 15.317,20.040 15.317,19.947 C15.363,19.947 15.410,19.947 15.457,19.947 C15.457,19.807 15.457,19.667 15.457,19.527 C15.504,19.527 15.551,19.527 15.598,19.527 C15.598,19.387 15.598,19.248 15.598,19.107 C15.644,19.107 15.691,19.107 15.738,19.107 C15.738,18.968 15.738,18.828 15.738,18.688 C15.785,18.688 15.832,18.688 15.878,18.688 C16.253,16.684 16.628,14.679 17.002,12.676 C17.423,11.371 17.845,10.066 18.266,8.760 C18.313,8.760 18.360,8.760 18.406,8.760 C18.500,8.481 18.594,8.201 18.687,7.921 C18.734,7.921 18.781,7.921 18.828,7.921 C18.921,7.642 19.015,7.362 19.109,7.083 C19.202,7.036 19.296,6.989 19.389,6.942 C19.436,6.756 19.483,6.570 19.530,6.383 C19.624,6.337 19.717,6.290 19.811,6.244 C19.811,6.150 19.811,6.057 19.811,5.964 C19.951,5.870 20.092,5.777 20.232,5.684 C20.232,5.591 20.232,5.498 20.232,5.405 C20.466,5.218 20.700,5.032 20.934,4.845 C20.934,4.752 20.934,4.659 20.934,4.565 C21.168,4.379 21.403,4.193 21.637,4.007 C21.683,3.913 21.730,3.820 21.777,3.727 C21.871,3.727 21.964,3.727 22.058,3.727 C22.245,3.493 22.432,3.261 22.620,3.028 C22.713,3.028 22.807,3.028 22.901,3.028 C22.947,2.934 22.994,2.841 23.041,2.748 C23.181,2.701 23.322,2.655 23.462,2.608 C23.462,2.561 23.462,2.515 23.462,2.468 C23.556,2.468 23.650,2.468 23.743,2.468 C23.790,2.375 23.837,2.282 23.884,2.189 C24.164,2.095 24.445,2.002 24.726,1.909 C24.726,1.862 24.726,1.815 24.726,1.769 C24.820,1.769 24.913,1.769 25.007,1.769 C25.007,1.722 25.007,1.676 25.007,1.629 C25.101,1.629 25.194,1.629 25.288,1.629 C25.288,1.583 25.288,1.536 25.288,1.489 C25.569,1.396 25.850,1.303 26.131,1.210 C26.131,1.163 26.131,1.117 26.131,1.070 C26.271,1.070 26.411,1.070 26.552,1.070 C26.552,1.024 26.552,0.977 26.552,0.930 C26.692,0.930 26.833,0.930 26.973,0.930 C26.973,0.883 26.973,0.837 26.973,0.790 C27.114,0.790 27.254,0.790 27.395,0.790 C27.395,0.744 27.395,0.697 27.395,0.650 C27.535,0.650 27.675,0.650 27.816,0.650 C27.816,0.604 27.816,0.557 27.816,0.510 C28.003,0.510 28.190,0.510 28.378,0.510 C29.691,0.084 33.060,-0.235 34.697,0.231 C35.025,0.231 35.353,0.231 35.681,0.231 C35.681,0.278 35.681,0.324 35.681,0.371 C36.149,0.417 36.617,0.464 37.085,0.510 C37.085,0.557 37.085,0.604 37.085,0.650 C37.272,0.650 37.459,0.650 37.647,0.650 C37.647,0.697 37.647,0.744 37.647,0.790 C37.787,0.790 37.928,0.790 38.068,0.790 C38.068,0.837 38.068,0.883 38.068,0.930 C38.209,0.930 38.349,0.930 38.489,0.930 C38.489,0.977 38.489,1.024 38.489,1.070 C38.630,1.070 38.770,1.070 38.911,1.070 C38.911,1.117 38.911,1.163 38.911,1.210 C39.098,1.256 39.285,1.303 39.472,1.350 C39.472,1.396 39.472,1.443 39.472,1.489 C39.613,1.489 39.753,1.489 39.894,1.489 C39.894,1.536 39.894,1.583 39.894,1.629 C39.987,1.629 40.081,1.629 40.175,1.629 C40.175,1.676 40.175,1.722 40.175,1.769 C40.268,1.769 40.362,1.769 40.456,1.769 C40.502,1.862 40.549,1.956 40.596,2.049 C40.783,2.095 40.971,2.142 41.158,2.189 C41.205,2.282 41.251,2.375 41.298,2.468 C41.392,2.468 41.485,2.468 41.579,2.468 C41.626,2.561 41.673,2.655 41.719,2.748 C41.813,2.748 41.907,2.748 42.000,2.748 C42.141,2.934 42.281,3.121 42.422,3.307 C42.515,3.307 42.609,3.307 42.703,3.307 C43.077,3.727 43.452,4.146 43.826,4.565 C44.013,4.705 44.201,4.845 44.388,4.985 C44.388,5.079 44.388,5.172 44.388,5.265 C44.528,5.358 44.669,5.451 44.809,5.544 C44.809,5.638 44.809,5.731 44.809,5.824 C44.950,5.917 45.090,6.011 45.230,6.104 C45.230,6.197 45.230,6.290 45.230,6.383 C45.277,6.383 45.324,6.383 45.371,6.383 C45.371,6.477 45.371,6.570 45.371,6.663 C45.465,6.710 45.558,6.756 45.652,6.803 C45.699,6.989 45.745,7.176 45.792,7.362 C45.886,7.409 45.979,7.455 46.073,7.502 C46.120,7.688 46.167,7.875 46.214,8.062 C46.260,8.062 46.307,8.062 46.354,8.062 C46.401,8.248 46.448,8.434 46.494,8.621 C46.541,8.621 46.588,8.621 46.635,8.621 C46.635,8.760 46.635,8.900 46.635,9.040 C46.682,9.040 46.729,9.040 46.775,9.040 C46.775,9.134 46.775,9.227 46.775,9.320 C46.822,9.320 46.869,9.320 46.916,9.320 C47.337,10.578 47.758,11.837 48.180,13.095 C48.227,13.468 48.273,13.841 48.320,14.214 C48.741,15.472 49.163,16.731 49.584,17.989 C50.333,19.434 51.082,20.879 51.831,22.324 C51.925,22.370 52.018,22.417 52.112,22.464 C52.159,22.650 52.206,22.836 52.252,23.023 C52.346,23.069 52.440,23.116 52.533,23.162 C52.580,23.349 52.627,23.536 52.674,23.722 C52.767,23.769 52.861,23.815 52.955,23.862 C53.001,24.048 53.048,24.234 53.095,24.421 C53.189,24.468 53.282,24.514 53.376,24.561 C53.592,24.904 53.764,25.574 53.797,26.099 C53.750,26.099 53.704,26.099 53.657,26.099 C53.610,26.332 53.563,26.565 53.516,26.798 C53.470,26.798 53.423,26.798 53.376,26.798 C53.376,26.891 53.376,26.985 53.376,27.078 C53.282,27.124 53.189,27.171 53.095,27.217 C53.095,27.311 53.095,27.404 53.095,27.497 C53.001,27.544 52.908,27.591 52.814,27.637 C52.814,27.731 52.814,27.824 52.814,27.917 C52.674,28.010 52.533,28.103 52.393,28.196 C52.393,28.289 52.393,28.383 52.393,28.476 C52.253,28.569 52.112,28.663 51.972,28.756 C51.972,28.849 51.972,28.942 51.972,29.035 C51.691,29.268 51.410,29.502 51.129,29.735 C51.129,29.828 51.129,29.921 51.129,30.014 C51.035,30.061 50.942,30.107 50.848,30.154 C50.567,30.480 50.286,30.807 50.005,31.133 C49.912,31.133 49.818,31.133 49.725,31.133 C49.537,31.366 49.350,31.599 49.163,31.832 C49.069,31.832 48.976,31.832 48.882,31.832 C48.788,31.972 48.695,32.112 48.601,32.251 C48.507,32.251 48.414,32.251 48.320,32.251 C48.273,32.344 48.227,32.438 48.180,32.531 C48.086,32.531 47.993,32.531 47.899,32.531 C47.852,32.624 47.805,32.718 47.758,32.811 C47.618,32.857 47.478,32.904 47.337,32.951 C47.337,32.997 47.337,33.044 47.337,33.090 C47.150,33.137 46.963,33.184 46.775,33.230 C46.729,33.324 46.682,33.417 46.635,33.510 C46.541,33.510 46.448,33.510 46.354,33.510 C46.354,33.557 46.354,33.603 46.354,33.650 C46.260,33.650 46.167,33.650 46.073,33.650 C46.073,33.696 46.073,33.743 46.073,33.790 C45.979,33.790 45.886,33.790 45.792,33.790 C45.792,33.836 45.792,33.883 45.792,33.929 C45.699,33.929 45.605,33.929 45.511,33.929 C43.615,34.937 41.364,35.707 38.911,36.167 ZM43.124,38.824 C44.403,38.836 45.362,39.488 46.214,39.942 C46.494,40.035 46.775,40.128 47.056,40.222 C47.056,40.268 47.056,40.315 47.056,40.361 C47.337,40.454 47.618,40.548 47.899,40.641 C47.899,40.688 47.899,40.734 47.899,40.781 C48.086,40.828 48.273,40.874 48.461,40.921 C48.461,40.967 48.461,41.014 48.461,41.061 C48.648,41.107 48.835,41.154 49.022,41.200 C49.022,41.247 49.022,41.294 49.022,41.340 C49.116,41.340 49.210,41.340 49.303,41.340 C49.303,41.387 49.303,41.434 49.303,41.480 C49.397,41.480 49.491,41.480 49.584,41.480 C49.584,41.527 49.584,41.573 49.584,41.620 C49.678,41.620 49.771,41.620 49.865,41.620 C49.865,41.667 49.865,41.713 49.865,41.760 C49.959,41.760 50.052,41.760 50.146,41.760 C50.146,41.806 50.146,41.853 50.146,41.900 C50.240,41.900 50.333,41.900 50.427,41.900 C50.427,41.946 50.427,41.993 50.427,42.039 C50.520,42.039 50.614,42.039 50.708,42.039 C50.708,42.086 50.708,42.133 50.708,42.179 C50.801,42.179 50.895,42.179 50.989,42.179 C50.989,42.226 50.989,42.273 50.989,42.319 C51.082,42.319 51.176,42.319 51.269,42.319 C51.269,42.365 51.269,42.412 51.269,42.459 C51.363,42.459 51.457,42.459 51.550,42.459 C51.550,42.506 51.550,42.552 51.550,42.599 C51.644,42.599 51.738,42.599 51.831,42.599 C51.878,42.692 51.925,42.785 51.972,42.879 C52.252,42.972 52.533,43.065 52.814,43.158 C52.861,43.251 52.908,43.344 52.955,43.437 C53.142,43.484 53.329,43.531 53.516,43.578 C53.563,43.671 53.610,43.764 53.657,43.857 C53.938,43.951 54.219,44.044 54.500,44.137 C54.546,44.230 54.593,44.323 54.640,44.417 C54.734,44.417 54.827,44.417 54.921,44.417 C55.014,44.556 55.108,44.696 55.202,44.836 C55.295,44.836 55.389,44.836 55.483,44.836 C55.529,44.929 55.576,45.022 55.623,45.116 C55.717,45.116 55.810,45.116 55.904,45.116 C56.091,45.349 56.278,45.582 56.466,45.815 C56.559,45.815 56.653,45.815 56.747,45.815 C56.887,46.001 57.028,46.188 57.168,46.374 C57.262,46.374 57.355,46.374 57.449,46.374 C57.636,46.607 57.823,46.840 58.011,47.073 C58.104,47.073 58.198,47.073 58.291,47.073 C58.479,47.306 58.666,47.539 58.853,47.772 C59.274,48.145 59.696,48.518 60.117,48.891 C60.117,48.984 60.117,49.077 60.117,49.171 C60.304,49.310 60.492,49.450 60.679,49.590 C60.726,49.776 60.773,49.963 60.819,50.149 C60.913,50.196 61.007,50.243 61.100,50.289 C61.100,50.383 61.100,50.475 61.100,50.569 C61.147,50.569 61.194,50.569 61.241,50.569 C61.241,50.662 61.241,50.755 61.241,50.849 C61.287,50.849 61.334,50.849 61.381,50.849 C61.428,51.175 61.475,51.501 61.522,51.827 C62.177,53.843 62.044,57.402 61.802,59.798 C61.522,60.031 61.241,60.264 60.960,60.497 C60.960,60.543 60.960,60.590 60.960,60.637 C60.866,60.637 60.773,60.637 60.679,60.637 C60.632,60.730 60.585,60.823 60.538,60.916 C60.351,60.963 60.164,61.009 59.977,61.056 C59.930,61.149 59.883,61.242 59.836,61.336 C59.743,61.336 59.649,61.336 59.555,61.336 C59.509,61.429 59.462,61.522 59.415,61.615 C59.321,61.615 59.228,61.615 59.134,61.615 C59.087,61.709 59.040,61.802 58.994,61.895 C58.900,61.895 58.806,61.895 58.713,61.895 C58.713,61.941 58.713,61.988 58.713,62.035 C58.619,62.035 58.526,62.035 58.432,62.035 C58.432,62.081 58.432,62.128 58.432,62.175 C58.338,62.175 58.245,62.175 58.151,62.175 C58.151,62.221 58.151,62.268 58.151,62.314 C58.057,62.314 57.964,62.314 57.870,62.314 C57.823,62.408 57.777,62.501 57.730,62.594 C57.496,62.640 57.262,62.687 57.028,62.734 C57.028,62.781 57.028,62.827 57.028,62.874 C56.934,62.874 56.840,62.874 56.747,62.874 C56.747,62.920 56.747,62.967 56.747,63.014 C56.466,63.107 56.185,63.200 55.904,63.293 C55.904,63.340 55.904,63.386 55.904,63.433 C55.764,63.433 55.623,63.433 55.483,63.433 C55.483,63.480 55.483,63.526 55.483,63.573 C55.389,63.573 55.295,63.573 55.202,63.573 C55.202,63.620 55.202,63.666 55.202,63.713 C54.921,63.759 54.640,63.806 54.359,63.853 C54.359,63.899 54.359,63.946 54.359,63.992 C54.265,63.992 54.172,63.992 54.078,63.992 C54.078,64.039 54.078,64.086 54.078,64.132 C53.797,64.179 53.516,64.225 53.236,64.272 C53.236,64.319 53.236,64.365 53.236,64.412 C53.095,64.412 52.955,64.412 52.814,64.412 C52.814,64.459 52.814,64.505 52.814,64.552 C52.674,64.552 52.533,64.552 52.393,64.552 C52.393,64.598 52.393,64.645 52.393,64.692 C52.253,64.692 52.112,64.692 51.972,64.692 C51.972,64.738 51.972,64.785 51.972,64.831 C51.831,64.831 51.691,64.831 51.550,64.831 C51.550,64.878 51.550,64.925 51.550,64.971 C51.363,64.971 51.176,64.971 50.989,64.971 C50.989,65.018 50.989,65.064 50.989,65.111 C50.848,65.111 50.708,65.111 50.567,65.111 C50.567,65.158 50.567,65.204 50.567,65.251 C50.380,65.251 50.193,65.251 50.005,65.251 C50.005,65.297 50.005,65.344 50.005,65.391 C49.865,65.391 49.725,65.391 49.584,65.391 C49.584,65.437 49.584,65.484 49.584,65.531 C49.397,65.531 49.210,65.531 49.022,65.531 C49.022,65.577 49.022,65.624 49.022,65.670 C48.835,65.670 48.648,65.670 48.461,65.670 C48.461,65.717 48.461,65.764 48.461,65.810 C48.273,65.810 48.086,65.810 47.899,65.810 C47.899,65.857 47.899,65.903 47.899,65.950 C47.712,65.950 47.524,65.950 47.337,65.950 C47.337,65.996 47.337,66.043 47.337,66.090 C46.916,66.136 46.494,66.183 46.073,66.230 C46.073,66.276 46.073,66.323 46.073,66.369 C45.839,66.369 45.605,66.369 45.371,66.369 C45.371,66.416 45.371,66.463 45.371,66.509 C45.137,66.509 44.903,66.509 44.669,66.509 C44.039,66.705 43.053,66.877 42.422,67.068 C42.141,67.068 41.860,67.068 41.579,67.068 C41.579,67.115 41.579,67.162 41.579,67.209 C41.251,67.209 40.924,67.209 40.596,67.209 C40.596,67.255 40.596,67.302 40.596,67.348 C40.268,67.348 39.941,67.348 39.613,67.348 C39.613,67.395 39.613,67.441 39.613,67.488 C39.192,67.488 38.770,67.488 38.349,67.488 C38.349,67.535 38.349,67.581 38.349,67.628 C37.553,67.675 36.757,67.721 35.961,67.768 C35.447,67.768 34.931,67.768 34.417,67.768 C33.311,68.074 28.637,68.080 27.535,67.768 C26.739,67.768 25.943,67.768 25.147,67.768 C25.147,67.721 25.147,67.675 25.147,67.628 C24.633,67.628 24.118,67.628 23.603,67.628 C23.603,67.581 23.603,67.535 23.603,67.488 C23.181,67.488 22.760,67.488 22.339,67.488 C22.339,67.441 22.339,67.395 22.339,67.348 C21.964,67.348 21.590,67.348 21.215,67.348 C21.215,67.302 21.215,67.255 21.215,67.209 C20.934,67.209 20.653,67.209 20.373,67.209 C20.373,67.162 20.373,67.115 20.373,67.068 C20.092,67.068 19.811,67.068 19.530,67.068 C18.568,66.779 17.241,66.664 16.300,66.369 C16.066,66.369 15.832,66.369 15.598,66.369 C15.598,66.323 15.598,66.276 15.598,66.230 C15.176,66.183 14.755,66.136 14.334,66.090 C14.334,66.043 14.334,65.996 14.334,65.950 C14.146,65.950 13.959,65.950 13.772,65.950 C13.772,65.903 13.772,65.857 13.772,65.810 C13.585,65.810 13.397,65.810 13.210,65.810 C13.210,65.764 13.210,65.717 13.210,65.670 C13.023,65.670 12.836,65.670 12.648,65.670 C12.648,65.624 12.648,65.577 12.648,65.531 C12.274,65.484 11.899,65.437 11.525,65.391 C10.027,64.878 8.529,64.365 7.031,63.853 C7.031,63.806 7.031,63.759 7.031,63.713 C6.937,63.713 6.843,63.713 6.750,63.713 C6.750,63.666 6.750,63.620 6.750,63.573 C6.609,63.573 6.469,63.573 6.329,63.573 C6.329,63.526 6.329,63.480 6.329,63.433 C6.141,63.386 5.954,63.340 5.767,63.293 C5.767,63.247 5.767,63.200 5.767,63.154 C5.673,63.154 5.579,63.154 5.486,63.154 C5.486,63.107 5.486,63.060 5.486,63.014 C5.345,63.014 5.205,63.014 5.065,63.014 C5.065,62.967 5.065,62.920 5.065,62.874 C4.971,62.874 4.877,62.874 4.784,62.874 C4.737,62.781 4.690,62.687 4.643,62.594 C4.550,62.594 4.456,62.594 4.362,62.594 C4.362,62.548 4.362,62.501 4.362,62.454 C4.269,62.454 4.175,62.454 4.082,62.454 C4.082,62.408 4.082,62.361 4.082,62.314 C3.988,62.314 3.894,62.314 3.801,62.314 C3.801,62.268 3.801,62.221 3.801,62.175 C3.707,62.175 3.613,62.175 3.520,62.175 C3.473,62.081 3.426,61.988 3.379,61.895 C3.098,61.802 2.818,61.709 2.537,61.615 C2.490,61.522 2.443,61.429 2.396,61.336 C2.303,61.336 2.209,61.336 2.115,61.336 C2.115,61.289 2.115,61.242 2.115,61.196 C2.022,61.196 1.928,61.196 1.834,61.196 C1.788,61.103 1.741,61.009 1.694,60.916 C1.600,60.916 1.507,60.916 1.413,60.916 C1.366,60.823 1.320,60.730 1.273,60.637 C1.179,60.637 1.085,60.637 0.992,60.637 C0.992,60.590 0.992,60.543 0.992,60.497 C0.782,60.332 0.742,60.304 0.430,60.217 C0.383,60.077 0.336,59.937 0.290,59.798 C0.243,59.798 0.196,59.798 0.149,59.798 C0.149,59.704 0.149,59.611 0.149,59.518 C0.102,59.518 0.056,59.518 0.009,59.518 C0.009,58.726 0.009,57.933 0.009,57.141 C0.009,54.908 -0.114,52.545 0.570,50.989 C0.617,50.989 0.664,50.989 0.711,50.989 C0.711,50.895 0.711,50.802 0.711,50.709 C0.758,50.709 0.805,50.709 0.851,50.709 C0.898,50.522 0.945,50.336 0.992,50.149 C1.085,50.103 1.179,50.056 1.273,50.010 C1.273,49.917 1.273,49.823 1.273,49.730 C1.413,49.637 1.554,49.544 1.694,49.450 C1.694,49.357 1.694,49.264 1.694,49.171 C2.115,48.798 2.537,48.425 2.958,48.052 C3.098,47.866 3.239,47.679 3.379,47.492 C3.473,47.492 3.567,47.492 3.660,47.492 C3.847,47.260 4.035,47.027 4.222,46.794 C4.316,46.794 4.409,46.794 4.503,46.794 C4.643,46.607 4.784,46.420 4.924,46.234 C5.065,46.188 5.205,46.141 5.345,46.094 C5.392,46.001 5.439,45.908 5.486,45.815 C5.579,45.815 5.673,45.815 5.767,45.815 C5.814,45.722 5.860,45.628 5.907,45.535 C6.001,45.535 6.094,45.535 6.188,45.535 C6.282,45.395 6.375,45.255 6.469,45.116 C6.563,45.116 6.656,45.116 6.750,45.116 C6.797,45.022 6.843,44.929 6.890,44.836 C7.077,44.789 7.265,44.743 7.452,44.696 C7.499,44.603 7.546,44.509 7.592,44.417 C7.686,44.417 7.780,44.417 7.873,44.417 C7.920,44.323 7.967,44.230 8.014,44.137 C8.107,44.137 8.201,44.137 8.295,44.137 C8.388,43.997 8.482,43.857 8.576,43.717 C8.763,43.671 8.950,43.624 9.137,43.578 C9.184,43.484 9.231,43.391 9.278,43.298 C9.371,43.298 9.465,43.298 9.559,43.298 C9.605,43.205 9.652,43.111 9.699,43.018 C9.793,43.018 9.886,43.018 9.980,43.018 C10.027,42.925 10.074,42.832 10.120,42.739 C10.308,42.692 10.495,42.645 10.682,42.599 C10.729,42.506 10.776,42.412 10.823,42.319 C10.916,42.319 11.010,42.319 11.104,42.319 C11.150,42.226 11.197,42.133 11.244,42.039 C11.478,41.993 11.712,41.946 11.946,41.900 C11.993,41.807 12.040,41.713 12.087,41.620 C12.180,41.620 12.274,41.620 12.368,41.620 C12.368,41.573 12.368,41.527 12.368,41.480 C12.461,41.480 12.555,41.480 12.648,41.480 C12.648,41.434 12.648,41.387 12.648,41.340 C12.742,41.340 12.836,41.340 12.929,41.340 C12.929,41.294 12.929,41.247 12.929,41.200 C13.023,41.200 13.117,41.200 13.210,41.200 C13.257,41.107 13.304,41.014 13.351,40.921 C13.631,40.828 13.912,40.734 14.193,40.641 C14.193,40.595 14.193,40.548 14.193,40.501 C14.287,40.501 14.380,40.501 14.474,40.501 C14.474,40.454 14.474,40.408 14.474,40.361 C14.755,40.268 15.036,40.175 15.317,40.082 C15.317,40.035 15.317,39.989 15.317,39.942 C15.457,39.942 15.598,39.942 15.738,39.942 C15.738,39.896 15.738,39.849 15.738,39.802 C15.925,39.756 16.113,39.709 16.300,39.662 C16.300,39.616 16.300,39.569 16.300,39.523 C16.440,39.523 16.581,39.523 16.721,39.523 C16.721,39.476 16.721,39.429 16.721,39.382 C16.815,39.382 16.908,39.382 17.002,39.382 C17.002,39.336 17.002,39.289 17.002,39.243 C17.142,39.243 17.283,39.243 17.423,39.243 C17.423,39.196 17.423,39.150 17.423,39.103 C17.564,39.103 17.704,39.103 17.845,39.103 C17.845,39.056 17.845,39.010 17.845,38.963 C17.985,38.917 18.125,38.870 18.266,38.824 C18.313,38.963 18.360,39.103 18.406,39.243 C18.453,39.243 18.500,39.243 18.547,39.243 C18.547,39.336 18.547,39.429 18.547,39.523 C18.640,39.569 18.734,39.616 18.828,39.662 C18.828,39.756 18.828,39.849 18.828,39.942 C18.921,39.989 19.015,40.035 19.109,40.082 C19.109,40.175 19.109,40.268 19.109,40.361 C19.202,40.408 19.296,40.454 19.389,40.501 C19.389,40.595 19.389,40.688 19.389,40.781 C19.483,40.828 19.577,40.874 19.670,40.921 C19.717,41.061 19.764,41.200 19.811,41.340 C19.951,41.434 20.092,41.527 20.232,41.620 C20.232,41.713 20.232,41.807 20.232,41.900 C20.373,41.993 20.513,42.086 20.653,42.179 C20.653,42.273 20.653,42.365 20.653,42.459 C20.794,42.552 20.934,42.645 21.075,42.739 C21.122,42.879 21.168,43.018 21.215,43.158 C21.309,43.205 21.403,43.251 21.496,43.298 C21.496,43.391 21.496,43.484 21.496,43.578 C21.590,43.624 21.683,43.671 21.777,43.717 C21.777,43.811 21.777,43.904 21.777,43.997 C21.871,44.044 21.964,44.090 22.058,44.137 C22.105,44.277 22.152,44.417 22.198,44.556 C22.339,44.650 22.479,44.743 22.620,44.836 C22.620,44.929 22.620,45.022 22.620,45.116 C22.760,45.209 22.901,45.302 23.041,45.395 C23.041,45.489 23.041,45.582 23.041,45.675 C23.228,45.815 23.415,45.955 23.603,46.094 C23.649,46.234 23.696,46.374 23.743,46.514 C23.837,46.561 23.930,46.607 24.024,46.654 C24.024,46.747 24.024,46.840 24.024,46.934 C24.211,47.073 24.399,47.213 24.586,47.353 C24.586,47.446 24.586,47.539 24.586,47.633 C24.773,47.772 24.960,47.912 25.147,48.052 C25.147,48.145 25.147,48.238 25.147,48.332 C25.382,48.518 25.616,48.705 25.850,48.891 C25.850,48.984 25.850,49.077 25.850,49.171 C26.084,49.357 26.318,49.544 26.552,49.730 C26.552,49.823 26.552,49.917 26.552,50.010 C26.739,50.149 26.926,50.289 27.114,50.429 C27.114,50.522 27.114,50.616 27.114,50.709 C27.301,50.849 27.488,50.989 27.675,51.128 C27.675,51.221 27.675,51.315 27.675,51.408 C27.863,51.547 28.050,51.688 28.237,51.827 C28.237,51.921 28.237,52.014 28.237,52.107 C28.424,52.247 28.612,52.387 28.799,52.527 C28.799,52.620 28.799,52.713 28.799,52.806 C28.986,52.946 29.174,53.086 29.361,53.226 C29.361,53.319 29.361,53.412 29.361,53.505 C29.501,53.599 29.642,53.692 29.782,53.785 C29.782,53.878 29.782,53.972 29.782,54.065 C29.923,54.158 30.063,54.251 30.203,54.344 C30.203,54.438 30.203,54.530 30.203,54.624 C30.250,54.624 30.297,54.624 30.344,54.624 C30.437,54.764 30.531,54.904 30.625,55.044 C30.784,54.925 30.645,55.061 30.765,54.904 C30.952,54.764 31.140,54.624 31.327,54.484 C31.327,54.391 31.327,54.298 31.327,54.204 C31.514,54.065 31.701,53.925 31.889,53.785 C31.889,53.692 31.889,53.599 31.889,53.505 C32.029,53.412 32.170,53.319 32.310,53.226 C32.310,53.132 32.310,53.039 32.310,52.946 C32.497,52.806 32.685,52.666 32.872,52.527 C32.872,52.433 32.872,52.340 32.872,52.247 C33.059,52.107 33.246,51.967 33.433,51.827 C33.433,51.734 33.433,51.641 33.433,51.547 C33.621,51.408 33.808,51.268 33.995,51.128 C33.995,51.035 33.995,50.942 33.995,50.849 C34.182,50.709 34.370,50.569 34.557,50.429 C34.557,50.336 34.557,50.243 34.557,50.149 C34.744,50.010 34.932,49.870 35.119,49.730 C35.119,49.637 35.119,49.544 35.119,49.450 C35.306,49.310 35.493,49.171 35.681,49.031 C35.681,48.938 35.681,48.844 35.681,48.751 C35.868,48.611 36.055,48.471 36.242,48.332 C36.242,48.238 36.242,48.145 36.242,48.052 C36.476,47.866 36.710,47.679 36.945,47.492 C36.945,47.399 36.945,47.306 36.945,47.213 C37.038,47.166 37.132,47.120 37.225,47.073 C37.272,46.934 37.319,46.794 37.366,46.654 C37.553,46.514 37.740,46.374 37.928,46.234 C37.928,46.141 37.928,46.048 37.928,45.955 C38.021,45.908 38.115,45.861 38.209,45.815 C38.255,45.675 38.302,45.535 38.349,45.395 C38.536,45.255 38.723,45.116 38.911,44.976 C38.911,44.883 38.911,44.789 38.911,44.696 C39.051,44.603 39.192,44.509 39.332,44.417 C39.332,44.323 39.332,44.230 39.332,44.137 C39.472,44.044 39.613,43.951 39.753,43.857 C39.753,43.764 39.753,43.671 39.753,43.578 C39.894,43.484 40.034,43.391 40.175,43.298 C40.221,43.158 40.268,43.018 40.315,42.879 C40.409,42.832 40.502,42.785 40.596,42.739 C40.596,42.645 40.596,42.552 40.596,42.459 C40.690,42.412 40.783,42.365 40.877,42.319 C40.877,42.226 40.877,42.133 40.877,42.039 C40.924,42.039 40.970,42.039 41.017,42.039 C41.064,41.900 41.111,41.760 41.158,41.620 C41.251,41.573 41.345,41.527 41.439,41.480 C41.439,41.387 41.439,41.294 41.439,41.200 C41.532,41.154 41.626,41.107 41.719,41.061 C41.719,40.967 41.719,40.874 41.719,40.781 C41.860,40.688 42.000,40.595 42.141,40.501 C42.141,40.408 42.141,40.315 42.141,40.222 C42.234,40.175 42.328,40.128 42.422,40.082 C42.422,39.989 42.422,39.896 42.422,39.802 C42.515,39.756 42.609,39.709 42.703,39.662 C42.703,39.569 42.703,39.476 42.703,39.382 C42.749,39.382 42.796,39.382 42.843,39.382 C43.008,39.174 43.038,39.135 43.124,38.824 ZM23.603,41.480 C24.679,41.713 25.756,41.946 26.833,42.179 C27.722,42.226 28.612,42.273 29.501,42.319 C29.501,42.365 29.501,42.412 29.501,42.459 C30.344,42.459 31.187,42.459 32.029,42.459 C32.029,42.412 32.029,42.365 32.029,42.319 C32.638,42.319 33.246,42.319 33.855,42.319 C35.306,42.039 36.757,41.760 38.209,41.480 C38.130,41.793 38.091,41.832 37.928,42.039 C37.881,42.039 37.834,42.039 37.787,42.039 C37.787,42.133 37.787,42.226 37.787,42.319 C37.694,42.365 37.600,42.412 37.506,42.459 C37.506,42.552 37.506,42.645 37.506,42.739 C37.366,42.832 37.225,42.925 37.085,43.018 C37.085,43.111 37.085,43.205 37.085,43.298 C36.945,43.391 36.804,43.484 36.664,43.578 C36.664,43.671 36.664,43.764 36.664,43.857 C36.523,43.951 36.383,44.044 36.242,44.137 C36.242,44.230 36.242,44.323 36.242,44.417 C36.149,44.463 36.055,44.510 35.961,44.556 C35.961,44.650 35.961,44.743 35.961,44.836 C35.868,44.883 35.774,44.929 35.681,44.976 C35.634,45.116 35.587,45.255 35.540,45.395 C35.400,45.489 35.259,45.582 35.119,45.675 C35.119,45.768 35.119,45.862 35.119,45.955 C35.025,46.001 34.931,46.048 34.838,46.094 C34.838,46.188 34.838,46.281 34.838,46.374 C34.697,46.467 34.557,46.561 34.417,46.654 C34.417,46.747 34.417,46.840 34.417,46.934 C34.276,47.027 34.136,47.120 33.995,47.213 C33.995,47.306 33.995,47.399 33.995,47.492 C33.855,47.586 33.714,47.679 33.574,47.772 C33.574,47.866 33.574,47.959 33.574,48.052 C33.480,48.099 33.387,48.145 33.293,48.192 C33.293,48.285 33.293,48.378 33.293,48.472 C33.199,48.518 33.106,48.565 33.012,48.611 C32.965,48.751 32.919,48.891 32.872,49.031 C32.731,49.124 32.591,49.217 32.450,49.310 C32.450,49.404 32.450,49.497 32.450,49.590 C32.310,49.683 32.170,49.776 32.029,49.870 C32.029,49.963 32.029,50.056 32.029,50.149 C31.936,50.196 31.842,50.243 31.748,50.289 C31.748,50.383 31.748,50.475 31.748,50.569 C31.608,50.662 31.467,50.755 31.327,50.849 C31.101,51.166 31.059,51.452 30.765,51.688 C30.765,51.641 30.765,51.594 30.765,51.547 C30.388,51.297 30.320,50.947 30.063,50.569 C29.969,50.522 29.876,50.475 29.782,50.429 C29.782,50.336 29.782,50.243 29.782,50.149 C29.642,50.056 29.501,49.963 29.361,49.870 C29.361,49.776 29.361,49.683 29.361,49.590 C29.314,49.590 29.267,49.590 29.220,49.590 C29.174,49.450 29.127,49.310 29.080,49.171 C28.986,49.124 28.893,49.077 28.799,49.031 C28.799,48.938 28.799,48.844 28.799,48.751 C28.659,48.658 28.518,48.564 28.378,48.472 C28.378,48.378 28.378,48.285 28.378,48.192 C28.284,48.145 28.190,48.099 28.097,48.052 C28.097,47.959 28.097,47.866 28.097,47.772 C27.956,47.679 27.816,47.586 27.675,47.492 C27.675,47.399 27.675,47.306 27.675,47.213 C27.582,47.166 27.488,47.120 27.395,47.073 C27.395,46.980 27.395,46.887 27.395,46.794 C27.254,46.700 27.114,46.607 26.973,46.514 C26.973,46.420 26.973,46.328 26.973,46.234 C26.880,46.188 26.786,46.141 26.692,46.094 C26.692,46.001 26.692,45.908 26.692,45.815 C26.552,45.722 26.411,45.628 26.271,45.535 C26.271,45.442 26.271,45.349 26.271,45.255 C26.177,45.209 26.084,45.162 25.990,45.116 C25.990,45.022 25.990,44.929 25.990,44.836 C25.850,44.743 25.709,44.650 25.569,44.556 C25.569,44.463 25.569,44.370 25.569,44.277 C25.522,44.277 25.475,44.277 25.428,44.277 C25.382,44.137 25.335,43.997 25.288,43.857 C25.194,43.811 25.101,43.764 25.007,43.717 C25.007,43.624 25.007,43.531 25.007,43.437 C24.867,43.344 24.726,43.251 24.586,43.158 C24.586,43.065 24.586,42.972 24.586,42.879 C24.492,42.832 24.398,42.785 24.305,42.739 C24.305,42.645 24.305,42.552 24.305,42.459 C24.211,42.412 24.118,42.365 24.024,42.319 C23.977,42.179 23.930,42.039 23.884,41.900 C23.837,41.900 23.790,41.900 23.743,41.900 C23.696,41.760 23.649,41.620 23.603,41.480 Z"/>
</svg>