<svg 
 xmlns="http://www.w3.org/2000/svg"
 xmlns:xlink="http://www.w3.org/1999/xlink"
 width="69px" height="69px">
<path fill-rule="evenodd"  fill="rgb(116, 202, 189)"
 d="M50.663,-0.000 C58.289,-0.100 63.591,3.847 66.500,8.460 C66.591,8.733 66.682,9.006 66.773,9.279 C66.818,9.279 66.864,9.279 66.909,9.279 C66.909,9.370 66.909,9.461 66.909,9.552 C66.955,9.552 67.000,9.552 67.046,9.552 C67.046,9.643 67.046,9.734 67.046,9.825 C67.091,9.825 67.137,9.825 67.182,9.825 C67.273,10.098 67.364,10.371 67.455,10.643 C67.501,10.643 67.547,10.643 67.592,10.643 C67.592,10.780 67.592,10.917 67.592,11.053 C67.638,11.053 67.683,11.053 67.729,11.053 C67.729,11.144 67.729,11.235 67.729,11.326 C67.774,11.326 67.820,11.326 67.865,11.326 C67.865,11.462 67.865,11.599 67.865,11.735 C67.911,11.735 67.956,11.735 68.002,11.735 C68.002,11.872 68.002,12.008 68.002,12.145 C68.047,12.145 68.093,12.145 68.138,12.145 C68.138,12.281 68.138,12.417 68.138,12.554 C68.184,12.554 68.229,12.554 68.275,12.554 C68.275,12.736 68.275,12.918 68.275,13.100 C68.320,13.100 68.366,13.100 68.411,13.100 C68.411,13.282 68.411,13.464 68.411,13.646 C68.457,13.646 68.502,13.646 68.548,13.646 C68.548,13.873 68.548,14.101 68.548,14.328 C68.593,14.328 68.639,14.328 68.684,14.328 C68.684,14.601 68.684,14.874 68.684,15.147 C68.730,15.147 68.775,15.147 68.821,15.147 C68.821,15.693 68.821,16.239 68.821,16.784 C68.866,16.784 68.912,16.784 68.957,16.784 C69.080,17.227 68.887,17.915 68.821,18.149 C68.775,19.013 68.730,19.878 68.684,20.742 C68.639,20.742 68.593,20.742 68.548,20.742 C68.502,21.151 68.457,21.561 68.411,21.970 C68.366,21.970 68.320,21.970 68.275,21.970 C68.275,22.107 68.275,22.243 68.275,22.379 C68.229,22.379 68.184,22.379 68.138,22.379 C68.138,22.516 68.138,22.653 68.138,22.789 C68.093,22.789 68.047,22.789 68.002,22.789 C68.002,22.925 68.002,23.062 68.002,23.199 C67.956,23.199 67.911,23.199 67.865,23.199 C67.820,23.471 67.774,23.744 67.729,24.017 C67.683,24.017 67.638,24.017 67.592,24.017 C67.592,24.108 67.592,24.199 67.592,24.290 C67.547,24.290 67.501,24.290 67.455,24.290 C67.455,24.427 67.455,24.563 67.455,24.699 C67.410,24.699 67.364,24.699 67.319,24.699 C67.228,24.972 67.137,25.245 67.046,25.518 C67.000,25.518 66.955,25.518 66.909,25.518 C66.864,25.700 66.818,25.882 66.773,26.064 C66.682,26.110 66.591,26.155 66.500,26.201 C66.454,26.383 66.409,26.565 66.363,26.746 C66.272,26.792 66.181,26.838 66.090,26.883 C66.090,26.974 66.090,27.065 66.090,27.156 C66.045,27.156 65.999,27.156 65.954,27.156 C65.908,27.292 65.863,27.429 65.817,27.565 C65.726,27.610 65.635,27.656 65.544,27.702 C65.544,27.793 65.544,27.884 65.544,27.975 C65.362,28.111 65.180,28.247 64.998,28.384 C64.998,28.475 64.998,28.566 64.998,28.657 C64.680,28.930 64.361,29.203 64.042,29.476 C64.042,29.567 64.042,29.658 64.042,29.748 C63.314,30.431 62.586,31.113 61.858,31.796 C61.312,32.387 60.766,32.978 60.220,33.570 C58.354,35.389 56.488,37.209 54.622,39.028 C52.802,40.893 50.981,42.758 49.161,44.624 C45.020,48.717 40.878,52.812 36.738,56.905 C34.417,59.270 32.096,61.636 29.775,64.001 C29.684,64.001 29.593,64.001 29.502,64.001 C29.183,64.365 28.865,64.729 28.546,65.093 C28.455,65.093 28.364,65.093 28.273,65.093 C28.182,65.230 28.091,65.366 28.000,65.502 C27.909,65.502 27.818,65.502 27.727,65.502 C27.636,65.639 27.545,65.775 27.454,65.912 C27.363,65.912 27.272,65.912 27.181,65.912 C27.135,66.003 27.090,66.094 27.044,66.185 C26.862,66.230 26.680,66.276 26.498,66.321 C26.453,66.412 26.407,66.503 26.362,66.594 C26.089,66.685 25.816,66.776 25.543,66.867 C25.543,66.913 25.543,66.958 25.543,67.004 C25.452,67.004 25.361,67.004 25.270,67.004 C25.270,67.049 25.270,67.095 25.270,67.140 C25.179,67.140 25.088,67.140 24.997,67.140 C24.997,67.185 24.997,67.231 24.997,67.276 C24.724,67.367 24.450,67.458 24.177,67.549 C24.177,67.595 24.177,67.640 24.177,67.686 C23.904,67.732 23.631,67.777 23.358,67.822 C23.358,67.868 23.358,67.913 23.358,67.959 C23.222,67.959 23.085,67.959 22.949,67.959 C22.949,68.004 22.949,68.050 22.949,68.095 C22.812,68.095 22.676,68.095 22.539,68.095 C22.539,68.141 22.539,68.186 22.539,68.232 C22.403,68.232 22.266,68.232 22.130,68.232 C22.130,68.277 22.130,68.323 22.130,68.368 C21.948,68.368 21.766,68.368 21.583,68.368 C21.583,68.414 21.583,68.459 21.583,68.505 C21.356,68.505 21.128,68.505 20.901,68.505 C20.901,68.550 20.901,68.596 20.901,68.641 C20.673,68.641 20.446,68.641 20.218,68.641 C20.218,68.687 20.218,68.732 20.218,68.777 C19.854,68.777 19.490,68.777 19.126,68.777 C18.614,68.921 16.554,69.113 15.849,68.914 C15.849,68.869 15.849,68.823 15.849,68.777 C15.485,68.777 15.121,68.777 14.757,68.777 C14.757,68.732 14.757,68.687 14.757,68.641 C14.484,68.641 14.211,68.641 13.938,68.641 C13.938,68.596 13.938,68.550 13.938,68.505 C13.756,68.505 13.574,68.505 13.392,68.505 C13.392,68.459 13.392,68.414 13.392,68.368 C13.210,68.368 13.028,68.368 12.846,68.368 C12.846,68.323 12.846,68.277 12.846,68.232 C12.664,68.232 12.482,68.232 12.300,68.232 C12.300,68.186 12.300,68.141 12.300,68.095 C12.163,68.095 12.027,68.095 11.890,68.095 C11.890,68.050 11.890,68.004 11.890,67.959 C11.754,67.959 11.617,67.959 11.481,67.959 C11.481,67.913 11.481,67.868 11.481,67.822 C11.390,67.822 11.299,67.822 11.208,67.822 C11.208,67.777 11.208,67.732 11.208,67.686 C11.071,67.686 10.935,67.686 10.798,67.686 C10.798,67.640 10.798,67.595 10.798,67.549 C10.616,67.504 10.434,67.458 10.252,67.413 C10.252,67.367 10.252,67.322 10.252,67.276 C10.116,67.276 9.979,67.276 9.842,67.276 C9.842,67.231 9.842,67.185 9.842,67.140 C9.751,67.140 9.660,67.140 9.569,67.140 C9.569,67.095 9.569,67.049 9.569,67.004 C9.478,67.004 9.387,67.004 9.296,67.004 C9.251,66.913 9.205,66.821 9.160,66.731 C8.887,66.639 8.614,66.549 8.341,66.458 C8.295,66.367 8.250,66.276 8.204,66.185 C8.113,66.185 8.022,66.185 7.931,66.185 C7.931,66.139 7.931,66.094 7.931,66.048 C7.795,66.003 7.658,65.957 7.522,65.912 C7.476,65.821 7.431,65.730 7.385,65.639 C7.294,65.639 7.203,65.639 7.112,65.639 C7.066,65.548 7.021,65.457 6.975,65.366 C6.839,65.320 6.702,65.275 6.566,65.230 C6.384,65.002 6.202,64.775 6.020,64.547 C5.929,64.547 5.838,64.547 5.747,64.547 C5.428,64.183 5.110,63.819 4.791,63.455 C4.655,63.365 4.518,63.273 4.381,63.182 C4.381,63.092 4.381,63.000 4.381,62.909 C4.154,62.728 3.926,62.546 3.699,62.364 C3.653,62.227 3.608,62.091 3.562,61.954 C3.471,61.909 3.380,61.863 3.289,61.818 C3.289,61.727 3.289,61.636 3.289,61.545 C3.198,61.500 3.107,61.454 3.016,61.408 C2.971,61.272 2.925,61.136 2.880,60.999 C2.834,60.999 2.789,60.999 2.743,60.999 C2.743,60.908 2.743,60.817 2.743,60.726 C2.652,60.681 2.561,60.635 2.470,60.590 C2.425,60.408 2.379,60.226 2.334,60.044 C2.243,59.998 2.152,59.953 2.061,59.907 C1.924,59.498 1.788,59.089 1.651,58.679 C1.605,58.679 1.560,58.679 1.515,58.679 C1.469,58.497 1.423,58.315 1.378,58.133 C1.332,58.133 1.287,58.133 1.241,58.133 C1.196,57.906 1.150,57.678 1.105,57.451 C1.059,57.451 1.014,57.451 0.968,57.451 C0.968,57.315 0.968,57.178 0.968,57.041 C0.923,57.041 0.877,57.041 0.832,57.041 C0.832,56.905 0.832,56.769 0.832,56.632 C0.786,56.632 0.741,56.632 0.695,56.632 C0.695,56.450 0.695,56.268 0.695,56.086 C0.650,56.086 0.604,56.086 0.559,56.086 C0.559,55.905 0.559,55.723 0.559,55.540 C0.513,55.540 0.468,55.540 0.422,55.540 C0.422,55.313 0.422,55.086 0.422,54.858 C-0.141,53.010 -0.145,49.895 0.422,48.035 C0.468,47.626 0.513,47.216 0.559,46.807 C0.604,46.807 0.650,46.807 0.695,46.807 C0.695,46.670 0.695,46.534 0.695,46.398 C0.741,46.398 0.786,46.398 0.832,46.398 C0.832,46.261 0.832,46.124 0.832,45.988 C0.877,45.988 0.923,45.988 0.968,45.988 C0.968,45.851 0.968,45.715 0.968,45.579 C1.014,45.579 1.059,45.579 1.105,45.579 C1.105,45.442 1.105,45.306 1.105,45.169 C1.150,45.169 1.196,45.169 1.241,45.169 C1.241,45.078 1.241,44.987 1.241,44.896 C1.287,44.896 1.332,44.896 1.378,44.896 C1.378,44.760 1.378,44.623 1.378,44.487 C1.423,44.487 1.469,44.487 1.515,44.487 C1.605,44.214 1.697,43.941 1.788,43.668 C1.833,43.668 1.879,43.668 1.924,43.668 C1.924,43.577 1.924,43.486 1.924,43.395 C1.970,43.395 2.015,43.395 2.061,43.395 C2.152,43.122 2.243,42.849 2.334,42.576 C2.425,42.531 2.516,42.485 2.607,42.440 C2.652,42.258 2.698,42.076 2.743,41.894 C2.834,41.849 2.925,41.803 3.016,41.757 C3.016,41.666 3.016,41.576 3.016,41.484 C3.153,41.394 3.289,41.303 3.426,41.212 C3.426,41.121 3.426,41.029 3.426,40.939 C3.562,40.848 3.699,40.757 3.835,40.666 C3.835,40.575 3.835,40.484 3.835,40.393 C4.245,40.029 4.655,39.665 5.064,39.301 C5.064,39.210 5.064,39.119 5.064,39.028 C5.428,38.710 5.792,38.391 6.156,38.073 C6.293,37.891 6.429,37.709 6.566,37.527 C6.657,37.527 6.748,37.527 6.839,37.527 C8.568,35.753 10.298,33.979 12.027,32.205 C12.982,31.295 13.938,30.385 14.894,29.476 C16.240,27.616 18.066,26.169 19.672,24.563 C20.218,23.972 20.764,23.380 21.310,22.789 C23.768,20.378 26.226,17.967 28.683,15.556 C32.187,12.009 35.691,8.460 39.195,4.912 C39.286,4.912 39.377,4.912 39.468,4.912 C39.741,4.594 40.014,4.275 40.287,3.957 C40.378,3.957 40.469,3.957 40.560,3.957 C40.697,3.775 40.833,3.593 40.970,3.411 C41.061,3.411 41.152,3.411 41.243,3.411 C41.288,3.320 41.334,3.229 41.379,3.138 C41.516,3.093 41.652,3.047 41.789,3.002 C41.789,2.956 41.789,2.911 41.789,2.865 C41.880,2.865 41.971,2.865 42.062,2.865 C42.108,2.774 42.153,2.683 42.199,2.592 C42.381,2.547 42.563,2.501 42.745,2.456 C42.790,2.365 42.836,2.274 42.881,2.183 C43.063,2.138 43.245,2.092 43.427,2.046 C43.427,2.001 43.427,1.955 43.427,1.910 C43.700,1.819 43.973,1.728 44.246,1.637 C44.246,1.591 44.246,1.546 44.246,1.501 C44.383,1.501 44.519,1.501 44.656,1.501 C44.656,1.455 44.656,1.410 44.656,1.364 C44.747,1.364 44.838,1.364 44.929,1.364 C44.929,1.318 44.929,1.273 44.929,1.228 C45.066,1.228 45.202,1.228 45.339,1.228 C45.339,1.182 45.339,1.136 45.339,1.091 C45.430,1.091 45.521,1.091 45.612,1.091 C45.612,1.046 45.612,1.000 45.612,0.955 C45.794,0.955 45.976,0.955 46.158,0.955 C46.158,0.909 46.158,0.864 46.158,0.818 C46.294,0.818 46.431,0.818 46.567,0.818 C46.567,0.773 46.567,0.727 46.567,0.682 C46.704,0.682 46.840,0.682 46.977,0.682 C46.977,0.636 46.977,0.591 46.977,0.545 C47.159,0.545 47.341,0.545 47.523,0.545 C47.523,0.500 47.523,0.454 47.523,0.409 C47.796,0.409 48.069,0.409 48.342,0.409 C48.342,0.363 48.342,0.318 48.342,0.272 C48.615,0.272 48.888,0.272 49.161,0.272 C49.161,0.227 49.161,0.181 49.161,0.136 C49.672,-0.011 50.332,0.290 50.663,-0.000 ZM49.298,7.778 C48.958,8.067 48.024,7.891 47.523,8.051 C47.523,8.096 47.523,8.142 47.523,8.187 C47.341,8.187 47.159,8.187 46.977,8.187 C46.977,8.233 46.977,8.278 46.977,8.324 C46.840,8.324 46.704,8.324 46.567,8.324 C46.567,8.369 46.567,8.415 46.567,8.460 C46.431,8.460 46.294,8.460 46.158,8.460 C46.158,8.505 46.158,8.551 46.158,8.597 C46.021,8.597 45.885,8.597 45.748,8.597 C45.748,8.642 45.748,8.688 45.748,8.733 C45.657,8.733 45.566,8.733 45.475,8.733 C45.475,8.779 45.475,8.824 45.475,8.870 C45.066,9.006 44.656,9.142 44.246,9.279 C44.201,9.370 44.155,9.461 44.110,9.552 C43.928,9.597 43.746,9.643 43.564,9.688 C43.518,9.779 43.473,9.870 43.427,9.961 C43.336,9.961 43.245,9.961 43.154,9.961 C43.109,10.052 43.063,10.143 43.018,10.234 C42.927,10.234 42.836,10.234 42.745,10.234 C42.654,10.371 42.563,10.507 42.472,10.643 C42.381,10.643 42.290,10.643 42.199,10.643 C41.243,11.644 40.287,12.645 39.332,13.646 C38.786,14.146 38.239,14.647 37.693,15.147 C36.192,16.693 34.690,18.240 33.188,19.787 C32.278,20.697 31.368,21.606 30.458,22.516 C30.071,22.902 29.529,23.135 29.365,23.744 C30.027,24.124 30.476,24.855 31.004,25.382 C31.654,26.032 32.582,26.619 33.051,27.429 C33.206,27.314 33.071,27.446 33.188,27.292 C33.651,27.024 33.915,26.566 34.280,26.201 C35.099,25.382 35.919,24.563 36.738,23.744 C38.603,21.925 40.470,20.105 42.335,18.286 C43.929,16.692 45.428,15.012 47.387,13.782 C47.569,13.737 47.751,13.691 47.933,13.646 C47.933,13.600 47.933,13.555 47.933,13.509 C48.206,13.418 48.479,13.327 48.752,13.236 C48.752,13.191 48.752,13.145 48.752,13.100 C48.888,13.100 49.025,13.100 49.161,13.100 C49.161,13.054 49.161,13.009 49.161,12.964 C49.298,12.964 49.434,12.964 49.571,12.964 C49.571,12.918 49.571,12.872 49.571,12.827 C49.707,12.827 49.844,12.827 49.980,12.827 C49.980,12.782 49.980,12.736 49.980,12.691 C50.117,12.691 50.254,12.691 50.390,12.691 C50.390,12.645 50.390,12.600 50.390,12.554 C50.572,12.554 50.754,12.554 50.936,12.554 C50.936,12.509 50.936,12.463 50.936,12.417 C51.482,12.372 52.028,12.327 52.574,12.281 C52.985,12.165 54.562,11.973 55.168,12.145 C55.168,12.190 55.168,12.236 55.168,12.281 C55.487,12.281 55.806,12.281 56.124,12.281 C56.124,12.327 56.124,12.372 56.124,12.417 C56.352,12.417 56.579,12.417 56.807,12.417 C56.807,12.463 56.807,12.509 56.807,12.554 C56.989,12.554 57.171,12.554 57.353,12.554 C57.353,12.600 57.353,12.645 57.353,12.691 C57.489,12.691 57.626,12.691 57.762,12.691 C57.762,12.736 57.762,12.782 57.762,12.827 C57.899,12.827 58.035,12.827 58.172,12.827 C58.172,12.872 58.172,12.918 58.172,12.964 C58.445,13.054 58.718,13.145 58.991,13.236 C58.991,13.191 58.991,13.145 58.991,13.100 C59.354,12.900 59.969,12.317 60.083,11.872 C60.038,11.872 59.992,11.872 59.947,11.872 C59.947,11.781 59.947,11.690 59.947,11.599 C59.901,11.599 59.856,11.599 59.810,11.599 C59.765,11.508 59.719,11.417 59.674,11.326 C59.583,11.326 59.492,11.326 59.401,11.326 C59.173,11.053 58.946,10.780 58.718,10.507 C58.627,10.507 58.536,10.507 58.445,10.507 C58.354,10.371 58.263,10.234 58.172,10.098 C58.081,10.098 57.990,10.098 57.899,10.098 C57.853,10.007 57.808,9.916 57.762,9.825 C57.626,9.779 57.489,9.734 57.353,9.688 C57.353,9.643 57.353,9.597 57.353,9.552 C57.080,9.461 56.807,9.370 56.534,9.279 C56.534,9.233 56.534,9.188 56.534,9.142 C56.261,9.052 55.987,8.961 55.714,8.870 C55.714,8.824 55.714,8.779 55.714,8.733 C55.441,8.688 55.168,8.642 54.895,8.597 C54.895,8.551 54.895,8.505 54.895,8.460 C53.339,7.847 51.446,7.788 49.298,7.778 ZM23.495,26.883 C23.139,27.494 22.481,27.896 21.993,28.384 C21.902,28.520 21.811,28.657 21.720,28.794 C20.810,29.658 19.900,30.522 18.990,31.386 C16.441,33.979 13.892,36.572 11.344,39.165 C9.422,41.086 7.367,42.803 5.883,45.169 C5.747,45.579 5.610,45.988 5.474,46.398 C5.428,46.398 5.383,46.398 5.337,46.398 C5.337,46.488 5.337,46.579 5.337,46.670 C5.292,46.670 5.246,46.670 5.201,46.670 C5.155,46.943 5.110,47.216 5.064,47.489 C4.239,49.601 4.169,52.749 4.928,54.995 C4.973,55.313 5.019,55.632 5.064,55.950 C5.110,55.950 5.155,55.950 5.201,55.950 C5.201,56.041 5.201,56.132 5.201,56.223 C5.246,56.223 5.292,56.223 5.337,56.223 C5.337,56.359 5.337,56.496 5.337,56.632 C5.383,56.632 5.428,56.632 5.474,56.632 C5.565,56.905 5.656,57.178 5.747,57.451 C5.792,57.451 5.838,57.451 5.883,57.451 C5.929,57.633 5.974,57.815 6.020,57.997 C6.111,58.043 6.202,58.088 6.293,58.133 C6.338,58.315 6.384,58.497 6.429,58.679 C6.520,58.725 6.611,58.770 6.702,58.815 C6.702,58.907 6.702,58.998 6.702,59.089 C6.839,59.180 6.975,59.270 7.112,59.362 C7.112,59.452 7.112,59.543 7.112,59.634 C7.385,59.862 7.658,60.089 7.931,60.317 C7.931,60.408 7.931,60.499 7.931,60.590 C7.977,60.590 8.022,60.590 8.068,60.590 C8.159,60.726 8.250,60.863 8.341,60.999 C8.432,60.999 8.523,60.999 8.614,60.999 C8.841,61.272 9.069,61.545 9.296,61.818 C9.387,61.818 9.478,61.818 9.569,61.818 C9.660,61.954 9.751,62.091 9.842,62.227 C9.933,62.227 10.024,62.227 10.116,62.227 C10.161,62.318 10.207,62.410 10.252,62.500 C10.343,62.500 10.434,62.500 10.525,62.500 C10.571,62.591 10.616,62.682 10.662,62.773 C10.844,62.819 11.026,62.864 11.208,62.909 C11.208,62.955 11.208,63.000 11.208,63.046 C11.299,63.046 11.390,63.046 11.481,63.046 C11.481,63.092 11.481,63.137 11.481,63.182 C11.754,63.273 12.027,63.365 12.300,63.455 C12.300,63.501 12.300,63.546 12.300,63.592 C12.436,63.592 12.573,63.592 12.709,63.592 C12.709,63.637 12.709,63.683 12.709,63.728 C12.800,63.728 12.892,63.728 12.983,63.728 C12.983,63.774 12.983,63.819 12.983,63.865 C13.119,63.865 13.256,63.865 13.392,63.865 C13.392,63.910 13.392,63.956 13.392,64.001 C13.574,64.001 13.756,64.001 13.938,64.001 C16.187,64.752 19.332,64.697 21.447,63.865 C21.720,63.819 21.993,63.774 22.266,63.728 C22.266,63.683 22.266,63.637 22.266,63.592 C22.357,63.592 22.448,63.592 22.539,63.592 C22.539,63.546 22.539,63.501 22.539,63.455 C22.676,63.455 22.812,63.455 22.949,63.455 C22.949,63.410 22.949,63.365 22.949,63.319 C23.131,63.274 23.313,63.228 23.495,63.182 C23.495,63.137 23.495,63.092 23.495,63.046 C23.677,63.000 23.859,62.955 24.041,62.909 C24.041,62.864 24.041,62.819 24.041,62.773 C24.177,62.728 24.314,62.682 24.451,62.637 C24.496,62.546 24.542,62.455 24.587,62.364 C24.678,62.364 24.769,62.364 24.860,62.364 C24.906,62.272 24.951,62.182 24.997,62.091 C25.088,62.091 25.179,62.091 25.270,62.091 C25.361,61.954 25.452,61.818 25.543,61.682 C25.634,61.682 25.725,61.682 25.816,61.682 C26.726,60.726 27.636,59.771 28.546,58.815 C29.138,58.270 29.729,57.724 30.321,57.178 C31.868,55.586 33.416,53.994 34.963,52.402 C35.463,51.947 35.964,51.492 36.465,51.037 C37.648,49.809 38.831,48.581 40.014,47.353 C40.523,46.844 41.874,45.862 42.062,45.169 C37.512,40.666 32.960,36.162 28.410,31.659 C27.318,30.522 26.225,29.384 25.133,28.247 C25.088,28.247 25.042,28.247 24.997,28.247 C24.547,27.798 24.187,27.072 23.495,26.883 Z"/>
</svg>