<svg 
 xmlns="http://www.w3.org/2000/svg"
 xmlns:xlink="http://www.w3.org/1999/xlink"
 width="64px" height="72px">
<path fill-rule="evenodd"  fill="rgb(116, 202, 189)"
 d="M51.580,32.055 C51.598,33.841 51.187,35.168 51.131,36.781 C52.210,37.253 53.480,39.210 52.777,40.916 C52.727,40.916 52.677,40.916 52.627,40.916 C52.627,41.015 52.627,41.113 52.627,41.211 C52.577,41.211 52.527,41.211 52.478,41.211 C52.478,41.310 52.478,41.408 52.478,41.507 C52.378,41.556 52.278,41.605 52.178,41.654 C52.178,41.753 52.178,41.851 52.178,41.950 C52.128,41.950 52.079,41.950 52.029,41.950 C51.879,42.147 51.729,42.344 51.580,42.541 C51.380,42.590 51.181,42.639 50.981,42.688 C50.981,42.737 50.981,42.787 50.981,42.836 C50.881,42.836 50.782,42.836 50.682,42.836 C50.682,42.885 50.682,42.934 50.682,42.984 C50.411,43.098 49.028,43.275 48.587,43.131 C48.587,43.082 48.587,43.033 48.587,42.984 C48.437,42.984 48.288,42.984 48.138,42.984 C48.138,42.934 48.138,42.885 48.138,42.836 C48.038,42.836 47.938,42.836 47.839,42.836 C47.839,42.787 47.839,42.737 47.839,42.688 C47.739,42.688 47.639,42.688 47.539,42.688 C47.440,42.541 47.340,42.393 47.240,42.245 C47.090,42.196 46.941,42.147 46.791,42.098 C46.791,41.999 46.791,41.901 46.791,41.802 C46.691,41.753 46.592,41.704 46.492,41.654 C46.492,41.556 46.492,41.458 46.492,41.359 C46.442,41.359 46.392,41.359 46.342,41.359 C46.169,41.055 46.338,41.031 46.043,40.768 C46.034,39.522 46.008,38.566 46.492,37.815 C46.592,37.766 46.691,37.716 46.791,37.667 C46.791,37.569 46.791,37.470 46.791,37.371 C46.891,37.323 46.991,37.273 47.090,37.224 C47.090,37.175 47.090,37.126 47.090,37.076 C47.190,37.076 47.290,37.076 47.390,37.076 C47.440,36.978 47.489,36.879 47.539,36.781 C47.639,36.781 47.739,36.781 47.839,36.781 C47.839,36.731 47.839,36.683 47.839,36.633 C47.938,36.633 48.038,36.633 48.138,36.633 C48.138,36.584 48.138,36.535 48.138,36.486 C48.655,36.237 48.517,36.715 48.736,36.043 C48.786,36.043 48.836,36.043 48.886,36.043 C48.886,35.796 48.886,35.550 48.886,35.304 C48.936,35.304 48.986,35.304 49.036,35.304 C49.036,34.959 49.036,34.615 49.036,34.270 C49.086,34.270 49.136,34.270 49.185,34.270 C49.185,33.679 49.185,33.089 49.185,32.498 C49.414,31.681 49.335,30.305 49.335,29.249 C49.335,27.280 49.335,25.310 49.335,23.342 C49.335,20.940 49.626,17.891 49.036,15.957 C49.036,15.711 49.036,15.465 49.036,15.219 C48.088,12.285 46.673,9.605 44.397,7.982 C44.147,7.687 43.898,7.391 43.649,7.096 C43.499,7.047 43.349,6.997 43.200,6.948 C43.150,6.850 43.100,6.751 43.050,6.653 C42.950,6.653 42.851,6.653 42.751,6.653 C42.701,6.554 42.651,6.456 42.601,6.358 C42.452,6.308 42.302,6.259 42.152,6.210 C42.152,6.161 42.152,6.111 42.152,6.062 C41.953,6.013 41.753,5.964 41.554,5.915 C41.504,5.816 41.454,5.718 41.404,5.619 C41.204,5.570 41.005,5.521 40.805,5.471 C40.805,5.422 40.805,5.373 40.805,5.324 C40.506,5.225 40.207,5.127 39.908,5.028 C39.908,4.979 39.908,4.930 39.908,4.881 C39.758,4.881 39.608,4.881 39.459,4.881 C37.286,3.943 35.314,3.404 32.126,3.404 C31.278,3.404 30.430,3.404 29.582,3.404 C29.582,3.453 29.582,3.502 29.582,3.552 C29.233,3.552 28.884,3.552 28.535,3.552 C28.535,3.601 28.535,3.650 28.535,3.699 C28.285,3.699 28.036,3.699 27.787,3.699 C27.787,3.749 27.787,3.798 27.787,3.847 C27.587,3.847 27.388,3.847 27.188,3.847 C27.188,3.896 27.188,3.945 27.188,3.995 C26.988,3.995 26.789,3.995 26.589,3.995 C26.589,4.044 26.589,4.093 26.589,4.142 C26.440,4.142 26.290,4.142 26.140,4.142 C26.140,4.192 26.140,4.241 26.140,4.290 C25.991,4.290 25.841,4.290 25.692,4.290 C25.692,4.339 25.692,4.389 25.692,4.438 C25.542,4.438 25.392,4.438 25.243,4.438 C25.243,4.487 25.243,4.536 25.243,4.585 C25.093,4.585 24.943,4.585 24.794,4.585 C24.794,4.635 24.794,4.684 24.794,4.733 C24.694,4.733 24.594,4.733 24.494,4.733 C24.494,4.782 24.494,4.832 24.494,4.881 C24.345,4.881 24.195,4.881 24.046,4.881 C24.046,4.930 24.046,4.979 24.046,5.028 C23.746,5.127 23.447,5.225 23.148,5.324 C23.148,5.373 23.148,5.422 23.148,5.471 C22.948,5.521 22.749,5.570 22.549,5.619 C22.499,5.718 22.449,5.816 22.400,5.915 C22.200,5.964 22.000,6.013 21.801,6.062 C21.801,6.111 21.801,6.161 21.801,6.210 C21.651,6.259 21.502,6.308 21.352,6.358 C21.302,6.456 21.252,6.554 21.202,6.653 C21.103,6.653 21.003,6.653 20.903,6.653 C20.803,6.801 20.703,6.948 20.604,7.096 C20.504,7.096 20.404,7.096 20.304,7.096 C20.105,7.342 19.905,7.588 19.706,7.834 C19.606,7.834 19.506,7.834 19.407,7.834 C19.157,8.130 18.908,8.425 18.658,8.720 C18.559,8.770 18.459,8.819 18.359,8.868 C18.359,8.967 18.359,9.065 18.359,9.164 C18.110,9.360 17.860,9.557 17.611,9.754 C17.611,9.853 17.611,9.951 17.611,10.050 C17.461,10.148 17.312,10.247 17.162,10.345 C17.162,10.444 17.162,10.542 17.162,10.640 C17.062,10.690 16.962,10.739 16.863,10.788 C16.863,10.887 16.863,10.985 16.863,11.084 C16.763,11.133 16.663,11.182 16.563,11.231 C16.464,11.527 16.364,11.822 16.264,12.117 C16.214,12.117 16.164,12.117 16.115,12.117 C16.115,12.216 16.115,12.314 16.115,12.413 C16.065,12.413 16.015,12.413 15.965,12.413 C15.865,12.708 15.765,13.004 15.666,13.299 C15.616,13.299 15.566,13.299 15.516,13.299 C15.516,13.447 15.516,13.594 15.516,13.742 C15.466,13.742 15.416,13.742 15.366,13.742 C15.366,13.889 15.366,14.037 15.366,14.185 C15.316,14.185 15.267,14.185 15.217,14.185 C15.217,14.333 15.217,14.480 15.217,14.628 C15.167,14.628 15.117,14.628 15.067,14.628 C15.067,14.825 15.067,15.022 15.067,15.219 C15.017,15.219 14.967,15.219 14.917,15.219 C14.917,15.465 14.917,15.711 14.917,15.957 C14.867,15.957 14.818,15.957 14.768,15.957 C14.768,16.302 14.768,16.646 14.768,16.991 C14.718,16.991 14.668,16.991 14.618,16.991 C14.618,18.271 14.618,19.551 14.618,20.831 C14.618,23.046 14.618,25.262 14.618,27.477 C14.618,28.848 14.674,30.471 14.468,31.612 C14.319,31.661 14.169,31.710 14.020,31.759 C14.020,31.809 14.020,31.858 14.020,31.907 C13.920,31.907 13.820,31.907 13.720,31.907 C13.720,31.956 13.720,32.006 13.720,32.055 C12.963,32.321 11.404,31.941 11.027,31.759 C10.927,31.759 10.827,31.759 10.727,31.759 C10.727,31.710 10.727,31.661 10.727,31.612 C10.628,31.612 10.528,31.612 10.428,31.612 C10.378,31.513 10.328,31.415 10.279,31.316 C10.179,31.316 10.079,31.316 9.979,31.316 C9.979,31.267 9.979,31.218 9.979,31.169 C9.780,31.021 9.580,30.873 9.381,30.726 C9.331,30.529 9.281,30.332 9.231,30.135 C9.181,30.135 9.131,30.135 9.081,30.135 C8.636,29.025 8.932,25.462 8.932,23.932 C8.932,22.687 8.662,19.062 9.231,18.468 C9.459,17.589 10.376,17.006 11.176,16.696 C11.574,16.541 12.083,16.655 12.373,16.400 C12.623,15.317 12.872,14.234 13.122,13.151 C13.172,13.151 13.221,13.151 13.271,13.151 C13.271,13.053 13.271,12.954 13.271,12.856 C13.321,12.856 13.371,12.856 13.421,12.856 C13.421,12.708 13.421,12.560 13.421,12.413 C13.471,12.413 13.521,12.413 13.571,12.413 C13.571,12.314 13.571,12.216 13.571,12.117 C13.621,12.117 13.670,12.117 13.720,12.117 C13.720,11.970 13.720,11.822 13.720,11.674 C13.770,11.674 13.820,11.674 13.870,11.674 C13.920,11.477 13.970,11.280 14.020,11.084 C14.069,11.084 14.119,11.084 14.169,11.084 C14.219,10.887 14.269,10.690 14.319,10.493 C14.419,10.444 14.518,10.394 14.618,10.345 C14.668,10.148 14.718,9.951 14.768,9.754 C14.867,9.705 14.967,9.656 15.067,9.607 C15.067,9.508 15.067,9.410 15.067,9.311 C15.167,9.262 15.267,9.213 15.366,9.164 C15.416,9.016 15.466,8.868 15.516,8.720 C15.666,8.622 15.815,8.524 15.965,8.425 C15.965,8.327 15.965,8.228 15.965,8.130 C16.364,7.785 16.763,7.440 17.162,7.096 C17.661,6.554 18.160,6.013 18.658,5.471 C20.822,3.939 23.242,2.736 25.991,1.779 C26.190,1.779 26.390,1.779 26.589,1.779 C26.589,1.730 26.589,1.681 26.589,1.632 C26.789,1.632 26.988,1.632 27.188,1.632 C27.188,1.583 27.188,1.533 27.188,1.484 C27.437,1.484 27.687,1.484 27.936,1.484 C27.936,1.435 27.936,1.386 27.936,1.336 C28.235,1.336 28.535,1.336 28.834,1.336 C30.745,0.792 34.241,0.951 36.017,1.484 C36.266,1.484 36.516,1.484 36.765,1.484 C36.765,1.533 36.765,1.583 36.765,1.632 C37.164,1.681 37.563,1.730 37.962,1.779 C37.962,1.829 37.962,1.878 37.962,1.927 C38.112,1.927 38.261,1.927 38.411,1.927 C38.411,1.976 38.411,2.026 38.411,2.075 C38.561,2.075 38.710,2.075 38.860,2.075 C38.860,2.124 38.860,2.173 38.860,2.223 C39.010,2.223 39.159,2.223 39.309,2.223 C39.309,2.272 39.309,2.321 39.309,2.370 C39.608,2.419 39.908,2.469 40.207,2.518 C40.207,2.567 40.207,2.616 40.207,2.666 C40.506,2.764 40.806,2.862 41.105,2.961 C41.105,3.010 41.105,3.059 41.105,3.109 C41.204,3.109 41.304,3.109 41.404,3.109 C41.404,3.158 41.404,3.207 41.404,3.256 C41.504,3.256 41.604,3.256 41.703,3.256 C41.703,3.306 41.703,3.355 41.703,3.404 C41.803,3.404 41.903,3.404 42.003,3.404 C42.003,3.453 42.003,3.502 42.003,3.552 C42.302,3.650 42.601,3.749 42.900,3.847 C42.950,3.945 43.000,4.044 43.050,4.142 C43.250,4.192 43.449,4.241 43.649,4.290 C43.698,4.389 43.748,4.487 43.798,4.585 C43.898,4.585 43.998,4.585 44.098,4.585 C44.197,4.733 44.297,4.881 44.397,5.028 C44.497,5.028 44.596,5.028 44.696,5.028 C44.796,5.176 44.896,5.324 44.995,5.471 C45.095,5.471 45.195,5.471 45.295,5.471 C45.594,5.816 45.893,6.161 46.193,6.505 C46.292,6.505 46.392,6.505 46.492,6.505 C46.542,6.604 46.592,6.702 46.641,6.801 C46.791,6.899 46.941,6.997 47.090,7.096 C47.090,7.194 47.090,7.293 47.090,7.391 C47.390,7.637 47.689,7.884 47.988,8.130 C47.988,8.228 47.988,8.327 47.988,8.425 C48.138,8.524 48.288,8.622 48.437,8.720 C48.487,8.868 48.537,9.016 48.587,9.164 C48.687,9.213 48.786,9.262 48.886,9.311 C48.886,9.410 48.886,9.508 48.886,9.607 C48.986,9.656 49.086,9.705 49.185,9.754 C49.235,9.951 49.285,10.148 49.335,10.345 C49.435,10.394 49.535,10.444 49.634,10.493 C49.684,10.690 49.734,10.887 49.784,11.084 C49.834,11.084 49.884,11.084 49.934,11.084 C49.983,11.280 50.033,11.477 50.083,11.674 C50.133,11.674 50.183,11.674 50.233,11.674 C50.233,11.822 50.233,11.970 50.233,12.117 C50.283,12.117 50.333,12.117 50.382,12.117 C50.432,12.314 50.482,12.511 50.532,12.708 C50.582,12.708 50.632,12.708 50.682,12.708 C50.981,13.939 51.280,15.170 51.580,16.400 C51.923,16.697 52.465,16.512 52.926,16.696 C52.926,16.745 52.926,16.794 52.926,16.843 C53.026,16.843 53.126,16.843 53.226,16.843 C53.226,16.893 53.226,16.942 53.226,16.991 C53.325,16.991 53.425,16.991 53.525,16.991 C53.575,17.089 53.625,17.188 53.675,17.286 C53.774,17.286 53.874,17.286 53.974,17.286 C54.273,17.680 54.573,18.074 54.872,18.468 C55.016,20.975 55.021,23.997 55.021,26.738 C55.021,27.786 55.234,29.339 54.872,30.135 C54.822,30.135 54.772,30.135 54.722,30.135 C54.722,30.233 54.722,30.332 54.722,30.430 C54.622,30.480 54.523,30.529 54.423,30.578 C54.423,30.676 54.423,30.775 54.423,30.873 C54.373,30.873 54.323,30.873 54.273,30.873 C54.173,31.021 54.074,31.169 53.974,31.316 C53.874,31.316 53.774,31.316 53.675,31.316 C53.625,31.415 53.575,31.513 53.525,31.612 C53.425,31.612 53.325,31.612 53.226,31.612 C53.226,31.661 53.226,31.710 53.226,31.759 C52.785,31.990 52.243,32.052 51.580,32.055 ZM46.342,24.080 C46.392,24.228 46.442,24.375 46.492,24.523 C46.542,24.523 46.592,24.523 46.641,24.523 C46.641,24.670 46.641,24.818 46.641,24.966 C46.691,24.966 46.741,24.966 46.791,24.966 C46.791,25.360 46.791,25.754 46.791,26.148 C46.841,26.148 46.891,26.148 46.941,26.148 C47.143,26.869 46.793,28.316 46.641,28.806 C46.641,29.052 46.641,29.298 46.641,29.544 C46.592,29.544 46.542,29.544 46.492,29.544 C46.492,29.692 46.492,29.840 46.492,29.987 C46.442,29.987 46.392,29.987 46.342,29.987 C46.342,30.135 46.342,30.283 46.342,30.430 C46.292,30.430 46.242,30.430 46.193,30.430 C46.193,30.578 46.193,30.726 46.193,30.873 C46.143,30.873 46.093,30.873 46.043,30.873 C45.993,31.070 45.943,31.267 45.893,31.464 C45.843,31.464 45.794,31.464 45.744,31.464 C45.694,31.710 45.644,31.956 45.594,32.203 C45.494,32.252 45.394,32.301 45.295,32.350 C45.195,32.646 45.095,32.941 44.995,33.236 C44.946,33.236 44.896,33.236 44.846,33.236 C44.796,33.384 44.746,33.532 44.696,33.679 C44.596,33.729 44.497,33.778 44.397,33.827 C44.397,33.926 44.397,34.024 44.397,34.123 C44.197,34.270 43.998,34.418 43.798,34.566 C43.798,34.664 43.798,34.763 43.798,34.861 C43.748,34.861 43.698,34.861 43.649,34.861 C43.549,35.009 43.449,35.156 43.349,35.304 C43.250,35.353 43.150,35.403 43.050,35.452 C42.900,35.993 42.751,36.535 42.601,37.076 C42.551,37.076 42.501,37.076 42.452,37.076 C42.452,37.224 42.452,37.371 42.452,37.519 C42.402,37.519 42.352,37.519 42.302,37.519 C42.202,37.815 42.102,38.110 42.003,38.406 C41.953,38.406 41.903,38.406 41.853,38.406 C41.853,38.504 41.853,38.602 41.853,38.701 C41.803,38.701 41.753,38.701 41.703,38.701 C41.703,38.799 41.703,38.898 41.703,38.996 C41.653,38.996 41.604,38.996 41.554,38.996 C41.504,39.193 41.454,39.390 41.404,39.587 C41.304,39.636 41.204,39.685 41.105,39.735 C41.105,39.833 41.105,39.932 41.105,40.030 C41.005,40.079 40.905,40.128 40.805,40.178 C40.805,40.276 40.805,40.375 40.805,40.473 C40.656,40.571 40.506,40.670 40.357,40.768 C40.357,40.867 40.357,40.965 40.357,41.064 C40.107,41.261 39.858,41.458 39.608,41.654 C39.209,42.098 38.810,42.541 38.411,42.984 C38.311,42.984 38.212,42.984 38.112,42.984 C38.012,43.131 37.912,43.279 37.813,43.427 C37.713,43.427 37.613,43.427 37.513,43.427 C37.463,43.525 37.414,43.624 37.364,43.722 C37.064,43.821 36.765,43.919 36.466,44.017 C36.416,44.116 36.366,44.214 36.316,44.313 C36.167,44.313 36.017,44.313 35.867,44.313 C35.867,44.362 35.867,44.411 35.867,44.461 C35.668,44.510 35.468,44.559 35.269,44.608 C35.269,44.657 35.269,44.707 35.269,44.756 C34.920,44.805 34.570,44.854 34.221,44.904 C34.221,44.953 34.221,45.002 34.221,45.051 C34.022,45.051 33.822,45.051 33.623,45.051 C32.338,45.452 30.922,45.303 29.732,44.904 C29.532,44.904 29.333,44.904 29.133,44.904 C29.133,44.854 29.133,44.805 29.133,44.756 C29.034,44.756 28.934,44.756 28.834,44.756 C28.834,44.707 28.834,44.657 28.834,44.608 C28.684,44.608 28.535,44.608 28.385,44.608 C28.385,44.559 28.385,44.510 28.385,44.461 C28.086,44.362 27.787,44.263 27.487,44.165 C27.487,44.116 27.487,44.067 27.487,44.017 C27.388,44.017 27.288,44.017 27.188,44.017 C27.188,43.968 27.188,43.919 27.188,43.870 C26.988,43.821 26.789,43.771 26.589,43.722 C26.540,43.624 26.490,43.525 26.440,43.427 C26.340,43.427 26.240,43.427 26.140,43.427 C26.041,43.279 25.941,43.131 25.841,42.984 C25.742,42.984 25.642,42.984 25.542,42.984 C25.143,42.541 24.744,42.098 24.345,41.654 C24.095,41.458 23.846,41.261 23.597,41.064 C23.597,40.965 23.597,40.867 23.597,40.768 C23.447,40.670 23.297,40.571 23.148,40.473 C23.148,40.375 23.148,40.276 23.148,40.178 C23.048,40.128 22.948,40.079 22.848,40.030 C22.848,39.932 22.848,39.833 22.848,39.735 C22.749,39.685 22.649,39.636 22.549,39.587 C22.449,39.292 22.350,38.996 22.250,38.701 C22.200,38.701 22.150,38.701 22.100,38.701 C22.100,38.602 22.100,38.504 22.100,38.406 C22.050,38.406 22.000,38.406 21.951,38.406 C21.851,38.110 21.751,37.815 21.651,37.519 C21.601,37.519 21.552,37.519 21.502,37.519 C21.502,37.371 21.502,37.224 21.502,37.076 C21.452,37.076 21.402,37.076 21.352,37.076 C21.352,36.978 21.352,36.879 21.352,36.781 C21.302,36.781 21.252,36.781 21.202,36.781 C21.103,36.338 21.003,35.894 20.903,35.452 C20.803,35.403 20.703,35.353 20.604,35.304 C20.504,35.156 20.404,35.009 20.304,34.861 C20.255,34.861 20.205,34.861 20.155,34.861 C20.155,34.763 20.155,34.664 20.155,34.566 C19.955,34.418 19.756,34.270 19.556,34.123 C19.556,34.024 19.556,33.926 19.556,33.827 C19.457,33.778 19.357,33.729 19.257,33.679 C19.257,33.581 19.257,33.483 19.257,33.384 C19.157,33.335 19.057,33.286 18.958,33.236 C18.858,32.941 18.758,32.646 18.658,32.350 C18.559,32.301 18.459,32.252 18.359,32.203 C18.309,31.956 18.259,31.710 18.209,31.464 C18.160,31.464 18.110,31.464 18.060,31.464 C18.010,31.267 17.960,31.070 17.910,30.873 C17.860,30.873 17.810,30.873 17.761,30.873 C17.661,30.381 17.561,29.889 17.461,29.397 C17.411,29.397 17.361,29.397 17.312,29.397 C17.312,29.200 17.312,29.003 17.312,28.806 C17.158,28.329 16.811,26.856 17.012,26.148 C17.062,26.148 17.112,26.148 17.162,26.148 C17.162,25.754 17.162,25.360 17.162,24.966 C17.212,24.966 17.262,24.966 17.312,24.966 C17.312,24.818 17.312,24.670 17.312,24.523 C17.361,24.523 17.411,24.523 17.461,24.523 C17.511,24.375 17.561,24.228 17.611,24.080 C17.860,24.030 18.110,23.982 18.359,23.932 C18.359,23.883 18.359,23.834 18.359,23.785 C18.646,23.464 18.509,22.437 18.509,21.865 C18.509,20.191 18.509,18.517 18.509,16.843 C18.559,16.843 18.609,16.843 18.658,16.843 C18.658,16.499 18.658,16.154 18.658,15.810 C18.908,14.923 19.157,14.037 19.407,13.151 C19.457,13.151 19.506,13.151 19.556,13.151 C19.556,13.053 19.556,12.954 19.556,12.856 C19.606,12.856 19.656,12.856 19.706,12.856 C19.706,12.757 19.706,12.659 19.706,12.560 C19.756,12.560 19.806,12.560 19.856,12.560 C19.856,12.462 19.856,12.364 19.856,12.265 C19.905,12.265 19.955,12.265 20.005,12.265 C20.005,12.167 20.005,12.068 20.005,11.969 C20.055,11.969 20.105,11.969 20.155,11.969 C20.155,11.871 20.155,11.773 20.155,11.674 C20.205,11.674 20.255,11.674 20.304,11.674 C20.304,11.576 20.304,11.477 20.304,11.379 C20.404,11.330 20.504,11.280 20.604,11.231 C20.604,11.133 20.604,11.034 20.604,10.936 C20.996,10.354 21.599,9.799 22.100,9.311 C22.200,9.164 22.300,9.016 22.400,8.868 C22.499,8.868 22.599,8.868 22.699,8.868 C22.848,8.671 22.998,8.474 23.148,8.277 C23.247,8.277 23.347,8.277 23.447,8.277 C23.497,8.179 23.547,8.080 23.597,7.982 C23.696,7.982 23.796,7.982 23.896,7.982 C23.946,7.884 23.996,7.785 24.046,7.687 C24.245,7.637 24.445,7.588 24.644,7.539 C24.644,7.490 24.644,7.441 24.644,7.391 C24.943,7.293 25.243,7.194 25.542,7.096 C25.542,7.047 25.542,6.997 25.542,6.948 C25.692,6.948 25.841,6.948 25.991,6.948 C25.991,6.899 25.991,6.850 25.991,6.801 C26.140,6.801 26.290,6.801 26.440,6.801 C26.440,6.751 26.440,6.702 26.440,6.653 C26.589,6.653 26.739,6.653 26.889,6.653 C26.889,6.604 26.889,6.554 26.889,6.505 C27.088,6.505 27.288,6.505 27.487,6.505 C27.487,6.456 27.487,6.407 27.487,6.358 C27.687,6.358 27.886,6.358 28.086,6.358 C28.086,6.308 28.086,6.259 28.086,6.210 C28.385,6.210 28.684,6.210 28.984,6.210 C30.524,5.772 33.430,5.767 34.969,6.210 C35.269,6.210 35.568,6.210 35.867,6.210 C35.867,6.259 35.867,6.308 35.867,6.358 C36.117,6.358 36.366,6.358 36.615,6.358 C36.615,6.407 36.615,6.456 36.615,6.505 C36.765,6.505 36.915,6.505 37.064,6.505 C37.064,6.554 37.064,6.604 37.064,6.653 C37.214,6.653 37.364,6.653 37.513,6.653 C37.513,6.702 37.513,6.751 37.513,6.801 C37.663,6.801 37.813,6.801 37.962,6.801 C37.962,6.850 37.962,6.899 37.962,6.948 C38.112,6.948 38.261,6.948 38.411,6.948 C38.411,6.997 38.411,7.047 38.411,7.096 C38.611,7.145 38.810,7.194 39.010,7.244 C39.010,7.293 39.010,7.342 39.010,7.391 C39.309,7.490 39.608,7.588 39.908,7.687 C39.957,7.785 40.007,7.884 40.057,7.982 C40.157,7.982 40.257,7.982 40.357,7.982 C40.406,8.080 40.456,8.179 40.506,8.277 C40.606,8.277 40.706,8.277 40.805,8.277 C40.955,8.474 41.105,8.671 41.254,8.868 C41.354,8.868 41.454,8.868 41.554,8.868 C41.753,9.114 41.953,9.360 42.152,9.607 C42.252,9.656 42.352,9.705 42.452,9.754 C42.452,9.853 42.452,9.951 42.452,10.050 C42.651,10.197 42.851,10.345 43.050,10.493 C43.050,10.591 43.050,10.690 43.050,10.788 C43.150,10.837 43.250,10.887 43.349,10.936 C43.399,11.084 43.449,11.231 43.499,11.379 C43.549,11.379 43.599,11.379 43.649,11.379 C43.698,11.576 43.748,11.773 43.798,11.969 C43.848,11.969 43.898,11.969 43.948,11.969 C43.948,12.068 43.948,12.167 43.948,12.265 C43.998,12.265 44.048,12.265 44.098,12.265 C44.197,12.560 44.297,12.856 44.397,13.151 C44.447,13.151 44.497,13.151 44.546,13.151 C44.546,13.299 44.546,13.447 44.546,13.594 C44.596,13.594 44.646,13.594 44.696,13.594 C44.696,13.742 44.696,13.890 44.696,14.037 C44.746,14.037 44.796,14.037 44.846,14.037 C44.846,14.185 44.846,14.333 44.846,14.480 C44.896,14.480 44.946,14.480 44.995,14.480 C44.995,14.677 44.995,14.874 44.995,15.071 C45.045,15.071 45.095,15.071 45.145,15.071 C45.145,15.268 45.145,15.465 45.145,15.662 C45.195,15.662 45.245,15.662 45.295,15.662 C45.295,16.056 45.295,16.450 45.295,16.843 C45.748,18.436 45.450,21.834 45.444,23.785 C45.744,23.883 46.043,23.982 46.342,24.080 ZM21.202,44.017 C21.213,44.756 21.466,45.512 21.651,46.085 C21.651,46.331 21.651,46.577 21.651,46.824 C21.701,46.824 21.751,46.824 21.801,46.824 C21.851,47.267 21.901,47.710 21.951,48.152 C22.000,48.152 22.050,48.152 22.100,48.152 C22.100,48.350 22.100,48.547 22.100,48.744 C22.150,48.744 22.200,48.744 22.250,48.744 C22.250,48.940 22.250,49.137 22.250,49.334 C22.300,49.334 22.350,49.334 22.400,49.334 C22.400,49.531 22.400,49.728 22.400,49.925 C22.449,49.925 22.499,49.925 22.549,49.925 C22.599,50.319 22.649,50.713 22.699,51.107 C23.076,52.183 23.477,53.475 23.896,54.503 C23.946,54.798 23.996,55.094 24.046,55.389 C24.095,55.389 24.145,55.389 24.195,55.389 C24.195,55.488 24.195,55.586 24.195,55.685 C24.245,55.685 24.295,55.685 24.345,55.685 C24.395,55.980 24.445,56.275 24.494,56.571 C24.544,56.571 24.594,56.571 24.644,56.571 C24.644,56.669 24.644,56.768 24.644,56.866 C24.694,56.866 24.744,56.866 24.794,56.866 C24.794,57.014 24.794,57.162 24.794,57.309 C24.844,57.309 24.894,57.309 24.943,57.309 C24.993,57.506 25.043,57.703 25.093,57.900 C25.143,57.900 25.193,57.900 25.243,57.900 C25.243,58.048 25.243,58.195 25.243,58.343 C25.293,58.343 25.342,58.343 25.392,58.343 C25.392,58.441 25.392,58.540 25.392,58.638 C25.442,58.638 25.492,58.638 25.542,58.638 C25.542,58.737 25.542,58.835 25.542,58.934 C25.592,58.934 25.642,58.934 25.692,58.934 C25.692,59.032 25.692,59.131 25.692,59.229 C25.741,59.229 25.791,59.229 25.841,59.229 C25.841,59.328 25.841,59.426 25.841,59.525 C25.891,59.525 25.941,59.525 25.991,59.525 C25.991,59.623 25.991,59.721 25.991,59.820 C26.041,59.820 26.091,59.820 26.140,59.820 C26.140,59.918 26.140,60.017 26.140,60.115 C26.190,60.115 26.240,60.115 26.290,60.115 C26.290,60.213 26.290,60.312 26.290,60.411 C26.340,60.411 26.390,60.411 26.440,60.411 C26.440,60.509 26.440,60.608 26.440,60.706 C26.490,60.706 26.540,60.706 26.589,60.706 C26.589,60.805 26.589,60.903 26.589,61.001 C26.639,61.001 26.689,61.001 26.739,61.001 C26.739,61.100 26.739,61.198 26.739,61.297 C26.789,61.297 26.839,61.297 26.889,61.297 C26.889,61.395 26.889,61.493 26.889,61.592 C26.988,61.641 27.088,61.691 27.188,61.740 C27.288,62.035 27.388,62.331 27.487,62.626 C27.587,62.675 27.687,62.724 27.787,62.773 C27.836,62.971 27.886,63.168 27.936,63.364 C27.986,63.364 28.036,63.364 28.086,63.364 C28.136,63.512 28.186,63.660 28.236,63.807 C28.335,63.857 28.435,63.906 28.535,63.955 C28.535,64.053 28.535,64.152 28.535,64.250 C28.635,64.300 28.734,64.349 28.834,64.398 C28.834,64.497 28.834,64.595 28.834,64.693 C28.884,64.693 28.934,64.693 28.984,64.693 C29.034,64.841 29.083,64.989 29.133,65.137 C29.233,65.186 29.333,65.235 29.433,65.284 C29.433,65.383 29.433,65.481 29.433,65.580 C29.582,65.678 29.732,65.777 29.882,65.875 C29.882,65.973 29.882,66.072 29.882,66.170 C30.031,66.269 30.181,66.367 30.330,66.466 C30.330,66.564 30.330,66.663 30.330,66.761 C30.480,66.860 30.630,66.958 30.779,67.056 C30.779,67.155 30.779,67.253 30.779,67.352 C30.829,67.352 30.879,67.352 30.929,67.352 C31.178,67.647 31.428,67.943 31.677,68.238 C31.877,68.238 32.076,68.238 32.276,68.238 C32.525,67.943 32.775,67.647 33.024,67.352 C33.074,67.352 33.124,67.352 33.174,67.352 C33.174,67.253 33.174,67.155 33.174,67.056 C33.323,66.958 33.473,66.860 33.623,66.761 C33.623,66.663 33.623,66.564 33.623,66.466 C33.772,66.367 33.922,66.269 34.072,66.170 C34.072,66.072 34.072,65.973 34.072,65.875 C34.221,65.777 34.371,65.678 34.521,65.580 C34.521,65.481 34.521,65.383 34.521,65.284 C34.620,65.235 34.720,65.186 34.820,65.137 C34.820,65.038 34.820,64.940 34.820,64.841 C34.919,64.792 35.019,64.743 35.119,64.693 C35.119,64.595 35.119,64.497 35.119,64.398 C35.219,64.349 35.319,64.300 35.418,64.250 C35.418,64.152 35.418,64.053 35.418,63.955 C35.518,63.906 35.618,63.857 35.718,63.807 C35.767,63.611 35.817,63.413 35.867,63.217 C35.967,63.168 36.067,63.118 36.167,63.069 C36.216,62.921 36.266,62.773 36.316,62.626 C36.366,62.626 36.416,62.626 36.466,62.626 C36.566,62.331 36.665,62.035 36.765,61.740 C36.865,61.691 36.965,61.641 37.064,61.592 C37.064,61.493 37.064,61.395 37.064,61.297 C37.114,61.297 37.164,61.297 37.214,61.297 C37.214,61.198 37.214,61.100 37.214,61.001 C37.264,61.001 37.314,61.001 37.364,61.001 C37.364,60.903 37.364,60.805 37.364,60.706 C37.414,60.706 37.463,60.706 37.513,60.706 C37.513,60.608 37.513,60.509 37.513,60.411 C37.563,60.411 37.613,60.411 37.663,60.411 C37.663,60.312 37.663,60.213 37.663,60.115 C37.713,60.115 37.763,60.115 37.813,60.115 C37.813,60.017 37.813,59.918 37.813,59.820 C37.862,59.820 37.912,59.820 37.962,59.820 C37.962,59.721 37.962,59.623 37.962,59.525 C38.012,59.525 38.062,59.525 38.112,59.525 C38.112,59.426 38.112,59.328 38.112,59.229 C38.162,59.229 38.212,59.229 38.261,59.229 C38.361,58.934 38.461,58.638 38.561,58.343 C38.611,58.343 38.661,58.343 38.710,58.343 C38.710,58.195 38.710,58.048 38.710,57.900 C38.760,57.900 38.810,57.900 38.860,57.900 C38.910,57.703 38.960,57.506 39.010,57.309 C39.060,57.309 39.109,57.309 39.159,57.309 C39.159,57.162 39.159,57.014 39.159,56.866 C39.209,56.866 39.259,56.866 39.309,56.866 C39.309,56.768 39.309,56.669 39.309,56.571 C39.359,56.571 39.409,56.571 39.459,56.571 C39.459,56.423 39.459,56.275 39.459,56.128 C39.509,56.128 39.558,56.128 39.608,56.128 C39.608,56.029 39.608,55.931 39.608,55.832 C39.658,55.832 39.708,55.832 39.758,55.832 C39.808,55.537 39.858,55.242 39.908,54.946 C39.957,54.946 40.007,54.946 40.057,54.946 C40.057,54.798 40.057,54.651 40.057,54.503 C40.107,54.503 40.157,54.503 40.207,54.503 C40.207,54.355 40.207,54.208 40.207,54.060 C40.257,54.060 40.307,54.060 40.357,54.060 C40.357,53.912 40.357,53.765 40.357,53.617 C40.406,53.617 40.456,53.617 40.506,53.617 C40.506,53.469 40.506,53.322 40.506,53.174 C40.556,53.174 40.606,53.174 40.656,53.174 C40.656,52.977 40.656,52.780 40.656,52.583 C40.706,52.583 40.756,52.583 40.805,52.583 C40.805,52.436 40.805,52.288 40.805,52.140 C40.855,52.140 40.905,52.140 40.955,52.140 C40.955,51.993 40.955,51.845 40.955,51.697 C41.005,51.697 41.055,51.697 41.105,51.697 C41.105,51.500 41.105,51.303 41.105,51.107 C41.155,51.107 41.204,51.107 41.254,51.107 C41.304,50.713 41.354,50.319 41.404,49.925 C41.454,49.925 41.504,49.925 41.554,49.925 C41.554,49.728 41.554,49.531 41.554,49.334 C41.604,49.334 41.653,49.334 41.703,49.334 C41.703,49.137 41.703,48.940 41.703,48.744 C41.753,48.744 41.803,48.744 41.853,48.744 C41.853,48.547 41.853,48.350 41.853,48.152 C41.903,48.152 41.953,48.152 42.003,48.152 C42.052,47.710 42.102,47.267 42.152,46.824 C42.202,46.824 42.252,46.824 42.302,46.824 C42.302,46.577 42.302,46.331 42.302,46.085 C42.493,45.482 42.704,44.783 42.751,44.017 C43.386,44.145 43.772,44.512 44.247,44.756 C44.347,44.756 44.447,44.756 44.546,44.756 C44.546,44.805 44.546,44.854 44.546,44.904 C44.696,44.904 44.846,44.904 44.995,44.904 C44.995,44.953 44.995,45.002 44.995,45.051 C45.195,45.101 45.394,45.150 45.594,45.199 C45.594,45.248 45.594,45.297 45.594,45.347 C45.744,45.347 45.893,45.347 46.043,45.347 C46.043,45.396 46.043,45.445 46.043,45.494 C46.242,45.544 46.442,45.593 46.641,45.642 C46.641,45.691 46.641,45.740 46.641,45.790 C46.791,45.790 46.941,45.790 47.090,45.790 C47.090,45.839 47.090,45.888 47.090,45.937 C47.190,45.937 47.290,45.937 47.390,45.937 C47.390,45.987 47.390,46.036 47.390,46.085 C47.639,46.134 47.888,46.184 48.138,46.233 C48.138,46.282 48.138,46.331 48.138,46.380 C48.288,46.380 48.437,46.380 48.587,46.380 C48.587,46.430 48.587,46.479 48.587,46.528 C48.687,46.528 48.786,46.528 48.886,46.528 C48.886,46.577 48.886,46.627 48.886,46.676 C49.036,46.676 49.185,46.676 49.335,46.676 C49.335,46.725 49.335,46.774 49.335,46.824 C49.435,46.824 49.535,46.824 49.634,46.824 C49.634,46.873 49.634,46.922 49.634,46.971 C50.133,47.119 50.632,47.267 51.131,47.414 C51.131,47.464 51.131,47.513 51.131,47.562 C51.330,47.611 51.530,47.660 51.729,47.710 C51.729,47.759 51.729,47.808 51.729,47.857 C51.879,47.857 52.029,47.857 52.178,47.857 C52.178,47.907 52.178,47.956 52.178,48.005 C52.477,48.104 52.777,48.202 53.076,48.300 C53.076,48.350 53.076,48.399 53.076,48.448 C53.176,48.448 53.276,48.448 53.375,48.448 C53.375,48.497 53.375,48.547 53.375,48.596 C53.475,48.596 53.575,48.596 53.675,48.596 C53.675,48.645 53.675,48.694 53.675,48.744 C53.774,48.744 53.874,48.744 53.974,48.744 C53.974,48.792 53.974,48.842 53.974,48.891 C54.074,48.891 54.173,48.891 54.273,48.891 C54.273,48.940 54.273,48.990 54.273,49.039 C54.373,49.039 54.473,49.039 54.573,49.039 C54.573,49.088 54.573,49.137 54.573,49.187 C54.672,49.187 54.772,49.187 54.872,49.187 C54.922,49.285 54.972,49.384 55.021,49.482 C55.221,49.531 55.421,49.580 55.620,49.630 C55.620,49.679 55.620,49.728 55.620,49.777 C55.770,49.827 55.919,49.876 56.069,49.925 C56.119,50.024 56.169,50.122 56.219,50.220 C56.318,50.220 56.418,50.220 56.518,50.220 C56.568,50.319 56.618,50.417 56.667,50.516 C56.767,50.516 56.867,50.516 56.967,50.516 C57.067,50.663 57.166,50.811 57.266,50.959 C57.366,50.959 57.466,50.959 57.565,50.959 C57.715,51.156 57.865,51.353 58.014,51.550 C58.413,51.894 58.812,52.239 59.211,52.583 C59.211,52.682 59.211,52.780 59.211,52.879 C59.411,53.026 59.610,53.174 59.810,53.322 C59.810,53.420 59.810,53.519 59.810,53.617 C59.910,53.666 60.009,53.715 60.109,53.765 C60.109,53.863 60.109,53.962 60.109,54.060 C60.209,54.109 60.309,54.159 60.409,54.208 C60.409,54.306 60.409,54.405 60.409,54.503 C60.508,54.552 60.608,54.602 60.708,54.651 C60.758,54.798 60.808,54.946 60.857,55.094 C60.907,55.094 60.957,55.094 61.007,55.094 C61.057,55.291 61.107,55.488 61.157,55.685 C61.256,55.734 61.356,55.783 61.456,55.832 C61.556,56.128 61.656,56.423 61.755,56.718 C61.805,56.718 61.855,56.718 61.905,56.718 C61.905,56.817 61.905,56.915 61.905,57.014 C61.955,57.014 62.005,57.014 62.055,57.014 C62.154,57.309 62.254,57.605 62.354,57.900 C62.404,57.900 62.454,57.900 62.504,57.900 C62.504,58.048 62.504,58.195 62.504,58.343 C62.553,58.343 62.603,58.343 62.653,58.343 C62.653,58.441 62.653,58.540 62.653,58.638 C62.703,58.638 62.753,58.638 62.803,58.638 C62.803,58.786 62.803,58.934 62.803,59.081 C62.853,59.081 62.903,59.081 62.952,59.081 C62.952,59.229 62.952,59.377 62.952,59.525 C63.002,59.525 63.052,59.525 63.102,59.525 C63.102,59.672 63.102,59.820 63.102,59.968 C63.152,59.968 63.202,59.968 63.252,59.968 C63.252,60.165 63.252,60.361 63.252,60.558 C63.302,60.558 63.352,60.558 63.401,60.558 C63.401,60.755 63.401,60.952 63.401,61.149 C63.451,61.149 63.501,61.149 63.551,61.149 C63.551,61.395 63.551,61.642 63.551,61.888 C63.601,61.888 63.651,61.888 63.701,61.888 C63.701,62.183 63.701,62.478 63.701,62.773 C63.751,62.773 63.800,62.773 63.850,62.773 C63.850,63.463 63.850,64.152 63.850,64.841 C63.900,64.841 63.950,64.841 64.000,64.841 C64.000,65.087 64.000,65.333 64.000,65.580 C63.950,65.580 63.900,65.580 63.850,65.580 C63.800,66.121 63.751,66.663 63.701,67.204 C63.401,67.450 63.102,67.696 62.803,67.943 C62.803,67.992 62.803,68.041 62.803,68.090 C62.703,68.090 62.603,68.090 62.504,68.090 C62.504,68.140 62.504,68.189 62.504,68.238 C62.204,68.336 61.905,68.435 61.606,68.533 C61.606,68.583 61.606,68.632 61.606,68.681 C61.456,68.681 61.306,68.681 61.157,68.681 C61.157,68.730 61.157,68.780 61.157,68.829 C60.808,68.878 60.458,68.927 60.109,68.976 C60.109,69.025 60.109,69.075 60.109,69.124 C59.511,69.173 58.912,69.223 58.314,69.272 C56.305,69.866 53.767,69.866 51.729,70.453 C50.981,70.502 50.233,70.552 49.485,70.601 C47.969,71.031 45.937,70.906 44.397,71.340 C43.898,71.340 43.399,71.340 42.900,71.340 C42.900,71.389 42.900,71.438 42.900,71.487 C42.302,71.487 41.703,71.487 41.105,71.487 C41.105,71.536 41.105,71.586 41.105,71.635 C40.955,71.635 40.805,71.635 40.656,71.635 C40.107,71.635 39.558,71.635 39.010,71.635 C38.237,71.848 36.884,71.544 36.017,71.782 C34.639,72.161 32.424,71.930 30.779,71.930 C29.843,71.930 28.636,71.977 27.936,71.782 C27.388,71.782 26.839,71.782 26.290,71.782 C25.143,71.733 23.996,71.684 22.848,71.635 C22.848,71.586 22.848,71.536 22.848,71.487 C22.250,71.487 21.651,71.487 21.053,71.487 C21.053,71.438 21.053,71.389 21.053,71.340 C20.554,71.340 20.055,71.340 19.556,71.340 C18.041,70.910 15.965,71.028 14.468,70.601 C13.720,70.552 12.972,70.502 12.224,70.453 C9.676,69.713 6.487,69.749 3.994,68.976 C3.744,68.976 3.495,68.976 3.245,68.976 C3.245,68.927 3.245,68.878 3.245,68.829 C3.096,68.829 2.946,68.829 2.796,68.829 C1.899,68.478 0.385,67.833 0.252,66.761 C-0.198,66.256 0.086,64.781 0.103,64.103 C0.167,61.479 0.806,59.374 1.749,57.605 C1.749,57.506 1.749,57.408 1.749,57.309 C1.799,57.309 1.849,57.309 1.899,57.309 C1.899,57.211 1.899,57.112 1.899,57.014 C1.948,57.014 1.998,57.014 2.048,57.014 C2.048,56.915 2.048,56.817 2.048,56.718 C2.098,56.718 2.148,56.718 2.198,56.718 C2.198,56.620 2.198,56.522 2.198,56.423 C2.248,56.423 2.298,56.423 2.347,56.423 C2.347,56.325 2.347,56.226 2.347,56.128 C2.397,56.128 2.447,56.128 2.497,56.128 C2.497,56.029 2.497,55.931 2.497,55.832 C2.547,55.832 2.597,55.832 2.647,55.832 C2.647,55.734 2.647,55.635 2.647,55.537 C2.746,55.488 2.846,55.438 2.946,55.389 C2.946,55.291 2.946,55.192 2.946,55.094 C3.046,55.045 3.146,54.995 3.245,54.946 C3.295,54.749 3.345,54.552 3.395,54.355 C3.545,54.257 3.694,54.159 3.844,54.060 C3.844,53.962 3.844,53.863 3.844,53.765 C3.944,53.715 4.043,53.666 4.143,53.617 C4.143,53.519 4.143,53.420 4.143,53.322 C4.293,53.223 4.442,53.125 4.592,53.026 C4.592,52.928 4.592,52.829 4.592,52.731 C4.941,52.436 5.290,52.140 5.640,51.845 C5.889,51.550 6.138,51.254 6.388,50.959 C6.488,50.959 6.587,50.959 6.687,50.959 C6.787,50.811 6.887,50.663 6.986,50.516 C7.086,50.516 7.186,50.516 7.286,50.516 C7.336,50.417 7.385,50.319 7.435,50.220 C7.535,50.220 7.635,50.220 7.735,50.220 C7.784,50.122 7.834,50.024 7.884,49.925 C8.034,49.876 8.184,49.827 8.333,49.777 C8.333,49.728 8.333,49.679 8.333,49.630 C8.533,49.580 8.732,49.531 8.932,49.482 C8.982,49.384 9.031,49.285 9.081,49.187 C9.181,49.187 9.281,49.187 9.381,49.187 C9.381,49.137 9.381,49.088 9.381,49.039 C9.480,49.039 9.580,49.039 9.680,49.039 C9.680,48.990 9.680,48.940 9.680,48.891 C9.780,48.891 9.879,48.891 9.979,48.891 C9.979,48.842 9.979,48.792 9.979,48.744 C10.079,48.744 10.179,48.744 10.279,48.744 C10.279,48.694 10.279,48.645 10.279,48.596 C10.378,48.596 10.478,48.596 10.578,48.596 C10.578,48.547 10.578,48.497 10.578,48.448 C10.678,48.448 10.777,48.448 10.877,48.448 C10.877,48.399 10.877,48.350 10.877,48.300 C11.176,48.202 11.476,48.104 11.775,48.005 C11.775,47.956 11.775,47.907 11.775,47.857 C12.024,47.808 12.274,47.759 12.523,47.710 C12.523,47.660 12.523,47.611 12.523,47.562 C12.623,47.562 12.723,47.562 12.822,47.562 C12.822,47.513 12.822,47.464 12.822,47.414 C12.972,47.414 13.122,47.414 13.271,47.414 C13.271,47.365 13.271,47.316 13.271,47.267 C13.371,47.267 13.471,47.267 13.571,47.267 C13.571,47.217 13.571,47.168 13.571,47.119 C13.720,47.119 13.870,47.119 14.020,47.119 C14.020,47.070 14.020,47.020 14.020,46.971 C14.219,46.922 14.419,46.873 14.618,46.824 C14.618,46.774 14.618,46.725 14.618,46.676 C14.768,46.676 14.917,46.676 15.067,46.676 C15.067,46.627 15.067,46.577 15.067,46.528 C15.167,46.528 15.267,46.528 15.366,46.528 C15.366,46.479 15.366,46.430 15.366,46.380 C15.616,46.331 15.865,46.282 16.115,46.233 C16.115,46.184 16.115,46.134 16.115,46.085 C16.264,46.085 16.414,46.085 16.563,46.085 C16.563,46.036 16.563,45.987 16.563,45.937 C16.663,45.937 16.763,45.937 16.863,45.937 C16.863,45.888 16.863,45.839 16.863,45.790 C17.012,45.790 17.162,45.790 17.312,45.790 C17.312,45.740 17.312,45.691 17.312,45.642 C17.511,45.593 17.711,45.544 17.910,45.494 C17.910,45.445 17.910,45.396 17.910,45.347 C18.060,45.347 18.209,45.347 18.359,45.347 C18.359,45.297 18.359,45.248 18.359,45.199 C18.559,45.150 18.758,45.101 18.958,45.051 C18.958,45.002 18.958,44.953 18.958,44.904 C19.107,44.904 19.257,44.904 19.407,44.904 C19.407,44.854 19.407,44.805 19.407,44.756 C19.506,44.756 19.606,44.756 19.706,44.756 C19.706,44.707 19.706,44.657 19.706,44.608 C19.806,44.608 19.906,44.608 20.005,44.608 C20.392,44.406 20.677,44.131 21.202,44.017 ZM35.119,48.891 C35.183,49.270 35.289,49.686 35.119,50.220 C35.069,50.220 35.019,50.220 34.969,50.220 C34.969,50.467 34.969,50.713 34.969,50.959 C34.919,50.959 34.870,50.959 34.820,50.959 C34.820,51.205 34.820,51.451 34.820,51.697 C34.770,51.697 34.720,51.697 34.670,51.697 C34.670,51.943 34.670,52.189 34.670,52.436 C34.620,52.436 34.570,52.436 34.521,52.436 C34.333,53.038 34.634,53.366 34.221,53.765 C33.969,53.987 33.350,53.912 32.874,53.912 C31.827,53.912 30.779,53.912 29.732,53.912 C29.606,53.745 29.751,53.891 29.582,53.765 C29.283,52.239 28.984,50.712 28.684,49.187 C28.734,49.187 28.784,49.187 28.834,49.187 C28.834,49.088 28.834,48.990 28.834,48.891 C30.524,48.583 33.429,48.585 35.119,48.891 ZM32.126,65.727 C32.026,65.727 31.927,65.727 31.827,65.727 C31.646,65.616 31.646,65.171 31.528,64.989 C31.428,64.940 31.328,64.890 31.228,64.841 C31.228,64.743 31.228,64.644 31.228,64.546 C31.179,64.546 31.129,64.546 31.079,64.546 C31.079,64.447 31.079,64.349 31.079,64.250 C31.029,64.250 30.979,64.250 30.929,64.250 C30.929,64.152 30.929,64.053 30.929,63.955 C30.829,63.906 30.730,63.857 30.630,63.807 C30.580,63.611 30.530,63.413 30.480,63.217 C30.430,63.217 30.380,63.217 30.330,63.217 C30.330,63.118 30.330,63.020 30.330,62.921 C30.281,62.921 30.231,62.921 30.181,62.921 C30.181,62.823 30.181,62.724 30.181,62.626 C30.131,62.626 30.081,62.626 30.031,62.626 C30.031,62.528 30.031,62.429 30.031,62.331 C29.981,62.331 29.931,62.331 29.882,62.331 C29.882,62.232 29.882,62.133 29.882,62.035 C29.832,62.035 29.782,62.035 29.732,62.035 C29.682,61.838 29.632,61.641 29.582,61.445 C29.532,61.445 29.482,61.445 29.433,61.445 C29.383,61.248 29.333,61.051 29.283,60.853 C29.233,60.853 29.183,60.853 29.133,60.853 C29.034,60.558 28.934,60.263 28.834,59.968 C28.784,59.968 28.734,59.968 28.684,59.968 C28.525,59.504 28.901,58.884 28.984,58.638 C29.233,57.457 29.483,56.275 29.732,55.094 C30.887,54.890 32.533,54.944 33.922,54.946 C34.011,55.105 34.183,55.180 34.221,55.242 C34.221,55.340 34.221,55.438 34.221,55.537 C34.271,55.537 34.321,55.537 34.371,55.537 C34.371,55.734 34.371,55.931 34.371,56.128 C34.421,56.128 34.471,56.128 34.521,56.128 C34.521,56.324 34.521,56.522 34.521,56.718 C34.570,56.718 34.620,56.718 34.670,56.718 C34.670,56.964 34.670,57.211 34.670,57.457 C34.720,57.457 34.770,57.457 34.820,57.457 C34.820,57.654 34.820,57.851 34.820,58.048 C34.870,58.048 34.919,58.048 34.969,58.048 C34.969,58.244 34.969,58.441 34.969,58.638 C35.038,58.849 35.387,59.614 35.269,59.968 C35.219,59.968 35.169,59.968 35.119,59.968 C35.019,60.263 34.919,60.558 34.820,60.853 C34.770,60.853 34.720,60.853 34.670,60.853 C34.670,60.952 34.670,61.051 34.670,61.149 C34.620,61.149 34.570,61.149 34.521,61.149 C34.521,61.248 34.521,61.346 34.521,61.445 C34.471,61.445 34.421,61.445 34.371,61.445 C34.371,61.543 34.371,61.641 34.371,61.740 C34.321,61.740 34.271,61.740 34.221,61.740 C34.221,61.838 34.221,61.937 34.221,62.035 C34.171,62.035 34.121,62.035 34.072,62.035 C34.072,62.133 34.072,62.232 34.072,62.331 C34.022,62.331 33.972,62.331 33.922,62.331 C33.922,62.429 33.922,62.528 33.922,62.626 C33.872,62.626 33.822,62.626 33.772,62.626 C33.772,62.724 33.772,62.823 33.772,62.921 C33.722,62.921 33.673,62.921 33.623,62.921 C33.623,63.020 33.623,63.118 33.623,63.217 C33.573,63.217 33.523,63.217 33.473,63.217 C33.473,63.315 33.473,63.413 33.473,63.512 C33.373,63.561 33.273,63.611 33.174,63.660 C33.174,63.758 33.174,63.857 33.174,63.955 C33.124,63.955 33.074,63.955 33.024,63.955 C32.974,64.152 32.924,64.349 32.874,64.546 C32.775,64.595 32.675,64.644 32.575,64.693 C32.575,64.792 32.575,64.890 32.575,64.989 C32.525,64.989 32.475,64.989 32.425,64.989 C32.425,65.087 32.425,65.186 32.425,65.284 C32.376,65.284 32.326,65.284 32.276,65.284 C32.226,65.432 32.176,65.580 32.126,65.727 Z"/>
</svg>