<svg 
 xmlns="http://www.w3.org/2000/svg"
 xmlns:xlink="http://www.w3.org/1999/xlink"
 width="22px" height="18px">
<path fill-rule="evenodd"  fill="rgb(107, 125, 135)"
 d="M12.273,18.000 C11.801,18.007 11.560,17.958 11.263,17.799 C11.225,17.789 11.186,17.779 11.148,17.770 C11.148,17.760 11.148,17.751 11.148,17.741 C11.119,17.731 11.090,17.722 11.061,17.712 C11.052,17.693 11.042,17.674 11.032,17.655 C11.013,17.655 10.994,17.655 10.975,17.655 C10.955,17.626 10.936,17.597 10.917,17.568 C10.898,17.568 10.879,17.568 10.859,17.568 C10.802,17.501 10.744,17.434 10.686,17.367 C10.667,17.357 10.648,17.348 10.629,17.338 C10.629,17.319 10.629,17.300 10.629,17.281 C10.600,17.262 10.571,17.242 10.542,17.223 C10.542,17.204 10.542,17.185 10.542,17.166 C10.523,17.156 10.504,17.146 10.484,17.137 C10.484,17.118 10.484,17.098 10.484,17.079 C10.465,17.070 10.446,17.060 10.427,17.051 C10.417,17.012 10.408,16.974 10.398,16.935 C10.388,16.935 10.379,16.935 10.369,16.935 C10.359,16.897 10.350,16.859 10.340,16.820 C10.331,16.820 10.321,16.820 10.311,16.820 C10.311,16.792 10.311,16.763 10.311,16.734 C10.302,16.734 10.292,16.734 10.283,16.734 C10.236,16.615 10.137,16.097 10.196,15.900 C10.206,15.900 10.215,15.900 10.225,15.900 C10.225,15.861 10.225,15.823 10.225,15.785 C10.234,15.785 10.244,15.785 10.254,15.785 C10.263,15.717 10.273,15.650 10.283,15.583 C10.523,15.035 10.983,14.683 11.378,14.289 C11.994,13.665 12.609,13.042 13.224,12.418 C13.436,12.207 13.647,11.996 13.859,11.785 C13.926,11.728 13.993,11.670 14.061,11.613 C14.061,11.594 14.061,11.574 14.061,11.555 C14.080,11.546 14.099,11.536 14.118,11.526 C14.128,11.488 14.137,11.450 14.147,11.411 C14.157,11.411 14.166,11.411 14.176,11.411 C14.176,11.392 14.176,11.373 14.176,11.354 C14.186,11.354 14.195,11.354 14.205,11.354 C14.244,11.246 14.189,11.082 14.176,11.009 C14.109,10.961 14.041,10.913 13.974,10.865 C13.945,10.865 13.916,10.865 13.888,10.865 C13.888,10.855 13.888,10.846 13.888,10.836 C13.646,10.750 13.230,10.807 12.936,10.807 C12.263,10.807 11.590,10.807 10.917,10.807 C8.370,10.807 5.822,10.807 3.274,10.807 C2.909,10.807 2.544,10.807 2.179,10.807 C1.990,10.807 1.744,10.820 1.602,10.778 C1.496,10.769 1.390,10.759 1.285,10.750 C1.285,10.740 1.285,10.730 1.285,10.721 C1.256,10.721 1.227,10.721 1.198,10.721 C1.198,10.711 1.198,10.702 1.198,10.692 C1.179,10.692 1.160,10.692 1.140,10.692 C1.140,10.683 1.140,10.673 1.140,10.663 C1.054,10.635 0.967,10.606 0.881,10.577 C0.871,10.558 0.862,10.539 0.852,10.519 C0.813,10.510 0.775,10.500 0.737,10.491 C0.708,10.452 0.679,10.414 0.650,10.376 C0.631,10.376 0.612,10.376 0.592,10.376 C0.554,10.328 0.515,10.280 0.477,10.232 C0.458,10.222 0.439,10.213 0.419,10.203 C0.419,10.184 0.419,10.165 0.419,10.145 C0.381,10.117 0.342,10.088 0.304,10.059 C0.304,10.040 0.304,10.021 0.304,10.002 C0.285,9.992 0.266,9.982 0.246,9.973 C0.227,9.915 0.208,9.858 0.189,9.800 C0.179,9.800 0.169,9.800 0.160,9.800 C0.150,9.762 0.141,9.723 0.131,9.685 C0.121,9.685 0.112,9.685 0.102,9.685 C0.046,9.557 -0.077,8.983 -0.013,8.764 C-0.004,8.764 0.006,8.764 0.016,8.764 C0.016,8.716 0.016,8.669 0.016,8.621 C0.025,8.621 0.035,8.621 0.044,8.621 C0.044,8.582 0.044,8.544 0.044,8.505 C0.054,8.505 0.064,8.505 0.073,8.505 C0.073,8.477 0.073,8.448 0.073,8.419 C0.083,8.419 0.092,8.419 0.102,8.419 C0.102,8.390 0.102,8.362 0.102,8.333 C0.112,8.333 0.121,8.333 0.131,8.333 C0.150,8.275 0.169,8.218 0.189,8.160 C0.198,8.160 0.208,8.160 0.217,8.160 C0.227,8.122 0.237,8.084 0.246,8.045 C0.266,8.036 0.285,8.026 0.304,8.016 C0.304,7.997 0.304,7.978 0.304,7.959 C0.342,7.930 0.381,7.901 0.419,7.873 C0.419,7.853 0.419,7.834 0.419,7.815 C0.467,7.777 0.515,7.738 0.564,7.700 C0.573,7.681 0.583,7.662 0.592,7.642 C0.612,7.642 0.631,7.642 0.650,7.642 C0.679,7.604 0.708,7.566 0.737,7.527 C0.775,7.518 0.813,7.508 0.852,7.499 C0.862,7.479 0.871,7.460 0.881,7.441 C0.919,7.431 0.958,7.422 0.996,7.412 C0.996,7.403 0.996,7.393 0.996,7.383 C1.035,7.374 1.073,7.364 1.111,7.355 C1.111,7.345 1.111,7.335 1.111,7.326 C1.140,7.326 1.169,7.326 1.198,7.326 C1.479,7.215 1.802,7.211 2.207,7.211 C2.775,7.211 3.342,7.211 3.909,7.211 C5.995,7.211 8.081,7.211 10.167,7.211 C11.167,7.211 12.167,7.211 13.167,7.211 C13.558,7.211 14.095,7.249 14.176,6.952 C14.186,6.952 14.195,6.952 14.205,6.952 C14.214,6.894 14.224,6.837 14.234,6.779 C14.224,6.779 14.214,6.779 14.205,6.779 C14.195,6.712 14.186,6.645 14.176,6.578 C14.157,6.568 14.137,6.559 14.118,6.549 C14.118,6.530 14.118,6.511 14.118,6.492 C14.099,6.482 14.080,6.472 14.061,6.463 C14.061,6.444 14.061,6.424 14.061,6.405 C13.839,6.194 13.618,5.983 13.397,5.772 C12.936,5.302 12.474,4.832 12.013,4.362 C11.753,4.113 11.494,3.864 11.234,3.614 C11.157,3.528 11.080,3.442 11.004,3.355 C10.888,3.250 10.773,3.144 10.657,3.039 C10.657,3.020 10.657,3.001 10.657,2.981 C10.619,2.953 10.581,2.924 10.542,2.895 C10.542,2.876 10.542,2.857 10.542,2.838 C10.513,2.818 10.484,2.799 10.456,2.780 C10.446,2.742 10.436,2.703 10.427,2.665 C10.417,2.665 10.408,2.665 10.398,2.665 C10.398,2.646 10.398,2.627 10.398,2.607 C10.388,2.607 10.379,2.607 10.369,2.607 C10.350,2.550 10.331,2.492 10.311,2.435 C10.302,2.435 10.292,2.435 10.283,2.435 C10.283,2.406 10.283,2.377 10.283,2.348 C10.273,2.348 10.263,2.348 10.254,2.348 C10.254,2.310 10.254,2.272 10.254,2.233 C10.244,2.233 10.234,2.233 10.225,2.233 C10.193,2.139 10.158,1.730 10.196,1.600 C10.206,1.600 10.215,1.600 10.225,1.600 C10.225,1.552 10.225,1.504 10.225,1.457 C10.234,1.457 10.244,1.457 10.254,1.457 C10.254,1.428 10.254,1.399 10.254,1.370 C10.263,1.370 10.273,1.370 10.283,1.370 C10.292,1.313 10.302,1.255 10.311,1.198 C10.321,1.198 10.331,1.198 10.340,1.198 C10.340,1.178 10.340,1.159 10.340,1.140 C10.350,1.140 10.359,1.140 10.369,1.140 C10.388,1.083 10.408,1.025 10.427,0.967 C10.446,0.958 10.465,0.948 10.484,0.939 C10.484,0.919 10.484,0.900 10.484,0.881 C10.504,0.872 10.523,0.862 10.542,0.852 C10.542,0.833 10.542,0.814 10.542,0.795 C10.571,0.776 10.600,0.756 10.629,0.737 C10.629,0.718 10.629,0.699 10.629,0.680 C10.686,0.632 10.744,0.584 10.802,0.536 C10.821,0.507 10.840,0.478 10.859,0.450 C10.879,0.450 10.898,0.450 10.917,0.450 C10.936,0.421 10.955,0.392 10.975,0.363 C10.994,0.363 11.013,0.363 11.032,0.363 C11.042,0.344 11.052,0.325 11.061,0.306 C11.080,0.306 11.100,0.306 11.119,0.306 C11.129,0.287 11.138,0.267 11.148,0.248 C11.167,0.248 11.186,0.248 11.205,0.248 C11.205,0.239 11.205,0.229 11.205,0.219 C11.263,0.200 11.321,0.181 11.378,0.162 C11.378,0.152 11.378,0.143 11.378,0.133 C11.436,0.123 11.494,0.114 11.552,0.104 C11.552,0.095 11.552,0.085 11.552,0.076 C11.590,0.076 11.628,0.076 11.667,0.076 C11.667,0.066 11.667,0.056 11.667,0.047 C11.715,0.047 11.763,0.047 11.811,0.047 C11.811,0.037 11.811,0.028 11.811,0.018 C12.014,-0.040 12.389,0.060 12.503,0.104 C12.532,0.104 12.561,0.104 12.590,0.104 C12.590,0.114 12.590,0.123 12.590,0.133 C12.619,0.133 12.647,0.133 12.676,0.133 C12.676,0.143 12.676,0.152 12.676,0.162 C12.734,0.181 12.792,0.200 12.849,0.219 C12.849,0.229 12.849,0.239 12.849,0.248 C12.869,0.248 12.888,0.248 12.907,0.248 C12.917,0.267 12.926,0.287 12.936,0.306 C12.955,0.306 12.974,0.306 12.994,0.306 C13.003,0.325 13.013,0.344 13.022,0.363 C13.042,0.363 13.061,0.363 13.080,0.363 C13.128,0.421 13.176,0.478 13.224,0.536 C13.243,0.536 13.263,0.536 13.282,0.536 C13.330,0.593 13.378,0.651 13.426,0.708 C13.445,0.718 13.465,0.728 13.484,0.737 C13.484,0.756 13.484,0.776 13.484,0.795 C13.647,0.948 13.811,1.102 13.974,1.255 C15.599,2.905 17.224,4.554 18.848,6.204 C19.069,6.415 19.290,6.626 19.511,6.837 C19.511,6.856 19.511,6.875 19.511,6.894 C19.569,6.942 19.627,6.990 19.684,7.038 C19.819,7.182 19.954,7.326 20.088,7.470 C20.454,7.835 20.800,8.091 20.982,8.649 C20.982,8.707 20.982,8.764 20.982,8.822 C20.992,8.822 21.001,8.822 21.011,8.822 C21.072,9.037 20.973,9.386 20.924,9.512 C20.924,9.541 20.924,9.570 20.924,9.599 C20.915,9.599 20.905,9.599 20.896,9.599 C20.896,9.618 20.896,9.637 20.896,9.656 C20.886,9.656 20.876,9.656 20.867,9.656 C20.867,9.685 20.867,9.714 20.867,9.743 C20.857,9.743 20.848,9.743 20.838,9.743 C20.838,9.762 20.838,9.781 20.838,9.800 C20.819,9.810 20.799,9.819 20.780,9.829 C20.771,9.867 20.761,9.906 20.751,9.944 C20.624,10.134 20.395,10.300 20.232,10.462 C20.175,10.529 20.117,10.596 20.059,10.663 C19.771,10.941 19.482,11.220 19.194,11.498 C18.944,11.757 18.694,12.016 18.444,12.275 C18.319,12.390 18.194,12.505 18.069,12.620 C18.069,12.639 18.069,12.658 18.069,12.677 C17.050,13.684 16.031,14.691 15.012,15.698 C14.724,15.996 14.435,16.293 14.147,16.590 C14.003,16.724 13.859,16.859 13.715,16.993 C13.705,17.022 13.695,17.051 13.686,17.079 C13.628,17.127 13.570,17.175 13.513,17.223 C13.426,17.319 13.340,17.415 13.253,17.511 C13.234,17.511 13.215,17.511 13.195,17.511 C13.157,17.559 13.118,17.607 13.080,17.655 C13.061,17.655 13.042,17.655 13.022,17.655 C13.013,17.674 13.003,17.693 12.994,17.712 C12.974,17.712 12.955,17.712 12.936,17.712 C12.926,17.731 12.917,17.751 12.907,17.770 C12.869,17.779 12.830,17.789 12.792,17.799 C12.792,17.808 12.792,17.818 12.792,17.827 C12.753,17.837 12.715,17.847 12.676,17.856 C12.676,17.866 12.676,17.875 12.676,17.885 C12.647,17.885 12.619,17.885 12.590,17.885 C12.590,17.895 12.590,17.904 12.590,17.914 C12.561,17.914 12.532,17.914 12.503,17.914 C12.503,17.923 12.503,17.933 12.503,17.942 C12.474,17.942 12.446,17.942 12.417,17.942 C12.417,17.952 12.417,17.962 12.417,17.971 C12.369,17.971 12.321,17.971 12.273,17.971 C12.273,17.981 12.273,17.990 12.273,18.000 Z"/>
</svg>