<svg 
 xmlns="http://www.w3.org/2000/svg"
 xmlns:xlink="http://www.w3.org/1999/xlink"
 width="21px" height="18px">
<path fill-rule="evenodd"  fill="rgb(113, 130, 138)"
 d="M8.715,-0.000 C9.186,-0.007 9.426,0.042 9.722,0.201 C9.761,0.211 9.799,0.221 9.838,0.230 C9.838,0.240 9.838,0.249 9.838,0.259 C9.866,0.269 9.895,0.278 9.924,0.288 C9.934,0.307 9.943,0.326 9.953,0.345 C9.972,0.345 9.991,0.345 10.010,0.345 C10.030,0.374 10.049,0.403 10.068,0.432 C10.087,0.432 10.106,0.432 10.126,0.432 C10.183,0.499 10.241,0.566 10.298,0.633 C10.318,0.643 10.337,0.652 10.356,0.662 C10.356,0.681 10.356,0.700 10.356,0.719 C10.385,0.738 10.414,0.758 10.442,0.777 C10.442,0.796 10.442,0.815 10.442,0.834 C10.462,0.844 10.481,0.854 10.500,0.863 C10.500,0.882 10.500,0.902 10.500,0.921 C10.519,0.930 10.538,0.940 10.558,0.949 C10.567,0.988 10.577,1.026 10.586,1.065 C10.596,1.065 10.606,1.065 10.615,1.065 C10.625,1.103 10.634,1.141 10.644,1.180 C10.653,1.180 10.663,1.180 10.673,1.180 C10.673,1.208 10.673,1.237 10.673,1.266 C10.682,1.266 10.692,1.266 10.701,1.266 C10.748,1.385 10.847,1.903 10.788,2.100 C10.778,2.100 10.769,2.100 10.759,2.100 C10.759,2.139 10.759,2.177 10.759,2.215 C10.749,2.215 10.740,2.215 10.730,2.215 C10.721,2.283 10.711,2.350 10.701,2.417 C10.462,2.965 10.003,3.317 9.607,3.711 C8.993,4.335 8.378,4.958 7.764,5.582 C7.553,5.793 7.342,6.004 7.131,6.215 C7.063,6.272 6.996,6.330 6.929,6.387 C6.929,6.406 6.929,6.426 6.929,6.445 C6.910,6.454 6.891,6.464 6.871,6.474 C6.862,6.512 6.852,6.550 6.843,6.589 C6.833,6.589 6.824,6.589 6.814,6.589 C6.814,6.608 6.814,6.627 6.814,6.646 C6.804,6.646 6.795,6.646 6.785,6.646 C6.746,6.754 6.801,6.918 6.814,6.991 C6.881,7.039 6.948,7.087 7.015,7.135 C7.044,7.135 7.073,7.135 7.102,7.135 C7.102,7.145 7.102,7.154 7.102,7.164 C7.344,7.250 7.759,7.193 8.052,7.193 C8.724,7.193 9.396,7.193 10.068,7.193 C12.611,7.193 15.156,7.193 17.699,7.193 C18.064,7.193 18.429,7.193 18.793,7.193 C18.982,7.193 19.227,7.180 19.369,7.222 C19.475,7.231 19.581,7.241 19.686,7.250 C19.686,7.260 19.686,7.270 19.686,7.279 C19.715,7.279 19.744,7.279 19.773,7.279 C19.773,7.289 19.773,7.298 19.773,7.308 C19.792,7.308 19.811,7.308 19.830,7.308 C19.830,7.317 19.830,7.327 19.830,7.337 C19.917,7.365 20.003,7.394 20.089,7.423 C20.099,7.442 20.108,7.461 20.118,7.481 C20.156,7.490 20.195,7.500 20.233,7.509 C20.262,7.548 20.291,7.586 20.320,7.624 C20.339,7.624 20.358,7.624 20.377,7.624 C20.416,7.672 20.454,7.720 20.492,7.768 C20.512,7.778 20.531,7.787 20.550,7.797 C20.550,7.816 20.550,7.835 20.550,7.855 C20.588,7.883 20.627,7.912 20.665,7.941 C20.665,7.960 20.665,7.979 20.665,7.998 C20.684,8.008 20.704,8.018 20.723,8.027 C20.742,8.085 20.761,8.142 20.780,8.200 C20.790,8.200 20.800,8.200 20.809,8.200 C20.819,8.238 20.828,8.277 20.838,8.315 C20.848,8.315 20.857,8.315 20.867,8.315 C20.923,8.443 21.046,9.017 20.982,9.236 C20.972,9.236 20.963,9.236 20.953,9.236 C20.953,9.284 20.953,9.331 20.953,9.379 C20.944,9.379 20.934,9.379 20.924,9.379 C20.924,9.418 20.924,9.456 20.924,9.495 C20.915,9.495 20.905,9.495 20.896,9.495 C20.896,9.523 20.896,9.552 20.896,9.581 C20.886,9.581 20.876,9.581 20.867,9.581 C20.867,9.610 20.867,9.638 20.867,9.667 C20.857,9.667 20.848,9.667 20.838,9.667 C20.819,9.725 20.800,9.782 20.780,9.840 C20.771,9.840 20.761,9.840 20.752,9.840 C20.742,9.878 20.732,9.916 20.723,9.955 C20.704,9.964 20.684,9.974 20.665,9.984 C20.665,10.003 20.665,10.022 20.665,10.041 C20.627,10.070 20.588,10.099 20.550,10.127 C20.550,10.147 20.550,10.166 20.550,10.185 C20.502,10.223 20.454,10.262 20.406,10.300 C20.396,10.319 20.387,10.338 20.377,10.358 C20.358,10.358 20.339,10.358 20.320,10.358 C20.291,10.396 20.262,10.434 20.233,10.473 C20.195,10.482 20.156,10.492 20.118,10.501 C20.108,10.521 20.099,10.540 20.089,10.559 C20.051,10.569 20.013,10.578 19.974,10.588 C19.974,10.597 19.974,10.607 19.974,10.617 C19.936,10.626 19.897,10.636 19.859,10.645 C19.859,10.655 19.859,10.665 19.859,10.674 C19.830,10.674 19.801,10.674 19.773,10.674 C19.492,10.785 19.169,10.789 18.765,10.789 C18.198,10.789 17.632,10.789 17.066,10.789 C14.983,10.789 12.899,10.789 10.817,10.789 C9.818,10.789 8.820,10.789 7.822,10.789 C7.431,10.789 6.894,10.751 6.814,11.048 C6.804,11.048 6.795,11.048 6.785,11.048 C6.776,11.106 6.766,11.163 6.756,11.221 C6.766,11.221 6.776,11.221 6.785,11.221 C6.795,11.288 6.804,11.355 6.814,11.422 C6.833,11.432 6.852,11.441 6.871,11.451 C6.871,11.470 6.871,11.489 6.871,11.508 C6.891,11.518 6.910,11.528 6.929,11.537 C6.929,11.556 6.929,11.576 6.929,11.595 C7.150,11.806 7.371,12.017 7.591,12.228 C8.052,12.698 8.513,13.168 8.974,13.638 C9.233,13.887 9.492,14.136 9.751,14.386 C9.828,14.472 9.905,14.558 9.982,14.645 C10.097,14.750 10.212,14.856 10.327,14.961 C10.327,14.980 10.327,14.999 10.327,15.019 C10.366,15.047 10.404,15.076 10.442,15.105 C10.442,15.124 10.442,15.143 10.442,15.162 C10.471,15.182 10.500,15.201 10.529,15.220 C10.538,15.258 10.548,15.297 10.558,15.335 C10.567,15.335 10.577,15.335 10.586,15.335 C10.586,15.354 10.586,15.373 10.586,15.393 C10.596,15.393 10.606,15.393 10.615,15.393 C10.634,15.450 10.653,15.508 10.673,15.565 C10.682,15.565 10.692,15.565 10.701,15.565 C10.701,15.594 10.701,15.623 10.701,15.652 C10.711,15.652 10.721,15.652 10.730,15.652 C10.730,15.690 10.730,15.728 10.730,15.767 C10.740,15.767 10.749,15.767 10.759,15.767 C10.791,15.861 10.826,16.270 10.788,16.400 C10.778,16.400 10.769,16.400 10.759,16.400 C10.759,16.448 10.759,16.496 10.759,16.543 C10.749,16.543 10.740,16.543 10.730,16.543 C10.730,16.572 10.730,16.601 10.730,16.630 C10.721,16.630 10.711,16.630 10.701,16.630 C10.692,16.687 10.682,16.745 10.673,16.802 C10.663,16.802 10.653,16.802 10.644,16.802 C10.644,16.822 10.644,16.841 10.644,16.860 C10.634,16.860 10.625,16.860 10.615,16.860 C10.596,16.917 10.577,16.975 10.558,17.033 C10.538,17.042 10.519,17.052 10.500,17.061 C10.500,17.081 10.500,17.100 10.500,17.119 C10.481,17.128 10.462,17.138 10.442,17.148 C10.442,17.167 10.442,17.186 10.442,17.205 C10.414,17.224 10.385,17.244 10.356,17.263 C10.356,17.282 10.356,17.301 10.356,17.320 C10.298,17.368 10.241,17.416 10.183,17.464 C10.164,17.493 10.145,17.522 10.126,17.550 C10.106,17.550 10.087,17.550 10.068,17.550 C10.049,17.579 10.030,17.608 10.010,17.637 C9.991,17.637 9.972,17.637 9.953,17.637 C9.943,17.656 9.934,17.675 9.924,17.694 C9.905,17.694 9.886,17.694 9.866,17.694 C9.857,17.713 9.847,17.733 9.838,17.752 C9.818,17.752 9.799,17.752 9.780,17.752 C9.780,17.761 9.780,17.771 9.780,17.781 C9.722,17.800 9.665,17.819 9.607,17.838 C9.607,17.848 9.607,17.857 9.607,17.867 C9.550,17.877 9.492,17.886 9.434,17.896 C9.434,17.905 9.434,17.915 9.434,17.924 C9.396,17.924 9.358,17.924 9.319,17.924 C9.319,17.934 9.319,17.944 9.319,17.953 C9.271,17.953 9.223,17.953 9.175,17.953 C9.175,17.963 9.175,17.972 9.175,17.982 C8.973,18.040 8.598,17.940 8.484,17.896 C8.455,17.896 8.427,17.896 8.398,17.896 C8.398,17.886 8.398,17.877 8.398,17.867 C8.369,17.867 8.340,17.867 8.311,17.867 C8.311,17.857 8.311,17.848 8.311,17.838 C8.254,17.819 8.196,17.800 8.139,17.781 C8.139,17.771 8.139,17.761 8.139,17.752 C8.119,17.752 8.100,17.752 8.081,17.752 C8.071,17.733 8.062,17.713 8.052,17.694 C8.033,17.694 8.014,17.694 7.995,17.694 C7.985,17.675 7.975,17.656 7.966,17.637 C7.947,17.637 7.927,17.637 7.908,17.637 C7.860,17.579 7.812,17.522 7.764,17.464 C7.745,17.464 7.726,17.464 7.707,17.464 C7.659,17.407 7.611,17.349 7.563,17.292 C7.543,17.282 7.524,17.272 7.505,17.263 C7.505,17.244 7.505,17.224 7.505,17.205 C7.342,17.052 7.179,16.898 7.015,16.745 C5.393,15.095 3.771,13.446 2.149,11.796 C1.928,11.585 1.707,11.374 1.486,11.163 C1.486,11.144 1.486,11.125 1.486,11.106 C1.429,11.058 1.371,11.010 1.314,10.962 C1.179,10.818 1.045,10.674 0.911,10.530 C0.545,10.165 0.200,9.909 0.018,9.351 C0.018,9.293 0.018,9.236 0.018,9.178 C0.008,9.178 -0.001,9.178 -0.011,9.178 C-0.072,8.963 0.027,8.614 0.075,8.488 C0.075,8.459 0.075,8.430 0.075,8.401 C0.085,8.401 0.095,8.401 0.104,8.401 C0.104,8.382 0.104,8.363 0.104,8.344 C0.114,8.344 0.123,8.344 0.133,8.344 C0.133,8.315 0.133,8.286 0.133,8.257 C0.143,8.257 0.152,8.257 0.162,8.257 C0.162,8.238 0.162,8.219 0.162,8.200 C0.181,8.190 0.200,8.181 0.219,8.171 C0.229,8.133 0.239,8.094 0.248,8.056 C0.375,7.866 0.604,7.700 0.767,7.538 C0.824,7.471 0.882,7.404 0.939,7.337 C1.227,7.059 1.515,6.780 1.803,6.502 C2.053,6.243 2.302,5.984 2.552,5.725 C2.677,5.610 2.802,5.495 2.926,5.380 C2.926,5.361 2.926,5.342 2.926,5.323 C3.944,4.316 4.961,3.309 5.979,2.302 C6.267,2.004 6.555,1.707 6.843,1.410 C6.987,1.276 7.131,1.141 7.275,1.007 C7.284,0.978 7.294,0.949 7.303,0.921 C7.361,0.873 7.419,0.825 7.476,0.777 C7.563,0.681 7.649,0.585 7.735,0.489 C7.755,0.489 7.774,0.489 7.793,0.489 C7.831,0.441 7.870,0.393 7.908,0.345 C7.927,0.345 7.947,0.345 7.966,0.345 C7.975,0.326 7.985,0.307 7.995,0.288 C8.014,0.288 8.033,0.288 8.052,0.288 C8.062,0.269 8.071,0.249 8.081,0.230 C8.119,0.221 8.158,0.211 8.196,0.201 C8.196,0.192 8.196,0.182 8.196,0.173 C8.235,0.163 8.273,0.153 8.311,0.144 C8.311,0.134 8.311,0.125 8.311,0.115 C8.340,0.115 8.369,0.115 8.398,0.115 C8.398,0.105 8.398,0.096 8.398,0.086 C8.427,0.086 8.455,0.086 8.484,0.086 C8.484,0.077 8.484,0.067 8.484,0.058 C8.513,0.058 8.542,0.058 8.571,0.058 C8.571,0.048 8.571,0.038 8.571,0.029 C8.619,0.029 8.667,0.029 8.715,0.029 C8.715,0.019 8.715,0.010 8.715,-0.000 Z"/>
</svg>