<svg 
 xmlns="http://www.w3.org/2000/svg"
 xmlns:xlink="http://www.w3.org/1999/xlink"
 width="25px" height="24px">
<path fill-rule="evenodd"  fill="rgb(52, 152, 219)"
 d="M3.854,-0.000 C5.347,-0.000 6.840,-0.000 8.333,-0.000 C8.333,1.082 8.333,2.165 8.333,3.247 C11.215,3.247 14.098,3.247 16.979,3.247 C16.979,2.165 16.979,1.082 16.979,-0.000 C18.479,-0.000 19.979,-0.000 21.479,-0.000 C21.479,1.082 21.479,2.165 21.479,3.247 C22.653,3.247 23.827,3.247 25.000,3.247 C25.000,10.164 25.000,17.083 25.000,24.000 C16.668,24.000 8.332,24.000 -0.000,24.000 C-0.000,17.083 -0.000,10.164 -0.000,3.247 C1.278,3.247 2.556,3.247 3.833,3.247 C3.851,3.224 3.831,3.244 3.854,3.226 C3.854,2.151 3.854,1.075 3.854,-0.000 ZM5.125,1.291 C5.125,2.803 5.125,4.316 5.125,5.828 C5.764,5.828 6.403,5.828 7.042,5.828 C7.042,4.316 7.042,2.803 7.042,1.291 C6.403,1.291 5.764,1.291 5.125,1.291 ZM18.271,1.291 C18.271,2.803 18.271,4.316 18.271,5.828 C18.910,5.828 19.549,5.828 20.188,5.828 C20.188,4.316 20.188,2.803 20.188,1.291 C19.549,1.291 18.910,1.291 18.271,1.291 ZM1.292,4.538 C1.292,10.594 1.292,16.653 1.292,22.709 C8.763,22.709 16.237,22.709 23.708,22.709 C23.708,16.653 23.708,10.594 23.708,4.538 C22.965,4.538 22.222,4.538 21.479,4.538 C21.479,5.405 21.479,6.272 21.479,7.140 C19.979,7.140 18.479,7.140 16.979,7.140 C16.979,6.272 16.979,5.405 16.979,4.538 C14.098,4.538 11.215,4.538 8.333,4.538 C8.333,5.405 8.333,6.272 8.333,7.140 C6.840,7.140 5.347,7.140 3.854,7.140 C3.854,6.279 3.854,5.419 3.854,4.559 C3.680,4.495 3.284,4.538 3.062,4.538 C2.472,4.538 1.882,4.538 1.292,4.538 ZM2.875,8.430 C4.798,8.430 6.722,8.430 8.646,8.430 C8.646,10.380 8.646,12.330 8.646,14.279 C6.729,14.279 4.812,14.279 2.896,14.279 C2.846,14.142 2.875,13.891 2.875,13.717 C2.875,13.315 2.875,12.912 2.875,12.510 C2.875,11.150 2.875,9.790 2.875,8.430 ZM9.625,8.430 C11.541,8.430 13.459,8.430 15.375,8.430 C15.425,8.567 15.396,8.818 15.396,8.992 C15.396,9.395 15.396,9.797 15.396,10.199 C15.396,11.552 15.396,12.906 15.396,14.258 C15.258,14.308 15.007,14.279 14.833,14.279 C14.438,14.279 14.042,14.279 13.646,14.279 C12.306,14.279 10.965,14.279 9.625,14.279 C9.581,14.158 9.604,13.937 9.604,13.780 C9.604,13.433 9.604,13.086 9.604,12.739 C9.604,11.740 9.604,10.741 9.604,9.742 C9.604,9.450 9.604,9.159 9.604,8.867 C9.604,8.727 9.586,8.536 9.625,8.430 ZM16.354,8.430 C18.278,8.430 20.202,8.430 22.125,8.430 C22.125,10.373 22.125,12.316 22.125,14.258 C21.988,14.308 21.737,14.279 21.563,14.279 C21.167,14.279 20.771,14.279 20.375,14.279 C19.035,14.279 17.694,14.279 16.354,14.279 C16.354,12.330 16.354,10.380 16.354,8.430 ZM10.896,12.968 C11.965,12.968 13.035,12.968 14.104,12.968 C14.104,11.893 14.104,10.817 14.104,9.742 C14.024,9.712 13.883,9.721 13.771,9.721 C13.556,9.721 13.340,9.721 13.125,9.721 C12.389,9.721 11.653,9.721 10.917,9.721 C10.887,9.801 10.896,9.942 10.896,10.054 C10.896,10.276 10.896,10.498 10.896,10.720 C10.896,11.469 10.896,12.219 10.896,12.968 ZM17.625,12.968 C18.694,12.968 19.764,12.968 20.833,12.968 C20.833,11.886 20.833,10.803 20.833,9.721 C19.771,9.721 18.708,9.721 17.646,9.721 C17.617,9.801 17.625,9.942 17.625,10.054 C17.625,10.276 17.625,10.498 17.625,10.720 C17.625,11.469 17.625,12.219 17.625,12.968 ZM8.646,15.237 C8.646,17.186 8.646,19.136 8.646,21.086 C6.729,21.086 4.812,21.086 2.896,21.086 C2.846,20.949 2.875,20.698 2.875,20.524 C2.875,20.121 2.875,19.719 2.875,19.317 C2.875,17.964 2.875,16.610 2.875,15.258 C3.012,15.208 3.263,15.237 3.437,15.237 C3.833,15.237 4.229,15.237 4.625,15.237 C5.965,15.237 7.306,15.237 8.646,15.237 ZM9.625,15.237 C11.541,15.237 13.459,15.237 15.375,15.237 C15.425,15.374 15.396,15.625 15.396,15.799 C15.396,16.201 15.396,16.604 15.396,17.006 C15.396,18.359 15.396,19.712 15.396,21.065 C15.258,21.115 15.007,21.086 14.833,21.086 C14.438,21.086 14.042,21.086 13.646,21.086 C12.306,21.086 10.965,21.086 9.625,21.086 C9.581,20.965 9.604,20.743 9.604,20.586 C9.604,20.239 9.604,19.892 9.604,19.546 C9.604,18.547 9.604,17.547 9.604,16.548 C9.604,16.257 9.604,15.965 9.604,15.674 C9.604,15.534 9.586,15.343 9.625,15.237 ZM16.354,15.237 C18.271,15.237 20.188,15.237 22.104,15.237 C22.154,15.374 22.125,15.625 22.125,15.799 C22.125,16.201 22.125,16.604 22.125,17.006 C22.125,18.359 22.125,19.712 22.125,21.065 C21.988,21.115 21.737,21.086 21.563,21.086 C21.167,21.086 20.771,21.086 20.375,21.086 C19.035,21.086 17.694,21.086 16.354,21.086 C16.354,19.136 16.354,17.186 16.354,15.237 ZM4.167,16.548 C4.167,17.623 4.167,18.699 4.167,19.775 C5.236,19.775 6.306,19.775 7.375,19.775 C7.375,18.699 7.375,17.623 7.375,16.548 C6.306,16.548 5.236,16.548 4.167,16.548 ZM10.896,16.548 C10.896,17.623 10.896,18.699 10.896,19.775 C11.965,19.775 13.035,19.775 14.104,19.775 C14.104,18.699 14.104,17.623 14.104,16.548 C13.035,16.548 11.965,16.548 10.896,16.548 ZM17.625,16.548 C17.625,17.623 17.625,18.699 17.625,19.775 C18.694,19.775 19.764,19.775 20.833,19.775 C20.833,18.699 20.833,17.623 20.833,16.548 C19.764,16.548 18.694,16.548 17.625,16.548 Z"/>
</svg>