<svg 
 xmlns="http://www.w3.org/2000/svg"
 xmlns:xlink="http://www.w3.org/1999/xlink"
 width="26px" height="24px">
<path fill-rule="evenodd"  fill="rgb(255, 255, 255)"
 d="M23.347,6.281 C23.347,6.686 23.347,7.092 23.347,7.498 C23.347,7.683 23.374,7.974 23.309,8.097 C23.296,8.103 23.283,8.110 23.270,8.116 C23.270,8.129 23.270,8.142 23.270,8.155 C23.244,8.174 23.219,8.194 23.193,8.213 C23.174,8.239 23.154,8.265 23.135,8.290 C22.968,8.402 22.544,8.370 22.265,8.368 C22.265,11.498 22.265,14.629 22.265,17.759 C22.674,17.756 23.107,17.729 23.270,17.972 C23.366,18.115 23.347,18.351 23.347,18.590 C23.347,19.009 23.347,19.428 23.347,19.846 C23.446,19.882 23.623,19.866 23.753,19.866 C24.030,19.866 24.307,19.866 24.584,19.866 C24.584,19.872 24.584,19.879 24.584,19.885 C24.610,19.885 24.636,19.885 24.661,19.885 C24.661,19.892 24.661,19.898 24.661,19.904 C24.687,19.911 24.713,19.917 24.739,19.924 C24.739,19.930 24.739,19.937 24.739,19.943 C24.751,19.943 24.764,19.943 24.777,19.943 C24.784,19.956 24.790,19.969 24.797,19.982 C24.809,19.982 24.822,19.982 24.835,19.982 C24.880,20.053 24.925,20.123 24.970,20.194 C25.023,20.327 24.990,20.727 24.990,20.909 C24.990,21.296 24.990,21.682 24.990,22.069 C24.990,22.327 25.017,22.628 24.912,22.784 C24.887,22.803 24.861,22.822 24.835,22.842 C24.794,22.883 24.756,22.933 24.700,22.958 C24.560,23.019 24.297,22.996 24.101,22.996 C23.695,22.996 23.289,22.996 22.884,22.996 C21.454,22.996 20.024,22.996 18.594,22.996 C12.876,22.996 7.156,22.996 1.437,22.996 C1.366,22.971 1.295,22.945 1.225,22.919 C1.199,22.887 1.173,22.855 1.147,22.822 C1.128,22.810 1.109,22.797 1.089,22.784 C1.083,22.758 1.076,22.732 1.070,22.707 C1.064,22.707 1.057,22.707 1.051,22.707 C1.051,22.694 1.051,22.681 1.051,22.668 C1.044,22.668 1.038,22.668 1.031,22.668 C0.980,22.539 1.012,22.308 1.012,22.146 C1.012,21.773 1.012,21.399 1.012,21.025 C1.012,20.807 0.974,20.448 1.031,20.272 C1.031,20.246 1.031,20.220 1.031,20.194 C1.076,20.123 1.122,20.053 1.167,19.982 C1.180,19.982 1.192,19.982 1.205,19.982 C1.212,19.969 1.218,19.956 1.225,19.943 C1.250,19.937 1.276,19.930 1.302,19.924 C1.302,19.917 1.302,19.911 1.302,19.904 C1.315,19.904 1.328,19.904 1.341,19.904 C1.341,19.898 1.341,19.892 1.341,19.885 C1.448,19.843 1.628,19.866 1.766,19.866 C2.055,19.866 2.345,19.866 2.635,19.866 C2.683,19.734 2.654,19.491 2.654,19.325 C2.654,18.932 2.654,18.539 2.654,18.146 C2.661,18.146 2.667,18.146 2.674,18.146 C2.680,18.114 2.687,18.081 2.693,18.049 C2.699,18.049 2.706,18.049 2.712,18.049 C2.719,18.023 2.725,17.998 2.732,17.972 C2.745,17.966 2.757,17.959 2.770,17.953 C2.796,17.920 2.822,17.888 2.848,17.856 C3.031,17.733 3.430,17.758 3.736,17.759 C3.736,14.629 3.736,11.498 3.736,8.368 C3.458,8.370 3.033,8.402 2.867,8.290 C2.841,8.258 2.815,8.226 2.790,8.194 C2.770,8.181 2.751,8.168 2.732,8.155 C2.638,8.021 2.654,7.786 2.654,7.556 C2.654,7.131 2.654,6.706 2.654,6.281 C2.377,6.281 2.100,6.281 1.824,6.281 C1.675,6.274 1.527,6.268 1.379,6.261 C1.379,6.255 1.379,6.248 1.379,6.242 C1.360,6.242 1.341,6.242 1.321,6.242 C1.321,6.235 1.321,6.229 1.321,6.223 C1.308,6.223 1.295,6.223 1.283,6.223 C1.283,6.216 1.283,6.210 1.283,6.203 C1.270,6.203 1.257,6.203 1.244,6.203 C1.237,6.190 1.231,6.177 1.225,6.165 C1.212,6.165 1.199,6.165 1.186,6.165 C1.167,6.139 1.147,6.113 1.128,6.087 C1.122,6.087 1.115,6.087 1.109,6.087 C0.978,5.902 1.012,5.533 1.012,5.218 C1.012,4.825 1.012,4.432 1.012,4.039 C1.012,3.872 0.979,3.632 1.031,3.498 C1.038,3.498 1.044,3.498 1.051,3.498 C1.064,3.459 1.076,3.420 1.089,3.382 C1.109,3.369 1.128,3.356 1.147,3.343 C1.147,3.330 1.147,3.317 1.147,3.305 C1.167,3.292 1.186,3.279 1.205,3.266 C1.205,3.259 1.205,3.253 1.205,3.247 C1.218,3.247 1.231,3.247 1.244,3.247 C1.257,3.227 1.270,3.208 1.283,3.189 C1.295,3.189 1.308,3.189 1.321,3.189 C1.328,3.176 1.334,3.163 1.341,3.150 C1.398,3.131 1.456,3.111 1.514,3.092 C1.540,3.092 1.566,3.092 1.592,3.092 C1.592,3.086 1.592,3.079 1.592,3.073 C1.611,3.073 1.630,3.073 1.650,3.073 C1.650,3.066 1.650,3.060 1.650,3.053 C1.721,3.040 1.791,3.028 1.862,3.015 C1.862,3.008 1.862,3.002 1.862,2.995 C1.933,2.982 2.004,2.970 2.075,2.957 C2.075,2.950 2.075,2.944 2.075,2.937 C2.126,2.931 2.178,2.924 2.229,2.918 C2.695,2.751 3.231,2.660 3.698,2.493 C3.723,2.493 3.749,2.493 3.775,2.493 C3.775,2.486 3.775,2.480 3.775,2.474 C3.801,2.474 3.827,2.474 3.852,2.474 C3.852,2.467 3.852,2.461 3.852,2.454 C3.872,2.454 3.891,2.454 3.910,2.454 C3.910,2.448 3.910,2.441 3.910,2.435 C3.955,2.428 4.000,2.422 4.046,2.416 C4.046,2.409 4.046,2.403 4.046,2.396 C4.116,2.383 4.187,2.370 4.258,2.358 C4.258,2.351 4.258,2.345 4.258,2.338 C4.310,2.332 4.361,2.325 4.413,2.319 C4.413,2.313 4.413,2.306 4.413,2.300 C4.432,2.300 4.451,2.300 4.471,2.300 C4.471,2.293 4.471,2.287 4.471,2.280 C4.541,2.267 4.612,2.255 4.683,2.242 C4.683,2.235 4.683,2.229 4.683,2.222 C4.709,2.222 4.735,2.222 4.760,2.222 C4.760,2.216 4.760,2.209 4.760,2.203 C4.786,2.203 4.812,2.203 4.838,2.203 C4.838,2.197 4.838,2.190 4.838,2.184 C4.857,2.184 4.876,2.184 4.896,2.184 C4.896,2.177 4.896,2.171 4.896,2.164 C4.966,2.151 5.037,2.139 5.108,2.126 C5.108,2.119 5.108,2.113 5.108,2.106 C5.160,2.100 5.211,2.094 5.263,2.087 C5.771,1.904 6.358,1.806 6.866,1.623 C6.989,1.598 7.111,1.572 7.234,1.546 C7.700,1.378 8.235,1.288 8.702,1.121 C8.824,1.095 8.947,1.069 9.069,1.044 C9.330,0.950 9.640,0.886 9.900,0.792 C10.022,0.767 10.145,0.741 10.267,0.715 C10.527,0.622 10.839,0.556 11.098,0.464 C11.149,0.457 11.201,0.451 11.252,0.444 C11.252,0.438 11.252,0.432 11.252,0.425 C11.323,0.412 11.394,0.399 11.465,0.386 C11.465,0.380 11.465,0.374 11.465,0.367 C11.484,0.367 11.504,0.367 11.523,0.367 C11.523,0.361 11.523,0.354 11.523,0.348 C11.594,0.335 11.665,0.322 11.735,0.309 C11.735,0.303 11.735,0.296 11.735,0.290 C11.787,0.283 11.838,0.277 11.890,0.271 C12.151,0.178 12.460,0.111 12.721,0.019 C12.747,0.019 12.772,0.019 12.798,0.019 C12.798,0.013 12.798,0.006 12.798,-0.000 C12.875,-0.000 12.953,-0.000 13.030,-0.000 C13.289,0.000 13.492,0.085 13.687,0.155 C13.809,0.180 13.932,0.206 14.054,0.232 C14.452,0.375 14.912,0.457 15.310,0.599 C15.451,0.631 15.593,0.663 15.735,0.696 C15.821,0.728 15.939,0.763 16.025,0.792 C16.050,0.792 16.076,0.792 16.102,0.792 C16.362,0.886 16.672,0.950 16.933,1.044 C17.055,1.069 17.178,1.095 17.300,1.121 C17.560,1.215 17.870,1.279 18.131,1.372 C18.253,1.398 18.375,1.424 18.498,1.449 C18.757,1.543 19.070,1.608 19.329,1.701 C19.380,1.707 19.432,1.713 19.483,1.720 C19.483,1.726 19.483,1.733 19.483,1.739 C19.503,1.739 19.522,1.739 19.541,1.739 C19.541,1.746 19.541,1.752 19.541,1.759 C19.612,1.771 19.683,1.784 19.754,1.797 C19.754,1.804 19.754,1.810 19.754,1.817 C19.825,1.829 19.895,1.842 19.966,1.855 C19.966,1.862 19.966,1.868 19.966,1.874 C20.018,1.881 20.069,1.887 20.121,1.894 C20.121,1.900 20.121,1.907 20.121,1.913 C20.140,1.913 20.159,1.913 20.179,1.913 C20.179,1.920 20.179,1.926 20.179,1.932 C20.250,1.945 20.320,1.958 20.391,1.971 C20.391,1.978 20.391,1.984 20.391,1.990 C20.443,1.997 20.494,2.003 20.546,2.010 C21.054,2.193 21.641,2.291 22.150,2.474 C22.272,2.499 22.394,2.525 22.517,2.551 C22.983,2.719 23.518,2.809 23.985,2.976 C24.037,2.982 24.088,2.989 24.140,2.995 C24.140,3.002 24.140,3.008 24.140,3.015 C24.159,3.015 24.178,3.015 24.198,3.015 C24.198,3.021 24.198,3.028 24.198,3.034 C24.268,3.047 24.339,3.060 24.410,3.073 C24.410,3.079 24.410,3.086 24.410,3.092 C24.481,3.105 24.552,3.118 24.623,3.131 C24.623,3.137 24.623,3.143 24.623,3.150 C24.636,3.150 24.648,3.150 24.661,3.150 C24.668,3.163 24.674,3.176 24.681,3.189 C24.693,3.189 24.706,3.189 24.719,3.189 C24.732,3.208 24.745,3.227 24.758,3.247 C24.771,3.247 24.784,3.247 24.797,3.247 C24.797,3.253 24.797,3.259 24.797,3.266 C24.816,3.279 24.835,3.292 24.854,3.305 C24.854,3.317 24.854,3.330 24.854,3.343 C24.874,3.356 24.893,3.369 24.912,3.382 C24.912,3.395 24.912,3.408 24.912,3.420 C24.919,3.420 24.925,3.420 24.932,3.420 C24.938,3.446 24.945,3.472 24.951,3.498 C24.958,3.498 24.964,3.498 24.970,3.498 C25.020,3.623 24.990,3.843 24.990,4.000 C24.990,4.458 24.990,4.915 24.990,5.372 C24.990,5.651 25.007,5.926 24.893,6.087 C24.867,6.107 24.842,6.126 24.816,6.145 C24.816,6.152 24.816,6.158 24.816,6.165 C24.803,6.165 24.790,6.165 24.777,6.165 C24.771,6.177 24.764,6.190 24.758,6.203 C24.745,6.203 24.732,6.203 24.719,6.203 C24.719,6.210 24.719,6.216 24.719,6.223 C24.706,6.223 24.693,6.223 24.681,6.223 C24.681,6.229 24.681,6.235 24.681,6.242 C24.661,6.242 24.642,6.242 24.623,6.242 C24.623,6.248 24.623,6.255 24.623,6.261 C24.475,6.268 24.326,6.274 24.178,6.281 C23.901,6.281 23.624,6.281 23.347,6.281 ZM2.094,4.078 C2.094,4.458 2.094,4.838 2.094,5.218 C9.365,5.218 16.637,5.218 23.908,5.218 C23.908,4.825 23.908,4.432 23.908,4.039 C23.888,4.032 23.869,4.026 23.850,4.020 C23.804,3.981 23.757,4.003 23.695,3.981 C23.695,3.974 23.695,3.968 23.695,3.962 C23.676,3.962 23.657,3.962 23.637,3.962 C23.637,3.955 23.637,3.949 23.637,3.942 C23.611,3.942 23.586,3.942 23.560,3.942 C23.560,3.936 23.560,3.929 23.560,3.923 C23.534,3.923 23.508,3.923 23.483,3.923 C23.267,3.845 23.003,3.788 22.787,3.710 C22.736,3.704 22.684,3.697 22.633,3.691 C22.168,3.523 21.630,3.433 21.164,3.266 C21.022,3.234 20.881,3.201 20.739,3.169 C20.739,3.163 20.739,3.156 20.739,3.150 C20.688,3.143 20.636,3.137 20.584,3.131 C20.584,3.124 20.584,3.118 20.584,3.111 C20.565,3.111 20.546,3.111 20.527,3.111 C20.527,3.105 20.527,3.098 20.527,3.092 C20.456,3.079 20.385,3.066 20.314,3.053 C20.314,3.047 20.314,3.040 20.314,3.034 C20.243,3.021 20.172,3.008 20.101,2.995 C20.101,2.989 20.101,2.982 20.101,2.976 C20.050,2.970 19.998,2.963 19.947,2.957 C19.947,2.950 19.947,2.944 19.947,2.937 C19.928,2.937 19.908,2.937 19.889,2.937 C19.889,2.931 19.889,2.924 19.889,2.918 C19.818,2.905 19.747,2.892 19.676,2.879 C19.676,2.873 19.676,2.866 19.676,2.860 C19.651,2.860 19.625,2.860 19.599,2.860 C19.599,2.854 19.599,2.847 19.599,2.841 C19.573,2.841 19.548,2.841 19.522,2.841 C18.989,2.648 18.375,2.549 17.841,2.358 C17.789,2.351 17.738,2.345 17.686,2.338 C17.686,2.332 17.686,2.325 17.686,2.319 C17.667,2.319 17.648,2.319 17.628,2.319 C17.628,2.313 17.628,2.306 17.628,2.300 C17.558,2.287 17.487,2.274 17.416,2.261 C17.416,2.255 17.416,2.248 17.416,2.242 C17.345,2.229 17.274,2.216 17.203,2.203 C17.203,2.197 17.203,2.190 17.203,2.184 C17.152,2.177 17.100,2.171 17.049,2.164 C17.049,2.158 17.049,2.151 17.049,2.145 C17.029,2.145 17.010,2.145 16.991,2.145 C16.991,2.139 16.991,2.132 16.991,2.126 C16.920,2.113 16.849,2.100 16.778,2.087 C16.778,2.081 16.778,2.074 16.778,2.068 C16.752,2.068 16.727,2.068 16.701,2.068 C16.701,2.061 16.701,2.055 16.701,2.048 C16.675,2.048 16.649,2.048 16.624,2.048 C16.226,1.905 15.766,1.824 15.368,1.681 C15.245,1.655 15.123,1.630 15.001,1.604 C14.716,1.502 14.377,1.435 14.093,1.333 C14.041,1.327 13.990,1.321 13.938,1.314 C13.938,1.308 13.938,1.301 13.938,1.295 C13.867,1.282 13.796,1.269 13.725,1.256 C13.725,1.250 13.725,1.243 13.725,1.237 C13.655,1.224 13.584,1.211 13.513,1.198 C13.513,1.192 13.513,1.185 13.513,1.179 C13.494,1.179 13.474,1.179 13.455,1.179 C13.455,1.172 13.455,1.166 13.455,1.159 C13.403,1.153 13.352,1.147 13.300,1.140 C13.300,1.134 13.300,1.127 13.300,1.121 C13.281,1.121 13.262,1.121 13.242,1.121 C13.242,1.114 13.242,1.108 13.242,1.102 C13.197,1.095 13.152,1.089 13.107,1.082 C13.107,1.076 13.107,1.069 13.107,1.063 C13.081,1.063 13.056,1.063 13.030,1.063 C13.030,1.056 13.030,1.050 13.030,1.044 C9.385,2.055 5.739,3.066 2.094,4.078 ZM12.875,2.087 C13.361,2.080 13.663,2.233 13.861,2.512 C13.880,2.525 13.899,2.538 13.919,2.551 C13.919,2.564 13.919,2.577 13.919,2.590 C13.932,2.596 13.944,2.602 13.957,2.609 C13.977,2.667 13.996,2.725 14.015,2.783 C14.022,2.783 14.028,2.783 14.035,2.783 C14.035,2.796 14.035,2.809 14.035,2.821 C14.041,2.821 14.047,2.821 14.054,2.821 C14.054,2.847 14.054,2.873 14.054,2.899 C14.111,3.077 14.096,3.279 14.035,3.440 C14.035,3.459 14.035,3.478 14.035,3.498 C14.028,3.498 14.022,3.498 14.015,3.498 C14.015,3.511 14.015,3.524 14.015,3.536 C14.009,3.536 14.002,3.536 13.996,3.536 C13.996,3.549 13.996,3.562 13.996,3.575 C13.990,3.575 13.983,3.575 13.977,3.575 C13.977,3.588 13.977,3.601 13.977,3.614 C13.970,3.614 13.964,3.614 13.957,3.614 C13.957,3.627 13.957,3.639 13.957,3.652 C13.951,3.652 13.944,3.652 13.938,3.652 C13.938,3.665 13.938,3.678 13.938,3.691 C13.925,3.697 13.912,3.704 13.899,3.710 C13.729,3.962 13.528,4.078 13.204,4.174 C13.069,4.174 12.933,4.174 12.798,4.174 C12.798,4.168 12.798,4.161 12.798,4.155 C12.772,4.155 12.747,4.155 12.721,4.155 C12.721,4.148 12.721,4.142 12.721,4.135 C12.695,4.135 12.669,4.135 12.643,4.135 C12.643,4.129 12.643,4.123 12.643,4.116 C12.624,4.116 12.605,4.116 12.585,4.116 C12.585,4.110 12.585,4.103 12.585,4.097 C12.547,4.084 12.508,4.071 12.470,4.058 C12.470,4.052 12.470,4.045 12.470,4.039 C12.457,4.039 12.444,4.039 12.431,4.039 C12.424,4.026 12.418,4.013 12.412,4.000 C12.399,4.000 12.386,4.000 12.373,4.000 C12.367,3.987 12.360,3.974 12.354,3.962 C12.341,3.962 12.328,3.962 12.315,3.962 C12.296,3.936 12.276,3.910 12.257,3.884 C12.206,3.839 12.154,3.794 12.102,3.749 C12.102,3.736 12.102,3.723 12.102,3.710 C12.090,3.704 12.077,3.697 12.064,3.691 C12.057,3.665 12.051,3.639 12.045,3.614 C12.038,3.614 12.032,3.614 12.025,3.614 C12.012,3.575 11.999,3.536 11.987,3.498 C11.980,3.498 11.974,3.498 11.967,3.498 C11.940,3.436 11.880,3.117 11.909,3.015 C11.916,3.015 11.922,3.015 11.929,3.015 C11.935,2.950 11.941,2.886 11.948,2.821 C11.954,2.821 11.961,2.821 11.967,2.821 C11.967,2.809 11.967,2.796 11.967,2.783 C11.974,2.783 11.980,2.783 11.987,2.783 C12.006,2.725 12.025,2.667 12.045,2.609 C12.057,2.602 12.070,2.596 12.083,2.590 C12.083,2.577 12.083,2.564 12.083,2.551 C12.102,2.538 12.122,2.525 12.141,2.512 C12.141,2.499 12.141,2.486 12.141,2.474 C12.180,2.441 12.218,2.409 12.257,2.377 C12.263,2.364 12.270,2.351 12.276,2.338 C12.289,2.338 12.302,2.338 12.315,2.338 C12.328,2.319 12.341,2.300 12.354,2.280 C12.367,2.280 12.379,2.280 12.392,2.280 C12.399,2.267 12.405,2.255 12.412,2.242 C12.450,2.229 12.489,2.216 12.528,2.203 C12.528,2.197 12.528,2.190 12.528,2.184 C12.540,2.184 12.553,2.184 12.566,2.184 C12.566,2.177 12.566,2.171 12.566,2.164 C12.585,2.164 12.605,2.164 12.624,2.164 C12.624,2.158 12.624,2.151 12.624,2.145 C12.643,2.145 12.663,2.145 12.682,2.145 C12.682,2.139 12.682,2.132 12.682,2.126 C12.708,2.126 12.734,2.126 12.759,2.126 C12.759,2.119 12.759,2.113 12.759,2.106 C12.798,2.106 12.837,2.106 12.875,2.106 C12.875,2.100 12.875,2.094 12.875,2.087 ZM9.108,3.131 C9.442,3.124 9.580,3.255 9.687,3.478 C9.694,3.478 9.700,3.478 9.707,3.478 C9.737,3.549 9.738,3.775 9.707,3.846 C9.700,3.846 9.694,3.846 9.687,3.846 C9.687,3.858 9.687,3.871 9.687,3.884 C9.681,3.884 9.674,3.884 9.668,3.884 C9.668,3.897 9.668,3.910 9.668,3.923 C9.655,3.929 9.642,3.936 9.629,3.942 C9.629,3.955 9.629,3.968 9.629,3.981 C9.616,3.987 9.604,3.994 9.591,4.000 C9.571,4.026 9.552,4.052 9.533,4.078 C9.520,4.078 9.507,4.078 9.494,4.078 C9.488,4.090 9.481,4.103 9.475,4.116 C9.462,4.116 9.449,4.116 9.436,4.116 C9.436,4.123 9.436,4.129 9.436,4.135 C9.397,4.142 9.359,4.148 9.320,4.155 C9.320,4.161 9.320,4.168 9.320,4.174 C9.170,4.221 8.903,4.124 8.837,4.078 C8.818,4.052 8.799,4.026 8.779,4.000 C8.766,3.994 8.753,3.987 8.741,3.981 C8.741,3.968 8.741,3.955 8.741,3.942 C8.728,3.936 8.715,3.929 8.702,3.923 C8.695,3.891 8.689,3.858 8.683,3.826 C8.676,3.826 8.670,3.826 8.663,3.826 C8.648,3.786 8.624,3.598 8.644,3.536 C8.650,3.536 8.657,3.536 8.663,3.536 C8.663,3.517 8.663,3.498 8.663,3.478 C8.670,3.478 8.676,3.478 8.683,3.478 C8.695,3.440 8.708,3.401 8.721,3.362 C8.760,3.330 8.799,3.298 8.837,3.266 C8.844,3.253 8.850,3.240 8.856,3.227 C8.869,3.227 8.882,3.227 8.895,3.227 C8.895,3.221 8.895,3.214 8.895,3.208 C8.921,3.201 8.947,3.195 8.972,3.189 C8.972,3.182 8.972,3.176 8.972,3.169 C9.018,3.163 9.063,3.156 9.108,3.150 C9.108,3.143 9.108,3.137 9.108,3.131 ZM16.740,3.131 C17.043,3.125 17.250,3.272 17.339,3.478 C17.354,3.515 17.377,3.708 17.358,3.768 C17.351,3.768 17.345,3.768 17.339,3.768 C17.332,3.807 17.326,3.846 17.319,3.884 C17.313,3.884 17.306,3.884 17.300,3.884 C17.300,3.897 17.300,3.910 17.300,3.923 C17.287,3.929 17.274,3.936 17.261,3.942 C17.261,3.955 17.261,3.968 17.261,3.981 C17.248,3.987 17.235,3.994 17.223,4.000 C17.203,4.026 17.184,4.052 17.165,4.078 C17.152,4.078 17.139,4.078 17.126,4.078 C17.120,4.090 17.113,4.103 17.107,4.116 C17.094,4.116 17.081,4.116 17.068,4.116 C17.068,4.123 17.068,4.129 17.068,4.135 C17.029,4.142 16.991,4.148 16.952,4.155 C16.952,4.161 16.952,4.168 16.952,4.174 C16.907,4.174 16.862,4.174 16.817,4.174 C16.529,4.174 16.344,4.002 16.276,3.788 C16.276,3.704 16.276,3.620 16.276,3.536 C16.282,3.536 16.289,3.536 16.295,3.536 C16.295,3.517 16.295,3.498 16.295,3.478 C16.302,3.478 16.308,3.478 16.314,3.478 C16.327,3.440 16.340,3.401 16.353,3.362 C16.392,3.330 16.430,3.298 16.469,3.266 C16.476,3.253 16.482,3.240 16.488,3.227 C16.501,3.227 16.514,3.227 16.527,3.227 C16.533,3.214 16.540,3.201 16.546,3.189 C16.566,3.189 16.585,3.189 16.604,3.189 C16.604,3.182 16.604,3.176 16.604,3.169 C16.617,3.169 16.630,3.169 16.643,3.169 C16.643,3.163 16.643,3.156 16.643,3.150 C16.675,3.150 16.707,3.150 16.740,3.150 C16.740,3.143 16.740,3.137 16.740,3.131 ZM3.736,6.281 C3.736,6.628 3.736,6.976 3.736,7.324 C9.912,7.324 16.090,7.324 22.265,7.324 C22.265,6.976 22.265,6.628 22.265,6.281 C16.090,6.281 9.912,6.281 3.736,6.281 ZM4.818,8.368 C4.818,11.498 4.818,14.629 4.818,17.759 C5.185,17.759 5.553,17.759 5.920,17.759 C5.920,14.629 5.920,11.498 5.920,8.368 C5.553,8.368 5.185,8.368 4.818,8.368 ZM7.002,8.368 C7.002,11.498 7.002,14.629 7.002,17.759 C8.457,17.759 9.913,17.759 11.368,17.759 C11.368,14.629 11.368,11.498 11.368,8.368 C9.913,8.368 8.457,8.368 7.002,8.368 ZM12.450,8.368 C12.450,11.498 12.450,14.629 12.450,17.759 C12.817,17.759 13.184,17.759 13.552,17.759 C13.552,14.629 13.552,11.498 13.552,8.368 C13.184,8.368 12.817,8.368 12.450,8.368 ZM14.634,8.368 C14.634,11.498 14.634,14.629 14.634,17.759 C16.089,17.759 17.545,17.759 19.000,17.759 C19.000,14.629 19.000,11.498 19.000,8.368 C17.545,8.368 16.089,8.368 14.634,8.368 ZM20.082,8.368 C20.082,11.498 20.082,14.629 20.082,17.759 C20.449,17.759 20.816,17.759 21.183,17.759 C21.183,14.629 21.183,11.498 21.183,8.368 C20.816,8.368 20.449,8.368 20.082,8.368 ZM3.736,18.822 C3.736,19.170 3.736,19.518 3.736,19.866 C9.912,19.866 16.090,19.866 22.265,19.866 C22.265,19.518 22.265,19.170 22.265,18.822 C16.090,18.822 9.912,18.822 3.736,18.822 ZM2.094,20.909 C2.094,21.251 2.094,21.592 2.094,21.934 C2.246,21.989 2.524,21.953 2.712,21.953 C3.157,21.953 3.601,21.953 4.046,21.953 C5.552,21.953 7.060,21.953 8.567,21.953 C13.673,21.953 18.782,21.953 23.888,21.953 C23.905,21.931 23.886,21.950 23.908,21.934 C23.908,21.592 23.908,21.251 23.908,20.909 C16.637,20.909 9.365,20.909 2.094,20.909 Z"/>
</svg>