<svg 
 xmlns="http://www.w3.org/2000/svg"
 xmlns:xlink="http://www.w3.org/1999/xlink"
 width="24px" height="23px">
<path fill-rule="evenodd"  fill="rgb(255, 255, 255)"
 d="M16.764,0.002 C18.110,-0.028 19.118,0.214 20.020,0.619 C20.039,0.619 20.058,0.619 20.077,0.619 C20.077,0.626 20.077,0.632 20.077,0.639 C20.103,0.645 20.129,0.651 20.154,0.658 C20.154,0.664 20.154,0.671 20.154,0.677 C20.174,0.677 20.193,0.677 20.212,0.677 C20.212,0.684 20.212,0.690 20.212,0.696 C20.225,0.696 20.238,0.696 20.251,0.696 C20.251,0.703 20.251,0.709 20.251,0.716 C20.270,0.716 20.289,0.716 20.309,0.716 C20.309,0.722 20.309,0.729 20.309,0.735 C20.334,0.741 20.360,0.748 20.386,0.754 C20.386,0.761 20.386,0.767 20.386,0.774 C20.418,0.780 20.450,0.786 20.482,0.793 C20.482,0.799 20.482,0.806 20.482,0.812 C20.570,0.851 20.695,0.861 20.752,0.928 C20.745,0.928 20.739,0.928 20.732,0.928 C20.630,1.037 20.527,1.146 20.424,1.255 C20.411,1.255 20.398,1.255 20.386,1.255 C20.353,1.294 20.321,1.333 20.289,1.371 C20.173,1.487 20.058,1.601 19.923,1.699 C19.840,1.789 19.756,1.879 19.673,1.969 C19.634,2.001 19.596,2.033 19.557,2.065 C19.544,2.084 19.532,2.104 19.519,2.123 C19.506,2.123 19.493,2.123 19.480,2.123 C19.365,2.245 19.249,2.367 19.133,2.489 C19.108,2.508 19.082,2.528 19.056,2.547 C19.056,2.553 19.056,2.560 19.056,2.566 C19.044,2.566 19.031,2.566 19.018,2.566 C18.889,2.701 18.761,2.836 18.633,2.971 C18.626,2.971 18.620,2.971 18.613,2.971 C18.607,2.984 18.600,2.997 18.594,3.010 C18.581,3.010 18.568,3.010 18.555,3.010 C18.491,3.080 18.427,3.151 18.363,3.222 C18.305,3.273 18.247,3.325 18.189,3.376 C18.170,3.402 18.151,3.427 18.132,3.453 C18.119,3.453 18.106,3.453 18.093,3.453 C18.029,3.524 17.965,3.594 17.901,3.665 C17.843,3.717 17.785,3.768 17.727,3.819 C17.708,3.845 17.689,3.871 17.669,3.896 C17.657,3.896 17.644,3.896 17.631,3.896 C17.502,4.031 17.374,4.166 17.246,4.301 C17.239,4.301 17.233,4.301 17.226,4.301 C17.220,4.314 17.213,4.327 17.207,4.340 C17.194,4.340 17.181,4.340 17.168,4.340 C17.162,4.353 17.156,4.366 17.149,4.378 C17.098,4.423 17.046,4.468 16.995,4.513 C16.995,4.526 16.995,4.539 16.995,4.552 C17.094,4.606 17.151,4.688 17.226,4.764 C17.290,4.822 17.355,4.880 17.419,4.937 C17.445,4.970 17.470,5.002 17.496,5.034 C17.638,5.137 17.759,5.258 17.881,5.381 C17.913,5.419 17.945,5.458 17.978,5.497 C18.113,5.594 18.227,5.708 18.344,5.824 C18.376,5.863 18.408,5.901 18.440,5.940 C18.453,5.940 18.466,5.940 18.478,5.940 C18.491,5.959 18.504,5.978 18.517,5.998 C18.562,6.036 18.607,6.075 18.652,6.113 C18.735,6.203 18.819,6.293 18.902,6.383 C18.915,6.383 18.928,6.383 18.941,6.383 C18.947,6.396 18.954,6.409 18.960,6.422 C18.999,6.454 19.037,6.486 19.076,6.518 C19.139,6.582 19.190,6.684 19.288,6.711 C19.422,6.570 19.557,6.428 19.692,6.287 C19.705,6.287 19.718,6.287 19.731,6.287 C19.763,6.248 19.795,6.210 19.827,6.171 C19.943,6.055 20.058,5.941 20.193,5.844 C20.276,5.754 20.360,5.664 20.443,5.574 C20.488,5.535 20.533,5.497 20.578,5.458 C20.591,5.439 20.604,5.419 20.617,5.400 C20.630,5.400 20.642,5.400 20.655,5.400 C20.771,5.278 20.886,5.156 21.002,5.034 C21.028,5.015 21.053,4.995 21.079,4.976 C21.079,4.970 21.079,4.963 21.079,4.957 C21.092,4.957 21.105,4.957 21.118,4.957 C21.252,4.815 21.387,4.674 21.522,4.533 C21.541,4.526 21.561,4.520 21.580,4.513 C21.651,4.436 21.721,4.359 21.792,4.282 C21.843,4.237 21.895,4.192 21.946,4.147 C21.965,4.121 21.985,4.096 22.004,4.070 C22.017,4.070 22.029,4.070 22.042,4.070 C22.126,3.980 22.209,3.890 22.293,3.800 C22.338,3.762 22.383,3.723 22.428,3.684 C22.440,3.665 22.453,3.646 22.466,3.627 C22.479,3.627 22.492,3.627 22.505,3.627 C22.614,3.511 22.723,3.395 22.832,3.280 C22.892,3.220 22.981,3.181 23.025,3.106 C23.031,3.106 23.038,3.106 23.044,3.106 C23.057,3.174 23.095,3.211 23.121,3.260 C23.127,3.292 23.134,3.325 23.140,3.357 C23.147,3.357 23.153,3.357 23.160,3.357 C23.172,3.395 23.185,3.434 23.198,3.472 C23.205,3.472 23.211,3.472 23.217,3.472 C23.217,3.485 23.217,3.498 23.217,3.511 C23.224,3.511 23.230,3.511 23.237,3.511 C23.237,3.530 23.237,3.549 23.237,3.569 C23.243,3.569 23.250,3.569 23.256,3.569 C23.269,3.607 23.282,3.646 23.294,3.684 C23.301,3.684 23.307,3.684 23.314,3.684 C23.314,3.697 23.314,3.710 23.314,3.723 C23.320,3.723 23.327,3.723 23.333,3.723 C23.333,3.742 23.333,3.762 23.333,3.781 C23.339,3.781 23.346,3.781 23.352,3.781 C23.352,3.794 23.352,3.807 23.352,3.819 C23.359,3.819 23.365,3.819 23.372,3.819 C23.384,3.858 23.397,3.896 23.410,3.935 C23.416,3.935 23.423,3.935 23.429,3.935 C23.429,3.954 23.429,3.974 23.429,3.993 C23.436,3.993 23.442,3.993 23.449,3.993 C23.455,4.019 23.461,4.044 23.468,4.070 C23.474,4.070 23.481,4.070 23.487,4.070 C23.487,4.089 23.487,4.109 23.487,4.128 C23.494,4.128 23.500,4.128 23.506,4.128 C23.506,4.141 23.506,4.154 23.506,4.166 C23.513,4.166 23.519,4.166 23.526,4.166 C23.532,4.199 23.538,4.231 23.545,4.263 C23.551,4.263 23.558,4.263 23.564,4.263 C23.564,4.282 23.564,4.301 23.564,4.321 C23.571,4.321 23.577,4.321 23.583,4.321 C23.583,4.333 23.583,4.346 23.583,4.359 C23.590,4.359 23.596,4.359 23.603,4.359 C23.616,4.417 23.628,4.475 23.641,4.533 C23.648,4.533 23.654,4.533 23.660,4.533 C23.660,4.552 23.660,4.571 23.660,4.590 C23.667,4.590 23.673,4.590 23.680,4.590 C23.680,4.610 23.680,4.629 23.680,4.648 C23.686,4.648 23.693,4.648 23.699,4.648 C23.699,4.668 23.699,4.687 23.699,4.706 C23.705,4.706 23.712,4.706 23.718,4.706 C23.718,4.725 23.718,4.745 23.718,4.764 C23.725,4.764 23.731,4.764 23.738,4.764 C23.744,4.809 23.750,4.854 23.757,4.899 C23.763,4.899 23.770,4.899 23.776,4.899 C23.789,4.976 23.802,5.053 23.815,5.130 C23.821,5.130 23.827,5.130 23.834,5.130 C23.834,5.162 23.834,5.195 23.834,5.227 C23.840,5.227 23.847,5.227 23.853,5.227 C23.853,5.252 23.853,5.278 23.853,5.304 C23.860,5.304 23.866,5.304 23.872,5.304 C23.872,5.342 23.872,5.381 23.872,5.419 C23.879,5.419 23.885,5.419 23.892,5.419 C23.892,5.452 23.892,5.484 23.892,5.516 C23.898,5.516 23.904,5.516 23.911,5.516 C23.911,5.554 23.911,5.593 23.911,5.631 C23.917,5.631 23.924,5.631 23.930,5.631 C23.930,5.683 23.930,5.734 23.930,5.786 C23.937,5.786 23.943,5.786 23.949,5.786 C23.949,5.844 23.949,5.901 23.949,5.959 C23.956,5.959 23.962,5.959 23.969,5.959 C23.969,6.036 23.969,6.113 23.969,6.191 C24.010,6.338 24.011,6.776 23.969,6.923 C23.969,7.007 23.969,7.090 23.969,7.174 C23.933,7.297 23.928,7.478 23.892,7.598 C23.892,7.636 23.892,7.675 23.892,7.713 C23.885,7.713 23.879,7.713 23.872,7.713 C23.872,7.746 23.872,7.778 23.872,7.810 C23.866,7.810 23.860,7.810 23.853,7.810 C23.847,7.868 23.840,7.926 23.834,7.983 C23.827,7.983 23.821,7.983 23.815,7.983 C23.815,8.009 23.815,8.035 23.815,8.060 C23.808,8.060 23.802,8.060 23.795,8.060 C23.795,8.086 23.795,8.112 23.795,8.138 C23.789,8.138 23.782,8.138 23.776,8.138 C23.776,8.163 23.776,8.189 23.776,8.215 C23.630,8.622 23.508,9.051 23.294,9.391 C23.294,9.403 23.294,9.416 23.294,9.429 C23.288,9.429 23.282,9.429 23.275,9.429 C23.275,9.442 23.275,9.455 23.275,9.468 C23.269,9.468 23.262,9.468 23.256,9.468 C23.256,9.481 23.256,9.493 23.256,9.506 C23.250,9.506 23.243,9.506 23.237,9.506 C23.237,9.519 23.237,9.532 23.237,9.545 C23.230,9.545 23.224,9.545 23.217,9.545 C23.217,9.558 23.217,9.571 23.217,9.583 C23.211,9.583 23.205,9.583 23.198,9.583 C23.198,9.596 23.198,9.609 23.198,9.622 C23.185,9.628 23.172,9.635 23.160,9.641 C23.160,9.654 23.160,9.667 23.160,9.680 C23.153,9.680 23.147,9.680 23.140,9.680 C23.134,9.705 23.127,9.731 23.121,9.757 C23.108,9.763 23.095,9.770 23.083,9.776 C23.076,9.802 23.070,9.828 23.063,9.853 C23.057,9.853 23.050,9.853 23.044,9.853 C23.038,9.873 23.031,9.892 23.025,9.911 C23.012,9.918 22.999,9.924 22.986,9.930 C22.980,9.956 22.973,9.982 22.967,10.007 C22.954,10.014 22.941,10.020 22.928,10.027 C22.928,10.040 22.928,10.052 22.928,10.065 C22.916,10.072 22.903,10.078 22.890,10.085 C22.890,10.097 22.890,10.110 22.890,10.123 C22.871,10.136 22.851,10.149 22.832,10.162 C22.832,10.175 22.832,10.187 22.832,10.200 C22.819,10.207 22.806,10.213 22.794,10.220 C22.794,10.232 22.794,10.245 22.794,10.258 C22.774,10.271 22.755,10.284 22.736,10.297 C22.736,10.310 22.736,10.322 22.736,10.335 C22.723,10.342 22.710,10.348 22.697,10.354 C22.691,10.374 22.684,10.393 22.678,10.412 C22.659,10.425 22.639,10.438 22.620,10.451 C22.620,10.464 22.620,10.477 22.620,10.489 C22.595,10.509 22.569,10.528 22.543,10.547 C22.543,10.560 22.543,10.573 22.543,10.586 C22.524,10.599 22.505,10.612 22.485,10.624 C22.473,10.644 22.460,10.663 22.447,10.682 C22.440,10.682 22.434,10.682 22.428,10.682 C22.428,10.695 22.428,10.708 22.428,10.721 C22.376,10.766 22.325,10.811 22.273,10.856 C22.273,10.869 22.273,10.881 22.273,10.894 C22.216,10.946 22.158,10.997 22.100,11.048 C22.042,11.113 21.984,11.177 21.927,11.241 C21.914,11.241 21.901,11.241 21.888,11.241 C21.843,11.293 21.798,11.344 21.753,11.395 C21.740,11.395 21.728,11.395 21.715,11.395 C21.683,11.434 21.651,11.473 21.618,11.511 C21.606,11.511 21.593,11.511 21.580,11.511 C21.561,11.537 21.541,11.563 21.522,11.588 C21.509,11.588 21.496,11.588 21.484,11.588 C21.471,11.608 21.458,11.627 21.445,11.646 C21.432,11.646 21.419,11.646 21.407,11.646 C21.394,11.665 21.381,11.685 21.368,11.704 C21.355,11.704 21.342,11.704 21.330,11.704 C21.317,11.723 21.304,11.742 21.291,11.762 C21.278,11.762 21.265,11.762 21.252,11.762 C21.240,11.781 21.227,11.800 21.214,11.820 C21.201,11.820 21.188,11.820 21.175,11.820 C21.169,11.832 21.163,11.845 21.156,11.858 C21.143,11.858 21.130,11.858 21.118,11.858 C21.111,11.871 21.105,11.884 21.098,11.897 C21.086,11.897 21.073,11.897 21.060,11.897 C21.053,11.910 21.047,11.922 21.041,11.935 C21.028,11.935 21.015,11.935 21.002,11.935 C20.996,11.948 20.989,11.961 20.983,11.974 C20.970,11.974 20.957,11.974 20.944,11.974 C20.938,11.987 20.931,12.000 20.925,12.012 C20.899,12.019 20.874,12.025 20.848,12.032 C20.841,12.044 20.835,12.057 20.829,12.070 C20.803,12.077 20.777,12.083 20.752,12.089 C20.745,12.102 20.739,12.115 20.732,12.128 C20.707,12.134 20.681,12.141 20.655,12.147 C20.649,12.160 20.642,12.173 20.636,12.186 C20.623,12.186 20.610,12.186 20.597,12.186 C20.597,12.192 20.597,12.199 20.597,12.205 C20.585,12.205 20.572,12.205 20.559,12.205 C20.559,12.212 20.559,12.218 20.559,12.224 C20.546,12.224 20.533,12.224 20.520,12.224 C20.520,12.231 20.520,12.237 20.520,12.244 C20.508,12.244 20.495,12.244 20.482,12.244 C20.482,12.250 20.482,12.257 20.482,12.263 C20.456,12.269 20.431,12.276 20.405,12.282 C20.398,12.295 20.392,12.308 20.386,12.321 C20.373,12.321 20.360,12.321 20.347,12.321 C20.347,12.327 20.347,12.334 20.347,12.340 C20.334,12.340 20.321,12.340 20.309,12.340 C20.309,12.347 20.309,12.353 20.309,12.359 C20.289,12.359 20.270,12.359 20.251,12.359 C20.251,12.366 20.251,12.372 20.251,12.379 C20.238,12.379 20.225,12.379 20.212,12.379 C20.212,12.385 20.212,12.391 20.212,12.398 C20.199,12.398 20.187,12.398 20.174,12.398 C20.174,12.404 20.174,12.411 20.174,12.417 C20.161,12.417 20.148,12.417 20.135,12.417 C20.135,12.424 20.135,12.430 20.135,12.436 C20.097,12.449 20.058,12.462 20.020,12.475 C20.020,12.481 20.020,12.488 20.020,12.494 C19.987,12.501 19.955,12.507 19.923,12.514 C19.923,12.520 19.923,12.526 19.923,12.533 C19.910,12.533 19.898,12.533 19.885,12.533 C19.885,12.539 19.885,12.546 19.885,12.552 C19.865,12.552 19.846,12.552 19.827,12.552 C19.827,12.559 19.827,12.565 19.827,12.571 C19.814,12.571 19.801,12.571 19.788,12.571 C19.788,12.578 19.788,12.584 19.788,12.591 C19.750,12.597 19.711,12.604 19.673,12.610 C19.673,12.616 19.673,12.623 19.673,12.629 C19.660,12.629 19.647,12.629 19.634,12.629 C19.634,12.636 19.634,12.642 19.634,12.649 C19.596,12.655 19.557,12.661 19.519,12.668 C19.519,12.674 19.519,12.681 19.519,12.687 C19.499,12.687 19.480,12.687 19.461,12.687 C19.461,12.694 19.461,12.700 19.461,12.706 C19.442,12.706 19.422,12.706 19.403,12.706 C19.403,12.713 19.403,12.719 19.403,12.726 C19.384,12.726 19.365,12.726 19.345,12.726 C19.345,12.732 19.345,12.738 19.345,12.745 C19.326,12.745 19.307,12.745 19.288,12.745 C19.288,12.751 19.288,12.758 19.288,12.764 C19.268,12.764 19.249,12.764 19.230,12.764 C19.230,12.771 19.230,12.777 19.230,12.783 C19.210,12.783 19.191,12.783 19.172,12.783 C19.172,12.790 19.172,12.796 19.172,12.803 C19.146,12.803 19.121,12.803 19.095,12.803 C19.095,12.809 19.095,12.816 19.095,12.822 C19.076,12.822 19.056,12.822 19.037,12.822 C19.037,12.828 19.037,12.835 19.037,12.841 C19.011,12.841 18.986,12.841 18.960,12.841 C18.960,12.848 18.960,12.854 18.960,12.861 C18.934,12.861 18.909,12.861 18.883,12.861 C18.883,12.867 18.883,12.873 18.883,12.880 C18.857,12.880 18.832,12.880 18.806,12.880 C18.806,12.886 18.806,12.893 18.806,12.899 C18.748,12.906 18.690,12.912 18.633,12.918 C18.633,12.925 18.633,12.931 18.633,12.938 C18.600,12.938 18.568,12.938 18.536,12.938 C18.536,12.944 18.536,12.951 18.536,12.957 C18.459,12.963 18.382,12.970 18.305,12.976 C18.305,12.983 18.305,12.989 18.305,12.996 C18.215,13.002 18.125,13.008 18.035,13.015 C17.862,13.064 17.597,13.073 17.380,13.073 C17.162,13.073 16.944,13.073 16.725,13.073 C16.725,13.066 16.725,13.060 16.725,13.053 C16.642,13.053 16.558,13.053 16.475,13.053 C16.475,13.047 16.475,13.041 16.475,13.034 C16.417,13.034 16.359,13.034 16.302,13.034 C16.302,13.028 16.302,13.021 16.302,13.015 C16.257,13.015 16.212,13.015 16.167,13.015 C16.167,13.008 16.167,13.002 16.167,12.996 C16.122,12.996 16.077,12.996 16.032,12.996 C16.032,12.989 16.032,12.983 16.032,12.976 C15.993,12.976 15.955,12.976 15.916,12.976 C15.804,12.942 15.670,12.903 15.531,12.899 C15.409,13.028 15.287,13.156 15.165,13.285 C15.152,13.285 15.139,13.285 15.126,13.285 C15.056,13.362 14.985,13.439 14.915,13.516 C14.812,13.619 14.690,13.702 14.587,13.805 C14.472,13.927 14.356,14.049 14.240,14.171 C14.228,14.171 14.215,14.171 14.202,14.171 C14.189,14.191 14.176,14.210 14.163,14.229 C14.118,14.268 14.073,14.306 14.028,14.345 C13.945,14.435 13.861,14.525 13.778,14.615 C13.765,14.615 13.752,14.615 13.739,14.615 C13.707,14.653 13.675,14.692 13.643,14.731 C13.527,14.847 13.412,14.960 13.277,15.058 C13.200,15.142 13.123,15.225 13.046,15.309 C12.995,15.354 12.943,15.399 12.892,15.444 C12.879,15.463 12.866,15.482 12.853,15.502 C12.840,15.502 12.828,15.502 12.815,15.502 C12.783,15.540 12.751,15.579 12.718,15.617 C12.602,15.734 12.488,15.847 12.352,15.945 C12.295,16.009 12.237,16.074 12.179,16.138 C12.031,16.273 11.884,16.408 11.736,16.543 C11.646,16.639 11.556,16.735 11.466,16.832 C11.331,16.930 11.217,17.043 11.100,17.159 C11.068,17.198 11.036,17.237 11.004,17.275 C10.991,17.275 10.978,17.275 10.965,17.275 C10.953,17.294 10.940,17.314 10.927,17.333 C10.876,17.378 10.824,17.423 10.773,17.468 C10.696,17.551 10.619,17.635 10.542,17.719 C10.406,17.816 10.292,17.930 10.176,18.046 C10.144,18.085 10.111,18.123 10.079,18.162 C9.944,18.260 9.830,18.373 9.713,18.490 C9.681,18.528 9.649,18.567 9.617,18.605 C9.482,18.703 9.367,18.817 9.251,18.933 C9.219,18.972 9.187,19.010 9.155,19.049 C9.135,19.055 9.116,19.062 9.097,19.068 C8.962,19.209 8.827,19.351 8.692,19.492 C8.679,19.492 8.667,19.492 8.654,19.492 C8.641,19.511 8.628,19.531 8.615,19.550 C8.564,19.595 8.512,19.640 8.461,19.685 C8.384,19.768 8.307,19.852 8.230,19.935 C8.217,19.935 8.204,19.935 8.191,19.935 C8.114,20.019 8.037,20.103 7.960,20.186 C7.909,20.231 7.858,20.276 7.806,20.321 C7.793,20.340 7.780,20.360 7.768,20.379 C7.755,20.379 7.742,20.379 7.729,20.379 C7.697,20.417 7.665,20.456 7.633,20.495 C7.516,20.611 7.402,20.724 7.267,20.822 C7.126,20.970 6.984,21.118 6.843,21.266 C6.708,21.364 6.593,21.477 6.477,21.593 C6.445,21.632 6.413,21.670 6.381,21.709 C6.368,21.709 6.355,21.709 6.342,21.709 C6.329,21.728 6.316,21.748 6.304,21.767 C6.252,21.812 6.201,21.857 6.149,21.902 C6.072,21.985 5.995,22.069 5.918,22.152 C5.905,22.152 5.893,22.152 5.880,22.152 C5.841,22.197 5.803,22.242 5.764,22.287 C5.751,22.287 5.738,22.287 5.726,22.287 C5.706,22.313 5.687,22.339 5.668,22.364 C5.655,22.364 5.642,22.364 5.629,22.364 C5.616,22.384 5.604,22.403 5.591,22.422 C5.578,22.422 5.565,22.422 5.552,22.422 C5.546,22.435 5.539,22.448 5.533,22.461 C5.514,22.467 5.494,22.474 5.475,22.480 C5.475,22.487 5.475,22.493 5.475,22.499 C5.462,22.499 5.450,22.499 5.437,22.499 C5.430,22.512 5.424,22.525 5.417,22.538 C5.392,22.544 5.366,22.551 5.340,22.557 C5.334,22.570 5.328,22.583 5.321,22.596 C5.283,22.609 5.244,22.621 5.206,22.634 C5.206,22.641 5.206,22.647 5.206,22.654 C5.193,22.654 5.180,22.654 5.167,22.654 C5.167,22.660 5.167,22.666 5.167,22.673 C5.128,22.686 5.090,22.699 5.051,22.711 C5.051,22.718 5.051,22.724 5.051,22.731 C5.032,22.731 5.013,22.731 4.994,22.731 C4.994,22.737 4.994,22.744 4.994,22.750 C4.968,22.756 4.942,22.763 4.917,22.769 C4.917,22.776 4.917,22.782 4.917,22.789 C4.859,22.801 4.801,22.814 4.743,22.827 C4.264,23.015 3.444,23.072 2.913,22.885 C2.862,22.879 2.810,22.872 2.759,22.866 C2.759,22.859 2.759,22.853 2.759,22.846 C2.720,22.840 2.682,22.834 2.643,22.827 C2.643,22.821 2.643,22.814 2.643,22.808 C2.631,22.808 2.618,22.808 2.605,22.808 C2.605,22.801 2.605,22.795 2.605,22.789 C2.586,22.789 2.566,22.789 2.547,22.789 C2.547,22.782 2.547,22.776 2.547,22.769 C2.534,22.769 2.521,22.769 2.509,22.769 C2.509,22.763 2.509,22.756 2.509,22.750 C2.489,22.750 2.470,22.750 2.451,22.750 C2.451,22.744 2.451,22.737 2.451,22.731 C2.412,22.718 2.374,22.705 2.335,22.692 C2.335,22.686 2.335,22.679 2.335,22.673 C2.322,22.673 2.309,22.673 2.297,22.673 C2.297,22.666 2.297,22.660 2.297,22.654 C2.284,22.654 2.271,22.654 2.258,22.654 C2.258,22.647 2.258,22.641 2.258,22.634 C2.245,22.634 2.232,22.634 2.220,22.634 C2.220,22.628 2.220,22.621 2.220,22.615 C2.207,22.615 2.194,22.615 2.181,22.615 C2.181,22.609 2.181,22.602 2.181,22.596 C2.168,22.596 2.155,22.596 2.143,22.596 C2.143,22.589 2.143,22.583 2.143,22.576 C2.130,22.576 2.117,22.576 2.104,22.576 C2.098,22.564 2.091,22.551 2.085,22.538 C2.059,22.532 2.033,22.525 2.008,22.519 C2.008,22.512 2.008,22.506 2.008,22.499 C1.988,22.493 1.969,22.487 1.950,22.480 C1.943,22.467 1.937,22.454 1.931,22.442 C1.918,22.442 1.905,22.442 1.892,22.442 C1.879,22.422 1.866,22.403 1.854,22.384 C1.841,22.384 1.828,22.384 1.815,22.384 C1.802,22.364 1.789,22.345 1.777,22.326 C1.764,22.326 1.751,22.326 1.738,22.326 C1.712,22.294 1.687,22.262 1.661,22.229 C1.648,22.229 1.635,22.229 1.622,22.229 C1.507,22.107 1.391,21.985 1.276,21.863 C1.263,21.863 1.250,21.863 1.237,21.863 C1.160,21.780 1.083,21.696 1.006,21.613 C0.903,21.516 0.800,21.420 0.698,21.323 C0.698,21.311 0.698,21.298 0.698,21.285 C0.666,21.259 0.634,21.233 0.601,21.208 C0.601,21.195 0.601,21.182 0.601,21.169 C0.582,21.156 0.563,21.144 0.544,21.131 C0.544,21.118 0.544,21.105 0.544,21.092 C0.531,21.086 0.518,21.079 0.505,21.073 C0.499,21.054 0.492,21.034 0.486,21.015 C0.479,21.015 0.473,21.015 0.467,21.015 C0.467,21.002 0.467,20.989 0.467,20.976 C0.454,20.970 0.441,20.964 0.428,20.957 C0.422,20.931 0.415,20.906 0.409,20.880 C0.396,20.874 0.383,20.867 0.370,20.861 C0.357,20.822 0.345,20.784 0.332,20.745 C0.325,20.745 0.319,20.745 0.312,20.745 C0.312,20.732 0.312,20.719 0.312,20.707 C0.306,20.707 0.300,20.707 0.293,20.707 C0.280,20.668 0.267,20.629 0.255,20.591 C0.248,20.591 0.242,20.591 0.235,20.591 C0.184,20.437 0.133,20.282 0.081,20.128 C0.075,20.070 0.068,20.013 0.062,19.955 C-0.051,19.578 0.005,18.986 0.120,18.663 C0.120,18.637 0.120,18.612 0.120,18.586 C0.126,18.586 0.133,18.586 0.139,18.586 C0.139,18.567 0.139,18.547 0.139,18.528 C0.145,18.528 0.152,18.528 0.158,18.528 C0.158,18.509 0.158,18.490 0.158,18.470 C0.165,18.470 0.171,18.470 0.178,18.470 C0.178,18.451 0.178,18.432 0.178,18.413 C0.184,18.413 0.190,18.413 0.197,18.413 C0.197,18.400 0.197,18.387 0.197,18.374 C0.203,18.374 0.210,18.374 0.216,18.374 C0.216,18.355 0.216,18.335 0.216,18.316 C0.223,18.316 0.229,18.316 0.235,18.316 C0.248,18.278 0.261,18.239 0.274,18.200 C0.280,18.200 0.287,18.200 0.293,18.200 C0.293,18.188 0.293,18.175 0.293,18.162 C0.300,18.162 0.306,18.162 0.312,18.162 C0.312,18.149 0.312,18.136 0.312,18.123 C0.319,18.123 0.325,18.123 0.332,18.123 C0.332,18.111 0.332,18.098 0.332,18.085 C0.338,18.085 0.345,18.085 0.351,18.085 C0.351,18.072 0.351,18.059 0.351,18.046 C0.357,18.046 0.364,18.046 0.370,18.046 C0.370,18.033 0.370,18.021 0.370,18.008 C0.377,18.008 0.383,18.008 0.389,18.008 C0.389,17.995 0.389,17.982 0.389,17.969 C0.402,17.963 0.415,17.956 0.428,17.950 C0.434,17.924 0.441,17.898 0.447,17.873 C0.460,17.866 0.473,17.860 0.486,17.853 C0.486,17.841 0.486,17.828 0.486,17.815 C0.499,17.808 0.512,17.802 0.524,17.796 C0.524,17.783 0.524,17.770 0.524,17.757 C0.537,17.751 0.550,17.744 0.563,17.738 C0.569,17.719 0.576,17.699 0.582,17.680 C0.601,17.667 0.621,17.654 0.640,17.641 C0.640,17.629 0.640,17.616 0.640,17.603 C0.685,17.564 0.730,17.526 0.775,17.487 C0.775,17.474 0.775,17.462 0.775,17.449 C0.826,17.404 0.878,17.359 0.929,17.314 C0.942,17.294 0.955,17.275 0.967,17.256 C0.987,17.249 1.006,17.243 1.025,17.237 C1.160,17.095 1.295,16.954 1.430,16.812 C1.443,16.812 1.455,16.812 1.468,16.812 C1.500,16.774 1.532,16.735 1.565,16.697 C1.681,16.581 1.795,16.467 1.931,16.369 C2.027,16.266 2.123,16.163 2.220,16.061 C2.258,16.029 2.297,15.996 2.335,15.964 C2.342,15.951 2.348,15.939 2.354,15.926 C2.367,15.926 2.380,15.926 2.393,15.926 C2.425,15.887 2.457,15.849 2.489,15.810 C2.606,15.694 2.720,15.580 2.855,15.482 C2.997,15.335 3.138,15.187 3.279,15.039 C3.414,14.941 3.529,14.828 3.645,14.711 C3.677,14.673 3.709,14.634 3.741,14.596 C3.754,14.596 3.767,14.596 3.780,14.596 C3.793,14.576 3.806,14.557 3.818,14.538 C3.870,14.493 3.921,14.448 3.973,14.403 C4.050,14.319 4.127,14.236 4.204,14.152 C4.339,14.054 4.453,13.941 4.570,13.824 C4.602,13.786 4.634,13.747 4.666,13.709 C4.801,13.611 4.916,13.497 5.032,13.381 C5.064,13.343 5.096,13.304 5.128,13.265 C5.264,13.168 5.378,13.054 5.494,12.938 C5.527,12.899 5.559,12.861 5.591,12.822 C5.610,12.816 5.629,12.809 5.649,12.803 C5.783,12.661 5.918,12.520 6.053,12.379 C6.066,12.379 6.079,12.379 6.092,12.379 C6.104,12.359 6.117,12.340 6.130,12.321 C6.182,12.276 6.233,12.231 6.284,12.186 C6.361,12.102 6.438,12.019 6.515,11.935 C6.528,11.935 6.541,11.935 6.554,11.935 C6.631,11.852 6.708,11.768 6.785,11.685 C6.837,11.640 6.888,11.595 6.939,11.550 C6.952,11.530 6.965,11.511 6.978,11.492 C6.991,11.492 7.003,11.492 7.016,11.492 C7.048,11.453 7.081,11.415 7.113,11.376 C7.229,11.260 7.343,11.146 7.479,11.048 C7.536,10.984 7.594,10.920 7.652,10.856 C7.800,10.721 7.947,10.586 8.095,10.451 C8.185,10.354 8.275,10.258 8.365,10.162 C8.500,10.064 8.615,9.950 8.731,9.834 C8.763,9.795 8.795,9.757 8.827,9.718 C8.962,9.620 9.077,9.507 9.193,9.391 C9.225,9.352 9.257,9.313 9.289,9.275 C9.302,9.275 9.315,9.275 9.328,9.275 C9.399,9.198 9.469,9.121 9.540,9.044 C9.591,8.999 9.643,8.954 9.694,8.909 C9.713,8.883 9.733,8.857 9.752,8.832 C9.765,8.832 9.778,8.832 9.790,8.832 C9.867,8.748 9.944,8.664 10.022,8.581 C10.073,8.536 10.124,8.491 10.176,8.446 C10.188,8.427 10.201,8.407 10.214,8.388 C10.227,8.388 10.240,8.388 10.253,8.388 C10.304,8.330 10.355,8.273 10.407,8.215 C10.469,8.153 10.534,8.142 10.542,8.022 C10.503,7.980 10.523,7.930 10.503,7.868 C10.475,7.780 10.452,7.650 10.426,7.559 C10.426,7.514 10.426,7.469 10.426,7.424 C10.420,7.424 10.413,7.424 10.407,7.424 C10.407,7.379 10.407,7.334 10.407,7.289 C10.400,7.289 10.394,7.289 10.388,7.289 C10.388,7.225 10.388,7.161 10.388,7.097 C10.381,7.097 10.375,7.097 10.368,7.097 C10.368,7.007 10.368,6.917 10.368,6.827 C10.362,6.827 10.355,6.827 10.349,6.827 C10.322,6.730 10.348,6.319 10.368,6.248 C10.368,6.152 10.368,6.056 10.368,5.959 C10.375,5.959 10.381,5.959 10.388,5.959 C10.388,5.901 10.388,5.844 10.388,5.786 C10.430,5.640 10.440,5.443 10.484,5.304 C10.484,5.272 10.484,5.239 10.484,5.207 C10.490,5.207 10.497,5.207 10.503,5.207 C10.503,5.182 10.503,5.156 10.503,5.130 C10.510,5.130 10.516,5.130 10.522,5.130 C10.522,5.105 10.522,5.079 10.522,5.053 C10.529,5.053 10.535,5.053 10.542,5.053 C10.542,5.027 10.542,5.002 10.542,4.976 C10.548,4.976 10.554,4.976 10.561,4.976 C10.561,4.950 10.561,4.925 10.561,4.899 C10.567,4.899 10.574,4.899 10.580,4.899 C10.580,4.873 10.580,4.848 10.580,4.822 C10.587,4.822 10.593,4.822 10.599,4.822 C10.612,4.758 10.625,4.693 10.638,4.629 C10.644,4.629 10.651,4.629 10.657,4.629 C10.657,4.610 10.657,4.590 10.657,4.571 C10.664,4.571 10.670,4.571 10.676,4.571 C10.676,4.552 10.676,4.533 10.676,4.513 C10.683,4.513 10.689,4.513 10.696,4.513 C10.702,4.475 10.709,4.436 10.715,4.398 C10.721,4.398 10.728,4.398 10.734,4.398 C10.734,4.385 10.734,4.372 10.734,4.359 C10.741,4.359 10.747,4.359 10.754,4.359 C10.760,4.321 10.766,4.282 10.773,4.243 C10.779,4.243 10.786,4.243 10.792,4.243 C10.792,4.231 10.792,4.218 10.792,4.205 C10.799,4.205 10.805,4.205 10.811,4.205 C10.811,4.186 10.811,4.166 10.811,4.147 C10.818,4.147 10.824,4.147 10.831,4.147 C10.831,4.134 10.831,4.121 10.831,4.109 C10.837,4.109 10.843,4.109 10.850,4.109 C10.856,4.076 10.863,4.044 10.869,4.012 C10.876,4.012 10.882,4.012 10.888,4.012 C10.888,3.999 10.888,3.986 10.888,3.974 C10.895,3.974 10.901,3.974 10.908,3.974 C10.921,3.935 10.933,3.896 10.946,3.858 C10.953,3.858 10.959,3.858 10.965,3.858 C10.965,3.839 10.965,3.819 10.965,3.800 C10.972,3.800 10.978,3.800 10.985,3.800 C10.998,3.762 11.010,3.723 11.023,3.684 C11.030,3.684 11.036,3.684 11.043,3.684 C11.049,3.659 11.055,3.633 11.062,3.607 C11.075,3.601 11.087,3.594 11.100,3.588 C11.100,3.575 11.100,3.562 11.100,3.549 C11.107,3.549 11.113,3.549 11.120,3.549 C11.120,3.537 11.120,3.524 11.120,3.511 C11.126,3.511 11.132,3.511 11.139,3.511 C11.139,3.498 11.139,3.485 11.139,3.472 C11.145,3.472 11.152,3.472 11.158,3.472 C11.158,3.460 11.158,3.447 11.158,3.434 C11.165,3.434 11.171,3.434 11.177,3.434 C11.177,3.421 11.177,3.408 11.177,3.395 C11.190,3.389 11.203,3.382 11.216,3.376 C11.222,3.350 11.229,3.325 11.235,3.299 C11.248,3.292 11.261,3.286 11.274,3.280 C11.274,3.267 11.274,3.254 11.274,3.241 C11.280,3.241 11.287,3.241 11.293,3.241 C11.293,3.228 11.293,3.215 11.293,3.202 C11.306,3.196 11.319,3.190 11.331,3.183 C11.331,3.170 11.331,3.158 11.331,3.145 C11.344,3.138 11.357,3.132 11.370,3.125 C11.370,3.113 11.370,3.100 11.370,3.087 C11.383,3.080 11.396,3.074 11.409,3.068 C11.409,3.055 11.409,3.042 11.409,3.029 C11.421,3.023 11.434,3.016 11.447,3.010 C11.447,2.997 11.447,2.984 11.447,2.971 C11.460,2.965 11.473,2.958 11.486,2.952 C11.486,2.939 11.486,2.926 11.486,2.913 C11.498,2.907 11.511,2.900 11.524,2.894 C11.524,2.881 11.524,2.868 11.524,2.855 C11.543,2.843 11.563,2.830 11.582,2.817 C11.582,2.804 11.582,2.791 11.582,2.778 C11.595,2.772 11.608,2.766 11.620,2.759 C11.620,2.746 11.620,2.733 11.620,2.721 C11.646,2.701 11.672,2.682 11.697,2.663 C11.697,2.650 11.697,2.637 11.697,2.624 C11.710,2.618 11.723,2.611 11.736,2.605 C11.742,2.586 11.749,2.566 11.755,2.547 C11.787,2.521 11.820,2.496 11.852,2.470 C11.852,2.457 11.852,2.444 11.852,2.431 C11.890,2.399 11.929,2.367 11.967,2.335 C11.967,2.322 11.967,2.309 11.967,2.296 C12.057,2.213 12.147,2.129 12.237,2.046 C12.333,1.943 12.430,1.840 12.526,1.737 C12.539,1.737 12.552,1.737 12.564,1.737 C12.596,1.699 12.629,1.660 12.661,1.622 C12.674,1.622 12.686,1.622 12.699,1.622 C12.725,1.590 12.751,1.557 12.776,1.525 C12.789,1.525 12.802,1.525 12.815,1.525 C12.828,1.506 12.840,1.487 12.853,1.468 C12.866,1.468 12.879,1.468 12.892,1.468 C12.911,1.442 12.930,1.416 12.950,1.390 C12.969,1.384 12.988,1.378 13.007,1.371 C13.014,1.358 13.020,1.345 13.027,1.333 C13.040,1.333 13.052,1.333 13.065,1.333 C13.072,1.320 13.078,1.307 13.085,1.294 C13.097,1.294 13.110,1.294 13.123,1.294 C13.136,1.275 13.149,1.255 13.162,1.236 C13.174,1.236 13.187,1.236 13.200,1.236 C13.207,1.223 13.213,1.210 13.219,1.198 C13.232,1.198 13.245,1.198 13.258,1.198 C13.264,1.185 13.271,1.172 13.277,1.159 C13.290,1.159 13.303,1.159 13.316,1.159 C13.322,1.146 13.329,1.133 13.335,1.121 C13.348,1.121 13.361,1.121 13.373,1.121 C13.380,1.108 13.386,1.095 13.393,1.082 C13.418,1.076 13.444,1.069 13.470,1.063 C13.476,1.050 13.483,1.037 13.489,1.024 C13.508,1.018 13.528,1.011 13.547,1.005 C13.547,0.998 13.547,0.992 13.547,0.986 C13.585,0.973 13.624,0.960 13.662,0.947 C13.669,0.934 13.675,0.921 13.682,0.908 C13.720,0.896 13.759,0.883 13.797,0.870 C13.804,0.857 13.810,0.844 13.817,0.831 C13.829,0.831 13.842,0.831 13.855,0.831 C13.855,0.825 13.855,0.818 13.855,0.812 C13.868,0.812 13.881,0.812 13.894,0.812 C13.894,0.806 13.894,0.799 13.894,0.793 C13.906,0.793 13.919,0.793 13.932,0.793 C13.932,0.786 13.932,0.780 13.932,0.774 C13.945,0.774 13.958,0.774 13.971,0.774 C13.971,0.767 13.971,0.761 13.971,0.754 C13.983,0.754 13.996,0.754 14.009,0.754 C14.009,0.748 14.009,0.741 14.009,0.735 C14.022,0.735 14.035,0.735 14.048,0.735 C14.048,0.729 14.048,0.722 14.048,0.716 C14.061,0.716 14.073,0.716 14.086,0.716 C14.086,0.709 14.086,0.703 14.086,0.696 C14.125,0.684 14.163,0.671 14.202,0.658 C14.202,0.651 14.202,0.645 14.202,0.639 C14.234,0.632 14.266,0.626 14.298,0.619 C14.298,0.613 14.298,0.606 14.298,0.600 C14.324,0.594 14.350,0.587 14.375,0.581 C14.375,0.574 14.375,0.568 14.375,0.561 C14.394,0.561 14.414,0.561 14.433,0.561 C14.433,0.555 14.433,0.549 14.433,0.542 C14.459,0.536 14.484,0.529 14.510,0.523 C14.510,0.516 14.510,0.510 14.510,0.504 C14.549,0.497 14.587,0.491 14.626,0.484 C14.626,0.478 14.626,0.471 14.626,0.465 C14.638,0.465 14.651,0.465 14.664,0.465 C14.664,0.459 14.664,0.452 14.664,0.446 C14.703,0.439 14.741,0.433 14.780,0.427 C14.780,0.420 14.780,0.414 14.780,0.407 C14.793,0.407 14.805,0.407 14.818,0.407 C14.818,0.401 14.818,0.394 14.818,0.388 C14.857,0.382 14.895,0.375 14.934,0.369 C14.934,0.362 14.934,0.356 14.934,0.349 C14.953,0.349 14.972,0.349 14.992,0.349 C14.992,0.343 14.992,0.337 14.992,0.330 C15.011,0.330 15.030,0.330 15.049,0.330 C15.049,0.324 15.049,0.317 15.049,0.311 C15.094,0.304 15.139,0.298 15.184,0.292 C15.184,0.285 15.184,0.279 15.184,0.272 C15.229,0.266 15.274,0.259 15.319,0.253 C15.319,0.247 15.319,0.240 15.319,0.234 C15.371,0.227 15.422,0.221 15.473,0.214 C15.473,0.208 15.473,0.202 15.473,0.195 C15.499,0.195 15.525,0.195 15.550,0.195 C15.550,0.189 15.550,0.182 15.550,0.176 C15.576,0.176 15.602,0.176 15.627,0.176 C15.627,0.169 15.627,0.163 15.627,0.157 C15.659,0.157 15.692,0.157 15.724,0.157 C15.724,0.150 15.724,0.144 15.724,0.137 C15.756,0.137 15.788,0.137 15.820,0.137 C15.820,0.131 15.820,0.125 15.820,0.118 C15.859,0.118 15.897,0.118 15.936,0.118 C15.936,0.112 15.936,0.105 15.936,0.099 C15.974,0.099 16.013,0.099 16.051,0.099 C16.051,0.092 16.051,0.086 16.051,0.080 C16.090,0.080 16.128,0.080 16.167,0.080 C16.167,0.073 16.167,0.067 16.167,0.060 C16.218,0.060 16.270,0.060 16.321,0.060 C16.321,0.054 16.321,0.047 16.321,0.041 C16.379,0.041 16.436,0.041 16.494,0.041 C16.494,0.035 16.494,0.028 16.494,0.022 C16.579,-0.002 16.708,0.052 16.764,0.002 ZM18.421,1.371 C18.307,1.367 18.219,1.339 18.132,1.313 C18.087,1.313 18.042,1.313 17.997,1.313 C17.997,1.307 17.997,1.300 17.997,1.294 C17.952,1.294 17.907,1.294 17.862,1.294 C17.862,1.288 17.862,1.281 17.862,1.275 C17.804,1.275 17.746,1.275 17.689,1.275 C17.689,1.268 17.689,1.262 17.689,1.255 C17.592,1.255 17.496,1.255 17.400,1.255 C17.400,1.249 17.400,1.243 17.400,1.236 C17.310,1.211 16.963,1.237 16.899,1.255 C16.802,1.255 16.706,1.255 16.610,1.255 C16.610,1.262 16.610,1.268 16.610,1.275 C16.552,1.275 16.494,1.275 16.436,1.275 C16.436,1.281 16.436,1.288 16.436,1.294 C16.392,1.294 16.347,1.294 16.302,1.294 C16.302,1.300 16.302,1.307 16.302,1.313 C16.225,1.320 16.147,1.326 16.070,1.333 C16.070,1.339 16.070,1.345 16.070,1.352 C16.038,1.352 16.006,1.352 15.974,1.352 C15.974,1.358 15.974,1.365 15.974,1.371 C15.948,1.371 15.923,1.371 15.897,1.371 C15.897,1.378 15.897,1.384 15.897,1.390 C15.871,1.390 15.846,1.390 15.820,1.390 C15.820,1.397 15.820,1.403 15.820,1.410 C15.794,1.410 15.769,1.410 15.743,1.410 C15.743,1.416 15.743,1.423 15.743,1.429 C15.717,1.429 15.692,1.429 15.666,1.429 C15.666,1.435 15.666,1.442 15.666,1.448 C15.640,1.448 15.615,1.448 15.589,1.448 C15.589,1.455 15.589,1.461 15.589,1.468 C15.570,1.468 15.550,1.468 15.531,1.468 C15.531,1.474 15.531,1.480 15.531,1.487 C15.505,1.487 15.480,1.487 15.454,1.487 C15.454,1.493 15.454,1.500 15.454,1.506 C15.435,1.506 15.415,1.506 15.396,1.506 C15.396,1.512 15.396,1.519 15.396,1.525 C15.377,1.525 15.358,1.525 15.338,1.525 C15.338,1.532 15.338,1.538 15.338,1.545 C15.319,1.545 15.300,1.545 15.281,1.545 C15.281,1.551 15.281,1.557 15.281,1.564 C15.268,1.564 15.255,1.564 15.242,1.564 C15.242,1.570 15.242,1.577 15.242,1.583 C15.204,1.590 15.165,1.596 15.126,1.602 C15.126,1.609 15.126,1.615 15.126,1.622 C15.114,1.622 15.101,1.622 15.088,1.622 C15.088,1.628 15.088,1.635 15.088,1.641 C15.069,1.641 15.049,1.641 15.030,1.641 C15.030,1.647 15.030,1.654 15.030,1.660 C15.017,1.660 15.004,1.660 14.992,1.660 C14.992,1.667 14.992,1.673 14.992,1.680 C14.972,1.680 14.953,1.680 14.934,1.680 C14.934,1.686 14.934,1.692 14.934,1.699 C14.908,1.705 14.882,1.712 14.857,1.718 C14.857,1.725 14.857,1.731 14.857,1.737 C14.838,1.737 14.818,1.737 14.799,1.737 C14.799,1.744 14.799,1.750 14.799,1.757 C14.760,1.770 14.722,1.782 14.683,1.795 C14.683,1.802 14.683,1.808 14.683,1.815 C14.671,1.815 14.658,1.815 14.645,1.815 C14.645,1.821 14.645,1.827 14.645,1.834 C14.632,1.834 14.619,1.834 14.606,1.834 C14.606,1.840 14.606,1.847 14.606,1.853 C14.594,1.853 14.581,1.853 14.568,1.853 C14.568,1.859 14.568,1.866 14.568,1.872 C14.555,1.872 14.542,1.872 14.529,1.872 C14.529,1.879 14.529,1.885 14.529,1.892 C14.516,1.892 14.504,1.892 14.491,1.892 C14.491,1.898 14.491,1.904 14.491,1.911 C14.478,1.911 14.465,1.911 14.452,1.911 C14.452,1.917 14.452,1.924 14.452,1.930 C14.439,1.930 14.427,1.930 14.414,1.930 C14.407,1.943 14.401,1.956 14.394,1.969 C14.356,1.982 14.317,1.994 14.279,2.007 C14.272,2.020 14.266,2.033 14.260,2.046 C14.247,2.046 14.234,2.046 14.221,2.046 C14.221,2.052 14.221,2.059 14.221,2.065 C14.208,2.065 14.195,2.065 14.183,2.065 C14.176,2.078 14.170,2.091 14.163,2.104 C14.150,2.104 14.138,2.104 14.125,2.104 C14.118,2.117 14.112,2.129 14.106,2.142 C14.093,2.142 14.080,2.142 14.067,2.142 C14.061,2.155 14.054,2.168 14.048,2.181 C14.035,2.181 14.022,2.181 14.009,2.181 C14.003,2.194 13.996,2.206 13.990,2.219 C13.977,2.219 13.964,2.219 13.951,2.219 C13.945,2.232 13.939,2.245 13.932,2.258 C13.919,2.258 13.906,2.258 13.894,2.258 C13.881,2.277 13.868,2.296 13.855,2.316 C13.842,2.316 13.829,2.316 13.817,2.316 C13.810,2.329 13.804,2.341 13.797,2.354 C13.784,2.354 13.772,2.354 13.759,2.354 C13.752,2.367 13.746,2.380 13.739,2.393 C13.733,2.393 13.727,2.393 13.720,2.393 C13.714,2.406 13.707,2.419 13.701,2.431 C13.688,2.431 13.675,2.431 13.662,2.431 C13.643,2.457 13.624,2.483 13.605,2.508 C13.592,2.508 13.579,2.508 13.566,2.508 C13.540,2.541 13.515,2.573 13.489,2.605 C13.476,2.605 13.463,2.605 13.451,2.605 C13.399,2.663 13.348,2.721 13.296,2.778 C13.284,2.778 13.271,2.778 13.258,2.778 C13.219,2.823 13.181,2.868 13.142,2.913 C13.123,2.926 13.104,2.939 13.085,2.952 C13.085,2.965 13.085,2.978 13.085,2.990 C13.033,3.035 12.982,3.080 12.930,3.125 C12.924,3.145 12.918,3.164 12.911,3.183 C12.873,3.215 12.834,3.247 12.796,3.280 C12.796,3.292 12.796,3.305 12.796,3.318 C12.776,3.331 12.757,3.344 12.738,3.357 C12.738,3.370 12.738,3.382 12.738,3.395 C12.712,3.415 12.686,3.434 12.661,3.453 C12.661,3.466 12.661,3.479 12.661,3.492 C12.648,3.498 12.635,3.505 12.622,3.511 C12.622,3.524 12.622,3.537 12.622,3.549 C12.603,3.562 12.584,3.575 12.564,3.588 C12.564,3.601 12.564,3.614 12.564,3.627 C12.552,3.633 12.539,3.639 12.526,3.646 C12.519,3.665 12.513,3.684 12.507,3.704 C12.500,3.704 12.494,3.704 12.487,3.704 C12.487,3.717 12.487,3.729 12.487,3.742 C12.474,3.749 12.462,3.755 12.449,3.762 C12.442,3.787 12.436,3.813 12.430,3.839 C12.417,3.845 12.404,3.852 12.391,3.858 C12.385,3.877 12.378,3.896 12.372,3.916 C12.365,3.916 12.359,3.916 12.352,3.916 C12.340,3.954 12.327,3.993 12.314,4.031 C12.301,4.038 12.288,4.044 12.275,4.051 C12.275,4.064 12.275,4.076 12.275,4.089 C12.269,4.089 12.263,4.089 12.256,4.089 C12.256,4.102 12.256,4.115 12.256,4.128 C12.250,4.128 12.243,4.128 12.237,4.128 C12.237,4.141 12.237,4.154 12.237,4.166 C12.230,4.166 12.224,4.166 12.218,4.166 C12.218,4.179 12.218,4.192 12.218,4.205 C12.211,4.205 12.205,4.205 12.198,4.205 C12.198,4.218 12.198,4.231 12.198,4.243 C12.192,4.243 12.186,4.243 12.179,4.243 C12.179,4.256 12.179,4.269 12.179,4.282 C12.173,4.282 12.166,4.282 12.160,4.282 C12.160,4.295 12.160,4.308 12.160,4.321 C12.153,4.321 12.147,4.321 12.141,4.321 C12.128,4.359 12.115,4.398 12.102,4.436 C12.096,4.436 12.089,4.436 12.083,4.436 C12.076,4.468 12.070,4.501 12.064,4.533 C12.057,4.533 12.051,4.533 12.044,4.533 C12.044,4.545 12.044,4.558 12.044,4.571 C12.038,4.571 12.031,4.571 12.025,4.571 C12.025,4.590 12.025,4.610 12.025,4.629 C12.019,4.629 12.012,4.629 12.006,4.629 C12.006,4.642 12.006,4.655 12.006,4.668 C11.999,4.668 11.993,4.668 11.986,4.668 C11.980,4.706 11.974,4.745 11.967,4.783 C11.961,4.783 11.954,4.783 11.948,4.783 C11.948,4.796 11.948,4.809 11.948,4.822 C11.942,4.822 11.935,4.822 11.929,4.822 C11.922,4.860 11.916,4.899 11.909,4.937 C11.903,4.937 11.897,4.937 11.890,4.937 C11.890,4.957 11.890,4.976 11.890,4.995 C11.884,4.995 11.877,4.995 11.871,4.995 C11.871,5.015 11.871,5.034 11.871,5.053 C11.864,5.053 11.858,5.053 11.852,5.053 C11.845,5.098 11.839,5.143 11.832,5.188 C11.826,5.188 11.819,5.188 11.813,5.188 C11.813,5.214 11.813,5.239 11.813,5.265 C11.807,5.265 11.800,5.265 11.794,5.265 C11.787,5.317 11.781,5.368 11.775,5.419 C11.768,5.419 11.762,5.419 11.755,5.419 C11.755,5.452 11.755,5.484 11.755,5.516 C11.749,5.516 11.742,5.516 11.736,5.516 C11.736,5.548 11.736,5.580 11.736,5.612 C11.730,5.612 11.723,5.612 11.717,5.612 C11.717,5.651 11.717,5.689 11.717,5.728 C11.710,5.728 11.704,5.728 11.697,5.728 C11.697,5.773 11.697,5.818 11.697,5.863 C11.691,5.863 11.685,5.863 11.678,5.863 C11.678,5.914 11.678,5.966 11.678,6.017 C11.672,6.017 11.665,6.017 11.659,6.017 C11.659,6.101 11.659,6.184 11.659,6.268 C11.641,6.334 11.614,6.697 11.640,6.788 C11.646,6.788 11.653,6.788 11.659,6.788 C11.659,6.878 11.659,6.968 11.659,7.058 C11.665,7.058 11.672,7.058 11.678,7.058 C11.678,7.109 11.678,7.161 11.678,7.212 C11.685,7.212 11.691,7.212 11.697,7.212 C11.697,7.257 11.697,7.302 11.697,7.347 C11.704,7.347 11.710,7.347 11.717,7.347 C11.717,7.386 11.717,7.424 11.717,7.463 C11.723,7.463 11.730,7.463 11.736,7.463 C11.736,7.495 11.736,7.527 11.736,7.559 C11.742,7.559 11.749,7.559 11.755,7.559 C11.762,7.617 11.768,7.675 11.775,7.733 C11.781,7.733 11.787,7.733 11.794,7.733 C11.794,7.758 11.794,7.784 11.794,7.810 C11.800,7.810 11.807,7.810 11.813,7.810 C11.813,7.836 11.813,7.861 11.813,7.887 C11.819,7.887 11.826,7.887 11.832,7.887 C11.832,7.906 11.832,7.926 11.832,7.945 C11.839,7.945 11.845,7.945 11.852,7.945 C11.852,7.970 11.852,7.996 11.852,8.022 C11.899,8.155 11.977,8.297 11.986,8.465 C11.907,8.511 11.857,8.595 11.794,8.658 C11.775,8.671 11.755,8.684 11.736,8.697 C11.736,8.703 11.736,8.709 11.736,8.716 C11.723,8.716 11.710,8.716 11.697,8.716 C11.678,8.742 11.659,8.767 11.640,8.793 C11.582,8.844 11.524,8.896 11.466,8.947 C11.402,9.018 11.338,9.089 11.274,9.159 C11.138,9.257 11.024,9.371 10.908,9.487 C10.876,9.526 10.843,9.564 10.811,9.603 C10.676,9.701 10.562,9.814 10.445,9.930 C10.413,9.969 10.381,10.007 10.349,10.046 C10.330,10.052 10.310,10.059 10.291,10.065 C10.156,10.207 10.022,10.348 9.887,10.489 C9.874,10.489 9.861,10.489 9.848,10.489 C9.816,10.528 9.784,10.567 9.752,10.605 C9.636,10.721 9.521,10.835 9.386,10.933 C9.354,10.971 9.322,11.010 9.289,11.048 C9.173,11.165 9.059,11.278 8.923,11.376 C8.789,11.518 8.654,11.659 8.519,11.800 C8.384,11.898 8.269,12.012 8.153,12.128 C8.121,12.167 8.089,12.205 8.057,12.244 C8.044,12.244 8.031,12.244 8.018,12.244 C8.005,12.263 7.992,12.282 7.980,12.302 C7.928,12.347 7.877,12.391 7.825,12.436 C7.748,12.520 7.671,12.604 7.594,12.687 C7.459,12.785 7.345,12.898 7.228,13.015 C7.196,13.053 7.164,13.092 7.132,13.130 C6.997,13.228 6.882,13.342 6.766,13.458 C6.734,13.497 6.702,13.535 6.670,13.574 C6.534,13.672 6.420,13.785 6.304,13.902 C6.271,13.940 6.239,13.979 6.207,14.017 C6.188,14.024 6.169,14.030 6.149,14.037 C6.015,14.178 5.880,14.319 5.745,14.461 C5.732,14.461 5.719,14.461 5.706,14.461 C5.694,14.480 5.681,14.499 5.668,14.518 C5.616,14.563 5.565,14.608 5.514,14.653 C5.437,14.737 5.360,14.820 5.283,14.904 C5.270,14.904 5.257,14.904 5.244,14.904 C5.186,14.968 5.128,15.033 5.071,15.097 C4.923,15.232 4.775,15.367 4.628,15.502 C4.538,15.598 4.448,15.694 4.358,15.791 C4.223,15.889 4.108,16.002 3.992,16.118 C3.960,16.157 3.928,16.196 3.896,16.234 C3.760,16.332 3.646,16.446 3.530,16.562 C3.497,16.600 3.465,16.639 3.433,16.678 C3.420,16.678 3.408,16.678 3.395,16.678 C3.395,16.684 3.395,16.690 3.395,16.697 C3.369,16.716 3.343,16.735 3.318,16.755 C3.202,16.877 3.086,16.999 2.971,17.121 C2.958,17.121 2.945,17.121 2.932,17.121 C2.849,17.211 2.765,17.301 2.682,17.391 C2.637,17.429 2.592,17.468 2.547,17.506 C2.534,17.526 2.521,17.545 2.509,17.564 C2.496,17.564 2.483,17.564 2.470,17.564 C2.354,17.686 2.239,17.809 2.123,17.931 C2.098,17.950 2.072,17.969 2.046,17.988 C2.046,17.995 2.046,18.001 2.046,18.008 C2.033,18.008 2.021,18.008 2.008,18.008 C1.976,18.046 1.943,18.085 1.911,18.123 C1.841,18.188 1.770,18.252 1.699,18.316 C1.699,18.329 1.699,18.342 1.699,18.355 C1.674,18.374 1.648,18.393 1.622,18.413 C1.622,18.425 1.622,18.438 1.622,18.451 C1.610,18.458 1.597,18.464 1.584,18.470 C1.577,18.490 1.571,18.509 1.565,18.528 C1.558,18.528 1.552,18.528 1.545,18.528 C1.545,18.541 1.545,18.554 1.545,18.567 C1.532,18.573 1.520,18.580 1.507,18.586 C1.500,18.612 1.494,18.637 1.488,18.663 C1.481,18.663 1.475,18.663 1.468,18.663 C1.462,18.689 1.455,18.715 1.449,18.740 C1.443,18.740 1.436,18.740 1.430,18.740 C1.430,18.760 1.430,18.779 1.430,18.798 C1.423,18.798 1.417,18.798 1.410,18.798 C1.410,18.811 1.410,18.824 1.410,18.837 C1.404,18.837 1.398,18.837 1.391,18.837 C1.391,18.856 1.391,18.875 1.391,18.894 C1.274,19.191 1.260,19.584 1.372,19.897 C1.372,19.923 1.372,19.948 1.372,19.974 C1.378,19.974 1.385,19.974 1.391,19.974 C1.391,19.987 1.391,20.000 1.391,20.013 C1.398,20.013 1.404,20.013 1.410,20.013 C1.410,20.032 1.410,20.051 1.410,20.070 C1.417,20.070 1.423,20.070 1.430,20.070 C1.443,20.109 1.455,20.148 1.468,20.186 C1.475,20.186 1.481,20.186 1.488,20.186 C1.488,20.199 1.488,20.212 1.488,20.225 C1.494,20.225 1.500,20.225 1.507,20.225 C1.513,20.250 1.520,20.276 1.526,20.302 C1.539,20.308 1.552,20.315 1.565,20.321 C1.571,20.347 1.577,20.372 1.584,20.398 C1.603,20.411 1.622,20.424 1.642,20.437 C1.642,20.450 1.642,20.462 1.642,20.475 C1.680,20.507 1.719,20.539 1.757,20.572 C1.757,20.584 1.757,20.597 1.757,20.610 C1.764,20.610 1.770,20.610 1.777,20.610 C1.789,20.629 1.802,20.649 1.815,20.668 C1.828,20.668 1.841,20.668 1.854,20.668 C1.860,20.681 1.866,20.694 1.873,20.707 C1.905,20.732 1.937,20.758 1.969,20.784 C2.078,20.899 2.187,21.015 2.297,21.131 C2.309,21.131 2.322,21.131 2.335,21.131 C2.406,21.208 2.476,21.285 2.547,21.362 C2.560,21.362 2.573,21.362 2.586,21.362 C2.598,21.381 2.611,21.401 2.624,21.420 C3.045,21.713 3.730,21.891 4.339,21.651 C4.377,21.645 4.416,21.638 4.454,21.632 C4.454,21.625 4.454,21.619 4.454,21.613 C4.493,21.600 4.531,21.587 4.570,21.574 C4.570,21.568 4.570,21.561 4.570,21.555 C4.583,21.555 4.595,21.555 4.608,21.555 C4.608,21.548 4.608,21.542 4.608,21.536 C4.634,21.529 4.660,21.523 4.685,21.516 C4.692,21.503 4.698,21.491 4.705,21.478 C4.717,21.478 4.730,21.478 4.743,21.478 C4.750,21.465 4.756,21.452 4.762,21.439 C4.775,21.439 4.788,21.439 4.801,21.439 C4.807,21.426 4.814,21.413 4.820,21.401 C4.833,21.401 4.846,21.401 4.859,21.401 C4.878,21.375 4.897,21.349 4.917,21.323 C4.929,21.323 4.942,21.323 4.955,21.323 C5.071,21.201 5.186,21.079 5.302,20.957 C5.437,20.859 5.552,20.746 5.668,20.629 C5.700,20.591 5.732,20.552 5.764,20.514 C5.777,20.514 5.790,20.514 5.803,20.514 C5.886,20.424 5.970,20.334 6.053,20.244 C6.098,20.205 6.143,20.167 6.188,20.128 C6.201,20.109 6.214,20.090 6.227,20.070 C6.239,20.070 6.252,20.070 6.265,20.070 C6.374,19.955 6.483,19.839 6.593,19.723 C6.618,19.704 6.644,19.685 6.670,19.666 C6.676,19.653 6.682,19.640 6.689,19.627 C6.702,19.627 6.715,19.627 6.727,19.627 C6.759,19.588 6.792,19.550 6.824,19.511 C6.940,19.395 7.054,19.281 7.190,19.184 C7.222,19.145 7.254,19.107 7.286,19.068 C7.402,18.952 7.517,18.838 7.652,18.740 C7.787,18.599 7.922,18.457 8.057,18.316 C8.076,18.310 8.095,18.303 8.114,18.297 C8.146,18.258 8.179,18.220 8.211,18.181 C8.327,18.065 8.441,17.951 8.577,17.853 C8.609,17.815 8.641,17.776 8.673,17.738 C8.789,17.621 8.904,17.508 9.039,17.410 C9.174,17.269 9.309,17.127 9.444,16.986 C9.579,16.888 9.693,16.775 9.810,16.658 C9.842,16.620 9.874,16.581 9.906,16.543 C10.041,16.445 10.156,16.331 10.272,16.215 C10.304,16.176 10.336,16.138 10.368,16.099 C10.381,16.099 10.394,16.099 10.407,16.099 C10.407,16.093 10.407,16.086 10.407,16.080 C10.432,16.061 10.458,16.041 10.484,16.022 C10.599,15.900 10.715,15.778 10.831,15.656 C10.966,15.558 11.080,15.444 11.197,15.328 C11.229,15.290 11.261,15.251 11.293,15.212 C11.306,15.212 11.319,15.212 11.331,15.212 C11.344,15.193 11.357,15.174 11.370,15.155 C11.421,15.110 11.473,15.065 11.524,15.020 C11.601,14.936 11.678,14.853 11.755,14.769 C11.891,14.671 12.005,14.558 12.121,14.441 C12.153,14.403 12.186,14.364 12.218,14.326 C12.353,14.228 12.467,14.114 12.584,13.998 C12.616,13.959 12.648,13.921 12.680,13.882 C12.693,13.882 12.706,13.882 12.718,13.882 C12.738,13.857 12.757,13.831 12.776,13.805 C12.828,13.760 12.879,13.715 12.930,13.670 C13.001,13.593 13.072,13.516 13.142,13.439 C13.155,13.439 13.168,13.439 13.181,13.439 C13.200,13.413 13.219,13.387 13.239,13.362 C13.290,13.317 13.341,13.272 13.393,13.227 C13.463,13.150 13.534,13.073 13.605,12.996 C13.617,12.996 13.630,12.996 13.643,12.996 C13.675,12.957 13.707,12.918 13.739,12.880 C13.856,12.764 13.970,12.650 14.106,12.552 C14.247,12.404 14.388,12.257 14.529,12.109 C14.549,12.102 14.568,12.096 14.587,12.089 C14.722,11.948 14.857,11.807 14.992,11.665 C15.004,11.665 15.017,11.665 15.030,11.665 C15.075,11.614 15.120,11.563 15.165,11.511 C15.191,11.511 15.216,11.511 15.242,11.511 C15.242,11.518 15.242,11.524 15.242,11.530 C15.287,11.537 15.332,11.543 15.377,11.550 C15.377,11.556 15.377,11.563 15.377,11.569 C15.403,11.569 15.428,11.569 15.454,11.569 C15.454,11.575 15.454,11.582 15.454,11.588 C15.473,11.588 15.493,11.588 15.512,11.588 C15.512,11.595 15.512,11.601 15.512,11.608 C15.557,11.614 15.602,11.620 15.647,11.627 C15.647,11.633 15.647,11.640 15.647,11.646 C15.672,11.646 15.698,11.646 15.724,11.646 C15.724,11.653 15.724,11.659 15.724,11.665 C15.775,11.672 15.826,11.678 15.878,11.685 C15.878,11.691 15.878,11.697 15.878,11.704 C15.910,11.704 15.942,11.704 15.974,11.704 C16.797,11.955 18.185,11.845 18.883,11.569 C18.999,11.537 19.114,11.505 19.230,11.473 C19.230,11.466 19.230,11.460 19.230,11.453 C19.243,11.453 19.255,11.453 19.268,11.453 C19.268,11.447 19.268,11.440 19.268,11.434 C19.288,11.434 19.307,11.434 19.326,11.434 C19.326,11.428 19.326,11.421 19.326,11.415 C19.352,11.408 19.377,11.402 19.403,11.395 C19.403,11.389 19.403,11.383 19.403,11.376 C19.422,11.376 19.442,11.376 19.461,11.376 C19.461,11.370 19.461,11.363 19.461,11.357 C19.474,11.357 19.487,11.357 19.499,11.357 C19.499,11.350 19.499,11.344 19.499,11.338 C19.538,11.325 19.576,11.312 19.615,11.299 C19.615,11.293 19.615,11.286 19.615,11.280 C19.634,11.280 19.654,11.280 19.673,11.280 C19.673,11.273 19.673,11.267 19.673,11.261 C19.698,11.254 19.724,11.248 19.750,11.241 C19.750,11.235 19.750,11.228 19.750,11.222 C19.776,11.216 19.801,11.209 19.827,11.203 C19.833,11.190 19.840,11.177 19.846,11.164 C19.859,11.164 19.872,11.164 19.885,11.164 C19.885,11.158 19.885,11.151 19.885,11.145 C19.898,11.145 19.910,11.145 19.923,11.145 C19.923,11.138 19.923,11.132 19.923,11.126 C19.936,11.126 19.949,11.126 19.962,11.126 C19.962,11.119 19.962,11.113 19.962,11.106 C19.975,11.106 19.987,11.106 20.000,11.106 C20.007,11.093 20.013,11.081 20.020,11.068 C20.045,11.061 20.071,11.055 20.097,11.048 C20.103,11.036 20.109,11.023 20.116,11.010 C20.142,11.004 20.167,10.997 20.193,10.991 C20.199,10.978 20.206,10.965 20.212,10.952 C20.225,10.952 20.238,10.952 20.251,10.952 C20.257,10.939 20.264,10.926 20.270,10.914 C20.283,10.914 20.296,10.914 20.309,10.914 C20.315,10.901 20.321,10.888 20.328,10.875 C20.341,10.875 20.353,10.875 20.366,10.875 C20.373,10.862 20.379,10.849 20.386,10.836 C20.398,10.836 20.411,10.836 20.424,10.836 C20.431,10.824 20.437,10.811 20.443,10.798 C20.456,10.798 20.469,10.798 20.482,10.798 C20.495,10.779 20.508,10.759 20.520,10.740 C20.533,10.740 20.546,10.740 20.559,10.740 C20.572,10.721 20.585,10.701 20.597,10.682 C20.610,10.682 20.623,10.682 20.636,10.682 C20.649,10.663 20.662,10.644 20.675,10.624 C20.687,10.624 20.700,10.624 20.713,10.624 C20.732,10.599 20.752,10.573 20.771,10.547 C20.784,10.547 20.797,10.547 20.809,10.547 C20.848,10.502 20.886,10.457 20.925,10.412 C20.938,10.412 20.951,10.412 20.964,10.412 C20.996,10.374 21.028,10.335 21.060,10.297 C21.163,10.200 21.265,10.104 21.368,10.007 C21.368,9.995 21.368,9.982 21.368,9.969 C21.413,9.930 21.458,9.892 21.503,9.853 C21.503,9.840 21.503,9.828 21.503,9.815 C21.529,9.795 21.554,9.776 21.580,9.757 C21.580,9.744 21.580,9.731 21.580,9.718 C21.599,9.705 21.618,9.693 21.638,9.680 C21.638,9.667 21.638,9.654 21.638,9.641 C21.657,9.628 21.676,9.616 21.696,9.603 C21.696,9.590 21.696,9.577 21.696,9.564 C21.715,9.551 21.734,9.538 21.753,9.526 C21.753,9.513 21.753,9.500 21.753,9.487 C21.766,9.481 21.779,9.474 21.792,9.468 C21.792,9.455 21.792,9.442 21.792,9.429 C21.805,9.423 21.818,9.416 21.830,9.410 C21.830,9.397 21.830,9.384 21.830,9.371 C21.843,9.365 21.856,9.358 21.869,9.352 C21.869,9.339 21.869,9.326 21.869,9.313 C21.882,9.307 21.895,9.301 21.907,9.294 C21.907,9.281 21.907,9.269 21.907,9.256 C21.920,9.249 21.933,9.243 21.946,9.236 C21.946,9.224 21.946,9.211 21.946,9.198 C21.952,9.198 21.959,9.198 21.965,9.198 C21.965,9.185 21.965,9.172 21.965,9.159 C21.978,9.153 21.991,9.146 22.004,9.140 C22.004,9.127 22.004,9.114 22.004,9.101 C22.010,9.101 22.017,9.101 22.023,9.101 C22.023,9.089 22.023,9.076 22.023,9.063 C22.029,9.063 22.036,9.063 22.042,9.063 C22.042,9.050 22.042,9.037 22.042,9.024 C22.049,9.024 22.055,9.024 22.062,9.024 C22.062,9.011 22.062,8.999 22.062,8.986 C22.074,8.979 22.087,8.973 22.100,8.966 C22.113,8.928 22.126,8.889 22.139,8.851 C22.145,8.851 22.151,8.851 22.158,8.851 C22.158,8.838 22.158,8.825 22.158,8.812 C22.164,8.812 22.171,8.812 22.177,8.812 C22.190,8.774 22.203,8.735 22.216,8.697 C22.222,8.697 22.229,8.697 22.235,8.697 C22.235,8.677 22.235,8.658 22.235,8.639 C22.241,8.639 22.248,8.639 22.254,8.639 C22.254,8.626 22.254,8.613 22.254,8.600 C22.261,8.600 22.267,8.600 22.273,8.600 C22.280,8.575 22.286,8.549 22.293,8.523 C22.299,8.523 22.306,8.523 22.312,8.523 C22.312,8.504 22.312,8.485 22.312,8.465 C22.318,8.465 22.325,8.465 22.331,8.465 C22.331,8.452 22.331,8.440 22.331,8.427 C22.338,8.427 22.344,8.427 22.351,8.427 C22.357,8.395 22.363,8.362 22.370,8.330 C22.376,8.330 22.383,8.330 22.389,8.330 C22.395,8.292 22.402,8.253 22.408,8.215 C22.415,8.215 22.421,8.215 22.428,8.215 C22.428,8.195 22.428,8.176 22.428,8.157 C22.434,8.157 22.440,8.157 22.447,8.157 C22.447,8.138 22.447,8.118 22.447,8.099 C22.453,8.099 22.460,8.099 22.466,8.099 C22.466,8.080 22.466,8.060 22.466,8.041 C22.473,8.041 22.479,8.041 22.485,8.041 C22.485,8.022 22.485,8.003 22.485,7.983 C22.492,7.983 22.498,7.983 22.505,7.983 C22.511,7.932 22.517,7.881 22.524,7.829 C22.530,7.829 22.537,7.829 22.543,7.829 C22.543,7.803 22.543,7.778 22.543,7.752 C22.550,7.752 22.556,7.752 22.562,7.752 C22.562,7.726 22.562,7.701 22.562,7.675 C22.569,7.675 22.575,7.675 22.582,7.675 C22.588,7.617 22.595,7.559 22.601,7.501 C22.607,7.501 22.614,7.501 22.620,7.501 C22.620,7.463 22.620,7.424 22.620,7.386 C22.627,7.386 22.633,7.386 22.639,7.386 C22.652,7.219 22.665,7.052 22.678,6.885 C22.684,6.885 22.691,6.885 22.697,6.885 C22.697,6.672 22.697,6.460 22.697,6.248 C22.691,6.248 22.684,6.248 22.678,6.248 C22.678,6.171 22.678,6.094 22.678,6.017 C22.672,6.017 22.665,6.017 22.659,6.017 C22.659,5.966 22.659,5.914 22.659,5.863 C22.620,5.683 22.582,5.503 22.543,5.323 C22.537,5.323 22.530,5.323 22.524,5.323 C22.524,5.329 22.524,5.336 22.524,5.342 C22.431,5.396 22.367,5.499 22.293,5.574 C22.164,5.689 22.036,5.805 21.907,5.921 C21.830,6.004 21.753,6.088 21.676,6.171 C21.541,6.269 21.427,6.383 21.310,6.499 C21.278,6.538 21.246,6.576 21.214,6.615 C21.079,6.713 20.964,6.826 20.848,6.942 C20.816,6.981 20.784,7.019 20.752,7.058 C20.616,7.156 20.502,7.269 20.386,7.386 C20.353,7.424 20.321,7.463 20.289,7.501 C20.276,7.501 20.264,7.501 20.251,7.501 C20.244,7.514 20.238,7.527 20.231,7.540 C20.206,7.559 20.180,7.579 20.154,7.598 C20.045,7.713 19.936,7.829 19.827,7.945 C19.814,7.945 19.801,7.945 19.788,7.945 C19.769,7.970 19.750,7.996 19.731,8.022 C19.666,8.080 19.602,8.138 19.538,8.195 C19.453,8.280 19.374,8.426 19.230,8.446 C19.088,8.298 18.947,8.150 18.806,8.003 C18.793,8.003 18.780,8.003 18.767,8.003 C18.703,7.932 18.639,7.861 18.575,7.791 C18.517,7.739 18.459,7.688 18.401,7.636 C18.382,7.611 18.363,7.585 18.344,7.559 C18.331,7.559 18.318,7.559 18.305,7.559 C18.305,7.553 18.305,7.546 18.305,7.540 C18.286,7.527 18.267,7.514 18.247,7.501 C18.125,7.373 18.003,7.244 17.881,7.116 C17.868,7.116 17.856,7.116 17.843,7.116 C17.830,7.097 17.817,7.077 17.804,7.058 C17.759,7.019 17.714,6.981 17.669,6.942 C17.586,6.852 17.502,6.762 17.419,6.672 C17.406,6.672 17.393,6.672 17.380,6.672 C17.239,6.525 17.098,6.377 16.957,6.229 C16.944,6.229 16.931,6.229 16.918,6.229 C16.912,6.216 16.905,6.203 16.899,6.191 C16.892,6.191 16.886,6.191 16.880,6.191 C16.751,6.056 16.623,5.921 16.494,5.786 C16.481,5.786 16.469,5.786 16.456,5.786 C16.443,5.766 16.430,5.747 16.417,5.728 C16.372,5.689 16.327,5.651 16.282,5.612 C16.199,5.522 16.115,5.432 16.032,5.342 C15.897,5.244 15.782,5.131 15.666,5.015 C15.634,4.976 15.602,4.937 15.570,4.899 C15.557,4.899 15.544,4.899 15.531,4.899 C15.409,4.770 15.287,4.642 15.165,4.513 C15.264,4.460 15.321,4.377 15.396,4.301 C15.460,4.243 15.525,4.186 15.589,4.128 C15.615,4.096 15.640,4.064 15.666,4.031 C15.801,3.934 15.916,3.820 16.032,3.704 C16.064,3.665 16.096,3.627 16.128,3.588 C16.263,3.490 16.378,3.377 16.494,3.260 C16.526,3.222 16.558,3.183 16.591,3.145 C16.610,3.138 16.629,3.132 16.648,3.125 C16.783,2.984 16.918,2.843 17.053,2.701 C17.066,2.701 17.079,2.701 17.091,2.701 C17.233,2.553 17.374,2.406 17.515,2.258 C17.528,2.258 17.541,2.258 17.554,2.258 C17.618,2.187 17.682,2.117 17.746,2.046 C17.798,2.001 17.849,1.956 17.901,1.911 C17.920,1.885 17.939,1.859 17.958,1.834 C17.971,1.834 17.984,1.834 17.997,1.834 C18.061,1.763 18.125,1.692 18.189,1.622 C18.257,1.554 18.394,1.470 18.421,1.371 Z"/>
</svg>