<svg 
 xmlns="http://www.w3.org/2000/svg"
 xmlns:xlink="http://www.w3.org/1999/xlink"
 width="23px" height="28px">
<path fill-rule="evenodd"  fill="rgb(255, 255, 255)"
 d="M1.123,-0.000 C6.170,-0.000 11.219,-0.000 16.267,-0.000 C17.404,-0.000 18.541,-0.000 19.677,-0.000 C20.073,-0.000 20.468,-0.000 20.863,-0.000 C20.863,0.007 20.863,0.014 20.863,0.021 C20.878,0.021 20.892,0.021 20.906,0.021 C20.920,0.043 20.934,0.064 20.948,0.086 C20.962,0.086 20.976,0.086 20.991,0.086 C21.111,0.193 21.231,0.300 21.351,0.407 C21.351,0.421 21.351,0.435 21.351,0.450 C21.386,0.478 21.421,0.507 21.457,0.535 C21.457,0.549 21.457,0.564 21.457,0.578 C21.478,0.592 21.499,0.607 21.520,0.621 C21.520,0.635 21.520,0.649 21.520,0.664 C21.534,0.671 21.548,0.678 21.562,0.685 C21.562,0.699 21.562,0.714 21.562,0.728 C21.577,0.735 21.591,0.742 21.605,0.749 C21.612,0.771 21.619,0.792 21.626,0.813 C21.633,0.813 21.640,0.813 21.647,0.813 C21.661,0.856 21.675,0.899 21.690,0.942 C21.697,0.942 21.704,0.942 21.711,0.942 C21.711,0.956 21.711,0.970 21.711,0.985 C21.718,0.985 21.725,0.985 21.732,0.985 C21.746,1.028 21.760,1.070 21.774,1.113 C21.781,1.113 21.788,1.113 21.795,1.113 C21.795,1.135 21.795,1.156 21.795,1.177 C21.803,1.177 21.810,1.177 21.817,1.177 C21.817,1.192 21.817,1.206 21.817,1.220 C21.824,1.220 21.831,1.220 21.838,1.220 C21.859,1.313 21.880,1.406 21.901,1.498 C21.908,1.498 21.915,1.498 21.923,1.498 C21.923,1.534 21.923,1.570 21.923,1.606 C22.044,2.004 21.986,2.686 21.986,3.190 C21.986,4.331 21.986,5.473 21.986,6.615 C21.986,11.474 21.986,16.334 21.986,21.193 C21.986,22.306 21.986,23.419 21.986,24.532 C21.986,25.025 22.041,25.685 21.923,26.073 C21.923,26.109 21.923,26.145 21.923,26.180 C21.915,26.180 21.908,26.180 21.901,26.180 C21.880,26.273 21.859,26.366 21.838,26.459 C21.831,26.459 21.824,26.459 21.817,26.459 C21.817,26.473 21.817,26.487 21.817,26.502 C21.810,26.502 21.803,26.502 21.795,26.502 C21.795,26.523 21.795,26.544 21.795,26.566 C21.788,26.566 21.781,26.566 21.774,26.566 C21.760,26.609 21.746,26.651 21.732,26.694 C21.725,26.694 21.718,26.694 21.711,26.694 C21.711,26.708 21.711,26.723 21.711,26.737 C21.704,26.737 21.697,26.737 21.690,26.737 C21.675,26.780 21.661,26.823 21.647,26.865 C21.640,26.865 21.633,26.865 21.626,26.865 C21.619,26.887 21.612,26.908 21.605,26.930 C21.591,26.937 21.577,26.944 21.562,26.951 C21.562,26.965 21.562,26.980 21.562,26.994 C21.548,27.001 21.534,27.008 21.520,27.015 C21.520,27.030 21.520,27.044 21.520,27.058 C21.499,27.072 21.478,27.087 21.457,27.101 C21.457,27.115 21.457,27.129 21.457,27.144 C21.421,27.172 21.386,27.201 21.351,27.229 C21.351,27.244 21.351,27.258 21.351,27.272 C21.301,27.315 21.252,27.358 21.202,27.401 C21.195,27.415 21.188,27.429 21.181,27.443 C21.167,27.443 21.153,27.443 21.139,27.443 C21.111,27.479 21.082,27.515 21.054,27.550 C21.040,27.550 21.026,27.550 21.012,27.550 C21.012,27.558 21.012,27.565 21.012,27.572 C20.991,27.579 20.969,27.586 20.948,27.593 C20.934,27.615 20.920,27.636 20.906,27.657 C20.878,27.665 20.849,27.672 20.821,27.679 C20.814,27.693 20.807,27.707 20.800,27.722 C20.772,27.729 20.743,27.736 20.715,27.743 C20.715,27.750 20.715,27.757 20.715,27.765 C20.673,27.779 20.630,27.793 20.588,27.807 C20.588,27.814 20.588,27.822 20.588,27.829 C20.567,27.829 20.546,27.829 20.525,27.829 C20.525,27.836 20.525,27.843 20.525,27.850 C20.510,27.850 20.496,27.850 20.482,27.850 C20.482,27.857 20.482,27.864 20.482,27.872 C20.419,27.886 20.355,27.900 20.292,27.914 C20.292,27.922 20.292,27.929 20.292,27.936 C20.228,27.943 20.165,27.950 20.101,27.957 C20.101,27.964 20.101,27.971 20.101,27.979 C20.052,27.979 20.002,27.979 19.953,27.979 C19.953,27.986 19.953,27.993 19.953,28.000 C19.600,28.000 19.247,28.000 18.894,28.000 C18.046,28.000 17.199,28.000 16.352,28.000 C12.624,28.000 8.896,28.000 5.168,28.000 C3.446,26.131 1.723,24.261 0.000,22.391 C0.000,15.556 0.000,8.719 0.000,1.884 C0.045,1.830 0.018,1.684 0.042,1.606 C0.049,1.606 0.056,1.606 0.064,1.606 C0.064,1.570 0.064,1.534 0.064,1.498 C0.071,1.498 0.078,1.498 0.085,1.498 C0.085,1.477 0.085,1.456 0.085,1.434 C0.092,1.434 0.099,1.434 0.106,1.434 C0.120,1.363 0.134,1.292 0.148,1.220 C0.155,1.220 0.162,1.220 0.169,1.220 C0.169,1.206 0.169,1.192 0.169,1.177 C0.177,1.177 0.184,1.177 0.191,1.177 C0.191,1.156 0.191,1.135 0.191,1.113 C0.198,1.113 0.205,1.113 0.212,1.113 C0.226,1.070 0.240,1.028 0.254,0.985 C0.261,0.985 0.268,0.985 0.275,0.985 C0.275,0.970 0.275,0.956 0.275,0.942 C0.282,0.942 0.289,0.942 0.297,0.942 C0.311,0.899 0.325,0.856 0.339,0.813 C0.346,0.813 0.353,0.813 0.360,0.813 C0.367,0.792 0.374,0.771 0.381,0.749 C0.395,0.742 0.410,0.735 0.424,0.728 C0.424,0.714 0.424,0.699 0.424,0.685 C0.438,0.678 0.452,0.671 0.466,0.664 C0.466,0.649 0.466,0.635 0.466,0.621 C0.487,0.607 0.508,0.592 0.530,0.578 C0.530,0.564 0.530,0.549 0.530,0.535 C0.565,0.507 0.600,0.478 0.635,0.450 C0.635,0.435 0.635,0.421 0.635,0.407 C0.685,0.364 0.734,0.321 0.784,0.278 C0.791,0.264 0.798,0.250 0.805,0.235 C0.819,0.235 0.833,0.235 0.847,0.235 C0.875,0.200 0.904,0.164 0.932,0.128 C0.946,0.128 0.960,0.128 0.974,0.128 C0.981,0.114 0.988,0.100 0.996,0.086 C1.045,0.052 1.086,0.044 1.123,-0.000 ZM1.038,21.578 C1.843,21.578 2.648,21.578 3.453,21.578 C3.806,21.578 4.159,21.578 4.512,21.578 C4.512,21.585 4.512,21.592 4.512,21.599 C4.554,21.599 4.596,21.599 4.639,21.599 C4.639,21.607 4.639,21.614 4.639,21.621 C4.667,21.621 4.695,21.621 4.723,21.621 C4.723,21.628 4.723,21.635 4.723,21.642 C4.787,21.656 4.851,21.671 4.914,21.685 C4.914,21.692 4.914,21.699 4.914,21.706 C4.956,21.721 4.999,21.735 5.041,21.749 C5.041,21.756 5.041,21.764 5.041,21.771 C5.055,21.771 5.069,21.771 5.083,21.771 C5.091,21.785 5.098,21.799 5.105,21.813 C5.119,21.813 5.133,21.813 5.147,21.813 C5.147,21.821 5.147,21.828 5.147,21.835 C5.168,21.842 5.189,21.849 5.211,21.856 C5.218,21.871 5.225,21.885 5.232,21.899 C5.246,21.899 5.260,21.899 5.274,21.899 C5.309,21.942 5.345,21.985 5.380,22.028 C5.429,22.070 5.479,22.113 5.528,22.156 C5.528,22.170 5.528,22.185 5.528,22.199 C5.549,22.213 5.571,22.227 5.592,22.242 C5.592,22.256 5.592,22.270 5.592,22.284 C5.606,22.292 5.620,22.299 5.634,22.306 C5.641,22.334 5.648,22.363 5.655,22.391 C5.670,22.399 5.684,22.406 5.698,22.413 C5.698,22.427 5.698,22.441 5.698,22.456 C5.705,22.456 5.712,22.456 5.719,22.456 C5.726,22.484 5.733,22.513 5.740,22.541 C5.747,22.541 5.754,22.541 5.761,22.541 C5.768,22.584 5.775,22.627 5.782,22.670 C5.790,22.670 5.797,22.670 5.804,22.670 C5.804,22.684 5.804,22.698 5.804,22.713 C5.811,22.713 5.818,22.713 5.825,22.713 C5.832,22.770 5.839,22.827 5.846,22.884 C5.853,22.884 5.860,22.884 5.867,22.884 C5.867,22.919 5.867,22.955 5.867,22.991 C5.874,22.991 5.881,22.991 5.888,22.991 C5.888,23.062 5.888,23.134 5.888,23.205 C5.895,23.205 5.902,23.205 5.910,23.205 C5.910,23.576 5.910,23.947 5.910,24.318 C5.910,25.167 5.910,26.016 5.910,26.865 C9.552,26.865 13.196,26.865 16.839,26.865 C17.616,26.865 18.392,26.865 19.169,26.865 C19.482,26.865 19.924,26.898 20.143,26.801 C20.143,26.794 20.143,26.787 20.143,26.780 C20.186,26.766 20.228,26.751 20.270,26.737 C20.270,26.730 20.270,26.723 20.270,26.716 C20.299,26.708 20.327,26.701 20.355,26.694 C20.362,26.680 20.369,26.666 20.376,26.651 C20.390,26.651 20.405,26.651 20.419,26.651 C20.447,26.616 20.475,26.580 20.503,26.544 C20.518,26.544 20.532,26.544 20.546,26.544 C20.553,26.530 20.560,26.516 20.567,26.502 C20.574,26.502 20.581,26.502 20.588,26.502 C20.588,26.487 20.588,26.473 20.588,26.459 C20.623,26.430 20.659,26.402 20.694,26.373 C20.694,26.359 20.694,26.345 20.694,26.330 C20.708,26.323 20.722,26.316 20.736,26.309 C20.743,26.280 20.751,26.252 20.758,26.223 C20.772,26.216 20.786,26.209 20.800,26.202 C20.842,26.081 20.885,25.959 20.927,25.838 C20.934,25.674 20.941,25.510 20.948,25.346 C20.948,25.024 20.948,24.703 20.948,24.382 C20.948,23.262 20.948,22.142 20.948,21.021 C20.948,16.291 20.948,11.559 20.948,6.829 C20.948,5.587 20.948,4.345 20.948,3.104 C20.948,2.720 20.999,2.170 20.906,1.862 C20.906,1.827 20.906,1.791 20.906,1.755 C20.899,1.755 20.892,1.755 20.885,1.755 C20.878,1.713 20.871,1.670 20.863,1.627 C20.856,1.627 20.849,1.627 20.842,1.627 C20.828,1.584 20.814,1.541 20.800,1.498 C20.793,1.498 20.786,1.498 20.779,1.498 C20.779,1.484 20.779,1.470 20.779,1.456 C20.772,1.456 20.765,1.456 20.758,1.456 C20.751,1.427 20.743,1.399 20.736,1.370 C20.722,1.363 20.708,1.356 20.694,1.349 C20.694,1.334 20.694,1.320 20.694,1.306 C20.659,1.277 20.623,1.249 20.588,1.220 C20.588,1.206 20.588,1.192 20.588,1.177 C20.574,1.170 20.560,1.163 20.546,1.156 C20.546,1.149 20.546,1.142 20.546,1.135 C20.532,1.135 20.518,1.135 20.503,1.135 C20.475,1.099 20.447,1.063 20.419,1.028 C20.405,1.028 20.390,1.028 20.376,1.028 C20.369,1.013 20.362,0.999 20.355,0.985 C20.327,0.978 20.299,0.970 20.270,0.963 C20.270,0.956 20.270,0.949 20.270,0.942 C20.228,0.928 20.186,0.913 20.143,0.899 C20.143,0.892 20.143,0.885 20.143,0.878 C20.059,0.863 19.974,0.849 19.889,0.835 C19.889,0.828 19.889,0.821 19.889,0.813 C19.296,0.813 18.703,0.813 18.110,0.813 C16.260,0.813 14.410,0.813 12.560,0.813 C9.934,0.813 7.307,0.813 4.681,0.813 C4.060,0.813 3.438,0.813 2.817,0.813 C2.577,0.813 2.337,0.813 2.097,0.813 C2.097,0.821 2.097,0.828 2.097,0.835 C2.012,0.849 1.927,0.863 1.843,0.878 C1.843,0.885 1.843,0.892 1.843,0.899 C1.800,0.913 1.758,0.928 1.716,0.942 C1.716,0.949 1.716,0.956 1.716,0.963 C1.687,0.970 1.659,0.978 1.631,0.985 C1.624,0.999 1.617,1.013 1.610,1.028 C1.596,1.028 1.582,1.028 1.567,1.028 C1.539,1.063 1.511,1.099 1.483,1.135 C1.426,1.185 1.370,1.234 1.313,1.284 C1.313,1.299 1.313,1.313 1.313,1.327 C1.292,1.341 1.271,1.356 1.250,1.370 C1.243,1.399 1.236,1.427 1.229,1.456 C1.221,1.456 1.214,1.456 1.207,1.456 C1.207,1.470 1.207,1.484 1.207,1.498 C1.200,1.498 1.193,1.498 1.186,1.498 C1.172,1.541 1.158,1.584 1.144,1.627 C1.137,1.627 1.130,1.627 1.123,1.627 C1.123,1.648 1.123,1.670 1.123,1.691 C1.116,1.691 1.108,1.691 1.101,1.691 C1.094,1.748 1.087,1.805 1.080,1.862 C1.073,1.862 1.066,1.862 1.059,1.862 C1.059,1.912 1.059,1.962 1.059,2.012 C1.052,2.012 1.045,2.012 1.038,2.012 C1.038,2.362 1.038,2.712 1.038,3.061 C1.038,4.124 1.038,5.188 1.038,6.251 C1.038,11.359 1.038,16.469 1.038,21.578 ZM11.438,2.933 C12.068,2.921 12.514,3.083 12.878,3.339 C12.885,3.354 12.892,3.368 12.899,3.382 C12.921,3.389 12.942,3.397 12.963,3.404 C12.991,3.439 13.019,3.475 13.048,3.511 C13.062,3.511 13.076,3.511 13.090,3.511 C13.125,3.554 13.161,3.596 13.196,3.639 C13.210,3.646 13.224,3.653 13.238,3.661 C13.238,3.675 13.238,3.689 13.238,3.703 C13.274,3.732 13.309,3.760 13.344,3.789 C13.344,3.803 13.344,3.818 13.344,3.832 C13.365,3.846 13.387,3.860 13.408,3.875 C13.408,3.889 13.408,3.903 13.408,3.917 C13.422,3.925 13.436,3.932 13.450,3.939 C13.457,3.960 13.464,3.982 13.471,4.003 C13.478,4.003 13.485,4.003 13.492,4.003 C13.492,4.017 13.492,4.032 13.492,4.046 C13.507,4.053 13.521,4.060 13.535,4.067 C13.535,4.082 13.535,4.096 13.535,4.110 C13.542,4.110 13.549,4.110 13.556,4.110 C13.556,4.124 13.556,4.139 13.556,4.153 C13.563,4.153 13.570,4.153 13.577,4.153 C13.577,4.167 13.577,4.181 13.577,4.196 C13.584,4.196 13.591,4.196 13.598,4.196 C13.598,4.210 13.598,4.224 13.598,4.239 C13.605,4.239 13.612,4.239 13.620,4.239 C13.620,4.253 13.620,4.267 13.620,4.281 C13.627,4.281 13.634,4.281 13.641,4.281 C13.655,4.324 13.669,4.367 13.683,4.410 C13.690,4.410 13.697,4.410 13.704,4.410 C13.711,4.453 13.718,4.495 13.725,4.538 C13.823,4.787 13.874,5.038 13.874,5.394 C13.874,5.502 13.874,5.609 13.874,5.716 C13.867,5.716 13.860,5.716 13.853,5.716 C13.853,5.766 13.853,5.815 13.853,5.865 C13.845,5.865 13.838,5.865 13.831,5.865 C13.831,5.901 13.831,5.937 13.831,5.972 C13.824,5.972 13.817,5.972 13.810,5.972 C13.810,6.001 13.810,6.030 13.810,6.058 C13.803,6.058 13.796,6.058 13.789,6.058 C13.789,6.087 13.789,6.115 13.789,6.144 C13.782,6.144 13.775,6.144 13.768,6.144 C13.768,6.165 13.768,6.187 13.768,6.208 C13.761,6.208 13.754,6.208 13.747,6.208 C13.747,6.229 13.747,6.251 13.747,6.272 C13.740,6.272 13.732,6.272 13.725,6.272 C13.725,6.294 13.725,6.315 13.725,6.336 C13.718,6.336 13.711,6.336 13.704,6.336 C13.704,6.351 13.704,6.365 13.704,6.379 C13.697,6.379 13.690,6.379 13.683,6.379 C13.662,6.443 13.641,6.508 13.620,6.572 C13.605,6.579 13.591,6.586 13.577,6.593 C13.563,6.636 13.549,6.679 13.535,6.722 C13.521,6.729 13.507,6.736 13.492,6.743 C13.492,6.757 13.492,6.772 13.492,6.786 C13.471,6.800 13.450,6.814 13.429,6.829 C13.429,6.843 13.429,6.857 13.429,6.872 C13.408,6.886 13.387,6.900 13.365,6.914 C13.365,6.929 13.365,6.943 13.365,6.957 C13.330,6.986 13.295,7.014 13.259,7.043 C13.259,7.050 13.259,7.057 13.259,7.064 C13.266,7.064 13.274,7.064 13.281,7.064 C13.317,7.109 13.359,7.116 13.408,7.150 C13.415,7.164 13.422,7.178 13.429,7.193 C13.443,7.193 13.457,7.193 13.471,7.193 C13.478,7.207 13.485,7.221 13.492,7.235 C13.499,7.235 13.507,7.235 13.514,7.235 C13.521,7.250 13.528,7.264 13.535,7.278 C13.549,7.278 13.563,7.278 13.577,7.278 C13.605,7.314 13.634,7.350 13.662,7.385 C13.676,7.385 13.690,7.385 13.704,7.385 C13.761,7.450 13.817,7.514 13.874,7.578 C13.937,7.635 14.001,7.692 14.064,7.749 C14.064,7.764 14.064,7.778 14.064,7.792 C14.100,7.821 14.135,7.849 14.170,7.878 C14.170,7.892 14.170,7.906 14.170,7.920 C14.184,7.928 14.198,7.935 14.213,7.942 C14.213,7.949 14.213,7.956 14.213,7.963 C14.227,7.970 14.241,7.978 14.255,7.985 C14.255,7.999 14.255,8.013 14.255,8.028 C14.276,8.042 14.297,8.056 14.319,8.070 C14.319,8.085 14.319,8.099 14.319,8.113 C14.333,8.120 14.347,8.127 14.361,8.135 C14.361,8.149 14.361,8.163 14.361,8.177 C14.375,8.185 14.389,8.192 14.403,8.199 C14.410,8.220 14.417,8.242 14.424,8.263 C14.431,8.263 14.439,8.263 14.446,8.263 C14.453,8.292 14.460,8.320 14.467,8.349 C14.481,8.356 14.495,8.363 14.509,8.370 C14.509,8.384 14.509,8.399 14.509,8.413 C14.516,8.413 14.523,8.413 14.530,8.413 C14.530,8.427 14.530,8.441 14.530,8.456 C14.537,8.456 14.544,8.456 14.551,8.456 C14.551,8.470 14.551,8.484 14.551,8.498 C14.559,8.498 14.566,8.498 14.573,8.498 C14.573,8.513 14.573,8.527 14.573,8.541 C14.580,8.541 14.587,8.541 14.594,8.541 C14.594,8.556 14.594,8.570 14.594,8.584 C14.601,8.584 14.608,8.584 14.615,8.584 C14.615,8.598 14.615,8.613 14.615,8.627 C14.622,8.627 14.629,8.627 14.636,8.627 C14.636,8.641 14.636,8.655 14.636,8.670 C14.643,8.670 14.650,8.670 14.657,8.670 C14.672,8.713 14.686,8.755 14.700,8.798 C14.707,8.798 14.714,8.798 14.721,8.798 C14.784,8.991 14.848,9.184 14.912,9.376 C14.912,9.412 14.912,9.448 14.912,9.483 C14.984,9.721 15.072,10.269 14.975,10.532 C14.975,10.554 14.975,10.575 14.975,10.596 C14.782,11.047 14.232,10.939 13.620,10.939 C12.398,10.939 11.176,10.939 9.955,10.939 C9.637,10.939 9.320,10.939 9.002,10.939 C8.817,10.939 8.608,10.946 8.494,10.875 C8.487,10.860 8.480,10.846 8.472,10.832 C8.458,10.832 8.444,10.832 8.430,10.832 C8.423,10.818 8.416,10.803 8.409,10.789 C8.381,10.768 8.352,10.746 8.324,10.725 C8.324,10.711 8.324,10.696 8.324,10.682 C8.317,10.682 8.310,10.682 8.303,10.682 C8.296,10.653 8.289,10.625 8.282,10.596 C8.275,10.596 8.268,10.596 8.261,10.596 C8.228,10.520 8.184,10.203 8.218,10.083 C8.225,10.083 8.232,10.083 8.239,10.083 C8.239,9.997 8.239,9.911 8.239,9.826 C8.247,9.826 8.254,9.826 8.261,9.826 C8.261,9.776 8.261,9.726 8.261,9.676 C8.268,9.676 8.275,9.676 8.282,9.676 C8.282,9.633 8.282,9.590 8.282,9.547 C8.289,9.547 8.296,9.547 8.303,9.547 C8.303,9.512 8.303,9.476 8.303,9.440 C8.310,9.440 8.317,9.440 8.324,9.440 C8.324,9.412 8.324,9.383 8.324,9.355 C8.331,9.355 8.338,9.355 8.345,9.355 C8.345,9.326 8.345,9.298 8.345,9.269 C8.352,9.269 8.360,9.269 8.367,9.269 C8.367,9.241 8.367,9.212 8.367,9.183 C8.374,9.183 8.381,9.183 8.388,9.183 C8.388,9.162 8.388,9.141 8.388,9.119 C8.395,9.119 8.402,9.119 8.409,9.119 C8.416,9.069 8.423,9.019 8.430,8.969 C8.437,8.969 8.444,8.969 8.451,8.969 C8.451,8.955 8.451,8.941 8.451,8.927 C8.458,8.927 8.465,8.927 8.472,8.927 C8.480,8.884 8.487,8.841 8.494,8.798 C8.501,8.798 8.508,8.798 8.515,8.798 C8.515,8.784 8.515,8.770 8.515,8.755 C8.522,8.755 8.529,8.755 8.536,8.755 C8.536,8.734 8.536,8.713 8.536,8.691 C8.543,8.691 8.550,8.691 8.557,8.691 C8.571,8.648 8.585,8.606 8.600,8.563 C8.607,8.563 8.614,8.563 8.621,8.563 C8.621,8.548 8.621,8.534 8.621,8.520 C8.628,8.520 8.635,8.520 8.642,8.520 C8.642,8.506 8.642,8.491 8.642,8.477 C8.649,8.477 8.656,8.477 8.663,8.477 C8.677,8.434 8.691,8.391 8.705,8.349 C8.720,8.341 8.734,8.334 8.748,8.327 C8.755,8.299 8.762,8.270 8.769,8.242 C8.783,8.234 8.797,8.227 8.811,8.220 C8.818,8.192 8.826,8.163 8.833,8.135 C8.847,8.127 8.861,8.120 8.875,8.113 C8.875,8.099 8.875,8.085 8.875,8.070 C8.896,8.056 8.917,8.042 8.938,8.028 C8.938,8.013 8.938,7.999 8.938,7.985 C8.960,7.970 8.981,7.956 9.002,7.942 C9.002,7.928 9.002,7.913 9.002,7.899 C9.023,7.885 9.044,7.871 9.066,7.856 C9.066,7.842 9.066,7.828 9.066,7.813 C9.129,7.756 9.193,7.699 9.256,7.642 C9.334,7.557 9.412,7.471 9.489,7.385 C9.503,7.385 9.517,7.385 9.532,7.385 C9.553,7.357 9.574,7.328 9.595,7.300 C9.609,7.300 9.623,7.300 9.637,7.300 C9.652,7.278 9.666,7.257 9.680,7.235 C9.694,7.235 9.708,7.235 9.722,7.235 C9.729,7.221 9.736,7.207 9.743,7.193 C9.757,7.193 9.772,7.193 9.786,7.193 C9.793,7.178 9.800,7.164 9.807,7.150 C9.868,7.109 9.936,7.104 9.976,7.043 C9.904,7.000 9.914,6.977 9.870,6.914 C9.849,6.900 9.828,6.886 9.807,6.872 C9.807,6.857 9.807,6.843 9.807,6.829 C9.786,6.814 9.765,6.800 9.743,6.786 C9.743,6.772 9.743,6.757 9.743,6.743 C9.729,6.736 9.715,6.729 9.701,6.722 C9.694,6.693 9.687,6.665 9.680,6.636 C9.480,6.316 9.362,5.942 9.362,5.416 C9.369,5.259 9.376,5.102 9.383,4.945 C9.433,4.767 9.482,4.588 9.532,4.410 C9.539,4.410 9.546,4.410 9.553,4.410 C9.567,4.367 9.581,4.324 9.595,4.281 C9.602,4.281 9.609,4.281 9.616,4.281 C9.616,4.267 9.616,4.253 9.616,4.239 C9.623,4.239 9.630,4.239 9.637,4.239 C9.637,4.224 9.637,4.210 9.637,4.196 C9.645,4.196 9.652,4.196 9.659,4.196 C9.673,4.153 9.687,4.110 9.701,4.067 C9.715,4.060 9.729,4.053 9.743,4.046 C9.743,4.032 9.743,4.017 9.743,4.003 C9.757,3.996 9.772,3.989 9.786,3.982 C9.786,3.967 9.786,3.953 9.786,3.939 C9.800,3.932 9.814,3.925 9.828,3.917 C9.828,3.903 9.828,3.889 9.828,3.875 C9.849,3.860 9.870,3.846 9.892,3.832 C9.892,3.818 9.892,3.803 9.892,3.789 C9.927,3.760 9.962,3.732 9.998,3.703 C9.998,3.689 9.998,3.675 9.998,3.661 C10.040,3.625 10.082,3.589 10.125,3.554 C10.132,3.539 10.139,3.525 10.146,3.511 C10.160,3.511 10.174,3.511 10.188,3.511 C10.216,3.475 10.245,3.439 10.273,3.404 C10.287,3.404 10.301,3.404 10.315,3.404 C10.329,3.382 10.343,3.361 10.358,3.339 C10.372,3.339 10.386,3.339 10.400,3.339 C10.407,3.325 10.414,3.311 10.421,3.297 C10.442,3.290 10.464,3.282 10.485,3.275 C10.485,3.268 10.485,3.261 10.485,3.254 C10.513,3.247 10.541,3.240 10.569,3.232 C10.576,3.218 10.584,3.204 10.591,3.190 C10.654,3.168 10.718,3.147 10.781,3.125 C10.781,3.118 10.781,3.111 10.781,3.104 C10.809,3.097 10.838,3.090 10.866,3.083 C10.866,3.075 10.866,3.068 10.866,3.061 C10.908,3.054 10.951,3.047 10.993,3.040 C10.993,3.033 10.993,3.025 10.993,3.018 C11.021,3.018 11.050,3.018 11.078,3.018 C11.078,3.011 11.078,3.004 11.078,2.997 C11.106,2.997 11.134,2.997 11.162,2.997 C11.162,2.990 11.162,2.983 11.162,2.976 C11.198,2.976 11.233,2.976 11.268,2.976 C11.268,2.968 11.268,2.961 11.268,2.954 C11.325,2.954 11.381,2.954 11.438,2.954 C11.438,2.947 11.438,2.940 11.438,2.933 ZM11.417,4.174 C11.417,4.181 11.417,4.189 11.417,4.196 C11.388,4.196 11.360,4.196 11.332,4.196 C11.332,4.203 11.332,4.210 11.332,4.217 C11.290,4.224 11.247,4.231 11.205,4.239 C11.205,4.246 11.205,4.253 11.205,4.260 C11.177,4.267 11.148,4.274 11.120,4.281 C11.120,4.288 11.120,4.296 11.120,4.303 C11.106,4.303 11.092,4.303 11.078,4.303 C10.827,4.463 10.633,4.724 10.527,5.031 C10.520,5.102 10.513,5.173 10.506,5.245 C10.499,5.245 10.492,5.245 10.485,5.245 C10.485,5.345 10.485,5.444 10.485,5.544 C10.492,5.544 10.499,5.544 10.506,5.544 C10.506,5.587 10.506,5.630 10.506,5.673 C10.513,5.673 10.520,5.673 10.527,5.673 C10.527,5.701 10.527,5.730 10.527,5.758 C10.534,5.758 10.541,5.758 10.548,5.758 C10.555,5.801 10.562,5.844 10.569,5.887 C10.576,5.887 10.584,5.887 10.591,5.887 C10.605,5.930 10.619,5.972 10.633,6.015 C10.640,6.015 10.647,6.015 10.654,6.015 C10.661,6.044 10.668,6.072 10.675,6.101 C10.689,6.108 10.704,6.115 10.718,6.122 C10.718,6.137 10.718,6.151 10.718,6.165 C10.760,6.201 10.802,6.236 10.845,6.272 C10.887,6.322 10.930,6.372 10.972,6.422 C10.986,6.422 11.000,6.422 11.014,6.422 C11.021,6.436 11.028,6.451 11.035,6.465 C11.050,6.465 11.064,6.465 11.078,6.465 C11.078,6.472 11.078,6.479 11.078,6.486 C11.092,6.486 11.106,6.486 11.120,6.486 C11.120,6.493 11.120,6.501 11.120,6.508 C11.134,6.508 11.148,6.508 11.162,6.508 C11.162,6.515 11.162,6.522 11.162,6.529 C11.177,6.529 11.191,6.529 11.205,6.529 C11.205,6.536 11.205,6.543 11.205,6.550 C11.219,6.550 11.233,6.550 11.247,6.550 C11.247,6.558 11.247,6.565 11.247,6.572 C11.268,6.572 11.290,6.572 11.311,6.572 C11.311,6.579 11.311,6.586 11.311,6.593 C11.339,6.593 11.367,6.593 11.395,6.593 C11.395,6.600 11.395,6.608 11.395,6.615 C11.445,6.615 11.494,6.615 11.544,6.615 C11.544,6.622 11.544,6.629 11.544,6.636 C11.593,6.636 11.643,6.636 11.692,6.636 C11.692,6.629 11.692,6.622 11.692,6.615 C11.741,6.615 11.791,6.615 11.840,6.615 C12.148,6.519 12.329,6.383 12.497,6.144 C12.518,6.129 12.539,6.115 12.560,6.101 C12.560,6.087 12.560,6.072 12.560,6.058 C12.568,6.058 12.575,6.058 12.582,6.058 C12.582,6.044 12.582,6.030 12.582,6.015 C12.589,6.015 12.596,6.015 12.603,6.015 C12.603,6.001 12.603,5.987 12.603,5.972 C12.610,5.972 12.617,5.972 12.624,5.972 C12.624,5.958 12.624,5.944 12.624,5.930 C12.631,5.930 12.638,5.930 12.645,5.930 C12.645,5.915 12.645,5.901 12.645,5.887 C12.652,5.887 12.659,5.887 12.666,5.887 C12.680,5.816 12.695,5.744 12.709,5.673 C12.762,5.504 12.763,5.285 12.709,5.116 C12.709,5.088 12.709,5.059 12.709,5.031 C12.702,5.031 12.695,5.031 12.688,5.031 C12.680,4.988 12.673,4.945 12.666,4.902 C12.659,4.902 12.652,4.902 12.645,4.902 C12.631,4.859 12.617,4.817 12.603,4.774 C12.596,4.774 12.589,4.774 12.582,4.774 C12.582,4.759 12.582,4.745 12.582,4.731 C12.414,4.464 12.154,4.274 11.819,4.174 C11.685,4.174 11.551,4.174 11.417,4.174 ZM9.468,9.697 C10.915,9.697 12.363,9.697 13.810,9.697 C13.775,9.576 13.740,9.455 13.704,9.333 C13.697,9.333 13.690,9.333 13.683,9.333 C13.683,9.319 13.683,9.305 13.683,9.291 C13.676,9.291 13.669,9.291 13.662,9.291 C13.662,9.276 13.662,9.262 13.662,9.248 C13.655,9.248 13.648,9.248 13.641,9.248 C13.641,9.233 13.641,9.219 13.641,9.205 C13.634,9.205 13.627,9.205 13.620,9.205 C13.620,9.191 13.620,9.176 13.620,9.162 C13.612,9.162 13.605,9.162 13.598,9.162 C13.584,9.119 13.570,9.076 13.556,9.034 C13.542,9.027 13.528,9.019 13.514,9.012 C13.507,8.984 13.499,8.955 13.492,8.927 C13.485,8.927 13.478,8.927 13.471,8.927 C13.464,8.905 13.457,8.884 13.450,8.862 C13.436,8.855 13.422,8.848 13.408,8.841 C13.408,8.827 13.408,8.812 13.408,8.798 C13.379,8.777 13.351,8.755 13.323,8.734 C13.323,8.720 13.323,8.705 13.323,8.691 C13.267,8.641 13.210,8.591 13.154,8.541 C13.097,8.477 13.041,8.413 12.984,8.349 C12.970,8.349 12.956,8.349 12.942,8.349 C12.921,8.320 12.899,8.292 12.878,8.263 C12.864,8.263 12.850,8.263 12.836,8.263 C12.829,8.249 12.822,8.234 12.815,8.220 C12.793,8.213 12.772,8.206 12.751,8.199 C12.751,8.192 12.751,8.185 12.751,8.177 C12.723,8.170 12.695,8.163 12.666,8.156 C12.659,8.142 12.652,8.127 12.645,8.113 C12.631,8.113 12.617,8.113 12.603,8.113 C12.603,8.106 12.603,8.099 12.603,8.092 C12.575,8.085 12.546,8.077 12.518,8.070 C12.518,8.063 12.518,8.056 12.518,8.049 C12.497,8.049 12.476,8.049 12.455,8.049 C12.455,8.042 12.455,8.035 12.455,8.028 C12.440,8.028 12.426,8.028 12.412,8.028 C12.412,8.020 12.412,8.013 12.412,8.006 C12.391,8.006 12.370,8.006 12.349,8.006 C12.349,7.999 12.349,7.992 12.349,7.985 C12.335,7.985 12.320,7.985 12.306,7.985 C12.306,7.978 12.306,7.970 12.306,7.963 C12.278,7.963 12.250,7.963 12.222,7.963 C12.222,7.956 12.222,7.949 12.222,7.942 C12.200,7.942 12.179,7.942 12.158,7.942 C12.158,7.935 12.158,7.928 12.158,7.920 C12.130,7.920 12.102,7.920 12.073,7.920 C11.978,7.889 11.605,7.815 11.459,7.856 C11.459,7.863 11.459,7.871 11.459,7.878 C11.395,7.878 11.332,7.878 11.268,7.878 C11.268,7.885 11.268,7.892 11.268,7.899 C11.233,7.899 11.198,7.899 11.162,7.899 C11.162,7.906 11.162,7.913 11.162,7.920 C11.134,7.920 11.106,7.920 11.078,7.920 C11.078,7.928 11.078,7.935 11.078,7.942 C11.057,7.942 11.035,7.942 11.014,7.942 C11.014,7.949 11.014,7.956 11.014,7.963 C10.986,7.963 10.958,7.963 10.930,7.963 C10.930,7.970 10.930,7.978 10.930,7.985 C10.915,7.985 10.901,7.985 10.887,7.985 C10.887,7.992 10.887,7.999 10.887,8.006 C10.802,8.035 10.718,8.063 10.633,8.092 C10.626,8.106 10.619,8.120 10.612,8.135 C10.584,8.142 10.555,8.149 10.527,8.156 C10.520,8.170 10.513,8.185 10.506,8.199 C10.492,8.199 10.478,8.199 10.464,8.199 C10.464,8.206 10.464,8.213 10.464,8.220 C10.449,8.220 10.435,8.220 10.421,8.220 C10.407,8.242 10.393,8.263 10.379,8.284 C10.365,8.284 10.351,8.284 10.336,8.284 C10.315,8.313 10.294,8.341 10.273,8.370 C10.259,8.370 10.245,8.370 10.231,8.370 C10.209,8.399 10.188,8.427 10.167,8.456 C10.111,8.506 10.054,8.556 9.998,8.606 C9.998,8.620 9.998,8.634 9.998,8.648 C9.962,8.677 9.927,8.705 9.892,8.734 C9.892,8.748 9.892,8.762 9.892,8.777 C9.878,8.784 9.863,8.791 9.849,8.798 C9.842,8.820 9.835,8.841 9.828,8.862 C9.821,8.862 9.814,8.862 9.807,8.862 C9.807,8.877 9.807,8.891 9.807,8.905 C9.793,8.912 9.779,8.919 9.765,8.927 C9.750,8.969 9.736,9.012 9.722,9.055 C9.708,9.062 9.694,9.069 9.680,9.076 C9.680,9.091 9.680,9.105 9.680,9.119 C9.673,9.119 9.666,9.119 9.659,9.119 C9.659,9.134 9.659,9.148 9.659,9.162 C9.652,9.162 9.645,9.162 9.637,9.162 C9.637,9.183 9.637,9.205 9.637,9.226 C9.630,9.226 9.623,9.226 9.616,9.226 C9.609,9.255 9.602,9.283 9.595,9.312 C9.588,9.312 9.581,9.312 9.574,9.312 C9.539,9.440 9.503,9.569 9.468,9.697 ZM3.813,13.486 C7.724,13.486 11.636,13.486 15.547,13.486 C16.295,13.486 17.044,13.486 17.792,13.486 C18.070,13.486 18.550,13.442 18.724,13.550 C18.731,13.565 18.738,13.579 18.745,13.593 C18.759,13.593 18.774,13.593 18.788,13.593 C18.795,13.608 18.802,13.622 18.809,13.636 C18.837,13.657 18.865,13.679 18.894,13.700 C18.894,13.715 18.894,13.729 18.894,13.743 C18.908,13.750 18.922,13.757 18.936,13.765 C18.936,13.779 18.936,13.793 18.936,13.807 C18.943,13.807 18.950,13.807 18.957,13.807 C18.957,13.829 18.957,13.850 18.957,13.872 C18.964,13.872 18.971,13.872 18.978,13.872 C18.978,13.900 18.978,13.929 18.978,13.957 C18.989,13.993 19.020,14.104 19.000,14.171 C18.954,14.323 18.850,14.510 18.724,14.578 C18.703,14.578 18.682,14.578 18.661,14.578 C18.661,14.585 18.661,14.592 18.661,14.599 C18.647,14.599 18.632,14.599 18.618,14.599 C18.618,14.607 18.618,14.614 18.618,14.621 C18.329,14.621 18.039,14.621 17.750,14.621 C16.938,14.621 16.126,14.621 15.314,14.621 C12.547,14.621 9.778,14.621 7.011,14.621 C6.220,14.621 5.429,14.621 4.639,14.621 C4.413,14.621 4.187,14.621 3.961,14.621 C3.852,14.621 3.723,14.635 3.643,14.599 C3.643,14.592 3.643,14.585 3.643,14.578 C3.444,14.480 3.324,14.345 3.325,14.043 C3.325,14.000 3.325,13.957 3.325,13.914 C3.333,13.914 3.340,13.914 3.347,13.914 C3.367,13.857 3.359,13.789 3.389,13.743 C3.410,13.729 3.431,13.715 3.453,13.700 C3.453,13.686 3.453,13.672 3.453,13.657 C3.530,13.608 3.608,13.558 3.686,13.508 C3.728,13.508 3.770,13.508 3.813,13.508 C3.813,13.501 3.813,13.493 3.813,13.486 ZM3.791,17.425 C7.710,17.425 11.629,17.425 15.547,17.425 C16.302,17.425 17.058,17.425 17.813,17.425 C18.133,17.425 18.569,17.376 18.767,17.511 C18.774,17.525 18.781,17.539 18.788,17.554 C18.865,17.626 18.939,17.700 18.978,17.810 C18.978,17.839 18.978,17.867 18.978,17.896 C18.989,17.932 19.020,18.042 19.000,18.110 C18.935,18.324 18.806,18.492 18.597,18.560 C18.315,18.560 18.032,18.560 17.750,18.560 C16.938,18.560 16.126,18.560 15.314,18.560 C12.547,18.560 9.778,18.560 7.011,18.560 C6.220,18.560 5.429,18.560 4.639,18.560 C4.413,18.560 4.187,18.560 3.961,18.560 C3.852,18.560 3.723,18.574 3.643,18.538 C3.643,18.531 3.643,18.524 3.643,18.517 C3.443,18.418 3.325,18.284 3.325,17.982 C3.325,17.932 3.325,17.882 3.325,17.832 C3.333,17.832 3.340,17.832 3.347,17.832 C3.347,17.810 3.347,17.789 3.347,17.768 C3.354,17.768 3.361,17.768 3.368,17.768 C3.368,17.753 3.368,17.739 3.368,17.725 C3.375,17.725 3.382,17.725 3.389,17.725 C3.389,17.711 3.389,17.696 3.389,17.682 C3.410,17.668 3.431,17.653 3.453,17.639 C3.453,17.625 3.453,17.611 3.453,17.596 C3.467,17.589 3.481,17.582 3.495,17.575 C3.495,17.568 3.495,17.561 3.495,17.554 C3.509,17.554 3.523,17.554 3.537,17.554 C3.544,17.539 3.551,17.525 3.558,17.511 C3.573,17.511 3.587,17.511 3.601,17.511 C3.608,17.496 3.615,17.482 3.622,17.468 C3.643,17.468 3.664,17.468 3.686,17.468 C3.686,17.461 3.686,17.454 3.686,17.446 C3.721,17.446 3.756,17.446 3.791,17.446 C3.791,17.439 3.791,17.432 3.791,17.425 ZM8.197,21.364 C10.993,21.364 13.789,21.364 16.585,21.364 C17.065,21.364 17.545,21.364 18.025,21.364 C18.297,21.364 18.603,21.338 18.767,21.450 C18.788,21.478 18.809,21.507 18.830,21.535 C18.851,21.549 18.872,21.564 18.894,21.578 C18.942,21.647 19.044,21.901 19.000,22.049 C18.992,22.049 18.985,22.049 18.978,22.049 C18.978,22.077 18.978,22.106 18.978,22.135 C18.971,22.135 18.964,22.135 18.957,22.135 C18.957,22.149 18.957,22.163 18.957,22.177 C18.950,22.177 18.943,22.177 18.936,22.177 C18.929,22.206 18.922,22.234 18.915,22.263 C18.901,22.270 18.887,22.277 18.872,22.284 C18.872,22.299 18.872,22.313 18.872,22.327 C18.816,22.370 18.759,22.413 18.703,22.456 C18.689,22.456 18.675,22.456 18.661,22.456 C18.661,22.463 18.661,22.470 18.661,22.477 C18.517,22.540 18.133,22.498 17.940,22.498 C17.397,22.498 16.853,22.498 16.310,22.498 C14.290,22.498 12.271,22.498 10.252,22.498 C9.722,22.498 9.193,22.498 8.663,22.498 C8.429,22.498 8.129,22.530 7.985,22.434 C7.971,22.413 7.957,22.391 7.943,22.370 C7.929,22.370 7.915,22.370 7.901,22.370 C7.894,22.349 7.886,22.327 7.879,22.306 C7.858,22.292 7.837,22.277 7.816,22.263 C7.816,22.249 7.816,22.234 7.816,22.220 C7.782,22.160 7.695,21.980 7.731,21.856 C7.738,21.856 7.745,21.856 7.752,21.856 C7.752,21.821 7.752,21.785 7.752,21.749 C7.759,21.749 7.766,21.749 7.774,21.749 C7.788,21.706 7.802,21.664 7.816,21.621 C7.823,21.621 7.830,21.621 7.837,21.621 C7.837,21.607 7.837,21.592 7.837,21.578 C7.851,21.571 7.865,21.564 7.879,21.557 C7.908,21.521 7.936,21.485 7.964,21.450 C7.978,21.450 7.992,21.450 8.006,21.450 C8.006,21.442 8.006,21.435 8.006,21.428 C8.050,21.403 8.054,21.428 8.091,21.385 C8.127,21.385 8.162,21.385 8.197,21.385 C8.197,21.378 8.197,21.371 8.197,21.364 ZM1.779,22.713 C2.803,23.826 3.827,24.939 4.850,26.052 C4.850,25.082 4.850,24.111 4.850,23.141 C4.843,23.141 4.836,23.141 4.829,23.141 C4.829,23.112 4.829,23.084 4.829,23.055 C4.822,23.055 4.815,23.055 4.808,23.055 C4.808,23.041 4.808,23.027 4.808,23.012 C4.801,23.012 4.794,23.012 4.787,23.012 C4.787,22.998 4.787,22.984 4.787,22.969 C4.773,22.962 4.759,22.955 4.745,22.948 C4.745,22.934 4.745,22.919 4.745,22.905 C4.716,22.884 4.688,22.862 4.660,22.841 C4.660,22.834 4.660,22.827 4.660,22.820 C4.646,22.820 4.632,22.820 4.618,22.820 C4.610,22.805 4.603,22.791 4.596,22.777 C4.582,22.777 4.568,22.777 4.554,22.777 C4.554,22.770 4.554,22.762 4.554,22.755 C4.540,22.755 4.526,22.755 4.512,22.755 C4.512,22.748 4.512,22.741 4.512,22.734 C4.362,22.674 3.892,22.713 3.686,22.713 C3.050,22.713 2.415,22.713 1.779,22.713 Z"/>
</svg>