<svg 
 xmlns="http://www.w3.org/2000/svg"
 xmlns:xlink="http://www.w3.org/1999/xlink"
 width="30px" height="22px">
<path fill-rule="evenodd"  fill="rgb(245, 246, 246)"
 d="M14.213,-0.000 C14.651,-0.000 15.089,-0.000 15.526,-0.000 C15.526,7.333 15.526,14.667 15.526,22.000 C15.089,22.000 14.651,22.000 14.213,22.000 C14.213,21.131 14.213,20.262 14.213,19.393 C12.137,19.393 10.061,19.393 7.985,19.393 C7.985,20.262 7.985,21.131 7.985,22.000 C6.988,22.000 5.990,22.000 4.993,22.000 C4.993,21.131 4.993,20.262 4.993,19.393 C4.611,19.393 4.230,19.393 3.849,19.393 C3.849,19.385 3.849,19.377 3.849,19.369 C3.776,19.369 3.703,19.369 3.630,19.369 C3.492,19.353 3.354,19.336 3.217,19.320 C3.014,19.263 2.811,19.206 2.608,19.150 C2.608,19.141 2.608,19.133 2.608,19.125 C2.592,19.125 2.576,19.125 2.560,19.125 C2.560,19.117 2.560,19.109 2.560,19.101 C2.535,19.101 2.511,19.101 2.487,19.101 C2.487,19.093 2.487,19.085 2.487,19.076 C2.471,19.076 2.454,19.076 2.438,19.076 C2.438,19.068 2.438,19.060 2.438,19.052 C2.414,19.052 2.389,19.052 2.365,19.052 C2.365,19.044 2.365,19.036 2.365,19.028 C2.316,19.011 2.268,18.995 2.219,18.979 C2.219,18.971 2.219,18.963 2.219,18.955 C2.203,18.955 2.187,18.955 2.170,18.955 C2.170,18.946 2.170,18.938 2.170,18.930 C2.122,18.914 2.073,18.898 2.025,18.882 C2.016,18.865 2.008,18.849 2.000,18.833 C1.968,18.825 1.935,18.817 1.903,18.808 C1.903,18.800 1.903,18.792 1.903,18.784 C1.879,18.776 1.854,18.768 1.830,18.760 C1.822,18.743 1.814,18.727 1.806,18.711 C1.789,18.711 1.773,18.711 1.757,18.711 C1.757,18.703 1.757,18.695 1.757,18.687 C1.733,18.678 1.708,18.670 1.684,18.662 C1.676,18.646 1.668,18.630 1.660,18.614 C1.643,18.614 1.627,18.614 1.611,18.614 C1.603,18.597 1.595,18.581 1.587,18.565 C1.562,18.557 1.538,18.549 1.514,18.540 C1.489,18.508 1.465,18.475 1.441,18.443 C1.424,18.443 1.408,18.443 1.392,18.443 C1.303,18.346 1.214,18.248 1.124,18.151 C1.051,18.086 0.978,18.021 0.905,17.956 C0.905,17.939 0.905,17.923 0.905,17.907 C0.873,17.883 0.841,17.858 0.808,17.834 C0.808,17.818 0.808,17.801 0.808,17.785 C0.784,17.769 0.759,17.753 0.735,17.736 C0.735,17.720 0.735,17.704 0.735,17.688 C0.711,17.671 0.686,17.655 0.662,17.639 C0.662,17.623 0.662,17.606 0.662,17.590 C0.646,17.582 0.630,17.574 0.614,17.566 C0.605,17.533 0.597,17.501 0.589,17.468 C0.573,17.460 0.557,17.452 0.541,17.444 C0.532,17.412 0.524,17.379 0.516,17.347 C0.500,17.339 0.484,17.330 0.468,17.322 C0.451,17.274 0.435,17.225 0.419,17.176 C0.411,17.176 0.403,17.176 0.395,17.176 C0.378,17.127 0.362,17.079 0.346,17.030 C0.338,17.030 0.330,17.030 0.322,17.030 C0.322,17.006 0.322,16.981 0.322,16.957 C0.313,16.957 0.305,16.957 0.297,16.957 C0.297,16.941 0.297,16.924 0.297,16.908 C0.289,16.908 0.281,16.908 0.273,16.908 C0.273,16.884 0.273,16.859 0.273,16.835 C0.265,16.835 0.257,16.835 0.249,16.835 C0.249,16.819 0.249,16.803 0.249,16.786 C0.240,16.786 0.232,16.786 0.224,16.786 C0.208,16.713 0.192,16.640 0.176,16.567 C0.168,16.567 0.159,16.567 0.151,16.567 C0.143,16.510 0.135,16.453 0.127,16.396 C0.119,16.396 0.111,16.396 0.103,16.396 C0.095,16.315 0.086,16.234 0.078,16.153 C0.070,16.153 0.062,16.153 0.054,16.153 C0.046,16.031 0.038,15.909 0.030,15.787 C-0.016,15.625 0.005,15.357 0.005,15.154 C0.005,14.756 0.005,14.358 0.005,13.960 C0.005,13.578 0.005,13.197 0.005,12.815 C0.013,12.815 0.022,12.815 0.030,12.815 C0.030,12.742 0.030,12.669 0.030,12.596 C0.038,12.596 0.046,12.596 0.054,12.596 C0.054,12.547 0.054,12.498 0.054,12.450 C0.062,12.450 0.070,12.450 0.078,12.450 C0.078,12.409 0.078,12.368 0.078,12.328 C0.086,12.328 0.095,12.328 0.103,12.328 C0.103,12.295 0.103,12.263 0.103,12.230 C0.111,12.230 0.119,12.230 0.127,12.230 C0.127,12.198 0.127,12.165 0.127,12.133 C0.135,12.133 0.143,12.133 0.151,12.133 C0.151,12.109 0.151,12.084 0.151,12.060 C0.159,12.060 0.168,12.060 0.176,12.060 C0.184,12.003 0.192,11.946 0.200,11.889 C0.208,11.889 0.216,11.889 0.224,11.889 C0.232,11.849 0.240,11.808 0.249,11.767 C0.257,11.767 0.265,11.767 0.273,11.767 C0.273,11.751 0.273,11.735 0.273,11.719 C0.281,11.719 0.289,11.719 0.297,11.719 C0.297,11.694 0.297,11.670 0.297,11.646 C0.305,11.646 0.313,11.646 0.322,11.646 C0.338,11.597 0.354,11.548 0.370,11.499 C0.378,11.499 0.386,11.499 0.395,11.499 C0.395,11.483 0.395,11.467 0.395,11.451 C0.403,11.451 0.411,11.451 0.419,11.451 C0.435,11.402 0.451,11.353 0.468,11.305 C0.484,11.296 0.500,11.288 0.516,11.280 C0.524,11.248 0.532,11.215 0.541,11.183 C0.557,11.175 0.573,11.166 0.589,11.158 C0.589,11.142 0.589,11.126 0.589,11.110 C0.597,11.110 0.605,11.110 0.614,11.110 C0.622,11.085 0.630,11.061 0.638,11.037 C0.654,11.028 0.670,11.020 0.687,11.012 C0.687,10.996 0.687,10.980 0.687,10.963 C0.703,10.955 0.719,10.947 0.735,10.939 C0.743,10.915 0.751,10.890 0.759,10.866 C0.792,10.842 0.824,10.817 0.857,10.793 C0.857,10.777 0.857,10.760 0.857,10.744 C0.954,10.655 1.051,10.566 1.149,10.476 C1.214,10.403 1.278,10.330 1.343,10.257 C1.360,10.257 1.376,10.257 1.392,10.257 C1.416,10.224 1.441,10.192 1.465,10.159 C1.489,10.151 1.514,10.143 1.538,10.135 C1.546,10.119 1.554,10.103 1.562,10.086 C1.579,10.086 1.595,10.086 1.611,10.086 C1.619,10.070 1.627,10.054 1.635,10.038 C1.660,10.030 1.684,10.021 1.708,10.013 C1.708,10.005 1.708,9.997 1.708,9.989 C1.724,9.989 1.741,9.989 1.757,9.989 C1.765,9.973 1.773,9.956 1.781,9.940 C1.814,9.932 1.846,9.924 1.879,9.916 C1.887,9.900 1.895,9.883 1.903,9.867 C1.952,9.851 2.000,9.835 2.049,9.818 C2.057,9.802 2.065,9.786 2.073,9.770 C2.089,9.770 2.106,9.770 2.122,9.770 C2.122,9.762 2.122,9.753 2.122,9.745 C2.138,9.745 2.154,9.745 2.170,9.745 C2.170,9.737 2.170,9.729 2.170,9.721 C2.195,9.721 2.219,9.721 2.243,9.721 C2.243,9.713 2.243,9.705 2.243,9.697 C2.260,9.697 2.276,9.697 2.292,9.697 C2.292,9.688 2.292,9.680 2.292,9.672 C2.325,9.664 2.357,9.656 2.389,9.648 C2.389,9.640 2.389,9.632 2.389,9.623 C2.414,9.623 2.438,9.623 2.462,9.623 C2.462,9.615 2.462,9.607 2.462,9.599 C2.479,9.599 2.495,9.599 2.511,9.599 C2.511,9.591 2.511,9.583 2.511,9.575 C2.535,9.575 2.560,9.575 2.584,9.575 C2.584,9.567 2.584,9.559 2.584,9.550 C2.608,9.550 2.633,9.550 2.657,9.550 C2.657,9.542 2.657,9.534 2.657,9.526 C2.681,9.526 2.706,9.526 2.730,9.526 C2.730,9.518 2.730,9.510 2.730,9.502 C2.754,9.502 2.779,9.502 2.803,9.502 C2.803,9.494 2.803,9.485 2.803,9.477 C2.835,9.477 2.868,9.477 2.900,9.477 C2.900,9.469 2.900,9.461 2.900,9.453 C2.933,9.453 2.965,9.453 2.998,9.453 C2.998,9.445 2.998,9.437 2.998,9.429 C3.030,9.429 3.063,9.429 3.095,9.429 C3.095,9.420 3.095,9.412 3.095,9.404 C3.135,9.404 3.176,9.404 3.217,9.404 C3.217,9.396 3.217,9.388 3.217,9.380 C3.265,9.380 3.314,9.380 3.363,9.380 C3.363,9.372 3.363,9.364 3.363,9.355 C3.419,9.355 3.476,9.355 3.533,9.355 C3.533,9.347 3.533,9.339 3.533,9.331 C3.644,9.300 3.886,9.327 3.995,9.307 C4.206,8.673 4.417,8.040 4.628,7.406 C4.636,7.350 4.644,7.293 4.652,7.236 C4.660,7.236 4.668,7.236 4.676,7.236 C4.676,7.212 4.676,7.187 4.676,7.163 C4.684,7.163 4.692,7.163 4.701,7.163 C4.701,7.138 4.701,7.114 4.701,7.090 C4.709,7.090 4.717,7.090 4.725,7.090 C4.725,7.065 4.725,7.041 4.725,7.017 C4.733,7.017 4.741,7.017 4.749,7.017 C4.749,6.992 4.749,6.968 4.749,6.944 C4.757,6.944 4.765,6.944 4.774,6.944 C4.774,6.919 4.774,6.895 4.774,6.870 C4.782,6.870 4.790,6.870 4.798,6.870 C4.798,6.846 4.798,6.822 4.798,6.797 C4.806,6.797 4.814,6.797 4.822,6.797 C4.847,6.692 4.871,6.586 4.895,6.481 C4.903,6.481 4.911,6.481 4.920,6.481 C4.920,6.456 4.920,6.432 4.920,6.408 C4.928,6.408 4.936,6.408 4.944,6.408 C4.944,6.383 4.944,6.359 4.944,6.334 C4.952,6.334 4.960,6.334 4.968,6.334 C4.968,6.310 4.968,6.286 4.968,6.261 C4.976,6.261 4.984,6.261 4.993,6.261 C4.993,6.237 4.993,6.213 4.993,6.188 C5.001,6.188 5.009,6.188 5.017,6.188 C5.017,6.172 5.017,6.156 5.017,6.140 C5.025,6.140 5.033,6.140 5.041,6.140 C5.041,6.115 5.041,6.091 5.041,6.066 C5.049,6.066 5.057,6.066 5.066,6.066 C5.074,6.034 5.082,6.001 5.090,5.969 C5.098,5.969 5.106,5.969 5.114,5.969 C5.114,5.953 5.114,5.937 5.114,5.920 C5.122,5.920 5.130,5.920 5.138,5.920 C5.138,5.896 5.138,5.872 5.138,5.847 C5.147,5.847 5.155,5.847 5.163,5.847 C5.171,5.815 5.179,5.782 5.187,5.750 C5.195,5.750 5.203,5.750 5.211,5.750 C5.211,5.733 5.211,5.717 5.211,5.701 C5.228,5.693 5.244,5.685 5.260,5.677 C5.260,5.660 5.260,5.644 5.260,5.628 C5.268,5.628 5.276,5.628 5.284,5.628 C5.284,5.612 5.284,5.595 5.284,5.579 C5.293,5.579 5.301,5.579 5.309,5.579 C5.309,5.563 5.309,5.547 5.309,5.530 C5.317,5.530 5.325,5.530 5.333,5.530 C5.333,5.514 5.333,5.498 5.333,5.482 C5.349,5.474 5.366,5.465 5.382,5.457 C5.382,5.441 5.382,5.425 5.382,5.409 C5.398,5.401 5.414,5.392 5.430,5.384 C5.439,5.352 5.447,5.319 5.455,5.287 C5.471,5.279 5.487,5.271 5.503,5.262 C5.503,5.246 5.503,5.230 5.503,5.214 C5.528,5.197 5.552,5.181 5.576,5.165 C5.576,5.149 5.576,5.133 5.576,5.116 C5.593,5.108 5.609,5.100 5.625,5.092 C5.625,5.076 5.625,5.059 5.625,5.043 C5.649,5.027 5.674,5.011 5.698,4.994 C5.698,4.978 5.698,4.962 5.698,4.946 C5.739,4.913 5.779,4.881 5.820,4.848 C5.820,4.832 5.820,4.816 5.820,4.800 C5.876,4.751 5.933,4.702 5.990,4.653 C5.990,4.637 5.990,4.621 5.990,4.605 C6.031,4.572 6.071,4.540 6.112,4.507 C6.176,4.434 6.241,4.361 6.306,4.288 C6.322,4.288 6.339,4.288 6.355,4.288 C6.404,4.231 6.452,4.174 6.501,4.117 C6.517,4.117 6.533,4.117 6.550,4.117 C6.574,4.085 6.598,4.052 6.622,4.020 C6.639,4.020 6.655,4.020 6.671,4.020 C6.687,3.996 6.704,3.971 6.720,3.947 C6.736,3.947 6.752,3.947 6.768,3.947 C6.785,3.922 6.801,3.898 6.817,3.874 C6.833,3.874 6.850,3.874 6.866,3.874 C6.882,3.849 6.898,3.825 6.914,3.801 C6.931,3.801 6.947,3.801 6.963,3.801 C6.971,3.784 6.979,3.768 6.987,3.752 C7.012,3.744 7.036,3.736 7.060,3.728 C7.060,3.719 7.060,3.711 7.060,3.703 C7.093,3.695 7.125,3.687 7.158,3.679 C7.166,3.663 7.174,3.646 7.182,3.630 C7.206,3.622 7.231,3.614 7.255,3.606 C7.255,3.598 7.255,3.590 7.255,3.581 C7.304,3.565 7.352,3.549 7.401,3.533 C7.409,3.516 7.417,3.500 7.425,3.484 C7.442,3.484 7.458,3.484 7.474,3.484 C7.474,3.476 7.474,3.468 7.474,3.460 C7.490,3.460 7.506,3.460 7.523,3.460 C7.523,3.451 7.523,3.443 7.523,3.435 C7.539,3.435 7.555,3.435 7.571,3.435 C7.571,3.427 7.571,3.419 7.571,3.411 C7.587,3.411 7.604,3.411 7.620,3.411 C7.620,3.403 7.620,3.395 7.620,3.386 C7.636,3.386 7.652,3.386 7.669,3.386 C7.669,3.378 7.669,3.370 7.669,3.362 C7.685,3.362 7.701,3.362 7.717,3.362 C7.717,3.354 7.717,3.346 7.717,3.338 C7.766,3.322 7.815,3.305 7.863,3.289 C7.863,3.281 7.863,3.273 7.863,3.265 C7.904,3.257 7.944,3.248 7.985,3.240 C7.985,3.232 7.985,3.224 7.985,3.216 C8.001,3.216 8.017,3.216 8.034,3.216 C8.034,3.208 8.034,3.200 8.034,3.192 C8.058,3.192 8.082,3.192 8.106,3.192 C8.106,3.183 8.106,3.175 8.106,3.167 C8.123,3.167 8.139,3.167 8.155,3.167 C8.155,3.159 8.155,3.151 8.155,3.143 C8.204,3.135 8.252,3.127 8.301,3.118 C8.301,3.110 8.301,3.102 8.301,3.094 C8.325,3.094 8.350,3.094 8.374,3.094 C8.374,3.086 8.374,3.078 8.374,3.070 C8.398,3.070 8.423,3.070 8.447,3.070 C8.447,3.062 8.447,3.054 8.447,3.045 C8.471,3.045 8.496,3.045 8.520,3.045 C8.520,3.037 8.520,3.029 8.520,3.021 C8.577,3.013 8.634,3.005 8.690,2.997 C8.690,2.989 8.690,2.980 8.690,2.972 C8.723,2.972 8.755,2.972 8.788,2.972 C8.788,2.964 8.788,2.956 8.788,2.948 C8.828,2.948 8.869,2.948 8.909,2.948 C8.909,2.940 8.909,2.932 8.909,2.924 C8.950,2.924 8.990,2.924 9.031,2.924 C9.031,2.915 9.031,2.907 9.031,2.899 C9.071,2.899 9.112,2.899 9.153,2.899 C9.153,2.891 9.153,2.883 9.153,2.875 C9.290,2.867 9.428,2.859 9.566,2.850 C9.735,2.803 10.014,2.826 10.223,2.826 C10.637,2.826 11.050,2.826 11.464,2.826 C12.380,2.826 13.297,2.826 14.213,2.826 C14.213,1.884 14.213,0.942 14.213,-0.000 ZM18.543,2.826 C21.243,2.826 23.944,2.826 26.644,2.826 C27.139,2.826 27.634,2.826 28.128,2.826 C28.372,2.834 28.615,2.842 28.858,2.850 C28.988,2.899 29.118,2.948 29.247,2.997 C29.247,3.005 29.247,3.013 29.247,3.021 C29.272,3.029 29.296,3.037 29.320,3.045 C29.328,3.062 29.337,3.078 29.345,3.094 C29.361,3.094 29.377,3.094 29.393,3.094 C29.410,3.118 29.426,3.143 29.442,3.167 C29.458,3.167 29.474,3.167 29.491,3.167 C29.523,3.208 29.556,3.248 29.588,3.289 C29.604,3.297 29.620,3.305 29.637,3.313 C29.637,3.330 29.637,3.346 29.637,3.362 C29.661,3.378 29.685,3.395 29.710,3.411 C29.710,3.427 29.710,3.443 29.710,3.460 C29.726,3.468 29.742,3.476 29.758,3.484 C29.766,3.516 29.774,3.549 29.783,3.581 C29.791,3.581 29.799,3.581 29.807,3.581 C29.823,3.630 29.839,3.679 29.856,3.728 C29.864,3.728 29.872,3.728 29.880,3.728 C29.896,3.825 29.912,3.922 29.929,4.020 C29.937,4.020 29.945,4.020 29.953,4.020 C29.953,4.970 29.953,5.920 29.953,6.870 C29.953,9.769 29.953,12.669 29.953,15.568 C29.953,16.201 29.953,16.835 29.953,17.468 C29.953,17.725 29.998,18.138 29.929,18.346 C29.920,18.346 29.912,18.346 29.904,18.346 C29.888,18.419 29.872,18.492 29.856,18.565 C29.847,18.565 29.839,18.565 29.831,18.565 C29.823,18.597 29.815,18.630 29.807,18.662 C29.799,18.662 29.791,18.662 29.783,18.662 C29.783,18.678 29.783,18.695 29.783,18.711 C29.774,18.711 29.766,18.711 29.758,18.711 C29.750,18.735 29.742,18.760 29.734,18.784 C29.718,18.792 29.701,18.800 29.685,18.808 C29.685,18.825 29.685,18.841 29.685,18.857 C29.620,18.914 29.556,18.971 29.491,19.028 C29.466,19.060 29.442,19.093 29.418,19.125 C29.401,19.125 29.385,19.125 29.369,19.125 C29.361,19.141 29.353,19.158 29.345,19.174 C29.328,19.174 29.312,19.174 29.296,19.174 C29.288,19.190 29.280,19.206 29.272,19.223 C29.255,19.223 29.239,19.223 29.223,19.223 C29.223,19.231 29.223,19.239 29.223,19.247 C29.191,19.255 29.158,19.263 29.126,19.271 C29.126,19.279 29.126,19.288 29.126,19.296 C29.101,19.296 29.077,19.296 29.053,19.296 C29.053,19.304 29.053,19.312 29.053,19.320 C29.037,19.320 29.020,19.320 29.004,19.320 C29.004,19.328 29.004,19.336 29.004,19.344 C28.939,19.353 28.874,19.361 28.809,19.369 C28.809,19.377 28.809,19.385 28.809,19.393 C28.728,19.393 28.647,19.393 28.566,19.393 C28.384,19.444 28.085,19.417 27.861,19.417 C27.407,19.417 26.952,19.417 26.498,19.417 C24.406,19.417 22.314,19.417 20.222,19.417 C19.881,19.417 19.541,19.417 19.200,19.417 C19.026,19.417 18.799,19.431 18.665,19.393 C18.592,19.393 18.519,19.393 18.446,19.393 C18.446,19.385 18.446,19.377 18.446,19.369 C18.381,19.361 18.316,19.353 18.251,19.344 C18.251,19.336 18.251,19.328 18.251,19.320 C18.227,19.320 18.203,19.320 18.178,19.320 C18.178,19.312 18.178,19.304 18.178,19.296 C18.130,19.279 18.081,19.263 18.032,19.247 C18.032,19.239 18.032,19.231 18.032,19.223 C18.000,19.214 17.967,19.206 17.935,19.198 C17.927,19.182 17.919,19.166 17.911,19.150 C17.894,19.150 17.878,19.150 17.862,19.150 C17.830,19.109 17.797,19.068 17.765,19.028 C17.748,19.028 17.732,19.028 17.716,19.028 C17.716,19.020 17.716,19.011 17.716,19.003 C17.692,18.987 17.667,18.971 17.643,18.955 C17.643,18.938 17.643,18.922 17.643,18.906 C17.611,18.882 17.578,18.857 17.546,18.833 C17.546,18.817 17.546,18.800 17.546,18.784 C17.529,18.776 17.513,18.768 17.497,18.760 C17.489,18.727 17.481,18.695 17.473,18.662 C17.456,18.654 17.440,18.646 17.424,18.638 C17.261,18.330 17.302,17.790 17.302,17.322 C17.302,16.437 17.302,15.552 17.302,14.667 C17.302,12.093 17.302,9.518 17.302,6.944 C17.302,6.229 17.302,5.514 17.302,4.800 C17.302,4.386 17.272,3.941 17.400,3.654 C17.408,3.654 17.416,3.654 17.424,3.654 C17.440,3.606 17.456,3.557 17.473,3.508 C17.489,3.500 17.505,3.492 17.521,3.484 C17.521,3.468 17.521,3.451 17.521,3.435 C17.546,3.419 17.570,3.403 17.594,3.386 C17.594,3.370 17.594,3.354 17.594,3.338 C17.643,3.297 17.692,3.257 17.740,3.216 C17.757,3.192 17.773,3.167 17.789,3.143 C17.805,3.143 17.821,3.143 17.838,3.143 C17.854,3.118 17.870,3.094 17.886,3.070 C17.902,3.070 17.919,3.070 17.935,3.070 C17.943,3.054 17.951,3.037 17.959,3.021 C18.008,3.005 18.057,2.989 18.105,2.972 C18.105,2.964 18.105,2.956 18.105,2.948 C18.121,2.948 18.138,2.948 18.154,2.948 C18.154,2.940 18.154,2.932 18.154,2.924 C18.178,2.924 18.203,2.924 18.227,2.924 C18.227,2.915 18.227,2.907 18.227,2.899 C18.251,2.899 18.276,2.899 18.300,2.899 C18.300,2.891 18.300,2.883 18.300,2.875 C18.332,2.875 18.365,2.875 18.397,2.875 C18.397,2.867 18.397,2.859 18.397,2.850 C18.446,2.850 18.494,2.850 18.543,2.850 C18.543,2.842 18.543,2.834 18.543,2.826 ZM18.738,3.776 C18.738,3.784 18.738,3.793 18.738,3.801 C18.697,3.801 18.657,3.801 18.616,3.801 C18.616,3.809 18.616,3.817 18.616,3.825 C18.505,3.877 18.406,3.892 18.373,4.020 C18.251,4.130 18.300,4.680 18.300,4.921 C18.300,5.782 18.300,6.643 18.300,7.504 C18.300,9.907 18.300,12.312 18.300,14.715 C18.300,15.462 18.300,16.210 18.300,16.957 C18.300,17.379 18.300,17.801 18.300,18.224 C18.317,18.278 18.358,18.326 18.373,18.394 C18.405,18.419 18.438,18.443 18.470,18.467 C18.470,18.475 18.470,18.484 18.470,18.492 C18.486,18.492 18.503,18.492 18.519,18.492 C18.527,18.508 18.535,18.524 18.543,18.540 C18.600,18.549 18.657,18.557 18.713,18.565 C18.713,18.573 18.713,18.581 18.713,18.589 C19.411,18.589 20.108,18.589 20.806,18.589 C22.646,18.589 24.487,18.589 26.328,18.589 C26.839,18.589 27.350,18.589 27.861,18.589 C28.077,18.589 28.393,18.634 28.566,18.565 C28.566,18.557 28.566,18.549 28.566,18.540 C28.599,18.532 28.631,18.524 28.663,18.516 C28.672,18.500 28.680,18.484 28.688,18.467 C28.712,18.459 28.736,18.451 28.761,18.443 C28.802,18.391 28.807,18.318 28.858,18.272 C28.916,17.022 28.882,15.665 28.882,14.374 C28.882,12.157 28.882,9.940 28.882,7.723 C28.882,6.879 28.882,6.034 28.882,5.189 C28.882,4.917 28.927,4.404 28.858,4.190 C28.858,4.158 28.858,4.126 28.858,4.093 C28.850,4.093 28.842,4.093 28.834,4.093 C28.826,4.061 28.818,4.028 28.809,3.996 C28.769,3.963 28.728,3.931 28.688,3.898 C28.680,3.882 28.672,3.866 28.663,3.849 C28.623,3.821 28.608,3.849 28.566,3.801 C25.338,3.762 22.006,3.777 18.738,3.776 ZM14.213,9.307 C14.213,7.585 14.213,5.863 14.213,4.142 C12.696,4.142 11.180,4.142 9.663,4.142 C9.663,4.150 9.663,4.158 9.663,4.166 C9.615,4.166 9.566,4.166 9.518,4.166 C9.518,4.174 9.518,4.182 9.518,4.190 C9.477,4.190 9.436,4.190 9.396,4.190 C9.396,4.199 9.396,4.207 9.396,4.215 C9.363,4.215 9.331,4.215 9.299,4.215 C9.299,4.223 9.299,4.231 9.299,4.239 C9.266,4.239 9.234,4.239 9.201,4.239 C9.201,4.247 9.201,4.255 9.201,4.264 C9.177,4.264 9.153,4.264 9.128,4.264 C9.128,4.272 9.128,4.280 9.128,4.288 C9.104,4.288 9.080,4.288 9.055,4.288 C9.055,4.296 9.055,4.304 9.055,4.312 C9.031,4.312 9.007,4.312 8.982,4.312 C8.982,4.320 8.982,4.329 8.982,4.337 C8.958,4.337 8.934,4.337 8.909,4.337 C8.909,4.345 8.909,4.353 8.909,4.361 C8.861,4.369 8.812,4.377 8.763,4.385 C8.763,4.394 8.763,4.402 8.763,4.410 C8.731,4.418 8.698,4.426 8.666,4.434 C8.666,4.442 8.666,4.450 8.666,4.458 C8.642,4.458 8.617,4.458 8.593,4.458 C8.593,4.467 8.593,4.475 8.593,4.483 C8.544,4.499 8.496,4.515 8.447,4.532 C8.447,4.540 8.447,4.548 8.447,4.556 C8.431,4.556 8.415,4.556 8.398,4.556 C8.398,4.564 8.398,4.572 8.398,4.580 C8.382,4.580 8.366,4.580 8.350,4.580 C8.350,4.588 8.350,4.597 8.350,4.605 C8.334,4.605 8.317,4.605 8.301,4.605 C8.301,4.613 8.301,4.621 8.301,4.629 C8.285,4.629 8.269,4.629 8.252,4.629 C8.252,4.637 8.252,4.645 8.252,4.653 C8.236,4.653 8.220,4.653 8.204,4.653 C8.204,4.661 8.204,4.670 8.204,4.678 C8.188,4.678 8.171,4.678 8.155,4.678 C8.155,4.686 8.155,4.694 8.155,4.702 C8.139,4.702 8.123,4.702 8.106,4.702 C8.098,4.718 8.090,4.735 8.082,4.751 C8.050,4.759 8.017,4.767 7.985,4.775 C7.977,4.791 7.969,4.808 7.961,4.824 C7.944,4.824 7.928,4.824 7.912,4.824 C7.904,4.840 7.896,4.856 7.888,4.873 C7.871,4.873 7.855,4.873 7.839,4.873 C7.839,4.881 7.839,4.889 7.839,4.897 C7.815,4.905 7.790,4.913 7.766,4.921 C7.758,4.938 7.750,4.954 7.742,4.970 C7.725,4.970 7.709,4.970 7.693,4.970 C7.677,4.994 7.660,5.019 7.644,5.043 C7.628,5.043 7.612,5.043 7.596,5.043 C7.579,5.068 7.563,5.092 7.547,5.116 C7.531,5.116 7.515,5.116 7.498,5.116 C7.474,5.149 7.450,5.181 7.425,5.214 C7.409,5.214 7.393,5.214 7.377,5.214 C7.336,5.262 7.296,5.311 7.255,5.360 C7.174,5.433 7.093,5.506 7.012,5.579 C7.012,5.595 7.012,5.612 7.012,5.628 C6.979,5.652 6.947,5.677 6.914,5.701 C6.906,5.725 6.898,5.750 6.890,5.774 C6.874,5.782 6.858,5.790 6.841,5.798 C6.833,5.831 6.825,5.863 6.817,5.896 C6.801,5.904 6.785,5.912 6.768,5.920 C6.760,5.953 6.752,5.985 6.744,6.018 C6.736,6.018 6.728,6.018 6.720,6.018 C6.704,6.066 6.687,6.115 6.671,6.164 C6.663,6.164 6.655,6.164 6.647,6.164 C6.631,6.245 6.614,6.326 6.598,6.408 C6.590,6.408 6.582,6.408 6.574,6.408 C6.574,6.432 6.574,6.456 6.574,6.481 C6.566,6.481 6.558,6.481 6.550,6.481 C6.550,6.505 6.550,6.529 6.550,6.554 C6.541,6.554 6.533,6.554 6.525,6.554 C6.509,6.635 6.493,6.716 6.477,6.797 C6.468,6.797 6.460,6.797 6.452,6.797 C6.452,6.830 6.452,6.862 6.452,6.895 C6.444,6.895 6.436,6.895 6.428,6.895 C6.428,6.919 6.428,6.944 6.428,6.968 C6.420,6.968 6.412,6.968 6.404,6.968 C6.404,7.000 6.404,7.033 6.404,7.065 C6.208,7.610 6.064,8.226 5.868,8.771 C5.868,8.803 5.868,8.836 5.868,8.868 C5.860,8.868 5.852,8.868 5.844,8.868 C5.844,8.893 5.844,8.917 5.844,8.941 C5.836,8.941 5.828,8.941 5.820,8.941 C5.820,8.966 5.820,8.990 5.820,9.014 C5.812,9.014 5.803,9.014 5.795,9.014 C5.795,9.047 5.795,9.079 5.795,9.112 C5.787,9.112 5.779,9.112 5.771,9.112 C5.746,9.179 5.746,9.247 5.722,9.307 C8.552,9.307 11.383,9.307 14.213,9.307 ZM20.076,5.579 C21.916,5.579 23.758,5.579 25.598,5.579 C26.085,5.579 26.571,5.579 27.058,5.579 C27.058,5.587 27.058,5.595 27.058,5.604 C27.082,5.604 27.107,5.604 27.131,5.604 C27.131,5.612 27.131,5.620 27.131,5.628 C27.147,5.628 27.163,5.628 27.179,5.628 C27.179,5.636 27.179,5.644 27.179,5.652 C27.196,5.652 27.212,5.652 27.228,5.652 C27.277,5.693 27.325,5.733 27.374,5.774 C27.374,5.790 27.374,5.807 27.374,5.823 C27.390,5.831 27.407,5.839 27.423,5.847 C27.453,5.896 27.504,6.136 27.471,6.237 C27.454,6.291 27.413,6.340 27.398,6.408 C27.358,6.440 27.317,6.473 27.277,6.505 C27.277,6.513 27.277,6.521 27.277,6.529 C27.261,6.529 27.244,6.529 27.228,6.529 C27.220,6.546 27.212,6.562 27.204,6.578 C27.188,6.578 27.171,6.578 27.155,6.578 C27.155,6.586 27.155,6.594 27.155,6.602 C27.131,6.602 27.107,6.602 27.082,6.602 C27.082,6.611 27.082,6.619 27.082,6.627 C26.547,6.627 26.012,6.627 25.477,6.627 C24.220,6.627 22.963,6.627 21.706,6.627 C21.292,6.627 20.879,6.627 20.465,6.627 C20.243,6.627 20.014,6.643 19.881,6.554 C19.865,6.529 19.849,6.505 19.832,6.481 C19.800,6.456 19.768,6.432 19.735,6.408 C19.735,6.391 19.735,6.375 19.735,6.359 C19.727,6.359 19.719,6.359 19.711,6.359 C19.711,6.343 19.711,6.326 19.711,6.310 C19.703,6.310 19.695,6.310 19.687,6.310 C19.668,6.266 19.639,6.041 19.662,5.969 C19.670,5.969 19.678,5.969 19.687,5.969 C19.695,5.928 19.703,5.888 19.711,5.847 C19.727,5.839 19.743,5.831 19.760,5.823 C19.760,5.807 19.760,5.790 19.760,5.774 C19.808,5.733 19.857,5.693 19.905,5.652 C19.922,5.652 19.938,5.652 19.954,5.652 C19.954,5.644 19.954,5.636 19.954,5.628 C19.970,5.628 19.987,5.628 20.003,5.628 C20.003,5.620 20.003,5.612 20.003,5.604 C20.027,5.604 20.051,5.604 20.076,5.604 C20.076,5.595 20.076,5.587 20.076,5.579 ZM20.076,8.551 C21.997,8.551 23.920,8.551 25.841,8.551 C26.247,8.551 26.652,8.551 27.058,8.551 C27.058,8.560 27.058,8.568 27.058,8.576 C27.082,8.576 27.107,8.576 27.131,8.576 C27.131,8.584 27.131,8.592 27.131,8.600 C27.147,8.600 27.163,8.600 27.179,8.600 C27.244,8.649 27.309,8.698 27.374,8.746 C27.374,8.763 27.374,8.779 27.374,8.795 C27.390,8.803 27.407,8.811 27.423,8.819 C27.453,8.868 27.504,9.109 27.471,9.209 C27.463,9.209 27.455,9.209 27.447,9.209 C27.447,9.234 27.447,9.258 27.447,9.282 C27.439,9.282 27.431,9.282 27.423,9.282 C27.415,9.315 27.407,9.347 27.398,9.380 C27.382,9.388 27.366,9.396 27.350,9.404 C27.317,9.445 27.285,9.485 27.252,9.526 C27.220,9.534 27.188,9.542 27.155,9.550 C27.155,9.559 27.155,9.567 27.155,9.575 C27.038,9.626 26.825,9.599 26.669,9.599 C26.304,9.599 25.939,9.599 25.574,9.599 C24.204,9.599 22.833,9.599 21.462,9.599 C21.114,9.599 20.765,9.599 20.416,9.599 C20.207,9.599 20.006,9.610 19.881,9.526 C19.865,9.502 19.849,9.477 19.832,9.453 C19.800,9.429 19.768,9.404 19.735,9.380 C19.735,9.364 19.735,9.347 19.735,9.331 C19.727,9.331 19.719,9.331 19.711,9.331 C19.711,9.315 19.711,9.299 19.711,9.282 C19.703,9.282 19.695,9.282 19.687,9.282 C19.668,9.238 19.639,9.013 19.662,8.941 C19.670,8.941 19.678,8.941 19.687,8.941 C19.695,8.901 19.703,8.860 19.711,8.819 C19.727,8.811 19.743,8.803 19.760,8.795 C19.760,8.779 19.760,8.763 19.760,8.746 C19.808,8.706 19.857,8.665 19.905,8.625 C19.922,8.625 19.938,8.625 19.954,8.625 C19.954,8.616 19.954,8.608 19.954,8.600 C19.970,8.600 19.987,8.600 20.003,8.600 C20.003,8.592 20.003,8.584 20.003,8.576 C20.027,8.576 20.051,8.576 20.076,8.576 C20.076,8.568 20.076,8.560 20.076,8.551 ZM14.213,17.956 C14.213,15.544 14.213,13.132 14.213,10.720 C11.610,10.720 9.006,10.720 6.404,10.720 C5.787,10.720 5.171,10.720 4.555,10.720 C3.916,10.720 3.317,10.718 2.876,10.915 C2.876,10.923 2.876,10.931 2.876,10.939 C2.844,10.947 2.811,10.955 2.779,10.963 C2.779,10.972 2.779,10.980 2.779,10.988 C2.730,11.004 2.681,11.020 2.633,11.037 C2.625,11.053 2.617,11.069 2.608,11.085 C2.592,11.085 2.576,11.085 2.560,11.085 C2.552,11.102 2.544,11.118 2.535,11.134 C2.519,11.134 2.503,11.134 2.487,11.134 C2.462,11.166 2.438,11.199 2.414,11.231 C2.398,11.231 2.381,11.231 2.365,11.231 C2.333,11.272 2.300,11.313 2.268,11.353 C2.252,11.361 2.235,11.370 2.219,11.378 C2.219,11.394 2.219,11.410 2.219,11.426 C2.187,11.451 2.154,11.475 2.122,11.499 C2.122,11.516 2.122,11.532 2.122,11.548 C2.106,11.556 2.089,11.564 2.073,11.573 C2.065,11.597 2.057,11.621 2.049,11.646 C2.041,11.646 2.033,11.646 2.025,11.646 C2.016,11.678 2.008,11.711 2.000,11.743 C1.984,11.751 1.968,11.759 1.952,11.767 C1.879,11.970 1.806,12.174 1.733,12.377 C1.724,12.466 1.716,12.555 1.708,12.645 C1.603,13.011 1.660,13.632 1.660,14.082 C1.660,14.447 1.660,14.813 1.660,15.178 C1.660,15.367 1.642,15.615 1.684,15.763 C1.692,15.877 1.700,15.990 1.708,16.104 C1.716,16.104 1.724,16.104 1.733,16.104 C1.733,16.137 1.733,16.169 1.733,16.202 C1.741,16.202 1.749,16.202 1.757,16.202 C1.757,16.234 1.757,16.267 1.757,16.299 C1.765,16.299 1.773,16.299 1.781,16.299 C1.781,16.323 1.781,16.348 1.781,16.372 C1.789,16.372 1.797,16.372 1.806,16.372 C1.806,16.396 1.806,16.421 1.806,16.445 C1.814,16.445 1.822,16.445 1.830,16.445 C1.830,16.470 1.830,16.494 1.830,16.518 C1.838,16.518 1.846,16.518 1.854,16.518 C1.870,16.567 1.887,16.616 1.903,16.664 C1.911,16.664 1.919,16.664 1.927,16.664 C1.927,16.681 1.927,16.697 1.927,16.713 C1.935,16.713 1.943,16.713 1.952,16.713 C1.952,16.729 1.952,16.746 1.952,16.762 C1.960,16.762 1.968,16.762 1.976,16.762 C1.984,16.794 1.992,16.827 2.000,16.859 C2.016,16.867 2.033,16.876 2.049,16.884 C2.049,16.900 2.049,16.916 2.049,16.932 C2.065,16.941 2.081,16.949 2.098,16.957 C2.098,16.973 2.098,16.989 2.098,17.006 C2.122,17.022 2.146,17.038 2.170,17.054 C2.170,17.071 2.170,17.087 2.170,17.103 C2.235,17.160 2.300,17.217 2.365,17.274 C2.414,17.330 2.462,17.387 2.511,17.444 C2.527,17.444 2.544,17.444 2.560,17.444 C2.576,17.468 2.592,17.493 2.608,17.517 C2.625,17.517 2.641,17.517 2.657,17.517 C2.665,17.533 2.673,17.550 2.681,17.566 C2.698,17.566 2.714,17.566 2.730,17.566 C2.738,17.582 2.746,17.598 2.754,17.615 C2.803,17.631 2.852,17.647 2.900,17.663 C2.900,17.671 2.900,17.680 2.900,17.688 C2.917,17.688 2.933,17.688 2.949,17.688 C2.949,17.696 2.949,17.704 2.949,17.712 C2.998,17.728 3.046,17.745 3.095,17.761 C3.095,17.769 3.095,17.777 3.095,17.785 C3.119,17.785 3.144,17.785 3.168,17.785 C3.168,17.793 3.168,17.801 3.168,17.810 C3.192,17.810 3.217,17.810 3.241,17.810 C3.241,17.818 3.241,17.826 3.241,17.834 C3.265,17.834 3.290,17.834 3.314,17.834 C3.314,17.842 3.314,17.850 3.314,17.858 C3.338,17.858 3.363,17.858 3.387,17.858 C3.387,17.866 3.387,17.874 3.387,17.883 C3.468,17.891 3.549,17.899 3.630,17.907 C3.630,17.915 3.630,17.923 3.630,17.931 C3.922,17.939 4.214,17.948 4.506,17.956 C5.106,17.956 5.706,17.956 6.306,17.956 C8.941,17.956 11.578,17.956 14.213,17.956 ZM19.808,12.157 C19.793,12.103 19.788,12.097 19.760,12.060 C19.751,12.060 19.743,12.060 19.735,12.060 C19.735,12.044 19.735,12.027 19.735,12.011 C19.727,12.011 19.719,12.011 19.711,12.011 C19.711,11.995 19.711,11.979 19.711,11.962 C19.703,11.962 19.695,11.962 19.687,11.962 C19.687,11.938 19.687,11.914 19.687,11.889 C19.678,11.889 19.670,11.889 19.662,11.889 C19.612,11.731 19.751,11.423 19.808,11.378 C19.824,11.378 19.841,11.378 19.857,11.378 C19.873,11.353 19.889,11.329 19.905,11.305 C20.067,11.201 20.444,11.231 20.708,11.231 C21.130,11.231 21.552,11.231 21.973,11.231 C22.290,11.231 22.606,11.231 22.922,11.231 C23.081,11.231 23.307,11.226 23.409,11.280 C23.417,11.296 23.425,11.313 23.433,11.329 C23.449,11.329 23.465,11.329 23.482,11.329 C23.490,11.345 23.498,11.361 23.506,11.378 C23.547,11.410 23.587,11.443 23.628,11.475 C23.636,11.508 23.644,11.540 23.652,11.573 C23.660,11.573 23.668,11.573 23.676,11.573 C23.676,11.597 23.676,11.621 23.676,11.646 C23.684,11.646 23.693,11.646 23.701,11.646 C23.733,11.747 23.680,11.958 23.652,12.011 C23.644,12.011 23.636,12.011 23.628,12.011 C23.465,12.298 23.244,12.303 22.800,12.303 C21.917,12.303 21.033,12.303 20.149,12.303 C20.149,12.295 20.149,12.287 20.149,12.279 C20.084,12.271 20.019,12.263 19.954,12.255 C19.954,12.247 19.954,12.238 19.954,12.230 C19.938,12.230 19.922,12.230 19.905,12.230 C19.905,12.222 19.905,12.214 19.905,12.206 C19.868,12.178 19.863,12.172 19.808,12.157 ZM6.306,12.888 C6.980,12.878 7.395,13.085 7.669,13.473 C7.693,13.489 7.717,13.505 7.742,13.522 C7.742,13.538 7.742,13.554 7.742,13.570 C7.758,13.578 7.774,13.587 7.790,13.595 C7.790,13.611 7.790,13.627 7.790,13.643 C7.798,13.643 7.806,13.643 7.815,13.643 C7.815,13.660 7.815,13.676 7.815,13.692 C7.823,13.692 7.831,13.692 7.839,13.692 C7.839,13.708 7.839,13.725 7.839,13.741 C7.847,13.741 7.855,13.741 7.863,13.741 C7.863,13.757 7.863,13.773 7.863,13.790 C7.983,14.020 8.036,14.390 7.936,14.691 C7.928,14.748 7.920,14.805 7.912,14.862 C7.904,14.862 7.896,14.862 7.888,14.862 C7.871,14.910 7.855,14.959 7.839,15.008 C7.831,15.008 7.823,15.008 7.815,15.008 C7.806,15.040 7.798,15.073 7.790,15.105 C7.774,15.113 7.758,15.121 7.742,15.130 C7.742,15.146 7.742,15.162 7.742,15.178 C7.725,15.186 7.709,15.195 7.693,15.203 C7.693,15.219 7.693,15.235 7.693,15.251 C7.636,15.300 7.579,15.349 7.523,15.398 C7.498,15.430 7.474,15.463 7.450,15.495 C7.433,15.495 7.417,15.495 7.401,15.495 C7.385,15.519 7.369,15.544 7.352,15.568 C7.320,15.576 7.287,15.584 7.255,15.592 C7.247,15.609 7.239,15.625 7.231,15.641 C7.214,15.641 7.198,15.641 7.182,15.641 C7.182,15.649 7.182,15.657 7.182,15.666 C7.166,15.666 7.150,15.666 7.133,15.666 C7.133,15.674 7.133,15.682 7.133,15.690 C6.987,15.731 6.841,15.771 6.695,15.812 C6.533,15.858 6.090,15.778 5.990,15.739 C5.990,15.731 5.990,15.722 5.990,15.714 C5.966,15.714 5.941,15.714 5.917,15.714 C5.917,15.706 5.917,15.698 5.917,15.690 C5.868,15.674 5.820,15.657 5.771,15.641 C5.771,15.633 5.771,15.625 5.771,15.617 C5.739,15.609 5.706,15.601 5.674,15.592 C5.666,15.576 5.657,15.560 5.649,15.544 C5.633,15.544 5.617,15.544 5.601,15.544 C5.585,15.519 5.568,15.495 5.552,15.471 C5.536,15.471 5.520,15.471 5.503,15.471 C5.463,15.422 5.422,15.373 5.382,15.324 C5.366,15.316 5.349,15.308 5.333,15.300 C5.333,15.284 5.333,15.268 5.333,15.251 C5.309,15.235 5.284,15.219 5.260,15.203 C5.260,15.186 5.260,15.170 5.260,15.154 C5.244,15.146 5.228,15.138 5.211,15.130 C5.211,15.113 5.211,15.097 5.211,15.081 C5.195,15.073 5.179,15.065 5.163,15.056 C5.163,15.040 5.163,15.024 5.163,15.008 C5.155,15.008 5.147,15.008 5.138,15.008 C5.138,14.992 5.138,14.975 5.138,14.959 C5.130,14.959 5.122,14.959 5.114,14.959 C5.114,14.935 5.114,14.910 5.114,14.886 C5.106,14.886 5.098,14.886 5.090,14.886 C5.090,14.870 5.090,14.853 5.090,14.837 C5.082,14.837 5.074,14.837 5.066,14.837 C5.057,14.780 5.049,14.724 5.041,14.667 C5.009,14.565 4.947,14.337 4.993,14.179 C5.001,14.179 5.009,14.179 5.017,14.179 C5.017,14.131 5.017,14.082 5.017,14.033 C5.025,14.033 5.033,14.033 5.041,14.033 C5.041,14.001 5.041,13.968 5.041,13.936 C5.049,13.936 5.057,13.936 5.066,13.936 C5.066,13.911 5.066,13.887 5.066,13.863 C5.074,13.863 5.082,13.863 5.090,13.863 C5.090,13.846 5.090,13.830 5.090,13.814 C5.098,13.814 5.106,13.814 5.114,13.814 C5.114,13.790 5.114,13.765 5.114,13.741 C5.122,13.741 5.130,13.741 5.138,13.741 C5.138,13.725 5.138,13.708 5.138,13.692 C5.155,13.684 5.171,13.676 5.187,13.668 C5.195,13.635 5.203,13.603 5.211,13.570 C5.228,13.562 5.244,13.554 5.260,13.546 C5.260,13.530 5.260,13.513 5.260,13.497 C5.293,13.473 5.325,13.449 5.357,13.424 C5.357,13.408 5.357,13.392 5.357,13.375 C5.374,13.367 5.390,13.359 5.406,13.351 C5.430,13.319 5.455,13.286 5.479,13.254 C5.495,13.254 5.512,13.254 5.528,13.254 C5.544,13.229 5.560,13.205 5.576,13.181 C5.593,13.181 5.609,13.181 5.625,13.181 C5.633,13.164 5.641,13.148 5.649,13.132 C5.666,13.132 5.682,13.132 5.698,13.132 C5.706,13.116 5.714,13.099 5.722,13.083 C5.739,13.083 5.755,13.083 5.771,13.083 C5.771,13.075 5.771,13.067 5.771,13.059 C5.787,13.059 5.803,13.059 5.820,13.059 C5.820,13.051 5.820,13.042 5.820,13.034 C5.836,13.034 5.852,13.034 5.868,13.034 C5.868,13.026 5.868,13.018 5.868,13.010 C6.014,12.969 6.160,12.929 6.306,12.888 Z"/>
</svg>