<svg 
 xmlns="http://www.w3.org/2000/svg"
 xmlns:xlink="http://www.w3.org/1999/xlink"
 width="25px" height="29px">
<path fill-rule="evenodd"  fill="rgb(255, 255, 255)"
 d="M0.016,22.664 C0.016,17.804 0.016,12.943 0.016,8.083 C0.016,6.818 0.016,5.553 0.016,4.288 C0.016,3.958 -0.034,3.387 0.042,3.118 C0.042,3.058 0.042,2.997 0.042,2.936 C0.051,2.936 0.060,2.936 0.068,2.936 C0.068,2.902 0.068,2.867 0.068,2.832 C0.077,2.832 0.086,2.832 0.094,2.832 C0.094,2.798 0.094,2.763 0.094,2.728 C0.103,2.728 0.112,2.728 0.120,2.728 C0.120,2.702 0.120,2.676 0.120,2.650 C0.129,2.650 0.138,2.650 0.146,2.650 C0.146,2.625 0.146,2.599 0.146,2.573 C0.155,2.573 0.164,2.573 0.172,2.573 C0.181,2.538 0.190,2.503 0.198,2.469 C0.207,2.469 0.216,2.469 0.224,2.469 C0.233,2.425 0.242,2.382 0.250,2.339 C0.268,2.330 0.285,2.321 0.302,2.313 C0.311,2.278 0.320,2.243 0.328,2.209 C0.337,2.209 0.346,2.209 0.354,2.209 C0.363,2.183 0.372,2.157 0.380,2.131 C0.398,2.122 0.415,2.113 0.432,2.105 C0.432,2.087 0.432,2.070 0.432,2.053 C0.458,2.035 0.484,2.018 0.510,2.001 C0.510,1.983 0.510,1.966 0.510,1.949 C0.571,1.897 0.632,1.845 0.692,1.793 C0.753,1.723 0.814,1.654 0.874,1.585 C0.892,1.585 0.909,1.585 0.926,1.585 C0.943,1.559 0.961,1.533 0.978,1.507 C0.995,1.507 1.013,1.507 1.030,1.507 C1.039,1.490 1.047,1.472 1.056,1.455 C1.073,1.455 1.091,1.455 1.108,1.455 C1.117,1.438 1.125,1.420 1.134,1.403 C1.169,1.394 1.203,1.386 1.238,1.377 C1.247,1.360 1.255,1.342 1.264,1.325 C1.463,1.247 1.663,1.169 1.862,1.091 C1.949,1.082 2.035,1.074 2.122,1.065 C2.401,0.984 2.831,1.013 3.188,1.013 C4.020,1.013 4.852,1.013 5.684,1.013 C9.964,1.013 14.246,1.013 18.527,1.013 C19.532,1.013 20.537,1.013 21.542,1.013 C21.980,1.013 22.540,0.961 22.894,1.065 C22.946,1.065 22.998,1.065 23.050,1.065 C23.284,1.152 23.518,1.238 23.752,1.325 C23.761,1.342 23.769,1.360 23.778,1.377 C23.813,1.386 23.847,1.394 23.882,1.403 C23.891,1.420 23.899,1.438 23.908,1.455 C23.925,1.455 23.943,1.455 23.960,1.455 C23.969,1.472 23.977,1.490 23.986,1.507 C24.003,1.507 24.021,1.507 24.038,1.507 C24.055,1.533 24.073,1.559 24.090,1.585 C24.107,1.585 24.125,1.585 24.142,1.585 C24.194,1.645 24.246,1.706 24.298,1.767 C24.367,1.827 24.437,1.888 24.506,1.949 C24.506,1.966 24.506,1.983 24.506,2.001 C24.532,2.018 24.558,2.035 24.584,2.053 C24.584,2.070 24.584,2.087 24.584,2.105 C24.601,2.113 24.619,2.122 24.636,2.131 C24.645,2.157 24.653,2.183 24.662,2.209 C24.671,2.209 24.679,2.209 24.688,2.209 C24.697,2.243 24.705,2.278 24.714,2.313 C24.731,2.321 24.749,2.330 24.766,2.339 C24.775,2.382 24.783,2.425 24.792,2.469 C24.801,2.469 24.809,2.469 24.818,2.469 C24.827,2.503 24.835,2.538 24.844,2.573 C24.853,2.573 24.861,2.573 24.870,2.573 C24.870,2.599 24.870,2.625 24.870,2.650 C24.879,2.650 24.887,2.650 24.896,2.650 C24.896,2.676 24.896,2.702 24.896,2.728 C24.905,2.728 24.913,2.728 24.922,2.728 C24.922,2.763 24.922,2.798 24.922,2.832 C24.931,2.832 24.939,2.832 24.948,2.832 C24.948,2.867 24.948,2.902 24.948,2.936 C24.957,2.936 24.965,2.936 24.974,2.936 C24.974,2.997 24.974,3.058 24.974,3.118 C24.983,3.118 24.991,3.118 25.000,3.118 C25.000,3.543 25.000,3.967 25.000,4.392 C25.000,5.423 25.000,6.454 25.000,7.485 C25.000,12.120 25.000,16.756 25.000,21.391 C25.000,22.456 25.000,23.522 25.000,24.588 C25.000,25.021 25.000,25.454 25.000,25.887 C24.991,25.887 24.983,25.887 24.974,25.887 C24.974,25.948 24.974,26.009 24.974,26.069 C24.965,26.069 24.957,26.069 24.948,26.069 C24.948,26.104 24.948,26.139 24.948,26.173 C24.939,26.173 24.931,26.173 24.922,26.173 C24.922,26.208 24.922,26.243 24.922,26.277 C24.913,26.277 24.905,26.277 24.896,26.277 C24.896,26.303 24.896,26.329 24.896,26.355 C24.887,26.355 24.879,26.355 24.870,26.355 C24.870,26.381 24.870,26.407 24.870,26.433 C24.861,26.433 24.853,26.433 24.844,26.433 C24.835,26.468 24.827,26.502 24.818,26.537 C24.809,26.537 24.801,26.537 24.792,26.537 C24.783,26.580 24.775,26.624 24.766,26.667 C24.749,26.676 24.731,26.684 24.714,26.693 C24.705,26.728 24.697,26.762 24.688,26.797 C24.679,26.797 24.671,26.797 24.662,26.797 C24.653,26.823 24.645,26.849 24.636,26.875 C24.619,26.884 24.601,26.892 24.584,26.901 C24.584,26.918 24.584,26.936 24.584,26.953 C24.558,26.970 24.532,26.988 24.506,27.005 C24.506,27.022 24.506,27.040 24.506,27.057 C24.445,27.109 24.385,27.161 24.324,27.213 C24.263,27.282 24.203,27.352 24.142,27.421 C24.125,27.421 24.107,27.421 24.090,27.421 C24.073,27.447 24.055,27.473 24.038,27.499 C24.021,27.499 24.003,27.499 23.986,27.499 C23.977,27.516 23.969,27.533 23.960,27.551 C23.943,27.551 23.925,27.551 23.908,27.551 C23.899,27.568 23.891,27.585 23.882,27.603 C23.847,27.611 23.813,27.620 23.778,27.629 C23.769,27.646 23.761,27.663 23.752,27.681 C23.518,27.767 23.284,27.854 23.050,27.941 C22.998,27.941 22.946,27.941 22.894,27.941 C22.706,27.995 22.470,27.993 22.218,27.993 C21.742,27.993 21.265,27.993 20.788,27.993 C18.440,27.993 16.091,27.993 13.743,27.993 C11.802,27.993 9.861,27.993 7.920,27.993 C7.426,27.993 6.932,27.993 6.438,27.993 C6.315,27.993 5.954,28.021 5.892,27.967 C5.807,27.944 5.769,27.886 5.710,27.837 C5.710,27.828 5.710,27.819 5.710,27.811 C5.692,27.811 5.675,27.811 5.658,27.811 C5.588,27.733 5.519,27.655 5.450,27.577 C5.424,27.568 5.398,27.559 5.372,27.551 C5.311,27.482 5.250,27.412 5.190,27.343 C5.164,27.326 5.138,27.308 5.112,27.291 C5.112,27.282 5.112,27.274 5.112,27.265 C5.094,27.265 5.077,27.265 5.060,27.265 C4.982,27.178 4.904,27.092 4.826,27.005 C4.808,27.005 4.791,27.005 4.774,27.005 C4.687,26.910 4.600,26.814 4.514,26.719 C4.497,26.719 4.479,26.719 4.462,26.719 C4.384,26.632 4.306,26.546 4.228,26.459 C4.211,26.459 4.193,26.459 4.176,26.459 C4.098,26.373 4.020,26.286 3.942,26.199 C3.925,26.199 3.907,26.199 3.890,26.199 C3.803,26.104 3.717,26.009 3.630,25.913 C3.613,25.913 3.595,25.913 3.578,25.913 C3.500,25.827 3.422,25.740 3.344,25.653 C3.327,25.653 3.309,25.653 3.292,25.653 C3.231,25.584 3.171,25.515 3.110,25.445 C3.084,25.428 3.058,25.411 3.032,25.393 C3.032,25.385 3.032,25.376 3.032,25.367 C3.015,25.367 2.997,25.367 2.980,25.367 C2.902,25.281 2.824,25.194 2.746,25.108 C2.729,25.108 2.711,25.108 2.694,25.108 C2.633,25.038 2.573,24.969 2.512,24.900 C2.503,24.900 2.495,24.900 2.486,24.900 C2.477,24.882 2.469,24.865 2.460,24.848 C2.443,24.848 2.425,24.848 2.408,24.848 C2.321,24.752 2.235,24.657 2.148,24.562 C2.131,24.562 2.113,24.562 2.096,24.562 C2.018,24.475 1.940,24.388 1.862,24.302 C1.845,24.302 1.827,24.302 1.810,24.302 C1.749,24.233 1.689,24.163 1.628,24.094 C1.602,24.077 1.576,24.059 1.550,24.042 C1.550,24.033 1.550,24.025 1.550,24.016 C1.533,24.016 1.515,24.016 1.498,24.016 C1.420,23.929 1.342,23.843 1.264,23.756 C1.247,23.756 1.229,23.756 1.212,23.756 C1.134,23.669 1.056,23.583 0.978,23.496 C0.961,23.496 0.943,23.496 0.926,23.496 C0.866,23.427 0.805,23.357 0.744,23.288 C0.718,23.271 0.692,23.253 0.666,23.236 C0.666,23.227 0.666,23.219 0.666,23.210 C0.649,23.210 0.632,23.210 0.614,23.210 C0.536,23.124 0.458,23.037 0.380,22.950 C0.363,22.950 0.346,22.950 0.328,22.950 C0.320,22.933 0.311,22.916 0.302,22.898 C0.235,22.834 0.106,22.689 0.016,22.664 ZM1.212,21.885 C2.157,21.885 3.101,21.885 4.046,21.885 C4.376,21.885 4.976,21.831 5.242,21.911 C5.285,21.911 5.328,21.911 5.372,21.911 C5.536,21.971 5.701,22.032 5.866,22.093 C5.874,22.110 5.883,22.127 5.892,22.144 C5.926,22.153 5.961,22.162 5.996,22.170 C6.004,22.188 6.013,22.205 6.022,22.222 C6.048,22.231 6.074,22.240 6.100,22.248 C6.126,22.283 6.152,22.318 6.178,22.352 C6.195,22.352 6.212,22.352 6.230,22.352 C6.230,22.361 6.230,22.370 6.230,22.378 C6.256,22.396 6.282,22.413 6.308,22.430 C6.308,22.448 6.308,22.465 6.308,22.482 C6.342,22.508 6.377,22.534 6.412,22.560 C6.412,22.578 6.412,22.595 6.412,22.612 C6.438,22.630 6.464,22.647 6.490,22.664 C6.498,22.699 6.507,22.734 6.516,22.768 C6.524,22.768 6.533,22.768 6.542,22.768 C6.559,22.820 6.576,22.872 6.594,22.924 C6.602,22.924 6.611,22.924 6.620,22.924 C6.637,23.002 6.654,23.080 6.672,23.158 C6.680,23.158 6.689,23.158 6.698,23.158 C6.772,23.388 6.724,23.933 6.724,24.224 C6.724,25.116 6.724,26.009 6.724,26.901 C10.718,26.901 14.714,26.901 18.709,26.901 C19.636,26.901 20.563,26.901 21.490,26.901 C21.898,26.901 22.305,26.901 22.712,26.901 C22.712,26.892 22.712,26.884 22.712,26.875 C22.782,26.866 22.851,26.858 22.920,26.849 C22.920,26.840 22.920,26.832 22.920,26.823 C22.938,26.823 22.955,26.823 22.972,26.823 C22.972,26.814 22.972,26.806 22.972,26.797 C22.998,26.797 23.024,26.797 23.050,26.797 C23.050,26.788 23.050,26.780 23.050,26.771 C23.085,26.762 23.120,26.754 23.154,26.745 C23.154,26.736 23.154,26.728 23.154,26.719 C23.171,26.719 23.189,26.719 23.206,26.719 C23.215,26.702 23.223,26.684 23.232,26.667 C23.249,26.667 23.267,26.667 23.284,26.667 C23.310,26.632 23.336,26.598 23.362,26.563 C23.379,26.563 23.397,26.563 23.414,26.563 C23.440,26.528 23.466,26.494 23.492,26.459 C23.501,26.459 23.509,26.459 23.518,26.459 C23.518,26.442 23.518,26.425 23.518,26.407 C23.553,26.381 23.587,26.355 23.622,26.329 C23.631,26.295 23.639,26.260 23.648,26.225 C23.657,26.225 23.665,26.225 23.674,26.225 C23.691,26.173 23.709,26.121 23.726,26.069 C23.735,26.069 23.743,26.069 23.752,26.069 C23.752,26.043 23.752,26.017 23.752,25.991 C23.761,25.991 23.769,25.991 23.778,25.991 C23.851,25.786 23.804,25.247 23.804,24.978 C23.804,23.921 23.804,22.863 23.804,21.807 C23.804,17.103 23.804,12.397 23.804,7.693 C23.804,6.497 23.804,5.302 23.804,4.106 C23.804,3.777 23.804,3.448 23.804,3.118 C23.795,3.118 23.787,3.118 23.778,3.118 C23.778,3.084 23.778,3.049 23.778,3.014 C23.769,3.014 23.761,3.014 23.752,3.014 C23.752,2.988 23.752,2.962 23.752,2.936 C23.743,2.936 23.735,2.936 23.726,2.936 C23.709,2.884 23.691,2.832 23.674,2.780 C23.665,2.780 23.657,2.780 23.648,2.780 C23.639,2.746 23.631,2.711 23.622,2.676 C23.587,2.650 23.553,2.624 23.518,2.599 C23.518,2.581 23.518,2.564 23.518,2.547 C23.483,2.521 23.449,2.495 23.414,2.469 C23.414,2.460 23.414,2.451 23.414,2.443 C23.207,2.293 22.988,2.187 22.712,2.105 C22.296,2.105 21.880,2.105 21.464,2.105 C20.511,2.105 19.558,2.105 18.605,2.105 C14.541,2.105 10.476,2.105 6.412,2.105 C5.476,2.105 4.540,2.105 3.604,2.105 C3.171,2.105 2.737,2.105 2.304,2.105 C2.157,2.157 2.009,2.209 1.862,2.261 C1.853,2.278 1.845,2.295 1.836,2.313 C1.801,2.321 1.767,2.330 1.732,2.339 C1.706,2.373 1.680,2.408 1.654,2.443 C1.637,2.443 1.619,2.443 1.602,2.443 C1.576,2.477 1.550,2.512 1.524,2.547 C1.515,2.547 1.507,2.547 1.498,2.547 C1.498,2.564 1.498,2.581 1.498,2.599 C1.472,2.616 1.446,2.633 1.420,2.650 C1.420,2.668 1.420,2.685 1.420,2.702 C1.403,2.711 1.385,2.720 1.368,2.728 C1.144,3.083 1.212,3.792 1.212,4.366 C1.212,5.587 1.212,6.809 1.212,8.031 C1.212,12.648 1.212,17.267 1.212,21.885 ZM5.554,4.912 C8.924,4.912 12.296,4.912 15.667,4.912 C16.568,4.912 17.469,4.912 18.371,4.912 C18.669,4.912 19.228,4.863 19.462,4.938 C19.497,4.938 19.532,4.938 19.566,4.938 C19.566,4.946 19.566,4.955 19.566,4.964 C19.610,4.972 19.653,4.981 19.696,4.990 C19.714,5.016 19.731,5.042 19.748,5.068 C19.774,5.076 19.800,5.085 19.826,5.094 C19.826,5.111 19.826,5.128 19.826,5.146 C19.852,5.163 19.878,5.180 19.904,5.198 C19.913,5.250 19.922,5.302 19.930,5.354 C19.939,5.354 19.948,5.354 19.956,5.354 C20.019,5.555 19.809,5.842 19.722,5.899 C19.534,6.026 19.204,6.003 18.891,6.003 C18.327,6.003 17.764,6.003 17.201,6.003 C14.246,6.003 11.290,6.003 8.335,6.003 C7.634,6.003 6.932,6.003 6.230,6.003 C5.890,6.003 5.499,6.038 5.294,5.899 C5.276,5.874 5.259,5.848 5.242,5.822 C5.207,5.796 5.172,5.770 5.138,5.744 C5.138,5.726 5.138,5.709 5.138,5.692 C5.129,5.692 5.120,5.692 5.112,5.692 C5.063,5.600 5.059,5.493 5.060,5.354 C5.068,5.354 5.077,5.354 5.086,5.354 C5.094,5.302 5.103,5.250 5.112,5.198 C5.138,5.180 5.164,5.163 5.190,5.146 C5.190,5.128 5.190,5.111 5.190,5.094 C5.216,5.085 5.242,5.076 5.268,5.068 C5.285,5.042 5.302,5.016 5.320,4.990 C5.337,4.990 5.354,4.990 5.372,4.990 C5.372,4.981 5.372,4.972 5.372,4.964 C5.432,4.955 5.493,4.946 5.554,4.938 C5.554,4.929 5.554,4.920 5.554,4.912 ZM5.606,8.655 C9.306,8.655 13.007,8.655 16.707,8.655 C17.357,8.655 18.007,8.655 18.657,8.655 C18.991,8.655 19.394,8.623 19.618,8.733 C19.653,8.741 19.688,8.750 19.722,8.759 C19.813,8.819 20.026,9.116 19.956,9.330 C19.948,9.330 19.939,9.330 19.930,9.330 C19.922,9.374 19.913,9.417 19.904,9.460 C19.887,9.469 19.870,9.478 19.852,9.486 C19.852,9.504 19.852,9.521 19.852,9.538 C19.844,9.538 19.835,9.538 19.826,9.538 C19.809,9.564 19.792,9.590 19.774,9.616 C19.757,9.616 19.740,9.616 19.722,9.616 C19.714,9.634 19.705,9.651 19.696,9.668 C19.662,9.677 19.627,9.686 19.592,9.694 C19.592,9.703 19.592,9.712 19.592,9.720 C19.418,9.789 19.014,9.746 18.787,9.746 C17.998,9.746 17.209,9.746 16.421,9.746 C13.735,9.746 11.048,9.746 8.361,9.746 C7.651,9.746 6.940,9.746 6.230,9.746 C5.923,9.746 5.514,9.791 5.320,9.668 C5.211,9.600 4.981,9.340 5.060,9.097 C5.068,9.097 5.077,9.097 5.086,9.097 C5.086,9.071 5.086,9.045 5.086,9.019 C5.119,8.943 5.186,8.891 5.242,8.837 C5.259,8.811 5.276,8.785 5.294,8.759 C5.398,8.724 5.502,8.689 5.606,8.655 ZM5.502,12.423 C9.158,12.423 12.816,12.423 16.473,12.423 C17.305,12.423 18.137,12.423 18.969,12.423 C19.195,12.423 19.520,12.395 19.670,12.475 C19.679,12.493 19.688,12.510 19.696,12.527 C19.782,12.583 19.849,12.598 19.878,12.709 C19.936,12.758 19.903,12.764 19.930,12.839 C19.995,13.018 19.912,13.112 19.878,13.255 C19.835,13.290 19.792,13.325 19.748,13.359 C19.748,13.368 19.748,13.377 19.748,13.385 C19.731,13.385 19.714,13.385 19.696,13.385 C19.688,13.403 19.679,13.420 19.670,13.437 C19.627,13.446 19.584,13.454 19.540,13.463 C19.540,13.472 19.540,13.480 19.540,13.489 C18.518,13.489 17.495,13.489 16.473,13.489 C13.830,13.489 11.186,13.489 8.543,13.489 C7.712,13.489 6.880,13.489 6.048,13.489 C5.821,13.489 5.494,13.528 5.346,13.437 C5.337,13.420 5.328,13.403 5.320,13.385 C5.234,13.327 5.169,13.320 5.138,13.203 C5.080,13.155 5.113,13.149 5.086,13.073 C5.021,12.894 5.104,12.800 5.138,12.657 C5.202,12.622 5.223,12.559 5.268,12.527 C5.285,12.527 5.302,12.527 5.320,12.527 C5.328,12.510 5.337,12.493 5.346,12.475 C5.398,12.467 5.450,12.458 5.502,12.449 C5.502,12.441 5.502,12.432 5.502,12.423 ZM19.618,15.724 C19.757,15.724 19.896,15.724 20.034,15.724 C20.352,15.827 20.812,16.161 20.658,16.634 C20.658,16.669 20.658,16.704 20.658,16.738 C20.650,16.738 20.641,16.738 20.632,16.738 C20.624,16.773 20.615,16.807 20.606,16.842 C20.598,16.842 20.589,16.842 20.580,16.842 C20.580,16.859 20.580,16.877 20.580,16.894 C20.503,17.016 20.369,17.105 20.268,17.206 C20.079,17.396 19.918,17.592 19.696,17.752 C19.463,17.994 19.228,18.237 18.995,18.480 C18.535,18.921 18.076,19.363 17.617,19.805 C17.344,20.078 17.101,20.382 16.785,20.611 C16.733,20.672 16.681,20.732 16.629,20.793 C16.611,20.793 16.594,20.793 16.577,20.793 C16.577,20.802 16.577,20.810 16.577,20.819 C16.542,20.828 16.507,20.836 16.473,20.845 C16.473,20.854 16.473,20.862 16.473,20.871 C16.447,20.871 16.421,20.871 16.395,20.871 C16.395,20.880 16.395,20.888 16.395,20.897 C16.360,20.897 16.325,20.897 16.291,20.897 C16.291,20.906 16.291,20.914 16.291,20.923 C16.088,20.983 15.685,20.853 15.589,20.793 C15.589,20.784 15.589,20.776 15.589,20.767 C15.563,20.758 15.537,20.750 15.511,20.741 C15.502,20.724 15.494,20.706 15.485,20.689 C15.468,20.689 15.450,20.689 15.433,20.689 C15.433,20.680 15.433,20.672 15.433,20.663 C15.407,20.654 15.381,20.646 15.355,20.637 C15.346,20.620 15.338,20.602 15.329,20.585 C15.312,20.585 15.294,20.585 15.277,20.585 C15.260,20.559 15.242,20.533 15.225,20.507 C15.208,20.507 15.190,20.507 15.173,20.507 C15.164,20.490 15.156,20.472 15.147,20.455 C15.121,20.446 15.095,20.438 15.069,20.429 C15.069,20.420 15.069,20.412 15.069,20.403 C15.052,20.403 15.034,20.403 15.017,20.403 C15.008,20.386 15.000,20.368 14.991,20.351 C14.974,20.351 14.956,20.351 14.939,20.351 C14.930,20.334 14.922,20.316 14.913,20.299 C14.896,20.299 14.878,20.299 14.861,20.299 C14.852,20.282 14.844,20.264 14.835,20.247 C14.818,20.247 14.800,20.247 14.783,20.247 C14.766,20.221 14.748,20.195 14.731,20.169 C14.714,20.169 14.696,20.169 14.679,20.169 C14.670,20.152 14.662,20.134 14.653,20.117 C14.627,20.108 14.601,20.100 14.575,20.091 C14.575,20.082 14.575,20.074 14.575,20.065 C14.558,20.065 14.540,20.065 14.523,20.065 C14.514,20.048 14.506,20.030 14.497,20.013 C14.480,20.013 14.462,20.013 14.445,20.013 C14.436,19.996 14.428,19.978 14.419,19.961 C14.402,19.961 14.384,19.961 14.367,19.961 C14.358,19.944 14.350,19.927 14.341,19.909 C14.324,19.909 14.306,19.909 14.289,19.909 C14.272,19.883 14.254,19.857 14.237,19.831 C14.220,19.831 14.202,19.831 14.185,19.831 C14.176,19.814 14.168,19.797 14.159,19.779 C14.142,19.779 14.124,19.779 14.107,19.779 C14.098,19.762 14.090,19.745 14.081,19.727 C14.064,19.727 14.046,19.727 14.029,19.727 C14.020,19.710 14.012,19.693 14.003,19.675 C13.986,19.675 13.968,19.675 13.951,19.675 C13.951,19.667 13.951,19.658 13.951,19.649 C13.925,19.641 13.899,19.632 13.873,19.623 C13.864,19.606 13.856,19.589 13.847,19.571 C13.830,19.571 13.812,19.571 13.795,19.571 C13.778,19.545 13.760,19.519 13.743,19.493 C13.726,19.493 13.708,19.493 13.691,19.493 C13.682,19.476 13.674,19.459 13.665,19.441 C13.648,19.441 13.630,19.441 13.613,19.441 C13.613,19.433 13.613,19.424 13.613,19.415 C13.587,19.407 13.561,19.398 13.535,19.389 C13.526,19.372 13.518,19.355 13.509,19.337 C13.492,19.337 13.474,19.337 13.457,19.337 C13.448,19.320 13.440,19.303 13.431,19.285 C13.414,19.285 13.396,19.285 13.379,19.285 C13.370,19.268 13.362,19.251 13.353,19.233 C13.292,19.192 13.246,19.179 13.197,19.129 C13.060,18.993 12.867,18.626 12.989,18.324 C12.998,18.324 13.006,18.324 13.015,18.324 C13.015,18.306 13.015,18.289 13.015,18.272 C13.024,18.272 13.032,18.272 13.041,18.272 C13.050,18.237 13.058,18.202 13.067,18.168 C13.084,18.159 13.102,18.150 13.119,18.142 C13.119,18.124 13.119,18.107 13.119,18.090 C13.128,18.090 13.136,18.090 13.145,18.090 C13.162,18.064 13.180,18.038 13.197,18.012 C13.214,18.012 13.232,18.012 13.249,18.012 C13.258,17.994 13.266,17.977 13.275,17.960 C13.292,17.960 13.310,17.960 13.327,17.960 C13.336,17.942 13.344,17.925 13.353,17.908 C13.379,17.908 13.405,17.908 13.431,17.908 C13.431,17.899 13.431,17.890 13.431,17.882 C13.448,17.882 13.466,17.882 13.483,17.882 C13.483,17.873 13.483,17.864 13.483,17.856 C13.509,17.856 13.535,17.856 13.561,17.856 C13.561,17.847 13.561,17.838 13.561,17.830 C13.613,17.830 13.665,17.830 13.717,17.830 C13.717,17.821 13.717,17.812 13.717,17.804 C13.786,17.804 13.856,17.804 13.925,17.804 C13.925,17.812 13.925,17.821 13.925,17.830 C14.003,17.838 14.081,17.847 14.159,17.856 C14.159,17.864 14.159,17.873 14.159,17.882 C14.194,17.890 14.228,17.899 14.263,17.908 C14.263,17.916 14.263,17.925 14.263,17.934 C14.280,17.934 14.298,17.934 14.315,17.934 C14.324,17.951 14.332,17.968 14.341,17.986 C14.358,17.986 14.376,17.986 14.393,17.986 C14.402,18.003 14.410,18.020 14.419,18.038 C14.436,18.038 14.454,18.038 14.471,18.038 C14.480,18.055 14.488,18.072 14.497,18.090 C14.514,18.090 14.532,18.090 14.549,18.090 C14.558,18.107 14.566,18.124 14.575,18.142 C14.592,18.142 14.610,18.142 14.627,18.142 C14.627,18.150 14.627,18.159 14.627,18.168 C14.653,18.176 14.679,18.185 14.705,18.194 C14.714,18.211 14.722,18.228 14.731,18.246 C14.748,18.246 14.766,18.246 14.783,18.246 C14.800,18.272 14.818,18.298 14.835,18.324 C14.852,18.324 14.870,18.324 14.887,18.324 C14.896,18.341 14.904,18.358 14.913,18.376 C14.939,18.384 14.965,18.393 14.991,18.402 C14.991,18.410 14.991,18.419 14.991,18.428 C15.008,18.428 15.026,18.428 15.043,18.428 C15.052,18.445 15.060,18.462 15.069,18.480 C15.086,18.480 15.104,18.480 15.121,18.480 C15.130,18.497 15.138,18.514 15.147,18.532 C15.164,18.532 15.182,18.532 15.199,18.532 C15.208,18.549 15.216,18.566 15.225,18.584 C15.242,18.584 15.260,18.584 15.277,18.584 C15.286,18.601 15.294,18.618 15.303,18.636 C15.320,18.636 15.338,18.636 15.355,18.636 C15.372,18.662 15.390,18.688 15.407,18.714 C15.424,18.714 15.442,18.714 15.459,18.714 C15.468,18.731 15.476,18.748 15.485,18.766 C15.502,18.766 15.520,18.766 15.537,18.766 C15.546,18.783 15.554,18.800 15.563,18.818 C15.580,18.818 15.598,18.818 15.615,18.818 C15.615,18.826 15.615,18.835 15.615,18.844 C15.641,18.852 15.667,18.861 15.693,18.869 C15.702,18.887 15.710,18.904 15.719,18.921 C15.736,18.921 15.754,18.921 15.771,18.921 C15.779,18.939 15.788,18.956 15.797,18.973 C15.814,18.973 15.831,18.973 15.849,18.973 C15.857,18.991 15.866,19.008 15.875,19.025 C15.901,19.034 15.927,19.043 15.953,19.051 C15.953,19.060 15.953,19.069 15.953,19.077 C15.979,19.086 16.005,19.095 16.031,19.103 C16.066,19.044 16.114,19.020 16.161,18.973 C16.265,18.869 16.369,18.766 16.473,18.662 C16.745,18.389 16.988,18.085 17.305,17.856 C17.842,17.310 18.379,16.764 18.917,16.218 C18.934,16.218 18.951,16.218 18.969,16.218 C19.073,16.106 19.177,15.993 19.281,15.880 C19.298,15.880 19.315,15.880 19.333,15.880 C19.341,15.863 19.350,15.846 19.359,15.828 C19.376,15.828 19.393,15.828 19.411,15.828 C19.411,15.820 19.411,15.811 19.411,15.802 C19.428,15.802 19.445,15.802 19.462,15.802 C19.462,15.794 19.462,15.785 19.462,15.776 C19.514,15.768 19.566,15.759 19.618,15.750 C19.618,15.742 19.618,15.733 19.618,15.724 ZM5.502,18.454 C6.724,18.454 7.946,18.454 9.167,18.454 C9.540,18.454 9.913,18.454 10.285,18.454 C10.463,18.454 10.693,18.424 10.831,18.480 C10.909,18.532 10.987,18.584 11.065,18.636 C11.110,18.696 11.114,18.769 11.169,18.818 C11.178,18.937 11.204,18.976 11.169,19.077 C11.169,19.112 11.169,19.147 11.169,19.181 C11.161,19.181 11.152,19.181 11.143,19.181 C11.027,19.647 10.242,19.545 9.661,19.545 C8.700,19.545 7.737,19.545 6.776,19.545 C6.454,19.545 5.891,19.595 5.632,19.519 C5.580,19.519 5.528,19.519 5.476,19.519 C5.258,19.446 4.970,19.185 5.086,18.869 C5.094,18.826 5.103,18.783 5.112,18.740 C5.129,18.731 5.146,18.722 5.164,18.714 C5.164,18.696 5.164,18.679 5.164,18.662 C5.216,18.618 5.268,18.575 5.320,18.532 C5.337,18.532 5.354,18.532 5.372,18.532 C5.372,18.523 5.372,18.514 5.372,18.506 C5.415,18.497 5.458,18.488 5.502,18.480 C5.502,18.471 5.502,18.462 5.502,18.454 ZM2.044,22.950 C2.097,23.040 2.125,23.026 2.200,23.080 C2.287,23.175 2.373,23.271 2.460,23.366 C2.477,23.366 2.495,23.366 2.512,23.366 C2.573,23.435 2.633,23.505 2.694,23.574 C2.703,23.574 2.711,23.574 2.720,23.574 C2.729,23.591 2.737,23.609 2.746,23.626 C2.763,23.626 2.781,23.626 2.798,23.626 C2.885,23.721 2.971,23.817 3.058,23.912 C3.075,23.912 3.093,23.912 3.110,23.912 C3.188,23.999 3.266,24.085 3.344,24.172 C3.361,24.172 3.379,24.172 3.396,24.172 C3.483,24.267 3.569,24.362 3.656,24.458 C3.673,24.458 3.691,24.458 3.708,24.458 C3.786,24.544 3.864,24.631 3.942,24.718 C3.959,24.718 3.977,24.718 3.994,24.718 C4.081,24.813 4.167,24.908 4.254,25.004 C4.271,25.004 4.289,25.004 4.306,25.004 C4.367,25.073 4.427,25.142 4.488,25.212 C4.497,25.212 4.505,25.212 4.514,25.212 C4.523,25.229 4.531,25.246 4.540,25.264 C4.557,25.264 4.575,25.264 4.592,25.264 C4.678,25.359 4.765,25.454 4.852,25.549 C4.869,25.549 4.886,25.549 4.904,25.549 C4.938,25.593 4.973,25.636 5.008,25.679 C5.042,25.705 5.077,25.731 5.112,25.757 C5.120,25.775 5.129,25.792 5.138,25.809 C5.155,25.809 5.172,25.809 5.190,25.809 C5.207,25.835 5.224,25.861 5.242,25.887 C5.327,25.971 5.420,26.062 5.528,26.121 C5.528,25.203 5.528,24.284 5.528,23.366 C5.519,23.366 5.510,23.366 5.502,23.366 C5.493,23.323 5.484,23.279 5.476,23.236 C5.458,23.227 5.441,23.219 5.424,23.210 C5.424,23.193 5.424,23.176 5.424,23.158 C5.354,23.106 5.285,23.054 5.216,23.002 C4.982,22.897 4.544,22.950 4.228,22.950 C3.500,22.950 2.772,22.950 2.044,22.950 Z"/>
</svg>