<svg 
 xmlns="http://www.w3.org/2000/svg"
 xmlns:xlink="http://www.w3.org/1999/xlink"
 width="24px" height="30px">
<path fill-rule="evenodd"  fill="rgb(255, 255, 255)"
 d="M10.706,-0.000 C10.706,0.340 10.706,0.680 10.706,1.020 C9.393,1.020 8.080,1.020 6.768,1.020 C6.404,1.020 6.039,1.020 5.675,1.020 C5.675,1.027 5.675,1.034 5.675,1.040 C5.627,1.040 5.579,1.040 5.531,1.040 C5.256,1.123 5.021,1.242 4.871,1.448 C4.843,1.469 4.816,1.489 4.788,1.510 C4.788,1.523 4.788,1.537 4.788,1.550 C4.775,1.557 4.761,1.564 4.747,1.571 C4.740,1.598 4.733,1.625 4.726,1.652 C4.713,1.659 4.699,1.666 4.685,1.673 C4.678,1.707 4.671,1.741 4.665,1.775 C4.658,1.775 4.651,1.775 4.644,1.775 C4.644,1.788 4.644,1.802 4.644,1.816 C4.637,1.816 4.630,1.816 4.623,1.816 C4.623,1.836 4.623,1.856 4.623,1.877 C4.616,1.877 4.610,1.877 4.603,1.877 C4.603,1.904 4.603,1.931 4.603,1.958 C4.596,1.958 4.589,1.958 4.582,1.958 C4.582,2.006 4.582,2.054 4.582,2.101 C4.553,2.202 4.561,2.375 4.561,2.509 C4.561,2.761 4.561,3.012 4.561,3.264 C4.561,3.434 4.561,3.604 4.561,3.774 C4.576,3.822 4.626,3.894 4.603,3.978 C4.540,4.201 4.561,4.549 4.561,4.835 C4.561,5.358 4.561,5.882 4.561,6.405 C4.561,10.668 4.561,14.933 4.561,19.196 C4.561,20.215 4.561,21.236 4.561,22.256 C4.561,22.548 4.561,22.840 4.561,23.133 C4.568,23.289 4.575,23.445 4.582,23.602 C4.636,23.774 4.712,23.958 4.809,24.091 C4.857,24.132 4.905,24.173 4.953,24.214 C4.981,24.248 5.008,24.282 5.036,24.316 C5.049,24.316 5.063,24.316 5.077,24.316 C5.084,24.329 5.091,24.343 5.098,24.357 C5.111,24.357 5.125,24.357 5.139,24.357 C5.146,24.370 5.153,24.384 5.159,24.397 C5.465,24.588 5.980,24.561 6.479,24.561 C7.338,24.561 8.197,24.561 9.057,24.561 C12.149,24.561 15.243,24.561 18.335,24.561 C19.043,24.561 19.751,24.561 20.459,24.561 C20.711,24.561 21.095,24.599 21.305,24.540 C21.360,24.540 21.415,24.540 21.470,24.540 C21.586,24.499 21.703,24.459 21.820,24.418 C21.827,24.404 21.834,24.391 21.841,24.377 C21.868,24.370 21.896,24.363 21.923,24.357 C21.937,24.336 21.951,24.316 21.964,24.295 C21.978,24.295 21.992,24.295 22.006,24.295 C22.047,24.248 22.088,24.200 22.129,24.153 C22.150,24.139 22.171,24.125 22.191,24.112 C22.191,24.098 22.191,24.085 22.191,24.071 C22.212,24.057 22.233,24.044 22.253,24.030 C22.308,23.915 22.363,23.799 22.418,23.683 C22.418,23.649 22.418,23.615 22.418,23.581 C22.497,23.321 22.459,22.907 22.459,22.582 C22.459,21.970 22.459,21.358 22.459,20.746 C22.810,20.746 23.160,20.746 23.511,20.746 C23.511,21.215 23.511,21.684 23.511,22.154 C23.511,22.446 23.511,22.738 23.511,23.031 C23.511,23.182 23.524,23.382 23.490,23.500 C23.483,23.602 23.477,23.704 23.470,23.806 C23.422,23.955 23.373,24.105 23.325,24.255 C23.318,24.255 23.312,24.255 23.305,24.255 C23.298,24.282 23.291,24.309 23.284,24.336 C23.277,24.336 23.270,24.336 23.263,24.336 C23.257,24.363 23.250,24.391 23.243,24.418 C23.229,24.425 23.215,24.431 23.202,24.438 C23.195,24.465 23.188,24.493 23.181,24.520 C23.174,24.520 23.167,24.520 23.160,24.520 C23.154,24.540 23.147,24.561 23.140,24.581 C23.126,24.588 23.112,24.595 23.099,24.601 C23.099,24.615 23.099,24.629 23.099,24.642 C23.078,24.656 23.057,24.669 23.037,24.683 C23.037,24.697 23.037,24.710 23.037,24.724 C23.002,24.751 22.968,24.778 22.934,24.805 C22.934,24.819 22.934,24.833 22.934,24.846 C22.885,24.887 22.837,24.928 22.789,24.969 C22.782,24.982 22.775,24.996 22.769,25.009 C22.755,25.009 22.741,25.009 22.727,25.009 C22.707,25.037 22.686,25.064 22.666,25.091 C22.652,25.091 22.638,25.091 22.624,25.091 C22.611,25.111 22.597,25.132 22.583,25.152 C22.562,25.159 22.542,25.166 22.521,25.173 C22.514,25.186 22.507,25.200 22.501,25.213 C22.473,25.220 22.446,25.227 22.418,25.234 C22.411,25.247 22.404,25.261 22.397,25.275 C22.356,25.288 22.315,25.302 22.274,25.315 C22.274,25.322 22.274,25.329 22.274,25.336 C22.260,25.336 22.246,25.336 22.233,25.336 C22.233,25.343 22.233,25.349 22.233,25.356 C22.191,25.370 22.150,25.383 22.109,25.397 C22.109,25.404 22.109,25.411 22.109,25.417 C22.088,25.417 22.068,25.417 22.047,25.417 C22.047,25.424 22.047,25.431 22.047,25.438 C22.026,25.438 22.006,25.438 21.985,25.438 C21.985,25.445 21.985,25.451 21.985,25.458 C21.964,25.458 21.944,25.458 21.923,25.458 C21.923,25.465 21.923,25.472 21.923,25.479 C21.903,25.479 21.882,25.479 21.861,25.479 C21.861,25.485 21.861,25.492 21.861,25.499 C21.806,25.506 21.751,25.513 21.696,25.519 C21.696,25.526 21.696,25.533 21.696,25.540 C21.600,25.547 21.504,25.553 21.408,25.560 C21.282,25.595 21.072,25.581 20.913,25.581 C20.610,25.581 20.308,25.581 20.006,25.581 C20.006,25.859 20.006,26.138 20.006,26.417 C20.006,26.563 20.017,26.753 19.985,26.866 C19.985,26.941 19.985,27.015 19.985,27.090 C19.978,27.090 19.971,27.090 19.964,27.090 C19.957,27.158 19.951,27.226 19.944,27.294 C19.937,27.294 19.930,27.294 19.923,27.294 C19.923,27.321 19.923,27.349 19.923,27.376 C19.916,27.376 19.909,27.376 19.902,27.376 C19.902,27.396 19.902,27.417 19.902,27.437 C19.896,27.437 19.889,27.437 19.882,27.437 C19.882,27.457 19.882,27.478 19.882,27.498 C19.875,27.498 19.868,27.498 19.861,27.498 C19.861,27.519 19.861,27.539 19.861,27.559 C19.854,27.559 19.847,27.559 19.841,27.559 C19.834,27.587 19.827,27.614 19.820,27.641 C19.813,27.641 19.806,27.641 19.799,27.641 C19.779,27.702 19.758,27.763 19.738,27.824 C19.724,27.831 19.710,27.838 19.696,27.845 C19.689,27.872 19.683,27.899 19.676,27.926 C19.662,27.933 19.648,27.940 19.634,27.947 C19.634,27.960 19.634,27.974 19.634,27.988 C19.621,27.994 19.607,28.001 19.593,28.008 C19.593,28.022 19.593,28.035 19.593,28.049 C19.573,28.062 19.552,28.076 19.531,28.090 C19.531,28.103 19.531,28.117 19.531,28.130 C19.497,28.158 19.463,28.185 19.428,28.212 C19.428,28.226 19.428,28.239 19.428,28.253 C19.380,28.294 19.332,28.334 19.284,28.375 C19.277,28.389 19.270,28.402 19.263,28.416 C19.250,28.416 19.236,28.416 19.222,28.416 C19.195,28.450 19.167,28.484 19.140,28.518 C19.126,28.518 19.112,28.518 19.098,28.518 C19.085,28.538 19.071,28.559 19.057,28.579 C19.043,28.579 19.030,28.579 19.016,28.579 C19.009,28.593 19.002,28.606 18.995,28.620 C18.981,28.620 18.968,28.620 18.954,28.620 C18.947,28.634 18.940,28.647 18.933,28.661 C18.892,28.674 18.851,28.688 18.810,28.702 C18.810,28.708 18.810,28.715 18.810,28.722 C18.796,28.722 18.782,28.722 18.768,28.722 C18.762,28.736 18.755,28.749 18.748,28.763 C18.727,28.763 18.707,28.763 18.686,28.763 C18.686,28.770 18.686,28.776 18.686,28.783 C18.658,28.790 18.631,28.797 18.603,28.804 C18.603,28.810 18.603,28.817 18.603,28.824 C18.583,28.824 18.562,28.824 18.542,28.824 C18.542,28.831 18.542,28.838 18.542,28.844 C18.528,28.844 18.514,28.844 18.500,28.844 C18.500,28.851 18.500,28.858 18.500,28.865 C18.480,28.865 18.459,28.865 18.438,28.865 C18.438,28.872 18.438,28.878 18.438,28.885 C18.418,28.885 18.397,28.885 18.377,28.885 C18.377,28.892 18.377,28.899 18.377,28.906 C18.349,28.906 18.322,28.906 18.294,28.906 C18.294,28.912 18.294,28.919 18.294,28.926 C18.267,28.926 18.239,28.926 18.212,28.926 C18.212,28.933 18.212,28.940 18.212,28.946 C18.170,28.946 18.129,28.946 18.088,28.946 C17.812,29.026 17.378,28.987 17.036,28.987 C16.253,28.987 15.469,28.987 14.686,28.987 C11.614,28.987 8.541,28.987 5.469,28.987 C4.644,28.987 3.819,28.987 2.994,28.987 C2.732,28.987 2.280,29.027 2.066,28.967 C2.011,28.967 1.956,28.967 1.902,28.967 C1.902,28.960 1.902,28.953 1.902,28.946 C1.867,28.946 1.833,28.946 1.798,28.946 C1.798,28.940 1.798,28.933 1.798,28.926 C1.771,28.926 1.743,28.926 1.716,28.926 C1.716,28.919 1.716,28.912 1.716,28.906 C1.688,28.906 1.661,28.906 1.633,28.906 C1.633,28.899 1.633,28.892 1.633,28.885 C1.613,28.885 1.592,28.885 1.572,28.885 C1.572,28.878 1.572,28.872 1.572,28.865 C1.551,28.865 1.530,28.865 1.510,28.865 C1.510,28.858 1.510,28.851 1.510,28.844 C1.489,28.844 1.469,28.844 1.448,28.844 C1.448,28.838 1.448,28.831 1.448,28.824 C1.434,28.824 1.420,28.824 1.407,28.824 C1.407,28.817 1.407,28.810 1.407,28.804 C1.386,28.804 1.365,28.804 1.345,28.804 C1.345,28.797 1.345,28.790 1.345,28.783 C1.304,28.770 1.262,28.756 1.221,28.742 C1.221,28.736 1.221,28.729 1.221,28.722 C1.194,28.715 1.166,28.708 1.139,28.702 C1.132,28.688 1.125,28.674 1.118,28.661 C1.090,28.654 1.063,28.647 1.035,28.640 C1.029,28.627 1.022,28.613 1.015,28.600 C1.001,28.600 0.987,28.600 0.974,28.600 C0.960,28.579 0.946,28.559 0.932,28.538 C0.919,28.538 0.905,28.538 0.891,28.538 C0.877,28.518 0.864,28.498 0.850,28.477 C0.836,28.477 0.822,28.477 0.809,28.477 C0.767,28.430 0.726,28.382 0.685,28.334 C0.630,28.287 0.575,28.239 0.520,28.192 C0.520,28.178 0.520,28.164 0.520,28.151 C0.493,28.130 0.465,28.110 0.438,28.090 C0.438,28.076 0.438,28.062 0.438,28.049 C0.424,28.042 0.410,28.035 0.396,28.028 C0.389,28.008 0.383,27.988 0.376,27.967 C0.369,27.967 0.362,27.967 0.355,27.967 C0.355,27.954 0.355,27.940 0.355,27.926 C0.341,27.920 0.328,27.913 0.314,27.906 C0.300,27.865 0.286,27.824 0.273,27.784 C0.259,27.777 0.245,27.770 0.231,27.763 C0.224,27.729 0.218,27.695 0.211,27.661 C0.204,27.661 0.197,27.661 0.190,27.661 C0.183,27.634 0.176,27.607 0.169,27.580 C0.163,27.580 0.156,27.580 0.149,27.580 C0.149,27.559 0.149,27.539 0.149,27.519 C0.142,27.519 0.135,27.519 0.128,27.519 C0.128,27.498 0.128,27.478 0.128,27.457 C0.121,27.457 0.114,27.457 0.108,27.457 C0.108,27.437 0.108,27.417 0.108,27.396 C0.101,27.396 0.094,27.396 0.087,27.396 C0.087,27.376 0.087,27.355 0.087,27.335 C0.080,27.335 0.073,27.335 0.066,27.335 C0.066,27.301 0.066,27.267 0.066,27.233 C0.059,27.233 0.053,27.233 0.046,27.233 C0.046,27.199 0.046,27.165 0.046,27.131 C0.039,27.131 0.032,27.131 0.025,27.131 C0.025,27.083 0.025,27.036 0.025,26.988 C-0.014,26.853 0.005,26.627 0.005,26.458 C0.005,26.125 0.005,25.791 0.005,25.458 C0.005,24.160 0.005,22.861 0.005,21.562 C0.005,17.489 0.005,13.415 0.005,9.343 C0.005,8.411 0.005,7.480 0.005,6.548 C0.005,6.167 0.005,5.787 0.005,5.406 C0.011,5.406 0.018,5.406 0.025,5.406 C0.025,5.358 0.025,5.311 0.025,5.263 C0.032,5.263 0.039,5.263 0.046,5.263 C0.046,5.229 0.046,5.195 0.046,5.161 C0.053,5.161 0.059,5.161 0.066,5.161 C0.066,5.134 0.066,5.107 0.066,5.079 C0.073,5.079 0.080,5.079 0.087,5.079 C0.087,5.052 0.087,5.025 0.087,4.998 C0.094,4.998 0.101,4.998 0.108,4.998 C0.108,4.977 0.108,4.957 0.108,4.937 C0.114,4.937 0.121,4.937 0.128,4.937 C0.128,4.916 0.128,4.896 0.128,4.875 C0.234,4.633 0.372,4.406 0.520,4.202 C0.568,4.161 0.616,4.121 0.664,4.080 C0.706,4.032 0.747,3.985 0.788,3.937 C0.802,3.937 0.816,3.937 0.829,3.937 C0.850,3.910 0.871,3.883 0.891,3.855 C0.905,3.855 0.919,3.855 0.932,3.855 C0.939,3.842 0.946,3.828 0.953,3.815 C0.974,3.808 0.994,3.801 1.015,3.794 C1.015,3.787 1.015,3.781 1.015,3.774 C1.029,3.774 1.042,3.774 1.056,3.774 C1.063,3.760 1.070,3.747 1.077,3.733 C1.118,3.719 1.159,3.706 1.200,3.692 C1.207,3.679 1.214,3.665 1.221,3.651 C1.255,3.645 1.290,3.638 1.324,3.631 C1.324,3.624 1.324,3.617 1.324,3.611 C1.352,3.604 1.379,3.597 1.407,3.590 C1.407,3.583 1.407,3.577 1.407,3.570 C1.441,3.563 1.475,3.556 1.510,3.549 C1.510,3.543 1.510,3.536 1.510,3.529 C1.558,3.522 1.606,3.515 1.654,3.509 C1.654,3.502 1.654,3.495 1.654,3.488 C1.675,3.488 1.695,3.488 1.716,3.488 C1.716,3.481 1.716,3.475 1.716,3.468 C1.750,3.468 1.785,3.468 1.819,3.468 C1.819,3.461 1.819,3.454 1.819,3.447 C1.853,3.447 1.888,3.447 1.922,3.447 C1.922,3.441 1.922,3.434 1.922,3.427 C2.101,3.420 2.280,3.413 2.458,3.407 C2.809,3.407 3.159,3.407 3.510,3.407 C3.510,3.067 3.510,2.727 3.510,2.387 C3.517,2.210 3.524,2.033 3.530,1.856 C3.537,1.856 3.544,1.856 3.551,1.856 C3.551,1.822 3.551,1.788 3.551,1.754 C3.558,1.754 3.565,1.754 3.572,1.754 C3.572,1.727 3.572,1.700 3.572,1.673 C3.579,1.673 3.585,1.673 3.592,1.673 C3.592,1.646 3.592,1.618 3.592,1.591 C3.599,1.591 3.606,1.591 3.613,1.591 C3.613,1.571 3.613,1.550 3.613,1.530 C3.620,1.530 3.627,1.530 3.634,1.530 C3.634,1.510 3.634,1.489 3.634,1.469 C3.739,1.227 3.877,0.999 4.025,0.796 C4.073,0.755 4.122,0.714 4.170,0.673 C4.211,0.626 4.252,0.578 4.293,0.530 C4.307,0.530 4.321,0.530 4.335,0.530 C4.355,0.503 4.376,0.476 4.396,0.449 C4.410,0.449 4.424,0.449 4.438,0.449 C4.445,0.435 4.451,0.422 4.458,0.408 C4.479,0.401 4.500,0.394 4.520,0.388 C4.520,0.381 4.520,0.374 4.520,0.367 C4.534,0.367 4.548,0.367 4.561,0.367 C4.568,0.354 4.575,0.340 4.582,0.326 C4.610,0.320 4.637,0.313 4.665,0.306 C4.671,0.292 4.678,0.279 4.685,0.265 C4.713,0.258 4.740,0.252 4.768,0.245 C4.768,0.238 4.768,0.231 4.768,0.224 C4.795,0.218 4.823,0.211 4.850,0.204 C4.850,0.197 4.850,0.190 4.850,0.184 C4.884,0.177 4.919,0.170 4.953,0.163 C4.953,0.156 4.953,0.150 4.953,0.143 C5.015,0.129 5.077,0.116 5.139,0.102 C5.139,0.095 5.139,0.088 5.139,0.082 C5.166,0.082 5.194,0.082 5.221,0.082 C5.221,0.075 5.221,0.068 5.221,0.061 C5.283,0.054 5.345,0.048 5.407,0.041 C5.407,0.034 5.407,0.027 5.407,0.020 C5.592,0.014 5.778,0.007 5.964,-0.000 C6.321,-0.000 6.678,-0.000 7.036,-0.000 C8.259,-0.000 9.483,-0.000 10.706,-0.000 ZM20.810,6.222 C20.810,6.711 20.810,7.201 20.810,7.690 C20.810,7.888 20.810,8.085 20.810,8.282 C20.803,8.282 20.796,8.282 20.789,8.282 C20.789,8.302 20.789,8.323 20.789,8.343 C20.782,8.343 20.775,8.343 20.769,8.343 C20.769,8.357 20.769,8.370 20.769,8.384 C20.762,8.384 20.755,8.384 20.748,8.384 C20.748,8.398 20.748,8.411 20.748,8.425 C20.734,8.432 20.720,8.438 20.707,8.445 C20.707,8.459 20.707,8.472 20.707,8.486 C20.661,8.549 20.366,8.715 20.212,8.670 C20.136,8.642 20.061,8.615 19.985,8.588 C19.957,8.554 19.930,8.520 19.902,8.486 C19.882,8.472 19.861,8.459 19.841,8.445 C19.834,8.418 19.827,8.391 19.820,8.364 C19.813,8.364 19.806,8.364 19.799,8.364 C19.799,8.350 19.799,8.336 19.799,8.323 C19.793,8.323 19.786,8.323 19.779,8.323 C19.719,8.165 19.758,7.810 19.758,7.609 C19.758,7.092 19.758,6.575 19.758,6.059 C19.758,5.787 19.716,5.249 19.799,5.059 C19.899,4.833 20.107,4.648 20.356,4.569 C20.404,4.569 20.452,4.569 20.500,4.569 C20.655,4.526 20.909,4.549 21.098,4.549 C21.621,4.549 22.143,4.549 22.666,4.549 C22.937,4.549 23.489,4.506 23.676,4.590 C23.676,4.597 23.676,4.603 23.676,4.610 C23.690,4.610 23.703,4.610 23.717,4.610 C23.724,4.624 23.731,4.637 23.738,4.651 C23.751,4.651 23.765,4.651 23.779,4.651 C23.800,4.678 23.820,4.705 23.841,4.733 C23.861,4.746 23.882,4.760 23.903,4.773 C23.903,4.787 23.903,4.801 23.903,4.814 C23.910,4.814 23.916,4.814 23.923,4.814 C23.930,4.841 23.937,4.869 23.944,4.896 C23.951,4.896 23.958,4.896 23.965,4.896 C23.993,4.967 23.992,5.174 23.965,5.243 C23.958,5.243 23.951,5.243 23.944,5.243 C23.944,5.263 23.944,5.283 23.944,5.304 C23.930,5.311 23.916,5.317 23.903,5.324 C23.903,5.338 23.903,5.351 23.903,5.365 C23.875,5.385 23.848,5.406 23.820,5.426 C23.800,5.453 23.779,5.481 23.758,5.508 C23.599,5.614 23.301,5.589 23.037,5.589 C22.590,5.589 22.143,5.589 21.696,5.589 C21.696,5.603 21.696,5.617 21.696,5.630 C21.779,5.705 21.861,5.780 21.944,5.855 C21.944,5.868 21.944,5.882 21.944,5.895 C21.985,5.929 22.026,5.963 22.068,5.997 C22.068,6.011 22.068,6.025 22.068,6.038 C22.095,6.059 22.123,6.079 22.150,6.099 C22.150,6.113 22.150,6.127 22.150,6.140 C22.178,6.161 22.205,6.181 22.233,6.201 C22.233,6.215 22.233,6.229 22.233,6.242 C22.260,6.263 22.287,6.283 22.315,6.303 C22.315,6.317 22.315,6.331 22.315,6.344 C22.336,6.358 22.356,6.371 22.377,6.385 C22.384,6.405 22.391,6.426 22.397,6.446 C22.411,6.453 22.425,6.460 22.439,6.467 C22.439,6.480 22.439,6.494 22.439,6.507 C22.446,6.507 22.452,6.507 22.459,6.507 C22.466,6.528 22.473,6.548 22.480,6.569 C22.494,6.575 22.507,6.582 22.521,6.589 C22.521,6.603 22.521,6.616 22.521,6.630 C22.542,6.643 22.562,6.657 22.583,6.671 C22.583,6.684 22.583,6.698 22.583,6.711 C22.597,6.718 22.611,6.725 22.624,6.732 C22.624,6.745 22.624,6.759 22.624,6.773 C22.638,6.779 22.652,6.786 22.666,6.793 C22.672,6.813 22.679,6.834 22.686,6.854 C22.693,6.854 22.700,6.854 22.707,6.854 C22.714,6.881 22.721,6.909 22.727,6.936 C22.741,6.943 22.755,6.949 22.769,6.956 C22.775,6.977 22.782,6.997 22.789,7.017 C22.796,7.017 22.803,7.017 22.810,7.017 C22.824,7.058 22.837,7.099 22.851,7.140 C22.865,7.147 22.879,7.153 22.892,7.160 C22.899,7.187 22.906,7.215 22.913,7.242 C22.927,7.249 22.940,7.255 22.954,7.262 C22.954,7.276 22.954,7.289 22.954,7.303 C22.961,7.303 22.968,7.303 22.975,7.303 C22.975,7.317 22.975,7.330 22.975,7.344 C22.982,7.344 22.989,7.344 22.995,7.344 C22.995,7.357 22.995,7.371 22.995,7.385 C23.002,7.385 23.009,7.385 23.016,7.385 C23.016,7.398 23.016,7.412 23.016,7.425 C23.023,7.425 23.030,7.425 23.037,7.425 C23.044,7.453 23.050,7.480 23.057,7.507 C23.071,7.514 23.085,7.521 23.099,7.527 C23.105,7.554 23.112,7.582 23.119,7.609 C23.126,7.609 23.133,7.609 23.140,7.609 C23.147,7.636 23.154,7.663 23.160,7.690 C23.167,7.690 23.174,7.690 23.181,7.690 C23.181,7.711 23.181,7.731 23.181,7.752 C23.188,7.752 23.195,7.752 23.202,7.752 C23.202,7.765 23.202,7.779 23.202,7.792 C23.209,7.792 23.215,7.792 23.222,7.792 C23.222,7.806 23.222,7.820 23.222,7.833 C23.229,7.833 23.236,7.833 23.243,7.833 C23.257,7.874 23.270,7.915 23.284,7.956 C23.291,7.956 23.298,7.956 23.305,7.956 C23.305,7.976 23.305,7.996 23.305,8.017 C23.312,8.017 23.318,8.017 23.325,8.017 C23.332,8.044 23.339,8.071 23.346,8.098 C23.353,8.098 23.360,8.098 23.367,8.098 C23.367,8.119 23.367,8.139 23.367,8.160 C23.373,8.160 23.380,8.160 23.387,8.160 C23.387,8.173 23.387,8.187 23.387,8.200 C23.394,8.200 23.401,8.200 23.408,8.200 C23.415,8.234 23.422,8.268 23.428,8.302 C23.435,8.302 23.442,8.302 23.449,8.302 C23.456,8.343 23.463,8.384 23.470,8.425 C23.477,8.425 23.483,8.425 23.490,8.425 C23.490,8.438 23.490,8.452 23.490,8.466 C23.497,8.466 23.504,8.466 23.511,8.466 C23.525,8.527 23.538,8.588 23.552,8.649 C23.559,8.649 23.566,8.649 23.573,8.649 C23.573,8.670 23.573,8.690 23.573,8.710 C23.580,8.710 23.587,8.710 23.593,8.710 C23.593,8.731 23.593,8.751 23.593,8.772 C23.600,8.772 23.607,8.772 23.614,8.772 C23.614,8.792 23.614,8.812 23.614,8.833 C23.621,8.833 23.628,8.833 23.635,8.833 C23.642,8.880 23.648,8.928 23.655,8.976 C23.662,8.976 23.669,8.976 23.676,8.976 C23.683,9.023 23.690,9.071 23.697,9.118 C23.703,9.118 23.710,9.118 23.717,9.118 C23.731,9.200 23.745,9.282 23.758,9.363 C23.765,9.363 23.772,9.363 23.779,9.363 C23.779,9.397 23.779,9.431 23.779,9.465 C23.786,9.465 23.793,9.465 23.800,9.465 C23.800,9.492 23.800,9.520 23.800,9.547 C23.806,9.547 23.813,9.547 23.820,9.547 C23.820,9.581 23.820,9.615 23.820,9.649 C23.827,9.649 23.834,9.649 23.841,9.649 C23.841,9.683 23.841,9.717 23.841,9.751 C23.848,9.751 23.855,9.751 23.861,9.751 C23.861,9.792 23.861,9.832 23.861,9.873 C23.868,9.873 23.875,9.873 23.882,9.873 C23.882,9.914 23.882,9.955 23.882,9.996 C23.889,9.996 23.896,9.996 23.903,9.996 C23.903,10.043 23.903,10.091 23.903,10.138 C23.910,10.138 23.916,10.138 23.923,10.138 C23.923,10.200 23.923,10.261 23.923,10.322 C23.930,10.322 23.937,10.322 23.944,10.322 C23.944,10.390 23.944,10.458 23.944,10.526 C23.951,10.526 23.958,10.526 23.965,10.526 C23.965,10.621 23.965,10.716 23.965,10.812 C24.011,10.977 24.012,11.483 23.965,11.648 C23.965,11.743 23.965,11.838 23.965,11.934 C23.958,11.934 23.951,11.934 23.944,11.934 C23.944,12.002 23.944,12.070 23.944,12.138 C23.937,12.138 23.930,12.138 23.923,12.138 C23.923,12.199 23.923,12.260 23.923,12.321 C23.916,12.321 23.910,12.321 23.903,12.321 C23.903,12.369 23.903,12.416 23.903,12.464 C23.896,12.464 23.889,12.464 23.882,12.464 C23.882,12.505 23.882,12.546 23.882,12.586 C23.875,12.586 23.868,12.586 23.861,12.586 C23.861,12.620 23.861,12.654 23.861,12.688 C23.855,12.688 23.848,12.688 23.841,12.688 C23.841,12.729 23.841,12.770 23.841,12.811 C23.834,12.811 23.827,12.811 23.820,12.811 C23.820,12.845 23.820,12.879 23.820,12.913 C23.813,12.913 23.806,12.913 23.800,12.913 C23.800,12.940 23.800,12.967 23.800,12.994 C23.793,12.994 23.786,12.994 23.779,12.994 C23.779,13.028 23.779,13.062 23.779,13.096 C23.691,13.365 23.620,13.666 23.511,13.912 C23.497,13.973 23.483,14.035 23.470,14.096 C23.463,14.096 23.456,14.096 23.449,14.096 C23.449,14.109 23.449,14.123 23.449,14.137 C23.442,14.137 23.435,14.137 23.428,14.137 C23.428,14.157 23.428,14.177 23.428,14.198 C23.422,14.198 23.415,14.198 23.408,14.198 C23.408,14.211 23.408,14.225 23.408,14.239 C23.401,14.239 23.394,14.239 23.387,14.239 C23.387,14.259 23.387,14.279 23.387,14.300 C23.380,14.300 23.373,14.300 23.367,14.300 C23.360,14.327 23.353,14.354 23.346,14.381 C23.339,14.381 23.332,14.381 23.325,14.381 C23.325,14.402 23.325,14.422 23.325,14.443 C23.318,14.443 23.312,14.443 23.305,14.443 C23.298,14.470 23.291,14.497 23.284,14.524 C23.277,14.524 23.270,14.524 23.263,14.524 C23.263,14.545 23.263,14.565 23.263,14.585 C23.257,14.585 23.250,14.585 23.243,14.585 C23.229,14.626 23.215,14.667 23.202,14.708 C23.195,14.708 23.188,14.708 23.181,14.708 C23.181,14.721 23.181,14.735 23.181,14.749 C23.174,14.749 23.167,14.749 23.160,14.749 C23.160,14.762 23.160,14.776 23.160,14.789 C23.154,14.789 23.147,14.789 23.140,14.789 C23.140,14.803 23.140,14.817 23.140,14.830 C23.133,14.830 23.126,14.830 23.119,14.830 C23.119,14.844 23.119,14.857 23.119,14.871 C23.112,14.871 23.105,14.871 23.099,14.871 C23.099,14.885 23.099,14.898 23.099,14.912 C23.092,14.912 23.085,14.912 23.078,14.912 C23.078,14.925 23.078,14.939 23.078,14.953 C23.071,14.953 23.064,14.953 23.057,14.953 C23.057,14.966 23.057,14.980 23.057,14.993 C23.050,14.993 23.044,14.993 23.037,14.993 C23.037,15.007 23.037,15.021 23.037,15.034 C23.030,15.034 23.023,15.034 23.016,15.034 C23.016,15.048 23.016,15.061 23.016,15.075 C23.009,15.075 23.002,15.075 22.995,15.075 C22.995,15.089 22.995,15.102 22.995,15.116 C22.982,15.123 22.968,15.129 22.954,15.136 C22.940,15.177 22.927,15.218 22.913,15.259 C22.899,15.265 22.885,15.272 22.872,15.279 C22.872,15.293 22.872,15.306 22.872,15.320 C22.865,15.320 22.858,15.320 22.851,15.320 C22.851,15.333 22.851,15.347 22.851,15.361 C22.837,15.367 22.824,15.374 22.810,15.381 C22.803,15.408 22.796,15.435 22.789,15.463 C22.775,15.469 22.762,15.476 22.748,15.483 C22.748,15.497 22.748,15.510 22.748,15.524 C22.741,15.524 22.734,15.524 22.727,15.524 C22.727,15.537 22.727,15.551 22.727,15.565 C22.714,15.571 22.700,15.578 22.686,15.585 C22.686,15.599 22.686,15.612 22.686,15.626 C22.672,15.633 22.659,15.639 22.645,15.646 C22.645,15.660 22.645,15.673 22.645,15.687 C22.638,15.687 22.631,15.687 22.624,15.687 C22.617,15.707 22.611,15.728 22.604,15.748 C22.590,15.755 22.576,15.762 22.562,15.769 C22.562,15.782 22.562,15.796 22.562,15.809 C22.549,15.816 22.535,15.823 22.521,15.830 C22.521,15.843 22.521,15.857 22.521,15.871 C22.501,15.884 22.480,15.898 22.459,15.911 C22.459,15.925 22.459,15.939 22.459,15.952 C22.446,15.959 22.432,15.966 22.418,15.973 C22.418,15.986 22.418,16.000 22.418,16.013 C22.397,16.027 22.377,16.041 22.356,16.054 C22.356,16.068 22.356,16.081 22.356,16.095 C22.336,16.109 22.315,16.122 22.294,16.136 C22.294,16.149 22.294,16.163 22.294,16.177 C22.274,16.190 22.253,16.204 22.233,16.217 C22.233,16.231 22.233,16.245 22.233,16.258 C22.205,16.279 22.178,16.299 22.150,16.319 C22.150,16.333 22.150,16.347 22.150,16.360 C22.116,16.387 22.081,16.415 22.047,16.442 C22.047,16.455 22.047,16.469 22.047,16.483 C22.006,16.517 21.964,16.551 21.923,16.585 C21.923,16.598 21.923,16.612 21.923,16.625 C21.834,16.707 21.745,16.789 21.655,16.870 C21.655,16.884 21.655,16.897 21.655,16.911 C21.641,16.918 21.628,16.925 21.614,16.931 C21.573,16.979 21.531,17.027 21.490,17.074 C21.476,17.074 21.463,17.074 21.449,17.074 C21.366,17.163 21.284,17.251 21.202,17.339 C21.188,17.339 21.174,17.339 21.160,17.339 C21.126,17.380 21.092,17.421 21.057,17.462 C21.043,17.462 21.030,17.462 21.016,17.462 C21.009,17.475 21.002,17.489 20.995,17.503 C20.988,17.503 20.982,17.503 20.975,17.503 C20.961,17.523 20.947,17.543 20.933,17.564 C20.920,17.564 20.906,17.564 20.892,17.564 C20.872,17.591 20.851,17.618 20.830,17.645 C20.817,17.645 20.803,17.645 20.789,17.645 C20.775,17.666 20.762,17.686 20.748,17.706 C20.734,17.706 20.720,17.706 20.707,17.706 C20.693,17.727 20.679,17.747 20.665,17.768 C20.652,17.768 20.638,17.768 20.624,17.768 C20.610,17.788 20.597,17.808 20.583,17.829 C20.569,17.829 20.555,17.829 20.542,17.829 C20.528,17.849 20.514,17.870 20.500,17.890 C20.487,17.890 20.473,17.890 20.459,17.890 C20.452,17.904 20.445,17.917 20.439,17.931 C20.425,17.931 20.411,17.931 20.397,17.931 C20.390,17.944 20.384,17.958 20.377,17.972 C20.363,17.972 20.349,17.972 20.335,17.972 C20.322,17.992 20.308,18.012 20.294,18.033 C20.281,18.033 20.267,18.033 20.253,18.033 C20.246,18.046 20.239,18.060 20.232,18.074 C20.205,18.080 20.177,18.087 20.150,18.094 C20.150,18.101 20.150,18.108 20.150,18.114 C20.129,18.121 20.109,18.128 20.088,18.135 C20.081,18.148 20.074,18.162 20.067,18.176 C20.040,18.182 20.012,18.189 19.985,18.196 C19.978,18.210 19.971,18.223 19.964,18.237 C19.944,18.244 19.923,18.250 19.902,18.257 C19.902,18.264 19.902,18.271 19.902,18.278 C19.861,18.291 19.820,18.305 19.779,18.318 C19.772,18.332 19.765,18.346 19.758,18.359 C19.744,18.359 19.731,18.359 19.717,18.359 C19.717,18.366 19.717,18.373 19.717,18.380 C19.703,18.380 19.689,18.380 19.676,18.380 C19.676,18.386 19.676,18.393 19.676,18.400 C19.662,18.400 19.648,18.400 19.634,18.400 C19.634,18.407 19.634,18.414 19.634,18.420 C19.621,18.420 19.607,18.420 19.593,18.420 C19.586,18.434 19.579,18.448 19.573,18.461 C19.559,18.461 19.545,18.461 19.531,18.461 C19.531,18.468 19.531,18.475 19.531,18.482 C19.518,18.482 19.504,18.482 19.490,18.482 C19.490,18.488 19.490,18.495 19.490,18.502 C19.476,18.502 19.463,18.502 19.449,18.502 C19.449,18.509 19.449,18.516 19.449,18.522 C19.435,18.522 19.421,18.522 19.408,18.522 C19.408,18.529 19.408,18.536 19.408,18.543 C19.394,18.543 19.380,18.543 19.366,18.543 C19.366,18.550 19.366,18.556 19.366,18.563 C19.353,18.563 19.339,18.563 19.325,18.563 C19.325,18.570 19.325,18.577 19.325,18.584 C19.311,18.584 19.298,18.584 19.284,18.584 C19.284,18.590 19.284,18.597 19.284,18.604 C19.243,18.618 19.201,18.631 19.160,18.645 C19.160,18.652 19.160,18.658 19.160,18.665 C19.140,18.665 19.119,18.665 19.098,18.665 C19.098,18.672 19.098,18.679 19.098,18.686 C19.085,18.686 19.071,18.686 19.057,18.686 C19.057,18.692 19.057,18.699 19.057,18.706 C19.030,18.713 19.002,18.720 18.975,18.726 C18.975,18.733 18.975,18.740 18.975,18.747 C18.954,18.747 18.933,18.747 18.913,18.747 C18.913,18.754 18.913,18.760 18.913,18.767 C18.885,18.774 18.858,18.781 18.830,18.788 C18.830,18.794 18.830,18.801 18.830,18.808 C18.810,18.808 18.789,18.808 18.768,18.808 C18.768,18.815 18.768,18.822 18.768,18.828 C18.755,18.828 18.741,18.828 18.727,18.828 C18.727,18.835 18.727,18.842 18.727,18.849 C18.707,18.849 18.686,18.849 18.665,18.849 C18.665,18.856 18.665,18.862 18.665,18.869 C18.652,18.869 18.638,18.869 18.624,18.869 C18.624,18.876 18.624,18.883 18.624,18.890 C18.583,18.896 18.542,18.903 18.500,18.910 C18.500,18.917 18.500,18.924 18.500,18.930 C18.487,18.930 18.473,18.930 18.459,18.930 C18.459,18.937 18.459,18.944 18.459,18.951 C18.418,18.958 18.377,18.964 18.335,18.971 C18.335,18.978 18.335,18.985 18.335,18.992 C18.315,18.992 18.294,18.992 18.274,18.992 C18.274,18.998 18.274,19.005 18.274,19.012 C18.253,19.012 18.232,19.012 18.212,19.012 C18.212,19.019 18.212,19.026 18.212,19.032 C18.191,19.032 18.170,19.032 18.150,19.032 C18.150,19.039 18.150,19.046 18.150,19.053 C18.129,19.053 18.109,19.053 18.088,19.053 C18.088,19.060 18.088,19.066 18.088,19.073 C18.067,19.073 18.047,19.073 18.026,19.073 C18.026,19.080 18.026,19.087 18.026,19.094 C17.999,19.094 17.971,19.094 17.944,19.094 C17.944,19.100 17.944,19.107 17.944,19.114 C17.923,19.114 17.902,19.114 17.882,19.114 C17.882,19.121 17.882,19.128 17.882,19.134 C17.854,19.134 17.827,19.134 17.799,19.134 C17.799,19.141 17.799,19.148 17.799,19.155 C17.772,19.155 17.744,19.155 17.717,19.155 C17.717,19.162 17.717,19.168 17.717,19.175 C17.696,19.175 17.676,19.175 17.655,19.175 C17.655,19.182 17.655,19.189 17.655,19.196 C17.593,19.202 17.531,19.209 17.469,19.216 C17.317,19.264 17.113,19.291 16.954,19.338 C16.913,19.338 16.871,19.338 16.830,19.338 C16.830,19.345 16.830,19.352 16.830,19.359 C16.782,19.359 16.734,19.359 16.686,19.359 C16.686,19.366 16.686,19.372 16.686,19.379 C16.631,19.379 16.576,19.379 16.521,19.379 C16.521,19.386 16.521,19.393 16.521,19.400 C16.356,19.406 16.191,19.413 16.026,19.420 C15.865,19.464 15.197,19.465 15.036,19.420 C14.947,19.420 14.858,19.420 14.768,19.420 C14.768,19.413 14.768,19.406 14.768,19.400 C14.699,19.400 14.631,19.400 14.562,19.400 C14.434,19.363 14.253,19.355 14.129,19.318 C14.088,19.318 14.046,19.318 14.005,19.318 C14.005,19.311 14.005,19.304 14.005,19.298 C13.964,19.298 13.923,19.298 13.882,19.298 C13.882,19.291 13.882,19.284 13.882,19.277 C13.847,19.277 13.813,19.277 13.778,19.277 C13.778,19.270 13.778,19.264 13.778,19.257 C13.717,19.250 13.655,19.243 13.593,19.236 C13.593,19.230 13.593,19.223 13.593,19.216 C13.565,19.216 13.538,19.216 13.510,19.216 C13.510,19.209 13.510,19.202 13.510,19.196 C13.483,19.196 13.455,19.196 13.428,19.196 C13.428,19.189 13.428,19.182 13.428,19.175 C13.400,19.175 13.373,19.175 13.345,19.175 C13.345,19.168 13.345,19.162 13.345,19.155 C13.297,19.148 13.249,19.141 13.201,19.134 C13.201,19.128 13.201,19.121 13.201,19.114 C13.153,19.107 13.105,19.100 13.057,19.094 C13.057,19.087 13.057,19.080 13.057,19.073 C13.036,19.073 13.016,19.073 12.995,19.073 C12.995,19.066 12.995,19.060 12.995,19.053 C12.974,19.053 12.954,19.053 12.933,19.053 C12.933,19.046 12.933,19.039 12.933,19.032 C12.912,19.032 12.892,19.032 12.871,19.032 C12.871,19.026 12.871,19.019 12.871,19.012 C12.851,19.012 12.830,19.012 12.809,19.012 C12.809,19.005 12.809,18.998 12.809,18.992 C12.789,18.992 12.768,18.992 12.747,18.992 C12.747,18.985 12.747,18.978 12.747,18.971 C12.686,18.958 12.624,18.944 12.562,18.930 C12.182,18.766 11.783,18.609 11.448,18.400 C11.435,18.400 11.421,18.400 11.407,18.400 C11.407,18.393 11.407,18.386 11.407,18.380 C11.393,18.380 11.380,18.380 11.366,18.380 C11.366,18.373 11.366,18.366 11.366,18.359 C11.352,18.359 11.338,18.359 11.325,18.359 C11.325,18.352 11.325,18.346 11.325,18.339 C11.311,18.339 11.297,18.339 11.283,18.339 C11.277,18.325 11.270,18.312 11.263,18.298 C11.249,18.298 11.235,18.298 11.222,18.298 C11.222,18.291 11.222,18.284 11.222,18.278 C11.208,18.278 11.194,18.278 11.180,18.278 C11.173,18.264 11.167,18.250 11.160,18.237 C11.132,18.230 11.105,18.223 11.077,18.216 C11.070,18.203 11.064,18.189 11.057,18.176 C11.043,18.176 11.029,18.176 11.015,18.176 C11.015,18.169 11.015,18.162 11.015,18.155 C11.002,18.155 10.988,18.155 10.974,18.155 C10.967,18.142 10.960,18.128 10.954,18.114 C10.940,18.114 10.926,18.114 10.912,18.114 C10.912,18.108 10.912,18.101 10.912,18.094 C10.892,18.087 10.871,18.080 10.850,18.074 C10.844,18.060 10.837,18.046 10.830,18.033 C10.816,18.033 10.802,18.033 10.789,18.033 C10.789,18.026 10.789,18.019 10.789,18.012 C10.768,18.006 10.747,17.999 10.727,17.992 C10.720,17.978 10.713,17.965 10.706,17.951 C10.692,17.951 10.679,17.951 10.665,17.951 C10.651,17.931 10.637,17.910 10.624,17.890 C10.610,17.890 10.596,17.890 10.582,17.890 C10.576,17.876 10.569,17.863 10.562,17.849 C10.548,17.849 10.534,17.849 10.521,17.849 C10.507,17.829 10.493,17.808 10.479,17.788 C10.466,17.788 10.452,17.788 10.438,17.788 C10.424,17.768 10.411,17.747 10.397,17.727 C10.383,17.727 10.369,17.727 10.356,17.727 C10.342,17.706 10.328,17.686 10.314,17.666 C10.301,17.666 10.287,17.666 10.273,17.666 C10.252,17.639 10.232,17.611 10.211,17.584 C10.197,17.584 10.184,17.584 10.170,17.584 C10.143,17.550 10.115,17.516 10.088,17.482 C10.074,17.482 10.060,17.482 10.046,17.482 C10.012,17.441 9.978,17.401 9.943,17.360 C9.929,17.360 9.916,17.360 9.902,17.360 C9.868,17.319 9.833,17.278 9.799,17.237 C9.778,17.224 9.758,17.210 9.737,17.197 C9.737,17.190 9.737,17.183 9.737,17.176 C9.723,17.176 9.709,17.176 9.696,17.176 C9.641,17.115 9.586,17.054 9.531,16.993 C9.462,16.931 9.393,16.870 9.325,16.809 C9.325,16.795 9.325,16.782 9.325,16.768 C9.256,16.707 9.187,16.646 9.118,16.585 C9.118,16.571 9.118,16.557 9.118,16.544 C9.084,16.517 9.050,16.489 9.015,16.462 C9.015,16.449 9.015,16.435 9.015,16.421 C8.981,16.394 8.947,16.367 8.912,16.340 C8.912,16.326 8.912,16.313 8.912,16.299 C8.885,16.279 8.857,16.258 8.830,16.238 C8.823,16.217 8.816,16.197 8.809,16.177 C8.795,16.170 8.782,16.163 8.768,16.156 C8.768,16.143 8.768,16.129 8.768,16.115 C8.747,16.102 8.727,16.088 8.706,16.075 C8.699,16.054 8.692,16.034 8.685,16.013 C8.672,16.007 8.658,16.000 8.644,15.993 C8.644,15.979 8.644,15.966 8.644,15.952 C8.630,15.945 8.617,15.939 8.603,15.932 C8.603,15.918 8.603,15.905 8.603,15.891 C8.582,15.877 8.562,15.864 8.541,15.850 C8.541,15.837 8.541,15.823 8.541,15.809 C8.527,15.803 8.514,15.796 8.500,15.789 C8.500,15.775 8.500,15.762 8.500,15.748 C8.486,15.741 8.472,15.735 8.459,15.728 C8.459,15.714 8.459,15.701 8.459,15.687 C8.445,15.680 8.431,15.673 8.417,15.667 C8.417,15.653 8.417,15.639 8.417,15.626 C8.404,15.619 8.390,15.612 8.376,15.605 C8.369,15.578 8.362,15.551 8.355,15.524 C8.349,15.524 8.342,15.524 8.335,15.524 C8.328,15.503 8.321,15.483 8.314,15.463 C8.300,15.456 8.287,15.449 8.273,15.442 C8.266,15.415 8.259,15.388 8.252,15.361 C8.239,15.354 8.225,15.347 8.211,15.340 C8.197,15.299 8.184,15.259 8.170,15.218 C8.156,15.211 8.142,15.204 8.129,15.197 C8.129,15.184 8.129,15.170 8.129,15.157 C8.122,15.157 8.115,15.157 8.108,15.157 C8.108,15.143 8.108,15.129 8.108,15.116 C8.101,15.116 8.094,15.116 8.087,15.116 C8.087,15.102 8.087,15.089 8.087,15.075 C8.081,15.075 8.074,15.075 8.067,15.075 C8.067,15.061 8.067,15.048 8.067,15.034 C8.060,15.034 8.053,15.034 8.046,15.034 C8.046,15.021 8.046,15.007 8.046,14.993 C8.032,14.987 8.019,14.980 8.005,14.973 C7.998,14.946 7.991,14.919 7.984,14.891 C7.977,14.891 7.971,14.891 7.964,14.891 C7.950,14.851 7.936,14.810 7.922,14.769 C7.916,14.769 7.909,14.769 7.902,14.769 C7.902,14.749 7.902,14.728 7.902,14.708 C7.895,14.708 7.888,14.708 7.881,14.708 C7.881,14.694 7.881,14.681 7.881,14.667 C7.874,14.667 7.867,14.667 7.861,14.667 C7.861,14.653 7.861,14.640 7.861,14.626 C7.854,14.626 7.847,14.626 7.840,14.626 C7.826,14.585 7.812,14.545 7.799,14.504 C7.792,14.504 7.785,14.504 7.778,14.504 C7.778,14.483 7.778,14.463 7.778,14.443 C7.771,14.443 7.764,14.443 7.758,14.443 C7.751,14.415 7.744,14.388 7.737,14.361 C7.730,14.361 7.723,14.361 7.716,14.361 C7.716,14.341 7.716,14.320 7.716,14.300 C7.709,14.300 7.703,14.300 7.696,14.300 C7.696,14.286 7.696,14.273 7.696,14.259 C7.689,14.259 7.682,14.259 7.675,14.259 C7.668,14.225 7.661,14.191 7.654,14.157 C7.648,14.157 7.641,14.157 7.634,14.157 C7.634,14.137 7.634,14.116 7.634,14.096 C7.627,14.096 7.620,14.096 7.613,14.096 C7.613,14.082 7.613,14.069 7.613,14.055 C7.606,14.055 7.599,14.055 7.593,14.055 C7.593,14.035 7.593,14.014 7.593,13.994 C7.586,13.994 7.579,13.994 7.572,13.994 C7.572,13.973 7.572,13.953 7.572,13.933 C7.565,13.933 7.558,13.933 7.551,13.933 C7.551,13.912 7.551,13.892 7.551,13.871 C7.544,13.871 7.538,13.871 7.531,13.871 C7.531,13.851 7.531,13.831 7.531,13.810 C7.524,13.810 7.517,13.810 7.510,13.810 C7.510,13.790 7.510,13.769 7.510,13.749 C7.503,13.749 7.496,13.749 7.489,13.749 C7.489,13.729 7.489,13.708 7.489,13.688 C7.483,13.688 7.476,13.688 7.469,13.688 C7.469,13.667 7.469,13.647 7.469,13.627 C7.462,13.627 7.455,13.627 7.448,13.627 C7.448,13.606 7.448,13.586 7.448,13.565 C7.441,13.565 7.434,13.565 7.428,13.565 C7.421,13.518 7.414,13.470 7.407,13.423 C7.400,13.423 7.393,13.423 7.386,13.423 C7.379,13.375 7.373,13.327 7.366,13.280 C7.359,13.280 7.352,13.280 7.345,13.280 C7.345,13.253 7.345,13.225 7.345,13.198 C7.338,13.198 7.331,13.198 7.324,13.198 C7.311,13.110 7.297,13.021 7.283,12.933 C7.276,12.933 7.270,12.933 7.263,12.933 C7.263,12.899 7.263,12.865 7.263,12.831 C7.232,12.734 7.210,12.585 7.180,12.484 C7.180,12.437 7.180,12.389 7.180,12.342 C7.173,12.342 7.166,12.342 7.160,12.342 C7.160,12.294 7.160,12.246 7.160,12.199 C7.153,12.199 7.146,12.199 7.139,12.199 C7.139,12.131 7.139,12.063 7.139,11.995 C7.132,11.995 7.125,11.995 7.118,11.995 C7.118,11.906 7.118,11.818 7.118,11.730 C7.071,11.559 7.098,11.283 7.098,11.077 C7.098,10.812 7.098,10.492 7.160,10.281 C7.160,10.227 7.160,10.172 7.160,10.118 C7.166,10.118 7.173,10.118 7.180,10.118 C7.180,10.070 7.180,10.023 7.180,9.975 C7.210,9.875 7.232,9.726 7.263,9.628 C7.263,9.594 7.263,9.560 7.263,9.526 C7.270,9.526 7.276,9.526 7.283,9.526 C7.283,9.499 7.283,9.472 7.283,9.445 C7.290,9.445 7.297,9.445 7.304,9.445 C7.304,9.418 7.304,9.390 7.304,9.363 C7.311,9.363 7.318,9.363 7.324,9.363 C7.324,9.336 7.324,9.309 7.324,9.282 C7.331,9.282 7.338,9.282 7.345,9.282 C7.345,9.254 7.345,9.227 7.345,9.200 C7.441,8.901 7.538,8.602 7.634,8.302 C7.641,8.302 7.648,8.302 7.654,8.302 C7.654,8.289 7.654,8.275 7.654,8.262 C7.661,8.262 7.668,8.262 7.675,8.262 C7.675,8.241 7.675,8.221 7.675,8.200 C7.682,8.200 7.689,8.200 7.696,8.200 C7.696,8.187 7.696,8.173 7.696,8.160 C7.703,8.160 7.709,8.160 7.716,8.160 C7.716,8.139 7.716,8.119 7.716,8.098 C7.723,8.098 7.730,8.098 7.737,8.098 C7.737,8.085 7.737,8.071 7.737,8.058 C7.744,8.058 7.751,8.058 7.758,8.058 C7.758,8.044 7.758,8.030 7.758,8.017 C7.764,8.017 7.771,8.017 7.778,8.017 C7.778,8.003 7.778,7.990 7.778,7.976 C7.785,7.976 7.792,7.976 7.799,7.976 C7.799,7.956 7.799,7.935 7.799,7.915 C7.806,7.915 7.812,7.915 7.819,7.915 C7.833,7.874 7.847,7.833 7.861,7.792 C7.867,7.792 7.874,7.792 7.881,7.792 C7.881,7.779 7.881,7.765 7.881,7.752 C7.888,7.752 7.895,7.752 7.902,7.752 C7.902,7.738 7.902,7.724 7.902,7.711 C7.909,7.711 7.916,7.711 7.922,7.711 C7.922,7.690 7.922,7.670 7.922,7.650 C7.936,7.643 7.950,7.636 7.964,7.629 C7.964,7.616 7.964,7.602 7.964,7.588 C7.971,7.588 7.977,7.588 7.984,7.588 C7.984,7.575 7.984,7.561 7.984,7.548 C7.991,7.548 7.998,7.548 8.005,7.548 C8.005,7.534 8.005,7.521 8.005,7.507 C8.012,7.507 8.019,7.507 8.026,7.507 C8.026,7.493 8.026,7.480 8.026,7.466 C8.032,7.466 8.039,7.466 8.046,7.466 C8.046,7.453 8.046,7.439 8.046,7.425 C8.053,7.425 8.060,7.425 8.067,7.425 C8.067,7.412 8.067,7.398 8.067,7.385 C8.074,7.385 8.081,7.385 8.087,7.385 C8.087,7.371 8.087,7.357 8.087,7.344 C8.094,7.344 8.101,7.344 8.108,7.344 C8.108,7.330 8.108,7.317 8.108,7.303 C8.122,7.296 8.136,7.289 8.149,7.283 C8.163,7.242 8.177,7.201 8.191,7.160 C8.204,7.153 8.218,7.147 8.232,7.140 C8.232,7.126 8.232,7.113 8.232,7.099 C8.239,7.099 8.246,7.099 8.252,7.099 C8.252,7.085 8.252,7.072 8.252,7.058 C8.266,7.051 8.280,7.045 8.294,7.038 C8.300,7.011 8.307,6.983 8.314,6.956 C8.321,6.956 8.328,6.956 8.335,6.956 C8.342,6.936 8.349,6.915 8.355,6.895 C8.369,6.888 8.383,6.881 8.397,6.875 C8.404,6.847 8.410,6.820 8.417,6.793 C8.431,6.786 8.445,6.779 8.459,6.773 C8.459,6.759 8.459,6.745 8.459,6.732 C8.479,6.718 8.500,6.705 8.520,6.691 C8.520,6.677 8.520,6.664 8.520,6.650 C8.527,6.650 8.534,6.650 8.541,6.650 C8.548,6.630 8.555,6.609 8.562,6.589 C8.575,6.582 8.589,6.575 8.603,6.569 C8.603,6.555 8.603,6.541 8.603,6.528 C8.624,6.514 8.644,6.501 8.665,6.487 C8.665,6.473 8.665,6.460 8.665,6.446 C8.679,6.439 8.692,6.433 8.706,6.426 C8.706,6.412 8.706,6.399 8.706,6.385 C8.720,6.378 8.734,6.371 8.747,6.365 C8.754,6.344 8.761,6.324 8.768,6.303 C8.795,6.283 8.823,6.263 8.850,6.242 C8.850,6.229 8.850,6.215 8.850,6.201 C8.878,6.181 8.905,6.161 8.933,6.140 C8.933,6.127 8.933,6.113 8.933,6.099 C8.960,6.079 8.988,6.059 9.015,6.038 C9.015,6.025 9.015,6.011 9.015,5.997 C9.063,5.957 9.112,5.916 9.160,5.875 C9.160,5.861 9.160,5.848 9.160,5.834 C9.235,5.766 9.311,5.698 9.386,5.630 C9.386,5.617 9.386,5.603 9.386,5.589 C9.414,5.569 9.441,5.549 9.469,5.528 C9.524,5.467 9.579,5.406 9.634,5.345 C9.648,5.345 9.661,5.345 9.675,5.345 C9.744,5.270 9.813,5.195 9.881,5.120 C9.895,5.120 9.909,5.120 9.923,5.120 C9.957,5.079 9.991,5.039 10.026,4.998 C10.039,4.998 10.053,4.998 10.067,4.998 C10.094,4.964 10.122,4.930 10.149,4.896 C10.163,4.896 10.177,4.896 10.191,4.896 C10.211,4.869 10.232,4.841 10.252,4.814 C10.266,4.814 10.280,4.814 10.294,4.814 C10.307,4.794 10.321,4.773 10.335,4.753 C10.349,4.753 10.362,4.753 10.376,4.753 C10.397,4.726 10.417,4.699 10.438,4.671 C10.452,4.671 10.466,4.671 10.479,4.671 C10.486,4.658 10.493,4.644 10.500,4.631 C10.514,4.631 10.527,4.631 10.541,4.631 C10.555,4.610 10.569,4.590 10.582,4.569 C10.596,4.569 10.610,4.569 10.624,4.569 C10.624,4.563 10.624,4.556 10.624,4.549 C10.644,4.542 10.665,4.535 10.685,4.529 C10.692,4.515 10.699,4.501 10.706,4.488 C10.720,4.488 10.734,4.488 10.747,4.488 C10.761,4.467 10.775,4.447 10.789,4.427 C10.816,4.420 10.844,4.413 10.871,4.406 C10.878,4.393 10.885,4.379 10.892,4.365 C10.905,4.365 10.919,4.365 10.933,4.365 C10.940,4.352 10.947,4.338 10.954,4.325 C10.967,4.325 10.981,4.325 10.995,4.325 C11.002,4.311 11.009,4.297 11.015,4.284 C11.043,4.277 11.070,4.270 11.098,4.263 C11.105,4.250 11.112,4.236 11.119,4.223 C11.146,4.216 11.173,4.209 11.201,4.202 C11.208,4.189 11.215,4.175 11.222,4.161 C11.249,4.155 11.277,4.148 11.304,4.141 C11.311,4.127 11.318,4.114 11.325,4.100 C11.338,4.100 11.352,4.100 11.366,4.100 C11.366,4.093 11.366,4.087 11.366,4.080 C11.380,4.080 11.393,4.080 11.407,4.080 C11.407,4.073 11.407,4.066 11.407,4.059 C11.421,4.059 11.435,4.059 11.448,4.059 C11.448,4.053 11.448,4.046 11.448,4.039 C11.462,4.039 11.476,4.039 11.490,4.039 C11.497,4.025 11.503,4.012 11.510,3.998 C11.524,3.998 11.538,3.998 11.552,3.998 C11.552,3.991 11.552,3.985 11.552,3.978 C11.565,3.978 11.579,3.978 11.593,3.978 C11.593,3.971 11.593,3.964 11.593,3.957 C11.607,3.957 11.620,3.957 11.634,3.957 C11.634,3.951 11.634,3.944 11.634,3.937 C11.648,3.937 11.661,3.937 11.675,3.937 C11.675,3.930 11.675,3.923 11.675,3.917 C11.689,3.917 11.703,3.917 11.716,3.917 C11.716,3.910 11.716,3.903 11.716,3.896 C11.730,3.896 11.744,3.896 11.758,3.896 C11.758,3.889 11.758,3.883 11.758,3.876 C11.799,3.862 11.840,3.849 11.881,3.835 C11.881,3.828 11.881,3.821 11.881,3.815 C11.902,3.815 11.923,3.815 11.943,3.815 C11.943,3.808 11.943,3.801 11.943,3.794 C11.957,3.794 11.971,3.794 11.985,3.794 C11.985,3.787 11.985,3.781 11.985,3.774 C12.026,3.760 12.067,3.747 12.108,3.733 C12.108,3.726 12.108,3.719 12.108,3.713 C12.129,3.713 12.149,3.713 12.170,3.713 C12.170,3.706 12.170,3.699 12.170,3.692 C12.198,3.685 12.225,3.679 12.253,3.672 C12.253,3.665 12.253,3.658 12.253,3.651 C12.273,3.651 12.294,3.651 12.314,3.651 C12.314,3.645 12.314,3.638 12.314,3.631 C12.328,3.631 12.342,3.631 12.356,3.631 C12.356,3.624 12.356,3.617 12.356,3.611 C12.376,3.611 12.397,3.611 12.418,3.611 C12.418,3.604 12.418,3.597 12.418,3.590 C12.431,3.590 12.445,3.590 12.459,3.590 C12.459,3.583 12.459,3.577 12.459,3.570 C12.500,3.563 12.541,3.556 12.583,3.549 C12.583,3.543 12.583,3.536 12.583,3.529 C12.596,3.529 12.610,3.529 12.624,3.529 C12.624,3.522 12.624,3.515 12.624,3.509 C12.665,3.502 12.706,3.495 12.747,3.488 C12.747,3.481 12.747,3.475 12.747,3.468 C12.768,3.468 12.789,3.468 12.809,3.468 C12.809,3.461 12.809,3.454 12.809,3.447 C12.830,3.447 12.851,3.447 12.871,3.447 C12.871,3.441 12.871,3.434 12.871,3.427 C12.892,3.427 12.912,3.427 12.933,3.427 C12.933,3.420 12.933,3.413 12.933,3.407 C12.954,3.407 12.974,3.407 12.995,3.407 C12.995,3.400 12.995,3.393 12.995,3.386 C13.022,3.386 13.050,3.386 13.077,3.386 C13.077,3.379 13.077,3.373 13.077,3.366 C13.098,3.366 13.119,3.366 13.139,3.366 C13.139,3.359 13.139,3.352 13.139,3.345 C13.187,3.339 13.235,3.332 13.284,3.325 C13.284,3.318 13.284,3.311 13.284,3.305 C13.339,3.298 13.394,3.291 13.449,3.284 C13.449,3.277 13.449,3.271 13.449,3.264 C13.504,3.257 13.559,3.250 13.613,3.243 C13.613,3.237 13.613,3.230 13.613,3.223 C13.648,3.223 13.682,3.223 13.717,3.223 C13.717,3.216 13.717,3.209 13.717,3.203 C13.744,3.203 13.772,3.203 13.799,3.203 C13.799,3.196 13.799,3.189 13.799,3.182 C13.833,3.182 13.868,3.182 13.902,3.182 C13.902,3.175 13.902,3.169 13.902,3.162 C13.943,3.162 13.985,3.162 14.026,3.162 C14.139,3.129 14.302,3.113 14.418,3.080 C14.548,3.073 14.679,3.067 14.809,3.060 C14.809,3.053 14.809,3.046 14.809,3.039 C14.906,3.039 15.002,3.039 15.098,3.039 C15.161,3.022 15.568,2.991 15.655,3.019 C15.655,3.026 15.655,3.033 15.655,3.039 C15.675,3.039 15.696,3.039 15.717,3.039 C15.717,3.046 15.717,3.053 15.717,3.060 C15.737,3.060 15.758,3.060 15.779,3.060 C15.785,3.073 15.792,3.087 15.799,3.101 C15.813,3.101 15.827,3.101 15.840,3.101 C15.847,3.114 15.854,3.128 15.861,3.141 C15.875,3.141 15.889,3.141 15.902,3.141 C15.902,3.148 15.902,3.155 15.902,3.162 C15.916,3.169 15.930,3.175 15.944,3.182 C15.944,3.196 15.944,3.209 15.944,3.223 C15.964,3.237 15.985,3.250 16.005,3.264 C16.005,3.277 16.005,3.291 16.005,3.305 C16.054,3.398 16.091,3.504 16.047,3.631 C16.047,3.658 16.047,3.685 16.047,3.713 C16.040,3.713 16.033,3.713 16.026,3.713 C15.989,3.864 15.818,3.993 15.675,4.039 C15.552,4.039 15.428,4.039 15.304,4.039 C15.304,4.046 15.304,4.053 15.304,4.059 C15.181,4.059 15.057,4.059 14.933,4.059 C14.933,4.066 14.933,4.073 14.933,4.080 C14.858,4.080 14.782,4.080 14.706,4.080 C14.706,4.087 14.706,4.093 14.706,4.100 C14.651,4.100 14.596,4.100 14.541,4.100 C14.541,4.107 14.541,4.114 14.541,4.121 C14.493,4.121 14.445,4.121 14.397,4.121 C14.296,4.150 14.145,4.172 14.047,4.202 C14.012,4.202 13.978,4.202 13.943,4.202 C13.943,4.209 13.943,4.216 13.943,4.223 C13.861,4.236 13.778,4.250 13.696,4.263 C13.696,4.270 13.696,4.277 13.696,4.284 C13.641,4.291 13.586,4.297 13.531,4.304 C13.531,4.311 13.531,4.318 13.531,4.325 C13.483,4.331 13.435,4.338 13.387,4.345 C13.387,4.352 13.387,4.359 13.387,4.365 C13.366,4.365 13.345,4.365 13.325,4.365 C13.325,4.372 13.325,4.379 13.325,4.386 C13.304,4.386 13.284,4.386 13.263,4.386 C13.263,4.393 13.263,4.399 13.263,4.406 C13.242,4.406 13.222,4.406 13.201,4.406 C13.201,4.413 13.201,4.420 13.201,4.427 C13.180,4.427 13.160,4.427 13.139,4.427 C13.139,4.433 13.139,4.440 13.139,4.447 C13.077,4.461 13.016,4.474 12.954,4.488 C12.954,4.495 12.954,4.501 12.954,4.508 C12.940,4.508 12.926,4.508 12.912,4.508 C12.912,4.515 12.912,4.522 12.912,4.529 C12.871,4.535 12.830,4.542 12.789,4.549 C12.789,4.556 12.789,4.563 12.789,4.569 C12.775,4.569 12.761,4.569 12.747,4.569 C12.747,4.576 12.747,4.583 12.747,4.590 C12.727,4.590 12.706,4.590 12.686,4.590 C12.686,4.597 12.686,4.603 12.686,4.610 C12.658,4.617 12.631,4.624 12.603,4.631 C12.603,4.637 12.603,4.644 12.603,4.651 C12.583,4.651 12.562,4.651 12.541,4.651 C12.541,4.658 12.541,4.665 12.541,4.671 C12.528,4.671 12.514,4.671 12.500,4.671 C12.500,4.678 12.500,4.685 12.500,4.692 C12.473,4.699 12.445,4.705 12.418,4.712 C12.418,4.719 12.418,4.726 12.418,4.733 C12.397,4.733 12.376,4.733 12.356,4.733 C12.356,4.739 12.356,4.746 12.356,4.753 C12.314,4.767 12.273,4.780 12.232,4.794 C12.232,4.801 12.232,4.807 12.232,4.814 C12.218,4.814 12.204,4.814 12.191,4.814 C12.191,4.821 12.191,4.828 12.191,4.835 C12.177,4.835 12.163,4.835 12.149,4.835 C12.149,4.841 12.149,4.848 12.149,4.855 C12.108,4.869 12.067,4.882 12.026,4.896 C12.019,4.909 12.012,4.923 12.005,4.937 C11.991,4.937 11.978,4.937 11.964,4.937 C11.964,4.943 11.964,4.950 11.964,4.957 C11.950,4.957 11.936,4.957 11.923,4.957 C11.923,4.964 11.923,4.971 11.923,4.977 C11.909,4.977 11.895,4.977 11.881,4.977 C11.881,4.984 11.881,4.991 11.881,4.998 C11.868,4.998 11.854,4.998 11.840,4.998 C11.833,5.011 11.826,5.025 11.820,5.039 C11.806,5.039 11.792,5.039 11.778,5.039 C11.778,5.045 11.778,5.052 11.778,5.059 C11.765,5.059 11.751,5.059 11.737,5.059 C11.737,5.066 11.737,5.073 11.737,5.079 C11.723,5.079 11.710,5.079 11.696,5.079 C11.696,5.086 11.696,5.093 11.696,5.100 C11.675,5.107 11.655,5.113 11.634,5.120 C11.627,5.134 11.620,5.147 11.613,5.161 C11.586,5.168 11.558,5.175 11.531,5.181 C11.531,5.188 11.531,5.195 11.531,5.202 C11.510,5.209 11.490,5.215 11.469,5.222 C11.462,5.236 11.455,5.249 11.448,5.263 C11.435,5.263 11.421,5.263 11.407,5.263 C11.400,5.277 11.393,5.290 11.387,5.304 C11.373,5.304 11.359,5.304 11.345,5.304 C11.345,5.311 11.345,5.317 11.345,5.324 C11.325,5.331 11.304,5.338 11.283,5.345 C11.277,5.358 11.270,5.372 11.263,5.385 C11.249,5.385 11.235,5.385 11.222,5.385 C11.208,5.406 11.194,5.426 11.180,5.447 C11.167,5.447 11.153,5.447 11.139,5.447 C11.125,5.467 11.112,5.487 11.098,5.508 C11.084,5.508 11.070,5.508 11.057,5.508 C11.043,5.528 11.029,5.549 11.015,5.569 C11.002,5.569 10.988,5.569 10.974,5.569 C10.954,5.596 10.933,5.623 10.912,5.651 C10.899,5.651 10.885,5.651 10.871,5.651 C10.850,5.678 10.830,5.705 10.809,5.732 C10.795,5.732 10.782,5.732 10.768,5.732 C10.740,5.766 10.713,5.800 10.685,5.834 C10.672,5.834 10.658,5.834 10.644,5.834 C10.589,5.895 10.534,5.957 10.479,6.018 C10.466,6.018 10.452,6.018 10.438,6.018 C10.383,6.079 10.328,6.140 10.273,6.201 C10.211,6.256 10.149,6.310 10.088,6.365 C10.088,6.378 10.088,6.392 10.088,6.405 C10.081,6.405 10.074,6.405 10.067,6.405 C10.053,6.426 10.039,6.446 10.026,6.467 C9.984,6.501 9.943,6.535 9.902,6.569 C9.902,6.582 9.902,6.596 9.902,6.609 C9.868,6.637 9.833,6.664 9.799,6.691 C9.799,6.705 9.799,6.718 9.799,6.732 C9.771,6.752 9.744,6.773 9.716,6.793 C9.716,6.807 9.716,6.820 9.716,6.834 C9.689,6.854 9.661,6.875 9.634,6.895 C9.634,6.909 9.634,6.922 9.634,6.936 C9.613,6.949 9.593,6.963 9.572,6.977 C9.565,6.997 9.558,7.017 9.551,7.038 C9.538,7.045 9.524,7.051 9.510,7.058 C9.510,7.072 9.510,7.085 9.510,7.099 C9.496,7.106 9.483,7.113 9.469,7.119 C9.469,7.133 9.469,7.147 9.469,7.160 C9.448,7.174 9.428,7.187 9.407,7.201 C9.407,7.215 9.407,7.228 9.407,7.242 C9.393,7.249 9.380,7.255 9.366,7.262 C9.366,7.276 9.366,7.289 9.366,7.303 C9.352,7.310 9.338,7.317 9.325,7.323 C9.318,7.344 9.311,7.364 9.304,7.385 C9.297,7.385 9.290,7.385 9.283,7.385 C9.276,7.412 9.270,7.439 9.263,7.466 C9.256,7.466 9.249,7.466 9.242,7.466 C9.235,7.487 9.228,7.507 9.222,7.527 C9.208,7.534 9.194,7.541 9.180,7.548 C9.180,7.561 9.180,7.575 9.180,7.588 C9.173,7.588 9.167,7.588 9.160,7.588 C9.160,7.602 9.160,7.616 9.160,7.629 C9.146,7.636 9.132,7.643 9.118,7.650 C9.105,7.690 9.091,7.731 9.077,7.772 C9.063,7.779 9.050,7.786 9.036,7.792 C9.036,7.806 9.036,7.820 9.036,7.833 C9.029,7.833 9.022,7.833 9.015,7.833 C9.015,7.847 9.015,7.860 9.015,7.874 C9.008,7.874 9.002,7.874 8.995,7.874 C8.995,7.888 8.995,7.901 8.995,7.915 C8.988,7.915 8.981,7.915 8.974,7.915 C8.974,7.928 8.974,7.942 8.974,7.956 C8.967,7.956 8.960,7.956 8.953,7.956 C8.953,7.969 8.953,7.983 8.953,7.996 C8.947,7.996 8.940,7.996 8.933,7.996 C8.933,8.010 8.933,8.024 8.933,8.037 C8.926,8.037 8.919,8.037 8.912,8.037 C8.912,8.051 8.912,8.064 8.912,8.078 C8.905,8.078 8.898,8.078 8.892,8.078 C8.892,8.092 8.892,8.105 8.892,8.119 C8.885,8.119 8.878,8.119 8.871,8.119 C8.871,8.132 8.871,8.146 8.871,8.160 C8.864,8.160 8.857,8.160 8.850,8.160 C8.850,8.173 8.850,8.187 8.850,8.200 C8.843,8.200 8.837,8.200 8.830,8.200 C8.823,8.228 8.816,8.255 8.809,8.282 C8.802,8.282 8.795,8.282 8.788,8.282 C8.788,8.296 8.788,8.309 8.788,8.323 C8.782,8.323 8.775,8.323 8.768,8.323 C8.768,8.343 8.768,8.364 8.768,8.384 C8.761,8.384 8.754,8.384 8.747,8.384 C8.740,8.411 8.734,8.438 8.727,8.466 C8.720,8.466 8.713,8.466 8.706,8.466 C8.706,8.486 8.706,8.506 8.706,8.527 C8.699,8.527 8.692,8.527 8.685,8.527 C8.685,8.540 8.685,8.554 8.685,8.568 C8.679,8.568 8.672,8.568 8.665,8.568 C8.658,8.602 8.651,8.636 8.644,8.670 C8.637,8.670 8.630,8.670 8.624,8.670 C8.624,8.690 8.624,8.710 8.624,8.731 C8.617,8.731 8.610,8.731 8.603,8.731 C8.603,8.744 8.603,8.758 8.603,8.772 C8.596,8.772 8.589,8.772 8.582,8.772 C8.493,9.071 8.404,9.370 8.314,9.669 C8.300,9.771 8.287,9.873 8.273,9.975 C8.266,9.975 8.259,9.975 8.252,9.975 C8.252,10.016 8.252,10.057 8.252,10.098 C8.246,10.098 8.239,10.098 8.232,10.098 C8.232,10.138 8.232,10.179 8.232,10.220 C8.225,10.220 8.218,10.220 8.211,10.220 C8.211,10.274 8.211,10.329 8.211,10.383 C8.204,10.383 8.197,10.383 8.191,10.383 C8.191,10.451 8.191,10.519 8.191,10.587 C8.184,10.587 8.177,10.587 8.170,10.587 C8.170,10.676 8.170,10.764 8.170,10.852 C8.163,10.852 8.156,10.852 8.149,10.852 C8.149,10.927 8.149,11.002 8.149,11.077 C8.149,11.246 8.131,11.472 8.170,11.607 C8.170,11.702 8.170,11.798 8.170,11.893 C8.177,11.893 8.184,11.893 8.191,11.893 C8.191,11.954 8.191,12.015 8.191,12.076 C8.197,12.076 8.204,12.076 8.211,12.076 C8.211,12.131 8.211,12.185 8.211,12.240 C8.218,12.240 8.225,12.240 8.232,12.240 C8.232,12.280 8.232,12.321 8.232,12.362 C8.239,12.362 8.246,12.362 8.252,12.362 C8.252,12.403 8.252,12.444 8.252,12.484 C8.259,12.484 8.266,12.484 8.273,12.484 C8.280,12.552 8.287,12.620 8.294,12.688 C8.300,12.688 8.307,12.688 8.314,12.688 C8.314,12.722 8.314,12.756 8.314,12.790 C8.321,12.790 8.328,12.790 8.335,12.790 C8.335,12.817 8.335,12.845 8.335,12.872 C8.342,12.872 8.349,12.872 8.355,12.872 C8.355,12.899 8.355,12.926 8.355,12.953 C8.362,12.953 8.369,12.953 8.376,12.953 C8.376,12.981 8.376,13.008 8.376,13.035 C8.383,13.035 8.390,13.035 8.397,13.035 C8.397,13.062 8.397,13.089 8.397,13.117 C8.404,13.117 8.410,13.117 8.417,13.117 C8.424,13.164 8.431,13.212 8.438,13.259 C8.445,13.259 8.452,13.259 8.459,13.259 C8.459,13.280 8.459,13.300 8.459,13.321 C8.465,13.321 8.472,13.321 8.479,13.321 C8.479,13.341 8.479,13.361 8.479,13.382 C8.486,13.382 8.493,13.382 8.500,13.382 C8.500,13.402 8.500,13.423 8.500,13.443 C8.507,13.443 8.514,13.443 8.520,13.443 C8.520,13.463 8.520,13.484 8.520,13.504 C8.527,13.504 8.534,13.504 8.541,13.504 C8.541,13.525 8.541,13.545 8.541,13.565 C8.548,13.565 8.555,13.565 8.562,13.565 C8.569,13.606 8.575,13.647 8.582,13.688 C8.589,13.688 8.596,13.688 8.603,13.688 C8.603,13.701 8.603,13.715 8.603,13.729 C8.610,13.729 8.617,13.729 8.624,13.729 C8.630,13.769 8.637,13.810 8.644,13.851 C8.651,13.851 8.658,13.851 8.665,13.851 C8.672,13.878 8.679,13.905 8.685,13.933 C8.692,13.933 8.699,13.933 8.706,13.933 C8.706,13.953 8.706,13.973 8.706,13.994 C8.713,13.994 8.720,13.994 8.727,13.994 C8.734,14.021 8.740,14.048 8.747,14.075 C8.754,14.075 8.761,14.075 8.768,14.075 C8.768,14.096 8.768,14.116 8.768,14.137 C8.775,14.137 8.782,14.137 8.788,14.137 C8.788,14.150 8.788,14.164 8.788,14.177 C8.795,14.177 8.802,14.177 8.809,14.177 C8.816,14.205 8.823,14.232 8.830,14.259 C8.837,14.259 8.843,14.259 8.850,14.259 C8.850,14.273 8.850,14.286 8.850,14.300 C8.857,14.300 8.864,14.300 8.871,14.300 C8.871,14.313 8.871,14.327 8.871,14.341 C8.878,14.341 8.885,14.341 8.892,14.341 C8.892,14.354 8.892,14.368 8.892,14.381 C8.898,14.381 8.905,14.381 8.912,14.381 C8.912,14.395 8.912,14.409 8.912,14.422 C8.919,14.422 8.926,14.422 8.933,14.422 C8.933,14.436 8.933,14.449 8.933,14.463 C8.940,14.463 8.947,14.463 8.953,14.463 C8.953,14.477 8.953,14.490 8.953,14.504 C8.960,14.504 8.967,14.504 8.974,14.504 C8.974,14.517 8.974,14.531 8.974,14.545 C8.981,14.545 8.988,14.545 8.995,14.545 C8.995,14.558 8.995,14.572 8.995,14.585 C9.002,14.585 9.008,14.585 9.015,14.585 C9.015,14.599 9.015,14.613 9.015,14.626 C9.022,14.626 9.029,14.626 9.036,14.626 C9.036,14.640 9.036,14.653 9.036,14.667 C9.050,14.674 9.063,14.681 9.077,14.687 C9.091,14.728 9.105,14.769 9.118,14.810 C9.132,14.817 9.146,14.823 9.160,14.830 C9.160,14.844 9.160,14.857 9.160,14.871 C9.167,14.871 9.173,14.871 9.180,14.871 C9.180,14.885 9.180,14.898 9.180,14.912 C9.194,14.919 9.208,14.925 9.222,14.932 C9.228,14.959 9.235,14.987 9.242,15.014 C9.256,15.021 9.270,15.027 9.283,15.034 C9.283,15.048 9.283,15.061 9.283,15.075 C9.297,15.082 9.311,15.089 9.325,15.095 C9.325,15.109 9.325,15.123 9.325,15.136 C9.338,15.143 9.352,15.150 9.366,15.157 C9.366,15.170 9.366,15.184 9.366,15.197 C9.380,15.204 9.393,15.211 9.407,15.218 C9.407,15.231 9.407,15.245 9.407,15.259 C9.421,15.265 9.435,15.272 9.448,15.279 C9.448,15.293 9.448,15.306 9.448,15.320 C9.469,15.333 9.490,15.347 9.510,15.361 C9.510,15.374 9.510,15.388 9.510,15.401 C9.531,15.415 9.551,15.429 9.572,15.442 C9.572,15.456 9.572,15.469 9.572,15.483 C9.593,15.497 9.613,15.510 9.634,15.524 C9.634,15.537 9.634,15.551 9.634,15.565 C9.655,15.578 9.675,15.592 9.696,15.605 C9.696,15.619 9.696,15.633 9.696,15.646 C9.723,15.667 9.751,15.687 9.778,15.707 C9.778,15.721 9.778,15.735 9.778,15.748 C9.819,15.782 9.861,15.816 9.902,15.850 C10.076,16.088 10.280,16.310 10.521,16.483 C10.569,16.537 10.617,16.591 10.665,16.646 C10.679,16.646 10.692,16.646 10.706,16.646 C10.734,16.680 10.761,16.714 10.789,16.748 C10.802,16.748 10.816,16.748 10.830,16.748 C10.850,16.775 10.871,16.802 10.892,16.829 C10.905,16.829 10.919,16.829 10.933,16.829 C10.954,16.857 10.974,16.884 10.995,16.911 C11.009,16.911 11.022,16.911 11.036,16.911 C11.050,16.931 11.064,16.952 11.077,16.972 C11.091,16.972 11.105,16.972 11.119,16.972 C11.125,16.986 11.132,16.999 11.139,17.013 C11.153,17.013 11.167,17.013 11.180,17.013 C11.194,17.033 11.208,17.054 11.222,17.074 C11.235,17.074 11.249,17.074 11.263,17.074 C11.270,17.088 11.277,17.101 11.283,17.115 C11.304,17.122 11.325,17.129 11.345,17.135 C11.345,17.142 11.345,17.149 11.345,17.156 C11.359,17.156 11.373,17.156 11.387,17.156 C11.393,17.169 11.400,17.183 11.407,17.197 C11.421,17.197 11.435,17.197 11.448,17.197 C11.455,17.210 11.462,17.224 11.469,17.237 C11.483,17.237 11.497,17.237 11.510,17.237 C11.517,17.251 11.524,17.265 11.531,17.278 C11.545,17.278 11.558,17.278 11.572,17.278 C11.579,17.292 11.586,17.305 11.593,17.319 C11.620,17.326 11.648,17.333 11.675,17.339 C11.682,17.353 11.689,17.367 11.696,17.380 C11.710,17.380 11.723,17.380 11.737,17.380 C11.737,17.387 11.737,17.394 11.737,17.401 C11.751,17.401 11.765,17.401 11.778,17.401 C11.785,17.414 11.792,17.428 11.799,17.441 C11.813,17.441 11.826,17.441 11.840,17.441 C11.840,17.448 11.840,17.455 11.840,17.462 C11.854,17.462 11.868,17.462 11.881,17.462 C11.881,17.469 11.881,17.475 11.881,17.482 C11.895,17.482 11.909,17.482 11.923,17.482 C11.923,17.489 11.923,17.496 11.923,17.503 C11.936,17.503 11.950,17.503 11.964,17.503 C11.971,17.516 11.978,17.530 11.985,17.543 C11.998,17.543 12.012,17.543 12.026,17.543 C12.026,17.550 12.026,17.557 12.026,17.564 C12.040,17.564 12.053,17.564 12.067,17.564 C12.067,17.571 12.067,17.577 12.067,17.584 C12.081,17.584 12.095,17.584 12.108,17.584 C12.108,17.591 12.108,17.598 12.108,17.605 C12.122,17.605 12.136,17.605 12.149,17.605 C12.149,17.611 12.149,17.618 12.149,17.625 C12.163,17.625 12.177,17.625 12.191,17.625 C12.191,17.632 12.191,17.639 12.191,17.645 C12.204,17.645 12.218,17.645 12.232,17.645 C12.232,17.652 12.232,17.659 12.232,17.666 C12.246,17.666 12.259,17.666 12.273,17.666 C12.273,17.672 12.273,17.679 12.273,17.686 C12.314,17.700 12.356,17.713 12.397,17.727 C12.397,17.734 12.397,17.740 12.397,17.747 C12.431,17.754 12.466,17.761 12.500,17.768 C12.500,17.774 12.500,17.781 12.500,17.788 C12.528,17.795 12.555,17.802 12.583,17.808 C12.583,17.815 12.583,17.822 12.583,17.829 C12.603,17.829 12.624,17.829 12.644,17.829 C12.644,17.836 12.644,17.842 12.644,17.849 C12.658,17.849 12.672,17.849 12.686,17.849 C12.686,17.856 12.686,17.863 12.686,17.870 C12.706,17.870 12.727,17.870 12.747,17.870 C12.747,17.876 12.747,17.883 12.747,17.890 C12.761,17.890 12.775,17.890 12.789,17.890 C12.789,17.897 12.789,17.904 12.789,17.910 C12.809,17.910 12.830,17.910 12.851,17.910 C12.851,17.917 12.851,17.924 12.851,17.931 C12.864,17.931 12.878,17.931 12.892,17.931 C12.892,17.938 12.892,17.944 12.892,17.951 C12.933,17.958 12.974,17.965 13.016,17.972 C13.016,17.978 13.016,17.985 13.016,17.992 C13.029,17.992 13.043,17.992 13.057,17.992 C13.057,17.999 13.057,18.006 13.057,18.012 C13.146,18.033 13.235,18.053 13.325,18.074 C13.325,18.080 13.325,18.087 13.325,18.094 C13.345,18.094 13.366,18.094 13.387,18.094 C13.387,18.101 13.387,18.108 13.387,18.114 C13.407,18.114 13.428,18.114 13.449,18.114 C13.449,18.121 13.449,18.128 13.449,18.135 C13.476,18.135 13.504,18.135 13.531,18.135 C14.642,18.525 16.522,18.501 17.614,18.114 C17.641,18.114 17.669,18.114 17.696,18.114 C17.696,18.108 17.696,18.101 17.696,18.094 C17.717,18.094 17.737,18.094 17.758,18.094 C17.758,18.087 17.758,18.080 17.758,18.074 C17.779,18.074 17.799,18.074 17.820,18.074 C17.820,18.067 17.820,18.060 17.820,18.053 C17.841,18.053 17.861,18.053 17.882,18.053 C17.882,18.046 17.882,18.040 17.882,18.033 C17.902,18.033 17.923,18.033 17.944,18.033 C17.944,18.026 17.944,18.019 17.944,18.012 C17.964,18.012 17.985,18.012 18.005,18.012 C18.005,18.006 18.005,17.999 18.005,17.992 C18.026,17.992 18.047,17.992 18.067,17.992 C18.067,17.985 18.067,17.978 18.067,17.972 C18.109,17.965 18.150,17.958 18.191,17.951 C18.191,17.944 18.191,17.938 18.191,17.931 C18.205,17.931 18.219,17.931 18.232,17.931 C18.232,17.924 18.232,17.917 18.232,17.910 C18.253,17.910 18.274,17.910 18.294,17.910 C18.294,17.904 18.294,17.897 18.294,17.890 C18.308,17.890 18.322,17.890 18.335,17.890 C18.335,17.883 18.335,17.876 18.335,17.870 C18.356,17.870 18.377,17.870 18.397,17.870 C18.397,17.863 18.397,17.856 18.397,17.849 C18.425,17.842 18.452,17.836 18.480,17.829 C18.480,17.822 18.480,17.815 18.480,17.808 C18.500,17.808 18.521,17.808 18.542,17.808 C18.542,17.802 18.542,17.795 18.542,17.788 C18.555,17.788 18.569,17.788 18.583,17.788 C18.583,17.781 18.583,17.774 18.583,17.768 C18.610,17.761 18.638,17.754 18.665,17.747 C18.665,17.740 18.665,17.734 18.665,17.727 C18.686,17.727 18.707,17.727 18.727,17.727 C18.727,17.720 18.727,17.713 18.727,17.706 C18.768,17.693 18.810,17.679 18.851,17.666 C18.851,17.659 18.851,17.652 18.851,17.645 C18.865,17.645 18.878,17.645 18.892,17.645 C18.892,17.639 18.892,17.632 18.892,17.625 C18.906,17.625 18.920,17.625 18.933,17.625 C18.933,17.618 18.933,17.611 18.933,17.605 C18.975,17.591 19.016,17.577 19.057,17.564 C19.064,17.550 19.071,17.537 19.078,17.523 C19.091,17.523 19.105,17.523 19.119,17.523 C19.119,17.516 19.119,17.509 19.119,17.503 C19.133,17.503 19.146,17.503 19.160,17.503 C19.160,17.496 19.160,17.489 19.160,17.482 C19.174,17.482 19.188,17.482 19.201,17.482 C19.201,17.475 19.201,17.469 19.201,17.462 C19.215,17.462 19.229,17.462 19.243,17.462 C19.250,17.448 19.256,17.435 19.263,17.421 C19.291,17.414 19.318,17.407 19.346,17.401 C19.353,17.387 19.360,17.373 19.366,17.360 C19.394,17.353 19.421,17.346 19.449,17.339 C19.456,17.326 19.463,17.312 19.469,17.299 C19.497,17.292 19.524,17.285 19.552,17.278 C19.552,17.271 19.552,17.265 19.552,17.258 C19.573,17.251 19.593,17.244 19.614,17.237 C19.621,17.224 19.628,17.210 19.634,17.197 C19.648,17.197 19.662,17.197 19.676,17.197 C19.676,17.190 19.676,17.183 19.676,17.176 C19.696,17.169 19.717,17.163 19.738,17.156 C19.744,17.142 19.751,17.129 19.758,17.115 C19.772,17.115 19.786,17.115 19.799,17.115 C19.813,17.095 19.827,17.074 19.841,17.054 C19.854,17.054 19.868,17.054 19.882,17.054 C19.889,17.040 19.896,17.027 19.902,17.013 C19.916,17.013 19.930,17.013 19.944,17.013 C19.951,16.999 19.957,16.986 19.964,16.972 C19.985,16.965 20.006,16.959 20.026,16.952 C20.040,16.931 20.054,16.911 20.067,16.891 C20.081,16.891 20.095,16.891 20.109,16.891 C20.129,16.863 20.150,16.836 20.171,16.809 C20.184,16.809 20.198,16.809 20.212,16.809 C20.232,16.782 20.253,16.755 20.274,16.727 C20.287,16.727 20.301,16.727 20.315,16.727 C20.349,16.687 20.384,16.646 20.418,16.605 C20.432,16.605 20.445,16.605 20.459,16.605 C20.521,16.537 20.583,16.469 20.645,16.401 C20.659,16.401 20.672,16.401 20.686,16.401 C20.714,16.367 20.741,16.333 20.769,16.299 C20.830,16.245 20.892,16.190 20.954,16.136 C20.954,16.122 20.954,16.109 20.954,16.095 C21.023,16.034 21.092,15.973 21.160,15.911 C21.160,15.898 21.160,15.884 21.160,15.871 C21.195,15.843 21.229,15.816 21.263,15.789 C21.263,15.775 21.263,15.762 21.263,15.748 C21.298,15.721 21.332,15.694 21.366,15.667 C21.366,15.653 21.366,15.639 21.366,15.626 C21.387,15.612 21.408,15.599 21.428,15.585 C21.428,15.571 21.428,15.558 21.428,15.544 C21.449,15.531 21.470,15.517 21.490,15.503 C21.490,15.490 21.490,15.476 21.490,15.463 C21.511,15.449 21.531,15.435 21.552,15.422 C21.552,15.408 21.552,15.395 21.552,15.381 C21.573,15.367 21.593,15.354 21.614,15.340 C21.614,15.327 21.614,15.313 21.614,15.299 C21.628,15.293 21.641,15.286 21.655,15.279 C21.655,15.265 21.655,15.252 21.655,15.238 C21.669,15.231 21.683,15.225 21.696,15.218 C21.696,15.204 21.696,15.191 21.696,15.177 C21.710,15.170 21.724,15.163 21.738,15.157 C21.738,15.143 21.738,15.129 21.738,15.116 C21.751,15.109 21.765,15.102 21.779,15.095 C21.779,15.082 21.779,15.068 21.779,15.055 C21.793,15.048 21.806,15.041 21.820,15.034 C21.820,15.021 21.820,15.007 21.820,14.993 C21.834,14.987 21.848,14.980 21.861,14.973 C21.868,14.946 21.875,14.919 21.882,14.891 C21.896,14.885 21.909,14.878 21.923,14.871 C21.937,14.830 21.951,14.789 21.964,14.749 C21.978,14.742 21.992,14.735 22.006,14.728 C22.019,14.687 22.033,14.647 22.047,14.606 C22.061,14.599 22.074,14.592 22.088,14.585 C22.088,14.572 22.088,14.558 22.088,14.545 C22.095,14.545 22.102,14.545 22.109,14.545 C22.109,14.531 22.109,14.517 22.109,14.504 C22.116,14.504 22.123,14.504 22.129,14.504 C22.129,14.490 22.129,14.477 22.129,14.463 C22.136,14.463 22.143,14.463 22.150,14.463 C22.150,14.449 22.150,14.436 22.150,14.422 C22.157,14.422 22.164,14.422 22.171,14.422 C22.171,14.409 22.171,14.395 22.171,14.381 C22.178,14.381 22.184,14.381 22.191,14.381 C22.191,14.368 22.191,14.354 22.191,14.341 C22.198,14.341 22.205,14.341 22.212,14.341 C22.226,14.300 22.239,14.259 22.253,14.218 C22.260,14.218 22.267,14.218 22.274,14.218 C22.274,14.198 22.274,14.177 22.274,14.157 C22.281,14.157 22.287,14.157 22.294,14.157 C22.294,14.143 22.294,14.130 22.294,14.116 C22.301,14.116 22.308,14.116 22.315,14.116 C22.322,14.089 22.329,14.062 22.336,14.035 C22.342,14.035 22.349,14.035 22.356,14.035 C22.356,14.014 22.356,13.994 22.356,13.973 C22.363,13.973 22.370,13.973 22.377,13.973 C22.377,13.960 22.377,13.946 22.377,13.933 C22.384,13.933 22.391,13.933 22.397,13.933 C22.404,13.899 22.411,13.865 22.418,13.831 C22.425,13.831 22.432,13.831 22.439,13.831 C22.439,13.810 22.439,13.790 22.439,13.769 C22.446,13.769 22.452,13.769 22.459,13.769 C22.459,13.756 22.459,13.742 22.459,13.729 C22.466,13.729 22.473,13.729 22.480,13.729 C22.487,13.688 22.494,13.647 22.501,13.606 C22.507,13.606 22.514,13.606 22.521,13.606 C22.521,13.593 22.521,13.579 22.521,13.565 C22.528,13.565 22.535,13.565 22.542,13.565 C22.549,13.525 22.556,13.484 22.562,13.443 C22.569,13.443 22.576,13.443 22.583,13.443 C22.583,13.423 22.583,13.402 22.583,13.382 C22.590,13.382 22.597,13.382 22.604,13.382 C22.611,13.334 22.617,13.287 22.624,13.239 C22.631,13.239 22.638,13.239 22.645,13.239 C22.645,13.219 22.645,13.198 22.645,13.178 C22.652,13.178 22.659,13.178 22.666,13.178 C22.672,13.123 22.679,13.069 22.686,13.015 C22.693,13.015 22.700,13.015 22.707,13.015 C22.707,12.987 22.707,12.960 22.707,12.933 C22.714,12.933 22.721,12.933 22.727,12.933 C22.727,12.906 22.727,12.879 22.727,12.851 C22.734,12.851 22.741,12.851 22.748,12.851 C22.748,12.824 22.748,12.797 22.748,12.770 C22.755,12.770 22.762,12.770 22.769,12.770 C22.769,12.736 22.769,12.702 22.769,12.668 C22.775,12.668 22.782,12.668 22.789,12.668 C22.789,12.634 22.789,12.600 22.789,12.566 C22.796,12.566 22.803,12.566 22.810,12.566 C22.810,12.532 22.810,12.498 22.810,12.464 C22.817,12.464 22.824,12.464 22.830,12.464 C22.830,12.423 22.830,12.382 22.830,12.342 C22.837,12.342 22.844,12.342 22.851,12.342 C22.858,12.240 22.865,12.138 22.872,12.036 C22.879,12.036 22.885,12.036 22.892,12.036 C22.899,11.927 22.906,11.818 22.913,11.709 C22.913,11.634 22.913,11.560 22.913,11.485 C22.920,11.485 22.927,11.485 22.934,11.485 C22.960,11.391 22.932,11.041 22.913,10.975 C22.913,10.907 22.913,10.839 22.913,10.771 C22.906,10.655 22.899,10.540 22.892,10.424 C22.885,10.424 22.879,10.424 22.872,10.424 C22.865,10.322 22.858,10.220 22.851,10.118 C22.789,9.839 22.727,9.560 22.666,9.282 C22.659,9.282 22.652,9.282 22.645,9.282 C22.638,9.234 22.631,9.186 22.624,9.139 C22.617,9.139 22.611,9.139 22.604,9.139 C22.604,9.118 22.604,9.098 22.604,9.078 C22.597,9.078 22.590,9.078 22.583,9.078 C22.583,9.057 22.583,9.037 22.583,9.016 C22.576,9.016 22.569,9.016 22.562,9.016 C22.562,8.996 22.562,8.976 22.562,8.955 C22.556,8.955 22.549,8.955 22.542,8.955 C22.535,8.914 22.528,8.874 22.521,8.833 C22.514,8.833 22.507,8.833 22.501,8.833 C22.501,8.819 22.501,8.806 22.501,8.792 C22.494,8.792 22.487,8.792 22.480,8.792 C22.473,8.751 22.466,8.710 22.459,8.670 C22.452,8.670 22.446,8.670 22.439,8.670 C22.439,8.656 22.439,8.642 22.439,8.629 C22.432,8.629 22.425,8.629 22.418,8.629 C22.418,8.608 22.418,8.588 22.418,8.568 C22.411,8.568 22.404,8.568 22.397,8.568 C22.397,8.554 22.397,8.540 22.397,8.527 C22.391,8.527 22.384,8.527 22.377,8.527 C22.377,8.506 22.377,8.486 22.377,8.466 C22.370,8.466 22.363,8.466 22.356,8.466 C22.349,8.438 22.342,8.411 22.336,8.384 C22.329,8.384 22.322,8.384 22.315,8.384 C22.308,8.350 22.301,8.316 22.294,8.282 C22.287,8.282 22.281,8.282 22.274,8.282 C22.260,8.241 22.246,8.200 22.233,8.160 C22.226,8.160 22.219,8.160 22.212,8.160 C22.212,8.146 22.212,8.132 22.212,8.119 C22.205,8.119 22.198,8.119 22.191,8.119 C22.191,8.105 22.191,8.092 22.191,8.078 C22.184,8.078 22.178,8.078 22.171,8.078 C22.171,8.064 22.171,8.051 22.171,8.037 C22.164,8.037 22.157,8.037 22.150,8.037 C22.150,8.024 22.150,8.010 22.150,7.996 C22.143,7.996 22.136,7.996 22.129,7.996 C22.129,7.983 22.129,7.969 22.129,7.956 C22.123,7.956 22.116,7.956 22.109,7.956 C22.109,7.942 22.109,7.928 22.109,7.915 C22.102,7.915 22.095,7.915 22.088,7.915 C22.088,7.901 22.088,7.888 22.088,7.874 C22.081,7.874 22.074,7.874 22.068,7.874 C22.068,7.860 22.068,7.847 22.068,7.833 C22.054,7.826 22.040,7.820 22.026,7.813 C22.013,7.772 21.999,7.731 21.985,7.690 C21.971,7.684 21.958,7.677 21.944,7.670 C21.930,7.629 21.916,7.588 21.903,7.548 C21.896,7.548 21.889,7.548 21.882,7.548 C21.875,7.527 21.868,7.507 21.861,7.487 C21.848,7.480 21.834,7.473 21.820,7.466 C21.813,7.439 21.806,7.412 21.799,7.385 C21.793,7.385 21.786,7.385 21.779,7.385 C21.772,7.364 21.765,7.344 21.758,7.323 C21.745,7.317 21.731,7.310 21.717,7.303 C21.717,7.289 21.717,7.276 21.717,7.262 C21.696,7.249 21.676,7.235 21.655,7.221 C21.655,7.208 21.655,7.194 21.655,7.181 C21.648,7.181 21.641,7.181 21.635,7.181 C21.628,7.160 21.621,7.140 21.614,7.119 C21.600,7.113 21.586,7.106 21.573,7.099 C21.573,7.085 21.573,7.072 21.573,7.058 C21.552,7.045 21.531,7.031 21.511,7.017 C21.511,7.004 21.511,6.990 21.511,6.977 C21.490,6.963 21.470,6.949 21.449,6.936 C21.449,6.922 21.449,6.909 21.449,6.895 C21.421,6.875 21.394,6.854 21.366,6.834 C21.366,6.820 21.366,6.807 21.366,6.793 C21.339,6.773 21.311,6.752 21.284,6.732 C21.284,6.718 21.284,6.705 21.284,6.691 C21.257,6.671 21.229,6.650 21.202,6.630 C21.202,6.623 21.202,6.616 21.202,6.609 C21.188,6.603 21.174,6.596 21.160,6.589 C21.160,6.575 21.160,6.562 21.160,6.548 C21.119,6.514 21.078,6.480 21.037,6.446 C20.964,6.374 20.924,6.251 20.810,6.222 ZM18.933,25.581 C15.573,25.581 12.211,25.581 8.850,25.581 C8.074,25.581 7.297,25.581 6.520,25.581 C6.251,25.581 5.838,25.623 5.613,25.560 C5.551,25.560 5.489,25.560 5.427,25.560 C5.427,25.553 5.427,25.547 5.427,25.540 C5.393,25.540 5.359,25.540 5.324,25.540 C5.324,25.533 5.324,25.526 5.324,25.519 C5.290,25.519 5.256,25.519 5.221,25.519 C5.221,25.513 5.221,25.506 5.221,25.499 C5.201,25.499 5.180,25.499 5.159,25.499 C5.159,25.492 5.159,25.485 5.159,25.479 C5.111,25.472 5.063,25.465 5.015,25.458 C5.015,25.451 5.015,25.445 5.015,25.438 C5.001,25.438 4.988,25.438 4.974,25.438 C4.974,25.431 4.974,25.424 4.974,25.417 C4.953,25.417 4.933,25.417 4.912,25.417 C4.912,25.411 4.912,25.404 4.912,25.397 C4.871,25.383 4.830,25.370 4.788,25.356 C4.788,25.349 4.788,25.343 4.788,25.336 C4.775,25.336 4.761,25.336 4.747,25.336 C4.747,25.329 4.747,25.322 4.747,25.315 C4.733,25.315 4.720,25.315 4.706,25.315 C4.706,25.309 4.706,25.302 4.706,25.295 C4.665,25.281 4.623,25.268 4.582,25.254 C4.582,25.247 4.582,25.241 4.582,25.234 C4.561,25.227 4.541,25.220 4.520,25.213 C4.513,25.200 4.506,25.186 4.500,25.173 C4.486,25.173 4.472,25.173 4.458,25.173 C4.451,25.159 4.445,25.145 4.438,25.132 C4.417,25.125 4.396,25.118 4.376,25.111 C4.355,25.084 4.335,25.057 4.314,25.030 C4.300,25.030 4.287,25.030 4.273,25.030 C4.225,24.975 4.177,24.921 4.128,24.867 C4.101,24.846 4.073,24.826 4.046,24.805 C4.046,24.792 4.046,24.778 4.046,24.765 C4.018,24.744 3.991,24.724 3.963,24.703 C3.963,24.690 3.963,24.676 3.963,24.663 C3.943,24.649 3.922,24.635 3.902,24.622 C3.902,24.608 3.902,24.595 3.902,24.581 C3.888,24.574 3.874,24.567 3.860,24.561 C3.854,24.533 3.847,24.506 3.840,24.479 C3.826,24.472 3.812,24.465 3.799,24.459 C3.792,24.431 3.785,24.404 3.778,24.377 C3.771,24.377 3.764,24.377 3.757,24.377 C3.757,24.363 3.757,24.350 3.757,24.336 C3.750,24.336 3.744,24.336 3.737,24.336 C3.723,24.295 3.709,24.255 3.695,24.214 C3.689,24.214 3.682,24.214 3.675,24.214 C3.675,24.193 3.675,24.173 3.675,24.153 C3.668,24.153 3.661,24.153 3.654,24.153 C3.654,24.139 3.654,24.125 3.654,24.112 C3.647,24.112 3.640,24.112 3.634,24.112 C3.634,24.091 3.634,24.071 3.634,24.051 C3.627,24.051 3.620,24.051 3.613,24.051 C3.613,24.030 3.613,24.010 3.613,23.989 C3.606,23.989 3.599,23.989 3.592,23.989 C3.592,23.962 3.592,23.935 3.592,23.908 C3.585,23.908 3.579,23.908 3.572,23.908 C3.572,23.881 3.572,23.853 3.572,23.826 C3.565,23.826 3.558,23.826 3.551,23.826 C3.551,23.785 3.551,23.745 3.551,23.704 C3.544,23.704 3.537,23.704 3.530,23.704 C3.524,23.527 3.517,23.350 3.510,23.173 C3.510,22.847 3.510,22.521 3.510,22.194 C3.510,21.331 3.510,20.467 3.510,19.604 C3.510,14.545 3.510,9.485 3.510,4.427 C3.194,4.427 2.877,4.427 2.561,4.427 C2.390,4.433 2.218,4.440 2.046,4.447 C2.046,4.454 2.046,4.461 2.046,4.467 C1.991,4.474 1.936,4.481 1.881,4.488 C1.881,4.495 1.881,4.501 1.881,4.508 C1.867,4.508 1.853,4.508 1.840,4.508 C1.840,4.515 1.840,4.522 1.840,4.529 C1.819,4.529 1.798,4.529 1.778,4.529 C1.778,4.535 1.778,4.542 1.778,4.549 C1.750,4.556 1.723,4.563 1.695,4.569 C1.695,4.576 1.695,4.583 1.695,4.590 C1.682,4.590 1.668,4.590 1.654,4.590 C1.654,4.597 1.654,4.603 1.654,4.610 C1.633,4.617 1.613,4.624 1.592,4.631 C1.585,4.644 1.578,4.658 1.572,4.671 C1.558,4.671 1.544,4.671 1.530,4.671 C1.482,4.726 1.434,4.780 1.386,4.835 C1.352,4.862 1.317,4.889 1.283,4.916 C1.283,4.930 1.283,4.943 1.283,4.957 C1.269,4.964 1.255,4.971 1.242,4.977 C1.235,5.005 1.228,5.032 1.221,5.059 C1.207,5.066 1.194,5.073 1.180,5.079 C1.173,5.113 1.166,5.147 1.159,5.181 C1.152,5.181 1.145,5.181 1.139,5.181 C1.139,5.195 1.139,5.209 1.139,5.222 C1.132,5.222 1.125,5.222 1.118,5.222 C1.118,5.243 1.118,5.263 1.118,5.283 C1.111,5.283 1.104,5.283 1.097,5.283 C1.097,5.311 1.097,5.338 1.097,5.365 C1.090,5.365 1.084,5.365 1.077,5.365 C1.077,5.406 1.077,5.447 1.077,5.487 C1.070,5.487 1.063,5.487 1.056,5.487 C1.056,5.821 1.056,6.154 1.056,6.487 C1.056,7.514 1.056,8.541 1.056,9.567 C1.056,13.653 1.056,17.741 1.056,21.827 C1.056,23.065 1.056,24.302 1.056,25.540 C1.056,25.873 1.056,26.206 1.056,26.539 C1.056,26.730 1.046,26.967 1.097,27.111 C1.224,27.462 1.484,27.741 1.819,27.886 C2.107,28.010 2.630,27.967 3.036,27.967 C3.867,27.967 4.699,27.967 5.531,27.967 C8.465,27.967 11.401,27.967 14.335,27.967 C15.229,27.967 16.122,27.967 17.016,27.967 C17.527,27.967 18.043,28.000 18.356,27.804 C18.363,27.790 18.370,27.777 18.377,27.763 C18.390,27.763 18.404,27.763 18.418,27.763 C18.425,27.750 18.432,27.736 18.438,27.723 C18.452,27.723 18.466,27.723 18.480,27.723 C18.507,27.689 18.535,27.654 18.562,27.621 C18.610,27.580 18.658,27.539 18.707,27.498 C18.707,27.485 18.707,27.471 18.707,27.457 C18.720,27.451 18.734,27.444 18.748,27.437 C18.755,27.417 18.762,27.396 18.768,27.376 C18.775,27.376 18.782,27.376 18.789,27.376 C18.789,27.362 18.789,27.349 18.789,27.335 C18.796,27.335 18.803,27.335 18.810,27.335 C18.817,27.308 18.823,27.281 18.830,27.253 C18.837,27.253 18.844,27.253 18.851,27.253 C18.851,27.233 18.851,27.213 18.851,27.192 C18.858,27.192 18.865,27.192 18.872,27.192 C18.872,27.179 18.872,27.165 18.872,27.151 C18.878,27.151 18.885,27.151 18.892,27.151 C18.899,27.097 18.906,27.043 18.913,26.988 C18.920,26.988 18.926,26.988 18.933,26.988 C18.933,26.519 18.933,26.050 18.933,25.581 ZM15.923,6.752 C15.935,6.798 15.940,6.803 15.964,6.834 C15.971,6.834 15.978,6.834 15.985,6.834 C15.985,6.847 15.985,6.861 15.985,6.875 C15.998,6.881 16.012,6.888 16.026,6.895 C16.026,6.915 16.026,6.936 16.026,6.956 C16.033,6.956 16.040,6.956 16.047,6.956 C16.047,6.977 16.047,6.997 16.047,7.017 C16.053,7.017 16.060,7.017 16.067,7.017 C16.067,8.248 16.067,9.479 16.067,10.710 C16.603,10.710 17.140,10.710 17.676,10.710 C17.917,10.710 18.288,10.679 18.438,10.771 C18.445,10.784 18.452,10.798 18.459,10.812 C18.473,10.812 18.487,10.812 18.500,10.812 C18.507,10.825 18.514,10.839 18.521,10.852 C18.555,10.880 18.590,10.907 18.624,10.934 C18.662,10.990 18.745,11.224 18.707,11.342 C18.700,11.342 18.693,11.342 18.686,11.342 C18.686,11.362 18.686,11.383 18.686,11.403 C18.679,11.403 18.672,11.403 18.665,11.403 C18.652,11.444 18.638,11.485 18.624,11.526 C18.610,11.532 18.597,11.539 18.583,11.546 C18.548,11.587 18.514,11.628 18.480,11.668 C18.452,11.675 18.425,11.682 18.397,11.689 C18.397,11.696 18.397,11.702 18.397,11.709 C18.233,11.780 17.904,11.750 17.676,11.750 C17.167,11.750 16.658,11.750 16.150,11.750 C15.949,11.750 15.514,11.786 15.366,11.730 C15.366,11.723 15.366,11.716 15.366,11.709 C15.339,11.702 15.311,11.696 15.284,11.689 C15.284,11.682 15.284,11.675 15.284,11.668 C15.270,11.668 15.256,11.668 15.242,11.668 C15.236,11.655 15.229,11.641 15.222,11.628 C15.208,11.628 15.194,11.628 15.181,11.628 C15.181,11.621 15.181,11.614 15.181,11.607 C15.167,11.600 15.153,11.594 15.139,11.587 C15.139,11.573 15.139,11.560 15.139,11.546 C15.119,11.532 15.098,11.519 15.077,11.505 C15.077,11.492 15.077,11.478 15.077,11.464 C15.071,11.464 15.064,11.464 15.057,11.464 C15.057,11.451 15.057,11.437 15.057,11.424 C15.050,11.424 15.043,11.424 15.036,11.424 C15.036,11.403 15.036,11.383 15.036,11.362 C15.029,11.362 15.022,11.362 15.016,11.362 C15.016,11.070 15.016,10.778 15.016,10.485 C15.016,9.635 15.016,8.785 15.016,7.935 C15.016,7.554 14.954,7.021 15.119,6.793 C15.126,6.793 15.132,6.793 15.139,6.793 C15.153,6.773 15.167,6.752 15.181,6.732 C15.194,6.732 15.208,6.732 15.222,6.732 C15.222,6.725 15.222,6.718 15.222,6.711 C15.242,6.705 15.263,6.698 15.284,6.691 C15.291,6.677 15.297,6.664 15.304,6.650 C15.325,6.650 15.346,6.650 15.366,6.650 C15.421,6.629 15.535,6.579 15.634,6.609 C15.634,6.616 15.634,6.623 15.634,6.630 C15.662,6.630 15.689,6.630 15.717,6.630 C15.717,6.637 15.717,6.643 15.717,6.650 C15.758,6.664 15.799,6.677 15.840,6.691 C15.840,6.698 15.840,6.705 15.840,6.711 C15.872,6.735 15.877,6.740 15.923,6.752 Z"/>
</svg>