<svg 
 xmlns="http://www.w3.org/2000/svg"
 xmlns:xlink="http://www.w3.org/1999/xlink"
 width="20px" height="20px">
<path fill-rule="evenodd"  fill="rgb(88, 88, 90)"
 d="M13.644,19.476 C17.112,19.476 19.929,16.709 19.948,13.328 L19.985,8.353 L19.929,8.083 L19.761,7.743 L19.480,7.531 C19.114,7.250 17.260,7.548 16.761,7.104 C16.406,6.787 16.351,6.215 16.243,5.439 C16.046,3.936 15.919,3.858 15.680,3.348 C14.805,1.539 12.438,0.176 10.809,-0.010 L6.402,-0.010 C2.936,-0.010 0.099,2.761 0.099,6.148 L0.099,13.328 C0.099,16.709 2.936,19.476 6.402,19.476 L13.644,19.476 ZM6.483,5.020 L9.979,5.020 C10.644,5.020 11.185,5.551 11.185,6.194 C11.185,6.839 10.644,7.373 9.979,7.373 L6.483,7.373 C5.816,7.373 5.275,6.839 5.275,6.194 C5.275,5.551 5.816,5.020 6.483,5.020 ZM5.275,13.239 C5.275,12.594 5.816,12.067 6.483,12.067 L13.584,12.067 C14.247,12.067 14.786,12.594 14.786,13.239 C14.786,13.875 14.247,14.412 13.584,14.412 L6.483,14.412 C5.816,14.412 5.275,13.875 5.275,13.239 Z"/>
</svg>