<svg 
 xmlns="http://www.w3.org/2000/svg"
 xmlns:xlink="http://www.w3.org/1999/xlink"
 width="27px" height="20px">
<path fill-rule="evenodd"  fill="rgb(88, 88, 90)"
 d="M24.588,10.753 L24.588,12.614 L22.960,12.614 L22.960,10.753 L21.060,10.753 L21.060,9.157 L22.960,9.157 L22.960,7.296 L24.588,7.296 L24.588,9.157 L26.489,9.157 L26.489,10.753 L24.588,10.753 ZM10.501,19.999 C5.003,19.999 0.547,15.634 0.547,10.246 C0.547,4.859 5.003,0.492 10.501,0.492 C13.213,0.492 15.671,1.556 17.468,3.277 L15.220,5.673 C14.017,4.481 12.346,3.742 10.501,3.742 C6.835,3.742 3.864,6.654 3.864,10.246 C3.864,13.836 6.835,16.748 10.501,16.748 C13.472,16.748 15.988,14.834 16.834,12.197 L11.164,12.197 L11.164,9.162 L20.456,9.162 L20.456,12.197 C19.532,16.649 15.319,19.999 10.501,19.999 Z"/>
</svg>