<svg 
 xmlns="http://www.w3.org/2000/svg"
 xmlns:xlink="http://www.w3.org/1999/xlink"
 width="25px" height="20px">
<path fill-rule="evenodd"  fill="rgb(88, 88, 90)"
 d="M25.004,2.802 C24.103,3.193 23.134,3.460 22.118,3.579 C23.156,2.968 23.952,2.005 24.327,0.855 C23.355,1.417 22.283,1.829 21.136,2.049 C20.221,1.093 18.914,0.496 17.469,0.496 C14.695,0.496 12.445,2.698 12.445,5.418 C12.445,5.804 12.488,6.179 12.575,6.538 C8.399,6.335 4.697,4.373 2.218,1.394 C1.785,2.122 1.537,2.968 1.537,3.870 C1.537,5.580 2.424,7.085 3.772,7.970 C2.948,7.944 2.173,7.722 1.497,7.354 C1.496,7.373 1.496,7.393 1.496,7.416 C1.496,9.802 3.228,11.790 5.527,12.244 C5.105,12.355 4.661,12.416 4.201,12.416 C3.879,12.416 3.565,12.385 3.257,12.327 C3.896,14.283 5.753,15.707 7.951,15.747 C6.232,17.067 4.065,17.854 1.711,17.854 C1.306,17.854 0.905,17.831 0.512,17.786 C2.737,19.182 5.379,19.997 8.213,19.997 C17.457,19.997 22.512,12.494 22.512,5.990 C22.512,5.776 22.506,5.563 22.496,5.353 C23.480,4.658 24.331,3.789 25.004,2.802 Z"/>
</svg>