<svg 
 xmlns="http://www.w3.org/2000/svg"
 xmlns:xlink="http://www.w3.org/1999/xlink"
 width="29px" height="20px">
<path fill-rule="evenodd"  fill="rgb(88, 88, 90)"
 d="M28.310,3.136 C27.964,1.649 26.729,0.552 25.243,0.389 C21.724,0.002 18.162,-0.000 14.618,0.002 C11.074,-0.000 7.511,0.002 3.992,0.389 C2.505,0.552 1.274,1.649 0.927,3.136 C0.433,5.254 0.426,7.565 0.426,9.746 C0.426,11.924 0.426,14.236 0.921,16.353 C1.268,17.839 2.502,18.938 3.988,19.100 C7.504,19.487 11.068,19.491 14.612,19.487 C18.159,19.491 21.720,19.487 25.237,19.100 C26.723,18.938 27.956,17.839 28.305,16.353 C28.799,14.236 28.801,11.924 28.801,9.746 C28.801,7.565 28.804,5.254 28.310,3.136 ZM10.952,14.085 C10.952,10.994 10.952,7.931 10.952,4.839 C13.959,6.384 16.946,7.920 19.973,9.476 C16.956,11.018 13.968,12.543 10.952,14.085 Z"/>
</svg>