<svg 
 xmlns="http://www.w3.org/2000/svg"
 xmlns:xlink="http://www.w3.org/1999/xlink"
 width="6px" height="13px">
<path fill-rule="evenodd"  fill="rgb(112, 111, 111)"
 d="M5.970,0.021 C5.970,0.765 5.970,1.509 5.970,2.253 C5.566,2.253 5.162,2.253 4.758,2.253 C4.596,2.253 4.368,2.234 4.285,2.313 C4.228,2.327 4.107,2.392 4.078,2.432 C4.078,2.451 4.078,2.472 4.078,2.491 C4.059,2.501 4.039,2.511 4.019,2.521 C3.954,2.647 3.960,2.921 3.960,3.116 C3.960,3.483 3.960,3.851 3.960,4.218 C4.640,4.218 5.320,4.218 6.000,4.218 C5.921,4.982 5.842,5.746 5.763,6.510 C5.162,6.510 4.561,6.510 3.960,6.510 C3.960,8.672 3.960,10.836 3.960,12.999 C3.064,12.999 2.167,12.999 1.271,12.999 C1.271,10.836 1.271,8.672 1.271,6.510 C0.847,6.510 0.423,6.510 -0.000,6.510 C-0.000,5.755 -0.000,5.002 -0.000,4.248 C0.240,4.159 0.949,4.216 1.271,4.218 C1.271,3.702 1.271,3.186 1.271,2.670 C1.280,2.670 1.290,2.670 1.300,2.670 C1.300,2.581 1.300,2.491 1.300,2.402 C1.320,2.253 1.339,2.104 1.359,1.955 C1.677,0.952 2.118,0.441 3.103,0.110 C3.152,0.110 3.202,0.110 3.251,0.110 C3.606,0.000 4.111,0.021 4.581,0.021 C5.044,0.021 5.507,0.021 5.970,0.021 Z"/>
</svg>