<svg 
 xmlns="http://www.w3.org/2000/svg"
 xmlns:xlink="http://www.w3.org/1999/xlink"
 width="18px" height="11px">
<path fill-rule="evenodd"  fill="rgb(112, 111, 111)"
 d="M9.074,1.190 C9.074,1.202 9.074,1.215 9.074,1.227 C9.161,1.248 9.179,1.314 9.260,1.337 C9.260,1.349 9.260,1.361 9.260,1.374 C9.266,1.385 9.324,1.398 9.298,1.465 C9.285,1.471 9.273,1.477 9.260,1.484 C9.260,1.495 9.260,1.508 9.260,1.520 C9.248,1.520 9.236,1.520 9.223,1.520 C9.223,1.532 9.223,1.545 9.223,1.557 C9.211,1.557 9.198,1.557 9.186,1.557 C9.186,1.569 9.186,1.581 9.186,1.594 C9.174,1.594 9.161,1.594 9.149,1.594 C9.149,1.606 9.149,1.618 9.149,1.631 C9.136,1.631 9.124,1.631 9.111,1.631 C9.111,1.642 9.111,1.655 9.111,1.667 C9.099,1.667 9.087,1.667 9.074,1.667 C9.074,1.679 9.074,1.691 9.074,1.704 C9.062,1.704 9.049,1.704 9.037,1.704 C9.037,1.716 9.037,1.728 9.037,1.741 C9.024,1.741 9.012,1.741 9.000,1.741 C9.000,1.753 9.000,1.765 9.000,1.777 C8.987,1.777 8.975,1.777 8.962,1.777 C8.962,1.789 8.962,1.801 8.962,1.813 C8.950,1.813 8.938,1.813 8.925,1.813 C8.925,1.826 8.925,1.838 8.925,1.850 C8.913,1.850 8.900,1.850 8.888,1.850 C8.888,1.863 8.888,1.875 8.888,1.887 C8.875,1.887 8.863,1.887 8.851,1.887 C8.851,1.899 8.851,1.911 8.851,1.923 C8.838,1.923 8.826,1.923 8.813,1.923 C8.813,1.936 8.813,1.948 8.813,1.960 C8.801,1.960 8.789,1.960 8.776,1.960 C8.776,1.972 8.776,1.984 8.776,1.997 C8.764,1.997 8.751,1.997 8.739,1.997 C8.739,2.009 8.739,2.021 8.739,2.034 C8.726,2.034 8.714,2.034 8.702,2.034 C8.702,2.046 8.702,2.058 8.702,2.070 C8.689,2.070 8.677,2.070 8.664,2.070 C8.664,2.082 8.664,2.095 8.664,2.107 C8.652,2.107 8.639,2.107 8.627,2.107 C8.627,2.119 8.627,2.131 8.627,2.144 C8.615,2.144 8.602,2.144 8.590,2.144 C8.590,2.156 8.590,2.168 8.590,2.180 C8.577,2.180 8.565,2.180 8.552,2.180 C8.552,2.192 8.552,2.205 8.552,2.216 C8.540,2.216 8.528,2.216 8.515,2.216 C8.515,2.229 8.515,2.241 8.515,2.254 C8.503,2.254 8.490,2.254 8.478,2.254 C8.478,2.266 8.478,2.278 8.478,2.290 C8.465,2.290 8.453,2.290 8.441,2.290 C8.441,2.302 8.441,2.315 8.441,2.327 C8.428,2.327 8.416,2.327 8.403,2.327 C8.403,2.339 8.403,2.351 8.403,2.364 C8.391,2.364 8.379,2.364 8.366,2.364 C8.366,2.376 8.366,2.388 8.366,2.400 C8.354,2.400 8.341,2.400 8.329,2.400 C8.329,2.412 8.329,2.425 8.329,2.436 C8.316,2.436 8.304,2.436 8.292,2.436 C8.292,2.449 8.292,2.461 8.292,2.474 C8.279,2.474 8.267,2.474 8.254,2.474 C8.254,2.486 8.254,2.498 8.254,2.510 C8.242,2.510 8.229,2.510 8.217,2.510 C8.217,2.522 8.217,2.535 8.217,2.547 C8.205,2.547 8.192,2.547 8.180,2.547 C8.180,2.559 8.180,2.571 8.180,2.584 C8.167,2.584 8.155,2.584 8.142,2.584 C8.142,2.596 8.142,2.608 8.142,2.620 C8.130,2.620 8.118,2.620 8.105,2.620 C8.105,2.632 8.105,2.645 8.105,2.657 C8.093,2.657 8.080,2.657 8.068,2.657 C8.054,2.663 8.047,2.718 7.975,2.694 C7.975,2.688 7.975,2.682 7.975,2.675 C7.962,2.675 7.950,2.675 7.938,2.675 C7.931,2.663 7.925,2.651 7.919,2.638 C7.907,2.638 7.894,2.638 7.882,2.638 C7.869,2.620 7.857,2.602 7.844,2.584 C7.832,2.584 7.820,2.584 7.807,2.584 C7.795,2.566 7.782,2.547 7.770,2.528 C7.757,2.528 7.745,2.528 7.733,2.528 C7.720,2.510 7.708,2.492 7.695,2.474 C7.683,2.474 7.670,2.474 7.658,2.474 C7.652,2.461 7.646,2.449 7.639,2.436 C7.621,2.431 7.602,2.425 7.583,2.419 C7.583,2.412 7.583,2.406 7.583,2.400 C7.559,2.394 7.534,2.388 7.509,2.382 C7.503,2.370 7.497,2.358 7.490,2.345 C7.465,2.339 7.441,2.333 7.416,2.327 C7.410,2.315 7.403,2.302 7.397,2.290 C7.360,2.278 7.323,2.266 7.285,2.254 C7.285,2.247 7.285,2.241 7.285,2.235 C7.273,2.235 7.260,2.235 7.248,2.235 C7.248,2.229 7.248,2.223 7.248,2.216 C7.236,2.216 7.223,2.216 7.211,2.216 C7.211,2.211 7.211,2.205 7.211,2.198 C7.198,2.198 7.186,2.198 7.174,2.198 C7.174,2.192 7.174,2.186 7.174,2.180 C7.161,2.180 7.149,2.180 7.136,2.180 C7.136,2.174 7.136,2.168 7.136,2.162 C7.124,2.162 7.111,2.162 7.099,2.162 C7.099,2.156 7.099,2.149 7.099,2.144 C7.080,2.144 7.062,2.144 7.043,2.144 C7.037,2.131 7.031,2.119 7.025,2.107 C7.006,2.107 6.987,2.107 6.969,2.107 C6.969,2.101 6.969,2.095 6.969,2.089 C6.956,2.089 6.944,2.089 6.931,2.089 C6.931,2.082 6.931,2.076 6.931,2.070 C6.907,2.070 6.882,2.070 6.857,2.070 C6.857,2.064 6.857,2.058 6.857,2.052 C6.844,2.052 6.832,2.052 6.820,2.052 C6.820,2.046 6.820,2.040 6.820,2.034 C6.795,2.034 6.770,2.034 6.745,2.034 C6.745,2.027 6.745,2.021 6.745,2.016 C6.733,2.016 6.720,2.016 6.708,2.016 C6.708,2.009 6.708,2.003 6.708,1.997 C6.683,1.997 6.658,1.997 6.633,1.997 C6.627,1.984 6.621,1.972 6.615,1.960 C6.596,1.960 6.577,1.960 6.559,1.960 C6.559,1.954 6.559,1.948 6.559,1.942 C6.534,1.942 6.509,1.942 6.484,1.942 C6.484,1.936 6.484,1.930 6.484,1.923 C6.459,1.923 6.434,1.923 6.410,1.923 C6.410,1.917 6.410,1.911 6.410,1.905 C6.347,1.905 6.285,1.905 6.223,1.905 C6.223,1.899 6.223,1.893 6.223,1.887 C6.198,1.887 6.174,1.887 6.149,1.887 C6.149,1.881 6.149,1.875 6.149,1.869 C6.124,1.869 6.099,1.869 6.074,1.869 C6.074,1.863 6.074,1.856 6.074,1.850 C6.049,1.850 6.025,1.850 6.000,1.850 C6.000,1.845 6.000,1.838 6.000,1.832 C5.801,1.832 5.602,1.832 5.403,1.832 C5.115,1.832 4.841,1.886 4.621,1.960 C4.546,1.972 4.472,1.984 4.397,1.997 C4.397,2.003 4.397,2.009 4.397,2.016 C4.385,2.016 4.372,2.016 4.360,2.016 C4.360,2.021 4.360,2.027 4.360,2.034 C4.341,2.034 4.323,2.034 4.304,2.034 C4.298,2.046 4.292,2.058 4.285,2.070 C4.267,2.070 4.248,2.070 4.229,2.070 C4.229,2.076 4.229,2.082 4.229,2.089 C4.198,2.095 4.167,2.101 4.136,2.107 C4.136,2.113 4.136,2.119 4.136,2.126 C4.124,2.126 4.111,2.126 4.099,2.126 C4.099,2.131 4.099,2.137 4.099,2.144 C4.080,2.144 4.062,2.144 4.043,2.144 C4.037,2.156 4.031,2.168 4.024,2.180 C4.006,2.180 3.987,2.180 3.969,2.180 C3.962,2.192 3.956,2.205 3.950,2.216 C3.931,2.216 3.913,2.216 3.894,2.216 C3.888,2.229 3.882,2.241 3.875,2.254 C3.857,2.254 3.838,2.254 3.819,2.254 C3.813,2.266 3.807,2.278 3.801,2.290 C3.776,2.296 3.751,2.302 3.726,2.309 C3.720,2.321 3.714,2.333 3.708,2.345 C3.683,2.351 3.658,2.358 3.633,2.364 C3.627,2.376 3.621,2.388 3.615,2.400 C3.590,2.406 3.565,2.412 3.540,2.419 C3.540,2.425 3.540,2.431 3.540,2.436 C3.521,2.443 3.503,2.449 3.484,2.456 C3.478,2.468 3.472,2.480 3.466,2.492 C3.453,2.492 3.441,2.492 3.428,2.492 C3.422,2.504 3.416,2.517 3.410,2.528 C3.391,2.535 3.372,2.541 3.354,2.547 C3.354,2.553 3.354,2.559 3.354,2.566 C3.335,2.571 3.316,2.578 3.298,2.584 C3.298,2.596 3.298,2.608 3.298,2.620 C3.216,2.641 3.193,2.708 3.111,2.730 C3.111,2.742 3.111,2.755 3.111,2.767 C3.099,2.767 3.087,2.767 3.074,2.767 C3.074,2.779 3.074,2.792 3.074,2.804 C3.062,2.804 3.049,2.804 3.037,2.804 C3.037,2.816 3.037,2.828 3.037,2.840 C3.024,2.840 3.012,2.840 3.000,2.840 C3.000,2.853 3.000,2.865 3.000,2.877 C2.987,2.877 2.975,2.877 2.962,2.877 C2.962,2.889 2.962,2.901 2.962,2.914 C2.950,2.914 2.937,2.914 2.925,2.914 C2.925,2.926 2.925,2.938 2.925,2.950 C2.913,2.950 2.900,2.950 2.888,2.950 C2.888,2.962 2.888,2.974 2.888,2.987 C2.875,2.987 2.863,2.987 2.851,2.987 C2.851,2.999 2.851,3.011 2.851,3.024 C2.838,3.024 2.826,3.024 2.813,3.024 C2.813,3.036 2.813,3.048 2.813,3.060 C2.801,3.060 2.788,3.060 2.776,3.060 C2.755,3.141 2.687,3.163 2.664,3.243 C2.652,3.243 2.639,3.243 2.627,3.243 C2.621,3.262 2.615,3.280 2.608,3.299 C2.602,3.299 2.596,3.299 2.590,3.299 C2.584,3.317 2.577,3.336 2.571,3.353 C2.559,3.360 2.546,3.366 2.534,3.372 C2.534,3.384 2.534,3.396 2.534,3.409 C2.521,3.414 2.509,3.421 2.497,3.427 C2.490,3.445 2.484,3.463 2.478,3.482 C2.472,3.482 2.466,3.482 2.459,3.482 C2.459,3.494 2.459,3.506 2.459,3.519 C2.447,3.525 2.434,3.531 2.422,3.537 C2.416,3.555 2.410,3.573 2.403,3.592 C2.397,3.592 2.391,3.592 2.385,3.592 C2.379,3.617 2.372,3.641 2.366,3.665 C2.354,3.671 2.341,3.677 2.329,3.684 C2.329,3.696 2.329,3.708 2.329,3.720 C2.323,3.720 2.316,3.720 2.310,3.720 C2.310,3.732 2.310,3.745 2.310,3.757 C2.304,3.757 2.298,3.757 2.292,3.757 C2.292,3.769 2.292,3.781 2.292,3.794 C2.285,3.794 2.279,3.794 2.273,3.794 C2.273,3.806 2.273,3.818 2.273,3.830 C2.267,3.830 2.261,3.830 2.254,3.830 C2.254,3.842 2.254,3.855 2.254,3.867 C2.248,3.867 2.242,3.867 2.236,3.867 C2.223,3.904 2.211,3.940 2.198,3.977 C2.192,3.977 2.186,3.977 2.180,3.977 C2.180,3.995 2.180,4.014 2.180,4.032 C2.167,4.038 2.155,4.044 2.142,4.050 C2.142,4.068 2.142,4.087 2.142,4.105 C2.136,4.105 2.130,4.105 2.124,4.105 C2.124,4.117 2.124,4.130 2.124,4.142 C2.118,4.142 2.111,4.142 2.105,4.142 C2.099,4.172 2.093,4.203 2.087,4.233 C2.080,4.233 2.074,4.233 2.068,4.233 C2.068,4.252 2.068,4.270 2.068,4.289 C2.062,4.289 2.055,4.289 2.049,4.289 C2.049,4.301 2.049,4.313 2.049,4.325 C2.043,4.325 2.037,4.325 2.031,4.325 C2.031,4.350 2.031,4.374 2.031,4.399 C2.024,4.399 2.018,4.399 2.012,4.399 C2.012,4.411 2.012,4.423 2.012,4.435 C2.006,4.435 2.000,4.435 1.993,4.435 C1.993,4.460 1.993,4.484 1.993,4.509 C1.987,4.509 1.981,4.509 1.975,4.509 C1.975,4.533 1.975,4.558 1.975,4.582 C1.969,4.582 1.962,4.582 1.956,4.582 C1.956,4.607 1.956,4.631 1.956,4.656 C1.950,4.656 1.944,4.656 1.937,4.656 C1.937,4.680 1.937,4.704 1.937,4.729 C1.931,4.729 1.925,4.729 1.919,4.729 C1.919,4.753 1.919,4.777 1.919,4.802 C1.913,4.802 1.906,4.802 1.900,4.802 C1.900,4.887 1.900,4.972 1.900,5.059 C1.894,5.059 1.888,5.059 1.882,5.059 C1.882,5.083 1.882,5.107 1.882,5.132 C1.875,5.132 1.869,5.132 1.863,5.132 C1.863,5.205 1.863,5.279 1.863,5.352 C1.863,5.523 1.863,5.694 1.863,5.865 C1.869,5.865 1.875,5.865 1.882,5.865 C1.882,5.890 1.882,5.914 1.882,5.938 C1.888,5.938 1.894,5.938 1.900,5.938 C1.900,5.994 1.900,6.049 1.900,6.103 C1.906,6.146 1.913,6.189 1.919,6.232 C1.925,6.232 1.931,6.232 1.937,6.232 C1.937,6.268 1.937,6.306 1.937,6.342 C2.006,6.544 2.074,6.745 2.142,6.947 C2.155,6.953 2.167,6.959 2.180,6.965 C2.180,6.984 2.180,7.002 2.180,7.020 C2.186,7.020 2.192,7.020 2.198,7.020 C2.211,7.057 2.223,7.093 2.236,7.130 C2.242,7.130 2.248,7.130 2.254,7.130 C2.254,7.142 2.254,7.154 2.254,7.167 C2.261,7.167 2.267,7.167 2.273,7.167 C2.273,7.179 2.273,7.191 2.273,7.204 C2.279,7.204 2.285,7.204 2.292,7.204 C2.292,7.216 2.292,7.228 2.292,7.240 C2.298,7.240 2.304,7.240 2.310,7.240 C2.310,7.252 2.310,7.265 2.310,7.277 C2.316,7.277 2.323,7.277 2.329,7.277 C2.329,7.289 2.329,7.302 2.329,7.314 C2.341,7.320 2.354,7.326 2.366,7.332 C2.372,7.356 2.379,7.381 2.385,7.405 C2.391,7.405 2.397,7.405 2.403,7.405 C2.410,7.424 2.416,7.441 2.422,7.461 C2.434,7.466 2.447,7.472 2.459,7.479 C2.459,7.491 2.459,7.503 2.459,7.515 C2.472,7.521 2.484,7.527 2.497,7.534 C2.497,7.546 2.497,7.558 2.497,7.570 C2.509,7.576 2.521,7.583 2.534,7.589 C2.534,7.601 2.534,7.613 2.534,7.625 C2.546,7.631 2.559,7.637 2.571,7.644 C2.577,7.661 2.584,7.680 2.590,7.699 C2.596,7.699 2.602,7.699 2.608,7.699 C2.615,7.717 2.621,7.735 2.627,7.753 C2.639,7.753 2.652,7.753 2.664,7.753 C2.685,7.834 2.753,7.856 2.776,7.937 C2.788,7.937 2.801,7.937 2.813,7.937 C2.813,7.949 2.813,7.962 2.813,7.974 C2.826,7.974 2.838,7.974 2.851,7.974 C2.851,7.986 2.851,7.998 2.851,8.011 C2.863,8.011 2.875,8.011 2.888,8.011 C2.888,8.023 2.888,8.035 2.888,8.047 C2.900,8.047 2.913,8.047 2.925,8.047 C2.925,8.059 2.925,8.071 2.925,8.083 C2.937,8.083 2.950,8.083 2.962,8.083 C2.962,8.096 2.962,8.108 2.962,8.120 C2.975,8.120 2.987,8.120 3.000,8.120 C3.000,8.133 3.000,8.145 3.000,8.157 C3.012,8.157 3.024,8.157 3.037,8.157 C3.037,8.169 3.037,8.182 3.037,8.193 C3.049,8.193 3.062,8.193 3.074,8.193 C3.074,8.206 3.074,8.218 3.074,8.231 C3.087,8.231 3.099,8.231 3.111,8.231 C3.111,8.242 3.111,8.255 3.111,8.267 C3.124,8.267 3.136,8.267 3.149,8.267 C3.149,8.279 3.149,8.291 3.149,8.303 C3.200,8.315 3.245,8.346 3.279,8.377 C3.285,8.389 3.292,8.402 3.298,8.413 C3.310,8.413 3.323,8.413 3.335,8.413 C3.341,8.426 3.348,8.438 3.354,8.450 C3.366,8.450 3.379,8.450 3.391,8.450 C3.403,8.468 3.416,8.487 3.428,8.505 C3.441,8.505 3.453,8.505 3.466,8.505 C3.472,8.517 3.478,8.530 3.484,8.542 C3.503,8.548 3.521,8.554 3.540,8.560 C3.540,8.566 3.540,8.572 3.540,8.578 C3.565,8.584 3.590,8.591 3.615,8.597 C3.621,8.609 3.627,8.622 3.633,8.633 C3.658,8.639 3.683,8.646 3.708,8.652 C3.714,8.664 3.720,8.676 3.726,8.688 C3.751,8.695 3.776,8.701 3.801,8.707 C3.807,8.719 3.813,8.731 3.819,8.744 C3.838,8.744 3.857,8.744 3.875,8.744 C3.882,8.756 3.888,8.768 3.894,8.780 C3.913,8.780 3.931,8.780 3.950,8.780 C3.956,8.792 3.962,8.805 3.969,8.817 C3.987,8.817 4.006,8.817 4.024,8.817 C4.031,8.829 4.037,8.842 4.043,8.854 C4.062,8.854 4.080,8.854 4.099,8.854 C4.099,8.859 4.099,8.866 4.099,8.872 C4.130,8.878 4.161,8.884 4.192,8.890 C4.192,8.896 4.192,8.902 4.192,8.908 C4.205,8.908 4.217,8.908 4.229,8.908 C4.229,8.914 4.229,8.921 4.229,8.927 C4.248,8.927 4.267,8.927 4.285,8.927 C4.292,8.939 4.298,8.951 4.304,8.963 C4.323,8.963 4.341,8.963 4.360,8.963 C4.360,8.970 4.360,8.976 4.360,8.982 C4.372,8.982 4.385,8.982 4.397,8.982 C4.397,8.988 4.397,8.994 4.397,9.000 C4.447,9.006 4.497,9.012 4.546,9.019 C4.546,9.024 4.546,9.031 4.546,9.037 C4.571,9.037 4.596,9.037 4.621,9.037 C4.621,9.043 4.621,9.049 4.621,9.055 C4.646,9.055 4.670,9.055 4.695,9.055 C4.695,9.061 4.695,9.067 4.695,9.073 C4.720,9.073 4.745,9.073 4.770,9.073 C4.770,9.080 4.770,9.086 4.770,9.092 C4.832,9.098 4.894,9.104 4.956,9.110 C4.956,9.117 4.956,9.122 4.956,9.128 C5.006,9.128 5.056,9.128 5.105,9.128 C5.105,9.135 5.105,9.141 5.105,9.147 C5.130,9.147 5.155,9.147 5.180,9.147 C5.180,9.153 5.180,9.159 5.180,9.165 C5.372,9.165 5.565,9.165 5.757,9.165 C5.838,9.165 5.919,9.165 6.000,9.165 C6.000,9.159 6.000,9.153 6.000,9.147 C6.025,9.147 6.049,9.147 6.074,9.147 C6.074,9.141 6.074,9.135 6.074,9.128 C6.099,9.128 6.124,9.128 6.149,9.128 C6.149,9.122 6.149,9.117 6.149,9.110 C6.174,9.110 6.198,9.110 6.223,9.110 C6.223,9.104 6.223,9.098 6.223,9.092 C6.285,9.092 6.347,9.092 6.410,9.092 C6.410,9.086 6.410,9.080 6.410,9.073 C6.434,9.073 6.459,9.073 6.484,9.073 C6.484,9.067 6.484,9.061 6.484,9.055 C6.509,9.055 6.534,9.055 6.559,9.055 C6.559,9.049 6.559,9.043 6.559,9.037 C6.577,9.037 6.596,9.037 6.615,9.037 C6.621,9.024 6.627,9.012 6.633,9.000 C6.658,9.000 6.683,9.000 6.708,9.000 C6.708,8.994 6.708,8.988 6.708,8.982 C6.720,8.982 6.733,8.982 6.745,8.982 C6.745,8.976 6.745,8.970 6.745,8.963 C6.770,8.963 6.795,8.963 6.820,8.963 C6.820,8.957 6.820,8.951 6.820,8.946 C6.832,8.946 6.844,8.946 6.857,8.946 C6.857,8.939 6.857,8.933 6.857,8.927 C6.882,8.927 6.907,8.927 6.931,8.927 C6.931,8.921 6.931,8.914 6.931,8.908 C6.944,8.908 6.956,8.908 6.969,8.908 C6.969,8.902 6.969,8.896 6.969,8.890 C6.987,8.890 7.006,8.890 7.025,8.890 C7.031,8.878 7.037,8.866 7.043,8.854 C7.062,8.854 7.080,8.854 7.099,8.854 C7.099,8.847 7.099,8.842 7.099,8.835 C7.111,8.835 7.124,8.835 7.136,8.835 C7.136,8.829 7.136,8.823 7.136,8.817 C7.149,8.817 7.161,8.817 7.174,8.817 C7.174,8.811 7.174,8.805 7.174,8.798 C7.186,8.798 7.198,8.798 7.211,8.798 C7.211,8.792 7.211,8.787 7.211,8.780 C7.223,8.780 7.236,8.780 7.248,8.780 C7.248,8.774 7.248,8.768 7.248,8.762 C7.285,8.750 7.323,8.738 7.360,8.725 C7.360,8.719 7.360,8.713 7.360,8.707 C7.372,8.707 7.385,8.707 7.397,8.707 C7.403,8.695 7.410,8.682 7.416,8.670 C7.441,8.664 7.465,8.658 7.490,8.652 C7.497,8.639 7.503,8.627 7.509,8.615 C7.534,8.609 7.559,8.603 7.583,8.597 C7.583,8.591 7.583,8.584 7.583,8.578 C7.602,8.572 7.621,8.566 7.639,8.560 C7.646,8.548 7.652,8.536 7.658,8.524 C7.670,8.524 7.683,8.524 7.695,8.524 C7.708,8.505 7.720,8.487 7.733,8.468 C7.745,8.468 7.757,8.468 7.770,8.468 C7.782,8.450 7.795,8.432 7.807,8.413 C7.820,8.413 7.832,8.413 7.844,8.413 C7.851,8.402 7.857,8.389 7.863,8.377 C7.882,8.371 7.900,8.365 7.919,8.358 C7.919,8.352 7.919,8.346 7.919,8.340 C7.947,8.319 7.952,8.315 7.993,8.303 C7.993,8.291 7.993,8.279 7.993,8.267 C8.006,8.267 8.018,8.267 8.031,8.267 C8.031,8.255 8.031,8.242 8.031,8.231 C8.043,8.231 8.056,8.231 8.068,8.231 C8.068,8.218 8.068,8.206 8.068,8.193 C8.080,8.193 8.093,8.193 8.105,8.193 C8.105,8.182 8.105,8.169 8.105,8.157 C8.118,8.157 8.130,8.157 8.142,8.157 C8.142,8.145 8.142,8.133 8.142,8.120 C8.155,8.120 8.167,8.120 8.180,8.120 C8.180,8.108 8.180,8.096 8.180,8.083 C8.192,8.083 8.205,8.083 8.217,8.083 C8.217,8.071 8.217,8.059 8.217,8.047 C8.229,8.047 8.242,8.047 8.254,8.047 C8.254,8.035 8.254,8.023 8.254,8.011 C8.267,8.011 8.279,8.011 8.292,8.011 C8.292,7.998 8.292,7.986 8.292,7.974 C8.304,7.974 8.316,7.974 8.329,7.974 C8.329,7.962 8.329,7.949 8.329,7.937 C8.341,7.937 8.354,7.937 8.366,7.937 C8.366,7.925 8.366,7.913 8.366,7.900 C8.379,7.900 8.391,7.900 8.403,7.900 C8.403,7.888 8.403,7.876 8.403,7.863 C8.416,7.863 8.428,7.863 8.441,7.863 C8.453,7.813 8.484,7.769 8.515,7.735 C8.528,7.729 8.540,7.723 8.552,7.717 C8.552,7.704 8.552,7.692 8.552,7.680 C8.565,7.674 8.577,7.668 8.590,7.661 C8.590,7.650 8.590,7.637 8.590,7.625 C8.608,7.613 8.627,7.601 8.646,7.589 C8.646,7.576 8.646,7.564 8.646,7.552 C8.658,7.546 8.670,7.539 8.683,7.534 C8.683,7.521 8.683,7.509 8.683,7.497 C8.695,7.491 8.708,7.485 8.720,7.479 C8.726,7.455 8.733,7.430 8.739,7.405 C8.751,7.399 8.764,7.393 8.776,7.387 C8.782,7.362 8.789,7.338 8.795,7.314 C8.807,7.307 8.820,7.302 8.832,7.295 C8.838,7.271 8.844,7.246 8.851,7.221 C8.863,7.216 8.875,7.210 8.888,7.204 C8.888,7.185 8.888,7.167 8.888,7.148 C8.900,7.142 8.913,7.136 8.925,7.130 C8.925,7.112 8.925,7.093 8.925,7.075 C8.938,7.069 8.950,7.063 8.962,7.057 C8.962,7.038 8.962,7.020 8.962,7.002 C8.969,7.002 8.975,7.002 8.981,7.002 C8.981,6.989 8.981,6.977 8.981,6.965 C8.987,6.965 8.993,6.965 9.000,6.965 C9.006,6.935 9.012,6.904 9.018,6.874 C9.024,6.874 9.031,6.874 9.037,6.874 C9.037,6.855 9.037,6.837 9.037,6.818 C9.043,6.818 9.049,6.818 9.055,6.818 C9.055,6.806 9.055,6.794 9.055,6.782 C9.062,6.782 9.068,6.782 9.074,6.782 C9.074,6.757 9.074,6.733 9.074,6.709 C9.080,6.709 9.087,6.709 9.093,6.709 C9.093,6.697 9.093,6.684 9.093,6.672 C9.099,6.672 9.105,6.672 9.111,6.672 C9.111,6.647 9.111,6.623 9.111,6.598 C9.118,6.598 9.124,6.598 9.130,6.598 C9.130,6.587 9.130,6.574 9.130,6.562 C9.136,6.562 9.142,6.562 9.149,6.562 C9.149,6.538 9.149,6.513 9.149,6.489 C9.155,6.489 9.161,6.489 9.167,6.489 C9.167,6.476 9.167,6.464 9.167,6.452 C9.174,6.452 9.180,6.452 9.186,6.452 C9.205,6.342 9.223,6.232 9.242,6.122 C8.025,6.122 6.807,6.122 5.590,6.122 C5.590,5.511 5.590,4.899 5.590,4.289 C7.403,4.289 9.217,4.289 11.031,4.289 C11.038,4.402 11.078,4.493 11.105,4.582 C11.105,4.631 11.105,4.680 11.105,4.729 C11.111,4.729 11.118,4.729 11.124,4.729 C11.124,4.753 11.124,4.777 11.124,4.802 C11.130,4.802 11.136,4.802 11.143,4.802 C11.143,5.065 11.143,5.327 11.143,5.590 C11.143,5.792 11.143,5.994 11.143,6.195 C11.136,6.195 11.130,6.195 11.124,6.195 C11.124,6.220 11.124,6.244 11.124,6.268 C11.118,6.268 11.111,6.268 11.105,6.268 C11.105,6.293 11.105,6.317 11.105,6.342 C11.099,6.342 11.093,6.342 11.087,6.342 C11.087,6.367 11.087,6.391 11.087,6.415 C11.080,6.415 11.074,6.415 11.068,6.415 C11.056,6.538 11.043,6.660 11.031,6.782 C11.024,6.782 11.018,6.782 11.012,6.782 C11.012,6.800 11.012,6.818 11.012,6.837 C11.006,6.837 11.000,6.837 10.993,6.837 C10.993,6.849 10.993,6.861 10.993,6.874 C10.987,6.874 10.981,6.874 10.975,6.874 C10.975,6.892 10.975,6.910 10.975,6.929 C10.969,6.929 10.962,6.929 10.956,6.929 C10.950,6.989 10.944,7.051 10.937,7.112 C10.931,7.112 10.925,7.112 10.919,7.112 C10.919,7.124 10.919,7.136 10.919,7.148 C10.913,7.148 10.906,7.148 10.900,7.148 C10.900,7.173 10.900,7.197 10.900,7.221 C10.894,7.221 10.888,7.221 10.882,7.221 C10.882,7.234 10.882,7.246 10.882,7.259 C10.875,7.259 10.869,7.259 10.863,7.259 C10.863,7.283 10.863,7.307 10.863,7.332 C10.857,7.332 10.851,7.332 10.844,7.332 C10.844,7.344 10.844,7.356 10.844,7.368 C10.838,7.368 10.832,7.368 10.826,7.368 C10.826,7.387 10.826,7.405 10.826,7.424 C10.819,7.424 10.813,7.424 10.807,7.424 C10.807,7.436 10.807,7.448 10.807,7.461 C10.801,7.461 10.795,7.461 10.788,7.461 C10.782,7.491 10.776,7.521 10.770,7.552 C10.764,7.552 10.757,7.552 10.751,7.552 C10.751,7.576 10.751,7.601 10.751,7.625 C10.739,7.631 10.726,7.637 10.714,7.644 C10.714,7.661 10.714,7.680 10.714,7.699 C10.708,7.699 10.701,7.699 10.695,7.699 C10.695,7.711 10.695,7.723 10.695,7.735 C10.689,7.735 10.683,7.735 10.677,7.735 C10.677,7.753 10.677,7.772 10.677,7.791 C10.670,7.791 10.664,7.791 10.658,7.791 C10.646,7.827 10.633,7.863 10.621,7.900 C10.615,7.900 10.608,7.900 10.602,7.900 C10.602,7.913 10.602,7.925 10.602,7.937 C10.596,7.937 10.590,7.937 10.584,7.937 C10.584,7.949 10.584,7.962 10.584,7.974 C10.577,7.974 10.571,7.974 10.565,7.974 C10.565,7.986 10.565,7.998 10.565,8.011 C10.559,8.011 10.552,8.011 10.546,8.011 C10.546,8.023 10.546,8.035 10.546,8.047 C10.540,8.047 10.534,8.047 10.528,8.047 C10.528,8.059 10.528,8.071 10.528,8.083 C10.521,8.083 10.515,8.083 10.509,8.083 C10.509,8.096 10.509,8.108 10.509,8.120 C10.497,8.127 10.484,8.133 10.472,8.138 C10.466,8.163 10.459,8.188 10.453,8.211 C10.441,8.218 10.428,8.224 10.416,8.231 C10.416,8.248 10.416,8.267 10.416,8.285 C10.403,8.291 10.391,8.297 10.379,8.303 C10.372,8.328 10.366,8.352 10.360,8.377 C10.347,8.383 10.335,8.389 10.323,8.395 C10.323,8.407 10.323,8.419 10.323,8.432 C10.310,8.438 10.298,8.445 10.285,8.450 C10.285,8.462 10.285,8.475 10.285,8.487 C10.273,8.493 10.261,8.499 10.248,8.505 C10.242,8.530 10.236,8.554 10.229,8.578 C10.211,8.591 10.192,8.603 10.174,8.615 C10.174,8.627 10.174,8.639 10.174,8.652 C10.161,8.658 10.149,8.664 10.136,8.670 C10.136,8.682 10.136,8.695 10.136,8.707 C10.118,8.719 10.099,8.731 10.080,8.744 C10.080,8.756 10.080,8.768 10.080,8.780 C10.068,8.787 10.056,8.792 10.043,8.798 C10.037,8.817 10.031,8.835 10.024,8.854 C10.018,8.854 10.012,8.854 10.006,8.854 C9.984,8.881 9.980,8.886 9.969,8.927 C9.956,8.927 9.944,8.927 9.931,8.927 C9.931,8.939 9.931,8.951 9.931,8.963 C9.919,8.963 9.906,8.963 9.894,8.963 C9.873,9.049 9.805,9.066 9.782,9.147 C9.770,9.147 9.757,9.147 9.745,9.147 C9.745,9.159 9.745,9.171 9.745,9.184 C9.733,9.184 9.720,9.184 9.708,9.184 C9.708,9.196 9.708,9.208 9.708,9.220 C9.695,9.220 9.683,9.220 9.671,9.220 C9.671,9.232 9.671,9.245 9.671,9.257 C9.658,9.257 9.646,9.257 9.633,9.257 C9.633,9.269 9.633,9.282 9.633,9.293 C9.621,9.293 9.608,9.293 9.596,9.293 C9.596,9.306 9.596,9.318 9.596,9.330 C9.584,9.330 9.571,9.330 9.559,9.330 C9.559,9.342 9.559,9.355 9.559,9.367 C9.546,9.367 9.534,9.367 9.521,9.367 C9.521,9.379 9.521,9.391 9.521,9.403 C9.509,9.403 9.497,9.403 9.484,9.403 C9.484,9.416 9.484,9.428 9.484,9.440 C9.472,9.440 9.459,9.440 9.447,9.440 C9.447,9.452 9.447,9.465 9.447,9.477 C9.434,9.477 9.422,9.477 9.410,9.477 C9.410,9.489 9.410,9.501 9.410,9.513 C9.397,9.513 9.385,9.513 9.372,9.513 C9.372,9.526 9.372,9.538 9.372,9.550 C9.360,9.550 9.347,9.550 9.335,9.550 C9.335,9.562 9.335,9.575 9.335,9.587 C9.323,9.587 9.310,9.587 9.298,9.587 C9.298,9.599 9.298,9.611 9.298,9.624 C9.285,9.624 9.273,9.624 9.260,9.624 C9.260,9.635 9.260,9.648 9.260,9.660 C9.248,9.660 9.236,9.660 9.223,9.660 C9.223,9.672 9.223,9.685 9.223,9.697 C9.211,9.697 9.198,9.697 9.186,9.697 C9.145,9.761 9.096,9.766 9.037,9.807 C9.018,9.832 9.000,9.856 8.981,9.880 C8.969,9.880 8.956,9.880 8.944,9.880 C8.938,9.892 8.931,9.905 8.925,9.917 C8.913,9.917 8.900,9.917 8.888,9.917 C8.869,9.942 8.851,9.966 8.832,9.990 C8.807,9.997 8.782,10.003 8.757,10.008 C8.745,10.027 8.733,10.045 8.720,10.064 C8.695,10.070 8.670,10.076 8.646,10.082 C8.633,10.100 8.621,10.118 8.608,10.137 C8.584,10.143 8.559,10.149 8.534,10.155 C8.528,10.167 8.521,10.180 8.515,10.192 C8.490,10.198 8.465,10.204 8.441,10.210 C8.434,10.222 8.428,10.235 8.422,10.247 C8.397,10.253 8.372,10.259 8.347,10.265 C8.341,10.278 8.335,10.290 8.329,10.302 C8.304,10.308 8.279,10.314 8.254,10.320 C8.248,10.332 8.242,10.345 8.236,10.357 C8.217,10.357 8.198,10.357 8.180,10.357 C8.174,10.369 8.167,10.382 8.161,10.393 C8.142,10.393 8.124,10.393 8.105,10.393 C8.099,10.406 8.093,10.418 8.087,10.430 C8.068,10.430 8.049,10.430 8.031,10.430 C8.024,10.442 8.018,10.454 8.012,10.467 C7.993,10.467 7.975,10.467 7.956,10.467 C7.950,10.479 7.944,10.492 7.938,10.504 C7.919,10.504 7.900,10.504 7.882,10.504 C7.882,10.510 7.882,10.516 7.882,10.522 C7.869,10.522 7.857,10.522 7.844,10.522 C7.844,10.528 7.844,10.534 7.844,10.540 C7.813,10.546 7.782,10.552 7.751,10.558 C7.751,10.565 7.751,10.571 7.751,10.577 C7.733,10.577 7.714,10.577 7.695,10.577 C7.689,10.589 7.683,10.601 7.677,10.614 C7.652,10.614 7.627,10.614 7.602,10.614 C7.602,10.620 7.602,10.626 7.602,10.632 C7.590,10.632 7.577,10.632 7.565,10.632 C7.565,10.638 7.565,10.644 7.565,10.650 C7.540,10.650 7.515,10.650 7.490,10.650 C7.490,10.656 7.490,10.662 7.490,10.668 C7.478,10.668 7.465,10.668 7.453,10.668 C7.453,10.675 7.453,10.681 7.453,10.687 C7.428,10.687 7.403,10.687 7.378,10.687 C7.378,10.693 7.378,10.699 7.378,10.705 C7.366,10.705 7.354,10.705 7.341,10.705 C7.341,10.712 7.341,10.717 7.341,10.724 C7.316,10.724 7.292,10.724 7.267,10.724 C7.267,10.729 7.267,10.736 7.267,10.742 C7.254,10.742 7.242,10.742 7.229,10.742 C7.229,10.748 7.229,10.754 7.229,10.760 C7.180,10.766 7.130,10.772 7.080,10.778 C7.080,10.785 7.080,10.791 7.080,10.797 C7.062,10.797 7.043,10.797 7.025,10.797 C7.025,10.803 7.025,10.809 7.025,10.815 C7.012,10.815 7.000,10.815 6.987,10.815 C6.987,10.822 6.987,10.827 6.987,10.834 C6.944,10.839 6.900,10.846 6.857,10.852 C6.857,10.858 6.857,10.864 6.857,10.870 C6.832,10.870 6.807,10.870 6.782,10.870 C6.782,10.876 6.782,10.882 6.782,10.888 C6.733,10.888 6.683,10.888 6.633,10.888 C6.633,10.895 6.633,10.901 6.633,10.907 C6.608,10.907 6.583,10.907 6.559,10.907 C6.559,10.913 6.559,10.919 6.559,10.925 C6.497,10.925 6.434,10.925 6.372,10.925 C6.372,10.932 6.372,10.937 6.372,10.944 C6.347,10.944 6.323,10.944 6.298,10.944 C6.298,10.950 6.298,10.956 6.298,10.962 C6.198,10.962 6.099,10.962 6.000,10.962 C6.000,10.968 6.000,10.974 6.000,10.980 C5.975,10.980 5.950,10.980 5.925,10.980 C5.925,10.986 5.925,10.992 5.925,10.999 C5.851,10.999 5.776,10.999 5.701,10.999 C5.540,10.999 5.379,10.999 5.217,10.999 C5.217,10.992 5.217,10.986 5.217,10.980 C5.192,10.980 5.167,10.980 5.143,10.980 C5.143,10.974 5.143,10.968 5.143,10.962 C5.056,10.962 4.969,10.962 4.882,10.962 C4.882,10.956 4.882,10.950 4.882,10.944 C4.857,10.944 4.832,10.944 4.807,10.944 C4.807,10.937 4.807,10.932 4.807,10.925 C4.801,10.925 4.795,10.925 4.788,10.925 C4.733,10.925 4.677,10.925 4.621,10.925 C4.621,10.919 4.621,10.913 4.621,10.907 C4.559,10.901 4.497,10.895 4.434,10.888 C4.434,10.882 4.434,10.876 4.434,10.870 C4.410,10.870 4.385,10.870 4.360,10.870 C4.360,10.864 4.360,10.858 4.360,10.852 C4.298,10.846 4.236,10.839 4.174,10.834 C4.174,10.827 4.174,10.822 4.174,10.815 C4.161,10.815 4.149,10.815 4.136,10.815 C4.136,10.809 4.136,10.803 4.136,10.797 C4.111,10.797 4.087,10.797 4.062,10.797 C4.062,10.791 4.062,10.785 4.062,10.778 C4.049,10.778 4.037,10.778 4.024,10.778 C4.024,10.772 4.024,10.766 4.024,10.760 C3.950,10.748 3.875,10.736 3.801,10.724 C3.801,10.717 3.801,10.712 3.801,10.705 C3.788,10.705 3.776,10.705 3.764,10.705 C3.764,10.699 3.764,10.693 3.764,10.687 C3.739,10.687 3.714,10.687 3.689,10.687 C3.689,10.681 3.689,10.675 3.689,10.668 C3.677,10.668 3.664,10.668 3.652,10.668 C3.652,10.662 3.652,10.656 3.652,10.650 C3.627,10.650 3.602,10.650 3.577,10.650 C3.577,10.644 3.577,10.638 3.577,10.632 C3.546,10.626 3.515,10.620 3.484,10.614 C3.484,10.608 3.484,10.601 3.484,10.595 C3.472,10.595 3.459,10.595 3.447,10.595 C3.447,10.589 3.447,10.583 3.447,10.577 C3.428,10.577 3.410,10.577 3.391,10.577 C3.385,10.565 3.379,10.552 3.372,10.540 C3.354,10.540 3.335,10.540 3.316,10.540 C3.316,10.534 3.316,10.528 3.316,10.522 C3.304,10.522 3.292,10.522 3.279,10.522 C3.279,10.516 3.279,10.510 3.279,10.504 C3.261,10.504 3.242,10.504 3.223,10.504 C3.223,10.497 3.223,10.492 3.223,10.485 C3.186,10.473 3.149,10.460 3.111,10.448 C3.111,10.442 3.111,10.436 3.111,10.430 C3.099,10.430 3.087,10.430 3.074,10.430 C3.074,10.424 3.074,10.418 3.074,10.412 C3.062,10.412 3.049,10.412 3.037,10.412 C3.037,10.406 3.037,10.400 3.037,10.393 C3.024,10.393 3.012,10.393 3.000,10.393 C3.000,10.387 3.000,10.382 3.000,10.376 C2.987,10.376 2.975,10.376 2.962,10.376 C2.962,10.369 2.962,10.363 2.962,10.357 C2.950,10.357 2.937,10.357 2.925,10.357 C2.925,10.351 2.925,10.345 2.925,10.339 C2.913,10.339 2.900,10.339 2.888,10.339 C2.882,10.326 2.875,10.314 2.869,10.302 C2.844,10.296 2.819,10.290 2.795,10.283 C2.788,10.272 2.782,10.259 2.776,10.247 C2.751,10.241 2.726,10.235 2.702,10.228 C2.695,10.216 2.689,10.204 2.683,10.192 C2.658,10.186 2.633,10.180 2.608,10.174 C2.602,10.162 2.596,10.149 2.590,10.137 C2.577,10.137 2.565,10.137 2.552,10.137 C2.552,10.131 2.552,10.125 2.552,10.118 C2.540,10.118 2.528,10.118 2.515,10.118 C2.509,10.106 2.503,10.094 2.497,10.082 C2.484,10.082 2.472,10.082 2.459,10.082 C2.453,10.070 2.447,10.057 2.441,10.045 C2.428,10.045 2.416,10.045 2.403,10.045 C2.391,10.027 2.379,10.008 2.366,9.990 C2.354,9.990 2.341,9.990 2.329,9.990 C2.323,9.978 2.316,9.966 2.310,9.953 C2.298,9.953 2.285,9.953 2.273,9.953 C2.254,9.929 2.236,9.905 2.217,9.880 C2.205,9.880 2.192,9.880 2.180,9.880 C2.174,9.868 2.167,9.856 2.161,9.843 C2.149,9.843 2.136,9.843 2.124,9.843 C2.124,9.838 2.124,9.832 2.124,9.825 C2.091,9.798 2.079,9.783 2.031,9.770 C2.031,9.758 2.031,9.746 2.031,9.734 C1.949,9.713 1.926,9.646 1.844,9.624 C1.844,9.611 1.844,9.599 1.844,9.587 C1.832,9.587 1.820,9.587 1.807,9.587 C1.807,9.575 1.807,9.562 1.807,9.550 C1.795,9.550 1.782,9.550 1.770,9.550 C1.770,9.538 1.770,9.526 1.770,9.513 C1.757,9.513 1.745,9.513 1.733,9.513 C1.733,9.501 1.733,9.489 1.733,9.477 C1.720,9.477 1.708,9.477 1.695,9.477 C1.695,9.465 1.695,9.452 1.695,9.440 C1.683,9.440 1.670,9.440 1.658,9.440 C1.658,9.428 1.658,9.416 1.658,9.403 C1.646,9.403 1.633,9.403 1.621,9.403 C1.621,9.391 1.621,9.379 1.621,9.367 C1.608,9.367 1.596,9.367 1.584,9.367 C1.584,9.355 1.584,9.342 1.584,9.330 C1.571,9.330 1.559,9.330 1.546,9.330 C1.546,9.318 1.546,9.306 1.546,9.293 C1.534,9.293 1.521,9.293 1.509,9.293 C1.509,9.282 1.509,9.269 1.509,9.257 C1.497,9.257 1.484,9.257 1.472,9.257 C1.472,9.245 1.472,9.232 1.472,9.220 C1.459,9.220 1.447,9.220 1.434,9.220 C1.434,9.208 1.434,9.196 1.434,9.184 C1.422,9.184 1.410,9.184 1.397,9.184 C1.376,9.104 1.309,9.087 1.285,9.000 C1.273,9.000 1.260,9.000 1.248,9.000 C1.248,8.988 1.248,8.976 1.248,8.963 C1.236,8.963 1.223,8.963 1.211,8.963 C1.211,8.951 1.211,8.939 1.211,8.927 C1.148,8.888 1.141,8.838 1.099,8.780 C1.080,8.768 1.062,8.756 1.043,8.744 C1.043,8.731 1.043,8.719 1.043,8.707 C1.031,8.701 1.018,8.695 1.006,8.688 C1.006,8.676 1.006,8.664 1.006,8.652 C0.987,8.639 0.969,8.627 0.950,8.615 C0.944,8.591 0.938,8.566 0.931,8.542 C0.913,8.530 0.894,8.517 0.875,8.505 C0.869,8.481 0.863,8.456 0.857,8.432 C0.844,8.426 0.832,8.419 0.820,8.413 C0.813,8.389 0.807,8.365 0.801,8.340 C0.789,8.334 0.776,8.328 0.764,8.322 C0.757,8.297 0.751,8.273 0.745,8.248 C0.733,8.242 0.720,8.236 0.708,8.231 C0.708,8.218 0.708,8.206 0.708,8.193 C0.702,8.193 0.695,8.193 0.689,8.193 C0.689,8.182 0.689,8.169 0.689,8.157 C0.683,8.157 0.677,8.157 0.670,8.157 C0.670,8.145 0.670,8.133 0.670,8.120 C0.664,8.120 0.658,8.120 0.652,8.120 C0.652,8.108 0.652,8.096 0.652,8.083 C0.639,8.077 0.627,8.071 0.615,8.065 C0.615,8.047 0.615,8.029 0.615,8.011 C0.602,8.004 0.590,7.998 0.577,7.992 C0.577,7.974 0.577,7.955 0.577,7.937 C0.565,7.931 0.552,7.925 0.540,7.919 C0.540,7.900 0.540,7.881 0.540,7.863 C0.528,7.857 0.515,7.851 0.503,7.845 C0.503,7.827 0.503,7.809 0.503,7.791 C0.497,7.791 0.490,7.791 0.484,7.791 C0.484,7.778 0.484,7.766 0.484,7.753 C0.478,7.753 0.472,7.753 0.465,7.753 C0.465,7.735 0.465,7.717 0.465,7.699 C0.459,7.699 0.453,7.699 0.447,7.699 C0.447,7.687 0.447,7.674 0.447,7.661 C0.441,7.661 0.434,7.661 0.428,7.661 C0.428,7.644 0.428,7.625 0.428,7.607 C0.416,7.601 0.403,7.595 0.391,7.589 C0.378,7.534 0.366,7.479 0.354,7.424 C0.341,7.417 0.329,7.412 0.316,7.405 C0.310,7.356 0.304,7.307 0.298,7.259 C0.292,7.259 0.285,7.259 0.279,7.259 C0.279,7.240 0.279,7.221 0.279,7.204 C0.267,7.197 0.254,7.191 0.242,7.185 C0.236,7.136 0.229,7.087 0.223,7.038 C0.217,7.038 0.211,7.038 0.205,7.038 C0.205,7.014 0.205,6.989 0.205,6.965 C0.198,6.965 0.192,6.965 0.186,6.965 C0.186,6.941 0.186,6.916 0.186,6.892 C0.180,6.892 0.174,6.892 0.167,6.892 C0.167,6.868 0.167,6.843 0.167,6.818 C0.161,6.818 0.155,6.818 0.149,6.818 C0.149,6.806 0.149,6.794 0.149,6.782 C0.142,6.782 0.136,6.782 0.130,6.782 C0.130,6.757 0.130,6.733 0.130,6.709 C0.124,6.709 0.118,6.709 0.111,6.709 C0.111,6.660 0.111,6.611 0.111,6.562 C0.105,6.562 0.099,6.562 0.093,6.562 C0.093,6.538 0.093,6.513 0.093,6.489 C0.087,6.489 0.080,6.489 0.074,6.489 C0.074,6.440 0.074,6.391 0.074,6.342 C0.068,6.342 0.062,6.342 0.056,6.342 C0.056,6.317 0.056,6.293 0.056,6.268 C0.049,6.268 0.043,6.268 0.037,6.268 C0.037,6.244 0.037,6.220 0.037,6.195 C0.031,6.195 0.025,6.195 0.018,6.195 C0.018,6.171 0.018,6.146 0.018,6.122 C0.012,6.122 0.006,6.122 -0.000,6.122 C-0.000,5.883 -0.000,5.645 -0.000,5.407 C-0.000,5.229 -0.000,5.053 -0.000,4.875 C0.006,4.875 0.012,4.875 0.018,4.875 C0.018,4.851 0.018,4.827 0.018,4.802 C0.025,4.802 0.031,4.802 0.037,4.802 C0.037,4.777 0.037,4.753 0.037,4.729 C0.043,4.729 0.049,4.729 0.056,4.729 C0.056,4.704 0.056,4.680 0.056,4.656 C0.062,4.656 0.068,4.656 0.074,4.656 C0.074,4.607 0.074,4.558 0.074,4.509 C0.080,4.509 0.087,4.509 0.093,4.509 C0.093,4.484 0.093,4.460 0.093,4.435 C0.099,4.435 0.105,4.435 0.111,4.435 C0.111,4.387 0.111,4.337 0.111,4.289 C0.118,4.289 0.124,4.289 0.130,4.289 C0.130,4.264 0.130,4.240 0.130,4.215 C0.136,4.215 0.142,4.215 0.149,4.215 C0.149,4.203 0.149,4.191 0.149,4.179 C0.155,4.179 0.161,4.179 0.167,4.179 C0.167,4.154 0.167,4.130 0.167,4.105 C0.174,4.105 0.180,4.105 0.186,4.105 C0.186,4.081 0.186,4.056 0.186,4.032 C0.192,4.032 0.198,4.032 0.205,4.032 C0.205,4.007 0.205,3.983 0.205,3.959 C0.211,3.959 0.217,3.959 0.223,3.959 C0.223,3.934 0.223,3.910 0.223,3.885 C0.229,3.885 0.236,3.885 0.242,3.885 C0.242,3.861 0.242,3.836 0.242,3.812 C0.254,3.806 0.267,3.800 0.279,3.794 C0.279,3.775 0.279,3.757 0.279,3.739 C0.285,3.739 0.292,3.739 0.298,3.739 C0.304,3.689 0.310,3.641 0.316,3.592 C0.329,3.586 0.341,3.579 0.354,3.573 C0.366,3.519 0.378,3.463 0.391,3.409 C0.403,3.402 0.416,3.396 0.428,3.390 C0.428,3.372 0.428,3.353 0.428,3.336 C0.434,3.336 0.441,3.336 0.447,3.336 C0.453,3.305 0.459,3.274 0.465,3.243 C0.472,3.243 0.478,3.243 0.484,3.243 C0.484,3.232 0.484,3.219 0.484,3.207 C0.490,3.207 0.497,3.207 0.503,3.207 C0.503,3.189 0.503,3.170 0.503,3.152 C0.515,3.146 0.528,3.140 0.540,3.133 C0.540,3.115 0.540,3.097 0.540,3.078 C0.552,3.072 0.565,3.066 0.577,3.060 C0.577,3.042 0.577,3.024 0.577,3.005 C0.590,2.999 0.602,2.993 0.615,2.987 C0.615,2.968 0.615,2.950 0.615,2.932 C0.627,2.926 0.639,2.920 0.652,2.914 C0.652,2.901 0.652,2.889 0.652,2.877 C0.658,2.877 0.664,2.877 0.670,2.877 C0.670,2.865 0.670,2.853 0.670,2.840 C0.677,2.840 0.683,2.840 0.689,2.840 C0.689,2.828 0.689,2.816 0.689,2.804 C0.695,2.804 0.702,2.804 0.708,2.804 C0.708,2.792 0.708,2.779 0.708,2.767 C0.720,2.761 0.733,2.755 0.745,2.749 C0.751,2.724 0.757,2.700 0.764,2.675 C0.776,2.669 0.789,2.663 0.801,2.657 C0.807,2.632 0.813,2.608 0.820,2.584 C0.832,2.578 0.844,2.571 0.857,2.566 C0.857,2.553 0.857,2.541 0.857,2.528 C0.863,2.528 0.869,2.528 0.875,2.528 C0.875,2.517 0.875,2.504 0.875,2.492 C0.894,2.480 0.913,2.468 0.931,2.456 C0.938,2.431 0.944,2.406 0.950,2.382 C0.969,2.370 0.987,2.358 1.006,2.345 C1.006,2.333 1.006,2.321 1.006,2.309 C1.018,2.302 1.031,2.296 1.043,2.290 C1.043,2.278 1.043,2.266 1.043,2.254 C1.062,2.241 1.080,2.229 1.099,2.216 C1.099,2.205 1.099,2.192 1.099,2.180 C1.111,2.174 1.124,2.168 1.136,2.162 C1.142,2.144 1.149,2.126 1.155,2.107 C1.161,2.107 1.167,2.107 1.174,2.107 C1.195,2.080 1.199,2.074 1.211,2.034 C1.223,2.034 1.236,2.034 1.248,2.034 C1.248,2.021 1.248,2.009 1.248,1.997 C1.260,1.997 1.273,1.997 1.285,1.997 C1.307,1.912 1.374,1.894 1.397,1.813 C1.410,1.813 1.422,1.813 1.434,1.813 C1.434,1.801 1.434,1.789 1.434,1.777 C1.447,1.777 1.459,1.777 1.472,1.777 C1.472,1.765 1.472,1.753 1.472,1.741 C1.484,1.741 1.497,1.741 1.509,1.741 C1.509,1.728 1.509,1.716 1.509,1.704 C1.521,1.704 1.534,1.704 1.546,1.704 C1.546,1.691 1.546,1.679 1.546,1.667 C1.559,1.667 1.571,1.667 1.584,1.667 C1.584,1.655 1.584,1.642 1.584,1.631 C1.596,1.631 1.608,1.631 1.621,1.631 C1.621,1.618 1.621,1.606 1.621,1.594 C1.633,1.594 1.646,1.594 1.658,1.594 C1.658,1.581 1.658,1.569 1.658,1.557 C1.670,1.557 1.683,1.557 1.695,1.557 C1.695,1.545 1.695,1.532 1.695,1.520 C1.708,1.520 1.720,1.520 1.733,1.520 C1.733,1.508 1.733,1.495 1.733,1.484 C1.745,1.484 1.757,1.484 1.770,1.484 C1.770,1.471 1.770,1.459 1.770,1.447 C1.782,1.447 1.795,1.447 1.807,1.447 C1.807,1.435 1.807,1.422 1.807,1.410 C1.820,1.410 1.832,1.410 1.844,1.410 C1.844,1.398 1.844,1.385 1.844,1.374 C1.926,1.353 1.949,1.285 2.031,1.263 C2.031,1.251 2.031,1.239 2.031,1.227 C2.043,1.227 2.056,1.227 2.068,1.227 C2.115,1.151 2.150,1.163 2.217,1.117 C2.236,1.092 2.254,1.068 2.273,1.043 C2.285,1.043 2.298,1.043 2.310,1.043 C2.316,1.031 2.323,1.019 2.329,1.007 C2.341,1.007 2.354,1.007 2.366,1.007 C2.379,0.989 2.391,0.970 2.403,0.952 C2.416,0.952 2.428,0.952 2.441,0.952 C2.447,0.940 2.453,0.927 2.459,0.915 C2.472,0.915 2.484,0.915 2.497,0.915 C2.503,0.903 2.509,0.891 2.515,0.879 C2.540,0.872 2.565,0.866 2.590,0.860 C2.596,0.848 2.602,0.836 2.608,0.824 C2.633,0.818 2.658,0.811 2.683,0.805 C2.689,0.793 2.695,0.781 2.702,0.768 C2.726,0.762 2.751,0.757 2.776,0.750 C2.782,0.738 2.788,0.726 2.795,0.713 C2.819,0.707 2.844,0.701 2.869,0.695 C2.875,0.683 2.882,0.671 2.888,0.658 C2.900,0.658 2.913,0.658 2.925,0.658 C2.925,0.652 2.925,0.646 2.925,0.640 C2.937,0.640 2.950,0.640 2.962,0.640 C2.962,0.634 2.962,0.628 2.962,0.622 C2.975,0.622 2.987,0.622 3.000,0.622 C3.000,0.616 3.000,0.610 3.000,0.604 C3.012,0.604 3.024,0.604 3.037,0.604 C3.037,0.597 3.037,0.591 3.037,0.586 C3.049,0.586 3.062,0.586 3.074,0.586 C3.074,0.580 3.074,0.573 3.074,0.567 C3.087,0.567 3.099,0.567 3.111,0.567 C3.111,0.561 3.111,0.555 3.111,0.549 C3.149,0.536 3.186,0.524 3.223,0.511 C3.223,0.506 3.223,0.500 3.223,0.494 C3.242,0.494 3.261,0.494 3.279,0.494 C3.279,0.487 3.279,0.481 3.279,0.475 C3.292,0.475 3.304,0.475 3.316,0.475 C3.316,0.469 3.316,0.463 3.316,0.457 C3.335,0.457 3.354,0.457 3.372,0.457 C3.379,0.445 3.385,0.432 3.391,0.420 C3.410,0.420 3.428,0.420 3.447,0.420 C3.447,0.414 3.447,0.408 3.447,0.402 C3.459,0.402 3.472,0.402 3.484,0.402 C3.484,0.396 3.484,0.390 3.484,0.384 C3.515,0.377 3.546,0.371 3.577,0.365 C3.577,0.359 3.577,0.353 3.577,0.347 C3.602,0.347 3.627,0.347 3.652,0.347 C3.652,0.341 3.652,0.335 3.652,0.328 C3.664,0.328 3.677,0.328 3.689,0.328 C3.689,0.322 3.689,0.316 3.689,0.310 C3.714,0.310 3.739,0.310 3.764,0.310 C3.764,0.304 3.764,0.298 3.764,0.292 C3.776,0.292 3.788,0.292 3.801,0.292 C3.801,0.286 3.801,0.280 3.801,0.274 C3.819,0.274 3.838,0.274 3.857,0.274 C3.857,0.268 3.857,0.261 3.857,0.255 C3.869,0.255 3.882,0.255 3.894,0.255 C3.894,0.249 3.894,0.243 3.894,0.237 C3.913,0.237 3.931,0.237 3.950,0.237 C3.950,0.231 3.950,0.224 3.950,0.218 C3.975,0.218 4.000,0.218 4.024,0.218 C4.024,0.212 4.024,0.206 4.024,0.200 C4.049,0.200 4.074,0.200 4.099,0.200 C4.099,0.194 4.099,0.188 4.099,0.182 C4.136,0.182 4.174,0.182 4.211,0.182 C4.211,0.176 4.211,0.170 4.211,0.164 C4.236,0.164 4.261,0.164 4.285,0.164 C4.285,0.157 4.285,0.151 4.285,0.145 C4.310,0.145 4.335,0.145 4.360,0.145 C4.360,0.139 4.360,0.133 4.360,0.127 C4.385,0.127 4.410,0.127 4.434,0.127 C4.434,0.121 4.434,0.114 4.434,0.108 C4.472,0.108 4.509,0.108 4.546,0.108 C4.546,0.102 4.546,0.096 4.546,0.090 C4.571,0.090 4.596,0.090 4.621,0.090 C4.621,0.084 4.621,0.078 4.621,0.072 C4.683,0.072 4.745,0.072 4.807,0.072 C4.807,0.066 4.807,0.060 4.807,0.054 C4.832,0.054 4.857,0.054 4.882,0.054 C4.882,0.047 4.882,0.041 4.882,0.035 C4.969,0.035 5.056,0.035 5.143,0.035 C5.143,0.029 5.143,0.023 5.143,0.017 C5.167,0.017 5.192,0.017 5.217,0.017 C5.217,0.011 5.217,0.004 5.217,-0.002 C5.453,-0.002 5.689,-0.002 5.925,-0.002 C6.000,0.004 6.074,0.011 6.149,0.017 C6.149,0.023 6.149,0.029 6.149,0.035 C6.223,0.041 6.298,0.047 6.372,0.054 C6.372,0.060 6.372,0.066 6.372,0.072 C6.434,0.072 6.497,0.072 6.559,0.072 C6.559,0.078 6.559,0.084 6.559,0.090 C6.583,0.090 6.608,0.090 6.633,0.090 C6.633,0.096 6.633,0.102 6.633,0.108 C6.683,0.108 6.733,0.108 6.782,0.108 C6.782,0.114 6.782,0.121 6.782,0.127 C6.807,0.127 6.832,0.127 6.857,0.127 C6.857,0.133 6.857,0.139 6.857,0.145 C6.882,0.145 6.907,0.145 6.931,0.145 C6.931,0.151 6.931,0.157 6.931,0.164 C6.950,0.164 6.969,0.164 6.987,0.164 C6.987,0.170 6.987,0.176 6.987,0.182 C7.000,0.182 7.012,0.182 7.025,0.182 C7.025,0.188 7.025,0.194 7.025,0.200 C7.043,0.200 7.062,0.200 7.080,0.200 C7.080,0.206 7.080,0.212 7.080,0.218 C7.130,0.224 7.180,0.231 7.229,0.237 C7.229,0.243 7.229,0.249 7.229,0.255 C7.242,0.255 7.254,0.255 7.267,0.255 C7.267,0.261 7.267,0.268 7.267,0.274 C7.292,0.274 7.316,0.274 7.341,0.274 C7.341,0.280 7.341,0.286 7.341,0.292 C7.354,0.292 7.366,0.292 7.378,0.292 C7.378,0.298 7.378,0.304 7.378,0.310 C7.403,0.310 7.428,0.310 7.453,0.310 C7.453,0.316 7.453,0.322 7.453,0.328 C7.465,0.328 7.478,0.328 7.490,0.328 C7.490,0.335 7.490,0.341 7.490,0.347 C7.515,0.347 7.540,0.347 7.565,0.347 C7.565,0.353 7.565,0.359 7.565,0.365 C7.577,0.365 7.590,0.365 7.602,0.365 C7.602,0.371 7.602,0.377 7.602,0.384 C7.627,0.384 7.652,0.384 7.677,0.384 C7.683,0.396 7.689,0.408 7.695,0.420 C7.714,0.420 7.733,0.420 7.751,0.420 C7.751,0.426 7.751,0.432 7.751,0.439 C7.764,0.439 7.776,0.439 7.789,0.439 C7.789,0.445 7.789,0.451 7.789,0.457 C7.807,0.457 7.826,0.457 7.844,0.457 C7.844,0.463 7.844,0.469 7.844,0.475 C7.869,0.481 7.894,0.487 7.919,0.494 C7.919,0.500 7.919,0.506 7.919,0.511 C7.931,0.511 7.944,0.511 7.956,0.511 C7.956,0.517 7.956,0.524 7.956,0.530 C7.975,0.530 7.993,0.530 8.012,0.530 C8.018,0.542 8.024,0.555 8.031,0.567 C8.049,0.567 8.068,0.567 8.087,0.567 C8.093,0.580 8.099,0.591 8.105,0.604 C8.124,0.604 8.142,0.604 8.161,0.604 C8.167,0.616 8.174,0.628 8.180,0.640 C8.192,0.640 8.205,0.640 8.217,0.640 C8.217,0.646 8.217,0.652 8.217,0.658 C8.229,0.658 8.242,0.658 8.254,0.658 C8.254,0.665 8.254,0.671 8.254,0.677 C8.267,0.677 8.279,0.677 8.292,0.677 C8.292,0.683 8.292,0.689 8.292,0.695 C8.304,0.695 8.316,0.695 8.329,0.695 C8.335,0.707 8.341,0.720 8.347,0.732 C8.372,0.738 8.397,0.744 8.422,0.750 C8.428,0.762 8.434,0.775 8.441,0.787 C8.465,0.793 8.490,0.799 8.515,0.805 C8.521,0.818 8.528,0.829 8.534,0.842 C8.546,0.842 8.559,0.842 8.571,0.842 C8.571,0.848 8.571,0.854 8.571,0.860 C8.584,0.860 8.596,0.860 8.608,0.860 C8.621,0.879 8.633,0.897 8.646,0.915 C8.670,0.921 8.695,0.927 8.720,0.933 C8.733,0.952 8.745,0.970 8.757,0.989 C8.770,0.989 8.782,0.989 8.795,0.989 C8.801,1.001 8.807,1.013 8.813,1.025 C8.826,1.025 8.838,1.025 8.851,1.025 C8.863,1.043 8.875,1.061 8.888,1.081 C8.900,1.081 8.913,1.081 8.925,1.081 C8.931,1.092 8.938,1.105 8.944,1.117 C8.956,1.117 8.969,1.117 8.981,1.117 C8.981,1.123 8.981,1.129 8.981,1.135 C9.014,1.162 9.026,1.177 9.074,1.190 ZM14.907,2.456 C15.316,2.456 15.726,2.456 16.136,2.456 C16.136,3.066 16.136,3.677 16.136,4.289 C16.757,4.289 17.379,4.289 18.000,4.289 C18.000,4.692 18.000,5.095 18.000,5.499 C17.379,5.499 16.757,5.499 16.136,5.499 C16.136,6.110 16.136,6.721 16.136,7.332 C15.726,7.332 15.316,7.332 14.907,7.332 C14.907,6.721 14.907,6.110 14.907,5.499 C14.285,5.499 13.664,5.499 13.043,5.499 C13.043,5.095 13.043,4.692 13.043,4.289 C13.664,4.289 14.285,4.289 14.907,4.289 C14.907,3.677 14.907,3.066 14.907,2.456 Z"/>
</svg>