<svg 
 xmlns="http://www.w3.org/2000/svg"
 xmlns:xlink="http://www.w3.org/1999/xlink"
 width="12px" height="12px">
<path fill-rule="evenodd"  fill="rgb(112, 111, 111)"
 d="M11.467,0.333 C11.467,0.346 11.467,0.359 11.467,0.372 C11.480,0.372 11.493,0.372 11.506,0.372 C11.506,0.385 11.506,0.399 11.506,0.412 C11.519,0.412 11.533,0.412 11.546,0.412 C11.546,0.425 11.546,0.438 11.546,0.452 C11.559,0.452 11.572,0.452 11.585,0.452 C11.585,0.464 11.585,0.477 11.585,0.490 C11.598,0.490 11.612,0.490 11.625,0.490 C11.625,0.503 11.625,0.517 11.625,0.529 C11.638,0.529 11.651,0.529 11.664,0.529 C11.678,0.581 11.695,0.593 11.723,0.628 C11.730,0.628 11.737,0.628 11.743,0.628 C11.750,0.654 11.756,0.681 11.763,0.707 C11.783,0.720 11.802,0.733 11.822,0.746 C11.822,0.766 11.822,0.785 11.822,0.805 C11.835,0.812 11.848,0.819 11.861,0.825 C11.861,0.844 11.861,0.864 11.861,0.884 C11.875,0.890 11.888,0.897 11.901,0.904 C11.901,0.930 11.901,0.956 11.901,0.982 C11.908,0.982 11.914,0.982 11.921,0.982 C11.921,0.995 11.921,1.008 11.921,1.021 C11.927,1.021 11.934,1.021 11.940,1.021 C11.940,1.048 11.940,1.074 11.940,1.100 C11.947,1.100 11.954,1.100 11.960,1.100 C11.960,1.127 11.960,1.153 11.960,1.179 C11.967,1.179 11.973,1.179 11.980,1.179 C11.980,1.205 11.980,1.231 11.980,1.258 C11.986,1.258 11.993,1.258 12.000,1.258 C12.000,3.048 12.000,4.838 12.000,6.628 C12.000,7.999 12.000,9.369 12.000,10.740 C11.993,10.740 11.986,10.740 11.980,10.740 C11.980,10.766 11.980,10.792 11.980,10.818 C11.973,10.818 11.967,10.818 11.960,10.818 C11.960,10.845 11.960,10.871 11.960,10.896 C11.954,10.896 11.947,10.896 11.940,10.896 C11.940,10.923 11.940,10.949 11.940,10.976 C11.934,10.976 11.927,10.976 11.921,10.976 C11.921,10.989 11.921,11.002 11.921,11.015 C11.914,11.015 11.908,11.015 11.901,11.015 C11.901,11.041 11.901,11.067 11.901,11.094 C11.888,11.100 11.875,11.107 11.861,11.113 C11.861,11.133 11.861,11.153 11.861,11.172 C11.848,11.179 11.835,11.186 11.822,11.192 C11.822,11.212 11.822,11.231 11.822,11.251 C11.802,11.264 11.783,11.278 11.763,11.290 C11.756,11.316 11.750,11.343 11.743,11.369 C11.737,11.369 11.730,11.369 11.723,11.369 C11.695,11.404 11.678,11.416 11.664,11.468 C11.651,11.468 11.638,11.468 11.625,11.468 C11.625,11.480 11.625,11.494 11.625,11.507 C11.612,11.507 11.598,11.507 11.585,11.507 C11.585,11.520 11.585,11.533 11.585,11.546 C11.572,11.546 11.559,11.546 11.546,11.546 C11.546,11.558 11.546,11.572 11.546,11.585 C11.533,11.585 11.519,11.585 11.506,11.585 C11.506,11.598 11.506,11.612 11.506,11.624 C11.493,11.624 11.480,11.624 11.467,11.624 C11.467,11.638 11.467,11.651 11.467,11.664 C11.414,11.678 11.405,11.696 11.368,11.724 C11.368,11.729 11.368,11.736 11.368,11.743 C11.348,11.743 11.329,11.743 11.309,11.743 C11.302,11.756 11.296,11.769 11.289,11.782 C11.263,11.789 11.237,11.796 11.210,11.802 C11.197,11.822 11.184,11.841 11.171,11.861 C11.151,11.861 11.131,11.861 11.112,11.861 C11.105,11.874 11.098,11.887 11.092,11.900 C11.065,11.900 11.039,11.900 11.013,11.900 C11.013,11.907 11.013,11.913 11.013,11.920 C10.986,11.920 10.960,11.920 10.934,11.920 C10.934,11.927 10.934,11.933 10.934,11.940 C10.907,11.940 10.881,11.940 10.855,11.940 C10.855,11.946 10.855,11.953 10.855,11.959 C10.789,11.966 10.723,11.972 10.658,11.979 C10.658,11.985 10.658,11.992 10.658,11.999 C8.908,11.999 7.157,11.999 5.408,11.999 C4.052,11.999 2.697,11.999 1.342,11.999 C1.342,11.992 1.342,11.985 1.342,11.979 C1.276,11.972 1.210,11.966 1.144,11.959 C1.144,11.953 1.144,11.946 1.144,11.940 C1.118,11.940 1.092,11.940 1.065,11.940 C1.065,11.933 1.065,11.927 1.065,11.920 C1.039,11.920 1.013,11.920 0.986,11.920 C0.986,11.913 0.986,11.907 0.986,11.900 C0.960,11.900 0.934,11.900 0.908,11.900 C0.901,11.887 0.894,11.874 0.888,11.861 C0.868,11.861 0.848,11.861 0.829,11.861 C0.815,11.841 0.802,11.822 0.789,11.802 C0.763,11.796 0.736,11.789 0.710,11.782 C0.704,11.769 0.697,11.756 0.690,11.743 C0.671,11.743 0.651,11.743 0.631,11.743 C0.631,11.736 0.631,11.729 0.631,11.724 C0.595,11.696 0.585,11.679 0.533,11.664 C0.533,11.651 0.533,11.638 0.533,11.624 C0.519,11.624 0.506,11.624 0.493,11.624 C0.493,11.612 0.493,11.598 0.493,11.585 C0.480,11.585 0.467,11.585 0.454,11.585 C0.454,11.572 0.454,11.558 0.454,11.546 C0.440,11.546 0.427,11.546 0.414,11.546 C0.414,11.533 0.414,11.520 0.414,11.507 C0.401,11.507 0.388,11.507 0.375,11.507 C0.375,11.494 0.375,11.480 0.375,11.468 C0.362,11.468 0.348,11.468 0.335,11.468 C0.321,11.416 0.304,11.404 0.276,11.369 C0.269,11.369 0.263,11.369 0.256,11.369 C0.250,11.343 0.243,11.316 0.236,11.290 C0.217,11.278 0.197,11.264 0.177,11.251 C0.177,11.231 0.177,11.212 0.177,11.192 C0.164,11.186 0.151,11.179 0.138,11.172 C0.138,11.153 0.138,11.133 0.138,11.113 C0.125,11.107 0.111,11.100 0.098,11.094 C0.098,11.067 0.098,11.041 0.098,11.015 C0.092,11.015 0.085,11.015 0.079,11.015 C0.079,11.002 0.079,10.989 0.079,10.976 C0.072,10.976 0.065,10.976 0.059,10.976 C0.059,10.949 0.059,10.923 0.059,10.896 C0.052,10.896 0.046,10.896 0.039,10.896 C0.039,10.871 0.039,10.845 0.039,10.818 C0.033,10.818 0.026,10.818 0.019,10.818 C0.019,10.792 0.019,10.766 0.019,10.740 C0.013,10.740 0.006,10.740 -0.000,10.740 C-0.000,8.949 -0.000,7.159 -0.000,5.369 C-0.000,3.999 -0.000,2.628 -0.000,1.258 C0.006,1.258 0.013,1.258 0.019,1.258 C0.019,1.231 0.019,1.205 0.019,1.179 C0.026,1.179 0.033,1.179 0.039,1.179 C0.039,1.153 0.039,1.127 0.039,1.100 C0.046,1.100 0.052,1.100 0.059,1.100 C0.059,1.074 0.059,1.048 0.059,1.021 C0.065,1.021 0.072,1.021 0.079,1.021 C0.079,1.008 0.079,0.995 0.079,0.982 C0.085,0.982 0.092,0.982 0.098,0.982 C0.098,0.956 0.098,0.930 0.098,0.904 C0.111,0.897 0.125,0.890 0.138,0.884 C0.138,0.864 0.138,0.844 0.138,0.825 C0.151,0.819 0.164,0.812 0.177,0.805 C0.177,0.785 0.177,0.766 0.177,0.746 C0.197,0.733 0.217,0.720 0.236,0.707 C0.243,0.681 0.250,0.654 0.256,0.628 C0.263,0.628 0.269,0.628 0.276,0.628 C0.304,0.593 0.321,0.581 0.335,0.529 C0.348,0.529 0.362,0.529 0.375,0.529 C0.375,0.517 0.375,0.503 0.375,0.490 C0.388,0.490 0.401,0.490 0.414,0.490 C0.414,0.477 0.414,0.464 0.414,0.452 C0.427,0.452 0.440,0.452 0.454,0.452 C0.454,0.438 0.454,0.425 0.454,0.412 C0.467,0.412 0.480,0.412 0.493,0.412 C0.493,0.399 0.493,0.385 0.493,0.372 C0.506,0.372 0.519,0.372 0.533,0.372 C0.533,0.359 0.533,0.346 0.533,0.333 C0.585,0.319 0.595,0.301 0.631,0.274 C0.631,0.268 0.631,0.260 0.631,0.254 C0.651,0.254 0.671,0.254 0.690,0.254 C0.697,0.241 0.704,0.228 0.710,0.215 C0.736,0.208 0.763,0.202 0.789,0.196 C0.802,0.175 0.815,0.156 0.829,0.136 C0.848,0.136 0.868,0.136 0.888,0.136 C0.894,0.123 0.901,0.110 0.908,0.097 C0.934,0.097 0.960,0.097 0.986,0.097 C0.986,0.090 0.986,0.084 0.986,0.077 C1.013,0.077 1.039,0.077 1.065,0.077 C1.065,0.071 1.065,0.064 1.065,0.058 C1.092,0.058 1.118,0.058 1.144,0.058 C1.144,0.051 1.144,0.044 1.144,0.038 C1.210,0.031 1.276,0.025 1.342,0.018 C1.342,0.012 1.342,0.005 1.342,-0.001 C3.092,-0.001 4.842,-0.001 6.592,-0.001 C7.947,-0.001 9.302,-0.001 10.658,-0.001 C10.658,0.005 10.658,0.012 10.658,0.018 C10.723,0.025 10.789,0.031 10.855,0.038 C10.855,0.044 10.855,0.051 10.855,0.058 C10.881,0.058 10.907,0.058 10.934,0.058 C10.934,0.064 10.934,0.071 10.934,0.077 C10.960,0.077 10.986,0.077 11.013,0.077 C11.013,0.084 11.013,0.090 11.013,0.097 C11.039,0.097 11.065,0.097 11.092,0.097 C11.098,0.110 11.105,0.123 11.112,0.136 C11.131,0.136 11.151,0.136 11.171,0.136 C11.184,0.156 11.197,0.175 11.210,0.196 C11.237,0.202 11.263,0.208 11.289,0.215 C11.296,0.228 11.302,0.241 11.309,0.254 C11.329,0.254 11.348,0.254 11.368,0.254 C11.368,0.260 11.368,0.268 11.368,0.274 C11.405,0.302 11.414,0.319 11.467,0.333 ZM8.427,1.435 C8.427,1.448 8.427,1.461 8.427,1.474 C8.414,1.474 8.401,1.474 8.388,1.474 C8.388,1.487 8.388,1.500 8.388,1.513 C8.375,1.513 8.362,1.513 8.348,1.513 C8.348,1.526 8.348,1.540 8.348,1.553 C8.335,1.553 8.322,1.553 8.309,1.553 C8.293,1.614 8.249,1.643 8.230,1.691 C8.230,1.717 8.230,1.743 8.230,1.769 C8.223,1.769 8.217,1.769 8.210,1.769 C8.210,2.110 8.210,2.451 8.210,2.792 C8.210,2.949 8.210,3.107 8.210,3.265 C8.217,3.265 8.223,3.265 8.230,3.265 C8.230,3.290 8.230,3.316 8.230,3.343 C8.249,3.390 8.293,3.419 8.309,3.480 C8.322,3.480 8.335,3.480 8.348,3.480 C8.348,3.494 8.348,3.507 8.348,3.520 C8.362,3.520 8.375,3.520 8.388,3.520 C8.388,3.533 8.388,3.546 8.388,3.559 C8.401,3.559 8.414,3.559 8.427,3.559 C8.427,3.573 8.427,3.586 8.427,3.598 C8.501,3.618 8.539,3.675 8.605,3.697 C8.993,3.697 9.381,3.697 9.769,3.697 C9.934,3.697 10.098,3.697 10.263,3.697 C10.329,3.675 10.366,3.618 10.440,3.598 C10.440,3.586 10.440,3.573 10.440,3.559 C10.454,3.559 10.467,3.559 10.480,3.559 C10.480,3.546 10.480,3.533 10.480,3.520 C10.493,3.520 10.506,3.520 10.519,3.520 C10.519,3.507 10.519,3.494 10.519,3.480 C10.533,3.480 10.546,3.480 10.559,3.480 C10.575,3.419 10.619,3.390 10.638,3.343 C10.638,3.316 10.638,3.290 10.638,3.265 C10.644,3.265 10.651,3.265 10.658,3.265 C10.658,2.923 10.658,2.582 10.658,2.241 C10.658,2.084 10.658,1.926 10.658,1.769 C10.651,1.769 10.644,1.769 10.638,1.769 C10.638,1.749 10.638,1.730 10.638,1.710 C10.625,1.703 10.611,1.697 10.598,1.691 C10.598,1.671 10.598,1.651 10.598,1.631 C10.585,1.624 10.572,1.618 10.559,1.612 C10.559,1.599 10.559,1.586 10.559,1.572 C10.552,1.572 10.546,1.572 10.539,1.572 C10.533,1.553 10.526,1.533 10.519,1.513 C10.506,1.513 10.493,1.513 10.480,1.513 C10.480,1.500 10.480,1.487 10.480,1.474 C10.467,1.474 10.454,1.474 10.440,1.474 C10.440,1.461 10.440,1.448 10.440,1.435 C10.378,1.419 10.350,1.375 10.302,1.356 C10.276,1.356 10.250,1.356 10.223,1.356 C10.223,1.349 10.223,1.343 10.223,1.337 C9.862,1.337 9.500,1.337 9.138,1.337 C8.973,1.337 8.809,1.337 8.644,1.337 C8.644,1.343 8.644,1.349 8.644,1.356 C8.618,1.356 8.592,1.356 8.565,1.356 C8.518,1.375 8.489,1.419 8.427,1.435 ZM4.480,4.150 C4.480,4.163 4.480,4.176 4.480,4.189 C4.467,4.189 4.454,4.189 4.440,4.189 C4.440,4.201 4.440,4.215 4.440,4.228 C4.427,4.228 4.414,4.228 4.401,4.228 C4.401,4.242 4.401,4.254 4.401,4.267 C4.388,4.267 4.375,4.267 4.361,4.267 C4.361,4.281 4.361,4.294 4.361,4.306 C4.348,4.306 4.335,4.306 4.322,4.306 C4.322,4.320 4.322,4.333 4.322,4.346 C4.309,4.346 4.296,4.346 4.283,4.346 C4.283,4.359 4.283,4.373 4.283,4.385 C4.269,4.385 4.256,4.385 4.243,4.385 C4.243,4.398 4.243,4.412 4.243,4.425 C4.230,4.425 4.217,4.425 4.204,4.425 C4.204,4.438 4.204,4.451 4.204,4.465 C4.190,4.465 4.177,4.465 4.164,4.465 C4.164,4.477 4.164,4.490 4.164,4.504 C4.151,4.504 4.138,4.504 4.125,4.504 C4.125,4.516 4.125,4.529 4.125,4.543 C4.112,4.543 4.098,4.543 4.085,4.543 C4.085,4.556 4.085,4.569 4.085,4.582 C4.072,4.582 4.059,4.582 4.046,4.582 C4.039,4.602 4.033,4.621 4.026,4.641 C4.019,4.641 4.013,4.641 4.006,4.641 C4.006,4.654 4.006,4.667 4.006,4.681 C3.993,4.687 3.980,4.694 3.967,4.700 C3.967,4.720 3.967,4.739 3.967,4.760 C3.947,4.773 3.927,4.785 3.907,4.798 C3.901,4.825 3.894,4.851 3.888,4.877 C3.875,4.884 3.861,4.891 3.848,4.897 C3.848,4.916 3.848,4.936 3.848,4.956 C3.835,4.963 3.822,4.969 3.809,4.976 C3.809,4.995 3.809,5.015 3.809,5.035 C3.796,5.041 3.783,5.048 3.769,5.054 C3.756,5.113 3.743,5.172 3.730,5.231 C3.723,5.231 3.717,5.231 3.710,5.231 C3.710,5.244 3.710,5.257 3.710,5.270 C3.704,5.270 3.697,5.270 3.690,5.270 C3.690,5.297 3.690,5.323 3.690,5.349 C3.684,5.349 3.677,5.349 3.671,5.349 C3.671,5.362 3.671,5.376 3.671,5.389 C3.664,5.389 3.658,5.389 3.651,5.389 C3.644,5.467 3.638,5.546 3.631,5.625 C3.625,5.625 3.618,5.625 3.612,5.625 C3.612,5.651 3.612,5.677 3.612,5.703 C3.605,5.703 3.598,5.703 3.592,5.703 C3.592,5.874 3.592,6.044 3.592,6.215 C3.598,6.215 3.605,6.215 3.612,6.215 C3.612,6.241 3.612,6.268 3.612,6.294 C3.618,6.294 3.625,6.294 3.631,6.294 C3.631,6.359 3.631,6.425 3.631,6.490 C3.638,6.490 3.644,6.490 3.651,6.490 C3.651,6.516 3.651,6.543 3.651,6.569 C3.658,6.569 3.664,6.569 3.671,6.569 C3.671,6.582 3.671,6.595 3.671,6.609 C3.677,6.609 3.684,6.609 3.690,6.609 C3.690,6.634 3.690,6.661 3.690,6.687 C3.697,6.687 3.704,6.687 3.710,6.687 C3.710,6.700 3.710,6.713 3.710,6.726 C3.717,6.726 3.723,6.726 3.730,6.726 C3.743,6.786 3.756,6.844 3.769,6.903 C3.783,6.910 3.796,6.917 3.809,6.923 C3.809,6.943 3.809,6.962 3.809,6.982 C3.822,6.989 3.835,6.995 3.848,7.002 C3.848,7.022 3.848,7.041 3.848,7.061 C3.861,7.067 3.875,7.074 3.888,7.080 C3.894,7.107 3.901,7.133 3.907,7.159 C3.927,7.172 3.947,7.185 3.967,7.199 C3.973,7.225 3.980,7.251 3.986,7.277 C4.000,7.284 4.013,7.290 4.026,7.297 C4.033,7.316 4.039,7.336 4.046,7.356 C4.052,7.356 4.059,7.356 4.065,7.356 C4.072,7.375 4.079,7.396 4.085,7.415 C4.098,7.415 4.112,7.415 4.125,7.415 C4.125,7.428 4.125,7.442 4.125,7.454 C4.138,7.454 4.151,7.454 4.164,7.454 C4.164,7.467 4.164,7.481 4.164,7.494 C4.177,7.494 4.190,7.494 4.204,7.494 C4.204,7.507 4.204,7.520 4.204,7.533 C4.217,7.533 4.230,7.533 4.243,7.533 C4.243,7.546 4.243,7.559 4.243,7.572 C4.256,7.572 4.269,7.572 4.283,7.572 C4.283,7.586 4.283,7.598 4.283,7.611 C4.296,7.611 4.309,7.611 4.322,7.611 C4.322,7.625 4.322,7.638 4.322,7.651 C4.335,7.651 4.348,7.651 4.361,7.651 C4.361,7.664 4.361,7.677 4.361,7.690 C4.375,7.690 4.388,7.690 4.401,7.690 C4.401,7.703 4.401,7.717 4.401,7.730 C4.414,7.730 4.427,7.730 4.440,7.730 C4.440,7.743 4.440,7.756 4.440,7.769 C4.491,7.783 4.544,7.817 4.579,7.848 C4.585,7.861 4.592,7.874 4.598,7.887 C4.612,7.887 4.625,7.887 4.638,7.887 C4.644,7.900 4.651,7.913 4.658,7.926 C4.671,7.926 4.684,7.926 4.697,7.926 C4.704,7.940 4.710,7.953 4.717,7.965 C4.736,7.965 4.756,7.965 4.776,7.965 C4.783,7.979 4.789,7.992 4.796,8.005 C4.815,8.005 4.835,8.005 4.855,8.005 C4.861,8.018 4.868,8.032 4.875,8.044 C4.894,8.044 4.914,8.044 4.934,8.044 C4.940,8.058 4.947,8.071 4.954,8.084 C4.973,8.084 4.993,8.084 5.013,8.084 C5.019,8.097 5.026,8.110 5.033,8.123 C5.092,8.136 5.151,8.149 5.210,8.163 C5.217,8.175 5.223,8.189 5.230,8.202 C5.250,8.202 5.269,8.202 5.289,8.202 C5.289,8.208 5.289,8.215 5.289,8.221 C5.315,8.221 5.342,8.221 5.368,8.221 C5.368,8.228 5.368,8.234 5.368,8.241 C5.394,8.241 5.421,8.241 5.447,8.241 C5.447,8.248 5.447,8.254 5.447,8.261 C5.500,8.261 5.552,8.261 5.605,8.261 C5.605,8.268 5.605,8.274 5.605,8.281 C5.631,8.281 5.658,8.281 5.684,8.281 C5.684,8.287 5.684,8.294 5.684,8.300 C5.894,8.300 6.105,8.300 6.315,8.300 C6.315,8.294 6.315,8.287 6.315,8.281 C6.342,8.281 6.368,8.281 6.394,8.281 C6.394,8.274 6.394,8.268 6.394,8.261 C6.460,8.261 6.526,8.261 6.592,8.261 C6.592,8.254 6.592,8.248 6.592,8.241 C6.618,8.241 6.644,8.241 6.671,8.241 C6.671,8.234 6.671,8.228 6.671,8.221 C6.684,8.221 6.697,8.221 6.710,8.221 C6.710,8.215 6.710,8.208 6.710,8.202 C6.736,8.202 6.763,8.202 6.789,8.202 C6.789,8.196 6.789,8.189 6.789,8.182 C6.802,8.182 6.815,8.182 6.829,8.182 C6.829,8.175 6.829,8.169 6.829,8.163 C6.888,8.149 6.947,8.136 7.006,8.123 C7.013,8.110 7.019,8.097 7.026,8.084 C7.046,8.084 7.065,8.084 7.085,8.084 C7.092,8.071 7.098,8.058 7.105,8.044 C7.125,8.044 7.144,8.044 7.164,8.044 C7.171,8.032 7.177,8.018 7.184,8.005 C7.210,7.999 7.236,7.992 7.263,7.986 C7.276,7.965 7.289,7.946 7.302,7.926 C7.322,7.926 7.342,7.926 7.362,7.926 C7.368,7.913 7.375,7.900 7.381,7.887 C7.408,7.881 7.434,7.874 7.460,7.868 C7.467,7.854 7.473,7.841 7.480,7.828 C7.500,7.821 7.519,7.815 7.539,7.809 C7.539,7.802 7.539,7.795 7.539,7.789 C7.559,7.782 7.579,7.776 7.598,7.769 C7.598,7.756 7.598,7.743 7.598,7.730 C7.611,7.730 7.625,7.730 7.638,7.730 C7.638,7.717 7.638,7.703 7.638,7.690 C7.651,7.690 7.664,7.690 7.677,7.690 C7.677,7.677 7.677,7.664 7.677,7.651 C7.690,7.651 7.704,7.651 7.717,7.651 C7.717,7.638 7.717,7.625 7.717,7.611 C7.730,7.611 7.743,7.611 7.756,7.611 C7.756,7.598 7.756,7.586 7.756,7.572 C7.769,7.572 7.783,7.572 7.796,7.572 C7.796,7.559 7.796,7.546 7.796,7.533 C7.809,7.533 7.822,7.533 7.835,7.533 C7.835,7.520 7.835,7.507 7.835,7.494 C7.848,7.494 7.862,7.494 7.875,7.494 C7.888,7.442 7.923,7.390 7.954,7.356 C7.967,7.349 7.980,7.343 7.993,7.336 C7.993,7.323 7.993,7.311 7.993,7.297 C8.006,7.290 8.019,7.284 8.033,7.277 C8.033,7.264 8.033,7.251 8.033,7.238 C8.052,7.225 8.072,7.212 8.092,7.199 C8.098,7.172 8.105,7.146 8.111,7.120 C8.125,7.113 8.138,7.107 8.151,7.100 C8.151,7.080 8.151,7.061 8.151,7.041 C8.164,7.035 8.177,7.028 8.190,7.022 C8.190,7.002 8.190,6.982 8.190,6.962 C8.204,6.956 8.217,6.949 8.230,6.943 C8.230,6.923 8.230,6.903 8.230,6.884 C8.243,6.877 8.256,6.871 8.269,6.864 C8.269,6.844 8.269,6.825 8.269,6.805 C8.276,6.805 8.283,6.805 8.289,6.805 C8.289,6.792 8.289,6.779 8.289,6.766 C8.296,6.766 8.302,6.766 8.309,6.766 C8.309,6.740 8.309,6.713 8.309,6.687 C8.315,6.687 8.322,6.687 8.329,6.687 C8.329,6.674 8.329,6.661 8.329,6.647 C8.335,6.647 8.342,6.647 8.348,6.647 C8.348,6.622 8.348,6.595 8.348,6.569 C8.355,6.569 8.362,6.569 8.368,6.569 C8.368,6.543 8.368,6.516 8.368,6.490 C8.375,6.490 8.381,6.490 8.388,6.490 C8.388,6.464 8.388,6.438 8.388,6.412 C8.394,6.412 8.401,6.412 8.408,6.412 C8.408,6.274 8.408,6.136 8.408,5.999 C8.408,5.848 8.408,5.697 8.408,5.546 C8.401,5.546 8.394,5.546 8.388,5.546 C8.388,5.520 8.388,5.494 8.388,5.467 C8.381,5.467 8.375,5.467 8.368,5.467 C8.368,5.441 8.368,5.415 8.368,5.389 C8.362,5.389 8.355,5.389 8.348,5.389 C8.348,5.362 8.348,5.336 8.348,5.310 C8.342,5.310 8.335,5.310 8.329,5.310 C8.329,5.297 8.329,5.284 8.329,5.270 C8.322,5.270 8.315,5.270 8.309,5.270 C8.296,5.212 8.283,5.152 8.269,5.094 C8.256,5.088 8.243,5.081 8.230,5.075 C8.230,5.054 8.230,5.035 8.230,5.015 C8.217,5.008 8.204,5.002 8.190,4.995 C8.190,4.976 8.190,4.956 8.190,4.936 C8.177,4.930 8.164,4.923 8.151,4.916 C8.151,4.897 8.151,4.877 8.151,4.858 C8.138,4.851 8.125,4.844 8.111,4.838 C8.105,4.812 8.098,4.785 8.092,4.760 C8.072,4.746 8.052,4.733 8.033,4.720 C8.026,4.694 8.019,4.667 8.013,4.641 C8.000,4.635 7.987,4.628 7.973,4.621 C7.967,4.602 7.960,4.582 7.954,4.563 C7.947,4.563 7.940,4.563 7.934,4.563 C7.927,4.543 7.921,4.523 7.914,4.504 C7.901,4.504 7.888,4.504 7.875,4.504 C7.875,4.490 7.875,4.477 7.875,4.465 C7.862,4.465 7.848,4.465 7.835,4.465 C7.835,4.451 7.835,4.438 7.835,4.425 C7.822,4.425 7.809,4.425 7.796,4.425 C7.796,4.412 7.796,4.398 7.796,4.385 C7.783,4.385 7.769,4.385 7.756,4.385 C7.756,4.373 7.756,4.359 7.756,4.346 C7.743,4.346 7.730,4.346 7.717,4.346 C7.717,4.333 7.717,4.320 7.717,4.306 C7.704,4.306 7.690,4.306 7.677,4.306 C7.677,4.294 7.677,4.281 7.677,4.267 C7.664,4.267 7.651,4.267 7.638,4.267 C7.638,4.254 7.638,4.242 7.638,4.228 C7.625,4.228 7.611,4.228 7.598,4.228 C7.598,4.215 7.598,4.201 7.598,4.189 C7.547,4.176 7.494,4.141 7.460,4.110 C7.454,4.097 7.447,4.084 7.440,4.071 C7.427,4.071 7.414,4.071 7.401,4.071 C7.394,4.058 7.388,4.045 7.381,4.032 C7.368,4.032 7.355,4.032 7.342,4.032 C7.335,4.018 7.329,4.005 7.322,3.992 C7.302,3.992 7.283,3.992 7.263,3.992 C7.256,3.979 7.250,3.965 7.243,3.952 C7.223,3.952 7.204,3.952 7.184,3.952 C7.177,3.939 7.171,3.926 7.164,3.914 C7.144,3.914 7.125,3.914 7.105,3.914 C7.098,3.900 7.092,3.887 7.085,3.874 C7.065,3.874 7.046,3.874 7.026,3.874 C7.019,3.861 7.013,3.848 7.006,3.834 C6.947,3.822 6.888,3.808 6.829,3.795 C6.822,3.781 6.815,3.769 6.809,3.756 C6.736,3.742 6.664,3.730 6.592,3.717 C6.592,3.710 6.592,3.704 6.592,3.697 C6.579,3.697 6.565,3.697 6.552,3.697 C6.552,3.691 6.552,3.684 6.552,3.677 C6.526,3.677 6.500,3.677 6.473,3.677 C6.473,3.671 6.473,3.664 6.473,3.658 C6.309,3.658 6.144,3.658 5.980,3.658 C5.829,3.658 5.677,3.658 5.526,3.658 C5.526,3.664 5.526,3.671 5.526,3.677 C5.506,3.677 5.487,3.677 5.467,3.677 C5.460,3.691 5.454,3.704 5.447,3.717 C5.368,3.730 5.289,3.742 5.210,3.756 C5.210,3.763 5.210,3.769 5.210,3.776 C5.197,3.776 5.184,3.776 5.171,3.776 C5.171,3.781 5.171,3.789 5.171,3.795 C5.151,3.795 5.131,3.795 5.112,3.795 C5.105,3.808 5.098,3.822 5.092,3.834 C5.033,3.848 4.973,3.861 4.914,3.874 C4.908,3.887 4.901,3.900 4.894,3.914 C4.868,3.920 4.842,3.926 4.815,3.933 C4.802,3.952 4.789,3.973 4.776,3.992 C4.756,3.992 4.736,3.992 4.717,3.992 C4.710,4.005 4.704,4.018 4.697,4.032 C4.671,4.038 4.644,4.045 4.618,4.051 C4.612,4.064 4.605,4.077 4.598,4.090 C4.579,4.097 4.559,4.103 4.539,4.110 C4.539,4.117 4.539,4.123 4.539,4.130 C4.519,4.136 4.500,4.143 4.480,4.150 ZM1.302,5.075 C1.302,6.792 1.302,8.510 1.302,10.228 C1.309,10.228 1.315,10.228 1.322,10.228 C1.322,10.248 1.322,10.267 1.322,10.287 C1.335,10.293 1.348,10.300 1.362,10.307 C1.362,10.326 1.362,10.346 1.362,10.366 C1.375,10.372 1.388,10.379 1.401,10.385 C1.401,10.399 1.401,10.412 1.401,10.424 C1.408,10.424 1.414,10.424 1.421,10.424 C1.427,10.444 1.434,10.464 1.440,10.484 C1.460,10.491 1.480,10.497 1.500,10.503 C1.500,10.510 1.500,10.517 1.500,10.523 C1.513,10.523 1.526,10.523 1.539,10.523 C1.546,10.536 1.552,10.549 1.559,10.563 C1.579,10.563 1.598,10.563 1.618,10.563 C1.618,10.569 1.618,10.576 1.618,10.582 C1.631,10.582 1.644,10.582 1.658,10.582 C1.658,10.588 1.658,10.595 1.658,10.602 C1.684,10.602 1.710,10.602 1.737,10.602 C1.737,10.608 1.737,10.615 1.737,10.622 C2.381,10.622 3.026,10.622 3.671,10.622 C4.822,10.622 5.973,10.622 7.125,10.622 C8.171,10.622 9.217,10.622 10.263,10.622 C10.263,10.615 10.263,10.608 10.263,10.602 C10.283,10.602 10.302,10.602 10.322,10.602 C10.329,10.588 10.335,10.576 10.342,10.563 C10.361,10.563 10.381,10.563 10.401,10.563 C10.408,10.549 10.414,10.536 10.421,10.523 C10.434,10.523 10.447,10.523 10.460,10.523 C10.460,10.517 10.460,10.510 10.460,10.503 C10.480,10.497 10.500,10.491 10.519,10.484 C10.519,10.471 10.519,10.458 10.519,10.444 C10.533,10.444 10.546,10.444 10.559,10.444 C10.575,10.383 10.619,10.354 10.638,10.307 C10.638,10.280 10.638,10.255 10.638,10.228 C10.644,10.228 10.651,10.228 10.658,10.228 C10.658,9.645 10.658,9.061 10.658,8.477 C10.658,7.343 10.658,6.208 10.658,5.075 C10.315,5.075 9.973,5.075 9.631,5.075 C9.623,5.133 9.607,5.156 9.631,5.231 C9.638,5.231 9.644,5.231 9.651,5.231 C9.651,5.257 9.651,5.284 9.651,5.310 C9.658,5.310 9.664,5.310 9.671,5.310 C9.671,5.336 9.671,5.362 9.671,5.389 C9.677,5.389 9.684,5.389 9.690,5.389 C9.690,5.415 9.690,5.441 9.690,5.467 C9.697,5.467 9.704,5.467 9.710,5.467 C9.710,5.533 9.710,5.599 9.710,5.664 C9.717,5.664 9.723,5.664 9.730,5.664 C9.730,5.690 9.730,5.716 9.730,5.743 C9.737,5.743 9.743,5.743 9.750,5.743 C9.750,5.822 9.750,5.900 9.750,5.979 C9.750,6.162 9.750,6.346 9.750,6.530 C9.743,6.530 9.737,6.530 9.730,6.530 C9.730,6.556 9.730,6.582 9.730,6.609 C9.723,6.609 9.717,6.609 9.710,6.609 C9.710,6.674 9.710,6.740 9.710,6.805 C9.704,6.805 9.697,6.805 9.690,6.805 C9.690,6.832 9.690,6.858 9.690,6.884 C9.677,6.890 9.664,6.897 9.651,6.903 C9.651,6.923 9.651,6.943 9.651,6.962 C9.644,6.962 9.638,6.962 9.631,6.962 C9.631,7.002 9.631,7.041 9.631,7.080 C9.625,7.080 9.618,7.080 9.611,7.080 C9.611,7.107 9.611,7.133 9.611,7.159 C9.605,7.159 9.598,7.159 9.592,7.159 C9.592,7.172 9.592,7.185 9.592,7.199 C9.585,7.199 9.579,7.199 9.572,7.199 C9.572,7.225 9.572,7.251 9.572,7.277 C9.559,7.284 9.546,7.290 9.532,7.297 C9.532,7.316 9.532,7.336 9.532,7.356 C9.526,7.356 9.519,7.356 9.513,7.356 C9.513,7.369 9.513,7.382 9.513,7.395 C9.506,7.395 9.500,7.395 9.493,7.395 C9.493,7.421 9.493,7.448 9.493,7.474 C9.480,7.481 9.467,7.487 9.454,7.494 C9.454,7.513 9.454,7.533 9.454,7.553 C9.440,7.559 9.427,7.566 9.414,7.572 C9.414,7.592 9.414,7.611 9.414,7.632 C9.408,7.632 9.401,7.632 9.394,7.632 C9.388,7.657 9.381,7.684 9.375,7.710 C9.368,7.710 9.362,7.710 9.355,7.710 C9.348,7.736 9.342,7.763 9.335,7.789 C9.322,7.795 9.309,7.802 9.296,7.809 C9.296,7.828 9.296,7.848 9.296,7.868 C9.283,7.874 9.269,7.881 9.256,7.887 C9.256,7.906 9.256,7.926 9.256,7.946 C9.237,7.959 9.217,7.973 9.197,7.986 C9.190,8.012 9.184,8.037 9.177,8.064 C9.158,8.077 9.138,8.090 9.118,8.104 C9.111,8.130 9.105,8.156 9.098,8.182 C9.092,8.182 9.085,8.182 9.079,8.182 C9.050,8.217 9.034,8.229 9.019,8.281 C9.006,8.281 8.993,8.281 8.980,8.281 C8.957,8.372 8.886,8.391 8.862,8.477 C8.848,8.477 8.835,8.477 8.822,8.477 C8.822,8.490 8.822,8.504 8.822,8.517 C8.809,8.517 8.796,8.517 8.783,8.517 C8.783,8.530 8.783,8.543 8.783,8.556 C8.769,8.556 8.756,8.556 8.743,8.556 C8.743,8.569 8.743,8.583 8.743,8.596 C8.730,8.596 8.717,8.596 8.704,8.596 C8.704,8.608 8.704,8.621 8.704,8.635 C8.690,8.635 8.677,8.635 8.664,8.635 C8.664,8.648 8.664,8.661 8.664,8.674 C8.651,8.674 8.638,8.674 8.625,8.674 C8.625,8.687 8.625,8.700 8.625,8.713 C8.611,8.713 8.598,8.713 8.585,8.713 C8.585,8.727 8.585,8.740 8.585,8.752 C8.572,8.752 8.559,8.752 8.546,8.752 C8.546,8.766 8.546,8.779 8.546,8.792 C8.459,8.815 8.442,8.885 8.348,8.910 C8.348,8.923 8.348,8.936 8.348,8.949 C8.297,8.963 8.285,8.980 8.250,9.008 C8.250,9.015 8.250,9.022 8.250,9.029 C8.223,9.035 8.197,9.041 8.171,9.048 C8.158,9.068 8.144,9.087 8.131,9.107 C8.111,9.107 8.092,9.107 8.072,9.107 C8.065,9.120 8.059,9.133 8.052,9.146 C8.026,9.152 8.000,9.160 7.973,9.166 C7.960,9.185 7.947,9.205 7.934,9.225 C7.914,9.225 7.894,9.225 7.875,9.225 C7.868,9.238 7.862,9.251 7.855,9.264 C7.835,9.264 7.815,9.264 7.796,9.264 C7.789,9.277 7.783,9.290 7.776,9.303 C7.750,9.310 7.723,9.317 7.697,9.323 C7.697,9.330 7.697,9.336 7.697,9.343 C7.671,9.349 7.644,9.356 7.618,9.362 C7.618,9.369 7.618,9.375 7.618,9.382 C7.598,9.382 7.579,9.382 7.559,9.382 C7.552,9.395 7.546,9.408 7.539,9.422 C7.519,9.422 7.500,9.422 7.480,9.422 C7.473,9.434 7.467,9.448 7.460,9.461 C7.348,9.487 7.236,9.513 7.125,9.539 C7.118,9.553 7.111,9.566 7.105,9.579 C7.079,9.579 7.052,9.579 7.026,9.579 C7.026,9.585 7.026,9.592 7.026,9.598 C6.960,9.605 6.894,9.612 6.829,9.618 C6.829,9.625 6.829,9.631 6.829,9.638 C6.776,9.638 6.723,9.638 6.671,9.638 C6.671,9.645 6.671,9.651 6.671,9.658 C6.644,9.658 6.618,9.658 6.592,9.658 C6.592,9.664 6.592,9.670 6.592,9.677 C6.579,9.677 6.565,9.677 6.552,9.677 C6.552,9.684 6.552,9.691 6.552,9.697 C6.526,9.697 6.500,9.697 6.473,9.697 C6.473,9.703 6.473,9.710 6.473,9.717 C6.388,9.717 6.302,9.717 6.217,9.717 C6.013,9.717 5.809,9.717 5.605,9.717 C5.605,9.710 5.605,9.703 5.605,9.697 C5.579,9.697 5.552,9.697 5.526,9.697 C5.526,9.691 5.526,9.684 5.526,9.677 C5.447,9.677 5.368,9.677 5.289,9.677 C5.289,9.670 5.289,9.664 5.289,9.658 C5.263,9.658 5.236,9.658 5.210,9.658 C5.210,9.651 5.210,9.645 5.210,9.638 C5.197,9.638 5.184,9.638 5.171,9.638 C5.171,9.631 5.171,9.625 5.171,9.618 C5.144,9.618 5.118,9.618 5.092,9.618 C5.092,9.612 5.092,9.605 5.092,9.598 C5.026,9.592 4.960,9.585 4.894,9.579 C4.888,9.566 4.881,9.553 4.875,9.539 C4.855,9.539 4.835,9.539 4.815,9.539 C4.815,9.533 4.815,9.526 4.815,9.520 C4.802,9.520 4.789,9.520 4.776,9.520 C4.776,9.513 4.776,9.507 4.776,9.500 C4.697,9.487 4.618,9.474 4.539,9.461 C4.533,9.448 4.526,9.434 4.519,9.422 C4.500,9.422 4.480,9.422 4.460,9.422 C4.454,9.408 4.447,9.395 4.440,9.382 C4.421,9.382 4.401,9.382 4.381,9.382 C4.375,9.369 4.368,9.356 4.361,9.343 C4.342,9.343 4.322,9.343 4.302,9.343 C4.296,9.330 4.289,9.317 4.283,9.303 C4.263,9.303 4.243,9.303 4.223,9.303 C4.217,9.290 4.210,9.277 4.204,9.264 C4.184,9.264 4.164,9.264 4.144,9.264 C4.131,9.245 4.118,9.225 4.105,9.205 C4.079,9.199 4.052,9.192 4.026,9.185 C4.019,9.172 4.013,9.160 4.006,9.146 C3.986,9.146 3.967,9.146 3.947,9.146 C3.934,9.127 3.921,9.107 3.907,9.087 C3.881,9.081 3.855,9.074 3.829,9.068 C3.809,9.041 3.789,9.015 3.769,8.989 C3.756,8.989 3.743,8.989 3.730,8.989 C3.723,8.975 3.717,8.962 3.710,8.949 C3.697,8.949 3.684,8.949 3.671,8.949 C3.671,8.943 3.671,8.936 3.671,8.930 C3.636,8.902 3.623,8.885 3.572,8.870 C3.572,8.858 3.572,8.844 3.572,8.831 C3.559,8.831 3.546,8.831 3.533,8.831 C3.533,8.818 3.533,8.805 3.533,8.792 C3.519,8.792 3.506,8.792 3.493,8.792 C3.493,8.779 3.493,8.766 3.493,8.752 C3.480,8.752 3.467,8.752 3.454,8.752 C3.454,8.740 3.454,8.727 3.454,8.713 C3.440,8.713 3.427,8.713 3.414,8.713 C3.414,8.700 3.414,8.687 3.414,8.674 C3.401,8.674 3.388,8.674 3.375,8.674 C3.375,8.661 3.375,8.648 3.375,8.635 C3.361,8.635 3.348,8.635 3.335,8.635 C3.335,8.621 3.335,8.608 3.335,8.596 C3.322,8.596 3.309,8.596 3.296,8.596 C3.296,8.583 3.296,8.569 3.296,8.556 C3.283,8.556 3.269,8.556 3.256,8.556 C3.256,8.543 3.256,8.530 3.256,8.517 C3.243,8.517 3.230,8.517 3.217,8.517 C3.217,8.504 3.217,8.490 3.217,8.477 C3.204,8.477 3.190,8.477 3.177,8.477 C3.177,8.464 3.177,8.451 3.177,8.438 C3.164,8.438 3.151,8.438 3.138,8.438 C3.138,8.425 3.138,8.412 3.138,8.399 C3.125,8.399 3.111,8.399 3.098,8.399 C3.076,8.312 3.005,8.295 2.980,8.202 C2.967,8.202 2.954,8.202 2.940,8.202 C2.927,8.149 2.909,8.140 2.881,8.104 C2.875,8.104 2.868,8.104 2.861,8.104 C2.861,8.084 2.861,8.064 2.861,8.044 C2.848,8.037 2.835,8.032 2.822,8.025 C2.815,7.999 2.809,7.973 2.802,7.946 C2.783,7.933 2.763,7.920 2.743,7.906 C2.737,7.881 2.730,7.854 2.723,7.828 C2.704,7.815 2.684,7.802 2.664,7.789 C2.664,7.769 2.664,7.750 2.664,7.730 C2.651,7.723 2.638,7.717 2.625,7.710 C2.625,7.690 2.625,7.671 2.625,7.651 C2.611,7.644 2.598,7.638 2.585,7.632 C2.585,7.611 2.585,7.592 2.585,7.572 C2.572,7.566 2.559,7.559 2.546,7.553 C2.546,7.526 2.546,7.500 2.546,7.474 C2.539,7.474 2.533,7.474 2.526,7.474 C2.526,7.461 2.526,7.448 2.526,7.434 C2.519,7.434 2.513,7.434 2.506,7.434 C2.493,7.375 2.480,7.316 2.467,7.258 C2.454,7.251 2.440,7.245 2.427,7.238 C2.408,7.120 2.388,7.002 2.368,6.884 C2.362,6.884 2.355,6.884 2.348,6.884 C2.348,6.858 2.348,6.832 2.348,6.805 C2.342,6.805 2.335,6.805 2.329,6.805 C2.322,6.740 2.315,6.674 2.309,6.609 C2.302,6.609 2.296,6.609 2.289,6.609 C2.289,6.392 2.289,6.175 2.289,5.959 C2.289,5.835 2.289,5.710 2.289,5.585 C2.296,5.585 2.302,5.585 2.309,5.585 C2.342,5.415 2.375,5.244 2.408,5.075 C2.039,5.075 1.671,5.075 1.302,5.075 Z"/>
</svg>