<svg 
 xmlns="http://www.w3.org/2000/svg"
 xmlns:xlink="http://www.w3.org/1999/xlink"
 width="13px" height="12px">
<path fill-rule="evenodd"  fill="rgb(112, 111, 111)"
 d="M2.672,0.349 C2.672,0.362 2.672,0.377 2.672,0.390 C2.687,0.390 2.701,0.390 2.715,0.390 C2.715,0.404 2.715,0.418 2.715,0.431 C2.729,0.431 2.744,0.431 2.758,0.431 C2.773,0.486 2.792,0.498 2.822,0.535 C2.829,0.535 2.836,0.535 2.843,0.535 C2.851,0.562 2.858,0.590 2.865,0.617 C2.886,0.631 2.908,0.645 2.929,0.658 C2.929,0.679 2.929,0.700 2.929,0.720 C2.943,0.727 2.957,0.734 2.972,0.741 C2.972,0.761 2.972,0.782 2.972,0.803 C2.986,0.810 3.000,0.817 3.014,0.823 C3.014,0.844 3.014,0.864 3.014,0.885 C3.029,0.892 3.043,0.899 3.057,0.906 C3.064,0.974 3.071,1.044 3.079,1.112 C3.086,1.112 3.093,1.112 3.100,1.112 C3.100,1.140 3.100,1.167 3.100,1.194 C3.107,1.194 3.114,1.194 3.121,1.194 C3.121,1.346 3.121,1.497 3.121,1.648 C3.114,1.648 3.107,1.648 3.100,1.648 C3.100,1.675 3.100,1.703 3.100,1.730 C3.093,1.730 3.086,1.730 3.079,1.730 C3.079,1.759 3.079,1.786 3.079,1.813 C3.071,1.813 3.064,1.813 3.057,1.813 C3.057,1.840 3.057,1.868 3.057,1.896 C3.043,1.902 3.029,1.909 3.014,1.916 C3.014,1.936 3.014,1.957 3.014,1.978 C3.000,1.985 2.986,1.992 2.972,1.999 C2.972,2.019 2.972,2.040 2.972,2.061 C2.957,2.067 2.943,2.074 2.929,2.081 C2.929,2.101 2.929,2.122 2.929,2.143 C2.922,2.143 2.915,2.143 2.908,2.143 C2.878,2.181 2.859,2.191 2.843,2.246 C2.829,2.246 2.815,2.246 2.801,2.246 C2.801,2.260 2.801,2.274 2.801,2.287 C2.786,2.287 2.772,2.287 2.758,2.287 C2.758,2.301 2.758,2.314 2.758,2.328 C2.744,2.328 2.729,2.328 2.715,2.328 C2.715,2.343 2.715,2.356 2.715,2.370 C2.701,2.370 2.687,2.370 2.672,2.370 C2.672,2.383 2.672,2.398 2.672,2.411 C2.658,2.411 2.644,2.411 2.630,2.411 C2.630,2.424 2.630,2.438 2.630,2.452 C2.615,2.452 2.601,2.452 2.587,2.452 C2.587,2.466 2.587,2.479 2.587,2.493 C2.530,2.509 2.520,2.527 2.480,2.555 C2.480,2.562 2.480,2.569 2.480,2.576 C2.458,2.576 2.437,2.576 2.416,2.576 C2.409,2.590 2.401,2.603 2.394,2.617 C2.373,2.617 2.352,2.617 2.330,2.617 C2.323,2.631 2.316,2.645 2.309,2.658 C2.280,2.658 2.252,2.658 2.223,2.658 C2.223,2.665 2.223,2.672 2.223,2.679 C2.209,2.679 2.195,2.679 2.181,2.679 C2.181,2.686 2.181,2.693 2.181,2.700 C2.152,2.700 2.124,2.700 2.095,2.700 C2.095,2.706 2.095,2.713 2.095,2.720 C2.067,2.720 2.038,2.720 2.010,2.720 C2.010,2.727 2.010,2.734 2.010,2.741 C1.981,2.741 1.953,2.741 1.924,2.741 C1.924,2.748 1.924,2.754 1.924,2.762 C1.774,2.762 1.625,2.762 1.475,2.762 C1.368,2.762 1.261,2.762 1.154,2.762 C1.154,2.754 1.154,2.748 1.154,2.741 C1.126,2.741 1.097,2.741 1.069,2.741 C1.069,2.734 1.069,2.727 1.069,2.720 C1.040,2.720 1.012,2.720 0.983,2.720 C0.983,2.713 0.983,2.706 0.983,2.700 C0.955,2.700 0.926,2.700 0.898,2.700 C0.898,2.693 0.898,2.686 0.898,2.679 C0.883,2.679 0.869,2.679 0.855,2.679 C0.855,2.672 0.855,2.665 0.855,2.658 C0.826,2.658 0.798,2.658 0.769,2.658 C0.762,2.645 0.755,2.631 0.748,2.617 C0.727,2.617 0.705,2.617 0.684,2.617 C0.670,2.597 0.655,2.576 0.641,2.555 C0.613,2.549 0.584,2.541 0.556,2.535 C0.556,2.528 0.556,2.521 0.556,2.514 C0.517,2.484 0.504,2.467 0.449,2.452 C0.449,2.438 0.449,2.424 0.449,2.411 C0.434,2.411 0.420,2.411 0.406,2.411 C0.406,2.398 0.406,2.383 0.406,2.370 C0.392,2.370 0.377,2.370 0.363,2.370 C0.363,2.356 0.363,2.343 0.363,2.328 C0.349,2.328 0.335,2.328 0.320,2.328 C0.305,2.274 0.287,2.262 0.256,2.226 C0.249,2.226 0.242,2.226 0.235,2.226 C0.228,2.198 0.221,2.170 0.214,2.143 C0.192,2.129 0.171,2.116 0.149,2.101 C0.149,2.081 0.149,2.061 0.149,2.040 C0.135,2.033 0.121,2.026 0.106,2.019 C0.106,1.999 0.106,1.978 0.106,1.957 C0.092,1.950 0.078,1.944 0.064,1.936 C0.064,1.909 0.064,1.882 0.064,1.854 C0.057,1.854 0.050,1.854 0.042,1.854 C0.042,1.827 0.042,1.799 0.042,1.772 C0.035,1.772 0.028,1.772 0.021,1.772 C0.021,1.744 0.021,1.717 0.021,1.689 C0.014,1.689 0.007,1.689 -0.000,1.689 C-0.000,1.600 -0.000,1.510 -0.000,1.421 C-0.000,1.111 0.038,0.900 0.149,0.700 C0.156,0.700 0.164,0.700 0.171,0.700 C0.178,0.672 0.185,0.645 0.192,0.617 C0.199,0.617 0.206,0.617 0.214,0.617 C0.244,0.580 0.262,0.568 0.278,0.514 C0.292,0.514 0.306,0.514 0.320,0.514 C0.320,0.500 0.320,0.487 0.320,0.472 C0.335,0.472 0.349,0.472 0.363,0.472 C0.363,0.459 0.363,0.445 0.363,0.431 C0.377,0.431 0.392,0.431 0.406,0.431 C0.406,0.418 0.406,0.404 0.406,0.390 C0.420,0.390 0.434,0.390 0.449,0.390 C0.449,0.377 0.449,0.362 0.449,0.349 C0.463,0.349 0.477,0.349 0.491,0.349 C0.491,0.335 0.491,0.322 0.491,0.308 C0.548,0.293 0.559,0.275 0.598,0.246 C0.598,0.239 0.598,0.232 0.598,0.225 C0.620,0.225 0.641,0.225 0.662,0.225 C0.670,0.212 0.677,0.198 0.684,0.184 C0.705,0.184 0.727,0.184 0.748,0.184 C0.755,0.170 0.762,0.157 0.769,0.143 C0.791,0.143 0.812,0.143 0.834,0.143 C0.841,0.129 0.848,0.115 0.855,0.102 C0.883,0.102 0.912,0.102 0.940,0.102 C0.940,0.095 0.940,0.088 0.940,0.081 C0.955,0.081 0.969,0.081 0.983,0.081 C0.983,0.074 0.983,0.067 0.983,0.060 C1.012,0.060 1.040,0.060 1.069,0.060 C1.069,0.054 1.069,0.047 1.069,0.040 C1.097,0.040 1.126,0.040 1.154,0.040 C1.154,0.033 1.154,0.026 1.154,0.019 C1.183,0.019 1.211,0.019 1.240,0.019 C1.240,0.012 1.240,0.005 1.240,-0.001 C1.368,-0.001 1.496,-0.001 1.625,-0.001 C1.710,-0.001 1.796,-0.001 1.881,-0.001 C1.881,0.005 1.881,0.012 1.881,0.019 C1.910,0.019 1.938,0.019 1.967,0.019 C1.967,0.026 1.967,0.033 1.967,0.040 C1.995,0.040 2.024,0.040 2.052,0.040 C2.052,0.047 2.052,0.054 2.052,0.060 C2.081,0.060 2.109,0.060 2.138,0.060 C2.138,0.067 2.138,0.074 2.138,0.081 C2.152,0.081 2.166,0.081 2.181,0.081 C2.181,0.088 2.181,0.095 2.181,0.102 C2.209,0.102 2.238,0.102 2.266,0.102 C2.273,0.115 2.280,0.129 2.288,0.143 C2.309,0.143 2.330,0.143 2.352,0.143 C2.359,0.157 2.366,0.170 2.373,0.184 C2.394,0.184 2.416,0.184 2.437,0.184 C2.451,0.205 2.466,0.225 2.480,0.246 C2.508,0.253 2.537,0.260 2.565,0.267 C2.565,0.274 2.565,0.281 2.565,0.287 C2.603,0.317 2.617,0.334 2.672,0.349 ZM11.909,4.390 C11.909,4.404 11.909,4.418 11.909,4.432 C11.923,4.432 11.938,4.432 11.952,4.432 C11.952,4.445 11.952,4.459 11.952,4.473 C11.966,4.473 11.980,4.473 11.995,4.473 C11.995,4.487 11.995,4.500 11.995,4.514 C12.009,4.514 12.023,4.514 12.037,4.514 C12.037,4.528 12.037,4.542 12.037,4.555 C12.052,4.555 12.066,4.555 12.080,4.555 C12.080,4.569 12.080,4.583 12.080,4.597 C12.095,4.597 12.109,4.597 12.123,4.597 C12.147,4.686 12.224,4.705 12.251,4.803 C12.266,4.803 12.280,4.803 12.294,4.803 C12.308,4.858 12.329,4.868 12.358,4.906 C12.365,4.906 12.373,4.906 12.380,4.906 C12.380,4.926 12.380,4.947 12.380,4.968 C12.394,4.974 12.408,4.982 12.422,4.988 C12.429,5.016 12.437,5.043 12.444,5.071 C12.465,5.084 12.486,5.098 12.508,5.112 C12.508,5.132 12.508,5.153 12.508,5.174 C12.522,5.181 12.536,5.187 12.551,5.195 C12.551,5.215 12.551,5.236 12.551,5.257 C12.565,5.263 12.579,5.270 12.593,5.277 C12.593,5.298 12.593,5.318 12.593,5.339 C12.608,5.345 12.622,5.352 12.636,5.360 C12.636,5.380 12.636,5.400 12.636,5.421 C12.650,5.428 12.665,5.435 12.679,5.442 C12.679,5.469 12.679,5.497 12.679,5.524 C12.686,5.524 12.693,5.524 12.700,5.524 C12.700,5.538 12.700,5.552 12.700,5.565 C12.707,5.565 12.715,5.565 12.722,5.565 C12.722,5.586 12.722,5.607 12.722,5.627 C12.736,5.634 12.750,5.641 12.764,5.648 C12.779,5.731 12.793,5.813 12.807,5.895 C12.814,5.895 12.821,5.895 12.829,5.895 C12.836,5.944 12.843,5.992 12.850,6.040 C12.864,6.047 12.878,6.053 12.893,6.060 C12.900,6.143 12.907,6.225 12.914,6.308 C12.921,6.308 12.928,6.308 12.936,6.308 C12.936,6.335 12.936,6.363 12.936,6.390 C12.943,6.390 12.950,6.390 12.957,6.390 C12.957,6.473 12.957,6.555 12.957,6.638 C12.964,6.638 12.971,6.638 12.978,6.638 C12.978,6.666 12.978,6.693 12.978,6.720 C12.985,6.720 12.993,6.720 13.000,6.720 C13.000,7.208 13.000,7.696 13.000,8.184 C13.000,9.455 13.000,10.727 13.000,11.999 C12.073,11.999 11.146,11.999 10.220,11.999 C10.220,10.878 10.220,9.758 10.220,8.637 C10.220,8.191 10.220,7.744 10.220,7.297 C10.213,7.297 10.206,7.297 10.199,7.297 C10.199,7.270 10.199,7.242 10.199,7.215 C10.191,7.215 10.184,7.215 10.177,7.215 C10.177,7.146 10.177,7.077 10.177,7.009 C10.170,7.009 10.163,7.009 10.156,7.009 C10.156,6.981 10.156,6.954 10.156,6.927 C10.149,6.927 10.142,6.927 10.134,6.927 C10.127,6.865 10.120,6.803 10.113,6.741 C10.099,6.734 10.085,6.727 10.070,6.720 C10.056,6.658 10.042,6.597 10.028,6.535 C9.983,6.455 9.884,6.388 9.857,6.287 C9.842,6.287 9.828,6.287 9.814,6.287 C9.814,6.273 9.814,6.260 9.814,6.246 C9.800,6.246 9.785,6.246 9.771,6.246 C9.771,6.232 9.771,6.219 9.771,6.204 C9.757,6.204 9.743,6.204 9.728,6.204 C9.728,6.191 9.728,6.177 9.728,6.164 C9.714,6.164 9.700,6.164 9.686,6.164 C9.686,6.150 9.686,6.136 9.686,6.122 C9.671,6.122 9.657,6.122 9.643,6.122 C9.643,6.109 9.643,6.094 9.643,6.081 C9.621,6.074 9.600,6.067 9.579,6.060 C9.579,6.053 9.579,6.047 9.579,6.040 C9.557,6.033 9.536,6.026 9.514,6.019 C9.507,6.005 9.500,5.992 9.493,5.978 C9.479,5.978 9.465,5.978 9.450,5.978 C9.450,5.971 9.450,5.964 9.450,5.957 C9.422,5.951 9.393,5.944 9.365,5.937 C9.365,5.930 9.365,5.923 9.365,5.916 C9.336,5.916 9.308,5.916 9.279,5.916 C9.279,5.909 9.279,5.902 9.279,5.895 C9.265,5.895 9.251,5.895 9.236,5.895 C9.236,5.889 9.236,5.882 9.236,5.875 C9.208,5.875 9.179,5.875 9.151,5.875 C9.151,5.868 9.151,5.861 9.151,5.854 C9.051,5.854 8.951,5.854 8.852,5.854 C8.633,5.854 8.487,5.860 8.338,5.916 C8.317,5.916 8.296,5.916 8.274,5.916 C8.267,5.930 8.260,5.944 8.253,5.957 C8.232,5.957 8.210,5.957 8.189,5.957 C8.182,5.971 8.175,5.985 8.167,5.999 C8.146,5.999 8.125,5.999 8.103,5.999 C8.019,6.044 7.953,6.137 7.847,6.164 C7.847,6.177 7.847,6.191 7.847,6.204 C7.832,6.204 7.818,6.204 7.804,6.204 C7.804,6.219 7.804,6.232 7.804,6.246 C7.790,6.246 7.775,6.246 7.761,6.246 C7.761,6.260 7.761,6.273 7.761,6.287 C7.747,6.287 7.733,6.287 7.718,6.287 C7.718,6.301 7.718,6.315 7.718,6.328 C7.704,6.328 7.690,6.328 7.676,6.328 C7.676,6.342 7.676,6.356 7.676,6.369 C7.661,6.369 7.647,6.369 7.633,6.369 C7.606,6.472 7.508,6.536 7.462,6.617 C7.462,6.638 7.462,6.658 7.462,6.679 C7.448,6.686 7.433,6.693 7.419,6.700 C7.419,6.720 7.419,6.741 7.419,6.761 C7.405,6.768 7.391,6.775 7.376,6.782 C7.362,6.858 7.348,6.933 7.334,7.009 C7.326,7.009 7.319,7.009 7.312,7.009 C7.312,7.023 7.312,7.036 7.312,7.050 C7.305,7.050 7.298,7.050 7.291,7.050 C7.291,7.077 7.291,7.105 7.291,7.133 C7.284,7.133 7.277,7.133 7.269,7.133 C7.269,8.754 7.269,10.377 7.269,11.999 C6.343,11.999 5.416,11.999 4.490,11.999 C4.490,9.305 4.490,6.610 4.490,3.916 C5.416,3.916 6.343,3.916 7.269,3.916 C7.269,4.273 7.269,4.630 7.269,4.988 C7.291,4.988 7.312,4.988 7.334,4.988 C7.346,4.942 7.352,4.937 7.376,4.906 C7.383,4.906 7.391,4.906 7.398,4.906 C7.405,4.878 7.412,4.851 7.419,4.823 C7.426,4.823 7.433,4.823 7.440,4.823 C7.471,4.787 7.489,4.774 7.505,4.720 C7.519,4.720 7.533,4.720 7.547,4.720 C7.547,4.706 7.547,4.692 7.547,4.679 C7.562,4.679 7.576,4.679 7.590,4.679 C7.590,4.665 7.590,4.651 7.590,4.638 C7.604,4.638 7.619,4.638 7.633,4.638 C7.633,4.624 7.633,4.610 7.633,4.597 C7.647,4.597 7.661,4.597 7.676,4.597 C7.676,4.583 7.676,4.569 7.676,4.555 C7.690,4.555 7.704,4.555 7.718,4.555 C7.718,4.542 7.718,4.528 7.718,4.514 C7.733,4.514 7.747,4.514 7.761,4.514 C7.761,4.500 7.761,4.487 7.761,4.473 C7.775,4.473 7.790,4.473 7.804,4.473 C7.804,4.459 7.804,4.445 7.804,4.432 C7.818,4.432 7.832,4.432 7.847,4.432 C7.847,4.418 7.847,4.404 7.847,4.390 C7.861,4.390 7.875,4.390 7.889,4.390 C7.889,4.377 7.889,4.363 7.889,4.349 C7.904,4.349 7.918,4.349 7.932,4.349 C7.932,4.336 7.932,4.322 7.932,4.308 C7.947,4.308 7.961,4.308 7.975,4.308 C7.975,4.294 7.975,4.280 7.975,4.266 C7.989,4.266 8.003,4.266 8.018,4.266 C8.018,4.253 8.018,4.239 8.018,4.225 C8.075,4.210 8.085,4.192 8.125,4.163 C8.125,4.157 8.125,4.150 8.125,4.143 C8.146,4.143 8.167,4.143 8.189,4.143 C8.196,4.129 8.203,4.115 8.210,4.101 C8.232,4.101 8.253,4.101 8.274,4.101 C8.281,4.088 8.289,4.075 8.296,4.060 C8.324,4.054 8.353,4.046 8.381,4.040 C8.395,4.019 8.410,3.999 8.424,3.978 C8.445,3.978 8.467,3.978 8.488,3.978 C8.495,3.965 8.502,3.950 8.510,3.936 C8.538,3.936 8.567,3.936 8.595,3.936 C8.595,3.930 8.595,3.923 8.595,3.916 C8.609,3.916 8.624,3.916 8.638,3.916 C8.638,3.909 8.638,3.903 8.638,3.896 C8.666,3.896 8.695,3.896 8.723,3.896 C8.723,3.888 8.723,3.882 8.723,3.874 C8.738,3.874 8.752,3.874 8.766,3.874 C8.766,3.868 8.766,3.861 8.766,3.854 C8.788,3.854 8.809,3.854 8.830,3.854 C8.837,3.840 8.845,3.827 8.852,3.813 C8.923,3.806 8.994,3.799 9.065,3.793 C9.295,3.725 9.552,3.710 9.857,3.710 C9.963,3.710 10.070,3.710 10.177,3.710 C10.177,3.717 10.177,3.723 10.177,3.730 C10.206,3.730 10.234,3.730 10.263,3.730 C10.263,3.738 10.263,3.744 10.263,3.751 C10.334,3.751 10.405,3.751 10.477,3.751 C10.477,3.758 10.477,3.764 10.477,3.771 C10.505,3.771 10.534,3.771 10.562,3.771 C10.562,3.779 10.562,3.786 10.562,3.793 C10.605,3.793 10.648,3.793 10.690,3.793 C10.690,3.799 10.690,3.806 10.690,3.813 C10.719,3.813 10.747,3.813 10.776,3.813 C10.776,3.820 10.776,3.827 10.776,3.834 C10.790,3.834 10.804,3.834 10.819,3.834 C10.819,3.840 10.819,3.847 10.819,3.854 C10.847,3.854 10.876,3.854 10.904,3.854 C10.904,3.861 10.904,3.868 10.904,3.874 C10.919,3.874 10.933,3.874 10.947,3.874 C10.947,3.882 10.947,3.888 10.947,3.896 C10.976,3.896 11.004,3.896 11.033,3.896 C11.033,3.903 11.033,3.909 11.033,3.916 C11.047,3.916 11.061,3.916 11.075,3.916 C11.075,3.923 11.075,3.930 11.075,3.936 C11.104,3.936 11.132,3.936 11.161,3.936 C11.168,3.950 11.175,3.965 11.182,3.978 C11.204,3.978 11.225,3.978 11.246,3.978 C11.254,3.992 11.261,4.005 11.268,4.019 C11.289,4.019 11.310,4.019 11.332,4.019 C11.339,4.033 11.346,4.046 11.353,4.060 C11.375,4.060 11.396,4.060 11.417,4.060 C11.432,4.081 11.446,4.101 11.460,4.122 C11.489,4.129 11.517,4.136 11.546,4.143 C11.553,4.157 11.560,4.170 11.567,4.184 C11.588,4.184 11.610,4.184 11.631,4.184 C11.653,4.212 11.674,4.239 11.695,4.266 C11.710,4.266 11.724,4.266 11.738,4.266 C11.745,4.280 11.752,4.294 11.760,4.308 C11.774,4.308 11.788,4.308 11.802,4.308 C11.802,4.315 11.802,4.322 11.802,4.328 C11.840,4.358 11.854,4.376 11.909,4.390 ZM0.171,3.916 C1.097,3.916 2.024,3.916 2.950,3.916 C2.950,6.610 2.950,9.305 2.950,11.999 C2.024,11.999 1.097,11.999 0.171,11.999 C0.171,9.305 0.171,6.610 0.171,3.916 Z"/>
</svg>