<svg 
 xmlns="http://www.w3.org/2000/svg"
 xmlns:xlink="http://www.w3.org/1999/xlink"
 width="14px" height="11px">
<path fill-rule="evenodd"  fill="rgb(112, 111, 111)"
 d="M11.503,0.557 C11.503,0.572 11.503,0.586 11.503,0.601 C11.519,0.601 11.534,0.601 11.550,0.601 C11.550,0.616 11.550,0.631 11.550,0.645 C11.565,0.645 11.581,0.645 11.596,0.645 C11.596,0.661 11.596,0.675 11.596,0.690 C11.612,0.690 11.627,0.690 11.643,0.690 C11.643,0.705 11.643,0.720 11.643,0.735 C11.658,0.735 11.674,0.735 11.690,0.735 C11.690,0.749 11.690,0.765 11.690,0.780 C11.713,0.787 11.736,0.794 11.760,0.801 C11.760,0.809 11.760,0.816 11.760,0.824 C11.775,0.824 11.791,0.824 11.806,0.824 C11.806,0.831 11.806,0.839 11.806,0.846 C11.884,0.839 11.962,0.831 12.040,0.824 C12.040,0.816 12.040,0.809 12.040,0.801 C12.055,0.801 12.071,0.801 12.086,0.801 C12.086,0.794 12.086,0.787 12.086,0.780 C12.195,0.765 12.304,0.749 12.413,0.735 C12.413,0.727 12.413,0.720 12.413,0.712 C12.429,0.712 12.444,0.712 12.460,0.712 C12.460,0.705 12.460,0.697 12.460,0.690 C12.483,0.690 12.506,0.690 12.530,0.690 C12.537,0.675 12.545,0.661 12.553,0.645 C12.584,0.645 12.615,0.645 12.646,0.645 C12.646,0.638 12.646,0.631 12.646,0.623 C12.662,0.623 12.677,0.623 12.693,0.623 C12.693,0.616 12.693,0.609 12.693,0.601 C12.724,0.601 12.755,0.601 12.786,0.601 C12.786,0.594 12.786,0.586 12.786,0.579 C12.802,0.579 12.817,0.579 12.833,0.579 C12.833,0.572 12.833,0.564 12.833,0.557 C12.903,0.541 12.973,0.527 13.043,0.512 C13.051,0.497 13.059,0.482 13.066,0.468 C13.090,0.468 13.113,0.468 13.136,0.468 C13.144,0.453 13.152,0.438 13.160,0.423 C13.183,0.423 13.206,0.423 13.230,0.423 C13.237,0.408 13.245,0.393 13.253,0.379 C13.276,0.379 13.300,0.379 13.323,0.379 C13.331,0.364 13.339,0.349 13.346,0.334 C13.370,0.334 13.393,0.334 13.416,0.334 C13.424,0.319 13.432,0.304 13.440,0.290 C13.463,0.290 13.486,0.290 13.510,0.290 C13.510,0.282 13.510,0.274 13.510,0.267 C13.533,0.260 13.556,0.252 13.580,0.245 C13.580,0.252 13.580,0.260 13.580,0.267 C13.595,0.267 13.611,0.267 13.626,0.267 C13.619,0.312 13.611,0.356 13.603,0.401 C13.595,0.401 13.587,0.401 13.580,0.401 C13.580,0.415 13.580,0.430 13.580,0.446 C13.572,0.446 13.564,0.446 13.556,0.446 C13.556,0.475 13.556,0.504 13.556,0.534 C13.541,0.541 13.525,0.549 13.510,0.557 C13.510,0.579 13.510,0.601 13.510,0.623 C13.486,0.638 13.463,0.653 13.440,0.668 C13.432,0.697 13.424,0.727 13.416,0.757 C13.401,0.765 13.385,0.772 13.370,0.780 C13.370,0.801 13.370,0.824 13.370,0.846 C13.346,0.861 13.323,0.876 13.300,0.891 C13.292,0.920 13.284,0.950 13.276,0.980 C13.269,0.980 13.261,0.980 13.253,0.980 C13.220,1.020 13.200,1.033 13.183,1.091 C13.167,1.091 13.152,1.091 13.136,1.091 C13.136,1.106 13.136,1.121 13.136,1.135 C13.121,1.135 13.105,1.135 13.090,1.135 C13.090,1.150 13.090,1.165 13.090,1.180 C13.074,1.180 13.059,1.180 13.043,1.180 C13.043,1.195 13.043,1.210 13.043,1.224 C13.027,1.224 13.012,1.224 12.996,1.224 C12.996,1.240 12.996,1.254 12.996,1.269 C12.981,1.269 12.965,1.269 12.950,1.269 C12.950,1.284 12.950,1.299 12.950,1.314 C12.934,1.314 12.919,1.314 12.903,1.314 C12.903,1.328 12.903,1.343 12.903,1.358 C12.887,1.358 12.872,1.358 12.856,1.358 C12.856,1.373 12.856,1.388 12.856,1.403 C12.841,1.403 12.825,1.403 12.810,1.403 C12.810,1.418 12.810,1.432 12.810,1.447 C12.794,1.447 12.779,1.447 12.763,1.447 C12.763,1.462 12.763,1.477 12.763,1.491 C12.747,1.491 12.732,1.491 12.716,1.491 C12.716,1.507 12.716,1.521 12.716,1.536 C12.626,1.559 12.643,1.601 12.553,1.625 C12.553,1.648 12.553,1.670 12.553,1.692 C12.745,1.696 12.844,1.668 12.973,1.625 C13.004,1.625 13.035,1.625 13.066,1.625 C13.066,1.618 13.066,1.611 13.066,1.603 C13.082,1.603 13.097,1.603 13.113,1.603 C13.113,1.596 13.113,1.588 13.113,1.581 C13.144,1.581 13.175,1.581 13.206,1.581 C13.206,1.573 13.206,1.566 13.206,1.559 C13.237,1.559 13.269,1.559 13.300,1.559 C13.300,1.551 13.300,1.544 13.300,1.536 C13.331,1.536 13.362,1.536 13.393,1.536 C13.393,1.528 13.393,1.521 13.393,1.514 C13.424,1.514 13.455,1.514 13.486,1.514 C13.486,1.507 13.486,1.499 13.486,1.491 C13.510,1.491 13.533,1.491 13.556,1.491 C13.564,1.477 13.572,1.462 13.580,1.447 C13.611,1.447 13.642,1.447 13.673,1.447 C13.673,1.440 13.673,1.432 13.673,1.425 C13.689,1.425 13.704,1.425 13.720,1.425 C13.720,1.418 13.720,1.410 13.720,1.403 C13.751,1.403 13.782,1.403 13.813,1.403 C13.813,1.395 13.813,1.388 13.813,1.380 C13.829,1.380 13.844,1.380 13.860,1.380 C13.860,1.373 13.860,1.365 13.860,1.358 C13.906,1.351 13.953,1.343 14.000,1.335 C13.986,1.398 13.963,1.443 13.930,1.491 C13.914,1.499 13.899,1.507 13.883,1.514 C13.883,1.528 13.883,1.544 13.883,1.559 C13.860,1.573 13.836,1.588 13.813,1.603 C13.805,1.632 13.797,1.662 13.790,1.692 C13.782,1.692 13.774,1.692 13.766,1.692 C13.733,1.732 13.713,1.745 13.696,1.803 C13.681,1.803 13.665,1.803 13.650,1.803 C13.650,1.818 13.650,1.833 13.650,1.848 C13.634,1.848 13.619,1.848 13.603,1.848 C13.603,1.863 13.603,1.878 13.603,1.892 C13.587,1.892 13.572,1.892 13.556,1.892 C13.556,1.907 13.556,1.922 13.556,1.937 C13.541,1.937 13.525,1.937 13.510,1.937 C13.510,1.952 13.510,1.967 13.510,1.981 C13.494,1.981 13.479,1.981 13.463,1.981 C13.463,1.996 13.463,2.011 13.463,2.026 C13.447,2.026 13.432,2.026 13.416,2.026 C13.416,2.041 13.416,2.056 13.416,2.071 C13.401,2.071 13.385,2.071 13.370,2.071 C13.370,2.085 13.370,2.100 13.370,2.115 C13.354,2.115 13.339,2.115 13.323,2.115 C13.323,2.130 13.323,2.145 13.323,2.159 C13.307,2.159 13.292,2.159 13.276,2.159 C13.276,2.174 13.276,2.189 13.276,2.204 C13.261,2.204 13.245,2.204 13.230,2.204 C13.230,2.219 13.230,2.234 13.230,2.248 C13.214,2.248 13.199,2.248 13.183,2.248 C13.183,2.264 13.183,2.278 13.183,2.293 C13.167,2.293 13.152,2.293 13.136,2.293 C13.136,2.308 13.136,2.323 13.136,2.338 C13.121,2.338 13.105,2.338 13.090,2.338 C13.090,2.353 13.090,2.367 13.090,2.382 C12.988,2.408 12.967,2.488 12.856,2.516 C12.856,2.531 12.856,2.546 12.856,2.560 C12.841,2.560 12.825,2.560 12.810,2.560 C12.810,2.575 12.810,2.590 12.810,2.605 C12.794,2.605 12.779,2.605 12.763,2.605 C12.740,2.635 12.716,2.664 12.693,2.694 C12.670,2.701 12.646,2.709 12.623,2.716 C12.623,2.731 12.623,2.746 12.623,2.760 C12.584,2.805 12.600,2.926 12.600,3.006 C12.600,3.221 12.600,3.436 12.600,3.651 C12.599,3.770 12.578,3.796 12.553,3.874 C12.553,3.978 12.553,4.082 12.553,4.186 C12.545,4.186 12.537,4.186 12.530,4.186 C12.530,4.215 12.530,4.245 12.530,4.275 C12.522,4.275 12.514,4.275 12.506,4.275 C12.506,4.349 12.506,4.424 12.506,4.498 C12.499,4.498 12.491,4.498 12.483,4.498 C12.483,4.528 12.483,4.556 12.483,4.586 C12.475,4.586 12.467,4.586 12.460,4.586 C12.460,4.602 12.460,4.617 12.460,4.631 C12.452,4.631 12.444,4.631 12.436,4.631 C12.436,4.660 12.436,4.690 12.436,4.720 C12.429,4.720 12.421,4.720 12.413,4.720 C12.413,4.765 12.413,4.809 12.413,4.854 C12.405,4.854 12.397,4.854 12.390,4.854 C12.390,4.883 12.390,4.913 12.390,4.942 C12.382,4.942 12.374,4.942 12.366,4.942 C12.366,4.987 12.366,5.032 12.366,5.076 C12.359,5.076 12.351,5.076 12.343,5.076 C12.343,5.106 12.343,5.136 12.343,5.165 C12.327,5.173 12.312,5.180 12.296,5.187 C12.296,5.210 12.296,5.232 12.296,5.255 C12.289,5.255 12.281,5.255 12.273,5.255 C12.273,5.284 12.273,5.314 12.273,5.343 C12.265,5.343 12.257,5.343 12.250,5.343 C12.250,5.373 12.250,5.403 12.250,5.432 C12.242,5.432 12.234,5.432 12.226,5.432 C12.226,5.462 12.226,5.492 12.226,5.522 C12.219,5.522 12.211,5.522 12.203,5.522 C12.203,5.551 12.203,5.581 12.203,5.610 C12.187,5.618 12.172,5.625 12.156,5.633 C12.141,5.700 12.125,5.767 12.110,5.833 C12.102,5.833 12.094,5.833 12.086,5.833 C12.086,5.848 12.086,5.863 12.086,5.878 C12.079,5.878 12.071,5.878 12.063,5.878 C12.063,5.907 12.063,5.937 12.063,5.967 C12.047,5.974 12.032,5.982 12.016,5.989 C12.001,6.056 11.985,6.123 11.970,6.189 C11.954,6.197 11.939,6.205 11.923,6.212 C11.923,6.234 11.923,6.256 11.923,6.278 C11.907,6.285 11.892,6.293 11.876,6.300 C11.861,6.367 11.845,6.434 11.830,6.501 C11.814,6.509 11.799,6.516 11.783,6.523 C11.783,6.546 11.783,6.568 11.783,6.590 C11.767,6.597 11.752,6.605 11.736,6.612 C11.736,6.635 11.736,6.657 11.736,6.679 C11.721,6.687 11.705,6.694 11.690,6.701 C11.690,6.724 11.690,6.746 11.690,6.768 C11.674,6.776 11.658,6.783 11.643,6.791 C11.643,6.813 11.643,6.835 11.643,6.857 C11.627,6.865 11.612,6.872 11.596,6.880 C11.596,6.902 11.596,6.924 11.596,6.947 C11.573,6.961 11.550,6.976 11.526,6.991 C11.519,7.021 11.511,7.050 11.503,7.081 C11.487,7.087 11.472,7.095 11.456,7.102 C11.456,7.124 11.456,7.147 11.456,7.169 C11.441,7.177 11.425,7.184 11.410,7.191 C11.410,7.214 11.410,7.236 11.410,7.258 C11.386,7.273 11.363,7.288 11.340,7.303 C11.332,7.333 11.324,7.362 11.316,7.392 C11.293,7.407 11.270,7.422 11.246,7.437 C11.238,7.466 11.231,7.496 11.223,7.525 C11.200,7.540 11.176,7.555 11.153,7.570 C11.145,7.599 11.137,7.629 11.130,7.658 C11.106,7.673 11.083,7.688 11.060,7.704 C11.052,7.733 11.044,7.762 11.036,7.792 C11.005,7.815 10.974,7.837 10.943,7.859 C10.943,7.874 10.943,7.889 10.943,7.904 C10.927,7.911 10.912,7.919 10.896,7.926 C10.896,7.941 10.896,7.955 10.896,7.971 C10.865,7.992 10.834,8.015 10.803,8.037 C10.803,8.053 10.803,8.067 10.803,8.082 C10.787,8.089 10.772,8.097 10.756,8.104 C10.756,8.119 10.756,8.134 10.756,8.149 C10.749,8.149 10.741,8.149 10.733,8.149 C10.699,8.188 10.680,8.202 10.663,8.260 C10.647,8.260 10.632,8.260 10.616,8.260 C10.590,8.363 10.505,8.385 10.476,8.483 C10.461,8.483 10.445,8.483 10.430,8.483 C10.430,8.497 10.430,8.512 10.430,8.527 C10.414,8.527 10.398,8.527 10.383,8.527 C10.383,8.542 10.383,8.557 10.383,8.572 C10.367,8.572 10.352,8.572 10.336,8.572 C10.336,8.587 10.336,8.601 10.336,8.616 C10.321,8.616 10.305,8.616 10.290,8.616 C10.290,8.631 10.290,8.646 10.290,8.661 C10.274,8.661 10.259,8.661 10.243,8.661 C10.243,8.676 10.243,8.691 10.243,8.706 C10.227,8.706 10.212,8.706 10.196,8.706 C10.196,8.720 10.196,8.734 10.196,8.750 C10.181,8.750 10.165,8.750 10.150,8.750 C10.150,8.765 10.150,8.780 10.150,8.794 C10.134,8.794 10.119,8.794 10.103,8.794 C10.103,8.810 10.103,8.824 10.103,8.838 C10.087,8.838 10.072,8.838 10.056,8.838 C10.056,8.854 10.056,8.869 10.056,8.883 C10.041,8.883 10.025,8.883 10.010,8.883 C10.010,8.899 10.010,8.913 10.010,8.928 C9.994,8.928 9.978,8.928 9.963,8.928 C9.963,8.942 9.963,8.957 9.963,8.973 C9.947,8.973 9.932,8.973 9.916,8.973 C9.916,8.987 9.916,9.002 9.916,9.017 C9.901,9.017 9.885,9.017 9.870,9.017 C9.870,9.032 9.870,9.046 9.870,9.061 C9.854,9.061 9.839,9.061 9.823,9.061 C9.823,9.077 9.823,9.091 9.823,9.106 C9.807,9.106 9.792,9.106 9.776,9.106 C9.776,9.121 9.776,9.135 9.776,9.151 C9.761,9.151 9.745,9.151 9.730,9.151 C9.678,9.237 9.622,9.231 9.543,9.284 C9.535,9.299 9.527,9.314 9.520,9.329 C9.476,9.366 9.421,9.402 9.356,9.418 C9.356,9.433 9.356,9.448 9.356,9.462 C9.341,9.462 9.325,9.462 9.310,9.462 C9.240,9.569 9.116,9.593 9.006,9.662 C8.991,9.685 8.975,9.707 8.960,9.730 C8.928,9.737 8.897,9.744 8.866,9.752 C8.851,9.774 8.835,9.796 8.820,9.818 C8.804,9.818 8.789,9.818 8.773,9.818 C8.773,9.826 8.773,9.833 8.773,9.841 C8.757,9.841 8.742,9.841 8.726,9.841 C8.711,9.863 8.695,9.885 8.680,9.908 C8.649,9.915 8.617,9.923 8.586,9.930 C8.571,9.952 8.555,9.974 8.540,9.997 C8.516,9.997 8.493,9.997 8.470,9.997 C8.462,10.011 8.454,10.026 8.446,10.041 C8.423,10.041 8.400,10.041 8.376,10.041 C8.369,10.056 8.361,10.071 8.353,10.086 C8.330,10.086 8.306,10.086 8.283,10.086 C8.275,10.101 8.267,10.115 8.260,10.130 C8.236,10.130 8.213,10.130 8.190,10.130 C8.182,10.145 8.174,10.160 8.166,10.175 C8.143,10.175 8.120,10.175 8.096,10.175 C8.088,10.190 8.081,10.204 8.073,10.219 C8.050,10.219 8.026,10.219 8.003,10.219 C7.995,10.234 7.987,10.249 7.980,10.264 C7.956,10.264 7.933,10.264 7.910,10.264 C7.902,10.278 7.894,10.294 7.886,10.308 C7.863,10.308 7.840,10.308 7.816,10.308 C7.809,10.323 7.801,10.338 7.793,10.353 C7.770,10.353 7.746,10.353 7.723,10.353 C7.715,10.368 7.707,10.382 7.700,10.397 C7.630,10.412 7.560,10.427 7.490,10.442 C7.482,10.457 7.474,10.472 7.466,10.487 C7.435,10.487 7.404,10.487 7.373,10.487 C7.373,10.494 7.373,10.501 7.373,10.509 C7.357,10.509 7.342,10.509 7.326,10.509 C7.326,10.516 7.326,10.523 7.326,10.531 C7.295,10.531 7.264,10.531 7.233,10.531 C7.233,10.539 7.233,10.546 7.233,10.553 C7.217,10.553 7.202,10.553 7.186,10.553 C7.186,10.561 7.186,10.568 7.186,10.575 C7.155,10.575 7.124,10.575 7.093,10.575 C7.093,10.583 7.093,10.590 7.093,10.598 C7.077,10.598 7.062,10.598 7.046,10.598 C7.046,10.605 7.046,10.612 7.046,10.620 C7.015,10.620 6.984,10.620 6.953,10.620 C6.953,10.627 6.953,10.635 6.953,10.643 C6.937,10.643 6.922,10.643 6.906,10.643 C6.906,10.649 6.906,10.657 6.906,10.665 C6.875,10.665 6.844,10.665 6.813,10.665 C6.813,10.672 6.813,10.680 6.813,10.687 C6.797,10.687 6.782,10.687 6.766,10.687 C6.766,10.694 6.766,10.702 6.766,10.709 C6.735,10.709 6.704,10.709 6.673,10.709 C6.673,10.716 6.673,10.724 6.673,10.731 C6.626,10.731 6.580,10.731 6.533,10.731 C6.533,10.739 6.533,10.746 6.533,10.754 C6.502,10.754 6.471,10.754 6.440,10.754 C6.440,10.761 6.440,10.768 6.440,10.776 C6.424,10.776 6.409,10.776 6.393,10.776 C6.393,10.784 6.393,10.791 6.393,10.798 C6.362,10.798 6.331,10.798 6.300,10.798 C6.300,10.806 6.300,10.813 6.300,10.820 C6.253,10.820 6.206,10.820 6.160,10.820 C6.160,10.828 6.160,10.835 6.160,10.843 C6.129,10.843 6.097,10.843 6.066,10.843 C6.066,10.850 6.066,10.857 6.066,10.865 C6.004,10.865 5.942,10.865 5.880,10.865 C5.880,10.872 5.880,10.880 5.880,10.887 C5.849,10.887 5.817,10.887 5.786,10.887 C5.786,10.895 5.786,10.902 5.786,10.910 C5.755,10.910 5.724,10.910 5.693,10.910 C5.693,10.916 5.693,10.924 5.693,10.932 C5.662,10.932 5.631,10.932 5.600,10.932 C5.600,10.939 5.600,10.947 5.600,10.954 C5.491,10.954 5.382,10.954 5.273,10.954 C5.273,10.961 5.273,10.969 5.273,10.976 C5.242,10.976 5.211,10.976 5.180,10.976 C5.180,10.984 5.180,10.991 5.180,10.999 C4.861,10.999 4.542,10.999 4.223,10.999 C3.997,10.999 3.772,10.999 3.546,10.999 C3.546,10.991 3.546,10.984 3.546,10.976 C3.515,10.976 3.484,10.976 3.453,10.976 C3.453,10.969 3.453,10.961 3.453,10.954 C3.329,10.954 3.204,10.954 3.080,10.954 C3.080,10.947 3.080,10.939 3.080,10.932 C3.049,10.932 3.017,10.932 2.986,10.932 C2.986,10.924 2.986,10.916 2.986,10.910 C2.971,10.910 2.955,10.910 2.940,10.910 C2.940,10.902 2.940,10.895 2.940,10.887 C2.909,10.887 2.877,10.887 2.846,10.887 C2.846,10.880 2.846,10.872 2.846,10.865 C2.784,10.865 2.722,10.865 2.660,10.865 C2.660,10.857 2.660,10.850 2.660,10.843 C2.629,10.843 2.597,10.843 2.566,10.843 C2.566,10.835 2.566,10.828 2.566,10.820 C2.520,10.820 2.473,10.820 2.426,10.820 C2.426,10.813 2.426,10.806 2.426,10.798 C2.395,10.798 2.364,10.798 2.333,10.798 C2.333,10.791 2.333,10.784 2.333,10.776 C2.317,10.776 2.302,10.776 2.286,10.776 C2.286,10.768 2.286,10.761 2.286,10.754 C2.255,10.754 2.224,10.754 2.193,10.754 C2.193,10.746 2.193,10.739 2.193,10.731 C2.162,10.731 2.131,10.731 2.100,10.731 C2.100,10.724 2.100,10.716 2.100,10.709 C2.069,10.709 2.037,10.709 2.006,10.709 C2.006,10.702 2.006,10.694 2.006,10.687 C1.944,10.680 1.882,10.672 1.820,10.665 C1.820,10.657 1.820,10.649 1.820,10.643 C1.804,10.643 1.789,10.643 1.773,10.643 C1.773,10.635 1.773,10.627 1.773,10.620 C1.742,10.620 1.711,10.620 1.680,10.620 C1.680,10.612 1.680,10.605 1.680,10.598 C1.664,10.598 1.649,10.598 1.633,10.598 C1.633,10.590 1.633,10.583 1.633,10.575 C1.602,10.575 1.571,10.575 1.540,10.575 C1.540,10.568 1.540,10.561 1.540,10.553 C1.524,10.553 1.508,10.553 1.493,10.553 C1.493,10.546 1.493,10.539 1.493,10.531 C1.462,10.531 1.431,10.531 1.400,10.531 C1.400,10.523 1.400,10.516 1.400,10.509 C1.384,10.509 1.369,10.509 1.353,10.509 C1.353,10.501 1.353,10.494 1.353,10.487 C1.322,10.487 1.291,10.487 1.260,10.487 C1.252,10.472 1.244,10.457 1.236,10.442 C1.213,10.442 1.190,10.442 1.166,10.442 C1.159,10.427 1.151,10.412 1.143,10.397 C1.073,10.382 1.003,10.368 0.933,10.353 C0.925,10.338 0.917,10.323 0.910,10.308 C0.886,10.308 0.863,10.308 0.840,10.308 C0.832,10.294 0.824,10.278 0.816,10.264 C0.793,10.264 0.770,10.264 0.746,10.264 C0.739,10.249 0.731,10.234 0.723,10.219 C0.700,10.219 0.676,10.219 0.653,10.219 C0.645,10.204 0.637,10.190 0.630,10.175 C0.606,10.175 0.583,10.175 0.560,10.175 C0.552,10.160 0.544,10.145 0.536,10.130 C0.513,10.130 0.490,10.130 0.466,10.130 C0.458,10.115 0.451,10.101 0.443,10.086 C0.420,10.086 0.396,10.086 0.373,10.086 C0.365,10.071 0.357,10.056 0.350,10.041 C0.326,10.041 0.303,10.041 0.280,10.041 C0.264,10.019 0.248,9.997 0.233,9.974 C0.202,9.967 0.171,9.960 0.140,9.952 C0.132,9.937 0.124,9.923 0.116,9.908 C0.047,9.870 0.087,9.942 0.023,9.863 C0.015,9.863 0.007,9.863 -0.000,9.863 C-0.000,9.841 -0.000,9.818 -0.000,9.796 C0.372,9.803 0.871,9.837 1.166,9.752 C1.275,9.752 1.384,9.752 1.493,9.752 C1.493,9.744 1.493,9.737 1.493,9.730 C1.571,9.722 1.649,9.715 1.726,9.707 C1.726,9.700 1.726,9.693 1.726,9.685 C1.757,9.685 1.789,9.685 1.820,9.685 C1.820,9.677 1.820,9.670 1.820,9.662 C1.835,9.662 1.851,9.662 1.866,9.662 C1.866,9.656 1.866,9.648 1.866,9.641 C1.897,9.641 1.928,9.641 1.960,9.641 C1.960,9.633 1.960,9.625 1.960,9.619 C1.991,9.619 2.022,9.619 2.053,9.619 C2.053,9.611 2.053,9.603 2.053,9.596 C2.084,9.596 2.115,9.596 2.146,9.596 C2.146,9.588 2.146,9.581 2.146,9.573 C2.209,9.566 2.271,9.559 2.333,9.551 C2.333,9.544 2.333,9.537 2.333,9.529 C2.348,9.529 2.364,9.529 2.380,9.529 C2.380,9.522 2.380,9.514 2.380,9.507 C2.450,9.492 2.520,9.477 2.590,9.462 C2.597,9.448 2.605,9.433 2.613,9.418 C2.683,9.403 2.753,9.388 2.823,9.373 C2.831,9.358 2.839,9.344 2.846,9.329 C2.870,9.329 2.893,9.329 2.916,9.329 C2.924,9.314 2.932,9.299 2.940,9.284 C2.963,9.284 2.986,9.284 3.010,9.284 C3.017,9.269 3.025,9.255 3.033,9.240 C3.056,9.240 3.080,9.240 3.103,9.240 C3.111,9.225 3.119,9.210 3.126,9.195 C3.157,9.195 3.189,9.195 3.220,9.195 C3.220,9.188 3.220,9.180 3.220,9.173 C3.251,9.165 3.282,9.158 3.313,9.151 C3.313,9.143 3.313,9.135 3.313,9.128 C3.329,9.128 3.344,9.128 3.360,9.128 C3.375,9.106 3.391,9.084 3.406,9.061 C3.430,9.061 3.453,9.061 3.476,9.061 C3.484,9.046 3.492,9.032 3.500,9.017 C3.531,9.010 3.562,9.002 3.593,8.995 C3.609,8.973 3.624,8.950 3.640,8.928 C3.663,8.928 3.686,8.928 3.710,8.928 C3.717,8.913 3.725,8.899 3.733,8.883 C3.764,8.876 3.795,8.869 3.826,8.861 C3.842,8.838 3.857,8.817 3.873,8.794 C3.889,8.794 3.904,8.794 3.920,8.794 C3.927,8.780 3.935,8.765 3.943,8.750 C3.959,8.750 3.974,8.750 3.990,8.750 C3.990,8.742 3.990,8.734 3.990,8.728 C4.031,8.696 4.046,8.677 4.106,8.661 C4.106,8.638 4.106,8.616 4.106,8.594 C3.982,8.594 3.857,8.594 3.733,8.594 C3.733,8.587 3.733,8.579 3.733,8.572 C3.702,8.572 3.671,8.572 3.640,8.572 C3.640,8.564 3.640,8.557 3.640,8.550 C3.624,8.550 3.609,8.550 3.593,8.550 C3.593,8.542 3.593,8.535 3.593,8.527 C3.562,8.527 3.531,8.527 3.500,8.527 C3.500,8.520 3.500,8.512 3.500,8.505 C3.469,8.505 3.437,8.505 3.406,8.505 C3.406,8.497 3.406,8.490 3.406,8.483 C3.313,8.468 3.220,8.453 3.126,8.438 C3.119,8.423 3.111,8.408 3.103,8.393 C3.080,8.393 3.056,8.393 3.033,8.393 C3.025,8.379 3.017,8.364 3.010,8.349 C2.986,8.349 2.963,8.349 2.940,8.349 C2.932,8.334 2.924,8.319 2.916,8.304 C2.893,8.304 2.870,8.304 2.846,8.304 C2.839,8.290 2.831,8.275 2.823,8.260 C2.800,8.260 2.776,8.260 2.753,8.260 C2.745,8.245 2.737,8.231 2.730,8.215 C2.706,8.215 2.683,8.215 2.660,8.215 C2.644,8.193 2.629,8.171 2.613,8.149 C2.582,8.141 2.551,8.134 2.520,8.127 C2.520,8.119 2.520,8.111 2.520,8.104 C2.478,8.072 2.464,8.054 2.403,8.037 C2.403,8.023 2.403,8.007 2.403,7.992 C2.387,7.992 2.372,7.992 2.356,7.992 C2.356,7.978 2.356,7.963 2.356,7.948 C2.341,7.948 2.325,7.948 2.310,7.948 C2.310,7.933 2.310,7.919 2.310,7.904 C2.294,7.904 2.279,7.904 2.263,7.904 C2.263,7.889 2.263,7.874 2.263,7.859 C2.247,7.859 2.232,7.859 2.216,7.859 C2.216,7.844 2.216,7.830 2.216,7.815 C2.201,7.815 2.185,7.815 2.170,7.815 C2.170,7.800 2.170,7.785 2.170,7.770 C2.154,7.770 2.138,7.770 2.123,7.770 C2.123,7.756 2.123,7.741 2.123,7.726 C2.107,7.726 2.092,7.726 2.076,7.726 C2.076,7.711 2.076,7.696 2.076,7.681 C2.061,7.681 2.045,7.681 2.030,7.681 C2.030,7.666 2.030,7.651 2.030,7.637 C2.014,7.637 1.999,7.637 1.983,7.637 C1.983,7.622 1.983,7.607 1.983,7.592 C1.967,7.592 1.952,7.592 1.936,7.592 C1.936,7.577 1.936,7.562 1.936,7.548 C1.921,7.548 1.905,7.548 1.890,7.548 C1.874,7.488 1.852,7.477 1.820,7.437 C1.812,7.437 1.804,7.437 1.796,7.437 C1.796,7.414 1.796,7.392 1.796,7.370 C1.781,7.362 1.765,7.354 1.750,7.348 C1.742,7.317 1.734,7.288 1.726,7.258 C1.703,7.243 1.680,7.229 1.656,7.214 C1.656,7.191 1.656,7.169 1.656,7.147 C1.641,7.139 1.625,7.132 1.610,7.124 C1.610,7.102 1.610,7.081 1.610,7.058 C1.594,7.050 1.579,7.043 1.563,7.036 C1.563,7.013 1.563,6.991 1.563,6.969 C1.547,6.961 1.532,6.954 1.516,6.947 C1.508,6.872 1.501,6.798 1.493,6.724 C1.773,6.724 2.053,6.724 2.333,6.724 C2.333,6.716 2.333,6.709 2.333,6.701 C2.426,6.687 2.520,6.672 2.613,6.657 C2.613,6.635 2.613,6.612 2.613,6.590 C2.504,6.568 2.395,6.546 2.286,6.523 C2.279,6.509 2.271,6.494 2.263,6.479 C2.240,6.479 2.216,6.479 2.193,6.479 C2.185,6.464 2.177,6.449 2.170,6.434 C2.146,6.434 2.123,6.434 2.100,6.434 C2.100,6.427 2.100,6.419 2.100,6.412 C2.069,6.404 2.037,6.397 2.006,6.390 C2.006,6.382 2.006,6.375 2.006,6.367 C1.975,6.360 1.944,6.353 1.913,6.346 C1.905,6.330 1.897,6.316 1.890,6.300 C1.866,6.300 1.843,6.300 1.820,6.300 C1.804,6.278 1.789,6.256 1.773,6.234 C1.742,6.227 1.711,6.219 1.680,6.212 C1.664,6.189 1.649,6.167 1.633,6.145 C1.602,6.137 1.571,6.130 1.540,6.123 C1.540,6.115 1.540,6.108 1.540,6.100 C1.498,6.068 1.484,6.050 1.423,6.033 C1.423,6.019 1.423,6.004 1.423,5.989 C1.407,5.989 1.392,5.989 1.376,5.989 C1.376,5.974 1.376,5.959 1.376,5.945 C1.361,5.945 1.345,5.945 1.330,5.945 C1.330,5.929 1.330,5.915 1.330,5.900 C1.314,5.900 1.298,5.900 1.283,5.900 C1.283,5.885 1.283,5.870 1.283,5.855 C1.267,5.855 1.252,5.855 1.236,5.855 C1.236,5.841 1.236,5.826 1.236,5.811 C1.221,5.811 1.205,5.811 1.190,5.811 C1.190,5.796 1.190,5.782 1.190,5.767 C1.174,5.767 1.159,5.767 1.143,5.767 C1.143,5.752 1.143,5.737 1.143,5.722 C1.127,5.722 1.112,5.722 1.096,5.722 C1.096,5.707 1.096,5.692 1.096,5.678 C1.007,5.626 1.013,5.576 0.956,5.499 C0.925,5.477 0.894,5.455 0.863,5.432 C0.863,5.410 0.863,5.388 0.863,5.366 C0.847,5.358 0.832,5.351 0.816,5.343 C0.809,5.314 0.801,5.284 0.793,5.255 C0.770,5.240 0.746,5.225 0.723,5.210 C0.723,5.187 0.723,5.165 0.723,5.143 C0.707,5.136 0.692,5.128 0.676,5.121 C0.661,5.054 0.645,4.987 0.630,4.920 C0.614,4.913 0.599,4.905 0.583,4.898 C0.583,4.869 0.583,4.839 0.583,4.809 C0.575,4.809 0.567,4.809 0.560,4.809 C0.560,4.794 0.560,4.779 0.560,4.765 C0.552,4.765 0.544,4.765 0.536,4.765 C0.529,4.705 0.521,4.646 0.513,4.586 C0.505,4.586 0.497,4.586 0.490,4.586 C0.490,4.556 0.490,4.528 0.490,4.498 C0.482,4.498 0.474,4.498 0.466,4.498 C0.466,4.482 0.466,4.467 0.466,4.452 C0.458,4.452 0.451,4.452 0.443,4.452 C0.443,4.424 0.443,4.393 0.443,4.363 C0.435,4.363 0.427,4.363 0.420,4.363 C0.420,4.215 0.420,4.067 0.420,3.918 C0.451,3.911 0.482,3.904 0.513,3.896 C0.521,3.911 0.529,3.926 0.536,3.940 C0.560,3.940 0.583,3.940 0.606,3.940 C0.614,3.955 0.622,3.971 0.630,3.985 C0.653,3.985 0.676,3.985 0.700,3.985 C0.700,3.993 0.700,4.000 0.700,4.008 C0.715,4.008 0.731,4.008 0.746,4.008 C0.746,4.015 0.746,4.022 0.746,4.030 C0.777,4.030 0.809,4.030 0.840,4.030 C0.840,4.037 0.840,4.044 0.840,4.052 C0.855,4.052 0.871,4.052 0.886,4.052 C0.886,4.060 0.886,4.067 0.886,4.075 C0.917,4.075 0.949,4.075 0.980,4.075 C0.987,4.089 0.995,4.104 1.003,4.119 C1.026,4.119 1.050,4.119 1.073,4.119 C1.073,4.126 1.073,4.134 1.073,4.141 C1.135,4.141 1.197,4.141 1.260,4.141 C1.260,4.148 1.260,4.156 1.260,4.163 C1.369,4.171 1.477,4.179 1.586,4.186 C1.579,4.148 1.571,4.111 1.563,4.075 C1.547,4.075 1.532,4.075 1.516,4.075 C1.516,4.060 1.516,4.044 1.516,4.030 C1.501,4.030 1.485,4.030 1.470,4.030 C1.470,4.015 1.470,4.000 1.470,3.985 C1.454,3.985 1.439,3.985 1.423,3.985 C1.423,3.971 1.423,3.955 1.423,3.940 C1.407,3.940 1.392,3.940 1.376,3.940 C1.376,3.926 1.376,3.911 1.376,3.896 C1.361,3.896 1.345,3.896 1.330,3.896 C1.330,3.882 1.330,3.867 1.330,3.852 C1.314,3.852 1.298,3.852 1.283,3.852 C1.283,3.837 1.283,3.822 1.283,3.807 C1.267,3.807 1.252,3.807 1.236,3.807 C1.236,3.792 1.236,3.778 1.236,3.763 C1.221,3.763 1.205,3.763 1.190,3.763 C1.190,3.748 1.190,3.733 1.190,3.718 C1.174,3.718 1.159,3.718 1.143,3.718 C1.143,3.703 1.143,3.688 1.143,3.673 C1.127,3.673 1.112,3.673 1.096,3.673 C1.096,3.659 1.096,3.644 1.096,3.629 C1.081,3.629 1.065,3.629 1.050,3.629 C1.033,3.571 1.013,3.557 0.980,3.517 C0.972,3.517 0.964,3.517 0.956,3.517 C0.949,3.488 0.941,3.458 0.933,3.429 C0.910,3.414 0.886,3.399 0.863,3.384 C0.863,3.362 0.863,3.340 0.863,3.318 C0.847,3.310 0.832,3.302 0.816,3.295 C0.809,3.265 0.801,3.236 0.793,3.206 C0.785,3.206 0.777,3.206 0.770,3.206 C0.762,3.176 0.754,3.146 0.746,3.117 C0.739,3.117 0.731,3.117 0.723,3.117 C0.723,3.095 0.723,3.072 0.723,3.050 C0.707,3.043 0.692,3.035 0.676,3.028 C0.676,3.006 0.676,2.984 0.676,2.961 C0.661,2.954 0.645,2.946 0.630,2.939 C0.630,2.909 0.630,2.879 0.630,2.850 C0.622,2.850 0.614,2.850 0.606,2.850 C0.606,2.835 0.606,2.820 0.606,2.805 C0.599,2.805 0.591,2.805 0.583,2.805 C0.583,2.776 0.583,2.746 0.583,2.716 C0.575,2.716 0.567,2.716 0.560,2.716 C0.560,2.701 0.560,2.686 0.560,2.672 C0.552,2.672 0.544,2.672 0.536,2.672 C0.529,2.598 0.521,2.523 0.513,2.449 C0.505,2.449 0.497,2.449 0.490,2.449 C0.490,2.419 0.490,2.390 0.490,2.360 C0.482,2.360 0.474,2.360 0.466,2.360 C0.466,2.241 0.466,2.123 0.466,2.004 C0.466,1.759 0.454,1.519 0.513,1.335 C0.521,1.261 0.529,1.187 0.536,1.113 C0.544,1.113 0.552,1.113 0.560,1.113 C0.560,1.098 0.560,1.084 0.560,1.069 C0.567,1.069 0.575,1.069 0.583,1.069 C0.583,1.039 0.583,1.010 0.583,0.980 C0.591,0.980 0.599,0.980 0.606,0.980 C0.606,0.965 0.606,0.950 0.606,0.935 C0.614,0.935 0.622,0.935 0.630,0.935 C0.630,0.905 0.630,0.876 0.630,0.846 C0.692,0.749 0.754,0.653 0.816,0.557 C0.840,0.557 0.863,0.557 0.886,0.557 C0.913,0.595 0.901,0.586 0.956,0.601 C0.983,0.698 1.067,0.718 1.096,0.824 C1.112,0.824 1.127,0.824 1.143,0.824 C1.143,0.839 1.143,0.853 1.143,0.868 C1.159,0.868 1.174,0.868 1.190,0.868 C1.190,0.883 1.190,0.898 1.190,0.912 C1.205,0.912 1.221,0.912 1.236,0.912 C1.236,0.927 1.236,0.942 1.236,0.957 C1.252,0.957 1.267,0.957 1.283,0.957 C1.283,0.973 1.283,0.987 1.283,1.002 C1.298,1.002 1.314,1.002 1.330,1.002 C1.330,1.016 1.330,1.031 1.330,1.046 C1.345,1.046 1.361,1.046 1.376,1.046 C1.376,1.061 1.376,1.076 1.376,1.091 C1.392,1.091 1.407,1.091 1.423,1.091 C1.423,1.106 1.423,1.121 1.423,1.135 C1.439,1.135 1.454,1.135 1.470,1.135 C1.470,1.150 1.470,1.165 1.470,1.180 C1.485,1.180 1.501,1.180 1.516,1.180 C1.516,1.195 1.516,1.210 1.516,1.224 C1.532,1.224 1.547,1.224 1.563,1.224 C1.563,1.240 1.563,1.254 1.563,1.269 C1.579,1.269 1.594,1.269 1.610,1.269 C1.610,1.284 1.610,1.299 1.610,1.314 C1.625,1.314 1.641,1.314 1.656,1.314 C1.656,1.328 1.656,1.343 1.656,1.358 C1.765,1.384 1.787,1.464 1.890,1.491 C1.890,1.507 1.890,1.521 1.890,1.536 C1.905,1.536 1.921,1.536 1.936,1.536 C1.936,1.551 1.936,1.566 1.936,1.581 C1.952,1.581 1.967,1.581 1.983,1.581 C1.983,1.596 1.983,1.611 1.983,1.625 C2.091,1.651 2.114,1.731 2.216,1.759 C2.216,1.774 2.216,1.788 2.216,1.803 C2.240,1.811 2.263,1.818 2.286,1.826 C2.286,1.833 2.286,1.841 2.286,1.848 C2.310,1.856 2.333,1.863 2.356,1.870 C2.364,1.885 2.372,1.900 2.380,1.914 C2.411,1.922 2.442,1.930 2.473,1.937 C2.489,1.959 2.504,1.981 2.520,2.004 C2.535,2.004 2.551,2.004 2.566,2.004 C2.566,2.011 2.566,2.018 2.566,2.026 C2.582,2.026 2.597,2.026 2.613,2.026 C2.629,2.048 2.644,2.071 2.660,2.093 C2.691,2.100 2.722,2.108 2.753,2.115 C2.768,2.137 2.784,2.159 2.800,2.182 C2.831,2.189 2.862,2.197 2.893,2.204 C2.901,2.219 2.909,2.234 2.916,2.248 C2.940,2.248 2.963,2.248 2.986,2.248 C3.002,2.270 3.017,2.293 3.033,2.315 C3.064,2.323 3.095,2.331 3.126,2.338 C3.134,2.353 3.142,2.367 3.150,2.382 C3.173,2.382 3.196,2.382 3.220,2.382 C3.227,2.397 3.235,2.412 3.243,2.426 C3.266,2.426 3.290,2.426 3.313,2.426 C3.321,2.442 3.329,2.456 3.336,2.471 C3.360,2.471 3.383,2.471 3.406,2.471 C3.414,2.486 3.422,2.501 3.430,2.516 C3.453,2.516 3.476,2.516 3.500,2.516 C3.515,2.538 3.531,2.560 3.546,2.583 C3.562,2.583 3.577,2.583 3.593,2.583 C3.593,2.590 3.593,2.598 3.593,2.605 C3.624,2.612 3.655,2.619 3.686,2.627 C3.686,2.635 3.686,2.642 3.686,2.649 C3.717,2.649 3.749,2.649 3.780,2.649 C3.787,2.664 3.795,2.679 3.803,2.694 C3.826,2.694 3.850,2.694 3.873,2.694 C3.881,2.709 3.889,2.723 3.896,2.739 C3.920,2.739 3.943,2.739 3.966,2.739 C3.974,2.754 3.982,2.768 3.990,2.783 C4.060,2.798 4.130,2.813 4.200,2.828 C4.207,2.842 4.215,2.857 4.223,2.872 C4.293,2.886 4.363,2.902 4.433,2.917 C4.433,2.924 4.433,2.932 4.433,2.939 C4.449,2.939 4.464,2.939 4.480,2.939 C4.480,2.946 4.480,2.954 4.480,2.961 C4.511,2.961 4.542,2.961 4.573,2.961 C4.581,2.976 4.589,2.990 4.596,3.006 C4.620,3.006 4.643,3.006 4.666,3.006 C4.666,3.013 4.666,3.021 4.666,3.028 C4.682,3.028 4.697,3.028 4.713,3.028 C4.713,3.035 4.713,3.043 4.713,3.050 C4.775,3.058 4.837,3.065 4.900,3.072 C4.900,3.080 4.900,3.088 4.900,3.095 C4.931,3.095 4.962,3.095 4.993,3.095 C4.993,3.102 4.993,3.109 4.993,3.117 C5.009,3.117 5.024,3.117 5.040,3.117 C5.040,3.124 5.040,3.132 5.040,3.139 C5.071,3.139 5.102,3.139 5.133,3.139 C5.133,3.146 5.133,3.154 5.133,3.161 C5.164,3.161 5.195,3.161 5.226,3.161 C5.226,3.169 5.226,3.176 5.226,3.184 C5.257,3.184 5.289,3.184 5.320,3.184 C5.320,3.191 5.320,3.198 5.320,3.206 C5.397,3.214 5.475,3.221 5.553,3.228 C5.553,3.236 5.553,3.243 5.553,3.251 C5.615,3.251 5.677,3.251 5.740,3.251 C5.740,3.258 5.740,3.265 5.740,3.273 C5.771,3.273 5.802,3.273 5.833,3.273 C5.833,3.280 5.833,3.288 5.833,3.295 C5.849,3.295 5.864,3.295 5.880,3.295 C5.880,3.302 5.880,3.310 5.880,3.318 C5.911,3.318 5.942,3.318 5.973,3.318 C5.973,3.325 5.973,3.332 5.973,3.340 C6.082,3.340 6.191,3.340 6.300,3.340 C6.300,3.347 6.300,3.354 6.300,3.362 C6.331,3.362 6.362,3.362 6.393,3.362 C6.393,3.369 6.393,3.377 6.393,3.384 C6.533,3.384 6.673,3.384 6.813,3.384 C6.805,3.280 6.797,3.176 6.790,3.072 C6.782,3.072 6.774,3.072 6.766,3.072 C6.766,2.984 6.766,2.894 6.766,2.805 C6.766,2.526 6.789,2.337 6.860,2.137 C6.867,2.078 6.875,2.018 6.883,1.959 C6.891,1.959 6.899,1.959 6.906,1.959 C6.906,1.944 6.906,1.930 6.906,1.914 C6.914,1.914 6.922,1.914 6.930,1.914 C6.930,1.885 6.930,1.856 6.930,1.826 C6.937,1.826 6.945,1.826 6.953,1.826 C6.953,1.811 6.953,1.796 6.953,1.781 C6.961,1.781 6.969,1.781 6.976,1.781 C6.976,1.751 6.976,1.722 6.976,1.692 C6.992,1.685 7.007,1.677 7.023,1.670 C7.023,1.648 7.023,1.625 7.023,1.603 C7.038,1.596 7.054,1.588 7.070,1.581 C7.070,1.559 7.070,1.536 7.070,1.514 C7.085,1.507 7.101,1.499 7.116,1.491 C7.116,1.469 7.116,1.447 7.116,1.425 C7.132,1.418 7.147,1.410 7.163,1.403 C7.163,1.380 7.163,1.358 7.163,1.335 C7.179,1.328 7.194,1.321 7.210,1.314 C7.210,1.292 7.210,1.269 7.210,1.247 C7.217,1.247 7.225,1.247 7.233,1.247 C7.266,1.205 7.285,1.195 7.303,1.135 C7.319,1.135 7.334,1.135 7.350,1.135 C7.376,1.032 7.461,1.010 7.490,0.912 C7.505,0.912 7.521,0.912 7.536,0.912 C7.536,0.898 7.536,0.883 7.536,0.868 C7.552,0.868 7.567,0.868 7.583,0.868 C7.583,0.853 7.583,0.839 7.583,0.824 C7.599,0.824 7.614,0.824 7.630,0.824 C7.630,0.809 7.630,0.794 7.630,0.780 C7.645,0.780 7.661,0.780 7.676,0.780 C7.676,0.765 7.676,0.749 7.676,0.735 C7.692,0.735 7.707,0.735 7.723,0.735 C7.723,0.720 7.723,0.705 7.723,0.690 C7.739,0.690 7.754,0.690 7.770,0.690 C7.770,0.675 7.770,0.661 7.770,0.645 C7.785,0.645 7.801,0.645 7.816,0.645 C7.869,0.560 7.923,0.566 8.003,0.512 C8.026,0.482 8.050,0.453 8.073,0.423 C8.096,0.423 8.120,0.423 8.143,0.423 C8.151,0.408 8.159,0.393 8.166,0.379 C8.197,0.371 8.229,0.364 8.260,0.356 C8.275,0.334 8.291,0.312 8.306,0.290 C8.330,0.290 8.353,0.290 8.376,0.290 C8.384,0.274 8.392,0.260 8.400,0.245 C8.423,0.245 8.446,0.245 8.470,0.245 C8.477,0.230 8.485,0.215 8.493,0.200 C8.524,0.200 8.555,0.200 8.586,0.200 C8.586,0.193 8.586,0.185 8.586,0.178 C8.602,0.178 8.617,0.178 8.633,0.178 C8.633,0.171 8.633,0.163 8.633,0.156 C8.664,0.156 8.695,0.156 8.726,0.156 C8.726,0.148 8.726,0.141 8.726,0.134 C8.742,0.134 8.757,0.134 8.773,0.134 C8.773,0.126 8.773,0.119 8.773,0.111 C8.804,0.111 8.835,0.111 8.866,0.111 C8.866,0.104 8.866,0.096 8.866,0.089 C8.882,0.089 8.897,0.089 8.913,0.089 C8.913,0.081 8.913,0.074 8.913,0.067 C8.991,0.060 9.069,0.052 9.146,0.045 C9.146,0.037 9.146,0.030 9.146,0.023 C9.177,0.023 9.209,0.023 9.240,0.023 C9.240,0.015 9.240,0.007 9.240,-0.000 C9.333,-0.000 9.426,-0.000 9.520,-0.000 C9.776,-0.000 10.028,-0.012 10.220,0.045 C10.297,0.052 10.375,0.060 10.453,0.067 C10.453,0.074 10.453,0.081 10.453,0.089 C10.469,0.089 10.484,0.089 10.500,0.089 C10.500,0.096 10.500,0.104 10.500,0.111 C10.531,0.111 10.562,0.111 10.593,0.111 C10.593,0.119 10.593,0.126 10.593,0.134 C10.608,0.134 10.624,0.134 10.640,0.134 C10.640,0.141 10.640,0.148 10.640,0.156 C10.671,0.156 10.702,0.156 10.733,0.156 C10.733,0.163 10.733,0.171 10.733,0.178 C10.749,0.178 10.764,0.178 10.780,0.178 C10.780,0.185 10.780,0.193 10.780,0.200 C10.811,0.200 10.842,0.200 10.873,0.200 C10.881,0.215 10.889,0.230 10.896,0.245 C10.920,0.245 10.943,0.245 10.966,0.245 C10.974,0.260 10.982,0.274 10.990,0.290 C11.013,0.290 11.036,0.290 11.060,0.290 C11.067,0.304 11.075,0.319 11.083,0.334 C11.106,0.334 11.130,0.334 11.153,0.334 C11.169,0.356 11.184,0.379 11.200,0.401 C11.231,0.408 11.262,0.415 11.293,0.423 C11.301,0.438 11.309,0.453 11.316,0.468 C11.340,0.468 11.363,0.468 11.386,0.468 C11.386,0.475 11.386,0.482 11.386,0.490 C11.430,0.521 11.441,0.540 11.503,0.557 Z"/>
</svg>