<?xml version="1.0" standalone="no"?>
<!DOCTYPE svg PUBLIC "-//W3C//DTD SVG 1.1//EN" "http://www.w3.org/Graphics/SVG/1.1/DTD/svg11.dtd" >
<svg xmlns="http://www.w3.org/2000/svg" xmlns:xlink="http://www.w3.org/1999/xlink" version="1.1">
<metadata>
Created by FontForge 20160405 at Thu Jan  4 02:00:04 2018
 By www-data
Copyright (c) 2015 by Kostas Bartsokas. All rights reserved.
</metadata>
<defs>
<font id="Averta-LightItalic" horiz-adv-x="1200" >
  <font-face 
    font-family="Averta-LightItalic"
    font-weight="400"
    font-style="italic"
    font-stretch="normal"
    units-per-em="2048"
    panose-1="0 0 4 0 0 0 0 0 0 0"
    ascent="1607"
    descent="-441"
    x-height="993.999"
    cap-height="1455"
    bbox="-334.362 -695 2710 1994"
    underline-thickness="58"
    underline-position="-107"
    slope="-7"
    unicode-range="U+0020-2E18"
  />
<missing-glyph horiz-adv-x="828" 
 />
    <glyph glyph-name=".notdef" horiz-adv-x="828" 
 />
    <glyph glyph-name="space" unicode=" " horiz-adv-x="467" 
 />
    <glyph glyph-name="exclam" unicode="!" horiz-adv-x="475" 
d="M195 399l116 1109h120l-156 -1109h-80zM207 153c22.667 0 41.667 -7.66699 57 -23s23 -34.333 23 -57c0 -24 -7.83301 -43.833 -23.5 -59.5s-35.5 -23.5 -59.5 -23.5c-22.667 0 -41.5 7.66699 -56.5 23s-22.5 34.333 -22.5 57c0 24 7.83301 43.833 23.5 59.5
s35.167 23.5 58.5 23.5z" />
    <glyph glyph-name="quotedbl" unicode="&#x22;" horiz-adv-x="603" 
d="M281 1455h119l-149 -470h-90zM501 1455h119l-149 -470h-90z" />
    <glyph glyph-name="numbersign" unicode="#" horiz-adv-x="1185" 
d="M967 1343h83l-113 -437h237l-11 -87h-251l-91 -355h259l-11 -87h-273l-112 -439h-83l113 439h-321l-114 -439h-83l114 439h-227l11 87h240l92 355h-249l10 87h263l112 437h84l-113 -437h321zM830 819h-322l-92 -355h323z" />
    <glyph glyph-name="dollar" unicode="$" horiz-adv-x="1079" 
d="M600 748c8.66699 -4.66699 21.668 -12.0039 39.001 -22.0039c23.333 -12.667 41 -22.5 53 -29.5s28.833 -17 50.5 -30s38.167 -23.667 49.5 -32s25.666 -19.166 42.999 -32.499s30.666 -25.5 39.999 -36.5s19.666 -24.167 30.999 -39.5s19.833 -30.166 25.5 -44.499
s10.5 -30.5 14.5 -48.5s6 -36.333 6 -55c0 -78 -17.833 -146.167 -53.5 -204.5s-84.667 -102.833 -147 -133.5s-133.5 -47 -213.5 -49l-30 -245h-94l30 251c-71.333 10.667 -138 34.5 -200 71.5s-112.333 85.167 -151 144.5l86 79c38 -65.333 87.333 -114 148 -146
s125.334 -48 194.001 -48c93.333 0 169.166 24.833 227.499 74.5s87.5 114.167 87.5 193.5c0 16 -2.5 31.5 -7.5 46.5s-10.667 28.333 -17 40s-16.333 24 -30 37s-25.667 23.833 -36 32.5s-25.833 19.5 -46.5 32.5s-37.334 23 -50.001 30s-31.667 17.833 -57 32.5
c-18.667 10.667 -33 18.667 -43 24c-94 52.667 -158.667 93.334 -194 122.001c-88 70.667 -132 153 -132 247c0 102.667 36.5 186.5 109.5 251.5s166.5 99.167 280.5 102.5l31 257h94l-32 -263c56.667 -9.33301 110.334 -28.166 161.001 -56.499s94 -63.833 130 -106.5
l-82 -76c-25.333 31.333 -54.666 57.666 -87.999 78.999s-67 36.833 -101 46.5s-68.667 14.5 -104 14.5c-52.667 0 -100.5 -9.66699 -143.5 -29s-76.833 -47.333 -101.5 -84s-37 -78.334 -37 -125.001c0 -18 2.66699 -35.167 8 -51.5s11.333 -31 18 -44
s17.167 -26.5 31.5 -40.5s26.833 -25.667 37.5 -35s26.834 -20.666 48.501 -33.999s38.834 -23.666 51.501 -30.999s32 -18.333 58 -33c3.33301 -2 5.66602 -3.33301 6.99902 -4z" />
    <glyph glyph-name="percent" unicode="%" horiz-adv-x="1944" 
d="M1413 1436l-747 -1461l-88 39l747 1462zM572 1462c107.333 0 196.001 -33.835 266.001 -101.502s105 -155.5 105 -263.5c0 -61.333 -11 -118.833 -33 -172.5s-51.5 -99.167 -88.5 -136.5s-80.833 -66.666 -131.5 -87.999s-104.334 -32 -161.001 -32
c-105.333 0 -192.666 34.5 -261.999 103.5s-104 157.5 -104 265.5c0 58 10.667 113.333 32 166s50.166 97.834 86.499 135.501s79.833 67.667 130.5 90s104 33.5 160 33.5zM570.001 1372c-86.667 0 -160.167 -32.333 -220.5 -97s-90.5 -144 -90.5 -238
c0 -82 25.667 -149 77 -201s116.333 -78 195 -78c88.667 0 163.5 31.833 224.5 95.5s91.5 144.167 91.5 241.5c0 54.667 -12 103 -36 145s-56.833 74.5 -98.5 97.5s-89.167 34.5 -142.5 34.5zM1454 783.998c52.667 0 101.83 -8.83008 147.497 -26.4971
s85 -42.334 118 -74.001s58.833 -70.334 77.5 -116.001s28 -95.167 28 -148.5c0 -49.333 -7 -96.166 -21 -140.499s-33.667 -83.833 -59 -118.5s-55.166 -64.834 -89.499 -90.501s-72.333 -45.334 -114 -59.001s-85.167 -20.5 -130.5 -20.5
c-105.333 0 -192.666 34.5 -261.999 103.5s-104 157.5 -104 265.5c0 78 18.167 149.5 54.5 214.5s85.833 116.333 148.5 154s131.334 56.5 206.001 56.5zM1452 694.001c-56.667 0 -108.832 -14.834 -156.499 -44.501s-85.334 -70.167 -113.001 -121.5
s-41.5 -107.666 -41.5 -168.999c0 -82 25.667 -149 77 -201s116.333 -78 195 -78c89.333 0 164.333 31.833 225 95.5s91 144.167 91 241.5c0 82.667 -26 149.5 -78 200.5s-118.333 76.5 -199 76.5z" />
    <glyph glyph-name="ampersand" unicode="&#x26;" horiz-adv-x="1491" 
d="M1468 868l-11.9971 -98.9971h-346c-6 -86.667 -19.167 -168.334 -39.5 -245.001s-48.5 -147.834 -84.5 -213.501s-78.833 -122.167 -128.5 -169.5s-108.834 -84.333 -177.501 -111s-144 -40 -226 -40c-106.667 0 -193.334 32.667 -260.001 98s-100 152.666 -100 261.999
c0 105.333 27.667 200.5 83 285.5s128.666 147.167 219.999 186.5c-38 25.333 -68.5 58.166 -91.5 98.499s-34.5 85.5 -34.5 135.5c0 76 17.667 145.167 53 207.5s85 111.5 149 147.5s135.333 54 214 54c50.667 0 96.334 -7.16699 137.001 -21.5s74.167 -33.833 100.5 -58.5
s47.666 -52.5 63.999 -83.5s27.5 -64.833 33.5 -101.5l-100 -33c-7.33301 60 -30.5 107.833 -69.5 143.5s-92.833 53.834 -161.5 54.501c-47.333 0 -90.5 -7.83301 -129.5 -23.5s-71.5 -37.167 -97.5 -64.5s-46 -59.833 -60 -97.5s-21 -78.5 -21 -122.5
c0 -24 3.83301 -47.5 11.5 -70.5s18.167 -43.167 31.5 -60.5s30 -31.333 50 -42s41.667 -16 65 -16h927zM467.003 94.0029c78.667 0 150.668 17.165 216.001 51.498s120.333 81.833 165 142.5s80.5 131.834 107.5 213.501s43.833 170.834 50.5 267.501h-446
c-60 0 -117.333 -19.5 -172 -58.5s-98.334 -90 -131.001 -153s-49 -128.833 -49 -197.5c0 -78.667 23 -142.667 69 -192s109.333 -74 190 -74z" />
    <glyph glyph-name="quotesingle" unicode="'" horiz-adv-x="383" 
d="M281 1455h119l-149 -470h-90z" />
    <glyph glyph-name="parenleft" unicode="(" horiz-adv-x="527" 
d="M242 351c0 194.667 26.832 389.5 80.499 584.5s130.167 372.833 229.5 533.5l-76 38c-107.333 -162.667 -190.166 -346.667 -248.499 -552s-87.5 -412.333 -87.5 -621c0 -218.667 34.667 -427.667 104 -627l93 42c-63.333 200 -95 400.667 -95 602z" />
    <glyph glyph-name="parenright" unicode=")" horiz-adv-x="528" 
d="M415 874c0 244.667 -37.667 457 -113 637l-89 -46c66 -180 99 -381.667 99 -605c0 -384 -101.333 -755.667 -304 -1115l80 -34c218 365.333 327 753 327 1163z" />
    <glyph glyph-name="asterisk" unicode="*" horiz-adv-x="801" 
d="M685 944l-181 137l-26 -263h-79l40 263l-212 -139l-32 71l220 122l-192 125l48 69l181 -138l26 264h78l-40 -264l213 139l33 -70l-222 -124l193 -123z" />
    <glyph glyph-name="plus" unicode="+" horiz-adv-x="1122" 
d="M991 516h-377l-52 -425h-101l52 425h-379l12 100h379l53 426h101l-53 -426h377z" />
    <glyph glyph-name="comma" unicode="," horiz-adv-x="394" 
d="M105 205h118l-155 -470h-84z" />
    <glyph glyph-name="hyphen" unicode="-" horiz-adv-x="795" 
d="M677 577h-540l13 107h540z" />
    <glyph glyph-name="period" unicode="." horiz-adv-x="443" 
d="M170 153c22.667 0 41.667 -7.66699 57 -23s23 -34.333 23 -57c0 -24 -7.83301 -43.833 -23.5 -59.5s-35.5 -23.5 -59.5 -23.5c-22.667 0 -41.5 7.66699 -56.5 23s-22.5 34.333 -22.5 57c0 24 7.83301 43.833 23.5 59.5s35.167 23.5 58.5 23.5z" />
    <glyph glyph-name="slash" unicode="/" horiz-adv-x="728" 
d="M868 1510l-924 -1743l-79 41l926 1745z" />
    <glyph glyph-name="zero" unicode="0" horiz-adv-x="1188" 
d="M713 1417c58 0 110.334 -11.002 157.001 -33.002s87 -54.667 121 -98s60.167 -99.166 78.5 -167.499s27.5 -147.166 27.5 -236.499c0 -74 -5.16699 -146.833 -15.5 -218.5s-25.5 -140.834 -45.5 -207.501s-46.167 -128.167 -78.5 -184.5s-68.833 -105.5 -109.5 -147.5
s-88.334 -74.833 -143.001 -98.5s-113.334 -35.5 -176.001 -35.5c-56 0 -107.5 11 -154.5 33s-88 54.5 -123 97.5s-62.167 98.833 -81.5 167.5s-29 147 -29 235c0 62.667 3.83301 124.834 11.5 186.501s19.334 122 35.001 181s34.834 114.667 57.501 167s50 100.5 82 144.5
s66.833 82 104.5 114s80.667 56.833 129 74.5s99.166 26.5 152.499 26.5zM707.001 1311c-50.667 0 -97.9941 -11.002 -141.994 -33.002s-82.167 -52.333 -114.5 -91s-61.333 -83.5 -87 -134.5s-46.334 -106.167 -62.001 -165.5s-27.5 -119.833 -35.5 -181.5
s-12 -123.5 -12 -185.5c0 -71.333 7.16699 -134.333 21.5 -189s34.166 -99 59.499 -133s54.666 -59.5 87.999 -76.5s69.666 -25.5 108.999 -25.5c51.333 0 99.333 10.833 144 32.5s83.167 51.834 115.5 90.501s61.166 83.167 86.499 133.5s45.666 105.166 60.999 164.499
s26.833 119.833 34.5 181.5s11.5 123.834 11.5 186.501c0 142.667 -24.833 249.334 -74.5 320.001s-117.5 106 -203.5 106z" />
    <glyph glyph-name="one" unicode="1" horiz-adv-x="701" 
d="M510 1407h94l-173 -1407h-111l154 1254l-289 -219l-54 88z" />
    <glyph glyph-name="two" unicode="2" horiz-adv-x="968" 
d="M205 110l-1.00098 -5.99707h615l-14 -104h-784l9 84l488 482c42.667 42 79.334 80.667 110.001 116s60.167 74.5 88.5 117.5s49.833 87.5 64.5 133.5s22 93 22 141c0 43.333 -7.66699 82.333 -23 117s-39.666 63.167 -72.999 85.5s-73.666 33.5 -120.999 33.5
c-66.667 0 -131.334 -20.333 -194.001 -61s-110.334 -95.667 -143.001 -165l-84 61c40 80.667 99 146 177 196s163 75 255 75s168.167 -31.333 228.5 -94s90.5 -142 90.5 -238c0 -44.667 -5.33301 -88.834 -16 -132.501s-25 -84.334 -43 -122.001
s-40.5 -75.834 -67.5 -114.501s-54.667 -74 -83 -106s-60.833 -66 -97.5 -102z" />
    <glyph glyph-name="three" unicode="3" horiz-adv-x="995" 
d="M688 732c60 -24 105.999 -61.168 137.999 -111.501s48 -111.166 48 -182.499c0 -88 -19.667 -166.167 -59 -234.5s-93.666 -121 -162.999 -158s-148 -55.5 -236 -55.5c-103.333 0 -188.333 25.167 -255 75.5s-110.334 116.833 -131.001 199.5l106 41
c14.667 -66 45.5 -117.5 92.5 -154.5s108.833 -55.5 185.5 -55.5c68.667 0 129.334 15 182.001 45s93.334 71.833 122.001 125.5s43 115.167 43 184.5c0 71.333 -21.833 127.833 -65.5 169.5s-109.5 62.5 -197.5 62.5h-123l13 99h119c61.333 0 115.666 14.5 162.999 43.5
s83 67.333 107 115s36 100.5 36 158.5c0 67.333 -20.667 119.5 -62 156.5s-97 55.5 -167 55.5c-126.667 0 -230.667 -55.333 -312 -166l-92 56c46.667 65.333 105 117.666 175 156.999s148.333 59 235 59c65.333 0 122.833 -11.167 172.5 -33.5
s89.167 -56.666 118.5 -102.999s44 -101.833 44 -166.5c0 -89.333 -21 -167 -63 -233s-99.667 -114.333 -173 -145z" />
    <glyph glyph-name="four" unicode="4" horiz-adv-x="1048" 
d="M770 360h193l-13 -102h-193l-32 -258h-111l32 258h-614l10 86l761 1063h95zM660 358l102 822l-583 -822h481z" />
    <glyph glyph-name="five" unicode="5" horiz-adv-x="1043" 
d="M985 1303l-556.004 -0.00195312l-79 -466c36 15.333 75.167 27 117.5 35s79.833 12 112.5 12c73.333 0 136.833 -13.833 190.5 -41.5s95 -69.167 124 -124.5s43.5 -122 43.5 -200c0 -101.333 -21.167 -192.166 -63.5 -272.499s-101.666 -143 -177.999 -188
s-162.5 -67.5 -258.5 -67.5c-89.333 0 -167.666 22.667 -234.999 68s-115.333 106.333 -144 183l95 56c22 -62.667 57.833 -112 107.5 -148s108.5 -54 176.5 -54c113.333 0 206.333 39.5 279 118.5s109 177.833 109 296.5c0 88.667 -24 156.334 -72 203.001
s-115.667 70 -203 70c-21.333 0 -43.666 -1.66699 -66.999 -5s-46.5 -8.33301 -69.5 -15s-45.167 -15.5 -66.5 -26.5s-39.666 -23.167 -54.999 -36.5l-72 20l120 687h657z" />
    <glyph glyph-name="six" unicode="6" horiz-adv-x="1103" 
d="M665 877c97.333 0 176.667 -32.666 238 -97.999s92 -152.333 92 -261c0 -73.333 -12.5 -142.666 -37.5 -207.999s-59.167 -121.333 -102.5 -168s-95.5 -83.5 -156.5 -110.5s-126.167 -40.5 -195.5 -40.5c-76.667 0 -143.834 17.167 -201.501 51.5
s-102.167 83.666 -133.5 147.999s-47 139.833 -47 226.5c0 90 11.667 180.5 35 271.5s57.333 177.667 102 260s97.334 157.666 158.001 225.999s130.5 126.833 209.5 175.5s162.167 83 249.5 103l16 -100c-100 -26 -192 -70.667 -276 -134s-154.333 -137.333 -211 -222
s-100 -177 -130 -277l2 -1c50 50 109 88.833 177 116.5s138.667 41.5 212 41.5zM506.001 96.001c50 0 98.167 10.667 144.5 32s86.5 50.333 120.5 87s61.167 81.167 81.5 133.5s30.5 107.833 30.5 166.5c0 78.667 -22.833 141.334 -68.5 188.001s-108.5 70 -188.5 70
c-82.667 0 -159.167 -23 -229.5 -69s-123.833 -105.333 -160.5 -178c-3.33301 -34.667 -5 -66 -5 -94c0 -102.667 24.5 -184.334 73.5 -245.001s116.167 -91 201.5 -91z" />
    <glyph glyph-name="seven" unicode="7" horiz-adv-x="929" 
d="M179 1407h781l-10 -86l-690 -1342l-111 28l671 1296h-655z" />
    <glyph glyph-name="eight" unicode="8" horiz-adv-x="1091" 
d="M763 761c65.333 -19.333 116.833 -55.668 154.5 -109.001s56.5 -118.333 56.5 -195c0 -92 -21.667 -173.5 -65 -244.5s-103.333 -125.667 -180 -164s-163.334 -57.5 -260.001 -57.5c-78.667 0 -147 13.833 -205 41.5s-102.167 66.667 -132.5 117
s-45.5 109.166 -45.5 176.499c0 64.667 12 125.834 36 183.501s59.167 108.167 105.5 151.5s100.833 75.333 163.5 96l1 4c-44 16.667 -81.5 46.167 -112.5 88.5s-46.5 95.166 -46.5 158.499c0 78.667 18.5 149 55.5 211s88.333 110.333 154 145s139.167 52 220.5 52
c98.667 0 178.334 -26.667 239.001 -80s91 -124.666 91 -213.999c0 -80 -21.167 -153.167 -63.5 -219.5s-97.833 -112.166 -166.5 -137.499v-4zM645 1315c-86.667 0 -159.002 -28.333 -217.002 -85s-87 -127.334 -87 -212.001c0 -66 21.833 -117.167 65.5 -153.5
s102.834 -54.5 177.501 -54.5c83.333 0 154.333 27.333 213 82s88 124.334 88 209.001c0 68.667 -21.167 121.5 -63.5 158.5s-101.166 55.5 -176.499 55.5zM486.998 93.998c69.333 0 132.498 15.501 189.498 46.501s101.833 73.667 134.5 128s49 114.5 49 180.5
c0 83.333 -25.5 146.833 -76.5 190.5s-120.167 65.5 -207.5 65.5c-54.667 0 -105.667 -9.33301 -153 -28s-87.166 -44 -119.499 -76s-57.666 -69.5 -75.999 -112.5s-27.5 -88.5 -27.5 -136.5c0 -80.667 26.167 -143.834 78.5 -189.501s121.833 -68.5 208.5 -68.5z" />
    <glyph glyph-name="nine" unicode="9" horiz-adv-x="1103" 
d="M663 1417c116 0 206.836 -37.667 272.503 -113s98.5 -188 98.5 -338c0 -76 -8.83301 -152.333 -26.5 -229s-42.334 -150 -74.001 -220s-70.834 -136.5 -117.501 -199.5s-98 -119.167 -154 -168.5s-117.833 -91.333 -185.5 -126s-137.5 -58.667 -209.5 -72l-15 98
c62 14 121.833 35.833 179.5 65.5s110.167 65.167 157.5 106.5s90.833 87.666 130.5 138.999s73.667 106 102 164s51.166 118 68.499 180l-4 2c-52 -55.333 -112.833 -99.166 -182.5 -131.499s-141.5 -48.5 -215.5 -48.5c-103.333 0 -184.333 31.167 -243 93.5
s-88 146.166 -88 251.499c0 74.667 12.833 145.667 38.5 213s60.667 125.333 105 174s98 87.334 161 116.001s130.167 43 201.5 43zM512.003 630c50.667 0 100.836 9.83398 150.503 29.501s97.167 49.5 142.5 89.5s84.333 88.333 117 145
c1.33301 36.667 1.66602 64 0.999023 82c-6.66699 223.333 -96.334 335 -269.001 335c-72.667 0 -138.5 -18.5 -197.5 -55.5s-105 -88 -138 -153s-49.5 -137.5 -49.5 -217.5c0 -76.667 20.667 -138.334 62 -185.001s101.666 -70 180.999 -70z" />
    <glyph glyph-name="colon" unicode=":" horiz-adv-x="438" 
d="M274 1004c22.667 0 41.667 -7.66699 57 -23s23 -34.333 23 -57c0 -24 -7.83301 -43.833 -23.5 -59.5s-35.5 -23.5 -59.5 -23.5c-22.667 0 -41.5 7.66699 -56.5 23s-22.5 34.333 -22.5 57c0 24 7.83301 43.833 23.5 59.5s35.167 23.5 58.5 23.5zM169 153
c23.333 0 42.5 -7.66699 57.5 -23s22.5 -34.333 22.5 -57c0 -24 -7.83301 -43.833 -23.5 -59.5s-35.5 -23.5 -59.5 -23.5c-14.667 0 -28 3.5 -40 10.5s-21.5 16.5 -28.5 28.5s-10.5 25.667 -10.5 41c0 16 3.5 30.333 10.5 43s16.833 22.5 29.5 29.5s26.667 10.5 42 10.5z
" />
    <glyph glyph-name="semicolon" unicode=";" horiz-adv-x="426" 
d="M264 1004c22.667 0 41.667 -7.66699 57 -23s23 -34.333 23 -57c0 -16 -3.5 -30.333 -10.5 -43s-16.833 -22.5 -29.5 -29.5s-27 -10.5 -43 -10.5c-22.667 0 -41.5 7.66699 -56.5 23s-22.5 34.333 -22.5 57c0 24 7.83301 43.833 23.5 59.5s35.167 23.5 58.5 23.5zM127 205
h118l-155 -470h-84z" />
    <glyph glyph-name="less" unicode="&#x3c;" horiz-adv-x="1091" 
d="M900 220l-13 -110l-763 424l9 79l867 427l-13 -111l-705 -355z" />
    <glyph glyph-name="equal" unicode="=" horiz-adv-x="1107" 
d="M1040 746h-857l12 100h857zM985 286h-857l12 100h857z" />
    <glyph glyph-name="greater" unicode="&#x3e;" horiz-adv-x="1088" 
d="M123 220l706 354l-618 355l13 111l762 -427l-9 -79l-867 -424z" />
    <glyph glyph-name="question" unicode="?" horiz-adv-x="839" 
d="M233 1253c34 50 75.001 88.5 123.001 115.5s99 40.5 153 40.5c64 0 115 -19.167 153 -57.5s57 -93.166 57 -164.499c0 -36.667 -4.33301 -71.167 -13 -103.5s-22.167 -63.5 -40.5 -93.5s-37.333 -57.167 -57 -81.5s-45.167 -52.5 -76.5 -84.5
c-6.66699 -7.33301 -20.334 -21.833 -41.001 -43.5s-34.667 -36.5 -42 -44.5s-18.833 -21.333 -34.5 -40s-27 -33.667 -34 -45s-15.167 -25.5 -24.5 -42.5s-16.5 -33.667 -21.5 -50s-8.5 -33.5 -10.5 -51.5l-13 -114h97l18 114c3.33301 21.333 9.5 42.166 18.5 62.499
s22.667 41.833 41 64.5s34.5 41.334 48.5 56.001s35 36 63 64l7.5 7.5l6.5 6.5l7 7c34 34 62.5 64.667 85.5 92s45.833 58.833 68.5 94.5s39.667 73.5 51 113.5s17 81.667 17 125c0 64.667 -13 121.167 -39 169.5s-62 85.166 -108 110.499s-98.667 38 -158 38
c-71.333 0 -139.833 -16.5 -205.5 -49.5s-121.167 -80.5 -166.5 -142.5zM337.001 153c23.333 0 42.502 -7.66699 57.502 -23s22.5 -34.333 22.5 -57c0 -24 -7.83301 -43.833 -23.5 -59.5s-35.5 -23.5 -59.5 -23.5c-22.667 0 -41.5 7.66699 -56.5 23s-22.5 34.333 -22.5 57
c0 12 2 23.167 6 33.5s9.66699 19 17 26s16.166 12.667 26.499 17s21.166 6.5 32.499 6.5z" />
    <glyph glyph-name="at" unicode="@" horiz-adv-x="1855" 
d="M1337 90c-60 0 -105.669 20.0029 -137.002 60.0029s-46.333 91.333 -45 154h-5c-42.667 -59.333 -94.667 -105.833 -156 -139.5s-126.666 -50.5 -195.999 -50.5c-89.333 0 -160.5 29.333 -213.5 88s-79.5 140.667 -79.5 246c0 68.667 10.333 133.667 31 195
s49.667 115.166 87 161.499s84.166 83.166 140.499 110.499s118.5 41 186.5 41c56 0 107.333 -9 154 -27s84 -42 112 -72h4l10 91h108l-70 -566c-3.33301 -42 -4.16602 -77.833 -2.49902 -107.5s10.667 -52.5 27 -68.5s41.5 -24 75.5 -24
c39.333 0 75.666 9.66699 108.999 29s61 44.166 83 74.499s40.667 64.833 56 103.5s26.5 76.667 33.5 114s10.5 73.333 10.5 108c0 94.667 -15.833 181.834 -47.5 261.501s-75.5 147.5 -131.5 203.5s-124.333 99.5 -205 130.5s-168.667 46.5 -264 46.5
c-80 0 -155.167 -8.66699 -225.5 -26s-132.333 -41.166 -186 -71.499s-102.667 -66.166 -147 -107.499s-81.666 -85.5 -111.999 -132.5s-56 -96.5 -77 -148.5s-36.167 -103.333 -45.5 -154s-14 -100.334 -14 -149.001c0 -74.667 10.5 -146 31.5 -214
s50.667 -128.5 89 -181.5s83.5 -99 135.5 -138s110.5 -68.833 175.5 -89.5s133.167 -31 204.5 -31c172.667 0 324.667 36 456 108l45 -67c-142.667 -85.333 -309.667 -128 -501 -128c-102.667 0 -198.834 18.333 -288.501 55s-166.667 87.167 -231 151.5
s-114.833 142.666 -151.5 234.999s-55 192.166 -55 299.499c0 50.667 4.83301 102.834 14.5 156.501s25.667 109.167 48 166.5s49.833 112.333 82.5 165s73.5 102.667 122.5 150s103.333 88.333 163 123s129.5 62.167 209.5 82.5s165.667 30.5 257 30.5
c108.667 0 208.834 -17.5 300.501 -52.5s169.667 -83.833 234 -146.5s114.5 -139.334 150.5 -230.001s54 -189.667 54 -297c0 -31.333 -2.16699 -63 -6.5 -95s-11.5 -65.333 -21.5 -100s-22.333 -67.5 -37 -98.5s-33.167 -60.5 -55.5 -88.5s-47.333 -52.333 -75 -73
s-60.167 -37 -97.5 -49s-77.666 -18 -120.999 -18zM825.998 213.003c40 0 80.332 10.501 120.999 31.501s77.667 48.833 111 83.5s62 76.667 86 126s39 100.666 45 153.999l20 154c-30.667 30.667 -68.5 53.834 -113.5 69.501s-89.5 23.5 -133.5 23.5
c-53.333 0 -102.166 -11.167 -146.499 -33.5s-80.833 -52 -109.5 -89s-50.834 -79.333 -66.501 -127s-23.5 -97.5 -23.5 -149.5c0 -76.667 17.833 -136.334 53.5 -179.001s87.834 -64 156.501 -64z" />
    <glyph glyph-name="A" unicode="A" horiz-adv-x="1256" 
d="M1012 0l-85 392h-622l-180 -392h-121l677 1455h123l326 -1455h-118zM352 496h553l-176 814h-4z" />
    <glyph glyph-name="B" unicode="B" horiz-adv-x="1216" 
d="M855 763c70 -18 125.5 -51.166 166.5 -99.499s61.5 -113.166 61.5 -194.499c0 -92 -21.667 -173.833 -65 -245.5s-103.333 -126.834 -180 -165.501s-164 -58 -262 -58h-438l178 1455h432c52.667 0 100 -5.33301 142 -16s79 -27.167 111 -49.5s56.667 -52.333 74 -90
s26 -81.834 26 -132.501c0 -55.333 -9 -108.833 -27 -160.5s-45.833 -99 -83.5 -142s-82.5 -75.167 -134.5 -96.5zM417 1349l-67 -541.999h307c37.333 0 72.833 5.66699 106.5 17s63.834 27.5 90.501 48.5s49.667 45.667 69 74s34.166 60 44.499 95s15.5 71.5 15.5 109.5
c0 65.333 -21.167 114.666 -63.5 147.999s-108.833 50 -199.5 50h-303zM558 106.002c76 0 144.833 14.667 206.5 44s110.5 71.5 146.5 126.5s54 117.833 54 188.5c0 80 -25.333 139.333 -76 178s-128.667 58 -234 58h-316l-74 -595h293z" />
    <glyph glyph-name="C" unicode="C" horiz-adv-x="1390" 
d="M1237 233c-44 -48.667 -93.332 -91.0039 -147.999 -127.004s-114.334 -64.333 -179.001 -85s-129.667 -31 -195 -31c-82.667 0 -158.5 13.833 -227.5 41.5s-128 67.334 -177 119.001s-87.167 116 -114.5 193s-41 163.167 -41 258.5c0 90.667 11.5 179 34.5 265
s56.333 165 100 237s95 135 154 189s127 96.167 204 126.5s157.833 45.5 242.5 45.5c204.667 0 371 -103.333 499 -310l-98 -66c-54 93.333 -113.5 161.166 -178.5 203.499s-139.5 63.5 -223.5 63.5c-60 0 -117.667 -9.66699 -173 -29s-105.333 -46.166 -150 -80.499
s-85.5 -75.166 -122.5 -122.499s-67.833 -98.666 -92.5 -153.999s-43.834 -114.166 -57.501 -176.499s-20.5 -125.5 -20.5 -189.5c0 -156 39.833 -279.167 119.5 -369.5s188.834 -135.5 327.501 -135.5c76 0 152.333 18 229 54s144 87 202 153z" />
    <glyph glyph-name="D" unicode="D" horiz-adv-x="1387" 
d="M514 0l-375.999 -0.00292969l178 1455h388c188 0 332.5 -52.667 433.5 -158s151.5 -251 151.5 -437c0 -125.333 -18.667 -241.166 -56 -347.499s-89.333 -197.166 -156 -272.499s-148.334 -134.166 -245.001 -176.499s-202.667 -63.5 -318 -63.5zM522.001 105.997
c95.333 0 183.667 18.8311 265 56.498s150 89.834 206 156.501s99.667 146.334 131 239.001s47 192.667 47 300c0 154 -41 274.333 -123 361s-199.667 130 -353 130h-276l-153 -1243h256z" />
    <glyph glyph-name="E" unicode="E" horiz-adv-x="1130" 
d="M976 106l-12 -106h-826l178 1455h786l-12 -106h-673l-71 -570h559l-13 -106h-558l-70 -567h712z" />
    <glyph glyph-name="F" unicode="F" horiz-adv-x="1097" 
d="M417 1349l-72 -585h605l-13 -106h-604l-81 -658h-114l178 1455h820l-12 -106h-707z" />
    <glyph glyph-name="G" unicode="G" horiz-adv-x="1457" 
d="M1319 725l-66 -546.996c-68 -60.667 -148.667 -107.167 -242 -139.5s-187.666 -48.5 -282.999 -48.5c-176.667 0 -316.334 53.833 -419.001 161.5s-154 257.167 -154 448.5c0 91.333 11.5 180.166 34.5 266.499s56.333 165.333 100 237s95 134.667 154 189
s127 96.666 204 126.999s157.833 45.5 242.5 45.5c195.333 0 353.333 -77.333 474 -232l-91 -74c-102.667 131.333 -231 197 -385 197c-59.333 0 -116.5 -9.33301 -171.5 -28s-104.833 -44.834 -149.5 -78.501s-85.5 -74 -122.5 -121s-68 -98.167 -93 -153.5
s-44.333 -114.833 -58 -178.5s-20.5 -128.5 -20.5 -194.5c0 -103.333 17.833 -192.833 53.5 -268.5s88.167 -133.834 157.5 -174.501s152.333 -61 249 -61c74 0 146.833 12.167 218.5 36.5s136.167 59.5 193.5 105.5l47 379h-426l13 106h540z" />
    <glyph glyph-name="H" unicode="H" horiz-adv-x="1382" 
d="M1301 1455l-178 -1455h-114l78 635h-757l-78 -635h-114l178 1455h114l-88 -714h757l88 714h114z" />
    <glyph glyph-name="I" unicode="I" horiz-adv-x="536" 
d="M265 0h-115l178 1455h114z" />
    <glyph glyph-name="J" unicode="J" horiz-adv-x="939" 
d="M106 265c31.333 -51.333 69.167 -91.833 113.5 -121.5s93.833 -44.5 148.5 -44.5c73.333 0 134.333 29.333 183 88s81 151.667 97 279l121 989h114l-121 -995c-38.667 -313.333 -168.667 -470 -390 -470c-72 0 -137.667 16.5 -197 49.5s-108.333 80.5 -147 142.5z" />
    <glyph glyph-name="K" unicode="K" horiz-adv-x="1227" 
d="M1248 1455l-601 -677l433 -778h-139l-378 679h-4l-260 -293l-47 -386h-114l178 1455h114l-107 -877h3l775 877h147z" />
    <glyph glyph-name="L" unicode="L" horiz-adv-x="1055" 
d="M945 106l-13 -106h-794l178 1455h114l-165 -1349h680z" />
    <glyph glyph-name="M" unicode="M" horiz-adv-x="1668" 
d="M1466 1455h121l-177 -1455h-114l148 1219h-3l-587 -914h-83l-366 918h-4l-149 -1223h-114l178 1455h119l393 -1001h4z" />
    <glyph glyph-name="N" unicode="N" horiz-adv-x="1441" 
d="M1244 1455h114l-177 -1455h-121l-651 1248h-4l-153 -1248h-114l178 1455h116l654 -1255h5z" />
    <glyph glyph-name="O" unicode="O" horiz-adv-x="1569" 
d="M898 1464c85.333 0 163.164 -13.333 233.497 -40s130.5 -65.334 180.5 -116.001s88.833 -114.167 116.5 -190.5s41.5 -162.5 41.5 -258.5c0 -92.667 -11 -182.334 -33 -269.001s-54.5 -166.167 -97.5 -238.5s-94.167 -135.5 -153.5 -189.5
s-128.666 -96.167 -207.999 -126.5s-164 -45.5 -254 -45.5c-85.333 0 -163.166 13.667 -233.499 41s-130.333 66.666 -180 117.999s-88.167 115.166 -115.5 191.499s-41 161.833 -41 256.5c0 90.667 11.333 178.834 34 264.501s55.834 164.834 99.501 237.501
s95.334 136.334 155.001 191.001s128.667 97.334 207 128.001s161.166 46 248.499 46zM730.998 99c73.333 0 142.831 13.334 208.498 40.001s123.334 63.667 173.001 111s92.667 102.5 129 165.5s63.833 132.167 82.5 207.5s28 153 28 233
c0 80.667 -10.833 152.667 -32.5 216s-52.667 115.666 -93 156.999s-89 72.833 -146 94.5s-121.167 32.5 -192.5 32.5c-72 0 -140.5 -13.667 -205.5 -41s-122.167 -65 -171.5 -113s-92.166 -103.667 -128.499 -167s-63.833 -132.333 -82.5 -207s-28 -151 -28 -229
c0 -159.333 41 -282.5 123 -369.5s194 -130.5 336 -130.5z" />
    <glyph glyph-name="P" unicode="P" horiz-adv-x="1165" 
d="M766 1455c124 0 216.833 -31.168 278.5 -93.501s92.5 -150.166 92.5 -263.499c0 -102 -19.833 -191 -59.5 -267s-98.5 -135.333 -176.5 -178s-170.667 -64 -278 -64h-299l-72 -589h-114l178 1455h450zM636 694.999c79.333 0 148 16.6689 206 50.002
s102 80.166 132 140.499s45 131.166 45 212.499c0 84 -24.833 146.833 -74.5 188.5s-116.167 62.5 -199.5 62.5h-328l-80 -654h299z" />
    <glyph glyph-name="Q" unicode="Q" horiz-adv-x="1594" 
d="M1470 859c0 -120.667 -18.333 -234.833 -55 -342.5s-89.334 -201.834 -158.001 -282.501l153 -170l-77 -83l-155 174c-128 -110 -279.333 -165 -454 -165c-85.333 0 -163.166 13.667 -233.499 41s-130.333 66.666 -180 117.999s-88.167 115.166 -115.5 191.499
s-41 161.833 -41 256.5c0 90.667 11.333 178.834 34 264.501s55.834 164.834 99.501 237.501s95.334 136.334 155.001 191.001s128.667 97.334 207 128.001s161.166 46 248.499 46c85.333 0 163.166 -13.333 233.499 -40s130.5 -65.334 180.5 -116.001
s88.833 -114.167 116.5 -190.5s41.5 -162.5 41.5 -258.5zM731 99.001c141.333 0 264.999 47 370.999 141l-153 173l75 80l155 -172c55.333 70 98 151.333 128 244s45 189.667 45 291c0 80.667 -10.833 152.5 -32.5 215.5s-52.667 115.333 -93 157s-89 73.167 -146 94.5
s-121.167 32 -192.5 32c-72 0 -140.5 -13.667 -205.5 -41s-122.167 -64.833 -171.5 -112.5s-92.166 -103.167 -128.499 -166.5s-63.833 -132.333 -82.5 -207s-28 -151 -28 -229c0 -159.333 41 -282.5 123 -369.5s194 -130.5 336 -130.5z" />
    <glyph glyph-name="R" unicode="R" horiz-adv-x="1228" 
d="M747 599v-4.99902l294 -594h-134l-287 589h-296l-72 -589h-114l178 1455h454c123.333 0 216 -31.167 278 -93.5s93 -150.166 93 -263.499c0 -132.667 -34.5 -243.334 -103.5 -332.001s-165.833 -144.334 -290.5 -167.001zM417 1349l-80 -654h303
c118.667 0 212.167 36.667 280.5 110s102.5 171 102.5 293c0 84 -25 146.833 -75 188.5s-116.667 62.5 -200 62.5h-331z" />
    <glyph glyph-name="S" unicode="S" horiz-adv-x="1116" 
d="M607 800c8.66699 -4.66699 21.665 -12.001 38.998 -22.001c26 -14 45.5 -24.833 58.5 -32.5s31.167 -18.5 54.5 -32.5s41.166 -25.333 53.499 -34s27.833 -20.334 46.5 -35.001s33 -27.834 43 -39.501s21.167 -25.667 33.5 -42s21.5 -32.333 27.5 -48
s11.167 -33 15.5 -52s6.5 -38.5 6.5 -58.5c0 -84.667 -19.833 -158.667 -59.5 -222s-93.834 -111.166 -162.501 -143.499s-147 -48.5 -235 -48.5c-90.667 0 -177.834 20.5 -261.501 61.5s-150.5 99.167 -200.5 174.5l87 79c42 -68.667 96 -120.167 162 -154.5
s135.667 -51.5 209 -51.5c100.667 0 183 26.833 247 80.5s95.667 124.167 95 211.5c0 18.667 -2.66699 36.334 -8 53.001s-11.666 31.667 -18.999 45s-18.666 27.333 -33.999 42s-28.666 26.834 -39.999 36.501s-28.666 21.667 -51.999 36s-42 25.5 -56 33.5
s-35 19.667 -63 35c-16.667 9.33301 -29.334 16.333 -38.001 21c-4 2 -9.66699 5.33301 -17 10c-22 12 -38.5 21.167 -49.5 27.5s-26.667 15.666 -47 27.999s-36.166 22.5 -47.499 30.5s-25.666 18.333 -42.999 31s-31 24.334 -41 35.001s-21.5 23.167 -34.5 37.5
s-23.167 28.333 -30.5 42s-14.5 28.667 -21.5 45s-12 33.333 -15 51s-4.5 36.167 -4.5 55.5c0 56 10.833 107.667 32.5 155s51.667 87.333 90 120s84.333 58.167 138 76.5s111.834 27.5 174.501 27.5c74.667 0 147 -15.833 217 -47.5s129 -75.5 177 -131.5l-85 -77
c-40.667 50 -88.834 87 -144.501 111s-112.834 36 -171.501 36c-90 0 -164.333 -23.667 -223 -71s-87.667 -109.333 -87 -186c0 -20 2.83301 -39 8.5 -57s12.167 -34 19.5 -48s18.833 -28.833 34.5 -44.5s29.334 -28.5 41.001 -38.5s29.167 -22.167 52.5 -36.5
s41.833 -25.5 55.5 -33.5s34.5 -20 62.5 -36c4.66699 -2 8 -3.66699 10 -5z" />
    <glyph glyph-name="T" unicode="T" horiz-adv-x="1064" 
d="M1104 1349h-412l-165 -1349h-114l165 1349h-407l12 106h933z" />
    <glyph glyph-name="U" unicode="U" horiz-adv-x="1351" 
d="M1184 580c-24 -198 -84.3291 -345.835 -180.996 -443.502s-227.334 -146.5 -392.001 -146.5c-72.667 0 -136.667 11.333 -192 34s-100.166 55.334 -134.499 98.001s-60 93 -77 151s-25.5 123.667 -25.5 197c0 37.333 2.66699 79 8 125l106 860h114l-106 -862
c-6 -42.667 -9 -82 -9 -118c0 -57.333 6.16699 -108.666 18.5 -153.999s31.166 -84.666 56.499 -117.999s58.666 -59 99.999 -77s89.666 -27 144.999 -27c127.333 0 230.166 39.667 308.499 119s127.5 200.666 147.5 363.999l106 873h114z" />
    <glyph glyph-name="V" unicode="V" horiz-adv-x="1241" 
d="M1164 1455h128l-674 -1455h-110l-319 1455h120l271 -1284h4z" />
    <glyph glyph-name="W" unicode="W" horiz-adv-x="1895" 
d="M1812 1455h123l-598 -1455h-119l-174 1260h-4l-482 -1260h-119l-243 1455h119l203 -1258h4l475 1258h134l169 -1253h5z" />
    <glyph glyph-name="X" unicode="X" horiz-adv-x="1219" 
d="M1256 1455l-541 -731l365 -724h-134l-316 631h-5l-471 -631h-137l544 727l-362 728h129l316 -637h4l467 637h141z" />
    <glyph glyph-name="Y" unicode="Y" horiz-adv-x="1102" 
d="M1044 1455h135l-551 -799l-81 -656h-114l81 656l-353 799h125l293 -685h4z" />
    <glyph glyph-name="Z" unicode="Z" horiz-adv-x="1165" 
d="M1125 1359l-902 -1248v-5h754l-13 -106h-896l11 94l899 1251l1 4h-705l12 106h849z" />
    <glyph glyph-name="bracketleft" unicode="[" horiz-adv-x="581" 
d="M374 1400l-197 -1605h223l-10 -87h-320l218 1780h320l-10 -88h-224z" />
    <glyph glyph-name="backslash" unicode="\" horiz-adv-x="739" 
d="M109 1510l90 43l499 -1745l-91 -41z" />
    <glyph glyph-name="bracketright" unicode="]" horiz-adv-x="584" 
d="M433 1400h-227l11 88h322l-218 -1780h-323l11 87h226z" />
    <glyph glyph-name="asciicircum" unicode="^" horiz-adv-x="905" 
d="M207 1023l316 432h92l211 -432h-104l-161 349l-250 -349h-104z" />
    <glyph glyph-name="underscore" unicode="_" horiz-adv-x="965" 
d="M892 -139h-975l10 82h975z" />
    <glyph glyph-name="grave" unicode="`" horiz-adv-x="958" 
d="M509 1398l186 -283h-117l-195 283h126z" />
    <glyph glyph-name="a" unicode="a" horiz-adv-x="1122" 
d="M923 994l106 0.000976562l-121 -994h-107l32 258h-4c-46 -80.667 -102.667 -145.5 -170 -194.5s-140 -73.5 -218 -73.5c-72.667 0 -135.167 17.833 -187.5 53.5s-91.166 83.167 -116.499 142.5s-38 126.666 -38 201.999c0 81.333 12.167 159.333 36.5 234
s58 140.167 101 196.5s96.667 101.333 161 135s133.833 50.5 208.5 50.5c59.333 0 115.666 -9.83301 168.999 -29.5s97 -48.167 131 -85.5h4zM457 88.001c26 0 51.668 3.83398 77.001 11.501s49.5 18.334 72.5 32.001s45.333 30.5 67 50.5s41.667 42.167 60 66.5
s35.5 50.833 51.5 79.5s30 58.667 42 90s22.333 64.166 31 98.499s15 69.166 19 104.499v-1l20 159c-22.667 29.333 -52.334 53.833 -89.001 73.5s-71.334 33 -104.001 40s-64 10.5 -94 10.5c-60 0 -115.5 -14.167 -166.5 -42.5s-93.5 -66.5 -127.5 -114.5
s-60.5 -103.167 -79.5 -165.5s-28.5 -127.5 -28.5 -195.5c0 -58 9.33301 -109.167 28 -153.5s46.834 -79.333 84.501 -105s83.167 -38.5 136.5 -38.5z" />
    <glyph glyph-name="b" unicode="b" horiz-adv-x="1149" 
d="M705 1004c56.667 0 107.168 -10.499 151.501 -31.499s80.333 -50.333 108 -88s48.667 -81.667 63 -132s21.5 -105.833 21.5 -166.5c0 -62 -7.5 -122 -22.5 -180s-37.833 -112.167 -68.5 -162.5s-67.334 -94.333 -110.001 -132s-93.5 -67.334 -152.5 -89.001
s-122.5 -32.5 -190.5 -32.5c-152 0 -279.333 34.667 -382 104l173 1414h107l-92 -754h3c49.333 77.333 107.333 138.333 174 183s139 67 217 67zM499.001 90.001c67.333 0 129.167 13.833 185.5 41.5s103 65 140 112s65.667 100.833 86 161.5s30.5 124.667 30.5 192
c0 92.667 -21.5 166.834 -64.5 222.501s-105.833 83.5 -188.5 83.5c-54 0 -105.5 -14.333 -154.5 -43s-91.667 -67.334 -128 -116.001s-67 -105 -92 -169s-41.5 -131.333 -49.5 -202l-29 -229c74 -36 162 -54 264 -54z" />
    <glyph glyph-name="c" unicode="c" horiz-adv-x="998" 
d="M475 -9c-51.333 0 -99.498 9 -144.498 27s-85 43.667 -120 77s-62.5 76.333 -82.5 129s-30 111.667 -30 177c0 81.333 12.167 158.333 36.5 231s58.5 136.667 102.5 192s99.167 99.166 165.5 131.499s139.166 48.5 218.499 48.5c68.667 0 132.667 -13.667 192 -41
s106.666 -67.666 141.999 -120.999l-87 -64c-18.667 28 -41.334 51.5 -68.001 70.5s-55.167 32.833 -85.5 41.5s-62.166 13 -95.499 13c-62 0 -119.167 -13.333 -171.5 -40s-96 -62.5 -131 -107.5s-62.167 -97.667 -81.5 -158s-29 -123.833 -29 -190.5
c0 -96 26.333 -172.667 79 -230s118.334 -86 197.001 -86c127.333 0 231 46.667 311 140l83 -62c-51.333 -60 -109.333 -104.667 -174 -134s-140.334 -44 -227.001 -44z" />
    <glyph glyph-name="d" unicode="d" horiz-adv-x="1146" 
d="M991 1508l106.003 0.000976562l-184 -1508h-107l32 261h-4c-46.667 -82 -103.834 -147.667 -171.501 -197s-141.5 -74 -221.5 -74c-72.667 0 -135.167 17.833 -187.5 53.5s-91.166 83.167 -116.499 142.5s-38 126.666 -38 201.999c0 81.333 12.167 159.166 36.5 233.499
s58 139.833 101 196.5s96.667 101.834 161 135.501s133.833 50.5 208.5 50.5c39.333 0 77.166 -3.5 113.499 -10.5s71.666 -18.833 105.999 -35.5s63.166 -37.667 86.499 -63h4zM457.003 88.001c52.667 0 103.502 14.5 152.502 43.5s91.833 67.833 128.5 116.5
s67.667 105 93 169s42.333 130.667 51 200l20 160c-16.667 24 -37.5 44.667 -62.5 62s-51.333 30.333 -79 39s-53.834 15 -78.501 19s-48.667 6 -72 6c-48 0 -93.333 -9.16699 -136 -27.5s-80 -43.833 -112 -76.5s-59.667 -70.667 -83 -114s-41 -90.666 -53 -141.999
s-18 -104 -18 -158c0 -88.667 21.667 -160.334 65 -215.001s104.666 -82 183.999 -82z" />
    <glyph glyph-name="e" unicode="e" horiz-adv-x="968" 
d="M491 91c106.667 0 201.666 46.6689 284.999 140.002l84 -62c-34.667 -38.667 -70 -70.834 -106 -96.501s-76.333 -45.667 -121 -60s-93 -21.5 -145 -21.5c-118 0 -212.5 36.833 -283.5 110.5s-106.5 174.167 -106.5 301.5c0 80.667 12.5 157.5 37.5 230.5
s59.5 136.833 103.5 191.5s98.5 98.167 163.5 130.5s135.5 48.5 211.5 48.5c20 0 40.833 -1.83301 62.5 -5.5s43.834 -9.16699 66.501 -16.5s44 -17.5 64 -30.5s38 -28.167 54 -45.5s28.667 -38.166 38 -62.499s14 -51.166 14 -80.499c0 -36 -7.66699 -70 -23 -102
s-35.833 -60.333 -61.5 -85s-57 -47.334 -94 -68.001s-76 -38.334 -117 -53.001s-85.5 -27.834 -133.5 -39.501s-94.5 -21.167 -139.5 -28.5s-91.5 -13.333 -139.5 -18c6.66699 -87.333 36 -155.5 88 -204.5s118 -73.5 198 -73.5zM608.999 903.002
c-50.667 0 -99.167 -10.665 -145.5 -31.998s-87.333 -50.833 -123 -88.5s-65.334 -83.834 -89.001 -138.501s-38.5 -114 -44.5 -178c56 5.33301 110.167 12.5 162.5 21.5s105.333 21.5 159 37.5s100.334 34.5 140.001 55.5s72.167 46.667 97.5 77s38 63.5 38 99.5
c0 27.333 -6.33301 51.166 -19 71.499s-29.5 35.5 -50.5 45.5s-41.833 17.333 -62.5 22s-41.667 7 -63 7z" />
    <glyph glyph-name="f" unicode="f" horiz-adv-x="619" 
d="M717 1368c-42.667 32.667 -93 48.999 -151 48.999c-18 0 -34.333 -2.16699 -49 -6.5s-29 -11.666 -43 -21.999s-26.167 -23.833 -36.5 -40.5s-19.333 -38 -27 -64s-13.5 -56 -17.5 -90l-24 -200h274l-11 -95h-275l-110 -899h-107l110 899h-115l11 95h116l27 223
c24 200.667 113 301 267 301c74 0 137.667 -18 191 -54z" />
    <glyph glyph-name="g" unicode="g" horiz-adv-x="1126" 
d="M923 994l107 -0.000976562l-106 -863c-10.667 -87.333 -28 -163.333 -52 -228s-52 -117 -84 -157s-70.167 -72.333 -114.5 -97s-89.333 -41.5 -135 -50.5s-97.167 -13.5 -154.5 -13.5c-117.333 0 -226 28 -326 84l35 99c94 -55.333 192.667 -83 296 -83
c46.667 0 88.167 3.66699 124.5 11s72 21 107 41s65 46.667 90 80s47 77 66 131s33.167 118 42.5 192l19 152h-4c-46.667 -81.333 -104.167 -146.833 -172.5 -196.5s-141.833 -74.5 -220.5 -74.5c-72.667 0 -135.167 17.833 -187.5 53.5s-91.166 83 -116.499 142
s-38 126.167 -38 201.5c0 59.333 7.66699 117.5 23 174.5s37.833 110.167 67.5 159.5s64.667 92.833 105 130.5s87.333 67.334 141 89.001s110.5 32.5 170.5 32.5s116.667 -9.83301 170 -29.5s96.666 -48.5 129.999 -86.5h4zM457 118.999c51.333 0 101.17 14.333 149.503 43
s90.666 66.5 126.999 113.5s67.166 100.667 92.499 161s42.333 121.833 51 184.5v-1l20 159c-22.667 29.333 -52.334 53.833 -89.001 73.5s-71.334 33 -104.001 40s-64 10.5 -94 10.5c-48 0 -93.333 -9.16699 -136 -27.5s-80 -43.333 -112 -75s-59.667 -68.167 -83 -109.5
s-41 -85.5 -53 -132.5s-18 -94.5 -18 -142.5c0 -58 9.33301 -109.167 28 -153.5s46.834 -79.333 84.501 -105s83.167 -38.5 136.5 -38.5z" />
    <glyph glyph-name="h" unicode="h" horiz-adv-x="1122" 
d="M738 1004c98.667 0 168.999 -33 210.999 -99s53.667 -168.333 35 -307l-79 -598h-107l78 591c6.66699 60 8.33398 110 5.00098 150s-13.166 72 -29.499 96s-35.833 41.167 -58.5 51.5s-50 15.5 -82 15.5c-45.333 0 -92.333 -13 -141 -39s-93.334 -60.5 -134.001 -103.5
s-76 -95 -106 -156s-49.333 -124.167 -58 -189.5l-51 -416h-107l184 1508h107l-92 -755h4c55.333 78.667 120.333 140.167 195 184.5s150 66.5 226 66.5z" />
    <glyph glyph-name="i" unicode="i" horiz-adv-x="470" 
d="M338 1379c22.667 0 41.667 -7.66699 57 -23s23 -34.333 23 -57c0 -23.333 -7.83301 -43 -23.5 -59s-35.5 -24 -59.5 -24c-22.667 0 -41.5 7.66699 -56.5 23s-22.5 34.333 -22.5 57c0 24 7.83301 43.833 23.5 59.5s35.167 23.5 58.5 23.5zM242 994h106l-121 -994h-107z
" />
    <glyph glyph-name="j" unicode="j" horiz-adv-x="399" 
d="M293 1379c15.333 0 29 -3.5 41 -10.5s21.5 -16.5 28.5 -28.5s10.5 -25.667 10.5 -41c0 -23.333 -7.83301 -43 -23.5 -59s-35.5 -24 -59.5 -24c-14.667 0 -28 3.5 -40 10.5s-21.5 16.5 -28.5 28.5s-10.5 25.667 -10.5 41c0 16 3.5 30.333 10.5 43s16.833 22.5 29.5 29.5
s26.667 10.5 42 10.5zM-195 -286c18.667 -13.333 35.168 -21.999 49.501 -25.999s31.5 -6 51.5 -6s37.667 3 53 9s30.166 16.667 44.499 32s26.333 37.666 36 66.999s17.167 65.333 22.5 108l134 1096h107l-136 -1109c-8.66699 -68 -23 -123.833 -43 -167.5
s-47.167 -76.667 -81.5 -99s-76.5 -33.5 -126.5 -33.5s-95.333 12.333 -136 37z" />
    <glyph glyph-name="k" unicode="k" horiz-adv-x="999" 
d="M709 282c23.333 -54 43.668 -95.1709 61.001 -123.504s33.166 -47.666 47.499 -57.999s32.833 -17.833 55.5 -22.5l-31 -87c-12 -0.666992 -24 0 -36 2c-13.333 2 -25.833 5.83301 -37.5 11.5s-22 11.667 -31 18s-18.333 15.833 -28 28.5s-17.5 23.667 -23.5 33
s-13.667 23.5 -23 42.5s-16.5 34.333 -21.5 46s-12.833 29.834 -23.5 54.501c-1.33301 2.66699 -2.33301 5 -3 7s-1.66699 4.33301 -3 7s-2.33301 5 -3 7l-70 162h-4c-92 -75.333 -188.667 -137.666 -290 -186.999l-27 -223h-107l185 1508h107l-142 -1164h6
c138 77.333 258.5 175.333 361.5 294s173.5 237.334 211.5 356.001h110c-24 -88.667 -64.667 -176.5 -122 -263.5s-126.333 -168.5 -207 -244.5z" />
    <glyph glyph-name="l" unicode="l" horiz-adv-x="457" 
d="M308 1508h107l-184 -1508h-107z" />
    <glyph glyph-name="m" unicode="m" horiz-adv-x="1694" 
d="M1322 1004c195.333 0 275.325 -135.334 239.992 -406.001l-80 -598h-106l78 591c6.66699 60 8.33398 110 5.00098 150s-13 72 -29 96s-34.667 41.167 -56 51.5s-46.666 15.5 -75.999 15.5c-31.333 0 -63.666 -8 -96.999 -24s-65.666 -38.833 -96.999 -68.5
s-60.333 -64.167 -87 -103.5s-49.667 -83.666 -69 -132.999s-32.666 -100 -39.999 -152l-56 -423h-107l78 591c6.66699 60 8.33398 110 5.00098 150s-12.666 72 -27.999 96s-33.5 41.167 -54.5 51.5s-46.5 15.5 -76.5 15.5c-38.667 0 -79.667 -13 -123 -39
s-83.666 -60.333 -120.999 -103s-70 -94.667 -98 -156s-46.333 -124.333 -55 -189l-51 -417h-107l122 994h106l-28 -231h3c51.333 75.333 110.666 134.333 177.999 177s134 64 200 64c148.667 0 229.334 -80.333 242.001 -241h5c50 76 108.5 135.167 175.5 177.5
s135.167 63.5 204.5 63.5z" />
    <glyph glyph-name="n" unicode="n" horiz-adv-x="1120" 
d="M736 1004c98.667 0 168.999 -33 210.999 -99s53.667 -168.333 35 -307l-79 -598h-107l78 591c6.66699 60 8.33398 110 5.00098 150s-13.166 72 -29.499 96s-35.833 41 -58.5 51s-50 15 -82 15c-45.333 0 -92.333 -12.833 -141 -38.5s-93.334 -60 -134.001 -103
s-76 -94.833 -106 -155.5s-49.333 -123.667 -58 -189l-51 -417h-107l122 994h106l-30 -243h4c55.333 79.333 120.5 141.333 195.5 186s150.5 67 226.5 67z" />
    <glyph glyph-name="o" unicode="o" horiz-adv-x="1118" 
d="M618 1004c80.667 0 151.17 -15.498 211.503 -46.498s107.333 -77.167 141 -138.5s50.5 -135 50.5 -221c0 -84.667 -11.833 -163.834 -35.5 -237.501s-57.334 -138 -101.001 -193s-98.334 -98.333 -164.001 -130s-138.167 -47.5 -217.5 -47.5
c-124 0 -222.5 36.5 -295.5 109.5s-109.5 174.833 -109.5 305.5c0 63.333 7.66699 124.666 23 183.999s38 114 68 164s65.667 93.833 107 131.5s89.666 67 144.999 88s114.333 31.5 177 31.5zM614.003 903.002c-78 0 -148.333 -22.001 -211 -66.001
s-111.167 -103 -145.5 -177s-51.5 -155.667 -51.5 -245c0 -100 26.833 -179.167 80.5 -237.5s126.5 -87.5 218.5 -87.5c58.667 0 113.334 12.5 164.001 37.5s93.667 59.333 129 103s63.166 96.667 83.499 159s30.5 129.5 30.5 201.5
c0 102.667 -27.167 180.334 -81.5 233.001s-126.5 79 -216.5 79z" />
    <glyph glyph-name="p" unicode="p" horiz-adv-x="1145" 
d="M711 1004c71.333 0 132.833 -18.167 184.5 -54.5s90.167 -84.166 115.5 -143.499s38 -126 38 -200c0 -81.333 -12.167 -159.333 -36.5 -234s-58.333 -140.167 -102 -196.5s-98 -101.333 -163 -135s-135.5 -50.5 -211.5 -50.5c-60 0 -116.667 9.66699 -170 29
s-97.333 47.666 -132 84.999h-4l-62 -509h-107l172 1399h106l-30 -250h3c30.667 52 65.5 97 104.5 135s83.833 68.333 134.5 91s104 34 160 34zM527 90c49.333 0 95.835 9.00098 139.502 27.001s82 43.167 115 75.5s61.5 70.333 85.5 114s42.167 91.667 54.5 144
s18.5 106.5 18.5 162.5c0 54.667 -9 103.667 -27 147s-46 78.166 -84 104.499s-83.667 39.5 -137 39.5c-68.667 0 -133.334 -23.167 -194.001 -69.5s-110.834 -107.5 -150.501 -183.5s-66.5 -159.667 -80.5 -251l-22 -177c14 -24.667 32.5 -46 55.5 -64
s47.833 -31.833 74.5 -41.5s52.5 -16.667 77.5 -21s49.833 -6.5 74.5 -6.5z" />
    <glyph glyph-name="q" unicode="q" horiz-adv-x="1128" 
d="M923 994l106 0.000976562l-170 -1399h-107l81 661h-5c-30.667 -52.667 -65.334 -98.5 -104.001 -137.5s-82.5 -70.167 -131.5 -93.5s-99.5 -35 -151.5 -35c-72.667 0 -135.167 17.833 -187.5 53.5s-91.166 83.167 -116.499 142.5s-38 126.666 -38 201.999
c0 81.333 12.167 159.166 36.5 233.499s58 139.833 101 196.5s96.667 101.834 161 135.501s133.833 50.5 208.5 50.5c59.333 0 115.333 -9.66699 168 -29s96 -47.333 130 -84h6zM457 88.001c66 0 128.67 23.334 188.003 70.001s108.833 108.334 148.5 185.001
s66.5 160.667 80.5 252l23 184c-22.667 29.333 -52.334 53.833 -89.001 73.5s-71.334 33 -104.001 40s-64 10.5 -94 10.5c-48 0 -93.333 -9.16699 -136 -27.5s-80 -43.833 -112 -76.5s-59.667 -70.834 -83 -114.501s-41 -91 -53 -142s-18 -103.5 -18 -157.5
c0 -88.667 21.667 -160.334 65 -215.001s104.666 -82 183.999 -82z" />
    <glyph glyph-name="r" unicode="r" horiz-adv-x="632" 
d="M316 764c43.333 66.667 94.167 120.333 152.5 161s121.833 67 190.5 79l-15 -127c-98.667 -8.66699 -181.5 -55 -248.5 -139s-108.833 -190.333 -125.5 -319l-51 -419h-107l122 994h106l-28 -230h4z" />
    <glyph glyph-name="s" unicode="s" horiz-adv-x="840" 
d="M105 214c74 -84 163.331 -125.998 267.998 -125.998c70 0 127.333 16 172 48s67 75.333 67 130c0 14 -2.16699 27.5 -6.5 40.5s-9.33301 24.167 -15 33.5s-14.5 19 -26.5 29s-22.667 18.333 -32 25s-23 14.334 -41 23.001s-32.333 15.334 -43 20.001l-48 21
c-10.667 4.66699 -18.667 8 -24 10c-23.333 10 -44 19.667 -62 29s-36.667 20.166 -56 32.499s-35.833 25.166 -49.5 38.499s-26.167 28.333 -37.5 45s-19.833 35.167 -25.5 55.5s-8.5 42.166 -8.5 65.499c0 54 14.667 101.833 44 143.5s67.833 73.167 115.5 94.5
s99.5 32 155.5 32c122 0 221 -42 297 -126l-72 -74c-33.333 38 -68.666 64.5 -105.999 79.5s-79 22.5 -125 22.5c-57.333 0 -105 -15.167 -143 -45.5s-57 -71.5 -57 -123.5c0 -21.333 4.83301 -41.166 14.5 -59.499s24.334 -34.833 44.001 -49.5
s39.334 -27.334 59.001 -38.001s44.5 -22.667 74.5 -36c5.33301 -2 13 -5.33301 23 -10c24 -10.667 42.167 -18.834 54.5 -24.501s29.166 -14.334 50.499 -26.001s37.833 -21.834 49.5 -30.501s25.334 -20 41.001 -34s27.334 -28 35.001 -42s14.5 -30.5 20.5 -49.5
s9 -38.833 9 -59.5c0 -61.333 -16 -114.166 -48 -158.499s-73.833 -77 -125.5 -98s-109.834 -31.5 -174.501 -31.5c-70 0 -133.833 12.833 -191.5 38.5s-106.834 62.834 -147.501 111.501z" />
    <glyph glyph-name="t" unicode="t" horiz-adv-x="693" 
d="M542 161l15.999 -101c-69.333 -46.667 -144.666 -70 -225.999 -70c-142 0 -201.333 92.667 -178 278l77 631h-117l11 95h118l42 343l108 19l-44 -362h317l-11 -95h-317l-76 -618c-7.33301 -61.333 -4 -107.833 10 -139.5s43.667 -47.5 89 -47.5
c58.667 0 119 22.333 181 67z" />
    <glyph glyph-name="u" unicode="u" horiz-adv-x="1083" 
d="M879 994l106 -0.000976562l-121 -994h-107l28 232h-4c-48 -75.333 -105.167 -134.5 -171.5 -177.5s-136.166 -64.5 -209.499 -64.5c-104 0 -178.5 32.167 -223.5 96.5s-58.833 166.5 -41.5 306.5l74 601h107l-73 -594c-7.33301 -48.667 -9.16602 -90.667 -5.49902 -126
s9.83398 -64.833 18.501 -88.5s21.834 -42.5 39.501 -56.5s36.667 -23.833 57 -29.5s44.166 -8.5 71.499 -8.5c41.333 0 84.166 12.333 128.499 37s85.166 57.667 122.499 99s69.666 91.333 96.999 150s45.333 119.334 54 182.001z" />
    <glyph glyph-name="v" unicode="v" horiz-adv-x="1002" 
d="M395 -10c44.667 0 89.8291 8.33301 135.496 25s91.334 44 137.001 82s86.667 84.167 123 138.5s67.333 122.666 93 204.999s41.834 172.833 48.501 271.5c6 88.667 1 182.667 -15 282h-110c16.667 -110 21.334 -211.333 14.001 -304
c-6.66699 -89.333 -24.167 -172.666 -52.5 -249.999s-62.333 -140.833 -102 -190.5s-82.5 -88.5 -128.5 -116.5s-91 -42 -135 -42c-24.667 0 -46.334 3.16699 -65.001 9.5s-35.667 17.333 -51 33s-26.666 36.167 -33.999 61.5s-12.166 57.166 -14.499 95.499
s0.166992 83.5 7.5 135.5l71 568h-106l-72 -575c-18 -147.333 -5.5 -255.666 37.5 -324.999s115.833 -104 218.5 -104z" />
    <glyph glyph-name="w" unicode="w" horiz-adv-x="1416" 
d="M1332 994c18 -104 22.001 -206.668 12.001 -308.001c-8 -93.333 -23.5 -179.166 -46.5 -257.499s-50.333 -144 -82 -197s-67 -98 -106 -135s-78.167 -64 -117.5 -81s-78 -25.5 -116 -25.5c-125.333 0 -198.666 65.333 -219.999 196h-4
c-37.333 -63.333 -82.166 -111.833 -134.499 -145.5s-103.5 -50.5 -153.5 -50.5c-184.667 0 -260 138.667 -226 416l73 588h107l-73 -581c-6 -62 -7.33301 -113.667 -4 -155s12.333 -74.333 27 -99s31.5 -42.167 50.5 -52.5s41.167 -15.5 66.5 -15.5
c39.333 0 78.166 16 116.499 48s71.666 77.333 99.999 136s47.5 123.667 57.5 195l65 524h107l-73 -591c-24.667 -208 19.666 -312 132.999 -312c24 0 48.667 6.83301 74 20.5s50 33 74 58s47 56 69 93s41.833 77.5 59.5 121.5s32.5 93.167 44.5 147.5
s20.333 110.5 25 168.5c3.33301 63.333 3.83301 114 1.5 152s-7.83301 85.333 -16.5 142h110z" />
    <glyph glyph-name="x" unicode="x" horiz-adv-x="934" 
d="M926 994l-393 -495l273 -499h-126l-223 407h-4l-318 -407h-126l394 502l-272 492h125l217 -407h4l317 407h132z" />
    <glyph glyph-name="y" unicode="y" horiz-adv-x="1081" 
d="M879 994h106l-105 -863c-8 -62.667 -19.167 -119.667 -33.5 -171s-31 -95.666 -50 -132.999s-41 -70.166 -66 -98.499s-50.833 -51.5 -77.5 -69.5s-56 -32.667 -88 -44s-63.333 -19.166 -94 -23.499s-63.334 -6.5 -98.001 -6.5c-111.333 0 -217 28 -317 84l35 97
c93.333 -54 188 -81 284 -81c40 0 76.333 3.66699 109 11s65.5 21 98.5 41s61.5 46.5 85.5 79.5s45.5 76.833 64.5 131.5s32.833 118.667 41.5 192l13 105h-4c-48.667 -78 -106.667 -140 -174 -186s-138.333 -69 -213 -69c-104 0 -178.5 32.167 -223.5 96.5
s-58.833 166.5 -41.5 306.5l74 601h107l-73 -594c-7.33301 -48.667 -9.16602 -90.667 -5.49902 -126s9.83398 -64.833 18.501 -88.5s21.834 -42.5 39.501 -56.5s36.667 -23.833 57 -29.5s44.166 -8.5 71.499 -8.5c42.667 0 86.667 12.667 132 38
s86.833 59.166 124.5 101.499s70.167 93.166 97.5 152.499s44.666 120.666 51.999 183.999z" />
    <glyph glyph-name="z" unicode="z" horiz-adv-x="889" 
d="M841 913l-668.999 -813.997v-4c154.667 -0.666992 275.334 -4 362.001 -10s161.334 -19.667 224.001 -41l-29 -93c-32 10 -67.833 18.167 -107.5 24.5s-75.834 11.166 -108.501 14.499s-81.334 5.66602 -146.001 6.99902s-115.834 2.16602 -153.501 2.49902
s-103.167 0.5 -196.5 0.5l9 85l666 811v3h-539l11 95h687z" />
    <glyph glyph-name="braceleft" unicode="{" horiz-adv-x="625" 
d="M546 1488l83.002 -0.00195312l-10 -81h-50c-24.667 0 -47.334 -6.33301 -68.001 -19s-37.5 -30 -50.5 -52s-21.167 -46.667 -24.5 -74l-59 -481c-4.66699 -39.333 -11.334 -70.833 -20.001 -94.5s-21.834 -44 -39.501 -61s-41.167 -29.167 -70.5 -36.5v-4
c39.333 -10.667 64.833 -30.5 76.5 -59.5s13.5 -74.5 5.5 -136.5l-53 -433c-4.66699 -40 -4.16699 -72.333 1.5 -97s16.667 -42.5 33 -53.5s38.5 -16.5 66.5 -16.5h54l-10 -80h-79c-54 0 -97 18.833 -129 56.5s-44 87.834 -36 150.501l58 476c4 18.667 5.5 36.5 4.5 53.5
s-4.5 32.167 -10.5 45.5s-18.667 24.666 -38 33.999s-45.666 15.333 -78.999 18l7 89c27.333 2.66699 51 7.66699 71 15s35.5 15.5 46.5 24.5s19.833 20.833 26.5 35.5s11.167 27.334 13.5 38.001s4.5 25 6.5 43l62 496c7.33301 58.667 30 107.334 68 146.001
s85.667 58 143 58z" />
    <glyph glyph-name="bar" unicode="|" horiz-adv-x="581" 
d="M366 1509h96l-214 -1744h-96z" />
    <glyph glyph-name="braceright" unicode="}" horiz-adv-x="626" 
d="M424 784c-4 -18 -5.49902 -35.499 -4.49902 -52.499s4.33301 -32.167 10 -45.5s18.334 -24.833 38.001 -34.5s46.167 -16.167 79.5 -19.5l-7 -89c-27.333 -2 -50.833 -6.66699 -70.5 -14s-35 -15.333 -46 -24s-20 -20.334 -27 -35.001s-11.667 -27.667 -14 -39
s-4.5 -26 -6.5 -44l-59 -475c-8 -63.333 -31.833 -113 -71.5 -149s-86.834 -54 -141.501 -54h-83l10 80h50c44 0 77.833 13.667 101.5 41s38.834 71 45.501 131l54 433c8 62.667 20.833 107.834 38.5 135.501s48.5 47.167 92.5 58.5l1 2
c-40 11.333 -65.833 32.166 -77.5 62.499s-13.834 74.833 -6.50098 133.5l59 481c5.33301 42 -1.33398 75.833 -20.001 101.5s-47 38.5 -85 38.5h-55l10 81h80c58 0 102 -20.167 132 -60.5s41.333 -89.833 34 -148.5z" />
    <glyph glyph-name="asciitilde" unicode="~" horiz-adv-x="1072" 
d="M143 495c60 124 138 186.002 234 186.002c24 0 48.167 -3.66699 72.5 -11s41.5 -13.666 51.5 -18.999s26.667 -14.666 50 -27.999c3.33301 -2 9.83301 -6 19.5 -12s16.167 -10 19.5 -12s9.16602 -5.33301 17.499 -10s14.333 -7.83398 18 -9.50098
s9.16699 -4.33398 16.5 -8.00098s13.333 -6.16699 18 -7.5s10.167 -2.83301 16.5 -4.5s12.5 -2.83398 18.5 -3.50098s12 -1 18 -1c30 0 58.667 10.333 86 31s50 50 68 88l79 -34c-26.667 -60 -60.334 -106.333 -101.001 -139s-82.667 -49 -126 -49
c-11.333 0 -22.333 0.666992 -33 2s-21.167 3.66602 -31.5 6.99902s-19.166 6.33301 -26.499 9s-16.166 6.66699 -26.499 12s-17.833 9.5 -22.5 12.5s-12.167 7.5 -22.5 13.5s-16.833 10 -19.5 12c-33.333 20 -61.833 34.833 -85.5 44.5s-46.167 14.5 -67.5 14.5
c-64.667 0 -119 -39.667 -163 -119z" />
    <glyph glyph-name="exclamdown" unicode="&#xa1;" horiz-adv-x="462" 
d="M254 841c-15.333 0 -29.002 3.5 -41.002 10.5s-21.5 16.5 -28.5 28.5s-10.5 25.667 -10.5 41c0 24 7.83301 43.833 23.5 59.5s35.5 23.5 59.5 23.5c22.667 0 41.5 -7.66699 56.5 -23s22.5 -34.333 22.5 -57c0 -12 -2 -23.167 -6 -33.5s-9.66699 -19 -17 -26
s-16.166 -12.667 -26.499 -17s-21.166 -6.5 -32.499 -6.5zM265.998 595l-116 -1109h-120l156 1109h80z" />
    <glyph glyph-name="cent" unicode="&#xa2;" horiz-adv-x="1015" 
d="M512 202c66 0 124.498 11.333 175.498 34s97.167 58 138.5 106l83 -61c-44 -52.667 -92.5 -93.334 -145.5 -122.001s-113.833 -46.334 -182.5 -53.001l-28 -225h-90l27 221c-49.333 2 -95.666 12.667 -138.999 32s-81.333 45.833 -114 79.5s-58.5 76 -77.5 127
s-28.5 107.167 -28.5 168.5c0 78 11.333 152.333 34 223s54.334 133.334 95.001 188.001s91.667 99.334 153 134.001s128.666 54.667 201.999 60l29 236h90l-29 -236c58 -6 111.833 -22.5 161.5 -49.5s90.167 -63.5 121.5 -109.5l-87 -65c-28 42 -63.667 73.333 -107 94
s-89.333 31 -138 31c-62 0 -119.333 -13.333 -172 -40s-96.667 -62.667 -132 -108s-63 -98.333 -83 -159s-30 -125 -30 -193c0 -92.667 26.333 -168 79 -226s117.334 -87 194.001 -87z" />
    <glyph glyph-name="sterling" unicode="&#xa3;" horiz-adv-x="1053" 
d="M955 1138c-23.333 54.667 -54.832 96 -94.499 124s-85.167 42 -136.5 42c-37.333 0 -71.833 -6.66699 -103.5 -20s-60.834 -34 -87.501 -62s-49.167 -66 -67.5 -114s-31.5 -105 -39.5 -171l-14 -115h313l-10 -88h-313l-77 -628h620l-13 -106h-889l13 106h155l77 628h-122
l11 88h122l16 133c8 68 21.667 128.667 41 182s41.666 97 66.999 131s54.333 62.167 87 84.5s65.834 38 99.501 47s69.167 13.5 106.5 13.5c71.333 0 133.833 -17.833 187.5 -53.5s95.5 -85.5 125.5 -149.5z" />
    <glyph glyph-name="currency" unicode="&#xa4;" horiz-adv-x="948" 
d="M856 839c0 -55.333 -9.66699 -108.332 -29 -158.999s-47 -95.334 -83 -134.001l120 -152l-62 -56l-120 153c-64 -47.333 -138 -71 -222 -71c-84.667 0 -154 24 -208 72l-153 -152l-52 57l156 153c-30 50 -45 108 -45 174c0 118 35.667 219.667 107 305l-121 154l63 56
l119 -152c67.333 51.333 142.333 77 225 77c82 0 150.667 -25 206 -75l153 152l52 -56l-156 -155c33.333 -53.333 50 -117 50 -191zM244 734.001c0 -69.333 19.999 -124.666 59.999 -165.999s94.333 -62 163 -62c56 0 107.333 14.667 154 44s83.167 68.833 109.5 118.5
s39.5 104.167 39.5 163.5c0 75.333 -20.667 135.333 -62 180s-95.666 67 -162.999 67c-56 0 -107 -15.333 -153 -46s-82.167 -72.334 -108.5 -125.001s-39.5 -110.667 -39.5 -174z" />
    <glyph glyph-name="yen" unicode="&#xa5;" horiz-adv-x="1026" 
d="M1104 1407l-376 -580h205l-9 -78h-246l-92 -142l-2 -20h320l-10 -78h-320l-63 -509h-115l64 509h-330l10 78h329l3 20l-57 142h-255l10 78h214l-231 580h131l259 -686l428 686h133z" />
    <glyph glyph-name="brokenbar" unicode="&#xa6;" horiz-adv-x="582" 
d="M366 1509h97l-88 -719h-97zM242 491h97l-90 -725h-97z" />
    <glyph glyph-name="section" unicode="&#xa7;" horiz-adv-x="1008" 
d="M581 848c2.66699 -1.33301 6.33105 -2.99023 10.998 -4.99023c24 -10.667 42 -18.5 54 -23.5s28.333 -12.5 49 -22.5s36.334 -18.333 47.001 -25s24 -15.167 40 -25.5s28.167 -20 36.5 -29s17.666 -20 27.999 -33s17.833 -25.833 22.5 -38.5s8.83398 -27 12.501 -43
s5.5 -33 5.5 -51c0 -72.667 -19 -133.834 -57 -183.501s-90.667 -88.5 -158 -116.5c40 -26.667 70.667 -56.667 92 -90s32 -74 32 -122c0 -108 -35.5 -193.667 -106.5 -257s-164.167 -95 -279.5 -95c-76.667 0 -146.334 15.5 -209.001 46.5s-114 77.167 -154 138.5l74 76
c29.333 -52 70.166 -91.167 122.499 -117.5s107.833 -39.5 166.5 -39.5c80.667 0 145.667 20.667 195 62s74 99 74 173c0 16 -2.16699 31.167 -6.5 45.5s-9.66602 27.166 -15.999 38.499s-15.833 22.833 -28.5 34.5s-24.667 21.5 -36 29.5s-26.833 17.333 -46.5 28
s-36.834 19.667 -51.501 27s-34.667 16.666 -60 27.999c-28 12.667 -50.833 23.334 -68.5 32.001s-38.167 19.5 -61.5 32.5s-42.166 25 -56.499 36s-29.333 24 -45 39s-27.667 30.333 -36 46s-15.333 33.5 -21 53.5s-8.5 41.333 -8.5 64c0 67.333 18.667 126.666 56 177.999
s88.333 89.666 153 114.999c-73.333 53.333 -110 122.333 -110 207c0 50 9.5 96.5 28.5 139.5s44.667 79 77 108s70.333 51.667 114 68s89.834 24.5 138.501 24.5c64.667 0 126.834 -12.5 186.501 -37.5s107.5 -57.833 143.5 -98.5l-72 -76
c-21.333 24 -46.5 44.167 -75.5 60.5s-58.5 28.166 -88.5 35.499s-60.667 11 -92 11c-44.667 0 -85.334 -8.83301 -122.001 -26.5s-66.167 -43.834 -88.5 -78.501s-33.5 -74.334 -33.5 -119.001c0 -12.667 1.33301 -24.834 4 -36.501s5.83398 -22.334 9.50098 -32.001
s9.16699 -19.167 16.5 -28.5s14.5 -17.5 21.5 -24.5s16.333 -14.667 28 -23s22 -15.333 31 -21s21.167 -12.334 36.5 -20.001s28.333 -14 39 -19s25 -11.5 43 -19.5zM577.997 305.01c60 20 108.172 49.667 144.505 89s54.5 87.333 54.5 144
c0 15.333 -2.16699 29.833 -6.5 43.5s-9.33301 25.667 -15 36s-14.834 21 -27.501 32s-23.834 20 -33.501 27s-24.834 15.667 -45.501 26s-37.334 18.333 -50.001 24s-32.334 14.5 -59.001 26.5c-3.33301 1.33301 -5.66602 2.33301 -6.99902 3
c-40 17.333 -69.667 30.666 -89 39.999c-58 -13.333 -105.167 -40.666 -141.5 -81.999s-54.5 -88.333 -54.5 -141c0 -12 1.33301 -23.5 4 -34.5s5.66699 -20.833 9 -29.5s9.16602 -17.667 17.499 -27s15.5 -17.333 21.5 -24s15.667 -14.5 29 -23.5s24 -16 32 -21
s21.167 -12.167 39.5 -21.5s32.333 -16.5 42 -21.5s25.5 -12.833 47.5 -23.5z" />
    <glyph glyph-name="dieresis" unicode="&#xa8;" horiz-adv-x="954" 
d="M417 1349c22.667 0 41.667 -7.66699 57 -23s23 -34.333 23 -57c0 -23.333 -7.83301 -43 -23.5 -59s-35.5 -24 -59.5 -24c-22.667 0 -41.5 7.66699 -56.5 23s-22.5 34.333 -22.5 57c0 24 7.83301 43.833 23.5 59.5s35.167 23.5 58.5 23.5zM729 1349
c22.667 0 41.667 -7.5 57 -22.5s23 -34.167 23 -57.5s-7.83301 -43 -23.5 -59s-35.5 -24 -59.5 -24c-22.667 0 -41.5 7.5 -56.5 22.5s-22.5 34.167 -22.5 57.5c0 16 3.5 30.333 10.5 43s16.833 22.5 29.5 29.5s26.667 10.5 42 10.5z" />
    <glyph glyph-name="copyright" unicode="&#xa9;" horiz-adv-x="1413" 
d="M708 1259c82.667 0 161.332 -16.3262 235.999 -48.9932s138.5 -76.334 191.5 -131.001s95.167 -119.334 126.5 -194.001s47 -152.667 47 -234c0 -80.667 -15.667 -158.334 -47 -233.001s-73.833 -139.334 -127.5 -194.001s-118 -98.334 -193 -131.001
s-153.833 -49 -236.5 -49c-55.333 0 -109.166 7.33301 -161.499 22s-100.5 35.334 -144.5 62.001s-84.5 58.667 -121.5 96s-68.167 78.166 -93.5 122.499s-45.166 92.666 -59.499 144.999s-21.5 105.5 -21.5 159.5c0 81.333 15.833 159.166 47.5 233.499
s74.167 139 127.5 194s117.666 98.833 192.999 131.5s154.333 49 237 49zM1225 651.007c0 56.667 -8.49902 111.504 -25.499 164.504s-41.333 101 -73 144s-68.667 80.833 -111 113.5s-90 58 -143 76s-107.833 27 -164.5 27c-58 0 -113.667 -9 -167 -27
s-101.333 -43.333 -144 -76s-79.834 -70.667 -111.501 -114s-56.167 -91.5 -73.5 -144.5s-26 -107.833 -26 -164.5c0 -70.667 13.5 -138.167 40.5 -202.5s63.333 -120 109 -167s100.667 -84.333 165 -112s132.5 -41.5 204.5 -41.5c41.333 0 81.666 4.66699 120.999 14
s76 22.666 110 39.999s66 38.166 96 62.499s56.833 51.666 80.5 81.999s43.834 62.666 60.501 96.999s29.5 71 38.5 110s13.5 78.5 13.5 118.5zM722.999 391.011c82.667 0 148.998 32.333 198.998 97l59 -49c-65.333 -82.667 -151.333 -124 -258 -124
c-45.333 0 -87.833 7.33301 -127.5 22s-74.667 35.5 -105 62.5s-54.166 61.667 -71.499 104s-26 89.833 -26 142.5c0 63.333 12.333 120.166 37 170.499s62.334 90.833 113.001 121.5s110.667 46 180 46c32 0 62.833 -4.33301 92.5 -13s58.834 -22.667 87.501 -42
s54.667 -43.333 78 -72l-59 -49c-52.667 66 -119 99 -199 99c-78 0 -139 -24 -183 -72s-66 -111 -66 -189c0 -79.333 23.167 -141.666 69.5 -186.999s106.166 -68 179.499 -68z" />
    <glyph glyph-name="ordfeminine" unicode="&#xaa;" horiz-adv-x="764" 
d="M668 1407h84.999l-74 -595h-83l14 122h-3c-30.667 -40 -66.167 -71.333 -106.5 -94s-82.833 -34 -127.5 -34c-62 0 -112.333 21.333 -151 64s-58 101.667 -58 177c0 66 12.833 126.667 38.5 182s62.834 99.833 111.501 133.5s103.667 50.5 165 50.5
c36 0 69.667 -5.83301 101 -17.5s57.333 -27.5 78 -47.5h3zM386.999 889c58 0 111.499 25.6689 160.499 77.002s78.833 115.333 89.5 192l13 105c-12 21.333 -33.167 38.166 -63.5 50.499s-63.166 18.5 -98.499 18.5c-68.667 0 -125.334 -26.833 -170.001 -80.5
s-67 -120.834 -67 -201.501c0 -32.667 5.16699 -61.167 15.5 -85.5s25.833 -43 46.5 -56s45.334 -19.5 74.001 -19.5z" />
    <glyph glyph-name="guillemotleft" unicode="&#xab;" horiz-adv-x="845" 
d="M376 40h-103l-182 461l294 460h104l-290 -460zM686 40h-103l-182 461l294 460h104l-290 -460z" />
    <glyph glyph-name="logicalnot" unicode="&#xac;" horiz-adv-x="1094" 
d="M937 358h-99l39 319h-715l12 99h815z" />
    <glyph glyph-name="registered" unicode="&#xae;" horiz-adv-x="1416" 
d="M710 1261c66.667 0 130.832 -10.501 192.499 -31.501s117 -50.333 166 -88s91.833 -81.667 128.5 -132s65 -106.333 85 -168s30 -125.167 30 -190.5c0 -81.333 -15.833 -159.333 -47.5 -234s-74.167 -139.5 -127.5 -194.5s-117.666 -98.833 -192.999 -131.5
s-154.333 -49 -237 -49s-161.5 16.333 -236.5 49s-139.167 76.334 -192.5 131.001s-95.833 119.5 -127.5 194.5s-47.5 153.167 -47.5 234.5s15.833 159.5 47.5 234.5s74.334 140 128.001 195s118.167 98.833 193.5 131.5s154.666 49 237.999 49zM705.998 124.999
c72 0 140.333 14.167 205 42.5s120 66.166 166 113.499s82.5 103.333 109.5 168s40.5 132 40.5 202c0 56.667 -8.5 111.5 -25.5 164.5s-41.333 101.167 -73 144.5s-68.667 81.333 -111 114s-90 58 -143 76s-108.167 27 -165.5 27c-72 0 -140.5 -14.167 -205.5 -42.5
s-120.667 -66.166 -167 -113.499s-83 -103.333 -110 -168s-40.5 -132.334 -40.5 -203.001s13.5 -138.167 40.5 -202.5s63.5 -120.166 109.5 -167.499s101.167 -85 165.5 -113s132.5 -42 204.5 -42zM945.998 787.999c0 -56 -14.168 -100 -42.501 -132
s-68.166 -52.667 -119.499 -62l191 -270h-92l-184 264h-119v-264h-76v663h228c72 0 125.667 -18.167 161 -54.5s53 -84.5 53 -144.5zM579.997 914.999l-0.000976562 -256.001h133c54 0 93.167 12.167 117.5 36.5s36.5 55.5 36.5 93.5c0 38.667 -12.667 69.334 -38 92.001
s-59.666 34 -102.999 34h-146z" />
    <glyph glyph-name="macron" unicode="&#xaf;" horiz-adv-x="879" 
d="M282 1309h515l-13 -95h-515z" />
    <glyph glyph-name="degree" unicode="&#xb0;" horiz-adv-x="779" 
d="M506 1464c44 0 83.168 -9.5 117.501 -28.5s61.333 -46.667 81 -83s29.5 -78.5 29.5 -126.5c0 -54 -12.167 -104.167 -36.5 -150.5s-59.333 -84 -105 -113s-96.834 -43.5 -153.501 -43.5c-70 0 -125.167 20.333 -165.5 61s-60.5 94.667 -60.5 162
c0 58.667 12.5 112.5 37.5 161.5s60 88 105 117s95.167 43.5 150.5 43.5zM501.001 1383c-38.667 0 -73.834 -10.166 -105.501 -30.499s-56.334 -48.333 -74.001 -84s-26.5 -75.5 -26.5 -119.5c0 -46 13.333 -82.167 40 -108.5s63.334 -39.5 110.001 -39.5
c58.667 0 107.834 21.333 147.501 64s59.5 94.667 59.5 156c0 49.333 -13.667 88.666 -41 117.999s-64 44 -110 44z" />
    <glyph glyph-name="plusminus" unicode="&#xb1;" horiz-adv-x="1112" 
d="M1017 732h-377l-52 -425h-101l52 425h-379l12 100h379l53 426h101l-53 -426h377zM926 -2h-857l12 100h857z" />
    <glyph glyph-name="uni00B2" unicode="&#xb2;" horiz-adv-x="643" 
d="M267 986l-1 -5h364l-11 -88h-510l8 68l315 293c24.667 22.667 45.167 43 61.5 61s32.333 38 48 60s27.334 44.667 35.001 68s11.5 47.333 11.5 72c0 42.667 -11.333 76.5 -34 101.5s-55 37.5 -97 37.5c-34.667 0 -70.334 -10.667 -107.001 -32s-66 -51.666 -88 -90.999
l-68 56c28.667 47.333 67.5 85.333 116.5 114s100.833 43 155.5 43c64.667 0 117.167 -19.333 157.5 -58s60.5 -91.667 60.5 -159c0 -61.333 -14.833 -116.833 -44.5 -166.5s-73.5 -100.834 -131.5 -153.501z" />
    <glyph glyph-name="uni00B3" unicode="&#xb3;" horiz-adv-x="648" 
d="M552 1327c75.333 -32.667 113.001 -91.666 113.001 -176.999c0 -80.667 -27.333 -145.334 -82 -194.001s-123.334 -73 -206.001 -73c-68 0 -124.5 15.5 -169.5 46.5s-74.833 71.833 -89.5 122.5l89 32c20.667 -76.667 76.667 -115 168 -115c58 0 104.667 17.5 140 52.5
s53 80.167 53 135.5c0 38.667 -14 70.334 -42 95.001s-67 37 -117 37h-70l10 78h79c50 0 91.5 16.333 124.5 49s49.5 73 49.5 121c0 25.333 -5.66699 47 -17 65s-27.166 31.5 -47.499 40.5s-44.5 13.5 -72.5 13.5c-76 0 -134.333 -30.667 -175 -92l-76 49
c26.667 40 61.667 71.667 105 95s92.666 35 147.999 35c67.333 0 122 -16.833 164 -50.5s63 -80.834 63 -141.501c0 -51.333 -12.5 -96 -37.5 -134s-59.833 -66.667 -104.5 -86v-4z" />
    <glyph glyph-name="acute" unicode="&#xb4;" horiz-adv-x="955" 
d="M667 1398h127l-263 -283h-118z" />
    <glyph glyph-name="uni00B5" unicode="&#xb5;" horiz-adv-x="1122" 
d="M1022 99l20.0029 -83c-33.333 -17.333 -72.666 -26 -117.999 -26c-106.667 0 -158.667 63 -156 189h-4c-38.667 -60.667 -86.167 -107.334 -142.5 -140.001s-120.5 -49 -192.5 -49c-104 0 -174 48.667 -210 146l-2 -1c-2 -73.333 -7 -146.333 -15 -219l-41 -321h-106
l172 1399h107l-76 -622c-4.66699 -51.333 -2.83398 -95.833 5.49902 -133.5s21.666 -66.834 39.999 -87.501s38.666 -35.834 60.999 -45.501s47.166 -14.5 74.499 -14.5c39.333 0 78.166 8.33301 116.499 25s74.333 41 108 73s62.834 73.833 87.501 125.5
s42 109.834 52 174.501l63 505h106l-91 -733c-4 -35.333 -5.83301 -65.666 -5.5 -90.999s7.33301 -45.166 21 -59.499s35.5 -21.5 65.5 -21.5c18 0 38 3.33301 60 10z" />
    <glyph glyph-name="paragraph" unicode="&#xb6;" horiz-adv-x="841" 
d="M489 1312l249 -0.000976562l-198 -1617h-79l189 1536h-109l-152 -1231h-80l99 784c-34.667 0.666992 -66.5 5.83398 -95.5 15.501s-54.167 23.5 -75.5 41.5s-38 40.667 -50 68s-18 58 -18 92c0 56 12.5 107.333 37.5 154s62.167 84.5 111.5 113.5s106.333 43.5 171 43.5z
" />
    <glyph glyph-name="periodcentered" unicode="&#xb7;" horiz-adv-x="426" 
d="M237 569c22.667 0 41.667 -7.5 57 -22.5s23 -34.167 23 -57.5c0 -24 -7.83301 -43.833 -23.5 -59.5s-35.5 -23.5 -59.5 -23.5c-14.667 0 -28 3.5 -40 10.5s-21.5 16.5 -28.5 28.5s-10.5 25.667 -10.5 41c0 16 3.5 30.333 10.5 43s16.833 22.5 29.5 29.5
s26.667 10.5 42 10.5z" />
    <glyph glyph-name="cedilla" unicode="&#xb8;" horiz-adv-x="642" 
d="M233 -72c94.667 -6.66699 142.001 -49.001 142.001 -127.001c0 -50.667 -19.5 -93.667 -58.5 -129s-88.167 -53 -147.5 -53c-34.667 0 -65.334 5 -92.001 15l6 66c22 -9.33301 48.667 -14 80 -14c34 0 64.167 9.83301 90.5 29.5s39.5 47.834 39.5 84.501
c0 47.333 -47.333 72.333 -142 75l6 53l46 84h76l-48 -81z" />
    <glyph glyph-name="uni00B9" unicode="&#xb9;" horiz-adv-x="489" 
d="M425 1735h75l-104 -842h-94l88 718l-173 -123l-41 75z" />
    <glyph glyph-name="ordmasculine" unicode="&#xba;" horiz-adv-x="731" 
d="M478 1413c46.667 0 87.667 -8.83398 123 -26.501s63.5 -45 84.5 -82s31.5 -81.833 31.5 -134.5c0 -65.333 -12.167 -125.333 -36.5 -180s-60.5 -98.834 -108.5 -132.501s-103.333 -50.5 -166 -50.5c-74 0 -132.833 21.833 -176.5 65.5s-65.5 104.834 -65.5 183.501
c0 63.333 12.5 121.833 37.5 175.5s61.667 97.334 110 131.001s103.833 50.5 166.5 50.5zM473 1332c-62 0 -114.17 -26.001 -156.503 -78.001s-63.5 -115.333 -63.5 -190c0 -36 6.33301 -67.167 19 -93.5s30.834 -46.5 54.501 -60.5s51.834 -21 84.501 -21
c62 0 114.167 26.167 156.5 78.5s63.5 117.833 63.5 196.5c0 36.667 -6.83301 67.834 -20.5 93.501s-32.167 44.5 -55.5 56.5s-50.666 18 -81.999 18z" />
    <glyph glyph-name="guillemotright" unicode="&#xbb;" horiz-adv-x="847" 
d="M48 40l290 461l-178 460h104l182 -460l-294 -461h-104zM360 40l290 461l-178 460h104l182 -460l-294 -461h-104z" />
    <glyph glyph-name="onequarter" unicode="&#xbc;" horiz-adv-x="1399" 
d="M1026 1476l88 -40l-747 -1461l-88 39zM363 613h-94l88 718l-173 -123l-41 75l249 172h75zM1195 233h118l-11 -85h-118l-18 -148h-94l19 148h-369l8 67l465 627h75zM841 229h266l54 440z" />
    <glyph glyph-name="onehalf" unicode="&#xbd;" horiz-adv-x="1467" 
d="M1026 1476l88 -40l-747 -1461l-88 39zM363 613h-94l88 718l-173 -123l-41 75l249 172h75zM983 93l-1 -5h364l-11 -88h-510l8 68l315 293c50.667 47.333 89.334 90.833 116.001 130.5s40 83.167 40 130.5c0 42.667 -11.333 76.5 -34 101.5s-55 37.5 -97 37.5
c-34.667 0 -70.334 -10.667 -107.001 -32s-66 -51.666 -88 -90.999l-68 56c28.667 47.333 67.5 85.333 116.5 114s100.833 43 155.5 43c31.333 0 60.333 -5 87 -15s49.667 -24 69 -42s34.5 -40.833 45.5 -68.5s16.5 -58.167 16.5 -91.5
c0 -61.333 -14.833 -116.833 -44.5 -166.5s-73.5 -100.834 -131.5 -153.501z" />
    <glyph glyph-name="threequarters" unicode="&#xbe;" horiz-adv-x="1530" 
d="M1156 1476l88 -40l-747 -1461l-88 39zM631 870c0 -80.667 -27.334 -145.334 -82.001 -194.001s-123.334 -73 -206.001 -73c-68 0 -124.5 15.5 -169.5 46.5s-74.833 71.833 -89.5 122.5l89 32c20.667 -76.667 76.667 -115 168 -115c58 0 104.667 17.5 140 52.5
s53 80.167 53 135.5c0 38.667 -14 70.334 -42 95.001s-67 37 -117 37h-70l10 78h79c33.333 0 63.333 7.5 90 22.5s47.334 35.333 62.001 61s22 54.5 22 86.5c0 38.667 -12.167 68.167 -36.5 88.5s-57.833 30.5 -100.5 30.5c-76 0 -134.333 -30.667 -175 -92l-76 49
c26.667 40 61.667 71.667 105 95s92.666 35 147.999 35c44 0 82.833 -7.33301 116.5 -22s60.5 -36.667 80.5 -66s30 -64 30 -104c0 -34 -5.66699 -65.5 -17 -94.5s-27.666 -54 -48.999 -75s-46.666 -37.833 -75.999 -50.5v-4c75.333 -32.667 113 -91.667 113 -177zM1326 233
h118l-11 -85h-118l-18 -148h-94l19 148h-369l8 67l465 627h75zM971.999 229h266l54 440z" />
    <glyph glyph-name="questiondown" unicode="&#xbf;" horiz-adv-x="781" 
d="M501 840c-23.333 0 -42.5 7.5 -57.5 22.5s-22.5 34.167 -22.5 57.5c0 24 7.83301 43.833 23.5 59.5s35.5 23.5 59.5 23.5c22.667 0 41.5 -7.66699 56.5 -23s22.5 -34.333 22.5 -57c0 -16 -3.5 -30.333 -10.5 -43s-16.833 -22.5 -29.5 -29.5s-26.667 -10.5 -42 -10.5z
M605 -260c-34 -50 -75.0039 -88.501 -123.004 -115.501s-99 -40.5 -153 -40.5c-42 0 -78.5 8.16699 -109.5 24.5s-55.5 41.333 -73.5 75s-27 74.5 -27 122.5c0 36.667 4.33301 71.167 13 103.5s22.167 63.5 40.5 93.5s37.333 57.167 57 81.5s45.167 52.5 76.5 84.5
c6.66699 7.33301 20.334 21.833 41.001 43.5s34.667 36.5 42 44.5s18.833 21.333 34.5 40s27 33.667 34 45s15.167 25.5 24.5 42.5s16.5 33.667 21.5 50s8.5 33.5 10.5 51.5l13 114h-97l-18 -114c-3.33301 -21.333 -9.5 -42.166 -18.5 -62.499s-22.667 -41.833 -41 -64.5
s-34.5 -41.334 -48.5 -56.001s-35 -36 -63 -64l-21 -21c-34 -34 -62.5 -64.667 -85.5 -92s-45.833 -58.833 -68.5 -94.5s-39.667 -73.5 -51 -113.5s-17 -81.667 -17 -125c0 -97.333 28.167 -174.666 84.5 -231.999s129.833 -86 220.5 -86
c46.667 0 92.334 7.16699 137.001 21.5s87.334 36 128.001 65s76.334 64.167 107.001 105.5z" />
    <glyph glyph-name="Agrave" unicode="&#xc0;" horiz-adv-x="1256" 
d="M814 1630h-117l-195 283h126zM1012 0l-85 392h-622l-180 -392h-121l677 1455h123l326 -1455h-118zM352 496h553l-176 814h-4z" />
    <glyph glyph-name="Aacute" unicode="&#xc1;" horiz-adv-x="1256" 
d="M1117 1913l-263 -283h-118l254 283h127zM1012 0l-85 392h-622l-180 -392h-121l677 1455h123l326 -1455h-118zM352 496h553l-176 814h-4z" />
    <glyph glyph-name="Acircumflex" unicode="&#xc2;" horiz-adv-x="1256" 
d="M797 1843l-185 -216h-115l253 286h104l190 -286h-112l-131 216h-4zM1012 0l-85 392h-622l-180 -392h-121l677 1455h123l326 -1455h-118zM352 496h553l-176 814h-4z" />
    <glyph glyph-name="Atilde" unicode="&#xc3;" horiz-adv-x="1256" 
d="M668 1786c-52 0 -96 -40.334 -132 -121.001l-72 35c49.333 118.667 114.333 178 195 178c20 0 39.333 -3.66699 58 -11s32.5 -14.333 41.5 -21s22.167 -17.334 39.5 -32.001c2 -2 7.33301 -6.5 16 -13.5s14.334 -11.5 17.001 -13.5s7.66699 -5.83301 15 -11.5
s13.166 -9.5 17.499 -11.5s9.66602 -4.66699 15.999 -8s12.333 -5.5 18 -6.5s11.5 -1.5 17.5 -1.5c23.333 0 46.333 10.5 69 31.5s42 51.167 58 90.5l72 -30c-22.667 -60 -50.834 -105.667 -84.501 -137s-68.834 -47 -105.501 -47c-7.33301 0 -14.333 0.5 -21 1.5
s-13.5 2.66699 -20.5 5s-13 4.5 -18 6.5s-11 5.16699 -18 9.5s-12.333 7.5 -16 9.5s-9.16699 6 -16.5 12s-12.166 9.83301 -14.499 11.5s-7.16602 5.83398 -14.499 12.501s-11.666 10.334 -12.999 11.001c-42 34 -76.667 51 -104 51zM1012 -0.000976562l-85 392h-622
l-180 -392h-121l677 1455h123l326 -1455h-118zM352 495.999h553l-176 814h-4z" />
    <glyph glyph-name="Adieresis" unicode="&#xc4;" horiz-adv-x="1256" 
d="M632 1701c-22.667 0 -41.5 7.66699 -56.5 23s-22.5 34.333 -22.5 57c0 24 7.83301 43.833 23.5 59.5s35.167 23.5 58.5 23.5c22.667 0 41.667 -7.66699 57 -23s23 -34.333 23 -57c0 -23.333 -7.83301 -43 -23.5 -59s-35.5 -24 -59.5 -24zM944 1701
c-22.667 0 -41.5 7.5 -56.5 22.5s-22.5 34.167 -22.5 57.5c0 24 7.83301 43.833 23.5 59.5s35.167 23.5 58.5 23.5c22.667 0 41.667 -7.66699 57 -23s23 -34.333 23 -57c0 -23.333 -7.83301 -43 -23.5 -59s-35.5 -24 -59.5 -24zM1012 0l-85 392h-622l-180 -392h-121
l677 1455h123l326 -1455h-118zM352 496h553l-176 814h-4z" />
    <glyph glyph-name="Aring" unicode="&#xc5;" horiz-adv-x="1256" 
d="M784 1606c-48 0 -88.167 16.168 -120.5 48.501s-48.5 72.5 -48.5 120.5c0 49.333 16.667 90.333 50 123s75 49 125 49c32 0 61 -7.16699 87 -21.5s46.333 -34.333 61 -60s22 -54.167 22 -85.5c0 -24.667 -4.5 -47.834 -13.5 -69.501s-21.167 -40.167 -36.5 -55.5
s-34 -27.333 -56 -36s-45.333 -13 -70 -13zM789 1871c-28 0 -51.168 -9.00098 -69.501 -27.001s-27.5 -40.667 -27.5 -68s8.83301 -49.666 26.5 -66.999s39.834 -26 66.501 -26c28.667 0 52.167 9.16699 70.5 27.5s27.5 41.5 27.5 69.5c0 26 -8.83301 47.667 -26.5 65
s-40.167 26 -67.5 26zM1012 0l-85 392h-622l-180 -392h-121l677 1455h123l326 -1455h-118zM351.999 496h553l-176 814h-4z" />
    <glyph glyph-name="AE" unicode="&#xc6;" horiz-adv-x="1736" 
d="M1699 1349h-677l-70 -571h567l-12 -106h-568l-69 -566h712l-12 -106h-824l48 392h-468l-241 -392h-128l902 1455h852zM806 496l102 835h-3l-514 -835h415z" />
    <glyph glyph-name="Ccedilla" unicode="&#xc7;" horiz-adv-x="1390" 
d="M889 1356c-60 0 -117.666 -9.66992 -172.999 -29.0029s-105.333 -46.166 -150 -80.499s-85.5 -75.166 -122.5 -122.499s-67.833 -98.666 -92.5 -153.999s-43.834 -114.166 -57.501 -176.499s-20.5 -125.5 -20.5 -189.5c0 -156 39.833 -279.167 119.5 -369.5
s188.834 -135.5 327.501 -135.5c76 0 152.333 18 229 54s144 87 202 153l86 -73c-67.333 -74 -146.666 -133 -237.999 -177s-186 -66 -284 -66h-2l-35 -59l2 -3c94.667 -6.66699 142 -49 142 -127c0 -50.667 -19.5 -93.667 -58.5 -129s-88.167 -53 -147.5 -53
c-34.667 0 -65.334 5 -92.001 15l6 66c22 -9.33301 48.667 -14 80 -14c21.333 0 41.666 3.83301 60.999 11.5s35.666 20.5 48.999 38.5s20 39.333 20 64c0 47.333 -47.333 72.333 -142 75l6 53l34 63v3c-147.333 16.667 -264.666 78.5 -351.999 185.5
s-131 247.833 -131 422.5c0 90.667 11.5 179 34.5 265s56.333 165 100 237s95 135 154 189s127 96.167 204 126.5s157.833 45.5 242.5 45.5c204.667 0 371 -103.333 499 -310l-98 -66c-54 93.333 -113.5 161.166 -178.5 203.499s-139.5 63.5 -223.5 63.5z" />
    <glyph glyph-name="Egrave" unicode="&#xc8;" horiz-adv-x="1130" 
d="M717 1918l186 -283h-117l-195 283h126zM976 106l-12 -106h-826l178 1455h786l-12 -106h-673l-71 -570h559l-13 -106h-558l-70 -567h712z" />
    <glyph glyph-name="Eacute" unicode="&#xc9;" horiz-adv-x="1130" 
d="M844 1918h127l-263 -283h-118zM976 106l-12 -106h-826l178 1455h786l-12 -106h-673l-71 -570h559l-13 -106h-558l-70 -567h712z" />
    <glyph glyph-name="Ecircumflex" unicode="&#xca;" horiz-adv-x="1130" 
d="M774 1848l-185 -216h-115l253 286h104l190 -286h-112l-131 216h-4zM1090 1349h-673l-71 -570h559l-13 -106h-558l-70 -567h712l-12 -106h-826l178 1455h786z" />
    <glyph glyph-name="Edieresis" unicode="&#xcb;" horiz-adv-x="1130" 
d="M612 1869c22.667 0 41.667 -7.66699 57 -23s23 -34.333 23 -57c0 -23.333 -7.83301 -43 -23.5 -59s-35.5 -24 -59.5 -24c-22.667 0 -41.5 7.66699 -56.5 23s-22.5 34.333 -22.5 57c0 16 3.5 30.333 10.5 43s16.833 22.5 29.5 29.5s26.667 10.5 42 10.5zM924 1869
c22.667 0 41.667 -7.66699 57 -23s23 -34.333 23 -57c0 -23.333 -7.83301 -43 -23.5 -59s-35.5 -24 -59.5 -24c-22.667 0 -41.5 7.5 -56.5 22.5s-22.5 34.167 -22.5 57.5c0 24 7.83301 43.833 23.5 59.5s35.167 23.5 58.5 23.5zM976 106l-12 -106h-826l178 1455h786
l-12 -106h-673l-71 -570h559l-13 -106h-558l-70 -567h712z" />
    <glyph glyph-name="Igrave" unicode="&#xcc;" horiz-adv-x="536" 
d="M269 1913l186 -283h-117l-195 283h126zM265 0h-115l178 1455h114z" />
    <glyph glyph-name="Iacute" unicode="&#xcd;" horiz-adv-x="536" 
d="M624 1913h127l-263 -283h-118zM265 0h-115l178 1455h114z" />
    <glyph glyph-name="Icircumflex" unicode="&#xce;" horiz-adv-x="536" 
d="M492 1913l190 -286h-112l-131 216h-4l-185 -216h-115l253 286h104zM150 0l178 1455h114l-177 -1455h-115z" />
    <glyph glyph-name="Idieresis" unicode="&#xcf;" horiz-adv-x="536" 
d="M273 1864c23.333 0 42.5 -7.66699 57.5 -23s22.5 -34.333 22.5 -57c0 -23.333 -7.83301 -43 -23.5 -59s-35.5 -24 -59.5 -24c-11.333 0 -21.833 2 -31.5 6s-18 9.5 -25 16.5s-12.5 15.5 -16.5 25.5s-6 20.667 -6 32c0 24 7.83301 43.833 23.5 59.5s35.167 23.5 58.5 23.5
zM585 1864c23.333 0 42.5 -7.66699 57.5 -23s22.5 -34.333 22.5 -57c0 -23.333 -7.83301 -43 -23.5 -59s-35.5 -24 -59.5 -24c-22.667 0 -41.5 7.5 -56.5 22.5s-22.5 34.167 -22.5 57.5c0 24 7.83301 43.833 23.5 59.5s35.167 23.5 58.5 23.5zM265 0h-115l178 1455h114z" />
    <glyph glyph-name="Eth" unicode="&#xd0;" horiz-adv-x="1385" 
d="M706 1455c125.333 0 232.001 -24.1689 320.001 -72.502s154.167 -116.833 198.5 -205.5s66.5 -194.334 66.5 -317.001c0 -125.333 -18.667 -241.166 -56 -347.499s-89.333 -197.166 -156 -272.499s-148.334 -134.166 -245.001 -176.499s-202.667 -63.5 -318 -63.5h-376
l86 702h-118l13 105h118l79 648h388zM524.001 105.998c95.333 0 183.667 18.8311 265 56.498s150 89.834 206 156.501s99.667 146.334 131 239.001s47 192.667 47 300c0 154 -41 274.333 -123 361s-199.667 130 -353 130h-276l-67 -542h307l-13 -105h-307l-73 -596h256z" />
    <glyph glyph-name="Ntilde" unicode="&#xd1;" horiz-adv-x="1441" 
d="M764 1786c-52 0 -96.001 -40.332 -132.001 -120.999l-72 35c49.333 118.667 114.333 178 195 178c20 0 39.333 -3.66699 58 -11s32.5 -14.333 41.5 -21s22.167 -17.334 39.5 -32.001c2.66699 -2 7.33398 -5.83301 14.001 -11.5s11.5 -9.66699 14.5 -12
s7.66699 -5.83301 14 -10.5s11.333 -8.16699 15 -10.5s8.33398 -5.16602 14.001 -8.49902s10.667 -5.83301 15 -7.5s9.16602 -3 14.499 -4s10.666 -1.5 15.999 -1.5c23.333 0 46.333 10.5 69 31.5s42 51.167 58 90.5l72 -30c-22.667 -60 -50.834 -105.667 -84.501 -137
s-68.834 -47 -105.501 -47c-7.33301 0 -14.333 0.5 -21 1.5s-13.5 2.66699 -20.5 5s-13 4.5 -18 6.5s-11 5.16699 -18 9.5s-12.333 7.5 -16 9.5s-9.16699 6 -16.5 12s-12.166 9.83301 -14.499 11.5s-7.16602 5.66699 -14.499 12s-11.666 10.166 -12.999 11.499
c-42 34 -76.667 51 -104 51zM1244 1455h114l-177 -1455h-121l-651 1248h-4l-153 -1248h-114l178 1455h116l654 -1255h5z" />
    <glyph glyph-name="Ograve" unicode="&#xd2;" horiz-adv-x="1569" 
d="M817 1913l186 -283h-117l-195 283h126zM898 1464c85.333 0 163.164 -13.333 233.497 -40s130.5 -65.334 180.5 -116.001s88.833 -114.167 116.5 -190.5s41.5 -162.5 41.5 -258.5c0 -92.667 -11 -182.334 -33 -269.001s-54.5 -166.167 -97.5 -238.5
s-94.167 -135.5 -153.5 -189.5s-128.666 -96.167 -207.999 -126.5s-164 -45.5 -254 -45.5c-85.333 0 -163.166 13.667 -233.499 41s-130.333 66.666 -180 117.999s-88.167 115.166 -115.5 191.499s-41 161.833 -41 256.5c0 90.667 11.333 178.834 34 264.501
s55.834 164.834 99.501 237.501s95.334 136.334 155.001 191.001s128.667 97.334 207 128.001s161.166 46 248.499 46zM730.998 99c73.333 0 142.831 13.334 208.498 40.001s123.334 63.667 173.001 111s92.667 102.5 129 165.5s63.833 132.167 82.5 207.5s28 153 28 233
c0 80.667 -10.833 152.667 -32.5 216s-52.667 115.666 -93 156.999s-89 72.833 -146 94.5s-121.167 32.5 -192.5 32.5c-72 0 -140.5 -13.667 -205.5 -41s-122.167 -65 -171.5 -113s-92.166 -103.667 -128.499 -167s-63.833 -132.333 -82.5 -207s-28 -151 -28 -229
c0 -159.333 41 -282.5 123 -369.5s194 -130.5 336 -130.5z" />
    <glyph glyph-name="Oacute" unicode="&#xd3;" horiz-adv-x="1569" 
d="M1139 1913h127l-263 -283h-118zM898 1464c85.333 0 163.162 -13.335 233.495 -40.002s130.5 -65.334 180.5 -116.001s88.833 -114.167 116.5 -190.5s41.5 -162.5 41.5 -258.5c0 -66 -5.66699 -130.833 -17 -194.5s-28.166 -124.167 -50.499 -181.5
s-49.333 -111.166 -81 -161.499s-68.667 -95.833 -111 -136.5s-88.166 -75.5 -137.499 -104.5s-103.666 -51.333 -162.999 -67s-121.333 -23.5 -186 -23.5c-85.333 0 -163.166 13.667 -233.499 41s-130.333 66.666 -180 117.999s-88.167 115.166 -115.5 191.499
s-41 161.833 -41 256.5c0 90.667 11.333 178.834 34 264.501s55.834 164.834 99.501 237.501s95.334 136.334 155.001 191.001s128.667 97.334 207 128.001s161.166 46 248.499 46zM730.996 98.998c73.333 0 142.831 13.334 208.498 40.001s123.334 63.667 173.001 111
s92.667 102.5 129 165.5s63.833 132.167 82.5 207.5s28 153 28 233c0 80.667 -10.833 152.667 -32.5 216s-52.667 115.666 -93 156.999s-89 72.833 -146 94.5s-121.167 32.5 -192.5 32.5c-72 0 -140.5 -13.667 -205.5 -41s-122.167 -65 -171.5 -113
s-92.166 -103.667 -128.499 -167s-63.833 -132.333 -82.5 -207s-28 -151 -28 -229c0 -159.333 41 -282.5 123 -369.5s194 -130.5 336 -130.5z" />
    <glyph glyph-name="Ocircumflex" unicode="&#xd4;" horiz-adv-x="1569" 
d="M965 1843l-185 -216h-115l253 286h104l190 -286h-112l-131 216h-4zM898 1464c85.333 0 163.164 -13.333 233.497 -40s130.5 -65.334 180.5 -116.001s88.833 -114.167 116.5 -190.5s41.5 -162.5 41.5 -258.5c0 -92.667 -11 -182.334 -33 -269.001
s-54.5 -166.167 -97.5 -238.5s-94.167 -135.5 -153.5 -189.5s-128.666 -96.167 -207.999 -126.5s-164 -45.5 -254 -45.5c-85.333 0 -163.166 13.667 -233.499 41s-130.333 66.666 -180 117.999s-88.167 115.166 -115.5 191.499s-41 161.833 -41 256.5
c0 90.667 11.333 178.834 34 264.501s55.834 164.834 99.501 237.501s95.334 136.334 155.001 191.001s128.667 97.334 207 128.001s161.166 46 248.499 46zM730.998 99c73.333 0 142.831 13.334 208.498 40.001s123.334 63.667 173.001 111s92.667 102.5 129 165.5
s63.833 132.167 82.5 207.5s28 153 28 233c0 80.667 -10.833 152.667 -32.5 216s-52.667 115.666 -93 156.999s-89 72.833 -146 94.5s-121.167 32.5 -192.5 32.5c-72 0 -140.5 -13.667 -205.5 -41s-122.167 -65 -171.5 -113s-92.166 -103.667 -128.499 -167
s-63.833 -132.333 -82.5 -207s-28 -151 -28 -229c0 -159.333 41 -282.5 123 -369.5s194 -130.5 336 -130.5z" />
    <glyph glyph-name="Otilde" unicode="&#xd5;" horiz-adv-x="1569" 
d="M632 1700c49.333 118.667 114.332 177.998 194.999 177.998c15.333 0 29.5 -1.5 42.5 -4.5s25.833 -8.5 38.5 -16.5s22.167 -14.333 28.5 -19s16.166 -12.667 29.499 -24c2 -2 7.33301 -6.5 16 -13.5s14.334 -11.5 17.001 -13.5s7.66699 -5.83301 15 -11.5
s13.166 -9.5 17.499 -11.5s9.66602 -4.66699 15.999 -8s12.333 -5.5 18 -6.5s11.5 -1.5 17.5 -1.5c23.333 0 46.333 10.5 69 31.5s42 51.167 58 90.5l72 -30c-15.333 -40 -33.5 -74 -54.5 -102s-42.833 -48.667 -65.5 -62s-46 -20 -70 -20c-7.33301 0 -14.333 0.5 -21 1.5
s-13.5 2.66699 -20.5 5s-13 4.5 -18 6.5s-11 5.16699 -18 9.5s-12.333 7.5 -16 9.5s-9.16699 6 -16.5 12s-12.166 9.83301 -14.499 11.5s-7.16602 5.83398 -14.499 12.501s-11.666 10.334 -12.999 11.001c-42 34 -76.667 51 -104 51c-52 0 -96 -40.333 -132 -121z
M897.999 1464c85.333 0 163.164 -13.333 233.497 -40s130.5 -65.334 180.5 -116.001s88.833 -114.167 116.5 -190.5s41.5 -162.5 41.5 -258.5c0 -92.667 -11 -182.334 -33 -269.001s-54.5 -166.167 -97.5 -238.5s-94.167 -135.5 -153.5 -189.5
s-128.666 -96.167 -207.999 -126.5s-164 -45.5 -254 -45.5c-85.333 0 -163.166 13.667 -233.499 41s-130.333 66.666 -180 117.999s-88.167 115.166 -115.5 191.499s-41 161.833 -41 256.5c0 90.667 11.333 178.834 34 264.501s55.834 164.834 99.501 237.501
s95.334 136.334 155.001 191.001s128.667 97.334 207 128.001s161.166 46 248.499 46zM730.997 98.998c74 0 143.666 13.334 208.999 40.001s122.833 63.667 172.5 111s92.667 102.5 129 165.5s63.833 132.167 82.5 207.5s28 153 28 233c0 80.667 -10.833 152.667 -32.5 216
s-52.667 115.666 -93 156.999s-89 72.833 -146 94.5s-121.167 32.5 -192.5 32.5c-72 0 -140.5 -13.667 -205.5 -41s-122.167 -65 -171.5 -113s-92.166 -103.667 -128.499 -167s-63.833 -132.333 -82.5 -207s-28 -151 -28 -229c0 -159.333 41 -282.5 123 -369.5
s194 -130.5 336 -130.5z" />
    <glyph glyph-name="Odieresis" unicode="&#xd6;" horiz-adv-x="1569" 
d="M803 1864c22.667 0 41.667 -7.66699 57 -23s23 -34.333 23 -57c0 -23.333 -7.83301 -43 -23.5 -59s-35.5 -24 -59.5 -24c-11.333 0 -21.833 2 -31.5 6s-18 9.5 -25 16.5s-12.5 15.5 -16.5 25.5s-6 20.667 -6 32c0 24 7.83301 43.833 23.5 59.5s35.167 23.5 58.5 23.5z
M1115 1864c22.667 0 41.667 -7.66699 57 -23s23 -34.333 23 -57c0 -15.333 -3.5 -29.333 -10.5 -42s-16.833 -22.667 -29.5 -30s-27 -11 -43 -11c-22.667 0 -41.5 7.5 -56.5 22.5s-22.5 34.167 -22.5 57.5c0 24 7.83301 43.833 23.5 59.5s35.167 23.5 58.5 23.5zM898 1464
c85.333 0 163.162 -13.335 233.495 -40.002s130.5 -65.334 180.5 -116.001s88.833 -114.167 116.5 -190.5s41.5 -162.5 41.5 -258.5c0 -66 -5.66699 -130.833 -17 -194.5s-28.166 -124.167 -50.499 -181.5s-49.333 -111.166 -81 -161.499s-68.667 -95.833 -111 -136.5
s-88.166 -75.5 -137.499 -104.5s-103.666 -51.333 -162.999 -67s-121.333 -23.5 -186 -23.5c-85.333 0 -163.166 13.667 -233.499 41s-130.333 66.666 -180 117.999s-88.167 115.166 -115.5 191.499s-41 161.833 -41 256.5c0 90.667 11.333 178.834 34 264.501
s55.834 164.834 99.501 237.501s95.334 136.334 155.001 191.001s128.667 97.334 207 128.001s161.166 46 248.499 46zM730.996 98.998c73.333 0 142.831 13.334 208.498 40.001s123.334 63.667 173.001 111s92.667 102.5 129 165.5s63.833 132.167 82.5 207.5
s28 153 28 233c0 80.667 -10.833 152.667 -32.5 216s-52.667 115.666 -93 156.999s-89 72.833 -146 94.5s-121.167 32.5 -192.5 32.5c-72 0 -140.5 -13.667 -205.5 -41s-122.167 -65 -171.5 -113s-92.166 -103.667 -128.499 -167s-63.833 -132.333 -82.5 -207
s-28 -151 -28 -229c0 -159.333 41 -282.5 123 -369.5s194 -130.5 336 -130.5z" />
    <glyph glyph-name="multiply" unicode="&#xd7;" horiz-adv-x="969" 
d="M730 177l-246 318l-322 -318l-65 69l325 320l-246 319l78 71l244 -320l325 321l65 -70l-325 -322l245 -319z" />
    <glyph glyph-name="Oslash" unicode="&#xd8;" horiz-adv-x="1569" 
d="M1506 1417l-149.002 -164.003c75.333 -102 113 -233.333 113 -394c0 -92.667 -11 -182.334 -33 -269.001s-54.5 -166.167 -97.5 -238.5s-94.167 -135.5 -153.5 -189.5s-128.666 -96.167 -207.999 -126.5s-164 -45.5 -254 -45.5c-159.333 0 -289.333 45.667 -390 137
l-145 -160l-63 63l148 162c-80 104.667 -120 239.667 -120 405c0 90.667 11.333 178.834 34 264.501s55.834 164.834 99.501 237.501s95.334 136.334 155.001 191.001s128.667 97.334 207 128.001s161.166 46 248.499 46c166 0 300 -48.333 402 -145l144 158z
M271.998 598.997c0 -128.667 27.666 -234.667 82.999 -318l867 952c-80.667 82 -192 123 -334 123c-72 0 -140.5 -13.667 -205.5 -41s-122.167 -65 -171.5 -113s-92.166 -103.667 -128.499 -167s-63.833 -132.333 -82.5 -207s-28 -151 -28 -229zM1352 855.997
c0 123.333 -25.332 225.998 -75.999 307.998l-864 -952c80.667 -75.333 187 -113 319 -113c61.333 0 120.166 9.33301 176.499 28s107 44.834 152 78.501s86 74 123 121s67.833 98.5 92.5 154.5s43.667 115.833 57 179.5s20 128.834 20 195.501z" />
    <glyph glyph-name="Ugrave" unicode="&#xd9;" horiz-adv-x="1351" 
d="M685 1913l186 -283h-117l-195 283h126zM1184 580c-24 -198 -84.3291 -345.835 -180.996 -443.502s-227.334 -146.5 -392.001 -146.5c-72.667 0 -136.667 11.333 -192 34s-100.166 55.334 -134.499 98.001s-60 93 -77 151s-25.5 123.667 -25.5 197
c0 37.333 2.66699 79 8 125l106 860h114l-106 -862c-6 -42.667 -9 -82 -9 -118c0 -57.333 6.16699 -108.666 18.5 -153.999s31.166 -84.666 56.499 -117.999s58.666 -59 99.999 -77s89.666 -27 144.999 -27c127.333 0 230.166 39.667 308.499 119
s127.5 200.666 147.5 363.999l106 873h114z" />
    <glyph glyph-name="Uacute" unicode="&#xda;" horiz-adv-x="1351" 
d="M988 1913h127l-263 -283h-118zM1184 580c-24 -198 -84.3291 -345.835 -180.996 -443.502s-227.334 -146.5 -392.001 -146.5c-72.667 0 -136.667 11.333 -192 34s-100.166 55.334 -134.499 98.001s-60 93 -77 151s-25.5 123.667 -25.5 197c0 37.333 2.66699 79 8 125
l106 860h114l-106 -862c-6 -42.667 -9 -82 -9 -118c0 -57.333 6.16699 -108.666 18.5 -153.999s31.166 -84.666 56.499 -117.999s58.666 -59 99.999 -77s89.666 -27 144.999 -27c127.333 0 230.166 39.667 308.499 119s127.5 200.666 147.5 363.999l106 873h114z" />
    <glyph glyph-name="Ucircumflex" unicode="&#xdb;" horiz-adv-x="1351" 
d="M846 1843l-185 -216h-115l253 286h104l190 -286h-112l-131 216h-4zM1177 1455l114.004 -0.00195312l-107 -875c-24 -198 -84.333 -345.833 -181 -443.5s-227.334 -146.5 -392.001 -146.5c-72.667 0 -136.667 11.333 -192 34s-100.166 55.334 -134.499 98.001
s-60 93 -77 151s-25.5 123.667 -25.5 197c0 37.333 2.66699 79 8 125l106 860h114l-106 -862c-6 -42.667 -9 -82 -9 -118c0 -57.333 6.16699 -108.666 18.5 -153.999s31.166 -84.666 56.499 -117.999s58.666 -59 99.999 -77s89.666 -27 144.999 -27
c127.333 0 230.166 39.667 308.499 119s127.5 200.666 147.5 363.999z" />
    <glyph glyph-name="Udieresis" unicode="&#xdc;" horiz-adv-x="1351" 
d="M684 1864c22.667 0 41.667 -7.66699 57 -23s23 -34.333 23 -57c0 -23.333 -7.83301 -43 -23.5 -59s-35.5 -24 -59.5 -24c-22.667 0 -41.5 7.66699 -56.5 23s-22.5 34.333 -22.5 57c0 24 7.83301 43.833 23.5 59.5s35.167 23.5 58.5 23.5zM996 1864
c22.667 0 41.667 -7.66699 57 -23s23 -34.333 23 -57c0 -23.333 -7.83301 -43 -23.5 -59s-35.5 -24 -59.5 -24c-22.667 0 -41.5 7.5 -56.5 22.5s-22.5 34.167 -22.5 57.5c0 24 7.83301 43.833 23.5 59.5s35.167 23.5 58.5 23.5zM1184 580
c-24 -198 -84.3291 -345.835 -180.996 -443.502s-227.334 -146.5 -392.001 -146.5c-72.667 0 -136.667 11.333 -192 34s-100.166 55.334 -134.499 98.001s-60 93 -77 151s-25.5 123.667 -25.5 197c0 37.333 2.66699 79 8 125l106 860h114l-106 -862
c-6 -42.667 -9 -82 -9 -118c0 -57.333 6.16699 -108.666 18.5 -153.999s31.166 -84.666 56.499 -117.999s58.666 -59 99.999 -77s89.666 -27 144.999 -27c127.333 0 230.166 39.667 308.499 119s127.5 200.666 147.5 363.999l106 873h114z" />
    <glyph glyph-name="Yacute" unicode="&#xdd;" horiz-adv-x="1102" 
d="M999 1913l-263 -283h-118l254 283h127zM1044 1455h135l-551 -799l-81 -656h-114l81 656l-353 799h125l293 -685h4z" />
    <glyph glyph-name="Thorn" unicode="&#xde;" horiz-adv-x="1196" 
d="M288 286l-36 -286.002h-114l178 1455h114l-36 -303h364c123.333 0 216.5 -31.167 279.5 -93.5s94.5 -150.166 94.5 -263.499c0 -101.333 -19.833 -190.166 -59.5 -266.499s-98.5 -135.833 -176.5 -178.5s-170.667 -64 -278 -64h-330zM632 391.998
c118.667 0 212 36.667 280 110s102 171.333 102 294c0 84 -24.833 146.667 -74.5 188s-116.167 62 -199.5 62h-359l-81 -654h332z" />
    <glyph glyph-name="germandbls" unicode="&#xdf;" horiz-adv-x="1201" 
d="M1130 277c0 -60.667 -15.1611 -113.003 -45.4941 -157.003s-70.666 -76.667 -120.999 -98s-107.833 -32 -172.5 -32c-149.333 0 -265 50 -347 150l73 74c16.667 -19.333 32.834 -35.833 48.501 -49.5s34.334 -26.667 56.001 -39s46.5 -21.666 74.5 -27.999
s59.333 -9.5 94 -9.5c69.333 0 125.166 16.833 167.499 50.5s63.5 78.167 63.5 133.5c0 16.667 -1.83301 31.834 -5.5 45.501s-10.5 26.834 -20.5 39.501s-19.833 23.834 -29.5 33.501s-24.167 20.5 -43.5 32.5s-35.666 22 -48.999 30s-33.333 19 -60 33
c-27.333 14.667 -49.5 27 -66.5 37s-36.167 22.167 -57.5 36.5s-38.333 28.166 -51 41.499s-24.667 28.333 -36 45s-19.333 34.834 -24 54.501s-6.33398 40.834 -5.00098 63.501c0.666992 17.333 3.5 33.833 8.5 49.5s10.5 29.667 16.5 42s14.667 25.166 26 38.499
s21.5 24.333 30.5 33s21.5 19 37.5 31s28.667 21.167 38 27.5s23.166 15.5 41.499 27.5s31.5 20.667 39.5 26c49.333 33.333 86.833 65.333 112.5 96s38.5 67.334 38.5 110.001c0 52.667 -23.5 94.667 -70.5 126s-111.833 47 -194.5 47c-30 0 -59.167 -3 -87.5 -9
s-56.833 -16.5 -85.5 -31.5s-54.334 -33.833 -77.001 -56.5s-42.167 -51.834 -58.5 -87.501s-27.166 -75.834 -32.499 -120.501l-136 -1113h-107l138 1131c6.66699 52.667 19.667 100.667 39 144s43.166 79.833 71.499 109.5s60.666 54.667 96.999 75
s74.333 35.166 114 44.499s80.5 14 122.5 14c116 0 207.5 -24 274.5 -72s100.5 -112.667 100.5 -194c0 -34.667 -5.33301 -66.667 -16 -96s-26.834 -56.166 -48.501 -80.499s-43.5 -45.166 -65.5 -62.499s-50 -37.333 -84 -60
c-5.33301 -3.33301 -14.666 -9.33301 -27.999 -18s-22.833 -15 -28.5 -19s-14.167 -9.83301 -25.5 -17.5s-19.666 -14 -24.999 -19s-12.166 -11.167 -20.499 -18.5s-14.5 -14 -18.5 -20s-8.5 -12.833 -13.5 -20.5s-8.5 -15.334 -10.5 -23.001s-3.33301 -15.834 -4 -24.501
c-0.666992 -12.667 0.166016 -24.667 2.49902 -36s5.66602 -21.666 9.99902 -30.999s11.166 -18.833 20.499 -28.5s18.166 -18.167 26.499 -25.5s20 -15.666 35 -24.999s28.167 -17.333 39.5 -24s26.666 -15.334 45.999 -26.001c2 -1.33301 5.33301 -3 10 -5
c20.667 -12 36.167 -20.833 46.5 -26.5s24.666 -14 42.999 -25s32.166 -20 41.499 -27s21 -16.167 35 -27.5s24.667 -21.5 32 -30.5s15.5 -19.833 24.5 -32.5s15.667 -25.167 20 -37.5s8 -26 11 -41s4.5 -30.833 4.5 -47.5z" />
    <glyph glyph-name="agrave" unicode="&#xe0;" horiz-adv-x="1122" 
d="M765 1145h-117l-195 283h126zM923 994l106 0.000976562l-121 -994h-107l32 258h-4c-46 -80.667 -102.667 -145.5 -170 -194.5s-140 -73.5 -218 -73.5c-72.667 0 -135.167 17.833 -187.5 53.5s-91.166 83.167 -116.499 142.5s-38 126.666 -38 201.999
c0 81.333 12.167 159.333 36.5 234s58 140.167 101 196.5s96.667 101.333 161 135s133.833 50.5 208.5 50.5c59.333 0 115.666 -9.83301 168.999 -29.5s97 -48.167 131 -85.5h4zM457 88.001c26 0 51.668 3.83398 77.001 11.501s49.5 18.334 72.5 32.001s45.333 30.5 67 50.5
s41.667 42.167 60 66.5s35.5 50.833 51.5 79.5s30 58.667 42 90s22.333 64.166 31 98.499s15 69.166 19 104.499v-1l20 159c-22.667 29.333 -52.334 53.833 -89.001 73.5s-71.334 33 -104.001 40s-64 10.5 -94 10.5c-60 0 -115.5 -14.167 -166.5 -42.5
s-93.5 -66.5 -127.5 -114.5s-60.5 -103.167 -79.5 -165.5s-28.5 -127.5 -28.5 -195.5c0 -58 9.33301 -109.167 28 -153.5s46.834 -79.333 84.501 -105s83.167 -38.5 136.5 -38.5z" />
    <glyph glyph-name="aacute" unicode="&#xe1;" horiz-adv-x="1122" 
d="M1009 1428l-263 -283h-118l254 283h127zM923 994l106 0.000976562l-121 -994h-107l32 258h-4c-46 -80.667 -102.667 -145.5 -170 -194.5s-140 -73.5 -218 -73.5c-72.667 0 -135.167 17.833 -187.5 53.5s-91.166 83.167 -116.499 142.5s-38 126.666 -38 201.999
c0 81.333 12.167 159.333 36.5 234s58 140.167 101 196.5s96.667 101.333 161 135s133.833 50.5 208.5 50.5c59.333 0 115.666 -9.83301 168.999 -29.5s97 -48.167 131 -85.5h4zM457 88.001c26 0 51.668 3.83398 77.001 11.501s49.5 18.334 72.5 32.001s45.333 30.5 67 50.5
s41.667 42.167 60 66.5s35.5 50.833 51.5 79.5s30 58.667 42 90s22.333 64.166 31 98.499s15 69.166 19 104.499v-1l20 159c-22.667 29.333 -52.334 53.833 -89.001 73.5s-71.334 33 -104.001 40s-64 10.5 -94 10.5c-60 0 -115.5 -14.167 -166.5 -42.5
s-93.5 -66.5 -127.5 -114.5s-60.5 -103.167 -79.5 -165.5s-28.5 -127.5 -28.5 -195.5c0 -58 9.33301 -109.167 28 -153.5s46.834 -79.333 84.501 -105s83.167 -38.5 136.5 -38.5z" />
    <glyph glyph-name="acircumflex" unicode="&#xe2;" horiz-adv-x="1122" 
d="M721 1358l-185 -216h-115l253 286h104l190 -286h-112l-131 216h-4zM923 994l105.996 -0.000976562l-121 -994h-107l32 258h-4c-46 -80.667 -102.667 -145.5 -170 -194.5s-140 -73.5 -218 -73.5c-72.667 0 -135.167 17.833 -187.5 53.5s-91.166 83.167 -116.499 142.5
s-38 126.666 -38 201.999c0 81.333 12.167 159.333 36.5 234s58 140.167 101 196.5s96.667 101.333 161 135s133.833 50.5 208.5 50.5c38.667 0 76.334 -4.16699 113.001 -12.5s71.334 -21.166 104.001 -38.499s60.334 -38.666 83.001 -63.999h4zM456.996 87.999
c26 0 51.668 3.83398 77.001 11.501s49.5 18.334 72.5 32.001s45.333 30.5 67 50.5s41.667 42.167 60 66.5s35.5 50.833 51.5 79.5s30 58.667 42 90s22.333 64.166 31 98.499s15 69.166 19 104.499v-1l20 159c-22.667 29.333 -52.334 53.833 -89.001 73.5
s-71.334 33 -104.001 40s-64 10.5 -94 10.5c-60 0 -115.5 -14.167 -166.5 -42.5s-93.5 -66.5 -127.5 -114.5s-60.5 -103.167 -79.5 -165.5s-28.5 -127.5 -28.5 -195.5c0 -58 9.33301 -109.167 28 -153.5s46.834 -79.333 84.501 -105s83.167 -38.5 136.5 -38.5z" />
    <glyph glyph-name="atilde" unicode="&#xe3;" horiz-adv-x="1122" 
d="M592 1301c-52 0 -96.001 -40.334 -132.001 -121.001l-72 35c49.333 118.667 114.333 178 195 178c20 0 39.333 -3.66699 58 -11s32.5 -14.333 41.5 -21s22.167 -17.334 39.5 -32.001c2.66699 -2 6.33398 -5 11.001 -9s8.5 -7.16699 11.5 -9.5s6.83301 -5.33301 11.5 -9
s8.5 -6.66699 11.5 -9s6.83301 -5 11.5 -8s8.66699 -5.5 12 -7.5s7.16602 -4 11.499 -6s8.33301 -3.5 12 -4.5s7.66699 -1.83301 12 -2.5s8.5 -1 12.5 -1c23.333 0 46.333 10.5 69 31.5s42 51.167 58 90.5l72 -30c-22.667 -60 -50.834 -105.667 -84.501 -137
s-68.834 -47 -105.501 -47c-7.33301 0 -14.333 0.5 -21 1.5s-13.5 2.66699 -20.5 5s-13 4.5 -18 6.5s-11 5.16699 -18 9.5s-12.333 7.5 -16 9.5s-9.16699 6 -16.5 12s-12.166 9.83301 -14.499 11.5s-7.16602 5.83398 -14.499 12.501s-11.666 10.334 -12.999 11.001
c-42 34 -76.667 51 -104 51zM909.999 888.999l13 105.001h106l-121 -994h-107l32 258h-4c-46 -80.667 -102.667 -145.5 -170 -194.5s-140 -73.5 -218 -73.5c-72.667 0 -135.167 17.833 -187.5 53.5s-91.166 83.167 -116.499 142.5s-38 126.666 -38 201.999
c0 81.333 12.167 159.333 36.5 234s58 140.167 101 196.5s96.667 101.333 161 135s133.833 50.5 208.5 50.5c59.333 0 115.666 -9.83301 168.999 -29.5s97 -48.167 131 -85.5h4zM456.999 88c68.667 0 133.337 24.832 194.004 74.499s110.667 114.834 150 195.501
s64.666 168.334 75.999 263.001v-1l20 159c-22.667 29.333 -52.334 53.833 -89.001 73.5s-71.334 33 -104.001 40s-64 10.5 -94 10.5c-60 0 -115.5 -14.167 -166.5 -42.5s-93.5 -66.5 -127.5 -114.5s-60.5 -103.167 -79.5 -165.5s-28.5 -127.5 -28.5 -195.5
c0 -88.667 21.667 -160.334 65 -215.001s104.666 -82 183.999 -82z" />
    <glyph glyph-name="adieresis" unicode="&#xe4;" horiz-adv-x="1122" 
d="M556 1216c-22.667 0 -41.5 7.66699 -56.5 23s-22.5 34.333 -22.5 57c0 24 7.83301 43.833 23.5 59.5s35.167 23.5 58.5 23.5c22.667 0 41.667 -7.66699 57 -23s23 -34.333 23 -57c0 -23.333 -7.83301 -43 -23.5 -59s-35.5 -24 -59.5 -24zM868 1216
c-15.333 0 -29 3.5 -41 10.5s-21.333 16.5 -28 28.5s-10 25.667 -10 41c0 16 3.5 30.333 10.5 43s16.833 22.5 29.5 29.5s26.667 10.5 42 10.5c22.667 0 41.667 -7.66699 57 -23s23 -34.333 23 -57c0 -23.333 -7.83301 -43 -23.5 -59s-35.5 -24 -59.5 -24zM923 994
l106 0.000976562l-121 -994h-107l32 258h-4c-46 -80.667 -102.667 -145.5 -170 -194.5s-140 -73.5 -218 -73.5c-72.667 0 -135.167 17.833 -187.5 53.5s-91.166 83.167 -116.499 142.5s-38 126.666 -38 201.999c0 81.333 12.167 159.333 36.5 234s58 140.167 101 196.5
s96.667 101.333 161 135s133.833 50.5 208.5 50.5c59.333 0 115.666 -9.83301 168.999 -29.5s97 -48.167 131 -85.5h4zM457 88.001c51.333 0 101.17 14.5 149.503 43.5s90.666 67.833 126.999 116.5s67.166 105.5 92.499 170.5s42.333 132.5 51 202.5v-1l20 159
c-22.667 29.333 -52.334 53.833 -89.001 73.5s-71.334 33 -104.001 40s-64 10.5 -94 10.5c-60 0 -115.5 -14.167 -166.5 -42.5s-93.5 -66.5 -127.5 -114.5s-60.5 -103.167 -79.5 -165.5s-28.5 -127.5 -28.5 -195.5c0 -58 9.33301 -109.167 28 -153.5
s46.834 -79.333 84.501 -105s83.167 -38.5 136.5 -38.5z" />
    <glyph glyph-name="aring" unicode="&#xe5;" horiz-adv-x="1122" 
d="M708 1121c-31.333 0 -60 7.33301 -86 22s-46.333 35 -61 61s-22 54.667 -22 86c0 49.333 16.667 90.333 50 123s75 49 125 49c48.667 0 89.167 -15.833 121.5 -47.5s48.5 -71.5 48.5 -119.5c0 -50 -16.667 -91.5 -50 -124.5s-75.333 -49.5 -126 -49.5zM713 1386
c-14 0 -26.999 -2.33398 -38.999 -7.00098s-22.167 -11.167 -30.5 -19.5s-15 -18.5 -20 -30.5s-7.5 -24.667 -7.5 -38c0 -27.333 8.66699 -49.666 26 -66.999s39.666 -26 66.999 -26c28.667 0 52.167 9.16699 70.5 27.5s27.5 41.5 27.5 69.5c0 17.333 -4 32.833 -12 46.5
s-19.167 24.5 -33.5 32.5s-30.5 12 -48.5 12zM923.001 993.999l106 0.000976562l-121 -994h-107l32 258h-4c-46 -80.667 -102.667 -145.5 -170 -194.5s-140 -73.5 -218 -73.5c-72.667 0 -135.167 17.833 -187.5 53.5s-91.166 83.167 -116.499 142.5s-38 126.666 -38 201.999
c0 81.333 12.167 159.333 36.5 234s58 140.167 101 196.5s96.667 101.333 161 135s133.833 50.5 208.5 50.5c59.333 0 115.666 -9.83301 168.999 -29.5s97 -48.167 131 -85.5h4zM457.001 88c51.333 0 101.172 14.499 149.505 43.499s90.666 67.833 126.999 116.5
s67.166 105.334 92.499 170.001s42.333 132.334 51 203.001v-1l20 159c-22.667 29.333 -52.334 53.833 -89.001 73.5s-71.334 33 -104.001 40s-64 10.5 -94 10.5c-60 0 -115.5 -14.167 -166.5 -42.5s-93.5 -66.5 -127.5 -114.5s-60.5 -103.167 -79.5 -165.5
s-28.5 -127.5 -28.5 -195.5c0 -88.667 21.667 -160.334 65 -215.001s104.666 -82 183.999 -82z" />
    <glyph glyph-name="ae" unicode="&#xe6;" horiz-adv-x="1367" 
d="M954 91c39.333 0 82.168 11.999 128.501 35.999s86.833 58.667 121.5 104l85 -62c-43.333 -55.333 -95.166 -98.833 -155.499 -130.5s-120.833 -47.5 -181.5 -47.5c-80.667 0 -150.334 20.5 -209.001 61.5s-100.667 98.833 -126 173.5h-5
c-36 -71.333 -79.167 -128.166 -129.5 -170.499s-107.833 -64.166 -172.5 -65.499c-70.667 -1.33301 -128.834 25 -174.501 79s-68.5 127 -68.5 219c0 94.667 16 183.667 48 267s76.167 155.5 132.5 216.5s125.333 109.167 207 144.5s169.834 53 264.501 53
c52 0 101 -7 147 -21c65.333 37.333 137.666 56 216.999 56c76.667 0 138.834 -20 186.501 -60s71.5 -93.667 71.5 -161c0 -46.667 -11.5 -90.5 -34.5 -131.5s-54 -77.333 -93 -109s-86.167 -61 -141.5 -88s-113.333 -49.833 -174 -68.5s-126 -35.334 -196 -50.001
c6.66699 -51.333 21.667 -95.5 45 -132.5s52.666 -65 87.999 -84s75 -28.5 119 -28.5zM1232 773.999c0 23.333 -4.99805 43.666 -14.998 60.999s-23 30.833 -39 40.5s-32.667 16.667 -50 21s-35.333 6.5 -54 6.5c-70 0 -133.167 -20.833 -189.5 -62.5
s-100.833 -98.834 -133.5 -171.501s-50.334 -153.667 -53.001 -243c73.333 16.667 140.666 35.834 201.999 57.501s117.5 46.834 168.5 75.501s91 61.5 120 98.5s43.5 75.833 43.5 116.5zM321.004 89.999c55.333 0 106.335 29.6689 153.002 89.002s85 136 115 230
c1.33301 90.667 16.666 175.667 45.999 255s70.333 146.333 123 201l-1 3c-10.667 0.666992 -28.334 1 -53.001 1c-77.333 0 -149.333 -15.333 -216 -46s-122.667 -72 -168 -124s-80.833 -113.333 -106.5 -184s-38.167 -145.334 -37.5 -224.001
c0.666992 -37.333 6.16699 -70.833 16.5 -100.5s26.5 -53.834 48.5 -72.501s48.667 -28 80 -28z" />
    <glyph glyph-name="ccedilla" unicode="&#xe7;" horiz-adv-x="998" 
d="M482 91c127.333 0 231.005 46.666 311.005 139.999l83 -62c-32.667 -38 -67.334 -69.5 -104.001 -94.5s-77.334 -44.5 -122.001 -58.5s-93.667 -22 -147 -24l-36 -61l2 -3c94.667 -6.66699 142 -49 142 -127c0 -50.667 -19.5 -93.667 -58.5 -129s-88.167 -53 -147.5 -53
c-34.667 0 -65.334 5 -92.001 15l6 66c22 -9.33301 48.667 -14 80 -14c34 0 64.167 10 90.5 30s39.5 48 39.5 84c0 47.333 -47.333 72.333 -142 75l6 53l35 63l-1 3c-26 3.33301 -51.167 8.83301 -75.5 16.5s-47.5 17.834 -69.5 30.501s-42.333 27.5 -61 44.5
s-35.667 36.5 -51 58.5s-28.333 46 -39 72s-18.834 54.667 -24.501 86s-8.5 64.333 -8.5 99c0 81.333 12.167 158.333 36.5 231s58.5 136.667 102.5 192s99.167 99.166 165.5 131.499s139.166 48.5 218.499 48.5c68.667 0 132.667 -13.667 192 -41
s106.666 -67.666 141.999 -120.999l-87 -64c-18.667 28 -41.334 51.5 -68.001 70.5s-55.167 32.833 -85.5 41.5s-62.166 13 -95.499 13c-62 0 -119.167 -13.333 -171.5 -40s-96 -62.5 -131 -107.5s-62.167 -97.667 -81.5 -158s-29 -123.833 -29 -190.5
c0 -96 26.333 -172.667 79 -230s118.334 -86 197.001 -86z" />
    <glyph glyph-name="egrave" unicode="&#xe8;" horiz-adv-x="968" 
d="M729 1145h-117l-195 283h126zM491 91c106.667 0 201.667 46.6611 285 139.994l84 -62c-34.667 -38.667 -70 -70.834 -106 -96.501s-76.333 -45.667 -121 -60s-93 -21.5 -145 -21.5c-118 0 -212.5 36.833 -283.5 110.5s-106.5 174.167 -106.5 301.5
c0 80.667 12.5 157.5 37.5 230.5s59.5 136.833 103.5 191.5s98.5 98.167 163.5 130.5s135.5 48.5 211.5 48.5c20 0 40.833 -1.83301 62.5 -5.5s43.834 -9.16699 66.501 -16.5s44 -17.5 64 -30.5s38 -28.167 54 -45.5s28.667 -38.166 38 -62.499s14 -51.166 14 -80.499
c0 -42 -10 -81.167 -30 -117.5s-47.833 -67.666 -83.5 -93.999s-75.834 -50.166 -120.501 -71.499s-94.5 -39.166 -149.5 -53.499s-108.667 -26.166 -161 -35.499s-106.833 -16.666 -163.5 -21.999c6.66699 -87.333 36 -155.5 88 -204.5s118 -73.5 198 -73.5zM609 902.994
c-50.667 0 -99.166 -10.666 -145.499 -31.999s-87.333 -50.833 -123 -88.5s-65.334 -83.834 -89.001 -138.501s-38.5 -114 -44.5 -178c46 4 90.833 9.66699 134.5 17s88.667 16.5 135 27.5s88.5 24.333 126.5 40s72.333 33.334 103 53.001s54.667 42.667 72 69
s26 54.5 26 84.5c0 27.333 -6.33301 51.166 -19 71.499s-29.5 35.5 -50.5 45.5s-41.833 17.333 -62.5 22s-41.667 7 -63 7z" />
    <glyph glyph-name="eacute" unicode="&#xe9;" horiz-adv-x="968" 
d="M947 1428l-263 -283h-118l254 283h127zM913 763c0 -42 -10 -81.1729 -30 -117.506s-47.833 -67.666 -83.5 -93.999s-75.834 -50.166 -120.501 -71.499s-94.5 -39.166 -149.5 -53.499s-108.667 -26.166 -161 -35.499s-106.833 -16.666 -163.5 -21.999
c6.66699 -87.333 36 -155.5 88 -204.5s118 -73.5 198 -73.5c106.667 0 201.667 46.667 285 140l84 -62c-34.667 -38.667 -70 -70.834 -106 -96.501s-76.333 -45.667 -121 -60s-93 -21.5 -145 -21.5c-118 0 -212.5 36.833 -283.5 110.5s-106.5 174.167 -106.5 301.5
c0 80.667 12.5 157.5 37.5 230.5s59.5 136.833 103.5 191.5s98.5 98.167 163.5 130.5s135.5 48.5 211.5 48.5c20 0 40.833 -1.83301 62.5 -5.5s43.834 -9.16699 66.501 -16.5s44 -17.5 64 -30.5s38 -28.167 54 -45.5s28.667 -38.166 38 -62.499s14 -51.166 14 -80.499z
M207 465.994c46 4 90.834 9.66797 134.501 17.001s88.667 16.5 135 27.5s88.5 24.333 126.5 40s72.333 33.334 103 53.001s54.667 42.667 72 69s26 54.5 26 84.5c0 27.333 -6.33301 51.166 -19 71.499s-29.5 35.5 -50.5 45.5s-41.833 17.333 -62.5 22s-41.667 7 -63 7
c-50.667 0 -99.167 -10.667 -145.5 -32s-87.333 -50.833 -123 -88.5s-65.334 -83.834 -89.001 -138.501s-38.5 -114 -44.5 -178z" />
    <glyph glyph-name="ecircumflex" unicode="&#xea;" horiz-adv-x="968" 
d="M661 1358l-185 -216h-115l253 286h104l190 -286h-112l-131 216h-4zM491 91c106.667 0 201.666 46.6689 284.999 140.002l84 -62c-34.667 -38.667 -70 -70.834 -106 -96.501s-76.333 -45.667 -121 -60s-93 -21.5 -145 -21.5c-118 0 -212.5 36.833 -283.5 110.5
s-106.5 174.167 -106.5 301.5c0 80.667 12.5 157.5 37.5 230.5s59.5 136.833 103.5 191.5s98.5 98.167 163.5 130.5s135.5 48.5 211.5 48.5c20 0 40.833 -1.83301 62.5 -5.5s43.834 -9.16699 66.501 -16.5s44 -17.5 64 -30.5s38 -28.167 54 -45.5s28.667 -38.166 38 -62.499
s14 -51.166 14 -80.499c0 -36 -7.66699 -70 -23 -102s-35.833 -60.333 -61.5 -85s-57 -47.334 -94 -68.001s-76 -38.334 -117 -53.001s-85.5 -27.834 -133.5 -39.501s-94.5 -21.167 -139.5 -28.5s-91.5 -13.333 -139.5 -18c6.66699 -87.333 36 -155.5 88 -204.5
s118 -73.5 198 -73.5zM608.999 903.002c-50.667 0 -99.167 -10.665 -145.5 -31.998s-87.333 -50.833 -123 -88.5s-65.334 -83.834 -89.001 -138.501s-38.5 -114 -44.5 -178c56 5.33301 110.167 12.5 162.5 21.5s105.333 21.5 159 37.5s100.334 34.5 140.001 55.5
s72.167 46.667 97.5 77s38 63.5 38 99.5c0 27.333 -6.33301 51.166 -19 71.499s-29.5 35.5 -50.5 45.5s-41.833 17.333 -62.5 22s-41.667 7 -63 7z" />
    <glyph glyph-name="edieresis" unicode="&#xeb;" horiz-adv-x="968" 
d="M496 1216c-22.667 0 -41.5 7.66699 -56.5 23s-22.5 34.333 -22.5 57c0 16 3.5 30.333 10.5 43s16.833 22.5 29.5 29.5s26.667 10.5 42 10.5c22.667 0 41.667 -7.66699 57 -23s23 -34.333 23 -57c0 -23.333 -7.83301 -43 -23.5 -59s-35.5 -24 -59.5 -24zM808 1216
c-22.667 0 -41.5 7.5 -56.5 22.5s-22.5 34.167 -22.5 57.5c0 16 3.5 30.333 10.5 43s16.833 22.5 29.5 29.5s26.667 10.5 42 10.5c22.667 0 41.667 -7.66699 57 -23s23 -34.333 23 -57c0 -23.333 -7.83301 -43 -23.5 -59s-35.5 -24 -59.5 -24zM491 91
c106.667 0 201.663 46.668 284.996 140.001l84 -62c-34.667 -38.667 -70 -70.834 -106 -96.501s-76.333 -45.667 -121 -60s-93 -21.5 -145 -21.5c-118 0 -212.5 36.833 -283.5 110.5s-106.5 174.167 -106.5 301.5c0 80.667 12.5 157.667 37.5 231
s59.5 137.166 103.5 191.499s98.5 97.666 163.5 129.999s135.5 48.5 211.5 48.5c20 0 40.833 -1.83301 62.5 -5.5s43.834 -9.16699 66.501 -16.5s44 -17.5 64 -30.5s38 -28.167 54 -45.5s28.667 -38.166 38 -62.499s14 -51.166 14 -80.499c0 -32 -5.66699 -62.167 -17 -90.5
s-27.666 -54 -48.999 -77s-46 -44.333 -74 -64s-59.667 -37 -95 -52s-71.666 -28.667 -108.999 -41s-77.166 -23 -119.499 -32s-83.333 -16.5 -123 -22.5s-80.167 -11 -121.5 -15c6.66699 -87.333 36 -155.5 88 -204.5s118 -73.5 198 -73.5zM608.996 903.001
c-50.667 0 -99.166 -10.666 -145.499 -31.999s-87.333 -50.833 -123 -88.5s-65.334 -83.834 -89.001 -138.501s-38.5 -114 -44.5 -178c46 4 90.833 9.66699 134.5 17s88.667 16.5 135 27.5s88.5 24.333 126.5 40s72.333 33.334 103 53.001s54.667 42.667 72 69
s26 54.5 26 84.5c0 27.333 -6.33301 51.166 -19 71.499s-29.5 35.5 -50.5 45.5s-41.833 17.333 -62.5 22s-41.667 7 -63 7z" />
    <glyph glyph-name="igrave" unicode="&#xec;" horiz-adv-x="475" 
d="M252 1436l122 -283h-115l-131 283h124zM242 994h106l-121 -994h-107z" />
    <glyph glyph-name="iacute" unicode="&#xed;" horiz-adv-x="480" 
d="M529 1428h127l-263 -283h-118zM242 994h106l-121 -994h-107z" />
    <glyph glyph-name="icircumflex" unicode="&#xee;" horiz-adv-x="470" 
d="M398 1428l190 -286h-112l-131 216h-4l-185 -216h-115l253 286h104zM120 0l122 994h106l-121 -994h-107z" />
    <glyph glyph-name="idieresis" unicode="&#xef;" horiz-adv-x="470" 
d="M180 1379c23.333 0 42.5 -7.66699 57.5 -23s22.5 -34.333 22.5 -57c0 -23.333 -7.83301 -43 -23.5 -59s-35.5 -24 -59.5 -24c-14.667 0 -28 3.5 -40 10.5s-21.5 16.5 -28.5 28.5s-10.5 25.667 -10.5 41c0 16 3.5 30.333 10.5 43s16.833 22.5 29.5 29.5
s26.667 10.5 42 10.5zM488 1379c23.333 0 42.5 -7.5 57.5 -22.5s22.5 -34.167 22.5 -57.5s-7.83301 -43 -23.5 -59s-35.5 -24 -59.5 -24c-22.667 0 -41.5 7.66699 -56.5 23s-22.5 34.333 -22.5 57c0 16 3.5 30.333 10.5 43s16.833 22.5 29.5 29.5s26.667 10.5 42 10.5z
M242 994h106l-121 -994h-107z" />
    <glyph glyph-name="eth" unicode="&#xf0;" horiz-adv-x="1121" 
d="M1025 631c0 -42 -2 -82.665 -6 -121.998c-6.66699 -72 -23.834 -139.5 -51.501 -202.5s-63.5 -118 -107.5 -165s-96.833 -84 -158.5 -111s-127.834 -40.5 -198.501 -40.5c-124 0 -222.5 37.333 -295.5 112s-109.5 177.334 -109.5 308.001c0 77.333 12.833 152 38.5 224
s60.834 135 105.501 189s99.334 97.167 164.001 129.5s133.667 48.5 207 48.5c56.667 0 108 -11.167 154 -33.5s84 -52.5 114 -90.5l4 1c-44.667 168 -127.667 305.333 -249 412l-160 -123l-48 62l144 112c-50.667 35.333 -104.667 64.666 -162 87.999l54 85
c68.667 -26.667 133 -62.334 193 -107.001l146 114l47 -66l-129 -99c96 -86.667 170.667 -192.334 224 -317.001s80 -260.667 80 -408zM505 91.002c78 0 148.167 21.6689 210.5 65.002s110.833 102.833 145.5 178.5s52 160.5 52 254.5
c0 93.333 -26.167 168.666 -78.5 225.999s-122.833 86 -211.5 86c-60 0 -116.167 -13.167 -168.5 -39.5s-96.5 -61.5 -132.5 -105.5s-64.333 -95.667 -85 -155s-31 -121.333 -31 -186c0 -102.667 26.833 -182.334 80.5 -239.001s126.5 -85 218.5 -85z" />
    <glyph glyph-name="ntilde" unicode="&#xf1;" horiz-adv-x="1120" 
d="M573 1301c-52 0 -96 -40.334 -132 -121.001l-72 35c49.333 118.667 114.333 178 195 178c20 0 39.333 -3.66699 58 -11s32.5 -14.333 41.5 -21s22.167 -17.334 39.5 -32.001c2 -2 7.33301 -6.5 16 -13.5s14.334 -11.5 17.001 -13.5s7.66699 -5.83301 15 -11.5
s13.166 -9.5 17.499 -11.5s9.66602 -4.66699 15.999 -8s12.333 -5.5 18 -6.5s11.5 -1.5 17.5 -1.5c23.333 0 46.333 10.5 69 31.5s42 51.167 58 90.5l72 -30c-22.667 -60 -50.834 -105.667 -84.501 -137s-68.834 -47 -105.501 -47c-7.33301 0 -14.333 0.5 -21 1.5
s-13.5 2.66699 -20.5 5s-13 4.5 -18 6.5s-11 5.16699 -18 9.5s-12.333 7.5 -16 9.5s-9.16699 6 -16.5 12s-12.166 9.83301 -14.499 11.5s-7.16602 5.83398 -14.499 12.501s-11.666 10.334 -12.999 11.001c-42 34 -76.667 51 -104 51zM736 1004
c98.667 0 168.999 -33 210.999 -99s53.667 -168.333 35 -307l-79 -598h-107l78 591c6.66699 60 8.33398 110 5.00098 150s-13.166 72 -29.499 96s-35.833 41 -58.5 51s-50 15 -82 15c-45.333 0 -92.333 -12.833 -141 -38.5s-93.334 -60 -134.001 -103
s-76 -94.833 -106 -155.5s-49.333 -123.667 -58 -189l-51 -417h-107l122 994h106l-30 -243h4c55.333 79.333 120.5 141.333 195.5 186s150.5 67 226.5 67z" />
    <glyph glyph-name="ograve" unicode="&#xf2;" horiz-adv-x="1118" 
d="M557 1428l186 -283h-117l-195 283h126zM618 1004c80.667 0 151.17 -15.498 211.503 -46.498s107.333 -77.167 141 -138.5s50.5 -135 50.5 -221c0 -84.667 -11.833 -163.834 -35.5 -237.501s-57.334 -138 -101.001 -193s-98.334 -98.333 -164.001 -130
s-138.167 -47.5 -217.5 -47.5c-124 0 -222.5 36.5 -295.5 109.5s-109.5 174.833 -109.5 305.5c0 63.333 7.66699 124.666 23 183.999s38 114 68 164s65.667 93.833 107 131.5s89.666 67 144.999 88s114.333 31.5 177 31.5zM614.003 903.002
c-78 0 -148.333 -22.001 -211 -66.001s-111.167 -103 -145.5 -177s-51.5 -155.667 -51.5 -245c0 -100 26.833 -179.167 80.5 -237.5s126.5 -87.5 218.5 -87.5c58.667 0 113.334 12.5 164.001 37.5s93.667 59.333 129 103s63.166 96.667 83.499 159s30.5 129.5 30.5 201.5
c0 102.667 -27.167 180.334 -81.5 233.001s-126.5 79 -216.5 79z" />
    <glyph glyph-name="oacute" unicode="&#xf3;" horiz-adv-x="1118" 
d="M857 1428h127l-263 -283h-118zM618 1004c80.667 0 151.17 -15.498 211.503 -46.498s107.333 -77.167 141 -138.5s50.5 -135 50.5 -221c0 -84.667 -11.833 -163.834 -35.5 -237.501s-57.334 -138 -101.001 -193s-98.334 -98.333 -164.001 -130
s-138.167 -47.5 -217.5 -47.5c-124 0 -222.5 36.5 -295.5 109.5s-109.5 174.833 -109.5 305.5c0 63.333 7.66699 124.666 23 183.999s38 114 68 164s65.667 93.833 107 131.5s89.666 67 144.999 88s114.333 31.5 177 31.5zM614.003 903.002
c-78 0 -148.333 -22.001 -211 -66.001s-111.167 -103 -145.5 -177s-51.5 -155.667 -51.5 -245c0 -100 26.833 -179.167 80.5 -237.5s126.5 -87.5 218.5 -87.5c58.667 0 113.334 12.5 164.001 37.5s93.667 59.333 129 103s63.166 96.667 83.499 159s30.5 129.5 30.5 201.5
c0 102.667 -27.167 180.334 -81.5 233.001s-126.5 79 -216.5 79z" />
    <glyph glyph-name="ocircumflex" unicode="&#xf4;" horiz-adv-x="1118" 
d="M679 1358l-185 -216h-115l253 286h104l190 -286h-112l-131 216h-4zM618 1004c122.667 0 220.502 -35.498 293.502 -106.498s109.5 -170.833 109.5 -299.5c0 -84.667 -11.833 -163.834 -35.5 -237.501s-57.334 -138 -101.001 -193s-98.334 -98.333 -164.001 -130
s-138.167 -47.5 -217.5 -47.5c-123.333 0 -221.666 36.5 -294.999 109.5s-110 174.833 -110 305.5c0 63.333 7.66699 124.666 23 183.999s38 114 68 164s65.667 93.833 107 131.5s89.666 67 144.999 88s114.333 31.5 177 31.5zM505.002 90.002
c78.667 0 148.832 21.332 210.499 63.999s109.834 102 144.501 178s52 162.333 52 259c0 102.667 -27.167 180.334 -81.5 233.001s-126.5 79 -216.5 79c-78 0 -148.333 -22 -211 -66s-111.167 -103 -145.5 -177s-51.5 -155.667 -51.5 -245
c0 -100 26.833 -179.167 80.5 -237.5s126.5 -87.5 218.5 -87.5z" />
    <glyph glyph-name="otilde" unicode="&#xf5;" horiz-adv-x="1118" 
d="M346 1215c49.333 118.667 114.331 177.999 194.998 177.999c20 0 39.333 -3.66699 58 -11s32.5 -14.333 41.5 -21s22.167 -17.334 39.5 -32.001c2 -2 7.33301 -6.5 16 -13.5s14.334 -11.5 17.001 -13.5s7.66699 -5.83301 15 -11.5s13.166 -9.5 17.499 -11.5
s9.66602 -4.66699 15.999 -8s12.333 -5.5 18 -6.5s11.5 -1.5 17.5 -1.5c23.333 0 46.333 10.5 69 31.5s42 51.167 58 90.5l72 -30c-15.333 -40 -33.5 -74 -54.5 -102s-42.833 -48.667 -65.5 -62s-46 -20 -70 -20c-7.33301 0 -14.333 0.5 -21 1.5s-13.5 2.66699 -20.5 5
s-13 4.5 -18 6.5s-11 5.16699 -18 9.5s-12.333 7.5 -16 9.5s-9.16699 6 -16.5 12s-12.166 9.83301 -14.499 11.5s-7.16602 5.83398 -14.499 12.501s-11.666 10.334 -12.999 11.001c-42 34 -76.667 51 -104 51c-52 0 -96 -40.333 -132 -121zM617.998 1004
c122.667 0 220.502 -35.498 293.502 -106.498s109.5 -170.833 109.5 -299.5c0 -84.667 -11.833 -163.834 -35.5 -237.501s-57.334 -138 -101.001 -193s-98.334 -98.333 -164.001 -130s-138.167 -47.5 -217.5 -47.5c-123.333 0 -221.666 36.5 -294.999 109.5
s-110 174.833 -110 305.5c0 63.333 7.66699 124.666 23 183.999s38 114 68 164s65.667 93.833 107 131.5s89.666 67 144.999 88s114.333 31.5 177 31.5zM614 903.001c-78 0 -148.335 -22 -211.002 -66s-111.167 -103 -145.5 -177s-51.5 -155.667 -51.5 -245
c0 -100 26.833 -179.167 80.5 -237.5s126.5 -87.5 218.5 -87.5c78.667 0 148.834 21.167 210.501 63.5s109.834 101.666 144.501 177.999s52 162.833 52 259.5c0 102.667 -27.167 180.334 -81.5 233.001s-126.5 79 -216.5 79z" />
    <glyph glyph-name="odieresis" unicode="&#xf6;" horiz-adv-x="1118" 
d="M517 1379c23.333 0 42.5 -7.66699 57.5 -23s22.5 -34.333 22.5 -57c0 -23.333 -7.83301 -43 -23.5 -59s-35.5 -24 -59.5 -24c-22.667 0 -41.5 7.66699 -56.5 23s-22.5 34.333 -22.5 57c0 16 3.5 30.333 10.5 43s16.833 22.5 29.5 29.5s26.667 10.5 42 10.5zM829 1379
c15.333 0 29 -3.5 41 -10.5s21.5 -16.5 28.5 -28.5s10.5 -25.667 10.5 -41c0 -23.333 -7.83301 -43 -23.5 -59s-35.5 -24 -59.5 -24c-22.667 0 -41.5 7.5 -56.5 22.5s-22.5 34.167 -22.5 57.5c0 16 3.5 30.333 10.5 43s16.833 22.5 29.5 29.5s26.667 10.5 42 10.5zM618 1004
c80.667 0 151.169 -15.498 211.502 -46.498s107.333 -77.167 141 -138.5s50.5 -135 50.5 -221c0 -84.667 -11.833 -163.834 -35.5 -237.501s-57.334 -138 -101.001 -193s-98.334 -98.333 -164.001 -130s-138.167 -47.5 -217.5 -47.5
c-123.333 0 -221.666 36.667 -294.999 110s-110 175 -110 305c0 63.333 7.66699 124.666 23 183.999s38 114 68 164s65.667 93.833 107 131.5s89.666 67 144.999 88s114.333 31.5 177 31.5zM614.002 903.002c-78 0 -148.335 -22.001 -211.002 -66.001
s-111.167 -103 -145.5 -177s-51.5 -155.667 -51.5 -245c0 -100 26.833 -179.167 80.5 -237.5s126.5 -87.5 218.5 -87.5c78.667 0 148.834 21.333 210.501 64s109.834 102 144.501 178s52 162.333 52 259c0 102.667 -27.167 180.334 -81.5 233.001s-126.5 79 -216.5 79z" />
    <glyph glyph-name="divide" unicode="&#xf7;" horiz-adv-x="1131" 
d="M645 1042c11.333 0 22 -2 32 -6s18.5 -9.5 25.5 -16.5s12.5 -15.5 16.5 -25.5s6 -20.667 6 -32c0 -23.333 -7.83301 -43 -23.5 -59s-35.5 -24 -59.5 -24c-22.667 0 -41.5 7.66699 -56.5 23s-22.5 34.333 -22.5 57c0 24 7.83301 43.833 23.5 59.5s35.167 23.5 58.5 23.5z
M1022 516h-857l12 100h857zM556 245c22.667 0 41.667 -7.66699 57 -23s23 -34.333 23 -57c0 -23.333 -7.83301 -43 -23.5 -59s-35.5 -24 -59.5 -24c-22.667 0 -41.5 7.66699 -56.5 23s-22.5 34.333 -22.5 57c0 16 3.5 30.333 10.5 43s16.833 22.5 29.5 29.5
s26.667 10.5 42 10.5z" />
    <glyph glyph-name="oslash" unicode="&#xf8;" horiz-adv-x="1122" 
d="M1069 964l-114.998 -117.998c44.667 -67.333 67 -150 67 -248c0 -84.667 -11.833 -163.834 -35.5 -237.501s-57.334 -138 -101.001 -193s-98.334 -98.333 -164.001 -130s-138.167 -47.5 -217.5 -47.5c-117.333 0 -211.666 32.667 -282.999 98l-116 -120l-58 53l123 126
c-47.333 68.667 -71 154.667 -71 258c0 63.333 7.66699 124.666 23 183.999s38 114 68 164s65.667 93.833 107 131.5s89.666 67 144.999 88s114.333 31.5 177 31.5c118.667 0 214 -33 286 -99l109 113zM206.002 415.002c0 -72 14.332 -133.667 42.999 -185l579 597
c-53.333 50.667 -124.666 76 -213.999 76c-78 0 -148.333 -22 -211 -66s-111.167 -103 -145.5 -177s-51.5 -155.667 -51.5 -245zM912.001 591.002c0 68.667 -12.333 126 -37 172l-578 -596c52.667 -51.333 122 -77 208 -77c58.667 0 113.334 12.5 164.001 37.5
s93.667 59.333 129 103s63.166 96.667 83.499 159s30.5 129.5 30.5 201.5z" />
    <glyph glyph-name="ugrave" unicode="&#xf9;" horiz-adv-x="1083" 
d="M699 1145h-117l-195 283h126zM879 994l106 -0.000976562l-121 -994h-107l28 232h-4c-48 -75.333 -105.167 -134.5 -171.5 -177.5s-136.166 -64.5 -209.499 -64.5c-104 0 -178.5 32.167 -223.5 96.5s-58.833 166.5 -41.5 306.5l74 601h107l-73 -594
c-7.33301 -48.667 -9.16602 -90.667 -5.49902 -126s9.83398 -64.833 18.501 -88.5s21.834 -42.5 39.501 -56.5s36.667 -23.833 57 -29.5s44.166 -8.5 71.499 -8.5c41.333 0 84.166 12.333 128.499 37s85.166 57.667 122.499 99s69.666 91.333 96.999 150
s45.333 119.334 54 182.001z" />
    <glyph glyph-name="uacute" unicode="&#xfa;" horiz-adv-x="1083" 
d="M927 1428l-263 -283h-118l254 283h127zM879 994l106 -0.000976562l-121 -994h-107l28 232h-4c-48 -75.333 -105.167 -134.5 -171.5 -177.5s-136.166 -64.5 -209.499 -64.5c-104 0 -178.5 32.167 -223.5 96.5s-58.833 166.5 -41.5 306.5l74 601h107l-73 -594
c-7.33301 -48.667 -9.16602 -90.667 -5.49902 -126s9.83398 -64.833 18.501 -88.5s21.834 -42.5 39.501 -56.5s36.667 -23.833 57 -29.5s44.166 -8.5 71.499 -8.5c41.333 0 84.166 12.333 128.499 37s85.166 57.667 122.499 99s69.666 91.333 96.999 150
s45.333 119.334 54 182.001z" />
    <glyph glyph-name="ucircumflex" unicode="&#xfb;" horiz-adv-x="1083" 
d="M638 1358l-185 -216h-115l253 286h104l190 -286h-112l-131 216h-4zM879 994l106 -0.000976562l-121 -994h-107l28 232h-4c-48 -75.333 -105.167 -134.5 -171.5 -177.5s-136.166 -64.5 -209.499 -64.5c-104 0 -178.5 32.167 -223.5 96.5s-58.833 166.5 -41.5 306.5l74 601
h107l-73 -594c-7.33301 -48.667 -9.16602 -90.667 -5.49902 -126s9.83398 -64.833 18.501 -88.5s21.834 -42.5 39.501 -56.5s36.667 -23.833 57 -29.5s44.166 -8.5 71.499 -8.5c41.333 0 84.166 12.333 128.499 37s85.166 57.667 122.499 99s69.666 91.333 96.999 150
s45.333 119.334 54 182.001z" />
    <glyph glyph-name="udieresis" unicode="&#xfc;" horiz-adv-x="1083" 
d="M473 1216c-22.667 0 -41.5 7.66699 -56.5 23s-22.5 34.333 -22.5 57c0 16 3.5 30.333 10.5 43s16.833 22.5 29.5 29.5s26.667 10.5 42 10.5c22.667 0 41.667 -7.66699 57 -23s23 -34.333 23 -57c0 -23.333 -7.83301 -43 -23.5 -59s-35.5 -24 -59.5 -24zM785 1216
c-22.667 0 -41.5 7.5 -56.5 22.5s-22.5 34.167 -22.5 57.5c0 16 3.5 30.333 10.5 43s16.833 22.5 29.5 29.5s26.667 10.5 42 10.5c22.667 0 41.667 -7.66699 57 -23s23 -34.333 23 -57c0 -23.333 -7.83301 -43 -23.5 -59s-35.5 -24 -59.5 -24zM879 994l106.001 -0.000976562
l-121 -994h-107l28 232h-4c-31.333 -49.333 -67 -92 -107 -128s-83.5 -64 -130.5 -84s-94.833 -30 -143.5 -30c-104 0 -178.5 32.167 -223.5 96.5s-58.833 166.5 -41.5 306.5l74 601h107l-73 -594c-7.33301 -48.667 -9.16602 -90.667 -5.49902 -126
s9.83398 -64.833 18.501 -88.5s21.834 -42.5 39.501 -56.5s36.667 -23.833 57 -29.5s44.166 -8.5 71.499 -8.5c41.333 0 84.166 12.333 128.499 37s85.166 57.667 122.499 99s69.666 91.333 96.999 150s45.333 119.334 54 182.001z" />
    <glyph glyph-name="yacute" unicode="&#xfd;" horiz-adv-x="1081" 
d="M932 1428l-263 -283h-118l254 283h127zM879 994l105.998 0.00195312l-105 -863c-6.66699 -54.667 -16 -105.167 -28 -151.5s-26 -87.166 -42 -122.499s-33.667 -67 -53 -95s-40.666 -51.833 -63.999 -71.5s-47.333 -36.5 -72 -50.5s-51 -25 -79 -33
s-55.5 -13.667 -82.5 -17s-55.833 -5 -86.5 -5c-111.333 0 -217 28 -317 84l35 97c93.333 -54 188 -81 284 -81c40 0 76.333 3.66699 109 11s65.5 21 98.5 41s61.5 46.5 85.5 79.5s45.5 76.833 64.5 131.5s32.833 118.667 41.5 192l13 105h-4
c-48.667 -78 -106.667 -140 -174 -186s-138.333 -69 -213 -69c-104 0 -178.5 32.167 -223.5 96.5s-58.833 166.5 -41.5 306.5l74 601h107l-73 -594c-7.33301 -48.667 -9.16602 -90.667 -5.49902 -126s9.83398 -64.833 18.501 -88.5s21.834 -42.5 39.501 -56.5
s36.667 -23.833 57 -29.5s44.166 -8.5 71.499 -8.5c42.667 0 86.667 12.667 132 38s86.833 59.166 124.5 101.499s70.167 93.166 97.5 152.499s44.666 120.666 51.999 183.999z" />
    <glyph glyph-name="thorn" unicode="&#xfe;" horiz-adv-x="1146" 
d="M712 1004c71.333 0 132.832 -18.168 184.499 -54.501s90.167 -84.166 115.5 -143.499s38 -126 38 -200c0 -81.333 -12.167 -159.333 -36.5 -234s-58.333 -140.167 -102 -196.5s-98 -101.333 -163 -135s-135.5 -50.5 -211.5 -50.5c-59.333 0 -115.833 9.5 -169.5 28.5
s-97.5 47.167 -131.5 84.5h-5l-61 -508h-107l233 1913h107l-93 -763h4c47.333 79.333 104.833 142.333 172.5 189s142.834 70 225.501 70zM527.999 89.999c49.333 0 95.8311 9.00391 139.498 27.0039s82 43.167 115 75.5s61.5 70.333 85.5 114s42.167 91.667 54.5 144
s18.5 106.5 18.5 162.5c0 54.667 -9 103.667 -27 147s-46 78.166 -84 104.499s-83.667 39.5 -137 39.5c-70 0 -135.667 -23.833 -197 -71.5s-111.666 -110.334 -150.999 -188.001s-65.666 -162.834 -78.999 -255.501l-21 -165c14 -24.667 32.5 -46 55.5 -64
s47.833 -31.833 74.5 -41.5s52.667 -16.834 78 -21.501s50.333 -7 75 -7z" />
    <glyph glyph-name="ydieresis" unicode="&#xff;" horiz-adv-x="1081" 
d="M476 1216c-22.667 0 -41.5 7.66699 -56.5 23s-22.5 34.333 -22.5 57c0 16 3.5 30.333 10.5 43s16.833 22.5 29.5 29.5s26.667 10.5 42 10.5c22.667 0 41.667 -7.66699 57 -23s23 -34.333 23 -57c0 -23.333 -7.83301 -43 -23.5 -59s-35.5 -24 -59.5 -24zM788 1216
c-22.667 0 -41.5 7.5 -56.5 22.5s-22.5 34.167 -22.5 57.5c0 16 3.5 30.333 10.5 43s16.833 22.5 29.5 29.5s26.667 10.5 42 10.5c23.333 0 42.5 -7.66699 57.5 -23s22.5 -34.333 22.5 -57c0 -23.333 -7.83301 -43 -23.5 -59s-35.5 -24 -59.5 -24zM879 994h106l-105 -863
c-8 -62.667 -19.167 -119.667 -33.5 -171s-31 -95.666 -50 -132.999s-41 -70.166 -66 -98.499s-50.833 -51.5 -77.5 -69.5s-56 -32.667 -88 -44s-63.333 -19.166 -94 -23.499s-63.334 -6.5 -98.001 -6.5c-111.333 0 -217 28 -317 84l35 97c93.333 -54 188 -81 284 -81
c40 0 76.333 3.66699 109 11s65.5 21 98.5 41s61.5 46.5 85.5 79.5s45.5 76.833 64.5 131.5s32.833 118.667 41.5 192l13 105h-4c-48.667 -78 -106.667 -140 -174 -186s-138.333 -69 -213 -69c-104 0 -178.5 32.167 -223.5 96.5s-58.833 166.5 -41.5 306.5l74 601h107
l-73 -594c-7.33301 -48.667 -9.16602 -90.667 -5.49902 -126s9.83398 -64.833 18.501 -88.5s21.834 -42.5 39.501 -56.5s36.667 -23.833 57 -29.5s44.166 -8.5 71.499 -8.5c42.667 0 86.667 12.667 132 38s86.833 59.166 124.5 101.499s70.167 93.166 97.5 152.499
s44.666 120.666 51.999 183.999z" />
    <glyph glyph-name="Amacron" unicode="&#x100;" horiz-adv-x="1256" 
d="M1054 1824l-13 -95h-515l13 95h515zM1012 0l-85 392h-622l-180 -392h-121l677 1455h123l326 -1455h-118zM352 496h553l-176 814h-4z" />
    <glyph glyph-name="amacron" unicode="&#x101;" horiz-adv-x="1122" 
d="M978 1339l-13 -95h-515l13 95h515zM923 994l105.996 -0.000976562l-121 -994h-107l32 258h-4c-46 -80.667 -102.667 -145.5 -170 -194.5s-140 -73.5 -218 -73.5c-72.667 0 -135.167 17.833 -187.5 53.5s-91.166 83.167 -116.499 142.5s-38 126.666 -38 201.999
c0 81.333 12.167 159.333 36.5 234s58 140.167 101 196.5s96.667 101.333 161 135s133.833 50.5 208.5 50.5c38.667 0 76.334 -4.16699 113.001 -12.5s71.334 -21.166 104.001 -38.499s60.334 -38.666 83.001 -63.999h4zM456.996 87.999
c51.333 0 101.172 14.499 149.505 43.499s90.666 67.833 126.999 116.5s67.166 105.334 92.499 170.001s42.333 132.334 51 203.001v-1l20 159c-22.667 29.333 -52.334 53.833 -89.001 73.5s-71.334 33 -104.001 40s-64 10.5 -94 10.5c-60 0 -115.5 -14.167 -166.5 -42.5
s-93.5 -66.5 -127.5 -114.5s-60.5 -103.167 -79.5 -165.5s-28.5 -127.5 -28.5 -195.5c0 -88.667 21.667 -160.334 65 -215.001s104.666 -82 183.999 -82z" />
    <glyph glyph-name="Abreve" unicode="&#x102;" horiz-adv-x="1256" 
d="M779 1627c-69.333 0 -124.168 24.167 -164.501 72.5s-57.5 115.5 -51.5 201.5l88 -2c-4 -57.333 4.5 -103 25.5 -137s55.833 -51 104.5 -51c52 0 95.333 17.667 130 53s56.667 81 66 137l88 -2c-15.333 -84.667 -49.166 -151.167 -101.499 -199.5
s-113.833 -72.5 -184.5 -72.5zM1012 0l-85 392h-622l-180 -392h-121l677 1455h123l326 -1455h-118zM351.998 496h553l-176 814h-4z" />
    <glyph glyph-name="abreve" unicode="&#x103;" horiz-adv-x="1122" 
d="M703 1142c-69.333 0 -124.168 24.167 -164.501 72.5s-57.5 115.5 -51.5 201.5l88 -2c-4 -57.333 4.5 -103 25.5 -137s55.833 -51 104.5 -51c34.667 0 66 8.33301 94 25s50.5 39.167 67.5 67.5s28.5 60.833 34.5 97.5l88 -2
c-15.333 -84.667 -49.166 -151.167 -101.499 -199.5s-113.833 -72.5 -184.5 -72.5zM922.998 994l106 0.000976562l-121 -994h-107l32 258h-4c-46 -80.667 -102.667 -145.5 -170 -194.5s-140 -73.5 -218 -73.5c-72.667 0 -135.167 17.833 -187.5 53.5
s-91.166 83.167 -116.499 142.5s-38 126.666 -38 201.999c0 81.333 12.167 159.333 36.5 234s58 140.167 101 196.5s96.667 101.333 161 135s133.833 50.5 208.5 50.5c59.333 0 115.666 -9.83301 168.999 -29.5s97 -48.167 131 -85.5h4zM456.998 88.001
c51.333 0 101.17 14.5 149.503 43.5s90.666 67.833 126.999 116.5s67.166 105.5 92.499 170.5s42.333 132.5 51 202.5v-1l20 159c-22.667 29.333 -52.334 53.833 -89.001 73.5s-71.334 33 -104.001 40s-64 10.5 -94 10.5c-60 0 -115.5 -14.167 -166.5 -42.5
s-93.5 -66.5 -127.5 -114.5s-60.5 -103.167 -79.5 -165.5s-28.5 -127.5 -28.5 -195.5c0 -58 9.33301 -109.167 28 -153.5s46.834 -79.333 84.501 -105s83.167 -38.5 136.5 -38.5z" />
    <glyph glyph-name="Aogonek" unicode="&#x104;" horiz-adv-x="1256" 
d="M1137 -271l3.99902 -79.001c-32.667 -17.333 -74.667 -26 -126 -26c-52 0 -91.5 12.5 -118.5 37.5s-39.167 61.167 -36.5 108.5c2 40.667 16.833 81.334 44.5 122.001s63.167 77.667 106.5 111l-84 389h-622l-180 -392h-121l677 1455h123l326 -1455
c-54 -30.667 -96.667 -64.5 -128 -101.5s-47.666 -74.167 -48.999 -111.5c-1.33301 -24 5 -43.5 19 -58.5s35.333 -22.5 64 -22.5c39.333 0 73 7.66699 101 23zM351.999 495.999h553l-176 814h-4z" />
    <glyph glyph-name="aogonek" unicode="&#x105;" horiz-adv-x="1122" 
d="M814 -294c39.333 0 72.999 7.66895 100.999 23.002l4 -79c-32.667 -17.333 -74.667 -26 -126 -26c-52 0 -91.5 12.5 -118.5 37.5s-39.167 61.167 -36.5 108.5c1.33301 28.667 9.66602 58.167 24.999 88.5s34.833 58.166 58.5 83.499s50.834 49 81.501 71l30 245h-4
c-46 -80.667 -102.667 -145.5 -170 -194.5s-140 -73.5 -218 -73.5c-72.667 0 -135.167 17.833 -187.5 53.5s-91.166 83.167 -116.499 142.5s-38 126.666 -38 201.999c0 81.333 12.167 159.333 36.5 234s58 140.167 101 196.5s96.667 101.333 161 135
s133.833 50.5 208.5 50.5c59.333 0 115.666 -9.83301 168.999 -29.5s97 -48.167 131 -85.5h4l13 105h106l-121 -994c-54 -30.667 -96.667 -64.5 -128 -101.5s-47.666 -74.167 -48.999 -111.5c-1.33301 -24 5 -43.5 19 -58.5s35.333 -22.5 64 -22.5zM456.999 88.002
c51.333 0 101.172 14.499 149.505 43.499s90.666 67.833 126.999 116.5s67.166 105.334 92.499 170.001s42.333 132.334 51 203.001v-1l20 159c-22.667 29.333 -52.334 53.833 -89.001 73.5s-71.334 33 -104.001 40s-64 10.5 -94 10.5c-60 0 -115.5 -14.167 -166.5 -42.5
s-93.5 -66.5 -127.5 -114.5s-60.5 -103.167 -79.5 -165.5s-28.5 -127.5 -28.5 -195.5c0 -88.667 21.667 -160.334 65 -215.001s104.666 -82 183.999 -82z" />
    <glyph glyph-name="Cacute" unicode="&#x106;" horiz-adv-x="1390" 
d="M1126 1913h127l-263 -283h-118zM1237 233c-44 -48.667 -93.334 -91 -148.001 -127s-114.334 -64.333 -179.001 -85s-129.667 -31 -195 -31c-82.667 0 -158.5 13.833 -227.5 41.5s-128 67.334 -177 119.001s-87.167 116 -114.5 193s-41 163.167 -41 258.5
c0 90.667 11.5 179 34.5 265s56.333 165 100 237s95 135 154 189s127 96.167 204 126.5s157.833 45.5 242.5 45.5c204.667 0 371 -103.333 499 -310l-98 -66c-54 93.333 -113.5 161.166 -178.5 203.499s-139.5 63.5 -223.5 63.5c-72 0 -140.333 -13.667 -205 -41
s-121.667 -65 -171 -113s-92.166 -103.5 -128.499 -166.5s-64 -131.5 -83 -205.5s-28.5 -149.333 -28.5 -226c0 -156 39.833 -279.167 119.5 -369.5s188.834 -135.5 327.501 -135.5c76 0 152.333 18 229 54s144 87 202 153z" />
    <glyph glyph-name="cacute" unicode="&#x107;" horiz-adv-x="998" 
d="M837 1428h127l-263 -283h-118zM475 -9c-51.333 0 -99.499 9 -144.499 27s-85 43.667 -120 77s-62.5 76.333 -82.5 129s-30 111.667 -30 177c0 81.333 12.167 158.333 36.5 231s58.5 136.667 102.5 192s99.167 99.166 165.5 131.499s139.166 48.5 218.499 48.5
c68.667 0 132.5 -13.667 191.5 -41s106.5 -67.666 142.5 -120.999l-87 -64c-27.333 42 -62.833 73.333 -106.5 94s-91.167 31 -142.5 31c-62 0 -119.167 -13.333 -171.5 -40s-96 -62.5 -131 -107.5s-62.167 -97.667 -81.5 -158s-29 -123.833 -29 -190.5
c0 -96 26.333 -172.667 79 -230s118.334 -86 197.001 -86c127.333 0 231 46.667 311 140l83 -62c-51.333 -60 -109.333 -104.667 -174 -134s-140.334 -44 -227.001 -44z" />
    <glyph glyph-name="Ccircumflex" unicode="&#x108;" horiz-adv-x="1390" 
d="M982 1843l-185 -216h-115l253 286h104l190 -286h-112l-131 216h-4zM889 1356c-72 0 -140.336 -13.667 -205.003 -41s-121.667 -65 -171 -113s-92.166 -103.5 -128.499 -166.5s-64 -131.5 -83 -205.5s-28.5 -149.333 -28.5 -226c0 -156 39.833 -279.167 119.5 -369.5
s188.834 -135.5 327.501 -135.5c76 0 152.333 18 229 54s144 87 202 153l86 -73c-67.333 -74 -146.666 -133 -237.999 -177s-186 -66 -284 -66c-82.667 0 -158.5 13.833 -227.5 41.5s-128 67.334 -177 119.001s-87.167 116 -114.5 193s-41 163.167 -41 258.5
c0 90.667 11.5 179 34.5 265s56.333 165 100 237s95 135 154 189s127 96.167 204 126.5s157.833 45.5 242.5 45.5c204.667 0 371 -103.333 499 -310l-98 -66c-54 93.333 -113.5 161.166 -178.5 203.499s-139.5 63.5 -223.5 63.5z" />
    <glyph glyph-name="ccircumflex" unicode="&#x109;" horiz-adv-x="998" 
d="M681 1358l-185 -216h-115l253 286h104l190 -286h-112l-131 216h-4zM482 91c127.333 0 231.002 46.667 311.002 140l83 -62c-51.333 -60 -109.333 -104.667 -174 -134s-140.334 -44 -227.001 -44c-51.333 0 -99.5 9 -144.5 27s-85 43.667 -120 77s-62.5 76.333 -82.5 129
s-30 111.667 -30 177c0 81.333 12.167 158.333 36.5 231s58.5 136.667 102.5 192s99.167 99.166 165.5 131.499s139.166 48.5 218.499 48.5c68.667 0 132.667 -13.667 192 -41s106.666 -67.666 141.999 -120.999l-87 -64c-18.667 28 -41.334 51.5 -68.001 70.5
s-55.167 32.833 -85.5 41.5s-62.166 13 -95.499 13c-62 0 -119.167 -13.333 -171.5 -40s-96 -62.5 -131 -107.5s-62.167 -97.667 -81.5 -158s-29 -123.833 -29 -190.5c0 -96 26.333 -172.667 79 -230s118.334 -86 197.001 -86z" />
    <glyph glyph-name="Cdotaccent" unicode="&#x10a;" horiz-adv-x="1390" 
d="M979 1864c15.333 0 29 -3.5 41 -10.5s21.5 -16.5 28.5 -28.5s10.5 -25.667 10.5 -41c0 -23.333 -7.83301 -43 -23.5 -59s-35.5 -24 -59.5 -24c-14.667 0 -28 3.5 -40 10.5s-21.5 16.5 -28.5 28.5s-10.5 25.667 -10.5 41c0 24 7.83301 43.833 23.5 59.5
s35.167 23.5 58.5 23.5zM1237 233c-67.333 -74 -146.665 -133.002 -237.998 -177.002s-186 -66 -284 -66c-82.667 0 -158.5 13.833 -227.5 41.5s-128 67.334 -177 119.001s-87.167 116 -114.5 193s-41 163.167 -41 258.5c0 90.667 11.5 179 34.5 265s56.333 165 100 237
s95 135 154 189s127 96.167 204 126.5s157.833 45.5 242.5 45.5c204.667 0 371 -103.333 499 -310l-98 -66c-54 93.333 -113.5 161.166 -178.5 203.499s-139.5 63.5 -223.5 63.5c-60 0 -117.667 -9.66699 -173 -29s-105.5 -46.166 -150.5 -80.499
s-85.833 -75.166 -122.5 -122.499s-67.334 -98.666 -92.001 -153.999s-43.834 -114.166 -57.501 -176.499s-20.5 -125.5 -20.5 -189.5c0 -156 39.833 -279.167 119.5 -369.5s188.834 -135.5 327.501 -135.5c29.333 0 59.333 2.83301 90 8.5s61.167 14.167 91.5 25.5
s60 25.166 89 41.499s57.167 35.666 84.5 57.999s52.666 46.833 75.999 73.5z" />
    <glyph glyph-name="cdotaccent" unicode="&#x10b;" horiz-adv-x="998" 
d="M678 1379c22.667 0 41.667 -7.66699 57 -23s23 -34.333 23 -57c0 -23.333 -7.83301 -43 -23.5 -59s-35.5 -24 -59.5 -24c-22.667 0 -41.5 7.66699 -56.5 23s-22.5 34.333 -22.5 57c0 16 3.5 30.333 10.5 43s16.833 22.5 29.5 29.5s26.667 10.5 42 10.5zM475 -9
c-51.333 0 -99.499 9 -144.499 27s-85 43.667 -120 77s-62.5 76.333 -82.5 129s-30 111.667 -30 177c0 81.333 12.167 158.333 36.5 231s58.5 136.667 102.5 192s99.167 99.166 165.5 131.499s139.166 48.5 218.499 48.5c68.667 0 132.5 -13.667 191.5 -41
s106.5 -67.666 142.5 -120.999l-87 -64c-27.333 42 -62.833 73.333 -106.5 94s-91.167 31 -142.5 31c-62 0 -119.167 -13.333 -171.5 -40s-96 -62.5 -131 -107.5s-62.167 -97.667 -81.5 -158s-29 -123.833 -29 -190.5c0 -96 26.333 -172.667 79 -230
s118.334 -86 197.001 -86c127.333 0 231 46.667 311 140l83 -62c-51.333 -60 -109.333 -104.667 -174 -134s-140.334 -44 -227.001 -44z" />
    <glyph glyph-name="Ccaron" unicode="&#x10c;" horiz-adv-x="1390" 
d="M1011 1627h-105l-185 286h111l128 -211h9l183 211h116zM889 1356c-72 0 -140.336 -13.667 -205.003 -41s-121.667 -65 -171 -113s-92.166 -103.5 -128.499 -166.5s-64 -131.5 -83 -205.5s-28.5 -149.333 -28.5 -226c0 -156 39.833 -279.167 119.5 -369.5
s188.834 -135.5 327.501 -135.5c76 0 152.333 18 229 54s144 87 202 153l86 -73c-67.333 -74 -146.666 -133 -237.999 -177s-186 -66 -284 -66c-82.667 0 -158.5 13.833 -227.5 41.5s-128 67.334 -177 119.001s-87.167 116 -114.5 193s-41 163.167 -41 258.5
c0 90.667 11.5 179 34.5 265s56.333 165 100 237s95 135 154 189s127 96.167 204 126.5s157.833 45.5 242.5 45.5c204.667 0 371 -103.333 499 -310l-98 -66c-54 93.333 -113.5 161.166 -178.5 203.499s-139.5 63.5 -223.5 63.5z" />
    <glyph glyph-name="ccaron" unicode="&#x10d;" horiz-adv-x="998" 
d="M710 1142h-105l-185 286h111l128 -211h9l183 211h116zM619 903c-62 0 -119.166 -13.333 -171.499 -40s-96 -62.5 -131 -107.5s-62.167 -97.667 -81.5 -158s-29 -123.833 -29 -190.5c0 -96 26.333 -172.667 79 -230s118.334 -86 197.001 -86c127.333 0 231 46.667 311 140
l83 -62c-51.333 -60 -109.333 -104.667 -174 -134s-140.334 -44 -227.001 -44c-51.333 0 -99.5 9 -144.5 27s-85 43.667 -120 77s-62.5 76.333 -82.5 129s-30 111.667 -30 177c0 81.333 12.167 158.333 36.5 231s58.5 136.667 102.5 192s99.167 99.166 165.5 131.499
s139.166 48.5 218.499 48.5c68.667 0 132.5 -13.667 191.5 -41s106.5 -67.666 142.5 -120.999l-87 -64c-27.333 42 -62.833 73.333 -106.5 94s-91.167 31 -142.5 31z" />
    <glyph glyph-name="Dcaron" unicode="&#x10e;" horiz-adv-x="1387" 
d="M887 1627h-105l-185 286h111l128 -211h9l183 211h116zM704 1455c188 0 332.501 -52.6699 433.501 -158.003s151.5 -251 151.5 -437c0 -125.333 -18.667 -241.166 -56 -347.499s-89.333 -197.166 -156 -272.499s-148.334 -134.166 -245.001 -176.499
s-202.667 -63.5 -318 -63.5h-376l178 1455h388zM522.001 105.997c95.333 0 183.667 18.8311 265 56.498s150 89.834 206 156.501s99.667 146.334 131 239.001s47 192.667 47 300c0 154 -41 274.333 -123 361s-199.667 130 -353 130h-276l-153 -1243h256z" />
    <glyph glyph-name="dcaron" unicode="&#x10f;" horiz-adv-x="1226" 
d="M1293 1565h114l-122 -352h-84zM916 895l75.0029 613.001h106l-184 -1508h-107l32 261h-4c-46.667 -82 -103.834 -147.667 -171.501 -197s-141.5 -74 -221.5 -74c-72.667 0 -135.167 17.833 -187.5 53.5s-91.166 83.167 -116.499 142.5s-38 126.666 -38 201.999
c0 81.333 12.167 159.166 36.5 233.499s58 139.833 101 196.5s96.667 101.834 161 135.501s133.833 50.5 208.5 50.5c39.333 0 77.166 -3.5 113.499 -10.5s71.666 -18.833 105.999 -35.5s63.166 -37.667 86.499 -63h4zM457.003 88.001c70 0 135.835 24.833 197.502 74.5
s112 114.5 151 194.5s64.5 166.667 76.5 260l20 160c-22 31.333 -51.667 57 -89 77s-72.333 33.167 -105 39.5s-65.334 9.5 -98.001 9.5c-48 0 -93.333 -9.16699 -136 -27.5s-80 -43.833 -112 -76.5s-59.667 -70.667 -83 -114s-41 -90.666 -53 -141.999s-18 -104 -18 -158
c0 -88.667 21.667 -160.334 65 -215.001s104.666 -82 183.999 -82z" />
    <glyph glyph-name="Dcroat" unicode="&#x110;" horiz-adv-x="1385" 
d="M706 1455c125.333 0 232.001 -24.1689 320.001 -72.502s154.167 -116.833 198.5 -205.5s66.5 -194.334 66.5 -317.001c0 -125.333 -18.667 -241.166 -56 -347.499s-89.333 -197.166 -156 -272.499s-148.334 -134.166 -245.001 -176.499s-202.667 -63.5 -318 -63.5h-376
l86 702h-118l13 105h118l79 648h388zM524.001 105.998c95.333 0 183.667 18.8311 265 56.498s150 89.834 206 156.501s99.667 146.334 131 239.001s47 192.667 47 300c0 154 -41 274.333 -123 361s-199.667 130 -353 130h-276l-67 -542h307l-13 -105h-307l-73 -596h256z" />
    <glyph glyph-name="dcroat" unicode="&#x111;" horiz-adv-x="1123" 
d="M1185 1268l-10.9971 -81.999h-116l-145 -1186h-107l32 261h-4c-46.667 -82 -103.834 -147.667 -171.501 -197s-141.5 -74 -221.5 -74c-72.667 0 -135.167 17.833 -187.5 53.5s-91.166 83.167 -116.499 142.5s-38 126.666 -38 201.999
c0 81.333 12.167 159.166 36.5 233.499s58 139.833 101 196.5s96.667 101.834 161 135.501s133.833 50.5 208.5 50.5c39.333 0 77.166 -3.5 113.499 -10.5s71.666 -18.833 105.999 -35.5s63.166 -37.667 86.499 -63h4l35 291h-260l10 82h261l29 240h106l-29 -240h117z
M457.003 88.001c52.667 0 103.502 14.5 152.502 43.5s91.833 67.833 128.5 116.5s67.667 105 93 169s42.333 130.667 51 200l20 160c-22 31.333 -51.667 57 -89 77s-72.333 33.167 -105 39.5s-65.334 9.5 -98.001 9.5c-48 0 -93.333 -9.16699 -136 -27.5
s-80 -43.833 -112 -76.5s-59.667 -70.667 -83 -114s-41 -90.666 -53 -141.999s-18 -104 -18 -158c0 -88.667 21.667 -160.334 65 -215.001s104.666 -82 183.999 -82z" />
    <glyph glyph-name="Emacron" unicode="&#x112;" horiz-adv-x="1130" 
d="M516 1829h515l-13 -95h-515zM976 106l-12 -106h-826l178 1455h786l-12 -106h-673l-71 -570h559l-13 -106h-558l-70 -567h712z" />
    <glyph glyph-name="emacron" unicode="&#x113;" horiz-adv-x="968" 
d="M918 1339l-13 -95h-515l13 95h515zM913 763c0 -42 -10 -81.1758 -30 -117.509s-47.833 -67.666 -83.5 -93.999s-75.834 -50.166 -120.501 -71.499s-94.5 -39.166 -149.5 -53.499s-108.667 -26.166 -161 -35.499s-106.833 -16.666 -163.5 -21.999
c6.66699 -87.333 36 -155.5 88 -204.5s118 -73.5 198 -73.5c106.667 0 201.667 46.667 285 140l84 -62c-34.667 -39.333 -70 -71.666 -106 -96.999s-76.333 -45.166 -121 -59.499s-93 -21.5 -145 -21.5c-118 0 -212.5 36.833 -283.5 110.5s-106.5 174.167 -106.5 301.5
c0 80.667 12.5 157.5 37.5 230.5s59.5 136.833 103.5 191.5s98.5 98.167 163.5 130.5s135.5 48.5 211.5 48.5c20 0 40.833 -1.83301 62.5 -5.5s43.834 -9.16699 66.501 -16.5s44 -17.5 64 -30.5s38 -28.167 54 -45.5s28.667 -38.166 38 -62.499s14 -51.166 14 -80.499z
M207 465.991c56 5.33301 110.167 12.502 162.5 21.502s105.333 21.5 159 37.5s100.334 34.5 140.001 55.5s72.167 46.667 97.5 77s38 63.5 38 99.5c0 27.333 -6.33301 51.166 -19 71.499s-29.5 35.5 -50.5 45.5s-41.833 17.333 -62.5 22s-41.667 7 -63 7
c-50.667 0 -99.167 -10.667 -145.5 -32s-87.333 -50.833 -123 -88.5s-65.334 -83.834 -89.001 -138.501s-38.5 -114 -44.5 -178z" />
    <glyph glyph-name="Ebreve" unicode="&#x114;" horiz-adv-x="1130" 
d="M756 1632c-69.333 0 -124.168 24.167 -164.501 72.5s-57.5 115.5 -51.5 201.5l88 -2c-4 -57.333 4.5 -103 25.5 -137s55.833 -51 104.5 -51c52 0 95.333 17.667 130 53s56.667 81 66 137l88 -2c-15.333 -84.667 -49.166 -151.167 -101.499 -199.5
s-113.833 -72.5 -184.5 -72.5zM975.998 106l-12 -106h-826l178 1455h786l-12 -106h-673l-71 -570h559l-13 -106h-558l-70 -567h712z" />
    <glyph glyph-name="ebreve" unicode="&#x115;" horiz-adv-x="968" 
d="M643 1142c-69.333 0 -124.168 24.167 -164.501 72.5s-57.5 115.5 -51.5 201.5l88 -2c-4 -57.333 4.5 -103 25.5 -137s55.833 -51 104.5 -51c34.667 0 66 8.33301 94 25s50.5 39.167 67.5 67.5s28.5 60.833 34.5 97.5l88 -2
c-15.333 -84.667 -49.166 -151.167 -101.499 -199.5s-113.833 -72.5 -184.5 -72.5zM912.998 763c0 -42 -9.99902 -81.1709 -29.999 -117.504s-47.833 -67.666 -83.5 -93.999s-75.834 -50.166 -120.501 -71.499s-94.5 -39.166 -149.5 -53.499s-108.667 -26.166 -161 -35.499
s-106.833 -16.666 -163.5 -21.999c6.66699 -87.333 36 -155.5 88 -204.5s118 -73.5 198 -73.5c106.667 0 201.667 46.667 285 140l84 -62c-34.667 -38.667 -70 -70.834 -106 -96.501s-76.333 -45.667 -121 -60s-93 -21.5 -145 -21.5c-118 0 -212.5 36.833 -283.5 110.5
s-106.5 174.167 -106.5 301.5c0 80.667 12.5 157.5 37.5 230.5s59.5 136.833 103.5 191.5s98.5 98.167 163.5 130.5s135.5 48.5 211.5 48.5c31.333 0 63.333 -4.33301 96 -13s64.667 -21.667 96 -39s57 -42.5 77 -75.5s30 -70.833 30 -113.5zM206.999 465.996
c56 5.33301 110.167 12.502 162.5 21.502s105.333 21.5 159 37.5s100.334 34.5 140.001 55.5s72.167 46.667 97.5 77s38 63.5 38 99.5c0 27.333 -6.33301 51.166 -19 71.499s-29.5 35.5 -50.5 45.5s-41.833 17.333 -62.5 22s-41.667 7 -63 7
c-50.667 0 -99.167 -10.667 -145.5 -32s-87.333 -50.833 -123 -88.5s-65.334 -83.834 -89.001 -138.501s-38.5 -114 -44.5 -178z" />
    <glyph glyph-name="Edotaccent" unicode="&#x116;" horiz-adv-x="1130" 
d="M771 1869c15.333 0 29 -3.5 41 -10.5s21.5 -16.5 28.5 -28.5s10.5 -25.667 10.5 -41s-3.5 -29.333 -10.5 -42s-16.833 -22.667 -29.5 -30s-27 -11 -43 -11c-14.667 0 -28 3.5 -40 10.5s-21.5 16.5 -28.5 28.5s-10.5 25.667 -10.5 41c0 16 3.5 30.333 10.5 43
s16.833 22.5 29.5 29.5s26.667 10.5 42 10.5zM976 106l-12 -106h-826l178 1455h786l-12 -106h-673l-71 -570h559l-13 -106h-558l-70 -567h712z" />
    <glyph glyph-name="edotaccent" unicode="&#x117;" horiz-adv-x="968" 
d="M655 1216c-22.667 0 -41.5 7.66699 -56.5 23s-22.5 34.333 -22.5 57c0 24 7.83301 43.833 23.5 59.5s35.167 23.5 58.5 23.5c22.667 0 41.667 -7.66699 57 -23s23 -34.333 23 -57c0 -23.333 -7.83301 -43 -23.5 -59s-35.5 -24 -59.5 -24zM491 91
c106.667 0 201.668 46.6602 285.001 139.993l84 -62c-52 -59.333 -107.833 -103.833 -167.5 -133.5s-127.834 -44.5 -204.501 -44.5c-118 0 -212.5 36.833 -283.5 110.5s-106.5 174.167 -106.5 301.5c0 80.667 12.5 157.5 37.5 230.5s59.5 136.833 103.5 191.5
s98.5 98.167 163.5 130.5s135.5 48.5 211.5 48.5c20 0 40.833 -1.83301 62.5 -5.5s43.834 -9.16699 66.501 -16.5s44 -17.5 64 -30.5s38 -28.167 54 -45.5s28.667 -38.166 38 -62.499s14 -51.166 14 -80.499c0 -42 -10 -81.167 -30 -117.5s-47.833 -67.666 -83.5 -93.999
s-75.834 -50.166 -120.501 -71.499s-94.5 -39.166 -149.5 -53.499s-108.667 -26.166 -161 -35.499s-106.833 -16.666 -163.5 -21.999c6.66699 -87.333 36 -155.5 88 -204.5s118 -73.5 198 -73.5zM609.001 902.993c-50.667 0 -99.166 -10.666 -145.499 -31.999
s-87.333 -50.833 -123 -88.5s-65.334 -83.834 -89.001 -138.501s-38.5 -114 -44.5 -178c46 4 90.833 9.66699 134.5 17s88.667 16.5 135 27.5s88.5 24.333 126.5 40s72.333 33.334 103 53.001s54.667 42.667 72 69s26 54.5 26 84.5c0 27.333 -6.33301 51.166 -19 71.499
s-29.5 35.5 -50.5 45.5s-41.833 17.333 -62.5 22s-41.667 7 -63 7z" />
    <glyph glyph-name="Eogonek" unicode="&#x118;" horiz-adv-x="1130" 
d="M1090 1349h-673.001l-71 -570h559l-13 -106h-558l-70 -567h712l-12 -106c-54 -30.667 -96.667 -64.5 -128 -101.5s-47.666 -74.167 -48.999 -111.5c-1.33301 -24 5 -43.5 19 -58.5s35.333 -22.5 64 -22.5c39.333 0 73 7.66699 101 23l4 -79
c-32.667 -17.333 -74.667 -26 -126 -26c-52 0 -91.5 12.5 -118.5 37.5s-39.167 61.167 -36.5 108.5c1.33301 39.333 15 78.5 41 117.5s59.667 75.167 101 108.5l1 4h-699l178 1455h786z" />
    <glyph glyph-name="eogonek" unicode="&#x119;" horiz-adv-x="968" 
d="M491 91c106.667 0 201.664 46.6719 284.997 140.005l84 -62c-70 -80 -146.333 -132.333 -229 -157c-38.667 -14.667 -74.5 -34.5 -107.5 -59.5s-59.333 -52.667 -79 -83s-29.5 -59.5 -29.5 -87.5c0 -22.667 7.16699 -41 21.5 -55s35.833 -21 64.5 -21
c38 0 70.667 7.66699 98 23l4 -79c-32.667 -17.333 -74.667 -26 -126 -26c-32.667 0 -60.667 5.16699 -84 15.5s-41.166 25.666 -53.499 45.999s-18.5 45.166 -18.5 74.499c0 41.333 12.667 82.166 38 122.499s58.333 75.166 99 104.499v5
c-109.333 6.66699 -196.666 46.5 -261.999 119.5s-98 170.167 -98 291.5c0 80.667 12.5 157.5 37.5 230.5s59.5 136.833 103.5 191.5s98.5 98.167 163.5 130.5s135.5 48.5 211.5 48.5c20 0 40.833 -1.83301 62.5 -5.5s43.834 -9.16699 66.501 -16.5s44 -17.5 64 -30.5
s38 -28.167 54 -45.5s28.667 -38.166 38 -62.499s14 -51.166 14 -80.499c0 -36 -7.66699 -70 -23 -102s-35.833 -60.333 -61.5 -85s-57 -47.334 -94 -68.001s-76 -38.334 -117 -53.001s-85.5 -27.834 -133.5 -39.501s-94.5 -21.167 -139.5 -28.5s-91.5 -13.333 -139.5 -18
c6.66699 -87.333 36 -155.5 88 -204.5s118 -73.5 198 -73.5zM608.997 903.005c-50.667 0 -99.167 -10.665 -145.5 -31.998s-87.333 -50.833 -123 -88.5s-65.334 -83.834 -89.001 -138.501s-38.5 -114 -44.5 -178c56 5.33301 110.167 12.5 162.5 21.5s105.333 21.5 159 37.5
s100.334 34.5 140.001 55.5s72.167 46.667 97.5 77s38 63.5 38 99.5c0 27.333 -6.33301 51.166 -19 71.499s-29.5 35.5 -50.5 45.5s-41.833 17.333 -62.5 22s-41.667 7 -63 7z" />
    <glyph glyph-name="Ecaron" unicode="&#x11a;" horiz-adv-x="1130" 
d="M803 1632h-105l-185 286h111l128 -211h9l183 211h116zM1090 1349h-673l-71 -570h559l-13 -106h-558l-70 -567h712l-12 -106h-826l178 1455h786z" />
    <glyph glyph-name="ecaron" unicode="&#x11b;" horiz-adv-x="968" 
d="M690 1142h-105l-185 286h111l128 -211h9l183 211h116zM913 763c0 -42 -10 -81.1729 -30 -117.506s-47.833 -67.666 -83.5 -93.999s-75.834 -50.166 -120.501 -71.499s-94.5 -39.166 -149.5 -53.499s-108.667 -26.166 -161 -35.499s-106.833 -16.666 -163.5 -21.999
c6.66699 -87.333 36 -155.5 88 -204.5s118 -73.5 198 -73.5c106.667 0 201.667 46.667 285 140l84 -62c-34.667 -38.667 -70 -70.834 -106 -96.501s-76.333 -45.667 -121 -60s-93 -21.5 -145 -21.5c-118 0 -212.5 36.833 -283.5 110.5s-106.5 174.167 -106.5 301.5
c0 80.667 12.5 157.5 37.5 230.5s59.5 136.833 103.5 191.5s98.5 98.167 163.5 130.5s135.5 48.5 211.5 48.5c20 0 40.833 -1.83301 62.5 -5.5s43.834 -9.16699 66.501 -16.5s44 -17.5 64 -30.5s38 -28.167 54 -45.5s28.667 -38.166 38 -62.499s14 -51.166 14 -80.499z
M207 465.994c56 5.33301 110.167 12.502 162.5 21.502s105.333 21.5 159 37.5s100.334 34.5 140.001 55.5s72.167 46.667 97.5 77s38 63.5 38 99.5c0 27.333 -6.33301 51.166 -19 71.499s-29.5 35.5 -50.5 45.5s-41.833 17.333 -62.5 22s-41.667 7 -63 7
c-50.667 0 -99.167 -10.667 -145.5 -32s-87.333 -50.833 -123 -88.5s-65.334 -83.834 -89.001 -138.501s-38.5 -114 -44.5 -178z" />
    <glyph glyph-name="Gcircumflex" unicode="&#x11c;" horiz-adv-x="1457" 
d="M949 1843l-185 -216h-115l253 286h104l190 -286h-112l-131 216h-4zM766 619l13 106.004h540l-66 -547c-68 -60.667 -148.667 -107.167 -242 -139.5s-187.666 -48.5 -282.999 -48.5c-176.667 0 -316.334 53.833 -419.001 161.5s-154 257.167 -154 448.5
c0 91.333 11.5 180.166 34.5 266.499s56.333 165.333 100 237s95 134.667 154 189s127 96.666 204 126.999s157.833 45.5 242.5 45.5c195.333 0 353.333 -77.333 474 -232l-91 -74c-102.667 131.333 -231 197 -385 197c-59.333 0 -116.5 -9.33301 -171.5 -28
s-104.833 -44.834 -149.5 -78.501s-85.5 -74 -122.5 -121s-68 -98.167 -93 -153.5s-44.333 -114.833 -58 -178.5s-20.5 -128.5 -20.5 -194.5c0 -103.333 17.833 -192.833 53.5 -268.5s88.167 -133.834 157.5 -174.501s152.333 -61 249 -61c74 0 146.833 12.167 218.5 36.5
s136.167 59.5 193.5 105.5l47 379h-426z" />
    <glyph glyph-name="gcircumflex" unicode="&#x11d;" horiz-adv-x="1126" 
d="M697 1358l-185 -216h-115l253 286h104l190 -286h-112l-131 216h-4zM923 994l106.999 -0.000976562l-106 -863c-10.667 -87.333 -28 -163.333 -52 -228s-52 -117 -84 -157s-70 -72.333 -114 -97s-89 -41.5 -135 -50.5s-97.667 -13.5 -155 -13.5
c-117.333 0 -226 28 -326 84l35 99c94.667 -55.333 193.334 -83 296.001 -83c46.667 0 88.167 3.66699 124.5 11s72 21 107 41s65 46.667 90 80s47 77 66 131s33.167 118 42.5 192l19 152h-4c-46.667 -81.333 -104.167 -146.833 -172.5 -196.5s-141.833 -74.5 -220.5 -74.5
c-72.667 0 -135.167 17.833 -187.5 53.5s-91.166 83 -116.499 142s-38 126.167 -38 201.5c0 59.333 7.66699 117.5 23 174.5s37.833 110.167 67.5 159.5s64.667 92.833 105 130.5s87.333 67.334 141 89.001s110.5 32.5 170.5 32.5s116.667 -9.83301 170 -29.5
s96.666 -48.5 129.999 -86.5h4zM456.999 118.999c51.333 0 101.169 14.333 149.502 43s90.666 66.5 126.999 113.5s67.166 100.667 92.499 161s42.333 121.833 51 184.5v-1l20 159c-33.333 42.667 -77.333 74 -132 94s-106.334 30 -155.001 30
c-48 0 -93.333 -9.16699 -136 -27.5s-80 -43.333 -112 -75s-59.667 -68.167 -83 -109.5s-41 -85.5 -53 -132.5s-18 -94.5 -18 -142.5c0 -58 9.33301 -109.167 28 -153.5s46.834 -79.333 84.501 -105s83.167 -38.5 136.5 -38.5z" />
    <glyph glyph-name="Gbreve" unicode="&#x11e;" horiz-adv-x="1457" 
d="M931 1627c-45.333 0 -84.835 10.5 -118.502 31.5s-59.334 52.333 -77.001 94s-24.5 91.167 -20.5 148.5l88 -2c-2.66699 -37.333 -0.166992 -69.833 7.5 -97.5s21.834 -49.667 42.501 -66s47.334 -24.5 80.001 -24.5c52 0 95.333 17.667 130 53s56.667 81 66 137l88 -2
c-15.333 -84.667 -49.166 -151.167 -101.499 -199.5s-113.833 -72.5 -184.5 -72.5zM1319 725l-66 -546.996c-68 -60.667 -148.667 -107.167 -242 -139.5s-187.666 -48.5 -282.999 -48.5c-176.667 0 -316.334 53.833 -419.001 161.5s-154 257.167 -154 448.5
c0 91.333 11.5 180.166 34.5 266.499s56.333 165.333 100 237s95.167 134.667 154.5 189s127.333 96.666 204 126.999s157.334 45.5 242.001 45.5c195.333 0 353.333 -77.333 474 -232l-91 -74c-102.667 131.333 -231 197 -385 197c-59.333 0 -116.5 -9.33301 -171.5 -28
s-104.833 -44.834 -149.5 -78.501s-85.5 -74 -122.5 -121s-68 -98.167 -93 -153.5s-44.333 -114.833 -58 -178.5s-20.5 -128.5 -20.5 -194.5c0 -103.333 17.833 -192.833 53.5 -268.5s88.167 -133.834 157.5 -174.501s152.333 -61 249 -61c74.667 0 147.667 12.167 219 36.5
s135.666 59.5 192.999 105.5l47 379h-426l13 106h540z" />
    <glyph glyph-name="gbreve" unicode="&#x11f;" horiz-adv-x="1126" 
d="M679 1142c-69.333 0 -124.168 24.167 -164.501 72.5s-57.5 115.5 -51.5 201.5l88 -2c-4 -57.333 4.5 -103 25.5 -137s55.833 -51 104.5 -51c34.667 0 66 8.33301 94 25s50.5 39.167 67.5 67.5s28.5 60.833 34.5 97.5l88 -2
c-15.333 -84.667 -49.166 -151.167 -101.499 -199.5s-113.833 -72.5 -184.5 -72.5zM922.998 994l107 -0.000976562l-106 -863c-10.667 -87.333 -28 -163.333 -52 -228s-52 -117 -84 -157s-70.167 -72.333 -114.5 -97s-89.333 -41.5 -135 -50.5s-97.167 -13.5 -154.5 -13.5
c-117.333 0 -226 28 -326 84l35 99c94 -55.333 192.667 -83 296 -83c46.667 0 88.167 3.66699 124.5 11s72 21 107 41s65 46.667 90 80s47 77 66 131s33.167 118 42.5 192l19 152h-4c-46.667 -81.333 -104.167 -146.833 -172.5 -196.5s-141.833 -74.5 -220.5 -74.5
c-72.667 0 -135.167 17.833 -187.5 53.5s-91.166 83 -116.499 142s-38 126.167 -38 201.5c0 59.333 7.66699 117.5 23 174.5s37.833 110.167 67.5 159.5s64.667 92.833 105 130.5s87.333 67.334 141 89.001s110.5 32.5 170.5 32.5s116.667 -9.83301 170 -29.5
s96.666 -48.5 129.999 -86.5h4zM456.998 118.999c51.333 0 101.169 14.333 149.502 43s90.666 66.5 126.999 113.5s67.166 100.667 92.499 161s42.333 121.833 51 184.5v-1l20 159c-33.333 42.667 -77.333 74 -132 94s-106.334 30 -155.001 30
c-48 0 -93.333 -9.16699 -136 -27.5s-80 -43.333 -112 -75s-59.667 -68.167 -83 -109.5s-41 -85.5 -53 -132.5s-18 -94.5 -18 -142.5c0 -58 9.33301 -109.167 28 -153.5s46.834 -79.333 84.501 -105s83.167 -38.5 136.5 -38.5z" />
    <glyph glyph-name="Gdotaccent" unicode="&#x120;" horiz-adv-x="1457" 
d="M946 1864c22.667 0 41.667 -7.66699 57 -23s23 -34.333 23 -57c0 -23.333 -7.83301 -43 -23.5 -59s-35.5 -24 -59.5 -24c-22.667 0 -41.5 7.66699 -56.5 23s-22.5 34.333 -22.5 57c0 24 7.83301 43.833 23.5 59.5s35.167 23.5 58.5 23.5zM1319 725l-66 -546.996
c-68 -60.667 -148.667 -107.167 -242 -139.5s-187.666 -48.5 -282.999 -48.5c-176.667 0 -316.334 53.833 -419.001 161.5s-154 257.167 -154 448.5c0 91.333 11.5 180.166 34.5 266.499s56.333 165.333 100 237s95 134.667 154 189s127 96.666 204 126.999
s157.833 45.5 242.5 45.5c195.333 0 353.333 -77.333 474 -232l-91 -74c-102.667 131.333 -231 197 -385 197c-59.333 0 -116.5 -9.33301 -171.5 -28s-104.833 -44.834 -149.5 -78.501s-85.5 -74 -122.5 -121s-68 -98.167 -93 -153.5s-44.333 -114.833 -58 -178.5
s-20.5 -128.5 -20.5 -194.5c0 -103.333 17.833 -192.833 53.5 -268.5s88.167 -133.834 157.5 -174.501s152.333 -61 249 -61c74 0 146.833 12.167 218.5 36.5s136.167 59.5 193.5 105.5l47 379h-426l13 106h540z" />
    <glyph glyph-name="gdotaccent" unicode="&#x121;" horiz-adv-x="1126" 
d="M691 1216c-14.667 0 -28 3.5 -40 10.5s-21.5 16.5 -28.5 28.5s-10.5 25.667 -10.5 41c0 16 3.5 30.333 10.5 43s16.833 22.5 29.5 29.5s26.667 10.5 42 10.5c22.667 0 41.667 -7.66699 57 -23s23 -34.333 23 -57c0 -15.333 -3.5 -29.333 -10.5 -42
s-16.833 -22.667 -29.5 -30s-27 -11 -43 -11zM923 994l107 -0.000976562l-106 -863c-10.667 -87.333 -28 -163.333 -52 -228s-52 -117 -84 -157s-70.167 -72.333 -114.5 -97s-89.333 -41.5 -135 -50.5s-97.167 -13.5 -154.5 -13.5c-117.333 0 -226 28 -326 84l35 99
c94 -55.333 192.667 -83 296 -83c46.667 0 88.167 3.66699 124.5 11s72 21 107 41s65 46.667 90 80s47 77 66 131s33.167 118 42.5 192l19 152h-4c-46.667 -81.333 -104.167 -146.833 -172.5 -196.5s-141.833 -74.5 -220.5 -74.5c-72.667 0 -135.167 17.833 -187.5 53.5
s-91.166 83 -116.499 142s-38 126.167 -38 201.5c0 59.333 7.66699 117.5 23 174.5s37.833 110.167 67.5 159.5s64.667 92.833 105 130.5s87.333 67.334 141 89.001s110.5 32.5 170.5 32.5s116.667 -9.83301 170 -29.5s96.666 -48.5 129.999 -86.5h4zM457 118.999
c51.333 0 101.169 14.333 149.502 43s90.666 66.5 126.999 113.5s67.166 100.667 92.499 161s42.333 121.833 51 184.5v-1l20 159c-33.333 42.667 -77.333 74 -132 94s-106.334 30 -155.001 30c-48 0 -93.333 -9.16699 -136 -27.5s-80 -43.333 -112 -75
s-59.667 -68.167 -83 -109.5s-41 -85.5 -53 -132.5s-18 -94.5 -18 -142.5c0 -58 9.33301 -109.167 28 -153.5s46.834 -79.333 84.501 -105s83.167 -38.5 136.5 -38.5z" />
    <glyph glyph-name="Gcommaaccent" unicode="&#x122;" horiz-adv-x="1457" 
d="M1319 725l-66 -546.996c-68 -60.667 -148.667 -107.167 -242 -139.5s-187.666 -48.5 -282.999 -48.5c-176.667 0 -316.334 53.833 -419.001 161.5s-154 257.167 -154 448.5c0 91.333 11.5 180.166 34.5 266.499s56.333 165.333 100 237s95 134.667 154 189
s127 96.666 204 126.999s157.833 45.5 242.5 45.5c195.333 0 353.333 -77.333 474 -232l-91 -74c-102.667 131.333 -231 197 -385 197c-59.333 0 -116.5 -9.33301 -171.5 -28s-104.833 -44.834 -149.5 -78.501s-85.5 -74 -122.5 -121s-68 -98.167 -93 -153.5
s-44.333 -114.833 -58 -178.5s-20.5 -128.5 -20.5 -194.5c0 -103.333 17.833 -192.833 53.5 -268.5s88.167 -133.834 157.5 -174.501s152.333 -61 249 -61c74 0 146.833 12.167 218.5 36.5s136.167 59.5 193.5 105.5l47 379h-426l13 106h540zM746 -110.996
c0 -0.666992 0.166992 -5.33594 0.5 -14.0029s0.5 -18.667 0.5 -30c0 -79.333 -17.667 -142.166 -53 -188.499s-90 -72.166 -164 -77.499l-18 69c33.333 5.33301 60 15.5 80 30.5s34.833 36.333 44.5 64s14.5 62.834 14.5 105.501c0 17.333 -0.333008 31 -1 41h96z" />
    <glyph glyph-name="gcommaaccent" unicode="&#x123;" horiz-adv-x="1126" 
d="M734 1135h-96.001c0 0.666992 -0.166992 5.33398 -0.5 14.001s-0.5 18.667 -0.5 30c0 52 7.33301 96.833 22 134.5s38.334 68.167 71.001 91.5s74 36.666 124 39.999l18 -69c-49.333 -7.33301 -84.833 -26.5 -106.5 -57.5s-32.5 -78.5 -32.5 -142.5
c0 -17.333 0.333008 -31 1 -41zM922.999 994l107 -0.000976562l-106 -863c-10.667 -87.333 -28 -163.333 -52 -228s-52 -117 -84 -157s-70.167 -72.333 -114.5 -97s-89.333 -41.5 -135 -50.5s-97.167 -13.5 -154.5 -13.5c-117.333 0 -226 28 -326 84l35 99
c94 -55.333 192.667 -83 296 -83c46.667 0 88.167 3.66699 124.5 11s72 21 107 41s65 46.667 90 80s47 77 66 131s33.167 118 42.5 192l19 152h-4c-46.667 -81.333 -104.167 -146.833 -172.5 -196.5s-141.833 -74.5 -220.5 -74.5c-72.667 0 -135.167 17.833 -187.5 53.5
s-91.166 83 -116.499 142s-38 126.167 -38 201.5c0 59.333 7.66699 117.5 23 174.5s37.833 110.167 67.5 159.5s64.667 92.833 105 130.5s87.333 67.334 141 89.001s110.5 32.5 170.5 32.5s116.667 -9.83301 170 -29.5s96.666 -48.5 129.999 -86.5h4zM456.999 118.999
c51.333 0 101.169 14.333 149.502 43s90.666 66.5 126.999 113.5s67.166 100.667 92.499 161s42.333 121.833 51 184.5v-1l20 159c-33.333 42.667 -77.333 74 -132 94s-106.334 30 -155.001 30c-48 0 -93.333 -9.16699 -136 -27.5s-80 -43.333 -112 -75
s-59.667 -68.167 -83 -109.5s-41 -85.5 -53 -132.5s-18 -94.5 -18 -142.5c0 -58 9.33301 -109.167 28 -153.5s46.834 -79.333 84.501 -105s83.167 -38.5 136.5 -38.5z" />
    <glyph glyph-name="Hcircumflex" unicode="&#x124;" horiz-adv-x="1382" 
d="M863 1843l-185 -216h-115l253 286h104l190 -286h-112l-131 216h-4zM1187 1455h114l-178 -1455h-114l78 635h-757l-78 -635h-114l178 1455h114l-88 -714h757z" />
    <glyph glyph-name="hcircumflex" unicode="&#x125;" horiz-adv-x="1122" 
d="M646 1868l-185 -216h-115l253 286h104l190 -286h-112l-131 216h-4zM738 1004c98.667 0 168.999 -33 210.999 -99s53.667 -168.333 35 -307l-79 -598h-107l78 591c6.66699 60 8.33398 110 5.00098 150s-13.166 72 -29.499 96s-35.833 41.167 -58.5 51.5s-50 15.5 -82 15.5
c-45.333 0 -92.333 -13 -141 -39s-93.334 -60.5 -134.001 -103.5s-76 -95 -106 -156s-49.333 -124.167 -58 -189.5l-51 -416h-107l184 1508h107l-92 -755h4c55.333 78.667 120.333 140.167 195 184.5s150 66.5 226 66.5z" />
    <glyph glyph-name="Hbar" unicode="&#x126;" horiz-adv-x="1387" 
d="M1372 1177l-10 -83h-103l-134 -1094h-114l78 635h-757l-78 -635h-114l134 1094h-123l10 83h123l34 278h114l-34 -278h757l34 278h114l-34 -278h103zM1101 741l44 353h-757l-44 -353h757z" />
    <glyph glyph-name="hbar" unicode="&#x127;" horiz-adv-x="1123" 
d="M739 1004c98.667 0 169.003 -32.9971 211.003 -98.9971s53.667 -168.333 35 -307l-79 -598h-107l78 591c6.66699 60 8.33398 110 5.00098 150s-13.166 72 -29.499 96s-35.833 41.167 -58.5 51.5s-50 15.5 -82 15.5c-45.333 0 -92.333 -13 -141 -39
s-93.334 -60.5 -134.001 -103.5s-76 -95 -106 -156s-49.333 -124.167 -58 -189.5l-51 -416h-107l145 1186h-168l10 82h168l29 240h107l-29 -240h210l-10 -82h-210l-53 -433h4c27.333 39.333 57.666 74.666 90.999 105.999s68.166 57.666 104.499 78.999
s73.666 37.666 111.999 48.999s76.166 17 113.499 17z" />
    <glyph glyph-name="Itilde" unicode="&#x128;" horiz-adv-x="536" 
d="M102 1700c49.333 118.667 114.333 177.998 195 177.998c20 0 39.333 -3.66699 58 -11s32.5 -14.333 41.5 -21s22.167 -17.334 39.5 -32.001c2 -1.33301 7.33301 -5.66602 16 -12.999s14.334 -12 17.001 -14s7.66699 -5.83301 15 -11.5s13.166 -9.5 17.499 -11.5
s9.66602 -4.66699 15.999 -8s12.333 -5.5 18 -6.5s11.5 -1.5 17.5 -1.5c23.333 0 46.333 10.5 69 31.5s42 51.167 58 90.5l72 -30c-22.667 -60 -50.834 -105.667 -84.501 -137s-68.834 -47 -105.501 -47c-7.33301 0 -14.333 0.5 -21 1.5s-13.5 2.66699 -20.5 5
s-13 4.5 -18 6.5s-11 5.16699 -18 9.5s-12.333 7.5 -16 9.5s-9.16699 6 -16.5 12s-12.166 9.83301 -14.499 11.5s-7.16602 5.83398 -14.499 12.501s-11.666 10.334 -12.999 11.001c-42 34 -76.667 51 -104 51c-52 0 -96 -40.333 -132 -121zM265 -0.00195312h-115l178 1455
h114z" />
    <glyph glyph-name="itilde" unicode="&#x129;" horiz-adv-x="470" 
d="M21 1215c48 118.667 111.332 178.002 189.999 178.002c28 0 51.833 -5.5 71.5 -16.5s40.834 -26.833 63.501 -47.5c6 -4.66699 15.333 -11.834 28 -21.501s22.5 -17.167 29.5 -22.5s15.833 -10.333 26.5 -15s20.667 -7 30 -7c23.333 0 46 10.5 68 31.5
s40.667 51.167 56 90.5l69 -30c-22.667 -60 -50.167 -105.667 -82.5 -137s-66.166 -47 -101.499 -47c-14.667 0 -28.834 2.16699 -42.501 6.5s-28 11.666 -43 21.999s-25.5 18 -31.5 23s-16.667 14.5 -32 28.5c-15.333 11.333 -27.166 19.833 -35.499 25.5
s-18.833 11.167 -31.5 16.5s-24.334 8 -35.001 8c-24.667 0 -48 -10.5 -70 -31.5s-41.333 -50.833 -58 -89.5zM241.999 994.002h106l-121 -994h-107z" />
    <glyph glyph-name="Imacron" unicode="&#x12a;" horiz-adv-x="536" 
d="M177 1824h515l-13 -95h-515zM265 0h-115l178 1455h114z" />
    <glyph glyph-name="imacron" unicode="&#x12b;" horiz-adv-x="470" 
d="M83 1339h515l-13 -95h-515zM242 994h106l-121 -994h-107z" />
    <glyph glyph-name="Ibreve" unicode="&#x12c;" horiz-adv-x="536" 
d="M417 1627c-69.333 0 -124.168 24.167 -164.501 72.5s-57.5 115.5 -51.5 201.5l88 -2c-4 -57.333 4.5 -103 25.5 -137s55.833 -51 104.5 -51c52 0 95.333 17.667 130 53s56.667 81 66 137l88 -2c-15.333 -84.667 -49.166 -151.167 -101.499 -199.5
s-113.833 -72.5 -184.5 -72.5zM264.998 0h-115l178 1455h114z" />
    <glyph glyph-name="ibreve" unicode="&#x12d;" horiz-adv-x="470" 
d="M323 1142c-42.667 0 -79.667 10.5 -111 31.5s-55.166 52.333 -71.499 94s-22.5 91.167 -18.5 148.5l86 -2c-5.33301 -57.333 1.66699 -103 21 -137s51.666 -51 96.999 -51c31.333 0 58.833 8.5 82.5 25.5s42.167 39.5 55.5 67.5s22.333 60.333 27 97l89 -2
c-14.667 -85.333 -45.167 -152 -91.5 -200s-101.5 -72 -165.5 -72zM242 994h106l-121 -994h-107z" />
    <glyph glyph-name="Iogonek" unicode="&#x12e;" horiz-adv-x="536" 
d="M171 -294c39.333 0 73 7.66797 101 23.001l4 -79c-32.667 -17.333 -74.667 -26 -126 -26c-52 0 -91.5 12.5 -118.5 37.5s-39.167 61.167 -36.5 108.5c2 41.333 17.167 82.666 45.5 123.999s65.166 79 110.499 113l177 1448h114l-177 -1455
c-54 -30.667 -96.667 -64.5 -128 -101.5s-47.666 -74.167 -48.999 -111.5c-1.33301 -24 5 -43.5 19 -58.5s35.333 -22.5 64 -22.5z" />
    <glyph glyph-name="iogonek" unicode="&#x12f;" horiz-adv-x="470" 
d="M338 1379c22.667 0 41.667 -7.66699 57 -23s23 -34.333 23 -57c0 -23.333 -7.83301 -43 -23.5 -59s-35.5 -24 -59.5 -24c-22.667 0 -41.5 7.66699 -56.5 23s-22.5 34.333 -22.5 57c0 24 7.83301 43.833 23.5 59.5s35.167 23.5 58.5 23.5zM227 0
c-36 -20.667 -66.998 -42.501 -92.998 -65.501s-46.333 -47.167 -61 -72.5s-22.334 -50.333 -23.001 -75c-1.33301 -24 5 -43.5 19 -58.5s35.333 -22.5 64 -22.5c39.333 0 73 7.66699 101 23l4 -79c-32.667 -17.333 -74.667 -26 -126 -26c-52 0 -91.5 12.5 -118.5 37.5
s-39.167 61.167 -36.5 108.5c2 42.667 18.167 85.334 48.5 128.001s69.166 81 116.499 115l120 981h106z" />
    <glyph glyph-name="Idotaccent" unicode="&#x130;" horiz-adv-x="536" 
d="M432 1864c22.667 0 41.667 -7.66699 57 -23s23 -34.333 23 -57c0 -23.333 -7.83301 -43 -23.5 -59s-35.5 -24 -59.5 -24c-22.667 0 -41.5 7.66699 -56.5 23s-22.5 34.333 -22.5 57c0 16 3.5 30.333 10.5 43s16.833 22.5 29.5 29.5s26.667 10.5 42 10.5zM265 0h-115
l178 1455h114z" />
    <glyph glyph-name="dotlessi" unicode="&#x131;" horiz-adv-x="470" 
d="M242 994h106l-121 -994h-107z" />
    <glyph glyph-name="IJ" unicode="&#x132;" horiz-adv-x="1475" 
d="M265 0h-115l178 1455h114zM642 265c31.333 -51.333 69.167 -91.833 113.5 -121.5s93.833 -44.5 148.5 -44.5c73.333 0 134.333 29.333 183 88s81 151.667 97 279l121 989h114l-121 -995c-38.667 -313.333 -168.667 -470 -390 -470c-72 0 -137.667 16.5 -197 49.5
s-108.333 80.5 -147 142.5z" />
    <glyph glyph-name="ij" unicode="&#x133;" horiz-adv-x="869" 
d="M338 1379c22.667 0 41.667 -7.66699 57 -23s23 -34.333 23 -57c0 -23.333 -7.83301 -43 -23.5 -59s-35.5 -24 -59.5 -24c-22.667 0 -41.5 7.66699 -56.5 23s-22.5 34.333 -22.5 57c0 24 7.83301 43.833 23.5 59.5s35.167 23.5 58.5 23.5zM763 1379
c22.667 0 41.667 -7.66699 57 -23s23 -34.333 23 -57c0 -23.333 -7.83301 -43 -23.5 -59s-35.5 -24 -59.5 -24c-11.333 0 -21.833 2 -31.5 6s-18 9.5 -25 16.5s-12.5 15.5 -16.5 25.5s-6 20.667 -6 32c0 16 3.5 30.333 10.5 43s16.833 22.5 29.5 29.5s26.667 10.5 42 10.5z
M242 994h106l-121 -994h-107zM275 -286c10 -7.33301 19.167 -13.166 27.5 -17.499s16.833 -7.5 25.5 -9.5s16.334 -3.33301 23.001 -4s15 -1 25 -1c20 0 37.667 3 53 9s30.166 16.667 44.499 32s26.333 37.666 36 66.999s17.167 65.333 22.5 108l134 1096h107l-136 -1109
c-12.667 -102 -39.167 -177.5 -79.5 -226.5s-97.5 -73.5 -171.5 -73.5c-50 0 -95.333 12.333 -136 37z" />
    <glyph glyph-name="Jcircumflex" unicode="&#x134;" horiz-adv-x="939" 
d="M931 1913l190 -286h-112l-131 216h-4l-185 -216h-115l253 286h104zM648 466l121 988.999h114l-121 -995c-38.667 -313.333 -168.667 -470 -390 -470c-72 0 -137.667 16.5 -197 49.5s-108.333 80.5 -147 142.5l78 83c31.333 -51.333 69.166 -91.833 113.499 -121.5
s93.833 -44.5 148.5 -44.5c35.333 0 67.833 6.66699 97.5 20s56.834 34.333 81.501 63s45.667 66.834 63 114.501s30 104.167 38 169.5z" />
    <glyph glyph-name="jcircumflex" unicode="&#x135;" horiz-adv-x="399" 
d="M353 1428l190 -286h-112l-131 216h-4l-185 -216h-115l253 286h104zM62 -102l134 1096h107l-136 -1109c-8.66699 -68 -23 -123.833 -43 -167.5s-47.167 -76.667 -81.5 -99s-76.5 -33.5 -126.5 -33.5s-95.333 12.333 -136 37l25 92
c10 -7.33301 19.167 -13.166 27.5 -17.499s16.833 -7.5 25.5 -9.5s16.334 -3.33301 23.001 -4s15 -1 25 -1c20 0 37.667 3 53 9s30.166 16.667 44.499 32s26.333 37.666 36 66.999s17.167 65.333 22.5 108z" />
    <glyph glyph-name="Kcommaaccent" unicode="&#x136;" horiz-adv-x="1227" 
d="M1248 1455l-601 -677l433 -778h-139l-378 679h-4l-260 -293l-47 -386h-114l178 1455h114l-107 -877h3l775 877h147zM495 -111l96 -0.00390625c0 -1.33301 0.166992 -6.16602 0.5 -14.499s0.5 -18.166 0.5 -29.499c0 -79.333 -17.667 -142.166 -53 -188.499
s-90 -72.166 -164 -77.499l-18 69c49.333 7.33301 84.833 26.5 106.5 57.5s32.5 78.5 32.5 142.5c0 17.333 -0.333008 31 -1 41z" />
    <glyph glyph-name="kcommaaccent" unicode="&#x137;" horiz-adv-x="999" 
d="M709 282c23.333 -54 43.668 -95.1709 61.001 -123.504s33.166 -47.666 47.499 -57.999s32.833 -17.833 55.5 -22.5l-31 -87c-12 -0.666992 -24 0 -36 2c-13.333 2 -25.833 5.83301 -37.5 11.5s-22 11.667 -31 18s-18.333 15.833 -28 28.5s-17.5 23.667 -23.5 33
s-13.667 23.5 -23 42.5s-16.5 34.333 -21.5 46s-12.833 29.834 -23.5 54.501c-1.33301 2.66699 -2.33301 5 -3 7s-1.66699 4.33301 -3 7s-2.33301 5 -3 7l-70 162h-4c-92 -75.333 -188.667 -137.666 -290 -186.999l-27 -223h-107l185 1508h107l-142 -1164h6
c138 77.333 258.5 175.333 361.5 294s173.5 237.334 211.5 356.001h110c-24 -88.667 -64.667 -176.5 -122 -263.5s-126.333 -168.5 -207 -244.5zM381.002 -111.004l96 -0.000976562c0 -1.33301 0.166992 -6.33301 0.5 -15s0.5 -18.334 0.5 -29.001
c0 -79.333 -17.667 -142.166 -53 -188.499s-90 -72.166 -164 -77.499l-18 69c49.333 7.33301 84.833 26.5 106.5 57.5s32.5 78.5 32.5 142.5c0 17.333 -0.333008 31 -1 41z" />
    <glyph glyph-name="kgreenlandic" unicode="&#x138;" horiz-adv-x="999" 
d="M709 282c23.333 -54 43.668 -95.168 61.001 -123.501s33.166 -47.666 47.499 -57.999s32.833 -17.833 55.5 -22.5l-31 -87c-12 -0.666992 -24 0 -36 2c-13.333 2 -25.833 5.83301 -37.5 11.5s-22 11.667 -31 18s-18.333 15.833 -28 28.5s-17.5 23.667 -23.5 33
s-13.667 23.5 -23 42.5s-16.5 34.333 -21.5 46s-12.833 29.834 -23.5 54.501c-1.33301 2.66699 -2.33301 5 -3 7s-1.66699 4.33301 -3 7s-2.33301 5 -3 7l-70 163h-3c-94 -76.667 -191 -139.334 -291 -188.001l-27 -223h-107l122 994h107l-79 -651h4
c138.667 77.333 259.667 175.5 363 294.5s174 237.833 212 356.5h110c-24 -88.667 -64.667 -176.5 -122 -263.5s-126.333 -168.5 -207 -244.5z" />
    <glyph glyph-name="Lacute" unicode="&#x139;" horiz-adv-x="1055" 
d="M769 1913h127l-263 -283h-118zM945 106l-13 -106h-794l178 1455h114l-165 -1349h680z" />
    <glyph glyph-name="lacute" unicode="&#x13a;" horiz-adv-x="457" 
d="M585 1940h127l-263 -283h-118zM308 1508h107l-184 -1508h-107z" />
    <glyph glyph-name="Lcommaaccent" unicode="&#x13b;" horiz-adv-x="1055" 
d="M945 106l-13 -106h-794l178 1455h114l-165 -1349h680zM559 -111c0 -1.33301 0.166992 -6.16992 0.5 -14.5029s0.5 -18.166 0.5 -29.499c0 -79.333 -17.667 -142.166 -53 -188.499s-90 -72.166 -164 -77.499l-18 69c49.333 7.33301 84.833 26.5 106.5 57.5
s32.5 78.5 32.5 142.5c0 17.333 -0.333008 31 -1 41h96z" />
    <glyph glyph-name="lcommaaccent" unicode="&#x13c;" horiz-adv-x="457" 
d="M308 1508h107l-184 -1508h-107zM212 -111c0 -1.33301 0.168945 -6.16895 0.501953 -14.502s0.5 -18.166 0.5 -29.499c0 -79.333 -17.667 -142.166 -53 -188.499s-90 -72.166 -164 -77.499l-18 69c24.667 4 45.667 10.5 63 19.5s31.666 21.667 42.999 38
s19.666 36.166 24.999 59.499s8 51 8 83c0 17.333 -0.333008 31 -1 41h96z" />
    <glyph glyph-name="Lcaron" unicode="&#x13d;" horiz-adv-x="1055" 
d="M704 1565h113l-120 -352h-84zM945 106l-13 -106h-794l178 1455h114l-165 -1349h680z" />
    <glyph glyph-name="lcaron" unicode="&#x13e;" horiz-adv-x="543" 
d="M611 1565h114l-121 -352h-85zM308 1508h107l-184 -1508h-107z" />
    <glyph glyph-name="Ldot" unicode="&#x13f;" horiz-adv-x="1055" 
d="M945 106l-13 -106h-794l178 1455h114l-165 -1349h680zM784 769c15.333 0 29 -3.5 41 -10.5s21.5 -16.5 28.5 -28.5s10.5 -25.667 10.5 -41c0 -24 -7.83301 -43.833 -23.5 -59.5s-35.5 -23.5 -59.5 -23.5c-22.667 0 -41.5 7.66699 -56.5 23s-22.5 34.333 -22.5 57
c0 16 3.5 30.333 10.5 43s16.833 22.5 29.5 29.5s26.667 10.5 42 10.5z" />
    <glyph glyph-name="ldot" unicode="&#x140;" horiz-adv-x="615" 
d="M308 1508h107l-184 -1508h-107zM557 617c22.667 0 41.668 -7.66797 57.001 -23.001s23 -34.333 23 -57c0 -24 -7.83301 -43.833 -23.5 -59.5s-35.5 -23.5 -59.5 -23.5c-22.667 0 -41.5 7.66699 -56.5 23s-22.5 34.333 -22.5 57c0 9.33301 1.33301 18.333 4 27
s6.5 16.334 11.5 23.001s10.833 12.5 17.5 17.5s14.167 8.83301 22.5 11.5s17.166 4 26.499 4z" />
    <glyph glyph-name="Lslash" unicode="&#x141;" horiz-adv-x="1075" 
d="M285 106h680l-13 -106h-794l74 605l-172 -83l13 102l171 83l92 748h114l-84 -689l180 87l-13 -103l-180 -87z" />
    <glyph glyph-name="lslash" unicode="&#x142;" horiz-adv-x="482" 
d="M462 810l-12 -107l-131 -62l-78 -641h-107l72 587l-132 -63l12 107l133 63l99 814h107l-93 -760z" />
    <glyph glyph-name="Nacute" unicode="&#x143;" horiz-adv-x="1441" 
d="M1090 1913l-263 -283h-118l254 283h127zM1244 1455h114l-177 -1455h-121l-651 1248h-4l-153 -1248h-114l178 1455h116l654 -1255h5z" />
    <glyph glyph-name="nacute" unicode="&#x144;" horiz-adv-x="1120" 
d="M949 1428l-263 -283h-118l254 283h127zM736 1004c98.667 0 168.999 -33 210.999 -99s53.667 -168.333 35 -307l-79 -598h-107l78 591c6.66699 60 8.33398 110 5.00098 150s-13.166 72 -29.499 96s-35.833 41 -58.5 51s-50 15 -82 15
c-45.333 0 -92.333 -12.833 -141 -38.5s-93.334 -60 -134.001 -103s-76 -94.833 -106 -155.5s-49.333 -123.667 -58 -189l-51 -417h-107l122 994h106l-30 -243h4c55.333 79.333 120.5 141.333 195.5 186s150.5 67 226.5 67z" />
    <glyph glyph-name="Ncommaaccent" unicode="&#x145;" horiz-adv-x="1441" 
d="M1244 1455h114l-177 -1455h-121l-651 1248h-4l-153 -1248h-114l178 1455h116l654 -1255h5zM592 -111l96 -0.00390625c0 -1.33301 0.166992 -6.16602 0.5 -14.499s0.5 -18.166 0.5 -29.499c0 -79.333 -17.667 -142.166 -53 -188.499s-90 -72.166 -164 -77.499l-18 69
c49.333 7.33301 84.833 26.5 106.5 57.5s32.5 78.5 32.5 142.5c0 17.333 -0.333008 31 -1 41z" />
    <glyph glyph-name="ncommaaccent" unicode="&#x146;" horiz-adv-x="1120" 
d="M736 1004c98.667 0 168.999 -33 210.999 -99s53.667 -168.333 35 -307l-79 -598h-107l78 591c6.66699 60 8.33398 110 5.00098 150s-13.166 72 -29.499 96s-35.833 41 -58.5 51s-50 15 -82 15c-45.333 0 -92.333 -12.833 -141 -38.5s-93.334 -60 -134.001 -103
s-76 -94.833 -106 -155.5s-49.333 -123.667 -58 -189l-51 -417h-107l122 994h106l-30 -243h4c55.333 79.333 120.5 141.333 195.5 186s150.5 67 226.5 67zM437.999 -111l96 -0.000976562c0 -0.666992 0.166992 -5.33398 0.5 -14.001s0.5 -18.667 0.5 -30
c0 -79.333 -17.667 -142.166 -53 -188.499s-90 -72.166 -164 -77.499l-18 69c49.333 7.33301 84.833 26.5 106.5 57.5s32.5 78.5 32.5 142.5c0 17.333 -0.333008 31 -1 41z" />
    <glyph glyph-name="Ncaron" unicode="&#x147;" horiz-adv-x="1441" 
d="M922 1627h-105l-185 286h111l128 -211h9l183 211h116zM1244 1455h114l-177 -1455h-121l-651 1248h-4l-153 -1248h-114l178 1455h116l654 -1255h5z" />
    <glyph glyph-name="ncaron" unicode="&#x148;" horiz-adv-x="1120" 
d="M731 1142h-105l-185 286h111l128 -211h9l183 211h116zM736 1004c98.667 0 168.999 -33 210.999 -99s53.667 -168.333 35 -307l-79 -598h-107l78 591c6.66699 60 8.33398 110 5.00098 150s-13.166 72 -29.499 96s-35.833 41 -58.5 51s-50 15 -82 15
c-45.333 0 -92.333 -12.833 -141 -38.5s-93.334 -60 -134.001 -103s-76 -94.833 -106 -155.5s-49.333 -123.667 -58 -189l-51 -417h-107l122 994h106l-30 -243h4c55.333 79.333 120.5 141.333 195.5 186s150.5 67 226.5 67z" />
    <glyph glyph-name="napostrophe" unicode="&#x149;" horiz-adv-x="1305" 
d="M213 1455h113l-120 -372h-85zM921 1004c98.667 0 168.999 -33 210.999 -99s53.667 -168.333 35 -307l-79 -598h-107l78 591c6.66699 60 8.33398 110 5.00098 150s-13.166 72 -29.499 96s-35.833 41 -58.5 51s-50 15 -82 15c-45.333 0 -92.333 -12.833 -141 -38.5
s-93.334 -60 -134.001 -103s-76 -94.833 -106 -155.5s-49.333 -123.667 -58 -189l-51 -417h-107l122 994h106l-30 -243h4c55.333 79.333 120.5 141.333 195.5 186s150.5 67 226.5 67z" />
    <glyph glyph-name="Eng" unicode="&#x14a;" horiz-adv-x="1440" 
d="M1245 1455l114.001 -0.00390625l-193 -1570c-12 -102 -38.667 -177.5 -80 -226.5s-101 -73.5 -179 -73.5c-50 0 -95.333 12.333 -136 37l26 92c18 -13.333 34.333 -22 49 -26s31.667 -6 51 -6c16 0 30.333 1.83301 43 5.5s25.167 10.334 37.5 20.001
s23.166 22.334 32.499 38.001s17.833 36.334 25.5 62.001s13.5 55.834 17.5 90.501l11 91l-654 1256h-5l-153 -1245h-114l178 1455h116l654 -1255h4z" />
    <glyph glyph-name="eng" unicode="&#x14b;" horiz-adv-x="1079" 
d="M707 1004c92 0 158.502 -32.6699 199.502 -98.0029s53.167 -163.333 36.5 -294l-94 -722c-13.333 -102 -40 -177.5 -80 -226.5s-97 -73.5 -171 -73.5c-51.333 0 -96.666 12 -135.999 36l26 92c18 -12.667 34.5 -21.167 49.5 -25.5s31.833 -6.5 50.5 -6.5
c16 0 30.333 1.83301 43 5.5s25.167 10.334 37.5 20.001s23.166 22.334 32.499 38.001s17.666 36.334 24.999 62.001s13.333 55.834 18 90.501l90 703c6.66699 56 8.33398 103.167 5.00098 141.5s-12.833 69.166 -28.5 92.499s-34.334 40 -56.001 50s-47.834 15 -78.501 15
c-38.667 0 -79.667 -12.333 -123 -37s-83.833 -57.5 -121.5 -98.5s-71 -90.667 -100 -149s-48.833 -118.5 -59.5 -180.5l-53 -439h-107l122 994h106l-30 -244h4c52.667 79.333 114 141.5 184 186.5s139.667 67.5 209 67.5z" />
    <glyph glyph-name="Omacron" unicode="&#x14c;" horiz-adv-x="1569" 
d="M707 1824h515l-13 -95h-515zM898 1464c85.333 0 163.164 -13.333 233.497 -40s130.5 -65.334 180.5 -116.001s88.833 -114.167 116.5 -190.5s41.5 -162.5 41.5 -258.5c0 -92.667 -11 -182.334 -33 -269.001s-54.5 -166.167 -97.5 -238.5s-94.167 -135.5 -153.5 -189.5
s-128.666 -96.167 -207.999 -126.5s-164 -45.5 -254 -45.5c-85.333 0 -163.166 13.667 -233.499 41s-130.333 66.666 -180 117.999s-88.167 115.166 -115.5 191.499s-41 161.833 -41 256.5c0 90.667 11.333 178.834 34 264.501s55.834 164.834 99.501 237.501
s95.334 136.334 155.001 191.001s128.667 97.334 207 128.001s161.166 46 248.499 46zM730.998 99c73.333 0 142.831 13.334 208.498 40.001s123.334 63.667 173.001 111s92.667 102.5 129 165.5s63.833 132.167 82.5 207.5s28 153 28 233
c0 80.667 -10.833 152.667 -32.5 216s-52.667 115.666 -93 156.999s-89 72.833 -146 94.5s-121.167 32.5 -192.5 32.5c-72 0 -140.5 -13.667 -205.5 -41s-122.167 -65 -171.5 -113s-92.166 -103.667 -128.499 -167s-63.833 -132.333 -82.5 -207s-28 -151 -28 -229
c0 -159.333 41 -282.5 123 -369.5s194 -130.5 336 -130.5z" />
    <glyph glyph-name="omacron" unicode="&#x14d;" horiz-adv-x="1118" 
d="M421 1339h515l-13 -95h-515zM618 1004c80.667 0 151.17 -15.498 211.503 -46.498s107.333 -77.167 141 -138.5s50.5 -135 50.5 -221c0 -84.667 -11.833 -163.834 -35.5 -237.501s-57.334 -138 -101.001 -193s-98.334 -98.333 -164.001 -130s-138.167 -47.5 -217.5 -47.5
c-124 0 -222.5 36.5 -295.5 109.5s-109.5 174.833 -109.5 305.5c0 63.333 7.66699 124.666 23 183.999s38 114 68 164s65.667 93.833 107 131.5s89.666 67 144.999 88s114.333 31.5 177 31.5zM614.003 903.002c-78 0 -148.333 -22.001 -211 -66.001
s-111.167 -103 -145.5 -177s-51.5 -155.667 -51.5 -245c0 -100 26.833 -179.167 80.5 -237.5s126.5 -87.5 218.5 -87.5c58.667 0 113.334 12.5 164.001 37.5s93.667 59.333 129 103s63.166 96.667 83.499 159s30.5 129.5 30.5 201.5
c0 102.667 -27.167 180.334 -81.5 233.001s-126.5 79 -216.5 79z" />
    <glyph glyph-name="Obreve" unicode="&#x14e;" horiz-adv-x="1569" 
d="M947 1627c-69.333 0 -124.168 24.167 -164.501 72.5s-57.5 115.5 -51.5 201.5l88 -2c-4 -57.333 4.5 -103 25.5 -137s55.833 -51 104.5 -51c52 0 95.333 17.667 130 53s56.667 81 66 137l88 -2c-15.333 -84.667 -49.166 -151.167 -101.499 -199.5
s-113.833 -72.5 -184.5 -72.5zM897.998 1464c85.333 0 163.164 -13.333 233.497 -40s130.5 -65.334 180.5 -116.001s88.833 -114.167 116.5 -190.5s41.5 -162.5 41.5 -258.5c0 -92.667 -11 -182.334 -33 -269.001s-54.5 -166.167 -97.5 -238.5s-94.167 -135.5 -153.5 -189.5
s-128.666 -96.167 -207.999 -126.5s-164 -45.5 -254 -45.5c-85.333 0 -163.166 13.667 -233.499 41s-130.333 66.666 -180 117.999s-88.167 115.166 -115.5 191.499s-41 161.833 -41 256.5c0 90.667 11.333 178.834 34 264.501s55.834 164.834 99.501 237.501
s95.334 136.334 155.001 191.001s128.667 97.334 207 128.001s161.166 46 248.499 46zM730.996 99c74 0 143.666 13.334 208.999 40.001s122.833 63.667 172.5 111s92.667 102.5 129 165.5s63.833 132.167 82.5 207.5s28 153 28 233c0 80.667 -10.833 152.667 -32.5 216
s-52.667 115.666 -93 156.999s-89 72.833 -146 94.5s-121.167 32.5 -192.5 32.5c-72 0 -140.5 -13.667 -205.5 -41s-122.167 -65 -171.5 -113s-92.166 -103.667 -128.499 -167s-63.833 -132.333 -82.5 -207s-28 -151 -28 -229c0 -159.333 41 -282.5 123 -369.5
s194 -130.5 336 -130.5z" />
    <glyph glyph-name="obreve" unicode="&#x14f;" horiz-adv-x="1118" 
d="M661 1142c-69.333 0 -124.167 24.166 -164.5 72.499s-57.5 115.5 -51.5 201.5l88 -2c-4 -57.333 4.5 -103 25.5 -137s55.833 -51 104.5 -51c34.667 0 66 8.33301 94 25s50.5 39.167 67.5 67.5s28.5 60.833 34.5 97.5l88 -2c-10 -56 -28.833 -104.667 -56.5 -146
s-61.167 -72.666 -100.5 -93.999s-82.333 -32 -129 -32zM617.999 1004c80.667 0 151.169 -15.498 211.502 -46.498s107.333 -77.167 141 -138.5s50.5 -135 50.5 -221c0 -84.667 -11.833 -163.834 -35.5 -237.501s-57.334 -138 -101.001 -193s-98.334 -98.333 -164.001 -130
s-138.167 -47.5 -217.5 -47.5c-123.333 0 -221.666 36.5 -294.999 109.5s-110 174.833 -110 305.5c0 63.333 7.66699 124.666 23 183.999s38 114 68 164s65.667 93.833 107 131.5s89.666 67 144.999 88s114.333 31.5 177 31.5zM614.001 903.001
c-78 0 -148.333 -22.001 -211 -66.001s-111.167 -103 -145.5 -177s-51.5 -155.667 -51.5 -245c0 -100 26.833 -179.167 80.5 -237.5s126.5 -87.5 218.5 -87.5c58.667 0 113.334 12.5 164.001 37.5s93.667 59.333 129 103s63.166 96.667 83.499 159s30.5 129.5 30.5 201.5
c0 102.667 -27.167 180.334 -81.5 233.001s-126.5 79 -216.5 79z" />
    <glyph glyph-name="Ohungarumlaut" unicode="&#x150;" horiz-adv-x="1569" 
d="M1015 1913h120l-263 -283h-111zM1293 1913h121l-263 -283h-110zM898 1464c85.333 0 163.165 -13.3369 233.498 -40.0039s130.5 -65.334 180.5 -116.001s88.833 -114.167 116.5 -190.5s41.5 -162.5 41.5 -258.5c0 -77.333 -7.83301 -152.666 -23.5 -225.999
s-38.167 -142.166 -67.5 -206.499s-66 -123.333 -110 -177s-93 -99.667 -147 -138s-115 -68.166 -183 -89.499s-139.667 -32 -215 -32c-85.333 0 -163.166 13.667 -233.499 41s-130.333 66.666 -180 117.999s-88.167 115.166 -115.5 191.499s-41 161.833 -41 256.5
c0 90.667 11.333 178.834 34 264.501s55.834 164.834 99.501 237.501s95.334 136.334 155.001 191.001s128.667 97.334 207 128.001s161.166 46 248.499 46zM730.999 98.9961c73.333 0 142.831 13.334 208.498 40.001s123.334 63.667 173.001 111s92.667 102.5 129 165.5
s63.833 132.167 82.5 207.5s28 153 28 233c0 80.667 -10.833 152.667 -32.5 216s-52.667 115.666 -93 156.999s-89 72.833 -146 94.5s-121.167 32.5 -192.5 32.5c-72 0 -140.5 -13.667 -205.5 -41s-122.167 -65 -171.5 -113s-92.166 -103.667 -128.499 -167
s-63.833 -132.333 -82.5 -207s-28 -151 -28 -229c0 -159.333 41 -282.5 123 -369.5s194 -130.5 336 -130.5z" />
    <glyph glyph-name="ohungarumlaut" unicode="&#x151;" horiz-adv-x="1123" 
d="M705 1428h120l-263 -283h-111zM983 1428h121l-263 -283h-110zM618 1004c80.667 0 151.17 -15.498 211.503 -46.498s107.333 -77.167 141 -138.5s50.5 -135 50.5 -221c0 -84.667 -11.833 -163.834 -35.5 -237.501s-57.334 -138 -101.001 -193
s-98.334 -98.333 -164.001 -130s-138.167 -47.5 -217.5 -47.5c-124 0 -222.5 36.5 -295.5 109.5s-109.5 174.833 -109.5 305.5c0 63.333 7.66699 124.666 23 183.999s38 114 68 164s65.667 93.833 107 131.5s89.666 67 144.999 88s114.333 31.5 177 31.5zM614.003 903.002
c-78 0 -148.333 -22.001 -211 -66.001s-111.167 -103 -145.5 -177s-51.5 -155.667 -51.5 -245c0 -100 26.833 -179.167 80.5 -237.5s126.5 -87.5 218.5 -87.5c58.667 0 113.334 12.5 164.001 37.5s93.667 59.333 129 103s63.166 96.667 83.499 159s30.5 129.5 30.5 201.5
c0 102.667 -27.167 180.334 -81.5 233.001s-126.5 79 -216.5 79z" />
    <glyph glyph-name="OE" unicode="&#x152;" horiz-adv-x="1789" 
d="M1749 1349h-670l-71 -570h556l-12 -106h-556l-70 -567h709l-12 -106h-905c-172 0 -308.833 54.167 -410.5 162.5s-152.5 256.166 -152.5 443.499c0 90 11.333 177.333 34 262s55.667 162.334 99 233.001s94.5 132.5 153.5 185.5s127.333 94.333 205 124
s159.5 44.5 245.5 44.5h869zM813 109l152 1237h-83c-70.667 0 -138 -13 -202 -39s-120.5 -62.167 -169.5 -108.5s-91.5 -100.333 -127.5 -162s-63.333 -129.167 -82 -202.5s-28 -148.666 -28 -225.999c0 -103.333 18.167 -192.666 54.5 -267.999
s88.5 -132.666 156.5 -171.999s148.667 -59 242 -59h87z" />
    <glyph glyph-name="oe" unicode="&#x153;" horiz-adv-x="1521" 
d="M1109 91c39.333 0 82.1641 12.002 128.497 36.002s86.833 58.667 121.5 104l85 -62c-43.333 -55.333 -95.166 -98.833 -155.499 -130.5s-121.166 -47.5 -182.499 -47.5c-80.667 0 -149.834 21 -207.501 63s-99.167 101 -124.5 177h-5
c-40 -74.667 -91.333 -133.334 -154 -176.001s-132.334 -64 -209.001 -64c-99.333 0 -179.5 36.333 -240.5 109s-91.5 171.334 -91.5 296.001c0 112.667 20.333 215.5 61 308.5s97 166.167 169 219.5s152.333 80 241 80c46.667 0 89.334 -9.5 128.001 -28.5
s71.834 -46.5 99.501 -82.5s48.5 -79.333 62.5 -130h4c28.667 50 63 92.833 103 128.5s85.167 63.334 135.5 83.001s103.5 29.5 159.5 29.5c76.667 0 138.834 -19.833 186.501 -59.5s71.5 -93.5 71.5 -161.5c0 -46.667 -11.5 -89.834 -34.5 -129.501
s-54 -74.334 -93 -104.001s-86.333 -56.5 -142 -80.5s-113.667 -44 -174 -60s-125.833 -30 -196.5 -42c6 -86.667 32 -154.334 78 -203.001s104.667 -73 176 -73zM413.998 91.002c43.333 0 85.332 11.833 125.999 35.5s76.334 55.834 107.001 96.501
s55.834 90.167 75.501 148.5s31.167 120.833 34.5 187.5c2.66699 52 -0.5 99.667 -9.5 143s-23 79.666 -42 108.999s-42.833 52 -71.5 68s-60.667 24 -96 24c-64.667 0 -124.167 -22 -178.5 -66s-97.333 -104.5 -129 -181.5s-47.5 -161.833 -47.5 -254.5
c0 -99.333 21.667 -175.833 65 -229.5s98.666 -80.5 165.999 -80.5zM1229 903.002c-65.333 0 -125.001 -18.499 -179.001 -55.499s-98 -89.167 -132 -156.5s-54.667 -144.666 -62 -231.999c72.667 12.667 139.334 28.167 200.001 46.5s116.5 40.166 167.5 65.499
s90.833 55.333 119.5 90s43 72.334 43 113.001c0 18.667 -3.33301 35.667 -10 51s-15.167 27.666 -25.5 36.999s-22.666 17.166 -36.999 23.499s-28.333 10.833 -42 13.5s-27.834 4 -42.501 4z" />
    <glyph glyph-name="Racute" unicode="&#x154;" horiz-adv-x="1228" 
d="M966 1913l-263 -283h-118l254 283h127zM747 599v-4.99902l294 -594h-134l-287 589h-296l-72 -589h-114l178 1455h454c123.333 0 216 -31.167 278 -93.5s93 -150.166 93 -263.499c0 -132.667 -34.5 -243.334 -103.5 -332.001s-165.833 -144.334 -290.5 -167.001zM417 1349
l-80 -654h303c118.667 0 212.167 36.667 280.5 110s102.5 171 102.5 293c0 84 -25 146.833 -75 188.5s-116.667 62.5 -200 62.5h-331z" />
    <glyph glyph-name="racute" unicode="&#x155;" horiz-adv-x="634" 
d="M713 1428l-263 -283h-118l254 283h127zM316 764c28.667 44.667 61 83.502 97 116.502s74.667 59.833 116 80.5s84.666 35 129.999 43l-15 -127c-65.333 -6 -124.5 -29.333 -177.5 -70s-96.167 -94.334 -129.5 -161.001s-55.666 -142.334 -66.999 -227.001l-51 -419h-107
l122 994h106l-28 -230h4z" />
    <glyph glyph-name="Rcommaaccent" unicode="&#x156;" horiz-adv-x="1228" 
d="M747 599v-4.99902l294 -594h-134l-287 589h-296l-72 -589h-114l178 1455h454c123.333 0 216 -31.167 278 -93.5s93 -150.166 93 -263.499c0 -132.667 -34.5 -243.334 -103.5 -332.001s-165.833 -144.334 -290.5 -167.001zM417 1349l-80 -654h303
c118.667 0 212.167 36.667 280.5 110s102.5 171 102.5 293c0 84 -25 146.833 -75 188.5s-116.667 62.5 -200 62.5h-331zM476 -110.999l96 -0.000976562c0 -0.666992 0.166992 -5.33398 0.5 -14.001s0.5 -18.667 0.5 -30c0 -79.333 -17.667 -142.166 -53 -188.499
s-90 -72.166 -164 -77.499l-18 69c49.333 7.33301 84.833 26.5 106.5 57.5s32.5 78.5 32.5 142.5c0 17.333 -0.333008 31 -1 41z" />
    <glyph glyph-name="rcommaaccent" unicode="&#x157;" horiz-adv-x="632" 
d="M316 764c43.333 66.667 94.167 120.333 152.5 161s121.833 67 190.5 79l-15 -127c-98.667 -8.66699 -181.5 -55 -248.5 -139s-108.833 -190.333 -125.5 -319l-51 -419h-107l122 994h106l-28 -230h4zM104.001 -111.001l96 -0.000976562
c0 -1.33301 0.166992 -6.33301 0.5 -15s0.5 -18.334 0.5 -29.001c0 -79.333 -17.667 -142.166 -53 -188.499s-90 -72.166 -164 -77.499l-18 69c49.333 7.33301 84.833 26.5 106.5 57.5s32.5 78.5 32.5 142.5c0 17.333 -0.333008 31 -1 41z" />
    <glyph glyph-name="Rcaron" unicode="&#x158;" horiz-adv-x="1228" 
d="M798 1627h-105l-185 286h111l128 -211h9l183 211h116zM747 599v-4.99902l294 -594h-134l-287 589h-296l-72 -589h-114l178 1455h454c123.333 0 216 -31.167 278 -93.5s93 -150.166 93 -263.499c0 -132.667 -34.5 -243.334 -103.5 -332.001
s-165.833 -144.334 -290.5 -167.001zM417 1349l-80 -654h303c118.667 0 212.167 36.667 280.5 110s102.5 171 102.5 293c0 84 -25 146.833 -75 188.5s-116.667 62.5 -200 62.5h-331z" />
    <glyph glyph-name="rcaron" unicode="&#x159;" horiz-adv-x="632" 
d="M536 1142h-105l-185 286h111l128 -211h9l183 211h116zM316 764c43.333 66.667 94.167 120.333 152.5 161s121.833 67 190.5 79l-15 -127c-98.667 -8.66699 -181.5 -55 -248.5 -139s-108.833 -190.333 -125.5 -319l-51 -419h-107l122 994h106l-28 -230h4z" />
    <glyph glyph-name="Sacute" unicode="&#x15a;" horiz-adv-x="1116" 
d="M903 1913h127l-263 -283h-118zM607 800c8.66699 -4.66699 21.6689 -12.001 39.002 -22.001c26 -14 45.5 -24.833 58.5 -32.5s31.167 -18.5 54.5 -32.5s41.166 -25.333 53.499 -34s27.833 -20.334 46.5 -35.001s33 -27.834 43 -39.501s21.167 -25.667 33.5 -42
s21.5 -32.333 27.5 -48s11.167 -33 15.5 -52s6.5 -38.5 6.5 -58.5c0 -84.667 -19.833 -158.667 -59.5 -222s-93.834 -111.166 -162.501 -143.499s-147 -48.5 -235 -48.5c-90.667 0 -177.834 20.5 -261.501 61.5s-150.5 99.167 -200.5 174.5l87 79
c42 -68.667 96 -120.167 162 -154.5s135.667 -51.5 209 -51.5c100.667 0 183 26.833 247 80.5s95.667 124.167 95 211.5c0 18.667 -2.66699 36.334 -8 53.001s-11.666 31.667 -18.999 45s-18.666 27.333 -33.999 42s-28.833 26.834 -40.5 36.501s-29 21.667 -52 36
s-41.5 25.5 -55.5 33.5s-35 19.667 -63 35c-16.667 9.33301 -29.334 16.333 -38.001 21c-4 2 -9.66699 5.33301 -17 10c-22 12 -38.5 21.167 -49.5 27.5s-26.667 15.666 -47 27.999s-36.166 22.5 -47.499 30.5s-25.833 18.333 -43.5 31s-31.334 24.334 -41.001 35.001
s-21 23.167 -34 37.5s-23.167 28.333 -30.5 42s-14.5 28.667 -21.5 45s-12 33.333 -15 51s-4.5 36.167 -4.5 55.5c0 56 10.833 107.667 32.5 155s51.667 87.333 90 120s84.333 58.167 138 76.5s111.834 27.5 174.501 27.5c74.667 0 147 -15.833 217 -47.5
s129 -75.5 177 -131.5l-85 -77c-40.667 50 -88.834 87 -144.501 111s-112.834 36 -171.501 36c-90 0 -164.333 -23.667 -223 -71s-87.667 -109.333 -87 -186c0 -20 2.83301 -39 8.5 -57s12.167 -34 19.5 -48s18.833 -28.833 34.5 -44.5s29.334 -28.5 41.001 -38.5
s29.167 -22.167 52.5 -36.5s41.833 -25.5 55.5 -33.5s34.5 -20 62.5 -36c4.66699 -2 8 -3.66699 10 -5z" />
    <glyph glyph-name="sacute" unicode="&#x15b;" horiz-adv-x="840" 
d="M690 1428h127l-263 -283h-118zM105 214c74 -84 163.331 -125.998 267.998 -125.998c70 0 127.333 16 172 48s67 75.333 67 130c0 14 -2.16699 27.5 -6.5 40.5s-9.33301 24.167 -15 33.5s-14.5 19 -26.5 29s-22.667 18.333 -32 25s-23 14.334 -41 23.001
s-32.333 15.334 -43 20.001l-48 21c-10.667 4.66699 -18.667 8 -24 10c-23.333 10 -44 19.667 -62 29s-36.667 20.166 -56 32.499s-35.833 25.166 -49.5 38.499s-26.167 28.333 -37.5 45s-19.833 35.167 -25.5 55.5s-8.5 42.166 -8.5 65.499c0 54 14.667 101.833 44 143.5
s67.833 73.167 115.5 94.5s99.5 32 155.5 32c122 0 221 -42 297 -126l-72 -74c-33.333 38 -68.666 64.5 -105.999 79.5s-79 22.5 -125 22.5c-57.333 0 -105 -15.167 -143 -45.5s-57 -71.5 -57 -123.5c0 -21.333 4.83301 -41.166 14.5 -59.499s24.334 -34.833 44.001 -49.5
s39.334 -27.334 59.001 -38.001s44.5 -22.667 74.5 -36c5.33301 -2 13 -5.33301 23 -10c24 -10.667 42.167 -18.834 54.5 -24.501s29.166 -14.334 50.499 -26.001s37.833 -21.834 49.5 -30.501s25.334 -20 41.001 -34s27.334 -28 35.001 -42s14.5 -30.5 20.5 -49.5
s9 -38.833 9 -59.5c0 -61.333 -16 -114.166 -48 -158.499s-73.833 -77 -125.5 -98s-109.834 -31.5 -174.501 -31.5c-70 0 -133.833 12.833 -191.5 38.5s-106.834 62.834 -147.501 111.501z" />
    <glyph glyph-name="Scircumflex" unicode="&#x15c;" horiz-adv-x="1116" 
d="M701 1843l-185 -216h-115l253 286h104l190 -286h-112l-131 216h-4zM607 800c8.66699 -4.66699 21.6631 -12.001 38.9961 -22.001c26 -14 45.5 -24.833 58.5 -32.5s31.167 -18.5 54.5 -32.5s41.166 -25.333 53.499 -34s27.833 -20.334 46.5 -35.001s33 -27.834 43 -39.501
s21.167 -25.667 33.5 -42s21.5 -32.333 27.5 -48s11.167 -33 15.5 -52s6.5 -38.5 6.5 -58.5c0 -84.667 -19.833 -158.667 -59.5 -222s-93.834 -111.166 -162.501 -143.499s-147 -48.5 -235 -48.5c-90.667 0 -177.834 20.5 -261.501 61.5s-150.5 99.167 -200.5 174.5l87 79
c42 -68.667 96 -120.167 162 -154.5s135.667 -51.5 209 -51.5c100.667 0 183 26.833 247 80.5s95.667 124.167 95 211.5c0 18.667 -2.66699 36.334 -8 53.001s-11.666 31.667 -18.999 45s-18.666 27.333 -33.999 42s-28.666 26.834 -39.999 36.501
s-28.666 21.667 -51.999 36s-42 25.5 -56 33.5s-35 19.667 -63 35c-16.667 9.33301 -29.334 16.333 -38.001 21c-4 2 -9.66699 5.33301 -17 10c-24 13.333 -42.333 23.5 -55 30.5s-30.167 17.5 -52.5 31.5s-39.666 25.5 -51.999 34.5s-27.666 20.833 -45.999 35.5
s-32.666 28.167 -42.999 40.5s-21.833 27 -34.5 44s-22.167 33.667 -28.5 50s-11.666 34.5 -15.999 54.5s-6.5 40.667 -6.5 62c0 56 10.833 107.667 32.5 155s51.667 87.333 90 120s84.333 58.167 138 76.5s111.834 27.5 174.501 27.5c74.667 0 147 -15.833 217 -47.5
s129 -75.5 177 -131.5l-85 -77c-40.667 50 -88.834 87 -144.501 111s-112.834 36 -171.501 36c-90 0 -164.333 -23.667 -223 -71s-87.667 -109.333 -87 -186c0 -20 2.83301 -39 8.5 -57s12.167 -34 19.5 -48s18.833 -28.833 34.5 -44.5s29.334 -28.5 41.001 -38.5
s29.167 -22.167 52.5 -36.5s41.833 -25.5 55.5 -33.5s34.5 -20 62.5 -36c4.66699 -2 8 -3.66699 10 -5z" />
    <glyph glyph-name="scircumflex" unicode="&#x15d;" horiz-adv-x="840" 
d="M525 1358l-185 -216h-115l253 286h104l190 -286h-112l-131 216h-4zM446 906c-37.333 0 -70.9971 -6.49902 -100.997 -19.499s-54 -32.5 -72 -58.5s-27 -56.333 -27 -91c0 -17.333 3.5 -33.833 10.5 -49.5s16 -29.334 27 -41.001s25.333 -23.334 43 -35.001
s34.834 -21.667 51.501 -30s36.667 -17.5 60 -27.5c5.33301 -2 13 -5.33301 23 -10c24 -10.667 42.167 -18.834 54.5 -24.501s29.166 -14.334 50.499 -26.001s37.833 -21.834 49.5 -30.501s25.334 -20 41.001 -34s27.334 -28 35.001 -42s14.5 -30.5 20.5 -49.5
s9 -38.833 9 -59.5c0 -61.333 -16 -114.166 -48 -158.499s-73.833 -77 -125.5 -98s-109.834 -31.5 -174.501 -31.5c-70 0 -133.833 12.833 -191.5 38.5s-106.834 62.834 -147.501 111.501l71 74c74 -84 163.333 -126 268 -126c70 0 127.333 16 172 48s67 75.333 67 130
c0 14 -2.16699 27.5 -6.5 40.5s-9.33301 24.167 -15 33.5s-14.5 19 -26.5 29s-22.667 18.333 -32 25s-23 14.334 -41 23.001s-32.333 15.334 -43 20.001l-48 21c-10.667 4.66699 -18.667 8 -24 10c-23.333 10 -44 19.667 -62 29s-36.667 20 -56 32
s-35.833 24.833 -49.5 38.5s-26.167 28.834 -37.5 45.501s-19.833 35.167 -25.5 55.5s-8.5 42.166 -8.5 65.499c0 54 14.667 101.833 44 143.5s67.833 73.167 115.5 94.5s99.5 32 155.5 32c122 0 221 -42 297 -126l-72 -74c-22.667 26 -46.834 46.667 -72.501 62
s-50.834 25.833 -75.501 31.5s-52.334 8.5 -83.001 8.5z" />
    <glyph glyph-name="Scedilla" unicode="&#x15e;" horiz-adv-x="1116" 
d="M607 800c104.667 -58.667 171.332 -97.6699 199.999 -117.003c92 -63.333 148 -131.333 168 -204c6.66699 -24.667 10 -49.667 10 -75c0 -84.667 -19.833 -158.667 -59.5 -222s-93.834 -111.166 -162.501 -143.499s-147 -48.5 -235 -48.5h-8l-35 -59l2 -3
c94.667 -6.66699 142 -49 142 -127c0 -50.667 -19.5 -93.667 -58.5 -129s-88.167 -53 -147.5 -53c-34.667 0 -65.334 5 -92.001 15l6 66c22 -9.33301 48.667 -14 80 -14c21.333 0 41.666 3.83301 60.999 11.5s35.666 20.5 48.999 38.5s20 39.333 20 64
c0 47.333 -47.333 72.333 -142 75l6 53l37 68c-77.333 10.667 -149.833 35.667 -217.5 75s-122.5 91 -164.5 155l87 79c42 -68.667 96 -120.167 162 -154.5s135.667 -51.5 209 -51.5c100.667 0 183 26.833 247 80.5s95.667 124.167 95 211.5
c0 18.667 -2.66699 36.334 -8 53.001s-11.666 31.667 -18.999 45s-18.666 27.333 -33.999 42s-28.666 26.834 -39.999 36.501s-28.666 21.667 -51.999 36s-42 25.5 -56 33.5s-35 19.667 -63 35c-16.667 9.33301 -29.334 16.333 -38.001 21c-4 2 -9.66699 5.33301 -17 10
c-22 12 -38.5 21.167 -49.5 27.5s-26.667 15.666 -47 27.999s-36.166 22.5 -47.499 30.5s-25.666 18.333 -42.999 31s-31 24.334 -41 35.001s-21.5 23.167 -34.5 37.5s-23.167 28.333 -30.5 42s-14.5 28.667 -21.5 45s-12 33.333 -15 51s-4.5 36.167 -4.5 55.5
c0 56 10.833 107.667 32.5 155s51.667 87.333 90 120s84.333 58.167 138 76.5s111.834 27.5 174.501 27.5c74.667 0 147 -15.833 217 -47.5s129 -75.5 177 -131.5l-85 -77c-40.667 50 -88.834 87 -144.501 111s-112.834 36 -171.501 36c-90 0 -164.333 -23.667 -223 -71
s-87.667 -109.333 -87 -186c0 -20 2.83301 -39 8.5 -57s12.167 -34 19.5 -48s18.833 -28.833 34.5 -44.5s29.334 -28.5 41.001 -38.5s29.167 -22.167 52.5 -36.5s41.833 -25.5 55.5 -33.5s34.5 -20 62.5 -36c4.66699 -2 8 -3.66699 10 -5z" />
    <glyph glyph-name="scedilla" unicode="&#x15f;" horiz-adv-x="840" 
d="M438 554c5.33301 -2 13.002 -5.33398 23.002 -10.001c24 -10.667 42.167 -18.834 54.5 -24.501s29.166 -14.334 50.499 -26.001s37.833 -21.834 49.5 -30.501s25.334 -20 41.001 -34s27.334 -28 35.001 -42s14.5 -30.5 20.5 -49.5s9 -38.833 9 -59.5
c0.666992 -61.333 -15.166 -114.166 -47.499 -158.499s-74.333 -77 -126 -98s-109.834 -31.5 -174.501 -31.5h-12l-35 -59l2 -3c94.667 -6.66699 142 -49 142 -127c0 -50.667 -19.5 -93.667 -58.5 -129s-88.167 -53 -147.5 -53c-34.667 0 -65.334 5 -92.001 15l6 66
c22 -9.33301 48.667 -14 80 -14c34 0 64.167 9.83301 90.5 29.5s39.5 47.834 39.5 84.501c0 47.333 -47.333 72.333 -142 75l6 53l38 69c-106 16 -191.333 63.667 -256 143l71 74c74 -84 163.333 -126 268 -126c70 0 127.333 16 172 48s67 75.333 67 130
c0 14 -2.16699 27.5 -6.5 40.5s-9.33301 24.167 -15 33.5s-14.5 19 -26.5 29s-22.667 18.333 -32 25s-23 14.334 -41 23.001s-32.333 15.334 -43 20.001l-48 21c-10.667 4.66699 -18.667 8 -24 10c-28.667 12.667 -53.334 24.5 -74.001 35.5s-42 24.5 -64 40.5
s-39.833 32.667 -53.5 50s-25 38 -34 62s-13.5 50 -13.5 78c0 54 14.667 101.833 44 143.5s67.833 73.167 115.5 94.5s99.5 32 155.5 32c122 0 221 -42 297 -126l-72 -74c-22.667 26 -46.834 46.667 -72.501 62s-50.834 25.833 -75.501 31.5s-52.334 8.5 -83.001 8.5
c-57.333 0 -105 -15.167 -143 -45.5s-57 -71.5 -57 -123.5c0 -21.333 4.83301 -41.166 14.5 -59.499s24.334 -34.833 44.001 -49.5s39.334 -27.334 59.001 -38.001s44.5 -22.667 74.5 -36z" />
    <glyph glyph-name="Scaron" unicode="&#x160;" horiz-adv-x="1116" 
d="M730 1627h-105l-185 286h111l128 -211h9l183 211h116zM607 800c8.66699 -4.66699 21.665 -12.001 38.998 -22.001c26 -14 45.5 -24.833 58.5 -32.5s31.167 -18.5 54.5 -32.5s41.166 -25.333 53.499 -34s27.833 -20.334 46.5 -35.001s33 -27.834 43 -39.501
s21.167 -25.667 33.5 -42s21.5 -32.333 27.5 -48s11.167 -33 15.5 -52s6.5 -38.5 6.5 -58.5c0 -84.667 -19.833 -158.667 -59.5 -222s-93.834 -111.166 -162.501 -143.499s-147 -48.5 -235 -48.5c-90.667 0 -177.834 20.5 -261.501 61.5s-150.5 99.167 -200.5 174.5l87 79
c42 -68.667 96 -120.167 162 -154.5s135.667 -51.5 209 -51.5c100.667 0 183 26.833 247 80.5s95.667 124.167 95 211.5c0 18.667 -2.66699 36.334 -8 53.001s-11.666 31.667 -18.999 45s-18.666 27.333 -33.999 42s-28.666 26.834 -39.999 36.501
s-28.666 21.667 -51.999 36s-42 25.5 -56 33.5s-35 19.667 -63 35c-16.667 9.33301 -29.334 16.333 -38.001 21c-4 2 -9.66699 5.33301 -17 10c-22 12 -38.5 21.167 -49.5 27.5s-26.667 15.666 -47 27.999s-36.166 22.5 -47.499 30.5s-25.666 18.333 -42.999 31
s-31 24.334 -41 35.001s-21.5 23.167 -34.5 37.5s-23.167 28.333 -30.5 42s-14.5 28.667 -21.5 45s-12 33.333 -15 51s-4.5 36.167 -4.5 55.5c0 56 10.833 107.667 32.5 155s51.667 87.333 90 120s84.333 58.167 138 76.5s111.834 27.5 174.501 27.5
c74.667 0 147 -15.833 217 -47.5s129 -75.5 177 -131.5l-85 -77c-40.667 50 -88.834 87 -144.501 111s-112.834 36 -171.501 36c-90 0 -164.333 -23.667 -223 -71s-87.667 -109.333 -87 -186c0 -20 2.83301 -39 8.5 -57s12.167 -34 19.5 -48s18.833 -28.833 34.5 -44.5
s29.334 -28.5 41.001 -38.5s29.167 -22.167 52.5 -36.5s41.833 -25.5 55.5 -33.5s34.5 -20 62.5 -36c4.66699 -2 8 -3.66699 10 -5z" />
    <glyph glyph-name="scaron" unicode="&#x161;" horiz-adv-x="840" 
d="M554 1142h-105l-185 286h111l128 -211h9l183 211h116zM446 906c-37.333 0 -70.9951 -6.50098 -100.995 -19.501s-54 -32.5 -72 -58.5s-27 -56.333 -27 -91c0 -21.333 4.83301 -41.166 14.5 -59.499s24.334 -34.833 44.001 -49.5s39.334 -27.334 59.001 -38.001
s44.5 -22.667 74.5 -36c5.33301 -2 13 -5.33301 23 -10c24 -10.667 42.167 -18.834 54.5 -24.501s29.166 -14.334 50.499 -26.001s37.833 -21.834 49.5 -30.501s25.167 -20 40.5 -34s27 -28 35 -42s15 -30.5 21 -49.5s9 -38.833 9 -59.5
c0 -61.333 -16 -114.166 -48 -158.499s-73.833 -77 -125.5 -98s-109.834 -31.5 -174.501 -31.5c-70 0 -133.833 12.833 -191.5 38.5s-106.834 62.834 -147.501 111.501l71 74c74 -84 163.333 -126 268 -126c70 0 127.333 16 172 48s67 75.333 67 130
c0 14 -2.16699 27.5 -6.5 40.5s-9.33301 24.167 -15 33.5s-14.5 19 -26.5 29s-22.667 18.333 -32 25s-23 14.334 -41 23.001s-32.333 15.334 -43 20.001s-27 11.667 -49 21c-10 4.66699 -17.667 8 -23 10c-28.667 12.667 -53.334 24.5 -74.001 35.5s-42 24.5 -64 40.5
s-39.833 32.667 -53.5 50s-25 38 -34 62s-13.5 50 -13.5 78c0 54 14.667 101.833 44 143.5s67.833 73.167 115.5 94.5s99.5 32 155.5 32c122 0 221 -42 297 -126l-72 -74c-22.667 26 -46.834 46.667 -72.501 62s-50.834 25.833 -75.501 31.5s-52.334 8.5 -83.001 8.5z" />
    <glyph glyph-name="uni0162" unicode="&#x162;" horiz-adv-x="1064" 
d="M183 1455l933.001 -0.000976562l-12 -106h-412l-165 -1349h-41l-41 -69l2 -3c94.667 -6.66699 142 -49 142 -127c0 -50.667 -19.5 -93.667 -58.5 -129s-88.167 -53 -147.5 -53c-34.667 0 -65.334 5 -92.001 15l6 66c22 -9.33301 48.667 -14 80 -14
c34 0 64.167 9.83301 90.5 29.5s39.5 47.834 39.5 84.501c0 47.333 -47.333 72.333 -142 75l6 53l43 78l164 1343h-407z" />
    <glyph glyph-name="uni0163" unicode="&#x163;" horiz-adv-x="693" 
d="M338 899l-76.001 -618.002c-7.33301 -61.333 -4 -107.833 10 -139.5s43.667 -47.5 89 -47.5c58.667 0 119 22.333 181 67l16 -101c-69.333 -46.667 -144.666 -70 -225.999 -70h-17l-35 -59l2 -3c94.667 -6.66699 142 -49 142 -127c0 -50.667 -19.5 -93.667 -58.5 -129
s-88.167 -53 -147.5 -53c-34.667 0 -65.334 5 -92.001 15l6 66c22 -9.33301 48.667 -14 80 -14c34 0 64.167 9.83301 90.5 29.5s39.5 47.834 39.5 84.501c0 47.333 -47.333 72.333 -142 75l6 53l42 77c-81.333 32.667 -112.666 120.334 -93.999 263.001l77 631h-117l11 95
h118l42 343l108 19l-44 -362h317l-11 -95h-317z" />
    <glyph glyph-name="Tcaron" unicode="&#x164;" horiz-adv-x="1064" 
d="M725 1627h-105l-185 286h111l128 -211h9l183 211h116zM183 1455h933l-12 -106h-412l-165 -1349h-114l165 1349h-407z" />
    <glyph glyph-name="tcaron" unicode="&#x165;" horiz-adv-x="703" 
d="M632 1565h113l-121 -352h-84zM542 161l15.999 -101c-69.333 -46.667 -144.666 -70 -225.999 -70c-142 0 -201.333 92.667 -178 278l77 631h-117l11 95h118l42 343l108 19l-44 -362h317l-11 -95h-317l-76 -618c-7.33301 -61.333 -4 -107.833 10 -139.5
s43.667 -47.5 89 -47.5c58.667 0 119 22.333 181 67z" />
    <glyph glyph-name="Tbar" unicode="&#x166;" horiz-adv-x="1064" 
d="M1104 1349h-412l-67 -545h231l-14 -98h-229l-86 -706h-114l86 706h-204l14 98h202l67 545h-407l12 106h933z" />
    <glyph glyph-name="tbar" unicode="&#x167;" horiz-adv-x="693" 
d="M655 899h-317.001l-35 -286h271l-11 -82h-270l-31 -250c-7.33301 -61.333 -4 -107.833 10 -139.5s43.667 -47.5 89 -47.5c58.667 0 119 22.333 181 67l16 -101c-69.333 -46.667 -144.666 -70 -225.999 -70c-142 0 -201.333 92.667 -178 278l32 263h-102l11 82h101l35 286
h-117l11 95h118l42 343l108 19l-44 -362h317z" />
    <glyph glyph-name="Utilde" unicode="&#x168;" horiz-adv-x="1351" 
d="M513 1700c49.333 118.667 114.333 178.001 195 178.001c20 0 39.333 -3.66699 58 -11s32.5 -14.333 41.5 -21s22.167 -17.334 39.5 -32.001c2 -1.33301 7.33301 -5.66602 16 -12.999s14.334 -12 17.001 -14s7.66699 -5.83301 15 -11.5s13.166 -9.5 17.499 -11.5
s9.66602 -4.66699 15.999 -8s12.333 -5.5 18 -6.5s11.5 -1.5 17.5 -1.5c24 0 47.167 10.5 69.5 31.5s41.5 51.167 57.5 90.5l72 -30c-22.667 -60 -50.834 -105.667 -84.501 -137s-68.834 -47 -105.501 -47c-7.33301 0 -14.333 0.5 -21 1.5s-13.5 2.66699 -20.5 5
s-13 4.5 -18 6.5s-11 5.16699 -18 9.5s-12.333 7.5 -16 9.5s-9.16699 6 -16.5 12s-12.166 9.83301 -14.499 11.5s-7.16602 5.66699 -14.499 12s-11.666 10.166 -12.999 11.499c-42 34 -76.667 51 -104 51c-52 0 -96 -40.333 -132 -121zM1184 580.001
c-24 -198 -84.3291 -345.835 -180.996 -443.502s-227.334 -146.5 -392.001 -146.5c-72.667 0 -136.667 11.333 -192 34s-100.166 55.334 -134.499 98.001s-60 93 -77 151s-25.5 123.667 -25.5 197c0 37.333 2.66699 79 8 125l106 860h114l-106 -862
c-6 -42.667 -9 -82 -9 -118c0 -57.333 6.16699 -108.666 18.5 -153.999s31.166 -84.666 56.499 -117.999s58.666 -59 99.999 -77s89.666 -27 144.999 -27c127.333 0 230.166 39.667 308.499 119s127.5 200.666 147.5 363.999l106 873h114z" />
    <glyph glyph-name="utilde" unicode="&#x169;" horiz-adv-x="1083" 
d="M509 1301c-52 0 -96 -40.334 -132 -121.001l-72 35c49.333 118.667 114.333 178 195 178c20 0 39.333 -3.66699 58 -11s32.5 -14.333 41.5 -21s22.167 -17.334 39.5 -32.001c2 -2 7.33301 -6.5 16 -13.5s14.334 -11.5 17.001 -13.5s7.66699 -5.83301 15 -11.5
s13.166 -9.5 17.499 -11.5s9.66602 -4.66699 15.999 -8s12.333 -5.5 18 -6.5s11.5 -1.5 17.5 -1.5c23.333 0 46.333 10.5 69 31.5s42 51.167 58 90.5l72 -30c-22.667 -60 -50.834 -105.667 -84.501 -137s-68.834 -47 -105.501 -47c-7.33301 0 -14.333 0.5 -21 1.5
s-13.5 2.66699 -20.5 5s-13 4.5 -18 6.5s-11 5.16699 -18 9.5s-12.333 7.5 -16 9.5s-9.16699 6 -16.5 12s-12.166 9.83301 -14.499 11.5s-7.16602 5.83398 -14.499 12.501s-11.666 10.334 -12.999 11.001c-42 34 -76.667 51 -104 51zM879 993.999l106 -0.000976562
l-121 -994h-107l28 232h-4c-48 -75.333 -105.167 -134.5 -171.5 -177.5s-136.166 -64.5 -209.499 -64.5c-104 0 -178.5 32.167 -223.5 96.5s-58.833 166.5 -41.5 306.5l74 601h107l-73 -594c-7.33301 -48.667 -9.16602 -90.667 -5.49902 -126s9.83398 -64.833 18.501 -88.5
s21.834 -42.5 39.501 -56.5s36.667 -23.833 57 -29.5s44.166 -8.5 71.499 -8.5c41.333 0 84.166 12.333 128.499 37s85.166 57.667 122.499 99s69.666 91.333 96.999 150s45.333 119.334 54 182.001z" />
    <glyph glyph-name="Umacron" unicode="&#x16a;" horiz-adv-x="1351" 
d="M588 1824h515l-13 -95h-515zM1184 580c-24 -198 -84.3291 -345.835 -180.996 -443.502s-227.334 -146.5 -392.001 -146.5c-72.667 0 -136.667 11.333 -192 34s-100.166 55.334 -134.499 98.001s-60 93 -77 151s-25.5 123.667 -25.5 197c0 37.333 2.66699 79 8 125
l106 860h114l-106 -862c-6 -42.667 -9 -82 -9 -118c0 -57.333 6.16699 -108.666 18.5 -153.999s31.166 -84.666 56.499 -117.999s58.666 -59 99.999 -77s89.666 -27 144.999 -27c127.333 0 230.166 39.667 308.499 119s127.5 200.666 147.5 363.999l106 873h114z" />
    <glyph glyph-name="umacron" unicode="&#x16b;" horiz-adv-x="1083" 
d="M895 1339l-13 -95h-515l13 95h515zM879 994l106 -0.000976562l-121 -994h-107l28 232h-4c-48 -75.333 -105.167 -134.5 -171.5 -177.5s-136.166 -64.5 -209.499 -64.5c-104 0 -178.5 32.167 -223.5 96.5s-58.833 166.5 -41.5 306.5l74 601h107l-73 -594
c-7.33301 -48.667 -9.16602 -90.667 -5.49902 -126s9.83398 -64.833 18.501 -88.5s21.834 -42.5 39.501 -56.5s36.667 -23.833 57 -29.5s44.166 -8.5 71.499 -8.5c41.333 0 84.166 12.333 128.499 37s85.166 57.667 122.499 99s69.666 91.333 96.999 150
s45.333 119.334 54 182.001z" />
    <glyph glyph-name="Ubreve" unicode="&#x16c;" horiz-adv-x="1351" 
d="M828 1627c-69.333 0 -124.168 24.167 -164.501 72.5s-57.5 115.5 -51.5 201.5l88 -2c-4 -57.333 4.5 -103 25.5 -137s55.833 -51 104.5 -51c52 0 95.333 17.667 130 53s56.667 81 66 137l88 -2c-15.333 -84.667 -49.166 -151.167 -101.499 -199.5
s-113.833 -72.5 -184.5 -72.5zM1184 580c-24 -198 -84.3291 -345.835 -180.996 -443.502s-227.334 -146.5 -392.001 -146.5c-72.667 0 -136.667 11.333 -192 34s-100.166 55.334 -134.499 98.001s-60 93 -77 151s-25.5 123.667 -25.5 197c0 37.333 2.66699 79 8 125l106 860
h114l-106 -862c-6 -42.667 -9 -82 -9 -118c0 -57.333 6.16699 -108.666 18.5 -153.999s31.166 -84.666 56.499 -117.999s58.666 -59 99.999 -77s89.666 -27 144.999 -27c127.333 0 230.166 39.667 308.499 119s127.5 200.666 147.5 363.999l106 873h114z" />
    <glyph glyph-name="ubreve" unicode="&#x16d;" horiz-adv-x="1083" 
d="M620 1142c-69.333 0 -124.168 24.167 -164.501 72.5s-57.5 115.5 -51.5 201.5l88 -2c-4 -57.333 4.5 -103 25.5 -137s55.833 -51 104.5 -51c34.667 0 66 8.33301 94 25s50.5 39.167 67.5 67.5s28.5 60.833 34.5 97.5l88 -2
c-15.333 -84.667 -49.166 -151.167 -101.499 -199.5s-113.833 -72.5 -184.5 -72.5zM878.998 994l106 -0.000976562l-121 -994h-107l28 232h-4c-48 -75.333 -105.167 -134.5 -171.5 -177.5s-136.166 -64.5 -209.499 -64.5c-104 0 -178.5 32.167 -223.5 96.5
s-58.833 166.5 -41.5 306.5l74 601h107l-73 -594c-7.33301 -48.667 -9.16602 -90.667 -5.49902 -126s9.83398 -64.833 18.501 -88.5s21.834 -42.5 39.501 -56.5s36.667 -23.833 57 -29.5s44.166 -8.5 71.499 -8.5c41.333 0 84.166 12.333 128.499 37
s85.166 57.667 122.499 99s69.666 91.333 96.999 150s45.333 119.334 54 182.001z" />
    <glyph glyph-name="Uring" unicode="&#x16e;" horiz-adv-x="1351" 
d="M839 1947c48.667 0 89.167 -15.833 121.5 -47.5s48.5 -71.5 48.5 -119.5c0 -50 -16.667 -91.5 -50 -124.5s-75.333 -49.5 -126 -49.5c-48 0 -88.167 16.167 -120.5 48.5s-48.5 72.5 -48.5 120.5c0 49.333 16.667 90.333 50 123s75 49 125 49zM838 1871
c-28 0 -51.166 -9.00098 -69.499 -27.001s-27.5 -40.667 -27.5 -68s8.66699 -49.666 26 -66.999s39.666 -26 66.999 -26c28.667 0 52.167 9.16699 70.5 27.5s27.5 41.5 27.5 69.5c0 17.333 -4 32.833 -12 46.5s-19.167 24.5 -33.5 32.5s-30.5 12 -48.5 12zM1184 579.999
c-24 -198 -84.3291 -345.835 -180.996 -443.502s-227.334 -146.5 -392.001 -146.5c-72.667 0 -136.667 11.333 -192 34s-100.166 55.334 -134.499 98.001s-60 93 -77 151s-25.5 123.667 -25.5 197c0 37.333 2.66699 79 8 125l106 860h114l-106 -862
c-6 -42.667 -9 -82 -9 -118c0 -57.333 6.16699 -108.666 18.5 -153.999s31.166 -84.666 56.499 -117.999s58.666 -59 99.999 -77s89.666 -27 144.999 -27c127.333 0 230.166 39.667 308.499 119s127.5 200.666 147.5 363.999l106 873h114z" />
    </font>
</defs>
</svg>
