<svg 
 xmlns="http://www.w3.org/2000/svg"
 xmlns:xlink="http://www.w3.org/1999/xlink"
 width="19px" height="13px">
<path fill-rule="evenodd"  fill="rgb(86, 193, 178)"
 d="M8.263,0.005 C8.803,0.005 9.344,0.005 9.884,0.005 C10.178,0.005 10.564,-0.019 10.793,0.041 C10.925,0.041 11.057,0.041 11.189,0.041 C11.452,0.053 11.716,0.066 11.980,0.078 C11.980,0.090 11.980,0.103 11.980,0.115 C12.164,0.115 12.349,0.115 12.533,0.115 C12.533,0.127 12.533,0.140 12.533,0.152 C12.639,0.152 12.744,0.152 12.849,0.152 C12.849,0.164 12.849,0.176 12.849,0.189 C12.955,0.189 13.060,0.189 13.166,0.189 C13.166,0.201 13.166,0.213 13.166,0.225 C13.284,0.225 13.403,0.225 13.521,0.225 C13.521,0.238 13.521,0.250 13.521,0.262 C13.706,0.275 13.891,0.287 14.075,0.300 C14.075,0.311 14.075,0.323 14.075,0.336 C14.233,0.348 14.391,0.361 14.549,0.373 C14.549,0.385 14.549,0.397 14.549,0.410 C14.615,0.410 14.681,0.410 14.747,0.410 C14.747,0.422 14.747,0.435 14.747,0.447 C14.813,0.447 14.879,0.447 14.945,0.447 C14.945,0.459 14.945,0.472 14.945,0.484 C14.997,0.484 15.050,0.484 15.103,0.484 C15.103,0.496 15.103,0.508 15.103,0.520 C15.235,0.532 15.367,0.545 15.498,0.557 C15.498,0.570 15.498,0.582 15.498,0.594 C15.670,0.619 15.841,0.643 16.012,0.668 C16.012,0.679 16.012,0.692 16.012,0.705 C16.065,0.705 16.118,0.705 16.170,0.705 C16.170,0.717 16.170,0.729 16.170,0.741 C16.263,0.754 16.355,0.766 16.447,0.779 C16.447,0.791 16.447,0.803 16.447,0.815 C16.487,0.815 16.526,0.815 16.566,0.815 C16.566,0.827 16.566,0.839 16.566,0.852 C16.698,0.876 16.829,0.901 16.961,0.926 C16.961,0.938 16.961,0.950 16.961,0.962 C16.988,0.962 17.014,0.962 17.040,0.962 C17.040,0.975 17.040,0.987 17.040,0.999 C17.080,0.999 17.119,0.999 17.159,0.999 C17.159,1.011 17.159,1.024 17.159,1.036 C17.212,1.049 17.264,1.061 17.317,1.073 C17.317,1.085 17.317,1.098 17.317,1.110 C17.370,1.122 17.422,1.135 17.475,1.147 C17.754,1.311 17.959,1.559 18.187,1.773 C18.240,1.810 18.292,1.846 18.345,1.884 C18.345,1.908 18.345,1.933 18.345,1.957 C18.371,1.970 18.398,1.982 18.424,1.994 C18.437,2.031 18.450,2.068 18.464,2.105 C18.477,2.105 18.490,2.105 18.503,2.105 C18.516,2.154 18.530,2.203 18.543,2.252 C18.556,2.252 18.569,2.252 18.582,2.252 C18.582,2.277 18.582,2.301 18.582,2.326 C18.595,2.326 18.609,2.326 18.622,2.326 C18.648,2.399 18.675,2.473 18.701,2.547 C18.714,2.547 18.727,2.547 18.740,2.547 C18.740,2.584 18.740,2.621 18.740,2.657 C18.754,2.657 18.767,2.657 18.780,2.657 C18.780,2.682 18.780,2.706 18.780,2.731 C18.793,2.731 18.806,2.731 18.820,2.731 C18.833,2.817 18.846,2.903 18.859,2.989 C18.872,2.989 18.885,2.989 18.899,2.989 C18.912,3.112 18.925,3.235 18.938,3.357 C18.951,3.357 18.964,3.357 18.978,3.357 C19.031,3.536 18.978,4.043 18.938,4.168 C18.938,4.242 18.938,4.316 18.938,4.389 C18.925,4.389 18.912,4.389 18.899,4.389 C18.899,4.426 18.899,4.463 18.899,4.500 C18.885,4.500 18.872,4.500 18.859,4.500 C18.859,4.561 18.859,4.623 18.859,4.684 C18.846,4.684 18.833,4.684 18.820,4.684 C18.820,4.746 18.820,4.807 18.820,4.868 C18.806,4.868 18.793,4.868 18.780,4.868 C18.780,4.930 18.780,4.991 18.780,5.052 C18.767,5.052 18.754,5.052 18.740,5.052 C18.740,5.089 18.740,5.126 18.740,5.163 C18.727,5.163 18.714,5.163 18.701,5.163 C18.675,5.237 18.648,5.310 18.622,5.384 C18.609,5.384 18.595,5.384 18.582,5.384 C18.582,5.409 18.582,5.433 18.582,5.458 C18.530,5.494 18.477,5.532 18.424,5.568 C18.371,5.630 18.319,5.692 18.266,5.752 C18.160,5.818 17.631,5.967 17.396,5.900 C17.396,5.888 17.396,5.875 17.396,5.863 C17.343,5.863 17.291,5.863 17.238,5.863 C17.238,5.851 17.238,5.839 17.238,5.826 C17.172,5.826 17.106,5.826 17.040,5.826 C17.040,5.814 17.040,5.802 17.040,5.789 C16.961,5.789 16.882,5.789 16.803,5.789 C16.803,5.777 16.803,5.764 16.803,5.752 C16.737,5.752 16.671,5.752 16.605,5.752 C16.605,5.740 16.605,5.728 16.605,5.716 C16.487,5.704 16.368,5.692 16.250,5.679 C16.250,5.666 16.250,5.654 16.250,5.642 C16.197,5.642 16.144,5.642 16.091,5.642 C16.091,5.630 16.091,5.617 16.091,5.605 C15.999,5.605 15.907,5.605 15.815,5.605 C15.815,5.592 15.815,5.580 15.815,5.568 C15.762,5.568 15.709,5.568 15.656,5.568 C15.656,5.556 15.656,5.544 15.656,5.532 C15.538,5.519 15.419,5.507 15.301,5.494 C15.301,5.482 15.301,5.470 15.301,5.458 C15.222,5.458 15.143,5.458 15.063,5.458 C15.063,5.446 15.063,5.433 15.063,5.421 C14.998,5.421 14.932,5.421 14.866,5.421 C14.708,5.372 14.549,5.322 14.391,5.273 C14.365,5.237 14.339,5.200 14.312,5.163 C14.233,5.101 14.154,5.040 14.075,4.979 C14.075,4.954 14.075,4.930 14.075,4.905 C14.062,4.905 14.049,4.905 14.035,4.905 C14.009,4.831 13.983,4.758 13.956,4.684 C13.943,4.684 13.930,4.684 13.917,4.684 C13.917,4.635 13.917,4.585 13.917,4.536 C13.904,4.536 13.890,4.536 13.877,4.536 C13.792,4.270 13.940,3.776 13.996,3.615 C13.996,3.567 13.996,3.517 13.996,3.468 C14.015,3.412 14.078,3.211 14.035,3.100 C14.022,3.100 14.009,3.100 13.996,3.100 C13.983,3.051 13.970,3.001 13.956,2.952 C13.890,2.903 13.825,2.854 13.759,2.805 C13.746,2.780 13.732,2.756 13.719,2.731 C13.693,2.731 13.666,2.731 13.640,2.731 C13.640,2.719 13.640,2.706 13.640,2.694 C13.614,2.694 13.587,2.694 13.561,2.694 C13.561,2.682 13.561,2.670 13.561,2.657 C13.521,2.657 13.482,2.657 13.442,2.657 C13.442,2.645 13.442,2.633 13.442,2.621 C13.416,2.621 13.390,2.621 13.363,2.621 C13.363,2.609 13.363,2.596 13.363,2.584 C13.021,2.498 12.678,2.412 12.335,2.326 C12.256,2.326 12.177,2.326 12.098,2.326 C11.305,2.106 10.234,2.142 9.212,2.141 C8.687,2.141 8.084,2.106 7.670,2.215 C7.551,2.215 7.433,2.215 7.314,2.215 C7.314,2.228 7.314,2.240 7.314,2.252 C7.209,2.252 7.103,2.252 6.998,2.252 C6.998,2.264 6.998,2.277 6.998,2.289 C6.919,2.289 6.840,2.289 6.761,2.289 C6.761,2.301 6.761,2.313 6.761,2.326 C6.695,2.326 6.629,2.326 6.563,2.326 C6.563,2.338 6.563,2.350 6.563,2.363 C6.523,2.363 6.484,2.363 6.444,2.363 C6.444,2.375 6.444,2.387 6.444,2.399 C6.379,2.399 6.313,2.399 6.247,2.399 C6.247,2.412 6.247,2.424 6.247,2.437 C6.141,2.449 6.036,2.460 5.930,2.473 C5.930,2.486 5.930,2.498 5.930,2.510 C5.851,2.522 5.772,2.535 5.693,2.547 C5.693,2.559 5.693,2.572 5.693,2.584 C5.627,2.596 5.561,2.609 5.495,2.621 C5.495,2.633 5.495,2.645 5.495,2.657 C5.469,2.657 5.443,2.657 5.416,2.657 C5.416,2.670 5.416,2.682 5.416,2.694 C5.364,2.706 5.311,2.719 5.258,2.731 C5.206,2.792 5.153,2.854 5.100,2.915 C5.074,2.928 5.047,2.940 5.021,2.952 C4.975,3.014 5.020,3.036 4.942,3.100 C4.955,3.284 4.968,3.468 4.981,3.653 C4.995,3.653 5.008,3.653 5.021,3.653 C5.021,3.714 5.021,3.775 5.021,3.836 C5.034,3.836 5.047,3.836 5.061,3.836 C5.061,3.873 5.061,3.910 5.061,3.947 C5.074,3.947 5.087,3.947 5.100,3.947 C5.100,4.033 5.100,4.119 5.100,4.205 C5.101,4.539 5.061,4.623 4.942,4.831 C4.942,4.856 4.942,4.881 4.942,4.905 C4.929,4.905 4.916,4.905 4.902,4.905 C4.902,4.930 4.902,4.954 4.902,4.979 C4.836,5.028 4.771,5.078 4.705,5.126 C4.665,5.175 4.626,5.225 4.586,5.273 C4.560,5.273 4.533,5.273 4.507,5.273 C4.507,5.286 4.507,5.298 4.507,5.310 C4.481,5.310 4.454,5.310 4.428,5.310 C4.428,5.322 4.428,5.335 4.428,5.347 C4.388,5.347 4.349,5.347 4.309,5.347 C4.309,5.360 4.309,5.372 4.309,5.384 C4.230,5.384 4.151,5.384 4.072,5.384 C4.072,5.396 4.072,5.409 4.072,5.421 C4.006,5.421 3.940,5.421 3.874,5.421 C3.874,5.433 3.874,5.446 3.874,5.458 C3.822,5.458 3.769,5.458 3.716,5.458 C3.716,5.470 3.716,5.482 3.716,5.494 C3.650,5.494 3.585,5.494 3.519,5.494 C3.519,5.507 3.519,5.519 3.519,5.532 C3.440,5.532 3.360,5.532 3.281,5.532 C3.281,5.544 3.281,5.556 3.281,5.568 C3.163,5.580 3.044,5.592 2.926,5.605 C2.926,5.617 2.926,5.630 2.926,5.642 C2.873,5.642 2.820,5.642 2.767,5.642 C2.767,5.654 2.767,5.666 2.767,5.679 C2.688,5.679 2.609,5.679 2.530,5.679 C2.530,5.692 2.530,5.704 2.530,5.716 C2.464,5.716 2.399,5.716 2.333,5.716 C2.333,5.728 2.333,5.740 2.333,5.752 C2.267,5.752 2.201,5.752 2.135,5.752 C2.135,5.764 2.135,5.777 2.135,5.789 C2.003,5.802 1.871,5.814 1.739,5.826 C1.739,5.839 1.739,5.851 1.739,5.863 C1.529,5.875 1.318,5.888 1.107,5.900 C1.107,5.888 1.107,5.875 1.107,5.863 C1.028,5.851 0.949,5.839 0.870,5.826 C0.870,5.814 0.870,5.802 0.870,5.789 C0.817,5.777 0.764,5.764 0.712,5.752 C0.632,5.666 0.553,5.580 0.474,5.494 C0.448,5.482 0.422,5.470 0.395,5.458 C0.395,5.433 0.395,5.409 0.395,5.384 C0.382,5.384 0.369,5.384 0.356,5.384 C0.329,5.310 0.303,5.237 0.277,5.163 C0.263,5.163 0.250,5.163 0.237,5.163 C0.224,5.052 0.211,4.942 0.198,4.831 C0.184,4.831 0.171,4.831 0.158,4.831 C0.158,4.782 0.158,4.733 0.158,4.684 C0.145,4.684 0.132,4.684 0.118,4.684 C0.105,4.573 0.092,4.463 0.079,4.352 C0.066,4.352 0.053,4.352 0.039,4.352 C0.039,4.291 0.039,4.230 0.039,4.168 C0.026,4.168 0.013,4.168 -0.000,4.168 C-0.000,4.009 -0.000,3.849 -0.000,3.689 C0.000,3.145 0.155,2.751 0.356,2.399 C0.356,2.375 0.356,2.350 0.356,2.326 C0.369,2.326 0.382,2.326 0.395,2.326 C0.395,2.301 0.395,2.277 0.395,2.252 C0.408,2.252 0.422,2.252 0.435,2.252 C0.435,2.228 0.435,2.203 0.435,2.178 C0.448,2.178 0.461,2.178 0.474,2.178 C0.474,2.154 0.474,2.129 0.474,2.105 C0.501,2.092 0.527,2.081 0.553,2.068 C0.553,2.043 0.553,2.019 0.553,1.994 C0.580,1.982 0.606,1.970 0.632,1.957 C0.632,1.933 0.632,1.908 0.632,1.884 C0.698,1.834 0.764,1.786 0.830,1.736 C1.045,1.535 1.239,1.302 1.502,1.147 C1.529,1.147 1.555,1.147 1.581,1.147 C1.581,1.135 1.581,1.122 1.581,1.110 C1.660,1.085 1.739,1.061 1.819,1.036 C1.819,1.024 1.819,1.011 1.819,0.999 C1.858,0.999 1.898,0.999 1.937,0.999 C1.937,0.987 1.937,0.975 1.937,0.962 C1.977,0.962 2.016,0.962 2.056,0.962 C2.056,0.950 2.056,0.938 2.056,0.926 C2.082,0.926 2.108,0.926 2.135,0.926 C2.135,0.913 2.135,0.901 2.135,0.889 C2.174,0.889 2.214,0.889 2.253,0.889 C2.253,0.876 2.253,0.864 2.253,0.852 C2.306,0.852 2.359,0.852 2.412,0.852 C2.412,0.839 2.412,0.827 2.412,0.815 C2.451,0.815 2.491,0.815 2.530,0.815 C2.530,0.803 2.530,0.791 2.530,0.779 C2.622,0.766 2.715,0.754 2.807,0.741 C2.807,0.729 2.807,0.717 2.807,0.705 C2.978,0.679 3.150,0.655 3.321,0.631 C3.321,0.619 3.321,0.606 3.321,0.594 C3.440,0.582 3.558,0.570 3.677,0.557 C3.677,0.545 3.677,0.532 3.677,0.520 C3.795,0.508 3.914,0.496 4.033,0.484 C4.033,0.472 4.033,0.459 4.033,0.447 C4.164,0.435 4.296,0.422 4.428,0.410 C4.428,0.397 4.428,0.385 4.428,0.373 C4.520,0.373 4.612,0.373 4.705,0.373 C4.705,0.361 4.705,0.348 4.705,0.336 C4.771,0.336 4.836,0.336 4.902,0.336 C4.902,0.323 4.902,0.311 4.902,0.300 C5.008,0.300 5.113,0.300 5.219,0.300 C5.219,0.287 5.219,0.275 5.219,0.262 C5.298,0.262 5.377,0.262 5.456,0.262 C5.456,0.250 5.456,0.238 5.456,0.225 C5.548,0.225 5.641,0.225 5.733,0.225 C5.733,0.213 5.733,0.201 5.733,0.189 C5.865,0.189 5.996,0.189 6.128,0.189 C6.128,0.176 6.128,0.164 6.128,0.152 C6.234,0.152 6.339,0.152 6.444,0.152 C6.444,0.140 6.444,0.127 6.444,0.115 C6.629,0.115 6.813,0.115 6.998,0.115 C6.998,0.103 6.998,0.090 6.998,0.078 C7.169,0.078 7.341,0.078 7.512,0.078 C7.512,0.066 7.512,0.053 7.512,0.041 C7.728,-0.015 8.117,0.124 8.263,0.005 ZM7.670,2.805 C7.688,3.005 7.786,3.113 7.868,3.247 C7.868,3.271 7.868,3.296 7.868,3.320 C7.894,3.333 7.920,3.345 7.947,3.357 C7.947,3.383 7.947,3.407 7.947,3.431 C8.039,3.505 8.131,3.579 8.223,3.653 C8.263,3.702 8.303,3.751 8.342,3.800 C8.368,3.800 8.395,3.800 8.421,3.800 C8.434,3.824 8.448,3.849 8.461,3.873 C8.487,3.873 8.513,3.873 8.540,3.873 C8.540,3.885 8.540,3.898 8.540,3.910 C8.619,3.935 8.698,3.959 8.777,3.984 C8.777,3.996 8.777,4.009 8.777,4.021 C8.856,4.033 8.935,4.045 9.014,4.057 C9.146,4.103 9.573,4.197 9.805,4.131 C10.479,3.940 10.841,3.710 11.149,3.173 C11.162,3.173 11.176,3.173 11.189,3.173 C11.246,3.072 11.295,2.937 11.307,2.805 C11.801,2.804 12.179,2.976 12.652,2.989 C12.652,3.492 12.652,3.996 12.652,4.500 C12.665,4.500 12.678,4.500 12.691,4.500 C12.691,4.561 12.691,4.623 12.691,4.684 C12.704,4.684 12.718,4.684 12.731,4.684 C12.731,4.733 12.731,4.782 12.731,4.831 C12.744,4.831 12.757,4.831 12.770,4.831 C12.770,4.868 12.770,4.905 12.770,4.942 C12.783,4.942 12.797,4.942 12.810,4.942 C12.810,4.979 12.810,5.016 12.810,5.052 C12.823,5.052 12.836,5.052 12.849,5.052 C12.849,5.078 12.849,5.101 12.849,5.126 C12.863,5.126 12.876,5.126 12.889,5.126 C12.889,5.163 12.889,5.200 12.889,5.237 C12.902,5.237 12.915,5.237 12.928,5.237 C12.928,5.261 12.928,5.286 12.928,5.310 C12.942,5.310 12.955,5.310 12.968,5.310 C12.968,5.335 12.968,5.360 12.968,5.384 C12.994,5.396 13.021,5.409 13.047,5.421 C13.060,5.470 13.073,5.519 13.087,5.568 C13.100,5.568 13.113,5.568 13.126,5.568 C13.139,5.605 13.153,5.642 13.166,5.679 C13.192,5.692 13.218,5.704 13.245,5.716 C13.245,5.740 13.245,5.764 13.245,5.789 C13.297,5.826 13.350,5.863 13.403,5.900 C14.150,6.866 15.403,7.306 15.815,8.590 C15.815,8.983 15.815,9.376 15.815,9.769 C15.815,10.530 15.815,11.292 15.815,12.053 C15.801,12.053 15.788,12.053 15.775,12.053 C15.775,12.091 15.775,12.127 15.775,12.164 C15.762,12.164 15.749,12.164 15.736,12.164 C15.736,12.188 15.736,12.213 15.736,12.238 C15.722,12.238 15.709,12.238 15.696,12.238 C15.696,12.274 15.696,12.311 15.696,12.348 C15.670,12.360 15.643,12.373 15.617,12.385 C15.617,12.410 15.617,12.434 15.617,12.459 C15.525,12.532 15.433,12.606 15.340,12.680 C15.314,12.716 15.288,12.753 15.261,12.790 C14.790,13.098 13.160,12.974 12.335,12.974 C10.240,12.974 8.144,12.974 6.049,12.974 C5.417,12.974 4.784,12.974 4.151,12.974 C4.151,12.962 4.151,12.950 4.151,12.938 C4.112,12.938 4.072,12.938 4.033,12.938 C4.033,12.926 4.033,12.914 4.033,12.900 C4.006,12.900 3.980,12.900 3.954,12.900 C3.954,12.888 3.954,12.876 3.954,12.864 C3.914,12.864 3.874,12.864 3.835,12.864 C3.822,12.839 3.809,12.814 3.795,12.790 C3.769,12.790 3.743,12.790 3.716,12.790 C3.637,12.704 3.558,12.618 3.479,12.532 C3.440,12.508 3.400,12.483 3.360,12.459 C3.360,12.434 3.360,12.410 3.360,12.385 C3.334,12.373 3.308,12.360 3.281,12.348 C3.281,12.311 3.281,12.274 3.281,12.238 C3.268,12.238 3.255,12.238 3.242,12.238 C3.242,12.213 3.242,12.188 3.242,12.164 C3.229,12.164 3.215,12.164 3.202,12.164 C3.202,12.127 3.202,12.091 3.202,12.053 C3.189,12.053 3.176,12.053 3.163,12.053 C3.163,11.501 3.163,10.948 3.163,10.395 C3.163,9.730 3.056,8.699 3.281,8.221 C3.295,8.221 3.308,8.221 3.321,8.221 C3.321,8.197 3.321,8.172 3.321,8.148 C3.334,8.148 3.347,8.148 3.360,8.148 C3.374,8.098 3.387,8.049 3.400,8.000 C3.426,7.988 3.453,7.976 3.479,7.963 C3.479,7.939 3.479,7.914 3.479,7.889 C3.505,7.878 3.532,7.865 3.558,7.853 C3.558,7.828 3.558,7.804 3.558,7.779 C3.598,7.754 3.637,7.730 3.677,7.705 C3.677,7.681 3.677,7.657 3.677,7.631 C3.795,7.533 3.914,7.435 4.033,7.337 C4.125,7.239 4.217,7.141 4.309,7.043 C4.336,7.043 4.362,7.043 4.388,7.043 C4.481,6.944 4.573,6.846 4.665,6.747 C4.692,6.747 4.718,6.747 4.744,6.747 C4.863,6.625 4.981,6.502 5.100,6.379 C5.258,6.244 5.417,6.108 5.575,5.974 C5.575,5.949 5.575,5.924 5.575,5.900 C5.627,5.863 5.680,5.826 5.733,5.789 C5.733,5.764 5.733,5.740 5.733,5.716 C5.759,5.704 5.785,5.692 5.812,5.679 C5.825,5.642 5.838,5.605 5.851,5.568 C5.865,5.568 5.878,5.568 5.891,5.568 C5.904,5.519 5.917,5.470 5.930,5.421 C5.957,5.409 5.983,5.396 6.009,5.384 C6.009,5.360 6.009,5.335 6.009,5.310 C6.023,5.310 6.036,5.310 6.049,5.310 C6.049,5.286 6.049,5.261 6.049,5.237 C6.062,5.237 6.075,5.237 6.089,5.237 C6.089,5.200 6.089,5.163 6.089,5.126 C6.102,5.126 6.115,5.126 6.128,5.126 C6.128,5.101 6.128,5.078 6.128,5.052 C6.141,5.052 6.154,5.052 6.168,5.052 C6.168,5.016 6.168,4.979 6.168,4.942 C6.181,4.942 6.194,4.942 6.207,4.942 C6.207,4.905 6.207,4.868 6.207,4.831 C6.220,4.831 6.234,4.831 6.247,4.831 C6.247,4.782 6.247,4.733 6.247,4.684 C6.260,4.684 6.273,4.684 6.286,4.684 C6.286,4.623 6.286,4.561 6.286,4.500 C6.299,4.500 6.313,4.500 6.326,4.500 C6.326,3.996 6.326,3.492 6.326,2.989 C6.778,2.955 7.153,2.813 7.670,2.805 ZM9.093,5.900 C9.015,5.963 8.883,5.935 8.777,5.974 C8.566,6.060 8.355,6.146 8.144,6.232 C8.131,6.256 8.118,6.280 8.105,6.305 C8.079,6.305 8.052,6.305 8.026,6.305 C7.999,6.342 7.973,6.379 7.947,6.416 C7.920,6.416 7.894,6.416 7.868,6.416 C7.828,6.465 7.789,6.514 7.749,6.563 C7.670,6.625 7.591,6.686 7.512,6.747 C7.512,6.772 7.512,6.796 7.512,6.821 C7.472,6.846 7.433,6.870 7.393,6.895 C7.393,6.919 7.393,6.944 7.393,6.968 C7.367,6.981 7.341,6.993 7.314,7.005 C7.301,7.054 7.288,7.103 7.275,7.153 C7.261,7.153 7.248,7.153 7.235,7.153 C7.209,7.227 7.182,7.300 7.156,7.374 C7.143,7.374 7.130,7.374 7.116,7.374 C7.090,7.484 7.064,7.595 7.037,7.705 C7.024,7.705 7.011,7.705 6.998,7.705 C6.998,7.767 6.998,7.828 6.998,7.889 C6.985,7.889 6.972,7.889 6.958,7.889 C6.915,8.032 6.961,8.710 6.998,8.811 C7.011,8.811 7.024,8.811 7.037,8.811 C7.037,8.848 7.037,8.884 7.037,8.922 C7.051,8.922 7.064,8.922 7.077,8.922 C7.090,8.995 7.103,9.069 7.116,9.142 C7.130,9.142 7.143,9.142 7.156,9.142 C7.156,9.167 7.156,9.191 7.156,9.216 C7.169,9.216 7.182,9.216 7.196,9.216 C7.196,9.240 7.196,9.265 7.196,9.290 C7.209,9.290 7.222,9.290 7.235,9.290 C7.235,9.314 7.235,9.339 7.235,9.364 C7.248,9.364 7.261,9.364 7.275,9.364 C7.275,9.388 7.275,9.412 7.275,9.438 C7.288,9.438 7.301,9.438 7.314,9.438 C7.314,9.462 7.314,9.487 7.314,9.511 C7.341,9.523 7.367,9.536 7.393,9.548 C7.393,9.572 7.393,9.597 7.393,9.621 C7.433,9.646 7.472,9.670 7.512,9.695 C7.512,9.719 7.512,9.744 7.512,9.769 C7.604,9.842 7.696,9.916 7.789,9.990 C7.815,10.027 7.841,10.064 7.868,10.100 C7.894,10.100 7.920,10.100 7.947,10.100 C7.973,10.137 7.999,10.174 8.026,10.211 C8.052,10.211 8.079,10.211 8.105,10.211 C8.118,10.236 8.131,10.260 8.144,10.285 C8.171,10.285 8.197,10.285 8.223,10.285 C8.223,10.297 8.223,10.310 8.223,10.322 C8.250,10.322 8.276,10.322 8.303,10.322 C8.303,10.334 8.303,10.346 8.303,10.358 C8.329,10.358 8.355,10.358 8.382,10.358 C8.382,10.370 8.382,10.383 8.382,10.395 C8.408,10.395 8.434,10.395 8.461,10.395 C8.461,10.407 8.461,10.420 8.461,10.433 C8.487,10.433 8.513,10.433 8.540,10.433 C8.540,10.444 8.540,10.457 8.540,10.469 C8.579,10.469 8.619,10.469 8.659,10.469 C8.659,10.481 8.659,10.493 8.659,10.506 C8.698,10.506 8.738,10.506 8.777,10.506 C8.777,10.518 8.777,10.530 8.777,10.542 C8.817,10.542 8.856,10.542 8.896,10.542 C8.896,10.555 8.896,10.567 8.896,10.580 C9.004,10.613 9.733,10.657 9.884,10.616 C10.610,10.418 11.074,10.210 11.466,9.695 C11.505,9.670 11.545,9.646 11.584,9.621 C11.584,9.597 11.584,9.572 11.584,9.548 C11.610,9.536 11.637,9.523 11.663,9.511 C11.690,9.438 11.716,9.364 11.742,9.290 C11.755,9.290 11.769,9.290 11.782,9.290 C11.795,9.240 11.808,9.191 11.821,9.142 C11.835,9.142 11.848,9.142 11.861,9.142 C11.861,9.105 11.861,9.069 11.861,9.032 C11.874,9.032 11.887,9.032 11.901,9.032 C11.901,8.995 11.901,8.958 11.901,8.922 C11.914,8.922 11.927,8.922 11.940,8.922 C11.940,8.884 11.940,8.848 11.940,8.811 C11.953,8.811 11.966,8.811 11.980,8.811 C11.980,8.749 11.980,8.688 11.980,8.627 C11.993,8.627 12.006,8.627 12.019,8.627 C12.063,8.485 12.016,7.806 11.980,7.705 C11.966,7.705 11.953,7.705 11.940,7.705 C11.940,7.669 11.940,7.631 11.940,7.595 C11.927,7.595 11.914,7.595 11.901,7.595 C11.887,7.521 11.874,7.447 11.861,7.374 C11.848,7.374 11.835,7.374 11.821,7.374 C11.821,7.349 11.821,7.325 11.821,7.300 C11.808,7.300 11.795,7.300 11.782,7.300 C11.782,7.275 11.782,7.251 11.782,7.227 C11.769,7.227 11.755,7.227 11.742,7.227 C11.742,7.202 11.742,7.177 11.742,7.153 C11.729,7.153 11.716,7.153 11.703,7.153 C11.703,7.128 11.703,7.103 11.703,7.079 C11.690,7.079 11.676,7.079 11.663,7.079 C11.663,7.054 11.663,7.030 11.663,7.005 C11.637,6.993 11.610,6.981 11.584,6.968 C11.584,6.944 11.584,6.919 11.584,6.895 C11.545,6.870 11.505,6.846 11.466,6.821 C11.466,6.796 11.466,6.772 11.466,6.747 C11.413,6.711 11.360,6.674 11.307,6.637 C11.241,6.563 11.176,6.489 11.110,6.416 C11.083,6.416 11.057,6.416 11.031,6.416 C11.004,6.379 10.978,6.342 10.952,6.305 C10.925,6.305 10.899,6.305 10.873,6.305 C10.859,6.280 10.846,6.256 10.833,6.232 C10.780,6.220 10.728,6.207 10.675,6.195 C10.675,6.182 10.675,6.170 10.675,6.158 C10.596,6.133 10.517,6.108 10.438,6.084 C10.438,6.072 10.438,6.060 10.438,6.047 C10.319,6.023 10.200,5.998 10.082,5.974 C10.082,5.961 10.082,5.949 10.082,5.937 C9.855,5.867 9.387,5.898 9.093,5.900 Z"/>
</svg>