<svg 
 xmlns="http://www.w3.org/2000/svg"
 xmlns:xlink="http://www.w3.org/1999/xlink"
 width="14px" height="15px">
<path fill-rule="evenodd"  fill="rgb(86, 193, 178)"
 d="M9.608,1.013 C9.608,1.022 9.608,1.031 9.608,1.040 C9.676,1.078 9.711,1.140 9.764,1.191 C9.782,1.205 9.801,1.218 9.820,1.232 C9.820,1.241 9.820,1.250 9.820,1.260 C9.844,1.278 9.867,1.296 9.891,1.314 C9.891,1.323 9.891,1.333 9.891,1.341 C9.914,1.360 9.938,1.378 9.961,1.397 C9.961,1.406 9.961,1.415 9.961,1.424 C9.976,1.433 9.990,1.443 10.004,1.451 C10.004,1.461 10.004,1.469 10.004,1.479 C10.013,1.483 10.023,1.488 10.032,1.493 C10.032,1.501 10.032,1.510 10.032,1.520 C10.046,1.529 10.060,1.538 10.074,1.547 C10.074,1.557 10.074,1.565 10.074,1.575 C10.084,1.579 10.093,1.584 10.103,1.589 C10.103,1.597 10.103,1.607 10.103,1.616 C10.112,1.620 10.122,1.625 10.131,1.630 C10.136,1.643 10.140,1.657 10.145,1.671 C10.150,1.671 10.154,1.671 10.159,1.671 C10.164,1.689 10.169,1.707 10.173,1.726 C10.187,1.735 10.202,1.744 10.216,1.753 C10.216,1.762 10.216,1.771 10.216,1.780 C10.220,1.780 10.225,1.780 10.230,1.780 C10.230,1.789 10.230,1.799 10.230,1.808 C10.235,1.808 10.239,1.808 10.244,1.808 C10.244,1.816 10.244,1.826 10.244,1.835 C10.249,1.835 10.253,1.835 10.258,1.835 C10.258,1.844 10.258,1.853 10.258,1.863 C10.268,1.867 10.277,1.872 10.286,1.876 C10.286,1.885 10.286,1.894 10.286,1.903 C10.291,1.903 10.296,1.903 10.300,1.903 C10.300,1.912 10.300,1.922 10.300,1.931 C10.305,1.931 10.310,1.931 10.315,1.931 C10.315,1.940 10.315,1.949 10.315,1.958 C10.319,1.958 10.324,1.958 10.329,1.958 C10.329,1.967 10.329,1.977 10.329,1.986 C10.333,1.986 10.338,1.986 10.343,1.986 C10.343,1.995 10.343,2.004 10.343,2.013 C10.348,2.013 10.352,2.013 10.357,2.013 C10.357,2.023 10.357,2.031 10.357,2.041 C10.362,2.041 10.366,2.041 10.371,2.041 C10.371,2.050 10.371,2.059 10.371,2.068 C10.376,2.068 10.381,2.068 10.385,2.068 C10.395,2.095 10.404,2.123 10.414,2.150 C10.418,2.150 10.423,2.150 10.428,2.150 C10.428,2.164 10.428,2.178 10.428,2.191 C10.432,2.191 10.437,2.191 10.442,2.191 C10.442,2.201 10.442,2.210 10.442,2.218 C10.446,2.218 10.451,2.218 10.456,2.218 C10.456,2.232 10.456,2.246 10.456,2.260 C10.461,2.260 10.465,2.260 10.470,2.260 C10.475,2.278 10.479,2.296 10.484,2.315 C10.489,2.315 10.494,2.315 10.498,2.315 C10.503,2.342 10.508,2.370 10.512,2.397 C10.517,2.397 10.522,2.397 10.526,2.397 C10.526,2.411 10.526,2.424 10.526,2.438 C10.531,2.438 10.536,2.438 10.541,2.438 C10.541,2.452 10.541,2.465 10.541,2.479 C10.545,2.479 10.550,2.479 10.555,2.479 C10.555,2.488 10.555,2.498 10.555,2.507 C10.559,2.507 10.564,2.507 10.569,2.507 C10.583,2.571 10.597,2.635 10.611,2.698 C10.616,2.698 10.621,2.698 10.625,2.698 C10.625,2.717 10.625,2.735 10.625,2.753 C10.660,2.854 10.679,2.989 10.710,3.096 C10.710,3.141 10.710,3.187 10.710,3.233 C10.759,3.401 10.759,3.873 10.710,4.041 C10.710,4.082 10.710,4.124 10.710,4.164 C10.682,4.311 10.654,4.457 10.625,4.603 C10.621,4.603 10.616,4.603 10.611,4.603 C10.611,4.617 10.611,4.631 10.611,4.644 C10.607,4.644 10.602,4.644 10.597,4.644 C10.593,4.680 10.588,4.717 10.583,4.754 C10.578,4.754 10.574,4.754 10.569,4.754 C10.569,4.768 10.569,4.782 10.569,4.795 C10.564,4.795 10.559,4.795 10.555,4.795 C10.555,4.809 10.555,4.822 10.555,4.836 C10.550,4.836 10.545,4.836 10.541,4.836 C10.541,4.850 10.541,4.863 10.541,4.877 C10.536,4.877 10.531,4.877 10.526,4.877 C10.526,4.891 10.526,4.904 10.526,4.918 C10.522,4.918 10.517,4.918 10.512,4.918 C10.512,4.937 10.512,4.955 10.512,4.973 C10.508,4.973 10.503,4.973 10.498,4.973 C10.498,4.986 10.498,5.001 10.498,5.015 C10.494,5.015 10.489,5.015 10.484,5.015 C10.484,5.023 10.484,5.033 10.484,5.042 C10.479,5.042 10.475,5.042 10.470,5.042 C10.470,5.055 10.470,5.069 10.470,5.082 C10.465,5.082 10.461,5.082 10.456,5.082 C10.456,5.092 10.456,5.101 10.456,5.111 C10.451,5.111 10.446,5.111 10.442,5.111 C10.437,5.137 10.432,5.165 10.428,5.192 C10.423,5.192 10.418,5.192 10.414,5.192 C10.414,5.202 10.414,5.211 10.414,5.220 C10.409,5.220 10.404,5.220 10.399,5.220 C10.399,5.233 10.399,5.247 10.399,5.261 C10.395,5.261 10.390,5.261 10.385,5.261 C10.381,5.279 10.376,5.298 10.371,5.316 C10.366,5.316 10.362,5.316 10.357,5.316 C10.357,5.330 10.357,5.343 10.357,5.357 C10.352,5.357 10.348,5.357 10.343,5.357 C10.333,5.384 10.324,5.412 10.315,5.439 C10.310,5.439 10.305,5.439 10.300,5.439 C10.300,5.448 10.300,5.457 10.300,5.466 C10.296,5.466 10.291,5.466 10.286,5.466 C10.286,5.476 10.286,5.484 10.286,5.494 C10.282,5.494 10.277,5.494 10.272,5.494 C10.272,5.503 10.272,5.512 10.272,5.521 C10.268,5.521 10.263,5.521 10.258,5.521 C10.258,5.530 10.258,5.540 10.258,5.548 C10.253,5.548 10.249,5.548 10.244,5.548 C10.244,5.558 10.244,5.567 10.244,5.576 C10.239,5.576 10.235,5.576 10.230,5.576 C10.230,5.585 10.230,5.595 10.230,5.604 C10.225,5.604 10.220,5.604 10.216,5.604 C10.216,5.612 10.216,5.622 10.216,5.631 C10.211,5.631 10.206,5.631 10.202,5.631 C10.202,5.640 10.202,5.649 10.202,5.658 C10.197,5.658 10.192,5.658 10.187,5.658 C10.187,5.667 10.187,5.677 10.187,5.686 C10.178,5.691 10.169,5.695 10.159,5.700 C10.159,5.713 10.159,5.727 10.159,5.741 C10.150,5.745 10.140,5.750 10.131,5.754 C10.126,5.773 10.122,5.791 10.117,5.809 C10.107,5.814 10.098,5.818 10.089,5.823 C10.084,5.841 10.079,5.859 10.074,5.877 C10.065,5.882 10.056,5.887 10.046,5.891 C10.041,5.910 10.037,5.927 10.032,5.946 C10.023,5.950 10.013,5.955 10.004,5.960 C10.004,5.969 10.004,5.978 10.004,5.987 C9.994,5.992 9.985,5.996 9.976,6.000 C9.976,6.010 9.976,6.019 9.976,6.028 C9.966,6.033 9.957,6.037 9.947,6.042 C9.947,6.051 9.947,6.060 9.947,6.070 C9.938,6.074 9.928,6.078 9.919,6.083 C9.919,6.092 9.919,6.101 9.919,6.111 C9.910,6.115 9.900,6.119 9.891,6.124 C9.891,6.133 9.891,6.143 9.891,6.152 C9.877,6.161 9.862,6.170 9.848,6.179 C9.848,6.188 9.848,6.197 9.848,6.207 C9.839,6.211 9.830,6.215 9.820,6.220 C9.820,6.229 9.820,6.239 9.820,6.248 C9.811,6.252 9.801,6.257 9.792,6.262 C9.792,6.266 9.792,6.270 9.792,6.275 C9.782,6.279 9.773,6.285 9.764,6.289 C9.764,6.298 9.764,6.307 9.764,6.316 C9.745,6.330 9.726,6.343 9.707,6.357 C9.707,6.366 9.707,6.375 9.707,6.385 C9.688,6.398 9.669,6.412 9.651,6.426 C9.651,6.435 9.651,6.444 9.651,6.453 C9.627,6.472 9.604,6.489 9.580,6.508 C9.580,6.517 9.580,6.526 9.580,6.535 C9.490,6.618 9.401,6.700 9.311,6.782 C9.269,6.828 9.227,6.873 9.184,6.919 C9.175,6.919 9.165,6.919 9.156,6.919 C9.137,6.942 9.118,6.965 9.100,6.988 C9.090,6.988 9.081,6.988 9.071,6.988 C9.057,7.006 9.043,7.024 9.029,7.043 C9.019,7.043 9.010,7.043 9.001,7.043 C8.991,7.056 8.982,7.070 8.972,7.083 C8.963,7.083 8.953,7.083 8.944,7.083 C8.935,7.097 8.925,7.111 8.916,7.124 C8.906,7.124 8.897,7.124 8.887,7.124 C8.883,7.134 8.878,7.143 8.873,7.152 C8.864,7.152 8.855,7.152 8.845,7.152 C8.836,7.166 8.826,7.179 8.817,7.193 C8.807,7.193 8.798,7.193 8.789,7.193 C8.784,7.202 8.779,7.211 8.775,7.220 C8.765,7.220 8.756,7.220 8.746,7.220 C8.742,7.230 8.737,7.239 8.732,7.248 C8.718,7.253 8.704,7.257 8.690,7.262 C8.690,7.266 8.690,7.271 8.690,7.275 C8.671,7.280 8.652,7.285 8.633,7.289 C8.628,7.298 8.624,7.307 8.619,7.316 C8.605,7.321 8.591,7.326 8.577,7.331 C8.577,7.335 8.577,7.339 8.577,7.344 C8.548,7.353 8.520,7.362 8.492,7.371 C8.492,7.376 8.492,7.381 8.492,7.385 C8.483,7.385 8.473,7.385 8.464,7.385 C8.464,7.390 8.464,7.394 8.464,7.398 C8.454,7.398 8.445,7.398 8.435,7.398 C8.431,7.408 8.426,7.417 8.421,7.426 C8.407,7.426 8.393,7.426 8.379,7.426 C8.374,7.435 8.369,7.444 8.365,7.453 C8.351,7.453 8.337,7.453 8.322,7.453 C8.322,7.458 8.322,7.463 8.322,7.467 C8.313,7.467 8.304,7.467 8.294,7.467 C8.294,7.472 8.294,7.477 8.294,7.481 C8.266,7.490 8.237,7.499 8.209,7.509 C8.209,7.513 8.209,7.517 8.209,7.522 C8.195,7.522 8.181,7.522 8.167,7.522 C8.167,7.527 8.167,7.531 8.167,7.536 C8.158,7.536 8.148,7.536 8.139,7.536 C8.139,7.540 8.139,7.545 8.139,7.549 C8.124,7.549 8.110,7.549 8.096,7.549 C8.096,7.555 8.096,7.558 8.096,7.563 C8.087,7.563 8.077,7.563 8.068,7.563 C8.068,7.567 8.068,7.572 8.068,7.577 C8.040,7.582 8.011,7.586 7.983,7.590 C7.983,7.595 7.983,7.600 7.983,7.605 C7.974,7.605 7.964,7.605 7.955,7.605 C7.955,7.609 7.955,7.613 7.955,7.618 C7.936,7.618 7.917,7.618 7.898,7.618 C7.493,7.759 6.821,7.829 6.358,7.687 C6.335,7.687 6.311,7.687 6.288,7.687 C6.288,7.682 6.288,7.678 6.288,7.673 C6.250,7.668 6.212,7.663 6.175,7.659 C6.175,7.655 6.175,7.650 6.175,7.645 C6.160,7.645 6.146,7.645 6.132,7.645 C6.132,7.641 6.132,7.636 6.132,7.632 C6.118,7.632 6.104,7.632 6.090,7.632 C6.090,7.627 6.090,7.623 6.090,7.618 C6.071,7.618 6.052,7.618 6.033,7.618 C6.033,7.613 6.033,7.609 6.033,7.605 C6.024,7.605 6.014,7.605 6.005,7.605 C6.005,7.600 6.005,7.595 6.005,7.590 C5.977,7.586 5.948,7.582 5.920,7.577 C5.920,7.572 5.920,7.567 5.920,7.563 C5.911,7.563 5.901,7.563 5.892,7.563 C5.892,7.558 5.892,7.555 5.892,7.549 C5.878,7.549 5.864,7.549 5.850,7.549 C5.850,7.545 5.850,7.540 5.850,7.536 C5.840,7.536 5.831,7.536 5.821,7.536 C5.821,7.531 5.821,7.527 5.821,7.522 C5.807,7.522 5.793,7.522 5.779,7.522 C5.779,7.517 5.779,7.513 5.779,7.509 C5.760,7.504 5.741,7.499 5.722,7.494 C5.722,7.490 5.722,7.486 5.722,7.481 C5.713,7.481 5.704,7.481 5.694,7.481 C5.694,7.477 5.694,7.472 5.694,7.467 C5.671,7.463 5.647,7.458 5.623,7.453 C5.619,7.444 5.614,7.435 5.609,7.426 C5.586,7.422 5.562,7.417 5.539,7.413 C5.534,7.403 5.529,7.394 5.525,7.385 C5.515,7.385 5.506,7.385 5.496,7.385 C5.496,7.381 5.496,7.376 5.496,7.371 C5.487,7.371 5.477,7.371 5.468,7.371 C5.468,7.367 5.468,7.362 5.468,7.357 C5.459,7.357 5.449,7.357 5.440,7.357 C5.440,7.353 5.440,7.349 5.440,7.344 C5.430,7.344 5.421,7.344 5.412,7.344 C5.407,7.335 5.402,7.326 5.397,7.316 C5.388,7.316 5.379,7.316 5.369,7.316 C5.365,7.307 5.360,7.298 5.355,7.289 C5.336,7.285 5.317,7.280 5.298,7.275 C5.294,7.266 5.289,7.257 5.284,7.248 C5.275,7.248 5.266,7.248 5.256,7.248 C5.251,7.239 5.247,7.230 5.242,7.220 C5.233,7.220 5.223,7.220 5.214,7.220 C5.209,7.211 5.204,7.202 5.200,7.193 C5.190,7.193 5.181,7.193 5.171,7.193 C5.167,7.184 5.162,7.174 5.157,7.166 C5.148,7.166 5.138,7.166 5.129,7.166 C5.124,7.156 5.119,7.147 5.115,7.139 C5.105,7.139 5.096,7.139 5.087,7.139 C5.072,7.120 5.058,7.102 5.044,7.083 C5.035,7.083 5.025,7.083 5.016,7.083 C5.007,7.070 4.997,7.056 4.988,7.043 C4.978,7.043 4.969,7.043 4.959,7.043 C4.945,7.024 4.931,7.006 4.917,6.988 C4.908,6.988 4.898,6.988 4.889,6.988 C4.865,6.960 4.842,6.932 4.818,6.905 C4.809,6.905 4.799,6.905 4.790,6.905 C4.752,6.864 4.714,6.823 4.677,6.782 C4.663,6.773 4.649,6.764 4.634,6.755 C4.634,6.750 4.634,6.745 4.634,6.741 C4.625,6.741 4.616,6.741 4.606,6.741 C4.597,6.723 4.587,6.704 4.578,6.686 C4.521,6.636 4.465,6.585 4.408,6.535 C4.408,6.526 4.408,6.517 4.408,6.508 C4.380,6.485 4.352,6.462 4.324,6.439 C4.324,6.431 4.324,6.421 4.324,6.412 C4.314,6.408 4.305,6.403 4.295,6.398 C4.295,6.394 4.295,6.389 4.295,6.385 C4.281,6.375 4.267,6.366 4.253,6.357 C4.253,6.348 4.253,6.339 4.253,6.330 C4.244,6.325 4.234,6.320 4.225,6.316 C4.225,6.307 4.225,6.298 4.225,6.289 C4.206,6.275 4.187,6.262 4.168,6.248 C4.168,6.239 4.168,6.229 4.168,6.220 C4.154,6.211 4.140,6.202 4.126,6.193 C4.126,6.183 4.126,6.174 4.126,6.166 C4.116,6.161 4.107,6.157 4.098,6.152 C4.093,6.138 4.088,6.124 4.083,6.111 C4.079,6.111 4.074,6.111 4.069,6.111 C4.069,6.101 4.069,6.092 4.069,6.083 C4.055,6.074 4.041,6.065 4.027,6.056 C4.022,6.037 4.017,6.019 4.013,6.000 C4.003,5.996 3.994,5.992 3.984,5.987 C3.984,5.978 3.984,5.969 3.984,5.960 C3.975,5.955 3.966,5.950 3.956,5.946 C3.956,5.937 3.956,5.927 3.956,5.919 C3.947,5.914 3.937,5.910 3.928,5.905 C3.928,5.896 3.928,5.887 3.928,5.877 C3.919,5.873 3.909,5.869 3.900,5.864 C3.900,5.854 3.900,5.846 3.900,5.837 C3.895,5.837 3.890,5.837 3.886,5.837 C3.886,5.827 3.886,5.818 3.886,5.809 C3.881,5.809 3.876,5.809 3.872,5.809 C3.872,5.800 3.872,5.791 3.872,5.782 C3.867,5.782 3.862,5.782 3.857,5.782 C3.857,5.773 3.857,5.764 3.857,5.754 C3.848,5.750 3.838,5.745 3.829,5.741 C3.829,5.727 3.829,5.713 3.829,5.700 C3.820,5.695 3.810,5.691 3.801,5.686 C3.801,5.677 3.801,5.667 3.801,5.658 C3.796,5.658 3.791,5.658 3.786,5.658 C3.786,5.649 3.786,5.640 3.786,5.631 C3.782,5.631 3.777,5.631 3.773,5.631 C3.773,5.622 3.773,5.612 3.773,5.604 C3.768,5.604 3.763,5.604 3.758,5.604 C3.758,5.595 3.758,5.585 3.758,5.576 C3.754,5.576 3.749,5.576 3.744,5.576 C3.744,5.567 3.744,5.558 3.744,5.548 C3.735,5.544 3.725,5.540 3.716,5.535 C3.711,5.512 3.707,5.489 3.702,5.466 C3.697,5.466 3.693,5.466 3.688,5.466 C3.688,5.457 3.688,5.448 3.688,5.439 C3.683,5.439 3.678,5.439 3.674,5.439 C3.674,5.430 3.674,5.421 3.674,5.412 C3.669,5.412 3.664,5.412 3.659,5.412 C3.650,5.384 3.641,5.357 3.631,5.330 C3.626,5.330 3.622,5.330 3.617,5.330 C3.617,5.316 3.617,5.302 3.617,5.289 C3.612,5.289 3.608,5.289 3.603,5.289 C3.603,5.279 3.603,5.270 3.603,5.261 C3.598,5.261 3.594,5.261 3.589,5.261 C3.589,5.247 3.589,5.233 3.589,5.220 C3.584,5.220 3.579,5.220 3.575,5.220 C3.575,5.211 3.575,5.202 3.575,5.192 C3.570,5.192 3.565,5.192 3.560,5.192 C3.556,5.169 3.551,5.146 3.547,5.124 C3.542,5.124 3.537,5.124 3.532,5.124 C3.532,5.111 3.532,5.096 3.532,5.082 C3.528,5.082 3.523,5.082 3.518,5.082 C3.518,5.074 3.518,5.065 3.518,5.055 C3.513,5.055 3.509,5.055 3.504,5.055 C3.452,4.886 3.400,4.717 3.349,4.549 C3.339,4.480 3.330,4.411 3.320,4.343 C3.316,4.343 3.311,4.343 3.306,4.343 C3.306,4.320 3.306,4.297 3.306,4.274 C3.301,4.274 3.297,4.274 3.292,4.274 C3.292,4.242 3.292,4.210 3.292,4.178 C3.287,4.178 3.283,4.178 3.278,4.178 C3.278,4.137 3.278,4.096 3.278,4.055 C3.240,3.925 3.250,3.742 3.250,3.575 C3.250,3.206 3.305,2.876 3.405,2.602 C3.405,2.585 3.405,2.565 3.405,2.547 C3.410,2.547 3.414,2.547 3.419,2.547 C3.419,2.534 3.419,2.520 3.419,2.507 C3.424,2.507 3.429,2.507 3.433,2.507 C3.433,2.493 3.433,2.479 3.433,2.465 C3.438,2.465 3.443,2.465 3.448,2.465 C3.448,2.452 3.448,2.438 3.448,2.424 C3.452,2.424 3.457,2.424 3.462,2.424 C3.462,2.415 3.462,2.406 3.462,2.397 C3.466,2.397 3.471,2.397 3.476,2.397 C3.480,2.370 3.485,2.342 3.490,2.315 C3.495,2.315 3.499,2.315 3.504,2.315 C3.509,2.296 3.513,2.278 3.518,2.260 C3.523,2.260 3.528,2.260 3.532,2.260 C3.532,2.246 3.532,2.232 3.532,2.218 C3.537,2.218 3.542,2.218 3.547,2.218 C3.547,2.210 3.547,2.201 3.547,2.191 C3.551,2.191 3.556,2.191 3.560,2.191 C3.560,2.178 3.560,2.164 3.560,2.150 C3.565,2.150 3.570,2.150 3.575,2.150 C3.584,2.123 3.594,2.095 3.603,2.068 C3.608,2.068 3.612,2.068 3.617,2.068 C3.617,2.059 3.617,2.050 3.617,2.041 C3.622,2.041 3.626,2.041 3.631,2.041 C3.631,2.031 3.631,2.023 3.631,2.013 C3.636,2.013 3.641,2.013 3.645,2.013 C3.645,2.004 3.645,1.995 3.645,1.986 C3.650,1.986 3.655,1.986 3.659,1.986 C3.659,1.977 3.659,1.967 3.659,1.958 C3.664,1.958 3.669,1.958 3.674,1.958 C3.674,1.949 3.674,1.940 3.674,1.931 C3.678,1.931 3.683,1.931 3.688,1.931 C3.688,1.922 3.688,1.912 3.688,1.903 C3.693,1.903 3.697,1.903 3.702,1.903 C3.702,1.894 3.702,1.885 3.702,1.876 C3.711,1.872 3.721,1.867 3.730,1.863 C3.730,1.853 3.730,1.844 3.730,1.835 C3.735,1.835 3.740,1.835 3.744,1.835 C3.744,1.826 3.744,1.816 3.744,1.808 C3.749,1.808 3.754,1.808 3.758,1.808 C3.758,1.799 3.758,1.789 3.758,1.780 C3.763,1.780 3.768,1.780 3.773,1.780 C3.773,1.771 3.773,1.762 3.773,1.753 C3.782,1.748 3.791,1.744 3.801,1.739 C3.801,1.730 3.801,1.720 3.801,1.712 C3.810,1.707 3.820,1.703 3.829,1.698 C3.829,1.689 3.829,1.680 3.829,1.671 C3.838,1.666 3.848,1.661 3.857,1.657 C3.857,1.648 3.857,1.639 3.857,1.630 C3.867,1.625 3.876,1.620 3.886,1.616 C3.890,1.597 3.895,1.579 3.900,1.561 C3.919,1.547 3.937,1.533 3.956,1.520 C3.961,1.501 3.966,1.483 3.970,1.465 C3.989,1.451 4.008,1.437 4.027,1.424 C4.027,1.415 4.027,1.406 4.027,1.397 C4.050,1.378 4.074,1.360 4.098,1.341 C4.098,1.333 4.098,1.323 4.098,1.314 C4.121,1.296 4.145,1.278 4.168,1.260 C4.168,1.250 4.168,1.241 4.168,1.232 C4.215,1.191 4.262,1.150 4.309,1.109 C4.309,1.100 4.309,1.091 4.309,1.081 C4.328,1.072 4.347,1.063 4.366,1.054 C4.371,1.040 4.375,1.027 4.380,1.013 C4.390,1.013 4.399,1.013 4.408,1.013 C4.455,0.962 4.503,0.912 4.550,0.862 C4.559,0.862 4.568,0.862 4.578,0.862 C4.592,0.844 4.606,0.825 4.620,0.807 C4.630,0.807 4.639,0.807 4.649,0.807 C4.653,0.799 4.658,0.789 4.663,0.779 C4.667,0.779 4.672,0.779 4.677,0.779 C4.682,0.771 4.686,0.762 4.691,0.753 C4.700,0.753 4.710,0.753 4.719,0.753 C4.729,0.739 4.738,0.725 4.747,0.711 C4.757,0.711 4.766,0.711 4.776,0.711 C4.785,0.698 4.795,0.683 4.804,0.670 C4.813,0.670 4.823,0.670 4.832,0.670 C4.837,0.661 4.842,0.652 4.846,0.643 C4.861,0.638 4.875,0.633 4.889,0.629 C4.889,0.625 4.889,0.620 4.889,0.615 C4.898,0.615 4.908,0.615 4.917,0.615 C4.922,0.606 4.926,0.597 4.931,0.588 C4.941,0.588 4.950,0.588 4.959,0.588 C4.964,0.579 4.969,0.570 4.973,0.560 C4.988,0.556 5.002,0.552 5.016,0.547 C5.016,0.543 5.016,0.538 5.016,0.533 C5.035,0.529 5.054,0.524 5.072,0.519 C5.077,0.510 5.082,0.502 5.087,0.492 C5.115,0.483 5.143,0.474 5.171,0.465 C5.176,0.456 5.181,0.446 5.186,0.437 C5.195,0.437 5.204,0.437 5.214,0.437 C5.214,0.433 5.214,0.428 5.214,0.424 C5.223,0.424 5.233,0.424 5.242,0.424 C5.242,0.419 5.242,0.414 5.242,0.410 C5.251,0.410 5.261,0.410 5.270,0.410 C5.270,0.405 5.270,0.401 5.270,0.396 C5.280,0.396 5.289,0.396 5.298,0.396 C5.298,0.392 5.298,0.387 5.298,0.383 C5.308,0.383 5.317,0.383 5.327,0.383 C5.327,0.378 5.327,0.373 5.327,0.369 C5.336,0.369 5.346,0.369 5.355,0.369 C5.355,0.364 5.355,0.360 5.355,0.355 C5.365,0.355 5.374,0.355 5.383,0.355 C5.383,0.350 5.383,0.346 5.383,0.341 C5.412,0.332 5.440,0.323 5.468,0.314 C5.468,0.309 5.468,0.305 5.468,0.300 C5.482,0.300 5.496,0.300 5.511,0.300 C5.511,0.296 5.511,0.291 5.511,0.287 C5.520,0.287 5.529,0.287 5.539,0.287 C5.539,0.282 5.539,0.277 5.539,0.273 C5.562,0.268 5.586,0.264 5.609,0.259 C5.609,0.255 5.609,0.250 5.609,0.245 C5.623,0.245 5.638,0.245 5.652,0.245 C5.652,0.240 5.652,0.237 5.652,0.232 C5.661,0.232 5.671,0.232 5.680,0.232 C5.680,0.227 5.680,0.223 5.680,0.218 C5.722,0.209 5.765,0.200 5.807,0.191 C5.807,0.186 5.807,0.181 5.807,0.177 C5.817,0.177 5.826,0.177 5.835,0.177 C5.835,0.173 5.835,0.168 5.835,0.163 C5.854,0.163 5.873,0.163 5.892,0.163 C5.892,0.159 5.892,0.154 5.892,0.149 C5.906,0.149 5.920,0.149 5.934,0.149 C5.934,0.145 5.934,0.141 5.934,0.136 C5.953,0.136 5.972,0.136 5.991,0.136 C6.261,0.043 6.588,-0.001 6.952,-0.001 C7.116,0.003 7.281,0.008 7.446,0.013 C7.616,0.045 7.785,0.076 7.955,0.109 C7.955,0.113 7.955,0.117 7.955,0.122 C7.988,0.127 8.021,0.131 8.054,0.136 C8.054,0.141 8.054,0.145 8.054,0.149 C8.068,0.149 8.082,0.149 8.096,0.149 C8.096,0.154 8.096,0.159 8.096,0.163 C8.110,0.163 8.124,0.163 8.139,0.163 C8.139,0.168 8.139,0.173 8.139,0.177 C8.153,0.177 8.167,0.177 8.181,0.177 C8.181,0.181 8.181,0.186 8.181,0.191 C8.195,0.191 8.209,0.191 8.223,0.191 C8.223,0.195 8.223,0.200 8.223,0.204 C8.237,0.204 8.252,0.204 8.266,0.204 C8.266,0.209 8.266,0.213 8.266,0.218 C8.294,0.223 8.322,0.227 8.351,0.232 C8.351,0.237 8.351,0.240 8.351,0.245 C8.369,0.250 8.388,0.255 8.407,0.259 C8.407,0.264 8.407,0.268 8.407,0.273 C8.421,0.273 8.435,0.273 8.449,0.273 C8.449,0.277 8.449,0.282 8.449,0.287 C8.459,0.287 8.468,0.287 8.478,0.287 C8.478,0.291 8.478,0.296 8.478,0.300 C8.492,0.300 8.506,0.300 8.520,0.300 C8.520,0.305 8.520,0.309 8.520,0.314 C8.548,0.323 8.577,0.332 8.605,0.341 C8.605,0.346 8.605,0.350 8.605,0.355 C8.614,0.355 8.624,0.355 8.633,0.355 C8.633,0.360 8.633,0.364 8.633,0.369 C8.643,0.369 8.652,0.369 8.661,0.369 C8.661,0.373 8.661,0.378 8.661,0.383 C8.671,0.383 8.680,0.383 8.690,0.383 C8.690,0.387 8.690,0.392 8.690,0.396 C8.699,0.396 8.709,0.396 8.718,0.396 C8.718,0.401 8.718,0.405 8.718,0.410 C8.727,0.410 8.737,0.410 8.746,0.410 C8.746,0.414 8.746,0.419 8.746,0.424 C8.756,0.424 8.765,0.424 8.775,0.424 C8.779,0.433 8.784,0.442 8.789,0.451 C8.798,0.451 8.807,0.451 8.817,0.451 C8.817,0.456 8.817,0.460 8.817,0.465 C8.826,0.465 8.836,0.465 8.845,0.465 C8.845,0.469 8.845,0.474 8.845,0.479 C8.855,0.479 8.864,0.479 8.873,0.479 C8.873,0.483 8.873,0.487 8.873,0.492 C8.883,0.492 8.892,0.492 8.902,0.492 C8.902,0.496 8.902,0.502 8.902,0.506 C8.916,0.510 8.930,0.515 8.944,0.519 C8.949,0.529 8.953,0.538 8.958,0.547 C8.968,0.547 8.977,0.547 8.986,0.547 C8.991,0.556 8.996,0.565 9.001,0.575 C9.019,0.579 9.038,0.583 9.057,0.588 C9.062,0.597 9.066,0.606 9.071,0.615 C9.081,0.615 9.090,0.615 9.100,0.615 C9.104,0.625 9.109,0.633 9.114,0.643 C9.123,0.643 9.132,0.643 9.142,0.643 C9.151,0.656 9.161,0.670 9.170,0.683 C9.180,0.683 9.189,0.683 9.198,0.683 C9.203,0.693 9.208,0.702 9.212,0.711 C9.222,0.711 9.231,0.711 9.241,0.711 C9.250,0.725 9.260,0.739 9.269,0.753 C9.279,0.753 9.288,0.753 9.297,0.753 C9.316,0.775 9.335,0.799 9.354,0.821 C9.363,0.821 9.373,0.821 9.382,0.821 C9.391,0.835 9.401,0.849 9.410,0.862 C9.424,0.867 9.439,0.871 9.453,0.875 C9.457,0.885 9.462,0.894 9.467,0.903 C9.502,0.935 9.561,1.000 9.608,1.013 ZM12.420,9.029 C12.420,9.038 12.420,9.048 12.420,9.057 C12.462,9.074 12.492,9.091 12.505,9.139 C12.548,9.149 12.565,9.165 12.575,9.208 C12.585,9.208 12.594,9.208 12.604,9.208 C12.608,9.217 12.613,9.226 12.618,9.235 C12.622,9.235 12.627,9.235 12.632,9.235 C12.632,9.245 12.632,9.253 12.632,9.263 C12.674,9.299 12.717,9.335 12.759,9.372 C12.759,9.381 12.759,9.391 12.759,9.399 C12.773,9.408 12.787,9.418 12.801,9.427 C12.801,9.431 12.801,9.436 12.801,9.440 C12.811,9.445 12.820,9.449 12.830,9.454 C12.830,9.464 12.830,9.473 12.830,9.482 C12.858,9.504 12.886,9.528 12.914,9.550 C12.914,9.559 12.914,9.568 12.914,9.577 C12.933,9.591 12.952,9.605 12.971,9.618 C12.976,9.637 12.980,9.655 12.985,9.673 C13.004,9.687 13.023,9.701 13.042,9.715 C13.042,9.724 13.042,9.733 13.042,9.742 C13.051,9.746 13.060,9.751 13.070,9.755 C13.070,9.765 13.070,9.774 13.070,9.783 C13.084,9.792 13.098,9.801 13.112,9.811 C13.117,9.829 13.122,9.847 13.126,9.865 C13.141,9.875 13.155,9.884 13.169,9.892 C13.169,9.902 13.169,9.911 13.169,9.920 C13.178,9.925 13.188,9.929 13.197,9.934 C13.197,9.943 13.197,9.953 13.197,9.961 C13.206,9.966 13.216,9.971 13.225,9.975 C13.230,9.989 13.235,10.003 13.240,10.016 C13.244,10.016 13.249,10.016 13.254,10.016 C13.254,10.025 13.254,10.034 13.254,10.043 C13.258,10.043 13.263,10.043 13.268,10.043 C13.268,10.053 13.268,10.062 13.268,10.071 C13.277,10.076 13.286,10.080 13.296,10.084 C13.305,10.112 13.315,10.139 13.324,10.167 C13.334,10.172 13.343,10.176 13.352,10.180 C13.352,10.190 13.352,10.199 13.352,10.208 C13.357,10.208 13.362,10.208 13.367,10.208 C13.367,10.217 13.367,10.226 13.367,10.235 C13.371,10.235 13.376,10.235 13.381,10.235 C13.381,10.244 13.381,10.254 13.381,10.262 C13.386,10.262 13.390,10.262 13.395,10.262 C13.395,10.272 13.395,10.281 13.395,10.290 C13.400,10.290 13.404,10.290 13.409,10.290 C13.409,10.300 13.409,10.309 13.409,10.318 C13.419,10.322 13.428,10.327 13.437,10.331 C13.437,10.341 13.437,10.349 13.437,10.358 C13.442,10.358 13.447,10.358 13.451,10.358 C13.451,10.368 13.451,10.377 13.451,10.386 C13.456,10.386 13.461,10.386 13.465,10.386 C13.465,10.400 13.465,10.413 13.465,10.427 C13.475,10.432 13.484,10.437 13.494,10.441 C13.494,10.450 13.494,10.459 13.494,10.469 C13.499,10.469 13.503,10.469 13.508,10.469 C13.508,10.477 13.508,10.486 13.508,10.496 C13.513,10.496 13.517,10.496 13.522,10.496 C13.522,10.509 13.522,10.523 13.522,10.537 C13.527,10.537 13.531,10.537 13.536,10.537 C13.536,10.546 13.536,10.555 13.536,10.565 C13.541,10.565 13.546,10.565 13.550,10.565 C13.560,10.592 13.569,10.619 13.579,10.647 C13.583,10.647 13.588,10.647 13.593,10.647 C13.593,10.660 13.593,10.674 13.593,10.688 C13.598,10.688 13.602,10.688 13.607,10.688 C13.607,10.696 13.607,10.706 13.607,10.715 C13.612,10.715 13.616,10.715 13.621,10.715 C13.626,10.738 13.630,10.761 13.635,10.784 C13.640,10.784 13.645,10.784 13.649,10.784 C13.649,10.797 13.649,10.811 13.649,10.824 C13.654,10.824 13.659,10.824 13.663,10.824 C13.663,10.834 13.663,10.843 13.663,10.852 C13.668,10.852 13.673,10.852 13.677,10.852 C13.682,10.879 13.687,10.907 13.692,10.934 C13.696,10.934 13.701,10.934 13.706,10.934 C13.706,10.944 13.706,10.952 13.706,10.962 C13.711,10.962 13.715,10.962 13.720,10.962 C13.729,11.007 13.739,11.053 13.748,11.099 C13.753,11.099 13.758,11.099 13.762,11.099 C13.762,11.112 13.762,11.127 13.762,11.140 C13.767,11.140 13.772,11.140 13.776,11.140 C13.776,11.154 13.776,11.167 13.776,11.181 C13.781,11.181 13.786,11.181 13.791,11.181 C13.791,11.194 13.791,11.208 13.791,11.222 C13.795,11.222 13.800,11.222 13.805,11.222 C13.805,11.240 13.805,11.259 13.805,11.277 C13.809,11.277 13.814,11.277 13.819,11.277 C13.819,11.295 13.819,11.314 13.819,11.331 C13.824,11.331 13.828,11.331 13.833,11.331 C13.833,11.346 13.833,11.359 13.833,11.373 C13.838,11.373 13.842,11.373 13.847,11.373 C13.847,11.391 13.847,11.410 13.847,11.428 C13.852,11.428 13.856,11.428 13.861,11.428 C13.861,11.450 13.861,11.474 13.861,11.496 C13.887,11.577 13.906,11.685 13.932,11.770 C13.932,11.798 13.932,11.825 13.932,11.853 C13.937,11.853 13.941,11.853 13.946,11.853 C13.951,11.930 13.955,12.008 13.960,12.086 C13.965,12.086 13.970,12.086 13.974,12.086 C13.974,12.140 13.974,12.195 13.974,12.250 C14.021,12.412 13.985,12.790 13.932,12.907 C13.927,12.907 13.923,12.907 13.918,12.907 C13.908,12.935 13.899,12.963 13.890,12.990 C13.885,12.990 13.880,12.990 13.875,12.990 C13.875,12.999 13.875,13.008 13.875,13.017 C13.871,13.017 13.866,13.017 13.861,13.017 C13.856,13.036 13.852,13.054 13.847,13.072 C13.838,13.076 13.828,13.081 13.819,13.086 C13.814,13.104 13.809,13.122 13.805,13.140 C13.791,13.149 13.776,13.159 13.762,13.168 C13.762,13.177 13.762,13.186 13.762,13.195 C13.668,13.291 13.574,13.388 13.480,13.483 C13.470,13.483 13.461,13.483 13.451,13.483 C13.432,13.506 13.414,13.529 13.395,13.552 C13.386,13.552 13.376,13.552 13.367,13.552 C13.362,13.561 13.357,13.570 13.352,13.579 C13.343,13.579 13.334,13.579 13.324,13.579 C13.315,13.592 13.305,13.607 13.296,13.620 C13.286,13.620 13.277,13.620 13.268,13.620 C13.258,13.634 13.249,13.648 13.240,13.661 C13.230,13.661 13.221,13.661 13.211,13.661 C13.206,13.671 13.202,13.679 13.197,13.688 C13.188,13.688 13.178,13.688 13.169,13.688 C13.164,13.698 13.159,13.707 13.155,13.716 C13.141,13.721 13.126,13.725 13.112,13.730 C13.112,13.735 13.112,13.739 13.112,13.743 C13.094,13.748 13.075,13.752 13.056,13.757 C13.051,13.767 13.046,13.775 13.042,13.784 C13.032,13.784 13.023,13.784 13.013,13.784 C13.013,13.789 13.013,13.794 13.013,13.798 C13.004,13.798 12.995,13.798 12.985,13.798 C12.980,13.807 12.976,13.817 12.971,13.826 C12.943,13.835 12.914,13.844 12.886,13.853 C12.882,13.862 12.877,13.872 12.872,13.880 C12.863,13.880 12.853,13.880 12.844,13.880 C12.844,13.885 12.844,13.890 12.844,13.894 C12.834,13.894 12.825,13.894 12.816,13.894 C12.816,13.899 12.816,13.903 12.816,13.908 C12.806,13.908 12.797,13.908 12.787,13.908 C12.787,13.913 12.787,13.917 12.787,13.922 C12.778,13.922 12.768,13.922 12.759,13.922 C12.759,13.926 12.759,13.930 12.759,13.935 C12.750,13.935 12.740,13.935 12.731,13.935 C12.731,13.940 12.731,13.944 12.731,13.949 C12.721,13.949 12.712,13.949 12.703,13.949 C12.703,13.954 12.703,13.958 12.703,13.963 C12.693,13.963 12.684,13.963 12.674,13.963 C12.674,13.967 12.674,13.972 12.674,13.976 C12.665,13.976 12.655,13.976 12.646,13.976 C12.646,13.981 12.646,13.985 12.646,13.990 C12.618,13.999 12.590,14.008 12.561,14.018 C12.561,14.022 12.561,14.026 12.561,14.031 C12.538,14.036 12.514,14.041 12.491,14.045 C12.491,14.050 12.491,14.054 12.491,14.058 C12.472,14.063 12.453,14.068 12.434,14.073 C12.434,14.077 12.434,14.081 12.434,14.086 C12.420,14.086 12.406,14.086 12.392,14.086 C12.392,14.091 12.392,14.095 12.392,14.100 C12.382,14.100 12.373,14.100 12.363,14.100 C12.363,14.104 12.363,14.109 12.363,14.114 C12.349,14.114 12.335,14.114 12.321,14.114 C12.321,14.118 12.321,14.122 12.321,14.127 C12.302,14.131 12.283,14.137 12.264,14.141 C12.264,14.145 12.264,14.150 12.264,14.154 C12.236,14.159 12.208,14.164 12.180,14.168 C12.180,14.173 12.180,14.178 12.180,14.182 C12.170,14.182 12.161,14.182 12.151,14.182 C12.151,14.187 12.151,14.191 12.151,14.196 C12.137,14.196 12.123,14.196 12.109,14.196 C12.109,14.200 12.109,14.205 12.109,14.210 C12.100,14.210 12.090,14.210 12.081,14.210 C12.081,14.214 12.081,14.219 12.081,14.223 C12.038,14.233 11.996,14.241 11.954,14.250 C11.954,14.255 11.954,14.260 11.954,14.264 C11.944,14.264 11.935,14.264 11.925,14.264 C11.925,14.269 11.925,14.273 11.925,14.278 C11.892,14.283 11.859,14.287 11.826,14.291 C11.826,14.296 11.826,14.301 11.826,14.305 C11.817,14.305 11.808,14.305 11.798,14.305 C11.798,14.310 11.798,14.314 11.798,14.319 C11.737,14.333 11.676,14.346 11.615,14.360 C11.615,14.365 11.615,14.369 11.615,14.374 C11.600,14.374 11.586,14.374 11.572,14.374 C11.572,14.378 11.572,14.383 11.572,14.388 C11.558,14.388 11.544,14.388 11.530,14.388 C11.530,14.393 11.530,14.397 11.530,14.401 C11.516,14.401 11.502,14.401 11.487,14.401 C11.487,14.406 11.487,14.410 11.487,14.415 C11.450,14.420 11.412,14.424 11.374,14.429 C11.374,14.433 11.374,14.438 11.374,14.443 C11.360,14.443 11.346,14.443 11.332,14.443 C11.332,14.447 11.332,14.451 11.332,14.456 C11.299,14.460 11.266,14.465 11.233,14.470 C11.233,14.474 11.233,14.479 11.233,14.484 C11.195,14.488 11.158,14.492 11.120,14.497 C11.120,14.502 11.120,14.506 11.120,14.511 C11.082,14.516 11.045,14.520 11.007,14.525 C11.007,14.529 11.007,14.534 11.007,14.539 C10.993,14.539 10.979,14.539 10.965,14.539 C10.965,14.543 10.965,14.547 10.965,14.552 C10.607,14.620 10.249,14.689 9.891,14.758 C9.830,14.762 9.768,14.766 9.707,14.771 C9.514,14.827 9.254,14.813 9.057,14.867 C9.010,14.867 8.963,14.867 8.916,14.867 C8.916,14.872 8.916,14.876 8.916,14.881 C8.803,14.886 8.690,14.890 8.577,14.895 C8.577,14.899 8.577,14.904 8.577,14.908 C8.525,14.908 8.473,14.908 8.421,14.908 C8.417,14.908 8.412,14.908 8.407,14.908 C8.407,14.913 8.407,14.917 8.407,14.922 C8.346,14.922 8.285,14.922 8.223,14.922 C8.223,14.926 8.223,14.931 8.223,14.936 C8.143,14.936 8.063,14.936 7.983,14.936 C7.983,14.940 7.983,14.945 7.983,14.949 C7.861,14.949 7.738,14.949 7.616,14.949 C7.468,14.989 7.200,14.963 7.022,14.963 C6.806,14.963 6.589,14.963 6.372,14.963 C6.372,14.958 6.372,14.954 6.372,14.949 C6.250,14.949 6.127,14.949 6.005,14.949 C6.005,14.945 6.005,14.940 6.005,14.936 C5.930,14.936 5.854,14.936 5.779,14.936 C5.779,14.931 5.779,14.926 5.779,14.922 C5.708,14.922 5.638,14.922 5.567,14.922 C5.567,14.917 5.567,14.913 5.567,14.908 C5.515,14.908 5.463,14.908 5.412,14.908 C5.412,14.904 5.412,14.899 5.412,14.895 C5.397,14.895 5.383,14.895 5.369,14.895 C5.317,14.895 5.266,14.895 5.214,14.895 C5.214,14.890 5.214,14.886 5.214,14.881 C5.167,14.881 5.119,14.881 5.072,14.881 C5.072,14.876 5.072,14.872 5.072,14.867 C5.025,14.867 4.978,14.867 4.931,14.867 C4.931,14.862 4.931,14.858 4.931,14.853 C4.898,14.853 4.865,14.853 4.832,14.853 C4.832,14.849 4.832,14.845 4.832,14.840 C4.790,14.840 4.747,14.840 4.705,14.840 C4.705,14.835 4.705,14.831 4.705,14.826 C4.667,14.826 4.630,14.826 4.592,14.826 C4.592,14.822 4.592,14.817 4.592,14.812 C4.554,14.812 4.517,14.812 4.479,14.812 C4.479,14.808 4.479,14.803 4.479,14.799 C4.441,14.799 4.404,14.799 4.366,14.799 C4.236,14.761 4.057,14.754 3.928,14.716 C3.900,14.716 3.872,14.716 3.843,14.716 C3.843,14.712 3.843,14.707 3.843,14.703 C3.820,14.703 3.796,14.703 3.773,14.703 C3.773,14.699 3.773,14.693 3.773,14.689 C3.744,14.689 3.716,14.689 3.688,14.689 C3.358,14.616 3.028,14.543 2.699,14.470 C2.699,14.465 2.699,14.460 2.699,14.456 C2.684,14.456 2.670,14.456 2.656,14.456 C2.656,14.451 2.656,14.447 2.656,14.443 C2.642,14.443 2.628,14.443 2.614,14.443 C2.614,14.438 2.614,14.433 2.614,14.429 C2.534,14.410 2.454,14.393 2.374,14.374 C2.374,14.369 2.374,14.365 2.374,14.360 C2.312,14.346 2.251,14.333 2.190,14.319 C2.190,14.314 2.190,14.310 2.190,14.305 C2.180,14.305 2.171,14.305 2.162,14.305 C2.162,14.301 2.162,14.296 2.162,14.291 C2.129,14.287 2.096,14.283 2.063,14.278 C2.063,14.273 2.063,14.269 2.063,14.264 C2.053,14.264 2.044,14.264 2.035,14.264 C2.035,14.260 2.035,14.255 2.035,14.250 C2.020,14.250 2.006,14.250 1.992,14.250 C1.992,14.246 1.992,14.241 1.992,14.237 C1.978,14.237 1.964,14.237 1.950,14.237 C1.950,14.233 1.950,14.228 1.950,14.223 C1.936,14.223 1.921,14.223 1.907,14.223 C1.907,14.219 1.907,14.214 1.907,14.210 C1.893,14.210 1.879,14.210 1.865,14.210 C1.865,14.205 1.865,14.200 1.865,14.196 C1.846,14.191 1.827,14.187 1.808,14.182 C1.808,14.178 1.808,14.173 1.808,14.168 C1.780,14.164 1.752,14.159 1.724,14.154 C1.724,14.150 1.724,14.145 1.724,14.141 C1.714,14.141 1.705,14.141 1.695,14.141 C1.695,14.137 1.695,14.131 1.695,14.127 C1.681,14.127 1.667,14.127 1.653,14.127 C1.653,14.122 1.653,14.118 1.653,14.114 C1.644,14.114 1.634,14.114 1.625,14.114 C1.625,14.109 1.625,14.104 1.625,14.100 C1.611,14.100 1.597,14.100 1.582,14.100 C1.582,14.095 1.582,14.091 1.582,14.086 C1.564,14.081 1.545,14.077 1.526,14.073 C1.526,14.068 1.526,14.063 1.526,14.058 C1.516,14.058 1.507,14.058 1.498,14.058 C1.498,14.054 1.498,14.050 1.498,14.045 C1.488,14.045 1.479,14.045 1.469,14.045 C1.469,14.041 1.469,14.036 1.469,14.031 C1.455,14.031 1.441,14.031 1.427,14.031 C1.427,14.026 1.427,14.022 1.427,14.018 C1.399,14.008 1.370,13.999 1.342,13.990 C1.342,13.985 1.342,13.981 1.342,13.976 C1.333,13.976 1.323,13.976 1.314,13.976 C1.314,13.972 1.314,13.967 1.314,13.963 C1.304,13.963 1.295,13.963 1.286,13.963 C1.286,13.958 1.286,13.954 1.286,13.949 C1.276,13.949 1.267,13.949 1.257,13.949 C1.257,13.944 1.257,13.940 1.257,13.935 C1.248,13.935 1.239,13.935 1.229,13.935 C1.229,13.930 1.229,13.926 1.229,13.922 C1.220,13.922 1.210,13.922 1.201,13.922 C1.201,13.917 1.201,13.913 1.201,13.908 C1.191,13.908 1.182,13.908 1.173,13.908 C1.173,13.903 1.173,13.899 1.173,13.894 C1.163,13.894 1.154,13.894 1.144,13.894 C1.144,13.890 1.144,13.885 1.144,13.880 C1.135,13.880 1.126,13.880 1.116,13.880 C1.111,13.872 1.107,13.862 1.102,13.853 C1.093,13.853 1.083,13.853 1.074,13.853 C1.074,13.848 1.074,13.844 1.074,13.839 C1.064,13.839 1.055,13.839 1.045,13.839 C1.045,13.835 1.045,13.831 1.045,13.826 C1.036,13.826 1.027,13.826 1.017,13.826 C1.017,13.821 1.017,13.817 1.017,13.812 C1.008,13.812 0.998,13.812 0.989,13.812 C0.989,13.807 0.989,13.803 0.989,13.798 C0.975,13.794 0.961,13.789 0.947,13.784 C0.942,13.775 0.937,13.767 0.932,13.757 C0.914,13.752 0.895,13.748 0.876,13.743 C0.871,13.735 0.866,13.725 0.862,13.716 C0.852,13.716 0.843,13.716 0.833,13.716 C0.833,13.711 0.833,13.707 0.833,13.702 C0.819,13.698 0.805,13.693 0.791,13.688 C0.786,13.679 0.782,13.671 0.777,13.661 C0.768,13.661 0.758,13.661 0.749,13.661 C0.739,13.648 0.730,13.634 0.720,13.620 C0.711,13.620 0.702,13.620 0.692,13.620 C0.687,13.611 0.683,13.602 0.678,13.592 C0.669,13.592 0.659,13.592 0.650,13.592 C0.645,13.584 0.640,13.575 0.636,13.565 C0.622,13.561 0.607,13.556 0.593,13.552 C0.579,13.533 0.565,13.515 0.551,13.497 C0.541,13.497 0.532,13.497 0.523,13.497 C0.480,13.451 0.438,13.405 0.395,13.360 C0.358,13.328 0.320,13.296 0.282,13.264 C0.185,13.133 0.088,12.990 0.028,12.826 C0.028,12.807 0.028,12.789 0.028,12.770 C0.023,12.770 0.019,12.770 0.014,12.770 C0.014,12.753 0.014,12.734 0.014,12.716 C0.009,12.716 0.005,12.716 -0.000,12.716 C-0.000,12.643 -0.000,12.570 -0.000,12.496 C-0.000,12.307 -0.002,12.112 0.042,11.962 C0.042,11.921 0.042,11.880 0.042,11.839 C0.047,11.839 0.052,11.839 0.056,11.839 C0.056,11.811 0.056,11.784 0.056,11.756 C0.061,11.756 0.066,11.756 0.070,11.756 C0.070,11.733 0.070,11.711 0.070,11.688 C0.075,11.688 0.080,11.688 0.085,11.688 C0.089,11.647 0.094,11.606 0.099,11.565 C0.104,11.565 0.108,11.565 0.113,11.565 C0.113,11.537 0.113,11.510 0.113,11.482 C0.118,11.482 0.122,11.482 0.127,11.482 C0.127,11.464 0.127,11.446 0.127,11.428 C0.132,11.428 0.136,11.428 0.141,11.428 C0.141,11.410 0.141,11.391 0.141,11.373 C0.146,11.373 0.151,11.373 0.155,11.373 C0.155,11.359 0.155,11.346 0.155,11.331 C0.160,11.331 0.165,11.331 0.169,11.331 C0.169,11.309 0.169,11.286 0.169,11.263 C0.174,11.263 0.179,11.263 0.184,11.263 C0.184,11.250 0.184,11.236 0.184,11.222 C0.188,11.222 0.193,11.222 0.198,11.222 C0.198,11.204 0.198,11.185 0.198,11.167 C0.202,11.167 0.207,11.167 0.212,11.167 C0.212,11.158 0.212,11.149 0.212,11.140 C0.216,11.140 0.221,11.140 0.226,11.140 C0.240,11.081 0.254,11.021 0.268,10.962 C0.273,10.962 0.278,10.962 0.282,10.962 C0.282,10.952 0.282,10.944 0.282,10.934 C0.287,10.934 0.292,10.934 0.297,10.934 C0.306,10.893 0.315,10.852 0.325,10.811 C0.330,10.811 0.334,10.811 0.339,10.811 C0.339,10.802 0.339,10.792 0.339,10.784 C0.344,10.784 0.348,10.784 0.353,10.784 C0.353,10.770 0.353,10.756 0.353,10.742 C0.358,10.742 0.363,10.742 0.367,10.742 C0.367,10.733 0.367,10.724 0.367,10.715 C0.372,10.715 0.377,10.715 0.381,10.715 C0.381,10.701 0.381,10.688 0.381,10.674 C0.386,10.674 0.391,10.674 0.395,10.674 C0.405,10.647 0.414,10.619 0.424,10.592 C0.428,10.592 0.433,10.592 0.438,10.592 C0.438,10.582 0.438,10.573 0.438,10.565 C0.443,10.565 0.447,10.565 0.452,10.565 C0.452,10.550 0.452,10.537 0.452,10.523 C0.457,10.523 0.461,10.523 0.466,10.523 C0.476,10.496 0.485,10.469 0.494,10.441 C0.499,10.441 0.504,10.441 0.508,10.441 C0.508,10.432 0.508,10.423 0.508,10.413 C0.513,10.413 0.518,10.413 0.523,10.413 C0.523,10.405 0.523,10.395 0.523,10.386 C0.527,10.386 0.532,10.386 0.537,10.386 C0.546,10.358 0.556,10.331 0.565,10.304 C0.574,10.300 0.584,10.295 0.593,10.290 C0.593,10.281 0.593,10.272 0.593,10.262 C0.598,10.262 0.603,10.262 0.607,10.262 C0.607,10.254 0.607,10.244 0.607,10.235 C0.612,10.235 0.617,10.235 0.622,10.235 C0.622,10.226 0.622,10.217 0.622,10.208 C0.626,10.208 0.631,10.208 0.636,10.208 C0.636,10.199 0.636,10.190 0.636,10.180 C0.645,10.176 0.654,10.172 0.664,10.167 C0.673,10.139 0.683,10.112 0.692,10.084 C0.702,10.080 0.711,10.076 0.720,10.071 C0.720,10.062 0.720,10.053 0.720,10.043 C0.725,10.043 0.730,10.043 0.735,10.043 C0.735,10.034 0.735,10.025 0.735,10.016 C0.739,10.016 0.744,10.016 0.749,10.016 C0.753,10.003 0.758,9.989 0.763,9.975 C0.772,9.971 0.782,9.966 0.791,9.961 C0.796,9.943 0.800,9.925 0.805,9.907 C0.819,9.897 0.833,9.888 0.848,9.879 C0.852,9.861 0.857,9.842 0.862,9.824 C0.871,9.820 0.881,9.815 0.890,9.811 C0.895,9.796 0.899,9.783 0.904,9.770 C0.918,9.760 0.932,9.751 0.947,9.742 C0.947,9.733 0.947,9.724 0.947,9.715 C0.956,9.710 0.965,9.705 0.975,9.701 C0.975,9.691 0.975,9.683 0.975,9.673 C0.989,9.664 1.003,9.655 1.017,9.647 C1.017,9.637 1.017,9.628 1.017,9.618 C1.036,9.605 1.055,9.591 1.074,9.577 C1.074,9.568 1.074,9.559 1.074,9.550 C1.083,9.545 1.093,9.541 1.102,9.537 C1.111,9.522 1.121,9.509 1.130,9.495 C1.135,9.495 1.140,9.495 1.144,9.495 C1.144,9.486 1.144,9.477 1.144,9.468 C1.168,9.449 1.191,9.431 1.215,9.413 C1.215,9.404 1.215,9.395 1.215,9.386 C1.262,9.345 1.309,9.303 1.356,9.263 C1.356,9.253 1.356,9.245 1.356,9.235 C1.366,9.230 1.375,9.226 1.385,9.221 C1.385,9.217 1.385,9.212 1.385,9.208 C1.394,9.208 1.403,9.208 1.413,9.208 C1.413,9.199 1.413,9.189 1.413,9.180 C1.446,9.153 1.479,9.126 1.512,9.098 C1.516,9.089 1.521,9.080 1.526,9.070 C1.559,9.046 1.551,9.085 1.568,9.029 C1.578,9.029 1.587,9.029 1.597,9.029 C1.634,8.989 1.672,8.947 1.710,8.906 C1.719,8.906 1.728,8.906 1.738,8.906 C1.757,8.883 1.775,8.861 1.794,8.838 C1.804,8.838 1.813,8.838 1.823,8.838 C1.827,8.829 1.832,8.819 1.837,8.810 C1.841,8.810 1.846,8.810 1.851,8.810 C1.856,8.801 1.860,8.792 1.865,8.783 C1.874,8.783 1.884,8.783 1.893,8.783 C1.898,8.774 1.903,8.764 1.907,8.755 C1.921,8.750 1.936,8.746 1.950,8.742 C1.964,8.723 1.978,8.705 1.992,8.687 C2.002,8.687 2.011,8.687 2.020,8.687 C2.030,8.673 2.039,8.659 2.049,8.646 C2.058,8.646 2.067,8.646 2.077,8.646 C2.077,8.641 2.077,8.637 2.077,8.632 C2.091,8.627 2.105,8.623 2.119,8.618 C2.124,8.609 2.129,8.600 2.133,8.591 C2.143,8.591 2.152,8.591 2.162,8.591 C2.171,8.577 2.180,8.563 2.190,8.550 C2.209,8.545 2.228,8.541 2.246,8.536 C2.256,8.523 2.265,8.509 2.275,8.495 C2.293,8.491 2.312,8.486 2.331,8.481 C2.336,8.473 2.341,8.463 2.345,8.454 C2.360,8.449 2.374,8.444 2.388,8.440 C2.388,8.436 2.388,8.431 2.388,8.427 C2.416,8.417 2.444,8.408 2.472,8.399 C2.477,8.390 2.482,8.381 2.487,8.372 C2.515,8.363 2.543,8.354 2.571,8.344 C2.576,8.335 2.581,8.326 2.586,8.317 C2.595,8.317 2.604,8.317 2.614,8.317 C2.614,8.312 2.614,8.308 2.614,8.303 C2.623,8.303 2.633,8.303 2.642,8.303 C2.642,8.299 2.642,8.294 2.642,8.290 C2.651,8.290 2.661,8.290 2.670,8.290 C2.670,8.285 2.670,8.280 2.670,8.276 C2.680,8.276 2.689,8.276 2.699,8.276 C2.699,8.271 2.699,8.267 2.699,8.262 C2.708,8.262 2.717,8.262 2.727,8.262 C2.727,8.258 2.727,8.253 2.727,8.248 C2.736,8.248 2.746,8.248 2.755,8.248 C2.755,8.244 2.755,8.239 2.755,8.235 C2.765,8.235 2.774,8.235 2.783,8.235 C2.783,8.230 2.783,8.225 2.783,8.221 C2.793,8.221 2.802,8.221 2.812,8.221 C2.812,8.217 2.812,8.212 2.812,8.207 C2.821,8.207 2.830,8.207 2.840,8.207 C2.840,8.203 2.840,8.198 2.840,8.193 C2.868,8.184 2.896,8.175 2.925,8.167 C2.925,8.161 2.925,8.157 2.925,8.152 C2.939,8.152 2.953,8.152 2.967,8.152 C2.967,8.148 2.967,8.143 2.967,8.139 C2.986,8.134 3.005,8.129 3.024,8.125 C3.024,8.121 3.024,8.116 3.024,8.111 C3.038,8.111 3.052,8.111 3.066,8.111 C3.066,8.107 3.066,8.102 3.066,8.097 C3.085,8.093 3.104,8.089 3.122,8.084 C3.122,8.079 3.122,8.075 3.122,8.071 C3.151,8.065 3.179,8.061 3.207,8.056 C3.207,8.052 3.207,8.048 3.207,8.043 C3.217,8.043 3.226,8.043 3.236,8.043 C3.236,8.038 3.236,8.034 3.236,8.029 C3.264,8.025 3.292,8.020 3.320,8.015 C3.320,8.011 3.320,8.006 3.320,8.001 C3.349,7.997 3.377,7.993 3.405,7.988 C3.405,7.984 3.405,7.979 3.405,7.974 C3.414,7.974 3.424,7.974 3.433,7.974 C3.433,7.969 3.433,7.965 3.433,7.960 C3.471,7.956 3.509,7.952 3.547,7.947 C3.547,7.943 3.547,7.938 3.547,7.933 C3.556,7.933 3.565,7.933 3.575,7.933 C3.575,7.929 3.575,7.924 3.575,7.919 C3.594,7.919 3.612,7.919 3.631,7.919 C3.631,7.915 3.631,7.910 3.631,7.906 C3.645,7.906 3.659,7.906 3.674,7.906 C3.674,7.901 3.674,7.897 3.674,7.892 C3.693,7.892 3.711,7.892 3.730,7.892 C3.730,7.888 3.730,7.883 3.730,7.878 C3.754,7.878 3.777,7.878 3.801,7.878 C3.915,7.843 4.055,7.805 4.196,7.796 C4.222,7.832 4.257,7.840 4.295,7.864 C4.300,7.874 4.305,7.883 4.309,7.892 C4.319,7.892 4.328,7.892 4.338,7.892 C4.352,7.910 4.366,7.929 4.380,7.947 C4.390,7.947 4.399,7.947 4.408,7.947 C4.408,7.952 4.408,7.956 4.408,7.960 C4.418,7.960 4.427,7.960 4.437,7.960 C4.441,7.969 4.446,7.979 4.451,7.988 C4.470,7.993 4.488,7.997 4.507,8.001 C4.512,8.010 4.517,8.020 4.521,8.029 C4.536,8.034 4.550,8.038 4.564,8.043 C4.564,8.048 4.564,8.052 4.564,8.056 C4.592,8.065 4.620,8.075 4.649,8.084 C4.653,8.093 4.658,8.102 4.663,8.111 C4.672,8.111 4.682,8.111 4.691,8.111 C4.691,8.116 4.691,8.121 4.691,8.125 C4.700,8.125 4.710,8.125 4.719,8.125 C4.719,8.129 4.719,8.134 4.719,8.139 C4.729,8.139 4.738,8.139 4.747,8.139 C4.747,8.143 4.747,8.148 4.747,8.152 C4.757,8.152 4.766,8.152 4.776,8.152 C4.780,8.161 4.785,8.171 4.790,8.180 C4.799,8.180 4.809,8.180 4.818,8.180 C4.818,8.184 4.818,8.189 4.818,8.193 C4.828,8.193 4.837,8.193 4.846,8.193 C4.846,8.198 4.846,8.203 4.846,8.207 C4.856,8.207 4.865,8.207 4.875,8.207 C4.875,8.212 4.875,8.217 4.875,8.221 C4.889,8.221 4.903,8.221 4.917,8.221 C4.922,8.230 4.926,8.239 4.931,8.248 C4.941,8.248 4.950,8.248 4.959,8.248 C4.959,8.253 4.959,8.258 4.959,8.262 C4.969,8.262 4.978,8.262 4.988,8.262 C4.988,8.267 4.988,8.271 4.988,8.276 C5.002,8.276 5.016,8.276 5.030,8.276 C5.030,8.280 5.030,8.285 5.030,8.290 C5.049,8.294 5.068,8.299 5.087,8.303 C5.087,8.308 5.087,8.312 5.087,8.317 C5.101,8.317 5.115,8.317 5.129,8.317 C5.129,8.321 5.129,8.326 5.129,8.330 C5.138,8.330 5.148,8.330 5.157,8.330 C5.157,8.335 5.157,8.340 5.157,8.344 C5.171,8.344 5.186,8.344 5.200,8.344 C5.200,8.348 5.200,8.354 5.200,8.358 C5.209,8.358 5.218,8.358 5.228,8.358 C5.228,8.363 5.228,8.367 5.228,8.372 C5.242,8.372 5.256,8.372 5.270,8.372 C5.270,8.376 5.270,8.381 5.270,8.385 C5.280,8.385 5.289,8.385 5.298,8.385 C5.298,8.390 5.298,8.395 5.298,8.399 C5.327,8.403 5.355,8.408 5.383,8.413 C5.383,8.417 5.383,8.422 5.383,8.427 C5.397,8.427 5.412,8.427 5.426,8.427 C5.426,8.431 5.426,8.436 5.426,8.440 C5.440,8.440 5.454,8.440 5.468,8.440 C5.468,8.444 5.468,8.449 5.468,8.454 C5.482,8.454 5.496,8.454 5.511,8.454 C5.511,8.459 5.511,8.463 5.511,8.467 C5.525,8.467 5.539,8.467 5.553,8.467 C5.553,8.473 5.553,8.476 5.553,8.481 C5.572,8.481 5.591,8.481 5.609,8.481 C5.609,8.486 5.609,8.491 5.609,8.495 C5.623,8.495 5.638,8.495 5.652,8.495 C5.652,8.499 5.652,8.504 5.652,8.509 C5.685,8.514 5.718,8.518 5.751,8.523 C5.751,8.527 5.751,8.531 5.751,8.536 C5.817,8.545 5.883,8.555 5.948,8.563 C5.948,8.568 5.948,8.572 5.948,8.577 C5.972,8.577 5.996,8.577 6.019,8.577 C6.108,8.603 6.237,8.606 6.330,8.632 C6.377,8.632 6.424,8.632 6.471,8.632 C6.471,8.637 6.471,8.641 6.471,8.646 C6.660,8.646 6.848,8.646 7.036,8.646 C7.425,8.646 7.802,8.642 8.096,8.550 C8.120,8.550 8.143,8.550 8.167,8.550 C8.167,8.545 8.167,8.541 8.167,8.536 C8.191,8.536 8.214,8.536 8.237,8.536 C8.237,8.531 8.237,8.527 8.237,8.523 C8.271,8.518 8.304,8.514 8.337,8.509 C8.337,8.504 8.337,8.499 8.337,8.495 C8.351,8.495 8.365,8.495 8.379,8.495 C8.379,8.491 8.379,8.486 8.379,8.481 C8.398,8.481 8.417,8.481 8.435,8.481 C8.435,8.476 8.435,8.473 8.435,8.467 C8.449,8.467 8.464,8.467 8.478,8.467 C8.478,8.463 8.478,8.459 8.478,8.454 C8.492,8.454 8.506,8.454 8.520,8.454 C8.520,8.449 8.520,8.444 8.520,8.440 C8.534,8.440 8.548,8.440 8.563,8.440 C8.563,8.436 8.563,8.431 8.563,8.427 C8.577,8.427 8.591,8.427 8.605,8.427 C8.605,8.422 8.605,8.417 8.605,8.413 C8.633,8.408 8.661,8.403 8.690,8.399 C8.690,8.395 8.690,8.390 8.690,8.385 C8.699,8.385 8.709,8.385 8.718,8.385 C8.718,8.381 8.718,8.376 8.718,8.372 C8.732,8.372 8.746,8.372 8.760,8.372 C8.760,8.367 8.760,8.363 8.760,8.358 C8.770,8.358 8.779,8.358 8.789,8.358 C8.789,8.354 8.789,8.348 8.789,8.344 C8.803,8.344 8.817,8.344 8.831,8.344 C8.831,8.340 8.831,8.335 8.831,8.330 C8.840,8.330 8.850,8.330 8.859,8.330 C8.859,8.326 8.859,8.321 8.859,8.317 C8.873,8.317 8.887,8.317 8.902,8.317 C8.902,8.312 8.902,8.308 8.902,8.303 C8.920,8.299 8.939,8.294 8.958,8.290 C8.958,8.285 8.958,8.280 8.958,8.276 C8.972,8.276 8.986,8.276 9.001,8.276 C9.001,8.271 9.001,8.267 9.001,8.262 C9.010,8.262 9.019,8.262 9.029,8.262 C9.029,8.258 9.029,8.253 9.029,8.248 C9.038,8.248 9.048,8.248 9.057,8.248 C9.062,8.239 9.066,8.230 9.071,8.221 C9.085,8.221 9.100,8.221 9.114,8.221 C9.114,8.217 9.114,8.212 9.114,8.207 C9.123,8.207 9.132,8.207 9.142,8.207 C9.142,8.203 9.142,8.198 9.142,8.193 C9.151,8.193 9.161,8.193 9.170,8.193 C9.175,8.184 9.180,8.175 9.184,8.167 C9.194,8.167 9.203,8.167 9.212,8.167 C9.212,8.161 9.212,8.157 9.212,8.152 C9.222,8.152 9.231,8.152 9.241,8.152 C9.241,8.148 9.241,8.143 9.241,8.139 C9.250,8.139 9.260,8.139 9.269,8.139 C9.269,8.134 9.269,8.129 9.269,8.125 C9.279,8.125 9.288,8.125 9.297,8.125 C9.297,8.121 9.297,8.116 9.297,8.111 C9.307,8.111 9.316,8.111 9.326,8.111 C9.330,8.102 9.335,8.093 9.340,8.084 C9.349,8.084 9.358,8.084 9.368,8.084 C9.368,8.079 9.368,8.075 9.368,8.071 C9.377,8.071 9.387,8.071 9.396,8.071 C9.401,8.061 9.406,8.052 9.410,8.043 C9.429,8.038 9.448,8.034 9.467,8.029 C9.472,8.020 9.476,8.010 9.481,8.001 C9.500,7.997 9.519,7.993 9.537,7.988 C9.542,7.979 9.547,7.969 9.552,7.960 C9.561,7.960 9.570,7.960 9.580,7.960 C9.585,7.952 9.589,7.943 9.594,7.933 C9.604,7.933 9.613,7.933 9.622,7.933 C9.632,7.919 9.641,7.906 9.651,7.892 C9.660,7.892 9.669,7.892 9.679,7.892 C9.684,7.883 9.688,7.874 9.693,7.864 C9.702,7.864 9.712,7.864 9.721,7.864 C9.726,7.856 9.731,7.846 9.735,7.837 C9.767,7.811 9.793,7.801 9.848,7.796 C9.889,7.829 9.960,7.806 10.018,7.823 C10.018,7.828 10.018,7.832 10.018,7.837 C10.037,7.837 10.056,7.837 10.074,7.837 C10.074,7.842 10.074,7.846 10.074,7.851 C10.093,7.851 10.112,7.851 10.131,7.851 C10.131,7.856 10.131,7.861 10.131,7.864 C10.150,7.864 10.169,7.864 10.187,7.864 C10.187,7.869 10.187,7.874 10.187,7.878 C10.211,7.878 10.235,7.878 10.258,7.878 C10.446,7.938 10.635,7.997 10.823,8.056 C10.823,8.061 10.823,8.065 10.823,8.071 C10.833,8.071 10.842,8.071 10.851,8.071 C10.851,8.075 10.851,8.079 10.851,8.084 C10.866,8.084 10.880,8.084 10.894,8.084 C10.894,8.089 10.894,8.093 10.894,8.097 C10.903,8.097 10.913,8.097 10.922,8.097 C10.922,8.102 10.922,8.107 10.922,8.111 C10.936,8.111 10.950,8.111 10.965,8.111 C10.965,8.116 10.965,8.121 10.965,8.125 C10.983,8.129 11.002,8.134 11.021,8.139 C11.021,8.143 11.021,8.148 11.021,8.152 C11.035,8.152 11.049,8.152 11.063,8.152 C11.063,8.157 11.063,8.161 11.063,8.167 C11.073,8.167 11.082,8.167 11.092,8.167 C11.092,8.171 11.092,8.175 11.092,8.180 C11.101,8.180 11.111,8.180 11.120,8.180 C11.120,8.184 11.120,8.189 11.120,8.193 C11.129,8.193 11.139,8.193 11.148,8.193 C11.148,8.198 11.148,8.203 11.148,8.207 C11.158,8.207 11.167,8.207 11.177,8.207 C11.177,8.212 11.177,8.217 11.177,8.221 C11.186,8.221 11.195,8.221 11.205,8.221 C11.205,8.225 11.205,8.230 11.205,8.235 C11.214,8.235 11.224,8.235 11.233,8.235 C11.233,8.239 11.233,8.244 11.233,8.248 C11.243,8.248 11.252,8.248 11.261,8.248 C11.261,8.253 11.261,8.258 11.261,8.262 C11.271,8.262 11.280,8.262 11.290,8.262 C11.290,8.267 11.290,8.271 11.290,8.276 C11.299,8.276 11.308,8.276 11.318,8.276 C11.318,8.280 11.318,8.285 11.318,8.290 C11.327,8.290 11.337,8.290 11.346,8.290 C11.346,8.294 11.346,8.299 11.346,8.303 C11.355,8.303 11.365,8.303 11.374,8.303 C11.379,8.312 11.384,8.321 11.388,8.330 C11.398,8.330 11.407,8.330 11.417,8.330 C11.417,8.335 11.417,8.340 11.417,8.344 C11.426,8.344 11.436,8.344 11.445,8.344 C11.445,8.348 11.445,8.354 11.445,8.358 C11.454,8.358 11.464,8.358 11.473,8.358 C11.473,8.363 11.473,8.367 11.473,8.372 C11.483,8.372 11.492,8.372 11.502,8.372 C11.506,8.381 11.511,8.390 11.516,8.399 C11.525,8.399 11.534,8.399 11.544,8.399 C11.544,8.403 11.544,8.408 11.544,8.413 C11.553,8.413 11.563,8.413 11.572,8.413 C11.572,8.417 11.572,8.422 11.572,8.427 C11.582,8.427 11.591,8.427 11.600,8.427 C11.610,8.440 11.619,8.454 11.629,8.467 C11.638,8.467 11.647,8.467 11.657,8.467 C11.657,8.473 11.657,8.476 11.657,8.481 C11.666,8.481 11.676,8.481 11.685,8.481 C11.690,8.491 11.695,8.499 11.699,8.509 C11.709,8.509 11.718,8.509 11.728,8.509 C11.732,8.518 11.737,8.527 11.742,8.536 C11.761,8.541 11.779,8.545 11.798,8.550 C11.808,8.563 11.817,8.577 11.826,8.591 C11.836,8.591 11.845,8.591 11.855,8.591 C11.855,8.596 11.855,8.600 11.855,8.605 C11.869,8.609 11.883,8.614 11.897,8.618 C11.902,8.627 11.907,8.637 11.911,8.646 C11.921,8.646 11.930,8.646 11.939,8.646 C11.949,8.659 11.958,8.673 11.968,8.687 C11.977,8.687 11.987,8.687 11.996,8.687 C12.010,8.705 12.024,8.723 12.038,8.742 C12.048,8.742 12.057,8.742 12.067,8.742 C12.081,8.760 12.095,8.779 12.109,8.797 C12.118,8.797 12.128,8.797 12.137,8.797 C12.151,8.815 12.166,8.833 12.180,8.851 C12.189,8.851 12.198,8.851 12.208,8.851 C12.236,8.883 12.264,8.915 12.293,8.947 C12.302,8.947 12.312,8.947 12.321,8.947 C12.321,8.952 12.321,8.956 12.321,8.960 C12.353,8.987 12.374,9.017 12.420,9.029 Z"/>
</svg>