<svg 
 xmlns="http://www.w3.org/2000/svg"
 xmlns:xlink="http://www.w3.org/1999/xlink"
 width="93px" height="108px">
<path fill-rule="evenodd"  fill="rgb(231, 18, 4)"
 d="M88.299,107.999 L4.701,107.999 C3.628,107.999 -0.000,106.558 -0.000,103.139 L-0.000,23.623 C-0.000,23.347 0.093,23.110 0.152,22.847 C0.179,22.732 0.179,22.631 0.219,22.517 C0.425,21.930 0.777,21.436 1.242,21.051 C1.281,21.018 1.288,20.957 1.328,20.924 L6.643,16.874 L6.643,3.373 C6.643,2.833 6.796,2.347 7.014,1.896 C7.028,1.861 7.021,1.815 7.041,1.781 C7.081,1.706 7.160,1.673 7.207,1.598 C7.439,1.227 7.732,0.923 8.077,0.667 C8.197,0.578 8.296,0.497 8.422,0.430 C8.894,0.180 9.399,-0.002 9.964,-0.002 L83.035,-0.002 C83.600,-0.002 84.105,0.180 84.570,0.430 C84.696,0.497 84.796,0.585 84.915,0.667 C85.267,0.916 85.560,1.227 85.792,1.598 C85.832,1.673 85.918,1.706 85.958,1.781 C85.978,1.821 85.965,1.861 85.985,1.896 C86.204,2.347 86.356,2.833 86.356,3.373 L86.356,16.874 L91.671,20.924 C91.710,20.957 91.717,21.018 91.757,21.058 C92.222,21.444 92.575,21.936 92.780,22.523 C92.820,22.631 92.820,22.740 92.847,22.854 C92.906,23.110 93.000,23.347 93.000,23.623 L93.000,103.139 C92.804,105.580 90.910,107.999 88.299,107.999 ZM77.921,11.629 L81.553,4.318 L11.446,4.318 L15.078,11.629 C16.061,13.114 15.723,15.126 14.307,16.198 L10.015,20.158 L82.984,20.158 L78.692,16.198 C77.277,15.126 76.945,13.114 77.921,11.629 ZM88.707,24.478 L4.292,24.478 L4.292,100.798 C4.292,104.517 7.779,103.678 11.446,103.678 L82.984,103.678 C86.651,103.678 88.707,104.517 88.707,100.798 L88.707,24.478 ZM46.499,79.558 C31.845,79.558 21.359,68.889 21.359,53.998 L21.359,43.873 C21.359,42.010 21.416,40.498 23.249,40.498 C25.083,40.498 25.140,42.010 25.140,43.873 L25.140,53.998 C25.140,65.163 35.512,75.688 46.499,75.688 C57.487,75.688 67.859,65.163 67.859,53.998 L67.859,43.873 C67.859,42.010 67.916,40.498 69.750,40.498 C71.583,40.498 71.640,42.010 71.640,43.873 L71.640,53.998 C71.640,68.889 61.154,79.558 46.499,79.558 Z"/>
</svg>