<svg 
 xmlns="http://www.w3.org/2000/svg"
 xmlns:xlink="http://www.w3.org/1999/xlink"
 width="65px" height="75px">
<path fill-rule="evenodd"  fill="rgb(255, 255, 255)"
 d="M50.692,64.470 C43.663,71.248 35.475,74.996 32.503,74.996 C29.530,74.996 21.342,71.248 14.313,64.470 C7.783,58.175 0.000,47.185 0.000,30.583 L0.000,14.460 C0.000,13.749 0.484,13.125 1.180,12.938 C11.966,10.030 21.945,5.864 31.687,0.204 C32.191,-0.088 32.815,-0.088 33.318,0.204 C42.788,5.707 53.337,10.110 63.825,12.938 C64.522,13.125 65.005,13.749 65.005,14.460 L65.005,30.583 C65.005,47.185 57.222,58.175 50.692,64.470 ZM62.798,15.657 C52.730,12.833 41.646,7.612 32.503,2.392 C23.127,7.755 12.522,12.775 2.208,15.658 L2.208,30.582 C2.208,46.088 9.467,56.343 15.557,62.215 C22.470,68.881 30.861,72.840 32.503,72.840 C34.145,72.840 42.536,68.881 49.449,62.215 C55.539,56.344 62.798,46.089 62.798,30.582 L62.798,30.582 L62.798,15.657 ZM36.470,40.916 C35.924,40.916 35.407,41.028 34.885,40.916 C35.474,41.984 35.942,42.760 35.942,44.062 L35.942,48.257 C35.942,48.631 35.262,49.306 34.885,49.306 L21.149,49.306 C20.773,49.306 20.092,48.631 20.092,48.257 L20.092,44.062 C20.092,40.951 22.136,38.372 24.847,37.245 C23.607,36.390 22.734,34.659 22.734,33.051 C22.734,30.442 25.388,27.807 28.017,27.807 C28.748,27.807 29.511,28.039 30.131,28.331 C31.537,26.339 34.039,25.185 36.470,25.185 C40.615,25.185 44.395,28.942 44.395,33.051 C44.395,37.172 40.601,40.916 36.470,40.916 ZM21.983,44.050 L21.983,47.430 C22.520,47.430 33.703,47.430 34.241,47.430 L34.357,44.062 C34.357,41.634 32.712,40.335 30.659,39.343 L29.074,40.916 L30.135,45.239 C30.193,45.469 30.125,45.712 29.956,45.880 L28.594,47.231 C28.328,47.495 27.897,47.495 27.631,47.231 L26.269,45.880 C26.100,45.712 26.032,45.469 26.089,45.239 L26.961,40.916 L25.376,39.343 C23.323,40.335 21.983,41.622 21.983,44.050 ZM28.017,39.867 L29.275,38.033 C28.898,37.960 28.415,38.819 28.017,38.819 C27.620,38.819 27.326,37.960 26.950,38.033 L28.017,39.867 ZM27.504,45.194 L28.112,45.798 L28.721,45.194 L28.112,42.758 L27.504,45.194 ZM28.112,29.810 C26.235,29.810 24.707,31.327 24.707,33.190 C24.707,35.053 26.235,36.569 28.112,36.569 C29.990,36.569 31.517,35.053 31.517,33.190 C31.517,31.327 29.990,29.810 28.112,29.810 ZM36.285,27.061 C34.309,27.061 32.443,28.046 31.288,29.665 C32.264,30.532 32.880,31.791 32.880,33.190 C32.880,34.799 32.066,36.222 30.826,37.077 C30.942,37.108 31.721,37.438 32.437,37.945 C32.635,38.041 33.968,39.273 36.285,39.273 C39.714,39.273 42.505,36.544 42.505,33.190 C42.505,29.868 39.656,27.061 36.285,27.061 ZM39.112,36.197 C39.107,36.197 38.921,36.197 38.921,36.197 L33.829,36.197 C33.774,36.197 33.254,35.960 33.301,35.672 L33.829,32.002 C33.842,31.912 34.266,31.478 34.357,31.478 L34.885,31.478 L34.885,30.953 C34.885,30.515 36.030,29.905 36.470,29.905 C36.911,29.905 38.055,30.515 38.055,30.953 L38.055,31.478 L38.584,31.478 C38.674,31.478 39.098,31.912 39.112,32.002 L39.640,35.672 C39.707,35.924 39.217,36.197 39.112,36.197 ZM36.894,31.223 C36.894,30.989 36.704,30.799 36.467,30.799 C36.231,30.799 36.040,30.989 36.040,31.223 L36.040,31.648 L36.894,31.648 L36.894,31.223 ZM38.153,32.018 L37.527,32.002 L37.527,33.051 C37.527,33.155 37.103,33.575 36.999,33.575 C36.894,33.575 36.470,33.155 36.470,33.051 C36.470,33.155 36.047,33.571 35.942,33.575 C35.489,33.591 35.414,33.155 35.414,33.051 L35.414,32.002 L34.781,32.018 L34.232,35.307 L38.703,35.307 L38.153,32.018 ZM33.301,35.672 C33.309,35.619 33.308,35.990 33.301,35.672 Z"/>
</svg>