<svg 
 xmlns="http://www.w3.org/2000/svg"
 xmlns:xlink="http://www.w3.org/1999/xlink"
 width="88px" height="88px">
<path fill-rule="evenodd"  fill="rgb(231, 18, 4)"
 d="M86.610,84.210 L85.000,84.000 C85.000,84.000 84.512,78.938 85.000,79.000 C84.866,77.679 84.169,76.532 83.000,76.000 L83.000,33.000 C83.000,32.230 81.767,31.000 81.000,31.000 C80.233,31.000 79.000,32.230 79.000,33.000 L79.000,35.000 C78.855,34.949 79.362,35.006 79.200,35.006 L75.031,35.006 L75.031,33.921 C75.031,32.518 74.140,31.278 72.814,30.834 L64.000,28.000 L64.000,24.000 C64.000,22.206 62.787,20.000 61.000,20.000 L59.000,20.000 L59.000,5.000 C59.000,2.180 56.122,-0.001 53.314,-0.001 L27.620,-0.001 C24.811,-0.001 22.231,1.971 22.231,4.790 L22.231,5.255 L19.915,5.255 C18.127,5.255 16.000,6.205 16.000,8.000 L16.000,13.000 L7.774,16.059 C6.365,16.489 4.547,17.573 4.991,19.051 C5.558,19.147 5.000,76.000 5.000,76.000 C3.906,76.523 3.000,77.704 3.000,79.000 L3.000,83.999 L1.389,84.210 C0.621,84.210 -0.000,85.230 -0.000,85.999 C-0.000,86.770 0.621,87.999 1.389,87.999 L12.505,87.999 C13.273,87.999 14.000,86.770 14.000,85.999 C14.000,85.230 13.273,84.210 12.505,84.210 L7.000,83.999 L7.000,79.999 C7.000,79.743 6.744,79.000 7.000,79.000 L62.999,79.000 C63.767,79.000 64.000,77.770 64.000,76.999 C64.000,76.229 63.293,74.913 62.526,74.913 L50.000,75.000 L50.000,48.000 C50.000,47.230 48.767,46.000 48.000,46.000 C47.232,46.000 46.000,47.229 46.000,47.999 L46.000,74.999 L42.000,74.999 L42.000,47.999 C42.000,47.229 41.234,46.094 40.467,46.094 C39.699,46.094 38.000,47.230 38.000,48.000 L38.000,75.000 L17.000,75.000 L17.000,33.000 C17.000,32.230 15.767,31.000 15.000,31.000 C14.232,31.000 13.167,32.108 13.167,32.878 L12.999,74.999 L9.000,75.000 L9.000,19.000 C9.000,18.799 9.080,20.142 9.000,19.000 L17.000,16.000 C16.759,15.993 18.767,15.406 19.000,15.000 L23.000,14.000 C23.094,13.968 23.905,13.968 24.000,14.000 L29.000,16.000 C28.904,15.718 29.152,15.734 29.000,16.000 L38.000,19.000 C38.190,19.064 38.000,19.799 38.000,20.000 L38.000,21.000 L13.000,21.000 C12.232,21.000 11.000,21.124 11.000,23.000 C11.000,23.770 12.232,25.000 13.000,25.000 L38.000,25.000 L38.000,48.000 C38.000,48.770 39.699,50.284 40.467,50.284 C41.234,50.284 42.000,48.770 42.000,47.999 L42.000,35.000 C41.930,34.469 41.811,34.063 42.000,34.000 L57.000,29.000 C57.094,28.968 57.906,28.968 58.000,29.000 L72.000,34.000 C72.464,33.788 72.252,33.721 72.252,33.921 L72.252,35.006 L46.000,35.000 C45.232,35.000 44.000,36.230 44.000,37.000 C44.000,37.770 45.232,39.000 46.000,39.000 L71.000,39.000 L71.000,75.000 L68.000,75.000 C67.233,75.000 66.694,76.537 66.694,77.307 C66.694,78.077 67.233,79.000 68.000,79.000 L81.000,79.000 C81.255,79.000 81.000,78.743 81.000,79.000 L81.000,84.000 L18.063,84.210 C17.295,84.210 17.000,85.230 17.000,85.999 C17.000,86.770 17.295,87.999 18.063,87.999 L86.610,87.999 C87.378,87.999 88.000,86.770 88.000,85.999 C88.000,85.230 87.378,84.210 86.610,84.210 ZM28.262,12.571 L24.646,11.101 C23.985,10.879 23.256,10.879 22.595,11.101 L18.948,12.249 L18.948,8.380 C18.878,8.018 19.014,7.735 19.270,7.735 L27.941,7.735 C28.197,7.735 28.262,8.124 28.262,8.380 L28.262,12.571 L28.262,12.571 ZM50.000,23.000 L50.000,28.000 L42.000,31.000 L41.684,19.146 C41.684,17.744 40.793,16.503 39.467,16.059 L31.000,13.000 L31.000,9.000 C31.000,7.206 29.113,5.255 27.326,5.255 L25.010,5.255 L25.010,4.790 C25.010,3.508 25.723,4.000 27.000,4.000 L53.000,4.000 C54.277,4.000 55.000,3.718 55.000,5.000 L55.000,20.000 L53.000,20.000 C51.212,20.000 50.000,21.206 50.000,23.000 ZM61.000,27.000 L57.993,25.876 C57.663,25.766 57.315,25.710 56.968,25.710 C56.620,25.710 56.273,25.766 55.943,25.876 L53.000,27.000 L53.000,23.000 C53.000,22.743 52.744,23.000 53.000,23.000 L61.000,23.000 C61.255,23.000 61.000,23.744 61.000,24.000 L61.000,27.000 L61.000,27.000 ZM79.000,75.000 L75.000,75.000 L75.000,68.000 L79.000,68.000 C78.932,67.846 78.855,68.051 79.000,68.000 L79.000,75.000 ZM79.000,65.000 C78.855,64.949 79.163,65.000 79.000,65.000 L75.031,64.757 L75.031,60.108 L79.000,60.000 L79.000,65.000 L79.000,65.000 ZM79.000,57.000 L75.000,57.000 L75.000,53.000 L79.000,53.000 L79.000,57.000 ZM79.000,50.000 L75.031,49.881 L75.000,46.000 L79.000,46.000 L79.000,50.000 ZM79.000,42.000 L75.000,42.000 L75.000,38.000 L79.000,38.000 C79.162,38.000 78.855,39.051 79.000,39.000 L79.000,42.000 Z"/>
</svg>