<svg 
 xmlns="http://www.w3.org/2000/svg"
 xmlns:xlink="http://www.w3.org/1999/xlink"
 width="64px" height="75px">
<path fill-rule="evenodd"  fill="rgb(255, 255, 255)"
 d="M49.912,64.470 C42.991,71.248 34.930,74.996 32.003,74.996 C29.076,74.996 21.014,71.248 14.092,64.470 C7.664,58.175 0.000,47.185 0.000,30.583 L0.000,14.460 C0.000,13.749 0.476,13.125 1.162,12.938 C11.782,10.030 21.607,5.864 31.200,0.204 C31.695,-0.088 32.310,-0.088 32.805,0.204 C42.130,5.707 52.517,10.110 62.843,12.938 C63.529,13.125 64.005,13.749 64.005,14.460 L64.005,30.583 C64.005,47.185 56.341,58.175 49.912,64.470 ZM61.848,15.657 C51.935,12.833 41.005,7.612 32.003,2.392 C22.771,7.755 12.314,12.775 2.158,15.658 L2.158,30.582 C2.158,46.088 9.306,56.343 15.302,62.215 C22.108,68.881 30.386,72.840 32.003,72.840 C33.620,72.840 41.897,68.881 48.703,62.215 C54.700,56.344 61.847,46.089 61.847,30.582 L61.848,30.582 L61.848,15.657 ZM35.909,40.916 C35.371,40.916 34.862,41.028 34.349,40.916 C34.928,41.984 35.389,42.760 35.389,44.062 L35.389,48.257 C35.389,48.631 34.719,49.306 34.349,49.306 L20.824,49.306 C20.453,49.306 19.783,48.631 19.783,48.257 L19.783,44.062 C19.783,40.951 21.795,38.372 24.465,37.245 C23.244,36.390 22.384,34.659 22.384,33.051 C22.384,30.442 24.998,27.807 27.586,27.807 C28.305,27.807 29.057,28.039 29.667,28.331 C31.052,26.339 33.515,25.185 35.909,25.185 C39.990,25.185 43.712,28.942 43.712,33.051 C43.712,37.172 39.977,40.916 35.909,40.916 ZM21.645,44.050 L21.645,47.430 C22.174,47.430 33.184,47.430 33.715,47.430 L33.829,44.062 C33.829,41.634 32.208,40.335 30.187,39.343 L28.627,40.916 L29.672,45.239 C29.728,45.469 29.661,45.712 29.495,45.880 L28.154,47.231 C27.892,47.495 27.467,47.495 27.206,47.231 L25.865,45.880 C25.698,45.712 25.631,45.469 25.688,45.239 L26.546,40.916 L24.985,39.343 C22.964,40.335 21.645,41.622 21.645,44.050 ZM27.586,39.867 L28.824,38.033 C28.454,37.960 27.977,38.819 27.586,38.819 C27.195,38.819 26.906,37.960 26.535,38.033 L27.586,39.867 ZM27.080,45.194 L27.680,45.798 L28.279,45.194 L27.680,42.758 L27.080,45.194 ZM27.680,29.810 C25.831,29.810 24.327,31.327 24.327,33.190 C24.327,35.053 25.831,36.569 27.680,36.569 C29.528,36.569 31.032,35.053 31.032,33.190 C31.032,31.327 29.528,29.810 27.680,29.810 ZM35.726,27.061 C33.781,27.061 31.944,28.046 30.807,29.665 C31.768,30.532 32.373,31.791 32.373,33.190 C32.373,34.799 31.573,36.222 30.352,37.077 C30.466,37.108 31.233,37.438 31.938,37.945 C32.133,38.041 33.446,39.273 35.726,39.273 C39.103,39.273 41.851,36.544 41.851,33.190 C41.851,29.868 39.046,27.061 35.726,27.061 ZM35.726,32.514 C36.838,32.514 37.738,33.421 37.738,34.542 C37.738,35.438 37.166,36.181 36.397,36.455 L36.397,37.245 C36.397,37.619 36.097,37.921 35.726,37.921 C35.356,37.921 35.056,37.619 35.056,37.245 L35.056,36.455 C34.776,36.355 34.520,36.193 34.304,35.976 C34.042,35.712 34.042,35.283 34.304,35.020 C34.566,34.756 34.991,34.756 35.252,35.020 C35.379,35.147 35.547,35.218 35.726,35.218 C36.097,35.218 36.397,34.916 36.397,34.542 C36.397,34.168 36.097,33.866 35.726,33.866 C34.614,33.866 33.715,32.958 33.715,31.838 C33.715,30.941 34.287,30.199 35.056,29.925 L35.056,29.134 C35.056,28.761 35.356,28.458 35.726,28.458 C36.097,28.458 36.397,28.761 36.397,29.134 L36.397,29.925 C36.677,30.025 36.933,30.187 37.149,30.404 C37.411,30.668 37.411,31.096 37.149,31.360 C36.887,31.624 36.462,31.624 36.201,31.360 C36.074,31.232 35.906,31.162 35.726,31.162 C35.356,31.162 35.056,31.465 35.056,31.838 C35.056,32.211 35.356,32.514 35.726,32.514 Z"/>
</svg>