<svg 
 xmlns="http://www.w3.org/2000/svg"
 xmlns:xlink="http://www.w3.org/1999/xlink"
 width="139px" height="88px">
<path fill-rule="evenodd"  fill="rgb(231, 18, 4)"
 d="M136.823,64.765 L129.713,64.765 L129.713,69.557 C129.713,72.039 127.696,74.058 125.215,74.058 L113.459,74.058 C113.459,74.107 113.463,74.155 113.463,74.204 C113.463,81.810 107.279,87.999 99.679,87.999 C92.079,87.999 85.895,81.810 85.895,74.204 C85.895,74.155 85.935,72.989 85.935,72.940 L36.628,72.940 C36.628,72.989 36.854,74.155 36.854,74.204 C36.854,81.810 30.670,87.999 23.070,87.999 C15.470,87.999 9.861,81.959 9.861,74.352 C9.861,74.303 9.860,73.930 9.861,73.882 L2.176,74.058 C0.974,74.058 0.000,73.083 0.000,71.881 L0.000,48.646 C-0.000,42.910 4.229,38.143 9.730,37.306 L13.618,22.587 C12.634,22.378 11.607,21.812 11.607,20.765 L11.607,18.442 C11.607,13.397 15.708,9.294 20.748,9.294 L37.143,9.294 L37.143,4.500 C37.143,2.018 39.161,-0.001 41.642,-0.001 L125.216,-0.001 C127.696,-0.001 129.714,2.018 129.714,4.500 L129.714,51.115 L132.180,51.115 C133.382,51.115 134.356,52.090 134.356,53.293 C134.356,54.496 133.382,55.472 132.180,55.472 L129.714,55.472 L129.714,60.408 L136.823,60.408 C138.025,60.408 138.999,61.383 138.999,62.587 C138.999,63.790 138.025,64.765 136.823,64.765 ZM23.010,84.705 C28.210,84.705 33.340,79.557 33.340,74.352 C33.340,69.147 28.210,63.999 23.010,63.999 C17.809,63.999 13.148,69.147 13.148,74.352 C13.148,79.557 17.809,84.705 23.010,84.705 ZM3.756,55.999 L7.043,55.999 C8.403,55.999 10.331,54.537 10.331,53.176 L10.331,49.881 L3.756,49.881 L3.756,55.999 ZM37.098,12.705 L20.661,12.705 C18.021,12.705 15.027,16.651 15.027,19.293 L15.966,19.293 L37.098,19.293 L37.098,12.705 ZM37.098,22.587 L16.905,22.587 L13.148,38.117 L37.098,38.117 L37.098,22.587 ZM37.144,44.044 C37.144,44.030 37.143,44.012 37.143,44.000 L37.143,41.531 L11.470,41.531 C11.468,41.531 11.466,41.531 11.464,41.531 C11.462,41.531 11.460,41.531 11.458,41.531 C8.299,41.533 4.678,43.727 3.756,46.587 L11.462,46.468 C12.664,46.468 13.639,47.443 13.639,48.647 L13.639,53.293 C13.639,57.057 10.580,60.118 6.819,60.118 L3.756,60.235 L3.756,70.587 L9.861,70.587 C11.730,65.185 17.044,60.409 23.070,60.409 C29.096,60.409 34.227,64.300 36.097,69.703 L37.144,69.703 L37.144,44.044 ZM99.679,83.644 C104.879,83.644 109.110,79.409 109.110,74.204 C109.110,68.999 104.879,64.766 99.679,64.766 C94.479,64.766 90.248,68.999 90.248,74.204 C90.248,79.409 94.479,83.644 99.679,83.644 ZM125.382,3.764 L41.324,3.764 C41.244,3.764 40.854,4.625 40.854,4.705 L40.854,43.176 L40.854,43.764 L40.854,69.646 L86.653,69.702 C88.522,64.299 93.654,60.408 99.679,60.408 C105.705,60.408 110.836,64.299 112.705,69.702 L125.216,69.702 C125.296,69.702 125.361,69.637 125.361,69.557 L125.361,64.765 L115.929,64.765 C114.728,64.765 113.753,63.790 113.753,62.587 C113.753,61.383 114.728,60.408 115.929,60.408 L125.361,60.408 L125.361,55.472 L104.322,55.472 C103.120,55.472 102.146,54.496 102.146,53.293 C102.146,52.090 103.120,51.115 104.322,51.115 L125.361,51.115 L125.361,4.500 C125.361,4.421 125.461,3.764 125.382,3.764 ZM87.289,45.540 C86.864,45.965 86.307,46.177 85.750,46.177 C85.193,46.177 84.636,45.965 84.211,45.540 L63.395,24.469 C62.545,23.619 62.468,22.398 63.317,21.548 C64.168,20.698 65.362,20.796 66.212,21.646 L85.935,41.881 L95.819,30.841 C96.669,29.991 98.047,29.991 98.896,30.841 C99.746,31.693 99.746,33.072 98.896,33.922 L87.289,45.540 ZM99.679,69.703 C102.159,69.703 104.177,71.722 104.177,74.204 C104.177,76.686 102.159,78.706 99.679,78.706 C97.199,78.706 95.181,76.686 95.181,74.204 C95.181,71.722 97.199,69.703 99.679,69.703 ZM23.069,69.703 C25.550,69.703 27.567,71.722 27.567,74.204 C27.567,76.686 25.550,78.706 23.069,78.706 C20.589,78.706 18.572,76.686 18.572,74.204 C18.572,71.722 20.589,69.703 23.069,69.703 Z"/>
</svg>