<svg 
 xmlns="http://www.w3.org/2000/svg"
 xmlns:xlink="http://www.w3.org/1999/xlink"
 width="38px" height="38px">
<path fill-rule="evenodd"  opacity="0.2" fill="rgb(0, 0, 0)"
 d="M36.483,26.379 C34.479,31.052 31.075,34.473 26.365,36.482 C24.011,37.486 21.545,37.999 18.968,37.999 C16.392,37.999 13.944,37.492 11.593,36.482 C6.922,34.477 3.502,31.060 1.495,26.379 C0.490,24.034 -0.001,21.556 -0.001,18.978 C-0.001,16.401 0.490,13.944 1.495,11.599 C3.502,6.919 6.922,3.521 11.593,1.517 C13.944,0.507 16.392,-0.001 18.968,-0.001 C21.545,-0.001 24.011,0.513 26.365,1.517 C31.075,3.527 34.479,6.926 36.483,11.599 C37.492,13.952 38.000,16.401 38.000,18.978 C38.000,21.556 37.492,24.026 36.483,26.379 ZM33.449,10.622 C31.954,8.065 29.915,6.033 27.341,4.531 C24.783,3.039 21.981,2.286 18.968,2.286 C15.956,2.286 13.172,3.034 10.616,4.531 C8.061,6.028 6.017,8.060 4.528,10.622 C3.046,13.174 2.306,15.964 2.306,18.978 C2.306,21.244 2.733,23.431 3.615,25.485 C4.499,27.547 5.682,29.341 7.167,30.828 C8.653,32.314 10.429,33.488 12.486,34.382 C14.543,35.276 16.704,35.713 18.968,35.713 C21.981,35.713 24.783,34.960 27.341,33.468 C29.915,31.967 31.958,29.936 33.449,27.377 C34.950,24.802 35.693,21.993 35.693,18.978 C35.693,15.964 34.945,13.179 33.449,10.622 ZM16.766,29.996 C16.537,30.224 16.267,30.349 15.956,30.349 C15.623,30.349 15.332,30.225 15.104,29.996 C14.688,29.581 14.656,28.843 15.104,28.395 L24.391,19.103 L15.104,9.562 C14.694,9.140 14.668,8.439 15.146,7.961 C15.561,7.545 16.294,7.518 16.766,8.003 L26.843,18.334 C27.253,18.755 27.292,19.509 26.843,19.955 L16.766,29.996 Z"/>
</svg>