<svg 
 xmlns="http://www.w3.org/2000/svg"
 xmlns:xlink="http://www.w3.org/1999/xlink"
 width="92px" height="88px">
<path fill-rule="evenodd"  fill="rgb(231, 18, 4)"
 d="M83.015,87.999 L8.984,87.999 C4.030,87.999 -0.001,83.988 -0.001,79.056 L-0.001,39.707 C-0.001,34.775 4.030,30.763 8.984,30.763 L20.029,30.763 L22.587,29.293 L39.059,0.893 C39.296,0.482 39.690,0.183 40.150,0.059 C40.610,-0.062 41.100,0.000 41.513,0.238 L47.738,3.816 L57.328,9.326 L69.083,2.571 C69.496,2.333 69.987,2.268 70.447,2.392 C70.907,2.515 71.301,2.814 71.538,3.225 L88.130,31.831 C88.257,32.049 88.330,32.285 88.357,32.521 C90.565,34.152 92.000,36.765 92.000,39.707 L92.000,79.056 C92.000,83.988 87.969,87.999 83.015,87.999 ZM41.273,4.231 L39.630,7.063 C39.952,7.125 40.279,7.155 40.608,7.155 C41.909,7.155 43.150,6.684 44.116,5.864 L41.273,4.231 ZM47.339,7.717 C45.650,9.609 43.201,10.733 40.608,10.733 C39.641,10.733 38.682,10.575 37.769,10.271 L28.811,25.716 L53.734,11.392 L47.339,7.717 ZM69.324,6.563 L66.482,8.196 C67.446,9.015 68.688,9.488 69.989,9.488 C70.317,9.488 70.644,9.457 70.966,9.396 L69.324,6.563 ZM72.828,12.603 C71.915,12.907 70.956,13.065 69.989,13.065 C67.396,13.065 64.947,11.941 63.258,10.049 L27.216,30.763 L38.533,30.763 C39.185,28.365 40.641,26.422 42.703,25.236 C44.024,24.478 45.546,24.077 47.107,24.077 C50.931,24.077 54.631,26.360 56.762,30.032 C56.902,30.273 57.030,30.517 57.152,30.763 L77.814,30.763 C78.220,28.965 79.178,27.295 80.615,26.029 L72.828,12.603 ZM42.335,30.763 L52.929,30.763 C51.423,28.845 49.244,27.655 47.107,27.655 C46.164,27.655 45.287,27.884 44.500,28.334 C43.548,28.881 42.808,29.720 42.335,30.763 ZM82.475,29.238 C82.084,29.696 81.777,30.213 81.560,30.763 L83.015,30.763 C83.133,30.763 83.249,30.768 83.366,30.772 L82.475,29.238 ZM88.000,51.000 L76.000,51.000 C73.028,51.000 70.437,52.845 70.437,55.804 L70.437,62.959 C70.437,65.918 73.028,68.000 76.000,68.000 L88.000,68.000 L88.000,51.000 ZM88.000,72.000 L85.000,72.000 L85.000,79.000 C85.000,79.988 84.008,80.845 83.015,80.845 C82.023,80.845 81.000,79.988 81.000,79.000 L81.000,72.000 L75.828,71.902 C70.874,71.902 66.843,67.890 66.843,62.959 L66.843,55.804 C66.843,50.873 70.874,46.861 75.828,46.861 L81.218,46.861 L81.218,39.707 C81.218,38.718 82.023,37.918 83.015,37.918 C84.008,37.918 84.812,38.718 84.812,39.707 L84.812,46.861 L88.000,47.000 L88.000,40.000 C88.000,37.041 85.973,35.000 83.000,35.000 C83.000,35.000 9.909,34.545 10.000,35.000 C7.065,35.188 4.007,37.076 4.000,40.000 L4.000,77.000 C4.000,79.958 6.028,84.000 9.000,84.000 L83.000,84.000 C85.973,84.000 88.000,80.959 88.000,78.000 L88.000,72.000 ZM8.984,80.845 C7.992,80.845 7.187,80.044 7.187,79.056 L7.187,39.707 C7.187,38.718 7.992,37.918 8.984,37.918 C9.976,37.918 10.781,38.718 10.781,39.707 L10.781,79.056 C10.781,80.044 9.976,80.845 8.984,80.845 ZM74.031,59.382 C74.031,56.422 76.449,54.015 79.421,54.015 C82.394,54.015 84.812,56.422 84.812,59.382 C84.812,62.340 82.394,64.747 79.421,64.747 C76.449,64.747 74.031,62.340 74.031,59.382 ZM79.421,61.170 C80.412,61.170 81.218,60.368 81.218,59.382 C81.218,58.395 80.412,57.593 79.421,57.593 C78.431,57.593 77.624,58.395 77.624,59.382 C77.624,60.368 78.431,61.170 79.421,61.170 Z"/>
</svg>