<svg 
 xmlns="http://www.w3.org/2000/svg"
 xmlns:xlink="http://www.w3.org/1999/xlink"
 width="8px" height="17px">
<path fill-rule="evenodd"  fill="rgb(112, 111, 111)"
 d="M7.966,0.028 C7.966,1.001 7.966,1.975 7.966,2.947 C7.427,2.947 6.888,2.947 6.350,2.947 C6.133,2.947 5.829,2.923 5.719,3.025 C5.642,3.044 5.481,3.129 5.443,3.181 C5.443,3.207 5.443,3.233 5.443,3.259 C5.417,3.271 5.391,3.285 5.364,3.297 C5.277,3.462 5.286,3.821 5.286,4.076 C5.286,4.556 5.286,5.036 5.286,5.516 C6.192,5.516 7.099,5.516 8.005,5.516 C7.900,6.515 7.795,7.514 7.690,8.512 C6.889,8.512 6.087,8.512 5.286,8.512 C5.286,11.340 5.286,14.169 5.286,16.997 C4.090,16.997 2.894,16.997 1.699,16.997 C1.699,14.169 1.699,11.340 1.699,8.512 C1.134,8.512 0.569,8.512 0.004,8.512 C0.004,7.526 0.004,6.541 0.004,5.555 C0.324,5.439 1.269,5.514 1.699,5.516 C1.699,4.841 1.699,4.167 1.699,3.492 C1.712,3.492 1.725,3.492 1.738,3.492 C1.738,3.375 1.738,3.259 1.738,3.142 C1.764,2.947 1.791,2.753 1.817,2.558 C2.240,1.246 2.829,0.578 4.142,0.145 C4.208,0.145 4.274,0.145 4.340,0.145 C4.813,0.002 5.487,0.028 6.113,0.028 C6.731,0.028 7.348,0.028 7.966,0.028 Z"/>
</svg>