<svg 
 xmlns="http://www.w3.org/2000/svg"
 xmlns:xlink="http://www.w3.org/1999/xlink"
 width="19px" height="18px">
<path fill-rule="evenodd"  fill="rgb(112, 111, 111)"
 d="M17.227,0.529 C17.227,0.548 17.227,0.568 17.227,0.588 C17.247,0.588 17.267,0.588 17.287,0.588 C17.287,0.607 17.287,0.626 17.287,0.646 C17.306,0.646 17.326,0.646 17.346,0.646 C17.346,0.666 17.346,0.685 17.346,0.705 C17.366,0.705 17.385,0.705 17.405,0.705 C17.405,0.725 17.405,0.744 17.405,0.764 C17.425,0.764 17.445,0.764 17.464,0.764 C17.464,0.783 17.464,0.803 17.464,0.823 C17.484,0.823 17.504,0.823 17.523,0.823 C17.544,0.899 17.570,0.917 17.612,0.970 C17.622,0.970 17.632,0.970 17.642,0.970 C17.652,1.009 17.662,1.048 17.672,1.087 C17.701,1.107 17.731,1.127 17.760,1.146 C17.760,1.176 17.760,1.205 17.760,1.235 C17.780,1.244 17.800,1.254 17.820,1.264 C17.820,1.293 17.820,1.323 17.820,1.352 C17.839,1.362 17.859,1.372 17.879,1.382 C17.879,1.421 17.879,1.460 17.879,1.499 C17.889,1.499 17.899,1.499 17.908,1.499 C17.908,1.519 17.908,1.538 17.908,1.558 C17.918,1.558 17.928,1.558 17.938,1.558 C17.938,1.597 17.938,1.637 17.938,1.675 C17.948,1.675 17.958,1.675 17.968,1.675 C17.968,1.715 17.968,1.754 17.968,1.793 C17.977,1.793 17.987,1.793 17.997,1.793 C17.997,1.833 17.997,1.872 17.997,1.911 C18.007,1.911 18.017,1.911 18.027,1.911 C18.027,4.587 18.027,7.264 18.027,9.941 C18.027,11.990 18.027,14.039 18.027,16.088 C18.017,16.088 18.007,16.088 17.997,16.088 C17.997,16.127 17.997,16.167 17.997,16.206 C17.987,16.206 17.977,16.206 17.968,16.206 C17.968,16.245 17.968,16.284 17.968,16.323 C17.958,16.323 17.948,16.323 17.938,16.323 C17.938,16.363 17.938,16.402 17.938,16.441 C17.928,16.441 17.918,16.441 17.908,16.441 C17.908,16.461 17.908,16.481 17.908,16.500 C17.899,16.500 17.889,16.500 17.879,16.500 C17.879,16.539 17.879,16.578 17.879,16.618 C17.859,16.628 17.839,16.637 17.820,16.647 C17.820,16.677 17.820,16.706 17.820,16.735 C17.800,16.745 17.780,16.755 17.760,16.765 C17.760,16.794 17.760,16.824 17.760,16.853 C17.731,16.873 17.701,16.892 17.672,16.912 C17.662,16.951 17.652,16.990 17.642,17.029 C17.632,17.029 17.622,17.029 17.612,17.029 C17.570,17.082 17.545,17.099 17.523,17.176 C17.504,17.176 17.484,17.176 17.464,17.176 C17.464,17.196 17.464,17.216 17.464,17.235 C17.445,17.235 17.425,17.235 17.405,17.235 C17.405,17.255 17.405,17.275 17.405,17.294 C17.385,17.294 17.366,17.294 17.346,17.294 C17.346,17.313 17.346,17.333 17.346,17.353 C17.326,17.353 17.306,17.353 17.287,17.353 C17.287,17.373 17.287,17.392 17.287,17.412 C17.267,17.412 17.247,17.412 17.227,17.412 C17.227,17.431 17.227,17.451 17.227,17.471 C17.148,17.491 17.134,17.518 17.079,17.559 C17.079,17.568 17.079,17.578 17.079,17.588 C17.050,17.588 17.020,17.588 16.990,17.588 C16.981,17.608 16.971,17.627 16.961,17.647 C16.921,17.657 16.882,17.667 16.842,17.677 C16.823,17.706 16.803,17.735 16.783,17.765 C16.754,17.765 16.724,17.765 16.694,17.765 C16.685,17.784 16.675,17.804 16.665,17.824 C16.625,17.824 16.586,17.824 16.546,17.824 C16.546,17.833 16.546,17.843 16.546,17.853 C16.507,17.853 16.467,17.853 16.428,17.853 C16.428,17.863 16.428,17.873 16.428,17.882 C16.388,17.882 16.349,17.882 16.310,17.882 C16.310,17.892 16.310,17.902 16.310,17.912 C16.211,17.921 16.112,17.931 16.013,17.941 C16.013,17.951 16.013,17.961 16.013,17.970 C13.388,17.970 10.762,17.970 8.137,17.970 C6.104,17.970 4.070,17.970 2.037,17.970 C2.037,17.961 2.037,17.951 2.037,17.941 C1.938,17.931 1.840,17.921 1.741,17.912 C1.741,17.902 1.741,17.892 1.741,17.882 C1.702,17.882 1.662,17.882 1.623,17.882 C1.623,17.873 1.623,17.863 1.623,17.853 C1.583,17.853 1.544,17.853 1.504,17.853 C1.504,17.843 1.504,17.833 1.504,17.824 C1.465,17.824 1.425,17.824 1.386,17.824 C1.376,17.804 1.366,17.784 1.356,17.765 C1.326,17.765 1.297,17.765 1.267,17.765 C1.247,17.735 1.228,17.706 1.208,17.677 C1.168,17.667 1.129,17.657 1.089,17.647 C1.080,17.627 1.070,17.608 1.060,17.588 C1.030,17.588 1.001,17.588 0.971,17.588 C0.971,17.578 0.971,17.568 0.971,17.559 C0.916,17.518 0.902,17.492 0.823,17.471 C0.823,17.451 0.823,17.431 0.823,17.412 C0.803,17.412 0.784,17.412 0.764,17.412 C0.764,17.392 0.764,17.373 0.764,17.353 C0.744,17.353 0.724,17.353 0.705,17.353 C0.705,17.333 0.705,17.313 0.705,17.294 C0.685,17.294 0.665,17.294 0.645,17.294 C0.645,17.275 0.645,17.255 0.645,17.235 C0.626,17.235 0.606,17.235 0.586,17.235 C0.586,17.216 0.586,17.196 0.586,17.176 C0.566,17.176 0.547,17.176 0.527,17.176 C0.506,17.099 0.480,17.081 0.438,17.029 C0.428,17.029 0.418,17.029 0.409,17.029 C0.399,16.990 0.389,16.951 0.379,16.912 C0.349,16.892 0.320,16.873 0.290,16.853 C0.290,16.824 0.290,16.794 0.290,16.765 C0.270,16.755 0.251,16.745 0.231,16.735 C0.231,16.706 0.231,16.677 0.231,16.647 C0.211,16.637 0.191,16.628 0.172,16.618 C0.172,16.578 0.172,16.539 0.172,16.500 C0.162,16.500 0.152,16.500 0.142,16.500 C0.142,16.481 0.142,16.461 0.142,16.441 C0.132,16.441 0.122,16.441 0.112,16.441 C0.112,16.402 0.112,16.363 0.112,16.323 C0.103,16.323 0.093,16.323 0.083,16.323 C0.083,16.284 0.083,16.245 0.083,16.206 C0.073,16.206 0.063,16.206 0.053,16.206 C0.053,16.167 0.053,16.127 0.053,16.088 C0.043,16.088 0.033,16.088 0.024,16.088 C0.024,13.411 0.024,10.735 0.024,8.058 C0.024,6.009 0.024,3.960 0.024,1.911 C0.033,1.911 0.043,1.911 0.053,1.911 C0.053,1.872 0.053,1.833 0.053,1.793 C0.063,1.793 0.073,1.793 0.083,1.793 C0.083,1.754 0.083,1.715 0.083,1.675 C0.093,1.675 0.103,1.675 0.112,1.675 C0.112,1.637 0.112,1.597 0.112,1.558 C0.122,1.558 0.132,1.558 0.142,1.558 C0.142,1.538 0.142,1.519 0.142,1.499 C0.152,1.499 0.162,1.499 0.172,1.499 C0.172,1.460 0.172,1.421 0.172,1.382 C0.191,1.372 0.211,1.362 0.231,1.352 C0.231,1.323 0.231,1.293 0.231,1.264 C0.251,1.254 0.270,1.244 0.290,1.235 C0.290,1.205 0.290,1.176 0.290,1.146 C0.320,1.127 0.349,1.107 0.379,1.087 C0.389,1.048 0.399,1.009 0.409,0.970 C0.418,0.970 0.428,0.970 0.438,0.970 C0.480,0.917 0.506,0.899 0.527,0.823 C0.547,0.823 0.566,0.823 0.586,0.823 C0.586,0.803 0.586,0.783 0.586,0.764 C0.606,0.764 0.626,0.764 0.645,0.764 C0.645,0.744 0.645,0.725 0.645,0.705 C0.665,0.705 0.685,0.705 0.705,0.705 C0.705,0.685 0.705,0.666 0.705,0.646 C0.724,0.646 0.744,0.646 0.764,0.646 C0.764,0.626 0.764,0.607 0.764,0.588 C0.784,0.588 0.803,0.588 0.823,0.588 C0.823,0.568 0.823,0.548 0.823,0.529 C0.902,0.508 0.916,0.481 0.971,0.440 C0.971,0.430 0.971,0.421 0.971,0.411 C1.001,0.411 1.030,0.411 1.060,0.411 C1.070,0.391 1.080,0.371 1.089,0.352 C1.129,0.342 1.168,0.333 1.208,0.323 C1.228,0.293 1.247,0.264 1.267,0.234 C1.297,0.234 1.326,0.234 1.356,0.234 C1.366,0.215 1.376,0.196 1.386,0.176 C1.425,0.176 1.465,0.176 1.504,0.176 C1.504,0.166 1.504,0.156 1.504,0.146 C1.544,0.146 1.583,0.146 1.623,0.146 C1.623,0.136 1.623,0.127 1.623,0.117 C1.662,0.117 1.702,0.117 1.741,0.117 C1.741,0.107 1.741,0.097 1.741,0.087 C1.840,0.078 1.938,0.068 2.037,0.058 C2.037,0.049 2.037,0.038 2.037,0.029 C4.662,0.029 7.288,0.029 9.913,0.029 C11.947,0.029 13.980,0.029 16.013,0.029 C16.013,0.038 16.013,0.049 16.013,0.058 C16.112,0.068 16.211,0.078 16.310,0.087 C16.310,0.097 16.310,0.107 16.310,0.117 C16.349,0.117 16.388,0.117 16.428,0.117 C16.428,0.127 16.428,0.136 16.428,0.146 C16.467,0.146 16.507,0.146 16.546,0.146 C16.546,0.156 16.546,0.166 16.546,0.176 C16.586,0.176 16.625,0.176 16.665,0.176 C16.675,0.196 16.685,0.215 16.694,0.234 C16.724,0.234 16.754,0.234 16.783,0.234 C16.803,0.264 16.823,0.293 16.842,0.323 C16.882,0.333 16.921,0.342 16.961,0.352 C16.971,0.371 16.981,0.391 16.990,0.411 C17.020,0.411 17.050,0.411 17.079,0.411 C17.079,0.421 17.079,0.430 17.079,0.440 C17.134,0.481 17.149,0.507 17.227,0.529 ZM12.667,2.176 C12.667,2.195 12.667,2.215 12.667,2.235 C12.648,2.235 12.628,2.235 12.608,2.235 C12.608,2.254 12.608,2.274 12.608,2.293 C12.588,2.293 12.569,2.293 12.549,2.293 C12.549,2.313 12.549,2.333 12.549,2.353 C12.529,2.353 12.509,2.353 12.490,2.353 C12.466,2.444 12.399,2.488 12.371,2.558 C12.371,2.597 12.371,2.636 12.371,2.676 C12.361,2.676 12.351,2.676 12.341,2.676 C12.341,3.185 12.341,3.695 12.341,4.206 C12.341,4.440 12.341,4.676 12.341,4.911 C12.351,4.911 12.361,4.911 12.371,4.911 C12.371,4.950 12.371,4.990 12.371,5.029 C12.400,5.100 12.466,5.142 12.490,5.234 C12.509,5.234 12.529,5.234 12.549,5.234 C12.549,5.254 12.549,5.274 12.549,5.293 C12.569,5.293 12.588,5.293 12.608,5.293 C12.608,5.313 12.608,5.333 12.608,5.352 C12.628,5.352 12.648,5.352 12.667,5.352 C12.667,5.372 12.667,5.391 12.667,5.411 C12.779,5.440 12.834,5.526 12.934,5.558 C13.516,5.558 14.099,5.558 14.681,5.558 C14.928,5.558 15.174,5.558 15.421,5.558 C15.521,5.526 15.576,5.440 15.688,5.411 C15.688,5.391 15.688,5.372 15.688,5.352 C15.707,5.352 15.727,5.352 15.747,5.352 C15.747,5.333 15.747,5.313 15.747,5.293 C15.767,5.293 15.786,5.293 15.806,5.293 C15.806,5.274 15.806,5.254 15.806,5.234 C15.826,5.234 15.846,5.234 15.865,5.234 C15.889,5.143 15.956,5.099 15.984,5.029 C15.984,4.990 15.984,4.950 15.984,4.911 C15.994,4.911 16.003,4.911 16.013,4.911 C16.013,4.401 16.013,3.892 16.013,3.381 C16.013,3.147 16.013,2.911 16.013,2.676 C16.003,2.676 15.994,2.676 15.984,2.676 C15.984,2.646 15.984,2.617 15.984,2.587 C15.964,2.578 15.944,2.568 15.924,2.558 C15.924,2.529 15.924,2.499 15.924,2.470 C15.905,2.460 15.885,2.450 15.865,2.440 C15.865,2.421 15.865,2.401 15.865,2.382 C15.855,2.382 15.846,2.382 15.836,2.382 C15.826,2.353 15.816,2.323 15.806,2.293 C15.786,2.293 15.767,2.293 15.747,2.293 C15.747,2.274 15.747,2.254 15.747,2.235 C15.727,2.235 15.707,2.235 15.688,2.235 C15.688,2.215 15.688,2.195 15.688,2.176 C15.595,2.152 15.552,2.086 15.480,2.058 C15.441,2.058 15.401,2.058 15.362,2.058 C15.362,2.048 15.362,2.039 15.362,2.029 C14.819,2.029 14.276,2.029 13.733,2.029 C13.487,2.029 13.240,2.029 12.993,2.029 C12.993,2.039 12.993,2.048 12.993,2.058 C12.954,2.058 12.914,2.058 12.875,2.058 C12.803,2.086 12.760,2.152 12.667,2.176 ZM6.745,6.235 C6.745,6.254 6.745,6.274 6.745,6.294 C6.725,6.294 6.706,6.294 6.686,6.294 C6.686,6.313 6.686,6.333 6.686,6.352 C6.666,6.352 6.646,6.352 6.627,6.352 C6.627,6.372 6.627,6.392 6.627,6.411 C6.607,6.411 6.587,6.411 6.567,6.411 C6.567,6.431 6.567,6.450 6.567,6.470 C6.548,6.470 6.528,6.470 6.508,6.470 C6.508,6.490 6.508,6.509 6.508,6.529 C6.489,6.529 6.469,6.529 6.449,6.529 C6.449,6.548 6.449,6.568 6.449,6.588 C6.429,6.588 6.410,6.588 6.390,6.588 C6.390,6.607 6.390,6.627 6.390,6.646 C6.370,6.646 6.350,6.646 6.331,6.646 C6.331,6.666 6.331,6.686 6.331,6.705 C6.311,6.705 6.291,6.705 6.271,6.705 C6.271,6.725 6.271,6.744 6.271,6.764 C6.252,6.764 6.232,6.764 6.212,6.764 C6.212,6.784 6.212,6.803 6.212,6.823 C6.193,6.823 6.173,6.823 6.153,6.823 C6.153,6.843 6.153,6.862 6.153,6.881 C6.133,6.881 6.114,6.881 6.094,6.881 C6.084,6.911 6.074,6.940 6.064,6.970 C6.054,6.970 6.044,6.970 6.035,6.970 C6.035,6.990 6.035,7.009 6.035,7.029 C6.015,7.039 5.995,7.048 5.975,7.058 C5.975,7.088 5.975,7.117 5.975,7.147 C5.946,7.166 5.916,7.186 5.886,7.205 C5.877,7.244 5.867,7.284 5.857,7.323 C5.837,7.333 5.817,7.343 5.798,7.353 C5.798,7.382 5.798,7.411 5.798,7.441 C5.778,7.450 5.758,7.460 5.738,7.470 C5.738,7.500 5.738,7.529 5.738,7.558 C5.719,7.568 5.699,7.578 5.679,7.588 C5.659,7.676 5.640,7.764 5.620,7.852 C5.610,7.852 5.600,7.852 5.590,7.852 C5.590,7.872 5.590,7.892 5.590,7.911 C5.580,7.911 5.571,7.911 5.561,7.911 C5.561,7.951 5.561,7.989 5.561,8.029 C5.551,8.029 5.541,8.029 5.531,8.029 C5.531,8.049 5.531,8.068 5.531,8.088 C5.521,8.088 5.511,8.088 5.501,8.088 C5.492,8.206 5.482,8.323 5.472,8.441 C5.462,8.441 5.452,8.441 5.442,8.441 C5.442,8.480 5.442,8.519 5.442,8.558 C5.432,8.558 5.423,8.558 5.413,8.558 C5.413,8.813 5.413,9.068 5.413,9.323 C5.423,9.323 5.432,9.323 5.442,9.323 C5.442,9.362 5.442,9.401 5.442,9.441 C5.452,9.441 5.462,9.441 5.472,9.441 C5.472,9.539 5.472,9.637 5.472,9.735 C5.482,9.735 5.492,9.735 5.501,9.735 C5.501,9.774 5.501,9.813 5.501,9.853 C5.511,9.853 5.521,9.853 5.531,9.853 C5.531,9.872 5.531,9.892 5.531,9.912 C5.541,9.912 5.551,9.912 5.561,9.912 C5.561,9.950 5.561,9.990 5.561,10.029 C5.571,10.029 5.580,10.029 5.590,10.029 C5.590,10.049 5.590,10.068 5.590,10.088 C5.600,10.088 5.610,10.088 5.620,10.088 C5.640,10.176 5.659,10.264 5.679,10.353 C5.699,10.362 5.719,10.372 5.738,10.382 C5.738,10.411 5.738,10.441 5.738,10.470 C5.758,10.480 5.778,10.490 5.798,10.500 C5.798,10.529 5.798,10.558 5.798,10.588 C5.817,10.598 5.837,10.607 5.857,10.617 C5.867,10.657 5.877,10.696 5.886,10.735 C5.916,10.754 5.946,10.774 5.975,10.794 C5.985,10.833 5.995,10.872 6.005,10.912 C6.025,10.921 6.044,10.931 6.064,10.941 C6.074,10.970 6.084,11.000 6.094,11.029 C6.104,11.029 6.114,11.029 6.123,11.029 C6.133,11.058 6.143,11.088 6.153,11.117 C6.173,11.117 6.193,11.117 6.212,11.117 C6.212,11.137 6.212,11.157 6.212,11.176 C6.232,11.176 6.252,11.176 6.271,11.176 C6.271,11.196 6.271,11.215 6.271,11.235 C6.291,11.235 6.311,11.235 6.331,11.235 C6.331,11.254 6.331,11.274 6.331,11.294 C6.350,11.294 6.370,11.294 6.390,11.294 C6.390,11.313 6.390,11.333 6.390,11.353 C6.410,11.353 6.429,11.353 6.449,11.353 C6.449,11.372 6.449,11.392 6.449,11.411 C6.469,11.411 6.489,11.411 6.508,11.411 C6.508,11.431 6.508,11.451 6.508,11.470 C6.528,11.470 6.548,11.470 6.567,11.470 C6.567,11.490 6.567,11.510 6.567,11.529 C6.587,11.529 6.607,11.529 6.627,11.529 C6.627,11.549 6.627,11.568 6.627,11.588 C6.646,11.588 6.666,11.588 6.686,11.588 C6.686,11.607 6.686,11.627 6.686,11.647 C6.763,11.667 6.842,11.718 6.893,11.765 C6.903,11.784 6.913,11.803 6.923,11.823 C6.943,11.823 6.962,11.823 6.982,11.823 C6.992,11.843 7.002,11.862 7.012,11.882 C7.031,11.882 7.051,11.882 7.071,11.882 C7.081,11.902 7.091,11.921 7.100,11.941 C7.130,11.941 7.160,11.941 7.189,11.941 C7.199,11.960 7.209,11.980 7.219,11.999 C7.249,11.999 7.278,11.999 7.308,11.999 C7.318,12.019 7.328,12.039 7.337,12.058 C7.367,12.058 7.397,12.058 7.426,12.058 C7.436,12.078 7.446,12.098 7.456,12.117 C7.485,12.117 7.515,12.117 7.545,12.117 C7.555,12.137 7.564,12.157 7.574,12.176 C7.663,12.196 7.752,12.216 7.841,12.235 C7.851,12.254 7.861,12.274 7.871,12.294 C7.900,12.294 7.930,12.294 7.959,12.294 C7.959,12.304 7.959,12.313 7.959,12.323 C7.999,12.323 8.038,12.323 8.078,12.323 C8.078,12.333 8.078,12.343 8.078,12.353 C8.117,12.353 8.157,12.353 8.196,12.353 C8.196,12.363 8.196,12.372 8.196,12.382 C8.275,12.382 8.354,12.382 8.433,12.382 C8.433,12.392 8.433,12.401 8.433,12.412 C8.472,12.412 8.512,12.412 8.551,12.412 C8.551,12.421 8.551,12.431 8.551,12.441 C8.867,12.441 9.183,12.441 9.499,12.441 C9.499,12.431 9.499,12.421 9.499,12.412 C9.538,12.412 9.578,12.412 9.617,12.412 C9.617,12.401 9.617,12.392 9.617,12.382 C9.716,12.382 9.815,12.382 9.913,12.382 C9.913,12.372 9.913,12.363 9.913,12.353 C9.953,12.353 9.992,12.353 10.032,12.353 C10.032,12.343 10.032,12.333 10.032,12.323 C10.052,12.323 10.071,12.323 10.091,12.323 C10.091,12.313 10.091,12.304 10.091,12.294 C10.131,12.294 10.170,12.294 10.210,12.294 C10.210,12.284 10.210,12.274 10.210,12.264 C10.229,12.264 10.249,12.264 10.269,12.264 C10.269,12.254 10.269,12.245 10.269,12.235 C10.358,12.216 10.447,12.196 10.535,12.176 C10.545,12.157 10.555,12.137 10.565,12.117 C10.595,12.117 10.624,12.117 10.654,12.117 C10.664,12.098 10.674,12.078 10.683,12.058 C10.713,12.058 10.743,12.058 10.772,12.058 C10.782,12.039 10.792,12.019 10.802,11.999 C10.841,11.990 10.881,11.980 10.920,11.970 C10.940,11.941 10.960,11.911 10.980,11.882 C11.009,11.882 11.039,11.882 11.068,11.882 C11.078,11.862 11.088,11.843 11.098,11.823 C11.137,11.814 11.177,11.803 11.216,11.794 C11.226,11.774 11.236,11.755 11.246,11.735 C11.276,11.725 11.305,11.715 11.335,11.706 C11.335,11.696 11.335,11.686 11.335,11.676 C11.364,11.666 11.394,11.657 11.424,11.647 C11.424,11.627 11.424,11.607 11.424,11.588 C11.443,11.588 11.463,11.588 11.483,11.588 C11.483,11.568 11.483,11.549 11.483,11.529 C11.503,11.529 11.522,11.529 11.542,11.529 C11.542,11.510 11.542,11.490 11.542,11.470 C11.562,11.470 11.582,11.470 11.601,11.470 C11.601,11.451 11.601,11.431 11.601,11.411 C11.621,11.411 11.641,11.411 11.661,11.411 C11.661,11.392 11.661,11.372 11.661,11.353 C11.680,11.353 11.700,11.353 11.720,11.353 C11.720,11.333 11.720,11.313 11.720,11.294 C11.740,11.294 11.759,11.294 11.779,11.294 C11.779,11.274 11.779,11.254 11.779,11.235 C11.799,11.235 11.819,11.235 11.838,11.235 C11.858,11.159 11.910,11.080 11.957,11.029 C11.976,11.019 11.996,11.009 12.016,11.000 C12.016,10.980 12.016,10.960 12.016,10.941 C12.036,10.931 12.055,10.921 12.075,10.912 C12.075,10.892 12.075,10.872 12.075,10.853 C12.105,10.833 12.134,10.813 12.164,10.794 C12.174,10.754 12.184,10.715 12.194,10.676 C12.213,10.666 12.233,10.657 12.253,10.647 C12.253,10.617 12.253,10.588 12.253,10.558 C12.272,10.548 12.292,10.539 12.312,10.529 C12.312,10.500 12.312,10.470 12.312,10.441 C12.332,10.431 12.351,10.421 12.371,10.411 C12.371,10.382 12.371,10.353 12.371,10.323 C12.391,10.313 12.411,10.304 12.431,10.293 C12.431,10.264 12.431,10.235 12.431,10.206 C12.440,10.206 12.450,10.206 12.460,10.206 C12.460,10.186 12.460,10.166 12.460,10.146 C12.470,10.146 12.480,10.146 12.490,10.146 C12.490,10.108 12.490,10.068 12.490,10.029 C12.500,10.029 12.509,10.029 12.519,10.029 C12.519,10.009 12.519,9.990 12.519,9.970 C12.529,9.970 12.539,9.970 12.549,9.970 C12.549,9.931 12.549,9.892 12.549,9.853 C12.559,9.853 12.569,9.853 12.579,9.853 C12.579,9.813 12.579,9.774 12.579,9.735 C12.588,9.735 12.598,9.735 12.608,9.735 C12.608,9.695 12.608,9.657 12.608,9.617 C12.618,9.617 12.628,9.617 12.638,9.617 C12.638,9.411 12.638,9.206 12.638,9.000 C12.638,8.774 12.638,8.549 12.638,8.323 C12.628,8.323 12.618,8.323 12.608,8.323 C12.608,8.284 12.608,8.244 12.608,8.206 C12.598,8.206 12.588,8.206 12.579,8.206 C12.579,8.166 12.579,8.127 12.579,8.088 C12.569,8.088 12.559,8.088 12.549,8.088 C12.549,8.049 12.549,8.009 12.549,7.970 C12.539,7.970 12.529,7.970 12.519,7.970 C12.519,7.951 12.519,7.931 12.519,7.911 C12.509,7.911 12.500,7.911 12.490,7.911 C12.470,7.823 12.450,7.735 12.431,7.646 C12.411,7.637 12.391,7.627 12.371,7.617 C12.371,7.588 12.371,7.558 12.371,7.529 C12.351,7.519 12.332,7.509 12.312,7.500 C12.312,7.470 12.312,7.441 12.312,7.411 C12.292,7.401 12.272,7.391 12.253,7.382 C12.253,7.353 12.253,7.323 12.253,7.294 C12.233,7.284 12.213,7.274 12.194,7.264 C12.184,7.225 12.174,7.186 12.164,7.147 C12.134,7.127 12.105,7.107 12.075,7.088 C12.065,7.048 12.055,7.009 12.046,6.970 C12.026,6.960 12.006,6.950 11.986,6.940 C11.976,6.911 11.967,6.881 11.957,6.852 C11.947,6.852 11.937,6.852 11.927,6.852 C11.917,6.823 11.907,6.793 11.897,6.764 C11.878,6.764 11.858,6.764 11.838,6.764 C11.838,6.744 11.838,6.725 11.838,6.705 C11.819,6.705 11.799,6.705 11.779,6.705 C11.779,6.686 11.779,6.666 11.779,6.646 C11.759,6.646 11.740,6.646 11.720,6.646 C11.720,6.627 11.720,6.607 11.720,6.588 C11.700,6.588 11.680,6.588 11.661,6.588 C11.661,6.568 11.661,6.548 11.661,6.529 C11.641,6.529 11.621,6.529 11.601,6.529 C11.601,6.509 11.601,6.490 11.601,6.470 C11.582,6.470 11.562,6.470 11.542,6.470 C11.542,6.450 11.542,6.431 11.542,6.411 C11.522,6.411 11.503,6.411 11.483,6.411 C11.483,6.392 11.483,6.372 11.483,6.352 C11.463,6.352 11.443,6.352 11.424,6.352 C11.424,6.333 11.424,6.313 11.424,6.294 C11.347,6.274 11.268,6.222 11.216,6.176 C11.206,6.156 11.197,6.136 11.187,6.117 C11.167,6.117 11.147,6.117 11.128,6.117 C11.118,6.098 11.108,6.078 11.098,6.058 C11.078,6.058 11.059,6.058 11.039,6.058 C11.029,6.039 11.019,6.019 11.009,5.999 C10.980,5.999 10.950,5.999 10.920,5.999 C10.911,5.980 10.901,5.960 10.891,5.941 C10.861,5.941 10.831,5.941 10.802,5.941 C10.792,5.921 10.782,5.902 10.772,5.882 C10.743,5.882 10.713,5.882 10.683,5.882 C10.674,5.862 10.664,5.843 10.654,5.823 C10.624,5.823 10.595,5.823 10.565,5.823 C10.555,5.803 10.545,5.784 10.535,5.764 C10.447,5.745 10.358,5.725 10.269,5.705 C10.259,5.685 10.249,5.666 10.239,5.647 C10.131,5.627 10.022,5.607 9.913,5.588 C9.913,5.578 9.913,5.568 9.913,5.558 C9.894,5.558 9.874,5.558 9.854,5.558 C9.854,5.548 9.854,5.538 9.854,5.529 C9.815,5.529 9.775,5.529 9.736,5.529 C9.736,5.519 9.736,5.509 9.736,5.499 C9.489,5.499 9.242,5.499 8.996,5.499 C8.769,5.499 8.542,5.499 8.314,5.499 C8.314,5.509 8.314,5.519 8.314,5.529 C8.285,5.529 8.255,5.529 8.226,5.529 C8.216,5.548 8.206,5.568 8.196,5.588 C8.078,5.607 7.959,5.627 7.841,5.647 C7.841,5.656 7.841,5.666 7.841,5.676 C7.821,5.676 7.801,5.676 7.782,5.676 C7.782,5.685 7.782,5.695 7.782,5.705 C7.752,5.705 7.722,5.705 7.693,5.705 C7.683,5.725 7.673,5.745 7.663,5.764 C7.574,5.784 7.485,5.803 7.397,5.823 C7.387,5.843 7.377,5.862 7.367,5.882 C7.328,5.892 7.288,5.902 7.249,5.911 C7.229,5.941 7.209,5.970 7.189,5.999 C7.160,5.999 7.130,5.999 7.100,5.999 C7.091,6.019 7.081,6.039 7.071,6.058 C7.031,6.068 6.992,6.078 6.952,6.087 C6.943,6.107 6.933,6.127 6.923,6.146 C6.893,6.156 6.864,6.166 6.834,6.176 C6.834,6.186 6.834,6.196 6.834,6.205 C6.805,6.215 6.775,6.225 6.745,6.235 ZM1.978,7.617 C1.978,10.186 1.978,12.755 1.978,15.323 C1.988,15.323 1.998,15.323 2.007,15.323 C2.007,15.353 2.007,15.382 2.007,15.411 C2.027,15.421 2.047,15.431 2.067,15.441 C2.067,15.470 2.067,15.500 2.067,15.529 C2.086,15.539 2.106,15.549 2.126,15.559 C2.126,15.578 2.126,15.598 2.126,15.617 C2.136,15.617 2.146,15.617 2.156,15.617 C2.166,15.647 2.175,15.676 2.185,15.706 C2.215,15.716 2.244,15.725 2.274,15.735 C2.274,15.745 2.274,15.755 2.274,15.765 C2.294,15.765 2.313,15.765 2.333,15.765 C2.343,15.784 2.353,15.804 2.363,15.824 C2.392,15.824 2.422,15.824 2.452,15.824 C2.452,15.833 2.452,15.843 2.452,15.853 C2.471,15.853 2.491,15.853 2.511,15.853 C2.511,15.863 2.511,15.872 2.511,15.882 C2.550,15.882 2.590,15.882 2.629,15.882 C2.629,15.892 2.629,15.902 2.629,15.912 C3.596,15.912 4.564,15.912 5.531,15.912 C7.258,15.912 8.986,15.912 10.713,15.912 C12.282,15.912 13.852,15.912 15.421,15.912 C15.421,15.902 15.421,15.892 15.421,15.882 C15.451,15.882 15.480,15.882 15.510,15.882 C15.520,15.863 15.530,15.843 15.540,15.824 C15.569,15.824 15.599,15.824 15.628,15.824 C15.638,15.804 15.648,15.784 15.658,15.765 C15.678,15.765 15.697,15.765 15.717,15.765 C15.717,15.755 15.717,15.745 15.717,15.735 C15.747,15.725 15.776,15.716 15.806,15.706 C15.806,15.686 15.806,15.667 15.806,15.647 C15.826,15.647 15.846,15.647 15.865,15.647 C15.889,15.554 15.955,15.512 15.984,15.441 C15.984,15.402 15.984,15.363 15.984,15.323 C15.994,15.323 16.003,15.323 16.013,15.323 C16.013,14.451 16.013,13.578 16.013,12.706 C16.013,11.010 16.013,9.313 16.013,7.617 C15.500,7.617 14.987,7.617 14.474,7.617 C14.461,7.706 14.437,7.741 14.474,7.852 C14.483,7.852 14.493,7.852 14.503,7.852 C14.503,7.892 14.503,7.931 14.503,7.970 C14.513,7.970 14.523,7.970 14.533,7.970 C14.533,8.009 14.533,8.049 14.533,8.088 C14.543,8.088 14.553,8.088 14.562,8.088 C14.562,8.127 14.562,8.166 14.562,8.206 C14.572,8.206 14.582,8.206 14.592,8.206 C14.592,8.303 14.592,8.402 14.592,8.500 C14.602,8.500 14.612,8.500 14.622,8.500 C14.622,8.539 14.622,8.578 14.622,8.617 C14.632,8.617 14.641,8.617 14.651,8.617 C14.651,8.735 14.651,8.853 14.651,8.970 C14.651,9.244 14.651,9.519 14.651,9.794 C14.641,9.794 14.632,9.794 14.622,9.794 C14.622,9.833 14.622,9.872 14.622,9.912 C14.612,9.912 14.602,9.912 14.592,9.912 C14.592,10.009 14.592,10.108 14.592,10.206 C14.582,10.206 14.572,10.206 14.562,10.206 C14.562,10.245 14.562,10.284 14.562,10.323 C14.543,10.333 14.523,10.343 14.503,10.353 C14.503,10.382 14.503,10.411 14.503,10.441 C14.493,10.441 14.483,10.441 14.474,10.441 C14.474,10.500 14.474,10.558 14.474,10.617 C14.464,10.617 14.454,10.617 14.444,10.617 C14.444,10.657 14.444,10.696 14.444,10.735 C14.434,10.735 14.424,10.735 14.414,10.735 C14.414,10.754 14.414,10.774 14.414,10.794 C14.404,10.794 14.395,10.794 14.385,10.794 C14.385,10.833 14.385,10.872 14.385,10.912 C14.365,10.921 14.345,10.931 14.325,10.941 C14.325,10.970 14.325,11.000 14.325,11.029 C14.316,11.029 14.306,11.029 14.296,11.029 C14.296,11.049 14.296,11.068 14.296,11.087 C14.286,11.087 14.276,11.087 14.266,11.087 C14.266,11.127 14.266,11.166 14.266,11.205 C14.247,11.215 14.227,11.225 14.207,11.235 C14.207,11.264 14.207,11.294 14.207,11.323 C14.187,11.333 14.168,11.343 14.148,11.353 C14.148,11.382 14.148,11.411 14.148,11.441 C14.138,11.441 14.128,11.441 14.118,11.441 C14.108,11.480 14.099,11.519 14.089,11.559 C14.079,11.559 14.069,11.559 14.059,11.559 C14.049,11.598 14.039,11.637 14.030,11.676 C14.010,11.686 13.990,11.696 13.970,11.706 C13.970,11.735 13.970,11.765 13.970,11.794 C13.950,11.803 13.931,11.814 13.911,11.823 C13.911,11.852 13.911,11.882 13.911,11.911 C13.881,11.931 13.852,11.951 13.822,11.970 C13.812,12.010 13.802,12.049 13.792,12.088 C13.763,12.107 13.733,12.127 13.704,12.147 C13.694,12.186 13.684,12.225 13.674,12.264 C13.664,12.264 13.654,12.264 13.645,12.264 C13.602,12.317 13.577,12.335 13.556,12.412 C13.536,12.412 13.516,12.412 13.497,12.412 C13.463,12.548 13.355,12.577 13.319,12.706 C13.299,12.706 13.279,12.706 13.260,12.706 C13.260,12.725 13.260,12.745 13.260,12.764 C13.240,12.764 13.220,12.764 13.200,12.764 C13.200,12.784 13.200,12.804 13.200,12.823 C13.181,12.823 13.161,12.823 13.141,12.823 C13.141,12.843 13.141,12.863 13.141,12.882 C13.121,12.882 13.102,12.882 13.082,12.882 C13.082,12.902 13.082,12.921 13.082,12.941 C13.062,12.941 13.042,12.941 13.023,12.941 C13.023,12.960 13.023,12.980 13.023,13.000 C13.003,13.000 12.983,13.000 12.963,13.000 C12.963,13.019 12.963,13.039 12.963,13.058 C12.944,13.058 12.924,13.058 12.904,13.058 C12.904,13.078 12.904,13.098 12.904,13.117 C12.884,13.117 12.865,13.117 12.845,13.117 C12.845,13.137 12.845,13.157 12.845,13.176 C12.715,13.210 12.689,13.316 12.549,13.353 C12.549,13.372 12.549,13.392 12.549,13.411 C12.472,13.432 12.453,13.458 12.401,13.500 C12.401,13.509 12.401,13.519 12.401,13.529 C12.361,13.539 12.322,13.549 12.282,13.558 C12.263,13.588 12.243,13.617 12.223,13.647 C12.194,13.647 12.164,13.647 12.134,13.647 C12.125,13.667 12.115,13.686 12.105,13.705 C12.065,13.715 12.026,13.725 11.986,13.735 C11.967,13.764 11.947,13.794 11.927,13.823 C11.898,13.823 11.868,13.823 11.838,13.823 C11.828,13.843 11.819,13.863 11.809,13.882 C11.779,13.882 11.749,13.882 11.720,13.882 C11.710,13.902 11.700,13.922 11.690,13.941 C11.651,13.951 11.611,13.960 11.572,13.970 C11.572,13.980 11.572,13.990 11.572,14.000 C11.532,14.010 11.493,14.019 11.453,14.029 C11.453,14.039 11.453,14.049 11.453,14.059 C11.424,14.059 11.394,14.059 11.364,14.059 C11.355,14.078 11.345,14.098 11.335,14.118 C11.305,14.118 11.276,14.118 11.246,14.118 C11.236,14.137 11.226,14.157 11.216,14.176 C11.049,14.215 10.881,14.255 10.713,14.294 C10.703,14.314 10.693,14.333 10.683,14.353 C10.644,14.353 10.605,14.353 10.565,14.353 C10.565,14.362 10.565,14.372 10.565,14.382 C10.466,14.392 10.368,14.402 10.269,14.411 C10.269,14.421 10.269,14.431 10.269,14.441 C10.190,14.441 10.111,14.441 10.032,14.441 C10.032,14.451 10.032,14.461 10.032,14.470 C9.992,14.470 9.953,14.470 9.913,14.470 C9.913,14.480 9.913,14.490 9.913,14.500 C9.894,14.500 9.874,14.500 9.854,14.500 C9.854,14.510 9.854,14.520 9.854,14.529 C9.815,14.529 9.775,14.529 9.736,14.529 C9.736,14.539 9.736,14.549 9.736,14.558 C9.608,14.558 9.479,14.558 9.351,14.558 C9.045,14.558 8.739,14.558 8.433,14.558 C8.433,14.549 8.433,14.539 8.433,14.529 C8.394,14.529 8.354,14.529 8.314,14.529 C8.314,14.520 8.314,14.510 8.314,14.500 C8.196,14.500 8.078,14.500 7.959,14.500 C7.959,14.490 7.959,14.480 7.959,14.470 C7.920,14.470 7.880,14.470 7.841,14.470 C7.841,14.461 7.841,14.451 7.841,14.441 C7.821,14.441 7.801,14.441 7.782,14.441 C7.782,14.431 7.782,14.421 7.782,14.411 C7.742,14.411 7.703,14.411 7.663,14.411 C7.663,14.402 7.663,14.392 7.663,14.382 C7.564,14.372 7.466,14.362 7.367,14.353 C7.357,14.333 7.347,14.314 7.337,14.294 C7.308,14.294 7.278,14.294 7.249,14.294 C7.249,14.284 7.249,14.274 7.249,14.264 C7.229,14.264 7.209,14.264 7.189,14.264 C7.189,14.255 7.189,14.245 7.189,14.235 C7.071,14.215 6.952,14.196 6.834,14.176 C6.824,14.157 6.814,14.137 6.805,14.118 C6.775,14.118 6.745,14.118 6.715,14.118 C6.706,14.098 6.696,14.078 6.686,14.059 C6.656,14.059 6.627,14.059 6.597,14.059 C6.587,14.039 6.577,14.019 6.567,14.000 C6.538,14.000 6.508,14.000 6.479,14.000 C6.469,13.980 6.459,13.960 6.449,13.941 C6.420,13.941 6.390,13.941 6.360,13.941 C6.350,13.922 6.341,13.902 6.331,13.882 C6.301,13.882 6.271,13.882 6.242,13.882 C6.222,13.853 6.202,13.823 6.183,13.794 C6.143,13.784 6.104,13.774 6.064,13.764 C6.054,13.745 6.044,13.725 6.035,13.705 C6.005,13.705 5.975,13.705 5.946,13.705 C5.926,13.676 5.906,13.647 5.886,13.617 C5.847,13.608 5.808,13.598 5.768,13.588 C5.738,13.549 5.709,13.509 5.679,13.470 C5.659,13.470 5.640,13.470 5.620,13.470 C5.610,13.451 5.600,13.431 5.590,13.411 C5.571,13.411 5.551,13.411 5.531,13.411 C5.531,13.402 5.531,13.392 5.531,13.382 C5.479,13.340 5.460,13.315 5.383,13.294 C5.383,13.274 5.383,13.254 5.383,13.235 C5.363,13.235 5.344,13.235 5.324,13.235 C5.324,13.216 5.324,13.196 5.324,13.176 C5.304,13.176 5.285,13.176 5.265,13.176 C5.265,13.157 5.265,13.137 5.265,13.117 C5.245,13.117 5.225,13.117 5.205,13.117 C5.205,13.098 5.205,13.078 5.205,13.058 C5.186,13.058 5.166,13.058 5.146,13.058 C5.146,13.039 5.146,13.019 5.146,13.000 C5.126,13.000 5.107,13.000 5.087,13.000 C5.087,12.980 5.087,12.960 5.087,12.941 C5.067,12.941 5.047,12.941 5.028,12.941 C5.028,12.921 5.028,12.902 5.028,12.882 C5.008,12.882 4.988,12.882 4.969,12.882 C4.969,12.863 4.969,12.843 4.969,12.823 C4.949,12.823 4.929,12.823 4.909,12.823 C4.909,12.804 4.909,12.784 4.909,12.764 C4.890,12.764 4.870,12.764 4.850,12.764 C4.850,12.745 4.850,12.725 4.850,12.706 C4.830,12.706 4.811,12.706 4.791,12.706 C4.791,12.686 4.791,12.667 4.791,12.647 C4.771,12.647 4.751,12.647 4.732,12.647 C4.732,12.627 4.732,12.608 4.732,12.588 C4.712,12.588 4.692,12.588 4.672,12.588 C4.639,12.459 4.532,12.433 4.495,12.294 C4.475,12.294 4.455,12.294 4.436,12.294 C4.415,12.216 4.388,12.201 4.347,12.147 C4.337,12.147 4.327,12.147 4.317,12.147 C4.317,12.117 4.317,12.088 4.317,12.058 C4.297,12.049 4.278,12.039 4.258,12.029 C4.248,11.990 4.238,11.951 4.228,11.911 C4.199,11.892 4.169,11.872 4.139,11.852 C4.130,11.814 4.120,11.774 4.110,11.735 C4.080,11.715 4.051,11.696 4.021,11.676 C4.021,11.647 4.021,11.618 4.021,11.588 C4.001,11.578 3.981,11.568 3.962,11.559 C3.962,11.529 3.962,11.500 3.962,11.470 C3.942,11.460 3.922,11.451 3.903,11.441 C3.903,11.411 3.903,11.382 3.903,11.353 C3.883,11.343 3.863,11.333 3.843,11.323 C3.843,11.284 3.843,11.245 3.843,11.205 C3.834,11.205 3.824,11.205 3.814,11.205 C3.814,11.186 3.814,11.166 3.814,11.147 C3.804,11.147 3.794,11.147 3.784,11.147 C3.764,11.058 3.745,10.970 3.725,10.882 C3.705,10.872 3.685,10.862 3.666,10.853 C3.636,10.676 3.606,10.500 3.577,10.323 C3.567,10.323 3.557,10.323 3.547,10.323 C3.547,10.284 3.547,10.245 3.547,10.206 C3.537,10.206 3.527,10.206 3.518,10.206 C3.508,10.108 3.498,10.009 3.488,9.912 C3.478,9.912 3.468,9.912 3.458,9.912 C3.458,9.588 3.458,9.264 3.458,8.941 C3.458,8.754 3.458,8.568 3.458,8.382 C3.468,8.382 3.478,8.382 3.488,8.382 C3.537,8.127 3.587,7.872 3.636,7.617 C3.083,7.617 2.530,7.617 1.978,7.617 Z"/>
</svg>