<svg 
 xmlns="http://www.w3.org/2000/svg"
 xmlns:xlink="http://www.w3.org/1999/xlink"
 width="22px" height="18px">
<path fill-rule="evenodd"  fill="rgb(112, 111, 111)"
 d="M18.070,0.906 C18.070,0.930 18.070,0.954 18.070,0.979 C18.094,0.979 18.119,0.979 18.143,0.979 C18.143,1.003 18.143,1.028 18.143,1.052 C18.168,1.052 18.192,1.052 18.217,1.052 C18.217,1.076 18.217,1.100 18.217,1.125 C18.241,1.125 18.266,1.125 18.290,1.125 C18.290,1.149 18.290,1.173 18.290,1.197 C18.314,1.197 18.339,1.197 18.363,1.197 C18.363,1.221 18.363,1.246 18.363,1.270 C18.400,1.282 18.436,1.295 18.473,1.307 C18.473,1.319 18.473,1.331 18.473,1.344 C18.497,1.344 18.522,1.344 18.546,1.344 C18.546,1.355 18.546,1.368 18.546,1.380 C18.668,1.368 18.790,1.355 18.913,1.344 C18.913,1.331 18.913,1.319 18.913,1.307 C18.937,1.307 18.961,1.307 18.986,1.307 C18.986,1.295 18.986,1.282 18.986,1.270 C19.157,1.246 19.328,1.221 19.498,1.197 C19.498,1.185 19.498,1.173 19.498,1.161 C19.523,1.161 19.547,1.161 19.572,1.161 C19.572,1.149 19.572,1.137 19.572,1.125 C19.608,1.125 19.645,1.125 19.682,1.125 C19.694,1.100 19.706,1.076 19.718,1.052 C19.767,1.052 19.816,1.052 19.865,1.052 C19.865,1.039 19.865,1.028 19.865,1.015 C19.889,1.015 19.914,1.015 19.938,1.015 C19.938,1.003 19.938,0.991 19.938,0.979 C19.987,0.979 20.036,0.979 20.084,0.979 C20.084,0.967 20.084,0.954 20.084,0.942 C20.109,0.942 20.133,0.942 20.158,0.942 C20.158,0.930 20.158,0.918 20.158,0.906 C20.268,0.882 20.377,0.857 20.487,0.833 C20.500,0.809 20.512,0.785 20.524,0.760 C20.561,0.760 20.597,0.760 20.634,0.760 C20.646,0.736 20.658,0.712 20.670,0.687 C20.707,0.687 20.744,0.687 20.780,0.687 C20.793,0.663 20.805,0.639 20.817,0.614 C20.854,0.614 20.890,0.614 20.927,0.614 C20.939,0.590 20.951,0.566 20.964,0.541 C21.000,0.541 21.037,0.541 21.073,0.541 C21.086,0.517 21.098,0.493 21.110,0.469 C21.147,0.469 21.183,0.469 21.220,0.469 C21.220,0.457 21.220,0.444 21.220,0.432 C21.256,0.420 21.293,0.408 21.330,0.396 C21.330,0.408 21.330,0.420 21.330,0.432 C21.354,0.432 21.378,0.432 21.403,0.432 C21.391,0.505 21.378,0.578 21.366,0.651 C21.354,0.651 21.342,0.651 21.330,0.651 C21.330,0.675 21.330,0.699 21.330,0.724 C21.317,0.724 21.305,0.724 21.293,0.724 C21.293,0.773 21.293,0.821 21.293,0.869 C21.269,0.882 21.244,0.894 21.220,0.906 C21.220,0.942 21.220,0.979 21.220,1.015 C21.183,1.039 21.147,1.064 21.110,1.088 C21.098,1.137 21.086,1.185 21.073,1.234 C21.049,1.246 21.024,1.258 21.000,1.270 C21.000,1.307 21.000,1.344 21.000,1.380 C20.964,1.404 20.927,1.428 20.890,1.453 C20.878,1.501 20.866,1.550 20.854,1.598 C20.841,1.598 20.829,1.598 20.817,1.598 C20.765,1.664 20.734,1.685 20.707,1.780 C20.683,1.780 20.658,1.780 20.634,1.780 C20.634,1.805 20.634,1.829 20.634,1.853 C20.609,1.853 20.585,1.853 20.561,1.853 C20.561,1.878 20.561,1.902 20.561,1.926 C20.536,1.926 20.512,1.926 20.487,1.926 C20.487,1.951 20.487,1.975 20.487,1.999 C20.463,1.999 20.438,1.999 20.414,1.999 C20.414,2.024 20.414,2.048 20.414,2.072 C20.390,2.072 20.365,2.072 20.341,2.072 C20.341,2.096 20.341,2.121 20.341,2.145 C20.316,2.145 20.292,2.145 20.268,2.145 C20.268,2.169 20.268,2.194 20.268,2.218 C20.243,2.218 20.219,2.218 20.194,2.218 C20.194,2.242 20.194,2.267 20.194,2.291 C20.170,2.291 20.145,2.291 20.121,2.291 C20.121,2.315 20.121,2.339 20.121,2.364 C20.097,2.364 20.072,2.364 20.048,2.364 C20.048,2.388 20.048,2.412 20.048,2.437 C20.023,2.437 19.999,2.437 19.975,2.437 C19.975,2.461 19.975,2.485 19.975,2.510 C19.833,2.546 19.860,2.616 19.718,2.655 C19.718,2.692 19.718,2.728 19.718,2.765 C20.019,2.771 20.174,2.725 20.377,2.655 C20.426,2.655 20.475,2.655 20.524,2.655 C20.524,2.643 20.524,2.631 20.524,2.619 C20.548,2.619 20.573,2.619 20.597,2.619 C20.597,2.607 20.597,2.594 20.597,2.583 C20.646,2.583 20.695,2.583 20.744,2.583 C20.744,2.570 20.744,2.558 20.744,2.546 C20.793,2.546 20.841,2.546 20.890,2.546 C20.890,2.533 20.890,2.522 20.890,2.510 C20.939,2.510 20.988,2.510 21.037,2.510 C21.037,2.497 21.037,2.485 21.037,2.473 C21.086,2.473 21.134,2.473 21.183,2.473 C21.183,2.461 21.183,2.449 21.183,2.437 C21.220,2.437 21.256,2.437 21.293,2.437 C21.305,2.412 21.317,2.388 21.330,2.364 C21.378,2.364 21.427,2.364 21.476,2.364 C21.476,2.351 21.476,2.339 21.476,2.327 C21.501,2.327 21.525,2.327 21.549,2.327 C21.549,2.315 21.549,2.303 21.549,2.291 C21.598,2.291 21.647,2.291 21.696,2.291 C21.696,2.278 21.696,2.267 21.696,2.254 C21.720,2.254 21.745,2.254 21.769,2.254 C21.769,2.242 21.769,2.230 21.769,2.218 C21.842,2.206 21.916,2.194 21.989,2.182 C21.968,2.282 21.932,2.357 21.879,2.437 C21.855,2.449 21.830,2.461 21.806,2.473 C21.806,2.497 21.806,2.522 21.806,2.546 C21.769,2.570 21.732,2.594 21.696,2.619 C21.684,2.667 21.671,2.716 21.659,2.765 C21.647,2.765 21.635,2.765 21.623,2.765 C21.570,2.830 21.540,2.852 21.513,2.947 C21.488,2.947 21.464,2.947 21.439,2.947 C21.439,2.971 21.439,2.996 21.439,3.020 C21.415,3.020 21.391,3.020 21.366,3.020 C21.366,3.044 21.366,3.068 21.366,3.092 C21.342,3.092 21.317,3.092 21.293,3.092 C21.293,3.117 21.293,3.142 21.293,3.165 C21.269,3.165 21.244,3.165 21.220,3.165 C21.220,3.190 21.220,3.214 21.220,3.239 C21.195,3.239 21.171,3.239 21.147,3.239 C21.147,3.263 21.147,3.287 21.147,3.311 C21.122,3.311 21.098,3.311 21.073,3.311 C21.073,3.335 21.073,3.360 21.073,3.384 C21.049,3.384 21.024,3.384 21.000,3.384 C21.000,3.408 21.000,3.433 21.000,3.457 C20.976,3.457 20.951,3.457 20.927,3.457 C20.927,3.481 20.927,3.506 20.927,3.530 C20.902,3.530 20.878,3.530 20.854,3.530 C20.854,3.554 20.854,3.579 20.854,3.603 C20.829,3.603 20.805,3.603 20.780,3.603 C20.780,3.627 20.780,3.651 20.780,3.676 C20.756,3.676 20.731,3.676 20.707,3.676 C20.707,3.700 20.707,3.724 20.707,3.749 C20.683,3.749 20.658,3.749 20.634,3.749 C20.634,3.773 20.634,3.797 20.634,3.822 C20.609,3.822 20.585,3.822 20.561,3.822 C20.561,3.846 20.561,3.870 20.561,3.894 C20.400,3.936 20.368,4.067 20.194,4.113 C20.194,4.138 20.194,4.162 20.194,4.186 C20.170,4.186 20.145,4.186 20.121,4.186 C20.121,4.210 20.121,4.235 20.121,4.259 C20.097,4.259 20.072,4.259 20.048,4.259 C20.011,4.308 19.975,4.356 19.938,4.405 C19.901,4.417 19.865,4.429 19.828,4.441 C19.828,4.465 19.828,4.490 19.828,4.514 C19.767,4.587 19.791,4.785 19.791,4.915 C19.791,5.267 19.791,5.620 19.791,5.972 C19.790,6.167 19.757,6.208 19.718,6.336 C19.718,6.506 19.718,6.677 19.718,6.847 C19.706,6.847 19.694,6.847 19.682,6.847 C19.682,6.895 19.682,6.944 19.682,6.993 C19.669,6.993 19.657,6.993 19.645,6.993 C19.645,7.114 19.645,7.236 19.645,7.357 C19.633,7.357 19.621,7.357 19.608,7.357 C19.608,7.406 19.608,7.454 19.608,7.503 C19.596,7.503 19.584,7.503 19.572,7.503 C19.572,7.527 19.572,7.551 19.572,7.575 C19.560,7.575 19.547,7.575 19.535,7.575 C19.535,7.624 19.535,7.673 19.535,7.722 C19.523,7.722 19.511,7.722 19.498,7.722 C19.498,7.794 19.498,7.867 19.498,7.940 C19.486,7.940 19.474,7.940 19.462,7.940 C19.462,7.988 19.462,8.037 19.462,8.086 C19.450,8.086 19.437,8.086 19.425,8.086 C19.425,8.159 19.425,8.232 19.425,8.304 C19.413,8.304 19.401,8.304 19.389,8.304 C19.389,8.353 19.389,8.402 19.389,8.450 C19.364,8.462 19.340,8.475 19.315,8.487 C19.315,8.523 19.315,8.559 19.315,8.596 C19.303,8.596 19.291,8.596 19.279,8.596 C19.279,8.645 19.279,8.693 19.279,8.742 C19.267,8.742 19.254,8.742 19.242,8.742 C19.242,8.791 19.242,8.839 19.242,8.888 C19.230,8.888 19.218,8.888 19.205,8.888 C19.205,8.936 19.205,8.984 19.205,9.033 C19.193,9.033 19.181,9.033 19.169,9.033 C19.169,9.082 19.169,9.131 19.169,9.179 C19.144,9.191 19.120,9.203 19.096,9.216 C19.071,9.325 19.047,9.434 19.022,9.543 C19.010,9.543 18.998,9.543 18.986,9.543 C18.986,9.568 18.986,9.592 18.986,9.616 C18.974,9.616 18.961,9.616 18.949,9.616 C18.949,9.665 18.949,9.714 18.949,9.762 C18.925,9.775 18.900,9.787 18.876,9.798 C18.852,9.908 18.827,10.018 18.803,10.127 C18.778,10.139 18.754,10.151 18.729,10.163 C18.729,10.200 18.729,10.236 18.729,10.273 C18.705,10.285 18.680,10.297 18.656,10.309 C18.632,10.418 18.607,10.528 18.583,10.637 C18.559,10.649 18.534,10.661 18.510,10.673 C18.510,10.710 18.510,10.746 18.510,10.782 C18.485,10.795 18.461,10.807 18.436,10.819 C18.436,10.856 18.436,10.892 18.436,10.928 C18.412,10.941 18.387,10.953 18.363,10.965 C18.363,11.001 18.363,11.038 18.363,11.074 C18.339,11.087 18.314,11.098 18.290,11.111 C18.290,11.147 18.290,11.184 18.290,11.220 C18.266,11.232 18.241,11.244 18.217,11.257 C18.217,11.293 18.217,11.330 18.217,11.366 C18.180,11.390 18.143,11.414 18.107,11.439 C18.094,11.487 18.082,11.536 18.070,11.585 C18.046,11.596 18.021,11.609 17.997,11.621 C17.997,11.657 17.997,11.694 17.997,11.730 C17.973,11.743 17.948,11.755 17.924,11.767 C17.924,11.803 17.924,11.839 17.924,11.876 C17.887,11.900 17.850,11.925 17.814,11.949 C17.802,11.998 17.789,12.046 17.777,12.095 C17.741,12.119 17.704,12.144 17.667,12.168 C17.655,12.216 17.643,12.265 17.631,12.314 C17.594,12.338 17.557,12.362 17.521,12.387 C17.509,12.435 17.496,12.484 17.484,12.532 C17.448,12.557 17.411,12.581 17.374,12.605 C17.362,12.653 17.350,12.703 17.338,12.751 C17.289,12.787 17.240,12.824 17.191,12.860 C17.191,12.885 17.191,12.909 17.191,12.933 C17.167,12.945 17.142,12.957 17.118,12.969 C17.118,12.994 17.118,13.018 17.118,13.042 C17.069,13.079 17.020,13.115 16.971,13.152 C16.971,13.176 16.971,13.201 16.971,13.225 C16.947,13.237 16.923,13.249 16.898,13.261 C16.898,13.285 16.898,13.310 16.898,13.334 C16.886,13.334 16.874,13.334 16.862,13.334 C16.809,13.398 16.779,13.422 16.752,13.516 C16.727,13.516 16.703,13.516 16.678,13.516 C16.637,13.685 16.504,13.721 16.459,13.881 C16.434,13.881 16.410,13.881 16.385,13.881 C16.385,13.905 16.385,13.929 16.385,13.953 C16.361,13.953 16.337,13.953 16.312,13.953 C16.312,13.978 16.312,14.002 16.312,14.026 C16.288,14.026 16.263,14.026 16.239,14.026 C16.239,14.051 16.239,14.075 16.239,14.100 C16.215,14.100 16.190,14.100 16.166,14.100 C16.166,14.124 16.166,14.148 16.166,14.172 C16.141,14.172 16.117,14.172 16.092,14.172 C16.092,14.196 16.092,14.221 16.092,14.245 C16.068,14.245 16.044,14.245 16.019,14.245 C16.019,14.269 16.019,14.294 16.019,14.318 C15.995,14.318 15.970,14.318 15.946,14.318 C15.946,14.342 15.946,14.367 15.946,14.391 C15.922,14.391 15.897,14.391 15.873,14.391 C15.873,14.415 15.873,14.440 15.873,14.464 C15.848,14.464 15.824,14.464 15.799,14.464 C15.799,14.488 15.799,14.512 15.799,14.537 C15.775,14.537 15.751,14.537 15.726,14.537 C15.726,14.561 15.726,14.585 15.726,14.610 C15.702,14.610 15.677,14.610 15.653,14.610 C15.653,14.634 15.653,14.658 15.653,14.683 C15.629,14.683 15.604,14.683 15.580,14.683 C15.580,14.707 15.580,14.731 15.580,14.755 C15.555,14.755 15.531,14.755 15.507,14.755 C15.507,14.779 15.507,14.804 15.507,14.828 C15.482,14.828 15.458,14.828 15.433,14.828 C15.433,14.853 15.433,14.877 15.433,14.901 C15.409,14.901 15.384,14.901 15.360,14.901 C15.360,14.926 15.360,14.950 15.360,14.974 C15.336,14.974 15.311,14.974 15.287,14.974 C15.205,15.115 15.119,15.105 14.994,15.193 C14.982,15.217 14.969,15.242 14.957,15.265 C14.889,15.327 14.802,15.386 14.701,15.411 C14.701,15.436 14.701,15.460 14.701,15.485 C14.676,15.485 14.652,15.485 14.628,15.485 C14.519,15.659 14.324,15.698 14.151,15.812 C14.127,15.849 14.103,15.885 14.078,15.922 C14.029,15.934 13.981,15.946 13.932,15.958 C13.907,15.995 13.883,16.031 13.858,16.067 C13.834,16.067 13.810,16.067 13.785,16.067 C13.785,16.079 13.785,16.092 13.785,16.104 C13.761,16.104 13.736,16.104 13.712,16.104 C13.687,16.140 13.663,16.177 13.639,16.213 C13.590,16.225 13.541,16.238 13.492,16.250 C13.468,16.286 13.443,16.322 13.419,16.359 C13.382,16.359 13.346,16.359 13.309,16.359 C13.297,16.383 13.285,16.408 13.273,16.432 C13.236,16.432 13.199,16.432 13.163,16.432 C13.150,16.456 13.138,16.481 13.126,16.505 C13.089,16.505 13.053,16.505 13.016,16.505 C13.004,16.529 12.992,16.554 12.980,16.578 C12.943,16.578 12.906,16.578 12.870,16.578 C12.857,16.602 12.845,16.626 12.833,16.651 C12.796,16.651 12.760,16.651 12.723,16.651 C12.711,16.675 12.699,16.699 12.686,16.724 C12.650,16.724 12.613,16.724 12.577,16.724 C12.564,16.748 12.552,16.772 12.540,16.797 C12.503,16.797 12.467,16.797 12.430,16.797 C12.418,16.821 12.406,16.845 12.393,16.869 C12.357,16.869 12.320,16.869 12.284,16.869 C12.271,16.893 12.259,16.918 12.247,16.942 C12.210,16.942 12.174,16.942 12.137,16.942 C12.125,16.967 12.113,16.990 12.100,17.015 C11.991,17.039 11.881,17.064 11.771,17.088 C11.759,17.112 11.746,17.136 11.734,17.161 C11.685,17.161 11.637,17.161 11.588,17.161 C11.588,17.173 11.588,17.185 11.588,17.197 C11.563,17.197 11.539,17.197 11.514,17.197 C11.514,17.209 11.514,17.222 11.514,17.234 C11.466,17.234 11.417,17.234 11.368,17.234 C11.368,17.246 11.368,17.258 11.368,17.270 C11.343,17.270 11.319,17.270 11.295,17.270 C11.295,17.283 11.295,17.295 11.295,17.306 C11.246,17.306 11.197,17.306 11.148,17.306 C11.148,17.319 11.148,17.331 11.148,17.343 C11.124,17.343 11.099,17.343 11.075,17.343 C11.075,17.355 11.075,17.367 11.075,17.379 C11.026,17.379 10.977,17.379 10.929,17.379 C10.929,17.392 10.929,17.404 10.929,17.416 C10.904,17.416 10.880,17.416 10.855,17.416 C10.855,17.428 10.855,17.440 10.855,17.452 C10.806,17.452 10.758,17.452 10.709,17.452 C10.709,17.465 10.709,17.477 10.709,17.489 C10.684,17.489 10.660,17.489 10.636,17.489 C10.636,17.501 10.636,17.513 10.636,17.525 C10.587,17.525 10.538,17.525 10.489,17.525 C10.489,17.538 10.489,17.549 10.489,17.561 C10.416,17.561 10.342,17.561 10.269,17.561 C10.269,17.574 10.269,17.586 10.269,17.599 C10.220,17.599 10.172,17.599 10.123,17.599 C10.123,17.610 10.123,17.622 10.123,17.635 C10.098,17.635 10.074,17.635 10.050,17.635 C10.050,17.647 10.050,17.659 10.050,17.671 C10.001,17.671 9.952,17.671 9.903,17.671 C9.903,17.683 9.903,17.695 9.903,17.707 C9.830,17.707 9.757,17.707 9.683,17.707 C9.683,17.720 9.683,17.732 9.683,17.744 C9.635,17.744 9.586,17.744 9.537,17.744 C9.537,17.756 9.537,17.768 9.537,17.781 C9.439,17.781 9.341,17.781 9.244,17.781 C9.244,17.793 9.244,17.805 9.244,17.817 C9.195,17.817 9.146,17.817 9.097,17.817 C9.097,17.829 9.097,17.841 9.097,17.854 C9.049,17.854 9.000,17.854 8.951,17.854 C8.951,17.865 8.951,17.877 8.951,17.890 C8.902,17.890 8.853,17.890 8.804,17.890 C8.804,17.902 8.804,17.914 8.804,17.926 C8.634,17.926 8.463,17.926 8.292,17.926 C8.292,17.938 8.292,17.950 8.292,17.963 C8.243,17.963 8.194,17.963 8.145,17.963 C8.145,17.975 8.145,17.987 8.145,17.999 C7.645,17.999 7.144,17.999 6.644,17.999 C6.290,17.999 5.936,17.999 5.582,17.999 C5.582,17.987 5.582,17.975 5.582,17.963 C5.533,17.963 5.484,17.963 5.435,17.963 C5.435,17.950 5.435,17.938 5.435,17.926 C5.240,17.926 5.044,17.926 4.849,17.926 C4.849,17.914 4.849,17.902 4.849,17.890 C4.800,17.890 4.751,17.890 4.702,17.890 C4.702,17.877 4.702,17.865 4.702,17.854 C4.678,17.854 4.654,17.854 4.629,17.854 C4.629,17.841 4.629,17.829 4.629,17.817 C4.580,17.817 4.532,17.817 4.483,17.817 C4.483,17.805 4.483,17.793 4.483,17.781 C4.385,17.781 4.288,17.781 4.190,17.781 C4.190,17.768 4.190,17.756 4.190,17.744 C4.141,17.744 4.092,17.744 4.043,17.744 C4.043,17.732 4.043,17.720 4.043,17.707 C3.970,17.707 3.897,17.707 3.824,17.707 C3.824,17.695 3.824,17.683 3.824,17.671 C3.775,17.671 3.726,17.671 3.677,17.671 C3.677,17.659 3.677,17.647 3.677,17.635 C3.653,17.635 3.628,17.635 3.604,17.635 C3.604,17.622 3.604,17.610 3.604,17.599 C3.555,17.599 3.506,17.599 3.457,17.599 C3.457,17.586 3.457,17.574 3.457,17.561 C3.408,17.561 3.360,17.561 3.311,17.561 C3.311,17.549 3.311,17.538 3.311,17.525 C3.262,17.525 3.213,17.525 3.164,17.525 C3.164,17.513 3.164,17.501 3.164,17.489 C3.067,17.477 2.969,17.465 2.871,17.452 C2.871,17.440 2.871,17.428 2.871,17.416 C2.847,17.416 2.822,17.416 2.798,17.416 C2.798,17.404 2.798,17.392 2.798,17.379 C2.749,17.379 2.700,17.379 2.652,17.379 C2.652,17.367 2.652,17.355 2.652,17.343 C2.627,17.343 2.603,17.343 2.578,17.343 C2.578,17.331 2.578,17.319 2.578,17.306 C2.529,17.306 2.481,17.306 2.432,17.306 C2.432,17.295 2.432,17.283 2.432,17.270 C2.407,17.270 2.383,17.270 2.359,17.270 C2.359,17.258 2.359,17.246 2.359,17.234 C2.310,17.234 2.261,17.234 2.212,17.234 C2.212,17.222 2.212,17.209 2.212,17.197 C2.188,17.197 2.163,17.197 2.139,17.197 C2.139,17.185 2.139,17.173 2.139,17.161 C2.090,17.161 2.041,17.161 1.992,17.161 C1.980,17.136 1.968,17.112 1.956,17.088 C1.919,17.088 1.883,17.088 1.846,17.088 C1.834,17.064 1.821,17.039 1.809,17.015 C1.699,16.990 1.590,16.967 1.480,16.942 C1.467,16.918 1.455,16.893 1.443,16.869 C1.406,16.869 1.370,16.869 1.333,16.869 C1.321,16.845 1.309,16.821 1.297,16.797 C1.260,16.797 1.223,16.797 1.187,16.797 C1.174,16.772 1.162,16.748 1.150,16.724 C1.113,16.724 1.077,16.724 1.040,16.724 C1.028,16.699 1.016,16.675 1.004,16.651 C0.967,16.651 0.930,16.651 0.894,16.651 C0.881,16.626 0.869,16.602 0.857,16.578 C0.820,16.578 0.784,16.578 0.747,16.578 C0.735,16.554 0.723,16.529 0.710,16.505 C0.674,16.505 0.637,16.505 0.601,16.505 C0.588,16.481 0.576,16.456 0.564,16.432 C0.527,16.432 0.491,16.432 0.454,16.432 C0.430,16.395 0.405,16.359 0.381,16.322 C0.332,16.310 0.283,16.299 0.234,16.286 C0.222,16.262 0.210,16.238 0.198,16.213 C0.089,16.152 0.152,16.269 0.051,16.140 C0.039,16.140 0.027,16.140 0.015,16.140 C0.015,16.104 0.015,16.067 0.015,16.031 C0.599,16.042 1.383,16.097 1.846,15.958 C2.017,15.958 2.188,15.958 2.359,15.958 C2.359,15.946 2.359,15.934 2.359,15.922 C2.481,15.909 2.603,15.897 2.725,15.885 C2.725,15.873 2.725,15.861 2.725,15.849 C2.774,15.849 2.822,15.849 2.871,15.849 C2.871,15.836 2.871,15.824 2.871,15.812 C2.896,15.812 2.920,15.812 2.945,15.812 C2.945,15.800 2.945,15.788 2.945,15.776 C2.993,15.776 3.042,15.776 3.091,15.776 C3.091,15.764 3.091,15.751 3.091,15.740 C3.140,15.740 3.189,15.740 3.238,15.740 C3.238,15.727 3.238,15.715 3.238,15.703 C3.286,15.703 3.335,15.703 3.384,15.703 C3.384,15.691 3.384,15.679 3.384,15.667 C3.482,15.654 3.579,15.642 3.677,15.630 C3.677,15.618 3.677,15.606 3.677,15.593 C3.701,15.593 3.726,15.593 3.750,15.593 C3.750,15.581 3.750,15.569 3.750,15.557 C3.860,15.533 3.970,15.508 4.080,15.485 C4.092,15.460 4.104,15.436 4.117,15.411 C4.226,15.387 4.336,15.363 4.446,15.338 C4.458,15.314 4.471,15.290 4.483,15.265 C4.519,15.265 4.556,15.265 4.593,15.265 C4.605,15.242 4.617,15.217 4.629,15.193 C4.666,15.193 4.702,15.193 4.739,15.193 C4.751,15.169 4.763,15.144 4.776,15.120 C4.812,15.120 4.849,15.120 4.886,15.120 C4.898,15.095 4.910,15.071 4.922,15.047 C4.971,15.047 5.020,15.047 5.069,15.047 C5.069,15.035 5.069,15.022 5.069,15.010 C5.118,14.999 5.166,14.986 5.215,14.974 C5.215,14.962 5.215,14.950 5.215,14.938 C5.240,14.938 5.264,14.938 5.289,14.938 C5.313,14.901 5.337,14.865 5.362,14.828 C5.398,14.828 5.435,14.828 5.472,14.828 C5.484,14.804 5.496,14.779 5.508,14.755 C5.557,14.743 5.606,14.731 5.655,14.719 C5.679,14.683 5.704,14.646 5.728,14.610 C5.765,14.610 5.801,14.610 5.838,14.610 C5.850,14.585 5.862,14.561 5.874,14.537 C5.923,14.524 5.972,14.512 6.021,14.500 C6.045,14.464 6.070,14.427 6.094,14.391 C6.119,14.391 6.143,14.391 6.167,14.391 C6.180,14.367 6.192,14.342 6.204,14.318 C6.229,14.318 6.253,14.318 6.277,14.318 C6.277,14.306 6.277,14.294 6.277,14.282 C6.342,14.229 6.366,14.199 6.460,14.172 C6.460,14.136 6.460,14.100 6.460,14.063 C6.265,14.063 6.070,14.063 5.874,14.063 C5.874,14.051 5.874,14.039 5.874,14.026 C5.826,14.026 5.777,14.026 5.728,14.026 C5.728,14.014 5.728,14.002 5.728,13.990 C5.704,13.990 5.679,13.990 5.655,13.990 C5.655,13.978 5.655,13.966 5.655,13.953 C5.606,13.953 5.557,13.953 5.508,13.953 C5.508,13.942 5.508,13.929 5.508,13.917 C5.459,13.917 5.411,13.917 5.362,13.917 C5.362,13.905 5.362,13.893 5.362,13.881 C5.215,13.856 5.069,13.832 4.922,13.808 C4.910,13.784 4.898,13.759 4.886,13.735 C4.849,13.735 4.812,13.735 4.776,13.735 C4.763,13.710 4.751,13.686 4.739,13.662 C4.702,13.662 4.666,13.662 4.629,13.662 C4.617,13.637 4.605,13.613 4.593,13.589 C4.556,13.589 4.519,13.589 4.483,13.589 C4.471,13.565 4.458,13.540 4.446,13.516 C4.410,13.516 4.373,13.516 4.336,13.516 C4.324,13.492 4.312,13.468 4.300,13.443 C4.263,13.443 4.226,13.443 4.190,13.443 C4.165,13.407 4.141,13.371 4.117,13.334 C4.068,13.322 4.019,13.310 3.970,13.297 C3.970,13.285 3.970,13.273 3.970,13.261 C3.904,13.209 3.882,13.179 3.787,13.152 C3.787,13.128 3.787,13.103 3.787,13.079 C3.762,13.079 3.738,13.079 3.714,13.079 C3.714,13.055 3.714,13.030 3.714,13.006 C3.689,13.006 3.665,13.006 3.640,13.006 C3.640,12.981 3.640,12.957 3.640,12.933 C3.616,12.933 3.592,12.933 3.567,12.933 C3.567,12.909 3.567,12.885 3.567,12.860 C3.543,12.860 3.518,12.860 3.494,12.860 C3.494,12.836 3.494,12.812 3.494,12.787 C3.470,12.787 3.445,12.787 3.421,12.787 C3.421,12.763 3.421,12.739 3.421,12.714 C3.396,12.714 3.372,12.714 3.348,12.714 C3.348,12.690 3.348,12.666 3.348,12.642 C3.323,12.642 3.299,12.642 3.274,12.642 C3.274,12.617 3.274,12.593 3.274,12.569 C3.250,12.569 3.225,12.569 3.201,12.569 C3.201,12.544 3.201,12.520 3.201,12.496 C3.177,12.496 3.152,12.496 3.128,12.496 C3.128,12.471 3.128,12.447 3.128,12.423 C3.103,12.423 3.079,12.423 3.054,12.423 C3.054,12.398 3.054,12.374 3.054,12.350 C3.030,12.350 3.006,12.350 2.981,12.350 C2.956,12.253 2.922,12.235 2.871,12.168 C2.859,12.168 2.847,12.168 2.835,12.168 C2.835,12.131 2.835,12.095 2.835,12.058 C2.810,12.046 2.786,12.034 2.761,12.022 C2.749,11.973 2.737,11.925 2.725,11.876 C2.688,11.852 2.652,11.828 2.615,11.803 C2.615,11.767 2.615,11.730 2.615,11.694 C2.591,11.682 2.566,11.670 2.542,11.657 C2.542,11.621 2.542,11.585 2.542,11.548 C2.517,11.536 2.493,11.524 2.468,11.512 C2.468,11.475 2.468,11.439 2.468,11.402 C2.444,11.390 2.420,11.378 2.395,11.366 C2.383,11.244 2.371,11.123 2.359,11.001 C2.798,11.001 3.238,11.001 3.677,11.001 C3.677,10.989 3.677,10.977 3.677,10.965 C3.824,10.941 3.970,10.916 4.117,10.892 C4.117,10.856 4.117,10.819 4.117,10.782 C3.946,10.746 3.775,10.710 3.604,10.673 C3.592,10.649 3.579,10.625 3.567,10.600 C3.531,10.600 3.494,10.600 3.457,10.600 C3.445,10.576 3.433,10.552 3.421,10.528 C3.384,10.528 3.348,10.528 3.311,10.528 C3.311,10.516 3.311,10.503 3.311,10.491 C3.262,10.479 3.213,10.467 3.164,10.455 C3.164,10.443 3.164,10.430 3.164,10.418 C3.115,10.406 3.067,10.394 3.018,10.382 C3.006,10.357 2.993,10.334 2.981,10.309 C2.945,10.309 2.908,10.309 2.871,10.309 C2.847,10.273 2.822,10.236 2.798,10.200 C2.749,10.187 2.700,10.175 2.652,10.163 C2.627,10.127 2.603,10.091 2.578,10.054 C2.529,10.041 2.481,10.030 2.432,10.018 C2.432,10.005 2.432,9.993 2.432,9.981 C2.366,9.928 2.344,9.899 2.249,9.872 C2.249,9.847 2.249,9.823 2.249,9.798 C2.224,9.798 2.200,9.798 2.176,9.798 C2.176,9.775 2.176,9.750 2.176,9.725 C2.151,9.725 2.127,9.725 2.102,9.725 C2.102,9.702 2.102,9.677 2.102,9.653 C2.078,9.653 2.053,9.653 2.029,9.653 C2.029,9.629 2.029,9.604 2.029,9.580 C2.005,9.580 1.980,9.580 1.956,9.580 C1.956,9.556 1.956,9.531 1.956,9.507 C1.931,9.507 1.907,9.507 1.883,9.507 C1.883,9.482 1.883,9.459 1.883,9.434 C1.858,9.434 1.834,9.434 1.809,9.434 C1.809,9.410 1.809,9.386 1.809,9.361 C1.785,9.361 1.760,9.361 1.736,9.361 C1.736,9.337 1.736,9.313 1.736,9.289 C1.595,9.204 1.605,9.122 1.516,8.997 C1.467,8.960 1.418,8.924 1.370,8.888 C1.370,8.851 1.370,8.815 1.370,8.778 C1.345,8.766 1.321,8.754 1.297,8.742 C1.284,8.693 1.272,8.645 1.260,8.596 C1.223,8.572 1.187,8.547 1.150,8.523 C1.150,8.487 1.150,8.450 1.150,8.414 C1.126,8.402 1.101,8.389 1.077,8.377 C1.052,8.268 1.028,8.159 1.004,8.049 C0.979,8.037 0.955,8.025 0.930,8.013 C0.930,7.964 0.930,7.916 0.930,7.867 C0.918,7.867 0.906,7.867 0.894,7.867 C0.894,7.843 0.894,7.818 0.894,7.794 C0.881,7.794 0.869,7.794 0.857,7.794 C0.845,7.697 0.833,7.600 0.820,7.503 C0.808,7.503 0.796,7.503 0.784,7.503 C0.784,7.454 0.784,7.406 0.784,7.357 C0.772,7.357 0.759,7.357 0.747,7.357 C0.747,7.332 0.747,7.308 0.747,7.284 C0.735,7.284 0.723,7.284 0.710,7.284 C0.710,7.236 0.710,7.187 0.710,7.138 C0.698,7.138 0.686,7.138 0.674,7.138 C0.674,6.895 0.674,6.652 0.674,6.409 C0.723,6.397 0.772,6.385 0.820,6.373 C0.833,6.397 0.845,6.422 0.857,6.446 C0.894,6.446 0.930,6.446 0.967,6.446 C0.979,6.470 0.991,6.495 1.004,6.518 C1.040,6.518 1.077,6.518 1.113,6.518 C1.113,6.531 1.113,6.543 1.113,6.555 C1.138,6.555 1.162,6.555 1.187,6.555 C1.187,6.567 1.187,6.579 1.187,6.591 C1.236,6.591 1.284,6.591 1.333,6.591 C1.333,6.604 1.333,6.616 1.333,6.628 C1.358,6.628 1.382,6.628 1.406,6.628 C1.406,6.640 1.406,6.652 1.406,6.664 C1.455,6.664 1.504,6.664 1.553,6.664 C1.565,6.689 1.577,6.713 1.590,6.738 C1.626,6.738 1.663,6.738 1.699,6.738 C1.699,6.749 1.699,6.761 1.699,6.774 C1.797,6.774 1.895,6.774 1.992,6.774 C1.992,6.786 1.992,6.798 1.992,6.810 C2.163,6.822 2.334,6.834 2.505,6.847 C2.493,6.786 2.481,6.725 2.468,6.664 C2.444,6.664 2.420,6.664 2.395,6.664 C2.395,6.640 2.395,6.616 2.395,6.591 C2.371,6.591 2.346,6.591 2.322,6.591 C2.322,6.567 2.322,6.543 2.322,6.518 C2.298,6.518 2.273,6.518 2.249,6.518 C2.249,6.495 2.249,6.470 2.249,6.446 C2.224,6.446 2.200,6.446 2.176,6.446 C2.176,6.422 2.176,6.397 2.176,6.373 C2.151,6.373 2.127,6.373 2.102,6.373 C2.102,6.348 2.102,6.324 2.102,6.300 C2.078,6.300 2.053,6.300 2.029,6.300 C2.029,6.276 2.029,6.251 2.029,6.227 C2.005,6.227 1.980,6.227 1.956,6.227 C1.956,6.203 1.956,6.179 1.956,6.154 C1.931,6.154 1.907,6.154 1.883,6.154 C1.883,6.130 1.883,6.106 1.883,6.081 C1.858,6.081 1.834,6.081 1.809,6.081 C1.809,6.057 1.809,6.032 1.809,6.008 C1.785,6.008 1.760,6.008 1.736,6.008 C1.736,5.984 1.736,5.960 1.736,5.936 C1.711,5.936 1.687,5.936 1.663,5.936 C1.636,5.840 1.605,5.818 1.553,5.753 C1.541,5.753 1.528,5.753 1.516,5.753 C1.504,5.704 1.492,5.656 1.480,5.608 C1.443,5.583 1.406,5.559 1.370,5.534 C1.370,5.498 1.370,5.461 1.370,5.425 C1.345,5.413 1.321,5.401 1.297,5.389 C1.284,5.340 1.272,5.292 1.260,5.243 C1.248,5.243 1.236,5.243 1.223,5.243 C1.211,5.194 1.199,5.146 1.187,5.097 C1.174,5.097 1.162,5.097 1.150,5.097 C1.150,5.061 1.150,5.024 1.150,4.988 C1.126,4.976 1.101,4.963 1.077,4.951 C1.077,4.915 1.077,4.879 1.077,4.842 C1.052,4.830 1.028,4.818 1.004,4.806 C1.004,4.757 1.004,4.708 1.004,4.660 C0.991,4.660 0.979,4.660 0.967,4.660 C0.967,4.635 0.967,4.611 0.967,4.587 C0.955,4.587 0.943,4.587 0.930,4.587 C0.930,4.538 0.930,4.490 0.930,4.441 C0.918,4.441 0.906,4.441 0.894,4.441 C0.894,4.417 0.894,4.392 0.894,4.368 C0.881,4.368 0.869,4.368 0.857,4.368 C0.845,4.247 0.833,4.125 0.820,4.004 C0.808,4.004 0.796,4.004 0.784,4.004 C0.784,3.955 0.784,3.907 0.784,3.858 C0.772,3.858 0.759,3.858 0.747,3.858 C0.747,3.664 0.747,3.469 0.747,3.275 C0.747,2.874 0.728,2.481 0.820,2.182 C0.833,2.060 0.845,1.939 0.857,1.817 C0.869,1.817 0.881,1.817 0.894,1.817 C0.894,1.793 0.894,1.768 0.894,1.744 C0.906,1.744 0.918,1.744 0.930,1.744 C0.930,1.696 0.930,1.647 0.930,1.598 C0.943,1.598 0.955,1.598 0.967,1.598 C0.967,1.574 0.967,1.550 0.967,1.526 C0.979,1.526 0.991,1.526 1.004,1.526 C1.004,1.477 1.004,1.428 1.004,1.380 C1.101,1.222 1.199,1.064 1.297,0.906 C1.333,0.906 1.370,0.906 1.406,0.906 C1.448,0.968 1.429,0.955 1.516,0.979 C1.558,1.138 1.690,1.170 1.736,1.344 C1.760,1.344 1.785,1.344 1.809,1.344 C1.809,1.368 1.809,1.392 1.809,1.416 C1.834,1.416 1.858,1.416 1.883,1.416 C1.883,1.440 1.883,1.465 1.883,1.489 C1.907,1.489 1.931,1.489 1.956,1.489 C1.956,1.513 1.956,1.537 1.956,1.562 C1.980,1.562 2.005,1.562 2.029,1.562 C2.029,1.586 2.029,1.611 2.029,1.635 C2.053,1.635 2.078,1.635 2.102,1.635 C2.102,1.659 2.102,1.683 2.102,1.708 C2.127,1.708 2.151,1.708 2.176,1.708 C2.176,1.732 2.176,1.756 2.176,1.780 C2.200,1.780 2.224,1.780 2.249,1.780 C2.249,1.805 2.249,1.829 2.249,1.853 C2.273,1.853 2.298,1.853 2.322,1.853 C2.322,1.878 2.322,1.902 2.322,1.926 C2.346,1.926 2.371,1.926 2.395,1.926 C2.395,1.951 2.395,1.975 2.395,1.999 C2.420,1.999 2.444,1.999 2.468,1.999 C2.468,2.024 2.468,2.048 2.468,2.072 C2.493,2.072 2.517,2.072 2.542,2.072 C2.542,2.096 2.542,2.121 2.542,2.145 C2.566,2.145 2.591,2.145 2.615,2.145 C2.615,2.169 2.615,2.194 2.615,2.218 C2.785,2.260 2.821,2.392 2.981,2.437 C2.981,2.461 2.981,2.485 2.981,2.510 C3.006,2.510 3.030,2.510 3.054,2.510 C3.054,2.533 3.054,2.558 3.054,2.583 C3.079,2.583 3.103,2.583 3.128,2.583 C3.128,2.607 3.128,2.631 3.128,2.655 C3.298,2.697 3.333,2.829 3.494,2.874 C3.494,2.898 3.494,2.923 3.494,2.947 C3.531,2.959 3.567,2.971 3.604,2.983 C3.604,2.996 3.604,3.008 3.604,3.020 C3.640,3.032 3.677,3.044 3.714,3.056 C3.726,3.081 3.738,3.104 3.750,3.129 C3.799,3.142 3.848,3.153 3.897,3.165 C3.921,3.202 3.946,3.239 3.970,3.275 C3.995,3.275 4.019,3.275 4.043,3.275 C4.043,3.287 4.043,3.299 4.043,3.311 C4.068,3.311 4.092,3.311 4.117,3.311 C4.141,3.348 4.165,3.384 4.190,3.420 C4.239,3.433 4.288,3.445 4.336,3.457 C4.361,3.494 4.385,3.530 4.410,3.567 C4.458,3.579 4.507,3.591 4.556,3.603 C4.568,3.627 4.580,3.651 4.593,3.676 C4.629,3.676 4.666,3.676 4.702,3.676 C4.727,3.712 4.751,3.749 4.776,3.785 C4.825,3.797 4.873,3.810 4.922,3.822 C4.934,3.846 4.947,3.870 4.959,3.894 C4.996,3.894 5.032,3.894 5.069,3.894 C5.081,3.919 5.093,3.943 5.105,3.967 C5.142,3.967 5.179,3.967 5.215,3.967 C5.227,3.992 5.240,4.016 5.252,4.040 C5.289,4.040 5.325,4.040 5.362,4.040 C5.374,4.065 5.386,4.089 5.398,4.113 C5.435,4.113 5.472,4.113 5.508,4.113 C5.533,4.149 5.557,4.186 5.582,4.223 C5.606,4.223 5.630,4.223 5.655,4.223 C5.655,4.235 5.655,4.247 5.655,4.259 C5.704,4.271 5.752,4.283 5.801,4.295 C5.801,4.308 5.801,4.320 5.801,4.332 C5.850,4.332 5.899,4.332 5.948,4.332 C5.960,4.356 5.972,4.381 5.984,4.405 C6.021,4.405 6.057,4.405 6.094,4.405 C6.106,4.429 6.119,4.453 6.131,4.478 C6.167,4.478 6.204,4.478 6.241,4.478 C6.253,4.502 6.265,4.526 6.277,4.551 C6.387,4.575 6.497,4.599 6.607,4.624 C6.619,4.647 6.631,4.672 6.644,4.696 C6.753,4.721 6.863,4.745 6.973,4.769 C6.973,4.781 6.973,4.794 6.973,4.806 C6.998,4.806 7.022,4.806 7.046,4.806 C7.046,4.818 7.046,4.830 7.046,4.842 C7.095,4.842 7.144,4.842 7.193,4.842 C7.205,4.867 7.217,4.890 7.230,4.915 C7.266,4.915 7.303,4.915 7.340,4.915 C7.340,4.927 7.340,4.939 7.340,4.951 C7.364,4.951 7.388,4.951 7.413,4.951 C7.413,4.963 7.413,4.976 7.413,4.988 C7.510,5.000 7.608,5.012 7.706,5.024 C7.706,5.036 7.706,5.049 7.706,5.061 C7.754,5.061 7.803,5.061 7.852,5.061 C7.852,5.073 7.852,5.085 7.852,5.097 C7.877,5.097 7.901,5.097 7.925,5.097 C7.925,5.110 7.925,5.122 7.925,5.133 C7.974,5.133 8.023,5.133 8.072,5.133 C8.072,5.146 8.072,5.158 8.072,5.170 C8.121,5.170 8.170,5.170 8.218,5.170 C8.218,5.182 8.218,5.194 8.218,5.206 C8.267,5.206 8.316,5.206 8.365,5.206 C8.365,5.218 8.365,5.231 8.365,5.243 C8.487,5.255 8.609,5.267 8.731,5.279 C8.731,5.292 8.731,5.304 8.731,5.316 C8.829,5.316 8.927,5.316 9.024,5.316 C9.024,5.328 9.024,5.340 9.024,5.352 C9.073,5.352 9.122,5.352 9.171,5.352 C9.171,5.365 9.171,5.377 9.171,5.389 C9.195,5.389 9.219,5.389 9.244,5.389 C9.244,5.401 9.244,5.413 9.244,5.425 C9.293,5.425 9.342,5.425 9.390,5.425 C9.390,5.438 9.390,5.449 9.390,5.461 C9.561,5.461 9.732,5.461 9.903,5.461 C9.903,5.474 9.903,5.486 9.903,5.498 C9.952,5.498 10.001,5.498 10.050,5.498 C10.050,5.510 10.050,5.522 10.050,5.534 C10.269,5.534 10.489,5.534 10.709,5.534 C10.697,5.365 10.684,5.194 10.672,5.024 C10.660,5.024 10.648,5.024 10.636,5.024 C10.636,4.879 10.636,4.733 10.636,4.587 C10.635,4.130 10.671,3.821 10.782,3.494 C10.794,3.396 10.806,3.299 10.819,3.202 C10.831,3.202 10.843,3.202 10.855,3.202 C10.855,3.178 10.855,3.153 10.855,3.129 C10.868,3.129 10.880,3.129 10.892,3.129 C10.892,3.081 10.892,3.032 10.892,2.983 C10.904,2.983 10.916,2.983 10.929,2.983 C10.929,2.959 10.929,2.935 10.929,2.910 C10.941,2.910 10.953,2.910 10.965,2.910 C10.965,2.862 10.965,2.813 10.965,2.765 C10.990,2.753 11.014,2.740 11.038,2.728 C11.038,2.692 11.038,2.655 11.038,2.619 C11.063,2.607 11.087,2.594 11.112,2.583 C11.112,2.546 11.112,2.510 11.112,2.473 C11.136,2.461 11.161,2.449 11.185,2.437 C11.185,2.400 11.185,2.364 11.185,2.327 C11.209,2.315 11.234,2.303 11.258,2.291 C11.258,2.254 11.258,2.218 11.258,2.182 C11.283,2.169 11.307,2.157 11.331,2.145 C11.331,2.109 11.331,2.072 11.331,2.035 C11.343,2.035 11.356,2.035 11.368,2.035 C11.419,1.968 11.450,1.950 11.478,1.853 C11.502,1.853 11.527,1.853 11.551,1.853 C11.593,1.684 11.726,1.649 11.771,1.489 C11.795,1.489 11.820,1.489 11.844,1.489 C11.844,1.465 11.844,1.440 11.844,1.416 C11.869,1.416 11.893,1.416 11.917,1.416 C11.917,1.392 11.917,1.368 11.917,1.344 C11.942,1.344 11.966,1.344 11.991,1.344 C11.991,1.319 11.991,1.295 11.991,1.270 C12.015,1.270 12.039,1.270 12.064,1.270 C12.064,1.246 12.064,1.221 12.064,1.197 C12.088,1.197 12.113,1.197 12.137,1.197 C12.137,1.173 12.137,1.149 12.137,1.125 C12.162,1.125 12.186,1.125 12.210,1.125 C12.210,1.100 12.210,1.076 12.210,1.052 C12.235,1.052 12.259,1.052 12.284,1.052 C12.366,0.911 12.451,0.921 12.577,0.833 C12.613,0.785 12.650,0.736 12.686,0.687 C12.723,0.687 12.760,0.687 12.796,0.687 C12.809,0.663 12.821,0.639 12.833,0.614 C12.882,0.602 12.931,0.590 12.980,0.578 C13.004,0.541 13.028,0.505 13.053,0.469 C13.089,0.469 13.126,0.469 13.163,0.469 C13.175,0.444 13.187,0.420 13.199,0.396 C13.236,0.396 13.273,0.396 13.309,0.396 C13.321,0.371 13.333,0.347 13.346,0.323 C13.395,0.323 13.443,0.323 13.492,0.323 C13.492,0.311 13.492,0.298 13.492,0.286 C13.517,0.286 13.541,0.286 13.565,0.286 C13.565,0.274 13.565,0.262 13.565,0.250 C13.614,0.250 13.663,0.250 13.712,0.250 C13.712,0.237 13.712,0.226 13.712,0.214 C13.736,0.214 13.761,0.214 13.785,0.214 C13.785,0.201 13.785,0.189 13.785,0.177 C13.834,0.177 13.883,0.177 13.932,0.177 C13.932,0.165 13.932,0.153 13.932,0.141 C13.956,0.141 13.981,0.141 14.005,0.141 C14.005,0.128 14.005,0.116 14.005,0.104 C14.127,0.092 14.249,0.080 14.371,0.068 C14.371,0.055 14.371,0.043 14.371,0.031 C14.420,0.031 14.469,0.031 14.518,0.031 C14.518,0.019 14.518,0.007 14.518,-0.005 C14.664,-0.005 14.811,-0.005 14.957,-0.005 C15.360,-0.005 15.755,-0.025 16.056,0.068 C16.178,0.080 16.300,0.092 16.422,0.104 C16.422,0.116 16.422,0.128 16.422,0.141 C16.447,0.141 16.471,0.141 16.495,0.141 C16.495,0.153 16.495,0.165 16.495,0.177 C16.544,0.177 16.593,0.177 16.642,0.177 C16.642,0.189 16.642,0.201 16.642,0.214 C16.666,0.214 16.691,0.214 16.715,0.214 C16.715,0.226 16.715,0.237 16.715,0.250 C16.764,0.250 16.813,0.250 16.862,0.250 C16.862,0.262 16.862,0.274 16.862,0.286 C16.886,0.286 16.910,0.286 16.935,0.286 C16.935,0.298 16.935,0.311 16.935,0.323 C16.984,0.323 17.032,0.323 17.081,0.323 C17.093,0.347 17.106,0.371 17.118,0.396 C17.155,0.396 17.191,0.396 17.228,0.396 C17.240,0.420 17.252,0.444 17.264,0.469 C17.301,0.469 17.338,0.469 17.374,0.469 C17.386,0.493 17.399,0.517 17.411,0.541 C17.448,0.541 17.484,0.541 17.521,0.541 C17.545,0.578 17.570,0.614 17.594,0.651 C17.643,0.663 17.692,0.675 17.741,0.687 C17.753,0.712 17.765,0.736 17.777,0.760 C17.814,0.760 17.850,0.760 17.887,0.760 C17.887,0.773 17.887,0.785 17.887,0.796 C17.955,0.847 17.973,0.879 18.070,0.906 Z"/>
</svg>