<?xml version='1.0' encoding='iso-8859-1'?>
<!DOCTYPE svg PUBLIC '-//W3C//DTD SVG 1.1//EN' 'http://www.w3.org/Graphics/SVG/1.1/DTD/svg11.dtd'>
<svg version="1.1" xmlns="http://www.w3.org/2000/svg" viewBox="0 0 512 512" xmlns:xlink="http://www.w3.org/1999/xlink" enable-background="new 0 0 512 512" width="50px" height="60px" fill="#fff">
  <switch>
    <g>
      <g>
        <path d="m145.102,287.395c-19.259,0-34.927,15.668-34.927,34.927s15.668,34.927 34.927,34.927 34.927-15.668 34.927-34.927-15.669-34.927-34.927-34.927zm0,44.853c-5.474,0-9.927-4.453-9.927-9.927s4.453-9.927 9.927-9.927 9.927,4.453 9.927,9.927-4.454,9.927-9.927,9.927z"/>
        <path d="m394.754,287.395c-19.259,0-34.927,15.668-34.927,34.927s15.668,34.927 34.927,34.927 34.927-15.668 34.927-34.927-15.668-34.927-34.927-34.927zm0,44.853c-5.474,0-9.927-4.453-9.927-9.927s4.453-9.927 9.927-9.927 9.927,4.453 9.927,9.927-4.454,9.927-9.927,9.927z"/>
        <path d="m394.754,238.718c-34.325,0-63.872,20.799-76.732,50.45h-96.187c-12.861-29.651-42.407-50.45-76.732-50.45-46.1,0-83.604,37.504-83.604,83.604 0,46.099 37.504,83.604 83.604,83.604s83.604-37.504 83.604-83.604c0-2.751-0.142-5.469-0.403-8.153h83.252c-0.261,2.684-0.403,5.402-0.403,8.153 0,46.099 37.504,83.604 83.604,83.604s83.604-37.504 83.604-83.604c-0.004-46.1-37.508-83.604-83.607-83.604zm-249.652,142.207c-32.314,0-58.604-26.29-58.604-58.604s26.289-58.604 58.604-58.604 58.604,26.289 58.604,58.604-26.29,58.604-58.604,58.604zm249.652,0c-32.314,0-58.604-26.29-58.604-58.604s26.289-58.604 58.604-58.604 58.604,26.289 58.604,58.604-26.29,58.604-58.604,58.604z"/>
        <path d="m141.03,229.258h55.006c6.903,0 12.5-5.596 12.5-12.5v-58.984c0-6.904-5.597-12.5-12.5-12.5h-72.677c-3.94,0-7.651,1.858-10.011,5.015-2.36,3.156-3.094,7.24-1.979,11.02l12.663,42.949h-83.882c-6.903,0-12.5,5.596-12.5,12.5v96.902c0,6.904 5.597,12.5 12.5,12.5s12.5-5.596 12.5-12.5v-84.402h87.809c0.187,0.005 0.378,0.005 0.571,2.84217e-14zm42.506-58.983v33.984h-33.439l-10.02-33.984h43.459z"/>
        <path d="m483.662,200.855l-18.959-54.771c-1.743-5.034-6.485-8.411-11.813-8.411h-214.291l-6.468-22.545c-1.538-5.36-6.439-9.053-12.016-9.053h-144.3c-6.903,0-12.5,5.596-12.5,12.5s5.597,12.5 12.5,12.5h134.882l34.268,119.447c1.563,5.444 6.533,9.055 12.006,9.055 0.797,0 1.605-0.077 2.415-0.235l214.869-42.131c3.551-0.696 6.626-2.897 8.431-6.034 1.803-3.137 2.16-6.902 0.976-10.322zm-217.83,31.747l-20.062-69.928h198.22l11.344,32.771-189.502,37.157z"/>
      </g>
    </g>
  </switch>
</svg>
