<svg 
 xmlns="http://www.w3.org/2000/svg"
 xmlns:xlink="http://www.w3.org/1999/xlink"
 width="332px" height="68px">
<path fill-rule="evenodd"  fill="rgb(31, 25, 26)"
 d="M30.040,56.088 C30.040,56.709 30.040,57.330 30.040,57.952 C29.098,57.952 28.155,57.952 27.213,57.952 C27.213,58.870 27.213,59.789 27.213,60.707 C28.155,60.707 29.098,60.707 30.040,60.707 C30.040,61.328 30.040,61.949 30.040,62.571 C29.098,62.571 28.155,62.571 27.213,62.571 C27.213,63.624 27.213,64.678 27.213,65.731 C27.563,65.860 28.190,65.812 28.667,65.812 C29.609,65.812 30.551,65.812 31.493,65.812 C31.493,66.406 31.493,67.001 31.493,67.595 C31.002,67.775 30.105,67.676 29.474,67.676 C28.048,67.676 26.621,67.676 25.195,67.676 C25.195,59.735 25.195,51.792 25.195,43.852 C24.371,43.829 23.229,43.387 22.691,43.041 C22.664,42.987 22.637,42.933 22.611,42.879 C22.557,42.879 22.503,42.879 22.449,42.879 C22.449,42.852 22.449,42.825 22.449,42.798 C22.262,42.642 22.149,42.470 21.884,42.393 C21.884,42.339 21.884,42.285 21.884,42.231 C21.429,41.969 21.249,41.489 20.995,41.015 C20.969,41.015 20.942,41.015 20.915,41.015 C20.861,40.853 20.807,40.691 20.753,40.529 C20.726,40.529 20.699,40.529 20.672,40.529 C20.672,40.448 20.672,40.367 20.672,40.286 C20.646,40.286 20.619,40.286 20.592,40.286 C20.592,40.232 20.592,40.178 20.592,40.124 C20.565,40.124 20.538,40.124 20.511,40.124 C20.511,40.016 20.511,39.908 20.511,39.800 C20.484,39.800 20.457,39.800 20.430,39.800 C20.430,39.719 20.430,39.638 20.430,39.557 C20.403,39.557 20.376,39.557 20.349,39.557 C20.349,39.422 20.349,39.287 20.349,39.152 C20.167,38.537 20.067,37.104 20.269,36.396 C20.269,36.207 20.269,36.018 20.269,35.829 C20.515,34.997 20.735,34.141 21.157,33.479 C21.211,33.452 21.265,33.425 21.319,33.398 C21.319,33.344 21.319,33.290 21.319,33.236 C21.399,33.182 21.480,33.128 21.561,33.074 C21.561,33.020 21.561,32.966 21.561,32.912 C21.749,32.750 21.938,32.588 22.126,32.426 C22.153,32.372 22.180,32.318 22.207,32.264 C22.261,32.264 22.314,32.264 22.368,32.264 C22.422,32.183 22.476,32.102 22.530,32.021 C22.584,32.021 22.637,32.021 22.691,32.021 C22.718,31.967 22.745,31.912 22.772,31.858 C22.826,31.858 22.880,31.858 22.934,31.858 C22.960,31.804 22.987,31.750 23.014,31.696 C23.068,31.696 23.122,31.696 23.176,31.696 C23.176,31.669 23.176,31.642 23.176,31.615 C23.230,31.615 23.283,31.615 23.337,31.615 C23.337,31.588 23.337,31.561 23.337,31.534 C23.418,31.534 23.499,31.534 23.580,31.534 C23.580,31.507 23.580,31.480 23.580,31.453 C23.633,31.453 23.687,31.453 23.741,31.453 C23.741,31.426 23.741,31.399 23.741,31.372 C23.929,31.345 24.118,31.318 24.306,31.291 C24.306,31.264 24.306,31.237 24.306,31.210 C24.414,31.210 24.522,31.210 24.629,31.210 C24.629,31.183 24.629,31.156 24.629,31.129 C24.845,31.129 25.060,31.129 25.275,31.129 C25.275,31.102 25.275,31.075 25.275,31.048 C25.776,30.908 26.724,31.111 27.052,31.210 C27.186,31.210 27.321,31.210 27.456,31.210 C29.324,31.812 30.433,32.958 31.170,34.695 C31.224,34.992 31.278,35.289 31.332,35.586 C31.359,35.586 31.386,35.586 31.412,35.586 C31.412,35.721 31.412,35.856 31.412,35.991 C31.643,36.771 31.648,38.204 31.412,38.990 C31.412,39.125 31.412,39.260 31.412,39.395 C31.224,39.935 31.036,40.475 30.847,41.015 C30.793,41.042 30.740,41.069 30.686,41.096 C30.659,41.204 30.632,41.313 30.605,41.421 C30.551,41.448 30.497,41.475 30.443,41.502 C30.443,41.556 30.443,41.610 30.443,41.664 C30.363,41.718 30.282,41.772 30.201,41.826 C30.201,41.880 30.201,41.934 30.201,41.988 C29.986,42.177 29.771,42.366 29.555,42.555 C29.501,42.636 29.448,42.717 29.394,42.798 C29.340,42.798 29.286,42.798 29.232,42.798 C29.205,42.852 29.178,42.906 29.151,42.960 C29.098,42.960 29.044,42.960 28.990,42.960 C28.963,43.014 28.936,43.068 28.909,43.122 C28.802,43.149 28.694,43.176 28.586,43.203 C28.586,43.230 28.586,43.257 28.586,43.284 C28.425,43.338 28.263,43.392 28.102,43.446 C28.102,43.473 28.102,43.500 28.102,43.527 C28.021,43.527 27.940,43.527 27.859,43.527 C27.859,43.554 27.859,43.582 27.859,43.609 C27.671,43.636 27.483,43.663 27.294,43.690 C27.294,43.717 27.294,43.744 27.294,43.771 C27.157,43.928 27.214,44.375 27.213,44.662 C27.213,45.418 27.213,46.175 27.213,46.931 C27.213,49.956 27.213,52.982 27.213,56.007 C27.830,56.235 29.246,56.092 30.040,56.088 ZM72.596,31.048 C75.068,31.018 76.515,31.806 77.522,33.236 C77.603,33.290 77.683,33.344 77.764,33.398 C77.791,33.506 77.818,33.614 77.845,33.722 C77.899,33.749 77.953,33.776 78.006,33.803 C78.006,33.857 78.006,33.911 78.006,33.965 C78.033,33.965 78.060,33.965 78.087,33.965 C78.114,34.073 78.141,34.181 78.168,34.290 C78.195,34.290 78.222,34.290 78.249,34.290 C78.249,34.371 78.249,34.452 78.249,34.533 C78.276,34.533 78.302,34.533 78.329,34.533 C78.329,34.587 78.329,34.641 78.329,34.695 C78.356,34.695 78.383,34.695 78.410,34.695 C78.410,34.776 78.410,34.857 78.410,34.938 C78.437,34.938 78.464,34.938 78.491,34.938 C78.491,35.046 78.491,35.154 78.491,35.262 C78.518,35.262 78.545,35.262 78.572,35.262 C78.599,35.505 78.625,35.748 78.652,35.991 C78.679,35.991 78.706,35.991 78.733,35.991 C78.733,36.234 78.733,36.477 78.733,36.721 C78.801,36.966 78.916,37.899 78.814,38.260 C78.787,38.260 78.760,38.260 78.733,38.260 C78.733,38.476 78.733,38.692 78.733,38.908 C78.706,38.908 78.679,38.908 78.652,38.908 C78.652,39.071 78.652,39.233 78.652,39.395 C78.625,39.395 78.599,39.395 78.572,39.395 C78.572,39.503 78.572,39.611 78.572,39.719 C78.545,39.719 78.518,39.719 78.491,39.719 C78.491,39.800 78.491,39.881 78.491,39.962 C78.464,39.962 78.437,39.962 78.410,39.962 C78.410,40.043 78.410,40.124 78.410,40.205 C78.383,40.205 78.356,40.205 78.329,40.205 C78.329,40.286 78.329,40.367 78.329,40.448 C78.302,40.448 78.276,40.448 78.249,40.448 C78.222,40.556 78.195,40.664 78.168,40.772 C78.141,40.772 78.114,40.772 78.087,40.772 C78.087,40.826 78.087,40.880 78.087,40.934 C78.060,40.934 78.033,40.934 78.006,40.934 C78.006,40.988 78.006,41.042 78.006,41.096 C77.979,41.096 77.952,41.096 77.926,41.096 C77.926,41.150 77.926,41.204 77.926,41.259 C77.899,41.259 77.872,41.259 77.845,41.259 C77.845,41.313 77.845,41.367 77.845,41.421 C77.791,41.448 77.737,41.475 77.683,41.502 C77.683,41.556 77.683,41.610 77.683,41.664 C77.603,41.718 77.522,41.772 77.441,41.826 C77.441,41.880 77.441,41.934 77.441,41.988 C77.360,42.042 77.280,42.096 77.199,42.150 C77.037,42.339 76.876,42.528 76.714,42.717 C76.660,42.717 76.607,42.717 76.553,42.717 C76.499,42.798 76.445,42.879 76.391,42.960 C76.337,42.960 76.284,42.960 76.230,42.960 C76.203,43.014 76.176,43.068 76.149,43.122 C76.095,43.122 76.041,43.122 75.988,43.122 C75.988,43.149 75.988,43.176 75.988,43.203 C75.934,43.203 75.880,43.203 75.826,43.203 C75.826,43.230 75.826,43.257 75.826,43.284 C75.772,43.284 75.718,43.284 75.665,43.284 C75.665,43.311 75.665,43.338 75.665,43.365 C75.611,43.365 75.557,43.365 75.503,43.365 C75.503,43.392 75.503,43.419 75.503,43.446 C75.449,43.446 75.395,43.446 75.342,43.446 C75.342,43.473 75.342,43.500 75.342,43.527 C75.261,43.527 75.180,43.527 75.099,43.527 C75.099,43.554 75.099,43.582 75.099,43.609 C75.019,43.609 74.938,43.609 74.857,43.609 C74.857,43.636 74.857,43.663 74.857,43.690 C74.749,43.690 74.642,43.690 74.534,43.690 C74.534,43.717 74.534,43.744 74.534,43.771 C74.373,43.771 74.211,43.771 74.049,43.771 C74.049,43.798 74.049,43.825 74.049,43.852 C73.511,44.004 72.052,43.802 71.708,43.690 C71.600,43.690 71.492,43.690 71.385,43.690 C71.385,43.663 71.385,43.636 71.385,43.609 C71.304,43.609 71.223,43.609 71.142,43.609 C71.142,43.582 71.142,43.554 71.142,43.527 C71.062,43.527 70.981,43.527 70.900,43.527 C70.900,43.500 70.900,43.473 70.900,43.446 C70.846,43.446 70.792,43.446 70.739,43.446 C70.739,43.419 70.739,43.392 70.739,43.365 C70.658,43.365 70.577,43.365 70.496,43.365 C70.469,43.311 70.443,43.257 70.416,43.203 C70.254,43.149 70.093,43.095 69.931,43.041 C69.877,42.960 69.823,42.879 69.770,42.798 C69.716,42.798 69.662,42.798 69.608,42.798 C69.527,42.690 69.447,42.582 69.366,42.474 C69.124,42.258 68.881,42.042 68.639,41.826 C68.639,41.772 68.639,41.718 68.639,41.664 C68.585,41.637 68.531,41.610 68.478,41.583 C68.478,41.529 68.478,41.475 68.478,41.421 C68.424,41.394 68.370,41.367 68.316,41.340 C68.289,41.232 68.262,41.123 68.235,41.015 C68.208,41.015 68.182,41.015 68.155,41.015 C68.101,40.853 68.047,40.691 67.993,40.529 C67.966,40.529 67.939,40.529 67.912,40.529 C67.912,40.448 67.912,40.367 67.912,40.286 C67.885,40.286 67.859,40.286 67.832,40.286 C67.832,40.205 67.832,40.124 67.832,40.043 C67.805,40.043 67.778,40.043 67.751,40.043 C67.751,39.962 67.751,39.881 67.751,39.800 C67.724,39.800 67.697,39.800 67.670,39.800 C67.670,39.692 67.670,39.584 67.670,39.476 C67.643,39.476 67.616,39.476 67.589,39.476 C67.589,39.341 67.589,39.206 67.589,39.071 C67.562,39.071 67.536,39.071 67.509,39.071 C67.509,38.909 67.509,38.746 67.509,38.584 C67.431,38.314 67.321,36.773 67.428,36.396 C67.455,36.396 67.482,36.396 67.509,36.396 C67.509,36.207 67.509,36.018 67.509,35.829 C67.536,35.829 67.562,35.829 67.589,35.829 C67.589,35.694 67.589,35.559 67.589,35.424 C67.616,35.424 67.643,35.424 67.670,35.424 C67.670,35.316 67.670,35.208 67.670,35.100 C67.697,35.100 67.724,35.100 67.751,35.100 C67.751,35.019 67.751,34.938 67.751,34.857 C67.778,34.857 67.805,34.857 67.832,34.857 C67.832,34.776 67.832,34.695 67.832,34.614 C67.859,34.614 67.885,34.614 67.912,34.614 C67.912,34.560 67.912,34.506 67.912,34.452 C67.939,34.452 67.966,34.452 67.993,34.452 C67.993,34.371 67.993,34.289 67.993,34.208 C68.020,34.208 68.047,34.208 68.074,34.208 C68.074,34.154 68.074,34.100 68.074,34.046 C68.101,34.046 68.128,34.046 68.155,34.046 C68.155,33.992 68.155,33.938 68.155,33.884 C68.208,33.857 68.262,33.830 68.316,33.803 C68.343,33.695 68.370,33.587 68.397,33.479 C68.451,33.452 68.505,33.425 68.558,33.398 C68.558,33.344 68.558,33.290 68.558,33.236 C68.666,33.155 68.774,33.074 68.881,32.993 C68.881,32.939 68.881,32.885 68.881,32.831 C69.043,32.696 69.204,32.561 69.366,32.426 C69.393,32.372 69.420,32.318 69.447,32.264 C69.500,32.264 69.554,32.264 69.608,32.264 C69.662,32.183 69.716,32.102 69.770,32.021 C69.823,32.021 69.877,32.021 69.931,32.021 C69.958,31.967 69.985,31.912 70.012,31.858 C70.120,31.831 70.227,31.804 70.335,31.777 C70.362,31.723 70.389,31.669 70.416,31.615 C70.496,31.615 70.577,31.615 70.658,31.615 C70.658,31.588 70.658,31.561 70.658,31.534 C70.766,31.507 70.873,31.480 70.981,31.453 C70.981,31.426 70.981,31.399 70.981,31.372 C71.304,31.318 71.627,31.264 71.950,31.210 C71.950,31.183 71.950,31.156 71.950,31.129 C72.165,31.129 72.381,31.129 72.596,31.129 C72.596,31.102 72.596,31.075 72.596,31.048 ZM0.081,31.291 C0.646,31.291 1.211,31.291 1.777,31.291 C1.777,32.966 1.777,34.641 1.777,36.315 C3.768,36.315 5.761,36.315 7.752,36.315 C7.752,34.641 7.752,32.966 7.752,31.291 C8.317,31.291 8.883,31.291 9.448,31.291 C9.448,35.397 9.448,39.503 9.448,43.609 C8.883,43.609 8.317,43.609 7.752,43.609 C7.752,41.664 7.752,39.719 7.752,37.774 C5.761,37.774 3.768,37.774 1.777,37.774 C1.777,39.719 1.777,41.664 1.777,43.609 C1.211,43.609 0.646,43.609 0.081,43.609 C0.081,39.503 0.081,35.397 0.081,31.291 ZM46.109,31.453 C47.643,31.453 49.178,31.453 50.712,31.453 C51.513,31.453 52.296,31.433 52.892,31.615 C53.027,31.615 53.162,31.615 53.296,31.615 C53.296,31.642 53.296,31.669 53.296,31.696 C53.377,31.696 53.458,31.696 53.539,31.696 C53.539,31.723 53.539,31.750 53.539,31.777 C53.619,31.777 53.700,31.777 53.781,31.777 C53.781,31.804 53.781,31.831 53.781,31.858 C53.862,31.858 53.942,31.858 54.023,31.858 C54.023,31.885 54.023,31.912 54.023,31.939 C54.077,31.939 54.131,31.939 54.185,31.939 C54.185,31.967 54.185,31.994 54.185,32.021 C54.292,32.048 54.400,32.075 54.508,32.102 C54.534,32.156 54.561,32.210 54.588,32.264 C54.642,32.264 54.696,32.264 54.750,32.264 C54.804,32.345 54.857,32.426 54.911,32.507 C54.965,32.507 55.019,32.507 55.073,32.507 C55.100,32.561 55.127,32.615 55.154,32.669 C55.180,32.669 55.207,32.669 55.234,32.669 C55.234,32.723 55.234,32.777 55.234,32.831 C55.315,32.885 55.396,32.939 55.477,32.993 C55.477,33.047 55.477,33.101 55.477,33.155 C55.503,33.155 55.530,33.155 55.557,33.155 C55.584,33.263 55.611,33.371 55.638,33.479 C55.665,33.479 55.692,33.479 55.719,33.479 C55.719,33.587 55.719,33.695 55.719,33.803 C55.746,33.803 55.773,33.803 55.800,33.803 C55.864,34.017 55.872,35.038 55.800,35.262 C55.773,35.262 55.746,35.262 55.719,35.262 C55.719,35.343 55.719,35.424 55.719,35.505 C55.692,35.505 55.665,35.505 55.638,35.505 C55.611,35.640 55.584,35.775 55.557,35.910 C55.503,35.937 55.450,35.964 55.396,35.991 C55.396,36.045 55.396,36.099 55.396,36.153 C55.315,36.207 55.234,36.261 55.154,36.315 C55.073,36.423 54.992,36.531 54.911,36.640 C54.857,36.640 54.804,36.640 54.750,36.640 C54.750,36.667 54.750,36.694 54.750,36.721 C54.588,36.775 54.427,36.829 54.265,36.883 C54.265,36.910 54.265,36.937 54.265,36.964 C54.068,37.049 53.802,37.057 53.619,37.126 C53.619,37.153 53.619,37.180 53.619,37.207 C54.857,37.259 56.036,38.412 56.365,39.395 C56.365,39.530 56.365,39.665 56.365,39.800 C56.392,39.800 56.419,39.800 56.446,39.800 C56.561,40.204 56.395,41.247 56.284,41.502 C56.257,41.502 56.230,41.502 56.203,41.502 C56.176,41.610 56.149,41.718 56.123,41.826 C56.096,41.826 56.069,41.826 56.042,41.826 C56.015,41.934 55.988,42.042 55.961,42.150 C55.773,42.312 55.584,42.474 55.396,42.636 C55.342,42.717 55.288,42.798 55.234,42.879 C55.180,42.879 55.127,42.879 55.073,42.879 C55.046,42.933 55.019,42.987 54.992,43.041 C54.884,43.068 54.777,43.095 54.669,43.122 C54.669,43.149 54.669,43.176 54.669,43.203 C54.561,43.230 54.454,43.257 54.346,43.284 C54.346,43.311 54.346,43.338 54.346,43.365 C54.265,43.365 54.185,43.365 54.104,43.365 C53.136,43.751 52.173,43.771 50.793,43.771 C49.232,43.771 47.670,43.771 46.109,43.771 C46.109,39.665 46.109,35.559 46.109,31.453 ZM96.256,32.183 C96.256,32.804 96.256,33.425 96.256,34.046 C95.314,34.046 94.372,34.046 93.430,34.046 C93.430,34.965 93.430,35.883 93.430,36.802 C94.372,36.802 95.314,36.802 96.256,36.802 C96.256,37.423 96.256,38.044 96.256,38.665 C95.314,38.665 94.372,38.665 93.430,38.665 C93.430,39.719 93.430,40.772 93.430,41.826 C93.780,41.955 94.406,41.907 94.883,41.907 C95.825,41.907 96.768,41.907 97.710,41.907 C97.710,42.528 97.710,43.149 97.710,43.771 C96.283,43.771 94.856,43.771 93.430,43.771 C93.430,47.606 93.430,51.442 93.430,55.278 C93.726,55.332 94.022,55.386 94.318,55.440 C94.318,55.467 94.318,55.494 94.318,55.521 C94.372,55.521 94.426,55.521 94.480,55.521 C94.480,55.548 94.480,55.575 94.480,55.602 C94.722,55.683 94.964,55.764 95.206,55.845 C95.233,55.899 95.260,55.953 95.287,56.007 C95.341,56.007 95.395,56.007 95.449,56.007 C95.476,56.061 95.503,56.115 95.529,56.169 C95.583,56.169 95.637,56.169 95.691,56.169 C95.772,56.277 95.853,56.385 95.933,56.493 C95.987,56.493 96.041,56.493 96.095,56.493 C96.176,56.601 96.256,56.709 96.337,56.817 C96.364,56.817 96.391,56.817 96.418,56.817 C96.418,56.871 96.418,56.925 96.418,56.979 C96.525,57.060 96.633,57.141 96.741,57.222 C96.768,57.303 96.795,57.384 96.822,57.465 C96.875,57.492 96.929,57.519 96.983,57.547 C97.037,57.709 97.091,57.871 97.145,58.033 C97.198,58.060 97.252,58.087 97.306,58.114 C97.333,58.249 97.360,58.384 97.387,58.519 C97.414,58.519 97.441,58.519 97.468,58.519 C97.468,58.573 97.468,58.627 97.468,58.681 C97.494,58.681 97.521,58.681 97.548,58.681 C97.575,58.843 97.602,59.005 97.629,59.167 C97.656,59.167 97.683,59.167 97.710,59.167 C97.710,59.275 97.710,59.383 97.710,59.491 C97.737,59.491 97.764,59.491 97.791,59.491 C97.791,59.599 97.791,59.707 97.791,59.815 C97.817,59.815 97.844,59.815 97.871,59.815 C97.871,60.005 97.871,60.194 97.871,60.383 C97.898,60.383 97.925,60.383 97.952,60.383 C98.063,60.782 97.956,62.523 97.871,62.814 C97.871,62.976 97.871,63.138 97.871,63.300 C97.844,63.300 97.817,63.300 97.791,63.300 C97.791,63.435 97.791,63.570 97.791,63.705 C97.764,63.705 97.737,63.705 97.710,63.705 C97.710,63.786 97.710,63.867 97.710,63.948 C97.683,63.948 97.656,63.948 97.629,63.948 C97.629,64.029 97.629,64.110 97.629,64.191 C97.602,64.191 97.575,64.191 97.548,64.191 C97.548,64.272 97.548,64.353 97.548,64.434 C97.521,64.434 97.494,64.434 97.468,64.434 C97.468,64.515 97.468,64.597 97.468,64.678 C97.441,64.678 97.414,64.678 97.387,64.678 C97.333,64.840 97.279,65.002 97.225,65.164 C97.198,65.164 97.171,65.164 97.145,65.164 C97.145,65.218 97.145,65.272 97.145,65.326 C97.091,65.353 97.037,65.380 96.983,65.407 C96.956,65.515 96.929,65.623 96.902,65.731 C96.822,65.785 96.741,65.839 96.660,65.893 C96.660,65.947 96.660,66.001 96.660,66.055 C96.472,66.217 96.283,66.379 96.095,66.541 C96.014,66.649 95.933,66.757 95.853,66.866 C95.799,66.866 95.745,66.866 95.691,66.866 C95.637,66.947 95.583,67.028 95.529,67.109 C95.422,67.136 95.314,67.163 95.206,67.190 C95.180,67.244 95.153,67.298 95.126,67.352 C95.072,67.352 95.018,67.352 94.964,67.352 C94.964,67.379 94.964,67.406 94.964,67.433 C94.857,67.460 94.749,67.487 94.641,67.514 C94.641,67.541 94.641,67.568 94.641,67.595 C94.480,67.622 94.318,67.649 94.157,67.676 C94.157,67.703 94.157,67.730 94.157,67.757 C93.941,67.784 93.726,67.811 93.511,67.838 C93.511,67.865 93.511,67.892 93.511,67.919 C93.295,67.919 93.080,67.919 92.865,67.919 C92.865,67.946 92.865,67.973 92.865,68.000 C92.461,68.000 92.057,68.000 91.653,68.000 C91.653,67.973 91.653,67.946 91.653,67.919 C91.330,67.892 91.007,67.865 90.684,67.838 C90.684,67.811 90.684,67.784 90.684,67.757 C90.604,67.757 90.523,67.757 90.442,67.757 C90.442,67.730 90.442,67.703 90.442,67.676 C90.361,67.676 90.281,67.676 90.200,67.676 C90.200,67.649 90.200,67.622 90.200,67.595 C90.119,67.595 90.038,67.595 89.958,67.595 C89.958,67.568 89.958,67.541 89.958,67.514 C89.904,67.514 89.850,67.514 89.796,67.514 C89.796,67.487 89.796,67.460 89.796,67.433 C89.635,67.379 89.473,67.325 89.312,67.271 C89.285,67.217 89.258,67.163 89.231,67.109 C89.177,67.109 89.123,67.109 89.069,67.109 C89.042,67.055 89.016,67.001 88.989,66.947 C88.935,66.947 88.881,66.947 88.827,66.947 C88.612,66.703 88.396,66.460 88.181,66.217 C88.073,66.136 87.966,66.055 87.858,65.974 C87.858,65.920 87.858,65.866 87.858,65.812 C87.777,65.758 87.697,65.704 87.616,65.650 C87.589,65.542 87.562,65.434 87.535,65.326 C87.481,65.299 87.427,65.272 87.374,65.245 C87.374,65.191 87.374,65.137 87.374,65.083 C87.347,65.083 87.320,65.083 87.293,65.083 C87.266,64.975 87.239,64.867 87.212,64.759 C87.185,64.759 87.158,64.759 87.131,64.759 C87.131,64.678 87.131,64.597 87.131,64.516 C87.104,64.516 87.077,64.516 87.051,64.516 C87.051,64.461 87.051,64.407 87.051,64.353 C87.024,64.353 86.997,64.353 86.970,64.353 C86.970,64.245 86.970,64.137 86.970,64.029 C86.943,64.029 86.916,64.029 86.889,64.029 C86.889,63.948 86.889,63.867 86.889,63.786 C86.862,63.786 86.835,63.786 86.808,63.786 C86.808,63.678 86.808,63.570 86.808,63.462 C86.781,63.462 86.754,63.462 86.728,63.462 C86.728,63.300 86.728,63.138 86.728,62.976 C86.701,62.976 86.674,62.976 86.647,62.976 C86.647,62.733 86.647,62.490 86.647,62.247 C86.620,62.247 86.593,62.247 86.566,62.247 C86.435,61.773 86.632,60.460 86.728,60.140 C86.728,60.005 86.728,59.869 86.728,59.734 C86.754,59.734 86.781,59.734 86.808,59.734 C86.808,59.626 86.808,59.518 86.808,59.410 C86.835,59.410 86.862,59.410 86.889,59.410 C86.889,59.302 86.889,59.194 86.889,59.086 C86.916,59.086 86.943,59.086 86.970,59.086 C86.970,59.005 86.970,58.924 86.970,58.843 C86.997,58.843 87.024,58.843 87.051,58.843 C87.051,58.762 87.051,58.681 87.051,58.600 C87.077,58.600 87.104,58.600 87.131,58.600 C87.185,58.438 87.239,58.276 87.293,58.114 C87.320,58.114 87.347,58.114 87.374,58.114 C87.374,58.060 87.374,58.006 87.374,57.952 C87.400,57.952 87.427,57.952 87.454,57.952 C87.481,57.844 87.508,57.736 87.535,57.628 C87.589,57.601 87.643,57.574 87.697,57.547 C87.697,57.492 87.697,57.438 87.697,57.384 C87.804,57.303 87.912,57.222 88.020,57.141 C88.020,57.087 88.020,57.033 88.020,56.979 C88.100,56.925 88.181,56.871 88.262,56.817 C88.396,56.655 88.531,56.493 88.666,56.331 C88.719,56.331 88.773,56.331 88.827,56.331 C88.881,56.250 88.935,56.169 88.989,56.088 C89.042,56.088 89.096,56.088 89.150,56.088 C89.177,56.034 89.204,55.980 89.231,55.926 C89.285,55.926 89.339,55.926 89.392,55.926 C89.392,55.899 89.392,55.872 89.392,55.845 C89.446,55.845 89.500,55.845 89.554,55.845 C89.554,55.818 89.554,55.791 89.554,55.764 C89.608,55.764 89.662,55.764 89.715,55.764 C89.715,55.737 89.715,55.710 89.715,55.683 C89.769,55.683 89.823,55.683 89.877,55.683 C89.877,55.656 89.877,55.629 89.877,55.602 C89.931,55.602 89.985,55.602 90.038,55.602 C90.038,55.575 90.038,55.548 90.038,55.521 C90.119,55.521 90.200,55.521 90.281,55.521 C90.281,55.494 90.281,55.467 90.281,55.440 C90.361,55.440 90.442,55.440 90.523,55.440 C90.523,55.413 90.523,55.386 90.523,55.359 C90.631,55.359 90.738,55.359 90.846,55.359 C90.846,55.332 90.846,55.305 90.846,55.278 C91.007,55.278 91.169,55.278 91.330,55.278 C91.330,55.251 91.330,55.224 91.330,55.196 C91.536,54.959 91.411,54.058 91.411,53.657 C91.411,52.198 91.411,50.739 91.411,49.281 C91.411,43.582 91.411,37.881 91.411,32.183 C92.084,32.156 92.757,32.129 93.430,32.102 C94.174,32.308 95.368,32.183 96.256,32.183 ZM25.841,32.426 C25.841,32.453 25.841,32.480 25.841,32.507 C25.598,32.507 25.356,32.507 25.114,32.507 C25.001,32.527 25.142,32.553 25.033,32.588 C24.925,32.588 24.818,32.588 24.710,32.588 C24.710,32.615 24.710,32.642 24.710,32.669 C24.629,32.669 24.549,32.669 24.468,32.669 C24.468,32.696 24.468,32.723 24.468,32.750 C24.306,32.804 24.145,32.858 23.983,32.912 C23.983,32.939 23.983,32.966 23.983,32.993 C23.929,32.993 23.876,32.993 23.822,32.993 C23.768,33.074 23.714,33.155 23.660,33.236 C23.606,33.236 23.553,33.236 23.499,33.236 C23.418,33.344 23.337,33.452 23.257,33.560 C23.176,33.614 23.095,33.668 23.014,33.722 C23.014,33.776 23.014,33.830 23.014,33.884 C22.960,33.911 22.907,33.938 22.853,33.965 C22.853,34.019 22.853,34.073 22.853,34.127 C22.799,34.154 22.745,34.181 22.691,34.208 C22.637,34.371 22.584,34.533 22.530,34.695 C22.503,34.695 22.476,34.695 22.449,34.695 C22.449,34.749 22.449,34.803 22.449,34.857 C22.422,34.857 22.395,34.857 22.368,34.857 C22.368,34.938 22.368,35.019 22.368,35.100 C22.341,35.100 22.314,35.100 22.288,35.100 C22.288,35.181 22.288,35.262 22.288,35.343 C22.261,35.343 22.234,35.343 22.207,35.343 C22.207,35.451 22.207,35.559 22.207,35.667 C22.180,35.667 22.153,35.667 22.126,35.667 C22.126,35.775 22.126,35.883 22.126,35.991 C22.099,35.991 22.072,35.991 22.045,35.991 C22.045,36.207 22.045,36.423 22.045,36.640 C22.018,36.640 21.991,36.640 21.965,36.640 C21.861,37.014 21.972,38.002 22.045,38.260 C22.045,38.476 22.045,38.692 22.045,38.908 C22.072,38.908 22.099,38.908 22.126,38.908 C22.126,39.044 22.126,39.179 22.126,39.314 C22.153,39.314 22.180,39.314 22.207,39.314 C22.207,39.422 22.207,39.530 22.207,39.638 C22.395,40.043 22.584,40.448 22.772,40.853 C22.826,40.880 22.880,40.907 22.934,40.934 C22.934,40.988 22.934,41.042 22.934,41.096 C23.095,41.231 23.257,41.367 23.418,41.502 C23.499,41.610 23.580,41.718 23.660,41.826 C23.714,41.826 23.768,41.826 23.822,41.826 C23.849,41.880 23.876,41.934 23.903,41.988 C24.010,42.015 24.118,42.042 24.226,42.069 C24.226,42.096 24.226,42.123 24.226,42.150 C24.333,42.177 24.441,42.204 24.549,42.231 C24.549,42.258 24.549,42.285 24.549,42.312 C24.781,42.404 26.120,42.582 26.487,42.474 C26.487,42.447 26.487,42.420 26.487,42.393 C26.621,42.393 26.756,42.393 26.890,42.393 C26.890,42.366 26.890,42.339 26.890,42.312 C27.052,42.285 27.213,42.258 27.375,42.231 C27.375,42.204 27.375,42.177 27.375,42.150 C27.483,42.123 27.590,42.096 27.698,42.069 C27.698,42.042 27.698,42.015 27.698,41.988 C27.752,41.988 27.806,41.988 27.859,41.988 C27.886,41.934 27.913,41.880 27.940,41.826 C27.994,41.826 28.048,41.826 28.102,41.826 C28.182,41.718 28.263,41.610 28.344,41.502 C28.478,41.394 28.613,41.286 28.748,41.177 C29.840,39.627 30.125,36.746 29.232,34.776 C29.232,34.695 29.232,34.614 29.232,34.533 C29.178,34.506 29.125,34.479 29.071,34.452 C29.044,34.344 29.017,34.235 28.990,34.127 C28.936,34.100 28.882,34.073 28.828,34.046 C28.828,33.992 28.828,33.938 28.828,33.884 C28.721,33.803 28.613,33.722 28.505,33.641 C28.505,33.587 28.505,33.533 28.505,33.479 C28.425,33.452 28.344,33.425 28.263,33.398 C28.182,33.290 28.102,33.182 28.021,33.074 C27.967,33.074 27.913,33.074 27.859,33.074 C27.832,33.020 27.806,32.966 27.779,32.912 C27.725,32.912 27.671,32.912 27.617,32.912 C27.617,32.885 27.617,32.858 27.617,32.831 C27.509,32.804 27.402,32.777 27.294,32.750 C27.294,32.723 27.294,32.696 27.294,32.669 C27.213,32.669 27.133,32.669 27.052,32.669 C27.052,32.642 27.052,32.615 27.052,32.588 C26.707,32.465 26.172,32.544 25.841,32.426 ZM70.496,41.502 C70.706,41.561 70.758,41.628 70.900,41.745 C70.900,41.772 70.900,41.799 70.900,41.826 C70.954,41.826 71.008,41.826 71.062,41.826 C71.089,41.880 71.116,41.934 71.142,41.988 C71.196,41.988 71.250,41.988 71.304,41.988 C71.331,42.042 71.358,42.096 71.385,42.150 C71.465,42.150 71.546,42.150 71.627,42.150 C71.627,42.177 71.627,42.204 71.627,42.231 C71.681,42.231 71.735,42.231 71.788,42.231 C71.788,42.258 71.788,42.285 71.788,42.312 C71.896,42.312 72.004,42.312 72.111,42.312 C72.766,42.527 73.475,42.531 74.130,42.312 C74.238,42.312 74.346,42.312 74.453,42.312 C74.453,42.285 74.453,42.258 74.453,42.231 C74.615,42.177 74.776,42.123 74.938,42.069 C74.938,42.042 74.938,42.015 74.938,41.988 C74.992,41.988 75.045,41.988 75.099,41.988 C75.126,41.934 75.153,41.880 75.180,41.826 C75.234,41.826 75.288,41.826 75.342,41.826 C75.422,41.718 75.503,41.610 75.584,41.502 C75.718,41.394 75.853,41.286 75.988,41.177 C75.988,41.123 75.988,41.069 75.988,41.015 C76.068,40.961 76.149,40.907 76.230,40.853 C76.257,40.745 76.284,40.637 76.311,40.529 C76.337,40.529 76.364,40.529 76.391,40.529 C76.445,40.367 76.499,40.205 76.553,40.043 C76.580,40.043 76.607,40.043 76.634,40.043 C76.634,39.962 76.634,39.881 76.634,39.800 C77.144,38.509 77.147,36.469 76.634,35.181 C76.553,34.911 76.472,34.641 76.391,34.371 C76.364,34.371 76.337,34.371 76.311,34.371 C76.284,34.290 76.257,34.208 76.230,34.127 C76.176,34.100 76.122,34.073 76.068,34.046 C76.068,33.992 76.068,33.938 76.068,33.884 C75.988,33.830 75.907,33.776 75.826,33.722 C75.826,33.668 75.826,33.614 75.826,33.560 C75.745,33.506 75.665,33.452 75.584,33.398 C75.584,33.371 75.584,33.344 75.584,33.317 C75.530,33.317 75.476,33.317 75.422,33.317 C75.342,33.209 75.261,33.101 75.180,32.993 C75.126,32.993 75.072,32.993 75.019,32.993 C75.019,32.966 75.019,32.939 75.019,32.912 C74.857,32.858 74.695,32.804 74.534,32.750 C74.534,32.723 74.534,32.696 74.534,32.669 C74.453,32.669 74.372,32.669 74.292,32.669 C74.292,32.642 74.292,32.615 74.292,32.588 C74.184,32.588 74.076,32.588 73.969,32.588 C73.969,32.561 73.969,32.534 73.969,32.507 C73.646,32.480 73.323,32.453 73.000,32.426 C73.000,32.453 73.000,32.480 73.000,32.507 C72.757,32.507 72.515,32.507 72.273,32.507 C72.273,32.534 72.273,32.561 72.273,32.588 C72.165,32.588 72.058,32.588 71.950,32.588 C71.950,32.615 71.950,32.642 71.950,32.669 C71.869,32.669 71.788,32.669 71.708,32.669 C71.708,32.696 71.708,32.723 71.708,32.750 C71.654,32.750 71.600,32.750 71.546,32.750 C71.546,32.777 71.546,32.804 71.546,32.831 C71.385,32.885 71.223,32.939 71.062,32.993 C71.035,33.047 71.008,33.101 70.981,33.155 C70.927,33.155 70.873,33.155 70.819,33.155 C70.766,33.236 70.712,33.317 70.658,33.398 C70.523,33.506 70.389,33.614 70.254,33.722 C70.254,33.776 70.254,33.830 70.254,33.884 C70.200,33.911 70.146,33.938 70.093,33.965 C70.066,34.046 70.039,34.127 70.012,34.208 C69.985,34.208 69.958,34.208 69.931,34.208 C69.931,34.262 69.931,34.317 69.931,34.371 C69.904,34.371 69.877,34.371 69.850,34.371 C69.797,34.533 69.743,34.695 69.689,34.857 C69.662,34.857 69.635,34.857 69.608,34.857 C69.554,35.100 69.500,35.343 69.447,35.586 C69.420,35.586 69.393,35.586 69.366,35.586 C69.366,35.721 69.366,35.856 69.366,35.991 C69.339,35.991 69.312,35.991 69.285,35.991 C69.258,36.774 69.231,37.558 69.204,38.341 C69.312,38.854 69.420,39.368 69.527,39.881 C69.554,39.881 69.581,39.881 69.608,39.881 C69.608,39.935 69.608,39.989 69.608,40.043 C69.635,40.043 69.662,40.043 69.689,40.043 C69.689,40.124 69.689,40.205 69.689,40.286 C69.716,40.286 69.743,40.286 69.770,40.286 C69.770,40.340 69.770,40.394 69.770,40.448 C69.797,40.448 69.823,40.448 69.850,40.448 C69.850,40.502 69.850,40.556 69.850,40.610 C69.904,40.637 69.958,40.664 70.012,40.691 C70.012,40.745 70.012,40.799 70.012,40.853 C70.066,40.880 70.120,40.907 70.173,40.934 C70.173,40.988 70.173,41.042 70.173,41.096 C70.200,41.096 70.227,41.096 70.254,41.096 C70.370,41.239 70.438,41.292 70.496,41.502 ZM48.128,32.831 C48.128,34.073 48.128,35.316 48.128,36.558 C49.416,36.575 51.045,36.712 52.085,36.396 C52.300,36.369 52.516,36.342 52.731,36.315 C52.731,36.288 52.731,36.261 52.731,36.234 C52.892,36.180 53.054,36.126 53.216,36.072 C53.296,35.964 53.377,35.856 53.458,35.748 C53.512,35.721 53.565,35.694 53.619,35.667 C53.713,35.531 53.621,35.484 53.781,35.343 C53.808,35.019 53.835,34.695 53.862,34.371 C53.835,34.371 53.808,34.371 53.781,34.371 C53.754,34.181 53.727,33.992 53.700,33.803 C53.518,33.684 53.467,33.433 53.296,33.317 C53.242,33.317 53.189,33.317 53.135,33.317 C53.135,33.290 53.135,33.263 53.135,33.236 C52.973,33.182 52.812,33.128 52.650,33.074 C52.650,33.047 52.650,33.020 52.650,32.993 C52.543,32.993 52.435,32.993 52.327,32.993 C51.259,32.642 49.466,32.832 48.128,32.831 ZM48.128,37.936 C48.128,39.422 48.128,40.908 48.128,42.393 C50.143,42.424 53.237,42.679 54.023,41.502 C54.200,41.236 54.517,40.202 54.346,39.638 C54.319,39.638 54.292,39.638 54.265,39.638 C54.238,39.449 54.211,39.260 54.185,39.071 C53.941,38.911 54.148,38.996 54.023,38.827 C53.969,38.800 53.915,38.773 53.862,38.746 C53.781,38.638 53.700,38.530 53.619,38.422 C53.565,38.422 53.512,38.422 53.458,38.422 C53.431,38.368 53.404,38.314 53.377,38.260 C53.323,38.260 53.269,38.260 53.216,38.260 C53.216,38.233 53.216,38.206 53.216,38.179 C52.213,37.723 49.579,37.936 48.128,37.936 ZM-0.000,55.115 C0.942,55.115 1.884,55.115 2.826,55.115 C4.011,58.492 5.195,61.869 6.379,65.245 C6.406,65.245 6.433,65.245 6.460,65.245 C6.541,64.948 6.622,64.651 6.702,64.353 C6.729,64.353 6.756,64.353 6.783,64.353 C6.810,64.191 6.837,64.029 6.864,63.867 C6.891,63.867 6.918,63.867 6.945,63.867 C6.945,63.786 6.945,63.705 6.945,63.624 C6.972,63.624 6.999,63.624 7.025,63.624 C7.025,63.543 7.025,63.462 7.025,63.381 C7.052,63.381 7.079,63.381 7.106,63.381 C7.106,63.300 7.106,63.219 7.106,63.138 C7.133,63.138 7.160,63.138 7.187,63.138 C7.187,63.084 7.187,63.030 7.187,62.976 C7.214,62.976 7.241,62.976 7.268,62.976 C7.322,62.733 7.375,62.490 7.429,62.247 C7.456,62.247 7.483,62.247 7.510,62.247 C7.537,62.084 7.564,61.922 7.591,61.760 C7.618,61.760 7.645,61.760 7.671,61.760 C7.671,61.679 7.671,61.598 7.671,61.517 C7.698,61.517 7.725,61.517 7.752,61.517 C7.752,61.463 7.752,61.409 7.752,61.355 C7.779,61.355 7.806,61.355 7.833,61.355 C7.860,61.193 7.887,61.031 7.914,60.869 C7.941,60.869 7.968,60.869 7.994,60.869 C8.048,60.626 8.102,60.383 8.156,60.140 C8.183,60.140 8.210,60.140 8.237,60.140 C8.237,60.086 8.237,60.032 8.237,59.978 C8.264,59.978 8.291,59.978 8.317,59.978 C8.317,59.897 8.317,59.815 8.317,59.734 C8.344,59.734 8.371,59.734 8.398,59.734 C8.398,59.653 8.398,59.572 8.398,59.491 C8.425,59.491 8.452,59.491 8.479,59.491 C8.479,59.410 8.479,59.329 8.479,59.248 C8.506,59.248 8.533,59.248 8.560,59.248 C8.560,59.167 8.560,59.086 8.560,59.005 C8.587,59.005 8.614,59.005 8.640,59.005 C8.640,58.924 8.640,58.843 8.640,58.762 C8.667,58.762 8.694,58.762 8.721,58.762 C8.721,58.708 8.721,58.654 8.721,58.600 C8.748,58.600 8.775,58.600 8.802,58.600 C8.802,58.519 8.802,58.438 8.802,58.357 C8.829,58.357 8.856,58.357 8.883,58.357 C8.883,58.276 8.883,58.195 8.883,58.114 C8.910,58.114 8.937,58.114 8.963,58.114 C8.963,58.033 8.963,57.952 8.963,57.871 C8.990,57.871 9.017,57.871 9.044,57.871 C9.044,57.790 9.044,57.709 9.044,57.628 C9.071,57.628 9.098,57.628 9.125,57.628 C9.152,57.465 9.179,57.303 9.206,57.141 C9.233,57.141 9.260,57.141 9.286,57.141 C9.286,57.087 9.286,57.033 9.286,56.979 C9.313,56.979 9.340,56.979 9.367,56.979 C9.421,56.736 9.475,56.493 9.529,56.250 C9.671,55.890 9.880,55.572 9.932,55.115 C10.874,55.115 11.817,55.115 12.759,55.115 C12.872,55.427 12.840,55.976 12.840,56.412 C12.840,57.249 12.840,58.087 12.840,58.924 C12.840,61.814 12.840,64.705 12.840,67.595 C12.194,67.595 11.547,67.595 10.902,67.595 C10.902,65.029 10.902,62.462 10.902,59.897 C10.902,59.248 10.902,58.600 10.902,57.952 C10.901,57.693 10.941,57.361 10.821,57.222 C10.796,57.610 10.615,57.906 10.498,58.195 C10.498,58.276 10.498,58.357 10.498,58.438 C10.471,58.438 10.444,58.438 10.417,58.438 C10.417,58.492 10.417,58.546 10.417,58.600 C10.390,58.600 10.363,58.600 10.336,58.600 C10.309,58.762 10.282,58.924 10.255,59.086 C10.229,59.086 10.202,59.086 10.175,59.086 C10.175,59.167 10.175,59.248 10.175,59.329 C10.148,59.329 10.121,59.329 10.094,59.329 C10.094,59.410 10.094,59.491 10.094,59.572 C10.067,59.572 10.040,59.572 10.013,59.572 C10.013,59.653 10.013,59.734 10.013,59.815 C9.986,59.815 9.959,59.815 9.932,59.815 C9.932,59.897 9.932,59.978 9.932,60.059 C9.906,60.059 9.879,60.059 9.852,60.059 C9.852,60.113 9.852,60.167 9.852,60.221 C9.825,60.221 9.798,60.221 9.771,60.221 C9.771,60.302 9.771,60.383 9.771,60.464 C9.744,60.464 9.717,60.464 9.690,60.464 C9.690,60.545 9.690,60.626 9.690,60.707 C9.663,60.707 9.636,60.707 9.609,60.707 C9.609,60.788 9.609,60.869 9.609,60.950 C9.583,60.950 9.556,60.950 9.529,60.950 C9.529,61.031 9.529,61.112 9.529,61.193 C9.502,61.193 9.475,61.193 9.448,61.193 C9.448,61.274 9.448,61.355 9.448,61.436 C9.421,61.436 9.394,61.436 9.367,61.436 C9.367,61.490 9.367,61.544 9.367,61.598 C9.340,61.598 9.313,61.598 9.286,61.598 C9.233,61.841 9.179,62.084 9.125,62.328 C9.098,62.328 9.071,62.328 9.044,62.328 C8.990,62.571 8.937,62.814 8.883,63.057 C8.856,63.057 8.829,63.057 8.802,63.057 C8.802,63.111 8.802,63.165 8.802,63.219 C8.775,63.219 8.748,63.219 8.721,63.219 C8.721,63.300 8.721,63.381 8.721,63.462 C8.694,63.462 8.667,63.462 8.640,63.462 C8.640,63.543 8.640,63.624 8.640,63.705 C8.614,63.705 8.587,63.705 8.560,63.705 C8.560,63.786 8.560,63.867 8.560,63.948 C8.533,63.948 8.506,63.948 8.479,63.948 C8.479,64.029 8.479,64.110 8.479,64.191 C8.452,64.191 8.425,64.191 8.398,64.191 C8.398,64.272 8.398,64.353 8.398,64.434 C8.371,64.434 8.344,64.434 8.317,64.434 C8.317,64.488 8.317,64.543 8.317,64.597 C8.291,64.597 8.264,64.597 8.237,64.597 C8.183,64.840 8.129,65.083 8.075,65.326 C8.048,65.326 8.021,65.326 7.994,65.326 C7.941,65.569 7.887,65.812 7.833,66.055 C7.806,66.055 7.779,66.055 7.752,66.055 C7.752,66.109 7.752,66.163 7.752,66.217 C7.725,66.217 7.698,66.217 7.671,66.217 C7.671,66.298 7.671,66.379 7.671,66.460 C7.645,66.460 7.618,66.460 7.591,66.460 C7.591,66.541 7.591,66.622 7.591,66.703 C7.564,66.703 7.537,66.703 7.510,66.703 C7.483,66.865 7.456,67.028 7.429,67.190 C7.402,67.190 7.375,67.190 7.348,67.190 C7.162,67.358 5.806,67.278 5.410,67.271 C5.330,66.974 5.249,66.676 5.168,66.379 C5.141,66.379 5.114,66.379 5.087,66.379 C5.060,66.217 5.034,66.055 5.007,65.893 C4.980,65.893 4.953,65.893 4.926,65.893 C4.926,65.812 4.926,65.731 4.926,65.650 C4.899,65.650 4.872,65.650 4.845,65.650 C4.845,65.569 4.845,65.488 4.845,65.407 C4.818,65.407 4.791,65.407 4.764,65.407 C4.764,65.326 4.764,65.245 4.764,65.164 C4.737,65.164 4.711,65.164 4.684,65.164 C4.684,65.083 4.684,65.002 4.684,64.921 C4.657,64.921 4.630,64.921 4.603,64.921 C4.603,64.867 4.603,64.813 4.603,64.759 C4.576,64.759 4.549,64.759 4.522,64.759 C4.468,64.516 4.414,64.272 4.361,64.029 C4.334,64.029 4.307,64.029 4.280,64.029 C4.253,63.867 4.226,63.705 4.199,63.543 C4.172,63.543 4.145,63.543 4.118,63.543 C4.118,63.489 4.118,63.435 4.118,63.381 C4.091,63.381 4.065,63.381 4.038,63.381 C4.038,63.300 4.038,63.219 4.038,63.138 C4.011,63.138 3.984,63.138 3.957,63.138 C3.957,63.057 3.957,62.976 3.957,62.895 C3.930,62.895 3.903,62.895 3.876,62.895 C3.876,62.814 3.876,62.733 3.876,62.652 C3.849,62.652 3.822,62.652 3.795,62.652 C3.742,62.409 3.688,62.165 3.634,61.922 C3.607,61.922 3.580,61.922 3.553,61.922 C3.553,61.868 3.553,61.814 3.553,61.760 C3.526,61.760 3.499,61.760 3.472,61.760 C3.472,61.679 3.472,61.598 3.472,61.517 C3.445,61.517 3.418,61.517 3.392,61.517 C3.392,61.436 3.392,61.355 3.392,61.274 C3.365,61.274 3.338,61.274 3.311,61.274 C3.311,61.193 3.311,61.112 3.311,61.031 C3.284,61.031 3.257,61.031 3.230,61.031 C3.230,60.950 3.230,60.869 3.230,60.788 C3.203,60.788 3.176,60.788 3.149,60.788 C3.149,60.707 3.149,60.626 3.149,60.545 C3.122,60.545 3.095,60.545 3.069,60.545 C3.069,60.491 3.069,60.437 3.069,60.383 C3.042,60.383 3.015,60.383 2.988,60.383 C2.988,60.302 2.988,60.221 2.988,60.140 C2.961,60.140 2.934,60.140 2.907,60.140 C2.907,60.059 2.907,59.978 2.907,59.897 C2.880,59.897 2.853,59.897 2.826,59.897 C2.826,59.815 2.826,59.734 2.826,59.653 C2.799,59.653 2.772,59.653 2.746,59.653 C2.746,59.572 2.746,59.491 2.746,59.410 C2.719,59.410 2.692,59.410 2.665,59.410 C2.638,59.248 2.611,59.086 2.584,58.924 C2.357,58.401 2.068,57.761 1.938,57.141 C1.911,57.141 1.884,57.141 1.857,57.141 C1.857,60.625 1.857,64.111 1.857,67.595 C1.238,67.595 0.619,67.595 -0.000,67.595 C-0.000,63.435 -0.000,59.275 -0.000,55.115 ZM53.942,56.331 C53.942,56.925 53.942,57.520 53.942,58.114 C53.915,58.114 53.888,58.114 53.862,58.114 C53.774,58.005 53.640,57.965 53.539,57.871 C53.512,57.817 53.485,57.763 53.458,57.709 C53.404,57.709 53.350,57.709 53.296,57.709 C53.242,57.628 53.189,57.546 53.135,57.465 C53.081,57.465 53.027,57.465 52.973,57.465 C52.946,57.411 52.919,57.357 52.892,57.303 C52.785,57.276 52.677,57.249 52.569,57.222 C52.569,57.195 52.569,57.168 52.569,57.141 C52.462,57.114 52.354,57.087 52.246,57.060 C52.246,57.033 52.246,57.006 52.246,56.979 C52.112,56.952 51.977,56.925 51.843,56.898 C51.843,56.871 51.843,56.844 51.843,56.817 C51.627,56.790 51.412,56.763 51.197,56.736 C51.197,56.709 51.197,56.682 51.197,56.655 C51.035,56.655 50.874,56.655 50.712,56.655 C50.712,56.628 50.712,56.601 50.712,56.574 C50.308,56.574 49.905,56.574 49.501,56.574 C49.501,56.601 49.501,56.628 49.501,56.655 C49.313,56.655 49.124,56.655 48.936,56.655 C48.936,56.682 48.936,56.709 48.936,56.736 C48.828,56.736 48.720,56.736 48.613,56.736 C48.613,56.763 48.613,56.790 48.613,56.817 C48.532,56.817 48.451,56.817 48.370,56.817 C48.370,56.844 48.370,56.871 48.370,56.898 C48.290,56.898 48.209,56.898 48.128,56.898 C48.128,56.925 48.128,56.952 48.128,56.979 C48.074,56.979 48.020,56.979 47.967,56.979 C47.967,57.006 47.967,57.033 47.967,57.060 C47.913,57.060 47.859,57.060 47.805,57.060 C47.778,57.114 47.751,57.168 47.724,57.222 C47.671,57.222 47.617,57.222 47.563,57.222 C47.536,57.276 47.509,57.330 47.482,57.384 C47.428,57.384 47.374,57.384 47.321,57.384 C47.267,57.465 47.213,57.547 47.159,57.628 C47.025,57.736 46.890,57.844 46.755,57.952 C46.755,58.006 46.755,58.060 46.755,58.114 C46.702,58.141 46.648,58.168 46.594,58.195 C46.594,58.249 46.594,58.303 46.594,58.357 C46.540,58.384 46.486,58.411 46.432,58.438 C46.405,58.546 46.379,58.654 46.352,58.762 C46.325,58.762 46.298,58.762 46.271,58.762 C46.271,58.816 46.271,58.870 46.271,58.924 C46.244,58.924 46.217,58.924 46.190,58.924 C46.163,59.086 46.136,59.248 46.109,59.410 C46.082,59.410 46.055,59.410 46.029,59.410 C46.029,59.518 46.029,59.626 46.029,59.734 C46.002,59.734 45.975,59.734 45.948,59.734 C45.948,59.842 45.948,59.951 45.948,60.059 C45.921,60.059 45.894,60.059 45.867,60.059 C45.867,60.275 45.867,60.491 45.867,60.707 C45.840,60.707 45.813,60.707 45.786,60.707 C45.676,61.103 45.787,62.209 45.867,62.490 C45.867,62.679 45.867,62.868 45.867,63.057 C46.567,65.411 47.392,66.561 50.470,66.541 C50.874,66.487 51.277,66.433 51.681,66.379 C51.681,66.352 51.681,66.325 51.681,66.298 C51.843,66.271 52.004,66.244 52.166,66.217 C52.166,66.190 52.166,66.163 52.166,66.136 C52.327,66.082 52.489,66.028 52.650,65.974 C52.650,65.947 52.650,65.920 52.650,65.893 C52.704,65.893 52.758,65.893 52.812,65.893 C52.839,65.839 52.866,65.785 52.892,65.731 C52.946,65.731 53.000,65.731 53.054,65.731 C53.081,65.677 53.108,65.623 53.135,65.569 C53.189,65.569 53.242,65.569 53.296,65.569 C53.323,65.515 53.350,65.461 53.377,65.407 C53.458,65.380 53.539,65.353 53.619,65.326 C53.619,65.299 53.619,65.272 53.619,65.245 C53.739,65.149 53.763,65.133 53.942,65.083 C53.942,65.650 53.942,66.217 53.942,66.784 C53.862,66.811 53.781,66.839 53.700,66.866 C53.673,66.920 53.646,66.974 53.619,67.028 C53.565,67.028 53.512,67.028 53.458,67.028 C53.458,67.055 53.458,67.082 53.458,67.109 C53.404,67.109 53.350,67.109 53.296,67.109 C53.296,67.136 53.296,67.163 53.296,67.190 C53.242,67.190 53.189,67.190 53.135,67.190 C53.135,67.217 53.135,67.244 53.135,67.271 C53.081,67.271 53.027,67.271 52.973,67.271 C52.973,67.298 52.973,67.325 52.973,67.352 C52.866,67.379 52.758,67.406 52.650,67.433 C52.650,67.460 52.650,67.487 52.650,67.514 C52.569,67.514 52.489,67.514 52.408,67.514 C52.408,67.541 52.408,67.568 52.408,67.595 C52.327,67.595 52.246,67.595 52.166,67.595 C52.166,67.622 52.166,67.649 52.166,67.676 C52.085,67.676 52.004,67.676 51.923,67.676 C51.923,67.703 51.923,67.730 51.923,67.757 C51.816,67.757 51.708,67.757 51.600,67.757 C51.600,67.784 51.600,67.811 51.600,67.838 C51.466,67.838 51.331,67.838 51.197,67.838 C51.197,67.865 51.197,67.892 51.197,67.919 C50.981,67.919 50.766,67.919 50.551,67.919 C50.551,67.946 50.551,67.973 50.551,68.000 C50.174,68.000 49.797,68.000 49.420,68.000 C49.420,67.973 49.420,67.946 49.420,67.919 C49.043,67.892 48.666,67.865 48.290,67.838 C46.035,67.114 44.910,65.864 44.171,63.624 C44.171,63.489 44.171,63.354 44.171,63.219 C44.049,62.806 44.010,62.331 44.010,61.760 C44.009,59.256 44.663,57.536 46.109,56.493 C46.190,56.385 46.271,56.277 46.352,56.169 C46.405,56.169 46.459,56.169 46.513,56.169 C46.540,56.115 46.567,56.061 46.594,56.007 C46.702,55.980 46.809,55.953 46.917,55.926 C46.917,55.899 46.917,55.872 46.917,55.845 C47.078,55.791 47.240,55.737 47.401,55.683 C47.401,55.656 47.401,55.629 47.401,55.602 C47.482,55.602 47.563,55.602 47.644,55.602 C47.644,55.575 47.644,55.548 47.644,55.521 C47.724,55.521 47.805,55.521 47.886,55.521 C48.601,55.241 49.196,55.196 50.228,55.196 C50.470,55.196 50.712,55.196 50.954,55.196 C50.954,55.224 50.954,55.251 50.954,55.278 C51.116,55.278 51.277,55.278 51.439,55.278 C51.439,55.305 51.439,55.332 51.439,55.359 C51.547,55.359 51.654,55.359 51.762,55.359 C51.762,55.386 51.762,55.413 51.762,55.440 C51.870,55.440 51.977,55.440 52.085,55.440 C52.085,55.467 52.085,55.494 52.085,55.521 C52.166,55.521 52.246,55.521 52.327,55.521 C52.327,55.548 52.327,55.575 52.327,55.602 C52.408,55.602 52.489,55.602 52.569,55.602 C52.569,55.629 52.569,55.656 52.569,55.683 C52.623,55.683 52.677,55.683 52.731,55.683 C52.731,55.710 52.731,55.737 52.731,55.764 C52.812,55.764 52.893,55.764 52.973,55.764 C52.973,55.791 52.973,55.818 52.973,55.845 C53.135,55.899 53.296,55.953 53.458,56.007 C53.485,56.061 53.512,56.115 53.539,56.169 C53.592,56.169 53.646,56.169 53.700,56.169 C53.700,56.196 53.700,56.223 53.700,56.250 C53.781,56.277 53.862,56.304 53.942,56.331 ZM65.813,55.440 C69.285,55.440 72.758,55.440 76.230,55.440 C76.230,55.899 76.230,56.358 76.230,56.817 C74.776,56.817 73.323,56.817 71.869,56.817 C71.869,60.463 71.869,64.111 71.869,67.757 C71.304,67.757 70.739,67.757 70.173,67.757 C70.173,64.111 70.173,60.463 70.173,56.817 C68.720,56.817 67.266,56.817 65.813,56.817 C65.813,56.358 65.813,55.899 65.813,55.440 ZM91.653,56.574 C91.653,56.601 91.653,56.628 91.653,56.655 C91.519,56.655 91.384,56.655 91.250,56.655 C91.250,56.682 91.250,56.709 91.250,56.736 C91.088,56.763 90.927,56.790 90.765,56.817 C90.765,56.844 90.765,56.871 90.765,56.898 C90.657,56.925 90.550,56.952 90.442,56.979 C90.442,57.006 90.442,57.033 90.442,57.060 C90.388,57.060 90.334,57.060 90.281,57.060 C89.512,57.570 88.918,58.617 88.585,59.572 C88.585,59.680 88.585,59.788 88.585,59.897 C88.444,60.340 88.423,60.813 88.423,61.436 C88.423,63.724 88.921,65.056 90.281,65.974 C90.308,66.028 90.334,66.082 90.361,66.136 C90.415,66.136 90.469,66.136 90.523,66.136 C90.523,66.163 90.523,66.190 90.523,66.217 C90.577,66.217 90.631,66.217 90.684,66.217 C90.684,66.244 90.684,66.271 90.684,66.298 C90.765,66.298 90.846,66.298 90.927,66.298 C90.927,66.325 90.927,66.352 90.927,66.379 C91.007,66.379 91.088,66.379 91.169,66.379 C91.169,66.406 91.169,66.433 91.169,66.460 C91.372,66.532 92.810,66.632 93.107,66.541 C93.107,66.514 93.107,66.487 93.107,66.460 C93.215,66.460 93.322,66.460 93.430,66.460 C93.430,66.433 93.430,66.406 93.430,66.379 C93.591,66.352 93.753,66.325 93.914,66.298 C93.914,66.271 93.914,66.244 93.914,66.217 C93.968,66.217 94.022,66.217 94.076,66.217 C94.103,66.163 94.130,66.109 94.157,66.055 C94.211,66.055 94.264,66.055 94.318,66.055 C94.345,66.001 94.372,65.947 94.399,65.893 C94.453,65.893 94.507,65.893 94.560,65.893 C94.668,65.758 94.776,65.623 94.883,65.488 C94.964,65.434 95.045,65.380 95.126,65.326 C95.126,65.272 95.126,65.218 95.126,65.164 C95.206,65.110 95.287,65.056 95.368,65.002 C95.368,64.948 95.368,64.894 95.368,64.840 C95.395,64.840 95.422,64.840 95.449,64.840 C95.449,64.786 95.449,64.732 95.449,64.678 C95.476,64.678 95.503,64.678 95.529,64.678 C95.529,64.624 95.529,64.570 95.529,64.516 C95.556,64.516 95.583,64.516 95.610,64.516 C95.610,64.461 95.610,64.407 95.610,64.353 C95.637,64.353 95.664,64.353 95.691,64.353 C95.691,64.299 95.691,64.245 95.691,64.191 C95.718,64.191 95.745,64.191 95.772,64.191 C95.772,64.110 95.772,64.029 95.772,63.948 C95.799,63.948 95.826,63.948 95.853,63.948 C95.853,63.894 95.853,63.840 95.853,63.786 C95.879,63.786 95.906,63.786 95.933,63.786 C95.933,63.678 95.933,63.570 95.933,63.462 C95.960,63.462 95.987,63.462 96.014,63.462 C96.014,63.327 96.014,63.192 96.014,63.057 C96.041,63.057 96.068,63.057 96.095,63.057 C96.095,62.868 96.095,62.679 96.095,62.490 C96.122,62.490 96.149,62.490 96.176,62.490 C96.289,62.083 96.178,60.917 96.095,60.626 C96.095,60.437 96.095,60.248 96.095,60.059 C96.068,60.059 96.041,60.059 96.014,60.059 C96.014,59.951 96.014,59.842 96.014,59.734 C95.987,59.734 95.960,59.734 95.933,59.734 C95.933,59.626 95.933,59.518 95.933,59.410 C95.906,59.410 95.879,59.410 95.853,59.410 C95.853,59.329 95.853,59.248 95.853,59.167 C95.826,59.167 95.799,59.167 95.772,59.167 C95.772,59.086 95.772,59.005 95.772,58.924 C95.745,58.924 95.718,58.924 95.691,58.924 C95.664,58.816 95.637,58.708 95.610,58.600 C95.583,58.600 95.556,58.600 95.529,58.600 C95.503,58.492 95.476,58.384 95.449,58.276 C95.395,58.249 95.341,58.222 95.287,58.195 C95.287,58.141 95.287,58.087 95.287,58.033 C95.180,57.952 95.072,57.871 94.964,57.790 C94.270,56.833 93.321,56.556 91.653,56.574 Z"/>
<path fill-rule="evenodd"  fill="rgb(0, 196, 196)"
 d="M116.000,-0.000 L332.000,-0.000 L324.000,63.000 L124.130,68.000 L116.000,-0.000 Z"/>
<text font-family="Open Sans , sans-serif" fill="rgb(255, 255, 255)" font-size="16px" x="137px" y="43px">&#1048;&#1085;&#1078;&#1077;&#1085;&#1077;&#1088;&#1085;&#1099;&#1077;&#32;&#1089;&#1080;&#1089;&#1090;&#1077;&#1084;&#1099;</text>
</svg>
