<svg 
 xmlns="http://www.w3.org/2000/svg"
 xmlns:xlink="http://www.w3.org/1999/xlink"
 width="105px" height="46px">
<path fill-rule="evenodd"  fill="rgb(149, 181, 12)"
 d="M-0.000,42.000 L105.000,42.000 L105.000,46.000 L-0.000,46.000 L-0.000,42.000 Z"/>
<path fill-rule="evenodd"  fill="rgb(35, 35, 35)"
 d="M32.185,25.400 C32.185,26.005 32.185,26.610 32.185,27.215 C31.176,27.215 30.167,27.215 29.157,27.215 C29.157,28.109 29.157,29.004 29.157,29.898 C30.167,29.898 31.176,29.898 32.185,29.898 C32.185,30.503 32.185,31.108 32.185,31.713 C31.176,31.713 30.167,31.713 29.157,31.713 C29.157,32.739 29.157,33.765 29.157,34.790 C29.532,34.916 30.203,34.869 30.715,34.869 C31.724,34.869 32.733,34.869 33.743,34.869 C33.743,35.448 33.743,36.027 33.743,36.605 C33.217,36.781 32.255,36.684 31.580,36.684 C30.051,36.684 28.523,36.684 26.994,36.684 C26.994,28.952 26.994,21.217 26.994,13.484 C26.112,13.462 24.888,13.032 24.312,12.695 C24.283,12.643 24.254,12.590 24.226,12.537 C24.168,12.537 24.110,12.537 24.053,12.537 C24.053,12.511 24.053,12.485 24.053,12.459 C23.852,12.307 23.732,12.139 23.447,12.064 C23.447,12.011 23.447,11.959 23.447,11.906 C22.959,11.651 22.767,11.183 22.495,10.723 C22.466,10.723 22.437,10.723 22.409,10.723 C22.351,10.565 22.293,10.407 22.236,10.249 C22.207,10.249 22.178,10.249 22.149,10.249 C22.149,10.170 22.149,10.091 22.149,10.012 C22.120,10.012 22.091,10.012 22.063,10.012 C22.063,9.960 22.063,9.907 22.063,9.854 C22.034,9.854 22.005,9.854 21.976,9.854 C21.976,9.749 21.976,9.644 21.976,9.539 C21.947,9.539 21.918,9.539 21.890,9.539 C21.890,9.460 21.890,9.381 21.890,9.302 C21.861,9.302 21.832,9.302 21.803,9.302 C21.803,9.171 21.803,9.039 21.803,8.908 C21.607,8.309 21.500,6.913 21.716,6.225 C21.716,6.040 21.716,5.856 21.716,5.672 C21.980,4.861 22.216,4.028 22.668,3.384 C22.726,3.357 22.784,3.331 22.841,3.305 C22.841,3.252 22.841,3.200 22.841,3.147 C22.928,3.094 23.014,3.042 23.101,2.989 C23.101,2.937 23.101,2.884 23.101,2.831 C23.303,2.674 23.505,2.516 23.706,2.358 C23.735,2.305 23.764,2.253 23.793,2.200 C23.851,2.200 23.908,2.200 23.966,2.200 C24.024,2.121 24.081,2.042 24.139,1.963 C24.197,1.963 24.254,1.963 24.312,1.963 C24.341,1.911 24.370,1.858 24.399,1.806 C24.456,1.806 24.514,1.806 24.572,1.806 C24.600,1.753 24.629,1.700 24.658,1.648 C24.716,1.648 24.774,1.648 24.831,1.648 C24.831,1.621 24.831,1.595 24.831,1.569 C24.889,1.569 24.947,1.569 25.004,1.569 C25.004,1.543 25.004,1.516 25.004,1.490 C25.091,1.490 25.177,1.490 25.264,1.490 C25.264,1.464 25.264,1.437 25.264,1.411 C25.321,1.411 25.379,1.411 25.437,1.411 C25.437,1.385 25.437,1.358 25.437,1.332 C25.639,1.306 25.841,1.279 26.042,1.253 C26.042,1.227 26.042,1.201 26.042,1.174 C26.158,1.174 26.273,1.174 26.389,1.174 C26.389,1.148 26.389,1.122 26.389,1.095 C26.619,1.095 26.850,1.095 27.081,1.095 C27.081,1.069 27.081,1.043 27.081,1.016 C27.617,0.880 28.633,1.077 28.984,1.174 C29.128,1.174 29.273,1.174 29.417,1.174 C31.419,1.760 32.607,2.877 33.397,4.567 C33.454,4.857 33.512,5.146 33.570,5.435 C33.599,5.435 33.627,5.435 33.656,5.435 C33.656,5.567 33.656,5.699 33.656,5.830 C33.904,6.589 33.908,7.985 33.656,8.750 C33.656,8.881 33.656,9.013 33.656,9.144 C33.454,9.670 33.252,10.196 33.051,10.723 C32.993,10.749 32.935,10.775 32.878,10.801 C32.849,10.907 32.820,11.012 32.791,11.117 C32.733,11.143 32.676,11.170 32.618,11.196 C32.618,11.249 32.618,11.301 32.618,11.354 C32.531,11.406 32.445,11.459 32.358,11.512 C32.358,11.564 32.358,11.617 32.358,11.669 C32.128,11.854 31.897,12.038 31.666,12.222 C31.609,12.301 31.551,12.380 31.493,12.459 C31.436,12.459 31.378,12.459 31.320,12.459 C31.291,12.511 31.263,12.564 31.234,12.616 C31.176,12.616 31.118,12.616 31.061,12.616 C31.032,12.669 31.003,12.722 30.974,12.774 C30.859,12.801 30.743,12.827 30.628,12.853 C30.628,12.879 30.628,12.906 30.628,12.932 C30.455,12.985 30.282,13.037 30.109,13.090 C30.109,13.116 30.109,13.142 30.109,13.169 C30.022,13.169 29.936,13.169 29.849,13.169 C29.849,13.195 29.849,13.221 29.849,13.248 C29.648,13.274 29.446,13.300 29.244,13.327 C29.244,13.353 29.244,13.379 29.244,13.406 C29.097,13.559 29.157,13.994 29.157,14.274 C29.157,15.010 29.157,15.747 29.157,16.483 C29.157,19.429 29.157,22.375 29.157,25.321 C29.818,25.543 31.335,25.404 32.185,25.400 ZM77.781,1.016 C80.429,0.987 81.980,1.755 83.059,3.147 C83.146,3.200 83.232,3.252 83.319,3.305 C83.347,3.410 83.376,3.515 83.405,3.620 C83.463,3.647 83.521,3.673 83.578,3.699 C83.578,3.752 83.578,3.805 83.578,3.857 C83.607,3.857 83.636,3.857 83.665,3.857 C83.694,3.962 83.722,4.068 83.751,4.173 C83.780,4.173 83.809,4.173 83.838,4.173 C83.838,4.252 83.838,4.331 83.838,4.410 C83.867,4.410 83.895,4.410 83.924,4.410 C83.924,4.462 83.924,4.515 83.924,4.567 C83.953,4.567 83.982,4.567 84.011,4.567 C84.011,4.646 84.011,4.725 84.011,4.804 C84.040,4.804 84.068,4.804 84.097,4.804 C84.097,4.909 84.097,5.015 84.097,5.120 C84.126,5.120 84.155,5.120 84.184,5.120 C84.213,5.357 84.242,5.593 84.270,5.830 C84.299,5.830 84.328,5.830 84.357,5.830 C84.357,6.067 84.357,6.304 84.357,6.540 C84.429,6.779 84.553,7.688 84.443,8.040 C84.415,8.040 84.386,8.040 84.357,8.040 C84.357,8.250 84.357,8.460 84.357,8.671 C84.328,8.671 84.299,8.671 84.270,8.671 C84.270,8.829 84.270,8.986 84.270,9.144 C84.242,9.144 84.213,9.144 84.184,9.144 C84.184,9.249 84.184,9.355 84.184,9.460 C84.155,9.460 84.126,9.460 84.097,9.460 C84.097,9.539 84.097,9.618 84.097,9.697 C84.068,9.697 84.040,9.697 84.011,9.697 C84.011,9.776 84.011,9.855 84.011,9.933 C83.982,9.933 83.953,9.933 83.924,9.933 C83.924,10.012 83.924,10.091 83.924,10.170 C83.895,10.170 83.867,10.170 83.838,10.170 C83.809,10.275 83.780,10.381 83.751,10.486 C83.722,10.486 83.694,10.486 83.665,10.486 C83.665,10.538 83.665,10.591 83.665,10.644 C83.636,10.644 83.607,10.644 83.578,10.644 C83.578,10.696 83.578,10.749 83.578,10.801 C83.549,10.801 83.521,10.801 83.492,10.801 C83.492,10.854 83.492,10.907 83.492,10.959 C83.463,10.959 83.434,10.959 83.405,10.959 C83.405,11.012 83.405,11.064 83.405,11.117 C83.348,11.143 83.290,11.170 83.232,11.196 C83.232,11.249 83.232,11.301 83.232,11.354 C83.146,11.406 83.059,11.459 82.973,11.512 C82.973,11.564 82.973,11.617 82.973,11.669 C82.886,11.722 82.800,11.775 82.713,11.827 C82.540,12.011 82.367,12.196 82.194,12.380 C82.136,12.380 82.079,12.380 82.021,12.380 C81.963,12.459 81.905,12.537 81.848,12.616 C81.790,12.616 81.732,12.616 81.675,12.616 C81.646,12.669 81.617,12.722 81.588,12.774 C81.531,12.774 81.473,12.774 81.415,12.774 C81.415,12.801 81.415,12.827 81.415,12.853 C81.358,12.853 81.300,12.853 81.242,12.853 C81.242,12.879 81.242,12.906 81.242,12.932 C81.185,12.932 81.127,12.932 81.069,12.932 C81.069,12.958 81.069,12.985 81.069,13.011 C81.011,13.011 80.954,13.011 80.896,13.011 C80.896,13.037 80.896,13.064 80.896,13.090 C80.838,13.090 80.781,13.090 80.723,13.090 C80.723,13.116 80.723,13.142 80.723,13.169 C80.637,13.169 80.550,13.169 80.463,13.169 C80.463,13.195 80.463,13.221 80.463,13.248 C80.377,13.248 80.290,13.248 80.204,13.248 C80.204,13.274 80.204,13.300 80.204,13.327 C80.089,13.327 79.973,13.327 79.858,13.327 C79.858,13.353 79.858,13.379 79.858,13.406 C79.685,13.406 79.512,13.406 79.339,13.406 C79.339,13.432 79.339,13.458 79.339,13.484 C78.761,13.633 77.198,13.436 76.830,13.327 C76.714,13.327 76.599,13.327 76.484,13.327 C76.484,13.300 76.484,13.274 76.484,13.248 C76.397,13.248 76.311,13.248 76.224,13.248 C76.224,13.221 76.224,13.195 76.224,13.169 C76.138,13.169 76.051,13.169 75.964,13.169 C75.964,13.142 75.964,13.116 75.964,13.090 C75.907,13.090 75.849,13.090 75.791,13.090 C75.791,13.064 75.791,13.037 75.791,13.011 C75.705,13.011 75.618,13.011 75.532,13.011 C75.503,12.958 75.474,12.906 75.445,12.853 C75.272,12.801 75.099,12.748 74.926,12.695 C74.869,12.616 74.811,12.537 74.753,12.459 C74.696,12.459 74.638,12.459 74.580,12.459 C74.494,12.353 74.407,12.248 74.321,12.143 C74.061,11.933 73.801,11.722 73.542,11.512 C73.542,11.459 73.542,11.406 73.542,11.354 C73.484,11.328 73.427,11.301 73.369,11.275 C73.369,11.222 73.369,11.170 73.369,11.117 C73.311,11.091 73.254,11.064 73.196,11.038 C73.167,10.933 73.138,10.828 73.109,10.723 C73.080,10.723 73.052,10.723 73.023,10.723 C72.965,10.565 72.907,10.407 72.850,10.249 C72.821,10.249 72.792,10.249 72.763,10.249 C72.763,10.170 72.763,10.091 72.763,10.012 C72.734,10.012 72.706,10.012 72.677,10.012 C72.677,9.933 72.677,9.854 72.677,9.776 C72.648,9.776 72.619,9.776 72.590,9.776 C72.590,9.697 72.590,9.618 72.590,9.539 C72.561,9.539 72.533,9.539 72.504,9.539 C72.504,9.434 72.504,9.328 72.504,9.223 C72.475,9.223 72.446,9.223 72.417,9.223 C72.417,9.092 72.417,8.960 72.417,8.829 C72.388,8.829 72.359,8.829 72.331,8.829 C72.331,8.671 72.331,8.513 72.331,8.355 C72.248,8.092 72.130,6.591 72.244,6.225 C72.273,6.225 72.302,6.225 72.331,6.225 C72.331,6.040 72.331,5.856 72.331,5.672 C72.359,5.672 72.388,5.672 72.417,5.672 C72.417,5.541 72.417,5.409 72.417,5.278 C72.446,5.278 72.475,5.278 72.504,5.278 C72.504,5.172 72.504,5.067 72.504,4.962 C72.533,4.962 72.561,4.962 72.590,4.962 C72.590,4.883 72.590,4.804 72.590,4.725 C72.619,4.725 72.648,4.725 72.677,4.725 C72.677,4.646 72.677,4.567 72.677,4.489 C72.706,4.489 72.734,4.489 72.763,4.489 C72.763,4.436 72.763,4.383 72.763,4.331 C72.792,4.331 72.821,4.331 72.850,4.331 C72.850,4.252 72.850,4.173 72.850,4.094 C72.879,4.094 72.907,4.094 72.936,4.094 C72.936,4.041 72.936,3.989 72.936,3.936 C72.965,3.936 72.994,3.936 73.023,3.936 C73.023,3.884 73.023,3.831 73.023,3.778 C73.080,3.752 73.138,3.726 73.196,3.699 C73.225,3.594 73.254,3.489 73.282,3.384 C73.340,3.357 73.398,3.331 73.455,3.305 C73.455,3.252 73.455,3.200 73.455,3.147 C73.571,3.068 73.686,2.989 73.801,2.910 C73.801,2.858 73.801,2.805 73.801,2.752 C73.974,2.621 74.148,2.489 74.321,2.358 C74.349,2.305 74.378,2.253 74.407,2.200 C74.465,2.200 74.522,2.200 74.580,2.200 C74.638,2.121 74.696,2.042 74.753,1.963 C74.811,1.963 74.869,1.963 74.926,1.963 C74.955,1.911 74.984,1.858 75.013,1.806 C75.128,1.779 75.243,1.753 75.359,1.727 C75.388,1.674 75.417,1.621 75.445,1.569 C75.532,1.569 75.618,1.569 75.705,1.569 C75.705,1.543 75.705,1.516 75.705,1.490 C75.820,1.464 75.936,1.437 76.051,1.411 C76.051,1.385 76.051,1.358 76.051,1.332 C76.397,1.279 76.743,1.227 77.089,1.174 C77.089,1.148 77.089,1.122 77.089,1.095 C77.320,1.095 77.551,1.095 77.781,1.095 C77.781,1.069 77.781,1.043 77.781,1.016 ZM0.087,1.253 C0.692,1.253 1.298,1.253 1.903,1.253 C1.903,2.884 1.903,4.515 1.903,6.146 C4.037,6.146 6.172,6.146 8.306,6.146 C8.306,4.515 8.306,2.884 8.306,1.253 C8.911,1.253 9.517,1.253 10.123,1.253 C10.123,5.251 10.123,9.250 10.123,13.248 C9.517,13.248 8.911,13.248 8.306,13.248 C8.306,11.354 8.306,9.460 8.306,7.566 C6.172,7.566 4.037,7.566 1.903,7.566 C1.903,9.460 1.903,11.354 1.903,13.248 C1.298,13.248 0.692,13.248 0.087,13.248 C0.087,9.250 0.087,5.251 0.087,1.253 ZM49.403,1.411 C51.047,1.411 52.691,1.411 54.334,1.411 C55.193,1.411 56.031,1.391 56.671,1.569 C56.815,1.569 56.959,1.569 57.103,1.569 C57.103,1.595 57.103,1.621 57.103,1.648 C57.190,1.648 57.276,1.648 57.363,1.648 C57.363,1.674 57.363,1.700 57.363,1.727 C57.449,1.727 57.536,1.727 57.622,1.727 C57.622,1.753 57.622,1.779 57.622,1.806 C57.709,1.806 57.795,1.806 57.882,1.806 C57.882,1.832 57.882,1.858 57.882,1.884 C57.939,1.884 57.997,1.884 58.055,1.884 C58.055,1.911 58.055,1.937 58.055,1.963 C58.170,1.990 58.286,2.016 58.401,2.042 C58.430,2.095 58.459,2.147 58.487,2.200 C58.545,2.200 58.603,2.200 58.660,2.200 C58.718,2.279 58.776,2.358 58.834,2.437 C58.891,2.437 58.949,2.437 59.007,2.437 C59.035,2.489 59.064,2.542 59.093,2.595 C59.122,2.595 59.151,2.595 59.180,2.595 C59.180,2.647 59.180,2.700 59.180,2.752 C59.266,2.805 59.353,2.858 59.439,2.910 C59.439,2.963 59.439,3.016 59.439,3.068 C59.468,3.068 59.497,3.068 59.526,3.068 C59.555,3.173 59.583,3.279 59.612,3.384 C59.641,3.384 59.670,3.384 59.699,3.384 C59.699,3.489 59.699,3.594 59.699,3.699 C59.728,3.699 59.756,3.699 59.785,3.699 C59.854,3.907 59.863,4.902 59.785,5.120 C59.756,5.120 59.728,5.120 59.699,5.120 C59.699,5.199 59.699,5.278 59.699,5.357 C59.670,5.357 59.641,5.357 59.612,5.357 C59.583,5.488 59.555,5.620 59.526,5.751 C59.468,5.777 59.410,5.804 59.353,5.830 C59.353,5.883 59.353,5.935 59.353,5.988 C59.266,6.040 59.180,6.093 59.093,6.146 C59.007,6.251 58.920,6.356 58.834,6.461 C58.776,6.461 58.718,6.461 58.660,6.461 C58.660,6.488 58.660,6.514 58.660,6.540 C58.487,6.593 58.314,6.645 58.141,6.698 C58.141,6.724 58.141,6.751 58.141,6.777 C57.930,6.860 57.645,6.868 57.449,6.935 C57.449,6.961 57.449,6.987 57.449,7.014 C58.775,7.064 60.038,8.187 60.391,9.144 C60.391,9.276 60.391,9.407 60.391,9.539 C60.420,9.539 60.449,9.539 60.477,9.539 C60.601,9.932 60.423,10.948 60.304,11.196 C60.276,11.196 60.247,11.196 60.218,11.196 C60.189,11.301 60.160,11.406 60.131,11.512 C60.102,11.512 60.074,11.512 60.045,11.512 C60.016,11.617 59.987,11.722 59.958,11.827 C59.756,11.985 59.555,12.143 59.353,12.301 C59.295,12.380 59.237,12.459 59.180,12.537 C59.122,12.537 59.064,12.537 59.007,12.537 C58.978,12.590 58.949,12.643 58.920,12.695 C58.805,12.722 58.689,12.748 58.574,12.774 C58.574,12.801 58.574,12.827 58.574,12.853 C58.459,12.879 58.343,12.906 58.228,12.932 C58.228,12.958 58.228,12.985 58.228,13.011 C58.141,13.011 58.055,13.011 57.968,13.011 C56.932,13.386 55.900,13.406 54.421,13.406 C52.748,13.406 51.075,13.406 49.403,13.406 C49.403,9.408 49.403,5.409 49.403,1.411 ZM103.132,2.121 C103.132,2.726 103.132,3.331 103.132,3.936 C102.122,3.936 101.113,3.936 100.104,3.936 C100.104,4.830 100.104,5.725 100.104,6.619 C101.113,6.619 102.122,6.619 103.132,6.619 C103.132,7.224 103.132,7.829 103.132,8.434 C102.122,8.434 101.113,8.434 100.104,8.434 C100.104,9.460 100.104,10.486 100.104,11.512 C100.478,11.637 101.149,11.591 101.661,11.591 C102.670,11.591 103.680,11.591 104.689,11.591 C104.689,12.195 104.689,12.801 104.689,13.406 C103.161,13.406 101.632,13.406 100.104,13.406 C100.104,17.140 100.104,20.876 100.104,24.611 C100.421,24.664 100.738,24.716 101.055,24.769 C101.055,24.795 101.055,24.821 101.055,24.848 C101.113,24.848 101.171,24.848 101.228,24.848 C101.228,24.874 101.228,24.900 101.228,24.927 C101.488,25.005 101.747,25.084 102.007,25.163 C102.036,25.216 102.065,25.269 102.093,25.321 C102.151,25.321 102.209,25.321 102.267,25.321 C102.295,25.374 102.324,25.426 102.353,25.479 C102.411,25.479 102.468,25.479 102.526,25.479 C102.613,25.584 102.699,25.689 102.786,25.795 C102.843,25.795 102.901,25.795 102.959,25.795 C103.045,25.900 103.132,26.005 103.218,26.110 C103.247,26.110 103.276,26.110 103.305,26.110 C103.305,26.163 103.305,26.215 103.305,26.268 C103.420,26.347 103.535,26.426 103.651,26.505 C103.680,26.584 103.709,26.663 103.737,26.742 C103.795,26.768 103.853,26.794 103.910,26.820 C103.968,26.978 104.026,27.136 104.083,27.294 C104.141,27.320 104.199,27.347 104.256,27.373 C104.285,27.504 104.314,27.636 104.343,27.767 C104.372,27.767 104.401,27.767 104.430,27.767 C104.430,27.820 104.430,27.873 104.430,27.925 C104.458,27.925 104.487,27.925 104.516,27.925 C104.545,28.083 104.574,28.241 104.603,28.399 C104.631,28.399 104.660,28.399 104.689,28.399 C104.689,28.504 104.689,28.609 104.689,28.714 C104.718,28.714 104.747,28.714 104.776,28.714 C104.776,28.820 104.776,28.925 104.776,29.030 C104.804,29.030 104.833,29.030 104.862,29.030 C104.862,29.214 104.862,29.398 104.862,29.582 C104.891,29.582 104.920,29.582 104.949,29.582 C105.068,29.971 104.953,31.666 104.862,31.950 C104.862,32.107 104.862,32.265 104.862,32.423 C104.833,32.423 104.804,32.423 104.776,32.423 C104.776,32.555 104.776,32.686 104.776,32.818 C104.747,32.818 104.718,32.818 104.689,32.818 C104.689,32.897 104.689,32.976 104.689,33.054 C104.660,33.054 104.631,33.054 104.603,33.054 C104.603,33.133 104.603,33.212 104.603,33.291 C104.574,33.291 104.545,33.291 104.516,33.291 C104.516,33.370 104.516,33.449 104.516,33.528 C104.487,33.528 104.458,33.528 104.430,33.528 C104.430,33.607 104.430,33.686 104.430,33.765 C104.401,33.765 104.372,33.765 104.343,33.765 C104.285,33.922 104.228,34.080 104.170,34.238 C104.141,34.238 104.112,34.238 104.083,34.238 C104.083,34.291 104.083,34.343 104.083,34.396 C104.026,34.422 103.968,34.449 103.910,34.475 C103.882,34.580 103.853,34.685 103.824,34.790 C103.737,34.843 103.651,34.896 103.564,34.948 C103.564,35.001 103.564,35.054 103.564,35.106 C103.362,35.264 103.161,35.422 102.959,35.580 C102.872,35.685 102.786,35.790 102.699,35.895 C102.641,35.895 102.584,35.895 102.526,35.895 C102.468,35.974 102.411,36.053 102.353,36.132 C102.238,36.158 102.122,36.185 102.007,36.211 C101.978,36.263 101.949,36.316 101.920,36.369 C101.863,36.369 101.805,36.369 101.747,36.369 C101.747,36.395 101.747,36.421 101.747,36.448 C101.632,36.474 101.517,36.500 101.401,36.527 C101.401,36.553 101.401,36.579 101.401,36.605 C101.228,36.632 101.055,36.658 100.882,36.684 C100.882,36.711 100.882,36.737 100.882,36.763 C100.651,36.790 100.421,36.816 100.190,36.842 C100.190,36.868 100.190,36.895 100.190,36.921 C99.959,36.921 99.729,36.921 99.498,36.921 C99.498,36.947 99.498,36.974 99.498,37.000 C99.065,37.000 98.633,37.000 98.200,37.000 C98.200,36.974 98.200,36.947 98.200,36.921 C97.854,36.895 97.508,36.868 97.162,36.842 C97.162,36.816 97.162,36.790 97.162,36.763 C97.075,36.763 96.989,36.763 96.902,36.763 C96.902,36.737 96.902,36.711 96.902,36.684 C96.816,36.684 96.729,36.684 96.643,36.684 C96.643,36.658 96.643,36.632 96.643,36.605 C96.556,36.605 96.470,36.605 96.383,36.605 C96.383,36.579 96.383,36.553 96.383,36.527 C96.325,36.527 96.268,36.527 96.210,36.527 C96.210,36.500 96.210,36.474 96.210,36.448 C96.037,36.395 95.864,36.342 95.691,36.290 C95.662,36.237 95.633,36.185 95.604,36.132 C95.547,36.132 95.489,36.132 95.431,36.132 C95.403,36.079 95.374,36.027 95.345,35.974 C95.287,35.974 95.230,35.974 95.172,35.974 C94.941,35.737 94.710,35.501 94.480,35.264 C94.364,35.185 94.249,35.106 94.134,35.027 C94.134,34.975 94.134,34.922 94.134,34.869 C94.047,34.817 93.961,34.764 93.874,34.712 C93.845,34.606 93.816,34.501 93.788,34.396 C93.730,34.370 93.672,34.343 93.615,34.317 C93.615,34.264 93.615,34.212 93.615,34.159 C93.586,34.159 93.557,34.159 93.528,34.159 C93.499,34.054 93.470,33.949 93.441,33.844 C93.413,33.844 93.384,33.844 93.355,33.844 C93.355,33.765 93.355,33.686 93.355,33.607 C93.326,33.607 93.297,33.607 93.268,33.607 C93.268,33.554 93.268,33.502 93.268,33.449 C93.240,33.449 93.211,33.449 93.182,33.449 C93.182,33.344 93.182,33.239 93.182,33.133 C93.153,33.133 93.124,33.133 93.095,33.133 C93.095,33.054 93.095,32.976 93.095,32.897 C93.067,32.897 93.038,32.897 93.009,32.897 C93.009,32.791 93.009,32.686 93.009,32.581 C92.980,32.581 92.951,32.581 92.922,32.581 C92.922,32.423 92.922,32.265 92.922,32.107 C92.894,32.107 92.865,32.107 92.836,32.107 C92.836,31.871 92.836,31.634 92.836,31.397 C92.807,31.397 92.778,31.397 92.749,31.397 C92.608,30.936 92.820,29.657 92.922,29.346 C92.922,29.214 92.922,29.083 92.922,28.951 C92.951,28.951 92.980,28.951 93.009,28.951 C93.009,28.846 93.009,28.741 93.009,28.635 C93.038,28.635 93.067,28.635 93.095,28.635 C93.095,28.530 93.095,28.425 93.095,28.320 C93.124,28.320 93.153,28.320 93.182,28.320 C93.182,28.241 93.182,28.162 93.182,28.083 C93.211,28.083 93.240,28.083 93.268,28.083 C93.268,28.004 93.268,27.925 93.268,27.846 C93.297,27.846 93.326,27.846 93.355,27.846 C93.413,27.688 93.470,27.531 93.528,27.373 C93.557,27.373 93.586,27.373 93.615,27.373 C93.615,27.320 93.615,27.268 93.615,27.215 C93.643,27.215 93.672,27.215 93.701,27.215 C93.730,27.110 93.759,27.005 93.788,26.899 C93.845,26.873 93.903,26.847 93.961,26.820 C93.961,26.768 93.961,26.715 93.961,26.663 C94.076,26.584 94.191,26.505 94.307,26.426 C94.307,26.373 94.307,26.321 94.307,26.268 C94.393,26.215 94.480,26.163 94.566,26.110 C94.710,25.952 94.855,25.795 94.999,25.637 C95.057,25.637 95.114,25.637 95.172,25.637 C95.230,25.558 95.287,25.479 95.345,25.400 C95.403,25.400 95.460,25.400 95.518,25.400 C95.547,25.347 95.576,25.295 95.604,25.242 C95.662,25.242 95.720,25.242 95.778,25.242 C95.778,25.216 95.778,25.190 95.778,25.163 C95.835,25.163 95.893,25.163 95.951,25.163 C95.951,25.137 95.951,25.111 95.951,25.084 C96.008,25.084 96.066,25.084 96.124,25.084 C96.124,25.058 96.124,25.032 96.124,25.005 C96.181,25.005 96.239,25.005 96.297,25.005 C96.297,24.979 96.297,24.953 96.297,24.927 C96.354,24.927 96.412,24.927 96.470,24.927 C96.470,24.900 96.470,24.874 96.470,24.848 C96.556,24.848 96.643,24.848 96.729,24.848 C96.729,24.821 96.729,24.795 96.729,24.769 C96.816,24.769 96.902,24.769 96.989,24.769 C96.989,24.742 96.989,24.716 96.989,24.690 C97.104,24.690 97.220,24.690 97.335,24.690 C97.335,24.664 97.335,24.637 97.335,24.611 C97.508,24.611 97.681,24.611 97.854,24.611 C97.854,24.585 97.854,24.558 97.854,24.532 C98.074,24.301 97.941,23.423 97.941,23.033 C97.941,21.612 97.941,20.192 97.941,18.771 C97.941,13.222 97.941,7.671 97.941,2.121 C98.661,2.095 99.383,2.069 100.104,2.042 C100.901,2.244 102.180,2.121 103.132,2.121 ZM27.686,2.358 C27.686,2.384 27.686,2.411 27.686,2.437 C27.427,2.437 27.167,2.437 26.908,2.437 C26.787,2.456 26.938,2.482 26.821,2.516 C26.706,2.516 26.590,2.516 26.475,2.516 C26.475,2.542 26.475,2.568 26.475,2.595 C26.389,2.595 26.302,2.595 26.216,2.595 C26.216,2.621 26.216,2.647 26.216,2.674 C26.043,2.726 25.869,2.779 25.696,2.831 C25.696,2.858 25.696,2.884 25.696,2.910 C25.639,2.910 25.581,2.910 25.523,2.910 C25.466,2.989 25.408,3.068 25.350,3.147 C25.293,3.147 25.235,3.147 25.177,3.147 C25.091,3.252 25.004,3.357 24.918,3.463 C24.831,3.515 24.745,3.568 24.658,3.620 C24.658,3.673 24.658,3.726 24.658,3.778 C24.600,3.805 24.543,3.831 24.485,3.857 C24.485,3.910 24.485,3.962 24.485,4.015 C24.427,4.041 24.370,4.068 24.312,4.094 C24.254,4.252 24.197,4.410 24.139,4.567 C24.110,4.567 24.081,4.567 24.053,4.567 C24.053,4.620 24.053,4.673 24.053,4.725 C24.024,4.725 23.995,4.725 23.966,4.725 C23.966,4.804 23.966,4.883 23.966,4.962 C23.937,4.962 23.908,4.962 23.879,4.962 C23.879,5.041 23.879,5.120 23.879,5.199 C23.851,5.199 23.822,5.199 23.793,5.199 C23.793,5.304 23.793,5.409 23.793,5.514 C23.764,5.514 23.735,5.514 23.706,5.514 C23.706,5.620 23.706,5.725 23.706,5.830 C23.678,5.830 23.649,5.830 23.620,5.830 C23.620,6.040 23.620,6.251 23.620,6.461 C23.591,6.461 23.562,6.461 23.533,6.461 C23.422,6.826 23.542,7.788 23.620,8.040 C23.620,8.250 23.620,8.460 23.620,8.671 C23.649,8.671 23.678,8.671 23.706,8.671 C23.706,8.802 23.706,8.934 23.706,9.065 C23.735,9.065 23.764,9.065 23.793,9.065 C23.793,9.171 23.793,9.276 23.793,9.381 C23.995,9.776 24.197,10.170 24.399,10.565 C24.456,10.591 24.514,10.617 24.572,10.644 C24.572,10.696 24.572,10.749 24.572,10.801 C24.745,10.933 24.918,11.064 25.091,11.196 C25.177,11.301 25.264,11.406 25.350,11.512 C25.408,11.512 25.466,11.512 25.523,11.512 C25.552,11.564 25.581,11.617 25.610,11.669 C25.725,11.696 25.841,11.722 25.956,11.748 C25.956,11.775 25.956,11.801 25.956,11.827 C26.071,11.854 26.187,11.880 26.302,11.906 C26.302,11.932 26.302,11.959 26.302,11.985 C26.551,12.075 27.985,12.248 28.379,12.143 C28.379,12.117 28.379,12.090 28.379,12.064 C28.523,12.064 28.667,12.064 28.811,12.064 C28.811,12.038 28.811,12.011 28.811,11.985 C28.984,11.959 29.157,11.932 29.330,11.906 C29.330,11.880 29.330,11.854 29.330,11.827 C29.446,11.801 29.561,11.775 29.676,11.748 C29.676,11.722 29.676,11.696 29.676,11.669 C29.734,11.669 29.792,11.669 29.849,11.669 C29.878,11.617 29.907,11.564 29.936,11.512 C29.994,11.512 30.051,11.512 30.109,11.512 C30.195,11.406 30.282,11.301 30.368,11.196 C30.513,11.091 30.657,10.986 30.801,10.880 C31.971,9.371 32.277,6.565 31.320,4.646 C31.320,4.567 31.320,4.489 31.320,4.410 C31.263,4.383 31.205,4.357 31.147,4.331 C31.118,4.225 31.089,4.120 31.061,4.015 C31.003,3.989 30.945,3.962 30.888,3.936 C30.888,3.884 30.888,3.831 30.888,3.778 C30.772,3.699 30.657,3.620 30.542,3.542 C30.542,3.489 30.542,3.436 30.542,3.384 C30.455,3.357 30.368,3.331 30.282,3.305 C30.195,3.200 30.109,3.094 30.022,2.989 C29.965,2.989 29.907,2.989 29.849,2.989 C29.821,2.937 29.792,2.884 29.763,2.831 C29.705,2.831 29.647,2.831 29.590,2.831 C29.590,2.805 29.590,2.779 29.590,2.752 C29.474,2.726 29.359,2.700 29.244,2.674 C29.244,2.647 29.244,2.621 29.244,2.595 C29.157,2.595 29.071,2.595 28.984,2.595 C28.984,2.568 28.984,2.542 28.984,2.516 C28.615,2.397 28.042,2.473 27.686,2.358 ZM75.532,11.196 C75.756,11.253 75.812,11.319 75.964,11.433 C75.964,11.459 75.964,11.485 75.964,11.512 C76.022,11.512 76.080,11.512 76.138,11.512 C76.166,11.564 76.195,11.617 76.224,11.669 C76.282,11.669 76.339,11.669 76.397,11.669 C76.426,11.722 76.455,11.775 76.484,11.827 C76.570,11.827 76.657,11.827 76.743,11.827 C76.743,11.854 76.743,11.880 76.743,11.906 C76.801,11.906 76.859,11.906 76.916,11.906 C76.916,11.932 76.916,11.959 76.916,11.985 C77.032,11.985 77.147,11.985 77.262,11.985 C77.964,12.195 78.724,12.198 79.425,11.985 C79.541,11.985 79.656,11.985 79.771,11.985 C79.771,11.959 79.771,11.932 79.771,11.906 C79.944,11.854 80.117,11.801 80.290,11.748 C80.290,11.722 80.290,11.696 80.290,11.669 C80.348,11.669 80.406,11.669 80.463,11.669 C80.492,11.617 80.521,11.564 80.550,11.512 C80.608,11.512 80.665,11.512 80.723,11.512 C80.810,11.406 80.896,11.301 80.983,11.196 C81.127,11.091 81.271,10.986 81.415,10.880 C81.415,10.828 81.415,10.775 81.415,10.723 C81.502,10.670 81.588,10.617 81.675,10.565 C81.704,10.459 81.732,10.354 81.761,10.249 C81.790,10.249 81.819,10.249 81.848,10.249 C81.905,10.091 81.963,9.933 82.021,9.776 C82.050,9.776 82.079,9.776 82.107,9.776 C82.107,9.697 82.107,9.618 82.107,9.539 C82.654,8.282 82.657,6.295 82.107,5.041 C82.021,4.778 81.934,4.515 81.848,4.252 C81.819,4.252 81.790,4.252 81.761,4.252 C81.732,4.173 81.704,4.094 81.675,4.015 C81.617,3.989 81.559,3.962 81.502,3.936 C81.502,3.884 81.502,3.831 81.502,3.778 C81.415,3.726 81.329,3.673 81.242,3.620 C81.242,3.568 81.242,3.515 81.242,3.463 C81.156,3.410 81.069,3.357 80.983,3.305 C80.983,3.279 80.983,3.252 80.983,3.226 C80.925,3.226 80.867,3.226 80.810,3.226 C80.723,3.121 80.637,3.015 80.550,2.910 C80.492,2.910 80.435,2.910 80.377,2.910 C80.377,2.884 80.377,2.858 80.377,2.831 C80.204,2.779 80.031,2.726 79.858,2.674 C79.858,2.647 79.858,2.621 79.858,2.595 C79.771,2.595 79.685,2.595 79.598,2.595 C79.598,2.568 79.598,2.542 79.598,2.516 C79.483,2.516 79.368,2.516 79.252,2.516 C79.252,2.489 79.252,2.463 79.252,2.437 C78.906,2.411 78.560,2.384 78.214,2.358 C78.214,2.384 78.214,2.411 78.214,2.437 C77.954,2.437 77.695,2.437 77.435,2.437 C77.435,2.463 77.435,2.489 77.435,2.516 C77.320,2.516 77.205,2.516 77.089,2.516 C77.089,2.542 77.089,2.568 77.089,2.595 C77.003,2.595 76.916,2.595 76.830,2.595 C76.830,2.621 76.830,2.647 76.830,2.674 C76.772,2.674 76.714,2.674 76.657,2.674 C76.657,2.700 76.657,2.726 76.657,2.752 C76.484,2.805 76.311,2.858 76.138,2.910 C76.109,2.963 76.080,3.016 76.051,3.068 C75.993,3.068 75.936,3.068 75.878,3.068 C75.820,3.147 75.763,3.226 75.705,3.305 C75.561,3.410 75.416,3.515 75.272,3.620 C75.272,3.673 75.272,3.726 75.272,3.778 C75.215,3.805 75.157,3.831 75.099,3.857 C75.070,3.936 75.042,4.015 75.013,4.094 C74.984,4.094 74.955,4.094 74.926,4.094 C74.926,4.147 74.926,4.199 74.926,4.252 C74.897,4.252 74.869,4.252 74.840,4.252 C74.782,4.410 74.724,4.567 74.667,4.725 C74.638,4.725 74.609,4.725 74.580,4.725 C74.522,4.962 74.465,5.199 74.407,5.435 C74.378,5.435 74.349,5.435 74.321,5.435 C74.321,5.567 74.321,5.699 74.321,5.830 C74.292,5.830 74.263,5.830 74.234,5.830 C74.205,6.593 74.176,7.356 74.148,8.118 C74.263,8.618 74.378,9.118 74.494,9.618 C74.522,9.618 74.551,9.618 74.580,9.618 C74.580,9.670 74.580,9.723 74.580,9.776 C74.609,9.776 74.638,9.776 74.667,9.776 C74.667,9.854 74.667,9.933 74.667,10.012 C74.696,10.012 74.724,10.012 74.753,10.012 C74.753,10.065 74.753,10.118 74.753,10.170 C74.782,10.170 74.811,10.170 74.840,10.170 C74.840,10.223 74.840,10.275 74.840,10.328 C74.897,10.354 74.955,10.381 75.013,10.407 C75.013,10.459 75.013,10.512 75.013,10.565 C75.070,10.591 75.128,10.617 75.186,10.644 C75.186,10.696 75.186,10.749 75.186,10.801 C75.215,10.801 75.243,10.801 75.272,10.801 C75.397,10.940 75.469,10.992 75.532,11.196 ZM51.566,2.752 C51.566,3.962 51.566,5.173 51.566,6.382 C52.946,6.399 54.691,6.532 55.805,6.225 C56.036,6.198 56.267,6.172 56.497,6.146 C56.497,6.119 56.497,6.093 56.497,6.067 C56.671,6.014 56.844,5.962 57.017,5.909 C57.103,5.804 57.190,5.698 57.276,5.593 C57.334,5.567 57.392,5.541 57.449,5.514 C57.549,5.382 57.452,5.336 57.622,5.199 C57.651,4.883 57.680,4.567 57.709,4.252 C57.680,4.252 57.651,4.252 57.622,4.252 C57.593,4.068 57.565,3.884 57.536,3.699 C57.340,3.584 57.286,3.339 57.103,3.226 C57.045,3.226 56.988,3.226 56.930,3.226 C56.930,3.200 56.930,3.173 56.930,3.147 C56.757,3.094 56.584,3.042 56.411,2.989 C56.411,2.963 56.411,2.937 56.411,2.910 C56.296,2.910 56.180,2.910 56.065,2.910 C54.920,2.569 52.999,2.754 51.566,2.752 ZM51.566,7.724 C51.566,9.170 51.566,10.617 51.566,12.064 C53.725,12.095 57.040,12.342 57.882,11.196 C58.072,10.937 58.411,9.931 58.228,9.381 C58.199,9.381 58.170,9.381 58.141,9.381 C58.113,9.197 58.084,9.013 58.055,8.829 C57.793,8.673 58.016,8.756 57.882,8.592 C57.824,8.566 57.766,8.539 57.709,8.513 C57.622,8.408 57.536,8.303 57.449,8.197 C57.392,8.197 57.334,8.197 57.276,8.197 C57.247,8.145 57.218,8.092 57.190,8.040 C57.132,8.040 57.074,8.040 57.017,8.040 C57.017,8.013 57.017,7.987 57.017,7.961 C55.943,7.517 53.121,7.724 51.566,7.724 ZM0.000,24.453 C1.009,24.453 2.019,24.453 3.028,24.453 C4.297,27.741 5.566,31.029 6.835,34.317 C6.864,34.317 6.893,34.317 6.922,34.317 C7.008,34.028 7.095,33.738 7.181,33.449 C7.210,33.449 7.239,33.449 7.268,33.449 C7.297,33.291 7.325,33.133 7.354,32.976 C7.383,32.976 7.412,32.976 7.441,32.976 C7.441,32.897 7.441,32.818 7.441,32.739 C7.470,32.739 7.498,32.739 7.527,32.739 C7.527,32.660 7.527,32.581 7.527,32.502 C7.556,32.502 7.585,32.502 7.614,32.502 C7.614,32.423 7.614,32.344 7.614,32.265 C7.643,32.265 7.671,32.265 7.700,32.265 C7.700,32.213 7.700,32.160 7.700,32.107 C7.729,32.107 7.758,32.107 7.787,32.107 C7.844,31.871 7.902,31.634 7.960,31.397 C7.989,31.397 8.018,31.397 8.046,31.397 C8.075,31.239 8.104,31.082 8.133,30.924 C8.162,30.924 8.191,30.924 8.219,30.924 C8.219,30.845 8.219,30.766 8.219,30.687 C8.248,30.687 8.277,30.687 8.306,30.687 C8.306,30.634 8.306,30.582 8.306,30.529 C8.335,30.529 8.364,30.529 8.392,30.529 C8.421,30.371 8.450,30.214 8.479,30.056 C8.508,30.056 8.537,30.056 8.565,30.056 C8.623,29.819 8.681,29.582 8.739,29.346 C8.767,29.346 8.796,29.346 8.825,29.346 C8.825,29.293 8.825,29.240 8.825,29.188 C8.854,29.188 8.883,29.188 8.912,29.188 C8.912,29.109 8.912,29.030 8.912,28.951 C8.940,28.951 8.969,28.951 8.998,28.951 C8.998,28.872 8.998,28.793 8.998,28.714 C9.027,28.714 9.056,28.714 9.085,28.714 C9.085,28.635 9.085,28.556 9.085,28.478 C9.113,28.478 9.142,28.478 9.171,28.478 C9.171,28.399 9.171,28.320 9.171,28.241 C9.200,28.241 9.229,28.241 9.258,28.241 C9.258,28.162 9.258,28.083 9.258,28.004 C9.286,28.004 9.315,28.004 9.344,28.004 C9.344,27.952 9.344,27.899 9.344,27.846 C9.373,27.846 9.402,27.846 9.431,27.846 C9.431,27.767 9.431,27.688 9.431,27.610 C9.460,27.610 9.488,27.610 9.517,27.610 C9.517,27.531 9.517,27.452 9.517,27.373 C9.546,27.373 9.575,27.373 9.604,27.373 C9.604,27.294 9.604,27.215 9.604,27.136 C9.633,27.136 9.661,27.136 9.690,27.136 C9.690,27.057 9.690,26.978 9.690,26.899 C9.719,26.899 9.748,26.899 9.777,26.899 C9.806,26.742 9.834,26.584 9.863,26.426 C9.892,26.426 9.921,26.426 9.950,26.426 C9.950,26.373 9.950,26.321 9.950,26.268 C9.979,26.268 10.007,26.268 10.036,26.268 C10.094,26.031 10.152,25.795 10.209,25.558 C10.362,25.208 10.586,24.897 10.642,24.453 C11.651,24.453 12.661,24.453 13.670,24.453 C13.792,24.757 13.757,25.291 13.757,25.716 C13.757,26.531 13.757,27.347 13.757,28.162 C13.757,30.976 13.757,33.791 13.757,36.605 C13.065,36.605 12.372,36.605 11.680,36.605 C11.680,34.107 11.680,31.607 11.680,29.109 C11.680,28.478 11.680,27.846 11.680,27.215 C11.680,26.963 11.722,26.639 11.594,26.505 C11.567,26.882 11.374,27.171 11.248,27.452 C11.248,27.531 11.248,27.610 11.248,27.688 C11.219,27.688 11.190,27.688 11.161,27.688 C11.161,27.741 11.161,27.794 11.161,27.846 C11.132,27.846 11.103,27.846 11.075,27.846 C11.046,28.004 11.017,28.162 10.988,28.320 C10.959,28.320 10.930,28.320 10.902,28.320 C10.902,28.399 10.902,28.478 10.902,28.556 C10.873,28.556 10.844,28.556 10.815,28.556 C10.815,28.635 10.815,28.714 10.815,28.793 C10.786,28.793 10.757,28.793 10.728,28.793 C10.728,28.872 10.728,28.951 10.728,29.030 C10.700,29.030 10.671,29.030 10.642,29.030 C10.642,29.109 10.642,29.188 10.642,29.267 C10.613,29.267 10.584,29.267 10.555,29.267 C10.555,29.319 10.555,29.372 10.555,29.425 C10.527,29.425 10.498,29.425 10.469,29.425 C10.469,29.503 10.469,29.582 10.469,29.661 C10.440,29.661 10.411,29.661 10.382,29.661 C10.382,29.740 10.382,29.819 10.382,29.898 C10.354,29.898 10.325,29.898 10.296,29.898 C10.296,29.977 10.296,30.056 10.296,30.135 C10.267,30.135 10.238,30.135 10.209,30.135 C10.209,30.214 10.209,30.293 10.209,30.371 C10.181,30.371 10.152,30.371 10.123,30.371 C10.123,30.450 10.123,30.529 10.123,30.608 C10.094,30.608 10.065,30.608 10.036,30.608 C10.036,30.661 10.036,30.713 10.036,30.766 C10.007,30.766 9.979,30.766 9.950,30.766 C9.892,31.003 9.834,31.239 9.777,31.476 C9.748,31.476 9.719,31.476 9.690,31.476 C9.633,31.713 9.575,31.950 9.517,32.186 C9.488,32.186 9.460,32.186 9.431,32.186 C9.431,32.239 9.431,32.292 9.431,32.344 C9.402,32.344 9.373,32.344 9.344,32.344 C9.344,32.423 9.344,32.502 9.344,32.581 C9.315,32.581 9.286,32.581 9.258,32.581 C9.258,32.660 9.258,32.739 9.258,32.818 C9.229,32.818 9.200,32.818 9.171,32.818 C9.171,32.897 9.171,32.976 9.171,33.054 C9.142,33.054 9.113,33.054 9.085,33.054 C9.085,33.133 9.085,33.212 9.085,33.291 C9.056,33.291 9.027,33.291 8.998,33.291 C8.998,33.370 8.998,33.449 8.998,33.528 C8.969,33.528 8.940,33.528 8.912,33.528 C8.912,33.581 8.912,33.633 8.912,33.686 C8.883,33.686 8.854,33.686 8.825,33.686 C8.767,33.922 8.710,34.159 8.652,34.396 C8.623,34.396 8.594,34.396 8.565,34.396 C8.508,34.633 8.450,34.869 8.392,35.106 C8.364,35.106 8.335,35.106 8.306,35.106 C8.306,35.159 8.306,35.211 8.306,35.264 C8.277,35.264 8.248,35.264 8.219,35.264 C8.219,35.343 8.219,35.422 8.219,35.501 C8.191,35.501 8.162,35.501 8.133,35.501 C8.133,35.580 8.133,35.659 8.133,35.737 C8.104,35.737 8.075,35.737 8.046,35.737 C8.018,35.895 7.989,36.053 7.960,36.211 C7.931,36.211 7.902,36.211 7.873,36.211 C7.674,36.375 6.220,36.297 5.797,36.290 C5.710,36.000 5.624,35.711 5.537,35.422 C5.508,35.422 5.480,35.422 5.451,35.422 C5.422,35.264 5.393,35.106 5.364,34.948 C5.335,34.948 5.307,34.948 5.278,34.948 C5.278,34.869 5.278,34.790 5.278,34.712 C5.249,34.712 5.220,34.712 5.191,34.712 C5.191,34.633 5.191,34.554 5.191,34.475 C5.162,34.475 5.134,34.475 5.105,34.475 C5.105,34.396 5.105,34.317 5.105,34.238 C5.076,34.238 5.047,34.238 5.018,34.238 C5.018,34.159 5.018,34.080 5.018,34.001 C4.989,34.001 4.960,34.001 4.932,34.001 C4.932,33.949 4.932,33.896 4.932,33.844 C4.903,33.844 4.874,33.844 4.845,33.844 C4.787,33.607 4.730,33.370 4.672,33.133 C4.643,33.133 4.614,33.133 4.586,33.133 C4.557,32.976 4.528,32.818 4.499,32.660 C4.470,32.660 4.441,32.660 4.413,32.660 C4.413,32.607 4.413,32.555 4.413,32.502 C4.384,32.502 4.355,32.502 4.326,32.502 C4.326,32.423 4.326,32.344 4.326,32.265 C4.297,32.265 4.268,32.265 4.239,32.265 C4.239,32.186 4.239,32.107 4.239,32.029 C4.211,32.029 4.182,32.029 4.153,32.029 C4.153,31.950 4.153,31.871 4.153,31.792 C4.124,31.792 4.095,31.792 4.066,31.792 C4.009,31.555 3.951,31.318 3.893,31.082 C3.865,31.082 3.836,31.082 3.807,31.082 C3.807,31.029 3.807,30.976 3.807,30.924 C3.778,30.924 3.749,30.924 3.720,30.924 C3.720,30.845 3.720,30.766 3.720,30.687 C3.692,30.687 3.663,30.687 3.634,30.687 C3.634,30.608 3.634,30.529 3.634,30.450 C3.605,30.450 3.576,30.450 3.547,30.450 C3.547,30.371 3.547,30.293 3.547,30.214 C3.518,30.214 3.490,30.214 3.461,30.214 C3.461,30.135 3.461,30.056 3.461,29.977 C3.432,29.977 3.403,29.977 3.374,29.977 C3.374,29.898 3.374,29.819 3.374,29.740 C3.345,29.740 3.317,29.740 3.288,29.740 C3.288,29.688 3.288,29.635 3.288,29.582 C3.259,29.582 3.230,29.582 3.201,29.582 C3.201,29.503 3.201,29.425 3.201,29.346 C3.172,29.346 3.144,29.346 3.115,29.346 C3.115,29.267 3.115,29.188 3.115,29.109 C3.086,29.109 3.057,29.109 3.028,29.109 C3.028,29.030 3.028,28.951 3.028,28.872 C2.999,28.872 2.971,28.872 2.942,28.872 C2.942,28.793 2.942,28.714 2.942,28.635 C2.913,28.635 2.884,28.635 2.855,28.635 C2.826,28.478 2.797,28.320 2.769,28.162 C2.525,27.653 2.215,27.030 2.076,26.426 C2.048,26.426 2.019,26.426 1.990,26.426 C1.990,29.819 1.990,33.213 1.990,36.605 C1.327,36.605 0.663,36.605 0.000,36.605 C0.000,32.555 0.000,28.503 0.000,24.453 ZM57.795,25.637 C57.795,26.215 57.795,26.794 57.795,27.373 C57.766,27.373 57.738,27.373 57.709,27.373 C57.615,27.267 57.471,27.228 57.363,27.136 C57.334,27.083 57.305,27.031 57.276,26.978 C57.218,26.978 57.161,26.978 57.103,26.978 C57.045,26.899 56.988,26.820 56.930,26.742 C56.872,26.742 56.815,26.742 56.757,26.742 C56.728,26.689 56.699,26.636 56.671,26.584 C56.555,26.557 56.440,26.531 56.324,26.505 C56.324,26.478 56.324,26.452 56.324,26.426 C56.209,26.400 56.094,26.373 55.978,26.347 C55.978,26.321 55.978,26.294 55.978,26.268 C55.834,26.242 55.690,26.215 55.546,26.189 C55.546,26.163 55.546,26.137 55.546,26.110 C55.315,26.084 55.084,26.058 54.854,26.031 C54.854,26.005 54.854,25.979 54.854,25.952 C54.681,25.952 54.508,25.952 54.334,25.952 C54.334,25.926 54.334,25.900 54.334,25.873 C53.902,25.873 53.469,25.873 53.037,25.873 C53.037,25.900 53.037,25.926 53.037,25.952 C52.835,25.952 52.633,25.952 52.431,25.952 C52.431,25.979 52.431,26.005 52.431,26.031 C52.316,26.031 52.200,26.031 52.085,26.031 C52.085,26.058 52.085,26.084 52.085,26.110 C51.998,26.110 51.912,26.110 51.825,26.110 C51.825,26.137 51.825,26.163 51.825,26.189 C51.739,26.189 51.652,26.189 51.566,26.189 C51.566,26.215 51.566,26.242 51.566,26.268 C51.508,26.268 51.450,26.268 51.393,26.268 C51.393,26.294 51.393,26.321 51.393,26.347 C51.335,26.347 51.277,26.347 51.220,26.347 C51.191,26.400 51.162,26.452 51.133,26.505 C51.076,26.505 51.018,26.505 50.960,26.505 C50.931,26.557 50.903,26.610 50.874,26.663 C50.816,26.663 50.758,26.663 50.701,26.663 C50.643,26.742 50.585,26.820 50.528,26.899 C50.383,27.005 50.239,27.110 50.095,27.215 C50.095,27.268 50.095,27.320 50.095,27.373 C50.037,27.399 49.980,27.425 49.922,27.452 C49.922,27.504 49.922,27.557 49.922,27.610 C49.864,27.636 49.807,27.662 49.749,27.688 C49.720,27.794 49.691,27.899 49.662,28.004 C49.634,28.004 49.605,28.004 49.576,28.004 C49.576,28.057 49.576,28.109 49.576,28.162 C49.547,28.162 49.518,28.162 49.489,28.162 C49.461,28.320 49.432,28.478 49.403,28.635 C49.374,28.635 49.345,28.635 49.316,28.635 C49.316,28.741 49.316,28.846 49.316,28.951 C49.288,28.951 49.259,28.951 49.230,28.951 C49.230,29.056 49.230,29.161 49.230,29.267 C49.201,29.267 49.172,29.267 49.143,29.267 C49.143,29.477 49.143,29.688 49.143,29.898 C49.114,29.898 49.086,29.898 49.057,29.898 C48.939,30.284 49.057,31.361 49.143,31.634 C49.143,31.818 49.143,32.002 49.143,32.186 C49.893,34.478 50.778,35.599 54.075,35.580 C54.507,35.527 54.940,35.474 55.373,35.422 C55.373,35.395 55.373,35.369 55.373,35.343 C55.546,35.317 55.719,35.290 55.892,35.264 C55.892,35.238 55.892,35.211 55.892,35.185 C56.065,35.132 56.238,35.080 56.411,35.027 C56.411,35.001 56.411,34.975 56.411,34.948 C56.469,34.948 56.526,34.948 56.584,34.948 C56.613,34.896 56.642,34.843 56.671,34.790 C56.728,34.790 56.786,34.790 56.844,34.790 C56.872,34.738 56.901,34.685 56.930,34.633 C56.988,34.633 57.045,34.633 57.103,34.633 C57.132,34.580 57.161,34.527 57.190,34.475 C57.276,34.449 57.363,34.422 57.449,34.396 C57.449,34.370 57.449,34.343 57.449,34.317 C57.578,34.224 57.603,34.208 57.795,34.159 C57.795,34.712 57.795,35.264 57.795,35.816 C57.709,35.843 57.622,35.869 57.536,35.895 C57.507,35.948 57.478,36.000 57.449,36.053 C57.392,36.053 57.334,36.053 57.276,36.053 C57.276,36.079 57.276,36.106 57.276,36.132 C57.218,36.132 57.161,36.132 57.103,36.132 C57.103,36.158 57.103,36.185 57.103,36.211 C57.045,36.211 56.988,36.211 56.930,36.211 C56.930,36.237 56.930,36.263 56.930,36.290 C56.872,36.290 56.815,36.290 56.757,36.290 C56.757,36.316 56.757,36.342 56.757,36.369 C56.642,36.395 56.526,36.421 56.411,36.448 C56.411,36.474 56.411,36.500 56.411,36.527 C56.324,36.527 56.238,36.527 56.151,36.527 C56.151,36.553 56.151,36.579 56.151,36.605 C56.065,36.605 55.978,36.605 55.892,36.605 C55.892,36.632 55.892,36.658 55.892,36.684 C55.805,36.684 55.719,36.684 55.632,36.684 C55.632,36.711 55.632,36.737 55.632,36.763 C55.517,36.763 55.402,36.763 55.286,36.763 C55.286,36.790 55.286,36.816 55.286,36.842 C55.142,36.842 54.998,36.842 54.854,36.842 C54.854,36.868 54.854,36.895 54.854,36.921 C54.623,36.921 54.392,36.921 54.161,36.921 C54.161,36.947 54.161,36.974 54.161,37.000 C53.758,37.000 53.354,37.000 52.950,37.000 C52.950,36.974 52.950,36.947 52.950,36.921 C52.546,36.895 52.143,36.868 51.739,36.842 C49.323,36.137 48.118,34.920 47.326,32.739 C47.326,32.607 47.326,32.476 47.326,32.344 C47.195,31.943 47.153,31.479 47.153,30.924 C47.153,28.485 47.853,26.810 49.403,25.795 C49.489,25.689 49.576,25.584 49.662,25.479 C49.720,25.479 49.778,25.479 49.835,25.479 C49.864,25.426 49.893,25.374 49.922,25.321 C50.037,25.295 50.153,25.269 50.268,25.242 C50.268,25.216 50.268,25.190 50.268,25.163 C50.441,25.111 50.614,25.058 50.787,25.005 C50.787,24.979 50.787,24.953 50.787,24.927 C50.874,24.927 50.960,24.927 51.047,24.927 C51.047,24.900 51.047,24.874 51.047,24.848 C51.133,24.848 51.220,24.848 51.306,24.848 C52.073,24.576 52.710,24.531 53.815,24.532 C54.075,24.532 54.335,24.532 54.594,24.532 C54.594,24.558 54.594,24.585 54.594,24.611 C54.767,24.611 54.940,24.611 55.113,24.611 C55.113,24.637 55.113,24.664 55.113,24.690 C55.229,24.690 55.344,24.690 55.459,24.690 C55.459,24.716 55.459,24.742 55.459,24.769 C55.575,24.769 55.690,24.769 55.805,24.769 C55.805,24.795 55.805,24.821 55.805,24.848 C55.892,24.848 55.978,24.848 56.065,24.848 C56.065,24.874 56.065,24.900 56.065,24.927 C56.151,24.927 56.238,24.927 56.324,24.927 C56.324,24.953 56.324,24.979 56.324,25.005 C56.382,25.005 56.440,25.005 56.497,25.005 C56.497,25.032 56.497,25.058 56.497,25.084 C56.584,25.084 56.671,25.084 56.757,25.084 C56.757,25.111 56.757,25.137 56.757,25.163 C56.930,25.216 57.103,25.269 57.276,25.321 C57.305,25.374 57.334,25.426 57.363,25.479 C57.420,25.479 57.478,25.479 57.536,25.479 C57.536,25.505 57.536,25.532 57.536,25.558 C57.622,25.584 57.709,25.610 57.795,25.637 ZM70.514,24.769 C74.234,24.769 77.955,24.769 81.675,24.769 C81.675,25.216 81.675,25.663 81.675,26.110 C80.118,26.110 78.560,26.110 77.003,26.110 C77.003,29.661 77.003,33.213 77.003,36.763 C76.397,36.763 75.791,36.763 75.186,36.763 C75.186,33.213 75.186,29.661 75.186,26.110 C73.629,26.110 72.071,26.110 70.514,26.110 C70.514,25.663 70.514,25.216 70.514,24.769 ZM98.200,25.873 C98.200,25.900 98.200,25.926 98.200,25.952 C98.056,25.952 97.912,25.952 97.767,25.952 C97.767,25.979 97.767,26.005 97.767,26.031 C97.594,26.058 97.421,26.084 97.248,26.110 C97.248,26.137 97.248,26.163 97.248,26.189 C97.133,26.215 97.018,26.242 96.902,26.268 C96.902,26.294 96.902,26.321 96.902,26.347 C96.845,26.347 96.787,26.347 96.729,26.347 C95.906,26.844 95.270,27.863 94.912,28.793 C94.912,28.898 94.912,29.004 94.912,29.109 C94.761,29.541 94.739,30.002 94.739,30.608 C94.739,32.836 95.272,34.133 96.729,35.027 C96.758,35.080 96.787,35.132 96.816,35.185 C96.873,35.185 96.931,35.185 96.989,35.185 C96.989,35.211 96.989,35.238 96.989,35.264 C97.046,35.264 97.104,35.264 97.162,35.264 C97.162,35.290 97.162,35.317 97.162,35.343 C97.248,35.343 97.335,35.343 97.421,35.343 C97.421,35.369 97.421,35.395 97.421,35.422 C97.508,35.422 97.594,35.422 97.681,35.422 C97.681,35.448 97.681,35.474 97.681,35.501 C97.899,35.570 99.440,35.667 99.757,35.580 C99.757,35.553 99.757,35.527 99.757,35.501 C99.873,35.501 99.988,35.501 100.104,35.501 C100.104,35.474 100.104,35.448 100.104,35.422 C100.277,35.395 100.450,35.369 100.623,35.343 C100.623,35.317 100.623,35.290 100.623,35.264 C100.680,35.264 100.738,35.264 100.796,35.264 C100.825,35.211 100.853,35.159 100.882,35.106 C100.940,35.106 100.998,35.106 101.055,35.106 C101.084,35.054 101.113,35.001 101.142,34.948 C101.199,34.948 101.257,34.948 101.315,34.948 C101.430,34.817 101.546,34.685 101.661,34.554 C101.747,34.501 101.834,34.449 101.920,34.396 C101.920,34.343 101.920,34.291 101.920,34.238 C102.007,34.186 102.093,34.133 102.180,34.080 C102.180,34.028 102.180,33.975 102.180,33.922 C102.209,33.922 102.238,33.922 102.267,33.922 C102.267,33.870 102.267,33.817 102.267,33.765 C102.295,33.765 102.324,33.765 102.353,33.765 C102.353,33.712 102.353,33.659 102.353,33.607 C102.382,33.607 102.411,33.607 102.440,33.607 C102.440,33.554 102.440,33.502 102.440,33.449 C102.468,33.449 102.497,33.449 102.526,33.449 C102.526,33.396 102.526,33.344 102.526,33.291 C102.555,33.291 102.584,33.291 102.613,33.291 C102.613,33.212 102.613,33.133 102.613,33.054 C102.641,33.054 102.670,33.054 102.699,33.054 C102.699,33.002 102.699,32.949 102.699,32.897 C102.728,32.897 102.757,32.897 102.786,32.897 C102.786,32.791 102.786,32.686 102.786,32.581 C102.814,32.581 102.843,32.581 102.872,32.581 C102.872,32.449 102.872,32.318 102.872,32.186 C102.901,32.186 102.930,32.186 102.959,32.186 C102.959,32.002 102.959,31.818 102.959,31.634 C102.988,31.634 103.016,31.634 103.045,31.634 C103.167,31.238 103.048,30.103 102.959,29.819 C102.959,29.635 102.959,29.451 102.959,29.267 C102.930,29.267 102.901,29.267 102.872,29.267 C102.872,29.161 102.872,29.056 102.872,28.951 C102.843,28.951 102.814,28.951 102.786,28.951 C102.786,28.846 102.786,28.741 102.786,28.635 C102.757,28.635 102.728,28.635 102.699,28.635 C102.699,28.556 102.699,28.478 102.699,28.399 C102.670,28.399 102.641,28.399 102.613,28.399 C102.613,28.320 102.613,28.241 102.613,28.162 C102.584,28.162 102.555,28.162 102.526,28.162 C102.497,28.057 102.468,27.951 102.440,27.846 C102.411,27.846 102.382,27.846 102.353,27.846 C102.324,27.741 102.295,27.636 102.267,27.531 C102.209,27.504 102.151,27.478 102.093,27.452 C102.093,27.399 102.093,27.347 102.093,27.294 C101.978,27.215 101.863,27.136 101.747,27.057 C101.004,26.125 99.987,25.856 98.200,25.873 Z"/>
</svg>