<svg xmlns="http://www.w3.org/2000/svg" width="332px" height="68px" viewBox="0 0 1383 283.997"><defs><style>.cls-1{fill:#1f191a;}.cls-2{fill:#00c3c3;}.cls-3{isolation:isolate;font-size:67px;fill:#fff;font-family:Open Sans , sans-serif;}</style></defs><title>Ресурс 2</title><g id="Слой_2" data-name="Слой 2"><g id="Слой_1-2" data-name="Слой 1"><path class="cls-1" d="M116.808,183.4V230.6h10.71a6.818,6.818,0,0,0,1,1v9.706a6.818,6.818,0,0,0-1,1h-10.71v7.364h10.71a6.869,6.869,0,0,0,1,1v9.706a6.818,6.818,0,0,0-1,1h-10.71v9.371h16.735a6.82,6.82,0,0,0,1,1v9.371l-1.339,1v.335H105.429a6.371,6.371,0,0,0-1-1V184.075h-.334v-.335a14.347,14.347,0,0,1-6.694-2.008h-.67l-.334-.669-1.339-.335c-.112-.223-.223-.446-.335-.67h-.669l-1.674-2.008h-.669v-.334l-1-.67v-.669L88.694,174.7v-.669l-.67-.335v-.669l-.669-.335q-.167-.669-.335-1.338h-.334q-.334-1-.67-2.009h-.334v-1h-.335v-.669h-.335v-1.339h-.334v-1h-.335q-.168-2.007-.335-4.016h-.335v-3.682c0-3.453-.109-7.135.67-9.706q.167-1.506.335-3.012c1.952-5.481,4.667-9.622,9.036-12.718l.67-1h.669l.335-.669h.669c.112-.223.223-.447.335-.67h.669v-.334h.67v-.335h1v-.335H99.4v-.334l6.359-1.339c1.591-.444,5.919.017,7.029.334h2.343v.335h1.673v.335h1.339v.335h.669v.334h1v.335l2.009.669v.335l1.338.335.67,1h.669l1,1.338h.67l1.338,1.674.67.335v.669l1.673,1.339v.669l.67.335q.166.5.334,1h.335q.168.669.335,1.339h.334q.168.669.335,1.338h.335v1h.334v.67h.335v1h.335v1.339h.334v1.338h.335V148.6h.335v2.677c.82,2.945.45,9.107-.335,11.714v1.674q-1,3.012-2.008,6.024h-.335v.67l-.669.334q-.168.669-.335,1.339l-.669.335v.669l-1,.669v.67l-1.674,1.339-2.677,3.012h-.67l-.334.669h-.67c-.111.223-.223.446-.334.67l-1.339.334A15.283,15.283,0,0,1,116.808,183.4Zm185.086-56.227c6.64-.075,10.835.4,15.061,2.677l1.339.335v.335l1,.334c.111.223.223.447.335.67h.669l2.678,3.012,2.342,2.008v.669l1.005.67v.669h.334v.67l.67.334q.166.669.334,1.339H328v.669h.335v1h.334v.67H329v1h.335v1.339a32.738,32.738,0,0,1,1.338,10.375v4.016h-.334v2.678h-.335v2.008h-.335V166h-.334v1H329v1h-.335v1h-.334l-.67,2.008h-.334v.669H327q-.168.669-.335,1.339l-.669.335v.669l-1,.669v.67l-2.678,2.343-1.339,1.673H320.3l-.669,1h-.67c-.111.223-.223.446-.334.67h-.67v.334h-.669v.335h-.67v.335h-.669v.334h-.669v.335h-1.005v.335h-1v.334h-1.338v.335h-2.009v.335H305.91c-4.37,0-7.013-.129-10.041-1.339h-1V182.4H294.2v-.334h-1c-.112-.223-.223-.447-.335-.67l-2.008-.669-.669-1h-.67l-1.339-1.674L284.49,174.7v-.669l-.67-.335v-.669l-.669-.335q-.168-.669-.335-1.338h-.334q-.336-1-.67-2.009h-.335v-1h-.334v-1h-.335v-1h-.335V165h-.334v-1.674c-.825-2.742-1.24-9.887-.335-13.053v-2.343h.335v-1.673h.334v-1.339h.335v-1h.335v-1h.334v-.669h.335v-1h.335v-.67h.335V139.9l.669-.335q.168-.669.335-1.338l.669-.335v-.67l1.339-1v-.669l2.343-2.008,1-1.339h.669l.67-1h.669l.335-.669,1.338-.335q.168-.335.335-.669h1v-.335l1.339-.335v-.334l4.016-.67v-.335h2.678ZM11.38,148.933H32.131V129.186a6.872,6.872,0,0,0,1-1h9.036a6.423,6.423,0,0,0,1,1v52.881a6.872,6.872,0,0,0-1,1H33.135a6.518,6.518,0,0,0-1-1V158.973H11.38v23.094a6.84,6.84,0,0,0-1.005,1H1.339a6.377,6.377,0,0,0-1-1V129.186a6.872,6.872,0,0,0,1-1h9.036a6.609,6.609,0,0,0,1.005,1Zm180.734-20.082h20.417c3.452,0,7.137-.112,9.706.67h1.673v.334l3.012.67v.334l1.339.335v.335h.67l.334.669h.67l.669,1h.669q.168.335.335.67l1.339,1v.669l1,.669v.67h.335q.167.669.334,1.339h.335v1.338c.276.861,1.057,3.992.669,5.355h-.334v2.678h-.335c-.329.916-.2,1.924-.669,2.677l-.67.335v.669l-.669.335c-.766.813-2.016,1.853-2.343,3.012h.335c.357.424.591.35,1,.67v.334h.669c.112.223.223.447.335.67l2.343,2.008v.669l1,.67.669,2.008h.335c.754,1.743,1.06,8.576.335,10.71H237.3v1h-.335l-.669,2.008h-.335v.669l-1.673,1.339-2.343,2.677h-.67c-.111.224-.223.447-.334.67h-.67v.335l-2.008.669v.335l-2.008.334v.335h-1.339c-3.251,1.059-7.259,1-11.714,1H192.114a6.616,6.616,0,0,0-1-1V129.855A6.284,6.284,0,0,0,192.114,128.851Zm199.143,14.727v7.363h10.71a6.869,6.869,0,0,0,1,1v9.706a6.818,6.818,0,0,0-1,1h-10.71v9.371h16.735a6.769,6.769,0,0,0,1,1v9.706a6.615,6.615,0,0,0-1,1H391.257v43.509c.38.283.049-.042.335.335a11.484,11.484,0,0,1,5.355,2.008h.669c.112.223.223.447.335.67h.669q.168.335.335.669h.669l1.005,1.339h.669l1.673,2.008.67.335v.669l1.339,1q.166.5.334,1l.67.335.669,2.008c2.831,4.541,3.347,8.974,3.347,16.4a25.808,25.808,0,0,1-.669,7.363v1.673H409v1h-.335v1h-.335v1h-.334v1h-.335l-.669,2.009h-.335v.669l-.669.335q-.168.669-.335,1.338l-1,.67v.669l-2.678,2.343-1.673,2.008h-.67l-.669,1-1.339.335-.334.669h-.67v.335l-1.339.335v.334l-2.008.335v.335l-2.677.334v.335H387.91c-1.107.308-5.446.786-7.028.335v-.335l-4.017-.335v-.334h-1v-.335h-1v-.335h-1V281.8h-.669v-.335l-2.009-.669v-.335l-1-.335-.334-.669h-.67l-3.347-3.682-1.673-1.339v-.669l-1-.669q-.168-.669-.335-1.339l-.669-.335q-.5-1.506-1-3.012H360.8v-.669h-.335v-1.339h-.334v-1H359.8v-1.339h-.335v-2.008h-.334v-3.012h-.335c-.471-1.692-.009-6.484.335-7.7v-3.012h.334v-1.674h.335v-1.338h.335v-1.339a24.849,24.849,0,0,1,9.036-12.384l.67-1h.669c2.21-1.478,4.847-3.2,8.367-3.347V132.867a7,7,0,0,0,1.005-1h5.689c.54-.479,3.588-.646,4.686-.334,3.092.878,8.026.289,11.714.334a6.819,6.819,0,0,0,1,1v9.706a6.813,6.813,0,0,0-1,1.005Zm-284.49-6.36v.335h-1.338v.335h-1v.335l-2.008.669v.335h-.669l-.67,1h-.669v.334l-1,.67v.669l-.669.335v.669l-.67.335v.669h-.334q-.336,1-.67,2.008h-.335q-.167,1-.334,2.008h-.335v1.339c-2.3,6.944-.2,15.894,3.012,20.416l.67.335,1.338,1.673h.67c.111.223.223.447.335.67l1.338.334v.335l1.339.335v.334c.685.271,5.036.959,6.025.67v-.335h1.673V173.7l2.008-.334v-.335h.67V172.7l1.338-.334c.112-.223.224-.447.335-.67h.669l1.005-1.338.669-.335v-.67l.669-.334v-.67l.67-.334v-.67h.334q.168-.669.335-1.338h.335v-1h.335v-.67h.334q.168-1.338.335-2.677c2.089-6.5.055-15.416-3.012-19.747l-1-.669-1.339-1.674h-.67l-.334-.669-2.008-.669v-.335C112.277,137.086,109.4,137.186,106.767,137.218Zm207.51,3.347a3.781,3.781,0,0,1-1.673-1v-.334h-.669v-.335l-2.009-.669v-.335h-1v-.335a19.426,19.426,0,0,0-7.7,0v.335h-1v.335l-1.338.334v.335l-1.339.335-.335.669h-.669q-.5.669-1,1.339H295.2v.669l-.669.335v.669l-.67.335v.669h-.335l-.669,2.008h-.335l-.669,3.013h-.335q-.166,2.007-.334,4.016h-.335c-.6,2.139.243,6.292.669,7.7q.168,1.506.335,3.012h.335v1h.334v.669h.335v1h.335q.167.669.334,1.339l.67.335v.669l.669.335v.669l.67.335,1.338,1.673h.67l.334.67h.67q.166.335.335.669h1v.335h.669v.334h1.339a8.58,8.58,0,0,0,6.359,0h1.339v-.334l1.339-.335V172.7l1.338-.334c.112-.223.223-.447.335-.67h.669l1-1.338.67-.335v-.67l1-.669,2.343-5.355v-1.339h.335l.669-7.363h-.335v-3.347h-.334V149.6h-.335v-1.339h-.335v-1h-.335v-1h-.334v-.669h-.335q-.168-.837-.335-1.674l-.669-.334v-.67l-.669-.335V141.9h-.335A2.751,2.751,0,0,1,314.277,140.565Zm-110.783-2.008v11.38c4.4.067,9.953.372,13.388-.67l2.677-.334,2.678-1.674c.38-.533.016-.762.669-1.339q.168-1,.335-2.008h-.335v-1.339h-.335v-1h-.334q-.168-.5-.335-1a13.026,13.026,0,0,1-2.678-1v-.334l-3.346-.335v-.335Zm0,21.086v14.391c5.511.1,12.753.6,16.735-1h1l2.677-1.673q.168-.67.335-1.339h.335v-.67h.334c.841-2.142-.119-4.086-.334-6.024h-.335l-.335-1-.669-.335v-.334h-.67l-.334-.67c-.755-.466-1.764-.336-2.678-.669v-.335h-1.673C214.662,159.012,207.517,159.644,203.494,159.643ZM1,226.58H14.726l1.005,1.339h.334L23.094,249h.335v.67h.334v1H24.1v1h.335v1h.334v1H25.1q.168,1,.335,2.008h.334v.669h.335l.669,3.013h.335v1a22.99,22.99,0,0,1,1.339,3.346h.335q.5-1.841,1-3.681h.334q.168-1,.335-2.008h.335v-1h.334v-1h.335v-1H31.8v-1h.335v-.67h.334v-1H32.8v-1h.335v-1h.334v-1H33.8v-1h.335v-.67h.334q.336-1.506.67-3.012c.587-1.464,1.42-3.222,2.008-4.685v-1h.335v-1.005h.334v-1h.335v-1h.335v-.669h.334v-1h.335v-1h.335v-1h.335v-1h.334v-1H40.5v-.67h.335c.7-1.581-.159-1.588,1.338-2.677v-.335H55.894l1,1.339h.335v53.215a6.818,6.818,0,0,0-1,1H46.188a6.516,6.516,0,0,0-1-1V250.008h-.335v.67c-1,1.077-1.022,3.527-1.674,5.02-2.349,5.383-4.168,11.568-6.359,17.069v1h-.334v1h-.335v.67h-.335v1h-.334v1h-.335v1h-.335v1l-1,.669-.335.67H23.429q-.336-.5-.67-1h-.335q-.167-1-.334-2.008h-.335v-1H21.42v-.669h-.334q-.168-1-.335-2.008h-.335q-.167-1-.334-2.008c-.583-1.458-1.427-3.228-2.009-4.686L17.4,264.4h-.335v-.67h-.334v-1H16.4v-1h-.335v-1h-.334v-1H15.4v-1h-.335v-1h-.335v-.669h-.334q-.168-1-.335-2.008h-.335v-1h-.334v-1h-.335v-1h-.335v-.669h-.334q-.168-1-.335-2.008h-.335v31.795a6.869,6.869,0,0,0-1,1H1a6.664,6.664,0,0,0-1-1v-53.55A6.285,6.285,0,0,0,1,226.58Zm202.825.335c6.394-.134,11.642-.1,16.065,1.673h1v.335h.669v.335h1v.334h.67l4.351,3.012v9.372c-1.289.749-1.052,1.017-3.347,1-.362-.45-.918-.616-1.339-1-.112-.223-.223-.447-.335-.67H221.9l-.669-1h-.67l-.334-.669-1.339-.335v-.334l-1.339-.335v-.335h-1v-.335h-.669v-.334l-2.678-.335v-.335h-2.008a6.359,6.359,0,0,0-3.012-.334v.334h-2.343v.335l-2.343.335v.334h-1v.335h-.67v.335h-.669l-.335.669h-.669c-.112.223-.223.447-.335.67h-.669l-1,1.338H197.8v.67l-.669.334q-.168.5-.335,1h-.335v.67h-.334q-.168.669-.335,1.339h-.335q-.166,1-.334,2.008h-.335q-.168,1.338-.335,2.677h-.335v2.678h-.334v5.355h.334v2.343h.335v1.673h.335V263.4h.335v.669h.334v1h.335v.67h.335l.669,2.008.669.334v.67l2.009,1.673c.111.223.223.446.334.67h.67l.334.669,1.339.335v.334h1v.335h.67v.335h1.338v.334h1.674v.335H212.2v-.335h1.673V273.1h1.339v-.335h1v-.335h1V272.1l1.339-.335v-.335l1.339-.334q.167-.336.335-.67h.669q.167-.335.335-.669h.669l.669-1h.67l.669-1h2.678a6.872,6.872,0,0,0,1,1v9.036l-1.339,1v.335h-.669q-.168.334-.335.669l-1.339.335v.335h-.669v.335l-2.008.669v.335l-6.025,1.673h-2.677c-3.119.875-8.815.171-11.38-.669l-3.347-.67V281.8h-.669v-.335h-.67v-.335H195.8V280.8h-.669v-.335h-.67l-.335-.67h-.669l-.335-.669h-.669l-1.674-2.008-3.346-3.012v-.67l-.67-.334q-.167-.5-.335-1h-.334q-.168-.67-.335-1.339h-.335l-.669-2.008h-.335v-1h-.334v-.67h-.335q-.168-1.172-.335-2.342h-.334v-1.674c-.773-2.573-.671-6.25-.67-9.706a23.03,23.03,0,0,1,1-7.363v-1.339c1.917-5.417,4.418-9.306,8.7-12.383l1-1.339h.67l.334-.669h.67v-.335h.669v-.335l3.012-1v-.334h1v-.335h1v-.335C201.539,227.212,203.085,227.563,203.829,226.915Zm98.065,10.71V281.8a6.819,6.819,0,0,0-1,1h-9.037a6.379,6.379,0,0,0-1-1V237.625H273.78a6.918,6.918,0,0,0-1.005-1v-7.7a6.4,6.4,0,0,0,1.005-1h45.183a6.977,6.977,0,0,0,1,1v7.7a6.615,6.615,0,0,0-1,1Zm81-1v.334h-1.674v.335l-2.008.335v.334l-1.339.335v.335H377.2l-.669,1h-.67v.335l-1,.669v.669l-1,.67q-.168.669-.335,1.338l-.669.335q-.168.837-.335,1.674h-.334v.669h-.335q-.168,1-.335,2.008h-.335q-.166,1.674-.334,3.347c-1.487,5.229.751,13.7,2.677,16.734l.67.335v.669q.836.671,1.673,1.339l.67,1h.669c.112.223.223.447.335.67h.669v.334h.669v.335h1.005c1.3.514,4.637,1.729,7.028,1v-.335h1.339V273.1l2.008-.335,4.016-3.012v-.67l1-.669v-.669h.335v-.67h.335v-.669h.335v-.669h.334v-.67h.335v-1h.335V263.4h.334v-1.339c.786-2.408,1.517-6.757.67-9.706v-2.343h-.335v-1.339h-.335v-1.338C395.357,241.018,391.58,236.53,382.89,236.621Z"/><path class="cls-2" d="M483.1,0H1383l-34,263L517.452,283Z"/><text class="cls-3" transform="translate(576 161.129)">Инженерные системы</text></g></g></svg>