<svg xmlns="http://www.w3.org/2000/svg" width="40px" height="51px" viewBox="0 0 55 76.01"><defs><style>.cls-1{fill:#06c3c3;}</style></defs><title>Ресурс 5</title><g id="Слой_2" data-name="Слой 2"><g id="Слой_1-2" data-name="Слой 1"><path class="cls-1" d="M52.56,38.822c.148.1.3.206.449.3A156.586,156.586,0,0,1,27.7,76.01c-.119-.081-.246-.172-.367-.254-.075.051-.155.109-.23.16-.257-.276-.5-.566-.755-.844-.114-.08-.221-.152-.336-.233.022-.023.042-.048.063-.071A157.158,157.158,0,0,1,1.991,39.122c.145-.1.3-.2.448-.3a27.5,27.5,0,1,1,50.121,0ZM8.973,48h.242c-.162-.145-.337-.275-.5-.424C8.8,47.722,8.89,47.86,8.973,48ZM27,12A16,16,0,1,0,43,28,16,16,0,0,0,27,12ZM45.792,48h.2c.066-.114.137-.225.2-.339C46.063,47.783,45.922,47.886,45.792,48Z"/></g></g></svg>