<svg 
 xmlns="http://www.w3.org/2000/svg"
 xmlns:xlink="http://www.w3.org/1999/xlink"
 width="16px" height="10px" fill="#84a60c">
<path fill-rule="evenodd"  fill="rgb(132, 166, 12)"
 d="M15.685,10.000 L0.315,10.000 C0.140,10.000 -0.001,9.870 -0.001,9.710 L-0.001,0.290 C-0.001,0.130 0.140,0.000 0.315,0.000 L15.685,0.000 C15.860,0.000 16.001,0.130 16.001,0.290 L16.001,9.710 C16.001,9.870 15.860,10.000 15.685,10.000 ZM15.091,9.419 L10.441,3.868 L8.010,5.365 L5.541,3.848 L0.882,9.419 L15.091,9.419 ZM0.631,8.767 L5.014,3.525 L0.631,0.834 L0.631,8.767 ZM1.356,0.581 L8.001,4.661 L14.644,0.581 L1.356,0.581 ZM10.967,3.544 L15.369,8.799 L15.369,0.834 L10.967,3.544 Z"/>
</svg>