<svg 
 xmlns="http://www.w3.org/2000/svg"
 xmlns:xlink="http://www.w3.org/1999/xlink"
 width="25px" height="25px">
<path fill-rule="evenodd"  fill="rgb(255, 255, 255)"
 d="M12.500,25.000 C5.607,25.000 -0.000,19.393 -0.000,12.500 C-0.000,5.607 5.607,-0.000 12.500,-0.000 C19.393,-0.000 25.000,5.607 25.000,12.500 C25.000,19.393 19.393,25.000 12.500,25.000 ZM12.500,1.000 C6.159,1.000 1.000,6.159 1.000,12.500 C1.000,18.841 6.159,24.000 12.500,24.000 C18.841,24.000 24.000,18.841 24.000,12.500 C24.000,6.159 18.841,1.000 12.500,1.000 ZM18.338,19.009 L12.500,13.172 L6.662,19.009 L5.991,18.338 L11.828,12.500 L5.991,6.662 L6.662,5.991 L12.500,11.828 L18.338,5.991 L19.009,6.662 L13.172,12.500 L19.009,18.338 L18.338,19.009 Z"/>
</svg>