<?xml version="1.0" encoding="utf-8"?>
<!-- Generator: Adobe Illustrator 16.0.2, SVG Export Plug-In . SVG Version: 6.00 Build 0)  -->
<!DOCTYPE svg PUBLIC "-//W3C//DTD SVG 1.1//EN" "http://www.w3.org/Graphics/SVG/1.1/DTD/svg11.dtd">
<svg version="1.1" id="Layer_1" xmlns="http://www.w3.org/2000/svg" xmlns:xlink="http://www.w3.org/1999/xlink" x="0px" y="0px"
	 width="49px" height="52px" viewBox="0 0 198.426 209.776" enable-background="new 0 0 198.426 209.776"
	 xml:space="preserve">
<g>
	<g>
		<g>
			<path fill-rule="evenodd" clip-rule="evenodd" fill="#0C2227" d="M150.877,90.393c47.199-15.781,67.76,69.934,21.637,76.233
				c-18.756,2.562-39.029,2.765-48.838-19.903C112.775,121.534,125.987,98.713,150.877,90.393
				C167.846,84.721,142.558,93.174,150.877,90.393z M184.873,132.877c0.587-18.313-4.257-34.067-25.312-30.739
				c-17.069,2.698-30.737,16.845-24.728,34.413C142.188,158.054,183.938,162.15,184.873,132.877z"/>
		</g>
		<g>
			<path fill-rule="evenodd" clip-rule="evenodd" fill="#0C2227" d="M87.071,44.889c-2.015-7.006-5.289-13.745-5.384-21.183
				c-0.145-10.576,10.755-4.275,12.952,1.123c5.961,14.673,6.961,35.994,22.954,44.485c9.427,5.009,24.604-1.425,29.287-9.727
				c7.529-13.333-6.377-35.413-11.392-48.342c-2.563-6.614,3.304-12.143,10.235-11.123c7.846,1.155,9.826,14.626,11.811,20.706
				c4.932,15.08,9.444,37.281-2.577,50.308c-8.792,9.521-24.702,15.297-37.521,12.417C99.536,79.533,92.094,60.279,87.071,44.889
				C85.061,37.898,88.249,48.505,87.071,44.889z"/>
		</g>
		<g>
			<path fill-rule="evenodd" clip-rule="evenodd" fill="#0C2227" d="M58.51,137.636c-6.65,3.071-15.102,6.194-18.165-0.953
				c-3.869-9.026,14.78-10.384,11.021-15.966c-4.716-6.997-22.876,0.698-22.916,16.925c-0.06,24.468,28.096,14.697,38.972,9.68
				c8.381-3.869,20.309-4.031,28.528,4.996c7.946,8.724,4.512,21.635-6.393,29.903c-9.162,6.951-36.693,10.646-40.94,14.138
				c-8.85,7.276,2.668,16.133,12.387,12.625c30.885-11.146,49.001-19.674,51.291-39.693c1.646-14.372-3.612-32.447-21.662-35.993
				C79.421,131.096,70.993,131.871,58.51,137.636z"/>
		</g>
		<g>
			<path fill-rule="evenodd" clip-rule="evenodd" fill="#0C2227" d="M103.829,121.449c-15.244,4.964-19.341-18.065-5.677-22.918
				C111.574,93.771,120.832,114.921,103.829,121.449z"/>
		</g>
		<g>
			<path fill-rule="evenodd" clip-rule="evenodd" fill="#0C2227" d="M3.141,59.568c-5.102,11.79-3.4,22.366,0.911,34.035
				c2.295,6.217,5.047,26.272,11.274,29.57c10.231,5.416,7.45-13.204,5.269-18.76C16.454,93.87,10.572,82.768,12.3,71.085
				c2.738-18.535,21.54-25.148,36.143-20.8c15.434,4.597,21.314,26.569,9.803,35.02c-8.875,6.516-19.944,6.631-29.892,5.167
				c-2.739-0.403-5.66,2.196-3.754,5.098c2.514,3.83,10.652,4.974,14.585,5.361c5.065,0.496,8.569,0.38,13.419-1.095
				c7.758-2.361,8.914,3.37,16.148,6.47c2.802,1.201,10.843,0.787,11.723-2.802c1.305-5.333-8.744-9.521-12.342-11.178
				c4.078-3.406,5.462-8.275,6.902-13.387C85.968,40.208,20.604,19.208,3.141,59.568z"/>
		</g>
	</g>
</g>
</svg>
