<svg 
 xmlns="http://www.w3.org/2000/svg"
 xmlns:xlink="http://www.w3.org/1999/xlink"
 width="12px" height="21px">
<path fill-rule="evenodd"  opacity="0.902" fill="rgb(198, 198, 198)"
 d="M10.734,0.535 L8.057,0.531 C5.050,0.531 3.106,2.508 3.106,5.567 L3.106,7.889 L0.414,7.889 C0.183,7.889 -0.006,8.075 -0.006,8.305 L-0.006,11.670 C-0.006,11.902 0.183,12.087 0.414,12.087 L3.106,12.087 L3.106,20.575 C3.106,20.806 3.295,20.993 3.527,20.993 L7.038,20.993 C7.271,20.993 7.460,20.806 7.460,20.575 L7.460,12.087 L10.606,12.087 C10.838,12.087 11.027,11.902 11.027,11.670 L11.029,8.305 C11.029,8.196 10.983,8.088 10.904,8.010 C10.826,7.932 10.720,7.889 10.608,7.889 L7.460,7.889 L7.460,5.920 C7.460,4.974 7.686,4.493 8.930,4.493 L10.733,4.492 C10.965,4.492 11.154,4.305 11.154,4.078 L11.154,0.953 C11.154,0.721 10.965,0.535 10.734,0.535 Z"/>
</svg>