<svg 
 xmlns="http://www.w3.org/2000/svg"
 xmlns:xlink="http://www.w3.org/1999/xlink"
 width="26px" height="26px">
<path fill-rule="evenodd"  fill="rgb(198, 198, 198)"
 d="M15.859,-0.000 C15.859,0.030 15.859,0.060 15.859,0.090 C15.752,0.112 15.723,0.168 15.648,0.210 C15.608,0.220 15.568,0.230 15.528,0.240 C15.518,0.260 15.508,0.280 15.498,0.300 C15.458,0.310 15.417,0.320 15.377,0.330 C15.367,0.350 15.357,0.369 15.347,0.389 C15.287,0.409 15.227,0.429 15.167,0.449 C15.157,0.469 15.147,0.489 15.137,0.509 C15.117,0.509 15.096,0.509 15.076,0.509 C15.076,0.519 15.076,0.529 15.076,0.539 C15.056,0.539 15.036,0.539 15.016,0.539 C15.006,0.559 14.996,0.579 14.986,0.599 C14.926,0.619 14.866,0.639 14.806,0.659 C14.796,0.679 14.785,0.699 14.775,0.719 C14.735,0.729 14.695,0.739 14.655,0.749 C14.645,0.769 14.635,0.789 14.625,0.809 C14.585,0.819 14.545,0.829 14.505,0.839 C14.495,0.859 14.485,0.879 14.475,0.899 C14.414,0.919 14.354,0.939 14.294,0.959 C14.284,0.979 14.274,0.999 14.264,1.019 C14.224,1.029 14.184,1.039 14.144,1.049 C14.133,1.069 14.123,1.089 14.113,1.108 C14.093,1.108 14.073,1.108 14.053,1.108 C14.053,1.118 14.053,1.128 14.053,1.138 C13.361,1.138 12.669,1.138 11.977,1.138 C11.977,1.158 11.977,1.178 11.977,1.198 C12.007,1.208 12.037,1.218 12.067,1.228 C12.067,1.238 12.067,1.248 12.067,1.258 C12.097,1.268 12.127,1.278 12.157,1.288 C12.167,1.308 12.177,1.328 12.187,1.348 C12.218,1.358 12.248,1.368 12.278,1.378 C12.298,1.408 12.318,1.438 12.338,1.468 C12.368,1.478 12.398,1.488 12.428,1.498 C12.428,1.508 12.428,1.518 12.428,1.528 C12.498,1.594 12.565,1.679 12.669,1.708 C12.669,1.728 12.669,1.748 12.669,1.768 C12.833,1.864 12.921,2.033 13.030,2.187 C13.060,2.207 13.090,2.227 13.120,2.247 C13.120,2.267 13.120,2.287 13.120,2.307 C13.140,2.317 13.160,2.327 13.181,2.337 C13.181,2.357 13.181,2.377 13.181,2.397 C13.201,2.407 13.221,2.417 13.241,2.427 C13.241,2.447 13.241,2.467 13.241,2.487 C13.261,2.497 13.281,2.507 13.301,2.517 C13.301,2.537 13.301,2.557 13.301,2.576 C13.321,2.586 13.341,2.596 13.361,2.606 C13.361,2.626 13.361,2.646 13.361,2.666 C13.381,2.676 13.401,2.686 13.421,2.696 C13.421,2.716 13.421,2.736 13.421,2.756 C13.441,2.766 13.461,2.776 13.481,2.786 C13.502,2.846 13.522,2.906 13.542,2.966 C13.562,2.976 13.582,2.986 13.602,2.996 C13.612,3.036 13.622,3.076 13.632,3.116 C13.642,3.116 13.652,3.116 13.662,3.116 C13.662,3.136 13.662,3.156 13.662,3.176 C13.672,3.176 13.682,3.176 13.692,3.176 C13.712,3.236 13.732,3.296 13.752,3.355 C13.762,3.355 13.772,3.355 13.782,3.355 C13.782,3.385 13.782,3.415 13.782,3.445 C13.792,3.445 13.802,3.445 13.813,3.445 C13.823,3.485 13.833,3.525 13.843,3.565 C13.853,3.565 13.863,3.565 13.873,3.565 C13.943,3.775 14.013,3.985 14.083,4.194 C14.083,4.244 14.083,4.294 14.083,4.344 C14.093,4.344 14.103,4.344 14.113,4.344 C14.113,4.404 14.113,4.464 14.113,4.524 C14.123,4.524 14.133,4.524 14.144,4.524 C14.144,4.594 14.144,4.664 14.144,4.734 C14.154,4.734 14.164,4.734 14.174,4.734 C14.174,4.853 14.174,4.973 14.174,5.093 C14.184,5.093 14.194,5.093 14.204,5.093 C14.246,5.246 14.206,5.908 14.174,6.022 C14.174,6.132 14.174,6.242 14.174,6.351 C14.164,6.351 14.154,6.351 14.144,6.351 C14.144,6.431 14.144,6.511 14.144,6.591 C14.133,6.591 14.123,6.591 14.113,6.591 C14.113,6.651 14.113,6.711 14.113,6.771 C14.103,6.771 14.093,6.771 14.083,6.771 C14.083,6.821 14.083,6.871 14.083,6.921 C14.003,7.180 13.923,7.440 13.843,7.700 C13.833,7.700 13.823,7.700 13.813,7.700 C13.802,7.739 13.792,7.779 13.782,7.819 C13.772,7.819 13.762,7.819 13.752,7.819 C13.752,7.849 13.752,7.879 13.752,7.909 C13.742,7.909 13.732,7.909 13.722,7.909 C13.722,7.929 13.722,7.949 13.722,7.969 C13.712,7.969 13.702,7.969 13.692,7.969 C13.692,7.989 13.692,8.009 13.692,8.029 C13.672,8.039 13.652,8.049 13.632,8.059 C13.612,8.119 13.592,8.179 13.572,8.239 C13.552,8.249 13.532,8.259 13.512,8.269 C13.512,8.289 13.512,8.309 13.512,8.329 C13.502,8.329 13.492,8.329 13.481,8.329 C13.471,8.359 13.461,8.389 13.451,8.419 C13.431,8.429 13.411,8.439 13.391,8.448 C13.391,8.468 13.391,8.488 13.391,8.508 C13.361,8.528 13.331,8.548 13.301,8.568 C13.301,8.588 13.301,8.608 13.301,8.628 C13.271,8.648 13.241,8.668 13.211,8.688 C13.211,8.708 13.211,8.728 13.211,8.748 C13.171,8.778 13.130,8.808 13.090,8.838 C13.090,8.858 13.090,8.878 13.090,8.898 C13.040,8.938 12.990,8.978 12.940,9.018 C12.940,9.038 12.940,9.058 12.940,9.078 C12.850,9.158 12.759,9.237 12.669,9.317 C12.529,9.467 12.388,9.617 12.248,9.767 C12.228,9.767 12.208,9.767 12.187,9.767 C12.137,9.827 12.087,9.887 12.037,9.946 C12.007,9.966 11.977,9.986 11.947,10.006 C11.947,10.016 11.947,10.026 11.947,10.036 C11.927,10.036 11.907,10.036 11.887,10.036 C11.796,10.136 11.706,10.236 11.616,10.336 C11.556,10.386 11.495,10.436 11.435,10.486 C11.435,10.506 11.435,10.526 11.435,10.546 C11.405,10.566 11.375,10.586 11.345,10.606 C11.335,10.636 11.325,10.665 11.315,10.695 C11.295,10.705 11.275,10.715 11.255,10.725 C11.255,10.745 11.255,10.765 11.255,10.785 C11.235,10.795 11.215,10.805 11.194,10.815 C11.184,10.845 11.174,10.875 11.164,10.905 C11.154,10.905 11.144,10.905 11.134,10.905 C11.134,10.925 11.134,10.945 11.134,10.965 C11.114,10.975 11.094,10.985 11.074,10.995 C11.074,11.015 11.074,11.035 11.074,11.055 C11.054,11.065 11.034,11.075 11.014,11.085 C11.014,11.105 11.014,11.125 11.014,11.145 C11.004,11.145 10.994,11.145 10.984,11.145 C10.984,11.165 10.984,11.185 10.984,11.205 C10.974,11.205 10.964,11.205 10.954,11.205 C10.954,11.235 10.954,11.265 10.954,11.295 C10.944,11.295 10.934,11.295 10.924,11.295 C10.924,11.315 10.924,11.335 10.924,11.355 C10.914,11.355 10.904,11.355 10.894,11.355 C10.857,11.447 10.789,11.987 10.833,12.133 C10.879,12.284 10.961,12.525 11.044,12.643 C11.084,12.673 11.124,12.703 11.164,12.733 C11.164,12.753 11.164,12.773 11.164,12.793 C11.215,12.833 11.265,12.872 11.315,12.912 C11.315,12.932 11.315,12.952 11.315,12.972 C11.415,13.062 11.515,13.152 11.616,13.242 C11.666,13.302 11.716,13.362 11.766,13.422 C11.786,13.422 11.806,13.422 11.826,13.422 C11.867,13.472 11.907,13.522 11.947,13.572 C11.967,13.572 11.987,13.572 12.007,13.572 C12.037,13.611 12.067,13.651 12.097,13.691 C12.117,13.691 12.137,13.691 12.157,13.691 C12.198,13.741 12.238,13.791 12.278,13.841 C12.298,13.841 12.318,13.841 12.338,13.841 C12.368,13.881 12.398,13.921 12.428,13.961 C12.448,13.961 12.468,13.961 12.488,13.961 C12.529,14.011 12.569,14.061 12.609,14.111 C12.629,14.111 12.649,14.111 12.669,14.111 C12.699,14.151 12.729,14.191 12.759,14.231 C12.779,14.231 12.799,14.231 12.819,14.231 C12.870,14.291 12.920,14.350 12.970,14.410 C12.990,14.410 13.010,14.410 13.030,14.410 C13.090,14.480 13.150,14.550 13.211,14.620 C13.231,14.620 13.251,14.620 13.271,14.620 C13.361,14.720 13.451,14.820 13.542,14.920 C13.692,15.059 13.843,15.199 13.993,15.339 C13.993,15.359 13.993,15.379 13.993,15.399 C14.063,15.459 14.133,15.519 14.204,15.579 C14.204,15.599 14.204,15.619 14.204,15.639 C14.254,15.679 14.304,15.719 14.354,15.759 C14.354,15.778 14.354,15.798 14.354,15.818 C14.394,15.848 14.434,15.878 14.475,15.908 C14.475,15.928 14.475,15.948 14.475,15.968 C14.515,15.998 14.555,16.028 14.595,16.058 C14.595,16.078 14.595,16.098 14.595,16.118 C14.615,16.128 14.635,16.138 14.655,16.148 C14.665,16.178 14.675,16.208 14.685,16.238 C14.695,16.238 14.705,16.238 14.715,16.238 C14.725,16.278 14.735,16.318 14.745,16.358 C14.765,16.368 14.785,16.378 14.806,16.388 C14.816,16.428 14.826,16.468 14.836,16.508 C14.846,16.508 14.856,16.508 14.866,16.508 C14.876,16.547 14.886,16.587 14.896,16.627 C14.906,16.627 14.916,16.627 14.926,16.627 C14.926,16.657 14.926,16.687 14.926,16.717 C14.936,16.717 14.946,16.717 14.956,16.717 C14.966,16.757 14.976,16.797 14.986,16.837 C14.996,16.837 15.006,16.837 15.016,16.837 C15.026,16.897 15.036,16.957 15.046,17.017 C15.056,17.017 15.066,17.017 15.076,17.017 C15.076,17.047 15.076,17.077 15.076,17.107 C15.086,17.107 15.096,17.107 15.106,17.107 C15.106,17.137 15.106,17.167 15.106,17.197 C15.117,17.197 15.127,17.197 15.137,17.197 C15.137,17.227 15.137,17.256 15.137,17.286 C15.147,17.286 15.157,17.286 15.167,17.286 C15.167,17.326 15.167,17.366 15.167,17.406 C15.177,17.406 15.187,17.406 15.197,17.406 C15.207,17.496 15.217,17.586 15.227,17.676 C15.237,17.676 15.247,17.676 15.257,17.676 C15.267,17.796 15.277,17.916 15.287,18.035 C15.297,18.035 15.307,18.035 15.317,18.035 C15.317,18.135 15.317,18.235 15.317,18.335 C15.327,18.335 15.337,18.335 15.347,18.335 C15.391,18.490 15.350,19.178 15.317,19.294 C15.307,19.443 15.297,19.593 15.287,19.743 C15.277,19.743 15.267,19.743 15.257,19.743 C15.257,19.793 15.257,19.843 15.257,19.893 C15.247,19.893 15.237,19.893 15.227,19.893 C15.227,19.933 15.227,19.973 15.227,20.013 C15.217,20.013 15.207,20.013 15.197,20.013 C15.197,20.053 15.197,20.093 15.197,20.133 C15.187,20.133 15.177,20.133 15.167,20.133 C15.167,20.173 15.167,20.212 15.167,20.252 C15.157,20.252 15.147,20.252 15.137,20.252 C15.137,20.282 15.137,20.312 15.137,20.342 C15.127,20.342 15.117,20.342 15.106,20.342 C15.106,20.372 15.106,20.402 15.106,20.432 C15.096,20.432 15.086,20.432 15.076,20.432 C15.066,20.492 15.056,20.552 15.046,20.612 C15.036,20.612 15.026,20.612 15.016,20.612 C15.016,20.632 15.016,20.652 15.016,20.672 C15.006,20.672 14.996,20.672 14.986,20.672 C14.986,20.702 14.986,20.732 14.986,20.762 C14.976,20.762 14.966,20.762 14.956,20.762 C14.936,20.822 14.916,20.882 14.896,20.941 C14.886,20.941 14.876,20.941 14.866,20.941 C14.866,20.961 14.866,20.981 14.866,21.001 C14.856,21.001 14.846,21.001 14.836,21.001 C14.836,21.021 14.836,21.041 14.836,21.061 C14.826,21.061 14.816,21.061 14.806,21.061 C14.806,21.081 14.806,21.101 14.806,21.121 C14.796,21.121 14.785,21.121 14.775,21.121 C14.775,21.141 14.775,21.161 14.775,21.181 C14.765,21.181 14.755,21.181 14.745,21.181 C14.745,21.201 14.745,21.221 14.745,21.241 C14.735,21.241 14.725,21.241 14.715,21.241 C14.715,21.261 14.715,21.281 14.715,21.301 C14.705,21.301 14.695,21.301 14.685,21.301 C14.685,21.321 14.685,21.341 14.685,21.361 C14.665,21.371 14.645,21.381 14.625,21.391 C14.615,21.431 14.605,21.471 14.595,21.511 C14.585,21.511 14.575,21.511 14.565,21.511 C14.555,21.541 14.545,21.571 14.535,21.601 C14.515,21.611 14.495,21.621 14.475,21.631 C14.475,21.650 14.475,21.670 14.475,21.690 C14.454,21.700 14.434,21.710 14.414,21.720 C14.414,21.740 14.414,21.760 14.414,21.780 C14.384,21.800 14.354,21.820 14.324,21.840 C14.324,21.860 14.324,21.880 14.324,21.900 C14.304,21.910 14.284,21.920 14.264,21.930 C14.264,21.950 14.264,21.970 14.264,21.990 C14.234,22.010 14.204,22.030 14.174,22.050 C14.164,22.080 14.154,22.110 14.144,22.140 C14.083,22.190 14.023,22.240 13.963,22.290 C13.963,22.310 13.963,22.330 13.963,22.350 C13.843,22.459 13.722,22.569 13.602,22.679 C13.502,22.789 13.401,22.899 13.301,23.009 C13.281,23.009 13.261,23.009 13.241,23.009 C13.191,23.069 13.140,23.128 13.090,23.188 C13.070,23.188 13.050,23.188 13.030,23.188 C13.010,23.218 12.990,23.248 12.970,23.278 C12.950,23.278 12.930,23.278 12.910,23.278 C12.890,23.308 12.870,23.338 12.850,23.368 C12.819,23.378 12.789,23.388 12.759,23.398 C12.749,23.418 12.739,23.438 12.729,23.458 C12.709,23.458 12.689,23.458 12.669,23.458 C12.659,23.478 12.649,23.498 12.639,23.518 C12.609,23.528 12.579,23.538 12.549,23.548 C12.549,23.558 12.549,23.568 12.549,23.578 C12.529,23.578 12.508,23.578 12.488,23.578 C12.478,23.598 12.468,23.618 12.458,23.638 C12.428,23.648 12.398,23.658 12.368,23.668 C12.368,23.678 12.368,23.688 12.368,23.698 C12.328,23.708 12.288,23.718 12.248,23.728 C12.238,23.748 12.228,23.768 12.218,23.788 C12.198,23.788 12.177,23.788 12.157,23.788 C12.157,23.798 12.157,23.808 12.157,23.818 C12.137,23.818 12.117,23.818 12.097,23.818 C12.097,23.828 12.097,23.838 12.097,23.848 C12.077,23.848 12.057,23.848 12.037,23.848 C12.037,23.857 12.037,23.867 12.037,23.877 C12.017,23.877 11.997,23.877 11.977,23.877 C11.977,23.887 11.977,23.897 11.977,23.907 C11.957,23.907 11.937,23.907 11.917,23.907 C11.917,23.917 11.917,23.927 11.917,23.937 C11.897,23.937 11.877,23.937 11.856,23.937 C11.846,23.957 11.836,23.977 11.826,23.997 C11.796,23.997 11.766,23.997 11.736,23.997 C11.736,24.007 11.736,24.017 11.736,24.027 C11.716,24.027 11.696,24.027 11.676,24.027 C11.676,24.037 11.676,24.047 11.676,24.057 C11.656,24.057 11.636,24.057 11.616,24.057 C11.616,24.067 11.616,24.077 11.616,24.087 C11.556,24.107 11.495,24.127 11.435,24.147 C11.435,24.157 11.435,24.167 11.435,24.177 C11.405,24.177 11.375,24.177 11.345,24.177 C11.345,24.187 11.345,24.197 11.345,24.207 C11.325,24.207 11.305,24.207 11.285,24.207 C11.285,24.217 11.285,24.227 11.285,24.237 C11.235,24.247 11.184,24.257 11.134,24.267 C11.134,24.277 11.134,24.287 11.134,24.297 C11.104,24.297 11.074,24.297 11.044,24.297 C11.044,24.307 11.044,24.317 11.044,24.327 C11.024,24.327 11.004,24.327 10.984,24.327 C10.984,24.337 10.984,24.347 10.984,24.357 C10.894,24.377 10.803,24.397 10.713,24.417 C10.713,24.427 10.713,24.437 10.713,24.447 C10.683,24.447 10.653,24.447 10.623,24.447 C10.623,24.457 10.623,24.467 10.623,24.477 C10.593,24.477 10.562,24.477 10.532,24.477 C10.532,24.487 10.532,24.497 10.532,24.507 C10.462,24.517 10.392,24.527 10.322,24.537 C10.322,24.547 10.322,24.557 10.322,24.567 C10.252,24.577 10.181,24.587 10.111,24.596 C10.111,24.606 10.111,24.616 10.111,24.626 C10.071,24.626 10.031,24.626 9.991,24.626 C9.991,24.636 9.991,24.646 9.991,24.656 C9.941,24.656 9.890,24.656 9.840,24.656 C9.840,24.666 9.840,24.676 9.840,24.686 C9.800,24.686 9.760,24.686 9.720,24.686 C9.720,24.696 9.720,24.706 9.720,24.716 C9.670,24.716 9.620,24.716 9.569,24.716 C9.569,24.726 9.569,24.736 9.569,24.746 C9.519,24.746 9.469,24.746 9.419,24.746 C9.419,24.756 9.419,24.766 9.419,24.776 C9.369,24.776 9.319,24.776 9.269,24.776 C9.269,24.786 9.269,24.796 9.269,24.806 C9.208,24.806 9.148,24.806 9.088,24.806 C9.088,24.816 9.088,24.826 9.088,24.836 C9.018,24.836 8.948,24.836 8.877,24.836 C8.877,24.846 8.877,24.856 8.877,24.866 C8.807,24.866 8.737,24.866 8.667,24.866 C8.667,24.876 8.667,24.886 8.667,24.896 C8.476,24.906 8.285,24.916 8.095,24.926 C8.095,24.936 8.095,24.946 8.095,24.956 C7.965,24.956 7.834,24.956 7.704,24.956 C7.427,25.033 6.981,24.986 6.650,24.986 C6.453,24.986 6.198,24.998 6.049,24.956 C5.918,24.956 5.788,24.956 5.657,24.956 C5.657,24.946 5.657,24.936 5.657,24.926 C5.487,24.916 5.316,24.906 5.146,24.896 C5.146,24.886 5.146,24.876 5.146,24.866 C5.076,24.866 5.005,24.866 4.935,24.866 C4.935,24.856 4.935,24.846 4.935,24.836 C4.875,24.836 4.815,24.836 4.755,24.836 C4.755,24.826 4.755,24.816 4.755,24.806 C4.694,24.806 4.634,24.806 4.574,24.806 C4.574,24.796 4.574,24.786 4.574,24.776 C4.524,24.776 4.474,24.776 4.424,24.776 C4.424,24.766 4.424,24.756 4.424,24.746 C4.383,24.746 4.343,24.746 4.303,24.746 C4.303,24.736 4.303,24.726 4.303,24.716 C4.263,24.716 4.223,24.716 4.183,24.716 C4.183,24.706 4.183,24.696 4.183,24.686 C4.143,24.686 4.103,24.686 4.063,24.686 C4.063,24.676 4.063,24.666 4.063,24.656 C3.982,24.646 3.902,24.636 3.822,24.626 C3.822,24.616 3.822,24.606 3.822,24.596 C3.641,24.547 3.461,24.497 3.280,24.447 C3.280,24.437 3.280,24.427 3.280,24.417 C3.260,24.417 3.240,24.417 3.220,24.417 C3.220,24.407 3.220,24.397 3.220,24.387 C3.190,24.387 3.160,24.387 3.130,24.387 C3.130,24.377 3.130,24.367 3.130,24.357 C3.110,24.357 3.090,24.357 3.069,24.357 C3.069,24.347 3.069,24.337 3.069,24.327 C3.019,24.317 2.969,24.307 2.919,24.297 C2.919,24.287 2.919,24.277 2.919,24.267 C2.859,24.247 2.799,24.227 2.738,24.207 C2.738,24.197 2.738,24.187 2.738,24.177 C2.718,24.177 2.698,24.177 2.678,24.177 C2.678,24.167 2.678,24.157 2.678,24.147 C2.618,24.127 2.558,24.107 2.498,24.087 C2.488,24.067 2.478,24.047 2.468,24.027 C2.407,24.007 2.347,23.987 2.287,23.967 C2.287,23.957 2.287,23.947 2.287,23.937 C2.257,23.927 2.227,23.917 2.197,23.907 C2.187,23.887 2.177,23.867 2.167,23.848 C2.147,23.848 2.127,23.848 2.106,23.848 C2.096,23.828 2.086,23.808 2.076,23.788 C2.056,23.788 2.036,23.788 2.016,23.788 C1.996,23.758 1.976,23.728 1.956,23.698 C1.936,23.698 1.916,23.698 1.896,23.698 C1.876,23.668 1.856,23.638 1.836,23.608 C1.816,23.608 1.796,23.608 1.775,23.608 C1.765,23.588 1.755,23.568 1.745,23.548 C1.715,23.528 1.685,23.508 1.655,23.488 C1.655,23.478 1.655,23.468 1.655,23.458 C1.635,23.458 1.615,23.458 1.595,23.458 C1.555,23.408 1.515,23.358 1.475,23.308 C1.454,23.308 1.434,23.308 1.414,23.308 C1.324,23.208 1.234,23.109 1.144,23.009 C1.083,22.959 1.023,22.909 0.963,22.859 C0.963,22.839 0.963,22.819 0.963,22.799 C0.913,22.759 0.863,22.719 0.813,22.679 C0.802,22.649 0.792,22.619 0.782,22.589 C0.762,22.579 0.742,22.569 0.722,22.559 C0.722,22.539 0.722,22.519 0.722,22.499 C0.702,22.489 0.682,22.479 0.662,22.469 C0.652,22.439 0.642,22.409 0.632,22.380 C0.622,22.380 0.612,22.380 0.602,22.380 C0.602,22.360 0.602,22.340 0.602,22.320 C0.582,22.310 0.562,22.300 0.542,22.290 C0.532,22.250 0.522,22.210 0.512,22.170 C0.492,22.160 0.471,22.150 0.451,22.140 C0.441,22.100 0.431,22.060 0.421,22.020 C0.411,22.020 0.401,22.020 0.391,22.020 C0.371,21.960 0.351,21.900 0.331,21.840 C0.321,21.840 0.311,21.840 0.301,21.840 C0.301,21.810 0.301,21.780 0.301,21.750 C0.291,21.750 0.281,21.750 0.271,21.750 C0.271,21.730 0.271,21.710 0.271,21.690 C0.261,21.690 0.251,21.690 0.241,21.690 C0.231,21.641 0.221,21.591 0.211,21.541 C0.201,21.541 0.191,21.541 0.181,21.541 C0.171,21.471 0.160,21.401 0.150,21.331 C0.140,21.331 0.130,21.331 0.120,21.331 C0.120,21.291 0.120,21.251 0.120,21.211 C0.110,21.211 0.100,21.211 0.090,21.211 C0.090,21.171 0.090,21.131 0.090,21.091 C0.080,21.091 0.070,21.091 0.060,21.091 C0.060,21.031 0.060,20.971 0.060,20.912 C0.050,20.912 0.040,20.912 0.030,20.912 C0.030,20.832 0.030,20.752 0.030,20.672 C0.020,20.672 0.010,20.672 0.000,20.672 C0.010,20.372 0.020,20.073 0.030,19.773 C0.040,19.773 0.050,19.773 0.060,19.773 C0.080,19.633 0.100,19.493 0.120,19.354 C0.130,19.354 0.140,19.354 0.150,19.354 C0.150,19.324 0.150,19.294 0.150,19.264 C0.160,19.264 0.171,19.264 0.181,19.264 C0.181,19.234 0.181,19.204 0.181,19.174 C0.191,19.174 0.201,19.174 0.211,19.174 C0.211,19.144 0.211,19.114 0.211,19.084 C0.221,19.084 0.231,19.084 0.241,19.084 C0.241,19.054 0.241,19.024 0.241,18.994 C0.251,18.994 0.261,18.994 0.271,18.994 C0.281,18.934 0.291,18.874 0.301,18.814 C0.311,18.814 0.321,18.814 0.331,18.814 C0.341,18.774 0.351,18.734 0.361,18.695 C0.371,18.695 0.381,18.695 0.391,18.695 C0.391,18.665 0.391,18.635 0.391,18.605 C0.401,18.605 0.411,18.605 0.421,18.605 C0.441,18.545 0.461,18.485 0.481,18.425 C0.492,18.425 0.502,18.425 0.512,18.425 C0.512,18.405 0.512,18.385 0.512,18.365 C0.522,18.365 0.532,18.365 0.542,18.365 C0.542,18.345 0.542,18.325 0.542,18.305 C0.552,18.305 0.562,18.305 0.572,18.305 C0.572,18.285 0.572,18.265 0.572,18.245 C0.582,18.245 0.592,18.245 0.602,18.245 C0.602,18.225 0.602,18.205 0.602,18.185 C0.612,18.185 0.622,18.185 0.632,18.185 C0.632,18.165 0.632,18.145 0.632,18.125 C0.642,18.125 0.652,18.125 0.662,18.125 C0.662,18.105 0.662,18.085 0.662,18.065 C0.672,18.065 0.682,18.065 0.692,18.065 C0.692,18.045 0.692,18.025 0.692,18.005 C0.702,18.005 0.712,18.005 0.722,18.005 C0.732,17.976 0.742,17.946 0.752,17.916 C0.772,17.906 0.792,17.896 0.813,17.886 C0.813,17.866 0.813,17.846 0.813,17.826 C0.833,17.816 0.853,17.806 0.873,17.796 C0.873,17.776 0.873,17.756 0.873,17.736 C0.903,17.716 0.933,17.696 0.963,17.676 C0.963,17.656 0.963,17.636 0.963,17.616 C1.003,17.586 1.043,17.556 1.083,17.526 C1.083,17.506 1.083,17.486 1.083,17.466 C1.144,17.416 1.204,17.366 1.264,17.316 C1.364,17.207 1.465,17.097 1.565,16.987 C1.585,16.987 1.605,16.987 1.625,16.987 C1.665,16.937 1.705,16.887 1.745,16.837 C1.765,16.837 1.785,16.837 1.806,16.837 C1.826,16.807 1.846,16.777 1.866,16.747 C1.886,16.747 1.906,16.747 1.926,16.747 C1.946,16.717 1.966,16.687 1.986,16.657 C2.006,16.657 2.026,16.657 2.046,16.657 C2.056,16.637 2.066,16.617 2.076,16.597 C2.106,16.587 2.137,16.577 2.167,16.567 C2.167,16.557 2.167,16.547 2.167,16.537 C2.187,16.537 2.207,16.537 2.227,16.537 C2.237,16.517 2.247,16.498 2.257,16.478 C2.277,16.478 2.297,16.478 2.317,16.478 C2.327,16.458 2.337,16.438 2.347,16.418 C2.367,16.418 2.387,16.418 2.407,16.418 C2.417,16.398 2.427,16.378 2.437,16.358 C2.478,16.348 2.518,16.338 2.558,16.328 C2.568,16.308 2.578,16.288 2.588,16.268 C2.748,16.198 2.909,16.128 3.069,16.058 C3.069,16.048 3.069,16.038 3.069,16.028 C3.090,16.028 3.110,16.028 3.130,16.028 C3.130,16.018 3.130,16.008 3.130,15.998 C3.150,15.998 3.170,15.998 3.190,15.998 C3.190,15.988 3.190,15.978 3.190,15.968 C3.210,15.968 3.230,15.968 3.250,15.968 C3.250,15.958 3.250,15.948 3.250,15.938 C3.270,15.938 3.290,15.938 3.310,15.938 C3.310,15.928 3.310,15.918 3.310,15.908 C3.370,15.888 3.431,15.868 3.491,15.848 C3.491,15.838 3.491,15.828 3.491,15.818 C3.521,15.818 3.551,15.818 3.581,15.818 C3.581,15.808 3.581,15.798 3.581,15.788 C3.621,15.779 3.661,15.769 3.701,15.759 C3.701,15.749 3.701,15.739 3.701,15.729 C3.731,15.729 3.762,15.729 3.792,15.729 C3.792,15.719 3.792,15.709 3.792,15.699 C3.812,15.699 3.832,15.699 3.852,15.699 C3.852,15.689 3.852,15.679 3.852,15.669 C3.882,15.669 3.912,15.669 3.942,15.669 C3.942,15.659 3.942,15.649 3.942,15.639 C3.962,15.639 3.982,15.639 4.002,15.639 C4.002,15.629 4.002,15.619 4.002,15.609 C4.093,15.589 4.183,15.569 4.273,15.549 C4.273,15.539 4.273,15.529 4.273,15.519 C4.293,15.519 4.313,15.519 4.333,15.519 C4.333,15.509 4.333,15.499 4.333,15.489 C4.394,15.479 4.454,15.469 4.514,15.459 C4.514,15.449 4.514,15.439 4.514,15.429 C4.554,15.429 4.594,15.429 4.634,15.429 C4.634,15.419 4.634,15.409 4.634,15.399 C4.664,15.399 4.694,15.399 4.725,15.399 C4.725,15.389 4.725,15.379 4.725,15.369 C4.755,15.369 4.785,15.369 4.815,15.369 C4.815,15.359 4.815,15.349 4.815,15.339 C4.895,15.329 4.975,15.319 5.056,15.309 C5.056,15.299 5.056,15.289 5.056,15.279 C5.086,15.279 5.116,15.279 5.146,15.279 C5.146,15.269 5.146,15.259 5.146,15.249 C5.186,15.249 5.226,15.249 5.266,15.249 C5.266,15.239 5.266,15.229 5.266,15.219 C5.356,15.209 5.447,15.199 5.537,15.189 C5.537,15.179 5.537,15.169 5.537,15.159 C5.587,15.159 5.637,15.159 5.687,15.159 C5.999,15.064 6.422,15.070 6.741,14.980 C6.831,14.980 6.921,14.980 7.012,14.980 C7.012,14.970 7.012,14.960 7.012,14.950 C7.102,14.950 7.192,14.950 7.282,14.950 C7.282,14.940 7.282,14.930 7.282,14.920 C7.373,14.920 7.463,14.920 7.553,14.920 C7.553,14.910 7.553,14.900 7.553,14.890 C7.674,14.890 7.794,14.890 7.914,14.890 C7.914,14.880 7.914,14.870 7.914,14.860 C8.205,14.850 8.496,14.840 8.787,14.830 C8.768,14.746 8.741,14.706 8.697,14.650 C8.687,14.650 8.677,14.650 8.667,14.650 C8.667,14.630 8.667,14.610 8.667,14.590 C8.647,14.580 8.627,14.570 8.606,14.560 C8.606,14.540 8.606,14.520 8.606,14.500 C8.586,14.490 8.566,14.480 8.546,14.470 C8.546,14.450 8.546,14.430 8.546,14.410 C8.526,14.400 8.506,14.390 8.486,14.380 C8.486,14.360 8.486,14.340 8.486,14.320 C8.466,14.311 8.446,14.301 8.426,14.291 C8.416,14.251 8.406,14.211 8.396,14.171 C8.376,14.161 8.356,14.151 8.336,14.141 C8.326,14.101 8.316,14.061 8.306,14.021 C8.285,14.011 8.265,14.001 8.245,13.991 C8.225,13.931 8.205,13.871 8.185,13.811 C8.175,13.811 8.165,13.811 8.155,13.811 C8.155,13.791 8.155,13.771 8.155,13.751 C8.135,13.741 8.115,13.731 8.095,13.721 C8.095,13.701 8.095,13.681 8.095,13.661 C8.085,13.661 8.075,13.661 8.065,13.661 C8.065,13.641 8.065,13.621 8.065,13.601 C8.055,13.601 8.045,13.601 8.035,13.601 C8.035,13.572 8.035,13.542 8.035,13.512 C8.025,13.512 8.015,13.512 8.005,13.512 C8.005,13.492 8.005,13.472 8.005,13.452 C7.995,13.452 7.985,13.452 7.975,13.452 C7.965,13.382 7.954,13.312 7.944,13.242 C7.934,13.242 7.924,13.242 7.914,13.242 C7.914,13.202 7.914,13.162 7.914,13.122 C7.904,13.122 7.894,13.122 7.884,13.122 C7.884,13.052 7.884,12.982 7.884,12.912 C7.874,12.912 7.864,12.912 7.854,12.912 C7.803,12.732 7.871,12.075 7.914,11.954 C7.924,11.954 7.934,11.954 7.944,11.954 C7.944,11.924 7.944,11.894 7.944,11.864 C7.954,11.864 7.965,11.864 7.975,11.864 C7.975,11.844 7.975,11.824 7.975,11.804 C7.985,11.804 7.995,11.804 8.005,11.804 C8.015,11.744 8.025,11.684 8.035,11.624 C8.080,11.508 8.147,11.424 8.155,11.265 C7.618,11.366 6.510,11.379 6.019,11.235 C5.908,11.225 5.798,11.215 5.687,11.205 C5.367,11.105 5.045,11.005 4.725,10.905 C4.725,10.895 4.725,10.885 4.725,10.875 C4.664,10.855 4.604,10.835 4.544,10.815 C4.544,10.805 4.544,10.795 4.544,10.785 C4.524,10.785 4.504,10.785 4.484,10.785 C4.484,10.775 4.484,10.765 4.484,10.755 C4.464,10.755 4.444,10.755 4.424,10.755 C4.424,10.745 4.424,10.735 4.424,10.725 C4.404,10.725 4.383,10.725 4.363,10.725 C4.363,10.715 4.363,10.705 4.363,10.695 C4.343,10.695 4.323,10.695 4.303,10.695 C4.303,10.685 4.303,10.675 4.303,10.665 C4.283,10.665 4.263,10.665 4.243,10.665 C4.243,10.655 4.243,10.645 4.243,10.636 C4.223,10.636 4.203,10.636 4.183,10.636 C4.173,10.616 4.163,10.596 4.153,10.576 C4.133,10.576 4.113,10.576 4.093,10.576 C4.083,10.556 4.073,10.536 4.063,10.516 C4.042,10.516 4.022,10.516 4.002,10.516 C3.992,10.496 3.982,10.476 3.972,10.456 C3.952,10.456 3.932,10.456 3.912,10.456 C3.902,10.436 3.892,10.416 3.882,10.396 C3.862,10.396 3.842,10.396 3.822,10.396 C3.802,10.366 3.782,10.336 3.762,10.306 C3.742,10.306 3.721,10.306 3.701,10.306 C3.661,10.256 3.621,10.206 3.581,10.156 C3.561,10.156 3.541,10.156 3.521,10.156 C3.441,10.066 3.360,9.976 3.280,9.887 C3.230,9.847 3.180,9.807 3.130,9.767 C3.130,9.747 3.130,9.727 3.130,9.707 C3.039,9.627 2.949,9.547 2.859,9.467 C2.859,9.447 2.859,9.427 2.859,9.407 C2.809,9.367 2.758,9.327 2.708,9.287 C2.708,9.267 2.708,9.247 2.708,9.227 C2.678,9.207 2.648,9.187 2.618,9.168 C2.618,9.148 2.618,9.128 2.618,9.108 C2.588,9.088 2.558,9.068 2.528,9.048 C2.528,9.028 2.528,9.008 2.528,8.988 C2.508,8.978 2.488,8.968 2.468,8.958 C2.458,8.928 2.448,8.898 2.437,8.868 C2.427,8.868 2.417,8.868 2.407,8.868 C2.397,8.828 2.387,8.788 2.377,8.748 C2.357,8.738 2.337,8.728 2.317,8.718 C2.307,8.678 2.297,8.638 2.287,8.598 C2.267,8.588 2.247,8.578 2.227,8.568 C2.217,8.528 2.207,8.488 2.197,8.448 C2.187,8.448 2.177,8.448 2.167,8.448 C2.167,8.429 2.167,8.409 2.167,8.389 C2.157,8.389 2.147,8.389 2.137,8.389 C2.117,8.329 2.096,8.269 2.076,8.209 C2.066,8.209 2.056,8.209 2.046,8.209 C2.046,8.179 2.046,8.149 2.046,8.119 C2.036,8.119 2.026,8.119 2.016,8.119 C2.016,8.099 2.016,8.079 2.016,8.059 C2.006,8.059 1.996,8.059 1.986,8.059 C1.986,8.029 1.986,7.999 1.986,7.969 C1.976,7.969 1.966,7.969 1.956,7.969 C1.956,7.949 1.956,7.929 1.956,7.909 C1.946,7.909 1.936,7.909 1.926,7.909 C1.896,7.779 1.866,7.650 1.836,7.520 C1.603,6.861 1.572,5.606 1.806,4.913 C1.816,4.833 1.826,4.754 1.836,4.674 C1.846,4.674 1.856,4.674 1.866,4.674 C1.866,4.644 1.866,4.614 1.866,4.584 C1.876,4.584 1.886,4.584 1.896,4.584 C1.896,4.554 1.896,4.524 1.896,4.494 C1.906,4.494 1.916,4.494 1.926,4.494 C1.926,4.464 1.926,4.434 1.926,4.404 C1.936,4.404 1.946,4.404 1.956,4.404 C1.966,4.344 1.976,4.284 1.986,4.224 C1.996,4.224 2.006,4.224 2.016,4.224 C2.016,4.204 2.016,4.184 2.016,4.164 C2.026,4.164 2.036,4.164 2.046,4.164 C2.046,4.134 2.046,4.104 2.046,4.074 C2.056,4.074 2.066,4.074 2.076,4.074 C2.086,4.035 2.096,3.995 2.106,3.955 C2.117,3.955 2.127,3.955 2.137,3.955 C2.137,3.925 2.137,3.895 2.137,3.865 C2.147,3.865 2.157,3.865 2.167,3.865 C2.187,3.805 2.207,3.745 2.227,3.685 C2.237,3.685 2.247,3.685 2.257,3.685 C2.267,3.645 2.277,3.605 2.287,3.565 C2.307,3.555 2.327,3.545 2.347,3.535 C2.367,3.475 2.387,3.415 2.407,3.355 C2.427,3.345 2.448,3.335 2.468,3.325 C2.478,3.286 2.488,3.246 2.498,3.206 C2.518,3.196 2.538,3.186 2.558,3.176 C2.558,3.156 2.558,3.136 2.558,3.116 C2.578,3.106 2.598,3.096 2.618,3.086 C2.618,3.066 2.618,3.046 2.618,3.026 C2.638,3.016 2.658,3.006 2.678,2.996 C2.678,2.976 2.678,2.956 2.678,2.936 C2.698,2.926 2.718,2.916 2.738,2.906 C2.738,2.886 2.738,2.866 2.738,2.846 C2.769,2.826 2.799,2.806 2.829,2.786 C2.829,2.766 2.829,2.746 2.829,2.726 C2.859,2.706 2.889,2.686 2.919,2.666 C2.919,2.646 2.919,2.626 2.919,2.606 C2.959,2.576 2.999,2.547 3.039,2.517 C3.771,1.503 4.967,0.816 6.259,0.360 C6.299,0.360 6.340,0.360 6.380,0.360 C6.380,0.350 6.380,0.340 6.380,0.330 C6.420,0.330 6.460,0.330 6.500,0.330 C6.500,0.320 6.500,0.310 6.500,0.300 C6.540,0.300 6.580,0.300 6.620,0.300 C6.620,0.290 6.620,0.280 6.620,0.270 C6.671,0.270 6.721,0.270 6.771,0.270 C6.771,0.260 6.771,0.250 6.771,0.240 C6.821,0.240 6.871,0.240 6.921,0.240 C6.921,0.230 6.921,0.220 6.921,0.210 C6.981,0.210 7.042,0.210 7.102,0.210 C7.267,0.161 7.505,0.138 7.674,0.090 C7.754,0.090 7.834,0.090 7.914,0.090 C7.914,0.080 7.914,0.070 7.914,0.060 C8.015,0.060 8.115,0.060 8.215,0.060 C8.215,0.050 8.215,0.040 8.215,0.030 C8.336,0.030 8.456,0.030 8.576,0.030 C8.576,0.020 8.576,0.010 8.576,-0.000 C9.128,-0.000 9.680,-0.000 10.231,-0.000 C12.107,-0.000 13.983,-0.000 15.859,-0.000 ZM7.192,1.049 C7.117,1.112 6.911,1.073 6.801,1.108 C6.801,1.118 6.801,1.128 6.801,1.138 C6.761,1.138 6.721,1.138 6.681,1.138 C6.681,1.148 6.681,1.158 6.681,1.168 C6.640,1.168 6.600,1.168 6.560,1.168 C6.560,1.178 6.560,1.188 6.560,1.198 C6.530,1.198 6.500,1.198 6.470,1.198 C6.470,1.208 6.470,1.218 6.470,1.228 C6.440,1.228 6.410,1.228 6.380,1.228 C6.380,1.238 6.380,1.248 6.380,1.258 C6.360,1.258 6.340,1.258 6.319,1.258 C6.319,1.268 6.319,1.278 6.319,1.288 C6.289,1.288 6.259,1.288 6.229,1.288 C6.229,1.298 6.229,1.308 6.229,1.318 C6.189,1.328 6.149,1.338 6.109,1.348 C6.109,1.358 6.109,1.368 6.109,1.378 C6.069,1.388 6.029,1.398 5.988,1.408 C5.978,1.428 5.968,1.448 5.958,1.468 C5.918,1.478 5.878,1.488 5.838,1.498 C5.818,1.528 5.798,1.558 5.778,1.588 C5.758,1.588 5.738,1.588 5.718,1.588 C5.708,1.608 5.698,1.628 5.687,1.648 C5.667,1.648 5.647,1.648 5.627,1.648 C5.577,1.708 5.527,1.768 5.477,1.828 C5.457,1.828 5.437,1.828 5.417,1.828 C5.377,1.877 5.336,1.927 5.296,1.977 C5.276,1.987 5.256,1.997 5.236,2.007 C5.236,2.027 5.236,2.047 5.236,2.067 C5.196,2.097 5.156,2.127 5.116,2.157 C5.116,2.177 5.116,2.197 5.116,2.217 C5.096,2.227 5.076,2.237 5.056,2.247 C5.046,2.287 5.035,2.327 5.025,2.367 C5.005,2.377 4.985,2.387 4.965,2.397 C4.945,2.457 4.925,2.517 4.905,2.576 C4.895,2.576 4.885,2.576 4.875,2.576 C4.875,2.596 4.875,2.616 4.875,2.636 C4.865,2.636 4.855,2.636 4.845,2.636 C4.845,2.656 4.845,2.676 4.845,2.696 C4.835,2.696 4.825,2.696 4.815,2.696 C4.795,2.756 4.775,2.816 4.755,2.876 C4.745,2.876 4.735,2.876 4.725,2.876 C4.725,2.906 4.725,2.936 4.725,2.966 C4.715,2.966 4.704,2.966 4.694,2.966 C4.694,2.986 4.694,3.006 4.694,3.026 C4.684,3.026 4.674,3.026 4.664,3.026 C4.644,3.116 4.624,3.206 4.604,3.296 C4.594,3.296 4.584,3.296 4.574,3.296 C4.574,3.335 4.574,3.375 4.574,3.415 C4.361,4.054 4.372,5.192 4.574,5.842 C4.574,5.892 4.574,5.942 4.574,5.992 C4.584,5.992 4.594,5.992 4.604,5.992 C4.604,6.032 4.604,6.072 4.604,6.112 C4.614,6.112 4.624,6.112 4.634,6.112 C4.634,6.152 4.634,6.192 4.634,6.232 C4.644,6.232 4.654,6.232 4.664,6.232 C4.664,6.271 4.664,6.311 4.664,6.351 C4.674,6.351 4.684,6.351 4.694,6.351 C4.694,6.391 4.694,6.431 4.694,6.471 C4.704,6.471 4.715,6.471 4.725,6.471 C4.725,6.501 4.725,6.531 4.725,6.561 C4.735,6.561 4.745,6.561 4.755,6.561 C4.755,6.591 4.755,6.621 4.755,6.651 C4.765,6.651 4.775,6.651 4.785,6.651 C4.785,6.681 4.785,6.711 4.785,6.741 C4.795,6.741 4.805,6.741 4.815,6.741 C4.815,6.771 4.815,6.801 4.815,6.831 C4.825,6.831 4.835,6.831 4.845,6.831 C4.845,6.861 4.845,6.891 4.845,6.921 C4.855,6.921 4.865,6.921 4.875,6.921 C4.885,6.980 4.895,7.040 4.905,7.100 C5.354,8.132 5.846,9.119 6.711,9.737 C6.741,9.777 6.771,9.817 6.801,9.857 C6.831,9.867 6.861,9.877 6.891,9.887 C6.901,9.907 6.911,9.926 6.921,9.946 C6.941,9.946 6.961,9.946 6.981,9.946 C6.992,9.966 7.002,9.986 7.012,10.006 C7.052,10.016 7.092,10.026 7.132,10.036 C7.142,10.056 7.152,10.076 7.162,10.096 C7.202,10.106 7.242,10.116 7.282,10.126 C7.768,10.386 8.550,10.578 9.238,10.366 C9.289,10.366 9.339,10.366 9.389,10.366 C9.620,10.276 9.850,10.186 10.081,10.096 C10.091,10.076 10.101,10.056 10.111,10.036 C10.151,10.026 10.191,10.016 10.231,10.006 C10.231,9.996 10.231,9.986 10.231,9.976 C10.262,9.966 10.292,9.956 10.322,9.946 C10.332,9.926 10.342,9.907 10.352,9.887 C10.372,9.887 10.392,9.887 10.412,9.887 C10.432,9.857 10.452,9.827 10.472,9.797 C10.492,9.797 10.512,9.797 10.532,9.797 C10.593,9.727 10.653,9.657 10.713,9.587 C10.763,9.547 10.813,9.507 10.863,9.467 C10.873,9.427 10.883,9.387 10.894,9.347 C10.914,9.337 10.934,9.327 10.954,9.317 C10.974,9.257 10.994,9.197 11.014,9.138 C11.024,9.138 11.034,9.138 11.044,9.138 C11.044,9.118 11.044,9.098 11.044,9.078 C11.054,9.078 11.064,9.078 11.074,9.078 C11.094,9.018 11.114,8.958 11.134,8.898 C11.144,8.898 11.154,8.898 11.164,8.898 C11.164,8.868 11.164,8.838 11.164,8.808 C11.174,8.808 11.184,8.808 11.194,8.808 C11.194,8.788 11.194,8.768 11.194,8.748 C11.204,8.748 11.215,8.748 11.225,8.748 C11.225,8.718 11.225,8.688 11.225,8.658 C11.235,8.658 11.245,8.658 11.255,8.658 C11.255,8.628 11.255,8.598 11.255,8.568 C11.265,8.568 11.275,8.568 11.285,8.568 C11.285,8.528 11.285,8.488 11.285,8.448 C11.295,8.448 11.305,8.448 11.315,8.448 C11.315,8.409 11.315,8.369 11.315,8.329 C11.325,8.329 11.335,8.329 11.345,8.329 C11.345,8.269 11.345,8.209 11.345,8.149 C11.355,8.149 11.365,8.149 11.375,8.149 C11.385,7.899 11.395,7.650 11.405,7.400 C11.415,7.400 11.425,7.400 11.435,7.400 C11.474,7.261 11.432,6.897 11.405,6.801 C11.405,6.661 11.405,6.521 11.405,6.381 C11.395,6.381 11.385,6.381 11.375,6.381 C11.375,6.301 11.375,6.222 11.375,6.142 C11.365,6.142 11.355,6.142 11.345,6.142 C11.315,5.912 11.285,5.682 11.255,5.453 C11.245,5.453 11.235,5.453 11.225,5.453 C11.215,5.363 11.204,5.273 11.194,5.183 C11.184,5.183 11.174,5.183 11.164,5.183 C11.144,5.073 11.124,4.963 11.104,4.853 C11.094,4.853 11.084,4.853 11.074,4.853 C11.074,4.823 11.074,4.793 11.074,4.764 C11.064,4.764 11.054,4.764 11.044,4.764 C11.044,4.734 11.044,4.704 11.044,4.674 C11.034,4.674 11.024,4.674 11.014,4.674 C11.014,4.644 11.014,4.614 11.014,4.584 C11.004,4.584 10.994,4.584 10.984,4.584 C10.984,4.554 10.984,4.524 10.984,4.494 C10.974,4.494 10.964,4.494 10.954,4.494 C10.934,4.404 10.914,4.314 10.894,4.224 C10.883,4.224 10.873,4.224 10.863,4.224 C10.863,4.204 10.863,4.184 10.863,4.164 C10.853,4.164 10.843,4.164 10.833,4.164 C10.833,4.134 10.833,4.104 10.833,4.074 C10.823,4.074 10.813,4.074 10.803,4.074 C10.793,4.025 10.783,3.975 10.773,3.925 C10.763,3.925 10.753,3.925 10.743,3.925 C10.743,3.905 10.743,3.885 10.743,3.865 C10.733,3.865 10.723,3.865 10.713,3.865 C10.713,3.835 10.713,3.805 10.713,3.775 C10.703,3.775 10.693,3.775 10.683,3.775 C10.673,3.735 10.663,3.695 10.653,3.655 C10.643,3.655 10.633,3.655 10.623,3.655 C10.623,3.635 10.623,3.615 10.623,3.595 C10.613,3.595 10.603,3.595 10.593,3.595 C10.593,3.565 10.593,3.535 10.593,3.505 C10.583,3.505 10.573,3.505 10.562,3.505 C10.542,3.445 10.522,3.385 10.502,3.325 C10.492,3.325 10.482,3.325 10.472,3.325 C10.472,3.305 10.472,3.286 10.472,3.266 C10.462,3.266 10.452,3.266 10.442,3.266 C10.442,3.246 10.442,3.226 10.442,3.206 C10.432,3.206 10.422,3.206 10.412,3.206 C10.412,3.186 10.412,3.166 10.412,3.146 C10.402,3.146 10.392,3.146 10.382,3.146 C10.382,3.126 10.382,3.106 10.382,3.086 C10.372,3.086 10.362,3.086 10.352,3.086 C10.352,3.066 10.352,3.046 10.352,3.026 C10.342,3.026 10.332,3.026 10.322,3.026 C10.322,3.006 10.322,2.986 10.322,2.966 C10.302,2.956 10.282,2.946 10.262,2.936 C10.252,2.896 10.242,2.856 10.231,2.816 C10.211,2.806 10.191,2.796 10.171,2.786 C10.161,2.746 10.151,2.706 10.141,2.666 C10.121,2.656 10.101,2.646 10.081,2.636 C10.081,2.616 10.081,2.596 10.081,2.576 C10.051,2.557 10.021,2.537 9.991,2.517 C9.991,2.497 9.991,2.477 9.991,2.457 C9.961,2.437 9.931,2.417 9.900,2.397 C9.900,2.377 9.900,2.357 9.900,2.337 C9.850,2.297 9.800,2.257 9.750,2.217 C9.252,1.531 8.384,1.043 7.192,1.049 ZM20.884,7.220 C21.436,7.220 21.988,7.220 22.539,7.220 C22.539,8.368 22.539,9.517 22.539,10.665 C23.693,10.665 24.847,10.665 26.000,10.665 C26.000,11.215 26.000,11.764 26.000,12.313 C24.857,12.313 23.713,12.313 22.569,12.313 C22.482,12.551 22.539,13.088 22.539,13.392 C22.539,14.181 22.539,14.970 22.539,15.759 C22.409,15.806 22.176,15.788 21.998,15.788 C21.627,15.788 21.255,15.788 20.884,15.788 C20.884,14.640 20.884,13.492 20.884,12.343 C20.533,12.281 20.052,12.313 19.650,12.313 C18.898,12.313 18.146,12.313 17.394,12.313 C17.438,11.818 17.423,11.209 17.424,10.665 C18.577,10.665 19.731,10.665 20.884,10.665 C20.884,9.517 20.884,8.368 20.884,7.220 ZM8.275,15.699 C8.171,15.785 7.776,15.711 7.613,15.759 C7.202,15.838 6.791,15.918 6.380,15.998 C6.380,16.008 6.380,16.018 6.380,16.028 C6.340,16.028 6.299,16.028 6.259,16.028 C6.259,16.038 6.259,16.048 6.259,16.058 C6.219,16.058 6.179,16.058 6.139,16.058 C6.139,16.068 6.139,16.078 6.139,16.088 C6.099,16.088 6.059,16.088 6.019,16.088 C6.019,16.098 6.019,16.108 6.019,16.118 C5.978,16.118 5.938,16.118 5.898,16.118 C5.898,16.128 5.898,16.138 5.898,16.148 C5.868,16.148 5.838,16.148 5.808,16.148 C5.808,16.158 5.808,16.168 5.808,16.178 C5.708,16.198 5.607,16.218 5.507,16.238 C5.507,16.248 5.507,16.258 5.507,16.268 C5.487,16.268 5.467,16.268 5.447,16.268 C5.447,16.278 5.447,16.288 5.447,16.298 C5.417,16.298 5.387,16.298 5.356,16.298 C5.356,16.308 5.356,16.318 5.356,16.328 C5.306,16.338 5.256,16.348 5.206,16.358 C5.206,16.368 5.206,16.378 5.206,16.388 C5.186,16.388 5.166,16.388 5.146,16.388 C5.146,16.398 5.146,16.408 5.146,16.418 C5.116,16.418 5.086,16.418 5.056,16.418 C5.056,16.428 5.056,16.438 5.056,16.448 C5.015,16.458 4.975,16.468 4.935,16.478 C4.935,16.488 4.935,16.498 4.935,16.508 C4.905,16.508 4.875,16.508 4.845,16.508 C4.845,16.517 4.845,16.527 4.845,16.537 C4.805,16.547 4.765,16.557 4.725,16.567 C4.725,16.577 4.725,16.587 4.725,16.597 C4.684,16.607 4.644,16.617 4.604,16.627 C4.594,16.647 4.584,16.667 4.574,16.687 C4.534,16.697 4.494,16.707 4.454,16.717 C4.454,16.727 4.454,16.737 4.454,16.747 C4.424,16.757 4.394,16.767 4.363,16.777 C4.353,16.797 4.343,16.817 4.333,16.837 C4.313,16.837 4.293,16.837 4.273,16.837 C4.263,16.857 4.253,16.877 4.243,16.897 C4.223,16.897 4.203,16.897 4.183,16.897 C4.163,16.927 4.143,16.957 4.123,16.987 C4.103,16.987 4.083,16.987 4.063,16.987 C4.042,17.017 4.022,17.047 4.002,17.077 C3.982,17.077 3.962,17.077 3.942,17.077 C3.912,17.117 3.882,17.157 3.852,17.197 C3.762,17.276 3.671,17.356 3.581,17.436 C3.581,17.456 3.581,17.476 3.581,17.496 C3.541,17.526 3.501,17.556 3.461,17.586 C3.461,17.606 3.461,17.626 3.461,17.646 C3.441,17.656 3.421,17.666 3.400,17.676 C3.390,17.706 3.380,17.736 3.370,17.766 C3.360,17.766 3.350,17.766 3.340,17.766 C3.340,17.786 3.340,17.806 3.340,17.826 C3.320,17.836 3.300,17.846 3.280,17.856 C3.270,17.896 3.260,17.936 3.250,17.976 C3.230,17.985 3.210,17.995 3.190,18.005 C3.180,18.045 3.170,18.085 3.160,18.125 C3.150,18.125 3.140,18.125 3.130,18.125 C3.130,18.145 3.130,18.165 3.130,18.185 C3.120,18.185 3.110,18.185 3.100,18.185 C3.100,18.205 3.100,18.225 3.100,18.245 C3.090,18.245 3.079,18.245 3.069,18.245 C3.049,18.305 3.029,18.365 3.009,18.425 C2.999,18.425 2.989,18.425 2.979,18.425 C2.959,18.515 2.939,18.605 2.919,18.695 C2.909,18.695 2.899,18.695 2.889,18.695 C2.869,18.844 2.849,18.994 2.829,19.144 C2.819,19.144 2.809,19.144 2.799,19.144 C2.789,19.344 2.779,19.543 2.769,19.743 C2.779,19.743 2.789,19.743 2.799,19.743 C2.799,19.833 2.799,19.923 2.799,20.013 C2.819,20.143 2.839,20.272 2.859,20.402 C2.869,20.402 2.879,20.402 2.889,20.402 C2.889,20.442 2.889,20.482 2.889,20.522 C2.899,20.522 2.909,20.522 2.919,20.522 C2.919,20.562 2.919,20.602 2.919,20.642 C2.929,20.642 2.939,20.642 2.949,20.642 C2.949,20.672 2.949,20.702 2.949,20.732 C2.959,20.732 2.969,20.732 2.979,20.732 C2.979,20.752 2.979,20.772 2.979,20.792 C2.989,20.792 2.999,20.792 3.009,20.792 C3.009,20.822 3.009,20.852 3.009,20.882 C3.019,20.882 3.029,20.882 3.039,20.882 C3.049,20.921 3.059,20.961 3.069,21.001 C3.079,21.001 3.090,21.001 3.100,21.001 C3.110,21.051 3.120,21.101 3.130,21.151 C3.150,21.161 3.170,21.171 3.190,21.181 C3.210,21.241 3.230,21.301 3.250,21.361 C3.270,21.371 3.290,21.381 3.310,21.391 C3.310,21.411 3.310,21.431 3.310,21.451 C3.330,21.461 3.350,21.471 3.370,21.481 C3.370,21.501 3.370,21.521 3.370,21.541 C3.390,21.551 3.410,21.561 3.431,21.571 C3.441,21.601 3.451,21.631 3.461,21.660 C3.501,21.690 3.541,21.720 3.581,21.750 C3.581,21.770 3.581,21.790 3.581,21.810 C3.631,21.850 3.681,21.890 3.731,21.930 C3.812,22.020 3.892,22.110 3.972,22.200 C3.992,22.200 4.012,22.200 4.032,22.200 C4.073,22.250 4.113,22.300 4.153,22.350 C4.173,22.350 4.193,22.350 4.213,22.350 C4.233,22.380 4.253,22.409 4.273,22.439 C4.293,22.439 4.313,22.439 4.333,22.439 C4.353,22.469 4.373,22.499 4.394,22.529 C4.414,22.529 4.434,22.529 4.454,22.529 C4.464,22.549 4.474,22.569 4.484,22.589 C4.514,22.599 4.544,22.609 4.574,22.619 C4.574,22.629 4.574,22.639 4.574,22.649 C4.594,22.649 4.614,22.649 4.634,22.649 C4.644,22.669 4.654,22.689 4.664,22.709 C4.684,22.709 4.704,22.709 4.725,22.709 C4.735,22.729 4.745,22.749 4.755,22.769 C4.815,22.789 4.875,22.809 4.935,22.829 C4.945,22.849 4.955,22.869 4.965,22.889 C5.005,22.899 5.046,22.909 5.086,22.919 C5.086,22.929 5.086,22.939 5.086,22.949 C5.126,22.959 5.166,22.969 5.206,22.979 C5.206,22.989 5.206,22.999 5.206,23.009 C5.236,23.009 5.266,23.009 5.296,23.009 C5.296,23.019 5.296,23.029 5.296,23.039 C5.336,23.049 5.377,23.059 5.417,23.069 C5.417,23.079 5.417,23.089 5.417,23.099 C5.447,23.099 5.477,23.099 5.507,23.099 C5.507,23.109 5.507,23.119 5.507,23.128 C5.527,23.128 5.547,23.128 5.567,23.128 C5.567,23.138 5.567,23.148 5.567,23.158 C5.597,23.158 5.627,23.158 5.657,23.158 C5.657,23.168 5.657,23.178 5.657,23.188 C5.677,23.188 5.698,23.188 5.718,23.188 C5.718,23.198 5.718,23.208 5.718,23.218 C5.748,23.218 5.778,23.218 5.808,23.218 C5.808,23.228 5.808,23.238 5.808,23.248 C5.838,23.248 5.868,23.248 5.898,23.248 C5.898,23.258 5.898,23.268 5.898,23.278 C5.928,23.278 5.958,23.278 5.988,23.278 C5.988,23.288 5.988,23.298 5.988,23.308 C6.289,23.378 6.590,23.448 6.891,23.518 C7.022,23.528 7.152,23.538 7.282,23.548 C7.282,23.558 7.282,23.568 7.282,23.578 C7.363,23.578 7.443,23.578 7.523,23.578 C7.523,23.588 7.523,23.598 7.523,23.608 C7.644,23.608 7.764,23.608 7.884,23.608 C8.116,23.672 8.796,23.673 9.028,23.608 C9.138,23.608 9.248,23.608 9.359,23.608 C9.359,23.598 9.359,23.588 9.359,23.578 C9.439,23.578 9.519,23.578 9.600,23.578 C9.600,23.568 9.600,23.558 9.600,23.548 C9.720,23.538 9.840,23.528 9.961,23.518 C10.118,23.471 10.322,23.419 10.472,23.368 C10.512,23.368 10.552,23.368 10.593,23.368 C11.374,23.091 12.075,22.725 12.519,22.110 C12.559,22.080 12.599,22.050 12.639,22.020 C12.639,22.000 12.639,21.980 12.639,21.960 C12.659,21.950 12.679,21.940 12.699,21.930 C12.709,21.900 12.719,21.870 12.729,21.840 C12.739,21.840 12.749,21.840 12.759,21.840 C12.759,21.820 12.759,21.800 12.759,21.780 C12.779,21.770 12.799,21.760 12.819,21.750 C12.829,21.710 12.840,21.670 12.850,21.631 C12.860,21.631 12.870,21.631 12.880,21.631 C12.880,21.611 12.880,21.591 12.880,21.571 C12.890,21.571 12.900,21.571 12.910,21.571 C12.910,21.551 12.910,21.531 12.910,21.511 C12.920,21.511 12.930,21.511 12.940,21.511 C12.960,21.451 12.980,21.391 13.000,21.331 C13.010,21.331 13.020,21.331 13.030,21.331 C13.030,21.301 13.030,21.271 13.030,21.241 C13.040,21.241 13.050,21.241 13.060,21.241 C13.060,21.211 13.060,21.181 13.060,21.151 C13.070,21.151 13.080,21.151 13.090,21.151 C13.090,21.121 13.090,21.091 13.090,21.061 C13.100,21.061 13.110,21.061 13.120,21.061 C13.120,21.021 13.120,20.981 13.120,20.941 C13.130,20.941 13.140,20.941 13.150,20.941 C13.150,20.902 13.150,20.862 13.150,20.822 C13.160,20.822 13.171,20.822 13.181,20.822 C13.181,20.772 13.181,20.722 13.181,20.672 C13.306,20.254 13.241,19.591 13.120,19.234 C13.120,19.194 13.120,19.154 13.120,19.114 C13.020,18.884 12.920,18.655 12.819,18.425 C12.799,18.415 12.779,18.405 12.759,18.395 C12.749,18.355 12.739,18.315 12.729,18.275 C12.569,18.085 12.408,17.896 12.248,17.706 C12.228,17.706 12.208,17.706 12.187,17.706 C12.087,17.596 11.987,17.486 11.887,17.376 C11.867,17.376 11.846,17.376 11.826,17.376 C11.776,17.316 11.726,17.256 11.676,17.197 C11.656,17.197 11.636,17.197 11.616,17.197 C11.576,17.147 11.535,17.097 11.495,17.047 C11.475,17.047 11.455,17.047 11.435,17.047 C11.405,17.007 11.375,16.967 11.345,16.927 C11.325,16.927 11.305,16.927 11.285,16.927 C11.255,16.887 11.225,16.847 11.194,16.807 C11.174,16.807 11.154,16.807 11.134,16.807 C11.124,16.787 11.114,16.767 11.104,16.747 C11.074,16.737 11.044,16.727 11.014,16.717 C10.984,16.677 10.954,16.637 10.924,16.597 C10.904,16.597 10.883,16.597 10.863,16.597 C10.843,16.567 10.823,16.537 10.803,16.508 C10.783,16.508 10.763,16.508 10.743,16.508 C10.723,16.478 10.703,16.448 10.683,16.418 C10.663,16.418 10.643,16.418 10.623,16.418 C10.603,16.388 10.583,16.358 10.562,16.328 C10.542,16.328 10.522,16.328 10.502,16.328 C10.482,16.298 10.462,16.268 10.442,16.238 C10.422,16.238 10.402,16.238 10.382,16.238 C10.372,16.218 10.362,16.198 10.352,16.178 C10.332,16.178 10.312,16.178 10.292,16.178 C10.272,16.148 10.252,16.118 10.231,16.088 C10.211,16.088 10.191,16.088 10.171,16.088 C10.151,16.058 10.131,16.028 10.111,15.998 C10.091,15.998 10.071,15.998 10.051,15.998 C10.041,15.978 10.031,15.958 10.021,15.938 C10.001,15.938 9.981,15.938 9.961,15.938 C9.941,15.908 9.921,15.878 9.900,15.848 C9.880,15.848 9.860,15.848 9.840,15.848 C9.830,15.828 9.820,15.808 9.810,15.788 C9.790,15.788 9.770,15.788 9.750,15.788 C9.740,15.769 9.730,15.749 9.720,15.729 C9.650,15.729 9.579,15.729 9.509,15.729 C9.205,15.642 8.642,15.699 8.275,15.699 Z"/>
</svg>