<svg 
 xmlns="http://www.w3.org/2000/svg"
 xmlns:xlink="http://www.w3.org/1999/xlink"
 width="26px" height="25px">
<path fill-rule="evenodd"  fill="rgb(198, 198, 198)"
 d="M2.817,0.010 C3.001,0.007 3.335,-0.018 3.484,0.024 C3.571,0.029 3.658,0.034 3.745,0.039 C3.814,0.059 3.911,0.076 3.977,0.097 C4.002,0.097 4.026,0.097 4.050,0.097 C4.158,0.132 4.283,0.174 4.384,0.214 C4.413,0.219 4.442,0.224 4.471,0.229 C4.471,0.233 4.471,0.238 4.471,0.243 C4.480,0.243 4.490,0.243 4.500,0.243 C4.500,0.248 4.500,0.253 4.500,0.258 C4.514,0.258 4.529,0.258 4.543,0.258 C5.134,0.523 5.563,0.911 5.892,1.440 C5.892,1.450 5.892,1.460 5.892,1.469 C5.897,1.469 5.902,1.469 5.907,1.469 C5.907,1.479 5.907,1.489 5.907,1.498 C5.912,1.498 5.917,1.498 5.921,1.498 C5.921,1.508 5.921,1.518 5.921,1.528 C5.926,1.528 5.931,1.528 5.936,1.528 C5.936,1.537 5.936,1.547 5.936,1.557 C5.941,1.557 5.946,1.557 5.950,1.557 C5.950,1.567 5.950,1.576 5.950,1.586 C5.955,1.586 5.960,1.586 5.965,1.586 C5.965,1.596 5.965,1.606 5.965,1.615 C5.970,1.615 5.975,1.615 5.979,1.615 C5.989,1.644 5.999,1.674 6.008,1.703 C6.013,1.703 6.018,1.703 6.023,1.703 C6.023,1.717 6.023,1.732 6.023,1.747 C6.028,1.747 6.033,1.747 6.037,1.747 C6.042,1.766 6.047,1.786 6.052,1.805 C6.057,1.805 6.062,1.805 6.066,1.805 C6.071,1.834 6.076,1.863 6.081,1.893 C6.086,1.893 6.091,1.893 6.095,1.893 C6.095,1.907 6.095,1.922 6.095,1.936 C6.100,1.936 6.105,1.936 6.110,1.936 C6.110,1.951 6.110,1.966 6.110,1.980 C6.115,1.980 6.120,1.980 6.125,1.980 C6.125,1.995 6.125,2.009 6.125,2.024 C6.129,2.024 6.134,2.024 6.139,2.024 C6.139,2.039 6.139,2.053 6.139,2.068 C6.144,2.068 6.149,2.068 6.154,2.068 C6.154,2.082 6.154,2.097 6.154,2.112 C6.158,2.112 6.163,2.112 6.168,2.112 C6.168,2.131 6.168,2.151 6.168,2.170 C6.173,2.170 6.178,2.170 6.183,2.170 C6.183,2.189 6.183,2.209 6.183,2.228 C6.187,2.228 6.192,2.228 6.197,2.228 C6.197,2.253 6.197,2.277 6.197,2.301 C6.202,2.301 6.207,2.301 6.212,2.301 C6.212,2.326 6.212,2.350 6.212,2.374 C6.216,2.374 6.221,2.374 6.226,2.374 C6.236,2.476 6.245,2.579 6.255,2.681 C6.260,2.681 6.265,2.681 6.270,2.681 C6.270,2.730 6.270,2.778 6.270,2.827 C6.270,2.948 6.282,3.109 6.255,3.206 C6.245,3.309 6.236,3.411 6.226,3.513 C6.221,3.513 6.216,3.513 6.212,3.513 C6.212,3.537 6.212,3.562 6.212,3.586 C6.207,3.586 6.202,3.586 6.197,3.586 C6.197,3.605 6.197,3.625 6.197,3.644 C6.192,3.644 6.187,3.644 6.183,3.644 C6.183,3.664 6.183,3.683 6.183,3.703 C6.178,3.703 6.173,3.703 6.168,3.703 C6.168,3.722 6.168,3.742 6.168,3.761 C6.163,3.761 6.158,3.761 6.154,3.761 C6.154,3.776 6.154,3.790 6.154,3.805 C6.149,3.805 6.144,3.805 6.139,3.805 C6.139,3.819 6.139,3.834 6.139,3.849 C6.134,3.849 6.129,3.849 6.125,3.849 C6.125,3.863 6.125,3.878 6.125,3.892 C6.120,3.892 6.115,3.892 6.110,3.892 C6.110,3.907 6.110,3.922 6.110,3.936 C6.105,3.936 6.100,3.936 6.095,3.936 C6.095,3.951 6.095,3.965 6.095,3.980 C6.091,3.980 6.086,3.980 6.081,3.980 C6.081,3.990 6.081,3.999 6.081,4.009 C6.076,4.009 6.071,4.009 6.066,4.009 C6.066,4.024 6.066,4.038 6.066,4.053 C6.062,4.053 6.057,4.053 6.052,4.053 C6.052,4.063 6.052,4.072 6.052,4.082 C6.047,4.082 6.042,4.082 6.037,4.082 C6.037,4.097 6.037,4.111 6.037,4.126 C6.033,4.126 6.028,4.126 6.023,4.126 C6.013,4.155 6.004,4.184 5.994,4.214 C5.989,4.214 5.984,4.214 5.979,4.214 C5.979,4.223 5.979,4.233 5.979,4.243 C5.975,4.243 5.970,4.243 5.965,4.243 C5.965,4.253 5.965,4.262 5.965,4.272 C5.960,4.272 5.955,4.272 5.950,4.272 C5.950,4.282 5.950,4.291 5.950,4.301 C5.946,4.301 5.941,4.301 5.936,4.301 C5.936,4.311 5.936,4.321 5.936,4.330 C5.931,4.330 5.926,4.330 5.921,4.330 C5.921,4.340 5.921,4.350 5.921,4.360 C5.912,4.364 5.902,4.369 5.892,4.374 C5.888,4.394 5.883,4.413 5.878,4.433 C5.868,4.437 5.859,4.442 5.849,4.447 C5.844,4.467 5.839,4.486 5.834,4.506 C5.830,4.506 5.825,4.506 5.820,4.506 C5.815,4.520 5.810,4.535 5.805,4.549 C5.796,4.554 5.786,4.559 5.776,4.564 C5.776,4.574 5.776,4.583 5.776,4.593 C5.762,4.603 5.747,4.613 5.733,4.622 C5.733,4.632 5.733,4.642 5.733,4.651 C5.723,4.656 5.713,4.661 5.704,4.666 C5.699,4.681 5.694,4.695 5.689,4.710 C5.670,4.724 5.651,4.739 5.631,4.754 C5.631,4.763 5.631,4.773 5.631,4.783 C5.568,4.841 5.506,4.900 5.443,4.958 C5.399,5.007 5.356,5.055 5.312,5.104 C5.302,5.104 5.293,5.104 5.283,5.104 C5.264,5.128 5.244,5.153 5.225,5.177 C5.215,5.177 5.206,5.177 5.196,5.177 C5.186,5.192 5.177,5.206 5.167,5.221 C5.157,5.221 5.148,5.221 5.138,5.221 C5.133,5.231 5.128,5.240 5.123,5.250 C5.114,5.250 5.104,5.250 5.094,5.250 C5.085,5.265 5.075,5.279 5.065,5.294 C5.056,5.294 5.046,5.294 5.036,5.294 C5.032,5.303 5.027,5.313 5.022,5.323 C5.003,5.328 4.983,5.333 4.964,5.338 C4.959,5.347 4.954,5.357 4.949,5.367 C4.930,5.372 4.911,5.376 4.891,5.381 C4.887,5.391 4.882,5.401 4.877,5.411 C4.867,5.411 4.857,5.411 4.848,5.411 C4.848,5.415 4.848,5.420 4.848,5.425 C4.838,5.425 4.828,5.425 4.819,5.425 C4.819,5.430 4.819,5.435 4.819,5.440 C4.809,5.440 4.799,5.440 4.790,5.440 C4.790,5.445 4.790,5.449 4.790,5.454 C4.780,5.454 4.770,5.454 4.761,5.454 C4.761,5.459 4.761,5.464 4.761,5.469 C4.751,5.469 4.741,5.469 4.732,5.469 C4.732,5.474 4.732,5.479 4.732,5.484 C4.722,5.484 4.712,5.484 4.703,5.484 C4.703,5.488 4.703,5.493 4.703,5.498 C4.693,5.498 4.683,5.498 4.674,5.498 C4.674,5.503 4.674,5.508 4.674,5.513 C4.645,5.522 4.616,5.532 4.587,5.542 C4.587,5.547 4.587,5.552 4.587,5.557 C4.572,5.557 4.558,5.557 4.543,5.557 C4.543,5.561 4.543,5.566 4.543,5.571 C4.524,5.576 4.504,5.581 4.485,5.586 C4.485,5.591 4.485,5.595 4.485,5.600 C4.442,5.610 4.398,5.620 4.355,5.630 C4.355,5.634 4.355,5.639 4.355,5.644 C4.340,5.644 4.326,5.644 4.311,5.644 C4.311,5.649 4.311,5.654 4.311,5.659 C4.297,5.659 4.282,5.659 4.268,5.659 C4.268,5.664 4.268,5.668 4.268,5.673 C4.253,5.673 4.239,5.673 4.224,5.673 C4.224,5.678 4.224,5.683 4.224,5.688 C4.209,5.688 4.195,5.688 4.180,5.688 C4.180,5.693 4.180,5.698 4.180,5.702 C4.161,5.702 4.142,5.702 4.122,5.702 C4.122,5.707 4.122,5.712 4.122,5.717 C4.103,5.717 4.084,5.717 4.064,5.717 C4.064,5.722 4.064,5.727 4.064,5.732 C4.045,5.732 4.026,5.732 4.006,5.732 C4.006,5.737 4.006,5.741 4.006,5.746 C3.987,5.746 3.968,5.746 3.948,5.746 C3.948,5.751 3.948,5.756 3.948,5.761 C3.924,5.761 3.900,5.761 3.876,5.761 C3.876,5.766 3.876,5.771 3.876,5.775 C3.852,5.775 3.827,5.775 3.803,5.775 C3.803,5.780 3.803,5.785 3.803,5.790 C3.687,5.800 3.571,5.810 3.455,5.819 C3.354,5.847 3.189,5.834 3.063,5.834 C2.722,5.834 2.419,5.804 2.164,5.717 C2.145,5.717 2.125,5.717 2.106,5.717 C2.106,5.712 2.106,5.707 2.106,5.702 C2.091,5.702 2.077,5.702 2.062,5.702 C2.062,5.698 2.062,5.693 2.062,5.688 C2.048,5.688 2.033,5.688 2.019,5.688 C2.019,5.683 2.019,5.678 2.019,5.673 C1.999,5.673 1.980,5.673 1.961,5.673 C1.961,5.668 1.961,5.664 1.961,5.659 C1.946,5.659 1.932,5.659 1.917,5.659 C1.917,5.654 1.917,5.649 1.917,5.644 C1.908,5.644 1.898,5.644 1.888,5.644 C1.888,5.639 1.888,5.634 1.888,5.630 C1.859,5.625 1.830,5.620 1.801,5.615 C1.801,5.610 1.801,5.605 1.801,5.600 C1.792,5.600 1.782,5.600 1.772,5.600 C1.772,5.595 1.772,5.591 1.772,5.586 C1.758,5.586 1.743,5.586 1.729,5.586 C1.729,5.581 1.729,5.576 1.729,5.571 C1.709,5.566 1.690,5.561 1.671,5.557 C1.671,5.552 1.671,5.547 1.671,5.542 C1.656,5.542 1.642,5.542 1.627,5.542 C1.627,5.537 1.627,5.532 1.627,5.527 C1.598,5.518 1.569,5.508 1.540,5.498 C1.540,5.493 1.540,5.488 1.540,5.484 C1.530,5.484 1.521,5.484 1.511,5.484 C1.511,5.479 1.511,5.474 1.511,5.469 C1.492,5.464 1.472,5.459 1.453,5.454 C1.448,5.445 1.443,5.435 1.439,5.425 C1.410,5.415 1.380,5.406 1.351,5.396 C1.351,5.391 1.351,5.386 1.351,5.381 C1.337,5.376 1.322,5.372 1.308,5.367 C1.303,5.357 1.298,5.347 1.293,5.338 C1.284,5.338 1.274,5.338 1.264,5.338 C1.260,5.328 1.255,5.318 1.250,5.308 C1.240,5.308 1.231,5.308 1.221,5.308 C1.221,5.304 1.221,5.299 1.221,5.294 C1.206,5.289 1.192,5.284 1.177,5.279 C1.173,5.269 1.168,5.260 1.163,5.250 C1.153,5.250 1.144,5.250 1.134,5.250 C1.124,5.235 1.115,5.221 1.105,5.206 C1.095,5.206 1.086,5.206 1.076,5.206 C1.066,5.192 1.056,5.177 1.047,5.162 C1.032,5.158 1.018,5.153 1.003,5.148 C0.979,5.119 0.955,5.089 0.931,5.060 C0.921,5.060 0.911,5.060 0.902,5.060 C0.863,5.016 0.824,4.973 0.786,4.929 C0.766,4.914 0.747,4.900 0.728,4.885 C0.728,4.875 0.728,4.866 0.728,4.856 C0.694,4.827 0.660,4.797 0.626,4.768 C0.626,4.759 0.626,4.749 0.626,4.739 C0.612,4.729 0.597,4.720 0.583,4.710 C0.583,4.700 0.583,4.690 0.583,4.681 C0.568,4.671 0.554,4.661 0.539,4.651 C0.539,4.642 0.539,4.632 0.539,4.622 C0.525,4.613 0.510,4.603 0.496,4.593 C0.496,4.583 0.496,4.574 0.496,4.564 C0.486,4.559 0.476,4.554 0.467,4.549 C0.467,4.540 0.467,4.530 0.467,4.520 C0.457,4.515 0.447,4.510 0.437,4.506 C0.433,4.486 0.428,4.467 0.423,4.447 C0.413,4.442 0.404,4.437 0.394,4.433 C0.389,4.413 0.384,4.394 0.379,4.374 C0.370,4.369 0.360,4.364 0.350,4.360 C0.341,4.330 0.331,4.301 0.321,4.272 C0.317,4.272 0.312,4.272 0.307,4.272 C0.307,4.262 0.307,4.253 0.307,4.243 C0.302,4.243 0.297,4.243 0.292,4.243 C0.283,4.214 0.273,4.184 0.263,4.155 C0.259,4.155 0.254,4.155 0.249,4.155 C0.244,4.131 0.239,4.107 0.234,4.082 C0.230,4.082 0.225,4.082 0.220,4.082 C0.220,4.072 0.220,4.063 0.220,4.053 C0.215,4.053 0.210,4.053 0.205,4.053 C0.201,4.024 0.196,3.995 0.191,3.965 C0.186,3.965 0.181,3.965 0.176,3.965 C0.176,3.956 0.176,3.946 0.176,3.936 C0.172,3.936 0.167,3.936 0.162,3.936 C0.157,3.907 0.152,3.878 0.147,3.849 C0.143,3.849 0.138,3.849 0.133,3.849 C0.133,3.829 0.133,3.810 0.133,3.790 C0.054,3.567 0.002,3.304 0.002,3.002 C0.002,2.889 -0.008,2.740 0.017,2.652 C0.022,2.574 0.026,2.496 0.031,2.418 C0.036,2.418 0.041,2.418 0.046,2.418 C0.055,2.345 0.065,2.272 0.075,2.199 C0.080,2.199 0.084,2.199 0.089,2.199 C0.089,2.180 0.089,2.160 0.089,2.141 C0.094,2.141 0.099,2.141 0.104,2.141 C0.109,2.107 0.113,2.073 0.118,2.039 C0.123,2.039 0.128,2.039 0.133,2.039 C0.133,2.024 0.133,2.009 0.133,1.995 C0.138,1.995 0.143,1.995 0.147,1.995 C0.147,1.980 0.147,1.966 0.147,1.951 C0.152,1.951 0.157,1.951 0.162,1.951 C0.167,1.922 0.172,1.893 0.176,1.863 C0.181,1.863 0.186,1.863 0.191,1.863 C0.191,1.854 0.191,1.844 0.191,1.834 C0.196,1.834 0.201,1.834 0.205,1.834 C0.205,1.820 0.205,1.805 0.205,1.790 C0.542,1.028 1.067,0.561 1.830,0.229 C1.859,0.224 1.888,0.219 1.917,0.214 C1.917,0.209 1.917,0.204 1.917,0.199 C1.932,0.199 1.946,0.199 1.961,0.199 C1.961,0.194 1.961,0.190 1.961,0.185 C1.975,0.185 1.990,0.185 2.004,0.185 C2.004,0.180 2.004,0.175 2.004,0.170 C2.019,0.170 2.033,0.170 2.048,0.170 C2.048,0.165 2.048,0.160 2.048,0.156 C2.062,0.156 2.077,0.156 2.091,0.156 C2.091,0.151 2.091,0.146 2.091,0.141 C2.111,0.141 2.130,0.141 2.149,0.141 C2.222,0.116 2.320,0.091 2.396,0.068 C2.425,0.068 2.454,0.068 2.483,0.068 C2.483,0.063 2.483,0.058 2.483,0.053 C2.512,0.053 2.541,0.053 2.570,0.053 C2.570,0.049 2.570,0.044 2.570,0.039 C2.604,0.039 2.638,0.039 2.672,0.039 C2.672,0.034 2.672,0.029 2.672,0.024 C2.723,0.009 2.784,0.039 2.817,0.010 ZM26.000,25.000 C24.143,25.000 22.286,25.000 20.429,25.000 C20.429,22.514 20.429,20.027 20.429,17.541 C20.429,17.142 20.429,16.743 20.429,16.344 C20.429,16.169 20.455,15.905 20.415,15.760 C20.415,15.692 20.415,15.624 20.415,15.556 C20.405,15.400 20.395,15.244 20.386,15.088 C20.352,14.879 20.318,14.670 20.284,14.461 C20.236,14.291 20.187,14.120 20.139,13.950 C20.134,13.950 20.129,13.950 20.124,13.950 C20.124,13.940 20.124,13.930 20.124,13.921 C20.120,13.921 20.115,13.921 20.110,13.921 C20.105,13.892 20.100,13.862 20.095,13.833 C20.091,13.833 20.086,13.833 20.081,13.833 C20.081,13.823 20.081,13.814 20.081,13.804 C20.076,13.804 20.071,13.804 20.066,13.804 C20.066,13.789 20.066,13.775 20.066,13.760 C20.062,13.760 20.057,13.760 20.052,13.760 C20.047,13.741 20.042,13.721 20.037,13.702 C20.033,13.702 20.028,13.702 20.023,13.702 C20.023,13.692 20.023,13.682 20.023,13.673 C20.018,13.673 20.013,13.673 20.008,13.673 C20.008,13.658 20.008,13.643 20.008,13.629 C20.003,13.629 19.999,13.629 19.994,13.629 C19.984,13.600 19.974,13.570 19.965,13.541 C19.960,13.541 19.955,13.541 19.950,13.541 C19.945,13.522 19.941,13.502 19.936,13.483 C19.926,13.478 19.916,13.473 19.907,13.468 C19.897,13.439 19.887,13.410 19.878,13.381 C19.868,13.376 19.858,13.371 19.849,13.366 C19.844,13.347 19.839,13.327 19.834,13.308 C19.825,13.303 19.815,13.298 19.805,13.293 C19.805,13.283 19.805,13.274 19.805,13.264 C19.800,13.264 19.796,13.264 19.791,13.264 C19.786,13.249 19.781,13.235 19.776,13.220 C19.767,13.215 19.757,13.210 19.747,13.205 C19.747,13.196 19.747,13.186 19.747,13.176 C19.733,13.167 19.718,13.157 19.704,13.147 C19.704,13.137 19.704,13.128 19.704,13.118 C19.694,13.113 19.684,13.108 19.675,13.103 C19.670,13.089 19.665,13.074 19.660,13.059 C19.636,13.040 19.612,13.021 19.588,13.001 C19.344,12.662 18.943,12.439 18.514,12.286 C18.495,12.286 18.475,12.286 18.456,12.286 C18.456,12.281 18.456,12.276 18.456,12.271 C18.442,12.271 18.427,12.271 18.412,12.271 C18.412,12.266 18.412,12.262 18.412,12.257 C18.277,12.232 18.142,12.208 18.006,12.184 C17.948,12.184 17.890,12.184 17.832,12.184 C17.832,12.179 17.832,12.174 17.832,12.169 C17.755,12.169 17.677,12.169 17.600,12.169 C17.397,12.169 17.192,12.179 17.034,12.227 C16.986,12.232 16.938,12.237 16.889,12.242 C16.889,12.247 16.889,12.252 16.889,12.257 C16.851,12.262 16.812,12.266 16.773,12.271 C16.773,12.276 16.773,12.281 16.773,12.286 C16.759,12.286 16.744,12.286 16.730,12.286 C16.730,12.291 16.730,12.296 16.730,12.300 C16.715,12.300 16.701,12.300 16.686,12.300 C16.686,12.305 16.686,12.310 16.686,12.315 C16.667,12.315 16.647,12.315 16.628,12.315 C16.628,12.320 16.628,12.325 16.628,12.330 C16.618,12.330 16.609,12.330 16.599,12.330 C16.599,12.334 16.599,12.339 16.599,12.344 C16.570,12.349 16.541,12.354 16.512,12.359 C16.512,12.364 16.512,12.369 16.512,12.373 C16.502,12.373 16.493,12.373 16.483,12.373 C16.483,12.378 16.483,12.383 16.483,12.388 C16.468,12.388 16.454,12.388 16.439,12.388 C16.439,12.393 16.439,12.398 16.439,12.403 C16.410,12.412 16.381,12.422 16.352,12.432 C16.352,12.437 16.352,12.442 16.352,12.446 C16.343,12.446 16.333,12.446 16.323,12.446 C16.323,12.451 16.323,12.456 16.323,12.461 C16.299,12.466 16.275,12.471 16.251,12.476 C16.246,12.485 16.241,12.495 16.236,12.505 C16.227,12.505 16.217,12.505 16.207,12.505 C16.207,12.510 16.207,12.515 16.207,12.519 C16.198,12.519 16.188,12.519 16.178,12.519 C16.178,12.524 16.178,12.529 16.178,12.534 C16.169,12.534 16.159,12.534 16.149,12.534 C16.149,12.539 16.149,12.544 16.149,12.549 C16.140,12.549 16.130,12.549 16.120,12.549 C16.115,12.558 16.111,12.568 16.106,12.578 C16.086,12.583 16.067,12.588 16.048,12.592 C16.043,12.602 16.038,12.612 16.033,12.622 C16.024,12.622 16.014,12.622 16.004,12.622 C15.999,12.631 15.995,12.641 15.990,12.651 C15.980,12.651 15.970,12.651 15.961,12.651 C15.956,12.660 15.951,12.670 15.946,12.680 C15.937,12.680 15.927,12.680 15.917,12.680 C15.912,12.690 15.908,12.699 15.903,12.709 C15.893,12.709 15.883,12.709 15.874,12.709 C15.864,12.724 15.854,12.738 15.845,12.753 C15.835,12.753 15.825,12.753 15.816,12.753 C15.801,12.772 15.787,12.792 15.772,12.811 C15.762,12.811 15.753,12.811 15.743,12.811 C15.724,12.836 15.704,12.860 15.685,12.884 C15.675,12.884 15.666,12.884 15.656,12.884 C15.613,12.933 15.569,12.982 15.525,13.030 C15.472,13.079 15.419,13.128 15.366,13.176 C15.366,13.186 15.366,13.196 15.366,13.205 C15.342,13.225 15.318,13.244 15.293,13.264 C15.293,13.274 15.293,13.283 15.293,13.293 C15.274,13.308 15.255,13.322 15.235,13.337 C15.230,13.351 15.226,13.366 15.221,13.381 C15.211,13.385 15.201,13.390 15.192,13.395 C15.192,13.405 15.192,13.415 15.192,13.424 C15.182,13.429 15.172,13.434 15.163,13.439 C15.158,13.454 15.153,13.468 15.148,13.483 C15.143,13.483 15.139,13.483 15.134,13.483 C15.134,13.493 15.134,13.502 15.134,13.512 C15.119,13.522 15.105,13.531 15.090,13.541 C15.085,13.561 15.081,13.580 15.076,13.600 C15.066,13.604 15.056,13.609 15.047,13.614 C15.042,13.629 15.037,13.643 15.032,13.658 C15.027,13.658 15.023,13.658 15.018,13.658 C15.013,13.677 15.008,13.697 15.003,13.716 C14.994,13.721 14.984,13.726 14.974,13.731 C14.974,13.741 14.974,13.750 14.974,13.760 C14.969,13.760 14.965,13.760 14.960,13.760 C14.960,13.770 14.960,13.780 14.960,13.789 C14.955,13.789 14.950,13.789 14.945,13.789 C14.945,13.799 14.945,13.809 14.945,13.819 C14.940,13.819 14.935,13.819 14.931,13.819 C14.931,13.828 14.931,13.838 14.931,13.848 C14.926,13.848 14.921,13.848 14.916,13.848 C14.916,13.857 14.916,13.867 14.916,13.877 C14.906,13.882 14.897,13.887 14.887,13.892 C14.873,13.935 14.858,13.979 14.844,14.023 C14.839,14.023 14.834,14.023 14.829,14.023 C14.829,14.033 14.829,14.042 14.829,14.052 C14.824,14.052 14.819,14.052 14.815,14.052 C14.805,14.081 14.795,14.110 14.786,14.140 C14.781,14.140 14.776,14.140 14.771,14.140 C14.771,14.154 14.771,14.169 14.771,14.183 C14.766,14.183 14.761,14.183 14.757,14.183 C14.757,14.193 14.757,14.203 14.757,14.213 C14.752,14.213 14.747,14.213 14.742,14.213 C14.742,14.227 14.742,14.242 14.742,14.256 C14.737,14.256 14.732,14.256 14.728,14.256 C14.728,14.266 14.728,14.276 14.728,14.286 C14.723,14.286 14.718,14.286 14.713,14.286 C14.708,14.320 14.703,14.354 14.699,14.388 C14.694,14.388 14.689,14.388 14.684,14.388 C14.684,14.402 14.684,14.417 14.684,14.432 C14.679,14.432 14.674,14.432 14.670,14.432 C14.655,14.529 14.640,14.626 14.626,14.724 C14.621,14.724 14.616,14.724 14.611,14.724 C14.611,14.758 14.611,14.792 14.611,14.826 C14.607,14.826 14.602,14.826 14.597,14.826 C14.597,14.870 14.597,14.913 14.597,14.957 C14.592,14.957 14.587,14.957 14.582,14.957 C14.582,15.025 14.582,15.093 14.582,15.161 C14.542,15.307 14.568,15.570 14.568,15.745 C14.568,16.461 14.568,17.176 14.568,17.891 C14.568,20.261 14.568,22.631 14.568,25.000 C12.706,25.000 10.844,25.000 8.983,25.000 C8.987,23.818 8.992,22.635 8.997,21.453 C8.997,21.078 8.997,20.704 8.997,20.329 C8.997,20.156 8.971,19.921 9.012,19.774 C9.012,17.867 9.012,15.959 9.012,14.052 C9.012,12.447 9.012,10.841 9.012,9.235 C8.982,9.130 8.997,8.956 8.997,8.826 C8.992,8.598 8.987,8.369 8.983,8.140 C10.844,8.140 12.706,8.140 14.568,8.140 C14.568,8.928 14.568,9.717 14.568,10.505 C14.573,10.505 14.578,10.505 14.582,10.505 C14.582,10.495 14.582,10.486 14.582,10.476 C14.618,10.452 14.616,10.425 14.640,10.388 C14.650,10.383 14.660,10.378 14.670,10.374 C14.674,10.359 14.679,10.344 14.684,10.330 C14.689,10.330 14.694,10.330 14.699,10.330 C14.699,10.320 14.699,10.310 14.699,10.301 C14.708,10.296 14.718,10.291 14.728,10.286 C14.728,10.276 14.728,10.267 14.728,10.257 C14.737,10.252 14.747,10.247 14.757,10.242 C14.757,10.232 14.757,10.223 14.757,10.213 C14.771,10.203 14.786,10.194 14.800,10.184 C14.800,10.174 14.800,10.164 14.800,10.155 C14.810,10.150 14.819,10.145 14.829,10.140 C14.829,10.130 14.829,10.121 14.829,10.111 C14.844,10.101 14.858,10.091 14.873,10.082 C14.873,10.072 14.873,10.062 14.873,10.052 C14.887,10.043 14.902,10.033 14.916,10.023 C14.916,10.014 14.916,10.004 14.916,9.994 C14.931,9.984 14.945,9.975 14.960,9.965 C14.960,9.955 14.960,9.945 14.960,9.936 C14.974,9.926 14.989,9.916 15.003,9.906 C15.003,9.897 15.003,9.887 15.003,9.877 C15.023,9.863 15.042,9.848 15.061,9.834 C15.061,9.824 15.061,9.814 15.061,9.804 C15.085,9.785 15.110,9.765 15.134,9.746 C15.134,9.736 15.134,9.726 15.134,9.717 C15.158,9.697 15.182,9.678 15.206,9.658 C15.206,9.649 15.206,9.639 15.206,9.629 C15.250,9.590 15.293,9.551 15.337,9.512 C15.337,9.503 15.337,9.493 15.337,9.483 C15.366,9.459 15.395,9.435 15.424,9.410 C15.506,9.323 15.588,9.235 15.671,9.147 C15.680,9.147 15.690,9.147 15.700,9.147 C15.733,9.109 15.767,9.070 15.801,9.031 C15.811,9.031 15.820,9.031 15.830,9.031 C15.849,9.006 15.869,8.982 15.888,8.958 C15.898,8.958 15.908,8.958 15.917,8.958 C15.937,8.933 15.956,8.909 15.975,8.885 C15.985,8.885 15.995,8.885 16.004,8.885 C16.014,8.870 16.024,8.855 16.033,8.841 C16.043,8.841 16.053,8.841 16.062,8.841 C16.072,8.826 16.082,8.812 16.091,8.797 C16.101,8.797 16.111,8.797 16.120,8.797 C16.130,8.783 16.140,8.768 16.149,8.753 C16.159,8.753 16.169,8.753 16.178,8.753 C16.183,8.744 16.188,8.734 16.193,8.724 C16.202,8.724 16.212,8.724 16.222,8.724 C16.232,8.710 16.241,8.695 16.251,8.680 C16.261,8.680 16.270,8.680 16.280,8.680 C16.285,8.671 16.290,8.661 16.294,8.651 C16.309,8.646 16.323,8.641 16.338,8.637 C16.338,8.632 16.338,8.627 16.338,8.622 C16.357,8.617 16.377,8.612 16.396,8.607 C16.396,8.602 16.396,8.598 16.396,8.593 C16.410,8.588 16.425,8.583 16.439,8.578 C16.444,8.568 16.449,8.559 16.454,8.549 C16.464,8.549 16.473,8.549 16.483,8.549 C16.483,8.544 16.483,8.539 16.483,8.534 C16.493,8.534 16.502,8.534 16.512,8.534 C16.517,8.525 16.522,8.515 16.526,8.505 C16.546,8.500 16.565,8.495 16.585,8.491 C16.589,8.481 16.594,8.471 16.599,8.461 C16.609,8.461 16.618,8.461 16.628,8.461 C16.628,8.456 16.628,8.452 16.628,8.447 C16.638,8.447 16.647,8.447 16.657,8.447 C16.657,8.442 16.657,8.437 16.657,8.432 C16.667,8.432 16.676,8.432 16.686,8.432 C16.686,8.427 16.686,8.422 16.686,8.418 C16.696,8.418 16.705,8.418 16.715,8.418 C16.720,8.408 16.725,8.398 16.730,8.388 C16.739,8.388 16.749,8.388 16.759,8.388 C16.759,8.384 16.759,8.379 16.759,8.374 C16.768,8.374 16.778,8.374 16.788,8.374 C16.788,8.369 16.788,8.364 16.788,8.359 C16.797,8.359 16.807,8.359 16.817,8.359 C16.817,8.354 16.817,8.349 16.817,8.345 C16.826,8.345 16.836,8.345 16.846,8.345 C16.846,8.340 16.846,8.335 16.846,8.330 C16.855,8.330 16.865,8.330 16.875,8.330 C16.875,8.325 16.875,8.320 16.875,8.315 C16.884,8.315 16.894,8.315 16.904,8.315 C16.904,8.311 16.904,8.306 16.904,8.301 C16.933,8.291 16.962,8.281 16.991,8.272 C16.991,8.267 16.991,8.262 16.991,8.257 C17.015,8.252 17.039,8.247 17.063,8.242 C17.063,8.238 17.063,8.233 17.063,8.228 C17.073,8.228 17.083,8.228 17.092,8.228 C17.092,8.223 17.092,8.218 17.092,8.213 C17.107,8.213 17.121,8.213 17.136,8.213 C17.136,8.208 17.136,8.203 17.136,8.199 C17.155,8.194 17.175,8.189 17.194,8.184 C17.194,8.179 17.194,8.174 17.194,8.169 C17.208,8.169 17.223,8.169 17.237,8.169 C17.237,8.165 17.237,8.160 17.237,8.155 C17.247,8.155 17.257,8.155 17.266,8.155 C17.266,8.150 17.266,8.145 17.266,8.140 C17.281,8.140 17.295,8.140 17.310,8.140 C17.310,8.135 17.310,8.130 17.310,8.126 C17.320,8.126 17.329,8.126 17.339,8.126 C17.339,8.121 17.339,8.116 17.339,8.111 C17.353,8.111 17.368,8.111 17.382,8.111 C17.382,8.106 17.382,8.101 17.382,8.096 C17.397,8.096 17.411,8.096 17.426,8.096 C17.426,8.092 17.426,8.087 17.426,8.082 C17.440,8.082 17.455,8.082 17.469,8.082 C17.469,8.077 17.469,8.072 17.469,8.067 C17.484,8.067 17.499,8.067 17.513,8.067 C17.513,8.062 17.513,8.058 17.513,8.053 C17.528,8.053 17.542,8.053 17.557,8.053 C17.557,8.048 17.557,8.043 17.557,8.038 C17.571,8.038 17.586,8.038 17.600,8.038 C17.600,8.033 17.600,8.028 17.600,8.023 C17.615,8.023 17.629,8.023 17.644,8.023 C17.644,8.019 17.644,8.014 17.644,8.009 C17.658,8.009 17.673,8.009 17.687,8.009 C17.687,8.004 17.687,7.999 17.687,7.994 C17.721,7.989 17.755,7.985 17.789,7.980 C17.789,7.975 17.789,7.970 17.789,7.965 C17.823,7.960 17.856,7.955 17.890,7.950 C17.890,7.946 17.890,7.941 17.890,7.936 C17.929,7.931 17.968,7.926 18.006,7.921 C18.006,7.916 18.006,7.912 18.006,7.907 C18.030,7.907 18.055,7.907 18.079,7.907 C18.079,7.902 18.079,7.897 18.079,7.892 C18.098,7.892 18.118,7.892 18.137,7.892 C18.137,7.887 18.137,7.882 18.137,7.877 C18.161,7.877 18.185,7.877 18.209,7.877 C18.209,7.873 18.209,7.868 18.209,7.863 C18.234,7.863 18.258,7.863 18.282,7.863 C18.282,7.858 18.282,7.853 18.282,7.848 C18.306,7.848 18.330,7.848 18.354,7.848 C18.354,7.843 18.354,7.839 18.354,7.834 C18.383,7.834 18.412,7.834 18.442,7.834 C18.442,7.829 18.442,7.824 18.442,7.819 C18.475,7.819 18.509,7.819 18.543,7.819 C18.543,7.814 18.543,7.809 18.543,7.804 C18.577,7.804 18.611,7.804 18.645,7.804 C18.645,7.800 18.645,7.795 18.645,7.790 C18.683,7.790 18.722,7.790 18.761,7.790 C18.761,7.785 18.761,7.780 18.761,7.775 C18.809,7.775 18.857,7.775 18.906,7.775 C18.906,7.770 18.906,7.766 18.906,7.761 C19.027,7.756 19.148,7.751 19.268,7.746 C19.322,7.746 19.375,7.746 19.428,7.746 C19.428,7.741 19.428,7.736 19.428,7.732 C19.499,7.711 19.697,7.732 19.747,7.746 C19.863,7.746 19.979,7.746 20.095,7.746 C20.095,7.751 20.095,7.756 20.095,7.761 C20.158,7.761 20.221,7.761 20.284,7.761 C20.284,7.766 20.284,7.770 20.284,7.775 C20.332,7.775 20.381,7.775 20.429,7.775 C20.429,7.780 20.429,7.785 20.429,7.790 C20.473,7.790 20.516,7.790 20.560,7.790 C20.782,7.829 21.005,7.868 21.227,7.907 C21.227,7.912 21.227,7.916 21.227,7.921 C21.246,7.921 21.266,7.921 21.285,7.921 C21.285,7.926 21.285,7.931 21.285,7.936 C21.304,7.936 21.324,7.936 21.343,7.936 C21.343,7.941 21.343,7.946 21.343,7.950 C21.362,7.950 21.382,7.950 21.401,7.950 C21.401,7.955 21.401,7.960 21.401,7.965 C21.420,7.965 21.440,7.965 21.459,7.965 C21.459,7.970 21.459,7.975 21.459,7.980 C21.474,7.980 21.488,7.980 21.503,7.980 C21.503,7.985 21.503,7.989 21.503,7.994 C21.541,7.999 21.580,8.004 21.619,8.009 C21.619,8.014 21.619,8.019 21.619,8.023 C21.633,8.023 21.648,8.023 21.662,8.023 C21.662,8.028 21.662,8.033 21.662,8.038 C21.677,8.038 21.691,8.038 21.706,8.038 C21.706,8.043 21.706,8.048 21.706,8.053 C21.720,8.053 21.735,8.053 21.749,8.053 C21.749,8.058 21.749,8.062 21.749,8.067 C21.764,8.067 21.778,8.067 21.793,8.067 C21.793,8.072 21.793,8.077 21.793,8.082 C21.807,8.082 21.822,8.082 21.836,8.082 C21.836,8.087 21.836,8.092 21.836,8.096 C21.851,8.096 21.865,8.096 21.880,8.096 C21.880,8.101 21.880,8.106 21.880,8.111 C21.894,8.111 21.909,8.111 21.923,8.111 C21.923,8.116 21.923,8.121 21.923,8.126 C21.967,8.135 22.010,8.145 22.054,8.155 C22.054,8.160 22.054,8.165 22.054,8.169 C22.064,8.169 22.073,8.169 22.083,8.169 C22.083,8.174 22.083,8.179 22.083,8.184 C22.097,8.184 22.112,8.184 22.126,8.184 C22.126,8.189 22.126,8.194 22.126,8.199 C22.136,8.199 22.146,8.199 22.155,8.199 C22.155,8.203 22.155,8.208 22.155,8.213 C22.170,8.213 22.184,8.213 22.199,8.213 C22.199,8.218 22.199,8.223 22.199,8.228 C22.209,8.228 22.218,8.228 22.228,8.228 C22.228,8.233 22.228,8.238 22.228,8.242 C22.243,8.242 22.257,8.242 22.272,8.242 C22.272,8.247 22.272,8.252 22.272,8.257 C22.291,8.262 22.310,8.267 22.330,8.272 C22.330,8.276 22.330,8.281 22.330,8.286 C22.344,8.286 22.359,8.286 22.373,8.286 C22.373,8.291 22.373,8.296 22.373,8.301 C22.402,8.311 22.431,8.320 22.460,8.330 C22.460,8.335 22.460,8.340 22.460,8.345 C22.470,8.345 22.479,8.345 22.489,8.345 C22.489,8.349 22.489,8.354 22.489,8.359 C22.499,8.359 22.508,8.359 22.518,8.359 C22.518,8.364 22.518,8.369 22.518,8.374 C22.528,8.374 22.538,8.374 22.547,8.374 C22.547,8.379 22.547,8.384 22.547,8.388 C22.567,8.393 22.586,8.398 22.605,8.403 C22.605,8.408 22.605,8.413 22.605,8.418 C22.615,8.418 22.625,8.418 22.634,8.418 C22.634,8.422 22.634,8.427 22.634,8.432 C22.644,8.432 22.654,8.432 22.663,8.432 C22.663,8.437 22.663,8.442 22.663,8.447 C22.673,8.447 22.683,8.447 22.692,8.447 C22.692,8.452 22.692,8.456 22.692,8.461 C22.702,8.461 22.712,8.461 22.721,8.461 C22.721,8.466 22.721,8.471 22.721,8.476 C22.731,8.476 22.741,8.476 22.750,8.476 C22.750,8.481 22.750,8.486 22.750,8.491 C22.770,8.495 22.789,8.500 22.808,8.505 C22.813,8.515 22.818,8.525 22.823,8.534 C22.852,8.544 22.881,8.554 22.910,8.564 C22.915,8.573 22.920,8.583 22.924,8.593 C22.944,8.598 22.963,8.602 22.982,8.607 C22.987,8.617 22.992,8.627 22.997,8.637 C23.016,8.641 23.036,8.646 23.055,8.651 C23.060,8.661 23.065,8.671 23.069,8.680 C23.079,8.680 23.089,8.680 23.098,8.680 C23.103,8.690 23.108,8.700 23.113,8.710 C23.123,8.710 23.132,8.710 23.142,8.710 C23.147,8.719 23.152,8.729 23.156,8.739 C23.166,8.739 23.176,8.739 23.186,8.739 C23.190,8.748 23.195,8.758 23.200,8.768 C23.210,8.768 23.219,8.768 23.229,8.768 C23.229,8.773 23.229,8.778 23.229,8.783 C23.244,8.787 23.258,8.792 23.273,8.797 C23.277,8.807 23.282,8.817 23.287,8.826 C23.297,8.826 23.306,8.826 23.316,8.826 C23.321,8.836 23.326,8.846 23.331,8.855 C23.340,8.855 23.350,8.855 23.360,8.855 C23.369,8.870 23.379,8.885 23.389,8.899 C23.398,8.899 23.408,8.899 23.418,8.899 C23.427,8.914 23.437,8.928 23.447,8.943 C23.456,8.943 23.466,8.943 23.476,8.943 C23.490,8.963 23.505,8.982 23.519,9.001 C23.529,9.001 23.539,9.001 23.548,9.001 C23.563,9.021 23.577,9.040 23.592,9.060 C23.601,9.060 23.611,9.060 23.621,9.060 C23.635,9.079 23.650,9.099 23.664,9.118 C23.674,9.118 23.684,9.118 23.693,9.118 C23.722,9.152 23.751,9.186 23.780,9.220 C23.790,9.220 23.800,9.220 23.809,9.220 C23.867,9.284 23.925,9.347 23.983,9.410 C24.061,9.483 24.138,9.556 24.216,9.629 C24.216,9.639 24.216,9.649 24.216,9.658 C24.249,9.688 24.283,9.717 24.317,9.746 C24.317,9.756 24.317,9.765 24.317,9.775 C24.341,9.795 24.365,9.814 24.390,9.834 C24.390,9.843 24.390,9.853 24.390,9.863 C24.409,9.877 24.428,9.892 24.448,9.906 C24.448,9.916 24.448,9.926 24.448,9.936 C24.467,9.950 24.486,9.965 24.506,9.979 C24.506,9.989 24.506,9.999 24.506,10.009 C24.520,10.018 24.535,10.028 24.549,10.038 C24.554,10.052 24.559,10.067 24.564,10.082 C24.573,10.087 24.583,10.091 24.593,10.096 C24.593,10.106 24.593,10.116 24.593,10.125 C24.602,10.130 24.612,10.135 24.622,10.140 C24.622,10.150 24.622,10.160 24.622,10.169 C24.636,10.179 24.651,10.189 24.665,10.198 C24.665,10.208 24.665,10.218 24.665,10.228 C24.675,10.232 24.685,10.237 24.694,10.242 C24.694,10.252 24.694,10.262 24.694,10.271 C24.704,10.276 24.714,10.281 24.723,10.286 C24.723,10.296 24.723,10.305 24.723,10.315 C24.733,10.320 24.743,10.325 24.752,10.330 C24.752,10.340 24.752,10.349 24.752,10.359 C24.762,10.364 24.772,10.369 24.781,10.374 C24.786,10.393 24.791,10.413 24.796,10.432 C24.801,10.432 24.806,10.432 24.810,10.432 C24.815,10.447 24.820,10.461 24.825,10.476 C24.835,10.481 24.844,10.486 24.854,10.490 C24.859,10.510 24.864,10.529 24.868,10.549 C24.878,10.554 24.888,10.558 24.897,10.563 C24.902,10.583 24.907,10.602 24.912,10.622 C24.922,10.627 24.931,10.631 24.941,10.636 C24.951,10.666 24.960,10.695 24.970,10.724 C24.980,10.729 24.989,10.734 24.999,10.739 C25.004,10.758 25.009,10.777 25.013,10.797 C25.018,10.797 25.023,10.797 25.028,10.797 C25.028,10.807 25.028,10.816 25.028,10.826 C25.033,10.826 25.038,10.826 25.042,10.826 C25.042,10.836 25.042,10.846 25.042,10.855 C25.047,10.855 25.052,10.855 25.057,10.855 C25.057,10.865 25.057,10.875 25.057,10.884 C25.062,10.884 25.067,10.884 25.072,10.884 C25.072,10.894 25.072,10.904 25.072,10.914 C25.076,10.914 25.081,10.914 25.086,10.914 C25.086,10.923 25.086,10.933 25.086,10.943 C25.091,10.943 25.096,10.943 25.101,10.943 C25.105,10.962 25.110,10.982 25.115,11.001 C25.120,11.001 25.125,11.001 25.130,11.001 C25.130,11.011 25.130,11.021 25.130,11.030 C25.134,11.030 25.139,11.030 25.144,11.030 C25.144,11.040 25.144,11.050 25.144,11.060 C25.149,11.060 25.154,11.060 25.159,11.060 C25.159,11.069 25.159,11.079 25.159,11.089 C25.163,11.089 25.168,11.089 25.173,11.089 C25.173,11.099 25.173,11.108 25.173,11.118 C25.178,11.118 25.183,11.118 25.188,11.118 C25.188,11.128 25.188,11.138 25.188,11.147 C25.192,11.147 25.197,11.147 25.202,11.147 C25.207,11.167 25.212,11.186 25.217,11.206 C25.221,11.206 25.226,11.206 25.231,11.206 C25.231,11.215 25.231,11.225 25.231,11.235 C25.236,11.235 25.241,11.235 25.246,11.235 C25.246,11.249 25.246,11.264 25.246,11.279 C25.250,11.279 25.255,11.279 25.260,11.279 C25.265,11.298 25.270,11.318 25.275,11.337 C25.279,11.337 25.284,11.337 25.289,11.337 C25.289,11.352 25.289,11.366 25.289,11.381 C25.294,11.381 25.299,11.381 25.304,11.381 C25.308,11.400 25.313,11.420 25.318,11.439 C25.323,11.439 25.328,11.439 25.333,11.439 C25.333,11.454 25.333,11.468 25.333,11.483 C25.337,11.483 25.342,11.483 25.347,11.483 C25.347,11.493 25.347,11.502 25.347,11.512 C25.352,11.512 25.357,11.512 25.362,11.512 C25.366,11.537 25.371,11.561 25.376,11.585 C25.381,11.585 25.386,11.585 25.391,11.585 C25.396,11.614 25.400,11.644 25.405,11.673 C25.410,11.673 25.415,11.673 25.420,11.673 C25.420,11.682 25.420,11.692 25.420,11.702 C25.425,11.702 25.429,11.702 25.434,11.702 C25.444,11.746 25.454,11.790 25.463,11.833 C25.468,11.833 25.473,11.833 25.478,11.833 C25.478,11.843 25.478,11.853 25.478,11.863 C25.483,11.863 25.487,11.863 25.492,11.863 C25.492,11.877 25.492,11.892 25.492,11.906 C25.497,11.906 25.502,11.906 25.507,11.906 C25.507,11.921 25.507,11.936 25.507,11.950 C25.512,11.950 25.516,11.950 25.521,11.950 C25.521,11.965 25.521,11.979 25.521,11.994 C25.526,11.994 25.531,11.994 25.536,11.994 C25.536,12.008 25.536,12.023 25.536,12.038 C25.541,12.038 25.545,12.038 25.550,12.038 C25.550,12.057 25.550,12.077 25.550,12.096 C25.555,12.096 25.560,12.096 25.565,12.096 C25.565,12.111 25.565,12.125 25.565,12.140 C25.570,12.140 25.574,12.140 25.579,12.140 C25.579,12.154 25.579,12.169 25.579,12.184 C25.584,12.184 25.589,12.184 25.594,12.184 C25.603,12.232 25.613,12.281 25.623,12.330 C25.628,12.330 25.632,12.330 25.637,12.330 C25.647,12.388 25.657,12.446 25.666,12.505 C25.671,12.505 25.676,12.505 25.681,12.505 C25.681,12.519 25.681,12.534 25.681,12.549 C25.686,12.549 25.691,12.549 25.695,12.549 C25.695,12.568 25.695,12.588 25.695,12.607 C25.700,12.607 25.705,12.607 25.710,12.607 C25.710,12.631 25.710,12.656 25.710,12.680 C25.715,12.680 25.720,12.680 25.724,12.680 C25.724,12.699 25.724,12.719 25.724,12.738 C25.729,12.738 25.734,12.738 25.739,12.738 C25.739,12.758 25.739,12.777 25.739,12.797 C25.744,12.797 25.749,12.797 25.753,12.797 C25.763,12.865 25.773,12.933 25.782,13.001 C25.787,13.001 25.792,13.001 25.797,13.001 C25.797,13.030 25.797,13.059 25.797,13.089 C25.825,13.183 25.841,13.313 25.869,13.410 C25.869,13.444 25.869,13.478 25.869,13.512 C25.874,13.512 25.879,13.512 25.884,13.512 C25.889,13.580 25.894,13.648 25.898,13.716 C25.903,13.716 25.908,13.716 25.913,13.716 C25.918,13.799 25.923,13.882 25.927,13.965 C25.932,13.965 25.937,13.965 25.942,13.965 C25.942,14.013 25.942,14.062 25.942,14.110 C25.947,14.110 25.952,14.110 25.956,14.110 C25.956,14.169 25.956,14.227 25.956,14.286 C25.961,14.286 25.966,14.286 25.971,14.286 C25.971,14.354 25.971,14.422 25.971,14.490 C25.976,14.490 25.981,14.490 25.985,14.490 C25.985,14.587 25.985,14.685 25.985,14.782 C25.990,14.782 25.995,14.782 26.000,14.782 C26.000,15.025 26.000,15.269 26.000,15.512 C26.000,16.028 26.000,16.543 26.000,17.059 C26.000,19.706 26.000,22.353 26.000,25.000 ZM0.336,8.140 C2.193,8.140 4.050,8.140 5.907,8.140 C5.907,13.760 5.907,19.381 5.907,25.000 C4.050,25.000 2.193,25.000 0.336,25.000 C0.336,19.381 0.336,13.760 0.336,8.140 ZM14.539,10.549 C14.539,10.558 14.539,10.568 14.539,10.578 C14.544,10.578 14.549,10.578 14.553,10.578 C14.545,10.549 14.555,10.565 14.539,10.549 Z"/>
</svg>