<svg 
 xmlns="http://www.w3.org/2000/svg"
 xmlns:xlink="http://www.w3.org/1999/xlink"
 width="22px" height="26px">
<path fill-rule="evenodd"  fill="rgb(198, 198, 198)"
 d="M10.487,-0.000 C10.866,-0.000 11.246,-0.000 11.625,-0.000 C11.625,0.007 11.625,0.013 11.625,0.020 C11.694,0.020 11.763,0.020 11.832,0.020 C11.949,0.021 12.110,0.034 12.204,0.060 C12.383,0.074 12.562,0.087 12.742,0.101 C12.742,0.107 12.742,0.114 12.742,0.121 C12.824,0.127 12.907,0.134 12.990,0.141 C12.990,0.148 12.990,0.154 12.990,0.161 C13.031,0.161 13.073,0.161 13.114,0.161 C13.114,0.168 13.114,0.174 13.114,0.181 C13.155,0.181 13.197,0.181 13.238,0.181 C13.238,0.188 13.238,0.194 13.238,0.201 C13.273,0.201 13.307,0.201 13.342,0.201 C13.342,0.208 13.342,0.215 13.342,0.221 C13.376,0.221 13.411,0.221 13.445,0.221 C13.445,0.228 13.445,0.235 13.445,0.241 C13.473,0.241 13.500,0.241 13.528,0.241 C13.528,0.248 13.528,0.255 13.528,0.262 C13.562,0.262 13.597,0.262 13.631,0.262 C13.631,0.268 13.631,0.275 13.631,0.282 C13.686,0.288 13.741,0.295 13.797,0.302 C13.797,0.308 13.797,0.315 13.797,0.322 C13.852,0.329 13.907,0.335 13.962,0.342 C13.962,0.349 13.962,0.355 13.962,0.362 C13.990,0.362 14.017,0.362 14.045,0.362 C14.045,0.369 14.045,0.376 14.045,0.382 C14.066,0.382 14.086,0.382 14.107,0.382 C14.107,0.389 14.107,0.396 14.107,0.402 C14.155,0.409 14.203,0.416 14.252,0.422 C14.252,0.429 14.252,0.436 14.252,0.443 C14.279,0.443 14.307,0.443 14.334,0.443 C14.334,0.449 14.334,0.456 14.334,0.463 C14.355,0.463 14.376,0.463 14.396,0.463 C14.396,0.469 14.396,0.476 14.396,0.483 C14.417,0.483 14.438,0.483 14.459,0.483 C14.459,0.490 14.459,0.496 14.459,0.503 C14.479,0.503 14.500,0.503 14.521,0.503 C14.521,0.510 14.521,0.516 14.521,0.523 C14.541,0.523 14.562,0.523 14.583,0.523 C14.583,0.530 14.583,0.536 14.583,0.543 C14.603,0.543 14.624,0.543 14.645,0.543 C14.645,0.550 14.645,0.557 14.645,0.563 C14.665,0.563 14.686,0.563 14.707,0.563 C14.707,0.570 14.707,0.577 14.707,0.583 C14.727,0.583 14.748,0.583 14.769,0.583 C14.769,0.590 14.769,0.597 14.769,0.604 C14.831,0.617 14.893,0.630 14.955,0.644 C14.955,0.650 14.955,0.657 14.955,0.664 C14.969,0.664 14.983,0.664 14.996,0.664 C14.996,0.671 14.996,0.677 14.996,0.684 C15.017,0.684 15.038,0.684 15.058,0.684 C15.058,0.691 15.058,0.697 15.058,0.704 C15.072,0.704 15.086,0.704 15.100,0.704 C15.100,0.711 15.100,0.718 15.100,0.724 C15.120,0.724 15.141,0.724 15.162,0.724 C15.162,0.731 15.162,0.738 15.162,0.744 C15.176,0.744 15.189,0.744 15.203,0.744 C15.203,0.751 15.203,0.758 15.203,0.764 C15.224,0.764 15.245,0.764 15.265,0.764 C15.265,0.771 15.265,0.778 15.265,0.785 C15.279,0.785 15.293,0.785 15.307,0.785 C15.307,0.791 15.307,0.798 15.307,0.805 C15.327,0.805 15.348,0.805 15.369,0.805 C15.369,0.811 15.369,0.818 15.369,0.825 C15.396,0.832 15.424,0.838 15.451,0.845 C15.451,0.852 15.451,0.858 15.451,0.865 C15.472,0.865 15.493,0.865 15.513,0.865 C15.513,0.872 15.513,0.878 15.513,0.885 C15.541,0.892 15.569,0.899 15.596,0.905 C15.596,0.912 15.596,0.919 15.596,0.925 C15.631,0.932 15.665,0.939 15.700,0.946 C15.700,0.952 15.700,0.959 15.700,0.966 C15.741,0.979 15.782,0.992 15.824,1.006 C15.824,1.013 15.824,1.019 15.824,1.026 C15.838,1.026 15.851,1.026 15.865,1.026 C15.865,1.033 15.865,1.039 15.865,1.046 C15.879,1.046 15.893,1.046 15.906,1.046 C15.906,1.053 15.906,1.059 15.906,1.066 C15.920,1.066 15.934,1.066 15.948,1.066 C15.948,1.073 15.948,1.080 15.948,1.086 C15.962,1.086 15.975,1.086 15.989,1.086 C15.989,1.093 15.989,1.100 15.989,1.106 C16.003,1.106 16.017,1.106 16.031,1.106 C16.031,1.113 16.031,1.120 16.031,1.127 C16.044,1.127 16.058,1.127 16.072,1.127 C16.072,1.133 16.072,1.140 16.072,1.147 C16.086,1.147 16.100,1.147 16.113,1.147 C16.113,1.153 16.113,1.160 16.113,1.167 C16.127,1.167 16.141,1.167 16.155,1.167 C16.155,1.173 16.155,1.180 16.155,1.187 C16.168,1.187 16.182,1.187 16.196,1.187 C16.203,1.200 16.210,1.214 16.217,1.227 C16.231,1.227 16.244,1.227 16.258,1.227 C16.258,1.234 16.258,1.241 16.258,1.247 C16.272,1.247 16.286,1.247 16.299,1.247 C16.299,1.254 16.299,1.261 16.299,1.267 C16.313,1.267 16.327,1.267 16.341,1.267 C16.341,1.274 16.341,1.281 16.341,1.287 C16.355,1.287 16.368,1.287 16.382,1.287 C16.389,1.301 16.396,1.314 16.403,1.328 C16.444,1.341 16.486,1.355 16.527,1.368 C16.534,1.381 16.541,1.395 16.548,1.408 C16.575,1.415 16.603,1.422 16.630,1.428 C16.637,1.442 16.644,1.455 16.651,1.469 C16.679,1.475 16.706,1.482 16.734,1.489 C16.741,1.502 16.748,1.515 16.755,1.529 C16.768,1.529 16.782,1.529 16.796,1.529 C16.803,1.542 16.810,1.556 16.817,1.569 C16.830,1.569 16.844,1.569 16.858,1.569 C16.865,1.583 16.872,1.596 16.879,1.609 C16.906,1.616 16.934,1.623 16.961,1.629 C16.968,1.643 16.975,1.656 16.982,1.670 C16.996,1.670 17.010,1.670 17.023,1.670 C17.037,1.690 17.051,1.710 17.065,1.730 C17.079,1.730 17.092,1.730 17.106,1.730 C17.106,1.737 17.106,1.743 17.106,1.750 C17.127,1.757 17.148,1.764 17.168,1.770 C17.175,1.784 17.182,1.797 17.189,1.811 C17.203,1.811 17.216,1.811 17.230,1.811 C17.244,1.831 17.258,1.851 17.272,1.871 C17.285,1.871 17.299,1.871 17.313,1.871 C17.320,1.884 17.327,1.898 17.334,1.911 C17.347,1.911 17.361,1.911 17.375,1.911 C17.389,1.931 17.403,1.951 17.416,1.971 C17.430,1.971 17.444,1.971 17.458,1.971 C17.478,1.998 17.499,2.025 17.520,2.052 C17.534,2.052 17.547,2.052 17.561,2.052 C17.575,2.072 17.589,2.092 17.603,2.112 C17.616,2.112 17.630,2.112 17.644,2.112 C17.672,2.146 17.699,2.179 17.727,2.213 C17.740,2.213 17.754,2.213 17.768,2.213 C17.796,2.246 17.823,2.280 17.851,2.313 C17.865,2.313 17.878,2.313 17.892,2.313 C17.934,2.360 17.975,2.407 18.016,2.454 C18.030,2.454 18.044,2.454 18.058,2.454 C18.168,2.568 18.278,2.682 18.389,2.796 C18.513,2.910 18.637,3.024 18.761,3.138 C18.761,3.152 18.761,3.165 18.761,3.178 C18.802,3.212 18.844,3.246 18.885,3.279 C18.885,3.292 18.885,3.306 18.885,3.319 C18.919,3.346 18.954,3.373 18.988,3.400 C18.988,3.413 18.988,3.427 18.988,3.440 C19.023,3.467 19.057,3.494 19.092,3.520 C19.092,3.534 19.092,3.547 19.092,3.561 C19.106,3.567 19.119,3.574 19.133,3.581 C19.140,3.601 19.147,3.621 19.154,3.641 C19.181,3.661 19.209,3.681 19.237,3.702 C19.237,3.715 19.237,3.728 19.237,3.742 C19.250,3.748 19.264,3.755 19.278,3.762 C19.278,3.775 19.278,3.789 19.278,3.802 C19.299,3.816 19.319,3.829 19.340,3.842 C19.340,3.856 19.340,3.869 19.340,3.883 C19.361,3.896 19.381,3.909 19.402,3.923 C19.402,3.936 19.402,3.950 19.402,3.963 C19.416,3.970 19.430,3.976 19.443,3.983 C19.450,4.003 19.457,4.023 19.464,4.044 C19.471,4.044 19.478,4.044 19.485,4.044 C19.485,4.057 19.485,4.070 19.485,4.084 C19.499,4.090 19.512,4.097 19.526,4.104 C19.526,4.117 19.526,4.131 19.526,4.144 C19.540,4.151 19.554,4.158 19.568,4.164 C19.568,4.178 19.568,4.191 19.568,4.204 C19.581,4.211 19.595,4.218 19.609,4.225 C19.616,4.245 19.623,4.265 19.630,4.285 C19.637,4.285 19.643,4.285 19.650,4.285 C19.657,4.312 19.664,4.339 19.671,4.365 C19.678,4.365 19.685,4.365 19.692,4.365 C19.699,4.386 19.705,4.406 19.712,4.426 C19.726,4.432 19.740,4.439 19.754,4.446 C19.761,4.473 19.768,4.500 19.774,4.526 C19.788,4.533 19.802,4.540 19.816,4.546 C19.830,4.587 19.843,4.627 19.857,4.667 C19.871,4.674 19.885,4.681 19.899,4.687 C19.899,4.701 19.899,4.714 19.899,4.728 C19.905,4.728 19.912,4.728 19.919,4.728 C19.919,4.741 19.919,4.754 19.919,4.768 C19.926,4.768 19.933,4.768 19.940,4.768 C19.940,4.781 19.940,4.795 19.940,4.808 C19.947,4.808 19.954,4.808 19.961,4.808 C19.961,4.821 19.961,4.835 19.961,4.848 C19.968,4.848 19.974,4.848 19.981,4.848 C19.981,4.862 19.981,4.875 19.981,4.888 C19.995,4.895 20.009,4.902 20.023,4.909 C20.030,4.935 20.036,4.962 20.043,4.989 C20.050,4.989 20.057,4.989 20.064,4.989 C20.064,5.002 20.064,5.016 20.064,5.029 C20.071,5.029 20.078,5.029 20.085,5.029 C20.099,5.069 20.112,5.110 20.126,5.150 C20.133,5.150 20.140,5.150 20.147,5.150 C20.147,5.170 20.147,5.190 20.147,5.210 C20.154,5.210 20.161,5.210 20.167,5.210 C20.167,5.224 20.167,5.237 20.167,5.251 C20.174,5.251 20.181,5.251 20.188,5.251 C20.188,5.264 20.188,5.277 20.188,5.291 C20.195,5.291 20.202,5.291 20.209,5.291 C20.223,5.331 20.236,5.371 20.250,5.411 C20.257,5.411 20.264,5.411 20.271,5.411 C20.271,5.432 20.271,5.452 20.271,5.472 C20.278,5.472 20.285,5.472 20.292,5.472 C20.298,5.499 20.305,5.525 20.312,5.552 C20.319,5.552 20.326,5.552 20.333,5.552 C20.333,5.572 20.333,5.593 20.333,5.613 C20.340,5.613 20.347,5.613 20.354,5.613 C20.354,5.626 20.354,5.639 20.354,5.653 C20.361,5.653 20.367,5.653 20.374,5.653 C20.381,5.686 20.388,5.720 20.395,5.753 C20.402,5.753 20.409,5.753 20.416,5.753 C20.416,5.774 20.416,5.794 20.416,5.814 C20.423,5.814 20.429,5.814 20.436,5.814 C20.436,5.827 20.436,5.841 20.436,5.854 C20.443,5.854 20.450,5.854 20.457,5.854 C20.457,5.874 20.457,5.894 20.457,5.914 C20.464,5.914 20.471,5.914 20.478,5.914 C20.478,5.935 20.478,5.955 20.478,5.975 C20.485,5.975 20.492,5.975 20.498,5.975 C20.498,5.995 20.498,6.015 20.498,6.035 C20.505,6.035 20.512,6.035 20.519,6.035 C20.519,6.055 20.519,6.075 20.519,6.095 C20.526,6.095 20.533,6.095 20.540,6.095 C20.540,6.109 20.540,6.122 20.540,6.136 C20.547,6.136 20.554,6.136 20.560,6.136 C20.560,6.156 20.560,6.176 20.560,6.196 C20.567,6.196 20.574,6.196 20.581,6.196 C20.609,6.310 20.636,6.424 20.664,6.538 C20.889,7.149 20.995,7.950 20.995,8.771 C20.995,8.950 21.016,9.189 20.974,9.334 C20.942,9.445 20.982,9.619 20.953,9.717 C20.953,9.810 20.953,9.904 20.953,9.998 C20.947,9.998 20.940,9.998 20.933,9.998 C20.926,10.132 20.919,10.266 20.912,10.401 C20.905,10.401 20.898,10.401 20.891,10.401 C20.891,10.461 20.891,10.521 20.891,10.582 C20.831,10.784 20.828,11.048 20.767,11.245 C20.767,11.286 20.767,11.326 20.767,11.366 C20.760,11.366 20.754,11.366 20.747,11.366 C20.747,11.400 20.747,11.433 20.747,11.467 C20.740,11.467 20.733,11.467 20.726,11.467 C20.726,11.500 20.726,11.534 20.726,11.567 C20.719,11.567 20.712,11.567 20.705,11.567 C20.705,11.601 20.705,11.634 20.705,11.668 C20.698,11.668 20.691,11.668 20.685,11.668 C20.685,11.701 20.685,11.735 20.685,11.768 C20.678,11.768 20.671,11.768 20.664,11.768 C20.657,11.829 20.650,11.889 20.643,11.950 C20.636,11.950 20.629,11.950 20.623,11.950 C20.623,11.976 20.623,12.003 20.623,12.030 C20.616,12.030 20.609,12.030 20.602,12.030 C20.602,12.057 20.602,12.084 20.602,12.110 C20.595,12.110 20.588,12.110 20.581,12.110 C20.581,12.137 20.581,12.164 20.581,12.191 C20.574,12.191 20.567,12.191 20.560,12.191 C20.560,12.218 20.560,12.245 20.560,12.271 C20.554,12.271 20.547,12.271 20.540,12.271 C20.533,12.325 20.526,12.379 20.519,12.432 C20.512,12.432 20.505,12.432 20.498,12.432 C20.492,12.479 20.485,12.526 20.478,12.573 C20.471,12.573 20.464,12.573 20.457,12.573 C20.450,12.620 20.443,12.667 20.436,12.714 C20.429,12.714 20.423,12.714 20.416,12.714 C20.402,12.781 20.388,12.848 20.374,12.915 C20.367,12.915 20.361,12.915 20.354,12.915 C20.354,12.935 20.354,12.955 20.354,12.975 C20.347,12.975 20.340,12.975 20.333,12.975 C20.333,12.996 20.333,13.016 20.333,13.036 C20.326,13.036 20.319,13.036 20.312,13.036 C20.312,13.056 20.312,13.076 20.312,13.096 C20.305,13.096 20.298,13.096 20.292,13.096 C20.278,13.157 20.264,13.217 20.250,13.277 C20.243,13.277 20.236,13.277 20.230,13.277 C20.230,13.291 20.230,13.304 20.230,13.317 C20.223,13.317 20.216,13.317 20.209,13.317 C20.195,13.378 20.181,13.438 20.167,13.499 C19.941,14.002 19.731,14.524 19.443,14.967 C19.430,15.007 19.416,15.048 19.402,15.088 C19.388,15.094 19.375,15.101 19.361,15.108 C19.361,15.121 19.361,15.135 19.361,15.148 C19.354,15.148 19.347,15.148 19.340,15.148 C19.340,15.162 19.340,15.175 19.340,15.188 C19.326,15.195 19.312,15.202 19.299,15.208 C19.292,15.235 19.285,15.262 19.278,15.289 C19.264,15.296 19.250,15.302 19.237,15.309 C19.237,15.322 19.237,15.336 19.237,15.349 C19.230,15.349 19.223,15.349 19.216,15.349 C19.216,15.363 19.216,15.376 19.216,15.390 C19.202,15.396 19.188,15.403 19.175,15.410 C19.175,15.423 19.175,15.436 19.175,15.450 C19.168,15.450 19.161,15.450 19.154,15.450 C19.147,15.470 19.140,15.490 19.133,15.510 C19.119,15.517 19.106,15.524 19.092,15.530 C19.092,15.544 19.092,15.557 19.092,15.571 C19.078,15.577 19.064,15.584 19.050,15.591 C19.050,15.604 19.050,15.618 19.050,15.631 C19.037,15.638 19.023,15.644 19.009,15.651 C19.009,15.664 19.009,15.678 19.009,15.691 C19.002,15.691 18.995,15.691 18.988,15.691 C18.982,15.711 18.975,15.732 18.968,15.752 C18.954,15.758 18.940,15.765 18.926,15.772 C18.926,15.785 18.926,15.799 18.926,15.812 C18.913,15.819 18.899,15.825 18.885,15.832 C18.878,15.852 18.871,15.872 18.864,15.892 C18.844,15.906 18.823,15.919 18.802,15.933 C18.802,15.946 18.802,15.960 18.802,15.973 C18.788,15.980 18.775,15.986 18.761,15.993 C18.761,16.006 18.761,16.020 18.761,16.033 C18.733,16.053 18.706,16.074 18.678,16.094 C18.678,16.107 18.678,16.120 18.678,16.134 C18.657,16.147 18.637,16.161 18.616,16.174 C18.616,16.187 18.616,16.201 18.616,16.214 C18.589,16.234 18.561,16.255 18.533,16.275 C18.533,16.288 18.533,16.301 18.533,16.315 C18.492,16.348 18.451,16.382 18.409,16.415 C18.409,16.429 18.409,16.442 18.409,16.456 C18.368,16.489 18.327,16.523 18.285,16.556 C18.163,16.720 18.016,16.838 17.871,16.979 C17.796,17.059 17.720,17.140 17.644,17.220 C17.630,17.220 17.616,17.220 17.603,17.220 C17.561,17.267 17.520,17.314 17.478,17.361 C17.465,17.361 17.451,17.361 17.437,17.361 C17.430,17.374 17.423,17.388 17.416,17.401 C17.410,17.401 17.403,17.401 17.396,17.401 C17.382,17.421 17.368,17.441 17.354,17.462 C17.341,17.462 17.327,17.462 17.313,17.462 C17.292,17.488 17.272,17.515 17.251,17.542 C17.237,17.542 17.223,17.542 17.210,17.542 C17.203,17.555 17.196,17.569 17.189,17.582 C17.168,17.589 17.148,17.596 17.127,17.602 C17.106,17.629 17.085,17.656 17.065,17.683 C17.051,17.683 17.037,17.683 17.023,17.683 C17.017,17.696 17.010,17.710 17.003,17.723 C16.989,17.723 16.975,17.723 16.961,17.723 C16.948,17.743 16.934,17.763 16.920,17.783 C16.906,17.783 16.892,17.783 16.879,17.783 C16.872,17.797 16.865,17.810 16.858,17.824 C16.837,17.830 16.817,17.837 16.796,17.844 C16.796,17.851 16.796,17.857 16.796,17.864 C16.782,17.864 16.768,17.864 16.755,17.864 C16.748,17.877 16.741,17.891 16.734,17.904 C16.720,17.904 16.706,17.904 16.692,17.904 C16.686,17.918 16.679,17.931 16.672,17.944 C16.658,17.944 16.644,17.944 16.630,17.944 C16.624,17.958 16.617,17.971 16.610,17.985 C16.596,17.985 16.582,17.985 16.568,17.985 C16.561,17.998 16.555,18.011 16.548,18.025 C16.520,18.032 16.493,18.038 16.465,18.045 C16.458,18.058 16.451,18.072 16.444,18.085 C16.417,18.092 16.389,18.099 16.362,18.105 C16.355,18.119 16.348,18.132 16.341,18.146 C16.299,18.159 16.258,18.172 16.217,18.186 C16.210,18.199 16.203,18.213 16.196,18.226 C16.182,18.226 16.168,18.226 16.155,18.226 C16.155,18.233 16.155,18.239 16.155,18.246 C16.141,18.246 16.127,18.246 16.113,18.246 C16.113,18.253 16.113,18.260 16.113,18.266 C16.100,18.266 16.086,18.266 16.072,18.266 C16.072,18.273 16.072,18.280 16.072,18.286 C16.058,18.286 16.044,18.286 16.031,18.286 C16.031,18.293 16.031,18.300 16.031,18.306 C16.017,18.306 16.003,18.306 15.989,18.306 C15.989,18.313 15.989,18.320 15.989,18.327 C15.975,18.327 15.962,18.327 15.948,18.327 C15.948,18.333 15.948,18.340 15.948,18.347 C15.934,18.347 15.920,18.347 15.906,18.347 C15.906,18.353 15.906,18.360 15.906,18.367 C15.893,18.367 15.879,18.367 15.865,18.367 C15.865,18.374 15.865,18.380 15.865,18.387 C15.851,18.387 15.838,18.387 15.824,18.387 C15.824,18.394 15.824,18.400 15.824,18.407 C15.810,18.407 15.796,18.407 15.782,18.407 C15.782,18.414 15.782,18.420 15.782,18.427 C15.741,18.441 15.700,18.454 15.658,18.467 C15.658,18.474 15.658,18.481 15.658,18.488 C15.638,18.488 15.617,18.488 15.596,18.488 C15.596,18.494 15.596,18.501 15.596,18.508 C15.569,18.514 15.541,18.521 15.513,18.528 C15.513,18.534 15.513,18.541 15.513,18.548 C15.493,18.548 15.472,18.548 15.451,18.548 C15.451,18.555 15.451,18.561 15.451,18.568 C15.438,18.568 15.424,18.568 15.410,18.568 C15.410,18.575 15.410,18.581 15.410,18.588 C15.389,18.588 15.369,18.588 15.348,18.588 C15.348,18.595 15.348,18.602 15.348,18.608 C15.334,18.608 15.320,18.608 15.307,18.608 C15.307,18.615 15.307,18.622 15.307,18.628 C15.286,18.628 15.265,18.628 15.245,18.628 C15.245,18.635 15.245,18.642 15.245,18.648 C15.231,18.648 15.217,18.648 15.203,18.648 C15.203,18.655 15.203,18.662 15.203,18.669 C15.162,18.675 15.120,18.682 15.079,18.689 C15.079,18.695 15.079,18.702 15.079,18.709 C15.058,18.709 15.038,18.709 15.017,18.709 C15.017,18.716 15.017,18.722 15.017,18.729 C14.996,18.729 14.976,18.729 14.955,18.729 C14.955,18.736 14.955,18.742 14.955,18.749 C14.934,18.749 14.914,18.749 14.893,18.749 C14.893,18.756 14.893,18.762 14.893,18.769 C14.872,18.769 14.852,18.769 14.831,18.769 C14.831,18.776 14.831,18.783 14.831,18.789 C14.810,18.789 14.789,18.789 14.769,18.789 C14.769,18.796 14.769,18.803 14.769,18.809 C14.748,18.809 14.727,18.809 14.707,18.809 C14.707,18.816 14.707,18.823 14.707,18.830 C14.679,18.830 14.652,18.830 14.624,18.830 C14.624,18.836 14.624,18.843 14.624,18.850 C14.603,18.850 14.583,18.850 14.562,18.850 C14.562,18.856 14.562,18.863 14.562,18.870 C14.534,18.870 14.507,18.870 14.479,18.870 C14.479,18.876 14.479,18.883 14.479,18.890 C14.452,18.890 14.424,18.890 14.396,18.890 C14.396,18.897 14.396,18.903 14.396,18.910 C14.369,18.910 14.341,18.910 14.314,18.910 C14.314,18.917 14.314,18.923 14.314,18.930 C14.286,18.930 14.259,18.930 14.231,18.930 C14.231,18.937 14.231,18.944 14.231,18.950 C14.169,18.957 14.107,18.964 14.045,18.970 C14.045,18.977 14.045,18.984 14.045,18.990 C14.003,18.990 13.962,18.990 13.921,18.990 C13.921,18.997 13.921,19.004 13.921,19.011 C13.886,19.011 13.852,19.011 13.817,19.011 C13.817,19.017 13.817,19.024 13.817,19.031 C13.776,19.031 13.735,19.031 13.693,19.031 C13.693,19.037 13.693,19.044 13.693,19.051 C13.645,19.051 13.597,19.051 13.548,19.051 C13.548,19.058 13.548,19.064 13.548,19.071 C13.493,19.071 13.438,19.071 13.383,19.071 C13.383,19.078 13.383,19.084 13.383,19.091 C13.314,19.091 13.245,19.091 13.176,19.091 C13.176,19.098 13.176,19.104 13.176,19.111 C13.066,19.111 12.955,19.111 12.845,19.111 C12.845,19.118 12.845,19.125 12.845,19.131 C12.749,19.131 12.652,19.131 12.556,19.131 C12.297,19.131 12.016,19.129 11.811,19.071 C11.659,19.051 11.508,19.031 11.356,19.011 C11.356,19.004 11.356,18.997 11.356,18.990 C11.301,18.984 11.246,18.977 11.190,18.970 C11.190,18.964 11.190,18.957 11.190,18.950 C11.142,18.944 11.094,18.937 11.046,18.930 C11.046,18.923 11.046,18.917 11.046,18.910 C11.025,18.910 11.004,18.910 10.984,18.910 C10.984,18.903 10.984,18.897 10.984,18.890 C10.963,18.890 10.942,18.890 10.921,18.890 C10.921,18.883 10.921,18.876 10.921,18.870 C10.901,18.870 10.880,18.870 10.859,18.870 C10.859,18.863 10.859,18.856 10.859,18.850 C10.839,18.850 10.818,18.850 10.797,18.850 C10.797,18.843 10.797,18.836 10.797,18.830 C10.735,18.816 10.673,18.803 10.611,18.789 C10.611,18.783 10.611,18.776 10.611,18.769 C10.597,18.769 10.584,18.769 10.570,18.769 C10.570,18.762 10.570,18.756 10.570,18.749 C10.549,18.749 10.528,18.749 10.508,18.749 C10.508,18.742 10.508,18.736 10.508,18.729 C10.480,18.722 10.453,18.716 10.425,18.709 C10.425,18.702 10.425,18.695 10.425,18.689 C10.404,18.689 10.384,18.689 10.363,18.689 C10.363,18.682 10.363,18.675 10.363,18.669 C10.322,18.655 10.280,18.642 10.239,18.628 C10.239,18.622 10.239,18.615 10.239,18.608 C10.225,18.608 10.211,18.608 10.198,18.608 C10.198,18.602 10.198,18.595 10.198,18.588 C10.184,18.588 10.170,18.588 10.156,18.588 C10.156,18.581 10.156,18.575 10.156,18.568 C10.142,18.568 10.129,18.568 10.115,18.568 C10.115,18.561 10.115,18.555 10.115,18.548 C10.101,18.548 10.087,18.548 10.073,18.548 C10.073,18.541 10.073,18.534 10.073,18.528 C10.060,18.528 10.046,18.528 10.032,18.528 C10.032,18.521 10.032,18.514 10.032,18.508 C10.018,18.508 10.004,18.508 9.991,18.508 C9.991,18.501 9.991,18.494 9.991,18.488 C9.977,18.488 9.963,18.488 9.949,18.488 C9.949,18.481 9.949,18.474 9.949,18.467 C9.936,18.467 9.922,18.467 9.908,18.467 C9.901,18.454 9.894,18.441 9.887,18.427 C9.860,18.420 9.832,18.414 9.805,18.407 C9.798,18.394 9.791,18.380 9.784,18.367 C9.756,18.360 9.729,18.353 9.701,18.347 C9.701,18.340 9.701,18.333 9.701,18.327 C9.680,18.320 9.660,18.313 9.639,18.306 C9.632,18.293 9.625,18.280 9.618,18.266 C9.605,18.266 9.591,18.266 9.577,18.266 C9.570,18.253 9.563,18.239 9.556,18.226 C9.543,18.226 9.529,18.226 9.515,18.226 C9.501,18.206 9.487,18.186 9.474,18.166 C9.460,18.166 9.446,18.166 9.432,18.166 C9.418,18.146 9.405,18.125 9.391,18.105 C9.377,18.105 9.363,18.105 9.349,18.105 C9.329,18.079 9.308,18.052 9.287,18.025 C9.274,18.025 9.260,18.025 9.246,18.025 C9.232,18.005 9.218,17.985 9.205,17.965 C9.150,17.924 9.094,17.884 9.039,17.844 C9.034,17.927 9.000,18.001 8.977,18.065 C8.970,18.119 8.963,18.172 8.956,18.226 C8.950,18.226 8.943,18.226 8.936,18.226 C8.936,18.253 8.936,18.280 8.936,18.306 C8.929,18.306 8.922,18.306 8.915,18.306 C8.915,18.333 8.915,18.360 8.915,18.387 C8.908,18.387 8.901,18.387 8.894,18.387 C8.894,18.414 8.894,18.441 8.894,18.467 C8.888,18.467 8.881,18.467 8.874,18.467 C8.874,18.488 8.874,18.508 8.874,18.528 C8.867,18.528 8.860,18.528 8.853,18.528 C8.853,18.555 8.853,18.581 8.853,18.608 C8.846,18.608 8.839,18.608 8.832,18.608 C8.832,18.635 8.832,18.662 8.832,18.689 C8.825,18.689 8.819,18.689 8.812,18.689 C8.812,18.716 8.812,18.742 8.812,18.769 C8.805,18.769 8.798,18.769 8.791,18.769 C8.791,18.796 8.791,18.823 8.791,18.850 C8.685,19.149 8.627,19.498 8.522,19.795 C8.522,19.822 8.522,19.849 8.522,19.876 C8.515,19.876 8.508,19.876 8.501,19.876 C8.501,19.902 8.501,19.929 8.501,19.956 C8.495,19.956 8.488,19.956 8.481,19.956 C8.481,19.983 8.481,20.010 8.481,20.037 C8.474,20.037 8.467,20.037 8.460,20.037 C8.460,20.063 8.460,20.090 8.460,20.117 C8.359,20.402 8.295,20.741 8.191,21.022 C8.191,21.049 8.191,21.076 8.191,21.103 C8.184,21.103 8.177,21.103 8.170,21.103 C8.170,21.123 8.170,21.143 8.170,21.163 C8.164,21.163 8.157,21.163 8.150,21.163 C8.150,21.190 8.150,21.217 8.150,21.244 C8.143,21.244 8.136,21.244 8.129,21.244 C8.122,21.284 8.115,21.324 8.108,21.364 C8.102,21.364 8.095,21.364 8.088,21.364 C8.088,21.384 8.088,21.405 8.088,21.425 C8.081,21.425 8.074,21.425 8.067,21.425 C8.067,21.445 8.067,21.465 8.067,21.485 C8.060,21.485 8.053,21.485 8.046,21.485 C8.046,21.505 8.046,21.525 8.046,21.545 C8.039,21.545 8.033,21.545 8.026,21.545 C8.026,21.565 8.026,21.586 8.026,21.606 C8.019,21.606 8.012,21.606 8.005,21.606 C8.005,21.626 8.005,21.646 8.005,21.666 C7.998,21.666 7.991,21.666 7.984,21.666 C7.977,21.706 7.971,21.747 7.964,21.787 C7.957,21.787 7.950,21.787 7.943,21.787 C7.936,21.827 7.929,21.867 7.922,21.907 C7.915,21.907 7.908,21.907 7.902,21.907 C7.902,21.928 7.902,21.948 7.902,21.968 C7.895,21.968 7.888,21.968 7.881,21.968 C7.881,21.988 7.881,22.008 7.881,22.028 C7.874,22.028 7.867,22.028 7.860,22.028 C7.860,22.048 7.860,22.068 7.860,22.088 C7.853,22.088 7.846,22.088 7.840,22.088 C7.840,22.109 7.840,22.129 7.840,22.149 C7.833,22.149 7.826,22.149 7.819,22.149 C7.819,22.162 7.819,22.176 7.819,22.189 C7.812,22.189 7.805,22.189 7.798,22.189 C7.791,22.229 7.784,22.270 7.777,22.310 C7.771,22.310 7.764,22.310 7.757,22.310 C7.757,22.323 7.757,22.337 7.757,22.350 C7.750,22.350 7.743,22.350 7.736,22.350 C7.729,22.390 7.722,22.430 7.715,22.471 C7.709,22.471 7.702,22.471 7.695,22.471 C7.695,22.484 7.695,22.498 7.695,22.511 C7.688,22.511 7.681,22.511 7.674,22.511 C7.667,22.551 7.660,22.591 7.653,22.632 C7.646,22.632 7.640,22.632 7.633,22.632 C7.633,22.645 7.633,22.658 7.633,22.672 C7.626,22.672 7.619,22.672 7.612,22.672 C7.612,22.692 7.612,22.712 7.612,22.732 C7.605,22.732 7.598,22.732 7.591,22.732 C7.591,22.746 7.591,22.759 7.591,22.772 C7.584,22.772 7.578,22.772 7.571,22.772 C7.564,22.806 7.557,22.840 7.550,22.873 C7.543,22.873 7.536,22.873 7.529,22.873 C7.529,22.893 7.529,22.913 7.529,22.933 C7.522,22.933 7.515,22.933 7.509,22.933 C7.509,22.947 7.509,22.960 7.509,22.974 C7.502,22.974 7.495,22.974 7.488,22.974 C7.488,22.994 7.488,23.014 7.488,23.034 C7.481,23.034 7.474,23.034 7.467,23.034 C7.460,23.061 7.453,23.088 7.447,23.114 C7.440,23.114 7.433,23.114 7.426,23.114 C7.426,23.135 7.426,23.155 7.426,23.175 C7.419,23.175 7.412,23.175 7.405,23.175 C7.398,23.202 7.391,23.228 7.384,23.255 C7.378,23.255 7.371,23.255 7.364,23.255 C7.364,23.275 7.364,23.296 7.364,23.316 C7.357,23.316 7.350,23.316 7.343,23.316 C7.336,23.342 7.329,23.369 7.322,23.396 C7.316,23.396 7.309,23.396 7.302,23.396 C7.302,23.416 7.302,23.436 7.302,23.456 C7.295,23.456 7.288,23.456 7.281,23.456 C7.281,23.470 7.281,23.483 7.281,23.497 C7.274,23.497 7.267,23.497 7.260,23.497 C7.247,23.537 7.233,23.577 7.219,23.617 C7.212,23.617 7.205,23.617 7.198,23.617 C7.198,23.638 7.198,23.658 7.198,23.678 C7.191,23.678 7.185,23.678 7.178,23.678 C7.178,23.691 7.178,23.705 7.178,23.718 C7.171,23.718 7.164,23.718 7.157,23.718 C7.150,23.745 7.143,23.772 7.136,23.798 C7.129,23.798 7.122,23.798 7.116,23.798 C7.116,23.812 7.116,23.825 7.116,23.839 C7.109,23.839 7.102,23.839 7.095,23.839 C7.095,23.852 7.095,23.866 7.095,23.879 C7.088,23.879 7.081,23.879 7.074,23.879 C7.074,23.892 7.074,23.906 7.074,23.919 C7.067,23.919 7.060,23.919 7.054,23.919 C7.054,23.933 7.054,23.946 7.054,23.959 C7.047,23.959 7.040,23.959 7.033,23.959 C7.033,23.973 7.033,23.986 7.033,24.000 C7.026,24.000 7.019,24.000 7.012,24.000 C7.012,24.013 7.012,24.026 7.012,24.040 C7.005,24.040 6.998,24.040 6.991,24.040 C6.991,24.053 6.991,24.067 6.991,24.080 C6.985,24.080 6.978,24.080 6.971,24.080 C6.971,24.093 6.971,24.107 6.971,24.120 C6.964,24.120 6.957,24.120 6.950,24.120 C6.950,24.134 6.950,24.147 6.950,24.161 C6.943,24.161 6.936,24.161 6.929,24.161 C6.929,24.174 6.929,24.187 6.929,24.201 C6.923,24.201 6.916,24.201 6.909,24.201 C6.909,24.214 6.909,24.228 6.909,24.241 C6.895,24.248 6.881,24.254 6.867,24.261 C6.867,24.275 6.867,24.288 6.867,24.301 C6.860,24.301 6.854,24.301 6.847,24.301 C6.847,24.315 6.847,24.328 6.847,24.342 C6.840,24.342 6.833,24.342 6.826,24.342 C6.826,24.355 6.826,24.368 6.826,24.382 C6.819,24.382 6.812,24.382 6.805,24.382 C6.805,24.395 6.805,24.409 6.805,24.422 C6.792,24.429 6.778,24.435 6.764,24.442 C6.750,24.482 6.736,24.523 6.723,24.563 C6.709,24.570 6.695,24.576 6.681,24.583 C6.681,24.596 6.681,24.610 6.681,24.623 C6.674,24.623 6.667,24.623 6.660,24.623 C6.660,24.637 6.660,24.650 6.660,24.663 C6.654,24.663 6.647,24.663 6.640,24.663 C6.633,24.684 6.626,24.704 6.619,24.724 C6.605,24.731 6.592,24.737 6.578,24.744 C6.571,24.771 6.564,24.798 6.557,24.824 C6.543,24.831 6.529,24.838 6.516,24.845 C6.516,24.858 6.516,24.871 6.516,24.885 C6.502,24.891 6.488,24.898 6.474,24.905 C6.474,24.918 6.474,24.932 6.474,24.945 C6.454,24.959 6.433,24.972 6.412,24.985 C6.412,24.999 6.412,25.012 6.412,25.026 C6.398,25.032 6.385,25.039 6.371,25.046 C6.371,25.059 6.371,25.073 6.371,25.086 C6.357,25.093 6.343,25.099 6.330,25.106 C6.323,25.126 6.316,25.146 6.309,25.166 C6.281,25.187 6.254,25.207 6.226,25.227 C6.226,25.240 6.226,25.254 6.226,25.267 C6.192,25.294 6.157,25.321 6.123,25.347 C6.123,25.361 6.123,25.374 6.123,25.388 C5.999,25.502 5.874,25.616 5.750,25.730 C5.737,25.730 5.723,25.730 5.709,25.730 C5.695,25.750 5.681,25.770 5.668,25.790 C5.654,25.790 5.640,25.790 5.626,25.790 C5.619,25.803 5.612,25.817 5.606,25.830 C5.564,25.844 5.523,25.857 5.481,25.870 C5.481,25.877 5.481,25.884 5.481,25.891 C5.454,25.897 5.426,25.904 5.399,25.911 C5.399,25.917 5.399,25.924 5.399,25.931 C5.331,25.960 5.017,26.024 4.902,25.991 C4.902,25.984 4.902,25.978 4.902,25.971 C4.868,25.971 4.833,25.971 4.799,25.971 C4.799,25.964 4.799,25.958 4.799,25.951 C4.778,25.951 4.758,25.951 4.737,25.951 C4.737,25.944 4.737,25.938 4.737,25.931 C4.709,25.924 4.682,25.917 4.654,25.911 C4.654,25.904 4.654,25.897 4.654,25.891 C4.640,25.891 4.627,25.891 4.613,25.891 C4.606,25.877 4.599,25.864 4.592,25.850 C4.578,25.850 4.564,25.850 4.551,25.850 C4.537,25.830 4.523,25.810 4.509,25.790 C4.468,25.757 4.427,25.723 4.385,25.689 C4.385,25.676 4.385,25.663 4.385,25.649 C4.371,25.643 4.358,25.636 4.344,25.629 C4.344,25.616 4.344,25.602 4.344,25.589 C4.330,25.582 4.316,25.575 4.302,25.569 C4.296,25.542 4.289,25.515 4.282,25.488 C4.275,25.488 4.268,25.488 4.261,25.488 C4.247,25.448 4.234,25.408 4.220,25.368 C4.213,25.368 4.206,25.368 4.199,25.368 C4.199,25.347 4.199,25.327 4.199,25.307 C4.015,24.898 3.951,24.345 3.951,23.758 C3.951,23.501 3.909,23.108 3.972,22.893 C3.972,22.786 3.972,22.679 3.972,22.571 C3.978,22.571 3.985,22.571 3.992,22.571 C3.992,22.484 3.992,22.397 3.992,22.310 C3.999,22.310 4.006,22.310 4.013,22.310 C4.013,22.236 4.013,22.162 4.013,22.088 C4.020,22.088 4.027,22.088 4.034,22.088 C4.034,22.028 4.034,21.968 4.034,21.907 C4.040,21.907 4.047,21.907 4.054,21.907 C4.054,21.847 4.054,21.787 4.054,21.726 C4.110,21.538 4.102,21.288 4.158,21.103 C4.158,21.056 4.158,21.009 4.158,20.962 C4.202,20.818 4.217,20.623 4.261,20.479 C4.261,20.439 4.261,20.399 4.261,20.358 C4.268,20.358 4.275,20.358 4.282,20.358 C4.282,20.325 4.282,20.291 4.282,20.258 C4.289,20.258 4.296,20.258 4.302,20.258 C4.302,20.224 4.302,20.191 4.302,20.157 C4.309,20.157 4.316,20.157 4.323,20.157 C4.323,20.124 4.323,20.090 4.323,20.057 C4.330,20.057 4.337,20.057 4.344,20.057 C4.344,20.023 4.344,19.990 4.344,19.956 C4.441,19.665 4.496,19.321 4.592,19.031 C4.592,18.997 4.592,18.964 4.592,18.930 C4.599,18.930 4.606,18.930 4.613,18.930 C4.613,18.903 4.613,18.876 4.613,18.850 C4.620,18.850 4.627,18.850 4.633,18.850 C4.633,18.823 4.633,18.796 4.633,18.769 C4.640,18.769 4.647,18.769 4.654,18.769 C4.654,18.742 4.654,18.716 4.654,18.689 C4.661,18.689 4.668,18.689 4.675,18.689 C4.675,18.655 4.675,18.622 4.675,18.588 C4.862,18.026 4.944,17.381 5.130,16.818 C5.130,16.784 5.130,16.751 5.130,16.717 C5.137,16.717 5.144,16.717 5.151,16.717 C5.151,16.690 5.151,16.664 5.151,16.637 C5.157,16.637 5.164,16.637 5.171,16.637 C5.171,16.610 5.171,16.583 5.171,16.556 C5.178,16.556 5.185,16.556 5.192,16.556 C5.192,16.529 5.192,16.503 5.192,16.476 C5.199,16.476 5.206,16.476 5.213,16.476 C5.213,16.442 5.213,16.409 5.213,16.375 C5.317,16.061 5.377,15.685 5.481,15.369 C5.481,15.336 5.481,15.302 5.481,15.269 C5.488,15.269 5.495,15.269 5.502,15.269 C5.502,15.242 5.502,15.215 5.502,15.188 C5.509,15.188 5.516,15.188 5.523,15.188 C5.523,15.162 5.523,15.135 5.523,15.108 C5.530,15.108 5.537,15.108 5.544,15.108 C5.544,15.081 5.544,15.054 5.544,15.027 C5.550,15.027 5.557,15.027 5.564,15.027 C5.564,14.994 5.564,14.960 5.564,14.927 C5.660,14.638 5.712,14.290 5.812,14.001 C5.819,13.941 5.826,13.881 5.833,13.820 C5.901,13.615 5.952,13.361 6.019,13.157 C6.019,13.123 6.019,13.089 6.019,13.056 C6.026,13.056 6.033,13.056 6.040,13.056 C6.040,13.029 6.040,13.002 6.040,12.975 C6.047,12.975 6.054,12.975 6.061,12.975 C6.061,12.949 6.061,12.922 6.061,12.895 C6.068,12.895 6.074,12.895 6.081,12.895 C6.081,12.868 6.081,12.841 6.081,12.815 C6.088,12.815 6.095,12.815 6.102,12.815 C6.109,12.754 6.116,12.694 6.123,12.633 C6.130,12.633 6.136,12.633 6.143,12.633 C6.143,12.607 6.143,12.580 6.143,12.553 C6.150,12.553 6.157,12.553 6.164,12.553 C6.164,12.526 6.164,12.499 6.164,12.473 C6.171,12.473 6.178,12.473 6.185,12.473 C6.199,12.385 6.212,12.298 6.226,12.211 C6.233,12.211 6.240,12.211 6.247,12.211 C6.268,12.132 6.204,12.076 6.185,12.030 C6.178,11.996 6.171,11.963 6.164,11.929 C6.157,11.929 6.150,11.929 6.143,11.929 C6.130,11.869 6.116,11.809 6.102,11.748 C6.095,11.748 6.088,11.748 6.081,11.748 C6.081,11.722 6.081,11.695 6.081,11.668 C6.074,11.668 6.068,11.668 6.061,11.668 C6.061,11.648 6.061,11.628 6.061,11.608 C6.054,11.608 6.047,11.608 6.040,11.608 C6.033,11.561 6.026,11.514 6.019,11.467 C6.012,11.467 6.005,11.467 5.999,11.467 C5.992,11.413 5.985,11.359 5.978,11.306 C5.971,11.306 5.964,11.306 5.957,11.306 C5.950,11.245 5.943,11.185 5.937,11.125 C5.930,11.125 5.923,11.125 5.916,11.125 C5.916,11.091 5.916,11.058 5.916,11.024 C5.909,11.024 5.902,11.024 5.895,11.024 C5.895,10.984 5.895,10.944 5.895,10.903 C5.888,10.903 5.881,10.903 5.874,10.903 C5.874,10.863 5.874,10.823 5.874,10.783 C5.868,10.783 5.861,10.783 5.854,10.783 C5.854,10.736 5.854,10.689 5.854,10.642 C5.847,10.642 5.840,10.642 5.833,10.642 C5.833,10.582 5.833,10.521 5.833,10.461 C5.826,10.461 5.819,10.461 5.812,10.461 C5.812,10.374 5.812,10.286 5.812,10.199 C5.806,10.199 5.799,10.199 5.792,10.199 C5.792,10.105 5.792,10.012 5.792,9.918 C5.799,9.690 5.806,9.462 5.812,9.234 C5.819,9.234 5.826,9.234 5.833,9.234 C5.833,9.180 5.833,9.126 5.833,9.073 C5.881,8.838 5.930,8.603 5.978,8.369 C5.985,8.369 5.992,8.369 5.999,8.369 C5.999,8.349 5.999,8.328 5.999,8.308 C6.005,8.308 6.012,8.308 6.019,8.308 C6.019,8.288 6.019,8.268 6.019,8.248 C6.026,8.248 6.033,8.248 6.040,8.248 C6.054,8.181 6.068,8.114 6.081,8.047 C6.088,8.047 6.095,8.047 6.102,8.047 C6.102,8.033 6.102,8.020 6.102,8.007 C6.109,8.007 6.116,8.007 6.123,8.007 C6.130,7.966 6.136,7.926 6.143,7.886 C6.150,7.886 6.157,7.886 6.164,7.886 C6.164,7.872 6.164,7.859 6.164,7.846 C6.171,7.846 6.178,7.846 6.185,7.846 C6.185,7.826 6.185,7.805 6.185,7.785 C6.192,7.785 6.199,7.785 6.205,7.785 C6.212,7.758 6.219,7.732 6.226,7.705 C6.233,7.705 6.240,7.705 6.247,7.705 C6.247,7.685 6.247,7.665 6.247,7.644 C6.254,7.644 6.261,7.644 6.267,7.644 C6.281,7.604 6.295,7.564 6.309,7.524 C6.316,7.524 6.323,7.524 6.330,7.524 C6.330,7.510 6.330,7.497 6.330,7.484 C6.336,7.484 6.343,7.484 6.350,7.484 C6.357,7.457 6.364,7.430 6.371,7.403 C6.385,7.396 6.398,7.390 6.412,7.383 C6.426,7.343 6.440,7.302 6.454,7.262 C6.467,7.256 6.481,7.249 6.495,7.242 C6.502,7.215 6.509,7.188 6.516,7.162 C6.523,7.162 6.529,7.162 6.536,7.162 C6.543,7.142 6.550,7.121 6.557,7.101 C6.571,7.095 6.585,7.088 6.598,7.081 C6.598,7.068 6.598,7.054 6.598,7.041 C6.605,7.041 6.612,7.041 6.619,7.041 C6.626,7.021 6.633,7.001 6.640,6.981 C6.654,6.974 6.667,6.967 6.681,6.960 C6.681,6.947 6.681,6.934 6.681,6.920 C6.702,6.907 6.723,6.893 6.743,6.880 C6.743,6.867 6.743,6.853 6.743,6.840 C6.778,6.813 6.812,6.786 6.847,6.759 C6.847,6.746 6.847,6.732 6.847,6.719 C6.895,6.679 6.943,6.639 6.991,6.598 C6.991,6.585 6.991,6.572 6.991,6.558 C7.026,6.531 7.060,6.505 7.095,6.478 C7.102,6.464 7.109,6.451 7.116,6.437 C7.129,6.437 7.143,6.437 7.157,6.437 C7.205,6.384 7.253,6.330 7.302,6.277 C7.316,6.277 7.329,6.277 7.343,6.277 C7.357,6.256 7.371,6.236 7.384,6.216 C7.405,6.209 7.426,6.203 7.447,6.196 C7.453,6.183 7.460,6.169 7.467,6.156 C7.481,6.156 7.495,6.156 7.509,6.156 C7.515,6.142 7.522,6.129 7.529,6.116 C7.543,6.116 7.557,6.116 7.571,6.116 C7.578,6.102 7.584,6.089 7.591,6.075 C7.605,6.075 7.619,6.075 7.633,6.075 C7.640,6.062 7.646,6.049 7.653,6.035 C7.681,6.028 7.709,6.022 7.736,6.015 C7.743,6.002 7.750,5.988 7.757,5.975 C7.784,5.968 7.812,5.961 7.840,5.955 C7.840,5.948 7.840,5.941 7.840,5.935 C7.853,5.935 7.867,5.935 7.881,5.935 C7.881,5.928 7.881,5.921 7.881,5.914 C7.922,5.901 7.964,5.888 8.005,5.874 C8.005,5.867 8.005,5.861 8.005,5.854 C8.026,5.854 8.046,5.854 8.067,5.854 C8.067,5.847 8.067,5.841 8.067,5.834 C8.081,5.834 8.095,5.834 8.108,5.834 C8.108,5.827 8.108,5.821 8.108,5.814 C8.150,5.807 8.191,5.800 8.233,5.794 C8.233,5.787 8.233,5.780 8.233,5.774 C8.253,5.774 8.274,5.774 8.295,5.774 C8.295,5.767 8.295,5.760 8.295,5.753 C8.315,5.753 8.336,5.753 8.357,5.753 C8.357,5.747 8.357,5.740 8.357,5.733 C8.377,5.733 8.398,5.733 8.419,5.733 C8.419,5.727 8.419,5.720 8.419,5.713 C8.453,5.713 8.488,5.713 8.522,5.713 C8.818,5.622 9.304,5.600 9.618,5.693 C9.680,5.700 9.742,5.707 9.805,5.713 C9.805,5.720 9.805,5.727 9.805,5.733 C9.873,5.747 9.942,5.760 10.011,5.774 C10.011,5.780 10.011,5.787 10.011,5.794 C10.025,5.794 10.039,5.794 10.053,5.794 C10.053,5.800 10.053,5.807 10.053,5.814 C10.073,5.814 10.094,5.814 10.115,5.814 C10.115,5.821 10.115,5.827 10.115,5.834 C10.156,5.847 10.198,5.861 10.239,5.874 C10.239,5.881 10.239,5.888 10.239,5.894 C10.253,5.894 10.266,5.894 10.280,5.894 C10.280,5.901 10.280,5.908 10.280,5.914 C10.322,5.928 10.363,5.941 10.404,5.955 C10.411,5.968 10.418,5.981 10.425,5.995 C10.439,5.995 10.453,5.995 10.466,5.995 C10.473,6.008 10.480,6.022 10.487,6.035 C10.501,6.035 10.515,6.035 10.528,6.035 C10.542,6.055 10.556,6.075 10.570,6.095 C10.584,6.095 10.597,6.095 10.611,6.095 C10.625,6.116 10.639,6.136 10.653,6.156 C10.666,6.156 10.680,6.156 10.694,6.156 C10.728,6.196 10.763,6.236 10.797,6.277 C10.846,6.317 10.894,6.357 10.942,6.397 C10.942,6.411 10.942,6.424 10.942,6.437 C10.970,6.458 10.997,6.478 11.025,6.498 C11.025,6.511 11.025,6.525 11.025,6.538 C11.046,6.551 11.066,6.565 11.087,6.578 C11.087,6.592 11.087,6.605 11.087,6.619 C11.101,6.625 11.115,6.632 11.128,6.639 C11.135,6.665 11.142,6.692 11.149,6.719 C11.163,6.726 11.177,6.732 11.190,6.739 C11.190,6.753 11.190,6.766 11.190,6.779 C11.197,6.779 11.204,6.779 11.211,6.779 C11.211,6.793 11.211,6.806 11.211,6.820 C11.218,6.820 11.225,6.820 11.232,6.820 C11.232,6.833 11.232,6.846 11.232,6.860 C11.239,6.860 11.246,6.860 11.252,6.860 C11.252,6.873 11.252,6.887 11.252,6.900 C11.259,6.900 11.266,6.900 11.273,6.900 C11.273,6.914 11.273,6.927 11.273,6.940 C11.280,6.940 11.287,6.940 11.294,6.940 C11.301,6.967 11.308,6.994 11.315,7.021 C11.321,7.021 11.328,7.021 11.335,7.021 C11.335,7.041 11.335,7.061 11.335,7.081 C11.342,7.081 11.349,7.081 11.356,7.081 C11.356,7.095 11.356,7.108 11.356,7.121 C11.363,7.121 11.370,7.121 11.377,7.121 C11.425,7.296 11.473,7.470 11.521,7.644 C11.528,7.752 11.535,7.859 11.542,7.966 C11.549,7.966 11.556,7.966 11.563,7.966 C11.590,8.064 11.563,8.459 11.542,8.530 C11.535,8.650 11.528,8.771 11.521,8.892 C11.514,8.892 11.508,8.892 11.501,8.892 C11.494,8.972 11.487,9.053 11.480,9.133 C11.473,9.133 11.466,9.133 11.459,9.133 C11.459,9.173 11.459,9.214 11.459,9.254 C11.452,9.254 11.446,9.254 11.439,9.254 C11.439,9.287 11.439,9.321 11.439,9.354 C11.432,9.354 11.425,9.354 11.418,9.354 C11.411,9.415 11.404,9.475 11.397,9.535 C11.390,9.535 11.383,9.535 11.377,9.535 C11.377,9.562 11.377,9.589 11.377,9.616 C11.370,9.616 11.363,9.616 11.356,9.616 C11.349,9.676 11.342,9.737 11.335,9.797 C11.328,9.797 11.321,9.797 11.315,9.797 C11.315,9.824 11.315,9.851 11.315,9.877 C11.308,9.877 11.301,9.877 11.294,9.877 C11.280,9.951 11.266,10.025 11.252,10.099 C11.246,10.099 11.239,10.099 11.232,10.099 C11.232,10.126 11.232,10.152 11.232,10.179 C11.225,10.179 11.218,10.179 11.211,10.179 C11.211,10.199 11.211,10.219 11.211,10.240 C11.204,10.240 11.197,10.240 11.190,10.240 C11.184,10.287 11.177,10.333 11.170,10.380 C11.163,10.380 11.156,10.380 11.149,10.380 C11.149,10.407 11.149,10.434 11.149,10.461 C11.142,10.461 11.135,10.461 11.128,10.461 C11.128,10.481 11.128,10.501 11.128,10.521 C11.121,10.521 11.115,10.521 11.108,10.521 C11.108,10.548 11.108,10.575 11.108,10.602 C10.920,11.108 10.776,11.667 10.591,12.171 C10.591,12.198 10.591,12.224 10.591,12.251 C10.584,12.251 10.577,12.251 10.570,12.251 C10.570,12.271 10.570,12.292 10.570,12.312 C10.563,12.312 10.556,12.312 10.549,12.312 C10.549,12.338 10.549,12.365 10.549,12.392 C10.542,12.392 10.535,12.392 10.528,12.392 C10.528,12.412 10.528,12.432 10.528,12.452 C10.522,12.452 10.515,12.452 10.508,12.452 C10.508,12.473 10.508,12.493 10.508,12.513 C10.501,12.513 10.494,12.513 10.487,12.513 C10.480,12.560 10.473,12.607 10.466,12.654 C10.460,12.654 10.453,12.654 10.446,12.654 C10.439,12.701 10.432,12.747 10.425,12.794 C10.418,12.794 10.411,12.794 10.404,12.794 C10.391,12.868 10.377,12.942 10.363,13.016 C10.356,13.016 10.349,13.016 10.342,13.016 C10.287,13.257 10.232,13.499 10.177,13.740 C10.151,13.829 10.176,14.254 10.198,14.323 C10.204,14.323 10.211,14.323 10.218,14.323 C10.218,14.357 10.218,14.390 10.218,14.424 C10.225,14.424 10.232,14.424 10.239,14.424 C10.239,14.444 10.239,14.464 10.239,14.484 C10.246,14.484 10.253,14.484 10.260,14.484 C10.273,14.545 10.287,14.605 10.301,14.665 C10.308,14.665 10.315,14.665 10.322,14.665 C10.335,14.706 10.349,14.746 10.363,14.786 C10.370,14.786 10.377,14.786 10.384,14.786 C10.391,14.813 10.397,14.840 10.404,14.866 C10.418,14.873 10.432,14.880 10.446,14.887 C10.446,14.900 10.446,14.913 10.446,14.927 C10.460,14.934 10.473,14.940 10.487,14.947 C10.487,14.960 10.487,14.974 10.487,14.987 C10.508,15.001 10.528,15.014 10.549,15.027 C10.549,15.041 10.549,15.054 10.549,15.068 C10.584,15.094 10.618,15.121 10.653,15.148 C10.653,15.162 10.653,15.175 10.653,15.188 C10.659,15.188 10.666,15.188 10.673,15.188 C10.687,15.208 10.701,15.229 10.715,15.249 C10.728,15.249 10.742,15.249 10.756,15.249 C10.790,15.289 10.825,15.329 10.859,15.369 C10.873,15.369 10.887,15.369 10.901,15.369 C10.908,15.383 10.915,15.396 10.921,15.410 C10.942,15.416 10.963,15.423 10.984,15.430 C10.984,15.436 10.984,15.443 10.984,15.450 C10.997,15.450 11.011,15.450 11.025,15.450 C11.032,15.463 11.039,15.477 11.046,15.490 C11.087,15.504 11.128,15.517 11.170,15.530 C11.170,15.537 11.170,15.544 11.170,15.550 C11.183,15.550 11.197,15.550 11.211,15.550 C11.211,15.557 11.211,15.564 11.211,15.571 C11.252,15.584 11.294,15.597 11.335,15.611 C11.335,15.618 11.335,15.624 11.335,15.631 C11.356,15.631 11.377,15.631 11.397,15.631 C11.397,15.638 11.397,15.644 11.397,15.651 C11.411,15.651 11.425,15.651 11.439,15.651 C11.439,15.658 11.439,15.664 11.439,15.671 C11.466,15.671 11.494,15.671 11.521,15.671 C11.521,15.678 11.521,15.685 11.521,15.691 C11.542,15.691 11.563,15.691 11.583,15.691 C11.583,15.698 11.583,15.705 11.583,15.711 C11.611,15.711 11.639,15.711 11.666,15.711 C11.666,15.718 11.666,15.725 11.666,15.732 C11.708,15.732 11.749,15.732 11.790,15.732 C11.790,15.738 11.790,15.745 11.790,15.752 C11.839,15.752 11.887,15.752 11.935,15.752 C11.935,15.758 11.935,15.765 11.935,15.772 C12.039,15.800 12.336,15.772 12.411,15.752 C12.507,15.745 12.604,15.738 12.700,15.732 C12.700,15.725 12.700,15.718 12.700,15.711 C12.790,15.698 12.880,15.685 12.969,15.671 C12.969,15.664 12.969,15.658 12.969,15.651 C13.031,15.638 13.093,15.624 13.155,15.611 C13.155,15.604 13.155,15.597 13.155,15.591 C13.169,15.591 13.183,15.591 13.197,15.591 C13.197,15.584 13.197,15.577 13.197,15.571 C13.217,15.571 13.238,15.571 13.259,15.571 C13.259,15.564 13.259,15.557 13.259,15.550 C13.300,15.537 13.342,15.524 13.383,15.510 C13.383,15.504 13.383,15.497 13.383,15.490 C13.397,15.490 13.411,15.490 13.424,15.490 C13.424,15.483 13.424,15.477 13.424,15.470 C13.438,15.470 13.452,15.470 13.466,15.470 C13.466,15.463 13.466,15.457 13.466,15.450 C13.479,15.450 13.493,15.450 13.507,15.450 C13.507,15.443 13.507,15.436 13.507,15.430 C13.548,15.416 13.590,15.403 13.631,15.390 C13.631,15.383 13.631,15.376 13.631,15.369 C13.652,15.363 13.673,15.356 13.693,15.349 C13.700,15.336 13.707,15.322 13.714,15.309 C13.728,15.309 13.741,15.309 13.755,15.309 C13.755,15.302 13.755,15.296 13.755,15.289 C13.776,15.282 13.797,15.276 13.817,15.269 C13.824,15.255 13.831,15.242 13.838,15.229 C13.852,15.229 13.866,15.229 13.879,15.229 C13.893,15.208 13.907,15.188 13.921,15.168 C13.935,15.168 13.948,15.168 13.962,15.168 C13.976,15.148 13.990,15.128 14.003,15.108 C14.017,15.108 14.031,15.108 14.045,15.108 C14.072,15.074 14.100,15.041 14.128,15.007 C14.141,15.007 14.155,15.007 14.169,15.007 C14.224,14.947 14.279,14.887 14.334,14.826 C14.403,14.766 14.472,14.706 14.541,14.645 C14.541,14.632 14.541,14.618 14.541,14.605 C14.583,14.571 14.624,14.538 14.665,14.504 C14.665,14.491 14.665,14.478 14.665,14.464 C14.693,14.444 14.721,14.424 14.748,14.404 C14.748,14.390 14.748,14.377 14.748,14.364 C14.769,14.350 14.789,14.337 14.810,14.323 C14.810,14.310 14.810,14.296 14.810,14.283 C14.831,14.270 14.852,14.256 14.872,14.243 C14.872,14.229 14.872,14.216 14.872,14.203 C14.886,14.196 14.900,14.189 14.914,14.183 C14.920,14.162 14.927,14.142 14.934,14.122 C14.941,14.122 14.948,14.122 14.955,14.122 C14.955,14.109 14.955,14.095 14.955,14.082 C14.969,14.075 14.983,14.069 14.996,14.062 C14.996,14.048 14.996,14.035 14.996,14.022 C15.010,14.015 15.024,14.008 15.038,14.001 C15.038,13.988 15.038,13.975 15.038,13.961 C15.051,13.955 15.065,13.948 15.079,13.941 C15.079,13.928 15.079,13.914 15.079,13.901 C15.093,13.894 15.107,13.887 15.120,13.881 C15.120,13.867 15.120,13.854 15.120,13.841 C15.127,13.841 15.134,13.841 15.141,13.841 C15.141,13.827 15.141,13.814 15.141,13.800 C15.155,13.794 15.169,13.787 15.182,13.780 C15.196,13.740 15.210,13.700 15.224,13.659 C15.539,13.172 15.753,12.595 15.969,12.010 C15.969,11.983 15.969,11.956 15.969,11.929 C15.975,11.929 15.982,11.929 15.989,11.929 C15.989,11.909 15.989,11.889 15.989,11.869 C15.996,11.869 16.003,11.869 16.010,11.869 C16.010,11.849 16.010,11.829 16.010,11.809 C16.017,11.809 16.024,11.809 16.031,11.809 C16.037,11.755 16.044,11.701 16.051,11.648 C16.058,11.648 16.065,11.648 16.072,11.648 C16.072,11.621 16.072,11.594 16.072,11.567 C16.079,11.567 16.086,11.567 16.093,11.567 C16.093,11.547 16.093,11.527 16.093,11.507 C16.100,11.507 16.106,11.507 16.113,11.507 C16.127,11.420 16.141,11.333 16.155,11.245 C16.162,11.245 16.168,11.245 16.175,11.245 C16.182,11.185 16.189,11.125 16.196,11.064 C16.203,11.064 16.210,11.064 16.217,11.064 C16.224,10.991 16.231,10.917 16.237,10.843 C16.244,10.843 16.251,10.843 16.258,10.843 C16.258,10.810 16.258,10.776 16.258,10.742 C16.265,10.742 16.272,10.742 16.279,10.742 C16.279,10.702 16.279,10.662 16.279,10.622 C16.286,10.622 16.293,10.622 16.299,10.622 C16.299,10.582 16.299,10.541 16.299,10.501 C16.306,10.501 16.313,10.501 16.320,10.501 C16.320,10.454 16.320,10.407 16.320,10.360 C16.327,10.360 16.334,10.360 16.341,10.360 C16.341,10.313 16.341,10.266 16.341,10.219 C16.348,10.219 16.355,10.219 16.362,10.219 C16.362,10.166 16.362,10.112 16.362,10.059 C16.368,10.059 16.375,10.059 16.382,10.059 C16.382,9.998 16.382,9.938 16.382,9.877 C16.389,9.877 16.396,9.877 16.403,9.877 C16.403,9.810 16.403,9.743 16.403,9.676 C16.410,9.676 16.417,9.676 16.424,9.676 C16.430,9.475 16.437,9.274 16.444,9.073 C16.494,8.899 16.465,8.618 16.465,8.409 C16.465,8.288 16.465,8.168 16.465,8.047 C16.458,8.047 16.451,8.047 16.444,8.047 C16.444,7.980 16.444,7.913 16.444,7.846 C16.441,7.807 16.424,7.805 16.424,7.805 C16.424,7.745 16.424,7.685 16.424,7.624 C16.417,7.624 16.410,7.624 16.403,7.624 C16.403,7.577 16.403,7.530 16.403,7.484 C16.396,7.484 16.389,7.484 16.382,7.484 C16.382,7.443 16.382,7.403 16.382,7.363 C16.375,7.363 16.368,7.363 16.362,7.363 C16.362,7.329 16.362,7.296 16.362,7.262 C16.355,7.262 16.348,7.262 16.341,7.262 C16.341,7.229 16.341,7.195 16.341,7.162 C16.334,7.162 16.327,7.162 16.320,7.162 C16.320,7.135 16.320,7.108 16.320,7.081 C16.313,7.081 16.306,7.081 16.299,7.081 C16.299,7.048 16.299,7.014 16.299,6.981 C16.293,6.981 16.286,6.981 16.279,6.981 C16.265,6.907 16.251,6.833 16.237,6.759 C16.231,6.759 16.224,6.759 16.217,6.759 C16.217,6.739 16.217,6.719 16.217,6.699 C16.210,6.699 16.203,6.699 16.196,6.699 C16.196,6.679 16.196,6.659 16.196,6.639 C16.189,6.639 16.182,6.639 16.175,6.639 C16.168,6.598 16.162,6.558 16.155,6.518 C16.148,6.518 16.141,6.518 16.134,6.518 C16.134,6.505 16.134,6.491 16.134,6.478 C16.127,6.478 16.120,6.478 16.113,6.478 C16.106,6.437 16.100,6.397 16.093,6.357 C15.969,6.116 15.844,5.874 15.720,5.633 C15.707,5.626 15.693,5.619 15.679,5.613 C15.679,5.599 15.679,5.586 15.679,5.572 C15.665,5.566 15.651,5.559 15.638,5.552 C15.638,5.539 15.638,5.525 15.638,5.512 C15.631,5.512 15.624,5.512 15.617,5.512 C15.610,5.492 15.603,5.472 15.596,5.452 C15.582,5.445 15.569,5.438 15.555,5.432 C15.555,5.418 15.555,5.405 15.555,5.391 C15.534,5.378 15.513,5.365 15.493,5.351 C15.493,5.338 15.493,5.324 15.493,5.311 C15.472,5.297 15.451,5.284 15.431,5.271 C15.431,5.257 15.431,5.244 15.431,5.230 C15.403,5.210 15.376,5.190 15.348,5.170 C15.348,5.157 15.348,5.143 15.348,5.130 C15.300,5.090 15.251,5.049 15.203,5.009 C15.203,4.996 15.203,4.982 15.203,4.969 C15.169,4.942 15.134,4.915 15.100,4.888 C15.045,4.828 14.989,4.768 14.934,4.707 C14.920,4.707 14.907,4.707 14.893,4.707 C14.852,4.660 14.810,4.614 14.769,4.567 C14.755,4.567 14.741,4.567 14.727,4.567 C14.707,4.540 14.686,4.513 14.665,4.486 C14.652,4.486 14.638,4.486 14.624,4.486 C14.610,4.466 14.596,4.446 14.583,4.426 C14.569,4.426 14.555,4.426 14.541,4.426 C14.527,4.406 14.514,4.386 14.500,4.365 C14.486,4.365 14.472,4.365 14.459,4.365 C14.452,4.352 14.445,4.339 14.438,4.325 C14.417,4.318 14.396,4.312 14.376,4.305 C14.376,4.298 14.376,4.292 14.376,4.285 C14.362,4.285 14.348,4.285 14.334,4.285 C14.328,4.272 14.321,4.258 14.314,4.245 C14.300,4.245 14.286,4.245 14.272,4.245 C14.265,4.231 14.259,4.218 14.252,4.204 C14.238,4.204 14.224,4.204 14.210,4.204 C14.203,4.191 14.197,4.178 14.190,4.164 C14.162,4.158 14.134,4.151 14.107,4.144 C14.100,4.131 14.093,4.117 14.086,4.104 C14.072,4.104 14.059,4.104 14.045,4.104 C14.045,4.097 14.045,4.090 14.045,4.084 C14.031,4.084 14.017,4.084 14.003,4.084 C14.003,4.077 14.003,4.070 14.003,4.064 C13.990,4.064 13.976,4.064 13.962,4.064 C13.962,4.057 13.962,4.050 13.962,4.044 C13.948,4.044 13.935,4.044 13.921,4.044 C13.921,4.037 13.921,4.030 13.921,4.023 C13.907,4.023 13.893,4.023 13.879,4.023 C13.879,4.017 13.879,4.010 13.879,4.003 C13.866,4.003 13.852,4.003 13.838,4.003 C13.838,3.997 13.838,3.990 13.838,3.983 C13.824,3.983 13.810,3.983 13.797,3.983 C13.797,3.976 13.797,3.970 13.797,3.963 C13.783,3.963 13.769,3.963 13.755,3.963 C13.755,3.956 13.755,3.950 13.755,3.943 C13.741,3.943 13.728,3.943 13.714,3.943 C13.714,3.936 13.714,3.930 13.714,3.923 C13.700,3.923 13.686,3.923 13.673,3.923 C13.673,3.916 13.673,3.909 13.673,3.903 C13.645,3.896 13.617,3.889 13.590,3.883 C13.590,3.876 13.590,3.869 13.590,3.862 C13.576,3.862 13.562,3.862 13.548,3.862 C13.548,3.856 13.548,3.849 13.548,3.842 C13.528,3.842 13.507,3.842 13.486,3.842 C13.486,3.836 13.486,3.829 13.486,3.822 C13.459,3.816 13.431,3.809 13.404,3.802 C13.404,3.795 13.404,3.789 13.404,3.782 C13.362,3.775 13.321,3.769 13.280,3.762 C13.280,3.755 13.280,3.748 13.280,3.742 C13.266,3.742 13.252,3.742 13.238,3.742 C13.238,3.735 13.238,3.728 13.238,3.722 C13.197,3.715 13.155,3.708 13.114,3.702 C13.114,3.695 13.114,3.688 13.114,3.681 C13.093,3.681 13.073,3.681 13.052,3.681 C13.052,3.675 13.052,3.668 13.052,3.661 C13.031,3.661 13.011,3.661 12.990,3.661 C12.990,3.655 12.990,3.648 12.990,3.641 C12.969,3.641 12.949,3.641 12.928,3.641 C12.928,3.634 12.928,3.628 12.928,3.621 C12.907,3.621 12.887,3.621 12.866,3.621 C12.866,3.614 12.866,3.608 12.866,3.601 C12.818,3.594 12.769,3.588 12.721,3.581 C12.721,3.574 12.721,3.567 12.721,3.561 C12.693,3.561 12.666,3.561 12.638,3.561 C12.638,3.554 12.638,3.547 12.638,3.541 C12.611,3.541 12.583,3.541 12.556,3.541 C12.556,3.534 12.556,3.527 12.556,3.520 C12.521,3.520 12.487,3.520 12.452,3.520 C12.452,3.514 12.452,3.507 12.452,3.500 C12.425,3.500 12.397,3.500 12.369,3.500 C12.369,3.494 12.369,3.487 12.369,3.480 C12.335,3.480 12.300,3.480 12.266,3.480 C12.266,3.474 12.266,3.467 12.266,3.460 C12.142,3.447 12.018,3.433 11.894,3.420 C11.614,3.342 11.288,3.355 10.942,3.339 C10.834,3.335 10.643,3.282 10.508,3.319 C10.508,3.326 10.508,3.333 10.508,3.339 C10.280,3.346 10.053,3.353 9.825,3.360 C9.825,3.366 9.825,3.373 9.825,3.380 C9.763,3.380 9.701,3.380 9.639,3.380 C9.639,3.386 9.639,3.393 9.639,3.400 C9.591,3.400 9.543,3.400 9.494,3.400 C9.357,3.439 9.172,3.460 9.039,3.500 C9.005,3.500 8.970,3.500 8.936,3.500 C8.936,3.507 8.936,3.514 8.936,3.520 C8.908,3.520 8.881,3.520 8.853,3.520 C8.853,3.527 8.853,3.534 8.853,3.541 C8.825,3.541 8.798,3.541 8.770,3.541 C8.770,3.547 8.770,3.554 8.770,3.561 C8.743,3.561 8.715,3.561 8.688,3.561 C8.688,3.567 8.688,3.574 8.688,3.581 C8.660,3.581 8.632,3.581 8.605,3.581 C8.605,3.588 8.605,3.594 8.605,3.601 C8.584,3.601 8.563,3.601 8.543,3.601 C8.543,3.608 8.543,3.614 8.543,3.621 C8.515,3.621 8.488,3.621 8.460,3.621 C8.460,3.628 8.460,3.634 8.460,3.641 C8.439,3.641 8.419,3.641 8.398,3.641 C8.398,3.648 8.398,3.655 8.398,3.661 C8.377,3.661 8.357,3.661 8.336,3.661 C8.336,3.668 8.336,3.675 8.336,3.681 C8.315,3.681 8.295,3.681 8.274,3.681 C8.274,3.688 8.274,3.695 8.274,3.702 C8.253,3.702 8.233,3.702 8.212,3.702 C8.212,3.708 8.212,3.715 8.212,3.722 C8.191,3.722 8.170,3.722 8.150,3.722 C8.150,3.728 8.150,3.735 8.150,3.742 C8.108,3.748 8.067,3.755 8.026,3.762 C8.026,3.769 8.026,3.775 8.026,3.782 C8.012,3.782 7.998,3.782 7.984,3.782 C7.984,3.789 7.984,3.795 7.984,3.802 C7.964,3.802 7.943,3.802 7.922,3.802 C7.922,3.809 7.922,3.816 7.922,3.822 C7.908,3.822 7.895,3.822 7.881,3.822 C7.881,3.829 7.881,3.836 7.881,3.842 C7.860,3.842 7.840,3.842 7.819,3.842 C7.819,3.849 7.819,3.856 7.819,3.862 C7.791,3.869 7.764,3.876 7.736,3.883 C7.736,3.889 7.736,3.896 7.736,3.903 C7.715,3.903 7.695,3.903 7.674,3.903 C7.674,3.909 7.674,3.916 7.674,3.923 C7.660,3.923 7.646,3.923 7.633,3.923 C7.633,3.930 7.633,3.936 7.633,3.943 C7.605,3.950 7.578,3.956 7.550,3.963 C7.550,3.970 7.550,3.976 7.550,3.983 C7.536,3.983 7.522,3.983 7.509,3.983 C7.509,3.990 7.509,3.997 7.509,4.003 C7.495,4.003 7.481,4.003 7.467,4.003 C7.467,4.010 7.467,4.017 7.467,4.023 C7.453,4.023 7.440,4.023 7.426,4.023 C7.426,4.030 7.426,4.037 7.426,4.044 C7.412,4.044 7.398,4.044 7.384,4.044 C7.384,4.050 7.384,4.057 7.384,4.064 C7.371,4.064 7.357,4.064 7.343,4.064 C7.343,4.070 7.343,4.077 7.343,4.084 C7.329,4.084 7.316,4.084 7.302,4.084 C7.302,4.090 7.302,4.097 7.302,4.104 C7.288,4.104 7.274,4.104 7.260,4.104 C7.260,4.111 7.260,4.117 7.260,4.124 C7.247,4.124 7.233,4.124 7.219,4.124 C7.219,4.131 7.219,4.137 7.219,4.144 C7.205,4.144 7.191,4.144 7.178,4.144 C7.178,4.151 7.178,4.158 7.178,4.164 C7.164,4.164 7.150,4.164 7.136,4.164 C7.136,4.171 7.136,4.178 7.136,4.184 C7.122,4.184 7.109,4.184 7.095,4.184 C7.088,4.198 7.081,4.211 7.074,4.225 C7.047,4.231 7.019,4.238 6.991,4.245 C6.985,4.258 6.978,4.272 6.971,4.285 C6.957,4.285 6.943,4.285 6.929,4.285 C6.929,4.292 6.929,4.298 6.929,4.305 C6.916,4.305 6.902,4.305 6.888,4.305 C6.888,4.312 6.888,4.318 6.888,4.325 C6.867,4.332 6.847,4.339 6.826,4.345 C6.819,4.359 6.812,4.372 6.805,4.386 C6.778,4.392 6.750,4.399 6.723,4.406 C6.716,4.419 6.709,4.432 6.702,4.446 C6.688,4.446 6.674,4.446 6.660,4.446 C6.647,4.466 6.633,4.486 6.619,4.506 C6.605,4.506 6.592,4.506 6.578,4.506 C6.571,4.520 6.564,4.533 6.557,4.546 C6.543,4.546 6.529,4.546 6.516,4.546 C6.509,4.560 6.502,4.573 6.495,4.587 C6.474,4.593 6.454,4.600 6.433,4.607 C6.419,4.627 6.405,4.647 6.392,4.667 C6.378,4.667 6.364,4.667 6.350,4.667 C6.343,4.681 6.336,4.694 6.330,4.707 C6.309,4.714 6.288,4.721 6.267,4.728 C6.247,4.754 6.226,4.781 6.205,4.808 C6.192,4.808 6.178,4.808 6.164,4.808 C6.143,4.835 6.123,4.862 6.102,4.888 C6.095,4.888 6.088,4.888 6.081,4.888 C6.074,4.902 6.068,4.915 6.061,4.929 C6.047,4.929 6.033,4.929 6.019,4.929 C5.943,5.009 5.868,5.090 5.792,5.170 C5.778,5.170 5.764,5.170 5.750,5.170 C5.737,5.190 5.723,5.210 5.709,5.230 C5.702,5.230 5.695,5.230 5.688,5.230 C5.688,5.244 5.688,5.257 5.688,5.271 C5.606,5.344 5.523,5.418 5.440,5.492 C5.440,5.505 5.440,5.519 5.440,5.532 C5.399,5.566 5.357,5.599 5.316,5.633 C5.316,5.646 5.316,5.660 5.316,5.673 C5.288,5.693 5.261,5.713 5.233,5.733 C5.233,5.747 5.233,5.760 5.233,5.774 C5.206,5.794 5.178,5.814 5.151,5.834 C5.151,5.847 5.151,5.861 5.151,5.874 C5.130,5.888 5.109,5.901 5.088,5.914 C5.088,5.928 5.088,5.941 5.088,5.955 C5.075,5.961 5.061,5.968 5.047,5.975 C5.047,5.988 5.047,6.002 5.047,6.015 C5.026,6.028 5.006,6.042 4.985,6.055 C4.985,6.069 4.985,6.082 4.985,6.095 C4.971,6.102 4.957,6.109 4.944,6.116 C4.944,6.129 4.944,6.142 4.944,6.156 C4.930,6.163 4.916,6.169 4.902,6.176 C4.902,6.189 4.902,6.203 4.902,6.216 C4.889,6.223 4.875,6.230 4.861,6.236 C4.861,6.250 4.861,6.263 4.861,6.277 C4.847,6.283 4.833,6.290 4.820,6.297 C4.813,6.323 4.806,6.350 4.799,6.377 C4.785,6.384 4.771,6.391 4.758,6.397 C4.751,6.417 4.744,6.437 4.737,6.458 C4.730,6.458 4.723,6.458 4.716,6.458 C4.702,6.498 4.689,6.538 4.675,6.578 C4.661,6.585 4.647,6.592 4.633,6.598 C4.585,6.706 4.537,6.813 4.489,6.920 C4.482,6.920 4.475,6.920 4.468,6.920 C4.468,6.934 4.468,6.947 4.468,6.960 C4.461,6.960 4.454,6.960 4.447,6.960 C4.447,6.974 4.447,6.987 4.447,7.001 C4.440,7.001 4.433,7.001 4.427,7.001 C4.427,7.014 4.427,7.028 4.427,7.041 C4.420,7.041 4.413,7.041 4.406,7.041 C4.392,7.081 4.378,7.121 4.365,7.162 C4.358,7.162 4.351,7.162 4.344,7.162 C4.344,7.182 4.344,7.202 4.344,7.222 C4.337,7.222 4.330,7.222 4.323,7.222 C4.316,7.249 4.309,7.276 4.302,7.302 C4.296,7.302 4.289,7.302 4.282,7.302 C4.282,7.323 4.282,7.343 4.282,7.363 C4.275,7.363 4.268,7.363 4.261,7.363 C4.261,7.376 4.261,7.390 4.261,7.403 C4.254,7.403 4.247,7.403 4.240,7.403 C4.240,7.423 4.240,7.443 4.240,7.463 C4.234,7.463 4.227,7.463 4.220,7.463 C4.220,7.477 4.220,7.490 4.220,7.504 C4.213,7.504 4.206,7.504 4.199,7.504 C4.192,7.544 4.185,7.584 4.178,7.624 C4.171,7.624 4.165,7.624 4.158,7.624 C4.158,7.638 4.158,7.651 4.158,7.665 C4.151,7.665 4.144,7.665 4.137,7.665 C4.116,7.752 4.096,7.839 4.075,7.926 C4.068,7.926 4.061,7.926 4.054,7.926 C4.054,7.946 4.054,7.966 4.054,7.986 C4.047,7.986 4.040,7.986 4.034,7.986 C4.034,8.007 4.034,8.027 4.034,8.047 C4.027,8.047 4.020,8.047 4.013,8.047 C4.006,8.100 3.999,8.154 3.992,8.208 C3.985,8.208 3.978,8.208 3.972,8.208 C3.972,8.235 3.972,8.261 3.972,8.288 C3.965,8.288 3.958,8.288 3.951,8.288 C3.951,8.315 3.951,8.342 3.951,8.369 C3.944,8.369 3.937,8.369 3.930,8.369 C3.930,8.396 3.930,8.422 3.930,8.449 C3.923,8.449 3.916,8.449 3.909,8.449 C3.909,8.483 3.909,8.516 3.909,8.550 C3.903,8.550 3.896,8.550 3.889,8.550 C3.889,8.583 3.889,8.617 3.889,8.650 C3.882,8.650 3.875,8.650 3.868,8.650 C3.868,8.691 3.868,8.731 3.868,8.771 C3.861,8.771 3.854,8.771 3.847,8.771 C3.847,8.811 3.847,8.851 3.847,8.892 C3.841,8.892 3.834,8.892 3.827,8.892 C3.827,8.939 3.827,8.986 3.827,9.033 C3.820,9.033 3.813,9.033 3.806,9.033 C3.799,9.180 3.792,9.328 3.785,9.475 C3.741,9.630 3.741,10.085 3.785,10.240 C3.785,10.313 3.785,10.387 3.785,10.461 C3.792,10.461 3.799,10.461 3.806,10.461 C3.806,10.514 3.806,10.568 3.806,10.622 C3.813,10.622 3.820,10.622 3.827,10.622 C3.827,10.662 3.827,10.702 3.827,10.742 C3.834,10.742 3.841,10.742 3.847,10.742 C3.847,10.776 3.847,10.810 3.847,10.843 C3.854,10.843 3.861,10.843 3.868,10.843 C3.868,10.877 3.868,10.910 3.868,10.944 C3.875,10.944 3.882,10.944 3.889,10.944 C3.889,10.970 3.889,10.997 3.889,11.024 C3.896,11.024 3.903,11.024 3.909,11.024 C3.909,11.051 3.909,11.078 3.909,11.105 C3.916,11.105 3.923,11.105 3.930,11.105 C3.930,11.131 3.930,11.158 3.930,11.185 C3.937,11.185 3.944,11.185 3.951,11.185 C3.951,11.205 3.951,11.225 3.951,11.245 C3.958,11.245 3.965,11.245 3.972,11.245 C3.972,11.266 3.972,11.286 3.972,11.306 C3.978,11.306 3.985,11.306 3.992,11.306 C3.992,11.326 3.992,11.346 3.992,11.366 C3.999,11.366 4.006,11.366 4.013,11.366 C4.013,11.380 4.013,11.393 4.013,11.406 C4.020,11.406 4.027,11.406 4.034,11.406 C4.040,11.447 4.047,11.487 4.054,11.527 C4.061,11.527 4.068,11.527 4.075,11.527 C4.089,11.567 4.103,11.608 4.116,11.648 C4.123,11.648 4.130,11.648 4.137,11.648 C4.137,11.661 4.137,11.675 4.137,11.688 C4.144,11.688 4.151,11.688 4.158,11.688 C4.158,11.701 4.158,11.715 4.158,11.728 C4.165,11.728 4.171,11.728 4.178,11.728 C4.178,11.742 4.178,11.755 4.178,11.768 C4.185,11.768 4.192,11.768 4.199,11.768 C4.199,11.782 4.199,11.795 4.199,11.809 C4.206,11.809 4.213,11.809 4.220,11.809 C4.234,11.849 4.247,11.889 4.261,11.929 C4.275,11.936 4.289,11.943 4.302,11.950 C4.309,11.976 4.316,12.003 4.323,12.030 C4.337,12.037 4.351,12.043 4.365,12.050 C4.365,12.064 4.365,12.077 4.365,12.090 C4.371,12.090 4.378,12.090 4.385,12.090 C4.392,12.110 4.399,12.131 4.406,12.151 C4.420,12.157 4.433,12.164 4.447,12.171 C4.447,12.184 4.447,12.198 4.447,12.211 C4.468,12.224 4.489,12.238 4.509,12.251 C4.509,12.265 4.509,12.278 4.509,12.292 C4.523,12.298 4.537,12.305 4.551,12.312 C4.558,12.332 4.564,12.352 4.571,12.372 C4.606,12.399 4.640,12.426 4.675,12.452 C4.805,12.628 4.935,12.804 5.006,13.036 C5.032,13.122 5.003,13.361 4.985,13.418 C4.985,13.452 4.985,13.485 4.985,13.519 C4.936,13.667 4.891,13.854 4.840,14.001 C4.833,14.055 4.826,14.109 4.820,14.162 C4.813,14.162 4.806,14.162 4.799,14.162 C4.792,14.216 4.785,14.270 4.778,14.323 C4.771,14.323 4.764,14.323 4.758,14.323 C4.758,14.350 4.758,14.377 4.758,14.404 C4.751,14.404 4.744,14.404 4.737,14.404 C4.737,14.431 4.737,14.457 4.737,14.484 C4.730,14.484 4.723,14.484 4.716,14.484 C4.716,14.511 4.716,14.538 4.716,14.565 C4.709,14.565 4.702,14.565 4.695,14.565 C4.695,14.592 4.695,14.618 4.695,14.645 C4.689,14.645 4.682,14.645 4.675,14.645 C4.675,14.665 4.675,14.685 4.675,14.706 C4.668,14.706 4.661,14.706 4.654,14.706 C4.640,14.779 4.627,14.853 4.613,14.927 C4.606,14.927 4.599,14.927 4.592,14.927 C4.578,14.967 4.564,15.007 4.551,15.048 C4.544,15.048 4.537,15.048 4.530,15.048 C4.523,15.074 4.516,15.101 4.509,15.128 C4.489,15.141 4.468,15.155 4.447,15.168 C4.447,15.182 4.447,15.195 4.447,15.208 C4.406,15.242 4.365,15.276 4.323,15.309 C4.316,15.322 4.309,15.336 4.302,15.349 C4.289,15.349 4.275,15.349 4.261,15.349 C4.254,15.363 4.247,15.376 4.240,15.390 C4.227,15.390 4.213,15.390 4.199,15.390 C4.192,15.403 4.185,15.416 4.178,15.430 C4.165,15.430 4.151,15.430 4.137,15.430 C4.137,15.436 4.137,15.443 4.137,15.450 C4.116,15.450 4.096,15.450 4.075,15.450 C4.075,15.457 4.075,15.463 4.075,15.470 C4.061,15.470 4.047,15.470 4.034,15.470 C4.034,15.477 4.034,15.483 4.034,15.490 C3.983,15.509 3.696,15.552 3.620,15.530 C3.620,15.524 3.620,15.517 3.620,15.510 C3.579,15.510 3.537,15.510 3.496,15.510 C3.496,15.504 3.496,15.497 3.496,15.490 C3.468,15.490 3.441,15.490 3.413,15.490 C3.413,15.483 3.413,15.477 3.413,15.470 C3.392,15.470 3.372,15.470 3.351,15.470 C3.351,15.463 3.351,15.457 3.351,15.450 C3.337,15.450 3.323,15.450 3.310,15.450 C3.310,15.443 3.310,15.436 3.310,15.430 C3.289,15.430 3.268,15.430 3.248,15.430 C3.248,15.423 3.248,15.416 3.248,15.410 C3.220,15.403 3.192,15.396 3.165,15.390 C3.165,15.383 3.165,15.376 3.165,15.369 C3.151,15.369 3.137,15.369 3.123,15.369 C3.123,15.363 3.123,15.356 3.123,15.349 C3.103,15.349 3.082,15.349 3.061,15.349 C3.061,15.343 3.061,15.336 3.061,15.329 C3.034,15.322 3.006,15.316 2.979,15.309 C2.979,15.302 2.979,15.296 2.979,15.289 C2.951,15.282 2.924,15.276 2.896,15.269 C2.889,15.255 2.882,15.242 2.875,15.229 C2.861,15.229 2.848,15.229 2.834,15.229 C2.834,15.222 2.834,15.215 2.834,15.208 C2.820,15.208 2.806,15.208 2.793,15.208 C2.793,15.202 2.793,15.195 2.793,15.188 C2.779,15.188 2.765,15.188 2.751,15.188 C2.751,15.182 2.751,15.175 2.751,15.168 C2.737,15.168 2.724,15.168 2.710,15.168 C2.703,15.155 2.696,15.141 2.689,15.128 C2.662,15.121 2.634,15.115 2.606,15.108 C2.599,15.094 2.593,15.081 2.586,15.068 C2.572,15.068 2.558,15.068 2.544,15.068 C2.544,15.061 2.544,15.054 2.544,15.048 C2.524,15.041 2.503,15.034 2.482,15.027 C2.475,15.014 2.468,15.001 2.462,14.987 C2.448,14.987 2.434,14.987 2.420,14.987 C2.406,14.967 2.393,14.947 2.379,14.927 C2.365,14.927 2.351,14.927 2.337,14.927 C2.331,14.913 2.324,14.900 2.317,14.887 C2.303,14.887 2.289,14.887 2.275,14.887 C2.255,14.860 2.234,14.833 2.213,14.806 C2.200,14.806 2.186,14.806 2.172,14.806 C2.151,14.779 2.131,14.752 2.110,14.726 C2.096,14.726 2.082,14.726 2.069,14.726 C2.027,14.679 1.986,14.632 1.944,14.585 C1.931,14.585 1.917,14.585 1.903,14.585 C1.875,14.551 1.848,14.518 1.820,14.484 C1.758,14.431 1.696,14.377 1.634,14.323 C1.634,14.310 1.634,14.296 1.634,14.283 C1.586,14.243 1.538,14.203 1.489,14.162 C1.489,14.149 1.489,14.136 1.489,14.122 C1.455,14.095 1.420,14.069 1.386,14.042 C1.379,14.022 1.372,14.001 1.365,13.981 C1.351,13.975 1.338,13.968 1.324,13.961 C1.324,13.948 1.324,13.934 1.324,13.921 C1.303,13.908 1.283,13.894 1.262,13.881 C1.255,13.861 1.248,13.841 1.241,13.820 C1.227,13.814 1.214,13.807 1.200,13.800 C1.200,13.787 1.200,13.773 1.200,13.760 C1.186,13.753 1.172,13.747 1.158,13.740 C1.152,13.720 1.145,13.700 1.138,13.680 C1.131,13.680 1.124,13.680 1.117,13.680 C1.117,13.666 1.117,13.653 1.117,13.639 C1.103,13.633 1.089,13.626 1.076,13.619 C1.069,13.599 1.062,13.579 1.055,13.559 C1.048,13.559 1.041,13.559 1.034,13.559 C1.027,13.532 1.021,13.505 1.014,13.478 C1.000,13.472 0.986,13.465 0.972,13.458 C0.965,13.431 0.958,13.405 0.952,13.378 C0.938,13.371 0.924,13.364 0.910,13.358 C0.910,13.344 0.910,13.331 0.910,13.317 C0.903,13.317 0.896,13.317 0.890,13.317 C0.890,13.304 0.890,13.291 0.890,13.277 C0.883,13.277 0.876,13.277 0.869,13.277 C0.869,13.264 0.869,13.250 0.869,13.237 C0.862,13.237 0.855,13.237 0.848,13.237 C0.848,13.224 0.848,13.210 0.848,13.197 C0.841,13.197 0.834,13.197 0.827,13.197 C0.827,13.183 0.827,13.170 0.827,13.157 C0.814,13.150 0.800,13.143 0.786,13.136 C0.765,13.076 0.745,13.016 0.724,12.955 C0.717,12.955 0.710,12.955 0.703,12.955 C0.703,12.942 0.703,12.929 0.703,12.915 C0.696,12.915 0.690,12.915 0.683,12.915 C0.669,12.875 0.655,12.835 0.641,12.794 C0.634,12.794 0.628,12.794 0.621,12.794 C0.621,12.774 0.621,12.754 0.621,12.734 C0.614,12.734 0.607,12.734 0.600,12.734 C0.593,12.707 0.586,12.680 0.579,12.654 C0.572,12.654 0.565,12.654 0.559,12.654 C0.559,12.633 0.559,12.613 0.559,12.593 C0.552,12.593 0.545,12.593 0.538,12.593 C0.538,12.580 0.538,12.566 0.538,12.553 C0.531,12.553 0.524,12.553 0.517,12.553 C0.510,12.513 0.503,12.473 0.497,12.432 C0.490,12.432 0.483,12.432 0.476,12.432 C0.476,12.419 0.476,12.405 0.476,12.392 C0.469,12.392 0.462,12.392 0.455,12.392 C0.441,12.332 0.428,12.271 0.414,12.211 C0.407,12.211 0.400,12.211 0.393,12.211 C0.393,12.191 0.393,12.171 0.393,12.151 C0.386,12.151 0.379,12.151 0.372,12.151 C0.372,12.131 0.372,12.110 0.372,12.090 C0.366,12.090 0.359,12.090 0.352,12.090 C0.352,12.070 0.352,12.050 0.352,12.030 C0.345,12.030 0.338,12.030 0.331,12.030 C0.324,11.983 0.317,11.936 0.310,11.889 C0.303,11.889 0.297,11.889 0.290,11.889 C0.283,11.842 0.276,11.795 0.269,11.748 C0.262,11.748 0.255,11.748 0.248,11.748 C0.241,11.695 0.235,11.641 0.228,11.587 C0.221,11.587 0.214,11.587 0.207,11.587 C0.207,11.554 0.207,11.520 0.207,11.487 C0.200,11.487 0.193,11.487 0.186,11.487 C0.186,11.460 0.186,11.433 0.186,11.406 C0.179,11.406 0.172,11.406 0.166,11.406 C0.166,11.373 0.166,11.339 0.166,11.306 C0.159,11.306 0.152,11.306 0.145,11.306 C0.131,11.192 0.117,11.078 0.104,10.964 C0.097,10.964 0.090,10.964 0.083,10.964 C0.083,10.924 0.083,10.883 0.083,10.843 C0.076,10.843 0.069,10.843 0.062,10.843 C0.062,10.789 0.062,10.736 0.062,10.682 C0.055,10.682 0.048,10.682 0.041,10.682 C0.041,10.622 0.041,10.561 0.041,10.501 C0.035,10.501 0.028,10.501 0.021,10.501 C0.021,10.434 0.021,10.367 0.021,10.300 C0.014,10.300 0.007,10.300 0.000,10.300 C0.000,10.193 0.000,10.085 0.000,9.978 C-0.043,9.825 -0.044,9.225 0.000,9.073 C0.014,8.858 0.028,8.644 0.041,8.429 C0.048,8.429 0.055,8.429 0.062,8.429 C0.062,8.382 0.062,8.335 0.062,8.288 C0.069,8.288 0.076,8.288 0.083,8.288 C0.083,8.241 0.083,8.194 0.083,8.147 C0.090,8.147 0.097,8.147 0.104,8.147 C0.104,8.114 0.104,8.080 0.104,8.047 C0.110,8.047 0.117,8.047 0.124,8.047 C0.124,8.007 0.124,7.966 0.124,7.926 C0.214,7.584 0.303,7.242 0.393,6.900 C0.620,6.289 0.869,5.681 1.200,5.170 C1.214,5.130 1.227,5.090 1.241,5.049 C1.255,5.043 1.269,5.036 1.283,5.029 C1.289,5.002 1.296,4.976 1.303,4.949 C1.317,4.942 1.331,4.935 1.345,4.929 C1.351,4.902 1.358,4.875 1.365,4.848 C1.372,4.848 1.379,4.848 1.386,4.848 C1.393,4.828 1.400,4.808 1.407,4.788 C1.420,4.781 1.434,4.774 1.448,4.768 C1.455,4.741 1.462,4.714 1.469,4.687 C1.476,4.687 1.482,4.687 1.489,4.687 C1.496,4.667 1.503,4.647 1.510,4.627 C1.524,4.620 1.538,4.614 1.551,4.607 C1.551,4.593 1.551,4.580 1.551,4.567 C1.558,4.567 1.565,4.567 1.572,4.567 C1.579,4.546 1.586,4.526 1.593,4.506 C1.607,4.500 1.620,4.493 1.634,4.486 C1.634,4.473 1.634,4.459 1.634,4.446 C1.655,4.432 1.676,4.419 1.696,4.406 C1.696,4.392 1.696,4.379 1.696,4.365 C1.703,4.365 1.710,4.365 1.717,4.365 C1.724,4.345 1.731,4.325 1.738,4.305 C1.751,4.298 1.765,4.292 1.779,4.285 C1.779,4.272 1.779,4.258 1.779,4.245 C1.800,4.231 1.820,4.218 1.841,4.204 C1.841,4.191 1.841,4.178 1.841,4.164 C1.862,4.151 1.882,4.137 1.903,4.124 C1.903,4.111 1.903,4.097 1.903,4.084 C1.924,4.070 1.944,4.057 1.965,4.044 C1.965,4.030 1.965,4.017 1.965,4.003 C1.993,3.983 2.020,3.963 2.048,3.943 C2.048,3.930 2.048,3.916 2.048,3.903 C2.075,3.883 2.103,3.862 2.131,3.842 C2.131,3.829 2.131,3.816 2.131,3.802 C2.165,3.775 2.200,3.748 2.234,3.722 C2.234,3.708 2.234,3.695 2.234,3.681 C2.275,3.648 2.317,3.614 2.358,3.581 C2.358,3.567 2.358,3.554 2.358,3.541 C2.413,3.494 2.468,3.447 2.524,3.400 C2.524,3.386 2.524,3.373 2.524,3.360 C2.593,3.299 2.662,3.239 2.730,3.178 C2.855,3.051 2.979,2.924 3.103,2.796 C3.117,2.796 3.130,2.796 3.144,2.796 C3.199,2.736 3.254,2.676 3.310,2.615 C3.323,2.615 3.337,2.615 3.351,2.615 C3.358,2.602 3.365,2.588 3.372,2.575 C3.379,2.575 3.385,2.575 3.392,2.575 C3.413,2.548 3.434,2.521 3.454,2.495 C3.468,2.495 3.482,2.495 3.496,2.495 C3.503,2.481 3.510,2.468 3.516,2.454 C3.523,2.454 3.530,2.454 3.537,2.454 C3.544,2.441 3.551,2.427 3.558,2.414 C3.572,2.414 3.585,2.414 3.599,2.414 C3.627,2.381 3.654,2.347 3.682,2.313 C3.696,2.313 3.710,2.313 3.723,2.313 C3.737,2.293 3.751,2.273 3.765,2.253 C3.778,2.253 3.792,2.253 3.806,2.253 C3.820,2.233 3.834,2.213 3.847,2.193 C3.861,2.193 3.875,2.193 3.889,2.193 C3.903,2.173 3.916,2.153 3.930,2.132 C3.944,2.132 3.958,2.132 3.972,2.132 C3.985,2.112 3.999,2.092 4.013,2.072 C4.027,2.072 4.040,2.072 4.054,2.072 C4.068,2.052 4.082,2.032 4.096,2.012 C4.109,2.012 4.123,2.012 4.137,2.012 C4.137,2.005 4.137,1.998 4.137,1.992 C4.158,1.985 4.178,1.978 4.199,1.971 C4.206,1.958 4.213,1.945 4.220,1.931 C4.234,1.931 4.247,1.931 4.261,1.931 C4.275,1.911 4.289,1.891 4.302,1.871 C4.316,1.871 4.330,1.871 4.344,1.871 C4.351,1.857 4.358,1.844 4.365,1.831 C4.385,1.824 4.406,1.817 4.427,1.811 C4.427,1.804 4.427,1.797 4.427,1.790 C4.440,1.790 4.454,1.790 4.468,1.790 C4.475,1.777 4.482,1.764 4.489,1.750 C4.516,1.743 4.544,1.737 4.571,1.730 C4.571,1.723 4.571,1.717 4.571,1.710 C4.592,1.703 4.613,1.697 4.633,1.690 C4.640,1.676 4.647,1.663 4.654,1.650 C4.682,1.643 4.709,1.636 4.737,1.629 C4.744,1.616 4.751,1.603 4.758,1.589 C4.785,1.583 4.813,1.576 4.840,1.569 C4.847,1.556 4.854,1.542 4.861,1.529 C4.889,1.522 4.916,1.515 4.944,1.509 C4.951,1.495 4.957,1.482 4.964,1.469 C4.978,1.469 4.992,1.469 5.006,1.469 C5.006,1.462 5.006,1.455 5.006,1.448 C5.020,1.448 5.033,1.448 5.047,1.448 C5.047,1.442 5.047,1.435 5.047,1.428 C5.061,1.428 5.075,1.428 5.088,1.428 C5.088,1.422 5.088,1.415 5.088,1.408 C5.102,1.408 5.116,1.408 5.130,1.408 C5.137,1.395 5.144,1.381 5.151,1.368 C5.178,1.361 5.206,1.355 5.233,1.348 C5.233,1.341 5.233,1.334 5.233,1.328 C5.247,1.328 5.261,1.328 5.275,1.328 C5.275,1.321 5.275,1.314 5.275,1.308 C5.288,1.308 5.302,1.308 5.316,1.308 C5.316,1.301 5.316,1.294 5.316,1.287 C5.330,1.287 5.344,1.287 5.357,1.287 C5.357,1.281 5.357,1.274 5.357,1.267 C5.371,1.267 5.385,1.267 5.399,1.267 C5.399,1.261 5.399,1.254 5.399,1.247 C5.426,1.241 5.454,1.234 5.481,1.227 C5.481,1.220 5.481,1.214 5.481,1.207 C5.509,1.200 5.537,1.194 5.564,1.187 C5.564,1.180 5.564,1.173 5.564,1.167 C5.578,1.167 5.592,1.167 5.606,1.167 C5.606,1.160 5.606,1.153 5.606,1.147 C5.619,1.147 5.633,1.147 5.647,1.147 C5.647,1.140 5.647,1.133 5.647,1.127 C5.661,1.127 5.675,1.127 5.688,1.127 C5.688,1.120 5.688,1.113 5.688,1.106 C5.702,1.106 5.716,1.106 5.730,1.106 C5.730,1.100 5.730,1.093 5.730,1.086 C5.771,1.073 5.812,1.059 5.854,1.046 C5.854,1.039 5.854,1.033 5.854,1.026 C5.888,1.019 5.923,1.013 5.957,1.006 C5.957,0.999 5.957,0.992 5.957,0.986 C5.985,0.979 6.012,0.972 6.040,0.966 C6.040,0.959 6.040,0.952 6.040,0.946 C6.061,0.946 6.081,0.946 6.102,0.946 C6.102,0.939 6.102,0.932 6.102,0.925 C6.130,0.919 6.157,0.912 6.185,0.905 C6.185,0.899 6.185,0.892 6.185,0.885 C6.205,0.885 6.226,0.885 6.247,0.885 C6.247,0.878 6.247,0.872 6.247,0.865 C6.261,0.865 6.274,0.865 6.288,0.865 C6.288,0.858 6.288,0.852 6.288,0.845 C6.309,0.845 6.330,0.845 6.350,0.845 C6.350,0.838 6.350,0.832 6.350,0.825 C6.364,0.825 6.378,0.825 6.392,0.825 C6.392,0.818 6.392,0.811 6.392,0.805 C6.433,0.798 6.474,0.791 6.516,0.785 C6.516,0.778 6.516,0.771 6.516,0.764 C6.529,0.764 6.543,0.764 6.557,0.764 C6.557,0.758 6.557,0.751 6.557,0.744 C6.578,0.744 6.598,0.744 6.619,0.744 C6.619,0.738 6.619,0.731 6.619,0.724 C6.640,0.724 6.661,0.724 6.681,0.724 C6.681,0.718 6.681,0.711 6.681,0.704 C6.695,0.704 6.709,0.704 6.723,0.704 C6.723,0.697 6.723,0.691 6.723,0.684 C6.785,0.671 6.847,0.657 6.909,0.644 C6.909,0.637 6.909,0.630 6.909,0.624 C6.929,0.624 6.950,0.624 6.971,0.624 C6.971,0.617 6.971,0.610 6.971,0.604 C6.991,0.604 7.012,0.604 7.033,0.604 C7.033,0.597 7.033,0.590 7.033,0.583 C7.054,0.583 7.074,0.583 7.095,0.583 C7.095,0.577 7.095,0.570 7.095,0.563 C7.116,0.563 7.136,0.563 7.157,0.563 C7.157,0.557 7.157,0.550 7.157,0.543 C7.226,0.530 7.295,0.516 7.364,0.503 C7.364,0.496 7.364,0.490 7.364,0.483 C7.412,0.476 7.460,0.469 7.509,0.463 C7.509,0.456 7.509,0.449 7.509,0.443 C7.564,0.436 7.619,0.429 7.674,0.422 C7.918,0.338 8.223,0.297 8.481,0.221 C8.522,0.221 8.563,0.221 8.605,0.221 C8.605,0.215 8.605,0.208 8.605,0.201 C8.639,0.201 8.674,0.201 8.708,0.201 C8.708,0.194 8.708,0.188 8.708,0.181 C8.750,0.181 8.791,0.181 8.832,0.181 C8.832,0.174 8.832,0.168 8.832,0.161 C8.881,0.161 8.929,0.161 8.977,0.161 C8.977,0.154 8.977,0.148 8.977,0.141 C9.019,0.141 9.060,0.141 9.101,0.141 C9.101,0.134 9.101,0.127 9.101,0.121 C9.156,0.121 9.212,0.121 9.267,0.121 C9.267,0.114 9.267,0.107 9.267,0.101 C9.322,0.101 9.377,0.101 9.432,0.101 C9.432,0.094 9.432,0.087 9.432,0.080 C9.494,0.080 9.556,0.080 9.618,0.080 C9.618,0.074 9.618,0.067 9.618,0.060 C9.694,0.060 9.770,0.060 9.846,0.060 C9.846,0.054 9.846,0.047 9.846,0.040 C9.991,0.034 10.136,0.027 10.280,0.020 C10.350,0.020 10.450,0.032 10.487,-0.000 Z"/>
</svg>