<svg 
 xmlns="http://www.w3.org/2000/svg"
 xmlns:xlink="http://www.w3.org/1999/xlink"
 width="27px" height="21px">
<path fill-rule="evenodd"  fill="rgb(198, 198, 198)"
 d="M27.006,2.947 C26.046,3.357 25.013,3.637 23.929,3.760 C25.036,3.120 25.884,2.108 26.285,0.901 C25.248,1.492 24.104,1.924 22.883,2.155 C21.906,1.150 20.512,0.523 18.972,0.523 C16.014,0.523 13.614,2.837 13.614,5.692 C13.614,6.097 13.661,6.492 13.753,6.870 C9.300,6.655 5.353,4.596 2.710,1.469 C2.249,2.233 1.984,3.120 1.984,4.068 C1.984,5.862 2.929,7.444 4.368,8.372 C3.489,8.344 2.664,8.111 1.942,7.725 C1.941,7.746 1.941,7.766 1.941,7.790 C1.941,10.295 3.787,12.383 6.238,12.859 C5.789,12.977 5.315,13.040 4.826,13.040 C4.481,13.040 4.146,13.008 3.818,12.947 C4.500,15.001 6.480,16.496 8.824,16.537 C6.990,17.924 4.680,18.749 2.170,18.749 C1.738,18.749 1.311,18.726 0.891,18.678 C3.263,20.144 6.080,21.000 9.103,21.000 C18.959,21.000 24.349,13.123 24.349,6.292 C24.349,6.067 24.342,5.846 24.333,5.624 C25.381,4.894 26.288,3.983 27.006,2.947 Z"/>
</svg>