<svg 
 xmlns="http://www.w3.org/2000/svg"
 xmlns:xlink="http://www.w3.org/1999/xlink"
 width="33px" height="33px">
<path fill-rule="evenodd"  fill="rgb(144, 143, 150)"
 d="M16.500,33.000 C7.402,33.000 -0.000,25.598 -0.000,16.500 C-0.000,7.402 7.402,-0.000 16.500,-0.000 C25.598,-0.000 33.000,7.402 33.000,16.500 C33.000,25.598 25.598,33.000 16.500,33.000 ZM16.500,1.320 C8.130,1.320 1.320,8.130 1.320,16.500 C1.320,24.870 8.130,31.680 16.500,31.680 C24.870,31.680 31.680,24.870 31.680,16.500 C31.680,8.130 24.870,1.320 16.500,1.320 ZM18.101,11.701 C18.067,11.704 18.032,11.707 17.998,11.711 C17.998,11.714 17.998,11.717 17.998,11.720 C17.976,11.724 17.954,11.727 17.932,11.730 C17.932,11.733 17.932,11.737 17.932,11.740 C17.922,11.740 17.913,11.740 17.904,11.740 C17.904,11.743 17.904,11.746 17.904,11.750 C17.894,11.750 17.885,11.750 17.875,11.750 C17.875,11.753 17.875,11.756 17.875,11.759 C17.866,11.759 17.857,11.759 17.847,11.759 C17.847,11.763 17.847,11.766 17.847,11.769 C17.828,11.772 17.810,11.776 17.791,11.779 C17.791,11.782 17.791,11.785 17.791,11.789 C17.772,11.795 17.753,11.802 17.734,11.808 C17.734,11.811 17.734,11.815 17.734,11.818 C17.728,11.818 17.722,11.818 17.716,11.818 C17.716,11.821 17.716,11.824 17.716,11.828 C17.697,11.834 17.678,11.841 17.659,11.847 C17.656,11.854 17.653,11.860 17.650,11.867 C17.637,11.870 17.625,11.873 17.612,11.877 C17.609,11.883 17.606,11.890 17.603,11.896 C17.593,11.899 17.584,11.903 17.575,11.906 C17.565,11.919 17.556,11.932 17.546,11.945 C17.540,11.945 17.534,11.945 17.528,11.945 C17.509,11.968 17.490,11.990 17.471,12.013 C17.462,12.020 17.452,12.026 17.443,12.033 C17.443,12.039 17.443,12.046 17.443,12.052 C17.430,12.062 17.418,12.072 17.405,12.082 C17.405,12.088 17.405,12.095 17.405,12.101 C17.399,12.104 17.393,12.108 17.387,12.111 C17.383,12.121 17.380,12.130 17.377,12.140 C17.374,12.140 17.371,12.140 17.368,12.140 C17.365,12.153 17.362,12.166 17.358,12.179 C17.352,12.183 17.346,12.186 17.340,12.189 C17.330,12.218 17.321,12.248 17.311,12.277 C17.308,12.277 17.305,12.277 17.302,12.277 C17.302,12.283 17.302,12.290 17.302,12.296 C17.299,12.296 17.296,12.296 17.293,12.296 C17.289,12.313 17.286,12.329 17.283,12.345 C17.280,12.345 17.277,12.345 17.274,12.345 C17.271,12.368 17.268,12.391 17.264,12.414 C17.185,12.647 17.189,12.963 17.189,13.283 C17.189,13.810 17.189,14.337 17.189,14.864 C18.092,14.864 18.994,14.864 19.897,14.864 C19.781,15.812 19.665,16.759 19.549,17.706 C18.762,17.706 17.976,17.706 17.189,17.706 C17.189,20.137 17.189,22.569 17.189,25.000 C16.249,25.000 15.309,25.000 14.369,25.000 C14.369,22.569 14.369,20.137 14.369,17.706 C13.579,17.706 12.790,17.706 12.000,17.706 C12.000,16.759 12.000,15.812 12.000,14.864 C12.790,14.864 13.579,14.864 14.369,14.864 C14.369,14.422 14.369,13.979 14.369,13.537 C14.369,13.279 14.369,13.022 14.369,12.765 C14.369,12.684 14.361,12.576 14.378,12.511 C14.378,12.456 14.378,12.401 14.378,12.345 C14.382,12.345 14.385,12.345 14.388,12.345 C14.388,12.306 14.388,12.267 14.388,12.228 C14.391,12.228 14.394,12.228 14.397,12.228 C14.397,12.199 14.397,12.169 14.397,12.140 C14.400,12.140 14.403,12.140 14.407,12.140 C14.407,12.114 14.407,12.088 14.407,12.062 C14.410,12.062 14.413,12.062 14.416,12.062 C14.416,12.039 14.416,12.017 14.416,11.994 C14.419,11.994 14.422,11.994 14.425,11.994 C14.425,11.971 14.425,11.948 14.425,11.925 C14.443,11.863 14.454,11.781 14.472,11.720 C14.472,11.704 14.472,11.688 14.472,11.671 C14.476,11.671 14.479,11.671 14.482,11.671 C14.482,11.658 14.482,11.645 14.482,11.632 C14.485,11.632 14.488,11.632 14.491,11.632 C14.491,11.619 14.491,11.606 14.491,11.593 C14.494,11.593 14.497,11.593 14.501,11.593 C14.501,11.580 14.501,11.567 14.501,11.554 C14.504,11.554 14.507,11.554 14.510,11.554 C14.510,11.541 14.510,11.528 14.510,11.515 C14.513,11.515 14.516,11.515 14.519,11.515 C14.523,11.489 14.526,11.463 14.529,11.437 C14.532,11.437 14.535,11.437 14.538,11.437 C14.544,11.405 14.551,11.372 14.557,11.340 C14.560,11.340 14.563,11.340 14.566,11.340 C14.566,11.330 14.566,11.320 14.566,11.310 C14.570,11.310 14.573,11.310 14.576,11.310 C14.576,11.300 14.576,11.291 14.576,11.281 C14.579,11.281 14.582,11.281 14.585,11.281 C14.585,11.271 14.585,11.261 14.585,11.252 C14.588,11.252 14.591,11.252 14.595,11.252 C14.598,11.232 14.601,11.213 14.604,11.193 C14.607,11.193 14.610,11.193 14.613,11.193 C14.613,11.187 14.613,11.180 14.613,11.174 C14.617,11.174 14.620,11.174 14.623,11.174 C14.626,11.154 14.629,11.134 14.632,11.115 C14.635,11.115 14.638,11.115 14.642,11.115 C14.642,11.108 14.642,11.102 14.642,11.095 C14.645,11.095 14.648,11.095 14.651,11.095 C14.651,11.086 14.651,11.076 14.651,11.066 C14.654,11.066 14.657,11.066 14.660,11.066 C14.660,11.060 14.660,11.053 14.660,11.047 C14.664,11.047 14.667,11.047 14.670,11.047 C14.670,11.037 14.670,11.027 14.670,11.017 C14.673,11.017 14.676,11.017 14.679,11.017 C14.679,11.011 14.679,11.004 14.679,10.998 C14.682,10.998 14.685,10.998 14.689,10.998 C14.692,10.981 14.695,10.965 14.698,10.949 C14.701,10.949 14.704,10.949 14.707,10.949 C14.714,10.929 14.720,10.910 14.726,10.890 C14.729,10.890 14.732,10.890 14.736,10.890 C14.736,10.884 14.736,10.877 14.736,10.871 C14.739,10.871 14.742,10.871 14.745,10.871 C14.745,10.861 14.745,10.851 14.745,10.842 C14.748,10.842 14.751,10.842 14.754,10.842 C14.758,10.829 14.761,10.815 14.764,10.802 C14.767,10.802 14.770,10.802 14.773,10.802 C14.776,10.789 14.779,10.776 14.783,10.763 C14.789,10.760 14.795,10.757 14.801,10.754 C14.801,10.747 14.801,10.741 14.801,10.734 C14.805,10.734 14.808,10.734 14.811,10.734 C14.811,10.728 14.811,10.721 14.811,10.715 C14.814,10.715 14.817,10.715 14.820,10.715 C14.820,10.708 14.820,10.702 14.820,10.695 C14.823,10.695 14.826,10.695 14.830,10.695 C14.830,10.689 14.830,10.682 14.830,10.676 C14.833,10.676 14.836,10.676 14.839,10.676 C14.839,10.669 14.839,10.663 14.839,10.656 C14.845,10.653 14.852,10.649 14.858,10.646 C14.864,10.627 14.870,10.607 14.877,10.588 C14.883,10.584 14.889,10.581 14.895,10.578 C14.895,10.571 14.895,10.565 14.895,10.558 C14.899,10.558 14.902,10.558 14.905,10.558 C14.905,10.552 14.905,10.545 14.905,10.539 C14.911,10.536 14.917,10.532 14.924,10.529 C14.924,10.523 14.924,10.516 14.924,10.510 C14.930,10.506 14.936,10.503 14.942,10.500 C14.942,10.493 14.942,10.487 14.942,10.480 C14.949,10.477 14.955,10.474 14.961,10.470 C14.961,10.464 14.961,10.457 14.961,10.451 C14.967,10.448 14.974,10.444 14.980,10.441 C14.980,10.435 14.980,10.428 14.980,10.422 C14.986,10.418 14.993,10.415 14.999,10.412 C14.999,10.405 14.999,10.399 14.999,10.392 C15.005,10.389 15.011,10.386 15.018,10.383 C15.018,10.376 15.018,10.370 15.018,10.363 C15.027,10.357 15.036,10.350 15.046,10.344 C15.046,10.337 15.046,10.331 15.046,10.324 C15.055,10.317 15.065,10.311 15.074,10.304 C15.074,10.298 15.074,10.291 15.074,10.285 C15.087,10.275 15.099,10.265 15.112,10.256 C15.112,10.249 15.112,10.243 15.112,10.236 C15.124,10.226 15.137,10.217 15.149,10.207 C15.149,10.200 15.149,10.194 15.149,10.187 C15.168,10.171 15.187,10.155 15.206,10.138 C15.206,10.132 15.206,10.125 15.206,10.119 C15.234,10.093 15.262,10.067 15.290,10.041 C15.347,9.979 15.403,9.917 15.459,9.855 C15.466,9.855 15.472,9.855 15.478,9.855 C15.494,9.836 15.510,9.816 15.525,9.797 C15.532,9.797 15.538,9.797 15.544,9.797 C15.553,9.784 15.563,9.771 15.572,9.758 C15.579,9.758 15.585,9.758 15.591,9.758 C15.600,9.745 15.610,9.732 15.619,9.719 C15.626,9.719 15.632,9.719 15.638,9.719 C15.644,9.709 15.651,9.699 15.657,9.689 C15.663,9.689 15.669,9.689 15.676,9.689 C15.679,9.683 15.682,9.676 15.685,9.670 C15.691,9.670 15.698,9.670 15.704,9.670 C15.710,9.660 15.716,9.650 15.723,9.640 C15.729,9.640 15.735,9.640 15.741,9.640 C15.745,9.634 15.748,9.627 15.751,9.621 C15.757,9.621 15.763,9.621 15.770,9.621 C15.773,9.614 15.776,9.608 15.779,9.601 C15.785,9.601 15.792,9.601 15.798,9.601 C15.801,9.595 15.804,9.588 15.807,9.582 C15.814,9.582 15.820,9.582 15.826,9.582 C15.829,9.575 15.832,9.569 15.835,9.562 C15.848,9.559 15.861,9.556 15.873,9.553 C15.876,9.546 15.879,9.540 15.882,9.533 C15.889,9.533 15.895,9.533 15.901,9.533 C15.901,9.530 15.901,9.527 15.901,9.523 C15.908,9.523 15.914,9.523 15.920,9.523 C15.923,9.517 15.926,9.510 15.929,9.504 C15.948,9.497 15.967,9.491 15.986,9.484 C15.989,9.478 15.992,9.471 15.995,9.465 C16.002,9.465 16.008,9.465 16.014,9.465 C16.014,9.461 16.014,9.458 16.014,9.455 C16.020,9.455 16.027,9.455 16.033,9.455 C16.033,9.452 16.033,9.448 16.033,9.445 C16.039,9.445 16.045,9.445 16.052,9.445 C16.052,9.442 16.052,9.439 16.052,9.435 C16.058,9.435 16.064,9.435 16.071,9.435 C16.071,9.432 16.071,9.429 16.071,9.426 C16.077,9.426 16.083,9.426 16.089,9.426 C16.089,9.422 16.089,9.419 16.089,9.416 C16.096,9.416 16.102,9.416 16.108,9.416 C16.108,9.413 16.108,9.409 16.108,9.406 C16.114,9.406 16.121,9.406 16.127,9.406 C16.127,9.403 16.127,9.400 16.127,9.396 C16.133,9.396 16.139,9.396 16.146,9.396 C16.146,9.393 16.146,9.390 16.146,9.387 C16.152,9.387 16.158,9.387 16.165,9.387 C16.165,9.383 16.165,9.380 16.165,9.377 C16.183,9.370 16.202,9.364 16.221,9.357 C16.221,9.354 16.221,9.351 16.221,9.348 C16.237,9.344 16.252,9.341 16.268,9.338 C16.268,9.335 16.268,9.331 16.268,9.328 C16.280,9.325 16.293,9.322 16.306,9.318 C16.306,9.315 16.306,9.312 16.306,9.308 C16.315,9.308 16.324,9.308 16.334,9.308 C16.334,9.305 16.334,9.302 16.334,9.299 C16.340,9.299 16.346,9.299 16.353,9.299 C16.353,9.295 16.353,9.292 16.353,9.289 C16.371,9.286 16.390,9.282 16.409,9.279 C16.409,9.276 16.409,9.273 16.409,9.269 C16.415,9.269 16.421,9.269 16.428,9.269 C16.428,9.266 16.428,9.263 16.428,9.260 C16.456,9.253 16.484,9.247 16.512,9.240 C16.512,9.237 16.512,9.234 16.512,9.230 C16.519,9.230 16.525,9.230 16.531,9.230 C16.531,9.227 16.531,9.224 16.531,9.221 C16.553,9.217 16.575,9.214 16.597,9.211 C16.597,9.208 16.597,9.204 16.597,9.201 C16.606,9.201 16.616,9.201 16.625,9.201 C16.625,9.198 16.625,9.195 16.625,9.191 C16.635,9.191 16.644,9.191 16.653,9.191 C16.653,9.188 16.653,9.185 16.653,9.182 C16.663,9.182 16.672,9.182 16.682,9.182 C16.682,9.178 16.682,9.175 16.682,9.172 C16.703,9.169 16.725,9.165 16.747,9.162 C16.747,9.159 16.747,9.156 16.747,9.152 C16.760,9.152 16.772,9.152 16.785,9.152 C16.861,9.125 16.959,9.109 17.039,9.084 C17.058,9.084 17.076,9.084 17.095,9.084 C17.095,9.081 17.095,9.077 17.095,9.074 C17.111,9.074 17.127,9.074 17.142,9.074 C17.142,9.071 17.142,9.068 17.142,9.064 C17.164,9.064 17.186,9.064 17.208,9.064 C17.208,9.061 17.208,9.058 17.208,9.055 C17.230,9.055 17.252,9.055 17.274,9.055 C17.274,9.051 17.274,9.048 17.274,9.045 C17.371,9.038 17.468,9.032 17.565,9.025 C17.621,9.009 17.715,9.032 17.772,9.016 C17.844,8.995 18.057,8.995 18.129,9.016 C18.273,9.016 18.418,9.016 18.562,9.016 C18.562,9.019 18.562,9.022 18.562,9.025 C18.643,9.025 18.725,9.025 18.806,9.025 C18.806,9.029 18.806,9.032 18.806,9.035 C18.831,9.035 18.856,9.035 18.881,9.035 C18.925,9.035 18.969,9.035 19.013,9.035 C19.013,9.038 19.013,9.042 19.013,9.045 C19.085,9.048 19.157,9.051 19.229,9.055 C19.264,9.055 19.298,9.055 19.333,9.055 C19.333,9.058 19.333,9.061 19.333,9.064 C19.376,9.064 19.420,9.064 19.464,9.064 C19.464,9.068 19.464,9.071 19.464,9.074 C19.474,9.074 19.483,9.074 19.492,9.074 C19.524,9.074 19.555,9.074 19.586,9.074 C19.586,9.077 19.586,9.081 19.586,9.084 C19.624,9.084 19.662,9.084 19.699,9.084 C19.699,9.087 19.699,9.090 19.699,9.094 C19.734,9.094 19.768,9.094 19.803,9.094 C19.803,9.097 19.803,9.100 19.803,9.103 C19.834,9.103 19.865,9.103 19.897,9.103 C19.897,9.107 19.897,9.110 19.897,9.113 C19.931,9.116 19.966,9.120 20.000,9.123 C20.000,9.969 20.000,10.816 20.000,11.662 C19.577,11.662 19.154,11.662 18.731,11.662 C18.512,11.662 18.272,11.648 18.101,11.701 Z"/>
</svg>