<svg 
 xmlns="http://www.w3.org/2000/svg"
 xmlns:xlink="http://www.w3.org/1999/xlink"
 width="33px" height="33px">
<path fill-rule="evenodd"  fill="rgb(144, 143, 150)"
 d="M16.500,33.000 C12.981,33.000 9.724,31.884 7.042,30.000 C7.038,29.998 7.033,29.996 7.028,29.995 C7.026,29.992 7.024,29.988 7.023,29.985 C7.002,29.970 6.983,29.954 6.962,29.940 C6.956,29.940 6.950,29.940 6.944,29.940 C6.941,29.933 6.937,29.925 6.934,29.918 C6.918,29.907 6.904,29.896 6.889,29.885 C6.879,29.885 6.870,29.885 6.861,29.885 C6.852,29.871 6.843,29.857 6.833,29.843 C6.815,29.830 6.797,29.815 6.778,29.802 C6.769,29.802 6.759,29.802 6.750,29.802 C6.741,29.788 6.731,29.774 6.722,29.760 C6.704,29.746 6.686,29.733 6.668,29.719 C6.658,29.719 6.648,29.719 6.639,29.719 C6.633,29.708 6.627,29.696 6.622,29.685 C6.576,29.650 6.529,29.616 6.483,29.581 C6.480,29.581 6.476,29.581 6.472,29.581 C6.467,29.574 6.461,29.567 6.455,29.560 C2.538,26.541 -0.000,21.817 -0.000,16.500 C-0.000,7.402 7.402,-0.000 16.500,-0.000 C25.598,-0.000 33.000,7.402 33.000,16.500 C33.000,25.598 25.598,33.000 16.500,33.000 ZM13.861,29.692 C13.861,29.682 13.861,29.673 13.861,29.664 C13.972,29.655 14.083,29.646 14.194,29.637 C14.340,29.593 14.528,29.545 14.667,29.499 C14.704,29.499 14.741,29.499 14.778,29.499 C15.499,29.244 16.146,28.907 16.556,28.341 C16.593,28.314 16.630,28.286 16.667,28.258 C16.667,28.240 16.667,28.222 16.667,28.203 C16.685,28.194 16.704,28.185 16.722,28.176 C16.731,28.148 16.741,28.121 16.750,28.093 C16.759,28.093 16.769,28.093 16.778,28.093 C16.778,28.075 16.778,28.056 16.778,28.038 C16.796,28.029 16.815,28.020 16.833,28.010 C16.843,27.974 16.852,27.937 16.861,27.900 C16.870,27.900 16.880,27.900 16.889,27.900 C16.889,27.882 16.889,27.863 16.889,27.845 C16.898,27.845 16.907,27.845 16.917,27.845 C16.917,27.827 16.917,27.808 16.917,27.790 C16.926,27.790 16.935,27.790 16.944,27.790 C16.963,27.735 16.981,27.680 17.000,27.624 C17.009,27.624 17.019,27.624 17.028,27.624 C17.028,27.597 17.028,27.569 17.028,27.542 C17.037,27.542 17.046,27.542 17.056,27.542 C17.056,27.514 17.056,27.487 17.056,27.459 C17.065,27.459 17.074,27.459 17.083,27.459 C17.083,27.432 17.083,27.404 17.083,27.376 C17.093,27.376 17.102,27.376 17.111,27.376 C17.111,27.340 17.111,27.303 17.111,27.266 C17.120,27.266 17.130,27.266 17.139,27.266 C17.139,27.229 17.139,27.193 17.139,27.156 C17.148,27.156 17.157,27.156 17.167,27.156 C17.167,27.110 17.167,27.064 17.167,27.018 C17.282,26.634 17.223,26.024 17.111,25.695 C17.111,25.658 17.111,25.622 17.111,25.585 C17.019,25.374 16.926,25.162 16.833,24.951 C16.815,24.942 16.796,24.933 16.778,24.923 C16.769,24.887 16.759,24.850 16.750,24.813 C16.602,24.639 16.454,24.464 16.306,24.289 C16.287,24.289 16.269,24.289 16.250,24.289 C16.157,24.188 16.065,24.087 15.972,23.986 C15.954,23.986 15.935,23.986 15.917,23.986 C15.870,23.931 15.824,23.876 15.778,23.821 C15.759,23.821 15.741,23.821 15.722,23.821 C15.685,23.775 15.648,23.729 15.611,23.683 C15.593,23.683 15.574,23.683 15.556,23.683 C15.528,23.646 15.500,23.610 15.472,23.573 C15.454,23.573 15.435,23.573 15.417,23.573 C15.389,23.536 15.361,23.499 15.333,23.463 C15.315,23.463 15.296,23.463 15.278,23.463 C15.269,23.444 15.259,23.426 15.250,23.407 C15.222,23.398 15.194,23.389 15.167,23.380 C15.139,23.343 15.111,23.306 15.083,23.270 C15.065,23.270 15.046,23.270 15.028,23.270 C15.009,23.242 14.991,23.214 14.972,23.187 C14.954,23.187 14.935,23.187 14.917,23.187 C14.898,23.159 14.880,23.132 14.861,23.104 C14.843,23.104 14.824,23.104 14.806,23.104 C14.787,23.077 14.769,23.049 14.750,23.022 C14.731,23.022 14.713,23.022 14.694,23.022 C14.676,22.994 14.657,22.966 14.639,22.939 C14.620,22.939 14.602,22.939 14.583,22.939 C14.574,22.920 14.565,22.902 14.556,22.884 C14.537,22.884 14.519,22.884 14.500,22.884 C14.481,22.856 14.463,22.829 14.444,22.801 C14.426,22.801 14.407,22.801 14.389,22.801 C14.370,22.773 14.352,22.746 14.333,22.718 C14.315,22.718 14.296,22.718 14.278,22.718 C14.269,22.700 14.259,22.682 14.250,22.663 C14.231,22.663 14.213,22.663 14.194,22.663 C14.176,22.636 14.157,22.608 14.139,22.581 C14.120,22.581 14.102,22.581 14.083,22.581 C14.074,22.562 14.065,22.544 14.056,22.525 C14.037,22.525 14.019,22.525 14.000,22.525 C13.991,22.507 13.981,22.489 13.972,22.470 C13.907,22.470 13.843,22.470 13.778,22.470 C13.497,22.390 12.978,22.443 12.639,22.443 C12.542,22.522 12.178,22.455 12.028,22.498 C11.648,22.571 11.268,22.645 10.889,22.718 C10.889,22.728 10.889,22.737 10.889,22.746 C10.852,22.746 10.815,22.746 10.778,22.746 C10.778,22.755 10.778,22.764 10.778,22.773 C10.741,22.773 10.704,22.773 10.667,22.773 C10.667,22.783 10.667,22.792 10.667,22.801 C10.630,22.801 10.593,22.801 10.556,22.801 C10.556,22.810 10.556,22.819 10.556,22.829 C10.519,22.829 10.481,22.829 10.444,22.829 C10.444,22.838 10.444,22.847 10.444,22.856 C10.417,22.856 10.389,22.856 10.361,22.856 C10.361,22.865 10.361,22.875 10.361,22.884 C10.269,22.902 10.176,22.920 10.083,22.939 C10.083,22.948 10.083,22.957 10.083,22.966 C10.065,22.966 10.046,22.966 10.028,22.966 C10.028,22.976 10.028,22.985 10.028,22.994 C10.000,22.994 9.972,22.994 9.944,22.994 C9.944,23.003 9.944,23.012 9.944,23.022 C9.898,23.031 9.852,23.040 9.806,23.049 C9.806,23.058 9.806,23.067 9.806,23.077 C9.787,23.077 9.769,23.077 9.750,23.077 C9.750,23.086 9.750,23.095 9.750,23.104 C9.722,23.104 9.694,23.104 9.667,23.104 C9.667,23.113 9.667,23.123 9.667,23.132 C9.630,23.141 9.593,23.150 9.556,23.159 C9.556,23.169 9.556,23.178 9.556,23.187 C9.528,23.187 9.500,23.187 9.472,23.187 C9.472,23.196 9.472,23.205 9.472,23.214 C9.435,23.224 9.398,23.233 9.361,23.242 C9.361,23.251 9.361,23.260 9.361,23.270 C9.324,23.279 9.287,23.288 9.250,23.297 C9.241,23.316 9.231,23.334 9.222,23.352 C9.185,23.361 9.148,23.371 9.111,23.380 C9.111,23.389 9.111,23.398 9.111,23.407 C9.083,23.417 9.056,23.426 9.028,23.435 C9.019,23.453 9.009,23.472 9.000,23.490 C8.981,23.490 8.963,23.490 8.944,23.490 C8.935,23.508 8.926,23.527 8.917,23.545 C8.898,23.545 8.880,23.545 8.861,23.545 C8.843,23.573 8.824,23.600 8.806,23.628 C8.787,23.628 8.769,23.628 8.750,23.628 C8.731,23.655 8.713,23.683 8.694,23.711 C8.676,23.711 8.657,23.711 8.639,23.711 C8.611,23.747 8.583,23.784 8.556,23.821 C8.472,23.894 8.389,23.968 8.306,24.041 C8.306,24.060 8.306,24.078 8.306,24.096 C8.269,24.124 8.231,24.152 8.194,24.179 C8.194,24.198 8.194,24.216 8.194,24.234 C8.176,24.243 8.157,24.253 8.139,24.262 C8.130,24.289 8.120,24.317 8.111,24.345 C8.102,24.345 8.093,24.345 8.083,24.345 C8.083,24.363 8.083,24.381 8.083,24.400 C8.065,24.409 8.046,24.418 8.028,24.427 C8.019,24.464 8.009,24.501 8.000,24.537 C7.981,24.547 7.963,24.556 7.944,24.565 C7.935,24.602 7.926,24.639 7.917,24.675 C7.907,24.675 7.898,24.675 7.889,24.675 C7.889,24.694 7.889,24.712 7.889,24.730 C7.880,24.730 7.870,24.730 7.861,24.730 C7.861,24.749 7.861,24.767 7.861,24.786 C7.852,24.786 7.843,24.786 7.833,24.786 C7.815,24.841 7.796,24.896 7.778,24.951 C7.769,24.951 7.759,24.951 7.750,24.951 C7.731,25.034 7.713,25.116 7.694,25.199 C7.685,25.199 7.676,25.199 7.667,25.199 C7.648,25.337 7.630,25.475 7.611,25.612 C7.602,25.612 7.593,25.612 7.583,25.612 C7.574,25.796 7.565,25.980 7.556,26.164 C7.565,26.164 7.574,26.164 7.583,26.164 C7.583,26.246 7.583,26.329 7.583,26.412 C7.602,26.531 7.620,26.651 7.639,26.770 C7.648,26.770 7.657,26.770 7.667,26.770 C7.667,26.807 7.667,26.844 7.667,26.880 C7.676,26.880 7.685,26.880 7.694,26.880 C7.694,26.917 7.694,26.954 7.694,26.991 C7.704,26.991 7.713,26.991 7.722,26.991 C7.722,27.018 7.722,27.046 7.722,27.073 C7.731,27.073 7.741,27.073 7.750,27.073 C7.750,27.092 7.750,27.110 7.750,27.128 C7.759,27.128 7.769,27.128 7.778,27.128 C7.778,27.156 7.778,27.183 7.778,27.211 C7.787,27.211 7.796,27.211 7.806,27.211 C7.815,27.248 7.824,27.285 7.833,27.321 C7.843,27.321 7.852,27.321 7.861,27.321 C7.870,27.367 7.880,27.413 7.889,27.459 C7.907,27.468 7.926,27.477 7.944,27.487 C7.963,27.542 7.981,27.597 8.000,27.652 C8.019,27.661 8.037,27.670 8.056,27.680 C8.056,27.698 8.056,27.716 8.056,27.735 C8.074,27.744 8.093,27.753 8.111,27.762 C8.111,27.781 8.111,27.799 8.111,27.817 C8.130,27.827 8.148,27.836 8.167,27.845 C8.176,27.873 8.185,27.900 8.194,27.928 C8.231,27.955 8.269,27.983 8.306,28.010 C8.306,28.029 8.306,28.047 8.306,28.065 C8.352,28.102 8.398,28.139 8.444,28.176 C8.519,28.258 8.593,28.341 8.667,28.424 C8.685,28.424 8.704,28.424 8.722,28.424 C8.759,28.470 8.796,28.516 8.833,28.562 C8.852,28.562 8.870,28.562 8.889,28.562 C8.907,28.589 8.926,28.617 8.944,28.644 C8.963,28.644 8.981,28.644 9.000,28.644 C9.019,28.672 9.037,28.699 9.056,28.727 C9.074,28.727 9.093,28.727 9.111,28.727 C9.120,28.745 9.130,28.764 9.139,28.782 C9.167,28.791 9.194,28.800 9.222,28.810 C9.222,28.819 9.222,28.828 9.222,28.837 C9.241,28.837 9.259,28.837 9.278,28.837 C9.287,28.856 9.296,28.874 9.306,28.892 C9.324,28.892 9.343,28.892 9.361,28.892 C9.370,28.911 9.380,28.929 9.389,28.947 C9.444,28.966 9.500,28.984 9.556,29.003 C9.565,29.021 9.574,29.039 9.583,29.058 C9.620,29.067 9.657,29.076 9.694,29.085 C9.694,29.094 9.694,29.104 9.694,29.113 C9.731,29.122 9.769,29.131 9.806,29.140 C9.806,29.150 9.806,29.159 9.806,29.168 C9.833,29.168 9.861,29.168 9.889,29.168 C9.889,29.177 9.889,29.186 9.889,29.196 C9.926,29.205 9.963,29.214 10.000,29.223 C10.000,29.232 10.000,29.241 10.000,29.251 C10.028,29.251 10.056,29.251 10.083,29.251 C10.083,29.260 10.083,29.269 10.083,29.278 C10.102,29.278 10.120,29.278 10.139,29.278 C10.139,29.287 10.139,29.297 10.139,29.306 C10.167,29.306 10.194,29.306 10.222,29.306 C10.222,29.315 10.222,29.324 10.222,29.333 C10.241,29.333 10.259,29.333 10.278,29.333 C10.278,29.343 10.278,29.352 10.278,29.361 C10.306,29.361 10.333,29.361 10.361,29.361 C10.361,29.370 10.361,29.379 10.361,29.388 C10.389,29.388 10.417,29.388 10.444,29.388 C10.444,29.398 10.444,29.407 10.444,29.416 C10.472,29.416 10.500,29.416 10.528,29.416 C10.528,29.425 10.528,29.434 10.528,29.444 C10.806,29.508 11.083,29.572 11.361,29.637 C11.481,29.646 11.602,29.655 11.722,29.664 C11.722,29.673 11.722,29.682 11.722,29.692 C11.796,29.692 11.870,29.692 11.944,29.692 C11.944,29.701 11.944,29.710 11.944,29.719 C12.056,29.719 12.167,29.719 12.278,29.719 C12.492,29.778 13.120,29.779 13.333,29.719 C13.435,29.719 13.537,29.719 13.639,29.719 C13.639,29.710 13.639,29.701 13.639,29.692 C13.713,29.692 13.787,29.692 13.861,29.692 ZM15.222,16.351 C15.241,16.296 15.259,16.241 15.278,16.186 C15.287,16.186 15.296,16.186 15.306,16.186 C15.306,16.158 15.306,16.131 15.306,16.103 C15.315,16.103 15.324,16.103 15.333,16.103 C15.333,16.085 15.333,16.067 15.333,16.048 C15.343,16.048 15.352,16.048 15.361,16.048 C15.361,16.021 15.361,15.993 15.361,15.966 C15.370,15.966 15.380,15.966 15.389,15.966 C15.389,15.938 15.389,15.910 15.389,15.883 C15.398,15.883 15.407,15.883 15.417,15.883 C15.417,15.846 15.417,15.809 15.417,15.773 C15.426,15.773 15.435,15.773 15.444,15.773 C15.444,15.736 15.444,15.699 15.444,15.662 C15.454,15.662 15.463,15.662 15.472,15.662 C15.472,15.607 15.472,15.552 15.472,15.497 C15.481,15.497 15.491,15.497 15.500,15.497 C15.509,15.267 15.519,15.038 15.528,14.808 C15.537,14.808 15.546,14.808 15.556,14.808 C15.591,14.680 15.553,14.345 15.528,14.257 C15.528,14.128 15.528,13.999 15.528,13.871 C15.519,13.871 15.509,13.871 15.500,13.871 C15.500,13.797 15.500,13.724 15.500,13.650 C15.491,13.650 15.481,13.650 15.472,13.650 C15.444,13.439 15.417,13.228 15.389,13.016 C15.380,13.016 15.370,13.016 15.361,13.016 C15.352,12.934 15.343,12.851 15.333,12.768 C15.324,12.768 15.315,12.768 15.306,12.768 C15.287,12.667 15.269,12.566 15.250,12.465 C15.241,12.465 15.231,12.465 15.222,12.465 C15.222,12.438 15.222,12.410 15.222,12.382 C15.213,12.382 15.204,12.382 15.194,12.382 C15.194,12.355 15.194,12.327 15.194,12.300 C15.185,12.300 15.176,12.300 15.167,12.300 C15.167,12.272 15.167,12.245 15.167,12.217 C15.157,12.217 15.148,12.217 15.139,12.217 C15.139,12.189 15.139,12.162 15.139,12.134 C15.130,12.134 15.120,12.134 15.111,12.134 C15.093,12.052 15.074,11.969 15.056,11.886 C15.046,11.886 15.037,11.886 15.028,11.886 C15.028,11.868 15.028,11.850 15.028,11.831 C15.019,11.831 15.009,11.831 15.000,11.831 C15.000,11.804 15.000,11.776 15.000,11.748 C14.991,11.748 14.981,11.748 14.972,11.748 C14.963,11.703 14.954,11.657 14.944,11.611 C14.935,11.611 14.926,11.611 14.917,11.611 C14.917,11.592 14.917,11.574 14.917,11.556 C14.907,11.556 14.898,11.556 14.889,11.556 C14.889,11.528 14.889,11.500 14.889,11.473 C14.880,11.473 14.870,11.473 14.861,11.473 C14.852,11.436 14.843,11.399 14.833,11.363 C14.824,11.363 14.815,11.363 14.806,11.363 C14.806,11.344 14.806,11.326 14.806,11.307 C14.796,11.307 14.787,11.307 14.778,11.307 C14.778,11.280 14.778,11.252 14.778,11.225 C14.769,11.225 14.759,11.225 14.750,11.225 C14.731,11.170 14.713,11.115 14.694,11.059 C14.685,11.059 14.676,11.059 14.667,11.059 C14.667,11.041 14.667,11.023 14.667,11.004 C14.657,11.004 14.648,11.004 14.639,11.004 C14.639,10.986 14.639,10.968 14.639,10.949 C14.630,10.949 14.620,10.949 14.611,10.949 C14.611,10.931 14.611,10.912 14.611,10.894 C14.602,10.894 14.593,10.894 14.583,10.894 C14.583,10.876 14.583,10.857 14.583,10.839 C14.574,10.839 14.565,10.839 14.556,10.839 C14.556,10.821 14.556,10.802 14.556,10.784 C14.546,10.784 14.537,10.784 14.528,10.784 C14.528,10.765 14.528,10.747 14.528,10.729 C14.509,10.719 14.491,10.710 14.472,10.701 C14.463,10.664 14.454,10.628 14.444,10.591 C14.426,10.582 14.407,10.572 14.389,10.563 C14.380,10.527 14.370,10.490 14.361,10.453 C14.343,10.444 14.324,10.435 14.306,10.425 C14.306,10.407 14.306,10.389 14.306,10.370 C14.278,10.352 14.250,10.334 14.222,10.315 C14.222,10.297 14.222,10.278 14.222,10.260 C14.194,10.242 14.167,10.223 14.139,10.205 C14.139,10.187 14.139,10.168 14.139,10.150 C14.093,10.113 14.046,10.076 14.000,10.040 C13.540,9.408 12.739,8.960 11.639,8.965 C11.570,9.023 11.380,8.988 11.278,9.020 C11.278,9.029 11.278,9.038 11.278,9.047 C11.241,9.047 11.204,9.047 11.167,9.047 C11.167,9.057 11.167,9.066 11.167,9.075 C11.130,9.075 11.093,9.075 11.056,9.075 C11.056,9.084 11.056,9.093 11.056,9.102 C11.028,9.102 11.000,9.102 10.972,9.102 C10.972,9.112 10.972,9.121 10.972,9.130 C10.944,9.130 10.917,9.130 10.889,9.130 C10.889,9.139 10.889,9.148 10.889,9.158 C10.870,9.158 10.852,9.158 10.833,9.158 C10.833,9.167 10.833,9.176 10.833,9.185 C10.806,9.185 10.778,9.185 10.750,9.185 C10.750,9.194 10.750,9.204 10.750,9.213 C10.713,9.222 10.676,9.231 10.639,9.240 C10.639,9.249 10.639,9.259 10.639,9.268 C10.602,9.277 10.565,9.286 10.528,9.295 C10.519,9.314 10.509,9.332 10.500,9.351 C10.463,9.360 10.426,9.369 10.389,9.378 C10.370,9.406 10.352,9.433 10.333,9.461 C10.315,9.461 10.296,9.461 10.278,9.461 C10.269,9.479 10.259,9.498 10.250,9.516 C10.231,9.516 10.213,9.516 10.194,9.516 C10.148,9.571 10.102,9.626 10.056,9.681 C10.037,9.681 10.019,9.681 10.000,9.681 C9.963,9.727 9.926,9.773 9.889,9.819 C9.870,9.828 9.852,9.837 9.833,9.847 C9.833,9.865 9.833,9.883 9.833,9.902 C9.796,9.929 9.759,9.957 9.722,9.984 C9.722,10.003 9.722,10.021 9.722,10.040 C9.704,10.049 9.685,10.058 9.667,10.067 C9.657,10.104 9.648,10.141 9.639,10.177 C9.620,10.187 9.602,10.196 9.583,10.205 C9.565,10.260 9.546,10.315 9.528,10.370 C9.519,10.370 9.509,10.370 9.500,10.370 C9.500,10.389 9.500,10.407 9.500,10.425 C9.491,10.425 9.481,10.425 9.472,10.425 C9.472,10.444 9.472,10.462 9.472,10.481 C9.463,10.481 9.454,10.481 9.444,10.481 C9.426,10.536 9.407,10.591 9.389,10.646 C9.380,10.646 9.370,10.646 9.361,10.646 C9.361,10.674 9.361,10.701 9.361,10.729 C9.352,10.729 9.343,10.729 9.333,10.729 C9.333,10.747 9.333,10.765 9.333,10.784 C9.324,10.784 9.315,10.784 9.306,10.784 C9.287,10.866 9.269,10.949 9.250,11.032 C9.241,11.032 9.231,11.032 9.222,11.032 C9.222,11.069 9.222,11.105 9.222,11.142 C9.025,11.730 9.036,12.777 9.222,13.375 C9.222,13.421 9.222,13.467 9.222,13.512 C9.231,13.512 9.241,13.512 9.250,13.512 C9.250,13.549 9.250,13.586 9.250,13.623 C9.259,13.623 9.269,13.623 9.278,13.623 C9.278,13.659 9.278,13.696 9.278,13.733 C9.287,13.733 9.296,13.733 9.306,13.733 C9.306,13.770 9.306,13.806 9.306,13.843 C9.315,13.843 9.324,13.843 9.333,13.843 C9.333,13.880 9.333,13.917 9.333,13.953 C9.343,13.953 9.352,13.953 9.361,13.953 C9.361,13.981 9.361,14.009 9.361,14.036 C9.370,14.036 9.380,14.036 9.389,14.036 C9.389,14.064 9.389,14.091 9.389,14.119 C9.398,14.119 9.407,14.119 9.417,14.119 C9.417,14.146 9.417,14.174 9.417,14.202 C9.426,14.202 9.435,14.202 9.444,14.202 C9.444,14.229 9.444,14.257 9.444,14.284 C9.454,14.284 9.463,14.284 9.472,14.284 C9.472,14.312 9.472,14.339 9.472,14.367 C9.481,14.367 9.491,14.367 9.500,14.367 C9.509,14.422 9.519,14.477 9.528,14.532 C9.943,15.481 10.397,16.389 11.194,16.958 C11.222,16.995 11.250,17.031 11.278,17.068 C11.306,17.077 11.333,17.086 11.361,17.096 C11.370,17.114 11.380,17.132 11.389,17.151 C11.407,17.151 11.426,17.151 11.444,17.151 C11.454,17.169 11.463,17.187 11.472,17.206 C11.509,17.215 11.546,17.224 11.583,17.233 C11.593,17.252 11.602,17.270 11.611,17.289 C11.648,17.298 11.685,17.307 11.722,17.316 C12.170,17.555 12.893,17.732 13.528,17.537 C13.574,17.537 13.620,17.537 13.667,17.537 C13.880,17.454 14.093,17.371 14.306,17.289 C14.315,17.270 14.324,17.252 14.333,17.233 C14.370,17.224 14.407,17.215 14.444,17.206 C14.444,17.197 14.444,17.187 14.444,17.178 C14.472,17.169 14.500,17.160 14.528,17.151 C14.537,17.132 14.546,17.114 14.556,17.096 C14.574,17.096 14.593,17.096 14.611,17.096 C14.630,17.068 14.648,17.040 14.667,17.013 C14.685,17.013 14.704,17.013 14.722,17.013 C14.778,16.949 14.833,16.884 14.889,16.820 C14.935,16.783 14.981,16.746 15.028,16.710 C15.037,16.673 15.046,16.636 15.056,16.599 C15.074,16.590 15.093,16.581 15.111,16.572 C15.130,16.517 15.148,16.462 15.167,16.407 C15.176,16.407 15.185,16.407 15.194,16.407 C15.194,16.388 15.194,16.370 15.194,16.351 C15.204,16.351 15.213,16.351 15.222,16.351 ZM16.500,1.320 C8.130,1.320 1.320,8.130 1.320,16.500 C1.320,20.285 2.721,23.742 5.021,26.403 C5.023,26.333 5.025,26.262 5.028,26.191 C5.037,26.191 5.046,26.191 5.056,26.191 C5.074,26.063 5.093,25.934 5.111,25.805 C5.120,25.805 5.130,25.805 5.139,25.805 C5.139,25.778 5.139,25.750 5.139,25.723 C5.148,25.723 5.157,25.723 5.167,25.723 C5.167,25.695 5.167,25.668 5.167,25.640 C5.176,25.640 5.185,25.640 5.194,25.640 C5.194,25.612 5.194,25.585 5.194,25.557 C5.204,25.557 5.213,25.557 5.222,25.557 C5.222,25.530 5.222,25.502 5.222,25.475 C5.231,25.475 5.241,25.475 5.250,25.475 C5.259,25.419 5.269,25.364 5.278,25.309 C5.287,25.309 5.296,25.309 5.306,25.309 C5.315,25.272 5.324,25.236 5.333,25.199 C5.343,25.199 5.352,25.199 5.361,25.199 C5.361,25.171 5.361,25.144 5.361,25.116 C5.370,25.116 5.380,25.116 5.389,25.116 C5.407,25.061 5.426,25.006 5.444,24.951 C5.454,24.951 5.463,24.951 5.472,24.951 C5.472,24.933 5.472,24.914 5.472,24.896 C5.481,24.896 5.491,24.896 5.500,24.896 C5.500,24.877 5.500,24.859 5.500,24.841 C5.509,24.841 5.519,24.841 5.528,24.841 C5.528,24.822 5.528,24.804 5.528,24.786 C5.537,24.786 5.546,24.786 5.556,24.786 C5.556,24.767 5.556,24.749 5.556,24.730 C5.565,24.730 5.574,24.730 5.583,24.730 C5.583,24.712 5.583,24.694 5.583,24.675 C5.593,24.675 5.602,24.675 5.611,24.675 C5.611,24.657 5.611,24.639 5.611,24.620 C5.620,24.620 5.630,24.620 5.639,24.620 C5.639,24.602 5.639,24.583 5.639,24.565 C5.648,24.565 5.657,24.565 5.667,24.565 C5.676,24.537 5.685,24.510 5.694,24.482 C5.713,24.473 5.731,24.464 5.750,24.455 C5.750,24.436 5.750,24.418 5.750,24.400 C5.769,24.390 5.787,24.381 5.806,24.372 C5.806,24.354 5.806,24.335 5.806,24.317 C5.833,24.299 5.861,24.280 5.889,24.262 C5.889,24.243 5.889,24.225 5.889,24.207 C5.926,24.179 5.963,24.152 6.000,24.124 C6.000,24.106 6.000,24.087 6.000,24.069 C6.056,24.023 6.111,23.977 6.167,23.931 C6.259,23.830 6.352,23.729 6.444,23.628 C6.463,23.628 6.481,23.628 6.500,23.628 C6.537,23.582 6.574,23.536 6.611,23.490 C6.630,23.490 6.648,23.490 6.667,23.490 C6.685,23.463 6.704,23.435 6.722,23.407 C6.741,23.407 6.759,23.407 6.778,23.407 C6.796,23.380 6.815,23.352 6.833,23.325 C6.852,23.325 6.870,23.325 6.889,23.325 C6.898,23.306 6.907,23.288 6.917,23.270 C6.944,23.260 6.972,23.251 7.000,23.242 C7.000,23.233 7.000,23.224 7.000,23.214 C7.019,23.214 7.037,23.214 7.056,23.214 C7.065,23.196 7.074,23.178 7.083,23.159 C7.102,23.159 7.120,23.159 7.139,23.159 C7.148,23.141 7.157,23.123 7.167,23.104 C7.185,23.104 7.204,23.104 7.222,23.104 C7.231,23.086 7.241,23.067 7.250,23.049 C7.287,23.040 7.324,23.031 7.361,23.022 C7.370,23.003 7.380,22.985 7.389,22.966 C7.537,22.902 7.685,22.838 7.833,22.773 C7.833,22.764 7.833,22.755 7.833,22.746 C7.852,22.746 7.870,22.746 7.889,22.746 C7.889,22.737 7.889,22.728 7.889,22.718 C7.907,22.718 7.926,22.718 7.944,22.718 C7.944,22.709 7.944,22.700 7.944,22.691 C7.963,22.691 7.981,22.691 8.000,22.691 C8.000,22.682 8.000,22.672 8.000,22.663 C8.019,22.663 8.037,22.663 8.056,22.663 C8.056,22.654 8.056,22.645 8.056,22.636 C8.111,22.617 8.167,22.599 8.222,22.581 C8.222,22.571 8.222,22.562 8.222,22.553 C8.250,22.553 8.278,22.553 8.306,22.553 C8.306,22.544 8.306,22.535 8.306,22.525 C8.343,22.516 8.380,22.507 8.417,22.498 C8.417,22.489 8.417,22.479 8.417,22.470 C8.444,22.470 8.472,22.470 8.500,22.470 C8.500,22.461 8.500,22.452 8.500,22.443 C8.519,22.443 8.537,22.443 8.556,22.443 C8.556,22.434 8.556,22.424 8.556,22.415 C8.583,22.415 8.611,22.415 8.639,22.415 C8.639,22.406 8.639,22.397 8.639,22.388 C8.657,22.388 8.676,22.388 8.694,22.388 C8.694,22.378 8.694,22.369 8.694,22.360 C8.778,22.342 8.861,22.323 8.944,22.305 C8.944,22.296 8.944,22.287 8.944,22.277 C8.963,22.277 8.981,22.277 9.000,22.277 C9.000,22.268 9.000,22.259 9.000,22.250 C9.056,22.241 9.111,22.231 9.167,22.222 C9.167,22.213 9.167,22.204 9.167,22.195 C9.204,22.195 9.241,22.195 9.278,22.195 C9.278,22.185 9.278,22.176 9.278,22.167 C9.306,22.167 9.333,22.167 9.361,22.167 C9.361,22.158 9.361,22.149 9.361,22.140 C9.389,22.140 9.417,22.140 9.444,22.140 C9.444,22.130 9.444,22.121 9.444,22.112 C9.519,22.103 9.593,22.094 9.667,22.084 C9.667,22.075 9.667,22.066 9.667,22.057 C9.694,22.057 9.722,22.057 9.750,22.057 C9.750,22.048 9.750,22.038 9.750,22.029 C9.787,22.029 9.824,22.029 9.861,22.029 C9.861,22.020 9.861,22.011 9.861,22.002 C9.944,21.993 10.028,21.983 10.111,21.974 C10.111,21.965 10.111,21.956 10.111,21.947 C10.157,21.947 10.204,21.947 10.250,21.947 C10.538,21.859 10.928,21.865 11.222,21.781 C11.306,21.781 11.389,21.781 11.472,21.781 C11.472,21.772 11.472,21.763 11.472,21.754 C11.556,21.754 11.639,21.754 11.722,21.754 C11.722,21.744 11.722,21.735 11.722,21.726 C11.806,21.726 11.889,21.726 11.972,21.726 C11.972,21.717 11.972,21.708 11.972,21.699 C12.083,21.699 12.194,21.699 12.306,21.699 C12.306,21.689 12.306,21.680 12.306,21.671 C12.574,21.662 12.843,21.653 13.111,21.643 C13.094,21.566 13.069,21.529 13.028,21.478 C13.019,21.478 13.009,21.478 13.000,21.478 C13.000,21.460 13.000,21.441 13.000,21.423 C12.981,21.414 12.963,21.405 12.944,21.395 C12.944,21.377 12.944,21.359 12.944,21.340 C12.926,21.331 12.907,21.322 12.889,21.313 C12.889,21.294 12.889,21.276 12.889,21.258 C12.870,21.248 12.852,21.239 12.833,21.230 C12.833,21.212 12.833,21.193 12.833,21.175 C12.815,21.166 12.796,21.156 12.778,21.147 C12.769,21.111 12.759,21.074 12.750,21.037 C12.731,21.028 12.713,21.019 12.694,21.009 C12.685,20.973 12.676,20.936 12.667,20.899 C12.648,20.890 12.630,20.881 12.611,20.872 C12.593,20.817 12.574,20.761 12.556,20.706 C12.546,20.706 12.537,20.706 12.528,20.706 C12.528,20.688 12.528,20.670 12.528,20.651 C12.509,20.642 12.491,20.633 12.472,20.624 C12.472,20.605 12.472,20.587 12.472,20.568 C12.463,20.568 12.454,20.568 12.444,20.568 C12.444,20.550 12.444,20.532 12.444,20.513 C12.435,20.513 12.426,20.513 12.417,20.513 C12.417,20.486 12.417,20.458 12.417,20.431 C12.407,20.431 12.398,20.431 12.389,20.431 C12.389,20.412 12.389,20.394 12.389,20.376 C12.380,20.376 12.370,20.376 12.361,20.376 C12.352,20.311 12.343,20.247 12.333,20.183 C12.324,20.183 12.315,20.183 12.306,20.183 C12.306,20.146 12.306,20.109 12.306,20.072 C12.296,20.072 12.287,20.072 12.278,20.072 C12.278,20.008 12.278,19.944 12.278,19.879 C12.269,19.879 12.259,19.879 12.250,19.879 C12.203,19.713 12.266,19.109 12.306,18.997 C12.315,18.997 12.324,18.997 12.333,18.997 C12.333,18.970 12.333,18.942 12.333,18.915 C12.343,18.915 12.352,18.915 12.361,18.915 C12.361,18.896 12.361,18.878 12.361,18.860 C12.370,18.860 12.380,18.860 12.389,18.860 C12.398,18.804 12.407,18.749 12.417,18.694 C12.459,18.587 12.520,18.510 12.528,18.363 C12.032,18.457 11.009,18.468 10.556,18.336 C10.454,18.327 10.352,18.318 10.250,18.308 C9.954,18.216 9.657,18.125 9.361,18.033 C9.361,18.024 9.361,18.014 9.361,18.005 C9.306,17.987 9.250,17.968 9.194,17.950 C9.194,17.941 9.194,17.932 9.194,17.922 C9.176,17.922 9.157,17.922 9.139,17.922 C9.139,17.913 9.139,17.904 9.139,17.895 C9.120,17.895 9.102,17.895 9.083,17.895 C9.083,17.886 9.083,17.877 9.083,17.867 C9.065,17.867 9.046,17.867 9.028,17.867 C9.028,17.858 9.028,17.849 9.028,17.840 C9.009,17.840 8.991,17.840 8.972,17.840 C8.972,17.831 8.972,17.821 8.972,17.812 C8.954,17.812 8.935,17.812 8.917,17.812 C8.917,17.803 8.917,17.794 8.917,17.785 C8.898,17.785 8.880,17.785 8.861,17.785 C8.852,17.766 8.843,17.748 8.833,17.730 C8.815,17.730 8.796,17.730 8.778,17.730 C8.769,17.711 8.759,17.693 8.750,17.674 C8.731,17.674 8.713,17.674 8.694,17.674 C8.685,17.656 8.676,17.638 8.667,17.619 C8.648,17.619 8.630,17.619 8.611,17.619 C8.602,17.601 8.593,17.583 8.583,17.564 C8.565,17.564 8.546,17.564 8.528,17.564 C8.509,17.537 8.491,17.509 8.472,17.481 C8.454,17.481 8.435,17.481 8.417,17.481 C8.380,17.436 8.343,17.390 8.306,17.344 C8.287,17.344 8.269,17.344 8.250,17.344 C8.176,17.261 8.102,17.178 8.028,17.096 C7.981,17.059 7.935,17.022 7.889,16.985 C7.889,16.967 7.889,16.949 7.889,16.930 C7.806,16.857 7.722,16.783 7.639,16.710 C7.639,16.691 7.639,16.673 7.639,16.655 C7.593,16.618 7.546,16.581 7.500,16.544 C7.500,16.526 7.500,16.508 7.500,16.489 C7.472,16.471 7.444,16.452 7.417,16.434 C7.417,16.416 7.417,16.397 7.417,16.379 C7.389,16.361 7.361,16.342 7.333,16.324 C7.333,16.305 7.333,16.287 7.333,16.269 C7.315,16.260 7.296,16.250 7.278,16.241 C7.269,16.214 7.259,16.186 7.250,16.158 C7.241,16.158 7.231,16.158 7.222,16.158 C7.213,16.122 7.204,16.085 7.194,16.048 C7.176,16.039 7.157,16.030 7.139,16.021 C7.130,15.984 7.120,15.947 7.111,15.910 C7.093,15.901 7.074,15.892 7.056,15.883 C7.046,15.846 7.037,15.809 7.028,15.773 C7.019,15.773 7.009,15.773 7.000,15.773 C7.000,15.754 7.000,15.736 7.000,15.717 C6.991,15.717 6.981,15.717 6.972,15.717 C6.954,15.662 6.935,15.607 6.917,15.552 C6.907,15.552 6.898,15.552 6.889,15.552 C6.889,15.525 6.889,15.497 6.889,15.469 C6.880,15.469 6.870,15.469 6.861,15.469 C6.861,15.451 6.861,15.433 6.861,15.414 C6.852,15.414 6.843,15.414 6.833,15.414 C6.833,15.387 6.833,15.359 6.833,15.332 C6.824,15.332 6.815,15.332 6.806,15.332 C6.806,15.313 6.806,15.295 6.806,15.276 C6.796,15.276 6.787,15.276 6.778,15.276 C6.750,15.157 6.722,15.038 6.694,14.918 C6.480,14.312 6.451,13.157 6.667,12.520 C6.676,12.447 6.685,12.373 6.694,12.300 C6.704,12.300 6.713,12.300 6.722,12.300 C6.722,12.272 6.722,12.245 6.722,12.217 C6.731,12.217 6.741,12.217 6.750,12.217 C6.750,12.189 6.750,12.162 6.750,12.134 C6.759,12.134 6.769,12.134 6.778,12.134 C6.778,12.107 6.778,12.079 6.778,12.052 C6.787,12.052 6.796,12.052 6.806,12.052 C6.815,11.997 6.824,11.941 6.833,11.886 C6.843,11.886 6.852,11.886 6.861,11.886 C6.861,11.868 6.861,11.850 6.861,11.831 C6.870,11.831 6.880,11.831 6.889,11.831 C6.889,11.804 6.889,11.776 6.889,11.748 C6.898,11.748 6.907,11.748 6.917,11.748 C6.926,11.712 6.935,11.675 6.944,11.638 C6.954,11.638 6.963,11.638 6.972,11.638 C6.972,11.611 6.972,11.583 6.972,11.556 C6.981,11.556 6.991,11.556 7.000,11.556 C7.019,11.500 7.037,11.445 7.056,11.390 C7.065,11.390 7.074,11.390 7.083,11.390 C7.093,11.353 7.102,11.317 7.111,11.280 C7.130,11.271 7.148,11.262 7.167,11.252 C7.185,11.197 7.204,11.142 7.222,11.087 C7.241,11.078 7.259,11.069 7.278,11.059 C7.287,11.023 7.296,10.986 7.306,10.949 C7.324,10.940 7.343,10.931 7.361,10.922 C7.361,10.903 7.361,10.885 7.361,10.866 C7.380,10.857 7.398,10.848 7.417,10.839 C7.417,10.821 7.417,10.802 7.417,10.784 C7.435,10.775 7.454,10.765 7.472,10.756 C7.472,10.738 7.472,10.719 7.472,10.701 C7.491,10.692 7.509,10.683 7.528,10.674 C7.528,10.655 7.528,10.637 7.528,10.618 C7.556,10.600 7.583,10.582 7.611,10.563 C7.611,10.545 7.611,10.527 7.611,10.508 C7.639,10.490 7.667,10.471 7.694,10.453 C7.694,10.435 7.694,10.416 7.694,10.398 C7.731,10.370 7.769,10.343 7.806,10.315 C8.481,9.383 9.585,8.751 10.778,8.331 C10.815,8.331 10.852,8.331 10.889,8.331 C10.889,8.322 10.889,8.312 10.889,8.303 C10.926,8.303 10.963,8.303 11.000,8.303 C11.000,8.294 11.000,8.285 11.000,8.276 C11.037,8.276 11.074,8.276 11.111,8.276 C11.111,8.266 11.111,8.257 11.111,8.248 C11.157,8.248 11.204,8.248 11.250,8.248 C11.250,8.239 11.250,8.230 11.250,8.220 C11.296,8.220 11.343,8.220 11.389,8.220 C11.389,8.211 11.389,8.202 11.389,8.193 C11.444,8.193 11.500,8.193 11.556,8.193 C11.708,8.148 11.928,8.127 12.083,8.083 C12.157,8.083 12.231,8.083 12.306,8.083 C12.306,8.074 12.306,8.064 12.306,8.055 C12.398,8.055 12.491,8.055 12.583,8.055 C12.583,8.046 12.583,8.037 12.583,8.028 C12.694,8.028 12.806,8.028 12.917,8.028 C12.917,8.018 12.917,8.009 12.917,8.000 C13.426,8.000 13.935,8.000 14.444,8.000 C16.176,8.000 17.908,8.000 19.639,8.000 C19.639,8.028 19.639,8.055 19.639,8.083 C19.540,8.103 19.514,8.155 19.444,8.193 C19.407,8.202 19.370,8.211 19.333,8.220 C19.324,8.239 19.315,8.257 19.306,8.276 C19.269,8.285 19.231,8.294 19.194,8.303 C19.185,8.322 19.176,8.340 19.167,8.358 C19.111,8.377 19.056,8.395 19.000,8.413 C18.991,8.432 18.981,8.450 18.972,8.469 C18.954,8.469 18.935,8.469 18.917,8.469 C18.917,8.478 18.917,8.487 18.917,8.496 C18.898,8.496 18.880,8.496 18.861,8.496 C18.852,8.514 18.843,8.533 18.833,8.551 C18.778,8.570 18.722,8.588 18.667,8.606 C18.657,8.625 18.648,8.643 18.639,8.661 C18.602,8.671 18.565,8.680 18.528,8.689 C18.519,8.707 18.509,8.726 18.500,8.744 C18.463,8.753 18.426,8.763 18.389,8.772 C18.380,8.790 18.370,8.809 18.361,8.827 C18.306,8.845 18.250,8.864 18.194,8.882 C18.185,8.900 18.176,8.919 18.167,8.937 C18.130,8.946 18.093,8.955 18.056,8.965 C18.046,8.983 18.037,9.001 18.028,9.020 C18.009,9.020 17.991,9.020 17.972,9.020 C17.972,9.029 17.972,9.038 17.972,9.047 C17.333,9.047 16.694,9.047 16.056,9.047 C16.056,9.066 16.056,9.084 16.056,9.102 C16.083,9.112 16.111,9.121 16.139,9.130 C16.139,9.139 16.139,9.148 16.139,9.158 C16.167,9.167 16.194,9.176 16.222,9.185 C16.231,9.204 16.241,9.222 16.250,9.240 C16.278,9.249 16.306,9.259 16.333,9.268 C16.352,9.295 16.370,9.323 16.389,9.351 C16.417,9.360 16.444,9.369 16.472,9.378 C16.472,9.387 16.472,9.396 16.472,9.406 C16.537,9.466 16.598,9.544 16.694,9.571 C16.694,9.589 16.694,9.608 16.694,9.626 C16.846,9.715 16.927,9.871 17.028,10.012 C17.056,10.030 17.083,10.049 17.111,10.067 C17.111,10.086 17.111,10.104 17.111,10.122 C17.130,10.131 17.148,10.141 17.167,10.150 C17.167,10.168 17.167,10.187 17.167,10.205 C17.185,10.214 17.204,10.223 17.222,10.233 C17.222,10.251 17.222,10.269 17.222,10.288 C17.241,10.297 17.259,10.306 17.278,10.315 C17.278,10.334 17.278,10.352 17.278,10.370 C17.296,10.380 17.315,10.389 17.333,10.398 C17.333,10.416 17.333,10.435 17.333,10.453 C17.352,10.462 17.370,10.471 17.389,10.481 C17.389,10.499 17.389,10.517 17.389,10.536 C17.407,10.545 17.426,10.554 17.444,10.563 C17.463,10.618 17.481,10.674 17.500,10.729 C17.519,10.738 17.537,10.747 17.556,10.756 C17.565,10.793 17.574,10.830 17.583,10.866 C17.593,10.866 17.602,10.866 17.611,10.866 C17.611,10.885 17.611,10.903 17.611,10.922 C17.620,10.922 17.630,10.922 17.639,10.922 C17.657,10.977 17.676,11.032 17.694,11.087 C17.704,11.087 17.713,11.087 17.722,11.087 C17.722,11.115 17.722,11.142 17.722,11.170 C17.731,11.170 17.741,11.170 17.750,11.170 C17.759,11.206 17.769,11.243 17.778,11.280 C17.787,11.280 17.796,11.280 17.806,11.280 C17.870,11.473 17.935,11.666 18.000,11.859 C18.000,11.905 18.000,11.951 18.000,11.997 C18.009,11.997 18.019,11.997 18.028,11.997 C18.028,12.052 18.028,12.107 18.028,12.162 C18.037,12.162 18.046,12.162 18.056,12.162 C18.056,12.226 18.056,12.291 18.056,12.355 C18.065,12.355 18.074,12.355 18.083,12.355 C18.083,12.465 18.083,12.575 18.083,12.686 C18.093,12.686 18.102,12.686 18.111,12.686 C18.151,12.826 18.113,13.436 18.083,13.540 C18.083,13.641 18.083,13.742 18.083,13.843 C18.074,13.843 18.065,13.843 18.056,13.843 C18.056,13.917 18.056,13.990 18.056,14.064 C18.046,14.064 18.037,14.064 18.028,14.064 C18.028,14.119 18.028,14.174 18.028,14.229 C18.019,14.229 18.009,14.229 18.000,14.229 C18.000,14.275 18.000,14.321 18.000,14.367 C17.926,14.606 17.852,14.845 17.778,15.084 C17.769,15.084 17.759,15.084 17.750,15.084 C17.741,15.120 17.731,15.157 17.722,15.194 C17.713,15.194 17.704,15.194 17.694,15.194 C17.694,15.221 17.694,15.249 17.694,15.276 C17.685,15.276 17.676,15.276 17.667,15.276 C17.667,15.295 17.667,15.313 17.667,15.332 C17.657,15.332 17.648,15.332 17.639,15.332 C17.639,15.350 17.639,15.368 17.639,15.387 C17.620,15.396 17.602,15.405 17.583,15.414 C17.565,15.469 17.546,15.525 17.528,15.580 C17.509,15.589 17.491,15.598 17.472,15.607 C17.472,15.626 17.472,15.644 17.472,15.662 C17.463,15.662 17.454,15.662 17.444,15.662 C17.435,15.690 17.426,15.717 17.417,15.745 C17.398,15.754 17.380,15.763 17.361,15.773 C17.361,15.791 17.361,15.809 17.361,15.828 C17.333,15.846 17.306,15.864 17.278,15.883 C17.278,15.901 17.278,15.920 17.278,15.938 C17.250,15.956 17.222,15.975 17.194,15.993 C17.194,16.011 17.194,16.030 17.194,16.048 C17.157,16.076 17.120,16.103 17.083,16.131 C17.083,16.149 17.083,16.168 17.083,16.186 C17.037,16.223 16.991,16.260 16.944,16.296 C16.944,16.315 16.944,16.333 16.944,16.351 C16.861,16.425 16.778,16.498 16.694,16.572 C16.565,16.710 16.435,16.848 16.306,16.985 C16.287,16.985 16.269,16.985 16.250,16.985 C16.204,17.040 16.157,17.096 16.111,17.151 C16.083,17.169 16.056,17.187 16.028,17.206 C16.028,17.215 16.028,17.224 16.028,17.233 C16.009,17.233 15.991,17.233 15.972,17.233 C15.889,17.325 15.806,17.417 15.722,17.509 C15.667,17.555 15.611,17.601 15.556,17.647 C15.556,17.665 15.556,17.684 15.556,17.702 C15.528,17.720 15.500,17.739 15.472,17.757 C15.463,17.785 15.454,17.812 15.444,17.840 C15.426,17.849 15.407,17.858 15.389,17.867 C15.389,17.886 15.389,17.904 15.389,17.922 C15.370,17.932 15.352,17.941 15.333,17.950 C15.324,17.978 15.315,18.005 15.306,18.033 C15.296,18.033 15.287,18.033 15.278,18.033 C15.278,18.051 15.278,18.069 15.278,18.088 C15.259,18.097 15.241,18.106 15.222,18.115 C15.222,18.134 15.222,18.152 15.222,18.171 C15.204,18.180 15.185,18.189 15.167,18.198 C15.167,18.216 15.167,18.235 15.167,18.253 C15.157,18.253 15.148,18.253 15.139,18.253 C15.139,18.272 15.139,18.290 15.139,18.308 C15.130,18.308 15.120,18.308 15.111,18.308 C15.111,18.336 15.111,18.363 15.111,18.391 C15.102,18.391 15.093,18.391 15.083,18.391 C15.083,18.409 15.083,18.428 15.083,18.446 C15.074,18.446 15.065,18.446 15.056,18.446 C15.022,18.531 14.959,19.028 15.000,19.163 C15.042,19.302 15.117,19.523 15.194,19.631 C15.231,19.659 15.269,19.686 15.306,19.714 C15.306,19.732 15.306,19.751 15.306,19.769 C15.352,19.806 15.398,19.843 15.444,19.879 C15.444,19.898 15.444,19.916 15.444,19.935 C15.537,20.017 15.630,20.100 15.722,20.183 C15.769,20.238 15.815,20.293 15.861,20.348 C15.880,20.348 15.898,20.348 15.917,20.348 C15.954,20.394 15.991,20.440 16.028,20.486 C16.046,20.486 16.065,20.486 16.083,20.486 C16.111,20.523 16.139,20.559 16.167,20.596 C16.185,20.596 16.204,20.596 16.222,20.596 C16.259,20.642 16.296,20.688 16.333,20.734 C16.352,20.734 16.370,20.734 16.389,20.734 C16.417,20.771 16.444,20.807 16.472,20.844 C16.491,20.844 16.509,20.844 16.528,20.844 C16.565,20.890 16.602,20.936 16.639,20.982 C16.657,20.982 16.676,20.982 16.694,20.982 C16.722,21.019 16.750,21.055 16.778,21.092 C16.796,21.092 16.815,21.092 16.833,21.092 C16.880,21.147 16.926,21.202 16.972,21.258 C16.991,21.258 17.009,21.258 17.028,21.258 C17.083,21.322 17.139,21.386 17.194,21.450 C17.213,21.450 17.231,21.450 17.250,21.450 C17.333,21.542 17.417,21.634 17.500,21.726 C17.639,21.855 17.778,21.983 17.917,22.112 C17.917,22.130 17.917,22.149 17.917,22.167 C17.981,22.222 18.046,22.277 18.111,22.332 C18.111,22.351 18.111,22.369 18.111,22.388 C18.157,22.424 18.204,22.461 18.250,22.498 C18.250,22.516 18.250,22.535 18.250,22.553 C18.287,22.581 18.324,22.608 18.361,22.636 C18.361,22.654 18.361,22.672 18.361,22.691 C18.398,22.718 18.435,22.746 18.472,22.773 C18.472,22.792 18.472,22.810 18.472,22.829 C18.491,22.838 18.509,22.847 18.528,22.856 C18.537,22.884 18.546,22.911 18.556,22.939 C18.565,22.939 18.574,22.939 18.583,22.939 C18.593,22.976 18.602,23.012 18.611,23.049 C18.630,23.058 18.648,23.067 18.667,23.077 C18.676,23.113 18.685,23.150 18.694,23.187 C18.704,23.187 18.713,23.187 18.722,23.187 C18.731,23.224 18.741,23.260 18.750,23.297 C18.759,23.297 18.769,23.297 18.778,23.297 C18.778,23.325 18.778,23.352 18.778,23.380 C18.787,23.380 18.796,23.380 18.806,23.380 C18.815,23.417 18.824,23.453 18.833,23.490 C18.843,23.490 18.852,23.490 18.861,23.490 C18.870,23.545 18.880,23.600 18.889,23.655 C18.898,23.655 18.907,23.655 18.917,23.655 C18.917,23.683 18.917,23.711 18.917,23.738 C18.926,23.738 18.935,23.738 18.944,23.738 C18.944,23.766 18.944,23.793 18.944,23.821 C18.954,23.821 18.963,23.821 18.972,23.821 C18.972,23.848 18.972,23.876 18.972,23.904 C18.981,23.904 18.991,23.904 19.000,23.904 C19.000,23.940 19.000,23.977 19.000,24.014 C19.009,24.014 19.019,24.014 19.028,24.014 C19.037,24.096 19.046,24.179 19.056,24.262 C19.065,24.262 19.074,24.262 19.083,24.262 C19.093,24.372 19.102,24.482 19.111,24.593 C19.120,24.593 19.130,24.593 19.139,24.593 C19.139,24.684 19.139,24.776 19.139,24.868 C19.148,24.868 19.157,24.868 19.167,24.868 C19.207,25.011 19.169,25.644 19.139,25.750 C19.130,25.888 19.120,26.026 19.111,26.164 C19.102,26.164 19.093,26.164 19.083,26.164 C19.083,26.210 19.083,26.256 19.083,26.301 C19.074,26.301 19.065,26.301 19.056,26.301 C19.056,26.338 19.056,26.375 19.056,26.412 C19.046,26.412 19.037,26.412 19.028,26.412 C19.028,26.448 19.028,26.485 19.028,26.522 C19.019,26.522 19.009,26.522 19.000,26.522 C19.000,26.559 19.000,26.595 19.000,26.632 C18.991,26.632 18.981,26.632 18.972,26.632 C18.972,26.660 18.972,26.687 18.972,26.715 C18.963,26.715 18.954,26.715 18.944,26.715 C18.944,26.742 18.944,26.770 18.944,26.798 C18.935,26.798 18.926,26.798 18.917,26.798 C18.907,26.853 18.898,26.908 18.889,26.963 C18.880,26.963 18.870,26.963 18.861,26.963 C18.861,26.981 18.861,27.000 18.861,27.018 C18.852,27.018 18.843,27.018 18.833,27.018 C18.833,27.046 18.833,27.073 18.833,27.101 C18.824,27.101 18.815,27.101 18.806,27.101 C18.787,27.156 18.769,27.211 18.750,27.266 C18.741,27.266 18.731,27.266 18.722,27.266 C18.722,27.285 18.722,27.303 18.722,27.321 C18.713,27.321 18.704,27.321 18.694,27.321 C18.694,27.340 18.694,27.358 18.694,27.376 C18.685,27.376 18.676,27.376 18.667,27.376 C18.667,27.395 18.667,27.413 18.667,27.432 C18.657,27.432 18.648,27.432 18.639,27.432 C18.639,27.450 18.639,27.468 18.639,27.487 C18.630,27.487 18.620,27.487 18.611,27.487 C18.611,27.505 18.611,27.523 18.611,27.542 C18.602,27.542 18.593,27.542 18.583,27.542 C18.583,27.560 18.583,27.579 18.583,27.597 C18.574,27.597 18.565,27.597 18.556,27.597 C18.556,27.615 18.556,27.634 18.556,27.652 C18.537,27.661 18.519,27.670 18.500,27.680 C18.491,27.716 18.481,27.753 18.472,27.790 C18.463,27.790 18.454,27.790 18.444,27.790 C18.435,27.817 18.426,27.845 18.417,27.873 C18.398,27.882 18.380,27.891 18.361,27.900 C18.361,27.918 18.361,27.937 18.361,27.955 C18.343,27.964 18.324,27.974 18.306,27.983 C18.306,28.001 18.306,28.020 18.306,28.038 C18.278,28.056 18.250,28.075 18.222,28.093 C18.222,28.111 18.222,28.130 18.222,28.148 C18.204,28.157 18.185,28.167 18.167,28.176 C18.167,28.194 18.167,28.212 18.167,28.231 C18.139,28.249 18.111,28.268 18.083,28.286 C18.074,28.314 18.065,28.341 18.056,28.369 C18.000,28.415 17.944,28.461 17.889,28.506 C17.889,28.525 17.889,28.543 17.889,28.562 C17.778,28.663 17.667,28.764 17.556,28.865 C17.463,28.966 17.370,29.067 17.278,29.168 C17.259,29.168 17.241,29.168 17.222,29.168 C17.176,29.223 17.130,29.278 17.083,29.333 C17.065,29.333 17.046,29.333 17.028,29.333 C17.009,29.361 16.991,29.388 16.972,29.416 C16.954,29.416 16.935,29.416 16.917,29.416 C16.898,29.444 16.880,29.471 16.861,29.499 C16.833,29.508 16.806,29.517 16.778,29.526 C16.769,29.545 16.759,29.563 16.750,29.581 C16.731,29.581 16.713,29.581 16.694,29.581 C16.685,29.600 16.676,29.618 16.667,29.637 C16.639,29.646 16.611,29.655 16.583,29.664 C16.583,29.673 16.583,29.682 16.583,29.692 C16.565,29.692 16.546,29.692 16.528,29.692 C16.519,29.710 16.509,29.728 16.500,29.747 C16.472,29.756 16.444,29.765 16.417,29.774 C16.417,29.784 16.417,29.793 16.417,29.802 C16.380,29.811 16.343,29.820 16.306,29.829 C16.296,29.848 16.287,29.866 16.278,29.885 C16.259,29.885 16.241,29.885 16.222,29.885 C16.222,29.894 16.222,29.903 16.222,29.912 C16.204,29.912 16.185,29.912 16.167,29.912 C16.167,29.921 16.167,29.931 16.167,29.940 C16.148,29.940 16.130,29.940 16.111,29.940 C16.111,29.949 16.111,29.958 16.111,29.967 C16.093,29.967 16.074,29.967 16.056,29.967 C16.056,29.976 16.056,29.986 16.056,29.995 C16.037,29.995 16.019,29.995 16.000,29.995 C16.000,30.004 16.000,30.013 16.000,30.022 C15.981,30.022 15.963,30.022 15.944,30.022 C15.935,30.041 15.926,30.059 15.917,30.078 C15.889,30.078 15.861,30.078 15.833,30.078 C15.833,30.087 15.833,30.096 15.833,30.105 C15.815,30.105 15.796,30.105 15.778,30.105 C15.778,30.114 15.778,30.123 15.778,30.133 C15.759,30.133 15.741,30.133 15.722,30.133 C15.722,30.142 15.722,30.151 15.722,30.160 C15.667,30.179 15.611,30.197 15.556,30.215 C15.556,30.225 15.556,30.234 15.556,30.243 C15.528,30.243 15.500,30.243 15.472,30.243 C15.472,30.252 15.472,30.261 15.472,30.270 C15.454,30.270 15.435,30.270 15.417,30.270 C15.417,30.280 15.417,30.289 15.417,30.298 C15.370,30.307 15.324,30.316 15.278,30.326 C15.278,30.335 15.278,30.344 15.278,30.353 C15.250,30.353 15.222,30.353 15.194,30.353 C15.194,30.362 15.194,30.372 15.194,30.381 C15.176,30.381 15.157,30.381 15.139,30.381 C15.139,30.390 15.139,30.399 15.139,30.408 C15.056,30.427 14.972,30.445 14.889,30.463 C14.889,30.473 14.889,30.482 14.889,30.491 C14.861,30.491 14.833,30.491 14.806,30.491 C14.806,30.500 14.806,30.509 14.806,30.519 C14.778,30.519 14.750,30.519 14.722,30.519 C14.722,30.528 14.722,30.537 14.722,30.546 C14.657,30.555 14.593,30.564 14.528,30.574 C14.528,30.583 14.528,30.592 14.528,30.601 C14.463,30.610 14.398,30.620 14.333,30.629 C14.333,30.638 14.333,30.647 14.333,30.656 C14.296,30.656 14.259,30.656 14.222,30.656 C14.222,30.666 14.222,30.675 14.222,30.684 C14.176,30.684 14.130,30.684 14.083,30.684 C14.083,30.693 14.083,30.702 14.083,30.711 C14.046,30.711 14.009,30.711 13.972,30.711 C13.972,30.721 13.972,30.730 13.972,30.739 C13.926,30.739 13.880,30.739 13.833,30.739 C13.833,30.748 13.833,30.757 13.833,30.767 C13.787,30.767 13.741,30.767 13.694,30.767 C13.694,30.776 13.694,30.785 13.694,30.794 C13.648,30.794 13.602,30.794 13.556,30.794 C13.556,30.803 13.556,30.813 13.556,30.822 C13.500,30.822 13.444,30.822 13.389,30.822 C13.389,30.831 13.389,30.840 13.389,30.849 C13.324,30.849 13.259,30.849 13.194,30.849 C13.194,30.858 13.194,30.868 13.194,30.877 C13.130,30.877 13.065,30.877 13.000,30.877 C13.000,30.886 13.000,30.895 13.000,30.904 C12.824,30.914 12.648,30.923 12.472,30.932 C12.472,30.941 12.472,30.950 12.472,30.960 C12.352,30.960 12.231,30.960 12.111,30.960 C12.062,30.973 11.991,30.969 11.932,30.975 C13.375,31.431 14.909,31.680 16.500,31.680 C24.870,31.680 31.680,24.870 31.680,16.500 C31.680,8.130 24.870,1.320 16.500,1.320 ZM25.833,19.328 C25.753,19.547 25.806,20.041 25.806,20.320 C25.806,21.046 25.806,21.772 25.806,22.498 C25.685,22.542 25.470,22.525 25.306,22.525 C24.963,22.525 24.620,22.525 24.278,22.525 C24.278,21.469 24.278,20.412 24.278,19.356 C23.954,19.298 23.509,19.328 23.139,19.328 C22.445,19.328 21.750,19.328 21.056,19.328 C21.097,18.873 21.083,18.312 21.083,17.812 C22.148,17.812 23.213,17.812 24.278,17.812 C24.278,16.756 24.278,15.699 24.278,14.643 C24.787,14.643 25.296,14.643 25.806,14.643 C25.806,15.699 25.806,16.756 25.806,17.812 C26.870,17.812 27.935,17.812 29.000,17.812 C29.000,18.317 29.000,18.823 29.000,19.328 C27.945,19.328 26.889,19.328 25.833,19.328 Z"/>
</svg>