<svg 
 xmlns="http://www.w3.org/2000/svg"
 xmlns:xlink="http://www.w3.org/1999/xlink"
 width="33px" height="33px">
<path fill-rule="evenodd"  fill="rgb(144, 143, 150)"
 d="M16.500,33.000 C7.402,33.000 -0.000,25.598 -0.000,16.500 C-0.000,7.402 7.402,-0.000 16.500,-0.000 C25.598,-0.000 33.000,7.402 33.000,16.500 C33.000,25.598 25.598,33.000 16.500,33.000 ZM16.500,1.320 C8.130,1.320 1.320,8.130 1.320,16.500 C1.320,24.870 8.130,31.680 16.500,31.680 C24.870,31.680 31.680,24.870 31.680,16.500 C31.680,8.130 24.870,1.320 16.500,1.320 ZM21.572,18.524 C21.572,18.285 21.572,18.046 21.572,17.806 C21.572,17.701 21.588,17.543 21.563,17.456 C21.563,17.415 21.563,17.374 21.563,17.333 C21.557,17.240 21.551,17.147 21.545,17.053 C21.524,16.928 21.503,16.802 21.482,16.676 C21.453,16.574 21.423,16.472 21.393,16.370 C21.390,16.370 21.387,16.370 21.384,16.370 C21.384,16.364 21.384,16.358 21.384,16.352 C21.381,16.352 21.378,16.352 21.375,16.352 C21.372,16.335 21.369,16.317 21.366,16.300 C21.363,16.300 21.360,16.300 21.357,16.300 C21.357,16.294 21.357,16.288 21.357,16.282 C21.354,16.282 21.352,16.282 21.349,16.282 C21.349,16.274 21.349,16.265 21.349,16.256 C21.346,16.256 21.343,16.256 21.340,16.256 C21.337,16.244 21.334,16.233 21.331,16.221 C21.328,16.221 21.325,16.221 21.322,16.221 C21.322,16.215 21.322,16.209 21.322,16.204 C21.319,16.204 21.316,16.204 21.313,16.204 C21.313,16.195 21.313,16.186 21.313,16.177 C21.310,16.177 21.307,16.177 21.304,16.177 C21.298,16.160 21.292,16.142 21.286,16.125 C21.283,16.125 21.280,16.125 21.277,16.125 C21.274,16.113 21.271,16.101 21.268,16.090 C21.262,16.087 21.256,16.084 21.250,16.081 C21.244,16.063 21.238,16.046 21.232,16.028 C21.227,16.025 21.221,16.023 21.215,16.020 C21.212,16.008 21.209,15.996 21.206,15.985 C21.200,15.982 21.194,15.979 21.188,15.976 C21.188,15.970 21.188,15.964 21.188,15.958 C21.185,15.958 21.182,15.958 21.179,15.958 C21.176,15.950 21.173,15.941 21.170,15.932 C21.164,15.929 21.158,15.926 21.152,15.923 C21.152,15.917 21.152,15.912 21.152,15.906 C21.143,15.900 21.134,15.894 21.125,15.888 C21.125,15.882 21.125,15.877 21.125,15.871 C21.119,15.868 21.113,15.865 21.107,15.862 C21.105,15.853 21.102,15.844 21.099,15.836 C21.084,15.824 21.069,15.812 21.054,15.801 C20.904,15.597 20.657,15.463 20.393,15.371 C20.381,15.371 20.369,15.371 20.358,15.371 C20.358,15.369 20.358,15.366 20.358,15.363 C20.349,15.363 20.340,15.363 20.331,15.363 C20.331,15.360 20.331,15.357 20.331,15.354 C20.247,15.339 20.164,15.325 20.081,15.310 C20.045,15.310 20.009,15.310 19.974,15.310 C19.974,15.307 19.974,15.304 19.974,15.301 C19.926,15.301 19.878,15.301 19.831,15.301 C19.706,15.301 19.580,15.307 19.483,15.336 C19.453,15.339 19.423,15.342 19.393,15.345 C19.393,15.348 19.393,15.351 19.393,15.354 C19.370,15.357 19.346,15.360 19.322,15.363 C19.322,15.366 19.322,15.369 19.322,15.371 C19.313,15.371 19.304,15.371 19.295,15.371 C19.295,15.374 19.295,15.377 19.295,15.380 C19.286,15.380 19.277,15.380 19.268,15.380 C19.268,15.383 19.268,15.386 19.268,15.389 C19.256,15.389 19.245,15.389 19.233,15.389 C19.233,15.392 19.233,15.395 19.233,15.398 C19.227,15.398 19.221,15.398 19.215,15.398 C19.215,15.401 19.215,15.404 19.215,15.407 C19.197,15.409 19.179,15.412 19.161,15.415 C19.161,15.418 19.161,15.421 19.161,15.424 C19.155,15.424 19.149,15.424 19.143,15.424 C19.143,15.427 19.143,15.430 19.143,15.433 C19.134,15.433 19.126,15.433 19.117,15.433 C19.117,15.436 19.117,15.439 19.117,15.442 C19.099,15.447 19.081,15.453 19.063,15.459 C19.063,15.462 19.063,15.465 19.063,15.468 C19.057,15.468 19.051,15.468 19.045,15.468 C19.045,15.471 19.045,15.474 19.045,15.477 C19.030,15.480 19.015,15.482 19.001,15.485 C18.998,15.491 18.995,15.497 18.992,15.503 C18.986,15.503 18.980,15.503 18.974,15.503 C18.974,15.506 18.974,15.509 18.974,15.512 C18.968,15.512 18.962,15.512 18.956,15.512 C18.956,15.515 18.956,15.517 18.956,15.520 C18.950,15.520 18.944,15.520 18.938,15.520 C18.938,15.523 18.938,15.526 18.938,15.529 C18.932,15.529 18.926,15.529 18.920,15.529 C18.917,15.535 18.914,15.541 18.911,15.547 C18.899,15.550 18.887,15.553 18.876,15.555 C18.873,15.561 18.870,15.567 18.867,15.573 C18.861,15.573 18.855,15.573 18.849,15.573 C18.846,15.579 18.843,15.585 18.840,15.590 C18.834,15.590 18.828,15.590 18.822,15.590 C18.819,15.596 18.816,15.602 18.813,15.608 C18.807,15.608 18.801,15.608 18.795,15.608 C18.792,15.614 18.789,15.620 18.786,15.625 C18.780,15.625 18.774,15.625 18.768,15.625 C18.762,15.634 18.756,15.643 18.751,15.652 C18.745,15.652 18.739,15.652 18.733,15.652 C18.724,15.663 18.715,15.675 18.706,15.687 C18.700,15.687 18.694,15.687 18.688,15.687 C18.676,15.701 18.664,15.716 18.652,15.731 C18.646,15.731 18.640,15.731 18.634,15.731 C18.608,15.760 18.581,15.789 18.554,15.818 C18.521,15.847 18.489,15.877 18.456,15.906 C18.456,15.912 18.456,15.917 18.456,15.923 C18.441,15.935 18.426,15.947 18.411,15.958 C18.411,15.964 18.411,15.970 18.411,15.976 C18.399,15.985 18.387,15.993 18.376,16.002 C18.373,16.011 18.370,16.020 18.367,16.028 C18.361,16.031 18.355,16.034 18.349,16.037 C18.349,16.043 18.349,16.049 18.349,16.055 C18.343,16.058 18.337,16.060 18.331,16.063 C18.328,16.072 18.325,16.081 18.322,16.090 C18.319,16.090 18.316,16.090 18.313,16.090 C18.313,16.096 18.313,16.101 18.313,16.107 C18.304,16.113 18.295,16.119 18.286,16.125 C18.283,16.136 18.280,16.148 18.277,16.160 C18.271,16.163 18.265,16.166 18.260,16.169 C18.257,16.177 18.254,16.186 18.251,16.195 C18.248,16.195 18.245,16.195 18.242,16.195 C18.239,16.206 18.236,16.218 18.233,16.230 C18.227,16.233 18.221,16.236 18.215,16.239 C18.215,16.244 18.215,16.250 18.215,16.256 C18.212,16.256 18.209,16.256 18.206,16.256 C18.206,16.262 18.206,16.268 18.206,16.274 C18.203,16.274 18.200,16.274 18.197,16.274 C18.197,16.279 18.197,16.285 18.197,16.291 C18.194,16.291 18.191,16.291 18.188,16.291 C18.188,16.297 18.188,16.303 18.188,16.309 C18.185,16.309 18.182,16.309 18.179,16.309 C18.179,16.314 18.179,16.320 18.179,16.326 C18.173,16.329 18.167,16.332 18.161,16.335 C18.152,16.361 18.143,16.387 18.135,16.414 C18.132,16.414 18.129,16.414 18.126,16.414 C18.126,16.420 18.126,16.425 18.126,16.431 C18.123,16.431 18.120,16.431 18.117,16.431 C18.111,16.449 18.105,16.466 18.099,16.484 C18.096,16.484 18.093,16.484 18.090,16.484 C18.090,16.493 18.090,16.501 18.090,16.510 C18.087,16.510 18.084,16.510 18.081,16.510 C18.081,16.516 18.081,16.522 18.081,16.528 C18.078,16.528 18.075,16.528 18.072,16.528 C18.072,16.536 18.072,16.545 18.072,16.554 C18.069,16.554 18.066,16.554 18.063,16.554 C18.063,16.560 18.063,16.566 18.063,16.571 C18.060,16.571 18.057,16.571 18.054,16.571 C18.051,16.592 18.048,16.612 18.045,16.633 C18.042,16.633 18.039,16.633 18.036,16.633 C18.036,16.641 18.036,16.650 18.036,16.659 C18.033,16.659 18.030,16.659 18.027,16.659 C18.018,16.717 18.010,16.776 18.001,16.834 C17.998,16.834 17.995,16.834 17.992,16.834 C17.992,16.855 17.992,16.875 17.992,16.895 C17.989,16.895 17.986,16.895 17.983,16.895 C17.983,16.922 17.983,16.948 17.983,16.974 C17.980,16.974 17.977,16.974 17.974,16.974 C17.974,17.015 17.974,17.056 17.974,17.097 C17.949,17.184 17.965,17.342 17.965,17.447 C17.965,17.876 17.965,18.306 17.965,18.735 C17.965,20.156 17.965,21.578 17.965,23.000 C16.819,23.000 15.673,23.000 14.528,23.000 C14.531,22.291 14.534,21.581 14.537,20.872 C14.537,20.647 14.537,20.422 14.537,20.197 C14.537,20.093 14.520,19.953 14.546,19.865 C14.546,18.720 14.546,17.576 14.546,16.431 C14.546,15.468 14.546,14.504 14.546,13.541 C14.528,13.478 14.537,13.374 14.537,13.296 C14.534,13.159 14.531,13.021 14.528,12.884 C15.673,12.884 16.819,12.884 17.965,12.884 C17.965,13.357 17.965,13.830 17.965,14.303 C17.968,14.303 17.971,14.303 17.974,14.303 C17.974,14.297 17.974,14.291 17.974,14.285 C17.996,14.271 17.995,14.255 18.010,14.233 C18.015,14.230 18.021,14.227 18.027,14.224 C18.030,14.215 18.033,14.207 18.036,14.198 C18.039,14.198 18.042,14.198 18.045,14.198 C18.045,14.192 18.045,14.186 18.045,14.180 C18.051,14.177 18.057,14.175 18.063,14.172 C18.063,14.166 18.063,14.160 18.063,14.154 C18.069,14.151 18.075,14.148 18.081,14.145 C18.081,14.139 18.081,14.134 18.081,14.128 C18.090,14.122 18.099,14.116 18.108,14.110 C18.108,14.104 18.108,14.099 18.108,14.093 C18.114,14.090 18.120,14.087 18.126,14.084 C18.126,14.078 18.126,14.072 18.126,14.067 C18.135,14.061 18.143,14.055 18.152,14.049 C18.152,14.043 18.152,14.037 18.152,14.031 C18.161,14.026 18.170,14.020 18.179,14.014 C18.179,14.008 18.179,14.002 18.179,13.996 C18.188,13.991 18.197,13.985 18.206,13.979 C18.206,13.973 18.206,13.967 18.206,13.961 C18.215,13.956 18.224,13.950 18.233,13.944 C18.233,13.938 18.233,13.932 18.233,13.926 C18.245,13.918 18.257,13.909 18.268,13.900 C18.268,13.894 18.268,13.888 18.268,13.883 C18.283,13.871 18.298,13.859 18.313,13.848 C18.313,13.842 18.313,13.836 18.313,13.830 C18.328,13.818 18.343,13.807 18.358,13.795 C18.358,13.789 18.358,13.783 18.358,13.777 C18.385,13.754 18.411,13.731 18.438,13.707 C18.438,13.702 18.438,13.696 18.438,13.690 C18.456,13.675 18.474,13.661 18.492,13.646 C18.542,13.594 18.593,13.541 18.643,13.488 C18.649,13.488 18.655,13.488 18.661,13.488 C18.682,13.465 18.703,13.442 18.724,13.418 C18.730,13.418 18.736,13.418 18.742,13.418 C18.754,13.404 18.765,13.389 18.777,13.375 C18.783,13.375 18.789,13.375 18.795,13.375 C18.807,13.360 18.819,13.345 18.831,13.331 C18.837,13.331 18.843,13.331 18.849,13.331 C18.855,13.322 18.861,13.313 18.867,13.305 C18.873,13.305 18.879,13.305 18.884,13.305 C18.890,13.296 18.896,13.287 18.902,13.278 C18.908,13.278 18.914,13.278 18.920,13.278 C18.926,13.270 18.932,13.261 18.938,13.252 C18.944,13.252 18.950,13.252 18.956,13.252 C18.959,13.246 18.962,13.240 18.965,13.234 C18.971,13.234 18.977,13.234 18.983,13.234 C18.989,13.226 18.995,13.217 19.001,13.208 C19.006,13.208 19.012,13.208 19.018,13.208 C19.021,13.202 19.024,13.197 19.027,13.191 C19.036,13.188 19.045,13.185 19.054,13.182 C19.054,13.179 19.054,13.176 19.054,13.173 C19.066,13.170 19.078,13.167 19.090,13.164 C19.090,13.161 19.090,13.159 19.090,13.156 C19.099,13.153 19.108,13.150 19.117,13.147 C19.120,13.141 19.123,13.135 19.126,13.129 C19.131,13.129 19.137,13.129 19.143,13.129 C19.143,13.126 19.143,13.124 19.143,13.121 C19.149,13.121 19.155,13.121 19.161,13.121 C19.164,13.115 19.167,13.109 19.170,13.103 C19.182,13.100 19.194,13.097 19.206,13.094 C19.209,13.088 19.212,13.083 19.215,13.077 C19.221,13.077 19.227,13.077 19.233,13.077 C19.233,13.074 19.233,13.071 19.233,13.068 C19.239,13.068 19.245,13.068 19.251,13.068 C19.251,13.065 19.251,13.062 19.251,13.059 C19.256,13.059 19.262,13.059 19.268,13.059 C19.268,13.056 19.268,13.053 19.268,13.051 C19.274,13.051 19.280,13.051 19.286,13.051 C19.289,13.045 19.292,13.039 19.295,13.033 C19.301,13.033 19.307,13.033 19.313,13.033 C19.313,13.030 19.313,13.027 19.313,13.024 C19.319,13.024 19.325,13.024 19.331,13.024 C19.331,13.021 19.331,13.018 19.331,13.016 C19.337,13.016 19.343,13.016 19.349,13.016 C19.349,13.013 19.349,13.010 19.349,13.007 C19.355,13.007 19.361,13.007 19.367,13.007 C19.367,13.004 19.367,13.001 19.367,12.998 C19.373,12.998 19.378,12.998 19.384,12.998 C19.384,12.995 19.384,12.992 19.384,12.989 C19.390,12.989 19.396,12.989 19.402,12.989 C19.402,12.986 19.402,12.983 19.402,12.980 C19.420,12.975 19.438,12.969 19.456,12.963 C19.456,12.960 19.456,12.957 19.456,12.954 C19.471,12.951 19.486,12.948 19.500,12.945 C19.500,12.943 19.500,12.940 19.500,12.937 C19.506,12.937 19.512,12.937 19.518,12.937 C19.518,12.934 19.518,12.931 19.518,12.928 C19.527,12.928 19.536,12.928 19.545,12.928 C19.545,12.925 19.545,12.922 19.545,12.919 C19.557,12.916 19.569,12.913 19.581,12.910 C19.581,12.907 19.581,12.905 19.581,12.902 C19.590,12.902 19.599,12.902 19.608,12.902 C19.608,12.899 19.608,12.896 19.608,12.893 C19.614,12.893 19.620,12.893 19.625,12.893 C19.625,12.890 19.625,12.887 19.625,12.884 C19.634,12.884 19.643,12.884 19.652,12.884 C19.652,12.881 19.652,12.878 19.652,12.875 C19.658,12.875 19.664,12.875 19.670,12.875 C19.670,12.872 19.670,12.870 19.670,12.867 C19.679,12.867 19.688,12.867 19.697,12.867 C19.697,12.864 19.697,12.861 19.697,12.858 C19.706,12.858 19.715,12.858 19.724,12.858 C19.724,12.855 19.724,12.852 19.724,12.849 C19.733,12.849 19.742,12.849 19.750,12.849 C19.750,12.846 19.750,12.843 19.750,12.840 C19.759,12.840 19.768,12.840 19.777,12.840 C19.777,12.837 19.777,12.835 19.777,12.832 C19.786,12.832 19.795,12.832 19.804,12.832 C19.804,12.829 19.804,12.826 19.804,12.823 C19.813,12.823 19.822,12.823 19.831,12.823 C19.831,12.820 19.831,12.817 19.831,12.814 C19.840,12.814 19.849,12.814 19.858,12.814 C19.858,12.811 19.858,12.808 19.858,12.805 C19.867,12.805 19.875,12.805 19.884,12.805 C19.884,12.802 19.884,12.799 19.884,12.797 C19.905,12.794 19.926,12.791 19.947,12.788 C19.947,12.785 19.947,12.782 19.947,12.779 C19.968,12.776 19.989,12.773 20.009,12.770 C20.009,12.767 20.009,12.764 20.009,12.762 C20.033,12.759 20.057,12.756 20.081,12.753 C20.081,12.750 20.081,12.747 20.081,12.744 C20.096,12.744 20.111,12.744 20.125,12.744 C20.125,12.741 20.125,12.738 20.125,12.735 C20.137,12.735 20.149,12.735 20.161,12.735 C20.161,12.732 20.161,12.729 20.161,12.726 C20.176,12.726 20.191,12.726 20.206,12.726 C20.206,12.724 20.206,12.721 20.206,12.718 C20.221,12.718 20.236,12.718 20.250,12.718 C20.250,12.715 20.250,12.712 20.250,12.709 C20.265,12.709 20.280,12.709 20.295,12.709 C20.295,12.706 20.295,12.703 20.295,12.700 C20.313,12.700 20.331,12.700 20.349,12.700 C20.349,12.697 20.349,12.694 20.349,12.691 C20.369,12.691 20.390,12.691 20.411,12.691 C20.411,12.689 20.411,12.686 20.411,12.683 C20.432,12.683 20.453,12.683 20.474,12.683 C20.474,12.680 20.474,12.677 20.474,12.674 C20.497,12.674 20.521,12.674 20.545,12.674 C20.545,12.671 20.545,12.668 20.545,12.665 C20.575,12.665 20.605,12.665 20.634,12.665 C20.634,12.662 20.634,12.659 20.634,12.656 C20.709,12.653 20.783,12.651 20.858,12.648 C20.890,12.648 20.923,12.648 20.956,12.648 C20.956,12.645 20.956,12.642 20.956,12.639 C20.999,12.627 21.121,12.639 21.152,12.648 C21.224,12.648 21.295,12.648 21.366,12.648 C21.366,12.651 21.366,12.653 21.366,12.656 C21.405,12.656 21.444,12.656 21.482,12.656 C21.482,12.659 21.482,12.662 21.482,12.665 C21.512,12.665 21.542,12.665 21.572,12.665 C21.572,12.668 21.572,12.671 21.572,12.674 C21.599,12.674 21.625,12.674 21.652,12.674 C21.789,12.697 21.926,12.721 22.063,12.744 C22.063,12.747 22.063,12.750 22.063,12.753 C22.075,12.753 22.087,12.753 22.098,12.753 C22.098,12.756 22.098,12.759 22.098,12.762 C22.110,12.762 22.122,12.762 22.134,12.762 C22.134,12.764 22.134,12.767 22.134,12.770 C22.146,12.770 22.158,12.770 22.170,12.770 C22.170,12.773 22.170,12.776 22.170,12.779 C22.182,12.779 22.194,12.779 22.206,12.779 C22.206,12.782 22.206,12.785 22.206,12.788 C22.215,12.788 22.223,12.788 22.232,12.788 C22.232,12.791 22.232,12.794 22.232,12.797 C22.256,12.799 22.280,12.802 22.304,12.805 C22.304,12.808 22.304,12.811 22.304,12.814 C22.313,12.814 22.322,12.814 22.331,12.814 C22.331,12.817 22.331,12.820 22.331,12.823 C22.340,12.823 22.348,12.823 22.357,12.823 C22.357,12.826 22.357,12.829 22.357,12.832 C22.366,12.832 22.375,12.832 22.384,12.832 C22.384,12.835 22.384,12.837 22.384,12.840 C22.393,12.840 22.402,12.840 22.411,12.840 C22.411,12.843 22.411,12.846 22.411,12.849 C22.420,12.849 22.429,12.849 22.438,12.849 C22.438,12.852 22.438,12.855 22.438,12.858 C22.447,12.858 22.456,12.858 22.465,12.858 C22.465,12.861 22.465,12.864 22.465,12.867 C22.473,12.867 22.482,12.867 22.491,12.867 C22.491,12.870 22.491,12.872 22.491,12.875 C22.518,12.881 22.545,12.887 22.572,12.893 C22.572,12.896 22.572,12.899 22.572,12.902 C22.578,12.902 22.584,12.902 22.589,12.902 C22.589,12.905 22.589,12.907 22.589,12.910 C22.598,12.910 22.607,12.910 22.616,12.910 C22.616,12.913 22.616,12.916 22.616,12.919 C22.622,12.919 22.628,12.919 22.634,12.919 C22.634,12.922 22.634,12.925 22.634,12.928 C22.643,12.928 22.652,12.928 22.661,12.928 C22.661,12.931 22.661,12.934 22.661,12.937 C22.667,12.937 22.673,12.937 22.679,12.937 C22.679,12.940 22.679,12.943 22.679,12.945 C22.688,12.945 22.697,12.945 22.706,12.945 C22.706,12.948 22.706,12.951 22.706,12.954 C22.717,12.957 22.729,12.960 22.741,12.963 C22.741,12.966 22.741,12.969 22.741,12.972 C22.750,12.972 22.759,12.972 22.768,12.972 C22.768,12.975 22.768,12.978 22.768,12.980 C22.786,12.986 22.804,12.992 22.822,12.998 C22.822,13.001 22.822,13.004 22.822,13.007 C22.828,13.007 22.834,13.007 22.839,13.007 C22.839,13.010 22.839,13.013 22.839,13.016 C22.845,13.016 22.851,13.016 22.857,13.016 C22.857,13.018 22.857,13.021 22.857,13.024 C22.863,13.024 22.869,13.024 22.875,13.024 C22.875,13.027 22.875,13.030 22.875,13.033 C22.887,13.036 22.899,13.039 22.911,13.042 C22.911,13.045 22.911,13.048 22.911,13.051 C22.917,13.051 22.923,13.051 22.929,13.051 C22.929,13.053 22.929,13.056 22.929,13.059 C22.935,13.059 22.941,13.059 22.947,13.059 C22.947,13.062 22.947,13.065 22.947,13.068 C22.953,13.068 22.959,13.068 22.964,13.068 C22.964,13.071 22.964,13.074 22.964,13.077 C22.970,13.077 22.976,13.077 22.982,13.077 C22.982,13.080 22.982,13.083 22.982,13.086 C22.988,13.086 22.994,13.086 23.000,13.086 C23.000,13.088 23.000,13.091 23.000,13.094 C23.012,13.097 23.024,13.100 23.036,13.103 C23.039,13.109 23.042,13.115 23.045,13.121 C23.063,13.126 23.081,13.132 23.098,13.138 C23.101,13.144 23.104,13.150 23.107,13.156 C23.119,13.159 23.131,13.161 23.143,13.164 C23.146,13.170 23.149,13.176 23.152,13.182 C23.164,13.185 23.176,13.188 23.188,13.191 C23.191,13.197 23.194,13.202 23.197,13.208 C23.203,13.208 23.208,13.208 23.214,13.208 C23.217,13.214 23.220,13.220 23.223,13.226 C23.229,13.226 23.235,13.226 23.241,13.226 C23.244,13.232 23.247,13.237 23.250,13.243 C23.256,13.243 23.262,13.243 23.268,13.243 C23.271,13.249 23.274,13.255 23.277,13.261 C23.283,13.261 23.289,13.261 23.295,13.261 C23.295,13.264 23.295,13.267 23.295,13.269 C23.304,13.272 23.313,13.275 23.322,13.278 C23.325,13.284 23.328,13.290 23.331,13.296 C23.336,13.296 23.342,13.296 23.348,13.296 C23.351,13.302 23.354,13.307 23.357,13.313 C23.363,13.313 23.369,13.313 23.375,13.313 C23.381,13.322 23.387,13.331 23.393,13.340 C23.399,13.340 23.405,13.340 23.411,13.340 C23.417,13.348 23.423,13.357 23.429,13.366 C23.435,13.366 23.441,13.366 23.447,13.366 C23.455,13.378 23.464,13.389 23.473,13.401 C23.479,13.401 23.485,13.401 23.491,13.401 C23.500,13.413 23.509,13.424 23.518,13.436 C23.524,13.436 23.530,13.436 23.536,13.436 C23.545,13.448 23.554,13.459 23.563,13.471 C23.569,13.471 23.575,13.471 23.580,13.471 C23.598,13.491 23.616,13.512 23.634,13.532 C23.640,13.532 23.646,13.532 23.652,13.532 C23.688,13.570 23.723,13.608 23.759,13.646 C23.807,13.690 23.854,13.734 23.902,13.777 C23.902,13.783 23.902,13.789 23.902,13.795 C23.923,13.813 23.944,13.830 23.964,13.848 C23.964,13.853 23.964,13.859 23.964,13.865 C23.979,13.877 23.994,13.888 24.009,13.900 C24.009,13.906 24.009,13.912 24.009,13.918 C24.021,13.926 24.033,13.935 24.045,13.944 C24.045,13.950 24.045,13.956 24.045,13.961 C24.057,13.970 24.069,13.979 24.080,13.988 C24.080,13.994 24.080,13.999 24.080,14.005 C24.089,14.011 24.098,14.017 24.107,14.023 C24.110,14.031 24.113,14.040 24.116,14.049 C24.122,14.052 24.128,14.055 24.134,14.058 C24.134,14.064 24.134,14.069 24.134,14.075 C24.140,14.078 24.146,14.081 24.152,14.084 C24.152,14.090 24.152,14.096 24.152,14.102 C24.161,14.107 24.170,14.113 24.179,14.119 C24.179,14.125 24.179,14.131 24.179,14.137 C24.185,14.139 24.191,14.142 24.196,14.145 C24.196,14.151 24.196,14.157 24.196,14.163 C24.202,14.166 24.208,14.169 24.214,14.172 C24.214,14.177 24.214,14.183 24.214,14.189 C24.220,14.192 24.226,14.195 24.232,14.198 C24.232,14.204 24.232,14.210 24.232,14.215 C24.238,14.218 24.244,14.221 24.250,14.224 C24.253,14.236 24.256,14.248 24.259,14.259 C24.262,14.259 24.265,14.259 24.268,14.259 C24.271,14.268 24.274,14.277 24.277,14.285 C24.283,14.288 24.289,14.291 24.295,14.294 C24.298,14.306 24.301,14.318 24.304,14.329 C24.310,14.332 24.316,14.335 24.321,14.338 C24.324,14.350 24.327,14.361 24.330,14.373 C24.336,14.376 24.342,14.379 24.348,14.382 C24.354,14.399 24.360,14.417 24.366,14.434 C24.372,14.437 24.378,14.440 24.384,14.443 C24.387,14.455 24.390,14.466 24.393,14.478 C24.396,14.478 24.399,14.478 24.402,14.478 C24.402,14.484 24.402,14.490 24.402,14.496 C24.405,14.496 24.408,14.496 24.411,14.496 C24.411,14.502 24.411,14.507 24.411,14.513 C24.414,14.513 24.417,14.513 24.420,14.513 C24.420,14.519 24.420,14.525 24.420,14.531 C24.423,14.531 24.426,14.531 24.429,14.531 C24.429,14.537 24.429,14.542 24.429,14.548 C24.432,14.548 24.435,14.548 24.438,14.548 C24.438,14.554 24.438,14.560 24.438,14.566 C24.441,14.566 24.443,14.566 24.446,14.566 C24.449,14.577 24.452,14.589 24.455,14.601 C24.458,14.601 24.461,14.601 24.464,14.601 C24.464,14.607 24.464,14.612 24.464,14.618 C24.467,14.618 24.470,14.618 24.473,14.618 C24.473,14.624 24.473,14.630 24.473,14.636 C24.476,14.636 24.479,14.636 24.482,14.636 C24.482,14.642 24.482,14.647 24.482,14.653 C24.485,14.653 24.488,14.653 24.491,14.653 C24.491,14.659 24.491,14.665 24.491,14.671 C24.494,14.671 24.497,14.671 24.500,14.671 C24.500,14.677 24.500,14.683 24.500,14.688 C24.503,14.688 24.506,14.688 24.509,14.688 C24.512,14.700 24.515,14.712 24.518,14.723 C24.521,14.723 24.524,14.723 24.527,14.723 C24.527,14.729 24.527,14.735 24.527,14.741 C24.530,14.741 24.533,14.741 24.536,14.741 C24.536,14.750 24.536,14.758 24.536,14.767 C24.539,14.767 24.542,14.767 24.545,14.767 C24.548,14.779 24.551,14.791 24.554,14.802 C24.557,14.802 24.560,14.802 24.563,14.802 C24.563,14.811 24.563,14.820 24.563,14.828 C24.566,14.828 24.568,14.828 24.571,14.828 C24.574,14.840 24.577,14.852 24.580,14.864 C24.583,14.864 24.586,14.864 24.589,14.864 C24.589,14.872 24.589,14.881 24.589,14.890 C24.592,14.890 24.595,14.890 24.598,14.890 C24.598,14.896 24.598,14.901 24.598,14.907 C24.601,14.907 24.604,14.907 24.607,14.907 C24.610,14.922 24.613,14.937 24.616,14.951 C24.619,14.951 24.622,14.951 24.625,14.951 C24.628,14.969 24.631,14.986 24.634,15.004 C24.637,15.004 24.640,15.004 24.643,15.004 C24.643,15.009 24.643,15.015 24.643,15.021 C24.646,15.021 24.649,15.021 24.652,15.021 C24.658,15.047 24.664,15.074 24.670,15.100 C24.673,15.100 24.676,15.100 24.679,15.100 C24.679,15.106 24.679,15.112 24.679,15.118 C24.682,15.118 24.685,15.118 24.688,15.118 C24.688,15.126 24.688,15.135 24.688,15.144 C24.691,15.144 24.693,15.144 24.696,15.144 C24.696,15.153 24.696,15.161 24.696,15.170 C24.699,15.170 24.702,15.170 24.705,15.170 C24.705,15.179 24.705,15.188 24.705,15.196 C24.708,15.196 24.711,15.196 24.714,15.196 C24.714,15.205 24.714,15.214 24.714,15.223 C24.717,15.223 24.720,15.223 24.723,15.223 C24.723,15.234 24.723,15.246 24.723,15.258 C24.726,15.258 24.729,15.258 24.732,15.258 C24.732,15.266 24.732,15.275 24.732,15.284 C24.735,15.284 24.738,15.284 24.741,15.284 C24.741,15.293 24.741,15.301 24.741,15.310 C24.744,15.310 24.747,15.310 24.750,15.310 C24.756,15.339 24.762,15.369 24.768,15.398 C24.771,15.398 24.774,15.398 24.777,15.398 C24.783,15.433 24.789,15.468 24.795,15.503 C24.798,15.503 24.801,15.503 24.804,15.503 C24.804,15.512 24.804,15.520 24.804,15.529 C24.807,15.529 24.810,15.529 24.813,15.529 C24.813,15.541 24.813,15.553 24.813,15.564 C24.815,15.564 24.818,15.564 24.821,15.564 C24.821,15.579 24.821,15.593 24.821,15.608 C24.824,15.608 24.827,15.608 24.830,15.608 C24.830,15.620 24.830,15.631 24.830,15.643 C24.833,15.643 24.836,15.643 24.839,15.643 C24.839,15.655 24.839,15.666 24.839,15.678 C24.842,15.678 24.845,15.678 24.848,15.678 C24.854,15.719 24.860,15.760 24.866,15.801 C24.869,15.801 24.872,15.801 24.875,15.801 C24.875,15.818 24.875,15.836 24.875,15.853 C24.893,15.910 24.902,15.988 24.920,16.046 C24.920,16.066 24.920,16.087 24.920,16.107 C24.923,16.107 24.926,16.107 24.929,16.107 C24.932,16.148 24.935,16.189 24.938,16.230 C24.940,16.230 24.943,16.230 24.946,16.230 C24.949,16.279 24.952,16.329 24.955,16.379 C24.958,16.379 24.961,16.379 24.964,16.379 C24.964,16.408 24.964,16.437 24.964,16.466 C24.967,16.466 24.970,16.466 24.973,16.466 C24.973,16.501 24.973,16.536 24.973,16.571 C24.976,16.571 24.979,16.571 24.982,16.571 C24.982,16.612 24.982,16.653 24.982,16.694 C24.985,16.694 24.988,16.694 24.991,16.694 C24.991,16.752 24.991,16.811 24.991,16.869 C24.994,16.869 24.997,16.869 25.000,16.869 C25.000,17.015 25.000,17.161 25.000,17.307 C25.000,17.617 25.000,17.926 25.000,18.235 C25.000,19.823 25.000,21.412 25.000,23.000 C23.857,23.000 22.714,23.000 21.572,23.000 C21.572,21.508 21.572,20.016 21.572,18.524 ZM17.947,14.329 C17.947,14.335 17.947,14.341 17.947,14.347 C17.950,14.347 17.953,14.347 17.956,14.347 C17.951,14.329 17.957,14.339 17.947,14.329 ZM12.831,10.108 C12.828,10.108 12.825,10.108 12.822,10.108 C12.822,10.122 12.822,10.137 12.822,10.152 C12.820,10.152 12.817,10.152 12.814,10.152 C12.814,10.163 12.814,10.175 12.814,10.187 C12.811,10.187 12.808,10.187 12.805,10.187 C12.805,10.198 12.805,10.210 12.805,10.222 C12.802,10.222 12.799,10.222 12.796,10.222 C12.796,10.233 12.796,10.245 12.796,10.257 C12.793,10.257 12.790,10.257 12.787,10.257 C12.787,10.265 12.787,10.274 12.787,10.283 C12.784,10.283 12.781,10.283 12.778,10.283 C12.778,10.292 12.778,10.300 12.778,10.309 C12.775,10.309 12.772,10.309 12.769,10.309 C12.769,10.318 12.769,10.327 12.769,10.335 C12.766,10.335 12.763,10.335 12.760,10.335 C12.760,10.344 12.760,10.353 12.760,10.362 C12.757,10.362 12.754,10.362 12.751,10.362 C12.751,10.370 12.751,10.379 12.751,10.388 C12.748,10.388 12.745,10.388 12.742,10.388 C12.742,10.394 12.742,10.400 12.742,10.406 C12.739,10.406 12.736,10.406 12.733,10.406 C12.733,10.414 12.733,10.423 12.733,10.432 C12.730,10.432 12.727,10.432 12.724,10.432 C12.724,10.438 12.724,10.443 12.724,10.449 C12.721,10.449 12.718,10.449 12.715,10.449 C12.715,10.458 12.715,10.467 12.715,10.476 C12.712,10.476 12.709,10.476 12.706,10.476 C12.700,10.493 12.695,10.511 12.689,10.528 C12.686,10.528 12.683,10.528 12.680,10.528 C12.680,10.534 12.680,10.540 12.680,10.546 C12.677,10.546 12.674,10.546 12.671,10.546 C12.671,10.551 12.671,10.557 12.671,10.563 C12.668,10.563 12.665,10.563 12.662,10.563 C12.662,10.569 12.662,10.575 12.662,10.581 C12.659,10.581 12.656,10.581 12.653,10.581 C12.653,10.587 12.653,10.592 12.653,10.598 C12.650,10.598 12.647,10.598 12.644,10.598 C12.644,10.604 12.644,10.610 12.644,10.616 C12.638,10.619 12.632,10.622 12.626,10.624 C12.623,10.636 12.620,10.648 12.617,10.660 C12.611,10.662 12.605,10.665 12.599,10.668 C12.596,10.680 12.593,10.692 12.590,10.703 C12.587,10.703 12.584,10.703 12.581,10.703 C12.578,10.712 12.575,10.721 12.573,10.730 C12.567,10.733 12.561,10.735 12.555,10.738 C12.555,10.744 12.555,10.750 12.555,10.756 C12.546,10.762 12.537,10.768 12.528,10.773 C12.528,10.779 12.528,10.785 12.528,10.791 C12.522,10.794 12.516,10.797 12.510,10.800 C12.507,10.808 12.504,10.817 12.501,10.826 C12.489,10.835 12.477,10.843 12.465,10.852 C12.465,10.858 12.465,10.864 12.465,10.870 C12.427,10.905 12.388,10.940 12.349,10.975 C12.323,11.004 12.296,11.033 12.269,11.062 C12.263,11.062 12.257,11.062 12.251,11.062 C12.239,11.077 12.227,11.092 12.215,11.106 C12.209,11.106 12.203,11.106 12.198,11.106 C12.192,11.115 12.186,11.124 12.180,11.132 C12.174,11.132 12.168,11.132 12.162,11.132 C12.159,11.138 12.156,11.144 12.153,11.150 C12.147,11.150 12.141,11.150 12.135,11.150 C12.129,11.159 12.123,11.168 12.117,11.176 C12.111,11.176 12.105,11.176 12.099,11.176 C12.096,11.182 12.093,11.188 12.090,11.194 C12.079,11.197 12.067,11.200 12.055,11.203 C12.052,11.208 12.049,11.214 12.046,11.220 C12.034,11.223 12.022,11.226 12.010,11.229 C12.007,11.235 12.004,11.240 12.001,11.246 C11.995,11.246 11.989,11.246 11.983,11.246 C11.983,11.249 11.983,11.252 11.983,11.255 C11.977,11.255 11.971,11.255 11.965,11.255 C11.965,11.258 11.965,11.261 11.965,11.264 C11.959,11.264 11.954,11.264 11.948,11.264 C11.948,11.267 11.948,11.270 11.948,11.273 C11.942,11.273 11.936,11.273 11.930,11.273 C11.930,11.276 11.930,11.278 11.930,11.281 C11.924,11.281 11.918,11.281 11.912,11.281 C11.912,11.284 11.912,11.287 11.912,11.290 C11.906,11.290 11.900,11.290 11.894,11.290 C11.894,11.293 11.894,11.296 11.894,11.299 C11.888,11.299 11.882,11.299 11.876,11.299 C11.876,11.302 11.876,11.305 11.876,11.308 C11.858,11.313 11.840,11.319 11.823,11.325 C11.823,11.328 11.823,11.331 11.823,11.334 C11.814,11.334 11.805,11.334 11.796,11.334 C11.796,11.337 11.796,11.340 11.796,11.343 C11.784,11.346 11.772,11.349 11.760,11.351 C11.760,11.354 11.760,11.357 11.760,11.360 C11.733,11.366 11.707,11.372 11.680,11.378 C11.680,11.381 11.680,11.384 11.680,11.386 C11.671,11.386 11.662,11.386 11.653,11.386 C11.653,11.389 11.653,11.392 11.653,11.395 C11.644,11.395 11.635,11.395 11.626,11.395 C11.626,11.398 11.626,11.401 11.626,11.404 C11.617,11.404 11.608,11.404 11.599,11.404 C11.599,11.407 11.599,11.410 11.599,11.413 C11.590,11.413 11.582,11.413 11.573,11.413 C11.573,11.416 11.573,11.419 11.573,11.421 C11.561,11.421 11.549,11.421 11.537,11.421 C11.537,11.424 11.537,11.427 11.537,11.430 C11.525,11.430 11.513,11.430 11.501,11.430 C11.501,11.433 11.501,11.436 11.501,11.439 C11.489,11.439 11.477,11.439 11.465,11.439 C11.465,11.442 11.465,11.445 11.465,11.448 C11.454,11.448 11.442,11.448 11.430,11.448 C11.430,11.451 11.430,11.454 11.430,11.457 C11.415,11.457 11.400,11.457 11.385,11.457 C11.385,11.459 11.385,11.462 11.385,11.465 C11.370,11.465 11.355,11.465 11.340,11.465 C11.340,11.468 11.340,11.471 11.340,11.474 C11.269,11.480 11.198,11.486 11.126,11.492 C11.064,11.508 10.962,11.500 10.885,11.500 C10.675,11.500 10.489,11.482 10.332,11.430 C10.320,11.430 10.308,11.430 10.296,11.430 C10.296,11.427 10.296,11.424 10.296,11.421 C10.287,11.421 10.278,11.421 10.269,11.421 C10.269,11.419 10.269,11.416 10.269,11.413 C10.260,11.413 10.251,11.413 10.242,11.413 C10.242,11.410 10.242,11.407 10.242,11.404 C10.230,11.404 10.219,11.404 10.207,11.404 C10.207,11.401 10.207,11.398 10.207,11.395 C10.198,11.395 10.189,11.395 10.180,11.395 C10.180,11.392 10.180,11.389 10.180,11.386 C10.174,11.386 10.168,11.386 10.162,11.386 C10.162,11.384 10.162,11.381 10.162,11.378 C10.144,11.375 10.126,11.372 10.108,11.369 C10.108,11.366 10.108,11.363 10.108,11.360 C10.102,11.360 10.097,11.360 10.091,11.360 C10.091,11.357 10.091,11.354 10.091,11.351 C10.082,11.351 10.073,11.351 10.064,11.351 C10.064,11.349 10.064,11.346 10.064,11.343 C10.052,11.340 10.040,11.337 10.028,11.334 C10.028,11.331 10.028,11.328 10.028,11.325 C10.019,11.325 10.010,11.325 10.001,11.325 C10.001,11.322 10.001,11.319 10.001,11.316 C9.983,11.311 9.966,11.305 9.948,11.299 C9.948,11.296 9.948,11.293 9.948,11.290 C9.942,11.290 9.936,11.290 9.930,11.290 C9.930,11.287 9.930,11.284 9.930,11.281 C9.918,11.278 9.906,11.276 9.894,11.273 C9.891,11.267 9.888,11.261 9.885,11.255 C9.867,11.249 9.850,11.243 9.832,11.238 C9.832,11.235 9.832,11.232 9.832,11.229 C9.823,11.226 9.814,11.223 9.805,11.220 C9.802,11.214 9.799,11.208 9.796,11.203 C9.790,11.203 9.784,11.203 9.778,11.203 C9.775,11.197 9.772,11.191 9.769,11.185 C9.763,11.185 9.757,11.185 9.751,11.185 C9.751,11.182 9.751,11.179 9.751,11.176 C9.742,11.173 9.733,11.170 9.725,11.168 C9.722,11.162 9.719,11.156 9.716,11.150 C9.710,11.150 9.704,11.150 9.698,11.150 C9.692,11.141 9.686,11.132 9.680,11.124 C9.674,11.124 9.668,11.124 9.662,11.124 C9.656,11.115 9.650,11.106 9.644,11.097 C9.635,11.095 9.626,11.092 9.617,11.089 C9.603,11.071 9.588,11.054 9.573,11.036 C9.567,11.036 9.561,11.036 9.555,11.036 C9.531,11.010 9.507,10.984 9.483,10.957 C9.472,10.949 9.460,10.940 9.448,10.931 C9.448,10.925 9.448,10.919 9.448,10.914 C9.427,10.896 9.406,10.878 9.385,10.861 C9.385,10.855 9.385,10.849 9.385,10.843 C9.376,10.838 9.367,10.832 9.359,10.826 C9.359,10.820 9.359,10.814 9.359,10.808 C9.350,10.803 9.341,10.797 9.332,10.791 C9.332,10.785 9.332,10.779 9.332,10.773 C9.323,10.768 9.314,10.762 9.305,10.756 C9.305,10.750 9.305,10.744 9.305,10.738 C9.299,10.735 9.293,10.733 9.287,10.730 C9.287,10.724 9.287,10.718 9.287,10.712 C9.281,10.709 9.275,10.706 9.269,10.703 C9.266,10.692 9.263,10.680 9.260,10.668 C9.254,10.665 9.248,10.662 9.242,10.660 C9.239,10.648 9.236,10.636 9.234,10.624 C9.228,10.622 9.222,10.619 9.216,10.616 C9.210,10.598 9.204,10.581 9.198,10.563 C9.195,10.563 9.192,10.563 9.189,10.563 C9.189,10.557 9.189,10.551 9.189,10.546 C9.186,10.546 9.183,10.546 9.180,10.546 C9.174,10.528 9.168,10.511 9.162,10.493 C9.159,10.493 9.156,10.493 9.153,10.493 C9.150,10.479 9.147,10.464 9.144,10.449 C9.141,10.449 9.138,10.449 9.135,10.449 C9.135,10.443 9.135,10.438 9.135,10.432 C9.132,10.432 9.129,10.432 9.126,10.432 C9.123,10.414 9.120,10.397 9.117,10.379 C9.114,10.379 9.112,10.379 9.109,10.379 C9.109,10.373 9.109,10.368 9.109,10.362 C9.106,10.362 9.103,10.362 9.100,10.362 C9.097,10.344 9.094,10.327 9.091,10.309 C9.088,10.309 9.085,10.309 9.082,10.309 C9.082,10.298 9.082,10.286 9.082,10.274 C9.034,10.140 9.001,9.982 9.001,9.801 C9.001,9.734 8.995,9.644 9.010,9.591 C9.013,9.544 9.016,9.498 9.019,9.451 C9.022,9.451 9.025,9.451 9.028,9.451 C9.034,9.407 9.040,9.363 9.046,9.319 C9.049,9.319 9.052,9.319 9.055,9.319 C9.055,9.308 9.055,9.296 9.055,9.284 C9.058,9.284 9.061,9.284 9.064,9.284 C9.067,9.264 9.070,9.244 9.073,9.223 C9.076,9.223 9.079,9.223 9.082,9.223 C9.082,9.214 9.082,9.206 9.082,9.197 C9.085,9.197 9.088,9.197 9.091,9.197 C9.091,9.188 9.091,9.179 9.091,9.171 C9.094,9.171 9.097,9.171 9.100,9.171 C9.103,9.153 9.106,9.136 9.109,9.118 C9.112,9.118 9.114,9.118 9.117,9.118 C9.117,9.112 9.117,9.106 9.117,9.101 C9.120,9.101 9.123,9.101 9.126,9.101 C9.126,9.092 9.126,9.083 9.126,9.074 C9.333,8.617 9.656,8.337 10.126,8.137 C10.144,8.134 10.162,8.131 10.180,8.128 C10.180,8.125 10.180,8.123 10.180,8.120 C10.189,8.120 10.198,8.120 10.207,8.120 C10.207,8.117 10.207,8.114 10.207,8.111 C10.216,8.111 10.225,8.111 10.233,8.111 C10.233,8.108 10.233,8.105 10.233,8.102 C10.242,8.102 10.251,8.102 10.260,8.102 C10.260,8.099 10.260,8.096 10.260,8.093 C10.269,8.093 10.278,8.093 10.287,8.093 C10.287,8.090 10.287,8.087 10.287,8.085 C10.299,8.085 10.311,8.085 10.323,8.085 C10.367,8.070 10.428,8.055 10.474,8.041 C10.492,8.041 10.510,8.041 10.528,8.041 C10.528,8.038 10.528,8.035 10.528,8.032 C10.546,8.032 10.564,8.032 10.582,8.032 C10.582,8.029 10.582,8.026 10.582,8.023 C10.602,8.023 10.623,8.023 10.644,8.023 C10.644,8.020 10.644,8.017 10.644,8.015 C10.676,8.006 10.713,8.023 10.733,8.006 C10.847,8.004 11.052,7.989 11.144,8.015 C11.198,8.017 11.251,8.020 11.305,8.023 C11.347,8.035 11.407,8.046 11.448,8.058 C11.462,8.058 11.477,8.058 11.492,8.058 C11.559,8.079 11.635,8.104 11.698,8.128 C11.715,8.131 11.733,8.134 11.751,8.137 C11.751,8.140 11.751,8.143 11.751,8.146 C11.757,8.146 11.763,8.146 11.769,8.146 C11.769,8.149 11.769,8.152 11.769,8.155 C11.778,8.155 11.787,8.155 11.796,8.155 C12.160,8.314 12.423,8.547 12.626,8.864 C12.626,8.870 12.626,8.876 12.626,8.882 C12.629,8.882 12.632,8.882 12.635,8.882 C12.635,8.887 12.635,8.893 12.635,8.899 C12.638,8.899 12.641,8.899 12.644,8.899 C12.644,8.905 12.644,8.911 12.644,8.917 C12.647,8.917 12.650,8.917 12.653,8.917 C12.653,8.922 12.653,8.928 12.653,8.934 C12.656,8.934 12.659,8.934 12.662,8.934 C12.662,8.940 12.662,8.946 12.662,8.952 C12.665,8.952 12.668,8.952 12.671,8.952 C12.671,8.957 12.671,8.963 12.671,8.969 C12.674,8.969 12.677,8.969 12.680,8.969 C12.686,8.987 12.692,9.004 12.697,9.022 C12.700,9.022 12.703,9.022 12.706,9.022 C12.706,9.030 12.706,9.039 12.706,9.048 C12.709,9.048 12.712,9.048 12.715,9.048 C12.718,9.060 12.721,9.071 12.724,9.083 C12.727,9.083 12.730,9.083 12.733,9.083 C12.736,9.101 12.739,9.118 12.742,9.136 C12.745,9.136 12.748,9.136 12.751,9.136 C12.751,9.144 12.751,9.153 12.751,9.162 C12.754,9.162 12.757,9.162 12.760,9.162 C12.760,9.171 12.760,9.179 12.760,9.188 C12.763,9.188 12.766,9.188 12.769,9.188 C12.769,9.197 12.769,9.206 12.769,9.214 C12.772,9.214 12.775,9.214 12.778,9.214 C12.778,9.223 12.778,9.232 12.778,9.241 C12.781,9.241 12.784,9.241 12.787,9.241 C12.787,9.249 12.787,9.258 12.787,9.267 C12.790,9.267 12.793,9.267 12.796,9.267 C12.796,9.279 12.796,9.290 12.796,9.302 C12.799,9.302 12.802,9.302 12.805,9.302 C12.805,9.314 12.805,9.325 12.805,9.337 C12.808,9.337 12.811,9.337 12.814,9.337 C12.814,9.352 12.814,9.366 12.814,9.381 C12.817,9.381 12.820,9.381 12.822,9.381 C12.822,9.395 12.822,9.410 12.822,9.425 C12.825,9.425 12.828,9.425 12.831,9.425 C12.837,9.486 12.843,9.547 12.849,9.609 C12.852,9.609 12.855,9.609 12.858,9.609 C12.858,9.638 12.858,9.667 12.858,9.696 C12.858,9.769 12.866,9.866 12.849,9.924 C12.843,9.985 12.837,10.046 12.831,10.108 ZM12.635,23.000 C11.492,23.000 10.349,23.000 9.207,23.000 C9.207,19.628 9.207,16.256 9.207,12.884 C10.349,12.884 11.492,12.884 12.635,12.884 C12.635,16.256 12.635,19.628 12.635,23.000 Z"/>
</svg>