<svg 
 xmlns="http://www.w3.org/2000/svg"
 xmlns:xlink="http://www.w3.org/1999/xlink"
 width="33px" height="33px">
<path fill-rule="evenodd"  fill="rgb(144, 143, 150)"
 d="M16.500,33.000 C7.402,33.000 -0.000,25.598 -0.000,16.500 C-0.000,7.402 7.402,-0.000 16.500,-0.000 C25.598,-0.000 33.000,7.402 33.000,16.500 C33.000,25.598 25.598,33.000 16.500,33.000 ZM16.500,1.320 C8.130,1.320 1.320,8.130 1.320,16.500 C1.320,24.870 8.130,31.680 16.500,31.680 C24.870,31.680 31.680,24.870 31.680,16.500 C31.680,8.130 24.870,1.320 16.500,1.320 ZM23.965,14.474 C23.965,14.546 23.965,14.619 23.965,14.691 C23.959,14.691 23.954,14.691 23.949,14.691 C23.944,14.794 23.938,14.897 23.933,15.000 C23.928,15.000 23.923,15.000 23.917,15.000 C23.917,15.047 23.917,15.093 23.917,15.140 C23.871,15.296 23.869,15.498 23.823,15.650 C23.823,15.681 23.823,15.712 23.823,15.743 C23.818,15.743 23.812,15.743 23.807,15.743 C23.807,15.769 23.807,15.795 23.807,15.821 C23.802,15.821 23.797,15.821 23.792,15.821 C23.792,15.846 23.792,15.872 23.792,15.898 C23.786,15.898 23.781,15.898 23.776,15.898 C23.776,15.924 23.776,15.949 23.776,15.975 C23.771,15.975 23.765,15.975 23.760,15.975 C23.760,16.001 23.760,16.027 23.760,16.053 C23.755,16.053 23.750,16.053 23.744,16.053 C23.739,16.099 23.734,16.146 23.729,16.192 C23.723,16.192 23.718,16.192 23.713,16.192 C23.713,16.213 23.713,16.233 23.713,16.254 C23.708,16.254 23.702,16.254 23.697,16.254 C23.697,16.274 23.697,16.295 23.697,16.316 C23.692,16.316 23.687,16.316 23.681,16.316 C23.681,16.336 23.681,16.357 23.681,16.378 C23.676,16.378 23.671,16.378 23.666,16.378 C23.666,16.398 23.666,16.419 23.666,16.440 C23.660,16.440 23.655,16.440 23.650,16.440 C23.645,16.481 23.639,16.522 23.634,16.563 C23.629,16.563 23.624,16.563 23.618,16.563 C23.613,16.599 23.608,16.636 23.603,16.672 C23.597,16.672 23.592,16.672 23.587,16.672 C23.582,16.708 23.576,16.744 23.571,16.780 C23.566,16.780 23.561,16.780 23.555,16.780 C23.545,16.832 23.535,16.883 23.524,16.935 C23.519,16.935 23.514,16.935 23.508,16.935 C23.508,16.950 23.508,16.966 23.508,16.981 C23.503,16.981 23.498,16.981 23.493,16.981 C23.493,16.997 23.493,17.012 23.493,17.028 C23.487,17.028 23.482,17.028 23.477,17.028 C23.477,17.043 23.477,17.059 23.477,17.074 C23.472,17.074 23.466,17.074 23.461,17.074 C23.451,17.120 23.440,17.167 23.430,17.213 C23.424,17.213 23.419,17.213 23.414,17.213 C23.414,17.224 23.414,17.234 23.414,17.244 C23.409,17.244 23.403,17.244 23.398,17.244 C23.388,17.291 23.377,17.337 23.367,17.383 C23.194,17.771 23.035,18.172 22.816,18.513 C22.805,18.544 22.795,18.575 22.784,18.606 C22.774,18.611 22.763,18.616 22.753,18.621 C22.753,18.632 22.753,18.642 22.753,18.652 C22.748,18.652 22.743,18.652 22.737,18.652 C22.737,18.663 22.737,18.673 22.737,18.683 C22.727,18.689 22.716,18.694 22.706,18.699 C22.701,18.719 22.695,18.740 22.690,18.761 C22.680,18.766 22.669,18.771 22.659,18.776 C22.659,18.787 22.659,18.797 22.659,18.807 C22.653,18.807 22.648,18.807 22.643,18.807 C22.643,18.817 22.643,18.828 22.643,18.838 C22.632,18.843 22.622,18.848 22.611,18.854 C22.611,18.864 22.611,18.874 22.611,18.885 C22.606,18.885 22.601,18.885 22.596,18.885 C22.590,18.900 22.585,18.915 22.580,18.931 C22.569,18.936 22.559,18.941 22.548,18.946 C22.548,18.957 22.548,18.967 22.548,18.977 C22.538,18.983 22.527,18.988 22.517,18.993 C22.517,19.003 22.517,19.013 22.517,19.024 C22.506,19.029 22.496,19.034 22.486,19.039 C22.486,19.050 22.486,19.060 22.486,19.070 C22.480,19.070 22.475,19.070 22.470,19.070 C22.465,19.086 22.459,19.101 22.454,19.117 C22.444,19.122 22.433,19.127 22.423,19.132 C22.423,19.142 22.423,19.153 22.423,19.163 C22.412,19.168 22.402,19.173 22.391,19.179 C22.386,19.194 22.381,19.209 22.375,19.225 C22.360,19.235 22.344,19.246 22.328,19.256 C22.328,19.266 22.328,19.277 22.328,19.287 C22.318,19.292 22.307,19.297 22.297,19.302 C22.297,19.313 22.297,19.323 22.297,19.333 C22.276,19.349 22.255,19.364 22.234,19.380 C22.234,19.390 22.234,19.400 22.234,19.411 C22.218,19.421 22.202,19.431 22.187,19.442 C22.187,19.452 22.187,19.462 22.187,19.473 C22.166,19.488 22.145,19.504 22.124,19.519 C22.124,19.529 22.124,19.540 22.124,19.550 C22.092,19.576 22.061,19.602 22.029,19.627 C22.029,19.638 22.029,19.648 22.029,19.658 C21.998,19.684 21.966,19.710 21.935,19.736 C21.842,19.862 21.730,19.953 21.620,20.061 C21.562,20.122 21.505,20.184 21.447,20.246 C21.437,20.246 21.426,20.246 21.416,20.246 C21.384,20.282 21.353,20.319 21.321,20.355 C21.311,20.355 21.300,20.355 21.290,20.355 C21.284,20.365 21.279,20.375 21.274,20.386 C21.269,20.386 21.263,20.386 21.258,20.386 C21.248,20.401 21.237,20.417 21.227,20.432 C21.216,20.432 21.206,20.432 21.195,20.432 C21.180,20.453 21.164,20.473 21.148,20.494 C21.138,20.494 21.127,20.494 21.117,20.494 C21.111,20.504 21.106,20.515 21.101,20.525 C21.085,20.530 21.069,20.535 21.054,20.540 C21.038,20.561 21.022,20.582 21.006,20.602 C20.996,20.602 20.985,20.602 20.975,20.602 C20.970,20.613 20.964,20.623 20.959,20.633 C20.949,20.633 20.938,20.633 20.928,20.633 C20.917,20.649 20.907,20.664 20.896,20.680 C20.886,20.680 20.875,20.680 20.865,20.680 C20.860,20.690 20.854,20.700 20.849,20.711 C20.833,20.716 20.818,20.721 20.802,20.726 C20.802,20.731 20.802,20.736 20.802,20.741 C20.791,20.741 20.781,20.741 20.770,20.741 C20.765,20.752 20.760,20.762 20.755,20.772 C20.744,20.772 20.734,20.772 20.723,20.772 C20.718,20.783 20.713,20.793 20.707,20.803 C20.697,20.803 20.686,20.803 20.676,20.803 C20.671,20.814 20.665,20.824 20.660,20.834 C20.650,20.834 20.639,20.834 20.629,20.834 C20.624,20.845 20.618,20.855 20.613,20.865 C20.592,20.870 20.571,20.876 20.550,20.881 C20.545,20.891 20.540,20.901 20.534,20.912 C20.513,20.917 20.492,20.922 20.471,20.927 C20.466,20.937 20.461,20.948 20.456,20.958 C20.424,20.968 20.393,20.979 20.361,20.989 C20.356,20.999 20.351,21.010 20.346,21.020 C20.335,21.020 20.325,21.020 20.314,21.020 C20.314,21.025 20.314,21.030 20.314,21.035 C20.304,21.035 20.293,21.035 20.283,21.035 C20.283,21.041 20.283,21.046 20.283,21.051 C20.272,21.051 20.262,21.051 20.251,21.051 C20.251,21.056 20.251,21.061 20.251,21.066 C20.241,21.066 20.230,21.066 20.220,21.066 C20.220,21.072 20.220,21.077 20.220,21.082 C20.209,21.082 20.199,21.082 20.188,21.082 C20.188,21.087 20.188,21.092 20.188,21.097 C20.178,21.097 20.167,21.097 20.157,21.097 C20.157,21.103 20.157,21.108 20.157,21.113 C20.146,21.113 20.136,21.113 20.125,21.113 C20.125,21.118 20.125,21.123 20.125,21.128 C20.115,21.128 20.104,21.128 20.094,21.128 C20.094,21.133 20.094,21.139 20.094,21.144 C20.083,21.144 20.073,21.144 20.062,21.144 C20.062,21.149 20.062,21.154 20.062,21.159 C20.052,21.159 20.041,21.159 20.031,21.159 C20.031,21.164 20.031,21.170 20.031,21.175 C19.999,21.185 19.968,21.195 19.936,21.206 C19.936,21.211 19.936,21.216 19.936,21.221 C19.921,21.221 19.905,21.221 19.889,21.221 C19.889,21.226 19.889,21.232 19.889,21.237 C19.868,21.242 19.847,21.247 19.826,21.252 C19.826,21.257 19.826,21.262 19.826,21.268 C19.811,21.268 19.795,21.268 19.779,21.268 C19.779,21.273 19.779,21.278 19.779,21.283 C19.769,21.283 19.758,21.283 19.748,21.283 C19.748,21.288 19.748,21.293 19.748,21.299 C19.732,21.299 19.716,21.299 19.700,21.299 C19.700,21.304 19.700,21.309 19.700,21.314 C19.690,21.314 19.679,21.314 19.669,21.314 C19.669,21.319 19.669,21.324 19.669,21.330 C19.653,21.330 19.637,21.330 19.622,21.330 C19.622,21.335 19.622,21.340 19.622,21.345 C19.611,21.345 19.601,21.345 19.590,21.345 C19.590,21.350 19.590,21.355 19.590,21.360 C19.559,21.366 19.527,21.371 19.496,21.376 C19.496,21.381 19.496,21.386 19.496,21.391 C19.480,21.391 19.464,21.391 19.449,21.391 C19.449,21.397 19.449,21.402 19.449,21.407 C19.433,21.407 19.417,21.407 19.401,21.407 C19.401,21.412 19.401,21.417 19.401,21.422 C19.386,21.422 19.370,21.422 19.354,21.422 C19.354,21.428 19.354,21.433 19.354,21.438 C19.339,21.438 19.323,21.438 19.307,21.438 C19.307,21.443 19.307,21.448 19.307,21.453 C19.291,21.453 19.276,21.453 19.260,21.453 C19.260,21.458 19.260,21.464 19.260,21.469 C19.244,21.469 19.228,21.469 19.213,21.469 C19.213,21.474 19.213,21.479 19.213,21.484 C19.192,21.484 19.171,21.484 19.150,21.484 C19.150,21.489 19.150,21.495 19.150,21.500 C19.134,21.500 19.118,21.500 19.102,21.500 C19.102,21.505 19.102,21.510 19.102,21.515 C19.082,21.515 19.061,21.515 19.040,21.515 C19.040,21.520 19.040,21.526 19.040,21.531 C19.019,21.531 18.998,21.531 18.977,21.531 C18.977,21.536 18.977,21.541 18.977,21.546 C18.956,21.546 18.935,21.546 18.914,21.546 C18.914,21.551 18.914,21.556 18.914,21.562 C18.893,21.562 18.872,21.562 18.851,21.562 C18.851,21.567 18.851,21.572 18.851,21.577 C18.804,21.582 18.756,21.587 18.709,21.593 C18.709,21.598 18.709,21.603 18.709,21.608 C18.678,21.608 18.646,21.608 18.615,21.608 C18.615,21.613 18.615,21.618 18.615,21.624 C18.588,21.624 18.562,21.624 18.536,21.624 C18.536,21.629 18.536,21.634 18.536,21.639 C18.505,21.639 18.473,21.639 18.442,21.639 C18.442,21.644 18.442,21.649 18.442,21.654 C18.405,21.654 18.368,21.654 18.331,21.654 C18.331,21.660 18.331,21.665 18.331,21.670 C18.290,21.670 18.248,21.670 18.206,21.670 C18.206,21.675 18.206,21.680 18.206,21.685 C18.153,21.685 18.101,21.685 18.048,21.685 C18.048,21.691 18.048,21.696 18.048,21.701 C17.964,21.701 17.880,21.701 17.796,21.701 C17.796,21.706 17.796,21.711 17.796,21.716 C17.723,21.716 17.650,21.716 17.576,21.716 C17.379,21.716 17.166,21.715 17.010,21.670 C16.894,21.654 16.779,21.639 16.664,21.624 C16.664,21.618 16.664,21.613 16.664,21.608 C16.622,21.603 16.580,21.598 16.538,21.593 C16.538,21.587 16.538,21.582 16.538,21.577 C16.501,21.572 16.464,21.567 16.428,21.562 C16.428,21.556 16.428,21.551 16.428,21.546 C16.412,21.546 16.396,21.546 16.380,21.546 C16.380,21.541 16.380,21.536 16.380,21.531 C16.365,21.531 16.349,21.531 16.333,21.531 C16.333,21.526 16.333,21.520 16.333,21.515 C16.317,21.515 16.302,21.515 16.286,21.515 C16.286,21.510 16.286,21.505 16.286,21.500 C16.270,21.500 16.254,21.500 16.239,21.500 C16.239,21.495 16.239,21.489 16.239,21.484 C16.192,21.474 16.144,21.464 16.097,21.453 C16.097,21.448 16.097,21.443 16.097,21.438 C16.087,21.438 16.076,21.438 16.066,21.438 C16.066,21.433 16.066,21.428 16.066,21.422 C16.050,21.422 16.034,21.422 16.018,21.422 C16.018,21.417 16.018,21.412 16.018,21.407 C15.997,21.402 15.976,21.397 15.955,21.391 C15.955,21.386 15.955,21.381 15.955,21.376 C15.940,21.376 15.924,21.376 15.908,21.376 C15.908,21.371 15.908,21.366 15.908,21.360 C15.877,21.350 15.845,21.340 15.814,21.330 C15.814,21.324 15.814,21.319 15.814,21.314 C15.803,21.314 15.793,21.314 15.782,21.314 C15.782,21.309 15.782,21.304 15.782,21.299 C15.772,21.299 15.761,21.299 15.751,21.299 C15.751,21.293 15.751,21.288 15.751,21.283 C15.740,21.283 15.730,21.283 15.719,21.283 C15.719,21.278 15.719,21.273 15.719,21.268 C15.709,21.268 15.698,21.268 15.688,21.268 C15.688,21.262 15.688,21.257 15.688,21.252 C15.678,21.252 15.667,21.252 15.657,21.252 C15.657,21.247 15.657,21.242 15.657,21.237 C15.646,21.237 15.636,21.237 15.625,21.237 C15.625,21.232 15.625,21.226 15.625,21.221 C15.615,21.221 15.604,21.221 15.594,21.221 C15.594,21.216 15.594,21.211 15.594,21.206 C15.583,21.206 15.573,21.206 15.562,21.206 C15.557,21.195 15.552,21.185 15.546,21.175 C15.525,21.170 15.504,21.164 15.483,21.159 C15.478,21.149 15.473,21.139 15.468,21.128 C15.447,21.123 15.426,21.118 15.405,21.113 C15.405,21.108 15.405,21.103 15.405,21.097 C15.389,21.092 15.373,21.087 15.358,21.082 C15.352,21.072 15.347,21.061 15.342,21.051 C15.331,21.051 15.321,21.051 15.310,21.051 C15.305,21.041 15.300,21.030 15.295,21.020 C15.284,21.020 15.274,21.020 15.263,21.020 C15.253,21.005 15.242,20.989 15.232,20.974 C15.221,20.974 15.211,20.974 15.200,20.974 C15.190,20.958 15.179,20.943 15.169,20.927 C15.158,20.927 15.148,20.927 15.137,20.927 C15.122,20.907 15.106,20.886 15.090,20.865 C15.080,20.865 15.069,20.865 15.059,20.865 C15.048,20.850 15.038,20.834 15.027,20.819 C14.985,20.788 14.943,20.757 14.901,20.726 C14.897,20.790 14.871,20.847 14.854,20.896 C14.849,20.937 14.844,20.979 14.838,21.020 C14.833,21.020 14.828,21.020 14.823,21.020 C14.823,21.041 14.823,21.061 14.823,21.082 C14.817,21.082 14.812,21.082 14.807,21.082 C14.807,21.103 14.807,21.123 14.807,21.144 C14.802,21.144 14.796,21.144 14.791,21.144 C14.791,21.164 14.791,21.185 14.791,21.206 C14.786,21.206 14.781,21.206 14.775,21.206 C14.775,21.221 14.775,21.237 14.775,21.252 C14.770,21.252 14.765,21.252 14.760,21.252 C14.760,21.273 14.760,21.293 14.760,21.314 C14.754,21.314 14.749,21.314 14.744,21.314 C14.744,21.335 14.744,21.355 14.744,21.376 C14.739,21.376 14.733,21.376 14.728,21.376 C14.728,21.397 14.728,21.417 14.728,21.438 C14.723,21.438 14.718,21.438 14.712,21.438 C14.712,21.458 14.712,21.479 14.712,21.500 C14.632,21.730 14.587,21.998 14.508,22.227 C14.508,22.248 14.508,22.268 14.508,22.289 C14.503,22.289 14.497,22.289 14.492,22.289 C14.492,22.310 14.492,22.330 14.492,22.351 C14.487,22.351 14.482,22.351 14.476,22.351 C14.476,22.371 14.476,22.392 14.476,22.413 C14.471,22.413 14.466,22.413 14.461,22.413 C14.461,22.433 14.461,22.454 14.461,22.475 C14.384,22.694 14.335,22.955 14.256,23.171 C14.256,23.192 14.256,23.212 14.256,23.233 C14.251,23.233 14.246,23.233 14.240,23.233 C14.240,23.248 14.240,23.264 14.240,23.279 C14.235,23.279 14.230,23.279 14.225,23.279 C14.225,23.300 14.225,23.321 14.225,23.341 C14.219,23.341 14.214,23.341 14.209,23.341 C14.204,23.372 14.198,23.403 14.193,23.434 C14.188,23.434 14.183,23.434 14.177,23.434 C14.177,23.450 14.177,23.465 14.177,23.480 C14.172,23.480 14.167,23.480 14.162,23.480 C14.162,23.496 14.162,23.511 14.162,23.527 C14.156,23.527 14.151,23.527 14.146,23.527 C14.146,23.542 14.146,23.558 14.146,23.573 C14.141,23.573 14.135,23.573 14.130,23.573 C14.130,23.589 14.130,23.604 14.130,23.620 C14.125,23.620 14.120,23.620 14.115,23.620 C14.115,23.635 14.115,23.651 14.115,23.666 C14.109,23.666 14.104,23.666 14.099,23.666 C14.094,23.697 14.088,23.728 14.083,23.759 C14.078,23.759 14.073,23.759 14.067,23.759 C14.062,23.790 14.057,23.821 14.052,23.852 C14.046,23.852 14.041,23.852 14.036,23.852 C14.036,23.867 14.036,23.883 14.036,23.898 C14.031,23.898 14.025,23.898 14.020,23.898 C14.020,23.914 14.020,23.929 14.020,23.945 C14.015,23.945 14.010,23.945 14.004,23.945 C14.004,23.960 14.004,23.976 14.004,23.991 C13.999,23.991 13.994,23.991 13.989,23.991 C13.989,24.007 13.989,24.022 13.989,24.038 C13.983,24.038 13.978,24.038 13.973,24.038 C13.973,24.048 13.973,24.058 13.973,24.069 C13.968,24.069 13.962,24.069 13.957,24.069 C13.952,24.099 13.947,24.130 13.941,24.161 C13.936,24.161 13.931,24.161 13.926,24.161 C13.926,24.172 13.926,24.182 13.926,24.192 C13.920,24.192 13.915,24.192 13.910,24.192 C13.905,24.223 13.899,24.254 13.894,24.285 C13.889,24.285 13.884,24.285 13.878,24.285 C13.878,24.295 13.878,24.306 13.878,24.316 C13.873,24.316 13.868,24.316 13.863,24.316 C13.858,24.347 13.852,24.378 13.847,24.409 C13.842,24.409 13.837,24.409 13.831,24.409 C13.831,24.419 13.831,24.430 13.831,24.440 C13.826,24.440 13.821,24.440 13.816,24.440 C13.816,24.455 13.816,24.471 13.816,24.486 C13.810,24.486 13.805,24.486 13.800,24.486 C13.800,24.497 13.800,24.507 13.800,24.517 C13.795,24.517 13.789,24.517 13.784,24.517 C13.779,24.543 13.774,24.569 13.768,24.595 C13.763,24.595 13.758,24.595 13.753,24.595 C13.753,24.610 13.753,24.626 13.753,24.641 C13.747,24.641 13.742,24.641 13.737,24.641 C13.737,24.651 13.737,24.662 13.737,24.672 C13.732,24.672 13.726,24.672 13.721,24.672 C13.721,24.688 13.721,24.703 13.721,24.718 C13.716,24.718 13.711,24.718 13.705,24.718 C13.700,24.739 13.695,24.760 13.690,24.780 C13.684,24.780 13.679,24.780 13.674,24.780 C13.674,24.796 13.674,24.811 13.674,24.827 C13.669,24.827 13.663,24.827 13.658,24.827 C13.653,24.847 13.648,24.868 13.642,24.889 C13.637,24.889 13.632,24.889 13.627,24.889 C13.627,24.904 13.627,24.920 13.627,24.935 C13.621,24.935 13.616,24.935 13.611,24.935 C13.606,24.956 13.600,24.976 13.595,24.997 C13.590,24.997 13.585,24.997 13.580,24.997 C13.580,25.012 13.580,25.028 13.580,25.043 C13.574,25.043 13.569,25.043 13.564,25.043 C13.564,25.054 13.564,25.064 13.564,25.074 C13.559,25.074 13.553,25.074 13.548,25.074 C13.538,25.105 13.527,25.136 13.517,25.167 C13.511,25.167 13.506,25.167 13.501,25.167 C13.501,25.183 13.501,25.198 13.501,25.214 C13.496,25.214 13.490,25.214 13.485,25.214 C13.485,25.224 13.485,25.234 13.485,25.245 C13.480,25.245 13.475,25.245 13.469,25.245 C13.464,25.265 13.459,25.286 13.454,25.306 C13.448,25.306 13.443,25.306 13.438,25.306 C13.438,25.317 13.438,25.327 13.438,25.337 C13.433,25.337 13.427,25.337 13.422,25.337 C13.422,25.348 13.422,25.358 13.422,25.368 C13.417,25.368 13.412,25.368 13.406,25.368 C13.406,25.379 13.406,25.389 13.406,25.399 C13.401,25.399 13.396,25.399 13.391,25.399 C13.391,25.410 13.391,25.420 13.391,25.430 C13.385,25.430 13.380,25.430 13.375,25.430 C13.375,25.441 13.375,25.451 13.375,25.461 C13.370,25.461 13.364,25.461 13.359,25.461 C13.359,25.472 13.359,25.482 13.359,25.492 C13.354,25.492 13.349,25.492 13.343,25.492 C13.343,25.503 13.343,25.513 13.343,25.523 C13.338,25.523 13.333,25.523 13.328,25.523 C13.328,25.533 13.328,25.544 13.328,25.554 C13.323,25.554 13.317,25.554 13.312,25.554 C13.312,25.564 13.312,25.575 13.312,25.585 C13.307,25.585 13.302,25.585 13.296,25.585 C13.296,25.595 13.296,25.606 13.296,25.616 C13.291,25.616 13.286,25.616 13.281,25.616 C13.281,25.626 13.281,25.637 13.281,25.647 C13.270,25.652 13.260,25.657 13.249,25.662 C13.249,25.673 13.249,25.683 13.249,25.693 C13.244,25.693 13.239,25.693 13.233,25.693 C13.233,25.704 13.233,25.714 13.233,25.724 C13.228,25.724 13.223,25.724 13.218,25.724 C13.218,25.735 13.218,25.745 13.218,25.755 C13.212,25.755 13.207,25.755 13.202,25.755 C13.202,25.766 13.202,25.776 13.202,25.786 C13.191,25.791 13.181,25.797 13.170,25.802 C13.160,25.833 13.149,25.864 13.139,25.895 C13.128,25.900 13.118,25.905 13.107,25.910 C13.107,25.920 13.107,25.931 13.107,25.941 C13.102,25.941 13.097,25.941 13.092,25.941 C13.092,25.951 13.092,25.962 13.092,25.972 C13.086,25.972 13.081,25.972 13.076,25.972 C13.071,25.987 13.066,26.003 13.060,26.018 C13.050,26.023 13.039,26.029 13.029,26.034 C13.024,26.054 13.018,26.075 13.013,26.096 C13.003,26.101 12.992,26.106 12.982,26.111 C12.982,26.121 12.982,26.132 12.982,26.142 C12.971,26.147 12.961,26.152 12.950,26.158 C12.950,26.168 12.950,26.178 12.950,26.189 C12.934,26.199 12.919,26.209 12.903,26.219 C12.903,26.230 12.903,26.240 12.903,26.250 C12.892,26.256 12.882,26.261 12.871,26.266 C12.871,26.276 12.871,26.287 12.871,26.297 C12.861,26.302 12.850,26.307 12.840,26.312 C12.835,26.328 12.829,26.343 12.824,26.359 C12.803,26.374 12.782,26.390 12.761,26.405 C12.761,26.416 12.761,26.426 12.761,26.436 C12.735,26.457 12.709,26.477 12.683,26.498 C12.683,26.508 12.683,26.519 12.683,26.529 C12.588,26.617 12.494,26.704 12.399,26.792 C12.389,26.792 12.378,26.792 12.368,26.792 C12.357,26.808 12.347,26.823 12.336,26.838 C12.326,26.838 12.315,26.838 12.305,26.838 C12.300,26.849 12.294,26.859 12.289,26.869 C12.258,26.880 12.226,26.890 12.195,26.900 C12.195,26.906 12.195,26.911 12.195,26.916 C12.174,26.921 12.153,26.926 12.132,26.931 C12.132,26.936 12.132,26.942 12.132,26.947 C12.080,26.969 11.841,27.018 11.754,26.993 C11.754,26.988 11.754,26.983 11.754,26.978 C11.728,26.978 11.702,26.978 11.676,26.978 C11.676,26.973 11.676,26.967 11.676,26.962 C11.660,26.962 11.644,26.962 11.628,26.962 C11.628,26.957 11.628,26.952 11.628,26.947 C11.607,26.942 11.586,26.936 11.565,26.931 C11.565,26.926 11.565,26.921 11.565,26.916 C11.555,26.916 11.544,26.916 11.534,26.916 C11.529,26.906 11.523,26.895 11.518,26.885 C11.508,26.885 11.497,26.885 11.487,26.885 C11.476,26.869 11.466,26.854 11.455,26.838 C11.424,26.813 11.392,26.787 11.361,26.761 C11.361,26.751 11.361,26.740 11.361,26.730 C11.350,26.725 11.340,26.720 11.329,26.715 C11.329,26.704 11.329,26.694 11.329,26.684 C11.319,26.679 11.308,26.673 11.298,26.668 C11.293,26.648 11.287,26.627 11.282,26.606 C11.277,26.606 11.272,26.606 11.266,26.606 C11.256,26.575 11.245,26.544 11.235,26.514 C11.230,26.514 11.225,26.514 11.219,26.514 C11.219,26.498 11.219,26.483 11.219,26.467 C11.079,26.152 11.031,25.727 11.030,25.276 C11.030,25.078 10.999,24.775 11.046,24.610 C11.046,24.528 11.046,24.445 11.046,24.363 C11.051,24.363 11.057,24.363 11.062,24.363 C11.062,24.295 11.062,24.228 11.062,24.161 C11.067,24.161 11.072,24.161 11.078,24.161 C11.078,24.105 11.078,24.048 11.078,23.991 C11.083,23.991 11.088,23.991 11.093,23.991 C11.093,23.945 11.093,23.898 11.093,23.852 C11.099,23.852 11.104,23.852 11.109,23.852 C11.109,23.805 11.109,23.759 11.109,23.713 C11.152,23.568 11.146,23.375 11.188,23.233 C11.188,23.197 11.188,23.161 11.188,23.125 C11.221,23.014 11.233,22.864 11.266,22.753 C11.266,22.722 11.266,22.691 11.266,22.660 C11.272,22.660 11.277,22.660 11.282,22.660 C11.282,22.635 11.282,22.609 11.282,22.583 C11.287,22.583 11.293,22.583 11.298,22.583 C11.298,22.557 11.298,22.531 11.298,22.506 C11.303,22.506 11.308,22.506 11.314,22.506 C11.314,22.480 11.314,22.454 11.314,22.428 C11.319,22.428 11.324,22.428 11.329,22.428 C11.329,22.402 11.329,22.377 11.329,22.351 C11.403,22.127 11.445,21.862 11.518,21.639 C11.518,21.613 11.518,21.587 11.518,21.562 C11.523,21.562 11.529,21.562 11.534,21.562 C11.534,21.541 11.534,21.520 11.534,21.500 C11.539,21.500 11.544,21.500 11.550,21.500 C11.550,21.479 11.550,21.458 11.550,21.438 C11.555,21.438 11.560,21.438 11.565,21.438 C11.565,21.417 11.565,21.397 11.565,21.376 C11.571,21.376 11.576,21.376 11.581,21.376 C11.581,21.350 11.581,21.324 11.581,21.299 C11.724,20.866 11.786,20.370 11.927,19.937 C11.927,19.911 11.927,19.885 11.927,19.859 C11.933,19.859 11.938,19.859 11.943,19.859 C11.943,19.839 11.943,19.818 11.943,19.798 C11.948,19.798 11.954,19.798 11.959,19.798 C11.959,19.777 11.959,19.756 11.959,19.736 C11.964,19.736 11.969,19.736 11.975,19.736 C11.975,19.715 11.975,19.694 11.975,19.674 C11.980,19.674 11.985,19.674 11.990,19.674 C11.990,19.648 11.990,19.622 11.990,19.596 C12.070,19.354 12.116,19.065 12.195,18.823 C12.195,18.797 12.195,18.771 12.195,18.745 C12.200,18.745 12.205,18.745 12.211,18.745 C12.211,18.725 12.211,18.704 12.211,18.683 C12.216,18.683 12.221,18.683 12.226,18.683 C12.226,18.663 12.226,18.642 12.226,18.621 C12.232,18.621 12.237,18.621 12.242,18.621 C12.242,18.601 12.242,18.580 12.242,18.560 C12.247,18.560 12.253,18.560 12.258,18.560 C12.258,18.534 12.258,18.508 12.258,18.482 C12.331,18.260 12.371,17.992 12.447,17.770 C12.452,17.724 12.457,17.677 12.462,17.631 C12.514,17.473 12.553,17.278 12.604,17.120 C12.604,17.095 12.604,17.069 12.604,17.043 C12.609,17.043 12.614,17.043 12.620,17.043 C12.620,17.022 12.620,17.002 12.620,16.981 C12.625,16.981 12.630,16.981 12.635,16.981 C12.635,16.961 12.635,16.940 12.635,16.919 C12.641,16.919 12.646,16.919 12.651,16.919 C12.651,16.899 12.651,16.878 12.651,16.857 C12.656,16.857 12.662,16.857 12.667,16.857 C12.672,16.811 12.677,16.764 12.683,16.718 C12.688,16.718 12.693,16.718 12.698,16.718 C12.698,16.697 12.698,16.677 12.698,16.656 C12.704,16.656 12.709,16.656 12.714,16.656 C12.714,16.636 12.714,16.615 12.714,16.594 C12.719,16.594 12.725,16.594 12.730,16.594 C12.740,16.527 12.751,16.460 12.761,16.393 C12.767,16.393 12.772,16.393 12.777,16.393 C12.793,16.332 12.744,16.290 12.730,16.254 C12.725,16.228 12.719,16.202 12.714,16.176 C12.709,16.176 12.704,16.176 12.698,16.176 C12.688,16.130 12.677,16.084 12.667,16.037 C12.662,16.037 12.656,16.037 12.651,16.037 C12.651,16.017 12.651,15.996 12.651,15.975 C12.646,15.975 12.641,15.975 12.635,15.975 C12.635,15.960 12.635,15.944 12.635,15.929 C12.630,15.929 12.625,15.929 12.620,15.929 C12.614,15.893 12.609,15.857 12.604,15.821 C12.599,15.821 12.593,15.821 12.588,15.821 C12.583,15.779 12.578,15.738 12.572,15.697 C12.567,15.697 12.562,15.697 12.557,15.697 C12.552,15.650 12.546,15.604 12.541,15.557 C12.536,15.557 12.531,15.557 12.525,15.557 C12.525,15.532 12.525,15.506 12.525,15.480 C12.520,15.480 12.515,15.480 12.510,15.480 C12.510,15.449 12.510,15.418 12.510,15.387 C12.504,15.387 12.499,15.387 12.494,15.387 C12.494,15.356 12.494,15.325 12.494,15.294 C12.489,15.294 12.483,15.294 12.478,15.294 C12.478,15.258 12.478,15.222 12.478,15.186 C12.473,15.186 12.468,15.186 12.462,15.186 C12.462,15.140 12.462,15.093 12.462,15.047 C12.457,15.047 12.452,15.047 12.447,15.047 C12.447,14.980 12.447,14.913 12.447,14.846 C12.441,14.846 12.436,14.846 12.431,14.846 C12.431,14.773 12.431,14.701 12.431,14.629 C12.436,14.454 12.441,14.278 12.447,14.103 C12.452,14.103 12.457,14.103 12.462,14.103 C12.462,14.062 12.462,14.020 12.462,13.979 C12.499,13.799 12.536,13.618 12.572,13.437 C12.578,13.437 12.583,13.437 12.588,13.437 C12.588,13.422 12.588,13.406 12.588,13.391 C12.593,13.391 12.599,13.391 12.604,13.391 C12.604,13.376 12.604,13.360 12.604,13.345 C12.609,13.345 12.614,13.345 12.620,13.345 C12.630,13.293 12.641,13.241 12.651,13.190 C12.656,13.190 12.662,13.190 12.667,13.190 C12.667,13.180 12.667,13.169 12.667,13.159 C12.672,13.159 12.677,13.159 12.683,13.159 C12.688,13.128 12.693,13.097 12.698,13.066 C12.704,13.066 12.709,13.066 12.714,13.066 C12.714,13.056 12.714,13.045 12.714,13.035 C12.719,13.035 12.725,13.035 12.730,13.035 C12.730,13.020 12.730,13.004 12.730,12.989 C12.735,12.989 12.740,12.989 12.746,12.989 C12.751,12.968 12.756,12.947 12.761,12.927 C12.767,12.927 12.772,12.927 12.777,12.927 C12.777,12.911 12.777,12.896 12.777,12.880 C12.782,12.880 12.788,12.880 12.793,12.880 C12.803,12.849 12.814,12.818 12.824,12.788 C12.829,12.788 12.835,12.788 12.840,12.788 C12.840,12.777 12.840,12.767 12.840,12.757 C12.845,12.757 12.850,12.757 12.856,12.757 C12.861,12.736 12.866,12.715 12.871,12.695 C12.882,12.690 12.892,12.684 12.903,12.679 C12.913,12.648 12.924,12.617 12.934,12.586 C12.945,12.581 12.955,12.576 12.966,12.571 C12.971,12.550 12.976,12.530 12.982,12.509 C12.987,12.509 12.992,12.509 12.997,12.509 C13.003,12.493 13.008,12.478 13.013,12.463 C13.024,12.457 13.034,12.452 13.045,12.447 C13.045,12.437 13.045,12.426 13.045,12.416 C13.050,12.416 13.055,12.416 13.060,12.416 C13.066,12.401 13.071,12.385 13.076,12.370 C13.086,12.365 13.097,12.359 13.107,12.354 C13.107,12.344 13.107,12.334 13.107,12.323 C13.123,12.313 13.139,12.303 13.155,12.292 C13.155,12.282 13.155,12.272 13.155,12.261 C13.181,12.241 13.207,12.220 13.233,12.199 C13.233,12.189 13.233,12.179 13.233,12.169 C13.270,12.138 13.307,12.107 13.343,12.076 C13.343,12.065 13.343,12.055 13.343,12.045 C13.370,12.024 13.396,12.003 13.422,11.983 C13.427,11.973 13.433,11.962 13.438,11.952 C13.448,11.952 13.459,11.952 13.469,11.952 C13.506,11.911 13.543,11.869 13.580,11.828 C13.590,11.828 13.601,11.828 13.611,11.828 C13.621,11.813 13.632,11.797 13.642,11.782 C13.658,11.777 13.674,11.771 13.690,11.766 C13.695,11.756 13.700,11.746 13.705,11.735 C13.716,11.735 13.726,11.735 13.737,11.735 C13.742,11.725 13.747,11.715 13.753,11.704 C13.763,11.704 13.774,11.704 13.784,11.704 C13.789,11.694 13.795,11.684 13.800,11.673 C13.810,11.673 13.821,11.673 13.831,11.673 C13.837,11.663 13.842,11.653 13.847,11.642 C13.868,11.637 13.889,11.632 13.910,11.627 C13.915,11.617 13.920,11.606 13.926,11.596 C13.947,11.591 13.968,11.586 13.989,11.580 C13.989,11.575 13.989,11.570 13.989,11.565 C13.999,11.565 14.010,11.565 14.020,11.565 C14.020,11.560 14.020,11.555 14.020,11.550 C14.052,11.539 14.083,11.529 14.115,11.519 C14.115,11.513 14.115,11.508 14.115,11.503 C14.130,11.503 14.146,11.503 14.162,11.503 C14.162,11.498 14.162,11.493 14.162,11.488 C14.172,11.488 14.183,11.488 14.193,11.488 C14.193,11.482 14.193,11.477 14.193,11.472 C14.225,11.467 14.256,11.462 14.288,11.457 C14.288,11.452 14.288,11.446 14.288,11.441 C14.303,11.441 14.319,11.441 14.335,11.441 C14.335,11.436 14.335,11.431 14.335,11.426 C14.351,11.426 14.366,11.426 14.382,11.426 C14.382,11.421 14.382,11.415 14.382,11.410 C14.398,11.410 14.413,11.410 14.429,11.410 C14.429,11.405 14.429,11.400 14.429,11.395 C14.455,11.395 14.482,11.395 14.508,11.395 C14.733,11.325 15.103,11.308 15.342,11.379 C15.389,11.384 15.436,11.390 15.483,11.395 C15.483,11.400 15.483,11.405 15.483,11.410 C15.536,11.421 15.588,11.431 15.641,11.441 C15.641,11.446 15.641,11.452 15.641,11.457 C15.651,11.457 15.662,11.457 15.672,11.457 C15.672,11.462 15.672,11.467 15.672,11.472 C15.688,11.472 15.704,11.472 15.719,11.472 C15.719,11.477 15.719,11.482 15.719,11.488 C15.751,11.498 15.782,11.508 15.814,11.519 C15.814,11.524 15.814,11.529 15.814,11.534 C15.824,11.534 15.835,11.534 15.845,11.534 C15.845,11.539 15.845,11.544 15.845,11.550 C15.877,11.560 15.908,11.570 15.940,11.580 C15.945,11.591 15.950,11.601 15.955,11.611 C15.966,11.611 15.976,11.611 15.987,11.611 C15.992,11.622 15.997,11.632 16.003,11.642 C16.013,11.642 16.024,11.642 16.034,11.642 C16.045,11.658 16.055,11.673 16.066,11.689 C16.076,11.689 16.087,11.689 16.097,11.689 C16.108,11.704 16.118,11.720 16.129,11.735 C16.139,11.735 16.150,11.735 16.160,11.735 C16.186,11.766 16.213,11.797 16.239,11.828 C16.275,11.859 16.312,11.890 16.349,11.921 C16.349,11.931 16.349,11.942 16.349,11.952 C16.370,11.967 16.391,11.983 16.412,11.998 C16.412,12.009 16.412,12.019 16.412,12.029 C16.428,12.040 16.443,12.050 16.459,12.060 C16.459,12.071 16.459,12.081 16.459,12.091 C16.470,12.096 16.480,12.101 16.490,12.107 C16.496,12.127 16.501,12.148 16.506,12.169 C16.517,12.174 16.527,12.179 16.538,12.184 C16.538,12.194 16.538,12.205 16.538,12.215 C16.543,12.215 16.548,12.215 16.553,12.215 C16.553,12.225 16.553,12.236 16.553,12.246 C16.559,12.246 16.564,12.246 16.569,12.246 C16.569,12.256 16.569,12.267 16.569,12.277 C16.574,12.277 16.580,12.277 16.585,12.277 C16.585,12.287 16.585,12.297 16.585,12.308 C16.590,12.308 16.595,12.308 16.601,12.308 C16.601,12.318 16.601,12.328 16.601,12.339 C16.606,12.339 16.611,12.339 16.616,12.339 C16.622,12.359 16.627,12.380 16.632,12.401 C16.637,12.401 16.643,12.401 16.648,12.401 C16.648,12.416 16.648,12.432 16.648,12.447 C16.653,12.447 16.658,12.447 16.664,12.447 C16.664,12.457 16.664,12.468 16.664,12.478 C16.669,12.478 16.674,12.478 16.679,12.478 C16.716,12.612 16.753,12.746 16.789,12.880 C16.795,12.963 16.800,13.045 16.805,13.128 C16.810,13.128 16.816,13.128 16.821,13.128 C16.842,13.203 16.821,13.507 16.805,13.561 C16.800,13.654 16.795,13.747 16.789,13.840 C16.784,13.840 16.779,13.840 16.774,13.840 C16.768,13.902 16.763,13.964 16.758,14.025 C16.753,14.025 16.747,14.025 16.742,14.025 C16.742,14.056 16.742,14.087 16.742,14.118 C16.737,14.118 16.732,14.118 16.727,14.118 C16.727,14.144 16.727,14.170 16.727,14.196 C16.721,14.196 16.716,14.196 16.711,14.196 C16.706,14.242 16.700,14.289 16.695,14.335 C16.690,14.335 16.685,14.335 16.679,14.335 C16.679,14.356 16.679,14.376 16.679,14.397 C16.674,14.397 16.669,14.397 16.664,14.397 C16.658,14.443 16.653,14.490 16.648,14.536 C16.643,14.536 16.637,14.536 16.632,14.536 C16.632,14.557 16.632,14.577 16.632,14.598 C16.627,14.598 16.622,14.598 16.616,14.598 C16.606,14.655 16.595,14.712 16.585,14.768 C16.580,14.768 16.574,14.768 16.569,14.768 C16.569,14.789 16.569,14.810 16.569,14.830 C16.564,14.830 16.559,14.830 16.553,14.830 C16.553,14.846 16.553,14.861 16.553,14.877 C16.548,14.877 16.543,14.877 16.538,14.877 C16.532,14.913 16.527,14.949 16.522,14.985 C16.517,14.985 16.511,14.985 16.506,14.985 C16.506,15.006 16.506,15.026 16.506,15.047 C16.501,15.047 16.496,15.047 16.490,15.047 C16.490,15.062 16.490,15.078 16.490,15.093 C16.485,15.093 16.480,15.093 16.475,15.093 C16.475,15.114 16.475,15.135 16.475,15.155 C16.332,15.545 16.223,15.974 16.081,16.362 C16.081,16.383 16.081,16.403 16.081,16.424 C16.076,16.424 16.071,16.424 16.066,16.424 C16.066,16.440 16.066,16.455 16.066,16.470 C16.060,16.470 16.055,16.470 16.050,16.470 C16.050,16.491 16.050,16.512 16.050,16.532 C16.045,16.532 16.039,16.532 16.034,16.532 C16.034,16.548 16.034,16.563 16.034,16.579 C16.029,16.579 16.024,16.579 16.018,16.579 C16.018,16.594 16.018,16.610 16.018,16.625 C16.013,16.625 16.008,16.625 16.003,16.625 C15.997,16.661 15.992,16.697 15.987,16.734 C15.982,16.734 15.976,16.734 15.971,16.734 C15.966,16.770 15.961,16.806 15.955,16.842 C15.950,16.842 15.945,16.842 15.940,16.842 C15.929,16.899 15.919,16.955 15.908,17.012 C15.903,17.012 15.898,17.012 15.893,17.012 C15.851,17.198 15.809,17.383 15.767,17.569 C15.747,17.638 15.766,17.965 15.782,18.018 C15.788,18.018 15.793,18.018 15.798,18.018 C15.798,18.044 15.798,18.070 15.798,18.095 C15.803,18.095 15.809,18.095 15.814,18.095 C15.814,18.111 15.814,18.126 15.814,18.142 C15.819,18.142 15.824,18.142 15.830,18.142 C15.840,18.188 15.851,18.235 15.861,18.281 C15.866,18.281 15.872,18.281 15.877,18.281 C15.887,18.312 15.898,18.343 15.908,18.374 C15.914,18.374 15.919,18.374 15.924,18.374 C15.929,18.394 15.935,18.415 15.940,18.436 C15.950,18.441 15.961,18.446 15.971,18.451 C15.971,18.462 15.971,18.472 15.971,18.482 C15.982,18.487 15.992,18.492 16.003,18.498 C16.003,18.508 16.003,18.518 16.003,18.529 C16.018,18.539 16.034,18.549 16.050,18.560 C16.050,18.570 16.050,18.580 16.050,18.591 C16.076,18.611 16.102,18.632 16.129,18.652 C16.129,18.663 16.129,18.673 16.129,18.683 C16.134,18.683 16.139,18.683 16.144,18.683 C16.155,18.699 16.165,18.714 16.176,18.730 C16.186,18.730 16.197,18.730 16.207,18.730 C16.233,18.761 16.260,18.792 16.286,18.823 C16.296,18.823 16.307,18.823 16.317,18.823 C16.323,18.833 16.328,18.843 16.333,18.854 C16.349,18.859 16.365,18.864 16.380,18.869 C16.380,18.874 16.380,18.879 16.380,18.885 C16.391,18.885 16.401,18.885 16.412,18.885 C16.417,18.895 16.422,18.905 16.428,18.915 C16.459,18.926 16.490,18.936 16.522,18.946 C16.522,18.952 16.522,18.957 16.522,18.962 C16.532,18.962 16.543,18.962 16.553,18.962 C16.553,18.967 16.553,18.972 16.553,18.977 C16.585,18.988 16.616,18.998 16.648,19.008 C16.648,19.013 16.648,19.019 16.648,19.024 C16.664,19.024 16.679,19.024 16.695,19.024 C16.695,19.029 16.695,19.034 16.695,19.039 C16.706,19.039 16.716,19.039 16.727,19.039 C16.727,19.044 16.727,19.050 16.727,19.055 C16.747,19.055 16.768,19.055 16.789,19.055 C16.789,19.060 16.789,19.065 16.789,19.070 C16.805,19.070 16.821,19.070 16.837,19.070 C16.837,19.075 16.837,19.081 16.837,19.086 C16.858,19.086 16.879,19.086 16.900,19.086 C16.900,19.091 16.900,19.096 16.900,19.101 C16.931,19.101 16.963,19.101 16.994,19.101 C16.994,19.106 16.994,19.111 16.994,19.117 C17.031,19.117 17.067,19.117 17.104,19.117 C17.104,19.122 17.104,19.127 17.104,19.132 C17.183,19.154 17.409,19.132 17.466,19.117 C17.539,19.111 17.613,19.106 17.686,19.101 C17.686,19.096 17.686,19.091 17.686,19.086 C17.755,19.075 17.823,19.065 17.891,19.055 C17.891,19.050 17.891,19.044 17.891,19.039 C17.938,19.029 17.985,19.019 18.033,19.008 C18.033,19.003 18.033,18.998 18.033,18.993 C18.043,18.993 18.053,18.993 18.064,18.993 C18.064,18.988 18.064,18.983 18.064,18.977 C18.080,18.977 18.095,18.977 18.111,18.977 C18.111,18.972 18.111,18.967 18.111,18.962 C18.143,18.952 18.174,18.941 18.206,18.931 C18.206,18.926 18.206,18.921 18.206,18.915 C18.216,18.915 18.227,18.915 18.237,18.915 C18.237,18.910 18.237,18.905 18.237,18.900 C18.248,18.900 18.258,18.900 18.269,18.900 C18.269,18.895 18.269,18.890 18.269,18.885 C18.279,18.885 18.290,18.885 18.300,18.885 C18.300,18.879 18.300,18.874 18.300,18.869 C18.331,18.859 18.363,18.848 18.394,18.838 C18.394,18.833 18.394,18.828 18.394,18.823 C18.410,18.817 18.426,18.812 18.442,18.807 C18.447,18.797 18.452,18.787 18.457,18.776 C18.468,18.776 18.478,18.776 18.489,18.776 C18.489,18.771 18.489,18.766 18.489,18.761 C18.505,18.756 18.520,18.750 18.536,18.745 C18.541,18.735 18.547,18.725 18.552,18.714 C18.562,18.714 18.573,18.714 18.583,18.714 C18.594,18.699 18.604,18.683 18.615,18.668 C18.625,18.668 18.636,18.668 18.646,18.668 C18.657,18.652 18.667,18.637 18.678,18.621 C18.688,18.621 18.699,18.621 18.709,18.621 C18.730,18.596 18.751,18.570 18.772,18.544 C18.783,18.544 18.793,18.544 18.804,18.544 C18.845,18.498 18.887,18.451 18.929,18.405 C18.982,18.358 19.034,18.312 19.087,18.266 C19.087,18.255 19.087,18.245 19.087,18.235 C19.118,18.209 19.150,18.183 19.181,18.157 C19.181,18.147 19.181,18.137 19.181,18.126 C19.202,18.111 19.223,18.095 19.244,18.080 C19.244,18.070 19.244,18.059 19.244,18.049 C19.260,18.039 19.276,18.028 19.291,18.018 C19.291,18.008 19.291,17.997 19.291,17.987 C19.307,17.977 19.323,17.966 19.339,17.956 C19.339,17.946 19.339,17.935 19.339,17.925 C19.349,17.920 19.359,17.915 19.370,17.910 C19.375,17.894 19.380,17.879 19.386,17.863 C19.391,17.863 19.396,17.863 19.401,17.863 C19.401,17.853 19.401,17.843 19.401,17.832 C19.412,17.827 19.422,17.822 19.433,17.817 C19.433,17.806 19.433,17.796 19.433,17.786 C19.443,17.781 19.454,17.776 19.464,17.770 C19.464,17.760 19.464,17.750 19.464,17.739 C19.475,17.734 19.485,17.729 19.496,17.724 C19.496,17.714 19.496,17.703 19.496,17.693 C19.506,17.688 19.517,17.683 19.527,17.677 C19.527,17.667 19.527,17.657 19.527,17.647 C19.533,17.647 19.538,17.647 19.543,17.647 C19.543,17.636 19.543,17.626 19.543,17.616 C19.554,17.610 19.564,17.605 19.575,17.600 C19.585,17.569 19.596,17.538 19.606,17.507 C19.845,17.133 20.008,16.688 20.172,16.238 C20.172,16.218 20.172,16.197 20.172,16.176 C20.178,16.176 20.183,16.176 20.188,16.176 C20.188,16.161 20.188,16.146 20.188,16.130 C20.193,16.130 20.199,16.130 20.204,16.130 C20.204,16.115 20.204,16.099 20.204,16.084 C20.209,16.084 20.214,16.084 20.220,16.084 C20.225,16.042 20.230,16.001 20.235,15.960 C20.241,15.960 20.246,15.960 20.251,15.960 C20.251,15.939 20.251,15.919 20.251,15.898 C20.256,15.898 20.262,15.898 20.267,15.898 C20.267,15.882 20.267,15.867 20.267,15.851 C20.272,15.851 20.277,15.851 20.283,15.851 C20.293,15.784 20.304,15.717 20.314,15.650 C20.319,15.650 20.325,15.650 20.330,15.650 C20.335,15.604 20.340,15.557 20.346,15.511 C20.351,15.511 20.356,15.511 20.361,15.511 C20.367,15.454 20.372,15.398 20.377,15.341 C20.382,15.341 20.388,15.341 20.393,15.341 C20.393,15.315 20.393,15.289 20.393,15.263 C20.398,15.263 20.403,15.263 20.408,15.263 C20.408,15.233 20.408,15.202 20.408,15.171 C20.414,15.171 20.419,15.171 20.424,15.171 C20.424,15.140 20.424,15.109 20.424,15.078 C20.429,15.078 20.435,15.078 20.440,15.078 C20.440,15.042 20.440,15.006 20.440,14.969 C20.445,14.969 20.450,14.969 20.456,14.969 C20.456,14.933 20.456,14.897 20.456,14.861 C20.461,14.861 20.466,14.861 20.471,14.861 C20.471,14.820 20.471,14.779 20.471,14.737 C20.477,14.737 20.482,14.737 20.487,14.737 C20.487,14.691 20.487,14.644 20.487,14.598 C20.492,14.598 20.498,14.598 20.503,14.598 C20.503,14.546 20.503,14.495 20.503,14.443 C20.508,14.443 20.513,14.443 20.519,14.443 C20.524,14.289 20.529,14.134 20.534,13.979 C20.572,13.845 20.550,13.629 20.550,13.468 C20.550,13.376 20.550,13.283 20.550,13.190 C20.545,13.190 20.540,13.190 20.534,13.190 C20.534,13.138 20.534,13.087 20.534,13.035 C20.532,13.005 20.519,13.004 20.519,13.004 C20.519,12.958 20.519,12.911 20.519,12.865 C20.513,12.865 20.508,12.865 20.503,12.865 C20.503,12.829 20.503,12.793 20.503,12.757 C20.498,12.757 20.492,12.757 20.487,12.757 C20.487,12.726 20.487,12.695 20.487,12.664 C20.482,12.664 20.477,12.664 20.471,12.664 C20.471,12.638 20.471,12.612 20.471,12.586 C20.466,12.586 20.461,12.586 20.456,12.586 C20.456,12.561 20.456,12.535 20.456,12.509 C20.450,12.509 20.445,12.509 20.440,12.509 C20.440,12.488 20.440,12.468 20.440,12.447 C20.435,12.447 20.429,12.447 20.424,12.447 C20.424,12.421 20.424,12.395 20.424,12.370 C20.419,12.370 20.414,12.370 20.408,12.370 C20.398,12.313 20.388,12.256 20.377,12.199 C20.372,12.199 20.367,12.199 20.361,12.199 C20.361,12.184 20.361,12.169 20.361,12.153 C20.356,12.153 20.351,12.153 20.346,12.153 C20.346,12.138 20.346,12.122 20.346,12.107 C20.340,12.107 20.335,12.107 20.330,12.107 C20.325,12.076 20.319,12.045 20.314,12.014 C20.309,12.014 20.304,12.014 20.298,12.014 C20.298,12.003 20.298,11.993 20.298,11.983 C20.293,11.983 20.288,11.983 20.283,11.983 C20.277,11.952 20.272,11.921 20.267,11.890 C20.172,11.704 20.078,11.519 19.984,11.333 C19.973,11.328 19.963,11.323 19.952,11.317 C19.952,11.307 19.952,11.297 19.952,11.286 C19.942,11.281 19.931,11.276 19.921,11.271 C19.921,11.261 19.921,11.250 19.921,11.240 C19.915,11.240 19.910,11.240 19.905,11.240 C19.900,11.225 19.894,11.209 19.889,11.194 C19.879,11.188 19.868,11.183 19.858,11.178 C19.858,11.168 19.858,11.158 19.858,11.147 C19.842,11.137 19.826,11.127 19.811,11.116 C19.811,11.106 19.811,11.096 19.811,11.085 C19.795,11.075 19.779,11.065 19.763,11.054 C19.763,11.044 19.763,11.034 19.763,11.023 C19.742,11.008 19.721,10.992 19.700,10.977 C19.700,10.967 19.700,10.956 19.700,10.946 C19.664,10.915 19.627,10.884 19.590,10.853 C19.590,10.843 19.590,10.833 19.590,10.822 C19.564,10.802 19.538,10.781 19.512,10.760 C19.470,10.714 19.428,10.667 19.386,10.621 C19.375,10.621 19.365,10.621 19.354,10.621 C19.323,10.585 19.291,10.549 19.260,10.513 C19.249,10.513 19.239,10.513 19.228,10.513 C19.213,10.492 19.197,10.471 19.181,10.451 C19.171,10.451 19.160,10.451 19.150,10.451 C19.139,10.435 19.129,10.420 19.118,10.404 C19.108,10.404 19.097,10.404 19.087,10.404 C19.076,10.389 19.066,10.373 19.055,10.358 C19.045,10.358 19.034,10.358 19.024,10.358 C19.019,10.348 19.013,10.337 19.008,10.327 C18.992,10.322 18.977,10.317 18.961,10.312 C18.961,10.306 18.961,10.301 18.961,10.296 C18.950,10.296 18.940,10.296 18.929,10.296 C18.924,10.286 18.919,10.275 18.914,10.265 C18.903,10.265 18.893,10.265 18.882,10.265 C18.877,10.255 18.872,10.245 18.866,10.234 C18.856,10.234 18.845,10.234 18.835,10.234 C18.830,10.224 18.825,10.214 18.819,10.203 C18.798,10.198 18.777,10.193 18.756,10.188 C18.751,10.177 18.746,10.167 18.741,10.157 C18.730,10.157 18.720,10.157 18.709,10.157 C18.709,10.152 18.709,10.147 18.709,10.141 C18.699,10.141 18.688,10.141 18.678,10.141 C18.678,10.136 18.678,10.131 18.678,10.126 C18.667,10.126 18.657,10.126 18.646,10.126 C18.646,10.121 18.646,10.116 18.646,10.110 C18.636,10.110 18.625,10.110 18.615,10.110 C18.615,10.105 18.615,10.100 18.615,10.095 C18.604,10.095 18.594,10.095 18.583,10.095 C18.583,10.090 18.583,10.085 18.583,10.079 C18.573,10.079 18.562,10.079 18.552,10.079 C18.552,10.074 18.552,10.069 18.552,10.064 C18.541,10.064 18.531,10.064 18.520,10.064 C18.520,10.059 18.520,10.054 18.520,10.049 C18.510,10.049 18.499,10.049 18.489,10.049 C18.489,10.043 18.489,10.038 18.489,10.033 C18.478,10.033 18.468,10.033 18.457,10.033 C18.457,10.028 18.457,10.023 18.457,10.018 C18.447,10.018 18.436,10.018 18.426,10.018 C18.426,10.012 18.426,10.007 18.426,10.002 C18.405,9.997 18.384,9.992 18.363,9.987 C18.363,9.981 18.363,9.976 18.363,9.971 C18.352,9.971 18.342,9.971 18.331,9.971 C18.331,9.966 18.331,9.961 18.331,9.956 C18.316,9.956 18.300,9.956 18.284,9.956 C18.284,9.950 18.284,9.945 18.284,9.940 C18.263,9.935 18.242,9.930 18.221,9.925 C18.221,9.920 18.221,9.914 18.221,9.909 C18.190,9.904 18.158,9.899 18.127,9.894 C18.127,9.889 18.127,9.883 18.127,9.878 C18.116,9.878 18.106,9.878 18.095,9.878 C18.095,9.873 18.095,9.868 18.095,9.863 C18.064,9.858 18.033,9.852 18.001,9.847 C18.001,9.842 18.001,9.837 18.001,9.832 C17.985,9.832 17.970,9.832 17.954,9.832 C17.954,9.827 17.954,9.822 17.954,9.816 C17.938,9.816 17.922,9.816 17.907,9.816 C17.907,9.811 17.907,9.806 17.907,9.801 C17.891,9.801 17.875,9.801 17.859,9.801 C17.859,9.796 17.859,9.791 17.859,9.785 C17.844,9.785 17.828,9.785 17.812,9.785 C17.812,9.780 17.812,9.775 17.812,9.770 C17.776,9.765 17.739,9.760 17.702,9.754 C17.702,9.749 17.702,9.744 17.702,9.739 C17.681,9.739 17.660,9.739 17.639,9.739 C17.639,9.734 17.639,9.729 17.639,9.724 C17.618,9.724 17.597,9.724 17.576,9.724 C17.576,9.718 17.576,9.713 17.576,9.708 C17.550,9.708 17.524,9.708 17.498,9.708 C17.498,9.703 17.498,9.698 17.498,9.693 C17.477,9.693 17.456,9.693 17.435,9.693 C17.435,9.687 17.435,9.682 17.435,9.677 C17.408,9.677 17.382,9.677 17.356,9.677 C17.356,9.672 17.356,9.667 17.356,9.662 C17.262,9.651 17.167,9.641 17.073,9.631 C16.860,9.571 16.612,9.580 16.349,9.569 C16.266,9.565 16.121,9.525 16.018,9.553 C16.018,9.558 16.018,9.564 16.018,9.569 C15.845,9.574 15.672,9.579 15.499,9.584 C15.499,9.589 15.499,9.595 15.499,9.600 C15.452,9.600 15.405,9.600 15.358,9.600 C15.358,9.605 15.358,9.610 15.358,9.615 C15.321,9.615 15.284,9.615 15.247,9.615 C15.143,9.645 15.003,9.662 14.901,9.693 C14.875,9.693 14.849,9.693 14.823,9.693 C14.823,9.698 14.823,9.703 14.823,9.708 C14.802,9.708 14.781,9.708 14.760,9.708 C14.760,9.713 14.760,9.718 14.760,9.724 C14.739,9.724 14.718,9.724 14.697,9.724 C14.697,9.729 14.697,9.734 14.697,9.739 C14.676,9.739 14.655,9.739 14.634,9.739 C14.634,9.744 14.634,9.749 14.634,9.754 C14.613,9.754 14.592,9.754 14.571,9.754 C14.571,9.760 14.571,9.765 14.571,9.770 C14.555,9.770 14.539,9.770 14.524,9.770 C14.524,9.775 14.524,9.780 14.524,9.785 C14.503,9.785 14.482,9.785 14.461,9.785 C14.461,9.791 14.461,9.796 14.461,9.801 C14.445,9.801 14.429,9.801 14.413,9.801 C14.413,9.806 14.413,9.811 14.413,9.816 C14.398,9.816 14.382,9.816 14.366,9.816 C14.366,9.822 14.366,9.827 14.366,9.832 C14.351,9.832 14.335,9.832 14.319,9.832 C14.319,9.837 14.319,9.842 14.319,9.847 C14.303,9.847 14.288,9.847 14.272,9.847 C14.272,9.852 14.272,9.858 14.272,9.863 C14.256,9.863 14.240,9.863 14.225,9.863 C14.225,9.868 14.225,9.873 14.225,9.878 C14.193,9.883 14.162,9.889 14.130,9.894 C14.130,9.899 14.130,9.904 14.130,9.909 C14.120,9.909 14.109,9.909 14.099,9.909 C14.099,9.914 14.099,9.920 14.099,9.925 C14.083,9.925 14.067,9.925 14.052,9.925 C14.052,9.930 14.052,9.935 14.052,9.940 C14.041,9.940 14.031,9.940 14.020,9.940 C14.020,9.945 14.020,9.950 14.020,9.956 C14.004,9.956 13.989,9.956 13.973,9.956 C13.973,9.961 13.973,9.966 13.973,9.971 C13.952,9.976 13.931,9.981 13.910,9.987 C13.910,9.992 13.910,9.997 13.910,10.002 C13.894,10.002 13.878,10.002 13.863,10.002 C13.863,10.007 13.863,10.012 13.863,10.018 C13.852,10.018 13.842,10.018 13.831,10.018 C13.831,10.023 13.831,10.028 13.831,10.033 C13.810,10.038 13.789,10.043 13.768,10.049 C13.768,10.054 13.768,10.059 13.768,10.064 C13.758,10.064 13.747,10.064 13.737,10.064 C13.737,10.069 13.737,10.074 13.737,10.079 C13.726,10.079 13.716,10.079 13.705,10.079 C13.705,10.085 13.705,10.090 13.705,10.095 C13.695,10.095 13.684,10.095 13.674,10.095 C13.674,10.100 13.674,10.105 13.674,10.110 C13.663,10.110 13.653,10.110 13.642,10.110 C13.642,10.116 13.642,10.121 13.642,10.126 C13.632,10.126 13.621,10.126 13.611,10.126 C13.611,10.131 13.611,10.136 13.611,10.141 C13.601,10.141 13.590,10.141 13.580,10.141 C13.580,10.147 13.580,10.152 13.580,10.157 C13.569,10.157 13.559,10.157 13.548,10.157 C13.548,10.162 13.548,10.167 13.548,10.172 C13.538,10.172 13.527,10.172 13.517,10.172 C13.517,10.177 13.517,10.183 13.517,10.188 C13.506,10.188 13.496,10.188 13.485,10.188 C13.485,10.193 13.485,10.198 13.485,10.203 C13.475,10.203 13.464,10.203 13.454,10.203 C13.454,10.208 13.454,10.214 13.454,10.219 C13.443,10.219 13.433,10.219 13.422,10.219 C13.417,10.229 13.412,10.239 13.406,10.250 C13.385,10.255 13.364,10.260 13.343,10.265 C13.338,10.275 13.333,10.286 13.328,10.296 C13.317,10.296 13.307,10.296 13.296,10.296 C13.296,10.301 13.296,10.306 13.296,10.312 C13.286,10.312 13.275,10.312 13.265,10.312 C13.265,10.317 13.265,10.322 13.265,10.327 C13.249,10.332 13.233,10.337 13.218,10.343 C13.212,10.353 13.207,10.363 13.202,10.373 C13.181,10.379 13.160,10.384 13.139,10.389 C13.134,10.399 13.128,10.410 13.123,10.420 C13.113,10.420 13.102,10.420 13.092,10.420 C13.081,10.435 13.071,10.451 13.060,10.466 C13.050,10.466 13.039,10.466 13.029,10.466 C13.024,10.477 13.018,10.487 13.013,10.497 C13.003,10.497 12.992,10.497 12.982,10.497 C12.976,10.508 12.971,10.518 12.966,10.528 C12.950,10.533 12.934,10.539 12.919,10.544 C12.908,10.559 12.898,10.575 12.887,10.590 C12.877,10.590 12.866,10.590 12.856,10.590 C12.850,10.600 12.845,10.611 12.840,10.621 C12.824,10.626 12.809,10.631 12.793,10.637 C12.777,10.657 12.761,10.678 12.746,10.698 C12.735,10.698 12.725,10.698 12.714,10.698 C12.698,10.719 12.683,10.740 12.667,10.760 C12.662,10.760 12.656,10.760 12.651,10.760 C12.646,10.771 12.641,10.781 12.635,10.791 C12.625,10.791 12.614,10.791 12.604,10.791 C12.546,10.853 12.489,10.915 12.431,10.977 C12.420,10.977 12.410,10.977 12.399,10.977 C12.389,10.992 12.378,11.008 12.368,11.023 C12.363,11.023 12.357,11.023 12.352,11.023 C12.352,11.034 12.352,11.044 12.352,11.054 C12.289,11.111 12.226,11.168 12.163,11.225 C12.163,11.235 12.163,11.245 12.163,11.256 C12.132,11.281 12.100,11.307 12.069,11.333 C12.069,11.343 12.069,11.354 12.069,11.364 C12.048,11.379 12.027,11.395 12.006,11.410 C12.006,11.421 12.006,11.431 12.006,11.441 C11.985,11.457 11.964,11.472 11.943,11.488 C11.943,11.498 11.943,11.508 11.943,11.519 C11.927,11.529 11.912,11.539 11.896,11.550 C11.896,11.560 11.896,11.570 11.896,11.580 C11.885,11.586 11.875,11.591 11.864,11.596 C11.864,11.606 11.864,11.617 11.864,11.627 C11.849,11.637 11.833,11.648 11.817,11.658 C11.817,11.668 11.817,11.678 11.817,11.689 C11.807,11.694 11.796,11.699 11.786,11.704 C11.786,11.715 11.786,11.725 11.786,11.735 C11.775,11.740 11.765,11.746 11.754,11.751 C11.754,11.761 11.754,11.771 11.754,11.782 C11.744,11.787 11.733,11.792 11.723,11.797 C11.723,11.807 11.723,11.818 11.723,11.828 C11.712,11.833 11.702,11.838 11.691,11.844 C11.686,11.864 11.681,11.885 11.676,11.905 C11.665,11.911 11.655,11.916 11.644,11.921 C11.639,11.936 11.634,11.952 11.628,11.967 C11.623,11.967 11.618,11.967 11.613,11.967 C11.602,11.998 11.592,12.029 11.581,12.060 C11.571,12.065 11.560,12.071 11.550,12.076 C11.513,12.158 11.476,12.241 11.440,12.323 C11.434,12.323 11.429,12.323 11.424,12.323 C11.424,12.334 11.424,12.344 11.424,12.354 C11.419,12.354 11.413,12.354 11.408,12.354 C11.408,12.365 11.408,12.375 11.408,12.385 C11.403,12.385 11.398,12.385 11.392,12.385 C11.392,12.395 11.392,12.406 11.392,12.416 C11.387,12.416 11.382,12.416 11.377,12.416 C11.366,12.447 11.356,12.478 11.345,12.509 C11.340,12.509 11.335,12.509 11.329,12.509 C11.329,12.524 11.329,12.540 11.329,12.555 C11.324,12.555 11.319,12.555 11.314,12.555 C11.308,12.576 11.303,12.597 11.298,12.617 C11.293,12.617 11.287,12.617 11.282,12.617 C11.282,12.633 11.282,12.648 11.282,12.664 C11.277,12.664 11.272,12.664 11.266,12.664 C11.266,12.674 11.266,12.684 11.266,12.695 C11.261,12.695 11.256,12.695 11.251,12.695 C11.251,12.710 11.251,12.726 11.251,12.741 C11.246,12.741 11.240,12.741 11.235,12.741 C11.235,12.751 11.235,12.762 11.235,12.772 C11.230,12.772 11.225,12.772 11.219,12.772 C11.214,12.803 11.209,12.834 11.204,12.865 C11.198,12.865 11.193,12.865 11.188,12.865 C11.188,12.875 11.188,12.886 11.188,12.896 C11.183,12.896 11.177,12.896 11.172,12.896 C11.156,12.963 11.141,13.030 11.125,13.097 C11.120,13.097 11.114,13.097 11.109,13.097 C11.109,13.112 11.109,13.128 11.109,13.143 C11.104,13.143 11.099,13.143 11.093,13.143 C11.093,13.159 11.093,13.174 11.093,13.190 C11.088,13.190 11.083,13.190 11.078,13.190 C11.072,13.231 11.067,13.272 11.062,13.314 C11.057,13.314 11.051,13.314 11.046,13.314 C11.046,13.334 11.046,13.355 11.046,13.376 C11.041,13.376 11.036,13.376 11.030,13.376 C11.030,13.396 11.030,13.417 11.030,13.437 C11.025,13.437 11.020,13.437 11.015,13.437 C11.015,13.458 11.015,13.479 11.015,13.499 C11.009,13.499 11.004,13.499 10.999,13.499 C10.999,13.525 10.999,13.551 10.999,13.577 C10.994,13.577 10.988,13.577 10.983,13.577 C10.983,13.603 10.983,13.628 10.983,13.654 C10.978,13.654 10.973,13.654 10.968,13.654 C10.968,13.685 10.968,13.716 10.968,13.747 C10.962,13.747 10.957,13.747 10.952,13.747 C10.952,13.778 10.952,13.809 10.952,13.840 C10.947,13.840 10.941,13.840 10.936,13.840 C10.936,13.876 10.936,13.912 10.936,13.948 C10.931,13.948 10.926,13.948 10.920,13.948 C10.915,14.062 10.910,14.175 10.905,14.289 C10.871,14.408 10.871,14.758 10.905,14.877 C10.905,14.933 10.905,14.990 10.905,15.047 C10.910,15.047 10.915,15.047 10.920,15.047 C10.920,15.088 10.920,15.129 10.920,15.171 C10.926,15.171 10.931,15.171 10.936,15.171 C10.936,15.202 10.936,15.233 10.936,15.263 C10.941,15.263 10.947,15.263 10.952,15.263 C10.952,15.289 10.952,15.315 10.952,15.341 C10.957,15.341 10.962,15.341 10.968,15.341 C10.968,15.367 10.968,15.392 10.968,15.418 C10.973,15.418 10.978,15.418 10.983,15.418 C10.983,15.439 10.983,15.459 10.983,15.480 C10.988,15.480 10.994,15.480 10.999,15.480 C10.999,15.501 10.999,15.521 10.999,15.542 C11.004,15.542 11.009,15.542 11.015,15.542 C11.015,15.563 11.015,15.583 11.015,15.604 C11.020,15.604 11.025,15.604 11.030,15.604 C11.030,15.619 11.030,15.635 11.030,15.650 C11.036,15.650 11.041,15.650 11.046,15.650 C11.046,15.666 11.046,15.681 11.046,15.697 C11.051,15.697 11.057,15.697 11.062,15.697 C11.062,15.712 11.062,15.728 11.062,15.743 C11.067,15.743 11.072,15.743 11.078,15.743 C11.078,15.753 11.078,15.764 11.078,15.774 C11.083,15.774 11.088,15.774 11.093,15.774 C11.099,15.805 11.104,15.836 11.109,15.867 C11.114,15.867 11.120,15.867 11.125,15.867 C11.135,15.898 11.146,15.929 11.156,15.960 C11.162,15.960 11.167,15.960 11.172,15.960 C11.172,15.970 11.172,15.980 11.172,15.991 C11.177,15.991 11.183,15.991 11.188,15.991 C11.188,16.001 11.188,16.011 11.188,16.022 C11.193,16.022 11.198,16.022 11.204,16.022 C11.204,16.032 11.204,16.042 11.204,16.053 C11.209,16.053 11.214,16.053 11.219,16.053 C11.219,16.063 11.219,16.073 11.219,16.084 C11.225,16.084 11.230,16.084 11.235,16.084 C11.245,16.115 11.256,16.146 11.266,16.176 C11.277,16.182 11.287,16.187 11.298,16.192 C11.303,16.213 11.308,16.233 11.314,16.254 C11.324,16.259 11.335,16.264 11.345,16.269 C11.345,16.280 11.345,16.290 11.345,16.300 C11.350,16.300 11.356,16.300 11.361,16.300 C11.366,16.316 11.371,16.331 11.377,16.347 C11.387,16.352 11.398,16.357 11.408,16.362 C11.408,16.372 11.408,16.383 11.408,16.393 C11.424,16.403 11.440,16.414 11.455,16.424 C11.455,16.434 11.455,16.445 11.455,16.455 C11.466,16.460 11.476,16.465 11.487,16.470 C11.492,16.486 11.497,16.501 11.503,16.517 C11.529,16.538 11.555,16.558 11.581,16.579 C11.680,16.714 11.779,16.849 11.833,17.028 C11.853,17.094 11.831,17.277 11.817,17.322 C11.817,17.347 11.817,17.373 11.817,17.399 C11.780,17.513 11.746,17.657 11.707,17.770 C11.702,17.812 11.697,17.853 11.691,17.894 C11.686,17.894 11.681,17.894 11.676,17.894 C11.670,17.935 11.665,17.977 11.660,18.018 C11.655,18.018 11.649,18.018 11.644,18.018 C11.644,18.039 11.644,18.059 11.644,18.080 C11.639,18.080 11.634,18.080 11.628,18.080 C11.628,18.100 11.628,18.121 11.628,18.142 C11.623,18.142 11.618,18.142 11.613,18.142 C11.613,18.162 11.613,18.183 11.613,18.204 C11.607,18.204 11.602,18.204 11.597,18.204 C11.597,18.224 11.597,18.245 11.597,18.266 C11.592,18.266 11.586,18.266 11.581,18.266 C11.581,18.281 11.581,18.296 11.581,18.312 C11.576,18.312 11.571,18.312 11.565,18.312 C11.555,18.369 11.544,18.425 11.534,18.482 C11.529,18.482 11.523,18.482 11.518,18.482 C11.508,18.513 11.497,18.544 11.487,18.575 C11.482,18.575 11.476,18.575 11.471,18.575 C11.466,18.596 11.461,18.616 11.455,18.637 C11.440,18.647 11.424,18.658 11.408,18.668 C11.408,18.678 11.408,18.689 11.408,18.699 C11.377,18.725 11.345,18.750 11.314,18.776 C11.308,18.787 11.303,18.797 11.298,18.807 C11.287,18.807 11.277,18.807 11.266,18.807 C11.261,18.817 11.256,18.828 11.251,18.838 C11.240,18.838 11.230,18.838 11.219,18.838 C11.214,18.848 11.209,18.859 11.204,18.869 C11.193,18.869 11.183,18.869 11.172,18.869 C11.172,18.874 11.172,18.879 11.172,18.885 C11.156,18.885 11.141,18.885 11.125,18.885 C11.125,18.890 11.125,18.895 11.125,18.900 C11.114,18.900 11.104,18.900 11.093,18.900 C11.093,18.905 11.093,18.910 11.093,18.915 C11.055,18.930 10.836,18.963 10.779,18.946 C10.779,18.941 10.779,18.936 10.779,18.931 C10.747,18.931 10.716,18.931 10.684,18.931 C10.684,18.926 10.684,18.921 10.684,18.915 C10.663,18.915 10.642,18.915 10.621,18.915 C10.621,18.910 10.621,18.905 10.621,18.900 C10.606,18.900 10.590,18.900 10.574,18.900 C10.574,18.895 10.574,18.890 10.574,18.885 C10.564,18.885 10.553,18.885 10.543,18.885 C10.543,18.879 10.543,18.874 10.543,18.869 C10.527,18.869 10.511,18.869 10.495,18.869 C10.495,18.864 10.495,18.859 10.495,18.854 C10.474,18.848 10.454,18.843 10.433,18.838 C10.433,18.833 10.433,18.828 10.433,18.823 C10.422,18.823 10.412,18.823 10.401,18.823 C10.401,18.817 10.401,18.812 10.401,18.807 C10.385,18.807 10.370,18.807 10.354,18.807 C10.354,18.802 10.354,18.797 10.354,18.792 C10.333,18.787 10.312,18.781 10.291,18.776 C10.291,18.771 10.291,18.766 10.291,18.761 C10.270,18.756 10.249,18.750 10.228,18.745 C10.223,18.735 10.217,18.725 10.212,18.714 C10.202,18.714 10.191,18.714 10.181,18.714 C10.181,18.709 10.181,18.704 10.181,18.699 C10.170,18.699 10.160,18.699 10.149,18.699 C10.149,18.694 10.149,18.689 10.149,18.683 C10.139,18.683 10.128,18.683 10.118,18.683 C10.118,18.678 10.118,18.673 10.118,18.668 C10.107,18.668 10.097,18.668 10.086,18.668 C10.081,18.658 10.076,18.647 10.071,18.637 C10.050,18.632 10.029,18.627 10.008,18.621 C10.002,18.611 9.997,18.601 9.992,18.591 C9.981,18.591 9.971,18.591 9.960,18.591 C9.960,18.585 9.960,18.580 9.960,18.575 C9.945,18.570 9.929,18.565 9.913,18.560 C9.908,18.549 9.903,18.539 9.898,18.529 C9.887,18.529 9.877,18.529 9.866,18.529 C9.856,18.513 9.845,18.498 9.835,18.482 C9.824,18.482 9.814,18.482 9.803,18.482 C9.798,18.472 9.793,18.462 9.787,18.451 C9.777,18.451 9.766,18.451 9.756,18.451 C9.740,18.431 9.724,18.410 9.709,18.389 C9.698,18.389 9.688,18.389 9.677,18.389 C9.662,18.369 9.646,18.348 9.630,18.327 C9.620,18.327 9.609,18.327 9.599,18.327 C9.567,18.291 9.536,18.255 9.504,18.219 C9.494,18.219 9.483,18.219 9.473,18.219 C9.452,18.193 9.431,18.168 9.410,18.142 C9.363,18.100 9.315,18.059 9.268,18.018 C9.268,18.008 9.268,17.997 9.268,17.987 C9.231,17.956 9.195,17.925 9.158,17.894 C9.158,17.884 9.158,17.874 9.158,17.863 C9.132,17.843 9.106,17.822 9.079,17.801 C9.074,17.786 9.069,17.770 9.064,17.755 C9.053,17.750 9.043,17.745 9.032,17.739 C9.032,17.729 9.032,17.719 9.032,17.708 C9.016,17.698 9.001,17.688 8.985,17.677 C8.980,17.662 8.974,17.647 8.969,17.631 C8.959,17.626 8.948,17.621 8.938,17.616 C8.938,17.605 8.938,17.595 8.938,17.585 C8.927,17.579 8.917,17.574 8.906,17.569 C8.901,17.554 8.896,17.538 8.890,17.523 C8.885,17.523 8.880,17.523 8.875,17.523 C8.875,17.512 8.875,17.502 8.875,17.492 C8.864,17.487 8.854,17.481 8.843,17.476 C8.838,17.461 8.833,17.445 8.828,17.430 C8.822,17.430 8.817,17.430 8.812,17.430 C8.807,17.409 8.801,17.389 8.796,17.368 C8.786,17.363 8.775,17.358 8.765,17.353 C8.759,17.332 8.754,17.311 8.749,17.291 C8.738,17.285 8.728,17.280 8.717,17.275 C8.717,17.265 8.717,17.255 8.717,17.244 C8.712,17.244 8.707,17.244 8.702,17.244 C8.702,17.234 8.702,17.224 8.702,17.213 C8.696,17.213 8.691,17.213 8.686,17.213 C8.686,17.203 8.686,17.193 8.686,17.182 C8.681,17.182 8.675,17.182 8.670,17.182 C8.670,17.172 8.670,17.162 8.670,17.151 C8.665,17.151 8.660,17.151 8.654,17.151 C8.654,17.141 8.654,17.131 8.654,17.120 C8.644,17.115 8.633,17.110 8.623,17.105 C8.607,17.059 8.592,17.012 8.576,16.966 C8.571,16.966 8.565,16.966 8.560,16.966 C8.560,16.955 8.560,16.945 8.560,16.935 C8.555,16.935 8.550,16.935 8.544,16.935 C8.534,16.904 8.523,16.873 8.513,16.842 C8.508,16.842 8.502,16.842 8.497,16.842 C8.497,16.826 8.497,16.811 8.497,16.795 C8.492,16.795 8.487,16.795 8.481,16.795 C8.476,16.775 8.471,16.754 8.466,16.734 C8.460,16.734 8.455,16.734 8.450,16.734 C8.450,16.718 8.450,16.703 8.450,16.687 C8.445,16.687 8.439,16.687 8.434,16.687 C8.434,16.677 8.434,16.666 8.434,16.656 C8.429,16.656 8.424,16.656 8.418,16.656 C8.413,16.625 8.408,16.594 8.403,16.563 C8.397,16.563 8.392,16.563 8.387,16.563 C8.387,16.553 8.387,16.543 8.387,16.532 C8.382,16.532 8.376,16.532 8.371,16.532 C8.361,16.486 8.350,16.440 8.340,16.393 C8.335,16.393 8.329,16.393 8.324,16.393 C8.324,16.378 8.324,16.362 8.324,16.347 C8.319,16.347 8.314,16.347 8.308,16.347 C8.308,16.331 8.308,16.316 8.308,16.300 C8.303,16.300 8.298,16.300 8.293,16.300 C8.293,16.285 8.293,16.269 8.293,16.254 C8.287,16.254 8.282,16.254 8.277,16.254 C8.272,16.218 8.266,16.182 8.261,16.146 C8.256,16.146 8.251,16.146 8.245,16.146 C8.240,16.109 8.235,16.073 8.230,16.037 C8.224,16.037 8.219,16.037 8.214,16.037 C8.209,15.996 8.203,15.955 8.198,15.913 C8.193,15.913 8.188,15.913 8.182,15.913 C8.182,15.888 8.182,15.862 8.182,15.836 C8.177,15.836 8.172,15.836 8.167,15.836 C8.167,15.815 8.167,15.795 8.167,15.774 C8.161,15.774 8.156,15.774 8.151,15.774 C8.151,15.748 8.151,15.723 8.151,15.697 C8.146,15.697 8.140,15.697 8.135,15.697 C8.125,15.609 8.114,15.521 8.104,15.434 C8.099,15.434 8.093,15.434 8.088,15.434 C8.088,15.403 8.088,15.372 8.088,15.341 C8.083,15.341 8.078,15.341 8.072,15.341 C8.072,15.300 8.072,15.258 8.072,15.217 C8.067,15.217 8.062,15.217 8.057,15.217 C8.057,15.171 8.057,15.124 8.057,15.078 C8.051,15.078 8.046,15.078 8.041,15.078 C8.041,15.026 8.041,14.975 8.041,14.923 C8.036,14.923 8.030,14.923 8.025,14.923 C8.025,14.840 8.025,14.758 8.025,14.675 C7.992,14.558 7.991,14.096 8.025,13.979 C8.036,13.814 8.046,13.649 8.057,13.484 C8.062,13.484 8.067,13.484 8.072,13.484 C8.072,13.448 8.072,13.412 8.072,13.376 C8.078,13.376 8.083,13.376 8.088,13.376 C8.088,13.339 8.088,13.303 8.088,13.267 C8.093,13.267 8.099,13.267 8.104,13.267 C8.104,13.241 8.104,13.216 8.104,13.190 C8.109,13.190 8.114,13.190 8.119,13.190 C8.119,13.159 8.119,13.128 8.119,13.097 C8.188,12.834 8.256,12.571 8.324,12.308 C8.497,11.837 8.686,11.370 8.938,10.977 C8.948,10.946 8.959,10.915 8.969,10.884 C8.980,10.879 8.990,10.874 9.001,10.869 C9.006,10.848 9.011,10.827 9.016,10.807 C9.027,10.802 9.037,10.796 9.048,10.791 C9.053,10.771 9.058,10.750 9.064,10.729 C9.069,10.729 9.074,10.729 9.079,10.729 C9.085,10.714 9.090,10.698 9.095,10.683 C9.106,10.678 9.116,10.673 9.127,10.667 C9.132,10.647 9.137,10.626 9.142,10.606 C9.148,10.606 9.153,10.606 9.158,10.606 C9.163,10.590 9.168,10.575 9.174,10.559 C9.184,10.554 9.195,10.549 9.205,10.544 C9.205,10.533 9.205,10.523 9.205,10.513 C9.210,10.513 9.216,10.513 9.221,10.513 C9.226,10.497 9.231,10.482 9.237,10.466 C9.247,10.461 9.258,10.456 9.268,10.451 C9.268,10.441 9.268,10.430 9.268,10.420 C9.284,10.410 9.300,10.399 9.315,10.389 C9.315,10.379 9.315,10.368 9.315,10.358 C9.321,10.358 9.326,10.358 9.331,10.358 C9.336,10.343 9.342,10.327 9.347,10.312 C9.357,10.306 9.368,10.301 9.378,10.296 C9.378,10.286 9.378,10.275 9.378,10.265 C9.394,10.255 9.410,10.245 9.425,10.234 C9.425,10.224 9.425,10.214 9.425,10.203 C9.441,10.193 9.457,10.183 9.473,10.172 C9.473,10.162 9.473,10.152 9.473,10.141 C9.488,10.131 9.504,10.121 9.520,10.110 C9.520,10.100 9.520,10.090 9.520,10.079 C9.541,10.064 9.562,10.049 9.583,10.033 C9.583,10.023 9.583,10.012 9.583,10.002 C9.604,9.987 9.625,9.971 9.646,9.956 C9.646,9.945 9.646,9.935 9.646,9.925 C9.672,9.904 9.698,9.883 9.724,9.863 C9.724,9.852 9.724,9.842 9.724,9.832 C9.756,9.806 9.787,9.780 9.819,9.754 C9.819,9.744 9.819,9.734 9.819,9.724 C9.861,9.687 9.903,9.651 9.945,9.615 C9.945,9.605 9.945,9.595 9.945,9.584 C9.997,9.538 10.050,9.491 10.102,9.445 C10.196,9.347 10.291,9.249 10.385,9.151 C10.396,9.151 10.406,9.151 10.417,9.151 C10.459,9.105 10.501,9.058 10.543,9.012 C10.553,9.012 10.564,9.012 10.574,9.012 C10.579,9.001 10.585,8.991 10.590,8.981 C10.595,8.981 10.600,8.981 10.606,8.981 C10.621,8.960 10.637,8.939 10.653,8.919 C10.663,8.919 10.674,8.919 10.684,8.919 C10.690,8.909 10.695,8.898 10.700,8.888 C10.705,8.888 10.711,8.888 10.716,8.888 C10.721,8.878 10.726,8.867 10.731,8.857 C10.742,8.857 10.752,8.857 10.763,8.857 C10.784,8.831 10.805,8.805 10.826,8.780 C10.836,8.780 10.847,8.780 10.857,8.780 C10.868,8.764 10.878,8.749 10.889,8.733 C10.899,8.733 10.910,8.733 10.920,8.733 C10.931,8.718 10.941,8.702 10.952,8.687 C10.962,8.687 10.973,8.687 10.983,8.687 C10.994,8.671 11.004,8.656 11.015,8.640 C11.025,8.640 11.036,8.640 11.046,8.640 C11.057,8.625 11.067,8.609 11.078,8.594 C11.088,8.594 11.099,8.594 11.109,8.594 C11.120,8.578 11.130,8.563 11.141,8.547 C11.151,8.547 11.162,8.547 11.172,8.547 C11.172,8.542 11.172,8.537 11.172,8.532 C11.188,8.527 11.204,8.522 11.219,8.517 C11.225,8.506 11.230,8.496 11.235,8.486 C11.245,8.486 11.256,8.486 11.266,8.486 C11.277,8.470 11.287,8.455 11.298,8.439 C11.308,8.439 11.319,8.439 11.329,8.439 C11.335,8.429 11.340,8.419 11.345,8.408 C11.361,8.403 11.377,8.398 11.392,8.393 C11.392,8.388 11.392,8.382 11.392,8.377 C11.403,8.377 11.413,8.377 11.424,8.377 C11.429,8.367 11.434,8.357 11.440,8.346 C11.461,8.341 11.482,8.336 11.503,8.331 C11.503,8.326 11.503,8.321 11.503,8.315 C11.518,8.310 11.534,8.305 11.550,8.300 C11.555,8.290 11.560,8.279 11.565,8.269 C11.586,8.264 11.607,8.259 11.628,8.253 C11.634,8.243 11.639,8.233 11.644,8.222 C11.665,8.217 11.686,8.212 11.707,8.207 C11.712,8.197 11.718,8.186 11.723,8.176 C11.744,8.171 11.765,8.166 11.786,8.161 C11.791,8.150 11.796,8.140 11.801,8.130 C11.812,8.130 11.822,8.130 11.833,8.130 C11.833,8.124 11.833,8.119 11.833,8.114 C11.843,8.114 11.854,8.114 11.864,8.114 C11.864,8.109 11.864,8.104 11.864,8.099 C11.875,8.099 11.885,8.099 11.896,8.099 C11.896,8.094 11.896,8.088 11.896,8.083 C11.906,8.083 11.917,8.083 11.927,8.083 C11.933,8.073 11.938,8.063 11.943,8.052 C11.964,8.047 11.985,8.042 12.006,8.037 C12.006,8.032 12.006,8.026 12.006,8.021 C12.017,8.021 12.027,8.021 12.037,8.021 C12.037,8.016 12.037,8.011 12.037,8.006 C12.048,8.006 12.058,8.006 12.069,8.006 C12.069,8.001 12.069,7.996 12.069,7.990 C12.079,7.990 12.090,7.990 12.100,7.990 C12.100,7.985 12.100,7.980 12.100,7.975 C12.111,7.975 12.121,7.975 12.132,7.975 C12.132,7.970 12.132,7.965 12.132,7.959 C12.153,7.954 12.174,7.949 12.195,7.944 C12.195,7.939 12.195,7.934 12.195,7.928 C12.216,7.923 12.237,7.918 12.258,7.913 C12.258,7.908 12.258,7.903 12.258,7.898 C12.268,7.898 12.279,7.898 12.289,7.898 C12.289,7.892 12.289,7.887 12.289,7.882 C12.300,7.882 12.310,7.882 12.321,7.882 C12.321,7.877 12.321,7.872 12.321,7.867 C12.331,7.867 12.342,7.867 12.352,7.867 C12.352,7.861 12.352,7.856 12.352,7.851 C12.363,7.851 12.373,7.851 12.384,7.851 C12.384,7.846 12.384,7.841 12.384,7.836 C12.415,7.825 12.447,7.815 12.478,7.805 C12.478,7.800 12.478,7.794 12.478,7.789 C12.504,7.784 12.531,7.779 12.557,7.774 C12.557,7.769 12.557,7.763 12.557,7.758 C12.578,7.753 12.599,7.748 12.620,7.743 C12.620,7.738 12.620,7.732 12.620,7.727 C12.635,7.727 12.651,7.727 12.667,7.727 C12.667,7.722 12.667,7.717 12.667,7.712 C12.688,7.707 12.709,7.702 12.730,7.696 C12.730,7.691 12.730,7.686 12.730,7.681 C12.746,7.681 12.761,7.681 12.777,7.681 C12.777,7.676 12.777,7.671 12.777,7.665 C12.788,7.665 12.798,7.665 12.809,7.665 C12.809,7.660 12.809,7.655 12.809,7.650 C12.824,7.650 12.840,7.650 12.856,7.650 C12.856,7.645 12.856,7.640 12.856,7.634 C12.866,7.634 12.877,7.634 12.887,7.634 C12.887,7.629 12.887,7.624 12.887,7.619 C12.919,7.614 12.950,7.609 12.982,7.604 C12.982,7.598 12.982,7.593 12.982,7.588 C12.992,7.588 13.003,7.588 13.013,7.588 C13.013,7.583 13.013,7.578 13.013,7.573 C13.029,7.573 13.045,7.573 13.060,7.573 C13.060,7.567 13.060,7.562 13.060,7.557 C13.076,7.557 13.092,7.557 13.107,7.557 C13.107,7.552 13.107,7.547 13.107,7.542 C13.118,7.542 13.128,7.542 13.139,7.542 C13.139,7.536 13.139,7.531 13.139,7.526 C13.186,7.516 13.233,7.506 13.281,7.495 C13.281,7.490 13.281,7.485 13.281,7.480 C13.296,7.480 13.312,7.480 13.328,7.480 C13.328,7.475 13.328,7.469 13.328,7.464 C13.343,7.464 13.359,7.464 13.375,7.464 C13.375,7.459 13.375,7.454 13.375,7.449 C13.391,7.449 13.406,7.449 13.422,7.449 C13.422,7.444 13.422,7.438 13.422,7.433 C13.438,7.433 13.454,7.433 13.469,7.433 C13.469,7.428 13.469,7.423 13.469,7.418 C13.522,7.407 13.574,7.397 13.627,7.387 C13.627,7.382 13.627,7.377 13.627,7.371 C13.663,7.366 13.700,7.361 13.737,7.356 C13.737,7.351 13.737,7.346 13.737,7.340 C13.779,7.335 13.821,7.330 13.863,7.325 C14.048,7.260 14.281,7.228 14.476,7.170 C14.508,7.170 14.539,7.170 14.571,7.170 C14.571,7.165 14.571,7.160 14.571,7.155 C14.597,7.155 14.623,7.155 14.649,7.155 C14.649,7.150 14.649,7.144 14.649,7.139 C14.681,7.139 14.712,7.139 14.744,7.139 C14.744,7.134 14.744,7.129 14.744,7.124 C14.781,7.124 14.817,7.124 14.854,7.124 C14.854,7.119 14.854,7.113 14.854,7.108 C14.886,7.108 14.917,7.108 14.948,7.108 C14.948,7.103 14.948,7.098 14.948,7.093 C14.990,7.093 15.032,7.093 15.074,7.093 C15.074,7.088 15.074,7.083 15.074,7.077 C15.116,7.077 15.158,7.077 15.200,7.077 C15.200,7.072 15.200,7.067 15.200,7.062 C15.247,7.062 15.295,7.062 15.342,7.062 C15.342,7.057 15.342,7.052 15.342,7.046 C15.400,7.046 15.457,7.046 15.515,7.046 C15.515,7.041 15.515,7.036 15.515,7.031 C15.625,7.026 15.735,7.021 15.845,7.015 C15.898,7.015 15.974,7.025 16.003,7.000 C16.291,7.000 16.580,7.000 16.868,7.000 C16.868,7.005 16.868,7.010 16.868,7.015 C16.921,7.015 16.973,7.015 17.025,7.015 C17.114,7.016 17.237,7.026 17.309,7.046 C17.445,7.057 17.581,7.067 17.718,7.077 C17.718,7.083 17.718,7.088 17.718,7.093 C17.781,7.098 17.844,7.103 17.907,7.108 C17.907,7.113 17.907,7.119 17.907,7.124 C17.938,7.124 17.970,7.124 18.001,7.124 C18.001,7.129 18.001,7.134 18.001,7.139 C18.033,7.139 18.064,7.139 18.095,7.139 C18.095,7.144 18.095,7.150 18.095,7.155 C18.122,7.155 18.148,7.155 18.174,7.155 C18.174,7.160 18.174,7.165 18.174,7.170 C18.200,7.170 18.227,7.170 18.253,7.170 C18.253,7.175 18.253,7.181 18.253,7.186 C18.274,7.186 18.295,7.186 18.316,7.186 C18.316,7.191 18.316,7.196 18.316,7.201 C18.342,7.201 18.368,7.201 18.394,7.201 C18.394,7.206 18.394,7.211 18.394,7.217 C18.436,7.222 18.478,7.227 18.520,7.232 C18.520,7.237 18.520,7.242 18.520,7.248 C18.562,7.253 18.604,7.258 18.646,7.263 C18.646,7.268 18.646,7.273 18.646,7.279 C18.667,7.279 18.688,7.279 18.709,7.279 C18.709,7.284 18.709,7.289 18.709,7.294 C18.725,7.294 18.741,7.294 18.756,7.294 C18.756,7.299 18.756,7.304 18.756,7.309 C18.793,7.315 18.830,7.320 18.866,7.325 C18.866,7.330 18.866,7.335 18.866,7.340 C18.887,7.340 18.908,7.340 18.929,7.340 C18.929,7.346 18.929,7.351 18.929,7.356 C18.945,7.356 18.961,7.356 18.977,7.356 C18.977,7.361 18.977,7.366 18.977,7.371 C18.992,7.371 19.008,7.371 19.024,7.371 C19.024,7.377 19.024,7.382 19.024,7.387 C19.040,7.387 19.055,7.387 19.071,7.387 C19.071,7.392 19.071,7.397 19.071,7.402 C19.087,7.402 19.102,7.402 19.118,7.402 C19.118,7.407 19.118,7.413 19.118,7.418 C19.134,7.418 19.150,7.418 19.165,7.418 C19.165,7.423 19.165,7.428 19.165,7.433 C19.181,7.433 19.197,7.433 19.213,7.433 C19.213,7.438 19.213,7.444 19.213,7.449 C19.228,7.449 19.244,7.449 19.260,7.449 C19.260,7.454 19.260,7.459 19.260,7.464 C19.307,7.475 19.354,7.485 19.401,7.495 C19.401,7.500 19.401,7.506 19.401,7.511 C19.412,7.511 19.422,7.511 19.433,7.511 C19.433,7.516 19.433,7.521 19.433,7.526 C19.449,7.526 19.464,7.526 19.480,7.526 C19.480,7.531 19.480,7.536 19.480,7.542 C19.491,7.542 19.501,7.542 19.512,7.542 C19.512,7.547 19.512,7.552 19.512,7.557 C19.527,7.557 19.543,7.557 19.559,7.557 C19.559,7.562 19.559,7.567 19.559,7.573 C19.569,7.573 19.580,7.573 19.590,7.573 C19.590,7.578 19.590,7.583 19.590,7.588 C19.606,7.588 19.622,7.588 19.637,7.588 C19.637,7.593 19.637,7.598 19.637,7.604 C19.648,7.604 19.658,7.604 19.669,7.604 C19.669,7.609 19.669,7.614 19.669,7.619 C19.685,7.619 19.700,7.619 19.716,7.619 C19.716,7.624 19.716,7.629 19.716,7.634 C19.737,7.640 19.758,7.645 19.779,7.650 C19.779,7.655 19.779,7.660 19.779,7.665 C19.795,7.665 19.811,7.665 19.826,7.665 C19.826,7.671 19.826,7.676 19.826,7.681 C19.847,7.686 19.868,7.691 19.889,7.696 C19.889,7.702 19.889,7.707 19.889,7.712 C19.915,7.717 19.942,7.722 19.968,7.727 C19.968,7.732 19.968,7.738 19.968,7.743 C19.999,7.753 20.031,7.763 20.062,7.774 C20.062,7.779 20.062,7.784 20.062,7.789 C20.073,7.789 20.083,7.789 20.094,7.789 C20.094,7.794 20.094,7.800 20.094,7.805 C20.104,7.805 20.115,7.805 20.125,7.805 C20.125,7.810 20.125,7.815 20.125,7.820 C20.136,7.820 20.146,7.820 20.157,7.820 C20.157,7.825 20.157,7.830 20.157,7.836 C20.167,7.836 20.178,7.836 20.188,7.836 C20.188,7.841 20.188,7.846 20.188,7.851 C20.199,7.851 20.209,7.851 20.220,7.851 C20.220,7.856 20.220,7.861 20.220,7.867 C20.230,7.867 20.241,7.867 20.251,7.867 C20.251,7.872 20.251,7.877 20.251,7.882 C20.262,7.882 20.272,7.882 20.283,7.882 C20.283,7.887 20.283,7.892 20.283,7.898 C20.293,7.898 20.304,7.898 20.314,7.898 C20.314,7.903 20.314,7.908 20.314,7.913 C20.325,7.913 20.335,7.913 20.346,7.913 C20.351,7.923 20.356,7.934 20.361,7.944 C20.372,7.944 20.382,7.944 20.393,7.944 C20.393,7.949 20.393,7.954 20.393,7.959 C20.403,7.959 20.414,7.959 20.424,7.959 C20.424,7.965 20.424,7.970 20.424,7.975 C20.435,7.975 20.445,7.975 20.456,7.975 C20.456,7.980 20.456,7.985 20.456,7.990 C20.466,7.990 20.477,7.990 20.487,7.990 C20.492,8.001 20.498,8.011 20.503,8.021 C20.534,8.032 20.566,8.042 20.597,8.052 C20.603,8.063 20.608,8.073 20.613,8.083 C20.634,8.088 20.655,8.094 20.676,8.099 C20.681,8.109 20.686,8.119 20.692,8.130 C20.713,8.135 20.734,8.140 20.755,8.145 C20.760,8.155 20.765,8.166 20.770,8.176 C20.781,8.176 20.791,8.176 20.802,8.176 C20.807,8.186 20.812,8.197 20.818,8.207 C20.828,8.207 20.839,8.207 20.849,8.207 C20.854,8.217 20.860,8.228 20.865,8.238 C20.886,8.243 20.907,8.248 20.928,8.253 C20.933,8.264 20.938,8.274 20.943,8.284 C20.954,8.284 20.964,8.284 20.975,8.284 C20.985,8.300 20.996,8.315 21.006,8.331 C21.017,8.331 21.027,8.331 21.038,8.331 C21.038,8.336 21.038,8.341 21.038,8.346 C21.054,8.351 21.069,8.357 21.085,8.362 C21.090,8.372 21.096,8.382 21.101,8.393 C21.111,8.393 21.122,8.393 21.132,8.393 C21.143,8.408 21.153,8.424 21.164,8.439 C21.174,8.439 21.185,8.439 21.195,8.439 C21.200,8.449 21.206,8.460 21.211,8.470 C21.221,8.470 21.232,8.470 21.242,8.470 C21.253,8.486 21.263,8.501 21.274,8.517 C21.284,8.517 21.295,8.517 21.305,8.517 C21.321,8.537 21.337,8.558 21.353,8.578 C21.363,8.578 21.374,8.578 21.384,8.578 C21.395,8.594 21.405,8.609 21.416,8.625 C21.426,8.625 21.437,8.625 21.447,8.625 C21.468,8.651 21.489,8.676 21.510,8.702 C21.520,8.702 21.531,8.702 21.541,8.702 C21.562,8.728 21.583,8.754 21.604,8.780 C21.615,8.780 21.625,8.780 21.636,8.780 C21.667,8.816 21.699,8.852 21.730,8.888 C21.741,8.888 21.751,8.888 21.762,8.888 C21.846,8.976 21.930,9.063 22.013,9.151 C22.108,9.239 22.202,9.326 22.297,9.414 C22.297,9.424 22.297,9.435 22.297,9.445 C22.328,9.471 22.360,9.497 22.391,9.522 C22.391,9.533 22.391,9.543 22.391,9.553 C22.417,9.574 22.444,9.595 22.470,9.615 C22.470,9.626 22.470,9.636 22.470,9.646 C22.496,9.667 22.522,9.687 22.548,9.708 C22.548,9.718 22.548,9.729 22.548,9.739 C22.559,9.744 22.569,9.749 22.580,9.754 C22.585,9.770 22.590,9.785 22.596,9.801 C22.617,9.816 22.638,9.832 22.659,9.847 C22.659,9.858 22.659,9.868 22.659,9.878 C22.669,9.883 22.680,9.889 22.690,9.894 C22.690,9.904 22.690,9.914 22.690,9.925 C22.706,9.935 22.722,9.945 22.737,9.956 C22.737,9.966 22.737,9.976 22.737,9.987 C22.753,9.997 22.769,10.007 22.784,10.018 C22.784,10.028 22.784,10.038 22.784,10.049 C22.795,10.054 22.805,10.059 22.816,10.064 C22.821,10.079 22.826,10.095 22.832,10.110 C22.837,10.110 22.842,10.110 22.847,10.110 C22.847,10.121 22.847,10.131 22.847,10.141 C22.858,10.147 22.868,10.152 22.879,10.157 C22.879,10.167 22.879,10.177 22.879,10.188 C22.889,10.193 22.900,10.198 22.910,10.203 C22.910,10.214 22.910,10.224 22.910,10.234 C22.921,10.239 22.931,10.245 22.942,10.250 C22.947,10.265 22.952,10.281 22.958,10.296 C22.963,10.296 22.968,10.296 22.973,10.296 C22.979,10.317 22.984,10.337 22.989,10.358 C22.994,10.358 23.000,10.358 23.005,10.358 C23.010,10.373 23.015,10.389 23.020,10.404 C23.031,10.410 23.041,10.415 23.052,10.420 C23.057,10.441 23.062,10.461 23.068,10.482 C23.078,10.487 23.089,10.492 23.099,10.497 C23.110,10.528 23.120,10.559 23.131,10.590 C23.141,10.595 23.152,10.600 23.162,10.606 C23.162,10.616 23.162,10.626 23.162,10.637 C23.167,10.637 23.173,10.637 23.178,10.637 C23.178,10.647 23.178,10.657 23.178,10.667 C23.183,10.667 23.188,10.667 23.194,10.667 C23.194,10.678 23.194,10.688 23.194,10.698 C23.199,10.698 23.204,10.698 23.209,10.698 C23.209,10.709 23.209,10.719 23.209,10.729 C23.215,10.729 23.220,10.729 23.225,10.729 C23.225,10.740 23.225,10.750 23.225,10.760 C23.236,10.765 23.246,10.771 23.257,10.776 C23.262,10.796 23.267,10.817 23.272,10.838 C23.278,10.838 23.283,10.838 23.288,10.838 C23.288,10.848 23.288,10.858 23.288,10.869 C23.293,10.869 23.298,10.869 23.304,10.869 C23.314,10.900 23.325,10.931 23.335,10.962 C23.340,10.962 23.346,10.962 23.351,10.962 C23.351,10.977 23.351,10.992 23.351,11.008 C23.356,11.008 23.361,11.008 23.367,11.008 C23.367,11.018 23.367,11.029 23.367,11.039 C23.372,11.039 23.377,11.039 23.382,11.039 C23.382,11.049 23.382,11.060 23.382,11.070 C23.388,11.070 23.393,11.070 23.398,11.070 C23.409,11.101 23.419,11.132 23.430,11.163 C23.435,11.163 23.440,11.163 23.445,11.163 C23.445,11.178 23.445,11.194 23.445,11.209 C23.451,11.209 23.456,11.209 23.461,11.209 C23.466,11.230 23.472,11.250 23.477,11.271 C23.482,11.271 23.487,11.271 23.493,11.271 C23.493,11.286 23.493,11.302 23.493,11.317 C23.498,11.317 23.503,11.317 23.508,11.317 C23.508,11.328 23.508,11.338 23.508,11.348 C23.514,11.348 23.519,11.348 23.524,11.348 C23.529,11.374 23.535,11.400 23.540,11.426 C23.545,11.426 23.550,11.426 23.555,11.426 C23.555,11.441 23.555,11.457 23.555,11.472 C23.561,11.472 23.566,11.472 23.571,11.472 C23.571,11.482 23.571,11.493 23.571,11.503 C23.576,11.503 23.582,11.503 23.587,11.503 C23.587,11.519 23.587,11.534 23.587,11.550 C23.592,11.550 23.597,11.550 23.603,11.550 C23.603,11.565 23.603,11.580 23.603,11.596 C23.608,11.596 23.613,11.596 23.618,11.596 C23.618,11.611 23.618,11.627 23.618,11.642 C23.624,11.642 23.629,11.642 23.634,11.642 C23.634,11.658 23.634,11.673 23.634,11.689 C23.639,11.689 23.645,11.689 23.650,11.689 C23.650,11.699 23.650,11.709 23.650,11.720 C23.655,11.720 23.660,11.720 23.666,11.720 C23.666,11.735 23.666,11.751 23.666,11.766 C23.671,11.766 23.676,11.766 23.681,11.766 C23.702,11.854 23.723,11.942 23.744,12.029 C23.915,12.499 23.996,13.116 23.996,13.747 C23.996,13.885 24.012,14.069 23.980,14.180 C23.956,14.265 23.986,14.399 23.965,14.474 Z"/>
</svg>