<svg 
 xmlns="http://www.w3.org/2000/svg"
 xmlns:xlink="http://www.w3.org/1999/xlink"
 width="33px" height="33px">
<path fill-rule="evenodd"  fill="rgb(144, 143, 150)"
 d="M16.500,33.000 C7.402,33.000 -0.000,25.598 -0.000,16.500 C-0.000,7.402 7.402,-0.000 16.500,-0.000 C25.598,-0.000 33.000,7.402 33.000,16.500 C33.000,25.598 25.598,33.000 16.500,33.000 ZM16.500,1.320 C8.130,1.320 1.320,8.130 1.320,16.500 C1.320,24.870 8.130,31.680 16.500,31.680 C24.870,31.680 31.680,24.870 31.680,16.500 C31.680,8.130 24.870,1.320 16.500,1.320 ZM24.962,17.443 C24.962,17.593 24.962,17.742 24.962,17.891 C24.956,17.891 24.949,17.891 24.943,17.891 C24.943,18.003 24.943,18.115 24.943,18.228 C24.937,18.228 24.930,18.228 24.924,18.228 C24.924,18.315 24.924,18.402 24.924,18.489 C24.918,18.489 24.911,18.489 24.905,18.489 C24.905,18.508 24.905,18.526 24.905,18.545 C24.905,18.607 24.905,18.670 24.905,18.732 C24.899,18.732 24.892,18.732 24.886,18.732 C24.886,18.800 24.886,18.869 24.886,18.937 C24.880,18.937 24.873,18.937 24.867,18.937 C24.867,18.999 24.867,19.062 24.867,19.124 C24.808,19.329 24.813,19.598 24.753,19.796 C24.753,19.834 24.753,19.871 24.753,19.908 C24.702,20.101 24.651,20.294 24.601,20.487 C24.594,20.487 24.588,20.487 24.582,20.487 C24.582,20.500 24.582,20.512 24.582,20.525 C24.575,20.525 24.569,20.525 24.563,20.525 C24.563,20.543 24.563,20.562 24.563,20.581 C24.556,20.581 24.550,20.581 24.544,20.581 C24.537,20.606 24.531,20.630 24.525,20.655 C24.518,20.655 24.512,20.655 24.506,20.655 C24.506,20.668 24.506,20.680 24.506,20.693 C24.493,20.699 24.480,20.705 24.468,20.711 C24.455,20.749 24.442,20.786 24.430,20.823 C24.417,20.830 24.404,20.836 24.392,20.842 C24.392,20.855 24.392,20.867 24.392,20.879 C24.373,20.892 24.354,20.904 24.335,20.917 C24.335,20.929 24.335,20.942 24.335,20.954 C24.316,20.967 24.297,20.979 24.278,20.992 C24.278,21.004 24.278,21.016 24.278,21.029 C24.164,21.135 24.049,21.241 23.935,21.346 C23.923,21.346 23.910,21.346 23.897,21.346 C23.885,21.365 23.872,21.384 23.859,21.402 C23.847,21.402 23.834,21.402 23.821,21.402 C23.815,21.415 23.809,21.427 23.802,21.440 C23.777,21.446 23.752,21.452 23.726,21.458 C23.720,21.471 23.714,21.483 23.707,21.496 C23.682,21.502 23.657,21.508 23.631,21.514 C23.631,21.521 23.631,21.527 23.631,21.533 C23.606,21.539 23.581,21.546 23.555,21.552 C23.555,21.558 23.555,21.564 23.555,21.570 C23.524,21.577 23.492,21.583 23.460,21.589 C23.460,21.595 23.460,21.602 23.460,21.608 C23.403,21.620 23.346,21.633 23.289,21.645 C23.289,21.651 23.289,21.658 23.289,21.664 C23.264,21.664 23.238,21.664 23.213,21.664 C23.213,21.670 23.213,21.676 23.213,21.683 C23.156,21.689 23.099,21.695 23.042,21.701 C23.042,21.707 23.042,21.714 23.042,21.720 C23.004,21.720 22.966,21.720 22.928,21.720 C22.928,21.726 22.928,21.732 22.928,21.739 C22.890,21.739 22.852,21.739 22.814,21.739 C22.814,21.745 22.814,21.751 22.814,21.757 C22.763,21.757 22.712,21.757 22.662,21.757 C22.662,21.763 22.662,21.770 22.662,21.776 C22.611,21.776 22.560,21.776 22.510,21.776 C22.510,21.782 22.510,21.788 22.510,21.795 C22.453,21.795 22.396,21.795 22.339,21.795 C22.339,21.801 22.339,21.807 22.339,21.813 C22.110,21.826 21.882,21.838 21.654,21.851 C21.654,21.857 21.654,21.863 21.654,21.869 C21.515,21.875 21.375,21.882 21.236,21.888 C21.166,21.888 21.097,21.888 21.027,21.888 C21.027,21.894 21.027,21.900 21.027,21.907 C20.912,21.938 20.731,21.897 20.628,21.925 C20.476,21.925 20.323,21.925 20.171,21.925 C20.171,21.932 20.171,21.938 20.171,21.944 C19.975,21.944 19.779,21.944 19.582,21.944 C19.362,22.005 19.052,21.922 18.803,21.963 C18.776,21.967 18.810,21.974 18.784,21.981 C18.359,21.981 17.935,21.981 17.510,21.981 C17.440,21.981 17.371,21.981 17.301,21.981 C17.301,21.988 17.301,21.994 17.301,22.000 C17.250,22.000 17.200,22.000 17.149,22.000 C16.987,22.000 16.806,21.993 16.674,21.981 C16.496,21.981 16.319,21.981 16.141,21.981 C15.820,21.981 15.463,21.975 15.172,21.963 C14.925,21.963 14.677,21.963 14.430,21.963 C14.430,21.956 14.430,21.950 14.430,21.944 C14.411,21.944 14.392,21.944 14.373,21.944 C14.201,21.936 13.981,21.964 13.841,21.925 C13.689,21.925 13.537,21.925 13.385,21.925 C13.281,21.897 13.101,21.939 12.986,21.907 C12.986,21.900 12.986,21.894 12.986,21.888 C12.872,21.888 12.757,21.888 12.643,21.888 C12.643,21.882 12.643,21.875 12.643,21.869 C12.618,21.869 12.593,21.869 12.567,21.869 C12.498,21.869 12.428,21.869 12.358,21.869 C12.358,21.863 12.358,21.857 12.358,21.851 C12.194,21.844 12.029,21.838 11.864,21.832 C11.864,21.826 11.864,21.819 11.864,21.813 C11.801,21.813 11.737,21.813 11.674,21.813 C11.674,21.807 11.674,21.801 11.674,21.795 C11.617,21.795 11.560,21.795 11.503,21.795 C11.503,21.788 11.503,21.782 11.503,21.776 C11.452,21.776 11.401,21.776 11.351,21.776 C11.351,21.770 11.351,21.763 11.351,21.757 C11.300,21.757 11.249,21.757 11.199,21.757 C11.199,21.751 11.199,21.745 11.199,21.739 C11.161,21.739 11.123,21.739 11.085,21.739 C11.085,21.732 11.085,21.726 11.085,21.720 C11.047,21.720 11.009,21.720 10.971,21.720 C10.971,21.714 10.971,21.707 10.971,21.701 C10.913,21.695 10.856,21.689 10.799,21.683 C10.799,21.676 10.799,21.670 10.799,21.664 C10.774,21.664 10.749,21.664 10.723,21.664 C10.723,21.658 10.723,21.651 10.723,21.645 C10.666,21.633 10.609,21.620 10.552,21.608 C10.552,21.602 10.552,21.595 10.552,21.589 C10.521,21.583 10.489,21.577 10.457,21.570 C10.457,21.564 10.457,21.558 10.457,21.552 C10.432,21.546 10.407,21.539 10.381,21.533 C10.381,21.527 10.381,21.521 10.381,21.514 C10.356,21.508 10.331,21.502 10.305,21.496 C10.299,21.483 10.292,21.471 10.286,21.458 C10.261,21.452 10.235,21.446 10.210,21.440 C10.204,21.427 10.197,21.415 10.191,21.402 C10.178,21.402 10.166,21.402 10.153,21.402 C10.140,21.384 10.128,21.365 10.115,21.346 C10.102,21.346 10.090,21.346 10.077,21.346 C10.064,21.328 10.052,21.309 10.039,21.290 C10.026,21.290 10.014,21.290 10.001,21.290 C9.944,21.228 9.887,21.166 9.830,21.104 C9.798,21.079 9.767,21.054 9.735,21.029 C9.735,21.016 9.735,21.004 9.735,20.992 C9.716,20.979 9.697,20.967 9.678,20.954 C9.678,20.942 9.678,20.929 9.678,20.917 C9.659,20.904 9.640,20.892 9.621,20.879 C9.621,20.867 9.621,20.855 9.621,20.842 C9.608,20.836 9.595,20.830 9.583,20.823 C9.570,20.786 9.557,20.749 9.545,20.711 C9.532,20.705 9.519,20.699 9.507,20.693 C9.507,20.680 9.507,20.668 9.507,20.655 C9.500,20.655 9.494,20.655 9.488,20.655 C9.481,20.630 9.475,20.606 9.469,20.581 C9.462,20.581 9.456,20.581 9.450,20.581 C9.399,20.419 9.348,20.257 9.298,20.095 C9.291,20.033 9.285,19.971 9.279,19.908 C9.220,19.719 9.221,19.470 9.165,19.273 C9.165,19.224 9.165,19.174 9.165,19.124 C9.158,19.124 9.152,19.124 9.146,19.124 C9.146,19.062 9.146,18.999 9.146,18.937 C9.139,18.937 9.133,18.937 9.127,18.937 C9.127,18.869 9.127,18.800 9.127,18.732 C9.120,18.732 9.114,18.732 9.108,18.732 C9.108,18.651 9.108,18.570 9.108,18.489 C9.101,18.489 9.095,18.489 9.089,18.489 C9.089,18.470 9.089,18.452 9.089,18.433 C9.089,18.364 9.089,18.296 9.089,18.228 C9.082,18.228 9.076,18.228 9.070,18.228 C9.070,18.115 9.070,18.003 9.070,17.891 C9.063,17.891 9.057,17.891 9.050,17.891 C9.050,17.742 9.050,17.593 9.050,17.443 C8.997,17.253 9.037,16.958 9.031,16.733 C9.029,16.629 8.976,16.467 9.012,16.341 C9.019,16.341 9.025,16.341 9.031,16.341 C9.031,16.192 9.031,16.042 9.031,15.893 C9.031,15.781 9.031,15.669 9.031,15.557 C9.038,15.557 9.044,15.557 9.050,15.557 C9.050,15.407 9.050,15.258 9.050,15.109 C9.057,15.109 9.063,15.109 9.070,15.109 C9.070,14.997 9.070,14.885 9.070,14.772 C9.076,14.772 9.082,14.772 9.089,14.772 C9.101,14.536 9.114,14.299 9.127,14.063 C9.133,14.063 9.139,14.063 9.146,14.063 C9.146,14.001 9.146,13.938 9.146,13.876 C9.152,13.876 9.158,13.876 9.165,13.876 C9.165,13.826 9.165,13.776 9.165,13.727 C9.171,13.727 9.177,13.727 9.184,13.727 C9.184,13.677 9.184,13.627 9.184,13.577 C9.190,13.577 9.196,13.577 9.203,13.577 C9.209,13.490 9.215,13.403 9.222,13.316 C9.228,13.316 9.234,13.316 9.241,13.316 C9.247,13.241 9.253,13.166 9.260,13.092 C9.305,12.942 9.338,12.762 9.393,12.625 C9.399,12.587 9.405,12.550 9.412,12.513 C9.481,12.382 9.551,12.251 9.621,12.121 C9.633,12.114 9.646,12.108 9.659,12.102 C9.665,12.083 9.671,12.065 9.678,12.046 C9.697,12.033 9.716,12.021 9.735,12.008 C9.735,11.996 9.735,11.984 9.735,11.971 C9.792,11.921 9.849,11.872 9.906,11.822 C9.938,11.784 9.969,11.747 10.001,11.710 C10.014,11.710 10.026,11.710 10.039,11.710 C10.052,11.691 10.064,11.672 10.077,11.654 C10.090,11.654 10.102,11.654 10.115,11.654 C10.128,11.635 10.140,11.616 10.153,11.598 C10.166,11.598 10.178,11.598 10.191,11.598 C10.197,11.585 10.204,11.573 10.210,11.560 C10.235,11.554 10.261,11.548 10.286,11.542 C10.292,11.529 10.299,11.517 10.305,11.504 C10.331,11.498 10.356,11.492 10.381,11.486 C10.381,11.479 10.381,11.473 10.381,11.467 C10.407,11.461 10.432,11.454 10.457,11.448 C10.457,11.442 10.457,11.436 10.457,11.430 C10.597,11.386 10.736,11.342 10.875,11.299 C10.945,11.293 11.015,11.286 11.085,11.280 C11.085,11.274 11.085,11.268 11.085,11.261 C11.123,11.261 11.161,11.261 11.199,11.261 C11.199,11.255 11.199,11.249 11.199,11.243 C11.249,11.243 11.300,11.243 11.351,11.243 C11.351,11.237 11.351,11.230 11.351,11.224 C11.401,11.224 11.452,11.224 11.503,11.224 C11.503,11.218 11.503,11.212 11.503,11.205 C11.560,11.205 11.617,11.205 11.674,11.205 C11.674,11.199 11.674,11.193 11.674,11.187 C11.737,11.187 11.801,11.187 11.864,11.187 C11.864,11.181 11.864,11.174 11.864,11.168 C11.940,11.168 12.016,11.168 12.092,11.168 C12.092,11.162 12.092,11.156 12.092,11.149 C12.213,11.143 12.333,11.137 12.453,11.131 C12.517,11.131 12.580,11.131 12.643,11.131 C12.643,11.125 12.643,11.118 12.643,11.112 C12.757,11.112 12.872,11.112 12.986,11.112 C12.986,11.106 12.986,11.100 12.986,11.093 C13.119,11.093 13.252,11.093 13.385,11.093 C13.385,11.087 13.385,11.081 13.385,11.075 C13.537,11.075 13.689,11.075 13.841,11.075 C13.841,11.068 13.841,11.062 13.841,11.056 C13.936,11.056 14.031,11.056 14.126,11.056 C14.228,11.056 14.329,11.056 14.430,11.056 C14.430,11.050 14.430,11.044 14.430,11.037 C14.988,11.031 15.546,11.025 16.103,11.019 C16.249,11.019 16.395,11.019 16.540,11.019 C16.601,11.019 16.679,11.028 16.712,11.000 C17.402,11.006 18.093,11.012 18.784,11.019 C18.784,11.025 18.784,11.031 18.784,11.037 C18.809,11.037 18.834,11.037 18.860,11.037 C19.100,11.037 19.341,11.037 19.582,11.037 C19.582,11.044 19.582,11.050 19.582,11.056 C19.601,11.056 19.620,11.056 19.639,11.056 C19.811,11.064 20.031,11.036 20.171,11.075 C20.298,11.075 20.425,11.075 20.552,11.075 C20.577,11.075 20.602,11.075 20.628,11.075 C20.628,11.081 20.628,11.087 20.628,11.093 C20.761,11.093 20.894,11.093 21.027,11.093 C21.027,11.100 21.027,11.106 21.027,11.112 C21.141,11.112 21.255,11.112 21.369,11.112 C21.369,11.118 21.369,11.125 21.369,11.131 C21.692,11.149 22.015,11.168 22.339,11.187 C22.555,11.247 22.835,11.237 23.042,11.299 C23.074,11.299 23.105,11.299 23.137,11.299 C23.137,11.305 23.137,11.311 23.137,11.317 C23.188,11.324 23.238,11.330 23.289,11.336 C23.289,11.342 23.289,11.349 23.289,11.355 C23.346,11.367 23.403,11.380 23.460,11.392 C23.460,11.398 23.460,11.405 23.460,11.411 C23.492,11.417 23.524,11.423 23.555,11.430 C23.555,11.436 23.555,11.442 23.555,11.448 C23.581,11.454 23.606,11.461 23.631,11.467 C23.631,11.473 23.631,11.479 23.631,11.486 C23.657,11.492 23.682,11.498 23.707,11.504 C23.714,11.517 23.720,11.529 23.726,11.542 C23.752,11.548 23.777,11.554 23.802,11.560 C23.809,11.573 23.815,11.585 23.821,11.598 C23.834,11.598 23.847,11.598 23.859,11.598 C23.872,11.616 23.885,11.635 23.897,11.654 C23.910,11.654 23.923,11.654 23.935,11.654 C23.948,11.672 23.961,11.691 23.973,11.710 C23.986,11.710 23.999,11.710 24.011,11.710 C24.049,11.753 24.088,11.797 24.126,11.840 C24.176,11.884 24.227,11.928 24.278,11.971 C24.432,12.183 24.561,12.412 24.658,12.681 C24.709,12.930 24.759,13.179 24.810,13.428 C24.810,13.478 24.810,13.527 24.810,13.577 C24.816,13.577 24.823,13.577 24.829,13.577 C24.829,13.627 24.829,13.677 24.829,13.727 C24.835,13.727 24.842,13.727 24.848,13.727 C24.848,13.776 24.848,13.826 24.848,13.876 C24.854,13.876 24.861,13.876 24.867,13.876 C24.867,13.938 24.867,14.001 24.867,14.063 C24.873,14.063 24.880,14.063 24.886,14.063 C24.886,14.131 24.886,14.200 24.886,14.268 C24.892,14.268 24.899,14.268 24.905,14.268 C24.905,14.349 24.905,14.430 24.905,14.511 C24.911,14.511 24.918,14.511 24.924,14.511 C24.924,14.598 24.924,14.685 24.924,14.772 C24.930,14.772 24.937,14.772 24.943,14.772 C24.943,14.885 24.943,14.997 24.943,15.109 C24.949,15.109 24.956,15.109 24.962,15.109 C24.962,15.258 24.962,15.407 24.962,15.557 C24.968,15.557 24.975,15.557 24.981,15.557 C24.981,15.576 24.981,15.594 24.981,15.613 C24.981,15.856 24.981,16.098 24.981,16.341 C24.987,16.341 24.994,16.341 25.000,16.341 C24.994,16.478 24.987,16.615 24.981,16.752 C24.978,16.969 25.014,17.260 24.962,17.443 ZM15.400,14.138 C15.400,15.712 15.400,17.288 15.400,18.862 C15.406,18.862 15.413,18.862 15.419,18.862 C15.486,18.788 15.596,18.768 15.685,18.713 C15.691,18.701 15.698,18.688 15.704,18.676 C15.742,18.663 15.780,18.651 15.818,18.638 C15.824,18.626 15.831,18.613 15.837,18.601 C15.875,18.589 15.913,18.576 15.951,18.564 C15.958,18.551 15.964,18.539 15.970,18.526 C16.008,18.514 16.046,18.501 16.084,18.489 C16.091,18.477 16.097,18.464 16.103,18.452 C16.129,18.445 16.154,18.439 16.179,18.433 C16.186,18.420 16.192,18.408 16.198,18.396 C16.211,18.396 16.224,18.396 16.236,18.396 C16.236,18.389 16.236,18.383 16.236,18.377 C16.249,18.377 16.262,18.377 16.274,18.377 C16.274,18.371 16.274,18.364 16.274,18.358 C16.287,18.358 16.300,18.358 16.312,18.358 C16.319,18.346 16.325,18.333 16.331,18.321 C16.369,18.308 16.407,18.296 16.445,18.284 C17.125,17.863 17.857,17.491 18.537,17.070 C18.575,17.057 18.613,17.045 18.651,17.032 C18.657,17.020 18.663,17.007 18.670,16.995 C18.682,16.995 18.695,16.995 18.708,16.995 C18.708,16.989 18.708,16.982 18.708,16.976 C18.720,16.976 18.733,16.976 18.746,16.976 C18.752,16.964 18.758,16.951 18.765,16.939 C18.803,16.926 18.841,16.914 18.879,16.902 C18.885,16.889 18.891,16.877 18.898,16.864 C18.936,16.852 18.974,16.839 19.012,16.827 C19.018,16.814 19.024,16.802 19.031,16.789 C19.069,16.777 19.107,16.765 19.145,16.752 C19.151,16.740 19.158,16.727 19.164,16.715 C19.189,16.709 19.215,16.702 19.240,16.696 C19.246,16.684 19.253,16.671 19.259,16.659 C19.272,16.659 19.284,16.659 19.297,16.659 C19.297,16.653 19.297,16.646 19.297,16.640 C19.310,16.640 19.322,16.640 19.335,16.640 C19.335,16.634 19.335,16.628 19.335,16.621 C19.348,16.621 19.360,16.621 19.373,16.621 C19.379,16.609 19.386,16.596 19.392,16.584 C19.460,16.542 19.500,16.563 19.544,16.491 C18.163,15.706 16.781,14.922 15.400,14.138 Z"/>
</svg>