<svg 
 xmlns="http://www.w3.org/2000/svg"
 xmlns:xlink="http://www.w3.org/1999/xlink"
 width="177px" height="204px">
<path fill-rule="evenodd"  fill="rgb(2, 1, 34)"
 d="M91.183,203.264 C91.074,203.346 90.960,203.424 90.841,203.493 C90.252,203.827 89.593,204.000 88.938,204.000 C88.320,204.000 87.706,203.843 87.148,203.527 C86.446,203.129 73.886,195.907 58.478,181.363 C55.228,183.647 51.275,184.999 47.000,184.999 C35.954,184.999 27.000,176.045 27.000,164.999 C27.000,159.687 29.086,154.871 32.465,151.290 C15.004,126.225 -1.500,89.253 1.287,40.890 C1.384,39.224 2.601,37.834 4.251,37.506 C50.001,28.423 85.283,2.476 86.762,1.375 C86.818,1.332 86.879,1.289 86.937,1.249 L87.837,0.647 C89.159,-0.238 90.907,-0.185 92.168,0.784 C92.518,1.052 127.726,27.756 173.717,36.888 C175.365,37.216 176.584,38.606 176.681,40.271 C182.906,148.350 98.496,199.102 91.183,203.264 ZM169.442,43.490 C129.211,34.842 98.243,14.207 89.853,8.206 C83.183,12.942 50.326,35.123 8.525,44.106 C6.684,87.837 21.229,122.014 38.582,146.876 C41.143,145.684 43.989,144.999 47.000,144.999 C58.046,144.999 67.000,153.954 67.000,164.999 C67.000,169.057 65.784,172.826 63.708,175.979 C75.187,186.855 85.007,193.517 88.963,196.030 C101.033,188.597 173.558,139.777 169.442,43.490 ZM88.984,185.474 L88.984,186.003 C88.984,186.003 81.629,181.823 71.623,173.336 C72.510,170.718 73.000,167.917 73.000,164.999 C73.000,150.640 61.359,139.000 47.000,139.000 C45.091,139.000 43.235,139.222 41.443,139.613 C26.828,117.740 15.045,87.981 17.234,49.987 C57.750,41.944 88.969,18.569 88.984,18.560 L89.814,18.031 C89.815,18.033 120.210,41.415 160.735,49.458 C166.047,141.709 89.011,185.456 88.984,185.474 Z"/>
<path fill-rule="evenodd"  fill="rgb(255, 227, 99)"
 d="M46.500,153.000 C53.404,153.000 59.000,158.596 59.000,165.500 C59.000,172.403 53.404,178.000 46.500,178.000 C39.596,178.000 34.000,172.403 34.000,165.500 C34.000,158.596 39.596,153.000 46.500,153.000 Z"/>
<path fill-rule="evenodd"  fill="rgb(2, 1, 34)"
 d="M42.500,169.999 C41.675,169.999 41.000,170.674 41.000,171.499 C41.000,172.324 41.675,172.999 42.500,172.999 C43.325,172.999 44.000,172.324 44.000,171.499 C44.000,170.674 43.325,169.999 42.500,169.999 ZM38.000,157.999 L38.000,159.500 L39.500,159.500 L42.200,165.199 L41.150,166.999 C41.075,167.224 41.000,167.525 41.000,167.749 C41.000,168.574 41.675,169.249 42.500,169.249 L51.500,169.249 L51.500,167.749 L42.800,167.749 C42.725,167.749 42.650,167.674 42.650,167.599 L42.650,167.525 L43.325,166.250 L48.875,166.250 C49.475,166.250 49.925,165.949 50.150,165.500 L52.850,160.624 C53.000,160.474 53.000,160.400 53.000,160.250 C53.000,159.799 52.700,159.500 52.250,159.500 L41.150,159.500 L40.475,157.999 L38.000,157.999 ZM50.000,169.999 C49.175,169.999 48.500,170.674 48.500,171.499 C48.500,172.324 49.175,172.999 50.000,172.999 C50.825,172.999 51.500,172.324 51.500,171.499 C51.500,170.674 50.825,169.999 50.000,169.999 Z"/>
<path fill-rule="evenodd"  fill="rgb(255, 227, 99)"
 d="M72.664,83.346 L72.664,79.278 C72.664,73.785 83.478,71.142 88.988,71.142 C94.497,71.142 105.311,73.785 105.311,79.278 L105.311,83.346 L72.664,83.346 ZM88.988,67.073 C84.498,67.073 80.826,63.412 80.826,58.937 C80.826,54.462 84.498,50.801 88.988,50.801 C93.477,50.801 97.149,54.462 97.149,58.937 C97.149,63.412 93.477,67.073 88.988,67.073 Z"/>
</svg>