<svg 
 xmlns="http://www.w3.org/2000/svg"
 xmlns:xlink="http://www.w3.org/1999/xlink"
 width="61px" height="97px">
<path fill-rule="evenodd"  fill="rgb(2, 1, 34)"
 d="M18.260,15.898 C18.260,13.887 19.873,12.256 21.862,12.256 C23.851,12.256 25.463,13.887 25.463,15.898 C25.463,17.911 23.851,19.542 21.862,19.542 C19.873,19.542 18.260,17.911 18.260,15.898 ZM34.212,35.065 C34.212,38.847 32.626,42.272 30.101,44.668 C28.340,43.717 26.637,43.479 25.384,43.479 C25.032,43.479 24.680,43.500 24.328,43.539 C23.447,43.618 20.844,44.133 18.926,46.965 C18.711,47.281 18.534,47.578 18.358,47.915 C12.545,46.589 8.201,41.341 8.201,35.065 C8.201,27.798 14.013,21.898 21.196,21.898 C28.379,21.898 34.212,27.798 34.212,35.065 ZM30.082,34.530 C30.082,34.194 29.906,34.015 29.553,34.015 C29.162,34.015 28.790,33.996 28.399,34.015 C28.007,34.035 27.811,33.857 27.714,33.481 C27.479,32.610 27.009,31.857 26.324,31.283 C24.406,29.679 21.607,30.293 20.374,32.550 C20.002,33.243 19.709,33.996 19.396,34.748 C19.219,35.184 19.024,35.599 18.730,35.956 C18.163,36.669 17.243,36.550 16.871,35.698 C16.753,35.480 16.734,35.223 16.714,34.965 C16.656,33.976 16.832,33.065 17.262,32.174 C17.458,31.738 17.399,31.580 16.949,31.441 C16.460,31.283 15.990,31.145 15.501,31.006 C15.188,30.907 14.972,31.026 14.835,31.343 C14.601,31.916 14.424,32.491 14.326,33.104 C14.209,33.897 14.190,33.897 13.407,33.897 C12.291,33.916 12.291,33.916 12.311,35.025 C12.311,35.184 12.311,35.362 12.311,35.520 C12.311,36.055 12.409,36.134 12.937,36.154 C13.172,36.154 13.407,36.154 13.641,36.154 C14.346,36.174 14.346,36.174 14.581,36.847 C15.168,38.470 16.284,39.500 18.045,39.599 C19.611,39.698 20.668,38.886 21.431,37.580 C21.901,36.787 22.175,35.897 22.547,35.045 C22.684,34.708 22.840,34.392 23.075,34.114 C23.741,33.283 24.856,33.441 25.267,34.411 C25.502,34.926 25.561,35.480 25.482,36.035 C25.365,36.906 25.150,37.738 24.739,38.510 C24.504,38.966 24.563,39.104 25.052,39.262 C25.463,39.401 25.893,39.520 26.324,39.638 C26.892,39.797 27.029,39.737 27.303,39.183 C27.635,38.470 27.811,37.718 27.929,36.946 C28.027,36.332 28.046,36.312 28.673,36.312 C28.947,36.312 29.240,36.312 29.514,36.312 C29.867,36.312 30.082,36.154 30.082,35.778 C30.101,35.362 30.101,34.946 30.082,34.530 ZM59.949,61.577 C59.870,62.171 59.675,62.725 59.440,63.280 C57.972,66.725 55.467,89.396 54.821,95.495 C54.723,96.346 54.018,96.999 53.157,96.999 L35.053,96.999 C34.114,96.999 33.370,96.227 33.370,95.296 L33.370,93.554 C27.811,87.673 25.796,79.179 25.796,79.179 L23.995,63.518 C19.963,49.420 24.837,49.003 24.837,49.003 C25.013,48.984 25.169,48.984 25.345,48.984 C31.785,48.984 32.920,61.834 32.920,61.834 C32.920,61.834 35.229,66.665 37.304,68.210 L37.304,55.696 L37.304,12.156 C36.951,12.215 36.580,12.256 36.208,12.256 C32.881,12.256 30.199,9.543 30.199,6.177 C30.199,5.820 30.238,5.464 30.297,5.108 L12.056,5.108 C12.115,5.464 12.154,5.820 12.154,6.177 C12.154,9.523 9.473,12.256 6.145,12.256 C5.774,12.256 5.402,12.215 5.049,12.156 L5.049,56.765 C5.852,56.568 6.733,56.508 7.633,56.687 C10.079,57.142 12.017,59.142 12.448,61.616 C12.604,62.508 12.545,63.379 12.350,64.170 L16.264,64.170 L18.221,64.170 C18.397,64.330 18.515,64.428 18.691,64.587 L19.239,69.299 L15.736,69.299 L5.930,69.299 C2.662,69.299 -0.000,66.625 -0.000,63.300 L-0.000,5.998 C-0.000,2.692 2.642,-0.001 5.930,-0.001 L36.482,-0.001 C39.750,-0.001 42.412,2.672 42.412,5.998 L42.412,38.728 C45.446,40.510 56.680,53.123 57.757,53.974 C60.399,56.073 60.281,59.636 59.949,61.577 Z"/>
</svg>