<svg 
 xmlns="http://www.w3.org/2000/svg"
 xmlns:xlink="http://www.w3.org/1999/xlink"
 width="78px" height="77px">
<path fill-rule="evenodd"  fill="rgb(2, 1, 34)"
 d="M54.172,62.595 C53.205,60.816 51.827,59.261 50.135,58.075 L50.129,58.071 L50.124,58.067 C48.881,57.198 47.675,56.274 46.507,55.304 C59.299,55.086 69.638,44.682 69.638,31.918 C69.638,19.016 59.079,8.520 46.099,8.520 C38.279,8.520 31.342,12.333 27.059,18.183 C26.967,17.113 26.902,16.042 26.874,14.970 L26.873,14.963 L26.873,14.956 C26.806,12.579 26.095,10.276 24.842,8.296 C30.489,3.271 37.940,0.210 46.099,0.210 C63.689,0.210 78.000,14.433 77.999,31.918 C77.999,46.629 67.866,59.032 54.172,62.595 ZM45.263,39.712 C45.263,40.994 44.214,42.036 42.924,42.036 L32.401,42.036 C31.933,42.036 31.498,41.826 31.209,41.461 C30.920,41.094 30.817,40.624 30.928,40.173 C31.165,39.212 31.558,38.276 32.095,37.391 C32.857,36.136 34.300,34.537 36.505,32.504 C38.611,30.554 39.353,29.708 39.601,29.346 C40.064,28.655 40.300,27.974 40.300,27.320 C40.300,26.616 40.128,26.104 39.774,25.752 C39.419,25.400 38.925,25.229 38.264,25.229 C37.613,25.229 37.118,25.410 36.751,25.782 C36.576,25.958 36.434,26.205 36.325,26.516 C35.980,27.507 35.041,28.172 33.988,28.172 C33.906,28.172 33.823,28.168 33.739,28.160 C32.991,28.085 32.310,27.660 31.918,27.022 C31.525,26.386 31.454,25.589 31.728,24.892 C32.133,23.863 32.735,23.039 33.516,22.444 C34.811,21.460 36.440,20.960 38.359,20.960 C40.471,20.960 42.165,21.545 43.396,22.698 C44.635,23.861 45.263,25.325 45.263,27.049 C45.263,28.010 45.086,28.939 44.739,29.810 C44.398,30.665 43.854,31.568 43.124,32.491 C42.639,33.106 41.798,33.958 40.551,35.095 C39.362,36.179 38.602,36.904 38.291,37.251 C38.251,37.297 38.211,37.342 38.172,37.388 L42.924,37.388 C44.214,37.388 45.263,38.431 45.263,39.712 ZM56.675,42.036 C55.344,42.036 54.261,40.960 54.261,39.638 L54.261,38.035 L47.587,38.035 C46.752,38.035 46.072,37.359 46.072,36.529 L46.072,34.612 C46.072,34.194 46.198,33.790 46.435,33.445 L54.564,21.616 C54.847,21.206 55.314,20.960 55.815,20.960 L57.573,20.960 C58.408,20.960 59.088,21.636 59.088,22.466 L59.088,33.577 L59.329,33.577 C60.566,33.577 61.572,34.577 61.572,35.805 C61.572,37.035 60.566,38.035 59.329,38.035 L59.088,38.035 L59.088,39.638 C59.088,40.960 58.005,42.036 56.675,42.036 ZM54.261,29.150 L51.266,33.577 L54.261,33.577 L54.261,29.150 ZM17.164,32.286 C16.196,32.568 15.228,32.849 14.261,33.130 C16.998,42.421 21.654,51.052 27.925,58.459 C28.697,57.814 29.468,57.168 30.240,56.523 C30.987,55.914 31.895,55.622 32.815,55.622 C34.016,55.622 35.186,56.171 36.144,57.053 C39.398,60.049 41.671,61.975 45.316,64.866 C47.148,66.320 47.970,68.730 46.838,70.640 C44.728,74.577 40.371,76.788 35.458,76.788 C30.801,76.788 25.644,74.799 21.435,70.407 C11.160,59.662 3.976,46.345 0.657,31.893 C-2.010,20.222 5.200,10.682 13.480,10.682 C13.825,10.682 14.172,10.699 14.519,10.732 C16.745,10.853 18.299,12.869 18.515,15.189 C18.936,19.715 19.306,22.168 19.987,27.105 C20.300,29.374 19.297,31.637 17.164,32.286 Z"/>
</svg>