<svg 
 xmlns="http://www.w3.org/2000/svg"
 xmlns:xlink="http://www.w3.org/1999/xlink"
 width="63px" height="72px">
<path fill-rule="evenodd"  fill="rgb(2, 1, 34)"
 d="M0.782,71.989 L0.782,50.471 L62.922,50.471 L62.922,71.989 L0.782,71.989 ZM13.208,53.787 L6.543,53.787 L6.543,64.644 L13.208,64.644 L13.208,53.787 ZM25.434,53.787 L18.765,53.787 L18.765,64.644 L25.434,64.644 L25.434,53.787 ZM37.211,53.787 L30.543,53.787 L30.543,64.644 L37.211,64.644 L37.211,53.787 ZM0.782,37.735 L22.361,28.945 L24.948,37.735 L46.549,28.945 L48.249,37.735 L62.922,37.735 L62.922,47.103 L0.782,47.103 L0.782,37.735 ZM35.088,7.760 L43.752,7.760 L43.752,27.739 L35.088,30.851 L35.088,7.760 ZM40.727,5.998 C40.372,5.402 40.114,4.851 39.817,4.451 C39.488,4.024 39.343,3.981 39.037,3.866 C38.694,3.742 37.998,3.721 37.475,4.007 C36.933,4.274 36.566,4.780 36.120,5.291 C35.662,5.826 35.082,6.310 34.262,6.481 C33.456,6.701 32.446,6.448 31.824,5.881 C30.632,4.703 30.385,3.231 30.632,1.865 L30.808,1.829 C31.627,2.881 32.317,3.894 33.021,4.380 C33.353,4.620 33.617,4.764 34.043,4.787 C34.456,4.784 35.005,4.663 35.559,4.488 C36.120,4.277 36.662,3.917 37.169,3.513 C37.678,3.130 38.133,2.506 39.043,2.361 C39.481,2.300 40.033,2.448 40.391,2.781 C40.753,3.099 40.965,3.497 41.075,3.869 C41.272,4.623 41.224,5.339 40.904,5.998 L40.727,5.998 ZM11.359,7.760 L20.019,7.760 L20.019,27.739 L11.359,30.851 L11.359,7.760 ZM16.825,6.002 C16.462,5.130 16.165,4.300 15.755,3.648 C15.320,2.965 14.942,2.706 14.355,2.602 C13.741,2.477 12.789,2.599 12.043,3.026 C11.254,3.439 10.725,4.129 10.035,4.819 C9.370,5.496 8.531,6.118 7.444,6.327 C6.372,6.586 5.070,6.246 4.248,5.500 C2.635,3.963 2.187,1.940 2.306,0.043 L2.480,0.010 C3.425,1.591 4.320,3.154 5.440,4.001 C5.978,4.421 6.523,4.649 7.220,4.633 C7.904,4.589 8.690,4.350 9.480,4.004 C10.246,3.654 11.002,3.070 11.731,2.531 C12.472,2.006 13.172,1.245 14.359,1.097 C14.933,1.028 15.620,1.226 16.086,1.643 C16.562,2.050 16.846,2.564 17.010,3.067 C17.324,4.071 17.312,5.066 17.000,6.002 L16.825,6.002 Z"/>
</svg>