<svg 
 xmlns="http://www.w3.org/2000/svg"
 xmlns:xlink="http://www.w3.org/1999/xlink"
 width="68px" height="62px">
<path fill-rule="evenodd"  fill="rgb(2, 1, 34)"
 d="M62.255,52.710 L43.276,52.710 L44.028,57.962 L49.153,57.962 L49.153,61.999 L44.606,61.999 L22.571,61.999 L18.024,61.999 L18.024,57.962 L23.149,57.962 L23.901,52.710 L4.922,52.710 C2.208,52.710 -0.000,50.477 -0.000,47.731 L-0.000,41.798 L-0.000,37.761 L-0.000,5.143 C-0.000,2.398 2.208,0.164 4.922,0.164 L62.255,0.164 C64.969,0.164 67.177,2.398 67.177,5.143 L67.177,37.761 L67.177,41.798 L67.177,47.731 C67.177,50.477 64.969,52.710 62.255,52.710 ZM30.840,47.254 L36.337,47.254 L36.337,43.217 L30.840,43.217 L30.840,47.254 ZM63.186,5.143 C63.186,4.624 62.768,4.201 62.255,4.201 L4.922,4.201 C4.409,4.201 3.991,4.624 3.991,5.143 L3.991,37.761 L63.186,37.761 L63.186,5.143 ZM45.657,34.714 L22.153,34.714 L18.679,17.408 L49.130,17.408 L45.657,34.714 ZM32.396,30.678 L35.413,30.678 L35.587,28.080 L32.222,28.080 L32.396,30.678 ZM27.778,21.445 L23.562,21.445 L24.083,24.042 L27.952,24.042 L27.778,21.445 ZM28.222,28.080 L24.893,28.080 L25.415,30.677 L28.396,30.677 L28.222,28.080 ZM31.779,21.445 L31.952,24.042 L35.857,24.042 L36.031,21.445 L31.779,21.445 ZM39.413,30.677 L42.395,30.677 L42.916,28.080 L39.587,28.080 L39.413,30.677 ZM40.031,21.445 L39.857,24.042 L43.726,24.042 L44.248,21.445 L40.031,21.445 ZM38.792,13.602 L41.786,8.356 L45.242,10.375 L42.248,15.621 L38.792,13.602 ZM31.909,7.303 L35.900,7.303 L35.900,13.360 L31.909,13.360 L31.909,7.303 ZM22.566,10.374 L26.022,8.355 L29.016,13.601 L25.560,15.619 L22.566,10.374 Z"/>
</svg>