<svg 
 xmlns="http://www.w3.org/2000/svg"
 xmlns:xlink="http://www.w3.org/1999/xlink"
 width="68px" height="68px">
<path fill-rule="evenodd"  fill="rgb(2, 1, 34)"
 d="M42.292,67.014 L42.906,64.773 L48.671,60.893 L50.184,56.734 L54.169,54.867 L57.943,47.591 L52.105,44.129 L49.085,40.665 L47.297,40.456 L43.729,39.485 L40.650,38.997 L37.958,39.759 L36.310,37.893 L34.658,37.406 L34.797,34.915 L32.803,34.979 L31.670,36.298 L31.021,33.526 L33.627,32.279 L36.310,33.526 L37.747,33.526 L38.269,31.377 L42.284,26.525 L47.852,23.689 L51.075,24.103 L51.370,22.513 L47.372,18.423 L45.860,15.377 L43.658,15.377 L42.284,14.566 L39.330,14.126 L38.712,17.666 L35.136,16.972 L34.865,14.755 L37.611,14.128 L38.516,10.157 L41.240,11.287 L41.171,12.977 L43.247,13.850 L44.634,14.262 L46.338,13.364 L44.824,11.565 L41.728,8.520 L41.801,7.061 L44.962,7.685 L47.639,10.108 L48.464,12.256 L49.085,14.271 L53.346,18.145 L54.440,18.497 L55.953,16.061 L61.308,15.580 L62.313,15.258 C65.904,20.645 67.996,27.136 67.996,34.110 C67.996,50.079 57.030,63.433 42.292,67.014 ZM44.205,3.165 L41.875,4.735 L40.224,6.573 L34.223,7.141 L31.753,6.731 L30.059,9.418 L25.115,9.693 L22.019,8.794 L19.268,10.314 L13.300,11.153 L8.516,12.547 L8.500,12.547 C14.655,5.021 23.978,0.227 34.407,0.227 C39.527,0.227 44.360,1.421 48.709,3.482 L47.504,3.666 L44.205,3.165 ZM29.160,3.875 L27.178,4.511 L25.664,3.875 C25.615,4.278 23.462,5.676 23.462,5.676 L25.664,6.975 L30.241,5.763 L29.160,3.875 ZM39.259,1.693 L35.826,3.597 L33.856,4.835 L35.226,5.733 L38.269,5.424 L41.461,2.975 L39.259,1.693 ZM7.323,19.668 L11.096,19.668 L16.700,18.660 L20.231,24.446 L20.231,29.854 L25.045,36.439 L25.862,36.439 L25.862,34.115 L27.717,38.030 L33.303,39.291 L35.826,41.845 L38.071,42.525 L35.826,47.246 L38.274,51.822 C38.274,51.822 39.811,57.084 39.815,57.295 C39.815,57.501 38.274,63.598 38.274,63.598 L38.625,67.701 C37.238,67.872 35.836,67.996 34.407,67.996 C15.855,67.996 0.816,52.824 0.816,34.115 C0.816,27.878 2.514,22.056 5.428,17.038 L7.845,16.475 L5.422,18.413 L7.323,19.668 Z"/>
</svg>