<svg 
 xmlns="http://www.w3.org/2000/svg"
 xmlns:xlink="http://www.w3.org/1999/xlink"
 width="67px" height="69px">
<path fill-rule="evenodd"  fill="rgb(2, 1, 34)"
 d="M35.443,68.999 L35.443,36.185 L66.401,36.185 L66.401,68.999 L35.443,68.999 ZM59.030,45.135 L42.814,45.135 L42.814,49.609 L59.030,49.609 L59.030,45.135 ZM17.753,0.388 L50.185,0.388 L50.185,31.711 L17.753,31.711 L17.753,0.388 ZM25.124,13.811 L42.814,13.811 L42.814,9.337 L25.124,9.337 L25.124,13.811 ZM31.021,68.999 L0.063,68.999 L0.063,36.185 L31.021,36.185 L31.021,68.999 ZM23.650,45.135 L7.434,45.135 L7.434,49.609 L23.650,49.609 L23.650,45.135 Z"/>
</svg>