<svg 
 xmlns="http://www.w3.org/2000/svg"
 xmlns:xlink="http://www.w3.org/1999/xlink"
 width="74px" height="75px">
<path fill-rule="evenodd"  fill="rgb(2, 1, 34)"
 d="M58.860,74.937 C50.780,74.937 44.229,68.321 44.229,60.159 C44.229,51.998 50.780,45.381 58.860,45.381 C66.941,45.381 73.490,51.998 73.490,60.159 C73.490,68.321 66.941,74.937 58.860,74.937 ZM57.769,55.265 C58.063,54.962 58.456,54.810 58.946,54.810 C59.921,54.810 60.639,55.488 61.105,56.845 L63.491,55.857 C62.921,53.878 61.667,52.772 59.731,52.537 L59.731,50.923 L57.999,50.923 L57.999,52.537 C56.717,52.719 55.777,53.219 55.181,54.037 C54.584,54.856 54.284,55.778 54.284,56.800 C54.284,57.579 54.452,58.266 54.786,58.853 C55.120,59.440 55.556,59.896 56.092,60.221 C56.627,60.549 57.372,60.877 58.324,61.211 C59.383,61.590 60.067,61.902 60.374,62.149 C60.682,62.394 60.835,62.757 60.835,63.235 C60.835,63.697 60.682,64.090 60.374,64.416 C60.067,64.743 59.585,64.906 58.933,64.906 C57.538,64.906 56.717,64.144 56.468,62.620 L53.789,63.325 C54.331,65.750 55.733,67.081 57.999,67.316 L57.999,69.396 L59.731,69.396 L59.731,67.305 C61.091,67.161 62.130,66.680 62.850,65.865 C63.569,65.052 63.930,64.034 63.930,62.813 C63.930,62.017 63.755,61.323 63.407,60.727 C63.057,60.134 62.591,59.666 62.005,59.330 C61.421,58.992 60.614,58.633 59.585,58.254 C58.649,57.906 58.037,57.616 57.753,57.381 C57.467,57.145 57.324,56.808 57.324,56.367 C57.324,55.936 57.472,55.568 57.769,55.265 ZM62.860,42.138 C61.462,41.721 60.129,41.472 58.069,41.472 C48.280,41.472 40.344,49.492 40.344,59.386 C40.344,62.809 41.297,66.007 42.946,68.727 C43.122,69.018 43.443,69.364 42.845,69.886 C38.360,73.259 35.028,74.937 32.960,74.937 C26.497,74.937 0.662,55.114 0.662,34.010 C0.662,33.772 0.988,12.169 1.052,11.726 C1.305,9.969 2.103,10.103 2.605,10.127 C6.873,10.327 11.435,10.585 16.193,9.199 C24.630,6.740 30.199,0.060 32.961,0.060 C35.812,0.060 43.312,6.740 51.749,9.199 C55.810,10.381 59.670,10.380 63.457,10.361 C63.985,10.358 65.167,10.354 65.167,12.439 C65.167,12.700 65.259,33.843 65.259,34.010 C65.259,36.493 64.900,38.959 64.259,41.376 C64.161,41.747 63.801,42.541 62.860,42.138 ZM31.149,11.122 C31.149,11.122 24.974,15.752 19.099,17.456 C15.786,18.417 12.609,18.238 9.637,18.100 C9.287,18.084 8.732,17.991 8.555,19.208 C8.511,19.515 8.284,34.490 8.284,34.655 C8.284,49.284 31.149,63.026 31.149,63.026 L31.149,11.122 Z"/>
</svg>