<svg 
 xmlns="http://www.w3.org/2000/svg"
 xmlns:xlink="http://www.w3.org/1999/xlink"
 width="177px" height="204px">
<path fill-rule="evenodd"  fill="rgb(2, 1, 34)"
 d="M91.183,203.264 C91.074,203.346 90.960,203.424 90.841,203.493 C90.252,203.827 89.593,204.000 88.938,204.000 C88.320,204.000 87.706,203.843 87.148,203.527 C86.446,203.129 73.886,195.907 58.478,181.363 C55.227,183.647 51.275,184.999 47.000,184.999 C35.954,184.999 27.000,176.045 27.000,164.999 C27.000,159.687 29.086,154.871 32.465,151.290 C15.004,126.225 -1.500,89.253 1.287,40.890 C1.384,39.224 2.601,37.834 4.251,37.506 C50.001,28.423 85.283,2.476 86.762,1.375 C86.818,1.332 86.879,1.289 86.937,1.249 L87.837,0.647 C89.159,-0.238 90.907,-0.185 92.168,0.784 C92.518,1.052 127.726,27.756 173.717,36.888 C175.365,37.216 176.584,38.606 176.680,40.271 C182.906,148.350 98.496,199.102 91.183,203.264 ZM169.442,43.490 C129.211,34.842 98.243,14.207 89.853,8.206 C83.183,12.942 50.326,35.123 8.525,44.106 C6.684,87.837 21.229,122.014 38.582,146.876 C41.143,145.684 43.988,144.999 47.000,144.999 C58.046,144.999 67.000,153.954 67.000,164.999 C67.000,169.057 65.784,172.826 63.708,175.979 C75.187,186.855 85.007,193.517 88.963,196.030 C101.032,188.597 173.558,139.777 169.442,43.490 ZM88.984,185.474 L88.984,186.003 C88.984,186.003 81.629,181.823 71.623,173.336 C72.510,170.718 73.000,167.917 73.000,164.999 C73.000,150.640 61.359,139.000 47.000,139.000 C45.091,139.000 43.235,139.222 41.443,139.613 C26.828,117.740 15.045,87.981 17.234,49.987 C57.750,41.944 88.969,18.569 88.984,18.560 L89.814,18.031 C89.815,18.033 120.210,41.415 160.735,49.458 C166.047,141.709 89.011,185.456 88.984,185.474 Z"/>
<path fill-rule="evenodd"  fill="rgb(255, 227, 99)"
 d="M47.000,152.999 C40.373,152.999 35.000,158.372 35.000,164.999 C35.000,171.627 40.373,176.999 47.000,176.999 C53.628,176.999 59.000,171.627 59.000,164.999 C59.000,158.372 53.628,152.999 47.000,152.999 ZM50.272,169.633 C49.682,170.295 48.830,170.684 47.715,170.801 L47.715,172.499 L46.294,172.499 L46.294,170.810 C44.435,170.620 43.285,169.539 42.841,167.570 L45.038,166.997 C45.242,168.235 45.916,168.854 47.060,168.854 C47.595,168.854 47.990,168.721 48.242,168.456 C48.494,168.191 48.620,167.872 48.620,167.497 C48.620,167.109 48.494,166.814 48.242,166.615 C47.990,166.414 47.429,166.161 46.561,165.854 C45.780,165.583 45.169,165.316 44.729,165.049 C44.290,164.785 43.933,164.415 43.659,163.939 C43.385,163.461 43.247,162.904 43.247,162.272 C43.247,161.441 43.493,160.693 43.982,160.028 C44.472,159.364 45.242,158.958 46.294,158.810 L46.294,157.499 L47.715,157.499 L47.715,158.811 C49.303,159.001 50.331,159.899 50.798,161.506 L48.841,162.308 C48.459,161.207 47.870,160.656 47.070,160.656 C46.669,160.656 46.347,160.779 46.105,161.025 C45.862,161.272 45.740,161.571 45.740,161.920 C45.740,162.278 45.857,162.551 46.092,162.743 C46.325,162.934 46.827,163.170 47.595,163.453 C48.439,163.760 49.101,164.051 49.580,164.325 C50.060,164.599 50.442,164.979 50.730,165.461 C51.015,165.944 51.159,166.508 51.159,167.154 C51.159,168.146 50.863,168.972 50.272,169.633 Z"/>
<path fill-rule="evenodd"  fill="rgb(255, 227, 99)"
 d="M72.664,83.346 L72.664,79.278 C72.664,73.785 83.478,71.142 88.987,71.142 C94.497,71.142 105.311,73.785 105.311,79.278 L105.311,83.346 L72.664,83.346 ZM88.987,67.073 C84.499,67.073 80.826,63.412 80.826,58.937 C80.826,54.462 84.499,50.801 88.987,50.801 C93.477,50.801 97.149,54.462 97.149,58.937 C97.149,63.412 93.477,67.073 88.987,67.073 Z"/>
</svg>