<svg 
 xmlns="http://www.w3.org/2000/svg"
 xmlns:xlink="http://www.w3.org/1999/xlink"
 width="28px" height="25px">
<path fill-rule="evenodd"  fill="rgb(40, 39, 67)"
 d="M27.858,0.099 C27.734,-0.007 27.556,-0.031 27.406,0.036 L0.242,12.212 C0.096,12.277 0.002,12.418 0.000,12.574 C-0.002,12.729 0.089,12.872 0.234,12.941 L7.922,16.580 C8.062,16.647 8.230,16.631 8.356,16.540 L15.831,11.151 L9.963,16.974 C9.879,17.057 9.837,17.171 9.846,17.287 L10.430,24.626 C10.443,24.789 10.556,24.928 10.717,24.979 C10.760,24.992 10.804,24.999 10.847,24.999 C10.967,24.999 11.083,24.949 11.164,24.859 L15.244,20.298 L20.288,22.623 C20.398,22.673 20.525,22.675 20.636,22.629 C20.747,22.582 20.832,22.491 20.868,22.379 L27.982,0.523 C28.031,0.370 27.983,0.204 27.858,0.099 Z"/>
</svg>