<svg 
 xmlns="http://www.w3.org/2000/svg"
 xmlns:xlink="http://www.w3.org/1999/xlink"
 width="25px" height="18px">
<path fill-rule="evenodd"  fill="rgb(64, 196, 177)"
 d="M10.872,0.008 C11.583,0.008 12.295,0.008 13.005,0.008 C13.392,0.008 13.900,-0.025 14.202,0.059 C14.375,0.059 14.549,0.059 14.722,0.059 C15.069,0.076 15.416,0.093 15.763,0.110 C15.763,0.127 15.763,0.144 15.763,0.161 C16.005,0.161 16.248,0.161 16.491,0.161 C16.491,0.178 16.491,0.195 16.491,0.212 C16.630,0.212 16.768,0.212 16.907,0.212 C16.907,0.229 16.907,0.246 16.907,0.263 C17.046,0.263 17.185,0.263 17.323,0.263 C17.323,0.280 17.323,0.297 17.323,0.314 C17.479,0.314 17.635,0.314 17.791,0.314 C17.791,0.331 17.791,0.348 17.791,0.365 C18.034,0.382 18.277,0.399 18.520,0.416 C18.520,0.433 18.520,0.450 18.520,0.467 C18.728,0.484 18.936,0.501 19.144,0.518 C19.144,0.535 19.144,0.552 19.144,0.569 C19.231,0.569 19.318,0.569 19.404,0.569 C19.404,0.586 19.404,0.603 19.404,0.620 C19.491,0.620 19.578,0.620 19.664,0.620 C19.664,0.637 19.664,0.654 19.664,0.671 C19.734,0.671 19.803,0.671 19.872,0.671 C19.872,0.688 19.872,0.705 19.872,0.722 C20.046,0.739 20.219,0.756 20.393,0.773 C20.393,0.790 20.393,0.807 20.393,0.824 C20.618,0.858 20.843,0.892 21.069,0.926 C21.069,0.943 21.069,0.960 21.069,0.977 C21.138,0.977 21.208,0.977 21.277,0.977 C21.277,0.994 21.277,1.011 21.277,1.028 C21.398,1.045 21.520,1.062 21.641,1.079 C21.641,1.096 21.641,1.113 21.641,1.130 C21.693,1.130 21.745,1.130 21.797,1.130 C21.797,1.147 21.797,1.164 21.797,1.181 C21.971,1.215 22.144,1.249 22.317,1.283 C22.317,1.300 22.317,1.317 22.317,1.334 C22.352,1.334 22.387,1.334 22.422,1.334 C22.422,1.351 22.422,1.368 22.422,1.385 C22.473,1.385 22.526,1.385 22.578,1.385 C22.578,1.402 22.578,1.419 22.578,1.436 C22.647,1.453 22.716,1.470 22.786,1.487 C22.786,1.504 22.786,1.521 22.786,1.538 C22.855,1.555 22.924,1.572 22.994,1.589 C23.360,1.817 23.631,2.161 23.930,2.457 C23.999,2.508 24.069,2.559 24.138,2.610 C24.138,2.644 24.138,2.678 24.138,2.712 C24.173,2.729 24.208,2.746 24.242,2.763 C24.260,2.814 24.277,2.865 24.294,2.916 C24.312,2.916 24.329,2.916 24.346,2.916 C24.364,2.984 24.381,3.052 24.398,3.120 C24.416,3.120 24.433,3.120 24.450,3.120 C24.450,3.154 24.450,3.188 24.450,3.222 C24.468,3.222 24.485,3.222 24.502,3.222 C24.537,3.324 24.572,3.426 24.606,3.528 C24.624,3.528 24.641,3.528 24.659,3.528 C24.659,3.579 24.659,3.630 24.659,3.681 C24.676,3.681 24.693,3.681 24.710,3.681 C24.710,3.715 24.710,3.749 24.710,3.783 C24.728,3.783 24.745,3.783 24.763,3.783 C24.780,3.902 24.797,4.021 24.814,4.140 C24.832,4.140 24.849,4.140 24.867,4.140 C24.884,4.310 24.901,4.480 24.919,4.650 C24.936,4.650 24.953,4.650 24.971,4.650 C25.041,4.897 24.970,5.599 24.919,5.773 C24.919,5.875 24.919,5.977 24.919,6.079 C24.901,6.079 24.884,6.079 24.867,6.079 C24.867,6.130 24.867,6.181 24.867,6.232 C24.849,6.232 24.832,6.232 24.814,6.232 C24.814,6.317 24.814,6.402 24.814,6.487 C24.797,6.487 24.780,6.487 24.763,6.487 C24.763,6.572 24.763,6.657 24.763,6.742 C24.745,6.742 24.728,6.742 24.710,6.742 C24.710,6.827 24.710,6.912 24.710,6.997 C24.693,6.997 24.676,6.997 24.659,6.997 C24.659,7.048 24.659,7.099 24.659,7.150 C24.641,7.150 24.624,7.150 24.606,7.150 C24.572,7.252 24.537,7.355 24.502,7.456 C24.485,7.456 24.468,7.456 24.450,7.456 C24.450,7.491 24.450,7.525 24.450,7.558 C24.381,7.610 24.312,7.661 24.242,7.712 C24.173,7.797 24.104,7.882 24.034,7.967 C23.895,8.058 23.198,8.263 22.890,8.171 C22.890,8.154 22.890,8.137 22.890,8.120 C22.820,8.120 22.751,8.120 22.682,8.120 C22.682,8.103 22.682,8.086 22.682,8.069 C22.595,8.069 22.508,8.069 22.422,8.069 C22.422,8.052 22.422,8.035 22.422,8.018 C22.317,8.018 22.213,8.018 22.109,8.018 C22.109,8.001 22.109,7.984 22.109,7.967 C22.023,7.967 21.936,7.967 21.849,7.967 C21.849,7.950 21.849,7.933 21.849,7.916 C21.693,7.899 21.537,7.882 21.381,7.865 C21.381,7.848 21.381,7.831 21.381,7.814 C21.312,7.814 21.242,7.814 21.173,7.814 C21.173,7.797 21.173,7.780 21.173,7.763 C21.052,7.763 20.930,7.763 20.809,7.763 C20.809,7.746 20.809,7.729 20.809,7.712 C20.739,7.712 20.670,7.712 20.601,7.712 C20.601,7.695 20.601,7.678 20.601,7.661 C20.445,7.644 20.289,7.627 20.132,7.610 C20.132,7.593 20.132,7.576 20.132,7.558 C20.028,7.558 19.924,7.558 19.820,7.558 C19.820,7.542 19.820,7.525 19.820,7.507 C19.734,7.507 19.647,7.507 19.560,7.507 C19.352,7.440 19.144,7.371 18.936,7.303 C18.901,7.252 18.867,7.201 18.832,7.150 C18.728,7.065 18.624,6.980 18.520,6.895 C18.520,6.861 18.520,6.827 18.520,6.793 C18.502,6.793 18.485,6.793 18.468,6.793 C18.433,6.691 18.398,6.589 18.364,6.487 C18.346,6.487 18.329,6.487 18.312,6.487 C18.312,6.419 18.312,6.351 18.312,6.283 C18.294,6.283 18.277,6.283 18.260,6.283 C18.147,5.913 18.342,5.230 18.416,5.008 C18.416,4.940 18.416,4.872 18.416,4.803 C18.441,4.726 18.524,4.447 18.468,4.293 C18.450,4.293 18.433,4.293 18.416,4.293 C18.398,4.225 18.381,4.157 18.364,4.089 C18.277,4.021 18.190,3.953 18.104,3.885 C18.086,3.851 18.069,3.817 18.052,3.783 C18.017,3.783 17.982,3.783 17.948,3.783 C17.948,3.766 17.948,3.749 17.948,3.732 C17.913,3.732 17.878,3.732 17.844,3.732 C17.844,3.715 17.844,3.698 17.844,3.681 C17.791,3.681 17.740,3.681 17.687,3.681 C17.687,3.664 17.687,3.647 17.687,3.630 C17.653,3.630 17.618,3.630 17.583,3.630 C17.583,3.613 17.583,3.596 17.583,3.579 C17.133,3.460 16.682,3.341 16.231,3.222 C16.127,3.222 16.023,3.222 15.919,3.222 C14.875,2.918 13.466,2.967 12.121,2.967 C11.430,2.967 10.637,2.917 10.092,3.069 C9.936,3.069 9.780,3.069 9.624,3.069 C9.624,3.086 9.624,3.103 9.624,3.120 C9.485,3.120 9.347,3.120 9.208,3.120 C9.208,3.137 9.208,3.154 9.208,3.171 C9.104,3.171 9.000,3.171 8.896,3.171 C8.896,3.188 8.896,3.205 8.896,3.222 C8.809,3.222 8.722,3.222 8.636,3.222 C8.636,3.239 8.636,3.256 8.636,3.273 C8.584,3.273 8.531,3.273 8.480,3.273 C8.480,3.290 8.480,3.307 8.480,3.324 C8.393,3.324 8.306,3.324 8.219,3.324 C8.219,3.341 8.219,3.358 8.219,3.375 C8.081,3.392 7.942,3.409 7.803,3.426 C7.803,3.443 7.803,3.460 7.803,3.477 C7.699,3.494 7.595,3.511 7.491,3.528 C7.491,3.545 7.491,3.562 7.491,3.579 C7.404,3.596 7.318,3.613 7.231,3.630 C7.231,3.647 7.231,3.664 7.231,3.681 C7.196,3.681 7.162,3.681 7.127,3.681 C7.127,3.698 7.127,3.715 7.127,3.732 C7.058,3.749 6.988,3.766 6.919,3.783 C6.849,3.868 6.780,3.953 6.711,4.038 C6.676,4.055 6.641,4.072 6.607,4.089 C6.547,4.175 6.605,4.205 6.503,4.293 C6.520,4.548 6.537,4.803 6.555,5.059 C6.572,5.059 6.589,5.059 6.607,5.059 C6.607,5.144 6.607,5.229 6.607,5.314 C6.624,5.314 6.641,5.314 6.659,5.314 C6.659,5.365 6.659,5.416 6.659,5.467 C6.676,5.467 6.693,5.467 6.711,5.467 C6.711,5.586 6.711,5.705 6.711,5.824 C6.712,6.287 6.659,6.403 6.503,6.691 C6.503,6.725 6.503,6.759 6.503,6.793 C6.485,6.793 6.468,6.793 6.451,6.793 C6.451,6.827 6.451,6.861 6.451,6.895 C6.364,6.963 6.277,7.031 6.190,7.099 C6.139,7.167 6.086,7.235 6.034,7.303 C6.000,7.303 5.965,7.303 5.930,7.303 C5.930,7.320 5.930,7.337 5.930,7.355 C5.896,7.355 5.861,7.355 5.826,7.355 C5.826,7.371 5.826,7.389 5.826,7.406 C5.774,7.406 5.722,7.406 5.670,7.406 C5.670,7.422 5.670,7.440 5.670,7.456 C5.566,7.456 5.462,7.456 5.358,7.456 C5.358,7.473 5.358,7.491 5.358,7.507 C5.271,7.507 5.185,7.507 5.098,7.507 C5.098,7.525 5.098,7.542 5.098,7.558 C5.029,7.558 4.959,7.558 4.890,7.558 C4.890,7.576 4.890,7.593 4.890,7.610 C4.803,7.610 4.716,7.610 4.630,7.610 C4.630,7.627 4.630,7.644 4.630,7.661 C4.526,7.661 4.422,7.661 4.318,7.661 C4.318,7.678 4.318,7.695 4.318,7.712 C4.162,7.729 4.006,7.746 3.849,7.763 C3.849,7.780 3.849,7.797 3.849,7.814 C3.780,7.814 3.711,7.814 3.641,7.814 C3.641,7.831 3.641,7.848 3.641,7.865 C3.537,7.865 3.433,7.865 3.329,7.865 C3.329,7.882 3.329,7.899 3.329,7.916 C3.243,7.916 3.156,7.916 3.069,7.916 C3.069,7.933 3.069,7.950 3.069,7.967 C2.982,7.967 2.896,7.967 2.809,7.967 C2.809,7.984 2.809,8.001 2.809,8.018 C2.636,8.035 2.462,8.052 2.289,8.069 C2.289,8.086 2.289,8.103 2.289,8.120 C2.011,8.137 1.734,8.154 1.457,8.171 C1.457,8.154 1.457,8.137 1.457,8.120 C1.352,8.103 1.248,8.086 1.144,8.069 C1.144,8.052 1.144,8.035 1.144,8.018 C1.075,8.001 1.006,7.984 0.936,7.967 C0.832,7.848 0.728,7.729 0.624,7.610 C0.589,7.593 0.555,7.576 0.520,7.558 C0.520,7.525 0.520,7.491 0.520,7.456 C0.503,7.456 0.485,7.456 0.468,7.456 C0.433,7.355 0.399,7.252 0.364,7.150 C0.347,7.150 0.329,7.150 0.312,7.150 C0.295,6.997 0.277,6.844 0.260,6.691 C0.243,6.691 0.225,6.691 0.208,6.691 C0.208,6.623 0.208,6.555 0.208,6.487 C0.191,6.487 0.173,6.487 0.156,6.487 C0.139,6.334 0.121,6.181 0.104,6.028 C0.087,6.028 0.069,6.028 0.052,6.028 C0.052,5.943 0.052,5.858 0.052,5.773 C0.034,5.773 0.017,5.773 -0.000,5.773 C-0.000,5.552 -0.000,5.331 -0.000,5.110 C0.000,4.357 0.204,3.811 0.468,3.324 C0.468,3.290 0.468,3.256 0.468,3.222 C0.485,3.222 0.503,3.222 0.520,3.222 C0.520,3.188 0.520,3.154 0.520,3.120 C0.537,3.120 0.555,3.120 0.572,3.120 C0.572,3.086 0.572,3.052 0.572,3.018 C0.589,3.018 0.607,3.018 0.624,3.018 C0.624,2.984 0.624,2.950 0.624,2.916 C0.659,2.899 0.693,2.882 0.728,2.865 C0.728,2.831 0.728,2.797 0.728,2.763 C0.763,2.746 0.798,2.729 0.832,2.712 C0.832,2.678 0.832,2.644 0.832,2.610 C0.919,2.542 1.006,2.474 1.092,2.406 C1.376,2.127 1.630,1.804 1.977,1.589 C2.011,1.589 2.046,1.589 2.081,1.589 C2.081,1.572 2.081,1.555 2.081,1.538 C2.185,1.504 2.289,1.470 2.393,1.436 C2.393,1.419 2.393,1.402 2.393,1.385 C2.445,1.385 2.497,1.385 2.549,1.385 C2.549,1.368 2.549,1.351 2.549,1.334 C2.601,1.334 2.653,1.334 2.705,1.334 C2.705,1.317 2.705,1.300 2.705,1.283 C2.740,1.283 2.774,1.283 2.809,1.283 C2.809,1.266 2.809,1.249 2.809,1.232 C2.861,1.232 2.913,1.232 2.965,1.232 C2.965,1.215 2.965,1.198 2.965,1.181 C3.034,1.181 3.104,1.181 3.173,1.181 C3.173,1.164 3.173,1.147 3.173,1.130 C3.225,1.130 3.277,1.130 3.329,1.130 C3.329,1.113 3.329,1.096 3.329,1.079 C3.451,1.062 3.572,1.045 3.693,1.028 C3.693,1.011 3.693,0.994 3.693,0.977 C3.919,0.943 4.144,0.909 4.370,0.875 C4.370,0.858 4.370,0.841 4.370,0.824 C4.526,0.807 4.682,0.790 4.838,0.773 C4.838,0.756 4.838,0.739 4.838,0.722 C4.994,0.705 5.150,0.688 5.306,0.671 C5.306,0.654 5.306,0.637 5.306,0.620 C5.479,0.603 5.653,0.586 5.826,0.569 C5.826,0.552 5.826,0.535 5.826,0.518 C5.948,0.518 6.069,0.518 6.190,0.518 C6.190,0.501 6.190,0.484 6.190,0.467 C6.277,0.467 6.364,0.467 6.451,0.467 C6.451,0.450 6.451,0.433 6.451,0.416 C6.589,0.416 6.728,0.416 6.867,0.416 C6.867,0.399 6.867,0.382 6.867,0.365 C6.971,0.365 7.075,0.365 7.179,0.365 C7.179,0.348 7.179,0.331 7.179,0.314 C7.300,0.314 7.422,0.314 7.543,0.314 C7.543,0.297 7.543,0.280 7.543,0.263 C7.716,0.263 7.890,0.263 8.063,0.263 C8.063,0.246 8.063,0.229 8.063,0.212 C8.202,0.212 8.341,0.212 8.480,0.212 C8.480,0.195 8.480,0.178 8.480,0.161 C8.722,0.161 8.965,0.161 9.208,0.161 C9.208,0.144 9.208,0.127 9.208,0.110 C9.433,0.110 9.659,0.110 9.884,0.110 C9.884,0.093 9.884,0.076 9.884,0.059 C10.169,-0.020 10.680,0.174 10.872,0.008 ZM10.092,3.885 C10.116,4.163 10.245,4.312 10.352,4.497 C10.352,4.531 10.352,4.565 10.352,4.599 C10.387,4.616 10.422,4.634 10.456,4.650 C10.456,4.685 10.456,4.719 10.456,4.753 C10.578,4.855 10.699,4.957 10.821,5.059 C10.872,5.127 10.925,5.195 10.977,5.263 C11.011,5.263 11.046,5.263 11.081,5.263 C11.098,5.297 11.115,5.331 11.133,5.365 C11.167,5.365 11.202,5.365 11.237,5.365 C11.237,5.382 11.237,5.399 11.237,5.416 C11.341,5.450 11.445,5.484 11.549,5.518 C11.549,5.535 11.549,5.552 11.549,5.569 C11.653,5.586 11.757,5.603 11.861,5.620 C12.035,5.683 12.596,5.813 12.901,5.722 C13.788,5.457 14.264,5.139 14.670,4.395 C14.687,4.395 14.705,4.395 14.722,4.395 C14.798,4.255 14.862,4.069 14.878,3.885 C15.527,3.884 16.025,4.123 16.647,4.140 C16.647,4.838 16.647,5.535 16.647,6.232 C16.664,6.232 16.682,6.232 16.699,6.232 C16.699,6.317 16.699,6.402 16.699,6.487 C16.716,6.487 16.734,6.487 16.751,6.487 C16.751,6.555 16.751,6.623 16.751,6.691 C16.768,6.691 16.786,6.691 16.803,6.691 C16.803,6.742 16.803,6.793 16.803,6.844 C16.820,6.844 16.838,6.844 16.855,6.844 C16.855,6.895 16.855,6.946 16.855,6.997 C16.872,6.997 16.890,6.997 16.907,6.997 C16.907,7.031 16.907,7.065 16.907,7.099 C16.924,7.099 16.942,7.099 16.959,7.099 C16.959,7.150 16.959,7.201 16.959,7.252 C16.976,7.252 16.994,7.252 17.011,7.252 C17.011,7.286 17.011,7.320 17.011,7.355 C17.028,7.355 17.046,7.355 17.063,7.355 C17.063,7.389 17.063,7.422 17.063,7.456 C17.098,7.473 17.133,7.491 17.167,7.507 C17.185,7.576 17.202,7.644 17.219,7.712 C17.237,7.712 17.254,7.712 17.271,7.712 C17.289,7.763 17.306,7.814 17.323,7.865 C17.358,7.882 17.393,7.899 17.427,7.916 C17.427,7.950 17.427,7.984 17.427,8.018 C17.497,8.069 17.566,8.120 17.635,8.171 C18.618,9.509 20.267,10.118 20.809,11.895 C20.809,12.439 20.809,12.984 20.809,13.528 C20.809,14.582 20.809,15.637 20.809,16.691 C20.791,16.691 20.774,16.691 20.757,16.691 C20.757,16.742 20.757,16.793 20.757,16.844 C20.739,16.844 20.722,16.844 20.705,16.844 C20.705,16.878 20.705,16.912 20.705,16.946 C20.687,16.946 20.670,16.946 20.653,16.946 C20.653,16.997 20.653,17.048 20.653,17.099 C20.618,17.116 20.583,17.133 20.549,17.150 C20.549,17.184 20.549,17.218 20.549,17.252 C20.427,17.354 20.306,17.456 20.185,17.558 C20.150,17.609 20.115,17.660 20.081,17.711 C19.461,18.137 17.316,17.966 16.231,17.966 C13.474,17.966 10.716,17.966 7.959,17.966 C7.127,17.966 6.295,17.966 5.462,17.966 C5.462,17.949 5.462,17.932 5.462,17.915 C5.410,17.915 5.358,17.915 5.306,17.915 C5.306,17.898 5.306,17.881 5.306,17.864 C5.271,17.864 5.237,17.864 5.202,17.864 C5.202,17.847 5.202,17.830 5.202,17.813 C5.150,17.813 5.098,17.813 5.046,17.813 C5.029,17.779 5.011,17.745 4.994,17.711 C4.959,17.711 4.925,17.711 4.890,17.711 C4.786,17.592 4.682,17.473 4.578,17.354 C4.526,17.320 4.474,17.286 4.422,17.252 C4.422,17.218 4.422,17.184 4.422,17.150 C4.387,17.133 4.352,17.116 4.318,17.099 C4.318,17.048 4.318,16.997 4.318,16.946 C4.300,16.946 4.283,16.946 4.266,16.946 C4.266,16.912 4.266,16.878 4.266,16.844 C4.248,16.844 4.231,16.844 4.214,16.844 C4.214,16.793 4.214,16.742 4.214,16.691 C4.196,16.691 4.179,16.691 4.162,16.691 C4.162,15.926 4.162,15.160 4.162,14.395 C4.162,13.475 4.021,12.046 4.318,11.385 C4.335,11.385 4.352,11.385 4.370,11.385 C4.370,11.351 4.370,11.317 4.370,11.283 C4.387,11.283 4.404,11.283 4.422,11.283 C4.439,11.215 4.456,11.147 4.474,11.079 C4.508,11.062 4.543,11.045 4.578,11.028 C4.578,10.994 4.578,10.960 4.578,10.926 C4.612,10.909 4.647,10.892 4.682,10.875 C4.682,10.841 4.682,10.807 4.682,10.773 C4.734,10.739 4.786,10.705 4.838,10.671 C4.838,10.637 4.838,10.603 4.838,10.569 C4.994,10.433 5.150,10.297 5.306,10.160 C5.428,10.024 5.549,9.888 5.670,9.752 C5.705,9.752 5.740,9.752 5.774,9.752 C5.896,9.616 6.017,9.480 6.139,9.344 C6.173,9.344 6.208,9.344 6.243,9.344 C6.399,9.174 6.555,9.004 6.711,8.834 C6.919,8.647 7.127,8.460 7.335,8.273 C7.335,8.239 7.335,8.205 7.335,8.171 C7.404,8.120 7.474,8.069 7.543,8.018 C7.543,7.984 7.543,7.950 7.543,7.916 C7.578,7.899 7.612,7.882 7.647,7.865 C7.664,7.814 7.682,7.763 7.699,7.712 C7.716,7.712 7.734,7.712 7.751,7.712 C7.769,7.644 7.786,7.576 7.803,7.507 C7.838,7.491 7.873,7.473 7.907,7.456 C7.907,7.422 7.907,7.389 7.907,7.355 C7.925,7.355 7.942,7.355 7.959,7.355 C7.959,7.320 7.959,7.286 7.959,7.252 C7.977,7.252 7.994,7.252 8.011,7.252 C8.011,7.201 8.011,7.150 8.011,7.099 C8.029,7.099 8.046,7.099 8.063,7.099 C8.063,7.065 8.063,7.031 8.063,6.997 C8.081,6.997 8.098,6.997 8.115,6.997 C8.115,6.946 8.115,6.895 8.115,6.844 C8.133,6.844 8.150,6.844 8.167,6.844 C8.167,6.793 8.167,6.742 8.167,6.691 C8.185,6.691 8.202,6.691 8.219,6.691 C8.219,6.623 8.219,6.555 8.219,6.487 C8.237,6.487 8.254,6.487 8.271,6.487 C8.271,6.402 8.271,6.317 8.271,6.232 C8.289,6.232 8.306,6.232 8.323,6.232 C8.323,5.535 8.323,4.838 8.323,4.140 C8.919,4.093 9.411,3.896 10.092,3.885 ZM11.965,8.171 C11.863,8.258 11.688,8.219 11.549,8.273 C11.271,8.392 10.994,8.511 10.717,8.630 C10.699,8.664 10.682,8.698 10.664,8.732 C10.630,8.732 10.595,8.732 10.560,8.732 C10.526,8.783 10.491,8.834 10.456,8.885 C10.422,8.885 10.387,8.885 10.352,8.885 C10.300,8.953 10.248,9.021 10.196,9.089 C10.092,9.174 9.988,9.259 9.884,9.344 C9.884,9.378 9.884,9.412 9.884,9.446 C9.832,9.480 9.780,9.514 9.728,9.548 C9.728,9.582 9.728,9.616 9.728,9.650 C9.693,9.667 9.659,9.684 9.624,9.701 C9.607,9.769 9.589,9.837 9.572,9.905 C9.555,9.905 9.537,9.905 9.520,9.905 C9.485,10.007 9.451,10.109 9.416,10.211 C9.399,10.211 9.381,10.211 9.364,10.211 C9.329,10.365 9.294,10.518 9.260,10.671 C9.243,10.671 9.225,10.671 9.208,10.671 C9.208,10.756 9.208,10.841 9.208,10.926 C9.190,10.926 9.173,10.926 9.156,10.926 C9.098,11.122 9.160,12.062 9.208,12.201 C9.225,12.201 9.243,12.201 9.260,12.201 C9.260,12.252 9.260,12.303 9.260,12.354 C9.277,12.354 9.294,12.354 9.312,12.354 C9.329,12.456 9.347,12.558 9.364,12.660 C9.381,12.660 9.399,12.660 9.416,12.660 C9.416,12.694 9.416,12.728 9.416,12.763 C9.433,12.763 9.451,12.763 9.468,12.763 C9.468,12.796 9.468,12.830 9.468,12.864 C9.485,12.864 9.503,12.864 9.520,12.864 C9.520,12.899 9.520,12.933 9.520,12.966 C9.537,12.966 9.555,12.966 9.572,12.966 C9.572,13.001 9.572,13.035 9.572,13.069 C9.589,13.069 9.607,13.069 9.624,13.069 C9.624,13.103 9.624,13.137 9.624,13.171 C9.659,13.188 9.693,13.205 9.728,13.222 C9.728,13.256 9.728,13.290 9.728,13.324 C9.780,13.358 9.832,13.392 9.884,13.426 C9.884,13.460 9.884,13.494 9.884,13.528 C10.005,13.630 10.127,13.732 10.248,13.834 C10.283,13.885 10.318,13.936 10.352,13.987 C10.387,13.987 10.422,13.987 10.456,13.987 C10.491,14.038 10.526,14.089 10.560,14.140 C10.595,14.140 10.630,14.140 10.664,14.140 C10.682,14.174 10.699,14.208 10.717,14.242 C10.751,14.242 10.786,14.242 10.821,14.242 C10.821,14.259 10.821,14.276 10.821,14.293 C10.855,14.293 10.890,14.293 10.925,14.293 C10.925,14.310 10.925,14.327 10.925,14.344 C10.959,14.344 10.994,14.344 11.029,14.344 C11.029,14.361 11.029,14.378 11.029,14.395 C11.063,14.395 11.098,14.395 11.133,14.395 C11.133,14.412 11.133,14.429 11.133,14.446 C11.167,14.446 11.202,14.446 11.237,14.446 C11.237,14.463 11.237,14.480 11.237,14.497 C11.289,14.497 11.341,14.497 11.393,14.497 C11.393,14.514 11.393,14.531 11.393,14.548 C11.445,14.548 11.497,14.548 11.549,14.548 C11.549,14.565 11.549,14.582 11.549,14.599 C11.601,14.599 11.653,14.599 11.705,14.599 C11.705,14.616 11.705,14.633 11.705,14.650 C11.847,14.697 12.807,14.758 13.005,14.701 C13.961,14.426 14.571,14.139 15.086,13.426 C15.138,13.392 15.190,13.358 15.242,13.324 C15.242,13.290 15.242,13.256 15.242,13.222 C15.277,13.205 15.312,13.188 15.346,13.171 C15.381,13.069 15.416,12.966 15.450,12.864 C15.468,12.864 15.485,12.864 15.503,12.864 C15.520,12.796 15.537,12.728 15.554,12.660 C15.572,12.660 15.589,12.660 15.607,12.660 C15.607,12.609 15.607,12.558 15.607,12.507 C15.624,12.507 15.641,12.507 15.659,12.507 C15.659,12.456 15.659,12.405 15.659,12.354 C15.676,12.354 15.693,12.354 15.711,12.354 C15.711,12.303 15.711,12.252 15.711,12.201 C15.728,12.201 15.745,12.201 15.763,12.201 C15.763,12.116 15.763,12.031 15.763,11.946 C15.780,11.946 15.797,11.946 15.815,11.946 C15.872,11.750 15.811,10.810 15.763,10.671 C15.745,10.671 15.728,10.671 15.711,10.671 C15.711,10.620 15.711,10.569 15.711,10.518 C15.693,10.518 15.676,10.518 15.659,10.518 C15.641,10.416 15.624,10.313 15.607,10.211 C15.589,10.211 15.572,10.211 15.554,10.211 C15.554,10.178 15.554,10.144 15.554,10.109 C15.537,10.109 15.520,10.109 15.503,10.109 C15.503,10.075 15.503,10.041 15.503,10.007 C15.485,10.007 15.468,10.007 15.450,10.007 C15.450,9.973 15.450,9.939 15.450,9.905 C15.433,9.905 15.416,9.905 15.399,9.905 C15.399,9.872 15.399,9.837 15.399,9.803 C15.381,9.803 15.364,9.803 15.346,9.803 C15.346,9.769 15.346,9.735 15.346,9.701 C15.312,9.684 15.277,9.667 15.242,9.650 C15.242,9.616 15.242,9.582 15.242,9.548 C15.190,9.514 15.138,9.480 15.086,9.446 C15.086,9.412 15.086,9.378 15.086,9.344 C15.017,9.293 14.948,9.242 14.878,9.191 C14.792,9.089 14.705,8.987 14.618,8.885 C14.583,8.885 14.549,8.885 14.514,8.885 C14.479,8.834 14.445,8.783 14.410,8.732 C14.375,8.732 14.341,8.732 14.306,8.732 C14.289,8.698 14.271,8.664 14.254,8.630 C14.185,8.613 14.115,8.596 14.046,8.579 C14.046,8.562 14.046,8.545 14.046,8.528 C13.942,8.494 13.838,8.460 13.734,8.426 C13.734,8.409 13.734,8.392 13.734,8.375 C13.578,8.341 13.422,8.307 13.266,8.273 C13.266,8.256 13.266,8.239 13.266,8.222 C12.967,8.124 12.351,8.168 11.965,8.171 Z"/>
</svg>