<svg 
 xmlns="http://www.w3.org/2000/svg"
 xmlns:xlink="http://www.w3.org/1999/xlink"
 width="22px" height="22px">
<path fill-rule="evenodd"  fill="rgb(0, 0, 0)"
 d="M21.792,11.521 C21.742,11.550 21.661,11.530 21.608,11.530 C21.595,11.532 21.581,11.535 21.568,11.538 C21.437,11.535 21.307,11.533 21.176,11.530 C21.056,11.533 20.936,11.536 20.816,11.538 C20.413,11.536 20.010,11.534 19.607,11.532 C17.658,11.537 15.707,11.541 13.758,11.546 C13.344,11.544 12.931,11.542 12.517,11.540 C12.397,11.542 12.277,11.545 12.157,11.548 C12.021,11.546 11.885,11.543 11.749,11.541 C11.741,11.543 11.733,11.546 11.725,11.549 C11.668,11.549 11.596,11.525 11.541,11.557 C11.540,14.963 11.539,18.370 11.538,21.776 C11.535,21.778 11.532,21.781 11.530,21.784 C11.527,21.781 11.524,21.779 11.522,21.776 C11.172,21.779 10.823,21.782 10.473,21.785 C10.471,21.769 10.471,21.785 10.473,21.769 C10.455,21.698 10.473,21.587 10.474,21.513 C10.471,21.489 10.468,21.465 10.466,21.441 C10.468,21.278 10.471,21.116 10.474,20.953 C10.472,20.801 10.469,20.649 10.467,20.497 C10.470,20.051 10.473,19.606 10.476,19.160 C10.475,18.165 10.473,17.170 10.471,16.175 C10.475,15.234 10.479,14.292 10.483,13.350 C10.480,12.841 10.478,12.331 10.476,11.822 C10.478,11.722 10.479,11.622 10.481,11.522 C8.014,11.523 5.546,11.523 3.079,11.524 C2.127,11.527 1.175,11.531 0.222,11.535 C0.195,11.519 0.215,11.480 0.215,11.463 C0.214,11.398 0.215,11.335 0.215,11.271 C0.212,11.006 0.210,10.743 0.208,10.478 C0.258,10.450 0.338,10.470 0.392,10.470 C0.405,10.468 0.418,10.465 0.432,10.462 C0.562,10.465 0.693,10.467 0.824,10.470 C0.944,10.467 1.064,10.464 1.184,10.461 C1.587,10.464 1.990,10.466 2.392,10.468 C4.342,10.463 6.292,10.458 8.242,10.454 C8.656,10.456 9.069,10.458 9.483,10.460 C9.603,10.457 9.723,10.455 9.843,10.452 C9.979,10.454 10.115,10.457 10.251,10.459 C10.259,10.457 10.267,10.454 10.275,10.451 C10.331,10.451 10.404,10.474 10.459,10.443 C10.460,7.037 10.461,3.630 10.462,0.224 C10.465,0.221 10.467,0.219 10.470,0.216 C10.473,0.219 10.475,0.221 10.478,0.224 C10.828,0.221 11.177,0.218 11.526,0.215 C11.529,0.231 11.529,0.215 11.526,0.231 C11.545,0.301 11.526,0.412 11.526,0.487 C11.529,0.511 11.531,0.535 11.534,0.559 C11.531,0.722 11.528,0.884 11.526,1.047 C11.528,1.199 11.530,1.351 11.533,1.503 C11.530,1.949 11.527,2.394 11.523,2.840 C11.525,3.834 11.527,4.830 11.528,5.825 C11.525,6.766 11.521,7.708 11.517,8.649 C11.519,9.159 11.521,9.668 11.523,10.178 C11.522,10.278 11.520,10.378 11.519,10.477 C13.986,10.477 16.453,10.477 18.920,10.476 C19.873,10.473 20.825,10.469 21.777,10.465 C21.805,10.480 21.785,10.520 21.785,10.537 C21.786,10.601 21.785,10.665 21.785,10.729 C21.787,10.993 21.790,11.257 21.792,11.521 Z"/>
</svg>