<svg 
 xmlns="http://www.w3.org/2000/svg"
 xmlns:xlink="http://www.w3.org/1999/xlink"
 width="20px" height="16px">
<path fill-rule="evenodd"  fill="rgb(105, 106, 106)"
 d="M19.713,15.309 C19.207,16.036 18.201,16.218 17.469,15.715 L10.841,11.164 C10.372,10.843 10.129,10.319 10.147,9.792 C9.293,10.701 8.172,11.311 6.916,11.538 C5.373,11.817 3.814,11.483 2.528,10.600 C1.241,9.717 0.377,8.388 0.096,6.858 C-0.185,5.328 0.151,3.781 1.042,2.503 C2.882,-0.134 6.542,-0.796 9.202,1.030 C11.616,2.688 12.387,5.834 11.132,8.374 C11.623,8.169 12.204,8.209 12.676,8.533 L19.306,13.083 C20.038,13.587 20.221,14.583 19.713,15.309 ZM9.887,5.088 C9.691,4.021 9.089,3.095 8.192,2.480 C6.338,1.206 3.785,1.667 2.501,3.505 C1.218,5.347 1.683,7.879 3.536,9.151 C5.390,10.425 7.943,9.964 9.227,8.125 C9.849,7.234 10.083,6.156 9.887,5.088 Z"/>
</svg>