<?xml version="1.0" standalone="no"?>
<!DOCTYPE svg PUBLIC "-//W3C//DTD SVG 1.1//EN" "http://www.w3.org/Graphics/SVG/1.1/DTD/svg11.dtd" >
<svg xmlns="http://www.w3.org/2000/svg" xmlns:xlink="http://www.w3.org/1999/xlink" version="1.1">
<metadata>
Created by FontForge 20160405 at Tue Jan  9 02:18:58 2018
 By www-data
Copyright (c) 2010-2013 by tyPoland Lukasz Dziedzic with Reserved Font Name "Carlito". Licensed under the SIL Open Font License, Version 1.1.
</metadata>
<defs>
<font id="Carlito-Bold" horiz-adv-x="1038" >
  <font-face 
    font-family="Carlito"
    font-weight="700"
    font-stretch="normal"
    units-per-em="2048"
    panose-1="2 15 5 2 2 2 4 3 2 4"
    ascent="1536"
    descent="-512"
    x-height="993"
    cap-height="1328"
    bbox="-416 -397 2267 1798"
    underline-thickness="194"
    underline-position="-394"
    unicode-range="U+000D-04FF"
  />
<missing-glyph 
d="M229 1109q56 45 127 75t168 30q70 0 125 -18.5t93 -52.5t58 -81.5t20 -105.5q0 -53 -13 -91t-33.5 -66.5t-44.5 -49t-45.5 -38t-38.5 -34.5t-22 -38l-22 -91h-174l-18 109q-6 36 4.5 62t30 47t44 38.5t46 37t36 43t14.5 56.5q0 31 -20.5 50t-62.5 19q-34 0 -56.5 -6
t-39 -13.5t-29.5 -13.5t-28 -6q-36 0 -52 30zM368 307q0 28 10.5 53t29 43.5t43.5 29t55 10.5q28 0 53 -10.5t43.5 -29t29 -43.5t10.5 -53q0 -29 -10.5 -53.5t-29 -43t-43.5 -29t-53 -10.5q-30 0 -55 10.5t-43.5 29t-29 43t-10.5 53.5zM40 1398h983v-1398h-983v1398zM105 69
h844v1260h-844v-1260z" />
    <glyph glyph-name="f_b.liga" unicode="fb" horiz-adv-x="1730" 
d="M767 0v1272q-32 11 -66.5 18t-68.5 7q-55 0 -97.5 -18.5t-71 -52t-43 -79t-14.5 -99.5v-62h237v-180h-229v-806h-254v806l-75 14q-29 5 -46.5 20t-17.5 43v103h139v62q0 89 27 164.5t85.5 130.5t151.5 86t224 31q45 0 85 -3.5t81.5 -7.5t88 -7.5t104.5 -4.5h14h11l-11 -8
v-553q58 60 129 96.5t160 36.5q85 0 153 -34t116 -97.5t74 -153.5t26 -202q0 -121 -30 -220t-85 -169.5t-131.5 -109t-170.5 -38.5q-46 0 -82.5 9t-67.5 25.5t-56.5 40t-49.5 52.5l-11 -64q-5 -27 -20 -37.5t-39 -10.5h-169zM1222 811q-64 0 -111 -28.5t-90 -82.5v-438
q38 -47 82 -66t94 -19t91 18.5t69.5 59t44 104t15.5 153.5q0 80 -13 136.5t-37.5 92.5t-61 53t-83.5 17z" />
    <glyph glyph-name="f_f_b.liga" unicode="ffb" horiz-adv-x="2313" 
d="M157 0v806l-72 14q-29 5 -47 20t-18 43v103h137v51q0 85 25 153.5t72.5 116.5t115 73.5t153.5 25.5q33 0 62.5 -5t59.5 -13l-5 -127q-2 -29 -24.5 -37.5t-49.5 -8.5q-39 0 -69 -9t-50.5 -30.5t-31.5 -57t-11 -89.5v-43h354v62q0 89 27 164.5t85 130.5t150 86t222 31
q48 0 89.5 -3.5t85.5 -8t94 -8t113 -3.5l-15 -11v-550q58 60 129 96.5t160 36.5q85 0 153 -34t116 -97.5t74 -153.5t26 -202q0 -121 -30 -220t-85 -169.5t-131.5 -109t-170.5 -38.5q-46 0 -82.5 9t-67.5 25.5t-56.5 40t-49.5 52.5l-11 -64q-5 -27 -20 -37.5t-39 -10.5h-169
v1274q-31 11 -64 17t-65 6q-54 0 -95.5 -18.5t-69.5 -52t-42.5 -79t-14.5 -99.5v-62h233v-180h-225v-806h-254v806h-347v-806h-254zM1810 811q-64 0 -111 -28.5t-90 -82.5v-438q38 -47 82 -66t94 -19t91 18.5t69.5 59t44 104t15.5 153.5q0 80 -13 136.5t-37.5 92.5t-61 53
t-83.5 17z" />
    <glyph glyph-name="f_f.liga" unicode="ff" horiz-adv-x="1230" 
d="M153 0v806l-69 14q-29 5 -46.5 20t-17.5 43v103h133v51q0 85 25 153.5t71.5 116.5t113.5 73.5t151 25.5q32 0 61 -5t59 -13l-6 -127q-2 -29 -23.5 -37.5t-47.5 -8.5q-38 0 -67 -9t-49.5 -30.5t-31 -57t-10.5 -89.5v-43h343v85q0 85 25 153t71.5 116t113.5 73.5t151 25.5
q32 0 61 -4.5t59 -13.5l-5 -126q0 -14 -6.5 -23t-17 -14t-23 -7t-25.5 -2q-38 0 -67 -9t-49.5 -30.5t-31 -57.5t-10.5 -89v-77h227v-180h-219v-806h-254v806h-335v-806h-254z" />
    <glyph glyph-name="f_h.liga" unicode="fh" horiz-adv-x="1730" 
d="M772 0v1271q-32 12 -67.5 19t-70.5 7q-56 0 -98.5 -18.5t-71 -52t-43.5 -79t-15 -99.5v-62h239v-180h-231v-806h-254v806l-75 14q-29 5 -46.5 20t-17.5 43v103h139v62q0 89 27 164.5t86 130.5t152 86t225 31q48 0 90 -3.5t86 -8t94 -8t114 -3.5l-8 -6v-538
q57 52 123.5 84t158.5 32q81 0 143 -28t104 -78t63.5 -119.5t21.5 -151.5v-632h-254v632q0 85 -39 132t-117 47q-58 0 -108.5 -25t-95.5 -70v-716h-254z" />
    <glyph glyph-name="f_f_h.liga" unicode="ffh" horiz-adv-x="2313" 
d="M157 0v806l-72 14q-29 5 -47 20t-18 43v103h137v51q0 85 25 153.5t72.5 116.5t115 73.5t153.5 25.5q33 0 62.5 -5t59.5 -13l-5 -127q-2 -29 -24.5 -37.5t-49.5 -8.5q-39 0 -69 -9t-50.5 -30.5t-31.5 -57t-11 -89.5v-43h354v62q0 89 27 164.5t85 130.5t150 86t222 31
q48 0 89.5 -3.5t85.5 -8t94 -8t113 -3.5l-16 -12v-532q57 52 123.5 84t158.5 32q81 0 143 -28t104 -78t63.5 -119.5t21.5 -151.5v-632h-254v632q0 85 -39 132t-117 47q-58 0 -108.5 -25t-95.5 -70v-716h-254v1274q-31 11 -63.5 17t-64.5 6q-54 0 -95.5 -18.5t-69.5 -52
t-42.5 -79t-14.5 -99.5v-62h233v-180h-225v-806h-254v806h-347v-806h-254z" />
    <glyph glyph-name="f_i.liga" unicode="fi" horiz-adv-x="1135" 
d="M21 0zM160 0v806l-75 14q-29 5 -46.5 20t-17.5 43v103h139v111q0 157 77 245t220 88q26 0 47.5 -2t41.5 -10v-137q0 -20 -15.5 -26.5t-35.5 -6.5q-50 0 -69.5 -35t-19.5 -116v-111h597v-986h-254v806h-335v-806h-254zM1038 1281q0 -33 -13 -61.5t-35 -50t-52 -34
t-63 -12.5q-32 0 -60.5 12.5t-50 34t-34 50t-12.5 61.5t12.5 62t34 50.5t50 34t60.5 12.5q33 0 63 -12.5t52 -34t35 -50.5t13 -62z" />
    <glyph glyph-name="f_f_i.liga" unicode="ffi" horiz-adv-x="1718" 
d="M20 0zM1335 0v806h-327v-806h-254v806h-343v-806h-254v806l-72 14q-29 5 -47 20t-18 43v103h137v51q0 85 25 153.5t72 116.5t114.5 73.5t152.5 25.5q33 0 62 -5t60 -13l-6 -127q-1 -14 -7.5 -23t-16.5 -14t-23 -7t-26 -2q-38 0 -68 -9t-50.5 -30.5t-31.5 -57t-11 -89.5
v-43h351v111q0 78 19.5 140t57 105t92 65.5t124.5 22.5q26 0 47.5 -2t42.5 -10v-137q0 -20 -15.5 -26.5t-35.5 -6.5q-49 0 -67.5 -35t-18.5 -116v-111h589v-986h-254zM1627 1281q0 -33 -13 -61.5t-35 -50t-52 -34t-63 -12.5q-32 0 -60.5 12.5t-50 34t-34 50t-12.5 61.5
t12.5 62t34 50.5t50 34t60.5 12.5q33 0 63 -12.5t52 -34t35 -50.5t13 -62z" />
    <glyph glyph-name="f_j.liga" unicode="fj" horiz-adv-x="1135" 
d="M21 0zM160 0v806l-75 14q-29 5 -46.5 20t-17.5 43v103h139v111q0 157 77 245t220 88q26 0 47.5 -2t41.5 -10v-137q0 -20 -15.5 -26.5t-35.5 -6.5q-50 0 -69.5 -35t-19.5 -116v-111h597v-1010q0 -67 -16.5 -125.5t-54 -102t-98.5 -69t-149 -25.5q-34 0 -63 4.5t-59 13.5
l10 136q2 20 13 26.5t46 6.5q34 0 56.5 6.5t36 22.5t19 41.5t5.5 64.5v830h-335v-806h-254zM1037 1281q0 -33 -13 -61.5t-35 -50t-52 -34t-63 -12.5q-32 0 -60.5 12.5t-50 34t-34 50t-12.5 61.5t12.5 62t34 50.5t50 34t60.5 12.5q33 0 63 -12.5t52 -34t35 -50.5t13 -62z" />
    <glyph glyph-name="f_f_j.liga" unicode="ffj" horiz-adv-x="1718" 
d="M20 0zM157 0v806l-72 14q-29 5 -47 20t-18 43v103h137v51q0 85 25 153.5t72 116.5t114.5 73.5t152.5 25.5q33 0 62 -5t60 -13l-6 -127q-1 -14 -7.5 -23t-16.5 -14t-23 -7t-26 -2q-38 0 -68 -9t-50.5 -30.5t-31.5 -57t-11 -89.5v-43h351v111q0 78 19.5 140t57 105t92 65.5
t124.5 22.5q26 0 47.5 -2t42.5 -10v-137q0 -20 -15.5 -26.5t-35.5 -6.5q-49 0 -67.5 -35t-18.5 -116v-111h589v-1010q0 -67 -16.5 -125.5t-53.5 -102t-97 -69t-148 -25.5q-33 0 -62 4.5t-59 13.5l10 136q1 20 12.5 26.5t44.5 6.5t55.5 6.5t35.5 22.5t18.5 41.5t5.5 64.5v830
h-327v-806h-254v806h-343v-806h-254zM1628 1281q0 -33 -13 -61.5t-35 -50t-52 -34t-63 -12.5q-32 0 -60.5 12.5t-50 34t-34 50t-12.5 61.5t12.5 62t34 50.5t50 34t60.5 12.5q33 0 63 -12.5t52 -34t35 -50.5t13 -62z" />
    <glyph glyph-name="f_k.liga" unicode="fk" horiz-adv-x="1613" 
d="M148 0v807l-65 13q-29 5 -46.5 20t-17.5 43v103h129v62q0 89 26 164.5t82 130.5t144.5 86t214.5 31q44 0 82.5 -3.5t78.5 -7.5t84.5 -7.5t100.5 -4.5h26v-818h39q24 0 36.5 7t25.5 26l182 298q15 20 34.5 31.5t48.5 11.5h232l-240 -365q-17 -22 -35.5 -39t-40.5 -31
q20 -15 35.5 -34.5t30.5 -42.5l261 -481h-228q-58 0 -84 44l-182 370q-12 23 -25.5 30t-38.5 7h-51v-451h-254v1268q-32 13 -66 21t-69 8q-49 0 -87 -18.5t-64 -52t-39.5 -79t-13.5 -99.5v-62h216v-180h-208v-806h-254z" />
    <glyph glyph-name="f_f_k.liga" unicode="ffk" horiz-adv-x="2197" 
d="M149 0v807l-66 13q-29 5 -46.5 20t-17.5 43v103h130v51q0 85 24 153.5t70 116.5t112 73.5t149 25.5q32 0 60 -5t58 -13l-6 -127q-2 -29 -23.5 -37.5t-45.5 -8.5q-36 0 -64.5 -9t-48 -30.5t-29.5 -57t-10 -89.5v-43h330v62q0 89 26 164.5t82.5 130.5t145.5 86t215 31
q46 0 87 -3.5t83.5 -8t91 -8t111.5 -3.5h2v-818h39q24 0 36.5 7t25.5 26l182 298q15 20 34.5 31.5t48.5 11.5h232l-240 -365q-17 -22 -35.5 -39t-40.5 -31q20 -15 35.5 -34.5t30.5 -42.5l261 -481h-228q-58 0 -84 44l-182 370q-12 23 -25.5 30t-38.5 7h-51v-451h-254v1268
q-32 13 -67 21t-70 8q-50 0 -88.5 -18.5t-65 -52t-40 -79t-13.5 -99.5v-62h218v-180h-210v-806h-254v806h-322v-806h-254z" />
    <glyph glyph-name="f_l.liga" unicode="fl" horiz-adv-x="1135" 
d="M155 0v806l-70 14q-29 5 -47 20t-18 43v103h135v40q0 78 23 151t71.5 128.5t123 89t176.5 33.5q79 0 150.5 -5.5t142.5 -6.5h165v-1416h-252v1241q-48 2 -91.5 4.5t-72.5 2.5q-94 0 -142 -57t-48 -165v-40h209v-180h-201v-806h-254z" />
    <glyph glyph-name="f_f_l.liga" unicode="ffl" horiz-adv-x="1718" 
d="M153 0v806l-69 14q-29 5 -46.5 20t-17.5 43v103h133v51q0 85 25 153.5t71.5 116.5t113.5 73.5t151 25.5q33 0 61.5 -5t59.5 -13l-6 -127q-1 -14 -7.5 -23t-16.5 -14t-22.5 -7t-25.5 -2q-38 0 -67 -9t-49 -30.5t-30.5 -57t-10.5 -89.5v-43h343v40q0 78 23 151t71 128.5
t122 89t176 33.5q86 0 162 -6t152 -6h142v-1416h-252v1242q-47 2 -90 4t-72 2q-93 0 -140.5 -57t-47.5 -165v-40h227v-180h-219v-806h-254v806h-336v-806h-254z" />
    <glyph glyph-name="f_t.liga" unicode="ft" horiz-adv-x="1302" 
d="M1012 806v-525q0 -44 18.5 -68.5t50.5 -24.5q18 0 30 4.5t21 10.5t16.5 10.5t15.5 4.5q11 0 18 -5.5t15 -17.5l77 -123q-52 -43 -117.5 -65t-135.5 -22q-127 0 -195 74.5t-68 204.5v542h-350v-806h-254v806l-70 14q-29 5 -46.5 20t-17.5 43v103h134v69q0 85 25 153
t71.5 116t113.5 73.5t151 25.5q33 0 62 -4.5t59 -13.5l-6 -127q-1 -14 -7.5 -23t-16.5 -14t-22.5 -6.5t-25.5 -1.5q-38 0 -67 -9t-49.5 -30.5t-31 -57.5t-10.5 -89v-61h370l54 265q9 41 56 41h132v-306h238v-180h-238z" />
    <glyph glyph-name="f_f_t.liga" unicode="fft" horiz-adv-x="1886" 
d="M153 0v806l-69 14q-29 5 -46.5 20t-17.5 43v103h133v51q0 85 25 153.5t71.5 116.5t113.5 73.5t151 25.5q32 0 61 -5t59 -13l-6 -127q-2 -29 -23.5 -37.5t-47.5 -8.5q-38 0 -67 -9t-49.5 -30.5t-31 -57t-10.5 -89.5v-43h343v69q0 85 24.5 153t71 116t113.5 73.5t151 25.5
q32 0 61 -4.5t59 -13.5l-4 -127q-1 -14 -7.5 -23t-16.5 -14t-23 -6.5t-26 -1.5q-38 0 -67 -9t-49 -30.5t-30.5 -57.5t-10.5 -89v-61h368l53 265q11 41 56 41h133v-306h236v-180h-236v-525q0 -44 18 -68.5t50 -24.5q18 0 29.5 4.5t20.5 10.5t16.5 10.5t15.5 4.5q20 0 34 -23
l76 -123q-52 -43 -117 -65t-136 -22q-126 0 -193.5 74.5t-67.5 204.5v542h-348v-806h-254v806h-335v-806h-254z" />
    <glyph glyph-name="t_f.liga" unicode="tf" horiz-adv-x="1296" 
d="M800 0v806h-390v-525q0 -44 18.5 -68.5t53.5 -24.5q19 0 31.5 4.5t21.5 10.5t16.5 10.5t16.5 4.5q11 0 18 -5.5t15 -17.5l77 -123q-52 -43 -118.5 -65t-137.5 -22q-64 0 -113.5 19.5t-83.5 55.5t-51.5 87.5t-17.5 116.5v542h-89q-20 0 -34 13.5t-14 39.5v101l150 28
l53 263q9 41 56 41h132v-306h390v69q0 85 25 153t72.5 116t115 73.5t152.5 25.5q34 0 63.5 -4.5t59.5 -13.5l-5 -127q-2 -29 -24.5 -37t-49.5 -8q-39 0 -69.5 -9t-51.5 -30.5t-32 -57.5t-11 -89v-61h235v-180h-226v-806h-254z" />
    <glyph glyph-name="t_t.liga" unicode="tt" horiz-adv-x="1344" 
d="M430 -15q-130 0 -199.5 74.5t-69.5 204.5v542h-92q-20 0 -34.5 13.5t-14.5 39.5v101l154 29l53 262q9 41 56 41h132v-306h382l54 265q9 41 56 41h132v-306h250v-180h-250v-525q0 -44 20 -68.5t55 -24.5q19 0 32.5 4.5t23.5 10.5l17.5 10.5t16.5 4.5q19 0 33 -23l77 -123
q-53 -43 -120 -65t-139 -22q-131 0 -200.5 74.5t-69.5 204.5v542h-370v-525q0 -44 20 -68.5t55 -24.5q19 0 32.5 4.5t23 10.5t17 10.5t16.5 4.5q11 0 18 -5.5t15 -17.5l77 -123q-53 -43 -120 -65t-139 -22z" />
    <glyph glyph-name="t_t_f.liga" unicode="ttf" horiz-adv-x="1930" 
d="M1429 0v806h-396v-525q0 -44 19.5 -68.5t53.5 -24.5q19 0 32 4.5t23 10.5l17.5 10.5t16.5 4.5q19 0 33 -23l76 -123q-52 -43 -118.5 -65t-138.5 -22q-130 0 -199 74.5t-69 204.5v542h-366v-525q0 -44 19.5 -68.5t54.5 -24.5q19 0 32 4.5t22.5 10.5t17 10.5t16.5 4.5
q11 0 18 -5.5t15 -17.5l77 -123q-53 -43 -119.5 -65t-138.5 -22q-130 0 -199 74.5t-69 204.5v542h-91q-20 0 -34.5 13.5t-14.5 39.5v101l153 29l53 262q9 41 56 41h132v-306h378l53 265q11 41 56 41h133v-306h396v69q0 85 25.5 153t73.5 116t116 73.5t154 25.5q34 0 64 -4.5
t61 -13.5l-6 -127q-2 -29 -24.5 -37t-50.5 -8q-40 0 -71 -9t-52.5 -30.5t-32.5 -57.5t-11 -89v-61h238v-180h-230v-806h-254z" />
    <glyph glyph-name="t_i.liga" unicode="ti" horiz-adv-x="1199" 
d="M18 0zM1079 986v-986h-254v806h-416v-525q0 -44 18.5 -68.5t53.5 -24.5q18 0 30.5 4.5t21.5 10.5t16.5 10.5t16.5 4.5q11 0 18 -5.5t15 -17.5l77 -123q-52 -43 -118 -65t-137 -22q-64 0 -113.5 19.5t-83.5 55.5t-51.5 87.5t-17.5 116.5v542h-88q-20 0 -34.5 13.5
t-14.5 39.5v101l150 28l53 263q9 41 56 41h132v-306h670zM1121 1281q0 -33 -13 -61.5t-35 -50t-52 -34t-63 -12.5q-32 0 -60.5 12.5t-50 34t-34 50t-12.5 61.5t12.5 62t34 50.5t50 34t60.5 12.5q33 0 63 -12.5t52 -34t35 -50.5t13 -62z" />
    <glyph glyph-name="t_t_i.liga" unicode="tti" horiz-adv-x="1832" 
d="M20 0zM430 -15q-130 0 -199.5 74.5t-69.5 204.5v542h-92q-20 0 -34.5 13.5t-14.5 39.5v101l154 29l53 262q9 41 56 41h132v-306h383l54 265q9 41 56 41h132v-306h666v-986h-254v806h-412v-525q0 -44 20 -68.5t55 -24.5q19 0 32.5 4.5t23.5 10.5l17.5 10.5t16.5 4.5
q20 0 34 -23l76 -123q-53 -43 -120 -65t-139 -22q-131 0 -200.5 74.5t-69.5 204.5v542h-371v-525q0 -44 20 -68.5t55 -24.5q19 0 32.5 4.5t23 10.5t17.5 10.5t17 4.5q11 0 18 -5.5t15 -17.5l77 -123q-53 -43 -120.5 -65t-139.5 -22zM1743 1281q0 -33 -13 -61.5t-35 -50
t-52 -34t-63 -12.5q-32 0 -60.5 12.5t-50 34t-34 50t-12.5 61.5t12.5 62t34 50.5t50 34t60.5 12.5q33 0 63 -12.5t52 -34t35 -50.5t13 -62z" />
    <glyph glyph-name=".notdef" 
d="M229 1109q56 45 127 75t168 30q70 0 125 -18.5t93 -52.5t58 -81.5t20 -105.5q0 -53 -13 -91t-33.5 -66.5t-44.5 -49t-45.5 -38t-38.5 -34.5t-22 -38l-22 -91h-174l-18 109q-6 36 4.5 62t30 47t44 38.5t46 37t36 43t14.5 56.5q0 31 -20.5 50t-62.5 19q-34 0 -56.5 -6
t-39 -13.5t-29.5 -13.5t-28 -6q-36 0 -52 30zM368 307q0 28 10.5 53t29 43.5t43.5 29t55 10.5q28 0 53 -10.5t43.5 -29t29 -43.5t10.5 -53q0 -29 -10.5 -53.5t-29 -43t-43.5 -29t-53 -10.5q-30 0 -55 10.5t-43.5 29t-29 43t-10.5 53.5zM40 1398h983v-1398h-983v1398zM105 69
h844v1260h-844v-1260z" />
    <glyph glyph-name="glyph1" horiz-adv-x="0" 
d="M-17 -322q0 8 5 13t12 5q8 0 13 -5t5 -13q0 -7 -5 -12t-13 -5q-7 0 -12 5t-5 12z" />
    <glyph glyph-name="glyph1" horiz-adv-x="0" 
d="M-17 -322q0 8 5 13t12 5q8 0 13 -5t5 -13q0 -7 -5 -12t-13 -5q-7 0 -12 5t-5 12z" />
    <glyph glyph-name="uni000D" unicode="&#xd;" horiz-adv-x="0" 
 />
    <glyph glyph-name="space" unicode=" " horiz-adv-x="463" 
 />
    <glyph glyph-name="exclam" unicode="!" horiz-adv-x="667" 
d="M455 1398v-552q0 -88 -9 -173t-24 -179h-172q-15 94 -24 179t-9 173v552h238zM181 137q0 31 11.5 59t32 48t48.5 32t60 12t60 -12t48.5 -32t32.5 -48t12 -59q0 -32 -12 -60t-32.5 -48t-48.5 -31.5t-60 -11.5t-60 11.5t-48.5 31.5t-32 48t-11.5 60z" />
    <glyph glyph-name="quotedbl" unicode="&#x22;" horiz-adv-x="898" 
d="M129 877zM349 1398v-277l-23 -151q-6 -45 -25 -69t-63 -24q-38 0 -58 24t-27 69l-24 151v277h220zM712 1398v-277l-23 -151q-6 -45 -25 -69t-63 -24q-38 0 -58 24t-27 69l-24 151v277h220z" />
    <glyph glyph-name="numbersign" unicode="#" horiz-adv-x="1020" 
d="M749 390l-64 -390h-117q-18 0 -33 8.5t-25 22.5t-14.5 33.5t-0.5 40.5l46 285h-156l-47 -298q-9 -49 -41.5 -70.5t-72.5 -21.5h-113l64 390h-86q-38 0 -55 23t-8 79l13 80h159l42 256h-180l19 105q8 40 32.5 58.5t79.5 18.5h71l50 303q7 41 37 63t70 22h116l-65 -388h158
l65 388h113q39 0 62.5 -24.5t17.5 -62.5l-50 -301h174l-19 -105q-8 -39 -33 -58t-79 -19h-65l-42 -256h106q39 0 56 -22.5t8 -78.5l-13 -81h-180zM407 572h157l42 256h-158z" />
    <glyph glyph-name="dollar" unicode="$" 
d="M418 -13q-97 13 -178.5 51.5t-140.5 98.5l54 86q14 21 32 32t44 11q16 0 34 -10t41.5 -24t55.5 -28t76 -22l24 272q-58 15 -115.5 35.5t-103 56.5t-74 91t-28.5 138q0 60 23 117t70 103.5t118.5 77.5t168.5 38l18 205h142l-19 -210q81 -13 148.5 -44.5t114.5 -77.5
l-58 -95q-11 -17 -23.5 -27.5t-32.5 -10.5q-15 0 -30 8t-34.5 19t-43.5 22.5t-57 18.5l-24 -271q57 -16 114.5 -37t103.5 -55.5t75 -86t29 -129.5q0 -70 -27.5 -131.5t-77.5 -109t-120.5 -78.5t-155.5 -38l-17 -201h-144zM721 304q0 46 -34 71t-88 42l-21 -239q79 10 111 44
t32 82zM374 796q0 -41 29.5 -65.5t77.5 -41.5l21 233q-38 -6 -62.5 -17.5t-39 -28t-20.5 -37t-6 -43.5z" />
    <glyph glyph-name="percent" unicode="%" horiz-adv-x="1493" 
d="M680 1060q0 -78 -26 -142t-69.5 -109t-100.5 -69.5t-119 -24.5q-68 0 -125.5 24.5t-99.5 69.5t-65.5 109t-23.5 142q0 81 23.5 146t65.5 111t99.5 70.5t125.5 24.5t126 -24.5t100 -70.5t65.5 -111t23.5 -146zM484 1060q0 54 -9 90t-25 58t-38 31.5t-47 9.5
q-26 0 -47 -9.5t-37 -31.5t-24.5 -58t-8.5 -90q0 -52 8.5 -87t24.5 -56t37 -30t47 -9q25 0 47 9t38 30t25 56t9 87zM1442 329q0 -78 -26 -142t-69.5 -109.5t-100.5 -70t-120 -24.5q-68 0 -125 24.5t-99 70t-65.5 109.5t-23.5 142q0 81 23.5 146t65.5 111t99 70.5t125 24.5
q69 0 127 -24.5t100 -70.5t65.5 -111t23.5 -146zM1246 329q0 53 -9 89t-25.5 58t-38.5 31.5t-47 9.5t-46 -9.5t-36.5 -31.5t-24.5 -58t-9 -89q0 -52 9 -87t24.5 -56t36.5 -30t46 -9t47 9t38.5 30t25.5 56t9 87zM415 72q-26 -42 -56.5 -57t-70.5 -15h-108l851 1315
q25 40 56.5 61.5t76.5 21.5h109z" />
    <glyph glyph-name="ampersand" unicode="&#x26;" horiz-adv-x="1443" 
d="M670 1414q89 0 159.5 -26.5t121 -70t79 -100.5t33.5 -118l-162 -33q-21 -5 -38.5 4.5t-26.5 32.5q-10 25 -24 46.5t-34 37.5t-47 25.5t-61 9.5q-42 0 -75 -13.5t-55.5 -36.5t-34.5 -53.5t-12 -63.5q0 -27 6 -52.5t20 -52t36.5 -54t55.5 -59.5l386 -386q33 61 53 128.5
t27 138.5q2 24 15 38t36 14h160q-1 -131 -39 -248.5t-107 -215.5l307 -306h-250q-39 0 -62.5 9.5t-50.5 37.5l-98 96q-97 -75 -216 -116.5t-256 -41.5q-84 0 -165.5 28t-145.5 80t-103 126.5t-39 167.5q0 65 22 123.5t61 108t92.5 90t117.5 69.5q-52 72 -75.5 140.5
t-23.5 134.5q0 73 28 139t81 115t129.5 78t174.5 29zM561 187q86 0 157.5 24.5t130.5 68.5l-376 370q-80 -50 -115.5 -111t-35.5 -131q0 -51 19 -92t51.5 -69.5t76 -44t92.5 -15.5z" />
    <glyph glyph-name="quotesingle" unicode="'" horiz-adv-x="478" 
d="M349 1398v-277l-23 -151q-6 -45 -25 -69t-63 -24q-38 0 -58 24t-27 69l-24 151v277h220z" />
    <glyph glyph-name="parenleft" unicode="(" horiz-adv-x="638" 
d="M345 605q0 -197 47.5 -388.5t133.5 -358.5q11 -21 13 -36.5t-2.5 -27.5t-13.5 -20.5t-19 -15.5l-113 -68q-72 110 -122.5 221t-82.5 225t-46.5 230.5t-14.5 238.5t14.5 239t46.5 230.5t82.5 224.5t122.5 221l113 -68q10 -7 19 -15.5t13.5 -20.5t2.5 -27.5t-13 -36.5
q-86 -167 -133.5 -358.5t-47.5 -388.5z" />
    <glyph glyph-name="parenright" unicode=")" horiz-adv-x="638" 
d="M293 605q0 197 -47.5 388.5t-133.5 358.5q-11 21 -13 36.5t2.5 27.5t13 20.5t19.5 15.5l113 68q71 -110 121.5 -221t82.5 -224.5t47 -230.5t15 -239t-15 -238.5t-47 -230.5t-82.5 -225t-121.5 -221l-113 68q-11 7 -19.5 15.5t-13 20.5t-2.5 27.5t13 36.5
q86 167 133.5 358.5t47.5 388.5z" />
    <glyph glyph-name="asterisk" unicode="*" horiz-adv-x="1020" 
d="M448 801v174q0 20 2.5 38.5t8.5 35.5q-11 -14 -25.5 -24.5t-31.5 -20.5l-150 -87l-60 101l150 88q17 10 35 17t36 10q-38 6 -71 28l-150 90l60 100l150 -88q17 -10 32 -21t26 -25q-7 17 -9.5 35t-2.5 38v175h121v-174q0 -20 -2.5 -38.5t-8.5 -35.5q11 14 26 25t32 21
l149 87l60 -101l-149 -88q-18 -10 -35.5 -17.5t-35.5 -10.5q18 -3 36 -10t35 -17l149 -90l-59 -100l-150 88q-37 20 -60 46q13 -32 13 -73v-176h-121z" />
    <glyph glyph-name="plus" unicode="+" horiz-adv-x="1020" 
d="M612 1134v-392h369v-188h-369v-394h-207v394h-368v188h368v392h207z" />
    <glyph glyph-name="comma" unicode="," horiz-adv-x="528" 
d="M118 153q0 28 10.5 53t30 43t46 28.5t59.5 10.5q39 0 67.5 -13.5t47 -37t28 -54t9.5 -64.5q0 -47 -14.5 -99t-42 -104.5t-69 -102t-95.5 -90.5l-45 40q-10 9 -14 17.5t-4 20.5q0 8 6 18t14 18q11 12 26.5 28.5t31 38t28.5 46.5t20 54q-31 1 -57 12.5t-44.5 31.5
t-28.5 46.5t-10 58.5z" />
    <glyph glyph-name="hyphen" unicode="-" horiz-adv-x="627" 
d="M61 690h505v-212h-505v212z" />
    <glyph glyph-name="period" unicode="." horiz-adv-x="547" 
d="M121 137q0 31 11.5 59t32 48t48.5 32t60 12t60 -12t48.5 -32t32.5 -48t12 -59q0 -32 -12 -60t-32.5 -48t-48.5 -31.5t-60 -11.5t-60 11.5t-48.5 31.5t-32 48t-11.5 60z" />
    <glyph glyph-name="slash" unicode="/" horiz-adv-x="880" 
d="M225 1q-19 -47 -57 -70.5t-79 -23.5h-107l680 1441q17 43 51 66t80 23h107z" />
    <glyph glyph-name="zero" unicode="0" 
d="M996 665q0 -174 -36.5 -302t-101 -212t-152 -124.5t-189.5 -40.5t-188.5 40.5t-150.5 124.5t-100 212t-36 302t36 301.5t100 211t150.5 124.5t188.5 41t189.5 -41t152 -124.5t101 -211t36.5 -301.5zM747 665q0 142 -19.5 234.5t-51.5 147t-73.5 76t-85.5 21.5
t-84.5 -21.5t-72 -76t-50.5 -147t-19 -234.5q0 -143 19 -235.5t50.5 -147t72 -76t84.5 -21.5t85.5 21.5t73.5 76t51.5 147t19.5 235.5z" />
    <glyph glyph-name="one" unicode="1" 
d="M236 180h257v744q0 46 3 96l-173 -149q-17 -14 -34 -17t-32 0t-26.5 10.5t-17.5 15.5l-76 104l399 346h198v-1150h227v-180h-725v180z" />
    <glyph glyph-name="two" unicode="2" 
d="M69 0zM538 1343q92 0 167.5 -27.5t129 -77.5t83 -120.5t29.5 -155.5q0 -73 -21 -135.5t-56 -119t-82 -110t-99 -107.5l-282 -295q45 14 90 21.5t84 7.5h301q38 0 61.5 -22t23.5 -58v-144h-898v81q0 23 9.5 49.5t33.5 49.5l386 397q49 51 86.5 97t63 91.5t38.5 92t13 97.5
q0 92 -46 139t-130 47q-36 0 -66 -11t-54 -30t-41 -45t-26 -56q-16 -46 -43.5 -60t-75.5 -6l-128 22q15 97 54 169.5t97.5 121t134.5 73t163 24.5z" />
    <glyph glyph-name="three" unicode="3" 
d="M76 0zM561 1343q92 0 165.5 -27t124.5 -73.5t78.5 -109t27.5 -133.5q0 -63 -13.5 -111t-39.5 -84t-64 -61t-86 -41q227 -77 227 -307q0 -101 -36.5 -177.5t-98 -128.5t-143 -78t-171.5 -26q-95 0 -167.5 22t-127 66.5t-94 110.5t-67.5 153l106 45q42 17 78.5 8.5
t51.5 -39.5q18 -34 38 -63.5t45.5 -52t58.5 -35.5t76 -13q53 0 92.5 17.5t65.5 46t39 64.5t13 72q0 46 -8.5 84t-38 65t-86.5 42t-155 15v171q82 1 134.5 15t82.5 39.5t41 60.5t11 78q0 91 -45.5 137t-127.5 46q-73 0 -122 -41t-68 -101q-16 -46 -42.5 -60t-75.5 -6l-127 22
q14 97 53 169.5t98 121t134.5 73t162.5 24.5z" />
    <glyph glyph-name="four" unicode="4" 
d="M15 0zM854 505h153v-138q0 -20 -13 -34t-36 -14h-104v-319h-210v319h-539q-23 0 -41.5 14.5t-23.5 37.5l-25 121l609 837h230v-824zM644 916q0 29 1.5 63.5t6.5 71.5l-383 -546h375v411z" />
    <glyph glyph-name="five" unicode="5" 
d="M59 0zM889 1227q0 -51 -33 -83.5t-109 -32.5h-340l-44 -261q79 16 152 16q102 0 180.5 -31.5t131.5 -86.5t80 -129t27 -159q0 -106 -36.5 -193.5t-101.5 -149.5t-154.5 -96.5t-195.5 -34.5q-62 0 -117.5 13t-104.5 35t-90.5 51t-74.5 61l74 102q25 33 62 33
q24 0 47 -14.5t52.5 -32.5t69 -32.5t96.5 -14.5q59 0 102.5 20t72.5 55t43.5 82.5t14.5 103.5q0 106 -59 164t-171 58q-45 0 -91 -8.5t-92 -25.5l-149 41l108 651h650v-101z" />
    <glyph glyph-name="six" unicode="6" 
d="M456 845q34 15 72 23.5t82 8.5q71 0 140 -26t123 -78t87 -131t33 -184q0 -98 -34 -184t-95.5 -150t-147.5 -101.5t-191 -37.5q-107 0 -191.5 36t-144 101t-91 156t-31.5 201q0 100 37.5 203.5t112.5 214.5l300 442q19 25 55 42t81 17h226l-385 -503zM311 440
q0 -56 13 -102t39.5 -78.5t65.5 -50.5t91 -18q47 0 87 19t69.5 52t46 78.5t16.5 98.5q0 58 -16 104t-44.5 78t-69 49t-89.5 17q-46 0 -84.5 -18.5t-66 -51t-43 -78t-15.5 -99.5z" />
    <glyph glyph-name="seven" unicode="7" 
d="M82 0zM984 1328v-103q0 -46 -10 -75t-19 -48l-477 -1020q-17 -34 -46.5 -58t-80.5 -24h-176l488 997q17 33 35 61t41 53h-602q-21 0 -38 16.5t-17 38.5v162h902z" />
    <glyph glyph-name="eight" unicode="8" 
d="M519 -15q-102 0 -186.5 29t-145 82.5t-93.5 129.5t-33 169q0 120 54 206t174 128q-93 42 -139 120.5t-46 187.5q0 80 30.5 149t85.5 119.5t131.5 79.5t167.5 29t167.5 -29t131.5 -79.5t85.5 -119.5t30.5 -149q0 -109 -46 -187.5t-140 -120.5q120 -42 174.5 -128
t54.5 -206q0 -93 -33 -169t-93.5 -129.5t-145 -82.5t-186.5 -29zM519 182q50 0 87 16.5t61 45.5t36 68.5t12 86.5q0 109 -46.5 166.5t-149.5 57.5q-102 0 -149 -58t-47 -166q0 -47 12 -86.5t36 -68.5t61 -45.5t87 -16.5zM519 822q49 0 81.5 18t52 47t27 67t7.5 78
q0 37 -9.5 72t-30 61t-52 42t-76.5 16t-76.5 -16t-52 -42t-30 -61t-9.5 -72q0 -40 7.5 -78t27 -67t51.5 -47t82 -18z" />
    <glyph glyph-name="nine" unicode="9" 
d="M111 0zM620 512q14 18 27 35t25 34q-43 -26 -94.5 -40t-108.5 -14q-66 0 -130 24t-115 71.5t-82 119t-31 167.5q0 89 32 168t91 138t141 93.5t183 34.5t182 -32.5t137.5 -90.5t86.5 -139t30 -178q0 -63 -10 -119t-29 -107.5t-45.5 -100t-59.5 -96.5l-290 -425
q-17 -23 -50 -39t-75 -16h-220zM764 926q0 53 -15.5 94t-43.5 69.5t-66 43t-84 14.5q-47 0 -84.5 -16.5t-64 -46t-41 -69.5t-14.5 -87q0 -108 52 -164.5t151 -56.5q51 0 90 16.5t65.5 46t40.5 69.5t14 87z" />
    <glyph glyph-name="colon" unicode=":" horiz-adv-x="565" 
d="M131 0zM131 137q0 31 11.5 59t32 48t48.5 32t60 12t60 -12t48.5 -32t32.5 -48t12 -59q0 -32 -12 -60t-32.5 -48t-48.5 -31.5t-60 -11.5t-60 11.5t-48.5 31.5t-32 48t-11.5 60zM131 815q0 31 11.5 59t32 48t48.5 32t60 12t60 -12t48.5 -32t32.5 -48t12 -59q0 -32 -12 -60
t-32.5 -48t-48.5 -31.5t-60 -11.5t-60 11.5t-48.5 31.5t-32 48t-11.5 60z" />
    <glyph glyph-name="semicolon" unicode=";" horiz-adv-x="565" 
d="M130 0zM138 153q0 28 10.5 53t30 43t46 28.5t59.5 10.5q39 0 67.5 -13.5t47 -37t28 -54t9.5 -64.5q0 -47 -14.5 -99t-42 -104.5t-69 -102t-95.5 -90.5l-45 40q-10 9 -14 17.5t-4 20.5q0 8 6 18t14 18q11 12 26.5 28.5t31 38t28.5 46.5t20 54q-31 1 -57 12.5t-44.5 31.5
t-28.5 46.5t-10 58.5zM130 815q0 31 11.5 59t32 48t48.5 32t60 12t60 -12t48.5 -32t32.5 -48t12 -59q0 -32 -12 -60t-32.5 -48t-48.5 -31.5t-60 -11.5t-60 11.5t-48.5 31.5t-32 48t-11.5 60z" />
    <glyph glyph-name="less" unicode="&#x3c;" horiz-adv-x="1020" 
d="M82 701l769 403v-181q0 -20 -10 -37t-34 -29l-330 -170q-45 -23 -103 -37q56 -13 103 -36l330 -170q24 -12 34 -28.5t10 -36.5v-182l-769 403v101z" />
    <glyph glyph-name="equal" unicode="=" horiz-adv-x="1020" 
d="M79 570h861v-187h-861v187zM79 914h861v-187h-861v187z" />
    <glyph glyph-name="greater" unicode="&#x3e;" horiz-adv-x="1020" 
d="M169 197v182q0 20 10 36.5t34 28.5l330 170q45 22 102 36q-58 14 -101 37l-332 170q-23 12 -33 29t-10 37v181l769 -403v-101z" />
    <glyph glyph-name="question" unicode="?" horiz-adv-x="949" 
d="M99 1272q34 29 73.5 55t86 45.5t100 30.5t115.5 11q86 0 156 -23.5t120 -67t77.5 -105t27.5 -137.5q0 -74 -21 -127t-53 -92.5t-70 -69t-71.5 -54.5t-58.5 -49.5t-30 -55.5l-24 -139h-173l-19 157q-6 46 13 80t50.5 62.5t70 55t72 57t56 69.5t22.5 92q0 66 -46 104.5
t-121 38.5q-54 0 -91 -12t-63.5 -26t-44.5 -26t-34 -12q-34 0 -53 31zM276 137q0 31 11.5 59t32 48t48.5 32t60 12t60 -12t48.5 -32t32.5 -48t12 -59q0 -32 -12 -60t-32.5 -48t-48.5 -31.5t-60 -11.5t-60 11.5t-48.5 31.5t-32 48t-11.5 60z" />
    <glyph glyph-name="at" unicode="@" horiz-adv-x="1840" 
d="M1252 177q-66 0 -117 29.5t-73 97.5q-57 -68 -121 -97t-137 -29q-61 0 -107 21.5t-76.5 59t-45.5 89t-15 111.5q0 55 14 111.5t42 109t70.5 99t99 80.5t128 54t158.5 20q78 0 131.5 -11.5t104.5 -33.5l-93 -361q-15 -59 -15 -96.5t11 -59t31.5 -30t46.5 -8.5
q39 0 74 25.5t61 70.5t41 107t15 136q0 124 -38.5 218.5t-107.5 158t-165 95.5t-212 32q-126 0 -233.5 -47t-185.5 -129.5t-122.5 -194t-44.5 -239.5q0 -158 48.5 -277t133.5 -198.5t201 -120t250 -40.5q75 0 139.5 8.5t118 22t97 31t76.5 36.5q26 15 46.5 8.5t29.5 -29.5
l34 -91q-98 -65 -233 -107t-308 -42q-176 0 -326 55.5t-259 159t-170.5 251.5t-61.5 333q0 103 27 200t76 183t118.5 157.5t155.5 123t185 80t208 28.5q92 0 180 -20.5t166 -60.5t144 -97.5t113.5 -131.5t74 -163.5t26.5 -192.5q0 -104 -31 -194t-85.5 -157t-129.5 -105.5
t-163 -38.5zM855 340q24 0 48 7.5t46 26t40 49t30 77.5l69 270q-14 2 -28.5 3.5t-29.5 1.5q-57 0 -107 -25.5t-87 -68t-58.5 -98.5t-21.5 -117q0 -60 25.5 -93t73.5 -33z" />
    <glyph glyph-name="A" unicode="A" horiz-adv-x="1241" 
d="M1240 0h-202q-35 0 -56 16.5t-31 41.5l-84 261h-489l-83 -260q-8 -22 -30.5 -40.5t-55.5 -18.5h-205l484 1328h268zM437 503h370l-135 420q-12 31 -25 72.5t-26 90.5q-12 -49 -25 -91t-24 -73z" />
    <glyph glyph-name="B" unicode="B" horiz-adv-x="1148" 
d="M119 0v1328h451q128 0 219 -25t148.5 -71t84 -111.5t26.5 -146.5q0 -46 -13 -89t-40 -80t-69.5 -67.5t-101.5 -51.5q257 -62 257 -293q0 -85 -31 -157t-90.5 -124.5t-147 -82t-200.5 -29.5h-493zM382 577v-373h225q63 0 105 16t66.5 43t34.5 62.5t10 73.5q0 41 -11.5 74
t-37 56t-67 35.5t-101.5 12.5h-224zM382 758h173q111 0 171 42.5t60 140.5q0 102 -52 143.5t-164 41.5h-188v-368z" />
    <glyph glyph-name="C" unicode="C" horiz-adv-x="1084" 
d="M922 322q21 0 36 -16l105 -113q-72 -101 -180.5 -154t-257.5 -53q-135 0 -243 50.5t-183.5 141t-116 215t-40.5 272.5q0 149 43.5 273.5t122.5 214.5t189 140t242 50q134 0 237 -47.5t172 -125.5l-88 -123q-9 -11 -20.5 -20t-32.5 -9t-40.5 16t-48 35t-71.5 35t-110 16
q-73 0 -133 -30.5t-103 -89t-66.5 -143t-23.5 -192.5q0 -109 26 -194t70.5 -143.5t104.5 -89t129 -30.5q41 0 74 4.5t61.5 16t53.5 29.5t50 45q10 8 20.5 13.5t21.5 5.5z" />
    <glyph glyph-name="D" unicode="D" horiz-adv-x="1291" 
d="M1244 665q0 -146 -46 -268.5t-130.5 -210.5t-203.5 -137t-264 -49h-484v1328h484q145 0 264 -49t203.5 -137t130.5 -210t46 -267zM977 665q0 106 -26 190t-74.5 143t-118.5 90.5t-158 31.5h-220v-911h220q88 0 158 31t118.5 90t74.5 143.5t26 191.5z" />
    <glyph glyph-name="E" unicode="E" horiz-adv-x="999" 
d="M928 1328v-209h-546v-351h425v-201h-425v-358h547l-1 -209h-810v1328h810z" />
    <glyph glyph-name="F" unicode="F" horiz-adv-x="940" 
d="M890 1328v-209h-517v-376h433v-209h-433v-534h-264v1328h781z" />
    <glyph glyph-name="G" unicode="G" horiz-adv-x="1305" 
d="M1216 128q-100 -75 -213 -108.5t-240 -33.5q-161 0 -291.5 50.5t-223.5 141t-143.5 215t-50.5 272.5q0 149 48 273.5t137.5 214.5t216 140t282.5 50q81 0 151 -13t130 -36t109.5 -55t89.5 -71l-75 -118q-17 -28 -45.5 -34.5t-61.5 13.5q-31 19 -62 35.5t-66.5 29
t-78.5 19.5t-99 7q-94 0 -169 -32.5t-128 -91.5t-81.5 -143.5t-28.5 -187.5q0 -112 31 -200t87.5 -148.5t136.5 -92t178 -31.5q66 0 118.5 13.5t103.5 37.5v232h-153q-24 0 -38.5 14t-14.5 34v148h444v-544v0z" />
    <glyph glyph-name="H" unicode="H" horiz-adv-x="1292" 
d="M1179 0h-264v575h-538v-575h-264v1328h264v-567h538v567h264v-1328z" />
    <glyph glyph-name="I" unicode="I" horiz-adv-x="546" 
d="M405 0h-264v1328h264v-1328z" />
    <glyph glyph-name="J" unicode="J" horiz-adv-x="678" 
d="M582 475q0 -111 -23.5 -201.5t-72 -154.5t-122 -98.5t-172.5 -34.5q-45 0 -88 5.5t-90 18.5l14 156q2 20 16 33.5t40 13.5q14 0 33 -6t48 -6q40 0 69 14.5t48 46.5t28.5 82.5t9.5 123.5v860h262v-853z" />
    <glyph glyph-name="K" unicode="K" horiz-adv-x="1120" 
d="M359 777h42q60 0 85 40l261 457q22 30 48.5 42t64.5 12h229l-342 -547q-37 -53 -79 -75q30 -11 54 -32t46 -53l348 -621h-233q-44 0 -65.5 13.5t-36.5 35.5l-265 484q-15 24 -35.5 35t-56.5 11h-65v-579h-263v1328h263v-551z" />
    <glyph glyph-name="L" unicode="L" horiz-adv-x="866" 
d="M371 216h461v-216h-724v1328h263v-1112z" />
    <glyph glyph-name="M" unicode="M" horiz-adv-x="1790" 
d="M838 567q34 -63 59 -131q14 35 28 68.5t31 64.5l409 718q8 15 16.5 23.5t18.5 12t23 4.5t30 1h198v-1328h-231v831q0 27 1.5 58.5t4.5 64.5l-419 -742q-31 -58 -91 -58h-37q-61 0 -92 58l-424 746q4 -34 6 -66.5t2 -60.5v-831h-232v1328h199q17 0 29.5 -1t23 -5t19 -12
t16.5 -23l412 -720v0z" />
    <glyph glyph-name="N" unicode="N" horiz-adv-x="1349" 
d="M260 1328q17 0 29 -1.5t21.5 -6t18 -12.5t19.5 -21l654 -862q-6 66 -6 125v778h231v-1328h-135q-31 0 -51.5 10.5t-40.5 34.5l-652 857q6 -62 6 -115v-787h-232v1328h138v0z" />
    <glyph glyph-name="O" unicode="O" horiz-adv-x="1385" 
d="M1338 665q0 -146 -46 -270.5t-130.5 -215.5t-203.5 -142t-264 -51t-264 51t-204 142t-131.5 215.5t-46.5 270.5q0 145 46.5 269.5t131.5 215t204 142t264 51.5t264 -51.5t203.5 -142.5t130.5 -215t46 -269zM1070 665q0 106 -26 190t-74.5 143t-118 90.5t-157.5 31.5
t-158 -31.5t-118.5 -90.5t-74.5 -143t-26 -190q0 -107 26 -191.5t74.5 -143t118.5 -89.5t158 -31t157.5 31t118 89.5t74.5 143t26 191.5z" />
    <glyph glyph-name="P" unicode="P" horiz-adv-x="1090" 
d="M378 461v-461h-263v1328h427q129 0 222 -32t154 -88.5t90 -134.5t29 -171q0 -98 -30.5 -179t-92 -139t-154.5 -90.5t-218 -32.5h-164zM378 665h164q120 0 176 63.5t56 173.5q0 103 -57 163.5t-175 60.5h-164v-461z" />
    <glyph glyph-name="Q" unicode="Q" horiz-adv-x="1405" 
d="M1348 665q0 -169 -60.5 -306.5t-169.5 -229.5l341 -386h-216q-47 0 -83.5 12t-68.5 47l-184 213q-96 -29 -203 -29q-145 0 -264 51t-204 142t-131.5 215.5t-46.5 270.5q0 145 46.5 269.5t131.5 215t204 142t264 51.5t264 -51.5t203.5 -142.5t130.5 -215t46 -269z
M1080 665q0 106 -26 190t-74.5 143t-118 90.5t-157.5 31.5t-158 -31.5t-118.5 -90.5t-74.5 -143t-26 -190q0 -107 26 -191.5t74.5 -143t118.5 -89.5t158 -31t157.5 31t118 89.5t74.5 143t26 191.5z" />
    <glyph glyph-name="R" unicode="R" horiz-adv-x="1153" 
d="M382 511v-511h-264v1328h400q133 0 228 -28.5t155.5 -79.5t88.5 -122t28 -156q0 -65 -18 -123.5t-52.5 -107t-84.5 -86t-115 -60.5q25 -14 47 -33.5t41 -47.5l297 -484h-237q-63 0 -97 53l-242 414q-15 24 -33.5 34t-52.5 10h-89zM382 698h134q64 0 110.5 17t76.5 47
t44.5 71.5t14.5 90.5q0 97 -60 149.5t-184 52.5h-136v-428z" />
    <glyph glyph-name="S" unicode="S" horiz-adv-x="968" 
d="M821 1078q-10 -20 -23.5 -28.5t-33.5 -8.5q-19 0 -41 14t-51.5 30.5t-68.5 30.5t-90 14q-90 0 -135.5 -44t-45.5 -115q0 -45 24.5 -74.5t65 -51t92 -38.5t105.5 -36.5t105.5 -46t92 -66.5t65 -98t24.5 -141q0 -90 -29.5 -169t-86.5 -137.5t-139.5 -92.5t-188.5 -34
q-60 0 -119.5 12.5t-114.5 35.5t-104 55t-86 72l78 125q9 15 24.5 24t33.5 9q24 0 49.5 -18.5t59.5 -41t79 -41t107 -18.5q90 0 140 46t50 136q0 51 -24.5 83t-64.5 53.5t-91.5 37t-105 33.5t-105 43.5t-91.5 67.5t-64.5 104t-24.5 154q0 73 28 142.5t82 123.5t132.5 86.5
t179.5 32.5q114 0 211.5 -37t166.5 -104z" />
    <glyph glyph-name="T" unicode="T" horiz-adv-x="1014" 
d="M996 1328v-214h-358v-1114h-262v1114h-358v214h978z" />
    <glyph glyph-name="U" unicode="U" horiz-adv-x="1337" 
d="M669 212q70 0 124.5 23t92 65t57.5 102t20 134v792h262v-792q0 -120 -38.5 -221t-110.5 -174.5t-175 -114.5t-232 -41t-232.5 41t-175.5 114.5t-110.5 174.5t-38.5 221v792h263v-792q0 -74 20 -134t57.5 -102t92 -65t124.5 -23z" />
    <glyph glyph-name="V" unicode="V" horiz-adv-x="1211" 
d="M1 1328h211q34 0 55.5 -16t32.5 -42l250 -784q15 -41 30 -89t28 -100q11 53 24.5 101.5t29.5 89.5l249 782q8 23 31 40.5t56 17.5h212l-486 -1328h-237z" />
    <glyph glyph-name="W" unicode="W" horiz-adv-x="1856" 
d="M9 1328h220q35 0 57.5 -16t30.5 -42l196 -767q17 -60 32 -139q8 39 16 74.5t19 65.5l232 766q8 23 31 40.5t55 17.5h77q35 0 56.5 -15.5t30.5 -42.5l232 -767q10 -29 18.5 -63.5t16.5 -72.5q7 38 14.5 72t15.5 63l196 768q7 23 30.5 40.5t55.5 17.5h206l-394 -1328h-238
l-263 883q-6 17 -11.5 38t-10.5 44q-5 -23 -11 -44t-11 -38l-268 -883h-237z" />
    <glyph glyph-name="X" unicode="X" horiz-adv-x="1128" 
d="M386 683l-365 645h264q26 0 37.5 -6.5t21.5 -22.5l240 -461l16 29l210 427q11 17 23 25.5t29 8.5h251l-369 -633l377 -695h-261q-27 0 -42.5 13.5t-26.5 30.5l-241 479q-2 -5 -5 -9.5t-5 -9.5l-224 -459q-11 -17 -25 -31t-37 -14h-247z" />
    <glyph glyph-name="Y" unicode="Y" horiz-adv-x="1064" 
d="M662 512v-512h-260v514l-417 814h233q32 0 52 -16t33 -42l164 -429q21 -40 37.5 -75t29.5 -70q11 35 27 70t36 74l163 430q11 21 32 39.5t54 18.5h233z" />
    <glyph glyph-name="Z" unicode="Z" horiz-adv-x="979" 
d="M949 1328v-97q0 -43 -25 -79l-572 -943h581v-209h-899v102q0 40 23 72l572 945h-551v209h871z" />
    <glyph glyph-name="bracketleft" unicode="[" horiz-adv-x="665" 
d="M148 -302v1797h405v-99q0 -26 -19 -45t-48 -19h-126v-1470h126q29 0 48 -19t19 -45v-100h-405z" />
    <glyph glyph-name="backslash" unicode="\" horiz-adv-x="880" 
d="M-28 1437h108q46 0 80 -23t51 -66l673 -1441h-106q-41 0 -79.5 23.5t-57.5 70.5z" />
    <glyph glyph-name="bracketright" unicode="]" horiz-adv-x="665" 
d="M112 -202q0 26 19 45t48 19h126v1470h-126q-29 0 -48 19t-19 45v99h405v-1797h-405v100z" />
    <glyph glyph-name="asciicircum" unicode="^" horiz-adv-x="1020" 
d="M982 654h-186q-23 0 -38.5 12t-24.5 29l-175 359q-16 32 -28 60.5t-21 57.5q-9 -29 -21 -57.5t-26 -60.5l-162 -358q-8 -17 -24 -29.5t-42 -12.5h-196l385 744h165z" />
    <glyph glyph-name="underscore" unicode="_" horiz-adv-x="1020" 
d="M1020 -122v-164h-1020v164h1020z" />
    <glyph glyph-name="grave" unicode="`" horiz-adv-x="615" 
d="M315 1414q41 0 61 -13.5t35 -39.5l134 -235h-144q-29 0 -46.5 7.5t-36.5 27.5l-241 253h238z" />
    <glyph glyph-name="a" unicode="a" horiz-adv-x="1011" 
d="M789 0q-36 0 -55 10.5t-30 42.5l-22 66q-38 -33 -73 -58t-72.5 -42t-80 -25.5t-94.5 -8.5q-64 0 -117 17.5t-91.5 51.5t-59.5 84.5t-21 116.5q0 55 28 110t95.5 99.5t180 74t280.5 33.5v53q0 96 -40 141t-115 45q-56 0 -92.5 -13t-64.5 -28.5t-52 -28.5t-54 -13
q-26 0 -44.5 13.5t-29.5 32.5l-46 80q86 80 190 119t225 39q87 0 156 -28.5t117 -80t73 -122.5t25 -156v-625h-116zM441 158q68 0 117.5 24.5t98.5 75.5v160q-99 -4 -164.5 -16.5t-104.5 -32t-55.5 -45.5t-16.5 -56q0 -60 33.5 -85t91.5 -25z" />
    <glyph glyph-name="b" unicode="b" horiz-adv-x="1099" 
d="M124 0v1437h254v-561q58 60 129 96.5t160 36.5q85 0 153 -34t116 -97.5t74 -153.5t26 -202q0 -121 -30 -220t-85 -169.5t-131.5 -109t-170.5 -38.5q-46 0 -82.5 9t-67.5 25.5t-56.5 40t-49.5 52.5l-11 -64q-5 -27 -20 -37.5t-39 -10.5h-169zM579 811q-64 0 -111 -28.5
t-90 -82.5v-438q38 -47 82 -66t94 -19t91 18.5t69.5 59t44 104t15.5 153.5q0 80 -13 136.5t-37.5 92.5t-61 53t-83.5 17z" />
    <glyph glyph-name="c" unicode="c" horiz-adv-x="857" 
d="M761 776q-11 -14 -22 -22.5t-31 -8.5q-19 0 -35 11t-36.5 24.5t-48 24.5t-69.5 11q-52 0 -90.5 -22t-63.5 -63t-37.5 -100t-12.5 -132q0 -155 53 -238.5t146 -83.5q49 0 78 14t49 30.5t36.5 30.5t39.5 14q29 0 45 -23l74 -94q-40 -48 -85 -79.5t-92.5 -50.5t-96 -26.5
t-95.5 -7.5q-84 0 -158.5 34.5t-131 100.5t-89.5 161.5t-33 217.5q0 109 29 202t85.5 161.5t140 107.5t193.5 39q104 0 183 -36.5t142 -105.5z" />
    <glyph glyph-name="d" unicode="d" horiz-adv-x="1099" 
d="M818 0q-23 0 -39.5 11.5t-21.5 34.5l-22 89q-59 -67 -135 -108.5t-178 -41.5q-79 0 -145 34t-113.5 99t-74 159.5t-26.5 216.5q0 111 30 205.5t85 164t132.5 109t172.5 39.5q80 0 136.5 -24.5t101.5 -67.5v517h254v-1437h-157zM511 186q35 0 64.5 7.5t54.5 21.5
t47.5 34.5t43.5 47.5v438q-38 48 -82.5 66.5t-95.5 18.5q-49 0 -89.5 -19.5t-69 -59.5t-44 -101.5t-15.5 -145.5q0 -85 13 -143.5t37 -95t58.5 -53t77.5 -16.5z" />
    <glyph glyph-name="e" unicode="e" horiz-adv-x="1031" 
d="M539 1009q94 0 173 -30.5t136 -88t89 -141.5t32 -192q0 -29 -3 -47.5t-9.5 -29.5t-18 -15.5t-28.5 -4.5h-594q6 -72 26 -125t53 -87t78 -50.5t100 -16.5t95.5 13.5t71 29t54.5 29t47 13.5q28 0 46 -23l73 -94q-41 -48 -91 -79.5t-103.5 -50t-108.5 -26.5t-106 -8
q-103 0 -192 34t-155 101.5t-103.5 167t-37.5 230.5q0 101 33 190.5t94.5 156t149.5 105.5t199 39zM544 828q-97 0 -152 -56.5t-71 -159.5h420q0 43 -11.5 82t-36 69t-61.5 47.5t-88 17.5z" />
    <glyph glyph-name="f" unicode="f" horiz-adv-x="648" 
d="M156 0v806l-71 14q-29 5 -47 20t-18 43v103h136v69q0 85 25 153t72 116t114 73.5t152 25.5q33 0 62 -4.5t60 -13.5l-6 -127q-2 -29 -24 -37t-49 -8q-38 0 -68 -9t-50.5 -30.5t-31 -57.5t-10.5 -89v-61h230v-180h-222v-806h-254z" />
    <glyph glyph-name="g" unicode="g" horiz-adv-x="971" 
d="M461 1010q60 0 113.5 -13t98.5 -37h276v-95q0 -22 -12.5 -35t-41.5 -19l-78 -16q18 -50 18 -106q0 -74 -28.5 -133.5t-79 -101.5t-119 -64.5t-147.5 -22.5q-24 0 -47 2t-46 6q-37 -24 -37 -56q0 -29 26 -42t68 -18.5t96 -7t110.5 -6.5t110.5 -17t96 -39t68 -72t26 -116
q0 -66 -31 -128.5t-90 -111.5t-145 -78.5t-196 -29.5q-108 0 -188 22t-132 58t-77.5 83.5t-25.5 98.5q0 67 38 113.5t105 74.5q-35 20 -56.5 55t-21.5 89q0 22 7.5 45.5t23.5 47t39 44.5t55 38q-72 41 -113.5 108.5t-41.5 158.5q0 74 29 133.5t79.5 101t120 64t150.5 22.5z
M698 -42q0 27 -15 44t-41 26.5t-61 14t-74.5 7t-82 4.5t-83.5 7q-33 -21 -53.5 -49t-20.5 -65q0 -25 10.5 -46t34.5 -36t64 -23.5t99 -8.5q62 0 104.5 9.5t69 26t38 39.5t11.5 50zM461 530q77 0 113.5 42t36.5 111q0 70 -36.5 110.5t-113.5 40.5q-76 0 -112.5 -40.5
t-36.5 -110.5q0 -68 36.5 -110.5t112.5 -42.5z" />
    <glyph glyph-name="h" unicode="h" horiz-adv-x="1099" 
d="M125 0v1437h254v-544q57 52 123.5 84t158.5 32q81 0 143 -28t104 -78t63.5 -119.5t21.5 -151.5v-632h-254v632q0 85 -39 132t-117 47q-58 0 -108.5 -25t-95.5 -70v-716h-254z" />
    <glyph glyph-name="i" unicode="i" horiz-adv-x="503" 
d="M90 0zM379 993v-993h-254v993h254zM410 1278q0 -33 -13 -61.5t-35 -50t-52 -34t-63 -12.5q-32 0 -60.5 12.5t-50 34t-34 50t-12.5 61.5t12.5 62t34 50.5t50 34t60.5 12.5q33 0 63 -12.5t52 -34t35 -50.5t13 -62z" />
    <glyph glyph-name="j" unicode="j" horiz-adv-x="523" 
d="M0 0zM391 993v-1017q0 -67 -17 -125.5t-56 -102t-102 -69t-154 -25.5q-35 0 -65 4.5t-62 13.5l9 136q2 20 15 26.5t49 6.5q37 0 62 6.5t40 22.5t21 41.5t6 64.5v1017h254zM425 1278q0 -33 -13 -61.5t-35 -50t-52 -34t-63 -12.5q-32 0 -60.5 12.5t-50 34t-34 50
t-12.5 61.5t12.5 62t34 50.5t50 34t60.5 12.5q33 0 63 -12.5t52 -34t35 -50.5t13 -62z" />
    <glyph glyph-name="k" unicode="k" horiz-adv-x="983" 
d="M361 1437v-818h39q24 0 36.5 7t25.5 26l182 298q15 20 34.5 31.5t48.5 11.5h232l-240 -365q-17 -22 -35.5 -39t-40.5 -31q20 -15 35.5 -34.5t30.5 -42.5l261 -481h-228q-58 0 -84 44l-182 370q-12 23 -25.5 30t-38.5 7h-51v-451h-254v1437h254z" />
    <glyph glyph-name="l" unicode="l" horiz-adv-x="503" 
d="M379 1437v-1437h-254v1437h254z" />
    <glyph glyph-name="m" unicode="m" horiz-adv-x="1666" 
d="M128 0v993h156q24 0 40.5 -11t21.5 -34l17 -70q27 28 55.5 52t61.5 41.5t70.5 27.5t82.5 10q95 0 156.5 -50.5t91.5 -133.5q24 49 59.5 84t78.5 57t90.5 32.5t95.5 10.5q84 0 149.5 -25.5t110 -74t67.5 -118.5t23 -159v-632h-254v632q0 179 -160 179q-36 0 -67 -11.5
t-54.5 -34t-37 -56t-13.5 -77.5v-632h-254v632q0 96 -40 137.5t-116 41.5q-51 0 -95 -23t-82 -65v-723h-254z" />
    <glyph glyph-name="n" unicode="n" horiz-adv-x="1099" 
d="M124 0v993h156q24 0 40.5 -11t21.5 -34l17 -73q30 30 62 54.5t69 42t78.5 27.5t91.5 10q81 0 143 -28t104 -78t63.5 -119.5t21.5 -151.5v-632h-254v632q0 85 -39 132t-117 47q-58 0 -108.5 -25t-95.5 -70v-716h-254z" />
    <glyph glyph-name="o" unicode="o" horiz-adv-x="1101" 
d="M552 1009q109 0 199 -35.5t154 -102t99 -161t35 -211.5q0 -119 -35 -214t-99 -161.5t-154 -102.5t-199 -36q-110 0 -200.5 36t-155 102.5t-99.5 161.5t-35 214q0 117 35 211.5t99.5 161t155 102t200.5 35.5zM552 179q115 0 170 80.5t55 237.5t-55 237.5t-170 80.5
q-117 0 -172.5 -80.5t-55.5 -237.5t55.5 -237.5t172.5 -80.5z" />
    <glyph glyph-name="p" unicode="p" horiz-adv-x="1099" 
d="M123 -322v1315h156q24 0 40.5 -11t21.5 -34l21 -87q30 33 63 61t71.5 48t83 31t96.5 11q79 0 145 -34t114 -98.5t74.5 -159.5t26.5 -216q0 -111 -30 -206t-85 -164.5t-132.5 -109t-173.5 -39.5q-81 0 -137 24.5t-101 66.5v-398h-254zM589 811q-71 0 -120 -28.5t-92 -82.5
v-440q38 -46 82.5 -64.5t95.5 -18.5q49 0 89.5 19.5t69.5 59.5t44.5 101.5t15.5 146.5q0 84 -13 142.5t-37 95t-58 53t-77 16.5z" />
    <glyph glyph-name="q" unicode="q" horiz-adv-x="1099" 
d="M976 993v-1315h-254v441q-58 -61 -130 -97.5t-169 -36.5q-79 0 -145 34t-114 99t-74.5 159.5t-26.5 216.5q0 111 30 205.5t85 164t132.5 109t173.5 39.5q45 0 82.5 -8t69 -23t58 -36t50.5 -47l13 50q6 23 22.5 34t40.5 11h156zM511 186q36 0 65 7t54.5 21t47.5 34.5
t44 47.5v440q-38 45 -82.5 64.5t-95.5 19.5q-50 0 -90 -19.5t-69 -59.5t-44.5 -101.5t-15.5 -145.5q0 -85 13 -143.5t37 -95t58.5 -53t77.5 -16.5z" />
    <glyph glyph-name="r" unicode="r" horiz-adv-x="728" 
d="M110 0v993h149q39 0 54.5 -14t20.5 -49l13 -101q45 85 105 134t139 49q65 0 107 -31l-19 -190q-2 -18 -12 -25.5t-27 -7.5q-15 0 -43 4.5t-52 4.5q-35 0 -62.5 -10t-49 -29.5t-38.5 -47.5t-31 -64v-616h-254z" />
    <glyph glyph-name="s" unicode="s" horiz-adv-x="817" 
d="M700 793q-10 -17 -21.5 -23.5t-28.5 -6.5q-18 0 -37.5 9.5t-43 21t-53.5 21t-69 9.5q-60 0 -93 -27.5t-33 -73.5q0 -31 19 -51.5t50.5 -36t71 -28.5t81.5 -28t81.5 -35.5t71 -50.5t50.5 -73t19 -103q0 -72 -25 -133t-73.5 -105t-120 -69t-165.5 -25q-48 0 -95 9t-90 25.5
t-80.5 38.5t-64.5 48l59 96q11 17 26 27t39 10q22 0 41.5 -12t42.5 -26.5t55 -26.5t80 -12q36 0 61.5 9t41 24.5t23 35.5t7.5 41q0 44 -33 68.5t-83 42.5t-107.5 37t-107.5 52t-83 87t-33 143q0 62 23 117.5t68.5 97.5t113 67t157.5 25q49 0 95 -9t86.5 -25.5t74 -39.5
t59.5 -50z" />
    <glyph glyph-name="t" unicode="t" horiz-adv-x="710" 
d="M424 -15q-129 0 -198 74.5t-69 204.5v542h-90q-20 0 -34 13.5t-14 39.5v101l151 29l53 262q9 41 56 41h132v-306h245v-180h-245v-525q0 -44 19 -68.5t54 -24.5q19 0 31.5 4.5t21.5 10.5t16.5 10.5t16.5 4.5q11 0 18 -5.5t15 -17.5l77 -123q-52 -43 -118.5 -65t-137.5 -22
z" />
    <glyph glyph-name="u" unicode="u" horiz-adv-x="1099" 
d="M361 993v-631q0 -86 39 -133t117 -47q57 0 108 25.5t96 69.5v716h254v-993h-156q-24 0 -40.5 11.5t-21.5 34.5l-18 72q-59 -59 -130.5 -96t-169.5 -37q-81 0 -143 28t-104 78t-63.5 119t-21.5 152v631h254z" />
    <glyph glyph-name="v" unicode="v" horiz-adv-x="969" 
d="M600 0h-231l-358 993h210q28 0 46.5 -13.5t25.5 -32.5l145 -507q31 -92 49 -185q10 46 22.5 91.5t29.5 93.5l150 507q7 20 25 33t43 13h201z" />
    <glyph glyph-name="w" unicode="w" horiz-adv-x="1526" 
d="M7 993h202q28 0 47.5 -13.5t24.5 -33.5l126 -506q11 -45 20.5 -88.5t16.5 -85.5q11 42 23.5 85.5t26.5 88.5l150 508q6 20 24 33t44 13h112q27 0 46 -13t25 -33l144 -508q28 -92 48 -175q8 43 17 86t22 90l132 506q5 20 23.5 33t44.5 13h193l-309 -993h-205q-35 0 -48 44
l-164 552q-20 61 -30 119q-12 -60 -30 -120l-167 -551q-14 -44 -55 -44h-195z" />
    <glyph glyph-name="x" unicode="x" horiz-adv-x="941" 
d="M304 512l-276 481h244q27 0 39.5 -7.5t22.5 -24.5l157 -304q5 12 11 24.5t14 25.5l108 250q22 36 56 36h233l-277 -468l289 -525h-244q-27 0 -44 14.5t-27 31.5l-158 315q-4 -11 -8.5 -21t-9.5 -18l-125 -276q-11 -17 -26.5 -31.5t-40.5 -14.5h-226z" />
    <glyph glyph-name="y" unicode="y" horiz-adv-x="970" 
d="M467 -269q-11 -26 -28.5 -39.5t-52.5 -13.5h-191l177 400l-369 915h223q31 0 46.5 -14t23.5 -32l166 -491q11 -27 19 -54l16 -54q8 28 17 55.5t20 54.5l155 489q7 20 26 33t42 13h203z" />
    <glyph glyph-name="z" unicode="z" horiz-adv-x="814" 
d="M761 889q0 -28 -9 -53t-22 -42l-385 -600h407v-194h-697v105q0 17 8 42t25 45l384 607h-393v194h682v-104z" />
    <glyph glyph-name="braceleft" unicode="{" horiz-adv-x="704" 
d="M199 392q0 58 -26.5 94.5t-86.5 36.5v147q60 0 86.5 36.5t26.5 94.5q0 45 -6.5 89.5t-14 89.5t-13.5 90.5t-6 92.5q0 75 21.5 136t66.5 104.5t114 67.5t163 24h51v-112q0 -14 -6 -23.5t-14 -15.5t-17.5 -9t-16.5 -3h-7q-66 0 -100 -41t-34 -113q0 -53 5.5 -101
t11.5 -93.5t11.5 -89.5t5.5 -89q0 -36 -10 -69t-29.5 -60.5t-47.5 -48t-64 -30.5q36 -11 64 -31t47.5 -47.5t29.5 -60.5t10 -69q0 -45 -5.5 -89t-11.5 -89.5t-11.5 -94t-5.5 -101.5q0 -72 34 -112.5t100 -40.5h7q7 0 16.5 -3t17.5 -9t14 -16t6 -24v-112h-51q-94 0 -163 24
t-114 68t-66.5 105.5t-21.5 136.5q0 46 6 91.5t13.5 90t14 89t6.5 89.5z" />
    <glyph glyph-name="bar" unicode="|" horiz-adv-x="973" 
d="M388 1495h197v-1826h-197v1826z" />
    <glyph glyph-name="braceright" unicode="}" horiz-adv-x="704" 
d="M505 392q0 -45 6 -89.5t13.5 -89t14 -90t6.5 -91.5q0 -75 -21.5 -136.5t-66.5 -105.5t-114 -68t-163 -24h-51v112q0 14 6 24t14 16t17.5 9t16.5 3h6q67 0 100.5 40.5t33.5 112.5q0 53 -5 101.5t-11.5 94t-11.5 89.5t-5 89q0 36 10 69t29.5 60.5t47 47.5t63.5 31
q-36 10 -63.5 30.5t-47 48t-29.5 60.5t-10 69q0 45 5 89t11.5 89.5t11.5 93.5t5 101q0 72 -33.5 113t-100.5 41h-6q-7 0 -16.5 3t-17.5 9t-14 15.5t-6 23.5v112h51q94 0 163 -24t114 -67.5t66.5 -104.5t21.5 -136q0 -47 -6.5 -92.5t-14 -90.5t-13.5 -89.5t-6 -89.5
q0 -58 26.5 -94.5t86.5 -36.5v-147q-60 0 -86.5 -36.5t-26.5 -94.5z" />
    <glyph glyph-name="asciitilde" unicode="~" horiz-adv-x="1020" 
d="M665 633q52 0 80.5 34t29.5 94h205q0 -76 -20 -138t-58.5 -105.5t-94 -67t-126.5 -23.5q-51 0 -97.5 12.5t-87.5 28t-76.5 28t-64.5 12.5q-53 0 -81.5 -33.5t-28.5 -93.5h-205q0 76 20 138t58.5 105.5t94 67t126.5 23.5q51 0 97.5 -13t87.5 -28t76.5 -28t64.5 -13z" />
    <glyph glyph-name="uni0400" unicode="&#x400;" horiz-adv-x="999" 
d="M117 0zM928 1328v-209h-546v-351h425v-201h-425v-358h547l-1 -209h-810v1328h810zM383 1720q20 0 34.5 -1t26 -5.5t21.5 -12.5t21 -22l208 -262h-184q-30 0 -46.5 3.5t-37.5 21.5l-309 278h266z" />
    <glyph glyph-name="uni0401" unicode="&#x401;" horiz-adv-x="999" 
d="M118 0zM928 1328v-209h-546v-351h425v-201h-425v-358h547l-1 -209h-810v1328h810zM456 1532q0 -27 -11 -51t-30 -42t-44 -28.5t-53 -10.5q-26 0 -50 10.5t-42 28.5t-29 42t-11 51t11 51.5t29 43t42 29.5t50 11q28 0 53 -11t44 -29.5t30 -43t11 -51.5zM886 1532
q0 -27 -10.5 -51t-29 -42t-43 -28.5t-52.5 -10.5t-52.5 10.5t-43 28.5t-29 42t-10.5 51t10.5 51.5t29 43t43 29.5t52.5 11t52.5 -11t43 -29.5t29 -43t10.5 -51.5z" />
    <glyph glyph-name="uni0402" unicode="&#x402;" horiz-adv-x="1302" 
d="M914 1328v-207h-328v-337h204q123 0 209 -29t140.5 -78.5t79 -116.5t24.5 -142q0 -95 -30.5 -172t-88 -132t-142 -84.5t-192.5 -29.5h-66v204h66q58 0 96 15t60 40.5t30.5 59.5t8.5 72q0 43 -8.5 78t-30.5 59.5t-60 38t-96 13.5h-204v-580h-262v1121h-307v207h897z" />
    <glyph glyph-name="uni0403" unicode="&#x403;" horiz-adv-x="885" 
d="M101 0zM839 1127h-474v-1127h-264v1328h738v-201zM882 1720l-313 -277q-20 -17 -38 -21.5t-47 -4.5h-184l197 262q10 14 20 22t22 12.5t26.5 5.5t34.5 1h282z" />
    <glyph glyph-name="uni0404" unicode="&#x404;" horiz-adv-x="1103" 
d="M939 322q22 0 37 -16l104 -113q-73 -101 -182.5 -154t-261.5 -53q-137 0 -247 50.5t-186.5 141t-117.5 215t-41 272.5q0 149 44.5 273.5t124.5 214.5t191.5 140t245.5 50q136 0 240.5 -48t174.5 -125l-88 -123q-9 -11 -20.5 -20t-31.5 -9q-21 0 -41.5 16t-50 35t-73 35
t-112.5 16q-65 0 -120.5 -23.5t-98 -68.5t-71 -110t-39.5 -148h534v-193h-535q10 -89 40 -157.5t74 -115.5t100 -71.5t119 -24.5q42 0 76.5 4.5t63.5 16t55 29.5t52 45q9 8 19.5 13.5t21.5 5.5z" />
    <glyph glyph-name="uni0405" unicode="&#x405;" horiz-adv-x="968" 
d="M38 0zM821 1078q-10 -20 -23.5 -28.5t-33.5 -8.5q-19 0 -41 14t-51.5 30.5t-68.5 30.5t-90 14q-90 0 -135.5 -44t-45.5 -115q0 -45 24.5 -74.5t65 -51t92 -38.5t105.5 -36.5t105.5 -46t92 -66.5t65 -98t24.5 -141q0 -90 -29.5 -169t-86.5 -137.5t-139.5 -92.5t-188.5 -34
q-60 0 -119.5 12.5t-114.5 35.5t-104 55t-86 72l78 125q9 15 24.5 24t33.5 9q24 0 49.5 -18.5t59.5 -41t79 -41t107 -18.5q90 0 140 46t50 136q0 51 -24.5 83t-64.5 53.5t-91.5 37t-105 33.5t-105 43.5t-91.5 67.5t-64.5 104t-24.5 154q0 73 28 142.5t82 123.5t132.5 86.5
t179.5 32.5q114 0 211.5 -37t166.5 -104z" />
    <glyph glyph-name="uni0406" unicode="&#x406;" horiz-adv-x="546" 
d="M141 0zM405 0h-264v1328h264v-1328z" />
    <glyph glyph-name="uni0407" unicode="&#x407;" horiz-adv-x="546" 
d="M0 0zM405 0h-264v1328h264v-1328zM196 1532q0 -27 -11 -51t-30 -42t-44 -28.5t-53 -10.5q-26 0 -50 10.5t-42 28.5t-29 42t-11 51t11 51.5t29 43t42 29.5t50 11q28 0 53 -11t44 -29.5t30 -43t11 -51.5zM626 1532q0 -27 -10.5 -51t-29 -42t-43 -28.5t-52.5 -10.5
t-52.5 10.5t-43 28.5t-29 42t-10.5 51t10.5 51.5t29 43t43 29.5t52.5 11t52.5 -11t43 -29.5t29 -43t10.5 -51.5z" />
    <glyph glyph-name="uni0408" unicode="&#x408;" horiz-adv-x="678" 
d="M14 0zM582 475q0 -111 -23.5 -201.5t-72 -154.5t-122 -98.5t-172.5 -34.5q-45 0 -88 5.5t-90 18.5l14 156q2 20 16 33.5t40 13.5q14 0 33 -6t48 -6q40 0 69 14.5t48 46.5t28.5 82.5t9.5 123.5v860h262v-853z" />
    <glyph glyph-name="uni0409" unicode="&#x409;" horiz-adv-x="1834" 
d="M1177 784h199q123 0 209 -29t140 -78.5t79 -116.5t25 -142q0 -95 -30.5 -172t-88.5 -132t-142 -84.5t-191 -29.5h-464v1127h-300q-12 -248 -34.5 -429t-54 -307.5t-71 -205.5t-87 -123t-102 -59.5t-114.5 -15.5q-69 0 -99 12.5t-30 35.5v164h68q27 0 56 10t58 47
t55.5 109.5t48 198t37 312.5t21.5 452h812v-544zM1177 580v-376h200q57 0 94.5 15t59.5 40.5t31 59.5t9 72q0 43 -9 78t-31 59.5t-59.5 38t-95.5 13.5h-199z" />
    <glyph glyph-name="uni040A" unicode="&#x40a;" horiz-adv-x="1836" 
d="M1179 204h177q57 0 93.5 15t57.5 40.5t29.5 59.5t8.5 72q0 43 -8.5 78t-30 59.5t-58 38t-92.5 13.5h-176v204h176q121 0 206 -29t139 -78.5t78.5 -116.5t24.5 -142q0 -95 -30 -172t-87.5 -132t-141 -84.5t-189.5 -29.5h-441v575h-538v-575h-264v1328h264v-567h538v567
h264v-1124z" />
    <glyph glyph-name="uni040B" unicode="&#x40b;" horiz-adv-x="1295" 
d="M1254 -1h-264v411q0 72 -12 122t-52.5 74t-117.5 21.5t-207 -35.5v-592h-262v1121h-321v207h928v-207h-345v-342q148 37 268.5 43t206 -33t132 -130.5t46.5 -249.5v-410z" />
    <glyph glyph-name="uni040C" unicode="&#x40c;" horiz-adv-x="1153" 
d="M102 0zM366 777h102q31 0 54.5 12.5t42.5 47.5l223 422q19 30 44.5 49.5t61.5 19.5h225l-294 -530q-21 -35 -50 -57.5t-64 -36.5q55 -16 92.5 -50.5t72.5 -95.5l273 -558h-240q-35 0 -59.5 19.5t-46.5 55.5l-206 439q-20 38 -44.5 51.5t-62.5 13.5h-124v-579h-264v1328
h264v-551zM989 1720l-313 -277q-20 -17 -38 -21.5t-47 -4.5h-184l197 262q10 14 20 22t22 12.5t26.5 5.5t34.5 1h282z" />
    <glyph glyph-name="uni040D" unicode="&#x40d;" horiz-adv-x="1335" 
d="M120 0zM902 1247q9 15 21 29.5t26.5 26t31.5 18.5t36 7h198v-1328h-264v807q0 48 2.5 100.5t10.5 111.5q-20 -52 -42 -97t-42 -78l-447 -762q-9 -15 -21 -29.5t-27 -26.5t-32 -19t-36 -7h-197v1328h264v-806q0 -49 -3 -102.5t-11 -113.5q19 53 41 99t42 81zM532 1720
q20 0 34.5 -1t26 -5.5t21.5 -12.5t21 -22l208 -262h-184q-30 0 -46.5 3.5t-37.5 21.5l-309 278h266z" />
    <glyph glyph-name="uni040E" unicode="&#x40e;" horiz-adv-x="1121" 
d="M0 0zM293 199q16 0 34.5 3.5t37 14t37 30.5t33.5 52l42 98l-489 931h247q34 0 53 -16t33 -42l201 -462q22 -41 38.5 -81t29.5 -82q23 80 63 164l177 461q10 21 32 39.5t55 18.5h216l-491 -1141q-27 -61 -58.5 -99.5t-67.5 -61t-76.5 -31t-86.5 -8.5q-69 0 -98.5 12.5
t-29.5 35.5v164h68v0zM563 1528q36 0 59 6.5t37 23t19.5 44.5t5.5 72h150q26 0 39 -22.5t13 -48.5q0 -50 -23 -87.5t-65.5 -62.5t-102 -38t-132.5 -13t-132.5 13t-102 38t-65.5 62.5t-23 87.5q0 26 13 48.5t39 22.5h150q0 -44 5.5 -72t19.5 -44.5t37 -23t59 -6.5z" />
    <glyph glyph-name="uni040F" unicode="&#x40f;" horiz-adv-x="1287" 
d="M1168 0h-404v-240q0 -33 -23.5 -53.5t-60.5 -20.5h-157v314h-404v1328h264v-1127h521v1127h264v-1328z" />
    <glyph glyph-name="uni0410" unicode="&#x410;" horiz-adv-x="1241" 
d="M4 0zM1240 0h-202q-35 0 -56 16.5t-31 41.5l-84 261h-489l-83 -260q-8 -22 -30.5 -40.5t-55.5 -18.5h-205l484 1328h268zM437 503h370l-135 420q-12 31 -25 72.5t-26 90.5q-12 -49 -25 -91t-24 -73z" />
    <glyph glyph-name="uni0411" unicode="&#x411;" horiz-adv-x="1138" 
d="M993 1126h-613v-342h188q127 0 216.5 -29t146 -78.5t82.5 -116.5t26 -142q0 -95 -31.5 -172t-92 -132t-148 -84.5t-199.5 -29.5h-451v1328h876v-202zM380 580v-376h188q62 0 103 15t65 40.5t34 59.5t10 72q0 43 -10 78t-34 59.5t-65 38t-103 13.5h-188z" />
    <glyph glyph-name="uni0412" unicode="&#x412;" horiz-adv-x="1148" 
d="M119 0zM119 0v1328h451q128 0 219 -25t148.5 -71t84 -111.5t26.5 -146.5q0 -46 -13 -89t-40 -80t-69.5 -67.5t-101.5 -51.5q257 -62 257 -293q0 -85 -31 -157t-90.5 -124.5t-147 -82t-200.5 -29.5h-493zM382 577v-373h225q63 0 105 16t66.5 43t34.5 62.5t10 73.5
q0 41 -11.5 74t-37 56t-67 35.5t-101.5 12.5h-224zM382 758h173q111 0 171 42.5t60 140.5q0 102 -52 143.5t-164 41.5h-188v-368z" />
    <glyph glyph-name="uni0413" unicode="&#x413;" horiz-adv-x="885" 
d="M839 1127h-474v-1127h-264v1328h738v-201z" />
    <glyph glyph-name="uni0414" unicode="&#x414;" horiz-adv-x="1378" 
d="M1154 1328v-1127h182v-441q0 -33 -23 -53.5t-59 -20.5h-159v314h-834v-240q0 -33 -23 -53.5t-60 -20.5h-158v515h131q22 14 44 44t43 84.5t40 138t34.5 204t27 282.5t16.5 374h798zM603 1127q-10 -189 -27 -336.5t-39.5 -260t-50.5 -193t-59 -136.5h463v926h-287z" />
    <glyph glyph-name="uni0415" unicode="&#x415;" horiz-adv-x="999" 
d="M118 0zM928 1328v-209h-546v-351h425v-201h-425v-358h547l-1 -209h-810v1328h810z" />
    <glyph glyph-name="uni0416" unicode="&#x416;" horiz-adv-x="1705" 
d="M234 1328q39 0 72.5 -18.5t53.5 -53.5l186 -414q20 -40 42.5 -52.5t51.5 -12.5h90v551h244v-551h90q30 0 53.5 12.5t41.5 51.5l187 414q20 35 53 54t72 19h207l-260 -508q-24 -43 -50.5 -71.5t-63.5 -44.5q45 -18 81 -52t68 -91l260 -561h-174q-56 0 -96 24.5t-65 66.5
l-184 415q-20 41 -45.5 57t-61.5 16h-113v-579h-244v579h-112q-36 0 -61.5 -16.5t-46.5 -57.5l-182 -414q-25 -42 -66 -66.5t-97 -24.5h-176l262 561q32 57 68 91t82 52q-38 16 -64 44.5t-50 71.5l-261 508h208z" />
    <glyph glyph-name="uni0417" unicode="&#x417;" horiz-adv-x="987" 
d="M905 994q0 -94 -37.5 -170.5t-118.5 -124.5q41 -22 75.5 -51.5t59 -64.5t38 -76.5t13.5 -87.5q0 -90 -31 -169t-90.5 -137.5t-145.5 -92t-197 -33.5q-63 0 -125.5 12.5t-120.5 35.5t-108 55.5t-89 72.5l79 125q9 15 24.5 24t32.5 9q24 0 50.5 -18.5t62.5 -41t84.5 -41
t116.5 -18.5q100 0 155 49t55 156q0 43 -16 77.5t-44.5 58.5t-68.5 36.5t-89 12.5l-175 -1l-1 211h154q106 0 158.5 43.5t52.5 125.5q0 72 -49.5 115.5t-146.5 43.5q-56 0 -97.5 -14t-73 -31t-54.5 -31t-42 -14q-38 0 -58 38l-66 124q71 66 172 103t222 37
q101 0 182.5 -25.5t138.5 -71.5t87.5 -110t30.5 -141z" />
    <glyph glyph-name="uni0418" unicode="&#x418;" horiz-adv-x="1335" 
d="M902 1247q9 15 21 29.5t26.5 26t31.5 18.5t36 7h198v-1328h-264v807q0 48 2.5 100.5t10.5 111.5q-20 -52 -42 -97t-42 -78l-447 -762q-9 -15 -21 -29.5t-27 -26.5t-32 -19t-36 -7h-197v1328h264v-806q0 -49 -3 -102.5t-11 -113.5q19 53 41 99t42 81z" />
    <glyph glyph-name="uni0419" unicode="&#x419;" horiz-adv-x="1335" 
d="M120 0zM902 1247q9 15 21 29.5t26.5 26t31.5 18.5t36 7h198v-1328h-264v807q0 48 2.5 100.5t10.5 111.5q-20 -52 -42 -97t-42 -78l-447 -762q-9 -15 -21 -29.5t-27 -26.5t-32 -19t-36 -7h-197v1328h264v-806q0 -49 -3 -102.5t-11 -113.5q19 53 41 99t42 81zM684 1528
q36 0 59 6.5t37 23t19.5 44.5t5.5 72h150q26 0 39 -22.5t13 -48.5q0 -50 -23 -87.5t-65.5 -62.5t-102 -38t-132.5 -13t-132.5 13t-102 38t-65.5 62.5t-23 87.5q0 26 13 48.5t39 22.5h150q0 -44 5.5 -72t19.5 -44.5t37 -23t59 -6.5z" />
    <glyph glyph-name="uni041A" unicode="&#x41a;" horiz-adv-x="1153" 
d="M366 777h102q31 0 54.5 12.5t42.5 47.5l223 422q19 30 44.5 49.5t61.5 19.5h225l-294 -530q-21 -35 -50 -57.5t-64 -36.5q55 -16 92.5 -50.5t72.5 -95.5l273 -558h-240q-35 0 -59.5 19.5t-46.5 55.5l-206 439q-20 38 -44.5 51.5t-62.5 13.5h-124v-579h-264v1328h264v-551
z" />
    <glyph glyph-name="uni041B" unicode="&#x41b;" horiz-adv-x="1288" 
d="M1177 1328v-1328h-264v1127h-300q-12 -248 -34.5 -429t-54 -307.5t-71 -205.5t-87 -123t-102 -59.5t-114.5 -15.5q-69 0 -99 12.5t-30 35.5v164h68q27 0 56 10t58 47t55.5 109.5t48 198t37 312.5t21.5 452h812z" />
    <glyph glyph-name="uni041C" unicode="&#x41c;" horiz-adv-x="1790" 
d="M139 0zM838 567q34 -63 59 -131q14 35 28 68.5t31 64.5l409 718q8 15 16.5 23.5t18.5 12t23 4.5t30 1h198v-1328h-231v831q0 27 1.5 58.5t4.5 64.5l-419 -742q-31 -58 -91 -58h-37q-61 0 -92 58l-424 746q4 -34 6 -66.5t2 -60.5v-831h-232v1328h199q17 0 29.5 -1t23 -5
t19 -12t16.5 -23l412 -720v0z" />
    <glyph glyph-name="uni041D" unicode="&#x41d;" horiz-adv-x="1292" 
d="M113 0zM1179 0h-264v575h-538v-575h-264v1328h264v-567h538v567h264v-1328z" />
    <glyph glyph-name="uni041E" unicode="&#x41e;" horiz-adv-x="1385" 
d="M48 0zM1338 665q0 -146 -46 -270.5t-130.5 -215.5t-203.5 -142t-264 -51t-264 51t-204 142t-131.5 215.5t-46.5 270.5q0 145 46.5 269.5t131.5 215t204 142t264 51.5t264 -51.5t203.5 -142.5t130.5 -215t46 -269zM1070 665q0 106 -26 190t-74.5 143t-118 90.5
t-157.5 31.5t-158 -31.5t-118.5 -90.5t-74.5 -143t-26 -190q0 -107 26 -191.5t74.5 -143t118.5 -89.5t158 -31t157.5 31t118 89.5t74.5 143t26 191.5z" />
    <glyph glyph-name="uni041F" unicode="&#x41f;" horiz-adv-x="1290" 
d="M1171 0h-264v1127h-524v-1127h-264v1328h1052v-1328z" />
    <glyph glyph-name="uni0420" unicode="&#x420;" horiz-adv-x="1090" 
d="M115 0zM378 461v-461h-263v1328h427q129 0 222 -32t154 -88.5t90 -134.5t29 -171q0 -98 -30.5 -179t-92 -139t-154.5 -90.5t-218 -32.5h-164zM378 665h164q120 0 176 63.5t56 173.5q0 103 -57 163.5t-175 60.5h-164v-461z" />
    <glyph glyph-name="uni0421" unicode="&#x421;" horiz-adv-x="1084" 
d="M42 0zM922 322q21 0 36 -16l105 -113q-72 -101 -180.5 -154t-257.5 -53q-135 0 -243 50.5t-183.5 141t-116 215t-40.5 272.5q0 149 43.5 273.5t122.5 214.5t189 140t242 50q134 0 237 -47.5t172 -125.5l-88 -123q-9 -11 -20.5 -20t-32.5 -9t-40.5 16t-48 35t-71.5 35
t-110 16q-73 0 -133 -30.5t-103 -89t-66.5 -143t-23.5 -192.5q0 -109 26 -194t70.5 -143.5t104.5 -89t129 -30.5q41 0 74 4.5t61.5 16t53.5 29.5t50 45q10 8 20.5 13.5t21.5 5.5z" />
    <glyph glyph-name="uni0422" unicode="&#x422;" horiz-adv-x="1014" 
d="M18 0zM996 1328v-214h-358v-1114h-262v1114h-358v214h978z" />
    <glyph glyph-name="uni0423" unicode="&#x423;" horiz-adv-x="1121" 
d="M293 199q16 0 34.5 3.5t37 14t37 30.5t33.5 52l42 98l-489 931h247q34 0 53 -16t33 -42l201 -462q22 -41 38.5 -81t29.5 -82q23 80 63 164l177 461q10 21 32 39.5t55 18.5h216l-491 -1141q-27 -61 -58.5 -99.5t-67.5 -61t-76.5 -31t-86.5 -8.5q-69 0 -98.5 12.5
t-29.5 35.5v164h68v0z" />
    <glyph glyph-name="uni0424" unicode="&#x424;" horiz-adv-x="1482" 
d="M867 1227q122 -4 225 -47.5t177.5 -115.5t116.5 -167.5t42 -203.5q0 -109 -42 -204.5t-116.5 -167.5t-177.5 -115.5t-225 -47.5v-158h-249v158q-122 4 -225 47.5t-178 115.5t-117.5 167.5t-42.5 204.5t42.5 204.5t117.5 167.5t178 115t225 47v157h249v-157zM318 693
q0 -69 22 -129t61.5 -104.5t94.5 -71t122 -28.5v665q-67 -2 -122 -28.5t-94.5 -71t-61.5 -104.5t-22 -128zM1167 693q0 68 -22 127.5t-61.5 104.5t-95 71.5t-121.5 28.5v-665q66 2 121.5 28.5t95 71t61.5 104.5t22 129z" />
    <glyph glyph-name="uni0425" unicode="&#x425;" horiz-adv-x="1128" 
d="M7 0zM386 683l-365 645h264q26 0 37.5 -6.5t21.5 -22.5l240 -461l16 29l210 427q11 17 23 25.5t29 8.5h251l-369 -633l377 -695h-261q-27 0 -42.5 13.5t-26.5 30.5l-241 479q-2 -5 -5 -9.5t-5 -9.5l-224 -459q-11 -17 -25 -31t-37 -14h-247z" />
    <glyph glyph-name="uni0426" unicode="&#x426;" horiz-adv-x="1347" 
d="M112 0v1328h264v-1127h494v1127h264v-1127h170v-441q0 -33 -22.5 -53.5t-59.5 -20.5h-157v314h-953z" />
    <glyph glyph-name="uni0427" unicode="&#x427;" horiz-adv-x="1166" 
d="M1057 0h-263v522q-100 -26 -190.5 -38t-169 -6.5t-142 30.5t-108.5 74.5t-69.5 125.5t-24.5 182v438h264v-439q0 -73 19 -123t68.5 -74t135 -21t217.5 36v621h263v-1328z" />
    <glyph glyph-name="uni0428" unicode="&#x428;" horiz-adv-x="1837" 
d="M1724 0h-1611v1328h264v-1127h409v1127h264v-1127h410v1127h264v-1328z" />
    <glyph glyph-name="uni0429" unicode="&#x429;" horiz-adv-x="1898" 
d="M109 0v1328h264v-1127h394v1127h264v-1127h394v1127h264v-1127h167v-441q0 -33 -23 -53.5t-58 -20.5h-159v314h-1507z" />
    <glyph glyph-name="uni042A" unicode="&#x42a;" horiz-adv-x="1309" 
d="M-5 1328h602v-544h199q130 0 222 -29t150 -78.5t84.5 -116.5t26.5 -142q0 -95 -32.5 -172t-94.5 -132t-151.5 -84.5t-204.5 -29.5h-462v1119h-339v209zM597 580v-376h199q65 0 108.5 15t69 40.5t36 59.5t10.5 72q0 43 -10.5 78t-36 59.5t-69 38t-108.5 13.5h-199z" />
    <glyph glyph-name="uni042B" unicode="&#x42b;" horiz-adv-x="1635" 
d="M107 0zM370 1328v-544h199q130 0 222 -29t150 -78.5t84.5 -116.5t26.5 -142q0 -95 -32.5 -172t-94.5 -132t-151.5 -84.5t-204.5 -29.5h-462v1328h263zM370 580v-376h199q65 0 108.5 15t69 40.5t36 59.5t10.5 72q0 43 -10.5 78t-36 59.5t-69 38t-108.5 13.5h-199zM1479 0
h-264v1328h264v-1328z" />
    <glyph glyph-name="uni042C" unicode="&#x42c;" horiz-adv-x="1133" 
d="M386 1328v-544h199q130 0 222 -29t150 -78.5t84.5 -116.5t26.5 -142q0 -95 -32.5 -172t-94.5 -132t-151.5 -84.5t-204.5 -29.5h-462v1328h263zM386 580v-376h199q65 0 108.5 15t69 40.5t36 59.5t10.5 72q0 43 -10.5 78t-36 59.5t-69 38t-108.5 13.5h-199z" />
    <glyph glyph-name="uni042D" unicode="&#x42d;" horiz-adv-x="1103" 
d="M177 322q12 0 22.5 -5.5t20.5 -13.5q25 -27 50 -45t53.5 -29.5t62 -16t74.5 -4.5q61 0 116 24.5t99 71.5t73.5 115.5t39.5 157.5h-528v193h526q-11 83 -39 148t-69.5 110t-96 68.5t-117.5 23.5q-68 0 -111 -16t-71.5 -35t-48.5 -35t-41 -16q-20 0 -32.5 9t-20.5 20
l-88 122q70 78 173 126t237 48q133 0 244 -50t190 -140t123 -214.5t44 -273.5q0 -148 -40.5 -272.5t-116.5 -215t-184 -141t-244 -50.5q-150 0 -259.5 53t-181.5 155l104 112q15 16 37 16z" />
    <glyph glyph-name="uni042E" unicode="&#x42e;" horiz-adv-x="1871" 
d="M386 762h227q13 127 61.5 233.5t127 183.5t184.5 120.5t235 43.5q142 0 255.5 -51.5t193.5 -142t123 -215t43 -269.5q0 -146 -43 -270.5t-123 -215.5t-193.5 -142t-255.5 -51q-128 0 -233.5 42.5t-184 118.5t-127 182t-62.5 232h-228v-561h-264v1328h264v-566zM1221 202
q82 0 146.5 32.5t108.5 92.5t67.5 145.5t23.5 192.5q0 106 -23.5 191.5t-67.5 145.5t-108.5 92.5t-146.5 32.5t-146 -32.5t-108.5 -92.5t-67.5 -145.5t-23 -191.5q0 -107 23 -192.5t67.5 -145.5t108.5 -92.5t146 -32.5z" />
    <glyph glyph-name="uni042F" unicode="&#x42f;" horiz-adv-x="1176" 
d="M799 0v544h-117q-38 -2 -70 -20.5t-62 -71.5l-196 -361q-25 -42 -65.5 -66.5t-97.5 -24.5h-198l270 464q28 46 62 77.5t79 51.5q-136 40 -200.5 131t-64.5 212q0 85 31.5 157t91 124.5t146.5 81.5t198 29h456v-1328h-263zM398 939q0 -43 9.5 -78.5t33 -60.5t63.5 -38.5
t102 -13.5h193v377h-193q-62 0 -102 -14.5t-63.5 -40t-33 -59.5t-9.5 -72z" />
    <glyph glyph-name="uni0430" unicode="&#x430;" horiz-adv-x="1011" 
d="M73 0zM789 0q-36 0 -55 10.5t-30 42.5l-22 66q-38 -33 -73 -58t-72.5 -42t-80 -25.5t-94.5 -8.5q-64 0 -117 17.5t-91.5 51.5t-59.5 84.5t-21 116.5q0 55 28 110t95.5 99.5t180 74t280.5 33.5v53q0 96 -40 141t-115 45q-56 0 -92.5 -13t-64.5 -28.5t-52 -28.5t-54 -13
q-26 0 -44.5 13.5t-29.5 32.5l-46 80q86 80 190 119t225 39q87 0 156 -28.5t117 -80t73 -122.5t25 -156v-625h-116zM441 158q68 0 117.5 24.5t98.5 75.5v160q-99 -4 -164.5 -16.5t-104.5 -32t-55.5 -45.5t-16.5 -56q0 -60 33.5 -85t91.5 -25z" />
    <glyph glyph-name="uni0431" unicode="&#x431;" horiz-adv-x="1090" 
d="M622 1161q-83 -6 -142 -34t-97.5 -76t-57.5 -113.5t-23 -145.5q47 72 128.5 118t192.5 46q94 0 169.5 -35t128.5 -98.5t81.5 -152.5t28.5 -198q0 -112 -34.5 -202t-96.5 -153.5t-150 -97.5t-194 -34q-105 0 -193 35.5t-151 114t-98.5 204t-35.5 305.5q0 151 26.5 281.5
t87.5 229t161 159t248 71.5l335 26l15 -131q5 -42 -11.5 -71t-58.5 -31zM556 169q109 0 161 76.5t52 225.5t-51.5 225t-159.5 76q-217 0 -217 -292q0 -152 52.5 -231.5t162.5 -79.5z" />
    <glyph glyph-name="uni0432" unicode="&#x432;" horiz-adv-x="1013" 
d="M128 993h402q96 0 166 -18.5t115.5 -50.5t67.5 -76t22 -96q0 -32 -8.5 -67t-29.5 -66.5t-57.5 -57t-93.5 -40.5q50 -10 91.5 -29t71 -47t46 -66t16.5 -86q0 -77 -32.5 -132.5t-86.5 -91t-125 -52.5t-147 -17h-418v993zM369 424v-251h176q73 0 115.5 34.5t42.5 94.5
q0 25 -7 47.5t-25 39t-48.5 26t-77.5 9.5h-176zM369 581h154q34 0 63 9.5t49.5 27t32 42t11.5 54.5q0 21 -8 42t-26 37t-48 26t-74 10h-154v-248z" />
    <glyph glyph-name="uni0433" unicode="&#x433;" horiz-adv-x="726" 
d="M709 993v-187h-354v-806h-254v993h608z" />
    <glyph glyph-name="uni0434" unicode="&#x434;" horiz-adv-x="1192" 
d="M994 993v-806h176v-442q0 -35 -20 -55t-52 -20h-158v330h-687v-259q0 -27 -17 -49t-53 -22h-161v509h35q31 1 61 11t57 40t50.5 84.5t43.5 145t35 221t24 312.5h666zM535 800q-9 -120 -22.5 -216.5t-31 -172.5t-39 -133.5t-45.5 -98.5h351v621h-213z" />
    <glyph glyph-name="uni0435" unicode="&#x435;" horiz-adv-x="1031" 
d="M63 0zM539 1009q94 0 173 -30.5t136 -88t89 -141.5t32 -192q0 -29 -3 -47.5t-9.5 -29.5t-18 -15.5t-28.5 -4.5h-594q6 -72 26 -125t53 -87t78 -50.5t100 -16.5t95.5 13.5t71 29t54.5 29t47 13.5q28 0 46 -23l73 -94q-41 -48 -91 -79.5t-103.5 -50t-108.5 -26.5t-106 -8
q-103 0 -192 34t-155 101.5t-103.5 167t-37.5 230.5q0 101 33 190.5t94.5 156t149.5 105.5t199 39zM544 828q-97 0 -152 -56.5t-71 -159.5h420q0 43 -11.5 82t-36 69t-61.5 47.5t-88 17.5z" />
    <glyph glyph-name="uni0436" unicode="&#x436;" horiz-adv-x="1509" 
d="M483 648q16 -31 37 -45.5t59 -14.5h52v405h246v-405h49q38 0 61 14.5t38 45.5l140 278q17 31 45.5 49t63.5 18h200l-206 -366q-23 -39 -47 -63t-58 -38q47 -15 76.5 -43.5t52.5 -72.5l207 -410h-177q-66 0 -101 20.5t-57 64.5l-117 269q-15 35 -42.5 52t-62.5 17h-65
v-423h-246v423h-65q-35 0 -62 -17t-43 -53l-116 -267q-11 -22 -25 -38.5t-32.5 -27t-43.5 -15.5t-59 -5h-174l206 410q23 44 52.5 72.5t76.5 43.5q-34 14 -58 38t-47 63l-206 366h200q35 0 63.5 -17.5t45.5 -48.5z" />
    <glyph glyph-name="uni0437" unicode="&#x437;" horiz-adv-x="874" 
d="M55 885q57 55 140 89.5t201 34.5q92 0 164 -22t121.5 -59.5t75.5 -86t26 -100.5q0 -28 -8.5 -58.5t-27 -59t-49 -53.5t-74.5 -42q79 -31 127.5 -90t48.5 -148q0 -73 -33.5 -129.5t-89 -95.5t-126.5 -59.5t-146 -20.5q-42 0 -90.5 7.5t-98 26.5t-98 50.5t-89.5 79.5l73 94
q18 23 47 23q23 0 43.5 -14t46 -30.5t60.5 -30.5t89 -14q85 0 127.5 38.5t42.5 96.5q0 56 -45 88t-146 32h-112v165h112q90 0 137.5 30.5t47.5 81.5q0 48 -41.5 77.5t-122.5 29.5q-50 0 -84.5 -10t-59 -22t-42 -22t-33.5 -10q-18 0 -30.5 6.5t-26.5 28.5z" />
    <glyph glyph-name="uni0438" unicode="&#x438;" horiz-adv-x="1140" 
d="M123 -1v993h254v-558q0 -23 -2.5 -50.5t-6.5 -54.5q21 46 44 80q1 2 17.5 25.5t42 60.5t58 84t65.5 95q78 114 177 257q14 23 37.5 42.5t52.5 19.5h155v-993h-254v559q0 22 2.5 49t6.5 55q-21 -47 -44 -79q-2 -2 -18 -26t-41.5 -61t-58 -84t-65.5 -95q-78 -114 -177 -257
q-14 -21 -37.5 -41.5t-52.5 -20.5h-155z" />
    <glyph glyph-name="uni0439" unicode="&#x439;" horiz-adv-x="1140" 
d="M123 0zM123 -1v993h254v-558q0 -23 -2.5 -50.5t-6.5 -54.5q21 46 44 80q1 2 17.5 25.5t42 60.5t58 84t65.5 95q78 114 177 257q14 23 37.5 42.5t52.5 19.5h155v-993h-254v559q0 22 2.5 49t6.5 55q-21 -47 -44 -79q-2 -2 -18 -26t-41.5 -61t-58 -84t-65.5 -95
q-78 -114 -177 -257q-14 -21 -37.5 -41.5t-52.5 -20.5h-155zM585 1247q36 0 59 7.5t37 25t19.5 46.5t5.5 72h150q26 0 39 -22t13 -48q0 -50 -23 -90t-65.5 -67.5t-102 -42.5t-132.5 -15t-132.5 15t-102 42.5t-65.5 67.5t-23 90q0 26 13 48t39 22h150q0 -43 5.5 -72
t19.5 -46.5t37 -25t59 -7.5z" />
    <glyph glyph-name="uni043A" unicode="&#x43a;" horiz-adv-x="1013" 
d="M673 926q18 31 50 49t67 18h200l-208 -366q-23 -39 -47.5 -63t-58.5 -38q47 -15 76.5 -43.5t53.5 -72.5l208 -410h-176q-67 0 -104 22.5t-59 65.5l-122 266q-15 35 -43 52t-63 17h-78v-423h-254v993h254v-405h66q38 0 58.5 14.5t36.5 45.5z" />
    <glyph glyph-name="uni043B" unicode="&#x43b;" horiz-adv-x="1077" 
d="M969 993v-993h-254v800h-181q-11 -181 -33.5 -312t-53 -221.5t-69 -145.5t-81 -85t-89 -40t-93.5 -10q-57 0 -81.5 9.5t-24.5 27.5v156h55q28 0 55.5 9.5t53.5 39t49.5 84t43 145t34 222t23.5 314.5h646z" />
    <glyph glyph-name="uni043C" unicode="&#x43c;" horiz-adv-x="1461" 
d="M674 543q17 -30 31 -64t27 -69q12 35 26 69t31 64l234 396q19 34 44.5 44.5t51.5 10.5h210v-994h-229v530q0 37 4.5 84t12.5 87l-299 -529q-11 -20 -30 -32t-42 -12h-27q-24 0 -42.5 12t-29.5 32l-304 533q8 -40 13 -88.5t5 -86.5v-530h-229v994h211q26 0 51.5 -11.5
t43.5 -43.5l236 -396v0z" />
    <glyph glyph-name="uni043D" unicode="&#x43d;" horiz-adv-x="1117" 
d="M993 993v-993h-254v434h-361v-434h-254v993h254v-372h361v372h254z" />
    <glyph glyph-name="uni043E" unicode="&#x43e;" horiz-adv-x="1101" 
d="M62 0zM552 1009q109 0 199 -35.5t154 -102t99 -161t35 -211.5q0 -119 -35 -214t-99 -161.5t-154 -102.5t-199 -36q-110 0 -200.5 36t-155 102.5t-99.5 161.5t-35 214q0 117 35 211.5t99.5 161t155 102t200.5 35.5zM552 179q115 0 170 80.5t55 237.5t-55 237.5t-170 80.5
q-117 0 -172.5 -80.5t-55.5 -237.5t55.5 -237.5t172.5 -80.5z" />
    <glyph glyph-name="uni043F" unicode="&#x43f;" horiz-adv-x="1094" 
d="M974 993v-993h-254v806h-346v-806h-254v993h854z" />
    <glyph glyph-name="uni0440" unicode="&#x440;" horiz-adv-x="1099" 
d="M123 0zM123 -322v1315h156q24 0 40.5 -11t21.5 -34l21 -87q30 33 63 61t71.5 48t83 31t96.5 11q79 0 145 -34t114 -98.5t74.5 -159.5t26.5 -216q0 -111 -30 -206t-85 -164.5t-132.5 -109t-173.5 -39.5q-81 0 -137 24.5t-101 66.5v-398h-254zM589 811q-71 0 -120 -28.5
t-92 -82.5v-440q38 -46 82.5 -64.5t95.5 -18.5q49 0 89.5 19.5t69.5 59.5t44.5 101.5t15.5 146.5q0 84 -13 142.5t-37 95t-58 53t-77 16.5z" />
    <glyph glyph-name="uni0441" unicode="&#x441;" horiz-adv-x="857" 
d="M55 0zM761 776q-11 -14 -22 -22.5t-31 -8.5q-19 0 -35 11t-36.5 24.5t-48 24.5t-69.5 11q-52 0 -90.5 -22t-63.5 -63t-37.5 -100t-12.5 -132q0 -155 53 -238.5t146 -83.5q49 0 78 14t49 30.5t36.5 30.5t39.5 14q29 0 45 -23l74 -94q-40 -48 -85 -79.5t-92.5 -50.5
t-96 -26.5t-95.5 -7.5q-84 0 -158.5 34.5t-131 100.5t-89.5 161.5t-33 217.5q0 109 29 202t85.5 161.5t140 107.5t193.5 39q104 0 183 -36.5t142 -105.5z" />
    <glyph glyph-name="uni0442" unicode="&#x442;" horiz-adv-x="798" 
d="M10 993h778v-187h-262v-806h-254v806h-262v187z" />
    <glyph glyph-name="uni0443" unicode="&#x443;" horiz-adv-x="970" 
d="M3 0zM467 -269q-11 -26 -28.5 -39.5t-52.5 -13.5h-191l177 400l-369 915h223q31 0 46.5 -14t23.5 -32l166 -491q11 -27 19 -54l16 -54q8 28 17 55.5t20 54.5l155 489q7 20 26 33t42 13h203z" />
    <glyph glyph-name="uni0444" unicode="&#x444;" horiz-adv-x="1383" 
d="M811 1398v-391q114 -7 208 -45.5t161.5 -104.5t105 -156.5t37.5 -201.5q0 -113 -37.5 -204t-105 -157t-161.5 -105t-208 -46v-317h-238v317q-113 7 -207.5 45.5t-162.5 104.5t-105.5 157.5t-37.5 204.5q0 111 37.5 202t105.5 156.5t162.5 104t207.5 45.5v391h238z
M314 497q0 -145 71 -228.5t196 -95.5v648q-125 -13 -196 -96t-71 -228zM1069 497q0 72 -18.5 129t-53 98.5t-83.5 66t-111 30.5v-648q62 6 111 30.5t83.5 66t53 98.5t18.5 129z" />
    <glyph glyph-name="uni0445" unicode="&#x445;" horiz-adv-x="941" 
d="M16 0zM304 512l-276 481h244q27 0 39.5 -7.5t22.5 -24.5l157 -304q5 12 11 24.5t14 25.5l108 250q22 36 56 36h233l-277 -468l289 -525h-244q-27 0 -44 14.5t-27 31.5l-158 315q-4 -11 -8.5 -21t-9.5 -18l-125 -276q-11 -17 -26.5 -31.5t-40.5 -14.5h-226z" />
    <glyph glyph-name="uni0446" unicode="&#x446;" horiz-adv-x="1151" 
d="M116 993h254v-806h332v806h254v-806h173v-442q0 -35 -19.5 -55t-51.5 -20h-159v330h-783v993z" />
    <glyph glyph-name="uni0447" unicode="&#x447;" horiz-adv-x="1000" 
d="M882 0h-254v383q-124 -31 -228 -34t-179.5 28.5t-118 101t-42.5 184.5v330h254v-291q0 -58 16.5 -94.5t53.5 -53.5t97 -15t147 20v434h254v-993z" />
    <glyph glyph-name="uni0448" unicode="&#x448;" horiz-adv-x="1563" 
d="M117 993h254v-806h284v806h254v-806h283v806h254v-993h-1329v993z" />
    <glyph glyph-name="uni0449" unicode="&#x449;" horiz-adv-x="1616" 
d="M114 993h254v-806h274v806h254v-806h274v806h254v-806h171v-442q0 -35 -20 -55t-52 -20h-159v330h-1250v993z" />
    <glyph glyph-name="uni044A" unicode="&#x44a;" horiz-adv-x="1143" 
d="M6 993h537v-363h165q103 0 174 -25t115 -68t64 -99t20 -118q0 -71 -25 -129.5t-72 -101t-116.5 -66t-157.5 -23.5h-408v803h-296v190zM543 450v-270h166q74 0 110.5 39t36.5 99q0 26 -8.5 50t-26 42t-45.5 29t-67 11h-166z" />
    <glyph glyph-name="uni044B" unicode="&#x44b;" horiz-adv-x="1458" 
d="M363 993v-363h162q102 0 173 -25t115.5 -68t64 -99t19.5 -118q0 -71 -25 -129.5t-72.5 -101t-116 -66t-156.5 -23.5h-405v993h241zM1317 993v-993h-254v993h254zM363 450v-270h164q72 0 108.5 39t36.5 99q0 26 -8.5 50t-26.5 42t-45.5 29t-65.5 11h-163z" />
    <glyph glyph-name="uni044C" unicode="&#x44c;" horiz-adv-x="1013" 
d="M378 993v-363h187q111 0 187 -25t123.5 -68t68.5 -99t21 -118q0 -71 -26.5 -129.5t-77.5 -101t-125 -66t-168 -23.5h-431v993h241zM378 450v-270h190q87 0 129.5 39t42.5 99q0 26 -9.5 50t-30.5 42t-54 29t-79 11h-189z" />
    <glyph glyph-name="uni044D" unicode="&#x44d;" horiz-adv-x="895" 
d="M42 868q65 68 146 104.5t189 36.5q112 0 198 -39t144 -107.5t88 -161.5t30 -202q0 -122 -34 -217.5t-92 -161.5t-135.5 -100.5t-163.5 -34.5q-49 0 -99 7.5t-98.5 26.5t-94.5 50.5t-86 79.5l69 86q18 23 47 23q23 0 40 -12.5t39 -28t53.5 -28t82.5 -12.5q85 0 142.5 63
t72.5 182h-375v171h373q-17 106 -71.5 164.5t-146.5 58.5q-44 0 -74 -10t-52 -21.5t-39 -21.5t-36 -10q-20 0 -31 8t-22 23z" />
    <glyph glyph-name="uni044E" unicode="&#x44e;" horiz-adv-x="1542" 
d="M375 993v-399h180q12 96 49 173t95.5 131t137 82.5t173.5 28.5q106 0 193 -35.5t148.5 -102t95 -161t33.5 -211.5q0 -119 -35 -214t-97.5 -161.5t-149 -102.5t-188.5 -36q-98 0 -177.5 29.5t-138 85t-94.5 135.5t-47 180h-178v-415h-254v993h254zM1010 179
q108 0 158 80.5t50 237.5t-50 237.5t-158 80.5q-107 0 -157 -80.5t-50 -237.5t50 -237.5t157 -80.5z" />
    <glyph glyph-name="uni044F" unicode="&#x44f;" horiz-adv-x="1020" 
d="M895 0h-241v394h-34q-29 0 -48 -5.5t-32 -15.5t-22.5 -23t-19.5 -29l-144 -235q-13 -21 -27 -37t-32.5 -27t-42.5 -16.5t-58 -5.5h-175l237 348q48 69 121 95q-69 13 -116.5 40t-77.5 62.5t-43 76t-13 79.5q0 55 22 107.5t70 93.5t123.5 66t182.5 25h370v-993zM382 690
q0 -66 43 -103t115 -37h114v279h-121q-43 0 -72 -12.5t-46.5 -32.5t-25 -45t-7.5 -49z" />
    <glyph glyph-name="uni0450" unicode="&#x450;" horiz-adv-x="1031" 
d="M63 0zM539 1009q94 0 173 -30.5t136 -88t89 -141.5t32 -192q0 -29 -3 -47.5t-9.5 -29.5t-18 -15.5t-28.5 -4.5h-594q6 -72 26 -125t53 -87t78 -50.5t100 -16.5t95.5 13.5t71 29t54.5 29t47 13.5q28 0 46 -23l73 -94q-41 -48 -91 -79.5t-103.5 -50t-108.5 -26.5t-106 -8
q-103 0 -192 34t-155 101.5t-103.5 167t-37.5 230.5q0 101 33 190.5t94.5 156t149.5 105.5t199 39zM544 828q-97 0 -152 -56.5t-71 -159.5h420q0 43 -11.5 82t-36 69t-61.5 47.5t-88 17.5zM456 1414q41 0 61 -13.5t35 -39.5l134 -235h-144q-29 0 -46.5 7.5t-36.5 27.5
l-241 253h238z" />
    <glyph glyph-name="uni0451" unicode="&#x451;" horiz-adv-x="1031" 
d="M63 0zM539 1009q94 0 173 -30.5t136 -88t89 -141.5t32 -192q0 -29 -3 -47.5t-9.5 -29.5t-18 -15.5t-28.5 -4.5h-594q6 -72 26 -125t53 -87t78 -50.5t100 -16.5t95.5 13.5t71 29t54.5 29t47 13.5q28 0 46 -23l73 -94q-41 -48 -91 -79.5t-103.5 -50t-108.5 -26.5t-106 -8
q-103 0 -192 34t-155 101.5t-103.5 167t-37.5 230.5q0 101 33 190.5t94.5 156t149.5 105.5t199 39zM544 828q-97 0 -152 -56.5t-71 -159.5h420q0 43 -11.5 82t-36 69t-61.5 47.5t-88 17.5zM487 1248q0 -28 -11.5 -53t-31 -43.5t-45 -29.5t-54.5 -11q-28 0 -53 11t-44 29.5
t-30 43.5t-11 53q0 29 11 54.5t30 44t44 29.5t53 11q29 0 54.5 -11t45 -29.5t31 -44t11.5 -54.5zM882 1248q0 -28 -11.5 -53t-31 -43.5t-45 -29.5t-54.5 -11q-28 0 -53 11t-44 29.5t-30 43.5t-11 53q0 29 11 54.5t30 44t44 29.5t53 11q29 0 54.5 -11t45 -29.5t31 -44
t11.5 -54.5z" />
    <glyph glyph-name="uni0452" unicode="&#x452;" horiz-adv-x="1133" 
d="M-19 1228h157v209h254v-209h305v-191h-305v-236q58 54 127.5 86t163.5 32q184 0 272.5 -116t88.5 -339q0 -100 -16 -201t-45.5 -199.5t-71.5 -193.5t-95 -183l-204 77q43 84 76.5 166t56 167.5t34 176t11.5 190.5q0 71 -13.5 120t-38.5 79.5t-59 44t-74 13.5
q-60 0 -113 -26t-100 -71v-624h-254v1037h-157v191z" />
    <glyph glyph-name="uni0453" unicode="&#x453;" horiz-adv-x="726" 
d="M101 0zM709 993v-187h-354v-806h-254v993h608zM719 1414l-241 -253q-19 -19 -37 -27t-47 -8h-152l136 235q15 26 35 39.5t60 13.5h246z" />
    <glyph glyph-name="uni0454" unicode="&#x454;" horiz-adv-x="896" 
d="M799 784q-11 -15 -22 -23t-31 -8q-19 0 -36.5 10t-40 21.5t-53 21.5t-75.5 10q-94 0 -150 -58.5t-73 -164.5h380v-171h-383q16 -119 74.5 -182t146.5 -63q52 0 84 12.5t54.5 28t40.5 28t41 12.5q28 0 46 -23l69 -86q-40 -48 -86 -79.5t-95.5 -50.5t-100.5 -26.5
t-100 -7.5q-87 0 -165.5 34.5t-137 100.5t-93 161.5t-34.5 217.5q0 109 30 202t89 161.5t146 107.5t201 39q109 0 191 -36.5t147 -104.5z" />
    <glyph glyph-name="uni0455" unicode="&#x455;" horiz-adv-x="817" 
d="M51 0zM700 793q-10 -17 -21.5 -23.5t-28.5 -6.5q-18 0 -37.5 9.5t-43 21t-53.5 21t-69 9.5q-60 0 -93 -27.5t-33 -73.5q0 -31 19 -51.5t50.5 -36t71 -28.5t81.5 -28t81.5 -35.5t71 -50.5t50.5 -73t19 -103q0 -72 -25 -133t-73.5 -105t-120 -69t-165.5 -25q-48 0 -95 9
t-90 25.5t-80.5 38.5t-64.5 48l59 96q11 17 26 27t39 10q22 0 41.5 -12t42.5 -26.5t55 -26.5t80 -12q36 0 61.5 9t41 24.5t23 35.5t7.5 41q0 44 -33 68.5t-83 42.5t-107.5 37t-107.5 52t-83 87t-33 143q0 62 23 117.5t68.5 97.5t113 67t157.5 25q49 0 95 -9t86.5 -25.5
t74 -39.5t59.5 -50z" />
    <glyph glyph-name="uni0456" unicode="&#x456;" horiz-adv-x="503" 
d="M90 0zM379 993v-993h-254v993h254zM410 1278q0 -33 -13 -61.5t-35 -50t-52 -34t-63 -12.5q-32 0 -60.5 12.5t-50 34t-34 50t-12.5 61.5t12.5 62t34 50.5t50 34t60.5 12.5q33 0 63 -12.5t52 -34t35 -50.5t13 -62z" />
    <glyph glyph-name="uni0457" unicode="&#x457;" horiz-adv-x="503" 
d="M0 0zM379 993v-993h-254v993h254zM231 1248q0 -28 -11.5 -53t-31 -43.5t-45 -29.5t-54.5 -11q-28 0 -53 11t-44 29.5t-30 43.5t-11 53q0 29 11 54.5t30 44t44 29.5t53 11q29 0 54.5 -11t45 -29.5t31 -44t11.5 -54.5zM566 1248q0 -28 -11.5 -53t-31 -43.5t-45 -29.5
t-54.5 -11q-28 0 -53 11t-44 29.5t-30 43.5t-11 53q0 29 11 54.5t30 44t44 29.5t53 11q29 0 54.5 -11t45 -29.5t31 -44t11.5 -54.5z" />
    <glyph glyph-name="uni0458" unicode="&#x458;" horiz-adv-x="523" 
d="M0 0zM391 993v-1017q0 -67 -17 -125.5t-56 -102t-102 -69t-154 -25.5q-35 0 -65 4.5t-62 13.5l9 136q2 20 15 26.5t49 6.5q37 0 62 6.5t40 22.5t21 41.5t6 64.5v1017h254zM425 1278q0 -33 -13 -61.5t-35 -50t-52 -34t-63 -12.5q-32 0 -60.5 12.5t-50 34t-34 50
t-12.5 61.5t12.5 62t34 50.5t50 34t60.5 12.5q33 0 63 -12.5t52 -34t35 -50.5t13 -62z" />
    <glyph glyph-name="uni0459" unicode="&#x459;" horiz-adv-x="1590" 
d="M1024 993v-363h158q101 0 171 -25t113.5 -68t63 -99t19.5 -118q0 -71 -24.5 -129.5t-71.5 -101t-114.5 -66t-154.5 -23.5h-414v800h-211q-12 -181 -35.5 -312t-56 -221.5t-73 -145.5t-85.5 -85t-94 -40t-98 -10q-57 0 -82 9.5t-25 27.5v156h57q30 0 60 9.5t58.5 39t54 84
t47 145t37.5 222t25 314.5h675zM1024 450v-270h159q70 0 105 39t35 99q0 26 -8 50t-25 42t-44 29t-64 11h-158z" />
    <glyph glyph-name="uni045A" unicode="&#x45a;" horiz-adv-x="1626" 
d="M1020 993v-363h175q106 0 180 -25t119.5 -68t66 -99t20.5 -118q0 -71 -25.5 -129.5t-75 -101t-121 -66t-162.5 -23.5h-431v434h-383v-434h-254v993h254v-372h383v372h254zM1020 450v-270h176q80 0 119.5 39t39.5 99q0 26 -9 50t-28.5 42t-49.5 29t-73 11h-175z" />
    <glyph glyph-name="uni045B" unicode="&#x45b;" horiz-adv-x="1121" 
d="M0 0zM-1 1251h137v186h254v-186h269v-157h-269v-234q57 52 125.5 84.5t160.5 32.5q81 0 144 -28t105.5 -78t64.5 -119.5t22 -151.5v-600h-254v600q0 85 -40 132.5t-120 47.5q-59 0 -110.5 -26t-97.5 -71v-683h-254v1094h-137v157z" />
    <glyph glyph-name="uni045C" unicode="&#x45c;" horiz-adv-x="1013" 
d="M115 0zM673 926q18 31 50 49t67 18h200l-208 -366q-23 -39 -47.5 -63t-58.5 -38q47 -15 76.5 -43.5t53.5 -72.5l208 -410h-176q-67 0 -104 22.5t-59 65.5l-122 266q-15 35 -43 52t-63 17h-78v-423h-254v993h254v-405h66q38 0 58.5 14.5t36.5 45.5zM875 1414l-241 -253
q-19 -19 -37 -27t-47 -8h-152l136 235q15 26 35 39.5t60 13.5h246z" />
    <glyph glyph-name="uni045D" unicode="&#x45d;" horiz-adv-x="1140" 
d="M123 0zM123 -1v993h254v-558q0 -23 -2.5 -50.5t-6.5 -54.5q21 46 44 80q1 2 17.5 25.5t42 60.5t58 84t65.5 95q78 114 177 257q14 23 37.5 42.5t52.5 19.5h155v-993h-254v559q0 22 2.5 49t6.5 55q-21 -47 -44 -79q-2 -2 -18 -26t-41.5 -61t-58 -84t-65.5 -95
q-78 -114 -177 -257q-14 -21 -37.5 -41.5t-52.5 -20.5h-155zM495 1414q41 0 61 -13.5t35 -39.5l134 -235h-144q-29 0 -46.5 7.5t-36.5 27.5l-241 253h238z" />
    <glyph glyph-name="uni045E" unicode="&#x45e;" horiz-adv-x="970" 
d="M3 0zM467 -269q-11 -26 -28.5 -39.5t-52.5 -13.5h-191l177 400l-369 915h223q31 0 46.5 -14t23.5 -32l166 -491q11 -27 19 -54l16 -54q8 28 17 55.5t20 54.5l155 489q7 20 26 33t42 13h203zM500 1247q36 0 59 7.5t37 25t19.5 46.5t5.5 72h150q26 0 39 -22t13 -48
q0 -50 -23 -90t-65.5 -67.5t-102 -42.5t-132.5 -15t-132.5 15t-102 42.5t-65.5 67.5t-23 90q0 26 13 48t39 22h150q0 -43 5.5 -72t19.5 -46.5t37 -25t59 -7.5z" />
    <glyph glyph-name="uni045F" unicode="&#x45f;" horiz-adv-x="1100" 
d="M121 993h254v-806h350v806h254v-993h-314v-255q0 -35 -20 -55t-52 -20h-158v330h-314v993z" />
    <glyph glyph-name="uni0460" unicode="&#x460;" horiz-adv-x="1938" 
d="M1079 1222q54 52 129.5 86t183.5 34q130 0 221 -52.5t148.5 -143t84 -212t26.5 -259.5q0 -159 -33 -287t-98.5 -217t-163 -137t-225.5 -48q-116 0 -210.5 39t-172.5 113q-78 -74 -172.5 -113t-210.5 -39q-128 0 -225 48t-162.5 137t-98.5 217t-33 287q0 138 26.5 259.5
t84 212t148.5 143t220 52.5q108 0 184 -34t130 -86l-58 -129q-10 -23 -22 -29t-29 -6q-15 0 -30 9.5t-35.5 21t-47.5 21t-64 9.5q-116 0 -181 -112t-65 -346q0 -110 16 -194t50.5 -142t87.5 -87.5t127 -29.5q68 0 124 24.5t104 72.5v410h265v-411q48 -48 103.5 -72
t124.5 -24q74 0 127 29.5t87.5 87.5t50.5 142t16 194q0 117 -17 203t-48.5 143t-77 84.5t-103.5 27.5q-38 0 -64.5 -9.5t-47 -21t-36 -21t-30.5 -9.5q-17 0 -28 6t-25 28z" />
    <glyph glyph-name="uni0461" unicode="&#x461;" horiz-adv-x="1473" 
d="M368 0q-53 55 -100 121t-82 138t-55 149.5t-20 156.5v428h173q38 0 55 -22t17 -51v-327q0 -112 37 -201.5t96 -155.5q27 32 51.5 72t42.5 85t28.5 95.5t10.5 103.5v401h173q38 0 55 -22t17 -51v-318q0 -106 34.5 -199.5t97.5 -166.5q28 32 54.5 74.5t47 96t32.5 120
t12 146.5q0 58 -6 100t-12.5 73t-12.5 52.5t-6 38.5q0 21 13.5 38.5t38.5 17.5h192q19 -88 28 -164t9 -153q0 -112 -18 -206.5t-52.5 -177t-84.5 -154.5t-113 -138h-149q-20 0 -31.5 7.5t-26.5 24.5q-45 53 -90 122t-80 150q-34 -80 -78.5 -149.5t-89.5 -122.5
q-16 -17 -25 -24.5t-30 -7.5h-153z" />
    <glyph glyph-name="uni0462" unicode="&#x462;" horiz-adv-x="1306" 
d="M560 1328v-180h370v-191h-370v-173h199q130 0 222 -29t150 -78.5t84.5 -116.5t26.5 -142q0 -95 -32.5 -172t-94.5 -132t-151.5 -84.5t-204.5 -29.5h-462v957h-255v191h255v180h263zM560 580v-376h199q65 0 108.5 15t69 40.5t36 59.5t10.5 72q0 43 -10.5 78t-36 59.5
t-69 38t-108.5 13.5h-199z" />
    <glyph glyph-name="uni0463" unicode="&#x463;" horiz-adv-x="1089" 
d="M493 1247v-255h294v-191h-294v-171h182q102 0 173 -25t115.5 -68t64 -99t19.5 -118q0 -71 -25 -129.5t-72.5 -101t-116 -66t-156.5 -23.5h-425v801h-233v191h233v255h241zM493 450v-270h183q72 0 108.5 39t36.5 99q0 26 -8 50t-26 42t-45.5 29t-66.5 11h-182z" />
    <glyph glyph-name="uni0464" unicode="&#x464;" horiz-adv-x="1599" 
d="M1435 322q22 0 37 -16l104 -113q-71 -101 -177.5 -154t-252.5 -53q-123 0 -223.5 43.5t-173.5 121.5t-117 186.5t-55 239.5h-203v-577h-264v1328h264v-558h206q14 128 62 233.5t123.5 181t175.5 117t218 41.5q132 0 233.5 -47.5t168.5 -125.5l-87 -123q-10 -11 -21 -20
t-33 -9q-21 0 -40 16t-47 35t-69 35t-107 16q-60 0 -112 -23.5t-92.5 -68.5t-67.5 -110t-38 -148h487v-193h-489q10 -89 38.5 -157.5t70.5 -115.5t95.5 -71.5t112.5 -24.5q39 0 71 5t59 16t51.5 29.5t49.5 44.5q8 8 19 13.5t23 5.5z" />
    <glyph glyph-name="uni0465" unicode="&#x465;" horiz-adv-x="1337" 
d="M1155 269q19 0 33 -15l97 -104q-110 -161 -340 -161q-96 0 -174 31.5t-135 87.5t-92.5 134t-46.5 170h-133v-412h-245v993h245v-402h134q13 92 52 168t98.5 130t137.5 84t170 30q105 0 186.5 -37t132.5 -96l-82 -115q-8 -11 -18.5 -18t-30.5 -7q-19 0 -33 10.5
t-33.5 22.5t-48 22.5t-75.5 10.5q-78 0 -132.5 -52.5t-72.5 -152.5h349v-179h-349q19 -106 77.5 -161.5t134.5 -55.5q25 0 46 2.5t39 9.5t35 17.5t34 27.5q8 8 18.5 12.5t21.5 4.5z" />
    <glyph glyph-name="uni0466" unicode="&#x466;" horiz-adv-x="1333" 
d="M1337 0h-211q-34 0 -56 16.5t-32 40.5l-169 461h-80v-518h-249v518h-78l-167 -459q-9 -22 -31.5 -40.5t-54.5 -18.5h-213l544 1328h253zM530 702h272l-81 221q-14 33 -28 78.5t-28 99.5q-13 -54 -27 -100t-28 -80z" />
    <glyph glyph-name="uni0467" unicode="&#x467;" horiz-adv-x="1173" 
d="M1170 0h-196q-32 0 -51.5 15t-29.5 38l-125 281h-68v-334h-230v334h-64l-124 -281q-9 -20 -29.5 -36.5t-51.5 -16.5h-198l466 993h235zM481 505h211l-53 119q-14 29 -27 71t-26 90q-12 -49 -25.5 -91t-26.5 -71z" />
    <glyph glyph-name="uni0468" unicode="&#x468;" horiz-adv-x="1832" 
d="M709 518h-327v-518h-264v1328h264v-626h402l256 626h253l543 -1328h-211q-34 0 -55.5 17t-31.5 41l-168 460h-81v-518h-249v518h-77l-168 -459q-8 -22 -30.5 -40.5t-54.5 -18.5h-213zM1030 702h272l-80 221q-14 33 -28 79t-28 100q-13 -54 -27 -100t-28 -79z" />
    <glyph glyph-name="uni0469" unicode="&#x469;" horiz-adv-x="1615" 
d="M615 334h-245v-334h-245v993h245v-488h324l226 488h235l457 -993h-197q-32 0 -51.5 15.5t-29.5 37.5l-121 281h-62v-334h-230v334h-61l-120 -281q-9 -20 -29.5 -36.5t-51.5 -16.5h-198zM934 505h206l-50 118q-14 29 -27.5 71t-26.5 92q-12 -50 -25.5 -92.5t-26.5 -71.5z
" />
    <glyph glyph-name="uni046A" unicode="&#x46a;" horiz-adv-x="1490" 
d="M610 579q-41 0 -69.5 -7t-49 -24.5t-35 -47.5t-27.5 -77l-104 -364q-8 -22 -30 -40.5t-54 -18.5h-214l153 445q22 62 50 113.5t65 90.5t83 65.5t105 38.5l-417 575h208h6h926h7h208l-417 -574q59 -12 105.5 -38t83.5 -65.5t65.5 -91t51.5 -114.5l153 -445h-213
q-32 0 -54.5 18t-30.5 40l-103 365q-14 47 -28.5 77.5t-35 48t-48.5 24t-69 6.5h-5v-1h-11v-578h-248v578h-6zM598 933q27 -36 50 -65t41 -55.5t31.5 -53t22.5 -56.5q9 31 22.5 57.5t31.5 53.5t41 55.5t50 63.5l132 211h-554z" />
    <glyph glyph-name="uni046B" unicode="&#x46b;" horiz-adv-x="1282" 
d="M888 570q47 -13 83.5 -36t65.5 -55.5t52 -74t44 -91.5l126 -313h-200q-30 0 -50 17t-29 37l-77 240q-12 35 -24 57.5t-27.5 36t-37 19t-51.5 6.5h-11v-413h-231v413q-30 -1 -52 -6.5t-38 -19t-28 -36t-24 -57.5l-76 -240q-8 -20 -29 -37t-51 -17h-198l125 313
q20 49 43 90.5t51.5 74t64 55.5t81.5 36l-337 423h194h6h772h7h195zM502 735q27 -31 49.5 -56.5t39.5 -49.5t29 -49t20 -53q7 28 19.5 53t29.5 49t38.5 49.5t48.5 56.5l64 87h-402z" />
    <glyph glyph-name="uni046C" unicode="&#x46c;" horiz-adv-x="1960" 
d="M651 444q14 43 46.5 77t77.5 58h-407v-579h-264v1328h264v-564h580l-408 564h208h6h1136l-415 -574q59 -12 105.5 -38t83.5 -65.5t65 -91t51 -114.5l152 -445h-211q-33 0 -55 18t-30 40l-104 365q-14 47 -28 77.5t-34.5 48t-48.5 24t-69 6.5h-4v-1h-11v-578h-249v578h-5
l-1 1h-3q-39 0 -66.5 -6.5t-48 -24t-35.5 -48t-29 -77.5l-105 -364q-8 -22 -30 -40.5t-54 -18.5h-212zM1071 933q27 -35 49.5 -64t40.5 -55.5t31.5 -53t22.5 -56.5q9 30 22.5 56.5t31.5 53.5t41 55.5t50 63.5l131 211h-552z" />
    <glyph glyph-name="uni046D" unicode="&#x46d;" horiz-adv-x="1722" 
d="M580 313q12 32 37.5 56.5t60.5 43.5h-318v-413h-245v993h245v-408h454l-327 407h1178l-339 -422q47 -13 83.5 -36t65.5 -55.5t52 -74t44 -91.5l126 -313h-199q-30 0 -50.5 17t-28.5 37l-78 240q-12 36 -24.5 59t-29 36t-39 18t-54.5 6h-5v-413h-231v413q-30 -1 -52 -6
t-39 -18t-30 -36t-25 -59l-79 -240q-8 -20 -28.5 -37t-50.5 -17h-197zM938 735q27 -31 49 -56.5t39.5 -50t29.5 -49t20 -53.5q7 29 19.5 53.5t29.5 48.5t39 50t49 57l64 87h-404z" />
    <glyph glyph-name="uni046E" unicode="&#x46e;" horiz-adv-x="1010" 
d="M741 -363q-2 46 -27 63t-85 17q-21 0 -37.5 -1.5t-34.5 -3.5t-41.5 -3.5t-58.5 -1.5q-217 0 -319.5 65.5t-102.5 203.5q0 126 78.5 195t221.5 69q55 0 99.5 -7.5t86.5 -7.5q46 0 80.5 13t58 37t35 57.5t11.5 73.5q0 49 -17 84t-48.5 58t-75.5 33.5t-98 10.5l-183 -1
l-1 211h164q111 0 170 43.5t59 125.5q0 72 -55 115.5t-161 43.5q-61 0 -106 -14t-78.5 -31t-58 -31t-44.5 -14q-37 0 -56 38l-66 124q75 66 179.5 103t231.5 37q105 0 190 -25.5t145 -71.5t92 -110t32 -141q0 -91 -39 -166.5t-119 -123.5q42 -21 77 -50t60 -66.5t39 -83
t14 -99.5q0 -75 -26.5 -146.5t-82.5 -127t-142 -89t-204 -33.5q-29 0 -51 2t-39.5 4.5t-32 4.5t-27.5 2q-67 0 -67 -55q0 -16 6.5 -28t22 -20.5t42 -12.5t65.5 -4q58 0 117 4.5t103 4.5q66 0 110 -15.5t70.5 -43t37 -65.5t10.5 -83q0 -12 -1.5 -23.5t-6.5 -21.5t-16 -16
t-30 -6h-70v0z" />
    <glyph glyph-name="uni046F" unicode="&#x46f;" horiz-adv-x="870" 
d="M726 1130h-15q-26 0 -41.5 -12.5t-27.5 -26.5l-93 -102q112 -32 171 -99.5t59 -148.5q0 -28 -8 -58.5t-26.5 -59t-49 -53.5t-74.5 -42q88 -35 132 -96.5t44 -132.5q0 -66 -25 -122t-73 -97t-117 -64.5t-157 -23.5q-38 0 -74 3t-58 3q-29 0 -45 -11t-16 -37q0 -35 26 -49
t74 -14q20 0 47 1.5t56 3t57.5 3t52.5 1.5q70 0 117 -16t75.5 -45t40 -69t11.5 -87q0 -12 -1.5 -25t-7 -23t-17 -16.5t-32.5 -6.5h-72q-2 47 -30 65t-93 18q-46 0 -91.5 -4.5t-90.5 -4.5q-68 0 -127 17t-103 51t-69 83.5t-25 114.5q0 50 16 92.5t48 74t80 49.5t111 18
q29 0 59.5 -3t54.5 -3q38 0 67 10.5t49 27.5t30 40t10 48q0 64 -44.5 97t-145.5 33h-111v165h111q89 0 136 30.5t47 81.5q0 48 -41.5 77.5t-120.5 29.5q-50 0 -84.5 -10t-59 -22t-42 -22t-33.5 -10q-17 0 -29.5 6.5t-26.5 28.5l-57 98q47 45 110.5 76.5t149.5 42.5l-200 248
h145q27 0 45 -6.5t33 -26.5l66 -87q15 -20 30 -45q6 13 13.5 24t15.5 22l60 80q19 24 49.5 36.5t68.5 12.5q26 0 46 -4.5t40 -11.5v-116z" />
    <glyph glyph-name="uni0470" unicode="&#x470;" horiz-adv-x="1654" 
d="M88 0zM264 1328q42 0 65 -25t23 -62v-390q0 -76 17.5 -134.5t58 -99t105.5 -63t161 -28.5v802h263v-802q96 5 162 28t106.5 63.5t58.5 98.5t18 135v390q0 37 23 62t65 25h176v-477q0 -117 -39 -213t-115.5 -165t-190.5 -109.5t-264 -47.5v-316h-263v316q-150 7 -263 48
t-189.5 110t-115 164.5t-38.5 212.5v477h176z" />
    <glyph glyph-name="uni0471" unicode="&#x471;" horiz-adv-x="1511" 
d="M115 0zM898 1398v-1210q68 8 121 29.5t89 61t55 100.5t19 149q0 77 -7 131t-15.5 96t-16 78t-8.5 78q-1 22 5 38t16.5 25.5t23 14t25.5 4.5h183q11 -62 20 -119.5t15 -114t9.5 -113.5t3.5 -118q0 -143 -42 -241t-114.5 -160.5t-171 -94t-210.5 -41.5v-312h-254v311
q-141 11 -241 49.5t-164 102.5t-94 151t-30 194v506h177q15 0 29 -9t24.5 -23.5t17 -31t6.5 -31.5v-411q0 -131 70.5 -202.5t204.5 -92.5v1206h254z" />
    <glyph glyph-name="uni0472" unicode="&#x472;" horiz-adv-x="1385" 
d="M1338 665q0 -146 -46 -270.5t-130.5 -215.5t-203.5 -142t-264 -51t-264 51t-204 142t-131.5 215.5t-46.5 270.5q0 145 46.5 269.5t131.5 215t204 142t264 51.5t264 -51.5t203.5 -142.5t130.5 -215t46 -269zM694 210q78 0 142 24.5t111.5 72t77.5 115.5t40 155h-743
q10 -87 40 -155t77.5 -115.5t111.5 -72t143 -24.5zM694 1120q-77 0 -140 -24t-110 -69t-77.5 -110t-42.5 -147h739q-12 82 -42.5 147t-78 110t-110 69t-138.5 24z" />
    <glyph glyph-name="uni0473" unicode="&#x473;" horiz-adv-x="1097" 
d="M550 1009q109 0 198.5 -35.5t153 -102t98.5 -161t35 -211.5q0 -119 -35 -214t-98.5 -161.5t-153 -102.5t-198.5 -36q-110 0 -200 36t-154 102.5t-99 161.5t-35 214q0 117 35 211.5t99 161t154 102t200 35.5zM550 171q100 0 160.5 63t74.5 189h-473q14 -126 74.5 -189
t163.5 -63zM550 823q-99 0 -159 -59.5t-77 -177.5h469q-17 118 -76.5 177.5t-156.5 59.5z" />
    <glyph glyph-name="uni0474" unicode="&#x474;" horiz-adv-x="1253" 
d="M2 1328h211q34 0 55.5 -16t32.5 -42l269 -784q16 -41 31.5 -89.5t28.5 -102.5q11 54 24 103t27 91l188 642q34 106 100.5 156.5t180.5 50.5q34 0 55 -2.5t32.5 -8.5t15.5 -15t4 -22v-163h-48q-76 0 -110 -95l-354 -1031h-237z" />
    <glyph glyph-name="uni0475" unicode="&#x475;" horiz-adv-x="1017" 
d="M13 993h210q29 0 47.5 -13.5t25.5 -32.5l166 -507q18 -50 30.5 -97.5t22.5 -95.5q19 93 52 193l103 366q19 62 44 101t55.5 61t67 30t78.5 8q34 0 55.5 -4t33.5 -9.5t16.5 -12t4.5 -10.5v-139h-29q-38 0 -65 -16t-40 -54l-266 -761h-230z" />
    <glyph glyph-name="uni0477" unicode="&#x477;" horiz-adv-x="1017" 
d="M12 0zM13 993h210q29 0 47.5 -13.5t25.5 -32.5l166 -507q18 -50 30.5 -97.5t22.5 -95.5q19 93 52 193l103 366q19 62 44 101t55.5 61t67 30t78.5 8q34 0 55.5 -4t33.5 -9.5t16.5 -12t4.5 -10.5v-139h-29q-38 0 -65 -16t-40 -54l-266 -761h-230zM521 1414q40 0 60.5 -13.5
t34.5 -39.5l120 -235h-104q-29 0 -47.5 7.5t-35.5 27.5l-193 253h165zM194 1414q20 0 34 -3.5t24.5 -10.5t19 -16.5t17.5 -21.5l171 -236h-120q-29 0 -46.5 8t-36.5 27l-245 253h182z" />
    <glyph glyph-name="uni0478" unicode="&#x478;" horiz-adv-x="2250" 
d="M21 0zM1311 665q0 -146 -46 -270.5t-130.5 -215.5t-203.5 -142t-264 -51t-264 51t-204 142t-131.5 215.5t-46.5 270.5q0 145 46.5 269.5t131.5 215t204 142t264 51.5t264 -51.5t203.5 -142.5t130.5 -215t46 -269zM1043 665q0 106 -26 190t-74.5 143t-118 90.5
t-157.5 31.5t-158 -31.5t-118.5 -90.5t-74.5 -143t-26 -190q0 -107 26 -191.5t74.5 -143t118.5 -89.5t158 -31t157.5 31t118 89.5t74.5 143t26 191.5zM1772 -269q-11 -26 -28.5 -39.5t-52.5 -13.5h-191l177 400l-369 915h223q31 0 46.5 -14t23.5 -32l166 -491q11 -27 19 -54
l16 -54q8 28 17 55.5t20 54.5l155 489q7 20 26 33t42 13h203z" />
    <glyph glyph-name="uni0479" unicode="&#x479;" horiz-adv-x="1960" 
d="M17 0zM1468 -269q-11 -26 -28.5 -39.5t-52.5 -13.5h-191l177 400l-369 915h223q31 0 46.5 -14t23.5 -32l166 -491q11 -27 19 -54l16 -54q8 28 17 55.5t20 54.5l155 489q7 20 26 33t42 13h203zM507 1009q109 0 199 -35.5t154 -102t99 -161t35 -211.5q0 -119 -35 -214
t-99 -161.5t-154 -102.5t-199 -36q-110 0 -200.5 36t-155 102.5t-99.5 161.5t-35 214q0 117 35 211.5t99.5 161t155 102t200.5 35.5zM507 179q115 0 170 80.5t55 237.5t-55 237.5t-170 80.5q-117 0 -172.5 -80.5t-55.5 -237.5t55.5 -237.5t172.5 -80.5z" />
    <glyph glyph-name="uni047A" unicode="&#x47a;" horiz-adv-x="1465" 
d="M46 665q0 132 37.5 246t107 202t167.5 146t219 76q25 40 66.5 64t92.5 24q52 0 94 -24.5t67 -65.5q118 -20 215 -77.5t165 -145.5t105.5 -201.5t37.5 -243.5q0 -131 -37.5 -244.5t-105.5 -201t-164.5 -146t-214.5 -77.5q-25 -41 -67.5 -65.5t-94.5 -24.5t-94 24t-66 64
q-120 18 -218 75.5t-167.5 146t-107 203t-37.5 246.5zM315 665q0 -93 19 -168.5t54.5 -132.5t87.5 -93.5t118 -51.5q26 30 62 47.5t80 17.5q43 0 79 -17t62 -46q131 32 202.5 146.5t71.5 297.5q0 182 -71 296.5t-201 146.5q-26 -30 -62.5 -47t-80.5 -17q-45 0 -81.5 17.5
t-62.5 48.5q-66 -15 -117.5 -52.5t-87 -94.5t-54 -132t-18.5 -166z" />
    <glyph glyph-name="uni047B" unicode="&#x47b;" horiz-adv-x="1200" 
d="M57 499q0 103 26 188.5t74 150t116.5 106t152.5 56.5q25 47 70 75t103 28q57 0 103 -28t71 -75q84 -15 152.5 -56.5t116.5 -106t74.5 -150t26.5 -188.5q0 -105 -26.5 -192t-75.5 -152t-118.5 -106.5t-154.5 -55.5q-26 -42 -70.5 -67t-98.5 -25q-55 0 -98.5 25t-69.5 67
q-85 14 -154 55.5t-118 106.5t-75.5 152t-26.5 192zM319 497q0 -116 26.5 -190t82.5 -106q26 45 70 71.5t101 26.5q56 0 101 -26.5t71 -71.5q57 31 83.5 105.5t26.5 190.5q0 118 -28 192.5t-86 105.5q-26 -42 -70 -66t-98 -24t-97.5 23.5t-69.5 65.5q-58 -30 -85.5 -104.5
t-27.5 -192.5z" />
    <glyph glyph-name="uni047C" unicode="&#x47c;" horiz-adv-x="1938" 
d="M1079 1222q54 52 129.5 86t183.5 34q130 0 221 -52.5t148.5 -143t84 -212t26.5 -259.5q0 -159 -33 -287t-98.5 -217t-163 -137t-225.5 -48q-116 0 -210.5 39t-172.5 113q-78 -74 -172.5 -113t-210.5 -39q-128 0 -225 48t-162.5 137t-98.5 217t-33 287q0 138 26.5 259.5
t84 212t148.5 143t220 52.5q108 0 184 -34t130 -86l-58 -129q-10 -23 -22 -29t-29 -6q-15 0 -30 9.5t-35.5 21t-47.5 21t-64 9.5q-116 0 -181 -112t-65 -346q0 -110 16 -194t50.5 -142t87.5 -87.5t127 -29.5q96 0 158.5 48.5t103.5 143.5h197q41 -95 103 -143.5t159 -48.5
q74 0 127 29.5t87.5 87.5t50.5 142t16 194q0 117 -17 203t-48.5 143t-77 84.5t-103.5 27.5q-38 0 -64.5 -9.5t-47 -21t-36 -21t-30.5 -9.5q-17 0 -28 6t-25 28zM651 1517q0 121 65 183t178 62q66 0 118.5 -19t104.5 -42t111 -42t137 -19v-123q-92 0 -160.5 18.5t-122 40.5
t-96.5 40.5t-84 18.5q-49 0 -76.5 -29t-27.5 -89h-147zM944 1321q29 7 43.5 19t16.5 38q-5 -1 -16 -1q-56 0 -78.5 24t-22.5 56q0 39 25 65t73 26q55 0 84 -36.5t29 -91.5q0 -37 -12 -68t-36 -53t-60 -34.5t-85 -11.5v38q0 11 8.5 18t30.5 12z" />
    <glyph glyph-name="uni047D" unicode="&#x47d;" horiz-adv-x="1628" 
d="M888 909q45 41 107.5 67.5t151.5 26.5q106 0 179.5 -39.5t119.5 -107.5t67 -158.5t21 -193.5q0 -116 -25.5 -211t-77.5 -162.5t-130.5 -104.5t-184.5 -37q-92 0 -166.5 28t-137.5 83q-63 -55 -137 -83t-166 -28q-106 0 -184.5 37t-130.5 104.5t-77.5 162.5t-25.5 211
q0 103 21 193.5t67 158.5t120 107.5t179 39.5q89 0 152 -26.5t108 -68.5l-53 -122q-9 -20 -20 -25.5t-27 -5.5q-14 0 -27 6.5l-28 14t-34 14t-45 6.5q-39 0 -70.5 -17t-53.5 -54t-34 -95t-12 -140q0 -69 10 -124t32.5 -93t60 -58t93.5 -20q71 0 116 34t76 109h181
q31 -75 76 -109t116 -34q55 0 93 20t61 58t33 93t10 124q0 82 -12 140t-34 95t-53.5 54t-70.5 17q-26 0 -45.5 -6.5t-35 -14t-28.5 -14t-27 -6.5q-15 0 -25.5 5.5t-22.5 25.5zM462 1233q0 126 72 192t196 66q49 0 91 -9.5t81.5 -23.5t78.5 -31t82 -31t91 -23.5t107 -9.5
v-130q-102 0 -178.5 19.5t-137 43t-110 43t-97.5 19.5q-57 0 -89 -31t-32 -94h-155zM788 1027q32 7 49 19.5t19 40.5q-5 -2 -10 -2h-10q-30 0 -51 7t-34 18.5t-18.5 26.5t-5.5 32q0 42 27.5 69t78.5 27q60 0 91.5 -38t31.5 -97q0 -38 -13 -70.5t-39 -55.5t-65.5 -36
t-92.5 -13v39q0 13 9.5 20.5t32.5 12.5z" />
    <glyph glyph-name="uni047E" unicode="&#x47e;" horiz-adv-x="1938" 
d="M67 0zM1079 1222q54 52 129.5 86t183.5 34q130 0 221 -52.5t148.5 -143t84 -212t26.5 -259.5q0 -159 -33 -287t-98.5 -217t-163 -137t-225.5 -48q-116 0 -210.5 39t-172.5 113q-78 -74 -172.5 -113t-210.5 -39q-128 0 -225 48t-162.5 137t-98.5 217t-33 287
q0 138 26.5 259.5t84 212t148.5 143t220 52.5q108 0 184 -34t130 -86l-58 -129q-10 -23 -22 -29t-29 -6q-15 0 -30 9.5t-35.5 21t-47.5 21t-64 9.5q-116 0 -181 -112t-65 -346q0 -110 16 -194t50.5 -142t87.5 -87.5t127 -29.5q68 0 124 24.5t104 72.5v410h265v-411
q48 -48 103.5 -72t124.5 -24q74 0 127 29.5t87.5 87.5t50.5 142t16 194q0 117 -17 203t-48.5 143t-77 84.5t-103.5 27.5q-38 0 -64.5 -9.5t-47 -21t-36 -21t-30.5 -9.5q-17 0 -28 6t-25 28zM1402 1658q0 -14 -2 -24.5t-5 -21.5l-62 -202q-5 -15 -15.5 -22.5t-21.5 -7.5
t-21.5 7.5t-15.5 22.5l-36 124h-180l-38 -124q-5 -15 -15.5 -22.5t-21.5 -7.5t-21.5 7.5t-15.5 22.5l-36 124h-183l-38 -124q-5 -15 -15.5 -22.5t-22 -7.5t-22 7.5t-14.5 22.5l-58 201q-6 19 -6 47h866z" />
    <glyph glyph-name="uni047F" unicode="&#x47f;" horiz-adv-x="1473" 
d="M111 0zM368 0q-53 55 -100 121t-82 138t-55 149.5t-20 156.5v428h173q38 0 55 -22t17 -51v-327q0 -112 37 -201.5t96 -155.5q27 32 51.5 72t42.5 85t28.5 95.5t10.5 103.5v401h173q38 0 55 -22t17 -51v-318q0 -106 34.5 -199.5t97.5 -166.5q28 32 54.5 74.5t47 96
t32.5 120t12 146.5q0 58 -6 100t-12.5 73t-12.5 52.5t-6 38.5q0 21 13.5 38.5t38.5 17.5h192q19 -88 28 -164t9 -153q0 -112 -18 -206.5t-52.5 -177t-84.5 -154.5t-113 -138h-149q-20 0 -31.5 7.5t-26.5 24.5q-45 53 -90 122t-80 150q-34 -80 -78.5 -149.5t-89.5 -122.5
q-16 -17 -25 -24.5t-30 -7.5h-153zM1178 1329q0 -14 -2 -24.5t-5 -21.5l-62 -202q-5 -15 -15.5 -22.5t-21.5 -7.5t-21.5 7.5t-15.5 22.5l-36 124h-180l-38 -124q-5 -15 -15.5 -22.5t-21.5 -7.5t-21.5 7.5t-15.5 22.5l-36 124h-183l-38 -124q-5 -15 -15.5 -22.5t-22 -7.5
t-22 7.5t-14.5 22.5l-58 201q-6 19 -6 47h866z" />
    <glyph glyph-name="uni0480" unicode="&#x480;" horiz-adv-x="1060" 
d="M921 238v-480q0 -34 -19 -53t-49 -19h-150v309q-20 -2 -39.5 -2.5t-31.5 -0.5q-137 0 -246 49.5t-185.5 139t-117 213t-40.5 271.5q0 149 44 273.5t124 214.5t190.5 140t244.5 50q136 0 240 -47.5t173 -125.5l-88 -123q-9 -11 -20.5 -20t-32.5 -9t-41 16t-49 35t-72.5 35
t-111.5 16q-74 0 -135 -30.5t-105 -89t-68 -143t-24 -192.5q0 -109 25.5 -194t70.5 -143.5t107 -89t135 -30.5q52 0 81.5 4.5t48 10.5t32.5 10.5t35 4.5h74z" />
    <glyph glyph-name="uni0481" unicode="&#x481;" horiz-adv-x="834" 
d="M741 776q-11 -14 -22 -22.5t-31 -8.5q-19 0 -35 11t-35.5 24.5t-46 24.5t-66.5 11q-50 0 -86 -22t-60 -63t-35.5 -100t-11.5 -132q0 -155 50.5 -238.5t138.5 -83.5q30 0 50.5 5t34 11.5t21.5 11.5t14 5h97v-466q0 -35 -20 -55t-51 -20h-160v317q-8 -1 -16.5 -1h-16.5
q-81 0 -154 34.5t-128 100.5t-87.5 161.5t-32.5 217.5q0 109 28 202t83.5 161.5t137 107.5t188.5 39q103 0 180 -36.5t139 -105.5z" />
    <glyph glyph-name="uni0482" unicode="&#x482;" horiz-adv-x="1248" 
d="M724 1114l183 302l214 -140l-192 -319l308 -235l-125 -184l-299 228l-174 -288l313 -239l-126 -183l-302 231l-183 -304l-214 140l193 321l-308 237l125 182l298 -229l174 288l-313 240l127 183z" />
    <glyph glyph-name="uni0483" unicode="&#x483;" horiz-adv-x="0" 
d="M0 1041zM-207 1135v-94h-67q-28 0 -53.5 8.5t-45 25t-31.5 41.5t-12 58q0 36 11 61.5t30.5 42t45.5 24.5t56 8h479v95h67q28 0 53.5 -8.5t45 -25.5t31.5 -42t12 -58q0 -36 -11 -62t-30.5 -42.5t-45.5 -24t-55 -7.5h-480z" />
    <glyph glyph-name="uni0484" unicode="&#x484;" horiz-adv-x="0" 
d="M0 1118zM121 1257q-38 0 -69.5 -10.5t-64 -25.5t-68 -33.5t-79.5 -33.5t-100.5 -25.5t-130.5 -10.5v151q62 0 111 10.5t90.5 26.5t78.5 34t75.5 34t81 26.5t95.5 10.5q74 0 126 -19t85 -56t48 -91.5t15 -126.5h-180q0 42 -9.5 68.5t-25.5 42.5t-36.5 22t-42.5 6z" />
    <glyph glyph-name="uni0485" unicode="&#x485;" horiz-adv-x="0" 
d="M0 1065zM20 1223h-11t-10 1q5 -30 23.5 -45.5t53.5 -23.5q28 -6 39 -15.5t11 -24.5v-49q-63 -1 -110 17t-78 49.5t-46.5 73t-15.5 88.5q0 70 38 109.5t110 39.5q60 0 93 -33t33 -84q0 -20 -6.5 -39t-22 -33t-40.5 -22.5t-61 -8.5z" />
    <glyph glyph-name="uni0486" unicode="&#x486;" horiz-adv-x="0" 
d="M0 1064zM-50 1153q37 8 55.5 23t21.5 47q-5 -1 -10.5 -1.5t-11.5 -0.5q-36 0 -61 8.5t-40 22.5t-21.5 33t-6.5 39q0 51 33 84t93 33q36 0 63.5 -12.5t46.5 -34.5t28.5 -52.5t9.5 -65.5q0 -47 -15.5 -86t-46.5 -67t-78.5 -43.5t-110.5 -15.5v49q0 16 11.5 25t39.5 15z" />
    <glyph glyph-name="uni0488" unicode="&#x488;" horiz-adv-x="2018" 
d="M1008 22q67 0 117 -18.5t83 -51.5t49.5 -79t16.5 -101h-177q0 48 -18 71.5t-71 23.5q-26 0 -43 -6t-27 -17.5t-13.5 -29.5t-3.5 -42h-178q0 55 16.5 101t50 79t83 51.5t115.5 18.5zM1008 1551q67 0 117 -19t83 -52.5t49.5 -79.5t16.5 -100h-177q0 48 -18 71.5t-71 23.5
q-26 0 -43 -6t-27 -17.5t-13.5 -29.5t-3.5 -42h-178q0 54 16.5 100t50 79.5t83 52.5t115.5 19zM240 786q66 0 116 -18.5t83.5 -51.5t50 -79t16.5 -100h-178q0 47 -17.5 71t-70.5 24t-70.5 -24t-17.5 -71h-177q0 54 16.5 100t50 79t83 51.5t115.5 18.5zM1777 786
q66 0 116 -18.5t83.5 -51.5t50 -79t16.5 -100h-178q0 47 -17.5 71t-70.5 24t-70.5 -24t-17.5 -71h-177q0 54 16.5 100t49.5 79t83 51.5t116 18.5zM426 353q67 0 117 -18.5t83 -51.5t49.5 -79t16.5 -101h-177q0 48 -18 71.5t-71 23.5q-26 0 -43 -6t-27 -17.5t-13.5 -29.5
t-3.5 -42h-178q0 55 16.5 101t50 79t83 51.5t115.5 18.5zM1590 353q67 0 117 -18.5t83 -51.5t49.5 -79t16.5 -101h-177q0 48 -18 71.5t-71 23.5q-26 0 -43 -6t-27 -17.5t-13.5 -29.5t-3.5 -42h-178q0 55 16.5 101t50 79t83 51.5t115.5 18.5zM426 1220q67 0 117 -19t83 -52.5
t49.5 -79.5t16.5 -100h-177q0 47 -18 71t-71 24q-26 0 -43 -6t-27 -18t-13.5 -29.5t-3.5 -41.5h-178q0 54 16.5 100t50 79.5t83 52.5t115.5 19zM1590 1220q67 0 117 -19t83 -52.5t49.5 -79.5t16.5 -100h-177q0 47 -18 71t-71 24q-26 0 -43 -6t-27 -18t-13.5 -29.5
t-3.5 -41.5h-178q0 54 16.5 100t50 79.5t83 52.5t115.5 19z" />
    <glyph glyph-name="uni0489" unicode="&#x489;" horiz-adv-x="1944" 
d="M1115 1246q0 -26 -9.5 -48t-27 -38.5t-41.5 -26t-53 -9.5q-35 0 -60.5 12t-42.5 33t-25.5 49t-8.5 59q0 42 13 89.5t38 94.5t62.5 92t85.5 83l40 -35q16 -15 16 -35q0 -8 -5.5 -16.5t-12.5 -15.5q-10 -10 -24 -25.5t-28 -35t-25.5 -43t-17.5 -49.5q56 -2 91 -40t35 -95z
M829 -7q0 25 9.5 47.5t26.5 39t41.5 26t53.5 9.5q35 0 60.5 -12t42.5 -33t25.5 -49t8.5 -59q0 -42 -13 -89.5t-38 -94.5t-62.5 -92.5t-85.5 -82.5l-40 36q-9 8 -12.5 15.5t-3.5 18.5q0 8 5.5 16.5t12.5 15.5q10 10 23.5 25.5t27.5 35t26 43t18 49.5q-57 2 -91.5 40t-34.5 95
zM1314 74q-18 18 -27.5 40.5t-9 46.5t10.5 47.5t31 44.5q25 24 52 33.5t54 6.5t52.5 -16.5t47.5 -35.5q30 -30 54 -72.5t40 -94t22 -109.5t-1 -118l-54 -2q-12 -1 -20 1.5t-16 10.5q-5 5 -8 15t-2 20q-1 14 -2 35t-5 44.5t-12 48t-22 47.5q-42 -38 -93 -35t-92 42zM630 1165
q37 -37 37 -86.5t-42 -91.5q-25 -24 -52 -33.5t-54 -7t-52.5 16t-47.5 35.5q-30 30 -54 72.5t-40 94t-22 109.5t1 118l54 2q12 1 20 -1.5t16 -10.5q5 -5 8 -14.5t3 -20.5q0 -14 1 -35t5 -44.5t12 -48.5t22 -47q42 38 93 35t92 -42zM346 763q26 0 48.5 -9.5t39 -26.5t26 -41
t9.5 -53q0 -35 -12.5 -60.5t-33.5 -42t-49 -25t-59 -8.5q-42 0 -89.5 13t-95.5 38.5t-93 62t-83 84.5l37 39q8 9 15.5 12.5t18.5 3.5q8 0 16.5 -5t16.5 -13q10 -10 25.5 -23.5t35 -27.5t42.5 -26t49 -18q1 28 11.5 51t28.5 39.5t42.5 26t53.5 9.5zM1598 476q-26 0 -48.5 9.5
t-39 26.5t-26 41t-9.5 53q0 34 12.5 60t33.5 42.5t49 25t59 8.5q42 0 89.5 -13t95.5 -38.5t93 -62t83 -84.5l-37 -39q-8 -9 -15.5 -12.5t-18.5 -3.5q-8 0 -16.5 5.5t-16.5 12.5q-10 9 -25.5 23t-35 28t-42.5 25.5t-49 17.5q-1 -28 -11.5 -51t-28.5 -39.5t-43 -25.5t-53 -9z
M427 277q18 18 40.5 27t46.5 8.5t47.5 -10.5t44.5 -30q25 -24 34.5 -51t7 -53.5t-16.5 -52t-36 -47.5q-30 -30 -73 -54t-94.5 -40t-109.5 -22t-119 1l-2 53q-1 12 1.5 20t10.5 16q5 5 15.5 7.5t20.5 2.5q14 0 35 1.5t44.5 5.5t48 12t47.5 23q-38 41 -35.5 91.5t42.5 91.5z
M1517 962q-18 -18 -40.5 -27t-46.5 -8.5t-47.5 10.5t-44.5 30q-25 24 -34.5 51t-7 53.5t16.5 52t36 47.5q30 30 73 54t94.5 40t109.5 22t119 -1l2 -53q1 -12 -1.5 -20t-10.5 -16q-5 -5 -15.5 -7.5t-20.5 -2.5q-15 -1 -35.5 -2t-44.5 -5.5t-49 -12.5t-47 -22q39 -40 36.5 -91
t-42.5 -92z" />
    <glyph glyph-name="uni048A" unicode="&#x48a;" horiz-adv-x="1416" 
d="M865 1247q9 15 21 29.5t26.5 26t31.5 18.5t36 7h198v-1328h24v201h171l-136 -515h-256l89 314h-156v807q0 48 2.5 100.5t10.5 111.5q-20 -52 -42 -97t-42 -78l-447 -762q-9 -15 -21 -29.5t-27 -26.5t-32 -19t-36 -7h-197v1328h264v-806q0 -49 -3 -102.5t-11 -113.5
q19 53 41 99t42 81zM646 1528q36 0 59 6.5t37 23t19.5 44.5t5.5 72h150q26 0 39 -22.5t13 -48.5q0 -50 -23 -87.5t-65.5 -62.5t-102 -38t-132.5 -13t-132.5 13t-102 38t-65.5 62.5t-23 87.5q0 26 13 48.5t39 22.5h150q0 -44 5.5 -72t19.5 -44.5t37 -23t59 -6.5z" />
    <glyph glyph-name="uni048B" unicode="&#x48b;" horiz-adv-x="1206" 
d="M102 -1v993h254v-558q0 -23 -2.5 -50.5t-6.5 -54.5q21 46 44 80q1 2 17.5 25.5t42 60.5t58 84t65.5 95q78 114 177 257q14 23 37.5 42.5t52.5 19.5h155v-806h181l-141 -517h-238l98 330h-154v559q0 22 2.5 49t6.5 55q-21 -47 -44 -79q-2 -2 -18 -26t-41.5 -61t-58 -84
t-65.5 -95q-78 -114 -177 -257q-14 -21 -37.5 -41.5t-52.5 -20.5h-155zM564 1247q36 0 59 7.5t37 25t19.5 46.5t5.5 72h150q26 0 39 -22t13 -48q0 -50 -23 -90t-65.5 -67.5t-102 -42.5t-132.5 -15t-132.5 15t-102 42.5t-65.5 67.5t-23 90q0 26 13 48t39 22h150
q0 -43 5.5 -72t19.5 -46.5t37 -25t59 -7.5z" />
    <glyph glyph-name="uni048C" unicode="&#x48c;" horiz-adv-x="1163" 
d="M447 1328v-171h313v-194h-313v-179h199q130 0 222 -29t150 -78.5t84.5 -116.5t26.5 -142q0 -95 -32.5 -172t-94.5 -132t-151.5 -84.5t-204.5 -29.5h-462v963h-174v194h174v171h263zM447 580v-376h199q65 0 108.5 15t69 40.5t36 59.5t10.5 72q0 43 -10.5 78t-36 59.5
t-69 38t-108.5 13.5h-199z" />
    <glyph glyph-name="uni048D" unicode="&#x48d;" horiz-adv-x="1031" 
d="M421 1017v-112h211v-179h-211v-96h177q107 0 181 -25t120 -68t66.5 -99t20.5 -118q0 -71 -25.5 -129.5t-75 -101t-121 -66t-163.5 -23.5h-421v726h-168v179h168v112h241zM421 450v-270h179q81 0 121 39t40 99q0 26 -9 50t-28.5 42t-50.5 29t-74 11h-178z" />
    <glyph glyph-name="uni048E" unicode="&#x48e;" horiz-adv-x="1090" 
d="M378 461v-461h-263v1328h427q129 0 222 -32t154 -88.5t90 -134.5t29 -171q0 -123 -47.5 -218.5t-145.5 -152.5l81 -124l-166 -105l-108 166q-26 -4 -53 -5.5t-56 -1.5h-164zM598 912l119 -184q29 31 43 74.5t14 99.5q0 103 -57 163.5t-175 60.5h-164v-461h146l-92 143z
" />
    <glyph glyph-name="uni048F" unicode="&#x48f;" horiz-adv-x="1099" 
d="M123 -322v1315h156q24 0 40.5 -11t21.5 -34l21 -87q30 33 63 61t71.5 48t83 31t96.5 11q79 0 145 -34t114 -98.5t74.5 -159.5t26.5 -216q0 -143 -48 -256.5t-135 -182.5l93 -143l-166 -105l-111 172q-13 -2 -26.5 -3t-27.5 -1q-81 0 -137 24.5t-101 66.5v-398h-254z
M619 427l103 -159q25 40 38.5 98.5t13.5 137.5q0 84 -13 142.5t-37 95t-58 53t-77 16.5q-71 0 -120 -28.5t-92 -82.5v-440q37 -45 79.5 -63.5t90.5 -19.5l-94 146z" />
    <glyph glyph-name="uni0490" unicode="&#x490;" horiz-adv-x="889" 
d="M842 1127h-476v-1127h-264v1328h538v294h202v-495z" />
    <glyph glyph-name="uni0491" unicode="&#x491;" horiz-adv-x="752" 
d="M734 1230v-424h-373v-806h-254v993h397v237h230z" />
    <glyph glyph-name="uni0492" unicode="&#x492;" horiz-adv-x="903" 
d="M889 1127h-474v-352h281v-193h-281v-582h-264v582h-144v193h144v553h738v-201z" />
    <glyph glyph-name="uni0493" unicode="&#x493;" horiz-adv-x="774" 
d="M145 581v412h612v-187h-358v-225h163v-179h-163v-402h-254v402h-137v179h137z" />
    <glyph glyph-name="uni0494" unicode="&#x494;" horiz-adv-x="1135" 
d="M564 -113q60 0 109 20t84 63.5t54 112t19 164.5q0 103 -20.5 171.5t-57.5 109t-88.5 57.5t-112.5 17q-57 0 -96 -14.5t-71 -34.5v-553h-264v1328h800v-201h-536v-385q50 23 103 35t115 12q93 0 179 -27.5t152 -89.5t105 -164t39 -250q0 -137 -35 -245.5t-99 -184.5
t-153 -116.5t-198 -40.5q-96 0 -196 25q4 38 7.5 77.5t6.5 77.5q3 22 17 35t40 13q15 0 38.5 -6t58.5 -6z" />
    <glyph glyph-name="uni0495" unicode="&#x495;" horiz-adv-x="935" 
d="M750 993v-187h-384v-281q39 29 84.5 44t99.5 15q82 0 143.5 -32t102.5 -89.5t61 -137.5t20 -176q0 -113 -28.5 -205t-78.5 -156.5t-117.5 -99.5t-146.5 -35q-38 0 -74.5 4t-76.5 15q2 19 3.5 34t3 28.5t3.5 28.5t4 34q2 21 15 33.5t38 12.5q11 0 25 -3t31 -3
q32 0 58.5 14t45.5 48.5t29.5 92.5t10.5 145q0 78 -10.5 128t-30 79.5t-47.5 40.5t-64 11q-34 0 -57.5 -11.5t-46.5 -28.5v-356h-254v993h638z" />
    <glyph glyph-name="uni0496" unicode="&#x496;" horiz-adv-x="1818" 
d="M1680 1328l-260 -508q-24 -43 -50.5 -71.5t-63.5 -44.5q45 -18 81 -52t68 -91l260 -561h-174q-56 0 -96 24.5t-65 66.5l-184 415q-20 41 -45.5 57t-61.5 16h-113v-579h-244v579h-112q-36 0 -61.5 -16.5t-46.5 -57.5l-182 -414q-25 -42 -66 -66.5t-97 -24.5h-176l262 561
q32 57 68 91t82 52q-38 16 -64 44.5t-50 71.5l-261 508h208q39 0 72.5 -18.5t53.5 -53.5l186 -414q20 -40 42.5 -52.5t51.5 -12.5h90v551h244v-551h90q30 0 53.5 12.5t41.5 51.5l187 414q20 35 53 54t72 19h207zM1722 0l-56 201h224v-441q0 -33 -23 -53.5t-60 -20.5h-157
v314h72z" />
    <glyph glyph-name="uni0497" unicode="&#x497;" horiz-adv-x="1598" 
d="M1170 926q17 31 45.5 49t63.5 18h200l-206 -366q-23 -39 -47 -63t-58 -38q47 -15 76.5 -43.5t52.5 -72.5l112 -223h202v-442q0 -35 -20.5 -55t-51.5 -20h-159v330h-53q-66 0 -101 20.5t-57 64.5l-117 269q-15 35 -42.5 52t-62.5 17h-65v-423h-246v423h-65q-35 0 -62 -17
t-43 -53l-116 -267q-11 -22 -25 -38.5t-32.5 -27t-43.5 -15.5t-59 -5h-174l206 410q23 44 52.5 72.5t76.5 43.5q-34 14 -58 38t-47 63l-206 366h200q35 0 63.5 -17.5t45.5 -48.5l139 -279q16 -31 37 -45.5t59 -14.5h52v405h246v-405h49q38 0 61 14.5t38 45.5z" />
    <glyph glyph-name="uni0498" unicode="&#x498;" horiz-adv-x="987" 
d="M350 -174q5 0 9.5 -2t11.5 -4.5t17.5 -4.5t27.5 -2q42 0 63 26t21 62q0 25 -8 48t-34 37q-61 1 -122.5 15t-118 38t-106.5 57.5t-87 74.5l82 132q10 16 26 25t34 9q25 0 52.5 -19.5t63 -42.5t83 -42.5t113.5 -19.5q94 0 147 51.5t53 164.5q0 46 -15.5 82t-44 61
t-67.5 38.5t-85 13.5l-176 -1l-1 221h153q106 0 156.5 46t50.5 132q0 76 -47 121.5t-141 45.5q-54 0 -95 -15t-72 -32.5t-54.5 -32.5t-42.5 -15q-21 0 -35.5 10t-25.5 31l-69 130q70 70 173 109t224 39q102 0 184.5 -27t140 -75.5t88.5 -116t31 -148.5q0 -99 -38 -180
t-121 -131q42 -24 76.5 -54.5t59.5 -67.5t39 -80.5t14 -91.5q0 -83 -24 -157t-69.5 -132.5t-112.5 -99t-153 -56.5q48 -26 74 -63.5t26 -81.5q0 -40 -14.5 -74t-41.5 -58.5t-66 -38.5t-87 -14q-54 0 -102 14t-80 35l38 94q7 17 24 17z" />
    <glyph glyph-name="uni0499" unicode="&#x499;" horiz-adv-x="874" 
d="M305 -174q5 0 9.5 -2t11.5 -4.5t17.5 -4.5t27.5 -2q42 0 63 26t21 62q0 25 -8 47.5t-32 36.5h-10q-42 0 -90.5 7.5t-98 26.5t-98 50.5t-89.5 79.5l73 94q18 23 47 23q23 0 43.5 -14t46 -30.5t60.5 -30.5t89 -14q85 0 127.5 38.5t42.5 96.5q0 56 -45 88t-146 32h-112v165
h112q90 0 137.5 30.5t47.5 81.5q0 48 -41.5 77.5t-122.5 29.5q-50 0 -84.5 -10t-59 -22t-42 -22t-33.5 -10q-18 0 -30.5 6.5t-26.5 28.5l-57 98q57 55 140 89.5t201 34.5q92 0 164 -22t121.5 -59.5t75.5 -86t26 -100.5q0 -28 -8.5 -58.5t-27 -59t-49 -53.5t-74.5 -42
q79 -31 127.5 -90t48.5 -148q0 -58 -21.5 -105.5t-58.5 -84.5t-87 -62.5t-106 -38.5q51 -25 79 -64t28 -84q0 -40 -14.5 -74t-41.5 -58.5t-66 -38.5t-87 -14q-54 0 -102 14t-80 35l38 94q7 17 24 17z" />
    <glyph glyph-name="uni049A" unicode="&#x49a;" horiz-adv-x="1268" 
d="M382 777h102q31 0 54.5 12.5t42.5 47.5l223 422q19 30 44.5 49.5t61.5 19.5h225l-294 -530q-21 -35 -50 -57.5t-64 -36.5q55 -16 92.5 -50.5t72.5 -95.5l174 -357h214v-441q0 -33 -23 -53.5t-60 -20.5h-157v314h-115q-35 0 -59.5 19.5t-46.5 55.5l-206 439
q-20 38 -44.5 51.5t-62.5 13.5h-124v-579h-264v1328h264v-551z" />
    <glyph glyph-name="uni049B" unicode="&#x49b;" horiz-adv-x="1099" 
d="M671 926q18 31 50 49t67 18h200l-208 -366q-23 -39 -47.5 -63t-58.5 -38q47 -15 76.5 -43.5t53.5 -72.5l113 -223h186v-442q0 -35 -20.5 -55t-50.5 -20h-160v330h-36q-67 0 -104 22.5t-59 65.5l-122 266q-15 35 -43 52t-63 17h-78v-423h-254v993h254v-405h66
q38 0 58.5 14.5t36.5 45.5z" />
    <glyph glyph-name="uni049C" unicode="&#x49c;" horiz-adv-x="1203" 
d="M612 783q16 5 28.5 17.5t22.5 35.5l184 423q17 32 43 50.5t62 18.5h217l-261 -530q-19 -35 -45 -57.5t-58 -36.5q54 -15 91.5 -49.5t69.5 -96.5l231 -558h-237q-70 0 -107 75l-164 439q-14 32 -32.5 45.5t-44.5 17.5v-225h-184v227h-67v-579h-263v1328h263v-551h67v257
h184v-251z" />
    <glyph glyph-name="uni049D" unicode="&#x49d;" horiz-adv-x="1083" 
d="M742 927q7 16 20 28t29 20.5t34 13t35 4.5h201l-173 -366q-20 -40 -44 -64t-58 -37q47 -15 76 -43t49 -73l173 -410h-175q-67 0 -109 19.5t-58 65.5l-83 269q-8 26 -25.5 41t-40.5 22v-238h-170v244h-54v-423h-254v993h254v-405h54v216h170v-206q29 13 44 51z" />
    <glyph glyph-name="uni049E" unicode="&#x49e;" horiz-adv-x="1180" 
d="M420 1157h200v-194h-200v-186h102q31 0 54.5 12.5t42.5 47.5l223 422q19 30 44.5 49.5t61.5 19.5h225l-294 -530q-21 -35 -50 -57.5t-64 -36.5q55 -16 92.5 -50.5t72.5 -95.5l273 -558h-240q-35 0 -59.5 19.5t-46.5 55.5l-206 439q-20 38 -44.5 51.5t-62.5 13.5h-124
v-579h-264v963h-149v194h149v171h264v-171z" />
    <glyph glyph-name="uni049F" unicode="&#x49f;" horiz-adv-x="1047" 
d="M158 905v88h254v-88h142v-179h-142v-138h64q38 0 58.5 14.5t35.5 45.5l140 279q17 30 48.5 48t66.5 18h200l-204 -366q-23 -39 -47 -63t-58 -38q47 -15 76 -43.5t52 -72.5l205 -410h-176q-67 0 -103.5 22.5t-58.5 64.5l-118 267q-16 35 -43 52t-62 17h-76v-423h-254v726
h-148v179h148z" />
    <glyph glyph-name="uni04A0" unicode="&#x4a0;" horiz-adv-x="1323" 
d="M15 1328h571v-551h93q29 0 49.5 12t37.5 47l196 423q19 29 45 49t62 20h223l-266 -530q-20 -35 -48 -57.5t-61 -36.5q54 -16 91 -50.5t70 -95.5l243 -558h-239q-36 0 -59.5 20t-43.5 55l-180 439q-18 38 -41 51.5t-57 13.5h-115v-579h-263v1119h-308v209z" />
    <glyph glyph-name="uni04A1" unicode="&#x4a1;" horiz-adv-x="1165" 
d="M5 993h530v-405h63q38 0 58 14.5t35 45.5l138 279q17 30 48.5 48t66.5 18h200l-202 -366q-23 -39 -46.5 -63t-57.5 -38q46 -15 75 -43.5t52 -72.5l203 -410h-176q-67 0 -103.5 22.5t-58.5 64.5l-116 267q-31 69 -104 69h-75v-423h-254v803h-276v190z" />
    <glyph glyph-name="uni04A2" unicode="&#x4a2;" horiz-adv-x="1378" 
d="M903 0v575h-529v-575h-264v1328h264v-567h529v567h264v-1127h169v-441q0 -33 -23.5 -53.5t-59.5 -20.5h-158v314h-192z" />
    <glyph glyph-name="uni04A3" unicode="&#x4a3;" horiz-adv-x="1172" 
d="M973 993v-806h177v-442q0 -35 -20 -55t-52 -20h-159v330h-200v434h-345v-434h-254v993h254v-372h345v372h254z" />
    <glyph glyph-name="uni04A4" unicode="&#x4a4;" horiz-adv-x="1490" 
d="M1450 1127h-417v-1127h-264v575h-421v-575h-264v1328h264v-567h421v567h681v-201z" />
    <glyph glyph-name="uni04A5" unicode="&#x4a5;" horiz-adv-x="1269" 
d="M357 993v-372h282v372h613v-187h-359v-806h-254v434h-282v-434h-254v993h254z" />
    <glyph glyph-name="uni04A6" unicode="&#x4a6;" horiz-adv-x="1880" 
d="M1321 -113q58 0 105 20t81 63.5t52.5 112t18.5 164.5q0 103 -20 171.5t-56 109t-85.5 57.5t-108.5 17q-54 0 -90 -14t-67 -33v-555h-264v1127h-508v-1127h-264v1328h1036v-585q48 23 99 34.5t110 11.5q91 0 175 -27.5t148 -89.5t102.5 -164t38.5 -250
q0 -137 -34.5 -245.5t-96.5 -185t-149.5 -117t-193.5 -40.5q-94 0 -193 25q5 38 8 77.5t6 78.5q3 21 17 34t40 13q15 0 38 -5.5t55 -5.5z" />
    <glyph glyph-name="uni04A7" unicode="&#x4a7;" horiz-adv-x="1524" 
d="M1061 -163q33 0 60.5 14t47 48.5t30.5 92.5t11 145q0 78 -11 128t-31 79.5t-49 40.5t-66 11q-35 0 -59.5 -11.5t-48.5 -29.5v-355h-254v806h-323v-806h-254v993h831v-470q40 29 86 45t102 16q83 0 145.5 -32t104 -89.5t62 -137.5t20.5 -176q0 -113 -29 -205t-79.5 -156.5
t-119 -99.5t-148.5 -35q-39 0 -75.5 4t-77.5 15q2 19 3.5 33.5t3.5 28.5t3.5 28.5t3.5 34.5q2 21 15.5 33.5t38.5 12.5q11 0 25.5 -3t31.5 -3z" />
    <glyph glyph-name="uni04A8" unicode="&#x4a8;" horiz-adv-x="1351" 
d="M1346 23q-52 -18 -113 -26t-120 -8q-55 0 -115 13t-120 42q-119 -58 -252 -58q-132 0 -240 50.5t-184.5 141t-118 215t-41.5 272.5q0 149 41.5 273.5t121.5 214t197.5 139t269.5 49.5q29 0 53.5 -2t48 -6t47.5 -10.5t51 -15.5l-14 -98q-3 -19 -10 -37t-17.5 -32.5
t-23.5 -23t-28 -8.5q-14 0 -27 2t-29 4t-35.5 4t-46.5 2q-73 0 -133.5 -30.5t-104 -89t-67.5 -143t-24 -192.5q0 -109 24 -194t69 -143.5t109 -89t144 -30.5h13.5t12.5 1q-52 72 -83 173t-31 235q0 96 20 171.5t60 128.5t100.5 81t140.5 28q85 0 146.5 -32t101 -88
t58 -131.5t18.5 -161.5q0 -126 -39 -231.5t-107 -186.5q17 -3 31 -3.5t25 -0.5q44 0 72 5.5t54 5.5q30 0 53 -21.5t28 -60.5zM800 609q0 -114 24 -188.5t61 -121.5q51 56 74.5 135.5t23.5 172.5q0 38 -3.5 78t-13 73t-27 54t-45.5 21q-42 0 -68 -54.5t-26 -169.5z" />
    <glyph glyph-name="uni04A9" unicode="&#x4a9;" horiz-adv-x="1155" 
d="M1142 6q-29 -10 -69 -15.5t-84 -5.5q-67 0 -127 13t-114 38q-55 -25 -114.5 -38t-120.5 -13q-92 0 -174.5 34.5t-144.5 100.5t-98.5 161.5t-36.5 217.5q0 109 30 202t89 161.5t146 107.5t201 39q38 0 77.5 -6t76.5 -20l-15 -105q-6 -41 -25 -53t-51 -12q-10 1 -23 2
t-24 1q-57 0 -98.5 -22t-69 -63t-41 -100t-13.5 -132q0 -77 17 -138.5t50 -104.5t81.5 -66t111.5 -23h1q-52 65 -80.5 146.5t-28.5 176.5q0 75 22 133.5t62 98.5t95.5 61t123.5 21t125 -23.5t98.5 -65.5t64.5 -99t23 -123q0 -90 -39 -173t-105 -150q21 -3 42 -3q23 0 35.5 3
t24.5 4q41 0 60 -15t25 -56zM708 486q0 -66 19 -123.5t54 -101.5q33 42 50 97t17 118q0 62 -18 95.5t-53 33.5t-52 -31.5t-17 -87.5z" />
    <glyph glyph-name="uni04AA" unicode="&#x4aa;" horiz-adv-x="1084" 
d="M472 -174q5 0 9.5 -2t11.5 -4.5t17.5 -4.5t27.5 -2q42 0 63 26t21 62q0 26 -8.5 49.5t-36.5 37.5q-125 9 -224 62.5t-168 143t-106 210t-37 261.5q0 149 43.5 273.5t122.5 214.5t189 140t242 50q134 0 237 -47.5t172 -125.5l-88 -123q-9 -11 -20.5 -20t-32.5 -9t-40.5 16
t-48 35t-71.5 35t-110 16q-73 0 -133 -30.5t-103 -89t-66.5 -143t-23.5 -192.5q0 -109 26 -194t70.5 -143.5t104.5 -89t129 -30.5q41 0 74 4.5t61.5 16t53.5 29.5t50 45q10 8 20.5 13.5t21.5 5.5q21 0 36 -16l105 -113q-62 -87 -149.5 -137.5t-204.5 -64.5q45 -26 68.5 -62
t23.5 -78q0 -40 -14.5 -74t-41.5 -58.5t-66 -38.5t-87 -14q-54 0 -102 14t-80 35l38 94q7 17 24 17z" />
    <glyph glyph-name="uni04AB" unicode="&#x4ab;" horiz-adv-x="857" 
d="M371 -174q5 0 9.5 -2t11.5 -4.5t17.5 -4.5t27.5 -2q42 0 63 26t21 62q0 25 -8 47.5t-32 36.5h-14q-84 0 -158.5 34.5t-131 100.5t-89.5 161.5t-33 217.5q0 109 29 202t85.5 161.5t140 107.5t193.5 39q104 0 183 -36.5t142 -105.5l-67 -91q-11 -14 -22 -22.5t-31 -8.5
q-19 0 -35 11t-36.5 24.5t-48 24.5t-69.5 11q-52 0 -90.5 -22t-63.5 -63t-37.5 -100t-12.5 -132q0 -155 53 -238.5t146 -83.5q49 0 78 14t49 30.5t36.5 30.5t39.5 14q29 0 45 -23l74 -94q-54 -65 -116 -100t-127 -50q51 -25 79 -64t28 -84q0 -40 -14.5 -74t-41.5 -58.5
t-66 -38.5t-87 -14q-54 0 -102 14t-80 35l38 94q7 17 24 17z" />
    <glyph glyph-name="uni04AC" unicode="&#x4ac;" horiz-adv-x="1014" 
d="M996 1328v-214h-358v-913h169v-441q0 -33 -23 -53.5t-60 -20.5h-158v314h-190v1114h-358v214h978z" />
    <glyph glyph-name="uni04AD" unicode="&#x4ad;" horiz-adv-x="797" 
d="M10 993h777v-187h-261v-619h147v-442q0 -35 -20 -55t-51 -20h-159v330h-171v806h-262v187z" />
    <glyph glyph-name="uni04AE" unicode="&#x4ae;" horiz-adv-x="1064" 
d="M0 0zM662 512v-512h-260v514l-417 814h233q32 0 52 -16t33 -42l164 -429q21 -40 37.5 -75t29.5 -70q11 35 27 70t36 74l163 430q11 21 32 39.5t54 18.5h233z" />
    <glyph glyph-name="uni04AF" unicode="&#x4af;" horiz-adv-x="975" 
d="M615 76v-398h-254v396l-350 919h210q29 0 47 -13.5t26 -33.5l147 -461q17 -45 28.5 -88t20.5 -86q9 43 21.5 86t29.5 88l154 462q7 19 25 32.5t43 13.5h201z" />
    <glyph glyph-name="uni04B0" unicode="&#x4b0;" horiz-adv-x="1064" 
d="M402 534v54l-417 740h233q32 0 51.5 -16t33.5 -41l167 -383q21 -36 37 -65.5t28 -57.5q11 28 26.5 57.5t35.5 64.5l163 383q11 20 32 39t54 19h233l-417 -742v-52h229v-194h-229v-340h-260v340h-229v194h229z" />
    <glyph glyph-name="uni04B1" unicode="&#x4b1;" horiz-adv-x="975" 
d="M615 76v-58h205v-179h-205v-161h-254v161h-145v179h145v56l-350 919h210q29 0 47 -13.5t26 -33.5l147 -461q17 -45 28.5 -88t20.5 -86q9 43 21.5 86t29.5 88l154 462q7 19 25 32.5t43 13.5h201z" />
    <glyph glyph-name="uni04B2" unicode="&#x4b2;" horiz-adv-x="1239" 
d="M778 695l268 -494h188v-441q0 -33 -23 -53.5t-60 -20.5h-157v314h-100q-27 0 -42.5 13.5t-26.5 30.5l-241 479q-2 -5 -5 -9.5t-5 -9.5l-224 -459q-11 -17 -25 -31t-37 -14h-247l379 683l-365 645h264q26 0 37.5 -6.5t21.5 -22.5l240 -461l16 29l210 427q11 17 23 25.5
t29 8.5h251z" />
    <glyph glyph-name="uni04B3" unicode="&#x4b3;" horiz-adv-x="1026" 
d="M678 525l186 -338h166v-442q0 -35 -20.5 -55t-51.5 -20h-159v330h-76q-27 0 -44 14.5t-27 31.5l-158 315q-4 -11 -8.5 -21t-9.5 -18l-125 -276q-11 -17 -26.5 -31.5t-40.5 -14.5h-226l288 512l-276 481h244q27 0 39.5 -7.5t22.5 -24.5l157 -304q5 12 11 24.5t14 25.5
l108 250q22 36 56 36h233z" />
    <glyph glyph-name="uni04B4" unicode="&#x4b4;" horiz-adv-x="1541" 
d="M17 1328h927v-209h-332v-918h463v1127h263v-1127h162v-441q0 -33 -23 -53.5t-58 -20.5h-159v314h-912v1119h-331v209z" />
    <glyph glyph-name="uni04B5" unicode="&#x4b5;" horiz-adv-x="1254" 
d="M5 993h710v-190h-191v-616h293v806h254v-806h164v-442q0 -35 -20.5 -55t-50.5 -20h-160v330h-734v803h-265v190z" />
    <glyph glyph-name="uni04B6" unicode="&#x4b6;" horiz-adv-x="1227" 
d="M1038 201h158v-441q0 -33 -23 -53.5t-61 -20.5h-157v314h-180v522q-99 -26 -190 -38t-169.5 -6.5t-142 30.5t-108.5 74.5t-69.5 125.5t-24.5 182v438h264v-439q0 -73 19 -123t68.5 -74t135 -21t217.5 36v621h263v-1127z" />
    <glyph glyph-name="uni04B7" unicode="&#x4b7;" horiz-adv-x="1086" 
d="M887 187h177v-442q0 -35 -20 -55t-52 -20h-158v330h-201v383q-125 -31 -229.5 -34t-181 28.5t-119 101t-42.5 184.5v330h254v-291q0 -59 16.5 -95.5t54 -53t98 -14.5t149.5 20v434h254v-806z" />
    <glyph glyph-name="uni04B8" unicode="&#x4b8;" horiz-adv-x="1166" 
d="M90 1328h264v-439q0 -52 9 -92t31.5 -68t60 -43t94.5 -16v281h183v-258q14 3 29.5 6t32.5 8v621h263v-1328h-263v522q-30 -9 -62 -15v-238h-183v209q-102 -8 -186.5 9t-145 65t-94 130.5t-33.5 207.5v438z" />
    <glyph glyph-name="uni04B9" unicode="&#x4b9;" horiz-adv-x="1030" 
d="M906 0h-254v383q-36 -9 -74 -15v-189h-170v170q-78 -1 -142 16t-109 55t-69.5 98t-24.5 145v330h254v-291q0 -64 21.5 -102t69.5 -52v256h170v-258l74 13v434h254v-993z" />
    <glyph glyph-name="uni04BA" unicode="&#x4ba;" horiz-adv-x="1166" 
d="M116 1328h264v-523q152 39 278.5 46.5t218 -31t142 -130t50.5 -250.5v-440h-263v440q0 73 -15.5 122.5t-61.5 73.5t-129.5 21t-219.5 -37v-620h-264v1328z" />
    <glyph glyph-name="uni04BB" unicode="&#x4bb;" horiz-adv-x="1030" 
d="M124 993h254v-384q127 31 235 34.5t187 -28t123 -101t44 -183.5v-331h-254v291q0 58 -18 95t-58 53.5t-104 14.5t-155 -20v-434h-254v993z" />
    <glyph glyph-name="uni04BC" unicode="&#x4bc;" horiz-adv-x="1597" 
d="M334 796q16 117 66.5 218t131.5 175t190.5 116.5t243.5 42.5q126 0 232 -40t182.5 -117t119.5 -189t43 -255q0 -39 -3.5 -63.5t-12 -39t-23.5 -20t-38 -5.5h-865q17 -206 122 -306t289 -100q76 0 132.5 18.5t100.5 41t78 41t65 18.5q20 0 36 -7.5t27 -21.5l79 -99
q-57 -65 -123.5 -107.5t-137.5 -67t-144 -34.5t-143 -10q-129 0 -243 40.5t-201 120.5t-142 198.5t-66 274.5h-1q-59 0 -115 10.5t-99.5 38t-70 75.5t-26.5 124q0 40 9 77.5t29 84.5l139 -27q29 -5 40.5 -22.5t11.5 -31.5t-5.5 -33t-5.5 -42q0 -43 25.5 -60t71.5 -17h1z
M965 1131q-78 0 -140 -23.5t-107 -67.5t-73.5 -106t-39.5 -138h684q0 73 -21.5 134.5t-62.5 106t-101.5 69.5t-138.5 25z" />
    <glyph glyph-name="uni04BD" unicode="&#x4bd;" horiz-adv-x="1285" 
d="M780 1009q96 0 177 -30.5t139.5 -88t91.5 -141.5t33 -192q0 -29 -3 -47.5t-9.5 -29.5t-18 -15.5t-28.5 -4.5h-616q13 -145 84 -212t185 -67q57 0 99 13.5t73.5 29t56 29t47.5 13.5q29 0 47 -23l72 -94q-41 -48 -92 -79.5t-105.5 -50t-111 -26.5t-109.5 -8
q-99 0 -186 30.5t-153 90.5t-107.5 148.5t-50.5 205.5q-57 1 -108.5 9t-90.5 32t-62 68t-23 117q0 42 9.5 82t31.5 89l95 -21q30 -7 39.5 -23t9.5 -31t-6 -34.5t-6 -46.5q0 -44 27 -65.5t90 -23.5q14 84 53.5 157t100.5 126t143 83.5t182 30.5zM785 828q-102 0 -159.5 -56.5
t-74.5 -159.5h442q0 43 -12.5 82t-38 69t-65 47.5t-92.5 17.5z" />
    <glyph glyph-name="uni04BE" unicode="&#x4be;" horiz-adv-x="1597" 
d="M966 1348q126 0 232 -40t182.5 -117t119.5 -189t43 -255q0 -39 -3.5 -63.5t-12 -39t-23.5 -20t-38 -5.5h-865q17 -206 122 -306t289 -100q76 0 132.5 18.5t100.5 41t78 41t65 18.5q20 0 36 -7.5t27 -21.5l79 -99q-44 -50 -94 -86.5t-103 -61.5t-109 -40t-111 -22v-300
h-241v299q-110 16 -204.5 63.5t-166 126.5t-116.5 188t-55 248h-1q-59 0 -115 10.5t-99.5 38t-70 75.5t-26.5 124q0 40 9 77.5t29 84.5l139 -27q29 -5 40.5 -22.5t11.5 -31.5t-5.5 -33t-5.5 -42q0 -43 25.5 -60t71.5 -17h1q16 117 66.5 218t131.5 175t190.5 116.5
t243.5 42.5zM965 1131q-78 0 -140 -23.5t-107 -67.5t-73.5 -106t-39.5 -138h684q0 73 -21.5 134.5t-62.5 106t-101.5 69.5t-138.5 25z" />
    <glyph glyph-name="uni04BF" unicode="&#x4bf;" horiz-adv-x="1285" 
d="M780 1009q96 0 177 -30.5t139.5 -88t91.5 -141.5t33 -192q0 -29 -3 -47.5t-9.5 -29.5t-18 -15.5t-28.5 -4.5h-616q13 -145 84 -212t185 -67q57 0 99 13.5t73.5 29t56 29t47.5 13.5q29 0 47 -23l72 -94q-31 -36 -67 -62.5t-75.5 -45t-81 -30.5t-83.5 -18v-248
q0 -35 -20 -55t-52 -20h-158v327q-77 16 -143 53t-116 95.5t-81 137t-38 177.5q-57 1 -108.5 9t-90.5 32t-62 68t-23 117q0 42 9.5 82t31.5 89l95 -21q30 -7 39.5 -23t9.5 -31t-6 -34.5t-6 -46.5q0 -44 27 -65.5t90 -23.5q14 84 53.5 157t100.5 126t143 83.5t182 30.5z
M785 828q-102 0 -159.5 -56.5t-74.5 -159.5h442q0 43 -12.5 82t-38 69t-65 47.5t-92.5 17.5z" />
    <glyph glyph-name="uni04C0" unicode="&#x4c0;" horiz-adv-x="546" 
d="M141 0zM405 0h-264v1328h264v-1328z" />
    <glyph glyph-name="uni04C1" unicode="&#x4c1;" horiz-adv-x="1705" 
d="M0 0zM234 1328q39 0 72.5 -18.5t53.5 -53.5l186 -414q20 -40 42.5 -52.5t51.5 -12.5h90v551h244v-551h90q30 0 53.5 12.5t41.5 51.5l187 414q20 35 53 54t72 19h207l-260 -508q-24 -43 -50.5 -71.5t-63.5 -44.5q45 -18 81 -52t68 -91l260 -561h-174q-56 0 -96 24.5
t-65 66.5l-184 415q-20 41 -45.5 57t-61.5 16h-113v-579h-244v579h-112q-36 0 -61.5 -16.5t-46.5 -57.5l-182 -414q-25 -42 -66 -66.5t-97 -24.5h-176l262 561q32 57 68 91t82 52q-38 16 -64 44.5t-50 71.5l-261 508h208zM854 1528q36 0 59 6.5t37 23t19.5 44.5t5.5 72h150
q26 0 39 -22.5t13 -48.5q0 -50 -23 -87.5t-65.5 -62.5t-102 -38t-132.5 -13t-132.5 13t-102 38t-65.5 62.5t-23 87.5q0 26 13 48.5t39 22.5h150q0 -44 5.5 -72t19.5 -44.5t37 -23t59 -6.5z" />
    <glyph glyph-name="uni04C2" unicode="&#x4c2;" horiz-adv-x="1509" 
d="M11 0zM483 648q16 -31 37 -45.5t59 -14.5h52v405h246v-405h49q38 0 61 14.5t38 45.5l140 278q17 31 45.5 49t63.5 18h200l-206 -366q-23 -39 -47 -63t-58 -38q47 -15 76.5 -43.5t52.5 -72.5l207 -410h-177q-66 0 -101 20.5t-57 64.5l-117 269q-15 35 -42.5 52t-62.5 17
h-65v-423h-246v423h-65q-35 0 -62 -17t-43 -53l-116 -267q-11 -22 -25 -38.5t-32.5 -27t-43.5 -15.5t-59 -5h-174l206 410q23 44 52.5 72.5t76.5 43.5q-34 14 -58 38t-47 63l-206 366h200q35 0 63.5 -17.5t45.5 -48.5zM754 1247q36 0 59 7.5t37 25t19.5 46.5t5.5 72h150
q26 0 39 -22t13 -48q0 -50 -23 -90t-65.5 -67.5t-102 -42.5t-132.5 -15t-132.5 15t-102 42.5t-65.5 67.5t-23 90q0 26 13 48t39 22h150q0 -43 5.5 -72t19.5 -46.5t37 -25t59 -7.5z" />
    <glyph glyph-name="uni04C3" unicode="&#x4c3;" horiz-adv-x="1196" 
d="M646 -107q53 0 97 18.5t75 59.5t48 105t17 156q0 108 -22.5 175.5t-60 106t-87.5 52t-104 13.5h-241v-579h-263v1328h263v-551h105q32 0 55.5 12.5t43.5 47.5l229 422q19 30 44.5 49.5t62.5 19.5h224l-300 -530q-22 -35 -53 -60q70 -12 133.5 -43t111.5 -88.5t76.5 -146
t28.5 -214.5q0 -132 -31.5 -237.5t-91 -179t-143.5 -112.5t-189 -39q-47 0 -91.5 6t-93.5 18q4 39 7.5 78t5.5 78q2 21 16.5 34.5t40.5 13.5q14 0 36 -6.5t51 -6.5z" />
    <glyph glyph-name="uni04C4" unicode="&#x4c4;" horiz-adv-x="1040" 
d="M570 -163q33 0 60.5 16.5t47.5 54t31 98t11 148.5q0 78 -11 129.5t-31.5 82.5t-49.5 44t-66 13h-194v-423h-254v993h254v-405h65q38 0 58 14.5t36 45.5l141 278q18 31 49.5 49t66.5 18h200l-205 -366q-17 -29 -34 -49t-38 -34q134 -20 200 -122t66 -276
q0 -111 -28.5 -202t-79 -155.5t-119 -100t-148.5 -35.5q-39 0 -75.5 4t-77.5 15q2 19 3.5 33.5t3.5 28.5t3.5 28.5t3.5 34.5q2 21 16 33.5t38 12.5q11 0 25.5 -3t31.5 -3z" />
    <glyph glyph-name="uni04C5" unicode="&#x4c5;" horiz-adv-x="1368" 
d="M1147 201h164l-131 -515h-255l84 314h-126v1127h-300q-12 -248 -34.5 -429t-54 -307.5t-71 -205.5t-87 -123t-102 -59.5t-114.5 -15.5q-69 0 -99 12.5t-30 35.5v164h68q27 0 56 10t58 47t55.5 109.5t48 198t37 312.5t21.5 452h812v-1127z" />
    <glyph glyph-name="uni04C6" unicode="&#x4c6;" horiz-adv-x="1143" 
d="M955 187h167l-131 -517h-238l88 330h-140v800h-181q-11 -181 -33.5 -312t-53 -221.5t-69 -145.5t-81 -85t-89 -40t-93.5 -10q-57 0 -81.5 9.5t-24.5 27.5v156h55q28 0 55.5 9.5t53.5 39t49.5 84t43 145t34 222t23.5 314.5h646v-806z" />
    <glyph glyph-name="uni04C7" unicode="&#x4c7;" horiz-adv-x="1292" 
d="M1179 119q0 -103 -26 -186t-77.5 -141.5t-129.5 -90t-182 -31.5q-92 0 -191 25q4 38 7.5 77.5t6.5 78.5q3 21 17 34t40 13q14 0 37 -5.5t55 -5.5q45 0 79 11t56 37.5t33 69.5t11 108v462h-538v-575h-264v1328h264v-567h538v567h264v-1209z" />
    <glyph glyph-name="uni04C8" unicode="&#x4c8;" horiz-adv-x="1116" 
d="M992 993l1 -948q0 -106 -25 -180.5t-74 -122t-121.5 -69t-168.5 -21.5q-42 0 -76 4.5t-76 14.5q2 19 3.5 34t3.5 29t3.5 28.5t3.5 34.5q2 21 16 33t39 12q10 0 24 -3t44 -3q32 0 59 7.5t47 30t31.5 64.5t11.5 110v386h-360v-434h-254v993h254v-372h360v372h254z" />
    <glyph glyph-name="uni04C9" unicode="&#x4c9;" horiz-adv-x="1373" 
d="M1127 201h165l-131 -515h-257l87 314h-128v575h-497v-575h-264v1328h264v-567h497v567h264v-1127z" />
    <glyph glyph-name="uni04CA" unicode="&#x4ca;" horiz-adv-x="1182" 
d="M963 993v-806h182l-143 -517h-237l99 330h-155v434h-337v-434h-254v993h254v-372h337v372h254z" />
    <glyph glyph-name="uni04CB" unicode="&#x4cb;" horiz-adv-x="1166" 
d="M1057 0h-135v-231q0 -34 -23 -54.5t-60 -20.5h-158v507h113v321q-100 -26 -190.5 -38t-169 -6.5t-142 30.5t-108.5 74.5t-69.5 125.5t-24.5 182v438h264v-439q0 -73 19 -123t68.5 -74t135 -21t217.5 36v621h263v-1328z" />
    <glyph glyph-name="uni04CC" unicode="&#x4cc;" horiz-adv-x="1030" 
d="M590 187v195q-118 -30 -216 -33t-169 28.5t-110.5 101.5t-39.5 184v330h254v-291q0 -58 14 -94t46.5 -53t86.5 -16t134 19v435h254v-993h-191v-255q0 -35 -19.5 -55t-51.5 -20h-160v517h168z" />
    <glyph glyph-name="uni04CD" unicode="&#x4cd;" horiz-adv-x="1871" 
d="M1923 201l-158 -515h-256l110 314h-130v831q0 29 1.5 62t5.5 68l-447 -749q-16 -28 -39 -43t-53 -15h-37q-62 0 -93 58l-454 752q5 -35 7 -69.5t2 -63.5v-831h-232v1328h198q17 0 30 -1t23.5 -5t19 -12t16.5 -23l442 -720q17 -31 31 -64t28 -67q26 71 59 133l438 718
q8 15 16.5 23.5t18.5 12t23 4.5t30 1h198v-1127h202z" />
    <glyph glyph-name="uni04CE" unicode="&#x4ce;" horiz-adv-x="1505" 
d="M1162 0h-108v530q0 37 4.5 84t12.5 87l-299 -529q-11 -20 -30 -32t-42 -12h-27q-24 0 -42.5 12t-29.5 32l-304 533q8 -40 13 -88.5t5 -86.5v-530h-229v994h211q26 0 51.5 -11.5t43.5 -43.5l236 -396q17 -30 31 -64t27 -69q12 35 26 69t31 64l234 396q19 34 44.5 44.5
t51.5 10.5h210v-807h160l-144 -517h-238z" />
    <glyph glyph-name="uni04CF" unicode="&#x4cf;" horiz-adv-x="546" 
d="M141 0zM405 0h-264v1328h264v-1328z" />
    <glyph glyph-name="uni04D0" unicode="&#x4d0;" horiz-adv-x="1241" 
d="M4 0zM1240 0h-202q-35 0 -56 16.5t-31 41.5l-84 261h-489l-83 -260q-8 -22 -30.5 -40.5t-55.5 -18.5h-205l484 1328h268zM437 503h370l-135 420q-12 31 -25 72.5t-26 90.5q-12 -49 -25 -91t-24 -73zM621 1528q36 0 59 6.5t37 23t19.5 44.5t5.5 72h150q26 0 39 -22.5
t13 -48.5q0 -50 -23 -87.5t-65.5 -62.5t-102 -38t-132.5 -13t-132.5 13t-102 38t-65.5 62.5t-23 87.5q0 26 13 48.5t39 22.5h150q0 -44 5.5 -72t19.5 -44.5t37 -23t59 -6.5z" />
    <glyph glyph-name="uni04D1" unicode="&#x4d1;" horiz-adv-x="1011" 
d="M73 0zM789 0q-36 0 -55 10.5t-30 42.5l-22 66q-38 -33 -73 -58t-72.5 -42t-80 -25.5t-94.5 -8.5q-64 0 -117 17.5t-91.5 51.5t-59.5 84.5t-21 116.5q0 55 28 110t95.5 99.5t180 74t280.5 33.5v53q0 96 -40 141t-115 45q-56 0 -92.5 -13t-64.5 -28.5t-52 -28.5t-54 -13
q-26 0 -44.5 13.5t-29.5 32.5l-46 80q86 80 190 119t225 39q87 0 156 -28.5t117 -80t73 -122.5t25 -156v-625h-116zM441 158q68 0 117.5 24.5t98.5 75.5v160q-99 -4 -164.5 -16.5t-104.5 -32t-55.5 -45.5t-16.5 -56q0 -60 33.5 -85t91.5 -25zM513 1247q36 0 59 7.5t37 25
t19.5 46.5t5.5 72h150q26 0 39 -22t13 -48q0 -50 -23 -90t-65.5 -67.5t-102 -42.5t-132.5 -15t-132.5 15t-102 42.5t-65.5 67.5t-23 90q0 26 13 48t39 22h150q0 -43 5.5 -72t19.5 -46.5t37 -25t59 -7.5z" />
    <glyph glyph-name="uni04D2" unicode="&#x4d2;" horiz-adv-x="1241" 
d="M4 0zM1240 0h-202q-35 0 -56 16.5t-31 41.5l-84 261h-489l-83 -260q-8 -22 -30.5 -40.5t-55.5 -18.5h-205l484 1328h268zM437 503h370l-135 420q-12 31 -25 72.5t-26 90.5q-12 -49 -25 -91t-24 -73zM541 1532q0 -27 -11 -51t-30 -42t-44 -28.5t-53 -10.5q-26 0 -50 10.5
t-42 28.5t-29 42t-11 51t11 51.5t29 43t42 29.5t50 11q28 0 53 -11t44 -29.5t30 -43t11 -51.5zM971 1532q0 -27 -10.5 -51t-29 -42t-43 -28.5t-52.5 -10.5t-52.5 10.5t-43 28.5t-29 42t-10.5 51t10.5 51.5t29 43t43 29.5t52.5 11t52.5 -11t43 -29.5t29 -43t10.5 -51.5z" />
    <glyph glyph-name="uni04D3" unicode="&#x4d3;" horiz-adv-x="1011" 
d="M73 0zM789 0q-36 0 -55 10.5t-30 42.5l-22 66q-38 -33 -73 -58t-72.5 -42t-80 -25.5t-94.5 -8.5q-64 0 -117 17.5t-91.5 51.5t-59.5 84.5t-21 116.5q0 55 28 110t95.5 99.5t180 74t280.5 33.5v53q0 96 -40 141t-115 45q-56 0 -92.5 -13t-64.5 -28.5t-52 -28.5t-54 -13
q-26 0 -44.5 13.5t-29.5 32.5l-46 80q86 80 190 119t225 39q87 0 156 -28.5t117 -80t73 -122.5t25 -156v-625h-116zM441 158q68 0 117.5 24.5t98.5 75.5v160q-99 -4 -164.5 -16.5t-104.5 -32t-55.5 -45.5t-16.5 -56q0 -60 33.5 -85t91.5 -25zM455 1248q0 -28 -11.5 -53
t-31 -43.5t-45 -29.5t-54.5 -11q-28 0 -53 11t-44 29.5t-30 43.5t-11 53q0 29 11 54.5t30 44t44 29.5t53 11q29 0 54.5 -11t45 -29.5t31 -44t11.5 -54.5zM850 1248q0 -28 -11.5 -53t-31 -43.5t-45 -29.5t-54.5 -11q-28 0 -53 11t-44 29.5t-30 43.5t-11 53q0 29 11 54.5
t30 44t44 29.5t53 11q29 0 54.5 -11t45 -29.5t31 -44t11.5 -54.5z" />
    <glyph glyph-name="uni04D4" unicode="&#x4d4;" horiz-adv-x="1588" 
d="M0 0zM589 1328h933v-209h-566l40 -351h409v-201h-386l40 -358h463v-209h-688l-36 319h-420l-107 -260q-13 -26 -38 -42.5t-60 -16.5h-199zM454 503h323l-70 625q-15 -48 -31 -89.5t-33 -76.5z" />
    <glyph glyph-name="uni04D5" unicode="&#x4d5;" horiz-adv-x="1587" 
d="M73 0zM1126 1009q85 0 158 -33t126.5 -94t84 -148t30.5 -196q0 -29 -2.5 -48t-8.5 -30t-17 -15.5t-28 -4.5h-567q14 -134 78 -196.5t164 -62.5q65 0 105.5 12.5t66.5 27t44.5 27t39.5 12.5q19 0 31 -6t20 -17l68 -88q-41 -48 -89.5 -79.5t-101 -50t-105.5 -26.5t-103 -8
q-103 0 -193.5 45.5t-150.5 144.5q-30 -50 -72 -86t-93 -59t-108 -34t-117 -11q-73 0 -131 18.5t-98.5 54.5t-62 88.5t-21.5 120.5q0 55 28.5 111.5t96.5 103.5t181 78t282 35v30q0 96 -40.5 145.5t-116.5 49.5q-56 0 -93 -14.5t-65 -31.5t-52 -31.5t-54 -14.5
q-26 0 -44.5 13.5t-29.5 32.5l-47 81q88 79 181.5 118t207.5 39q110 0 182.5 -40.5t110.5 -112.5q55 69 136 109.5t189 40.5zM661 441q-99 -5 -165.5 -19t-106.5 -36t-56.5 -49.5t-16.5 -57.5q0 -62 35 -91.5t97 -29.5q45 0 84 14t67.5 43.5t45 76t16.5 112.5v37zM1115 828
q-95 0 -148 -61.5t-65 -173.5h397q0 45 -11 87t-33.5 75t-57 53t-82.5 20z" />
    <glyph glyph-name="uni04D6" unicode="&#x4d6;" horiz-adv-x="999" 
d="M118 0zM928 1328v-209h-546v-351h425v-201h-425v-358h547l-1 -209h-810v1328h810zM536 1528q36 0 59 6.5t37 23t19.5 44.5t5.5 72h150q26 0 39 -22.5t13 -48.5q0 -50 -23 -87.5t-65.5 -62.5t-102 -38t-132.5 -13t-132.5 13t-102 38t-65.5 62.5t-23 87.5q0 26 13 48.5
t39 22.5h150q0 -44 5.5 -72t19.5 -44.5t37 -23t59 -6.5z" />
    <glyph glyph-name="uni04D7" unicode="&#x4d7;" horiz-adv-x="1031" 
d="M63 0zM539 1009q94 0 173 -30.5t136 -88t89 -141.5t32 -192q0 -29 -3 -47.5t-9.5 -29.5t-18 -15.5t-28.5 -4.5h-594q6 -72 26 -125t53 -87t78 -50.5t100 -16.5t95.5 13.5t71 29t54.5 29t47 13.5q28 0 46 -23l73 -94q-41 -48 -91 -79.5t-103.5 -50t-108.5 -26.5t-106 -8
q-103 0 -192 34t-155 101.5t-103.5 167t-37.5 230.5q0 101 33 190.5t94.5 156t149.5 105.5t199 39zM544 828q-97 0 -152 -56.5t-71 -159.5h420q0 43 -11.5 82t-36 69t-61.5 47.5t-88 17.5zM546 1247q36 0 59 7.5t37 25t19.5 46.5t5.5 72h150q26 0 39 -22t13 -48
q0 -50 -23 -90t-65.5 -67.5t-102 -42.5t-132.5 -15t-132.5 15t-102 42.5t-65.5 67.5t-23 90q0 26 13 48t39 22h150q0 -43 5.5 -72t19.5 -46.5t37 -25t59 -7.5z" />
    <glyph glyph-name="uni04D8" unicode="&#x4d8;" horiz-adv-x="1347" 
d="M91 0zM662 -15q-125 0 -230 40.5t-180.5 117.5t-118 188.5t-42.5 254.5q0 39 3.5 63.5t12 39t23.5 20t38 5.5h852q-17 206 -119.5 306t-283.5 100q-75 0 -131 -18.5t-99 -41t-77 -41t-65 -18.5q-20 0 -36 8t-27 22l-79 98q57 65 123 107.5t136.5 67t142.5 34.5t141 10
q136 0 254 -45.5t205.5 -135t138 -222t50.5 -306.5q0 -135 -44 -254t-125.5 -208t-198.5 -140.5t-264 -51.5zM664 201q76 0 137 23.5t105 67.5t71.5 106t38.5 139h-671q0 -73 21 -134.5t61.5 -106.5t100 -70t136.5 -25z" />
    <glyph glyph-name="uni04D9" unicode="&#x4d9;" horiz-adv-x="1031" 
d="M62 0zM492 -15q-94 0 -173 30.5t-136 88.5t-89 142t-32 191q0 29 2.5 47.5t9 29.5t18 15.5t28.5 4.5h595q-6 72 -26.5 124.5t-53.5 87t-78 51t-100 16.5t-95 -13t-70.5 -29t-54.5 -29t-47 -13q-30 0 -47 22l-72 93q41 48 91 80t103.5 51t108.5 26.5t106 7.5
q102 0 191 -34t155 -101.5t104 -167t38 -229.5q0 -101 -33 -190.5t-94.5 -156.5t-149.5 -106t-199 -39zM487 167q97 0 151.5 55.5t71.5 158.5h-420q0 -43 11.5 -81.5t36 -68t61.5 -47t88 -17.5z" />
    <glyph glyph-name="uni04DA" unicode="&#x4da;" horiz-adv-x="1347" 
d="M91 0zM662 -15q-125 0 -230 40.5t-180.5 117.5t-118 188.5t-42.5 254.5q0 39 3.5 63.5t12 39t23.5 20t38 5.5h852q-17 206 -119.5 306t-283.5 100q-75 0 -131 -18.5t-99 -41t-77 -41t-65 -18.5q-20 0 -36 8t-27 22l-79 98q57 65 123 107.5t136.5 67t142.5 34.5t141 10
q136 0 254 -45.5t205.5 -135t138 -222t50.5 -306.5q0 -135 -44 -254t-125.5 -208t-198.5 -140.5t-264 -51.5zM664 201q76 0 137 23.5t105 67.5t71.5 106t38.5 139h-671q0 -73 21 -134.5t61.5 -106.5t100 -70t136.5 -25zM578 1532q0 -27 -11 -51t-30 -42t-44 -28.5t-53 -10.5
q-26 0 -50 10.5t-42 28.5t-29 42t-11 51t11 51.5t29 43t42 29.5t50 11q28 0 53 -11t44 -29.5t30 -43t11 -51.5zM1008 1532q0 -27 -10.5 -51t-29 -42t-43 -28.5t-52.5 -10.5t-52.5 10.5t-43 28.5t-29 42t-10.5 51t10.5 51.5t29 43t43 29.5t52.5 11t52.5 -11t43 -29.5t29 -43
t10.5 -51.5z" />
    <glyph glyph-name="uni04DB" unicode="&#x4db;" horiz-adv-x="1031" 
d="M62 0zM492 -15q-94 0 -173 30.5t-136 88.5t-89 142t-32 191q0 29 2.5 47.5t9 29.5t18 15.5t28.5 4.5h595q-6 72 -26.5 124.5t-53.5 87t-78 51t-100 16.5t-95 -13t-70.5 -29t-54.5 -29t-47 -13q-30 0 -47 22l-72 93q41 48 91 80t103.5 51t108.5 26.5t106 7.5
q102 0 191 -34t155 -101.5t104 -167t38 -229.5q0 -101 -33 -190.5t-94.5 -156.5t-149.5 -106t-199 -39zM487 167q97 0 151.5 55.5t71.5 158.5h-420q0 -43 11.5 -81.5t36 -68t61.5 -47t88 -17.5zM487 1248q0 -28 -11.5 -53t-31 -43.5t-45 -29.5t-54.5 -11q-28 0 -53 11
t-44 29.5t-30 43.5t-11 53q0 29 11 54.5t30 44t44 29.5t53 11q29 0 54.5 -11t45 -29.5t31 -44t11.5 -54.5zM882 1248q0 -28 -11.5 -53t-31 -43.5t-45 -29.5t-54.5 -11q-28 0 -53 11t-44 29.5t-30 43.5t-11 53q0 29 11 54.5t30 44t44 29.5t53 11q29 0 54.5 -11t45 -29.5
t31 -44t11.5 -54.5z" />
    <glyph glyph-name="uni04DC" unicode="&#x4dc;" horiz-adv-x="1705" 
d="M0 0zM234 1328q39 0 72.5 -18.5t53.5 -53.5l186 -414q20 -40 42.5 -52.5t51.5 -12.5h90v551h244v-551h90q30 0 53.5 12.5t41.5 51.5l187 414q20 35 53 54t72 19h207l-260 -508q-24 -43 -50.5 -71.5t-63.5 -44.5q45 -18 81 -52t68 -91l260 -561h-174q-56 0 -96 24.5
t-65 66.5l-184 415q-20 41 -45.5 57t-61.5 16h-113v-579h-244v579h-112q-36 0 -61.5 -16.5t-46.5 -57.5l-182 -414q-25 -42 -66 -66.5t-97 -24.5h-176l262 561q32 57 68 91t82 52q-38 16 -64 44.5t-50 71.5l-261 508h208zM774 1532q0 -27 -11 -51t-30 -42t-44 -28.5
t-53 -10.5q-26 0 -50 10.5t-42 28.5t-29 42t-11 51t11 51.5t29 43t42 29.5t50 11q28 0 53 -11t44 -29.5t30 -43t11 -51.5zM1204 1532q0 -27 -10.5 -51t-29 -42t-43 -28.5t-52.5 -10.5t-52.5 10.5t-43 28.5t-29 42t-10.5 51t10.5 51.5t29 43t43 29.5t52.5 11t52.5 -11
t43 -29.5t29 -43t10.5 -51.5z" />
    <glyph glyph-name="uni04DD" unicode="&#x4dd;" horiz-adv-x="1509" 
d="M11 0zM483 648q16 -31 37 -45.5t59 -14.5h52v405h246v-405h49q38 0 61 14.5t38 45.5l140 278q17 31 45.5 49t63.5 18h200l-206 -366q-23 -39 -47 -63t-58 -38q47 -15 76.5 -43.5t52.5 -72.5l207 -410h-177q-66 0 -101 20.5t-57 64.5l-117 269q-15 35 -42.5 52t-62.5 17
h-65v-423h-246v423h-65q-35 0 -62 -17t-43 -53l-116 -267q-11 -22 -25 -38.5t-32.5 -27t-43.5 -15.5t-59 -5h-174l206 410q23 44 52.5 72.5t76.5 43.5q-34 14 -58 38t-47 63l-206 366h200q35 0 63.5 -17.5t45.5 -48.5zM696 1248q0 -28 -11.5 -53t-31 -43.5t-45 -29.5
t-54.5 -11q-28 0 -53 11t-44 29.5t-30 43.5t-11 53q0 29 11 54.5t30 44t44 29.5t53 11q29 0 54.5 -11t45 -29.5t31 -44t11.5 -54.5zM1091 1248q0 -28 -11.5 -53t-31 -43.5t-45 -29.5t-54.5 -11q-28 0 -53 11t-44 29.5t-30 43.5t-11 53q0 29 11 54.5t30 44t44 29.5t53 11
q29 0 54.5 -11t45 -29.5t31 -44t11.5 -54.5z" />
    <glyph glyph-name="uni04DE" unicode="&#x4de;" horiz-adv-x="987" 
d="M28 0zM905 994q0 -94 -37.5 -170.5t-118.5 -124.5q41 -22 75.5 -51.5t59 -64.5t38 -76.5t13.5 -87.5q0 -90 -31 -169t-90.5 -137.5t-145.5 -92t-197 -33.5q-63 0 -125.5 12.5t-120.5 35.5t-108 55.5t-89 72.5l79 125q9 15 24.5 24t32.5 9q24 0 50.5 -18.5t62.5 -41
t84.5 -41t116.5 -18.5q100 0 155 49t55 156q0 43 -16 77.5t-44.5 58.5t-68.5 36.5t-89 12.5l-175 -1l-1 211h154q106 0 158.5 43.5t52.5 125.5q0 72 -49.5 115.5t-146.5 43.5q-56 0 -97.5 -14t-73 -31t-54.5 -31t-42 -14q-38 0 -58 38l-66 124q71 66 172 103t222 37
q101 0 182.5 -25.5t138.5 -71.5t87.5 -110t30.5 -141zM408 1532q0 -27 -11 -51t-30 -42t-44 -28.5t-53 -10.5q-26 0 -50 10.5t-42 28.5t-29 42t-11 51t11 51.5t29 43t42 29.5t50 11q28 0 53 -11t44 -29.5t30 -43t11 -51.5zM838 1532q0 -27 -10.5 -51t-29 -42t-43 -28.5
t-52.5 -10.5t-52.5 10.5t-43 28.5t-29 42t-10.5 51t10.5 51.5t29 43t43 29.5t52.5 11t52.5 -11t43 -29.5t29 -43t10.5 -51.5z" />
    <glyph glyph-name="uni04DF" unicode="&#x4df;" horiz-adv-x="874" 
d="M29 0zM55 885q57 55 140 89.5t201 34.5q92 0 164 -22t121.5 -59.5t75.5 -86t26 -100.5q0 -28 -8.5 -58.5t-27 -59t-49 -53.5t-74.5 -42q79 -31 127.5 -90t48.5 -148q0 -73 -33.5 -129.5t-89 -95.5t-126.5 -59.5t-146 -20.5q-42 0 -90.5 7.5t-98 26.5t-98 50.5t-89.5 79.5
l73 94q18 23 47 23q23 0 43.5 -14t46 -30.5t60.5 -30.5t89 -14q85 0 127.5 38.5t42.5 96.5q0 56 -45 88t-146 32h-112v165h112q90 0 137.5 30.5t47.5 81.5q0 48 -41.5 77.5t-122.5 29.5q-50 0 -84.5 -10t-59 -22t-42 -22t-33.5 -10q-18 0 -30.5 6.5t-26.5 28.5zM417 1248
q0 -28 -11.5 -53t-31 -43.5t-45 -29.5t-54.5 -11q-28 0 -53 11t-44 29.5t-30 43.5t-11 53q0 29 11 54.5t30 44t44 29.5t53 11q29 0 54.5 -11t45 -29.5t31 -44t11.5 -54.5zM812 1248q0 -28 -11.5 -53t-31 -43.5t-45 -29.5t-54.5 -11q-28 0 -53 11t-44 29.5t-30 43.5t-11 53
q0 29 11 54.5t30 44t44 29.5t53 11q29 0 54.5 -11t45 -29.5t31 -44t11.5 -54.5z" />
    <glyph glyph-name="uni04E0" unicode="&#x4e0;" horiz-adv-x="1003" 
d="M24 0zM926 1328v-97q0 -21 -6.5 -45t-32.5 -48l-301 -308q100 -8 171 -39.5t116.5 -80.5t67 -113t21.5 -137q0 -113 -43 -201t-114 -148.5t-162 -92t-186 -31.5q-121 0 -232.5 52.5t-200.5 163.5l102 116q13 14 24.5 16.5t19.5 2.5q14 0 26.5 -5t35.5 -25
q13 -14 32.5 -31.5t46 -33t62 -26.5t82.5 -11q61 0 106.5 20t74.5 53t43.5 77t14.5 92q0 43 -13 79.5t-42.5 62.5t-76.5 40.5t-115 14.5h-181v112q0 20 8 41t29 41l272 280h-503v209h854z" />
    <glyph glyph-name="uni04E1" unicode="&#x4e1;" horiz-adv-x="937" 
d="M0 0zM197 390q0 20 9 36t22 32l317 341h-485v194h792v-104q0 -34 -14.5 -61t-34.5 -49l-288 -307q101 -12 175 -43t122.5 -78.5t72 -110t23.5 -136.5q0 -91 -34.5 -171.5t-102 -140.5t-167.5 -95t-231 -35q-67 0 -122.5 9t-102 25.5t-85 38.5t-69.5 48l59 97
q11 17 26 26.5t38 9.5q24 0 46 -11t50 -23.5t66.5 -23.5t96.5 -11q132 0 207.5 62t75.5 178q0 49 -15 90.5t-47.5 70.5t-83.5 45.5t-122 16.5h-194v80z" />
    <glyph glyph-name="uni04E2" unicode="&#x4e2;" horiz-adv-x="1335" 
d="M120 0zM902 1247q9 15 21 29.5t26.5 26t31.5 18.5t36 7h198v-1328h-264v807q0 48 2.5 100.5t10.5 111.5q-20 -52 -42 -97t-42 -78l-447 -762q-9 -15 -21 -29.5t-27 -26.5t-32 -19t-36 -7h-197v1328h264v-806q0 -49 -3 -102.5t-11 -113.5q19 53 41 99t42 81zM389 1579h590
v-145h-590v145z" />
    <glyph glyph-name="uni04E3" unicode="&#x4e3;" horiz-adv-x="1140" 
d="M123 -1v993h254v-558q0 -23 -2.5 -50.5t-6.5 -54.5q21 46 44 80q1 2 17.5 25.5t42 60.5t58 84t65.5 95q78 114 177 257q14 23 37.5 42.5t52.5 19.5h155v-993h-254v559q0 22 2.5 49t6.5 55q-21 -47 -44 -79q-2 -2 -18 -26t-41.5 -61t-58 -84t-65.5 -95q-78 -114 -177 -257
q-14 -21 -37.5 -41.5t-52.5 -20.5h-155zM294 1329h583v-161h-583v161z" />
    <glyph glyph-name="uni04E4" unicode="&#x4e4;" horiz-adv-x="1335" 
d="M120 0zM902 1247q9 15 21 29.5t26.5 26t31.5 18.5t36 7h198v-1328h-264v807q0 48 2.5 100.5t10.5 111.5q-20 -52 -42 -97t-42 -78l-447 -762q-9 -15 -21 -29.5t-27 -26.5t-32 -19t-36 -7h-197v1328h264v-806q0 -49 -3 -102.5t-11 -113.5q19 53 41 99t42 81zM604 1532
q0 -27 -11 -51t-30 -42t-44 -28.5t-53 -10.5q-26 0 -50 10.5t-42 28.5t-29 42t-11 51t11 51.5t29 43t42 29.5t50 11q28 0 53 -11t44 -29.5t30 -43t11 -51.5zM1034 1532q0 -27 -10.5 -51t-29 -42t-43 -28.5t-52.5 -10.5t-52.5 10.5t-43 28.5t-29 42t-10.5 51t10.5 51.5t29 43
t43 29.5t52.5 11t52.5 -11t43 -29.5t29 -43t10.5 -51.5z" />
    <glyph glyph-name="uni04E5" unicode="&#x4e5;" horiz-adv-x="1140" 
d="M123 0zM123 -1v993h254v-558q0 -23 -2.5 -50.5t-6.5 -54.5q21 46 44 80q1 2 17.5 25.5t42 60.5t58 84t65.5 95q78 114 177 257q14 23 37.5 42.5t52.5 19.5h155v-993h-254v559q0 22 2.5 49t6.5 55q-21 -47 -44 -79q-2 -2 -18 -26t-41.5 -61t-58 -84t-65.5 -95
q-78 -114 -177 -257q-14 -21 -37.5 -41.5t-52.5 -20.5h-155zM527 1248q0 -28 -11.5 -53t-31 -43.5t-45 -29.5t-54.5 -11q-28 0 -53 11t-44 29.5t-30 43.5t-11 53q0 29 11 54.5t30 44t44 29.5t53 11q29 0 54.5 -11t45 -29.5t31 -44t11.5 -54.5zM922 1248q0 -28 -11.5 -53
t-31 -43.5t-45 -29.5t-54.5 -11q-28 0 -53 11t-44 29.5t-30 43.5t-11 53q0 29 11 54.5t30 44t44 29.5t53 11q29 0 54.5 -11t45 -29.5t31 -44t11.5 -54.5z" />
    <glyph glyph-name="uni04E6" unicode="&#x4e6;" horiz-adv-x="1385" 
d="M48 0zM1338 665q0 -146 -46 -270.5t-130.5 -215.5t-203.5 -142t-264 -51t-264 51t-204 142t-131.5 215.5t-46.5 270.5q0 145 46.5 269.5t131.5 215t204 142t264 51.5t264 -51.5t203.5 -142.5t130.5 -215t46 -269zM1070 665q0 106 -26 190t-74.5 143t-118 90.5
t-157.5 31.5t-158 -31.5t-118.5 -90.5t-74.5 -143t-26 -190q0 -107 26 -191.5t74.5 -143t118.5 -89.5t158 -31t157.5 31t118 89.5t74.5 143t26 191.5zM616 1532q0 -27 -11 -51t-30 -42t-44 -28.5t-53 -10.5q-26 0 -50 10.5t-42 28.5t-29 42t-11 51t11 51.5t29 43t42 29.5
t50 11q28 0 53 -11t44 -29.5t30 -43t11 -51.5zM1046 1532q0 -27 -10.5 -51t-29 -42t-43 -28.5t-52.5 -10.5t-52.5 10.5t-43 28.5t-29 42t-10.5 51t10.5 51.5t29 43t43 29.5t52.5 11t52.5 -11t43 -29.5t29 -43t10.5 -51.5z" />
    <glyph glyph-name="uni04E7" unicode="&#x4e7;" horiz-adv-x="1101" 
d="M62 0zM552 1009q109 0 199 -35.5t154 -102t99 -161t35 -211.5q0 -119 -35 -214t-99 -161.5t-154 -102.5t-199 -36q-110 0 -200.5 36t-155 102.5t-99.5 161.5t-35 214q0 117 35 211.5t99.5 161t155 102t200.5 35.5zM552 179q115 0 170 80.5t55 237.5t-55 237.5t-170 80.5
q-117 0 -172.5 -80.5t-55.5 -237.5t55.5 -237.5t172.5 -80.5zM494 1248q0 -28 -11.5 -53t-31 -43.5t-45 -29.5t-54.5 -11q-28 0 -53 11t-44 29.5t-30 43.5t-11 53q0 29 11 54.5t30 44t44 29.5t53 11q29 0 54.5 -11t45 -29.5t31 -44t11.5 -54.5zM889 1248q0 -28 -11.5 -53
t-31 -43.5t-45 -29.5t-54.5 -11q-28 0 -53 11t-44 29.5t-30 43.5t-11 53q0 29 11 54.5t30 44t44 29.5t53 11q29 0 54.5 -11t45 -29.5t31 -44t11.5 -54.5z" />
    <glyph glyph-name="uni04E8" unicode="&#x4e8;" horiz-adv-x="1385" 
d="M48 0zM1338 665q0 -146 -46 -270.5t-130.5 -215.5t-203.5 -142t-264 -51t-264 51t-204 142t-131.5 215.5t-46.5 270.5q0 145 46.5 269.5t131.5 215t204 142t264 51.5t264 -51.5t203.5 -142.5t130.5 -215t46 -269zM694 210q78 0 142 24.5t111.5 72t77.5 115.5t40 155h-743
q10 -87 40 -155t77.5 -115.5t111.5 -72t143 -24.5zM694 1120q-77 0 -140 -24t-110 -69t-77.5 -110t-42.5 -147h739q-12 82 -42.5 147t-78 110t-110 69t-138.5 24z" />
    <glyph glyph-name="uni04E9" unicode="&#x4e9;" horiz-adv-x="1101" 
d="M64 0zM552 1009q109 0 198.5 -35.5t153 -102t98.5 -161t35 -211.5q0 -119 -35 -214t-98.5 -161.5t-153 -102.5t-198.5 -36q-110 0 -200 36t-154 102.5t-99 161.5t-35 214q0 117 35 211.5t99 161t154 102t200 35.5zM552 179q103 0 157 65.5t64 193.5h-445
q10 -128 64.5 -193.5t159.5 -65.5zM552 815q-102 0 -156.5 -61.5t-66.5 -182.5h442q-12 121 -65.5 182.5t-153.5 61.5z" />
    <glyph glyph-name="uni04EA" unicode="&#x4ea;" horiz-adv-x="1385" 
d="M48 0zM1338 665q0 -146 -46 -270.5t-130.5 -215.5t-203.5 -142t-264 -51t-264 51t-204 142t-131.5 215.5t-46.5 270.5q0 145 46.5 269.5t131.5 215t204 142t264 51.5t264 -51.5t203.5 -142.5t130.5 -215t46 -269zM694 210q78 0 142 24.5t111.5 72t77.5 115.5t40 155h-743
q10 -87 40 -155t77.5 -115.5t111.5 -72t143 -24.5zM694 1120q-77 0 -140 -24t-110 -69t-77.5 -110t-42.5 -147h739q-12 82 -42.5 147t-78 110t-110 69t-138.5 24zM618 1532q0 -27 -11 -51t-30 -42t-44 -28.5t-53 -10.5q-26 0 -50 10.5t-42 28.5t-29 42t-11 51t11 51.5t29 43
t42 29.5t50 11q28 0 53 -11t44 -29.5t30 -43t11 -51.5zM1048 1532q0 -27 -10.5 -51t-29 -42t-43 -28.5t-52.5 -10.5t-52.5 10.5t-43 28.5t-29 42t-10.5 51t10.5 51.5t29 43t43 29.5t52.5 11t52.5 -11t43 -29.5t29 -43t10.5 -51.5z" />
    <glyph glyph-name="uni04EB" unicode="&#x4eb;" horiz-adv-x="1101" 
d="M64 0zM552 1009q109 0 198.5 -35.5t153 -102t98.5 -161t35 -211.5q0 -119 -35 -214t-98.5 -161.5t-153 -102.5t-198.5 -36q-110 0 -200 36t-154 102.5t-99 161.5t-35 214q0 117 35 211.5t99 161t154 102t200 35.5zM552 179q103 0 157 65.5t64 193.5h-445
q10 -128 64.5 -193.5t159.5 -65.5zM552 815q-102 0 -156.5 -61.5t-66.5 -182.5h442q-12 121 -65.5 182.5t-153.5 61.5zM494 1248q0 -28 -11.5 -53t-31 -43.5t-45 -29.5t-54.5 -11q-28 0 -53 11t-44 29.5t-30 43.5t-11 53q0 29 11 54.5t30 44t44 29.5t53 11q29 0 54.5 -11
t45 -29.5t31 -44t11.5 -54.5zM889 1248q0 -28 -11.5 -53t-31 -43.5t-45 -29.5t-54.5 -11q-28 0 -53 11t-44 29.5t-30 43.5t-11 53q0 29 11 54.5t30 44t44 29.5t53 11q29 0 54.5 -11t45 -29.5t31 -44t11.5 -54.5z" />
    <glyph glyph-name="uni04EC" unicode="&#x4ec;" horiz-adv-x="1103" 
d="M36 0zM177 322q12 0 22.5 -5.5t20.5 -13.5q25 -27 50 -45t53.5 -29.5t62 -16t74.5 -4.5q61 0 116 24.5t99 71.5t73.5 115.5t39.5 157.5h-528v193h526q-11 83 -39 148t-69.5 110t-96 68.5t-117.5 23.5q-68 0 -111 -16t-71.5 -35t-48.5 -35t-41 -16q-20 0 -32.5 9t-20.5 20
l-88 122q70 78 173 126t237 48q133 0 244 -50t190 -140t123 -214.5t44 -273.5q0 -148 -40.5 -272.5t-116.5 -215t-184 -141t-244 -50.5q-150 0 -259.5 53t-181.5 155l104 112q15 16 37 16zM410 1532q0 -27 -11 -51t-30 -42t-44 -28.5t-53 -10.5q-26 0 -50 10.5t-42 28.5
t-29 42t-11 51t11 51.5t29 43t42 29.5t50 11q28 0 53 -11t44 -29.5t30 -43t11 -51.5zM840 1532q0 -27 -10.5 -51t-29 -42t-43 -28.5t-52.5 -10.5t-52.5 10.5t-43 28.5t-29 42t-10.5 51t10.5 51.5t29 43t43 29.5t52.5 11t52.5 -11t43 -29.5t29 -43t10.5 -51.5z" />
    <glyph glyph-name="uni04ED" unicode="&#x4ed;" horiz-adv-x="895" 
d="M34 0zM42 868q65 68 146 104.5t189 36.5q112 0 198 -39t144 -107.5t88 -161.5t30 -202q0 -122 -34 -217.5t-92 -161.5t-135.5 -100.5t-163.5 -34.5q-49 0 -99 7.5t-98.5 26.5t-94.5 50.5t-86 79.5l69 86q18 23 47 23q23 0 40 -12.5t39 -28t53.5 -28t82.5 -12.5
q85 0 142.5 63t72.5 182h-375v171h373q-17 106 -71.5 164.5t-146.5 58.5q-44 0 -74 -10t-52 -21.5t-39 -21.5t-36 -10q-20 0 -31 8t-22 23zM352 1248q0 -28 -11.5 -53t-31 -43.5t-45 -29.5t-54.5 -11q-28 0 -53 11t-44 29.5t-30 43.5t-11 53q0 29 11 54.5t30 44t44 29.5
t53 11q29 0 54.5 -11t45 -29.5t31 -44t11.5 -54.5zM747 1248q0 -28 -11.5 -53t-31 -43.5t-45 -29.5t-54.5 -11q-28 0 -53 11t-44 29.5t-30 43.5t-11 53q0 29 11 54.5t30 44t44 29.5t53 11q29 0 54.5 -11t45 -29.5t31 -44t11.5 -54.5z" />
    <glyph glyph-name="uni04EE" unicode="&#x4ee;" horiz-adv-x="1121" 
d="M0 0zM293 199q16 0 34.5 3.5t37 14t37 30.5t33.5 52l42 98l-489 931h247q34 0 53 -16t33 -42l201 -462q22 -41 38.5 -81t29.5 -82q23 80 63 164l177 461q10 21 32 39.5t55 18.5h216l-491 -1141q-27 -61 -58.5 -99.5t-67.5 -61t-76.5 -31t-86.5 -8.5q-69 0 -98.5 12.5
t-29.5 35.5v164h68v0zM268 1579h590v-145h-590v145z" />
    <glyph glyph-name="uni04EF" unicode="&#x4ef;" horiz-adv-x="970" 
d="M467 -269q-11 -26 -28.5 -39.5t-52.5 -13.5h-191l177 400l-369 915h223q31 0 46.5 -14t23.5 -32l166 -491q11 -27 19 -54l16 -54q8 28 17 55.5t20 54.5l155 489q7 20 26 33t42 13h203zM208 1329h583v-161h-583v161z" />
    <glyph glyph-name="uni04F0" unicode="&#x4f0;" horiz-adv-x="1121" 
d="M0 0zM293 199q16 0 34.5 3.5t37 14t37 30.5t33.5 52l42 98l-489 931h247q34 0 53 -16t33 -42l201 -462q22 -41 38.5 -81t29.5 -82q23 80 63 164l177 461q10 21 32 39.5t55 18.5h216l-491 -1141q-27 -61 -58.5 -99.5t-67.5 -61t-76.5 -31t-86.5 -8.5q-69 0 -98.5 12.5
t-29.5 35.5v164h68v0zM483 1532q0 -27 -11 -51t-30 -42t-44 -28.5t-53 -10.5q-26 0 -50 10.5t-42 28.5t-29 42t-11 51t11 51.5t29 43t42 29.5t50 11q28 0 53 -11t44 -29.5t30 -43t11 -51.5zM913 1532q0 -27 -10.5 -51t-29 -42t-43 -28.5t-52.5 -10.5t-52.5 10.5t-43 28.5
t-29 42t-10.5 51t10.5 51.5t29 43t43 29.5t52.5 11t52.5 -11t43 -29.5t29 -43t10.5 -51.5z" />
    <glyph glyph-name="uni04F1" unicode="&#x4f1;" horiz-adv-x="970" 
d="M3 0zM467 -269q-11 -26 -28.5 -39.5t-52.5 -13.5h-191l177 400l-369 915h223q31 0 46.5 -14t23.5 -32l166 -491q11 -27 19 -54l16 -54q8 28 17 55.5t20 54.5l155 489q7 20 26 33t42 13h203zM441 1248q0 -28 -11.5 -53t-31 -43.5t-45 -29.5t-54.5 -11q-28 0 -53 11
t-44 29.5t-30 43.5t-11 53q0 29 11 54.5t30 44t44 29.5t53 11q29 0 54.5 -11t45 -29.5t31 -44t11.5 -54.5zM836 1248q0 -28 -11.5 -53t-31 -43.5t-45 -29.5t-54.5 -11q-28 0 -53 11t-44 29.5t-30 43.5t-11 53q0 29 11 54.5t30 44t44 29.5t53 11q29 0 54.5 -11t45 -29.5
t31 -44t11.5 -54.5z" />
    <glyph glyph-name="uni04F2" unicode="&#x4f2;" horiz-adv-x="1121" 
d="M0 0zM293 199q16 0 34.5 3.5t37 14t37 30.5t33.5 52l42 98l-489 931h247q34 0 53 -16t33 -42l201 -462q22 -41 38.5 -81t29.5 -82q23 80 63 164l177 461q10 21 32 39.5t55 18.5h216l-491 -1141q-27 -61 -58.5 -99.5t-67.5 -61t-76.5 -31t-86.5 -8.5q-69 0 -98.5 12.5
t-29.5 35.5v164h68v0zM688 1684l-203 -229q-17 -20 -34.5 -29t-46.5 -9h-120l132 213q15 26 40.5 40t66.5 14h165zM1077 1684l-252 -231q-20 -18 -41 -27t-50 -9h-137l177 213q20 24 46.5 39t66.5 15h190z" />
    <glyph glyph-name="uni04F3" unicode="&#x4f3;" horiz-adv-x="970" 
d="M3 0zM467 -269q-11 -26 -28.5 -39.5t-52.5 -13.5h-191l177 400l-369 915h223q31 0 46.5 -14t23.5 -32l166 -491q11 -27 19 -54l16 -54q8 28 17 55.5t20 54.5l155 489q7 20 26 33t42 13h203zM623 1414l-194 -253q-17 -20 -35.5 -27.5t-47.5 -7.5h-104l121 235
q14 26 34 39.5t61 13.5h165zM966 1414l-244 -253q-19 -19 -36.5 -27t-46.5 -8h-121l171 236q9 12 17.5 21.5t19.5 16.5t25 10.5t34 3.5h181z" />
    <glyph glyph-name="uni04F4" unicode="&#x4f4;" horiz-adv-x="1166" 
d="M90 0zM1057 0h-263v522q-100 -26 -190.5 -38t-169 -6.5t-142 30.5t-108.5 74.5t-69.5 125.5t-24.5 182v438h264v-439q0 -73 19 -123t68.5 -74t135 -21t217.5 36v621h263v-1328zM499 1532q0 -27 -11 -51t-30 -42t-44 -28.5t-53 -10.5q-26 0 -50 10.5t-42 28.5t-29 42
t-11 51t11 51.5t29 43t42 29.5t50 11q28 0 53 -11t44 -29.5t30 -43t11 -51.5zM929 1532q0 -27 -10.5 -51t-29 -42t-43 -28.5t-52.5 -10.5t-52.5 10.5t-43 28.5t-29 42t-10.5 51t10.5 51.5t29 43t43 29.5t52.5 11t52.5 -11t43 -29.5t29 -43t10.5 -51.5z" />
    <glyph glyph-name="uni04F5" unicode="&#x4f5;" horiz-adv-x="1000" 
d="M60 0zM882 0h-254v383q-124 -31 -228 -34t-179.5 28.5t-118 101t-42.5 184.5v330h254v-291q0 -58 16.5 -94.5t53.5 -53.5t97 -15t147 20v434h254v-993zM421 1248q0 -28 -11.5 -53t-31 -43.5t-45 -29.5t-54.5 -11q-28 0 -53 11t-44 29.5t-30 43.5t-11 53q0 29 11 54.5
t30 44t44 29.5t53 11q29 0 54.5 -11t45 -29.5t31 -44t11.5 -54.5zM816 1248q0 -28 -11.5 -53t-31 -43.5t-45 -29.5t-54.5 -11q-28 0 -53 11t-44 29.5t-30 43.5t-11 53q0 29 11 54.5t30 44t44 29.5t53 11q29 0 54.5 -11t45 -29.5t31 -44t11.5 -54.5z" />
    <glyph glyph-name="uni04F6" unicode="&#x4f6;" horiz-adv-x="874" 
d="M832 1127h-474v-926h157v-441q0 -33 -23 -53.5t-61 -20.5h-157v314h-180v1328h738v-201z" />
    <glyph glyph-name="uni04F7" unicode="&#x4f7;" horiz-adv-x="726" 
d="M709 993v-187h-354v-619h148v-443q0 -35 -20.5 -55t-51.5 -20h-159v331h-171v993h608z" />
    <glyph glyph-name="uni04F8" unicode="&#x4f8;" horiz-adv-x="1635" 
d="M107 0zM370 1328v-544h199q130 0 222 -29t150 -78.5t84.5 -116.5t26.5 -142q0 -95 -32.5 -172t-94.5 -132t-151.5 -84.5t-204.5 -29.5h-462v1328h263zM370 580v-376h199q65 0 108.5 15t69 40.5t36 59.5t10.5 72q0 43 -10.5 78t-36 59.5t-69 38t-108.5 13.5h-199zM1479 0
h-264v1328h264v-1328zM716 1532q0 -27 -11 -51t-30 -42t-44 -28.5t-53 -10.5q-26 0 -50 10.5t-42 28.5t-29 42t-11 51t11 51.5t29 43t42 29.5t50 11q28 0 53 -11t44 -29.5t30 -43t11 -51.5zM1146 1532q0 -27 -10.5 -51t-29 -42t-43 -28.5t-52.5 -10.5t-52.5 10.5t-43 28.5
t-29 42t-10.5 51t10.5 51.5t29 43t43 29.5t52.5 11t52.5 -11t43 -29.5t29 -43t10.5 -51.5z" />
    <glyph glyph-name="uni04F9" unicode="&#x4f9;" horiz-adv-x="1458" 
d="M122 0zM363 993v-363h162q102 0 173 -25t115.5 -68t64 -99t19.5 -118q0 -71 -25 -129.5t-72.5 -101t-116 -66t-156.5 -23.5h-405v993h241zM1317 993v-993h-254v993h254zM363 450v-270h164q72 0 108.5 39t36.5 99q0 26 -8.5 50t-26.5 42t-45.5 29t-65.5 11h-163zM629 1248
q0 -28 -11.5 -53t-31 -43.5t-45 -29.5t-54.5 -11q-28 0 -53 11t-44 29.5t-30 43.5t-11 53q0 29 11 54.5t30 44t44 29.5t53 11q29 0 54.5 -11t45 -29.5t31 -44t11.5 -54.5zM1024 1248q0 -28 -11.5 -53t-31 -43.5t-45 -29.5t-54.5 -11q-28 0 -53 11t-44 29.5t-30 43.5t-11 53
q0 29 11 54.5t30 44t44 29.5t53 11q29 0 54.5 -11t45 -29.5t31 -44t11.5 -54.5z" />
    <glyph glyph-name="uni04FA" unicode="&#x4fa;" horiz-adv-x="903" 
d="M350 0h-199v582h-144v193h144v553h738v-201h-474v-352h281v-193h-281v-381h144v-260q0 -59 -13 -108.5t-42.5 -85.5t-76.5 -56.5t-115 -20.5q-36 0 -68.5 9.5t-73.5 29.5l19 96q6 29 21.5 37.5t29.5 8.5t27 -5.5t30 -5.5q31 0 42 31.5t11 91.5v37z" />
    <glyph glyph-name="uni04FB" unicode="&#x4fb;" horiz-adv-x="774" 
d="M757 993v-187h-358v-225h163v-179h-163v-215h158v-205q0 -62 -14.5 -121t-47 -105.5t-84.5 -74.5t-126 -28q-40 0 -76 9.5t-81 30.5l21 102q7 30 22.5 39t30.5 9q14 0 30.5 -5.5t36.5 -5.5q38 0 52 33t14 96v39h-190v402h-137v179h137v412h612z" />
    <glyph glyph-name="uni04FC" unicode="&#x4fc;" horiz-adv-x="1223" 
d="M759 695l269 -496h205v-216q0 -59 -14 -115t-45 -100t-81 -71t-122 -27q-38 0 -72.5 9.5t-77.5 29.5l20 96q6 29 21 37.5t29 8.5t30 -5.5t36 -5.5q38 0 52 31.5t14 91.5v37h-148q-27 0 -42.5 13.5t-26.5 30.5l-241 479q-2 -5 -5 -9.5t-5 -9.5l-224 -459q-11 -17 -25 -31
t-37 -14h-247l379 683l-365 645h264q26 0 37.5 -6.5t21.5 -22.5l240 -461l16 29l210 427q11 17 23 25.5t29 8.5h251z" />
    <glyph glyph-name="uni04FD" unicode="&#x4fd;" horiz-adv-x="1022" 
d="M323 512l-292 481h244q27 0 39.5 -7.5t22.5 -24.5l171 -310q5 14 12 28t16 28l124 250q22 36 57 36h233l-293 -469l196 -337h150v-205q0 -62 -15 -121t-48 -105.5t-85.5 -74.5t-127.5 -28q-41 0 -78 9.5t-82 30.5l21 102q7 30 23 39t30 9q15 0 32 -5.5t39 -5.5
q40 0 55 33t15 96v39h-64q-27 0 -44 14.5t-28 31.5l-172 322q-4 -13 -9.5 -24.5t-11.5 -21.5l-141 -276q-11 -17 -27 -31.5t-41 -14.5h-226z" />
    <glyph glyph-name="uni04FE" unicode="&#x4fe;" horiz-adv-x="1128" 
d="M338 775l-295 553h263q26 0 37.5 -6.5t21.5 -22.5l221 -455l13 23l191 427q11 17 22 25.5t28 8.5h251l-304 -553h244v-193h-230l297 -582h-261q-26 0 -41.5 13.5t-26.5 30.5l-222 472l-6 -12l-204 -459q-10 -17 -24 -31t-37 -14h-246l305 582h-236v193h239z" />
    <glyph glyph-name="uni04FF" unicode="&#x4ff;" horiz-adv-x="941" 
d="M73 608h176l-221 385h244q27 0 39.5 -7.5t22.5 -24.5l157 -304q5 13 11 25t14 25l108 250q22 36 56 36h233l-228 -385h182v-179h-178l236 -429h-244q-27 0 -44 14.5t-27 31.5l-158 315q-4 -11 -8.5 -21t-9.5 -18l-125 -276q-11 -17 -26.5 -31.5t-40.5 -14.5h-226l241 429
h-184v179z" />
    <glyph glyph-name="glyph4" horiz-adv-x="1588" 
d="M589 1328h933v-209h-566l40 -351h409v-201h-386l40 -358h463v-209h-688l-36 319h-420l-107 -260q-13 -26 -38 -42.5t-60 -16.5h-199zM454 503h323l-70 625q-15 -48 -31 -89.5t-33 -76.5z" />
    <glyph glyph-name="glyph31" horiz-adv-x="1587" 
d="M1126 1009q85 0 158 -33t126.5 -94t84 -148t30.5 -196q0 -29 -2.5 -48t-8.5 -30t-17 -15.5t-28 -4.5h-567q14 -134 78 -196.5t164 -62.5q65 0 105.5 12.5t66.5 27t44.5 27t39.5 12.5q19 0 31 -6t20 -17l68 -88q-41 -48 -89.5 -79.5t-101 -50t-105.5 -26.5t-103 -8
q-103 0 -193.5 45.5t-150.5 144.5q-30 -50 -72 -86t-93 -59t-108 -34t-117 -11q-73 0 -131 18.5t-98.5 54.5t-62 88.5t-21.5 120.5q0 55 28.5 111.5t96.5 103.5t181 78t282 35v30q0 96 -40.5 145.5t-116.5 49.5q-56 0 -93 -14.5t-65 -31.5t-52 -31.5t-54 -14.5
q-26 0 -44.5 13.5t-29.5 32.5l-47 81q88 79 181.5 118t207.5 39q110 0 182.5 -40.5t110.5 -112.5q55 69 136 109.5t189 40.5zM661 441q-99 -5 -165.5 -19t-106.5 -36t-56.5 -49.5t-16.5 -57.5q0 -62 35 -91.5t97 -29.5q45 0 84 14t67.5 43.5t45 76t16.5 112.5v37zM1115 828
q-95 0 -148 -61.5t-65 -173.5h397q0 45 -11 87t-33.5 75t-57 53t-82.5 20z" />
    <glyph glyph-name="glyph43" horiz-adv-x="1135" 
d="M160 0v806l-75 14q-29 5 -46.5 20t-17.5 43v103h139v111q0 157 77 245t220 88q26 0 47.5 -2t41.5 -10v-137q0 -20 -15.5 -26.5t-35.5 -6.5q-50 0 -69.5 -35t-19.5 -116v-111h597v-986h-254v806h-335v-806h-254z" />
    <glyph glyph-name="glyph45" horiz-adv-x="1718" 
d="M1335 0v806h-327v-806h-254v806h-343v-806h-254v806l-72 14q-29 5 -47 20t-18 43v103h137v51q0 85 25 153.5t72 116.5t114.5 73.5t152.5 25.5q33 0 62 -5t60 -13l-6 -127q-1 -14 -7.5 -23t-16.5 -14t-23 -7t-26 -2q-38 0 -68 -9t-50.5 -30.5t-31.5 -57t-11 -89.5v-43h351
v111q0 78 19.5 140t57 105t92 65.5t124.5 22.5q26 0 47.5 -2t42.5 -10v-137q0 -20 -15.5 -26.5t-35.5 -6.5q-49 0 -67.5 -35t-18.5 -116v-111h589v-986h-254z" />
    <glyph glyph-name="glyph56" horiz-adv-x="1121" 
d="M-1 1251h137v186h254v-186h269v-157h-269v-234q57 52 125.5 84.5t160.5 32.5q81 0 144 -28t105.5 -78t64.5 -119.5t22 -151.5v-600h-254v600q0 85 -40 132.5t-120 47.5q-59 0 -110.5 -26t-97.5 -71v-683h-254v1094h-137v157z" />
    <glyph glyph-name="glyph58" horiz-adv-x="503" 
d="M379 993v-993h-254v993h254z" />
    <glyph glyph-name="glyph60" horiz-adv-x="523" 
d="M391 993v-1017q0 -67 -17 -125.5t-56 -102t-102 -69t-154 -25.5q-35 0 -65 4.5t-62 13.5l9 136q2 20 15 26.5t49 6.5q37 0 62 6.5t40 22.5t21 41.5t6 64.5v1017h254z" />
    <glyph glyph-name="glyph71" horiz-adv-x="1199" 
d="M1079 986v-986h-254v806h-416v-525q0 -44 18.5 -68.5t53.5 -24.5q18 0 30.5 4.5t21.5 10.5t16.5 10.5t16.5 4.5q11 0 18 -5.5t15 -17.5l77 -123q-52 -43 -118 -65t-137 -22q-64 0 -113.5 19.5t-83.5 55.5t-51.5 87.5t-17.5 116.5v542h-88q-20 0 -34.5 13.5t-14.5 39.5
v101l150 28l53 263q9 41 56 41h132v-306h670z" />
    <glyph glyph-name="glyph74" horiz-adv-x="1832" 
d="M430 -15q-130 0 -199.5 74.5t-69.5 204.5v542h-92q-20 0 -34.5 13.5t-14.5 39.5v101l154 29l53 262q9 41 56 41h132v-306h383l54 265q9 41 56 41h132v-306h666v-986h-254v806h-412v-525q0 -44 20 -68.5t55 -24.5q19 0 32.5 4.5t23.5 10.5l17.5 10.5t16.5 4.5q20 0 34 -23
l76 -123q-53 -43 -120 -65t-139 -22q-131 0 -200.5 74.5t-69.5 204.5v542h-371v-525q0 -44 20 -68.5t55 -24.5q19 0 32.5 4.5t23 10.5t17.5 10.5t17 4.5q11 0 18 -5.5t15 -17.5l77 -123q-53 -43 -120.5 -65t-139.5 -22z" />
    <glyph glyph-name="glyph82" horiz-adv-x="672" 
d="M298 1798q20 0 34.5 -1t26 -5.5t21.5 -12.5t21 -22l208 -262h-184q-30 0 -46.5 3.5t-37.5 21.5l-309 278h266z" />
    <glyph glyph-name="glyph83" horiz-adv-x="616" 
d="M554 1414l-241 -253q-19 -19 -37 -27t-47 -8h-152l136 235q15 26 35 39.5t60 13.5h246z" />
    <glyph glyph-name="glyph84" horiz-adv-x="672" 
d="M767 1798l-313 -277q-20 -17 -38 -21.5t-47 -4.5h-184l197 262q10 14 20 22t22 12.5t26.5 5.5t34.5 1h282z" />
    <glyph glyph-name="glyph85" horiz-adv-x="904" 
d="M372 1609q0 -27 -11 -51t-30 -42t-44 -28.5t-53 -10.5q-26 0 -50 10.5t-42 28.5t-29 42t-11 51t11 51.5t29 43t42 29.5t50 11q28 0 53 -11t44 -29.5t30 -43t11 -51.5zM802 1609q0 -27 -10.5 -51t-29 -42t-43 -28.5t-52.5 -10.5t-52.5 10.5t-43 28.5t-29 42t-10.5 51
t10.5 51.5t29 43t43 29.5t52.5 11t52.5 -11t43 -29.5t29 -43t10.5 -51.5z" />
    <glyph glyph-name="glyph86" horiz-adv-x="878" 
d="M144 1656h590v-145h-590v145z" />
    <glyph glyph-name="glyph87" horiz-adv-x="995" 
d="M628 1414l-194 -253q-17 -20 -35.5 -27.5t-47.5 -7.5h-104l121 235q14 26 34 39.5t61 13.5h165zM971 1414l-244 -253q-19 -19 -36.5 -27t-46.5 -8h-121l171 236q9 12 17.5 21.5t19.5 16.5t25 10.5t34 3.5h181z" />
    <glyph glyph-name="glyph88" horiz-adv-x="1093" 
d="M686 1762l-203 -229q-17 -20 -34.5 -29t-46.5 -9h-120l132 213q15 26 40.5 40t66.5 14h165zM1075 1762l-252 -231q-20 -18 -41 -27t-50 -9h-137l177 213q20 24 46.5 39t66.5 15h190z" />
    <glyph glyph-name="glyph89" horiz-adv-x="482" 
d="M402 1281q0 -33 -13 -61.5t-35 -50t-52 -34t-63 -12.5q-32 0 -60.5 12.5t-50 34t-34 50t-12.5 61.5t12.5 62t34 50.5t50 34t60.5 12.5q33 0 63 -12.5t52 -34t35 -50.5t13 -62z" />
    <glyph glyph-name="glyph90" horiz-adv-x="1654" 
d="M264 1328q42 0 65 -25t23 -62v-390q0 -76 17.5 -134.5t58 -99t105.5 -63t161 -28.5v802h263v-802q96 5 162 28t106.5 63.5t58.5 98.5t18 135v390q0 37 23 62t65 25h176v-477q0 -117 -39 -213t-115.5 -165t-190.5 -109.5t-264 -47.5v-316h-263v316q-150 7 -263 48
t-189.5 110t-115 164.5t-38.5 212.5v477h176z" />
    <glyph glyph-name="glyph91" horiz-adv-x="1511" 
d="M898 1398v-1210q68 8 121 29.5t89 61t55 100.5t19 149q0 77 -7 131t-15.5 96t-16 78t-8.5 78q-1 22 5 38t16.5 25.5t23 14t25.5 4.5h183q11 -62 20 -119.5t15 -114t9.5 -113.5t3.5 -118q0 -143 -42 -241t-114.5 -160.5t-171 -94t-210.5 -41.5v-312h-254v311
q-141 11 -241 49.5t-164 102.5t-94 151t-30 194v506h177q15 0 29 -9t24.5 -23.5t17 -31t6.5 -31.5v-411q0 -131 70.5 -202.5t204.5 -92.5v1206h254z" />
    <glyph glyph-name="uni0431.locl" horiz-adv-x="1091" 
d="M948 1398v-162q0 -37 -21 -55.5t-56 -18.5h-406q-51 0 -73 -15.5t-22 -41.5q0 -28 28.5 -51.5t74.5 -46.5t105 -47.5t121 -56t121 -71.5t105 -93t74.5 -122t28.5 -157q0 -108 -35 -195t-99.5 -148.5t-155.5 -95t-202 -33.5q-114 0 -202.5 34.5t-148.5 96.5t-91 148
t-31 189q0 149 72.5 248t205.5 159q-41 21 -77 46t-63 56.5t-42.5 71.5t-15.5 91q0 55 24.5 104t70 86t112 58.5t150.5 21.5h448zM774 460q0 66 -21 115.5t-56 87t-81 66t-97 52.5q-39 -19 -74 -47t-61.5 -66t-42 -88t-15.5 -114q0 -60 13 -112.5t40.5 -91.5t70.5 -62
t104 -23q46 0 86.5 17.5t70 53t46.5 88.5t17 124z" />
    <glyph glyph-name="glyph157" horiz-adv-x="930" 
d="M465 1247q36 0 59 7.5t37 25t19.5 46.5t5.5 72h150q26 0 39 -22t13 -48q0 -50 -23 -90t-65.5 -67.5t-102 -42.5t-132.5 -15t-132.5 15t-102 42.5t-65.5 67.5t-23 90q0 26 13 48t39 22h150q0 -43 5.5 -72t19.5 -46.5t37 -25t59 -7.5z" />
    <glyph glyph-name="glyph158" horiz-adv-x="930" 
d="M465 1605q36 0 59 6.5t37 23t19.5 44.5t5.5 72h150q26 0 39 -22.5t13 -48.5q0 -50 -23 -87.5t-65.5 -62.5t-102 -38t-132.5 -13t-132.5 13t-102 38t-65.5 62.5t-23 87.5q0 26 13 48.5t39 22.5h150q0 -44 5.5 -72t19.5 -44.5t37 -23t59 -6.5z" />
    <glyph glyph-name="glyph184" horiz-adv-x="1010" 
d="M530 1343q92 0 167.5 -27.5t129 -77.5t83 -120.5t29.5 -155.5q0 -73 -21 -135.5t-56 -119t-82 -110t-99 -107.5l-282 -295q45 14 90 21.5t84 7.5h301q38 0 61.5 -22t23.5 -58v-144h-898v81q0 23 9.5 49.5t33.5 49.5l386 397q49 51 86.5 97t63 91.5t38.5 92t13 97.5
q0 92 -46 139t-130 47q-36 0 -66 -11t-54 -30t-41 -45t-26 -56q-16 -46 -43.5 -60t-75.5 -6l-128 22q15 97 54 169.5t97.5 121t134.5 73t163 24.5z" />
    <glyph glyph-name="glyph185" horiz-adv-x="1008" 
d="M532 1343q92 0 165.5 -27t124.5 -73.5t78.5 -109t27.5 -133.5q0 -63 -13.5 -111t-39.5 -84t-64 -61t-86 -41q227 -77 227 -307q0 -101 -36.5 -177.5t-98 -128.5t-143 -78t-171.5 -26q-95 0 -167.5 22t-127 66.5t-94 110.5t-67.5 153l106 45q42 17 78.5 8.5t51.5 -39.5
q18 -34 38 -63.5t45.5 -52t58.5 -35.5t76 -13q53 0 92.5 17.5t65.5 46t39 64.5t13 72q0 46 -8.5 84t-38 65t-86.5 42t-155 15v171q82 1 134.5 15t82.5 39.5t41 60.5t11 78q0 91 -45.5 137t-127.5 46q-73 0 -122 -41t-68 -101q-16 -46 -42.5 -60t-75.5 -6l-127 22
q14 97 53 169.5t98 121t134.5 73t162.5 24.5z" />
    <glyph glyph-name="glyph186" horiz-adv-x="1092" 
d="M885 505h153v-138q0 -20 -13 -34t-36 -14h-104v-319h-210v319h-539q-23 0 -41.5 14.5t-23.5 37.5l-25 121l609 837h230v-824zM675 916q0 29 1.5 63.5t6.5 71.5l-383 -546h375v411z" />
    <glyph glyph-name="glyph187" horiz-adv-x="1001" 
d="M875 1227q0 -51 -33 -83.5t-109 -32.5h-340l-44 -261q79 16 152 16q102 0 180.5 -31.5t131.5 -86.5t80 -129t27 -159q0 -106 -36.5 -193.5t-101.5 -149.5t-154.5 -96.5t-195.5 -34.5q-62 0 -117.5 13t-104.5 35t-90.5 51t-74.5 61l74 102q25 33 62 33q24 0 47 -14.5
t52.5 -32.5t69 -32.5t96.5 -14.5q59 0 102.5 20t72.5 55t43.5 82.5t14.5 103.5q0 106 -59 164t-171 58q-45 0 -91 -8.5t-92 -25.5l-149 41l108 651h650v-101z" />
    <glyph glyph-name="glyph188" horiz-adv-x="958" 
d="M935 1328v-103q0 -46 -10 -75t-19 -48l-477 -1020q-17 -34 -46.5 -58t-80.5 -24h-176l488 997q17 33 35 61t41 53h-602q-21 0 -38 16.5t-17 38.5v162h902z" />
    <glyph glyph-name="glyph189" horiz-adv-x="1090" 
d="M612 512q14 18 27 35t25 34q-43 -26 -94.5 -40t-108.5 -14q-66 0 -130 24t-115 71.5t-82 119t-31 167.5q0 89 32 168t91 138t141 93.5t183 34.5t182 -32.5t137.5 -90.5t86.5 -139t30 -178q0 -63 -10 -119t-29 -107.5t-45.5 -100t-59.5 -96.5l-290 -425q-17 -23 -50 -39
t-75 -16h-220zM756 926q0 53 -15.5 94t-43.5 69.5t-66 43t-84 14.5q-47 0 -84.5 -16.5t-64 -46t-41 -69.5t-14.5 -87q0 -108 52 -164.5t151 -56.5q51 0 90 16.5t65.5 46t40.5 69.5t14 87z" />
    <glyph glyph-name="glyph202" horiz-adv-x="1126" 
d="M705 -228q0 -28 -11.5 -53t-31 -43.5t-45 -29.5t-54.5 -11q-28 0 -53 11t-44 29.5t-30 43.5t-11 53q0 29 11 54.5t30 44t44 29.5t53 11q29 0 54.5 -11t45 -29.5t31 -44t11.5 -54.5z" />
    <glyph glyph-name="glyph203" horiz-adv-x="961" 
d="M515 1414q40 0 60.5 -13.5t34.5 -39.5l120 -235h-104q-29 0 -47.5 7.5t-35.5 27.5l-193 253h165zM188 1414q20 0 34 -3.5t24.5 -10.5t19 -16.5t17.5 -21.5l171 -236h-120q-29 0 -46.5 8t-36.5 27l-245 253h182z" />
    <glyph glyph-name="glyph204" horiz-adv-x="1347" 
d="M662 -15q-125 0 -230 40.5t-180.5 117.5t-118 188.5t-42.5 254.5q0 39 3.5 63.5t12 39t23.5 20t38 5.5h852q-17 206 -119.5 306t-283.5 100q-75 0 -131 -18.5t-99 -41t-77 -41t-65 -18.5q-20 0 -36 8t-27 22l-79 98q57 65 123 107.5t136.5 67t142.5 34.5t141 10
q136 0 254 -45.5t205.5 -135t138 -222t50.5 -306.5q0 -135 -44 -254t-125.5 -208t-198.5 -140.5t-264 -51.5zM664 201q76 0 137 23.5t105 67.5t71.5 106t38.5 139h-671q0 -73 21 -134.5t61.5 -106.5t100 -70t136.5 -25z" />
    <glyph glyph-name="glyph205" horiz-adv-x="1003" 
d="M926 1328v-97q0 -21 -6.5 -45t-32.5 -48l-301 -308q100 -8 171 -39.5t116.5 -80.5t67 -113t21.5 -137q0 -113 -43 -201t-114 -148.5t-162 -92t-186 -31.5q-121 0 -232.5 52.5t-200.5 163.5l102 116q13 14 24.5 16.5t19.5 2.5q14 0 26.5 -5t35.5 -25q13 -14 32.5 -31.5
t46 -33t62 -26.5t82.5 -11q61 0 106.5 20t74.5 53t43.5 77t14.5 92q0 43 -13 79.5t-42.5 62.5t-76.5 40.5t-115 14.5h-181v112q0 20 8 41t29 41l272 280h-503v209h854z" />
    <glyph glyph-name="glyph206" horiz-adv-x="1031" 
d="M492 -15q-94 0 -173 30.5t-136 88.5t-89 142t-32 191q0 29 2.5 47.5t9 29.5t18 15.5t28.5 4.5h595q-6 72 -26.5 124.5t-53.5 87t-78 51t-100 16.5t-95 -13t-70.5 -29t-54.5 -29t-47 -13q-30 0 -47 22l-72 93q41 48 91 80t103.5 51t108.5 26.5t106 7.5q102 0 191 -34
t155 -101.5t104 -167t38 -229.5q0 -101 -33 -190.5t-94.5 -156.5t-149.5 -106t-199 -39zM487 167q97 0 151.5 55.5t71.5 158.5h-420q0 -43 11.5 -81.5t36 -68t61.5 -47t88 -17.5z" />
    <glyph glyph-name="glyph207" horiz-adv-x="1097" 
d="M550 1009q109 0 198.5 -35.5t153 -102t98.5 -161t35 -211.5q0 -119 -35 -214t-98.5 -161.5t-153 -102.5t-198.5 -36q-110 0 -200 36t-154 102.5t-99 161.5t-35 214q0 117 35 211.5t99 161t154 102t200 35.5zM550 179q103 0 157 65.5t64 193.5h-445q10 -128 64.5 -193.5
t159.5 -65.5zM550 815q-102 0 -156.5 -61.5t-66.5 -182.5h442q-12 121 -65.5 182.5t-153.5 61.5z" />
    <glyph glyph-name="glyph208" horiz-adv-x="937" 
d="M197 390q0 20 9 36t22 32l317 341h-485v194h792v-104q0 -34 -14.5 -61t-34.5 -49l-288 -307q101 -12 175 -43t122.5 -78.5t72 -110t23.5 -136.5q0 -91 -34.5 -171.5t-102 -140.5t-167.5 -95t-231 -35q-67 0 -122.5 9t-102 25.5t-85 38.5t-69.5 48l59 97q11 17 26 26.5
t38 9.5q24 0 46 -11t50 -23.5t66.5 -23.5t96.5 -11q132 0 207.5 62t75.5 178q0 49 -15 90.5t-47.5 70.5t-83.5 45.5t-122 16.5h-194v80z" />
    <glyph glyph-name="glyph307" horiz-adv-x="473" 
d="M186 1153q37 8 55.5 23t21.5 47q-5 -1 -10.5 -1.5t-11.5 -0.5q-36 0 -61 8.5t-40 22.5t-21.5 33t-6.5 39q0 51 33 84t93 33q36 0 63.5 -12.5t46.5 -34.5t28.5 -52.5t9.5 -65.5q0 -47 -15.5 -86t-46.5 -67t-78.5 -43.5t-110.5 -15.5v49q0 16 11.5 25t39.5 15z" />
    <glyph glyph-name="glyph308" horiz-adv-x="473" 
d="M256 1223h-11t-10 1q5 -30 23.5 -45.5t53.5 -23.5q28 -6 39 -15.5t11 -24.5v-49q-63 -1 -110 17t-78 49.5t-46.5 73t-15.5 88.5q0 70 38 109.5t110 39.5q60 0 93 -33t33 -84q0 -20 -6.5 -39t-22 -33t-40.5 -22.5t-61 -8.5z" />
    <glyph glyph-name="grave.locl" horiz-adv-x="649" 
d="M248 1080l-107 270q-15 35 -2 57t48 22h156l51 -349h-146z" />
    <glyph glyph-name="glyph310" horiz-adv-x="807" 
d="M197 1135v-94h-67q-28 0 -53.5 8.5t-45 25t-31.5 41.5t-12 58q0 36 11 61.5t30.5 42t45.5 24.5t56 8h479v95h67q28 0 53.5 -8.5t45 -25.5t31.5 -42t12 -58q0 -36 -11 -62t-30.5 -42.5t-45.5 -24t-55 -7.5h-480z" />
    <glyph glyph-name="glyph311" horiz-adv-x="807" 
d="M525 1257q-38 0 -69.5 -10.5t-64 -25.5t-68 -33.5t-79.5 -33.5t-100.5 -25.5t-130.5 -10.5v151q62 0 111 10.5t90.5 26.5t78.5 34t75.5 34t81 26.5t95.5 10.5q74 0 126 -19t85 -56t48 -91.5t15 -126.5h-180q0 42 -9.5 68.5t-25.5 42.5t-36.5 22t-42.5 6z" />
    <glyph glyph-name="glyph315" horiz-adv-x="682" 
d="M774 1329q0 -14 -2 -24.5t-5 -21.5l-62 -202q-5 -15 -15.5 -22.5t-21.5 -7.5t-21.5 7.5t-15.5 22.5l-36 124h-180l-38 -124q-5 -15 -15.5 -22.5t-21.5 -7.5t-21.5 7.5t-15.5 22.5l-36 124h-183l-38 -124q-5 -15 -15.5 -22.5t-22 -7.5t-22 7.5t-14.5 22.5l-58 201
q-6 19 -6 47h866z" />
    <glyph glyph-name="glyph316" horiz-adv-x="1135" 
d="M160 0v806l-75 14q-29 5 -46.5 20t-17.5 43v103h139v111q0 157 77 245t220 88q26 0 47.5 -2t41.5 -10v-137q0 -20 -15.5 -26.5t-35.5 -6.5q-50 0 -69.5 -35t-19.5 -116v-111h597v-1010q0 -67 -16.5 -125.5t-54 -102t-98.5 -69t-149 -25.5q-34 0 -63 4.5t-59 13.5l10 136
q2 20 13 26.5t46 6.5q34 0 56.5 6.5t36 22.5t19 41.5t5.5 64.5v830h-335v-806h-254z" />
    <glyph glyph-name="glyph317" horiz-adv-x="1718" 
d="M157 0v806l-72 14q-29 5 -47 20t-18 43v103h137v51q0 85 25 153.5t72 116.5t114.5 73.5t152.5 25.5q33 0 62 -5t60 -13l-6 -127q-1 -14 -7.5 -23t-16.5 -14t-23 -7t-26 -2q-38 0 -68 -9t-50.5 -30.5t-31.5 -57t-11 -89.5v-43h351v111q0 78 19.5 140t57 105t92 65.5
t124.5 22.5q26 0 47.5 -2t42.5 -10v-137q0 -20 -15.5 -26.5t-35.5 -6.5q-49 0 -67.5 -35t-18.5 -116v-111h589v-1010q0 -67 -16.5 -125.5t-53.5 -102t-97 -69t-148 -25.5q-33 0 -62 4.5t-59 13.5l10 136q1 20 12.5 26.5t44.5 6.5t55.5 6.5t35.5 22.5t18.5 41.5t5.5 64.5v830
h-327v-806h-254v806h-343v-806h-254z" />
    <glyph glyph-name="glyph411" horiz-adv-x="0" 
d="M0 1118zM121 1257q-38 0 -69.5 -10.5t-64 -25.5t-68 -33.5t-79.5 -33.5t-100.5 -25.5t-130.5 -10.5v151q62 0 111 10.5t90.5 26.5t78.5 34t75.5 34t81 26.5t95.5 10.5q74 0 126 -19t85 -56t48 -91.5t15 -126.5h-180q0 42 -9.5 68.5t-25.5 42.5t-36.5 22t-42.5 6z" />
    <glyph glyph-name="glyph413" horiz-adv-x="0" 
d="M0 1065zM20 1223h-11t-10 1q5 -30 23.5 -45.5t53.5 -23.5q28 -6 39 -15.5t11 -24.5v-49q-63 -1 -110 17t-78 49.5t-46.5 73t-15.5 88.5q0 70 38 109.5t110 39.5q60 0 93 -33t33 -84q0 -20 -6.5 -39t-22 -33t-40.5 -22.5t-61 -8.5z" />
    <glyph glyph-name="glyph415" horiz-adv-x="0" 
d="M262 1064zM336 1153q37 8 55.5 23t21.5 47q-5 -1 -10.5 -1.5t-11.5 -0.5q-36 0 -61 8.5t-40 22.5t-21.5 33t-6.5 39q0 51 33 84t93 33q36 0 63.5 -12.5t46.5 -34.5t28.5 -52.5t9.5 -65.5q0 -47 -15.5 -86t-46.5 -67t-78.5 -43.5t-110.5 -15.5v49q0 16 11.5 25t39.5 15z
" />
    <glyph glyph-name="glyph418" horiz-adv-x="1473" 
d="M0 0z" />
    </font>
</defs>
</svg>
