<svg 
 xmlns="http://www.w3.org/2000/svg"
 xmlns:xlink="http://www.w3.org/1999/xlink"
 width="44px" height="44px">
<path fill-rule="evenodd"  fill="rgb(255, 255, 255)"
 d="M15.334,-0.001 C19.777,-0.001 24.222,-0.001 28.666,-0.001 C28.666,5.110 28.666,10.222 28.666,15.333 C33.777,15.333 38.889,15.333 44.000,15.333 C44.000,19.777 44.000,24.221 44.000,28.665 C38.889,28.665 33.777,28.665 28.666,28.665 C28.666,33.776 28.666,38.888 28.666,43.999 C24.222,43.999 19.777,43.999 15.334,43.999 C15.334,38.888 15.334,33.776 15.334,28.665 C10.223,28.665 5.111,28.665 -0.000,28.665 C-0.000,24.221 -0.000,19.777 -0.000,15.333 C5.111,15.333 10.223,15.333 15.334,15.333 C15.334,10.222 15.334,5.110 15.334,-0.001 Z"/>
</svg>