<?xml version="1.0" standalone="no"?>
<!DOCTYPE svg PUBLIC "-//W3C//DTD SVG 1.1//EN" "http://www.w3.org/Graphics/SVG/1.1/DTD/svg11.dtd" >
<svg xmlns="http://www.w3.org/2000/svg" xmlns:xlink="http://www.w3.org/1999/xlink" version="1.1">
<metadata>
Created by FontForge 20160405 at Wed Jan  2 03:09:00 2019
 By www-data
Copyright (c) 2015 by Paula Nazal, Marcelo Quiroz and Daniel Hernandez. All rights reserved.
</metadata>
<defs>
<font id="Revista-Black" horiz-adv-x="600" >
  <font-face 
    font-family="Revista Black"
    font-weight="900"
    font-stretch="normal"
    units-per-em="1000"
    panose-1="0 0 10 0 0 0 0 0 0 0"
    ascent="750"
    descent="-250"
    x-height="551"
    cap-height="648"
    bbox="-188 -330 1351 882"
    underline-thickness="50"
    underline-position="-100"
    stemh="15"
    stemv="150"
    unicode-range="U+000D-FB02"
  />
<missing-glyph horiz-adv-x="630" 
d="M100 710h430v-710h-430v710zM165 675l150 -278l150 278h-300zM293 355l-153 284v-568zM338 355l152 -284v568zM315 313l-150 -278h300z" />
    <glyph glyph-name="fi" unicode="fi" horiz-adv-x="868" 
d="M505 551l6 -171h-9l-2 12c-14 83 -69 144 -156 144h-116v-272h69c61 0 83 40 94 94l1 5h9v-213h-9l-1 6c-8 54 -33 93 -94 93h-69v-234l57 -7v-8h-249v8l57 7v521l-57 7v8h469zM832 543l-57 -7v-521l57 -7v-8h-264v8l57 7v521l-57 7v8h264v-8z" />
    <glyph glyph-name="fl" unicode="fl" horiz-adv-x="1066" 
d="M505 551l6 -171h-9l-2 12c-14 83 -69 144 -156 144h-116v-272h69c61 0 83 40 94 94l1 5h9v-213h-9l-1 6c-8 54 -33 93 -94 93h-69v-234l57 -7v-8h-249v8l57 7v521l-57 7v8h469zM1040 161h9l-6 -161h-475v8l57 7v521l-57 7v8h264v-8l-57 -7v-521h106c88 0 146 53 158 139z
" />
    <glyph glyph-name=".notdef" horiz-adv-x="630" 
d="M100 710h430v-710h-430v710zM165 675l150 -278l150 278h-300zM293 355l-153 284v-568zM338 355l152 -284v568zM315 313l-150 -278h300z" />
    <glyph glyph-name="space" unicode=" " horiz-adv-x="236" 
 />
    <glyph glyph-name="A" unicode="A" horiz-adv-x="637" 
d="M598 15l65 -7v-8h-279v8l59 7l-68 190h-254l-25 -71c-6 -18 -9 -39 -9 -52c0 -47 37 -74 94 -74v-8h-208v8l62 7l227 633h112zM127 220h242l-119 333h-4z" />
    <glyph glyph-name="Aacute" unicode="&#xc1;" horiz-adv-x="637" 
d="M434 801l-155 -117h-22l60 126h117v-9zM598 15l65 -7v-8h-279v8l59 7l-68 190h-254l-25 -71c-6 -18 -9 -39 -9 -52c0 -47 37 -74 94 -74v-8h-208v8l62 7l227 633h112zM127 220h242l-119 333h-4z" />
    <glyph glyph-name="Abreve" unicode="&#x102;" horiz-adv-x="637" 
d="M326 687c-70 0 -117 40 -116 135h13c0 -26 23 -62 103 -62s105 36 105 62h13c1 -87 -47 -135 -118 -135zM598 15l65 -7v-8h-279v8l59 7l-68 190h-254l-25 -71c-6 -18 -9 -39 -9 -52c0 -47 37 -74 94 -74v-8h-208v8l62 7l227 633h112zM127 220h242l-119 333h-4z" />
    <glyph glyph-name="Acircumflex" unicode="&#xc2;" horiz-adv-x="637" 
d="M317 760l-122 -77h-12l90 136h87l90 -136h-12zM598 15l65 -7v-8h-279v8l59 7l-68 190h-254l-25 -71c-6 -18 -9 -39 -9 -52c0 -47 37 -74 94 -74v-8h-208v8l62 7l227 633h112zM127 220h242l-119 333h-4z" />
    <glyph glyph-name="Adieresis" unicode="&#xc4;" horiz-adv-x="637" 
d="M232 689c-30 0 -53 17 -53 50s23 51 53 51s53 -18 53 -51s-23 -50 -53 -50zM402 689c-30 0 -53 17 -53 50s23 51 53 51s53 -18 53 -51s-23 -50 -53 -50zM598 15l65 -7v-8h-279v8l59 7l-68 190h-254l-25 -71c-6 -18 -9 -39 -9 -52c0 -47 37 -74 94 -74v-8h-208v8l62 7
l227 633h112zM127 220h242l-119 333h-4z" />
    <glyph glyph-name="Agrave" unicode="&#xc0;" horiz-adv-x="637" 
d="M378 684h-22l-155 117v9h117zM598 15l65 -7v-8h-279v8l59 7l-68 190h-254l-25 -71c-6 -18 -9 -39 -9 -52c0 -47 37 -74 94 -74v-8h-208v8l62 7l227 633h112zM127 220h242l-119 333h-4z" />
    <glyph glyph-name="Amacron" unicode="&#x100;" horiz-adv-x="637" 
d="M446 746v-15h-260v15h260zM598 15l65 -7v-8h-279v8l59 7l-68 190h-254l-25 -71c-6 -18 -9 -39 -9 -52c0 -47 37 -74 94 -74v-8h-208v8l62 7l227 633h112zM127 220h242l-119 333h-4z" />
    <glyph glyph-name="Aogonek" unicode="&#x104;" horiz-adv-x="637" 
d="M560 0c-22 -12 -51 -37 -51 -88c0 -52 19 -77 53 -77c28 0 49 21 49 21l6 -11s-26 -30 -82 -30c-58 0 -95 25 -95 79c0 61 55 92 92 106h-148v8l59 7l-68 190h-254l-25 -71c-6 -18 -9 -39 -9 -52c0 -47 37 -74 94 -74v-8h-208v8l62 7l227 633h112l224 -633l65 -7v-8h-103
zM127 220h242l-119 333h-4z" />
    <glyph glyph-name="Aring" unicode="&#xc5;" horiz-adv-x="637" 
d="M317 697c-68 0 -105 37 -105 93c0 55 37 92 105 92s105 -37 105 -92c0 -56 -37 -93 -105 -93zM317 868c-26 0 -37 -31 -37 -78s11 -79 37 -79c25 0 37 32 37 79s-12 78 -37 78zM598 15l65 -7v-8h-279v8l59 7l-68 190h-254l-25 -71c-6 -18 -9 -39 -9 -52
c0 -47 37 -74 94 -74v-8h-208v8l62 7l227 633h112zM127 220h242l-119 333h-4z" />
    <glyph glyph-name="Atilde" unicode="&#xc3;" horiz-adv-x="637" 
d="M256 740c-37 0 -54 -31 -54 -31l-8 4s26 89 90 89c52 0 88 -61 131 -61c34 0 52 33 52 33l8 -5s-25 -88 -90 -88c-57 0 -82 59 -129 59zM598 15l65 -7v-8h-279v8l59 7l-68 190h-254l-25 -71c-6 -18 -9 -39 -9 -52c0 -47 37 -74 94 -74v-8h-208v8l62 7l227 633h112z
M127 220h242l-119 333h-4z" />
    <glyph glyph-name="AE" unicode="&#xc6;" horiz-adv-x="930" 
d="M876 189h9l-6 -189h-522v8l60 7v190h-244l-42 -71c-11 -18 -23 -39 -27 -52c-17 -47 9 -71 66 -71l-1 -11h-197v11l66 4l373 619l-54 6v8h498l6 -189h-9l-2 16c-12 93 -72 158 -162 158h-121v-305h68c62 0 102 50 107 110l1 11h9v-255h-9l-1 11c-5 60 -45 108 -107 108
h-68v-298h145c90 0 150 66 162 158zM182 220h235v393z" />
    <glyph glyph-name="AEacute" unicode="&#x1fc;" horiz-adv-x="930" 
d="M751 801l-155 -117h-22l60 126h117v-9zM876 189h9l-6 -189h-522v8l60 7v190h-244l-42 -71c-11 -18 -23 -39 -27 -52c-17 -47 9 -71 66 -71l-1 -11h-197v11l66 4l373 619l-54 6v8h498l6 -189h-9l-2 16c-12 93 -72 158 -162 158h-121v-305h68c62 0 102 50 107 110l1 11h9
v-255h-9l-1 11c-5 60 -45 108 -107 108h-68v-298h145c90 0 150 66 162 158zM182 220h235v393z" />
    <glyph glyph-name="B" unicode="B" horiz-adv-x="626" 
d="M365 325c137 0 229 -63 229 -158c0 -107 -110 -167 -275 -167h-281v8l60 7v618l-60 7v8h271c173 0 255 -66 255 -165c0 -94 -80 -156 -199 -156v-2zM309 633h-61v-300h83c49 0 68 60 68 150s-25 150 -90 150zM319 15c64 0 110 33 110 152s-40 151 -98 151h-83v-303h71z
" />
    <glyph glyph-name="C" unicode="C" horiz-adv-x="620" 
d="M574 188h9l-7 -149s-69 -47 -190 -47c-243 0 -350 153 -350 332s107 332 350 332c119 0 197 -47 197 -47v-154h-9l-8 26c-9 31 -59 160 -180 160c-109 0 -185 -70 -185 -317s76 -317 185 -317c121 0 171 131 182 161z" />
    <glyph glyph-name="Cacute" unicode="&#x106;" horiz-adv-x="620" 
d="M307 684l60 126h117v-9l-155 -117h-22zM574 188h9l-7 -149s-69 -47 -190 -47c-243 0 -350 153 -350 332s107 332 350 332c119 0 197 -47 197 -47v-154h-9l-8 26c-9 31 -59 160 -180 160c-109 0 -185 -70 -185 -317s76 -317 185 -317c121 0 171 131 182 161z" />
    <glyph glyph-name="Ccaron" unicode="&#x10c;" horiz-adv-x="620" 
d="M489 824h12l-90 -141h-87l-90 141h12l122 -82zM574 188h9l-7 -149s-69 -47 -190 -47c-243 0 -350 153 -350 332s107 332 350 332c119 0 197 -47 197 -47v-154h-9l-8 26c-9 31 -59 160 -180 160c-109 0 -185 -70 -185 -317s76 -317 185 -317c121 0 171 131 182 161z" />
    <glyph glyph-name="Ccedilla" unicode="&#xc7;" horiz-adv-x="620" 
d="M386 641c-109 0 -185 -70 -185 -317s76 -317 185 -317c121 0 171 131 182 161l6 20h9l-7 -149s-68 -47 -188 -47l-20 -33c77 -3 112 -35 112 -72c0 -36 -30 -68 -100 -68c-62 0 -91 28 -91 28l-6 43h6s23 -57 76 -57c21 0 42 12 42 54c0 50 -27 58 -65 58
c3 4 19 32 29 47c-233 7 -335 157 -335 332c0 179 107 332 350 332c119 0 197 -47 197 -47v-154h-9l-8 26c-9 31 -59 160 -180 160z" />
    <glyph glyph-name="Cdotaccent" unicode="&#x10a;" horiz-adv-x="620" 
d="M313 750c0 33 23 51 53 51s53 -18 53 -51s-23 -50 -53 -50s-53 17 -53 50zM574 188h9l-7 -149s-69 -47 -190 -47c-243 0 -350 153 -350 332s107 332 350 332c119 0 197 -47 197 -47v-154h-9l-8 26c-9 31 -59 160 -180 160c-109 0 -185 -70 -185 -317s76 -317 185 -317
c121 0 171 131 182 161z" />
    <glyph glyph-name="D" unicode="D" horiz-adv-x="696" 
d="M324 648c242 0 335 -142 335 -324s-100 -324 -370 -324h-251v8l60 7v618l-60 7v8h286zM289 15c121 0 205 62 205 309s-70 309 -170 309h-76v-618h41z" />
    <glyph glyph-name="Eth" unicode="&#xd0;" horiz-adv-x="696" 
d="M324 648c242 0 335 -142 335 -324s-100 -324 -370 -324h-251v8l60 7v295h-89v15h89v308l-60 7v8h286zM289 15c121 0 205 62 205 309s-70 309 -170 309h-76v-308h133v-15h-133v-295h41z" />
    <glyph glyph-name="Dcaron" unicode="&#x10e;" horiz-adv-x="696" 
d="M381 683h-87l-90 141h12l122 -82l121 82h12zM324 648c242 0 335 -142 335 -324s-100 -324 -370 -324h-251v8l60 7v618l-60 7v8h286zM289 15c121 0 205 62 205 309s-70 309 -170 309h-76v-618h41z" />
    <glyph glyph-name="Dcroat" unicode="&#x110;" horiz-adv-x="696" 
d="M324 648c242 0 335 -142 335 -324s-100 -324 -370 -324h-251v8l60 7v295h-89v15h89v308l-60 7v8h286zM289 15c121 0 205 62 205 309s-70 309 -170 309h-76v-308h133v-15h-133v-295h41z" />
    <glyph glyph-name="E" unicode="E" horiz-adv-x="601" 
d="M557 189h9l-6 -189h-522v8l60 7v618l-60 7v8h498l6 -189h-9l-2 16c-12 93 -72 158 -162 158h-121v-305h68c62 0 102 50 107 110l1 11h9v-255h-9l-1 11c-5 60 -45 108 -107 108h-68v-298h145c90 0 150 66 162 158z" />
    <glyph glyph-name="Eacute" unicode="&#xc9;" horiz-adv-x="601" 
d="M432 801l-155 -117h-22l60 126h117v-9zM557 189h9l-6 -189h-522v8l60 7v618l-60 7v8h498l6 -189h-9l-2 16c-12 93 -72 158 -162 158h-121v-305h68c62 0 102 50 107 110l1 11h9v-255h-9l-1 11c-5 60 -45 108 -107 108h-68v-298h145c90 0 150 66 162 158z" />
    <glyph glyph-name="Ecaron" unicode="&#x11a;" horiz-adv-x="601" 
d="M360 683h-87l-90 141h12l122 -82l121 82h12zM557 189h9l-6 -189h-522v8l60 7v618l-60 7v8h498l6 -189h-9l-2 16c-12 93 -72 158 -162 158h-121v-305h68c62 0 102 50 107 110l1 11h9v-255h-9l-1 11c-5 60 -45 108 -107 108h-68v-298h145c90 0 150 66 162 158z" />
    <glyph glyph-name="Ecircumflex" unicode="&#xca;" horiz-adv-x="601" 
d="M316 760l-122 -77h-12l90 136h87l90 -136h-12zM557 189h9l-6 -189h-522v8l60 7v618l-60 7v8h498l6 -189h-9l-2 16c-12 93 -72 158 -162 158h-121v-305h68c62 0 102 50 107 110l1 11h9v-255h-9l-1 11c-5 60 -45 108 -107 108h-68v-298h145c90 0 150 66 162 158z" />
    <glyph glyph-name="Edieresis" unicode="&#xcb;" horiz-adv-x="601" 
d="M231 689c-30 0 -53 17 -53 50s23 51 53 51s53 -18 53 -51s-23 -50 -53 -50zM401 689c-30 0 -53 17 -53 50s23 51 53 51s53 -18 53 -51s-23 -50 -53 -50zM557 189h9l-6 -189h-522v8l60 7v618l-60 7v8h498l6 -189h-9l-2 16c-12 93 -72 158 -162 158h-121v-305h68
c62 0 102 50 107 110l1 11h9v-255h-9l-1 11c-5 60 -45 108 -107 108h-68v-298h145c90 0 150 66 162 158z" />
    <glyph glyph-name="Edotaccent" unicode="&#x116;" horiz-adv-x="601" 
d="M315 700c-30 0 -53 17 -53 50s23 51 53 51s53 -18 53 -51s-23 -50 -53 -50zM557 189h9l-6 -189h-522v8l60 7v618l-60 7v8h498l6 -189h-9l-2 16c-12 93 -72 158 -162 158h-121v-305h68c62 0 102 50 107 110l1 11h9v-255h-9l-1 11c-5 60 -45 108 -107 108h-68v-298h145
c90 0 150 66 162 158z" />
    <glyph glyph-name="Egrave" unicode="&#xc8;" horiz-adv-x="601" 
d="M399 684h-22l-155 117v9h117zM557 189h9l-6 -189h-522v8l60 7v618l-60 7v8h498l6 -189h-9l-2 16c-12 93 -72 158 -162 158h-121v-305h68c62 0 102 50 107 110l1 11h9v-255h-9l-1 11c-5 60 -45 108 -107 108h-68v-298h145c90 0 150 66 162 158z" />
    <glyph glyph-name="Emacron" unicode="&#x112;" horiz-adv-x="601" 
d="M446 740v-15h-260v15h260zM557 189h9l-6 -189h-522v8l60 7v618l-60 7v8h498l6 -189h-9l-2 16c-12 93 -72 158 -162 158h-121v-305h68c62 0 102 50 107 110l1 11h9v-255h-9l-1 11c-5 60 -45 108 -107 108h-68v-298h145c90 0 150 66 162 158z" />
    <glyph glyph-name="Eogonek" unicode="&#x118;" horiz-adv-x="601" 
d="M580 -144l6 -11s-26 -30 -82 -30c-58 0 -95 25 -95 79c0 61 55 92 92 106h-463v8l60 7v618l-60 7v8h498l6 -189h-9l-2 16c-12 93 -72 158 -162 158h-121v-305h68c62 0 102 50 107 110l1 11h9v-255h-9l-1 11c-5 60 -45 108 -107 108h-68v-298h145c90 0 150 66 162 158
l2 16h9l-6 -189h-31c-22 -12 -51 -37 -51 -88c0 -52 19 -77 53 -77c28 0 49 21 49 21z" />
    <glyph glyph-name="F" unicode="F" horiz-adv-x="558" 
d="M531 648l6 -189h-9l-2 16c-12 93 -72 158 -162 158h-116v-313h66c62 0 92 43 97 103l1 11h9v-243h-9l-1 11c-5 60 -35 103 -97 103h-66v-290l60 -7v-8h-270v8l60 7v618l-60 7v8h493z" />
    <glyph glyph-name="G" unicode="G" horiz-adv-x="652" 
d="M640 245v-8l-57 -7v-181v-84h-9l-11 67c-25 -14 -86 -40 -177 -40c-243 0 -350 153 -350 332s107 332 350 332c119 0 197 -47 197 -47v-155h-9c-23 118 -99 187 -188 187c-109 0 -185 -70 -185 -317s76 -317 185 -317c17 0 33 3 47 7v216l-58 6v9h265z" />
    <glyph glyph-name="Gbreve" unicode="&#x11e;" horiz-adv-x="652" 
d="M376 687c-70 0 -117 40 -116 135h13c0 -26 23 -62 103 -62s105 36 105 62h13c1 -87 -47 -135 -118 -135zM640 245v-8l-57 -7v-181v-84h-9l-11 67c-25 -14 -86 -40 -177 -40c-243 0 -350 153 -350 332s107 332 350 332c119 0 197 -47 197 -47v-155h-9
c-23 118 -99 187 -188 187c-109 0 -185 -70 -185 -317s76 -317 185 -317c17 0 33 3 47 7v216l-58 6v9h265z" />
    <glyph glyph-name="Gcommaaccent" unicode="&#x122;" horiz-adv-x="652" 
d="M640 245v-8l-57 -7v-181v-84h-9l-11 67c-25 -14 -86 -40 -177 -40c-243 0 -350 153 -350 332s107 332 350 332c119 0 197 -47 197 -47v-155h-9c-23 118 -99 187 -188 187c-109 0 -185 -70 -185 -317s76 -317 185 -317c17 0 33 3 47 7v216l-58 6v9h265zM333 -36
c46 0 93 -26 93 -109c0 -126 -95 -141 -123 -141v13c46 0 108 34 108 128c0 9 -1 18 -2 26l-13 -2c-7 -30 -32 -46 -63 -46c-37 0 -65 23 -65 65c0 43 28 66 65 66z" />
    <glyph glyph-name="Gdotaccent" unicode="&#x120;" horiz-adv-x="652" 
d="M366 700c-30 0 -53 17 -53 50s23 51 53 51s53 -18 53 -51s-23 -50 -53 -50zM640 245v-8l-57 -7v-181v-84h-9l-11 67c-25 -14 -86 -40 -177 -40c-243 0 -350 153 -350 332s107 332 350 332c119 0 197 -47 197 -47v-155h-9c-23 118 -99 187 -188 187
c-109 0 -185 -70 -185 -317s76 -317 185 -317c17 0 33 3 47 7v216l-58 6v9h265z" />
    <glyph glyph-name="H" unicode="H" horiz-adv-x="747" 
d="M709 640l-60 -7v-617l60 -8v-8h-270v8l60 8v302h-251v-302l60 -8v-8h-270v8l60 8v617l-60 7v8h270v-8l-60 -7v-300h251v300l-60 7v8h270v-8z" />
    <glyph glyph-name="Hbar" unicode="&#x126;" horiz-adv-x="747" 
d="M709 640l-60 -7v-142h41v-15h-41v-460l60 -8v-8h-270v8l60 8v302h-251v-302l60 -8v-8h-270v8l60 8v460h-53v15h53v142l-60 7v8h270v-8l-60 -7v-142h251v142l-60 7v8h270v-8zM499 333v143h-251v-143h251z" />
    <glyph glyph-name="I" unicode="I" horiz-adv-x="346" 
d="M308 640l-60 -7v-618l60 -7v-8h-270v8l60 7v618l-60 7v8h270v-8z" />
    <glyph glyph-name="IJ" unicode="&#x132;" horiz-adv-x="758" 
d="M308 648v-8l-60 -7v-618l60 -7v-8h-270v8l60 7v618l-60 7v8h270zM733 648v-8l-60 -7v-443c0 -105 -45 -198 -193 -198c-74 0 -127 46 -127 98c0 33 26 60 59 60s59 -27 59 -60s-26 -59 -59 -59h-3v-5c16 -12 38 -20 65 -20c34 0 49 20 49 52v575l-60 7v8h270z" />
    <glyph glyph-name="Iacute" unicode="&#xcd;" horiz-adv-x="346" 
d="M290 801l-155 -117h-22l60 126h117v-9zM308 640l-60 -7v-618l60 -7v-8h-270v8l60 7v618l-60 7v8h270v-8z" />
    <glyph glyph-name="Icircumflex" unicode="&#xce;" horiz-adv-x="346" 
d="M173 760l-122 -77h-12l90 136h87l90 -136h-12zM308 640l-60 -7v-618l60 -7v-8h-270v8l60 7v618l-60 7v8h270v-8z" />
    <glyph glyph-name="Idieresis" unicode="&#xcf;" horiz-adv-x="346" 
d="M88 689c-30 0 -53 17 -53 50s23 51 53 51s53 -18 53 -51s-23 -50 -53 -50zM258 689c-30 0 -53 17 -53 50s23 51 53 51s53 -18 53 -51s-23 -50 -53 -50zM308 648v-8l-60 -7v-618l60 -7v-8h-270v8l60 7v618l-60 7v8h270z" />
    <glyph glyph-name="Idotaccent" unicode="&#x130;" horiz-adv-x="346" 
d="M172 700c-30 0 -53 17 -53 50s23 51 53 51s53 -18 53 -51s-23 -50 -53 -50zM308 640l-60 -7v-618l60 -7v-8h-270v8l60 7v618l-60 7v8h270v-8z" />
    <glyph glyph-name="Igrave" unicode="&#xcc;" horiz-adv-x="346" 
d="M234 684h-22l-155 117v9h117zM308 640l-60 -7v-618l60 -7v-8h-270v8l60 7v618l-60 7v8h270v-8z" />
    <glyph glyph-name="Imacron" unicode="&#x12a;" horiz-adv-x="346" 
d="M303 740v-15h-260v15h260zM308 640l-60 -7v-618l60 -7v-8h-270v8l60 7v618l-60 7v8h270v-8z" />
    <glyph glyph-name="Iogonek" unicode="&#x12e;" horiz-adv-x="346" 
d="M308 640l-60 -7v-618l60 -7v-8h-99c-22 -12 -51 -37 -51 -88c0 -52 19 -77 53 -77c28 0 49 21 49 21l6 -11s-26 -30 -82 -30c-58 0 -95 25 -95 79c0 61 55 92 92 106h-143v8l60 7v618l-60 7v8h270v-8z" />
    <glyph glyph-name="Itilde" unicode="&#x128;" horiz-adv-x="346" 
d="M104 740c-37 0 -54 -31 -54 -31l-8 4s26 89 90 89c52 0 88 -61 131 -61c34 0 52 33 52 33l8 -5s-25 -88 -90 -88c-57 0 -82 59 -129 59zM308 648v-8l-60 -7v-618l60 -7v-8h-270v8l60 7v618l-60 7v8h270z" />
    <glyph glyph-name="J" unicode="J" horiz-adv-x="412" 
d="M387 648v-8l-60 -7v-443c0 -105 -45 -198 -193 -198c-74 0 -127 46 -127 98c0 33 26 60 59 60s59 -27 59 -60s-26 -59 -59 -59h-3v-5c16 -12 38 -20 65 -20c34 0 49 20 49 52v575l-60 7v8h270z" />
    <glyph glyph-name="K" unicode="K" horiz-adv-x="662" 
d="M651 13l45 -5v-8h-209l-187 306h-52v-291l60 -7v-8h-270v8l60 7v618l-60 7v8h270v-8l-60 -7v-312h47l184 207c16 18 23 35 23 52c0 35 -27 60 -98 60v8h252v-8l-60 -7l-195 -216z" />
    <glyph glyph-name="Kcommaaccent" unicode="&#x136;" horiz-adv-x="662" 
d="M651 13l45 -5v-8h-209l-187 306h-52v-291l60 -7v-8h-270v8l60 7v618l-60 7v8h270v-8l-60 -7v-312h47l184 207c16 18 23 35 23 52c0 35 -27 60 -98 60v8h252v-8l-60 -7l-195 -216zM350 -36c46 0 93 -26 93 -109c0 -126 -95 -141 -123 -141v13c46 0 108 34 108 128
c0 9 -1 18 -2 26l-13 -2c-7 -30 -32 -46 -63 -46c-37 0 -65 23 -65 65c0 43 28 66 65 66z" />
    <glyph glyph-name="L" unicode="L" horiz-adv-x="548" 
d="M523 179h9l-6 -179h-488v8l60 7v618l-60 7v8h270v-8l-60 -7v-618h111c90 0 155 63 163 153z" />
    <glyph glyph-name="Lacute" unicode="&#x139;" horiz-adv-x="548" 
d="M287 801l-155 -117h-22l60 126h117v-9zM523 179h9l-6 -179h-488v8l60 7v618l-60 7v8h270v-8l-60 -7v-618h111c90 0 155 63 163 153z" />
    <glyph glyph-name="Lcaron" unicode="&#x13d;" horiz-adv-x="548" 
d="M523 179h9l-6 -179h-488v8l60 7v618l-60 7v8h270v-8l-60 -7v-618h111c90 0 155 63 163 153zM453 639l-95 -147h-12v156h107v-9z" />
    <glyph glyph-name="Lcommaaccent" unicode="&#x13b;" horiz-adv-x="548" 
d="M523 179h9l-6 -179h-488v8l60 7v618l-60 7v8h270v-8l-60 -7v-618h111c90 0 155 63 163 153zM264 -80c46 0 93 -26 93 -109c0 -126 -95 -141 -123 -141v13c46 0 108 34 108 128c0 9 -1 18 -2 26l-13 -2c-7 -30 -32 -46 -63 -46c-37 0 -65 23 -65 65c0 43 28 66 65 66z" />
    <glyph glyph-name="Ldot" unicode="&#x13f;" horiz-adv-x="548" 
d="M523 179h9l-6 -179h-488v8l60 7v618l-60 7v8h270v-8l-60 -7v-618h111c90 0 155 63 163 153zM373 213c-43 0 -76 25 -76 72s33 73 76 73s76 -26 76 -73s-33 -72 -76 -72z" />
    <glyph glyph-name="Lslash" unicode="&#x141;" horiz-adv-x="548" 
d="M523 179h9l-6 -179h-488v8l60 7v232l-89 -51l-8 12l97 56v369l-60 7v8h270v-8l-60 -7v-282l101 58l8 -12l-109 -63v-319h111c90 0 155 63 163 153z" />
    <glyph glyph-name="M" unicode="M" horiz-adv-x="839" 
d="M801 640l-60 -7v-618l60 -7v-8h-270v8l60 7v579h-2l-221 -599h-19l-232 597h-2v-508c0 -35 29 -73 70 -73v-11h-157v11c41 0 70 38 70 73v549l-60 7v8h225l163 -423h8l157 423h210v-8z" />
    <glyph glyph-name="N" unicode="N" horiz-adv-x="662" 
d="M477 648h157v-8c-36 0 -70 -28 -70 -71v-577h-37l-409 559h-2v-472c0 -43 34 -71 70 -71v-8h-157v8c34 0 68 28 70 71v501l-34 57l-26 3v8h188l318 -419h2v340c0 43 -34 71 -70 71v8z" />
    <glyph glyph-name="Nacute" unicode="&#x143;" horiz-adv-x="662" 
d="M485 801l-155 -117h-22l60 126h117v-9zM477 648h157v-8c-36 0 -70 -28 -70 -71v-577h-37l-409 559h-2v-472c0 -43 34 -71 70 -71v-8h-157v8c34 0 68 28 70 71v501l-34 57l-26 3v8h188l318 -419h2v340c0 43 -34 71 -70 71v8z" />
    <glyph glyph-name="Ncaron" unicode="&#x147;" horiz-adv-x="662" 
d="M388 683h-87l-90 141h12l122 -82l121 82h12zM477 648h157v-8c-36 0 -70 -28 -70 -71v-577h-37l-409 559h-2v-472c0 -43 34 -71 70 -71v-8h-157v8c34 0 68 28 70 71v501l-34 57l-26 3v8h188l318 -419h2v340c0 43 -34 71 -70 71v8z" />
    <glyph glyph-name="Ncommaaccent" unicode="&#x145;" horiz-adv-x="662" 
d="M477 648h157v-8c-36 0 -70 -28 -70 -71v-577h-37l-409 559h-2v-472c0 -43 34 -71 70 -71v-8h-157v8c34 0 68 28 70 71v501l-34 57l-26 3v8h188l318 -419h2v340c0 43 -34 71 -70 71v8zM312 -36c46 0 93 -26 93 -109c0 -126 -95 -141 -123 -141v13c46 0 108 34 108 128
c0 9 -1 18 -2 26l-13 -2c-7 -30 -32 -46 -63 -46c-37 0 -65 23 -65 65c0 43 28 66 65 66z" />
    <glyph glyph-name="Eng" unicode="&#x14a;" horiz-adv-x="662" 
d="M477 648h157v-8c-36 0 -70 -28 -70 -71v-630c0 -105 -36 -198 -148 -198c-74 0 -127 46 -127 98c0 33 26 60 59 60s59 -27 59 -60s-26 -59 -59 -59h-3v-4c18 -12 41 -21 71 -21c81 0 131 47 131 184v53h-20l-409 559h-2v-472c0 -43 34 -71 70 -71v-8h-157v8
c34 0 68 28 70 71v501l-34 57l-26 3v8h188l318 -419h2v340c0 43 -34 71 -70 71v8z" />
    <glyph glyph-name="Ntilde" unicode="&#xd1;" horiz-adv-x="662" 
d="M263 740c-37 0 -54 -31 -54 -31l-8 4s26 89 90 89c52 0 88 -61 131 -61c34 0 52 33 52 33l8 -5s-25 -88 -90 -88c-57 0 -82 59 -129 59zM477 648h157v-8c-36 0 -70 -28 -70 -71v-577h-37l-409 559h-2v-472c0 -43 34 -71 70 -71v-8h-157v8c34 0 68 28 70 71v501l-34 57
l-26 3v8h188l318 -419h2v340c0 43 -34 71 -70 71v8z" />
    <glyph glyph-name="O" unicode="O" horiz-adv-x="724" 
d="M362 656c207 0 327 -153 327 -332s-119 -332 -327 -332s-327 153 -327 332s120 332 327 332zM362 7c91 0 162 70 162 317s-72 317 -162 317s-162 -70 -162 -317s71 -317 162 -317z" />
    <glyph glyph-name="Oacute" unicode="&#xd3;" horiz-adv-x="724" 
d="M479 801l-155 -117h-22l60 126h117v-9zM362 656c207 0 327 -153 327 -332s-119 -332 -327 -332s-327 153 -327 332s120 332 327 332zM362 7c91 0 162 70 162 317s-72 317 -162 317s-162 -70 -162 -317s71 -317 162 -317z" />
    <glyph glyph-name="Ocircumflex" unicode="&#xd4;" horiz-adv-x="724" 
d="M362 760l-122 -77h-12l90 136h87l90 -136h-12zM362 656c207 0 327 -153 327 -332s-119 -332 -327 -332s-327 153 -327 332s120 332 327 332zM362 7c91 0 162 70 162 317s-72 317 -162 317s-162 -70 -162 -317s71 -317 162 -317z" />
    <glyph glyph-name="Odieresis" unicode="&#xd6;" horiz-adv-x="724" 
d="M277 689c-30 0 -53 17 -53 50s23 51 53 51s53 -18 53 -51s-23 -50 -53 -50zM447 689c-30 0 -53 17 -53 50s23 51 53 51s53 -18 53 -51s-23 -50 -53 -50zM362 656c207 0 327 -153 327 -332s-119 -332 -327 -332s-327 153 -327 332s120 332 327 332zM362 7
c91 0 162 70 162 317s-72 317 -162 317s-162 -70 -162 -317s71 -317 162 -317z" />
    <glyph glyph-name="Ograve" unicode="&#xd2;" horiz-adv-x="724" 
d="M423 684h-22l-155 117v9h117zM362 656c207 0 327 -153 327 -332s-119 -332 -327 -332s-327 153 -327 332s120 332 327 332zM362 7c91 0 162 70 162 317s-72 317 -162 317s-162 -70 -162 -317s71 -317 162 -317z" />
    <glyph glyph-name="Ohungarumlaut" unicode="&#x150;" horiz-adv-x="724" 
d="M417 801l-155 -117h-22l60 126h117v-9zM411 684h-22l60 126h117v-9zM362 656c207 0 327 -153 327 -332s-119 -332 -327 -332s-327 153 -327 332s120 332 327 332zM362 7c91 0 162 70 162 317s-72 317 -162 317s-162 -70 -162 -317s71 -317 162 -317z" />
    <glyph glyph-name="Omacron" unicode="&#x14c;" horiz-adv-x="724" 
d="M492 740v-15h-260v15h260zM362 656c207 0 327 -153 327 -332s-119 -332 -327 -332s-327 153 -327 332s120 332 327 332zM362 7c91 0 162 70 162 317s-72 317 -162 317s-162 -70 -162 -317s71 -317 162 -317z" />
    <glyph glyph-name="uni01EA" unicode="&#x1ea;" horiz-adv-x="724" 
d="M415 -4c-22 -9 -63 -33 -63 -94c0 -52 19 -77 53 -77c28 0 49 21 49 21l6 -11s-26 -30 -82 -30c-58 0 -95 25 -95 79c0 65 62 96 98 108h-19c-208 0 -327 153 -327 332s120 332 327 332s327 -153 327 -332c0 -163 -99 -305 -274 -328zM200 324c0 -247 71 -317 162 -317
s162 70 162 317s-72 317 -162 317s-162 -70 -162 -317z" />
    <glyph glyph-name="Oslash" unicode="&#xd8;" horiz-adv-x="725" 
d="M537 612c99 -58 153 -167 153 -288c0 -179 -117 -332 -325 -332c-64 0 -119 14 -165 38l-34 -59l-13 7l34 59c-99 59 -152 167 -152 287c0 179 119 332 330 332c61 0 114 -13 159 -36l26 44l13 -7zM200 324c0 -96 11 -165 29 -214l259 448c-29 61 -72 83 -123 83
c-94 0 -165 -70 -165 -317zM365 7c91 0 160 70 160 317c0 98 -11 168 -29 216l-259 -447c29 -64 75 -86 128 -86z" />
    <glyph glyph-name="Oslashacute" unicode="&#x1fe;" horiz-adv-x="725" 
d="M482 801l-155 -117h-22l60 126h117v-9zM537 612c99 -58 153 -167 153 -288c0 -179 -117 -332 -325 -332c-64 0 -119 14 -165 38l-34 -59l-13 7l34 59c-99 59 -152 167 -152 287c0 179 119 332 330 332c61 0 114 -13 159 -36l26 44l13 -7zM200 324c0 -96 11 -165 29 -214
l259 448c-29 61 -72 83 -123 83c-94 0 -165 -70 -165 -317zM365 7c91 0 160 70 160 317c0 98 -11 168 -29 216l-259 -447c29 -64 75 -86 128 -86z" />
    <glyph glyph-name="Otilde" unicode="&#xd5;" horiz-adv-x="724" 
d="M281 740c-37 0 -54 -31 -54 -31l-8 4s26 89 90 89c52 0 88 -61 131 -61c34 0 52 33 52 33l8 -5s-25 -88 -90 -88c-57 0 -82 59 -129 59zM362 656c207 0 327 -153 327 -332s-119 -332 -327 -332s-327 153 -327 332s120 332 327 332zM362 7c91 0 162 70 162 317
s-72 317 -162 317s-162 -70 -162 -317s71 -317 162 -317z" />
    <glyph glyph-name="OE" unicode="&#x152;" horiz-adv-x="1052" 
d="M1008 189h9l-6 -189h-472v38c-48 -29 -108 -46 -177 -46c-208 0 -327 153 -327 332s120 332 327 332c69 0 129 -17 177 -46v38h448l6 -189h-9l-2 16c-12 93 -72 158 -162 158h-131v-300h81c62 0 92 43 97 103l1 11h9v-243h-9l-1 11c-5 60 -35 103 -97 103h-81v-303h155
c90 0 150 66 162 158zM362 7c91 0 162 70 162 317s-72 317 -162 317s-162 -70 -162 -317s71 -317 162 -317z" />
    <glyph glyph-name="P" unicode="P" horiz-adv-x="595" 
d="M324 648c186 0 255 -83 255 -184c0 -102 -69 -184 -255 -184h-76v-265l60 -7v-8h-270v8l60 7v618l-60 7v8h286zM324 295c52 0 90 34 90 169s-38 169 -90 169h-76v-338h76z" />
    <glyph glyph-name="Thorn" unicode="&#xde;" horiz-adv-x="583" 
d="M309 512c186 0 255 -83 255 -184c0 -102 -69 -184 -255 -184h-61v-129l60 -7v-8h-270v8l60 7v618l-60 7v8h270v-8l-60 -7v-121h61zM309 159c52 0 90 34 90 169s-38 169 -90 169h-61v-338h61z" />
    <glyph glyph-name="Q" unicode="Q" horiz-adv-x="725" 
d="M690 324c0 -161 -94 -300 -264 -327v-31c0 -68 55 -144 124 -150l25 -2v-9h-25c-170 0 -254 84 -254 181v12c-168 29 -261 168 -261 326c0 179 119 332 330 332c208 0 325 -153 325 -332zM200 324c0 -247 71 -317 165 -317c91 0 160 70 160 317s-69 317 -160 317
c-94 0 -165 -70 -165 -317z" />
    <glyph glyph-name="R" unicode="R" horiz-adv-x="665" 
d="M653 117h9v-19c0 -64 -41 -106 -127 -106c-74 0 -123 47 -123 118v96c0 54 -30 94 -87 94h-77v-285l60 -6v-9h-270v8l60 7v618l-60 7v8h288c179 0 246 -78 246 -174c0 -90 -59 -165 -203 -165v-3c132 0 192 -59 192 -149v-59c0 -37 10 -62 39 -62c33 0 47 27 51 62z
M248 315h78c46 0 81 32 81 159s-35 159 -81 159h-78v-318z" />
    <glyph glyph-name="Racute" unicode="&#x154;" horiz-adv-x="665" 
d="M427 801l-155 -117h-22l60 126h117v-9zM653 117h9v-19c0 -64 -41 -106 -127 -106c-74 0 -123 47 -123 118v96c0 54 -30 94 -87 94h-77v-285l60 -6v-9h-270v8l60 7v618l-60 7v8h288c179 0 246 -78 246 -174c0 -90 -59 -165 -203 -165v-3c132 0 192 -59 192 -149v-59
c0 -37 10 -62 39 -62c33 0 47 27 51 62zM248 315h78c46 0 81 32 81 159s-35 159 -81 159h-78v-318z" />
    <glyph glyph-name="Rcaron" unicode="&#x158;" horiz-adv-x="665" 
d="M355 683h-87l-90 141h12l122 -82l121 82h12zM653 117h9v-19c0 -64 -41 -106 -127 -106c-74 0 -123 47 -123 118v96c0 54 -30 94 -87 94h-77v-285l60 -6v-9h-270v8l60 7v618l-60 7v8h288c179 0 246 -78 246 -174c0 -90 -59 -165 -203 -165v-3c132 0 192 -59 192 -149v-59
c0 -37 10 -62 39 -62c33 0 47 27 51 62zM248 315h78c46 0 81 32 81 159s-35 159 -81 159h-78v-318z" />
    <glyph glyph-name="Rcommaaccent" unicode="&#x156;" horiz-adv-x="665" 
d="M653 117h9v-19c0 -64 -41 -106 -127 -106c-74 0 -123 47 -123 118v96c0 54 -30 94 -87 94h-77v-285l60 -6v-9h-270v8l60 7v618l-60 7v8h288c179 0 246 -78 246 -174c0 -90 -59 -165 -203 -165v-3c132 0 192 -59 192 -149v-59c0 -37 10 -62 39 -62c33 0 47 27 51 62z
M248 315h78c46 0 81 32 81 159s-35 159 -81 159h-78v-318zM333 -36c46 0 93 -26 93 -109c0 -126 -95 -141 -123 -141v13c46 0 108 34 108 128c0 9 -1 18 -2 26l-13 -2c-7 -30 -32 -46 -63 -46c-37 0 -65 23 -65 65c0 43 28 66 65 66z" />
    <glyph glyph-name="S" unicode="S" horiz-adv-x="529" 
d="M278 656c107 0 177 -40 177 -40l4 -151h-9l-4 21c-10 42 -46 155 -166 155c-69 0 -108 -30 -108 -87c0 -149 320 -173 320 -369c0 -117 -98 -193 -234 -193c-110 0 -206 43 -206 43l-8 153h9l7 -25c19 -53 69 -156 201 -156c72 0 107 35 107 100c0 166 -320 176 -320 365
c0 144 127 184 230 184z" />
    <glyph glyph-name="Sacute" unicode="&#x15a;" horiz-adv-x="529" 
d="M217 684l60 126h117v-9l-155 -117h-22zM278 656c107 0 177 -40 177 -40l4 -151h-9l-4 21c-10 42 -46 155 -166 155c-69 0 -108 -30 -108 -87c0 -149 320 -173 320 -369c0 -117 -98 -193 -234 -193c-110 0 -206 43 -206 43l-8 153h9l7 -25c19 -53 69 -156 201 -156
c72 0 107 35 107 100c0 166 -320 176 -320 365c0 144 127 184 230 184z" />
    <glyph glyph-name="Scaron" unicode="&#x160;" horiz-adv-x="529" 
d="M399 824h12l-90 -141h-87l-90 141h12l122 -82zM278 656c107 0 177 -40 177 -40l4 -151h-9l-4 21c-10 42 -46 155 -166 155c-69 0 -108 -30 -108 -87c0 -149 320 -173 320 -369c0 -117 -98 -193 -234 -193c-110 0 -206 43 -206 43l-8 153h9l7 -25c19 -53 69 -156 201 -156
c72 0 107 35 107 100c0 166 -320 176 -320 365c0 144 127 184 230 184z" />
    <glyph glyph-name="Scedilla" unicode="&#x15e;" horiz-adv-x="529" 
d="M492 185c0 -113 -92 -188 -221 -193l-20 -33c77 -3 112 -35 112 -72c0 -36 -30 -68 -100 -68c-62 0 -91 28 -91 28l-6 43h6s23 -57 76 -57c21 0 42 12 42 54c0 50 -27 58 -65 58c3 4 19 31 29 47c-109 1 -202 43 -202 43l-8 153h9l7 -25c19 -53 69 -156 201 -156
c72 0 107 35 107 100c0 166 -320 176 -320 365c0 144 127 184 230 184c107 0 177 -40 177 -40l4 -151h-9l-4 21c-10 42 -46 155 -166 155c-69 0 -108 -30 -108 -87c0 -149 320 -173 320 -369z" />
    <glyph glyph-name="Scommaaccent" unicode="&#x218;" horiz-adv-x="529" 
d="M172 554c0 -149 320 -173 320 -369c0 -117 -98 -193 -234 -193c-110 0 -206 43 -206 43l-8 153h9l7 -25c19 -53 69 -156 201 -156c72 0 107 35 107 100c0 166 -320 176 -320 365c0 144 127 184 230 184c107 0 177 -40 177 -40l4 -151h-9l-4 21c-10 42 -46 155 -166 155
c-69 0 -108 -30 -108 -87zM248 -80c46 0 93 -26 93 -109c0 -126 -95 -141 -123 -141v13c46 0 108 34 108 128c0 9 -1 18 -2 26l-13 -2c-7 -30 -32 -46 -63 -46c-37 0 -65 23 -65 65c0 43 28 66 65 66z" />
    <glyph glyph-name="T" unicode="T" horiz-adv-x="622" 
d="M599 648l6 -189h-9l-2 16c-12 93 -72 158 -162 158h-46v-618l60 -7v-8h-270v8l60 7v618h-46c-90 0 -150 -66 -162 -158l-2 -16h-9l6 189h576z" />
    <glyph glyph-name="Tbar" unicode="&#x166;" horiz-adv-x="622" 
d="M599 648l6 -189h-9l-2 16c-12 93 -72 158 -162 158h-46v-299h92v-15h-92v-304l60 -7v-8h-270v8l60 7v304h-96v15h96v299h-46c-90 0 -150 -66 -162 -158l-2 -16h-9l6 189h576z" />
    <glyph glyph-name="Tcaron" unicode="&#x164;" horiz-adv-x="622" 
d="M355 683h-87l-90 141h12l122 -82l121 82h12zM599 648l6 -189h-9l-2 16c-12 93 -72 158 -162 158h-46v-618l60 -7v-8h-270v8l60 7v618h-46c-90 0 -150 -66 -162 -158l-2 -16h-9l6 189h576z" />
    <glyph glyph-name="uni0162" unicode="&#x162;" horiz-adv-x="622" 
d="M599 648l6 -189h-9l-2 16c-12 93 -72 158 -162 158h-46v-618l60 -7v-8h-126l-25 -41c77 -3 112 -35 112 -72c0 -36 -30 -68 -100 -68c-62 0 -91 28 -91 28l-6 43h6s23 -57 76 -57c21 0 42 12 42 54c0 50 -27 58 -65 58c4 5 27 44 33 55h-126v8l60 7v618h-46
c-90 0 -150 -66 -162 -158l-2 -16h-9l6 189h576z" />
    <glyph glyph-name="uni021A" unicode="&#x21a;" horiz-adv-x="622" 
d="M599 648l6 -189h-9l-2 16c-12 93 -72 158 -162 158h-46v-618l60 -7v-8h-270v8l60 7v618h-46c-90 0 -150 -66 -162 -158l-2 -16h-9l6 189h576zM307 -33c46 0 93 -26 93 -109c0 -126 -95 -141 -123 -141v13c46 0 108 34 108 128c0 9 -1 18 -2 26l-13 -2
c-7 -30 -32 -46 -63 -46c-37 0 -65 23 -65 65c0 43 28 66 65 66z" />
    <glyph glyph-name="U" unicode="U" horiz-adv-x="651" 
d="M639 648v-8c-36 0 -70 -28 -70 -71v-341c0 -171 -109 -236 -209 -236c-214 0 -279 110 -279 248v393l-59 7v8h269v-8l-60 -7v-465c0 -96 39 -161 129 -161c83 0 192 51 192 221v341c0 43 -34 71 -70 71v8h157z" />
    <glyph glyph-name="Uacute" unicode="&#xda;" horiz-adv-x="651" 
d="M497 801l-155 -117h-22l60 126h117v-9zM639 648v-8c-36 0 -70 -28 -70 -71v-341c0 -171 -109 -236 -209 -236c-214 0 -279 110 -279 248v393l-59 7v8h269v-8l-60 -7v-465c0 -96 39 -161 129 -161c83 0 192 51 192 221v341c0 43 -34 71 -70 71v8h157z" />
    <glyph glyph-name="Ucircumflex" unicode="&#xdb;" horiz-adv-x="651" 
d="M382 760l-122 -77h-12l90 136h87l90 -136h-12zM639 648v-8c-36 0 -70 -28 -70 -71v-341c0 -171 -109 -236 -209 -236c-214 0 -279 110 -279 248v393l-59 7v8h269v-8l-60 -7v-465c0 -96 39 -161 129 -161c83 0 192 51 192 221v341c0 43 -34 71 -70 71v8h157z" />
    <glyph glyph-name="Udieresis" unicode="&#xdc;" horiz-adv-x="651" 
d="M297 689c-30 0 -53 17 -53 50s23 51 53 51s53 -18 53 -51s-23 -50 -53 -50zM467 689c-30 0 -53 17 -53 50s23 51 53 51s53 -18 53 -51s-23 -50 -53 -50zM639 648v-8c-36 0 -70 -28 -70 -71v-341c0 -171 -109 -236 -209 -236c-214 0 -279 110 -279 248v393l-59 7v8h269v-8
l-60 -7v-465c0 -96 39 -161 129 -161c83 0 192 51 192 221v341c0 43 -34 71 -70 71v8h157z" />
    <glyph glyph-name="Ugrave" unicode="&#xd9;" horiz-adv-x="651" 
d="M402 684h-22l-155 117v9h117zM639 648v-8c-36 0 -70 -28 -70 -71v-341c0 -171 -109 -236 -209 -236c-214 0 -279 110 -279 248v393l-59 7v8h269v-8l-60 -7v-465c0 -96 39 -161 129 -161c83 0 192 51 192 221v341c0 43 -34 71 -70 71v8h157z" />
    <glyph glyph-name="Uhungarumlaut" unicode="&#x170;" horiz-adv-x="651" 
d="M437 801l-155 -117h-22l60 126h117v-9zM431 684h-22l60 126h117v-9zM639 648v-8c-36 0 -70 -28 -70 -71v-341c0 -171 -109 -236 -209 -236c-214 0 -279 110 -279 248v393l-59 7v8h269v-8l-60 -7v-465c0 -96 39 -161 129 -161c83 0 192 51 192 221v341c0 43 -34 71 -70 71
v8h157z" />
    <glyph glyph-name="Umacron" unicode="&#x16a;" horiz-adv-x="651" 
d="M512 740v-15h-260v15h260zM639 648v-8c-36 0 -70 -28 -70 -71v-341c0 -171 -109 -236 -209 -236c-214 0 -279 110 -279 248v393l-59 7v8h269v-8l-60 -7v-465c0 -96 39 -161 129 -161c83 0 192 51 192 221v341c0 43 -34 71 -70 71v8h157z" />
    <glyph glyph-name="Uogonek" unicode="&#x172;" horiz-adv-x="651" 
d="M639 648v-8c-36 0 -70 -28 -70 -71v-341c0 -138 -71 -207 -151 -228c-23 -12 -54 -37 -54 -90c0 -52 19 -77 53 -77c28 0 49 21 49 21l6 -11s-26 -30 -82 -30c-58 0 -95 25 -95 79s43 84 78 100h-13c-214 0 -279 110 -279 248v393l-59 7v8h269v-8l-60 -7v-465
c0 -96 39 -161 129 -161c83 0 192 51 192 221v341c0 43 -34 71 -70 71v8h157z" />
    <glyph glyph-name="Uring" unicode="&#x16e;" horiz-adv-x="651" 
d="M382 697c-68 0 -105 37 -105 93c0 55 37 92 105 92s105 -37 105 -92c0 -56 -37 -93 -105 -93zM382 868c-26 0 -37 -31 -37 -78s11 -79 37 -79c25 0 37 32 37 79s-12 78 -37 78zM639 648v-8c-36 0 -70 -28 -70 -71v-341c0 -171 -109 -236 -209 -236
c-214 0 -279 110 -279 248v393l-59 7v8h269v-8l-60 -7v-465c0 -96 39 -161 129 -161c83 0 192 51 192 221v341c0 43 -34 71 -70 71v8h157z" />
    <glyph glyph-name="Utilde" unicode="&#x168;" horiz-adv-x="651" 
d="M301 740c-37 0 -54 -31 -54 -31l-8 4s26 89 90 89c52 0 88 -61 131 -61c34 0 52 33 52 33l8 -5s-25 -88 -90 -88c-57 0 -82 59 -129 59zM639 648v-8c-36 0 -70 -28 -70 -71v-341c0 -171 -109 -236 -209 -236c-214 0 -279 110 -279 248v393l-59 7v8h269v-8l-60 -7v-465
c0 -96 39 -161 129 -161c83 0 192 51 192 221v341c0 43 -34 71 -70 71v8h157z" />
    <glyph glyph-name="V" unicode="V" horiz-adv-x="633" 
d="M660 648v-8l-63 -7l-225 -633h-108l-225 633l-65 7v8h279v-8l-59 -6l191 -539h4l144 406c11 31 12 50 12 65c0 45 -39 74 -96 74v8h211z" />
    <glyph glyph-name="W" unicode="W" horiz-adv-x="902" 
d="M-27 640v8h60l5 -15zM922 648v-8l-65 -7l-193 -633h-111l-89 324l-103 -324h-111l-217 648h219v-8l-59 -7l181 -539l82 259l-76 280l-64 7v8h279v-8l-60 -7l141 -536l124 416c6 19 8 37 8 52c0 48 -37 75 -94 75v8h208z" />
    <glyph glyph-name="Wacute" unicode="&#x1e82;" horiz-adv-x="902" 
d="M574 801l-155 -117h-22l60 126h117v-9zM-27 640v8h60l5 -15zM922 648v-8l-65 -7l-193 -633h-111l-89 324l-103 -324h-111l-217 648h219v-8l-59 -7l181 -539l82 259l-76 280l-64 7v8h279v-8l-60 -7l141 -536l124 416c6 19 8 37 8 52c0 48 -37 75 -94 75v8h208z" />
    <glyph glyph-name="Wcircumflex" unicode="&#x174;" horiz-adv-x="902" 
d="M457 760l-122 -77h-12l90 136h87l90 -136h-12zM-27 640v8h60l5 -15zM922 648v-8l-65 -7l-193 -633h-111l-89 324l-103 -324h-111l-217 648h219v-8l-59 -7l181 -539l82 259l-76 280l-64 7v8h279v-8l-60 -7l141 -536l124 416c6 19 8 37 8 52c0 48 -37 75 -94 75v8h208z" />
    <glyph glyph-name="Wdieresis" unicode="&#x1e84;" horiz-adv-x="902" 
d="M372 689c-30 0 -53 17 -53 50s23 51 53 51s53 -18 53 -51s-23 -50 -53 -50zM542 689c-30 0 -53 17 -53 50s23 51 53 51s53 -18 53 -51s-23 -50 -53 -50zM-27 640v8h60l5 -15zM922 648v-8l-65 -7l-193 -633h-111l-89 324l-103 -324h-111l-217 648h219v-8l-59 -7l181 -539
l82 259l-76 280l-64 7v8h279v-8l-60 -7l141 -536l124 416c6 19 8 37 8 52c0 48 -37 75 -94 75v8h208z" />
    <glyph glyph-name="Wgrave" unicode="&#x1e80;" horiz-adv-x="902" 
d="M518 684h-22l-155 117v9h117zM-27 640v8h60l5 -15zM922 648v-8l-65 -7l-193 -633h-111l-89 324l-103 -324h-111l-217 648h219v-8l-59 -7l181 -539l82 259l-76 280l-64 7v8h279v-8l-60 -7l141 -536l124 416c6 19 8 37 8 52c0 48 -37 75 -94 75v8h208z" />
    <glyph glyph-name="X" unicode="X" horiz-adv-x="620" 
d="M574 15l66 -7v-8h-280v8l55 7l-154 258l-115 -158c-11 -15 -22 -35 -22 -54s12 -53 70 -53v-8h-213v8l68 7v-1l203 273l-207 346l-66 7v8h280v-8l-55 -7l149 -249l103 143c15 21 24 46 24 63c0 19 -8 50 -66 50v8h209v-8l-68 -7l-193 -263z" />
    <glyph glyph-name="Y" unicode="Y" horiz-adv-x="602" 
d="M612 648v-8l-65 -7v1l-168 -355v-264l60 -7v-8h-270v8l60 7v264l-187 354l-66 7v8h281v-8l-56 -7l166 -326h8l90 191c15 33 20 60 20 87c0 28 -22 55 -67 55v8h194z" />
    <glyph glyph-name="Yacute" unicode="&#xdd;" horiz-adv-x="602" 
d="M437 801l-155 -117h-22l60 126h117v-9zM612 648v-8l-65 -7v1l-168 -355v-264l60 -7v-8h-270v8l60 7v264l-187 354l-66 7v8h281v-8l-56 -7l166 -326h8l90 191c15 33 20 60 20 87c0 28 -22 55 -67 55v8h194z" />
    <glyph glyph-name="Ycircumflex" unicode="&#x176;" horiz-adv-x="602" 
d="M343 760l-122 -77h-12l90 136h87l90 -136h-12zM612 648v-8l-65 -7v1l-168 -355v-264l60 -7v-8h-270v8l60 7v264l-187 354l-66 7v8h281v-8l-56 -7l166 -326h8l90 191c15 33 20 60 20 87c0 28 -22 55 -67 55v8h194z" />
    <glyph glyph-name="Ydieresis" unicode="&#x178;" horiz-adv-x="602" 
d="M258 689c-30 0 -53 17 -53 50s23 51 53 51s53 -18 53 -51s-23 -50 -53 -50zM428 689c-30 0 -53 17 -53 50s23 51 53 51s53 -18 53 -51s-23 -50 -53 -50zM612 648v-8l-65 -7v1l-168 -355v-264l60 -7v-8h-270v8l60 7v264l-187 354l-66 7v8h281v-8l-56 -7l166 -326h8l90 191
c15 33 20 60 20 87c0 28 -22 55 -67 55v8h194z" />
    <glyph glyph-name="Ygrave" unicode="&#x1ef2;" horiz-adv-x="602" 
d="M368 684h-22l-155 117v9h117zM612 648v-8l-65 -7v1l-168 -355v-264l60 -7v-8h-270v8l60 7v264l-187 354l-66 7v8h281v-8l-56 -7l166 -326h8l90 191c15 33 20 60 20 87c0 28 -22 55 -67 55v8h194z" />
    <glyph glyph-name="uni1EF8" unicode="&#x1ef8;" horiz-adv-x="602" 
d="M253 740c-37 0 -54 -31 -54 -31l-8 4s26 89 90 89c52 0 88 -61 131 -61c34 0 52 33 52 33l8 -5s-25 -88 -90 -88c-57 0 -82 59 -129 59zM612 648v-8l-65 -7v1l-168 -355v-264l60 -7v-8h-270v8l60 7v264l-187 354l-66 7v8h281v-8l-56 -7l166 -326h8l90 191
c15 33 20 60 20 87c0 28 -22 55 -67 55v8h194z" />
    <glyph glyph-name="Z" unicode="Z" horiz-adv-x="569" 
d="M534 189h9l-6 -189h-504v10l336 623h-147c-90 0 -162 -66 -174 -158l-2 -16h-9l6 189h488v-10l-332 -623h161c90 0 160 66 172 158z" />
    <glyph glyph-name="Zacute" unicode="&#x179;" horiz-adv-x="569" 
d="M404 801l-155 -117h-22l60 126h117v-9zM534 189h9l-6 -189h-504v10l336 623h-147c-90 0 -162 -66 -174 -158l-2 -16h-9l6 189h488v-10l-332 -623h161c90 0 160 66 172 158z" />
    <glyph glyph-name="Zcaron" unicode="&#x17d;" horiz-adv-x="569" 
d="M331 683h-87l-90 141h12l122 -82l121 82h12zM534 189h9l-6 -189h-504v10l336 623h-147c-90 0 -162 -66 -174 -158l-2 -16h-9l6 189h488v-10l-332 -623h161c90 0 160 66 172 158z" />
    <glyph glyph-name="Zdotaccent" unicode="&#x17b;" horiz-adv-x="569" 
d="M286 700c-30 0 -53 17 -53 50s23 51 53 51s53 -18 53 -51s-23 -50 -53 -50zM534 189h9l-6 -189h-504v10l336 623h-147c-90 0 -162 -66 -174 -158l-2 -16h-9l6 189h488v-10l-332 -623h161c90 0 160 66 172 158z" />
    <glyph glyph-name="a" unicode="a" horiz-adv-x="610" 
d="M574 17l64 -9v-8h-277v8l54 9l-64 157h-234l-19 -48c-6 -15 -9 -33 -9 -44c0 -39 31 -74 86 -74v-8h-199v8l61 9l212 534h108zM123 189h222l-109 267h-8z" />
    <glyph glyph-name="aacute" unicode="&#xe1;" horiz-adv-x="610" 
d="M396 714l-135 -127h-12l40 136h107v-9zM574 17l64 -9v-8h-277v8l54 9l-64 157h-234l-19 -48c-6 -15 -9 -33 -9 -44c0 -39 31 -74 86 -74v-8h-199v8l61 9l212 534h108zM123 189h222l-109 267h-8z" />
    <glyph glyph-name="abreve" unicode="&#x103;" horiz-adv-x="610" 
d="M309 590c-60 0 -107 40 -106 145h13c0 -36 23 -72 93 -72s95 36 95 72h13c1 -97 -47 -145 -108 -145zM574 17l64 -9v-8h-277v8l54 9l-64 157h-234l-19 -48c-6 -15 -9 -33 -9 -44c0 -39 31 -74 86 -74v-8h-199v8l61 9l212 534h108zM123 189h222l-109 267h-8z" />
    <glyph glyph-name="acircumflex" unicode="&#xe2;" horiz-adv-x="610" 
d="M309 673l-122 -87h-12l100 146h67l100 -146h-12zM574 17l64 -9v-8h-277v8l54 9l-64 157h-234l-19 -48c-6 -15 -9 -33 -9 -44c0 -39 31 -74 86 -74v-8h-199v8l61 9l212 534h108zM123 189h222l-109 267h-8z" />
    <glyph glyph-name="adieresis" unicode="&#xe4;" horiz-adv-x="610" 
d="M224 592c-30 0 -53 17 -53 50s23 51 53 51s53 -18 53 -51s-23 -50 -53 -50zM394 592c-30 0 -53 17 -53 50s23 51 53 51s53 -18 53 -51s-23 -50 -53 -50zM574 17l64 -9v-8h-277v8l54 9l-64 157h-234l-19 -48c-6 -15 -9 -33 -9 -44c0 -39 31 -74 86 -74v-8h-199v8l61 9
l212 534h108zM123 189h222l-109 267h-8z" />
    <glyph glyph-name="agrave" unicode="&#xe0;" horiz-adv-x="610" 
d="M352 587h-12l-135 127v9h107zM574 17l64 -9v-8h-277v8l54 9l-64 157h-234l-19 -48c-6 -15 -9 -33 -9 -44c0 -39 31 -74 86 -74v-8h-199v8l61 9l212 534h108zM123 189h222l-109 267h-8z" />
    <glyph glyph-name="amacron" unicode="&#x101;" horiz-adv-x="610" 
d="M438 649v-15h-260v15h260zM574 17l64 -9v-8h-277v8l54 9l-64 157h-234l-19 -48c-6 -15 -9 -33 -9 -44c0 -39 31 -74 86 -74v-8h-199v8l61 9l212 534h108zM123 189h222l-109 267h-8z" />
    <glyph glyph-name="aogonek" unicode="&#x105;" horiz-adv-x="610" 
d="M574 17l64 -9v-8h-125c-23 -12 -53 -37 -53 -89s19 -77 53 -77c28 0 49 21 49 21l6 -11s-26 -30 -82 -30c-58 0 -95 25 -95 79c0 62 57 93 94 107h-124v8l54 9l-64 157h-234l-19 -48c-6 -15 -9 -33 -9 -44c0 -39 31 -74 86 -74v-8h-199v8l61 9l212 534h108zM123 189h222
l-109 267h-8z" />
    <glyph glyph-name="aring" unicode="&#xe5;" horiz-adv-x="610" 
d="M309 600c-68 0 -105 37 -105 93c0 55 37 92 105 92s105 -37 105 -92c0 -56 -37 -93 -105 -93zM309 771c-26 0 -37 -31 -37 -78s11 -79 37 -79c25 0 37 32 37 79s-12 78 -37 78zM574 17l64 -9v-8h-277v8l54 9l-64 157h-234l-19 -48c-6 -15 -9 -33 -9 -44
c0 -39 31 -74 86 -74v-8h-199v8l61 9l212 534h108zM123 189h222l-109 267h-8z" />
    <glyph glyph-name="atilde" unicode="&#xe3;" horiz-adv-x="610" 
d="M240 643c-37 0 -54 -31 -54 -31l-8 4s26 89 90 89c52 0 88 -61 131 -61c34 0 52 33 52 33l8 -5s-25 -88 -90 -88c-57 0 -82 59 -129 59zM574 17l64 -9v-8h-277v8l54 9l-64 157h-234l-19 -48c-6 -15 -9 -33 -9 -44c0 -39 31 -74 86 -74v-8h-199v8l61 9l212 534h108z
M123 189h222l-109 267h-8z" />
    <glyph glyph-name="ae" unicode="&#xe6;" horiz-adv-x="893" 
d="M828 171h9l-6 -171h-486v8l57 7v159h-235l-42 -60c-11 -16 -22 -33 -26 -44c-16 -39 8 -62 63 -62v-8h-192v8l66 9l366 518v1l-57 7v8h474l6 -171h-9l-2 12c-14 83 -69 144 -156 144h-106v-260h52c61 0 89 43 100 98l1 5h9v-221h-9l-1 6c-8 55 -39 97 -100 97h-52v-246
h117c87 0 148 58 158 147zM177 189h225v322z" />
    <glyph glyph-name="aeacute" unicode="&#x1fd;" horiz-adv-x="893" 
d="M712 714l-135 -127h-12l40 136h107v-9zM828 171h9l-6 -171h-486v8l57 7v159h-235l-42 -60c-11 -16 -22 -33 -26 -44c-16 -39 8 -62 63 -62v-8h-192v8l66 9l366 518v1l-57 7v8h474l6 -171h-9l-2 12c-14 83 -69 144 -156 144h-106v-260h52c61 0 89 43 100 98l1 5h9v-221h-9
l-1 6c-8 55 -39 97 -100 97h-52v-246h117c87 0 148 58 158 147zM177 189h225v322z" />
    <glyph glyph-name="b" unicode="b" horiz-adv-x="597" 
d="M346 276c132 0 221 -53 221 -134c0 -90 -106 -142 -265 -142h-266v8l57 7v521l-57 7v8h256c168 0 246 -56 246 -140c0 -80 -77 -133 -192 -133v-2zM292 536h-49v-251h70c44 0 60 49 60 126c0 76 -21 125 -81 125zM302 15c58 0 100 23 100 127c0 106 -37 128 -89 128h-70
v-255h59z" />
    <glyph glyph-name="c" unicode="c" horiz-adv-x="591" 
d="M546 168h9l-7 -135s-66 -40 -181 -40c-233 0 -334 134 -334 282c0 149 101 283 334 283c110 0 180 -38 180 -38l7 -142h-9l-7 20c-13 38 -62 145 -171 145c-99 0 -169 -48 -169 -268c0 -219 70 -267 169 -267c116 0 171 121 175 144z" />
    <glyph glyph-name="cacute" unicode="&#x107;" horiz-adv-x="591" 
d="M295 587l40 136h107v-9l-135 -127h-12zM546 168h9l-7 -135s-66 -40 -181 -40c-233 0 -334 134 -334 282c0 149 101 283 334 283c110 0 180 -38 180 -38l7 -142h-9l-7 20c-13 38 -62 145 -171 145c-99 0 -169 -48 -169 -268c0 -219 70 -267 169 -267
c116 0 171 121 175 144z" />
    <glyph glyph-name="ccaron" unicode="&#x10d;" horiz-adv-x="591" 
d="M476 737h12l-100 -151h-67l-100 151h12l122 -92zM546 168h9l-7 -135s-66 -40 -181 -40c-233 0 -334 134 -334 282c0 149 101 283 334 283c110 0 180 -38 180 -38l7 -142h-9l-7 20c-13 38 -62 145 -171 145c-99 0 -169 -48 -169 -268c0 -219 70 -267 169 -267
c116 0 171 121 175 144z" />
    <glyph glyph-name="ccedilla" unicode="&#xe7;" horiz-adv-x="591" 
d="M367 -7h-3c-6 -9 -15 -23 -21 -34c77 -3 112 -35 112 -72c0 -36 -30 -68 -100 -68c-62 0 -91 28 -91 28l-6 43h6s23 -57 76 -57c21 0 42 12 42 54c0 50 -27 58 -65 58c3 4 20 33 29 48c-218 8 -313 138 -313 282c0 149 101 283 334 283c110 0 180 -38 180 -38l7 -142h-9
l-7 20c-13 38 -62 145 -171 145c-99 0 -169 -48 -169 -268c0 -219 70 -267 169 -267c116 0 171 121 175 144l4 16h9l-7 -135s-66 -40 -181 -40z" />
    <glyph glyph-name="cdotaccent" unicode="&#x10b;" horiz-adv-x="591" 
d="M302 653c0 33 23 51 53 51s53 -18 53 -51s-23 -50 -53 -50s-53 17 -53 50zM546 168h9l-7 -135s-66 -40 -181 -40c-233 0 -334 134 -334 282c0 149 101 283 334 283c110 0 180 -38 180 -38l7 -142h-9l-7 20c-13 38 -62 145 -171 145c-99 0 -169 -48 -169 -268
c0 -219 70 -267 169 -267c116 0 171 121 175 144z" />
    <glyph glyph-name="d" unicode="d" horiz-adv-x="663" 
d="M309 551c232 0 319 -123 319 -276c0 -151 -93 -275 -352 -275h-240v8l57 7v521l-57 7v8h273zM276 15c109 0 187 41 187 260c0 221 -64 261 -154 261h-66v-521h33z" />
    <glyph glyph-name="eth" unicode="&#xf0;" horiz-adv-x="663" 
d="M309 551c232 0 319 -123 319 -276c0 -151 -93 -275 -352 -275h-240v8l57 7v256h-48v15h48v250l-57 7v8h273zM276 15c109 0 187 41 187 260c0 221 -64 261 -154 261h-66v-250h112v-15h-112v-256h33z" />
    <glyph glyph-name="dcaron" unicode="&#x10f;" horiz-adv-x="663" 
d="M351 586h-67l-100 151h12l122 -92l121 92h12zM309 551c232 0 319 -123 319 -276c0 -151 -93 -275 -352 -275h-240v8l57 7v521l-57 7v8h273zM276 15c109 0 187 41 187 260c0 221 -64 261 -154 261h-66v-521h33z" />
    <glyph glyph-name="dcroat" unicode="&#x111;" horiz-adv-x="663" 
d="M309 551c232 0 319 -123 319 -276c0 -151 -93 -275 -352 -275h-240v8l57 7v256h-64v15h64v250l-57 7v8h273zM276 15c109 0 187 41 187 260c0 221 -64 261 -154 261h-66v-250h127v-15h-127v-256h33z" />
    <glyph glyph-name="e" unicode="e" horiz-adv-x="573" 
d="M518 171h9l-6 -171h-486v8l57 7v521l-57 7v8h474l6 -171h-9l-2 12c-14 83 -69 144 -156 144h-106v-260h52c61 0 89 43 100 98l1 5h9v-221h-9l-1 6c-8 55 -39 97 -100 97h-52v-246h117c87 0 148 58 158 147z" />
    <glyph glyph-name="eacute" unicode="&#xe9;" horiz-adv-x="573" 
d="M402 714l-135 -127h-12l40 136h107v-9zM518 171h9l-6 -171h-486v8l57 7v521l-57 7v8h474l6 -171h-9l-2 12c-14 83 -69 144 -156 144h-106v-260h52c61 0 89 43 100 98l1 5h9v-221h-9l-1 6c-8 55 -39 97 -100 97h-52v-246h117c87 0 148 58 158 147z" />
    <glyph glyph-name="ecaron" unicode="&#x11b;" horiz-adv-x="573" 
d="M345 586h-67l-100 151h12l122 -92l121 92h12zM518 171h9l-6 -171h-486v8l57 7v521l-57 7v8h474l6 -171h-9l-2 12c-14 83 -69 144 -156 144h-106v-260h52c61 0 89 43 100 98l1 5h9v-221h-9l-1 6c-8 55 -39 97 -100 97h-52v-246h117c87 0 148 58 158 147z" />
    <glyph glyph-name="ecircumflex" unicode="&#xea;" horiz-adv-x="573" 
d="M312 673l-122 -87h-12l100 146h67l100 -146h-12zM518 171h9l-6 -171h-486v8l57 7v521l-57 7v8h474l6 -171h-9l-2 12c-14 83 -69 144 -156 144h-106v-260h52c61 0 89 43 100 98l1 5h9v-221h-9l-1 6c-8 55 -39 97 -100 97h-52v-246h117c87 0 148 58 158 147z" />
    <glyph glyph-name="edieresis" unicode="&#xeb;" horiz-adv-x="573" 
d="M227 592c-30 0 -53 17 -53 50s23 51 53 51s53 -18 53 -51s-23 -50 -53 -50zM397 592c-30 0 -53 17 -53 50s23 51 53 51s53 -18 53 -51s-23 -50 -53 -50zM518 171h9l-6 -171h-486v8l57 7v521l-57 7v8h474l6 -171h-9l-2 12c-14 83 -69 144 -156 144h-106v-260h52
c61 0 89 43 100 98l1 5h9v-221h-9l-1 6c-8 55 -39 97 -100 97h-52v-246h117c87 0 148 58 158 147z" />
    <glyph glyph-name="edotaccent" unicode="&#x117;" horiz-adv-x="573" 
d="M312 603c-30 0 -53 17 -53 50s23 51 53 51s53 -18 53 -51s-23 -50 -53 -50zM518 171h9l-6 -171h-486v8l57 7v521l-57 7v8h474l6 -171h-9l-2 12c-14 83 -69 144 -156 144h-106v-260h52c61 0 89 43 100 98l1 5h9v-221h-9l-1 6c-8 55 -39 97 -100 97h-52v-246h117
c87 0 148 58 158 147z" />
    <glyph glyph-name="egrave" unicode="&#xe8;" horiz-adv-x="573" 
d="M355 587h-12l-135 127v9h107zM518 171h9l-6 -171h-486v8l57 7v521l-57 7v8h474l6 -171h-9l-2 12c-14 83 -69 144 -156 144h-106v-260h52c61 0 89 43 100 98l1 5h9v-221h-9l-1 6c-8 55 -39 97 -100 97h-52v-246h117c87 0 148 58 158 147z" />
    <glyph glyph-name="emacron" unicode="&#x113;" horiz-adv-x="573" 
d="M441 649v-15h-260v15h260zM518 171h9l-6 -171h-486v8l57 7v521l-57 7v8h474l6 -171h-9l-2 12c-14 83 -69 144 -156 144h-106v-260h52c61 0 89 43 100 98l1 5h9v-221h-9l-1 6c-8 55 -39 97 -100 97h-52v-246h117c87 0 148 58 158 147z" />
    <glyph glyph-name="eogonek" unicode="&#x119;" horiz-adv-x="573" 
d="M562 -145l6 -11s-26 -30 -82 -30c-58 0 -95 25 -95 79c0 62 57 93 94 107h-450v8l57 7v521l-57 7v8h474l6 -171h-9l-2 12c-14 83 -69 144 -156 144h-106v-260h52c61 0 89 43 100 98l1 5h9v-221h-9l-1 6c-8 55 -39 97 -100 97h-52v-246h117c87 0 148 58 158 147l1 9h9
l-6 -162h17s-7 -1 -17 -5v-4h-8c-23 -12 -53 -37 -53 -89s19 -77 53 -77c28 0 49 21 49 21z" />
    <glyph glyph-name="f" unicode="f" horiz-adv-x="532" 
d="M505 551l6 -171h-9l-2 12c-14 83 -69 144 -156 144h-116v-272h69c61 0 83 40 94 94l1 5h9v-213h-9l-1 6c-8 54 -33 93 -94 93h-69v-234l57 -7v-8h-249v8l57 7v521l-57 7v8h469z" />
    <glyph glyph-name="g" unicode="g" horiz-adv-x="620" 
d="M609 220v-8l-54 -7v-163v-75h-9l-11 59c-24 -11 -83 -33 -168 -33c-233 0 -334 134 -334 282c0 149 101 283 334 283c113 0 181 -38 181 -38l7 -143h-9l-7 21c-15 45 -65 145 -172 145c-99 0 -169 -48 -169 -268c0 -219 70 -267 169 -267c13 0 25 2 37 4v193l-55 7v8h260
z" />
    <glyph glyph-name="gbreve" unicode="&#x11f;" horiz-adv-x="620" 
d="M352 589c-60 0 -107 40 -106 145h13c0 -36 23 -72 93 -72s95 36 95 72h13c1 -97 -47 -145 -108 -145zM609 220v-8l-54 -7v-163v-75h-9l-11 59c-24 -11 -83 -33 -168 -33c-233 0 -334 134 -334 282c0 149 101 283 334 283c113 0 181 -38 181 -38l7 -143h-9l-7 21
c-15 45 -65 145 -172 145c-99 0 -169 -48 -169 -268c0 -219 70 -267 169 -267c13 0 25 2 37 4v193l-55 7v8h260z" />
    <glyph glyph-name="gcommaaccent" unicode="&#x123;" horiz-adv-x="620" 
d="M609 220v-8l-54 -7v-163v-75h-9l-11 59c-24 -11 -83 -33 -168 -33c-233 0 -334 134 -334 282c0 149 101 283 334 283c113 0 181 -38 181 -38l7 -143h-9l-7 21c-15 45 -65 145 -172 145c-99 0 -169 -48 -169 -268c0 -219 70 -267 169 -267c13 0 25 2 37 4v193l-55 7v8h260
zM341 -36c46 0 93 -26 93 -109c0 -126 -95 -141 -123 -141v13c46 0 108 34 108 128c0 9 -1 18 -2 26l-13 -2c-7 -30 -32 -46 -63 -46c-37 0 -65 23 -65 65c0 43 28 66 65 66z" />
    <glyph glyph-name="gdotaccent" unicode="&#x121;" horiz-adv-x="620" 
d="M352 602c-30 0 -53 17 -53 50s23 51 53 51s53 -18 53 -51s-23 -50 -53 -50zM609 220v-8l-54 -7v-163v-75h-9l-11 59c-24 -11 -83 -33 -168 -33c-233 0 -334 134 -334 282c0 149 101 283 334 283c113 0 181 -38 181 -38l7 -143h-9l-7 21c-15 45 -65 145 -172 145
c-99 0 -169 -48 -169 -268c0 -219 70 -267 169 -267c13 0 25 2 37 4v193l-55 7v8h260z" />
    <glyph glyph-name="h" unicode="h" horiz-adv-x="712" 
d="M676 543l-57 -5v-523l57 -7v-8h-264v8l57 7v255h-226v-255l57 -7v-8h-264v8l57 7v523l-57 5v8h264v-8l-57 -5v-255h226v255l-57 5v8h264v-8z" />
    <glyph glyph-name="hbar" unicode="&#x127;" horiz-adv-x="712" 
d="M676 543l-57 -5v-129h51v-15h-51v-379l57 -7v-8h-264v8l57 7v255h-226v-255l57 -7v-8h-264v8l57 7v379h-68v15h68v129l-57 5v8h264v-8l-57 -5v-129h226v129l-57 5v8h264v-8zM469 283v111h-226v-111h226z" />
    <glyph glyph-name="i" unicode="i" horiz-adv-x="336" 
d="M300 543l-57 -7v-521l57 -7v-8h-264v8l57 7v521l-57 7v8h264v-8z" />
    <glyph glyph-name="dotlessi" unicode="&#x131;" horiz-adv-x="336" 
d="M300 540l-57 -4v-521l57 -4v-11h-264v11l57 4v521l-57 4v11h264v-11z" />
    <glyph glyph-name="iacute" unicode="&#xed;" horiz-adv-x="336" 
d="M254 714l-135 -127h-12l40 136h107v-9zM300 540l-57 -4v-521l57 -4v-11h-264v11l57 4v521l-57 4v11h264v-11z" />
    <glyph glyph-name="icircumflex" unicode="&#xee;" horiz-adv-x="336" 
d="M167 673l-122 -87h-12l100 146h67l100 -146h-12zM300 551v-11l-57 -4v-521l57 -4v-11h-264v11l57 4v521l-57 4v11h264z" />
    <glyph glyph-name="idieresis" unicode="&#xef;" horiz-adv-x="336" 
d="M82 592c-30 0 -53 17 -53 50s23 51 53 51s53 -18 53 -51s-23 -50 -53 -50zM252 592c-30 0 -53 17 -53 50s23 51 53 51s53 -18 53 -51s-23 -50 -53 -50zM300 551v-11l-57 -4v-521l57 -4v-11h-264v11l57 4v521l-57 4v11h264z" />
    <glyph glyph-name="i.loclTRK" horiz-adv-x="336" 
d="M167 603c-30 0 -53 17 -53 50s23 51 53 51s53 -18 53 -51s-23 -50 -53 -50zM300 543l-57 -7v-521l57 -7v-8h-264v8l57 7v521l-57 7v8h264v-8z" />
    <glyph glyph-name="igrave" unicode="&#xec;" horiz-adv-x="336" 
d="M210 587h-12l-135 127v9h107zM300 540l-57 -4v-521l57 -4v-11h-264v11l57 4v521l-57 4v11h264v-11z" />
    <glyph glyph-name="ij" unicode="&#x133;" horiz-adv-x="737" 
d="M300 551v-8l-57 -7v-521l57 -7v-8h-264v8l57 7v521l-57 7v8h264zM714 551v-8l-57 -7v-369c0 -89 -42 -174 -185 -174c-78 0 -126 44 -127 88v1c0 30 23 58 55 58c33 0 58 -28 58 -58s-25 -56 -57 -57c16 -10 38 -17 64 -17c30 0 41 18 41 34v494l-56 7v8h264z" />
    <glyph glyph-name="imacron" unicode="&#x12b;" horiz-adv-x="336" 
d="M296 649v-15h-260v15h260zM300 540l-57 -4v-521l57 -4v-11h-264v11l57 4v521l-57 4v11h264v-11z" />
    <glyph glyph-name="iogonek" unicode="&#x12f;" horiz-adv-x="336" 
d="M300 540l-57 -4v-521l57 -4v-11h-96c-23 -12 -53 -37 -53 -89s19 -77 53 -77c28 0 49 21 49 21l6 -11s-26 -30 -82 -30c-58 0 -95 25 -95 79c0 62 57 93 94 107h-140v11l57 4v521l-57 4v11h264v-11z" />
    <glyph glyph-name="itilde" unicode="&#x129;" horiz-adv-x="336" 
d="M98 643c-37 0 -54 -31 -54 -31l-8 4s26 89 90 89c52 0 88 -61 131 -61c34 0 52 33 52 33l8 -5s-25 -88 -90 -88c-57 0 -82 59 -129 59zM300 551v-11l-57 -4v-521l57 -4v-11h-264v11l57 4v521l-57 4v11h264z" />
    <glyph glyph-name="j" unicode="j" horiz-adv-x="401" 
d="M378 551v-8l-57 -7v-369c0 -89 -42 -174 -185 -174c-78 0 -126 44 -127 88v1c0 30 23 58 55 58c33 0 58 -28 58 -58s-25 -56 -57 -57c16 -10 38 -17 64 -17c30 0 41 18 41 34v494l-56 7v8h264z" />
    <glyph glyph-name="uni0237" unicode="&#x237;" horiz-adv-x="396" 
d="M373 551v-11l-57 -4v-369c0 -89 -42 -174 -185 -174c-73 0 -121 44 -122 88v1c0 30 25 58 57 58c33 0 58 -28 58 -58s-25 -57 -58 -57h-3v-1c16 -10 36 -16 61 -16c30 0 41 18 41 34v494l-56 4v11h264z" />
    <glyph glyph-name="k" unicode="k" horiz-adv-x="631" 
d="M624 13l44 -5v-8h-212l-170 252h-43v-237l57 -7v-8h-264v8l57 7v521l-57 7v8h264v-8l-57 -7v-269h34l180 179c14 14 20 28 20 44c0 30 -23 53 -91 53v8h242v-8l-57 -7l-183 -180z" />
    <glyph glyph-name="kcommaaccent" unicode="&#x137;" horiz-adv-x="631" 
d="M624 13l44 -5v-8h-212l-170 252h-43v-237l57 -7v-8h-264v8l57 7v521l-57 7v8h264v-8l-57 -7v-269h34l180 179c14 14 20 28 20 44c0 30 -23 53 -91 53v8h242v-8l-57 -7l-183 -180zM335 -36c46 0 93 -26 93 -109c0 -126 -95 -141 -123 -141v13c46 0 108 34 108 128
c0 9 -1 18 -2 26l-13 -2c-7 -30 -32 -46 -63 -46c-37 0 -65 23 -65 65c0 43 28 66 65 66z" />
    <glyph glyph-name="kgreenlandic" unicode="&#x138;" horiz-adv-x="631" 
d="M624 13l44 -5v-8h-212l-170 252h-43v-237l57 -7v-8h-264v8l57 7v521l-57 7v8h264v-8l-57 -7v-269h34l180 179c14 14 20 28 20 44c0 30 -23 53 -91 53v8h242v-8l-57 -7l-183 -180z" />
    <glyph glyph-name="l" unicode="l" horiz-adv-x="534" 
d="M508 161h9l-6 -161h-475v8l57 7v521l-57 7v8h264v-8l-57 -7v-521h106c88 0 146 53 158 139z" />
    <glyph glyph-name="lacute" unicode="&#x13a;" horiz-adv-x="534" 
d="M262 714l-135 -127h-12l40 136h107v-9zM508 161h9l-6 -161h-475v8l57 7v521l-57 7v8h264v-8l-57 -7v-521h106c88 0 146 53 158 139z" />
    <glyph glyph-name="lcaron" unicode="&#x13e;" horiz-adv-x="534" 
d="M477 587l-95 -147h-12v156h107v-9zM508 161h9l-6 -161h-475v8l57 7v521l-57 7v8h264v-8l-57 -7v-521h106c88 0 146 53 158 139z" />
    <glyph glyph-name="lcommaaccent" unicode="&#x13c;" horiz-adv-x="534" 
d="M508 161h9l-6 -161h-475v8l57 7v521l-57 7v8h264v-8l-57 -7v-521h106c88 0 146 53 158 139zM271 -36c46 0 93 -26 93 -109c0 -126 -95 -141 -123 -141v13c46 0 108 34 108 128c0 9 -1 18 -2 26l-13 -2c-7 -30 -32 -46 -63 -46c-37 0 -65 23 -65 65c0 43 28 66 65 66z" />
    <glyph glyph-name="ldot" unicode="&#x140;" horiz-adv-x="534" 
d="M508 161h9l-6 -161h-475v8l57 7v521l-57 7v8h264v-8l-57 -7v-521h106c88 0 146 53 158 139zM378 184c-43 0 -76 25 -76 72s33 73 76 73s76 -26 76 -73s-33 -72 -76 -72z" />
    <glyph glyph-name="lslash" unicode="&#x142;" horiz-adv-x="534" 
d="M508 161h9l-6 -161h-475v8l57 7v214l-74 -43l-8 12l82 47v291l-57 7v8h264v-8l-57 -7v-204l116 67l8 -12l-124 -72v-300h106c88 0 146 53 158 139z" />
    <glyph glyph-name="m" unicode="m" horiz-adv-x="789" 
d="M763 543l-57 -7v-521l57 -7v-8h-264v8l57 7v487h-2l-204 -506h-19l-220 506h-2v-421c0 -31 30 -73 69 -73v-8h-155v8c39 0 69 42 69 73v455l-57 7v8h204l162 -371h5l150 371h207v-8z" />
    <glyph glyph-name="n" unicode="n" horiz-adv-x="624" 
d="M596 551v-8c-39 0 -59 -42 -59 -73v-477h-30l-396 475h-2v-387c0 -31 20 -73 59 -73v-8h-135v8c39 0 59 42 59 73v411l-34 48l-23 3v8h199l284 -345h2v264c0 31 -20 73 -59 73v8h135z" />
    <glyph glyph-name="nacute" unicode="&#x144;" horiz-adv-x="624" 
d="M442 717l-135 -127h-12l40 136h107v-9zM596 551v-8c-39 0 -59 -42 -59 -73v-477h-30l-396 475h-2v-387c0 -31 20 -73 59 -73v-8h-135v8c39 0 59 42 59 73v411l-34 48l-23 3v8h199l284 -345h2v264c0 31 -20 73 -59 73v8h135z" />
    <glyph glyph-name="ncaron" unicode="&#x148;" horiz-adv-x="624" 
d="M367 589h-67l-100 151h12l122 -92l121 92h12zM596 551v-8c-39 0 -59 -42 -59 -73v-477h-30l-396 475h-2v-387c0 -31 20 -73 59 -73v-8h-135v8c39 0 59 42 59 73v411l-34 48l-23 3v8h199l284 -345h2v264c0 31 -20 73 -59 73v8h135z" />
    <glyph glyph-name="ncommaaccent" unicode="&#x146;" horiz-adv-x="624" 
d="M596 551v-8c-39 0 -59 -42 -59 -73v-477h-30l-396 475h-2v-387c0 -31 20 -73 59 -73v-8h-135v8c39 0 59 42 59 73v411l-34 48l-23 3v8h199l284 -345h2v264c0 31 -20 73 -59 73v8h135zM301 -36c46 0 93 -26 93 -109c0 -126 -95 -141 -123 -141v13c46 0 108 34 108 128
c0 9 -1 18 -2 26l-13 -2c-7 -30 -32 -46 -63 -46c-37 0 -65 23 -65 65c0 43 28 66 65 66z" />
    <glyph glyph-name="eng" unicode="&#x14b;" horiz-adv-x="624" 
d="M596 551v-8c-39 0 -59 -42 -59 -73v-531c0 -105 -36 -198 -148 -198c-74 0 -127 46 -127 98c0 33 26 60 59 60s59 -27 59 -60s-26 -59 -59 -59h-3v-4c18 -12 41 -21 71 -21c81 0 131 47 131 184v38l-409 491h-2v-387c0 -31 20 -73 59 -73v-8h-135v8c39 0 59 42 59 73v411
l-34 48l-23 3v8h199l284 -345h2v264c0 31 -20 73 -59 73v8h135z" />
    <glyph glyph-name="ntilde" unicode="&#xf1;" horiz-adv-x="624" 
d="M265 646c-37 0 -54 -31 -54 -31l-8 4s26 89 90 89c52 0 88 -61 131 -61c34 0 52 33 52 33l8 -5s-25 -88 -90 -88c-57 0 -82 59 -129 59zM596 551v-8c-39 0 -59 -42 -59 -73v-477h-30l-396 475h-2v-387c0 -31 20 -73 59 -73v-8h-135v8c39 0 59 42 59 73v411l-34 48l-23 3
v8h199l284 -345h2v264c0 31 -20 73 -59 73v8h135z" />
    <glyph glyph-name="o" unicode="o" horiz-adv-x="691" 
d="M348 558c199 0 310 -134 310 -283c0 -148 -111 -282 -310 -282c-202 0 -315 134 -315 282c0 149 113 283 315 283zM348 8c81 0 144 48 144 267c0 220 -63 268 -144 268c-85 0 -150 -48 -150 -268c0 -219 65 -267 150 -267z" />
    <glyph glyph-name="oacute" unicode="&#xf3;" horiz-adv-x="691" 
d="M435 714l-135 -127h-12l40 136h107v-9zM348 558c199 0 310 -134 310 -283c0 -148 -111 -282 -310 -282c-202 0 -315 134 -315 282c0 149 113 283 315 283zM348 8c81 0 144 48 144 267c0 220 -63 268 -144 268c-85 0 -150 -48 -150 -268c0 -219 65 -267 150 -267z" />
    <glyph glyph-name="ocircumflex" unicode="&#xf4;" horiz-adv-x="691" 
d="M348 673l-122 -87h-12l100 146h67l100 -146h-12zM348 558c199 0 310 -134 310 -283c0 -148 -111 -282 -310 -282c-202 0 -315 134 -315 282c0 149 113 283 315 283zM348 8c81 0 144 48 144 267c0 220 -63 268 -144 268c-85 0 -150 -48 -150 -268c0 -219 65 -267 150 -267
z" />
    <glyph glyph-name="odieresis" unicode="&#xf6;" horiz-adv-x="691" 
d="M263 592c-30 0 -53 17 -53 50s23 51 53 51s53 -18 53 -51s-23 -50 -53 -50zM433 592c-30 0 -53 17 -53 50s23 51 53 51s53 -18 53 -51s-23 -50 -53 -50zM348 558c199 0 310 -134 310 -283c0 -148 -111 -282 -310 -282c-202 0 -315 134 -315 282c0 149 113 283 315 283z
M348 8c81 0 144 48 144 267c0 220 -63 268 -144 268c-85 0 -150 -48 -150 -268c0 -219 65 -267 150 -267z" />
    <glyph glyph-name="ograve" unicode="&#xf2;" horiz-adv-x="691" 
d="M391 587h-12l-135 127v9h107zM348 558c199 0 310 -134 310 -283c0 -148 -111 -282 -310 -282c-202 0 -315 134 -315 282c0 149 113 283 315 283zM348 8c81 0 144 48 144 267c0 220 -63 268 -144 268c-85 0 -150 -48 -150 -268c0 -219 65 -267 150 -267z" />
    <glyph glyph-name="ohungarumlaut" unicode="&#x151;" horiz-adv-x="691" 
d="M403 714l-135 -127h-12l40 136h107v-9zM572 714l-135 -127h-12l40 136h107v-9zM348 558c199 0 310 -134 310 -283c0 -148 -111 -282 -310 -282c-202 0 -315 134 -315 282c0 149 113 283 315 283zM348 8c81 0 144 48 144 267c0 220 -63 268 -144 268
c-85 0 -150 -48 -150 -268c0 -219 65 -267 150 -267z" />
    <glyph glyph-name="omacron" unicode="&#x14d;" horiz-adv-x="691" 
d="M477 649v-15h-260v15h260zM348 558c199 0 310 -134 310 -283c0 -148 -111 -282 -310 -282c-202 0 -315 134 -315 282c0 149 113 283 315 283zM348 8c81 0 144 48 144 267c0 220 -63 268 -144 268c-85 0 -150 -48 -150 -268c0 -219 65 -267 150 -267z" />
    <glyph glyph-name="uni01EB" unicode="&#x1eb;" horiz-adv-x="691" 
d="M390 -5c-22 -12 -51 -37 -51 -88c0 -52 19 -77 53 -77c28 0 49 21 49 21l6 -11s-26 -30 -82 -30c-58 0 -95 25 -95 79c0 58 50 89 87 104h-9c-202 0 -315 134 -315 282c0 149 113 283 315 283c199 0 310 -134 310 -283c0 -137 -95 -262 -268 -280zM198 275
c0 -219 65 -267 150 -267c81 0 144 48 144 267c0 220 -63 268 -144 268c-85 0 -150 -48 -150 -268z" />
    <glyph glyph-name="oslash" unicode="&#xf8;" horiz-adv-x="691" 
d="M471 538c121 -42 187 -148 187 -263c0 -148 -111 -282 -310 -282c-47 0 -88 7 -125 20l-49 -103h-19l52 109c-113 46 -174 147 -174 256c0 149 113 283 315 283c39 0 75 -5 107 -15l32 69h19zM198 275c0 -97 13 -161 34 -201l206 434c-25 26 -56 35 -90 35
c-85 0 -150 -48 -150 -268zM348 8c81 0 144 48 144 267c0 111 -16 178 -42 218l-207 -437c27 -37 64 -48 105 -48z" />
    <glyph glyph-name="oslashacute" unicode="&#x1ff;" horiz-adv-x="691" 
d="M435 714l-135 -127h-12l40 136h107v-9zM471 538c121 -42 187 -148 187 -263c0 -148 -111 -282 -310 -282c-47 0 -88 7 -125 20l-49 -103h-19l52 109c-113 46 -174 147 -174 256c0 149 113 283 315 283c39 0 75 -5 107 -15l32 69h19zM198 275c0 -97 13 -161 34 -201
l206 434c-25 26 -56 35 -90 35c-85 0 -150 -48 -150 -268zM348 8c81 0 144 48 144 267c0 111 -16 178 -42 218l-207 -437c27 -37 64 -48 105 -48z" />
    <glyph glyph-name="otilde" unicode="&#xf5;" horiz-adv-x="691" 
d="M269 643c-37 0 -54 -31 -54 -31l-8 4s26 89 90 89c52 0 88 -61 131 -61c34 0 52 33 52 33l8 -5s-25 -88 -90 -88c-57 0 -82 59 -129 59zM348 558c199 0 310 -134 310 -283c0 -148 -111 -282 -310 -282c-202 0 -315 134 -315 282c0 149 113 283 315 283zM348 8
c81 0 144 48 144 267c0 220 -63 268 -144 268c-85 0 -150 -48 -150 -268c0 -219 65 -267 150 -267z" />
    <glyph glyph-name="oe" unicode="&#x153;" horiz-adv-x="977" 
d="M933 171h9l-6 -171h-428v29c-44 -23 -98 -36 -160 -36c-202 0 -315 134 -315 282c0 149 113 283 315 283c62 0 116 -13 160 -36v29h407l6 -171h-12l-1 12c-8 84 -67 144 -154 144h-96v-260h49c61 0 82 40 91 94l1 5h12v-213h-12l-1 6c-8 54 -30 93 -91 93h-49v-246h116
c87 0 148 58 158 147zM348 8c81 0 144 48 144 267c0 220 -63 268 -144 268c-85 0 -150 -48 -150 -268c0 -219 65 -267 150 -267z" />
    <glyph glyph-name="p" unicode="p" horiz-adv-x="568" 
d="M307 551c180 0 245 -80 245 -165s-64 -168 -245 -168h-64v-203l57 -7v-8h-264v8l57 7v521l-57 7v8h271zM307 233c45 0 80 33 80 153c0 121 -35 150 -80 150h-64v-303h64z" />
    <glyph glyph-name="thorn" unicode="&#xfe;" horiz-adv-x="566" 
d="M303 450c180 0 245 -82 245 -167s-64 -166 -245 -166h-60v-102l60 -4v-11h-270v11l60 4v521l-60 4v11h270v-11l-60 -4v-86h60zM303 132c45 0 80 31 80 151c0 121 -35 152 -80 152h-60v-303h60z" />
    <glyph glyph-name="q" unicode="q" horiz-adv-x="691" 
d="M658 275c0 -132 -88 -253 -249 -278v-34c0 -85 52 -119 115 -127l24 -3v-11h-24c-164 0 -245 48 -245 161v16c-159 26 -246 146 -246 276c0 149 113 283 315 283c199 0 310 -134 310 -283zM198 275c0 -219 65 -267 150 -267c81 0 144 48 144 267c0 220 -63 268 -144 268
c-85 0 -150 -48 -150 -268z" />
    <glyph glyph-name="r" unicode="r" horiz-adv-x="629" 
d="M618 99h9v-11c0 -55 -40 -95 -124 -95c-73 0 -121 44 -121 108v79c0 43 -29 74 -79 74h-60v-239l57 -7v-8h-264v8l57 7v521l-57 7v8h272c173 0 237 -68 237 -148c0 -75 -54 -140 -194 -140v-3c124 -1 180 -53 180 -130v-42c0 -31 9 -52 37 -52c31 0 46 23 49 52zM243 269
h65c42 0 72 22 72 134c0 113 -32 133 -72 133h-65v-267z" />
    <glyph glyph-name="racute" unicode="&#x155;" horiz-adv-x="629" 
d="M390 714l-135 -127h-12l40 136h107v-9zM618 99h9v-11c0 -55 -40 -95 -124 -95c-73 0 -121 44 -121 108v79c0 43 -29 74 -79 74h-60v-239l57 -7v-8h-264v8l57 7v521l-57 7v8h272c173 0 237 -68 237 -148c0 -75 -54 -140 -194 -140v-3c124 -1 180 -53 180 -130v-42
c0 -31 9 -52 37 -52c31 0 46 23 49 52zM243 269h65c42 0 72 22 72 134c0 113 -32 133 -72 133h-65v-267z" />
    <glyph glyph-name="rcaron" unicode="&#x159;" horiz-adv-x="629" 
d="M336 586h-67l-100 151h12l122 -92l121 92h12zM618 99h9v-11c0 -55 -40 -95 -124 -95c-73 0 -121 44 -121 108v79c0 43 -29 74 -79 74h-60v-239l57 -7v-8h-264v8l57 7v521l-57 7v8h272c173 0 237 -68 237 -148c0 -75 -54 -140 -194 -140v-3c124 -1 180 -53 180 -130v-42
c0 -31 9 -52 37 -52c31 0 46 23 49 52zM243 269h65c42 0 72 22 72 134c0 113 -32 133 -72 133h-65v-267z" />
    <glyph glyph-name="rcommaaccent" unicode="&#x157;" horiz-adv-x="629" 
d="M618 99h9v-11c0 -55 -40 -95 -124 -95c-73 0 -121 44 -121 108v79c0 43 -29 74 -79 74h-60v-239l57 -7v-8h-264v8l57 7v521l-57 7v8h272c173 0 237 -68 237 -148c0 -75 -54 -140 -194 -140v-3c124 -1 180 -53 180 -130v-42c0 -31 9 -52 37 -52c31 0 46 23 49 52zM243 269
h65c42 0 72 22 72 134c0 113 -32 133 -72 133h-65v-267zM314 -36c46 0 93 -26 93 -109c0 -126 -95 -141 -123 -141v13c46 0 108 34 108 128c0 9 -1 18 -2 26l-13 -2c-7 -30 -32 -46 -63 -46c-37 0 -65 23 -65 65c0 43 28 66 65 66z" />
    <glyph glyph-name="s" unicode="s" horiz-adv-x="507" 
d="M270 558c99 0 166 -31 168 -32l4 -142h-9l-3 14c-12 44 -60 145 -158 145c-64 0 -100 -20 -100 -66c0 -126 302 -147 302 -313c0 -104 -92 -171 -222 -171c-105 0 -199 37 -199 37l-8 137h9l6 -20c18 -45 92 -139 192 -139c66 0 98 24 98 77c0 138 -302 143 -302 309
c0 133 124 164 222 164z" />
    <glyph glyph-name="sacute" unicode="&#x15b;" horiz-adv-x="507" 
d="M204 587l40 136h107v-9l-135 -127h-12zM270 558c99 0 166 -31 168 -32l4 -142h-9l-3 14c-12 44 -60 145 -158 145c-64 0 -100 -20 -100 -66c0 -126 302 -147 302 -313c0 -104 -92 -171 -222 -171c-105 0 -199 37 -199 37l-8 137h9l6 -20c18 -45 92 -139 192 -139
c66 0 98 24 98 77c0 138 -302 143 -302 309c0 133 124 164 222 164z" />
    <glyph glyph-name="scaron" unicode="&#x161;" horiz-adv-x="507" 
d="M385 737h12l-100 -151h-67l-100 151h12l122 -92zM270 558c99 0 166 -31 168 -32l4 -142h-9l-3 14c-12 44 -60 145 -158 145c-64 0 -100 -20 -100 -66c0 -126 302 -147 302 -313c0 -104 -92 -171 -222 -171c-105 0 -199 37 -199 37l-8 137h9l6 -20
c18 -45 92 -139 192 -139c66 0 98 24 98 77c0 138 -302 143 -302 309c0 133 124 164 222 164z" />
    <glyph glyph-name="scedilla" unicode="&#x15f;" horiz-adv-x="507" 
d="M474 164c0 -101 -87 -167 -211 -171c-6 -9 -15 -23 -21 -34c77 -3 112 -35 112 -72c0 -36 -30 -68 -100 -68c-62 0 -91 28 -91 28l-6 43h6s23 -57 76 -57c21 0 42 12 42 54c0 50 -27 58 -65 58c3 4 20 33 29 48c-102 2 -192 37 -192 37l-8 137h9l6 -20
c18 -45 92 -139 192 -139c66 0 98 24 98 77c0 138 -302 143 -302 309c0 133 124 164 222 164c99 0 166 -31 168 -32l4 -142h-9l-3 14c-12 44 -60 145 -158 145c-64 0 -100 -20 -100 -66c0 -126 302 -147 302 -313z" />
    <glyph glyph-name="scommaaccent" unicode="&#x219;" horiz-adv-x="507" 
d="M172 477c0 -126 302 -147 302 -313c0 -104 -92 -171 -222 -171c-105 0 -199 37 -199 37l-8 137h9l6 -20c18 -45 92 -139 192 -139c66 0 98 24 98 77c0 138 -302 143 -302 309c0 133 124 164 222 164c99 0 166 -31 168 -32l4 -142h-9l-3 14c-12 44 -60 145 -158 145
c-64 0 -100 -20 -100 -66zM244 -36c46 0 93 -26 93 -109c0 -126 -95 -141 -123 -141v13c46 0 108 34 108 128c0 9 -1 18 -2 26l-13 -2c-7 -30 -32 -46 -63 -46c-37 0 -65 23 -65 65c0 43 28 66 65 66z" />
    <glyph glyph-name="germandbls" unicode="&#xdf;" horiz-adv-x="587" 
d="M424 272c44 -7 142 -30 142 -132c0 -110 -96 -147 -189 -147c-65 0 -100 20 -100 20l-6 95h7c23 -78 59 -102 104 -102c39 0 63 28 63 127c0 104 -38 134 -163 134v9l122 244c-27 19 -46 28 -100 28c-49 0 -82 -47 -82 -117v-431h-193v8l48 6v369c0 107 92 180 227 180
c113 0 194 -41 233 -82z" />
    <glyph glyph-name="t" unicode="t" horiz-adv-x="575" 
d="M552 551l6 -171h-9l-2 12c-14 83 -69 144 -157 144h-28v-521l57 -7v-8h-264v8l57 7v521h-28c-87 0 -142 -61 -156 -144l-2 -12h-9l6 171h529z" />
    <glyph glyph-name="tbar" unicode="&#x167;" horiz-adv-x="575" 
d="M552 551l6 -171h-9l-2 12c-14 83 -69 144 -157 144h-28v-268h79v-15h-79v-238l57 -7v-8h-264v8l57 7v238h-83v15h83v268h-28c-87 0 -142 -61 -156 -144l-2 -12h-9l6 171h529z" />
    <glyph glyph-name="tcaron" unicode="&#x165;" horiz-adv-x="575" 
d="M320 586h-67l-100 151h12l122 -92l121 92h12zM552 551l6 -171h-9l-2 12c-14 83 -69 144 -157 144h-28v-521l57 -7v-8h-264v8l57 7v521h-28c-87 0 -142 -61 -156 -144l-2 -12h-9l6 171h529z" />
    <glyph glyph-name="uni0163" unicode="&#x163;" horiz-adv-x="575" 
d="M552 551l6 -171h-9l-2 12c-14 83 -69 144 -157 144h-28v-521l57 -7v-8h-123l-25 -41c77 -3 112 -35 112 -72c0 -36 -30 -68 -100 -68c-62 0 -91 28 -91 28l-6 43h6s23 -57 76 -57c21 0 42 12 42 54c0 50 -27 58 -65 58c4 5 27 44 33 55h-123v8l57 7v521h-28
c-87 0 -142 -61 -156 -144l-2 -12h-9l6 171h529z" />
    <glyph glyph-name="uni021B" unicode="&#x21b;" horiz-adv-x="575" 
d="M552 551l6 -171h-9l-2 12c-14 83 -69 144 -157 144h-28v-521l57 -7v-8h-264v8l57 7v521h-28c-87 0 -142 -61 -156 -144l-2 -12h-9l6 171h529zM273 -36c46 0 93 -26 93 -109c0 -126 -95 -141 -123 -141v13c46 0 108 34 108 128c0 9 -1 18 -2 26l-13 -2
c-7 -30 -32 -46 -63 -46c-37 0 -65 23 -65 65c0 43 28 66 65 66z" />
    <glyph glyph-name="u" unicode="u" horiz-adv-x="620" 
d="M601 551v-8c-39 0 -59 -42 -59 -73v-276c0 -146 -103 -201 -197 -201c-209 0 -268 101 -268 213v330l-56 7v8h263v-8l-57 -7v-404c0 -68 33 -124 118 -124c78 0 180 45 180 186v276c0 31 -20 73 -59 73v8h135z" />
    <glyph glyph-name="uacute" unicode="&#xfa;" horiz-adv-x="620" 
d="M417 713l-135 -127h-12l40 136h107v-9zM601 551v-8c-39 0 -59 -42 -59 -73v-276c0 -146 -103 -201 -197 -201c-209 0 -268 101 -268 213v330l-56 7v8h263v-8l-57 -7v-404c0 -68 33 -124 118 -124c78 0 180 45 180 186v276c0 31 -20 73 -59 73v8h135z" />
    <glyph glyph-name="ucircumflex" unicode="&#xfb;" horiz-adv-x="620" 
d="M330 672l-122 -87h-12l100 146h67l100 -146h-12zM601 551v-8c-39 0 -59 -42 -59 -73v-276c0 -146 -103 -201 -197 -201c-209 0 -268 101 -268 213v330l-56 7v8h263v-8l-57 -7v-404c0 -68 33 -124 118 -124c78 0 180 45 180 186v276c0 31 -20 73 -59 73v8h135z" />
    <glyph glyph-name="udieresis" unicode="&#xfc;" horiz-adv-x="620" 
d="M245 591c-30 0 -53 17 -53 50s23 51 53 51s53 -18 53 -51s-23 -50 -53 -50zM415 591c-30 0 -53 17 -53 50s23 51 53 51s53 -18 53 -51s-23 -50 -53 -50zM601 551v-8c-39 0 -59 -42 -59 -73v-276c0 -146 -103 -201 -197 -201c-209 0 -268 101 -268 213v330l-56 7v8h263v-8
l-57 -7v-404c0 -68 33 -124 118 -124c78 0 180 45 180 186v276c0 31 -20 73 -59 73v8h135z" />
    <glyph glyph-name="ugrave" unicode="&#xf9;" horiz-adv-x="620" 
d="M393 586h-12l-135 127v9h107zM601 551v-8c-39 0 -59 -42 -59 -73v-276c0 -146 -103 -201 -197 -201c-209 0 -268 101 -268 213v330l-56 7v8h263v-8l-57 -7v-404c0 -68 33 -124 118 -124c78 0 180 45 180 186v276c0 31 -20 73 -59 73v8h135z" />
    <glyph glyph-name="uhungarumlaut" unicode="&#x171;" horiz-adv-x="620" 
d="M385 713l-135 -127h-12l40 136h107v-9zM554 713l-135 -127h-12l40 136h107v-9zM601 551v-8c-39 0 -59 -42 -59 -73v-276c0 -146 -103 -201 -197 -201c-209 0 -268 101 -268 213v330l-56 7v8h263v-8l-57 -7v-404c0 -68 33 -124 118 -124c78 0 180 45 180 186v276
c0 31 -20 73 -59 73v8h135z" />
    <glyph glyph-name="umacron" unicode="&#x16b;" horiz-adv-x="620" 
d="M459 648v-15h-260v15h260zM601 551v-8c-39 0 -59 -42 -59 -73v-276c0 -146 -103 -201 -197 -201c-209 0 -268 101 -268 213v330l-56 7v8h263v-8l-57 -7v-404c0 -68 33 -124 118 -124c78 0 180 45 180 186v276c0 31 -20 73 -59 73v8h135z" />
    <glyph glyph-name="uogonek" unicode="&#x173;" horiz-adv-x="620" 
d="M601 551v-8c-39 0 -59 -42 -59 -73v-276c0 -114 -63 -173 -136 -193c-23 -11 -55 -36 -55 -90c0 -52 19 -77 53 -77c28 0 49 21 49 21l6 -11s-26 -30 -82 -30c-58 0 -95 25 -95 79s43 84 78 100h-15c-209 0 -268 101 -268 213v330l-56 7v8h263v-8l-57 -7v-404
c0 -68 33 -124 118 -124c78 0 180 45 180 186v276c0 31 -20 73 -59 73v8h135z" />
    <glyph glyph-name="uring" unicode="&#x16f;" horiz-adv-x="620" 
d="M330 599c-68 0 -105 37 -105 93c0 55 37 92 105 92s105 -37 105 -92c0 -56 -37 -93 -105 -93zM330 770c-26 0 -37 -31 -37 -78s11 -79 37 -79c25 0 37 32 37 79s-12 78 -37 78zM601 551v-8c-39 0 -59 -42 -59 -73v-276c0 -146 -103 -201 -197 -201
c-209 0 -268 101 -268 213v330l-56 7v8h263v-8l-57 -7v-404c0 -68 33 -124 118 -124c78 0 180 45 180 186v276c0 31 -20 73 -59 73v8h135z" />
    <glyph glyph-name="utilde" unicode="&#x169;" horiz-adv-x="620" 
d="M251 642c-37 0 -54 -31 -54 -31l-8 4s26 89 90 89c52 0 88 -61 131 -61c34 0 52 33 52 33l8 -5s-25 -88 -90 -88c-57 0 -82 59 -129 59zM601 551v-8c-39 0 -59 -42 -59 -73v-276c0 -146 -103 -201 -197 -201c-209 0 -268 101 -268 213v330l-56 7v8h263v-8l-57 -7v-404
c0 -68 33 -124 118 -124c78 0 180 45 180 186v276c0 31 -20 73 -59 73v8h135z" />
    <glyph glyph-name="v" unicode="v" horiz-adv-x="605" 
d="M630 551v-8l-61 -6l-211 -537h-108l-211 536l-63 7v8h273v-8l-55 -7l177 -442h8l131 333c6 15 8 31 8 44c0 38 -33 72 -87 72v8h199z" />
    <glyph glyph-name="w" unicode="w" horiz-adv-x="859" 
d="M879 551v-8l-61 -5l-184 -538h-110l-81 270l-95 -270h-111l-201 537l-62 6v8h273v-8l-55 -7l170 -443h3l70 201l-72 242l-62 7v8h273v-8l-57 -7l131 -443h1l110 330c5 16 7 31 7 44c0 39 -21 76 -86 76v8h199z" />
    <glyph glyph-name="wacute" unicode="&#x1e83;" horiz-adv-x="859" 
d="M526 712l-135 -127h-12l40 136h107v-9zM879 551v-8l-61 -5l-184 -538h-110l-81 270l-95 -270h-111l-201 537l-62 6v8h273v-8l-55 -7l170 -443h3l70 201l-72 242l-62 7v8h273v-8l-57 -7l131 -443h1l110 330c5 16 7 31 7 44c0 39 -21 76 -86 76v8h199z" />
    <glyph glyph-name="wcircumflex" unicode="&#x175;" horiz-adv-x="859" 
d="M439 671l-122 -87h-12l100 146h67l100 -146h-12zM879 551v-8l-61 -5l-184 -538h-110l-81 270l-95 -270h-111l-201 537l-62 6v8h273v-8l-55 -7l170 -443h3l70 201l-72 242l-62 7v8h273v-8l-57 -7l131 -443h1l110 330c5 16 7 31 7 44c0 39 -21 76 -86 76v8h199z" />
    <glyph glyph-name="wdieresis" unicode="&#x1e85;" horiz-adv-x="859" 
d="M354 590c-30 0 -53 17 -53 50s23 51 53 51s53 -18 53 -51s-23 -50 -53 -50zM524 590c-30 0 -53 17 -53 50s23 51 53 51s53 -18 53 -51s-23 -50 -53 -50zM879 551v-8l-61 -5l-184 -538h-110l-81 270l-95 -270h-111l-201 537l-62 6v8h273v-8l-55 -7l170 -443h3l70 201
l-72 242l-62 7v8h273v-8l-57 -7l131 -443h1l110 330c5 16 7 31 7 44c0 39 -21 76 -86 76v8h199z" />
    <glyph glyph-name="wgrave" unicode="&#x1e81;" horiz-adv-x="859" 
d="M482 585h-12l-135 127v9h107zM879 551v-8l-61 -5l-184 -538h-110l-81 270l-95 -270h-111l-201 537l-62 6v8h273v-8l-55 -7l170 -443h3l70 201l-72 242l-62 7v8h273v-8l-57 -7l131 -443h1l110 330c5 16 7 31 7 44c0 39 -21 76 -86 76v8h199z" />
    <glyph glyph-name="x" unicode="x" 
d="M554 15l64 -7v-8h-283v8l50 7l-134 206l-99 -123c-10 -13 -24 -33 -23 -47c0 -16 13 -43 68 -43v-8h-196v8l66 7l176 217l-198 304l-63 7l-1 8h283l1 -8l-51 -7l128 -197l90 114c9 13 25 33 24 47c-1 19 -13 43 -68 43l-1 8h196l1 -8l-67 -7l-166 -209z" />
    <glyph glyph-name="y" unicode="y" horiz-adv-x="573" 
d="M521 538l-156 -303v-222l57 -5v-8h-264v8l57 5v226l-175 299l-63 5v8h275v-8l-54 -5l156 -274h10l87 173c7 14 17 37 17 60s-18 46 -61 46v8h176v-8z" />
    <glyph glyph-name="yacute" unicode="&#xfd;" horiz-adv-x="573" 
d="M414 714l-135 -127h-12l40 136h107v-9zM521 538l-156 -303v-222l57 -5v-8h-264v8l57 5v226l-175 299l-63 5v8h275v-8l-54 -5l156 -274h10l87 173c7 14 17 37 17 60s-18 46 -61 46v8h176v-8z" />
    <glyph glyph-name="ycircumflex" unicode="&#x177;" horiz-adv-x="573" 
d="M302 673l-122 -87h-12l100 146h67l100 -146h-12zM521 538l-156 -303v-222l57 -5v-8h-264v8l57 5v226l-175 299l-63 5v8h275v-8l-54 -5l156 -274h10l87 173c7 14 17 37 17 60s-18 46 -61 46v8h176v-8z" />
    <glyph glyph-name="ydieresis" unicode="&#xff;" horiz-adv-x="573" 
d="M217 592c-30 0 -53 17 -53 50s23 51 53 51s53 -18 53 -51s-23 -50 -53 -50zM387 592c-30 0 -53 17 -53 50s23 51 53 51s53 -18 53 -51s-23 -50 -53 -50zM521 538l-156 -303v-222l57 -5v-8h-264v8l57 5v226l-175 299l-63 5v8h275v-8l-54 -5l156 -274h10l87 173
c7 14 17 37 17 60s-18 46 -61 46v8h176v-8z" />
    <glyph glyph-name="ygrave" unicode="&#x1ef3;" horiz-adv-x="573" 
d="M345 587h-12l-135 127v9h107zM521 538l-156 -303v-222l57 -5v-8h-264v8l57 5v226l-175 299l-63 5v8h275v-8l-54 -5l156 -274h10l87 173c7 14 17 37 17 60s-18 46 -61 46v8h176v-8z" />
    <glyph glyph-name="uni1EF9" unicode="&#x1ef9;" horiz-adv-x="573" 
d="M223 643c-37 0 -54 -31 -54 -31l-8 4s26 89 90 89c52 0 88 -61 131 -61c34 0 52 33 52 33l8 -5s-25 -88 -90 -88c-57 0 -82 59 -129 59zM521 538l-156 -303v-222l57 -5v-8h-264v8l57 5v226l-175 299l-63 5v8h275v-8l-54 -5l156 -274h10l87 173c7 14 17 37 17 60
s-18 46 -61 46v8h176v-8z" />
    <glyph glyph-name="z" unicode="z" horiz-adv-x="546" 
d="M501 171h9l-6 -171h-466v9l306 529h-134c-87 0 -150 -62 -157 -146l-1 -12h-9l6 171h457v-9l-303 -529h140c87 0 143 62 156 145z" />
    <glyph glyph-name="zacute" unicode="&#x17a;" horiz-adv-x="546" 
d="M365 714l-135 -127h-12l40 136h107v-9zM501 171h9l-6 -171h-466v9l306 529h-134c-87 0 -150 -62 -157 -146l-1 -12h-9l6 171h457v-9l-303 -529h140c87 0 143 62 156 145z" />
    <glyph glyph-name="zcaron" unicode="&#x17e;" horiz-adv-x="546" 
d="M311 586h-67l-100 151h12l122 -92l121 92h12zM501 171h9l-6 -171h-466v9l306 529h-134c-87 0 -150 -62 -157 -146l-1 -12h-9l6 171h457v-9l-303 -529h140c87 0 143 62 156 145z" />
    <glyph glyph-name="zdotaccent" unicode="&#x17c;" horiz-adv-x="546" 
d="M278 603c-30 0 -53 17 -53 50s23 51 53 51s53 -18 53 -51s-23 -50 -53 -50zM501 171h9l-6 -171h-466v9l306 529h-134c-87 0 -150 -62 -157 -146l-1 -12h-9l6 171h457v-9l-303 -529h140c87 0 143 62 156 145z" />
    <glyph glyph-name="ordfeminine" unicode="&#xaa;" horiz-adv-x="459" 
d="M415 405h15v-17c0 -46 -14 -90 -95 -90c-51 0 -71 31 -71 91v5h-8c0 -34 -21 -96 -115 -96c-64 0 -105 34 -105 89c0 61 55 101 197 101h14v101c0 31 -18 53 -50 53c-35 0 -62 -9 -82 -21c0 -3 -1 -4 -1 -7h5c33 0 59 -22 59 -50s-26 -53 -59 -53s-56 25 -56 53
c0 48 51 92 134 92c127 0 174 -57 174 -125v-160c0 -21 4 -35 20 -35c18 0 24 29 24 52v17zM201 342c33 0 46 42 46 83v46h-13c-49 0 -75 -33 -75 -68s13 -61 42 -61z" />
    <glyph glyph-name="ordmasculine" unicode="&#xba;" horiz-adv-x="424" 
d="M212 298c-114 0 -179 84 -179 179s65 179 179 179s179 -84 179 -179s-65 -179 -179 -179zM212 312c38 0 68 37 68 165s-30 165 -68 165s-68 -37 -68 -165s30 -165 68 -165z" />
    <glyph glyph-name="zero" unicode="0" horiz-adv-x="618" 
d="M309 -8c-175 0 -270 153 -270 332s95 332 270 332s270 -153 270 -332s-95 -332 -270 -332zM309 7c58 0 105 70 105 317s-47 317 -105 317s-105 -70 -105 -317s47 -317 105 -317z" />
    <glyph glyph-name="one" unicode="1" horiz-adv-x="429" 
d="M305 18l120 -10v-8h-390v8l120 10v571l-126 -39v14l269 84h7v-630z" />
    <glyph glyph-name="two" unicode="2" horiz-adv-x="532" 
d="M477 193h9l-13 -193h-445v61s289 168 289 436c0 81 -32 144 -110 144c-34 0 -69 -10 -96 -28l1 -10h5c45 0 72 -37 72 -72s-27 -73 -72 -73s-72 34 -72 73c0 57 59 125 192 125c171 0 245 -75 245 -178c0 -195 -340 -362 -340 -362h267c50 0 64 34 67 66z" />
    <glyph glyph-name="three" unicode="3" horiz-adv-x="532" 
d="M284 334c123 0 209 -79 209 -169c0 -95 -75 -173 -261 -173c-135 0 -193 74 -193 129c0 39 27 73 72 73s72 -38 72 -73s-27 -72 -72 -72h-4l-2 -12c27 -18 62 -30 97 -30c58 0 126 31 126 158c0 111 -68 163 -122 163h-13v15h13c46 0 102 43 102 140
c0 127 -58 158 -106 158c-35 0 -70 -11 -97 -30l2 -12h4c45 0 72 -37 72 -72s-27 -73 -72 -73s-72 34 -72 73c0 59 60 129 193 129c172 0 241 -78 241 -173c0 -80 -78 -146 -189 -146v-3z" />
    <glyph glyph-name="four" unicode="4" horiz-adv-x="550" 
d="M529 133h-99v-115l90 -10v-8h-340v8l100 10v115h-272v15l415 500h7v-500h99v-15zM29 148h251v300z" />
    <glyph glyph-name="five" unicode="5" horiz-adv-x="524" 
d="M215 399c169 0 281 -66 281 -207c0 -143 -112 -200 -281 -200c-112 0 -183 57 -183 129c0 39 27 73 72 73s72 -38 72 -73s-27 -72 -72 -72h-4l-2 -13c25 -18 55 -29 87 -29c68 0 146 35 146 185c0 152 -78 191 -146 191c-70 0 -115 -26 -115 -26v291h360l15 77h9
l-13 -193l-354 -1v-151c22 8 64 19 128 19z" />
    <glyph glyph-name="six" unicode="6" horiz-adv-x="580" 
d="M305 399c183 0 252 -88 252 -195c0 -116 -91 -212 -260 -212s-260 118 -260 262c0 319 345 402 458 402v-15c-73 0 -225 -81 -276 -260c18 10 46 18 86 18zM297 7c52 0 95 44 95 187s-42 189 -106 189c-32 0 -55 -9 -71 -19c-8 -33 -13 -70 -13 -110
c0 -191 43 -247 95 -247z" />
    <glyph glyph-name="seven" unicode="7" horiz-adv-x="523" 
d="M520 648v-61c-2 -2 -241 -160 -241 -587h-150c0 276 228 486 281 531h-363l-14 -77h-10l13 193z" />
    <glyph glyph-name="eight" unicode="8" horiz-adv-x="634" 
d="M389 334c123 0 209 -77 209 -164c0 -98 -79 -178 -281 -178s-281 80 -281 178c0 87 86 164 209 164v3c-102 0 -174 66 -174 146c0 95 70 173 246 173s246 -78 246 -173c0 -80 -72 -146 -174 -146v-3zM231 483c0 -97 44 -140 82 -140h8c38 0 82 43 82 140
c0 127 -46 158 -86 158c-40 -2 -86 -32 -86 -158zM317 7c56 0 121 32 121 163c0 108 -65 158 -117 158h-8c-52 0 -117 -50 -117 -158c0 -131 65 -163 121 -163z" />
    <glyph glyph-name="nine" unicode="9" horiz-adv-x="580" 
d="M283 656c169 0 260 -118 260 -262c0 -319 -345 -402 -458 -402v15c72 0 220 79 274 252c-20 -5 -47 -10 -84 -10c-183 0 -252 88 -252 195c0 116 91 212 260 212zM294 265c28 0 52 5 69 11c10 35 15 75 15 118c0 191 -43 247 -95 247s-95 -44 -95 -187s42 -189 106 -189z
" />
    <glyph glyph-name="zero.osf" horiz-adv-x="608" 
d="M304 -6c-167 0 -266 130 -266 286c0 155 99 278 266 278s266 -123 266 -278c0 -156 -99 -286 -266 -286zM304 9c56 0 101 56 101 271c0 213 -45 263 -101 263s-101 -50 -101 -263c0 -215 45 -271 101 -271z" />
    <glyph glyph-name="one.osf" horiz-adv-x="432" 
d="M307 18l120 -10v-8h-390v8l120 10v491l-126 -39v14l269 84h7v-550z" />
    <glyph glyph-name="two.osf" horiz-adv-x="525" 
d="M470 192h9l-13 -193h-435v61s279 142 279 338c0 81 -32 144 -100 144c-34 0 -69 -10 -96 -29l1 -9h5c45 0 72 -37 72 -72s-27 -73 -72 -73s-72 34 -72 73c0 66 70 125 192 125c161 0 235 -75 235 -178c0 -195 -330 -264 -330 -264h257c50 0 60 34 66 66z" />
    <glyph glyph-name="three.osf" horiz-adv-x="526" 
d="M281 236c123 0 209 -79 209 -169c0 -95 -75 -173 -261 -173c-135 0 -193 74 -193 129c0 39 27 73 72 73s72 -38 72 -73s-27 -72 -72 -72h-4l-2 -12c27 -18 62 -30 97 -30c58 0 126 31 126 158c0 111 -68 163 -122 163h-13v15h13c46 0 102 43 102 140
c0 127 -58 158 -106 158c-35 0 -70 -11 -97 -30l2 -12h4c45 0 72 -37 72 -72s-27 -73 -72 -73s-72 34 -72 73c0 59 60 129 193 129c172 0 241 -78 241 -173c0 -80 -78 -146 -189 -146v-3z" />
    <glyph glyph-name="four.osf" horiz-adv-x="541" 
d="M527 48v-15h-99v-133h-150v133h-272v15l415 500h7v-500h99zM27 48h251v300z" />
    <glyph glyph-name="five.osf" horiz-adv-x="527" 
d="M217 302c169 0 281 -66 281 -207c0 -143 -112 -200 -281 -200c-112 0 -183 57 -183 129c0 39 27 73 72 73s72 -38 72 -73s-27 -72 -72 -72h-4l-2 -13c25 -18 55 -29 87 -29c68 0 146 35 146 185c0 152 -78 191 -146 191c-70 0 -115 -26 -115 -26v291h360l15 77h9
l-13 -193l-354 -1v-151c22 8 64 19 128 19z" />
    <glyph glyph-name="six.osf" horiz-adv-x="580" 
d="M305 399c183 0 252 -88 252 -195c0 -116 -91 -212 -260 -212s-260 118 -260 262c0 319 345 402 458 402v-15c-72 0 -220 -79 -274 -252c20 5 47 10 84 10zM297 7c52 0 95 44 95 187s-42 189 -106 189c-28 0 -52 -5 -69 -11c-10 -35 -15 -75 -15 -118
c0 -191 43 -247 95 -247z" />
    <glyph glyph-name="seven.osf" horiz-adv-x="519" 
d="M518 551v-61c-2 -2 -241 -160 -241 -587h-150c0 276 228 486 281 531h-363l-15 -77h-9l13 193z" />
    <glyph glyph-name="eight.osf" horiz-adv-x="634" 
d="M389 334c123 0 209 -77 209 -164c0 -98 -79 -178 -281 -178s-281 80 -281 178c0 87 86 164 209 164v3c-102 0 -174 66 -174 146c0 95 70 173 246 173s246 -78 246 -173c0 -80 -72 -146 -174 -146v-3zM231 483c0 -97 44 -140 82 -140h8c38 0 82 43 82 140
c0 127 -46 158 -86 158c-40 -2 -86 -32 -86 -158zM317 7c56 0 121 32 121 163c0 108 -65 158 -117 158h-8c-52 0 -117 -50 -117 -158c0 -131 65 -163 121 -163z" />
    <glyph glyph-name="nine.osf" horiz-adv-x="577" 
d="M282 551c169 0 260 -118 260 -262c0 -319 -345 -402 -458 -402v15c72 0 220 79 274 252c-20 -5 -47 -10 -84 -10c-183 0 -252 88 -252 195c0 116 91 212 260 212zM293 160c28 0 52 5 69 11c10 35 15 75 15 118c0 191 -43 247 -95 247s-95 -44 -95 -187s42 -189 106 -189z
" />
    <glyph glyph-name="fraction" unicode="&#x2044;" horiz-adv-x="279" 
d="M265 702h19l-271 -702h-19z" />
    <glyph glyph-name="onehalf" unicode="&#xbd;" horiz-adv-x="752" 
d="M498 656h19l-268 -656h-19zM284 317v-10h-247v10l72 4v290l-76 -22v11l167 50h12v-329zM708 116h13l-7 -116h-281v37s171 87 171 217c0 46 -18 82 -68 82c-22 0 -41 -7 -56 -16l1 -2h6c27 0 43 -22 43 -43s-16 -44 -43 -44s-43 20 -43 44c0 43 39 75 105 75
c114 0 167 -41 167 -97c0 -119 -209 -183 -209 -183h150c33 0 47 15 50 39z" />
    <glyph glyph-name="onequarter" unicode="&#xbc;" horiz-adv-x="728" 
d="M502 656h19l-268 -656h-19zM288 317v-10h-247v10l72 4v288l-76 -22v14l167 50h12v-330zM700 83h-60v-69l54 -4v-10h-217v10l60 4v69h-151v13l237 247h17v-247h60v-13zM406 96h131v135z" />
    <glyph glyph-name="threequarters" unicode="&#xbe;" horiz-adv-x="739" 
d="M321 392c0 -51 -47 -94 -163 -94c-74 0 -121 38 -121 77c0 24 16 44 43 44s44 -23 44 -44s-17 -43 -44 -43h-2l-1 -3c17 -11 40 -17 63 -17c35 0 75 15 75 80c0 62 -40 86 -73 86h-7v11h7c28 0 61 20 61 73c0 65 -34 80 -63 80c-23 0 -45 -7 -61 -18v-2h1
c27 0 44 -22 44 -43s-17 -44 -44 -44s-43 20 -43 44c0 39 47 77 121 77c107 0 151 -43 151 -94c0 -42 -50 -77 -120 -77v-2c77 0 132 -43 132 -91zM513 656h19l-268 -656h-19zM711 83h-60v-69l54 -4v-10h-217v10l60 4v69h-151v13l237 247h17v-247h60v-13zM417 96h131v135z
" />
    <glyph glyph-name="asterisk" unicode="*" horiz-adv-x="452" 
d="M380 510c17 -10 29 -25 29 -43c0 -25 -19 -47 -44 -47c-10 0 -21 4 -32 10c-27 16 -57 71 -99 101c5 -51 39 -105 39 -136c0 -29 -15 -54 -47 -54s-47 25 -47 54c0 31 34 85 39 136c-42 -30 -72 -85 -99 -101c-11 -6 -22 -10 -32 -10c-27 0 -44 26 -44 47
c0 18 12 33 29 43c27 16 91 13 138 35c-47 22 -111 19 -138 35c-17 10 -29 25 -29 43c0 25 19 47 44 47c11 0 21 -4 32 -10c27 -16 57 -71 99 -101c-5 51 -39 105 -39 136c0 29 15 54 47 54s47 -25 47 -54c0 -31 -34 -85 -39 -136c42 30 72 85 99 101c11 6 22 10 32 10
c27 0 44 -26 44 -47c0 -18 -12 -33 -29 -43c-27 -16 -91 -13 -138 -35c47 -22 111 -19 138 -35z" />
    <glyph glyph-name="backslash" unicode="\" horiz-adv-x="401" 
d="M376 0h-19l-332 702h19z" />
    <glyph glyph-name="periodcentered" unicode="&#xb7;" horiz-adv-x="252" 
d="M50 347c0 47 33 73 76 73s76 -26 76 -73s-33 -72 -76 -72s-76 25 -76 72z" />
    <glyph glyph-name="bullet" unicode="&#x2022;" horiz-adv-x="345" 
d="M67 246c0 59 47 106 106 106c58 0 105 -47 105 -106c0 -58 -47 -105 -105 -105c-59 0 -106 47 -106 105z" />
    <glyph glyph-name="colon" unicode=":" horiz-adv-x="266" 
d="M57 322c0 47 33 73 76 73s76 -26 76 -73s-33 -72 -76 -72s-76 25 -76 72zM57 64c0 47 33 73 76 73s76 -26 76 -73s-33 -72 -76 -72s-76 25 -76 72z" />
    <glyph glyph-name="comma" unicode="," horiz-adv-x="258" 
d="M117 137c52 0 103 -29 103 -124c0 -146 -99 -156 -128 -156v13c48 0 113 35 113 143c0 20 -3 37 -8 51l-4 -1c0 -46 -33 -71 -76 -71s-76 25 -76 72s33 73 76 73z" />
    <glyph glyph-name="ellipsis" unicode="&#x2026;" horiz-adv-x="608" 
d="M41 64c0 47 33 73 76 73s76 -26 76 -73s-33 -72 -76 -72s-76 25 -76 72zM228 64c0 47 33 73 76 73s76 -26 76 -73s-33 -72 -76 -72s-76 25 -76 72zM415 64c0 47 33 73 76 73s76 -26 76 -73s-33 -72 -76 -72s-76 25 -76 72z" />
    <glyph glyph-name="exclam" unicode="!" horiz-adv-x="216" 
d="M102 144c0 175 -58 316 -58 444c0 39 22 68 64 68s64 -29 64 -68c0 -128 -58 -269 -58 -444h-12zM47 50c0 38 27 58 61 58s61 -20 61 -58s-27 -58 -61 -58s-61 20 -61 58z" />
    <glyph glyph-name="exclamdown" unicode="&#xa1;" horiz-adv-x="216" 
d="M47 598c0 38 27 58 61 58s61 -20 61 -58s-27 -58 -61 -58s-61 20 -61 58zM102 504h12c0 -175 58 -316 58 -444c0 -39 -22 -68 -64 -68s-64 29 -64 68c0 128 58 269 58 444z" />
    <glyph glyph-name="numbersign" unicode="#" horiz-adv-x="531" 
d="M487 352h-106v-166h106v-15h-106v-122h-17v122h-195v-122h-17v122h-108v15h108v166h-108v15h108v133h17v-133h195v133h17v-133h106v-15zM364 186v166h-195v-166h195z" />
    <glyph glyph-name="period" unicode="." horiz-adv-x="234" 
d="M41 64c0 47 33 73 76 73s76 -26 76 -73s-33 -72 -76 -72s-76 25 -76 72z" />
    <glyph glyph-name="question" unicode="?" horiz-adv-x="435" 
d="M201 656c141 0 205 -65 205 -153c0 -163 -212 -171 -212 -319v-40h-18l-1 64c0 206 119 205 119 327c0 62 -45 106 -103 106c-42 0 -75 -9 -99 -23l2 -15h2c48 0 77 -37 77 -72s-27 -73 -72 -73s-72 34 -72 73v1c0 81 69 124 172 124zM193 108c34 0 61 -20 61 -58
s-27 -58 -61 -58s-61 20 -61 58s27 58 61 58z" />
    <glyph glyph-name="questiondown" unicode="&#xbf;" horiz-adv-x="434" 
d="M242 540c-34 0 -61 20 -61 58s27 58 61 58s61 -20 61 -58s-27 -58 -61 -58zM406 117v-1c0 -81 -69 -124 -172 -124c-141 0 -205 65 -205 153c0 163 212 171 212 319v40h18v-64c0 -206 -118 -205 -118 -327c0 -62 45 -106 103 -106c42 0 75 9 99 23l-2 15h-2
c-48 0 -77 37 -77 72s27 73 72 73s72 -34 72 -73z" />
    <glyph glyph-name="quotedbl" unicode="&#x22;" horiz-adv-x="268" 
d="M81 533h-12l-36 164c0 26 15 46 42 46s42 -20 42 -46zM199 533h-12l-36 164c0 26 15 46 42 46s42 -20 42 -46z" />
    <glyph glyph-name="quotesingle" unicode="'" horiz-adv-x="150" 
d="M81 533h-12l-36 164c0 26 15 46 42 46s42 -20 42 -46z" />
    <glyph glyph-name="semicolon" unicode=";" horiz-adv-x="284" 
d="M139 250c-43 0 -76 25 -76 72s33 73 76 73s76 -26 76 -73s-33 -72 -76 -72zM130 137c52 0 103 -29 103 -124c0 -146 -99 -156 -128 -156v13c48 0 113 35 113 143c0 20 -3 37 -8 51l-4 -1c0 -46 -33 -71 -76 -71s-76 25 -76 72s33 73 76 73z" />
    <glyph glyph-name="slash" unicode="/" horiz-adv-x="401" 
d="M357 702h19l-332 -702h-19z" />
    <glyph glyph-name="underscore" unicode="_" horiz-adv-x="454" 
d="M0 -34h454v-15h-454v15z" />
    <glyph glyph-name="braceleft" unicode="{" horiz-adv-x="341" 
d="M237 451c0 -90 -64 -150 -147 -173v-2c83 -23 147 -81 147 -168v-159c0 -77 39 -111 102 -111v-15c-125 0 -250 48 -250 230v150c0 51 -18 65 -43 67h-36v14h36c25 2 43 17 43 72v150c0 182 125 231 250 231v-15c-63 0 -102 -35 -102 -112v-159z" />
    <glyph glyph-name="braceright" unicode="}" horiz-adv-x="340" 
d="M1 -177c125 0 250 48 250 230v150c0 51 18 65 43 67h36v14h-36c-25 2 -43 17 -43 72v150c0 182 -125 231 -250 231v-15c63 0 102 -35 102 -112v-159c0 -90 64 -150 147 -173v-2c-83 -23 -147 -81 -147 -168v-159c0 -77 -39 -111 -102 -111v-15z" />
    <glyph glyph-name="bracketleft" unicode="[" horiz-adv-x="334" 
d="M336 722h-131v-865h131v-15h-276v895h276v-15z" />
    <glyph glyph-name="bracketright" unicode="]" horiz-adv-x="334" 
d="M274 737v-895h-276v15h131v865h-131v15h276z" />
    <glyph glyph-name="parenleft" unicode="(" horiz-adv-x="388" 
d="M396 -177c-202 0 -365 191 -365 457c0 260 151 457 365 457v-15c-95 0 -210 -119 -210 -442s115 -442 210 -442v-15z" />
    <glyph glyph-name="parenright" unicode=")" horiz-adv-x="388" 
d="M-8 -177v15c95 0 210 119 210 442s-115 442 -210 442v15c214 0 365 -197 365 -457c0 -266 -163 -457 -365 -457z" />
    <glyph glyph-name="emdash" unicode="&#x2014;" horiz-adv-x="807" 
d="M50 267h707v-15h-707v15z" />
    <glyph glyph-name="endash" unicode="&#x2013;" horiz-adv-x="554" 
d="M50 267h454v-15h-454v15z" />
    <glyph glyph-name="hyphen" unicode="-" horiz-adv-x="410" 
d="M50 267h310v-15h-310v15z" />
    <glyph glyph-name="uni00AD" unicode="&#xad;" horiz-adv-x="410" 
d="M50 267h310v-15h-310v15z" />
    <glyph glyph-name="guillemotleft" horiz-adv-x="487" 
d="M242 90l-206 160v19l206 160v-12l-85 -157l85 -157v-13zM425 90l-206 160v19l206 160v-12l-85 -157l85 -157v-13z" />
    <glyph glyph-name="guillemotright" horiz-adv-x="477" 
d="M62 103l85 157l-85 157v12l206 -160v-19l-206 -160v13zM235 103l85 157l-85 157v12l206 -160v-19l-206 -160v13z" />
    <glyph glyph-name="guilsinglleft" unicode="&#x2039;" horiz-adv-x="304" 
d="M242 90l-206 160v19l206 160v-12l-85 -157l85 -157v-13z" />
    <glyph glyph-name="guilsinglright" unicode="&#x203a;" horiz-adv-x="304" 
d="M62 103l85 157l-85 157v12l206 -160v-19l-206 -160v13z" />
    <glyph glyph-name="quotedblbase" unicode="&#x201e;" horiz-adv-x="474" 
d="M117 137c52 0 103 -29 103 -124c0 -146 -99 -156 -128 -156v13c48 0 113 35 113 143c0 20 -3 37 -8 51l-4 -1c0 -46 -33 -71 -76 -71s-76 25 -76 72s33 73 76 73zM333 137c52 0 103 -29 103 -124c0 -146 -99 -156 -128 -156v13c48 0 113 35 113 143c0 20 -3 37 -8 51
l-4 -1c0 -46 -33 -71 -76 -71s-76 25 -76 72s33 73 76 73z" />
    <glyph glyph-name="quotedblleft" unicode="&#x201c;" horiz-adv-x="468" 
d="M143 526c43 0 76 -25 76 -72s-33 -73 -76 -73c-52 0 -103 29 -103 124c0 146 99 156 128 156v-13c-48 0 -113 -35 -113 -143c0 -20 3 -37 8 -51l4 1c0 46 33 71 76 71zM359 526c43 0 76 -25 76 -72s-33 -73 -76 -73c-52 0 -103 29 -103 124c0 146 99 156 128 156v-13
c-48 0 -113 -35 -113 -143c0 -20 3 -37 8 -51l4 1c0 46 33 71 76 71z" />
    <glyph glyph-name="quotedblright" unicode="&#x201d;" horiz-adv-x="467" 
d="M110 658c52 0 103 -29 103 -124c0 -146 -99 -156 -128 -156v13c48 0 113 35 113 143c0 20 -3 37 -8 51l-4 -1c0 -46 -33 -71 -76 -71s-76 25 -76 72s33 73 76 73zM326 658c52 0 103 -29 103 -124c0 -146 -99 -156 -128 -156v13c48 0 113 35 113 143c0 20 -3 37 -8 51
l-4 -1c0 -46 -33 -71 -76 -71s-76 25 -76 72s33 73 76 73z" />
    <glyph glyph-name="quoteleft" unicode="&#x2018;" horiz-adv-x="252" 
d="M143 526c43 0 76 -25 76 -72s-33 -73 -76 -73c-52 0 -103 29 -103 124c0 146 99 156 128 156v-13c-48 0 -113 -35 -113 -143c0 -20 3 -37 8 -51l4 1c0 46 33 71 76 71z" />
    <glyph glyph-name="quoteright" unicode="&#x2019;" horiz-adv-x="251" 
d="M110 658c52 0 103 -29 103 -124c0 -146 -99 -156 -128 -156v13c48 0 113 35 113 143c0 20 -3 37 -8 51l-4 -1c0 -46 -33 -71 -76 -71s-76 25 -76 72s33 73 76 73z" />
    <glyph glyph-name="quotesinglbase" unicode="&#x201a;" horiz-adv-x="258" 
d="M117 137c52 0 103 -29 103 -124c0 -146 -99 -156 -128 -156v13c48 0 113 35 113 143c0 20 -3 37 -8 51l-4 -1c0 -46 -33 -71 -76 -71s-76 25 -76 72s33 73 76 73z" />
    <glyph glyph-name="CR" unicode="&#xd;" horiz-adv-x="120" 
 />
    <glyph glyph-name="cent" unicode="&#xa2;" horiz-adv-x="444" 
d="M412 248c0 -43 -37 -120 -154 -132v-116h-17v115h-13c-130 0 -194 86 -194 209c0 114 54 205 207 208v116h17v-116c93 -4 148 -64 148 -122c0 -28 -22 -56 -58 -56s-58 25 -58 56c0 30 20 53 54 55l4 24c-25 18 -60 29 -100 29c-34 0 -59 -35 -59 -194
c0 -117 22 -169 87 -169c97 0 123 61 123 93h13z" />
    <glyph glyph-name="currency" unicode="&#xa4;" horiz-adv-x="510" 
d="M469 324c0 -80 -30 -149 -97 -184l75 -131l-13 -7l-76 132c-28 -12 -62 -19 -103 -19c-40 0 -74 7 -102 18l-76 -131l-13 7l75 131c-68 35 -98 104 -98 184c0 81 30 151 101 185l-78 135l13 7l78 -136c28 11 61 17 100 17s73 -6 101 -17l78 136l13 -7l-78 -135
c70 -35 100 -104 100 -185zM255 129c38 0 59 36 59 195s-21 194 -59 194s-59 -35 -59 -194s25 -195 59 -195z" />
    <glyph glyph-name="dollar" unicode="$" horiz-adv-x="522" 
d="M488 185c0 -110 -84 -184 -208 -192v-65h-17v64h-6c-110 0 -209 43 -209 43l-8 153h9l7 -25c19 -53 61 -156 201 -156h6v238c-94 61 -219 109 -219 227c0 139 118 181 219 184v66h17v-66c104 -1 171 -40 171 -40l5 -156h-11l-4 21c-10 42 -34 158 -161 160v-224
c92 -58 208 -114 208 -232zM168 554c0 -54 42 -91 95 -126v213c-61 -4 -95 -34 -95 -87zM280 8c56 7 84 41 84 99c0 56 -36 94 -84 127v-226z" />
    <glyph glyph-name="Euro" unicode="&#x20ac;" horiz-adv-x="675" 
d="M617 158h15c-9 -73 -67 -166 -200 -166c-194 0 -296 110 -323 252h-79l5 15h72c-3 21 -5 43 -5 65c0 10 0 21 1 31h-73l5 15h69c17 158 119 286 333 286c110 0 175 -47 175 -47l7 -149h-11l-4 20c-6 31 -55 161 -167 161c-93 0 -161 -61 -169 -271h161l-5 -15h-157v-31
c0 -23 1 -45 2 -65h118l-5 -15h-112c14 -183 78 -237 162 -237c121 0 176 86 185 151z" />
    <glyph glyph-name="sterling" unicode="&#xa3;" horiz-adv-x="541" 
d="M493 193h15l-2 -21c-2 -16 -12 -181 -138 -181c-61 0 -104 26 -140 53c-28 -34 -65 -53 -110 -52c-46 0 -80 30 -80 76c0 55 43 85 93 85c20 0 46 -4 74 -9c-6 53 -51 102 -87 163h-75v15h67c-21 38 -36 81 -36 131c0 118 80 203 245 203c94 0 155 -40 155 -40l5 -156
h-11l-4 21c-10 42 -31 160 -145 160c-58 0 -93 -48 -93 -116c0 -70 21 -138 36 -203h133v-15h-129c7 -32 12 -62 12 -92c0 -31 -3 -59 -9 -84c48 -10 98 -20 137 -20c77 0 84 58 85 65zM118 7c36 0 64 23 78 61c-25 18 -48 32 -74 32c-29 0 -50 -18 -50 -45
c0 -37 32 -48 46 -48z" />
    <glyph glyph-name="yen" unicode="&#xa5;" horiz-adv-x="685" 
d="M660 648v-8l-65 -7v1l-168 -355v-60h113v-15h-113v-65h113v-15h-113v-109l60 -7v-8h-270v8l60 7v109h-113v15h113v65h-113v15h113v60l-187 354l-66 7v8h281v-8l-56 -7l166 -326h8l97 207c8 17 18 44 18 71c0 28 -19 55 -64 55v8h186z" />
    <glyph glyph-name="approxequal" unicode="&#x2248;" horiz-adv-x="474" 
d="M57 277c0 0 29 74 105 74c72 0 118 -51 181 -51c43 0 67 38 67 38l8 -5s-28 -73 -105 -73s-112 49 -179 49c-46 0 -69 -36 -69 -36zM57 145c0 0 29 74 105 74c72 0 118 -51 181 -51c43 0 67 38 67 38l8 -5s-28 -73 -105 -73s-112 49 -179 49c-46 0 -69 -36 -69 -36z" />
    <glyph glyph-name="asciitilde" unicode="~" horiz-adv-x="476" 
d="M59 307c0 0 29 74 105 74c72 0 118 -51 181 -51c43 0 67 38 67 38l8 -5s-28 -73 -105 -73s-112 49 -179 49c-46 0 -69 -36 -69 -36z" />
    <glyph glyph-name="divide" unicode="&#xf7;" horiz-adv-x="406" 
d="M126 388c0 47 33 73 76 73s76 -26 76 -73s-33 -72 -76 -72s-76 25 -76 72zM37 267h332v-15h-332v15zM126 130c0 47 33 73 76 73s76 -26 76 -73s-33 -72 -76 -72s-76 25 -76 72z" />
    <glyph glyph-name="equal" unicode="=" horiz-adv-x="483" 
d="M58 324h367v-15h-367v15zM58 156h367v-15h-367v15z" />
    <glyph glyph-name="greater" unicode="&#x3e;" horiz-adv-x="361" 
d="M330 214l-266 -187l-9 12l254 178l-254 179l9 12l266 -187v-7z" />
    <glyph glyph-name="less" unicode="&#x3c;" horiz-adv-x="361" 
d="M31 221l266 187l9 -12l-254 -179l254 -178l-9 -12l-266 187v7z" />
    <glyph glyph-name="minus" unicode="&#x2212;" horiz-adv-x="446" 
d="M57 267h332v-15h-332v15z" />
    <glyph glyph-name="multiply" unicode="&#xd7;" horiz-adv-x="381" 
d="M325 383l-123 -123l120 -121l-12 -12l-120 121l-124 -124l-11 10l124 124l-118 118l12 12l118 -118l124 124z" />
    <glyph glyph-name="notequal" unicode="&#x2260;" horiz-adv-x="483" 
d="M423 309h-163l-58 -153h221v-15h-227l-33 -87h-19l33 87h-121v15h127l58 153h-185v15h191l54 141h19l-54 -141h157v-15z" />
    <glyph glyph-name="percent" unicode="%" horiz-adv-x="810" 
d="M198 298c-108 0 -169 84 -169 179s61 179 169 179s169 -84 169 -179s-61 -179 -169 -179zM556 656h19l-316 -656h-19zM198 313c32 0 58 36 58 164s-26 164 -58 164s-58 -36 -58 -164s26 -164 58 -164zM612 -8c-108 0 -169 84 -169 179s61 179 169 179s169 -84 169 -179
s-61 -179 -169 -179zM612 7c32 0 58 36 58 164s-26 164 -58 164s-58 -36 -58 -164s26 -164 58 -164z" />
    <glyph glyph-name="perthousand" unicode="&#x2030;" horiz-adv-x="1203" 
d="M198 298c-108 0 -169 84 -169 179s61 179 169 179s169 -84 169 -179s-61 -179 -169 -179zM556 656h19l-316 -656h-19zM198 313c32 0 58 36 58 164s-26 164 -58 164s-58 -36 -58 -164s26 -164 58 -164zM612 -8c-108 0 -169 84 -169 179s61 179 169 179s169 -84 169 -179
s-61 -179 -169 -179zM1006 -8c-108 0 -169 84 -169 179s61 179 169 179s169 -84 169 -179s-61 -179 -169 -179zM612 7c32 0 58 36 58 164s-26 164 -58 164s-58 -36 -58 -164s26 -164 58 -164zM1006 7c32 0 58 36 58 164s-26 164 -58 164s-58 -36 -58 -164s26 -164 58 -164z
" />
    <glyph glyph-name="plus" unicode="+" horiz-adv-x="439" 
d="M403 267v-15h-175v-171h-17v171h-175v15h175v167h17v-167h175z" />
    <glyph glyph-name="plusminus" unicode="&#xb1;" horiz-adv-x="497" 
d="M257 331h175v-15h-175v-171h-17v171h-175v15h175v167h17v-167zM65 82v15h367v-15h-367z" />
    <glyph glyph-name="uniF8FF" unicode="&#xf8ff;" horiz-adv-x="1451" 
d="M691 583c0 35 27 62 61 62c35 0 62 -27 62 -62c0 -34 -27 -61 -62 -61c-34 0 -61 27 -61 61zM219 270h-119c0 153 7 274 9 314h100c2 -40 10 -159 10 -314zM694 270c0 62 1 110 3 147h-61l3 -65c2 -2 8 -4 15 -4c6 0 14 1 18 5v-74c-10 -11 -39 -15 -68 -15
c-54 0 -82 23 -82 66c0 21 4 81 4 87h-22v79l119 30l1 -17h178c7 -45 10 -158 10 -239h-118zM328 265c-57 0 -92 36 -92 114c0 85 42 135 134 135c85 0 124 -43 124 -117v-127h-83l-8 61c-8 -41 -27 -66 -75 -66zM1090 270h-114c0 46 2 73 2 93s-2 29 -15 29
c-16 0 -18 -12 -18 -29c0 -20 3 -47 3 -93h-114c0 81 3 194 10 239h80c3 -22 6 -56 6 -76c2 17 14 81 80 81c59 0 75 -35 77 -106zM1351 391c0 -79 -38 -126 -123 -126s-122 48 -122 124c0 64 26 125 124 125c97 0 121 -60 121 -123zM390 375c0 19 -9 26 -24 26
s-22 -7 -22 -26s7 -30 22 -30s24 11 24 30zM1251 375c0 19 -9 26 -23 26s-21 -7 -21 -26s7 -30 21 -30s23 11 23 30zM428 238h104c4 -21 10 -85 10 -138c0 -106 -37 -150 -152 -150c-59 0 -80 12 -88 17v83c6 -4 27 -16 70 -16c46 0 54 22 54 28c-6 -4 -19 -11 -49 -11
c-59 0 -90 26 -90 83v13h-55l3 -65c3 -2 7 -4 15 -4c11 0 16 3 18 5v-73c-5 -4 -18 -15 -68 -15c-61 0 -81 23 -81 71c0 15 2 67 3 81h-18v80l117 29l-1 -18h177v-119c0 -21 3 -27 15 -27s16 7 16 27v119zM733 243c49 0 80 -39 80 -113c0 -90 -45 -135 -137 -135
c1 -15 1 -32 1 -39h-119c0 170 8 254 10 282h78c2 -12 7 -58 7 -76c3 14 17 81 80 81zM1070 127c0 -11 -1 -26 -3 -35h-124c5 -8 19 -18 50 -18c19 0 41 4 55 12v-75c-10 -7 -35 -16 -78 -16c-95 0 -141 43 -141 122c0 78 45 126 125 126c73 0 116 -41 116 -116zM978 109
c2 18 -4 27 -17 27c-14 0 -23 -9 -23 -27h40zM670 72c7 0 37 6 37 37c0 16 -8 23 -20 23c-14 0 -22 -9 -22 -31c0 -16 4 -26 5 -29zM1074 13c0 -14 10 -23 24 -23s24 9 24 23s-10 23 -24 23s-24 -9 -24 -23zM1080 13c0 12 7 18 18 18s18 -6 18 -18s-7 -18 -18 -18
s-18 6 -18 18zM1108 2l-6 9c3 0 7 2 7 7c0 4 -3 7 -10 7h-11v-23h5v9h5l4 -9h6zM1100 15h-7v6h7c3 0 4 -1 4 -3s-1 -3 -4 -3z" />
    <glyph glyph-name="bar" unicode="|" horiz-adv-x="137" 
d="M60 737h17v-895h-17v895z" />
    <glyph glyph-name="brokenbar" unicode="&#xa6;" horiz-adv-x="151" 
d="M84 737v-358h-17v358h17zM84 200v-358h-17v358h17z" />
    <glyph glyph-name="at" unicode="@" horiz-adv-x="627" 
d="M354 560c175 0 256 -133 241 -282c-9 -84 -50 -176 -155 -176c-57 0 -84 32 -74 91l1 5h-7c-1 -9 -12 -96 -124 -96c-77 0 -114 61 -114 149c0 117 75 205 169 205c77 0 92 -38 89 -66h3l17 60h102c-1 -10 -7 -65 -12 -118l-18 -167c-2 -21 2 -35 22 -35
c42 0 76 79 83 148c17 163 -81 267 -224 267c-160 0 -297 -116 -297 -296c0 -145 98 -238 241 -238c111 0 162 33 162 33l5 -12s-52 -36 -169 -36c-170 0 -257 118 -257 254c0 161 118 310 316 310zM298 146c26 0 44 18 49 56l13 117l7 62c1 16 0 51 -39 51
c-49 0 -76 -48 -76 -199c0 -54 12 -87 46 -87z" />
    <glyph glyph-name="ampersand" unicode="&#x26;" horiz-adv-x="704" 
d="M642 352c0 -76 -54 -178 -105 -225l84 -114l41 -5v-8h-195l-29 41c-37 -25 -89 -49 -183 -49c-137 0 -228 71 -228 178c0 137 106 183 176 208c-24 38 -47 86 -47 142c0 74 48 136 154 136c120 0 160 -50 160 -110c0 -72 -89 -121 -137 -138c4 -6 8 -13 13 -19l183 -251
c29 38 57 72 57 137c0 42 -26 83 -95 83v8h201v-8zM325 641c-20 0 -48 -13 -48 -84c0 -45 17 -90 51 -141c22 19 55 68 55 129c0 58 -23 96 -58 96zM334 40c49 0 72 4 95 14l-191 272l-29 42c-26 -25 -40 -90 -40 -134c0 -142 84 -194 165 -194z" />
    <glyph glyph-name="paragraph" unicode="&#xb6;" horiz-adv-x="626" 
d="M29 464c0 101 64 184 230 184h106v-648h-152v8l60 7v265h-14c-166 0 -230 82 -230 184zM588 640l-60 -7v-618l60 -7v-8h-152v648h152v-8z" />
    <glyph glyph-name="copyright" unicode="&#xa9;" horiz-adv-x="736" 
d="M368 656c211 0 330 -153 330 -332s-119 -332 -330 -332s-330 153 -330 332s119 332 330 332zM368 7c181 0 312 124 312 317s-131 317 -312 317s-312 -124 -312 -317s131 -317 312 -317zM416 163c97 0 123 61 123 93h13c0 -47 -43 -133 -184 -133c-130 0 -194 86 -194 209
c0 116 56 208 214 208c99 0 159 -63 159 -123c0 -35 -27 -70 -72 -70s-72 31 -72 70s27 69 72 69c4 0 7 0 11 -1l2 12c-25 18 -60 29 -100 29c-34 0 -59 -35 -59 -194c0 -117 22 -169 87 -169z" />
    <glyph glyph-name="registered" unicode="&#xae;" horiz-adv-x="436" 
d="M218 656c116 0 181 -85 181 -183c0 -99 -65 -183 -181 -183s-181 84 -181 183c0 98 65 183 181 183zM218 304c97 0 164 70 164 169s-67 168 -164 168s-164 -69 -164 -168s67 -169 164 -169zM331 403h10v-7c0 -19 -10 -37 -48 -37c-29 0 -44 17 -44 41v34
c0 19 -11 30 -31 30h-27v-91l21 -2v-9h-99v9l21 2v205l-21 2v9h111c62 0 86 -28 86 -61c0 -32 -21 -58 -71 -58v-1c46 0 67 -21 67 -52v-21c0 -10 3 -16 13 -16c8 0 12 7 12 16v7zM191 474h28c16 0 28 9 28 54c0 40 -12 51 -28 51h-28v-105z" />
    <glyph glyph-name="section" unicode="&#xa7;" horiz-adv-x="536" 
d="M439 44c33 -29 55 -64 55 -109c0 -117 -95 -193 -231 -193c-110 0 -209 43 -209 43l-8 153h9l6 -25c14 -53 62 -156 202 -156c72 0 107 35 107 100c0 166 -320 176 -320 365c0 64 25 108 63 137c-37 30 -63 65 -63 113c0 144 127 184 230 184c107 0 177 -40 177 -40
l4 -156h-9l-4 21c-10 42 -36 160 -166 160c-69 0 -108 -30 -108 -87c0 -149 320 -173 320 -369c0 -59 -19 -107 -55 -141zM154 298c0 -103 133 -150 233 -214c1 9 2 18 2 29c0 106 -131 152 -230 213c-3 -8 -5 -18 -5 -28z" />
    <glyph glyph-name="trademark" unicode="&#x2122;" horiz-adv-x="872" 
d="M820 637l-36 -3v-309l36 -3v-11h-162v11l36 3v283h-1l-125 -300h-11l-140 307h-2v-269c0 -12 11 -24 36 -24v-11h-87v11c25 0 36 12 36 24v199c0 52 -42 89 -96 89h-43v-309l46 -3v-11h-182v11l46 3v309h-27c-54 0 -92 -37 -96 -89v-10h-12l3 113h450l112 -223h3l90 223
h126v-11z" />
    <glyph glyph-name="degree" unicode="&#xb0;" horiz-adv-x="388" 
d="M194 362c-103 0 -161 75 -161 161c0 85 58 161 161 161s161 -76 161 -161c0 -86 -58 -161 -161 -161zM194 377c85 0 144 57 144 146s-59 145 -144 145s-144 -56 -144 -145s59 -146 144 -146z" />
    <glyph glyph-name="dagger" unicode="&#x2020;" horiz-adv-x="625" 
d="M513 519c46 0 80 -24 80 -66c0 -43 -34 -68 -81 -67c-55 0 -139 51 -190 57v-20c0 -46 59 -164 59 -164s-59 -356 -59 -509h-17c0 153 -58 509 -58 509s58 118 58 164v21c-50 -6 -136 -58 -191 -58c-47 -1 -81 24 -81 67c-1 42 34 66 80 66c55 0 141 -52 192 -58v11
c0 50 -58 142 -58 200c0 47 25 81 67 81s67 -34 67 -81c0 -58 -59 -150 -59 -200v-10c51 6 136 57 191 57z" />
    <glyph glyph-name="daggerdbl" unicode="&#x2021;" horiz-adv-x="625" 
d="M512 109c47 1 81 -24 81 -67c0 -42 -34 -66 -80 -66c-55 0 -140 51 -191 57v-10c0 -50 59 -142 59 -200c0 -47 -25 -81 -67 -81s-67 34 -67 81c0 58 58 150 58 200v11c-51 -6 -137 -58 -192 -58c-46 0 -81 24 -80 66c0 43 34 68 81 67c55 0 141 -52 191 -58v34
c0 45 -58 164 -58 164s58 119 58 164v31c-50 -6 -136 -58 -191 -58c-47 -1 -81 24 -81 67c-1 42 34 66 80 66c55 0 141 -52 192 -58v11c0 50 -58 142 -58 200c0 47 25 81 67 81s67 -34 67 -81c0 -58 -59 -150 -59 -200v-10c51 6 136 57 191 57c46 0 80 -24 80 -66
c0 -43 -34 -68 -81 -67c-55 0 -139 51 -190 57v-30c0 -45 59 -164 59 -164s-59 -119 -59 -164v-33c51 6 135 57 190 57z" />
    <glyph glyph-name="uni0326" unicode="&#x326;" horiz-adv-x="0" 
d="M-123 -51c46 0 93 -26 93 -109c0 -126 -95 -141 -123 -141v13c46 0 108 34 108 128c0 9 -1 18 -2 26l-13 -2c-7 -30 -32 -46 -63 -46c-37 0 -65 23 -65 65c0 43 28 66 65 66z" />
    <glyph glyph-name="acute" unicode="&#xb4;" 
d="M50 460l40 136h107v-9l-135 -127h-12z" />
    <glyph glyph-name="breve" unicode="&#x2d8;" 
d="M245 616c1 -97 -47 -145 -108 -145c-60 0 -107 40 -106 145h13c0 -36 23 -72 93 -72s95 36 95 72h13z" />
    <glyph glyph-name="caron" unicode="&#x2c7;" 
d="M286 611h12l-100 -151h-67l-100 151h12l122 -92z" />
    <glyph glyph-name="cedilla" unicode="&#xb8;" 
d="M115 -44c77 -3 112 -35 112 -72c0 -36 -30 -68 -100 -68c-62 0 -91 28 -91 28l-6 43h6s23 -57 76 -57c21 0 42 12 42 54c0 50 -27 58 -65 58c4 6 35 58 35 58l17 -1s-18 -29 -26 -43z" />
    <glyph glyph-name="circumflex" unicode="&#x2c6;" 
d="M286 460l-121 87l-122 -87h-12l100 146h67l100 -146h-12z" />
    <glyph glyph-name="dieresis" unicode="&#xa8;" 
d="M30 505c0 33 23 51 53 51s53 -18 53 -51s-23 -50 -53 -50s-53 17 -53 50zM200 505c0 33 23 51 53 51s53 -18 53 -51s-23 -50 -53 -50s-53 17 -53 50z" />
    <glyph glyph-name="dotaccent" unicode="&#x2d9;" 
d="M30 503c0 33 23 51 53 51s53 -18 53 -51s-23 -50 -53 -50s-53 17 -53 50z" />
    <glyph glyph-name="grave" unicode="`" 
d="M147 460h-12l-135 127v9h107z" />
    <glyph glyph-name="hungarumlaut" unicode="&#x2dd;" 
d="M50 460l40 136h107v-9l-135 -127h-12zM219 460l40 136h107v-9l-135 -127h-12z" />
    <glyph glyph-name="macron" unicode="&#xaf;" 
d="M29 499h260v-15h-260v15z" />
    <glyph glyph-name="ogonek" unicode="&#x2db;" 
d="M207 -159c0 0 -26 -30 -82 -30c-58 0 -95 25 -95 79c0 92 125 116 125 116h22s-78 -14 -78 -98c0 -52 19 -77 53 -77c28 0 49 21 49 21z" />
    <glyph glyph-name="ring" unicode="&#x2da;" 
d="M145 481c-68 0 -105 37 -105 93c0 55 37 92 105 92s105 -37 105 -92c0 -56 -37 -93 -105 -93zM145 495c25 0 37 32 37 79s-12 78 -37 78c-26 0 -37 -31 -37 -78s11 -79 37 -79z" />
    <glyph glyph-name="tilde" unicode="&#x2dc;" 
d="M30 485c0 0 26 89 90 89c52 0 88 -61 131 -61c34 0 52 33 52 33l8 -5s-25 -88 -90 -88c-57 0 -82 59 -129 59c-37 0 -54 -31 -54 -31z" />
    <glyph glyph-name="caron.alt" 
d="M90 440v156h107v-9l-95 -147h-12z" />
    <glyph glyph-name="acute.case" 
d="M50 460l60 126h117v-9l-155 -117h-22z" />
    <glyph glyph-name="breve.case" 
d="M264 606c1 -87 -47 -135 -118 -135c-70 0 -117 40 -116 135h13c0 -26 23 -62 103 -62s105 36 105 62h13z" />
    <glyph glyph-name="caron.case" 
d="M286 601h12l-90 -141h-87l-90 141h12l122 -82z" />
    <glyph glyph-name="circumflex.case" 
d="M286 460l-121 77l-122 -77h-12l90 136h87l90 -136h-12z" />
    <glyph glyph-name="dieresis.case" 
d="M183 739c0 33 23 51 53 51s53 -18 53 -51s-23 -50 -53 -50s-53 17 -53 50zM353 739c0 33 23 51 53 51s53 -18 53 -51s-23 -50 -53 -50s-53 17 -53 50z" />
    <glyph glyph-name="dotaccent.case" 
d="M247 750c0 33 23 51 53 51s53 -18 53 -51s-23 -50 -53 -50s-53 17 -53 50z" />
    <glyph glyph-name="grave.case" 
d="M177 460h-22l-155 117v9h117z" />
    <glyph glyph-name="hungarumlaut.case" 
d="M50 460l60 126h117v-9l-155 -117h-22zM199 460l60 126h117v-9l-155 -117h-22z" />
    <glyph glyph-name="macron.case" 
d="M187 740h260v-15h-260v15z" />
    <glyph glyph-name="ring.case" 
d="M317 697c-68 0 -105 37 -105 93c0 55 37 92 105 92s105 -37 105 -92c0 -56 -37 -93 -105 -93zM317 711c25 0 37 32 37 79s-12 78 -37 78c-26 0 -37 -31 -37 -78s11 -79 37 -79z" />
    <glyph glyph-name="tilde.case" 
d="M171 713c0 0 26 89 90 89c52 0 88 -61 131 -61c34 0 52 33 52 33l8 -5s-25 -88 -90 -88c-57 0 -82 59 -129 59c-37 0 -54 -31 -54 -31z" />
    <glyph glyph-name="NULL" horiz-adv-x="148" 
 />
    <glyph glyph-name="IJacute" horiz-adv-x="758" 
d="M290 801l-155 -117h-22l60 126h117v-9zM708 801l-155 -117h-22l60 126h117v-9zM308 648v-8l-60 -7v-618l60 -7v-8h-270v8l60 7v618l-60 7v8h270zM733 648v-8l-60 -7v-443c0 -105 -45 -198 -193 -198c-74 0 -127 46 -127 98c0 33 26 60 59 60s59 -27 59 -60
s-26 -59 -59 -59h-3v-5c16 -12 38 -20 65 -20c34 0 49 20 49 52v575l-60 7v8h270z" />
    <glyph glyph-name="ijacute" horiz-adv-x="737" 
d="M269 715l-135 -127h-12l40 136h107v-9zM640 715l-135 -127h-12l40 136h107v-9zM300 551v-8l-57 -7v-521l57 -7v-8h-264v8l57 7v521l-57 7v8h264zM714 551v-8l-57 -7v-369c0 -89 -42 -174 -185 -174c-78 0 -126 44 -127 88v1c0 30 23 58 55 58c33 0 58 -28 58 -58
s-25 -56 -57 -57c16 -10 38 -17 64 -17c30 0 41 18 41 34v494l-56 7v8h264z" />
    </font>
</defs>
</svg>
