<svg 
 xmlns="http://www.w3.org/2000/svg"
 xmlns:xlink="http://www.w3.org/1999/xlink"
 width="41px" height="35px">
<path fill-rule="evenodd"  opacity="0.302" fill="rgb(44, 166, 164)"
 d="M40.635,27.872 C39.488,32.066 35.714,34.997 31.459,34.997 C31.445,34.997 31.431,34.996 31.417,34.996 C27.968,34.858 25.288,33.481 23.451,30.902 C20.168,26.292 20.558,18.971 21.891,14.100 C24.161,5.798 29.542,0.000 34.975,0.000 C35.312,0.000 35.652,0.024 35.987,0.071 C36.294,0.114 36.568,0.291 36.738,0.557 C36.910,0.822 36.959,1.150 36.876,1.455 L35.886,5.073 C35.772,5.490 35.428,5.800 35.009,5.864 C30.483,6.552 28.210,12.661 27.265,16.201 C28.246,15.767 29.511,15.412 31.028,15.412 C32.010,15.412 33.019,15.564 34.028,15.860 C36.490,16.584 38.525,18.220 39.761,20.465 C41.010,22.733 41.320,25.364 40.635,27.872 ZM10.553,34.996 C10.539,34.996 10.525,34.996 10.511,34.995 C7.062,34.858 4.382,33.480 2.545,30.902 C-0.738,26.292 -0.347,18.971 0.986,14.100 C3.256,5.798 8.637,0.000 14.070,0.000 C14.407,0.000 14.748,0.024 15.082,0.071 C15.389,0.114 15.664,0.291 15.834,0.557 C16.005,0.822 16.054,1.150 15.971,1.455 L14.982,5.073 C14.867,5.490 14.524,5.800 14.104,5.864 C9.578,6.552 7.306,12.661 6.360,16.201 C7.341,15.767 8.607,15.412 10.123,15.412 C11.105,15.412 12.115,15.564 13.124,15.860 C15.585,16.584 17.621,18.220 18.856,20.465 C20.106,22.733 20.416,25.364 19.730,27.871 C18.582,32.066 14.809,34.996 10.553,34.996 Z"/>
</svg>