<svg 
 xmlns="http://www.w3.org/2000/svg"
 xmlns:xlink="http://www.w3.org/1999/xlink"
 width="12px" height="10px">
<path fill-rule="evenodd"  fill="rgb(44, 166, 164)"
 d="M0.138,5.493 C0.046,5.393 -0.000,5.242 -0.000,5.142 C-0.000,5.042 0.046,4.892 0.138,4.791 L0.784,4.090 C0.969,3.890 1.246,3.890 1.430,4.090 L1.477,4.141 L4.015,7.095 C4.108,7.195 4.246,7.195 4.338,7.095 L10.523,0.134 L10.569,0.134 L10.569,0.134 L10.569,0.134 C10.753,-0.066 11.030,-0.066 11.215,0.134 L11.861,0.836 C12.046,1.036 12.046,1.336 11.861,1.536 L11.861,1.536 L11.861,1.536 L4.477,9.849 C4.384,9.950 4.292,9.999 4.153,9.999 C4.015,9.999 3.923,9.950 3.831,9.849 L0.231,5.643 L0.138,5.493 Z"/>
</svg>