<svg 
 xmlns="http://www.w3.org/2000/svg"
 xmlns:xlink="http://www.w3.org/1999/xlink"
 width="47px" height="49px">
<defs>
<filter filterUnits="userSpaceOnUse" id="Filter_0" x="0px" y="0px" width="47px" height="49px"  >
    <feOffset in="SourceAlpha" dx="0" dy="2" />
    <feGaussianBlur result="blurOut" stdDeviation="2.449" />
    <feFlood flood-color="rgb(0, 0, 0)" result="floodOut" />
    <feComposite operator="atop" in="floodOut" in2="blurOut" />
    <feComponentTransfer><feFuncA type="linear" slope="0.27"/></feComponentTransfer>
    <feMerge>
    <feMergeNode/>
    <feMergeNode in="SourceGraphic"/>
  </feMerge>
</filter>

</defs>
<g filter="url(#Filter_0)">
<path fill-rule="evenodd"  fill="rgb(253, 253, 253)"
 d="M25.156,3.856 C25.217,4.095 25.306,4.151 25.437,4.312 C25.469,4.312 25.500,4.312 25.531,4.312 C25.531,4.373 25.531,4.434 25.531,4.494 C25.562,4.494 25.594,4.494 25.625,4.494 C25.656,4.616 25.687,4.738 25.719,4.859 C25.750,4.859 25.781,4.859 25.812,4.859 C25.812,4.951 25.812,5.042 25.812,5.133 C25.844,5.133 25.875,5.133 25.906,5.133 C25.906,5.285 25.906,5.437 25.906,5.590 C25.937,5.590 25.969,5.590 26.000,5.590 C26.076,5.811 25.975,6.125 25.906,6.228 C25.937,6.228 25.969,6.228 26.000,6.228 C26.000,6.259 26.000,6.289 26.000,6.320 C26.344,6.381 26.687,6.441 27.031,6.502 C27.031,6.533 27.031,6.563 27.031,6.593 C27.312,6.654 27.594,6.715 27.875,6.776 C27.875,6.806 27.875,6.837 27.875,6.867 C28.062,6.928 28.250,6.989 28.437,7.050 C28.437,7.080 28.437,7.111 28.437,7.141 C28.500,7.141 28.562,7.141 28.625,7.141 C28.625,7.171 28.625,7.202 28.625,7.232 C28.687,7.232 28.750,7.232 28.812,7.232 C28.812,7.263 28.812,7.293 28.812,7.324 C29.000,7.384 29.187,7.445 29.375,7.506 C29.406,7.567 29.437,7.628 29.469,7.689 C29.531,7.689 29.594,7.689 29.656,7.689 C29.687,7.749 29.719,7.810 29.750,7.871 C29.812,7.871 29.875,7.871 29.937,7.871 C30.000,7.962 30.062,8.054 30.125,8.145 C30.187,8.145 30.250,8.145 30.312,8.145 C30.625,8.480 30.937,8.814 31.250,9.149 C31.406,9.271 31.562,9.392 31.719,9.514 C31.719,9.575 31.719,9.636 31.719,9.696 C31.844,9.788 31.969,9.879 32.094,9.970 C32.094,10.031 32.094,10.092 32.094,10.153 C32.156,10.183 32.219,10.214 32.281,10.244 C32.312,10.335 32.344,10.427 32.375,10.518 C32.406,10.518 32.437,10.518 32.469,10.518 C32.500,10.640 32.531,10.761 32.562,10.883 C32.625,10.913 32.687,10.944 32.750,10.974 C32.812,11.157 32.875,11.339 32.937,11.522 C32.969,11.522 33.000,11.522 33.031,11.522 C33.094,11.704 33.156,11.887 33.219,12.069 C33.250,12.069 33.281,12.069 33.312,12.069 C33.344,12.221 33.375,12.374 33.406,12.526 C33.437,12.526 33.469,12.526 33.500,12.526 C33.500,12.586 33.500,12.647 33.500,12.708 C33.531,12.708 33.562,12.708 33.594,12.708 C33.594,12.799 33.594,12.891 33.594,12.982 C33.625,12.982 33.656,12.982 33.687,12.982 C33.687,13.073 33.687,13.164 33.687,13.256 C33.719,13.256 33.750,13.256 33.781,13.256 C33.781,13.347 33.781,13.438 33.781,13.530 C33.812,13.530 33.844,13.530 33.875,13.530 C33.875,13.621 33.875,13.712 33.875,13.803 C33.906,13.803 33.937,13.803 33.969,13.803 C33.969,13.895 33.969,13.986 33.969,14.077 C34.000,14.077 34.031,14.077 34.062,14.077 C34.250,14.929 34.437,15.781 34.625,16.633 C34.625,16.845 34.625,17.058 34.625,17.271 C34.656,17.271 34.687,17.271 34.719,17.271 C34.719,17.545 34.719,17.819 34.719,18.093 C34.750,18.093 34.781,18.093 34.812,18.093 C34.812,18.427 34.812,18.762 34.812,19.097 C34.844,19.097 34.875,19.097 34.906,19.097 C34.906,19.705 34.906,20.314 34.906,20.922 C35.119,21.658 34.999,22.857 35.000,23.751 C35.000,24.025 35.000,24.299 35.000,24.572 C35.031,24.572 35.062,24.572 35.094,24.572 C35.094,24.755 35.094,24.938 35.094,25.120 C35.125,25.120 35.156,25.120 35.187,25.120 C35.187,25.242 35.187,25.363 35.187,25.485 C35.219,25.485 35.250,25.485 35.281,25.485 C35.281,25.607 35.281,25.728 35.281,25.850 C35.312,25.850 35.344,25.850 35.375,25.850 C35.375,25.941 35.375,26.033 35.375,26.124 C35.406,26.124 35.437,26.124 35.469,26.124 C35.469,26.215 35.469,26.306 35.469,26.398 C35.500,26.398 35.531,26.398 35.562,26.398 C35.562,26.489 35.562,26.580 35.562,26.672 C35.594,26.672 35.625,26.672 35.656,26.672 C35.719,26.854 35.781,27.037 35.844,27.219 C35.875,27.219 35.906,27.219 35.937,27.219 C35.937,27.280 35.937,27.341 35.937,27.402 C35.969,27.402 36.000,27.402 36.031,27.402 C36.094,27.584 36.156,27.767 36.219,27.949 C36.281,27.980 36.344,28.010 36.406,28.040 C36.406,28.101 36.406,28.162 36.406,28.223 C36.469,28.253 36.531,28.284 36.594,28.314 C36.594,28.375 36.594,28.436 36.594,28.497 C36.656,28.527 36.719,28.558 36.781,28.588 C36.781,28.649 36.781,28.710 36.781,28.771 C36.875,28.831 36.969,28.892 37.062,28.953 C37.062,29.014 37.062,29.075 37.062,29.136 C37.219,29.257 37.375,29.379 37.531,29.501 C37.531,29.562 37.531,29.622 37.531,29.683 C37.750,29.866 37.969,30.048 38.187,30.231 C38.250,30.322 38.312,30.413 38.375,30.505 C38.437,30.505 38.500,30.505 38.562,30.505 C38.687,30.657 38.813,30.809 38.937,30.961 C39.000,30.961 39.062,30.961 39.125,30.961 C39.219,31.083 39.313,31.204 39.406,31.326 C39.469,31.326 39.531,31.326 39.594,31.326 C39.656,31.417 39.719,31.509 39.781,31.600 C39.844,31.600 39.906,31.600 39.969,31.600 C40.000,31.661 40.031,31.721 40.062,31.782 C40.187,31.813 40.312,31.843 40.437,31.874 C40.469,31.934 40.500,31.995 40.531,32.056 C40.639,32.124 40.940,32.135 41.000,32.239 C41.000,33.212 41.000,34.186 41.000,35.159 C29.001,35.159 16.999,35.159 5.000,35.159 C5.000,34.186 5.000,33.212 5.000,32.239 C5.406,32.026 5.812,31.813 6.219,31.600 C6.281,31.509 6.344,31.417 6.406,31.326 C6.469,31.326 6.531,31.326 6.594,31.326 C6.656,31.235 6.719,31.143 6.781,31.052 C6.844,31.052 6.906,31.052 6.969,31.052 C7.125,30.870 7.281,30.687 7.437,30.505 C7.500,30.505 7.562,30.505 7.625,30.505 C7.687,30.413 7.750,30.322 7.812,30.231 C8.031,30.048 8.250,29.866 8.469,29.683 C8.469,29.622 8.469,29.562 8.469,29.501 C8.625,29.379 8.781,29.257 8.937,29.136 C8.937,29.075 8.937,29.014 8.937,28.953 C9.031,28.892 9.125,28.831 9.219,28.771 C9.219,28.710 9.219,28.649 9.219,28.588 C9.312,28.527 9.406,28.466 9.500,28.406 C9.531,28.284 9.562,28.162 9.594,28.040 C9.656,28.010 9.719,27.980 9.781,27.949 C9.812,27.828 9.844,27.706 9.875,27.584 C9.906,27.584 9.937,27.584 9.969,27.584 C9.969,27.523 9.969,27.462 9.969,27.402 C10.000,27.402 10.031,27.402 10.062,27.402 C10.062,27.341 10.062,27.280 10.062,27.219 C10.094,27.219 10.125,27.219 10.156,27.219 C10.219,27.037 10.281,26.854 10.344,26.672 C10.375,26.672 10.406,26.672 10.437,26.672 C10.437,26.580 10.437,26.489 10.437,26.398 C10.469,26.398 10.500,26.398 10.531,26.398 C10.531,26.306 10.531,26.215 10.531,26.124 C10.562,26.124 10.594,26.124 10.625,26.124 C10.625,26.033 10.625,25.941 10.625,25.850 C10.656,25.850 10.687,25.850 10.719,25.850 C10.719,25.728 10.719,25.607 10.719,25.485 C10.750,25.485 10.781,25.485 10.812,25.485 C10.812,25.363 10.812,25.242 10.812,25.120 C10.844,25.120 10.875,25.120 10.906,25.120 C11.144,24.368 10.999,22.775 11.000,21.835 C11.000,21.530 11.000,21.226 11.000,20.922 C11.136,20.452 10.941,19.623 11.094,19.097 C11.125,19.097 11.156,19.097 11.188,19.097 C11.188,18.762 11.188,18.427 11.188,18.093 C11.219,18.093 11.250,18.093 11.281,18.093 C11.281,17.819 11.281,17.545 11.281,17.271 C11.312,17.271 11.344,17.271 11.375,17.271 C11.375,17.058 11.375,16.845 11.375,16.633 C11.406,16.633 11.437,16.633 11.469,16.633 C11.469,16.450 11.469,16.267 11.469,16.085 C11.500,16.085 11.531,16.085 11.562,16.085 C11.562,15.933 11.562,15.781 11.562,15.629 C11.594,15.629 11.625,15.629 11.656,15.629 C11.656,15.476 11.656,15.324 11.656,15.172 C11.687,15.172 11.719,15.172 11.750,15.172 C11.750,15.051 11.750,14.929 11.750,14.807 C11.781,14.807 11.812,14.807 11.844,14.807 C11.844,14.686 11.844,14.564 11.844,14.442 C11.875,14.442 11.906,14.442 11.937,14.442 C11.969,14.229 12.000,14.016 12.031,13.803 C12.062,13.803 12.094,13.803 12.125,13.803 C12.187,13.530 12.250,13.256 12.312,12.982 C12.344,12.982 12.375,12.982 12.406,12.982 C12.406,12.921 12.406,12.860 12.406,12.799 C12.437,12.799 12.469,12.799 12.500,12.799 C12.500,12.708 12.500,12.617 12.500,12.526 C12.531,12.526 12.562,12.526 12.594,12.526 C12.594,12.465 12.594,12.404 12.594,12.343 C12.625,12.343 12.656,12.343 12.687,12.343 C12.687,12.252 12.687,12.161 12.687,12.069 C12.719,12.069 12.750,12.069 12.781,12.069 C12.844,11.887 12.906,11.704 12.969,11.522 C13.000,11.522 13.031,11.522 13.063,11.522 C13.125,11.339 13.187,11.157 13.250,10.974 C13.312,10.944 13.375,10.913 13.437,10.883 C13.469,10.761 13.500,10.640 13.531,10.518 C13.562,10.518 13.594,10.518 13.625,10.518 C13.656,10.427 13.687,10.335 13.719,10.244 C13.781,10.214 13.844,10.183 13.906,10.153 C13.906,10.092 13.906,10.031 13.906,9.970 C14.000,9.909 14.094,9.849 14.187,9.788 C14.187,9.727 14.187,9.666 14.187,9.605 C14.469,9.362 14.750,9.118 15.031,8.875 C15.250,8.632 15.469,8.388 15.687,8.145 C15.750,8.145 15.812,8.145 15.875,8.145 C15.937,8.054 16.000,7.962 16.062,7.871 C16.125,7.871 16.187,7.871 16.250,7.871 C16.281,7.810 16.312,7.749 16.344,7.689 C16.406,7.689 16.469,7.689 16.531,7.689 C16.562,7.628 16.594,7.567 16.625,7.506 C16.812,7.445 17.000,7.384 17.187,7.324 C17.187,7.293 17.187,7.263 17.187,7.232 C17.250,7.232 17.312,7.232 17.375,7.232 C17.375,7.202 17.375,7.171 17.375,7.141 C17.437,7.141 17.500,7.141 17.562,7.141 C17.562,7.111 17.562,7.080 17.562,7.050 C17.750,6.989 17.937,6.928 18.125,6.867 C18.125,6.837 18.125,6.806 18.125,6.776 C18.781,6.594 19.438,6.411 20.094,6.228 C19.895,5.731 20.223,4.670 20.469,4.312 C20.500,4.312 20.531,4.312 20.562,4.312 C20.697,4.148 20.773,4.094 20.844,3.856 C21.088,3.789 21.145,3.712 21.312,3.582 C21.312,3.551 21.312,3.521 21.312,3.490 C21.375,3.490 21.437,3.490 21.500,3.490 C21.500,3.460 21.500,3.430 21.500,3.399 C21.787,3.246 22.862,2.890 23.375,3.034 C23.375,3.065 23.375,3.095 23.375,3.125 C23.531,3.125 23.687,3.125 23.844,3.125 C23.844,3.156 23.844,3.186 23.844,3.217 C23.937,3.217 24.031,3.217 24.125,3.217 C24.125,3.247 24.125,3.278 24.125,3.308 C24.250,3.338 24.375,3.369 24.500,3.399 C24.500,3.430 24.500,3.460 24.500,3.490 C24.562,3.490 24.625,3.490 24.687,3.490 C24.687,3.521 24.687,3.551 24.687,3.582 C24.855,3.712 24.911,3.790 25.156,3.856 ZM17.000,38.080 C21.000,38.080 25.000,38.080 29.000,38.080 C29.000,38.754 28.818,39.301 28.531,39.722 C28.469,39.753 28.406,39.783 28.344,39.814 C28.344,39.874 28.344,39.935 28.344,39.996 C28.219,40.087 28.094,40.179 27.969,40.270 C27.969,40.300 27.969,40.331 27.969,40.361 C27.906,40.361 27.844,40.361 27.781,40.361 C27.750,40.422 27.719,40.483 27.687,40.544 C27.625,40.544 27.562,40.544 27.500,40.544 C27.469,40.605 27.437,40.665 27.406,40.726 C27.312,40.726 27.219,40.726 27.125,40.726 C27.125,40.757 27.125,40.787 27.125,40.817 C27.062,40.817 27.000,40.817 26.937,40.817 C26.937,40.848 26.937,40.878 26.937,40.909 C26.812,40.909 26.687,40.909 26.562,40.909 C26.562,40.939 26.562,40.970 26.562,41.000 C25.375,41.000 24.187,41.000 23.000,41.000 C21.813,41.000 20.625,41.000 19.437,41.000 C19.437,40.970 19.437,40.939 19.437,40.909 C19.312,40.909 19.187,40.909 19.062,40.909 C19.062,40.878 19.062,40.848 19.062,40.817 C19.000,40.817 18.937,40.817 18.875,40.817 C18.875,40.787 18.875,40.757 18.875,40.726 C18.781,40.726 18.687,40.726 18.594,40.726 C18.562,40.665 18.531,40.605 18.500,40.544 C18.437,40.544 18.375,40.544 18.312,40.544 C18.281,40.483 18.250,40.422 18.219,40.361 C18.156,40.361 18.094,40.361 18.031,40.361 C17.937,40.239 17.844,40.118 17.750,39.996 C17.719,39.996 17.687,39.996 17.656,39.996 C17.656,39.935 17.656,39.874 17.656,39.814 C17.594,39.783 17.531,39.753 17.469,39.722 C17.182,39.299 17.000,38.755 17.000,38.080 Z"/>
</g>
</svg>