<svg 
 xmlns="http://www.w3.org/2000/svg"
 xmlns:xlink="http://www.w3.org/1999/xlink"
 width="72px" height="71px">
<path fill-rule="evenodd"  fill="rgb(247, 247, 248)"
 d="M33.146,0.011 C34.139,0.011 35.132,0.011 36.124,0.011 C36.639,0.011 37.316,-0.034 37.717,0.080 C38.271,0.103 38.825,0.126 39.379,0.149 C39.982,0.324 40.802,0.320 41.388,0.496 C41.526,0.496 41.665,0.496 41.803,0.496 C42.306,0.651 42.975,0.753 43.465,0.912 C43.581,0.912 43.696,0.912 43.812,0.912 C45.031,1.309 46.367,1.603 47.482,2.089 C47.690,2.136 47.897,2.182 48.105,2.228 C49.663,2.910 51.299,3.576 52.676,4.445 C52.814,4.491 52.953,4.538 53.091,4.584 C53.115,4.630 53.138,4.676 53.161,4.722 C53.299,4.769 53.438,4.815 53.576,4.861 C53.599,4.907 53.622,4.953 53.645,5.000 C53.692,5.000 53.738,5.000 53.784,5.000 C53.784,5.023 53.784,5.046 53.784,5.069 C53.830,5.069 53.876,5.069 53.922,5.069 C53.922,5.092 53.922,5.115 53.922,5.138 C53.992,5.161 54.061,5.184 54.130,5.207 C54.153,5.254 54.176,5.300 54.199,5.346 C54.292,5.369 54.384,5.392 54.476,5.415 C54.476,5.438 54.476,5.461 54.476,5.484 C54.546,5.508 54.615,5.531 54.684,5.554 C54.707,5.600 54.730,5.646 54.754,5.692 C54.800,5.692 54.846,5.692 54.892,5.692 C54.915,5.739 54.938,5.785 54.961,5.831 C55.007,5.831 55.054,5.831 55.100,5.831 C55.123,5.877 55.146,5.923 55.169,5.969 C55.215,5.969 55.261,5.969 55.308,5.969 C55.331,6.016 55.354,6.062 55.377,6.108 C55.423,6.108 55.469,6.108 55.515,6.108 C55.515,6.131 55.515,6.154 55.515,6.177 C55.584,6.200 55.654,6.224 55.723,6.247 C55.746,6.293 55.769,6.339 55.792,6.385 C55.838,6.385 55.885,6.385 55.931,6.385 C55.977,6.455 56.023,6.524 56.069,6.593 C56.116,6.593 56.162,6.593 56.208,6.593 C56.231,6.639 56.254,6.685 56.277,6.732 C56.323,6.732 56.369,6.732 56.416,6.732 C56.462,6.801 56.508,6.870 56.554,6.940 C56.600,6.940 56.646,6.940 56.693,6.940 C56.739,7.009 56.785,7.078 56.831,7.147 C56.877,7.147 56.923,7.147 56.970,7.147 C57.016,7.217 57.062,7.286 57.108,7.355 C57.154,7.355 57.201,7.355 57.247,7.355 C57.316,7.448 57.385,7.540 57.454,7.632 C57.501,7.632 57.547,7.632 57.593,7.632 C57.662,7.725 57.731,7.817 57.801,7.910 C57.847,7.910 57.893,7.910 57.939,7.910 C58.031,8.025 58.124,8.141 58.216,8.256 C58.262,8.256 58.309,8.256 58.355,8.256 C58.447,8.371 58.539,8.487 58.632,8.602 C58.678,8.602 58.724,8.602 58.770,8.602 C58.909,8.764 59.047,8.926 59.186,9.087 C59.232,9.087 59.278,9.087 59.324,9.087 C59.763,9.549 60.201,10.011 60.640,10.473 C61.250,11.084 61.857,11.632 62.371,12.344 C62.510,12.459 62.648,12.575 62.787,12.690 C62.787,12.737 62.787,12.783 62.787,12.829 C62.879,12.898 62.972,12.968 63.064,13.037 C63.064,13.083 63.064,13.129 63.064,13.175 C63.156,13.245 63.249,13.314 63.341,13.383 C63.341,13.429 63.341,13.476 63.341,13.522 C63.433,13.591 63.526,13.660 63.618,13.730 C63.618,13.776 63.618,13.822 63.618,13.868 C63.687,13.914 63.756,13.961 63.826,14.007 C63.826,14.053 63.826,14.099 63.826,14.145 C63.895,14.192 63.964,14.238 64.033,14.284 C64.033,14.330 64.033,14.376 64.033,14.423 C64.103,14.469 64.172,14.515 64.241,14.561 C64.241,14.607 64.241,14.654 64.241,14.700 C64.287,14.723 64.334,14.746 64.380,14.769 C64.380,14.815 64.380,14.861 64.380,14.908 C64.449,14.954 64.518,15.000 64.587,15.046 C64.587,15.092 64.587,15.139 64.587,15.185 C64.634,15.208 64.680,15.231 64.726,15.254 C64.726,15.300 64.726,15.346 64.726,15.393 C64.772,15.416 64.818,15.439 64.865,15.462 C64.865,15.508 64.865,15.554 64.865,15.600 C64.911,15.624 64.957,15.647 65.003,15.670 C65.003,15.716 65.003,15.762 65.003,15.808 C65.049,15.831 65.095,15.854 65.142,15.878 C65.142,15.924 65.142,15.970 65.142,16.016 C65.188,16.039 65.234,16.062 65.280,16.085 C65.280,16.132 65.280,16.178 65.280,16.224 C65.326,16.247 65.372,16.270 65.419,16.293 C65.419,16.340 65.419,16.386 65.419,16.432 C65.465,16.455 65.511,16.478 65.557,16.501 C65.580,16.594 65.603,16.686 65.626,16.778 C65.649,16.778 65.672,16.778 65.696,16.778 C65.719,16.848 65.742,16.917 65.765,16.986 C65.811,17.009 65.857,17.032 65.903,17.055 C65.926,17.148 65.950,17.240 65.973,17.333 C66.019,17.356 66.065,17.379 66.111,17.402 C66.157,17.540 66.203,17.679 66.250,17.818 C66.296,17.841 66.342,17.864 66.388,17.887 C66.434,18.026 66.480,18.164 66.527,18.303 C66.573,18.326 66.619,18.349 66.665,18.372 C66.665,18.418 66.665,18.464 66.665,18.510 C66.688,18.510 66.711,18.510 66.734,18.510 C66.734,18.557 66.734,18.603 66.734,18.649 C66.757,18.649 66.780,18.649 66.804,18.649 C66.804,18.695 66.804,18.741 66.804,18.788 C66.827,18.788 66.850,18.788 66.873,18.788 C66.873,18.834 66.873,18.880 66.873,18.926 C66.896,18.926 66.919,18.926 66.942,18.926 C66.942,18.972 66.942,19.019 66.942,19.065 C66.965,19.065 66.988,19.065 67.011,19.065 C67.034,19.157 67.058,19.250 67.081,19.342 C67.104,19.342 67.127,19.342 67.150,19.342 C67.173,19.434 67.196,19.527 67.219,19.619 C67.242,19.619 67.265,19.619 67.288,19.619 C67.288,19.665 67.288,19.712 67.288,19.758 C67.311,19.758 67.335,19.758 67.358,19.758 C67.358,19.804 67.358,19.850 67.358,19.896 C67.381,19.896 67.404,19.896 67.427,19.896 C67.427,19.942 67.427,19.989 67.427,20.035 C67.450,20.035 67.473,20.035 67.496,20.035 C67.496,20.081 67.496,20.127 67.496,20.173 C67.519,20.173 67.542,20.173 67.565,20.173 C67.565,20.220 67.565,20.266 67.565,20.312 C67.588,20.312 67.612,20.312 67.635,20.312 C67.658,20.404 67.681,20.497 67.704,20.589 C67.727,20.589 67.750,20.589 67.773,20.589 C67.773,20.635 67.773,20.682 67.773,20.728 C67.796,20.728 67.819,20.728 67.842,20.728 C67.842,20.797 67.842,20.866 67.842,20.936 C67.865,20.936 67.889,20.936 67.912,20.936 C67.912,20.982 67.912,21.028 67.912,21.074 C67.935,21.074 67.958,21.074 67.981,21.074 C68.004,21.167 68.027,21.259 68.050,21.351 C68.073,21.351 68.096,21.351 68.119,21.351 C68.119,21.421 68.119,21.490 68.119,21.559 C68.143,21.559 68.166,21.559 68.189,21.559 C68.212,21.652 68.235,21.744 68.258,21.836 C68.281,21.836 68.304,21.836 68.327,21.836 C68.327,21.906 68.327,21.975 68.327,22.044 C68.350,22.044 68.373,22.044 68.396,22.044 C68.396,22.090 68.396,22.137 68.396,22.183 C68.420,22.183 68.443,22.183 68.466,22.183 C68.489,22.298 68.512,22.414 68.535,22.529 C68.558,22.529 68.581,22.529 68.604,22.529 C68.627,22.668 68.650,22.806 68.673,22.945 C68.697,22.945 68.720,22.945 68.743,22.945 C68.743,22.991 68.743,23.037 68.743,23.083 C68.766,23.083 68.789,23.083 68.812,23.083 C68.858,23.291 68.904,23.499 68.951,23.707 C68.974,23.707 68.997,23.707 69.020,23.707 C69.020,23.753 69.020,23.799 69.020,23.846 C69.043,23.846 69.066,23.846 69.089,23.846 C69.089,23.915 69.089,23.984 69.089,24.053 C69.112,24.053 69.135,24.053 69.158,24.053 C69.158,24.123 69.158,24.192 69.158,24.261 C69.181,24.261 69.204,24.261 69.227,24.261 C69.227,24.331 69.227,24.400 69.227,24.469 C69.251,24.469 69.274,24.469 69.297,24.469 C69.297,24.539 69.297,24.608 69.297,24.677 C69.320,24.677 69.343,24.677 69.366,24.677 C69.366,24.769 69.366,24.862 69.366,24.954 C69.389,24.954 69.412,24.954 69.435,24.954 C69.435,25.024 69.435,25.093 69.435,25.162 C69.458,25.162 69.481,25.162 69.505,25.162 C69.505,25.231 69.505,25.301 69.505,25.370 C69.528,25.370 69.551,25.370 69.574,25.370 C69.597,25.532 69.620,25.693 69.643,25.855 C69.666,25.855 69.689,25.855 69.712,25.855 C69.735,26.017 69.758,26.178 69.781,26.340 C69.805,26.340 69.828,26.340 69.851,26.340 C69.874,26.525 69.897,26.709 69.920,26.894 C69.943,26.894 69.966,26.894 69.989,26.894 C70.035,27.194 70.082,27.495 70.128,27.795 C70.151,27.795 70.174,27.795 70.197,27.795 C70.405,29.065 70.613,30.336 70.820,31.606 C70.843,32.160 70.866,32.714 70.890,33.269 C71.091,33.996 70.959,35.309 70.959,36.179 C70.959,36.673 70.998,37.321 70.890,37.703 C70.890,38.003 70.890,38.304 70.890,38.604 C70.866,38.604 70.843,38.604 70.820,38.604 C70.820,38.858 70.820,39.112 70.820,39.366 C70.646,39.969 70.650,40.789 70.474,41.375 C70.474,41.514 70.474,41.652 70.474,41.791 C70.451,41.791 70.428,41.791 70.405,41.791 C70.382,42.022 70.359,42.253 70.336,42.484 C70.312,42.484 70.289,42.484 70.266,42.484 C70.266,42.599 70.266,42.715 70.266,42.830 C70.243,42.830 70.220,42.830 70.197,42.830 C70.197,42.946 70.197,43.061 70.197,43.177 C70.174,43.177 70.151,43.177 70.128,43.177 C70.128,43.269 70.128,43.362 70.128,43.454 C70.105,43.454 70.082,43.454 70.059,43.454 C70.059,43.546 70.059,43.639 70.059,43.731 C70.035,43.731 70.012,43.731 69.989,43.731 C69.966,43.939 69.943,44.147 69.920,44.355 C69.897,44.355 69.874,44.355 69.851,44.355 C69.805,44.609 69.758,44.863 69.712,45.117 C69.689,45.117 69.666,45.117 69.643,45.117 C69.620,45.278 69.597,45.440 69.574,45.602 C69.551,45.602 69.528,45.602 69.505,45.602 C69.505,45.671 69.505,45.740 69.505,45.810 C69.481,45.810 69.458,45.810 69.435,45.810 C69.435,45.879 69.435,45.948 69.435,46.018 C69.412,46.018 69.389,46.018 69.366,46.018 C69.366,46.110 69.366,46.202 69.366,46.295 C69.343,46.295 69.320,46.295 69.297,46.295 C69.297,46.364 69.297,46.433 69.297,46.503 C69.274,46.503 69.251,46.503 69.227,46.503 C69.227,46.572 69.227,46.641 69.227,46.710 C69.204,46.710 69.181,46.710 69.158,46.710 C69.158,46.780 69.158,46.849 69.158,46.918 C69.135,46.918 69.112,46.918 69.089,46.918 C69.089,46.988 69.089,47.057 69.089,47.126 C69.066,47.126 69.043,47.126 69.020,47.126 C69.020,47.172 69.020,47.219 69.020,47.265 C68.997,47.265 68.974,47.265 68.951,47.265 C68.904,47.473 68.858,47.680 68.812,47.888 C68.789,47.888 68.766,47.888 68.743,47.888 C68.743,47.935 68.743,47.981 68.743,48.027 C68.720,48.027 68.697,48.027 68.673,48.027 C68.650,48.165 68.627,48.304 68.604,48.443 C68.581,48.443 68.558,48.443 68.535,48.443 C68.535,48.489 68.535,48.535 68.535,48.581 C68.512,48.581 68.489,48.581 68.466,48.581 C68.466,48.650 68.466,48.720 68.466,48.789 C68.443,48.789 68.420,48.789 68.396,48.789 C68.373,48.881 68.350,48.974 68.327,49.066 C68.304,49.066 68.281,49.066 68.258,49.066 C68.258,49.136 68.258,49.205 68.258,49.274 C68.235,49.274 68.212,49.274 68.189,49.274 C68.189,49.320 68.189,49.366 68.189,49.413 C68.166,49.413 68.143,49.413 68.119,49.413 C68.119,49.482 68.119,49.551 68.119,49.620 C68.096,49.620 68.073,49.620 68.050,49.620 C68.027,49.713 68.004,49.805 67.981,49.898 C67.958,49.898 67.935,49.898 67.912,49.898 C67.912,49.944 67.912,49.990 67.912,50.036 C67.889,50.036 67.865,50.036 67.842,50.036 C67.842,50.105 67.842,50.175 67.842,50.244 C67.819,50.244 67.796,50.244 67.773,50.244 C67.773,50.290 67.773,50.336 67.773,50.383 C67.750,50.383 67.727,50.383 67.704,50.383 C67.681,50.475 67.658,50.567 67.635,50.660 C67.612,50.660 67.588,50.660 67.565,50.660 C67.542,50.752 67.519,50.845 67.496,50.937 C67.473,50.937 67.450,50.937 67.427,50.937 C67.427,50.983 67.427,51.029 67.427,51.076 C67.404,51.076 67.381,51.076 67.358,51.076 C67.358,51.122 67.358,51.168 67.358,51.214 C67.335,51.214 67.311,51.214 67.288,51.214 C67.288,51.260 67.288,51.306 67.288,51.353 C67.265,51.353 67.242,51.353 67.219,51.353 C67.219,51.399 67.219,51.445 67.219,51.491 C67.196,51.491 67.173,51.491 67.150,51.491 C67.150,51.537 67.150,51.584 67.150,51.630 C67.127,51.630 67.104,51.630 67.081,51.630 C67.081,51.676 67.081,51.722 67.081,51.768 C67.058,51.768 67.034,51.768 67.011,51.768 C67.011,51.815 67.011,51.861 67.011,51.907 C66.988,51.907 66.965,51.907 66.942,51.907 C66.942,51.953 66.942,51.999 66.942,52.046 C66.919,52.046 66.896,52.046 66.873,52.046 C66.873,52.092 66.873,52.138 66.873,52.184 C66.850,52.184 66.827,52.184 66.804,52.184 C66.804,52.230 66.804,52.277 66.804,52.323 C66.780,52.323 66.757,52.323 66.734,52.323 C66.734,52.369 66.734,52.415 66.734,52.461 C66.688,52.484 66.642,52.507 66.596,52.531 C66.596,52.577 66.596,52.623 66.596,52.669 C66.573,52.669 66.550,52.669 66.527,52.669 C66.527,52.715 66.527,52.762 66.527,52.808 C66.504,52.808 66.480,52.808 66.457,52.808 C66.457,52.854 66.457,52.900 66.457,52.946 C66.434,52.946 66.411,52.946 66.388,52.946 C66.388,52.992 66.388,53.039 66.388,53.085 C66.342,53.108 66.296,53.131 66.250,53.154 C66.250,53.200 66.250,53.247 66.250,53.293 C66.226,53.293 66.203,53.293 66.180,53.293 C66.180,53.339 66.180,53.385 66.180,53.431 C66.134,53.454 66.088,53.477 66.042,53.501 C65.996,53.639 65.950,53.778 65.903,53.916 C65.880,53.916 65.857,53.916 65.834,53.916 C65.811,53.986 65.788,54.055 65.765,54.124 C65.719,54.147 65.672,54.170 65.626,54.193 C65.603,54.286 65.580,54.378 65.557,54.471 C65.511,54.494 65.465,54.517 65.419,54.540 C65.419,54.586 65.419,54.632 65.419,54.678 C65.372,54.702 65.326,54.725 65.280,54.748 C65.280,54.794 65.280,54.840 65.280,54.886 C65.257,54.886 65.234,54.886 65.211,54.886 C65.188,54.956 65.165,55.025 65.142,55.094 C65.095,55.117 65.049,55.140 65.003,55.163 C65.003,55.210 65.003,55.256 65.003,55.302 C64.980,55.302 64.957,55.302 64.934,55.302 C64.911,55.371 64.888,55.441 64.865,55.510 C64.818,55.533 64.772,55.556 64.726,55.579 C64.726,55.625 64.726,55.672 64.726,55.718 C64.657,55.764 64.587,55.810 64.518,55.856 C64.518,55.903 64.518,55.949 64.518,55.995 C64.472,56.018 64.426,56.041 64.380,56.064 C64.380,56.110 64.380,56.157 64.380,56.203 C64.311,56.249 64.241,56.295 64.172,56.341 C64.172,56.388 64.172,56.434 64.172,56.480 C64.126,56.503 64.080,56.526 64.033,56.549 C64.033,56.595 64.033,56.642 64.033,56.688 C63.964,56.734 63.895,56.780 63.826,56.826 C63.826,56.873 63.826,56.919 63.826,56.965 C63.756,57.011 63.687,57.057 63.618,57.104 C63.618,57.150 63.618,57.196 63.618,57.242 C63.526,57.311 63.433,57.381 63.341,57.450 C63.341,57.496 63.341,57.542 63.341,57.589 C63.249,57.658 63.156,57.727 63.064,57.796 C63.064,57.843 63.064,57.889 63.064,57.935 C62.949,58.027 62.833,58.120 62.718,58.212 C62.718,58.258 62.718,58.305 62.718,58.351 C62.602,58.443 62.487,58.535 62.371,58.628 C62.371,58.674 62.371,58.720 62.371,58.766 C62.187,58.928 62.002,59.090 61.817,59.251 C61.817,59.298 61.817,59.344 61.817,59.390 C61.517,59.667 61.217,59.944 60.917,60.221 C60.368,60.771 59.895,61.352 59.255,61.815 C59.093,62.000 58.932,62.185 58.770,62.369 C58.724,62.369 58.678,62.369 58.632,62.369 C58.539,62.485 58.447,62.600 58.355,62.716 C58.309,62.716 58.262,62.716 58.216,62.716 C58.124,62.831 58.031,62.947 57.939,63.062 C57.893,63.062 57.847,63.062 57.801,63.062 C57.731,63.155 57.662,63.247 57.593,63.339 C57.547,63.339 57.501,63.339 57.454,63.339 C57.408,63.409 57.362,63.478 57.316,63.547 C57.270,63.547 57.224,63.547 57.177,63.547 C57.108,63.640 57.039,63.732 56.970,63.824 C56.900,63.848 56.831,63.871 56.762,63.894 C56.739,63.940 56.716,63.986 56.693,64.032 C56.646,64.032 56.600,64.032 56.554,64.032 C56.531,64.078 56.508,64.125 56.485,64.171 C56.439,64.171 56.392,64.171 56.346,64.171 C56.323,64.217 56.300,64.263 56.277,64.309 C56.208,64.332 56.139,64.356 56.069,64.379 C56.023,64.448 55.977,64.517 55.931,64.587 C55.885,64.587 55.838,64.587 55.792,64.587 C55.769,64.633 55.746,64.679 55.723,64.725 C55.677,64.725 55.631,64.725 55.584,64.725 C55.561,64.771 55.538,64.818 55.515,64.864 C55.469,64.864 55.423,64.864 55.377,64.864 C55.354,64.910 55.331,64.956 55.308,65.002 C55.261,65.002 55.215,65.002 55.169,65.002 C55.146,65.048 55.123,65.095 55.100,65.141 C55.054,65.141 55.007,65.141 54.961,65.141 C54.938,65.187 54.915,65.233 54.892,65.279 C54.846,65.279 54.800,65.279 54.754,65.279 C54.730,65.326 54.707,65.372 54.684,65.418 C54.592,65.441 54.500,65.464 54.407,65.487 C54.384,65.534 54.361,65.580 54.338,65.626 C54.292,65.626 54.246,65.626 54.199,65.626 C54.176,65.672 54.153,65.718 54.130,65.764 C54.084,65.764 54.038,65.764 53.992,65.764 C53.992,65.788 53.992,65.811 53.992,65.834 C53.946,65.834 53.899,65.834 53.853,65.834 C53.830,65.880 53.807,65.926 53.784,65.972 C53.692,65.995 53.599,66.018 53.507,66.042 C53.484,66.088 53.461,66.134 53.438,66.180 C53.299,66.226 53.161,66.273 53.022,66.319 C52.999,66.365 52.976,66.411 52.953,66.457 C51.845,67.012 50.737,67.566 49.629,68.120 C49.560,68.120 49.490,68.120 49.421,68.120 C49.421,68.143 49.421,68.166 49.421,68.189 C49.375,68.189 49.329,68.189 49.282,68.189 C49.282,68.213 49.282,68.236 49.282,68.259 C49.213,68.259 49.144,68.259 49.075,68.259 C49.075,68.282 49.075,68.305 49.075,68.328 C49.029,68.328 48.982,68.328 48.936,68.328 C48.936,68.351 48.936,68.374 48.936,68.397 C48.821,68.420 48.705,68.444 48.590,68.467 C48.590,68.490 48.590,68.513 48.590,68.536 C48.521,68.536 48.451,68.536 48.382,68.536 C48.382,68.559 48.382,68.582 48.382,68.605 C48.336,68.605 48.290,68.605 48.244,68.605 C48.244,68.628 48.244,68.651 48.244,68.675 C48.174,68.675 48.105,68.675 48.036,68.675 C48.036,68.698 48.036,68.721 48.036,68.744 C47.990,68.744 47.944,68.744 47.897,68.744 C47.897,68.767 47.897,68.790 47.897,68.813 C47.828,68.813 47.759,68.813 47.690,68.813 C47.690,68.836 47.690,68.859 47.690,68.882 C47.620,68.882 47.551,68.882 47.482,68.882 C47.482,68.905 47.482,68.929 47.482,68.952 C47.413,68.952 47.343,68.952 47.274,68.952 C47.274,68.975 47.274,68.998 47.274,69.021 C47.205,69.021 47.136,69.021 47.066,69.021 C47.066,69.044 47.066,69.067 47.066,69.090 C47.020,69.090 46.974,69.090 46.928,69.090 C46.928,69.113 46.928,69.136 46.928,69.160 C46.628,69.229 46.328,69.298 46.028,69.367 C46.028,69.390 46.028,69.414 46.028,69.437 C45.958,69.437 45.889,69.437 45.820,69.437 C45.820,69.460 45.820,69.483 45.820,69.506 C45.751,69.506 45.681,69.506 45.612,69.506 C45.612,69.529 45.612,69.552 45.612,69.575 C45.450,69.598 45.289,69.621 45.127,69.645 C45.127,69.668 45.127,69.691 45.127,69.714 C45.035,69.714 44.943,69.714 44.850,69.714 C44.850,69.737 44.850,69.760 44.850,69.783 C44.573,69.829 44.296,69.876 44.019,69.922 C44.019,69.945 44.019,69.968 44.019,69.991 C43.950,69.991 43.881,69.991 43.812,69.991 C43.812,70.014 43.812,70.037 43.812,70.060 C43.696,70.060 43.581,70.060 43.465,70.060 C43.465,70.083 43.465,70.106 43.465,70.130 C43.350,70.130 43.234,70.130 43.119,70.130 C43.119,70.153 43.119,70.176 43.119,70.199 C43.027,70.199 42.934,70.199 42.842,70.199 C42.842,70.222 42.842,70.245 42.842,70.268 C42.726,70.268 42.611,70.268 42.496,70.268 C42.496,70.291 42.496,70.314 42.496,70.337 C42.380,70.337 42.265,70.337 42.149,70.337 C41.650,70.490 40.994,70.537 40.487,70.684 C40.303,70.684 40.118,70.684 39.933,70.684 C39.933,70.707 39.933,70.730 39.933,70.753 C39.749,70.753 39.564,70.753 39.379,70.753 C39.379,70.776 39.379,70.799 39.379,70.822 C39.125,70.822 38.871,70.822 38.617,70.822 C38.617,70.846 38.617,70.869 38.617,70.892 C38.294,70.892 37.971,70.892 37.648,70.892 C37.648,70.915 37.648,70.938 37.648,70.961 C37.140,70.961 36.632,70.961 36.124,70.961 C35.297,70.961 34.040,71.087 33.354,70.892 C33.031,70.892 32.708,70.892 32.385,70.892 C32.385,70.869 32.385,70.846 32.385,70.822 C32.131,70.822 31.877,70.822 31.623,70.822 C30.469,70.638 29.314,70.453 28.160,70.268 C28.160,70.245 28.160,70.222 28.160,70.199 C28.068,70.199 27.976,70.199 27.883,70.199 C27.883,70.176 27.883,70.153 27.883,70.130 C27.768,70.130 27.652,70.130 27.537,70.130 C27.537,70.106 27.537,70.083 27.537,70.060 C27.422,70.060 27.306,70.060 27.191,70.060 C27.191,70.037 27.191,70.014 27.191,69.991 C27.121,69.991 27.052,69.991 26.983,69.991 C26.983,69.968 26.983,69.945 26.983,69.922 C26.706,69.876 26.429,69.829 26.152,69.783 C26.152,69.760 26.152,69.737 26.152,69.714 C26.059,69.714 25.967,69.714 25.875,69.714 C25.875,69.691 25.875,69.668 25.875,69.645 C25.713,69.621 25.552,69.598 25.390,69.575 C25.390,69.552 25.390,69.529 25.390,69.506 C25.321,69.506 25.251,69.506 25.182,69.506 C25.182,69.483 25.182,69.460 25.182,69.437 C25.113,69.437 25.044,69.437 24.975,69.437 C24.975,69.414 24.975,69.390 24.975,69.367 C24.882,69.367 24.790,69.367 24.697,69.367 C24.697,69.344 24.697,69.321 24.697,69.298 C24.651,69.298 24.605,69.298 24.559,69.298 C24.559,69.275 24.559,69.252 24.559,69.229 C24.397,69.206 24.236,69.183 24.074,69.160 C24.074,69.136 24.074,69.113 24.074,69.090 C24.028,69.090 23.982,69.090 23.936,69.090 C23.936,69.067 23.936,69.044 23.936,69.021 C23.866,69.021 23.797,69.021 23.728,69.021 C23.728,68.998 23.728,68.975 23.728,68.952 C23.659,68.952 23.589,68.952 23.520,68.952 C23.520,68.929 23.520,68.905 23.520,68.882 C23.451,68.882 23.382,68.882 23.312,68.882 C23.312,68.859 23.312,68.836 23.312,68.813 C23.243,68.813 23.174,68.813 23.105,68.813 C23.105,68.790 23.105,68.767 23.105,68.744 C23.058,68.744 23.012,68.744 22.966,68.744 C22.966,68.721 22.966,68.698 22.966,68.675 C22.897,68.675 22.828,68.675 22.758,68.675 C22.758,68.651 22.758,68.628 22.758,68.605 C22.712,68.605 22.666,68.605 22.620,68.605 C22.620,68.582 22.620,68.559 22.620,68.536 C22.504,68.513 22.389,68.490 22.274,68.467 C22.274,68.444 22.274,68.420 22.274,68.397 C22.204,68.397 22.135,68.397 22.066,68.397 C22.066,68.374 22.066,68.351 22.066,68.328 C22.020,68.328 21.974,68.328 21.927,68.328 C21.927,68.305 21.927,68.282 21.927,68.259 C21.858,68.259 21.789,68.259 21.720,68.259 C21.720,68.236 21.720,68.213 21.720,68.189 C21.673,68.189 21.627,68.189 21.581,68.189 C21.581,68.166 21.581,68.143 21.581,68.120 C21.512,68.120 21.443,68.120 21.373,68.120 C21.373,68.097 21.373,68.074 21.373,68.051 C21.281,68.028 21.189,68.005 21.096,67.982 C21.096,67.959 21.096,67.935 21.096,67.912 C21.050,67.912 21.004,67.912 20.958,67.912 C20.958,67.889 20.958,67.866 20.958,67.843 C20.889,67.843 20.819,67.843 20.750,67.843 C20.750,67.820 20.750,67.797 20.750,67.774 C20.704,67.774 20.658,67.774 20.611,67.774 C20.611,67.751 20.611,67.728 20.611,67.704 C20.519,67.681 20.427,67.658 20.335,67.635 C20.335,67.612 20.335,67.589 20.335,67.566 C20.242,67.543 20.150,67.520 20.057,67.497 C20.057,67.474 20.057,67.450 20.057,67.427 C20.011,67.427 19.965,67.427 19.919,67.427 C19.919,67.404 19.919,67.381 19.919,67.358 C19.873,67.358 19.827,67.358 19.781,67.358 C19.781,67.335 19.781,67.312 19.781,67.289 C19.734,67.289 19.688,67.289 19.642,67.289 C19.642,67.266 19.642,67.243 19.642,67.219 C19.596,67.219 19.550,67.219 19.503,67.219 C19.503,67.196 19.503,67.173 19.503,67.150 C19.457,67.150 19.411,67.150 19.365,67.150 C19.365,67.127 19.365,67.104 19.365,67.081 C19.319,67.081 19.273,67.081 19.227,67.081 C19.227,67.058 19.227,67.035 19.227,67.012 C19.180,67.012 19.134,67.012 19.088,67.012 C19.088,66.989 19.088,66.965 19.088,66.942 C19.042,66.942 18.996,66.942 18.949,66.942 C18.949,66.919 18.949,66.896 18.949,66.873 C18.903,66.873 18.857,66.873 18.811,66.873 C18.811,66.850 18.811,66.827 18.811,66.804 C18.765,66.804 18.719,66.804 18.672,66.804 C18.672,66.781 18.672,66.758 18.672,66.734 C18.626,66.734 18.580,66.734 18.534,66.734 C18.511,66.688 18.488,66.642 18.465,66.596 C18.419,66.596 18.372,66.596 18.326,66.596 C18.326,66.573 18.326,66.550 18.326,66.527 C18.280,66.527 18.234,66.527 18.188,66.527 C18.188,66.504 18.188,66.480 18.188,66.457 C18.141,66.457 18.095,66.457 18.049,66.457 C18.049,66.434 18.049,66.411 18.049,66.388 C18.003,66.388 17.957,66.388 17.911,66.388 C17.888,66.342 17.864,66.296 17.841,66.249 C17.749,66.226 17.657,66.203 17.564,66.180 C17.541,66.134 17.518,66.088 17.495,66.042 C17.403,66.018 17.310,65.995 17.218,65.972 C17.195,65.926 17.172,65.880 17.149,65.834 C17.056,65.811 16.964,65.788 16.872,65.764 C16.849,65.718 16.826,65.672 16.803,65.626 C16.756,65.626 16.710,65.626 16.664,65.626 C16.664,65.603 16.664,65.580 16.664,65.557 C16.618,65.557 16.572,65.557 16.526,65.557 C16.502,65.510 16.479,65.464 16.456,65.418 C16.410,65.418 16.364,65.418 16.318,65.418 C16.295,65.372 16.272,65.326 16.249,65.279 C16.202,65.279 16.156,65.279 16.110,65.279 C16.087,65.233 16.064,65.187 16.041,65.141 C15.995,65.141 15.948,65.141 15.902,65.141 C15.902,65.118 15.902,65.095 15.902,65.072 C15.833,65.048 15.764,65.025 15.695,65.002 C15.671,64.956 15.648,64.910 15.625,64.864 C15.579,64.864 15.533,64.864 15.487,64.864 C15.487,64.841 15.487,64.818 15.487,64.794 C15.418,64.771 15.348,64.748 15.279,64.725 C15.256,64.679 15.233,64.633 15.210,64.587 C15.164,64.587 15.117,64.587 15.071,64.587 C15.048,64.540 15.025,64.494 15.002,64.448 C14.933,64.425 14.863,64.402 14.794,64.379 C14.748,64.309 14.702,64.240 14.656,64.171 C14.609,64.171 14.563,64.171 14.517,64.171 C14.494,64.125 14.471,64.078 14.448,64.032 C14.402,64.032 14.356,64.032 14.309,64.032 C14.286,63.986 14.263,63.940 14.240,63.894 C14.171,63.871 14.102,63.848 14.032,63.824 C13.963,63.732 13.894,63.640 13.825,63.547 C13.779,63.547 13.732,63.547 13.686,63.547 C13.640,63.478 13.594,63.409 13.548,63.339 C13.501,63.339 13.455,63.339 13.409,63.339 C13.340,63.247 13.271,63.155 13.201,63.062 C13.155,63.062 13.109,63.062 13.063,63.062 C12.971,62.947 12.878,62.831 12.786,62.716 C12.740,62.716 12.694,62.716 12.647,62.716 C12.555,62.600 12.463,62.485 12.370,62.369 C12.324,62.369 12.278,62.369 12.232,62.369 C12.070,62.185 11.909,62.000 11.747,61.815 C11.701,61.815 11.655,61.815 11.609,61.815 C11.193,61.376 10.777,60.937 10.362,60.499 C9.752,59.888 9.145,59.340 8.631,58.628 C8.515,58.535 8.400,58.443 8.284,58.351 C8.284,58.305 8.284,58.258 8.284,58.212 C8.169,58.120 8.054,58.027 7.938,57.935 C7.938,57.889 7.938,57.843 7.938,57.796 C7.846,57.727 7.753,57.658 7.661,57.589 C7.661,57.542 7.661,57.496 7.661,57.450 C7.615,57.427 7.569,57.404 7.523,57.381 C7.523,57.358 7.523,57.335 7.523,57.311 C7.476,57.288 7.430,57.265 7.384,57.242 C7.384,57.196 7.384,57.150 7.384,57.104 C7.315,57.057 7.246,57.011 7.176,56.965 C7.153,56.896 7.130,56.826 7.107,56.757 C7.061,56.734 7.015,56.711 6.969,56.688 C6.969,56.642 6.969,56.595 6.969,56.549 C6.922,56.526 6.876,56.503 6.830,56.480 C6.830,56.434 6.830,56.388 6.830,56.341 C6.761,56.295 6.692,56.249 6.622,56.203 C6.622,56.157 6.622,56.110 6.622,56.064 C6.553,56.018 6.484,55.972 6.414,55.926 C6.414,55.879 6.414,55.833 6.414,55.787 C6.368,55.764 6.322,55.741 6.276,55.718 C6.253,55.649 6.230,55.579 6.207,55.510 C6.184,55.510 6.161,55.510 6.138,55.510 C6.138,55.464 6.138,55.418 6.138,55.371 C6.091,55.348 6.045,55.325 5.999,55.302 C5.999,55.256 5.999,55.210 5.999,55.163 C5.953,55.140 5.907,55.117 5.860,55.094 C5.860,55.048 5.860,55.002 5.860,54.956 C5.814,54.933 5.768,54.909 5.722,54.886 C5.722,54.840 5.722,54.794 5.722,54.748 C5.676,54.725 5.630,54.702 5.584,54.678 C5.584,54.632 5.584,54.586 5.584,54.540 C5.537,54.517 5.491,54.494 5.445,54.471 C5.422,54.378 5.399,54.286 5.376,54.193 C5.330,54.170 5.283,54.147 5.237,54.124 C5.214,54.055 5.191,53.986 5.168,53.916 C5.145,53.916 5.122,53.916 5.099,53.916 C5.053,53.778 5.006,53.639 4.960,53.501 C4.914,53.477 4.868,53.454 4.822,53.431 C4.822,53.385 4.822,53.339 4.822,53.293 C4.799,53.293 4.776,53.293 4.752,53.293 C4.752,53.247 4.752,53.200 4.752,53.154 C4.706,53.131 4.660,53.108 4.614,53.085 C4.614,53.039 4.614,52.992 4.614,52.946 C4.591,52.946 4.568,52.946 4.545,52.946 C4.545,52.900 4.545,52.854 4.545,52.808 C4.522,52.808 4.499,52.808 4.475,52.808 C4.475,52.762 4.475,52.715 4.475,52.669 C4.452,52.669 4.429,52.669 4.406,52.669 C4.406,52.623 4.406,52.577 4.406,52.531 C4.360,52.507 4.314,52.484 4.268,52.461 C4.268,52.415 4.268,52.369 4.268,52.323 C4.245,52.323 4.221,52.323 4.198,52.323 C4.198,52.277 4.198,52.230 4.198,52.184 C4.175,52.184 4.152,52.184 4.129,52.184 C4.129,52.138 4.129,52.092 4.129,52.046 C4.106,52.046 4.083,52.046 4.060,52.046 C4.060,51.999 4.060,51.953 4.060,51.907 C4.037,51.907 4.014,51.907 3.991,51.907 C3.991,51.861 3.991,51.815 3.991,51.768 C3.968,51.768 3.945,51.768 3.921,51.768 C3.921,51.722 3.921,51.676 3.921,51.630 C3.898,51.630 3.875,51.630 3.852,51.630 C3.829,51.537 3.806,51.445 3.783,51.353 C3.760,51.353 3.737,51.353 3.714,51.353 C3.714,51.306 3.714,51.260 3.714,51.214 C3.691,51.214 3.667,51.214 3.644,51.214 C3.644,51.168 3.644,51.122 3.644,51.076 C3.621,51.076 3.598,51.076 3.575,51.076 C3.575,51.029 3.575,50.983 3.575,50.937 C3.552,50.937 3.529,50.937 3.506,50.937 C3.506,50.891 3.506,50.845 3.506,50.798 C3.483,50.798 3.460,50.798 3.437,50.798 C3.437,50.752 3.437,50.706 3.437,50.660 C3.414,50.660 3.391,50.660 3.367,50.660 C3.344,50.567 3.321,50.475 3.298,50.383 C3.275,50.383 3.252,50.383 3.229,50.383 C3.229,50.336 3.229,50.290 3.229,50.244 C3.206,50.244 3.183,50.244 3.160,50.244 C3.160,50.175 3.160,50.105 3.160,50.036 C3.137,50.036 3.113,50.036 3.090,50.036 C3.090,49.990 3.090,49.944 3.090,49.898 C3.067,49.898 3.044,49.898 3.021,49.898 C2.998,49.805 2.975,49.713 2.952,49.620 C2.929,49.620 2.906,49.620 2.883,49.620 C2.883,49.551 2.883,49.482 2.883,49.413 C2.860,49.413 2.837,49.413 2.813,49.413 C2.790,49.320 2.767,49.228 2.744,49.136 C2.721,49.136 2.698,49.136 2.675,49.136 C2.675,49.066 2.675,48.997 2.675,48.928 C2.652,48.928 2.629,48.928 2.606,48.928 C2.606,48.881 2.606,48.835 2.606,48.789 C2.583,48.789 2.559,48.789 2.536,48.789 C2.513,48.674 2.490,48.558 2.467,48.443 C2.444,48.443 2.421,48.443 2.398,48.443 C2.375,48.304 2.352,48.165 2.329,48.027 C2.305,48.027 2.282,48.027 2.259,48.027 C2.259,47.981 2.259,47.935 2.259,47.888 C2.236,47.888 2.213,47.888 2.190,47.888 C2.144,47.680 2.098,47.473 2.052,47.265 C2.029,47.265 2.005,47.265 1.982,47.265 C1.982,47.219 1.982,47.172 1.982,47.126 C1.959,47.126 1.936,47.126 1.913,47.126 C1.913,47.057 1.913,46.988 1.913,46.918 C1.890,46.918 1.867,46.918 1.844,46.918 C1.844,46.849 1.844,46.780 1.844,46.710 C1.821,46.710 1.798,46.710 1.775,46.710 C1.775,46.641 1.775,46.572 1.775,46.503 C1.751,46.503 1.728,46.503 1.705,46.503 C1.705,46.433 1.705,46.364 1.705,46.295 C1.682,46.295 1.659,46.295 1.636,46.295 C1.636,46.202 1.636,46.110 1.636,46.018 C1.613,46.018 1.590,46.018 1.567,46.018 C1.567,45.948 1.567,45.879 1.567,45.810 C1.544,45.810 1.521,45.810 1.498,45.810 C1.498,45.740 1.498,45.671 1.498,45.602 C1.474,45.602 1.451,45.602 1.428,45.602 C1.405,45.440 1.382,45.278 1.359,45.117 C1.336,45.117 1.313,45.117 1.290,45.117 C1.267,44.932 1.244,44.747 1.220,44.563 C1.197,44.563 1.174,44.563 1.151,44.563 C1.151,44.493 1.151,44.424 1.151,44.355 C1.128,44.355 1.105,44.355 1.082,44.355 C1.082,44.262 1.082,44.170 1.082,44.078 C1.059,44.078 1.036,44.078 1.013,44.078 C1.013,43.985 1.013,43.893 1.013,43.800 C0.990,43.800 0.967,43.800 0.944,43.800 C0.944,43.685 0.944,43.569 0.944,43.454 C0.920,43.454 0.897,43.454 0.874,43.454 C0.874,43.362 0.874,43.269 0.874,43.177 C0.851,43.177 0.828,43.177 0.805,43.177 C0.805,43.061 0.805,42.946 0.805,42.830 C0.782,42.830 0.759,42.830 0.736,42.830 C0.713,42.599 0.690,42.368 0.666,42.137 C0.564,41.806 0.490,41.300 0.390,40.960 C0.390,40.798 0.390,40.636 0.390,40.475 C0.366,40.475 0.343,40.475 0.320,40.475 C0.320,40.313 0.320,40.151 0.320,39.990 C0.297,39.990 0.274,39.990 0.251,39.990 C0.251,39.782 0.251,39.574 0.251,39.366 C0.228,39.366 0.205,39.366 0.182,39.366 C0.182,39.112 0.182,38.858 0.182,38.604 C0.159,38.604 0.136,38.604 0.112,38.604 C0.089,37.796 0.066,36.987 0.043,36.179 C0.043,35.314 -0.092,33.989 0.112,33.269 C0.112,32.968 0.112,32.668 0.112,32.368 C0.136,32.368 0.159,32.368 0.182,32.368 C0.182,32.114 0.182,31.860 0.182,31.606 C0.359,30.994 0.351,30.187 0.528,29.596 C0.528,29.458 0.528,29.319 0.528,29.181 C0.682,28.678 0.785,28.009 0.944,27.518 C0.944,27.402 0.944,27.287 0.944,27.171 C1.341,25.952 1.634,24.614 2.121,23.499 C2.144,23.361 2.167,23.222 2.190,23.083 C2.213,23.083 2.236,23.083 2.259,23.083 C2.259,23.037 2.259,22.991 2.259,22.945 C2.282,22.945 2.305,22.945 2.329,22.945 C2.352,22.806 2.375,22.668 2.398,22.529 C2.421,22.529 2.444,22.529 2.467,22.529 C2.490,22.414 2.513,22.298 2.536,22.183 C2.559,22.183 2.583,22.183 2.606,22.183 C2.606,22.137 2.606,22.090 2.606,22.044 C2.629,22.044 2.652,22.044 2.675,22.044 C2.675,21.975 2.675,21.906 2.675,21.836 C2.698,21.836 2.721,21.836 2.744,21.836 C2.767,21.744 2.790,21.652 2.813,21.559 C2.837,21.559 2.860,21.559 2.883,21.559 C2.883,21.490 2.883,21.421 2.883,21.351 C2.906,21.351 2.929,21.351 2.952,21.351 C2.952,21.305 2.952,21.259 2.952,21.213 C2.975,21.213 2.998,21.213 3.021,21.213 C3.044,21.120 3.067,21.028 3.090,20.936 C3.113,20.936 3.137,20.936 3.160,20.936 C3.160,20.866 3.160,20.797 3.160,20.728 C3.183,20.728 3.206,20.728 3.229,20.728 C3.229,20.682 3.229,20.635 3.229,20.589 C3.252,20.589 3.275,20.589 3.298,20.589 C3.321,20.497 3.344,20.404 3.367,20.312 C3.391,20.312 3.414,20.312 3.437,20.312 C3.460,20.220 3.483,20.127 3.506,20.035 C3.529,20.035 3.552,20.035 3.575,20.035 C3.575,19.989 3.575,19.942 3.575,19.896 C3.598,19.896 3.621,19.896 3.644,19.896 C3.644,19.850 3.644,19.804 3.644,19.758 C3.667,19.758 3.691,19.758 3.714,19.758 C3.714,19.712 3.714,19.665 3.714,19.619 C3.737,19.619 3.760,19.619 3.783,19.619 C3.783,19.573 3.783,19.527 3.783,19.481 C3.806,19.481 3.829,19.481 3.852,19.481 C3.852,19.434 3.852,19.388 3.852,19.342 C3.875,19.342 3.898,19.342 3.921,19.342 C3.921,19.296 3.921,19.250 3.921,19.203 C3.945,19.203 3.968,19.203 3.991,19.203 C3.991,19.157 3.991,19.111 3.991,19.065 C4.014,19.065 4.037,19.065 4.060,19.065 C4.060,19.019 4.060,18.972 4.060,18.926 C4.083,18.926 4.106,18.926 4.129,18.926 C4.129,18.880 4.129,18.834 4.129,18.788 C4.152,18.788 4.175,18.788 4.198,18.788 C4.198,18.741 4.198,18.695 4.198,18.649 C4.221,18.649 4.245,18.649 4.268,18.649 C4.268,18.603 4.268,18.557 4.268,18.510 C4.314,18.487 4.360,18.464 4.406,18.441 C4.406,18.395 4.406,18.349 4.406,18.303 C4.429,18.303 4.452,18.303 4.475,18.303 C4.475,18.256 4.475,18.210 4.475,18.164 C4.499,18.164 4.522,18.164 4.545,18.164 C4.545,18.118 4.545,18.072 4.545,18.026 C4.568,18.026 4.591,18.026 4.614,18.026 C4.614,17.979 4.614,17.933 4.614,17.887 C4.660,17.864 4.706,17.841 4.752,17.818 C4.799,17.679 4.845,17.540 4.891,17.402 C4.937,17.379 4.983,17.356 5.030,17.333 C5.030,17.286 5.030,17.240 5.030,17.194 C5.053,17.194 5.076,17.194 5.099,17.194 C5.099,17.148 5.099,17.102 5.099,17.055 C5.145,17.032 5.191,17.009 5.237,16.986 C5.237,16.940 5.237,16.894 5.237,16.848 C5.283,16.825 5.330,16.801 5.376,16.778 C5.399,16.686 5.422,16.594 5.445,16.501 C5.491,16.478 5.537,16.455 5.584,16.432 C5.584,16.386 5.584,16.340 5.584,16.293 C5.630,16.270 5.676,16.247 5.722,16.224 C5.722,16.178 5.722,16.132 5.722,16.085 C5.768,16.062 5.814,16.039 5.860,16.016 C5.860,15.970 5.860,15.924 5.860,15.878 C5.884,15.878 5.907,15.878 5.930,15.878 C5.953,15.808 5.976,15.739 5.999,15.670 C6.045,15.647 6.091,15.624 6.138,15.600 C6.138,15.554 6.138,15.508 6.138,15.462 C6.161,15.462 6.184,15.462 6.207,15.462 C6.230,15.393 6.253,15.323 6.276,15.254 C6.322,15.231 6.368,15.208 6.414,15.185 C6.414,15.139 6.414,15.092 6.414,15.046 C6.484,15.000 6.553,14.954 6.622,14.908 C6.622,14.861 6.622,14.815 6.622,14.769 C6.668,14.746 6.715,14.723 6.761,14.700 C6.761,14.654 6.761,14.607 6.761,14.561 C6.830,14.515 6.899,14.469 6.969,14.423 C6.969,14.376 6.969,14.330 6.969,14.284 C7.038,14.238 7.107,14.192 7.176,14.145 C7.176,14.099 7.176,14.053 7.176,14.007 C7.246,13.961 7.315,13.914 7.384,13.868 C7.384,13.822 7.384,13.776 7.384,13.730 C7.476,13.660 7.569,13.591 7.661,13.522 C7.661,13.476 7.661,13.429 7.661,13.383 C7.753,13.314 7.846,13.245 7.938,13.175 C7.938,13.129 7.938,13.083 7.938,13.037 C8.054,12.944 8.169,12.852 8.284,12.760 C8.284,12.713 8.284,12.667 8.284,12.621 C8.423,12.506 8.561,12.390 8.700,12.275 C8.700,12.228 8.700,12.182 8.700,12.136 C8.885,11.974 9.069,11.813 9.254,11.651 C9.254,11.605 9.254,11.559 9.254,11.513 C9.669,11.120 10.085,10.727 10.500,10.335 C11.111,9.725 11.659,9.117 12.370,8.602 C12.486,8.464 12.601,8.325 12.717,8.187 C12.786,8.164 12.855,8.141 12.924,8.117 C12.971,8.048 13.017,7.979 13.063,7.910 C13.109,7.910 13.155,7.910 13.201,7.910 C13.271,7.817 13.340,7.725 13.409,7.632 C13.455,7.632 13.501,7.632 13.548,7.632 C13.571,7.586 13.594,7.540 13.617,7.494 C13.640,7.494 13.663,7.494 13.686,7.494 C13.709,7.448 13.732,7.401 13.755,7.355 C13.802,7.355 13.848,7.355 13.894,7.355 C13.940,7.286 13.986,7.217 14.032,7.147 C14.079,7.147 14.125,7.147 14.171,7.147 C14.217,7.078 14.263,7.009 14.309,6.940 C14.356,6.940 14.402,6.940 14.448,6.940 C14.494,6.870 14.540,6.801 14.586,6.732 C14.633,6.732 14.679,6.732 14.725,6.732 C14.748,6.685 14.771,6.639 14.794,6.593 C14.840,6.593 14.887,6.593 14.933,6.593 C14.979,6.524 15.025,6.455 15.071,6.385 C15.117,6.385 15.164,6.385 15.210,6.385 C15.233,6.339 15.256,6.293 15.279,6.247 C15.348,6.224 15.418,6.200 15.487,6.177 C15.487,6.154 15.487,6.131 15.487,6.108 C15.533,6.108 15.579,6.108 15.625,6.108 C15.648,6.062 15.671,6.016 15.695,5.969 C15.741,5.969 15.787,5.969 15.833,5.969 C15.856,5.923 15.879,5.877 15.902,5.831 C15.948,5.831 15.995,5.831 16.041,5.831 C16.064,5.785 16.087,5.739 16.110,5.692 C16.156,5.692 16.202,5.692 16.249,5.692 C16.272,5.646 16.295,5.600 16.318,5.554 C16.364,5.554 16.410,5.554 16.456,5.554 C16.479,5.508 16.502,5.461 16.526,5.415 C16.572,5.415 16.618,5.415 16.664,5.415 C16.687,5.369 16.710,5.323 16.733,5.277 C16.826,5.254 16.918,5.230 17.010,5.207 C17.033,5.161 17.056,5.115 17.080,5.069 C17.172,5.046 17.264,5.023 17.357,5.000 C17.380,4.953 17.403,4.907 17.426,4.861 C17.564,4.815 17.703,4.769 17.841,4.722 C17.864,4.676 17.888,4.630 17.911,4.584 C18.049,4.538 18.188,4.491 18.326,4.445 C18.349,4.399 18.372,4.353 18.395,4.307 C18.442,4.307 18.488,4.307 18.534,4.307 C18.534,4.284 18.534,4.260 18.534,4.237 C18.580,4.237 18.626,4.237 18.672,4.237 C18.672,4.214 18.672,4.191 18.672,4.168 C18.719,4.168 18.765,4.168 18.811,4.168 C18.811,4.145 18.811,4.122 18.811,4.099 C18.857,4.099 18.903,4.099 18.949,4.099 C18.949,4.076 18.949,4.053 18.949,4.029 C19.042,4.006 19.134,3.983 19.227,3.960 C19.250,3.914 19.273,3.868 19.296,3.822 C19.388,3.798 19.480,3.775 19.573,3.752 C19.573,3.729 19.573,3.706 19.573,3.683 C19.665,3.660 19.757,3.637 19.850,3.614 C19.850,3.591 19.850,3.568 19.850,3.544 C19.919,3.544 19.988,3.544 20.057,3.544 C20.057,3.521 20.057,3.498 20.057,3.475 C20.104,3.475 20.150,3.475 20.196,3.475 C20.196,3.452 20.196,3.429 20.196,3.406 C20.242,3.406 20.288,3.406 20.335,3.406 C20.335,3.383 20.335,3.360 20.335,3.337 C20.381,3.337 20.427,3.337 20.473,3.337 C20.473,3.314 20.473,3.290 20.473,3.267 C20.611,3.221 20.750,3.175 20.889,3.129 C20.889,3.106 20.889,3.083 20.889,3.059 C20.958,3.059 21.027,3.059 21.096,3.059 C21.096,3.036 21.096,3.013 21.096,2.990 C21.189,2.967 21.281,2.944 21.373,2.921 C21.373,2.898 21.373,2.875 21.373,2.852 C21.443,2.852 21.512,2.852 21.581,2.852 C21.581,2.828 21.581,2.805 21.581,2.782 C21.673,2.759 21.766,2.736 21.858,2.713 C21.858,2.690 21.858,2.667 21.858,2.644 C21.927,2.644 21.997,2.644 22.066,2.644 C22.066,2.621 22.066,2.597 22.066,2.574 C22.112,2.574 22.158,2.574 22.204,2.574 C22.204,2.551 22.204,2.528 22.204,2.505 C22.274,2.505 22.343,2.505 22.412,2.505 C22.412,2.482 22.412,2.459 22.412,2.436 C22.504,2.413 22.597,2.390 22.689,2.367 C22.689,2.343 22.689,2.320 22.689,2.297 C22.897,2.251 23.105,2.205 23.312,2.159 C23.312,2.136 23.312,2.113 23.312,2.089 C23.359,2.089 23.405,2.089 23.451,2.089 C23.451,2.066 23.451,2.043 23.451,2.020 C23.659,1.974 23.867,1.928 24.074,1.882 C24.074,1.858 24.074,1.835 24.074,1.812 C24.143,1.812 24.213,1.812 24.282,1.812 C24.282,1.789 24.282,1.766 24.282,1.743 C24.351,1.743 24.421,1.743 24.490,1.743 C24.490,1.720 24.490,1.697 24.490,1.674 C24.559,1.674 24.628,1.674 24.697,1.674 C24.697,1.651 24.697,1.628 24.697,1.604 C24.767,1.604 24.836,1.604 24.905,1.604 C24.905,1.581 24.905,1.558 24.905,1.535 C24.975,1.535 25.044,1.535 25.113,1.535 C25.113,1.512 25.113,1.489 25.113,1.466 C25.275,1.443 25.436,1.420 25.598,1.397 C25.598,1.373 25.598,1.350 25.598,1.327 C25.759,1.304 25.921,1.281 26.083,1.258 C26.083,1.235 26.083,1.212 26.083,1.189 C26.267,1.166 26.452,1.142 26.637,1.119 C26.637,1.096 26.637,1.073 26.637,1.050 C26.706,1.050 26.775,1.050 26.844,1.050 C26.844,1.027 26.844,1.004 26.844,0.981 C26.960,0.981 27.075,0.981 27.191,0.981 C27.191,0.958 27.191,0.935 27.191,0.912 C27.283,0.912 27.375,0.912 27.468,0.912 C27.468,0.888 27.468,0.865 27.468,0.842 C27.560,0.842 27.652,0.842 27.745,0.842 C27.745,0.819 27.745,0.796 27.745,0.773 C27.860,0.773 27.976,0.773 28.091,0.773 C28.091,0.750 28.091,0.727 28.091,0.704 C28.206,0.704 28.322,0.704 28.437,0.704 C28.437,0.681 28.437,0.657 28.437,0.634 C28.553,0.634 28.668,0.634 28.783,0.634 C28.783,0.611 28.783,0.588 28.783,0.565 C29.037,0.542 29.291,0.519 29.545,0.496 C29.545,0.473 29.545,0.450 29.545,0.427 C29.684,0.427 29.822,0.427 29.961,0.427 C30.632,0.226 31.559,0.276 32.246,0.080 C32.535,-0.002 32.957,0.179 33.146,0.011 ZM34.601,6.108 C34.331,6.330 33.672,6.065 33.285,6.177 C33.285,6.200 33.285,6.224 33.285,6.247 C33.031,6.247 32.777,6.247 32.523,6.247 C32.523,6.270 32.523,6.293 32.523,6.316 C32.315,6.316 32.108,6.316 31.900,6.316 C31.900,6.339 31.900,6.362 31.900,6.385 C31.738,6.385 31.577,6.385 31.415,6.385 C31.415,6.408 31.415,6.431 31.415,6.455 C31.230,6.455 31.046,6.455 30.861,6.455 C30.336,6.613 29.636,6.707 29.130,6.870 C29.014,6.870 28.899,6.870 28.783,6.870 C28.783,6.893 28.783,6.916 28.783,6.940 C28.506,6.986 28.229,7.032 27.952,7.078 C27.234,7.337 26.424,7.565 25.736,7.840 C25.598,7.863 25.459,7.886 25.321,7.910 C25.321,7.933 25.321,7.956 25.321,7.979 C25.275,7.979 25.228,7.979 25.182,7.979 C25.182,8.002 25.182,8.025 25.182,8.048 C25.113,8.048 25.044,8.048 24.975,8.048 C24.975,8.071 24.975,8.094 24.975,8.117 C24.928,8.117 24.882,8.117 24.836,8.117 C24.836,8.141 24.836,8.164 24.836,8.187 C24.767,8.187 24.697,8.187 24.628,8.187 C24.628,8.210 24.628,8.233 24.628,8.256 C24.582,8.256 24.536,8.256 24.490,8.256 C24.490,8.279 24.490,8.302 24.490,8.325 C24.421,8.325 24.351,8.325 24.282,8.325 C24.282,8.348 24.282,8.371 24.282,8.395 C24.236,8.395 24.190,8.395 24.143,8.395 C24.143,8.418 24.143,8.441 24.143,8.464 C24.074,8.464 24.005,8.464 23.936,8.464 C23.936,8.487 23.936,8.510 23.936,8.533 C23.843,8.556 23.751,8.579 23.659,8.602 C23.659,8.626 23.659,8.649 23.659,8.672 C23.543,8.695 23.428,8.718 23.312,8.741 C23.312,8.764 23.312,8.787 23.312,8.810 C23.174,8.856 23.035,8.903 22.897,8.949 C22.897,8.972 22.897,8.995 22.897,9.018 C22.851,9.018 22.804,9.018 22.758,9.018 C22.758,9.041 22.758,9.064 22.758,9.087 C22.712,9.087 22.666,9.087 22.620,9.087 C22.620,9.111 22.620,9.134 22.620,9.157 C22.574,9.157 22.528,9.157 22.481,9.157 C22.481,9.180 22.481,9.203 22.481,9.226 C22.435,9.226 22.389,9.226 22.343,9.226 C22.343,9.249 22.343,9.272 22.343,9.295 C22.297,9.295 22.250,9.295 22.204,9.295 C22.204,9.318 22.204,9.341 22.204,9.365 C22.158,9.365 22.112,9.365 22.066,9.365 C22.066,9.388 22.066,9.411 22.066,9.434 C22.020,9.434 21.974,9.434 21.927,9.434 C21.927,9.457 21.927,9.480 21.927,9.503 C21.881,9.503 21.835,9.503 21.789,9.503 C21.789,9.526 21.789,9.549 21.789,9.572 C21.743,9.572 21.696,9.572 21.650,9.572 C21.627,9.619 21.604,9.665 21.581,9.711 C21.535,9.711 21.489,9.711 21.443,9.711 C21.443,9.734 21.443,9.757 21.443,9.780 C21.396,9.780 21.350,9.780 21.304,9.780 C21.304,9.803 21.304,9.827 21.304,9.850 C21.258,9.850 21.212,9.850 21.166,9.850 C21.166,9.873 21.166,9.896 21.166,9.919 C21.119,9.919 21.073,9.919 21.027,9.919 C21.004,9.965 20.981,10.011 20.958,10.057 C20.912,10.057 20.865,10.057 20.819,10.057 C20.819,10.081 20.819,10.104 20.819,10.127 C20.773,10.127 20.727,10.127 20.681,10.127 C20.681,10.150 20.681,10.173 20.681,10.196 C20.635,10.196 20.588,10.196 20.542,10.196 C20.519,10.242 20.496,10.288 20.473,10.335 C20.427,10.335 20.381,10.335 20.335,10.335 C20.311,10.381 20.288,10.427 20.265,10.473 C20.173,10.496 20.081,10.519 19.988,10.542 C19.988,10.566 19.988,10.589 19.988,10.612 C19.919,10.635 19.850,10.658 19.781,10.681 C19.757,10.727 19.734,10.773 19.711,10.820 C19.619,10.843 19.527,10.866 19.434,10.889 C19.434,10.912 19.434,10.935 19.434,10.958 C19.365,10.981 19.296,11.004 19.227,11.027 C19.203,11.074 19.180,11.120 19.157,11.166 C19.111,11.166 19.065,11.166 19.019,11.166 C18.973,11.235 18.926,11.305 18.880,11.374 C18.834,11.374 18.788,11.374 18.742,11.374 C18.742,11.397 18.742,11.420 18.742,11.443 C18.672,11.466 18.603,11.489 18.534,11.513 C18.511,11.559 18.488,11.605 18.465,11.651 C18.419,11.651 18.372,11.651 18.326,11.651 C18.280,11.720 18.234,11.790 18.188,11.859 C18.141,11.859 18.095,11.859 18.049,11.859 C18.003,11.928 17.957,11.997 17.911,12.067 C17.864,12.067 17.818,12.067 17.772,12.067 C17.726,12.136 17.680,12.205 17.634,12.275 C17.587,12.275 17.541,12.275 17.495,12.275 C17.426,12.367 17.357,12.459 17.287,12.552 C17.241,12.552 17.195,12.552 17.149,12.552 C17.080,12.644 17.010,12.737 16.941,12.829 C16.895,12.829 16.849,12.829 16.803,12.829 C16.687,12.968 16.572,13.106 16.456,13.245 C15.750,13.757 15.258,14.305 14.656,14.908 C14.402,15.139 14.148,15.369 13.894,15.600 C13.894,15.647 13.894,15.693 13.894,15.739 C13.686,15.924 13.478,16.109 13.271,16.293 C13.271,16.340 13.271,16.386 13.271,16.432 C13.155,16.524 13.040,16.617 12.924,16.709 C12.924,16.755 12.924,16.801 12.924,16.848 C12.809,16.940 12.694,17.032 12.578,17.125 C12.578,17.171 12.578,17.217 12.578,17.263 C12.509,17.309 12.440,17.356 12.370,17.402 C12.370,17.448 12.370,17.494 12.370,17.540 C12.278,17.610 12.186,17.679 12.093,17.748 C12.093,17.795 12.093,17.841 12.093,17.887 C12.047,17.910 12.001,17.933 11.955,17.956 C11.955,18.002 11.955,18.049 11.955,18.095 C11.909,18.118 11.862,18.141 11.816,18.164 C11.793,18.233 11.770,18.303 11.747,18.372 C11.678,18.418 11.609,18.464 11.539,18.510 C11.539,18.557 11.539,18.603 11.539,18.649 C11.493,18.672 11.447,18.695 11.401,18.718 C11.378,18.788 11.355,18.857 11.332,18.926 C11.308,18.926 11.285,18.926 11.262,18.926 C11.262,18.972 11.262,19.019 11.262,19.065 C11.216,19.088 11.170,19.111 11.124,19.134 C11.124,19.180 11.124,19.226 11.124,19.273 C11.078,19.296 11.032,19.319 10.985,19.342 C10.985,19.388 10.985,19.434 10.985,19.481 C10.939,19.504 10.893,19.527 10.847,19.550 C10.847,19.596 10.847,19.642 10.847,19.688 C10.801,19.712 10.754,19.735 10.708,19.758 C10.708,19.804 10.708,19.850 10.708,19.896 C10.662,19.919 10.616,19.942 10.570,19.966 C10.570,20.012 10.570,20.058 10.570,20.104 C10.547,20.104 10.524,20.104 10.500,20.104 C10.500,20.150 10.500,20.196 10.500,20.243 C10.454,20.266 10.408,20.289 10.362,20.312 C10.339,20.404 10.316,20.497 10.293,20.589 C10.247,20.612 10.200,20.635 10.154,20.658 C10.154,20.705 10.154,20.751 10.154,20.797 C10.131,20.797 10.108,20.797 10.085,20.797 C10.085,20.843 10.085,20.889 10.085,20.936 C10.039,20.959 9.993,20.982 9.946,21.005 C9.946,21.051 9.946,21.097 9.946,21.143 C9.923,21.143 9.900,21.143 9.877,21.143 C9.877,21.190 9.877,21.236 9.877,21.282 C9.854,21.282 9.831,21.282 9.808,21.282 C9.808,21.328 9.808,21.374 9.808,21.421 C9.785,21.421 9.762,21.421 9.739,21.421 C9.739,21.467 9.739,21.513 9.739,21.559 C9.716,21.559 9.693,21.559 9.669,21.559 C9.669,21.605 9.669,21.652 9.669,21.698 C9.623,21.721 9.577,21.744 9.531,21.767 C9.531,21.813 9.531,21.859 9.531,21.906 C9.508,21.906 9.485,21.906 9.462,21.906 C9.462,21.952 9.462,21.998 9.462,22.044 C9.439,22.044 9.415,22.044 9.392,22.044 C9.392,22.090 9.392,22.137 9.392,22.183 C9.369,22.183 9.346,22.183 9.323,22.183 C9.323,22.229 9.323,22.275 9.323,22.321 C9.300,22.321 9.277,22.321 9.254,22.321 C9.254,22.367 9.254,22.414 9.254,22.460 C9.231,22.460 9.208,22.460 9.185,22.460 C9.185,22.506 9.185,22.552 9.185,22.598 C9.162,22.598 9.139,22.598 9.115,22.598 C9.069,22.737 9.023,22.876 8.977,23.014 C8.954,23.014 8.931,23.014 8.908,23.014 C8.908,23.083 8.908,23.153 8.908,23.222 C8.885,23.222 8.861,23.222 8.838,23.222 C8.838,23.268 8.838,23.314 8.838,23.361 C8.815,23.361 8.792,23.361 8.769,23.361 C8.746,23.453 8.723,23.545 8.700,23.638 C8.677,23.638 8.654,23.638 8.631,23.638 C8.631,23.707 8.631,23.776 8.631,23.846 C8.608,23.846 8.585,23.846 8.561,23.846 C8.538,23.938 8.515,24.030 8.492,24.123 C8.469,24.123 8.446,24.123 8.423,24.123 C8.423,24.192 8.423,24.261 8.423,24.331 C8.400,24.331 8.377,24.331 8.354,24.331 C8.354,24.377 8.354,24.423 8.354,24.469 C8.331,24.469 8.307,24.469 8.284,24.469 C8.261,24.585 8.238,24.700 8.215,24.816 C8.192,24.816 8.169,24.816 8.146,24.816 C8.146,24.885 8.146,24.954 8.146,25.024 C8.123,25.024 8.100,25.024 8.077,25.024 C8.077,25.070 8.077,25.116 8.077,25.162 C8.054,25.162 8.031,25.162 8.007,25.162 C7.961,25.370 7.915,25.578 7.869,25.786 C7.846,25.786 7.823,25.786 7.800,25.786 C7.800,25.832 7.800,25.878 7.800,25.924 C7.777,25.924 7.753,25.924 7.730,25.924 C7.430,26.987 7.130,28.049 6.830,29.111 C6.830,29.227 6.830,29.342 6.830,29.458 C6.692,29.904 6.619,30.522 6.484,30.982 C6.484,31.144 6.484,31.306 6.484,31.467 C6.461,31.467 6.438,31.467 6.414,31.467 C6.414,31.652 6.414,31.837 6.414,32.022 C6.391,32.022 6.368,32.022 6.345,32.022 C6.345,32.229 6.345,32.437 6.345,32.645 C6.322,32.645 6.299,32.645 6.276,32.645 C6.276,32.922 6.276,33.199 6.276,33.477 C6.088,34.154 6.207,35.237 6.207,36.040 C6.230,36.802 6.253,37.565 6.276,38.327 C6.299,38.327 6.322,38.327 6.345,38.327 C6.345,38.534 6.345,38.742 6.345,38.950 C6.368,38.950 6.391,38.950 6.414,38.950 C6.414,39.135 6.414,39.320 6.414,39.505 C6.438,39.505 6.461,39.505 6.484,39.505 C6.484,39.666 6.484,39.828 6.484,39.990 C6.507,39.990 6.530,39.990 6.553,39.990 C6.553,40.128 6.553,40.267 6.553,40.405 C6.576,40.405 6.599,40.405 6.622,40.405 C6.622,40.544 6.622,40.682 6.622,40.821 C6.645,40.821 6.668,40.821 6.692,40.821 C6.692,40.937 6.692,41.052 6.692,41.167 C6.715,41.167 6.738,41.167 6.761,41.167 C6.761,41.283 6.761,41.398 6.761,41.514 C6.784,41.514 6.807,41.514 6.830,41.514 C6.830,41.606 6.830,41.699 6.830,41.791 C6.853,41.791 6.876,41.791 6.899,41.791 C6.899,41.906 6.899,42.022 6.899,42.137 C6.922,42.137 6.946,42.137 6.969,42.137 C6.969,42.230 6.969,42.322 6.969,42.415 C6.992,42.415 7.015,42.415 7.038,42.415 C7.038,42.507 7.038,42.599 7.038,42.692 C7.061,42.692 7.084,42.692 7.107,42.692 C7.107,42.784 7.107,42.877 7.107,42.969 C7.130,42.969 7.153,42.969 7.176,42.969 C7.176,43.061 7.176,43.154 7.176,43.246 C7.199,43.246 7.223,43.246 7.246,43.246 C7.246,43.315 7.246,43.385 7.246,43.454 C7.269,43.454 7.292,43.454 7.315,43.454 C7.315,43.546 7.315,43.639 7.315,43.731 C7.338,43.731 7.361,43.731 7.384,43.731 C7.384,43.800 7.384,43.870 7.384,43.939 C7.407,43.939 7.430,43.939 7.453,43.939 C7.453,44.008 7.453,44.078 7.453,44.147 C7.476,44.147 7.500,44.147 7.523,44.147 C7.523,44.216 7.523,44.285 7.523,44.355 C7.546,44.355 7.569,44.355 7.592,44.355 C7.638,44.586 7.684,44.817 7.730,45.048 C7.753,45.048 7.777,45.048 7.800,45.048 C7.800,45.094 7.800,45.140 7.800,45.186 C7.823,45.186 7.846,45.186 7.869,45.186 C7.915,45.394 7.961,45.602 8.007,45.810 C8.031,45.810 8.054,45.810 8.077,45.810 C8.077,45.856 8.077,45.902 8.077,45.948 C8.100,45.948 8.123,45.948 8.146,45.948 C8.146,46.018 8.146,46.087 8.146,46.156 C8.169,46.156 8.192,46.156 8.215,46.156 C8.215,46.202 8.215,46.249 8.215,46.295 C8.238,46.295 8.261,46.295 8.284,46.295 C8.284,46.364 8.284,46.433 8.284,46.503 C8.307,46.503 8.331,46.503 8.354,46.503 C8.354,46.549 8.354,46.595 8.354,46.641 C8.377,46.641 8.400,46.641 8.423,46.641 C8.423,46.710 8.423,46.780 8.423,46.849 C8.446,46.849 8.469,46.849 8.492,46.849 C8.492,46.895 8.492,46.941 8.492,46.988 C8.515,46.988 8.538,46.988 8.561,46.988 C8.585,47.103 8.608,47.219 8.631,47.334 C8.654,47.334 8.677,47.334 8.700,47.334 C8.700,47.380 8.700,47.426 8.700,47.473 C8.723,47.473 8.746,47.473 8.769,47.473 C8.815,47.611 8.861,47.750 8.908,47.888 C8.931,47.888 8.954,47.888 8.977,47.888 C8.977,47.958 8.977,48.027 8.977,48.096 C9.000,48.096 9.023,48.096 9.046,48.096 C9.092,48.235 9.139,48.373 9.185,48.512 C9.208,48.512 9.231,48.512 9.254,48.512 C9.254,48.558 9.254,48.604 9.254,48.650 C9.277,48.650 9.300,48.650 9.323,48.650 C9.369,48.789 9.416,48.928 9.462,49.066 C9.508,49.089 9.554,49.112 9.600,49.136 C9.600,49.182 9.600,49.228 9.600,49.274 C9.623,49.274 9.646,49.274 9.669,49.274 C9.669,49.320 9.669,49.366 9.669,49.413 C9.693,49.413 9.716,49.413 9.739,49.413 C9.739,49.459 9.739,49.505 9.739,49.551 C9.762,49.551 9.785,49.551 9.808,49.551 C9.808,49.597 9.808,49.644 9.808,49.690 C9.831,49.690 9.854,49.690 9.877,49.690 C9.877,49.736 9.877,49.782 9.877,49.828 C9.923,49.851 9.970,49.875 10.016,49.898 C10.062,50.036 10.108,50.175 10.154,50.313 C10.200,50.336 10.247,50.360 10.293,50.383 C10.316,50.475 10.339,50.567 10.362,50.660 C10.385,50.660 10.408,50.660 10.431,50.660 C10.454,50.729 10.477,50.798 10.500,50.868 C10.547,50.891 10.593,50.914 10.639,50.937 C10.662,51.029 10.685,51.122 10.708,51.214 C10.754,51.237 10.801,51.260 10.847,51.283 C10.847,51.330 10.847,51.376 10.847,51.422 C10.893,51.445 10.939,51.468 10.985,51.491 C10.985,51.537 10.985,51.584 10.985,51.630 C11.008,51.630 11.032,51.630 11.055,51.630 C11.078,51.699 11.101,51.768 11.124,51.838 C11.170,51.861 11.216,51.884 11.262,51.907 C11.262,51.953 11.262,51.999 11.262,52.046 C11.285,52.046 11.308,52.046 11.332,52.046 C11.355,52.115 11.378,52.184 11.401,52.253 C11.447,52.277 11.493,52.300 11.539,52.323 C11.539,52.369 11.539,52.415 11.539,52.461 C11.609,52.507 11.678,52.554 11.747,52.600 C11.747,52.646 11.747,52.692 11.747,52.738 C11.816,52.785 11.886,52.831 11.955,52.877 C11.955,52.923 11.955,52.969 11.955,53.016 C12.024,53.062 12.093,53.108 12.163,53.154 C13.715,55.349 15.646,57.286 17.841,58.836 C17.888,58.905 17.934,58.974 17.980,59.044 C18.026,59.044 18.072,59.044 18.118,59.044 C18.165,59.113 18.211,59.182 18.257,59.251 C18.303,59.251 18.349,59.251 18.395,59.251 C18.442,59.321 18.488,59.390 18.534,59.459 C18.580,59.459 18.626,59.459 18.672,59.459 C18.695,59.505 18.719,59.552 18.742,59.598 C18.788,59.598 18.834,59.598 18.880,59.598 C18.903,59.644 18.926,59.690 18.949,59.736 C18.996,59.736 19.042,59.736 19.088,59.736 C19.111,59.783 19.134,59.829 19.157,59.875 C19.203,59.875 19.250,59.875 19.296,59.875 C19.319,59.921 19.342,59.967 19.365,60.014 C19.411,60.014 19.457,60.014 19.503,60.014 C19.527,60.060 19.550,60.106 19.573,60.152 C19.619,60.152 19.665,60.152 19.711,60.152 C19.734,60.198 19.757,60.245 19.781,60.291 C19.873,60.314 19.965,60.337 20.057,60.360 C20.081,60.406 20.104,60.452 20.127,60.499 C20.173,60.499 20.219,60.499 20.265,60.499 C20.288,60.545 20.311,60.591 20.335,60.637 C20.381,60.637 20.427,60.637 20.473,60.637 C20.473,60.660 20.473,60.683 20.473,60.706 C20.519,60.706 20.565,60.706 20.611,60.706 C20.635,60.753 20.658,60.799 20.681,60.845 C20.819,60.891 20.958,60.937 21.096,60.984 C21.119,61.030 21.142,61.076 21.166,61.122 C21.212,61.122 21.258,61.122 21.304,61.122 C21.304,61.145 21.304,61.168 21.304,61.191 C21.350,61.191 21.396,61.191 21.443,61.191 C21.443,61.215 21.443,61.238 21.443,61.261 C21.489,61.261 21.535,61.261 21.581,61.261 C21.581,61.284 21.581,61.307 21.581,61.330 C21.627,61.330 21.673,61.330 21.720,61.330 C21.720,61.353 21.720,61.376 21.720,61.399 C21.812,61.422 21.904,61.446 21.997,61.469 C22.020,61.515 22.043,61.561 22.066,61.607 C22.158,61.630 22.250,61.653 22.343,61.676 C22.343,61.700 22.343,61.723 22.343,61.746 C22.389,61.746 22.435,61.746 22.481,61.746 C22.481,61.769 22.481,61.792 22.481,61.815 C22.620,61.861 22.758,61.907 22.897,61.954 C22.897,61.977 22.897,62.000 22.897,62.023 C22.966,62.023 23.035,62.023 23.105,62.023 C23.105,62.046 23.105,62.069 23.105,62.092 C23.151,62.092 23.197,62.092 23.243,62.092 C23.243,62.115 23.243,62.138 23.243,62.162 C23.382,62.208 23.520,62.254 23.659,62.300 C23.659,62.323 23.659,62.346 23.659,62.369 C23.728,62.369 23.797,62.369 23.866,62.369 C23.866,62.392 23.866,62.416 23.866,62.439 C23.959,62.462 24.051,62.485 24.143,62.508 C24.143,62.531 24.143,62.554 24.143,62.577 C24.213,62.577 24.282,62.577 24.351,62.577 C24.351,62.600 24.351,62.623 24.351,62.647 C24.397,62.647 24.444,62.647 24.490,62.647 C24.490,62.670 24.490,62.693 24.490,62.716 C24.605,62.739 24.721,62.762 24.836,62.785 C24.836,62.808 24.836,62.831 24.836,62.854 C24.975,62.877 25.113,62.901 25.251,62.924 C25.251,62.947 25.251,62.970 25.251,62.993 C25.298,62.993 25.344,62.993 25.390,62.993 C25.390,63.016 25.390,63.039 25.390,63.062 C25.598,63.108 25.806,63.155 26.013,63.201 C26.013,63.224 26.013,63.247 26.013,63.270 C26.059,63.270 26.106,63.270 26.152,63.270 C26.152,63.293 26.152,63.316 26.152,63.339 C26.313,63.362 26.475,63.386 26.637,63.409 C26.637,63.432 26.637,63.455 26.637,63.478 C26.706,63.478 26.775,63.478 26.844,63.478 C26.844,63.501 26.844,63.524 26.844,63.547 C26.914,63.547 26.983,63.547 27.052,63.547 C27.052,63.570 27.052,63.593 27.052,63.617 C27.214,63.640 27.375,63.663 27.537,63.686 C27.537,63.709 27.537,63.732 27.537,63.755 C27.698,63.778 27.860,63.801 28.022,63.824 C28.022,63.848 28.022,63.871 28.022,63.894 C28.299,63.940 28.576,63.986 28.853,64.032 C28.853,64.055 28.853,64.078 28.853,64.102 C28.968,64.102 29.084,64.102 29.199,64.102 C29.737,64.269 30.444,64.354 30.999,64.517 C31.161,64.517 31.323,64.517 31.484,64.517 C31.484,64.540 31.484,64.563 31.484,64.587 C31.669,64.587 31.854,64.587 32.038,64.587 C32.750,64.788 33.717,64.794 34.601,64.794 C34.970,64.818 35.339,64.841 35.709,64.864 C36.463,64.654 37.610,64.865 38.340,64.656 C38.548,64.656 38.756,64.656 38.964,64.656 C39.510,64.497 40.239,64.469 40.764,64.309 C40.903,64.309 41.041,64.309 41.180,64.309 C41.180,64.286 41.180,64.263 41.180,64.240 C41.388,64.217 41.595,64.194 41.803,64.171 C41.803,64.148 41.803,64.125 41.803,64.102 C41.919,64.102 42.034,64.102 42.149,64.102 C42.149,64.078 42.149,64.055 42.149,64.032 C42.242,64.032 42.334,64.032 42.426,64.032 C42.426,64.009 42.426,63.986 42.426,63.963 C42.519,63.963 42.611,63.963 42.703,63.963 C42.703,63.940 42.703,63.917 42.703,63.894 C42.796,63.894 42.888,63.894 42.980,63.894 C42.980,63.871 42.980,63.848 42.980,63.824 C43.142,63.801 43.304,63.778 43.465,63.755 C43.465,63.732 43.465,63.709 43.465,63.686 C43.627,63.663 43.788,63.640 43.950,63.617 C43.950,63.593 43.950,63.570 43.950,63.547 C44.019,63.547 44.088,63.547 44.158,63.547 C44.158,63.524 44.158,63.501 44.158,63.478 C44.227,63.478 44.296,63.478 44.366,63.478 C44.366,63.455 44.366,63.432 44.366,63.409 C44.458,63.409 44.550,63.409 44.642,63.409 C44.642,63.386 44.642,63.362 44.642,63.339 C44.712,63.339 44.781,63.339 44.850,63.339 C44.850,63.316 44.850,63.293 44.850,63.270 C44.896,63.270 44.943,63.270 44.989,63.270 C44.989,63.247 44.989,63.224 44.989,63.201 C45.196,63.155 45.404,63.108 45.612,63.062 C45.612,63.039 45.612,63.016 45.612,62.993 C45.658,62.993 45.704,62.993 45.751,62.993 C45.751,62.970 45.751,62.947 45.751,62.924 C45.889,62.901 46.028,62.877 46.166,62.854 C46.166,62.831 46.166,62.808 46.166,62.785 C46.212,62.785 46.258,62.785 46.305,62.785 C46.305,62.762 46.305,62.739 46.305,62.716 C46.374,62.716 46.443,62.716 46.512,62.716 C46.512,62.693 46.512,62.670 46.512,62.647 C46.559,62.647 46.605,62.647 46.651,62.647 C46.651,62.623 46.651,62.600 46.651,62.577 C46.720,62.577 46.789,62.577 46.859,62.577 C46.859,62.554 46.859,62.531 46.859,62.508 C46.951,62.485 47.043,62.462 47.136,62.439 C47.136,62.416 47.136,62.392 47.136,62.369 C47.205,62.369 47.274,62.369 47.343,62.369 C47.343,62.346 47.343,62.323 47.343,62.300 C47.389,62.300 47.436,62.300 47.482,62.300 C47.482,62.277 47.482,62.254 47.482,62.231 C47.620,62.185 47.759,62.138 47.897,62.092 C47.897,62.069 47.897,62.046 47.897,62.023 C47.967,62.023 48.036,62.023 48.105,62.023 C48.105,62.000 48.105,61.977 48.105,61.954 C48.244,61.907 48.382,61.861 48.521,61.815 C48.521,61.792 48.521,61.769 48.521,61.746 C48.567,61.746 48.613,61.746 48.659,61.746 C48.659,61.723 48.659,61.700 48.659,61.676 C48.752,61.653 48.844,61.630 48.936,61.607 C48.959,61.561 48.982,61.515 49.006,61.469 C49.052,61.469 49.098,61.469 49.144,61.469 C49.144,61.446 49.144,61.422 49.144,61.399 C49.190,61.399 49.236,61.399 49.282,61.399 C49.282,61.376 49.282,61.353 49.282,61.330 C49.329,61.330 49.375,61.330 49.421,61.330 C49.421,61.307 49.421,61.284 49.421,61.261 C49.467,61.261 49.513,61.261 49.560,61.261 C49.560,61.238 49.560,61.215 49.560,61.191 C49.606,61.191 49.652,61.191 49.698,61.191 C49.721,61.145 49.744,61.099 49.767,61.053 C49.906,61.007 50.044,60.961 50.183,60.914 C50.206,60.868 50.229,60.822 50.252,60.776 C50.298,60.776 50.344,60.776 50.390,60.776 C50.390,60.753 50.390,60.730 50.390,60.706 C50.437,60.706 50.483,60.706 50.529,60.706 C50.529,60.683 50.529,60.660 50.529,60.637 C50.575,60.637 50.621,60.637 50.668,60.637 C50.668,60.614 50.668,60.591 50.668,60.568 C50.737,60.545 50.806,60.522 50.875,60.499 C50.898,60.452 50.921,60.406 50.945,60.360 C51.037,60.337 51.129,60.314 51.222,60.291 C51.222,60.268 51.222,60.245 51.222,60.221 C51.291,60.198 51.360,60.175 51.429,60.152 C51.452,60.106 51.475,60.060 51.499,60.014 C51.545,60.014 51.591,60.014 51.637,60.014 C51.660,59.967 51.683,59.921 51.706,59.875 C51.753,59.875 51.799,59.875 51.845,59.875 C51.868,59.829 51.891,59.783 51.914,59.736 C51.960,59.736 52.007,59.736 52.053,59.736 C52.053,59.713 52.053,59.690 52.053,59.667 C52.122,59.644 52.191,59.621 52.260,59.598 C52.283,59.552 52.307,59.505 52.330,59.459 C52.376,59.459 52.422,59.459 52.468,59.459 C52.514,59.390 52.561,59.321 52.607,59.251 C52.653,59.251 52.699,59.251 52.745,59.251 C52.791,59.182 52.837,59.113 52.884,59.044 C52.930,59.044 52.976,59.044 53.022,59.044 C53.068,58.974 53.115,58.905 53.161,58.836 C53.207,58.836 53.253,58.836 53.299,58.836 C53.345,58.766 53.391,58.697 53.438,58.628 C53.484,58.628 53.530,58.628 53.576,58.628 C53.645,58.535 53.715,58.443 53.784,58.351 C53.830,58.351 53.876,58.351 53.922,58.351 C53.992,58.258 54.061,58.166 54.130,58.074 C54.176,58.074 54.223,58.074 54.269,58.074 C54.384,57.935 54.500,57.796 54.615,57.658 C54.661,57.658 54.707,57.658 54.754,57.658 C54.892,57.496 55.030,57.335 55.169,57.173 C55.238,57.150 55.308,57.127 55.377,57.104 C55.654,56.803 55.931,56.503 56.208,56.203 C56.508,55.926 56.808,55.648 57.108,55.371 C57.108,55.325 57.108,55.279 57.108,55.233 C57.293,55.071 57.477,54.909 57.662,54.748 C57.662,54.702 57.662,54.655 57.662,54.609 C57.801,54.494 57.939,54.378 58.078,54.263 C58.078,54.217 58.078,54.170 58.078,54.124 C58.170,54.055 58.262,53.986 58.355,53.916 C58.355,53.870 58.355,53.824 58.355,53.778 C58.447,53.708 58.539,53.639 58.632,53.570 C58.632,53.524 58.632,53.477 58.632,53.431 C58.701,53.385 58.770,53.339 58.839,53.293 C58.839,53.247 58.839,53.200 58.839,53.154 C58.909,53.108 58.978,53.062 59.047,53.016 C59.047,52.969 59.047,52.923 59.047,52.877 C59.116,52.831 59.186,52.785 59.255,52.738 C59.255,52.692 59.255,52.646 59.255,52.600 C59.324,52.554 59.394,52.507 59.463,52.461 C59.463,52.415 59.463,52.369 59.463,52.323 C59.509,52.300 59.555,52.277 59.601,52.253 C59.601,52.207 59.601,52.161 59.601,52.115 C59.647,52.092 59.694,52.069 59.740,52.046 C59.740,51.999 59.740,51.953 59.740,51.907 C59.786,51.884 59.832,51.861 59.878,51.838 C59.878,51.792 59.878,51.745 59.878,51.699 C59.924,51.676 59.971,51.653 60.017,51.630 C60.017,51.584 60.017,51.537 60.017,51.491 C60.063,51.468 60.109,51.445 60.155,51.422 C60.155,51.376 60.155,51.330 60.155,51.283 C60.201,51.260 60.248,51.237 60.294,51.214 C60.317,51.122 60.340,51.029 60.363,50.937 C60.409,50.914 60.455,50.891 60.502,50.868 C60.502,50.822 60.502,50.775 60.502,50.729 C60.548,50.706 60.594,50.683 60.640,50.660 C60.640,50.614 60.640,50.567 60.640,50.521 C60.663,50.521 60.686,50.521 60.709,50.521 C60.709,50.475 60.709,50.429 60.709,50.383 C60.756,50.360 60.802,50.336 60.848,50.313 C60.894,50.175 60.940,50.036 60.986,49.898 C61.032,49.875 61.079,49.851 61.125,49.828 C61.125,49.782 61.125,49.736 61.125,49.690 C61.148,49.690 61.171,49.690 61.194,49.690 C61.194,49.644 61.194,49.597 61.194,49.551 C61.217,49.551 61.240,49.551 61.263,49.551 C61.263,49.505 61.263,49.459 61.263,49.413 C61.286,49.413 61.310,49.413 61.333,49.413 C61.333,49.366 61.333,49.320 61.333,49.274 C61.356,49.274 61.379,49.274 61.402,49.274 C61.425,49.182 61.448,49.089 61.471,48.997 C61.517,48.974 61.563,48.951 61.610,48.928 C61.633,48.835 61.656,48.743 61.679,48.650 C61.702,48.650 61.725,48.650 61.748,48.650 C61.794,48.512 61.840,48.373 61.887,48.235 C61.910,48.235 61.933,48.235 61.956,48.235 C61.956,48.165 61.956,48.096 61.956,48.027 C61.979,48.027 62.002,48.027 62.025,48.027 C62.025,47.981 62.025,47.935 62.025,47.888 C62.048,47.888 62.071,47.888 62.094,47.888 C62.094,47.842 62.094,47.796 62.094,47.750 C62.117,47.750 62.141,47.750 62.164,47.750 C62.210,47.611 62.256,47.473 62.302,47.334 C62.325,47.334 62.348,47.334 62.371,47.334 C62.371,47.265 62.371,47.195 62.371,47.126 C62.394,47.126 62.418,47.126 62.441,47.126 C62.464,47.034 62.487,46.941 62.510,46.849 C62.533,46.849 62.556,46.849 62.579,46.849 C62.579,46.780 62.579,46.710 62.579,46.641 C62.602,46.641 62.625,46.641 62.648,46.641 C62.648,46.595 62.648,46.549 62.648,46.503 C62.671,46.503 62.695,46.503 62.718,46.503 C62.718,46.433 62.718,46.364 62.718,46.295 C62.741,46.295 62.764,46.295 62.787,46.295 C62.787,46.249 62.787,46.202 62.787,46.156 C62.810,46.156 62.833,46.156 62.856,46.156 C63.179,45.186 63.503,44.216 63.826,43.246 C63.826,43.154 63.826,43.061 63.826,42.969 C63.849,42.969 63.872,42.969 63.895,42.969 C63.895,42.877 63.895,42.784 63.895,42.692 C63.918,42.692 63.941,42.692 63.964,42.692 C63.964,42.599 63.964,42.507 63.964,42.415 C63.987,42.415 64.010,42.415 64.033,42.415 C64.033,42.322 64.033,42.230 64.033,42.137 C64.057,42.137 64.080,42.137 64.103,42.137 C64.126,41.930 64.149,41.722 64.172,41.514 C64.195,41.514 64.218,41.514 64.241,41.514 C64.403,40.452 64.564,39.389 64.726,38.327 C64.726,38.026 64.726,37.726 64.726,37.426 C64.914,36.748 64.795,35.665 64.795,34.862 C64.795,34.409 64.823,33.820 64.726,33.477 C64.726,33.199 64.726,32.922 64.726,32.645 C64.545,32.019 64.562,31.177 64.380,30.566 C64.380,30.428 64.380,30.289 64.380,30.151 C64.201,29.567 64.086,28.842 63.895,28.280 C63.872,28.095 63.849,27.910 63.826,27.726 C63.503,26.756 63.179,25.786 62.856,24.816 C62.833,24.816 62.810,24.816 62.787,24.816 C62.787,24.769 62.787,24.723 62.787,24.677 C62.764,24.677 62.741,24.677 62.718,24.677 C62.718,24.608 62.718,24.539 62.718,24.469 C62.695,24.469 62.671,24.469 62.648,24.469 C62.648,24.423 62.648,24.377 62.648,24.331 C62.625,24.331 62.602,24.331 62.579,24.331 C62.579,24.261 62.579,24.192 62.579,24.123 C62.556,24.123 62.533,24.123 62.510,24.123 C62.510,24.077 62.510,24.030 62.510,23.984 C62.487,23.984 62.464,23.984 62.441,23.984 C62.418,23.869 62.394,23.753 62.371,23.638 C62.348,23.638 62.325,23.638 62.302,23.638 C62.302,23.592 62.302,23.545 62.302,23.499 C62.279,23.499 62.256,23.499 62.233,23.499 C62.187,23.361 62.141,23.222 62.094,23.083 C62.071,23.083 62.048,23.083 62.025,23.083 C62.025,23.014 62.025,22.945 62.025,22.876 C62.002,22.876 61.979,22.876 61.956,22.876 C61.910,22.737 61.864,22.598 61.817,22.460 C61.794,22.460 61.771,22.460 61.748,22.460 C61.748,22.414 61.748,22.367 61.748,22.321 C61.725,22.321 61.702,22.321 61.679,22.321 C61.633,22.183 61.586,22.044 61.540,21.906 C61.494,21.882 61.448,21.859 61.402,21.836 C61.402,21.790 61.402,21.744 61.402,21.698 C61.379,21.698 61.356,21.698 61.333,21.698 C61.333,21.652 61.333,21.605 61.333,21.559 C61.310,21.559 61.286,21.559 61.263,21.559 C61.263,21.513 61.263,21.467 61.263,21.421 C61.240,21.421 61.217,21.421 61.194,21.421 C61.194,21.374 61.194,21.328 61.194,21.282 C61.171,21.282 61.148,21.282 61.125,21.282 C61.125,21.236 61.125,21.190 61.125,21.143 C61.079,21.120 61.032,21.097 60.986,21.074 C60.940,20.936 60.894,20.797 60.848,20.658 C60.802,20.635 60.756,20.612 60.709,20.589 C60.686,20.497 60.663,20.404 60.640,20.312 C60.594,20.289 60.548,20.266 60.502,20.243 C60.478,20.150 60.455,20.058 60.432,19.966 C60.386,19.942 60.340,19.919 60.294,19.896 C60.294,19.850 60.294,19.804 60.294,19.758 C60.248,19.735 60.201,19.712 60.155,19.688 C60.155,19.642 60.155,19.596 60.155,19.550 C60.109,19.527 60.063,19.504 60.017,19.481 C60.017,19.434 60.017,19.388 60.017,19.342 C59.971,19.319 59.924,19.296 59.878,19.273 C59.878,19.226 59.878,19.180 59.878,19.134 C59.855,19.134 59.832,19.134 59.809,19.134 C59.786,19.065 59.763,18.995 59.740,18.926 C59.694,18.903 59.647,18.880 59.601,18.857 C59.601,18.811 59.601,18.765 59.601,18.718 C59.555,18.695 59.509,18.672 59.463,18.649 C59.463,18.603 59.463,18.557 59.463,18.510 C59.394,18.464 59.324,18.418 59.255,18.372 C59.255,18.326 59.255,18.280 59.255,18.233 C59.186,18.187 59.116,18.141 59.047,18.095 C59.047,18.049 59.047,18.002 59.047,17.956 C58.978,17.910 58.909,17.864 58.839,17.818 C58.839,17.771 58.839,17.725 58.839,17.679 C58.770,17.633 58.701,17.587 58.632,17.540 C58.632,17.494 58.632,17.448 58.632,17.402 C58.539,17.333 58.447,17.263 58.355,17.194 C58.355,17.148 58.355,17.102 58.355,17.055 C58.262,16.986 58.170,16.917 58.078,16.848 C58.078,16.801 58.078,16.755 58.078,16.709 C57.962,16.617 57.847,16.524 57.731,16.432 C57.731,16.386 57.731,16.340 57.731,16.293 C57.524,16.109 57.316,15.924 57.108,15.739 C57.108,15.693 57.108,15.647 57.108,15.600 C56.923,15.439 56.739,15.277 56.554,15.115 C56.162,14.700 55.769,14.284 55.377,13.868 C55.331,13.868 55.284,13.868 55.238,13.868 C55.146,13.753 55.054,13.637 54.961,13.522 C54.892,13.476 54.823,13.429 54.754,13.383 C54.754,13.360 54.754,13.337 54.754,13.314 C54.707,13.314 54.661,13.314 54.615,13.314 C54.500,13.175 54.384,13.037 54.269,12.898 C54.223,12.898 54.176,12.898 54.130,12.898 C54.061,12.806 53.992,12.713 53.922,12.621 C53.876,12.621 53.830,12.621 53.784,12.621 C53.715,12.529 53.645,12.436 53.576,12.344 C53.530,12.344 53.484,12.344 53.438,12.344 C53.368,12.252 53.299,12.159 53.230,12.067 C53.184,12.067 53.138,12.067 53.091,12.067 C53.045,11.997 52.999,11.928 52.953,11.859 C52.907,11.859 52.861,11.859 52.814,11.859 C52.791,11.813 52.768,11.767 52.745,11.720 C52.699,11.720 52.653,11.720 52.607,11.720 C52.561,11.651 52.514,11.582 52.468,11.513 C52.422,11.513 52.376,11.513 52.330,11.513 C52.307,11.466 52.283,11.420 52.260,11.374 C52.191,11.351 52.122,11.328 52.053,11.305 C52.053,11.282 52.053,11.258 52.053,11.235 C52.007,11.235 51.960,11.235 51.914,11.235 C51.891,11.189 51.868,11.143 51.845,11.097 C51.799,11.097 51.753,11.097 51.706,11.097 C51.683,11.051 51.660,11.004 51.637,10.958 C51.591,10.958 51.545,10.958 51.499,10.958 C51.475,10.912 51.452,10.866 51.429,10.820 C51.383,10.820 51.337,10.820 51.291,10.820 C51.268,10.773 51.245,10.727 51.222,10.681 C51.175,10.681 51.129,10.681 51.083,10.681 C51.060,10.635 51.037,10.589 51.014,10.542 C50.921,10.519 50.829,10.496 50.737,10.473 C50.714,10.427 50.691,10.381 50.668,10.335 C50.575,10.311 50.483,10.288 50.390,10.265 C50.367,10.219 50.344,10.173 50.321,10.127 C50.183,10.081 50.044,10.034 49.906,9.988 C49.883,9.942 49.860,9.896 49.836,9.850 C49.790,9.850 49.744,9.850 49.698,9.850 C49.698,9.827 49.698,9.803 49.698,9.780 C49.652,9.780 49.606,9.780 49.560,9.780 C49.560,9.757 49.560,9.734 49.560,9.711 C49.513,9.711 49.467,9.711 49.421,9.711 C49.421,9.688 49.421,9.665 49.421,9.642 C49.375,9.642 49.329,9.642 49.282,9.642 C49.259,9.596 49.236,9.549 49.213,9.503 C49.167,9.503 49.121,9.503 49.075,9.503 C49.075,9.480 49.075,9.457 49.075,9.434 C49.029,9.434 48.982,9.434 48.936,9.434 C48.936,9.411 48.936,9.388 48.936,9.365 C48.890,9.365 48.844,9.365 48.798,9.365 C48.798,9.341 48.798,9.318 48.798,9.295 C48.752,9.295 48.705,9.295 48.659,9.295 C48.659,9.272 48.659,9.249 48.659,9.226 C48.613,9.226 48.567,9.226 48.521,9.226 C48.521,9.203 48.521,9.180 48.521,9.157 C48.475,9.157 48.428,9.157 48.382,9.157 C48.382,9.134 48.382,9.111 48.382,9.087 C48.244,9.041 48.105,8.995 47.967,8.949 C47.967,8.926 47.967,8.903 47.967,8.880 C47.897,8.880 47.828,8.880 47.759,8.880 C47.759,8.856 47.759,8.833 47.759,8.810 C47.713,8.810 47.667,8.810 47.620,8.810 C47.620,8.787 47.620,8.764 47.620,8.741 C47.482,8.695 47.343,8.649 47.205,8.602 C47.205,8.579 47.205,8.556 47.205,8.533 C47.136,8.533 47.066,8.533 46.997,8.533 C46.997,8.510 46.997,8.487 46.997,8.464 C46.951,8.464 46.905,8.464 46.859,8.464 C46.859,8.441 46.859,8.418 46.859,8.395 C46.789,8.395 46.720,8.395 46.651,8.395 C46.651,8.371 46.651,8.348 46.651,8.325 C46.559,8.302 46.466,8.279 46.374,8.256 C46.374,8.233 46.374,8.210 46.374,8.187 C46.235,8.164 46.097,8.141 45.958,8.117 C42.859,6.765 39.017,6.138 34.601,6.108 ZM33.700,14.284 C34.901,14.284 36.101,14.284 37.302,14.284 C37.302,15.993 37.302,17.702 37.302,19.411 C38.086,19.504 38.871,19.596 39.656,19.688 C39.656,19.712 39.656,19.735 39.656,19.758 C40.002,19.804 40.349,19.850 40.695,19.896 C41.457,20.150 42.219,20.404 42.980,20.658 C42.980,20.681 42.980,20.705 42.980,20.728 C43.119,20.774 43.257,20.820 43.396,20.866 C43.396,20.889 43.396,20.912 43.396,20.936 C43.442,20.936 43.488,20.936 43.534,20.936 C43.534,20.959 43.534,20.982 43.534,21.005 C43.604,21.005 43.673,21.005 43.742,21.005 C43.765,21.051 43.788,21.097 43.812,21.143 C43.950,21.190 44.088,21.236 44.227,21.282 C44.250,21.328 44.273,21.374 44.296,21.421 C44.389,21.444 44.481,21.467 44.573,21.490 C44.596,21.536 44.619,21.582 44.642,21.628 C44.689,21.628 44.735,21.628 44.781,21.628 C44.827,21.698 44.873,21.767 44.920,21.836 C44.966,21.836 45.012,21.836 45.058,21.836 C45.104,21.906 45.150,21.975 45.196,22.044 C45.346,22.151 45.479,22.188 45.612,22.321 C45.820,22.528 45.976,22.790 46.235,22.945 C46.235,22.968 46.235,22.991 46.235,23.014 C46.212,23.014 46.189,23.014 46.166,23.014 C46.028,23.315 45.764,23.551 45.543,23.776 C45.474,23.823 45.404,23.869 45.335,23.915 C45.335,23.961 45.335,24.007 45.335,24.053 C45.058,24.308 44.781,24.562 44.504,24.816 C44.504,24.862 44.504,24.908 44.504,24.954 C44.366,25.070 44.227,25.185 44.088,25.301 C44.019,25.393 43.950,25.485 43.881,25.578 C43.835,25.601 43.788,25.624 43.742,25.647 C43.742,25.693 43.742,25.739 43.742,25.786 C43.581,25.924 43.419,26.063 43.257,26.201 C42.969,26.491 42.701,27.109 42.219,27.171 C42.062,26.907 41.843,26.854 41.595,26.686 C41.572,26.640 41.549,26.594 41.526,26.548 C41.480,26.548 41.434,26.548 41.388,26.548 C41.365,26.502 41.341,26.455 41.318,26.409 C41.272,26.409 41.226,26.409 41.180,26.409 C41.157,26.363 41.134,26.317 41.111,26.271 C41.018,26.248 40.926,26.225 40.834,26.201 C40.811,26.155 40.787,26.109 40.764,26.063 C40.718,26.063 40.672,26.063 40.626,26.063 C40.626,26.040 40.626,26.017 40.626,25.994 C40.580,25.994 40.533,25.994 40.487,25.994 C40.487,25.970 40.487,25.947 40.487,25.924 C40.418,25.924 40.349,25.924 40.280,25.924 C40.280,25.901 40.280,25.878 40.280,25.855 C40.187,25.832 40.095,25.809 40.002,25.786 C40.002,25.763 40.002,25.739 40.002,25.716 C39.933,25.716 39.864,25.716 39.795,25.716 C39.795,25.693 39.795,25.670 39.795,25.647 C39.726,25.647 39.656,25.647 39.587,25.647 C39.587,25.624 39.587,25.601 39.587,25.578 C39.518,25.578 39.448,25.578 39.379,25.578 C39.379,25.555 39.379,25.532 39.379,25.509 C39.287,25.509 39.194,25.509 39.102,25.509 C39.102,25.485 39.102,25.462 39.102,25.439 C38.987,25.439 38.871,25.439 38.756,25.439 C37.858,25.169 35.286,25.081 34.324,25.370 C34.047,25.416 33.770,25.462 33.493,25.509 C33.493,25.532 33.493,25.555 33.493,25.578 C33.400,25.601 33.308,25.624 33.216,25.647 C33.216,25.670 33.216,25.693 33.216,25.716 C33.077,25.763 32.939,25.809 32.800,25.855 C32.777,25.901 32.754,25.947 32.731,25.994 C32.685,25.994 32.639,25.994 32.592,25.994 C32.523,26.086 32.454,26.178 32.385,26.271 C32.269,26.363 32.154,26.455 32.038,26.548 C32.038,26.594 32.038,26.640 32.038,26.686 C31.992,26.709 31.946,26.733 31.900,26.756 C31.797,26.922 31.588,27.741 31.692,28.072 C31.715,28.072 31.738,28.072 31.761,28.072 C31.761,28.141 31.761,28.211 31.761,28.280 C31.784,28.280 31.807,28.280 31.831,28.280 C31.831,28.349 31.831,28.419 31.831,28.488 C31.854,28.488 31.877,28.488 31.900,28.488 C31.900,28.534 31.900,28.580 31.900,28.626 C31.946,28.650 31.992,28.673 32.038,28.696 C32.038,28.742 32.038,28.788 32.038,28.834 C32.154,28.927 32.269,29.019 32.385,29.111 C32.408,29.158 32.431,29.204 32.454,29.250 C32.500,29.250 32.546,29.250 32.592,29.250 C32.616,29.296 32.639,29.342 32.662,29.389 C32.731,29.412 32.800,29.435 32.869,29.458 C32.869,29.481 32.869,29.504 32.869,29.527 C32.962,29.550 33.054,29.573 33.146,29.596 C33.146,29.620 33.146,29.643 33.146,29.666 C33.285,29.712 33.423,29.758 33.562,29.804 C33.562,29.827 33.562,29.851 33.562,29.874 C33.631,29.874 33.700,29.874 33.770,29.874 C33.770,29.897 33.770,29.920 33.770,29.943 C33.816,29.943 33.862,29.943 33.908,29.943 C33.908,29.966 33.908,29.989 33.908,30.012 C33.977,30.012 34.047,30.012 34.116,30.012 C34.116,30.035 34.116,30.058 34.116,30.081 C34.162,30.081 34.208,30.081 34.254,30.081 C34.254,30.105 34.254,30.128 34.254,30.151 C34.324,30.151 34.393,30.151 34.462,30.151 C34.462,30.174 34.462,30.197 34.462,30.220 C34.508,30.220 34.555,30.220 34.601,30.220 C34.601,30.243 34.601,30.266 34.601,30.289 C34.670,30.289 34.739,30.289 34.808,30.289 C34.808,30.312 34.808,30.336 34.808,30.359 C34.878,30.359 34.947,30.359 35.016,30.359 C35.016,30.382 35.016,30.405 35.016,30.428 C35.085,30.428 35.155,30.428 35.224,30.428 C35.224,30.451 35.224,30.474 35.224,30.497 C35.432,30.543 35.640,30.590 35.847,30.636 C35.847,30.659 35.847,30.682 35.847,30.705 C35.917,30.705 35.986,30.705 36.055,30.705 C36.055,30.728 36.055,30.751 36.055,30.774 C36.124,30.774 36.194,30.774 36.263,30.774 C36.263,30.797 36.263,30.821 36.263,30.844 C36.494,30.890 36.725,30.936 36.955,30.982 C36.955,31.005 36.955,31.028 36.955,31.052 C37.117,31.075 37.279,31.098 37.440,31.121 C37.440,31.144 37.440,31.167 37.440,31.190 C37.763,31.259 38.086,31.329 38.410,31.398 C38.410,31.421 38.410,31.444 38.410,31.467 C38.594,31.490 38.779,31.513 38.964,31.537 C38.964,31.560 38.964,31.583 38.964,31.606 C39.033,31.606 39.102,31.606 39.171,31.606 C39.171,31.629 39.171,31.652 39.171,31.675 C39.241,31.675 39.310,31.675 39.379,31.675 C39.379,31.698 39.379,31.721 39.379,31.744 C39.472,31.744 39.564,31.744 39.656,31.744 C41.755,32.498 43.679,33.255 45.335,34.447 C45.497,34.631 45.658,34.816 45.820,35.001 C46.004,35.163 46.189,35.324 46.374,35.486 C46.374,35.532 46.374,35.578 46.374,35.624 C46.443,35.671 46.512,35.717 46.582,35.763 C46.582,35.809 46.582,35.855 46.582,35.902 C46.628,35.925 46.674,35.948 46.720,35.971 C46.743,36.040 46.766,36.109 46.789,36.179 C46.812,36.179 46.835,36.179 46.859,36.179 C46.905,36.317 46.951,36.456 46.997,36.594 C47.043,36.618 47.089,36.641 47.136,36.664 C47.159,36.779 47.182,36.895 47.205,37.010 C47.228,37.010 47.251,37.010 47.274,37.010 C47.297,37.103 47.320,37.195 47.343,37.287 C47.366,37.287 47.389,37.287 47.413,37.287 C47.436,37.403 47.459,37.518 47.482,37.634 C47.505,37.634 47.528,37.634 47.551,37.634 C47.690,38.211 47.828,38.789 47.967,39.366 C47.967,39.574 47.967,39.782 47.967,39.990 C48.251,41.011 47.947,43.035 47.690,43.800 C47.620,44.101 47.551,44.401 47.482,44.701 C46.767,46.357 45.810,47.795 44.435,48.789 C44.319,48.928 44.204,49.066 44.088,49.205 C44.042,49.205 43.996,49.205 43.950,49.205 C43.904,49.274 43.858,49.343 43.812,49.413 C43.765,49.413 43.719,49.413 43.673,49.413 C43.627,49.482 43.581,49.551 43.534,49.620 C43.488,49.620 43.442,49.620 43.396,49.620 C43.373,49.667 43.350,49.713 43.327,49.759 C43.257,49.782 43.188,49.805 43.119,49.828 C43.119,49.851 43.119,49.875 43.119,49.898 C43.073,49.898 43.027,49.898 42.980,49.898 C42.957,49.944 42.934,49.990 42.911,50.036 C42.865,50.036 42.819,50.036 42.773,50.036 C42.750,50.082 42.726,50.129 42.703,50.175 C42.657,50.175 42.611,50.175 42.565,50.175 C42.542,50.221 42.519,50.267 42.496,50.313 C42.449,50.313 42.403,50.313 42.357,50.313 C42.357,50.336 42.357,50.360 42.357,50.383 C42.311,50.383 42.265,50.383 42.219,50.383 C42.219,50.406 42.219,50.429 42.219,50.452 C42.172,50.452 42.126,50.452 42.080,50.452 C42.080,50.475 42.080,50.498 42.080,50.521 C42.034,50.521 41.988,50.521 41.942,50.521 C41.942,50.544 41.942,50.567 41.942,50.591 C41.895,50.591 41.849,50.591 41.803,50.591 C40.601,51.232 39.133,51.759 37.302,51.768 C37.302,53.408 37.302,55.048 37.302,56.688 C36.101,56.688 34.901,56.688 33.700,56.688 C33.700,55.002 33.700,53.316 33.700,51.630 C30.898,51.193 28.335,50.532 26.360,49.274 C26.267,49.251 26.175,49.228 26.083,49.205 C26.083,49.182 26.083,49.159 26.083,49.136 C26.013,49.112 25.944,49.089 25.875,49.066 C25.852,49.020 25.829,48.974 25.805,48.928 C25.759,48.928 25.713,48.928 25.667,48.928 C25.621,48.858 25.575,48.789 25.529,48.720 C25.482,48.720 25.436,48.720 25.390,48.720 C25.298,48.604 25.205,48.489 25.113,48.373 C25.067,48.373 25.021,48.373 24.975,48.373 C24.882,48.258 24.790,48.142 24.697,48.027 C24.651,48.004 24.605,47.981 24.559,47.958 C24.559,47.911 24.559,47.865 24.559,47.819 C24.513,47.796 24.467,47.773 24.421,47.750 C24.257,47.572 24.034,47.289 24.005,46.988 C24.190,46.826 24.374,46.664 24.559,46.503 C24.582,46.456 24.605,46.410 24.628,46.364 C24.674,46.364 24.721,46.364 24.767,46.364 C25.021,46.087 25.275,45.810 25.529,45.533 C25.575,45.533 25.621,45.533 25.667,45.533 C25.667,45.509 25.667,45.486 25.667,45.463 C25.736,45.417 25.806,45.371 25.875,45.325 C26.059,45.117 26.244,44.909 26.429,44.701 C26.475,44.701 26.521,44.701 26.567,44.701 C26.683,44.563 26.798,44.424 26.914,44.285 C27.006,44.216 27.098,44.147 27.191,44.078 C27.214,44.031 27.237,43.985 27.260,43.939 C27.306,43.939 27.352,43.939 27.398,43.939 C27.560,43.754 27.722,43.569 27.883,43.385 C28.056,43.213 28.308,43.114 28.437,42.900 C28.460,42.900 28.483,42.900 28.506,42.900 C28.506,42.923 28.506,42.946 28.506,42.969 C28.783,43.269 29.061,43.569 29.337,43.870 C29.384,43.870 29.430,43.870 29.476,43.870 C29.522,43.939 29.568,44.008 29.615,44.078 C29.661,44.078 29.707,44.078 29.753,44.078 C29.776,44.124 29.799,44.170 29.822,44.216 C29.868,44.216 29.915,44.216 29.961,44.216 C29.984,44.262 30.007,44.308 30.030,44.355 C30.122,44.378 30.215,44.401 30.307,44.424 C30.330,44.470 30.353,44.516 30.376,44.563 C30.422,44.563 30.469,44.563 30.515,44.563 C30.515,44.586 30.515,44.609 30.515,44.632 C30.561,44.632 30.607,44.632 30.653,44.632 C30.653,44.655 30.653,44.678 30.653,44.701 C30.723,44.701 30.792,44.701 30.861,44.701 C30.861,44.724 30.861,44.747 30.861,44.770 C30.907,44.770 30.953,44.770 30.999,44.770 C30.999,44.793 30.999,44.817 30.999,44.840 C31.092,44.863 31.184,44.886 31.277,44.909 C31.277,44.932 31.277,44.955 31.277,44.978 C31.415,45.001 31.554,45.024 31.692,45.048 C31.692,45.071 31.692,45.094 31.692,45.117 C31.761,45.117 31.831,45.117 31.900,45.117 C31.900,45.140 31.900,45.163 31.900,45.186 C31.969,45.186 32.038,45.186 32.108,45.186 C32.108,45.209 32.108,45.232 32.108,45.255 C32.177,45.255 32.246,45.255 32.315,45.255 C32.315,45.278 32.315,45.302 32.315,45.325 C32.408,45.325 32.500,45.325 32.592,45.325 C32.592,45.348 32.592,45.371 32.592,45.394 C32.685,45.394 32.777,45.394 32.869,45.394 C32.869,45.417 32.869,45.440 32.869,45.463 C32.985,45.463 33.100,45.463 33.216,45.463 C33.216,45.486 33.216,45.509 33.216,45.533 C33.331,45.533 33.446,45.533 33.562,45.533 C33.562,45.556 33.562,45.579 33.562,45.602 C33.724,45.602 33.885,45.602 34.047,45.602 C34.047,45.625 34.047,45.648 34.047,45.671 C34.231,45.671 34.416,45.671 34.601,45.671 C34.601,45.694 34.601,45.717 34.601,45.740 C34.924,45.740 35.247,45.740 35.570,45.740 C35.570,45.764 35.570,45.787 35.570,45.810 C36.194,45.787 36.817,45.764 37.440,45.740 C37.440,45.717 37.440,45.694 37.440,45.671 C37.763,45.648 38.086,45.625 38.410,45.602 C38.964,45.417 39.518,45.232 40.072,45.048 C40.095,45.001 40.118,44.955 40.141,44.909 C40.187,44.909 40.233,44.909 40.280,44.909 C40.326,44.840 40.372,44.770 40.418,44.701 C40.441,44.701 40.464,44.701 40.487,44.701 C40.487,44.655 40.487,44.609 40.487,44.563 C40.557,44.516 40.626,44.470 40.695,44.424 C40.718,44.332 40.741,44.239 40.764,44.147 C40.787,44.147 40.811,44.147 40.834,44.147 C40.834,44.078 40.834,44.008 40.834,43.939 C40.857,43.939 40.880,43.939 40.903,43.939 C40.903,43.870 40.903,43.800 40.903,43.731 C40.926,43.731 40.949,43.731 40.972,43.731 C40.972,43.662 40.972,43.592 40.972,43.523 C40.995,43.523 41.018,43.523 41.041,43.523 C41.041,43.408 41.041,43.292 41.041,43.177 C41.064,43.177 41.087,43.177 41.111,43.177 C41.111,42.992 41.111,42.807 41.111,42.623 C41.134,42.623 41.157,42.623 41.180,42.623 C41.257,42.348 41.113,41.333 41.041,41.167 C40.835,40.689 40.416,40.401 40.072,40.059 C40.003,39.966 39.933,39.874 39.864,39.782 C39.818,39.782 39.772,39.782 39.726,39.782 C39.679,39.712 39.633,39.643 39.587,39.574 C39.541,39.574 39.495,39.574 39.448,39.574 C39.425,39.528 39.402,39.481 39.379,39.435 C39.287,39.412 39.194,39.389 39.102,39.366 C39.079,39.320 39.056,39.274 39.033,39.227 C38.987,39.227 38.941,39.227 38.894,39.227 C38.894,39.204 38.894,39.181 38.894,39.158 C38.802,39.135 38.710,39.112 38.617,39.089 C38.617,39.066 38.617,39.043 38.617,39.020 C38.456,38.996 38.294,38.973 38.133,38.950 C38.133,38.927 38.133,38.904 38.133,38.881 C37.786,38.812 37.440,38.742 37.094,38.673 C37.094,38.650 37.094,38.627 37.094,38.604 C36.863,38.558 36.632,38.511 36.401,38.465 C36.401,38.442 36.401,38.419 36.401,38.396 C36.240,38.373 36.078,38.350 35.917,38.327 C35.917,38.304 35.917,38.280 35.917,38.257 C35.847,38.257 35.778,38.257 35.709,38.257 C35.709,38.234 35.709,38.211 35.709,38.188 C35.640,38.188 35.570,38.188 35.501,38.188 C35.501,38.165 35.501,38.142 35.501,38.119 C35.409,38.119 35.316,38.119 35.224,38.119 C35.224,38.096 35.224,38.073 35.224,38.050 C35.178,38.050 35.132,38.050 35.085,38.050 C35.085,38.026 35.085,38.003 35.085,37.980 C34.785,37.911 34.485,37.842 34.185,37.772 C34.185,37.749 34.185,37.726 34.185,37.703 C34.139,37.703 34.093,37.703 34.047,37.703 C34.047,37.680 34.047,37.657 34.047,37.634 C33.977,37.634 33.908,37.634 33.839,37.634 C33.839,37.611 33.839,37.588 33.839,37.565 C33.770,37.565 33.700,37.565 33.631,37.565 C33.631,37.541 33.631,37.518 33.631,37.495 C33.562,37.495 33.493,37.495 33.423,37.495 C33.423,37.472 33.423,37.449 33.423,37.426 C33.354,37.426 33.285,37.426 33.216,37.426 C33.216,37.403 33.216,37.380 33.216,37.357 C33.146,37.357 33.077,37.357 33.008,37.357 C33.008,37.334 33.008,37.310 33.008,37.287 C32.962,37.287 32.916,37.287 32.869,37.287 C32.869,37.264 32.869,37.241 32.869,37.218 C32.731,37.195 32.592,37.172 32.454,37.149 C32.454,37.126 32.454,37.103 32.454,37.079 C32.338,37.056 32.223,37.033 32.108,37.010 C32.108,36.987 32.108,36.964 32.108,36.941 C32.061,36.941 32.015,36.941 31.969,36.941 C31.969,36.918 31.969,36.895 31.969,36.872 C31.900,36.872 31.831,36.872 31.761,36.872 C31.761,36.849 31.761,36.825 31.761,36.802 C31.715,36.802 31.669,36.802 31.623,36.802 C31.623,36.779 31.623,36.756 31.623,36.733 C31.554,36.733 31.484,36.733 31.415,36.733 C31.415,36.710 31.415,36.687 31.415,36.664 C31.323,36.641 31.230,36.618 31.138,36.594 C31.138,36.571 31.138,36.548 31.138,36.525 C31.092,36.525 31.046,36.525 30.999,36.525 C30.999,36.502 30.999,36.479 30.999,36.456 C30.930,36.456 30.861,36.456 30.792,36.456 C30.792,36.433 30.792,36.410 30.792,36.387 C30.746,36.387 30.699,36.387 30.653,36.387 C30.653,36.364 30.653,36.340 30.653,36.317 C30.515,36.271 30.376,36.225 30.238,36.179 C30.238,36.156 30.238,36.133 30.238,36.109 C30.169,36.109 30.099,36.109 30.030,36.109 C30.030,36.086 30.030,36.063 30.030,36.040 C29.891,35.994 29.753,35.948 29.615,35.902 C29.615,35.879 29.615,35.855 29.615,35.832 C29.522,35.809 29.430,35.786 29.337,35.763 C29.314,35.717 29.291,35.671 29.268,35.624 C29.222,35.624 29.176,35.624 29.130,35.624 C29.130,35.601 29.130,35.578 29.130,35.555 C29.084,35.555 29.037,35.555 28.991,35.555 C28.991,35.532 28.991,35.509 28.991,35.486 C28.945,35.486 28.899,35.486 28.853,35.486 C28.853,35.463 28.853,35.440 28.853,35.417 C28.807,35.417 28.760,35.417 28.714,35.417 C28.691,35.370 28.668,35.324 28.645,35.278 C28.553,35.255 28.460,35.232 28.368,35.209 C28.345,35.163 28.322,35.116 28.299,35.070 C28.252,35.070 28.206,35.070 28.160,35.070 C28.160,35.047 28.160,35.024 28.160,35.001 C28.091,34.978 28.022,34.955 27.952,34.932 C27.929,34.885 27.906,34.839 27.883,34.793 C27.837,34.793 27.791,34.793 27.745,34.793 C27.698,34.724 27.652,34.654 27.606,34.585 C27.560,34.585 27.514,34.585 27.468,34.585 C27.352,34.447 27.237,34.308 27.121,34.169 C27.075,34.169 27.029,34.169 26.983,34.169 C26.844,34.008 26.706,33.846 26.567,33.684 C26.498,33.638 26.429,33.592 26.360,33.546 C26.360,33.500 26.360,33.453 26.360,33.407 C26.267,33.338 26.175,33.269 26.083,33.199 C26.083,33.153 26.083,33.107 26.083,33.061 C26.036,33.038 25.990,33.015 25.944,32.992 C25.921,32.922 25.898,32.853 25.875,32.784 C25.852,32.784 25.829,32.784 25.805,32.784 C25.805,32.738 25.805,32.691 25.805,32.645 C25.782,32.645 25.759,32.645 25.736,32.645 C25.690,32.507 25.644,32.368 25.598,32.229 C25.575,32.229 25.552,32.229 25.529,32.229 C25.505,32.091 25.482,31.952 25.459,31.814 C25.436,31.814 25.413,31.814 25.390,31.814 C25.367,31.629 25.344,31.444 25.321,31.259 C25.298,31.259 25.275,31.259 25.251,31.259 C25.228,30.821 25.205,30.382 25.182,29.943 C25.159,29.943 25.136,29.943 25.113,29.943 C25.023,29.619 25.117,28.373 25.182,28.141 C25.182,27.841 25.182,27.541 25.182,27.241 C25.205,27.241 25.228,27.241 25.251,27.241 C25.251,27.079 25.251,26.917 25.251,26.756 C25.275,26.756 25.298,26.756 25.321,26.756 C25.321,26.640 25.321,26.525 25.321,26.409 C25.344,26.409 25.367,26.409 25.390,26.409 C25.390,26.294 25.390,26.178 25.390,26.063 C25.413,26.063 25.436,26.063 25.459,26.063 C25.459,25.970 25.459,25.878 25.459,25.786 C25.482,25.786 25.505,25.786 25.529,25.786 C25.529,25.716 25.529,25.647 25.529,25.578 C25.552,25.578 25.575,25.578 25.598,25.578 C25.621,25.416 25.644,25.254 25.667,25.093 C25.690,25.093 25.713,25.093 25.736,25.093 C25.736,25.047 25.736,25.000 25.736,24.954 C25.759,24.954 25.782,24.954 25.805,24.954 C25.805,24.885 25.805,24.816 25.805,24.746 C25.829,24.746 25.852,24.746 25.875,24.746 C25.875,24.700 25.875,24.654 25.875,24.608 C25.898,24.608 25.921,24.608 25.944,24.608 C25.944,24.539 25.944,24.469 25.944,24.400 C25.967,24.400 25.990,24.400 26.013,24.400 C26.036,24.308 26.059,24.215 26.083,24.123 C26.106,24.123 26.129,24.123 26.152,24.123 C26.175,24.030 26.198,23.938 26.221,23.846 C26.267,23.823 26.313,23.799 26.360,23.776 C26.383,23.684 26.406,23.592 26.429,23.499 C26.475,23.476 26.521,23.453 26.567,23.430 C26.567,23.384 26.567,23.338 26.567,23.291 C26.590,23.291 26.614,23.291 26.637,23.291 C26.660,23.222 26.683,23.153 26.706,23.083 C26.752,23.060 26.798,23.037 26.844,23.014 C26.844,22.968 26.844,22.922 26.844,22.876 C26.937,22.806 27.029,22.737 27.121,22.668 C27.121,22.622 27.121,22.575 27.121,22.529 C27.329,22.344 27.537,22.160 27.745,21.975 C27.814,21.882 27.883,21.790 27.952,21.698 C27.999,21.698 28.045,21.698 28.091,21.698 C28.160,21.605 28.229,21.513 28.299,21.421 C28.368,21.397 28.437,21.374 28.506,21.351 C28.530,21.305 28.553,21.259 28.576,21.213 C28.622,21.213 28.668,21.213 28.714,21.213 C28.737,21.167 28.760,21.120 28.783,21.074 C28.876,21.051 28.968,21.028 29.060,21.005 C29.084,20.959 29.107,20.912 29.130,20.866 C29.222,20.843 29.314,20.820 29.407,20.797 C29.430,20.751 29.453,20.705 29.476,20.658 C29.684,20.589 29.891,20.520 30.099,20.451 C30.099,20.427 30.099,20.404 30.099,20.381 C30.192,20.358 30.284,20.335 30.376,20.312 C30.376,20.289 30.376,20.266 30.376,20.243 C30.445,20.243 30.515,20.243 30.584,20.243 C30.584,20.220 30.584,20.196 30.584,20.173 C30.630,20.173 30.676,20.173 30.723,20.173 C30.723,20.150 30.723,20.127 30.723,20.104 C31.023,20.035 31.323,19.966 31.623,19.896 C32.193,19.704 32.983,19.499 33.700,19.481 C33.700,17.749 33.700,16.016 33.700,14.284 Z"/>
</svg>