<svg 
 xmlns="http://www.w3.org/2000/svg"
 xmlns:xlink="http://www.w3.org/1999/xlink"
 width="67px" height="67px">
<path fill-rule="evenodd"  fill="rgb(247, 247, 248)"
 d="M16.778,0.854 C16.869,1.190 16.891,0.953 17.024,1.100 C16.997,1.155 16.969,1.210 16.942,1.265 C17.024,1.320 17.107,1.375 17.189,1.429 C17.189,1.484 17.189,1.539 17.189,1.594 C17.244,1.621 17.298,1.649 17.353,1.676 C17.381,1.786 17.408,1.896 17.436,2.005 C17.463,2.005 17.490,2.005 17.518,2.005 C17.545,2.115 17.573,2.225 17.600,2.334 C17.627,2.334 17.655,2.334 17.682,2.334 C18.088,3.244 17.929,5.306 17.929,6.613 C17.929,7.134 17.929,7.655 17.929,8.176 C17.792,8.587 17.655,8.998 17.518,9.410 C17.463,9.437 17.408,9.465 17.353,9.492 C17.326,9.602 17.298,9.711 17.271,9.821 C17.216,9.849 17.161,9.876 17.107,9.903 C17.107,9.958 17.107,10.013 17.107,10.068 C16.959,10.279 16.791,10.205 16.695,10.562 C16.446,10.596 16.432,10.613 16.284,10.726 C16.284,10.754 16.284,10.781 16.284,10.808 C16.229,10.808 16.174,10.808 16.120,10.808 C16.120,10.836 16.120,10.863 16.120,10.891 C16.065,10.891 16.010,10.891 15.955,10.891 C15.928,10.946 15.900,11.000 15.873,11.055 C15.791,11.055 15.708,11.055 15.626,11.055 C15.626,11.083 15.626,11.110 15.626,11.137 C15.544,11.137 15.462,11.137 15.379,11.137 C15.379,11.165 15.379,11.192 15.379,11.220 C15.270,11.220 15.160,11.220 15.050,11.220 C15.050,11.247 15.050,11.275 15.050,11.302 C14.670,11.420 13.721,11.240 13.488,11.137 C13.488,11.110 13.488,11.083 13.488,11.055 C13.378,11.028 13.269,11.000 13.159,10.973 C13.159,10.946 13.159,10.918 13.159,10.891 C13.104,10.891 13.049,10.891 12.994,10.891 C12.967,10.836 12.940,10.781 12.912,10.726 C12.857,10.726 12.803,10.726 12.748,10.726 C12.665,10.616 12.583,10.507 12.501,10.397 C12.419,10.370 12.336,10.342 12.254,10.315 C12.254,10.260 12.254,10.205 12.254,10.150 C12.145,10.068 12.035,9.986 11.925,9.903 C11.925,9.849 11.925,9.794 11.925,9.739 C11.870,9.711 11.816,9.684 11.761,9.657 C11.761,9.602 11.761,9.547 11.761,9.492 C11.733,9.492 11.706,9.492 11.678,9.492 C11.624,9.328 11.569,9.163 11.514,8.998 C11.487,8.998 11.459,8.998 11.432,8.998 C11.377,8.669 11.322,8.340 11.267,8.011 C11.240,8.011 11.212,8.011 11.185,8.011 C11.185,7.024 11.185,6.037 11.185,5.049 C11.185,4.444 11.120,3.626 11.267,3.157 C11.267,3.020 11.267,2.883 11.267,2.746 C11.295,2.746 11.322,2.746 11.349,2.746 C11.349,2.691 11.349,2.636 11.349,2.581 C11.377,2.581 11.404,2.581 11.432,2.581 C11.432,2.499 11.432,2.417 11.432,2.334 C11.459,2.334 11.487,2.334 11.514,2.334 C11.514,2.280 11.514,2.225 11.514,2.170 C11.541,2.170 11.569,2.170 11.596,2.170 C11.651,2.005 11.706,1.841 11.761,1.676 C11.965,1.355 12.315,1.117 12.583,0.854 C12.638,0.771 12.693,0.689 12.748,0.607 C12.803,0.607 12.857,0.607 12.912,0.607 C12.940,0.552 12.967,0.497 12.994,0.442 C13.049,0.442 13.104,0.442 13.159,0.442 C13.159,0.415 13.159,0.387 13.159,0.360 C13.269,0.332 13.378,0.305 13.488,0.278 C13.488,0.250 13.488,0.223 13.488,0.195 C13.704,0.101 14.633,-0.070 14.968,0.031 C14.968,0.058 14.968,0.086 14.968,0.113 C15.105,0.113 15.242,0.113 15.379,0.113 C15.379,0.141 15.379,0.168 15.379,0.195 C15.462,0.195 15.544,0.195 15.626,0.195 C15.626,0.223 15.626,0.250 15.626,0.278 C15.681,0.278 15.736,0.278 15.791,0.278 C15.791,0.305 15.791,0.332 15.791,0.360 C15.873,0.387 15.955,0.415 16.037,0.442 C16.037,0.415 16.037,0.387 16.037,0.360 C16.065,0.360 16.092,0.360 16.120,0.360 C16.120,0.415 16.120,0.470 16.120,0.524 C16.202,0.552 16.284,0.579 16.366,0.607 C16.366,0.634 16.366,0.662 16.366,0.689 C16.510,0.804 16.531,0.820 16.778,0.854 ZM51.731,0.113 C52.197,0.113 52.663,0.113 53.129,0.113 C53.129,0.141 53.129,0.168 53.129,0.195 C53.294,0.223 53.458,0.250 53.623,0.278 C53.623,0.305 53.623,0.332 53.623,0.360 C53.787,0.415 53.952,0.470 54.116,0.524 C54.171,0.607 54.226,0.689 54.280,0.771 C54.335,0.771 54.390,0.771 54.445,0.771 C54.472,0.826 54.500,0.881 54.527,0.936 C54.664,1.045 54.801,1.155 54.938,1.265 C54.938,1.320 54.938,1.375 54.938,1.429 C54.993,1.457 55.048,1.484 55.103,1.512 C55.103,1.567 55.103,1.621 55.103,1.676 C55.158,1.704 55.213,1.731 55.267,1.759 C55.267,1.813 55.267,1.868 55.267,1.923 C55.295,1.923 55.322,1.923 55.350,1.923 C55.377,2.033 55.405,2.142 55.432,2.252 C55.459,2.252 55.487,2.252 55.514,2.252 C55.569,2.554 55.624,2.856 55.679,3.157 C55.706,3.157 55.733,3.157 55.761,3.157 C55.761,4.007 55.761,4.858 55.761,5.708 C55.761,6.523 55.926,8.040 55.679,8.669 C55.651,8.669 55.624,8.669 55.596,8.669 C55.596,8.724 55.596,8.779 55.596,8.834 C55.569,8.834 55.542,8.834 55.514,8.834 C55.514,8.916 55.514,8.998 55.514,9.081 C55.487,9.081 55.459,9.081 55.432,9.081 C55.405,9.190 55.377,9.300 55.350,9.410 C55.322,9.410 55.295,9.410 55.267,9.410 C55.240,9.519 55.213,9.629 55.185,9.739 C55.130,9.766 55.076,9.794 55.021,9.821 C55.021,9.876 55.021,9.931 55.021,9.986 C54.911,10.068 54.801,10.150 54.692,10.232 C54.582,10.370 54.472,10.507 54.363,10.644 C54.308,10.644 54.253,10.644 54.198,10.644 C54.171,10.699 54.143,10.754 54.116,10.808 C54.061,10.808 54.006,10.808 53.952,10.808 C53.952,10.836 53.952,10.863 53.952,10.891 C53.787,10.946 53.623,11.000 53.458,11.055 C53.458,11.083 53.458,11.110 53.458,11.137 C53.348,11.137 53.239,11.137 53.129,11.137 C53.129,11.165 53.129,11.192 53.129,11.220 C52.992,11.220 52.855,11.220 52.718,11.220 C52.718,11.247 52.718,11.275 52.718,11.302 C52.526,11.302 52.334,11.302 52.142,11.302 C52.142,11.275 52.142,11.247 52.142,11.220 C51.978,11.220 51.813,11.220 51.649,11.220 C51.649,11.192 51.649,11.165 51.649,11.137 C51.567,11.137 51.484,11.137 51.402,11.137 C51.402,11.110 51.402,11.083 51.402,11.055 C51.238,11.000 51.073,10.946 50.908,10.891 C50.908,10.863 50.908,10.836 50.908,10.808 C50.854,10.808 50.799,10.808 50.744,10.808 C50.717,10.754 50.689,10.699 50.662,10.644 C50.607,10.644 50.552,10.644 50.497,10.644 C50.333,10.452 50.168,10.260 50.004,10.068 C49.949,10.041 49.894,10.013 49.839,9.986 C49.839,9.931 49.839,9.876 49.839,9.821 C49.785,9.794 49.730,9.766 49.675,9.739 C48.956,8.601 49.017,7.148 49.017,5.296 C49.017,4.686 48.960,3.879 49.099,3.404 C49.099,3.239 49.099,3.075 49.099,2.910 C49.127,2.910 49.154,2.910 49.181,2.910 C49.181,2.828 49.181,2.746 49.181,2.663 C49.209,2.663 49.236,2.663 49.264,2.663 C49.264,2.609 49.264,2.554 49.264,2.499 C49.291,2.499 49.318,2.499 49.346,2.499 C49.346,2.417 49.346,2.334 49.346,2.252 C49.373,2.252 49.401,2.252 49.428,2.252 C49.483,2.088 49.538,1.923 49.593,1.759 C49.620,1.759 49.647,1.759 49.675,1.759 C49.675,1.704 49.675,1.649 49.675,1.594 C49.757,1.539 49.839,1.484 49.922,1.429 C49.922,1.375 49.922,1.320 49.922,1.265 C50.031,1.183 50.141,1.100 50.251,1.018 C50.305,0.936 50.360,0.854 50.415,0.771 C50.470,0.771 50.525,0.771 50.580,0.771 C50.634,0.689 50.689,0.607 50.744,0.524 C50.799,0.524 50.854,0.524 50.908,0.524 C50.908,0.497 50.908,0.470 50.908,0.442 C51.073,0.387 51.238,0.332 51.402,0.278 C51.402,0.250 51.402,0.223 51.402,0.195 C51.512,0.195 51.621,0.195 51.731,0.195 C51.731,0.168 51.731,0.141 51.731,0.113 ZM9.951,4.473 C9.924,4.995 9.897,5.516 9.869,6.037 C9.869,6.832 9.869,7.627 9.869,8.423 C9.897,8.423 9.924,8.423 9.951,8.423 C9.951,8.560 9.951,8.697 9.951,8.834 C9.979,8.834 10.006,8.834 10.034,8.834 C10.034,8.971 10.034,9.108 10.034,9.245 C10.061,9.245 10.088,9.245 10.116,9.245 C10.116,9.328 10.116,9.410 10.116,9.492 C10.143,9.492 10.171,9.492 10.198,9.492 C10.198,9.574 10.198,9.657 10.198,9.739 C10.226,9.739 10.253,9.739 10.280,9.739 C10.335,9.903 10.390,10.068 10.445,10.232 C10.472,10.232 10.500,10.232 10.527,10.232 C10.554,10.342 10.582,10.452 10.609,10.562 C10.664,10.589 10.719,10.616 10.774,10.644 C10.774,10.699 10.774,10.754 10.774,10.808 C10.993,11.000 11.212,11.192 11.432,11.384 C11.514,11.494 11.596,11.604 11.678,11.713 C11.733,11.713 11.788,11.713 11.843,11.713 C11.870,11.768 11.898,11.823 11.925,11.878 C11.980,11.878 12.035,11.878 12.090,11.878 C12.117,11.933 12.144,11.988 12.172,12.042 C12.227,12.042 12.282,12.042 12.336,12.042 C12.336,12.070 12.336,12.097 12.336,12.125 C12.391,12.125 12.446,12.125 12.501,12.125 C12.501,12.152 12.501,12.180 12.501,12.207 C12.720,12.234 12.940,12.262 13.159,12.289 C13.493,12.397 14.576,12.705 15.133,12.536 C15.133,12.509 15.133,12.481 15.133,12.454 C15.297,12.454 15.462,12.454 15.626,12.454 C15.626,12.426 15.626,12.399 15.626,12.372 C15.681,12.372 15.736,12.372 15.791,12.372 C15.791,12.344 15.791,12.317 15.791,12.289 C15.846,12.317 15.900,12.344 15.955,12.372 C15.955,12.344 15.955,12.317 15.955,12.289 C16.010,12.289 16.065,12.289 16.120,12.289 C16.120,12.262 16.120,12.234 16.120,12.207 C16.229,12.207 16.339,12.207 16.449,12.207 C16.476,12.152 16.503,12.097 16.531,12.042 C16.586,12.042 16.641,12.042 16.695,12.042 C16.695,12.015 16.695,11.988 16.695,11.960 C16.832,11.933 16.969,11.905 17.107,11.878 C17.107,11.823 17.107,11.768 17.107,11.713 C17.600,11.589 17.652,11.130 18.176,11.055 C18.223,10.870 18.245,10.850 18.340,10.726 C18.368,10.726 18.395,10.726 18.422,10.726 C18.422,10.671 18.422,10.616 18.422,10.562 C18.450,10.562 18.477,10.562 18.505,10.562 C18.505,10.507 18.505,10.452 18.505,10.397 C18.559,10.370 18.614,10.342 18.669,10.315 C18.669,10.260 18.669,10.205 18.669,10.150 C18.697,10.150 18.724,10.150 18.751,10.150 C18.751,10.068 18.751,9.986 18.751,9.903 C18.779,9.903 18.806,9.903 18.834,9.903 C18.834,9.849 18.834,9.794 18.834,9.739 C18.861,9.739 18.888,9.739 18.916,9.739 C19.026,9.273 19.135,8.806 19.245,8.340 C19.245,7.380 19.245,6.421 19.245,5.461 C19.244,5.026 19.159,4.665 19.245,4.556 C19.451,4.377 20.801,4.473 21.219,4.473 C23.028,4.501 24.838,4.528 26.647,4.556 C27.186,4.556 27.883,4.587 28.292,4.473 C28.867,4.473 29.443,4.473 30.019,4.473 C31.170,4.473 32.322,4.473 33.473,4.473 C33.473,4.501 33.473,4.528 33.473,4.556 C33.720,4.556 33.966,4.556 34.213,4.556 C35.666,4.556 37.119,4.556 38.572,4.556 C38.572,4.528 38.572,4.501 38.572,4.473 C41.532,4.501 44.494,4.528 47.454,4.556 C47.427,5.515 47.399,6.476 47.372,7.435 C47.399,7.435 47.427,7.435 47.454,7.435 C47.454,7.572 47.454,7.710 47.454,7.847 C47.482,7.847 47.509,7.847 47.537,7.847 C47.509,7.929 47.482,8.011 47.454,8.093 C47.482,8.093 47.509,8.093 47.537,8.093 C47.537,8.231 47.537,8.368 47.537,8.505 C47.564,8.505 47.591,8.505 47.619,8.505 C47.619,8.642 47.619,8.779 47.619,8.916 C47.646,8.916 47.674,8.916 47.701,8.916 C47.701,8.944 47.701,8.971 47.701,8.998 C47.674,8.998 47.646,8.998 47.619,8.998 C47.619,9.026 47.619,9.053 47.619,9.081 C47.646,9.081 47.674,9.081 47.701,9.081 C47.701,9.136 47.701,9.190 47.701,9.245 C47.728,9.245 47.756,9.245 47.783,9.245 C47.783,9.355 47.783,9.465 47.783,9.574 C47.811,9.574 47.838,9.574 47.866,9.574 C47.866,9.629 47.866,9.684 47.866,9.739 C47.893,9.739 47.920,9.739 47.948,9.739 C47.948,9.821 47.948,9.903 47.948,9.986 C47.975,9.986 48.003,9.986 48.030,9.986 C48.057,10.095 48.085,10.205 48.112,10.315 C48.140,10.315 48.167,10.315 48.195,10.315 C48.195,10.370 48.195,10.425 48.195,10.479 C48.249,10.507 48.304,10.534 48.359,10.562 C48.359,10.616 48.359,10.671 48.359,10.726 C48.414,10.754 48.469,10.781 48.523,10.808 C48.523,10.891 48.523,10.973 48.523,11.055 C48.661,11.137 48.798,11.220 48.935,11.302 C48.935,11.384 48.935,11.467 48.935,11.549 C48.962,11.549 48.990,11.549 49.017,11.549 C49.044,11.604 49.072,11.659 49.099,11.713 C49.154,11.713 49.209,11.713 49.264,11.713 C49.346,11.823 49.428,11.933 49.510,12.042 C49.565,12.042 49.620,12.042 49.675,12.042 C49.702,12.097 49.730,12.152 49.757,12.207 C49.867,12.234 49.976,12.262 50.086,12.289 C50.086,12.317 50.086,12.344 50.086,12.372 C50.196,12.399 50.305,12.426 50.415,12.454 C50.415,12.481 50.415,12.509 50.415,12.536 C50.497,12.536 50.580,12.536 50.662,12.536 C51.016,12.675 52.274,13.043 52.882,12.865 C52.882,12.838 52.882,12.810 52.882,12.783 C53.074,12.783 53.266,12.783 53.458,12.783 C53.458,12.756 53.458,12.728 53.458,12.701 C53.568,12.701 53.677,12.701 53.787,12.701 C53.787,12.673 53.787,12.646 53.787,12.618 C53.869,12.618 53.952,12.618 54.034,12.618 C54.061,12.564 54.089,12.509 54.116,12.454 C54.445,12.344 54.774,12.234 55.103,12.125 C55.103,12.070 55.103,12.015 55.103,11.960 C55.185,11.960 55.267,11.960 55.350,11.960 C55.350,11.905 55.350,11.850 55.350,11.796 C55.405,11.796 55.459,11.796 55.514,11.796 C55.871,11.412 56.227,11.028 56.583,10.644 C56.611,10.534 56.638,10.424 56.666,10.315 C57.493,8.761 57.410,7.035 57.406,4.556 C58.968,4.528 60.531,4.501 62.094,4.473 C62.795,4.473 63.753,4.383 64.314,4.556 C64.643,4.556 64.972,4.556 65.301,4.556 C65.301,4.583 65.301,4.611 65.301,4.638 C65.356,4.638 65.411,4.638 65.466,4.638 C65.466,4.665 65.466,4.693 65.466,4.720 C65.548,4.720 65.630,4.720 65.712,4.720 C65.712,4.748 65.712,4.775 65.712,4.803 C65.767,4.803 65.822,4.803 65.877,4.803 C65.932,4.885 65.986,4.967 66.041,5.049 C66.096,5.049 66.151,5.049 66.206,5.049 C66.206,5.077 66.206,5.104 66.206,5.132 C66.261,5.159 66.315,5.187 66.370,5.214 C66.370,5.269 66.370,5.324 66.370,5.378 C66.453,5.433 66.535,5.488 66.617,5.543 C66.617,5.598 66.617,5.653 66.617,5.708 C66.644,5.708 66.672,5.708 66.699,5.708 C66.727,5.817 66.754,5.927 66.781,6.037 C66.809,6.037 66.836,6.037 66.864,6.037 C66.864,6.174 66.864,6.311 66.864,6.448 C67.109,7.262 66.946,8.832 66.946,9.821 C66.946,13.194 66.946,16.568 66.946,19.941 C66.946,30.553 66.946,41.168 66.946,51.780 C66.946,54.933 66.946,58.088 66.946,61.241 C66.946,62.173 66.946,63.106 66.946,64.038 C66.946,64.489 66.985,65.099 66.864,65.437 C66.573,66.244 65.888,66.732 65.054,67.000 C64.095,67.000 63.135,67.000 62.176,67.000 C58.695,67.000 55.212,67.000 51.731,67.000 C35.037,67.000 18.338,67.000 1.645,67.000 C1.645,66.973 1.645,66.945 1.645,66.918 C1.563,66.918 1.480,66.918 1.398,66.918 C1.398,66.890 1.398,66.863 1.398,66.835 C1.234,66.781 1.069,66.726 0.905,66.671 C0.768,66.506 0.630,66.342 0.493,66.177 C0.439,66.150 0.384,66.122 0.329,66.095 C0.274,65.930 0.219,65.766 0.164,65.601 C0.137,65.601 0.110,65.601 0.082,65.601 C0.055,65.163 0.027,64.724 -0.000,64.285 C-0.000,63.380 -0.000,62.475 -0.000,61.570 C-0.000,56.854 -0.000,52.136 -0.000,47.419 C-0.000,37.383 -0.000,27.344 -0.000,17.308 C-0.000,14.264 -0.000,11.219 -0.000,8.176 C-0.000,7.545 -0.000,6.914 -0.000,6.283 C0.027,6.283 0.055,6.283 0.082,6.283 C0.082,6.201 0.082,6.119 0.082,6.037 C0.110,6.037 0.137,6.037 0.164,6.037 C0.192,5.954 0.219,5.872 0.247,5.790 C0.219,5.790 0.192,5.790 0.164,5.790 C0.164,5.762 0.164,5.735 0.164,5.708 C0.192,5.708 0.219,5.708 0.247,5.708 C0.247,5.653 0.247,5.598 0.247,5.543 C0.274,5.543 0.301,5.543 0.329,5.543 C0.329,5.516 0.329,5.488 0.329,5.461 C0.384,5.461 0.439,5.461 0.493,5.461 C0.466,5.406 0.439,5.351 0.411,5.296 C0.466,5.269 0.521,5.241 0.576,5.214 C0.630,5.132 0.685,5.049 0.740,4.967 C0.822,4.967 0.905,4.967 0.987,4.967 C1.070,4.914 1.053,4.781 1.151,4.720 C1.151,4.748 1.151,4.775 1.151,4.803 C1.179,4.803 1.206,4.803 1.234,4.803 C1.234,4.748 1.234,4.693 1.234,4.638 C1.288,4.665 1.343,4.693 1.398,4.720 C1.425,4.665 1.453,4.611 1.480,4.556 C1.864,4.528 2.248,4.501 2.632,4.473 C3.246,4.650 4.262,4.556 5.017,4.556 C6.662,4.528 8.307,4.501 9.951,4.473 ZM4.688,61.899 C4.743,61.899 4.797,61.899 4.852,61.899 C4.939,62.205 5.173,62.189 5.346,62.393 C7.456,62.420 9.568,62.448 11.678,62.475 C12.090,62.475 12.501,62.475 12.912,62.475 C12.912,62.448 12.912,62.420 12.912,62.393 C13.406,62.393 13.899,62.393 14.393,62.393 C15.467,62.393 17.111,62.223 18.011,62.475 C18.642,62.475 19.272,62.475 19.903,62.475 C21.438,62.448 22.973,62.420 24.508,62.393 C26.537,62.420 28.566,62.448 30.594,62.475 C31.498,62.475 32.716,62.604 33.473,62.393 C34.213,62.393 34.953,62.393 35.694,62.393 C37.503,62.420 39.312,62.448 41.122,62.475 C41.952,62.475 43.067,62.585 43.753,62.393 C44.247,62.393 44.740,62.393 45.234,62.393 C46.287,62.393 48.074,62.235 48.935,62.475 C49.428,62.475 49.922,62.475 50.415,62.475 C51.490,62.475 53.134,62.645 54.034,62.393 C54.746,62.393 55.459,62.393 56.172,62.393 C57.954,62.420 59.736,62.448 61.518,62.475 C61.518,62.448 61.518,62.420 61.518,62.393 C61.655,62.365 61.792,62.338 61.929,62.311 C62.011,62.201 62.094,62.091 62.176,61.981 C62.203,61.981 62.231,61.981 62.258,61.981 C62.286,61.844 62.313,61.707 62.340,61.570 C62.368,61.570 62.395,61.570 62.423,61.570 C62.395,60.336 62.368,59.102 62.340,57.868 C62.368,55.153 62.395,52.438 62.423,49.723 C62.423,49.476 62.423,49.229 62.423,48.982 C62.395,48.982 62.368,48.982 62.340,48.982 C62.340,48.489 62.340,47.995 62.340,47.502 C62.340,46.448 62.182,44.660 62.423,43.799 C62.423,43.196 62.423,42.593 62.423,41.989 C62.395,40.536 62.368,39.082 62.340,37.629 C62.340,34.430 62.479,31.260 62.340,28.168 C62.368,25.453 62.395,22.738 62.423,20.023 C62.395,18.871 62.368,17.719 62.340,16.567 C62.313,16.567 62.286,16.567 62.258,16.567 C62.231,16.458 62.203,16.348 62.176,16.238 C62.148,16.238 62.121,16.238 62.094,16.238 C61.998,16.113 61.979,16.094 61.929,15.909 C58.421,15.607 54.642,15.827 50.991,15.827 C50.086,15.800 49.181,15.772 48.277,15.745 C45.070,15.772 41.861,15.800 38.654,15.827 C37.820,15.582 35.987,15.745 34.953,15.745 C34.460,15.745 33.966,15.745 33.473,15.745 C33.473,15.772 33.473,15.800 33.473,15.827 C33.089,15.827 32.705,15.827 32.322,15.827 C29.251,15.800 26.180,15.772 23.110,15.745 C23.110,15.772 23.110,15.800 23.110,15.827 C22.996,15.846 23.129,15.802 23.028,15.745 C22.973,15.772 22.918,15.800 22.864,15.827 C22.864,15.800 22.864,15.772 22.864,15.745 C22.836,15.745 22.809,15.745 22.781,15.745 C22.781,15.772 22.781,15.800 22.781,15.827 C22.370,15.827 21.959,15.827 21.548,15.827 C20.517,15.827 18.758,15.767 18.258,15.827 C18.075,15.849 18.093,15.745 18.093,15.745 C17.956,15.745 17.819,15.745 17.682,15.745 C16.750,15.745 15.818,15.745 14.886,15.745 C13.297,15.745 12.206,15.745 10.609,15.745 C9.825,15.745 8.786,15.653 8.142,15.827 C7.868,15.800 7.594,15.772 7.320,15.745 C6.567,15.741 5.730,15.770 5.099,15.827 C4.935,16.019 4.770,16.211 4.606,16.403 C4.606,26.357 4.606,36.314 4.606,46.268 C4.606,49.531 4.606,52.795 4.606,56.058 C4.606,57.980 4.524,60.113 4.688,61.899 ZM9.376,19.529 C12.747,19.529 16.120,19.529 19.492,19.529 C20.911,19.529 22.646,19.317 22.946,20.434 C23.247,20.738 23.103,22.276 23.110,22.902 C23.110,23.039 23.110,23.177 23.110,23.314 C23.138,23.314 23.165,23.314 23.192,23.314 C23.192,24.465 23.192,25.617 23.192,26.769 C23.192,27.290 23.192,27.811 23.192,28.332 C23.165,28.332 23.138,28.332 23.110,28.332 C23.110,28.497 23.110,28.661 23.110,28.826 C23.050,29.009 22.914,29.172 22.864,29.402 C22.644,29.566 22.425,29.731 22.206,29.895 C22.123,29.895 22.041,29.895 21.959,29.895 C21.959,29.923 21.959,29.950 21.959,29.978 C20.808,29.978 19.656,29.978 18.505,29.978 C16.695,29.985 14.076,29.978 12.254,29.978 C10.974,29.977 8.941,30.242 8.389,29.484 C7.910,28.828 7.977,27.660 7.978,26.522 C7.978,24.443 7.956,22.366 8.142,20.434 C8.343,20.306 8.192,20.340 8.306,20.187 C8.444,20.078 8.581,19.968 8.718,19.858 C8.718,19.831 8.718,19.803 8.718,19.776 C8.855,19.681 8.906,19.777 9.047,19.611 C9.156,19.611 9.266,19.611 9.376,19.611 C9.376,19.584 9.376,19.557 9.376,19.529 ZM27.222,19.529 C28.703,19.557 30.183,19.584 31.664,19.611 C32.267,19.611 32.870,19.611 33.473,19.611 C34.044,19.452 34.984,19.529 35.694,19.529 C37.276,19.529 38.822,19.564 40.217,19.694 C40.380,19.941 40.297,19.733 40.464,19.858 C40.464,19.886 40.464,19.913 40.464,19.941 C40.546,19.995 40.628,20.050 40.710,20.105 C40.710,20.160 40.710,20.215 40.710,20.270 C40.765,20.297 40.820,20.324 40.875,20.352 C40.875,20.434 40.875,20.516 40.875,20.599 C40.902,20.599 40.930,20.599 40.957,20.599 C41.142,21.109 41.039,21.935 41.039,22.573 C41.039,23.972 41.039,25.371 41.039,26.769 C41.039,28.049 41.153,29.214 40.381,29.731 C39.729,30.168 37.759,29.978 36.680,29.978 C34.625,29.978 32.568,29.978 30.512,29.978 C29.361,29.978 28.209,29.978 27.058,29.978 C27.058,29.950 27.058,29.923 27.058,29.895 C26.921,29.868 26.784,29.841 26.647,29.813 C26.510,29.649 26.373,29.484 26.236,29.320 C26.208,29.320 26.181,29.320 26.153,29.320 C26.126,29.210 26.098,29.100 26.071,28.990 C26.044,28.990 26.016,28.990 25.989,28.990 C25.989,28.881 25.989,28.771 25.989,28.661 C25.961,28.661 25.934,28.661 25.907,28.661 C25.934,28.332 25.961,28.003 25.989,27.674 C25.989,26.221 25.989,24.767 25.989,23.314 C25.961,23.314 25.934,23.314 25.907,23.314 C25.800,22.929 25.902,21.198 25.989,20.928 C26.016,20.736 26.044,20.544 26.071,20.352 C26.126,20.324 26.181,20.297 26.236,20.270 C26.236,20.215 26.236,20.160 26.236,20.105 C26.455,19.941 26.674,19.776 26.894,19.611 C27.003,19.611 27.113,19.611 27.222,19.611 C27.222,19.584 27.222,19.557 27.222,19.529 ZM45.069,19.529 C46.152,19.523 48.052,19.364 48.935,19.611 C49.456,19.611 49.976,19.611 50.497,19.611 C51.676,19.611 52.855,19.611 54.034,19.611 C54.034,19.584 54.034,19.557 54.034,19.529 C54.171,19.529 54.308,19.529 54.445,19.529 C55.719,19.514 57.623,19.311 58.393,19.858 C58.393,19.886 58.393,19.913 58.393,19.941 C58.475,19.995 58.557,20.050 58.639,20.105 C58.639,20.160 58.639,20.215 58.639,20.270 C58.667,20.270 58.694,20.270 58.722,20.270 C58.749,20.379 58.777,20.489 58.804,20.599 C58.831,20.599 58.859,20.599 58.886,20.599 C58.914,21.147 58.941,21.696 58.968,22.244 C58.968,22.573 58.968,22.902 58.968,23.231 C58.941,23.231 58.914,23.231 58.886,23.231 C58.886,23.972 58.886,24.712 58.886,25.453 C58.886,26.520 59.063,28.811 58.722,29.320 C58.639,29.374 58.557,29.429 58.475,29.484 C58.420,29.566 58.365,29.649 58.310,29.731 C58.256,29.731 58.201,29.731 58.146,29.731 C58.118,29.786 58.091,29.841 58.064,29.895 C57.607,30.134 56.017,29.978 55.350,29.978 C52.773,29.978 50.196,29.978 47.619,29.978 C46.478,29.978 44.998,30.138 44.329,29.649 C44.302,29.594 44.274,29.539 44.247,29.484 C44.219,29.484 44.192,29.484 44.165,29.484 C44.165,29.429 44.165,29.374 44.165,29.320 C44.110,29.292 44.055,29.265 44.000,29.237 C43.721,28.782 43.836,27.799 43.836,27.098 C43.836,24.909 43.718,22.485 43.918,20.434 C44.119,20.306 43.968,20.340 44.082,20.187 C44.219,20.078 44.357,19.968 44.493,19.858 C44.493,19.831 44.493,19.803 44.493,19.776 C44.548,19.776 44.603,19.776 44.658,19.776 C44.658,19.749 44.658,19.721 44.658,19.694 C44.795,19.666 44.932,19.639 45.069,19.611 C45.069,19.584 45.069,19.557 45.069,19.529 ZM22.452,34.174 C22.648,34.190 22.656,34.208 22.781,34.256 C22.754,34.311 22.726,34.366 22.699,34.420 C22.726,34.420 22.754,34.420 22.781,34.420 C22.809,34.475 22.836,34.530 22.864,34.585 C22.918,34.585 22.973,34.585 23.028,34.585 C23.001,34.640 22.973,34.695 22.946,34.749 C23.001,34.749 23.056,34.749 23.110,34.749 C23.083,34.804 23.056,34.859 23.028,34.914 C23.056,34.914 23.083,34.914 23.110,34.914 C23.110,35.024 23.110,35.133 23.110,35.243 C23.138,35.243 23.165,35.243 23.192,35.243 C23.250,35.430 23.127,35.464 23.110,35.572 C23.297,36.062 23.193,36.994 23.192,37.629 C23.165,38.863 23.138,40.097 23.110,41.331 C23.110,41.934 23.110,42.538 23.110,43.141 C23.083,43.141 23.056,43.141 23.028,43.141 C23.028,43.223 23.028,43.306 23.028,43.388 C22.942,43.589 22.759,43.709 22.699,43.964 C22.644,43.964 22.589,43.964 22.535,43.964 C22.535,44.019 22.535,44.074 22.535,44.128 C22.398,44.156 22.260,44.183 22.123,44.211 C22.123,44.238 22.123,44.266 22.123,44.293 C21.959,44.293 21.794,44.293 21.630,44.293 C21.630,44.320 21.630,44.348 21.630,44.375 C21.274,44.375 20.917,44.375 20.561,44.375 C19.738,44.375 18.916,44.375 18.093,44.375 C18.093,44.348 18.093,44.320 18.093,44.293 C17.956,44.293 17.819,44.293 17.682,44.293 C14.969,44.320 12.254,44.348 9.540,44.375 C9.540,44.348 9.540,44.320 9.540,44.293 C9.376,44.293 9.211,44.293 9.047,44.293 C9.047,44.266 9.047,44.238 9.047,44.211 C8.910,44.183 8.773,44.156 8.635,44.128 C8.579,43.913 8.505,43.864 8.389,43.717 C8.361,43.717 8.334,43.717 8.306,43.717 C8.306,43.662 8.306,43.607 8.306,43.553 C8.279,43.553 8.252,43.553 8.224,43.553 C8.224,43.498 8.224,43.443 8.224,43.388 C8.197,43.388 8.169,43.388 8.142,43.388 C8.142,43.306 8.142,43.223 8.142,43.141 C8.115,43.141 8.087,43.141 8.060,43.141 C8.060,42.373 8.060,41.605 8.060,40.838 C8.032,39.192 8.005,37.547 7.978,35.901 C8.005,35.572 8.032,35.243 8.060,34.914 C8.087,34.914 8.115,34.914 8.142,34.914 C8.115,34.859 8.087,34.804 8.060,34.749 C8.115,34.749 8.169,34.749 8.224,34.749 C8.230,34.633 8.222,34.752 8.142,34.667 C8.215,34.530 8.389,34.500 8.389,34.420 C8.361,34.420 8.334,34.420 8.306,34.420 C8.417,34.229 8.439,34.212 8.718,34.174 C8.718,34.119 8.718,34.064 8.718,34.009 C8.773,34.036 8.827,34.064 8.882,34.091 C8.910,34.036 8.937,33.982 8.965,33.927 C9.074,33.927 9.184,33.927 9.293,33.927 C9.293,33.899 9.293,33.872 9.293,33.845 C10.171,33.845 11.048,33.845 11.925,33.845 C14.122,33.844 16.653,33.845 19.080,33.845 C20.029,33.844 22.304,33.695 22.452,34.174 ZM27.305,33.845 C30.457,33.845 33.610,33.845 36.763,33.845 C37.667,33.844 39.833,33.650 40.381,34.009 C40.573,34.228 40.765,34.448 40.957,34.667 C40.957,34.749 40.957,34.832 40.957,34.914 C40.985,34.914 41.012,34.914 41.039,34.914 C41.039,36.559 41.039,38.205 41.039,39.850 C41.039,40.777 41.200,42.311 40.957,43.059 C40.957,43.169 40.957,43.278 40.957,43.388 C40.930,43.388 40.902,43.388 40.875,43.388 C40.875,43.443 40.875,43.498 40.875,43.553 C40.820,43.580 40.765,43.607 40.710,43.635 C40.710,43.717 40.710,43.799 40.710,43.882 C40.521,44.195 39.271,44.574 38.572,44.375 C37.818,44.161 36.595,44.293 35.694,44.293 C33.692,44.320 31.691,44.348 29.690,44.375 C29.154,44.375 28.542,44.328 28.127,44.293 C27.672,44.254 27.154,44.367 26.811,44.211 C26.811,44.183 26.811,44.156 26.811,44.128 C26.756,44.128 26.702,44.128 26.647,44.128 C26.564,44.019 26.482,43.909 26.400,43.799 C26.345,43.799 26.290,43.799 26.236,43.799 C26.236,43.772 26.236,43.744 26.236,43.717 C26.114,43.604 26.127,43.675 26.071,43.470 C25.771,43.168 25.907,41.476 25.907,40.838 C25.907,39.439 25.907,38.040 25.907,36.642 C25.907,36.017 25.858,35.069 26.071,34.667 C26.126,34.640 26.181,34.612 26.236,34.585 C26.236,34.530 26.236,34.475 26.236,34.420 C26.263,34.420 26.290,34.420 26.318,34.420 C26.373,34.338 26.427,34.256 26.482,34.174 C26.537,34.174 26.592,34.174 26.647,34.174 C26.647,34.146 26.647,34.119 26.647,34.091 C26.814,33.996 26.831,34.091 26.976,33.927 C27.085,33.927 27.195,33.927 27.305,33.927 C27.305,33.899 27.305,33.872 27.305,33.845 ZM58.639,43.882 C58.455,43.932 58.435,43.951 58.310,44.046 C58.310,44.074 58.310,44.101 58.310,44.128 C58.256,44.128 58.201,44.128 58.146,44.128 C58.146,44.156 58.146,44.183 58.146,44.211 C58.091,44.211 58.036,44.211 57.982,44.211 C57.982,44.238 57.982,44.266 57.982,44.293 C57.872,44.293 57.762,44.293 57.652,44.293 C57.652,44.320 57.652,44.348 57.652,44.375 C54.308,44.375 50.963,44.375 47.619,44.375 C46.240,44.375 44.294,44.645 44.000,43.553 C43.655,43.208 43.753,41.881 43.753,41.167 C43.781,39.549 43.808,37.930 43.836,36.313 C43.836,35.695 43.746,34.883 44.000,34.503 C44.082,34.448 44.165,34.393 44.247,34.338 C44.403,34.181 44.393,34.079 44.658,34.009 C44.868,33.802 45.309,33.845 45.727,33.845 C46.522,33.845 47.317,33.845 48.112,33.845 C51.347,33.845 54.582,33.845 57.817,33.845 C58.000,33.903 58.163,34.041 58.393,34.091 C58.475,34.201 58.557,34.311 58.639,34.420 C58.667,34.420 58.694,34.420 58.722,34.420 C58.722,34.475 58.722,34.530 58.722,34.585 C58.749,34.585 58.777,34.585 58.804,34.585 C58.804,34.640 58.804,34.695 58.804,34.749 C58.831,34.749 58.859,34.749 58.886,34.749 C58.886,34.832 58.886,34.914 58.886,34.996 C58.914,34.996 58.941,34.996 58.968,34.996 C58.968,35.819 58.968,36.642 58.968,37.464 C58.968,39.384 58.968,41.304 58.968,43.223 C58.894,43.454 58.705,43.627 58.639,43.882 ZM22.288,48.242 C22.288,48.297 22.288,48.352 22.288,48.407 C22.402,48.384 22.283,48.401 22.370,48.324 C22.584,48.382 22.444,48.477 22.535,48.571 C22.589,48.544 22.644,48.516 22.699,48.489 C22.699,48.516 22.699,48.544 22.699,48.571 C23.279,49.053 23.110,50.486 23.110,51.533 C23.138,53.507 23.165,55.482 23.192,57.456 C23.165,57.456 23.138,57.456 23.110,57.456 C23.110,57.511 23.110,57.566 23.110,57.621 C23.083,57.621 23.056,57.621 23.028,57.621 C23.001,57.758 22.973,57.895 22.946,58.032 C22.726,58.224 22.507,58.416 22.288,58.608 C22.151,58.608 22.014,58.608 21.877,58.608 C21.877,58.636 21.877,58.663 21.877,58.691 C19.026,58.663 16.174,58.636 13.323,58.608 C13.186,58.608 13.049,58.608 12.912,58.608 C12.912,58.636 12.912,58.663 12.912,58.691 C12.090,58.691 11.267,58.691 10.445,58.691 C10.061,58.691 9.677,58.691 9.293,58.691 C9.293,58.663 9.293,58.636 9.293,58.608 C9.102,58.581 8.910,58.553 8.718,58.526 C8.599,58.323 8.460,58.297 8.389,58.032 C8.334,58.032 8.279,58.032 8.224,58.032 C8.173,57.799 8.039,57.579 7.978,57.374 C8.005,55.702 8.032,54.028 8.060,52.356 C8.060,51.341 8.060,50.326 8.060,49.312 C8.087,49.312 8.115,49.312 8.142,49.312 C8.142,49.257 8.142,49.202 8.142,49.147 C8.169,49.147 8.197,49.147 8.224,49.147 C8.224,49.065 8.224,48.982 8.224,48.900 C8.252,48.900 8.279,48.900 8.306,48.900 C8.359,48.771 8.346,48.677 8.389,48.571 C8.444,48.599 8.498,48.626 8.553,48.653 C8.581,48.571 8.608,48.489 8.635,48.407 C8.763,48.265 8.927,48.316 9.129,48.242 C9.129,48.215 9.129,48.187 9.129,48.160 C9.513,48.160 9.897,48.160 10.280,48.160 C11.158,48.160 12.035,48.160 12.912,48.160 C12.912,48.187 12.912,48.215 12.912,48.242 C13.022,48.242 13.131,48.242 13.241,48.242 C16.308,48.314 19.376,47.974 22.288,48.242 ZM26.071,48.900 C26.126,48.900 26.181,48.900 26.236,48.900 C26.338,48.507 26.500,48.570 26.811,48.407 C26.811,48.379 26.811,48.352 26.811,48.324 C26.866,48.324 26.921,48.324 26.976,48.324 C26.976,48.297 26.976,48.269 26.976,48.242 C27.113,48.242 27.250,48.242 27.387,48.242 C27.387,48.215 27.387,48.187 27.387,48.160 C27.524,48.160 27.661,48.160 27.798,48.160 C28.188,48.255 29.915,48.160 30.841,48.160 C33.062,48.160 35.282,48.160 37.503,48.160 C38.850,48.160 40.804,47.890 40.875,49.147 C41.102,49.376 41.039,49.929 41.039,50.381 C41.039,51.423 41.039,52.465 41.039,53.507 C41.039,54.495 41.039,55.482 41.039,56.469 C41.039,57.142 41.065,57.728 40.793,58.115 C40.738,58.142 40.683,58.169 40.628,58.197 C40.216,58.625 39.916,58.696 39.065,58.691 C38.901,58.691 38.737,58.691 38.572,58.691 C37.864,58.490 36.711,58.608 35.858,58.608 C33.967,58.636 32.075,58.663 30.183,58.691 C29.553,58.691 28.922,58.691 28.292,58.691 C28.292,58.663 28.292,58.636 28.292,58.608 C28.209,58.608 28.127,58.608 28.045,58.608 C27.718,58.594 27.163,58.691 26.976,58.526 C25.888,58.293 25.907,57.143 25.907,55.811 C25.907,53.617 25.907,51.423 25.907,49.229 C25.934,49.229 25.961,49.229 25.989,49.229 C26.016,49.120 26.044,49.010 26.071,48.900 ZM43.918,48.982 C44.251,48.880 44.013,48.932 44.165,48.736 C44.247,48.681 44.329,48.626 44.411,48.571 C44.411,48.544 44.411,48.516 44.411,48.489 C44.466,48.489 44.521,48.489 44.576,48.489 C44.576,48.461 44.576,48.434 44.576,48.407 C44.685,48.379 44.795,48.352 44.905,48.324 C44.905,48.297 44.905,48.269 44.905,48.242 C45.946,48.242 46.988,48.242 48.030,48.242 C49.455,48.215 50.881,48.187 52.307,48.160 C52.882,48.160 53.458,48.160 54.034,48.160 C54.034,48.187 54.034,48.215 54.034,48.242 C54.335,48.242 54.637,48.242 54.938,48.242 C55.898,48.242 56.858,48.242 57.817,48.242 C58.186,48.362 58.320,48.578 58.557,48.818 C58.811,49.074 58.870,48.945 58.886,49.476 C59.069,49.684 58.968,51.182 58.968,51.615 C58.968,52.397 59.066,53.444 58.886,54.083 C58.886,54.522 58.886,54.961 58.886,55.400 C58.886,56.113 58.886,56.826 58.886,57.539 C58.859,57.539 58.831,57.539 58.804,57.539 C58.777,57.676 58.749,57.813 58.722,57.950 C58.407,58.135 58.197,58.484 57.817,58.608 C56.556,58.608 55.295,58.608 54.034,58.608 C53.509,58.754 52.639,58.691 51.978,58.691 C50.497,58.663 49.017,58.636 47.537,58.608 C46.800,58.608 45.281,58.768 44.740,58.526 C44.548,58.389 44.357,58.252 44.165,58.115 C44.165,58.060 44.165,58.005 44.165,57.950 C44.137,57.950 44.110,57.950 44.082,57.950 C44.003,57.849 44.022,57.791 43.918,57.703 C43.831,55.903 43.836,53.795 43.836,51.862 C43.836,51.012 43.836,50.162 43.836,49.312 C43.863,49.312 43.890,49.312 43.918,49.312 C43.918,49.284 43.918,49.257 43.918,49.229 C43.890,49.229 43.863,49.229 43.836,49.229 C43.863,49.147 43.890,49.065 43.918,48.982 Z"/>
</svg>