<svg 
 xmlns="http://www.w3.org/2000/svg"
 xmlns:xlink="http://www.w3.org/1999/xlink"
 width="8px" height="15px">
<path fill-rule="evenodd"  fill="rgb(196, 135, 230)"
 d="M3.044,6.341 C3.213,5.929 2.996,5.723 2.802,5.723 C1.906,5.723 0.744,7.718 0.309,7.718 C0.139,7.718 -0.006,7.557 -0.006,7.419 C-0.006,7.007 1.059,6.044 1.374,5.745 C2.342,4.874 3.601,4.209 5.004,4.209 C6.045,4.209 7.159,4.805 6.287,7.030 L4.545,11.502 C4.399,11.846 4.133,12.420 4.133,12.786 C4.133,12.947 4.230,13.107 4.423,13.107 C5.149,13.107 6.481,11.158 6.820,11.158 C6.941,11.158 7.110,11.295 7.110,11.502 C7.110,12.167 4.279,15.011 1.834,15.011 C0.962,15.011 0.357,14.621 0.357,13.750 C0.357,12.649 1.180,10.768 1.350,10.378 L3.044,6.341 ZM4.351,1.823 C4.351,0.814 5.270,-0.011 6.335,-0.011 C7.304,-0.011 8.006,0.608 8.006,1.548 C8.006,2.604 7.086,3.384 5.997,3.384 C5.004,3.384 4.351,2.764 4.351,1.823 Z"/>
</svg>