<svg 
 xmlns="http://www.w3.org/2000/svg"
 xmlns:xlink="http://www.w3.org/1999/xlink"
 width="9px" height="5px">
<path fill-rule="evenodd"  fill="rgb(255, 255, 255)"
 d="M0.415,-0.000 C0.446,0.009 0.470,0.050 0.491,0.071 C0.498,0.076 0.504,0.080 0.510,0.084 C0.561,0.138 0.612,0.192 0.663,0.246 C0.712,0.294 0.761,0.341 0.810,0.389 C0.969,0.553 1.129,0.717 1.288,0.881 C2.065,1.669 2.843,2.457 3.620,3.245 C3.784,3.413 3.947,3.582 4.111,3.750 C4.160,3.797 4.209,3.845 4.258,3.892 C4.311,3.949 4.364,4.005 4.417,4.061 C4.421,4.063 4.426,4.065 4.430,4.067 C4.452,4.090 4.472,4.129 4.506,4.139 C5.861,2.759 7.217,1.379 8.572,-0.000 C8.574,-0.000 8.576,-0.000 8.579,-0.000 C8.579,0.002 8.579,0.004 8.579,0.006 C8.719,0.147 8.859,0.287 8.999,0.427 C8.994,0.435 9.000,0.428 8.993,0.434 C8.972,0.470 8.920,0.507 8.891,0.538 C8.882,0.548 8.874,0.559 8.865,0.570 C8.799,0.635 8.734,0.699 8.668,0.764 C8.608,0.827 8.549,0.889 8.489,0.952 C8.311,1.131 8.132,1.310 7.954,1.490 C7.559,1.893 7.164,2.297 6.769,2.701 C6.393,3.081 6.017,3.461 5.641,3.841 C5.439,4.048 5.237,4.255 5.035,4.462 C4.961,4.536 4.886,4.609 4.812,4.683 C4.748,4.750 4.685,4.816 4.621,4.883 C4.610,4.892 4.600,4.901 4.589,4.909 C4.566,4.933 4.525,4.991 4.493,5.000 C3.376,3.862 2.259,2.724 1.141,1.587 C0.761,1.203 0.381,0.818 0.001,0.434 C-0.004,0.417 0.019,0.409 0.026,0.402 C0.051,0.375 0.077,0.350 0.103,0.324 C0.207,0.216 0.311,0.108 0.415,-0.000 Z"/>
</svg>