<svg 
 xmlns="http://www.w3.org/2000/svg"
 xmlns:xlink="http://www.w3.org/1999/xlink"
 width="19px" height="19px">
<path fill-rule="evenodd"  fill="rgb(185, 20, 20)"
 d="M8.388,-0.001 C9.110,-0.009 10.087,-0.083 10.665,0.083 C10.862,0.083 11.059,0.083 11.256,0.083 C11.256,0.112 11.256,0.140 11.256,0.168 C11.368,0.168 11.481,0.168 11.593,0.168 C11.593,0.196 11.593,0.224 11.593,0.252 C11.705,0.252 11.818,0.252 11.930,0.252 C11.930,0.280 11.930,0.309 11.930,0.337 C12.043,0.337 12.155,0.337 12.268,0.337 C12.268,0.365 12.268,0.393 12.268,0.421 C12.352,0.421 12.436,0.421 12.521,0.421 C12.521,0.449 12.521,0.478 12.521,0.506 C12.605,0.506 12.689,0.506 12.774,0.506 C12.774,0.534 12.774,0.562 12.774,0.590 C12.858,0.590 12.942,0.590 13.027,0.590 C13.027,0.618 13.027,0.646 13.027,0.675 C13.139,0.703 13.252,0.731 13.364,0.759 C13.364,0.787 13.364,0.815 13.364,0.843 C13.448,0.843 13.533,0.843 13.617,0.843 C13.617,0.872 13.617,0.900 13.617,0.928 C13.673,0.928 13.729,0.928 13.786,0.928 C13.786,0.956 13.786,0.984 13.786,1.012 C13.842,1.012 13.898,1.012 13.954,1.012 C13.982,1.069 14.011,1.125 14.039,1.181 C14.207,1.238 14.376,1.294 14.545,1.350 C14.573,1.406 14.601,1.463 14.629,1.519 C14.685,1.519 14.741,1.519 14.798,1.519 C14.826,1.575 14.854,1.632 14.882,1.688 C14.938,1.688 14.994,1.688 15.051,1.688 C15.107,1.772 15.163,1.857 15.219,1.941 C15.276,1.941 15.332,1.941 15.388,1.941 C15.472,2.054 15.557,2.167 15.641,2.279 C15.697,2.279 15.753,2.279 15.810,2.279 C16.006,2.504 16.203,2.730 16.400,2.955 C16.512,3.039 16.625,3.124 16.737,3.208 C16.737,3.264 16.737,3.321 16.737,3.377 C16.850,3.461 16.962,3.546 17.075,3.630 C17.075,3.687 17.075,3.743 17.075,3.799 C17.159,3.855 17.243,3.912 17.328,3.968 C17.328,4.024 17.328,4.081 17.328,4.137 C17.384,4.165 17.440,4.193 17.496,4.221 C17.496,4.278 17.496,4.334 17.496,4.390 C17.552,4.418 17.609,4.447 17.665,4.475 C17.721,4.644 17.777,4.813 17.834,4.981 C17.890,5.010 17.946,5.038 18.002,5.066 C18.002,5.122 18.002,5.179 18.002,5.235 C18.030,5.235 18.058,5.235 18.087,5.235 C18.115,5.376 18.143,5.516 18.171,5.657 C18.199,5.657 18.227,5.657 18.255,5.657 C18.283,5.770 18.311,5.882 18.340,5.995 C18.368,5.995 18.396,5.995 18.424,5.995 C18.452,6.164 18.480,6.333 18.508,6.502 C19.086,7.986 19.234,10.256 18.677,11.906 C18.593,12.272 18.508,12.638 18.424,13.004 C17.332,15.489 15.513,17.321 13.027,18.409 C12.942,18.409 12.858,18.409 12.774,18.409 C12.774,18.437 12.774,18.465 12.774,18.493 C12.689,18.493 12.605,18.493 12.521,18.493 C12.521,18.521 12.521,18.550 12.521,18.578 C12.436,18.578 12.352,18.578 12.268,18.578 C12.268,18.606 12.268,18.634 12.268,18.662 C12.155,18.662 12.043,18.662 11.930,18.662 C11.930,18.690 11.930,18.719 11.930,18.747 C11.818,18.747 11.705,18.747 11.593,18.747 C11.593,18.775 11.593,18.803 11.593,18.831 C11.481,18.831 11.368,18.831 11.256,18.831 C11.256,18.859 11.256,18.887 11.256,18.916 C11.059,18.916 10.862,18.916 10.665,18.916 C10.665,18.944 10.665,18.972 10.665,19.000 C10.216,19.000 9.766,19.000 9.316,19.000 C7.826,19.000 6.667,18.662 5.690,18.156 C5.549,18.127 5.409,18.099 5.268,18.071 C5.268,18.043 5.268,18.015 5.268,17.987 C5.212,17.987 5.156,17.987 5.099,17.987 C5.071,17.930 5.043,17.874 5.015,17.818 C4.846,17.761 4.678,17.705 4.509,17.649 C4.481,17.593 4.453,17.536 4.425,17.480 C4.369,17.480 4.312,17.480 4.256,17.480 C4.228,17.424 4.200,17.367 4.172,17.311 C4.116,17.311 4.059,17.311 4.003,17.311 C3.947,17.227 3.891,17.142 3.834,17.058 C3.778,17.058 3.722,17.058 3.666,17.058 C3.581,16.945 3.497,16.832 3.413,16.720 C3.357,16.720 3.300,16.720 3.244,16.720 C3.047,16.495 2.851,16.269 2.654,16.044 C2.541,15.960 2.429,15.875 2.316,15.791 C2.316,15.735 2.316,15.678 2.316,15.622 C2.204,15.538 2.092,15.453 1.979,15.369 C1.979,15.312 1.979,15.256 1.979,15.200 C1.895,15.144 1.810,15.087 1.726,15.031 C1.726,14.975 1.726,14.918 1.726,14.862 C1.670,14.834 1.614,14.806 1.558,14.778 C1.558,14.721 1.558,14.665 1.558,14.609 C1.501,14.581 1.445,14.552 1.389,14.524 C1.333,14.355 1.276,14.186 1.220,14.018 C1.164,13.989 1.108,13.961 1.052,13.933 C1.052,13.877 1.052,13.820 1.052,13.764 C1.023,13.764 0.995,13.764 0.967,13.764 C0.967,13.708 0.967,13.652 0.967,13.595 C0.939,13.595 0.911,13.595 0.883,13.595 C0.883,13.511 0.883,13.426 0.883,13.342 C0.855,13.342 0.827,13.342 0.799,13.342 C0.770,13.229 0.742,13.117 0.714,13.004 C0.686,13.004 0.658,13.004 0.630,13.004 C0.630,12.920 0.630,12.835 0.630,12.751 C0.602,12.751 0.574,12.751 0.546,12.751 C0.546,12.666 0.546,12.582 0.546,12.497 C0.517,12.497 0.489,12.497 0.461,12.497 C0.461,12.413 0.461,12.329 0.461,12.244 C0.433,12.244 0.405,12.244 0.377,12.244 C0.349,12.019 0.321,11.794 0.293,11.568 C0.057,10.860 -0.132,9.257 0.124,8.359 C0.124,8.162 0.124,7.965 0.124,7.768 C0.152,7.768 0.180,7.768 0.208,7.768 C0.208,7.656 0.208,7.543 0.208,7.430 C0.236,7.430 0.264,7.430 0.293,7.430 C0.293,7.318 0.293,7.205 0.293,7.093 C0.321,7.093 0.349,7.093 0.377,7.093 C0.377,6.980 0.377,6.867 0.377,6.755 C0.405,6.755 0.433,6.755 0.461,6.755 C0.461,6.670 0.461,6.586 0.461,6.502 C0.489,6.502 0.517,6.502 0.546,6.502 C0.546,6.417 0.546,6.333 0.546,6.248 C0.574,6.248 0.602,6.248 0.630,6.248 C0.630,6.164 0.630,6.079 0.630,5.995 C0.658,5.995 0.686,5.995 0.714,5.995 C0.742,5.882 0.770,5.770 0.799,5.657 C0.827,5.657 0.855,5.657 0.883,5.657 C0.883,5.601 0.883,5.544 0.883,5.488 C0.911,5.488 0.939,5.488 0.967,5.488 C0.967,5.404 0.967,5.319 0.967,5.235 C0.995,5.235 1.023,5.235 1.052,5.235 C1.052,5.179 1.052,5.122 1.052,5.066 C1.108,5.038 1.164,5.010 1.220,4.981 C1.276,4.813 1.333,4.644 1.389,4.475 C1.445,4.447 1.501,4.418 1.558,4.390 C1.558,4.334 1.558,4.278 1.558,4.221 C1.614,4.193 1.670,4.165 1.726,4.137 C1.726,4.081 1.726,4.024 1.726,3.968 C1.810,3.912 1.895,3.855 1.979,3.799 C1.979,3.743 1.979,3.687 1.979,3.630 C2.092,3.546 2.204,3.461 2.316,3.377 C2.316,3.321 2.316,3.264 2.316,3.208 C2.513,3.039 2.710,2.870 2.907,2.701 C3.019,2.561 3.132,2.420 3.244,2.279 C3.300,2.279 3.357,2.279 3.413,2.279 C3.497,2.167 3.581,2.054 3.666,1.941 C3.722,1.941 3.778,1.941 3.834,1.941 C3.891,1.857 3.947,1.772 4.003,1.688 C4.059,1.688 4.116,1.688 4.172,1.688 C4.200,1.632 4.228,1.575 4.256,1.519 C4.340,1.491 4.425,1.463 4.509,1.435 C4.509,1.406 4.509,1.378 4.509,1.350 C4.678,1.294 4.846,1.238 5.015,1.181 C5.043,1.125 5.071,1.069 5.099,1.012 C5.156,1.012 5.212,1.012 5.268,1.012 C5.268,0.984 5.268,0.956 5.268,0.928 C5.324,0.928 5.381,0.928 5.437,0.928 C5.437,0.900 5.437,0.872 5.437,0.843 C6.111,0.618 6.786,0.393 7.461,0.168 C7.730,0.078 8.204,0.160 8.388,-0.001 ZM8.641,1.941 C8.641,1.969 8.641,1.998 8.641,2.026 C8.445,2.026 8.248,2.026 8.051,2.026 C8.051,2.054 8.051,2.082 8.051,2.110 C7.939,2.110 7.826,2.110 7.714,2.110 C7.714,2.138 7.714,2.167 7.714,2.195 C7.601,2.195 7.489,2.195 7.376,2.195 C7.376,2.223 7.376,2.251 7.376,2.279 C7.292,2.279 7.208,2.279 7.123,2.279 C7.123,2.307 7.123,2.335 7.123,2.364 C7.039,2.364 6.955,2.364 6.870,2.364 C6.870,2.392 6.870,2.420 6.870,2.448 C6.786,2.448 6.702,2.448 6.617,2.448 C6.617,2.476 6.617,2.504 6.617,2.532 C6.449,2.589 6.280,2.645 6.111,2.701 C6.111,2.729 6.111,2.758 6.111,2.786 C6.055,2.786 5.999,2.786 5.943,2.786 C5.943,2.814 5.943,2.842 5.943,2.870 C5.830,2.898 5.718,2.927 5.605,2.955 C5.577,3.011 5.549,3.067 5.521,3.124 C5.465,3.124 5.409,3.124 5.352,3.124 C5.324,3.180 5.296,3.236 5.268,3.292 C5.212,3.292 5.156,3.292 5.099,3.292 C5.043,3.377 4.987,3.461 4.931,3.546 C4.875,3.546 4.818,3.546 4.762,3.546 C4.537,3.799 4.312,4.053 4.087,4.306 C3.919,4.447 3.750,4.587 3.581,4.728 C3.581,4.784 3.581,4.841 3.581,4.897 C3.497,4.953 3.413,5.010 3.328,5.066 C3.328,5.122 3.328,5.179 3.328,5.235 C3.272,5.263 3.216,5.291 3.160,5.319 C3.160,5.376 3.160,5.432 3.160,5.488 C3.104,5.516 3.047,5.544 2.991,5.573 C2.991,5.629 2.991,5.685 2.991,5.742 C2.963,5.742 2.935,5.742 2.907,5.742 C2.907,5.798 2.907,5.854 2.907,5.910 C2.879,5.910 2.851,5.910 2.822,5.910 C2.822,5.967 2.822,6.023 2.822,6.079 C2.794,6.079 2.766,6.079 2.738,6.079 C2.738,6.136 2.738,6.192 2.738,6.248 C2.710,6.248 2.682,6.248 2.654,6.248 C2.626,6.361 2.598,6.473 2.569,6.586 C2.541,6.586 2.513,6.586 2.485,6.586 C2.485,6.670 2.485,6.755 2.485,6.839 C2.457,6.839 2.429,6.839 2.401,6.839 C2.401,6.924 2.401,7.008 2.401,7.093 C2.373,7.093 2.345,7.093 2.316,7.093 C2.316,7.177 2.316,7.262 2.316,7.346 C2.288,7.346 2.260,7.346 2.232,7.346 C2.232,7.459 2.232,7.571 2.232,7.684 C2.204,7.684 2.176,7.684 2.148,7.684 C2.148,7.796 2.148,7.909 2.148,8.022 C2.120,8.022 2.092,8.022 2.063,8.022 C2.063,8.191 2.063,8.359 2.063,8.528 C2.035,8.528 2.007,8.528 1.979,8.528 C1.820,9.093 2.032,10.617 2.148,10.977 C2.148,11.090 2.148,11.203 2.148,11.315 C2.176,11.315 2.204,11.315 2.232,11.315 C2.316,11.681 2.401,12.047 2.485,12.413 C2.513,12.413 2.541,12.413 2.569,12.413 C2.626,12.582 2.682,12.751 2.738,12.920 C2.766,12.920 2.794,12.920 2.822,12.920 C2.822,12.976 2.822,13.032 2.822,13.089 C2.851,13.089 2.879,13.089 2.907,13.089 C2.935,13.201 2.963,13.314 2.991,13.426 C3.047,13.455 3.104,13.483 3.160,13.511 C3.160,13.567 3.160,13.623 3.160,13.680 C3.216,13.708 3.272,13.736 3.328,13.764 C3.328,13.820 3.328,13.877 3.328,13.933 C3.413,13.989 3.497,14.046 3.581,14.102 C3.581,14.158 3.581,14.215 3.581,14.271 C3.834,14.496 4.087,14.721 4.340,14.946 C4.481,15.115 4.622,15.284 4.762,15.453 C4.818,15.453 4.875,15.453 4.931,15.453 C4.987,15.538 5.043,15.622 5.099,15.706 C5.156,15.706 5.212,15.706 5.268,15.706 C5.296,15.763 5.324,15.819 5.352,15.875 C5.409,15.875 5.465,15.875 5.521,15.875 C5.549,15.932 5.577,15.988 5.605,16.044 C5.662,16.044 5.718,16.044 5.774,16.044 C5.774,16.072 5.774,16.101 5.774,16.129 C5.830,16.129 5.887,16.129 5.943,16.129 C5.943,16.157 5.943,16.185 5.943,16.213 C5.999,16.213 6.055,16.213 6.111,16.213 C6.111,16.241 6.111,16.269 6.111,16.298 C6.168,16.298 6.224,16.298 6.280,16.298 C6.280,16.326 6.280,16.354 6.280,16.382 C6.393,16.410 6.505,16.438 6.617,16.467 C6.617,16.495 6.617,16.523 6.617,16.551 C6.702,16.551 6.786,16.551 6.870,16.551 C7.722,16.891 8.424,17.059 9.653,17.058 C9.906,17.058 10.159,17.058 10.412,17.058 C10.412,17.030 10.412,17.001 10.412,16.973 C10.609,16.973 10.806,16.973 11.003,16.973 C11.003,16.945 11.003,16.917 11.003,16.889 C11.115,16.889 11.228,16.889 11.340,16.889 C11.340,16.861 11.340,16.832 11.340,16.804 C11.452,16.804 11.565,16.804 11.677,16.804 C11.677,16.776 11.677,16.748 11.677,16.720 C11.762,16.720 11.846,16.720 11.930,16.720 C11.930,16.692 11.930,16.664 11.930,16.635 C12.015,16.635 12.099,16.635 12.183,16.635 C12.183,16.607 12.183,16.579 12.183,16.551 C12.268,16.551 12.352,16.551 12.436,16.551 C12.436,16.523 12.436,16.495 12.436,16.467 C12.605,16.410 12.774,16.354 12.942,16.298 C12.942,16.269 12.942,16.241 12.942,16.213 C12.999,16.213 13.055,16.213 13.111,16.213 C13.111,16.185 13.111,16.157 13.111,16.129 C13.223,16.101 13.336,16.072 13.448,16.044 C13.476,15.988 13.505,15.932 13.533,15.875 C13.589,15.875 13.645,15.875 13.701,15.875 C13.729,15.819 13.758,15.763 13.786,15.706 C13.842,15.706 13.898,15.706 13.954,15.706 C14.011,15.622 14.067,15.538 14.123,15.453 C14.179,15.453 14.235,15.453 14.292,15.453 C14.517,15.200 14.741,14.946 14.966,14.693 C15.135,14.552 15.304,14.412 15.472,14.271 C15.472,14.215 15.472,14.158 15.472,14.102 C15.557,14.046 15.641,13.989 15.725,13.933 C15.725,13.877 15.725,13.820 15.725,13.764 C15.781,13.736 15.838,13.708 15.894,13.680 C15.894,13.623 15.894,13.567 15.894,13.511 C15.950,13.483 16.006,13.455 16.063,13.426 C16.063,13.370 16.063,13.314 16.063,13.257 C16.091,13.257 16.119,13.257 16.147,13.257 C16.147,13.201 16.147,13.145 16.147,13.089 C16.175,13.089 16.203,13.089 16.231,13.089 C16.231,13.032 16.231,12.976 16.231,12.920 C16.259,12.920 16.287,12.920 16.316,12.920 C16.316,12.863 16.316,12.807 16.316,12.751 C16.344,12.751 16.372,12.751 16.400,12.751 C16.428,12.638 16.456,12.526 16.484,12.413 C16.512,12.413 16.540,12.413 16.569,12.413 C16.569,12.329 16.569,12.244 16.569,12.160 C16.597,12.160 16.625,12.160 16.653,12.160 C16.653,12.075 16.653,11.991 16.653,11.906 C16.681,11.906 16.709,11.906 16.737,11.906 C16.737,11.822 16.737,11.737 16.737,11.653 C16.765,11.653 16.793,11.653 16.822,11.653 C16.822,11.540 16.822,11.428 16.822,11.315 C16.850,11.315 16.878,11.315 16.906,11.315 C16.906,11.203 16.906,11.090 16.906,10.977 C16.934,10.977 16.962,10.977 16.990,10.977 C16.990,10.808 16.990,10.640 16.990,10.471 C17.018,10.471 17.046,10.471 17.075,10.471 C17.075,10.217 17.075,9.964 17.075,9.711 C17.076,8.589 16.956,7.865 16.653,7.093 C16.625,6.924 16.597,6.755 16.569,6.586 C16.540,6.586 16.512,6.586 16.484,6.586 C16.428,6.417 16.372,6.248 16.316,6.079 C16.287,6.079 16.259,6.079 16.231,6.079 C16.231,6.023 16.231,5.967 16.231,5.910 C16.203,5.910 16.175,5.910 16.147,5.910 C16.119,5.798 16.091,5.685 16.063,5.573 C16.006,5.544 15.950,5.516 15.894,5.488 C15.894,5.432 15.894,5.376 15.894,5.319 C15.838,5.291 15.781,5.263 15.725,5.235 C15.725,5.179 15.725,5.122 15.725,5.066 C15.641,5.010 15.557,4.953 15.472,4.897 C15.472,4.841 15.472,4.784 15.472,4.728 C15.219,4.503 14.966,4.278 14.713,4.053 C14.573,3.884 14.432,3.715 14.292,3.546 C14.235,3.546 14.179,3.546 14.123,3.546 C14.067,3.461 14.011,3.377 13.954,3.292 C13.898,3.292 13.842,3.292 13.786,3.292 C13.758,3.236 13.729,3.180 13.701,3.124 C13.645,3.124 13.589,3.124 13.533,3.124 C13.505,3.067 13.476,3.011 13.448,2.955 C13.392,2.955 13.336,2.955 13.280,2.955 C13.280,2.927 13.280,2.898 13.280,2.870 C13.223,2.870 13.167,2.870 13.111,2.870 C13.111,2.842 13.111,2.814 13.111,2.786 C13.055,2.786 12.999,2.786 12.942,2.786 C12.942,2.758 12.942,2.729 12.942,2.701 C12.886,2.701 12.830,2.701 12.774,2.701 C12.774,2.673 12.774,2.645 12.774,2.617 C12.661,2.589 12.549,2.561 12.436,2.532 C12.436,2.504 12.436,2.476 12.436,2.448 C12.352,2.448 12.268,2.448 12.183,2.448 C12.183,2.420 12.183,2.392 12.183,2.364 C12.099,2.364 12.015,2.364 11.930,2.364 C11.930,2.335 11.930,2.307 11.930,2.279 C11.846,2.279 11.762,2.279 11.677,2.279 C11.677,2.251 11.677,2.223 11.677,2.195 C11.565,2.195 11.452,2.195 11.340,2.195 C11.340,2.167 11.340,2.138 11.340,2.110 C11.228,2.110 11.115,2.110 11.003,2.110 C11.003,2.082 11.003,2.054 11.003,2.026 C10.216,1.998 9.428,1.969 8.641,1.941 ZM8.557,4.728 C9.204,4.728 9.850,4.728 10.497,4.728 C10.497,6.952 10.497,9.176 10.497,11.400 C9.850,11.400 9.204,11.400 8.557,11.400 C8.557,9.176 8.557,6.952 8.557,4.728 ZM8.557,12.329 C9.204,12.329 9.850,12.329 10.497,12.329 C10.497,12.976 10.497,13.623 10.497,14.271 C9.850,14.271 9.204,14.271 8.557,14.271 C8.557,13.623 8.557,12.976 8.557,12.329 Z"/>
</svg>