<svg 
 xmlns="http://www.w3.org/2000/svg"
 xmlns:xlink="http://www.w3.org/1999/xlink"
 width="14px" height="14px">
<path fill-rule="evenodd"  fill="rgb(61, 61, 61)"
 d="M8.558,5.944 C7.845,5.944 7.132,5.944 6.419,5.944 C6.419,3.976 6.419,2.007 6.419,0.040 C6.585,-0.020 6.881,0.002 7.107,0.002 C7.578,0.002 8.049,0.002 8.520,0.002 C8.574,0.148 8.558,0.404 8.558,0.607 C8.558,1.011 8.558,1.415 8.558,1.818 C8.558,3.193 8.558,4.569 8.558,5.944 ZM4.471,1.894 C4.497,2.011 4.575,2.070 4.624,2.159 C4.624,2.184 4.624,2.209 4.624,2.235 C4.636,2.235 4.649,2.235 4.662,2.235 C4.662,2.260 4.662,2.285 4.662,2.310 C4.674,2.310 4.687,2.310 4.700,2.310 C4.700,2.336 4.700,2.361 4.700,2.386 C4.713,2.386 4.725,2.386 4.738,2.386 C4.738,2.411 4.738,2.437 4.738,2.462 C4.751,2.462 4.764,2.462 4.776,2.462 C4.776,2.487 4.776,2.512 4.776,2.538 C4.802,2.550 4.827,2.563 4.853,2.575 C4.853,2.601 4.853,2.626 4.853,2.651 C4.866,2.651 4.878,2.651 4.891,2.651 C4.891,2.676 4.891,2.701 4.891,2.727 C4.904,2.727 4.916,2.727 4.929,2.727 C4.929,2.752 4.929,2.777 4.929,2.802 C4.942,2.802 4.955,2.802 4.967,2.802 C4.967,2.828 4.967,2.853 4.967,2.878 C4.980,2.878 4.993,2.878 5.006,2.878 C5.031,2.954 5.057,3.029 5.082,3.105 C5.107,3.118 5.133,3.130 5.158,3.143 C5.254,3.293 5.295,3.563 5.426,3.673 C5.404,3.749 5.430,3.706 5.388,3.749 C5.307,3.867 5.234,3.828 5.120,3.900 C5.107,3.925 5.095,3.950 5.082,3.976 C5.057,3.976 5.031,3.976 5.006,3.976 C4.980,4.013 4.955,4.051 4.929,4.089 C4.904,4.089 4.878,4.089 4.853,4.089 C4.827,4.127 4.802,4.165 4.776,4.203 C4.751,4.203 4.725,4.203 4.700,4.203 C4.611,4.304 4.522,4.405 4.433,4.505 C4.318,4.606 4.203,4.707 4.089,4.808 C4.089,4.833 4.089,4.859 4.089,4.884 C4.051,4.909 4.012,4.934 3.974,4.960 C3.974,4.985 3.974,5.010 3.974,5.035 C3.936,5.061 3.898,5.086 3.859,5.111 C3.859,5.136 3.859,5.161 3.859,5.187 C3.834,5.199 3.809,5.212 3.783,5.224 C3.770,5.275 3.758,5.325 3.745,5.376 C3.719,5.388 3.694,5.401 3.668,5.414 C3.656,5.464 3.643,5.515 3.630,5.565 C3.618,5.565 3.605,5.565 3.592,5.565 C3.567,5.641 3.541,5.716 3.516,5.792 C3.503,5.792 3.490,5.792 3.477,5.792 C3.477,5.830 3.477,5.868 3.477,5.906 C3.465,5.906 3.452,5.906 3.439,5.906 C3.439,5.931 3.439,5.956 3.439,5.981 C3.427,5.981 3.414,5.981 3.401,5.981 C3.401,6.019 3.401,6.057 3.401,6.095 C3.388,6.095 3.376,6.095 3.363,6.095 C3.363,6.133 3.363,6.171 3.363,6.208 C3.350,6.208 3.337,6.208 3.325,6.208 C3.325,6.246 3.325,6.284 3.325,6.322 C3.312,6.322 3.299,6.322 3.286,6.322 C3.286,6.360 3.286,6.398 3.286,6.436 C3.274,6.436 3.261,6.436 3.248,6.436 C3.248,6.486 3.248,6.536 3.248,6.587 C3.082,7.093 3.081,8.049 3.248,8.555 C3.248,8.605 3.248,8.656 3.248,8.706 C3.261,8.706 3.274,8.706 3.286,8.706 C3.286,8.744 3.286,8.782 3.286,8.820 C3.299,8.820 3.312,8.820 3.325,8.820 C3.325,8.858 3.325,8.895 3.325,8.933 C3.337,8.933 3.350,8.933 3.363,8.933 C3.363,8.971 3.363,9.009 3.363,9.047 C3.376,9.047 3.388,9.047 3.401,9.047 C3.401,9.085 3.401,9.123 3.401,9.160 C3.414,9.160 3.427,9.160 3.439,9.160 C3.439,9.186 3.439,9.211 3.439,9.236 C3.452,9.236 3.465,9.236 3.477,9.236 C3.477,9.274 3.477,9.312 3.477,9.350 C3.490,9.350 3.503,9.350 3.516,9.350 C3.528,9.400 3.541,9.450 3.554,9.501 C3.567,9.501 3.579,9.501 3.592,9.501 C3.605,9.551 3.618,9.602 3.630,9.652 C3.656,9.665 3.681,9.678 3.707,9.690 C3.719,9.741 3.732,9.791 3.745,9.842 C3.770,9.854 3.796,9.867 3.821,9.879 C3.821,9.905 3.821,9.930 3.821,9.955 C3.834,9.955 3.847,9.955 3.859,9.955 C3.872,9.993 3.885,10.031 3.898,10.069 C3.923,10.081 3.949,10.094 3.974,10.106 C3.974,10.132 3.974,10.157 3.974,10.182 C4.025,10.220 4.076,10.258 4.127,10.296 C4.127,10.321 4.127,10.346 4.127,10.371 C4.216,10.447 4.305,10.523 4.394,10.598 C4.483,10.699 4.573,10.800 4.662,10.901 C4.687,10.901 4.713,10.901 4.738,10.901 C4.776,10.952 4.815,11.002 4.853,11.053 C4.878,11.053 4.904,11.053 4.929,11.053 C4.942,11.078 4.955,11.103 4.967,11.128 C5.006,11.141 5.044,11.153 5.082,11.166 C5.082,11.179 5.082,11.191 5.082,11.204 C5.107,11.204 5.133,11.204 5.158,11.204 C5.171,11.229 5.184,11.254 5.197,11.280 C5.248,11.292 5.298,11.305 5.349,11.317 C5.362,11.343 5.375,11.368 5.388,11.393 C5.439,11.406 5.489,11.418 5.540,11.431 C5.540,11.444 5.540,11.456 5.540,11.469 C5.591,11.481 5.642,11.494 5.693,11.507 C5.693,11.519 5.693,11.532 5.693,11.545 C5.731,11.545 5.770,11.545 5.808,11.545 C5.808,11.557 5.808,11.570 5.808,11.582 C5.833,11.582 5.859,11.582 5.884,11.582 C5.884,11.595 5.884,11.608 5.884,11.620 C5.922,11.620 5.961,11.620 5.999,11.620 C5.999,11.633 5.999,11.645 5.999,11.658 C6.037,11.658 6.075,11.658 6.113,11.658 C6.514,11.814 6.910,11.885 7.489,11.885 C7.667,11.885 7.845,11.885 8.024,11.885 C8.024,11.873 8.024,11.860 8.024,11.847 C8.113,11.847 8.202,11.847 8.291,11.847 C8.291,11.835 8.291,11.822 8.291,11.810 C8.355,11.810 8.418,11.810 8.482,11.810 C8.482,11.797 8.482,11.784 8.482,11.772 C8.533,11.772 8.584,11.772 8.635,11.772 C8.635,11.759 8.635,11.746 8.635,11.734 C8.673,11.734 8.711,11.734 8.749,11.734 C8.749,11.721 8.749,11.709 8.749,11.696 C8.788,11.696 8.826,11.696 8.864,11.696 C8.864,11.683 8.864,11.671 8.864,11.658 C8.902,11.658 8.941,11.658 8.979,11.658 C8.979,11.645 8.979,11.633 8.979,11.620 C9.017,11.620 9.055,11.620 9.093,11.620 C9.093,11.608 9.093,11.595 9.093,11.582 C9.119,11.582 9.144,11.582 9.170,11.582 C9.170,11.570 9.170,11.557 9.170,11.545 C9.208,11.545 9.246,11.545 9.284,11.545 C9.284,11.532 9.284,11.519 9.284,11.507 C9.335,11.494 9.386,11.481 9.437,11.469 C9.437,11.456 9.437,11.444 9.437,11.431 C9.488,11.418 9.539,11.406 9.590,11.393 C9.603,11.368 9.615,11.343 9.628,11.317 C9.679,11.305 9.730,11.292 9.781,11.280 C9.794,11.254 9.806,11.229 9.819,11.204 C9.845,11.204 9.870,11.204 9.896,11.204 C9.896,11.191 9.896,11.179 9.896,11.166 C9.934,11.153 9.972,11.141 10.010,11.128 C10.023,11.103 10.036,11.078 10.048,11.053 C10.074,11.053 10.099,11.053 10.125,11.053 C10.163,11.002 10.201,10.952 10.239,10.901 C10.265,10.901 10.290,10.901 10.316,10.901 C10.392,10.813 10.469,10.725 10.545,10.636 C10.647,10.548 10.749,10.460 10.851,10.371 C10.851,10.346 10.851,10.321 10.851,10.296 C10.902,10.258 10.952,10.220 11.003,10.182 C11.003,10.157 11.003,10.132 11.003,10.106 C11.029,10.094 11.054,10.081 11.080,10.069 C11.093,10.031 11.105,9.993 11.118,9.955 C11.131,9.955 11.144,9.955 11.156,9.955 C11.156,9.930 11.156,9.905 11.156,9.879 C11.182,9.867 11.207,9.854 11.233,9.842 C11.245,9.791 11.258,9.741 11.271,9.690 C11.296,9.678 11.322,9.665 11.347,9.652 C11.360,9.602 11.373,9.551 11.385,9.501 C11.398,9.501 11.411,9.501 11.424,9.501 C11.436,9.450 11.449,9.400 11.462,9.350 C11.475,9.350 11.487,9.350 11.500,9.350 C11.500,9.312 11.500,9.274 11.500,9.236 C11.513,9.236 11.526,9.236 11.538,9.236 C11.538,9.211 11.538,9.186 11.538,9.160 C11.551,9.160 11.564,9.160 11.576,9.160 C11.589,9.085 11.602,9.009 11.615,8.933 C11.772,8.536 11.844,8.145 11.844,7.571 C11.844,7.394 11.844,7.218 11.844,7.041 C11.831,7.041 11.818,7.041 11.806,7.041 C11.806,6.953 11.806,6.864 11.806,6.776 C11.704,6.448 11.602,6.120 11.500,5.792 C11.487,5.792 11.475,5.792 11.462,5.792 C11.436,5.716 11.411,5.641 11.385,5.565 C11.373,5.565 11.360,5.565 11.347,5.565 C11.335,5.515 11.322,5.464 11.309,5.414 C11.284,5.401 11.258,5.388 11.233,5.376 C11.220,5.325 11.207,5.275 11.194,5.224 C11.169,5.212 11.144,5.199 11.118,5.187 C11.118,5.161 11.118,5.136 11.118,5.111 C11.080,5.086 11.042,5.061 11.003,5.035 C11.003,5.010 11.003,4.985 11.003,4.960 C10.965,4.934 10.927,4.909 10.889,4.884 C10.889,4.859 10.889,4.833 10.889,4.808 C10.774,4.707 10.660,4.606 10.545,4.505 C10.456,4.405 10.367,4.304 10.278,4.203 C10.252,4.203 10.227,4.203 10.201,4.203 C10.176,4.165 10.150,4.127 10.125,4.089 C10.099,4.089 10.074,4.089 10.048,4.089 C10.023,4.051 9.997,4.013 9.972,3.976 C9.946,3.976 9.921,3.976 9.896,3.976 C9.883,3.950 9.870,3.925 9.857,3.900 C9.832,3.900 9.806,3.900 9.781,3.900 C9.781,3.887 9.781,3.875 9.781,3.862 C9.755,3.862 9.730,3.862 9.705,3.862 C9.692,3.837 9.679,3.812 9.666,3.786 C9.572,3.720 9.599,3.826 9.552,3.673 C9.690,3.548 9.716,3.306 9.819,3.143 C9.845,3.130 9.870,3.118 9.896,3.105 C9.896,3.080 9.896,3.055 9.896,3.029 C9.908,3.029 9.921,3.029 9.934,3.029 C9.934,3.004 9.934,2.979 9.934,2.954 C9.946,2.954 9.959,2.954 9.972,2.954 C9.972,2.929 9.972,2.903 9.972,2.878 C9.985,2.878 9.997,2.878 10.010,2.878 C10.010,2.853 10.010,2.828 10.010,2.802 C10.023,2.802 10.036,2.802 10.048,2.802 C10.048,2.777 10.048,2.752 10.048,2.727 C10.061,2.727 10.074,2.727 10.087,2.727 C10.087,2.701 10.087,2.676 10.087,2.651 C10.099,2.651 10.112,2.651 10.125,2.651 C10.125,2.626 10.125,2.601 10.125,2.575 C10.137,2.575 10.150,2.575 10.163,2.575 C10.163,2.550 10.163,2.525 10.163,2.500 C10.188,2.487 10.214,2.474 10.239,2.462 C10.252,2.411 10.265,2.361 10.278,2.310 C10.290,2.310 10.303,2.310 10.316,2.310 C10.316,2.285 10.316,2.260 10.316,2.235 C10.328,2.235 10.341,2.235 10.354,2.235 C10.354,2.209 10.354,2.184 10.354,2.159 C10.367,2.159 10.379,2.159 10.392,2.159 C10.437,2.076 10.469,1.976 10.507,1.894 C10.584,1.916 10.540,1.890 10.583,1.932 C10.718,1.962 10.756,2.029 10.851,2.083 C10.876,2.083 10.902,2.083 10.927,2.083 C10.940,2.109 10.952,2.134 10.965,2.159 C10.991,2.159 11.016,2.159 11.042,2.159 C11.054,2.184 11.067,2.209 11.080,2.235 C11.105,2.235 11.131,2.235 11.156,2.235 C11.169,2.260 11.182,2.285 11.194,2.310 C11.220,2.310 11.245,2.310 11.271,2.310 C11.296,2.348 11.322,2.386 11.347,2.424 C11.373,2.424 11.398,2.424 11.424,2.424 C11.449,2.462 11.475,2.500 11.500,2.538 C11.526,2.538 11.551,2.538 11.576,2.538 C11.615,2.588 11.653,2.638 11.691,2.689 C11.729,2.701 11.767,2.714 11.806,2.727 C11.882,2.815 11.958,2.903 12.035,2.992 C12.149,3.093 12.264,3.193 12.379,3.294 C12.379,3.320 12.379,3.345 12.379,3.370 C12.442,3.421 12.506,3.471 12.570,3.521 C12.570,3.547 12.570,3.572 12.570,3.597 C12.595,3.610 12.621,3.622 12.646,3.635 C12.646,3.648 12.646,3.660 12.646,3.673 C12.672,3.685 12.697,3.698 12.723,3.711 C12.723,3.736 12.723,3.761 12.723,3.786 C12.748,3.799 12.773,3.812 12.799,3.824 C12.799,3.849 12.799,3.875 12.799,3.900 C12.824,3.913 12.850,3.925 12.875,3.938 C12.875,3.963 12.875,3.988 12.875,4.013 C12.901,4.026 12.926,4.039 12.952,4.051 C12.952,4.076 12.952,4.102 12.952,4.127 C12.977,4.140 13.003,4.152 13.028,4.165 C13.206,4.518 13.385,4.871 13.563,5.224 C13.678,5.628 13.792,6.032 13.907,6.436 C13.907,6.524 13.907,6.612 13.907,6.700 C13.996,7.011 14.044,7.751 13.945,8.101 C13.945,8.214 13.945,8.328 13.945,8.441 C13.856,8.832 13.767,9.223 13.678,9.614 C13.665,9.614 13.652,9.614 13.639,9.614 C13.639,9.640 13.639,9.665 13.639,9.690 C13.627,9.690 13.614,9.690 13.601,9.690 C13.588,9.766 13.576,9.842 13.563,9.917 C13.550,9.917 13.537,9.917 13.525,9.917 C13.525,9.942 13.525,9.968 13.525,9.993 C13.512,9.993 13.499,9.993 13.487,9.993 C13.487,10.031 13.487,10.069 13.487,10.106 C13.474,10.106 13.461,10.106 13.448,10.106 C13.423,10.182 13.397,10.258 13.372,10.334 C13.359,10.334 13.346,10.334 13.334,10.334 C13.334,10.359 13.334,10.384 13.334,10.409 C13.321,10.409 13.308,10.409 13.296,10.409 C13.296,10.434 13.296,10.460 13.296,10.485 C13.283,10.485 13.270,10.485 13.257,10.485 C13.257,10.510 13.257,10.535 13.257,10.561 C13.245,10.561 13.232,10.561 13.219,10.561 C13.219,10.586 13.219,10.611 13.219,10.636 C13.206,10.636 13.194,10.636 13.181,10.636 C13.181,10.662 13.181,10.687 13.181,10.712 C13.168,10.712 13.155,10.712 13.143,10.712 C13.143,10.737 13.143,10.762 13.143,10.788 C13.117,10.800 13.092,10.813 13.066,10.825 C13.054,10.876 13.041,10.926 13.028,10.977 C13.003,10.990 12.977,11.002 12.952,11.015 C12.952,11.040 12.952,11.065 12.952,11.090 C12.939,11.090 12.926,11.090 12.914,11.090 C12.901,11.128 12.888,11.166 12.875,11.204 C12.850,11.217 12.824,11.229 12.799,11.242 C12.799,11.267 12.799,11.292 12.799,11.317 C12.761,11.343 12.723,11.368 12.684,11.393 C12.684,11.418 12.684,11.444 12.684,11.469 C12.646,11.494 12.608,11.519 12.570,11.545 C12.570,11.570 12.570,11.595 12.570,11.620 C12.506,11.671 12.442,11.721 12.379,11.772 C12.379,11.797 12.379,11.822 12.379,11.847 C12.251,11.961 12.124,12.074 11.997,12.188 C11.933,12.264 11.869,12.339 11.806,12.415 C11.780,12.415 11.755,12.415 11.729,12.415 C11.678,12.478 11.627,12.541 11.576,12.604 C11.551,12.604 11.526,12.604 11.500,12.604 C11.475,12.642 11.449,12.680 11.424,12.718 C11.385,12.730 11.347,12.743 11.309,12.756 C11.296,12.781 11.284,12.806 11.271,12.831 C11.245,12.831 11.220,12.831 11.194,12.831 C11.182,12.857 11.169,12.882 11.156,12.907 C11.118,12.920 11.080,12.932 11.042,12.945 C11.042,12.957 11.042,12.970 11.042,12.983 C11.016,12.983 10.991,12.983 10.965,12.983 C10.952,13.008 10.940,13.033 10.927,13.058 C10.876,13.071 10.825,13.084 10.774,13.096 C10.761,13.121 10.749,13.147 10.736,13.172 C10.711,13.172 10.685,13.172 10.660,13.172 C10.660,13.185 10.660,13.197 10.660,13.210 C10.634,13.210 10.609,13.210 10.583,13.210 C10.583,13.222 10.583,13.235 10.583,13.248 C10.558,13.248 10.532,13.248 10.507,13.248 C10.507,13.260 10.507,13.273 10.507,13.285 C10.481,13.285 10.456,13.285 10.430,13.285 C10.430,13.298 10.430,13.311 10.430,13.323 C10.405,13.323 10.379,13.323 10.354,13.323 C10.354,13.336 10.354,13.348 10.354,13.361 C10.328,13.361 10.303,13.361 10.278,13.361 C10.278,13.374 10.278,13.386 10.278,13.399 C10.201,13.424 10.125,13.449 10.048,13.475 C10.048,13.487 10.048,13.500 10.048,13.512 C10.010,13.512 9.972,13.512 9.934,13.512 C9.934,13.525 9.934,13.538 9.934,13.550 C9.908,13.550 9.883,13.550 9.857,13.550 C9.857,13.563 9.857,13.576 9.857,13.588 C9.781,13.601 9.705,13.613 9.628,13.626 C9.628,13.639 9.628,13.651 9.628,13.664 C9.603,13.664 9.577,13.664 9.552,13.664 C9.552,13.676 9.552,13.689 9.552,13.702 C9.501,13.702 9.450,13.702 9.399,13.702 C9.399,13.714 9.399,13.727 9.399,13.740 C9.361,13.740 9.323,13.740 9.284,13.740 C9.284,13.752 9.284,13.765 9.284,13.777 C9.233,13.777 9.182,13.777 9.132,13.777 C9.132,13.790 9.132,13.803 9.132,13.815 C9.081,13.815 9.030,13.815 8.979,13.815 C8.979,13.828 8.979,13.840 8.979,13.853 C8.928,13.853 8.877,13.853 8.826,13.853 C8.826,13.866 8.826,13.878 8.826,13.891 C8.559,13.916 8.291,13.941 8.024,13.967 C7.890,14.004 7.138,14.056 6.954,14.004 C6.954,13.992 6.954,13.979 6.954,13.967 C6.839,13.967 6.725,13.967 6.610,13.967 C6.610,13.954 6.610,13.941 6.610,13.929 C6.521,13.929 6.432,13.929 6.343,13.929 C6.343,13.916 6.343,13.904 6.343,13.891 C6.279,13.891 6.215,13.891 6.152,13.891 C6.152,13.878 6.152,13.866 6.152,13.853 C6.101,13.853 6.050,13.853 5.999,13.853 C5.999,13.840 5.999,13.828 5.999,13.815 C5.948,13.815 5.897,13.815 5.846,13.815 C5.846,13.803 5.846,13.790 5.846,13.777 C5.795,13.777 5.744,13.777 5.693,13.777 C5.693,13.765 5.693,13.752 5.693,13.740 C5.655,13.740 5.617,13.740 5.579,13.740 C5.579,13.727 5.579,13.714 5.579,13.702 C5.528,13.702 5.477,13.702 5.426,13.702 C5.426,13.689 5.426,13.676 5.426,13.664 C5.400,13.664 5.375,13.664 5.349,13.664 C5.349,13.651 5.349,13.639 5.349,13.626 C5.273,13.613 5.197,13.601 5.120,13.588 C5.120,13.576 5.120,13.563 5.120,13.550 C5.095,13.550 5.069,13.550 5.044,13.550 C5.044,13.538 5.044,13.525 5.044,13.512 C5.006,13.512 4.967,13.512 4.929,13.512 C4.929,13.500 4.929,13.487 4.929,13.475 C4.853,13.449 4.776,13.424 4.700,13.399 C4.700,13.386 4.700,13.374 4.700,13.361 C4.674,13.361 4.649,13.361 4.624,13.361 C4.624,13.348 4.624,13.336 4.624,13.323 C4.598,13.323 4.573,13.323 4.547,13.323 C4.547,13.311 4.547,13.298 4.547,13.285 C4.522,13.285 4.496,13.285 4.471,13.285 C4.471,13.273 4.471,13.260 4.471,13.248 C4.445,13.248 4.420,13.248 4.394,13.248 C4.394,13.235 4.394,13.222 4.394,13.210 C4.369,13.210 4.343,13.210 4.318,13.210 C4.318,13.197 4.318,13.185 4.318,13.172 C4.292,13.172 4.267,13.172 4.242,13.172 C4.242,13.159 4.242,13.147 4.242,13.134 C4.216,13.134 4.191,13.134 4.165,13.134 C4.165,13.121 4.165,13.109 4.165,13.096 C4.127,13.084 4.089,13.071 4.051,13.058 C4.038,13.033 4.025,13.008 4.012,12.983 C3.987,12.983 3.961,12.983 3.936,12.983 C3.923,12.957 3.910,12.932 3.898,12.907 C3.872,12.907 3.847,12.907 3.821,12.907 C3.821,12.894 3.821,12.882 3.821,12.869 C3.783,12.857 3.745,12.844 3.707,12.831 C3.694,12.806 3.681,12.781 3.668,12.756 C3.643,12.756 3.618,12.756 3.592,12.756 C3.579,12.730 3.567,12.705 3.554,12.680 C3.541,12.680 3.528,12.680 3.516,12.680 C3.503,12.655 3.490,12.629 3.477,12.604 C3.452,12.604 3.427,12.604 3.401,12.604 C3.350,12.541 3.299,12.478 3.248,12.415 C2.386,11.798 1.783,10.761 1.338,9.728 C1.300,9.551 1.262,9.375 1.224,9.198 C1.026,8.614 0.861,7.424 1.071,6.700 C1.071,6.612 1.071,6.524 1.071,6.436 C1.185,6.032 1.300,5.628 1.415,5.224 C1.593,4.871 1.771,4.518 1.949,4.165 C1.975,4.152 2.000,4.140 2.026,4.127 C2.026,4.102 2.026,4.076 2.026,4.051 C2.051,4.039 2.077,4.026 2.102,4.013 C2.102,3.988 2.102,3.963 2.102,3.938 C2.128,3.925 2.153,3.913 2.179,3.900 C2.179,3.875 2.179,3.849 2.179,3.824 C2.204,3.812 2.229,3.799 2.255,3.786 C2.255,3.761 2.255,3.736 2.255,3.711 C2.280,3.698 2.306,3.685 2.331,3.673 C2.331,3.660 2.331,3.648 2.331,3.635 C2.357,3.622 2.382,3.610 2.408,3.597 C2.408,3.572 2.408,3.547 2.408,3.521 C2.459,3.484 2.510,3.446 2.561,3.408 C2.561,3.383 2.561,3.357 2.561,3.332 C2.701,3.206 2.841,3.080 2.981,2.954 C3.045,2.878 3.108,2.802 3.172,2.727 C3.197,2.727 3.223,2.727 3.248,2.727 C3.299,2.664 3.350,2.601 3.401,2.538 C3.427,2.538 3.452,2.538 3.477,2.538 C3.503,2.500 3.528,2.462 3.554,2.424 C3.579,2.424 3.605,2.424 3.630,2.424 C3.656,2.386 3.681,2.348 3.707,2.310 C3.732,2.310 3.758,2.310 3.783,2.310 C3.796,2.285 3.809,2.260 3.821,2.235 C3.847,2.235 3.872,2.235 3.898,2.235 C3.910,2.209 3.923,2.184 3.936,2.159 C3.961,2.159 3.987,2.159 4.012,2.159 C4.025,2.134 4.038,2.109 4.051,2.083 C4.101,2.071 4.152,2.058 4.203,2.046 C4.216,2.020 4.229,1.995 4.242,1.970 C4.318,1.945 4.394,1.919 4.471,1.894 Z"/>
</svg>