<svg 
 xmlns="http://www.w3.org/2000/svg"
 xmlns:xlink="http://www.w3.org/1999/xlink"
 width="14px" height="14px">
<path fill-rule="evenodd"  fill="rgb(196, 135, 230)"
 d="M10.746,0.003 C10.911,0.002 11.132,-0.012 11.260,0.026 C11.305,0.026 11.350,0.026 11.394,0.026 C11.394,0.033 11.394,0.041 11.394,0.048 C11.417,0.048 11.439,0.048 11.461,0.048 C11.461,0.056 11.461,0.063 11.461,0.071 C11.484,0.071 11.506,0.071 11.528,0.071 C11.528,0.078 11.528,0.085 11.528,0.093 C11.551,0.093 11.573,0.093 11.595,0.093 C11.595,0.100 11.595,0.108 11.595,0.115 C11.640,0.123 11.685,0.130 11.729,0.138 C11.729,0.145 11.729,0.153 11.729,0.160 C11.744,0.160 11.759,0.160 11.774,0.160 C11.782,0.175 11.789,0.190 11.797,0.205 C11.811,0.205 11.826,0.205 11.841,0.205 C11.841,0.212 11.841,0.220 11.841,0.227 C11.856,0.227 11.871,0.227 11.886,0.227 C11.886,0.234 11.886,0.242 11.886,0.249 C11.901,0.249 11.916,0.249 11.931,0.249 C11.931,0.257 11.931,0.264 11.931,0.272 C11.945,0.272 11.960,0.272 11.975,0.272 C11.998,0.302 12.020,0.331 12.042,0.361 C12.057,0.361 12.072,0.361 12.087,0.361 C12.117,0.398 12.146,0.436 12.176,0.473 C12.191,0.473 12.206,0.473 12.221,0.473 C12.519,0.779 12.817,1.084 13.115,1.390 C13.249,1.516 13.383,1.643 13.517,1.770 C13.517,1.785 13.517,1.800 13.517,1.815 C13.562,1.852 13.606,1.889 13.651,1.926 C13.651,1.941 13.651,1.956 13.651,1.971 C13.673,1.986 13.696,2.001 13.718,2.016 C13.733,2.060 13.748,2.105 13.763,2.150 C13.777,2.157 13.792,2.165 13.807,2.172 C13.807,2.187 13.807,2.202 13.807,2.217 C13.815,2.217 13.822,2.217 13.830,2.217 C13.830,2.232 13.830,2.247 13.830,2.262 C13.837,2.262 13.845,2.262 13.852,2.262 C13.859,2.306 13.867,2.351 13.874,2.396 C13.882,2.396 13.889,2.396 13.897,2.396 C13.897,2.418 13.897,2.441 13.897,2.463 C13.904,2.463 13.911,2.463 13.919,2.463 C13.919,2.485 13.919,2.508 13.919,2.530 C13.926,2.530 13.934,2.530 13.941,2.530 C13.941,2.552 13.941,2.575 13.941,2.597 C13.949,2.597 13.956,2.597 13.964,2.597 C13.964,2.642 13.964,2.687 13.964,2.731 C13.971,2.731 13.979,2.731 13.986,2.731 C14.017,2.842 13.987,3.166 13.964,3.245 C13.964,3.290 13.964,3.335 13.964,3.380 C13.956,3.380 13.949,3.380 13.941,3.380 C13.941,3.402 13.941,3.424 13.941,3.447 C13.934,3.447 13.926,3.447 13.919,3.447 C13.919,3.476 13.919,3.506 13.919,3.536 C13.911,3.536 13.904,3.536 13.897,3.536 C13.897,3.551 13.897,3.566 13.897,3.581 C13.889,3.581 13.882,3.581 13.874,3.581 C13.874,3.603 13.874,3.626 13.874,3.648 C13.867,3.648 13.859,3.648 13.852,3.648 C13.852,3.670 13.852,3.693 13.852,3.715 C13.845,3.715 13.837,3.715 13.830,3.715 C13.822,3.745 13.815,3.775 13.807,3.804 C13.800,3.804 13.792,3.804 13.785,3.804 C13.785,3.819 13.785,3.834 13.785,3.849 C13.770,3.857 13.755,3.864 13.740,3.871 C13.733,3.901 13.725,3.931 13.718,3.961 C13.703,3.968 13.688,3.976 13.673,3.983 C13.673,3.998 13.673,4.013 13.673,4.028 C13.651,4.043 13.628,4.058 13.606,4.073 C13.606,4.088 13.606,4.103 13.606,4.117 C13.562,4.155 13.517,4.192 13.472,4.229 C13.271,4.438 13.070,4.647 12.869,4.855 C12.844,4.836 12.866,4.858 12.846,4.833 C12.795,4.803 12.775,4.761 12.735,4.721 C12.645,4.632 12.556,4.542 12.467,4.453 C12.422,4.416 12.377,4.378 12.333,4.341 C12.102,4.103 11.871,3.864 11.640,3.626 C11.476,3.469 11.312,3.313 11.149,3.156 C10.739,2.739 10.329,2.321 9.920,1.904 C9.882,1.874 9.845,1.844 9.808,1.815 C9.667,1.665 9.525,1.516 9.384,1.367 C9.304,1.287 9.196,1.222 9.138,1.121 C9.413,0.853 9.689,0.585 9.964,0.316 C9.979,0.316 9.994,0.316 10.009,0.316 C10.017,0.302 10.024,0.287 10.031,0.272 C10.076,0.257 10.121,0.242 10.165,0.227 C10.173,0.212 10.180,0.197 10.188,0.182 C10.203,0.182 10.218,0.182 10.233,0.182 C10.233,0.175 10.233,0.167 10.233,0.160 C10.247,0.160 10.262,0.160 10.277,0.160 C10.277,0.153 10.277,0.145 10.277,0.138 C10.300,0.138 10.322,0.138 10.344,0.138 C10.344,0.130 10.344,0.123 10.344,0.115 C10.367,0.115 10.389,0.115 10.411,0.115 C10.411,0.108 10.411,0.100 10.411,0.093 C10.426,0.093 10.441,0.093 10.456,0.093 C10.456,0.085 10.456,0.078 10.456,0.071 C10.486,0.071 10.516,0.071 10.545,0.071 C10.545,0.063 10.545,0.056 10.545,0.048 C10.568,0.048 10.590,0.048 10.612,0.048 C10.612,0.041 10.612,0.033 10.612,0.026 C10.657,0.026 10.702,0.026 10.746,0.026 C10.746,0.018 10.746,0.011 10.746,0.003 ZM8.602,1.837 C8.674,1.854 8.718,1.899 8.736,1.971 C8.805,1.987 8.831,2.015 8.847,2.083 C8.935,2.104 8.912,2.137 8.959,2.195 C8.981,2.202 9.004,2.210 9.026,2.217 C9.026,2.224 9.026,2.232 9.026,2.239 C9.065,2.274 9.077,2.265 9.093,2.329 C9.108,2.329 9.123,2.329 9.138,2.329 C9.138,2.359 9.138,2.388 9.138,2.418 C9.123,2.418 9.108,2.418 9.093,2.418 C9.082,2.437 9.017,2.541 9.004,2.552 C8.989,2.552 8.974,2.552 8.959,2.552 C8.959,2.560 8.959,2.567 8.959,2.575 C8.944,2.582 8.929,2.590 8.914,2.597 C8.907,2.619 8.899,2.642 8.892,2.664 C8.870,2.672 8.847,2.679 8.825,2.687 C8.803,2.724 8.780,2.761 8.758,2.798 C8.743,2.798 8.728,2.798 8.713,2.798 C8.713,2.806 8.713,2.813 8.713,2.821 C8.698,2.828 8.683,2.836 8.669,2.843 C8.669,2.858 8.669,2.873 8.669,2.888 C8.619,2.954 8.566,2.909 8.535,3.022 C8.520,3.022 8.505,3.022 8.490,3.022 C8.479,3.041 8.414,3.145 8.400,3.156 C8.386,3.156 8.371,3.156 8.356,3.156 C8.356,3.164 8.356,3.171 8.356,3.178 C8.341,3.186 8.326,3.193 8.311,3.201 C8.304,3.223 8.296,3.245 8.289,3.268 C8.234,3.323 8.205,3.278 8.177,3.380 C8.162,3.380 8.147,3.380 8.132,3.380 C8.100,3.435 8.062,3.442 8.043,3.514 C8.028,3.514 8.013,3.514 7.998,3.514 C7.988,3.533 7.922,3.637 7.909,3.648 C7.894,3.648 7.879,3.648 7.864,3.648 C7.864,3.655 7.864,3.663 7.864,3.670 C7.849,3.678 7.835,3.685 7.820,3.693 C7.812,3.715 7.805,3.737 7.797,3.760 C7.782,3.760 7.767,3.760 7.753,3.760 C7.738,3.782 7.723,3.804 7.708,3.827 C7.663,3.864 7.618,3.901 7.574,3.939 C7.574,3.953 7.574,3.968 7.574,3.983 C7.552,3.991 7.529,3.998 7.507,4.006 C7.470,4.050 7.432,4.095 7.395,4.140 C7.373,4.155 7.350,4.170 7.328,4.185 C7.328,4.199 7.328,4.214 7.328,4.229 C7.278,4.296 7.226,4.250 7.194,4.363 C7.179,4.363 7.164,4.363 7.149,4.363 C7.122,4.411 7.099,4.412 7.082,4.475 C7.067,4.475 7.053,4.475 7.038,4.475 C7.000,4.527 6.963,4.580 6.926,4.632 C6.911,4.632 6.896,4.632 6.881,4.632 C6.874,4.647 6.866,4.662 6.859,4.676 C6.852,4.676 6.844,4.676 6.837,4.676 C6.829,4.699 6.822,4.721 6.814,4.743 C6.799,4.743 6.784,4.743 6.770,4.743 C6.770,4.751 6.770,4.758 6.770,4.766 C6.747,4.781 6.725,4.796 6.703,4.811 C6.695,4.833 6.688,4.855 6.680,4.878 C6.665,4.878 6.650,4.878 6.635,4.878 C6.635,4.885 6.635,4.893 6.635,4.900 C6.621,4.907 6.606,4.915 6.591,4.922 C6.591,4.937 6.591,4.952 6.591,4.967 C6.568,4.975 6.546,4.982 6.524,4.989 C6.524,4.997 6.524,5.004 6.524,5.012 C6.484,5.047 6.474,5.038 6.457,5.101 C6.442,5.101 6.427,5.101 6.412,5.101 C6.375,5.153 6.338,5.206 6.300,5.258 C6.285,5.258 6.271,5.258 6.256,5.258 C6.256,5.265 6.256,5.273 6.256,5.280 C6.223,5.311 6.227,5.292 6.211,5.347 C6.196,5.347 6.181,5.347 6.166,5.347 C6.134,5.402 6.096,5.409 6.077,5.481 C6.062,5.481 6.047,5.481 6.032,5.481 C5.953,5.619 5.806,5.707 5.697,5.817 C5.660,5.869 5.623,5.921 5.585,5.973 C5.571,5.973 5.556,5.973 5.541,5.973 C5.533,5.988 5.526,6.003 5.518,6.018 C5.459,6.070 5.399,6.122 5.340,6.174 C5.340,6.189 5.340,6.204 5.340,6.219 C5.325,6.219 5.310,6.219 5.295,6.219 C5.273,6.256 5.250,6.294 5.228,6.331 C5.213,6.331 5.198,6.331 5.183,6.331 C5.183,6.338 5.183,6.346 5.183,6.353 C5.161,6.368 5.139,6.383 5.116,6.398 C5.109,6.420 5.101,6.443 5.094,6.465 C5.079,6.465 5.064,6.465 5.049,6.465 C5.049,6.473 5.049,6.480 5.049,6.487 C5.034,6.495 5.019,6.502 5.005,6.510 C5.005,6.525 5.005,6.540 5.005,6.555 C4.982,6.562 4.960,6.569 4.937,6.577 C4.923,6.599 4.908,6.622 4.893,6.644 C4.885,6.644 4.878,6.644 4.870,6.644 C4.863,6.666 4.856,6.689 4.848,6.711 C4.766,6.777 4.656,6.818 4.625,6.935 C4.610,6.935 4.595,6.935 4.580,6.935 C4.548,6.990 4.510,6.997 4.491,7.069 C4.476,7.069 4.461,7.069 4.446,7.069 C4.409,7.121 4.371,7.173 4.334,7.225 C4.319,7.225 4.305,7.225 4.290,7.225 C4.290,7.233 4.290,7.240 4.290,7.248 C4.257,7.279 4.260,7.259 4.245,7.315 C4.230,7.315 4.215,7.315 4.200,7.315 C4.148,7.374 4.096,7.434 4.044,7.494 C4.029,7.501 4.014,7.508 3.999,7.516 C3.992,7.538 3.984,7.561 3.977,7.583 C3.962,7.583 3.947,7.583 3.932,7.583 C3.925,7.598 3.917,7.613 3.910,7.628 C3.872,7.658 3.835,7.687 3.798,7.717 C3.761,7.762 3.724,7.807 3.686,7.851 C3.671,7.859 3.657,7.866 3.642,7.874 C3.634,7.896 3.627,7.918 3.619,7.941 C3.537,8.007 3.428,8.048 3.396,8.164 C3.381,8.164 3.366,8.164 3.351,8.164 C3.324,8.212 3.301,8.213 3.284,8.276 C3.269,8.276 3.254,8.276 3.240,8.276 C3.207,8.331 3.169,8.338 3.150,8.410 C3.135,8.410 3.120,8.410 3.106,8.410 C3.073,8.465 3.035,8.473 3.016,8.544 C3.001,8.544 2.986,8.544 2.971,8.544 C2.944,8.592 2.921,8.593 2.904,8.656 C2.889,8.656 2.875,8.656 2.860,8.656 C2.823,8.719 2.770,8.732 2.748,8.813 C2.733,8.813 2.718,8.813 2.703,8.813 C2.681,8.850 2.659,8.887 2.636,8.925 C2.621,8.925 2.607,8.925 2.592,8.925 C2.592,8.932 2.592,8.939 2.592,8.947 C2.569,8.962 2.547,8.977 2.525,8.992 C2.517,9.014 2.510,9.036 2.502,9.059 C2.487,9.059 2.472,9.059 2.458,9.059 C2.458,9.066 2.458,9.074 2.458,9.081 C2.425,9.112 2.428,9.092 2.413,9.148 C2.354,9.164 2.341,9.183 2.301,9.215 C2.301,9.223 2.301,9.230 2.301,9.238 C2.256,9.252 2.212,9.267 2.167,9.282 C2.167,9.290 2.167,9.297 2.167,9.305 C2.078,9.305 1.988,9.305 1.899,9.305 C1.858,9.257 1.795,9.254 1.743,9.215 C1.743,9.208 1.743,9.200 1.743,9.193 C1.728,9.185 1.713,9.178 1.698,9.170 C1.698,9.156 1.698,9.141 1.698,9.126 C1.690,9.126 1.683,9.126 1.676,9.126 C1.651,9.096 1.638,9.061 1.609,9.036 C1.603,8.929 1.565,8.771 1.631,8.701 C1.672,8.541 1.963,8.324 2.078,8.209 C2.137,8.142 2.197,8.075 2.256,8.008 C2.577,7.695 2.897,7.382 3.217,7.069 C3.738,6.540 4.260,6.010 4.781,5.481 C5.548,4.721 6.315,3.961 7.082,3.201 C7.380,2.895 7.678,2.590 7.976,2.284 C8.028,2.239 8.080,2.195 8.132,2.150 C8.259,2.016 8.386,1.882 8.512,1.747 C8.527,1.747 8.542,1.747 8.557,1.747 C8.578,1.788 8.588,1.783 8.602,1.837 ZM10.925,4.296 C10.908,4.369 10.863,4.413 10.791,4.430 C10.775,4.500 10.748,4.526 10.679,4.542 C10.663,4.615 10.617,4.659 10.545,4.676 C10.530,4.745 10.502,4.772 10.434,4.788 C10.417,4.861 10.371,4.905 10.300,4.922 C10.284,4.991 10.256,5.017 10.188,5.034 C10.171,5.107 10.126,5.151 10.054,5.168 C10.038,5.237 10.010,5.263 9.942,5.280 C9.925,5.353 9.880,5.397 9.808,5.414 C9.792,5.483 9.764,5.509 9.696,5.526 C9.675,5.614 9.643,5.591 9.585,5.638 C9.577,5.660 9.570,5.683 9.562,5.705 C9.555,5.705 9.547,5.705 9.540,5.705 C9.505,5.744 9.514,5.756 9.451,5.772 C9.434,5.845 9.388,5.889 9.317,5.906 C9.301,5.975 9.273,6.001 9.205,6.018 C9.183,6.106 9.151,6.083 9.093,6.130 C9.086,6.152 9.078,6.174 9.071,6.197 C9.063,6.197 9.056,6.197 9.048,6.197 C9.014,6.236 9.023,6.248 8.959,6.264 C8.937,6.352 8.905,6.329 8.847,6.376 C8.840,6.398 8.832,6.420 8.825,6.443 C8.818,6.443 8.810,6.443 8.803,6.443 C8.768,6.482 8.777,6.494 8.713,6.510 C8.695,6.586 8.544,6.737 8.468,6.756 C8.446,6.844 8.414,6.821 8.356,6.868 C8.348,6.890 8.341,6.912 8.334,6.935 C8.326,6.935 8.319,6.935 8.311,6.935 C8.276,6.974 8.285,6.985 8.222,7.002 C8.203,7.078 8.052,7.228 7.976,7.248 C7.959,7.320 7.914,7.364 7.842,7.382 C7.826,7.451 7.798,7.477 7.730,7.494 C7.709,7.582 7.677,7.559 7.618,7.605 C7.611,7.628 7.604,7.650 7.596,7.672 C7.589,7.672 7.581,7.672 7.574,7.672 C7.539,7.712 7.548,7.723 7.484,7.740 C7.463,7.828 7.431,7.805 7.373,7.851 C7.365,7.874 7.358,7.896 7.350,7.918 C7.343,7.918 7.335,7.918 7.328,7.918 C7.293,7.958 7.302,7.969 7.239,7.985 C7.223,8.055 7.195,8.081 7.127,8.097 C7.110,8.170 7.065,8.214 6.993,8.231 C6.971,8.320 6.939,8.297 6.881,8.343 C6.874,8.366 6.866,8.388 6.859,8.410 C6.852,8.410 6.844,8.410 6.837,8.410 C6.802,8.450 6.811,8.461 6.747,8.477 C6.731,8.546 6.704,8.573 6.635,8.589 C6.619,8.662 6.573,8.706 6.501,8.723 C6.480,8.811 6.448,8.788 6.390,8.835 C6.382,8.857 6.375,8.880 6.367,8.902 C6.360,8.902 6.353,8.902 6.345,8.902 C6.310,8.942 6.319,8.953 6.256,8.969 C6.234,9.057 6.202,9.034 6.144,9.081 C6.136,9.103 6.129,9.126 6.122,9.148 C6.114,9.148 6.107,9.148 6.099,9.148 C6.065,9.188 6.073,9.199 6.010,9.215 C5.988,9.303 5.956,9.280 5.898,9.327 C5.891,9.349 5.883,9.372 5.876,9.394 C5.868,9.394 5.861,9.394 5.853,9.394 C5.819,9.434 5.828,9.445 5.764,9.461 C5.743,9.549 5.711,9.526 5.652,9.573 C5.645,9.595 5.638,9.618 5.630,9.640 C5.623,9.640 5.615,9.640 5.608,9.640 C5.573,9.679 5.582,9.691 5.518,9.707 C5.503,9.776 5.475,9.802 5.407,9.819 C5.390,9.892 5.344,9.935 5.273,9.953 C5.257,10.022 5.229,10.048 5.161,10.065 C5.144,10.137 5.099,10.181 5.027,10.199 C5.005,10.287 4.973,10.264 4.915,10.311 C4.908,10.333 4.900,10.356 4.893,10.378 C4.885,10.378 4.878,10.378 4.870,10.378 C4.836,10.417 4.845,10.429 4.781,10.445 C4.765,10.514 4.738,10.540 4.669,10.557 C4.653,10.620 4.642,10.611 4.602,10.646 C4.602,10.654 4.602,10.661 4.602,10.669 C4.580,10.676 4.558,10.683 4.535,10.691 C4.535,10.706 4.535,10.721 4.535,10.736 C4.528,10.736 4.520,10.736 4.513,10.736 C4.498,10.758 4.483,10.780 4.468,10.803 C4.453,10.803 4.439,10.803 4.424,10.803 C4.416,10.825 4.409,10.847 4.401,10.870 C4.394,10.870 4.386,10.870 4.379,10.870 C4.344,10.909 4.353,10.920 4.290,10.937 C4.265,11.030 4.215,11.018 4.156,11.071 C4.141,11.093 4.126,11.116 4.111,11.138 C4.096,11.138 4.081,11.138 4.066,11.138 C4.059,11.153 4.051,11.168 4.044,11.183 C4.021,11.183 3.999,11.183 3.977,11.183 C3.977,11.190 3.977,11.198 3.977,11.205 C3.962,11.205 3.947,11.205 3.932,11.205 C3.925,11.220 3.917,11.235 3.910,11.250 C3.887,11.250 3.865,11.250 3.843,11.250 C3.764,11.281 3.555,11.336 3.418,11.295 C3.418,11.287 3.418,11.280 3.418,11.272 C3.388,11.272 3.359,11.272 3.329,11.272 C3.329,11.265 3.329,11.257 3.329,11.250 C3.307,11.250 3.284,11.250 3.262,11.250 C3.262,11.242 3.262,11.235 3.262,11.228 C3.217,11.213 3.172,11.198 3.128,11.183 C3.128,11.175 3.128,11.168 3.128,11.160 C3.113,11.160 3.098,11.160 3.083,11.160 C3.083,11.153 3.083,11.146 3.083,11.138 C3.037,11.101 3.015,11.067 2.949,11.049 C2.930,10.982 2.897,10.961 2.860,10.914 C2.852,10.914 2.845,10.914 2.837,10.914 C2.837,10.900 2.837,10.885 2.837,10.870 C2.830,10.870 2.823,10.870 2.815,10.870 C2.800,10.825 2.785,10.780 2.770,10.736 C2.763,10.736 2.755,10.736 2.748,10.736 C2.748,10.713 2.748,10.691 2.748,10.669 C2.741,10.669 2.733,10.669 2.726,10.669 C2.680,10.539 2.700,10.193 2.748,10.087 C2.755,10.087 2.763,10.087 2.770,10.087 C2.770,10.072 2.770,10.057 2.770,10.042 C2.785,10.035 2.800,10.028 2.815,10.020 C2.823,9.983 2.830,9.946 2.837,9.908 C2.867,9.886 2.897,9.864 2.927,9.841 C2.980,9.782 2.967,9.732 3.061,9.707 C3.077,9.634 3.123,9.591 3.195,9.573 C3.211,9.504 3.238,9.478 3.307,9.461 C3.325,9.385 3.476,9.234 3.552,9.215 C3.569,9.143 3.615,9.099 3.686,9.081 C3.702,9.012 3.730,8.986 3.798,8.969 C3.815,8.897 3.860,8.853 3.932,8.835 C3.948,8.766 3.976,8.740 4.044,8.723 C4.061,8.651 4.106,8.607 4.178,8.589 C4.194,8.520 4.221,8.494 4.290,8.477 C4.311,8.389 4.343,8.412 4.401,8.366 C4.409,8.343 4.416,8.321 4.424,8.299 C4.431,8.299 4.439,8.299 4.446,8.299 C4.481,8.259 4.472,8.248 4.535,8.231 C4.554,8.155 4.705,8.005 4.781,7.985 C4.803,7.897 4.835,7.920 4.893,7.874 C4.900,7.851 4.908,7.829 4.915,7.807 C4.923,7.807 4.930,7.807 4.937,7.807 C4.972,7.767 4.963,7.756 5.027,7.740 C5.044,7.667 5.089,7.623 5.161,7.605 C5.177,7.536 5.204,7.510 5.273,7.494 C5.291,7.417 5.442,7.267 5.518,7.248 C5.540,7.159 5.572,7.183 5.630,7.136 C5.638,7.114 5.645,7.091 5.652,7.069 C5.660,7.069 5.667,7.069 5.675,7.069 C5.710,7.029 5.701,7.018 5.764,7.002 C5.786,6.914 5.818,6.937 5.876,6.890 C5.883,6.868 5.891,6.845 5.898,6.823 C5.906,6.823 5.913,6.823 5.921,6.823 C5.955,6.783 5.946,6.772 6.010,6.756 C6.028,6.679 6.180,6.529 6.256,6.510 C6.271,6.441 6.299,6.415 6.367,6.398 C6.384,6.325 6.430,6.281 6.501,6.264 C6.520,6.187 6.671,6.037 6.747,6.018 C6.766,5.941 6.917,5.791 6.993,5.772 C7.010,5.699 7.055,5.655 7.127,5.638 C7.143,5.569 7.171,5.543 7.239,5.526 C7.257,5.450 7.408,5.299 7.484,5.280 C7.500,5.211 7.528,5.185 7.596,5.168 C7.613,5.096 7.658,5.052 7.730,5.034 C7.746,4.965 7.774,4.939 7.842,4.922 C7.859,4.850 7.904,4.806 7.976,4.788 C7.992,4.719 8.019,4.693 8.088,4.676 C8.104,4.604 8.150,4.560 8.222,4.542 C8.238,4.473 8.265,4.447 8.334,4.430 C8.350,4.358 8.396,4.314 8.468,4.296 C8.483,4.227 8.511,4.201 8.579,4.185 C8.596,4.112 8.641,4.068 8.713,4.050 C8.729,3.981 8.757,3.955 8.825,3.939 C8.842,3.866 8.887,3.822 8.959,3.804 C8.975,3.735 9.003,3.709 9.071,3.693 C9.087,3.620 9.133,3.576 9.205,3.559 C9.221,3.489 9.248,3.463 9.317,3.447 C9.333,3.374 9.379,3.330 9.451,3.313 C9.466,3.244 9.494,3.217 9.562,3.201 C9.579,3.128 9.625,3.084 9.696,3.067 C9.712,3.001 9.721,2.993 9.786,2.977 C10.084,3.283 10.382,3.588 10.679,3.894 C10.763,3.977 10.984,4.138 11.015,4.252 C10.974,4.273 10.979,4.283 10.925,4.296 ZM11.573,4.855 C11.603,4.855 11.633,4.855 11.662,4.855 C11.704,4.926 11.772,4.945 11.797,5.034 C11.866,5.050 11.891,5.078 11.908,5.146 C11.981,5.163 12.025,5.208 12.042,5.280 C12.111,5.296 12.137,5.324 12.154,5.392 C12.219,5.407 12.227,5.417 12.243,5.481 C12.143,5.540 12.077,5.647 11.998,5.727 C11.983,5.735 11.968,5.742 11.953,5.750 C11.804,5.906 11.655,6.063 11.506,6.219 C11.394,6.324 11.283,6.428 11.171,6.532 C10.746,6.964 10.322,7.397 9.897,7.829 C9.376,8.343 8.855,8.858 8.334,9.372 C7.782,9.931 7.231,10.490 6.680,11.049 C6.390,11.332 6.099,11.615 5.809,11.898 C5.757,11.958 5.705,12.018 5.652,12.077 C5.593,12.129 5.533,12.181 5.474,12.234 C5.451,12.263 5.429,12.293 5.407,12.323 C5.392,12.323 5.377,12.323 5.362,12.323 C5.362,12.331 5.362,12.338 5.362,12.345 C5.334,12.367 5.319,12.362 5.295,12.390 C5.220,12.398 5.146,12.405 5.072,12.412 C5.072,12.405 5.072,12.398 5.072,12.390 C5.019,12.383 4.967,12.375 4.915,12.368 C4.875,12.299 4.816,12.304 4.781,12.256 C4.743,12.204 4.740,12.140 4.692,12.100 C4.692,12.010 4.692,11.921 4.692,11.831 C4.699,11.831 4.707,11.831 4.714,11.831 C4.729,11.786 4.744,11.742 4.759,11.697 C4.766,11.697 4.774,11.697 4.781,11.697 C4.813,11.657 4.832,11.644 4.848,11.585 C4.863,11.585 4.878,11.585 4.893,11.585 C4.920,11.538 4.943,11.537 4.960,11.473 C4.975,11.473 4.990,11.473 5.005,11.473 C5.076,11.352 5.281,11.249 5.317,11.116 C5.332,11.116 5.347,11.116 5.362,11.116 C5.394,11.061 5.432,11.053 5.451,10.982 C5.466,10.982 5.481,10.982 5.496,10.982 C5.528,10.926 5.566,10.919 5.585,10.847 C5.600,10.847 5.615,10.847 5.630,10.847 C5.681,10.762 5.780,10.730 5.809,10.624 C5.824,10.624 5.839,10.624 5.853,10.624 C5.886,10.569 5.924,10.562 5.943,10.490 C5.958,10.490 5.973,10.490 5.988,10.490 C5.998,10.471 6.064,10.366 6.077,10.356 C6.092,10.356 6.107,10.356 6.122,10.356 C6.122,10.348 6.122,10.341 6.122,10.333 C6.136,10.326 6.151,10.318 6.166,10.311 C6.174,10.288 6.181,10.266 6.189,10.244 C6.204,10.244 6.218,10.244 6.233,10.244 C6.248,10.221 6.263,10.199 6.278,10.177 C6.285,10.177 6.293,10.177 6.300,10.177 C6.300,10.162 6.300,10.147 6.300,10.132 C6.330,10.117 6.360,10.102 6.390,10.087 C6.449,10.020 6.509,9.953 6.568,9.886 C6.598,9.864 6.628,9.841 6.658,9.819 C6.658,9.804 6.658,9.789 6.658,9.774 C6.680,9.767 6.703,9.759 6.725,9.752 C6.732,9.737 6.740,9.722 6.747,9.707 C6.807,9.655 6.866,9.603 6.926,9.551 C6.926,9.536 6.926,9.521 6.926,9.506 C6.941,9.506 6.956,9.506 6.971,9.506 C7.082,9.387 7.194,9.267 7.306,9.148 C7.354,9.100 7.396,9.093 7.417,9.014 C7.432,9.014 7.447,9.014 7.462,9.014 C7.526,8.905 7.644,8.834 7.730,8.746 C7.753,8.708 7.775,8.671 7.797,8.634 C7.880,8.568 7.989,8.527 8.021,8.410 C8.036,8.410 8.051,8.410 8.065,8.410 C8.093,8.363 8.116,8.362 8.132,8.299 C8.147,8.299 8.162,8.299 8.177,8.299 C8.251,8.172 8.475,8.056 8.512,7.918 C8.527,7.918 8.542,7.918 8.557,7.918 C8.584,7.871 8.607,7.870 8.624,7.807 C8.639,7.807 8.654,7.807 8.669,7.807 C8.840,7.628 9.011,7.449 9.182,7.270 C9.251,7.201 9.355,7.153 9.384,7.046 C9.398,7.046 9.413,7.046 9.428,7.046 C9.460,6.991 9.498,6.984 9.518,6.912 C9.533,6.912 9.547,6.912 9.562,6.912 C9.607,6.860 9.652,6.808 9.696,6.756 C9.711,6.748 9.726,6.741 9.741,6.733 C9.748,6.711 9.756,6.689 9.763,6.666 C9.846,6.600 9.955,6.559 9.987,6.443 C10.002,6.443 10.017,6.443 10.031,6.443 C10.109,6.307 10.329,6.203 10.367,6.063 C10.381,6.063 10.396,6.063 10.411,6.063 C10.438,6.015 10.462,6.014 10.478,5.951 C10.493,5.951 10.508,5.951 10.523,5.951 C10.534,5.932 10.599,5.827 10.612,5.817 C10.627,5.817 10.642,5.817 10.657,5.817 C10.664,5.802 10.672,5.787 10.679,5.772 C10.687,5.772 10.694,5.772 10.702,5.772 C10.784,5.683 10.866,5.593 10.947,5.504 C11.006,5.445 11.078,5.418 11.104,5.325 C11.119,5.325 11.134,5.325 11.149,5.325 C11.223,5.198 11.446,5.083 11.484,4.945 C11.549,4.929 11.557,4.920 11.573,4.855 ZM1.854,10.154 C1.854,10.333 1.854,10.512 1.854,10.691 C1.892,10.825 1.929,10.959 1.966,11.093 C1.973,11.093 1.981,11.093 1.988,11.093 C1.996,11.123 2.003,11.153 2.011,11.183 C2.018,11.183 2.026,11.183 2.033,11.183 C2.041,11.213 2.048,11.242 2.055,11.272 C2.070,11.280 2.085,11.287 2.100,11.295 C2.107,11.324 2.115,11.354 2.122,11.384 C2.145,11.399 2.167,11.414 2.189,11.429 C2.189,11.444 2.189,11.459 2.189,11.473 C2.234,11.511 2.279,11.548 2.324,11.585 C2.324,11.600 2.324,11.615 2.324,11.630 C2.338,11.637 2.353,11.645 2.368,11.652 C2.368,11.660 2.368,11.667 2.368,11.675 C2.383,11.675 2.398,11.675 2.413,11.675 C2.450,11.719 2.487,11.764 2.525,11.809 C2.539,11.809 2.554,11.809 2.569,11.809 C2.584,11.831 2.599,11.854 2.614,11.876 C2.659,11.891 2.703,11.906 2.748,11.921 C2.755,11.935 2.763,11.950 2.770,11.965 C2.785,11.965 2.800,11.965 2.815,11.965 C2.815,11.973 2.815,11.980 2.815,11.988 C2.845,11.995 2.875,12.003 2.904,12.010 C2.904,12.018 2.904,12.025 2.904,12.032 C2.971,12.047 3.038,12.062 3.106,12.077 C3.106,12.085 3.106,12.092 3.106,12.100 C3.241,12.148 3.439,12.144 3.619,12.144 C3.705,12.144 3.788,12.142 3.843,12.122 C3.843,12.129 3.843,12.137 3.843,12.144 C3.910,12.215 3.909,12.423 3.954,12.524 C3.962,12.524 3.969,12.524 3.977,12.524 C3.977,12.539 3.977,12.554 3.977,12.569 C3.984,12.569 3.992,12.569 3.999,12.569 C3.999,12.584 3.999,12.599 3.999,12.614 C4.014,12.621 4.029,12.629 4.044,12.636 C4.051,12.666 4.059,12.696 4.066,12.726 C4.096,12.748 4.126,12.770 4.156,12.793 C4.156,12.807 4.156,12.822 4.156,12.837 C4.163,12.837 4.170,12.837 4.178,12.837 C4.210,12.876 4.229,12.891 4.245,12.949 C2.830,13.299 1.415,13.650 -0.000,14.000 C0.002,13.867 0.055,13.765 0.089,13.665 C0.097,13.605 0.104,13.545 0.112,13.486 C0.119,13.486 0.127,13.486 0.134,13.486 C0.141,13.419 0.149,13.352 0.156,13.284 C0.164,13.284 0.171,13.284 0.179,13.284 C0.179,13.262 0.179,13.240 0.179,13.217 C0.186,13.217 0.194,13.217 0.201,13.217 C0.201,13.188 0.201,13.158 0.201,13.128 C0.208,13.128 0.216,13.128 0.223,13.128 C0.223,13.098 0.223,13.068 0.223,13.039 C0.231,13.039 0.238,13.039 0.246,13.039 C0.261,12.949 0.276,12.860 0.290,12.770 C0.298,12.770 0.305,12.770 0.313,12.770 C0.313,12.740 0.313,12.711 0.313,12.681 C0.320,12.681 0.328,12.681 0.335,12.681 C0.343,12.621 0.350,12.562 0.357,12.502 C0.365,12.502 0.372,12.502 0.380,12.502 C0.380,12.465 0.380,12.427 0.380,12.390 C0.412,12.290 0.458,12.156 0.491,12.055 C0.491,12.018 0.491,11.980 0.491,11.943 C0.627,11.527 0.714,11.041 0.849,10.624 C0.849,10.587 0.849,10.549 0.849,10.512 C0.856,10.512 0.864,10.512 0.871,10.512 C0.879,10.452 0.886,10.393 0.894,10.333 C0.901,10.333 0.908,10.333 0.916,10.333 C0.916,10.311 0.916,10.288 0.916,10.266 C0.923,10.266 0.931,10.266 0.938,10.266 C0.938,10.236 0.938,10.206 0.938,10.177 C0.986,10.038 1.018,9.861 1.072,9.729 C1.110,9.774 1.147,9.819 1.184,9.864 C1.375,10.002 1.578,10.101 1.854,10.154 Z"/>
</svg>