<svg 
 xmlns="http://www.w3.org/2000/svg"
 xmlns:xlink="http://www.w3.org/1999/xlink"
 width="11px" height="14px">
<path fill-rule="evenodd"  fill="rgb(196, 135, 230)"
 d="M10.212,0.873 C10.225,1.017 10.309,1.088 10.364,1.187 C10.364,1.206 10.364,1.225 10.364,1.244 C10.374,1.244 10.384,1.244 10.394,1.244 C10.394,1.273 10.394,1.301 10.394,1.330 C10.404,1.330 10.414,1.330 10.424,1.330 C10.424,1.349 10.424,1.368 10.424,1.387 C10.434,1.387 10.444,1.387 10.454,1.387 C10.454,1.406 10.454,1.425 10.454,1.444 C10.465,1.444 10.475,1.444 10.485,1.444 C10.505,1.501 10.525,1.558 10.545,1.615 C10.556,1.615 10.566,1.615 10.576,1.615 C10.576,1.644 10.576,1.672 10.576,1.701 C10.586,1.701 10.596,1.701 10.606,1.701 C10.606,1.720 10.606,1.739 10.606,1.758 C10.616,1.758 10.626,1.758 10.636,1.758 C10.636,1.777 10.636,1.796 10.636,1.815 C10.646,1.815 10.656,1.815 10.667,1.815 C10.687,1.872 10.707,1.929 10.727,1.986 C10.737,1.986 10.747,1.986 10.758,1.986 C10.758,2.015 10.758,2.043 10.758,2.072 C10.768,2.072 10.778,2.072 10.788,2.072 C10.859,2.233 10.929,2.395 11.000,2.557 C7.334,2.557 3.666,2.557 -0.000,2.557 C0.273,1.996 0.545,1.434 0.818,0.873 C1.788,0.873 2.758,0.873 3.727,0.873 C3.740,0.533 3.893,0.267 4.121,0.131 C4.162,0.122 4.202,0.112 4.242,0.103 C4.242,0.093 4.242,0.084 4.242,0.074 C4.263,0.074 4.283,0.074 4.303,0.074 C4.303,0.064 4.303,0.055 4.303,0.045 C4.354,0.045 4.404,0.045 4.454,0.045 C4.742,-0.035 5.286,0.017 5.636,0.017 C6.006,0.017 6.513,-0.040 6.788,0.074 C6.788,0.084 6.788,0.093 6.788,0.103 C6.828,0.112 6.869,0.122 6.909,0.131 C6.919,0.150 6.929,0.169 6.939,0.188 C7.010,0.245 7.081,0.302 7.151,0.359 C7.172,0.416 7.192,0.473 7.212,0.531 C7.222,0.531 7.232,0.531 7.242,0.531 C7.280,0.621 7.243,0.778 7.303,0.844 C7.379,0.907 7.904,0.873 8.061,0.873 C8.778,0.873 9.495,0.873 10.212,0.873 ZM4.273,0.873 C5.101,0.873 5.929,0.873 6.757,0.873 C6.753,0.726 6.695,0.676 6.667,0.559 C6.563,0.501 6.486,0.401 6.364,0.359 C6.196,0.303 5.939,0.331 5.727,0.331 C5.182,0.331 4.447,0.237 4.333,0.645 C4.279,0.694 4.273,0.770 4.273,0.873 ZM9.303,13.829 C9.235,13.846 9.228,13.853 9.182,13.886 C9.182,13.895 9.182,13.905 9.182,13.914 C9.162,13.914 9.141,13.914 9.121,13.914 C9.121,13.924 9.121,13.933 9.121,13.943 C9.101,13.943 9.081,13.943 9.061,13.943 C9.061,13.952 9.061,13.962 9.061,13.971 C9.030,13.971 9.000,13.971 8.970,13.971 C8.970,13.981 8.970,13.990 8.970,14.000 C7.142,14.000 5.313,14.000 3.485,14.000 C3.141,14.000 2.798,14.000 2.454,14.000 C2.304,14.000 2.169,14.004 2.061,13.971 C2.020,13.971 1.980,13.971 1.939,13.971 C1.939,13.962 1.939,13.952 1.939,13.943 C1.801,13.882 1.648,13.803 1.606,13.658 C1.479,13.532 1.572,13.362 1.515,13.172 C1.505,13.172 1.495,13.172 1.485,13.172 C1.485,13.144 1.485,13.115 1.485,13.087 C1.485,13.001 1.485,12.916 1.485,12.830 C1.475,12.830 1.465,12.830 1.454,12.830 C1.454,12.716 1.454,12.602 1.454,12.487 C1.444,12.487 1.434,12.487 1.424,12.487 C1.424,12.383 1.424,12.278 1.424,12.174 C1.414,12.174 1.404,12.174 1.394,12.174 C1.394,12.059 1.394,11.945 1.394,11.831 C1.384,11.831 1.374,11.831 1.364,11.831 C1.364,11.717 1.364,11.603 1.364,11.489 C1.353,11.489 1.343,11.489 1.333,11.489 C1.333,11.384 1.333,11.279 1.333,11.175 C1.323,11.175 1.313,11.175 1.303,11.175 C1.303,11.061 1.303,10.947 1.303,10.832 C1.293,10.832 1.283,10.832 1.273,10.832 C1.273,10.718 1.273,10.604 1.273,10.490 C1.263,10.490 1.253,10.490 1.242,10.490 C1.242,10.376 1.242,10.262 1.242,10.147 C1.232,10.147 1.222,10.147 1.212,10.147 C1.212,10.043 1.212,9.938 1.212,9.834 C1.202,9.834 1.192,9.834 1.182,9.834 C1.182,9.719 1.182,9.605 1.182,9.491 C1.172,9.491 1.162,9.491 1.151,9.491 C1.151,9.377 1.151,9.263 1.151,9.149 C1.141,9.149 1.131,9.149 1.121,9.149 C1.121,9.044 1.121,8.939 1.121,8.835 C1.111,8.835 1.101,8.835 1.091,8.835 C1.081,8.607 1.071,8.378 1.061,8.150 C1.050,8.150 1.040,8.150 1.030,8.150 C1.030,8.045 1.030,7.941 1.030,7.836 C1.020,7.836 1.010,7.836 1.000,7.836 C1.000,7.722 1.000,7.608 1.000,7.494 C0.990,7.494 0.980,7.494 0.970,7.494 C0.970,7.379 0.970,7.265 0.970,7.151 C0.960,7.151 0.949,7.151 0.939,7.151 C0.939,7.046 0.939,6.942 0.939,6.837 C0.929,6.837 0.919,6.837 0.909,6.837 C0.909,6.723 0.909,6.609 0.909,6.495 C0.899,6.495 0.889,6.495 0.879,6.495 C0.879,6.381 0.879,6.266 0.879,6.152 C0.869,6.152 0.858,6.152 0.848,6.152 C0.848,6.048 0.848,5.943 0.848,5.838 C0.838,5.838 0.828,5.838 0.818,5.838 C0.818,5.724 0.818,5.610 0.818,5.496 C0.808,5.496 0.798,5.496 0.788,5.496 C0.788,5.382 0.788,5.268 0.788,5.154 C0.778,5.154 0.768,5.154 0.758,5.154 C0.758,5.049 0.758,4.944 0.758,4.840 C0.747,4.840 0.737,4.840 0.727,4.840 C0.727,4.726 0.727,4.611 0.727,4.497 C0.717,4.497 0.707,4.497 0.697,4.497 C0.697,4.383 0.697,4.269 0.697,4.155 C0.687,4.155 0.677,4.155 0.667,4.155 C0.657,3.965 0.646,3.774 0.636,3.584 C0.658,3.521 0.709,3.464 0.727,3.384 C0.778,3.346 0.828,3.308 0.879,3.270 C0.879,3.261 0.879,3.251 0.879,3.242 C0.899,3.242 0.919,3.242 0.939,3.242 C0.939,3.232 0.939,3.223 0.939,3.213 C0.960,3.213 0.980,3.213 1.000,3.213 C1.000,3.204 1.000,3.194 1.000,3.184 C1.040,3.184 1.081,3.184 1.121,3.184 C1.121,3.175 1.121,3.166 1.121,3.156 C1.778,3.156 2.434,3.156 3.091,3.156 C4.737,3.156 6.384,3.156 8.030,3.156 C8.495,3.156 8.960,3.156 9.424,3.156 C9.639,3.156 9.953,3.144 10.091,3.213 C10.101,3.232 10.111,3.251 10.121,3.270 C10.141,3.270 10.162,3.270 10.182,3.270 C10.182,3.280 10.182,3.289 10.182,3.299 C10.202,3.308 10.222,3.318 10.242,3.327 C10.242,3.346 10.242,3.365 10.242,3.384 C10.263,3.394 10.283,3.403 10.303,3.413 C10.345,3.478 10.403,3.768 10.364,3.898 C10.353,3.898 10.343,3.898 10.333,3.898 C10.333,4.012 10.333,4.126 10.333,4.240 C10.323,4.240 10.313,4.240 10.303,4.240 C10.252,4.887 10.202,5.534 10.151,6.181 C10.151,6.209 10.151,6.238 10.151,6.266 C10.141,6.266 10.131,6.266 10.121,6.266 C10.121,6.371 10.121,6.476 10.121,6.580 C10.111,6.580 10.101,6.580 10.091,6.580 C10.091,6.694 10.091,6.809 10.091,6.923 C10.081,6.923 10.071,6.923 10.061,6.923 C10.061,7.027 10.061,7.132 10.061,7.237 C10.050,7.237 10.040,7.237 10.030,7.237 C10.030,7.351 10.030,7.465 10.030,7.579 C10.020,7.579 10.010,7.579 10.000,7.579 C10.000,7.693 10.000,7.808 10.000,7.922 C9.990,7.922 9.980,7.922 9.970,7.922 C9.970,8.026 9.970,8.131 9.970,8.236 C9.960,8.236 9.949,8.236 9.939,8.236 C9.939,8.350 9.939,8.464 9.939,8.578 C9.929,8.578 9.919,8.578 9.909,8.578 C9.909,8.692 9.909,8.806 9.909,8.920 C9.899,8.920 9.889,8.920 9.879,8.920 C9.879,9.025 9.879,9.130 9.879,9.234 C9.869,9.234 9.859,9.234 9.848,9.234 C9.848,9.348 9.848,9.463 9.848,9.577 C9.838,9.577 9.828,9.577 9.818,9.577 C9.818,9.691 9.818,9.805 9.818,9.919 C9.808,9.919 9.798,9.919 9.788,9.919 C9.788,10.033 9.788,10.148 9.788,10.262 C9.778,10.262 9.768,10.262 9.758,10.262 C9.737,10.595 9.717,10.928 9.697,11.260 C9.687,11.260 9.677,11.260 9.667,11.260 C9.667,11.365 9.667,11.470 9.667,11.574 C9.656,11.574 9.646,11.574 9.636,11.574 C9.636,11.688 9.636,11.803 9.636,11.917 C9.626,11.917 9.616,11.917 9.606,11.917 C9.606,12.031 9.606,12.145 9.606,12.259 C9.596,12.259 9.586,12.259 9.576,12.259 C9.576,12.364 9.576,12.469 9.576,12.573 C9.566,12.573 9.556,12.573 9.545,12.573 C9.545,12.687 9.545,12.801 9.545,12.916 C9.535,12.916 9.525,12.916 9.515,12.916 C9.505,13.115 9.495,13.315 9.485,13.515 C9.475,13.515 9.465,13.515 9.454,13.515 C9.454,13.543 9.454,13.572 9.454,13.600 C9.444,13.600 9.434,13.600 9.424,13.600 C9.424,13.619 9.424,13.638 9.424,13.658 C9.414,13.658 9.404,13.658 9.394,13.658 C9.394,13.677 9.394,13.696 9.394,13.715 C9.384,13.715 9.374,13.715 9.364,13.715 C9.328,13.758 9.322,13.765 9.303,13.829 ZM1.818,3.984 C1.760,4.049 1.727,4.020 1.697,4.126 C1.642,4.177 1.564,4.473 1.606,4.611 C1.616,4.611 1.626,4.611 1.636,4.611 C1.636,4.706 1.636,4.802 1.636,4.897 C1.646,4.897 1.656,4.897 1.667,4.897 C1.667,4.992 1.667,5.087 1.667,5.182 C1.677,5.182 1.687,5.182 1.697,5.182 C1.697,5.277 1.697,5.372 1.697,5.467 C1.707,5.467 1.717,5.467 1.727,5.467 C1.727,5.563 1.727,5.658 1.727,5.753 C1.737,5.753 1.747,5.753 1.758,5.753 C1.758,5.848 1.758,5.943 1.758,6.038 C1.768,6.038 1.778,6.038 1.788,6.038 C1.788,6.124 1.788,6.209 1.788,6.295 C1.798,6.295 1.808,6.295 1.818,6.295 C1.818,6.390 1.818,6.485 1.818,6.580 C1.828,6.580 1.838,6.580 1.848,6.580 C1.848,6.676 1.848,6.771 1.848,6.866 C1.858,6.866 1.869,6.866 1.879,6.866 C1.879,6.961 1.879,7.056 1.879,7.151 C1.889,7.151 1.899,7.151 1.909,7.151 C1.909,7.246 1.909,7.341 1.909,7.436 C1.919,7.436 1.929,7.436 1.939,7.436 C1.939,7.522 1.939,7.608 1.939,7.693 C1.949,7.693 1.960,7.693 1.970,7.693 C1.970,7.788 1.970,7.884 1.970,7.979 C1.980,7.979 1.990,7.979 2.000,7.979 C2.000,8.074 2.000,8.169 2.000,8.264 C2.010,8.264 2.020,8.264 2.030,8.264 C2.030,8.359 2.030,8.454 2.030,8.549 C2.040,8.549 2.050,8.549 2.061,8.549 C2.061,8.645 2.061,8.740 2.061,8.835 C2.071,8.835 2.081,8.835 2.091,8.835 C2.091,8.930 2.091,9.025 2.091,9.120 C2.101,9.120 2.111,9.120 2.121,9.120 C2.121,9.215 2.121,9.310 2.121,9.406 C2.131,9.406 2.141,9.406 2.151,9.406 C2.151,9.501 2.151,9.596 2.151,9.691 C2.252,10.020 2.203,10.473 2.303,10.804 C2.303,10.899 2.303,10.994 2.303,11.089 C2.313,11.089 2.323,11.089 2.333,11.089 C2.333,11.175 2.333,11.260 2.333,11.346 C2.343,11.346 2.353,11.346 2.364,11.346 C2.364,11.451 2.364,11.555 2.364,11.660 C2.506,12.127 2.328,13.114 2.939,13.115 C2.974,13.083 2.939,13.104 3.000,13.087 C3.040,13.011 3.081,12.935 3.121,12.858 C3.121,12.697 3.121,12.535 3.121,12.373 C3.111,12.373 3.101,12.373 3.091,12.373 C3.050,11.945 3.010,11.517 2.970,11.089 C2.960,10.966 2.949,10.842 2.939,10.718 C2.929,10.718 2.919,10.718 2.909,10.718 C2.909,10.614 2.909,10.509 2.909,10.404 C2.899,10.404 2.889,10.404 2.879,10.404 C2.879,10.319 2.879,10.233 2.879,10.147 C2.869,10.147 2.859,10.147 2.848,10.147 C2.848,10.052 2.848,9.957 2.848,9.862 C2.838,9.862 2.828,9.862 2.818,9.862 C2.818,9.767 2.818,9.672 2.818,9.577 C2.808,9.577 2.798,9.577 2.788,9.577 C2.788,9.482 2.788,9.387 2.788,9.291 C2.778,9.291 2.768,9.291 2.758,9.291 C2.758,9.196 2.758,9.101 2.758,9.006 C2.747,9.006 2.737,9.006 2.727,9.006 C2.727,8.920 2.727,8.835 2.727,8.749 C2.717,8.749 2.707,8.749 2.697,8.749 C2.697,8.654 2.697,8.559 2.697,8.464 C2.687,8.464 2.677,8.464 2.667,8.464 C2.667,8.369 2.667,8.274 2.667,8.178 C2.656,8.178 2.646,8.178 2.636,8.178 C2.626,7.988 2.616,7.798 2.606,7.608 C2.505,7.277 2.554,6.824 2.454,6.495 C2.454,6.400 2.454,6.305 2.454,6.209 C2.444,6.209 2.434,6.209 2.424,6.209 C2.424,6.114 2.424,6.019 2.424,5.924 C2.414,5.924 2.404,5.924 2.394,5.924 C2.394,5.829 2.394,5.734 2.394,5.639 C2.384,5.639 2.374,5.639 2.364,5.639 C2.364,5.544 2.364,5.448 2.364,5.353 C2.353,5.353 2.343,5.353 2.333,5.353 C2.333,5.268 2.333,5.182 2.333,5.097 C2.323,5.097 2.313,5.097 2.303,5.097 C2.303,4.992 2.303,4.887 2.303,4.783 C2.293,4.783 2.283,4.783 2.273,4.783 C2.273,4.697 2.273,4.611 2.273,4.526 C2.213,4.336 2.143,4.062 1.939,4.012 C1.939,4.003 1.939,3.993 1.939,3.984 C1.899,3.984 1.858,3.984 1.818,3.984 ZM5.364,3.984 C5.310,4.041 5.304,4.008 5.242,4.041 C5.242,4.050 5.242,4.060 5.242,4.069 C5.222,4.069 5.202,4.069 5.182,4.069 C5.131,4.136 5.081,4.202 5.030,4.269 C5.030,4.288 5.030,4.307 5.030,4.326 C5.020,4.326 5.010,4.326 5.000,4.326 C5.000,4.355 5.000,4.383 5.000,4.412 C4.990,4.412 4.980,4.412 4.970,4.412 C4.970,5.011 4.970,5.610 4.970,6.209 C4.970,7.769 4.970,9.330 4.970,10.889 C4.970,11.327 4.970,11.765 4.970,12.202 C4.970,12.397 4.935,12.649 5.000,12.801 C5.010,12.801 5.020,12.801 5.030,12.801 C5.030,12.820 5.030,12.839 5.030,12.858 C5.091,12.925 5.152,12.992 5.212,13.058 C5.263,13.091 5.281,13.059 5.333,13.115 C5.414,13.115 5.495,13.115 5.576,13.115 C5.576,13.106 5.576,13.096 5.576,13.087 C5.606,13.087 5.636,13.087 5.667,13.087 C5.667,13.077 5.667,13.068 5.667,13.058 C5.727,13.011 5.788,12.963 5.848,12.916 C5.859,12.878 5.869,12.839 5.879,12.801 C5.889,12.801 5.899,12.801 5.909,12.801 C5.979,12.637 5.939,12.355 5.939,12.145 C5.939,11.660 5.939,11.175 5.939,10.690 C5.939,9.339 5.939,7.988 5.939,6.637 C5.939,5.896 5.939,5.153 5.939,4.412 C5.910,4.326 5.842,4.256 5.818,4.155 C5.656,4.067 5.638,3.986 5.364,3.984 ZM9.212,3.984 C9.141,4.041 9.071,4.098 9.000,4.155 C8.990,4.193 8.980,4.231 8.970,4.269 C8.960,4.269 8.949,4.269 8.939,4.269 C8.939,4.297 8.939,4.326 8.939,4.355 C8.929,4.355 8.919,4.355 8.909,4.355 C8.909,4.393 8.909,4.431 8.909,4.469 C8.899,4.469 8.889,4.469 8.879,4.469 C8.879,4.545 8.879,4.621 8.879,4.697 C8.869,4.697 8.858,4.697 8.848,4.697 C8.848,4.792 8.848,4.887 8.848,4.982 C8.838,4.982 8.828,4.982 8.818,4.982 C8.818,5.077 8.818,5.173 8.818,5.268 C8.808,5.268 8.798,5.268 8.788,5.268 C8.788,5.353 8.788,5.439 8.788,5.525 C8.778,5.525 8.768,5.525 8.758,5.525 C8.758,5.629 8.758,5.734 8.758,5.838 C8.747,5.838 8.737,5.838 8.727,5.838 C8.727,5.924 8.727,6.010 8.727,6.095 C8.717,6.095 8.707,6.095 8.697,6.095 C8.697,6.190 8.697,6.286 8.697,6.381 C8.687,6.381 8.677,6.381 8.667,6.381 C8.667,6.476 8.667,6.571 8.667,6.666 C8.656,6.666 8.646,6.666 8.636,6.666 C8.636,6.761 8.636,6.856 8.636,6.951 C8.626,6.951 8.616,6.951 8.606,6.951 C8.606,7.046 8.606,7.142 8.606,7.237 C8.596,7.237 8.586,7.237 8.576,7.237 C8.576,7.322 8.576,7.408 8.576,7.494 C8.566,7.494 8.555,7.494 8.545,7.494 C8.545,7.589 8.545,7.684 8.545,7.779 C8.535,7.779 8.525,7.779 8.515,7.779 C8.515,7.874 8.515,7.969 8.515,8.064 C8.505,8.064 8.495,8.064 8.485,8.064 C8.485,8.159 8.485,8.255 8.485,8.350 C8.475,8.350 8.465,8.350 8.455,8.350 C8.444,8.540 8.434,8.730 8.424,8.920 C8.414,8.920 8.404,8.920 8.394,8.920 C8.394,9.006 8.394,9.092 8.394,9.177 C8.384,9.177 8.374,9.177 8.364,9.177 C8.364,9.272 8.364,9.368 8.364,9.463 C8.353,9.463 8.343,9.463 8.333,9.463 C8.333,9.558 8.333,9.653 8.333,9.748 C8.323,9.748 8.313,9.748 8.303,9.748 C8.303,9.843 8.303,9.938 8.303,10.033 C8.293,10.033 8.283,10.033 8.273,10.033 C8.273,10.128 8.273,10.224 8.273,10.319 C8.263,10.319 8.253,10.319 8.242,10.319 C8.242,10.414 8.242,10.509 8.242,10.604 C8.232,10.604 8.222,10.604 8.212,10.604 C8.212,10.699 8.212,10.794 8.212,10.889 C8.202,10.889 8.192,10.889 8.182,10.889 C8.182,10.975 8.182,11.061 8.182,11.146 C8.172,11.146 8.162,11.146 8.151,11.146 C8.151,11.241 8.151,11.337 8.151,11.432 C8.141,11.432 8.131,11.432 8.121,11.432 C8.121,11.527 8.121,11.622 8.121,11.717 C8.111,11.717 8.101,11.717 8.091,11.717 C8.091,11.812 8.091,11.907 8.091,12.002 C8.081,12.002 8.071,12.002 8.061,12.002 C8.061,12.098 8.061,12.193 8.061,12.288 C8.050,12.288 8.040,12.288 8.030,12.288 C8.020,12.440 8.010,12.592 8.000,12.744 C8.030,12.839 8.061,12.935 8.091,13.030 C8.185,13.082 8.193,13.115 8.364,13.115 C8.398,13.083 8.364,13.104 8.424,13.087 C8.444,13.051 8.472,13.048 8.485,13.030 C8.485,13.011 8.485,12.992 8.485,12.973 C8.505,12.963 8.525,12.954 8.545,12.944 C8.586,12.839 8.626,12.735 8.667,12.630 C8.667,12.545 8.667,12.459 8.667,12.373 C8.677,12.373 8.687,12.373 8.697,12.373 C8.697,12.278 8.697,12.183 8.697,12.088 C8.707,12.088 8.717,12.088 8.727,12.088 C8.727,12.002 8.727,11.917 8.727,11.831 C8.737,11.831 8.747,11.831 8.758,11.831 C8.758,11.736 8.758,11.641 8.758,11.546 C8.768,11.546 8.778,11.546 8.788,11.546 C8.788,11.451 8.788,11.356 8.788,11.260 C8.798,11.260 8.808,11.260 8.818,11.260 C8.818,11.165 8.818,11.070 8.818,10.975 C8.828,10.975 8.838,10.975 8.848,10.975 C8.858,10.785 8.869,10.595 8.879,10.404 C8.889,10.404 8.899,10.404 8.909,10.404 C8.909,10.319 8.909,10.233 8.909,10.147 C8.919,10.147 8.929,10.147 8.939,10.147 C8.939,10.052 8.939,9.957 8.939,9.862 C8.949,9.862 8.960,9.862 8.970,9.862 C8.970,9.767 8.970,9.672 8.970,9.577 C8.980,9.577 8.990,9.577 9.000,9.577 C9.000,9.482 9.000,9.387 9.000,9.291 C9.100,8.960 9.052,8.508 9.151,8.178 C9.151,8.083 9.151,7.988 9.151,7.893 C9.162,7.893 9.172,7.893 9.182,7.893 C9.192,7.703 9.202,7.513 9.212,7.322 C9.222,7.322 9.232,7.322 9.242,7.322 C9.242,7.227 9.242,7.132 9.242,7.037 C9.253,7.037 9.263,7.037 9.273,7.037 C9.273,6.942 9.273,6.847 9.273,6.752 C9.283,6.752 9.293,6.752 9.303,6.752 C9.303,6.657 9.303,6.561 9.303,6.466 C9.313,6.466 9.323,6.466 9.333,6.466 C9.333,6.381 9.333,6.295 9.333,6.209 C9.343,6.209 9.353,6.209 9.364,6.209 C9.364,6.114 9.364,6.019 9.364,5.924 C9.374,5.924 9.384,5.924 9.394,5.924 C9.394,5.829 9.394,5.734 9.394,5.639 C9.404,5.639 9.414,5.639 9.424,5.639 C9.424,5.544 9.424,5.448 9.424,5.353 C9.434,5.353 9.444,5.353 9.454,5.353 C9.454,5.258 9.454,5.163 9.454,5.068 C9.489,4.952 9.572,4.410 9.515,4.240 C9.505,4.240 9.495,4.240 9.485,4.240 C9.475,4.193 9.465,4.145 9.454,4.098 C9.365,4.049 9.351,3.998 9.212,3.984 Z"/>
</svg>