<svg 
 xmlns="http://www.w3.org/2000/svg"
 xmlns:xlink="http://www.w3.org/1999/xlink"
 width="32px" height="36px">
<path fill-rule="evenodd"  fill="rgb(247, 247, 248)"
 d="M21.967,2.438 C21.967,2.460 21.967,2.482 21.967,2.504 C22.123,2.593 22.202,2.743 22.323,2.867 C22.366,2.899 22.409,2.932 22.452,2.965 C22.452,2.987 22.452,3.009 22.452,3.031 C22.506,3.075 22.560,3.119 22.613,3.163 C22.613,3.185 22.613,3.207 22.613,3.229 C22.667,3.273 22.721,3.317 22.775,3.361 C22.775,3.383 22.775,3.405 22.775,3.427 C22.807,3.449 22.839,3.471 22.872,3.493 C22.872,3.515 22.872,3.537 22.872,3.558 C22.893,3.569 22.915,3.580 22.936,3.591 C22.936,3.613 22.936,3.635 22.936,3.657 C22.969,3.679 23.001,3.701 23.033,3.723 C23.033,3.745 23.033,3.767 23.033,3.789 C23.055,3.800 23.076,3.811 23.098,3.822 C23.098,3.844 23.098,3.866 23.098,3.888 C23.120,3.899 23.141,3.910 23.163,3.921 C23.173,3.954 23.184,3.987 23.195,4.020 C23.206,4.020 23.216,4.020 23.227,4.020 C23.238,4.064 23.249,4.108 23.259,4.152 C23.292,4.173 23.324,4.196 23.356,4.217 C23.356,4.239 23.356,4.261 23.356,4.283 C23.367,4.283 23.378,4.283 23.389,4.283 C23.389,4.305 23.389,4.327 23.389,4.349 C23.399,4.349 23.410,4.349 23.421,4.349 C23.421,4.371 23.421,4.393 23.421,4.415 C23.432,4.415 23.442,4.415 23.453,4.415 C23.453,4.437 23.453,4.459 23.453,4.481 C23.475,4.492 23.496,4.503 23.518,4.514 C23.518,4.536 23.518,4.558 23.518,4.580 C23.529,4.580 23.539,4.580 23.550,4.580 C23.550,4.602 23.550,4.624 23.550,4.646 C23.561,4.646 23.572,4.646 23.583,4.646 C23.583,4.668 23.583,4.690 23.583,4.712 C23.593,4.712 23.604,4.712 23.615,4.712 C23.615,4.734 23.615,4.756 23.615,4.778 C23.626,4.778 23.636,4.778 23.647,4.778 C23.647,4.800 23.647,4.822 23.647,4.843 C23.658,4.843 23.669,4.843 23.679,4.843 C23.679,4.865 23.679,4.887 23.679,4.909 C23.690,4.909 23.701,4.909 23.712,4.909 C23.712,4.931 23.712,4.953 23.712,4.975 C23.723,4.975 23.733,4.975 23.744,4.975 C23.766,5.041 23.787,5.107 23.809,5.173 C23.819,5.173 23.830,5.173 23.841,5.173 C23.841,5.206 23.841,5.239 23.841,5.272 C23.852,5.272 23.862,5.272 23.873,5.272 C23.873,5.294 23.873,5.316 23.873,5.338 C23.884,5.338 23.895,5.338 23.906,5.338 C23.906,5.371 23.906,5.404 23.906,5.437 C23.916,5.437 23.927,5.437 23.938,5.437 C23.949,5.481 23.959,5.524 23.970,5.568 C23.981,5.568 23.992,5.568 24.002,5.568 C24.013,5.634 24.024,5.700 24.035,5.766 C24.046,5.766 24.056,5.766 24.067,5.766 C24.067,5.799 24.067,5.832 24.067,5.865 C24.078,5.865 24.089,5.865 24.099,5.865 C24.099,5.898 24.099,5.931 24.099,5.964 C24.110,5.964 24.121,5.964 24.132,5.964 C24.132,5.986 24.132,6.008 24.132,6.030 C24.143,6.030 24.153,6.030 24.164,6.030 C24.196,6.183 24.229,6.337 24.261,6.491 C24.272,6.491 24.282,6.491 24.293,6.491 C24.293,6.535 24.293,6.579 24.293,6.623 C24.373,6.866 24.415,7.190 24.487,7.446 C24.487,7.556 24.487,7.666 24.487,7.776 C24.598,8.181 24.599,9.316 24.487,9.720 C24.487,9.819 24.487,9.918 24.487,10.017 C24.422,10.368 24.358,10.719 24.293,11.071 C24.282,11.071 24.272,11.071 24.261,11.071 C24.261,11.104 24.261,11.137 24.261,11.170 C24.250,11.170 24.239,11.170 24.229,11.170 C24.218,11.258 24.207,11.345 24.196,11.433 C24.186,11.433 24.175,11.433 24.164,11.433 C24.164,11.466 24.164,11.499 24.164,11.532 C24.153,11.532 24.143,11.532 24.132,11.532 C24.132,11.565 24.132,11.598 24.132,11.631 C24.121,11.631 24.110,11.631 24.099,11.631 C24.099,11.664 24.099,11.697 24.099,11.730 C24.089,11.730 24.078,11.730 24.067,11.730 C24.067,11.763 24.067,11.796 24.067,11.829 C24.056,11.829 24.046,11.829 24.035,11.829 C24.035,11.873 24.035,11.917 24.035,11.961 C24.024,11.961 24.013,11.961 24.002,11.961 C24.002,11.993 24.002,12.026 24.002,12.059 C23.992,12.059 23.981,12.059 23.970,12.059 C23.970,12.081 23.970,12.103 23.970,12.125 C23.959,12.125 23.949,12.125 23.938,12.125 C23.938,12.158 23.938,12.191 23.938,12.224 C23.927,12.224 23.916,12.224 23.906,12.224 C23.906,12.246 23.906,12.268 23.906,12.290 C23.895,12.290 23.884,12.290 23.873,12.290 C23.862,12.356 23.852,12.422 23.841,12.488 C23.830,12.488 23.819,12.488 23.809,12.488 C23.809,12.510 23.809,12.532 23.809,12.554 C23.798,12.554 23.787,12.554 23.776,12.554 C23.776,12.587 23.776,12.619 23.776,12.652 C23.766,12.652 23.755,12.652 23.744,12.652 C23.733,12.696 23.723,12.740 23.712,12.784 C23.701,12.784 23.690,12.784 23.679,12.784 C23.679,12.817 23.679,12.850 23.679,12.883 C23.669,12.883 23.658,12.883 23.647,12.883 C23.626,12.949 23.604,13.015 23.583,13.081 C23.572,13.081 23.561,13.081 23.550,13.081 C23.550,13.103 23.550,13.125 23.550,13.147 C23.539,13.147 23.529,13.147 23.518,13.147 C23.518,13.169 23.518,13.191 23.518,13.213 C23.507,13.213 23.496,13.213 23.486,13.213 C23.486,13.235 23.486,13.256 23.486,13.278 C23.475,13.278 23.464,13.278 23.453,13.278 C23.453,13.300 23.453,13.322 23.453,13.344 C23.442,13.344 23.432,13.344 23.421,13.344 C23.421,13.366 23.421,13.388 23.421,13.410 C23.410,13.410 23.399,13.410 23.389,13.410 C23.389,13.432 23.389,13.454 23.389,13.476 C23.378,13.476 23.367,13.476 23.356,13.476 C23.356,13.498 23.356,13.520 23.356,13.542 C23.346,13.542 23.335,13.542 23.324,13.542 C23.324,13.564 23.324,13.586 23.324,13.608 C23.313,13.608 23.303,13.608 23.292,13.608 C23.292,13.630 23.292,13.652 23.292,13.674 C23.270,13.685 23.249,13.696 23.227,13.707 C23.227,13.740 23.227,13.773 23.227,13.806 C23.206,13.817 23.184,13.828 23.163,13.839 C23.152,13.882 23.141,13.926 23.130,13.970 C23.109,13.981 23.087,13.992 23.066,14.003 C23.055,14.047 23.044,14.091 23.033,14.135 C23.012,14.146 22.990,14.157 22.969,14.168 C22.958,14.212 22.947,14.256 22.936,14.300 C22.915,14.311 22.893,14.322 22.872,14.333 C22.872,14.355 22.872,14.377 22.872,14.399 C22.850,14.410 22.829,14.421 22.807,14.432 C22.807,14.454 22.807,14.476 22.807,14.498 C22.786,14.509 22.764,14.520 22.743,14.531 C22.743,14.552 22.743,14.574 22.743,14.596 C22.721,14.607 22.700,14.618 22.678,14.629 C22.678,14.651 22.678,14.673 22.678,14.695 C22.656,14.706 22.635,14.717 22.613,14.728 C22.613,14.750 22.613,14.772 22.613,14.794 C22.581,14.816 22.549,14.838 22.516,14.860 C22.516,14.882 22.516,14.904 22.516,14.926 C22.495,14.937 22.473,14.948 22.452,14.959 C22.452,14.981 22.452,15.003 22.452,15.025 C22.430,15.036 22.409,15.047 22.387,15.058 C22.387,15.069 22.387,15.080 22.387,15.091 C22.366,15.102 22.344,15.113 22.323,15.124 C22.323,15.146 22.323,15.168 22.323,15.190 C22.280,15.222 22.236,15.255 22.193,15.288 C22.193,15.310 22.193,15.332 22.193,15.354 C22.150,15.387 22.107,15.420 22.064,15.453 C22.064,15.475 22.064,15.497 22.064,15.519 C22.010,15.563 21.956,15.607 21.903,15.651 C21.903,15.673 21.903,15.695 21.903,15.717 C21.698,15.914 21.493,16.112 21.289,16.310 C21.192,16.420 21.095,16.529 20.998,16.639 C20.977,16.639 20.955,16.639 20.933,16.639 C20.890,16.694 20.847,16.749 20.804,16.804 C20.783,16.804 20.761,16.804 20.740,16.804 C20.707,16.848 20.675,16.892 20.643,16.936 C20.621,16.936 20.600,16.936 20.578,16.936 C20.557,16.969 20.535,17.002 20.514,17.035 C20.492,17.035 20.470,17.035 20.449,17.035 C20.427,17.068 20.406,17.101 20.384,17.134 C20.363,17.134 20.341,17.134 20.320,17.134 C20.309,17.155 20.298,17.177 20.287,17.199 C20.266,17.199 20.244,17.199 20.223,17.199 C20.201,17.232 20.180,17.265 20.158,17.298 C20.137,17.298 20.115,17.298 20.094,17.298 C20.083,17.320 20.072,17.342 20.061,17.364 C20.040,17.364 20.018,17.364 19.997,17.364 C19.986,17.386 19.975,17.408 19.964,17.430 C19.932,17.441 19.900,17.452 19.867,17.463 C19.867,17.474 19.867,17.485 19.867,17.496 C19.824,17.507 19.781,17.518 19.738,17.529 C19.727,17.551 19.717,17.573 19.706,17.595 C19.674,17.606 19.641,17.617 19.609,17.628 C19.609,17.639 19.609,17.650 19.609,17.661 C19.544,17.683 19.480,17.705 19.415,17.727 C19.415,17.738 19.415,17.749 19.415,17.760 C19.394,17.760 19.372,17.760 19.351,17.760 C19.351,17.770 19.351,17.782 19.351,17.793 C19.329,17.793 19.307,17.793 19.286,17.793 C19.275,17.814 19.264,17.836 19.254,17.858 C19.221,17.858 19.189,17.858 19.157,17.858 C19.146,17.880 19.135,17.902 19.124,17.924 C19.092,17.924 19.060,17.924 19.028,17.924 C19.028,17.935 19.028,17.946 19.028,17.957 C19.006,17.957 18.984,17.957 18.963,17.957 C18.963,17.968 18.963,17.979 18.963,17.990 C18.898,18.012 18.834,18.034 18.769,18.056 C18.769,18.067 18.769,18.078 18.769,18.089 C18.737,18.089 18.704,18.089 18.672,18.089 C18.672,18.100 18.672,18.111 18.672,18.122 C18.651,18.122 18.629,18.122 18.608,18.122 C18.608,18.133 18.608,18.144 18.608,18.155 C18.575,18.155 18.543,18.155 18.511,18.155 C18.511,18.166 18.511,18.177 18.511,18.188 C18.489,18.188 18.468,18.188 18.446,18.188 C18.446,18.199 18.446,18.210 18.446,18.221 C18.381,18.232 18.317,18.243 18.252,18.254 C18.252,18.265 18.252,18.276 18.252,18.287 C18.231,18.287 18.209,18.287 18.188,18.287 C18.188,18.298 18.188,18.309 18.188,18.320 C18.145,18.320 18.101,18.320 18.058,18.320 C17.132,18.658 15.595,18.827 14.537,18.484 C14.483,18.484 14.429,18.484 14.376,18.484 C14.376,18.473 14.376,18.462 14.376,18.451 C14.289,18.440 14.203,18.429 14.117,18.419 C14.117,18.408 14.117,18.397 14.117,18.386 C14.085,18.386 14.053,18.386 14.020,18.386 C14.020,18.375 14.020,18.364 14.020,18.353 C13.988,18.353 13.956,18.353 13.923,18.353 C13.923,18.342 13.923,18.331 13.923,18.320 C13.880,18.320 13.837,18.320 13.794,18.320 C13.794,18.309 13.794,18.298 13.794,18.287 C13.773,18.287 13.751,18.287 13.730,18.287 C13.730,18.276 13.730,18.265 13.730,18.254 C13.665,18.243 13.600,18.232 13.536,18.221 C13.536,18.210 13.536,18.199 13.536,18.188 C13.514,18.188 13.493,18.188 13.471,18.188 C13.471,18.177 13.471,18.166 13.471,18.155 C13.439,18.155 13.406,18.155 13.374,18.155 C13.374,18.144 13.374,18.133 13.374,18.122 C13.353,18.122 13.331,18.122 13.310,18.122 C13.310,18.111 13.310,18.100 13.310,18.089 C13.277,18.089 13.245,18.089 13.213,18.089 C13.213,18.078 13.213,18.067 13.213,18.056 C13.170,18.045 13.127,18.034 13.083,18.023 C13.083,18.012 13.083,18.001 13.083,17.990 C13.062,17.990 13.040,17.990 13.019,17.990 C13.019,17.979 13.019,17.968 13.019,17.957 C12.965,17.946 12.911,17.935 12.857,17.924 C12.846,17.902 12.836,17.880 12.825,17.858 C12.771,17.847 12.717,17.836 12.664,17.825 C12.653,17.803 12.642,17.782 12.631,17.760 C12.610,17.760 12.588,17.760 12.567,17.760 C12.567,17.749 12.567,17.738 12.567,17.727 C12.545,17.727 12.523,17.727 12.502,17.727 C12.502,17.716 12.502,17.705 12.502,17.694 C12.480,17.694 12.459,17.694 12.437,17.694 C12.437,17.683 12.437,17.672 12.437,17.661 C12.416,17.661 12.394,17.661 12.373,17.661 C12.362,17.639 12.351,17.617 12.340,17.595 C12.319,17.595 12.297,17.595 12.276,17.595 C12.265,17.573 12.254,17.551 12.244,17.529 C12.200,17.518 12.157,17.507 12.114,17.496 C12.104,17.474 12.093,17.452 12.082,17.430 C12.060,17.430 12.039,17.430 12.017,17.430 C12.007,17.408 11.996,17.386 11.985,17.364 C11.963,17.364 11.942,17.364 11.920,17.364 C11.910,17.342 11.899,17.320 11.888,17.298 C11.867,17.298 11.845,17.298 11.824,17.298 C11.813,17.276 11.802,17.254 11.791,17.232 C11.770,17.232 11.748,17.232 11.727,17.232 C11.716,17.210 11.705,17.188 11.694,17.166 C11.673,17.166 11.651,17.166 11.630,17.166 C11.597,17.123 11.565,17.079 11.533,17.035 C11.511,17.035 11.490,17.035 11.468,17.035 C11.447,17.002 11.425,16.969 11.404,16.936 C11.382,16.936 11.360,16.936 11.339,16.936 C11.307,16.892 11.274,16.848 11.242,16.804 C11.221,16.804 11.199,16.804 11.177,16.804 C11.124,16.738 11.070,16.672 11.016,16.606 C10.994,16.606 10.973,16.606 10.951,16.606 C10.865,16.507 10.779,16.409 10.693,16.310 C10.661,16.288 10.628,16.266 10.596,16.244 C10.596,16.233 10.596,16.222 10.596,16.211 C10.574,16.211 10.553,16.211 10.531,16.211 C10.510,16.167 10.488,16.123 10.467,16.079 C10.337,15.958 10.208,15.838 10.079,15.717 C10.079,15.695 10.079,15.673 10.079,15.651 C10.014,15.596 9.950,15.541 9.885,15.486 C9.885,15.464 9.885,15.442 9.885,15.420 C9.864,15.409 9.842,15.398 9.821,15.387 C9.821,15.376 9.821,15.365 9.821,15.354 C9.788,15.332 9.756,15.310 9.724,15.288 C9.724,15.266 9.724,15.244 9.724,15.222 C9.702,15.211 9.681,15.200 9.659,15.190 C9.659,15.168 9.659,15.146 9.659,15.124 C9.616,15.091 9.573,15.058 9.530,15.025 C9.530,15.003 9.530,14.981 9.530,14.959 C9.498,14.937 9.465,14.915 9.433,14.893 C9.433,14.871 9.433,14.849 9.433,14.827 C9.411,14.816 9.390,14.805 9.368,14.794 C9.358,14.761 9.347,14.728 9.336,14.695 C9.325,14.695 9.315,14.695 9.304,14.695 C9.304,14.673 9.304,14.651 9.304,14.629 C9.271,14.607 9.239,14.585 9.207,14.563 C9.196,14.520 9.185,14.476 9.175,14.432 C9.153,14.421 9.131,14.410 9.110,14.399 C9.110,14.377 9.110,14.355 9.110,14.333 C9.088,14.322 9.067,14.311 9.045,14.300 C9.045,14.278 9.045,14.256 9.045,14.234 C9.024,14.223 9.002,14.212 8.981,14.201 C8.981,14.179 8.981,14.157 8.981,14.135 C8.959,14.124 8.938,14.113 8.916,14.102 C8.916,14.080 8.916,14.058 8.916,14.036 C8.905,14.036 8.895,14.036 8.884,14.036 C8.884,14.014 8.884,13.992 8.884,13.970 C8.873,13.970 8.862,13.970 8.851,13.970 C8.851,13.948 8.851,13.926 8.851,13.905 C8.841,13.905 8.830,13.905 8.819,13.905 C8.819,13.883 8.819,13.861 8.819,13.839 C8.798,13.828 8.776,13.817 8.755,13.806 C8.755,13.773 8.755,13.740 8.755,13.707 C8.733,13.696 8.712,13.685 8.690,13.674 C8.690,13.652 8.690,13.630 8.690,13.608 C8.679,13.608 8.668,13.608 8.658,13.608 C8.658,13.586 8.658,13.564 8.658,13.542 C8.647,13.542 8.636,13.542 8.625,13.542 C8.625,13.520 8.625,13.498 8.625,13.476 C8.615,13.476 8.604,13.476 8.593,13.476 C8.593,13.454 8.593,13.432 8.593,13.410 C8.582,13.410 8.572,13.410 8.561,13.410 C8.561,13.388 8.561,13.366 8.561,13.344 C8.539,13.333 8.518,13.322 8.496,13.311 C8.485,13.257 8.475,13.202 8.464,13.147 C8.453,13.147 8.442,13.147 8.431,13.147 C8.431,13.125 8.431,13.103 8.431,13.081 C8.421,13.081 8.410,13.081 8.399,13.081 C8.399,13.059 8.399,13.037 8.399,13.015 C8.388,13.015 8.378,13.015 8.367,13.015 C8.345,12.949 8.324,12.883 8.302,12.817 C8.292,12.817 8.281,12.817 8.270,12.817 C8.270,12.784 8.270,12.751 8.270,12.718 C8.259,12.718 8.248,12.718 8.238,12.718 C8.238,12.696 8.238,12.674 8.238,12.652 C8.227,12.652 8.216,12.652 8.205,12.652 C8.205,12.619 8.205,12.587 8.205,12.554 C8.195,12.554 8.184,12.554 8.173,12.554 C8.173,12.532 8.173,12.510 8.173,12.488 C8.162,12.488 8.152,12.488 8.141,12.488 C8.130,12.433 8.119,12.378 8.108,12.323 C8.098,12.323 8.087,12.323 8.076,12.323 C8.076,12.290 8.076,12.257 8.076,12.224 C8.065,12.224 8.055,12.224 8.044,12.224 C8.044,12.202 8.044,12.180 8.044,12.158 C8.033,12.158 8.022,12.158 8.012,12.158 C7.893,11.752 7.775,11.345 7.656,10.939 C7.635,10.774 7.613,10.610 7.592,10.445 C7.581,10.445 7.570,10.445 7.559,10.445 C7.559,10.390 7.559,10.335 7.559,10.280 C7.549,10.280 7.538,10.280 7.527,10.280 C7.527,10.203 7.527,10.126 7.527,10.049 C7.516,10.049 7.505,10.049 7.495,10.049 C7.495,9.951 7.495,9.852 7.495,9.753 C7.409,9.440 7.430,9.000 7.430,8.600 C7.430,7.711 7.556,6.918 7.785,6.260 C7.785,6.216 7.785,6.172 7.785,6.129 C7.796,6.129 7.807,6.129 7.818,6.129 C7.818,6.096 7.818,6.063 7.818,6.030 C7.828,6.030 7.839,6.030 7.850,6.030 C7.850,5.997 7.850,5.964 7.850,5.931 C7.861,5.931 7.872,5.931 7.882,5.931 C7.882,5.898 7.882,5.865 7.882,5.832 C7.893,5.832 7.904,5.832 7.915,5.832 C7.915,5.810 7.915,5.788 7.915,5.766 C7.925,5.766 7.936,5.766 7.947,5.766 C7.958,5.700 7.968,5.634 7.979,5.568 C7.990,5.568 8.001,5.568 8.012,5.568 C8.022,5.524 8.033,5.481 8.044,5.437 C8.055,5.437 8.065,5.437 8.076,5.437 C8.076,5.404 8.076,5.371 8.076,5.338 C8.087,5.338 8.098,5.338 8.108,5.338 C8.108,5.316 8.108,5.294 8.108,5.272 C8.119,5.272 8.130,5.272 8.141,5.272 C8.141,5.239 8.141,5.206 8.141,5.173 C8.152,5.173 8.162,5.173 8.173,5.173 C8.195,5.107 8.216,5.041 8.238,4.975 C8.248,4.975 8.259,4.975 8.270,4.975 C8.270,4.953 8.270,4.931 8.270,4.909 C8.281,4.909 8.292,4.909 8.302,4.909 C8.302,4.887 8.302,4.865 8.302,4.843 C8.313,4.843 8.324,4.843 8.335,4.843 C8.335,4.822 8.335,4.800 8.335,4.778 C8.345,4.778 8.356,4.778 8.367,4.778 C8.367,4.756 8.367,4.734 8.367,4.712 C8.378,4.712 8.388,4.712 8.399,4.712 C8.399,4.690 8.399,4.668 8.399,4.646 C8.410,4.646 8.421,4.646 8.431,4.646 C8.431,4.624 8.431,4.602 8.431,4.580 C8.442,4.580 8.453,4.580 8.464,4.580 C8.464,4.558 8.464,4.536 8.464,4.514 C8.485,4.503 8.507,4.492 8.528,4.481 C8.528,4.459 8.528,4.437 8.528,4.415 C8.539,4.415 8.550,4.415 8.561,4.415 C8.561,4.393 8.561,4.371 8.561,4.349 C8.572,4.349 8.582,4.349 8.593,4.349 C8.593,4.327 8.593,4.305 8.593,4.283 C8.604,4.283 8.615,4.283 8.625,4.283 C8.625,4.261 8.625,4.239 8.625,4.217 C8.647,4.206 8.668,4.196 8.690,4.185 C8.690,4.163 8.690,4.141 8.690,4.119 C8.712,4.108 8.733,4.097 8.755,4.086 C8.755,4.064 8.755,4.042 8.755,4.020 C8.776,4.009 8.798,3.998 8.819,3.987 C8.819,3.965 8.819,3.943 8.819,3.921 C8.841,3.910 8.862,3.899 8.884,3.888 C8.895,3.844 8.905,3.800 8.916,3.756 C8.959,3.723 9.002,3.690 9.045,3.657 C9.056,3.613 9.067,3.569 9.078,3.526 C9.121,3.493 9.164,3.460 9.207,3.427 C9.207,3.405 9.207,3.383 9.207,3.361 C9.261,3.317 9.315,3.273 9.368,3.229 C9.368,3.207 9.368,3.185 9.368,3.163 C9.422,3.119 9.476,3.075 9.530,3.031 C9.530,3.009 9.530,2.987 9.530,2.965 C9.638,2.867 9.745,2.768 9.853,2.669 C9.853,2.647 9.853,2.625 9.853,2.603 C9.896,2.581 9.939,2.559 9.982,2.537 C9.993,2.504 10.004,2.471 10.014,2.438 C10.036,2.438 10.058,2.438 10.079,2.438 C10.187,2.317 10.294,2.197 10.402,2.076 C10.424,2.076 10.445,2.076 10.467,2.076 C10.499,2.032 10.531,1.988 10.564,1.944 C10.585,1.944 10.607,1.944 10.628,1.944 C10.639,1.922 10.650,1.900 10.661,1.878 C10.671,1.878 10.682,1.878 10.693,1.878 C10.704,1.856 10.714,1.834 10.725,1.812 C10.747,1.812 10.768,1.812 10.790,1.812 C10.811,1.779 10.833,1.746 10.854,1.713 C10.876,1.713 10.897,1.713 10.919,1.713 C10.940,1.680 10.962,1.647 10.984,1.614 C11.005,1.614 11.027,1.614 11.048,1.614 C11.059,1.593 11.070,1.571 11.081,1.549 C11.113,1.538 11.145,1.527 11.177,1.516 C11.177,1.505 11.177,1.494 11.177,1.483 C11.199,1.483 11.221,1.483 11.242,1.483 C11.253,1.461 11.264,1.439 11.274,1.417 C11.296,1.417 11.317,1.417 11.339,1.417 C11.350,1.395 11.360,1.373 11.371,1.351 C11.404,1.340 11.436,1.329 11.468,1.318 C11.468,1.307 11.468,1.296 11.468,1.285 C11.511,1.274 11.554,1.263 11.597,1.252 C11.608,1.230 11.619,1.208 11.630,1.186 C11.694,1.164 11.759,1.142 11.824,1.120 C11.834,1.098 11.845,1.076 11.856,1.054 C11.877,1.054 11.899,1.054 11.920,1.054 C11.920,1.043 11.920,1.032 11.920,1.021 C11.942,1.021 11.963,1.021 11.985,1.021 C11.985,1.010 11.985,0.999 11.985,0.988 C12.007,0.988 12.028,0.988 12.050,0.988 C12.050,0.977 12.050,0.967 12.050,0.955 C12.071,0.955 12.093,0.955 12.114,0.955 C12.114,0.944 12.114,0.934 12.114,0.923 C12.136,0.923 12.157,0.923 12.179,0.923 C12.179,0.912 12.179,0.901 12.179,0.890 C12.200,0.890 12.222,0.890 12.244,0.890 C12.244,0.879 12.244,0.868 12.244,0.857 C12.265,0.857 12.287,0.857 12.308,0.857 C12.308,0.846 12.308,0.835 12.308,0.824 C12.373,0.802 12.437,0.780 12.502,0.758 C12.502,0.747 12.502,0.736 12.502,0.725 C12.534,0.725 12.567,0.725 12.599,0.725 C12.599,0.714 12.599,0.703 12.599,0.692 C12.620,0.692 12.642,0.692 12.664,0.692 C12.664,0.681 12.664,0.670 12.664,0.659 C12.717,0.648 12.771,0.637 12.825,0.626 C12.825,0.615 12.825,0.604 12.825,0.593 C12.857,0.593 12.890,0.593 12.922,0.593 C12.922,0.582 12.922,0.571 12.922,0.560 C12.943,0.560 12.965,0.560 12.986,0.560 C12.986,0.549 12.986,0.538 12.986,0.527 C13.083,0.505 13.180,0.483 13.277,0.461 C13.277,0.450 13.277,0.439 13.277,0.428 C13.299,0.428 13.320,0.428 13.342,0.428 C13.342,0.417 13.342,0.406 13.342,0.395 C13.385,0.395 13.428,0.395 13.471,0.395 C13.471,0.384 13.471,0.373 13.471,0.362 C13.503,0.362 13.536,0.362 13.568,0.362 C13.568,0.351 13.568,0.340 13.568,0.329 C13.611,0.329 13.654,0.329 13.697,0.329 C14.315,0.107 15.061,0.000 15.894,-0.000 C16.271,0.011 16.648,0.022 17.025,0.033 C17.412,0.110 17.800,0.187 18.188,0.264 C18.188,0.275 18.188,0.285 18.188,0.297 C18.263,0.308 18.338,0.318 18.414,0.329 C18.414,0.340 18.414,0.351 18.414,0.362 C18.446,0.362 18.478,0.362 18.511,0.362 C18.511,0.373 18.511,0.384 18.511,0.395 C18.543,0.395 18.575,0.395 18.608,0.395 C18.608,0.406 18.608,0.417 18.608,0.428 C18.640,0.428 18.672,0.428 18.704,0.428 C18.704,0.439 18.704,0.450 18.704,0.461 C18.737,0.461 18.769,0.461 18.801,0.461 C18.801,0.472 18.801,0.483 18.801,0.494 C18.834,0.494 18.866,0.494 18.898,0.494 C18.898,0.505 18.898,0.516 18.898,0.527 C18.963,0.538 19.028,0.549 19.092,0.560 C19.092,0.571 19.092,0.582 19.092,0.593 C19.135,0.604 19.178,0.615 19.221,0.626 C19.221,0.637 19.221,0.648 19.221,0.659 C19.254,0.659 19.286,0.659 19.318,0.659 C19.318,0.670 19.318,0.681 19.318,0.692 C19.340,0.692 19.361,0.692 19.383,0.692 C19.383,0.703 19.383,0.714 19.383,0.725 C19.415,0.725 19.447,0.725 19.480,0.725 C19.480,0.736 19.480,0.747 19.480,0.758 C19.544,0.780 19.609,0.802 19.674,0.824 C19.674,0.835 19.674,0.846 19.674,0.857 C19.695,0.857 19.717,0.857 19.738,0.857 C19.738,0.868 19.738,0.879 19.738,0.890 C19.760,0.890 19.781,0.890 19.803,0.890 C19.803,0.901 19.803,0.912 19.803,0.923 C19.824,0.923 19.846,0.923 19.867,0.923 C19.867,0.934 19.867,0.944 19.867,0.955 C19.889,0.955 19.910,0.955 19.932,0.955 C19.932,0.967 19.932,0.977 19.932,0.988 C19.954,0.988 19.975,0.988 19.997,0.988 C19.997,0.999 19.997,1.010 19.997,1.021 C20.018,1.021 20.040,1.021 20.061,1.021 C20.072,1.043 20.083,1.065 20.094,1.087 C20.115,1.087 20.137,1.087 20.158,1.087 C20.158,1.098 20.158,1.109 20.158,1.120 C20.180,1.120 20.201,1.120 20.223,1.120 C20.223,1.131 20.223,1.142 20.223,1.153 C20.244,1.153 20.266,1.153 20.287,1.153 C20.287,1.164 20.287,1.175 20.287,1.186 C20.309,1.186 20.330,1.186 20.352,1.186 C20.352,1.197 20.352,1.208 20.352,1.219 C20.384,1.230 20.417,1.241 20.449,1.252 C20.460,1.274 20.470,1.296 20.481,1.318 C20.503,1.318 20.524,1.318 20.546,1.318 C20.557,1.340 20.567,1.362 20.578,1.384 C20.621,1.395 20.664,1.406 20.707,1.417 C20.718,1.439 20.729,1.461 20.740,1.483 C20.761,1.483 20.783,1.483 20.804,1.483 C20.815,1.505 20.826,1.527 20.837,1.549 C20.858,1.549 20.880,1.549 20.901,1.549 C20.923,1.582 20.944,1.614 20.966,1.647 C20.987,1.647 21.009,1.647 21.030,1.647 C21.041,1.669 21.052,1.691 21.063,1.713 C21.084,1.713 21.106,1.713 21.127,1.713 C21.149,1.746 21.170,1.779 21.192,1.812 C21.214,1.812 21.235,1.812 21.257,1.812 C21.300,1.867 21.343,1.922 21.386,1.977 C21.407,1.977 21.429,1.977 21.450,1.977 C21.472,2.010 21.493,2.043 21.515,2.076 C21.547,2.087 21.580,2.098 21.612,2.109 C21.623,2.131 21.633,2.153 21.644,2.175 C21.724,2.252 21.859,2.407 21.967,2.438 ZM28.396,21.713 C28.396,21.735 28.396,21.757 28.396,21.779 C28.492,21.821 28.562,21.862 28.590,21.977 C28.689,22.000 28.727,22.041 28.751,22.142 C28.773,22.142 28.794,22.142 28.816,22.142 C28.827,22.164 28.837,22.186 28.848,22.208 C28.859,22.208 28.870,22.208 28.880,22.208 C28.880,22.230 28.880,22.252 28.880,22.274 C28.977,22.361 29.074,22.449 29.171,22.537 C29.171,22.559 29.171,22.581 29.171,22.603 C29.204,22.625 29.236,22.647 29.268,22.669 C29.268,22.680 29.268,22.691 29.268,22.702 C29.290,22.713 29.311,22.724 29.333,22.735 C29.333,22.757 29.333,22.779 29.333,22.801 C29.397,22.856 29.462,22.911 29.527,22.966 C29.527,22.987 29.527,23.009 29.527,23.031 C29.570,23.064 29.613,23.097 29.656,23.130 C29.667,23.174 29.677,23.218 29.688,23.262 C29.731,23.295 29.774,23.328 29.817,23.361 C29.817,23.383 29.817,23.405 29.817,23.427 C29.839,23.438 29.860,23.449 29.882,23.460 C29.882,23.482 29.882,23.504 29.882,23.526 C29.914,23.548 29.947,23.570 29.979,23.592 C29.990,23.635 30.000,23.679 30.011,23.723 C30.043,23.745 30.076,23.767 30.108,23.789 C30.108,23.811 30.108,23.833 30.108,23.855 C30.130,23.866 30.151,23.877 30.173,23.888 C30.173,23.910 30.173,23.932 30.173,23.954 C30.194,23.965 30.216,23.976 30.237,23.987 C30.248,24.020 30.259,24.053 30.270,24.086 C30.280,24.086 30.291,24.086 30.302,24.086 C30.302,24.108 30.302,24.130 30.302,24.152 C30.313,24.152 30.323,24.152 30.334,24.152 C30.334,24.174 30.334,24.196 30.334,24.218 C30.356,24.229 30.377,24.240 30.399,24.251 C30.420,24.316 30.442,24.382 30.463,24.448 C30.485,24.459 30.507,24.470 30.528,24.481 C30.528,24.503 30.528,24.525 30.528,24.547 C30.539,24.547 30.550,24.547 30.560,24.547 C30.560,24.569 30.560,24.591 30.560,24.613 C30.571,24.613 30.582,24.613 30.593,24.613 C30.593,24.635 30.593,24.657 30.593,24.679 C30.603,24.679 30.614,24.679 30.625,24.679 C30.625,24.701 30.625,24.723 30.625,24.745 C30.636,24.745 30.647,24.745 30.657,24.745 C30.657,24.767 30.657,24.789 30.657,24.811 C30.679,24.822 30.700,24.833 30.722,24.844 C30.722,24.866 30.722,24.888 30.722,24.910 C30.733,24.910 30.743,24.910 30.754,24.910 C30.754,24.931 30.754,24.953 30.754,24.975 C30.765,24.975 30.776,24.975 30.786,24.975 C30.786,25.008 30.786,25.041 30.786,25.074 C30.808,25.085 30.830,25.096 30.851,25.107 C30.851,25.129 30.851,25.151 30.851,25.173 C30.862,25.173 30.873,25.173 30.883,25.173 C30.883,25.195 30.883,25.217 30.883,25.239 C30.894,25.239 30.905,25.239 30.916,25.239 C30.916,25.272 30.916,25.305 30.916,25.338 C30.926,25.338 30.937,25.338 30.948,25.338 C30.948,25.360 30.948,25.382 30.948,25.404 C30.959,25.404 30.970,25.404 30.980,25.404 C31.002,25.470 31.023,25.536 31.045,25.601 C31.056,25.601 31.067,25.601 31.077,25.601 C31.077,25.634 31.077,25.667 31.077,25.700 C31.088,25.700 31.099,25.700 31.110,25.700 C31.110,25.722 31.110,25.744 31.110,25.766 C31.120,25.766 31.131,25.766 31.142,25.766 C31.153,25.821 31.163,25.876 31.174,25.931 C31.185,25.931 31.196,25.931 31.206,25.931 C31.206,25.964 31.206,25.997 31.206,26.030 C31.217,26.030 31.228,26.030 31.239,26.030 C31.239,26.052 31.239,26.074 31.239,26.096 C31.250,26.096 31.260,26.096 31.271,26.096 C31.282,26.162 31.293,26.228 31.303,26.293 C31.314,26.293 31.325,26.293 31.336,26.293 C31.336,26.315 31.336,26.337 31.336,26.359 C31.346,26.359 31.357,26.359 31.368,26.359 C31.389,26.469 31.411,26.579 31.433,26.689 C31.443,26.689 31.454,26.689 31.465,26.689 C31.465,26.722 31.465,26.755 31.465,26.788 C31.476,26.788 31.486,26.788 31.497,26.788 C31.497,26.821 31.497,26.854 31.497,26.886 C31.508,26.886 31.519,26.886 31.530,26.886 C31.530,26.919 31.530,26.952 31.530,26.985 C31.540,26.985 31.551,26.985 31.562,26.985 C31.562,27.029 31.562,27.073 31.562,27.117 C31.573,27.117 31.583,27.117 31.594,27.117 C31.594,27.161 31.594,27.205 31.594,27.249 C31.605,27.249 31.616,27.249 31.626,27.249 C31.626,27.282 31.626,27.315 31.626,27.348 C31.637,27.348 31.648,27.348 31.659,27.348 C31.659,27.392 31.659,27.436 31.659,27.480 C31.670,27.480 31.680,27.480 31.691,27.480 C31.691,27.534 31.691,27.589 31.691,27.644 C31.751,27.841 31.793,28.099 31.853,28.303 C31.853,28.369 31.853,28.435 31.853,28.501 C31.863,28.501 31.874,28.501 31.885,28.501 C31.896,28.688 31.906,28.874 31.917,29.061 C31.928,29.061 31.939,29.061 31.949,29.061 C31.949,29.193 31.949,29.325 31.949,29.456 C32.057,29.848 31.974,30.755 31.853,31.038 C31.842,31.038 31.831,31.038 31.820,31.038 C31.799,31.104 31.777,31.170 31.756,31.236 C31.745,31.236 31.734,31.236 31.723,31.236 C31.723,31.258 31.723,31.280 31.723,31.302 C31.713,31.302 31.702,31.302 31.691,31.302 C31.680,31.346 31.670,31.390 31.659,31.433 C31.637,31.444 31.616,31.455 31.594,31.466 C31.583,31.510 31.573,31.554 31.562,31.598 C31.530,31.620 31.497,31.642 31.465,31.664 C31.465,31.686 31.465,31.708 31.465,31.730 C31.250,31.961 31.034,32.191 30.819,32.422 C30.797,32.422 30.776,32.422 30.754,32.422 C30.711,32.477 30.668,32.532 30.625,32.587 C30.603,32.587 30.582,32.587 30.560,32.587 C30.550,32.609 30.539,32.631 30.528,32.653 C30.507,32.653 30.485,32.653 30.463,32.653 C30.442,32.685 30.420,32.718 30.399,32.751 C30.377,32.751 30.356,32.751 30.334,32.751 C30.313,32.784 30.291,32.817 30.270,32.850 C30.248,32.850 30.227,32.850 30.205,32.850 C30.194,32.872 30.183,32.894 30.173,32.916 C30.151,32.916 30.130,32.916 30.108,32.916 C30.097,32.938 30.087,32.960 30.076,32.982 C30.044,32.993 30.011,33.004 29.979,33.015 C29.979,33.026 29.979,33.037 29.979,33.048 C29.936,33.059 29.893,33.070 29.850,33.081 C29.839,33.103 29.828,33.125 29.817,33.147 C29.796,33.147 29.774,33.147 29.753,33.147 C29.753,33.158 29.753,33.169 29.753,33.180 C29.731,33.180 29.710,33.180 29.688,33.180 C29.677,33.202 29.667,33.224 29.656,33.246 C29.591,33.268 29.527,33.290 29.462,33.311 C29.451,33.334 29.440,33.355 29.430,33.377 C29.408,33.377 29.387,33.377 29.365,33.377 C29.365,33.388 29.365,33.399 29.365,33.410 C29.343,33.410 29.322,33.410 29.300,33.410 C29.300,33.421 29.300,33.432 29.300,33.443 C29.279,33.443 29.257,33.443 29.236,33.443 C29.236,33.454 29.236,33.465 29.236,33.476 C29.214,33.476 29.193,33.476 29.171,33.476 C29.171,33.487 29.171,33.498 29.171,33.509 C29.150,33.509 29.128,33.509 29.107,33.509 C29.107,33.520 29.107,33.531 29.107,33.542 C29.085,33.542 29.064,33.542 29.042,33.542 C29.042,33.553 29.042,33.564 29.042,33.575 C29.021,33.575 28.999,33.575 28.977,33.575 C28.977,33.586 28.977,33.597 28.977,33.608 C28.956,33.608 28.934,33.608 28.913,33.608 C28.913,33.619 28.913,33.630 28.913,33.641 C28.848,33.663 28.784,33.685 28.719,33.707 C28.719,33.718 28.719,33.729 28.719,33.740 C28.665,33.751 28.611,33.762 28.557,33.773 C28.557,33.784 28.557,33.795 28.557,33.806 C28.514,33.817 28.471,33.828 28.428,33.839 C28.428,33.850 28.428,33.861 28.428,33.872 C28.396,33.872 28.364,33.872 28.331,33.872 C28.331,33.883 28.331,33.894 28.331,33.905 C28.310,33.905 28.288,33.905 28.267,33.905 C28.267,33.916 28.267,33.927 28.267,33.938 C28.234,33.938 28.202,33.938 28.170,33.938 C28.170,33.949 28.170,33.960 28.170,33.970 C28.127,33.981 28.084,33.992 28.041,34.003 C28.041,34.014 28.041,34.025 28.041,34.036 C27.976,34.047 27.911,34.058 27.847,34.069 C27.847,34.080 27.847,34.091 27.847,34.102 C27.825,34.102 27.804,34.102 27.782,34.102 C27.782,34.113 27.782,34.124 27.782,34.135 C27.750,34.135 27.718,34.135 27.685,34.135 C27.685,34.146 27.685,34.157 27.685,34.168 C27.664,34.168 27.642,34.168 27.621,34.168 C27.621,34.179 27.621,34.190 27.621,34.201 C27.524,34.223 27.427,34.245 27.330,34.267 C27.330,34.278 27.330,34.289 27.330,34.300 C27.308,34.300 27.287,34.300 27.265,34.300 C27.265,34.311 27.265,34.322 27.265,34.333 C27.190,34.344 27.115,34.355 27.039,34.366 C27.039,34.377 27.039,34.388 27.039,34.399 C27.018,34.399 26.996,34.399 26.975,34.399 C26.975,34.410 26.975,34.421 26.975,34.432 C26.834,34.465 26.695,34.498 26.555,34.531 C26.555,34.542 26.555,34.553 26.555,34.564 C26.522,34.564 26.490,34.564 26.458,34.564 C26.458,34.575 26.458,34.586 26.458,34.597 C26.425,34.597 26.393,34.597 26.361,34.597 C26.361,34.608 26.361,34.619 26.361,34.629 C26.328,34.629 26.296,34.629 26.264,34.629 C26.264,34.640 26.264,34.651 26.264,34.662 C26.178,34.673 26.092,34.684 26.005,34.695 C26.005,34.706 26.005,34.717 26.005,34.728 C25.973,34.728 25.941,34.728 25.908,34.728 C25.908,34.739 25.908,34.750 25.908,34.761 C25.833,34.772 25.758,34.783 25.682,34.794 C25.682,34.805 25.682,34.816 25.682,34.827 C25.596,34.838 25.510,34.849 25.424,34.860 C25.424,34.871 25.424,34.882 25.424,34.893 C25.338,34.904 25.252,34.915 25.165,34.926 C25.165,34.937 25.165,34.948 25.165,34.959 C25.133,34.959 25.101,34.959 25.069,34.959 C25.069,34.970 25.069,34.981 25.069,34.992 C24.250,35.157 23.432,35.321 22.613,35.486 C22.473,35.497 22.333,35.508 22.193,35.519 C21.752,35.652 21.157,35.619 20.707,35.750 C20.600,35.750 20.492,35.750 20.384,35.750 C20.384,35.761 20.384,35.772 20.384,35.783 C20.126,35.794 19.867,35.805 19.609,35.816 C19.609,35.827 19.609,35.838 19.609,35.849 C19.491,35.849 19.372,35.849 19.254,35.849 C19.243,35.849 19.232,35.849 19.221,35.849 C19.221,35.860 19.221,35.871 19.221,35.882 C19.081,35.882 18.941,35.882 18.801,35.882 C18.801,35.893 18.801,35.904 18.801,35.914 C18.618,35.914 18.435,35.914 18.252,35.914 C18.252,35.925 18.252,35.936 18.252,35.947 C17.972,35.947 17.692,35.947 17.412,35.947 C17.074,36.044 16.461,35.980 16.055,35.980 C15.560,35.980 15.065,35.980 14.569,35.980 C14.569,35.969 14.569,35.958 14.569,35.947 C14.289,35.947 14.009,35.947 13.730,35.947 C13.730,35.936 13.730,35.925 13.730,35.914 C13.557,35.914 13.385,35.914 13.213,35.914 C13.213,35.904 13.213,35.893 13.213,35.882 C13.051,35.882 12.890,35.882 12.728,35.882 C12.728,35.871 12.728,35.860 12.728,35.849 C12.610,35.849 12.491,35.849 12.373,35.849 C12.373,35.838 12.373,35.827 12.373,35.816 C12.340,35.816 12.308,35.816 12.276,35.816 C12.157,35.816 12.039,35.816 11.920,35.816 C11.920,35.805 11.920,35.794 11.920,35.783 C11.813,35.783 11.705,35.783 11.597,35.783 C11.597,35.772 11.597,35.761 11.597,35.750 C11.490,35.750 11.382,35.750 11.274,35.750 C11.274,35.739 11.274,35.728 11.274,35.717 C11.199,35.717 11.124,35.717 11.048,35.717 C11.048,35.706 11.048,35.695 11.048,35.684 C10.951,35.684 10.854,35.684 10.757,35.684 C10.757,35.673 10.757,35.662 10.757,35.651 C10.671,35.651 10.585,35.651 10.499,35.651 C10.499,35.640 10.499,35.629 10.499,35.618 C10.413,35.618 10.327,35.618 10.241,35.618 C10.241,35.607 10.241,35.596 10.241,35.585 C10.155,35.585 10.068,35.585 9.982,35.585 C9.684,35.495 9.277,35.479 8.981,35.387 C8.916,35.387 8.851,35.387 8.787,35.387 C8.787,35.376 8.787,35.365 8.787,35.354 C8.733,35.354 8.679,35.354 8.625,35.354 C8.625,35.343 8.625,35.332 8.625,35.321 C8.561,35.321 8.496,35.321 8.431,35.321 C7.678,35.146 6.924,34.970 6.170,34.794 C6.170,34.783 6.170,34.772 6.170,34.761 C6.138,34.761 6.106,34.761 6.073,34.761 C6.073,34.750 6.073,34.739 6.073,34.728 C6.041,34.728 6.009,34.728 5.976,34.728 C5.976,34.717 5.976,34.706 5.976,34.695 C5.793,34.651 5.610,34.608 5.427,34.564 C5.427,34.553 5.427,34.542 5.427,34.531 C5.287,34.498 5.147,34.465 5.007,34.432 C5.007,34.421 5.007,34.410 5.007,34.399 C4.986,34.399 4.964,34.399 4.943,34.399 C4.943,34.388 4.943,34.377 4.943,34.366 C4.867,34.355 4.792,34.344 4.716,34.333 C4.716,34.322 4.716,34.311 4.716,34.300 C4.695,34.300 4.673,34.300 4.652,34.300 C4.652,34.289 4.652,34.278 4.652,34.267 C4.620,34.267 4.587,34.267 4.555,34.267 C4.555,34.256 4.555,34.245 4.555,34.234 C4.523,34.234 4.490,34.234 4.458,34.234 C4.458,34.223 4.458,34.212 4.458,34.201 C4.426,34.201 4.393,34.201 4.361,34.201 C4.361,34.190 4.361,34.179 4.361,34.168 C4.329,34.168 4.297,34.168 4.264,34.168 C4.264,34.157 4.264,34.146 4.264,34.135 C4.221,34.124 4.178,34.113 4.135,34.102 C4.135,34.091 4.135,34.080 4.135,34.069 C4.070,34.058 4.006,34.047 3.941,34.036 C3.941,34.025 3.941,34.014 3.941,34.003 C3.920,34.003 3.898,34.003 3.877,34.003 C3.877,33.992 3.877,33.981 3.877,33.970 C3.844,33.970 3.812,33.970 3.780,33.970 C3.780,33.960 3.780,33.949 3.780,33.938 C3.758,33.938 3.737,33.938 3.715,33.938 C3.715,33.927 3.715,33.916 3.715,33.905 C3.683,33.905 3.650,33.905 3.618,33.905 C3.618,33.894 3.618,33.883 3.618,33.872 C3.575,33.861 3.532,33.850 3.489,33.839 C3.489,33.828 3.489,33.817 3.489,33.806 C3.467,33.806 3.446,33.806 3.424,33.806 C3.424,33.795 3.424,33.784 3.424,33.773 C3.403,33.773 3.381,33.773 3.360,33.773 C3.360,33.762 3.360,33.751 3.360,33.740 C3.327,33.740 3.295,33.740 3.263,33.740 C3.263,33.729 3.263,33.718 3.263,33.707 C3.198,33.685 3.134,33.663 3.069,33.641 C3.069,33.630 3.069,33.619 3.069,33.608 C3.047,33.608 3.026,33.608 3.004,33.608 C3.004,33.597 3.004,33.586 3.004,33.575 C2.983,33.575 2.961,33.575 2.940,33.575 C2.940,33.564 2.940,33.553 2.940,33.542 C2.918,33.542 2.897,33.542 2.875,33.542 C2.875,33.531 2.875,33.520 2.875,33.509 C2.854,33.509 2.832,33.509 2.810,33.509 C2.810,33.498 2.810,33.487 2.810,33.476 C2.789,33.476 2.767,33.476 2.746,33.476 C2.746,33.465 2.746,33.454 2.746,33.443 C2.724,33.443 2.703,33.443 2.681,33.443 C2.681,33.432 2.681,33.421 2.681,33.410 C2.660,33.410 2.638,33.410 2.617,33.410 C2.617,33.399 2.617,33.388 2.617,33.377 C2.595,33.377 2.574,33.377 2.552,33.377 C2.541,33.355 2.530,33.334 2.520,33.311 C2.498,33.311 2.477,33.311 2.455,33.311 C2.455,33.301 2.455,33.290 2.455,33.279 C2.434,33.279 2.412,33.279 2.390,33.279 C2.390,33.268 2.390,33.257 2.390,33.246 C2.369,33.246 2.347,33.246 2.326,33.246 C2.326,33.235 2.326,33.224 2.326,33.213 C2.304,33.213 2.283,33.213 2.261,33.213 C2.261,33.202 2.261,33.191 2.261,33.180 C2.229,33.169 2.197,33.158 2.164,33.147 C2.154,33.125 2.143,33.103 2.132,33.081 C2.089,33.070 2.046,33.059 2.003,33.048 C1.992,33.026 1.981,33.004 1.970,32.982 C1.949,32.982 1.927,32.982 1.906,32.982 C1.906,32.971 1.906,32.960 1.906,32.949 C1.874,32.938 1.841,32.927 1.809,32.916 C1.798,32.894 1.787,32.872 1.777,32.850 C1.755,32.850 1.734,32.850 1.712,32.850 C1.691,32.817 1.669,32.784 1.648,32.751 C1.626,32.751 1.604,32.751 1.583,32.751 C1.572,32.729 1.561,32.707 1.551,32.685 C1.529,32.685 1.507,32.685 1.486,32.685 C1.475,32.664 1.464,32.642 1.454,32.620 C1.421,32.609 1.389,32.598 1.357,32.587 C1.324,32.543 1.292,32.499 1.260,32.455 C1.238,32.455 1.217,32.455 1.195,32.455 C1.098,32.345 1.001,32.235 0.904,32.125 C0.818,32.048 0.732,31.972 0.646,31.895 C0.424,31.580 0.201,31.236 0.065,30.840 C0.065,30.796 0.065,30.752 0.065,30.709 C0.054,30.709 0.043,30.709 0.032,30.709 C0.032,30.665 0.032,30.621 0.032,30.577 C0.021,30.577 0.011,30.577 -0.000,30.577 C-0.000,30.401 -0.000,30.225 -0.000,30.050 C-0.000,29.594 -0.004,29.124 0.097,28.765 C0.097,28.666 0.097,28.567 0.097,28.468 C0.108,28.468 0.118,28.468 0.129,28.468 C0.129,28.402 0.129,28.336 0.129,28.270 C0.140,28.270 0.151,28.270 0.162,28.270 C0.162,28.215 0.162,28.160 0.162,28.106 C0.172,28.106 0.183,28.106 0.194,28.106 C0.205,28.007 0.215,27.908 0.226,27.809 C0.237,27.809 0.248,27.809 0.258,27.809 C0.258,27.743 0.258,27.677 0.258,27.611 C0.269,27.611 0.280,27.611 0.291,27.611 C0.291,27.567 0.291,27.523 0.291,27.480 C0.301,27.480 0.312,27.480 0.323,27.480 C0.323,27.436 0.323,27.392 0.323,27.348 C0.334,27.348 0.345,27.348 0.355,27.348 C0.355,27.315 0.355,27.282 0.355,27.249 C0.366,27.249 0.377,27.249 0.388,27.249 C0.388,27.194 0.388,27.139 0.388,27.084 C0.398,27.084 0.409,27.084 0.420,27.084 C0.420,27.051 0.420,27.018 0.420,26.985 C0.431,26.985 0.441,26.985 0.452,26.985 C0.452,26.941 0.452,26.897 0.452,26.854 C0.463,26.854 0.474,26.854 0.484,26.854 C0.484,26.832 0.484,26.810 0.484,26.788 C0.495,26.788 0.506,26.788 0.517,26.788 C0.549,26.645 0.581,26.502 0.614,26.359 C0.625,26.359 0.635,26.359 0.646,26.359 C0.646,26.337 0.646,26.315 0.646,26.293 C0.657,26.293 0.668,26.293 0.678,26.293 C0.700,26.195 0.721,26.096 0.743,25.997 C0.754,25.997 0.765,25.997 0.775,25.997 C0.775,25.975 0.775,25.953 0.775,25.931 C0.786,25.931 0.797,25.931 0.808,25.931 C0.808,25.898 0.808,25.865 0.808,25.832 C0.818,25.832 0.829,25.832 0.840,25.832 C0.840,25.810 0.840,25.788 0.840,25.766 C0.851,25.766 0.861,25.766 0.872,25.766 C0.872,25.733 0.872,25.700 0.872,25.667 C0.883,25.667 0.894,25.667 0.904,25.667 C0.926,25.601 0.948,25.536 0.969,25.470 C0.980,25.470 0.991,25.470 1.001,25.470 C1.001,25.448 1.001,25.426 1.001,25.404 C1.012,25.404 1.023,25.404 1.034,25.404 C1.034,25.371 1.034,25.338 1.034,25.305 C1.044,25.305 1.055,25.305 1.066,25.305 C1.088,25.239 1.109,25.173 1.131,25.107 C1.141,25.107 1.152,25.107 1.163,25.107 C1.163,25.085 1.163,25.063 1.163,25.041 C1.174,25.041 1.185,25.041 1.195,25.041 C1.195,25.019 1.195,24.997 1.195,24.975 C1.206,24.975 1.217,24.975 1.228,24.975 C1.249,24.910 1.271,24.844 1.292,24.778 C1.314,24.767 1.335,24.756 1.357,24.745 C1.357,24.723 1.357,24.701 1.357,24.679 C1.368,24.679 1.378,24.679 1.389,24.679 C1.389,24.657 1.389,24.635 1.389,24.613 C1.400,24.613 1.411,24.613 1.421,24.613 C1.421,24.591 1.421,24.569 1.421,24.547 C1.432,24.547 1.443,24.547 1.454,24.547 C1.454,24.525 1.454,24.503 1.454,24.481 C1.475,24.470 1.497,24.459 1.518,24.448 C1.540,24.382 1.561,24.316 1.583,24.251 C1.604,24.240 1.626,24.229 1.648,24.218 C1.648,24.196 1.648,24.174 1.648,24.152 C1.658,24.152 1.669,24.152 1.680,24.152 C1.680,24.130 1.680,24.108 1.680,24.086 C1.691,24.086 1.701,24.086 1.712,24.086 C1.723,24.053 1.734,24.020 1.744,23.987 C1.766,23.976 1.787,23.965 1.809,23.954 C1.820,23.910 1.831,23.866 1.841,23.822 C1.874,23.800 1.906,23.778 1.938,23.756 C1.949,23.712 1.960,23.668 1.970,23.625 C1.992,23.614 2.014,23.602 2.035,23.592 C2.046,23.559 2.057,23.526 2.067,23.493 C2.100,23.471 2.132,23.449 2.164,23.427 C2.164,23.405 2.164,23.383 2.164,23.361 C2.186,23.350 2.207,23.339 2.229,23.328 C2.229,23.306 2.229,23.284 2.229,23.262 C2.261,23.240 2.294,23.218 2.326,23.196 C2.326,23.174 2.326,23.152 2.326,23.130 C2.369,23.097 2.412,23.064 2.455,23.031 C2.455,23.009 2.455,22.987 2.455,22.966 C2.477,22.955 2.498,22.944 2.520,22.933 C2.541,22.900 2.563,22.867 2.584,22.834 C2.595,22.834 2.606,22.834 2.617,22.834 C2.617,22.812 2.617,22.790 2.617,22.768 C2.671,22.724 2.724,22.680 2.778,22.636 C2.778,22.614 2.778,22.592 2.778,22.570 C2.886,22.471 2.994,22.372 3.101,22.274 C3.101,22.252 3.101,22.230 3.101,22.208 C3.123,22.197 3.144,22.186 3.166,22.175 C3.166,22.164 3.166,22.153 3.166,22.142 C3.187,22.142 3.209,22.142 3.230,22.142 C3.230,22.120 3.230,22.098 3.230,22.076 C3.306,22.010 3.381,21.944 3.457,21.878 C3.467,21.856 3.478,21.834 3.489,21.812 C3.566,21.752 3.546,21.847 3.586,21.713 C3.607,21.713 3.629,21.713 3.650,21.713 C3.737,21.615 3.823,21.516 3.909,21.417 C3.930,21.417 3.952,21.417 3.973,21.417 C4.016,21.362 4.060,21.307 4.103,21.252 C4.124,21.252 4.146,21.252 4.167,21.252 C4.178,21.230 4.189,21.208 4.200,21.186 C4.210,21.186 4.221,21.186 4.232,21.186 C4.243,21.164 4.253,21.142 4.264,21.120 C4.286,21.120 4.307,21.120 4.329,21.120 C4.340,21.098 4.350,21.076 4.361,21.054 C4.393,21.043 4.426,21.032 4.458,21.022 C4.490,20.978 4.523,20.934 4.555,20.890 C4.576,20.890 4.598,20.890 4.620,20.890 C4.641,20.857 4.663,20.824 4.684,20.791 C4.706,20.791 4.727,20.791 4.749,20.791 C4.749,20.780 4.749,20.769 4.749,20.758 C4.781,20.747 4.813,20.736 4.846,20.725 C4.856,20.703 4.867,20.681 4.878,20.659 C4.899,20.659 4.921,20.659 4.943,20.659 C4.964,20.626 4.986,20.593 5.007,20.560 C5.050,20.549 5.093,20.538 5.136,20.527 C5.158,20.494 5.180,20.461 5.201,20.428 C5.244,20.417 5.287,20.406 5.330,20.395 C5.341,20.373 5.352,20.352 5.363,20.330 C5.395,20.319 5.427,20.308 5.459,20.297 C5.459,20.286 5.459,20.275 5.459,20.264 C5.524,20.242 5.589,20.220 5.653,20.198 C5.664,20.176 5.675,20.154 5.686,20.132 C5.750,20.110 5.815,20.088 5.879,20.066 C5.890,20.044 5.901,20.022 5.912,20.000 C5.933,20.000 5.955,20.000 5.976,20.000 C5.976,19.989 5.976,19.978 5.976,19.967 C5.998,19.967 6.019,19.967 6.041,19.967 C6.041,19.956 6.041,19.945 6.041,19.934 C6.062,19.934 6.084,19.934 6.106,19.934 C6.106,19.923 6.106,19.912 6.106,19.901 C6.127,19.901 6.149,19.901 6.170,19.901 C6.170,19.890 6.170,19.879 6.170,19.868 C6.192,19.868 6.213,19.868 6.235,19.868 C6.235,19.857 6.235,19.846 6.235,19.835 C6.256,19.835 6.278,19.835 6.299,19.835 C6.299,19.824 6.299,19.813 6.299,19.802 C6.321,19.802 6.342,19.802 6.364,19.802 C6.364,19.791 6.364,19.780 6.364,19.769 C6.386,19.769 6.407,19.769 6.429,19.769 C6.429,19.758 6.429,19.747 6.429,19.737 C6.450,19.737 6.472,19.737 6.493,19.737 C6.493,19.726 6.493,19.714 6.493,19.704 C6.558,19.682 6.622,19.660 6.687,19.638 C6.687,19.627 6.687,19.616 6.687,19.605 C6.719,19.605 6.752,19.605 6.784,19.605 C6.784,19.594 6.784,19.583 6.784,19.572 C6.827,19.561 6.870,19.550 6.913,19.539 C6.913,19.528 6.913,19.517 6.913,19.506 C6.945,19.506 6.978,19.506 7.010,19.506 C7.010,19.495 7.010,19.484 7.010,19.473 C7.053,19.462 7.096,19.451 7.139,19.440 C7.139,19.429 7.139,19.418 7.139,19.407 C7.204,19.396 7.269,19.385 7.333,19.374 C7.333,19.363 7.333,19.352 7.333,19.341 C7.355,19.341 7.376,19.341 7.398,19.341 C7.398,19.330 7.398,19.319 7.398,19.308 C7.462,19.297 7.527,19.286 7.592,19.275 C7.592,19.264 7.592,19.253 7.592,19.242 C7.656,19.231 7.721,19.220 7.785,19.209 C7.785,19.198 7.785,19.187 7.785,19.176 C7.807,19.176 7.828,19.176 7.850,19.176 C7.850,19.165 7.850,19.154 7.850,19.143 C7.936,19.132 8.022,19.121 8.108,19.110 C8.108,19.099 8.108,19.088 8.108,19.078 C8.130,19.078 8.152,19.078 8.173,19.078 C8.173,19.067 8.173,19.056 8.173,19.045 C8.216,19.045 8.259,19.045 8.302,19.045 C8.302,19.034 8.302,19.023 8.302,19.012 C8.335,19.012 8.367,19.012 8.399,19.012 C8.399,19.001 8.399,18.990 8.399,18.979 C8.442,18.979 8.485,18.979 8.528,18.979 C8.528,18.968 8.528,18.957 8.528,18.946 C8.582,18.946 8.636,18.946 8.690,18.946 C8.950,18.860 9.272,18.768 9.595,18.748 C9.654,18.836 9.733,18.852 9.821,18.913 C9.831,18.935 9.842,18.957 9.853,18.979 C9.874,18.979 9.896,18.979 9.917,18.979 C9.950,19.023 9.982,19.067 10.014,19.110 C10.036,19.110 10.058,19.110 10.079,19.110 C10.079,19.121 10.079,19.132 10.079,19.143 C10.101,19.143 10.122,19.143 10.144,19.143 C10.154,19.165 10.165,19.187 10.176,19.209 C10.219,19.220 10.262,19.231 10.305,19.242 C10.316,19.264 10.327,19.286 10.337,19.308 C10.370,19.319 10.402,19.330 10.434,19.341 C10.434,19.352 10.434,19.363 10.434,19.374 C10.499,19.396 10.564,19.418 10.628,19.440 C10.639,19.462 10.650,19.484 10.661,19.506 C10.682,19.506 10.704,19.506 10.725,19.506 C10.725,19.517 10.725,19.528 10.725,19.539 C10.747,19.539 10.768,19.539 10.790,19.539 C10.790,19.550 10.790,19.561 10.790,19.572 C10.811,19.572 10.833,19.572 10.854,19.572 C10.854,19.583 10.854,19.594 10.854,19.605 C10.876,19.605 10.897,19.605 10.919,19.605 C10.930,19.627 10.940,19.649 10.951,19.671 C10.973,19.671 10.994,19.671 11.016,19.671 C11.016,19.682 11.016,19.693 11.016,19.704 C11.037,19.704 11.059,19.704 11.081,19.704 C11.081,19.714 11.081,19.726 11.081,19.737 C11.102,19.737 11.124,19.737 11.145,19.737 C11.145,19.747 11.145,19.758 11.145,19.769 C11.177,19.769 11.210,19.769 11.242,19.769 C11.253,19.791 11.264,19.813 11.274,19.835 C11.296,19.835 11.317,19.835 11.339,19.835 C11.339,19.846 11.339,19.857 11.339,19.868 C11.360,19.868 11.382,19.868 11.404,19.868 C11.404,19.879 11.404,19.890 11.404,19.901 C11.436,19.901 11.468,19.901 11.500,19.901 C11.500,19.912 11.500,19.923 11.500,19.934 C11.544,19.945 11.587,19.956 11.630,19.967 C11.630,19.978 11.630,19.989 11.630,20.000 C11.662,20.000 11.694,20.000 11.727,20.000 C11.727,20.011 11.727,20.022 11.727,20.033 C11.748,20.033 11.770,20.033 11.791,20.033 C11.791,20.044 11.791,20.055 11.791,20.066 C11.824,20.066 11.856,20.066 11.888,20.066 C11.888,20.077 11.888,20.088 11.888,20.099 C11.910,20.099 11.931,20.099 11.953,20.099 C11.953,20.110 11.953,20.121 11.953,20.132 C11.985,20.132 12.017,20.132 12.050,20.132 C12.050,20.143 12.050,20.154 12.050,20.165 C12.071,20.165 12.093,20.165 12.114,20.165 C12.114,20.176 12.114,20.187 12.114,20.198 C12.179,20.209 12.244,20.220 12.308,20.231 C12.308,20.242 12.308,20.253 12.308,20.264 C12.340,20.264 12.373,20.264 12.405,20.264 C12.405,20.275 12.405,20.286 12.405,20.297 C12.437,20.297 12.470,20.297 12.502,20.297 C12.502,20.308 12.502,20.319 12.502,20.330 C12.534,20.330 12.567,20.330 12.599,20.330 C12.599,20.341 12.599,20.352 12.599,20.363 C12.631,20.363 12.664,20.363 12.696,20.363 C12.696,20.373 12.696,20.384 12.696,20.395 C12.739,20.395 12.782,20.395 12.825,20.395 C12.825,20.406 12.825,20.417 12.825,20.428 C12.857,20.428 12.890,20.428 12.922,20.428 C12.922,20.439 12.922,20.450 12.922,20.461 C12.997,20.472 13.073,20.483 13.148,20.494 C13.148,20.505 13.148,20.516 13.148,20.527 C13.299,20.549 13.450,20.571 13.600,20.593 C13.600,20.604 13.600,20.615 13.600,20.626 C13.654,20.626 13.708,20.626 13.762,20.626 C13.964,20.689 14.261,20.696 14.472,20.758 C14.580,20.758 14.688,20.758 14.796,20.758 C14.796,20.769 14.796,20.780 14.796,20.791 C15.226,20.791 15.657,20.791 16.088,20.791 C16.977,20.791 17.837,20.782 18.511,20.560 C18.564,20.560 18.618,20.560 18.672,20.560 C18.672,20.549 18.672,20.538 18.672,20.527 C18.726,20.527 18.780,20.527 18.834,20.527 C18.834,20.516 18.834,20.505 18.834,20.494 C18.909,20.483 18.984,20.472 19.060,20.461 C19.060,20.450 19.060,20.439 19.060,20.428 C19.092,20.428 19.124,20.428 19.157,20.428 C19.157,20.417 19.157,20.406 19.157,20.395 C19.200,20.395 19.243,20.395 19.286,20.395 C19.286,20.384 19.286,20.373 19.286,20.363 C19.318,20.363 19.351,20.363 19.383,20.363 C19.383,20.352 19.383,20.341 19.383,20.330 C19.415,20.330 19.447,20.330 19.480,20.330 C19.480,20.319 19.480,20.308 19.480,20.297 C19.512,20.297 19.544,20.297 19.577,20.297 C19.577,20.286 19.577,20.275 19.577,20.264 C19.609,20.264 19.641,20.264 19.674,20.264 C19.674,20.253 19.674,20.242 19.674,20.231 C19.738,20.220 19.803,20.209 19.867,20.198 C19.867,20.187 19.867,20.176 19.867,20.165 C19.889,20.165 19.910,20.165 19.932,20.165 C19.932,20.154 19.932,20.143 19.932,20.132 C19.964,20.132 19.997,20.132 20.029,20.132 C20.029,20.121 20.029,20.110 20.029,20.099 C20.051,20.099 20.072,20.099 20.094,20.099 C20.094,20.088 20.094,20.077 20.094,20.066 C20.126,20.066 20.158,20.066 20.191,20.066 C20.191,20.055 20.191,20.044 20.191,20.033 C20.212,20.033 20.234,20.033 20.255,20.033 C20.255,20.022 20.255,20.011 20.255,20.000 C20.287,20.000 20.320,20.000 20.352,20.000 C20.352,19.989 20.352,19.978 20.352,19.967 C20.395,19.956 20.438,19.945 20.481,19.934 C20.481,19.923 20.481,19.912 20.481,19.901 C20.514,19.901 20.546,19.901 20.578,19.901 C20.578,19.890 20.578,19.879 20.578,19.868 C20.600,19.868 20.621,19.868 20.643,19.868 C20.643,19.857 20.643,19.846 20.643,19.835 C20.664,19.835 20.686,19.835 20.707,19.835 C20.718,19.813 20.729,19.791 20.740,19.769 C20.772,19.769 20.804,19.769 20.837,19.769 C20.837,19.758 20.837,19.747 20.837,19.737 C20.858,19.737 20.880,19.737 20.901,19.737 C20.901,19.726 20.901,19.714 20.901,19.704 C20.923,19.704 20.944,19.704 20.966,19.704 C20.977,19.682 20.987,19.660 20.998,19.638 C21.020,19.638 21.041,19.638 21.063,19.638 C21.063,19.627 21.063,19.616 21.063,19.605 C21.084,19.605 21.106,19.605 21.127,19.605 C21.127,19.594 21.127,19.583 21.127,19.572 C21.149,19.572 21.170,19.572 21.192,19.572 C21.192,19.561 21.192,19.550 21.192,19.539 C21.214,19.539 21.235,19.539 21.257,19.539 C21.257,19.528 21.257,19.517 21.257,19.506 C21.278,19.506 21.300,19.506 21.321,19.506 C21.332,19.484 21.343,19.462 21.353,19.440 C21.375,19.440 21.396,19.440 21.418,19.440 C21.418,19.429 21.418,19.418 21.418,19.407 C21.440,19.407 21.461,19.407 21.483,19.407 C21.493,19.385 21.504,19.363 21.515,19.341 C21.558,19.330 21.601,19.319 21.644,19.308 C21.655,19.286 21.666,19.264 21.677,19.242 C21.720,19.231 21.763,19.220 21.806,19.209 C21.816,19.187 21.827,19.165 21.838,19.143 C21.860,19.143 21.881,19.143 21.903,19.143 C21.913,19.121 21.924,19.099 21.935,19.078 C21.956,19.078 21.978,19.078 22.000,19.078 C22.021,19.045 22.043,19.012 22.064,18.979 C22.086,18.979 22.107,18.979 22.129,18.979 C22.140,18.957 22.150,18.935 22.161,18.913 C22.183,18.913 22.204,18.913 22.226,18.913 C22.236,18.891 22.247,18.869 22.258,18.847 C22.331,18.784 22.390,18.758 22.516,18.748 C22.609,18.825 22.773,18.771 22.904,18.814 C22.904,18.825 22.904,18.836 22.904,18.847 C22.947,18.847 22.990,18.847 23.033,18.847 C23.033,18.858 23.033,18.869 23.033,18.880 C23.076,18.880 23.120,18.880 23.163,18.880 C23.163,18.891 23.163,18.902 23.163,18.913 C23.206,18.913 23.249,18.913 23.292,18.913 C23.292,18.924 23.292,18.935 23.292,18.946 C23.346,18.946 23.399,18.946 23.453,18.946 C23.884,19.088 24.315,19.231 24.745,19.374 C24.745,19.385 24.745,19.396 24.745,19.407 C24.767,19.407 24.789,19.407 24.810,19.407 C24.810,19.418 24.810,19.429 24.810,19.440 C24.842,19.440 24.875,19.440 24.907,19.440 C24.907,19.451 24.907,19.462 24.907,19.473 C24.928,19.473 24.950,19.473 24.972,19.473 C24.972,19.484 24.972,19.495 24.972,19.506 C25.004,19.506 25.036,19.506 25.069,19.506 C25.069,19.517 25.069,19.528 25.069,19.539 C25.112,19.550 25.155,19.561 25.198,19.572 C25.198,19.583 25.198,19.594 25.198,19.605 C25.230,19.605 25.262,19.605 25.295,19.605 C25.295,19.616 25.295,19.627 25.295,19.638 C25.316,19.638 25.338,19.638 25.359,19.638 C25.359,19.649 25.359,19.660 25.359,19.671 C25.381,19.671 25.402,19.671 25.424,19.671 C25.424,19.682 25.424,19.693 25.424,19.704 C25.445,19.704 25.467,19.704 25.488,19.704 C25.488,19.714 25.488,19.726 25.488,19.737 C25.510,19.737 25.532,19.737 25.553,19.737 C25.553,19.747 25.553,19.758 25.553,19.769 C25.575,19.769 25.596,19.769 25.618,19.769 C25.618,19.780 25.618,19.791 25.618,19.802 C25.639,19.802 25.661,19.802 25.682,19.802 C25.682,19.813 25.682,19.824 25.682,19.835 C25.704,19.835 25.725,19.835 25.747,19.835 C25.747,19.846 25.747,19.857 25.747,19.868 C25.768,19.868 25.790,19.868 25.812,19.868 C25.812,19.879 25.812,19.890 25.812,19.901 C25.833,19.901 25.855,19.901 25.876,19.901 C25.876,19.912 25.876,19.923 25.876,19.934 C25.898,19.934 25.919,19.934 25.941,19.934 C25.941,19.945 25.941,19.956 25.941,19.967 C25.962,19.967 25.984,19.967 26.005,19.967 C26.016,19.989 26.027,20.011 26.038,20.033 C26.059,20.033 26.081,20.033 26.102,20.033 C26.102,20.044 26.102,20.055 26.102,20.066 C26.124,20.066 26.145,20.066 26.167,20.066 C26.167,20.077 26.167,20.088 26.167,20.099 C26.188,20.099 26.210,20.099 26.232,20.099 C26.232,20.110 26.232,20.121 26.232,20.132 C26.253,20.132 26.275,20.132 26.296,20.132 C26.307,20.154 26.318,20.176 26.328,20.198 C26.350,20.198 26.371,20.198 26.393,20.198 C26.393,20.209 26.393,20.220 26.393,20.231 C26.415,20.231 26.436,20.231 26.458,20.231 C26.458,20.242 26.458,20.253 26.458,20.264 C26.479,20.264 26.501,20.264 26.522,20.264 C26.544,20.297 26.565,20.330 26.587,20.363 C26.608,20.363 26.630,20.363 26.652,20.363 C26.652,20.373 26.652,20.384 26.652,20.395 C26.673,20.395 26.695,20.395 26.716,20.395 C26.727,20.417 26.738,20.439 26.748,20.461 C26.770,20.461 26.791,20.461 26.813,20.461 C26.824,20.483 26.834,20.505 26.845,20.527 C26.888,20.538 26.931,20.549 26.975,20.560 C26.996,20.593 27.018,20.626 27.039,20.659 C27.061,20.659 27.082,20.659 27.104,20.659 C27.104,20.670 27.104,20.681 27.104,20.692 C27.136,20.703 27.168,20.714 27.201,20.725 C27.211,20.747 27.222,20.769 27.233,20.791 C27.254,20.791 27.276,20.791 27.298,20.791 C27.319,20.824 27.341,20.857 27.362,20.890 C27.384,20.890 27.405,20.890 27.427,20.890 C27.459,20.934 27.491,20.978 27.524,21.022 C27.545,21.022 27.567,21.022 27.588,21.022 C27.621,21.065 27.653,21.109 27.685,21.153 C27.707,21.153 27.728,21.153 27.750,21.153 C27.782,21.197 27.814,21.241 27.847,21.285 C27.868,21.285 27.890,21.285 27.911,21.285 C27.976,21.362 28.041,21.439 28.105,21.516 C28.127,21.516 28.148,21.516 28.170,21.516 C28.170,21.527 28.170,21.538 28.170,21.549 C28.243,21.612 28.290,21.683 28.396,21.713 Z"/>
</svg>