<svg 
 xmlns="http://www.w3.org/2000/svg"
 xmlns:xlink="http://www.w3.org/1999/xlink"
 width="23px" height="12px">
<path fill-rule="evenodd"  fill="rgb(71, 66, 105)"
 d="M16.841,0.000 C16.984,0.000 17.128,0.000 17.271,0.000 C17.271,0.016 17.271,0.032 17.271,0.048 C17.319,0.048 17.366,0.048 17.414,0.048 C17.414,0.064 17.414,0.080 17.414,0.097 C17.446,0.097 17.478,0.097 17.510,0.097 C17.510,0.113 17.510,0.129 17.510,0.145 C17.541,0.145 17.573,0.145 17.605,0.145 C17.923,0.483 18.242,0.821 18.560,1.159 C18.833,1.434 19.102,1.699 19.419,1.931 C20.247,2.784 21.074,3.637 21.902,4.489 C22.218,4.808 22.554,5.070 22.809,5.455 C22.841,5.471 22.873,5.487 22.905,5.503 C22.905,5.535 22.905,5.567 22.905,5.599 C22.920,5.599 22.936,5.599 22.952,5.599 C22.968,5.809 22.984,6.018 23.000,6.227 C22.853,6.685 22.355,7.024 22.045,7.337 C21.791,7.611 21.536,7.884 21.281,8.158 C20.820,8.608 20.358,9.059 19.897,9.509 C19.722,9.703 19.547,9.896 19.372,10.089 C19.340,10.089 19.308,10.089 19.276,10.089 C19.181,10.201 19.085,10.314 18.990,10.427 C18.735,10.668 18.480,10.909 18.226,11.151 C17.940,11.439 17.700,11.834 17.271,11.971 C16.955,12.073 16.709,11.871 16.507,11.827 C16.443,11.746 16.380,11.666 16.316,11.585 C16.300,11.585 16.284,11.585 16.268,11.585 C16.268,11.553 16.268,11.521 16.268,11.489 C16.236,11.473 16.205,11.456 16.173,11.440 C16.101,11.301 16.100,10.711 16.173,10.571 C16.205,10.555 16.236,10.539 16.268,10.523 C16.542,10.101 16.926,9.810 17.271,9.461 C17.414,9.300 17.557,9.139 17.701,8.979 C18.114,8.576 18.528,8.174 18.942,7.772 C19.163,7.548 19.440,7.155 19.706,6.999 C19.706,6.983 19.706,6.967 19.706,6.951 C13.388,6.951 7.069,6.951 0.752,6.951 C0.752,6.935 0.752,6.919 0.752,6.903 C0.688,6.903 0.625,6.903 0.561,6.903 C0.561,6.887 0.561,6.871 0.561,6.855 C0.245,6.777 0.233,6.541 0.036,6.372 C0.018,6.137 -0.037,6.004 0.036,5.793 C0.036,5.728 0.036,5.664 0.036,5.599 C0.052,5.599 0.068,5.599 0.084,5.599 C0.161,5.280 0.394,5.268 0.561,5.069 C2.836,4.962 5.320,5.020 7.675,5.020 C11.685,5.020 15.696,5.020 19.706,5.020 C19.706,5.004 19.706,4.988 19.706,4.972 C19.441,4.818 19.162,4.423 18.942,4.200 C18.512,3.781 18.082,3.363 17.653,2.945 C17.526,2.800 17.398,2.655 17.271,2.510 C16.926,2.162 16.541,1.870 16.268,1.448 C16.236,1.432 16.205,1.416 16.173,1.400 C16.055,1.172 16.151,0.764 16.173,0.531 C16.290,0.456 16.202,0.476 16.268,0.386 C16.348,0.322 16.427,0.257 16.507,0.193 C16.507,0.177 16.507,0.161 16.507,0.145 C16.539,0.145 16.571,0.145 16.602,0.145 C16.602,0.129 16.602,0.113 16.602,0.097 C16.682,0.080 16.762,0.064 16.841,0.048 C16.841,0.032 16.841,0.016 16.841,0.000 Z"/>
</svg>