<svg 
 xmlns="http://www.w3.org/2000/svg"
 xmlns:xlink="http://www.w3.org/1999/xlink"
 width="62px" height="49px">
<path fill-rule="evenodd"  fill="rgb(191, 162, 116)"
 d="M50.671,34.086 C50.671,36.183 50.671,38.281 50.671,40.379 C50.671,40.887 50.671,41.394 50.671,41.902 C50.671,42.158 50.701,42.499 50.642,42.706 C50.642,42.793 50.642,42.879 50.642,42.965 C50.623,43.118 50.604,43.272 50.585,43.425 C50.499,43.741 50.413,44.057 50.327,44.373 C50.318,44.373 50.308,44.373 50.299,44.373 C50.289,44.421 50.280,44.469 50.270,44.517 C50.261,44.517 50.251,44.517 50.242,44.517 C50.242,44.536 50.242,44.555 50.242,44.574 C50.232,44.574 50.222,44.574 50.213,44.574 C50.213,44.603 50.213,44.632 50.213,44.660 C50.203,44.660 50.194,44.660 50.184,44.660 C50.165,44.718 50.146,44.775 50.127,44.833 C50.117,44.833 50.108,44.833 50.098,44.833 C50.098,44.852 50.098,44.871 50.098,44.890 C50.089,44.890 50.079,44.890 50.070,44.890 C50.070,44.909 50.070,44.929 50.070,44.948 C50.060,44.948 50.051,44.948 50.041,44.948 C50.041,44.967 50.041,44.986 50.041,45.005 C50.032,45.005 50.022,45.005 50.012,45.005 C50.012,45.024 50.012,45.044 50.012,45.063 C50.003,45.063 49.993,45.063 49.984,45.063 C49.984,45.082 49.984,45.101 49.984,45.120 C49.974,45.120 49.965,45.120 49.955,45.120 C49.955,45.139 49.955,45.159 49.955,45.178 C49.946,45.178 49.936,45.178 49.927,45.178 C49.927,45.197 49.927,45.216 49.927,45.235 C49.908,45.245 49.888,45.254 49.869,45.264 C49.860,45.302 49.850,45.341 49.841,45.379 C49.831,45.379 49.822,45.379 49.812,45.379 C49.803,45.408 49.793,45.436 49.783,45.465 C49.764,45.475 49.745,45.484 49.726,45.494 C49.726,45.513 49.726,45.532 49.726,45.551 C49.707,45.561 49.688,45.570 49.669,45.580 C49.669,45.599 49.669,45.618 49.669,45.637 C49.650,45.647 49.631,45.657 49.612,45.666 C49.602,45.695 49.593,45.724 49.583,45.752 C49.554,45.772 49.526,45.791 49.497,45.810 C49.497,45.829 49.497,45.848 49.497,45.867 C49.468,45.886 49.440,45.906 49.411,45.925 C49.402,45.954 49.392,45.982 49.383,46.011 C49.306,46.078 49.230,46.145 49.153,46.212 C49.153,46.231 49.153,46.250 49.153,46.270 C49.096,46.317 49.039,46.365 48.982,46.413 C48.972,46.432 48.963,46.452 48.953,46.471 C48.934,46.471 48.915,46.471 48.896,46.471 C48.829,46.547 48.762,46.624 48.695,46.701 C48.676,46.701 48.657,46.701 48.638,46.701 C48.609,46.739 48.581,46.777 48.552,46.816 C48.524,46.825 48.495,46.835 48.466,46.844 C48.457,46.863 48.447,46.883 48.438,46.902 C48.419,46.902 48.399,46.902 48.380,46.902 C48.361,46.931 48.342,46.959 48.323,46.988 C48.304,46.988 48.285,46.988 48.266,46.988 C48.256,47.007 48.247,47.026 48.237,47.045 C48.209,47.055 48.180,47.065 48.151,47.074 C48.151,47.084 48.151,47.093 48.151,47.103 C48.132,47.103 48.113,47.103 48.094,47.103 C48.085,47.122 48.075,47.141 48.065,47.160 C48.027,47.170 47.989,47.180 47.951,47.189 C47.941,47.208 47.932,47.227 47.922,47.247 C47.865,47.266 47.808,47.285 47.750,47.304 C47.741,47.323 47.731,47.342 47.722,47.362 C47.684,47.371 47.645,47.381 47.607,47.390 C47.607,47.400 47.607,47.409 47.607,47.419 C47.569,47.429 47.531,47.438 47.493,47.448 C47.493,47.457 47.493,47.467 47.493,47.476 C47.464,47.476 47.435,47.476 47.407,47.476 C47.407,47.486 47.407,47.496 47.407,47.505 C47.369,47.515 47.331,47.524 47.292,47.534 C47.292,47.544 47.292,47.553 47.292,47.563 C47.264,47.563 47.235,47.563 47.206,47.563 C47.206,47.572 47.206,47.582 47.206,47.591 C47.187,47.591 47.168,47.591 47.149,47.591 C47.149,47.601 47.149,47.611 47.149,47.620 C47.092,47.630 47.035,47.639 46.977,47.649 C46.977,47.658 46.977,47.668 46.977,47.678 C46.949,47.678 46.920,47.678 46.891,47.678 C46.891,47.687 46.891,47.697 46.891,47.706 C46.863,47.706 46.834,47.706 46.806,47.706 C46.806,47.716 46.806,47.726 46.806,47.735 C46.777,47.735 46.748,47.735 46.720,47.735 C46.720,47.745 46.720,47.754 46.720,47.764 C46.681,47.764 46.643,47.764 46.605,47.764 C46.605,47.773 46.605,47.783 46.605,47.793 C46.567,47.793 46.529,47.793 46.491,47.793 C46.491,47.802 46.491,47.812 46.491,47.821 C46.452,47.821 46.414,47.821 46.376,47.821 C46.376,47.831 46.376,47.840 46.376,47.850 C46.338,47.850 46.300,47.850 46.262,47.850 C46.262,47.860 46.262,47.869 46.262,47.879 C46.214,47.879 46.166,47.879 46.118,47.879 C46.118,47.888 46.118,47.898 46.118,47.908 C46.071,47.908 46.023,47.908 45.975,47.908 C45.975,47.917 45.975,47.927 45.975,47.936 C45.823,47.946 45.670,47.955 45.517,47.965 C45.319,48.021 44.991,47.994 44.744,47.994 C44.257,47.994 43.770,47.994 43.284,47.994 C41.394,47.994 39.504,47.994 37.614,47.994 C29.159,47.994 20.701,47.994 12.245,47.994 C10.527,47.994 8.809,47.994 7.091,47.994 C6.671,47.994 6.251,47.994 5.831,47.994 C5.618,47.994 5.339,48.012 5.173,47.965 C5.077,47.965 4.982,47.965 4.886,47.965 C4.886,47.955 4.886,47.946 4.886,47.936 C4.829,47.936 4.772,47.936 4.715,47.936 C4.715,47.927 4.715,47.917 4.715,47.908 C4.657,47.908 4.600,47.908 4.543,47.908 C4.543,47.898 4.543,47.888 4.543,47.879 C4.505,47.879 4.466,47.879 4.428,47.879 C4.428,47.869 4.428,47.860 4.428,47.850 C4.390,47.850 4.352,47.850 4.314,47.850 C4.314,47.840 4.314,47.831 4.314,47.821 C4.228,47.812 4.142,47.802 4.056,47.793 C4.056,47.783 4.056,47.773 4.056,47.764 C4.027,47.764 3.999,47.764 3.970,47.764 C3.970,47.754 3.970,47.745 3.970,47.735 C3.942,47.735 3.913,47.735 3.884,47.735 C3.884,47.726 3.884,47.716 3.884,47.706 C3.817,47.697 3.751,47.687 3.684,47.678 C3.684,47.668 3.684,47.658 3.684,47.649 C3.665,47.649 3.646,47.649 3.627,47.649 C3.627,47.639 3.627,47.630 3.627,47.620 C3.598,47.620 3.569,47.620 3.541,47.620 C3.541,47.611 3.541,47.601 3.541,47.591 C3.522,47.591 3.503,47.591 3.483,47.591 C3.483,47.582 3.483,47.572 3.483,47.563 C3.455,47.563 3.426,47.563 3.398,47.563 C3.398,47.553 3.398,47.544 3.398,47.534 C3.378,47.534 3.359,47.534 3.340,47.534 C3.340,47.524 3.340,47.515 3.340,47.505 C3.312,47.505 3.283,47.505 3.254,47.505 C3.254,47.496 3.254,47.486 3.254,47.476 C3.197,47.457 3.140,47.438 3.083,47.419 C3.083,47.409 3.083,47.400 3.083,47.390 C3.025,47.371 2.968,47.352 2.911,47.333 C2.901,47.314 2.892,47.294 2.882,47.275 C2.825,47.256 2.768,47.237 2.710,47.218 C2.701,47.199 2.691,47.180 2.682,47.160 C2.663,47.160 2.644,47.160 2.624,47.160 C2.615,47.141 2.605,47.122 2.596,47.103 C2.577,47.103 2.558,47.103 2.539,47.103 C2.529,47.084 2.519,47.065 2.510,47.045 C2.491,47.045 2.472,47.045 2.453,47.045 C2.443,47.026 2.434,47.007 2.424,46.988 C2.405,46.988 2.386,46.988 2.367,46.988 C2.357,46.969 2.348,46.950 2.338,46.931 C2.319,46.931 2.300,46.931 2.281,46.931 C2.262,46.902 2.243,46.873 2.224,46.844 C2.204,46.844 2.185,46.844 2.166,46.844 C2.138,46.806 2.109,46.768 2.080,46.729 C2.061,46.729 2.042,46.729 2.023,46.729 C1.975,46.672 1.928,46.614 1.880,46.557 C1.861,46.557 1.842,46.557 1.823,46.557 C1.746,46.471 1.670,46.385 1.594,46.298 C1.546,46.260 1.498,46.222 1.450,46.183 C1.450,46.164 1.450,46.145 1.450,46.126 C1.393,46.078 1.336,46.030 1.279,45.982 C1.279,45.963 1.279,45.944 1.279,45.925 C1.240,45.896 1.202,45.867 1.164,45.839 C1.155,45.810 1.145,45.781 1.135,45.752 C1.116,45.743 1.097,45.733 1.078,45.724 C1.078,45.704 1.078,45.685 1.078,45.666 C1.059,45.657 1.040,45.647 1.021,45.637 C1.021,45.618 1.021,45.599 1.021,45.580 C1.002,45.570 0.983,45.561 0.964,45.551 C0.964,45.532 0.964,45.513 0.964,45.494 C0.945,45.484 0.926,45.475 0.906,45.465 C0.773,45.226 0.639,44.986 0.506,44.747 C0.506,44.718 0.506,44.689 0.506,44.660 C0.496,44.660 0.486,44.660 0.477,44.660 C0.477,44.641 0.477,44.622 0.477,44.603 C0.467,44.603 0.458,44.603 0.448,44.603 C0.439,44.555 0.429,44.507 0.420,44.459 C0.410,44.459 0.401,44.459 0.391,44.459 C0.391,44.431 0.391,44.402 0.391,44.373 C0.381,44.373 0.372,44.373 0.362,44.373 C0.362,44.354 0.362,44.335 0.362,44.316 C0.353,44.316 0.343,44.316 0.334,44.316 C0.315,44.220 0.296,44.124 0.276,44.028 C0.267,44.028 0.257,44.028 0.248,44.028 C0.248,44.000 0.248,43.971 0.248,43.942 C0.238,43.942 0.229,43.942 0.219,43.942 C0.219,43.904 0.219,43.865 0.219,43.827 C0.210,43.827 0.200,43.827 0.191,43.827 C0.191,43.779 0.191,43.731 0.191,43.683 C0.181,43.683 0.171,43.683 0.162,43.683 C0.162,43.645 0.162,43.607 0.162,43.569 C0.152,43.569 0.143,43.569 0.133,43.569 C0.133,43.530 0.133,43.492 0.133,43.454 C0.124,43.454 0.114,43.454 0.105,43.454 C0.105,43.396 0.105,43.339 0.105,43.281 C-0.029,42.828 0.019,42.160 0.019,41.586 C0.019,40.408 0.019,39.229 0.019,38.051 C0.019,33.378 0.019,28.702 0.019,24.029 C0.019,22.832 0.019,21.634 0.019,20.437 C0.019,20.063 -0.038,19.420 0.047,19.115 C0.057,18.952 0.067,18.789 0.076,18.627 C0.086,18.627 0.095,18.627 0.105,18.627 C0.114,18.531 0.124,18.435 0.133,18.339 C0.143,18.339 0.152,18.339 0.162,18.339 C0.171,18.263 0.181,18.186 0.191,18.109 C0.200,18.109 0.210,18.109 0.219,18.109 C0.229,18.033 0.238,17.956 0.248,17.879 C0.257,17.879 0.267,17.879 0.276,17.879 C0.276,17.851 0.276,17.822 0.276,17.793 C0.286,17.793 0.296,17.793 0.305,17.793 C0.305,17.765 0.305,17.736 0.305,17.707 C0.315,17.707 0.324,17.707 0.334,17.707 C0.334,17.678 0.334,17.650 0.334,17.621 C0.343,17.621 0.353,17.621 0.362,17.621 C0.372,17.563 0.381,17.506 0.391,17.448 C0.401,17.448 0.410,17.448 0.420,17.448 C0.420,17.429 0.420,17.410 0.420,17.391 C0.429,17.391 0.439,17.391 0.448,17.391 C0.448,17.362 0.448,17.333 0.448,17.305 C0.458,17.305 0.467,17.305 0.477,17.305 C0.496,17.247 0.515,17.190 0.534,17.132 C0.544,17.132 0.553,17.132 0.563,17.132 C0.563,17.113 0.563,17.094 0.563,17.075 C0.572,17.075 0.582,17.075 0.591,17.075 C0.591,17.046 0.591,17.017 0.591,16.989 C0.611,16.979 0.630,16.970 0.649,16.960 C0.649,16.941 0.649,16.922 0.649,16.902 C0.658,16.902 0.668,16.902 0.677,16.902 C0.677,16.883 0.677,16.864 0.677,16.845 C0.687,16.845 0.696,16.845 0.706,16.845 C0.706,16.826 0.706,16.807 0.706,16.788 C0.716,16.788 0.725,16.788 0.735,16.788 C0.735,16.768 0.735,16.749 0.735,16.730 C0.754,16.720 0.773,16.711 0.792,16.701 C0.801,16.663 0.811,16.625 0.821,16.586 C0.840,16.577 0.859,16.567 0.878,16.558 C0.887,16.519 0.897,16.481 0.906,16.443 C0.926,16.433 0.945,16.424 0.964,16.414 C0.964,16.395 0.964,16.376 0.964,16.356 C0.992,16.337 1.021,16.318 1.050,16.299 C1.050,16.280 1.050,16.261 1.050,16.242 C1.078,16.222 1.107,16.203 1.135,16.184 C1.135,16.165 1.135,16.146 1.135,16.127 C1.164,16.107 1.193,16.088 1.221,16.069 C1.221,16.050 1.221,16.031 1.221,16.012 C1.260,15.983 1.298,15.954 1.336,15.925 C1.336,15.906 1.336,15.887 1.336,15.868 C1.460,15.753 1.584,15.638 1.708,15.523 C1.794,15.427 1.880,15.332 1.966,15.236 C1.985,15.236 2.004,15.236 2.023,15.236 C2.052,15.198 2.080,15.159 2.109,15.121 C2.128,15.121 2.147,15.121 2.166,15.121 C2.185,15.092 2.204,15.063 2.224,15.035 C2.243,15.035 2.262,15.035 2.281,15.035 C2.300,15.006 2.319,14.977 2.338,14.948 C2.357,14.948 2.376,14.948 2.395,14.948 C2.405,14.929 2.414,14.910 2.424,14.891 C2.453,14.881 2.481,14.872 2.510,14.862 C2.510,14.853 2.510,14.843 2.510,14.834 C2.529,14.834 2.548,14.834 2.567,14.834 C2.577,14.814 2.586,14.795 2.596,14.776 C2.615,14.776 2.634,14.776 2.653,14.776 C2.663,14.757 2.672,14.738 2.682,14.719 C2.739,14.699 2.796,14.680 2.853,14.661 C2.863,14.642 2.873,14.623 2.882,14.604 C2.939,14.585 2.997,14.565 3.054,14.546 C3.054,14.537 3.054,14.527 3.054,14.517 C3.073,14.517 3.092,14.517 3.111,14.517 C3.111,14.508 3.111,14.498 3.111,14.489 C3.168,14.470 3.226,14.450 3.283,14.431 C3.283,14.422 3.283,14.412 3.283,14.403 C3.312,14.403 3.340,14.403 3.369,14.403 C3.369,14.393 3.369,14.383 3.369,14.374 C3.388,14.374 3.407,14.374 3.426,14.374 C3.426,14.364 3.426,14.355 3.426,14.345 C3.455,14.345 3.483,14.345 3.512,14.345 C3.512,14.335 3.512,14.326 3.512,14.316 C3.531,14.316 3.550,14.316 3.569,14.316 C3.569,14.307 3.569,14.297 3.569,14.288 C3.627,14.278 3.684,14.268 3.741,14.259 C3.741,14.249 3.741,14.240 3.741,14.230 C3.770,14.230 3.798,14.230 3.827,14.230 C3.827,14.221 3.827,14.211 3.827,14.201 C3.856,14.201 3.884,14.201 3.913,14.201 C3.913,14.192 3.913,14.182 3.913,14.173 C3.942,14.173 3.970,14.173 3.999,14.173 C3.999,14.163 3.999,14.153 3.999,14.144 C4.037,14.144 4.075,14.144 4.113,14.144 C4.113,14.134 4.113,14.125 4.113,14.115 C4.190,14.106 4.266,14.096 4.342,14.086 C4.342,14.077 4.342,14.067 4.342,14.058 C4.486,14.039 4.629,14.019 4.772,14.000 C4.772,13.991 4.772,13.981 4.772,13.971 C4.982,13.962 5.192,13.952 5.402,13.943 C5.402,13.933 5.402,13.924 5.402,13.914 C5.908,13.914 6.414,13.914 6.919,13.914 C8.389,13.914 9.859,13.914 11.329,13.914 C11.329,11.817 11.329,9.718 11.329,7.621 C11.329,7.104 11.329,6.587 11.329,6.069 C11.329,5.813 11.299,5.472 11.358,5.265 C11.358,5.179 11.358,5.092 11.358,5.006 C11.363,4.944 11.400,4.800 11.415,4.748 C11.415,4.690 11.415,4.633 11.415,4.575 C11.501,4.259 11.587,3.943 11.673,3.627 C11.682,3.627 11.692,3.627 11.701,3.627 C11.711,3.579 11.720,3.531 11.730,3.483 C11.739,3.483 11.749,3.483 11.758,3.483 C11.758,3.464 11.758,3.445 11.758,3.426 C11.768,3.426 11.778,3.426 11.787,3.426 C11.787,3.397 11.787,3.368 11.787,3.340 C11.797,3.340 11.806,3.340 11.816,3.340 C11.835,3.282 11.854,3.225 11.873,3.167 C11.883,3.167 11.892,3.167 11.902,3.167 C11.902,3.148 11.902,3.129 11.902,3.110 C11.911,3.110 11.921,3.110 11.930,3.110 C11.930,3.091 11.930,3.071 11.930,3.052 C11.940,3.052 11.949,3.052 11.959,3.052 C11.959,3.033 11.959,3.014 11.959,2.995 C11.968,2.995 11.978,2.995 11.987,2.995 C11.987,2.976 11.987,2.956 11.987,2.937 C11.997,2.937 12.007,2.937 12.016,2.937 C12.016,2.918 12.016,2.899 12.016,2.880 C12.026,2.880 12.035,2.880 12.045,2.880 C12.045,2.861 12.045,2.841 12.045,2.822 C12.054,2.822 12.064,2.822 12.073,2.822 C12.073,2.803 12.073,2.784 12.073,2.765 C12.092,2.755 12.112,2.746 12.131,2.736 C12.140,2.698 12.150,2.659 12.159,2.621 C12.169,2.621 12.178,2.621 12.188,2.621 C12.197,2.592 12.207,2.564 12.217,2.535 C12.236,2.525 12.255,2.516 12.274,2.506 C12.274,2.487 12.274,2.468 12.274,2.449 C12.293,2.439 12.312,2.430 12.331,2.420 C12.331,2.401 12.331,2.382 12.331,2.363 C12.350,2.353 12.369,2.343 12.388,2.334 C12.398,2.305 12.407,2.276 12.417,2.248 C12.446,2.228 12.474,2.209 12.503,2.190 C12.503,2.171 12.503,2.152 12.503,2.133 C12.532,2.114 12.560,2.094 12.589,2.075 C12.598,2.046 12.608,2.018 12.617,1.989 C12.694,1.922 12.770,1.855 12.846,1.788 C12.846,1.769 12.846,1.750 12.846,1.730 C12.904,1.682 12.961,1.635 13.018,1.587 C13.028,1.568 13.037,1.548 13.047,1.529 C13.066,1.529 13.085,1.529 13.104,1.529 C13.171,1.453 13.238,1.376 13.305,1.299 C13.324,1.299 13.343,1.299 13.362,1.299 C13.391,1.261 13.419,1.223 13.448,1.184 C13.476,1.175 13.505,1.165 13.534,1.156 C13.543,1.137 13.553,1.117 13.562,1.098 C13.581,1.098 13.601,1.098 13.620,1.098 C13.639,1.069 13.658,1.041 13.677,1.012 C13.696,1.012 13.715,1.012 13.734,1.012 C13.744,0.993 13.753,0.974 13.763,0.955 C13.791,0.945 13.820,0.935 13.849,0.926 C13.849,0.916 13.849,0.907 13.849,0.897 C13.868,0.897 13.887,0.897 13.906,0.897 C13.915,0.878 13.925,0.859 13.935,0.840 C13.973,0.830 14.011,0.820 14.049,0.811 C14.059,0.792 14.068,0.773 14.078,0.753 C14.135,0.734 14.192,0.715 14.250,0.696 C14.259,0.677 14.269,0.658 14.278,0.638 C14.316,0.629 14.355,0.619 14.393,0.610 C14.393,0.600 14.393,0.591 14.393,0.581 C14.431,0.571 14.469,0.562 14.507,0.552 C14.507,0.543 14.507,0.533 14.507,0.524 C14.536,0.524 14.564,0.524 14.593,0.524 C14.593,0.514 14.593,0.504 14.593,0.495 C14.631,0.485 14.669,0.476 14.708,0.466 C14.708,0.456 14.708,0.447 14.708,0.437 C14.736,0.437 14.765,0.437 14.794,0.437 C14.794,0.428 14.794,0.418 14.794,0.409 C14.813,0.409 14.832,0.409 14.851,0.409 C14.851,0.399 14.851,0.389 14.851,0.380 C14.908,0.370 14.965,0.361 15.023,0.351 C15.023,0.342 15.023,0.332 15.023,0.322 C15.051,0.322 15.080,0.322 15.109,0.322 C15.109,0.313 15.109,0.303 15.109,0.294 C15.137,0.294 15.166,0.294 15.194,0.294 C15.194,0.284 15.194,0.274 15.194,0.265 C15.223,0.265 15.252,0.265 15.280,0.265 C15.280,0.255 15.280,0.246 15.280,0.236 C15.319,0.236 15.357,0.236 15.395,0.236 C15.395,0.227 15.395,0.217 15.395,0.207 C15.433,0.207 15.471,0.207 15.509,0.207 C15.509,0.198 15.509,0.188 15.509,0.179 C15.548,0.179 15.586,0.179 15.624,0.179 C15.624,0.169 15.624,0.160 15.624,0.150 C15.662,0.150 15.700,0.150 15.738,0.150 C15.738,0.140 15.738,0.131 15.738,0.121 C15.786,0.121 15.834,0.121 15.882,0.121 C15.882,0.112 15.882,0.102 15.882,0.092 C15.929,0.092 15.977,0.092 16.025,0.092 C16.025,0.083 16.025,0.073 16.025,0.064 C16.177,0.054 16.330,0.045 16.483,0.035 C16.681,-0.021 17.009,0.006 17.256,0.006 C17.743,0.006 18.230,0.006 18.716,0.006 C20.606,0.006 22.496,0.006 24.386,0.006 C32.841,0.006 41.299,0.006 49.755,0.006 C51.473,0.006 53.191,0.006 54.909,0.006 C55.329,0.006 55.749,0.006 56.169,0.006 C56.382,0.006 56.661,-0.012 56.827,0.035 C56.923,0.035 57.018,0.035 57.114,0.035 C57.114,0.045 57.114,0.054 57.114,0.064 C57.171,0.064 57.228,0.064 57.285,0.064 C57.285,0.073 57.285,0.083 57.285,0.092 C57.343,0.092 57.400,0.092 57.457,0.092 C57.457,0.102 57.457,0.112 57.457,0.121 C57.495,0.121 57.534,0.121 57.572,0.121 C57.572,0.131 57.572,0.140 57.572,0.150 C57.610,0.150 57.648,0.150 57.686,0.150 C57.686,0.160 57.686,0.169 57.686,0.179 C57.772,0.188 57.858,0.198 57.944,0.207 C57.944,0.217 57.944,0.227 57.944,0.236 C57.973,0.236 58.001,0.236 58.030,0.236 C58.030,0.246 58.030,0.255 58.030,0.265 C58.058,0.265 58.087,0.265 58.116,0.265 C58.116,0.274 58.116,0.284 58.116,0.294 C58.183,0.303 58.249,0.313 58.316,0.322 C58.316,0.332 58.316,0.342 58.316,0.351 C58.335,0.351 58.354,0.351 58.373,0.351 C58.373,0.361 58.373,0.370 58.373,0.380 C58.402,0.380 58.431,0.380 58.459,0.380 C58.459,0.389 58.459,0.399 58.459,0.409 C58.478,0.409 58.497,0.409 58.517,0.409 C58.517,0.418 58.517,0.428 58.517,0.437 C58.545,0.437 58.574,0.437 58.602,0.437 C58.602,0.447 58.602,0.456 58.602,0.466 C58.622,0.466 58.641,0.466 58.660,0.466 C58.660,0.476 58.660,0.485 58.660,0.495 C58.688,0.495 58.717,0.495 58.746,0.495 C58.746,0.504 58.746,0.514 58.746,0.524 C58.803,0.543 58.860,0.562 58.917,0.581 C58.917,0.591 58.917,0.600 58.917,0.610 C58.975,0.629 59.032,0.648 59.089,0.667 C59.099,0.686 59.108,0.706 59.118,0.725 C59.175,0.744 59.232,0.763 59.290,0.782 C59.299,0.801 59.309,0.820 59.318,0.840 C59.337,0.840 59.356,0.840 59.376,0.840 C59.385,0.859 59.395,0.878 59.404,0.897 C59.423,0.897 59.442,0.897 59.461,0.897 C59.471,0.916 59.481,0.935 59.490,0.955 C59.509,0.955 59.528,0.955 59.547,0.955 C59.557,0.974 59.566,0.993 59.576,1.012 C59.595,1.012 59.614,1.012 59.633,1.012 C59.643,1.031 59.652,1.050 59.662,1.069 C59.681,1.069 59.700,1.069 59.719,1.069 C59.738,1.098 59.757,1.127 59.776,1.156 C59.796,1.156 59.815,1.156 59.834,1.156 C59.862,1.194 59.891,1.232 59.920,1.271 C59.939,1.271 59.958,1.271 59.977,1.271 C60.025,1.328 60.072,1.386 60.120,1.443 C60.139,1.443 60.158,1.443 60.177,1.443 C60.254,1.529 60.330,1.615 60.406,1.702 C60.454,1.740 60.502,1.778 60.550,1.817 C60.550,1.836 60.550,1.855 60.550,1.874 C60.607,1.922 60.664,1.970 60.721,2.018 C60.721,2.037 60.721,2.056 60.721,2.075 C60.760,2.104 60.798,2.133 60.836,2.161 C60.845,2.190 60.855,2.219 60.865,2.248 C60.884,2.257 60.903,2.267 60.922,2.276 C60.922,2.296 60.922,2.315 60.922,2.334 C60.941,2.343 60.960,2.353 60.979,2.363 C60.979,2.382 60.979,2.401 60.979,2.420 C60.998,2.430 61.017,2.439 61.036,2.449 C61.036,2.468 61.036,2.487 61.036,2.506 C61.055,2.516 61.074,2.525 61.094,2.535 C61.227,2.774 61.361,3.014 61.494,3.253 C61.494,3.282 61.494,3.311 61.494,3.340 C61.504,3.340 61.514,3.340 61.523,3.340 C61.523,3.359 61.523,3.378 61.523,3.397 C61.533,3.397 61.542,3.397 61.552,3.397 C61.561,3.445 61.571,3.493 61.580,3.541 C61.590,3.541 61.599,3.541 61.609,3.541 C61.609,3.569 61.609,3.598 61.609,3.627 C61.619,3.627 61.628,3.627 61.638,3.627 C61.638,3.646 61.638,3.665 61.638,3.684 C61.647,3.684 61.657,3.684 61.666,3.684 C61.685,3.780 61.704,3.876 61.724,3.972 C61.733,3.972 61.743,3.972 61.752,3.972 C61.752,4.000 61.752,4.029 61.752,4.058 C61.762,4.058 61.771,4.058 61.781,4.058 C61.781,4.096 61.781,4.135 61.781,4.173 C61.790,4.173 61.800,4.173 61.809,4.173 C61.809,4.221 61.809,4.269 61.809,4.317 C61.819,4.317 61.828,4.317 61.838,4.317 C61.838,4.355 61.838,4.393 61.838,4.431 C61.848,4.431 61.857,4.431 61.867,4.431 C61.867,4.470 61.867,4.508 61.867,4.546 C61.876,4.546 61.886,4.546 61.895,4.546 C61.895,4.604 61.895,4.661 61.895,4.719 C62.029,5.172 61.981,5.840 61.981,6.414 C61.981,7.592 61.981,8.771 61.981,9.949 C61.981,14.622 61.981,19.298 61.981,23.971 C61.981,25.168 61.981,26.366 61.981,27.563 C61.981,27.937 62.038,28.580 61.953,28.885 C61.943,29.048 61.933,29.211 61.924,29.373 C61.914,29.373 61.905,29.373 61.895,29.373 C61.886,29.469 61.876,29.565 61.867,29.661 C61.857,29.661 61.848,29.661 61.838,29.661 C61.828,29.737 61.819,29.814 61.809,29.891 C61.800,29.891 61.790,29.891 61.781,29.891 C61.771,29.967 61.762,30.044 61.752,30.121 C61.743,30.121 61.733,30.121 61.724,30.121 C61.724,30.149 61.724,30.178 61.724,30.207 C61.714,30.207 61.704,30.207 61.695,30.207 C61.695,30.235 61.695,30.264 61.695,30.293 C61.685,30.293 61.676,30.293 61.666,30.293 C61.666,30.322 61.666,30.350 61.666,30.379 C61.657,30.379 61.647,30.379 61.638,30.379 C61.628,30.437 61.619,30.494 61.609,30.552 C61.599,30.552 61.590,30.552 61.580,30.552 C61.580,30.571 61.580,30.590 61.580,30.609 C61.571,30.609 61.561,30.609 61.552,30.609 C61.552,30.638 61.552,30.667 61.552,30.695 C61.542,30.695 61.533,30.695 61.523,30.695 C61.504,30.753 61.485,30.810 61.466,30.868 C61.456,30.868 61.447,30.868 61.437,30.868 C61.437,30.887 61.437,30.906 61.437,30.925 C61.428,30.925 61.418,30.925 61.409,30.925 C61.409,30.944 61.409,30.963 61.409,30.983 C61.399,30.983 61.389,30.983 61.380,30.983 C61.380,31.002 61.380,31.021 61.380,31.040 C61.370,31.040 61.361,31.040 61.351,31.040 C61.351,31.059 61.351,31.078 61.351,31.098 C61.342,31.098 61.332,31.098 61.323,31.098 C61.323,31.117 61.323,31.136 61.323,31.155 C61.313,31.155 61.304,31.155 61.294,31.155 C61.294,31.174 61.294,31.193 61.294,31.212 C61.284,31.212 61.275,31.212 61.265,31.212 C61.265,31.232 61.265,31.251 61.265,31.270 C61.246,31.280 61.227,31.289 61.208,31.299 C61.199,31.337 61.189,31.375 61.179,31.414 C61.160,31.423 61.141,31.433 61.122,31.442 C61.113,31.481 61.103,31.519 61.094,31.557 C61.074,31.567 61.055,31.576 61.036,31.586 C61.036,31.605 61.036,31.624 61.036,31.644 C61.008,31.663 60.979,31.682 60.950,31.701 C60.950,31.720 60.950,31.739 60.950,31.758 C60.922,31.778 60.893,31.797 60.865,31.816 C60.865,31.835 60.865,31.854 60.865,31.873 C60.836,31.893 60.807,31.912 60.779,31.931 C60.779,31.950 60.779,31.969 60.779,31.988 C60.740,32.017 60.702,32.046 60.664,32.075 C60.664,32.094 60.664,32.113 60.664,32.132 C60.540,32.247 60.416,32.362 60.292,32.477 C60.215,32.563 60.139,32.649 60.063,32.735 C60.044,32.735 60.025,32.735 60.006,32.735 C59.967,32.783 59.929,32.831 59.891,32.879 C59.872,32.879 59.853,32.879 59.834,32.879 C59.815,32.908 59.796,32.937 59.776,32.965 C59.757,32.965 59.738,32.965 59.719,32.965 C59.700,32.994 59.681,33.023 59.662,33.052 C59.643,33.052 59.624,33.052 59.605,33.052 C59.595,33.071 59.586,33.090 59.576,33.109 C59.547,33.119 59.519,33.128 59.490,33.138 C59.490,33.147 59.490,33.157 59.490,33.166 C59.471,33.166 59.452,33.166 59.433,33.166 C59.423,33.186 59.414,33.205 59.404,33.224 C59.385,33.224 59.366,33.224 59.347,33.224 C59.337,33.243 59.328,33.262 59.318,33.281 C59.261,33.301 59.204,33.320 59.147,33.339 C59.137,33.358 59.127,33.377 59.118,33.396 C59.061,33.415 59.003,33.435 58.946,33.454 C58.946,33.463 58.946,33.473 58.946,33.483 C58.927,33.483 58.908,33.483 58.889,33.483 C58.889,33.492 58.889,33.502 58.889,33.511 C58.832,33.530 58.774,33.550 58.717,33.569 C58.717,33.578 58.717,33.588 58.717,33.597 C58.688,33.597 58.660,33.597 58.631,33.597 C58.631,33.607 58.631,33.617 58.631,33.626 C58.612,33.626 58.593,33.626 58.574,33.626 C58.574,33.636 58.574,33.645 58.574,33.655 C58.545,33.655 58.517,33.655 58.488,33.655 C58.488,33.665 58.488,33.674 58.488,33.684 C58.469,33.684 58.450,33.684 58.431,33.684 C58.431,33.693 58.431,33.703 58.431,33.712 C58.373,33.722 58.316,33.732 58.259,33.741 C58.259,33.751 58.259,33.760 58.259,33.770 C58.230,33.770 58.202,33.770 58.173,33.770 C58.173,33.779 58.173,33.789 58.173,33.799 C58.144,33.799 58.116,33.799 58.087,33.799 C58.087,33.808 58.087,33.818 58.087,33.827 C58.058,33.827 58.030,33.827 58.001,33.827 C58.001,33.837 58.001,33.847 58.001,33.856 C57.963,33.856 57.925,33.856 57.887,33.856 C57.887,33.866 57.887,33.875 57.887,33.885 C57.810,33.894 57.734,33.904 57.658,33.914 C57.658,33.923 57.658,33.933 57.658,33.942 C57.514,33.961 57.371,33.981 57.228,34.000 C57.228,34.009 57.228,34.019 57.228,34.029 C57.009,34.038 56.789,34.048 56.570,34.057 C56.570,34.067 56.570,34.076 56.570,34.086 C56.073,34.086 55.577,34.086 55.081,34.086 C53.611,34.086 52.141,34.086 50.671,34.086 ZM15.109,7.161 C29.471,7.161 43.839,7.161 58.202,7.161 C58.202,6.721 58.202,6.280 58.202,5.839 C58.192,5.610 58.183,5.380 58.173,5.150 C58.163,5.150 58.154,5.150 58.144,5.150 C58.125,5.064 58.106,4.977 58.087,4.891 C58.078,4.891 58.068,4.891 58.058,4.891 C58.039,4.834 58.020,4.776 58.001,4.719 C57.992,4.719 57.982,4.719 57.973,4.719 C57.973,4.700 57.973,4.681 57.973,4.661 C57.963,4.661 57.953,4.661 57.944,4.661 C57.934,4.633 57.925,4.604 57.915,4.575 C57.896,4.566 57.877,4.556 57.858,4.546 C57.858,4.527 57.858,4.508 57.858,4.489 C57.782,4.422 57.705,4.355 57.629,4.288 C57.591,4.240 57.553,4.192 57.514,4.144 C57.495,4.144 57.476,4.144 57.457,4.144 C57.448,4.125 57.438,4.106 57.429,4.087 C57.400,4.077 57.371,4.067 57.343,4.058 C57.343,4.048 57.343,4.039 57.343,4.029 C57.324,4.029 57.304,4.029 57.285,4.029 C57.285,4.020 57.285,4.010 57.285,4.000 C57.228,3.981 57.171,3.962 57.114,3.943 C57.114,3.933 57.114,3.924 57.114,3.914 C57.028,3.895 56.942,3.876 56.856,3.857 C56.856,3.847 56.856,3.838 56.856,3.828 C56.617,3.818 56.379,3.809 56.140,3.799 C55.682,3.799 55.224,3.799 54.766,3.799 C52.800,3.799 50.833,3.799 48.867,3.799 C40.450,3.799 32.030,3.799 23.613,3.799 C21.857,3.799 20.100,3.799 18.344,3.799 C17.981,3.799 17.619,3.799 17.256,3.799 C17.069,3.799 16.825,3.787 16.683,3.828 C16.578,3.838 16.473,3.847 16.368,3.857 C16.368,3.866 16.368,3.876 16.368,3.886 C16.340,3.886 16.311,3.886 16.282,3.886 C16.282,3.895 16.282,3.905 16.282,3.914 C16.263,3.914 16.244,3.914 16.225,3.914 C16.225,3.924 16.225,3.933 16.225,3.943 C16.197,3.943 16.168,3.943 16.139,3.943 C16.139,3.953 16.139,3.962 16.139,3.972 C16.120,3.972 16.101,3.972 16.082,3.972 C16.082,3.981 16.082,3.991 16.082,4.000 C16.063,4.000 16.044,4.000 16.025,4.000 C16.015,4.020 16.006,4.039 15.996,4.058 C15.958,4.067 15.920,4.077 15.882,4.087 C15.863,4.115 15.843,4.144 15.824,4.173 C15.805,4.173 15.786,4.173 15.767,4.173 C15.738,4.211 15.710,4.249 15.681,4.288 C15.614,4.345 15.548,4.403 15.481,4.460 C15.481,4.479 15.481,4.499 15.481,4.518 C15.452,4.537 15.423,4.556 15.395,4.575 C15.385,4.613 15.376,4.652 15.366,4.690 C15.357,4.690 15.347,4.690 15.338,4.690 C15.338,4.709 15.338,4.728 15.338,4.748 C15.328,4.748 15.319,4.748 15.309,4.748 C15.309,4.767 15.309,4.786 15.309,4.805 C15.299,4.805 15.290,4.805 15.280,4.805 C15.261,4.862 15.242,4.920 15.223,4.977 C15.214,4.977 15.204,4.977 15.194,4.977 C15.194,5.006 15.194,5.035 15.194,5.064 C15.185,5.064 15.175,5.064 15.166,5.064 C15.156,5.217 15.147,5.370 15.137,5.523 C15.128,5.523 15.118,5.523 15.109,5.523 C15.109,6.069 15.109,6.615 15.109,7.161 ZM15.109,10.954 C15.109,11.941 15.109,12.928 15.109,13.914 C29.471,13.924 43.839,13.933 58.202,13.943 C58.202,12.947 58.202,11.950 58.202,10.954 C43.839,10.954 29.471,10.954 15.109,10.954 ZM5.230,17.736 C5.174,17.785 5.077,17.763 5.001,17.793 C5.001,17.803 5.001,17.812 5.001,17.822 C4.972,17.822 4.944,17.822 4.915,17.822 C4.915,17.832 4.915,17.841 4.915,17.851 C4.858,17.870 4.801,17.889 4.743,17.908 C4.743,17.918 4.743,17.927 4.743,17.937 C4.705,17.946 4.667,17.956 4.629,17.966 C4.619,17.985 4.610,18.004 4.600,18.023 C4.581,18.023 4.562,18.023 4.543,18.023 C4.524,18.052 4.505,18.081 4.486,18.109 C4.466,18.109 4.447,18.109 4.428,18.109 C4.409,18.138 4.390,18.167 4.371,18.196 C4.314,18.243 4.257,18.291 4.199,18.339 C4.199,18.358 4.199,18.378 4.199,18.397 C4.171,18.416 4.142,18.435 4.113,18.454 C4.113,18.473 4.113,18.492 4.113,18.512 C4.094,18.521 4.075,18.531 4.056,18.540 C4.056,18.560 4.056,18.579 4.056,18.598 C4.047,18.598 4.037,18.598 4.027,18.598 C4.027,18.617 4.027,18.636 4.027,18.655 C4.018,18.655 4.008,18.655 3.999,18.655 C3.999,18.674 3.999,18.694 3.999,18.713 C3.989,18.713 3.980,18.713 3.970,18.713 C3.970,18.732 3.970,18.751 3.970,18.770 C3.961,18.770 3.951,18.770 3.942,18.770 C3.942,18.789 3.942,18.809 3.942,18.828 C3.932,18.828 3.922,18.828 3.913,18.828 C3.913,18.847 3.913,18.866 3.913,18.885 C3.903,18.885 3.894,18.885 3.884,18.885 C3.884,18.914 3.884,18.943 3.884,18.971 C3.875,18.971 3.865,18.971 3.856,18.971 C3.856,19.010 3.856,19.048 3.856,19.086 C3.846,19.086 3.837,19.086 3.827,19.086 C3.827,19.163 3.827,19.240 3.827,19.316 C3.741,19.621 3.798,20.264 3.798,20.638 C3.798,21.902 3.798,23.167 3.798,24.431 C3.798,28.808 3.798,33.186 3.798,37.563 C3.798,38.770 3.798,39.977 3.798,41.184 C3.798,41.662 3.798,42.141 3.798,42.620 C3.808,42.620 3.817,42.620 3.827,42.620 C3.827,42.697 3.827,42.774 3.827,42.850 C3.837,42.850 3.846,42.850 3.856,42.850 C3.875,42.936 3.894,43.023 3.913,43.109 C3.922,43.109 3.932,43.109 3.942,43.109 C3.961,43.166 3.980,43.224 3.999,43.281 C4.008,43.281 4.018,43.281 4.027,43.281 C4.027,43.300 4.027,43.319 4.027,43.339 C4.037,43.339 4.047,43.339 4.056,43.339 C4.066,43.367 4.075,43.396 4.085,43.425 C4.104,43.434 4.123,43.444 4.142,43.454 C4.142,43.473 4.142,43.492 4.142,43.511 C4.218,43.578 4.295,43.645 4.371,43.712 C4.409,43.760 4.447,43.808 4.486,43.856 C4.505,43.856 4.524,43.856 4.543,43.856 C4.552,43.875 4.562,43.894 4.571,43.913 C4.591,43.913 4.610,43.913 4.629,43.913 C4.638,43.932 4.648,43.952 4.657,43.971 C5.156,44.287 6.113,44.201 6.919,44.201 C8.570,44.201 10.222,44.201 11.873,44.201 C18.143,44.201 24.415,44.201 30.685,44.201 C34.550,44.201 38.416,44.201 42.282,44.201 C43.007,44.201 43.732,44.201 44.458,44.201 C44.729,44.201 45.095,44.236 45.317,44.172 C45.383,44.172 45.450,44.172 45.517,44.172 C45.993,44.026 46.394,43.748 46.634,43.367 C46.643,43.329 46.653,43.291 46.662,43.252 C46.672,43.252 46.681,43.252 46.691,43.252 C46.691,43.233 46.691,43.214 46.691,43.195 C46.701,43.195 46.710,43.195 46.720,43.195 C46.739,43.138 46.758,43.080 46.777,43.023 C46.786,43.023 46.796,43.023 46.806,43.023 C46.806,42.994 46.806,42.965 46.806,42.936 C46.815,42.936 46.825,42.936 46.834,42.936 C46.914,42.699 46.863,42.225 46.863,41.931 C46.863,41.346 46.863,40.762 46.863,40.178 C46.863,37.640 46.863,35.101 46.863,32.563 C46.863,29.039 46.863,25.513 46.863,21.989 C46.863,21.031 46.863,20.073 46.863,19.115 C46.853,19.115 46.844,19.115 46.834,19.115 C46.834,19.077 46.834,19.038 46.834,19.000 C46.825,19.000 46.815,19.000 46.806,19.000 C46.796,18.943 46.786,18.885 46.777,18.828 C46.767,18.828 46.758,18.828 46.748,18.828 C46.729,18.770 46.710,18.713 46.691,18.655 C46.681,18.655 46.672,18.655 46.662,18.655 C46.662,18.636 46.662,18.617 46.662,18.598 C46.643,18.588 46.624,18.579 46.605,18.569 C46.596,18.531 46.586,18.492 46.577,18.454 C46.538,18.425 46.500,18.397 46.462,18.368 C46.462,18.349 46.462,18.330 46.462,18.310 C46.414,18.272 46.367,18.234 46.319,18.196 C46.309,18.176 46.300,18.157 46.290,18.138 C46.046,17.962 45.786,17.830 45.460,17.736 C44.591,17.736 43.723,17.736 42.854,17.736 C40.297,17.736 37.738,17.736 35.180,17.736 C25.198,17.736 15.213,17.736 5.230,17.736 ZM50.385,17.736 C50.452,17.994 50.518,18.253 50.585,18.512 C50.585,18.569 50.585,18.627 50.585,18.684 C50.595,18.684 50.604,18.684 50.614,18.684 C50.614,18.751 50.614,18.818 50.614,18.885 C50.623,18.885 50.633,18.885 50.642,18.885 C50.642,18.991 50.642,19.096 50.642,19.201 C50.652,19.201 50.662,19.201 50.671,19.201 C50.671,22.889 50.671,26.577 50.671,30.264 C52.160,30.264 53.649,30.264 55.138,30.264 C55.682,30.264 56.226,30.264 56.770,30.264 C56.770,30.255 56.770,30.245 56.770,30.235 C56.818,30.235 56.865,30.235 56.913,30.235 C56.913,30.226 56.913,30.216 56.913,30.207 C56.970,30.197 57.028,30.188 57.085,30.178 C57.085,30.168 57.085,30.159 57.085,30.149 C57.142,30.130 57.199,30.111 57.257,30.092 C57.257,30.082 57.257,30.073 57.257,30.063 C57.295,30.054 57.333,30.044 57.371,30.034 C57.381,30.015 57.390,29.996 57.400,29.977 C57.419,29.977 57.438,29.977 57.457,29.977 C57.476,29.948 57.495,29.919 57.514,29.891 C57.534,29.891 57.553,29.891 57.572,29.891 C57.629,29.824 57.686,29.757 57.743,29.690 C57.763,29.680 57.782,29.670 57.801,29.661 C57.801,29.642 57.801,29.622 57.801,29.603 C57.829,29.584 57.858,29.565 57.887,29.546 C57.887,29.527 57.887,29.508 57.887,29.488 C57.906,29.479 57.925,29.469 57.944,29.460 C57.953,29.421 57.963,29.383 57.973,29.345 C57.982,29.345 57.992,29.345 58.001,29.345 C58.001,29.326 58.001,29.306 58.001,29.287 C58.011,29.287 58.020,29.287 58.030,29.287 C58.049,29.230 58.068,29.172 58.087,29.115 C58.097,29.115 58.106,29.115 58.116,29.115 C58.116,29.086 58.116,29.057 58.116,29.029 C58.125,29.029 58.135,29.029 58.144,29.029 C58.144,28.990 58.144,28.952 58.144,28.914 C58.154,28.914 58.163,28.914 58.173,28.914 C58.183,28.646 58.192,28.377 58.202,28.109 C58.202,27.573 58.202,27.036 58.202,26.500 C58.202,23.579 58.202,20.657 58.202,17.736 C55.596,17.736 52.990,17.736 50.385,17.736 ZM20.406,23.483 C20.778,23.483 21.150,23.483 21.522,23.483 C21.837,23.531 22.152,23.579 22.467,23.626 C22.467,23.636 22.467,23.646 22.467,23.655 C22.505,23.655 22.544,23.655 22.582,23.655 C22.582,23.665 22.582,23.674 22.582,23.684 C22.620,23.684 22.658,23.684 22.696,23.684 C22.696,23.693 22.696,23.703 22.696,23.713 C22.735,23.713 22.773,23.713 22.811,23.713 C22.811,23.722 22.811,23.732 22.811,23.741 C22.849,23.741 22.887,23.741 22.925,23.741 C22.925,23.751 22.925,23.761 22.925,23.770 C22.964,23.770 23.002,23.770 23.040,23.770 C23.040,23.780 23.040,23.789 23.040,23.799 C23.069,23.799 23.097,23.799 23.126,23.799 C23.126,23.808 23.126,23.818 23.126,23.828 C23.164,23.828 23.202,23.828 23.240,23.828 C23.240,23.837 23.240,23.847 23.240,23.856 C23.326,23.875 23.412,23.895 23.498,23.914 C23.498,23.923 23.498,23.933 23.498,23.943 C23.517,23.943 23.536,23.943 23.555,23.943 C23.555,23.952 23.555,23.962 23.555,23.971 C23.584,23.971 23.613,23.971 23.641,23.971 C23.641,23.981 23.641,23.990 23.641,24.000 C23.660,24.000 23.679,24.000 23.699,24.000 C23.699,24.010 23.699,24.019 23.699,24.029 C23.727,24.029 23.756,24.029 23.784,24.029 C23.784,24.038 23.784,24.048 23.784,24.057 C23.803,24.057 23.823,24.057 23.842,24.057 C23.842,24.067 23.842,24.077 23.842,24.086 C23.870,24.086 23.899,24.086 23.928,24.086 C23.928,24.096 23.928,24.105 23.928,24.115 C23.947,24.115 23.966,24.115 23.985,24.115 C23.985,24.125 23.985,24.134 23.985,24.144 C24.004,24.144 24.023,24.144 24.042,24.144 C24.042,24.153 24.042,24.163 24.042,24.172 C24.061,24.172 24.080,24.172 24.099,24.172 C24.099,24.182 24.099,24.192 24.099,24.201 C24.128,24.201 24.157,24.201 24.185,24.201 C24.185,24.211 24.185,24.220 24.185,24.230 C24.223,24.239 24.262,24.249 24.300,24.259 C24.300,24.268 24.300,24.278 24.300,24.287 C24.338,24.297 24.376,24.307 24.414,24.316 C24.424,24.335 24.433,24.354 24.443,24.374 C24.462,24.374 24.481,24.374 24.500,24.374 C24.500,24.383 24.500,24.393 24.500,24.402 C24.519,24.402 24.538,24.402 24.558,24.402 C24.558,24.412 24.558,24.421 24.558,24.431 C24.577,24.431 24.596,24.431 24.615,24.431 C24.615,24.441 24.615,24.450 24.615,24.460 C24.634,24.460 24.653,24.460 24.672,24.460 C24.682,24.479 24.691,24.498 24.701,24.517 C24.739,24.527 24.777,24.536 24.815,24.546 C24.815,24.556 24.815,24.565 24.815,24.575 C24.844,24.584 24.872,24.594 24.901,24.603 C24.911,24.623 24.920,24.642 24.930,24.661 C24.968,24.670 25.006,24.680 25.044,24.690 C25.054,24.709 25.063,24.728 25.073,24.747 C25.092,24.747 25.111,24.747 25.130,24.747 C25.149,24.776 25.168,24.805 25.187,24.833 C25.207,24.833 25.226,24.833 25.245,24.833 C25.254,24.852 25.264,24.872 25.273,24.891 C25.302,24.900 25.331,24.910 25.359,24.920 C25.359,24.910 25.359,24.900 25.359,24.891 C25.395,24.872 25.399,24.845 25.417,24.833 C25.436,24.833 25.455,24.833 25.474,24.833 C25.483,24.814 25.493,24.795 25.502,24.776 C25.521,24.776 25.541,24.776 25.560,24.776 C25.569,24.757 25.579,24.738 25.588,24.718 C25.607,24.718 25.626,24.718 25.646,24.718 C25.655,24.699 25.665,24.680 25.674,24.661 C25.693,24.661 25.712,24.661 25.731,24.661 C25.741,24.642 25.751,24.623 25.760,24.603 C25.779,24.603 25.798,24.603 25.817,24.603 C25.817,24.594 25.817,24.584 25.817,24.575 C25.836,24.575 25.856,24.575 25.875,24.575 C25.884,24.556 25.894,24.536 25.903,24.517 C25.941,24.508 25.980,24.498 26.018,24.488 C26.027,24.469 26.037,24.450 26.046,24.431 C26.066,24.431 26.085,24.431 26.104,24.431 C26.104,24.421 26.104,24.412 26.104,24.402 C26.123,24.402 26.142,24.402 26.161,24.402 C26.161,24.393 26.161,24.383 26.161,24.374 C26.180,24.374 26.199,24.374 26.218,24.374 C26.218,24.364 26.218,24.354 26.218,24.345 C26.237,24.345 26.256,24.345 26.276,24.345 C26.276,24.335 26.276,24.326 26.276,24.316 C26.295,24.316 26.314,24.316 26.333,24.316 C26.333,24.307 26.333,24.297 26.333,24.287 C26.352,24.287 26.371,24.287 26.390,24.287 C26.390,24.278 26.390,24.268 26.390,24.259 C26.409,24.259 26.428,24.259 26.447,24.259 C26.447,24.249 26.447,24.239 26.447,24.230 C26.466,24.230 26.485,24.230 26.505,24.230 C26.505,24.220 26.505,24.211 26.505,24.201 C26.562,24.182 26.619,24.163 26.676,24.144 C26.676,24.134 26.676,24.125 26.676,24.115 C26.705,24.115 26.734,24.115 26.762,24.115 C26.762,24.105 26.762,24.096 26.762,24.086 C26.800,24.077 26.839,24.067 26.877,24.057 C26.877,24.048 26.877,24.038 26.877,24.029 C26.905,24.029 26.934,24.029 26.963,24.029 C26.963,24.019 26.963,24.010 26.963,24.000 C26.982,24.000 27.001,24.000 27.020,24.000 C27.020,23.990 27.020,23.981 27.020,23.971 C27.106,23.952 27.192,23.933 27.278,23.914 C27.278,23.904 27.278,23.895 27.278,23.885 C27.306,23.885 27.335,23.885 27.364,23.885 C27.364,23.875 27.364,23.866 27.364,23.856 C27.392,23.856 27.421,23.856 27.449,23.856 C27.449,23.847 27.449,23.837 27.449,23.828 C27.478,23.828 27.507,23.828 27.535,23.828 C27.535,23.818 27.535,23.808 27.535,23.799 C27.564,23.799 27.593,23.799 27.621,23.799 C27.621,23.789 27.621,23.780 27.621,23.770 C27.659,23.770 27.698,23.770 27.736,23.770 C27.736,23.761 27.736,23.751 27.736,23.741 C27.850,23.722 27.965,23.703 28.079,23.684 C28.079,23.674 28.079,23.665 28.079,23.655 C28.165,23.646 28.251,23.636 28.337,23.626 C28.337,23.617 28.337,23.607 28.337,23.598 C28.394,23.598 28.452,23.598 28.509,23.598 C28.509,23.588 28.509,23.579 28.509,23.569 C28.566,23.569 28.623,23.569 28.681,23.569 C28.681,23.559 28.681,23.550 28.681,23.540 C28.748,23.540 28.814,23.540 28.881,23.540 C28.881,23.531 28.881,23.521 28.881,23.512 C28.977,23.512 29.072,23.512 29.167,23.512 C29.167,23.502 29.167,23.492 29.167,23.483 C29.272,23.483 29.377,23.483 29.482,23.483 C29.738,23.483 30.078,23.453 30.284,23.512 C30.513,23.531 30.742,23.550 30.971,23.569 C30.971,23.579 30.971,23.588 30.971,23.598 C31.019,23.598 31.067,23.598 31.115,23.598 C31.115,23.607 31.115,23.617 31.115,23.626 C31.162,23.626 31.210,23.626 31.258,23.626 C31.258,23.636 31.258,23.646 31.258,23.655 C31.296,23.655 31.334,23.655 31.372,23.655 C31.372,23.665 31.372,23.674 31.372,23.684 C31.410,23.684 31.449,23.684 31.487,23.684 C31.487,23.693 31.487,23.703 31.487,23.713 C31.525,23.713 31.563,23.713 31.601,23.713 C31.601,23.722 31.601,23.732 31.601,23.741 C31.678,23.751 31.754,23.761 31.830,23.770 C31.830,23.780 31.830,23.789 31.830,23.799 C31.926,23.818 32.021,23.837 32.117,23.856 C32.117,23.866 32.117,23.875 32.117,23.885 C32.136,23.885 32.155,23.885 32.174,23.885 C32.174,23.895 32.174,23.904 32.174,23.914 C32.203,23.914 32.231,23.914 32.260,23.914 C32.260,23.923 32.260,23.933 32.260,23.943 C32.317,23.952 32.374,23.962 32.432,23.971 C32.432,23.981 32.432,23.990 32.432,24.000 C32.451,24.000 32.470,24.000 32.489,24.000 C32.489,24.010 32.489,24.019 32.489,24.029 C32.518,24.029 32.546,24.029 32.575,24.029 C32.575,24.038 32.575,24.048 32.575,24.057 C32.594,24.057 32.613,24.057 32.632,24.057 C32.632,24.067 32.632,24.077 32.632,24.086 C32.661,24.086 32.689,24.086 32.718,24.086 C32.718,24.096 32.718,24.105 32.718,24.115 C32.775,24.134 32.833,24.153 32.890,24.172 C32.890,24.182 32.890,24.192 32.890,24.201 C32.909,24.201 32.928,24.201 32.947,24.201 C32.947,24.211 32.947,24.220 32.947,24.230 C32.966,24.230 32.985,24.230 33.004,24.230 C33.004,24.239 33.004,24.249 33.004,24.259 C33.023,24.259 33.043,24.259 33.062,24.259 C33.062,24.268 33.062,24.278 33.062,24.287 C33.081,24.287 33.100,24.287 33.119,24.287 C33.119,24.297 33.119,24.307 33.119,24.316 C33.138,24.316 33.157,24.316 33.176,24.316 C33.176,24.326 33.176,24.335 33.176,24.345 C33.195,24.345 33.214,24.345 33.233,24.345 C33.233,24.354 33.233,24.364 33.233,24.374 C33.252,24.374 33.272,24.374 33.291,24.374 C33.291,24.383 33.291,24.393 33.291,24.402 C33.310,24.402 33.329,24.402 33.348,24.402 C33.348,24.412 33.348,24.421 33.348,24.431 C33.367,24.431 33.386,24.431 33.405,24.431 C33.415,24.450 33.424,24.469 33.434,24.488 C33.472,24.498 33.510,24.508 33.548,24.517 C33.558,24.536 33.567,24.556 33.577,24.575 C33.615,24.584 33.653,24.594 33.692,24.603 C33.692,24.613 33.692,24.623 33.692,24.632 C33.720,24.642 33.749,24.651 33.777,24.661 C33.787,24.680 33.797,24.699 33.806,24.718 C33.825,24.718 33.844,24.718 33.863,24.718 C33.863,24.728 33.863,24.738 33.863,24.747 C33.892,24.757 33.921,24.766 33.949,24.776 C33.959,24.795 33.968,24.814 33.978,24.833 C33.997,24.833 34.016,24.833 34.035,24.833 C34.045,24.852 34.054,24.872 34.064,24.891 C34.092,24.900 34.121,24.910 34.150,24.920 C34.169,24.948 34.188,24.977 34.207,25.006 C34.226,25.006 34.245,25.006 34.264,25.006 C34.283,25.034 34.302,25.063 34.321,25.092 C34.341,25.092 34.360,25.092 34.379,25.092 C34.407,25.130 34.436,25.169 34.465,25.207 C34.484,25.207 34.503,25.207 34.522,25.207 C34.579,25.274 34.636,25.341 34.694,25.408 C34.713,25.408 34.732,25.408 34.751,25.408 C34.837,25.504 34.923,25.600 35.009,25.695 C35.095,25.772 35.180,25.849 35.266,25.925 C35.266,25.944 35.266,25.964 35.266,25.983 C35.333,26.040 35.400,26.098 35.467,26.155 C35.476,26.184 35.486,26.213 35.495,26.241 C35.524,26.260 35.553,26.280 35.581,26.299 C35.581,26.318 35.581,26.337 35.581,26.356 C35.610,26.375 35.639,26.395 35.667,26.414 C35.667,26.433 35.667,26.452 35.667,26.471 C35.696,26.490 35.724,26.510 35.753,26.529 C35.753,26.548 35.753,26.567 35.753,26.586 C35.782,26.605 35.810,26.624 35.839,26.644 C35.839,26.663 35.839,26.682 35.839,26.701 C35.858,26.711 35.877,26.720 35.896,26.730 C35.896,26.749 35.896,26.768 35.896,26.787 C35.915,26.797 35.934,26.806 35.954,26.816 C35.954,26.835 35.954,26.854 35.954,26.873 C35.973,26.883 35.992,26.893 36.011,26.902 C36.011,26.921 36.011,26.941 36.011,26.960 C36.030,26.969 36.049,26.979 36.068,26.988 C36.078,27.027 36.087,27.065 36.097,27.103 C36.116,27.113 36.135,27.123 36.154,27.132 C36.164,27.170 36.173,27.209 36.183,27.247 C36.202,27.257 36.221,27.266 36.240,27.276 C36.240,27.295 36.240,27.314 36.240,27.333 C36.249,27.333 36.259,27.333 36.269,27.333 C36.269,27.352 36.269,27.372 36.269,27.391 C36.278,27.391 36.288,27.391 36.297,27.391 C36.297,27.410 36.297,27.429 36.297,27.448 C36.307,27.448 36.316,27.448 36.326,27.448 C36.326,27.467 36.326,27.487 36.326,27.506 C36.335,27.506 36.345,27.506 36.354,27.506 C36.354,27.525 36.354,27.544 36.354,27.563 C36.364,27.563 36.374,27.563 36.383,27.563 C36.383,27.582 36.383,27.601 36.383,27.621 C36.393,27.621 36.402,27.621 36.412,27.621 C36.412,27.640 36.412,27.659 36.412,27.678 C36.421,27.678 36.431,27.678 36.440,27.678 C36.440,27.697 36.440,27.716 36.440,27.736 C36.450,27.736 36.459,27.736 36.469,27.736 C36.488,27.793 36.507,27.850 36.526,27.908 C36.536,27.908 36.545,27.908 36.555,27.908 C36.555,27.937 36.555,27.965 36.555,27.994 C36.564,27.994 36.574,27.994 36.583,27.994 C36.593,28.032 36.603,28.071 36.612,28.109 C36.622,28.109 36.631,28.109 36.641,28.109 C36.641,28.138 36.641,28.167 36.641,28.195 C36.650,28.195 36.660,28.195 36.669,28.195 C36.669,28.214 36.669,28.234 36.669,28.253 C36.679,28.253 36.688,28.253 36.698,28.253 C36.708,28.310 36.717,28.368 36.727,28.425 C36.736,28.425 36.746,28.425 36.755,28.425 C36.755,28.454 36.755,28.483 36.755,28.511 C36.765,28.511 36.774,28.511 36.784,28.511 C36.784,28.540 36.784,28.569 36.784,28.598 C36.793,28.598 36.803,28.598 36.813,28.598 C36.813,28.626 36.813,28.655 36.813,28.684 C36.822,28.684 36.832,28.684 36.841,28.684 C36.841,28.713 36.841,28.741 36.841,28.770 C36.851,28.770 36.860,28.770 36.870,28.770 C36.870,28.799 36.870,28.827 36.870,28.856 C36.879,28.856 36.889,28.856 36.898,28.856 C36.908,28.933 36.918,29.009 36.927,29.086 C37.105,29.622 37.185,30.240 37.185,30.954 C37.175,31.232 37.166,31.509 37.156,31.787 C37.147,31.787 37.137,31.787 37.128,31.787 C37.128,31.864 37.128,31.940 37.128,32.017 C37.118,32.017 37.108,32.017 37.099,32.017 C37.099,32.075 37.099,32.132 37.099,32.189 C37.028,32.425 36.977,32.714 36.898,32.937 C36.889,33.013 36.879,33.090 36.870,33.166 C36.860,33.166 36.851,33.166 36.841,33.166 C36.841,33.195 36.841,33.224 36.841,33.253 C36.832,33.253 36.822,33.253 36.813,33.253 C36.813,33.281 36.813,33.310 36.813,33.339 C36.803,33.339 36.793,33.339 36.784,33.339 C36.784,33.368 36.784,33.396 36.784,33.425 C36.774,33.425 36.765,33.425 36.755,33.425 C36.755,33.454 36.755,33.483 36.755,33.511 C36.746,33.511 36.736,33.511 36.727,33.511 C36.727,33.530 36.727,33.550 36.727,33.569 C36.717,33.569 36.708,33.569 36.698,33.569 C36.688,33.626 36.679,33.684 36.669,33.741 C36.660,33.741 36.650,33.741 36.641,33.741 C36.641,33.760 36.641,33.779 36.641,33.799 C36.631,33.799 36.622,33.799 36.612,33.799 C36.612,33.827 36.612,33.856 36.612,33.885 C36.603,33.885 36.593,33.885 36.583,33.885 C36.574,33.923 36.564,33.961 36.555,34.000 C36.545,34.000 36.536,34.000 36.526,34.000 C36.526,34.019 36.526,34.038 36.526,34.057 C36.517,34.057 36.507,34.057 36.498,34.057 C36.498,34.086 36.498,34.115 36.498,34.143 C36.488,34.143 36.478,34.143 36.469,34.143 C36.450,34.201 36.431,34.258 36.412,34.316 C36.402,34.316 36.393,34.316 36.383,34.316 C36.383,34.335 36.383,34.354 36.383,34.373 C36.374,34.373 36.364,34.373 36.354,34.373 C36.345,34.412 36.335,34.450 36.326,34.488 C36.307,34.498 36.288,34.507 36.269,34.517 C36.249,34.574 36.230,34.632 36.211,34.689 C36.192,34.699 36.173,34.709 36.154,34.718 C36.144,34.756 36.135,34.795 36.125,34.833 C36.106,34.843 36.087,34.852 36.068,34.862 C36.059,34.900 36.049,34.938 36.039,34.977 C36.030,34.977 36.020,34.977 36.011,34.977 C36.001,35.005 35.992,35.034 35.982,35.063 C35.963,35.073 35.944,35.082 35.925,35.092 C35.925,35.111 35.925,35.130 35.925,35.149 C35.906,35.159 35.887,35.168 35.868,35.178 C35.868,35.197 35.868,35.216 35.868,35.235 C35.839,35.255 35.810,35.274 35.782,35.293 C35.782,35.312 35.782,35.331 35.782,35.350 C35.753,35.369 35.724,35.389 35.696,35.408 C35.696,35.427 35.696,35.446 35.696,35.465 C35.667,35.484 35.639,35.504 35.610,35.523 C35.610,35.542 35.610,35.561 35.610,35.580 C35.581,35.599 35.553,35.619 35.524,35.638 C35.524,35.657 35.524,35.676 35.524,35.695 C35.467,35.743 35.410,35.791 35.352,35.839 C35.352,35.858 35.352,35.877 35.352,35.896 C35.180,36.059 35.009,36.222 34.837,36.385 C34.770,36.461 34.703,36.538 34.636,36.615 C34.617,36.615 34.598,36.615 34.579,36.615 C34.541,36.663 34.503,36.710 34.465,36.758 C34.446,36.758 34.426,36.758 34.407,36.758 C34.379,36.797 34.350,36.835 34.321,36.873 C34.302,36.873 34.283,36.873 34.264,36.873 C34.245,36.902 34.226,36.931 34.207,36.959 C34.188,36.959 34.169,36.959 34.150,36.959 C34.131,36.988 34.111,37.017 34.092,37.046 C34.073,37.046 34.054,37.046 34.035,37.046 C34.026,37.065 34.016,37.084 34.006,37.103 C33.978,37.113 33.949,37.122 33.921,37.132 C33.921,37.141 33.921,37.151 33.921,37.161 C33.902,37.161 33.882,37.161 33.863,37.161 C33.854,37.180 33.844,37.199 33.835,37.218 C33.816,37.218 33.797,37.218 33.777,37.218 C33.768,37.237 33.758,37.256 33.749,37.276 C33.720,37.285 33.692,37.295 33.663,37.304 C33.663,37.314 33.663,37.323 33.663,37.333 C33.644,37.333 33.625,37.333 33.606,37.333 C33.606,37.343 33.606,37.352 33.606,37.362 C33.587,37.362 33.567,37.362 33.548,37.362 C33.539,37.381 33.529,37.400 33.520,37.419 C33.482,37.429 33.443,37.438 33.405,37.448 C33.396,37.467 33.386,37.486 33.377,37.505 C33.357,37.505 33.338,37.505 33.319,37.505 C33.319,37.515 33.319,37.525 33.319,37.534 C33.300,37.534 33.281,37.534 33.262,37.534 C33.262,37.544 33.262,37.553 33.262,37.563 C33.243,37.563 33.224,37.563 33.205,37.563 C33.205,37.572 33.205,37.582 33.205,37.592 C33.186,37.592 33.167,37.592 33.147,37.592 C33.147,37.601 33.147,37.611 33.147,37.620 C33.128,37.620 33.109,37.620 33.090,37.620 C33.090,37.630 33.090,37.640 33.090,37.649 C33.071,37.649 33.052,37.649 33.033,37.649 C33.033,37.659 33.033,37.668 33.033,37.678 C33.014,37.678 32.995,37.678 32.976,37.678 C32.976,37.687 32.976,37.697 32.976,37.707 C32.918,37.726 32.861,37.745 32.804,37.764 C32.804,37.774 32.804,37.783 32.804,37.793 C32.775,37.793 32.747,37.793 32.718,37.793 C32.718,37.802 32.718,37.812 32.718,37.822 C32.680,37.831 32.642,37.841 32.603,37.850 C32.603,37.860 32.603,37.869 32.603,37.879 C32.575,37.879 32.546,37.879 32.518,37.879 C32.518,37.889 32.518,37.898 32.518,37.908 C32.498,37.908 32.479,37.908 32.460,37.908 C32.460,37.917 32.460,37.927 32.460,37.936 C32.432,37.936 32.403,37.936 32.374,37.936 C32.374,37.946 32.374,37.956 32.374,37.965 C32.346,37.965 32.317,37.965 32.288,37.965 C32.288,37.975 32.288,37.984 32.288,37.994 C32.269,37.994 32.250,37.994 32.231,37.994 C32.231,38.004 32.231,38.013 32.231,38.023 C32.174,38.032 32.117,38.042 32.059,38.051 C32.059,38.061 32.059,38.071 32.059,38.080 C31.993,38.090 31.926,38.099 31.859,38.109 C31.859,38.118 31.859,38.128 31.859,38.138 C31.830,38.138 31.802,38.138 31.773,38.138 C31.773,38.147 31.773,38.157 31.773,38.166 C31.735,38.166 31.697,38.166 31.659,38.166 C31.659,38.176 31.659,38.186 31.659,38.195 C31.620,38.195 31.582,38.195 31.544,38.195 C31.544,38.205 31.544,38.214 31.544,38.224 C31.506,38.224 31.468,38.224 31.429,38.224 C31.429,38.233 31.429,38.243 31.429,38.253 C31.344,38.262 31.258,38.272 31.172,38.281 C31.172,38.291 31.172,38.300 31.172,38.310 C31.124,38.310 31.076,38.310 31.029,38.310 C31.029,38.320 31.029,38.329 31.029,38.339 C30.971,38.339 30.914,38.339 30.857,38.339 C30.857,38.348 30.857,38.358 30.857,38.367 C30.800,38.367 30.742,38.367 30.685,38.367 C30.685,38.377 30.685,38.387 30.685,38.396 C30.599,38.396 30.513,38.396 30.427,38.396 C30.427,38.406 30.427,38.415 30.427,38.425 C30.313,38.425 30.198,38.425 30.084,38.425 C29.945,38.437 29.599,38.503 29.425,38.454 C29.425,38.444 29.425,38.435 29.425,38.425 C29.292,38.425 29.158,38.425 29.024,38.425 C29.024,38.415 29.024,38.406 29.024,38.396 C28.948,38.396 28.872,38.396 28.795,38.396 C28.795,38.387 28.795,38.377 28.795,38.367 C28.728,38.367 28.662,38.367 28.595,38.367 C28.595,38.358 28.595,38.348 28.595,38.339 C28.538,38.339 28.480,38.339 28.423,38.339 C28.423,38.329 28.423,38.320 28.423,38.310 C28.375,38.310 28.328,38.310 28.280,38.310 C28.280,38.300 28.280,38.291 28.280,38.281 C28.194,38.272 28.108,38.262 28.022,38.253 C28.022,38.243 28.022,38.233 28.022,38.224 C27.984,38.224 27.946,38.224 27.908,38.224 C27.908,38.214 27.908,38.205 27.908,38.195 C27.869,38.195 27.831,38.195 27.793,38.195 C27.793,38.186 27.793,38.176 27.793,38.166 C27.755,38.166 27.717,38.166 27.679,38.166 C27.679,38.157 27.679,38.147 27.679,38.138 C27.650,38.138 27.621,38.138 27.593,38.138 C27.593,38.128 27.593,38.118 27.593,38.109 C27.564,38.109 27.535,38.109 27.507,38.109 C27.507,38.099 27.507,38.090 27.507,38.080 C27.411,38.061 27.316,38.042 27.220,38.023 C27.220,38.013 27.220,38.004 27.220,37.994 C27.201,37.994 27.182,37.994 27.163,37.994 C27.163,37.984 27.163,37.975 27.163,37.965 C27.106,37.956 27.049,37.946 26.991,37.936 C26.991,37.927 26.991,37.917 26.991,37.908 C26.972,37.908 26.953,37.908 26.934,37.908 C26.934,37.898 26.934,37.889 26.934,37.879 C26.905,37.879 26.877,37.879 26.848,37.879 C26.848,37.869 26.848,37.860 26.848,37.850 C26.810,37.841 26.772,37.831 26.734,37.822 C26.734,37.812 26.734,37.802 26.734,37.793 C26.705,37.793 26.676,37.793 26.648,37.793 C26.648,37.783 26.648,37.774 26.648,37.764 C26.610,37.754 26.571,37.745 26.533,37.735 C26.533,37.726 26.533,37.716 26.533,37.707 C26.476,37.687 26.419,37.668 26.361,37.649 C26.361,37.640 26.361,37.630 26.361,37.620 C26.342,37.620 26.323,37.620 26.304,37.620 C26.304,37.611 26.304,37.601 26.304,37.592 C26.285,37.592 26.266,37.592 26.247,37.592 C26.247,37.582 26.247,37.572 26.247,37.563 C26.228,37.563 26.209,37.563 26.190,37.563 C26.190,37.553 26.190,37.544 26.190,37.534 C26.151,37.525 26.113,37.515 26.075,37.505 C26.066,37.486 26.056,37.467 26.046,37.448 C26.008,37.438 25.970,37.429 25.932,37.419 C25.922,37.400 25.913,37.381 25.903,37.362 C25.865,37.352 25.827,37.343 25.789,37.333 C25.779,37.314 25.770,37.295 25.760,37.276 C25.741,37.276 25.722,37.276 25.703,37.276 C25.693,37.256 25.684,37.237 25.674,37.218 C25.655,37.218 25.636,37.218 25.617,37.218 C25.607,37.199 25.598,37.180 25.588,37.161 C25.569,37.161 25.550,37.161 25.531,37.161 C25.521,37.141 25.512,37.122 25.502,37.103 C25.483,37.103 25.464,37.103 25.445,37.103 C25.445,37.094 25.445,37.084 25.445,37.074 C25.394,37.034 25.388,37.030 25.302,37.017 C25.229,37.104 25.138,37.127 25.044,37.189 C25.035,37.209 25.025,37.228 25.016,37.247 C24.997,37.247 24.977,37.247 24.958,37.247 C24.949,37.266 24.939,37.285 24.930,37.304 C24.892,37.314 24.853,37.323 24.815,37.333 C24.806,37.352 24.796,37.371 24.787,37.391 C24.748,37.400 24.710,37.410 24.672,37.419 C24.662,37.438 24.653,37.458 24.643,37.477 C24.624,37.477 24.605,37.477 24.586,37.477 C24.586,37.486 24.586,37.496 24.586,37.505 C24.567,37.505 24.548,37.505 24.529,37.505 C24.529,37.515 24.529,37.525 24.529,37.534 C24.510,37.534 24.491,37.534 24.472,37.534 C24.472,37.544 24.472,37.553 24.472,37.563 C24.453,37.563 24.433,37.563 24.414,37.563 C24.414,37.572 24.414,37.582 24.414,37.592 C24.395,37.592 24.376,37.592 24.357,37.592 C24.348,37.611 24.338,37.630 24.328,37.649 C24.281,37.659 24.233,37.668 24.185,37.678 C24.185,37.687 24.185,37.697 24.185,37.707 C24.166,37.707 24.147,37.707 24.128,37.707 C24.128,37.716 24.128,37.726 24.128,37.735 C24.071,37.754 24.013,37.774 23.956,37.793 C23.956,37.802 23.956,37.812 23.956,37.822 C23.908,37.831 23.861,37.841 23.813,37.850 C23.813,37.860 23.813,37.869 23.813,37.879 C23.794,37.879 23.775,37.879 23.756,37.879 C23.756,37.889 23.756,37.898 23.756,37.908 C23.699,37.917 23.641,37.927 23.584,37.936 C23.584,37.946 23.584,37.956 23.584,37.965 C23.565,37.965 23.546,37.965 23.527,37.965 C23.527,37.975 23.527,37.984 23.527,37.994 C23.469,38.004 23.412,38.013 23.355,38.023 C23.355,38.032 23.355,38.042 23.355,38.051 C23.326,38.051 23.298,38.051 23.269,38.051 C23.269,38.061 23.269,38.071 23.269,38.080 C23.240,38.080 23.212,38.080 23.183,38.080 C23.183,38.090 23.183,38.099 23.183,38.109 C23.116,38.118 23.049,38.128 22.983,38.138 C22.983,38.147 22.983,38.157 22.983,38.166 C22.906,38.176 22.830,38.186 22.754,38.195 C22.754,38.205 22.754,38.214 22.754,38.224 C22.677,38.233 22.601,38.243 22.525,38.253 C22.525,38.262 22.525,38.272 22.525,38.281 C22.381,38.300 22.238,38.320 22.095,38.339 C22.095,38.348 22.095,38.358 22.095,38.367 C21.942,38.377 21.790,38.387 21.637,38.396 C21.637,38.406 21.637,38.415 21.637,38.425 C21.312,38.435 20.988,38.444 20.663,38.454 C20.663,38.444 20.663,38.435 20.663,38.425 C20.530,38.425 20.396,38.425 20.263,38.425 C20.263,38.415 20.263,38.406 20.263,38.396 C20.177,38.396 20.091,38.396 20.005,38.396 C20.005,38.387 20.005,38.377 20.005,38.367 C19.948,38.367 19.890,38.367 19.833,38.367 C19.833,38.358 19.833,38.348 19.833,38.339 C19.642,38.310 19.451,38.281 19.260,38.253 C19.260,38.243 19.260,38.233 19.260,38.224 C19.184,38.214 19.108,38.205 19.031,38.195 C19.031,38.186 19.031,38.176 19.031,38.166 C18.993,38.166 18.955,38.166 18.917,38.166 C18.917,38.157 18.917,38.147 18.917,38.138 C18.850,38.128 18.783,38.118 18.716,38.109 C18.716,38.099 18.716,38.090 18.716,38.080 C18.688,38.080 18.659,38.080 18.630,38.080 C18.630,38.071 18.630,38.061 18.630,38.051 C18.602,38.051 18.573,38.051 18.545,38.051 C18.545,38.042 18.545,38.032 18.545,38.023 C18.487,38.013 18.430,38.004 18.373,37.994 C18.373,37.984 18.373,37.975 18.373,37.965 C18.354,37.965 18.335,37.965 18.315,37.965 C18.315,37.956 18.315,37.946 18.315,37.936 C18.287,37.936 18.258,37.936 18.230,37.936 C18.230,37.927 18.230,37.917 18.230,37.908 C18.182,37.898 18.134,37.889 18.086,37.879 C18.086,37.869 18.086,37.860 18.086,37.850 C18.067,37.850 18.048,37.850 18.029,37.850 C18.029,37.841 18.029,37.831 18.029,37.822 C18.000,37.822 17.972,37.822 17.943,37.822 C17.943,37.812 17.943,37.802 17.943,37.793 C17.886,37.774 17.829,37.754 17.771,37.735 C17.771,37.726 17.771,37.716 17.771,37.707 C17.752,37.707 17.733,37.707 17.714,37.707 C17.714,37.697 17.714,37.687 17.714,37.678 C17.695,37.678 17.676,37.678 17.657,37.678 C17.657,37.668 17.657,37.659 17.657,37.649 C17.638,37.649 17.619,37.649 17.600,37.649 C17.600,37.640 17.600,37.630 17.600,37.620 C17.581,37.620 17.561,37.620 17.542,37.620 C17.542,37.611 17.542,37.601 17.542,37.592 C17.523,37.592 17.504,37.592 17.485,37.592 C17.485,37.582 17.485,37.572 17.485,37.563 C17.466,37.563 17.447,37.563 17.428,37.563 C17.428,37.553 17.428,37.544 17.428,37.534 C17.409,37.534 17.390,37.534 17.371,37.534 C17.371,37.525 17.371,37.515 17.371,37.505 C17.351,37.505 17.332,37.505 17.313,37.505 C17.313,37.496 17.313,37.486 17.313,37.477 C17.294,37.477 17.275,37.477 17.256,37.477 C17.246,37.458 17.237,37.438 17.227,37.419 C17.189,37.410 17.151,37.400 17.113,37.391 C17.113,37.381 17.113,37.371 17.113,37.362 C17.084,37.352 17.056,37.343 17.027,37.333 C17.017,37.314 17.008,37.295 16.998,37.276 C16.960,37.266 16.922,37.256 16.884,37.247 C16.874,37.228 16.865,37.209 16.855,37.189 C16.836,37.189 16.817,37.189 16.798,37.189 C16.788,37.170 16.779,37.151 16.769,37.132 C16.750,37.132 16.731,37.132 16.712,37.132 C16.693,37.103 16.674,37.074 16.655,37.046 C16.636,37.046 16.617,37.046 16.597,37.046 C16.578,37.017 16.559,36.988 16.540,36.959 C16.521,36.959 16.502,36.959 16.483,36.959 C16.473,36.940 16.464,36.921 16.454,36.902 C16.426,36.892 16.397,36.883 16.368,36.873 C16.349,36.845 16.330,36.816 16.311,36.787 C16.292,36.787 16.273,36.787 16.254,36.787 C16.216,36.739 16.178,36.691 16.139,36.643 C16.120,36.643 16.101,36.643 16.082,36.643 C16.015,36.567 15.948,36.490 15.882,36.414 C15.853,36.404 15.824,36.394 15.796,36.385 C15.738,36.318 15.681,36.251 15.624,36.184 C15.605,36.174 15.586,36.164 15.567,36.155 C15.567,36.136 15.567,36.117 15.567,36.097 C15.471,36.011 15.376,35.925 15.280,35.839 C15.271,35.810 15.261,35.781 15.252,35.753 C15.214,35.724 15.175,35.695 15.137,35.666 C15.137,35.647 15.137,35.628 15.137,35.609 C15.109,35.590 15.080,35.571 15.051,35.551 C15.051,35.532 15.051,35.513 15.051,35.494 C15.023,35.475 14.994,35.456 14.965,35.437 C14.965,35.417 14.965,35.398 14.965,35.379 C14.937,35.360 14.908,35.341 14.879,35.322 C14.879,35.302 14.879,35.283 14.879,35.264 C14.860,35.255 14.841,35.245 14.822,35.235 C14.822,35.216 14.822,35.197 14.822,35.178 C14.794,35.159 14.765,35.140 14.736,35.120 C14.727,35.082 14.717,35.044 14.708,35.005 C14.689,34.996 14.669,34.986 14.650,34.977 C14.641,34.948 14.631,34.919 14.622,34.891 C14.612,34.891 14.603,34.891 14.593,34.891 C14.593,34.871 14.593,34.852 14.593,34.833 C14.584,34.833 14.574,34.833 14.564,34.833 C14.564,34.814 14.564,34.795 14.564,34.776 C14.545,34.766 14.526,34.756 14.507,34.747 C14.498,34.709 14.488,34.670 14.479,34.632 C14.460,34.622 14.440,34.613 14.421,34.603 C14.421,34.584 14.421,34.565 14.421,34.546 C14.412,34.546 14.402,34.546 14.393,34.546 C14.393,34.527 14.393,34.507 14.393,34.488 C14.383,34.488 14.374,34.488 14.364,34.488 C14.364,34.469 14.364,34.450 14.364,34.431 C14.355,34.431 14.345,34.431 14.335,34.431 C14.335,34.412 14.335,34.392 14.335,34.373 C14.326,34.373 14.316,34.373 14.307,34.373 C14.307,34.354 14.307,34.335 14.307,34.316 C14.297,34.316 14.288,34.316 14.278,34.316 C14.278,34.297 14.278,34.278 14.278,34.258 C14.269,34.258 14.259,34.258 14.250,34.258 C14.250,34.239 14.250,34.220 14.250,34.201 C14.240,34.201 14.230,34.201 14.221,34.201 C14.202,34.143 14.183,34.086 14.164,34.029 C14.154,34.029 14.145,34.029 14.135,34.029 C14.135,34.000 14.135,33.971 14.135,33.942 C14.125,33.942 14.116,33.942 14.106,33.942 C14.097,33.904 14.087,33.866 14.078,33.827 C14.068,33.827 14.059,33.827 14.049,33.827 C14.049,33.799 14.049,33.770 14.049,33.741 C14.040,33.741 14.030,33.741 14.020,33.741 C14.020,33.722 14.020,33.703 14.020,33.684 C14.011,33.684 14.001,33.684 13.992,33.684 C13.992,33.655 13.992,33.626 13.992,33.597 C13.982,33.597 13.973,33.597 13.963,33.597 C13.963,33.569 13.963,33.540 13.963,33.511 C13.954,33.511 13.944,33.511 13.935,33.511 C13.935,33.483 13.935,33.454 13.935,33.425 C13.925,33.425 13.915,33.425 13.906,33.425 C13.906,33.396 13.906,33.368 13.906,33.339 C13.896,33.339 13.887,33.339 13.877,33.339 C13.877,33.310 13.877,33.281 13.877,33.253 C13.632,32.626 13.505,31.877 13.505,31.011 C13.515,30.695 13.524,30.379 13.534,30.063 C13.543,30.063 13.553,30.063 13.562,30.063 C13.562,29.996 13.562,29.929 13.562,29.862 C13.572,29.862 13.581,29.862 13.591,29.862 C13.591,29.804 13.591,29.747 13.591,29.690 C13.601,29.690 13.610,29.690 13.620,29.690 C13.620,29.642 13.620,29.594 13.620,29.546 C13.629,29.546 13.639,29.546 13.648,29.546 C13.658,29.460 13.667,29.373 13.677,29.287 C13.686,29.287 13.696,29.287 13.705,29.287 C13.715,29.211 13.725,29.134 13.734,29.057 C13.744,29.057 13.753,29.057 13.763,29.057 C13.763,29.019 13.763,28.981 13.763,28.942 C13.772,28.942 13.782,28.942 13.791,28.942 C13.801,28.875 13.810,28.808 13.820,28.741 C13.830,28.741 13.839,28.741 13.849,28.741 C13.849,28.713 13.849,28.684 13.849,28.655 C13.858,28.655 13.868,28.655 13.877,28.655 C13.877,28.626 13.877,28.598 13.877,28.569 C13.887,28.569 13.896,28.569 13.906,28.569 C13.925,28.483 13.944,28.396 13.963,28.310 C13.973,28.310 13.982,28.310 13.992,28.310 C13.992,28.291 13.992,28.272 13.992,28.253 C14.001,28.253 14.011,28.253 14.020,28.253 C14.020,28.224 14.020,28.195 14.020,28.167 C14.030,28.167 14.040,28.167 14.049,28.167 C14.049,28.147 14.049,28.128 14.049,28.109 C14.059,28.109 14.068,28.109 14.078,28.109 C14.078,28.080 14.078,28.052 14.078,28.023 C14.087,28.023 14.097,28.023 14.106,28.023 C14.116,27.985 14.125,27.946 14.135,27.908 C14.145,27.908 14.154,27.908 14.164,27.908 C14.164,27.889 14.164,27.870 14.164,27.850 C14.173,27.850 14.183,27.850 14.192,27.850 C14.192,27.822 14.192,27.793 14.192,27.764 C14.202,27.764 14.211,27.764 14.221,27.764 C14.240,27.707 14.259,27.649 14.278,27.592 C14.288,27.592 14.297,27.592 14.307,27.592 C14.307,27.573 14.307,27.554 14.307,27.534 C14.316,27.534 14.326,27.534 14.335,27.534 C14.345,27.496 14.355,27.458 14.364,27.419 C14.383,27.410 14.402,27.400 14.421,27.391 C14.440,27.333 14.460,27.276 14.479,27.218 C14.498,27.209 14.517,27.199 14.536,27.190 C14.545,27.151 14.555,27.113 14.564,27.075 C14.584,27.065 14.603,27.055 14.622,27.046 C14.631,27.008 14.641,26.969 14.650,26.931 C14.660,26.931 14.669,26.931 14.679,26.931 C14.689,26.902 14.698,26.873 14.708,26.845 C14.727,26.835 14.746,26.826 14.765,26.816 C14.765,26.797 14.765,26.778 14.765,26.759 C14.794,26.739 14.822,26.720 14.851,26.701 C14.851,26.682 14.851,26.663 14.851,26.644 C14.870,26.634 14.889,26.624 14.908,26.615 C14.908,26.596 14.908,26.577 14.908,26.557 C14.927,26.548 14.946,26.538 14.965,26.529 C14.975,26.500 14.984,26.471 14.994,26.442 C15.023,26.423 15.051,26.404 15.080,26.385 C15.080,26.366 15.080,26.347 15.080,26.328 C15.118,26.299 15.156,26.270 15.194,26.241 C15.194,26.222 15.194,26.203 15.194,26.184 C15.252,26.136 15.309,26.088 15.366,26.040 C15.366,26.021 15.366,26.002 15.366,25.983 C15.423,25.935 15.481,25.887 15.538,25.839 C15.691,25.676 15.843,25.513 15.996,25.351 C16.015,25.351 16.034,25.351 16.053,25.351 C16.101,25.293 16.149,25.236 16.197,25.178 C16.216,25.178 16.235,25.178 16.254,25.178 C16.282,25.140 16.311,25.102 16.340,25.063 C16.359,25.063 16.378,25.063 16.397,25.063 C16.416,25.034 16.435,25.006 16.454,24.977 C16.473,24.977 16.492,24.977 16.512,24.977 C16.531,24.948 16.550,24.920 16.569,24.891 C16.588,24.891 16.607,24.891 16.626,24.891 C16.636,24.872 16.645,24.852 16.655,24.833 C16.683,24.824 16.712,24.814 16.741,24.805 C16.741,24.795 16.741,24.785 16.741,24.776 C16.760,24.776 16.779,24.776 16.798,24.776 C16.807,24.757 16.817,24.738 16.827,24.718 C16.846,24.718 16.865,24.718 16.884,24.718 C16.893,24.699 16.903,24.680 16.912,24.661 C16.932,24.661 16.951,24.661 16.970,24.661 C16.979,24.642 16.989,24.623 16.998,24.603 C17.017,24.603 17.037,24.603 17.056,24.603 C17.065,24.584 17.075,24.565 17.084,24.546 C17.122,24.536 17.161,24.527 17.199,24.517 C17.208,24.498 17.218,24.479 17.227,24.460 C17.246,24.460 17.266,24.460 17.285,24.460 C17.285,24.450 17.285,24.441 17.285,24.431 C17.304,24.431 17.323,24.431 17.342,24.431 C17.342,24.421 17.342,24.412 17.342,24.402 C17.361,24.402 17.380,24.402 17.399,24.402 C17.399,24.393 17.399,24.383 17.399,24.374 C17.418,24.374 17.437,24.374 17.456,24.374 C17.456,24.364 17.456,24.354 17.456,24.345 C17.476,24.345 17.495,24.345 17.514,24.345 C17.523,24.326 17.533,24.307 17.542,24.287 C17.561,24.287 17.581,24.287 17.600,24.287 C17.600,24.278 17.600,24.268 17.600,24.259 C17.638,24.249 17.676,24.239 17.714,24.230 C17.714,24.220 17.714,24.211 17.714,24.201 C17.743,24.201 17.771,24.201 17.800,24.201 C17.800,24.192 17.800,24.182 17.800,24.172 C17.819,24.172 17.838,24.172 17.857,24.172 C17.857,24.163 17.857,24.153 17.857,24.144 C17.895,24.134 17.934,24.125 17.972,24.115 C17.972,24.105 17.972,24.096 17.972,24.086 C18.000,24.086 18.029,24.086 18.058,24.086 C18.058,24.077 18.058,24.067 18.058,24.057 C18.077,24.057 18.096,24.057 18.115,24.057 C18.115,24.048 18.115,24.038 18.115,24.029 C18.163,24.019 18.210,24.010 18.258,24.000 C18.258,23.990 18.258,23.981 18.258,23.971 C18.315,23.962 18.373,23.952 18.430,23.943 C18.430,23.933 18.430,23.923 18.430,23.914 C18.449,23.914 18.468,23.914 18.487,23.914 C18.487,23.904 18.487,23.895 18.487,23.885 C18.583,23.866 18.678,23.847 18.774,23.828 C18.774,23.818 18.774,23.808 18.774,23.799 C18.802,23.799 18.831,23.799 18.859,23.799 C18.859,23.789 18.859,23.780 18.859,23.770 C18.898,23.770 18.936,23.770 18.974,23.770 C18.974,23.761 18.974,23.751 18.974,23.741 C19.012,23.741 19.050,23.741 19.089,23.741 C19.089,23.732 19.089,23.722 19.089,23.713 C19.127,23.713 19.165,23.713 19.203,23.713 C19.203,23.703 19.203,23.693 19.203,23.684 C19.241,23.684 19.279,23.684 19.318,23.684 C19.318,23.674 19.318,23.665 19.318,23.655 C19.356,23.655 19.394,23.655 19.432,23.655 C19.432,23.646 19.432,23.636 19.432,23.626 C19.757,23.579 20.081,23.531 20.406,23.483 ZM20.577,27.276 C20.577,27.285 20.577,27.295 20.577,27.305 C20.396,27.324 20.215,27.343 20.033,27.362 C20.033,27.372 20.033,27.381 20.033,27.391 C20.005,27.391 19.976,27.391 19.948,27.391 C19.948,27.400 19.948,27.410 19.948,27.419 C19.919,27.419 19.890,27.419 19.862,27.419 C19.862,27.429 19.862,27.439 19.862,27.448 C19.833,27.448 19.804,27.448 19.776,27.448 C19.776,27.458 19.776,27.467 19.776,27.477 C19.718,27.487 19.661,27.496 19.604,27.506 C19.604,27.515 19.604,27.525 19.604,27.534 C19.566,27.544 19.528,27.554 19.489,27.563 C19.489,27.573 19.489,27.582 19.489,27.592 C19.470,27.592 19.451,27.592 19.432,27.592 C19.432,27.601 19.432,27.611 19.432,27.621 C19.404,27.621 19.375,27.621 19.346,27.621 C19.346,27.630 19.346,27.640 19.346,27.649 C19.327,27.649 19.308,27.649 19.289,27.649 C19.289,27.659 19.289,27.669 19.289,27.678 C19.270,27.678 19.251,27.678 19.232,27.678 C19.222,27.697 19.213,27.716 19.203,27.736 C19.146,27.755 19.089,27.774 19.031,27.793 C19.031,27.803 19.031,27.812 19.031,27.822 C19.003,27.831 18.974,27.841 18.945,27.850 C18.936,27.870 18.926,27.889 18.917,27.908 C18.898,27.908 18.879,27.908 18.859,27.908 C18.850,27.927 18.840,27.946 18.831,27.965 C18.812,27.965 18.793,27.965 18.774,27.965 C18.755,27.994 18.735,28.023 18.716,28.052 C18.697,28.052 18.678,28.052 18.659,28.052 C18.611,28.109 18.564,28.167 18.516,28.224 C18.497,28.224 18.478,28.224 18.459,28.224 C18.401,28.291 18.344,28.358 18.287,28.425 C18.258,28.444 18.230,28.464 18.201,28.483 C18.201,28.502 18.201,28.521 18.201,28.540 C18.153,28.578 18.105,28.617 18.058,28.655 C18.048,28.684 18.039,28.713 18.029,28.741 C18.010,28.751 17.991,28.760 17.972,28.770 C17.972,28.789 17.972,28.808 17.972,28.827 C17.953,28.837 17.934,28.847 17.915,28.856 C17.905,28.885 17.896,28.914 17.886,28.942 C17.876,28.942 17.867,28.942 17.857,28.942 C17.857,28.962 17.857,28.981 17.857,29.000 C17.838,29.009 17.819,29.019 17.800,29.029 C17.791,29.067 17.781,29.105 17.771,29.144 C17.752,29.153 17.733,29.163 17.714,29.172 C17.705,29.211 17.695,29.249 17.686,29.287 C17.676,29.287 17.666,29.287 17.657,29.287 C17.638,29.345 17.619,29.402 17.600,29.460 C17.590,29.460 17.581,29.460 17.571,29.460 C17.571,29.488 17.571,29.517 17.571,29.546 C17.561,29.546 17.552,29.546 17.542,29.546 C17.542,29.565 17.542,29.584 17.542,29.603 C17.533,29.603 17.523,29.603 17.514,29.603 C17.514,29.632 17.514,29.661 17.514,29.690 C17.504,29.690 17.495,29.690 17.485,29.690 C17.485,29.709 17.485,29.728 17.485,29.747 C17.476,29.747 17.466,29.747 17.456,29.747 C17.456,29.776 17.456,29.804 17.456,29.833 C17.447,29.833 17.437,29.833 17.428,29.833 C17.428,29.862 17.428,29.891 17.428,29.919 C17.418,29.919 17.409,29.919 17.399,29.919 C17.399,29.958 17.399,29.996 17.399,30.034 C17.390,30.034 17.380,30.034 17.371,30.034 C17.371,30.073 17.371,30.111 17.371,30.149 C17.361,30.149 17.351,30.149 17.342,30.149 C17.342,30.207 17.342,30.264 17.342,30.322 C17.332,30.322 17.323,30.322 17.313,30.322 C17.313,30.398 17.313,30.475 17.313,30.552 C17.240,30.814 17.275,31.357 17.342,31.586 C17.351,31.691 17.361,31.797 17.371,31.902 C17.380,31.902 17.390,31.902 17.399,31.902 C17.399,31.931 17.399,31.960 17.399,31.988 C17.409,31.988 17.418,31.988 17.428,31.988 C17.428,32.017 17.428,32.046 17.428,32.075 C17.437,32.075 17.447,32.075 17.456,32.075 C17.466,32.132 17.476,32.189 17.485,32.247 C17.495,32.247 17.504,32.247 17.514,32.247 C17.514,32.266 17.514,32.285 17.514,32.304 C17.523,32.304 17.533,32.304 17.542,32.304 C17.542,32.333 17.542,32.362 17.542,32.391 C17.552,32.391 17.561,32.391 17.571,32.391 C17.581,32.429 17.590,32.467 17.600,32.506 C17.609,32.506 17.619,32.506 17.628,32.506 C17.628,32.525 17.628,32.544 17.628,32.563 C17.638,32.563 17.647,32.563 17.657,32.563 C17.657,32.582 17.657,32.601 17.657,32.620 C17.666,32.620 17.676,32.620 17.686,32.620 C17.686,32.640 17.686,32.659 17.686,32.678 C17.695,32.678 17.705,32.678 17.714,32.678 C17.714,32.697 17.714,32.716 17.714,32.735 C17.724,32.735 17.733,32.735 17.743,32.735 C17.743,32.755 17.743,32.774 17.743,32.793 C17.752,32.793 17.762,32.793 17.771,32.793 C17.771,32.812 17.771,32.831 17.771,32.850 C17.791,32.860 17.810,32.870 17.829,32.879 C17.829,32.898 17.829,32.917 17.829,32.937 C17.848,32.946 17.867,32.956 17.886,32.965 C17.886,32.984 17.886,33.004 17.886,33.023 C17.896,33.023 17.905,33.023 17.915,33.023 C17.924,33.052 17.934,33.080 17.943,33.109 C17.962,33.119 17.981,33.128 18.000,33.138 C18.000,33.157 18.000,33.176 18.000,33.195 C18.039,33.224 18.077,33.253 18.115,33.281 C18.125,33.310 18.134,33.339 18.144,33.368 C18.210,33.425 18.277,33.483 18.344,33.540 C18.420,33.626 18.497,33.712 18.573,33.799 C18.592,33.799 18.611,33.799 18.630,33.799 C18.659,33.837 18.688,33.875 18.716,33.914 C18.735,33.914 18.755,33.914 18.774,33.914 C18.783,33.933 18.793,33.952 18.802,33.971 C18.831,33.981 18.859,33.990 18.888,34.000 C18.888,34.009 18.888,34.019 18.888,34.029 C18.907,34.029 18.926,34.029 18.945,34.029 C18.955,34.048 18.964,34.067 18.974,34.086 C18.993,34.086 19.012,34.086 19.031,34.086 C19.041,34.105 19.050,34.124 19.060,34.143 C19.079,34.143 19.098,34.143 19.117,34.143 C19.117,34.153 19.117,34.163 19.117,34.172 C19.136,34.172 19.155,34.172 19.174,34.172 C19.174,34.182 19.174,34.191 19.174,34.201 C19.194,34.201 19.213,34.201 19.232,34.201 C19.232,34.210 19.232,34.220 19.232,34.230 C19.251,34.230 19.270,34.230 19.289,34.230 C19.289,34.239 19.289,34.249 19.289,34.258 C19.308,34.258 19.327,34.258 19.346,34.258 C19.346,34.268 19.346,34.278 19.346,34.287 C19.365,34.287 19.384,34.287 19.404,34.287 C19.404,34.297 19.404,34.306 19.404,34.316 C19.461,34.335 19.518,34.354 19.575,34.373 C19.575,34.383 19.575,34.392 19.575,34.402 C19.633,34.412 19.690,34.421 19.747,34.431 C19.747,34.440 19.747,34.450 19.747,34.460 C19.766,34.460 19.785,34.460 19.804,34.460 C19.804,34.469 19.804,34.479 19.804,34.488 C19.871,34.498 19.938,34.507 20.005,34.517 C20.287,34.612 20.585,34.632 20.978,34.632 C21.131,34.632 21.284,34.632 21.436,34.632 C21.436,34.622 21.436,34.613 21.436,34.603 C21.503,34.603 21.570,34.603 21.637,34.603 C21.637,34.594 21.637,34.584 21.637,34.574 C21.685,34.574 21.732,34.574 21.780,34.574 C21.780,34.565 21.780,34.555 21.780,34.546 C21.818,34.546 21.856,34.546 21.895,34.546 C21.895,34.536 21.895,34.527 21.895,34.517 C21.933,34.517 21.971,34.517 22.009,34.517 C22.009,34.507 22.009,34.498 22.009,34.488 C22.066,34.479 22.124,34.469 22.181,34.460 C22.181,34.450 22.181,34.440 22.181,34.431 C22.200,34.431 22.219,34.431 22.238,34.431 C22.238,34.421 22.238,34.412 22.238,34.402 C22.267,34.402 22.295,34.402 22.324,34.402 C22.324,34.392 22.324,34.383 22.324,34.373 C22.362,34.364 22.400,34.354 22.439,34.345 C22.439,34.335 22.439,34.325 22.439,34.316 C22.467,34.316 22.496,34.316 22.525,34.316 C22.525,34.306 22.525,34.297 22.525,34.287 C22.563,34.278 22.601,34.268 22.639,34.258 C22.639,34.249 22.639,34.239 22.639,34.230 C22.658,34.230 22.677,34.230 22.696,34.230 C22.706,34.210 22.715,34.191 22.725,34.172 C22.782,34.153 22.840,34.134 22.897,34.115 C22.897,34.105 22.897,34.096 22.897,34.086 C22.925,34.076 22.954,34.067 22.983,34.057 C22.992,34.038 23.002,34.019 23.011,34.000 C23.030,34.000 23.049,34.000 23.069,34.000 C23.088,33.971 23.107,33.942 23.126,33.914 C23.145,33.914 23.164,33.914 23.183,33.914 C23.202,33.885 23.221,33.856 23.240,33.827 C23.259,33.827 23.279,33.827 23.298,33.827 C23.374,33.741 23.450,33.655 23.527,33.569 C23.622,33.483 23.718,33.396 23.813,33.310 C23.813,33.291 23.813,33.272 23.813,33.253 C23.842,33.234 23.870,33.214 23.899,33.195 C23.908,33.166 23.918,33.138 23.928,33.109 C23.947,33.099 23.966,33.090 23.985,33.080 C23.985,33.061 23.985,33.042 23.985,33.023 C24.004,33.013 24.023,33.004 24.042,32.994 C24.052,32.956 24.061,32.917 24.071,32.879 C24.090,32.870 24.109,32.860 24.128,32.850 C24.147,32.793 24.166,32.735 24.185,32.678 C24.204,32.668 24.223,32.659 24.243,32.649 C24.252,32.601 24.262,32.553 24.271,32.506 C24.281,32.506 24.290,32.506 24.300,32.506 C24.300,32.486 24.300,32.467 24.300,32.448 C24.309,32.448 24.319,32.448 24.328,32.448 C24.338,32.410 24.348,32.371 24.357,32.333 C24.367,32.333 24.376,32.333 24.386,32.333 C24.453,32.103 24.519,31.873 24.586,31.644 C24.586,31.567 24.586,31.490 24.586,31.414 C24.663,31.139 24.628,30.533 24.558,30.293 C24.548,30.197 24.538,30.101 24.529,30.006 C24.519,30.006 24.510,30.006 24.500,30.006 C24.500,29.977 24.500,29.948 24.500,29.919 C24.491,29.919 24.481,29.919 24.472,29.919 C24.472,29.891 24.472,29.862 24.472,29.833 C24.462,29.833 24.453,29.833 24.443,29.833 C24.433,29.776 24.424,29.718 24.414,29.661 C24.405,29.661 24.395,29.661 24.386,29.661 C24.386,29.642 24.386,29.622 24.386,29.603 C24.376,29.603 24.367,29.603 24.357,29.603 C24.357,29.575 24.357,29.546 24.357,29.517 C24.348,29.517 24.338,29.517 24.328,29.517 C24.309,29.460 24.290,29.402 24.271,29.345 C24.262,29.345 24.252,29.345 24.243,29.345 C24.243,29.326 24.243,29.306 24.243,29.287 C24.233,29.287 24.223,29.287 24.214,29.287 C24.195,29.230 24.176,29.172 24.157,29.115 C24.138,29.105 24.118,29.096 24.099,29.086 C24.090,29.048 24.080,29.009 24.071,28.971 C24.061,28.971 24.052,28.971 24.042,28.971 C24.033,28.942 24.023,28.914 24.013,28.885 C23.994,28.875 23.975,28.866 23.956,28.856 C23.956,28.837 23.956,28.818 23.956,28.799 C23.937,28.789 23.918,28.780 23.899,28.770 C23.889,28.741 23.880,28.713 23.870,28.684 C23.823,28.645 23.775,28.607 23.727,28.569 C23.306,27.984 22.619,27.614 21.866,27.362 C21.818,27.362 21.771,27.362 21.723,27.362 C21.410,27.267 20.993,27.276 20.577,27.276 ZM29.368,27.276 C29.148,27.314 28.929,27.352 28.709,27.391 C28.709,27.400 28.709,27.410 28.709,27.419 C28.623,27.439 28.538,27.458 28.452,27.477 C28.452,27.487 28.452,27.496 28.452,27.506 C28.433,27.506 28.413,27.506 28.394,27.506 C28.394,27.515 28.394,27.525 28.394,27.534 C28.366,27.534 28.337,27.534 28.308,27.534 C28.308,27.544 28.308,27.554 28.308,27.563 C28.289,27.563 28.270,27.563 28.251,27.563 C28.251,27.573 28.251,27.582 28.251,27.592 C28.232,27.592 28.213,27.592 28.194,27.592 C28.194,27.601 28.194,27.611 28.194,27.621 C28.175,27.621 28.156,27.621 28.137,27.621 C28.137,27.630 28.137,27.640 28.137,27.649 C28.118,27.649 28.098,27.649 28.079,27.649 C28.079,27.659 28.079,27.669 28.079,27.678 C28.060,27.678 28.041,27.678 28.022,27.678 C27.927,27.736 27.831,27.793 27.736,27.850 C27.860,28.176 27.984,28.502 28.108,28.827 C28.108,28.866 28.108,28.904 28.108,28.942 C28.118,28.942 28.127,28.942 28.137,28.942 C28.137,28.971 28.137,29.000 28.137,29.029 C28.146,29.029 28.156,29.029 28.165,29.029 C28.165,29.067 28.165,29.105 28.165,29.144 C28.175,29.144 28.184,29.144 28.194,29.144 C28.194,29.191 28.194,29.239 28.194,29.287 C28.203,29.287 28.213,29.287 28.223,29.287 C28.223,29.326 28.223,29.364 28.223,29.402 C28.232,29.402 28.242,29.402 28.251,29.402 C28.251,29.440 28.251,29.479 28.251,29.517 C28.261,29.517 28.270,29.517 28.280,29.517 C28.280,29.565 28.280,29.613 28.280,29.661 C28.289,29.661 28.299,29.661 28.308,29.661 C28.308,29.718 28.308,29.776 28.308,29.833 C28.318,29.833 28.328,29.833 28.337,29.833 C28.337,29.900 28.337,29.967 28.337,30.034 C28.347,30.034 28.356,30.034 28.366,30.034 C28.366,30.121 28.366,30.207 28.366,30.293 C28.375,30.293 28.385,30.293 28.394,30.293 C28.394,30.427 28.394,30.561 28.394,30.695 C28.412,30.804 28.466,31.062 28.423,31.212 C28.413,31.212 28.404,31.212 28.394,31.212 C28.394,31.308 28.394,31.404 28.394,31.500 C28.375,31.691 28.356,31.883 28.337,32.075 C28.328,32.075 28.318,32.075 28.308,32.075 C28.308,32.132 28.308,32.189 28.308,32.247 C28.299,32.247 28.289,32.247 28.280,32.247 C28.280,32.295 28.280,32.343 28.280,32.391 C28.270,32.391 28.261,32.391 28.251,32.391 C28.251,32.439 28.251,32.486 28.251,32.534 C28.156,32.869 28.060,33.205 27.965,33.540 C27.955,33.540 27.946,33.540 27.936,33.540 C27.936,33.559 27.936,33.578 27.936,33.597 C27.927,33.597 27.917,33.597 27.908,33.597 C27.908,33.626 27.908,33.655 27.908,33.684 C27.898,33.684 27.889,33.684 27.879,33.684 C27.879,33.703 27.879,33.722 27.879,33.741 C27.869,33.741 27.860,33.741 27.850,33.741 C27.850,33.770 27.850,33.799 27.850,33.827 C27.841,33.827 27.831,33.827 27.822,33.827 C27.803,33.894 27.784,33.961 27.764,34.029 C27.755,34.029 27.745,34.029 27.736,34.029 C27.723,34.067 27.746,34.033 27.764,34.057 C27.825,34.150 27.897,34.149 27.994,34.201 C27.994,34.210 27.994,34.220 27.994,34.230 C28.013,34.230 28.032,34.230 28.051,34.230 C28.051,34.239 28.051,34.249 28.051,34.258 C28.070,34.258 28.089,34.258 28.108,34.258 C28.108,34.268 28.108,34.278 28.108,34.287 C28.127,34.287 28.146,34.287 28.165,34.287 C28.165,34.297 28.165,34.306 28.165,34.316 C28.184,34.316 28.203,34.316 28.223,34.316 C28.223,34.325 28.223,34.335 28.223,34.345 C28.242,34.345 28.261,34.345 28.280,34.345 C28.280,34.354 28.280,34.364 28.280,34.373 C28.308,34.373 28.337,34.373 28.366,34.373 C28.366,34.383 28.366,34.392 28.366,34.402 C28.385,34.402 28.404,34.402 28.423,34.402 C28.423,34.412 28.423,34.421 28.423,34.431 C28.452,34.431 28.480,34.431 28.509,34.431 C28.509,34.440 28.509,34.450 28.509,34.460 C28.538,34.460 28.566,34.460 28.595,34.460 C28.595,34.469 28.595,34.479 28.595,34.488 C28.623,34.488 28.652,34.488 28.681,34.488 C28.681,34.498 28.681,34.507 28.681,34.517 C28.709,34.517 28.738,34.517 28.767,34.517 C28.767,34.527 28.767,34.536 28.767,34.546 C28.805,34.546 28.843,34.546 28.881,34.546 C28.881,34.555 28.881,34.565 28.881,34.574 C28.938,34.574 28.996,34.574 29.053,34.574 C29.053,34.584 29.053,34.594 29.053,34.603 C29.120,34.603 29.187,34.603 29.253,34.603 C29.253,34.613 29.253,34.622 29.253,34.632 C29.578,34.632 29.902,34.632 30.227,34.632 C30.227,34.622 30.227,34.613 30.227,34.603 C30.294,34.603 30.361,34.603 30.427,34.603 C30.427,34.594 30.427,34.584 30.427,34.574 C30.475,34.574 30.523,34.574 30.570,34.574 C30.570,34.565 30.570,34.555 30.570,34.546 C30.609,34.546 30.647,34.546 30.685,34.546 C30.685,34.536 30.685,34.527 30.685,34.517 C30.714,34.517 30.742,34.517 30.771,34.517 C30.771,34.507 30.771,34.498 30.771,34.488 C30.800,34.488 30.828,34.488 30.857,34.488 C30.857,34.479 30.857,34.469 30.857,34.460 C30.885,34.460 30.914,34.460 30.943,34.460 C30.943,34.450 30.943,34.440 30.943,34.431 C30.971,34.431 31.000,34.431 31.029,34.431 C31.029,34.421 31.029,34.412 31.029,34.402 C31.048,34.402 31.067,34.402 31.086,34.402 C31.086,34.392 31.086,34.383 31.086,34.373 C31.115,34.373 31.143,34.373 31.172,34.373 C31.172,34.364 31.172,34.354 31.172,34.345 C31.229,34.325 31.286,34.306 31.344,34.287 C31.344,34.278 31.344,34.268 31.344,34.258 C31.363,34.258 31.382,34.258 31.401,34.258 C31.401,34.249 31.401,34.239 31.401,34.230 C31.420,34.230 31.439,34.230 31.458,34.230 C31.458,34.220 31.458,34.210 31.458,34.201 C31.515,34.182 31.573,34.163 31.630,34.143 C31.630,34.134 31.630,34.124 31.630,34.115 C31.659,34.105 31.687,34.096 31.716,34.086 C31.725,34.067 31.735,34.048 31.744,34.029 C31.764,34.029 31.783,34.029 31.802,34.029 C31.811,34.009 31.821,33.990 31.830,33.971 C31.849,33.971 31.869,33.971 31.888,33.971 C31.907,33.942 31.926,33.914 31.945,33.885 C31.964,33.885 31.983,33.885 32.002,33.885 C32.031,33.847 32.059,33.808 32.088,33.770 C32.107,33.770 32.126,33.770 32.145,33.770 C32.222,33.684 32.298,33.597 32.374,33.511 C32.422,33.473 32.470,33.435 32.518,33.396 C32.518,33.377 32.518,33.358 32.518,33.339 C32.565,33.301 32.613,33.262 32.661,33.224 C32.661,33.205 32.661,33.186 32.661,33.166 C32.680,33.157 32.699,33.147 32.718,33.138 C32.718,33.119 32.718,33.099 32.718,33.080 C32.747,33.061 32.775,33.042 32.804,33.023 C32.813,32.984 32.823,32.946 32.833,32.908 C32.852,32.898 32.871,32.889 32.890,32.879 C32.899,32.841 32.909,32.802 32.918,32.764 C32.938,32.755 32.957,32.745 32.976,32.735 C32.985,32.697 32.995,32.659 33.004,32.620 C33.014,32.620 33.023,32.620 33.033,32.620 C33.052,32.563 33.071,32.506 33.090,32.448 C33.100,32.448 33.109,32.448 33.119,32.448 C33.119,32.419 33.119,32.391 33.119,32.362 C33.128,32.362 33.138,32.362 33.147,32.362 C33.147,32.343 33.147,32.324 33.147,32.304 C33.157,32.304 33.167,32.304 33.176,32.304 C33.176,32.276 33.176,32.247 33.176,32.218 C33.186,32.218 33.195,32.218 33.205,32.218 C33.205,32.189 33.205,32.161 33.205,32.132 C33.214,32.132 33.224,32.132 33.233,32.132 C33.233,32.103 33.233,32.075 33.233,32.046 C33.243,32.046 33.252,32.046 33.262,32.046 C33.262,32.017 33.262,31.988 33.262,31.960 C33.272,31.960 33.281,31.960 33.291,31.960 C33.291,31.931 33.291,31.902 33.291,31.873 C33.300,31.873 33.310,31.873 33.319,31.873 C33.338,31.682 33.357,31.490 33.377,31.299 C33.386,31.299 33.396,31.299 33.405,31.299 C33.447,31.150 33.407,30.717 33.377,30.609 C33.377,30.523 33.377,30.437 33.377,30.350 C33.367,30.350 33.357,30.350 33.348,30.350 C33.348,30.293 33.348,30.235 33.348,30.178 C33.338,30.178 33.329,30.178 33.319,30.178 C33.319,30.140 33.319,30.101 33.319,30.063 C33.310,30.063 33.300,30.063 33.291,30.063 C33.291,30.025 33.291,29.986 33.291,29.948 C33.281,29.948 33.272,29.948 33.262,29.948 C33.262,29.919 33.262,29.891 33.262,29.862 C33.252,29.862 33.243,29.862 33.233,29.862 C33.233,29.833 33.233,29.804 33.233,29.776 C33.224,29.776 33.214,29.776 33.205,29.776 C33.205,29.747 33.205,29.718 33.205,29.690 C33.195,29.690 33.186,29.690 33.176,29.690 C33.176,29.670 33.176,29.651 33.176,29.632 C33.167,29.632 33.157,29.632 33.147,29.632 C33.147,29.603 33.147,29.575 33.147,29.546 C33.138,29.546 33.128,29.546 33.119,29.546 C33.100,29.488 33.081,29.431 33.062,29.373 C33.052,29.373 33.043,29.373 33.033,29.373 C33.033,29.354 33.033,29.335 33.033,29.316 C33.023,29.316 33.014,29.316 33.004,29.316 C33.004,29.297 33.004,29.278 33.004,29.259 C32.995,29.259 32.985,29.259 32.976,29.259 C32.976,29.239 32.976,29.220 32.976,29.201 C32.966,29.201 32.957,29.201 32.947,29.201 C32.947,29.182 32.947,29.163 32.947,29.144 C32.938,29.144 32.928,29.144 32.918,29.144 C32.918,29.124 32.918,29.105 32.918,29.086 C32.899,29.077 32.880,29.067 32.861,29.057 C32.852,29.019 32.842,28.981 32.833,28.942 C32.813,28.933 32.794,28.923 32.775,28.914 C32.775,28.895 32.775,28.875 32.775,28.856 C32.747,28.837 32.718,28.818 32.689,28.799 C32.689,28.780 32.689,28.760 32.689,28.741 C32.661,28.722 32.632,28.703 32.603,28.684 C32.603,28.665 32.603,28.645 32.603,28.626 C32.537,28.569 32.470,28.511 32.403,28.454 C32.403,28.435 32.403,28.416 32.403,28.396 C32.384,28.387 32.365,28.377 32.346,28.368 C32.327,28.339 32.308,28.310 32.288,28.282 C32.269,28.282 32.250,28.282 32.231,28.282 C32.174,28.214 32.117,28.147 32.059,28.080 C32.040,28.080 32.021,28.080 32.002,28.080 C31.983,28.052 31.964,28.023 31.945,27.994 C31.916,27.985 31.888,27.975 31.859,27.965 C31.849,27.946 31.840,27.927 31.830,27.908 C31.811,27.908 31.792,27.908 31.773,27.908 C31.764,27.889 31.754,27.870 31.744,27.850 C31.706,27.841 31.668,27.831 31.630,27.822 C31.620,27.803 31.611,27.783 31.601,27.764 C31.544,27.745 31.487,27.726 31.429,27.707 C31.429,27.697 31.429,27.688 31.429,27.678 C31.410,27.678 31.391,27.678 31.372,27.678 C31.372,27.669 31.372,27.659 31.372,27.649 C31.353,27.649 31.334,27.649 31.315,27.649 C31.315,27.640 31.315,27.630 31.315,27.621 C31.258,27.601 31.200,27.582 31.143,27.563 C31.143,27.554 31.143,27.544 31.143,27.534 C31.115,27.534 31.086,27.534 31.057,27.534 C31.057,27.525 31.057,27.515 31.057,27.506 C31.038,27.506 31.019,27.506 31.000,27.506 C31.000,27.496 31.000,27.487 31.000,27.477 C30.971,27.477 30.943,27.477 30.914,27.477 C30.914,27.467 30.914,27.458 30.914,27.448 C30.885,27.448 30.857,27.448 30.828,27.448 C30.828,27.439 30.828,27.429 30.828,27.419 C30.800,27.419 30.771,27.419 30.742,27.419 C30.742,27.410 30.742,27.400 30.742,27.391 C30.714,27.391 30.685,27.391 30.656,27.391 C30.656,27.381 30.656,27.372 30.656,27.362 C30.609,27.362 30.561,27.362 30.513,27.362 C30.200,27.267 29.783,27.276 29.368,27.276 Z"/>
</svg>