<svg 
 xmlns="http://www.w3.org/2000/svg"
 xmlns:xlink="http://www.w3.org/1999/xlink"
 width="13px" height="7px">
<path fill-rule="evenodd"  fill="rgb(202, 178, 139)"
 d="M0.604,0.001 C0.767,-0.001 0.884,0.029 0.982,0.090 C0.990,0.092 0.998,0.094 1.006,0.096 C1.008,0.100 1.010,0.104 1.012,0.108 C1.016,0.108 1.020,0.108 1.024,0.108 C1.026,0.112 1.028,0.116 1.030,0.120 C1.034,0.120 1.038,0.120 1.042,0.120 C1.046,0.126 1.051,0.132 1.055,0.138 C1.120,0.183 1.169,0.238 1.225,0.293 C1.256,0.321 1.286,0.348 1.317,0.376 C1.396,0.456 1.475,0.535 1.554,0.614 C1.597,0.654 1.640,0.694 1.682,0.733 C1.784,0.835 1.885,0.936 1.987,1.037 C2.064,1.111 2.141,1.184 2.218,1.257 C2.218,1.261 2.218,1.265 2.218,1.269 C3.286,2.311 4.355,3.354 5.423,4.396 C5.610,4.580 5.797,4.765 5.984,4.950 C6.061,5.023 6.138,5.097 6.215,5.170 C6.274,5.230 6.333,5.289 6.392,5.349 C6.400,5.355 6.408,5.361 6.416,5.367 C6.439,5.388 6.472,5.439 6.508,5.444 C8.037,3.947 9.566,2.450 11.095,0.954 C11.162,0.890 11.229,0.827 11.297,0.763 C11.311,0.747 11.325,0.731 11.339,0.716 C11.386,0.670 11.434,0.631 11.473,0.579 C11.548,0.507 11.623,0.436 11.699,0.364 C11.763,0.302 11.819,0.232 11.894,0.180 C11.906,0.166 11.918,0.152 11.930,0.138 C11.934,0.138 11.938,0.138 11.942,0.138 C11.946,0.132 11.950,0.126 11.955,0.120 C11.959,0.120 11.963,0.120 11.967,0.120 C11.969,0.116 11.971,0.112 11.973,0.108 C11.977,0.108 11.981,0.108 11.985,0.108 C11.987,0.104 11.989,0.100 11.991,0.096 C11.999,0.094 12.007,0.092 12.015,0.090 C12.017,0.086 12.020,0.082 12.022,0.078 C12.030,0.076 12.038,0.074 12.046,0.072 C12.046,0.070 12.046,0.068 12.046,0.066 C12.054,0.064 12.062,0.062 12.070,0.060 C12.070,0.058 12.070,0.057 12.070,0.055 C12.076,0.055 12.082,0.055 12.089,0.055 C12.089,0.053 12.089,0.051 12.089,0.049 C12.093,0.049 12.097,0.049 12.101,0.049 C12.101,0.047 12.101,0.045 12.101,0.043 C12.107,0.043 12.113,0.043 12.119,0.043 C12.119,0.041 12.119,0.039 12.119,0.037 C12.125,0.037 12.131,0.037 12.137,0.037 C12.137,0.035 12.137,0.033 12.137,0.031 C12.143,0.031 12.149,0.031 12.156,0.031 C12.156,0.029 12.156,0.027 12.156,0.025 C12.164,0.025 12.172,0.025 12.180,0.025 C12.180,0.023 12.180,0.021 12.180,0.019 C12.188,0.019 12.196,0.019 12.204,0.019 C12.204,0.017 12.204,0.015 12.204,0.013 C12.214,0.013 12.225,0.013 12.235,0.013 C12.235,0.011 12.235,0.009 12.235,0.007 C12.251,0.007 12.267,0.007 12.284,0.007 C12.330,-0.006 12.407,0.001 12.448,0.013 C12.458,0.013 12.468,0.013 12.478,0.013 C12.478,0.015 12.478,0.017 12.478,0.019 C12.487,0.019 12.495,0.019 12.503,0.019 C12.503,0.021 12.503,0.023 12.503,0.025 C12.511,0.025 12.519,0.025 12.527,0.025 C12.527,0.027 12.527,0.029 12.527,0.031 C12.533,0.031 12.539,0.031 12.546,0.031 C12.546,0.033 12.546,0.035 12.546,0.037 C12.552,0.037 12.558,0.037 12.564,0.037 C12.564,0.039 12.564,0.041 12.564,0.043 C12.570,0.043 12.576,0.043 12.582,0.043 C12.582,0.045 12.582,0.047 12.582,0.049 C12.586,0.049 12.590,0.049 12.594,0.049 C12.594,0.051 12.594,0.053 12.594,0.055 C12.600,0.055 12.606,0.055 12.613,0.055 C12.613,0.057 12.613,0.058 12.613,0.060 C12.621,0.062 12.629,0.064 12.637,0.066 C12.637,0.068 12.637,0.070 12.637,0.072 C12.645,0.074 12.653,0.076 12.661,0.078 C12.663,0.082 12.665,0.086 12.667,0.090 C12.675,0.092 12.684,0.094 12.692,0.096 C12.694,0.100 12.696,0.104 12.698,0.108 C12.702,0.108 12.706,0.108 12.710,0.108 C12.712,0.112 12.714,0.116 12.716,0.120 C12.720,0.120 12.724,0.120 12.728,0.120 C12.734,0.128 12.740,0.136 12.747,0.144 C12.751,0.144 12.755,0.144 12.759,0.144 C12.775,0.162 12.791,0.180 12.808,0.197 C12.822,0.209 12.836,0.221 12.850,0.233 C12.850,0.237 12.850,0.241 12.850,0.245 C12.858,0.251 12.866,0.257 12.875,0.263 C12.875,0.267 12.875,0.271 12.875,0.275 C12.879,0.277 12.883,0.279 12.887,0.281 C12.889,0.287 12.891,0.293 12.893,0.299 C12.895,0.299 12.897,0.299 12.899,0.299 C12.901,0.307 12.903,0.315 12.905,0.323 C12.909,0.324 12.913,0.326 12.917,0.328 C12.919,0.336 12.921,0.344 12.923,0.352 C12.925,0.352 12.927,0.352 12.929,0.352 C12.931,0.360 12.933,0.368 12.935,0.376 C12.937,0.376 12.940,0.376 12.942,0.376 C12.944,0.386 12.946,0.396 12.948,0.406 C12.950,0.406 12.952,0.406 12.954,0.406 C12.954,0.412 12.954,0.418 12.954,0.424 C12.956,0.424 12.958,0.424 12.960,0.424 C12.960,0.430 12.960,0.436 12.960,0.442 C12.962,0.442 12.964,0.442 12.966,0.442 C12.966,0.448 12.966,0.454 12.966,0.459 C12.968,0.459 12.970,0.459 12.972,0.459 C12.972,0.465 12.972,0.471 12.972,0.477 C12.974,0.477 12.976,0.477 12.978,0.477 C12.978,0.485 12.978,0.493 12.978,0.501 C12.980,0.501 12.982,0.501 12.984,0.501 C12.986,0.525 12.988,0.549 12.990,0.573 C13.016,0.661 12.985,0.791 12.960,0.853 C12.960,0.858 12.960,0.864 12.960,0.870 C12.958,0.870 12.956,0.870 12.954,0.870 C12.954,0.874 12.954,0.878 12.954,0.882 C12.952,0.882 12.950,0.882 12.948,0.882 C12.948,0.888 12.948,0.894 12.948,0.900 C12.946,0.900 12.944,0.900 12.942,0.900 C12.937,0.912 12.933,0.924 12.929,0.936 C12.927,0.936 12.925,0.936 12.923,0.936 C12.923,0.940 12.923,0.944 12.923,0.948 C12.921,0.948 12.919,0.948 12.917,0.948 C12.915,0.956 12.913,0.964 12.911,0.972 C12.907,0.974 12.903,0.976 12.899,0.978 C12.899,0.982 12.899,0.986 12.899,0.989 C12.897,0.989 12.895,0.989 12.893,0.989 C12.891,0.995 12.889,1.001 12.887,1.007 C12.883,1.009 12.879,1.011 12.875,1.013 C12.875,1.017 12.875,1.021 12.875,1.025 C12.868,1.029 12.862,1.033 12.856,1.037 C12.856,1.041 12.856,1.045 12.856,1.049 C12.844,1.059 12.832,1.069 12.820,1.079 C12.820,1.083 12.820,1.087 12.820,1.091 C12.795,1.113 12.771,1.134 12.747,1.156 C12.732,1.172 12.718,1.188 12.704,1.204 C12.643,1.261 12.582,1.319 12.521,1.377 C12.288,1.607 12.054,1.837 11.820,2.067 C10.643,3.217 9.465,4.366 8.287,5.515 C8.078,5.722 7.868,5.928 7.659,6.135 C7.537,6.252 7.415,6.369 7.294,6.486 C7.239,6.542 7.184,6.597 7.129,6.653 C7.105,6.675 7.080,6.697 7.056,6.718 C7.015,6.760 6.975,6.802 6.934,6.843 C6.930,6.843 6.926,6.843 6.922,6.843 C6.916,6.851 6.910,6.859 6.904,6.867 C6.898,6.869 6.891,6.871 6.885,6.873 C6.883,6.877 6.881,6.881 6.879,6.885 C6.875,6.885 6.871,6.885 6.867,6.885 C6.865,6.889 6.863,6.893 6.861,6.897 C6.855,6.899 6.849,6.901 6.843,6.903 C6.843,6.905 6.843,6.907 6.843,6.909 C6.831,6.913 6.818,6.917 6.806,6.921 C6.806,6.923 6.806,6.925 6.806,6.927 C6.802,6.927 6.798,6.927 6.794,6.927 C6.794,6.929 6.794,6.931 6.794,6.933 C6.782,6.937 6.770,6.941 6.757,6.945 C6.757,6.947 6.757,6.949 6.757,6.951 C6.745,6.953 6.733,6.955 6.721,6.957 C6.721,6.959 6.721,6.961 6.721,6.963 C6.717,6.963 6.713,6.963 6.709,6.963 C6.709,6.965 6.709,6.967 6.709,6.969 C6.684,6.973 6.660,6.976 6.636,6.980 C6.439,7.039 6.215,6.953 6.099,6.873 C6.093,6.865 6.087,6.857 6.081,6.849 C6.077,6.849 6.073,6.849 6.069,6.849 C6.032,6.812 5.996,6.774 5.959,6.736 C5.937,6.716 5.915,6.697 5.892,6.677 C5.817,6.601 5.742,6.526 5.667,6.450 C5.567,6.355 5.468,6.260 5.368,6.165 C5.163,5.962 4.958,5.760 4.753,5.557 C4.505,5.317 4.257,5.077 4.010,4.837 C3.140,3.985 2.271,3.133 1.402,2.282 C1.317,2.200 1.231,2.119 1.146,2.038 C0.925,1.819 0.703,1.601 0.482,1.383 C0.429,1.333 0.376,1.283 0.323,1.234 C0.297,1.206 0.271,1.178 0.244,1.150 C0.220,1.128 0.196,1.107 0.171,1.085 C0.171,1.081 0.171,1.077 0.171,1.073 C0.159,1.063 0.147,1.053 0.135,1.043 C0.135,1.039 0.135,1.035 0.135,1.031 C0.129,1.027 0.122,1.023 0.116,1.019 C0.116,1.015 0.116,1.011 0.116,1.007 C0.112,1.005 0.108,1.003 0.104,1.001 C0.102,0.993 0.100,0.986 0.098,0.978 C0.094,0.976 0.090,0.974 0.086,0.972 C0.066,0.926 0.045,0.880 0.025,0.835 C0.025,0.827 0.025,0.819 0.025,0.811 C-0.003,0.729 -0.011,0.590 0.019,0.501 C0.019,0.493 0.019,0.485 0.019,0.477 C0.021,0.477 0.023,0.477 0.025,0.477 C0.025,0.471 0.025,0.465 0.025,0.459 C0.027,0.459 0.029,0.459 0.031,0.459 C0.031,0.454 0.031,0.448 0.031,0.442 C0.033,0.442 0.035,0.442 0.037,0.442 C0.037,0.436 0.037,0.430 0.037,0.424 C0.039,0.424 0.041,0.424 0.043,0.424 C0.043,0.418 0.043,0.412 0.043,0.406 C0.045,0.406 0.047,0.406 0.049,0.406 C0.049,0.402 0.049,0.398 0.049,0.394 C0.051,0.394 0.053,0.394 0.055,0.394 C0.055,0.388 0.055,0.382 0.055,0.376 C0.057,0.376 0.059,0.376 0.061,0.376 C0.064,0.368 0.066,0.360 0.068,0.352 C0.070,0.352 0.072,0.352 0.074,0.352 C0.076,0.344 0.078,0.336 0.080,0.328 C0.084,0.326 0.088,0.324 0.092,0.323 C0.094,0.315 0.096,0.307 0.098,0.299 C0.102,0.297 0.106,0.295 0.110,0.293 C0.110,0.289 0.110,0.285 0.110,0.281 C0.116,0.277 0.122,0.273 0.129,0.269 C0.129,0.265 0.129,0.261 0.129,0.257 C0.135,0.253 0.141,0.249 0.147,0.245 C0.147,0.241 0.147,0.237 0.147,0.233 C0.163,0.219 0.179,0.205 0.196,0.191 C0.210,0.176 0.224,0.160 0.238,0.144 C0.242,0.144 0.246,0.144 0.250,0.144 C0.254,0.138 0.258,0.132 0.263,0.126 C0.267,0.126 0.271,0.126 0.275,0.126 C0.277,0.122 0.279,0.118 0.281,0.114 C0.287,0.112 0.293,0.110 0.299,0.108 C0.299,0.106 0.299,0.104 0.299,0.102 C0.303,0.102 0.307,0.102 0.311,0.102 C0.313,0.098 0.315,0.094 0.317,0.090 C0.330,0.086 0.342,0.082 0.354,0.078 C0.356,0.074 0.358,0.070 0.360,0.066 C0.366,0.066 0.372,0.066 0.378,0.066 C0.378,0.064 0.378,0.062 0.378,0.060 C0.386,0.058 0.395,0.057 0.403,0.055 C0.403,0.053 0.403,0.051 0.403,0.049 C0.409,0.049 0.415,0.049 0.421,0.049 C0.421,0.047 0.421,0.045 0.421,0.043 C0.425,0.043 0.429,0.043 0.433,0.043 C0.433,0.041 0.433,0.039 0.433,0.037 C0.447,0.035 0.462,0.033 0.476,0.031 C0.476,0.029 0.476,0.027 0.476,0.025 C0.482,0.025 0.488,0.025 0.494,0.025 C0.494,0.023 0.494,0.021 0.494,0.019 C0.502,0.019 0.510,0.019 0.518,0.019 C0.518,0.017 0.518,0.015 0.518,0.013 C0.543,0.005 0.588,0.015 0.604,0.001 Z"/>
</svg>