<svg 
 xmlns="http://www.w3.org/2000/svg"
 xmlns:xlink="http://www.w3.org/1999/xlink"
 width="46px" height="46px">
<path fill-rule="evenodd"  fill="rgb(191, 162, 116)"
 d="M22.939,0.061 C22.976,0.232 23.078,0.353 23.122,0.489 C23.122,0.612 23.122,0.734 23.122,0.856 C23.143,0.856 23.163,0.856 23.184,0.856 C23.163,1.529 23.143,2.202 23.122,2.875 C23.122,3.370 23.226,3.852 23.122,4.221 C23.122,4.547 23.122,4.873 23.122,5.199 C23.102,5.199 23.082,5.199 23.061,5.199 C23.022,5.307 23.034,5.359 23.000,5.444 C22.738,5.566 22.704,5.566 22.388,5.505 C22.352,5.439 22.281,5.408 22.266,5.383 C22.266,5.342 22.266,5.301 22.266,5.261 C22.246,5.261 22.225,5.261 22.205,5.261 C22.205,5.159 22.205,5.057 22.205,4.955 C22.104,4.620 22.144,4.044 22.144,3.609 C22.144,2.671 22.144,1.733 22.144,0.795 C22.205,0.591 22.266,0.387 22.327,0.184 C22.507,0.079 22.502,0.007 22.816,-0.000 C22.886,0.070 22.817,0.024 22.939,0.061 ZM26.059,0.245 C26.181,0.245 26.303,0.245 26.426,0.245 C26.446,0.285 26.466,0.326 26.487,0.367 C26.599,0.476 26.692,1.246 26.609,1.529 C26.589,1.529 26.568,1.529 26.548,1.529 C26.548,1.652 26.548,1.774 26.548,1.896 C26.427,2.290 26.362,2.836 26.242,3.242 C26.222,3.527 26.201,3.813 26.181,4.098 C26.079,4.567 25.977,5.036 25.875,5.505 C25.527,5.718 25.610,5.823 25.141,5.628 C25.049,5.429 24.914,4.889 25.019,4.527 C25.039,4.527 25.059,4.527 25.080,4.527 C25.080,4.363 25.080,4.200 25.080,4.037 C25.316,3.238 25.320,2.201 25.569,1.407 C25.569,1.305 25.569,1.203 25.569,1.101 C25.590,1.101 25.610,1.101 25.630,1.101 C25.630,1.040 25.630,0.979 25.630,0.918 C25.651,0.918 25.671,0.918 25.691,0.918 C25.691,0.856 25.691,0.795 25.691,0.734 C25.712,0.734 25.732,0.734 25.753,0.734 C25.773,0.652 25.793,0.571 25.814,0.489 C25.834,0.489 25.855,0.489 25.875,0.489 C25.875,0.449 25.875,0.408 25.875,0.367 C25.936,0.347 25.997,0.326 26.059,0.306 C26.059,0.285 26.059,0.265 26.059,0.245 ZM19.085,0.306 C19.315,0.347 19.459,0.452 19.513,0.673 C19.641,0.804 19.757,1.378 19.819,1.590 C19.819,1.754 19.819,1.917 19.819,2.080 C19.840,2.080 19.860,2.080 19.880,2.080 C19.880,2.243 19.880,2.406 19.880,2.569 C19.901,2.569 19.921,2.569 19.941,2.569 C19.941,2.712 19.941,2.855 19.941,2.997 C19.962,2.997 19.982,2.997 20.003,2.997 C20.023,3.222 20.043,3.446 20.064,3.670 C20.229,4.228 20.356,5.060 20.247,5.689 C20.065,5.771 19.938,5.812 19.636,5.811 C19.595,5.750 19.554,5.689 19.513,5.628 C19.493,5.628 19.473,5.628 19.452,5.628 C19.452,5.587 19.452,5.546 19.452,5.505 C19.432,5.505 19.411,5.505 19.391,5.505 C19.289,5.036 19.187,4.567 19.085,4.098 C19.065,3.833 19.044,3.568 19.024,3.303 C19.004,3.303 18.983,3.303 18.963,3.303 C18.963,3.160 18.963,3.018 18.963,2.875 C18.942,2.875 18.922,2.875 18.902,2.875 C18.902,2.753 18.902,2.630 18.902,2.508 C18.881,2.508 18.861,2.508 18.840,2.508 C18.840,2.406 18.840,2.304 18.840,2.202 C18.820,2.202 18.800,2.202 18.779,2.202 C18.779,2.059 18.779,1.917 18.779,1.774 C18.759,1.774 18.738,1.774 18.718,1.774 C18.718,1.427 18.718,1.081 18.718,0.734 C18.738,0.734 18.759,0.734 18.779,0.734 C18.800,0.632 18.820,0.530 18.840,0.428 C18.910,0.377 18.849,0.436 18.902,0.367 C18.963,0.367 19.024,0.367 19.085,0.367 C19.085,0.347 19.085,0.326 19.085,0.306 ZM29.668,0.979 C29.856,1.049 29.913,1.007 29.973,1.223 C30.158,1.420 29.926,2.383 29.851,2.569 C29.831,2.569 29.810,2.569 29.790,2.569 C29.770,2.691 29.749,2.814 29.729,2.936 C29.708,2.936 29.688,2.936 29.668,2.936 C29.668,2.977 29.668,3.018 29.668,3.059 C29.647,3.059 29.627,3.059 29.606,3.059 C29.566,3.242 29.525,3.426 29.484,3.609 C29.464,3.609 29.443,3.609 29.423,3.609 C29.402,3.731 29.382,3.854 29.362,3.976 C29.341,3.976 29.321,3.976 29.301,3.976 C29.260,4.180 29.219,4.384 29.178,4.588 C29.158,4.588 29.137,4.588 29.117,4.588 C29.117,4.649 29.117,4.710 29.117,4.771 C29.097,4.771 29.076,4.771 29.056,4.771 C29.056,4.832 29.056,4.894 29.056,4.955 C29.035,4.955 29.015,4.955 28.995,4.955 C28.995,5.016 28.995,5.077 28.995,5.138 C28.974,5.138 28.954,5.138 28.934,5.138 C28.934,5.199 28.934,5.261 28.934,5.322 C28.913,5.322 28.893,5.322 28.872,5.322 C28.872,5.383 28.872,5.444 28.872,5.505 C28.852,5.505 28.832,5.505 28.811,5.505 C28.811,5.546 28.811,5.587 28.811,5.628 C28.791,5.628 28.770,5.628 28.750,5.628 C28.750,5.689 28.750,5.750 28.750,5.811 C28.730,5.811 28.709,5.811 28.689,5.811 C28.566,6.065 28.684,6.063 28.444,6.239 C28.444,6.260 28.444,6.280 28.444,6.301 C28.281,6.301 28.118,6.301 27.955,6.301 C27.923,6.246 27.771,6.117 27.771,6.117 C27.771,5.913 27.771,5.709 27.771,5.505 C27.896,5.363 27.823,5.212 27.894,5.016 C27.914,5.016 27.934,5.016 27.955,5.016 C27.955,4.955 27.955,4.894 27.955,4.832 C27.975,4.832 27.996,4.832 28.016,4.832 C28.016,4.771 28.016,4.710 28.016,4.649 C28.036,4.649 28.057,4.649 28.077,4.649 C28.098,4.506 28.118,4.363 28.138,4.221 C28.159,4.221 28.179,4.221 28.199,4.221 C28.220,4.098 28.240,3.976 28.261,3.854 C28.281,3.854 28.301,3.854 28.322,3.854 C28.322,3.793 28.322,3.731 28.322,3.670 C28.342,3.670 28.363,3.670 28.383,3.670 C28.383,3.609 28.383,3.548 28.383,3.487 C28.403,3.487 28.424,3.487 28.444,3.487 C28.444,3.426 28.444,3.364 28.444,3.303 C28.465,3.303 28.485,3.303 28.505,3.303 C28.505,3.242 28.505,3.181 28.505,3.120 C28.526,3.120 28.546,3.120 28.566,3.120 C28.566,3.059 28.566,2.997 28.566,2.936 C28.587,2.936 28.607,2.936 28.628,2.936 C28.648,2.814 28.668,2.691 28.689,2.569 C28.709,2.569 28.730,2.569 28.750,2.569 C28.750,2.488 28.750,2.406 28.750,2.324 C28.770,2.324 28.791,2.324 28.811,2.324 C28.811,2.263 28.811,2.202 28.811,2.141 C28.832,2.141 28.852,2.141 28.872,2.141 C28.872,2.100 28.872,2.059 28.872,2.019 C28.893,2.019 28.913,2.019 28.934,2.019 C28.995,1.835 29.056,1.652 29.117,1.468 C29.158,1.448 29.199,1.427 29.239,1.407 C29.239,1.366 29.239,1.325 29.239,1.285 C29.260,1.285 29.280,1.285 29.301,1.285 C29.362,1.203 29.423,1.121 29.484,1.040 C29.545,1.040 29.606,1.040 29.668,1.040 C29.668,1.020 29.668,0.999 29.668,0.979 ZM15.415,1.285 C15.663,1.237 15.718,1.238 15.965,1.285 C15.986,1.346 16.006,1.407 16.027,1.468 C16.067,1.488 16.108,1.509 16.149,1.529 C16.149,1.570 16.149,1.611 16.149,1.652 C16.169,1.652 16.190,1.652 16.210,1.652 C16.251,1.774 16.292,1.896 16.332,2.019 C16.353,2.019 16.373,2.019 16.394,2.019 C16.455,2.284 16.516,2.549 16.577,2.814 C16.598,2.814 16.618,2.814 16.638,2.814 C16.659,2.957 16.679,3.099 16.699,3.242 C16.720,3.242 16.740,3.242 16.761,3.242 C16.761,3.303 16.761,3.364 16.761,3.426 C16.781,3.426 16.801,3.426 16.822,3.426 C16.822,3.487 16.822,3.548 16.822,3.609 C16.842,3.609 16.863,3.609 16.883,3.609 C16.883,3.670 16.883,3.731 16.883,3.793 C16.903,3.793 16.924,3.793 16.944,3.793 C16.944,3.854 16.944,3.915 16.944,3.976 C16.965,3.976 16.985,3.976 17.005,3.976 C17.005,4.037 17.005,4.098 17.005,4.160 C17.026,4.160 17.046,4.160 17.066,4.160 C17.066,4.221 17.066,4.282 17.066,4.343 C17.087,4.343 17.107,4.343 17.128,4.343 C17.148,4.465 17.168,4.588 17.189,4.710 C17.209,4.710 17.230,4.710 17.250,4.710 C17.332,5.057 17.413,5.403 17.495,5.750 C17.515,5.750 17.535,5.750 17.556,5.750 C17.576,5.893 17.597,6.035 17.617,6.178 C17.597,6.178 17.576,6.178 17.556,6.178 C17.518,6.295 17.529,6.334 17.495,6.423 C17.325,6.496 17.110,6.630 16.883,6.484 C16.863,6.443 16.842,6.402 16.822,6.362 C16.781,6.341 16.740,6.321 16.699,6.301 C16.679,6.219 16.659,6.137 16.638,6.056 C16.618,6.056 16.598,6.056 16.577,6.056 C16.577,5.995 16.577,5.934 16.577,5.872 C16.557,5.872 16.536,5.872 16.516,5.872 C16.516,5.832 16.516,5.791 16.516,5.750 C16.496,5.750 16.475,5.750 16.455,5.750 C16.455,5.689 16.455,5.628 16.455,5.566 C16.434,5.566 16.414,5.566 16.394,5.566 C16.394,5.505 16.394,5.444 16.394,5.383 C16.373,5.383 16.353,5.383 16.332,5.383 C16.332,5.342 16.332,5.301 16.332,5.261 C16.312,5.261 16.292,5.261 16.271,5.261 C16.251,5.118 16.230,4.975 16.210,4.832 C16.190,4.832 16.169,4.832 16.149,4.832 C16.149,4.771 16.149,4.710 16.149,4.649 C16.129,4.649 16.108,4.649 16.088,4.649 C16.088,4.588 16.088,4.527 16.088,4.465 C16.067,4.465 16.047,4.465 16.027,4.465 C16.027,4.404 16.027,4.343 16.027,4.282 C16.006,4.282 15.986,4.282 15.965,4.282 C15.965,4.221 15.965,4.160 15.965,4.098 C15.945,4.098 15.925,4.098 15.904,4.098 C15.904,4.037 15.904,3.976 15.904,3.915 C15.884,3.915 15.863,3.915 15.843,3.915 C15.843,3.833 15.843,3.752 15.843,3.670 C15.823,3.670 15.802,3.670 15.782,3.670 C15.782,3.609 15.782,3.548 15.782,3.487 C15.762,3.487 15.741,3.487 15.721,3.487 C15.721,3.446 15.721,3.405 15.721,3.364 C15.700,3.364 15.680,3.364 15.660,3.364 C15.619,3.181 15.578,2.997 15.537,2.814 C15.517,2.814 15.496,2.814 15.476,2.814 C15.456,2.651 15.435,2.488 15.415,2.324 C15.384,2.228 15.250,1.735 15.293,1.590 C15.313,1.590 15.333,1.590 15.354,1.590 C15.374,1.488 15.395,1.387 15.415,1.285 ZM32.848,2.324 C32.950,2.324 33.052,2.324 33.154,2.324 C33.291,2.560 33.340,2.517 33.338,2.936 C33.317,2.936 33.297,2.936 33.277,2.936 C33.256,3.079 33.236,3.222 33.215,3.364 C33.195,3.364 33.175,3.364 33.154,3.364 C33.134,3.446 33.113,3.527 33.093,3.609 C33.073,3.609 33.052,3.609 33.032,3.609 C32.991,3.731 32.950,3.854 32.910,3.976 C32.889,3.976 32.869,3.976 32.848,3.976 C32.848,4.017 32.848,4.058 32.848,4.098 C32.828,4.098 32.808,4.098 32.787,4.098 C32.787,4.139 32.787,4.180 32.787,4.221 C32.767,4.221 32.746,4.221 32.726,4.221 C32.726,4.262 32.726,4.302 32.726,4.343 C32.685,4.363 32.644,4.384 32.604,4.404 C32.604,4.445 32.604,4.486 32.604,4.527 C32.583,4.527 32.563,4.527 32.543,4.527 C32.543,4.567 32.543,4.608 32.543,4.649 C32.522,4.649 32.502,4.649 32.481,4.649 C32.481,4.690 32.481,4.731 32.481,4.771 C32.461,4.771 32.441,4.771 32.420,4.771 C32.420,4.812 32.420,4.853 32.420,4.894 C32.400,4.894 32.379,4.894 32.359,4.894 C32.318,5.016 32.277,5.138 32.237,5.261 C32.216,5.261 32.196,5.261 32.176,5.261 C32.155,5.342 32.135,5.424 32.114,5.505 C32.094,5.505 32.074,5.505 32.053,5.505 C32.033,5.587 32.012,5.668 31.992,5.750 C31.972,5.750 31.951,5.750 31.931,5.750 C31.931,5.791 31.931,5.832 31.931,5.872 C31.910,5.872 31.890,5.872 31.870,5.872 C31.870,5.913 31.870,5.954 31.870,5.995 C31.849,5.995 31.829,5.995 31.809,5.995 C31.809,6.035 31.809,6.076 31.809,6.117 C31.788,6.117 31.768,6.117 31.747,6.117 C31.747,6.158 31.747,6.199 31.747,6.239 C31.727,6.239 31.707,6.239 31.686,6.239 C31.686,6.280 31.686,6.321 31.686,6.362 C31.666,6.362 31.645,6.362 31.625,6.362 C31.625,6.402 31.625,6.443 31.625,6.484 C31.584,6.504 31.543,6.525 31.503,6.545 C31.482,6.627 31.462,6.708 31.441,6.790 C31.353,6.948 31.206,7.098 31.074,7.218 C31.054,7.259 31.034,7.300 31.013,7.340 C30.891,7.340 30.769,7.340 30.646,7.340 C30.582,7.261 30.521,7.249 30.463,7.157 C30.442,7.157 30.422,7.157 30.402,7.157 C30.381,7.035 30.361,6.912 30.340,6.790 C30.565,6.280 30.789,5.770 31.013,5.261 C31.034,5.261 31.054,5.261 31.074,5.261 C31.074,5.220 31.074,5.179 31.074,5.138 C31.095,5.138 31.115,5.138 31.136,5.138 C31.136,5.098 31.136,5.057 31.136,5.016 C31.156,5.016 31.176,5.016 31.197,5.016 C31.197,4.975 31.197,4.934 31.197,4.894 C31.217,4.894 31.238,4.894 31.258,4.894 C31.258,4.853 31.258,4.812 31.258,4.771 C31.299,4.751 31.340,4.730 31.380,4.710 C31.401,4.629 31.421,4.547 31.441,4.465 C31.462,4.465 31.482,4.465 31.503,4.465 C31.503,4.425 31.503,4.384 31.503,4.343 C31.523,4.343 31.543,4.343 31.564,4.343 C31.564,4.302 31.564,4.262 31.564,4.221 C31.584,4.221 31.605,4.221 31.625,4.221 C31.625,4.180 31.625,4.139 31.625,4.098 C31.645,4.098 31.666,4.098 31.686,4.098 C31.829,3.772 31.972,3.446 32.114,3.120 C32.135,3.120 32.155,3.120 32.176,3.120 C32.196,3.059 32.216,2.997 32.237,2.936 C32.277,2.916 32.318,2.895 32.359,2.875 C32.359,2.834 32.359,2.793 32.359,2.753 C32.522,2.610 32.685,2.467 32.848,2.324 ZM12.234,2.630 C12.356,2.630 12.479,2.630 12.601,2.630 C12.703,2.753 12.805,2.875 12.907,2.997 C12.948,3.018 12.988,3.038 13.029,3.059 C13.029,3.099 13.029,3.140 13.029,3.181 C13.070,3.201 13.111,3.222 13.152,3.242 C13.152,3.283 13.152,3.324 13.152,3.364 C13.172,3.364 13.192,3.364 13.213,3.364 C13.213,3.405 13.213,3.446 13.213,3.487 C13.233,3.487 13.254,3.487 13.274,3.487 C13.274,3.527 13.274,3.568 13.274,3.609 C13.294,3.609 13.315,3.609 13.335,3.609 C13.335,3.650 13.335,3.691 13.335,3.731 C13.355,3.731 13.376,3.731 13.396,3.731 C13.396,3.772 13.396,3.813 13.396,3.854 C13.417,3.854 13.437,3.854 13.457,3.854 C13.498,3.976 13.539,4.098 13.580,4.221 C13.600,4.221 13.621,4.221 13.641,4.221 C13.682,4.343 13.723,4.465 13.763,4.588 C13.784,4.588 13.804,4.588 13.824,4.588 C13.845,4.669 13.865,4.751 13.886,4.832 C13.906,4.832 13.926,4.832 13.947,4.832 C13.967,4.914 13.988,4.996 14.008,5.077 C14.028,5.077 14.049,5.077 14.069,5.077 C14.069,5.118 14.069,5.159 14.069,5.199 C14.090,5.199 14.110,5.199 14.130,5.199 C14.130,5.240 14.130,5.281 14.130,5.322 C14.151,5.322 14.171,5.322 14.191,5.322 C14.191,5.363 14.191,5.403 14.191,5.444 C14.212,5.444 14.232,5.444 14.253,5.444 C14.253,5.485 14.253,5.526 14.253,5.566 C14.273,5.566 14.293,5.566 14.314,5.566 C14.314,5.607 14.314,5.648 14.314,5.689 C14.334,5.689 14.355,5.689 14.375,5.689 C14.375,5.730 14.375,5.770 14.375,5.811 C14.395,5.811 14.416,5.811 14.436,5.811 C14.436,5.852 14.436,5.893 14.436,5.934 C14.457,5.934 14.477,5.934 14.497,5.934 C14.497,5.974 14.497,6.015 14.497,6.056 C14.611,6.269 15.127,7.068 14.987,7.279 C14.956,7.626 14.765,7.662 14.375,7.646 C14.305,7.577 14.375,7.622 14.253,7.585 C14.214,7.509 14.152,7.498 14.130,7.463 C14.130,7.422 14.130,7.381 14.130,7.340 C14.110,7.340 14.090,7.340 14.069,7.340 C14.069,7.300 14.069,7.259 14.069,7.218 C14.028,7.198 13.988,7.177 13.947,7.157 C13.947,7.116 13.947,7.075 13.947,7.035 C13.906,7.014 13.865,6.994 13.824,6.973 C13.824,6.933 13.824,6.892 13.824,6.851 C13.804,6.851 13.784,6.851 13.763,6.851 C13.763,6.810 13.763,6.769 13.763,6.729 C13.743,6.729 13.723,6.729 13.702,6.729 C13.702,6.688 13.702,6.647 13.702,6.606 C13.682,6.606 13.661,6.606 13.641,6.606 C13.641,6.566 13.641,6.525 13.641,6.484 C13.600,6.464 13.559,6.443 13.519,6.423 C13.478,6.301 13.437,6.178 13.396,6.056 C13.376,6.056 13.355,6.056 13.335,6.056 C13.315,5.974 13.294,5.893 13.274,5.811 C13.254,5.811 13.233,5.811 13.213,5.811 C13.192,5.730 13.172,5.648 13.152,5.566 C13.131,5.566 13.111,5.566 13.090,5.566 C13.090,5.526 13.090,5.485 13.090,5.444 C13.070,5.444 13.050,5.444 13.029,5.444 C13.029,5.403 13.029,5.363 13.029,5.322 C13.009,5.322 12.988,5.322 12.968,5.322 C12.968,5.281 12.968,5.240 12.968,5.199 C12.948,5.199 12.927,5.199 12.907,5.199 C12.907,5.159 12.907,5.118 12.907,5.077 C12.887,5.077 12.866,5.077 12.846,5.077 C12.805,4.955 12.764,4.832 12.723,4.710 C12.433,4.166 12.085,3.685 12.051,2.875 C12.125,2.814 12.187,2.717 12.234,2.630 ZM36.335,4.221 C36.402,4.563 36.366,4.790 36.213,5.077 C36.192,5.077 36.172,5.077 36.152,5.077 C36.131,5.159 36.111,5.240 36.090,5.322 C36.050,5.342 36.009,5.363 35.968,5.383 C35.968,5.424 35.968,5.465 35.968,5.505 C35.927,5.526 35.887,5.546 35.846,5.566 C35.846,5.607 35.846,5.648 35.846,5.689 C35.764,5.750 35.683,5.811 35.601,5.872 C35.601,5.913 35.601,5.954 35.601,5.995 C35.560,6.015 35.519,6.035 35.479,6.056 C35.458,6.117 35.438,6.178 35.418,6.239 C35.336,6.301 35.254,6.362 35.173,6.423 C35.173,6.464 35.173,6.504 35.173,6.545 C35.132,6.566 35.091,6.586 35.051,6.606 C35.051,6.647 35.051,6.688 35.051,6.729 C34.989,6.769 34.928,6.810 34.867,6.851 C34.867,6.892 34.867,6.933 34.867,6.973 C34.826,6.994 34.785,7.014 34.745,7.035 C34.745,7.075 34.745,7.116 34.745,7.157 C34.684,7.198 34.622,7.238 34.561,7.279 C34.561,7.320 34.561,7.361 34.561,7.402 C34.520,7.422 34.480,7.442 34.439,7.463 C34.439,7.504 34.439,7.544 34.439,7.585 C34.378,7.626 34.316,7.667 34.255,7.707 C34.255,7.748 34.255,7.789 34.255,7.830 C34.194,7.871 34.133,7.911 34.072,7.952 C34.072,7.993 34.072,8.034 34.072,8.074 C34.011,8.115 33.949,8.156 33.888,8.197 C33.888,8.238 33.888,8.278 33.888,8.319 C33.746,8.441 33.603,8.564 33.460,8.686 C33.460,8.707 33.460,8.727 33.460,8.747 C33.399,8.747 33.338,8.747 33.277,8.747 C33.277,8.768 33.277,8.788 33.277,8.809 C33.256,8.809 33.236,8.809 33.215,8.809 C33.215,8.788 33.215,8.768 33.215,8.747 C33.154,8.747 33.093,8.747 33.032,8.747 C33.032,8.727 33.032,8.707 33.032,8.686 C32.991,8.686 32.950,8.686 32.910,8.686 C32.801,8.604 32.778,8.348 32.787,8.136 C32.909,8.028 32.838,8.002 32.910,7.891 C32.950,7.871 32.991,7.850 33.032,7.830 C33.032,7.789 33.032,7.748 33.032,7.707 C33.052,7.707 33.073,7.707 33.093,7.707 C33.093,7.667 33.093,7.626 33.093,7.585 C33.113,7.585 33.134,7.585 33.154,7.585 C33.175,7.524 33.195,7.463 33.215,7.402 C33.256,7.381 33.297,7.361 33.338,7.340 C33.338,7.300 33.338,7.259 33.338,7.218 C33.379,7.198 33.419,7.177 33.460,7.157 C33.460,7.116 33.460,7.075 33.460,7.035 C33.521,6.994 33.582,6.953 33.644,6.912 C33.644,6.871 33.644,6.831 33.644,6.790 C33.705,6.749 33.766,6.708 33.827,6.668 C33.827,6.627 33.827,6.586 33.827,6.545 C33.868,6.525 33.909,6.504 33.949,6.484 C33.949,6.443 33.949,6.402 33.949,6.362 C34.011,6.321 34.072,6.280 34.133,6.239 C34.133,6.199 34.133,6.158 34.133,6.117 C34.194,6.076 34.255,6.035 34.316,5.995 C34.316,5.954 34.316,5.913 34.316,5.872 C34.378,5.832 34.439,5.791 34.500,5.750 C34.500,5.709 34.500,5.668 34.500,5.628 C34.541,5.607 34.582,5.587 34.622,5.566 C34.622,5.526 34.622,5.485 34.622,5.444 C34.684,5.403 34.745,5.363 34.806,5.322 C34.806,5.281 34.806,5.240 34.806,5.199 C34.847,5.179 34.887,5.159 34.928,5.138 C34.928,5.098 34.928,5.057 34.928,5.016 C35.010,4.955 35.091,4.894 35.173,4.832 C35.173,4.792 35.173,4.751 35.173,4.710 C35.323,4.503 35.680,4.359 35.846,4.160 C36.065,4.159 36.177,4.190 36.335,4.221 ZM9.237,4.527 C9.359,4.527 9.481,4.527 9.604,4.527 C9.828,4.730 10.052,4.934 10.277,5.138 C10.277,5.179 10.277,5.220 10.277,5.261 C10.338,5.301 10.399,5.342 10.460,5.383 C10.460,5.424 10.460,5.465 10.460,5.505 C10.501,5.526 10.542,5.546 10.582,5.566 C10.582,5.607 10.582,5.648 10.582,5.689 C10.603,5.689 10.623,5.689 10.644,5.689 C10.664,5.750 10.684,5.811 10.705,5.872 C10.746,5.893 10.786,5.913 10.827,5.934 C10.827,5.974 10.827,6.015 10.827,6.056 C10.888,6.097 10.949,6.137 11.011,6.178 C11.011,6.219 11.011,6.260 11.011,6.301 C11.051,6.321 11.092,6.341 11.133,6.362 C11.133,6.402 11.133,6.443 11.133,6.484 C11.194,6.525 11.255,6.566 11.316,6.606 C11.316,6.647 11.316,6.688 11.316,6.729 C11.378,6.769 11.439,6.810 11.500,6.851 C11.500,6.892 11.500,6.933 11.500,6.973 C11.561,7.014 11.622,7.055 11.684,7.096 C11.684,7.137 11.684,7.177 11.684,7.218 C11.724,7.238 11.765,7.259 11.806,7.279 C11.806,7.320 11.806,7.361 11.806,7.402 C11.867,7.442 11.928,7.483 11.989,7.524 C11.989,7.565 11.989,7.606 11.989,7.646 C12.030,7.667 12.071,7.687 12.112,7.707 C12.112,7.748 12.112,7.789 12.112,7.830 C12.173,7.871 12.234,7.911 12.295,7.952 C12.295,7.993 12.295,8.034 12.295,8.074 C12.336,8.095 12.377,8.115 12.418,8.136 C12.438,8.217 12.458,8.299 12.479,8.380 C12.519,8.401 12.560,8.421 12.601,8.441 C12.666,8.550 12.656,8.700 12.662,8.870 C12.435,9.061 12.503,9.170 12.051,9.176 C11.867,9.012 11.683,8.849 11.500,8.686 C11.500,8.645 11.500,8.605 11.500,8.564 C11.418,8.503 11.337,8.441 11.255,8.380 C11.235,8.319 11.215,8.258 11.194,8.197 C11.153,8.176 11.113,8.156 11.072,8.136 C11.072,8.095 11.072,8.054 11.072,8.013 C11.011,7.973 10.949,7.932 10.888,7.891 C10.868,7.830 10.848,7.769 10.827,7.707 C10.786,7.687 10.746,7.667 10.705,7.646 C10.705,7.606 10.705,7.565 10.705,7.524 C10.684,7.524 10.664,7.524 10.644,7.524 C10.623,7.463 10.603,7.402 10.582,7.340 C10.542,7.320 10.501,7.300 10.460,7.279 C10.460,7.238 10.460,7.198 10.460,7.157 C10.399,7.116 10.338,7.075 10.277,7.035 C10.277,6.994 10.277,6.953 10.277,6.912 C10.215,6.871 10.154,6.831 10.093,6.790 C10.093,6.749 10.093,6.708 10.093,6.668 C10.032,6.627 9.971,6.586 9.910,6.545 C9.910,6.504 9.910,6.464 9.910,6.423 C9.848,6.382 9.787,6.341 9.726,6.301 C9.726,6.260 9.726,6.219 9.726,6.178 C9.685,6.158 9.644,6.137 9.604,6.117 C9.373,5.772 9.084,5.289 9.053,4.771 C9.128,4.711 9.190,4.613 9.237,4.527 ZM38.537,6.423 C38.680,6.423 38.823,6.423 38.965,6.423 C39.070,6.603 39.142,6.598 39.149,6.912 C38.993,7.045 38.965,7.229 38.843,7.402 C38.741,7.483 38.639,7.565 38.537,7.646 C38.537,7.687 38.537,7.728 38.537,7.769 C38.313,7.952 38.089,8.136 37.864,8.319 C37.334,8.870 36.804,9.420 36.274,9.971 C36.192,10.032 36.111,10.093 36.029,10.154 C36.009,10.195 35.988,10.236 35.968,10.277 C35.927,10.277 35.887,10.277 35.846,10.277 C35.785,10.358 35.723,10.440 35.662,10.521 C35.421,10.651 35.156,10.510 35.051,10.338 C34.959,10.244 34.906,10.004 34.989,9.848 C35.051,9.808 35.112,9.767 35.173,9.726 C35.173,9.685 35.173,9.644 35.173,9.604 C35.214,9.583 35.254,9.563 35.295,9.543 C35.336,9.481 35.377,9.420 35.418,9.359 C35.438,9.359 35.458,9.359 35.479,9.359 C35.479,9.318 35.479,9.277 35.479,9.237 C35.519,9.216 35.560,9.196 35.601,9.176 C36.335,8.421 37.069,7.667 37.803,6.912 C37.844,6.912 37.885,6.912 37.926,6.912 C37.987,6.831 38.048,6.749 38.109,6.668 C38.255,6.565 38.423,6.553 38.537,6.423 ZM6.606,6.851 C6.708,6.851 6.810,6.851 6.912,6.851 C6.912,6.871 6.912,6.892 6.912,6.912 C7.071,6.951 7.417,7.178 7.524,7.279 C7.565,7.340 7.606,7.402 7.646,7.463 C7.687,7.463 7.728,7.463 7.769,7.463 C7.830,7.544 7.891,7.626 7.952,7.707 C7.973,7.707 7.993,7.707 8.013,7.707 C8.013,7.748 8.013,7.789 8.013,7.830 C8.686,8.482 9.359,9.135 10.032,9.787 C10.291,10.047 10.857,10.633 10.338,10.949 C10.060,11.224 9.616,10.827 9.420,10.644 C9.400,10.603 9.379,10.562 9.359,10.521 C9.318,10.521 9.277,10.521 9.237,10.521 C9.216,10.481 9.196,10.440 9.176,10.399 C9.155,10.399 9.135,10.399 9.114,10.399 C8.299,9.563 7.483,8.727 6.668,7.891 C6.596,7.789 6.308,7.277 6.423,7.035 C6.423,7.035 6.573,6.910 6.606,6.851 ZM40.984,9.053 C41.106,9.074 41.229,9.094 41.351,9.114 C41.433,9.269 41.473,9.329 41.473,9.604 C41.270,9.828 41.066,10.052 40.862,10.277 C40.821,10.277 40.780,10.277 40.739,10.277 C40.699,10.338 40.658,10.399 40.617,10.460 C40.576,10.460 40.535,10.460 40.495,10.460 C40.474,10.501 40.454,10.542 40.434,10.582 C40.393,10.582 40.352,10.582 40.311,10.582 C40.311,10.603 40.311,10.623 40.311,10.644 C40.250,10.664 40.189,10.684 40.128,10.705 C40.107,10.746 40.087,10.786 40.066,10.827 C40.026,10.827 39.985,10.827 39.944,10.827 C39.903,10.888 39.863,10.949 39.822,11.011 C39.781,11.011 39.740,11.011 39.699,11.011 C39.679,11.051 39.659,11.092 39.638,11.133 C39.598,11.133 39.557,11.133 39.516,11.133 C39.475,11.194 39.434,11.255 39.394,11.316 C39.353,11.316 39.312,11.316 39.271,11.316 C39.231,11.378 39.190,11.439 39.149,11.500 C39.108,11.500 39.067,11.500 39.027,11.500 C38.986,11.561 38.945,11.622 38.904,11.684 C38.863,11.684 38.823,11.684 38.782,11.684 C38.762,11.724 38.741,11.765 38.721,11.806 C38.680,11.806 38.639,11.806 38.598,11.806 C38.558,11.867 38.517,11.928 38.476,11.989 C38.435,11.989 38.394,11.989 38.354,11.989 C38.333,12.030 38.313,12.071 38.293,12.112 C38.252,12.112 38.211,12.112 38.170,12.112 C38.129,12.173 38.089,12.234 38.048,12.295 C38.007,12.295 37.966,12.295 37.926,12.295 C37.905,12.336 37.885,12.377 37.864,12.418 C37.783,12.438 37.701,12.458 37.620,12.479 C37.599,12.519 37.579,12.560 37.559,12.601 C37.450,12.666 37.300,12.656 37.130,12.662 C36.939,12.435 36.830,12.503 36.824,12.051 C36.988,11.867 37.151,11.683 37.314,11.500 C37.355,11.500 37.395,11.500 37.436,11.500 C37.497,11.418 37.559,11.337 37.620,11.255 C37.660,11.255 37.701,11.255 37.742,11.255 C37.783,11.194 37.824,11.133 37.864,11.072 C37.905,11.072 37.946,11.072 37.987,11.072 C38.027,11.011 38.068,10.949 38.109,10.888 C38.150,10.888 38.191,10.888 38.231,10.888 C38.272,10.827 38.313,10.766 38.354,10.705 C38.394,10.705 38.435,10.705 38.476,10.705 C38.476,10.684 38.476,10.664 38.476,10.644 C38.537,10.623 38.598,10.603 38.660,10.582 C38.680,10.542 38.700,10.501 38.721,10.460 C38.762,10.460 38.802,10.460 38.843,10.460 C38.884,10.399 38.925,10.338 38.965,10.277 C39.006,10.277 39.047,10.277 39.088,10.277 C39.129,10.215 39.169,10.154 39.210,10.093 C39.251,10.093 39.292,10.093 39.332,10.093 C39.373,10.032 39.414,9.971 39.455,9.910 C39.496,9.910 39.536,9.910 39.577,9.910 C39.618,9.848 39.659,9.787 39.699,9.726 C39.740,9.726 39.781,9.726 39.822,9.726 C39.842,9.685 39.863,9.644 39.883,9.604 C39.924,9.604 39.965,9.604 40.005,9.604 C40.026,9.563 40.046,9.522 40.066,9.481 C40.107,9.481 40.148,9.481 40.189,9.481 C40.209,9.441 40.230,9.400 40.250,9.359 C40.291,9.359 40.332,9.359 40.372,9.359 C40.372,9.339 40.372,9.318 40.372,9.298 C40.454,9.277 40.535,9.257 40.617,9.237 C40.617,9.216 40.617,9.196 40.617,9.176 C40.739,9.155 40.862,9.135 40.984,9.114 C40.984,9.094 40.984,9.074 40.984,9.053 ZM4.221,9.665 C4.563,9.598 4.790,9.634 5.077,9.787 C5.077,9.808 5.077,9.828 5.077,9.848 C5.159,9.869 5.240,9.889 5.322,9.910 C5.342,9.950 5.363,9.991 5.383,10.032 C5.424,10.032 5.465,10.032 5.505,10.032 C5.526,10.073 5.546,10.113 5.566,10.154 C5.607,10.154 5.648,10.154 5.689,10.154 C5.750,10.236 5.811,10.317 5.872,10.399 C5.913,10.399 5.954,10.399 5.995,10.399 C6.015,10.440 6.035,10.481 6.056,10.521 C6.117,10.542 6.178,10.562 6.239,10.582 C6.301,10.664 6.362,10.746 6.423,10.827 C6.464,10.827 6.504,10.827 6.545,10.827 C6.566,10.868 6.586,10.909 6.606,10.949 C6.647,10.949 6.688,10.949 6.729,10.949 C6.769,11.011 6.810,11.072 6.851,11.133 C6.892,11.133 6.933,11.133 6.973,11.133 C6.994,11.174 7.014,11.215 7.035,11.255 C7.075,11.255 7.116,11.255 7.157,11.255 C7.198,11.316 7.238,11.378 7.279,11.439 C7.320,11.439 7.361,11.439 7.402,11.439 C7.422,11.480 7.442,11.520 7.463,11.561 C7.504,11.561 7.544,11.561 7.585,11.561 C7.626,11.622 7.667,11.684 7.707,11.745 C7.748,11.745 7.789,11.745 7.830,11.745 C7.871,11.806 7.911,11.867 7.952,11.928 C7.993,11.928 8.034,11.928 8.074,11.928 C8.136,12.010 8.197,12.091 8.258,12.173 C8.299,12.173 8.340,12.173 8.380,12.173 C8.380,12.193 8.380,12.214 8.380,12.234 C8.503,12.336 8.625,12.438 8.747,12.540 C8.747,12.601 8.747,12.662 8.747,12.723 C8.768,12.723 8.788,12.723 8.809,12.723 C8.809,12.744 8.809,12.764 8.809,12.785 C8.788,12.785 8.768,12.785 8.747,12.785 C8.747,12.846 8.747,12.907 8.747,12.968 C8.727,12.968 8.707,12.968 8.686,12.968 C8.686,13.009 8.686,13.050 8.686,13.090 C8.604,13.199 8.348,13.222 8.136,13.213 C8.028,13.091 8.002,13.162 7.891,13.090 C7.871,13.050 7.850,13.009 7.830,12.968 C7.789,12.968 7.748,12.968 7.707,12.968 C7.707,12.948 7.707,12.927 7.707,12.907 C7.667,12.907 7.626,12.907 7.585,12.907 C7.585,12.887 7.585,12.866 7.585,12.846 C7.524,12.825 7.463,12.805 7.402,12.785 C7.381,12.744 7.361,12.703 7.340,12.662 C7.300,12.662 7.259,12.662 7.218,12.662 C7.198,12.621 7.177,12.581 7.157,12.540 C7.116,12.540 7.075,12.540 7.035,12.540 C6.994,12.479 6.953,12.418 6.912,12.356 C6.871,12.356 6.831,12.356 6.790,12.356 C6.749,12.295 6.708,12.234 6.668,12.173 C6.627,12.173 6.586,12.173 6.545,12.173 C6.525,12.132 6.504,12.091 6.484,12.051 C6.443,12.051 6.402,12.051 6.362,12.051 C6.321,11.989 6.280,11.928 6.239,11.867 C6.199,11.867 6.158,11.867 6.117,11.867 C6.076,11.806 6.035,11.745 5.995,11.684 C5.954,11.684 5.913,11.684 5.872,11.684 C5.832,11.622 5.791,11.561 5.750,11.500 C5.709,11.500 5.668,11.500 5.628,11.500 C5.607,11.459 5.587,11.418 5.566,11.378 C5.526,11.378 5.485,11.378 5.444,11.378 C5.403,11.316 5.363,11.255 5.322,11.194 C5.281,11.194 5.240,11.194 5.199,11.194 C5.179,11.153 5.159,11.113 5.138,11.072 C5.098,11.072 5.057,11.072 5.016,11.072 C4.955,10.990 4.894,10.909 4.832,10.827 C4.792,10.827 4.751,10.827 4.710,10.827 C4.503,10.677 4.359,10.320 4.160,10.154 C4.159,9.935 4.190,9.823 4.221,9.665 ZM42.819,12.051 C43.023,12.052 43.096,12.083 43.247,12.112 C43.329,12.266 43.369,12.326 43.370,12.601 C43.247,12.703 43.125,12.805 43.003,12.907 C42.982,12.948 42.962,12.988 42.941,13.029 C42.901,13.029 42.860,13.029 42.819,13.029 C42.799,13.070 42.778,13.111 42.758,13.152 C42.717,13.152 42.676,13.152 42.636,13.152 C42.636,13.172 42.636,13.192 42.636,13.213 C42.595,13.213 42.554,13.213 42.513,13.213 C42.513,13.233 42.513,13.254 42.513,13.274 C42.473,13.274 42.432,13.274 42.391,13.274 C42.391,13.294 42.391,13.315 42.391,13.335 C42.350,13.335 42.309,13.335 42.269,13.335 C42.269,13.355 42.269,13.376 42.269,13.396 C42.228,13.396 42.187,13.396 42.146,13.396 C42.146,13.417 42.146,13.437 42.146,13.457 C42.024,13.498 41.902,13.539 41.779,13.580 C41.779,13.600 41.779,13.621 41.779,13.641 C41.657,13.682 41.535,13.723 41.412,13.763 C41.412,13.784 41.412,13.804 41.412,13.824 C41.331,13.845 41.249,13.865 41.168,13.886 C41.168,13.906 41.168,13.926 41.168,13.947 C41.086,13.967 41.004,13.988 40.923,14.008 C40.923,14.028 40.923,14.049 40.923,14.069 C40.882,14.069 40.841,14.069 40.801,14.069 C40.801,14.090 40.801,14.110 40.801,14.130 C40.760,14.130 40.719,14.130 40.678,14.130 C40.678,14.151 40.678,14.171 40.678,14.191 C40.637,14.191 40.597,14.191 40.556,14.191 C40.556,14.212 40.556,14.232 40.556,14.253 C40.515,14.253 40.474,14.253 40.434,14.253 C40.434,14.273 40.434,14.293 40.434,14.314 C40.393,14.314 40.352,14.314 40.311,14.314 C40.311,14.334 40.311,14.355 40.311,14.375 C40.270,14.375 40.230,14.375 40.189,14.375 C40.189,14.395 40.189,14.416 40.189,14.436 C40.148,14.436 40.107,14.436 40.066,14.436 C40.066,14.457 40.066,14.477 40.066,14.497 C40.026,14.497 39.985,14.497 39.944,14.497 C39.731,14.611 38.932,15.127 38.721,14.987 C38.374,14.956 38.338,14.765 38.354,14.375 C38.423,14.305 38.378,14.375 38.415,14.253 C38.492,14.214 38.502,14.153 38.537,14.130 C38.578,14.130 38.619,14.130 38.660,14.130 C38.660,14.110 38.660,14.090 38.660,14.069 C38.700,14.069 38.741,14.069 38.782,14.069 C38.802,14.028 38.823,13.988 38.843,13.947 C38.884,13.947 38.925,13.947 38.965,13.947 C38.986,13.906 39.006,13.865 39.027,13.824 C39.067,13.824 39.108,13.824 39.149,13.824 C39.149,13.804 39.149,13.784 39.149,13.763 C39.190,13.763 39.231,13.763 39.271,13.763 C39.271,13.743 39.271,13.723 39.271,13.702 C39.312,13.702 39.353,13.702 39.394,13.702 C39.394,13.682 39.394,13.661 39.394,13.641 C39.434,13.641 39.475,13.641 39.516,13.641 C39.536,13.600 39.557,13.559 39.577,13.519 C39.618,13.519 39.659,13.519 39.699,13.519 C39.699,13.498 39.699,13.478 39.699,13.457 C39.740,13.457 39.781,13.457 39.822,13.457 C39.822,13.437 39.822,13.417 39.822,13.396 C39.863,13.396 39.903,13.396 39.944,13.396 C39.944,13.376 39.944,13.355 39.944,13.335 C39.985,13.335 40.026,13.335 40.066,13.335 C40.066,13.315 40.066,13.294 40.066,13.274 C40.107,13.274 40.148,13.274 40.189,13.274 C40.189,13.254 40.189,13.233 40.189,13.213 C40.311,13.172 40.434,13.131 40.556,13.090 C40.556,13.070 40.556,13.050 40.556,13.029 C40.637,13.009 40.719,12.988 40.801,12.968 C40.801,12.948 40.801,12.927 40.801,12.907 C40.882,12.887 40.964,12.866 41.045,12.846 C41.045,12.825 41.045,12.805 41.045,12.785 C41.086,12.785 41.127,12.785 41.168,12.785 C41.168,12.764 41.168,12.744 41.168,12.723 C41.208,12.723 41.249,12.723 41.290,12.723 C41.290,12.703 41.290,12.683 41.290,12.662 C41.331,12.662 41.371,12.662 41.412,12.662 C41.412,12.642 41.412,12.621 41.412,12.601 C41.453,12.601 41.494,12.601 41.535,12.601 C41.535,12.581 41.535,12.560 41.535,12.540 C41.657,12.499 41.779,12.458 41.902,12.418 C41.902,12.397 41.902,12.377 41.902,12.356 C41.983,12.336 42.065,12.316 42.146,12.295 C42.146,12.275 42.146,12.254 42.146,12.234 C42.207,12.234 42.269,12.234 42.330,12.234 C42.330,12.214 42.330,12.193 42.330,12.173 C42.490,12.109 42.704,12.157 42.819,12.051 ZM2.508,12.662 C3.327,12.643 3.908,13.082 4.404,13.396 C4.445,13.396 4.486,13.396 4.527,13.396 C4.527,13.417 4.527,13.437 4.527,13.457 C4.567,13.457 4.608,13.457 4.649,13.457 C4.649,13.478 4.649,13.498 4.649,13.519 C4.690,13.519 4.731,13.519 4.771,13.519 C4.771,13.539 4.771,13.559 4.771,13.580 C4.812,13.580 4.853,13.580 4.894,13.580 C4.894,13.600 4.894,13.621 4.894,13.641 C5.016,13.682 5.138,13.723 5.261,13.763 C5.261,13.784 5.261,13.804 5.261,13.824 C5.342,13.845 5.424,13.865 5.505,13.886 C5.505,13.906 5.505,13.926 5.505,13.947 C5.587,13.967 5.668,13.988 5.750,14.008 C5.750,14.028 5.750,14.049 5.750,14.069 C5.791,14.069 5.832,14.069 5.872,14.069 C5.872,14.090 5.872,14.110 5.872,14.130 C5.913,14.130 5.954,14.130 5.995,14.130 C5.995,14.151 5.995,14.171 5.995,14.191 C6.035,14.191 6.076,14.191 6.117,14.191 C6.117,14.212 6.117,14.232 6.117,14.253 C6.158,14.253 6.199,14.253 6.239,14.253 C6.239,14.273 6.239,14.293 6.239,14.314 C6.321,14.334 6.402,14.355 6.484,14.375 C6.504,14.416 6.525,14.457 6.545,14.497 C6.627,14.518 6.708,14.538 6.790,14.559 C6.948,14.647 7.098,14.794 7.218,14.926 C7.259,14.946 7.300,14.966 7.340,14.987 C7.340,15.109 7.340,15.231 7.340,15.354 C7.261,15.418 7.249,15.479 7.157,15.537 C7.157,15.558 7.157,15.578 7.157,15.598 C7.035,15.619 6.912,15.639 6.790,15.660 C6.790,15.639 6.790,15.619 6.790,15.598 C6.668,15.578 6.545,15.558 6.423,15.537 C6.423,15.517 6.423,15.496 6.423,15.476 C6.341,15.456 6.260,15.435 6.178,15.415 C6.178,15.395 6.178,15.374 6.178,15.354 C6.117,15.354 6.056,15.354 5.995,15.354 C5.995,15.333 5.995,15.313 5.995,15.293 C5.954,15.293 5.913,15.293 5.872,15.293 C5.872,15.272 5.872,15.252 5.872,15.231 C5.832,15.231 5.791,15.231 5.750,15.231 C5.750,15.211 5.750,15.191 5.750,15.170 C5.424,15.027 5.097,14.885 4.771,14.742 C4.751,14.701 4.730,14.660 4.710,14.620 C4.588,14.579 4.465,14.538 4.343,14.497 C4.343,14.477 4.343,14.457 4.343,14.436 C4.262,14.416 4.180,14.395 4.098,14.375 C4.098,14.355 4.098,14.334 4.098,14.314 C4.017,14.293 3.935,14.273 3.854,14.253 C3.854,14.232 3.854,14.212 3.854,14.191 C3.813,14.191 3.772,14.191 3.731,14.191 C3.731,14.171 3.731,14.151 3.731,14.130 C3.691,14.130 3.650,14.130 3.609,14.130 C3.609,14.110 3.609,14.090 3.609,14.069 C3.568,14.069 3.527,14.069 3.487,14.069 C3.487,14.049 3.487,14.028 3.487,14.008 C3.446,14.008 3.405,14.008 3.364,14.008 C3.364,13.988 3.364,13.967 3.364,13.947 C3.283,13.926 3.201,13.906 3.120,13.886 C3.099,13.845 3.079,13.804 3.059,13.763 C3.018,13.763 2.977,13.763 2.936,13.763 C2.916,13.723 2.895,13.682 2.875,13.641 C2.834,13.641 2.793,13.641 2.753,13.641 C2.671,13.539 2.590,13.437 2.508,13.335 C2.467,13.315 2.426,13.294 2.386,13.274 C2.364,13.239 2.283,12.935 2.324,12.846 C2.324,12.846 2.477,12.716 2.508,12.662 ZM44.715,15.415 C44.763,15.663 44.762,15.718 44.715,15.965 C44.654,15.986 44.593,16.006 44.532,16.027 C44.512,16.067 44.491,16.108 44.471,16.149 C44.430,16.149 44.389,16.149 44.348,16.149 C44.348,16.169 44.348,16.190 44.348,16.210 C44.226,16.251 44.104,16.292 43.981,16.332 C43.981,16.353 43.981,16.373 43.981,16.394 C43.716,16.455 43.451,16.516 43.186,16.577 C43.186,16.598 43.186,16.618 43.186,16.638 C43.043,16.659 42.901,16.679 42.758,16.699 C42.758,16.720 42.758,16.740 42.758,16.761 C42.697,16.761 42.636,16.761 42.574,16.761 C42.574,16.781 42.574,16.801 42.574,16.822 C42.513,16.822 42.452,16.822 42.391,16.822 C42.391,16.842 42.391,16.863 42.391,16.883 C42.330,16.883 42.269,16.883 42.207,16.883 C42.207,16.903 42.207,16.924 42.207,16.944 C42.146,16.944 42.085,16.944 42.024,16.944 C42.024,16.965 42.024,16.985 42.024,17.005 C41.963,17.005 41.902,17.005 41.840,17.005 C41.840,17.026 41.840,17.046 41.840,17.066 C41.779,17.066 41.718,17.066 41.657,17.066 C41.657,17.087 41.657,17.107 41.657,17.128 C41.535,17.148 41.412,17.168 41.290,17.189 C41.290,17.209 41.290,17.230 41.290,17.250 C40.943,17.332 40.597,17.413 40.250,17.495 C40.250,17.515 40.250,17.535 40.250,17.556 C40.107,17.576 39.965,17.597 39.822,17.617 C39.822,17.597 39.822,17.576 39.822,17.556 C39.705,17.518 39.666,17.529 39.577,17.495 C39.504,17.325 39.370,17.110 39.516,16.883 C39.557,16.863 39.598,16.842 39.638,16.822 C39.659,16.781 39.679,16.740 39.699,16.699 C39.781,16.679 39.863,16.659 39.944,16.638 C39.944,16.618 39.944,16.598 39.944,16.577 C40.005,16.577 40.066,16.577 40.128,16.577 C40.128,16.557 40.128,16.536 40.128,16.516 C40.168,16.516 40.209,16.516 40.250,16.516 C40.250,16.496 40.250,16.475 40.250,16.455 C40.311,16.455 40.372,16.455 40.434,16.455 C40.434,16.434 40.434,16.414 40.434,16.394 C40.495,16.394 40.556,16.394 40.617,16.394 C40.617,16.373 40.617,16.353 40.617,16.332 C40.658,16.332 40.699,16.332 40.739,16.332 C40.739,16.312 40.739,16.292 40.739,16.271 C40.882,16.251 41.025,16.230 41.168,16.210 C41.168,16.190 41.168,16.169 41.168,16.149 C41.229,16.149 41.290,16.149 41.351,16.149 C41.351,16.129 41.351,16.108 41.351,16.088 C41.412,16.088 41.473,16.088 41.535,16.088 C41.535,16.067 41.535,16.047 41.535,16.027 C41.596,16.027 41.657,16.027 41.718,16.027 C41.718,16.006 41.718,15.986 41.718,15.965 C41.779,15.965 41.840,15.965 41.902,15.965 C41.902,15.945 41.902,15.925 41.902,15.904 C41.963,15.904 42.024,15.904 42.085,15.904 C42.085,15.884 42.085,15.863 42.085,15.843 C42.167,15.843 42.248,15.843 42.330,15.843 C42.330,15.823 42.330,15.802 42.330,15.782 C42.371,15.782 42.411,15.782 42.452,15.782 C42.452,15.762 42.452,15.741 42.452,15.721 C42.513,15.721 42.574,15.721 42.636,15.721 C42.636,15.700 42.636,15.680 42.636,15.660 C42.697,15.660 42.758,15.660 42.819,15.660 C42.819,15.639 42.819,15.619 42.819,15.598 C42.880,15.598 42.941,15.598 43.003,15.598 C43.003,15.578 43.003,15.558 43.003,15.537 C43.064,15.537 43.125,15.537 43.186,15.537 C43.186,15.517 43.186,15.496 43.186,15.476 C43.349,15.456 43.512,15.435 43.676,15.415 C43.772,15.384 44.265,15.250 44.410,15.293 C44.410,15.313 44.410,15.333 44.410,15.354 C44.512,15.374 44.613,15.395 44.715,15.415 ZM1.223,15.965 C2.137,15.937 2.629,16.208 3.242,16.455 C3.364,16.475 3.487,16.496 3.609,16.516 C3.609,16.536 3.609,16.557 3.609,16.577 C3.670,16.577 3.731,16.577 3.793,16.577 C3.793,16.598 3.793,16.618 3.793,16.638 C3.854,16.638 3.915,16.638 3.976,16.638 C3.976,16.659 3.976,16.679 3.976,16.699 C4.037,16.699 4.098,16.699 4.160,16.699 C4.160,16.720 4.160,16.740 4.160,16.761 C4.221,16.761 4.282,16.761 4.343,16.761 C4.343,16.781 4.343,16.801 4.343,16.822 C4.608,16.883 4.873,16.944 5.138,17.005 C5.138,17.026 5.138,17.046 5.138,17.066 C5.199,17.066 5.261,17.066 5.322,17.066 C5.322,17.087 5.322,17.107 5.322,17.128 C5.383,17.128 5.444,17.128 5.505,17.128 C5.505,17.148 5.505,17.168 5.505,17.189 C5.546,17.189 5.587,17.189 5.628,17.189 C5.628,17.209 5.628,17.230 5.628,17.250 C5.689,17.250 5.750,17.250 5.811,17.250 C5.811,17.270 5.811,17.291 5.811,17.311 C6.065,17.434 6.064,17.316 6.239,17.556 C6.260,17.556 6.280,17.556 6.301,17.556 C6.301,17.719 6.301,17.882 6.301,18.045 C6.246,18.077 6.117,18.229 6.117,18.229 C5.913,18.229 5.709,18.229 5.505,18.229 C5.362,18.105 5.213,18.178 5.016,18.106 C5.016,18.086 5.016,18.066 5.016,18.045 C4.955,18.045 4.894,18.045 4.832,18.045 C4.832,18.025 4.832,18.004 4.832,17.984 C4.771,17.984 4.710,17.984 4.649,17.984 C4.649,17.964 4.649,17.943 4.649,17.923 C4.567,17.923 4.486,17.923 4.404,17.923 C4.404,17.902 4.404,17.882 4.404,17.862 C4.282,17.841 4.160,17.821 4.037,17.801 C4.037,17.780 4.037,17.760 4.037,17.739 C3.976,17.739 3.915,17.739 3.854,17.739 C3.854,17.719 3.854,17.699 3.854,17.678 C3.793,17.678 3.731,17.678 3.670,17.678 C3.670,17.658 3.670,17.637 3.670,17.617 C3.609,17.617 3.548,17.617 3.487,17.617 C3.487,17.597 3.487,17.576 3.487,17.556 C3.426,17.556 3.364,17.556 3.303,17.556 C3.303,17.535 3.303,17.515 3.303,17.495 C3.242,17.495 3.181,17.495 3.120,17.495 C3.120,17.474 3.120,17.454 3.120,17.434 C2.997,17.413 2.875,17.393 2.753,17.372 C2.753,17.352 2.753,17.332 2.753,17.311 C2.549,17.270 2.345,17.230 2.141,17.189 C2.141,17.168 2.141,17.148 2.141,17.128 C2.100,17.128 2.059,17.128 2.019,17.128 C2.019,17.107 2.019,17.087 2.019,17.066 C1.957,17.066 1.896,17.066 1.835,17.066 C1.835,17.046 1.835,17.026 1.835,17.005 C1.794,17.005 1.754,17.005 1.713,17.005 C1.713,16.985 1.713,16.965 1.713,16.944 C1.672,16.944 1.631,16.944 1.590,16.944 C1.432,16.857 1.282,16.708 1.162,16.577 C1.121,16.557 1.081,16.536 1.040,16.516 C1.040,16.455 1.040,16.394 1.040,16.332 C1.020,16.332 0.999,16.332 0.979,16.332 C0.979,16.312 0.979,16.292 0.979,16.271 C0.999,16.271 1.020,16.271 1.040,16.271 C1.040,16.210 1.040,16.149 1.040,16.088 C1.060,16.088 1.081,16.088 1.101,16.088 C1.148,16.026 1.176,16.028 1.223,15.965 ZM44.226,18.718 C44.746,18.692 45.523,18.636 45.633,19.024 C45.653,19.085 45.674,19.146 45.694,19.207 C45.674,19.207 45.653,19.207 45.633,19.207 C45.513,19.639 45.126,19.562 44.715,19.697 C44.715,19.717 44.715,19.738 44.715,19.758 C44.613,19.758 44.512,19.758 44.410,19.758 C44.410,19.778 44.410,19.799 44.410,19.819 C44.246,19.819 44.083,19.819 43.920,19.819 C43.920,19.840 43.920,19.860 43.920,19.880 C43.757,19.880 43.594,19.880 43.431,19.880 C43.431,19.901 43.431,19.921 43.431,19.941 C43.288,19.941 43.145,19.941 43.003,19.941 C42.324,20.141 41.089,20.384 40.311,20.247 C40.229,20.065 40.188,19.938 40.189,19.636 C40.250,19.595 40.311,19.554 40.372,19.513 C40.372,19.493 40.372,19.473 40.372,19.452 C40.413,19.452 40.454,19.452 40.495,19.452 C40.495,19.432 40.495,19.411 40.495,19.391 C41.229,19.248 41.963,19.105 42.697,18.963 C42.840,18.963 42.982,18.963 43.125,18.963 C43.125,18.942 43.125,18.922 43.125,18.902 C43.247,18.902 43.370,18.902 43.492,18.902 C43.492,18.881 43.492,18.861 43.492,18.840 C43.594,18.840 43.696,18.840 43.798,18.840 C43.798,18.820 43.798,18.800 43.798,18.779 C43.941,18.779 44.083,18.779 44.226,18.779 C44.226,18.759 44.226,18.738 44.226,18.718 ZM0.551,19.391 C1.467,19.374 2.181,19.490 2.875,19.697 C3.283,19.738 3.691,19.778 4.098,19.819 C4.567,19.921 5.036,20.023 5.505,20.125 C5.718,20.473 5.823,20.390 5.628,20.859 C5.116,21.099 4.175,20.949 3.670,20.798 C3.548,20.798 3.426,20.798 3.303,20.798 C3.303,20.777 3.303,20.757 3.303,20.737 C3.181,20.737 3.058,20.737 2.936,20.737 C2.936,20.716 2.936,20.696 2.936,20.676 C2.814,20.676 2.691,20.676 2.569,20.676 C2.569,20.655 2.569,20.635 2.569,20.614 C2.426,20.614 2.284,20.614 2.141,20.614 C2.141,20.594 2.141,20.574 2.141,20.553 C1.998,20.553 1.855,20.553 1.713,20.553 C1.713,20.533 1.713,20.512 1.713,20.492 C1.611,20.492 1.509,20.492 1.407,20.492 C1.407,20.472 1.407,20.451 1.407,20.431 C1.305,20.431 1.203,20.431 1.101,20.431 C1.101,20.410 1.101,20.390 1.101,20.370 C0.792,20.255 0.398,20.265 0.306,19.941 C0.285,19.941 0.265,19.941 0.245,19.941 C0.245,19.819 0.245,19.697 0.245,19.574 C0.316,19.539 0.341,19.467 0.367,19.452 C0.428,19.452 0.489,19.452 0.551,19.452 C0.551,19.432 0.551,19.411 0.551,19.391 ZM45.939,22.939 C45.768,22.976 45.647,23.078 45.511,23.122 C45.388,23.122 45.266,23.122 45.144,23.122 C45.144,23.143 45.144,23.163 45.144,23.184 C44.471,23.163 43.798,23.143 43.125,23.122 C42.625,23.122 42.168,23.231 41.779,23.122 C41.453,23.122 41.127,23.122 40.801,23.122 C40.801,23.102 40.801,23.082 40.801,23.061 C40.693,23.022 40.641,23.034 40.556,23.000 C40.434,22.738 40.434,22.704 40.495,22.388 C40.561,22.352 40.592,22.281 40.617,22.266 C40.658,22.266 40.699,22.266 40.739,22.266 C40.739,22.246 40.739,22.225 40.739,22.205 C40.841,22.205 40.943,22.205 41.045,22.205 C41.380,22.104 41.956,22.144 42.391,22.144 C43.329,22.144 44.267,22.144 45.205,22.144 C45.409,22.205 45.613,22.266 45.816,22.327 C45.921,22.507 45.993,22.502 46.000,22.816 C45.930,22.886 45.976,22.817 45.939,22.939 ZM0.061,23.061 C0.232,23.024 0.353,22.922 0.489,22.878 C0.612,22.878 0.734,22.878 0.856,22.878 C0.856,22.857 0.856,22.837 0.856,22.816 C1.529,22.837 2.202,22.857 2.875,22.878 C3.375,22.878 3.832,22.769 4.221,22.878 C4.547,22.878 4.873,22.878 5.199,22.878 C5.199,22.898 5.199,22.918 5.199,22.939 C5.307,22.978 5.359,22.966 5.444,23.000 C5.566,23.262 5.566,23.296 5.505,23.612 C5.439,23.648 5.408,23.719 5.383,23.734 C5.342,23.734 5.301,23.734 5.261,23.734 C5.261,23.754 5.261,23.775 5.261,23.795 C5.159,23.795 5.057,23.795 4.955,23.795 C4.620,23.896 4.044,23.856 3.609,23.856 C2.671,23.856 1.733,23.856 0.795,23.856 C0.591,23.795 0.387,23.734 0.184,23.673 C0.079,23.493 0.007,23.498 -0.000,23.184 C0.070,23.114 0.024,23.183 0.061,23.061 ZM40.556,25.019 C41.478,24.995 42.352,25.111 43.064,25.324 C43.186,25.324 43.309,25.324 43.431,25.324 C43.431,25.345 43.431,25.365 43.431,25.386 C43.574,25.386 43.716,25.386 43.859,25.386 C43.859,25.406 43.859,25.426 43.859,25.447 C44.002,25.447 44.145,25.447 44.287,25.447 C44.287,25.467 44.287,25.488 44.287,25.508 C44.389,25.508 44.491,25.508 44.593,25.508 C44.593,25.528 44.593,25.549 44.593,25.569 C44.695,25.569 44.797,25.569 44.899,25.569 C44.899,25.590 44.899,25.610 44.899,25.630 C45.208,25.745 45.602,25.735 45.694,26.059 C45.715,26.059 45.735,26.059 45.755,26.059 C45.755,26.181 45.755,26.303 45.755,26.426 C45.715,26.446 45.674,26.466 45.633,26.487 C45.524,26.599 44.754,26.692 44.471,26.609 C44.471,26.589 44.471,26.568 44.471,26.548 C44.348,26.548 44.226,26.548 44.104,26.548 C43.710,26.427 43.164,26.362 42.758,26.242 C42.473,26.222 42.187,26.201 41.902,26.181 C41.433,26.079 40.964,25.977 40.495,25.875 C40.368,25.667 40.218,25.653 40.311,25.386 C40.311,25.324 40.311,25.263 40.311,25.202 C40.332,25.202 40.352,25.202 40.372,25.202 C40.393,25.161 40.413,25.121 40.434,25.080 C40.474,25.080 40.515,25.080 40.556,25.080 C40.556,25.059 40.556,25.039 40.556,25.019 ZM4.955,25.691 C5.235,25.688 5.487,25.714 5.689,25.753 C5.771,25.935 5.812,26.062 5.811,26.364 C5.750,26.405 5.689,26.446 5.628,26.487 C5.628,26.507 5.628,26.527 5.628,26.548 C5.587,26.548 5.546,26.548 5.505,26.548 C5.505,26.568 5.505,26.589 5.505,26.609 C5.261,26.650 5.016,26.691 4.771,26.731 C3.865,27.008 2.698,27.023 1.774,27.282 C1.430,27.378 0.457,27.243 0.367,27.098 C0.367,27.037 0.367,26.976 0.367,26.915 C0.361,26.896 0.267,26.899 0.306,26.793 C0.326,26.793 0.347,26.793 0.367,26.793 C0.494,26.353 0.872,26.440 1.285,26.303 C1.285,26.283 1.285,26.262 1.285,26.242 C1.387,26.242 1.488,26.242 1.590,26.242 C1.590,26.222 1.590,26.201 1.590,26.181 C1.754,26.181 1.917,26.181 2.080,26.181 C2.080,26.160 2.080,26.140 2.080,26.120 C2.243,26.120 2.406,26.120 2.569,26.120 C3.017,25.990 3.594,25.943 4.037,25.814 C4.302,25.737 4.785,25.842 4.955,25.691 ZM39.883,27.771 C40.459,27.754 40.785,27.865 41.168,28.016 C41.229,28.016 41.290,28.016 41.351,28.016 C41.351,28.036 41.351,28.057 41.351,28.077 C41.616,28.138 41.881,28.199 42.146,28.261 C42.146,28.281 42.146,28.301 42.146,28.322 C42.269,28.342 42.391,28.363 42.513,28.383 C42.513,28.403 42.513,28.424 42.513,28.444 C42.574,28.444 42.636,28.444 42.697,28.444 C42.697,28.465 42.697,28.485 42.697,28.505 C42.758,28.505 42.819,28.505 42.880,28.505 C42.880,28.526 42.880,28.546 42.880,28.566 C42.941,28.566 43.003,28.566 43.064,28.566 C43.064,28.587 43.064,28.607 43.064,28.628 C43.125,28.628 43.186,28.628 43.247,28.628 C43.247,28.648 43.247,28.668 43.247,28.689 C43.309,28.689 43.370,28.689 43.431,28.689 C43.431,28.709 43.431,28.730 43.431,28.750 C43.574,28.770 43.716,28.791 43.859,28.811 C43.859,28.832 43.859,28.852 43.859,28.872 C43.900,28.872 43.941,28.872 43.981,28.872 C43.981,28.893 43.981,28.913 43.981,28.934 C44.043,28.934 44.104,28.934 44.165,28.934 C44.165,28.954 44.165,28.974 44.165,28.995 C44.206,28.995 44.246,28.995 44.287,28.995 C44.287,29.015 44.287,29.035 44.287,29.056 C44.328,29.056 44.369,29.056 44.410,29.056 C44.568,29.143 44.718,29.292 44.838,29.423 C44.879,29.443 44.919,29.464 44.960,29.484 C44.960,29.545 44.960,29.606 44.960,29.668 C44.980,29.668 45.001,29.668 45.021,29.668 C45.021,29.688 45.021,29.708 45.021,29.729 C45.001,29.729 44.980,29.729 44.960,29.729 C44.960,29.790 44.960,29.851 44.960,29.912 C44.940,29.912 44.919,29.912 44.899,29.912 C44.829,29.982 44.899,29.937 44.777,29.973 C44.617,30.125 43.787,29.981 43.614,29.912 C43.614,29.892 43.614,29.871 43.614,29.851 C43.492,29.831 43.370,29.810 43.247,29.790 C43.247,29.770 43.247,29.749 43.247,29.729 C43.186,29.729 43.125,29.729 43.064,29.729 C43.064,29.708 43.064,29.688 43.064,29.668 C43.023,29.668 42.982,29.668 42.941,29.668 C42.941,29.647 42.941,29.627 42.941,29.606 C42.758,29.566 42.574,29.525 42.391,29.484 C42.391,29.464 42.391,29.443 42.391,29.423 C42.269,29.402 42.146,29.382 42.024,29.362 C42.024,29.341 42.024,29.321 42.024,29.301 C41.820,29.260 41.616,29.219 41.412,29.178 C41.412,29.158 41.412,29.137 41.412,29.117 C41.351,29.117 41.290,29.117 41.229,29.117 C41.229,29.097 41.229,29.076 41.229,29.056 C41.168,29.056 41.106,29.056 41.045,29.056 C41.045,29.035 41.045,29.015 41.045,28.995 C40.984,28.995 40.923,28.995 40.862,28.995 C40.862,28.974 40.862,28.954 40.862,28.934 C40.801,28.934 40.739,28.934 40.678,28.934 C40.678,28.913 40.678,28.893 40.678,28.872 C40.617,28.872 40.556,28.872 40.495,28.872 C40.495,28.852 40.495,28.832 40.495,28.811 C40.454,28.811 40.413,28.811 40.372,28.811 C40.372,28.791 40.372,28.770 40.372,28.750 C40.311,28.750 40.250,28.750 40.189,28.750 C40.189,28.730 40.189,28.709 40.189,28.689 C39.935,28.566 39.937,28.684 39.761,28.444 C39.740,28.444 39.720,28.444 39.699,28.444 C39.557,28.144 39.815,27.887 39.883,27.771 ZM1.285,30.585 C1.237,30.337 1.238,30.282 1.285,30.035 C1.346,30.014 1.407,29.994 1.468,29.973 C1.488,29.933 1.509,29.892 1.529,29.851 C1.570,29.851 1.611,29.851 1.652,29.851 C1.652,29.831 1.652,29.810 1.652,29.790 C1.774,29.749 1.896,29.708 2.019,29.668 C2.019,29.647 2.019,29.627 2.019,29.606 C2.284,29.545 2.549,29.484 2.814,29.423 C2.814,29.402 2.814,29.382 2.814,29.362 C2.957,29.341 3.099,29.321 3.242,29.301 C3.242,29.280 3.242,29.260 3.242,29.239 C3.303,29.239 3.364,29.239 3.426,29.239 C3.426,29.219 3.426,29.199 3.426,29.178 C3.487,29.178 3.548,29.178 3.609,29.178 C3.609,29.158 3.609,29.137 3.609,29.117 C3.670,29.117 3.731,29.117 3.793,29.117 C3.793,29.097 3.793,29.076 3.793,29.056 C3.854,29.056 3.915,29.056 3.976,29.056 C3.976,29.035 3.976,29.015 3.976,28.995 C4.037,28.995 4.098,28.995 4.160,28.995 C4.160,28.974 4.160,28.954 4.160,28.934 C4.221,28.934 4.282,28.934 4.343,28.934 C4.343,28.913 4.343,28.893 4.343,28.872 C4.465,28.852 4.588,28.832 4.710,28.811 C4.710,28.791 4.710,28.770 4.710,28.750 C5.057,28.668 5.403,28.587 5.750,28.505 C5.750,28.485 5.750,28.465 5.750,28.444 C5.893,28.424 6.035,28.403 6.178,28.383 C6.178,28.403 6.178,28.424 6.178,28.444 C6.295,28.482 6.334,28.471 6.423,28.505 C6.496,28.675 6.630,28.890 6.484,29.117 C6.443,29.137 6.402,29.158 6.362,29.178 C6.341,29.219 6.321,29.260 6.301,29.301 C6.219,29.321 6.137,29.341 6.056,29.362 C6.056,29.382 6.056,29.402 6.056,29.423 C5.995,29.423 5.934,29.423 5.872,29.423 C5.872,29.443 5.872,29.464 5.872,29.484 C5.832,29.484 5.791,29.484 5.750,29.484 C5.750,29.504 5.750,29.525 5.750,29.545 C5.689,29.545 5.628,29.545 5.566,29.545 C5.566,29.566 5.566,29.586 5.566,29.606 C5.505,29.606 5.444,29.606 5.383,29.606 C5.383,29.627 5.383,29.647 5.383,29.668 C5.342,29.668 5.301,29.668 5.261,29.668 C5.261,29.688 5.261,29.708 5.261,29.729 C5.118,29.749 4.975,29.770 4.832,29.790 C4.832,29.810 4.832,29.831 4.832,29.851 C4.771,29.851 4.710,29.851 4.649,29.851 C4.649,29.871 4.649,29.892 4.649,29.912 C4.588,29.912 4.527,29.912 4.465,29.912 C4.465,29.933 4.465,29.953 4.465,29.973 C4.404,29.973 4.343,29.973 4.282,29.973 C4.282,29.994 4.282,30.014 4.282,30.035 C4.221,30.035 4.160,30.035 4.098,30.035 C4.098,30.055 4.098,30.075 4.098,30.096 C4.037,30.096 3.976,30.096 3.915,30.096 C3.915,30.116 3.915,30.137 3.915,30.157 C3.833,30.157 3.752,30.157 3.670,30.157 C3.670,30.177 3.670,30.198 3.670,30.218 C3.609,30.218 3.548,30.218 3.487,30.218 C3.487,30.238 3.487,30.259 3.487,30.279 C3.446,30.279 3.405,30.279 3.364,30.279 C3.364,30.300 3.364,30.320 3.364,30.340 C3.181,30.381 2.997,30.422 2.814,30.463 C2.814,30.483 2.814,30.504 2.814,30.524 C2.651,30.544 2.488,30.565 2.324,30.585 C2.228,30.616 1.735,30.750 1.590,30.707 C1.590,30.687 1.590,30.667 1.590,30.646 C1.488,30.626 1.387,30.605 1.285,30.585 ZM39.027,30.340 C39.274,30.358 39.625,30.489 39.822,30.585 C39.822,30.605 39.822,30.626 39.822,30.646 C40.005,30.707 40.189,30.769 40.372,30.830 C40.372,30.850 40.372,30.871 40.372,30.891 C40.413,30.891 40.454,30.891 40.495,30.891 C40.495,30.911 40.495,30.932 40.495,30.952 C40.535,30.952 40.576,30.952 40.617,30.952 C40.617,30.973 40.617,30.993 40.617,31.013 C40.658,31.013 40.699,31.013 40.739,31.013 C40.739,31.034 40.739,31.054 40.739,31.074 C40.780,31.074 40.821,31.074 40.862,31.074 C40.862,31.095 40.862,31.115 40.862,31.136 C40.902,31.136 40.943,31.136 40.984,31.136 C40.984,31.156 40.984,31.176 40.984,31.197 C41.025,31.197 41.066,31.197 41.106,31.197 C41.106,31.217 41.106,31.238 41.106,31.258 C41.147,31.258 41.188,31.258 41.229,31.258 C41.249,31.299 41.270,31.340 41.290,31.380 C41.412,31.421 41.535,31.462 41.657,31.503 C41.657,31.523 41.657,31.543 41.657,31.564 C41.738,31.584 41.820,31.605 41.902,31.625 C41.902,31.645 41.902,31.666 41.902,31.686 C41.983,31.707 42.065,31.727 42.146,31.747 C42.146,31.768 42.146,31.788 42.146,31.809 C42.187,31.809 42.228,31.809 42.269,31.809 C42.269,31.829 42.269,31.849 42.269,31.870 C42.309,31.870 42.350,31.870 42.391,31.870 C42.391,31.890 42.391,31.910 42.391,31.931 C42.432,31.931 42.473,31.931 42.513,31.931 C42.513,31.951 42.513,31.972 42.513,31.992 C42.554,31.992 42.595,31.992 42.636,31.992 C42.636,32.012 42.636,32.033 42.636,32.053 C43.074,32.291 43.673,32.491 43.676,33.154 C43.440,33.291 43.483,33.340 43.064,33.338 C43.064,33.317 43.064,33.297 43.064,33.277 C42.921,33.256 42.778,33.236 42.636,33.215 C42.636,33.195 42.636,33.175 42.636,33.154 C42.554,33.134 42.473,33.113 42.391,33.093 C42.391,33.073 42.391,33.052 42.391,33.032 C42.269,32.991 42.146,32.950 42.024,32.910 C42.024,32.889 42.024,32.869 42.024,32.848 C41.983,32.848 41.942,32.848 41.902,32.848 C41.902,32.828 41.902,32.808 41.902,32.787 C41.861,32.787 41.820,32.787 41.779,32.787 C41.779,32.767 41.779,32.746 41.779,32.726 C41.738,32.726 41.698,32.726 41.657,32.726 C41.637,32.685 41.616,32.644 41.596,32.604 C41.555,32.604 41.514,32.604 41.473,32.604 C41.473,32.583 41.473,32.563 41.473,32.543 C41.433,32.543 41.392,32.543 41.351,32.543 C41.351,32.522 41.351,32.502 41.351,32.481 C41.310,32.481 41.269,32.481 41.229,32.481 C41.229,32.461 41.229,32.441 41.229,32.420 C41.188,32.420 41.147,32.420 41.106,32.420 C41.106,32.400 41.106,32.379 41.106,32.359 C40.984,32.318 40.862,32.277 40.739,32.237 C40.739,32.216 40.739,32.196 40.739,32.176 C40.658,32.155 40.576,32.135 40.495,32.114 C40.495,32.094 40.495,32.074 40.495,32.053 C40.413,32.033 40.332,32.012 40.250,31.992 C40.250,31.972 40.250,31.951 40.250,31.931 C40.209,31.931 40.168,31.931 40.128,31.931 C40.128,31.910 40.128,31.890 40.128,31.870 C40.087,31.870 40.046,31.870 40.005,31.870 C40.005,31.849 40.005,31.829 40.005,31.809 C39.965,31.809 39.924,31.809 39.883,31.809 C39.883,31.788 39.883,31.768 39.883,31.747 C39.842,31.747 39.801,31.747 39.761,31.747 C39.761,31.727 39.761,31.707 39.761,31.686 C39.720,31.686 39.679,31.686 39.638,31.686 C39.638,31.666 39.638,31.645 39.638,31.625 C39.598,31.625 39.557,31.625 39.516,31.625 C39.496,31.584 39.475,31.543 39.455,31.503 C39.373,31.482 39.292,31.462 39.210,31.441 C39.052,31.353 38.902,31.206 38.782,31.074 C38.741,31.054 38.700,31.034 38.660,31.013 C38.660,30.891 38.660,30.769 38.660,30.646 C38.739,30.582 38.751,30.521 38.843,30.463 C38.843,30.442 38.843,30.422 38.843,30.402 C38.904,30.402 38.965,30.402 39.027,30.402 C39.027,30.381 39.027,30.361 39.027,30.340 ZM7.157,30.952 C7.559,31.014 7.664,31.137 7.646,31.625 C7.577,31.695 7.622,31.625 7.585,31.747 C7.512,31.786 7.496,31.848 7.463,31.870 C7.422,31.870 7.381,31.870 7.340,31.870 C7.340,31.890 7.340,31.910 7.340,31.931 C7.300,31.931 7.259,31.931 7.218,31.931 C7.198,31.972 7.177,32.012 7.157,32.053 C7.116,32.053 7.075,32.053 7.035,32.053 C7.014,32.094 6.994,32.135 6.973,32.176 C6.851,32.216 6.729,32.257 6.606,32.298 C6.606,32.318 6.606,32.339 6.606,32.359 C6.566,32.359 6.525,32.359 6.484,32.359 C6.464,32.400 6.443,32.441 6.423,32.481 C6.097,32.624 5.770,32.767 5.444,32.910 C5.444,32.930 5.444,32.950 5.444,32.971 C5.363,32.991 5.281,33.012 5.199,33.032 C5.199,33.052 5.199,33.073 5.199,33.093 C5.118,33.113 5.036,33.134 4.955,33.154 C4.955,33.175 4.955,33.195 4.955,33.215 C4.914,33.215 4.873,33.215 4.832,33.215 C4.832,33.236 4.832,33.256 4.832,33.277 C4.792,33.277 4.751,33.277 4.710,33.277 C4.710,33.297 4.710,33.317 4.710,33.338 C4.669,33.338 4.629,33.338 4.588,33.338 C4.588,33.358 4.588,33.379 4.588,33.399 C4.547,33.399 4.506,33.399 4.465,33.399 C4.465,33.419 4.465,33.440 4.465,33.460 C4.343,33.501 4.221,33.542 4.098,33.582 C4.098,33.603 4.098,33.623 4.098,33.644 C4.017,33.664 3.935,33.684 3.854,33.705 C3.854,33.725 3.854,33.746 3.854,33.766 C3.793,33.766 3.731,33.766 3.670,33.766 C3.670,33.786 3.670,33.807 3.670,33.827 C3.398,33.934 2.758,34.015 2.630,33.766 C2.630,33.644 2.630,33.521 2.630,33.399 C2.773,33.277 2.916,33.154 3.059,33.032 C3.059,33.012 3.059,32.991 3.059,32.971 C3.099,32.971 3.140,32.971 3.181,32.971 C3.201,32.930 3.222,32.889 3.242,32.848 C3.283,32.848 3.324,32.848 3.364,32.848 C3.364,32.828 3.364,32.808 3.364,32.787 C3.405,32.787 3.446,32.787 3.487,32.787 C3.487,32.767 3.487,32.746 3.487,32.726 C3.527,32.726 3.568,32.726 3.609,32.726 C3.609,32.706 3.609,32.685 3.609,32.665 C3.650,32.665 3.691,32.665 3.731,32.665 C3.731,32.645 3.731,32.624 3.731,32.604 C3.772,32.604 3.813,32.604 3.854,32.604 C3.854,32.583 3.854,32.563 3.854,32.543 C3.894,32.543 3.935,32.543 3.976,32.543 C3.976,32.522 3.976,32.502 3.976,32.481 C4.098,32.441 4.221,32.400 4.343,32.359 C4.343,32.339 4.343,32.318 4.343,32.298 C4.425,32.277 4.506,32.257 4.588,32.237 C4.588,32.216 4.588,32.196 4.588,32.176 C4.669,32.155 4.751,32.135 4.832,32.114 C4.832,32.094 4.832,32.074 4.832,32.053 C4.914,32.033 4.996,32.012 5.077,31.992 C5.077,31.972 5.077,31.951 5.077,31.931 C5.118,31.931 5.159,31.931 5.199,31.931 C5.199,31.910 5.199,31.890 5.199,31.870 C5.240,31.870 5.281,31.870 5.322,31.870 C5.322,31.849 5.322,31.829 5.322,31.809 C5.363,31.809 5.403,31.809 5.444,31.809 C5.444,31.788 5.444,31.768 5.444,31.747 C5.485,31.747 5.526,31.747 5.566,31.747 C5.566,31.727 5.566,31.707 5.566,31.686 C6.097,31.442 6.627,31.197 7.157,30.952 ZM41.779,36.335 C41.437,36.402 41.210,36.366 40.923,36.213 C40.923,36.192 40.923,36.172 40.923,36.152 C40.841,36.131 40.760,36.111 40.678,36.090 C40.658,36.050 40.637,36.009 40.617,35.968 C40.576,35.968 40.535,35.968 40.495,35.968 C40.474,35.927 40.454,35.887 40.434,35.846 C40.393,35.846 40.352,35.846 40.311,35.846 C40.250,35.764 40.189,35.683 40.128,35.601 C40.087,35.601 40.046,35.601 40.005,35.601 C39.985,35.560 39.965,35.519 39.944,35.479 C39.883,35.458 39.822,35.438 39.761,35.418 C39.699,35.336 39.638,35.254 39.577,35.173 C39.536,35.173 39.496,35.173 39.455,35.173 C39.434,35.132 39.414,35.091 39.394,35.051 C39.353,35.051 39.312,35.051 39.271,35.051 C39.231,34.989 39.190,34.928 39.149,34.867 C39.108,34.867 39.067,34.867 39.027,34.867 C39.006,34.826 38.986,34.785 38.965,34.745 C38.925,34.745 38.884,34.745 38.843,34.745 C38.802,34.684 38.762,34.622 38.721,34.561 C38.680,34.561 38.639,34.561 38.598,34.561 C38.578,34.520 38.558,34.480 38.537,34.439 C38.496,34.439 38.456,34.439 38.415,34.439 C38.374,34.378 38.333,34.316 38.293,34.255 C38.252,34.255 38.211,34.255 38.170,34.255 C38.129,34.194 38.089,34.133 38.048,34.072 C38.007,34.072 37.966,34.072 37.926,34.072 C37.885,34.011 37.844,33.949 37.803,33.888 C37.762,33.888 37.722,33.888 37.681,33.888 C37.559,33.746 37.436,33.603 37.314,33.460 C37.293,33.460 37.273,33.460 37.253,33.460 C37.253,33.399 37.253,33.338 37.253,33.277 C37.232,33.277 37.212,33.277 37.191,33.277 C37.191,33.256 37.191,33.236 37.191,33.215 C37.212,33.215 37.232,33.215 37.253,33.215 C37.253,33.154 37.253,33.093 37.253,33.032 C37.273,33.032 37.293,33.032 37.314,33.032 C37.314,32.991 37.314,32.950 37.314,32.910 C37.396,32.801 37.652,32.778 37.864,32.787 C37.972,32.909 37.998,32.838 38.109,32.910 C38.129,32.950 38.150,32.991 38.170,33.032 C38.211,33.032 38.252,33.032 38.293,33.032 C38.293,33.052 38.293,33.073 38.293,33.093 C38.333,33.093 38.374,33.093 38.415,33.093 C38.415,33.113 38.415,33.134 38.415,33.154 C38.476,33.175 38.537,33.195 38.598,33.215 C38.619,33.256 38.639,33.297 38.660,33.338 C38.700,33.338 38.741,33.338 38.782,33.338 C38.802,33.379 38.823,33.419 38.843,33.460 C38.884,33.460 38.925,33.460 38.965,33.460 C39.006,33.521 39.047,33.582 39.088,33.644 C39.129,33.644 39.169,33.644 39.210,33.644 C39.251,33.705 39.292,33.766 39.332,33.827 C39.373,33.827 39.414,33.827 39.455,33.827 C39.475,33.868 39.496,33.909 39.516,33.949 C39.557,33.949 39.598,33.949 39.638,33.949 C39.679,34.011 39.720,34.072 39.761,34.133 C39.801,34.133 39.842,34.133 39.883,34.133 C39.924,34.194 39.965,34.255 40.005,34.316 C40.046,34.316 40.087,34.316 40.128,34.316 C40.168,34.378 40.209,34.439 40.250,34.500 C40.291,34.500 40.332,34.500 40.372,34.500 C40.393,34.541 40.413,34.582 40.434,34.622 C40.474,34.622 40.515,34.622 40.556,34.622 C40.597,34.684 40.637,34.745 40.678,34.806 C40.719,34.806 40.760,34.806 40.801,34.806 C40.821,34.847 40.841,34.887 40.862,34.928 C40.902,34.928 40.943,34.928 40.984,34.928 C41.045,35.010 41.106,35.091 41.168,35.173 C41.208,35.173 41.249,35.173 41.290,35.173 C41.497,35.323 41.641,35.680 41.840,35.846 C41.841,36.065 41.810,36.177 41.779,36.335 ZM8.564,33.338 C8.768,33.339 8.841,33.370 8.992,33.399 C9.106,33.606 9.169,33.602 9.176,33.949 C9.012,34.133 8.849,34.317 8.686,34.500 C8.645,34.500 8.605,34.500 8.564,34.500 C8.503,34.582 8.441,34.663 8.380,34.745 C8.319,34.765 8.258,34.785 8.197,34.806 C8.176,34.847 8.156,34.887 8.136,34.928 C8.095,34.928 8.054,34.928 8.013,34.928 C7.973,34.989 7.932,35.051 7.891,35.112 C7.830,35.132 7.769,35.152 7.707,35.173 C7.687,35.214 7.667,35.254 7.646,35.295 C7.606,35.295 7.565,35.295 7.524,35.295 C7.524,35.316 7.524,35.336 7.524,35.356 C7.463,35.377 7.402,35.397 7.340,35.418 C7.320,35.458 7.300,35.499 7.279,35.540 C7.238,35.540 7.198,35.540 7.157,35.540 C7.116,35.601 7.075,35.662 7.035,35.723 C6.994,35.723 6.953,35.723 6.912,35.723 C6.871,35.785 6.831,35.846 6.790,35.907 C6.749,35.907 6.708,35.907 6.668,35.907 C6.627,35.968 6.586,36.029 6.545,36.090 C6.504,36.090 6.464,36.090 6.423,36.090 C6.382,36.152 6.341,36.213 6.301,36.274 C6.260,36.274 6.219,36.274 6.178,36.274 C6.158,36.315 6.137,36.356 6.117,36.396 C5.772,36.627 5.289,36.916 4.771,36.947 C4.570,36.710 4.524,36.884 4.527,36.396 C4.730,36.172 4.934,35.948 5.138,35.723 C5.179,35.723 5.220,35.723 5.261,35.723 C5.301,35.662 5.342,35.601 5.383,35.540 C5.424,35.540 5.465,35.540 5.505,35.540 C5.526,35.499 5.546,35.458 5.566,35.418 C5.607,35.418 5.648,35.418 5.689,35.418 C5.689,35.397 5.689,35.377 5.689,35.356 C5.750,35.336 5.811,35.316 5.872,35.295 C5.893,35.254 5.913,35.214 5.934,35.173 C5.974,35.173 6.015,35.173 6.056,35.173 C6.097,35.112 6.137,35.051 6.178,34.989 C6.219,34.989 6.260,34.989 6.301,34.989 C6.321,34.949 6.341,34.908 6.362,34.867 C6.402,34.867 6.443,34.867 6.484,34.867 C6.525,34.806 6.566,34.745 6.606,34.684 C6.647,34.684 6.688,34.684 6.729,34.684 C6.769,34.622 6.810,34.561 6.851,34.500 C6.892,34.500 6.933,34.500 6.973,34.500 C7.014,34.439 7.055,34.378 7.096,34.316 C7.137,34.316 7.177,34.316 7.218,34.316 C7.238,34.276 7.259,34.235 7.279,34.194 C7.320,34.194 7.361,34.194 7.402,34.194 C7.442,34.133 7.483,34.072 7.524,34.011 C7.565,34.011 7.606,34.011 7.646,34.011 C7.667,33.970 7.687,33.929 7.707,33.888 C7.748,33.888 7.789,33.888 7.830,33.888 C7.871,33.827 7.911,33.766 7.952,33.705 C7.993,33.705 8.034,33.705 8.074,33.705 C8.095,33.664 8.115,33.623 8.136,33.582 C8.176,33.582 8.217,33.582 8.258,33.582 C8.258,33.562 8.258,33.542 8.258,33.521 C8.299,33.521 8.340,33.521 8.380,33.521 C8.401,33.481 8.421,33.440 8.441,33.399 C8.482,33.399 8.523,33.399 8.564,33.399 C8.564,33.379 8.564,33.358 8.564,33.338 ZM35.846,34.928 C35.948,34.949 36.050,34.969 36.152,34.989 C36.192,35.051 36.233,35.112 36.274,35.173 C36.315,35.173 36.356,35.173 36.396,35.173 C36.457,35.254 36.519,35.336 36.580,35.418 C36.641,35.438 36.702,35.458 36.763,35.479 C36.845,35.581 36.926,35.683 37.008,35.785 C37.708,36.483 38.504,37.113 39.088,37.926 C39.169,37.987 39.251,38.048 39.332,38.109 C39.332,38.150 39.332,38.191 39.332,38.231 C39.373,38.252 39.414,38.272 39.455,38.293 C39.568,38.473 39.577,38.672 39.577,38.965 C39.397,39.070 39.402,39.142 39.088,39.149 C38.955,38.993 38.771,38.965 38.598,38.843 C38.517,38.741 38.435,38.639 38.354,38.537 C38.313,38.537 38.272,38.537 38.231,38.537 C38.109,38.374 37.987,38.211 37.864,38.048 C37.681,37.885 37.497,37.722 37.314,37.559 C36.988,37.212 36.661,36.865 36.335,36.519 C36.102,36.286 35.227,35.625 35.479,35.173 C35.499,35.173 35.520,35.173 35.540,35.173 C35.581,35.112 35.621,35.051 35.662,34.989 C35.723,34.989 35.785,34.989 35.846,34.989 C35.846,34.969 35.846,34.949 35.846,34.928 ZM10.521,35.418 C10.731,35.451 10.858,35.508 10.949,35.662 C10.970,35.662 10.990,35.662 11.011,35.662 C11.031,35.764 11.051,35.866 11.072,35.968 C11.051,35.968 11.031,35.968 11.011,35.968 C10.977,36.243 10.795,36.419 10.644,36.580 C10.603,36.600 10.562,36.621 10.521,36.641 C10.521,36.682 10.521,36.723 10.521,36.763 C10.399,36.865 10.277,36.967 10.154,37.069 C9.474,37.749 8.865,38.520 8.074,39.088 C8.013,39.169 7.952,39.251 7.891,39.332 C7.850,39.332 7.809,39.332 7.769,39.332 C7.748,39.373 7.728,39.414 7.707,39.455 C7.527,39.568 7.328,39.577 7.035,39.577 C6.930,39.397 6.858,39.402 6.851,39.088 C7.008,38.957 7.035,38.770 7.157,38.598 C7.259,38.517 7.361,38.435 7.463,38.354 C7.463,38.313 7.463,38.272 7.463,38.231 C7.524,38.191 7.585,38.150 7.646,38.109 C7.667,38.068 7.687,38.027 7.707,37.987 C8.519,37.398 9.144,36.605 9.848,35.907 C9.910,35.866 9.971,35.825 10.032,35.785 C10.032,35.764 10.032,35.744 10.032,35.723 C10.073,35.723 10.113,35.723 10.154,35.723 C10.215,35.642 10.277,35.560 10.338,35.479 C10.399,35.479 10.460,35.479 10.521,35.479 C10.521,35.458 10.521,35.438 10.521,35.418 ZM33.644,36.824 C33.746,36.824 33.848,36.824 33.949,36.824 C33.949,36.845 33.949,36.865 33.949,36.886 C33.990,36.886 34.031,36.886 34.072,36.886 C34.072,36.906 34.072,36.926 34.072,36.947 C34.215,37.069 34.357,37.192 34.500,37.314 C34.500,37.355 34.500,37.395 34.500,37.436 C34.582,37.497 34.663,37.559 34.745,37.620 C34.745,37.660 34.745,37.701 34.745,37.742 C34.806,37.783 34.867,37.824 34.928,37.864 C34.928,37.905 34.928,37.946 34.928,37.987 C34.989,38.027 35.051,38.068 35.112,38.109 C35.132,38.170 35.152,38.231 35.173,38.293 C35.214,38.313 35.254,38.333 35.295,38.354 C35.295,38.394 35.295,38.435 35.295,38.476 C35.316,38.476 35.336,38.476 35.356,38.476 C35.377,38.537 35.397,38.598 35.418,38.660 C35.458,38.680 35.499,38.700 35.540,38.721 C35.540,38.762 35.540,38.802 35.540,38.843 C35.601,38.884 35.662,38.925 35.723,38.965 C35.723,39.006 35.723,39.047 35.723,39.088 C35.785,39.129 35.846,39.169 35.907,39.210 C35.907,39.251 35.907,39.292 35.907,39.332 C35.968,39.373 36.029,39.414 36.090,39.455 C36.111,39.516 36.131,39.577 36.152,39.638 C36.192,39.659 36.233,39.679 36.274,39.699 C36.274,39.740 36.274,39.781 36.274,39.822 C36.315,39.842 36.356,39.863 36.396,39.883 C36.396,39.924 36.396,39.965 36.396,40.005 C36.437,40.026 36.478,40.046 36.519,40.066 C36.696,40.333 36.924,40.825 36.947,41.229 C36.710,41.430 36.884,41.476 36.396,41.473 C36.172,41.270 35.948,41.066 35.723,40.862 C35.723,40.821 35.723,40.780 35.723,40.739 C35.662,40.699 35.601,40.658 35.540,40.617 C35.540,40.576 35.540,40.535 35.540,40.495 C35.499,40.474 35.458,40.454 35.418,40.434 C35.418,40.393 35.418,40.352 35.418,40.311 C35.397,40.311 35.377,40.311 35.356,40.311 C35.336,40.250 35.316,40.189 35.295,40.128 C35.254,40.107 35.214,40.087 35.173,40.066 C35.173,40.026 35.173,39.985 35.173,39.944 C35.112,39.903 35.051,39.863 34.989,39.822 C34.989,39.781 34.989,39.740 34.989,39.699 C34.949,39.679 34.908,39.659 34.867,39.638 C34.867,39.598 34.867,39.557 34.867,39.516 C34.806,39.475 34.745,39.434 34.684,39.394 C34.684,39.353 34.684,39.312 34.684,39.271 C34.622,39.231 34.561,39.190 34.500,39.149 C34.500,39.108 34.500,39.067 34.500,39.027 C34.439,38.986 34.378,38.945 34.316,38.904 C34.316,38.863 34.316,38.823 34.316,38.782 C34.276,38.762 34.235,38.741 34.194,38.721 C34.194,38.680 34.194,38.639 34.194,38.598 C34.133,38.558 34.072,38.517 34.011,38.476 C34.011,38.435 34.011,38.394 34.011,38.354 C33.970,38.333 33.929,38.313 33.888,38.293 C33.888,38.252 33.888,38.211 33.888,38.170 C33.827,38.129 33.766,38.089 33.705,38.048 C33.705,38.007 33.705,37.966 33.705,37.926 C33.664,37.905 33.623,37.885 33.582,37.864 C33.562,37.783 33.542,37.701 33.521,37.620 C33.481,37.599 33.440,37.579 33.399,37.559 C33.334,37.450 33.344,37.300 33.338,37.130 C33.417,37.067 33.398,37.009 33.460,36.947 C33.521,36.885 33.580,36.903 33.644,36.824 ZM9.665,41.779 C9.598,41.437 9.634,41.210 9.787,40.923 C9.808,40.923 9.828,40.923 9.848,40.923 C9.869,40.841 9.889,40.760 9.910,40.678 C9.950,40.658 9.991,40.637 10.032,40.617 C10.032,40.576 10.032,40.535 10.032,40.495 C10.073,40.474 10.113,40.454 10.154,40.434 C10.154,40.393 10.154,40.352 10.154,40.311 C10.236,40.250 10.317,40.189 10.399,40.128 C10.399,40.087 10.399,40.046 10.399,40.005 C10.440,39.985 10.481,39.965 10.521,39.944 C10.542,39.883 10.562,39.822 10.582,39.761 C10.664,39.699 10.746,39.638 10.827,39.577 C10.827,39.536 10.827,39.496 10.827,39.455 C10.868,39.434 10.909,39.414 10.949,39.394 C10.949,39.353 10.949,39.312 10.949,39.271 C11.011,39.231 11.072,39.190 11.133,39.149 C11.133,39.108 11.133,39.067 11.133,39.027 C11.174,39.006 11.215,38.986 11.255,38.965 C11.255,38.925 11.255,38.884 11.255,38.843 C11.316,38.802 11.378,38.762 11.439,38.721 C11.439,38.680 11.439,38.639 11.439,38.598 C11.480,38.578 11.520,38.558 11.561,38.537 C11.561,38.496 11.561,38.456 11.561,38.415 C11.622,38.374 11.684,38.333 11.745,38.293 C11.745,38.252 11.745,38.211 11.745,38.170 C11.806,38.129 11.867,38.089 11.928,38.048 C11.928,38.007 11.928,37.966 11.928,37.926 C11.989,37.885 12.051,37.844 12.112,37.803 C12.112,37.762 12.112,37.722 12.112,37.681 C12.254,37.559 12.397,37.436 12.540,37.314 C12.540,37.293 12.540,37.273 12.540,37.253 C12.601,37.253 12.662,37.253 12.723,37.253 C12.723,37.232 12.723,37.212 12.723,37.191 C12.744,37.191 12.764,37.191 12.785,37.191 C12.785,37.212 12.785,37.232 12.785,37.253 C12.846,37.253 12.907,37.253 12.968,37.253 C12.968,37.273 12.968,37.293 12.968,37.314 C13.009,37.314 13.050,37.314 13.090,37.314 C13.199,37.396 13.222,37.652 13.213,37.864 C13.091,37.972 13.162,37.998 13.090,38.109 C13.050,38.129 13.009,38.150 12.968,38.170 C12.968,38.211 12.968,38.252 12.968,38.293 C12.948,38.293 12.927,38.293 12.907,38.293 C12.907,38.333 12.907,38.374 12.907,38.415 C12.887,38.415 12.866,38.415 12.846,38.415 C12.825,38.476 12.805,38.537 12.785,38.598 C12.744,38.619 12.703,38.639 12.662,38.660 C12.662,38.700 12.662,38.741 12.662,38.782 C12.621,38.802 12.581,38.823 12.540,38.843 C12.540,38.884 12.540,38.925 12.540,38.965 C12.479,39.006 12.418,39.047 12.356,39.088 C12.356,39.129 12.356,39.169 12.356,39.210 C12.295,39.251 12.234,39.292 12.173,39.332 C12.173,39.373 12.173,39.414 12.173,39.455 C12.132,39.475 12.091,39.496 12.051,39.516 C12.051,39.557 12.051,39.598 12.051,39.638 C11.989,39.679 11.928,39.720 11.867,39.761 C11.867,39.801 11.867,39.842 11.867,39.883 C11.806,39.924 11.745,39.965 11.684,40.005 C11.684,40.046 11.684,40.087 11.684,40.128 C11.622,40.168 11.561,40.209 11.500,40.250 C11.500,40.291 11.500,40.332 11.500,40.372 C11.459,40.393 11.418,40.413 11.378,40.434 C11.378,40.474 11.378,40.515 11.378,40.556 C11.316,40.597 11.255,40.637 11.194,40.678 C11.194,40.719 11.194,40.760 11.194,40.801 C11.153,40.821 11.113,40.841 11.072,40.862 C11.072,40.902 11.072,40.943 11.072,40.984 C10.990,41.045 10.909,41.106 10.827,41.168 C10.827,41.208 10.827,41.249 10.827,41.290 C10.677,41.497 10.320,41.641 10.154,41.840 C9.935,41.841 9.823,41.810 9.665,41.779 ZM31.197,38.354 C31.431,38.351 31.580,38.383 31.747,38.415 C31.786,38.488 31.848,38.504 31.870,38.537 C31.870,38.578 31.870,38.619 31.870,38.660 C31.890,38.660 31.910,38.660 31.931,38.660 C31.931,38.700 31.931,38.741 31.931,38.782 C31.972,38.802 32.012,38.823 32.053,38.843 C32.053,38.884 32.053,38.925 32.053,38.965 C32.094,38.986 32.135,39.006 32.176,39.027 C32.216,39.149 32.257,39.271 32.298,39.394 C32.318,39.394 32.339,39.394 32.359,39.394 C32.359,39.434 32.359,39.475 32.359,39.516 C32.400,39.536 32.441,39.557 32.481,39.577 C32.624,39.903 32.767,40.230 32.910,40.556 C32.930,40.556 32.950,40.556 32.971,40.556 C32.991,40.637 33.012,40.719 33.032,40.801 C33.052,40.801 33.073,40.801 33.093,40.801 C33.113,40.882 33.134,40.964 33.154,41.045 C33.175,41.045 33.195,41.045 33.215,41.045 C33.215,41.086 33.215,41.127 33.215,41.168 C33.236,41.168 33.256,41.168 33.277,41.168 C33.277,41.208 33.277,41.249 33.277,41.290 C33.297,41.290 33.317,41.290 33.338,41.290 C33.338,41.331 33.338,41.371 33.338,41.412 C33.358,41.412 33.379,41.412 33.399,41.412 C33.399,41.453 33.399,41.494 33.399,41.535 C33.419,41.535 33.440,41.535 33.460,41.535 C33.501,41.657 33.542,41.779 33.582,41.902 C33.603,41.902 33.623,41.902 33.644,41.902 C33.664,41.983 33.684,42.065 33.705,42.146 C33.725,42.146 33.746,42.146 33.766,42.146 C33.766,42.207 33.766,42.269 33.766,42.330 C33.786,42.330 33.807,42.330 33.827,42.330 C33.934,42.602 34.015,43.242 33.766,43.370 C33.644,43.370 33.521,43.370 33.399,43.370 C33.297,43.247 33.195,43.125 33.093,43.003 C33.052,42.982 33.012,42.962 32.971,42.941 C32.971,42.901 32.971,42.860 32.971,42.819 C32.930,42.799 32.889,42.778 32.848,42.758 C32.848,42.717 32.848,42.676 32.848,42.636 C32.828,42.636 32.808,42.636 32.787,42.636 C32.787,42.595 32.787,42.554 32.787,42.513 C32.767,42.513 32.746,42.513 32.726,42.513 C32.726,42.473 32.726,42.432 32.726,42.391 C32.706,42.391 32.685,42.391 32.665,42.391 C32.665,42.350 32.665,42.309 32.665,42.269 C32.645,42.269 32.624,42.269 32.604,42.269 C32.604,42.228 32.604,42.187 32.604,42.146 C32.583,42.146 32.563,42.146 32.543,42.146 C32.502,42.024 32.461,41.902 32.420,41.779 C32.400,41.779 32.379,41.779 32.359,41.779 C32.318,41.657 32.277,41.535 32.237,41.412 C32.216,41.412 32.196,41.412 32.176,41.412 C32.155,41.331 32.135,41.249 32.114,41.168 C32.094,41.168 32.074,41.168 32.053,41.168 C32.033,41.086 32.012,41.004 31.992,40.923 C31.972,40.923 31.951,40.923 31.931,40.923 C31.931,40.882 31.931,40.841 31.931,40.801 C31.910,40.801 31.890,40.801 31.870,40.801 C31.870,40.760 31.870,40.719 31.870,40.678 C31.849,40.678 31.829,40.678 31.809,40.678 C31.809,40.637 31.809,40.597 31.809,40.556 C31.788,40.556 31.768,40.556 31.747,40.556 C31.747,40.515 31.747,40.474 31.747,40.434 C31.727,40.434 31.707,40.434 31.686,40.434 C31.686,40.393 31.686,40.352 31.686,40.311 C31.666,40.311 31.645,40.311 31.625,40.311 C31.625,40.270 31.625,40.230 31.625,40.189 C31.605,40.189 31.584,40.189 31.564,40.189 C31.564,40.148 31.564,40.107 31.564,40.066 C31.543,40.066 31.523,40.066 31.503,40.066 C31.503,40.026 31.503,39.985 31.503,39.944 C31.389,39.731 30.873,38.932 31.013,38.721 C31.041,38.465 31.101,38.520 31.197,38.354 ZM14.987,38.660 C15.279,38.651 15.427,38.672 15.537,38.843 C15.558,38.843 15.578,38.843 15.598,38.843 C15.619,38.965 15.639,39.088 15.660,39.210 C15.639,39.210 15.619,39.210 15.598,39.210 C15.578,39.332 15.558,39.455 15.537,39.577 C15.517,39.577 15.496,39.577 15.476,39.577 C15.456,39.659 15.435,39.740 15.415,39.822 C15.395,39.822 15.374,39.822 15.354,39.822 C15.354,39.883 15.354,39.944 15.354,40.005 C15.333,40.005 15.313,40.005 15.293,40.005 C15.293,40.046 15.293,40.087 15.293,40.128 C15.272,40.128 15.252,40.128 15.231,40.128 C15.231,40.168 15.231,40.209 15.231,40.250 C15.211,40.250 15.191,40.250 15.170,40.250 C15.027,40.576 14.885,40.903 14.742,41.229 C14.701,41.249 14.660,41.270 14.620,41.290 C14.579,41.412 14.538,41.535 14.497,41.657 C14.477,41.657 14.457,41.657 14.436,41.657 C14.416,41.738 14.395,41.820 14.375,41.902 C14.355,41.902 14.334,41.902 14.314,41.902 C14.314,41.942 14.314,41.983 14.314,42.024 C14.293,42.024 14.273,42.024 14.253,42.024 C14.253,42.065 14.253,42.106 14.253,42.146 C14.232,42.146 14.212,42.146 14.191,42.146 C14.191,42.187 14.191,42.228 14.191,42.269 C14.171,42.269 14.151,42.269 14.130,42.269 C14.130,42.309 14.130,42.350 14.130,42.391 C14.110,42.391 14.090,42.391 14.069,42.391 C14.069,42.432 14.069,42.473 14.069,42.513 C14.049,42.513 14.028,42.513 14.008,42.513 C14.008,42.554 14.008,42.595 14.008,42.636 C13.988,42.636 13.967,42.636 13.947,42.636 C13.926,42.717 13.906,42.799 13.886,42.880 C13.845,42.901 13.804,42.921 13.763,42.941 C13.763,42.982 13.763,43.023 13.763,43.064 C13.723,43.084 13.682,43.105 13.641,43.125 C13.641,43.166 13.641,43.207 13.641,43.247 C13.539,43.329 13.437,43.410 13.335,43.492 C13.315,43.533 13.294,43.574 13.274,43.614 C13.233,43.614 13.192,43.614 13.152,43.614 C13.152,43.635 13.152,43.655 13.152,43.676 C13.050,43.676 12.948,43.676 12.846,43.676 C12.709,43.440 12.660,43.483 12.662,43.064 C12.683,43.064 12.703,43.064 12.723,43.064 C12.744,42.921 12.764,42.778 12.785,42.636 C12.805,42.636 12.825,42.636 12.846,42.636 C12.887,42.513 12.927,42.391 12.968,42.269 C12.988,42.269 13.009,42.269 13.029,42.269 C13.029,42.228 13.029,42.187 13.029,42.146 C13.050,42.146 13.070,42.146 13.090,42.146 C13.090,42.106 13.090,42.065 13.090,42.024 C13.111,42.024 13.131,42.024 13.152,42.024 C13.192,41.902 13.233,41.779 13.274,41.657 C13.315,41.637 13.356,41.616 13.396,41.596 C13.396,41.555 13.396,41.514 13.396,41.473 C13.417,41.473 13.437,41.473 13.457,41.473 C13.457,41.433 13.457,41.392 13.457,41.351 C13.478,41.351 13.498,41.351 13.519,41.351 C13.519,41.310 13.519,41.269 13.519,41.229 C13.539,41.229 13.559,41.229 13.580,41.229 C13.580,41.188 13.580,41.147 13.580,41.106 C13.600,41.106 13.621,41.106 13.641,41.106 C13.661,41.025 13.682,40.943 13.702,40.862 C13.723,40.862 13.743,40.862 13.763,40.862 C13.784,40.780 13.804,40.699 13.824,40.617 C13.845,40.617 13.865,40.617 13.886,40.617 C13.886,40.576 13.886,40.535 13.886,40.495 C13.906,40.495 13.926,40.495 13.947,40.495 C13.947,40.454 13.947,40.413 13.947,40.372 C13.967,40.372 13.988,40.372 14.008,40.372 C14.008,40.332 14.008,40.291 14.008,40.250 C14.028,40.250 14.049,40.250 14.069,40.250 C14.069,40.209 14.069,40.168 14.069,40.128 C14.090,40.128 14.110,40.128 14.130,40.128 C14.130,40.087 14.130,40.046 14.130,40.005 C14.151,40.005 14.171,40.005 14.191,40.005 C14.191,39.965 14.191,39.924 14.191,39.883 C14.212,39.883 14.232,39.883 14.253,39.883 C14.253,39.842 14.253,39.801 14.253,39.761 C14.273,39.761 14.293,39.761 14.314,39.761 C14.314,39.720 14.314,39.679 14.314,39.638 C14.334,39.638 14.355,39.638 14.375,39.638 C14.375,39.598 14.375,39.557 14.375,39.516 C14.416,39.496 14.457,39.475 14.497,39.455 C14.538,39.332 14.579,39.210 14.620,39.088 C14.660,39.067 14.701,39.047 14.742,39.027 C14.742,38.986 14.742,38.945 14.742,38.904 C14.762,38.904 14.783,38.904 14.803,38.904 C14.864,38.823 14.926,38.741 14.987,38.660 ZM30.585,44.715 C30.337,44.763 30.282,44.762 30.035,44.715 C30.014,44.654 29.994,44.593 29.973,44.532 C29.933,44.512 29.892,44.491 29.851,44.471 C29.851,44.430 29.851,44.389 29.851,44.348 C29.831,44.348 29.810,44.348 29.790,44.348 C29.749,44.226 29.708,44.104 29.668,43.981 C29.647,43.981 29.627,43.981 29.606,43.981 C29.545,43.716 29.484,43.451 29.423,43.186 C29.402,43.186 29.382,43.186 29.362,43.186 C29.341,43.043 29.321,42.901 29.301,42.758 C29.280,42.758 29.260,42.758 29.239,42.758 C29.239,42.697 29.239,42.636 29.239,42.574 C29.219,42.574 29.199,42.574 29.178,42.574 C29.178,42.513 29.178,42.452 29.178,42.391 C29.158,42.391 29.137,42.391 29.117,42.391 C29.117,42.330 29.117,42.269 29.117,42.207 C29.097,42.207 29.076,42.207 29.056,42.207 C29.056,42.146 29.056,42.085 29.056,42.024 C29.035,42.024 29.015,42.024 28.995,42.024 C28.995,41.963 28.995,41.902 28.995,41.840 C28.974,41.840 28.954,41.840 28.934,41.840 C28.934,41.779 28.934,41.718 28.934,41.657 C28.913,41.657 28.893,41.657 28.872,41.657 C28.852,41.535 28.832,41.412 28.811,41.290 C28.791,41.290 28.770,41.290 28.750,41.290 C28.668,40.943 28.587,40.597 28.505,40.250 C28.485,40.250 28.465,40.250 28.444,40.250 C28.424,40.107 28.403,39.965 28.383,39.822 C28.403,39.822 28.424,39.822 28.444,39.822 C28.482,39.705 28.471,39.666 28.505,39.577 C29.365,39.208 29.366,40.011 29.606,40.617 C29.627,40.617 29.647,40.617 29.668,40.617 C29.668,40.678 29.668,40.739 29.668,40.801 C29.688,40.801 29.708,40.801 29.729,40.801 C29.729,40.841 29.729,40.882 29.729,40.923 C29.749,40.923 29.770,40.923 29.790,40.923 C29.790,41.004 29.790,41.086 29.790,41.168 C29.810,41.168 29.831,41.168 29.851,41.168 C29.851,41.229 29.851,41.290 29.851,41.351 C29.871,41.351 29.892,41.351 29.912,41.351 C29.912,41.412 29.912,41.473 29.912,41.535 C29.933,41.535 29.953,41.535 29.973,41.535 C29.973,41.596 29.973,41.657 29.973,41.718 C29.994,41.718 30.014,41.718 30.035,41.718 C30.035,41.779 30.035,41.840 30.035,41.902 C30.055,41.902 30.075,41.902 30.096,41.902 C30.096,41.963 30.096,42.024 30.096,42.085 C30.116,42.085 30.137,42.085 30.157,42.085 C30.157,42.167 30.157,42.248 30.157,42.330 C30.177,42.330 30.198,42.330 30.218,42.330 C30.218,42.391 30.218,42.452 30.218,42.513 C30.238,42.513 30.259,42.513 30.279,42.513 C30.279,42.554 30.279,42.595 30.279,42.636 C30.300,42.636 30.320,42.636 30.340,42.636 C30.381,42.819 30.422,43.003 30.463,43.186 C30.483,43.186 30.504,43.186 30.524,43.186 C30.544,43.349 30.565,43.512 30.585,43.676 C30.616,43.772 30.750,44.265 30.707,44.410 C30.687,44.410 30.667,44.410 30.646,44.410 C30.626,44.512 30.605,44.613 30.585,44.715 ZM17.556,39.699 C17.719,39.699 17.882,39.699 18.045,39.699 C18.077,39.754 18.229,39.883 18.229,39.883 C18.229,40.087 18.229,40.291 18.229,40.495 C18.105,40.638 18.178,40.787 18.106,40.984 C18.086,40.984 18.066,40.984 18.045,40.984 C18.045,41.045 18.045,41.106 18.045,41.168 C18.025,41.168 18.004,41.168 17.984,41.168 C17.984,41.229 17.984,41.290 17.984,41.351 C17.964,41.351 17.943,41.351 17.923,41.351 C17.923,41.433 17.923,41.514 17.923,41.596 C17.902,41.596 17.882,41.596 17.862,41.596 C17.841,41.718 17.821,41.840 17.801,41.963 C17.780,41.963 17.760,41.963 17.739,41.963 C17.739,42.024 17.739,42.085 17.739,42.146 C17.719,42.146 17.699,42.146 17.678,42.146 C17.678,42.207 17.678,42.269 17.678,42.330 C17.658,42.330 17.637,42.330 17.617,42.330 C17.617,42.391 17.617,42.452 17.617,42.513 C17.597,42.513 17.576,42.513 17.556,42.513 C17.556,42.574 17.556,42.636 17.556,42.697 C17.535,42.697 17.515,42.697 17.495,42.697 C17.495,42.758 17.495,42.819 17.495,42.880 C17.474,42.880 17.454,42.880 17.434,42.880 C17.413,43.003 17.393,43.125 17.372,43.247 C17.352,43.247 17.332,43.247 17.311,43.247 C17.270,43.451 17.230,43.655 17.189,43.859 C17.168,43.859 17.148,43.859 17.128,43.859 C17.128,43.900 17.128,43.941 17.128,43.981 C17.107,43.981 17.087,43.981 17.066,43.981 C17.066,44.043 17.066,44.104 17.066,44.165 C17.046,44.165 17.026,44.165 17.005,44.165 C17.005,44.206 17.005,44.246 17.005,44.287 C16.985,44.287 16.965,44.287 16.944,44.287 C16.944,44.328 16.944,44.369 16.944,44.410 C16.857,44.568 16.708,44.718 16.577,44.838 C16.557,44.879 16.536,44.919 16.516,44.960 C16.455,44.960 16.394,44.960 16.332,44.960 C16.332,44.980 16.332,45.001 16.332,45.021 C16.312,45.021 16.292,45.021 16.271,45.021 C16.271,45.001 16.271,44.980 16.271,44.960 C16.210,44.960 16.149,44.960 16.088,44.960 C16.088,44.940 16.088,44.919 16.088,44.899 C16.018,44.829 16.063,44.899 16.027,44.777 C15.842,44.578 16.074,43.619 16.149,43.431 C16.169,43.431 16.190,43.431 16.210,43.431 C16.230,43.309 16.251,43.186 16.271,43.064 C16.292,43.064 16.312,43.064 16.332,43.064 C16.332,43.023 16.332,42.982 16.332,42.941 C16.353,42.941 16.373,42.941 16.394,42.941 C16.394,42.880 16.394,42.819 16.394,42.758 C16.414,42.758 16.434,42.758 16.455,42.758 C16.496,42.574 16.536,42.391 16.577,42.207 C16.598,42.207 16.618,42.207 16.638,42.207 C16.679,42.024 16.720,41.840 16.761,41.657 C16.781,41.657 16.801,41.657 16.822,41.657 C16.822,41.575 16.822,41.494 16.822,41.412 C16.842,41.412 16.863,41.412 16.883,41.412 C16.883,41.351 16.883,41.290 16.883,41.229 C16.903,41.229 16.924,41.229 16.944,41.229 C16.944,41.168 16.944,41.106 16.944,41.045 C16.965,41.045 16.985,41.045 17.005,41.045 C17.005,40.984 17.005,40.923 17.005,40.862 C17.026,40.862 17.046,40.862 17.066,40.862 C17.087,40.739 17.107,40.617 17.128,40.495 C17.148,40.495 17.168,40.495 17.189,40.495 C17.189,40.454 17.189,40.413 17.189,40.372 C17.209,40.372 17.230,40.372 17.250,40.372 C17.250,40.311 17.250,40.250 17.250,40.189 C17.270,40.189 17.291,40.189 17.311,40.189 C17.311,40.148 17.311,40.107 17.311,40.066 C17.332,40.066 17.352,40.066 17.372,40.066 C17.372,40.005 17.372,39.944 17.372,39.883 C17.393,39.883 17.413,39.883 17.434,39.883 C17.474,39.822 17.515,39.761 17.556,39.699 ZM25.936,40.189 C26.079,40.189 26.222,40.189 26.364,40.189 C26.405,40.250 26.446,40.311 26.487,40.372 C26.507,40.372 26.527,40.372 26.548,40.372 C26.548,40.413 26.548,40.454 26.548,40.495 C26.568,40.495 26.589,40.495 26.609,40.495 C26.650,40.739 26.691,40.984 26.731,41.229 C27.008,42.135 27.023,43.302 27.282,44.226 C27.378,44.570 27.243,45.543 27.098,45.633 C27.037,45.633 26.976,45.633 26.915,45.633 C26.896,45.639 26.899,45.733 26.793,45.694 C26.793,45.674 26.793,45.653 26.793,45.633 C26.361,45.513 26.438,45.126 26.303,44.715 C26.283,44.715 26.262,44.715 26.242,44.715 C26.242,44.613 26.242,44.512 26.242,44.410 C26.222,44.410 26.201,44.410 26.181,44.410 C26.181,44.246 26.181,44.083 26.181,43.920 C26.160,43.920 26.140,43.920 26.120,43.920 C26.120,43.757 26.120,43.594 26.120,43.431 C26.099,43.431 26.079,43.431 26.059,43.431 C26.059,43.288 26.059,43.145 26.059,43.003 C25.859,42.324 25.616,41.089 25.753,40.311 C25.831,40.275 25.884,40.251 25.936,40.189 ZM20.431,40.250 C20.622,40.264 20.720,40.314 20.859,40.372 C21.099,40.884 20.949,41.825 20.798,42.330 C20.798,42.452 20.798,42.574 20.798,42.697 C20.777,42.697 20.757,42.697 20.737,42.697 C20.737,42.819 20.737,42.942 20.737,43.064 C20.716,43.064 20.696,43.064 20.676,43.064 C20.676,43.186 20.676,43.309 20.676,43.431 C20.655,43.431 20.635,43.431 20.614,43.431 C20.614,43.574 20.614,43.716 20.614,43.859 C20.594,43.859 20.574,43.859 20.553,43.859 C20.553,44.002 20.553,44.145 20.553,44.287 C20.533,44.287 20.512,44.287 20.492,44.287 C20.492,44.389 20.492,44.491 20.492,44.593 C20.472,44.593 20.451,44.593 20.431,44.593 C20.431,44.695 20.431,44.797 20.431,44.899 C20.410,44.899 20.390,44.899 20.370,44.899 C20.255,45.208 20.265,45.602 19.941,45.694 C19.941,45.715 19.941,45.735 19.941,45.755 C19.819,45.755 19.697,45.755 19.574,45.755 C19.554,45.715 19.534,45.674 19.513,45.633 C19.401,45.524 19.308,44.754 19.391,44.471 C19.411,44.471 19.432,44.471 19.452,44.471 C19.452,44.348 19.452,44.226 19.452,44.104 C19.573,43.710 19.638,43.164 19.758,42.758 C19.778,42.473 19.799,42.187 19.819,41.902 C19.921,41.433 20.023,40.964 20.125,40.495 C20.213,40.447 20.370,40.325 20.431,40.250 ZM23.061,45.939 C23.024,45.768 22.922,45.647 22.878,45.511 C22.878,45.388 22.878,45.266 22.878,45.144 C22.857,45.144 22.837,45.144 22.816,45.144 C22.837,44.471 22.857,43.798 22.878,43.125 C22.878,42.625 22.769,42.168 22.878,41.779 C22.878,41.453 22.878,41.127 22.878,40.801 C22.898,40.801 22.918,40.801 22.939,40.801 C22.978,40.693 22.966,40.641 23.000,40.556 C23.262,40.434 23.296,40.434 23.612,40.495 C23.648,40.561 23.719,40.592 23.734,40.617 C23.734,40.658 23.734,40.699 23.734,40.739 C23.754,40.739 23.775,40.739 23.795,40.739 C23.795,40.841 23.795,40.943 23.795,41.045 C23.896,41.380 23.856,41.956 23.856,42.391 C23.856,43.329 23.856,44.267 23.856,45.205 C23.795,45.409 23.734,45.613 23.673,45.816 C23.493,45.921 23.498,45.993 23.184,46.000 C23.114,45.930 23.183,45.976 23.061,45.939 Z"/>
</svg>