<svg 
 xmlns="http://www.w3.org/2000/svg"
 xmlns:xlink="http://www.w3.org/1999/xlink"
 width="48px" height="33px">
<path fill-rule="evenodd"  fill="rgb(191, 162, 116)"
 d="M8.448,10.710 C8.447,10.187 8.299,10.100 8.165,9.764 C8.134,9.544 8.102,9.323 8.071,9.102 C8.039,9.102 8.008,9.102 7.976,9.102 C7.976,9.039 7.976,8.976 7.976,8.913 C7.945,8.913 7.913,8.913 7.882,8.913 C7.819,8.629 7.756,8.345 7.693,8.062 C7.662,8.062 7.630,8.062 7.599,8.062 C7.599,7.998 7.599,7.935 7.599,7.872 C7.567,7.872 7.536,7.872 7.504,7.872 C7.504,7.746 7.504,7.620 7.504,7.494 C7.473,7.494 7.441,7.494 7.410,7.494 C7.410,7.399 7.410,7.305 7.410,7.210 C7.379,7.210 7.347,7.210 7.316,7.210 C7.316,7.147 7.316,7.084 7.316,7.021 C7.284,7.021 7.253,7.021 7.221,7.021 C7.221,6.895 7.221,6.769 7.221,6.643 C7.190,6.643 7.158,6.643 7.127,6.643 C7.127,6.580 7.127,6.516 7.127,6.453 C7.095,6.453 7.064,6.453 7.032,6.453 C7.032,6.327 7.032,6.201 7.032,6.075 C7.001,6.075 6.970,6.075 6.938,6.075 C6.938,6.012 6.938,5.949 6.938,5.886 C6.907,5.886 6.875,5.886 6.844,5.886 C6.844,5.760 6.844,5.634 6.844,5.507 C6.812,5.507 6.781,5.507 6.749,5.507 C6.749,5.444 6.749,5.381 6.749,5.318 C6.718,5.318 6.686,5.318 6.655,5.318 C6.655,5.224 6.655,5.129 6.655,5.034 C6.623,5.034 6.592,5.034 6.560,5.034 C6.560,4.940 6.560,4.845 6.560,4.751 C6.529,4.751 6.498,4.751 6.466,4.751 C6.466,4.656 6.466,4.561 6.466,4.467 C6.435,4.467 6.403,4.467 6.372,4.467 C6.372,4.372 6.372,4.278 6.372,4.183 C6.340,4.183 6.309,4.183 6.277,4.183 C6.277,4.088 6.277,3.994 6.277,3.899 C6.246,3.899 6.214,3.899 6.183,3.899 C6.183,3.805 6.183,3.710 6.183,3.615 C6.151,3.615 6.120,3.615 6.088,3.615 C6.088,3.552 6.088,3.489 6.088,3.426 C6.057,3.426 6.026,3.426 5.994,3.426 C5.994,3.300 5.994,3.174 5.994,3.048 C5.963,3.048 5.931,3.048 5.900,3.048 C5.900,2.985 5.900,2.922 5.900,2.859 C5.868,2.859 5.837,2.859 5.805,2.859 C5.774,2.606 5.742,2.354 5.711,2.102 C5.679,2.102 5.648,2.102 5.617,2.102 C5.679,1.755 5.742,1.408 5.805,1.061 C6.011,0.921 5.944,0.839 6.088,0.683 C6.361,0.388 6.878,0.142 7.316,0.021 C7.814,-0.117 8.748,0.502 9.015,0.683 C9.046,0.746 9.078,0.809 9.109,0.872 C9.172,0.872 9.235,0.872 9.298,0.872 C9.392,0.998 9.487,1.124 9.581,1.250 C9.644,1.250 9.707,1.250 9.770,1.250 C9.833,1.345 9.896,1.440 9.959,1.534 C10.022,1.534 10.085,1.534 10.147,1.534 C10.179,1.597 10.210,1.660 10.242,1.723 C10.305,1.723 10.368,1.723 10.431,1.723 C10.525,1.850 10.619,1.976 10.714,2.102 C10.777,2.102 10.840,2.102 10.903,2.102 C10.966,2.196 11.029,2.291 11.091,2.386 C11.186,2.417 11.280,2.449 11.375,2.480 C11.406,2.543 11.438,2.606 11.469,2.669 C11.532,2.669 11.595,2.669 11.658,2.669 C11.721,2.764 11.784,2.859 11.847,2.953 C11.910,2.953 11.972,2.953 12.035,2.953 C12.098,3.048 12.161,3.142 12.224,3.237 C12.287,3.237 12.350,3.237 12.413,3.237 C12.476,3.332 12.539,3.426 12.602,3.521 C12.665,3.521 12.728,3.521 12.791,3.521 C12.853,3.615 12.916,3.710 12.979,3.805 C13.042,3.805 13.105,3.805 13.168,3.805 C13.263,3.931 13.357,4.057 13.451,4.183 C13.514,4.183 13.577,4.183 13.640,4.183 C13.672,4.246 13.703,4.309 13.735,4.372 C13.797,4.372 13.860,4.372 13.923,4.372 C13.986,4.467 14.049,4.561 14.112,4.656 C14.175,4.656 14.238,4.656 14.301,4.656 C14.364,4.751 14.427,4.845 14.490,4.940 C14.553,4.940 14.616,4.940 14.678,4.940 C14.741,5.034 14.804,5.129 14.867,5.224 C14.930,5.224 14.993,5.224 15.056,5.224 C15.119,5.318 15.182,5.413 15.245,5.507 C15.308,5.507 15.371,5.507 15.434,5.507 C15.528,5.634 15.622,5.760 15.717,5.886 C15.780,5.886 15.843,5.886 15.906,5.886 C15.937,5.949 15.969,6.012 16.000,6.075 C16.063,6.075 16.126,6.075 16.189,6.075 C16.283,6.201 16.378,6.327 16.472,6.453 C16.566,6.485 16.661,6.516 16.755,6.548 C16.787,6.611 16.818,6.674 16.850,6.737 C16.912,6.737 16.975,6.737 17.038,6.737 C17.070,6.800 17.101,6.863 17.133,6.926 C17.196,6.926 17.259,6.926 17.322,6.926 C17.416,7.052 17.510,7.179 17.605,7.305 C17.668,7.305 17.731,7.305 17.794,7.305 C17.825,7.368 17.856,7.431 17.888,7.494 C17.982,7.525 18.077,7.557 18.171,7.589 C18.265,7.715 18.360,7.841 18.454,7.967 C18.517,7.967 18.580,7.967 18.643,7.967 C18.675,8.030 18.706,8.093 18.737,8.156 C18.800,8.156 18.863,8.156 18.926,8.156 C19.021,8.282 19.115,8.408 19.209,8.535 C19.272,8.535 19.335,8.535 19.398,8.535 C19.430,8.598 19.461,8.661 19.493,8.724 C19.556,8.724 19.618,8.724 19.681,8.724 C19.744,8.818 19.807,8.913 19.870,9.008 C19.933,9.008 19.996,9.008 20.059,9.008 C20.122,9.102 20.185,9.197 20.248,9.291 C20.311,9.291 20.374,9.291 20.437,9.291 C20.531,9.417 20.625,9.544 20.720,9.670 C20.783,9.670 20.846,9.670 20.909,9.670 C20.971,9.764 21.034,9.859 21.097,9.954 C21.160,9.954 21.223,9.954 21.286,9.954 C21.538,10.237 21.790,10.521 22.041,10.805 C22.257,11.281 22.230,12.194 22.230,12.886 C22.230,14.179 22.230,15.472 22.230,16.765 C22.230,19.823 22.230,22.882 22.230,25.941 C22.230,27.643 22.230,29.346 22.230,31.049 C22.136,31.364 22.041,31.680 21.947,31.995 C21.758,32.153 21.569,32.310 21.381,32.468 C21.381,32.499 21.381,32.531 21.381,32.562 C21.318,32.562 21.255,32.562 21.192,32.562 C21.160,32.626 21.129,32.689 21.097,32.752 C20.971,32.752 20.846,32.752 20.720,32.752 C20.688,32.815 20.657,32.878 20.625,32.941 C15.654,32.941 10.682,32.941 5.711,32.941 C3.286,32.941 0.857,33.363 0.142,31.711 C-0.011,31.358 0.047,30.690 0.047,30.198 C0.047,29.126 0.047,28.053 0.047,26.981 C0.047,23.229 0.047,19.476 0.047,15.724 C0.047,14.485 -0.171,12.215 0.330,11.467 C0.456,11.372 0.582,11.278 0.708,11.183 C0.771,11.089 0.834,10.994 0.897,10.899 C1.396,10.613 2.482,10.710 3.257,10.710 C4.987,10.710 6.718,10.710 8.448,10.710 ZM34.313,10.710 C34.266,10.108 33.939,9.492 33.746,9.008 C33.715,8.818 33.683,8.629 33.652,8.440 C33.620,8.440 33.589,8.440 33.558,8.440 C33.558,8.377 33.558,8.314 33.558,8.251 C33.526,8.251 33.495,8.251 33.463,8.251 C33.463,8.125 33.463,7.998 33.463,7.872 C33.432,7.872 33.400,7.872 33.369,7.872 C33.369,7.809 33.369,7.746 33.369,7.683 C33.337,7.683 33.306,7.683 33.274,7.683 C33.274,7.589 33.274,7.494 33.274,7.399 C33.243,7.399 33.211,7.399 33.180,7.399 C33.180,7.305 33.180,7.210 33.180,7.116 C33.148,7.116 33.117,7.116 33.086,7.116 C33.086,7.021 33.086,6.926 33.086,6.832 C33.054,6.832 33.023,6.832 32.991,6.832 C32.991,6.706 32.991,6.579 32.991,6.453 C32.960,6.453 32.928,6.453 32.897,6.453 C32.865,6.296 32.834,6.138 32.802,5.980 C32.771,5.980 32.739,5.980 32.708,5.980 C32.708,5.917 32.708,5.854 32.708,5.791 C32.677,5.791 32.645,5.791 32.614,5.791 C32.614,5.665 32.614,5.539 32.614,5.413 C32.582,5.413 32.551,5.413 32.519,5.413 C32.519,5.350 32.519,5.287 32.519,5.224 C32.488,5.224 32.456,5.224 32.425,5.224 C32.425,5.097 32.425,4.971 32.425,4.845 C32.393,4.845 32.362,4.845 32.330,4.845 C32.330,4.782 32.330,4.719 32.330,4.656 C32.299,4.656 32.267,4.656 32.236,4.656 C32.236,4.530 32.236,4.404 32.236,4.278 C32.205,4.278 32.173,4.278 32.142,4.278 C32.142,4.215 32.142,4.151 32.142,4.088 C32.110,4.088 32.079,4.088 32.047,4.088 C32.016,3.868 31.984,3.647 31.953,3.426 C31.921,3.426 31.890,3.426 31.858,3.426 C31.858,3.363 31.858,3.300 31.858,3.237 C31.827,3.237 31.795,3.237 31.764,3.237 C31.764,3.111 31.764,2.985 31.764,2.859 C31.733,2.859 31.701,2.859 31.670,2.859 C31.670,2.796 31.670,2.733 31.670,2.669 C31.638,2.669 31.607,2.669 31.575,2.669 C31.575,2.543 31.575,2.417 31.575,2.291 C31.544,2.291 31.512,2.291 31.481,2.291 C31.512,1.913 31.544,1.534 31.575,1.156 C31.806,1.008 31.633,1.048 31.764,0.872 C31.921,0.746 32.079,0.620 32.236,0.494 C32.267,0.431 32.299,0.368 32.330,0.304 C32.488,0.195 32.546,0.305 32.708,0.115 C32.991,0.084 33.274,0.052 33.558,0.021 C33.558,0.052 33.558,0.084 33.558,0.115 C33.683,0.115 33.809,0.115 33.935,0.115 C33.935,0.147 33.935,0.178 33.935,0.210 C33.998,0.210 34.061,0.210 34.124,0.210 C34.124,0.241 34.124,0.273 34.124,0.304 C34.187,0.304 34.250,0.304 34.313,0.304 C34.344,0.368 34.376,0.431 34.407,0.494 C34.470,0.494 34.533,0.494 34.596,0.494 C34.659,0.588 34.722,0.683 34.785,0.777 C34.848,0.777 34.911,0.777 34.973,0.777 C35.036,0.872 35.099,0.967 35.162,1.061 C35.225,1.061 35.288,1.061 35.351,1.061 C35.414,1.156 35.477,1.250 35.540,1.345 C35.603,1.345 35.666,1.345 35.729,1.345 C35.760,1.408 35.792,1.471 35.823,1.534 C35.886,1.534 35.949,1.534 36.012,1.534 C36.106,1.660 36.201,1.787 36.295,1.913 C36.358,1.913 36.421,1.913 36.484,1.913 C36.547,2.007 36.610,2.102 36.673,2.196 C36.735,2.196 36.798,2.196 36.861,2.196 C36.956,2.323 37.050,2.449 37.145,2.575 C37.207,2.575 37.270,2.575 37.333,2.575 C37.365,2.638 37.396,2.701 37.428,2.764 C37.491,2.764 37.554,2.764 37.617,2.764 C37.711,2.890 37.805,3.016 37.900,3.142 C37.963,3.142 38.026,3.142 38.088,3.142 C38.120,3.205 38.151,3.269 38.183,3.332 C38.246,3.332 38.309,3.332 38.372,3.332 C38.435,3.426 38.498,3.521 38.560,3.615 C38.623,3.615 38.686,3.615 38.749,3.615 C38.844,3.742 38.938,3.868 39.032,3.994 C39.127,4.025 39.221,4.057 39.316,4.088 C39.347,4.151 39.379,4.215 39.410,4.278 C39.473,4.278 39.536,4.278 39.599,4.278 C39.630,4.341 39.662,4.404 39.693,4.467 C39.788,4.498 39.882,4.530 39.976,4.561 C40.039,4.656 40.102,4.751 40.165,4.845 C40.228,4.845 40.291,4.845 40.354,4.845 C40.385,4.908 40.417,4.971 40.448,5.034 C40.543,5.066 40.637,5.097 40.732,5.129 C40.794,5.224 40.857,5.318 40.920,5.413 C40.983,5.413 41.046,5.413 41.109,5.413 C41.141,5.476 41.172,5.539 41.204,5.602 C41.298,5.634 41.392,5.665 41.487,5.697 C41.550,5.791 41.613,5.886 41.676,5.980 C41.738,5.980 41.801,5.980 41.864,5.980 C41.927,6.075 41.990,6.170 42.053,6.264 C42.116,6.264 42.179,6.264 42.242,6.264 C42.305,6.359 42.368,6.453 42.431,6.548 C42.494,6.548 42.557,6.548 42.619,6.548 C42.682,6.643 42.745,6.737 42.808,6.832 C42.871,6.832 42.934,6.832 42.997,6.832 C43.060,6.926 43.123,7.021 43.186,7.116 C43.249,7.116 43.312,7.116 43.375,7.116 C43.406,7.179 43.438,7.242 43.469,7.305 C43.563,7.336 43.658,7.368 43.752,7.399 C43.847,7.525 43.941,7.652 44.035,7.778 C44.098,7.778 44.161,7.778 44.224,7.778 C44.256,7.841 44.287,7.904 44.319,7.967 C44.382,7.967 44.444,7.967 44.507,7.967 C44.602,8.093 44.696,8.219 44.791,8.345 C44.853,8.345 44.916,8.345 44.979,8.345 C45.042,8.440 45.105,8.535 45.168,8.629 C45.231,8.629 45.294,8.629 45.357,8.629 C45.388,8.692 45.420,8.755 45.451,8.818 C45.514,8.818 45.577,8.818 45.640,8.818 C45.735,8.944 45.829,9.071 45.923,9.197 C46.018,9.228 46.112,9.260 46.206,9.291 C46.238,9.354 46.269,9.417 46.301,9.481 C46.364,9.481 46.427,9.481 46.490,9.481 C46.584,9.607 46.678,9.733 46.773,9.859 C46.836,9.859 46.899,9.859 46.962,9.859 C46.993,9.922 47.025,9.985 47.056,10.048 C47.119,10.048 47.182,10.048 47.245,10.048 C47.339,10.174 47.434,10.300 47.528,10.426 C47.559,10.426 47.591,10.426 47.622,10.426 C47.622,10.490 47.622,10.553 47.622,10.616 C47.685,10.647 47.748,10.679 47.811,10.710 C47.811,10.805 47.811,10.899 47.811,10.994 C47.874,11.026 47.937,11.057 48.000,11.089 C48.000,14.273 48.000,17.459 48.000,20.643 C48.000,23.449 48.000,26.256 48.000,29.062 C48.000,29.882 48.000,30.702 48.000,31.522 C47.969,31.522 47.937,31.522 47.906,31.522 C47.874,31.648 47.843,31.774 47.811,31.900 C47.748,31.932 47.685,31.963 47.622,31.995 C47.622,32.058 47.622,32.121 47.622,32.184 C47.591,32.184 47.559,32.184 47.528,32.184 C47.434,32.310 47.339,32.436 47.245,32.562 C46.289,33.206 44.058,32.941 42.525,32.941 C38.750,32.941 34.973,32.941 31.198,32.941 C30.004,32.941 27.780,33.163 26.950,32.752 C26.918,32.689 26.887,32.626 26.855,32.562 C26.761,32.531 26.667,32.499 26.572,32.468 C26.572,32.436 26.572,32.405 26.572,32.373 C26.478,32.342 26.383,32.310 26.289,32.279 C25.762,31.606 25.911,30.159 25.912,28.968 C25.912,26.288 25.912,23.607 25.912,20.927 C25.912,18.720 25.912,16.512 25.912,14.305 C25.911,13.815 25.798,12.179 26.006,11.940 C26.037,11.814 26.069,11.688 26.100,11.562 C26.163,11.530 26.226,11.499 26.289,11.467 C26.289,11.404 26.289,11.341 26.289,11.278 C26.352,11.246 26.415,11.215 26.478,11.183 C26.478,11.152 26.478,11.120 26.478,11.089 C26.541,11.089 26.604,11.089 26.667,11.089 C26.698,11.026 26.730,10.963 26.761,10.899 C26.932,10.789 26.973,10.899 27.139,10.710 C29.530,10.710 31.922,10.710 34.313,10.710 ZM3.729,14.400 C3.729,19.287 3.729,24.175 3.729,29.062 C4.092,29.195 4.731,29.157 5.239,29.157 C6.246,29.157 7.253,29.157 8.260,29.157 C11.626,29.157 14.993,29.157 18.360,29.157 C18.509,28.746 18.454,28.014 18.454,27.454 C18.454,26.319 18.454,25.184 18.454,24.049 C18.454,20.202 18.454,16.354 18.454,12.508 C18.328,12.413 18.203,12.318 18.077,12.224 C18.077,12.192 18.077,12.161 18.077,12.129 C18.014,12.129 17.951,12.129 17.888,12.129 C17.856,12.066 17.825,12.003 17.794,11.940 C17.731,11.940 17.668,11.940 17.605,11.940 C17.510,11.814 17.416,11.688 17.322,11.562 C17.259,11.562 17.196,11.562 17.133,11.562 C17.101,11.499 17.070,11.436 17.038,11.372 C16.975,11.372 16.912,11.372 16.850,11.372 C16.755,11.246 16.661,11.120 16.566,10.994 C16.503,10.994 16.441,10.994 16.378,10.994 C16.315,10.899 16.252,10.805 16.189,10.710 C16.094,10.679 16.000,10.647 15.906,10.616 C15.874,10.553 15.843,10.490 15.811,10.426 C15.748,10.426 15.685,10.426 15.622,10.426 C15.591,10.363 15.559,10.300 15.528,10.237 C15.465,10.237 15.402,10.237 15.339,10.237 C15.245,10.111 15.150,9.985 15.056,9.859 C14.993,9.859 14.930,9.859 14.867,9.859 C14.804,9.764 14.741,9.670 14.678,9.575 C14.616,9.575 14.553,9.575 14.490,9.575 C14.427,9.481 14.364,9.386 14.301,9.291 C14.238,9.291 14.175,9.291 14.112,9.291 C14.049,9.197 13.986,9.102 13.923,9.008 C13.860,9.008 13.797,9.008 13.735,9.008 C13.672,8.913 13.609,8.818 13.546,8.724 C13.483,8.724 13.420,8.724 13.357,8.724 C13.294,8.629 13.231,8.535 13.168,8.440 C13.105,8.440 13.042,8.440 12.979,8.440 C12.916,8.345 12.853,8.251 12.791,8.156 C12.728,8.156 12.665,8.156 12.602,8.156 C12.507,8.030 12.413,7.904 12.319,7.778 C12.256,7.778 12.193,7.778 12.130,7.778 C12.098,7.715 12.067,7.652 12.035,7.589 C11.972,7.589 11.910,7.589 11.847,7.589 C11.815,7.525 11.784,7.462 11.752,7.399 C11.595,7.305 11.438,7.210 11.280,7.116 C11.280,7.210 11.280,7.305 11.280,7.399 C11.312,7.399 11.343,7.399 11.375,7.399 C11.406,7.589 11.438,7.778 11.469,7.967 C11.500,7.967 11.532,7.967 11.563,7.967 C11.563,8.062 11.563,8.156 11.563,8.251 C11.595,8.251 11.626,8.251 11.658,8.251 C11.658,8.377 11.658,8.503 11.658,8.629 C11.721,8.661 11.784,8.692 11.847,8.724 C11.847,8.850 11.847,8.976 11.847,9.102 C11.878,9.102 11.910,9.102 11.941,9.102 C11.941,9.165 11.941,9.228 11.941,9.291 C11.972,9.291 12.004,9.291 12.035,9.291 C12.035,9.417 12.035,9.544 12.035,9.670 C12.067,9.670 12.098,9.670 12.130,9.670 C12.130,9.733 12.130,9.796 12.130,9.859 C12.161,9.859 12.193,9.859 12.224,9.859 C12.224,9.985 12.224,10.111 12.224,10.237 C12.256,10.237 12.287,10.237 12.319,10.237 C12.319,10.300 12.319,10.363 12.319,10.426 C12.350,10.426 12.382,10.426 12.413,10.426 C12.413,10.521 12.413,10.616 12.413,10.710 C12.444,10.710 12.476,10.710 12.507,10.710 C12.507,10.805 12.507,10.899 12.507,10.994 C12.539,10.994 12.570,10.994 12.602,10.994 C12.602,11.089 12.602,11.183 12.602,11.278 C12.633,11.278 12.665,11.278 12.696,11.278 C12.696,11.404 12.696,11.530 12.696,11.656 C12.728,11.656 12.759,11.656 12.791,11.656 C12.791,11.719 12.791,11.782 12.791,11.845 C12.822,11.845 12.853,11.845 12.885,11.845 C12.885,12.035 12.885,12.224 12.885,12.413 C12.916,12.413 12.948,12.413 12.979,12.413 C12.979,12.445 12.979,12.476 12.979,12.508 C12.948,12.508 12.916,12.508 12.885,12.508 C12.885,12.539 12.885,12.571 12.885,12.602 C12.916,12.602 12.948,12.602 12.979,12.602 C12.979,12.634 12.979,12.665 12.979,12.697 C12.948,12.697 12.916,12.697 12.885,12.697 C12.885,12.855 12.885,13.012 12.885,13.170 C12.853,13.170 12.822,13.170 12.791,13.170 C12.759,13.296 12.728,13.422 12.696,13.548 C12.507,13.706 12.319,13.864 12.130,14.021 C12.130,14.053 12.130,14.084 12.130,14.116 C12.067,14.116 12.004,14.116 11.941,14.116 C11.554,14.500 10.453,14.400 9.676,14.400 C7.693,14.400 5.711,14.400 3.729,14.400 ZM29.499,14.400 C29.499,19.287 29.499,24.175 29.499,29.062 C29.862,29.195 30.501,29.157 31.009,29.157 C32.016,29.157 33.023,29.157 34.029,29.157 C37.427,29.157 40.826,29.157 44.224,29.157 C44.373,28.746 44.319,28.014 44.319,27.454 C44.319,26.319 44.319,25.184 44.319,24.049 C44.319,20.202 44.319,16.354 44.319,12.508 C44.198,12.444 44.192,12.360 44.130,12.318 C44.067,12.318 44.004,12.318 43.941,12.318 C43.878,12.224 43.815,12.129 43.752,12.035 C43.689,12.035 43.626,12.035 43.563,12.035 C43.500,11.940 43.438,11.845 43.375,11.751 C43.312,11.751 43.249,11.751 43.186,11.751 C43.123,11.656 43.060,11.562 42.997,11.467 C42.934,11.467 42.871,11.467 42.808,11.467 C42.745,11.372 42.682,11.278 42.619,11.183 C42.557,11.183 42.494,11.183 42.431,11.183 C42.368,11.089 42.305,10.994 42.242,10.899 C42.179,10.899 42.116,10.899 42.053,10.899 C41.990,10.805 41.927,10.710 41.864,10.616 C41.801,10.616 41.738,10.616 41.676,10.616 C41.581,10.490 41.487,10.363 41.392,10.237 C41.329,10.237 41.266,10.237 41.204,10.237 C41.172,10.174 41.141,10.111 41.109,10.048 C41.046,10.048 40.983,10.048 40.920,10.048 C40.826,9.922 40.732,9.796 40.637,9.670 C40.574,9.670 40.511,9.670 40.448,9.670 C40.385,9.575 40.323,9.481 40.260,9.386 C40.197,9.386 40.134,9.386 40.071,9.386 C40.039,9.323 40.008,9.260 39.976,9.197 C39.913,9.197 39.851,9.197 39.788,9.197 C39.693,9.071 39.599,8.944 39.504,8.818 C39.410,8.787 39.316,8.755 39.221,8.724 C39.190,8.661 39.158,8.598 39.127,8.535 C39.064,8.535 39.001,8.535 38.938,8.535 C38.875,8.440 38.812,8.345 38.749,8.251 C38.686,8.251 38.623,8.251 38.560,8.251 C38.498,8.156 38.435,8.062 38.372,7.967 C38.309,7.967 38.246,7.967 38.183,7.967 C38.089,7.841 37.994,7.715 37.900,7.589 C37.837,7.589 37.774,7.589 37.711,7.589 C37.679,7.525 37.648,7.462 37.617,7.399 C37.554,7.399 37.491,7.399 37.428,7.399 C37.365,7.305 37.302,7.210 37.239,7.116 C37.207,7.116 37.176,7.116 37.145,7.116 C37.145,7.147 37.145,7.179 37.145,7.210 C37.113,7.210 37.082,7.210 37.050,7.210 C37.428,8.251 37.805,9.291 38.183,10.332 C38.246,10.616 38.309,10.900 38.372,11.183 C38.529,11.578 38.976,12.258 38.749,12.981 C38.684,13.191 38.520,13.378 38.466,13.643 C38.340,13.737 38.214,13.832 38.088,13.927 C38.088,13.958 38.088,13.990 38.088,14.021 C38.026,14.021 37.963,14.021 37.900,14.021 C37.868,14.084 37.837,14.147 37.805,14.210 C37.585,14.242 37.365,14.273 37.145,14.305 C37.145,14.337 37.145,14.368 37.145,14.400 C34.596,14.400 32.047,14.400 29.499,14.400 Z"/>
</svg>