<svg 
 xmlns="http://www.w3.org/2000/svg"
 xmlns:xlink="http://www.w3.org/1999/xlink"
 width="38px" height="12px">
<path fill-rule="evenodd"  fill="rgb(191, 162, 116)"
 d="M31.809,0.000 C31.953,0.000 32.097,0.000 32.241,0.000 C32.241,0.016 32.241,0.032 32.241,0.048 C32.289,0.048 32.337,0.048 32.385,0.048 C32.385,0.064 32.385,0.080 32.385,0.097 C32.417,0.097 32.449,0.097 32.481,0.097 C32.481,0.113 32.481,0.129 32.481,0.145 C32.513,0.145 32.545,0.145 32.577,0.145 C32.897,0.483 33.217,0.821 33.536,1.159 C33.811,1.434 34.081,1.699 34.400,1.931 C35.232,2.784 36.064,3.637 36.896,4.489 C37.213,4.808 37.552,5.070 37.808,5.455 C37.840,5.471 37.872,5.487 37.904,5.503 C37.904,5.535 37.904,5.567 37.904,5.599 C37.920,5.599 37.936,5.599 37.952,5.599 C37.968,5.809 37.984,6.018 38.000,6.227 C37.853,6.685 37.352,7.024 37.040,7.337 C36.784,7.611 36.528,7.884 36.272,8.158 C35.808,8.608 35.344,9.059 34.880,9.509 C34.704,9.703 34.528,9.896 34.352,10.089 C34.320,10.089 34.288,10.089 34.256,10.089 C34.160,10.201 34.064,10.314 33.968,10.427 C33.712,10.668 33.456,10.909 33.201,11.151 C32.913,11.439 32.672,11.834 32.241,11.971 C31.923,12.073 31.675,11.871 31.473,11.827 C31.409,11.746 31.345,11.666 31.281,11.585 C31.265,11.585 31.249,11.585 31.233,11.585 C31.233,11.553 31.233,11.521 31.233,11.489 C31.201,11.473 31.169,11.456 31.137,11.440 C31.064,11.301 31.064,10.711 31.137,10.571 C31.169,10.555 31.201,10.539 31.233,10.523 C31.508,10.101 31.894,9.810 32.241,9.461 C32.385,9.300 32.529,9.139 32.673,8.979 C33.088,8.576 33.505,8.174 33.920,7.772 C34.143,7.548 34.421,7.155 34.688,6.999 C34.688,6.983 34.688,6.967 34.688,6.951 C23.379,6.951 12.066,6.951 0.756,6.951 C0.756,6.935 0.756,6.919 0.756,6.903 C0.692,6.903 0.628,6.903 0.564,6.903 C0.564,6.887 0.564,6.871 0.564,6.855 C0.246,6.777 0.234,6.541 0.036,6.372 C0.019,6.137 -0.037,6.004 0.036,5.793 C0.036,5.728 0.036,5.664 0.036,5.599 C0.052,5.599 0.068,5.599 0.084,5.599 C0.161,5.280 0.396,5.268 0.564,5.069 C2.089,4.997 3.808,5.020 5.411,5.020 C7.811,5.020 10.211,5.020 12.611,5.020 C19.969,5.020 27.330,5.020 34.688,5.020 C34.688,5.004 34.688,4.988 34.688,4.972 C34.422,4.818 34.142,4.423 33.920,4.200 C33.489,3.781 33.056,3.363 32.625,2.945 C32.497,2.800 32.369,2.655 32.241,2.510 C31.894,2.162 31.507,1.870 31.233,1.448 C31.201,1.432 31.169,1.416 31.137,1.400 C31.018,1.172 31.115,0.764 31.137,0.531 C31.254,0.456 31.166,0.476 31.233,0.386 C31.313,0.322 31.393,0.257 31.473,0.193 C31.473,0.177 31.473,0.161 31.473,0.145 C31.505,0.145 31.537,0.145 31.569,0.145 C31.569,0.129 31.569,0.113 31.569,0.097 C31.649,0.080 31.729,0.064 31.809,0.048 C31.809,0.032 31.809,0.016 31.809,0.000 Z"/>
</svg>