<svg 
 xmlns="http://www.w3.org/2000/svg"
 xmlns:xlink="http://www.w3.org/1999/xlink"
 width="46px" height="55px">
<path fill-rule="evenodd"  fill="rgb(191, 162, 116)"
 d="M22.664,0.000 C23.331,-0.014 23.812,0.098 24.193,0.369 C24.397,0.595 24.601,0.821 24.805,1.046 C24.846,1.046 24.886,1.046 24.927,1.046 C24.927,1.067 24.927,1.087 24.927,1.108 C24.988,1.149 25.050,1.190 25.111,1.231 C25.213,1.354 25.315,1.477 25.417,1.600 C25.457,1.600 25.498,1.600 25.539,1.600 C25.641,1.723 25.743,1.846 25.845,1.970 C25.886,1.970 25.926,1.970 25.967,1.970 C25.988,2.011 26.008,2.052 26.028,2.093 C26.049,2.093 26.069,2.093 26.090,2.093 C26.110,2.134 26.130,2.175 26.151,2.216 C26.192,2.216 26.232,2.216 26.273,2.216 C26.334,2.298 26.396,2.380 26.457,2.462 C26.497,2.462 26.538,2.462 26.579,2.462 C26.640,2.544 26.701,2.626 26.763,2.708 C26.803,2.708 26.844,2.708 26.885,2.708 C26.926,2.770 26.967,2.831 27.007,2.893 C27.068,2.913 27.130,2.934 27.191,2.954 C27.211,2.995 27.232,3.036 27.252,3.077 C27.293,3.077 27.334,3.077 27.374,3.077 C27.374,3.098 27.374,3.118 27.374,3.139 C27.436,3.159 27.497,3.180 27.558,3.200 C27.578,3.241 27.599,3.283 27.619,3.324 C27.660,3.324 27.701,3.324 27.741,3.324 C27.782,3.385 27.823,3.447 27.864,3.508 C27.905,3.508 27.945,3.508 27.986,3.508 C28.007,3.549 28.027,3.590 28.047,3.631 C28.088,3.631 28.129,3.631 28.170,3.631 C28.190,3.672 28.211,3.713 28.231,3.754 C28.292,3.775 28.353,3.795 28.414,3.816 C28.414,3.836 28.414,3.857 28.414,3.877 C28.496,3.898 28.578,3.918 28.659,3.939 C28.659,3.960 28.659,3.980 28.659,4.001 C28.720,4.021 28.782,4.042 28.843,4.062 C28.863,4.103 28.884,4.144 28.904,4.185 C28.985,4.206 29.067,4.226 29.149,4.247 C29.169,4.288 29.189,4.329 29.210,4.370 C29.332,4.411 29.455,4.452 29.577,4.493 C29.597,4.534 29.618,4.575 29.638,4.616 C29.679,4.616 29.720,4.616 29.760,4.616 C29.760,4.637 29.760,4.657 29.760,4.678 C29.801,4.678 29.842,4.678 29.883,4.678 C29.883,4.698 29.883,4.719 29.883,4.739 C29.924,4.739 29.964,4.739 30.005,4.739 C30.005,4.760 30.005,4.780 30.005,4.801 C30.046,4.801 30.087,4.801 30.128,4.801 C30.148,4.842 30.168,4.883 30.189,4.924 C30.311,4.965 30.433,5.006 30.556,5.047 C30.556,5.067 30.556,5.088 30.556,5.108 C30.597,5.108 30.637,5.108 30.678,5.108 C30.678,5.129 30.678,5.149 30.678,5.170 C30.719,5.170 30.760,5.170 30.800,5.170 C30.800,5.190 30.800,5.211 30.800,5.232 C30.923,5.273 31.045,5.314 31.168,5.355 C31.168,5.375 31.168,5.396 31.168,5.416 C31.229,5.416 31.290,5.416 31.351,5.416 C31.351,5.437 31.351,5.457 31.351,5.478 C31.392,5.478 31.433,5.478 31.473,5.478 C31.473,5.498 31.473,5.519 31.473,5.539 C31.596,5.580 31.718,5.621 31.841,5.662 C31.841,5.683 31.841,5.703 31.841,5.724 C31.902,5.724 31.963,5.724 32.024,5.724 C32.024,5.744 32.024,5.765 32.024,5.785 C32.106,5.806 32.187,5.826 32.269,5.847 C32.269,5.867 32.269,5.888 32.269,5.909 C32.330,5.909 32.391,5.909 32.452,5.909 C32.452,5.929 32.452,5.950 32.452,5.970 C32.493,5.970 32.534,5.970 32.575,5.970 C32.575,5.991 32.575,6.011 32.575,6.032 C32.636,6.032 32.697,6.032 32.758,6.032 C32.758,6.052 32.758,6.073 32.758,6.093 C32.799,6.093 32.840,6.093 32.881,6.093 C32.881,6.114 32.881,6.134 32.881,6.155 C33.003,6.175 33.125,6.196 33.248,6.216 C33.248,6.237 33.248,6.257 33.248,6.278 C33.288,6.278 33.329,6.278 33.370,6.278 C33.370,6.298 33.370,6.319 33.370,6.339 C33.492,6.360 33.615,6.380 33.737,6.401 C33.737,6.421 33.737,6.442 33.737,6.462 C33.798,6.462 33.860,6.462 33.921,6.462 C33.921,6.483 33.921,6.503 33.921,6.524 C33.982,6.524 34.043,6.524 34.104,6.524 C34.104,6.545 34.104,6.565 34.104,6.586 C34.165,6.586 34.227,6.586 34.288,6.586 C34.288,6.606 34.288,6.627 34.288,6.647 C34.349,6.647 34.410,6.647 34.471,6.647 C34.471,6.668 34.471,6.688 34.471,6.709 C34.553,6.709 34.634,6.709 34.716,6.709 C34.716,6.729 34.716,6.750 34.716,6.770 C34.777,6.770 34.838,6.770 34.900,6.770 C34.900,6.791 34.900,6.811 34.900,6.832 C35.042,6.852 35.185,6.873 35.328,6.893 C35.328,6.914 35.328,6.934 35.328,6.955 C35.491,6.975 35.654,6.996 35.817,7.016 C35.817,7.037 35.817,7.057 35.817,7.078 C35.980,7.098 36.144,7.119 36.307,7.139 C36.307,7.160 36.307,7.180 36.307,7.201 C36.490,7.222 36.674,7.242 36.857,7.263 C36.857,7.283 36.857,7.304 36.857,7.324 C37.082,7.345 37.306,7.365 37.530,7.386 C37.530,7.406 37.530,7.427 37.530,7.447 C37.632,7.447 37.734,7.447 37.836,7.447 C37.836,7.468 37.836,7.488 37.836,7.509 C37.959,7.509 38.081,7.509 38.203,7.509 C38.203,7.529 38.203,7.550 38.203,7.570 C38.326,7.570 38.448,7.570 38.570,7.570 C38.570,7.591 38.570,7.611 38.570,7.632 C38.713,7.632 38.856,7.632 38.999,7.632 C38.999,7.652 38.999,7.673 38.999,7.693 C39.162,7.693 39.325,7.693 39.488,7.693 C39.488,7.714 39.488,7.734 39.488,7.755 C39.672,7.755 39.855,7.755 40.039,7.755 C40.039,7.775 40.039,7.796 40.039,7.816 C40.263,7.816 40.487,7.816 40.712,7.816 C40.712,7.837 40.712,7.858 40.712,7.878 C41.935,7.919 43.159,7.960 44.383,8.001 C44.383,8.022 44.383,8.042 44.383,8.063 C44.550,8.123 44.734,8.100 44.872,8.186 C44.892,8.227 44.913,8.268 44.933,8.309 C44.974,8.309 45.015,8.309 45.056,8.309 C45.096,8.370 45.137,8.432 45.178,8.493 C45.239,8.514 45.300,8.535 45.361,8.555 C45.361,8.596 45.361,8.637 45.361,8.678 C45.423,8.719 45.484,8.760 45.545,8.801 C45.545,8.842 45.545,8.883 45.545,8.924 C45.586,8.945 45.627,8.965 45.667,8.986 C45.951,9.452 45.851,10.581 45.851,11.325 C45.851,11.550 45.851,11.776 45.851,12.002 C46.029,12.647 45.912,13.815 45.912,14.587 C45.912,14.874 45.912,15.161 45.912,15.448 C46.016,15.824 45.973,16.449 45.973,16.925 C45.973,17.828 45.973,18.731 45.973,19.634 C45.973,20.272 46.061,21.134 45.912,21.665 C45.912,21.952 45.912,22.239 45.912,22.526 C45.892,23.162 45.871,23.798 45.851,24.434 C45.830,24.434 45.810,24.434 45.790,24.434 C45.790,24.742 45.790,25.050 45.790,25.357 C45.769,25.357 45.749,25.357 45.729,25.357 C45.729,25.604 45.729,25.850 45.729,26.096 C45.708,26.096 45.688,26.096 45.667,26.096 C45.667,26.301 45.667,26.506 45.667,26.711 C45.647,26.711 45.627,26.711 45.606,26.711 C45.606,26.896 45.606,27.081 45.606,27.265 C45.586,27.265 45.565,27.265 45.545,27.265 C45.545,27.450 45.545,27.635 45.545,27.819 C45.395,28.339 45.387,29.035 45.239,29.543 C45.239,29.686 45.239,29.830 45.239,29.973 C45.093,30.458 45.021,31.095 44.872,31.574 C44.872,31.676 44.872,31.779 44.872,31.881 C44.852,31.881 44.831,31.881 44.811,31.881 C44.770,32.148 44.729,32.415 44.688,32.681 C44.668,32.681 44.648,32.681 44.627,32.681 C44.607,32.846 44.586,33.010 44.566,33.174 C44.546,33.174 44.525,33.174 44.505,33.174 C44.505,33.256 44.505,33.338 44.505,33.420 C44.485,33.420 44.464,33.420 44.444,33.420 C44.444,33.502 44.444,33.584 44.444,33.666 C44.423,33.666 44.403,33.666 44.383,33.666 C44.383,33.748 44.383,33.830 44.383,33.912 C44.362,33.912 44.342,33.912 44.321,33.912 C44.321,33.974 44.321,34.036 44.321,34.097 C44.301,34.097 44.281,34.097 44.260,34.097 C44.260,34.179 44.260,34.261 44.260,34.343 C44.240,34.343 44.219,34.343 44.199,34.343 C44.199,34.405 44.199,34.466 44.199,34.528 C44.179,34.528 44.158,34.528 44.138,34.528 C44.138,34.589 44.138,34.651 44.138,34.713 C44.117,34.713 44.097,34.713 44.077,34.713 C44.077,34.795 44.077,34.877 44.077,34.959 C43.318,37.059 42.606,39.116 41.507,40.867 C41.466,40.990 41.425,41.113 41.385,41.237 C41.344,41.257 41.303,41.278 41.262,41.298 C41.262,41.339 41.262,41.380 41.262,41.421 C41.242,41.421 41.222,41.421 41.201,41.421 C41.201,41.462 41.201,41.503 41.201,41.544 C41.181,41.544 41.160,41.544 41.140,41.544 C41.140,41.585 41.140,41.626 41.140,41.667 C41.120,41.667 41.099,41.667 41.079,41.667 C41.058,41.729 41.038,41.790 41.018,41.852 C40.977,41.873 40.936,41.893 40.895,41.914 C40.875,41.996 40.854,42.078 40.834,42.160 C40.814,42.160 40.793,42.160 40.773,42.160 C40.753,42.221 40.732,42.283 40.712,42.344 C40.671,42.365 40.630,42.385 40.589,42.406 C40.589,42.447 40.589,42.488 40.589,42.529 C40.549,42.550 40.508,42.570 40.467,42.591 C40.467,42.632 40.467,42.673 40.467,42.714 C40.426,42.734 40.385,42.755 40.345,42.775 C40.345,42.816 40.345,42.857 40.345,42.898 C40.324,42.898 40.304,42.898 40.283,42.898 C40.263,42.960 40.243,43.021 40.222,43.083 C40.181,43.103 40.141,43.124 40.100,43.144 C40.100,43.186 40.100,43.227 40.100,43.268 C40.039,43.309 39.978,43.350 39.916,43.391 C39.916,43.432 39.916,43.473 39.916,43.514 C39.855,43.555 39.794,43.596 39.733,43.637 C39.733,43.678 39.733,43.719 39.733,43.760 C39.692,43.780 39.651,43.801 39.610,43.822 C39.610,43.863 39.610,43.904 39.610,43.945 C39.529,44.006 39.447,44.068 39.366,44.129 C39.366,44.170 39.366,44.211 39.366,44.252 C39.305,44.293 39.243,44.334 39.182,44.375 C39.182,44.416 39.182,44.458 39.182,44.499 C39.101,44.560 39.019,44.622 38.937,44.683 C38.937,44.724 38.937,44.765 38.937,44.806 C38.836,44.888 38.734,44.970 38.632,45.052 C38.632,45.093 38.632,45.135 38.632,45.176 C38.489,45.299 38.346,45.422 38.203,45.545 C38.203,45.586 38.203,45.627 38.203,45.668 C37.959,45.894 37.714,46.119 37.469,46.345 C37.469,46.386 37.469,46.427 37.469,46.468 C37.388,46.530 37.306,46.591 37.224,46.653 C37.082,46.817 36.939,46.981 36.796,47.145 C36.755,47.145 36.715,47.145 36.674,47.145 C36.429,47.412 36.184,47.678 35.940,47.945 C35.899,47.945 35.858,47.945 35.817,47.945 C35.797,47.986 35.777,48.027 35.756,48.068 C35.736,48.068 35.715,48.068 35.695,48.068 C35.634,48.150 35.573,48.232 35.511,48.314 C35.471,48.314 35.430,48.314 35.389,48.314 C35.307,48.417 35.226,48.520 35.144,48.622 C35.104,48.622 35.063,48.622 35.022,48.622 C35.022,48.643 35.022,48.663 35.022,48.684 C34.961,48.725 34.900,48.766 34.838,48.807 C34.818,48.848 34.798,48.889 34.777,48.930 C34.736,48.930 34.696,48.930 34.655,48.930 C34.634,48.971 34.614,49.012 34.594,49.053 C34.533,49.074 34.471,49.094 34.410,49.115 C34.349,49.197 34.288,49.279 34.227,49.361 C34.186,49.361 34.145,49.361 34.104,49.361 C34.063,49.422 34.023,49.484 33.982,49.545 C33.921,49.566 33.860,49.586 33.798,49.607 C33.778,49.648 33.758,49.689 33.737,49.730 C33.696,49.730 33.656,49.730 33.615,49.730 C33.594,49.771 33.574,49.812 33.554,49.853 C33.513,49.853 33.472,49.853 33.431,49.853 C33.390,49.915 33.350,49.976 33.309,50.038 C33.268,50.038 33.227,50.038 33.187,50.038 C33.166,50.079 33.146,50.120 33.125,50.161 C33.064,50.181 33.003,50.202 32.942,50.222 C32.942,50.243 32.942,50.263 32.942,50.284 C32.901,50.284 32.860,50.284 32.819,50.284 C32.799,50.325 32.779,50.366 32.758,50.407 C32.717,50.407 32.677,50.407 32.636,50.407 C32.616,50.448 32.595,50.489 32.575,50.530 C32.534,50.530 32.493,50.530 32.452,50.530 C32.432,50.571 32.412,50.612 32.391,50.653 C32.350,50.653 32.310,50.653 32.269,50.653 C32.248,50.694 32.228,50.735 32.208,50.776 C32.167,50.776 32.126,50.776 32.085,50.776 C32.065,50.817 32.044,50.858 32.024,50.899 C31.983,50.899 31.943,50.899 31.902,50.899 C31.881,50.940 31.861,50.981 31.841,51.023 C31.759,51.043 31.677,51.064 31.596,51.084 C31.575,51.125 31.555,51.166 31.535,51.207 C31.453,51.228 31.372,51.248 31.290,51.269 C31.270,51.310 31.249,51.351 31.229,51.392 C31.147,51.412 31.066,51.433 30.984,51.453 C30.964,51.494 30.943,51.535 30.923,51.576 C30.801,51.617 30.678,51.659 30.556,51.700 C30.535,51.741 30.515,51.782 30.495,51.823 C30.454,51.823 30.413,51.823 30.372,51.823 C30.372,51.843 30.372,51.864 30.372,51.884 C30.331,51.884 30.291,51.884 30.250,51.884 C30.250,51.905 30.250,51.925 30.250,51.946 C30.209,51.946 30.168,51.946 30.128,51.946 C30.128,51.966 30.128,51.987 30.128,52.007 C30.087,52.007 30.046,52.007 30.005,52.007 C29.985,52.048 29.964,52.089 29.944,52.130 C29.862,52.151 29.781,52.171 29.699,52.192 C29.699,52.212 29.699,52.233 29.699,52.253 C29.658,52.253 29.618,52.253 29.577,52.253 C29.577,52.274 29.577,52.294 29.577,52.315 C29.536,52.315 29.495,52.315 29.455,52.315 C29.455,52.336 29.455,52.356 29.455,52.377 C29.414,52.377 29.373,52.377 29.332,52.377 C29.332,52.397 29.332,52.418 29.332,52.438 C29.291,52.438 29.251,52.438 29.210,52.438 C29.210,52.459 29.210,52.479 29.210,52.500 C29.128,52.520 29.047,52.541 28.965,52.561 C28.965,52.582 28.965,52.602 28.965,52.623 C28.884,52.643 28.802,52.664 28.720,52.684 C28.720,52.705 28.720,52.725 28.720,52.746 C28.680,52.746 28.639,52.746 28.598,52.746 C28.598,52.766 28.598,52.787 28.598,52.807 C28.557,52.807 28.516,52.807 28.476,52.807 C28.476,52.828 28.476,52.848 28.476,52.869 C28.435,52.869 28.394,52.869 28.353,52.869 C28.353,52.889 28.353,52.910 28.353,52.930 C28.313,52.930 28.272,52.930 28.231,52.930 C28.231,52.951 28.231,52.972 28.231,52.992 C28.190,52.992 28.149,52.992 28.109,52.992 C28.109,53.013 28.109,53.033 28.109,53.054 C28.027,53.074 27.945,53.095 27.864,53.115 C27.864,53.136 27.864,53.156 27.864,53.177 C27.823,53.177 27.782,53.177 27.741,53.177 C27.741,53.197 27.741,53.218 27.741,53.238 C27.640,53.259 27.538,53.279 27.436,53.300 C27.436,53.320 27.436,53.341 27.436,53.361 C27.313,53.402 27.191,53.443 27.068,53.484 C27.068,53.505 27.068,53.525 27.068,53.546 C27.007,53.546 26.946,53.546 26.885,53.546 C26.885,53.566 26.885,53.587 26.885,53.607 C26.803,53.628 26.722,53.649 26.640,53.669 C26.640,53.690 26.640,53.710 26.640,53.731 C26.579,53.731 26.518,53.731 26.457,53.731 C26.457,53.751 26.457,53.772 26.457,53.792 C26.416,53.792 26.375,53.792 26.334,53.792 C26.334,53.813 26.334,53.833 26.334,53.854 C26.273,53.854 26.212,53.854 26.151,53.854 C26.151,53.874 26.151,53.895 26.151,53.915 C26.069,53.936 25.988,53.956 25.906,53.977 C25.906,53.997 25.906,54.018 25.906,54.038 C25.845,54.038 25.784,54.038 25.723,54.038 C25.723,54.059 25.723,54.079 25.723,54.100 C25.682,54.100 25.641,54.100 25.600,54.100 C25.600,54.120 25.600,54.141 25.600,54.161 C25.478,54.182 25.355,54.202 25.233,54.223 C25.233,54.243 25.233,54.264 25.233,54.285 C25.192,54.285 25.152,54.285 25.111,54.285 C25.111,54.305 25.111,54.326 25.111,54.346 C25.050,54.346 24.988,54.346 24.927,54.346 C24.927,54.367 24.927,54.387 24.927,54.408 C24.886,54.408 24.846,54.408 24.805,54.408 C24.805,54.428 24.805,54.449 24.805,54.469 C24.621,54.510 24.438,54.551 24.254,54.592 C24.254,54.613 24.254,54.633 24.254,54.654 C24.213,54.654 24.173,54.654 24.132,54.654 C24.132,54.674 24.132,54.695 24.132,54.715 C24.071,54.715 24.009,54.715 23.948,54.715 C23.948,54.736 23.948,54.756 23.948,54.777 C23.887,54.777 23.826,54.777 23.765,54.777 C23.765,54.797 23.765,54.818 23.765,54.838 C23.704,54.838 23.642,54.838 23.581,54.838 C23.581,54.859 23.581,54.879 23.581,54.900 C23.500,54.900 23.418,54.900 23.336,54.900 C23.336,54.920 23.336,54.941 23.336,54.962 C22.919,55.087 22.467,54.869 22.235,54.777 C22.113,54.756 21.991,54.736 21.868,54.715 C21.868,54.695 21.868,54.674 21.868,54.654 C21.827,54.654 21.787,54.654 21.746,54.654 C21.746,54.633 21.746,54.613 21.746,54.592 C21.562,54.551 21.379,54.510 21.195,54.469 C21.195,54.449 21.195,54.428 21.195,54.408 C21.154,54.408 21.114,54.408 21.073,54.408 C21.073,54.387 21.073,54.367 21.073,54.346 C21.012,54.346 20.950,54.346 20.889,54.346 C20.889,54.326 20.889,54.305 20.889,54.285 C20.848,54.285 20.808,54.285 20.767,54.285 C20.767,54.264 20.767,54.243 20.767,54.223 C20.645,54.202 20.522,54.182 20.400,54.161 C20.400,54.141 20.400,54.120 20.400,54.100 C20.359,54.100 20.318,54.100 20.277,54.100 C20.277,54.079 20.277,54.059 20.277,54.038 C20.216,54.038 20.155,54.038 20.094,54.038 C20.094,54.018 20.094,53.997 20.094,53.977 C20.012,53.956 19.931,53.936 19.849,53.915 C19.849,53.895 19.849,53.874 19.849,53.854 C19.747,53.833 19.645,53.813 19.543,53.792 C19.543,53.772 19.543,53.751 19.543,53.731 C19.482,53.731 19.421,53.731 19.360,53.731 C19.360,53.710 19.360,53.690 19.360,53.669 C19.278,53.649 19.197,53.628 19.115,53.607 C19.115,53.587 19.115,53.566 19.115,53.546 C19.054,53.546 18.993,53.546 18.932,53.546 C18.932,53.525 18.932,53.505 18.932,53.484 C18.891,53.484 18.850,53.484 18.809,53.484 C18.809,53.464 18.809,53.443 18.809,53.423 C18.728,53.402 18.646,53.382 18.564,53.361 C18.564,53.341 18.564,53.320 18.564,53.300 C18.503,53.300 18.442,53.300 18.381,53.300 C18.381,53.279 18.381,53.259 18.381,53.238 C18.340,53.238 18.299,53.238 18.259,53.238 C18.259,53.218 18.259,53.197 18.259,53.177 C18.177,53.156 18.095,53.136 18.014,53.115 C18.014,53.095 18.014,53.074 18.014,53.054 C17.932,53.033 17.851,53.013 17.769,52.992 C17.769,52.972 17.769,52.951 17.769,52.930 C17.688,52.910 17.606,52.889 17.524,52.869 C17.524,52.848 17.524,52.828 17.524,52.807 C17.484,52.807 17.443,52.807 17.402,52.807 C17.402,52.787 17.402,52.766 17.402,52.746 C17.361,52.746 17.320,52.746 17.280,52.746 C17.280,52.725 17.280,52.705 17.280,52.684 C17.239,52.684 17.198,52.684 17.157,52.684 C17.157,52.664 17.157,52.643 17.157,52.623 C17.116,52.623 17.076,52.623 17.035,52.623 C17.035,52.602 17.035,52.582 17.035,52.561 C16.994,52.561 16.953,52.561 16.913,52.561 C16.913,52.541 16.913,52.520 16.913,52.500 C16.586,52.356 16.260,52.212 15.934,52.069 C15.913,52.028 15.893,51.987 15.872,51.946 C15.750,51.905 15.628,51.864 15.505,51.823 C15.485,51.782 15.465,51.741 15.444,51.700 C15.322,51.659 15.199,51.617 15.077,51.576 C15.057,51.535 15.036,51.494 15.016,51.453 C14.934,51.433 14.853,51.412 14.771,51.392 C14.751,51.351 14.730,51.310 14.710,51.269 C14.628,51.248 14.547,51.228 14.465,51.207 C14.445,51.166 14.425,51.125 14.404,51.084 C14.323,51.064 14.241,51.043 14.159,51.023 C14.139,50.981 14.119,50.940 14.098,50.899 C14.057,50.899 14.017,50.899 13.976,50.899 C13.956,50.858 13.935,50.817 13.915,50.776 C13.874,50.776 13.833,50.776 13.792,50.776 C13.792,50.756 13.792,50.735 13.792,50.715 C13.731,50.694 13.670,50.674 13.609,50.653 C13.588,50.612 13.568,50.571 13.548,50.530 C13.507,50.530 13.466,50.530 13.425,50.530 C13.405,50.489 13.384,50.448 13.364,50.407 C13.323,50.407 13.283,50.407 13.242,50.407 C13.221,50.366 13.201,50.325 13.181,50.284 C13.140,50.284 13.099,50.284 13.058,50.284 C13.058,50.263 13.058,50.243 13.058,50.222 C12.997,50.202 12.936,50.181 12.875,50.161 C12.854,50.120 12.834,50.079 12.813,50.038 C12.773,50.038 12.732,50.038 12.691,50.038 C12.650,49.976 12.610,49.915 12.569,49.853 C12.528,49.853 12.487,49.853 12.446,49.853 C12.426,49.812 12.406,49.771 12.385,49.730 C12.344,49.730 12.304,49.730 12.263,49.730 C12.222,49.668 12.181,49.607 12.140,49.545 C12.100,49.545 12.059,49.545 12.018,49.545 C11.977,49.484 11.937,49.422 11.896,49.361 C11.855,49.361 11.814,49.361 11.773,49.361 C11.733,49.299 11.692,49.238 11.651,49.176 C11.610,49.176 11.569,49.176 11.529,49.176 C11.468,49.094 11.406,49.012 11.345,48.930 C11.304,48.930 11.264,48.930 11.223,48.930 C11.162,48.848 11.100,48.766 11.039,48.684 C10.998,48.684 10.958,48.684 10.917,48.684 C10.815,48.561 10.713,48.438 10.611,48.314 C10.570,48.314 10.529,48.314 10.489,48.314 C10.387,48.191 10.285,48.068 10.183,47.945 C10.142,47.945 10.101,47.945 10.060,47.945 C9.836,47.699 9.612,47.453 9.387,47.207 C9.347,47.207 9.306,47.207 9.265,47.207 C9.204,47.125 9.143,47.042 9.081,46.960 C8.898,46.796 8.714,46.632 8.531,46.468 C8.531,46.427 8.531,46.386 8.531,46.345 C8.286,46.119 8.041,45.894 7.797,45.668 C7.797,45.627 7.797,45.586 7.797,45.545 C7.654,45.422 7.511,45.299 7.368,45.176 C7.368,45.135 7.368,45.093 7.368,45.052 C7.266,44.970 7.164,44.888 7.063,44.806 C7.063,44.765 7.063,44.724 7.063,44.683 C6.981,44.622 6.899,44.560 6.818,44.499 C6.818,44.458 6.818,44.416 6.818,44.375 C6.757,44.334 6.695,44.293 6.634,44.252 C6.634,44.211 6.634,44.170 6.634,44.129 C6.553,44.068 6.471,44.006 6.390,43.945 C6.369,43.883 6.349,43.822 6.328,43.760 C6.288,43.739 6.247,43.719 6.206,43.698 C6.206,43.657 6.206,43.616 6.206,43.575 C6.165,43.555 6.124,43.534 6.084,43.514 C6.084,43.473 6.084,43.432 6.084,43.391 C6.022,43.350 5.961,43.309 5.900,43.268 C5.900,43.227 5.900,43.186 5.900,43.144 C5.859,43.124 5.819,43.103 5.778,43.083 C5.757,43.021 5.737,42.960 5.717,42.898 C5.696,42.898 5.676,42.898 5.655,42.898 C5.655,42.857 5.655,42.816 5.655,42.775 C5.615,42.755 5.574,42.734 5.533,42.714 C5.533,42.673 5.533,42.632 5.533,42.591 C5.492,42.570 5.451,42.550 5.411,42.529 C5.411,42.488 5.411,42.447 5.411,42.406 C5.370,42.385 5.329,42.365 5.288,42.344 C5.288,42.303 5.288,42.262 5.288,42.221 C5.247,42.201 5.207,42.180 5.166,42.160 C5.146,42.078 5.125,41.996 5.105,41.914 C5.064,41.893 5.023,41.873 4.982,41.852 C4.962,41.790 4.942,41.729 4.921,41.667 C4.901,41.667 4.880,41.667 4.860,41.667 C4.819,41.544 4.778,41.421 4.738,41.298 C4.697,41.278 4.656,41.257 4.615,41.237 C4.595,41.154 4.575,41.072 4.554,40.990 C4.513,40.970 4.473,40.949 4.432,40.929 C4.432,40.888 4.432,40.847 4.432,40.806 C4.411,40.806 4.391,40.806 4.371,40.806 C4.371,40.765 4.371,40.724 4.371,40.683 C4.350,40.683 4.330,40.683 4.309,40.683 C4.309,40.642 4.309,40.601 4.309,40.560 C4.289,40.560 4.269,40.560 4.248,40.560 C4.248,40.518 4.248,40.477 4.248,40.436 C4.228,40.436 4.207,40.436 4.187,40.436 C4.167,40.354 4.146,40.272 4.126,40.190 C4.085,40.170 4.044,40.149 4.003,40.129 C3.963,40.006 3.922,39.882 3.881,39.759 C3.861,39.759 3.840,39.759 3.820,39.759 C3.820,39.718 3.820,39.677 3.820,39.636 C3.800,39.636 3.779,39.636 3.759,39.636 C3.718,39.513 3.677,39.390 3.636,39.267 C3.616,39.267 3.596,39.267 3.575,39.267 C3.575,39.205 3.575,39.144 3.575,39.082 C3.555,39.082 3.534,39.082 3.514,39.082 C3.514,39.041 3.514,39.000 3.514,38.959 C3.494,38.959 3.473,38.959 3.453,38.959 C3.412,38.836 3.371,38.713 3.331,38.590 C3.310,38.590 3.290,38.590 3.269,38.590 C3.269,38.528 3.269,38.467 3.269,38.405 C3.249,38.405 3.229,38.405 3.208,38.405 C3.188,38.323 3.167,38.241 3.147,38.159 C3.127,38.159 3.106,38.159 3.086,38.159 C3.086,38.098 3.086,38.036 3.086,37.975 C3.065,37.975 3.045,37.975 3.025,37.975 C3.004,37.892 2.984,37.810 2.963,37.728 C2.943,37.728 2.923,37.728 2.902,37.728 C2.902,37.667 2.902,37.605 2.902,37.544 C2.882,37.544 2.861,37.544 2.841,37.544 C2.841,37.503 2.841,37.462 2.841,37.421 C2.821,37.421 2.800,37.421 2.780,37.421 C2.759,37.318 2.739,37.215 2.719,37.113 C2.698,37.113 2.678,37.113 2.658,37.113 C2.637,36.990 2.617,36.867 2.596,36.744 C2.576,36.744 2.556,36.744 2.535,36.744 C2.535,36.703 2.535,36.662 2.535,36.621 C2.515,36.621 2.494,36.621 2.474,36.621 C2.433,36.436 2.392,36.251 2.352,36.067 C2.087,35.397 1.865,34.609 1.617,33.912 C1.597,33.748 1.577,33.584 1.556,33.420 C1.536,33.420 1.515,33.420 1.495,33.420 C1.495,33.338 1.495,33.256 1.495,33.174 C1.475,33.174 1.454,33.174 1.434,33.174 C1.434,33.092 1.434,33.010 1.434,32.928 C1.414,32.928 1.393,32.928 1.373,32.928 C1.373,32.846 1.373,32.764 1.373,32.681 C1.352,32.681 1.332,32.681 1.312,32.681 C1.312,32.599 1.312,32.517 1.312,32.435 C1.291,32.435 1.271,32.435 1.250,32.435 C1.230,32.251 1.210,32.066 1.189,31.881 C1.169,31.881 1.148,31.881 1.128,31.881 C0.924,30.692 0.720,29.501 0.516,28.312 C0.516,28.148 0.516,27.983 0.516,27.819 C0.496,27.819 0.475,27.819 0.455,27.819 C0.455,27.635 0.455,27.450 0.455,27.265 C0.435,27.265 0.414,27.265 0.394,27.265 C0.394,27.081 0.394,26.896 0.394,26.711 C0.373,26.711 0.353,26.711 0.333,26.711 C0.333,26.506 0.333,26.301 0.333,26.096 C0.312,26.096 0.292,26.096 0.271,26.096 C0.251,25.747 0.231,25.398 0.210,25.050 C0.210,24.845 0.210,24.639 0.210,24.434 C0.190,24.434 0.170,24.434 0.149,24.434 C0.129,23.532 0.108,22.629 0.088,21.726 C-0.017,21.351 0.027,20.725 0.027,20.249 C0.027,19.326 0.027,18.402 0.027,17.479 C0.027,16.840 -0.061,15.979 0.088,15.448 C0.088,15.161 0.088,14.874 0.088,14.587 C0.088,13.817 -0.031,12.643 0.149,12.002 C0.149,11.797 0.149,11.591 0.149,11.386 C0.149,10.684 0.047,9.610 0.271,9.109 C0.292,9.109 0.312,9.109 0.333,9.109 C0.333,9.068 0.333,9.027 0.333,8.986 C0.373,8.965 0.414,8.945 0.455,8.924 C0.455,8.883 0.455,8.842 0.455,8.801 C0.516,8.760 0.577,8.719 0.639,8.678 C0.639,8.637 0.639,8.596 0.639,8.555 C0.700,8.535 0.761,8.514 0.822,8.493 C0.863,8.432 0.904,8.370 0.944,8.309 C0.985,8.309 1.026,8.309 1.067,8.309 C1.087,8.268 1.108,8.227 1.128,8.186 C1.266,8.100 1.450,8.123 1.617,8.063 C1.617,8.042 1.617,8.022 1.617,8.001 C2.555,7.981 3.494,7.960 4.432,7.940 C4.432,7.919 4.432,7.899 4.432,7.878 C4.717,7.878 5.003,7.878 5.288,7.878 C5.288,7.858 5.288,7.837 5.288,7.816 C5.513,7.816 5.737,7.816 5.961,7.816 C7.022,7.652 8.082,7.488 9.143,7.324 C9.143,7.304 9.143,7.283 9.143,7.263 C9.408,7.222 9.673,7.180 9.938,7.139 C10.633,6.901 11.420,6.726 12.079,6.462 C12.263,6.421 12.446,6.380 12.630,6.339 C12.630,6.319 12.630,6.298 12.630,6.278 C12.671,6.278 12.712,6.278 12.752,6.278 C12.752,6.257 12.752,6.237 12.752,6.216 C12.875,6.196 12.997,6.175 13.119,6.155 C13.119,6.134 13.119,6.114 13.119,6.093 C13.221,6.073 13.323,6.052 13.425,6.032 C13.425,6.011 13.425,5.991 13.425,5.970 C13.466,5.970 13.507,5.970 13.548,5.970 C13.548,5.950 13.548,5.929 13.548,5.909 C13.609,5.909 13.670,5.909 13.731,5.909 C13.731,5.888 13.731,5.867 13.731,5.847 C13.813,5.826 13.894,5.806 13.976,5.785 C13.976,5.765 13.976,5.744 13.976,5.724 C14.037,5.724 14.098,5.724 14.159,5.724 C14.159,5.703 14.159,5.683 14.159,5.662 C14.200,5.662 14.241,5.662 14.282,5.662 C14.282,5.642 14.282,5.621 14.282,5.601 C14.404,5.560 14.527,5.519 14.649,5.478 C14.649,5.457 14.649,5.437 14.649,5.416 C14.710,5.416 14.771,5.416 14.832,5.416 C14.832,5.396 14.832,5.375 14.832,5.355 C14.955,5.314 15.077,5.273 15.200,5.232 C15.200,5.211 15.200,5.190 15.200,5.170 C15.240,5.170 15.281,5.170 15.322,5.170 C15.322,5.149 15.322,5.129 15.322,5.108 C15.363,5.108 15.403,5.108 15.444,5.108 C15.444,5.088 15.444,5.067 15.444,5.047 C15.567,5.006 15.689,4.965 15.811,4.924 C15.832,4.883 15.852,4.842 15.872,4.801 C15.913,4.801 15.954,4.801 15.995,4.801 C15.995,4.780 15.995,4.760 15.995,4.739 C16.036,4.739 16.076,4.739 16.117,4.739 C16.117,4.719 16.117,4.698 16.117,4.678 C16.158,4.678 16.199,4.678 16.240,4.678 C16.240,4.657 16.240,4.637 16.240,4.616 C16.280,4.616 16.321,4.616 16.362,4.616 C16.382,4.575 16.403,4.534 16.423,4.493 C16.545,4.452 16.668,4.411 16.790,4.370 C16.811,4.329 16.831,4.288 16.851,4.247 C16.933,4.226 17.015,4.206 17.096,4.185 C17.096,4.165 17.096,4.144 17.096,4.124 C17.157,4.103 17.218,4.083 17.280,4.062 C17.300,4.021 17.320,3.980 17.341,3.939 C17.422,3.918 17.504,3.898 17.586,3.877 C17.586,3.857 17.586,3.836 17.586,3.816 C17.647,3.795 17.708,3.775 17.769,3.754 C17.789,3.713 17.810,3.672 17.830,3.631 C17.871,3.631 17.912,3.631 17.953,3.631 C17.973,3.590 17.993,3.549 18.014,3.508 C18.055,3.508 18.095,3.508 18.136,3.508 C18.177,3.447 18.218,3.385 18.259,3.324 C18.299,3.324 18.340,3.324 18.381,3.324 C18.401,3.283 18.422,3.241 18.442,3.200 C18.483,3.200 18.524,3.200 18.564,3.200 C18.605,3.139 18.646,3.077 18.687,3.016 C18.728,3.016 18.768,3.016 18.809,3.016 C18.830,2.975 18.850,2.934 18.870,2.893 C18.911,2.893 18.952,2.893 18.993,2.893 C19.013,2.852 19.033,2.811 19.054,2.770 C19.115,2.749 19.176,2.729 19.237,2.708 C19.299,2.626 19.360,2.544 19.421,2.462 C19.462,2.462 19.503,2.462 19.543,2.462 C19.564,2.421 19.584,2.380 19.604,2.339 C19.625,2.339 19.645,2.339 19.666,2.339 C19.686,2.298 19.706,2.257 19.727,2.216 C19.768,2.216 19.808,2.216 19.849,2.216 C19.910,2.134 19.972,2.052 20.033,1.970 C20.074,1.970 20.114,1.970 20.155,1.970 C20.257,1.846 20.359,1.723 20.461,1.600 C20.502,1.600 20.543,1.600 20.583,1.600 C20.747,1.416 20.910,1.231 21.073,1.046 C21.114,1.046 21.154,1.046 21.195,1.046 C21.216,1.005 21.236,0.964 21.256,0.923 C21.379,0.821 21.501,0.718 21.623,0.615 C21.685,0.533 21.746,0.451 21.807,0.369 C21.848,0.369 21.889,0.369 21.929,0.369 C21.950,0.328 21.970,0.287 21.991,0.246 C22.072,0.226 22.154,0.205 22.235,0.185 C22.235,0.164 22.235,0.144 22.235,0.123 C22.378,0.103 22.521,0.082 22.664,0.062 C22.664,0.041 22.664,0.021 22.664,0.000 ZM4.003,11.817 C3.976,13.843 3.881,15.939 3.881,18.033 C3.881,18.895 3.881,19.757 3.881,20.618 C3.881,21.058 3.847,21.633 3.942,21.972 C3.942,22.526 3.942,23.080 3.942,23.634 C3.963,23.634 3.983,23.634 4.003,23.634 C4.003,23.839 4.003,24.044 4.003,24.250 C4.024,24.680 4.044,25.111 4.065,25.542 C4.085,25.542 4.105,25.542 4.126,25.542 C4.126,25.768 4.126,25.993 4.126,26.219 C4.146,26.219 4.167,26.219 4.187,26.219 C4.187,26.424 4.187,26.629 4.187,26.835 C4.351,27.408 4.330,28.186 4.493,28.742 C4.493,28.886 4.493,29.030 4.493,29.173 C4.645,29.686 4.705,30.338 4.860,30.835 C4.880,31.040 4.901,31.245 4.921,31.451 C4.942,31.451 4.962,31.451 4.982,31.451 C4.982,31.533 4.982,31.615 4.982,31.697 C5.081,31.987 5.190,32.391 5.288,32.681 C5.309,32.846 5.329,33.010 5.349,33.174 C5.635,34.035 5.921,34.897 6.206,35.759 C6.226,35.759 6.247,35.759 6.267,35.759 C6.267,35.800 6.267,35.841 6.267,35.882 C6.288,35.882 6.308,35.882 6.328,35.882 C6.328,35.943 6.328,36.005 6.328,36.067 C6.349,36.067 6.369,36.067 6.390,36.067 C6.390,36.108 6.390,36.149 6.390,36.190 C6.410,36.190 6.430,36.190 6.451,36.190 C6.451,36.251 6.451,36.313 6.451,36.374 C6.471,36.374 6.491,36.374 6.512,36.374 C6.512,36.415 6.512,36.456 6.512,36.497 C6.532,36.497 6.553,36.497 6.573,36.497 C6.593,36.600 6.614,36.703 6.634,36.805 C6.655,36.805 6.675,36.805 6.695,36.805 C6.695,36.846 6.695,36.887 6.695,36.928 C6.716,36.928 6.736,36.928 6.757,36.928 C6.757,36.969 6.757,37.010 6.757,37.051 C6.777,37.051 6.797,37.051 6.818,37.051 C6.859,37.174 6.899,37.298 6.940,37.421 C6.961,37.421 6.981,37.421 7.001,37.421 C7.001,37.482 7.001,37.544 7.001,37.605 C7.022,37.605 7.042,37.605 7.063,37.605 C7.103,37.728 7.144,37.851 7.185,37.975 C7.205,37.975 7.226,37.975 7.246,37.975 C7.246,38.016 7.246,38.057 7.246,38.098 C7.266,38.098 7.287,38.098 7.307,38.098 C7.328,38.180 7.348,38.262 7.368,38.344 C7.409,38.364 7.450,38.385 7.491,38.405 C7.491,38.446 7.491,38.487 7.491,38.528 C7.511,38.528 7.532,38.528 7.552,38.528 C7.552,38.569 7.552,38.611 7.552,38.652 C7.572,38.652 7.593,38.652 7.613,38.652 C7.613,38.693 7.613,38.734 7.613,38.775 C7.634,38.775 7.654,38.775 7.674,38.775 C7.674,38.816 7.674,38.857 7.674,38.898 C7.695,38.898 7.715,38.898 7.735,38.898 C7.735,38.939 7.735,38.980 7.735,39.021 C7.776,39.041 7.817,39.062 7.858,39.082 C7.858,39.123 7.858,39.164 7.858,39.205 C7.878,39.205 7.899,39.205 7.919,39.205 C7.919,39.247 7.919,39.288 7.919,39.329 C7.960,39.349 8.001,39.370 8.041,39.390 C8.062,39.472 8.082,39.554 8.103,39.636 C8.143,39.657 8.184,39.677 8.225,39.698 C8.225,39.739 8.225,39.780 8.225,39.821 C8.245,39.821 8.266,39.821 8.286,39.821 C8.286,39.862 8.286,39.903 8.286,39.944 C8.327,39.965 8.368,39.985 8.408,40.006 C8.408,40.047 8.408,40.088 8.408,40.129 C8.429,40.129 8.449,40.129 8.470,40.129 C8.490,40.190 8.510,40.252 8.531,40.313 C8.572,40.334 8.612,40.354 8.653,40.375 C8.653,40.416 8.653,40.457 8.653,40.498 C8.694,40.518 8.735,40.539 8.776,40.560 C8.776,40.601 8.776,40.642 8.776,40.683 C8.796,40.683 8.816,40.683 8.837,40.683 C8.857,40.744 8.878,40.806 8.898,40.867 C8.939,40.888 8.979,40.908 9.020,40.929 C9.020,40.970 9.020,41.011 9.020,41.052 C9.081,41.093 9.143,41.134 9.204,41.175 C9.204,41.216 9.204,41.257 9.204,41.298 C9.245,41.319 9.285,41.339 9.326,41.360 C9.326,41.401 9.326,41.442 9.326,41.483 C9.387,41.524 9.449,41.565 9.510,41.606 C9.510,41.647 9.510,41.688 9.510,41.729 C9.591,41.790 9.673,41.852 9.754,41.914 C9.754,41.955 9.754,41.996 9.754,42.037 C9.836,42.098 9.918,42.160 9.999,42.221 C9.999,42.262 9.999,42.303 9.999,42.344 C10.101,42.426 10.203,42.509 10.305,42.591 C10.305,42.632 10.305,42.673 10.305,42.714 C10.448,42.837 10.591,42.960 10.733,43.083 C10.733,43.124 10.733,43.165 10.733,43.206 C10.958,43.411 11.182,43.616 11.406,43.822 C11.733,44.170 12.059,44.519 12.385,44.868 C12.426,44.868 12.467,44.868 12.508,44.868 C12.630,45.011 12.752,45.155 12.875,45.299 C12.915,45.299 12.956,45.299 12.997,45.299 C13.079,45.401 13.160,45.504 13.242,45.606 C13.283,45.606 13.323,45.606 13.364,45.606 C13.425,45.688 13.486,45.771 13.548,45.853 C13.588,45.853 13.629,45.853 13.670,45.853 C13.731,45.935 13.792,46.017 13.854,46.099 C13.894,46.099 13.935,46.099 13.976,46.099 C14.017,46.160 14.057,46.222 14.098,46.283 C14.139,46.283 14.180,46.283 14.221,46.283 C14.261,46.345 14.302,46.406 14.343,46.468 C14.384,46.468 14.425,46.468 14.465,46.468 C14.506,46.530 14.547,46.591 14.588,46.653 C14.628,46.653 14.669,46.653 14.710,46.653 C14.730,46.694 14.751,46.735 14.771,46.776 C14.812,46.776 14.853,46.776 14.894,46.776 C14.934,46.837 14.975,46.899 15.016,46.960 C15.057,46.960 15.098,46.960 15.138,46.960 C15.159,47.001 15.179,47.042 15.200,47.084 C15.240,47.084 15.281,47.084 15.322,47.084 C15.342,47.125 15.363,47.166 15.383,47.207 C15.424,47.207 15.465,47.207 15.505,47.207 C15.526,47.248 15.546,47.289 15.567,47.330 C15.607,47.330 15.648,47.330 15.689,47.330 C15.709,47.371 15.730,47.412 15.750,47.453 C15.791,47.453 15.832,47.453 15.872,47.453 C15.893,47.494 15.913,47.535 15.934,47.576 C16.015,47.596 16.097,47.617 16.178,47.637 C16.199,47.678 16.219,47.719 16.240,47.761 C16.280,47.761 16.321,47.761 16.362,47.761 C16.382,47.802 16.403,47.843 16.423,47.884 C16.464,47.884 16.505,47.884 16.545,47.884 C16.545,47.904 16.545,47.925 16.545,47.945 C16.586,47.945 16.627,47.945 16.668,47.945 C16.688,47.986 16.709,48.027 16.729,48.068 C16.811,48.089 16.892,48.109 16.974,48.130 C16.994,48.171 17.015,48.212 17.035,48.253 C17.076,48.253 17.116,48.253 17.157,48.253 C17.157,48.273 17.157,48.294 17.157,48.314 C17.198,48.314 17.239,48.314 17.280,48.314 C17.280,48.335 17.280,48.355 17.280,48.376 C17.320,48.376 17.361,48.376 17.402,48.376 C17.402,48.397 17.402,48.417 17.402,48.438 C17.443,48.438 17.484,48.438 17.524,48.438 C17.545,48.479 17.565,48.520 17.586,48.561 C17.626,48.561 17.667,48.561 17.708,48.561 C17.708,48.581 17.708,48.602 17.708,48.622 C17.749,48.622 17.789,48.622 17.830,48.622 C17.830,48.643 17.830,48.663 17.830,48.684 C17.871,48.684 17.912,48.684 17.953,48.684 C17.953,48.704 17.953,48.725 17.953,48.745 C17.993,48.745 18.034,48.745 18.075,48.745 C18.075,48.766 18.075,48.786 18.075,48.807 C18.116,48.807 18.157,48.807 18.197,48.807 C18.218,48.848 18.238,48.889 18.259,48.930 C18.299,48.930 18.340,48.930 18.381,48.930 C18.381,48.950 18.381,48.971 18.381,48.991 C18.422,48.991 18.462,48.991 18.503,48.991 C18.503,49.012 18.503,49.033 18.503,49.053 C18.544,49.053 18.585,49.053 18.626,49.053 C18.626,49.074 18.626,49.094 18.626,49.115 C18.666,49.115 18.707,49.115 18.748,49.115 C18.748,49.135 18.748,49.156 18.748,49.176 C18.789,49.176 18.830,49.176 18.870,49.176 C18.870,49.197 18.870,49.217 18.870,49.238 C18.911,49.238 18.952,49.238 18.993,49.238 C18.993,49.258 18.993,49.279 18.993,49.299 C19.033,49.299 19.074,49.299 19.115,49.299 C19.115,49.320 19.115,49.340 19.115,49.361 C19.237,49.402 19.360,49.443 19.482,49.484 C19.482,49.504 19.482,49.525 19.482,49.545 C19.543,49.545 19.604,49.545 19.666,49.545 C19.666,49.566 19.666,49.586 19.666,49.607 C19.788,49.648 19.910,49.689 20.033,49.730 C20.033,49.751 20.033,49.771 20.033,49.792 C20.074,49.792 20.114,49.792 20.155,49.792 C20.155,49.812 20.155,49.833 20.155,49.853 C20.216,49.853 20.277,49.853 20.339,49.853 C20.339,49.874 20.339,49.894 20.339,49.915 C20.379,49.915 20.420,49.915 20.461,49.915 C20.461,49.935 20.461,49.956 20.461,49.976 C20.502,49.976 20.543,49.976 20.583,49.976 C20.583,49.997 20.583,50.017 20.583,50.038 C20.624,50.038 20.665,50.038 20.706,50.038 C20.706,50.058 20.706,50.079 20.706,50.099 C20.767,50.099 20.828,50.099 20.889,50.099 C20.889,50.120 20.889,50.140 20.889,50.161 C20.971,50.181 21.052,50.202 21.134,50.222 C21.134,50.243 21.134,50.263 21.134,50.284 C21.195,50.284 21.256,50.284 21.318,50.284 C21.318,50.304 21.318,50.325 21.318,50.346 C21.358,50.346 21.399,50.346 21.440,50.346 C21.440,50.366 21.440,50.387 21.440,50.407 C21.501,50.407 21.562,50.407 21.623,50.407 C21.623,50.428 21.623,50.448 21.623,50.469 C21.725,50.489 21.827,50.510 21.929,50.530 C21.929,50.551 21.929,50.571 21.929,50.592 C21.970,50.592 22.011,50.592 22.052,50.592 C22.052,50.612 22.052,50.633 22.052,50.653 C22.113,50.653 22.174,50.653 22.235,50.653 C22.235,50.674 22.235,50.694 22.235,50.715 C22.276,50.715 22.317,50.715 22.358,50.715 C22.358,50.735 22.358,50.756 22.358,50.776 C22.419,50.776 22.480,50.776 22.541,50.776 C22.685,50.834 22.890,51.050 23.153,50.961 C23.153,50.940 23.153,50.920 23.153,50.899 C23.194,50.899 23.235,50.899 23.275,50.899 C23.275,50.879 23.275,50.858 23.275,50.838 C23.398,50.817 23.520,50.797 23.642,50.776 C23.642,50.756 23.642,50.735 23.642,50.715 C23.683,50.715 23.724,50.715 23.765,50.715 C23.765,50.694 23.765,50.674 23.765,50.653 C23.826,50.653 23.887,50.653 23.948,50.653 C23.948,50.633 23.948,50.612 23.948,50.592 C23.989,50.592 24.030,50.592 24.071,50.592 C24.071,50.571 24.071,50.551 24.071,50.530 C24.132,50.530 24.193,50.530 24.254,50.530 C24.254,50.510 24.254,50.489 24.254,50.469 C24.356,50.448 24.458,50.428 24.560,50.407 C24.560,50.387 24.560,50.366 24.560,50.346 C24.601,50.346 24.642,50.346 24.682,50.346 C24.682,50.325 24.682,50.304 24.682,50.284 C24.744,50.284 24.805,50.284 24.866,50.284 C24.866,50.263 24.866,50.243 24.866,50.222 C24.948,50.202 25.029,50.181 25.111,50.161 C25.111,50.140 25.111,50.120 25.111,50.099 C25.172,50.099 25.233,50.099 25.294,50.099 C25.294,50.079 25.294,50.058 25.294,50.038 C25.335,50.038 25.376,50.038 25.417,50.038 C25.417,50.017 25.417,49.997 25.417,49.976 C25.498,49.956 25.580,49.935 25.661,49.915 C25.661,49.894 25.661,49.874 25.661,49.853 C25.723,49.853 25.784,49.853 25.845,49.853 C25.845,49.833 25.845,49.812 25.845,49.792 C25.886,49.792 25.926,49.792 25.967,49.792 C25.967,49.771 25.967,49.751 25.967,49.730 C26.008,49.730 26.049,49.730 26.090,49.730 C26.090,49.710 26.090,49.689 26.090,49.668 C26.212,49.627 26.334,49.586 26.457,49.545 C26.457,49.525 26.457,49.504 26.457,49.484 C26.518,49.484 26.579,49.484 26.640,49.484 C26.640,49.463 26.640,49.443 26.640,49.422 C26.763,49.381 26.885,49.340 27.007,49.299 C27.007,49.279 27.007,49.258 27.007,49.238 C27.048,49.238 27.089,49.238 27.130,49.238 C27.130,49.217 27.130,49.197 27.130,49.176 C27.170,49.176 27.211,49.176 27.252,49.176 C27.252,49.156 27.252,49.135 27.252,49.115 C27.293,49.115 27.334,49.115 27.374,49.115 C27.374,49.094 27.374,49.074 27.374,49.053 C27.415,49.053 27.456,49.053 27.497,49.053 C27.497,49.033 27.497,49.012 27.497,48.991 C27.538,48.991 27.578,48.991 27.619,48.991 C27.619,48.971 27.619,48.950 27.619,48.930 C27.660,48.930 27.701,48.930 27.741,48.930 C27.762,48.889 27.782,48.848 27.803,48.807 C27.884,48.786 27.966,48.766 28.047,48.745 C28.047,48.725 28.047,48.704 28.047,48.684 C28.088,48.684 28.129,48.684 28.170,48.684 C28.170,48.663 28.170,48.643 28.170,48.622 C28.211,48.622 28.251,48.622 28.292,48.622 C28.292,48.602 28.292,48.581 28.292,48.561 C28.333,48.561 28.374,48.561 28.414,48.561 C28.435,48.520 28.455,48.479 28.476,48.438 C28.598,48.397 28.720,48.355 28.843,48.314 C28.863,48.273 28.884,48.232 28.904,48.191 C29.026,48.150 29.149,48.109 29.271,48.068 C29.291,48.027 29.312,47.986 29.332,47.945 C29.373,47.945 29.414,47.945 29.455,47.945 C29.455,47.925 29.455,47.904 29.455,47.884 C29.495,47.884 29.536,47.884 29.577,47.884 C29.577,47.863 29.577,47.843 29.577,47.822 C29.638,47.802 29.699,47.781 29.760,47.761 C29.781,47.719 29.801,47.678 29.822,47.637 C29.903,47.617 29.985,47.596 30.066,47.576 C30.087,47.535 30.107,47.494 30.128,47.453 C30.168,47.453 30.209,47.453 30.250,47.453 C30.270,47.412 30.291,47.371 30.311,47.330 C30.352,47.330 30.393,47.330 30.433,47.330 C30.454,47.289 30.474,47.248 30.495,47.207 C30.535,47.207 30.576,47.207 30.617,47.207 C30.617,47.186 30.617,47.166 30.617,47.145 C30.678,47.125 30.739,47.104 30.800,47.084 C30.821,47.042 30.841,47.001 30.862,46.960 C30.902,46.960 30.943,46.960 30.984,46.960 C31.025,46.899 31.066,46.837 31.106,46.776 C31.147,46.776 31.188,46.776 31.229,46.776 C31.249,46.735 31.270,46.694 31.290,46.653 C31.331,46.653 31.372,46.653 31.412,46.653 C31.453,46.591 31.494,46.530 31.535,46.468 C31.575,46.468 31.616,46.468 31.657,46.468 C31.698,46.406 31.739,46.345 31.779,46.283 C31.820,46.283 31.861,46.283 31.902,46.283 C31.943,46.222 31.983,46.160 32.024,46.099 C32.065,46.099 32.106,46.099 32.146,46.099 C32.208,46.017 32.269,45.935 32.330,45.853 C32.371,45.853 32.412,45.853 32.452,45.853 C32.514,45.771 32.575,45.688 32.636,45.606 C32.677,45.606 32.717,45.606 32.758,45.606 C32.840,45.504 32.921,45.401 33.003,45.299 C33.044,45.299 33.085,45.299 33.125,45.299 C33.248,45.155 33.370,45.011 33.492,44.868 C33.554,44.847 33.615,44.827 33.676,44.806 C33.941,44.519 34.206,44.232 34.471,43.945 C34.736,43.698 35.002,43.452 35.267,43.206 C35.267,43.165 35.267,43.124 35.267,43.083 C35.409,42.960 35.552,42.837 35.695,42.714 C35.695,42.673 35.695,42.632 35.695,42.591 C35.797,42.509 35.899,42.426 36.001,42.344 C36.001,42.303 36.001,42.262 36.001,42.221 C36.082,42.160 36.164,42.098 36.246,42.037 C36.246,41.996 36.246,41.955 36.246,41.914 C36.327,41.852 36.409,41.790 36.490,41.729 C36.490,41.688 36.490,41.647 36.490,41.606 C36.551,41.565 36.613,41.524 36.674,41.483 C36.674,41.442 36.674,41.401 36.674,41.360 C36.715,41.339 36.755,41.319 36.796,41.298 C36.796,41.257 36.796,41.216 36.796,41.175 C36.857,41.134 36.919,41.093 36.980,41.052 C36.980,41.011 36.980,40.970 36.980,40.929 C37.021,40.908 37.061,40.888 37.102,40.867 C37.102,40.826 37.102,40.785 37.102,40.744 C37.143,40.724 37.184,40.703 37.224,40.683 C37.224,40.642 37.224,40.601 37.224,40.560 C37.265,40.539 37.306,40.518 37.347,40.498 C37.347,40.457 37.347,40.416 37.347,40.375 C37.388,40.354 37.428,40.334 37.469,40.313 C37.469,40.272 37.469,40.231 37.469,40.190 C37.510,40.170 37.551,40.149 37.592,40.129 C37.592,40.088 37.592,40.047 37.592,40.006 C37.632,39.985 37.673,39.965 37.714,39.944 C37.734,39.862 37.755,39.780 37.775,39.698 C37.816,39.677 37.857,39.657 37.897,39.636 C37.918,39.554 37.938,39.472 37.959,39.390 C37.999,39.370 38.040,39.349 38.081,39.329 C38.101,39.247 38.122,39.164 38.142,39.082 C38.183,39.062 38.224,39.041 38.265,39.021 C38.265,38.980 38.265,38.939 38.265,38.898 C38.285,38.898 38.305,38.898 38.326,38.898 C38.326,38.857 38.326,38.816 38.326,38.775 C38.346,38.775 38.366,38.775 38.387,38.775 C38.387,38.734 38.387,38.693 38.387,38.652 C38.407,38.652 38.428,38.652 38.448,38.652 C38.448,38.611 38.448,38.569 38.448,38.528 C38.468,38.528 38.489,38.528 38.509,38.528 C38.509,38.487 38.509,38.446 38.509,38.405 C38.550,38.385 38.591,38.364 38.632,38.344 C38.652,38.262 38.672,38.180 38.693,38.098 C38.713,38.098 38.734,38.098 38.754,38.098 C38.754,38.057 38.754,38.016 38.754,37.975 C38.774,37.975 38.795,37.975 38.815,37.975 C38.856,37.851 38.897,37.728 38.937,37.605 C38.958,37.605 38.978,37.605 38.999,37.605 C38.999,37.544 38.999,37.482 38.999,37.421 C39.019,37.421 39.039,37.421 39.060,37.421 C39.060,37.380 39.060,37.339 39.060,37.298 C39.080,37.298 39.101,37.298 39.121,37.298 C39.121,37.256 39.121,37.215 39.121,37.174 C39.141,37.174 39.162,37.174 39.182,37.174 C39.223,37.051 39.264,36.928 39.305,36.805 C39.325,36.805 39.345,36.805 39.366,36.805 C39.366,36.744 39.366,36.682 39.366,36.621 C39.386,36.621 39.407,36.621 39.427,36.621 C39.447,36.538 39.468,36.456 39.488,36.374 C39.509,36.374 39.529,36.374 39.549,36.374 C39.549,36.313 39.549,36.251 39.549,36.190 C39.570,36.190 39.590,36.190 39.610,36.190 C39.610,36.149 39.610,36.108 39.610,36.067 C39.631,36.067 39.651,36.067 39.672,36.067 C39.692,35.964 39.712,35.861 39.733,35.759 C39.753,35.759 39.774,35.759 39.794,35.759 C39.814,35.636 39.835,35.513 39.855,35.390 C39.876,35.390 39.896,35.390 39.916,35.390 C39.916,35.349 39.916,35.307 39.916,35.266 C39.937,35.266 39.957,35.266 39.978,35.266 C39.978,35.205 39.978,35.143 39.978,35.082 C39.998,35.082 40.018,35.082 40.039,35.082 C40.039,35.020 40.039,34.959 40.039,34.897 C40.059,34.897 40.080,34.897 40.100,34.897 C40.100,34.836 40.100,34.774 40.100,34.713 C40.120,34.713 40.141,34.713 40.161,34.713 C40.161,34.651 40.161,34.589 40.161,34.528 C40.181,34.528 40.202,34.528 40.222,34.528 C40.222,34.466 40.222,34.405 40.222,34.343 C40.243,34.343 40.263,34.343 40.283,34.343 C40.283,34.282 40.283,34.220 40.283,34.159 C40.304,34.159 40.324,34.159 40.345,34.159 C40.345,34.097 40.345,34.036 40.345,33.974 C40.365,33.974 40.385,33.974 40.406,33.974 C40.406,33.912 40.406,33.851 40.406,33.789 C40.426,33.789 40.447,33.789 40.467,33.789 C40.508,33.584 40.549,33.379 40.589,33.174 C40.610,33.174 40.630,33.174 40.651,33.174 C40.691,32.928 40.732,32.681 40.773,32.435 C40.793,32.435 40.814,32.435 40.834,32.435 C40.834,32.353 40.834,32.271 40.834,32.189 C40.854,32.189 40.875,32.189 40.895,32.189 C40.895,32.107 40.895,32.025 40.895,31.943 C40.916,31.943 40.936,31.943 40.956,31.943 C40.956,31.861 40.956,31.779 40.956,31.697 C40.977,31.697 40.997,31.697 41.018,31.697 C41.018,31.615 41.018,31.533 41.018,31.451 C41.038,31.451 41.058,31.451 41.079,31.451 C41.262,30.404 41.446,29.358 41.629,28.312 C41.650,28.004 41.670,27.696 41.691,27.388 C41.711,27.388 41.731,27.388 41.752,27.388 C41.752,27.204 41.752,27.019 41.752,26.835 C41.772,26.835 41.793,26.835 41.813,26.835 C41.813,26.629 41.813,26.424 41.813,26.219 C41.833,26.219 41.854,26.219 41.874,26.219 C41.874,25.973 41.874,25.727 41.874,25.480 C41.895,25.480 41.915,25.480 41.935,25.480 C41.935,25.214 41.935,24.947 41.935,24.680 C41.956,24.680 41.976,24.680 41.997,24.680 C41.997,24.311 41.997,23.942 41.997,23.573 C42.017,23.573 42.037,23.573 42.058,23.573 C42.058,23.039 42.058,22.506 42.058,21.972 C42.220,21.389 42.119,20.450 42.119,19.757 C42.098,17.233 42.078,14.709 42.058,12.186 C42.037,12.186 42.017,12.186 41.997,12.186 C41.997,12.063 41.997,11.940 41.997,11.817 C41.528,11.797 41.058,11.776 40.589,11.755 C40.589,11.735 40.589,11.714 40.589,11.694 C40.345,11.694 40.100,11.694 39.855,11.694 C39.855,11.673 39.855,11.653 39.855,11.632 C39.672,11.632 39.488,11.632 39.305,11.632 C39.305,11.612 39.305,11.591 39.305,11.571 C39.121,11.571 38.937,11.571 38.754,11.571 C38.398,11.466 37.880,11.430 37.530,11.325 C37.286,11.304 37.041,11.284 36.796,11.263 C36.796,11.243 36.796,11.222 36.796,11.202 C36.490,11.161 36.184,11.119 35.878,11.078 C35.878,11.058 35.878,11.037 35.878,11.017 C35.695,10.996 35.511,10.976 35.328,10.955 C35.328,10.935 35.328,10.914 35.328,10.894 C35.246,10.894 35.165,10.894 35.083,10.894 C35.083,10.873 35.083,10.853 35.083,10.832 C35.002,10.832 34.920,10.832 34.838,10.832 C34.838,10.812 34.838,10.791 34.838,10.771 C34.757,10.771 34.675,10.771 34.594,10.771 C34.594,10.750 34.594,10.730 34.594,10.709 C34.512,10.709 34.431,10.709 34.349,10.709 C34.349,10.689 34.349,10.668 34.349,10.648 C34.288,10.648 34.227,10.648 34.165,10.648 C34.165,10.627 34.165,10.607 34.165,10.586 C34.084,10.586 34.002,10.586 33.921,10.586 C33.921,10.566 33.921,10.545 33.921,10.525 C33.860,10.525 33.798,10.525 33.737,10.525 C33.737,10.504 33.737,10.484 33.737,10.463 C33.656,10.463 33.574,10.463 33.492,10.463 C33.492,10.442 33.492,10.422 33.492,10.401 C33.431,10.401 33.370,10.401 33.309,10.401 C33.309,10.381 33.309,10.360 33.309,10.340 C33.248,10.340 33.187,10.340 33.125,10.340 C33.125,10.319 33.125,10.299 33.125,10.278 C33.064,10.278 33.003,10.278 32.942,10.278 C32.942,10.258 32.942,10.237 32.942,10.217 C32.881,10.217 32.819,10.217 32.758,10.217 C32.758,10.196 32.758,10.176 32.758,10.155 C32.697,10.155 32.636,10.155 32.575,10.155 C32.575,10.135 32.575,10.114 32.575,10.094 C32.514,10.094 32.452,10.094 32.391,10.094 C32.391,10.073 32.391,10.053 32.391,10.032 C32.208,9.991 32.024,9.950 31.841,9.909 C31.841,9.889 31.841,9.868 31.841,9.848 C31.800,9.848 31.759,9.848 31.718,9.848 C31.718,9.827 31.718,9.806 31.718,9.786 C31.596,9.765 31.473,9.745 31.351,9.724 C31.351,9.704 31.351,9.683 31.351,9.663 C31.310,9.663 31.270,9.663 31.229,9.663 C31.229,9.642 31.229,9.622 31.229,9.601 C31.168,9.601 31.106,9.601 31.045,9.601 C31.045,9.581 31.045,9.560 31.045,9.540 C31.004,9.540 30.964,9.540 30.923,9.540 C30.923,9.519 30.923,9.499 30.923,9.478 C30.862,9.478 30.800,9.478 30.739,9.478 C30.739,9.458 30.739,9.437 30.739,9.417 C30.658,9.396 30.576,9.376 30.495,9.355 C30.495,9.335 30.495,9.314 30.495,9.294 C30.433,9.294 30.372,9.294 30.311,9.294 C30.311,9.273 30.311,9.253 30.311,9.232 C30.270,9.232 30.229,9.232 30.189,9.232 C30.189,9.212 30.189,9.191 30.189,9.171 C30.107,9.150 30.026,9.129 29.944,9.109 C29.944,9.088 29.944,9.068 29.944,9.047 C29.883,9.047 29.822,9.047 29.760,9.047 C29.760,9.027 29.760,9.006 29.760,8.986 C29.720,8.986 29.679,8.986 29.638,8.986 C29.638,8.965 29.638,8.945 29.638,8.924 C29.557,8.904 29.475,8.883 29.393,8.863 C29.393,8.842 29.393,8.822 29.393,8.801 C29.353,8.801 29.312,8.801 29.271,8.801 C29.271,8.781 29.271,8.760 29.271,8.740 C29.230,8.740 29.189,8.740 29.149,8.740 C29.149,8.719 29.149,8.699 29.149,8.678 C29.108,8.678 29.067,8.678 29.026,8.678 C29.026,8.658 29.026,8.637 29.026,8.617 C28.985,8.617 28.945,8.617 28.904,8.617 C28.904,8.596 28.904,8.576 28.904,8.555 C28.863,8.555 28.822,8.555 28.782,8.555 C28.782,8.535 28.782,8.514 28.782,8.493 C28.741,8.493 28.700,8.493 28.659,8.493 C28.659,8.473 28.659,8.452 28.659,8.432 C28.618,8.432 28.578,8.432 28.537,8.432 C28.537,8.411 28.537,8.391 28.537,8.370 C28.496,8.370 28.455,8.370 28.414,8.370 C28.414,8.350 28.414,8.329 28.414,8.309 C28.374,8.309 28.333,8.309 28.292,8.309 C28.292,8.288 28.292,8.268 28.292,8.247 C28.251,8.247 28.211,8.247 28.170,8.247 C28.149,8.206 28.129,8.165 28.109,8.124 C27.986,8.083 27.864,8.042 27.741,8.001 C27.721,7.960 27.701,7.919 27.680,7.878 C27.558,7.837 27.436,7.796 27.313,7.755 C27.293,7.714 27.272,7.673 27.252,7.632 C27.211,7.632 27.170,7.632 27.130,7.632 C27.130,7.611 27.130,7.591 27.130,7.570 C27.089,7.570 27.048,7.570 27.007,7.570 C27.007,7.550 27.007,7.529 27.007,7.509 C26.946,7.488 26.885,7.468 26.824,7.447 C26.803,7.406 26.783,7.365 26.763,7.324 C26.681,7.304 26.599,7.283 26.518,7.263 C26.497,7.222 26.477,7.180 26.457,7.139 C26.416,7.139 26.375,7.139 26.334,7.139 C26.314,7.098 26.294,7.057 26.273,7.016 C26.232,7.016 26.192,7.016 26.151,7.016 C26.151,6.996 26.151,6.975 26.151,6.955 C26.090,6.934 26.028,6.914 25.967,6.893 C25.947,6.852 25.926,6.811 25.906,6.770 C25.865,6.770 25.824,6.770 25.784,6.770 C25.784,6.750 25.784,6.729 25.784,6.709 C25.723,6.688 25.661,6.668 25.600,6.647 C25.580,6.606 25.559,6.565 25.539,6.524 C25.498,6.524 25.457,6.524 25.417,6.524 C25.376,6.462 25.335,6.401 25.294,6.339 C25.253,6.339 25.213,6.339 25.172,6.339 C25.152,6.298 25.131,6.257 25.111,6.216 C25.070,6.216 25.029,6.216 24.988,6.216 C24.948,6.155 24.907,6.093 24.866,6.032 C24.825,6.032 24.784,6.032 24.744,6.032 C24.703,5.970 24.662,5.909 24.621,5.847 C24.580,5.847 24.540,5.847 24.499,5.847 C24.438,5.765 24.377,5.683 24.315,5.601 C24.254,5.580 24.193,5.560 24.132,5.539 C24.111,5.498 24.091,5.457 24.071,5.416 C24.030,5.416 23.989,5.416 23.948,5.416 C23.867,5.314 23.785,5.211 23.704,5.108 C23.663,5.108 23.622,5.108 23.581,5.108 C23.500,5.006 23.418,4.903 23.336,4.801 C23.296,4.801 23.255,4.801 23.214,4.801 C23.153,4.719 23.092,4.637 23.031,4.554 C23.010,4.554 22.990,4.554 22.969,4.554 C22.969,4.575 22.969,4.596 22.969,4.616 C22.806,4.739 22.643,4.862 22.480,4.985 C22.460,5.026 22.439,5.067 22.419,5.108 C22.378,5.108 22.337,5.108 22.296,5.108 C22.235,5.190 22.174,5.273 22.113,5.355 C22.072,5.355 22.031,5.355 21.991,5.355 C21.929,5.437 21.868,5.519 21.807,5.601 C21.766,5.601 21.725,5.601 21.685,5.601 C21.623,5.683 21.562,5.765 21.501,5.847 C21.460,5.847 21.420,5.847 21.379,5.847 C21.338,5.909 21.297,5.970 21.256,6.032 C21.216,6.032 21.175,6.032 21.134,6.032 C21.093,6.093 21.052,6.155 21.012,6.216 C20.971,6.216 20.930,6.216 20.889,6.216 C20.869,6.257 20.848,6.298 20.828,6.339 C20.787,6.339 20.747,6.339 20.706,6.339 C20.665,6.401 20.624,6.462 20.583,6.524 C20.543,6.524 20.502,6.524 20.461,6.524 C20.441,6.565 20.420,6.606 20.400,6.647 C20.339,6.668 20.277,6.688 20.216,6.709 C20.216,6.729 20.216,6.750 20.216,6.770 C20.176,6.770 20.135,6.770 20.094,6.770 C20.074,6.811 20.053,6.852 20.033,6.893 C19.992,6.893 19.951,6.893 19.910,6.893 C19.890,6.934 19.870,6.975 19.849,7.016 C19.808,7.016 19.768,7.016 19.727,7.016 C19.706,7.057 19.686,7.098 19.666,7.139 C19.604,7.160 19.543,7.180 19.482,7.201 C19.482,7.222 19.482,7.242 19.482,7.263 C19.401,7.283 19.319,7.304 19.237,7.324 C19.237,7.345 19.237,7.365 19.237,7.386 C19.176,7.406 19.115,7.427 19.054,7.447 C19.033,7.488 19.013,7.529 18.993,7.570 C18.952,7.570 18.911,7.570 18.870,7.570 C18.870,7.591 18.870,7.611 18.870,7.632 C18.830,7.632 18.789,7.632 18.748,7.632 C18.728,7.673 18.707,7.714 18.687,7.755 C18.564,7.796 18.442,7.837 18.320,7.878 C18.299,7.919 18.279,7.960 18.259,8.001 C18.218,8.001 18.177,8.001 18.136,8.001 C18.136,8.022 18.136,8.042 18.136,8.063 C18.095,8.063 18.055,8.063 18.014,8.063 C18.014,8.083 18.014,8.104 18.014,8.124 C17.973,8.124 17.932,8.124 17.891,8.124 C17.891,8.145 17.891,8.165 17.891,8.186 C17.851,8.186 17.810,8.186 17.769,8.186 C17.749,8.227 17.728,8.268 17.708,8.309 C17.667,8.309 17.626,8.309 17.586,8.309 C17.586,8.329 17.586,8.350 17.586,8.370 C17.545,8.370 17.504,8.370 17.463,8.370 C17.463,8.391 17.463,8.411 17.463,8.432 C17.422,8.432 17.382,8.432 17.341,8.432 C17.341,8.452 17.341,8.473 17.341,8.493 C17.300,8.493 17.259,8.493 17.218,8.493 C17.218,8.514 17.218,8.535 17.218,8.555 C17.178,8.555 17.137,8.555 17.096,8.555 C17.096,8.576 17.096,8.596 17.096,8.617 C17.055,8.617 17.015,8.617 16.974,8.617 C16.974,8.637 16.974,8.658 16.974,8.678 C16.933,8.678 16.892,8.678 16.851,8.678 C16.851,8.699 16.851,8.719 16.851,8.740 C16.811,8.740 16.770,8.740 16.729,8.740 C16.729,8.760 16.729,8.781 16.729,8.801 C16.688,8.801 16.647,8.801 16.607,8.801 C16.607,8.822 16.607,8.842 16.607,8.863 C16.484,8.904 16.362,8.945 16.240,8.986 C16.240,9.006 16.240,9.027 16.240,9.047 C16.178,9.047 16.117,9.047 16.056,9.047 C16.056,9.068 16.056,9.088 16.056,9.109 C16.015,9.109 15.974,9.109 15.934,9.109 C15.934,9.129 15.934,9.150 15.934,9.171 C15.852,9.191 15.771,9.212 15.689,9.232 C15.689,9.253 15.689,9.273 15.689,9.294 C15.628,9.294 15.567,9.294 15.505,9.294 C15.505,9.314 15.505,9.335 15.505,9.355 C15.424,9.376 15.342,9.396 15.261,9.417 C15.261,9.437 15.261,9.458 15.261,9.478 C15.200,9.478 15.138,9.478 15.077,9.478 C15.077,9.499 15.077,9.519 15.077,9.540 C15.036,9.540 14.996,9.540 14.955,9.540 C14.955,9.560 14.955,9.581 14.955,9.601 C14.894,9.601 14.832,9.601 14.771,9.601 C14.771,9.622 14.771,9.642 14.771,9.663 C14.730,9.663 14.690,9.663 14.649,9.663 C14.649,9.683 14.649,9.704 14.649,9.724 C14.527,9.745 14.404,9.765 14.282,9.786 C14.282,9.806 14.282,9.827 14.282,9.848 C14.241,9.848 14.200,9.848 14.159,9.848 C14.159,9.868 14.159,9.889 14.159,9.909 C13.976,9.950 13.792,9.991 13.609,10.032 C13.609,10.053 13.609,10.073 13.609,10.094 C13.548,10.094 13.486,10.094 13.425,10.094 C13.425,10.114 13.425,10.135 13.425,10.155 C13.364,10.155 13.303,10.155 13.242,10.155 C13.242,10.176 13.242,10.196 13.242,10.217 C13.181,10.217 13.119,10.217 13.058,10.217 C13.058,10.237 13.058,10.258 13.058,10.278 C12.997,10.278 12.936,10.278 12.875,10.278 C12.875,10.299 12.875,10.319 12.875,10.340 C12.813,10.340 12.752,10.340 12.691,10.340 C12.691,10.360 12.691,10.381 12.691,10.401 C12.630,10.401 12.569,10.401 12.508,10.401 C12.508,10.422 12.508,10.442 12.508,10.463 C12.426,10.463 12.344,10.463 12.263,10.463 C12.263,10.484 12.263,10.504 12.263,10.525 C12.202,10.525 12.140,10.525 12.079,10.525 C12.079,10.545 12.079,10.566 12.079,10.586 C11.937,10.607 11.794,10.627 11.651,10.648 C11.651,10.668 11.651,10.689 11.651,10.709 C11.488,10.730 11.325,10.750 11.162,10.771 C11.162,10.791 11.162,10.812 11.162,10.832 C10.998,10.853 10.835,10.873 10.672,10.894 C10.672,10.914 10.672,10.935 10.672,10.955 C10.489,10.976 10.305,10.996 10.122,11.017 C10.122,11.037 10.122,11.058 10.122,11.078 C9.163,11.243 8.204,11.407 7.246,11.571 C7.063,11.571 6.879,11.571 6.695,11.571 C6.695,11.591 6.695,11.612 6.695,11.632 C6.512,11.632 6.328,11.632 6.145,11.632 C6.145,11.653 6.145,11.673 6.145,11.694 C5.900,11.694 5.655,11.694 5.411,11.694 C5.411,11.714 5.411,11.735 5.411,11.755 C4.942,11.776 4.472,11.797 4.003,11.817 ZM30.495,20.249 C30.800,20.249 31.106,20.249 31.412,20.249 C31.412,20.269 31.412,20.290 31.412,20.311 C31.473,20.311 31.535,20.311 31.596,20.311 C31.596,20.331 31.596,20.352 31.596,20.372 C31.637,20.372 31.677,20.372 31.718,20.372 C31.718,20.393 31.718,20.413 31.718,20.434 C31.841,20.475 31.963,20.516 32.085,20.557 C32.106,20.598 32.126,20.639 32.146,20.680 C32.269,20.782 32.391,20.885 32.514,20.988 C32.514,21.029 32.514,21.070 32.514,21.111 C32.554,21.131 32.595,21.152 32.636,21.172 C32.656,21.254 32.677,21.336 32.697,21.418 C32.717,21.418 32.738,21.418 32.758,21.418 C32.758,21.480 32.758,21.541 32.758,21.603 C32.814,21.754 32.957,22.140 32.881,22.403 C32.860,22.403 32.840,22.403 32.819,22.403 C32.819,22.506 32.819,22.608 32.819,22.711 C32.799,22.711 32.779,22.711 32.758,22.711 C32.758,22.772 32.758,22.834 32.758,22.896 C32.738,22.896 32.717,22.896 32.697,22.896 C32.697,22.937 32.697,22.978 32.697,23.019 C32.677,23.019 32.656,23.019 32.636,23.019 C32.636,23.060 32.636,23.101 32.636,23.142 C32.425,23.477 32.055,23.726 31.779,24.003 C31.657,24.147 31.535,24.291 31.412,24.434 C30.923,24.906 30.433,25.378 29.944,25.850 C29.251,26.568 28.557,27.286 27.864,28.004 C26.661,29.194 25.457,30.384 24.254,31.574 C23.765,32.086 23.275,32.599 22.786,33.112 C22.602,33.276 22.419,33.441 22.235,33.605 C21.814,34.029 21.469,34.507 20.828,34.713 C20.685,34.713 20.543,34.713 20.400,34.713 C19.498,34.714 19.073,34.301 18.626,33.851 C17.484,32.682 16.341,31.512 15.200,30.343 C14.649,29.809 14.098,29.276 13.548,28.742 C13.548,28.701 13.548,28.660 13.548,28.619 C13.507,28.599 13.466,28.578 13.425,28.558 C13.425,28.517 13.425,28.476 13.425,28.435 C13.405,28.435 13.384,28.435 13.364,28.435 C13.272,28.265 13.024,27.525 13.119,27.204 C13.140,27.204 13.160,27.204 13.181,27.204 C13.181,27.122 13.181,27.040 13.181,26.958 C13.201,26.958 13.221,26.958 13.242,26.958 C13.242,26.896 13.242,26.835 13.242,26.773 C13.572,26.013 14.524,25.240 15.628,25.665 C15.689,25.665 15.750,25.665 15.811,25.665 C15.811,25.686 15.811,25.706 15.811,25.727 C15.852,25.727 15.893,25.727 15.934,25.727 C15.934,25.747 15.934,25.768 15.934,25.788 C15.974,25.788 16.015,25.788 16.056,25.788 C17.096,26.814 18.136,27.840 19.176,28.866 C19.543,29.255 19.910,29.645 20.277,30.035 C20.318,30.035 20.359,30.035 20.400,30.035 C20.611,29.670 21.026,29.405 21.318,29.112 C21.379,29.030 21.440,28.948 21.501,28.866 C22.072,28.312 22.643,27.758 23.214,27.204 C25.355,25.029 27.497,22.854 29.638,20.680 C29.679,20.680 29.720,20.680 29.760,20.680 C29.801,20.618 29.842,20.557 29.883,20.495 C29.964,20.475 30.046,20.454 30.128,20.434 C30.128,20.413 30.128,20.393 30.128,20.372 C30.250,20.352 30.372,20.331 30.495,20.311 C30.495,20.290 30.495,20.269 30.495,20.249 Z"/>
</svg>