<svg 
 xmlns="http://www.w3.org/2000/svg"
 xmlns:xlink="http://www.w3.org/1999/xlink"
 width="21px" height="11px">
<path fill-rule="evenodd"  fill="rgb(255, 255, 255)"
 d="M15.377,-0.000 C15.508,-0.000 15.638,-0.000 15.769,-0.000 C15.769,0.015 15.769,0.030 15.769,0.044 C15.813,0.044 15.856,0.044 15.900,0.044 C15.900,0.059 15.900,0.074 15.900,0.088 C15.929,0.088 15.958,0.088 15.987,0.088 C15.987,0.103 15.987,0.118 15.987,0.133 C16.016,0.133 16.045,0.133 16.074,0.133 C16.365,0.442 16.655,0.752 16.946,1.062 C17.195,1.315 17.441,1.557 17.731,1.770 C18.486,2.552 19.242,3.333 19.997,4.115 C20.286,4.408 20.593,4.648 20.826,5.000 C20.855,5.015 20.884,5.030 20.913,5.044 C20.913,5.074 20.913,5.103 20.913,5.133 C20.927,5.133 20.942,5.133 20.956,5.133 C20.971,5.325 20.985,5.516 21.000,5.708 C20.866,6.128 20.411,6.438 20.128,6.726 C19.896,6.977 19.663,7.227 19.431,7.478 C19.009,7.891 18.588,8.304 18.167,8.717 C18.007,8.894 17.847,9.071 17.687,9.248 C17.658,9.248 17.629,9.248 17.600,9.248 C17.513,9.351 17.426,9.455 17.338,9.558 C17.106,9.779 16.873,10.000 16.641,10.221 C16.380,10.486 16.161,10.847 15.769,10.974 C15.480,11.067 15.256,10.882 15.072,10.841 C15.013,10.767 14.955,10.693 14.897,10.620 C14.883,10.620 14.868,10.620 14.854,10.620 C14.854,10.590 14.854,10.561 14.854,10.531 C14.825,10.516 14.796,10.502 14.766,10.487 C14.701,10.359 14.700,9.818 14.766,9.691 C14.796,9.676 14.825,9.661 14.854,9.646 C15.103,9.260 15.455,8.992 15.769,8.673 C15.900,8.525 16.031,8.378 16.161,8.230 C16.539,7.862 16.917,7.493 17.295,7.124 C17.497,6.919 17.750,6.559 17.992,6.416 C17.992,6.401 17.992,6.387 17.992,6.372 C12.224,6.372 6.455,6.372 0.687,6.372 C0.687,6.357 0.687,6.342 0.687,6.328 C0.628,6.328 0.570,6.328 0.512,6.328 C0.512,6.313 0.512,6.298 0.512,6.283 C0.224,6.212 0.213,5.996 0.033,5.841 C0.017,5.626 -0.033,5.504 0.033,5.310 C0.033,5.251 0.033,5.192 0.033,5.133 C0.047,5.133 0.062,5.133 0.076,5.133 C0.147,4.840 0.360,4.829 0.512,4.646 C2.590,4.548 4.857,4.602 7.007,4.602 C10.669,4.602 14.331,4.602 17.992,4.602 C17.992,4.587 17.992,4.572 17.992,4.558 C17.750,4.416 17.496,4.054 17.295,3.850 C16.902,3.466 16.510,3.083 16.118,2.699 C16.002,2.566 15.885,2.434 15.769,2.301 C15.455,1.982 15.103,1.714 14.854,1.327 C14.825,1.313 14.796,1.298 14.766,1.283 C14.659,1.075 14.746,0.700 14.766,0.487 C14.873,0.418 14.793,0.436 14.854,0.354 C14.926,0.295 14.999,0.236 15.072,0.177 C15.072,0.162 15.072,0.147 15.072,0.133 C15.101,0.133 15.130,0.133 15.159,0.133 C15.159,0.118 15.159,0.103 15.159,0.088 C15.231,0.074 15.304,0.059 15.377,0.044 C15.377,0.030 15.377,0.015 15.377,-0.000 Z"/>
</svg>