<svg 
 xmlns="http://www.w3.org/2000/svg"
 xmlns:xlink="http://www.w3.org/1999/xlink"
 width="122px" height="40px">
<path fill-rule="evenodd"  fill="rgb(225, 225, 225)"
 d="M85.827,5.641 C85.606,5.648 85.483,5.719 85.339,5.764 C85.197,5.764 85.054,5.764 84.912,5.764 C84.912,5.784 84.912,5.805 84.912,5.825 C84.831,5.825 84.749,5.825 84.668,5.825 C84.668,5.845 84.668,5.866 84.668,5.886 C84.566,5.886 84.465,5.886 84.363,5.886 C84.363,5.907 84.363,5.927 84.363,5.947 C84.241,5.947 84.119,5.947 83.997,5.947 C83.997,5.968 83.997,5.988 83.997,6.009 C83.773,6.029 83.550,6.049 83.326,6.070 C83.326,6.090 83.326,6.111 83.326,6.131 C83.245,6.131 83.163,6.131 83.082,6.131 C83.082,6.151 83.082,6.172 83.082,6.192 C82.980,6.192 82.879,6.192 82.777,6.192 C82.777,6.213 82.777,6.233 82.777,6.253 C82.635,6.253 82.492,6.253 82.350,6.253 C82.350,6.274 82.350,6.294 82.350,6.315 C82.289,6.315 82.228,6.315 82.167,6.315 C82.167,6.335 82.167,6.355 82.167,6.376 C82.025,6.376 81.882,6.376 81.740,6.376 C81.740,6.396 81.740,6.417 81.740,6.437 C81.638,6.437 81.537,6.437 81.435,6.437 C81.435,6.458 81.435,6.478 81.435,6.498 C81.354,6.498 81.272,6.498 81.191,6.498 C81.191,6.519 81.191,6.539 81.191,6.560 C81.049,6.560 80.906,6.560 80.764,6.560 C80.764,6.580 80.764,6.600 80.764,6.621 C80.561,6.641 80.357,6.662 80.154,6.682 C79.574,5.382 78.414,4.740 77.043,4.233 C76.941,4.233 76.840,4.233 76.738,4.233 C76.738,4.213 76.738,4.193 76.738,4.172 C76.657,4.172 76.575,4.172 76.494,4.172 C76.494,4.152 76.494,4.131 76.494,4.111 C76.413,4.111 76.331,4.111 76.250,4.111 C76.250,4.091 76.250,4.070 76.250,4.050 C75.925,4.029 75.599,4.009 75.274,3.989 C74.800,3.854 74.023,3.927 73.444,3.927 C73.200,3.927 72.956,3.927 72.712,3.927 C72.712,3.948 72.712,3.968 72.712,3.989 C72.570,3.989 72.427,3.989 72.285,3.989 C72.285,4.009 72.285,4.029 72.285,4.050 C72.122,4.050 71.960,4.050 71.797,4.050 C71.797,4.070 71.797,4.091 71.797,4.111 C71.695,4.111 71.594,4.111 71.492,4.111 C71.492,4.131 71.492,4.152 71.492,4.172 C71.411,4.172 71.329,4.172 71.248,4.172 C71.248,4.193 71.248,4.213 71.248,4.233 C71.167,4.233 71.085,4.233 71.004,4.233 C71.004,4.254 71.004,4.274 71.004,4.295 C70.963,4.295 70.923,4.295 70.882,4.295 C70.882,4.315 70.882,4.335 70.882,4.356 C70.780,4.356 70.679,4.356 70.577,4.356 C70.577,4.376 70.577,4.397 70.577,4.417 C70.496,4.437 70.414,4.458 70.333,4.478 C70.333,4.499 70.333,4.519 70.333,4.539 C70.272,4.539 70.211,4.539 70.150,4.539 C70.130,4.580 70.109,4.621 70.089,4.662 C70.028,4.662 69.967,4.662 69.906,4.662 C69.886,4.703 69.865,4.744 69.845,4.784 C69.764,4.805 69.682,4.825 69.601,4.846 C69.581,4.886 69.560,4.927 69.540,4.968 C69.499,4.968 69.459,4.968 69.418,4.968 C69.357,5.050 69.296,5.131 69.235,5.213 C69.194,5.213 69.154,5.213 69.113,5.213 C69.093,5.254 69.072,5.294 69.052,5.335 C68.971,5.396 68.889,5.458 68.808,5.519 C68.808,5.560 68.808,5.601 68.808,5.641 C68.747,5.682 68.686,5.723 68.625,5.764 C68.564,5.947 68.503,6.131 68.442,6.315 C68.422,6.315 68.401,6.315 68.381,6.315 C68.381,6.355 68.381,6.396 68.381,6.437 C68.361,6.437 68.340,6.437 68.320,6.437 C68.320,6.600 68.320,6.764 68.320,6.927 C68.300,6.927 68.279,6.927 68.259,6.927 C68.279,7.151 68.300,7.376 68.320,7.600 C68.340,7.600 68.361,7.600 68.381,7.600 C68.381,7.641 68.381,7.682 68.381,7.723 C68.401,7.723 68.422,7.723 68.442,7.723 C68.442,7.784 68.442,7.845 68.442,7.906 C68.483,7.927 68.523,7.947 68.564,7.967 C68.564,8.008 68.564,8.049 68.564,8.090 C68.605,8.110 68.645,8.131 68.686,8.151 C68.686,8.192 68.686,8.233 68.686,8.274 C68.727,8.294 68.767,8.314 68.808,8.335 C68.910,8.457 69.011,8.580 69.113,8.702 C69.154,8.702 69.194,8.702 69.235,8.702 C69.255,8.743 69.276,8.784 69.296,8.824 C69.337,8.824 69.377,8.824 69.418,8.824 C69.438,8.865 69.459,8.906 69.479,8.947 C69.601,8.988 69.723,9.029 69.845,9.069 C69.865,9.110 69.886,9.151 69.906,9.192 C69.967,9.192 70.028,9.192 70.089,9.192 C70.089,9.212 70.089,9.233 70.089,9.253 C70.170,9.273 70.252,9.294 70.333,9.314 C70.333,9.335 70.333,9.355 70.333,9.375 C70.394,9.375 70.455,9.375 70.516,9.375 C70.536,9.416 70.557,9.457 70.577,9.498 C70.719,9.518 70.862,9.539 71.004,9.559 C71.004,9.579 71.004,9.600 71.004,9.620 C71.045,9.620 71.085,9.620 71.126,9.620 C71.126,9.641 71.126,9.661 71.126,9.681 C71.228,9.681 71.329,9.681 71.431,9.681 C71.431,9.702 71.431,9.722 71.431,9.743 C71.472,9.743 71.512,9.743 71.553,9.743 C71.553,9.763 71.553,9.784 71.553,9.804 C71.655,9.804 71.756,9.804 71.858,9.804 C71.858,9.824 71.858,9.845 71.858,9.865 C71.939,9.865 72.021,9.865 72.102,9.865 C72.102,9.886 72.102,9.906 72.102,9.926 C72.163,9.926 72.224,9.926 72.285,9.926 C72.285,9.947 72.285,9.967 72.285,9.988 C72.427,9.988 72.570,9.988 72.712,9.988 C72.712,10.008 72.712,10.028 72.712,10.049 C72.773,10.049 72.834,10.049 72.895,10.049 C72.895,10.069 72.895,10.090 72.895,10.110 C73.037,10.110 73.180,10.110 73.322,10.110 C73.322,10.130 73.322,10.151 73.322,10.171 C73.403,10.171 73.485,10.171 73.566,10.171 C73.566,10.192 73.566,10.212 73.566,10.232 C73.647,10.232 73.729,10.232 73.810,10.232 C73.810,10.253 73.810,10.273 73.810,10.294 C73.952,10.294 74.095,10.294 74.237,10.294 C74.237,10.314 74.237,10.334 74.237,10.355 C74.562,10.396 74.888,10.436 75.213,10.477 C75.213,10.498 75.213,10.518 75.213,10.538 C75.294,10.538 75.376,10.538 75.457,10.538 C75.457,10.559 75.457,10.579 75.457,10.600 C75.660,10.620 75.864,10.641 76.067,10.661 C76.067,10.681 76.067,10.702 76.067,10.722 C76.189,10.722 76.311,10.722 76.433,10.722 C76.433,10.743 76.433,10.763 76.433,10.783 C76.636,10.804 76.840,10.824 77.043,10.845 C77.043,10.865 77.043,10.885 77.043,10.906 C77.490,10.967 77.938,11.028 78.385,11.089 C78.385,11.110 78.385,11.130 78.385,11.151 C78.588,11.171 78.792,11.191 78.995,11.212 C78.995,11.232 78.995,11.253 78.995,11.273 C79.076,11.273 79.158,11.273 79.239,11.273 C79.239,11.293 79.239,11.314 79.239,11.334 C79.320,11.334 79.402,11.334 79.483,11.334 C79.483,11.355 79.483,11.375 79.483,11.396 C79.585,11.396 79.686,11.396 79.788,11.396 C79.788,11.416 79.788,11.436 79.788,11.457 C79.849,11.457 79.910,11.457 79.971,11.457 C79.971,11.477 79.971,11.498 79.971,11.518 C80.073,11.518 80.174,11.518 80.276,11.518 C80.276,11.538 80.276,11.559 80.276,11.579 C80.337,11.579 80.398,11.579 80.459,11.579 C80.459,11.600 80.459,11.620 80.459,11.640 C80.642,11.661 80.825,11.681 81.008,11.702 C82.859,12.396 84.638,12.966 85.705,14.456 C85.786,14.517 85.868,14.579 85.949,14.640 C85.969,14.701 85.990,14.762 86.010,14.824 C86.051,14.844 86.091,14.864 86.132,14.885 C86.152,14.966 86.173,15.048 86.193,15.130 C86.234,15.150 86.274,15.170 86.315,15.191 C86.335,15.252 86.356,15.313 86.376,15.374 C86.396,15.374 86.417,15.374 86.437,15.374 C86.457,15.456 86.478,15.538 86.498,15.619 C86.518,15.619 86.539,15.619 86.559,15.619 C86.600,15.742 86.640,15.864 86.681,15.987 C86.701,15.987 86.722,15.987 86.742,15.987 C86.762,16.089 86.783,16.191 86.803,16.293 C86.823,16.293 86.844,16.293 86.864,16.293 C86.864,16.333 86.864,16.374 86.864,16.415 C86.884,16.415 86.905,16.415 86.925,16.415 C86.925,16.497 86.925,16.578 86.925,16.660 C87.192,17.414 87.381,18.669 87.108,19.598 C87.108,19.721 87.108,19.843 87.108,19.966 C87.088,19.966 87.067,19.966 87.047,19.966 C87.047,20.047 87.047,20.129 87.047,20.210 C87.027,20.210 87.006,20.210 86.986,20.210 C86.986,20.272 86.986,20.333 86.986,20.394 C86.966,20.394 86.945,20.394 86.925,20.394 C86.925,20.476 86.925,20.557 86.925,20.639 C86.905,20.639 86.884,20.639 86.864,20.639 C86.864,20.680 86.864,20.721 86.864,20.761 C86.844,20.761 86.823,20.761 86.803,20.761 C86.783,20.884 86.762,21.006 86.742,21.129 C86.701,21.149 86.661,21.169 86.620,21.190 C86.600,21.292 86.579,21.394 86.559,21.496 C86.518,21.516 86.478,21.537 86.437,21.557 C86.396,21.680 86.356,21.802 86.315,21.924 C86.274,21.945 86.234,21.965 86.193,21.986 C86.193,22.026 86.193,22.067 86.193,22.108 C86.152,22.128 86.112,22.149 86.071,22.169 C86.051,22.231 86.030,22.292 86.010,22.353 C85.949,22.394 85.888,22.435 85.827,22.475 C85.827,22.516 85.827,22.557 85.827,22.598 C85.624,22.781 85.420,22.965 85.217,23.149 C85.095,23.292 84.973,23.434 84.851,23.577 C84.810,23.577 84.770,23.577 84.729,23.577 C84.668,23.659 84.607,23.740 84.546,23.822 C84.505,23.822 84.465,23.822 84.424,23.822 C84.383,23.883 84.343,23.945 84.302,24.006 C84.261,24.006 84.221,24.006 84.180,24.006 C84.160,24.047 84.139,24.087 84.119,24.128 C84.058,24.149 83.997,24.169 83.936,24.189 C83.936,24.210 83.936,24.230 83.936,24.251 C83.855,24.271 83.773,24.291 83.692,24.312 C83.672,24.353 83.651,24.393 83.631,24.434 C83.550,24.455 83.468,24.475 83.387,24.495 C83.367,24.536 83.346,24.577 83.326,24.618 C83.285,24.618 83.245,24.618 83.204,24.618 C83.204,24.638 83.204,24.659 83.204,24.679 C83.163,24.679 83.123,24.679 83.082,24.679 C83.082,24.700 83.082,24.720 83.082,24.740 C83.041,24.740 83.001,24.740 82.960,24.740 C82.960,24.761 82.960,24.781 82.960,24.802 C82.919,24.802 82.879,24.802 82.838,24.802 C82.818,24.842 82.797,24.883 82.777,24.924 C82.716,24.924 82.655,24.924 82.594,24.924 C82.594,24.944 82.594,24.965 82.594,24.985 C82.513,25.006 82.431,25.026 82.350,25.046 C82.350,25.067 82.350,25.087 82.350,25.108 C82.289,25.108 82.228,25.108 82.167,25.108 C82.147,25.148 82.126,25.189 82.106,25.230 C81.313,25.495 80.520,25.761 79.727,26.026 C79.625,26.026 79.524,26.026 79.422,26.026 C79.422,26.046 79.422,26.067 79.422,26.087 C79.361,26.087 79.300,26.087 79.239,26.087 C79.239,26.107 79.239,26.128 79.239,26.148 C79.117,26.148 78.995,26.148 78.873,26.148 C78.873,26.169 78.873,26.189 78.873,26.209 C78.771,26.209 78.670,26.209 78.568,26.209 C78.568,26.230 78.568,26.250 78.568,26.271 C78.487,26.271 78.405,26.271 78.324,26.271 C78.324,26.291 78.324,26.311 78.324,26.332 C78.039,26.352 77.755,26.373 77.470,26.393 C77.470,26.414 77.470,26.434 77.470,26.454 C77.063,26.475 76.657,26.495 76.250,26.516 C76.250,26.536 76.250,26.556 76.250,26.577 C76.209,26.577 76.169,26.577 76.128,26.577 C76.128,26.597 76.128,26.618 76.128,26.638 C75.010,26.638 73.891,26.638 72.773,26.638 C72.468,26.638 72.163,26.638 71.858,26.638 C71.858,26.618 71.858,26.597 71.858,26.577 C71.797,26.577 71.736,26.577 71.675,26.577 C71.675,26.556 71.675,26.536 71.675,26.516 C71.472,26.516 71.268,26.516 71.065,26.516 C71.065,26.495 71.065,26.475 71.065,26.454 C70.862,26.454 70.658,26.454 70.455,26.454 C70.455,26.434 70.455,26.414 70.455,26.393 C70.353,26.393 70.252,26.393 70.150,26.393 C70.150,26.373 70.150,26.352 70.150,26.332 C69.967,26.332 69.784,26.332 69.601,26.332 C69.601,26.311 69.601,26.291 69.601,26.271 C69.520,26.271 69.438,26.271 69.357,26.271 C69.357,26.250 69.357,26.230 69.357,26.209 C69.255,26.209 69.154,26.209 69.052,26.209 C69.052,26.189 69.052,26.169 69.052,26.148 C68.930,26.148 68.808,26.148 68.686,26.148 C68.686,26.128 68.686,26.107 68.686,26.087 C68.625,26.087 68.564,26.087 68.503,26.087 C68.503,26.067 68.503,26.046 68.503,26.026 C68.381,26.026 68.259,26.026 68.137,26.026 C68.137,26.005 68.137,25.985 68.137,25.965 C67.913,25.924 67.690,25.883 67.466,25.842 C67.466,25.822 67.466,25.801 67.466,25.781 C67.405,25.781 67.344,25.781 67.283,25.781 C67.283,25.761 67.283,25.740 67.283,25.720 C67.141,25.699 66.998,25.679 66.856,25.659 C66.856,25.638 66.856,25.618 66.856,25.597 C66.815,25.597 66.775,25.597 66.734,25.597 C66.734,25.577 66.734,25.557 66.734,25.536 C66.653,25.536 66.571,25.536 66.490,25.536 C66.490,25.516 66.490,25.495 66.490,25.475 C66.449,25.475 66.409,25.475 66.368,25.475 C66.368,25.454 66.368,25.434 66.368,25.414 C66.246,25.393 66.124,25.373 66.002,25.352 C66.002,25.332 66.002,25.312 66.002,25.291 C65.961,25.291 65.921,25.291 65.880,25.291 C65.880,25.271 65.880,25.250 65.880,25.230 C65.819,25.230 65.758,25.230 65.697,25.230 C65.697,25.210 65.697,25.189 65.697,25.169 C65.656,25.169 65.616,25.169 65.575,25.169 C65.575,25.148 65.575,25.128 65.575,25.108 C65.514,25.108 65.453,25.108 65.392,25.108 C65.392,25.087 65.392,25.067 65.392,25.046 C65.311,25.026 65.229,25.006 65.148,24.985 C65.148,24.965 65.148,24.944 65.148,24.924 C64.965,24.863 64.782,24.802 64.599,24.740 C64.579,24.700 64.558,24.659 64.538,24.618 C64.477,24.618 64.416,24.618 64.355,24.618 C64.335,24.577 64.314,24.536 64.294,24.495 C64.213,24.475 64.131,24.455 64.050,24.434 C64.030,24.393 64.009,24.353 63.989,24.312 C63.908,24.291 63.826,24.271 63.745,24.251 C63.725,24.210 63.704,24.169 63.684,24.128 C63.643,24.128 63.603,24.128 63.562,24.128 C63.562,24.108 63.562,24.087 63.562,24.067 C63.501,24.047 63.440,24.026 63.379,24.006 C63.359,23.965 63.338,23.924 63.318,23.883 C63.277,23.883 63.237,23.883 63.196,23.883 C63.155,23.822 63.115,23.761 63.074,23.700 C63.033,23.700 62.993,23.700 62.952,23.700 C62.871,23.598 62.789,23.496 62.708,23.394 C62.667,23.394 62.627,23.394 62.586,23.394 C62.423,23.210 62.261,23.026 62.098,22.843 C62.017,22.781 61.935,22.720 61.854,22.659 C61.854,22.618 61.854,22.577 61.854,22.537 C61.752,22.455 61.651,22.373 61.549,22.292 C61.549,22.251 61.549,22.210 61.549,22.169 C61.488,22.128 61.427,22.088 61.366,22.047 C61.366,22.006 61.366,21.965 61.366,21.924 C61.325,21.904 61.285,21.884 61.244,21.863 C61.244,21.822 61.244,21.782 61.244,21.741 C61.203,21.720 61.163,21.700 61.122,21.680 C61.102,21.598 61.081,21.516 61.061,21.435 C61.020,21.414 60.980,21.394 60.939,21.374 C60.919,21.292 60.898,21.210 60.878,21.129 C60.837,21.108 60.797,21.088 60.756,21.067 C60.756,21.006 60.756,20.945 60.756,20.884 C60.715,20.863 60.675,20.843 60.634,20.823 C60.634,20.761 60.634,20.700 60.634,20.639 C60.614,20.639 60.593,20.639 60.573,20.639 C60.492,20.414 60.410,20.190 60.329,19.966 C60.553,19.925 60.776,19.884 61.000,19.843 C61.000,19.823 61.000,19.802 61.000,19.782 C61.183,19.782 61.366,19.782 61.549,19.782 C61.549,19.762 61.549,19.741 61.549,19.721 C61.651,19.721 61.752,19.721 61.854,19.721 C61.854,19.700 61.854,19.680 61.854,19.659 C61.976,19.659 62.098,19.659 62.220,19.659 C62.220,19.639 62.220,19.619 62.220,19.598 C62.362,19.598 62.505,19.598 62.647,19.598 C62.647,19.578 62.647,19.557 62.647,19.537 C62.749,19.537 62.850,19.537 62.952,19.537 C62.952,19.517 62.952,19.496 62.952,19.476 C63.115,19.476 63.277,19.476 63.440,19.476 C63.440,19.455 63.440,19.435 63.440,19.415 C63.542,19.415 63.643,19.415 63.745,19.415 C63.745,19.394 63.745,19.374 63.745,19.353 C63.867,19.353 63.989,19.353 64.111,19.353 C64.111,19.333 64.111,19.313 64.111,19.292 C64.274,19.292 64.436,19.292 64.599,19.292 C64.599,19.272 64.599,19.251 64.599,19.231 C64.843,19.211 65.087,19.190 65.331,19.170 C65.331,19.149 65.331,19.129 65.331,19.109 C65.453,19.109 65.575,19.109 65.697,19.109 C65.697,19.088 65.697,19.068 65.697,19.047 C65.931,18.973 66.000,19.022 66.185,19.047 C66.205,19.129 66.226,19.211 66.246,19.292 C66.266,19.292 66.287,19.292 66.307,19.292 C66.307,19.374 66.307,19.455 66.307,19.537 C66.348,19.557 66.388,19.578 66.429,19.598 C66.449,19.700 66.470,19.802 66.490,19.904 C66.531,19.925 66.571,19.945 66.612,19.966 C66.612,20.006 66.612,20.047 66.612,20.088 C66.653,20.108 66.693,20.129 66.734,20.149 C66.734,20.190 66.734,20.231 66.734,20.272 C66.775,20.292 66.815,20.312 66.856,20.333 C66.856,20.374 66.856,20.414 66.856,20.455 C66.978,20.557 67.100,20.659 67.222,20.761 C67.324,20.884 67.425,21.006 67.527,21.129 C67.568,21.129 67.608,21.129 67.649,21.129 C67.690,21.190 67.730,21.251 67.771,21.312 C67.812,21.312 67.852,21.312 67.893,21.312 C67.913,21.353 67.934,21.394 67.954,21.435 C68.035,21.455 68.117,21.476 68.198,21.496 C68.218,21.537 68.239,21.578 68.259,21.618 C68.442,21.680 68.625,21.741 68.808,21.802 C68.808,21.822 68.808,21.843 68.808,21.863 C68.889,21.884 68.971,21.904 69.052,21.924 C69.052,21.945 69.052,21.965 69.052,21.986 C69.154,22.006 69.255,22.026 69.357,22.047 C69.357,22.067 69.357,22.088 69.357,22.108 C69.438,22.108 69.520,22.108 69.601,22.108 C69.601,22.128 69.601,22.149 69.601,22.169 C69.662,22.169 69.723,22.169 69.784,22.169 C69.784,22.190 69.784,22.210 69.784,22.231 C69.845,22.231 69.906,22.231 69.967,22.231 C69.967,22.251 69.967,22.271 69.967,22.292 C70.130,22.312 70.292,22.333 70.455,22.353 C70.455,22.373 70.455,22.394 70.455,22.414 C70.577,22.414 70.699,22.414 70.821,22.414 C70.821,22.435 70.821,22.455 70.821,22.475 C70.923,22.475 71.024,22.475 71.126,22.475 C71.126,22.496 71.126,22.516 71.126,22.537 C71.228,22.537 71.329,22.537 71.431,22.537 C71.431,22.557 71.431,22.577 71.431,22.598 C71.655,22.598 71.878,22.598 72.102,22.598 C72.102,22.618 72.102,22.639 72.102,22.659 C72.265,22.659 72.427,22.659 72.590,22.659 C72.979,22.768 73.625,22.720 74.115,22.720 C75.294,22.720 76.400,22.698 77.287,22.414 C77.531,22.373 77.775,22.333 78.019,22.292 C78.019,22.271 78.019,22.251 78.019,22.231 C78.202,22.190 78.385,22.149 78.568,22.108 C78.568,22.088 78.568,22.067 78.568,22.047 C78.690,22.006 78.812,21.965 78.934,21.924 C78.934,21.904 78.934,21.884 78.934,21.863 C78.975,21.863 79.015,21.863 79.056,21.863 C79.056,21.843 79.056,21.822 79.056,21.802 C79.097,21.802 79.137,21.802 79.178,21.802 C79.178,21.782 79.178,21.761 79.178,21.741 C79.259,21.720 79.341,21.700 79.422,21.680 C79.463,21.618 79.503,21.557 79.544,21.496 C79.605,21.476 79.666,21.455 79.727,21.435 C79.727,21.414 79.727,21.394 79.727,21.374 C79.768,21.374 79.808,21.374 79.849,21.374 C79.971,21.231 80.093,21.088 80.215,20.945 C80.296,20.884 80.378,20.823 80.459,20.761 C80.459,20.721 80.459,20.680 80.459,20.639 C80.500,20.619 80.540,20.598 80.581,20.578 C80.601,20.476 80.622,20.374 80.642,20.272 C80.683,20.251 80.723,20.231 80.764,20.210 C80.784,19.823 80.805,19.435 80.825,19.047 C80.805,19.047 80.784,19.047 80.764,19.047 C80.764,18.945 80.764,18.843 80.764,18.741 C80.744,18.741 80.723,18.741 80.703,18.741 C80.703,18.700 80.703,18.660 80.703,18.619 C80.683,18.619 80.662,18.619 80.642,18.619 C80.642,18.558 80.642,18.496 80.642,18.435 C80.622,18.435 80.601,18.435 80.581,18.435 C80.581,18.394 80.581,18.354 80.581,18.313 C80.540,18.292 80.500,18.272 80.459,18.252 C80.459,18.211 80.459,18.170 80.459,18.129 C80.418,18.109 80.378,18.088 80.337,18.068 C80.337,18.027 80.337,17.986 80.337,17.945 C80.276,17.905 80.215,17.864 80.154,17.823 C80.154,17.782 80.154,17.741 80.154,17.701 C80.134,17.701 80.113,17.701 80.093,17.701 C80.032,17.619 79.971,17.537 79.910,17.456 C79.869,17.456 79.829,17.456 79.788,17.456 C79.747,17.395 79.707,17.333 79.666,17.272 C79.625,17.272 79.585,17.272 79.544,17.272 C79.524,17.231 79.503,17.190 79.483,17.150 C79.422,17.150 79.361,17.150 79.300,17.150 C79.300,17.129 79.300,17.109 79.300,17.088 C79.259,17.088 79.219,17.088 79.178,17.088 C79.158,17.048 79.137,17.007 79.117,16.966 C79.056,16.966 78.995,16.966 78.934,16.966 C78.934,16.946 78.934,16.925 78.934,16.905 C78.893,16.905 78.853,16.905 78.812,16.905 C78.812,16.884 78.812,16.864 78.812,16.844 C78.243,16.680 77.673,16.517 77.104,16.354 C76.982,16.354 76.860,16.354 76.738,16.354 C76.738,16.333 76.738,16.313 76.738,16.293 C76.657,16.293 76.575,16.293 76.494,16.293 C76.494,16.272 76.494,16.252 76.494,16.231 C76.392,16.231 76.291,16.231 76.189,16.231 C76.189,16.211 76.189,16.191 76.189,16.170 C76.087,16.170 75.986,16.170 75.884,16.170 C75.884,16.150 75.884,16.129 75.884,16.109 C75.823,16.109 75.762,16.109 75.701,16.109 C75.701,16.089 75.701,16.068 75.701,16.048 C75.579,16.048 75.457,16.048 75.335,16.048 C75.335,16.027 75.335,16.007 75.335,15.987 C75.254,15.987 75.172,15.987 75.091,15.987 C75.091,15.966 75.091,15.946 75.091,15.925 C74.989,15.925 74.888,15.925 74.786,15.925 C74.786,15.905 74.786,15.885 74.786,15.864 C74.684,15.864 74.583,15.864 74.481,15.864 C74.481,15.844 74.481,15.823 74.481,15.803 C74.420,15.803 74.359,15.803 74.298,15.803 C74.298,15.783 74.298,15.762 74.298,15.742 C74.176,15.742 74.054,15.742 73.932,15.742 C72.470,15.283 70.764,15.098 69.296,14.640 C69.174,14.640 69.052,14.640 68.930,14.640 C68.930,14.619 68.930,14.599 68.930,14.579 C68.869,14.579 68.808,14.579 68.747,14.579 C68.747,14.558 68.747,14.538 68.747,14.517 C68.584,14.497 68.422,14.477 68.259,14.456 C68.259,14.436 68.259,14.415 68.259,14.395 C68.117,14.375 67.974,14.354 67.832,14.334 C67.832,14.313 67.832,14.293 67.832,14.273 C67.771,14.273 67.710,14.273 67.649,14.273 C67.649,14.252 67.649,14.232 67.649,14.211 C67.588,14.211 67.527,14.211 67.466,14.211 C67.466,14.191 67.466,14.171 67.466,14.150 C67.385,14.150 67.303,14.150 67.222,14.150 C67.222,14.130 67.222,14.109 67.222,14.089 C67.181,14.089 67.141,14.089 67.100,14.089 C67.100,14.069 67.100,14.048 67.100,14.028 C67.019,14.028 66.937,14.028 66.856,14.028 C66.856,14.007 66.856,13.987 66.856,13.967 C66.775,13.946 66.693,13.926 66.612,13.905 C66.612,13.885 66.612,13.864 66.612,13.844 C66.551,13.844 66.490,13.844 66.429,13.844 C66.429,13.824 66.429,13.803 66.429,13.783 C66.327,13.762 66.226,13.742 66.124,13.722 C66.124,13.701 66.124,13.681 66.124,13.660 C66.043,13.640 65.961,13.620 65.880,13.599 C65.880,13.579 65.880,13.558 65.880,13.538 C65.819,13.538 65.758,13.538 65.697,13.538 C65.677,13.497 65.656,13.456 65.636,13.416 C65.595,13.416 65.555,13.416 65.514,13.416 C65.514,13.395 65.514,13.375 65.514,13.354 C65.392,13.314 65.270,13.273 65.148,13.232 C65.128,13.191 65.107,13.150 65.087,13.110 C65.046,13.110 65.006,13.110 64.965,13.110 C64.924,13.048 64.884,12.987 64.843,12.926 C64.802,12.926 64.762,12.926 64.721,12.926 C64.314,12.538 63.908,12.150 63.501,11.763 C63.501,11.722 63.501,11.681 63.501,11.640 C63.440,11.600 63.379,11.559 63.318,11.518 C63.318,11.477 63.318,11.436 63.318,11.396 C63.277,11.375 63.237,11.355 63.196,11.334 C63.176,11.273 63.155,11.212 63.135,11.151 C63.115,11.151 63.094,11.151 63.074,11.151 C63.074,11.110 63.074,11.069 63.074,11.028 C63.033,11.008 62.993,10.987 62.952,10.967 C62.932,10.885 62.911,10.804 62.891,10.722 C62.850,10.702 62.810,10.681 62.769,10.661 C62.769,10.600 62.769,10.538 62.769,10.477 C62.749,10.477 62.728,10.477 62.708,10.477 C62.708,10.436 62.708,10.396 62.708,10.355 C62.688,10.355 62.667,10.355 62.647,10.355 C62.606,10.232 62.566,10.110 62.525,9.988 C62.505,9.988 62.484,9.988 62.464,9.988 C62.464,9.906 62.464,9.824 62.464,9.743 C62.444,9.743 62.423,9.743 62.403,9.743 C62.403,9.702 62.403,9.661 62.403,9.620 C62.383,9.620 62.362,9.620 62.342,9.620 C62.322,9.457 62.301,9.294 62.281,9.131 C62.261,9.131 62.240,9.131 62.220,9.131 C62.220,9.069 62.220,9.008 62.220,8.947 C62.200,8.947 62.179,8.947 62.159,8.947 C62.159,8.784 62.159,8.620 62.159,8.457 C62.139,8.457 62.118,8.457 62.098,8.457 C62.020,8.179 62.103,7.124 62.159,6.927 C62.159,6.764 62.159,6.600 62.159,6.437 C62.179,6.437 62.200,6.437 62.220,6.437 C62.220,6.355 62.220,6.274 62.220,6.192 C62.240,6.192 62.261,6.192 62.281,6.192 C62.281,6.111 62.281,6.029 62.281,5.947 C62.301,5.947 62.322,5.947 62.342,5.947 C62.342,5.866 62.342,5.784 62.342,5.703 C63.418,2.948 65.827,1.587 68.686,0.622 C68.788,0.622 68.889,0.622 68.991,0.622 C68.991,0.601 68.991,0.581 68.991,0.560 C69.052,0.560 69.113,0.560 69.174,0.560 C69.174,0.540 69.174,0.520 69.174,0.499 C69.276,0.499 69.377,0.499 69.479,0.499 C69.479,0.479 69.479,0.458 69.479,0.438 C69.560,0.438 69.642,0.438 69.723,0.438 C69.723,0.418 69.723,0.397 69.723,0.377 C69.804,0.377 69.886,0.377 69.967,0.377 C69.967,0.356 69.967,0.336 69.967,0.316 C70.211,0.295 70.455,0.275 70.699,0.254 C70.699,0.234 70.699,0.214 70.699,0.193 C70.882,0.193 71.065,0.193 71.248,0.193 C72.153,-0.061 73.441,0.010 74.603,0.010 C75.030,0.010 75.457,0.010 75.884,0.010 C75.884,0.030 75.884,0.050 75.884,0.071 C75.925,0.071 75.965,0.071 76.006,0.071 C76.006,0.091 76.006,0.112 76.006,0.132 C76.189,0.132 76.372,0.132 76.555,0.132 C76.555,0.152 76.555,0.173 76.555,0.193 C76.738,0.193 76.921,0.193 77.104,0.193 C77.104,0.214 77.104,0.234 77.104,0.254 C77.206,0.254 77.307,0.254 77.409,0.254 C77.409,0.275 77.409,0.295 77.409,0.316 C77.572,0.316 77.734,0.316 77.897,0.316 C77.897,0.336 77.897,0.356 77.897,0.377 C77.978,0.377 78.060,0.377 78.141,0.377 C78.141,0.397 78.141,0.418 78.141,0.438 C78.222,0.438 78.304,0.438 78.385,0.438 C78.385,0.458 78.385,0.479 78.385,0.499 C78.507,0.499 78.629,0.499 78.751,0.499 C78.751,0.520 78.751,0.540 78.751,0.560 C78.812,0.560 78.873,0.560 78.934,0.560 C78.934,0.581 78.934,0.601 78.934,0.622 C79.036,0.622 79.137,0.622 79.239,0.622 C79.239,0.642 79.239,0.663 79.239,0.683 C79.300,0.683 79.361,0.683 79.422,0.683 C79.422,0.703 79.422,0.724 79.422,0.744 C79.483,0.744 79.544,0.744 79.605,0.744 C79.605,0.765 79.605,0.785 79.605,0.805 C79.707,0.805 79.808,0.805 79.910,0.805 C79.910,0.826 79.910,0.846 79.910,0.867 C79.951,0.867 79.991,0.867 80.032,0.867 C80.032,0.887 80.032,0.907 80.032,0.928 C80.113,0.928 80.195,0.928 80.276,0.928 C80.276,0.948 80.276,0.969 80.276,0.989 C80.317,0.989 80.357,0.989 80.398,0.989 C80.398,1.009 80.398,1.030 80.398,1.050 C80.520,1.071 80.642,1.091 80.764,1.111 C80.764,1.132 80.764,1.152 80.764,1.173 C80.805,1.173 80.845,1.173 80.886,1.173 C80.886,1.193 80.886,1.213 80.886,1.234 C81.008,1.254 81.130,1.275 81.252,1.295 C81.252,1.315 81.252,1.336 81.252,1.356 C81.293,1.356 81.333,1.356 81.374,1.356 C81.374,1.377 81.374,1.397 81.374,1.418 C81.435,1.418 81.496,1.418 81.557,1.418 C81.557,1.438 81.557,1.458 81.557,1.479 C81.679,1.520 81.801,1.560 81.923,1.601 C81.923,1.622 81.923,1.642 81.923,1.662 C81.964,1.662 82.004,1.662 82.045,1.662 C82.045,1.683 82.045,1.703 82.045,1.724 C82.106,1.724 82.167,1.724 82.228,1.724 C82.248,1.764 82.269,1.805 82.289,1.846 C82.330,1.846 82.370,1.846 82.411,1.846 C82.411,1.866 82.411,1.887 82.411,1.907 C82.452,1.907 82.492,1.907 82.533,1.907 C82.533,1.928 82.533,1.948 82.533,1.968 C82.574,1.968 82.614,1.968 82.655,1.968 C82.655,1.989 82.655,2.009 82.655,2.030 C82.696,2.030 82.736,2.030 82.777,2.030 C82.797,2.070 82.818,2.111 82.838,2.152 C82.919,2.172 83.001,2.193 83.082,2.213 C83.082,2.234 83.082,2.254 83.082,2.275 C83.143,2.295 83.204,2.315 83.265,2.336 C83.285,2.377 83.306,2.417 83.326,2.458 C83.367,2.458 83.407,2.458 83.448,2.458 C83.468,2.499 83.489,2.540 83.509,2.581 C83.570,2.601 83.631,2.621 83.692,2.642 C83.733,2.703 83.773,2.764 83.814,2.825 C83.855,2.825 83.895,2.825 83.936,2.825 C84.017,2.927 84.099,3.030 84.180,3.132 C84.221,3.132 84.261,3.132 84.302,3.132 C84.322,3.172 84.343,3.213 84.363,3.254 C84.444,3.315 84.526,3.376 84.607,3.438 C84.607,3.478 84.607,3.519 84.607,3.560 C84.729,3.662 84.851,3.764 84.973,3.866 C84.973,3.907 84.973,3.948 84.973,3.989 C85.034,4.029 85.095,4.070 85.156,4.111 C85.156,4.152 85.156,4.193 85.156,4.233 C85.197,4.254 85.237,4.274 85.278,4.295 C85.278,4.335 85.278,4.376 85.278,4.417 C85.319,4.437 85.359,4.458 85.400,4.478 C85.420,4.560 85.441,4.641 85.461,4.723 C85.621,5.020 85.817,5.169 85.827,5.641 ZM97.356,22.781 C97.315,22.781 97.275,22.781 97.234,22.781 C97.234,22.741 97.234,22.700 97.234,22.659 C96.962,22.498 96.806,22.243 96.624,21.986 C96.563,21.945 96.502,21.904 96.441,21.863 C96.441,21.822 96.441,21.782 96.441,21.741 C96.360,21.680 96.278,21.618 96.197,21.557 C96.197,21.516 96.197,21.476 96.197,21.435 C96.136,21.394 96.075,21.353 96.014,21.312 C96.014,21.271 96.014,21.231 96.014,21.190 C95.973,21.169 95.933,21.149 95.892,21.129 C95.872,21.067 95.851,21.006 95.831,20.945 C95.811,20.945 95.790,20.945 95.770,20.945 C95.770,20.904 95.770,20.863 95.770,20.823 C95.729,20.802 95.689,20.782 95.648,20.761 C95.648,20.721 95.648,20.680 95.648,20.639 C95.607,20.619 95.567,20.598 95.526,20.578 C95.526,20.537 95.526,20.496 95.526,20.455 C95.485,20.435 95.445,20.414 95.404,20.394 C95.404,20.353 95.404,20.312 95.404,20.272 C95.384,20.272 95.363,20.272 95.343,20.272 C95.343,20.231 95.343,20.190 95.343,20.149 C95.323,20.149 95.302,20.149 95.282,20.149 C95.282,20.108 95.282,20.068 95.282,20.027 C95.262,20.027 95.241,20.027 95.221,20.027 C95.221,19.986 95.221,19.945 95.221,19.904 C95.180,19.884 95.140,19.864 95.099,19.843 C95.099,19.782 95.099,19.721 95.099,19.659 C95.058,19.639 95.018,19.619 94.977,19.598 C94.957,19.496 94.936,19.394 94.916,19.292 C94.875,19.272 94.835,19.251 94.794,19.231 C94.794,19.170 94.794,19.109 94.794,19.047 C94.774,19.047 94.753,19.047 94.733,19.047 C94.713,18.966 94.692,18.884 94.672,18.802 C94.652,18.802 94.631,18.802 94.611,18.802 C94.408,18.190 94.204,17.578 94.001,16.966 C94.001,16.864 94.001,16.762 94.001,16.660 C93.981,16.660 93.960,16.660 93.940,16.660 C93.940,16.578 93.940,16.497 93.940,16.415 C93.920,16.415 93.899,16.415 93.879,16.415 C93.879,16.313 93.879,16.211 93.879,16.109 C93.859,16.109 93.838,16.109 93.818,16.109 C93.818,15.987 93.818,15.864 93.818,15.742 C93.798,15.742 93.777,15.742 93.757,15.742 C93.757,15.640 93.757,15.538 93.757,15.436 C93.737,15.436 93.716,15.436 93.696,15.436 C93.696,15.191 93.696,14.946 93.696,14.701 C93.676,14.701 93.655,14.701 93.635,14.701 C93.635,14.477 93.635,14.252 93.635,14.028 C93.615,14.028 93.594,14.028 93.574,14.028 C93.594,13.293 93.615,12.559 93.635,11.824 C93.655,11.824 93.676,11.824 93.696,11.824 C93.696,11.600 93.696,11.375 93.696,11.151 C93.716,11.151 93.737,11.151 93.757,11.151 C93.757,11.049 93.757,10.947 93.757,10.845 C93.777,10.845 93.798,10.845 93.818,10.845 C93.818,10.722 93.818,10.600 93.818,10.477 C93.838,10.477 93.859,10.477 93.879,10.477 C93.879,10.375 93.879,10.273 93.879,10.171 C93.899,10.171 93.920,10.171 93.940,10.171 C93.940,10.090 93.940,10.008 93.940,9.926 C93.960,9.926 93.981,9.926 94.001,9.926 C94.001,9.824 94.001,9.722 94.001,9.620 C94.021,9.620 94.042,9.620 94.062,9.620 C94.062,9.559 94.062,9.498 94.062,9.437 C94.082,9.437 94.103,9.437 94.123,9.437 C94.143,9.294 94.164,9.151 94.184,9.008 C94.204,9.008 94.225,9.008 94.245,9.008 C94.245,8.967 94.245,8.927 94.245,8.886 C94.265,8.886 94.286,8.886 94.306,8.886 C94.306,8.804 94.306,8.722 94.306,8.641 C94.326,8.641 94.347,8.641 94.367,8.641 C94.367,8.600 94.367,8.559 94.367,8.518 C94.387,8.518 94.408,8.518 94.428,8.518 C94.448,8.396 94.469,8.274 94.489,8.151 C94.530,8.131 94.570,8.110 94.611,8.090 C94.611,8.029 94.611,7.967 94.611,7.906 C94.631,7.906 94.652,7.906 94.672,7.906 C94.692,7.825 94.713,7.743 94.733,7.661 C94.753,7.661 94.774,7.661 94.794,7.661 C94.794,7.600 94.794,7.539 94.794,7.478 C94.814,7.478 94.835,7.478 94.855,7.478 C94.875,7.396 94.896,7.315 94.916,7.233 C94.936,7.233 94.957,7.233 94.977,7.233 C94.977,7.192 94.977,7.151 94.977,7.110 C95.018,7.090 95.058,7.070 95.099,7.049 C95.099,6.988 95.099,6.927 95.099,6.866 C95.140,6.845 95.180,6.825 95.221,6.804 C95.241,6.723 95.262,6.641 95.282,6.560 C95.302,6.560 95.323,6.560 95.343,6.560 C95.363,6.498 95.384,6.437 95.404,6.376 C95.445,6.355 95.485,6.335 95.526,6.315 C95.546,6.233 95.567,6.151 95.587,6.070 C95.607,6.070 95.628,6.070 95.648,6.070 C95.668,6.009 95.689,5.947 95.709,5.886 C95.750,5.866 95.790,5.845 95.831,5.825 C95.831,5.784 95.831,5.743 95.831,5.703 C95.892,5.662 95.953,5.621 96.014,5.580 C96.014,5.539 96.014,5.498 96.014,5.458 C96.075,5.417 96.136,5.376 96.197,5.335 C96.197,5.294 96.197,5.254 96.197,5.213 C96.278,5.152 96.360,5.090 96.441,5.029 C96.441,4.988 96.441,4.948 96.441,4.907 C96.583,4.784 96.726,4.662 96.868,4.539 C96.868,4.499 96.868,4.458 96.868,4.417 C97.071,4.233 97.275,4.050 97.478,3.866 C97.559,3.764 97.641,3.662 97.722,3.560 C97.763,3.560 97.803,3.560 97.844,3.560 C97.966,3.417 98.088,3.274 98.210,3.132 C98.251,3.132 98.291,3.132 98.332,3.132 C98.393,3.050 98.454,2.968 98.515,2.887 C98.556,2.887 98.596,2.887 98.637,2.887 C98.678,2.825 98.718,2.764 98.759,2.703 C98.800,2.703 98.840,2.703 98.881,2.703 C98.922,2.642 98.962,2.581 99.003,2.519 C99.044,2.519 99.084,2.519 99.125,2.519 C99.145,2.479 99.166,2.438 99.186,2.397 C99.247,2.377 99.308,2.356 99.369,2.336 C99.369,2.315 99.369,2.295 99.369,2.275 C99.410,2.275 99.450,2.275 99.491,2.275 C99.511,2.234 99.532,2.193 99.552,2.152 C99.613,2.132 99.674,2.111 99.735,2.091 C99.735,2.070 99.735,2.050 99.735,2.030 C99.796,2.030 99.857,2.030 99.918,2.030 C99.938,1.989 99.959,1.948 99.979,1.907 C100.060,1.887 100.142,1.866 100.223,1.846 C100.243,1.805 100.264,1.764 100.284,1.724 C100.345,1.724 100.406,1.724 100.467,1.724 C100.487,1.683 100.508,1.642 100.528,1.601 C100.711,1.540 100.894,1.479 101.077,1.418 C101.077,1.397 101.077,1.377 101.077,1.356 C101.118,1.356 101.158,1.356 101.199,1.356 C101.199,1.336 101.199,1.315 101.199,1.295 C101.321,1.254 101.443,1.213 101.565,1.173 C101.565,1.152 101.565,1.132 101.565,1.111 C101.687,1.091 101.809,1.071 101.931,1.050 C101.931,1.030 101.931,1.009 101.931,0.989 C101.972,0.989 102.012,0.989 102.053,0.989 C102.053,0.969 102.053,0.948 102.053,0.928 C102.134,0.928 102.216,0.928 102.297,0.928 C102.297,0.907 102.297,0.887 102.297,0.867 C102.338,0.867 102.378,0.867 102.419,0.867 C102.419,0.846 102.419,0.826 102.419,0.805 C102.480,0.805 102.541,0.805 102.602,0.805 C102.602,0.785 102.602,0.765 102.602,0.744 C102.663,0.744 102.724,0.744 102.785,0.744 C102.785,0.724 102.785,0.703 102.785,0.683 C102.846,0.683 102.907,0.683 102.968,0.683 C102.968,0.663 102.968,0.642 102.968,0.622 C103.070,0.622 103.171,0.622 103.273,0.622 C103.273,0.601 103.273,0.581 103.273,0.560 C103.314,0.560 103.354,0.560 103.395,0.560 C103.395,0.540 103.395,0.520 103.395,0.499 C103.517,0.499 103.639,0.499 103.761,0.499 C103.761,0.479 103.761,0.458 103.761,0.438 C103.842,0.438 103.924,0.438 104.005,0.438 C104.005,0.418 104.005,0.397 104.005,0.377 C104.066,0.377 104.127,0.377 104.188,0.377 C104.188,0.356 104.188,0.336 104.188,0.316 C104.351,0.316 104.513,0.316 104.676,0.316 C104.676,0.295 104.676,0.275 104.676,0.254 C104.757,0.254 104.839,0.254 104.920,0.254 C104.920,0.234 104.920,0.214 104.920,0.193 C105.083,0.193 105.245,0.193 105.408,0.193 C105.408,0.173 105.408,0.152 105.408,0.132 C105.591,0.132 105.774,0.132 105.957,0.132 C105.957,0.112 105.957,0.091 105.957,0.071 C105.998,0.071 106.038,0.071 106.079,0.071 C106.079,0.050 106.079,0.030 106.079,0.010 C106.404,0.010 106.730,0.010 107.055,0.010 C107.950,0.010 108.844,0.010 109.739,0.010 C109.759,0.050 109.780,0.091 109.800,0.132 C110.166,0.152 110.532,0.173 110.898,0.193 C110.898,0.214 110.898,0.234 110.898,0.254 C110.979,0.254 111.061,0.254 111.142,0.254 C111.142,0.275 111.142,0.295 111.142,0.316 C111.305,0.316 111.467,0.316 111.630,0.316 C111.630,0.336 111.630,0.356 111.630,0.377 C111.691,0.377 111.752,0.377 111.813,0.377 C111.813,0.397 111.813,0.418 111.813,0.438 C111.996,0.458 112.179,0.479 112.362,0.499 C112.362,0.520 112.362,0.540 112.362,0.560 C112.423,0.560 112.484,0.560 112.545,0.560 C112.545,0.581 112.545,0.601 112.545,0.622 C112.647,0.622 112.748,0.622 112.850,0.622 C112.850,0.642 112.850,0.663 112.850,0.683 C112.911,0.683 112.972,0.683 113.033,0.683 C113.033,0.703 113.033,0.724 113.033,0.744 C113.074,0.744 113.114,0.744 113.155,0.744 C113.155,0.765 113.155,0.785 113.155,0.805 C113.236,0.805 113.318,0.805 113.399,0.805 C113.399,0.826 113.399,0.846 113.399,0.867 C113.440,0.867 113.480,0.867 113.521,0.867 C113.521,0.887 113.521,0.907 113.521,0.928 C113.602,0.928 113.684,0.928 113.765,0.928 C113.765,0.948 113.765,0.969 113.765,0.989 C113.846,1.009 113.928,1.030 114.009,1.050 C114.009,1.071 114.009,1.091 114.009,1.111 C114.070,1.111 114.131,1.111 114.192,1.111 C114.192,1.132 114.192,1.152 114.192,1.173 C114.233,1.173 114.273,1.173 114.314,1.173 C114.314,1.193 114.314,1.213 114.314,1.234 C114.375,1.234 114.436,1.234 114.497,1.234 C114.497,1.254 114.497,1.275 114.497,1.295 C114.578,1.315 114.660,1.336 114.741,1.356 C114.741,1.377 114.741,1.397 114.741,1.418 C114.802,1.418 114.863,1.418 114.924,1.418 C114.944,1.458 114.965,1.499 114.985,1.540 C115.026,1.540 115.066,1.540 115.107,1.540 C115.107,1.560 115.107,1.581 115.107,1.601 C115.148,1.601 115.188,1.601 115.229,1.601 C115.229,1.622 115.229,1.642 115.229,1.662 C115.270,1.662 115.310,1.662 115.351,1.662 C115.351,1.683 115.351,1.703 115.351,1.724 C115.392,1.724 115.432,1.724 115.473,1.724 C115.473,1.744 115.473,1.764 115.473,1.785 C115.514,1.785 115.554,1.785 115.595,1.785 C115.615,1.826 115.636,1.866 115.656,1.907 C115.778,1.948 115.900,1.989 116.022,2.030 C116.042,2.070 116.063,2.111 116.083,2.152 C116.124,2.152 116.164,2.152 116.205,2.152 C116.246,2.213 116.286,2.275 116.327,2.336 C116.368,2.336 116.408,2.336 116.449,2.336 C116.469,2.377 116.490,2.417 116.510,2.458 C116.591,2.479 116.673,2.499 116.754,2.519 C116.815,2.601 116.876,2.683 116.937,2.764 C116.978,2.764 117.018,2.764 117.059,2.764 C117.120,2.846 117.181,2.927 117.242,3.009 C117.283,3.009 117.323,3.009 117.364,3.009 C117.486,3.152 117.608,3.295 117.730,3.438 C117.771,3.438 117.811,3.438 117.852,3.438 C117.994,3.601 118.137,3.764 118.279,3.927 C118.340,3.968 118.401,4.009 118.462,4.050 C118.462,4.091 118.462,4.131 118.462,4.172 C118.665,4.356 118.869,4.539 119.072,4.723 C119.072,4.764 119.072,4.805 119.072,4.846 C119.133,4.886 119.194,4.927 119.255,4.968 C119.255,5.009 119.255,5.050 119.255,5.090 C119.316,5.131 119.377,5.172 119.438,5.213 C119.438,5.254 119.438,5.294 119.438,5.335 C119.499,5.376 119.560,5.417 119.621,5.458 C119.621,5.498 119.621,5.539 119.621,5.580 C119.662,5.601 119.702,5.621 119.743,5.641 C119.763,5.703 119.784,5.764 119.804,5.825 C119.824,5.825 119.845,5.825 119.865,5.825 C119.865,5.866 119.865,5.907 119.865,5.947 C119.906,5.968 119.946,5.988 119.987,6.009 C120.007,6.070 120.028,6.131 120.048,6.192 C120.068,6.192 120.089,6.192 120.109,6.192 C120.129,6.274 120.150,6.355 120.170,6.437 C120.211,6.458 120.251,6.478 120.292,6.498 C120.292,6.560 120.292,6.621 120.292,6.682 C120.333,6.702 120.373,6.723 120.414,6.743 C120.434,6.825 120.455,6.906 120.475,6.988 C120.495,6.988 120.516,6.988 120.536,6.988 C120.536,7.029 120.536,7.070 120.536,7.110 C120.556,7.110 120.577,7.110 120.597,7.110 C120.638,7.233 120.678,7.355 120.719,7.478 C120.739,7.478 120.760,7.478 120.780,7.478 C120.780,7.539 120.780,7.600 120.780,7.661 C120.821,7.682 120.861,7.702 120.902,7.723 C120.902,7.784 120.902,7.845 120.902,7.906 C120.922,7.906 120.943,7.906 120.963,7.906 C120.963,7.947 120.963,7.988 120.963,8.029 C120.983,8.029 121.004,8.029 121.024,8.029 C121.044,8.151 121.065,8.274 121.085,8.396 C121.105,8.396 121.126,8.396 121.146,8.396 C121.146,8.437 121.146,8.478 121.146,8.518 C121.166,8.518 121.187,8.518 121.207,8.518 C121.207,8.580 121.207,8.641 121.207,8.702 C121.227,8.702 121.248,8.702 121.268,8.702 C121.268,8.784 121.268,8.865 121.268,8.947 C121.288,8.947 121.309,8.947 121.329,8.947 C121.329,8.988 121.329,9.029 121.329,9.069 C121.349,9.069 121.370,9.069 121.390,9.069 C121.390,9.171 121.390,9.273 121.390,9.375 C121.410,9.375 121.431,9.375 121.451,9.375 C121.451,9.416 121.451,9.457 121.451,9.498 C121.471,9.498 121.492,9.498 121.512,9.498 C121.512,9.600 121.512,9.702 121.512,9.804 C121.532,9.804 121.553,9.804 121.573,9.804 C121.573,9.886 121.573,9.967 121.573,10.049 C121.593,10.049 121.614,10.049 121.634,10.049 C121.634,10.130 121.634,10.212 121.634,10.294 C121.654,10.294 121.675,10.294 121.695,10.294 C121.695,10.436 121.695,10.579 121.695,10.722 C121.715,10.722 121.736,10.722 121.756,10.722 C121.756,10.824 121.756,10.926 121.756,11.028 C121.776,11.028 121.797,11.028 121.817,11.028 C121.817,11.191 121.817,11.355 121.817,11.518 C121.837,11.518 121.858,11.518 121.878,11.518 C121.878,11.783 121.878,12.048 121.878,12.314 C121.898,12.314 121.919,12.314 121.939,12.314 C121.939,12.355 121.939,12.395 121.939,12.436 C121.959,12.436 121.980,12.436 122.000,12.436 C122.000,13.007 122.000,13.579 122.000,14.150 C121.980,14.150 121.959,14.150 121.939,14.150 C121.939,14.211 121.939,14.273 121.939,14.334 C121.919,14.334 121.898,14.334 121.878,14.334 C121.858,14.762 121.837,15.191 121.817,15.619 C121.797,15.619 121.776,15.619 121.756,15.619 C121.736,15.864 121.715,16.109 121.695,16.354 C121.675,16.354 121.654,16.354 121.634,16.354 C121.614,16.538 121.593,16.721 121.573,16.905 C121.553,16.905 121.532,16.905 121.512,16.905 C121.512,16.986 121.512,17.068 121.512,17.150 C121.492,17.150 121.471,17.150 121.451,17.150 C121.451,17.211 121.451,17.272 121.451,17.333 C121.431,17.333 121.410,17.333 121.390,17.333 C121.390,17.415 121.390,17.497 121.390,17.578 C121.370,17.578 121.349,17.578 121.329,17.578 C121.329,17.639 121.329,17.701 121.329,17.762 C121.309,17.762 121.288,17.762 121.268,17.762 C121.268,17.823 121.268,17.884 121.268,17.945 C121.248,17.945 121.227,17.945 121.207,17.945 C121.207,18.007 121.207,18.068 121.207,18.129 C121.187,18.129 121.166,18.129 121.146,18.129 C121.146,18.170 121.146,18.211 121.146,18.252 C121.126,18.252 121.105,18.252 121.085,18.252 C121.085,18.333 121.085,18.415 121.085,18.496 C121.065,18.496 121.044,18.496 121.024,18.496 C121.004,18.578 120.983,18.660 120.963,18.741 C120.943,18.741 120.922,18.741 120.902,18.741 C120.902,18.802 120.902,18.864 120.902,18.925 C120.882,18.925 120.861,18.925 120.841,18.925 C120.841,18.966 120.841,19.007 120.841,19.047 C120.821,19.047 120.800,19.047 120.780,19.047 C120.719,19.231 120.658,19.415 120.597,19.598 C120.556,19.619 120.516,19.639 120.475,19.659 C120.475,19.721 120.475,19.782 120.475,19.843 C120.434,19.864 120.394,19.884 120.353,19.904 C120.333,19.986 120.312,20.068 120.292,20.149 C120.251,20.170 120.211,20.190 120.170,20.210 C120.150,20.292 120.129,20.374 120.109,20.455 C120.068,20.476 120.028,20.496 119.987,20.516 C119.987,20.557 119.987,20.598 119.987,20.639 C119.967,20.639 119.946,20.639 119.926,20.639 C119.926,20.680 119.926,20.721 119.926,20.761 C119.885,20.782 119.845,20.802 119.804,20.823 C119.804,20.863 119.804,20.904 119.804,20.945 C119.763,20.965 119.723,20.986 119.682,21.006 C119.682,21.047 119.682,21.088 119.682,21.129 C119.621,21.169 119.560,21.210 119.499,21.251 C119.499,21.292 119.499,21.333 119.499,21.374 C119.418,21.435 119.336,21.496 119.255,21.557 C119.255,21.598 119.255,21.639 119.255,21.680 C119.194,21.720 119.133,21.761 119.072,21.802 C119.072,21.843 119.072,21.884 119.072,21.924 C118.828,22.149 118.584,22.373 118.340,22.598 C118.096,22.863 117.852,23.128 117.608,23.394 C117.567,23.394 117.527,23.394 117.486,23.394 C117.425,23.475 117.364,23.557 117.303,23.638 C117.262,23.638 117.222,23.638 117.181,23.638 C117.140,23.700 117.100,23.761 117.059,23.822 C117.018,23.822 116.978,23.822 116.937,23.822 C116.896,23.883 116.856,23.945 116.815,24.006 C116.774,24.006 116.734,24.006 116.693,24.006 C116.673,24.047 116.652,24.087 116.632,24.128 C116.591,24.128 116.551,24.128 116.510,24.128 C116.469,24.189 116.429,24.251 116.388,24.312 C116.347,24.312 116.307,24.312 116.266,24.312 C116.246,24.353 116.225,24.393 116.205,24.434 C116.124,24.455 116.042,24.475 115.961,24.495 C115.941,24.536 115.920,24.577 115.900,24.618 C115.778,24.659 115.656,24.700 115.534,24.740 C115.514,24.781 115.493,24.822 115.473,24.863 C115.392,24.883 115.310,24.904 115.229,24.924 C115.229,24.944 115.229,24.965 115.229,24.985 C115.188,24.985 115.148,24.985 115.107,24.985 C115.107,25.006 115.107,25.026 115.107,25.046 C114.985,25.087 114.863,25.128 114.741,25.169 C114.741,25.189 114.741,25.210 114.741,25.230 C114.680,25.230 114.619,25.230 114.558,25.230 C114.538,25.271 114.517,25.312 114.497,25.352 C114.436,25.352 114.375,25.352 114.314,25.352 C114.314,25.373 114.314,25.393 114.314,25.414 C114.233,25.434 114.151,25.454 114.070,25.475 C114.070,25.495 114.070,25.516 114.070,25.536 C113.948,25.557 113.826,25.577 113.704,25.597 C113.704,25.618 113.704,25.638 113.704,25.659 C113.663,25.659 113.623,25.659 113.582,25.659 C113.582,25.679 113.582,25.699 113.582,25.720 C113.501,25.720 113.419,25.720 113.338,25.720 C113.338,25.740 113.338,25.761 113.338,25.781 C113.297,25.781 113.257,25.781 113.216,25.781 C113.216,25.801 113.216,25.822 113.216,25.842 C113.074,25.863 112.931,25.883 112.789,25.903 C112.789,25.924 112.789,25.944 112.789,25.965 C112.748,25.965 112.708,25.965 112.667,25.965 C112.667,25.985 112.667,26.005 112.667,26.026 C112.565,26.026 112.464,26.026 112.362,26.026 C112.362,26.046 112.362,26.067 112.362,26.087 C112.301,26.087 112.240,26.087 112.179,26.087 C112.179,26.107 112.179,26.128 112.179,26.148 C112.077,26.148 111.976,26.148 111.874,26.148 C111.874,26.169 111.874,26.189 111.874,26.209 C111.793,26.209 111.711,26.209 111.630,26.209 C111.630,26.230 111.630,26.250 111.630,26.271 C111.549,26.271 111.467,26.271 111.386,26.271 C111.386,26.291 111.386,26.311 111.386,26.332 C111.142,26.352 110.898,26.373 110.654,26.393 C110.654,26.414 110.654,26.434 110.654,26.454 C110.288,26.475 109.922,26.495 109.556,26.516 C109.536,26.556 109.515,26.597 109.495,26.638 C108.499,26.638 107.502,26.638 106.506,26.638 C106.262,26.638 106.018,26.638 105.774,26.638 C105.774,26.618 105.774,26.597 105.774,26.577 C105.733,26.577 105.693,26.577 105.652,26.577 C105.652,26.556 105.652,26.536 105.652,26.516 C105.469,26.516 105.286,26.516 105.103,26.516 C105.103,26.495 105.103,26.475 105.103,26.454 C104.940,26.454 104.778,26.454 104.615,26.454 C104.615,26.434 104.615,26.414 104.615,26.393 C104.371,26.373 104.127,26.352 103.883,26.332 C103.883,26.311 103.883,26.291 103.883,26.271 C103.802,26.271 103.720,26.271 103.639,26.271 C103.639,26.250 103.639,26.230 103.639,26.209 C103.558,26.209 103.476,26.209 103.395,26.209 C103.395,26.189 103.395,26.169 103.395,26.148 C103.293,26.148 103.192,26.148 103.090,26.148 C103.090,26.128 103.090,26.107 103.090,26.087 C103.049,26.087 103.009,26.087 102.968,26.087 C102.968,26.067 102.968,26.046 102.968,26.026 C102.866,26.026 102.765,26.026 102.663,26.026 C102.663,26.005 102.663,25.985 102.663,25.965 C102.602,25.965 102.541,25.965 102.480,25.965 C102.480,25.944 102.480,25.924 102.480,25.903 C102.419,25.903 102.358,25.903 102.297,25.903 C102.297,25.883 102.297,25.863 102.297,25.842 C102.236,25.842 102.175,25.842 102.114,25.842 C102.114,25.822 102.114,25.801 102.114,25.781 C101.992,25.761 101.870,25.740 101.748,25.720 C101.748,25.699 101.748,25.679 101.748,25.659 C101.707,25.659 101.667,25.659 101.626,25.659 C101.626,25.638 101.626,25.618 101.626,25.597 C101.504,25.577 101.382,25.557 101.260,25.536 C101.260,25.516 101.260,25.495 101.260,25.475 C101.138,25.434 101.016,25.393 100.894,25.352 C100.894,25.332 100.894,25.312 100.894,25.291 C100.853,25.291 100.813,25.291 100.772,25.291 C100.772,25.271 100.772,25.250 100.772,25.230 C100.711,25.230 100.650,25.230 100.589,25.230 C100.569,25.189 100.548,25.148 100.528,25.108 C100.426,25.087 100.325,25.067 100.223,25.046 C100.203,25.006 100.182,24.965 100.162,24.924 C100.101,24.924 100.040,24.924 99.979,24.924 C99.959,24.883 99.938,24.842 99.918,24.802 C99.837,24.781 99.755,24.761 99.674,24.740 C99.674,24.720 99.674,24.700 99.674,24.679 C99.613,24.659 99.552,24.638 99.491,24.618 C99.471,24.577 99.450,24.536 99.430,24.495 C99.389,24.495 99.349,24.495 99.308,24.495 C99.288,24.455 99.267,24.414 99.247,24.373 C99.206,24.373 99.166,24.373 99.125,24.373 C99.125,24.353 99.125,24.332 99.125,24.312 C99.064,24.291 99.003,24.271 98.942,24.251 C98.922,24.210 98.901,24.169 98.881,24.128 C98.840,24.128 98.800,24.128 98.759,24.128 C98.698,24.047 98.637,23.965 98.576,23.883 C98.535,23.883 98.495,23.883 98.454,23.883 C98.413,23.822 98.373,23.761 98.332,23.700 C98.291,23.700 98.251,23.700 98.210,23.700 C98.088,23.557 97.966,23.414 97.844,23.271 C97.671,23.099 97.430,23.060 97.356,22.781 ZM-0.000,0.316 C10.918,0.316 21.839,0.316 32.757,0.316 C32.757,1.927 32.757,3.540 32.757,5.152 C22.266,5.152 11.772,5.152 1.281,5.152 C1.261,5.090 1.240,5.029 1.220,4.968 C1.070,4.807 1.173,4.710 1.098,4.478 C1.078,4.478 1.057,4.478 1.037,4.478 C1.037,4.397 1.037,4.315 1.037,4.233 C1.017,4.233 0.996,4.233 0.976,4.233 C0.976,4.172 0.976,4.111 0.976,4.050 C0.956,4.050 0.935,4.050 0.915,4.050 C0.915,3.948 0.915,3.846 0.915,3.744 C0.895,3.744 0.874,3.744 0.854,3.744 C0.854,3.682 0.854,3.621 0.854,3.560 C0.834,3.560 0.813,3.560 0.793,3.560 C0.752,3.336 0.712,3.111 0.671,2.887 C0.651,2.887 0.630,2.887 0.610,2.887 C0.610,2.785 0.610,2.683 0.610,2.581 C0.590,2.581 0.569,2.581 0.549,2.581 C0.549,2.519 0.549,2.458 0.549,2.397 C0.529,2.397 0.508,2.397 0.488,2.397 C0.468,2.213 0.447,2.030 0.427,1.846 C0.407,1.846 0.386,1.846 0.366,1.846 C0.366,1.785 0.366,1.724 0.366,1.662 C0.346,1.662 0.325,1.662 0.305,1.662 C0.305,1.560 0.305,1.458 0.305,1.356 C0.285,1.356 0.264,1.356 0.244,1.356 C0.224,1.213 0.203,1.071 0.183,0.928 C0.163,0.928 0.142,0.928 0.122,0.928 C0.122,0.846 0.122,0.765 0.122,0.683 C0.081,0.663 0.041,0.642 -0.000,0.622 C-0.000,0.520 -0.000,0.418 -0.000,0.316 ZM42.273,0.316 C42.352,0.849 42.273,1.851 42.273,2.581 C42.273,4.172 42.273,5.764 42.273,7.355 C42.273,12.252 42.273,17.150 42.273,22.047 C42.614,22.171 43.233,22.108 43.676,22.108 C44.652,22.108 45.628,22.108 46.604,22.108 C49.877,22.108 53.152,22.108 56.425,22.108 C56.544,22.434 56.486,23.027 56.486,23.455 C56.486,24.393 56.486,25.332 56.486,26.271 C56.007,26.446 55.127,26.332 54.534,26.332 C53.131,26.332 51.728,26.332 50.325,26.332 C45.567,26.332 40.809,26.332 36.051,26.332 C35.877,25.853 35.990,24.522 35.990,23.883 C35.990,22.108 35.990,20.333 35.990,18.558 C35.990,12.498 35.990,6.437 35.990,0.377 C36.469,0.201 37.349,0.316 37.942,0.316 C39.386,0.316 40.829,0.316 42.273,0.316 ZM102.480,20.884 C102.700,20.944 102.812,21.120 102.968,21.251 C102.968,21.271 102.968,21.292 102.968,21.312 C103.009,21.312 103.049,21.312 103.090,21.312 C103.131,21.373 103.171,21.435 103.212,21.496 C103.253,21.496 103.293,21.496 103.334,21.496 C103.354,21.537 103.375,21.578 103.395,21.618 C103.476,21.639 103.558,21.659 103.639,21.680 C103.659,21.720 103.680,21.761 103.700,21.802 C103.781,21.822 103.863,21.843 103.944,21.863 C103.944,21.884 103.944,21.904 103.944,21.924 C103.985,21.924 104.025,21.924 104.066,21.924 C104.066,21.945 104.066,21.965 104.066,21.986 C104.188,22.026 104.310,22.067 104.432,22.108 C104.432,22.128 104.432,22.149 104.432,22.169 C104.493,22.169 104.554,22.169 104.615,22.169 C104.615,22.190 104.615,22.210 104.615,22.231 C104.656,22.231 104.696,22.231 104.737,22.231 C104.737,22.251 104.737,22.271 104.737,22.292 C104.818,22.292 104.900,22.292 104.981,22.292 C104.981,22.312 104.981,22.333 104.981,22.353 C105.022,22.353 105.062,22.353 105.103,22.353 C105.103,22.373 105.103,22.394 105.103,22.414 C105.184,22.414 105.266,22.414 105.347,22.414 C105.347,22.435 105.347,22.455 105.347,22.475 C105.428,22.475 105.510,22.475 105.591,22.475 C105.591,22.496 105.591,22.516 105.591,22.537 C105.672,22.537 105.754,22.537 105.835,22.537 C105.835,22.557 105.835,22.577 105.835,22.598 C105.977,22.598 106.120,22.598 106.262,22.598 C107.498,22.956 109.420,22.658 110.349,22.292 C110.430,22.292 110.512,22.292 110.593,22.292 C110.593,22.271 110.593,22.251 110.593,22.231 C110.634,22.231 110.674,22.231 110.715,22.231 C110.715,22.210 110.715,22.190 110.715,22.169 C110.837,22.149 110.959,22.128 111.081,22.108 C111.101,22.067 111.122,22.026 111.142,21.986 C111.203,21.986 111.264,21.986 111.325,21.986 C111.325,21.965 111.325,21.945 111.325,21.924 C111.366,21.924 111.406,21.924 111.447,21.924 C111.467,21.884 111.488,21.843 111.508,21.802 C111.569,21.802 111.630,21.802 111.691,21.802 C111.711,21.761 111.732,21.720 111.752,21.680 C111.833,21.659 111.915,21.639 111.996,21.618 C111.996,21.598 111.996,21.578 111.996,21.557 C112.057,21.537 112.118,21.516 112.179,21.496 C112.199,21.455 112.220,21.414 112.240,21.374 C112.281,21.374 112.321,21.374 112.362,21.374 C112.382,21.333 112.403,21.292 112.423,21.251 C112.464,21.251 112.504,21.251 112.545,21.251 C112.586,21.190 112.626,21.129 112.667,21.067 C112.708,21.067 112.748,21.067 112.789,21.067 C112.891,20.945 112.992,20.823 113.094,20.700 C113.135,20.700 113.175,20.700 113.216,20.700 C113.236,20.659 113.257,20.619 113.277,20.578 C113.358,20.517 113.440,20.455 113.521,20.394 C113.521,20.353 113.521,20.312 113.521,20.272 C113.602,20.210 113.684,20.149 113.765,20.088 C113.765,20.047 113.765,20.006 113.765,19.966 C113.826,19.925 113.887,19.884 113.948,19.843 C113.968,19.762 113.989,19.680 114.009,19.598 C114.050,19.578 114.090,19.557 114.131,19.537 C114.131,19.496 114.131,19.455 114.131,19.415 C114.172,19.394 114.212,19.374 114.253,19.353 C114.273,19.272 114.294,19.190 114.314,19.109 C114.334,19.109 114.355,19.109 114.375,19.109 C114.395,19.027 114.416,18.945 114.436,18.864 C114.456,18.864 114.477,18.864 114.497,18.864 C114.497,18.802 114.497,18.741 114.497,18.680 C114.517,18.680 114.538,18.680 114.558,18.680 C114.558,18.639 114.558,18.598 114.558,18.558 C114.578,18.558 114.599,18.558 114.619,18.558 C114.619,18.496 114.619,18.435 114.619,18.374 C114.639,18.374 114.660,18.374 114.680,18.374 C114.680,18.333 114.680,18.292 114.680,18.252 C114.700,18.252 114.721,18.252 114.741,18.252 C114.741,18.190 114.741,18.129 114.741,18.068 C114.761,18.068 114.782,18.068 114.802,18.068 C114.802,18.007 114.802,17.945 114.802,17.884 C114.822,17.884 114.843,17.884 114.863,17.884 C114.863,17.823 114.863,17.762 114.863,17.701 C114.883,17.701 114.904,17.701 114.924,17.701 C114.924,17.599 114.924,17.497 114.924,17.395 C114.944,17.395 114.965,17.395 114.985,17.395 C114.985,17.333 114.985,17.272 114.985,17.211 C115.005,17.211 115.026,17.211 115.046,17.211 C115.046,17.109 115.046,17.007 115.046,16.905 C115.066,16.905 115.087,16.905 115.107,16.905 C115.127,16.721 115.148,16.538 115.168,16.354 C115.188,16.354 115.209,16.354 115.229,16.354 C115.270,15.762 115.310,15.170 115.351,14.579 C115.488,14.081 115.490,12.566 115.351,12.069 C115.351,11.824 115.351,11.579 115.351,11.334 C115.331,11.334 115.310,11.334 115.290,11.334 C115.290,11.212 115.290,11.089 115.290,10.967 C115.270,10.967 115.249,10.967 115.229,10.967 C115.229,10.783 115.229,10.600 115.229,10.416 C115.209,10.416 115.188,10.416 115.168,10.416 C115.148,10.232 115.127,10.049 115.107,9.865 C115.087,9.865 115.066,9.865 115.046,9.865 C115.046,9.784 115.046,9.702 115.046,9.620 C115.026,9.620 115.005,9.620 114.985,9.620 C114.985,9.539 114.985,9.457 114.985,9.375 C114.965,9.375 114.944,9.375 114.924,9.375 C114.924,9.294 114.924,9.212 114.924,9.131 C114.904,9.131 114.883,9.131 114.863,9.131 C114.863,9.069 114.863,9.008 114.863,8.947 C114.843,8.947 114.822,8.947 114.802,8.947 C114.802,8.886 114.802,8.824 114.802,8.763 C114.782,8.763 114.761,8.763 114.741,8.763 C114.741,8.702 114.741,8.641 114.741,8.580 C114.721,8.580 114.700,8.580 114.680,8.580 C114.680,8.539 114.680,8.498 114.680,8.457 C114.660,8.457 114.639,8.457 114.619,8.457 C114.619,8.376 114.619,8.294 114.619,8.212 C114.578,8.192 114.538,8.172 114.497,8.151 C114.497,8.090 114.497,8.029 114.497,7.967 C114.477,7.967 114.456,7.967 114.436,7.967 C114.416,7.886 114.395,7.804 114.375,7.723 C114.355,7.723 114.334,7.723 114.314,7.723 C114.314,7.661 114.314,7.600 114.314,7.539 C114.273,7.519 114.233,7.498 114.192,7.478 C114.192,7.437 114.192,7.396 114.192,7.355 C114.172,7.355 114.151,7.355 114.131,7.355 C114.090,7.233 114.050,7.110 114.009,6.988 C113.968,6.968 113.928,6.947 113.887,6.927 C113.887,6.886 113.887,6.845 113.887,6.804 C113.826,6.764 113.765,6.723 113.704,6.682 C113.704,6.641 113.704,6.600 113.704,6.560 C113.663,6.539 113.623,6.519 113.582,6.498 C113.582,6.458 113.582,6.417 113.582,6.376 C113.521,6.335 113.460,6.294 113.399,6.253 C113.399,6.213 113.399,6.172 113.399,6.131 C113.053,5.805 112.708,5.478 112.362,5.152 C112.321,5.152 112.281,5.152 112.240,5.152 C112.220,5.111 112.199,5.070 112.179,5.029 C112.138,5.029 112.098,5.029 112.057,5.029 C112.057,5.009 112.057,4.988 112.057,4.968 C112.016,4.968 111.976,4.968 111.935,4.968 C111.915,4.927 111.894,4.886 111.874,4.846 C111.793,4.825 111.711,4.805 111.630,4.784 C111.610,4.744 111.589,4.703 111.569,4.662 C111.508,4.662 111.447,4.662 111.386,4.662 C111.366,4.621 111.345,4.580 111.325,4.539 C111.203,4.519 111.081,4.499 110.959,4.478 C110.959,4.458 110.959,4.437 110.959,4.417 C110.918,4.417 110.878,4.417 110.837,4.417 C110.837,4.397 110.837,4.376 110.837,4.356 C110.756,4.356 110.674,4.356 110.593,4.356 C110.593,4.335 110.593,4.315 110.593,4.295 C110.552,4.295 110.512,4.295 110.471,4.295 C110.471,4.274 110.471,4.254 110.471,4.233 C110.390,4.233 110.308,4.233 110.227,4.233 C110.227,4.213 110.227,4.193 110.227,4.172 C110.146,4.172 110.064,4.172 109.983,4.172 C109.983,4.152 109.983,4.131 109.983,4.111 C109.902,4.111 109.820,4.111 109.739,4.111 C109.739,4.091 109.739,4.070 109.739,4.050 C109.597,4.050 109.454,4.050 109.312,4.050 C109.312,4.029 109.312,4.009 109.312,3.989 C109.170,3.989 109.027,3.989 108.885,3.989 C108.885,3.968 108.885,3.948 108.885,3.927 C108.641,3.927 108.397,3.927 108.153,3.927 C107.493,3.927 106.818,3.907 106.323,4.050 C106.160,4.050 105.998,4.050 105.835,4.050 C105.306,4.213 104.778,4.376 104.249,4.539 C104.229,4.580 104.208,4.621 104.188,4.662 C104.127,4.662 104.066,4.662 104.005,4.662 C104.005,4.682 104.005,4.703 104.005,4.723 C103.964,4.723 103.924,4.723 103.883,4.723 C103.863,4.764 103.842,4.805 103.822,4.846 C103.761,4.846 103.700,4.846 103.639,4.846 C103.639,4.866 103.639,4.886 103.639,4.907 C103.578,4.927 103.517,4.948 103.456,4.968 C103.436,5.009 103.415,5.050 103.395,5.090 C103.354,5.090 103.314,5.090 103.273,5.090 C103.253,5.131 103.232,5.172 103.212,5.213 C103.171,5.213 103.131,5.213 103.090,5.213 C103.029,5.294 102.968,5.376 102.907,5.458 C102.866,5.458 102.826,5.458 102.785,5.458 C102.683,5.580 102.582,5.703 102.480,5.825 C102.338,5.947 102.195,6.070 102.053,6.192 C102.053,6.233 102.053,6.274 102.053,6.315 C101.972,6.376 101.890,6.437 101.809,6.498 C101.809,6.539 101.809,6.580 101.809,6.621 C101.768,6.641 101.728,6.662 101.687,6.682 C101.687,6.723 101.687,6.764 101.687,6.804 C101.646,6.825 101.606,6.845 101.565,6.866 C101.545,6.947 101.524,7.029 101.504,7.110 C101.463,7.131 101.423,7.151 101.382,7.172 C101.362,7.253 101.341,7.335 101.321,7.417 C101.301,7.417 101.280,7.417 101.260,7.417 C101.219,7.539 101.179,7.661 101.138,7.784 C101.118,7.784 101.097,7.784 101.077,7.784 C101.077,7.845 101.077,7.906 101.077,7.967 C101.036,7.988 100.996,8.008 100.955,8.029 C100.935,8.151 100.914,8.274 100.894,8.396 C100.874,8.396 100.853,8.396 100.833,8.396 C100.833,8.437 100.833,8.478 100.833,8.518 C100.813,8.518 100.792,8.518 100.772,8.518 C100.772,8.600 100.772,8.682 100.772,8.763 C100.752,8.763 100.731,8.763 100.711,8.763 C100.711,8.804 100.711,8.845 100.711,8.886 C100.691,8.886 100.670,8.886 100.650,8.886 C100.650,8.967 100.650,9.049 100.650,9.131 C100.630,9.131 100.609,9.131 100.589,9.131 C100.569,9.273 100.548,9.416 100.528,9.559 C100.508,9.559 100.487,9.559 100.467,9.559 C100.467,9.681 100.467,9.804 100.467,9.926 C100.447,9.926 100.426,9.926 100.406,9.926 C100.406,9.988 100.406,10.049 100.406,10.110 C100.386,10.110 100.365,10.110 100.345,10.110 C100.345,10.232 100.345,10.355 100.345,10.477 C100.325,10.477 100.304,10.477 100.284,10.477 C100.284,10.641 100.284,10.804 100.284,10.967 C100.264,10.967 100.243,10.967 100.223,10.967 C100.223,11.089 100.223,11.212 100.223,11.334 C100.203,11.334 100.182,11.334 100.162,11.334 C100.162,11.702 100.162,12.069 100.162,12.436 C100.142,12.436 100.121,12.436 100.101,12.436 C100.014,12.749 100.097,14.101 100.162,14.334 C100.162,14.681 100.162,15.028 100.162,15.374 C100.182,15.374 100.203,15.374 100.223,15.374 C100.223,15.497 100.223,15.619 100.223,15.742 C100.243,15.742 100.264,15.742 100.284,15.742 C100.284,15.905 100.284,16.068 100.284,16.231 C100.304,16.231 100.325,16.231 100.345,16.231 C100.345,16.333 100.345,16.436 100.345,16.538 C100.365,16.538 100.386,16.538 100.406,16.538 C100.406,16.619 100.406,16.701 100.406,16.782 C100.426,16.782 100.447,16.782 100.467,16.782 C100.467,16.884 100.467,16.986 100.467,17.088 C100.487,17.088 100.508,17.088 100.528,17.088 C100.528,17.150 100.528,17.211 100.528,17.272 C100.548,17.272 100.569,17.272 100.589,17.272 C100.589,17.354 100.589,17.435 100.589,17.517 C100.609,17.517 100.630,17.517 100.650,17.517 C100.650,17.599 100.650,17.680 100.650,17.762 C100.670,17.762 100.691,17.762 100.711,17.762 C100.711,17.803 100.711,17.843 100.711,17.884 C100.731,17.884 100.752,17.884 100.772,17.884 C100.772,17.966 100.772,18.048 100.772,18.129 C100.792,18.129 100.813,18.129 100.833,18.129 C100.833,18.170 100.833,18.211 100.833,18.252 C100.853,18.252 100.874,18.252 100.894,18.252 C100.894,18.313 100.894,18.374 100.894,18.435 C100.914,18.435 100.935,18.435 100.955,18.435 C100.975,18.517 100.996,18.598 101.016,18.680 C101.036,18.680 101.057,18.680 101.077,18.680 C101.077,18.741 101.077,18.802 101.077,18.864 C101.118,18.884 101.158,18.905 101.199,18.925 C101.219,19.027 101.240,19.129 101.260,19.231 C101.301,19.251 101.341,19.272 101.382,19.292 C101.402,19.374 101.423,19.455 101.443,19.537 C101.463,19.537 101.484,19.537 101.504,19.537 C101.524,19.598 101.545,19.659 101.565,19.721 C101.606,19.741 101.646,19.762 101.687,19.782 C101.687,19.823 101.687,19.864 101.687,19.904 C101.728,19.925 101.768,19.945 101.809,19.966 C101.809,20.006 101.809,20.047 101.809,20.088 C101.870,20.129 101.931,20.170 101.992,20.210 C101.992,20.251 101.992,20.292 101.992,20.333 C102.033,20.353 102.073,20.374 102.114,20.394 C102.248,20.536 102.421,20.672 102.480,20.884 ZM7.259,7.355 C15.757,7.355 24.259,7.355 32.757,7.355 C32.757,8.947 32.757,10.539 32.757,12.130 C24.665,12.130 16.571,12.130 8.479,12.130 C8.428,12.061 8.487,12.121 8.418,12.069 C8.032,10.498 7.645,8.926 7.259,7.355 ZM14.640,14.517 C20.678,14.517 26.719,14.517 32.757,14.517 C32.757,16.109 32.757,17.701 32.757,19.292 C27.125,19.292 21.492,19.292 15.860,19.292 C15.809,19.223 15.868,19.283 15.799,19.231 C15.413,17.660 15.026,16.088 14.640,14.517 ZM32.757,26.148 C29.585,26.148 26.413,26.148 23.241,26.148 C23.190,26.079 23.249,26.139 23.180,26.087 C22.794,24.516 22.407,22.945 22.021,21.374 C23.060,21.188 24.524,21.312 25.681,21.312 C28.019,21.312 30.358,21.312 32.696,21.312 C32.832,21.684 32.757,22.365 32.757,22.843 C32.757,23.944 32.757,25.046 32.757,26.148 ZM37.271,31.719 C37.657,31.719 38.044,31.719 38.430,31.719 C38.598,32.181 38.491,33.207 38.491,33.800 C38.491,35.330 38.491,36.861 38.491,38.391 C38.084,38.391 37.678,38.391 37.271,38.391 C37.271,36.167 37.271,33.943 37.271,31.719 ZM44.286,31.719 C44.632,31.719 44.977,31.719 45.323,31.719 C45.426,31.997 45.387,32.506 45.384,32.882 C45.194,33.015 45.256,33.125 45.140,33.310 C45.099,33.331 45.059,33.351 45.018,33.372 C45.018,33.412 45.018,33.453 45.018,33.494 C44.998,33.494 44.977,33.494 44.957,33.494 C44.957,33.535 44.957,33.576 44.957,33.616 C44.937,33.616 44.916,33.616 44.896,33.616 C44.896,33.657 44.896,33.698 44.896,33.739 C44.855,33.759 44.815,33.780 44.774,33.800 C44.774,33.841 44.774,33.882 44.774,33.923 C44.754,33.923 44.733,33.923 44.713,33.923 C44.713,33.963 44.713,34.004 44.713,34.045 C44.693,34.045 44.672,34.045 44.652,34.045 C44.594,34.109 44.660,34.054 44.591,34.106 C44.591,34.127 44.591,34.147 44.591,34.167 C44.489,34.167 44.388,34.167 44.286,34.167 C44.326,33.695 44.671,33.299 44.774,32.821 C44.611,32.821 44.449,32.821 44.286,32.821 C44.286,32.453 44.286,32.086 44.286,31.719 ZM61.488,31.719 C61.854,31.719 62.220,31.719 62.586,31.719 C62.586,33.943 62.586,36.167 62.586,38.391 C62.220,38.391 61.854,38.391 61.488,38.391 C61.488,36.167 61.488,33.943 61.488,31.719 ZM64.477,31.719 C64.843,31.719 65.209,31.719 65.575,31.719 C65.575,33.943 65.575,36.167 65.575,38.391 C65.209,38.391 64.843,38.391 64.477,38.391 C64.477,36.167 64.477,33.943 64.477,31.719 ZM70.638,31.719 C71.004,31.719 71.370,31.719 71.736,31.719 C71.736,32.106 71.736,32.494 71.736,32.882 C71.370,32.882 71.004,32.882 70.638,32.882 C70.638,32.494 70.638,32.106 70.638,31.719 ZM85.644,31.719 C86.010,31.719 86.376,31.719 86.742,31.719 C86.742,33.943 86.742,36.167 86.742,38.391 C86.396,38.391 86.051,38.391 85.705,38.391 C85.705,38.085 85.705,37.779 85.705,37.473 C85.685,37.473 85.664,37.473 85.644,37.473 C85.644,37.514 85.644,37.555 85.644,37.595 C85.525,37.703 85.592,37.736 85.522,37.840 C85.461,37.881 85.400,37.922 85.339,37.963 C85.339,38.004 85.339,38.044 85.339,38.085 C85.278,38.106 85.217,38.126 85.156,38.146 C85.115,38.208 85.075,38.269 85.034,38.330 C84.993,38.330 84.953,38.330 84.912,38.330 C84.912,38.350 84.912,38.371 84.912,38.391 C84.814,38.435 84.214,38.559 84.058,38.514 C84.058,38.493 84.058,38.473 84.058,38.452 C83.956,38.452 83.855,38.452 83.753,38.452 C83.753,38.432 83.753,38.412 83.753,38.391 C83.692,38.391 83.631,38.391 83.570,38.391 C83.570,38.371 83.570,38.350 83.570,38.330 C83.529,38.330 83.489,38.330 83.448,38.330 C83.448,38.310 83.448,38.289 83.448,38.269 C83.407,38.269 83.367,38.269 83.326,38.269 C83.285,38.208 83.245,38.146 83.204,38.085 C83.102,38.004 83.001,37.922 82.899,37.840 C82.673,37.518 82.530,36.974 82.411,36.555 C82.411,36.269 82.411,35.983 82.411,35.698 C82.414,34.788 82.836,33.841 83.387,33.494 C83.428,33.494 83.468,33.494 83.509,33.494 C83.509,33.474 83.509,33.453 83.509,33.433 C83.550,33.433 83.590,33.433 83.631,33.433 C83.631,33.412 83.631,33.392 83.631,33.372 C83.692,33.372 83.753,33.372 83.814,33.372 C84.610,33.078 85.305,33.430 85.583,34.045 C85.603,34.045 85.624,34.045 85.644,34.045 C85.644,33.270 85.644,32.494 85.644,31.719 ZM94.550,31.719 C94.916,31.719 95.282,31.719 95.648,31.719 C95.648,33.943 95.648,36.167 95.648,38.391 C95.282,38.391 94.916,38.391 94.550,38.391 C94.550,36.167 94.550,33.943 94.550,31.719 ZM97.539,31.719 C97.905,31.719 98.271,31.719 98.637,31.719 C98.637,32.106 98.637,32.494 98.637,32.882 C98.271,32.882 97.905,32.882 97.539,32.882 C97.539,32.494 97.539,32.106 97.539,31.719 ZM41.724,33.494 C42.049,33.494 42.375,33.494 42.700,33.494 C42.700,33.780 42.700,34.065 42.700,34.351 C42.375,34.351 42.049,34.351 41.724,34.351 C41.724,35.065 41.724,35.779 41.724,36.494 C41.724,36.959 41.668,37.230 41.968,37.412 C42.116,37.564 42.456,37.541 42.761,37.534 C42.761,37.820 42.761,38.106 42.761,38.391 C42.531,38.436 42.025,38.605 41.724,38.514 C41.541,38.452 41.358,38.391 41.175,38.330 C41.073,38.208 40.972,38.085 40.870,37.963 C40.850,37.963 40.829,37.963 40.809,37.963 C40.789,37.881 40.768,37.799 40.748,37.718 C40.728,37.718 40.707,37.718 40.687,37.718 C40.687,37.636 40.687,37.555 40.687,37.473 C40.613,37.242 40.626,36.935 40.626,36.616 C40.626,35.861 40.626,35.106 40.626,34.351 C40.423,34.351 40.219,34.351 40.016,34.351 C40.016,34.065 40.016,33.780 40.016,33.494 C40.240,33.494 40.463,33.494 40.687,33.494 C40.707,33.066 40.728,32.637 40.748,32.209 C40.943,32.170 41.569,32.080 41.663,32.147 C41.786,32.284 41.729,33.208 41.724,33.494 ZM113.826,33.310 C113.826,33.718 113.826,34.127 113.826,34.535 C113.684,34.535 113.541,34.535 113.399,34.535 C113.264,34.579 113.142,34.679 112.972,34.718 C112.911,34.800 112.850,34.882 112.789,34.963 C112.769,34.963 112.748,34.963 112.728,34.963 C112.728,35.004 112.728,35.045 112.728,35.086 C112.708,35.086 112.687,35.086 112.667,35.086 C112.647,35.167 112.626,35.249 112.606,35.330 C112.586,35.330 112.565,35.330 112.545,35.330 C112.545,35.392 112.545,35.453 112.545,35.514 C112.525,35.514 112.504,35.514 112.484,35.514 C112.484,35.616 112.484,35.718 112.484,35.820 C112.298,36.443 112.424,37.637 112.423,38.391 C112.057,38.391 111.691,38.391 111.325,38.391 C111.325,36.759 111.325,35.126 111.325,33.494 C111.650,33.494 111.976,33.494 112.301,33.494 C112.301,33.841 112.301,34.188 112.301,34.535 C112.321,34.535 112.342,34.535 112.362,34.535 C112.362,34.494 112.362,34.453 112.362,34.412 C112.513,34.276 112.495,34.088 112.606,33.923 C112.667,33.882 112.728,33.841 112.789,33.800 C113.081,33.502 113.224,33.312 113.826,33.310 ZM50.630,34.535 C50.305,34.596 49.979,34.657 49.654,34.718 C49.654,34.678 49.654,34.637 49.654,34.596 C49.510,34.474 49.511,34.349 49.288,34.290 C49.027,34.017 48.355,34.227 48.068,34.290 C47.890,34.604 47.864,34.534 47.946,34.963 C48.007,34.984 48.068,35.004 48.129,35.024 C48.149,35.065 48.170,35.106 48.190,35.147 C48.251,35.147 48.312,35.147 48.373,35.147 C48.373,35.167 48.373,35.188 48.373,35.208 C48.454,35.208 48.536,35.208 48.617,35.208 C48.617,35.228 48.617,35.249 48.617,35.269 C48.698,35.269 48.780,35.269 48.861,35.269 C48.861,35.290 48.861,35.310 48.861,35.330 C48.963,35.330 49.064,35.330 49.166,35.330 C49.166,35.351 49.166,35.371 49.166,35.392 C49.268,35.392 49.369,35.392 49.471,35.392 C49.471,35.412 49.471,35.432 49.471,35.453 C49.573,35.453 49.674,35.453 49.776,35.453 C49.776,35.473 49.776,35.494 49.776,35.514 C49.837,35.514 49.898,35.514 49.959,35.514 C49.959,35.535 49.959,35.555 49.959,35.575 C50.020,35.575 50.081,35.575 50.142,35.575 C50.305,35.698 50.467,35.820 50.630,35.943 C50.630,35.983 50.630,36.024 50.630,36.065 C50.650,36.065 50.671,36.065 50.691,36.065 C50.749,36.140 50.737,36.183 50.813,36.249 C50.883,37.325 50.942,37.588 50.203,38.085 C50.183,38.126 50.162,38.167 50.142,38.208 C50.101,38.208 50.061,38.208 50.020,38.208 C50.020,38.228 50.020,38.248 50.020,38.269 C48.796,38.821 46.905,38.412 46.665,37.228 C46.949,37.220 47.613,37.041 47.702,37.106 C47.784,37.172 47.812,37.276 47.885,37.351 C47.975,37.443 48.108,37.494 48.190,37.595 C48.526,37.619 49.173,37.762 49.410,37.534 C49.717,37.464 49.789,37.261 49.776,36.861 C49.634,36.759 49.491,36.657 49.349,36.555 C49.146,36.534 48.942,36.514 48.739,36.494 C48.739,36.473 48.739,36.453 48.739,36.432 C48.536,36.412 48.332,36.392 48.129,36.371 C47.685,36.218 47.028,35.919 46.970,35.392 C46.695,35.101 46.992,34.212 47.153,33.984 C47.455,33.555 48.510,33.179 49.288,33.433 C49.369,33.433 49.451,33.433 49.532,33.433 C49.532,33.453 49.532,33.474 49.532,33.494 C49.593,33.494 49.654,33.494 49.715,33.494 C49.715,33.514 49.715,33.535 49.715,33.555 C49.776,33.555 49.837,33.555 49.898,33.555 C49.898,33.576 49.898,33.596 49.898,33.616 C49.959,33.637 50.020,33.657 50.081,33.678 C50.101,33.718 50.122,33.759 50.142,33.800 C50.203,33.820 50.264,33.841 50.325,33.861 C50.325,33.902 50.325,33.943 50.325,33.984 C50.366,34.004 50.406,34.025 50.447,34.045 C50.549,34.167 50.612,34.333 50.630,34.535 ZM58.621,38.391 C58.593,38.063 58.505,37.866 58.499,37.473 C58.479,37.473 58.458,37.473 58.438,37.473 C58.438,37.493 58.438,37.514 58.438,37.534 C58.296,37.738 58.153,37.942 58.011,38.146 C57.755,38.333 57.379,38.419 57.035,38.514 C56.893,38.514 56.750,38.514 56.608,38.514 C56.608,38.493 56.608,38.473 56.608,38.452 C56.425,38.432 56.242,38.412 56.059,38.391 C56.059,38.371 56.059,38.350 56.059,38.330 C56.018,38.330 55.978,38.330 55.937,38.330 C55.917,38.289 55.896,38.248 55.876,38.208 C55.835,38.208 55.795,38.208 55.754,38.208 C55.734,38.167 55.713,38.126 55.693,38.085 C55.612,38.024 55.530,37.963 55.449,37.901 C55.449,37.861 55.449,37.820 55.449,37.779 C55.408,37.759 55.368,37.738 55.327,37.718 C55.307,37.595 55.286,37.473 55.266,37.351 C55.246,37.351 55.225,37.351 55.205,37.351 C55.127,37.100 55.236,36.467 55.327,36.371 C55.565,35.429 57.257,35.264 58.499,35.269 C58.515,34.802 58.436,34.380 58.072,34.290 C57.900,34.105 56.966,34.117 56.791,34.290 C56.514,34.357 56.356,34.607 56.303,34.902 C55.978,34.861 55.652,34.820 55.327,34.780 C55.327,34.759 55.327,34.739 55.327,34.718 C55.347,34.718 55.368,34.718 55.388,34.718 C55.388,34.637 55.388,34.555 55.388,34.473 C55.408,34.473 55.429,34.473 55.449,34.473 C55.490,34.351 55.530,34.229 55.571,34.106 C55.652,34.045 55.734,33.984 55.815,33.923 C55.835,33.882 55.856,33.841 55.876,33.800 C56.796,33.148 59.046,33.147 59.475,34.229 C59.605,34.556 59.536,35.095 59.536,35.514 C59.536,36.498 59.446,37.664 59.719,38.391 C59.353,38.391 58.987,38.391 58.621,38.391 ZM77.775,38.391 C77.389,38.391 77.002,38.391 76.616,38.391 C76.616,37.228 76.616,36.065 76.616,34.902 C76.596,34.902 76.575,34.902 76.555,34.902 C76.535,34.820 76.514,34.739 76.494,34.657 C76.372,34.555 76.250,34.453 76.128,34.351 C75.945,34.351 75.762,34.351 75.579,34.351 C75.473,34.472 75.437,34.403 75.335,34.473 C75.213,34.616 75.091,34.759 74.969,34.902 C74.969,34.943 74.969,34.984 74.969,35.024 C74.949,35.024 74.928,35.024 74.908,35.024 C74.640,35.639 74.783,37.507 74.786,38.391 C74.420,38.391 74.054,38.391 73.688,38.391 C73.688,36.759 73.688,35.126 73.688,33.494 C74.034,33.494 74.379,33.494 74.725,33.494 C74.725,33.820 74.725,34.147 74.725,34.473 C74.745,34.473 74.766,34.473 74.786,34.473 C74.786,34.433 74.786,34.392 74.786,34.351 C74.806,34.351 74.827,34.351 74.847,34.351 C74.847,34.310 74.847,34.269 74.847,34.229 C74.867,34.229 74.888,34.229 74.908,34.229 C74.908,34.188 74.908,34.147 74.908,34.106 C74.969,34.065 75.030,34.025 75.091,33.984 C75.091,33.943 75.091,33.902 75.091,33.861 C75.172,33.800 75.254,33.739 75.335,33.678 C75.335,33.657 75.335,33.637 75.335,33.616 C75.376,33.616 75.416,33.616 75.457,33.616 C75.477,33.576 75.498,33.535 75.518,33.494 C75.579,33.494 75.640,33.494 75.701,33.494 C75.701,33.474 75.701,33.453 75.701,33.433 C75.762,33.433 75.823,33.433 75.884,33.433 C75.884,33.412 75.884,33.392 75.884,33.372 C76.487,33.183 77.382,33.699 77.470,34.045 C77.606,34.167 77.521,34.175 77.592,34.351 C77.612,34.351 77.633,34.351 77.653,34.351 C77.653,34.412 77.653,34.473 77.653,34.535 C77.673,34.535 77.694,34.535 77.714,34.535 C77.714,34.780 77.714,35.024 77.714,35.269 C77.734,35.269 77.755,35.269 77.775,35.269 C77.775,36.310 77.775,37.351 77.775,38.391 ZM92.903,36.065 C91.785,36.065 90.666,36.065 89.548,36.065 C89.527,36.721 89.671,37.351 90.158,37.473 C90.419,37.745 91.091,37.536 91.378,37.473 C91.439,37.391 91.500,37.310 91.561,37.228 C91.581,37.228 91.602,37.228 91.622,37.228 C91.724,37.083 91.735,36.911 91.866,36.800 C91.955,36.880 92.575,36.924 92.781,36.922 C92.691,37.995 91.219,38.789 90.036,38.391 C89.955,38.391 89.873,38.391 89.792,38.391 C89.792,38.371 89.792,38.350 89.792,38.330 C89.751,38.330 89.711,38.330 89.670,38.330 C89.670,38.310 89.670,38.289 89.670,38.269 C89.589,38.248 89.507,38.228 89.426,38.208 C89.406,38.167 89.385,38.126 89.365,38.085 C89.324,38.085 89.284,38.085 89.243,38.085 C89.202,38.024 89.162,37.963 89.121,37.901 C89.019,37.820 88.918,37.738 88.816,37.657 C88.514,37.207 88.218,36.159 88.450,35.392 C88.450,35.290 88.450,35.188 88.450,35.086 C88.470,35.086 88.491,35.086 88.511,35.086 C88.531,34.963 88.552,34.841 88.572,34.718 C88.592,34.718 88.613,34.718 88.633,34.718 C88.633,34.678 88.633,34.637 88.633,34.596 C88.653,34.596 88.674,34.596 88.694,34.596 C88.694,34.555 88.694,34.514 88.694,34.473 C88.735,34.453 88.775,34.433 88.816,34.412 C88.816,34.371 88.816,34.331 88.816,34.290 C88.857,34.269 88.897,34.249 88.938,34.229 C88.938,34.188 88.938,34.147 88.938,34.106 C88.979,34.086 89.019,34.065 89.060,34.045 C89.121,33.963 89.182,33.882 89.243,33.800 C89.284,33.800 89.324,33.800 89.365,33.800 C89.385,33.759 89.406,33.718 89.426,33.678 C89.507,33.657 89.589,33.637 89.670,33.616 C89.670,33.596 89.670,33.576 89.670,33.555 C89.711,33.555 89.751,33.555 89.792,33.555 C89.792,33.535 89.792,33.514 89.792,33.494 C89.934,33.474 90.077,33.453 90.219,33.433 C90.380,33.382 90.881,33.294 91.134,33.372 C91.134,33.392 91.134,33.412 91.134,33.433 C91.215,33.433 91.297,33.433 91.378,33.433 C91.378,33.453 91.378,33.474 91.378,33.494 C91.439,33.494 91.500,33.494 91.561,33.494 C91.561,33.514 91.561,33.535 91.561,33.555 C91.642,33.576 91.724,33.596 91.805,33.616 C91.805,33.637 91.805,33.657 91.805,33.678 C91.846,33.678 91.886,33.678 91.927,33.678 C92.528,34.078 92.918,35.027 92.903,36.065 ZM109.739,36.065 C108.621,36.065 107.502,36.065 106.384,36.065 C106.363,36.721 106.507,37.351 106.994,37.473 C107.255,37.745 107.927,37.536 108.214,37.473 C108.275,37.391 108.336,37.310 108.397,37.228 C108.417,37.228 108.438,37.228 108.458,37.228 C108.560,37.083 108.571,36.911 108.702,36.800 C108.791,36.880 109.411,36.924 109.617,36.922 C109.527,37.995 108.055,38.789 106.872,38.391 C106.791,38.391 106.709,38.391 106.628,38.391 C106.628,38.371 106.628,38.350 106.628,38.330 C106.587,38.330 106.547,38.330 106.506,38.330 C106.506,38.310 106.506,38.289 106.506,38.269 C106.425,38.248 106.343,38.228 106.262,38.208 C106.242,38.167 106.221,38.126 106.201,38.085 C106.160,38.085 106.120,38.085 106.079,38.085 C106.038,38.024 105.998,37.963 105.957,37.901 C105.855,37.820 105.754,37.738 105.652,37.657 C105.350,37.207 105.054,36.159 105.286,35.392 C105.286,35.290 105.286,35.188 105.286,35.086 C105.306,35.086 105.327,35.086 105.347,35.086 C105.367,34.963 105.388,34.841 105.408,34.718 C105.428,34.718 105.449,34.718 105.469,34.718 C105.469,34.678 105.469,34.637 105.469,34.596 C105.489,34.596 105.510,34.596 105.530,34.596 C105.530,34.555 105.530,34.514 105.530,34.473 C105.571,34.453 105.611,34.433 105.652,34.412 C105.652,34.371 105.652,34.331 105.652,34.290 C105.693,34.269 105.733,34.249 105.774,34.229 C105.774,34.188 105.774,34.147 105.774,34.106 C105.815,34.086 105.855,34.065 105.896,34.045 C105.957,33.963 106.018,33.882 106.079,33.800 C106.120,33.800 106.160,33.800 106.201,33.800 C106.221,33.759 106.242,33.718 106.262,33.678 C106.343,33.657 106.425,33.637 106.506,33.616 C106.506,33.596 106.506,33.576 106.506,33.555 C106.547,33.555 106.587,33.555 106.628,33.555 C106.628,33.535 106.628,33.514 106.628,33.494 C106.770,33.474 106.913,33.453 107.055,33.433 C107.216,33.382 107.717,33.294 107.970,33.372 C107.970,33.392 107.970,33.412 107.970,33.433 C108.051,33.433 108.133,33.433 108.214,33.433 C108.214,33.453 108.214,33.474 108.214,33.494 C108.275,33.494 108.336,33.494 108.397,33.494 C108.397,33.514 108.397,33.535 108.397,33.555 C108.478,33.576 108.560,33.596 108.641,33.616 C108.641,33.637 108.641,33.657 108.641,33.678 C108.682,33.678 108.722,33.678 108.763,33.678 C109.364,34.078 109.754,35.027 109.739,36.065 ZM70.638,33.494 C71.004,33.494 71.370,33.494 71.736,33.494 C71.736,35.126 71.736,36.759 71.736,38.391 C71.370,38.391 71.004,38.391 70.638,38.391 C70.638,36.759 70.638,35.126 70.638,33.494 ZM97.539,33.494 C97.905,33.494 98.271,33.494 98.637,33.494 C98.637,35.126 98.637,36.759 98.637,38.391 C98.271,38.391 97.905,38.391 97.539,38.391 C97.539,36.759 97.539,35.126 97.539,33.494 ZM104.249,33.494 C104.191,33.849 104.004,34.231 103.883,34.535 C103.883,34.596 103.883,34.657 103.883,34.718 C103.863,34.718 103.842,34.718 103.822,34.718 C103.822,34.780 103.822,34.841 103.822,34.902 C103.802,34.902 103.781,34.902 103.761,34.902 C103.761,34.963 103.761,35.024 103.761,35.086 C103.741,35.086 103.720,35.086 103.700,35.086 C103.700,35.147 103.700,35.208 103.700,35.269 C103.680,35.269 103.659,35.269 103.639,35.269 C103.639,35.330 103.639,35.392 103.639,35.453 C103.619,35.453 103.598,35.453 103.578,35.453 C103.578,35.514 103.578,35.575 103.578,35.637 C103.558,35.637 103.537,35.637 103.517,35.637 C103.517,35.698 103.517,35.759 103.517,35.820 C103.497,35.820 103.476,35.820 103.456,35.820 C103.456,35.881 103.456,35.943 103.456,36.004 C103.436,36.004 103.415,36.004 103.395,36.004 C103.375,36.126 103.354,36.249 103.334,36.371 C103.314,36.371 103.293,36.371 103.273,36.371 C103.273,36.412 103.273,36.453 103.273,36.494 C103.253,36.494 103.232,36.494 103.212,36.494 C103.192,36.616 103.171,36.738 103.151,36.861 C103.131,36.861 103.110,36.861 103.090,36.861 C103.090,36.922 103.090,36.983 103.090,37.044 C103.070,37.044 103.049,37.044 103.029,37.044 C103.029,37.106 103.029,37.167 103.029,37.228 C103.009,37.228 102.988,37.228 102.968,37.228 C102.968,37.289 102.968,37.351 102.968,37.412 C102.948,37.412 102.927,37.412 102.907,37.412 C102.907,37.473 102.907,37.534 102.907,37.595 C102.887,37.595 102.866,37.595 102.846,37.595 C102.846,37.657 102.846,37.718 102.846,37.779 C102.826,37.779 102.805,37.779 102.785,37.779 C102.785,37.840 102.785,37.901 102.785,37.963 C102.765,37.963 102.744,37.963 102.724,37.963 C102.704,38.085 102.683,38.208 102.663,38.330 C102.643,38.330 102.622,38.330 102.602,38.330 C102.463,38.458 101.938,38.397 101.687,38.391 C101.636,38.322 101.695,38.382 101.626,38.330 C101.609,38.091 101.510,37.947 101.443,37.779 C101.423,37.657 101.402,37.534 101.382,37.412 C101.362,37.412 101.341,37.412 101.321,37.412 C101.301,37.289 101.280,37.167 101.260,37.044 C101.240,37.044 101.219,37.044 101.199,37.044 C101.199,37.004 101.199,36.963 101.199,36.922 C101.179,36.922 101.158,36.922 101.138,36.922 C101.138,36.861 101.138,36.800 101.138,36.738 C101.118,36.738 101.097,36.738 101.077,36.738 C101.077,36.677 101.077,36.616 101.077,36.555 C101.057,36.555 101.036,36.555 101.016,36.555 C101.016,36.494 101.016,36.432 101.016,36.371 C100.996,36.371 100.975,36.371 100.955,36.371 C100.955,36.310 100.955,36.249 100.955,36.187 C100.935,36.187 100.914,36.187 100.894,36.187 C100.894,36.126 100.894,36.065 100.894,36.004 C100.874,36.004 100.853,36.004 100.833,36.004 C100.813,35.881 100.792,35.759 100.772,35.637 C100.481,34.970 100.267,34.178 99.979,33.494 C100.365,33.494 100.752,33.494 101.138,33.494 C101.436,34.307 101.715,35.226 102.053,36.004 C102.053,36.065 102.053,36.126 102.053,36.187 C102.073,36.187 102.094,36.187 102.114,36.187 C102.114,36.249 102.114,36.310 102.114,36.371 C102.134,36.371 102.155,36.371 102.175,36.371 C102.195,36.494 102.216,36.616 102.236,36.738 C102.256,36.738 102.277,36.738 102.297,36.738 C102.297,36.718 102.297,36.698 102.297,36.677 C102.317,36.677 102.338,36.677 102.358,36.677 C102.378,36.555 102.399,36.432 102.419,36.310 C102.439,36.310 102.460,36.310 102.480,36.310 C102.480,36.249 102.480,36.187 102.480,36.126 C102.500,36.126 102.521,36.126 102.541,36.126 C102.541,36.065 102.541,36.004 102.541,35.943 C102.561,35.943 102.582,35.943 102.602,35.943 C102.602,35.881 102.602,35.820 102.602,35.759 C102.622,35.759 102.643,35.759 102.663,35.759 C102.663,35.698 102.663,35.637 102.663,35.575 C102.683,35.575 102.704,35.575 102.724,35.575 C102.724,35.514 102.724,35.453 102.724,35.392 C102.744,35.392 102.765,35.392 102.785,35.392 C102.785,35.330 102.785,35.269 102.785,35.208 C102.805,35.208 102.826,35.208 102.846,35.208 C102.846,35.147 102.846,35.086 102.846,35.024 C102.866,35.024 102.887,35.024 102.907,35.024 C102.927,34.902 102.948,34.780 102.968,34.657 C102.988,34.657 103.009,34.657 103.029,34.657 C103.049,34.535 103.070,34.412 103.090,34.290 C103.110,34.290 103.131,34.290 103.151,34.290 C103.151,34.229 103.151,34.167 103.151,34.106 C103.171,34.106 103.192,34.106 103.212,34.106 C103.212,34.045 103.212,33.984 103.212,33.923 C103.232,33.923 103.253,33.923 103.273,33.923 C103.293,33.800 103.314,33.678 103.334,33.555 C103.354,33.555 103.375,33.555 103.395,33.555 C103.527,33.434 104.008,33.488 104.249,33.494 ZM116.083,33.494 C116.124,33.678 116.164,33.861 116.205,34.045 C116.225,34.045 116.246,34.045 116.266,34.045 C116.266,34.086 116.266,34.127 116.266,34.167 C116.286,34.167 116.307,34.167 116.327,34.167 C116.347,34.290 116.368,34.412 116.388,34.535 C116.408,34.535 116.429,34.535 116.449,34.535 C116.449,34.575 116.449,34.616 116.449,34.657 C116.469,34.657 116.490,34.657 116.510,34.657 C116.551,34.841 116.591,35.024 116.632,35.208 C116.652,35.208 116.673,35.208 116.693,35.208 C116.693,35.249 116.693,35.290 116.693,35.330 C116.713,35.330 116.734,35.330 116.754,35.330 C116.795,35.514 116.835,35.698 116.876,35.881 C116.896,35.881 116.917,35.881 116.937,35.881 C116.937,35.922 116.937,35.963 116.937,36.004 C116.957,36.004 116.978,36.004 116.998,36.004 C116.998,36.065 116.998,36.126 116.998,36.187 C117.018,36.187 117.039,36.187 117.059,36.187 C117.059,36.249 117.059,36.310 117.059,36.371 C117.079,36.371 117.100,36.371 117.120,36.371 C117.140,36.473 117.161,36.575 117.181,36.677 C117.201,36.677 117.222,36.677 117.242,36.677 C117.242,36.636 117.242,36.596 117.242,36.555 C117.262,36.555 117.283,36.555 117.303,36.555 C117.344,36.351 117.384,36.147 117.425,35.943 C117.445,35.943 117.466,35.943 117.486,35.943 C117.486,35.881 117.486,35.820 117.486,35.759 C117.506,35.759 117.527,35.759 117.547,35.759 C117.547,35.698 117.547,35.637 117.547,35.575 C117.567,35.575 117.588,35.575 117.608,35.575 C117.608,35.514 117.608,35.453 117.608,35.392 C117.628,35.392 117.649,35.392 117.669,35.392 C117.669,35.330 117.669,35.269 117.669,35.208 C117.689,35.208 117.710,35.208 117.730,35.208 C117.730,35.147 117.730,35.086 117.730,35.024 C117.750,35.024 117.771,35.024 117.791,35.024 C117.811,34.882 117.832,34.739 117.852,34.596 C117.984,34.260 118.138,33.895 118.218,33.494 C118.523,33.494 118.828,33.494 119.133,33.494 C119.133,33.514 119.133,33.535 119.133,33.555 C118.955,33.748 118.939,34.198 118.828,34.473 C118.808,34.473 118.787,34.473 118.767,34.473 C118.767,34.535 118.767,34.596 118.767,34.657 C118.747,34.657 118.726,34.657 118.706,34.657 C118.706,34.698 118.706,34.739 118.706,34.780 C118.686,34.780 118.665,34.780 118.645,34.780 C118.645,34.841 118.645,34.902 118.645,34.963 C118.625,34.963 118.604,34.963 118.584,34.963 C118.584,35.024 118.584,35.086 118.584,35.147 C118.564,35.147 118.543,35.147 118.523,35.147 C118.523,35.208 118.523,35.269 118.523,35.330 C118.503,35.330 118.482,35.330 118.462,35.330 C118.462,35.392 118.462,35.453 118.462,35.514 C118.442,35.514 118.421,35.514 118.401,35.514 C118.401,35.575 118.401,35.637 118.401,35.698 C118.080,36.505 117.806,37.401 117.486,38.208 C117.486,38.269 117.486,38.330 117.486,38.391 C117.466,38.391 117.445,38.391 117.425,38.391 C117.425,38.452 117.425,38.514 117.425,38.575 C117.280,38.939 116.994,39.826 116.632,39.922 C116.494,40.047 115.521,39.988 115.229,39.983 C115.229,39.738 115.229,39.493 115.229,39.248 C115.660,39.257 116.049,39.241 116.327,39.126 C116.482,38.839 116.626,38.676 116.632,38.208 C116.484,38.067 116.584,38.081 116.510,37.901 C116.490,37.901 116.469,37.901 116.449,37.901 C116.449,37.840 116.449,37.779 116.449,37.718 C116.429,37.718 116.408,37.718 116.388,37.718 C116.388,37.657 116.388,37.595 116.388,37.534 C116.368,37.534 116.347,37.534 116.327,37.534 C116.327,37.493 116.327,37.453 116.327,37.412 C116.307,37.412 116.286,37.412 116.266,37.412 C116.246,37.289 116.225,37.167 116.205,37.044 C116.185,37.044 116.164,37.044 116.144,37.044 C116.144,36.983 116.144,36.922 116.144,36.861 C115.679,35.791 115.322,34.585 114.863,33.494 C115.270,33.494 115.676,33.494 116.083,33.494 ZM89.548,35.330 C90.280,35.330 91.012,35.330 91.744,35.330 C91.743,35.154 91.707,34.927 91.622,34.841 C91.501,34.314 91.024,34.151 90.341,34.167 C90.341,34.188 90.341,34.208 90.341,34.229 C90.239,34.249 90.138,34.269 90.036,34.290 C89.818,34.663 89.564,34.688 89.548,35.330 ZM106.384,35.330 C107.116,35.330 107.848,35.330 108.580,35.330 C108.579,35.154 108.543,34.927 108.458,34.841 C108.337,34.314 107.860,34.151 107.177,34.167 C107.177,34.188 107.177,34.208 107.177,34.229 C107.075,34.249 106.974,34.269 106.872,34.290 C106.654,34.663 106.400,34.688 106.384,35.330 ZM84.363,34.229 C84.363,34.249 84.363,34.269 84.363,34.290 C84.302,34.290 84.241,34.290 84.180,34.290 C84.087,34.429 83.999,34.391 83.936,34.473 C83.936,34.514 83.936,34.555 83.936,34.596 C83.895,34.616 83.855,34.637 83.814,34.657 C83.794,34.739 83.773,34.820 83.753,34.902 C83.733,34.902 83.712,34.902 83.692,34.902 C83.672,35.086 83.651,35.269 83.631,35.453 C83.456,36.078 83.629,37.280 84.119,37.412 C84.311,37.640 84.764,37.619 85.034,37.473 C85.034,37.453 85.034,37.432 85.034,37.412 C85.586,37.095 85.644,36.681 85.644,35.820 C85.644,35.616 85.644,35.412 85.644,35.208 C85.583,35.024 85.522,34.841 85.461,34.657 C85.312,34.574 85.259,34.423 85.156,34.351 C85.054,34.280 85.016,34.352 84.912,34.229 C84.729,34.229 84.546,34.229 84.363,34.229 ZM56.547,36.310 C56.527,36.371 56.506,36.432 56.486,36.494 C56.466,36.494 56.445,36.494 56.425,36.494 C56.425,36.534 56.425,36.575 56.425,36.616 C56.405,36.616 56.384,36.616 56.364,36.616 C56.281,36.843 56.397,37.198 56.425,37.351 C56.555,37.425 56.558,37.488 56.730,37.534 C56.846,37.656 56.762,37.535 56.913,37.595 C57.338,37.764 57.618,37.552 57.950,37.473 C58.031,37.371 58.113,37.269 58.194,37.167 C58.214,37.167 58.235,37.167 58.255,37.167 C58.442,36.888 58.497,36.406 58.499,35.943 C58.350,35.886 58.121,35.879 57.889,35.881 C57.736,36.013 57.377,35.928 57.157,36.004 C56.947,36.076 56.769,36.252 56.547,36.310 ZM120.048,37.106 C120.434,37.106 120.821,37.106 121.207,37.106 C121.321,37.414 121.271,37.982 121.268,38.391 C120.861,38.391 120.455,38.391 120.048,38.391 C120.048,37.963 120.048,37.534 120.048,37.106 Z"/>
</svg>