<svg 
 xmlns="http://www.w3.org/2000/svg"
 xmlns:xlink="http://www.w3.org/1999/xlink"
 width="64px" height="53px">
<path fill-rule="evenodd"  fill="rgb(225, 225, 225)"
 d="M62.736,0.000 C62.729,0.398 62.596,0.801 62.499,1.110 C62.499,1.242 62.499,1.375 62.499,1.507 C62.472,1.507 62.446,1.507 62.420,1.507 C62.420,1.612 62.420,1.718 62.420,1.824 C62.393,1.824 62.367,1.824 62.341,1.824 C62.341,1.930 62.341,2.035 62.341,2.141 C62.314,2.141 62.288,2.141 62.262,2.141 C62.262,2.273 62.262,2.405 62.262,2.538 C62.235,2.538 62.209,2.538 62.183,2.538 C62.183,2.643 62.183,2.749 62.183,2.855 C62.156,2.855 62.130,2.855 62.104,2.855 C62.104,2.961 62.104,3.066 62.104,3.172 C62.077,3.172 62.051,3.172 62.025,3.172 C61.972,3.568 61.919,3.965 61.867,4.362 C61.402,5.791 61.224,7.526 60.760,8.961 C60.760,9.093 60.760,9.225 60.760,9.357 C60.734,9.357 60.708,9.357 60.681,9.357 C60.681,9.463 60.681,9.569 60.681,9.675 C60.655,9.675 60.629,9.675 60.602,9.675 C60.602,9.780 60.602,9.886 60.602,9.992 C60.576,9.992 60.550,9.992 60.523,9.992 C60.523,10.124 60.523,10.256 60.523,10.388 C60.497,10.388 60.471,10.388 60.444,10.388 C60.444,10.521 60.444,10.653 60.444,10.785 C60.418,10.785 60.392,10.785 60.365,10.785 C60.365,10.917 60.365,11.049 60.365,11.181 C60.339,11.181 60.313,11.181 60.286,11.181 C60.286,11.314 60.286,11.446 60.286,11.578 C60.083,12.204 59.933,13.001 59.733,13.640 C59.707,13.904 59.681,14.168 59.654,14.433 C59.042,16.325 58.840,18.566 58.232,20.460 C58.206,20.724 58.179,20.988 58.153,21.253 C58.127,21.253 58.100,21.253 58.074,21.253 C58.074,21.385 58.074,21.517 58.074,21.649 C58.048,21.649 58.021,21.649 57.995,21.649 C57.995,21.755 57.995,21.861 57.995,21.966 C57.969,21.966 57.942,21.966 57.916,21.966 C57.916,22.072 57.916,22.178 57.916,22.283 C57.890,22.283 57.863,22.283 57.837,22.283 C57.837,22.389 57.837,22.495 57.837,22.601 C57.811,22.601 57.784,22.601 57.758,22.601 C57.653,23.235 57.547,23.870 57.442,24.504 C56.831,26.397 56.626,28.636 56.020,30.531 C55.967,30.927 55.914,31.324 55.862,31.720 C55.835,31.720 55.809,31.720 55.783,31.720 C55.783,31.826 55.783,31.932 55.783,32.037 C55.756,32.037 55.730,32.037 55.704,32.037 C55.704,32.143 55.704,32.249 55.704,32.355 C55.677,32.355 55.651,32.355 55.625,32.355 C55.625,32.487 55.625,32.619 55.625,32.751 C55.598,32.751 55.572,32.751 55.546,32.751 C55.546,32.857 55.546,32.963 55.546,33.068 C55.519,33.068 55.493,33.068 55.467,33.068 C55.467,33.174 55.467,33.280 55.467,33.386 C55.440,33.386 55.414,33.386 55.388,33.386 C55.361,33.650 55.335,33.914 55.309,34.179 C55.175,34.606 55.025,35.082 54.993,35.606 C43.195,35.606 31.393,35.606 19.595,35.606 C16.593,35.606 13.590,35.606 10.588,35.606 C9.824,35.606 9.060,35.606 8.296,35.606 C8.016,35.606 7.581,35.661 7.427,35.527 C7.480,35.527 7.533,35.527 7.585,35.527 C7.585,35.500 7.585,35.474 7.585,35.447 C7.717,35.421 7.849,35.394 7.980,35.368 C7.980,35.342 7.980,35.315 7.980,35.289 C8.059,35.289 8.138,35.289 8.217,35.289 C8.217,35.262 8.217,35.236 8.217,35.209 C8.296,35.209 8.375,35.209 8.454,35.209 C8.454,35.183 8.454,35.157 8.454,35.130 C8.507,35.130 8.560,35.130 8.612,35.130 C8.612,35.104 8.612,35.077 8.612,35.051 C8.691,35.051 8.770,35.051 8.849,35.051 C8.849,35.024 8.849,34.998 8.849,34.972 C8.902,34.972 8.955,34.972 9.007,34.972 C9.007,34.945 9.007,34.919 9.007,34.892 C9.139,34.866 9.271,34.839 9.402,34.813 C9.402,34.786 9.402,34.760 9.402,34.734 C9.481,34.734 9.561,34.734 9.640,34.734 C9.640,34.707 9.640,34.681 9.640,34.654 C9.692,34.654 9.745,34.654 9.798,34.654 C9.798,34.628 9.798,34.601 9.798,34.575 C9.956,34.549 10.114,34.522 10.272,34.496 C10.272,34.469 10.272,34.443 10.272,34.416 C10.324,34.416 10.377,34.416 10.430,34.416 C10.430,34.390 10.430,34.364 10.430,34.337 C10.509,34.337 10.588,34.337 10.667,34.337 C10.667,34.311 10.667,34.284 10.667,34.258 C10.719,34.258 10.772,34.258 10.825,34.258 C10.825,34.231 10.825,34.205 10.825,34.179 C10.956,34.152 11.088,34.126 11.220,34.099 C11.220,34.073 11.220,34.046 11.220,34.020 C11.299,34.020 11.378,34.020 11.457,34.020 C11.457,33.993 11.457,33.967 11.457,33.941 C11.509,33.941 11.562,33.941 11.615,33.941 C11.615,33.914 11.615,33.888 11.615,33.861 C11.773,33.835 11.931,33.808 12.089,33.782 C12.089,33.756 12.089,33.729 12.089,33.703 C12.142,33.703 12.194,33.703 12.247,33.703 C12.247,33.676 12.247,33.650 12.247,33.623 C12.326,33.623 12.405,33.623 12.484,33.623 C12.484,33.597 12.484,33.571 12.484,33.544 C12.537,33.544 12.589,33.544 12.642,33.544 C12.642,33.518 12.642,33.491 12.642,33.465 C12.721,33.465 12.800,33.465 12.879,33.465 C12.879,33.438 12.879,33.412 12.879,33.386 C12.932,33.386 12.984,33.386 13.037,33.386 C13.037,33.359 13.037,33.333 13.037,33.306 C13.116,33.306 13.195,33.306 13.274,33.306 C13.274,33.280 13.274,33.253 13.274,33.227 C13.327,33.227 13.379,33.227 13.432,33.227 C13.432,33.200 13.432,33.174 13.432,33.148 C13.511,33.148 13.590,33.148 13.669,33.148 C13.669,33.121 13.669,33.095 13.669,33.068 C13.722,33.068 13.774,33.068 13.827,33.068 C13.827,33.042 13.827,33.015 13.827,32.989 C13.985,32.963 14.143,32.936 14.301,32.910 C14.301,32.883 14.301,32.857 14.301,32.830 C14.354,32.830 14.407,32.830 14.459,32.830 C14.459,32.804 14.459,32.778 14.459,32.751 C14.538,32.751 14.617,32.751 14.696,32.751 C14.696,32.725 14.696,32.698 14.696,32.672 C14.749,32.672 14.802,32.672 14.854,32.672 C14.854,32.645 14.854,32.619 14.854,32.593 C14.986,32.566 15.118,32.540 15.249,32.513 C15.249,32.487 15.249,32.460 15.249,32.434 C15.328,32.434 15.407,32.434 15.486,32.434 C15.486,32.407 15.486,32.381 15.486,32.355 C15.539,32.355 15.592,32.355 15.644,32.355 C15.644,32.328 15.644,32.302 15.644,32.275 C15.802,32.249 15.961,32.222 16.119,32.196 C16.119,32.170 16.119,32.143 16.119,32.117 C16.171,32.117 16.224,32.117 16.277,32.117 C16.277,32.090 16.277,32.064 16.277,32.037 C16.356,32.037 16.435,32.037 16.514,32.037 C16.514,32.011 16.514,31.985 16.514,31.958 C16.566,31.958 16.619,31.958 16.672,31.958 C16.672,31.932 16.672,31.905 16.672,31.879 C16.803,31.852 16.935,31.826 17.067,31.800 C17.067,31.773 17.067,31.747 17.067,31.720 C17.146,31.720 17.225,31.720 17.304,31.720 C17.304,31.694 17.304,31.667 17.304,31.641 C17.356,31.641 17.409,31.641 17.462,31.641 C17.462,31.614 17.462,31.588 17.462,31.562 C17.620,31.535 17.778,31.509 17.936,31.482 C17.936,31.456 17.936,31.429 17.936,31.403 C17.988,31.403 18.041,31.403 18.094,31.403 C18.094,31.377 18.094,31.350 18.094,31.324 C18.173,31.324 18.252,31.324 18.331,31.324 C18.331,31.297 18.331,31.271 18.331,31.244 C18.384,31.244 18.436,31.244 18.489,31.244 C18.489,31.218 18.489,31.192 18.489,31.165 C18.621,31.139 18.752,31.112 18.884,31.086 C18.884,31.059 18.884,31.033 18.884,31.006 C18.963,31.006 19.042,31.006 19.121,31.006 C19.121,30.980 19.121,30.954 19.121,30.927 C19.174,30.927 19.226,30.927 19.279,30.927 C19.279,30.901 19.279,30.874 19.279,30.848 C19.437,30.821 19.595,30.795 19.753,30.769 C19.753,30.742 19.753,30.716 19.753,30.689 C19.885,30.663 20.016,30.636 20.148,30.610 C20.148,30.584 20.148,30.557 20.148,30.531 C20.201,30.531 20.254,30.531 20.306,30.531 C20.306,30.504 20.306,30.478 20.306,30.451 C20.385,30.451 20.464,30.451 20.543,30.451 C20.543,30.425 20.543,30.399 20.543,30.372 C20.649,30.346 20.754,30.319 20.859,30.293 C20.859,30.266 20.859,30.240 20.859,30.213 C21.096,30.161 21.333,30.108 21.570,30.055 C21.570,30.028 21.570,30.002 21.570,29.976 C21.702,29.949 21.834,29.923 21.965,29.896 C21.965,29.870 21.965,29.843 21.965,29.817 C22.018,29.817 22.071,29.817 22.123,29.817 C22.123,29.791 22.123,29.764 22.123,29.738 C22.202,29.738 22.281,29.738 22.360,29.738 C22.360,29.711 22.360,29.685 22.360,29.658 C22.466,29.632 22.571,29.606 22.677,29.579 C22.677,29.553 22.677,29.526 22.677,29.500 C22.756,29.500 22.835,29.500 22.914,29.500 C22.914,29.473 22.914,29.447 22.914,29.420 C22.993,29.420 23.072,29.420 23.151,29.420 C23.151,29.394 23.151,29.368 23.151,29.341 C23.203,29.341 23.256,29.341 23.309,29.341 C23.309,29.315 23.309,29.288 23.309,29.262 C23.467,29.235 23.625,29.209 23.783,29.183 C23.783,29.156 23.783,29.130 23.783,29.103 C23.914,29.077 24.046,29.050 24.178,29.024 C24.178,28.998 24.178,28.971 24.178,28.945 C24.283,28.918 24.388,28.892 24.494,28.865 C24.494,28.839 24.494,28.813 24.494,28.786 C24.573,28.786 24.652,28.786 24.731,28.786 C24.731,28.760 24.731,28.733 24.731,28.707 C24.810,28.707 24.889,28.707 24.968,28.707 C24.968,28.680 24.968,28.654 24.968,28.627 C25.021,28.627 25.073,28.627 25.126,28.627 C25.126,28.601 25.126,28.575 25.126,28.548 C25.284,28.522 25.442,28.495 25.600,28.469 C25.600,28.442 25.600,28.416 25.600,28.390 C25.732,28.363 25.863,28.337 25.995,28.310 C25.995,28.284 25.995,28.257 25.995,28.231 C26.100,28.205 26.206,28.178 26.311,28.152 C26.311,28.125 26.311,28.099 26.311,28.072 C26.390,28.072 26.469,28.072 26.548,28.072 C26.548,28.046 26.548,28.020 26.548,27.993 C26.601,27.993 26.654,27.993 26.706,27.993 C26.706,27.967 26.706,27.940 26.706,27.914 C26.864,27.887 27.022,27.861 27.180,27.834 C27.180,27.808 27.180,27.782 27.180,27.755 C27.259,27.755 27.338,27.755 27.417,27.755 C27.417,27.729 27.417,27.702 27.417,27.676 C27.523,27.649 27.628,27.623 27.733,27.597 C27.733,27.570 27.733,27.544 27.733,27.517 C27.812,27.517 27.891,27.517 27.970,27.517 C27.970,27.491 27.970,27.464 27.970,27.438 C28.023,27.438 28.076,27.438 28.128,27.438 C28.128,27.412 28.128,27.385 28.128,27.359 C28.207,27.359 28.286,27.359 28.365,27.359 C28.365,27.332 28.365,27.306 28.365,27.279 C28.418,27.279 28.471,27.279 28.523,27.279 C28.523,27.253 28.523,27.227 28.523,27.200 C28.681,27.174 28.840,27.147 28.998,27.121 C28.998,27.094 28.998,27.068 28.998,27.041 C29.050,27.041 29.103,27.041 29.156,27.041 C29.156,27.015 29.156,26.989 29.156,26.962 C29.235,26.962 29.314,26.962 29.393,26.962 C29.393,26.936 29.393,26.909 29.393,26.883 C29.472,26.883 29.551,26.883 29.630,26.883 C29.630,26.856 29.630,26.830 29.630,26.804 C29.735,26.777 29.840,26.751 29.946,26.724 C29.946,26.698 29.946,26.671 29.946,26.645 C30.025,26.645 30.104,26.645 30.183,26.645 C30.183,26.619 30.183,26.592 30.183,26.566 C30.235,26.566 30.288,26.566 30.341,26.566 C30.341,26.539 30.341,26.513 30.341,26.486 C30.499,26.460 30.657,26.434 30.815,26.407 C30.815,26.381 30.815,26.354 30.815,26.328 C30.867,26.328 30.920,26.328 30.973,26.328 C30.973,26.301 30.973,26.275 30.973,26.248 C31.052,26.248 31.131,26.248 31.210,26.248 C31.210,26.222 31.210,26.196 31.210,26.169 C31.263,26.169 31.315,26.169 31.368,26.169 C31.368,26.143 31.368,26.116 31.368,26.090 C31.500,26.063 31.631,26.037 31.763,26.011 C31.763,25.984 31.763,25.958 31.763,25.931 C31.842,25.931 31.921,25.931 32.000,25.931 C32.000,25.905 32.000,25.878 32.000,25.852 C32.053,25.852 32.105,25.852 32.158,25.852 C32.158,25.826 32.158,25.799 32.158,25.773 C32.316,25.746 32.474,25.720 32.632,25.693 C36.276,24.089 40.205,22.772 43.852,21.173 C44.010,21.147 44.168,21.120 44.326,21.094 C44.326,21.068 44.326,21.041 44.326,21.015 C44.458,20.988 44.589,20.962 44.721,20.935 C44.721,20.909 44.721,20.882 44.721,20.856 C44.826,20.830 44.932,20.803 45.037,20.777 C45.037,20.750 45.037,20.724 45.037,20.697 C45.195,20.671 45.353,20.645 45.511,20.618 C45.511,20.592 45.511,20.565 45.511,20.539 C45.564,20.539 45.616,20.539 45.669,20.539 C45.669,20.512 45.669,20.486 45.669,20.460 C45.827,20.433 45.985,20.407 46.143,20.380 C46.143,20.354 46.143,20.327 46.143,20.301 C46.275,20.274 46.407,20.248 46.538,20.222 C46.538,20.195 46.538,20.169 46.538,20.142 C46.644,20.116 46.749,20.089 46.854,20.063 C46.854,20.037 46.854,20.010 46.854,19.984 C46.933,19.984 47.012,19.984 47.091,19.984 C47.091,19.957 47.091,19.931 47.091,19.904 C47.144,19.904 47.197,19.904 47.249,19.904 C47.249,19.878 47.249,19.852 47.249,19.825 C47.407,19.799 47.565,19.772 47.723,19.746 C47.723,19.719 47.723,19.693 47.723,19.667 C47.802,19.667 47.881,19.667 47.960,19.667 C47.960,19.640 47.960,19.614 47.960,19.587 C48.013,19.587 48.066,19.587 48.119,19.587 C48.119,19.561 48.119,19.534 48.119,19.508 C48.198,19.508 48.277,19.508 48.356,19.508 C48.356,19.481 48.356,19.455 48.356,19.429 C48.461,19.402 48.566,19.376 48.672,19.349 C48.672,19.323 48.672,19.296 48.672,19.270 C48.751,19.270 48.830,19.270 48.909,19.270 C48.909,19.244 48.909,19.217 48.909,19.191 C48.961,19.191 49.014,19.191 49.067,19.191 C49.067,19.164 49.067,19.138 49.067,19.111 C49.225,19.085 49.383,19.059 49.541,19.032 C49.541,19.006 49.541,18.979 49.541,18.953 C49.593,18.953 49.646,18.953 49.699,18.953 C49.699,18.926 49.699,18.900 49.699,18.874 C49.778,18.874 49.857,18.874 49.936,18.874 C49.936,18.847 49.936,18.821 49.936,18.794 C50.015,18.794 50.094,18.794 50.173,18.794 C50.173,18.768 50.173,18.741 50.173,18.715 C50.278,18.688 50.384,18.662 50.489,18.636 C50.489,18.609 50.489,18.583 50.489,18.556 C50.621,18.530 50.752,18.503 50.884,18.477 C50.884,18.451 50.884,18.424 50.884,18.398 C51.042,18.371 51.200,18.345 51.358,18.318 C51.358,18.292 51.358,18.266 51.358,18.239 C51.411,18.239 51.463,18.239 51.516,18.239 C51.516,18.213 51.516,18.186 51.516,18.160 C51.595,18.160 51.674,18.160 51.753,18.160 C51.753,18.133 51.753,18.107 51.753,18.081 C51.885,18.054 52.016,18.028 52.148,18.001 C52.148,17.975 52.148,17.948 52.148,17.922 C52.201,17.922 52.254,17.922 52.306,17.922 C52.306,17.895 52.306,17.869 52.306,17.843 C52.385,17.843 52.464,17.843 52.543,17.843 C52.543,17.816 52.543,17.790 52.543,17.763 C52.596,17.763 52.649,17.763 52.701,17.763 C52.701,17.737 52.701,17.710 52.701,17.684 C52.859,17.658 53.017,17.631 53.175,17.605 C53.202,17.525 53.228,17.446 53.254,17.367 C53.307,17.340 53.360,17.314 53.412,17.288 C53.439,17.208 53.465,17.129 53.491,17.050 C53.518,17.050 53.544,17.050 53.570,17.050 C53.623,16.891 53.676,16.732 53.728,16.574 C53.781,16.547 53.834,16.521 53.886,16.495 C53.913,16.389 53.939,16.283 53.965,16.177 C54.018,16.151 54.071,16.124 54.123,16.098 C54.176,15.939 54.229,15.781 54.281,15.622 C54.308,15.622 54.334,15.622 54.360,15.622 C54.360,15.569 54.360,15.516 54.360,15.464 C54.387,15.464 54.413,15.464 54.440,15.464 C54.492,15.305 54.545,15.146 54.598,14.988 C54.624,14.988 54.650,14.988 54.677,14.988 C54.677,14.909 54.677,14.829 54.677,14.750 C54.703,14.750 54.729,14.750 54.756,14.750 C54.782,14.644 54.808,14.538 54.835,14.433 C54.861,14.433 54.887,14.433 54.914,14.433 C54.914,14.353 54.914,14.274 54.914,14.195 C54.940,14.195 54.966,14.195 54.993,14.195 C54.993,14.115 54.993,14.036 54.993,13.957 C55.019,13.957 55.045,13.957 55.072,13.957 C55.098,13.772 55.124,13.587 55.151,13.402 C55.177,13.402 55.203,13.402 55.230,13.402 C55.256,13.164 55.282,12.926 55.309,12.688 C55.335,12.688 55.361,12.688 55.388,12.688 C55.388,12.239 55.388,11.789 55.388,11.340 C55.361,11.340 55.335,11.340 55.309,11.340 C55.309,11.234 55.309,11.128 55.309,11.023 C55.282,11.023 55.256,11.023 55.230,11.023 C55.230,10.970 55.230,10.917 55.230,10.864 C55.132,10.673 54.978,10.558 54.914,10.309 C54.737,10.263 54.715,10.243 54.598,10.150 C54.598,10.124 54.598,10.098 54.598,10.071 C54.545,10.071 54.492,10.071 54.440,10.071 C54.413,10.018 54.387,9.965 54.360,9.913 C54.308,9.913 54.255,9.913 54.202,9.913 C54.202,9.886 54.202,9.860 54.202,9.833 C54.123,9.833 54.044,9.833 53.965,9.833 C53.965,9.807 53.965,9.780 53.965,9.754 C53.886,9.754 53.807,9.754 53.728,9.754 C53.728,9.728 53.728,9.701 53.728,9.675 C53.623,9.675 53.518,9.675 53.412,9.675 C53.412,9.648 53.412,9.622 53.412,9.595 C53.307,9.595 53.202,9.595 53.096,9.595 C53.096,9.569 53.096,9.542 53.096,9.516 C52.938,9.516 52.780,9.516 52.622,9.516 C51.537,9.198 50.049,9.445 48.830,9.437 C48.586,9.013 48.424,8.918 48.040,8.644 C47.987,8.564 47.934,8.485 47.881,8.406 C47.829,8.406 47.776,8.406 47.723,8.406 C47.697,8.353 47.671,8.300 47.644,8.247 C47.592,8.247 47.539,8.247 47.486,8.247 C47.486,8.221 47.486,8.194 47.486,8.168 C47.434,8.168 47.381,8.168 47.328,8.168 C47.328,8.142 47.328,8.115 47.328,8.089 C47.276,8.089 47.223,8.089 47.170,8.089 C47.170,8.062 47.170,8.036 47.170,8.009 C47.118,8.009 47.065,8.009 47.012,8.009 C47.012,7.983 47.012,7.956 47.012,7.930 C46.960,7.930 46.907,7.930 46.854,7.930 C46.828,7.877 46.802,7.824 46.775,7.771 C46.696,7.771 46.617,7.771 46.538,7.771 C46.538,7.745 46.538,7.719 46.538,7.692 C46.433,7.666 46.328,7.639 46.222,7.613 C46.222,7.586 46.222,7.560 46.222,7.534 C46.064,7.507 45.906,7.481 45.748,7.454 C45.748,7.428 45.748,7.401 45.748,7.375 C45.669,7.375 45.590,7.375 45.511,7.375 C45.511,7.349 45.511,7.322 45.511,7.296 C45.432,7.296 45.353,7.296 45.274,7.296 C45.274,7.269 45.274,7.243 45.274,7.216 C45.195,7.216 45.116,7.216 45.037,7.216 C45.037,7.190 45.037,7.163 45.037,7.137 C44.958,7.137 44.879,7.137 44.800,7.137 C44.800,7.111 44.800,7.084 44.800,7.058 C44.721,7.058 44.642,7.058 44.563,7.058 C44.563,7.031 44.563,7.005 44.563,6.978 C44.352,6.952 44.142,6.926 43.931,6.899 C43.931,6.873 43.931,6.846 43.931,6.820 C43.826,6.820 43.720,6.820 43.615,6.820 C43.615,6.793 43.615,6.767 43.615,6.741 C43.483,6.741 43.351,6.741 43.220,6.741 C43.220,6.714 43.220,6.688 43.220,6.661 C43.088,6.661 42.956,6.661 42.825,6.661 C42.825,6.635 42.825,6.608 42.825,6.582 C42.719,6.582 42.614,6.582 42.509,6.582 C42.509,6.556 42.509,6.529 42.509,6.503 C42.403,6.503 42.298,6.503 42.193,6.503 C42.193,6.476 42.193,6.450 42.193,6.423 C42.061,6.423 41.929,6.423 41.798,6.423 C41.798,6.397 41.798,6.370 41.798,6.344 C41.692,6.344 41.587,6.344 41.481,6.344 C41.481,6.318 41.481,6.291 41.481,6.265 C41.376,6.265 41.271,6.265 41.165,6.265 C41.165,6.238 41.165,6.212 41.165,6.185 C41.034,6.185 40.902,6.185 40.770,6.185 C40.770,6.159 40.770,6.133 40.770,6.106 C40.639,6.106 40.507,6.106 40.375,6.106 C39.476,5.822 38.423,5.672 37.531,5.392 C37.136,5.340 36.741,5.287 36.346,5.234 C36.346,5.207 36.346,5.181 36.346,5.155 C36.240,5.155 36.135,5.155 36.030,5.155 C36.030,5.128 36.030,5.102 36.030,5.075 C35.924,5.075 35.819,5.075 35.714,5.075 C35.714,5.049 35.714,5.022 35.714,4.996 C35.582,4.996 35.450,4.996 35.319,4.996 C35.319,4.970 35.319,4.943 35.319,4.917 C35.213,4.917 35.108,4.917 35.002,4.917 C35.002,4.890 35.002,4.864 35.002,4.837 C34.897,4.837 34.792,4.837 34.686,4.837 C34.686,4.811 34.686,4.784 34.686,4.758 C34.423,4.732 34.160,4.705 33.896,4.679 C33.896,4.652 33.896,4.626 33.896,4.599 C33.633,4.573 33.370,4.547 33.106,4.520 C33.106,4.494 33.106,4.467 33.106,4.441 C33.001,4.441 32.895,4.441 32.790,4.441 C32.790,4.414 32.790,4.388 32.790,4.362 C32.685,4.362 32.579,4.362 32.474,4.362 C32.474,4.335 32.474,4.309 32.474,4.282 C32.342,4.282 32.211,4.282 32.079,4.282 C32.079,4.256 32.079,4.229 32.079,4.203 C31.974,4.203 31.868,4.203 31.763,4.203 C31.763,4.176 31.763,4.150 31.763,4.124 C31.658,4.124 31.552,4.124 31.447,4.124 C31.447,4.097 31.447,4.071 31.447,4.044 C31.210,4.018 30.973,3.991 30.736,3.965 C30.736,3.939 30.736,3.912 30.736,3.886 C30.446,3.859 30.156,3.833 29.867,3.806 C28.110,3.250 26.017,3.025 24.257,2.458 C23.993,2.432 23.730,2.405 23.467,2.379 C22.692,2.134 21.777,1.989 21.017,1.745 C20.491,1.665 19.964,1.586 19.437,1.507 C18.246,1.119 16.767,0.943 15.565,0.555 C15.434,0.555 15.302,0.555 15.170,0.555 C15.170,0.529 15.170,0.502 15.170,0.476 C15.065,0.476 14.960,0.476 14.854,0.476 C14.854,0.449 14.854,0.423 14.854,0.397 C14.749,0.397 14.644,0.397 14.538,0.397 C14.538,0.370 14.538,0.344 14.538,0.317 C14.407,0.317 14.275,0.317 14.143,0.317 C14.143,0.291 14.143,0.264 14.143,0.238 C13.856,0.148 13.623,0.262 13.432,0.079 C13.342,0.012 13.421,0.089 13.353,0.000 C29.812,0.000 46.277,0.000 62.736,0.000 ZM25.679,10.626 C25.687,11.064 25.871,11.347 25.995,11.657 C26.021,11.816 26.048,11.974 26.074,12.133 C26.100,12.133 26.127,12.133 26.153,12.133 C26.153,12.212 26.153,12.292 26.153,12.371 C26.179,12.371 26.206,12.371 26.232,12.371 C26.232,12.450 26.232,12.529 26.232,12.609 C26.258,12.609 26.285,12.609 26.311,12.609 C26.311,12.688 26.311,12.767 26.311,12.847 C26.337,12.847 26.364,12.847 26.390,12.847 C26.390,12.926 26.390,13.005 26.390,13.085 C26.416,13.085 26.443,13.085 26.469,13.085 C26.469,13.164 26.469,13.243 26.469,13.322 C26.495,13.322 26.522,13.322 26.548,13.322 C26.548,13.402 26.548,13.481 26.548,13.560 C26.574,13.560 26.601,13.560 26.627,13.560 C26.680,13.825 26.733,14.089 26.785,14.353 C27.418,15.938 27.891,17.758 28.523,19.349 C28.732,19.873 28.789,20.434 28.998,20.935 C29.261,20.830 29.524,20.724 29.788,20.618 C29.788,20.592 29.788,20.565 29.788,20.539 C29.867,20.539 29.946,20.539 30.025,20.539 C30.025,20.512 30.025,20.486 30.025,20.460 C30.130,20.433 30.235,20.407 30.341,20.380 C30.341,20.354 30.341,20.327 30.341,20.301 C30.420,20.301 30.499,20.301 30.578,20.301 C30.578,20.274 30.578,20.248 30.578,20.222 C30.630,20.222 30.683,20.222 30.736,20.222 C30.736,20.195 30.736,20.169 30.736,20.142 C30.841,20.116 30.947,20.089 31.052,20.063 C31.052,20.037 31.052,20.010 31.052,19.984 C31.131,19.984 31.210,19.984 31.289,19.984 C31.289,19.957 31.289,19.931 31.289,19.904 C31.421,19.878 31.552,19.852 31.684,19.825 C31.684,19.799 31.684,19.772 31.684,19.746 C31.737,19.746 31.789,19.746 31.842,19.746 C31.842,19.719 31.842,19.693 31.842,19.667 C31.921,19.667 32.000,19.667 32.079,19.667 C32.079,19.640 32.079,19.614 32.079,19.587 C32.184,19.561 32.290,19.534 32.395,19.508 C32.395,19.481 32.395,19.455 32.395,19.429 C32.474,19.429 32.553,19.429 32.632,19.429 C32.632,19.402 32.632,19.376 32.632,19.349 C32.685,19.349 32.737,19.349 32.790,19.349 C32.790,19.323 32.790,19.296 32.790,19.270 C32.922,19.244 33.054,19.217 33.185,19.191 C33.185,19.164 33.185,19.138 33.185,19.111 C33.264,19.111 33.343,19.111 33.422,19.111 C33.422,19.085 33.422,19.059 33.422,19.032 C33.475,19.032 33.528,19.032 33.580,19.032 C33.580,19.006 33.580,18.979 33.580,18.953 C33.738,18.926 33.896,18.900 34.054,18.874 C34.054,18.847 34.054,18.821 34.054,18.794 C34.160,18.768 34.265,18.741 34.370,18.715 C34.370,18.688 34.370,18.662 34.370,18.636 C34.449,18.636 34.528,18.636 34.607,18.636 C34.607,18.609 34.607,18.583 34.607,18.556 C34.660,18.556 34.713,18.556 34.765,18.556 C34.765,18.530 34.765,18.503 34.765,18.477 C34.923,18.451 35.081,18.424 35.240,18.398 C35.240,18.371 35.240,18.345 35.240,18.318 C35.398,18.292 35.556,18.266 35.714,18.239 C35.714,18.213 35.714,18.186 35.714,18.160 C35.766,18.160 35.819,18.160 35.872,18.160 C35.872,18.133 35.872,18.107 35.872,18.081 C36.030,18.054 36.188,18.028 36.346,18.001 C36.346,17.975 36.346,17.948 36.346,17.922 C36.398,17.922 36.451,17.922 36.504,17.922 C36.504,17.895 36.504,17.869 36.504,17.843 C36.662,17.816 36.820,17.790 36.978,17.763 C36.978,17.737 36.978,17.710 36.978,17.684 C37.030,17.684 37.083,17.684 37.136,17.684 C37.136,17.658 37.136,17.631 37.136,17.605 C37.399,17.552 37.663,17.499 37.926,17.446 C37.926,17.420 37.926,17.393 37.926,17.367 C38.005,17.367 38.084,17.367 38.163,17.367 C38.163,17.340 38.163,17.314 38.163,17.288 C38.216,17.288 38.268,17.288 38.321,17.288 C38.321,17.261 38.321,17.235 38.321,17.208 C38.558,17.155 38.795,17.102 39.032,17.050 C39.032,17.023 39.032,16.997 39.032,16.970 C39.111,16.970 39.190,16.970 39.269,16.970 C39.269,16.944 39.269,16.917 39.269,16.891 C39.348,16.891 39.427,16.891 39.506,16.891 C39.506,16.865 39.506,16.838 39.506,16.812 C39.691,16.785 39.875,16.759 40.059,16.732 C40.059,16.706 40.059,16.680 40.059,16.653 C40.323,16.600 40.586,16.547 40.849,16.495 C40.849,16.468 40.849,16.442 40.849,16.415 C40.928,16.415 41.007,16.415 41.086,16.415 C41.086,16.389 41.086,16.362 41.086,16.336 C41.271,16.309 41.455,16.283 41.640,16.257 C41.640,16.230 41.640,16.204 41.640,16.177 C41.956,16.124 42.272,16.072 42.588,16.019 C43.435,15.729 44.464,15.575 45.353,15.305 C45.537,15.305 45.722,15.305 45.906,15.305 C45.906,15.279 45.906,15.252 45.906,15.226 C46.064,15.226 46.222,15.226 46.380,15.226 C46.380,15.199 46.380,15.173 46.380,15.146 C46.828,15.120 47.276,15.094 47.723,15.067 C48.005,14.987 49.711,14.877 50.094,14.988 C50.094,15.014 50.094,15.041 50.094,15.067 C50.278,15.067 50.463,15.067 50.647,15.067 C50.884,15.146 51.121,15.226 51.358,15.305 C51.444,15.470 51.485,15.445 51.516,15.702 C48.195,16.189 45.202,16.834 42.430,17.843 C42.166,17.895 41.903,17.948 41.640,18.001 C41.640,18.028 41.640,18.054 41.640,18.081 C41.561,18.081 41.481,18.081 41.402,18.081 C41.402,18.107 41.402,18.133 41.402,18.160 C41.323,18.160 41.244,18.160 41.165,18.160 C41.165,18.186 41.165,18.213 41.165,18.239 C41.086,18.239 41.007,18.239 40.928,18.239 C40.928,18.266 40.928,18.292 40.928,18.318 C40.849,18.318 40.770,18.318 40.691,18.318 C40.691,18.345 40.691,18.371 40.691,18.398 C40.639,18.398 40.586,18.398 40.533,18.398 C40.533,18.424 40.533,18.451 40.533,18.477 C40.270,18.530 40.007,18.583 39.743,18.636 C39.743,18.662 39.743,18.688 39.743,18.715 C39.691,18.715 39.638,18.715 39.585,18.715 C39.585,18.741 39.585,18.768 39.585,18.794 C39.427,18.821 39.269,18.847 39.111,18.874 C39.111,18.900 39.111,18.926 39.111,18.953 C39.058,18.953 39.006,18.953 38.953,18.953 C38.953,18.979 38.953,19.006 38.953,19.032 C38.795,19.059 38.637,19.085 38.479,19.111 C38.479,19.138 38.479,19.164 38.479,19.191 C38.426,19.191 38.374,19.191 38.321,19.191 C38.321,19.217 38.321,19.244 38.321,19.270 C38.084,19.323 37.847,19.376 37.610,19.429 C37.610,19.455 37.610,19.481 37.610,19.508 C37.557,19.508 37.505,19.508 37.452,19.508 C37.452,19.534 37.452,19.561 37.452,19.587 C37.373,19.587 37.294,19.587 37.215,19.587 C37.215,19.614 37.215,19.640 37.215,19.667 C37.162,19.667 37.109,19.667 37.057,19.667 C37.057,19.693 37.057,19.719 37.057,19.746 C36.925,19.772 36.793,19.799 36.662,19.825 C36.662,19.852 36.662,19.878 36.662,19.904 C36.583,19.904 36.504,19.904 36.425,19.904 C36.425,19.931 36.425,19.957 36.425,19.984 C36.372,19.984 36.319,19.984 36.267,19.984 C36.267,20.010 36.267,20.037 36.267,20.063 C36.109,20.089 35.951,20.116 35.793,20.142 C35.793,20.169 35.793,20.195 35.793,20.222 C35.687,20.248 35.582,20.274 35.477,20.301 C35.477,20.327 35.477,20.354 35.477,20.380 C35.398,20.380 35.319,20.380 35.240,20.380 C35.240,20.407 35.240,20.433 35.240,20.460 C35.134,20.486 35.029,20.512 34.923,20.539 C34.923,20.565 34.923,20.592 34.923,20.618 C34.844,20.618 34.765,20.618 34.686,20.618 C34.686,20.645 34.686,20.671 34.686,20.697 C34.634,20.697 34.581,20.697 34.528,20.697 C34.528,20.724 34.528,20.750 34.528,20.777 C34.397,20.803 34.265,20.830 34.133,20.856 C34.133,20.882 34.133,20.909 34.133,20.935 C34.054,20.935 33.975,20.935 33.896,20.935 C33.896,20.962 33.896,20.988 33.896,21.015 C33.738,21.067 33.580,21.120 33.422,21.173 C33.422,21.200 33.422,21.226 33.422,21.253 C33.370,21.253 33.317,21.253 33.264,21.253 C33.264,21.279 33.264,21.305 33.264,21.332 C33.185,21.332 33.106,21.332 33.027,21.332 C33.027,21.358 33.027,21.385 33.027,21.411 C32.922,21.438 32.816,21.464 32.711,21.490 C32.711,21.517 32.711,21.543 32.711,21.570 C32.632,21.570 32.553,21.570 32.474,21.570 C32.474,21.596 32.474,21.623 32.474,21.649 C32.421,21.649 32.369,21.649 32.316,21.649 C32.316,21.675 32.316,21.702 32.316,21.728 C32.263,21.728 32.211,21.728 32.158,21.728 C32.158,21.755 32.158,21.781 32.158,21.808 C32.000,21.861 31.842,21.913 31.684,21.966 C31.684,21.993 31.684,22.019 31.684,22.046 C31.605,22.046 31.526,22.046 31.447,22.046 C31.447,22.072 31.447,22.098 31.447,22.125 C31.342,22.151 31.236,22.178 31.131,22.204 C31.131,22.231 31.131,22.257 31.131,22.283 C31.052,22.283 30.973,22.283 30.894,22.283 C30.894,22.310 30.894,22.336 30.894,22.363 C30.788,22.389 30.683,22.416 30.578,22.442 C30.578,22.468 30.578,22.495 30.578,22.521 C30.525,22.521 30.472,22.521 30.420,22.521 C30.420,22.548 30.420,22.574 30.420,22.601 C30.367,22.601 30.314,22.601 30.262,22.601 C30.262,22.627 30.262,22.654 30.262,22.680 C30.209,22.680 30.156,22.680 30.104,22.680 C30.104,22.706 30.104,22.733 30.104,22.759 C29.946,22.812 29.788,22.865 29.630,22.918 C29.630,22.944 29.630,22.971 29.630,22.997 C29.551,22.997 29.472,22.997 29.393,22.997 C29.393,23.024 29.393,23.050 29.393,23.076 C29.235,23.129 29.077,23.182 28.919,23.235 C28.919,23.261 28.919,23.288 28.919,23.314 C28.866,23.314 28.813,23.314 28.760,23.314 C28.760,23.341 28.760,23.367 28.760,23.394 C28.708,23.394 28.655,23.394 28.602,23.394 C28.602,23.420 28.602,23.447 28.602,23.473 C28.550,23.473 28.497,23.473 28.444,23.473 C28.444,23.499 28.444,23.526 28.444,23.552 C28.392,23.552 28.339,23.552 28.286,23.552 C28.286,23.579 28.286,23.605 28.286,23.632 C28.234,23.632 28.181,23.632 28.128,23.632 C28.128,23.658 28.128,23.684 28.128,23.711 C28.076,23.711 28.023,23.711 27.970,23.711 C27.970,23.737 27.970,23.764 27.970,23.790 C27.891,23.790 27.812,23.790 27.733,23.790 C27.733,23.817 27.733,23.843 27.733,23.869 C27.575,23.922 27.417,23.975 27.259,24.028 C27.259,24.054 27.259,24.081 27.259,24.107 C27.207,24.107 27.154,24.107 27.101,24.107 C27.101,24.134 27.101,24.160 27.101,24.187 C27.049,24.187 26.996,24.187 26.943,24.187 C26.943,24.213 26.943,24.240 26.943,24.266 C26.891,24.266 26.838,24.266 26.785,24.266 C26.785,24.292 26.785,24.319 26.785,24.345 C26.364,24.530 25.942,24.715 25.521,24.900 C25.521,24.927 25.521,24.953 25.521,24.980 C25.468,24.980 25.416,24.980 25.363,24.980 C25.363,25.006 25.363,25.033 25.363,25.059 C25.284,25.059 25.205,25.059 25.126,25.059 C25.126,25.085 25.126,25.112 25.126,25.138 C24.968,25.191 24.810,25.244 24.652,25.297 C24.652,25.323 24.652,25.350 24.652,25.376 C24.599,25.376 24.546,25.376 24.494,25.376 C24.494,25.403 24.494,25.429 24.494,25.455 C24.441,25.455 24.388,25.455 24.336,25.455 C24.336,25.482 24.336,25.508 24.336,25.535 C24.283,25.535 24.230,25.535 24.178,25.535 C24.178,25.561 24.178,25.588 24.178,25.614 C24.125,25.614 24.072,25.614 24.020,25.614 C24.020,25.640 24.020,25.667 24.020,25.693 C23.967,25.693 23.914,25.693 23.862,25.693 C23.862,25.720 23.862,25.746 23.862,25.773 C23.809,25.773 23.756,25.773 23.704,25.773 C23.704,25.799 23.704,25.826 23.704,25.852 C23.651,25.852 23.598,25.852 23.546,25.852 C23.546,25.878 23.546,25.905 23.546,25.931 C23.467,25.931 23.388,25.931 23.309,25.931 C23.309,25.958 23.309,25.984 23.309,26.011 C23.151,26.063 22.993,26.116 22.835,26.169 C22.835,26.196 22.835,26.222 22.835,26.248 C22.782,26.248 22.729,26.248 22.677,26.248 C22.677,26.275 22.677,26.301 22.677,26.328 C22.624,26.328 22.571,26.328 22.519,26.328 C22.519,26.354 22.519,26.381 22.519,26.407 C22.466,26.407 22.413,26.407 22.360,26.407 C22.360,26.434 22.360,26.460 22.360,26.486 C21.939,26.671 21.518,26.856 21.096,27.041 C21.096,27.068 21.096,27.094 21.096,27.121 C20.991,27.147 20.886,27.174 20.780,27.200 C20.780,27.227 20.780,27.253 20.780,27.279 C20.701,27.279 20.622,27.279 20.543,27.279 C20.543,27.306 20.543,27.332 20.543,27.359 C20.491,27.359 20.438,27.359 20.385,27.359 C20.385,27.385 20.385,27.412 20.385,27.438 C20.280,27.464 20.174,27.491 20.069,27.517 C20.069,27.544 20.069,27.570 20.069,27.597 C19.964,27.623 19.858,27.649 19.753,27.676 C19.753,27.702 19.753,27.729 19.753,27.755 C19.700,27.755 19.648,27.755 19.595,27.755 C19.595,27.782 19.595,27.808 19.595,27.834 C19.542,27.834 19.490,27.834 19.437,27.834 C19.437,27.861 19.437,27.887 19.437,27.914 C19.384,27.914 19.332,27.914 19.279,27.914 C19.279,27.940 19.279,27.967 19.279,27.993 C19.226,27.993 19.174,27.993 19.121,27.993 C19.121,28.020 19.121,28.046 19.121,28.072 C19.068,28.072 19.016,28.072 18.963,28.072 C18.963,28.099 18.963,28.125 18.963,28.152 C18.726,28.231 18.489,28.310 18.252,28.390 C18.226,28.442 18.199,28.495 18.173,28.548 C18.120,28.548 18.067,28.548 18.015,28.548 C18.015,28.575 18.015,28.601 18.015,28.627 C17.909,28.654 17.804,28.680 17.699,28.707 C17.699,28.733 17.699,28.760 17.699,28.786 C17.620,28.786 17.541,28.786 17.462,28.786 C17.462,28.813 17.462,28.839 17.462,28.865 C17.304,28.918 17.146,28.971 16.988,29.024 C16.988,29.050 16.988,29.077 16.988,29.103 C16.935,29.103 16.882,29.103 16.830,29.103 C16.830,29.130 16.830,29.156 16.830,29.183 C16.777,29.183 16.724,29.183 16.672,29.183 C16.672,29.209 16.672,29.235 16.672,29.262 C16.619,29.262 16.566,29.262 16.514,29.262 C16.514,29.288 16.514,29.315 16.514,29.341 C16.461,29.341 16.408,29.341 16.356,29.341 C16.356,29.368 16.356,29.394 16.356,29.420 C16.303,29.420 16.250,29.420 16.198,29.420 C16.198,29.447 16.198,29.473 16.198,29.500 C16.092,29.526 15.987,29.553 15.881,29.579 C15.881,29.606 15.881,29.632 15.881,29.658 C15.829,29.658 15.776,29.658 15.723,29.658 C15.723,29.685 15.723,29.711 15.723,29.738 C15.671,29.738 15.618,29.738 15.565,29.738 C15.565,29.764 15.565,29.791 15.565,29.817 C15.513,29.817 15.460,29.817 15.407,29.817 C15.407,29.843 15.407,29.870 15.407,29.896 C15.355,29.896 15.302,29.896 15.249,29.896 C15.249,29.923 15.249,29.949 15.249,29.976 C15.144,30.002 15.039,30.028 14.933,30.055 C14.933,30.081 14.933,30.108 14.933,30.134 C14.828,30.161 14.723,30.187 14.617,30.213 C14.617,30.240 14.617,30.266 14.617,30.293 C14.538,30.293 14.459,30.293 14.380,30.293 C14.380,30.319 14.380,30.346 14.380,30.372 C14.222,30.425 14.064,30.478 13.906,30.531 C13.906,30.557 13.906,30.584 13.906,30.610 C13.854,30.610 13.801,30.610 13.748,30.610 C13.748,30.636 13.748,30.663 13.748,30.689 C13.643,30.716 13.537,30.742 13.432,30.769 C13.406,30.821 13.379,30.874 13.353,30.927 C13.274,30.927 13.195,30.927 13.116,30.927 C13.116,30.954 13.116,30.980 13.116,31.006 C13.063,31.006 13.011,31.006 12.958,31.006 C12.958,31.033 12.958,31.059 12.958,31.086 C12.905,31.086 12.853,31.086 12.800,31.086 C12.800,31.112 12.800,31.139 12.800,31.165 C12.747,31.165 12.695,31.165 12.642,31.165 C12.642,31.192 12.642,31.218 12.642,31.244 C12.589,31.244 12.537,31.244 12.484,31.244 C12.484,31.271 12.484,31.297 12.484,31.324 C12.431,31.324 12.379,31.324 12.326,31.324 C12.326,31.350 12.326,31.377 12.326,31.403 C12.273,31.403 12.221,31.403 12.168,31.403 C12.168,31.429 12.168,31.456 12.168,31.482 C12.115,31.482 12.063,31.482 12.010,31.482 C12.010,31.509 12.010,31.535 12.010,31.562 C11.957,31.562 11.905,31.562 11.852,31.562 C11.852,31.588 11.852,31.614 11.852,31.641 C11.799,31.641 11.746,31.641 11.694,31.641 C11.694,31.667 11.694,31.694 11.694,31.720 C11.641,31.720 11.588,31.720 11.536,31.720 C11.536,31.747 11.536,31.773 11.536,31.800 C11.483,31.800 11.430,31.800 11.378,31.800 C11.378,31.826 11.378,31.852 11.378,31.879 C11.325,31.879 11.272,31.879 11.220,31.879 C11.220,31.905 11.220,31.932 11.220,31.958 C11.167,31.958 11.114,31.958 11.062,31.958 C11.062,31.985 11.062,32.011 11.062,32.037 C11.009,32.037 10.956,32.037 10.904,32.037 C10.904,32.064 10.904,32.090 10.904,32.117 C10.851,32.117 10.798,32.117 10.746,32.117 C10.746,32.143 10.746,32.170 10.746,32.196 C10.693,32.196 10.640,32.196 10.588,32.196 C10.588,32.222 10.588,32.249 10.588,32.275 C10.535,32.275 10.482,32.275 10.430,32.275 C10.430,32.302 10.430,32.328 10.430,32.355 C10.377,32.355 10.324,32.355 10.272,32.355 C10.272,32.381 10.272,32.407 10.272,32.434 C10.219,32.434 10.166,32.434 10.114,32.434 C10.114,32.460 10.114,32.487 10.114,32.513 C10.061,32.513 10.008,32.513 9.956,32.513 C9.956,32.540 9.956,32.566 9.956,32.593 C9.798,32.645 9.639,32.698 9.481,32.751 C9.481,32.778 9.481,32.804 9.481,32.830 C9.323,32.883 9.165,32.936 9.007,32.989 C9.007,33.015 9.007,33.042 9.007,33.068 C8.902,33.095 8.797,33.121 8.691,33.148 C8.691,33.174 8.691,33.200 8.691,33.227 C8.586,33.253 8.481,33.280 8.375,33.306 C8.375,33.333 8.375,33.359 8.375,33.386 C8.323,33.386 8.270,33.386 8.217,33.386 C8.217,33.412 8.217,33.438 8.217,33.465 C8.165,33.465 8.112,33.465 8.059,33.465 C8.059,33.491 8.059,33.518 8.059,33.544 C8.007,33.544 7.954,33.544 7.901,33.544 C7.901,33.571 7.901,33.597 7.901,33.623 C7.849,33.623 7.796,33.623 7.743,33.623 C7.743,33.650 7.743,33.676 7.743,33.703 C7.691,33.703 7.638,33.703 7.585,33.703 C7.585,33.729 7.585,33.756 7.585,33.782 C7.533,33.782 7.480,33.782 7.427,33.782 C7.427,33.808 7.427,33.835 7.427,33.861 C7.374,33.861 7.322,33.861 7.269,33.861 C7.269,33.888 7.269,33.914 7.269,33.941 C7.216,33.941 7.164,33.941 7.111,33.941 C7.111,33.967 7.111,33.993 7.111,34.020 C7.058,34.020 7.006,34.020 6.953,34.020 C6.953,34.046 6.953,34.073 6.953,34.099 C6.900,34.099 6.848,34.099 6.795,34.099 C5.850,34.606 4.862,35.146 3.872,35.606 C3.872,35.474 3.872,35.342 3.872,35.209 C4.024,35.028 3.945,34.751 4.030,34.496 C4.056,34.496 4.082,34.496 4.109,34.496 C4.135,34.258 4.161,34.020 4.188,33.782 C4.214,33.782 4.240,33.782 4.267,33.782 C4.267,33.650 4.267,33.518 4.267,33.386 C4.293,33.386 4.319,33.386 4.346,33.386 C4.346,33.227 4.346,33.068 4.346,32.910 C4.734,31.681 4.895,30.185 5.294,28.945 C5.294,28.813 5.294,28.680 5.294,28.548 C5.320,28.548 5.347,28.548 5.373,28.548 C5.373,28.442 5.373,28.337 5.373,28.231 C5.399,28.231 5.426,28.231 5.452,28.231 C5.452,28.099 5.452,27.967 5.452,27.834 C5.478,27.834 5.505,27.834 5.531,27.834 C5.531,27.729 5.531,27.623 5.531,27.517 C5.557,27.517 5.584,27.517 5.610,27.517 C5.610,27.385 5.610,27.253 5.610,27.121 C5.636,27.121 5.663,27.121 5.689,27.121 C5.689,26.989 5.689,26.856 5.689,26.724 C5.715,26.724 5.742,26.724 5.768,26.724 C5.768,26.592 5.768,26.460 5.768,26.328 C5.794,26.328 5.821,26.328 5.847,26.328 C5.847,26.196 5.847,26.063 5.847,25.931 C6.391,24.250 6.570,22.224 7.111,20.539 C7.137,20.275 7.164,20.010 7.190,19.746 C7.216,19.746 7.243,19.746 7.269,19.746 C7.269,19.614 7.269,19.481 7.269,19.349 C7.295,19.349 7.322,19.349 7.348,19.349 C7.348,19.217 7.348,19.085 7.348,18.953 C7.374,18.953 7.401,18.953 7.427,18.953 C7.453,18.715 7.480,18.477 7.506,18.239 C7.533,18.239 7.559,18.239 7.585,18.239 C7.585,18.133 7.585,18.028 7.585,17.922 C7.612,17.922 7.638,17.922 7.664,17.922 C7.664,17.790 7.664,17.658 7.664,17.525 C7.691,17.525 7.717,17.525 7.743,17.525 C7.770,17.288 7.796,17.050 7.822,16.812 C7.849,16.812 7.875,16.812 7.901,16.812 C7.901,16.706 7.901,16.600 7.901,16.495 C7.928,16.495 7.954,16.495 7.980,16.495 C7.980,16.336 7.980,16.177 7.980,16.019 C8.007,16.019 8.033,16.019 8.059,16.019 C8.059,15.887 8.059,15.754 8.059,15.622 C8.303,14.864 8.451,13.933 8.691,13.164 C8.744,12.767 8.797,12.371 8.849,11.974 C8.876,11.974 8.902,11.974 8.928,11.974 C8.955,11.736 8.981,11.499 9.007,11.261 C9.034,11.261 9.060,11.261 9.086,11.261 C9.086,11.155 9.086,11.049 9.086,10.943 C9.113,10.943 9.139,10.943 9.165,10.943 C9.192,10.706 9.218,10.468 9.244,10.230 C9.271,10.230 9.297,10.230 9.323,10.230 C9.350,9.965 9.376,9.701 9.402,9.437 C9.531,9.025 9.688,8.501 9.719,8.009 C11.430,7.983 13.143,7.956 14.854,7.930 C19.937,7.930 25.021,7.930 30.104,7.930 C30.104,7.956 30.104,7.983 30.104,8.009 C30.367,8.009 30.630,8.009 30.894,8.009 C32.316,8.009 33.738,8.009 35.160,8.009 C35.160,8.036 35.160,8.062 35.160,8.089 C35.898,8.089 36.635,8.089 37.373,8.089 C37.373,8.115 37.373,8.142 37.373,8.168 C37.794,8.168 38.216,8.168 38.637,8.168 C39.450,8.401 40.523,8.335 41.323,8.564 C41.771,8.591 42.219,8.617 42.667,8.644 C42.667,8.670 42.667,8.697 42.667,8.723 C42.904,8.723 43.141,8.723 43.378,8.723 C43.378,8.749 43.378,8.776 43.378,8.802 C43.562,8.802 43.747,8.802 43.931,8.802 C43.931,8.829 43.931,8.855 43.931,8.882 C44.089,8.882 44.247,8.882 44.405,8.882 C44.405,8.908 44.405,8.935 44.405,8.961 C44.510,8.961 44.616,8.961 44.721,8.961 C44.721,8.987 44.721,9.014 44.721,9.040 C44.853,9.040 44.984,9.040 45.116,9.040 C45.116,9.067 45.116,9.093 45.116,9.120 C45.195,9.120 45.274,9.120 45.353,9.120 C45.353,9.146 45.353,9.172 45.353,9.199 C45.432,9.199 45.511,9.199 45.590,9.199 C45.590,9.225 45.590,9.252 45.590,9.278 C45.669,9.278 45.748,9.278 45.827,9.278 C45.827,9.305 45.827,9.331 45.827,9.357 C45.906,9.357 45.985,9.357 46.064,9.357 C46.064,9.384 46.064,9.410 46.064,9.437 C46.170,9.463 46.275,9.490 46.380,9.516 C46.380,9.542 46.380,9.569 46.380,9.595 C46.486,9.622 46.591,9.648 46.696,9.675 C46.723,9.728 46.749,9.780 46.775,9.833 C46.828,9.833 46.881,9.833 46.933,9.833 C46.960,9.886 46.986,9.939 47.012,9.992 C47.223,10.177 47.434,10.362 47.644,10.547 C47.644,10.573 47.644,10.600 47.644,10.626 C47.618,10.626 47.592,10.626 47.565,10.626 C47.334,10.828 46.455,10.706 46.064,10.706 C44.695,10.679 43.325,10.653 41.956,10.626 C36.531,10.626 31.104,10.626 25.679,10.626 ZM47.802,10.706 C49.251,10.706 50.700,10.706 52.148,10.706 C52.148,10.732 52.148,10.758 52.148,10.785 C52.359,10.785 52.570,10.785 52.780,10.785 C52.780,10.811 52.780,10.838 52.780,10.864 C52.886,10.864 52.991,10.864 53.096,10.864 C53.096,10.891 53.096,10.917 53.096,10.943 C53.175,10.943 53.254,10.943 53.333,10.943 C53.333,10.970 53.333,10.996 53.333,11.023 C53.386,11.023 53.439,11.023 53.491,11.023 C53.518,11.076 53.544,11.129 53.570,11.181 C53.649,11.208 53.728,11.234 53.807,11.261 C53.807,11.314 53.807,11.366 53.807,11.419 C53.860,11.446 53.913,11.472 53.965,11.499 C54.058,11.641 53.966,11.677 54.123,11.816 C54.135,12.200 54.161,12.734 54.044,13.005 C54.018,13.005 53.992,13.005 53.965,13.005 C53.965,13.058 53.965,13.111 53.965,13.164 C53.939,13.164 53.913,13.164 53.886,13.164 C53.860,13.322 53.834,13.481 53.807,13.640 C53.781,13.640 53.755,13.640 53.728,13.640 C53.702,13.745 53.676,13.851 53.649,13.957 C53.623,13.957 53.597,13.957 53.570,13.957 C53.570,14.036 53.570,14.115 53.570,14.195 C53.544,14.195 53.518,14.195 53.491,14.195 C53.491,14.248 53.491,14.301 53.491,14.353 C53.465,14.353 53.439,14.353 53.412,14.353 C53.412,14.406 53.412,14.459 53.412,14.512 C53.386,14.512 53.360,14.512 53.333,14.512 C53.333,14.565 53.333,14.618 53.333,14.671 C53.307,14.671 53.281,14.671 53.254,14.671 C53.254,14.723 53.254,14.776 53.254,14.829 C53.228,14.829 53.202,14.829 53.175,14.829 C53.175,14.882 53.175,14.935 53.175,14.988 C53.149,14.988 53.123,14.988 53.096,14.988 C53.096,15.041 53.096,15.094 53.096,15.146 C53.070,15.146 53.044,15.146 53.017,15.146 C53.017,15.199 53.017,15.252 53.017,15.305 C52.991,15.305 52.965,15.305 52.938,15.305 C52.938,15.358 52.938,15.411 52.938,15.464 C52.912,15.464 52.886,15.464 52.859,15.464 C52.859,15.516 52.859,15.569 52.859,15.622 C52.833,15.622 52.807,15.622 52.780,15.622 C52.780,15.675 52.780,15.728 52.780,15.781 C52.728,15.807 52.675,15.834 52.622,15.860 C52.452,16.127 52.611,16.236 52.227,16.336 C52.227,16.362 52.227,16.389 52.227,16.415 C52.201,16.415 52.174,16.415 52.148,16.415 C52.148,16.389 52.148,16.362 52.148,16.336 C52.122,16.336 52.095,16.336 52.069,16.336 C52.069,16.230 52.069,16.124 52.069,16.019 C52.095,16.019 52.122,16.019 52.148,16.019 C52.174,15.887 52.201,15.754 52.227,15.622 C52.253,15.622 52.280,15.622 52.306,15.622 C52.306,15.543 52.306,15.464 52.306,15.384 C52.333,15.384 52.359,15.384 52.385,15.384 C52.385,15.331 52.385,15.279 52.385,15.226 C52.412,15.226 52.438,15.226 52.464,15.226 C52.491,15.067 52.517,14.908 52.543,14.750 C52.769,14.218 53.532,12.679 52.385,12.609 C52.178,12.429 50.680,12.529 50.252,12.529 C48.408,12.582 46.564,12.635 44.721,12.688 C44.300,12.688 42.873,12.787 42.667,12.609 C42.577,12.518 42.635,12.608 42.588,12.450 C43.868,12.257 45.188,12.150 46.222,11.736 C46.301,11.736 46.380,11.736 46.459,11.736 C46.459,11.710 46.459,11.684 46.459,11.657 C46.538,11.657 46.617,11.657 46.696,11.657 C46.696,11.631 46.696,11.604 46.696,11.578 C46.749,11.578 46.802,11.578 46.854,11.578 C46.854,11.551 46.854,11.525 46.854,11.499 C46.907,11.499 46.960,11.499 47.012,11.499 C47.012,11.472 47.012,11.446 47.012,11.419 C47.065,11.419 47.118,11.419 47.170,11.419 C47.170,11.393 47.170,11.366 47.170,11.340 C47.474,11.164 47.718,11.107 47.802,10.706 ZM4.030,39.888 C4.015,40.294 3.890,40.681 3.793,40.998 C3.766,41.263 3.740,41.527 3.714,41.791 C3.536,42.364 3.372,43.094 3.240,43.695 C3.292,43.959 3.345,44.223 3.398,44.488 C3.538,44.559 3.771,44.684 3.872,44.805 C4.294,44.812 4.623,44.794 4.899,44.646 C4.899,44.620 4.899,44.593 4.899,44.567 C4.951,44.567 5.004,44.567 5.057,44.567 C5.057,44.540 5.057,44.514 5.057,44.488 C5.177,44.395 5.196,44.379 5.373,44.329 C5.416,44.149 5.441,44.132 5.531,44.012 C5.557,44.012 5.584,44.012 5.610,44.012 C5.636,43.880 5.663,43.747 5.689,43.615 C5.715,43.615 5.742,43.615 5.768,43.615 C5.768,43.457 5.768,43.298 5.768,43.139 C5.794,43.139 5.821,43.139 5.847,43.139 C5.873,42.902 5.900,42.664 5.926,42.426 C5.952,42.426 5.979,42.426 6.005,42.426 C6.031,42.188 6.058,41.950 6.084,41.712 C6.110,41.712 6.137,41.712 6.163,41.712 C6.163,41.606 6.163,41.501 6.163,41.395 C6.189,41.395 6.216,41.395 6.242,41.395 C6.242,41.263 6.242,41.131 6.242,40.998 C6.268,40.998 6.295,40.998 6.321,40.998 C6.374,40.655 6.426,40.311 6.479,39.967 C6.505,39.967 6.532,39.967 6.558,39.967 C6.748,39.794 7.484,39.880 7.822,39.888 C7.776,40.180 7.661,40.523 7.585,40.760 C7.585,40.893 7.585,41.025 7.585,41.157 C7.559,41.157 7.533,41.157 7.506,41.157 C7.506,41.316 7.506,41.474 7.506,41.633 C7.480,41.633 7.453,41.633 7.427,41.633 C7.427,41.765 7.427,41.897 7.427,42.029 C7.401,42.029 7.374,42.029 7.348,42.029 C7.348,42.135 7.348,42.241 7.348,42.346 C7.322,42.346 7.295,42.346 7.269,42.346 C7.137,43.034 7.006,43.721 6.874,44.408 C6.848,44.408 6.821,44.408 6.795,44.408 C6.795,44.461 6.795,44.514 6.795,44.567 C6.716,44.620 6.637,44.673 6.558,44.725 C6.532,44.805 6.505,44.884 6.479,44.963 C6.426,44.963 6.374,44.963 6.321,44.963 C6.268,45.043 6.216,45.122 6.163,45.201 C6.058,45.228 5.952,45.254 5.847,45.281 C5.821,45.333 5.794,45.386 5.768,45.439 C4.838,45.931 2.398,45.909 2.133,44.884 C1.971,44.748 1.778,44.091 1.896,43.695 C2.140,42.877 2.273,41.872 2.528,41.078 C2.528,40.946 2.528,40.813 2.528,40.681 C2.555,40.681 2.581,40.681 2.607,40.681 C2.691,40.427 2.608,40.135 2.765,39.967 C2.955,39.794 3.691,39.880 4.030,39.888 ZM8.612,39.888 C9.165,39.888 9.719,39.888 10.272,39.888 C10.298,39.967 10.324,40.047 10.351,40.126 C10.667,41.051 10.983,41.976 11.299,42.902 C11.299,42.981 11.299,43.060 11.299,43.139 C11.325,43.139 11.351,43.139 11.378,43.139 C11.378,43.219 11.378,43.298 11.378,43.377 C11.404,43.377 11.430,43.377 11.457,43.377 C11.483,43.536 11.509,43.695 11.536,43.853 C11.562,43.853 11.588,43.853 11.615,43.853 C11.615,43.827 11.615,43.800 11.615,43.774 C11.641,43.774 11.667,43.774 11.694,43.774 C11.746,43.404 11.799,43.034 11.852,42.664 C12.127,41.823 12.308,40.803 12.484,39.888 C12.879,39.888 13.274,39.888 13.669,39.888 C13.274,41.791 12.879,43.695 12.484,45.598 C12.106,45.739 11.411,45.681 10.904,45.677 C10.430,44.356 9.956,43.034 9.481,41.712 C9.455,41.712 9.429,41.712 9.402,41.712 C9.404,42.162 9.269,42.499 9.165,42.822 C9.165,42.954 9.165,43.087 9.165,43.219 C9.053,43.575 8.961,44.131 8.849,44.488 C8.849,44.620 8.849,44.752 8.849,44.884 C8.823,44.884 8.797,44.884 8.770,44.884 C8.680,45.171 8.795,45.407 8.612,45.598 C8.441,45.755 7.818,45.685 7.506,45.677 C7.461,45.556 7.446,45.547 7.427,45.360 C7.453,45.360 7.480,45.360 7.506,45.360 C7.559,45.016 7.612,44.673 7.664,44.329 C7.691,44.329 7.717,44.329 7.743,44.329 C7.743,44.197 7.743,44.065 7.743,43.932 C7.770,43.932 7.796,43.932 7.822,43.932 C7.822,43.827 7.822,43.721 7.822,43.615 C7.939,43.259 8.022,42.703 8.138,42.346 C8.138,42.241 8.138,42.135 8.138,42.029 C8.165,42.029 8.191,42.029 8.217,42.029 C8.217,41.897 8.217,41.765 8.217,41.633 C8.379,41.129 8.575,40.501 8.612,39.888 ZM14.459,39.888 C14.907,39.888 15.355,39.888 15.802,39.888 C15.407,41.791 15.012,43.695 14.617,45.598 C14.316,45.711 13.776,45.681 13.353,45.677 C13.327,45.598 13.300,45.518 13.274,45.439 C13.427,45.262 13.349,44.980 13.432,44.725 C13.458,44.725 13.485,44.725 13.511,44.725 C13.511,44.593 13.511,44.461 13.511,44.329 C13.537,44.329 13.564,44.329 13.590,44.329 C13.590,44.197 13.590,44.065 13.590,43.932 C13.770,43.371 13.886,42.604 14.064,42.029 C14.064,41.897 14.064,41.765 14.064,41.633 C14.225,41.129 14.422,40.501 14.459,39.888 ZM16.356,39.888 C17.962,39.888 19.569,39.888 21.175,39.888 C21.164,40.314 21.013,40.563 20.938,40.919 C20.359,40.919 19.779,40.919 19.200,40.919 C19.095,41.501 18.989,42.082 18.884,42.664 C18.858,42.664 18.831,42.664 18.805,42.664 C18.805,42.796 18.805,42.928 18.805,43.060 C18.779,43.060 18.752,43.060 18.726,43.060 C18.726,43.166 18.726,43.272 18.726,43.377 C18.700,43.377 18.673,43.377 18.647,43.377 C18.647,43.510 18.647,43.642 18.647,43.774 C18.621,43.774 18.594,43.774 18.568,43.774 C18.568,43.932 18.568,44.091 18.568,44.250 C18.542,44.250 18.515,44.250 18.489,44.250 C18.489,44.382 18.489,44.514 18.489,44.646 C18.463,44.646 18.436,44.646 18.410,44.646 C18.357,44.963 18.305,45.281 18.252,45.598 C18.226,45.598 18.199,45.598 18.173,45.598 C17.992,45.763 17.313,45.685 16.988,45.677 C16.942,45.556 16.927,45.547 16.909,45.360 C17.061,45.183 16.983,44.900 17.067,44.646 C17.093,44.646 17.119,44.646 17.146,44.646 C17.146,44.514 17.146,44.382 17.146,44.250 C17.172,44.250 17.198,44.250 17.225,44.250 C17.251,44.012 17.277,43.774 17.304,43.536 C17.330,43.536 17.356,43.536 17.383,43.536 C17.383,43.430 17.383,43.325 17.383,43.219 C17.409,43.219 17.435,43.219 17.462,43.219 C17.462,43.087 17.462,42.954 17.462,42.822 C17.488,42.822 17.514,42.822 17.541,42.822 C17.541,42.664 17.541,42.505 17.541,42.346 C17.670,41.917 17.826,41.444 17.857,40.919 C17.310,40.927 16.533,40.995 16.119,40.840 C16.198,40.523 16.277,40.205 16.356,39.888 ZM21.728,39.888 C23.124,39.888 24.520,39.888 25.916,39.888 C25.863,40.205 25.811,40.523 25.758,40.840 C24.784,40.840 23.809,40.840 22.835,40.840 C22.805,41.278 22.663,41.904 22.519,42.267 C23.361,42.267 24.204,42.267 25.047,42.267 C24.994,42.558 24.942,42.849 24.889,43.139 C24.046,43.139 23.203,43.139 22.360,43.139 C22.255,43.642 22.150,44.144 22.044,44.646 C22.992,44.646 23.941,44.646 24.889,44.646 C24.887,44.887 24.759,45.488 24.652,45.598 C24.471,45.758 23.866,45.677 23.546,45.677 C22.545,45.677 21.544,45.677 20.543,45.677 C20.538,45.098 20.720,44.606 20.859,44.170 C20.886,43.933 20.912,43.695 20.938,43.457 C20.965,43.457 20.991,43.457 21.017,43.457 C21.070,43.060 21.123,42.664 21.175,42.267 C21.360,41.474 21.544,40.681 21.728,39.888 ZM25.363,45.677 C25.371,45.275 25.505,44.880 25.600,44.567 C25.626,44.276 25.653,43.985 25.679,43.695 C25.895,43.011 26.017,42.164 26.232,41.474 C26.232,41.342 26.232,41.210 26.232,41.078 C26.258,41.078 26.285,41.078 26.311,41.078 C26.311,40.946 26.311,40.813 26.311,40.681 C26.337,40.681 26.364,40.681 26.390,40.681 C26.480,40.394 26.365,40.158 26.548,39.967 C26.691,39.840 27.073,39.888 27.338,39.888 C28.023,39.888 28.708,39.888 29.393,39.888 C29.393,39.915 29.393,39.941 29.393,39.967 C29.577,39.967 29.761,39.967 29.946,39.967 C29.946,39.994 29.946,40.020 29.946,40.047 C30.104,40.073 30.262,40.100 30.420,40.126 C30.420,40.152 30.420,40.179 30.420,40.205 C30.525,40.232 30.630,40.258 30.736,40.285 C30.736,40.311 30.736,40.338 30.736,40.364 C30.894,40.496 31.052,40.628 31.210,40.760 C31.210,40.813 31.210,40.866 31.210,40.919 C31.236,40.919 31.263,40.919 31.289,40.919 C31.315,41.104 31.342,41.289 31.368,41.474 C31.394,41.474 31.421,41.474 31.447,41.474 C31.573,41.901 31.316,43.032 31.210,43.298 C31.184,43.298 31.157,43.298 31.131,43.298 C31.052,43.536 30.973,43.774 30.894,44.012 C29.842,45.676 28.058,45.710 25.363,45.677 ZM32.632,45.677 C32.685,45.333 32.737,44.990 32.790,44.646 C33.619,44.653 34.617,44.696 35.319,44.567 C35.345,44.488 35.371,44.408 35.398,44.329 C35.558,44.160 35.439,43.890 35.398,43.695 C35.113,43.621 34.965,43.387 34.765,43.219 C34.765,43.192 34.765,43.166 34.765,43.139 C34.075,42.637 33.413,42.295 33.422,41.078 C33.542,40.977 33.695,40.701 33.738,40.523 C33.916,40.476 33.935,40.456 34.054,40.364 C34.054,40.338 34.054,40.311 34.054,40.285 C34.107,40.285 34.160,40.285 34.212,40.285 C34.212,40.258 34.212,40.232 34.212,40.205 C34.265,40.205 34.318,40.205 34.370,40.205 C34.370,40.179 34.370,40.152 34.370,40.126 C34.449,40.126 34.528,40.126 34.607,40.126 C34.607,40.100 34.607,40.073 34.607,40.047 C34.713,40.047 34.818,40.047 34.923,40.047 C35.584,39.833 36.573,39.894 37.452,39.888 C37.452,39.915 37.452,39.941 37.452,39.967 C37.478,39.967 37.505,39.967 37.531,39.967 C37.501,40.173 37.410,40.720 37.294,40.840 C37.105,41.009 35.644,40.926 35.240,40.919 C35.149,41.009 35.239,40.951 35.081,40.998 C34.988,41.208 34.930,41.297 34.923,41.633 C35.529,42.214 36.135,42.796 36.741,43.377 C36.832,43.510 36.741,43.558 36.899,43.695 C36.899,43.985 36.899,44.276 36.899,44.567 C36.872,44.567 36.846,44.567 36.820,44.567 C36.820,44.620 36.820,44.673 36.820,44.725 C36.793,44.725 36.767,44.725 36.741,44.725 C36.085,45.895 34.421,45.700 32.632,45.677 ZM40.770,40.919 C40.769,41.474 40.592,42.062 40.454,42.505 C40.454,42.637 40.454,42.769 40.454,42.902 C40.428,42.902 40.402,42.902 40.375,42.902 C40.375,43.007 40.375,43.113 40.375,43.219 C40.349,43.219 40.323,43.219 40.296,43.219 C40.296,43.351 40.296,43.483 40.296,43.615 C40.105,44.206 39.952,44.950 39.822,45.598 C39.521,45.711 38.981,45.681 38.558,45.677 C38.552,45.061 38.730,44.567 38.874,44.091 C38.900,43.800 38.927,43.510 38.953,43.219 C39.177,42.523 39.355,41.678 39.506,40.919 C38.927,40.919 38.347,40.919 37.768,40.919 C37.770,40.634 37.860,40.108 38.005,39.967 C38.205,39.791 38.921,39.888 39.269,39.888 C40.428,39.888 41.587,39.888 42.746,39.888 C42.746,39.915 42.746,39.941 42.746,39.967 C42.772,39.967 42.798,39.967 42.825,39.967 C42.746,40.258 42.667,40.549 42.588,40.840 C42.151,41.002 41.341,40.923 40.770,40.919 ZM43.852,39.888 C44.379,39.888 44.905,39.888 45.432,39.888 C45.511,40.522 45.590,41.157 45.669,41.791 C45.695,41.791 45.722,41.791 45.748,41.791 C45.801,42.346 45.854,42.902 45.906,43.457 C46.087,44.071 46.228,44.916 46.301,45.598 C45.997,45.710 45.462,45.677 45.037,45.677 C44.221,45.677 43.404,45.677 42.588,45.677 C42.632,45.201 42.951,45.056 43.062,44.646 C43.641,44.646 44.221,44.646 44.800,44.646 C44.808,43.475 44.428,42.554 44.405,41.395 C44.352,41.395 44.300,41.395 44.247,41.395 C44.192,41.638 44.035,41.766 43.931,41.950 C43.931,42.003 43.931,42.056 43.931,42.109 C43.878,42.135 43.826,42.161 43.773,42.188 C43.747,42.294 43.720,42.399 43.694,42.505 C43.641,42.532 43.588,42.558 43.536,42.584 C43.536,42.637 43.536,42.690 43.536,42.743 C43.509,42.743 43.483,42.743 43.457,42.743 C43.457,42.796 43.457,42.849 43.457,42.902 C43.430,42.902 43.404,42.902 43.378,42.902 C43.378,42.954 43.378,43.007 43.378,43.060 C43.351,43.060 43.325,43.060 43.299,43.060 C43.299,43.113 43.299,43.166 43.299,43.219 C43.246,43.245 43.193,43.272 43.141,43.298 C43.114,43.404 43.088,43.510 43.062,43.615 C43.009,43.642 42.956,43.668 42.904,43.695 C42.904,43.747 42.904,43.800 42.904,43.853 C42.877,43.853 42.851,43.853 42.825,43.853 C42.825,43.906 42.825,43.959 42.825,44.012 C42.798,44.012 42.772,44.012 42.746,44.012 C42.746,44.065 42.746,44.118 42.746,44.170 C42.719,44.170 42.693,44.170 42.667,44.170 C42.667,44.223 42.667,44.276 42.667,44.329 C42.614,44.355 42.561,44.382 42.509,44.408 C42.509,44.461 42.509,44.514 42.509,44.567 C42.272,44.937 42.035,45.307 41.798,45.677 C41.429,45.677 41.060,45.677 40.691,45.677 C40.665,45.598 40.639,45.518 40.612,45.439 C40.802,45.308 40.662,45.380 40.770,45.201 C40.797,45.201 40.823,45.201 40.849,45.201 C40.849,45.148 40.849,45.096 40.849,45.043 C40.902,45.016 40.955,44.990 41.007,44.963 C41.007,44.911 41.007,44.858 41.007,44.805 C41.034,44.805 41.060,44.805 41.086,44.805 C41.086,44.752 41.086,44.699 41.086,44.646 C41.113,44.646 41.139,44.646 41.165,44.646 C41.165,44.593 41.165,44.540 41.165,44.488 C41.218,44.461 41.271,44.435 41.323,44.408 C41.350,44.303 41.376,44.197 41.402,44.091 C41.455,44.065 41.508,44.038 41.560,44.012 C41.613,43.853 41.666,43.695 41.719,43.536 C41.771,43.510 41.824,43.483 41.877,43.457 C41.929,43.298 41.982,43.139 42.035,42.981 C42.087,42.954 42.140,42.928 42.193,42.902 C42.219,42.796 42.245,42.690 42.272,42.584 C42.324,42.558 42.377,42.532 42.430,42.505 C42.482,42.346 42.535,42.188 42.588,42.029 C42.640,42.003 42.693,41.976 42.746,41.950 C42.746,41.897 42.746,41.844 42.746,41.791 C42.772,41.791 42.798,41.791 42.825,41.791 C42.825,41.739 42.825,41.686 42.825,41.633 C42.877,41.606 42.930,41.580 42.983,41.553 C43.035,41.395 43.088,41.236 43.141,41.078 C43.193,41.051 43.246,41.025 43.299,40.998 C43.351,40.840 43.404,40.681 43.457,40.523 C43.509,40.496 43.562,40.470 43.615,40.443 C43.615,40.390 43.615,40.338 43.615,40.285 C43.641,40.285 43.667,40.285 43.694,40.285 C43.694,40.232 43.694,40.179 43.694,40.126 C43.720,40.126 43.747,40.126 43.773,40.126 C43.799,40.047 43.826,39.967 43.852,39.888 ZM46.538,39.888 C47.644,39.888 48.751,39.888 49.857,39.888 C50.366,39.888 51.056,39.827 51.437,39.967 C51.358,40.179 51.279,40.390 51.200,40.602 C51.200,40.681 51.200,40.760 51.200,40.840 C51.174,40.840 51.147,40.840 51.121,40.840 C50.945,40.999 49.752,40.926 49.383,40.919 C49.381,41.471 49.202,42.003 49.067,42.426 C49.067,42.558 49.067,42.690 49.067,42.822 C49.040,42.822 49.014,42.822 48.988,42.822 C48.988,42.928 48.988,43.034 48.988,43.139 C48.961,43.139 48.935,43.139 48.909,43.139 C48.909,43.272 48.909,43.404 48.909,43.536 C48.882,43.536 48.856,43.536 48.830,43.536 C48.777,43.932 48.724,44.329 48.672,44.725 C48.595,44.975 48.492,45.318 48.435,45.598 C48.134,45.711 47.593,45.681 47.170,45.677 C47.144,45.598 47.118,45.518 47.091,45.439 C47.118,45.439 47.144,45.439 47.170,45.439 C47.223,45.096 47.276,44.752 47.328,44.408 C47.355,44.408 47.381,44.408 47.407,44.408 C47.407,44.276 47.407,44.144 47.407,44.012 C47.584,43.446 47.703,42.669 47.881,42.109 C47.881,41.976 47.881,41.844 47.881,41.712 C47.960,41.448 48.040,41.183 48.119,40.919 C47.539,40.919 46.960,40.919 46.380,40.919 C46.433,40.575 46.486,40.232 46.538,39.888 ZM51.911,39.888 C53.307,39.888 54.703,39.888 56.099,39.888 C56.046,40.205 55.993,40.523 55.941,40.840 C54.993,40.840 54.044,40.840 53.096,40.840 C53.030,40.930 53.106,40.851 53.017,40.919 C52.988,41.352 52.843,41.912 52.701,42.267 C53.544,42.267 54.387,42.267 55.230,42.267 C55.177,42.558 55.124,42.849 55.072,43.139 C54.229,43.139 53.386,43.139 52.543,43.139 C52.456,43.643 52.315,44.039 52.306,44.646 C53.228,44.646 54.150,44.646 55.072,44.646 C55.069,44.887 54.942,45.488 54.835,45.598 C54.654,45.758 54.048,45.677 53.728,45.677 C52.754,45.677 51.779,45.677 50.805,45.677 C50.757,45.550 50.735,45.489 50.726,45.281 C50.752,45.281 50.779,45.281 50.805,45.281 C50.805,45.148 50.805,45.016 50.805,44.884 C50.831,44.884 50.858,44.884 50.884,44.884 C50.884,44.778 50.884,44.673 50.884,44.567 C50.910,44.567 50.937,44.567 50.963,44.567 C50.963,44.435 50.963,44.303 50.963,44.170 C50.989,44.170 51.016,44.170 51.042,44.170 C51.042,44.065 51.042,43.959 51.042,43.853 C51.332,42.532 51.621,41.210 51.911,39.888 ZM60.049,40.919 C59.385,40.903 58.029,40.744 57.758,41.157 C57.732,41.157 57.705,41.157 57.679,41.157 C57.653,41.289 57.626,41.421 57.600,41.553 C57.626,41.553 57.653,41.553 57.679,41.553 C57.775,41.902 58.016,41.899 58.232,42.109 C58.680,42.584 59.128,43.060 59.575,43.536 C59.602,43.880 59.628,44.223 59.654,44.567 C59.499,44.705 59.587,44.752 59.496,44.884 C59.365,44.990 59.233,45.096 59.101,45.201 C59.101,45.228 59.101,45.254 59.101,45.281 C58.606,45.615 56.161,45.913 55.309,45.598 C55.415,45.315 55.512,44.988 55.546,44.646 C56.336,44.646 57.126,44.646 57.916,44.646 C58.088,44.357 58.230,44.369 58.232,43.853 C58.074,43.721 57.916,43.589 57.758,43.457 C57.732,43.404 57.705,43.351 57.679,43.298 C57.626,43.298 57.574,43.298 57.521,43.298 C57.389,43.139 57.258,42.981 57.126,42.822 C56.517,42.380 56.170,42.154 56.178,41.078 C56.204,41.078 56.230,41.078 56.257,41.078 C56.257,40.998 56.257,40.919 56.257,40.840 C56.309,40.813 56.362,40.787 56.415,40.760 C56.415,40.708 56.415,40.655 56.415,40.602 C56.441,40.602 56.467,40.602 56.494,40.602 C56.520,40.549 56.547,40.496 56.573,40.443 C56.626,40.443 56.678,40.443 56.731,40.443 C56.757,40.390 56.784,40.338 56.810,40.285 C56.915,40.258 57.021,40.232 57.126,40.205 C57.126,40.179 57.126,40.152 57.126,40.126 C57.605,39.917 59.668,39.738 60.286,39.967 C60.186,40.239 60.108,40.609 60.049,40.919 ZM26.864,44.646 C27.286,44.646 27.707,44.646 28.128,44.646 C28.128,44.620 28.128,44.593 28.128,44.567 C28.234,44.567 28.339,44.567 28.444,44.567 C28.444,44.540 28.444,44.514 28.444,44.488 C28.523,44.488 28.602,44.488 28.681,44.488 C28.681,44.461 28.681,44.435 28.681,44.408 C28.734,44.408 28.787,44.408 28.840,44.408 C28.840,44.382 28.840,44.355 28.840,44.329 C28.892,44.329 28.945,44.329 28.998,44.329 C29.024,44.276 29.050,44.223 29.077,44.170 C29.129,44.170 29.182,44.170 29.235,44.170 C29.314,44.065 29.393,43.959 29.472,43.853 C29.498,43.853 29.524,43.853 29.551,43.853 C29.551,43.800 29.551,43.747 29.551,43.695 C29.603,43.668 29.656,43.642 29.709,43.615 C29.709,43.562 29.709,43.510 29.709,43.457 C29.761,43.430 29.814,43.404 29.867,43.377 C29.867,43.298 29.867,43.219 29.867,43.139 C29.893,43.139 29.919,43.139 29.946,43.139 C29.946,43.087 29.946,43.034 29.946,42.981 C29.972,42.981 29.998,42.981 30.025,42.981 C30.025,42.849 30.025,42.717 30.025,42.584 C30.069,42.432 30.200,41.903 30.104,41.633 C30.077,41.633 30.051,41.633 30.025,41.633 C29.998,41.527 29.972,41.421 29.946,41.316 C29.761,41.183 29.577,41.051 29.393,40.919 C28.813,40.919 28.234,40.919 27.654,40.919 C27.654,40.945 27.654,40.972 27.654,40.998 C27.628,40.998 27.602,40.998 27.575,40.998 C27.567,41.288 27.480,41.510 27.417,41.712 C27.365,42.109 27.312,42.505 27.259,42.902 C27.097,43.407 26.905,44.031 26.864,44.646 ZM1.343,46.232 C21.832,46.232 42.326,46.232 62.815,46.232 C62.815,46.338 62.815,46.444 62.815,46.549 C42.300,46.549 21.779,46.549 1.264,46.549 C1.264,46.523 1.264,46.497 1.264,46.470 C1.291,46.470 1.317,46.470 1.343,46.470 C1.343,46.391 1.343,46.311 1.343,46.232 ZM8.375,47.025 C9.131,47.012 9.895,47.053 10.351,47.342 C10.377,47.395 10.403,47.448 10.430,47.501 C10.482,47.501 10.535,47.501 10.588,47.501 C10.614,47.554 10.640,47.607 10.667,47.660 C10.772,47.739 10.877,47.818 10.983,47.898 C11.009,48.003 11.035,48.109 11.062,48.215 C11.088,48.215 11.114,48.215 11.141,48.215 C11.141,48.268 11.141,48.320 11.141,48.373 C11.167,48.373 11.193,48.373 11.220,48.373 C11.274,48.500 11.431,49.454 11.378,49.642 C11.351,49.642 11.325,49.642 11.299,49.642 C11.299,49.827 11.299,50.012 11.299,50.197 C11.272,50.197 11.246,50.197 11.220,50.197 C11.220,50.303 11.220,50.409 11.220,50.514 C11.193,50.514 11.167,50.514 11.141,50.514 C11.141,50.620 11.141,50.726 11.141,50.832 C11.114,50.832 11.088,50.832 11.062,50.832 C11.035,50.937 11.009,51.043 10.983,51.149 C10.956,51.149 10.930,51.149 10.904,51.149 C10.877,51.255 10.851,51.360 10.825,51.466 C10.746,51.519 10.667,51.572 10.588,51.625 C10.588,51.677 10.588,51.730 10.588,51.783 C10.535,51.810 10.482,51.836 10.430,51.863 C10.351,51.968 10.272,52.074 10.193,52.180 C10.140,52.180 10.087,52.180 10.035,52.180 C10.008,52.233 9.982,52.285 9.956,52.338 C9.877,52.365 9.798,52.391 9.719,52.418 C9.719,52.444 9.719,52.471 9.719,52.497 C9.613,52.523 9.508,52.550 9.402,52.576 C8.630,52.986 7.703,53.165 6.795,52.814 C6.716,52.814 6.637,52.814 6.558,52.814 C6.558,52.788 6.558,52.761 6.558,52.735 C6.453,52.708 6.347,52.682 6.242,52.656 C6.216,52.603 6.189,52.550 6.163,52.497 C6.110,52.497 6.058,52.497 6.005,52.497 C5.979,52.444 5.952,52.391 5.926,52.338 C5.768,52.206 5.610,52.074 5.452,51.942 C5.452,51.889 5.452,51.836 5.452,51.783 C5.426,51.783 5.399,51.783 5.373,51.783 C5.298,51.686 5.314,51.630 5.215,51.545 C5.194,51.154 4.985,50.513 5.136,50.039 C5.162,50.039 5.188,50.039 5.215,50.039 C5.267,49.801 5.320,49.563 5.373,49.325 C5.399,49.325 5.426,49.325 5.452,49.325 C5.505,49.166 5.557,49.008 5.610,48.849 C5.636,48.849 5.663,48.849 5.689,48.849 C5.689,48.796 5.689,48.743 5.689,48.691 C5.715,48.691 5.742,48.691 5.768,48.691 C5.768,48.638 5.768,48.585 5.768,48.532 C5.847,48.479 5.926,48.426 6.005,48.373 C6.005,48.320 6.005,48.268 6.005,48.215 C6.058,48.188 6.110,48.162 6.163,48.135 C6.242,48.030 6.321,47.924 6.400,47.818 C6.453,47.818 6.505,47.818 6.558,47.818 C6.584,47.765 6.611,47.712 6.637,47.660 C6.690,47.660 6.742,47.660 6.795,47.660 C6.821,47.607 6.848,47.554 6.874,47.501 C6.927,47.501 6.979,47.501 7.032,47.501 C7.032,47.475 7.032,47.448 7.032,47.422 C7.137,47.395 7.243,47.369 7.348,47.342 C7.348,47.316 7.348,47.290 7.348,47.263 C7.427,47.263 7.506,47.263 7.585,47.263 C7.585,47.237 7.585,47.210 7.585,47.184 C7.691,47.184 7.796,47.184 7.901,47.184 C7.901,47.157 7.901,47.131 7.901,47.105 C8.059,47.105 8.217,47.105 8.375,47.105 C8.375,47.078 8.375,47.052 8.375,47.025 ZM57.758,47.184 C57.763,47.571 57.710,47.929 57.600,48.215 C57.442,48.153 57.153,48.073 56.968,48.056 C55.099,47.884 54.609,48.487 54.123,49.721 C54.097,49.721 54.071,49.721 54.044,49.721 C53.992,50.065 53.939,50.409 53.886,50.752 C53.965,50.990 54.044,51.228 54.123,51.466 C54.202,51.519 54.281,51.572 54.360,51.625 C54.360,51.651 54.360,51.678 54.360,51.704 C54.519,51.757 54.677,51.810 54.835,51.863 C54.835,51.889 54.835,51.915 54.835,51.942 C55.458,52.188 56.496,51.977 56.968,51.783 C56.968,51.836 56.968,51.889 56.968,51.942 C56.942,51.942 56.915,51.942 56.889,51.942 C56.889,52.048 56.889,52.153 56.889,52.259 C56.863,52.259 56.836,52.259 56.810,52.259 C56.784,52.444 56.757,52.629 56.731,52.814 C56.705,52.814 56.678,52.814 56.652,52.814 C56.411,53.045 55.338,52.996 54.835,52.973 C54.028,52.935 53.185,52.463 52.859,51.942 C52.859,51.889 52.859,51.836 52.859,51.783 C52.833,51.783 52.807,51.783 52.780,51.783 C52.780,51.730 52.780,51.677 52.780,51.625 C52.754,51.625 52.728,51.625 52.701,51.625 C52.701,51.545 52.701,51.466 52.701,51.387 C52.609,51.140 52.410,50.558 52.543,50.118 C52.570,50.118 52.596,50.118 52.622,50.118 C52.622,50.012 52.622,49.906 52.622,49.801 C52.649,49.801 52.675,49.801 52.701,49.801 C52.701,49.695 52.701,49.589 52.701,49.484 C52.728,49.484 52.754,49.484 52.780,49.484 C52.780,49.404 52.780,49.325 52.780,49.246 C52.807,49.246 52.833,49.246 52.859,49.246 C52.886,49.140 52.912,49.034 52.938,48.928 C52.965,48.928 52.991,48.928 53.017,48.928 C53.017,48.876 53.017,48.823 53.017,48.770 C53.070,48.743 53.123,48.717 53.175,48.691 C53.175,48.638 53.175,48.585 53.175,48.532 C53.281,48.453 53.386,48.373 53.491,48.294 C53.491,48.241 53.491,48.188 53.491,48.135 C53.518,48.135 53.544,48.135 53.570,48.135 C53.623,48.056 53.676,47.977 53.728,47.898 C53.781,47.898 53.834,47.898 53.886,47.898 C53.939,47.818 53.992,47.739 54.044,47.660 C54.150,47.633 54.255,47.607 54.360,47.580 C54.387,47.527 54.413,47.475 54.440,47.422 C54.519,47.422 54.598,47.422 54.677,47.422 C54.677,47.395 54.677,47.369 54.677,47.342 C54.729,47.342 54.782,47.342 54.835,47.342 C54.835,47.316 54.835,47.290 54.835,47.263 C54.914,47.263 54.993,47.263 55.072,47.263 C55.382,47.141 56.416,46.864 56.968,47.025 C57.192,47.091 57.459,47.164 57.758,47.184 ZM4.899,47.501 C4.950,47.682 4.968,47.692 5.057,47.818 C5.083,47.818 5.109,47.818 5.136,47.818 C5.162,48.003 5.188,48.188 5.215,48.373 C5.241,48.373 5.267,48.373 5.294,48.373 C5.333,48.524 5.110,49.397 5.057,49.484 C5.004,49.510 4.951,49.536 4.899,49.563 C4.331,50.410 3.552,50.865 2.133,50.594 C2.107,50.329 2.081,50.065 2.054,49.801 C2.423,49.801 2.792,49.801 3.160,49.801 C3.160,49.774 3.160,49.748 3.160,49.721 C3.266,49.695 3.371,49.669 3.477,49.642 C3.690,49.271 3.936,49.147 3.951,48.532 C3.861,48.442 3.919,48.532 3.872,48.373 C3.640,48.238 3.645,48.144 3.240,48.135 C3.087,47.994 2.576,48.048 2.291,48.056 C1.949,49.668 1.607,51.281 1.264,52.893 C0.843,52.893 0.421,52.893 -0.000,52.893 C0.105,52.286 0.211,51.677 0.316,51.070 C0.342,51.070 0.369,51.070 0.395,51.070 C0.395,50.937 0.395,50.805 0.395,50.673 C0.583,50.079 0.682,49.275 0.869,48.691 C0.869,48.558 0.869,48.426 0.869,48.294 C0.895,48.294 0.922,48.294 0.948,48.294 C0.948,48.162 0.948,48.030 0.948,47.898 C0.974,47.898 1.001,47.898 1.027,47.898 C1.111,47.643 1.028,47.352 1.185,47.184 C1.328,47.056 1.710,47.105 1.975,47.105 C2.634,47.105 3.292,47.105 3.951,47.105 C3.951,47.131 3.951,47.157 3.951,47.184 C4.082,47.184 4.214,47.184 4.346,47.184 C4.346,47.210 4.346,47.237 4.346,47.263 C4.425,47.263 4.504,47.263 4.583,47.263 C4.583,47.290 4.583,47.316 4.583,47.342 C4.708,47.431 4.717,47.453 4.899,47.501 ZM15.802,47.105 C15.750,47.448 15.697,47.792 15.644,48.135 C14.980,48.120 13.624,47.960 13.353,48.373 C13.327,48.373 13.300,48.373 13.274,48.373 C13.248,48.505 13.221,48.638 13.195,48.770 C13.221,48.770 13.248,48.770 13.274,48.770 C13.274,48.823 13.274,48.876 13.274,48.928 C13.511,49.140 13.748,49.351 13.985,49.563 C14.012,49.616 14.038,49.669 14.064,49.721 C14.117,49.721 14.170,49.721 14.222,49.721 C14.301,49.827 14.380,49.933 14.459,50.039 C14.908,50.486 15.241,50.700 15.249,51.625 C15.148,51.724 15.047,52.011 15.012,52.180 C14.907,52.259 14.802,52.338 14.696,52.418 C14.696,52.444 14.696,52.471 14.696,52.497 C14.538,52.550 14.380,52.603 14.222,52.656 C14.222,52.682 14.222,52.708 14.222,52.735 C13.788,52.923 11.423,53.005 10.904,52.814 C10.999,52.559 11.054,52.289 11.062,51.942 C11.657,51.721 12.769,51.858 13.511,51.863 C13.683,51.573 13.825,51.586 13.827,51.070 C13.221,50.541 12.616,50.012 12.010,49.484 C12.010,49.431 12.010,49.378 12.010,49.325 C11.984,49.325 11.957,49.325 11.931,49.325 C11.855,49.227 11.873,49.171 11.773,49.087 C11.773,48.955 11.773,48.823 11.773,48.691 C11.769,48.673 11.670,48.663 11.694,48.532 C11.727,48.350 11.884,48.110 11.931,47.898 C12.010,47.845 12.089,47.792 12.168,47.739 C12.168,47.712 12.168,47.686 12.168,47.660 C12.221,47.660 12.273,47.660 12.326,47.660 C12.352,47.607 12.379,47.554 12.405,47.501 C12.510,47.475 12.616,47.448 12.721,47.422 C12.721,47.395 12.721,47.369 12.721,47.342 C12.800,47.342 12.879,47.342 12.958,47.342 C13.690,47.062 14.771,47.108 15.802,47.105 ZM21.096,47.105 C21.017,47.448 20.938,47.792 20.859,48.135 C20.280,48.135 19.700,48.135 19.121,48.135 C19.092,48.569 18.920,49.045 18.805,49.404 C18.805,49.536 18.805,49.669 18.805,49.801 C18.626,50.367 18.511,51.144 18.331,51.704 C18.331,51.836 18.331,51.968 18.331,52.100 C18.305,52.100 18.278,52.100 18.252,52.100 C18.162,52.387 18.277,52.623 18.094,52.814 C17.904,52.988 17.168,52.901 16.830,52.893 C16.832,52.341 17.010,51.810 17.146,51.387 C17.356,50.303 17.567,49.219 17.778,48.135 C17.198,48.135 16.619,48.135 16.040,48.135 C16.052,47.903 16.157,47.306 16.277,47.184 C16.477,47.007 17.193,47.105 17.541,47.105 C18.726,47.105 19.911,47.105 21.096,47.105 ZM23.704,47.105 C23.993,49.034 24.283,50.964 24.573,52.893 C23.335,52.893 22.097,52.893 20.859,52.893 C20.893,52.720 20.932,52.618 21.017,52.497 C21.044,52.497 21.070,52.497 21.096,52.497 C21.096,52.444 21.096,52.391 21.096,52.338 C21.127,52.284 21.376,51.881 21.412,51.863 C21.992,51.863 22.571,51.863 23.151,51.863 C23.064,50.740 22.707,49.715 22.677,48.532 C22.650,48.532 22.624,48.532 22.598,48.532 C22.598,48.585 22.598,48.638 22.598,48.691 C22.352,48.863 22.432,49.006 22.281,49.246 C22.229,49.272 22.176,49.298 22.123,49.325 C22.123,49.378 22.123,49.431 22.123,49.484 C22.097,49.484 22.071,49.484 22.044,49.484 C22.044,49.536 22.044,49.589 22.044,49.642 C22.018,49.642 21.992,49.642 21.965,49.642 C21.965,49.695 21.965,49.748 21.965,49.801 C21.913,49.827 21.860,49.854 21.807,49.880 C21.807,49.933 21.807,49.986 21.807,50.039 C21.781,50.039 21.755,50.039 21.728,50.039 C21.728,50.091 21.728,50.144 21.728,50.197 C21.702,50.197 21.676,50.197 21.649,50.197 C21.649,50.250 21.649,50.303 21.649,50.356 C21.597,50.382 21.544,50.409 21.491,50.435 C21.491,50.488 21.491,50.541 21.491,50.594 C21.465,50.594 21.439,50.594 21.412,50.594 C21.412,50.647 21.412,50.699 21.412,50.752 C21.386,50.752 21.360,50.752 21.333,50.752 C21.333,50.805 21.333,50.858 21.333,50.911 C21.307,50.911 21.281,50.911 21.254,50.911 C21.254,50.964 21.254,51.017 21.254,51.070 C21.202,51.096 21.149,51.122 21.096,51.149 C21.070,51.255 21.044,51.360 21.017,51.466 C20.965,51.492 20.912,51.519 20.859,51.545 C20.859,51.598 20.859,51.651 20.859,51.704 C20.833,51.704 20.807,51.704 20.780,51.704 C20.728,51.863 20.675,52.021 20.622,52.180 C20.570,52.206 20.517,52.233 20.464,52.259 C20.438,52.365 20.412,52.471 20.385,52.576 C20.333,52.603 20.280,52.629 20.227,52.656 C20.201,52.735 20.174,52.814 20.148,52.893 C19.727,52.893 19.305,52.893 18.884,52.893 C18.884,52.867 18.884,52.841 18.884,52.814 C19.990,50.911 21.096,49.008 22.202,47.105 C22.703,47.105 23.203,47.105 23.704,47.105 ZM27.417,47.105 C27.365,47.501 27.312,47.898 27.259,48.294 C27.233,48.294 27.207,48.294 27.180,48.294 C27.154,48.558 27.128,48.823 27.101,49.087 C27.075,49.087 27.049,49.087 27.022,49.087 C26.838,50.039 26.653,50.990 26.469,51.942 C27.312,51.942 28.155,51.942 28.998,51.942 C28.998,51.968 28.998,51.995 28.998,52.021 C28.971,52.021 28.945,52.021 28.919,52.021 C28.810,52.210 28.938,52.618 28.760,52.814 C28.589,52.966 28.040,52.893 27.733,52.893 C26.812,52.893 25.890,52.893 24.968,52.893 C24.959,52.294 25.140,51.756 25.284,51.307 C25.284,51.175 25.284,51.043 25.284,50.911 C25.471,50.320 25.569,49.533 25.758,48.928 C25.758,48.796 25.758,48.664 25.758,48.532 C25.784,48.532 25.811,48.532 25.837,48.532 C25.970,48.130 25.895,47.439 26.153,47.184 C26.343,47.010 27.079,47.097 27.417,47.105 ZM34.686,52.338 C34.508,52.385 34.491,52.406 34.370,52.497 C34.370,52.523 34.370,52.550 34.370,52.576 C34.196,52.687 33.952,52.657 33.738,52.735 C33.738,52.761 33.738,52.788 33.738,52.814 C33.580,52.814 33.422,52.814 33.264,52.814 C32.608,53.006 31.531,52.889 30.736,52.893 C30.788,52.550 30.841,52.206 30.894,51.863 C31.573,51.877 33.248,52.009 33.501,51.625 C33.750,51.384 33.570,51.202 33.501,50.911 C33.217,50.838 33.069,50.603 32.869,50.435 C32.869,50.409 32.869,50.382 32.869,50.356 C32.162,49.841 31.511,49.549 31.526,48.294 C31.682,48.156 31.593,48.109 31.684,47.977 C31.789,47.898 31.895,47.818 32.000,47.739 C32.026,47.686 32.053,47.633 32.079,47.580 C32.132,47.580 32.184,47.580 32.237,47.580 C32.263,47.527 32.290,47.475 32.316,47.422 C32.785,47.169 34.942,46.928 35.635,47.184 C35.572,47.368 35.503,47.943 35.398,48.056 C35.209,48.226 33.748,48.142 33.343,48.135 C33.253,48.226 33.343,48.167 33.185,48.215 C33.092,48.424 33.034,48.513 33.027,48.849 C33.633,49.431 34.239,50.012 34.844,50.594 C34.936,50.727 34.845,50.774 35.002,50.911 C35.002,51.202 35.002,51.492 35.002,51.783 C34.976,51.783 34.950,51.783 34.923,51.783 C34.923,51.836 34.923,51.889 34.923,51.942 C34.897,51.942 34.871,51.942 34.844,51.942 C34.844,51.995 34.844,52.048 34.844,52.100 C34.818,52.100 34.792,52.100 34.765,52.100 C34.739,52.180 34.713,52.259 34.686,52.338 ZM36.425,47.105 C37.820,47.105 39.217,47.105 40.612,47.105 C40.610,47.345 40.482,47.947 40.375,48.056 C40.233,48.183 39.850,48.135 39.585,48.135 C38.900,48.135 38.216,48.135 37.531,48.135 C37.452,48.585 37.373,49.034 37.294,49.484 C38.110,49.484 38.927,49.484 39.743,49.484 C39.691,49.774 39.638,50.065 39.585,50.356 C38.769,50.356 37.952,50.356 37.136,50.356 C37.109,50.435 37.083,50.514 37.057,50.594 C36.909,50.762 36.842,51.592 36.741,51.863 C37.689,51.863 38.637,51.863 39.585,51.863 C39.583,52.148 39.493,52.674 39.348,52.814 C39.167,52.974 38.562,52.893 38.242,52.893 C37.241,52.893 36.240,52.893 35.240,52.893 C35.345,52.286 35.450,51.677 35.556,51.070 C35.582,51.070 35.608,51.070 35.635,51.070 C35.635,50.937 35.635,50.805 35.635,50.673 C35.661,50.673 35.687,50.673 35.714,50.673 C35.740,50.435 35.766,50.197 35.793,49.959 C35.819,49.959 35.845,49.959 35.872,49.959 C35.872,49.801 35.872,49.642 35.872,49.484 C36.096,48.749 36.269,47.885 36.425,47.105 ZM44.642,52.893 C44.168,52.893 43.694,52.893 43.220,52.893 C43.220,52.867 43.220,52.841 43.220,52.814 C43.193,52.814 43.167,52.814 43.141,52.814 C43.111,52.432 42.937,52.149 42.825,51.863 C42.798,51.678 42.772,51.492 42.746,51.307 C42.719,51.307 42.693,51.307 42.667,51.307 C42.614,51.043 42.561,50.779 42.509,50.514 C42.412,50.247 42.300,50.113 42.272,49.721 C43.367,49.757 44.041,49.479 44.010,48.373 C43.899,48.315 43.771,48.231 43.694,48.135 C43.220,48.135 42.746,48.135 42.272,48.135 C42.264,48.521 42.126,48.865 42.035,49.166 C42.035,49.325 42.035,49.484 42.035,49.642 C42.008,49.642 41.982,49.642 41.956,49.642 C41.929,49.880 41.903,50.118 41.877,50.356 C41.850,50.356 41.824,50.356 41.798,50.356 C41.771,50.594 41.745,50.832 41.719,51.070 C41.692,51.070 41.666,51.070 41.640,51.070 C41.640,51.175 41.640,51.281 41.640,51.387 C41.613,51.387 41.587,51.387 41.560,51.387 C41.560,51.519 41.560,51.651 41.560,51.783 C41.534,51.783 41.508,51.783 41.481,51.783 C41.429,52.127 41.376,52.471 41.323,52.814 C41.297,52.814 41.271,52.814 41.244,52.814 C41.055,52.988 40.319,52.901 39.980,52.893 C40.217,51.678 40.454,50.461 40.691,49.246 C40.876,48.672 41.064,47.990 41.086,47.263 C41.695,46.947 43.054,47.099 43.931,47.105 C44.094,47.246 44.432,47.168 44.642,47.263 C44.642,47.290 44.642,47.316 44.642,47.342 C44.695,47.342 44.747,47.342 44.800,47.342 C44.826,47.395 44.853,47.448 44.879,47.501 C44.932,47.501 44.984,47.501 45.037,47.501 C45.037,47.527 45.037,47.554 45.037,47.580 C45.090,47.607 45.142,47.633 45.195,47.660 C45.312,47.812 45.115,47.741 45.353,47.898 C45.382,48.229 45.431,48.584 45.432,49.008 C45.235,49.182 45.259,49.429 45.116,49.642 C45.063,49.669 45.011,49.695 44.958,49.721 C44.879,49.827 44.800,49.933 44.721,50.039 C44.456,50.227 44.088,50.308 43.773,50.435 C43.799,50.514 43.826,50.594 43.852,50.673 C43.878,50.673 43.905,50.673 43.931,50.673 C43.931,50.752 43.931,50.832 43.931,50.911 C43.957,50.911 43.984,50.911 44.010,50.911 C44.010,50.990 44.010,51.070 44.010,51.149 C44.036,51.149 44.063,51.149 44.089,51.149 C44.089,51.202 44.089,51.255 44.089,51.307 C44.115,51.307 44.142,51.307 44.168,51.307 C44.168,51.387 44.168,51.466 44.168,51.545 C44.194,51.545 44.221,51.545 44.247,51.545 C44.247,51.651 44.247,51.757 44.247,51.863 C44.273,51.863 44.300,51.863 44.326,51.863 C44.326,51.915 44.326,51.968 44.326,52.021 C44.352,52.021 44.379,52.021 44.405,52.021 C44.484,52.312 44.563,52.603 44.642,52.893 ZM45.590,47.105 C46.011,47.105 46.433,47.105 46.854,47.105 C46.854,47.574 46.982,48.080 47.091,48.453 C47.091,48.638 47.091,48.823 47.091,49.008 C47.118,49.008 47.144,49.008 47.170,49.008 C47.170,49.219 47.170,49.431 47.170,49.642 C47.197,49.642 47.223,49.642 47.249,49.642 C47.249,49.827 47.249,50.012 47.249,50.197 C47.276,50.197 47.302,50.197 47.328,50.197 C47.381,50.620 47.434,51.043 47.486,51.466 C47.513,51.466 47.539,51.466 47.565,51.466 C47.565,51.413 47.565,51.360 47.565,51.307 C47.776,50.964 47.987,50.620 48.198,50.277 C48.198,50.224 48.198,50.171 48.198,50.118 C48.250,50.091 48.303,50.065 48.356,50.039 C48.356,49.986 48.356,49.933 48.356,49.880 C48.382,49.880 48.408,49.880 48.435,49.880 C48.435,49.827 48.435,49.774 48.435,49.721 C48.461,49.721 48.487,49.721 48.514,49.721 C48.514,49.669 48.514,49.616 48.514,49.563 C48.540,49.563 48.566,49.563 48.593,49.563 C48.593,49.510 48.593,49.457 48.593,49.404 C48.619,49.404 48.645,49.404 48.672,49.404 C48.672,49.351 48.672,49.298 48.672,49.246 C48.724,49.219 48.777,49.193 48.830,49.166 C48.830,49.113 48.830,49.061 48.830,49.008 C48.856,49.008 48.882,49.008 48.909,49.008 C48.909,48.955 48.909,48.902 48.909,48.849 C48.935,48.849 48.961,48.849 48.988,48.849 C48.988,48.796 48.988,48.743 48.988,48.691 C49.014,48.691 49.040,48.691 49.067,48.691 C49.067,48.638 49.067,48.585 49.067,48.532 C49.093,48.532 49.119,48.532 49.146,48.532 C49.146,48.479 49.146,48.426 49.146,48.373 C49.172,48.373 49.198,48.373 49.225,48.373 C49.251,48.268 49.277,48.162 49.304,48.056 C49.356,48.030 49.409,48.003 49.462,47.977 C49.462,47.924 49.462,47.871 49.462,47.818 C49.620,47.580 49.778,47.342 49.936,47.105 C50.331,47.105 50.726,47.105 51.121,47.105 C51.090,47.463 50.931,47.512 50.805,47.739 C50.779,47.845 50.752,47.950 50.726,48.056 C50.673,48.083 50.621,48.109 50.568,48.135 C50.515,48.294 50.463,48.453 50.410,48.611 C50.357,48.638 50.305,48.664 50.252,48.691 C50.199,48.849 50.146,49.008 50.094,49.166 C50.041,49.193 49.988,49.219 49.936,49.246 C49.883,49.404 49.830,49.563 49.778,49.721 C49.725,49.748 49.672,49.774 49.620,49.801 C49.567,49.959 49.514,50.118 49.462,50.277 C49.409,50.303 49.356,50.329 49.304,50.356 C49.251,50.514 49.198,50.673 49.146,50.832 C49.093,50.858 49.040,50.884 48.988,50.911 C48.961,51.017 48.935,51.122 48.909,51.228 C48.856,51.255 48.803,51.281 48.751,51.307 C48.751,51.360 48.751,51.413 48.751,51.466 C48.724,51.466 48.698,51.466 48.672,51.466 C48.672,51.519 48.672,51.572 48.672,51.625 C48.645,51.625 48.619,51.625 48.593,51.625 C48.593,51.677 48.593,51.730 48.593,51.783 C48.566,51.783 48.540,51.783 48.514,51.783 C48.514,51.836 48.514,51.889 48.514,51.942 C48.461,51.968 48.408,51.995 48.356,52.021 C48.329,52.127 48.303,52.233 48.277,52.338 C48.224,52.365 48.171,52.391 48.119,52.418 C48.119,52.470 48.119,52.523 48.119,52.576 C48.092,52.576 48.066,52.576 48.040,52.576 C48.040,52.629 48.040,52.682 48.040,52.735 C48.013,52.735 47.987,52.735 47.960,52.735 C47.885,52.818 47.970,52.746 47.881,52.814 C47.881,52.841 47.881,52.867 47.881,52.893 C47.407,52.893 46.933,52.893 46.459,52.893 C46.320,52.044 46.219,50.910 45.985,50.118 C45.959,49.774 45.933,49.431 45.906,49.087 C45.737,48.511 45.605,47.816 45.590,47.105 ZM52.780,47.105 C52.675,47.739 52.570,48.373 52.464,49.008 C52.438,49.008 52.412,49.008 52.385,49.008 C52.333,49.404 52.280,49.801 52.227,50.197 C51.965,51.011 51.771,52.011 51.595,52.893 C51.174,52.893 50.752,52.893 50.331,52.893 C50.330,52.441 50.467,52.108 50.568,51.783 C50.594,51.492 50.621,51.202 50.647,50.911 C50.855,50.252 50.991,49.421 51.200,48.770 C51.200,48.638 51.200,48.505 51.200,48.373 C51.226,48.373 51.253,48.373 51.279,48.373 C51.279,48.241 51.279,48.109 51.279,47.977 C51.305,47.977 51.332,47.977 51.358,47.977 C51.450,47.684 51.339,47.374 51.516,47.184 C51.706,47.010 52.442,47.097 52.780,47.105 ZM58.390,47.105 C59.786,47.105 61.182,47.105 62.578,47.105 C62.583,47.424 62.496,47.907 62.341,48.056 C62.198,48.183 61.816,48.135 61.551,48.135 C60.866,48.135 60.181,48.135 59.496,48.135 C59.417,48.585 59.338,49.034 59.259,49.484 C60.076,49.484 60.892,49.484 61.709,49.484 C61.707,49.863 61.612,50.052 61.551,50.356 C60.734,50.356 59.918,50.356 59.101,50.356 C59.035,50.446 59.111,50.367 59.022,50.435 C58.943,50.911 58.864,51.387 58.785,51.863 C59.707,51.863 60.629,51.863 61.551,51.863 C61.498,52.206 61.445,52.550 61.393,52.893 C59.997,52.893 58.601,52.893 57.205,52.893 C57.600,50.964 57.995,49.034 58.390,47.105 ZM8.138,48.056 C8.138,48.083 8.138,48.109 8.138,48.135 C8.007,48.162 7.875,48.188 7.743,48.215 C7.743,48.241 7.743,48.268 7.743,48.294 C7.691,48.294 7.638,48.294 7.585,48.294 C7.506,48.400 7.427,48.505 7.348,48.611 C7.216,48.717 7.085,48.823 6.953,48.928 C6.953,48.981 6.953,49.034 6.953,49.087 C6.764,49.417 6.258,50.374 6.479,51.070 C6.505,51.070 6.532,51.070 6.558,51.070 C6.584,51.202 6.611,51.334 6.637,51.466 C6.859,51.597 6.906,51.786 7.190,51.863 C7.401,52.092 8.317,52.078 8.533,51.863 C8.639,51.836 8.744,51.810 8.849,51.783 C8.876,51.730 8.902,51.677 8.928,51.625 C8.981,51.625 9.034,51.625 9.086,51.625 C9.139,51.545 9.192,51.466 9.244,51.387 C9.868,50.769 10.050,50.187 10.035,48.928 C9.892,48.804 9.967,48.770 9.877,48.611 C9.850,48.611 9.824,48.611 9.798,48.611 C9.798,48.558 9.798,48.505 9.798,48.453 C9.613,48.320 9.429,48.188 9.244,48.056 C8.876,48.056 8.507,48.056 8.138,48.056 ZM62.104,51.942 C62.362,51.933 62.759,51.897 62.894,52.021 C62.686,52.027 62.625,52.052 62.499,52.100 C62.499,52.440 62.435,52.658 62.341,52.893 C62.314,52.893 62.288,52.893 62.262,52.893 C62.262,52.788 62.262,52.682 62.262,52.576 C62.288,52.576 62.314,52.576 62.341,52.576 C62.341,52.418 62.341,52.259 62.341,52.100 C62.367,52.100 62.393,52.100 62.420,52.100 C62.420,52.074 62.420,52.048 62.420,52.021 C62.314,52.021 62.209,52.021 62.104,52.021 C62.104,51.995 62.104,51.968 62.104,51.942 ZM63.368,51.942 C63.368,52.180 63.368,52.418 63.368,52.656 C63.394,52.656 63.421,52.656 63.447,52.656 C63.447,52.629 63.447,52.603 63.447,52.576 C63.603,52.443 63.714,52.176 63.763,51.942 C63.842,51.942 63.921,51.942 64.000,51.942 C63.998,52.227 63.908,52.753 63.763,52.893 C63.763,52.867 63.763,52.841 63.763,52.814 C63.737,52.814 63.710,52.814 63.684,52.814 C63.737,52.629 63.789,52.444 63.842,52.259 C63.816,52.259 63.789,52.259 63.763,52.259 C63.658,52.470 63.552,52.682 63.447,52.893 C63.394,52.893 63.342,52.893 63.289,52.893 C63.287,52.629 63.247,52.534 63.210,52.338 C63.184,52.338 63.157,52.338 63.131,52.338 C63.129,52.603 63.089,52.697 63.052,52.893 C63.026,52.893 62.999,52.893 62.973,52.893 C62.973,52.735 62.973,52.576 62.973,52.418 C62.999,52.418 63.026,52.418 63.052,52.418 C63.052,52.285 63.052,52.153 63.052,52.021 C63.078,52.021 63.105,52.021 63.131,52.021 C63.131,51.995 63.131,51.968 63.131,51.942 C63.210,51.942 63.289,51.942 63.368,51.942 Z"/>
</svg>