<svg 
 xmlns="http://www.w3.org/2000/svg"
 xmlns:xlink="http://www.w3.org/1999/xlink"
 width="265px" height="266px">
<path fill-rule="evenodd"  fill="rgb(249, 220, 122)"
 d="M99.616,0.000 C121.536,0.000 143.464,0.000 165.384,0.000 C165.399,0.497 165.561,0.775 165.659,1.099 C165.659,2.107 165.659,3.114 165.659,4.122 C165.705,4.122 165.751,4.122 165.797,4.122 C165.797,4.351 165.797,4.580 165.797,4.809 C165.843,4.809 165.889,4.809 165.935,4.809 C165.935,5.496 165.935,6.183 165.935,6.870 C166.026,8.656 166.118,10.442 166.210,12.228 C166.256,12.228 166.301,12.228 166.347,12.228 C166.347,12.503 166.347,12.778 166.347,13.053 C166.393,13.053 166.439,13.053 166.485,13.053 C166.485,13.236 166.485,13.419 166.485,13.602 C166.531,13.602 166.577,13.602 166.623,13.602 C166.623,13.969 166.623,14.335 166.623,14.701 C166.668,14.701 166.714,14.701 166.760,14.701 C166.760,14.839 166.760,14.976 166.760,15.114 C166.806,15.114 166.852,15.114 166.898,15.114 C166.898,15.297 166.898,15.480 166.898,15.663 C166.944,15.663 166.989,15.663 167.035,15.663 C167.081,16.533 167.127,17.404 167.173,18.274 C167.219,18.274 167.265,18.274 167.310,18.274 C167.310,18.457 167.310,18.640 167.310,18.823 C167.356,18.823 167.402,18.823 167.448,18.823 C167.448,19.007 167.448,19.190 167.448,19.373 C167.494,19.373 167.540,19.373 167.586,19.373 C167.586,19.556 167.586,19.739 167.586,19.923 C167.632,19.923 167.677,19.923 167.723,19.923 C167.723,20.106 167.723,20.289 167.723,20.472 C167.769,20.472 167.815,20.472 167.861,20.472 C167.861,20.701 167.861,20.930 167.861,21.159 C167.907,21.159 167.953,21.159 167.998,21.159 C168.044,21.800 168.090,22.442 168.136,23.083 C168.182,23.083 168.228,23.083 168.274,23.083 C168.274,23.266 168.274,23.449 168.274,23.632 C168.319,23.632 168.365,23.632 168.411,23.632 C168.411,23.815 168.411,23.999 168.411,24.182 C168.457,24.182 168.503,24.182 168.549,24.182 C168.595,24.365 168.641,24.548 168.686,24.731 C168.732,24.731 168.778,24.731 168.824,24.731 C168.824,24.869 168.824,25.006 168.824,25.144 C168.870,25.144 168.916,25.144 168.962,25.144 C168.962,25.327 168.962,25.510 168.962,25.693 C169.007,25.693 169.053,25.693 169.099,25.693 C169.145,26.243 169.191,26.792 169.237,27.342 C169.283,27.342 169.328,27.342 169.374,27.342 C169.420,27.571 169.466,27.800 169.512,28.029 C169.558,28.029 169.604,28.029 169.650,28.029 C169.695,28.212 169.741,28.395 169.787,28.579 C169.833,28.579 169.879,28.579 169.925,28.579 C169.971,29.082 170.016,29.586 170.062,30.090 C170.108,30.090 170.154,30.090 170.200,30.090 C170.246,30.365 170.292,30.639 170.337,30.914 C170.383,30.914 170.429,30.914 170.475,30.914 C170.567,31.189 170.659,31.464 170.750,31.739 C170.796,31.739 170.842,31.739 170.888,31.739 C170.980,32.288 171.071,32.838 171.163,33.387 C171.209,33.387 171.255,33.387 171.301,33.387 C171.392,33.662 171.484,33.937 171.576,34.212 C171.622,34.212 171.668,34.212 171.713,34.212 C171.713,34.303 171.713,34.395 171.713,34.487 C171.759,34.487 171.805,34.487 171.851,34.487 C171.989,35.082 172.126,35.677 172.264,36.273 C172.310,36.273 172.355,36.273 172.401,36.273 C172.401,36.364 172.401,36.456 172.401,36.548 C172.447,36.548 172.493,36.548 172.539,36.548 C172.631,36.822 172.722,37.097 172.814,37.372 C172.860,37.372 172.906,37.372 172.952,37.372 C172.998,37.692 173.043,38.013 173.089,38.334 C173.135,38.334 173.181,38.334 173.227,38.334 C173.273,38.517 173.319,38.700 173.364,38.883 C173.410,38.883 173.456,38.883 173.502,38.883 C173.502,38.975 173.502,39.066 173.502,39.158 C173.594,39.204 173.686,39.250 173.777,39.295 C173.777,39.387 173.777,39.479 173.777,39.570 C173.823,39.570 173.869,39.570 173.915,39.570 C173.915,39.799 173.915,40.028 173.915,40.257 C173.961,40.257 174.007,40.257 174.052,40.257 C174.052,40.349 174.052,40.440 174.052,40.532 C174.098,40.532 174.144,40.532 174.190,40.532 C174.190,40.669 174.190,40.807 174.190,40.944 C174.236,40.944 174.282,40.944 174.328,40.944 C174.328,41.036 174.328,41.127 174.328,41.219 C174.465,41.311 174.603,41.402 174.740,41.494 C174.740,41.585 174.740,41.677 174.740,41.769 C174.786,41.769 174.832,41.769 174.878,41.769 C174.970,42.227 175.061,42.685 175.153,43.143 C175.199,43.143 175.245,43.143 175.291,43.143 C175.291,43.234 175.291,43.326 175.291,43.417 C175.428,43.509 175.566,43.601 175.704,43.692 C175.749,43.875 175.795,44.059 175.841,44.242 C175.887,44.242 175.933,44.242 175.979,44.242 C175.979,44.379 175.979,44.517 175.979,44.654 C176.025,44.654 176.070,44.654 176.116,44.654 C176.116,44.791 176.116,44.929 176.116,45.066 C176.162,45.066 176.208,45.066 176.254,45.066 C176.254,45.158 176.254,45.249 176.254,45.341 C176.391,45.432 176.529,45.524 176.667,45.616 C176.667,45.707 176.667,45.799 176.667,45.890 C176.758,45.936 176.850,45.982 176.942,46.028 C177.079,46.440 177.217,46.852 177.355,47.264 C177.492,47.356 177.630,47.448 177.767,47.539 C177.813,47.814 177.859,48.089 177.905,48.364 C177.951,48.364 177.997,48.364 178.043,48.364 C178.043,48.455 178.043,48.547 178.043,48.638 C178.088,48.638 178.134,48.638 178.180,48.638 C178.180,48.730 178.180,48.822 178.180,48.913 C178.272,48.959 178.364,49.005 178.455,49.051 C178.455,49.142 178.455,49.234 178.455,49.325 C178.593,49.417 178.731,49.509 178.868,49.600 C178.868,49.738 178.868,49.875 178.868,50.012 C178.914,50.012 178.960,50.012 179.006,50.012 C179.006,50.104 179.006,50.196 179.006,50.287 C179.052,50.287 179.097,50.287 179.143,50.287 C179.143,50.379 179.143,50.470 179.143,50.562 C179.281,50.654 179.418,50.745 179.556,50.837 C179.556,50.928 179.556,51.020 179.556,51.112 C179.648,51.157 179.740,51.203 179.831,51.249 C179.831,51.341 179.831,51.432 179.831,51.524 C179.877,51.524 179.923,51.524 179.969,51.524 C180.015,51.753 180.061,51.982 180.106,52.211 C180.290,52.348 180.473,52.486 180.657,52.623 C180.749,52.898 180.840,53.173 180.932,53.447 C181.024,53.493 181.115,53.539 181.207,53.585 C181.207,53.676 181.207,53.768 181.207,53.860 C181.391,53.997 181.574,54.134 181.758,54.272 C181.849,54.592 181.941,54.913 182.033,55.233 C182.170,55.325 182.308,55.417 182.445,55.508 C182.445,55.600 182.445,55.691 182.445,55.783 C182.583,55.875 182.721,55.966 182.858,56.058 C182.858,56.149 182.858,56.241 182.858,56.333 C182.950,56.378 183.042,56.424 183.133,56.470 C183.133,56.562 183.133,56.653 183.133,56.745 C183.271,56.836 183.409,56.928 183.546,57.020 C183.546,57.111 183.546,57.203 183.546,57.294 C183.638,57.340 183.730,57.386 183.821,57.432 C183.867,57.615 183.913,57.798 183.959,57.981 C184.051,58.027 184.142,58.073 184.234,58.119 C184.234,58.210 184.234,58.302 184.234,58.394 C184.418,58.531 184.601,58.668 184.785,58.806 C184.785,58.897 184.785,58.989 184.785,59.081 C184.876,59.126 184.968,59.172 185.060,59.218 C185.060,59.310 185.060,59.401 185.060,59.493 C185.243,59.630 185.427,59.768 185.610,59.905 C185.610,59.997 185.610,60.088 185.610,60.180 C185.748,60.271 185.885,60.363 186.023,60.455 C186.023,60.546 186.023,60.638 186.023,60.729 C186.160,60.821 186.298,60.913 186.436,61.004 C186.436,61.096 186.436,61.187 186.436,61.279 C186.573,61.371 186.711,61.462 186.848,61.554 C186.894,61.737 186.940,61.920 186.986,62.103 C187.215,62.286 187.445,62.470 187.674,62.653 C187.674,62.744 187.674,62.836 187.674,62.928 C187.766,62.973 187.857,63.019 187.949,63.065 C187.949,63.157 187.949,63.248 187.949,63.340 C188.178,63.523 188.408,63.706 188.637,63.889 C188.866,64.210 189.096,64.531 189.325,64.851 C189.784,65.263 190.242,65.676 190.701,66.088 C190.701,66.179 190.701,66.271 190.701,66.363 C190.793,66.408 190.884,66.454 190.976,66.500 C190.976,66.592 190.976,66.683 190.976,66.775 C192.168,67.920 193.361,69.065 194.553,70.210 C194.783,70.484 195.012,70.759 195.241,71.034 C195.379,71.126 195.517,71.217 195.654,71.309 C195.700,71.446 195.746,71.584 195.792,71.721 C195.884,71.721 195.975,71.721 196.067,71.721 C196.113,71.813 196.159,71.904 196.205,71.996 C196.250,71.996 196.296,71.996 196.342,71.996 C196.342,72.042 196.342,72.087 196.342,72.133 C196.434,72.179 196.526,72.225 196.617,72.271 C196.617,72.362 196.617,72.454 196.617,72.545 C196.709,72.591 196.801,72.637 196.893,72.683 C196.893,72.729 196.893,72.774 196.893,72.820 C196.984,72.820 197.076,72.820 197.168,72.820 C197.214,72.958 197.259,73.095 197.305,73.232 C197.351,73.232 197.397,73.232 197.443,73.232 C197.535,73.370 197.626,73.507 197.718,73.645 C197.810,73.645 197.902,73.645 197.993,73.645 C198.268,73.965 198.544,74.286 198.819,74.606 C198.911,74.606 199.002,74.606 199.094,74.606 C199.461,75.019 199.828,75.431 200.195,75.843 C200.286,75.843 200.378,75.843 200.470,75.843 C200.699,76.118 200.929,76.393 201.158,76.667 C201.250,76.667 201.341,76.667 201.433,76.667 C201.662,76.942 201.892,77.217 202.121,77.492 C202.213,77.492 202.304,77.492 202.396,77.492 C202.442,77.583 202.488,77.675 202.534,77.767 C202.625,77.767 202.717,77.767 202.809,77.767 C203.038,78.041 203.268,78.316 203.497,78.591 C203.680,78.637 203.864,78.683 204.047,78.728 C204.277,79.003 204.506,79.278 204.735,79.553 C204.827,79.553 204.919,79.553 205.010,79.553 C205.056,79.644 205.102,79.736 205.148,79.827 C205.240,79.827 205.331,79.827 205.423,79.827 C205.652,80.102 205.882,80.377 206.111,80.652 C206.295,80.698 206.478,80.743 206.661,80.789 C206.707,80.881 206.753,80.972 206.799,81.064 C206.891,81.064 206.983,81.064 207.074,81.064 C207.212,81.247 207.349,81.430 207.487,81.614 C207.762,81.705 208.037,81.797 208.313,81.888 C208.496,82.117 208.679,82.346 208.863,82.575 C209.138,82.667 209.413,82.759 209.688,82.850 C209.734,82.942 209.780,83.033 209.826,83.125 C209.918,83.125 210.010,83.125 210.101,83.125 C210.193,83.262 210.285,83.400 210.376,83.537 C210.560,83.583 210.743,83.629 210.927,83.675 C210.973,83.766 211.019,83.858 211.064,83.949 C211.156,83.949 211.248,83.949 211.340,83.949 C211.477,84.133 211.615,84.316 211.752,84.499 C211.844,84.499 211.936,84.499 212.028,84.499 C212.028,84.545 212.028,84.591 212.028,84.636 C212.119,84.636 212.211,84.636 212.303,84.636 C212.303,84.682 212.303,84.728 212.303,84.774 C212.440,84.774 212.578,84.774 212.715,84.774 C212.899,85.003 213.082,85.232 213.266,85.461 C213.587,85.552 213.908,85.644 214.229,85.736 C214.275,85.827 214.321,85.919 214.367,86.010 C214.458,86.010 214.550,86.010 214.642,86.010 C214.779,86.194 214.917,86.377 215.055,86.560 C215.421,86.652 215.788,86.743 216.155,86.835 C216.247,86.972 216.339,87.110 216.430,87.247 C216.568,87.293 216.706,87.339 216.843,87.384 C216.843,87.430 216.843,87.476 216.843,87.522 C217.072,87.567 217.302,87.613 217.531,87.659 C217.531,87.705 217.531,87.751 217.531,87.796 C217.715,87.842 217.898,87.888 218.082,87.934 C218.173,88.071 218.265,88.209 218.357,88.346 C218.448,88.346 218.540,88.346 218.632,88.346 C218.632,88.392 218.632,88.438 218.632,88.483 C218.724,88.483 218.815,88.483 218.907,88.483 C218.907,88.529 218.907,88.575 218.907,88.621 C219.045,88.621 219.182,88.621 219.320,88.621 C219.320,88.667 219.320,88.712 219.320,88.758 C219.457,88.758 219.595,88.758 219.733,88.758 C219.733,88.804 219.733,88.850 219.733,88.896 C219.824,88.896 219.916,88.896 220.008,88.896 C220.100,89.033 220.191,89.170 220.283,89.308 C220.375,89.308 220.466,89.308 220.558,89.308 C220.558,89.354 220.558,89.399 220.558,89.445 C220.742,89.491 220.925,89.537 221.109,89.583 C221.109,89.628 221.109,89.674 221.109,89.720 C221.292,89.720 221.475,89.720 221.659,89.720 C221.659,89.766 221.659,89.812 221.659,89.857 C221.751,89.857 221.842,89.857 221.934,89.857 C222.026,89.995 222.118,90.132 222.209,90.270 C222.301,90.270 222.393,90.270 222.484,90.270 C222.484,90.315 222.484,90.361 222.484,90.407 C222.668,90.453 222.851,90.499 223.035,90.544 C223.035,90.590 223.035,90.636 223.035,90.682 C223.310,90.728 223.585,90.773 223.860,90.819 C223.906,90.911 223.952,91.002 223.998,91.094 C224.090,91.094 224.181,91.094 224.273,91.094 C224.273,91.140 224.273,91.186 224.273,91.231 C224.457,91.277 224.640,91.323 224.823,91.369 C224.823,91.415 224.823,91.460 224.823,91.506 C224.961,91.506 225.099,91.506 225.236,91.506 C225.236,91.552 225.236,91.598 225.236,91.644 C225.649,91.735 226.062,91.827 226.475,91.918 C226.520,92.010 226.566,92.102 226.612,92.193 C226.704,92.193 226.796,92.193 226.887,92.193 C226.933,92.285 226.979,92.376 227.025,92.468 C227.117,92.468 227.208,92.468 227.300,92.468 C227.300,92.514 227.300,92.560 227.300,92.605 C227.667,92.651 228.034,92.697 228.401,92.743 C228.401,92.789 228.401,92.834 228.401,92.880 C228.493,92.880 228.584,92.880 228.676,92.880 C228.676,92.926 228.676,92.972 228.676,93.018 C228.768,93.018 228.859,93.018 228.951,93.018 C228.997,93.109 229.043,93.201 229.089,93.292 C229.226,93.292 229.364,93.292 229.502,93.292 C229.502,93.338 229.502,93.384 229.502,93.430 C229.593,93.430 229.685,93.430 229.777,93.430 C229.777,93.476 229.777,93.521 229.777,93.567 C230.144,93.613 230.511,93.659 230.877,93.705 C230.877,93.750 230.877,93.796 230.877,93.842 C231.015,93.842 231.153,93.842 231.290,93.842 C231.290,93.888 231.290,93.934 231.290,93.979 C231.382,93.979 231.474,93.979 231.565,93.979 C231.565,94.025 231.565,94.071 231.565,94.117 C231.657,94.117 231.749,94.117 231.841,94.117 C231.886,94.208 231.932,94.300 231.978,94.392 C232.116,94.392 232.253,94.392 232.391,94.392 C232.391,94.437 232.391,94.483 232.391,94.529 C232.574,94.529 232.758,94.529 232.941,94.529 C232.941,94.575 232.941,94.621 232.941,94.666 C233.216,94.666 233.492,94.666 233.767,94.666 C233.767,94.712 233.767,94.758 233.767,94.804 C233.904,94.804 234.042,94.804 234.180,94.804 C234.180,94.850 234.180,94.895 234.180,94.941 C234.271,94.941 234.363,94.941 234.455,94.941 C234.455,94.987 234.455,95.033 234.455,95.079 C234.547,95.079 234.638,95.079 234.730,95.079 C234.776,95.170 234.822,95.262 234.868,95.353 C235.005,95.353 235.143,95.353 235.280,95.353 C235.280,95.399 235.280,95.445 235.280,95.491 C235.464,95.491 235.647,95.491 235.831,95.491 C235.831,95.536 235.831,95.582 235.831,95.628 C236.152,95.628 236.473,95.628 236.794,95.628 C236.794,95.674 236.794,95.720 236.794,95.765 C236.977,95.765 237.161,95.765 237.344,95.765 C237.344,95.811 237.344,95.857 237.344,95.903 C237.528,95.949 237.711,95.994 237.895,96.040 C237.895,96.086 237.895,96.132 237.895,96.178 C238.216,96.223 238.537,96.269 238.858,96.315 C238.858,96.361 238.858,96.407 238.858,96.452 C238.949,96.452 239.041,96.452 239.133,96.452 C239.133,96.498 239.133,96.544 239.133,96.590 C239.637,96.636 240.142,96.681 240.646,96.727 C240.646,96.773 240.646,96.819 240.646,96.865 C240.784,96.865 240.922,96.865 241.059,96.865 C241.059,96.910 241.059,96.956 241.059,97.002 C241.380,97.048 241.701,97.094 242.022,97.139 C242.022,97.185 242.022,97.231 242.022,97.277 C242.389,97.323 242.756,97.368 243.123,97.414 C243.123,97.460 243.123,97.506 243.123,97.552 C243.352,97.552 243.582,97.552 243.811,97.552 C243.811,97.597 243.811,97.643 243.811,97.689 C244.224,97.689 244.637,97.689 245.049,97.689 C245.049,97.735 245.049,97.781 245.049,97.826 C245.279,97.826 245.508,97.826 245.737,97.826 C245.737,97.872 245.737,97.918 245.737,97.964 C245.967,97.964 246.196,97.964 246.425,97.964 C246.425,98.010 246.425,98.055 246.425,98.101 C246.563,98.101 246.700,98.101 246.838,98.101 C246.838,98.147 246.838,98.193 246.838,98.239 C246.976,98.239 247.113,98.239 247.251,98.239 C247.251,98.284 247.251,98.330 247.251,98.376 C247.388,98.376 247.526,98.376 247.664,98.376 C247.664,98.422 247.664,98.468 247.664,98.513 C248.076,98.513 248.489,98.513 248.902,98.513 C248.902,98.559 248.902,98.605 248.902,98.651 C249.865,98.697 250.828,98.742 251.791,98.788 C251.791,98.834 251.791,98.880 251.791,98.926 C251.929,98.926 252.066,98.926 252.204,98.926 C252.204,98.971 252.204,99.017 252.204,99.063 C252.342,99.063 252.479,99.063 252.617,99.063 C252.617,99.109 252.617,99.155 252.617,99.200 C252.984,99.155 253.351,99.109 253.718,99.063 C253.718,99.109 253.718,99.155 253.718,99.200 C253.855,99.200 253.993,99.200 254.130,99.200 C254.130,99.246 254.130,99.292 254.130,99.338 C255.093,99.384 256.057,99.429 257.020,99.475 C257.778,99.692 259.065,99.613 260.047,99.613 C261.256,99.613 264.102,99.607 264.450,100.300 C264.450,100.574 264.450,100.849 264.450,101.124 C264.633,101.124 264.817,101.124 265.000,101.124 C265.000,122.693 265.000,144.269 265.000,165.838 C264.817,165.838 264.633,165.838 264.450,165.838 C264.450,165.929 264.450,166.021 264.450,166.113 C264.220,166.158 263.991,166.204 263.762,166.250 C263.762,166.296 263.762,166.342 263.762,166.387 C262.615,166.433 261.468,166.479 260.322,166.525 C259.359,166.525 258.396,166.525 257.433,166.525 C257.433,166.571 257.433,166.616 257.433,166.662 C257.295,166.662 257.157,166.662 257.020,166.662 C257.020,166.708 257.020,166.754 257.020,166.800 C256.882,166.800 256.745,166.800 256.607,166.800 C256.607,166.845 256.607,166.891 256.607,166.937 C255.965,166.891 255.323,166.845 254.681,166.800 C254.681,166.845 254.681,166.891 254.681,166.937 C254.543,166.937 254.405,166.937 254.268,166.937 C254.268,166.983 254.268,167.029 254.268,167.074 C254.130,167.074 253.993,167.074 253.855,167.074 C253.855,167.120 253.855,167.166 253.855,167.212 C253.305,167.212 252.754,167.212 252.204,167.212 C252.204,167.258 252.204,167.303 252.204,167.349 C251.562,167.349 250.920,167.349 250.278,167.349 C250.278,167.395 250.278,167.441 250.278,167.487 C250.094,167.487 249.911,167.487 249.727,167.487 C249.727,167.532 249.727,167.578 249.727,167.624 C249.406,167.624 249.085,167.624 248.764,167.624 C248.764,167.670 248.764,167.716 248.764,167.761 C248.443,167.761 248.122,167.761 247.801,167.761 C247.801,167.807 247.801,167.853 247.801,167.899 C247.664,167.899 247.526,167.899 247.388,167.899 C247.388,167.945 247.388,167.990 247.388,168.036 C247.251,168.036 247.113,168.036 246.976,168.036 C246.976,168.082 246.976,168.128 246.976,168.174 C246.792,168.174 246.609,168.174 246.425,168.174 C246.425,168.219 246.425,168.265 246.425,168.311 C245.691,168.357 244.958,168.403 244.224,168.448 C244.224,168.494 244.224,168.540 244.224,168.586 C243.811,168.632 243.398,168.677 242.985,168.723 C242.985,168.769 242.985,168.815 242.985,168.861 C242.848,168.861 242.710,168.861 242.573,168.861 C242.573,168.906 242.573,168.952 242.573,168.998 C242.435,168.998 242.297,168.998 242.160,168.998 C242.160,169.044 242.160,169.090 242.160,169.135 C242.022,169.135 241.885,169.135 241.747,169.135 C241.747,169.181 241.747,169.227 241.747,169.273 C241.151,169.319 240.555,169.364 239.958,169.410 C239.958,169.456 239.958,169.502 239.958,169.548 C239.867,169.548 239.775,169.548 239.683,169.548 C239.683,169.593 239.683,169.639 239.683,169.685 C239.546,169.685 239.408,169.685 239.271,169.685 C239.271,169.731 239.271,169.777 239.271,169.822 C239.133,169.822 238.995,169.822 238.858,169.822 C238.858,169.868 238.858,169.914 238.858,169.960 C238.766,169.960 238.674,169.960 238.583,169.960 C238.583,170.006 238.583,170.051 238.583,170.097 C238.216,170.143 237.849,170.189 237.482,170.235 C237.482,170.280 237.482,170.326 237.482,170.372 C237.023,170.418 236.565,170.464 236.106,170.509 C236.106,170.555 236.106,170.601 236.106,170.647 C235.877,170.692 235.647,170.738 235.418,170.784 C235.418,170.830 235.418,170.876 235.418,170.921 C235.326,170.921 235.235,170.921 235.143,170.921 C235.143,170.967 235.143,171.013 235.143,171.059 C235.005,171.059 234.868,171.059 234.730,171.059 C234.730,171.105 234.730,171.150 234.730,171.196 C234.638,171.196 234.547,171.196 234.455,171.196 C234.455,171.242 234.455,171.288 234.455,171.334 C234.042,171.379 233.629,171.425 233.217,171.471 C233.217,171.517 233.217,171.563 233.217,171.608 C233.033,171.654 232.850,171.700 232.666,171.746 C232.666,171.792 232.666,171.837 232.666,171.883 C232.391,171.929 232.116,171.975 231.841,172.021 C231.841,172.066 231.841,172.112 231.841,172.158 C231.749,172.158 231.657,172.158 231.565,172.158 C231.565,172.204 231.565,172.250 231.565,172.295 C231.015,172.387 230.465,172.479 229.914,172.570 C229.868,172.662 229.823,172.753 229.777,172.845 C229.685,172.845 229.593,172.845 229.502,172.845 C229.502,172.891 229.502,172.937 229.502,172.982 C229.318,173.028 229.135,173.074 228.951,173.120 C228.951,173.166 228.951,173.211 228.951,173.257 C228.493,173.349 228.034,173.440 227.575,173.532 C227.575,173.578 227.575,173.624 227.575,173.669 C227.484,173.669 227.392,173.669 227.300,173.669 C227.254,173.761 227.208,173.853 227.163,173.944 C226.979,173.990 226.796,174.036 226.612,174.082 C226.612,174.127 226.612,174.173 226.612,174.219 C226.154,174.311 225.695,174.402 225.236,174.494 C225.236,174.540 225.236,174.585 225.236,174.631 C225.145,174.631 225.053,174.631 224.961,174.631 C224.869,174.769 224.778,174.906 224.686,175.043 C224.181,175.181 223.677,175.318 223.172,175.456 C223.172,175.501 223.172,175.547 223.172,175.593 C223.035,175.639 222.897,175.685 222.760,175.730 C222.668,175.868 222.576,176.005 222.484,176.143 C222.072,176.234 221.659,176.326 221.246,176.417 C221.200,176.509 221.154,176.601 221.109,176.692 C221.017,176.692 220.925,176.692 220.833,176.692 C220.742,176.830 220.650,176.967 220.558,177.104 C220.466,177.104 220.375,177.104 220.283,177.104 C220.283,177.150 220.283,177.196 220.283,177.242 C220.145,177.242 220.008,177.242 219.870,177.242 C219.870,177.288 219.870,177.333 219.870,177.379 C219.733,177.379 219.595,177.379 219.457,177.379 C219.457,177.425 219.457,177.471 219.457,177.517 C219.274,177.562 219.090,177.608 218.907,177.654 C218.815,177.791 218.724,177.929 218.632,178.066 C218.540,178.066 218.448,178.066 218.357,178.066 C218.357,178.112 218.357,178.158 218.357,178.204 C217.944,178.295 217.531,178.387 217.118,178.478 C216.935,178.707 216.751,178.936 216.568,179.165 C216.385,179.211 216.201,179.257 216.018,179.303 C216.018,179.348 216.018,179.394 216.018,179.440 C215.834,179.440 215.651,179.440 215.467,179.440 C215.421,179.532 215.376,179.623 215.330,179.715 C215.238,179.715 215.146,179.715 215.055,179.715 C214.963,179.852 214.871,179.990 214.779,180.127 C214.688,180.127 214.596,180.127 214.504,180.127 C214.504,180.173 214.504,180.219 214.504,180.264 C214.412,180.264 214.321,180.264 214.229,180.264 C214.229,180.310 214.229,180.356 214.229,180.402 C214.137,180.402 214.046,180.402 213.954,180.402 C213.954,180.448 213.954,180.493 213.954,180.539 C213.862,180.539 213.770,180.539 213.679,180.539 C213.495,180.768 213.312,180.997 213.128,181.226 C212.853,181.272 212.578,181.318 212.303,181.364 C212.257,181.455 212.211,181.547 212.165,181.638 C212.073,181.638 211.982,181.638 211.890,181.638 C211.752,181.822 211.615,182.005 211.477,182.188 C211.202,182.280 210.927,182.371 210.652,182.463 C210.468,182.692 210.285,182.921 210.101,183.150 C210.010,183.150 209.918,183.150 209.826,183.150 C209.826,183.196 209.826,183.241 209.826,183.287 C209.734,183.287 209.643,183.287 209.551,183.287 C209.551,183.333 209.551,183.379 209.551,183.425 C209.459,183.425 209.367,183.425 209.276,183.425 C209.276,183.470 209.276,183.516 209.276,183.562 C209.184,183.562 209.092,183.562 209.001,183.562 C208.863,183.745 208.725,183.928 208.588,184.112 C208.496,184.112 208.404,184.112 208.313,184.112 C208.267,184.203 208.221,184.295 208.175,184.386 C207.992,184.432 207.808,184.478 207.625,184.524 C207.441,184.753 207.258,184.982 207.074,185.211 C206.891,185.257 206.707,185.302 206.524,185.348 C206.340,185.577 206.157,185.806 205.974,186.035 C205.882,186.035 205.790,186.035 205.698,186.035 C205.652,186.127 205.607,186.218 205.561,186.310 C205.377,186.356 205.194,186.402 205.010,186.447 C204.781,186.722 204.552,186.997 204.322,187.272 C204.231,187.272 204.139,187.272 204.047,187.272 C204.001,187.363 203.956,187.455 203.910,187.546 C203.818,187.546 203.726,187.546 203.634,187.546 C203.451,187.775 203.268,188.004 203.084,188.233 C202.992,188.233 202.901,188.233 202.809,188.233 C202.763,188.325 202.717,188.417 202.671,188.508 C202.580,188.508 202.488,188.508 202.396,188.508 C202.167,188.783 201.937,189.058 201.708,189.333 C201.616,189.333 201.525,189.333 201.433,189.333 C201.250,189.562 201.066,189.791 200.883,190.020 C200.791,190.020 200.699,190.020 200.607,190.020 C200.562,190.111 200.516,190.203 200.470,190.294 C200.378,190.294 200.286,190.294 200.195,190.294 C199.965,190.615 199.736,190.936 199.507,191.256 C199.415,191.256 199.323,191.256 199.232,191.256 C199.048,191.485 198.865,191.714 198.681,191.943 C198.544,191.989 198.406,192.035 198.268,192.081 C197.993,192.401 197.718,192.722 197.443,193.042 C196.801,193.684 196.159,194.325 195.517,194.966 C195.159,195.324 194.707,195.493 194.553,196.065 C194.462,196.065 194.370,196.065 194.278,196.065 C194.003,196.431 193.728,196.798 193.453,197.164 C193.361,197.164 193.269,197.164 193.178,197.164 C193.178,197.210 193.178,197.256 193.178,197.302 C193.040,197.393 192.902,197.485 192.765,197.576 C192.765,197.668 192.765,197.760 192.765,197.851 C192.627,197.943 192.490,198.034 192.352,198.126 C192.352,198.172 192.352,198.218 192.352,198.263 C192.260,198.263 192.169,198.263 192.077,198.263 C192.031,198.401 191.985,198.538 191.939,198.676 C191.572,198.996 191.205,199.317 190.839,199.637 C190.793,199.775 190.747,199.912 190.701,200.050 C190.288,200.416 189.875,200.782 189.463,201.149 C189.463,201.240 189.463,201.332 189.463,201.424 C189.233,201.607 189.004,201.790 188.775,201.973 C188.775,202.065 188.775,202.156 188.775,202.248 C188.729,202.248 188.683,202.248 188.637,202.248 C188.545,202.385 188.454,202.523 188.362,202.660 C188.224,202.752 188.087,202.843 187.949,202.935 C187.903,203.118 187.857,203.301 187.812,203.485 C187.628,203.622 187.445,203.759 187.261,203.897 C187.261,203.988 187.261,204.080 187.261,204.171 C187.124,204.263 186.986,204.355 186.848,204.446 C186.848,204.538 186.848,204.629 186.848,204.721 C186.665,204.858 186.481,204.996 186.298,205.133 C186.298,205.225 186.298,205.316 186.298,205.408 C186.115,205.545 185.931,205.683 185.748,205.820 C185.748,205.912 185.748,206.003 185.748,206.095 C185.702,206.095 185.656,206.095 185.610,206.095 C185.518,206.232 185.427,206.370 185.335,206.507 C185.243,206.553 185.151,206.599 185.060,206.645 C184.968,206.919 184.876,207.194 184.785,207.469 C184.601,207.606 184.418,207.744 184.234,207.881 C184.234,207.973 184.234,208.064 184.234,208.156 C184.142,208.202 184.051,208.248 183.959,208.293 C183.913,208.431 183.867,208.568 183.821,208.706 C183.776,208.706 183.730,208.706 183.684,208.706 C183.684,208.797 183.684,208.889 183.684,208.980 C183.546,209.072 183.409,209.164 183.271,209.255 C183.225,209.393 183.179,209.530 183.133,209.667 C183.042,209.713 182.950,209.759 182.858,209.805 C182.812,209.988 182.767,210.171 182.721,210.354 C182.537,210.492 182.354,210.629 182.170,210.767 C182.170,210.858 182.170,210.950 182.170,211.041 C182.124,211.041 182.079,211.041 182.033,211.041 C182.033,211.133 182.033,211.225 182.033,211.316 C181.987,211.316 181.941,211.316 181.895,211.316 C181.895,211.408 181.895,211.499 181.895,211.591 C181.849,211.591 181.803,211.591 181.758,211.591 C181.758,211.682 181.758,211.774 181.758,211.866 C181.620,211.957 181.482,212.049 181.345,212.140 C181.345,212.232 181.345,212.324 181.345,212.415 C181.253,212.461 181.161,212.507 181.070,212.553 C180.978,212.827 180.886,213.102 180.794,213.377 C180.657,213.469 180.519,213.560 180.382,213.652 C180.382,213.743 180.382,213.835 180.382,213.927 C180.290,213.972 180.198,214.018 180.106,214.064 C180.106,214.201 180.106,214.339 180.106,214.476 C180.061,214.476 180.015,214.476 179.969,214.476 C179.969,214.568 179.969,214.659 179.969,214.751 C179.877,214.797 179.785,214.843 179.694,214.888 C179.694,214.980 179.694,215.072 179.694,215.163 C179.510,215.301 179.327,215.438 179.143,215.575 C179.052,215.942 178.960,216.308 178.868,216.675 C178.731,216.766 178.593,216.858 178.455,216.949 C178.409,217.087 178.364,217.224 178.318,217.362 C178.272,217.362 178.226,217.362 178.180,217.362 C178.043,217.774 177.905,218.186 177.767,218.598 C177.676,218.644 177.584,218.690 177.492,218.736 C177.446,218.919 177.400,219.102 177.355,219.285 C177.263,219.331 177.171,219.377 177.079,219.423 C176.988,219.743 176.896,220.064 176.804,220.384 C176.667,220.476 176.529,220.568 176.391,220.659 C176.346,220.842 176.300,221.026 176.254,221.209 C176.208,221.209 176.162,221.209 176.116,221.209 C175.979,221.667 175.841,222.125 175.704,222.583 C175.566,222.674 175.428,222.766 175.291,222.857 C175.153,223.270 175.016,223.682 174.878,224.094 C174.878,224.231 174.878,224.369 174.878,224.506 C174.786,224.552 174.695,224.598 174.603,224.644 C174.603,224.735 174.603,224.827 174.603,224.918 C174.511,224.964 174.419,225.010 174.328,225.056 C174.328,225.147 174.328,225.239 174.328,225.331 C174.282,225.331 174.236,225.331 174.190,225.331 C174.190,225.422 174.190,225.514 174.190,225.605 C174.144,225.605 174.098,225.605 174.052,225.605 C174.007,225.926 173.961,226.247 173.915,226.567 C173.823,226.613 173.731,226.659 173.640,226.705 C173.594,226.888 173.548,227.071 173.502,227.254 C173.456,227.254 173.410,227.254 173.364,227.254 C173.319,227.437 173.273,227.621 173.227,227.804 C173.181,227.804 173.135,227.804 173.089,227.804 C173.043,228.170 172.998,228.537 172.952,228.903 C172.906,228.903 172.860,228.903 172.814,228.903 C172.768,229.086 172.722,229.269 172.677,229.452 C172.585,229.498 172.493,229.544 172.401,229.590 C172.401,229.681 172.401,229.773 172.401,229.865 C172.355,229.865 172.310,229.865 172.264,229.865 C172.264,230.002 172.264,230.139 172.264,230.277 C172.218,230.277 172.172,230.277 172.126,230.277 C172.126,230.414 172.126,230.552 172.126,230.689 C172.080,230.689 172.034,230.689 171.989,230.689 C171.989,230.918 171.989,231.147 171.989,231.376 C171.943,231.376 171.897,231.376 171.851,231.376 C171.805,231.559 171.759,231.742 171.713,231.926 C171.668,231.926 171.622,231.926 171.576,231.926 C171.576,232.109 171.576,232.292 171.576,232.475 C171.484,232.521 171.392,232.567 171.301,232.613 C171.301,232.704 171.301,232.796 171.301,232.887 C171.255,232.887 171.209,232.887 171.163,232.887 C171.117,233.254 171.071,233.620 171.025,233.987 C170.980,233.987 170.934,233.987 170.888,233.987 C170.888,234.124 170.888,234.261 170.888,234.399 C170.842,234.399 170.796,234.399 170.750,234.399 C170.750,234.490 170.750,234.582 170.750,234.674 C170.704,234.674 170.659,234.674 170.613,234.674 C170.567,234.948 170.521,235.223 170.475,235.498 C170.429,235.498 170.383,235.498 170.337,235.498 C170.337,235.590 170.337,235.681 170.337,235.773 C170.292,235.773 170.246,235.773 170.200,235.773 C170.200,235.956 170.200,236.139 170.200,236.322 C170.154,236.322 170.108,236.322 170.062,236.322 C170.016,236.734 169.971,237.147 169.925,237.559 C169.879,237.559 169.833,237.559 169.787,237.559 C169.741,237.788 169.695,238.017 169.650,238.246 C169.604,238.246 169.558,238.246 169.512,238.246 C169.512,238.337 169.512,238.429 169.512,238.521 C169.466,238.521 169.420,238.521 169.374,238.521 C169.328,238.887 169.283,239.253 169.237,239.620 C169.191,239.620 169.145,239.620 169.099,239.620 C169.099,239.895 169.099,240.169 169.099,240.444 C168.824,241.177 168.549,241.910 168.274,242.643 C168.182,243.513 168.090,244.383 167.998,245.253 C167.953,245.253 167.907,245.253 167.861,245.253 C167.861,245.436 167.861,245.620 167.861,245.803 C167.815,245.803 167.769,245.803 167.723,245.803 C167.723,246.032 167.723,246.261 167.723,246.490 C167.677,246.490 167.632,246.490 167.586,246.490 C167.586,246.581 167.586,246.673 167.586,246.764 C167.540,246.764 167.494,246.764 167.448,246.764 C167.448,246.948 167.448,247.131 167.448,247.314 C167.402,247.314 167.356,247.314 167.310,247.314 C167.310,247.451 167.310,247.589 167.310,247.726 C167.265,247.726 167.219,247.726 167.173,247.726 C167.127,248.596 167.081,249.467 167.035,250.337 C166.989,250.337 166.944,250.337 166.898,250.337 C166.898,250.520 166.898,250.703 166.898,250.886 C166.852,250.886 166.806,250.886 166.760,250.886 C166.760,251.115 166.760,251.344 166.760,251.573 C166.714,251.573 166.668,251.573 166.623,251.573 C166.623,251.985 166.623,252.398 166.623,252.810 C166.577,252.810 166.531,252.810 166.485,252.810 C166.485,252.902 166.485,252.993 166.485,253.085 C166.439,253.085 166.393,253.085 166.347,253.085 C166.347,253.588 166.347,254.092 166.347,254.596 C166.301,254.596 166.256,254.596 166.210,254.596 C166.210,254.871 166.210,255.146 166.210,255.420 C166.164,255.420 166.118,255.420 166.072,255.420 C166.072,256.336 166.072,257.253 166.072,258.168 C165.845,258.970 166.172,260.379 165.935,261.191 C165.564,262.462 165.671,264.331 165.659,266.000 C143.555,266.000 121.445,266.000 99.341,266.000 C99.378,263.794 99.581,260.887 99.065,259.130 C99.065,258.352 99.065,257.573 99.065,256.794 C99.020,256.794 98.974,256.794 98.928,256.794 C98.928,255.970 98.928,255.146 98.928,254.321 C98.411,252.582 98.335,250.410 97.827,248.688 C97.827,248.184 97.827,247.680 97.827,247.177 C97.781,247.177 97.735,247.177 97.690,247.177 C97.690,246.948 97.690,246.719 97.690,246.490 C97.644,246.490 97.598,246.490 97.552,246.490 C97.552,246.261 97.552,246.032 97.552,245.803 C97.506,245.803 97.460,245.803 97.414,245.803 C97.414,245.665 97.414,245.528 97.414,245.390 C97.368,245.390 97.323,245.390 97.277,245.390 C97.277,245.253 97.277,245.116 97.277,244.978 C97.231,244.978 97.185,244.978 97.139,244.978 C97.139,244.841 97.139,244.703 97.139,244.566 C97.093,244.566 97.047,244.566 97.002,244.566 C97.002,244.291 97.002,244.017 97.002,243.742 C96.956,243.742 96.910,243.742 96.864,243.742 C96.864,243.467 96.864,243.192 96.864,242.917 C96.818,242.917 96.772,242.917 96.726,242.917 C96.726,242.734 96.726,242.551 96.726,242.368 C96.681,242.368 96.635,242.368 96.589,242.368 C96.589,242.185 96.589,242.001 96.589,241.818 C96.543,241.818 96.497,241.818 96.451,241.818 C96.451,241.727 96.451,241.635 96.451,241.543 C96.405,241.543 96.359,241.543 96.314,241.543 C96.314,241.406 96.314,241.269 96.314,241.131 C96.268,241.131 96.222,241.131 96.176,241.131 C96.038,240.307 95.901,239.482 95.763,238.658 C95.717,238.658 95.672,238.658 95.626,238.658 C95.626,238.566 95.626,238.475 95.626,238.383 C95.580,238.383 95.534,238.383 95.488,238.383 C95.488,238.200 95.488,238.017 95.488,237.834 C95.442,237.834 95.396,237.834 95.350,237.834 C95.350,237.742 95.350,237.650 95.350,237.559 C95.305,237.559 95.259,237.559 95.213,237.559 C95.213,237.422 95.213,237.284 95.213,237.147 C95.167,237.147 95.121,237.147 95.075,237.147 C95.075,236.964 95.075,236.780 95.075,236.597 C95.029,236.597 94.984,236.597 94.938,236.597 C94.938,236.368 94.938,236.139 94.938,235.910 C94.892,235.910 94.846,235.910 94.800,235.910 C94.800,235.773 94.800,235.635 94.800,235.498 C94.754,235.498 94.708,235.498 94.663,235.498 C94.663,235.361 94.663,235.223 94.663,235.086 C94.617,235.086 94.571,235.086 94.525,235.086 C94.433,234.811 94.341,234.536 94.250,234.261 C94.204,234.261 94.158,234.261 94.112,234.261 C94.020,233.666 93.929,233.071 93.837,232.475 C93.791,232.475 93.745,232.475 93.699,232.475 C93.654,232.292 93.608,232.109 93.562,231.926 C93.470,231.880 93.378,231.834 93.287,231.788 C93.287,231.697 93.287,231.605 93.287,231.513 C93.241,231.513 93.195,231.513 93.149,231.513 C93.057,231.010 92.966,230.506 92.874,230.002 C92.828,230.002 92.782,230.002 92.736,230.002 C92.736,229.910 92.736,229.819 92.736,229.727 C92.690,229.727 92.645,229.727 92.599,229.727 C92.599,229.636 92.599,229.544 92.599,229.452 C92.553,229.452 92.507,229.452 92.461,229.452 C92.369,229.178 92.278,228.903 92.186,228.628 C92.140,228.628 92.094,228.628 92.048,228.628 C92.002,228.262 91.957,227.895 91.911,227.529 C91.865,227.529 91.819,227.529 91.773,227.529 C91.727,227.346 91.681,227.163 91.636,226.979 C91.498,226.888 91.360,226.796 91.223,226.705 C91.223,226.613 91.223,226.521 91.223,226.430 C91.177,226.430 91.131,226.430 91.085,226.430 C91.085,226.201 91.085,225.972 91.085,225.743 C91.039,225.743 90.993,225.743 90.948,225.743 C90.948,225.651 90.948,225.560 90.948,225.468 C90.902,225.468 90.856,225.468 90.810,225.468 C90.764,225.239 90.718,225.010 90.672,224.781 C90.535,224.689 90.397,224.598 90.260,224.506 C90.260,224.415 90.260,224.323 90.260,224.231 C90.214,224.231 90.168,224.231 90.122,224.231 C90.030,223.773 89.939,223.315 89.847,222.857 C89.801,222.857 89.755,222.857 89.709,222.857 C89.709,222.766 89.709,222.674 89.709,222.583 C89.572,222.491 89.434,222.399 89.296,222.308 C89.296,222.216 89.296,222.125 89.296,222.033 C89.251,222.033 89.205,222.033 89.159,222.033 C89.159,221.941 89.159,221.850 89.159,221.758 C89.113,221.758 89.067,221.758 89.021,221.758 C89.021,221.621 89.021,221.483 89.021,221.346 C88.975,221.346 88.930,221.346 88.884,221.346 C88.884,221.209 88.884,221.071 88.884,220.934 C88.838,220.934 88.792,220.934 88.746,220.934 C88.746,220.842 88.746,220.751 88.746,220.659 C88.609,220.568 88.471,220.476 88.333,220.384 C88.333,220.293 88.333,220.201 88.333,220.110 C88.242,220.064 88.150,220.018 88.058,219.972 C87.921,219.560 87.783,219.148 87.645,218.736 C87.508,218.644 87.370,218.552 87.233,218.461 C87.187,218.186 87.141,217.911 87.095,217.636 C87.003,217.591 86.912,217.545 86.820,217.499 C86.774,217.316 86.728,217.133 86.682,216.949 C86.499,216.812 86.315,216.675 86.132,216.537 C85.996,216.299 86.016,215.685 85.857,215.438 C85.719,215.346 85.582,215.255 85.444,215.163 C85.444,215.072 85.444,214.980 85.444,214.888 C85.352,214.843 85.260,214.797 85.169,214.751 C85.077,214.476 84.985,214.201 84.894,213.927 C84.756,213.835 84.618,213.743 84.481,213.652 C84.481,213.560 84.481,213.469 84.481,213.377 C84.389,213.331 84.297,213.285 84.206,213.240 C84.206,213.102 84.206,212.965 84.206,212.827 C84.160,212.827 84.114,212.827 84.068,212.827 C84.068,212.736 84.068,212.644 84.068,212.553 C83.976,212.507 83.885,212.461 83.793,212.415 C83.793,212.324 83.793,212.232 83.793,212.140 C83.609,212.003 83.426,211.866 83.242,211.728 C83.242,211.637 83.242,211.545 83.242,211.454 C83.197,211.454 83.151,211.454 83.105,211.454 C83.105,211.362 83.105,211.270 83.105,211.179 C83.059,211.179 83.013,211.179 82.967,211.179 C82.967,211.041 82.967,210.904 82.967,210.767 C82.738,210.583 82.509,210.400 82.279,210.217 C82.233,210.034 82.188,209.851 82.142,209.667 C82.050,209.622 81.958,209.576 81.867,209.530 C81.867,209.438 81.867,209.347 81.867,209.255 C81.729,209.164 81.591,209.072 81.454,208.980 C81.408,208.843 81.362,208.706 81.316,208.568 C81.224,208.522 81.133,208.477 81.041,208.431 C80.995,208.248 80.949,208.064 80.903,207.881 C80.720,207.744 80.536,207.606 80.353,207.469 C80.353,207.377 80.353,207.286 80.353,207.194 C80.307,207.194 80.261,207.194 80.215,207.194 C80.170,207.057 80.124,206.919 80.078,206.782 C79.986,206.736 79.894,206.690 79.803,206.645 C79.803,206.553 79.803,206.461 79.803,206.370 C79.573,206.187 79.344,206.003 79.115,205.820 C79.115,205.729 79.115,205.637 79.115,205.545 C79.023,205.500 78.931,205.454 78.840,205.408 C78.840,205.316 78.840,205.225 78.840,205.133 C78.610,204.950 78.381,204.767 78.152,204.584 C78.152,204.492 78.152,204.400 78.152,204.309 C78.060,204.263 77.968,204.217 77.876,204.171 C77.876,204.080 77.876,203.988 77.876,203.897 C77.647,203.714 77.418,203.530 77.188,203.347 C77.188,203.256 77.188,203.164 77.188,203.072 C77.097,203.027 77.005,202.981 76.913,202.935 C76.913,202.843 76.913,202.752 76.913,202.660 C76.684,202.477 76.455,202.294 76.225,202.111 C76.225,202.019 76.225,201.927 76.225,201.836 C75.858,201.515 75.491,201.195 75.125,200.874 C75.125,200.782 75.125,200.691 75.125,200.599 C74.804,200.324 74.482,200.050 74.161,199.775 C74.116,199.637 74.070,199.500 74.024,199.363 C73.932,199.363 73.840,199.363 73.749,199.363 C73.703,199.271 73.657,199.179 73.611,199.088 C73.474,198.996 73.336,198.905 73.198,198.813 C73.198,198.721 73.198,198.630 73.198,198.538 C73.107,198.492 73.015,198.447 72.923,198.401 C72.923,198.309 72.923,198.218 72.923,198.126 C72.327,197.577 71.731,197.027 71.134,196.477 C70.126,195.424 69.116,194.370 68.107,193.317 C68.016,193.317 67.924,193.317 67.832,193.317 C67.190,192.630 66.548,191.943 65.906,191.256 C65.814,191.256 65.723,191.256 65.631,191.256 C65.356,190.936 65.080,190.615 64.805,190.294 C64.714,190.294 64.622,190.294 64.530,190.294 C64.209,189.928 63.888,189.562 63.567,189.195 C63.475,189.195 63.384,189.195 63.292,189.195 C63.063,188.920 62.833,188.646 62.604,188.371 C62.420,188.325 62.237,188.279 62.053,188.233 C61.916,188.050 61.778,187.867 61.641,187.684 C61.549,187.684 61.457,187.684 61.366,187.684 C61.320,187.592 61.274,187.501 61.228,187.409 C61.136,187.409 61.044,187.409 60.953,187.409 C60.678,187.089 60.402,186.768 60.127,186.447 C60.035,186.447 59.944,186.447 59.852,186.447 C59.806,186.356 59.760,186.264 59.714,186.173 C59.623,186.173 59.531,186.173 59.439,186.173 C59.256,185.944 59.072,185.715 58.889,185.486 C58.614,185.394 58.338,185.302 58.063,185.211 C58.017,185.119 57.972,185.028 57.926,184.936 C57.788,184.890 57.651,184.844 57.513,184.799 C57.421,184.661 57.330,184.524 57.238,184.386 C57.054,184.341 56.871,184.295 56.687,184.249 C56.596,184.112 56.504,183.974 56.412,183.837 C56.275,183.791 56.137,183.745 55.999,183.699 C55.954,183.608 55.908,183.516 55.862,183.425 C55.587,183.333 55.311,183.241 55.036,183.150 C54.899,182.967 54.761,182.783 54.624,182.600 C54.440,182.554 54.257,182.509 54.073,182.463 C54.073,182.417 54.073,182.371 54.073,182.325 C53.936,182.280 53.798,182.234 53.660,182.188 C53.615,182.096 53.569,182.005 53.523,181.913 C53.431,181.913 53.339,181.913 53.248,181.913 C53.110,181.730 52.972,181.547 52.835,181.364 C52.560,181.318 52.284,181.272 52.009,181.226 C51.918,181.089 51.826,180.951 51.734,180.814 C51.642,180.814 51.551,180.814 51.459,180.814 C51.413,180.722 51.367,180.631 51.321,180.539 C51.230,180.539 51.138,180.539 51.046,180.539 C51.000,180.448 50.954,180.356 50.909,180.264 C50.679,180.219 50.450,180.173 50.221,180.127 C50.129,179.990 50.037,179.852 49.945,179.715 C49.854,179.715 49.762,179.715 49.670,179.715 C49.624,179.623 49.579,179.532 49.533,179.440 C49.441,179.440 49.349,179.440 49.258,179.440 C49.258,179.394 49.258,179.348 49.258,179.303 C49.120,179.303 48.982,179.303 48.845,179.303 C48.845,179.257 48.845,179.211 48.845,179.165 C48.753,179.165 48.661,179.165 48.570,179.165 C48.570,179.119 48.570,179.074 48.570,179.028 C48.478,179.028 48.386,179.028 48.294,179.028 C48.157,178.845 48.019,178.661 47.882,178.478 C47.561,178.387 47.239,178.295 46.918,178.204 C46.873,178.112 46.827,178.020 46.781,177.929 C46.689,177.929 46.597,177.929 46.506,177.929 C46.460,177.837 46.414,177.746 46.368,177.654 C46.276,177.654 46.185,177.654 46.093,177.654 C46.093,177.608 46.093,177.562 46.093,177.517 C46.001,177.517 45.909,177.517 45.818,177.517 C45.818,177.471 45.818,177.425 45.818,177.379 C45.543,177.333 45.267,177.288 44.992,177.242 C44.946,177.150 44.900,177.059 44.855,176.967 C44.671,176.921 44.488,176.875 44.304,176.830 C44.258,176.738 44.213,176.646 44.167,176.555 C44.075,176.555 43.983,176.555 43.891,176.555 C43.891,176.509 43.891,176.463 43.891,176.417 C43.800,176.417 43.708,176.417 43.616,176.417 C43.616,176.372 43.616,176.326 43.616,176.280 C43.433,176.280 43.249,176.280 43.066,176.280 C43.020,176.188 42.974,176.097 42.928,176.005 C42.653,175.914 42.378,175.822 42.103,175.730 C42.057,175.639 42.011,175.547 41.965,175.456 C41.782,175.456 41.598,175.456 41.415,175.456 C41.415,175.410 41.415,175.364 41.415,175.318 C41.277,175.318 41.140,175.318 41.002,175.318 C41.002,175.272 41.002,175.227 41.002,175.181 C40.910,175.181 40.819,175.181 40.727,175.181 C40.727,175.135 40.727,175.089 40.727,175.043 C40.635,175.043 40.543,175.043 40.452,175.043 C40.452,174.998 40.452,174.952 40.452,174.906 C40.314,174.860 40.177,174.814 40.039,174.769 C39.993,174.677 39.947,174.585 39.901,174.494 C39.718,174.494 39.534,174.494 39.351,174.494 C39.351,174.448 39.351,174.402 39.351,174.356 C39.213,174.356 39.076,174.356 38.938,174.356 C38.938,174.311 38.938,174.265 38.938,174.219 C38.755,174.219 38.571,174.219 38.388,174.219 C38.388,174.173 38.388,174.127 38.388,174.082 C38.296,174.082 38.204,174.082 38.113,174.082 C38.021,173.944 37.929,173.807 37.837,173.669 C37.746,173.669 37.654,173.669 37.562,173.669 C37.562,173.624 37.562,173.578 37.562,173.532 C36.966,173.395 36.370,173.257 35.774,173.120 C35.774,173.074 35.774,173.028 35.774,172.982 C35.682,172.982 35.590,172.982 35.498,172.982 C35.498,172.937 35.498,172.891 35.498,172.845 C35.407,172.845 35.315,172.845 35.223,172.845 C35.177,172.753 35.132,172.662 35.086,172.570 C34.581,172.479 34.077,172.387 33.572,172.295 C33.572,172.250 33.572,172.204 33.572,172.158 C33.389,172.112 33.205,172.066 33.022,172.021 C33.022,171.975 33.022,171.929 33.022,171.883 C32.747,171.837 32.471,171.792 32.196,171.746 C32.150,171.654 32.105,171.563 32.059,171.471 C31.646,171.425 31.233,171.379 30.820,171.334 C30.820,171.288 30.820,171.242 30.820,171.196 C30.683,171.196 30.545,171.196 30.408,171.196 C30.408,171.150 30.408,171.105 30.408,171.059 C30.316,171.059 30.224,171.059 30.132,171.059 C30.132,171.013 30.132,170.967 30.132,170.921 C29.811,170.876 29.490,170.830 29.169,170.784 C29.169,170.738 29.169,170.692 29.169,170.647 C29.078,170.647 28.986,170.647 28.894,170.647 C28.894,170.601 28.894,170.555 28.894,170.509 C28.481,170.464 28.068,170.418 27.656,170.372 C27.656,170.326 27.656,170.280 27.656,170.235 C27.472,170.235 27.289,170.235 27.105,170.235 C27.105,170.189 27.105,170.143 27.105,170.097 C26.968,170.097 26.830,170.097 26.693,170.097 C26.693,170.051 26.693,170.006 26.693,169.960 C26.555,169.960 26.417,169.960 26.280,169.960 C26.280,169.914 26.280,169.868 26.280,169.822 C26.142,169.822 26.005,169.822 25.867,169.822 C25.867,169.777 25.867,169.731 25.867,169.685 C25.730,169.685 25.592,169.685 25.454,169.685 C25.454,169.639 25.454,169.593 25.454,169.548 C25.317,169.548 25.179,169.548 25.042,169.548 C25.042,169.502 25.042,169.456 25.042,169.410 C24.445,169.364 23.849,169.319 23.253,169.273 C23.253,169.227 23.253,169.181 23.253,169.135 C22.978,169.090 22.702,169.044 22.427,168.998 C22.427,168.952 22.427,168.906 22.427,168.861 C22.336,168.861 22.244,168.861 22.152,168.861 C22.152,168.815 22.152,168.769 22.152,168.723 C21.831,168.677 21.510,168.632 21.189,168.586 C21.189,168.540 21.189,168.494 21.189,168.448 C20.364,168.403 19.538,168.357 18.712,168.311 C18.051,168.115 17.277,167.814 16.648,167.624 C16.190,167.624 15.731,167.624 15.273,167.624 C15.273,167.578 15.273,167.532 15.273,167.487 C15.089,167.487 14.906,167.487 14.722,167.487 C14.722,167.441 14.722,167.395 14.722,167.349 C13.530,167.303 12.337,167.258 11.145,167.212 C11.145,167.166 11.145,167.120 11.145,167.074 C11.007,167.074 10.870,167.074 10.732,167.074 C10.732,167.029 10.732,166.983 10.732,166.937 C10.595,166.937 10.457,166.937 10.319,166.937 C10.319,166.891 10.319,166.845 10.319,166.800 C9.952,166.845 9.585,166.891 9.219,166.937 C9.219,166.891 9.219,166.845 9.219,166.800 C8.898,166.800 8.576,166.800 8.255,166.800 C8.255,166.754 8.255,166.708 8.255,166.662 C8.026,166.662 7.797,166.662 7.567,166.662 C7.567,166.616 7.567,166.571 7.567,166.525 C6.604,166.525 5.641,166.525 4.678,166.525 C3.273,166.524 1.696,166.344 0.550,166.113 C0.550,166.021 0.550,165.929 0.550,165.838 C0.367,165.838 0.183,165.838 -0.000,165.838 C-0.000,144.269 -0.000,122.693 -0.000,101.124 C0.183,101.124 0.367,101.124 0.550,101.124 C0.550,100.849 0.550,100.574 0.550,100.300 C0.808,100.166 1.118,99.845 1.376,99.750 C3.577,99.704 5.779,99.658 7.980,99.613 C7.980,99.567 7.980,99.521 7.980,99.475 C8.714,99.475 9.448,99.475 10.182,99.475 C10.182,99.429 10.182,99.384 10.182,99.338 C10.549,99.292 10.916,99.246 11.282,99.200 C11.282,99.155 11.282,99.109 11.282,99.063 C11.649,99.109 12.016,99.155 12.383,99.200 C12.383,99.155 12.383,99.109 12.383,99.063 C12.521,99.063 12.658,99.063 12.796,99.063 C12.796,99.017 12.796,98.971 12.796,98.926 C12.934,98.926 13.071,98.926 13.209,98.926 C13.209,98.880 13.209,98.834 13.209,98.788 C13.713,98.788 14.218,98.788 14.722,98.788 C14.722,98.742 14.722,98.697 14.722,98.651 C15.594,98.605 16.465,98.559 17.336,98.513 C17.336,98.468 17.336,98.422 17.336,98.376 C17.474,98.376 17.612,98.376 17.749,98.376 C17.749,98.330 17.749,98.284 17.749,98.239 C17.887,98.239 18.024,98.239 18.162,98.239 C18.162,98.193 18.162,98.147 18.162,98.101 C18.391,98.101 18.621,98.101 18.850,98.101 C18.850,98.055 18.850,98.010 18.850,97.964 C19.079,97.964 19.309,97.964 19.538,97.964 C19.538,97.918 19.538,97.872 19.538,97.826 C19.767,97.826 19.997,97.826 20.226,97.826 C20.226,97.781 20.226,97.735 20.226,97.689 C20.868,97.643 21.510,97.597 22.152,97.552 C22.152,97.506 22.152,97.460 22.152,97.414 C22.473,97.368 22.794,97.323 23.115,97.277 C23.115,97.231 23.115,97.185 23.115,97.139 C23.207,97.139 23.299,97.139 23.390,97.139 C23.390,97.094 23.390,97.048 23.390,97.002 C23.528,97.002 23.666,97.002 23.803,97.002 C23.803,96.956 23.803,96.910 23.803,96.865 C23.987,96.865 24.170,96.865 24.354,96.865 C24.354,96.819 24.354,96.773 24.354,96.727 C24.904,96.681 25.454,96.636 26.005,96.590 C26.005,96.544 26.005,96.498 26.005,96.452 C26.142,96.452 26.280,96.452 26.417,96.452 C26.417,96.407 26.417,96.361 26.417,96.315 C26.509,96.315 26.601,96.315 26.693,96.315 C26.693,96.269 26.693,96.223 26.693,96.178 C26.830,96.178 26.968,96.178 27.105,96.178 C27.105,96.132 27.105,96.086 27.105,96.040 C27.197,96.040 27.289,96.040 27.381,96.040 C27.381,95.994 27.381,95.949 27.381,95.903 C28.160,95.766 28.940,95.628 29.720,95.491 C29.720,95.445 29.720,95.399 29.720,95.353 C29.903,95.308 30.087,95.262 30.270,95.216 C30.270,95.170 30.270,95.124 30.270,95.079 C30.408,95.079 30.545,95.079 30.683,95.079 C30.683,95.033 30.683,94.987 30.683,94.941 C30.820,94.941 30.958,94.941 31.096,94.941 C31.096,94.895 31.096,94.850 31.096,94.804 C31.233,94.804 31.371,94.804 31.508,94.804 C31.508,94.758 31.508,94.712 31.508,94.666 C31.921,94.621 32.334,94.575 32.747,94.529 C32.747,94.483 32.747,94.437 32.747,94.392 C32.838,94.392 32.930,94.392 33.022,94.392 C33.068,94.300 33.114,94.208 33.159,94.117 C33.251,94.117 33.343,94.117 33.435,94.117 C33.435,94.071 33.435,94.025 33.435,93.979 C33.526,93.979 33.618,93.979 33.710,93.979 C33.710,93.934 33.710,93.888 33.710,93.842 C34.260,93.750 34.811,93.659 35.361,93.567 C35.361,93.521 35.361,93.476 35.361,93.430 C35.544,93.384 35.728,93.338 35.911,93.292 C35.957,93.201 36.003,93.109 36.049,93.018 C36.141,93.018 36.232,93.018 36.324,93.018 C36.324,92.972 36.324,92.926 36.324,92.880 C36.828,92.789 37.333,92.697 37.837,92.605 C37.837,92.560 37.837,92.514 37.837,92.468 C37.929,92.468 38.021,92.468 38.113,92.468 C38.159,92.376 38.204,92.285 38.250,92.193 C38.342,92.193 38.434,92.193 38.525,92.193 C38.525,92.147 38.525,92.102 38.525,92.056 C38.709,92.010 38.892,91.964 39.076,91.918 C39.076,91.873 39.076,91.827 39.076,91.781 C39.534,91.689 39.993,91.598 40.452,91.506 C40.498,91.415 40.543,91.323 40.589,91.231 C40.681,91.231 40.773,91.231 40.864,91.231 C40.956,91.094 41.048,90.957 41.140,90.819 C41.231,90.819 41.323,90.819 41.415,90.819 C41.415,90.773 41.415,90.728 41.415,90.682 C41.873,90.590 42.332,90.499 42.791,90.407 C42.837,90.315 42.882,90.224 42.928,90.132 C43.066,90.086 43.204,90.041 43.341,89.995 C43.341,89.949 43.341,89.903 43.341,89.857 C43.800,89.720 44.258,89.583 44.717,89.445 C44.763,89.354 44.809,89.262 44.855,89.170 C44.946,89.170 45.038,89.170 45.130,89.170 C45.176,89.079 45.222,88.987 45.267,88.896 C45.359,88.896 45.451,88.896 45.543,88.896 C45.543,88.850 45.543,88.804 45.543,88.758 C45.955,88.621 46.368,88.483 46.781,88.346 C46.918,88.163 47.056,87.980 47.194,87.796 C47.469,87.751 47.744,87.705 48.019,87.659 C48.019,87.613 48.019,87.567 48.019,87.522 C48.203,87.476 48.386,87.430 48.570,87.384 C48.661,87.247 48.753,87.109 48.845,86.972 C48.936,86.972 49.028,86.972 49.120,86.972 C49.120,86.926 49.120,86.881 49.120,86.835 C49.212,86.835 49.303,86.835 49.395,86.835 C49.395,86.789 49.395,86.743 49.395,86.697 C49.487,86.697 49.579,86.697 49.670,86.697 C49.670,86.652 49.670,86.606 49.670,86.560 C49.762,86.560 49.854,86.560 49.945,86.560 C49.991,86.468 50.037,86.377 50.083,86.285 C50.175,86.285 50.267,86.285 50.358,86.285 C50.450,86.148 50.542,86.010 50.633,85.873 C50.725,85.873 50.817,85.873 50.909,85.873 C50.909,85.827 50.909,85.781 50.909,85.736 C51.000,85.736 51.092,85.736 51.184,85.736 C51.184,85.690 51.184,85.644 51.184,85.598 C51.321,85.598 51.459,85.598 51.597,85.598 C51.688,85.461 51.780,85.323 51.872,85.186 C52.009,85.140 52.147,85.094 52.285,85.049 C52.285,85.003 52.285,84.957 52.285,84.911 C52.376,84.911 52.468,84.911 52.560,84.911 C52.560,84.865 52.560,84.820 52.560,84.774 C52.651,84.774 52.743,84.774 52.835,84.774 C52.835,84.728 52.835,84.682 52.835,84.636 C52.927,84.636 53.018,84.636 53.110,84.636 C53.110,84.591 53.110,84.545 53.110,84.499 C53.202,84.499 53.294,84.499 53.385,84.499 C53.569,84.270 53.752,84.041 53.936,83.812 C54.257,83.720 54.578,83.629 54.899,83.537 C55.082,83.308 55.266,83.079 55.449,82.850 C55.633,82.804 55.816,82.759 55.999,82.713 C56.045,82.621 56.091,82.530 56.137,82.438 C56.229,82.438 56.321,82.438 56.412,82.438 C56.596,82.209 56.779,81.980 56.963,81.751 C57.192,81.705 57.421,81.659 57.651,81.614 C57.834,81.385 58.017,81.156 58.201,80.927 C58.293,80.927 58.384,80.927 58.476,80.927 C58.522,80.835 58.568,80.743 58.614,80.652 C58.705,80.652 58.797,80.652 58.889,80.652 C59.026,80.469 59.164,80.285 59.302,80.102 C59.393,80.102 59.485,80.102 59.577,80.102 C59.669,79.965 59.760,79.827 59.852,79.690 C59.944,79.690 60.035,79.690 60.127,79.690 C60.219,79.553 60.311,79.415 60.402,79.278 C60.494,79.278 60.586,79.278 60.678,79.278 C60.815,79.095 60.953,78.911 61.090,78.728 C61.274,78.683 61.457,78.637 61.641,78.591 C61.824,78.362 62.008,78.133 62.191,77.904 C62.283,77.904 62.375,77.904 62.466,77.904 C62.512,77.812 62.558,77.721 62.604,77.629 C62.696,77.629 62.787,77.629 62.879,77.629 C63.154,77.309 63.429,76.988 63.705,76.667 C63.796,76.667 63.888,76.667 63.980,76.667 C64.301,76.301 64.622,75.935 64.943,75.568 C65.035,75.568 65.126,75.568 65.218,75.568 C65.493,75.248 65.768,74.927 66.044,74.606 C66.135,74.606 66.227,74.606 66.319,74.606 C66.869,74.011 67.420,73.416 67.970,72.820 C68.153,72.774 68.337,72.729 68.520,72.683 C68.979,72.179 69.438,71.675 69.896,71.171 C70.584,70.530 71.272,69.889 71.960,69.248 C71.960,69.156 71.960,69.065 71.960,68.973 C72.143,68.836 72.327,68.698 72.510,68.561 C72.510,68.469 72.510,68.378 72.510,68.286 C72.786,68.057 73.061,67.828 73.336,67.599 C73.336,67.508 73.336,67.416 73.336,67.324 C73.886,66.821 74.437,66.317 74.987,65.813 C74.987,65.721 74.987,65.630 74.987,65.538 C75.079,65.492 75.170,65.447 75.262,65.401 C75.262,65.309 75.262,65.218 75.262,65.126 C75.721,64.714 76.180,64.302 76.638,63.889 C76.638,63.798 76.638,63.706 76.638,63.615 C76.822,63.477 77.005,63.340 77.188,63.202 C77.188,63.111 77.188,63.019 77.188,62.928 C77.418,62.745 77.647,62.561 77.876,62.378 C77.876,62.287 77.876,62.195 77.876,62.103 C77.968,62.058 78.060,62.012 78.152,61.966 C78.152,61.874 78.152,61.783 78.152,61.691 C78.381,61.508 78.610,61.325 78.840,61.142 C78.840,61.050 78.840,60.958 78.840,60.867 C78.931,60.821 79.023,60.775 79.115,60.729 C79.161,60.546 79.206,60.363 79.252,60.180 C79.482,59.997 79.711,59.813 79.940,59.630 C79.940,59.539 79.940,59.447 79.940,59.355 C80.032,59.310 80.124,59.264 80.215,59.218 C80.215,59.126 80.215,59.035 80.215,58.943 C80.445,58.760 80.674,58.577 80.903,58.394 C80.995,58.119 81.087,57.844 81.179,57.569 C81.362,57.432 81.546,57.294 81.729,57.157 C81.729,57.065 81.729,56.974 81.729,56.882 C81.821,56.836 81.912,56.791 82.004,56.745 C82.050,56.607 82.096,56.470 82.142,56.333 C82.188,56.333 82.233,56.333 82.279,56.333 C82.279,56.241 82.279,56.149 82.279,56.058 C82.371,56.012 82.463,55.966 82.555,55.920 C82.555,55.829 82.555,55.737 82.555,55.646 C82.692,55.554 82.830,55.462 82.967,55.371 C83.059,55.096 83.151,54.821 83.242,54.546 C83.426,54.409 83.609,54.272 83.793,54.134 C83.793,54.043 83.793,53.951 83.793,53.860 C83.839,53.860 83.885,53.860 83.930,53.860 C83.930,53.768 83.930,53.676 83.930,53.585 C83.976,53.585 84.022,53.585 84.068,53.585 C84.068,53.493 84.068,53.402 84.068,53.310 C84.114,53.310 84.160,53.310 84.206,53.310 C84.206,53.218 84.206,53.127 84.206,53.035 C84.297,52.989 84.389,52.944 84.481,52.898 C84.481,52.806 84.481,52.715 84.481,52.623 C84.618,52.531 84.756,52.440 84.894,52.348 C84.894,52.257 84.894,52.165 84.894,52.073 C84.939,52.073 84.985,52.073 85.031,52.073 C85.031,51.982 85.031,51.890 85.031,51.799 C85.077,51.799 85.123,51.799 85.169,51.799 C85.169,51.707 85.169,51.615 85.169,51.524 C85.215,51.524 85.260,51.524 85.306,51.524 C85.306,51.432 85.306,51.341 85.306,51.249 C85.490,51.112 85.673,50.974 85.857,50.837 C85.994,50.425 86.132,50.012 86.269,49.600 C86.315,49.600 86.361,49.600 86.407,49.600 C86.407,49.509 86.407,49.417 86.407,49.325 C86.545,49.234 86.682,49.142 86.820,49.051 C86.820,48.959 86.820,48.867 86.820,48.776 C86.866,48.776 86.912,48.776 86.957,48.776 C86.957,48.684 86.957,48.593 86.957,48.501 C87.003,48.501 87.049,48.501 87.095,48.501 C87.095,48.409 87.095,48.318 87.095,48.226 C87.141,48.226 87.187,48.226 87.233,48.226 C87.233,48.135 87.233,48.043 87.233,47.951 C87.278,47.951 87.324,47.951 87.370,47.951 C87.370,47.860 87.370,47.768 87.370,47.677 C87.416,47.677 87.462,47.677 87.508,47.677 C87.508,47.585 87.508,47.493 87.508,47.402 C87.600,47.356 87.691,47.310 87.783,47.264 C87.783,47.173 87.783,47.081 87.783,46.990 C87.829,46.990 87.875,46.990 87.921,46.990 C87.966,46.761 88.012,46.532 88.058,46.303 C88.104,46.303 88.150,46.303 88.196,46.303 C88.196,46.211 88.196,46.119 88.196,46.028 C88.287,45.982 88.379,45.936 88.471,45.890 C88.471,45.799 88.471,45.707 88.471,45.616 C88.609,45.524 88.746,45.432 88.884,45.341 C88.884,45.249 88.884,45.158 88.884,45.066 C88.930,45.066 88.975,45.066 89.021,45.066 C89.021,44.883 89.021,44.700 89.021,44.517 C89.067,44.517 89.113,44.517 89.159,44.517 C89.205,44.333 89.251,44.150 89.296,43.967 C89.342,43.967 89.388,43.967 89.434,43.967 C89.480,43.784 89.526,43.601 89.572,43.417 C89.663,43.372 89.755,43.326 89.847,43.280 C89.893,42.959 89.939,42.639 89.984,42.318 C90.030,42.318 90.076,42.318 90.122,42.318 C90.168,42.135 90.214,41.952 90.260,41.769 C90.305,41.769 90.351,41.769 90.397,41.769 C90.397,41.677 90.397,41.585 90.397,41.494 C90.535,41.402 90.672,41.311 90.810,41.219 C90.810,41.127 90.810,41.036 90.810,40.944 C90.856,40.944 90.902,40.944 90.948,40.944 C91.039,40.486 91.131,40.028 91.223,39.570 C91.269,39.570 91.314,39.570 91.360,39.570 C91.406,39.433 91.452,39.295 91.498,39.158 C91.590,39.112 91.681,39.066 91.773,39.021 C91.865,38.563 91.957,38.105 92.048,37.647 C92.094,37.647 92.140,37.647 92.186,37.647 C92.186,37.555 92.186,37.463 92.186,37.372 C92.278,37.326 92.369,37.280 92.461,37.235 C92.507,37.006 92.553,36.776 92.599,36.548 C92.645,36.548 92.690,36.548 92.736,36.548 C92.736,36.456 92.736,36.364 92.736,36.273 C92.782,36.273 92.828,36.273 92.874,36.273 C92.966,35.769 93.057,35.265 93.149,34.761 C93.195,34.761 93.241,34.761 93.287,34.761 C93.287,34.670 93.287,34.578 93.287,34.487 C93.378,34.441 93.470,34.395 93.562,34.349 C93.753,34.036 93.699,33.627 93.837,33.250 C93.883,33.250 93.929,33.250 93.975,33.250 C94.020,32.838 94.066,32.426 94.112,32.013 C94.158,32.013 94.204,32.013 94.250,32.013 C94.250,31.922 94.250,31.830 94.250,31.739 C94.296,31.739 94.341,31.739 94.387,31.739 C94.479,31.464 94.571,31.189 94.663,30.914 C94.708,30.914 94.754,30.914 94.800,30.914 C94.846,30.456 94.892,29.998 94.938,29.540 C94.984,29.540 95.029,29.540 95.075,29.540 C95.121,29.266 95.167,28.991 95.213,28.716 C95.259,28.716 95.305,28.716 95.350,28.716 C95.396,28.533 95.442,28.349 95.488,28.166 C95.534,28.166 95.580,28.166 95.626,28.166 C95.626,28.029 95.626,27.892 95.626,27.754 C95.672,27.754 95.717,27.754 95.763,27.754 C95.855,27.021 95.947,26.288 96.038,25.556 C96.084,25.556 96.130,25.556 96.176,25.556 C96.176,25.418 96.176,25.281 96.176,25.144 C96.222,25.144 96.268,25.144 96.314,25.144 C96.314,25.006 96.314,24.869 96.314,24.731 C96.359,24.731 96.405,24.731 96.451,24.731 C96.451,24.594 96.451,24.457 96.451,24.319 C96.497,24.319 96.543,24.319 96.589,24.319 C96.589,24.182 96.589,24.044 96.589,23.907 C96.635,23.907 96.681,23.907 96.726,23.907 C96.726,23.724 96.726,23.541 96.726,23.357 C96.772,23.357 96.818,23.357 96.864,23.357 C96.910,22.716 96.956,22.075 97.002,21.434 C97.047,21.434 97.093,21.434 97.139,21.434 C97.185,21.113 97.231,20.793 97.277,20.472 C97.323,20.472 97.368,20.472 97.414,20.472 C97.414,20.381 97.414,20.289 97.414,20.197 C97.460,20.197 97.506,20.197 97.552,20.197 C97.552,20.060 97.552,19.923 97.552,19.785 C97.598,19.785 97.644,19.785 97.690,19.785 C97.690,19.602 97.690,19.419 97.690,19.236 C97.735,19.236 97.781,19.236 97.827,19.236 C97.873,18.365 97.919,17.495 97.965,16.625 C98.011,16.625 98.056,16.625 98.102,16.625 C98.102,16.442 98.102,16.259 98.102,16.075 C98.148,16.075 98.194,16.075 98.240,16.075 C98.240,15.846 98.240,15.617 98.240,15.388 C98.286,15.388 98.332,15.388 98.377,15.388 C98.377,15.022 98.377,14.656 98.377,14.289 C98.423,14.289 98.469,14.289 98.515,14.289 C98.515,14.152 98.515,14.014 98.515,13.877 C98.561,13.877 98.607,13.877 98.653,13.877 C98.653,13.694 98.653,13.511 98.653,13.327 C98.699,13.327 98.744,13.327 98.790,13.327 C98.790,12.778 98.790,12.228 98.790,11.679 C98.836,11.679 98.882,11.679 98.928,11.679 C98.928,10.946 98.928,10.213 98.928,9.480 C98.974,9.480 99.020,9.480 99.065,9.480 C99.065,8.702 99.065,7.923 99.065,7.145 C99.111,7.145 99.157,7.145 99.203,7.145 C99.203,6.961 99.203,6.778 99.203,6.595 C99.249,6.595 99.295,6.595 99.341,6.595 C99.341,4.763 99.341,2.931 99.341,1.099 C99.439,0.773 99.588,0.495 99.616,0.000 ZM141.581,155.670 C141.673,155.670 141.764,155.670 141.856,155.670 C142.223,155.213 142.590,154.754 142.957,154.296 C143.094,154.205 143.232,154.113 143.370,154.022 C144.326,152.701 145.536,151.721 146.672,150.587 C149.011,148.205 151.350,145.823 153.689,143.442 C153.781,143.442 153.872,143.442 153.964,143.442 C154.285,143.076 154.606,142.709 154.927,142.343 C155.157,142.160 155.386,141.977 155.615,141.793 C155.661,141.702 155.707,141.610 155.753,141.519 C155.845,141.519 155.936,141.519 156.028,141.519 C156.303,141.198 156.578,140.877 156.854,140.557 C156.945,140.557 157.037,140.557 157.129,140.557 C157.129,140.511 157.129,140.465 157.129,140.419 C157.368,140.222 157.461,140.103 157.817,140.007 C157.817,139.916 157.817,139.824 157.817,139.732 C157.908,139.732 158.000,139.732 158.092,139.732 C158.184,139.595 158.275,139.458 158.367,139.320 C158.459,139.320 158.551,139.320 158.642,139.320 C158.826,139.091 159.009,138.862 159.193,138.633 C159.284,138.633 159.376,138.633 159.468,138.633 C159.743,138.313 160.018,137.992 160.293,137.671 C160.385,137.671 160.477,137.671 160.569,137.671 C160.614,137.580 160.660,137.488 160.706,137.397 C160.798,137.397 160.890,137.397 160.981,137.397 C161.256,137.076 161.532,136.755 161.807,136.435 C161.899,136.435 161.990,136.435 162.082,136.435 C162.311,136.160 162.541,135.885 162.770,135.611 C163.045,135.519 163.320,135.427 163.596,135.336 C163.779,135.107 163.962,134.878 164.146,134.649 C164.238,134.649 164.329,134.649 164.421,134.649 C164.513,134.511 164.605,134.374 164.696,134.237 C164.788,134.237 164.880,134.237 164.971,134.237 C165.247,133.916 165.522,133.595 165.797,133.275 C165.843,133.275 165.889,133.275 165.935,133.275 C165.935,133.092 165.935,132.908 165.935,132.725 C165.797,132.679 165.659,132.634 165.522,132.588 C165.476,132.496 165.430,132.405 165.384,132.313 C165.292,132.313 165.201,132.313 165.109,132.313 C164.971,132.130 164.834,131.947 164.696,131.763 C164.605,131.763 164.513,131.763 164.421,131.763 C164.375,131.672 164.329,131.580 164.283,131.489 C164.100,131.443 163.917,131.397 163.733,131.351 C163.504,131.076 163.274,130.802 163.045,130.527 C162.862,130.481 162.678,130.435 162.495,130.389 C162.266,130.115 162.036,129.840 161.807,129.565 C161.715,129.565 161.623,129.565 161.532,129.565 C161.211,129.199 160.890,128.832 160.569,128.466 C160.477,128.466 160.385,128.466 160.293,128.466 C160.110,128.237 159.926,128.008 159.743,127.779 C159.651,127.779 159.560,127.779 159.468,127.779 C159.422,127.687 159.376,127.596 159.330,127.504 C159.147,127.458 158.963,127.413 158.780,127.367 C158.321,126.863 157.863,126.359 157.404,125.855 C157.312,125.855 157.220,125.855 157.129,125.855 C156.762,125.443 156.395,125.031 156.028,124.619 C155.646,124.348 155.272,124.273 154.927,123.932 C154.744,123.703 154.560,123.474 154.377,123.245 C154.285,123.199 154.193,123.153 154.102,123.107 C154.056,122.970 154.010,122.833 153.964,122.695 C153.872,122.695 153.781,122.695 153.689,122.695 C153.597,122.558 153.506,122.420 153.414,122.283 C153.322,122.283 153.230,122.283 153.139,122.283 C151.396,120.497 149.653,118.711 147.910,116.925 C146.489,115.551 145.066,114.177 143.645,112.803 C143.645,112.711 143.645,112.619 143.645,112.528 C143.553,112.482 143.461,112.436 143.370,112.390 C143.370,112.299 143.370,112.207 143.370,112.116 C143.186,111.978 143.003,111.841 142.819,111.704 C142.498,111.337 142.177,110.971 141.856,110.604 C141.719,110.513 141.581,110.421 141.443,110.330 C141.443,110.238 141.443,110.146 141.443,110.055 C141.214,109.872 140.985,109.688 140.755,109.505 C140.755,109.414 140.755,109.322 140.755,109.230 C140.297,108.818 139.838,108.406 139.380,107.994 C139.380,107.902 139.380,107.811 139.380,107.719 C139.288,107.673 139.196,107.627 139.104,107.582 C139.059,107.444 139.013,107.307 138.967,107.169 C138.783,107.032 138.600,106.895 138.416,106.757 C138.416,106.666 138.416,106.574 138.416,106.482 C138.233,106.345 138.049,106.208 137.866,106.070 C137.866,105.979 137.866,105.887 137.866,105.795 C137.683,105.658 137.499,105.521 137.316,105.383 C137.316,105.292 137.316,105.200 137.316,105.108 C137.041,104.879 136.765,104.650 136.490,104.421 C136.490,104.330 136.490,104.238 136.490,104.147 C136.307,104.009 136.123,103.872 135.940,103.735 C135.940,103.643 135.940,103.551 135.940,103.460 C135.756,103.322 135.573,103.185 135.389,103.048 C135.389,102.956 135.389,102.864 135.389,102.773 C135.344,102.773 135.298,102.773 135.252,102.773 C135.160,102.635 135.068,102.498 134.977,102.361 C134.885,102.315 134.793,102.269 134.701,102.223 C134.701,102.132 134.701,102.040 134.701,101.948 C134.610,101.903 134.518,101.857 134.426,101.811 C134.380,101.628 134.335,101.445 134.289,101.261 C134.105,101.124 133.922,100.987 133.738,100.849 C133.738,100.758 133.738,100.666 133.738,100.574 C133.647,100.529 133.555,100.483 133.463,100.437 C133.463,100.345 133.463,100.254 133.463,100.162 C133.417,100.162 133.371,100.162 133.326,100.162 C133.326,100.071 133.326,99.979 133.326,99.887 C133.280,99.887 133.234,99.887 133.188,99.887 C133.188,99.842 133.188,99.796 133.188,99.750 C133.142,99.750 133.096,99.750 133.050,99.750 C133.050,99.704 133.050,99.658 133.050,99.613 C132.821,99.613 132.592,99.613 132.362,99.613 C132.087,99.842 131.812,100.071 131.537,100.300 C131.491,100.483 131.445,100.666 131.399,100.849 C131.216,100.987 131.032,101.124 130.849,101.261 C130.849,101.353 130.849,101.445 130.849,101.536 C130.803,101.536 130.757,101.536 130.711,101.536 C130.665,101.674 130.620,101.811 130.574,101.948 C130.482,101.994 130.390,102.040 130.299,102.086 C130.299,102.177 130.299,102.269 130.299,102.361 C130.023,102.590 129.748,102.819 129.473,103.048 C129.473,103.139 129.473,103.231 129.473,103.322 C129.198,103.551 128.923,103.780 128.647,104.009 C128.647,104.101 128.647,104.193 128.647,104.284 C128.556,104.330 128.464,104.376 128.372,104.421 C128.372,104.513 128.372,104.605 128.372,104.696 C128.143,104.879 127.914,105.063 127.684,105.246 C127.638,105.429 127.593,105.612 127.547,105.795 C127.363,105.933 127.180,106.070 126.996,106.208 C126.996,106.299 126.996,106.391 126.996,106.482 C126.813,106.620 126.629,106.757 126.446,106.895 C126.446,106.986 126.446,107.078 126.446,107.169 C126.033,107.536 125.620,107.902 125.208,108.269 C125.208,108.360 125.208,108.452 125.208,108.543 C124.978,108.727 124.749,108.910 124.520,109.093 C124.520,109.185 124.520,109.276 124.520,109.368 C123.924,109.917 123.327,110.467 122.731,111.017 C122.731,111.108 122.731,111.200 122.731,111.291 C122.548,111.429 122.364,111.566 122.181,111.704 C122.181,111.795 122.181,111.887 122.181,111.978 C122.043,112.070 121.905,112.162 121.768,112.253 C121.539,112.528 121.309,112.803 121.080,113.077 C120.667,113.444 120.254,113.810 119.842,114.177 C119.842,114.268 119.842,114.360 119.842,114.451 C119.750,114.497 119.658,114.543 119.566,114.589 C119.566,114.680 119.566,114.772 119.566,114.864 C118.924,115.459 118.282,116.054 117.640,116.650 C116.448,117.886 115.255,119.123 114.063,120.360 C113.971,120.360 113.879,120.360 113.788,120.360 C113.742,120.451 113.696,120.543 113.650,120.634 C113.558,120.634 113.467,120.634 113.375,120.634 C113.100,120.955 112.824,121.276 112.549,121.596 C112.091,122.008 111.632,122.420 111.173,122.833 C111.036,123.016 110.898,123.199 110.761,123.382 C110.669,123.382 110.577,123.382 110.485,123.382 C110.073,123.840 109.660,124.298 109.247,124.756 C109.155,124.756 109.064,124.756 108.972,124.756 C108.743,125.031 108.513,125.306 108.284,125.581 C108.146,125.626 108.009,125.672 107.871,125.718 C107.734,125.947 107.596,126.176 107.458,126.405 C107.367,126.405 107.275,126.405 107.183,126.405 C107.137,126.497 107.092,126.588 107.046,126.680 C106.954,126.680 106.862,126.680 106.771,126.680 C106.679,126.817 106.587,126.955 106.495,127.092 C106.449,127.092 106.404,127.092 106.358,127.092 C106.312,127.184 106.266,127.275 106.220,127.367 C106.128,127.367 106.037,127.367 105.945,127.367 C105.670,127.687 105.395,128.008 105.119,128.329 C105.028,128.329 104.936,128.329 104.844,128.329 C104.798,128.420 104.753,128.512 104.707,128.603 C104.615,128.603 104.523,128.603 104.431,128.603 C104.248,128.832 104.065,129.061 103.881,129.290 C103.789,129.290 103.698,129.290 103.606,129.290 C103.514,129.428 103.422,129.565 103.331,129.702 C103.239,129.702 103.147,129.702 103.056,129.702 C103.010,129.794 102.964,129.886 102.918,129.977 C102.780,130.069 102.643,130.160 102.505,130.252 C102.505,130.298 102.505,130.344 102.505,130.389 C102.413,130.389 102.322,130.389 102.230,130.389 C102.047,130.618 101.863,130.847 101.680,131.076 C101.588,131.076 101.496,131.076 101.404,131.076 C101.313,131.214 101.221,131.351 101.129,131.489 C100.946,131.534 100.762,131.580 100.579,131.626 C100.395,131.855 100.212,132.084 100.029,132.313 C99.937,132.313 99.845,132.313 99.753,132.313 C99.753,132.359 99.753,132.405 99.753,132.450 C99.662,132.450 99.570,132.450 99.478,132.450 C99.478,132.496 99.478,132.542 99.478,132.588 C99.432,132.588 99.386,132.588 99.341,132.588 C99.341,132.634 99.341,132.679 99.341,132.725 C99.295,132.725 99.249,132.725 99.203,132.725 C99.203,132.908 99.203,133.092 99.203,133.275 C99.524,133.550 99.845,133.824 100.166,134.099 C100.212,134.191 100.258,134.282 100.304,134.374 C100.395,134.374 100.487,134.374 100.579,134.374 C100.625,134.466 100.671,134.557 100.717,134.649 C100.808,134.649 100.900,134.649 100.992,134.649 C101.175,134.878 101.359,135.107 101.542,135.336 C101.725,135.382 101.909,135.427 102.092,135.473 C102.184,135.611 102.276,135.748 102.368,135.885 C102.459,135.885 102.551,135.885 102.643,135.885 C102.826,136.114 103.010,136.343 103.193,136.572 C103.285,136.572 103.377,136.572 103.468,136.572 C103.652,136.801 103.835,137.030 104.019,137.259 C104.110,137.259 104.202,137.259 104.294,137.259 C104.615,137.626 104.936,137.992 105.257,138.358 C105.349,138.358 105.440,138.358 105.532,138.358 C105.532,138.404 105.532,138.450 105.532,138.496 C105.670,138.587 105.807,138.679 105.945,138.771 C106.083,138.954 106.220,139.137 106.358,139.320 C106.633,139.412 106.908,139.503 107.183,139.595 C107.688,140.145 108.192,140.694 108.697,141.244 C108.788,141.244 108.880,141.244 108.972,141.244 C109.339,141.656 109.706,142.068 110.073,142.480 C110.164,142.480 110.256,142.480 110.348,142.480 C110.577,142.755 110.807,143.030 111.036,143.305 C111.128,143.305 111.219,143.305 111.311,143.305 C111.403,143.442 111.494,143.580 111.586,143.717 C111.678,143.763 111.770,143.809 111.861,143.854 C111.861,143.946 111.861,144.038 111.861,144.129 C112.137,144.312 112.412,144.496 112.687,144.679 C112.687,144.770 112.687,144.862 112.687,144.954 C112.733,144.954 112.779,144.954 112.825,144.954 C112.916,145.091 113.008,145.228 113.100,145.366 C113.191,145.366 113.283,145.366 113.375,145.366 C113.421,145.457 113.467,145.549 113.512,145.640 C113.604,145.640 113.696,145.640 113.788,145.640 C114.842,146.740 115.897,147.839 116.952,148.938 C117.824,149.762 118.695,150.587 119.566,151.411 C119.566,151.503 119.566,151.594 119.566,151.686 C119.887,151.961 120.209,152.236 120.530,152.510 C120.530,152.602 120.530,152.694 120.530,152.785 C121.309,153.518 122.089,154.251 122.869,154.983 C122.869,155.075 122.869,155.167 122.869,155.258 C123.052,155.396 123.236,155.533 123.419,155.670 C123.419,155.762 123.419,155.854 123.419,155.945 C123.511,155.991 123.602,156.037 123.694,156.083 C123.694,156.128 123.694,156.174 123.694,156.220 C124.061,156.541 124.428,156.861 124.795,157.182 C124.795,157.273 124.795,157.365 124.795,157.457 C124.978,157.594 125.162,157.731 125.345,157.869 C125.345,157.960 125.345,158.052 125.345,158.144 C125.712,158.464 126.079,158.785 126.446,159.105 C126.446,159.197 126.446,159.289 126.446,159.380 C126.538,159.426 126.629,159.472 126.721,159.518 C126.721,159.609 126.721,159.701 126.721,159.792 C126.950,159.976 127.180,160.159 127.409,160.342 C127.409,160.434 127.409,160.525 127.409,160.617 C127.501,160.663 127.593,160.708 127.684,160.754 C127.684,160.846 127.684,160.937 127.684,161.029 C127.959,161.258 128.235,161.487 128.510,161.716 C128.510,161.807 128.510,161.899 128.510,161.991 C128.556,161.991 128.602,161.991 128.647,161.991 C128.785,162.174 128.923,162.357 129.060,162.540 C129.198,162.632 129.335,162.723 129.473,162.815 C129.519,162.998 129.565,163.181 129.611,163.365 C129.886,163.594 130.161,163.823 130.436,164.052 C130.482,164.235 130.528,164.418 130.574,164.601 C130.665,164.647 130.757,164.693 130.849,164.739 C130.849,164.830 130.849,164.922 130.849,165.013 C131.032,165.151 131.216,165.288 131.399,165.426 C131.399,165.517 131.399,165.609 131.399,165.700 C131.878,166.400 132.226,166.556 133.188,166.387 C133.417,166.021 133.647,165.655 133.876,165.288 C134.013,165.197 134.151,165.105 134.289,165.013 C134.289,164.922 134.289,164.830 134.289,164.739 C134.380,164.693 134.472,164.647 134.564,164.601 C134.610,164.418 134.656,164.235 134.701,164.052 C134.931,163.868 135.160,163.685 135.389,163.502 C135.389,163.410 135.389,163.319 135.389,163.227 C135.481,163.181 135.573,163.136 135.665,163.090 C135.665,162.998 135.665,162.907 135.665,162.815 C135.894,162.632 136.123,162.449 136.353,162.265 C136.353,162.174 136.353,162.082 136.353,161.991 C136.536,161.853 136.719,161.716 136.903,161.579 C136.903,161.487 136.903,161.395 136.903,161.304 C137.132,161.121 137.362,160.937 137.591,160.754 C137.591,160.663 137.591,160.571 137.591,160.479 C137.866,160.250 138.141,160.021 138.416,159.792 C138.416,159.701 138.416,159.609 138.416,159.518 C138.462,159.518 138.508,159.518 138.554,159.518 C138.646,159.380 138.737,159.243 138.829,159.105 C138.967,159.014 139.104,158.922 139.242,158.831 C139.242,158.739 139.242,158.647 139.242,158.556 C139.334,158.510 139.425,158.464 139.517,158.418 C139.563,158.235 139.609,158.052 139.655,157.869 C140.113,157.457 140.572,157.044 141.031,156.632 C141.031,156.541 141.031,156.449 141.031,156.357 C141.076,156.357 141.122,156.357 141.168,156.357 C141.366,156.118 141.482,156.025 141.581,155.670 Z"/>
</svg>