<svg 
 xmlns="http://www.w3.org/2000/svg"
 xmlns:xlink="http://www.w3.org/1999/xlink"
 width="102px" height="105px">
<path fill-rule="evenodd"  fill="rgb(88, 88, 88)"
 d="M65.073,62.712 C65.073,60.690 65.073,58.667 65.073,56.645 C65.073,55.559 64.979,55.111 65.542,54.544 C65.690,54.395 65.681,54.300 65.932,54.233 C66.135,54.026 66.831,53.949 67.181,54.078 C67.181,54.104 67.181,54.130 67.181,54.156 C67.259,54.156 67.337,54.156 67.415,54.156 C67.441,54.207 67.467,54.259 67.493,54.311 C67.571,54.337 67.650,54.363 67.728,54.389 C67.728,54.415 67.728,54.441 67.728,54.467 C67.832,54.493 67.936,54.519 68.040,54.544 C68.066,54.596 68.092,54.648 68.118,54.700 C68.170,54.700 68.222,54.700 68.274,54.700 C68.274,54.726 68.274,54.752 68.274,54.778 C68.352,54.804 68.430,54.830 68.508,54.856 C68.534,54.907 68.560,54.959 68.586,55.011 C68.638,55.011 68.690,55.011 68.742,55.011 C68.768,55.063 68.795,55.115 68.821,55.167 C68.873,55.167 68.925,55.167 68.977,55.167 C69.003,55.219 69.029,55.270 69.055,55.322 C69.107,55.322 69.159,55.322 69.211,55.322 C69.211,55.348 69.211,55.374 69.211,55.400 C69.289,55.426 69.367,55.452 69.445,55.478 C69.471,55.530 69.497,55.582 69.523,55.633 C69.575,55.633 69.627,55.633 69.679,55.633 C69.705,55.685 69.731,55.737 69.757,55.789 C69.809,55.789 69.861,55.789 69.914,55.789 C69.940,55.841 69.966,55.893 69.992,55.945 C70.044,55.945 70.096,55.945 70.148,55.945 C70.174,55.996 70.200,56.048 70.226,56.100 C70.278,56.100 70.330,56.100 70.382,56.100 C70.408,56.152 70.434,56.204 70.460,56.256 C70.512,56.256 70.564,56.256 70.616,56.256 C70.642,56.308 70.668,56.359 70.694,56.411 C70.746,56.411 70.798,56.411 70.850,56.411 C70.876,56.463 70.902,56.515 70.928,56.567 C70.980,56.567 71.033,56.567 71.085,56.567 C71.111,56.619 71.137,56.671 71.163,56.722 C71.267,56.748 71.371,56.774 71.475,56.800 C71.501,56.852 71.527,56.904 71.553,56.956 C71.605,56.956 71.657,56.956 71.709,56.956 C71.735,57.008 71.761,57.060 71.787,57.111 C71.839,57.111 71.891,57.111 71.943,57.111 C71.943,57.137 71.943,57.163 71.943,57.189 C72.021,57.215 72.099,57.241 72.178,57.267 C72.204,57.319 72.230,57.371 72.256,57.423 C72.308,57.423 72.360,57.423 72.412,57.423 C72.438,57.474 72.464,57.526 72.490,57.578 C72.542,57.578 72.594,57.578 72.646,57.578 C72.672,57.630 72.698,57.682 72.724,57.734 C72.776,57.734 72.828,57.734 72.880,57.734 C72.906,57.786 72.932,57.837 72.958,57.889 C73.010,57.889 73.062,57.889 73.114,57.889 C73.140,57.941 73.166,57.993 73.192,58.045 C73.244,58.045 73.297,58.045 73.349,58.045 C73.349,58.071 73.349,58.097 73.349,58.123 C73.427,58.149 73.505,58.174 73.583,58.200 C73.609,58.252 73.635,58.304 73.661,58.356 C73.713,58.356 73.765,58.356 73.817,58.356 C73.843,58.408 73.869,58.460 73.895,58.512 C73.947,58.512 73.999,58.512 74.051,58.512 C74.077,58.563 74.103,58.615 74.129,58.667 C74.181,58.667 74.233,58.667 74.285,58.667 C74.311,58.719 74.337,58.771 74.363,58.823 C74.416,58.823 74.468,58.823 74.520,58.823 C74.546,58.875 74.572,58.926 74.598,58.978 C74.702,59.004 74.806,59.030 74.910,59.056 C74.936,59.108 74.962,59.160 74.988,59.212 C75.040,59.212 75.092,59.212 75.144,59.212 C75.170,59.263 75.196,59.315 75.222,59.367 C75.274,59.367 75.326,59.367 75.378,59.367 C75.378,59.393 75.378,59.419 75.378,59.445 C75.456,59.471 75.535,59.497 75.613,59.523 C75.639,59.575 75.665,59.626 75.691,59.678 C75.743,59.678 75.795,59.678 75.847,59.678 C75.873,59.730 75.899,59.782 75.925,59.834 C75.977,59.834 76.029,59.834 76.081,59.834 C76.107,59.886 76.133,59.938 76.159,59.989 C76.211,59.989 76.263,59.989 76.315,59.989 C76.341,60.041 76.367,60.093 76.393,60.145 C76.445,60.145 76.497,60.145 76.549,60.145 C76.549,60.171 76.549,60.197 76.549,60.223 C76.627,60.249 76.706,60.275 76.784,60.301 C76.810,60.352 76.836,60.404 76.862,60.456 C76.914,60.456 76.966,60.456 77.018,60.456 C77.044,60.508 77.070,60.560 77.096,60.612 C77.148,60.612 77.200,60.612 77.252,60.612 C77.278,60.664 77.304,60.715 77.330,60.767 C77.382,60.767 77.434,60.767 77.486,60.767 C77.512,60.819 77.538,60.871 77.564,60.923 C77.616,60.923 77.668,60.923 77.720,60.923 C77.746,60.975 77.772,61.027 77.799,61.078 C77.851,61.078 77.903,61.078 77.955,61.078 C77.981,61.130 78.007,61.182 78.033,61.234 C78.137,61.260 78.241,61.286 78.345,61.312 C78.345,61.338 78.345,61.364 78.345,61.390 C78.423,61.415 78.501,61.441 78.579,61.467 C78.605,61.519 78.631,61.571 78.657,61.623 C78.709,61.623 78.761,61.623 78.813,61.623 C78.839,61.675 78.865,61.727 78.891,61.778 C78.944,61.778 78.996,61.778 79.048,61.778 C79.048,61.804 79.048,61.830 79.048,61.856 C79.126,61.882 79.204,61.908 79.282,61.934 C79.308,61.986 79.334,62.038 79.360,62.090 C79.412,62.090 79.464,62.090 79.516,62.090 C79.809,62.284 80.064,62.607 80.453,62.712 C80.453,60.897 80.453,59.082 80.453,57.267 C80.453,56.523 80.344,55.352 80.609,54.856 C80.661,54.830 80.713,54.804 80.765,54.778 C80.765,54.726 80.765,54.674 80.765,54.622 C80.791,54.622 80.817,54.622 80.843,54.622 C80.921,54.519 80.999,54.415 81.077,54.311 C81.129,54.311 81.182,54.311 81.234,54.311 C81.234,54.285 81.234,54.259 81.234,54.233 C81.392,54.143 81.409,54.233 81.546,54.078 C81.925,54.051 81.930,53.983 82.248,54.078 C82.379,54.078 82.509,54.078 82.639,54.078 C82.639,54.104 82.639,54.130 82.639,54.156 C82.743,54.181 82.847,54.207 82.951,54.233 C82.977,54.285 83.003,54.337 83.029,54.389 C83.081,54.389 83.133,54.389 83.185,54.389 C83.211,54.441 83.237,54.493 83.263,54.544 C83.315,54.544 83.367,54.544 83.420,54.544 C83.446,54.596 83.472,54.648 83.498,54.700 C83.576,54.726 83.654,54.752 83.732,54.778 C83.732,54.804 83.732,54.830 83.732,54.856 C83.836,54.882 83.940,54.907 84.044,54.933 C84.070,54.985 84.096,55.037 84.122,55.089 C84.174,55.089 84.226,55.089 84.278,55.089 C84.278,55.115 84.278,55.141 84.278,55.167 C84.356,55.193 84.434,55.219 84.512,55.245 C84.538,55.296 84.565,55.348 84.591,55.400 C84.643,55.400 84.695,55.400 84.747,55.400 C84.773,55.452 84.799,55.504 84.825,55.556 C84.877,55.556 84.929,55.556 84.981,55.556 C85.007,55.608 85.033,55.659 85.059,55.711 C85.111,55.711 85.163,55.711 85.215,55.711 C85.241,55.763 85.267,55.815 85.293,55.867 C85.345,55.867 85.397,55.867 85.449,55.867 C85.475,55.919 85.501,55.971 85.527,56.022 C85.579,56.022 85.631,56.022 85.684,56.022 C85.684,56.048 85.684,56.074 85.684,56.100 C85.762,56.126 85.840,56.152 85.918,56.178 C85.944,56.230 85.970,56.282 85.996,56.334 C86.048,56.334 86.100,56.334 86.152,56.334 C86.178,56.385 86.204,56.437 86.230,56.489 C86.282,56.489 86.334,56.489 86.386,56.489 C86.412,56.541 86.438,56.593 86.464,56.645 C86.516,56.645 86.568,56.645 86.620,56.645 C86.646,56.697 86.672,56.748 86.698,56.800 C86.750,56.800 86.803,56.800 86.855,56.800 C86.881,56.852 86.907,56.904 86.933,56.956 C86.985,56.956 87.037,56.956 87.089,56.956 C87.115,57.008 87.141,57.060 87.167,57.111 C87.271,57.137 87.375,57.163 87.479,57.189 C87.505,57.241 87.531,57.293 87.557,57.345 C87.609,57.345 87.661,57.345 87.713,57.345 C87.739,57.397 87.765,57.448 87.791,57.500 C87.843,57.500 87.895,57.500 87.948,57.500 C87.974,57.552 88.000,57.604 88.026,57.656 C88.078,57.656 88.130,57.656 88.182,57.656 C88.208,57.708 88.234,57.760 88.260,57.811 C88.312,57.811 88.364,57.811 88.416,57.811 C88.442,57.863 88.468,57.915 88.494,57.967 C88.546,57.967 88.598,57.967 88.650,57.967 C88.676,58.019 88.702,58.071 88.728,58.123 C88.780,58.123 88.832,58.123 88.884,58.123 C88.884,58.149 88.884,58.174 88.884,58.200 C88.962,58.226 89.041,58.252 89.119,58.278 C89.145,58.330 89.171,58.382 89.197,58.434 C89.249,58.434 89.301,58.434 89.353,58.434 C89.379,58.486 89.405,58.537 89.431,58.589 C89.483,58.589 89.535,58.589 89.587,58.589 C89.587,58.615 89.587,58.641 89.587,58.667 C89.665,58.693 89.743,58.719 89.821,58.745 C89.847,58.797 89.873,58.849 89.899,58.900 C89.951,58.900 90.003,58.900 90.055,58.900 C90.081,58.952 90.107,59.004 90.133,59.056 C90.186,59.056 90.238,59.056 90.290,59.056 C90.316,59.108 90.342,59.160 90.368,59.212 C90.420,59.212 90.472,59.212 90.524,59.212 C90.550,59.263 90.576,59.315 90.602,59.367 C90.706,59.393 90.810,59.419 90.914,59.445 C90.940,59.497 90.966,59.549 90.992,59.600 C91.044,59.600 91.096,59.600 91.148,59.600 C91.174,59.652 91.200,59.704 91.226,59.756 C91.278,59.756 91.331,59.756 91.383,59.756 C91.383,59.782 91.383,59.808 91.383,59.834 C91.461,59.860 91.539,59.886 91.617,59.912 C91.643,59.963 91.669,60.015 91.695,60.067 C91.747,60.067 91.799,60.067 91.851,60.067 C91.877,60.119 91.903,60.171 91.929,60.223 C91.981,60.223 92.033,60.223 92.085,60.223 C92.111,60.275 92.137,60.326 92.163,60.378 C92.215,60.378 92.267,60.378 92.319,60.378 C92.345,60.430 92.371,60.482 92.397,60.534 C92.450,60.534 92.502,60.534 92.554,60.534 C92.554,60.560 92.554,60.586 92.554,60.612 C92.632,60.638 92.710,60.664 92.788,60.689 C92.814,60.741 92.840,60.793 92.866,60.845 C92.918,60.845 92.970,60.845 93.022,60.845 C93.048,60.897 93.074,60.949 93.100,61.001 C93.152,61.001 93.204,61.001 93.256,61.001 C93.282,61.052 93.308,61.104 93.334,61.156 C93.386,61.156 93.438,61.156 93.490,61.156 C93.516,61.208 93.542,61.260 93.569,61.312 C93.621,61.312 93.673,61.312 93.725,61.312 C93.751,61.364 93.777,61.415 93.803,61.467 C93.855,61.467 93.907,61.467 93.959,61.467 C93.985,61.519 94.011,61.571 94.037,61.623 C94.141,61.649 94.245,61.675 94.349,61.701 C94.375,61.753 94.401,61.804 94.427,61.856 C94.479,61.856 94.531,61.856 94.583,61.856 C94.583,61.882 94.583,61.908 94.583,61.934 C94.661,61.960 94.740,61.986 94.818,62.012 C94.844,62.064 94.870,62.116 94.896,62.167 C94.948,62.167 95.000,62.167 95.052,62.167 C95.078,62.219 95.104,62.271 95.130,62.323 C95.182,62.323 95.234,62.323 95.286,62.323 C95.312,62.375 95.338,62.427 95.364,62.479 C95.416,62.479 95.468,62.479 95.520,62.479 C95.546,62.530 95.572,62.582 95.598,62.634 C95.650,62.634 95.702,62.634 95.754,62.634 C95.780,62.686 95.807,62.738 95.833,62.790 C95.885,62.790 95.937,62.790 95.989,62.790 C96.015,62.842 96.041,62.893 96.067,62.945 C96.119,62.945 96.171,62.945 96.223,62.945 C96.249,62.997 96.275,63.049 96.301,63.101 C96.353,63.101 96.405,63.101 96.457,63.101 C96.483,63.153 96.509,63.205 96.535,63.256 C96.587,63.256 96.639,63.256 96.691,63.256 C96.691,63.282 96.691,63.308 96.691,63.334 C96.769,63.360 96.847,63.386 96.925,63.412 C96.952,63.464 96.978,63.516 97.004,63.568 C97.056,63.568 97.108,63.568 97.160,63.568 C97.186,63.619 97.212,63.671 97.238,63.723 C97.290,63.723 97.342,63.723 97.394,63.723 C97.420,63.775 97.446,63.827 97.472,63.879 C97.524,63.879 97.576,63.879 97.628,63.879 C97.654,63.931 97.680,63.982 97.706,64.034 C97.810,64.060 97.914,64.086 98.018,64.112 C98.044,64.164 98.071,64.216 98.097,64.268 C98.149,64.268 98.201,64.268 98.253,64.268 C98.279,64.319 98.305,64.371 98.331,64.423 C98.383,64.423 98.435,64.423 98.487,64.423 C98.565,64.527 98.643,64.631 98.721,64.734 C98.747,64.734 98.773,64.734 98.799,64.734 C98.799,64.786 98.799,64.838 98.799,64.890 C98.851,64.916 98.903,64.942 98.955,64.968 C99.238,65.499 99.112,66.820 99.111,67.612 C99.111,69.660 99.111,71.709 99.111,73.757 C99.111,81.172 99.111,88.589 99.111,96.004 C99.456,96.038 99.587,96.187 99.814,96.315 C99.866,96.315 99.918,96.315 99.970,96.315 C99.996,96.367 100.022,96.419 100.048,96.470 C100.100,96.470 100.152,96.470 100.204,96.470 C100.256,96.548 100.309,96.626 100.361,96.704 C100.413,96.704 100.465,96.704 100.517,96.704 C100.621,96.833 100.725,96.963 100.829,97.093 C100.881,97.119 100.933,97.145 100.985,97.170 C100.985,97.222 100.985,97.274 100.985,97.326 C101.063,97.378 101.141,97.430 101.219,97.482 C101.219,97.533 101.219,97.585 101.219,97.637 C101.271,97.663 101.323,97.689 101.375,97.715 C101.807,98.392 102.000,99.252 102.000,100.360 C101.974,100.800 101.948,101.241 101.922,101.682 C101.361,103.336 100.385,104.318 98.721,104.871 C98.121,105.071 97.182,104.949 96.457,104.949 C94.896,104.949 93.334,104.949 91.773,104.949 C86.543,104.949 81.311,104.949 76.081,104.949 C58.673,104.949 41.260,104.949 23.853,104.949 C18.805,104.949 13.755,104.949 8.707,104.949 C6.559,104.949 3.480,105.243 2.149,104.404 C1.196,103.804 0.509,102.848 0.120,101.682 C0.041,101.446 -0.054,99.752 0.041,99.426 C0.067,99.426 0.094,99.426 0.120,99.426 C0.172,99.115 0.224,98.804 0.276,98.493 C0.709,97.489 1.889,96.043 3.164,95.926 C3.164,86.696 3.164,77.464 3.164,68.235 C1.896,68.122 0.702,66.666 0.276,65.668 C0.224,65.357 0.172,65.045 0.120,64.734 C0.094,64.734 0.067,64.734 0.041,64.734 C-0.053,64.406 0.040,62.714 0.120,62.479 C0.672,60.850 1.662,59.813 3.320,59.289 C3.450,59.289 3.581,59.289 3.711,59.289 C3.711,59.263 3.711,59.237 3.711,59.212 C4.023,59.237 4.335,59.263 4.648,59.289 C5.610,59.289 6.573,59.289 7.536,59.289 C10.815,59.289 14.094,59.289 17.373,59.289 C27.547,59.289 37.724,59.289 47.898,59.289 C48.330,59.169 49.058,59.212 49.615,59.212 C49.615,58.304 49.615,57.397 49.615,56.489 C49.642,56.022 49.668,55.556 49.694,55.089 C49.850,54.856 50.006,54.622 50.162,54.389 C50.338,54.261 50.562,54.243 50.708,54.078 C50.943,54.052 51.177,54.026 51.411,54.000 C51.411,54.026 51.411,54.052 51.411,54.078 C51.541,54.078 51.671,54.078 51.801,54.078 C51.801,54.104 51.801,54.130 51.801,54.156 C51.906,54.181 52.010,54.207 52.114,54.233 C52.114,54.259 52.114,54.285 52.114,54.311 C52.166,54.311 52.218,54.311 52.270,54.311 C52.296,54.363 52.322,54.415 52.348,54.467 C52.400,54.467 52.452,54.467 52.504,54.467 C52.530,54.519 52.556,54.570 52.582,54.622 C52.634,54.622 52.686,54.622 52.738,54.622 C52.764,54.674 52.790,54.726 52.816,54.778 C52.868,54.778 52.920,54.778 52.972,54.778 C52.972,54.804 52.972,54.830 52.972,54.856 C53.051,54.882 53.129,54.907 53.207,54.933 C53.233,54.985 53.259,55.037 53.285,55.089 C53.337,55.089 53.389,55.089 53.441,55.089 C53.467,55.141 53.493,55.193 53.519,55.245 C53.571,55.245 53.623,55.245 53.675,55.245 C53.701,55.296 53.727,55.348 53.753,55.400 C53.805,55.400 53.857,55.400 53.909,55.400 C53.935,55.452 53.961,55.504 53.987,55.556 C54.039,55.556 54.091,55.556 54.144,55.556 C54.170,55.608 54.196,55.659 54.222,55.711 C54.274,55.711 54.326,55.711 54.378,55.711 C54.404,55.763 54.430,55.815 54.456,55.867 C54.508,55.867 54.560,55.867 54.612,55.867 C54.612,55.893 54.612,55.919 54.612,55.945 C54.690,55.971 54.768,55.996 54.846,56.022 C54.872,56.074 54.898,56.126 54.924,56.178 C54.976,56.178 55.028,56.178 55.080,56.178 C55.106,56.230 55.132,56.282 55.158,56.334 C55.262,56.359 55.367,56.385 55.471,56.411 C55.471,56.437 55.471,56.463 55.471,56.489 C55.549,56.515 55.627,56.541 55.705,56.567 C55.731,56.619 55.757,56.671 55.783,56.722 C55.835,56.722 55.887,56.722 55.939,56.722 C55.965,56.774 55.991,56.826 56.017,56.878 C56.069,56.878 56.121,56.878 56.173,56.878 C56.173,56.904 56.173,56.930 56.173,56.956 C56.251,56.982 56.329,57.008 56.408,57.034 C56.434,57.085 56.460,57.137 56.486,57.189 C56.538,57.189 56.590,57.189 56.642,57.189 C56.668,57.241 56.694,57.293 56.720,57.345 C56.772,57.345 56.824,57.345 56.876,57.345 C56.876,57.371 56.876,57.397 56.876,57.423 C56.954,57.448 57.032,57.474 57.110,57.500 C57.136,57.552 57.162,57.604 57.188,57.656 C57.240,57.656 57.292,57.656 57.344,57.656 C57.370,57.708 57.396,57.760 57.422,57.811 C57.474,57.811 57.527,57.811 57.579,57.811 C57.605,57.863 57.631,57.915 57.657,57.967 C57.709,57.967 57.761,57.967 57.813,57.967 C57.839,58.019 57.865,58.071 57.891,58.123 C57.943,58.123 57.995,58.123 58.047,58.123 C58.047,58.149 58.047,58.174 58.047,58.200 C58.125,58.226 58.203,58.252 58.281,58.278 C58.307,58.330 58.333,58.382 58.359,58.434 C58.411,58.434 58.463,58.434 58.515,58.434 C58.541,58.486 58.567,58.537 58.593,58.589 C58.698,58.615 58.802,58.641 58.906,58.667 C58.932,58.719 58.958,58.771 58.984,58.823 C59.036,58.823 59.088,58.823 59.140,58.823 C59.166,58.875 59.192,58.926 59.218,58.978 C59.270,58.978 59.322,58.978 59.374,58.978 C59.400,59.030 59.426,59.082 59.452,59.134 C59.504,59.134 59.556,59.134 59.608,59.134 C59.608,59.160 59.608,59.186 59.608,59.212 C59.686,59.237 59.765,59.263 59.843,59.289 C59.869,59.341 59.895,59.393 59.921,59.445 C59.973,59.445 60.025,59.445 60.077,59.445 C60.103,59.497 60.129,59.549 60.155,59.600 C60.207,59.600 60.259,59.600 60.311,59.600 C60.337,59.652 60.363,59.704 60.389,59.756 C60.441,59.756 60.493,59.756 60.545,59.756 C60.571,59.808 60.597,59.860 60.623,59.912 C60.675,59.912 60.727,59.912 60.779,59.912 C60.805,59.963 60.831,60.015 60.857,60.067 C60.910,60.067 60.962,60.067 61.014,60.067 C61.040,60.119 61.066,60.171 61.092,60.223 C61.144,60.223 61.196,60.223 61.248,60.223 C61.274,60.275 61.300,60.326 61.326,60.378 C61.378,60.378 61.430,60.378 61.482,60.378 C61.482,60.404 61.482,60.430 61.482,60.456 C61.560,60.482 61.638,60.508 61.716,60.534 C61.742,60.586 61.768,60.638 61.794,60.689 C61.846,60.689 61.898,60.689 61.950,60.689 C61.976,60.741 62.002,60.793 62.029,60.845 C62.107,60.871 62.185,60.897 62.263,60.923 C62.263,60.949 62.263,60.975 62.263,61.001 C62.367,61.027 62.471,61.052 62.575,61.078 C62.575,61.104 62.575,61.130 62.575,61.156 C62.653,61.182 62.731,61.208 62.809,61.234 C62.835,61.286 62.861,61.338 62.887,61.390 C62.939,61.390 62.991,61.390 63.043,61.390 C63.069,61.441 63.095,61.493 63.121,61.545 C63.174,61.545 63.226,61.545 63.278,61.545 C63.278,61.571 63.278,61.597 63.278,61.623 C63.356,61.649 63.434,61.675 63.512,61.701 C63.538,61.753 63.564,61.804 63.590,61.856 C63.642,61.856 63.694,61.856 63.746,61.856 C63.772,61.908 63.798,61.960 63.824,62.012 C63.876,62.012 63.928,62.012 63.980,62.012 C64.006,62.064 64.032,62.116 64.058,62.167 C64.110,62.167 64.162,62.167 64.214,62.167 C64.240,62.219 64.267,62.271 64.293,62.323 C64.345,62.323 64.397,62.323 64.449,62.323 C64.475,62.375 64.501,62.427 64.527,62.479 C64.699,62.593 64.856,62.661 65.073,62.712 ZM52.894,95.693 C56.954,95.693 61.014,95.693 65.073,95.693 C65.073,85.996 65.073,76.297 65.073,66.601 C64.839,66.471 64.605,66.342 64.371,66.212 C64.345,66.160 64.319,66.108 64.293,66.057 C64.188,66.031 64.084,66.005 63.980,65.979 C63.954,65.927 63.928,65.875 63.902,65.823 C63.850,65.823 63.798,65.823 63.746,65.823 C63.720,65.771 63.694,65.720 63.668,65.668 C63.616,65.668 63.564,65.668 63.512,65.668 C63.486,65.616 63.460,65.564 63.434,65.512 C63.382,65.512 63.330,65.512 63.278,65.512 C63.252,65.460 63.226,65.408 63.200,65.357 C63.148,65.357 63.095,65.357 63.043,65.357 C63.017,65.305 62.991,65.253 62.965,65.201 C62.913,65.201 62.861,65.201 62.809,65.201 C62.783,65.149 62.757,65.097 62.731,65.045 C62.679,65.045 62.627,65.045 62.575,65.045 C62.549,64.994 62.523,64.942 62.497,64.890 C62.445,64.890 62.393,64.890 62.341,64.890 C62.341,64.864 62.341,64.838 62.341,64.812 C62.263,64.786 62.185,64.760 62.107,64.734 C62.081,64.682 62.055,64.631 62.029,64.579 C61.976,64.579 61.924,64.579 61.872,64.579 C61.846,64.527 61.820,64.475 61.794,64.423 C61.742,64.423 61.690,64.423 61.638,64.423 C61.612,64.371 61.586,64.319 61.560,64.268 C61.508,64.268 61.456,64.268 61.404,64.268 C61.378,64.216 61.352,64.164 61.326,64.112 C61.274,64.112 61.222,64.112 61.170,64.112 C61.144,64.060 61.118,64.008 61.092,63.956 C61.040,63.956 60.988,63.956 60.936,63.956 C60.910,63.905 60.883,63.853 60.857,63.801 C60.753,63.775 60.649,63.749 60.545,63.723 C60.519,63.671 60.493,63.619 60.467,63.568 C60.415,63.568 60.363,63.568 60.311,63.568 C60.285,63.516 60.259,63.464 60.233,63.412 C60.181,63.412 60.129,63.412 60.077,63.412 C60.051,63.360 60.025,63.308 59.999,63.256 C59.947,63.256 59.895,63.256 59.843,63.256 C59.843,63.230 59.843,63.205 59.843,63.179 C59.765,63.153 59.686,63.127 59.608,63.101 C59.582,63.049 59.556,62.997 59.530,62.945 C59.478,62.945 59.426,62.945 59.374,62.945 C59.348,62.893 59.322,62.842 59.296,62.790 C59.244,62.790 59.192,62.790 59.140,62.790 C59.114,62.738 59.088,62.686 59.062,62.634 C59.010,62.634 58.958,62.634 58.906,62.634 C58.880,62.582 58.854,62.530 58.828,62.479 C58.776,62.479 58.724,62.479 58.672,62.479 C58.646,62.427 58.619,62.375 58.593,62.323 C58.541,62.323 58.489,62.323 58.437,62.323 C58.411,62.271 58.385,62.219 58.359,62.167 C58.307,62.167 58.255,62.167 58.203,62.167 C58.203,62.141 58.203,62.116 58.203,62.090 C58.125,62.064 58.047,62.038 57.969,62.012 C57.943,61.960 57.917,61.908 57.891,61.856 C57.839,61.856 57.787,61.856 57.735,61.856 C57.709,61.804 57.683,61.753 57.657,61.701 C57.579,61.675 57.500,61.649 57.422,61.623 C57.422,61.597 57.422,61.571 57.422,61.545 C57.318,61.519 57.214,61.493 57.110,61.467 C57.084,61.415 57.058,61.364 57.032,61.312 C56.980,61.312 56.928,61.312 56.876,61.312 C56.876,61.286 56.876,61.260 56.876,61.234 C56.798,61.208 56.720,61.182 56.642,61.156 C56.616,61.104 56.590,61.052 56.564,61.001 C56.512,61.001 56.460,61.001 56.408,61.001 C56.381,60.949 56.355,60.897 56.329,60.845 C56.277,60.845 56.225,60.845 56.173,60.845 C56.147,60.793 56.121,60.741 56.095,60.689 C56.043,60.689 55.991,60.689 55.939,60.689 C55.913,60.638 55.887,60.586 55.861,60.534 C55.809,60.534 55.757,60.534 55.705,60.534 C55.679,60.482 55.653,60.430 55.627,60.378 C55.575,60.378 55.523,60.378 55.471,60.378 C55.445,60.326 55.419,60.275 55.393,60.223 C55.341,60.223 55.289,60.223 55.236,60.223 C55.210,60.171 55.184,60.119 55.158,60.067 C55.106,60.067 55.054,60.067 55.002,60.067 C54.976,60.015 54.950,59.963 54.924,59.912 C54.872,59.912 54.820,59.912 54.768,59.912 C54.742,59.860 54.716,59.808 54.690,59.756 C54.638,59.756 54.586,59.756 54.534,59.756 C54.508,59.704 54.482,59.652 54.456,59.600 C54.404,59.600 54.352,59.600 54.300,59.600 C54.274,59.549 54.248,59.497 54.222,59.445 C54.170,59.445 54.117,59.445 54.065,59.445 C54.039,59.393 54.013,59.341 53.987,59.289 C53.935,59.289 53.883,59.289 53.831,59.289 C53.805,59.238 53.779,59.186 53.753,59.134 C53.649,59.108 53.545,59.082 53.441,59.056 C53.415,59.004 53.389,58.952 53.363,58.900 C53.311,58.900 53.259,58.900 53.207,58.900 C53.181,58.849 53.155,58.797 53.129,58.745 C53.051,58.719 52.972,58.693 52.894,58.667 C52.894,71.008 52.894,83.352 52.894,95.693 ZM68.274,58.667 C68.274,71.008 68.274,83.352 68.274,95.693 C72.333,95.693 76.394,95.693 80.453,95.693 C80.453,85.996 80.453,76.297 80.453,66.601 C80.357,66.551 80.341,66.474 80.297,66.446 C80.245,66.446 80.193,66.446 80.141,66.446 C80.141,66.420 80.141,66.394 80.141,66.368 C80.089,66.368 80.036,66.368 79.984,66.368 C79.958,66.316 79.932,66.264 79.906,66.212 C79.854,66.212 79.802,66.212 79.750,66.212 C79.724,66.160 79.698,66.108 79.672,66.057 C79.620,66.057 79.568,66.057 79.516,66.057 C79.490,66.005 79.464,65.953 79.438,65.901 C79.386,65.901 79.334,65.901 79.282,65.901 C79.256,65.849 79.230,65.797 79.204,65.745 C79.152,65.745 79.100,65.745 79.048,65.745 C79.022,65.694 78.996,65.642 78.970,65.590 C78.918,65.590 78.865,65.590 78.813,65.590 C78.787,65.538 78.761,65.486 78.735,65.434 C78.683,65.434 78.631,65.434 78.579,65.434 C78.553,65.382 78.527,65.331 78.501,65.279 C78.449,65.279 78.397,65.279 78.345,65.279 C78.319,65.227 78.293,65.175 78.267,65.123 C78.215,65.123 78.163,65.123 78.111,65.123 C78.085,65.071 78.059,65.019 78.033,64.968 C77.981,64.968 77.929,64.968 77.877,64.968 C77.851,64.916 77.825,64.864 77.799,64.812 C77.746,64.812 77.694,64.812 77.642,64.812 C77.616,64.760 77.590,64.708 77.564,64.656 C77.512,64.656 77.460,64.656 77.408,64.656 C77.382,64.605 77.356,64.553 77.330,64.501 C77.278,64.501 77.226,64.501 77.174,64.501 C77.148,64.449 77.122,64.397 77.096,64.345 C77.044,64.345 76.992,64.345 76.940,64.345 C76.914,64.294 76.888,64.242 76.862,64.190 C76.758,64.164 76.653,64.138 76.549,64.112 C76.523,64.060 76.497,64.008 76.471,63.956 C76.419,63.956 76.367,63.956 76.315,63.956 C76.289,63.905 76.263,63.853 76.237,63.801 C76.185,63.801 76.133,63.801 76.081,63.801 C76.081,63.775 76.081,63.749 76.081,63.723 C76.003,63.697 75.925,63.671 75.847,63.645 C75.821,63.593 75.795,63.542 75.769,63.490 C75.717,63.490 75.665,63.490 75.613,63.490 C75.587,63.438 75.561,63.386 75.535,63.334 C75.482,63.334 75.430,63.334 75.378,63.334 C75.352,63.282 75.326,63.230 75.300,63.179 C75.248,63.179 75.196,63.179 75.144,63.179 C75.118,63.127 75.092,63.075 75.066,63.023 C75.014,63.023 74.962,63.023 74.910,63.023 C74.884,62.971 74.858,62.919 74.832,62.867 C74.780,62.867 74.728,62.867 74.676,62.867 C74.650,62.816 74.624,62.764 74.598,62.712 C74.546,62.712 74.494,62.712 74.442,62.712 C74.416,62.660 74.389,62.608 74.363,62.556 C74.311,62.556 74.259,62.556 74.207,62.556 C74.207,62.530 74.207,62.504 74.207,62.479 C74.129,62.453 74.051,62.427 73.973,62.401 C73.947,62.349 73.921,62.297 73.895,62.245 C73.843,62.245 73.791,62.245 73.739,62.245 C73.713,62.193 73.687,62.141 73.661,62.090 C73.583,62.064 73.505,62.038 73.427,62.012 C73.427,61.986 73.427,61.960 73.427,61.934 C73.323,61.908 73.218,61.882 73.114,61.856 C73.114,61.830 73.114,61.804 73.114,61.778 C73.036,61.753 72.958,61.727 72.880,61.701 C72.854,61.649 72.828,61.597 72.802,61.545 C72.750,61.545 72.698,61.545 72.646,61.545 C72.620,61.493 72.594,61.441 72.568,61.390 C72.516,61.390 72.464,61.390 72.412,61.390 C72.412,61.364 72.412,61.338 72.412,61.312 C72.334,61.286 72.256,61.260 72.178,61.234 C72.152,61.182 72.125,61.130 72.099,61.078 C72.047,61.078 71.995,61.078 71.943,61.078 C71.917,61.027 71.891,60.975 71.865,60.923 C71.813,60.923 71.761,60.923 71.709,60.923 C71.683,60.871 71.657,60.819 71.631,60.767 C71.579,60.767 71.527,60.767 71.475,60.767 C71.449,60.715 71.423,60.664 71.397,60.612 C71.345,60.612 71.293,60.612 71.241,60.612 C71.215,60.560 71.189,60.508 71.163,60.456 C71.111,60.456 71.059,60.456 71.006,60.456 C70.980,60.404 70.954,60.352 70.928,60.301 C70.876,60.301 70.824,60.301 70.772,60.301 C70.746,60.249 70.720,60.197 70.694,60.145 C70.642,60.145 70.590,60.145 70.538,60.145 C70.512,60.093 70.486,60.041 70.460,59.989 C70.408,59.989 70.356,59.989 70.304,59.989 C70.278,59.938 70.252,59.886 70.226,59.834 C70.174,59.834 70.122,59.834 70.070,59.834 C70.044,59.782 70.018,59.730 69.992,59.678 C69.887,59.652 69.783,59.626 69.679,59.600 C69.653,59.549 69.627,59.497 69.601,59.445 C69.549,59.445 69.497,59.445 69.445,59.445 C69.419,59.393 69.393,59.341 69.367,59.289 C69.315,59.289 69.263,59.289 69.211,59.289 C68.919,59.095 68.663,58.771 68.274,58.667 ZM83.732,95.693 C87.791,95.693 91.851,95.693 95.911,95.693 C95.911,85.996 95.911,76.297 95.911,66.601 C95.833,66.575 95.754,66.549 95.676,66.523 C95.676,66.497 95.676,66.471 95.676,66.446 C95.624,66.446 95.572,66.446 95.520,66.446 C95.494,66.394 95.468,66.342 95.442,66.290 C95.390,66.290 95.338,66.290 95.286,66.290 C95.260,66.238 95.234,66.186 95.208,66.134 C95.156,66.134 95.104,66.134 95.052,66.134 C95.026,66.083 95.000,66.031 94.974,65.979 C94.922,65.979 94.870,65.979 94.818,65.979 C94.792,65.927 94.766,65.875 94.740,65.823 C94.688,65.823 94.635,65.823 94.583,65.823 C94.557,65.771 94.531,65.720 94.505,65.668 C94.453,65.668 94.401,65.668 94.349,65.668 C94.349,65.642 94.349,65.616 94.349,65.590 C94.271,65.564 94.193,65.538 94.115,65.512 C94.089,65.460 94.063,65.408 94.037,65.357 C93.985,65.357 93.933,65.357 93.881,65.357 C93.855,65.305 93.829,65.253 93.803,65.201 C93.751,65.201 93.699,65.201 93.647,65.201 C93.621,65.149 93.595,65.097 93.569,65.045 C93.516,65.045 93.464,65.045 93.412,65.045 C93.386,64.994 93.360,64.942 93.334,64.890 C93.282,64.890 93.230,64.890 93.178,64.890 C93.152,64.838 93.126,64.786 93.100,64.734 C93.048,64.734 92.996,64.734 92.944,64.734 C92.918,64.682 92.892,64.631 92.866,64.579 C92.762,64.553 92.658,64.527 92.554,64.501 C92.554,64.475 92.554,64.449 92.554,64.423 C92.476,64.397 92.397,64.371 92.319,64.345 C92.293,64.294 92.267,64.242 92.241,64.190 C92.189,64.190 92.137,64.190 92.085,64.190 C92.059,64.138 92.033,64.086 92.007,64.034 C91.955,64.034 91.903,64.034 91.851,64.034 C91.851,64.008 91.851,63.982 91.851,63.956 C91.773,63.931 91.695,63.905 91.617,63.879 C91.591,63.827 91.565,63.775 91.539,63.723 C91.487,63.723 91.435,63.723 91.383,63.723 C91.357,63.671 91.331,63.619 91.305,63.568 C91.252,63.568 91.200,63.568 91.148,63.568 C91.148,63.542 91.148,63.516 91.148,63.490 C91.070,63.464 90.992,63.438 90.914,63.412 C90.888,63.360 90.862,63.308 90.836,63.256 C90.784,63.256 90.732,63.256 90.680,63.256 C90.654,63.205 90.628,63.153 90.602,63.101 C90.550,63.101 90.498,63.101 90.446,63.101 C90.420,63.049 90.394,62.997 90.368,62.945 C90.316,62.945 90.264,62.945 90.212,62.945 C90.186,62.893 90.159,62.842 90.133,62.790 C90.081,62.790 90.029,62.790 89.977,62.790 C89.977,62.764 89.977,62.738 89.977,62.712 C89.899,62.686 89.821,62.660 89.743,62.634 C89.717,62.582 89.691,62.530 89.665,62.479 C89.613,62.479 89.561,62.479 89.509,62.479 C89.483,62.427 89.457,62.375 89.431,62.323 C89.327,62.297 89.223,62.271 89.119,62.245 C89.093,62.193 89.067,62.141 89.040,62.090 C88.988,62.090 88.936,62.090 88.884,62.090 C88.884,62.064 88.884,62.038 88.884,62.012 C88.806,61.986 88.728,61.960 88.650,61.934 C88.624,61.882 88.598,61.830 88.572,61.778 C88.520,61.778 88.468,61.778 88.416,61.778 C88.390,61.727 88.364,61.675 88.338,61.623 C88.286,61.623 88.234,61.623 88.182,61.623 C88.156,61.571 88.130,61.519 88.104,61.467 C88.052,61.467 88.000,61.467 87.948,61.467 C87.922,61.415 87.895,61.364 87.869,61.312 C87.817,61.312 87.765,61.312 87.713,61.312 C87.713,61.286 87.713,61.260 87.713,61.234 C87.635,61.208 87.557,61.182 87.479,61.156 C87.453,61.104 87.427,61.052 87.401,61.001 C87.349,61.001 87.297,61.001 87.245,61.001 C87.219,60.949 87.193,60.897 87.167,60.845 C87.115,60.845 87.063,60.845 87.011,60.845 C86.985,60.793 86.959,60.741 86.933,60.689 C86.881,60.689 86.829,60.689 86.776,60.689 C86.750,60.638 86.724,60.586 86.698,60.534 C86.646,60.534 86.594,60.534 86.542,60.534 C86.516,60.482 86.490,60.430 86.464,60.378 C86.412,60.378 86.360,60.378 86.308,60.378 C86.282,60.326 86.256,60.275 86.230,60.223 C86.178,60.223 86.126,60.223 86.074,60.223 C86.048,60.171 86.022,60.119 85.996,60.067 C85.944,60.067 85.892,60.067 85.840,60.067 C85.814,60.015 85.788,59.963 85.762,59.912 C85.658,59.886 85.553,59.860 85.449,59.834 C85.423,59.782 85.397,59.730 85.371,59.678 C85.319,59.678 85.267,59.678 85.215,59.678 C85.215,59.652 85.215,59.626 85.215,59.600 C85.137,59.575 85.059,59.549 84.981,59.523 C84.955,59.471 84.929,59.419 84.903,59.367 C84.851,59.367 84.799,59.367 84.747,59.367 C84.721,59.315 84.695,59.263 84.669,59.212 C84.617,59.212 84.565,59.212 84.512,59.212 C84.486,59.160 84.460,59.108 84.434,59.056 C84.200,58.926 83.966,58.797 83.732,58.667 C83.732,71.008 83.732,83.352 83.732,95.693 ZM6.365,68.468 C6.365,77.542 6.365,86.619 6.365,95.693 C20.780,95.693 35.200,95.693 49.615,95.693 C49.615,86.619 49.615,77.542 49.615,68.468 C42.070,68.468 34.521,68.468 26.975,68.468 C25.726,68.468 24.477,68.468 23.228,68.468 C22.675,68.468 21.944,68.563 21.511,68.390 C21.511,68.364 21.511,68.338 21.511,68.312 C21.354,68.261 21.198,68.209 21.042,68.157 C20.990,68.079 20.938,68.001 20.886,67.923 C20.834,67.898 20.782,67.872 20.730,67.846 C20.730,67.794 20.730,67.742 20.730,67.690 C20.678,67.664 20.626,67.638 20.574,67.612 C20.515,67.502 20.349,66.738 20.418,66.523 C20.444,66.523 20.470,66.523 20.496,66.523 C20.522,66.368 20.548,66.212 20.574,66.057 C20.626,66.031 20.678,66.005 20.730,65.979 C20.730,65.927 20.730,65.875 20.730,65.823 C20.782,65.797 20.834,65.771 20.886,65.745 C20.938,65.668 20.990,65.590 21.042,65.512 C21.198,65.460 21.354,65.408 21.511,65.357 C21.511,65.331 21.511,65.305 21.511,65.279 C21.998,65.087 22.847,65.201 23.462,65.201 C24.841,65.201 26.221,65.201 27.600,65.201 C34.938,65.201 42.278,65.201 49.615,65.201 C49.615,64.268 49.615,63.334 49.615,62.401 C39.806,62.401 29.993,62.401 20.183,62.401 C14.849,62.401 9.513,62.401 4.179,62.401 C4.179,62.427 4.179,62.453 4.179,62.479 C4.075,62.479 3.971,62.479 3.867,62.479 C3.867,62.504 3.867,62.530 3.867,62.556 C3.789,62.582 3.711,62.608 3.633,62.634 C3.607,62.686 3.581,62.738 3.555,62.790 C3.529,62.790 3.503,62.790 3.477,62.790 C3.477,62.842 3.477,62.893 3.477,62.945 C3.424,62.971 3.372,62.997 3.320,63.023 C3.320,63.127 3.320,63.230 3.320,63.334 C3.037,63.635 3.340,64.474 3.398,64.734 C3.581,64.890 3.763,65.045 3.945,65.201 C7.328,65.201 10.711,65.201 14.094,65.201 C16.136,65.201 17.648,64.914 18.154,66.523 C18.154,66.731 18.154,66.938 18.154,67.146 C18.128,67.146 18.102,67.146 18.075,67.146 C18.049,67.301 18.023,67.457 17.997,67.612 C17.945,67.638 17.893,67.664 17.841,67.690 C17.841,67.742 17.841,67.794 17.841,67.846 C17.789,67.872 17.737,67.898 17.685,67.923 C17.633,68.001 17.581,68.079 17.529,68.157 C17.373,68.209 17.217,68.261 17.061,68.312 C17.061,68.338 17.061,68.364 17.061,68.390 C16.472,68.622 14.591,68.468 13.782,68.468 C11.310,68.468 8.837,68.468 6.365,68.468 ZM10.347,71.346 C19.037,71.346 27.731,71.346 36.422,71.346 C38.686,71.346 40.950,71.346 43.214,71.346 C44.253,71.346 45.494,71.224 46.102,71.657 C46.102,71.683 46.102,71.709 46.102,71.735 C46.180,71.787 46.259,71.839 46.337,71.890 C46.337,71.942 46.337,71.994 46.337,72.046 C46.389,72.072 46.441,72.098 46.493,72.124 C46.787,72.676 46.649,74.102 46.649,74.924 C46.649,77.828 46.649,80.732 46.649,83.636 C46.649,85.580 46.649,87.525 46.649,89.470 C46.649,90.245 46.770,91.519 46.493,92.037 C45.932,93.085 44.168,92.815 42.589,92.815 C38.998,92.815 35.407,92.815 31.816,92.815 C26.508,92.815 21.198,92.815 15.890,92.815 C14.536,92.815 13.183,92.815 11.830,92.815 C11.085,92.815 10.324,92.880 9.878,92.581 C9.852,92.529 9.826,92.477 9.800,92.426 C9.670,92.322 9.540,92.218 9.410,92.114 C9.384,92.011 9.358,91.907 9.332,91.803 C9.306,91.803 9.280,91.803 9.254,91.803 C9.101,91.421 9.176,90.817 9.176,90.325 C9.176,89.314 9.176,88.303 9.176,87.292 C9.176,83.818 9.176,80.343 9.176,76.869 C9.176,75.858 9.176,74.846 9.176,73.835 C9.176,73.344 9.100,72.738 9.254,72.357 C9.280,72.357 9.306,72.357 9.332,72.357 C9.358,72.253 9.384,72.150 9.410,72.046 C9.540,71.942 9.670,71.839 9.800,71.735 C9.826,71.683 9.852,71.631 9.878,71.579 C9.930,71.579 9.982,71.579 10.034,71.579 C10.034,71.553 10.034,71.527 10.034,71.502 C10.193,71.412 10.210,71.501 10.347,71.346 ZM12.454,74.535 C12.454,76.505 12.454,78.476 12.454,80.447 C15.161,80.447 17.868,80.447 20.574,80.447 C20.574,78.476 20.574,76.505 20.574,74.535 C17.868,74.535 15.161,74.535 12.454,74.535 ZM23.853,74.535 C23.853,76.505 23.853,78.476 23.853,80.447 C26.585,80.447 29.318,80.447 32.050,80.447 C32.050,78.476 32.050,76.505 32.050,74.535 C29.318,74.535 26.585,74.535 23.853,74.535 ZM35.251,74.535 C35.251,76.505 35.251,78.476 35.251,80.447 C37.983,80.447 40.716,80.447 43.448,80.447 C43.448,78.476 43.448,76.505 43.448,74.535 C40.716,74.535 37.983,74.535 35.251,74.535 ZM12.454,83.714 C12.454,85.684 12.454,87.655 12.454,89.625 C15.161,89.625 17.868,89.625 20.574,89.625 C20.574,87.655 20.574,85.684 20.574,83.714 C17.868,83.714 15.161,83.714 12.454,83.714 ZM23.853,83.714 C23.853,85.684 23.853,87.655 23.853,89.625 C26.585,89.625 29.318,89.625 32.050,89.625 C32.050,87.655 32.050,85.684 32.050,83.714 C29.318,83.714 26.585,83.714 23.853,83.714 ZM35.251,83.714 C35.251,85.684 35.251,87.655 35.251,89.625 C37.983,89.625 40.716,89.625 43.448,89.625 C43.448,87.655 43.448,85.684 43.448,83.714 C40.716,83.714 37.983,83.714 35.251,83.714 ZM3.945,98.960 C3.755,99.184 3.488,99.245 3.398,99.582 C3.089,99.883 3.290,100.703 3.320,101.138 C3.346,101.138 3.372,101.138 3.398,101.138 C3.424,101.215 3.451,101.293 3.477,101.371 C3.529,101.397 3.581,101.423 3.633,101.449 C3.633,101.475 3.633,101.501 3.633,101.526 C3.685,101.526 3.737,101.526 3.789,101.526 C3.815,101.578 3.841,101.630 3.867,101.682 C3.971,101.682 4.075,101.682 4.179,101.682 C4.366,101.843 5.449,101.760 5.819,101.760 C7.302,101.760 8.785,101.760 10.269,101.760 C16.175,101.760 22.084,101.760 27.990,101.760 C43.238,101.760 58.491,101.760 73.739,101.760 C78.761,101.760 83.784,101.760 88.806,101.760 C91.906,101.760 95.204,101.824 98.175,101.682 C98.331,101.449 98.260,101.641 98.409,101.526 C98.435,101.475 98.461,101.423 98.487,101.371 C98.513,101.371 98.539,101.371 98.565,101.371 C98.565,101.319 98.565,101.267 98.565,101.215 C98.617,101.189 98.669,101.163 98.721,101.138 C98.721,101.034 98.721,100.930 98.721,100.826 C99.005,100.525 98.701,99.686 98.643,99.426 C98.461,99.271 98.279,99.115 98.097,98.960 C66.716,98.960 35.326,98.960 3.945,98.960 Z"/>
<path fill-rule="evenodd"  fill="rgb(255, 196, 0)"
 d="M23.666,3.390 C24.492,21.752 25.318,40.121 26.144,58.483 C26.841,58.483 27.538,58.483 28.235,58.483 C28.235,58.375 28.235,58.266 28.235,58.158 C28.261,58.158 28.287,58.158 28.313,58.158 C28.313,57.588 28.313,57.018 28.313,56.449 C28.338,56.449 28.364,56.449 28.390,56.449 C28.522,55.956 28.349,55.183 28.467,54.740 C28.599,54.247 28.426,53.474 28.545,53.031 C28.545,52.678 28.545,52.325 28.545,51.973 C28.571,51.186 28.597,50.399 28.622,49.613 C28.648,49.613 28.674,49.613 28.700,49.613 C28.700,49.260 28.700,48.908 28.700,48.555 C28.726,47.741 28.751,46.927 28.777,46.114 C28.803,46.114 28.829,46.114 28.855,46.114 C28.855,45.571 28.855,45.028 28.855,44.486 C28.855,44.459 28.855,44.432 28.855,44.405 C28.880,44.405 28.906,44.405 28.932,44.405 C28.932,43.835 28.932,43.265 28.932,42.696 C28.958,42.696 28.984,42.696 29.010,42.696 C29.010,42.560 29.010,42.424 29.010,42.289 C29.010,41.828 29.010,41.366 29.010,40.905 C29.035,40.905 29.061,40.905 29.087,40.905 C29.087,40.336 29.087,39.766 29.087,39.196 C29.206,38.753 29.032,37.980 29.164,37.487 C29.283,37.044 29.110,36.271 29.242,35.778 C29.505,34.799 29.212,33.341 29.474,32.361 C29.629,28.346 29.784,24.331 29.939,20.317 C30.058,19.873 29.884,19.101 30.016,18.608 C30.042,18.608 30.068,18.608 30.094,18.608 C30.094,18.038 30.094,17.468 30.094,16.899 C30.120,16.899 30.146,16.899 30.171,16.899 C30.171,16.817 30.171,16.736 30.171,16.655 C30.171,16.085 30.171,15.515 30.171,14.946 C30.197,14.946 30.223,14.946 30.249,14.946 C30.275,14.213 30.300,13.481 30.326,12.748 C30.326,12.396 30.326,12.043 30.326,11.691 C30.352,11.691 30.378,11.691 30.404,11.691 C30.429,10.931 30.455,10.171 30.481,9.412 C30.481,9.059 30.481,8.707 30.481,8.354 C30.600,7.911 30.427,7.138 30.559,6.645 C30.677,6.202 30.504,5.429 30.636,4.936 C30.738,4.555 30.711,3.900 30.713,3.390 C30.169,3.400 29.720,3.374 29.397,3.146 C29.319,3.037 29.242,2.929 29.164,2.820 C29.087,2.766 29.010,2.712 28.932,2.658 C28.843,2.520 28.929,2.474 28.777,2.332 C28.750,1.947 28.666,1.775 28.777,1.437 C28.777,1.328 28.777,1.220 28.777,1.111 C28.803,1.111 28.829,1.111 28.855,1.111 C29.161,-0.363 31.866,0.053 33.579,0.053 C36.677,0.053 39.775,0.053 42.873,0.053 C44.097,0.053 45.922,-0.177 46.668,0.379 C46.720,0.460 46.771,0.542 46.823,0.623 C46.849,0.623 46.875,0.623 46.901,0.623 C46.901,0.677 46.901,0.732 46.901,0.786 C46.952,0.813 47.004,0.840 47.055,0.867 C47.238,1.179 47.214,1.743 47.210,2.251 C47.057,2.395 47.145,2.411 47.055,2.576 C47.030,2.576 47.004,2.576 46.978,2.576 C46.978,2.630 46.978,2.685 46.978,2.739 C46.901,2.793 46.823,2.847 46.746,2.902 C46.694,2.983 46.642,3.064 46.591,3.146 C46.249,3.386 45.771,3.396 45.197,3.390 C46.023,21.752 46.849,40.121 47.675,58.483 C47.915,58.474 48.249,58.445 48.372,58.564 C37.608,58.564 26.840,58.564 16.075,58.564 C13.339,58.564 10.602,58.564 7.866,58.564 C7.169,58.564 6.471,58.564 5.775,58.564 C5.513,58.564 5.142,58.612 5.000,58.483 C5.568,58.483 6.136,58.483 6.704,58.483 C6.730,57.696 6.756,56.910 6.781,56.123 C6.807,56.123 6.833,56.123 6.859,56.123 C6.991,55.630 6.818,54.857 6.936,54.414 C7.068,53.921 6.895,53.148 7.014,52.705 C7.014,52.353 7.014,52.000 7.014,51.647 C7.040,50.861 7.065,50.074 7.091,49.287 C7.117,49.287 7.143,49.287 7.169,49.287 C7.169,48.745 7.169,48.202 7.169,47.660 C7.187,47.546 7.216,47.689 7.246,47.578 C7.246,47.009 7.246,46.439 7.246,45.869 C7.272,45.869 7.298,45.869 7.324,45.869 C7.324,45.761 7.324,45.652 7.324,45.544 C7.324,45.083 7.324,44.622 7.324,44.160 C7.349,44.160 7.375,44.160 7.401,44.160 C7.401,43.591 7.401,43.021 7.401,42.452 C7.520,42.008 7.390,41.298 7.478,40.743 C7.478,40.715 7.478,40.688 7.478,40.661 C7.504,40.661 7.530,40.661 7.556,40.661 C7.556,40.092 7.556,39.522 7.556,38.952 C7.582,38.952 7.607,38.952 7.633,38.952 C7.633,38.844 7.633,38.735 7.633,38.627 C7.633,38.166 7.633,37.704 7.633,37.243 C7.659,37.243 7.685,37.243 7.711,37.243 C7.711,36.674 7.711,36.104 7.711,35.534 C7.830,35.091 7.656,34.318 7.788,33.825 C8.051,32.846 7.758,31.387 8.021,30.408 C8.147,29.936 7.988,29.243 8.098,28.861 C8.098,28.726 8.098,28.590 8.098,28.454 C8.124,28.454 8.150,28.454 8.175,28.454 C8.201,28.346 8.227,28.237 8.253,28.129 C8.382,28.020 8.511,27.912 8.640,27.803 C8.666,27.749 8.692,27.695 8.718,27.641 C8.769,27.641 8.821,27.641 8.873,27.641 C8.873,27.614 8.873,27.586 8.873,27.559 C9.030,27.465 9.046,27.559 9.182,27.397 C9.466,27.397 9.750,27.397 10.034,27.397 C10.206,27.456 10.361,27.589 10.576,27.641 C10.680,27.776 10.783,27.912 10.886,28.048 C10.912,28.048 10.938,28.048 10.964,28.048 C11.015,28.210 11.067,28.373 11.119,28.536 C11.144,28.536 11.170,28.536 11.196,28.536 C11.320,28.899 11.164,30.441 11.119,30.733 C11.041,32.713 10.964,34.694 10.886,36.674 C10.551,43.943 10.215,51.214 9.879,58.483 C14.242,58.483 18.606,58.483 22.968,58.483 C22.349,44.704 21.729,30.922 21.110,17.143 C20.158,16.965 18.861,17.061 17.779,17.061 C15.792,17.061 13.803,17.061 11.816,17.061 C11.678,17.451 11.734,18.167 11.738,18.689 C11.541,18.932 11.678,19.752 11.661,20.154 C11.661,20.235 11.661,20.317 11.661,20.398 C11.635,20.398 11.609,20.398 11.583,20.398 C11.583,20.968 11.583,21.537 11.583,22.107 C11.557,22.107 11.532,22.107 11.506,22.107 C11.506,22.568 11.506,23.029 11.506,23.490 C11.480,23.490 11.454,23.490 11.428,23.490 C11.403,23.653 11.377,23.816 11.351,23.979 C11.299,24.006 11.248,24.033 11.196,24.060 C11.196,24.114 11.196,24.169 11.196,24.223 C11.170,24.223 11.144,24.223 11.119,24.223 C11.041,24.331 10.964,24.440 10.886,24.548 C10.835,24.548 10.783,24.548 10.731,24.548 C10.731,24.575 10.731,24.603 10.731,24.630 C10.574,24.724 10.558,24.630 10.422,24.792 C10.215,24.820 10.008,24.847 9.802,24.874 C9.802,24.847 9.802,24.820 9.802,24.792 C9.595,24.765 9.389,24.738 9.182,24.711 C9.028,24.466 9.111,24.674 8.950,24.548 C8.924,24.494 8.898,24.440 8.873,24.386 C8.769,24.304 8.666,24.223 8.563,24.141 C8.511,23.979 8.459,23.816 8.408,23.653 C8.382,23.653 8.356,23.653 8.330,23.653 C8.231,23.362 8.355,21.981 8.408,21.781 C8.459,20.452 8.511,19.123 8.563,17.794 C8.769,12.993 8.976,8.191 9.182,3.390 C8.724,3.396 8.223,3.409 7.943,3.227 C7.917,3.173 7.891,3.119 7.866,3.064 C7.814,3.064 7.762,3.064 7.711,3.064 C7.685,3.010 7.659,2.956 7.633,2.902 C7.607,2.902 7.582,2.902 7.556,2.902 C7.556,2.847 7.556,2.793 7.556,2.739 C7.504,2.712 7.453,2.685 7.401,2.658 C7.401,2.603 7.401,2.549 7.401,2.495 C7.375,2.495 7.349,2.495 7.324,2.495 C7.324,2.441 7.324,2.386 7.324,2.332 C7.298,2.332 7.272,2.332 7.246,2.332 C7.246,2.251 7.246,2.169 7.246,2.088 C7.220,2.088 7.194,2.088 7.169,2.088 C6.906,1.214 7.750,0.328 8.175,0.135 C8.479,-0.003 9.071,0.053 9.492,0.053 C10.370,0.053 11.248,0.053 12.125,0.053 C15.275,0.053 18.425,0.053 21.574,0.053 C23.116,0.053 25.205,-0.256 25.524,1.030 C25.642,1.148 25.781,1.848 25.679,2.169 C25.653,2.169 25.628,2.169 25.602,2.169 C25.602,2.251 25.602,2.332 25.602,2.413 C25.576,2.413 25.550,2.413 25.524,2.413 C25.524,2.468 25.524,2.522 25.524,2.576 C25.473,2.603 25.421,2.630 25.369,2.658 C25.369,2.712 25.369,2.766 25.369,2.820 C25.344,2.820 25.318,2.820 25.292,2.820 C25.240,2.902 25.189,2.983 25.137,3.064 C25.085,3.064 25.034,3.064 24.982,3.064 C24.956,3.119 24.931,3.173 24.905,3.227 C24.629,3.404 24.121,3.404 23.666,3.390 ZM12.358,3.390 C12.306,4.746 12.255,6.103 12.203,7.459 C15.017,7.459 17.831,7.459 20.645,7.459 C20.593,6.103 20.542,4.746 20.490,3.390 C17.780,3.390 15.068,3.390 12.358,3.390 ZM33.966,3.390 C33.889,4.746 33.811,6.103 33.734,7.459 C36.548,7.459 39.362,7.459 42.176,7.459 C42.124,6.103 42.073,4.746 42.021,3.390 C39.337,3.390 36.651,3.390 33.966,3.390 ZM12.048,10.795 C11.996,11.772 11.945,12.749 11.893,13.725 C14.913,13.725 17.934,13.725 20.955,13.725 C20.903,12.749 20.851,11.772 20.800,10.795 C17.883,10.795 14.965,10.795 12.048,10.795 ZM33.579,10.795 C33.553,11.772 33.528,12.749 33.502,13.725 C36.496,13.725 39.491,13.725 42.486,13.725 C42.434,12.749 42.383,11.772 42.331,10.795 C39.414,10.795 36.496,10.795 33.579,10.795 ZM83.767,10.877 C84.774,10.877 85.781,10.877 86.787,10.877 C86.785,11.458 86.964,12.734 87.175,13.074 C87.226,13.101 87.278,13.128 87.330,13.155 C87.330,13.182 87.330,13.210 87.330,13.237 C87.381,13.264 87.433,13.291 87.484,13.318 C87.484,13.372 87.484,13.427 87.484,13.481 C87.562,13.535 87.639,13.589 87.717,13.644 C87.717,13.698 87.717,13.752 87.717,13.806 C87.898,13.969 88.078,14.132 88.259,14.295 C88.285,14.349 88.311,14.403 88.336,14.457 C88.388,14.457 88.440,14.457 88.491,14.457 C88.517,14.512 88.543,14.566 88.569,14.620 C88.620,14.620 88.672,14.620 88.724,14.620 C88.750,14.674 88.775,14.729 88.801,14.783 C88.853,14.783 88.904,14.783 88.956,14.783 C89.033,14.891 89.111,15.000 89.188,15.108 C89.240,15.108 89.292,15.108 89.343,15.108 C89.343,15.136 89.343,15.163 89.343,15.190 C89.447,15.190 89.550,15.190 89.653,15.190 C89.653,15.217 89.653,15.244 89.653,15.271 C89.756,15.271 89.860,15.271 89.963,15.271 C89.963,15.298 89.963,15.325 89.963,15.353 C90.169,15.353 90.376,15.353 90.583,15.353 C90.583,15.380 90.583,15.407 90.583,15.434 C90.634,15.434 90.686,15.434 90.737,15.434 C90.737,15.461 90.737,15.488 90.737,15.515 C90.892,15.515 91.047,15.515 91.202,15.515 C91.202,16.546 91.202,17.577 91.202,18.608 C90.537,18.606 89.719,18.770 89.266,19.015 C89.214,19.015 89.163,19.015 89.111,19.015 C89.085,19.069 89.059,19.123 89.034,19.177 C88.982,19.177 88.930,19.177 88.879,19.177 C88.827,19.259 88.775,19.340 88.724,19.421 C88.672,19.421 88.620,19.421 88.569,19.421 C88.543,19.476 88.517,19.530 88.491,19.584 C88.440,19.584 88.388,19.584 88.336,19.584 C88.182,19.774 88.027,19.964 87.872,20.154 C87.820,20.181 87.768,20.208 87.717,20.235 C87.717,20.289 87.717,20.344 87.717,20.398 C87.665,20.425 87.614,20.452 87.562,20.479 C87.562,20.534 87.562,20.588 87.562,20.642 C87.459,20.723 87.355,20.805 87.252,20.886 C87.252,20.941 87.252,20.995 87.252,21.049 C87.201,21.076 87.149,21.103 87.097,21.130 C87.097,21.185 87.097,21.239 87.097,21.293 C87.071,21.293 87.046,21.293 87.020,21.293 C87.020,21.429 87.020,21.564 87.020,21.700 C86.994,21.700 86.968,21.700 86.942,21.700 C86.942,21.809 86.942,21.917 86.942,22.026 C86.872,22.259 86.791,22.622 86.710,22.839 C86.626,22.887 86.587,22.982 86.555,23.002 C86.503,23.002 86.452,23.002 86.400,23.002 C86.400,23.029 86.400,23.056 86.400,23.083 C85.801,23.330 84.682,23.146 84.077,23.083 C83.948,22.921 83.819,22.758 83.689,22.595 C83.638,22.243 83.586,21.890 83.535,21.537 C83.509,21.537 83.483,21.537 83.457,21.537 C83.457,21.456 83.457,21.375 83.457,21.293 C83.431,21.293 83.405,21.293 83.380,21.293 C83.380,21.239 83.380,21.185 83.380,21.130 C83.354,21.130 83.328,21.130 83.302,21.130 C83.302,21.076 83.302,21.022 83.302,20.968 C83.199,20.886 83.096,20.805 82.992,20.724 C82.992,20.669 82.992,20.615 82.992,20.561 C82.941,20.534 82.889,20.506 82.837,20.479 C82.837,20.425 82.837,20.371 82.837,20.317 C82.786,20.289 82.734,20.262 82.683,20.235 C82.683,20.181 82.683,20.127 82.683,20.072 C82.657,20.072 82.631,20.072 82.605,20.072 C82.528,19.964 82.450,19.855 82.373,19.747 C82.321,19.747 82.270,19.747 82.218,19.747 C82.192,19.693 82.166,19.638 82.140,19.584 C82.089,19.584 82.037,19.584 81.986,19.584 C81.934,19.503 81.882,19.421 81.831,19.340 C81.779,19.340 81.727,19.340 81.676,19.340 C81.598,19.232 81.521,19.123 81.443,19.015 C81.392,19.015 81.340,19.015 81.288,19.015 C81.288,18.987 81.288,18.960 81.288,18.933 C80.571,18.618 79.919,19.019 79.507,18.282 C79.481,18.282 79.455,18.282 79.430,18.282 C79.378,17.794 79.326,17.306 79.275,16.817 C79.305,16.707 79.335,16.850 79.352,16.736 C79.395,16.451 79.285,16.089 79.430,15.922 C79.522,15.569 79.655,15.562 79.972,15.434 C79.972,15.407 79.972,15.380 79.972,15.353 C80.178,15.353 80.385,15.353 80.591,15.353 C80.591,15.325 80.591,15.298 80.591,15.271 C80.772,15.244 80.953,15.217 81.134,15.190 C81.134,15.163 81.134,15.136 81.134,15.108 C81.185,15.108 81.237,15.108 81.288,15.108 C81.288,15.081 81.288,15.054 81.288,15.027 C81.340,15.027 81.392,15.027 81.443,15.027 C81.547,14.891 81.650,14.756 81.753,14.620 C81.856,14.593 81.960,14.566 82.063,14.539 C82.089,14.485 82.115,14.430 82.140,14.376 C82.192,14.376 82.244,14.376 82.295,14.376 C82.321,14.322 82.347,14.267 82.373,14.213 C82.502,14.105 82.631,13.996 82.760,13.888 C82.786,13.779 82.812,13.671 82.837,13.562 C82.889,13.535 82.941,13.508 82.992,13.481 C82.992,13.427 82.992,13.372 82.992,13.318 C83.096,13.237 83.199,13.155 83.302,13.074 C83.302,13.020 83.302,12.965 83.302,12.911 C83.570,12.415 83.758,11.636 83.767,10.877 ZM84.929,15.841 C84.795,16.003 84.749,15.909 84.619,16.004 C84.464,16.193 84.309,16.383 84.154,16.573 C84.128,16.736 84.103,16.899 84.077,17.061 C84.161,17.528 84.690,18.424 85.393,18.201 C85.587,18.139 85.795,18.011 86.013,17.957 C86.252,17.500 86.398,17.498 86.400,16.736 C86.374,16.736 86.349,16.736 86.323,16.736 C86.323,16.655 86.323,16.573 86.323,16.492 C86.297,16.492 86.271,16.492 86.245,16.492 C86.219,16.410 86.194,16.329 86.168,16.248 C85.704,16.021 85.663,15.846 84.929,15.841 ZM33.347,17.143 C33.294,17.471 33.270,17.924 33.269,18.364 C33.269,18.581 33.269,18.798 33.269,19.015 C33.244,19.015 33.218,19.015 33.192,19.015 C33.192,19.150 33.192,19.286 33.192,19.421 C33.192,19.883 33.192,20.344 33.192,20.805 C33.166,20.805 33.140,20.805 33.114,20.805 C32.982,21.298 33.156,22.071 33.037,22.514 C32.905,23.007 33.078,23.780 32.960,24.223 C32.828,24.716 33.001,25.489 32.882,25.932 C32.882,26.284 32.882,26.637 32.882,26.990 C32.856,27.776 32.830,28.563 32.805,29.350 C32.779,29.350 32.753,29.350 32.727,29.350 C32.701,30.489 32.676,31.628 32.650,32.767 C32.531,33.211 32.705,33.984 32.572,34.476 C32.453,34.920 32.627,35.693 32.495,36.185 C32.225,37.189 32.531,38.682 32.262,39.685 C32.262,40.254 32.262,40.824 32.262,41.394 C32.237,41.394 32.211,41.394 32.185,41.394 C32.185,41.855 32.185,42.316 32.185,42.777 C32.185,42.858 32.185,42.940 32.185,43.021 C32.159,43.021 32.133,43.021 32.108,43.021 C32.108,43.591 32.108,44.161 32.108,44.730 C32.082,44.730 32.056,44.730 32.030,44.730 C32.030,44.757 32.030,44.784 32.030,44.811 C32.030,45.354 32.030,45.897 32.030,46.439 C32.004,46.439 31.978,46.439 31.953,46.439 C31.927,47.226 31.901,48.012 31.875,48.799 C31.875,49.152 31.875,49.504 31.875,49.857 C31.849,49.857 31.824,49.857 31.798,49.857 C31.772,50.644 31.746,51.430 31.720,52.217 C31.720,52.570 31.720,52.922 31.720,53.275 C31.602,53.718 31.775,54.491 31.643,54.984 C31.514,55.464 31.697,56.282 31.565,56.774 C31.451,57.202 31.490,57.925 31.488,58.483 C35.825,58.483 40.163,58.483 44.500,58.483 C43.880,44.704 43.260,30.922 42.641,17.143 C39.543,17.143 36.444,17.143 33.347,17.143 ZM65.876,30.408 C66.658,30.397 67.355,30.449 67.967,30.570 C68.019,30.652 68.070,30.733 68.122,30.814 C68.148,30.814 68.174,30.814 68.199,30.814 C68.199,30.869 68.199,30.923 68.199,30.977 C68.225,30.977 68.251,30.977 68.277,30.977 C68.277,31.140 68.277,31.303 68.277,31.465 C68.303,31.465 68.328,31.465 68.354,31.465 C68.354,31.601 68.354,31.737 68.354,31.872 C68.380,31.872 68.406,31.872 68.432,31.872 C68.432,31.981 68.432,32.089 68.432,32.198 C68.458,32.198 68.483,32.198 68.509,32.198 C68.509,32.279 68.509,32.361 68.509,32.442 C68.561,32.469 68.612,32.496 68.664,32.523 C68.690,32.605 68.716,32.686 68.742,32.767 C68.819,32.822 68.896,32.876 68.974,32.930 C68.974,32.985 68.974,33.039 68.974,33.093 C69.051,33.147 69.129,33.202 69.206,33.256 C69.206,33.310 69.206,33.364 69.206,33.419 C69.258,33.446 69.310,33.473 69.361,33.500 C69.464,33.636 69.568,33.771 69.671,33.907 C69.723,33.907 69.774,33.907 69.826,33.907 C69.852,33.961 69.877,34.015 69.903,34.070 C70.007,34.097 70.110,34.124 70.213,34.151 C70.316,34.287 70.420,34.422 70.523,34.558 C70.862,34.790 71.742,34.876 72.227,34.965 C72.287,35.081 72.441,35.291 72.537,35.372 C72.562,35.941 72.588,36.511 72.614,37.081 C72.588,37.081 72.562,37.081 72.537,37.081 C72.485,37.270 72.488,37.648 72.459,37.813 C72.382,37.867 72.304,37.921 72.227,37.976 C72.227,38.003 72.227,38.030 72.227,38.057 C72.175,38.057 72.124,38.057 72.072,38.057 C72.072,38.084 72.072,38.111 72.072,38.138 C71.917,38.138 71.762,38.138 71.607,38.138 C71.246,38.247 70.884,38.355 70.523,38.464 C70.471,38.545 70.420,38.627 70.368,38.708 C70.316,38.708 70.265,38.708 70.213,38.708 C70.161,38.789 70.110,38.871 70.058,38.952 C70.007,38.952 69.955,38.952 69.903,38.952 C69.877,39.007 69.852,39.061 69.826,39.115 C69.774,39.115 69.723,39.115 69.671,39.115 C69.542,39.278 69.413,39.441 69.284,39.603 C69.232,39.630 69.180,39.658 69.129,39.685 C69.129,39.739 69.129,39.793 69.129,39.847 C69.077,39.875 69.026,39.902 68.974,39.929 C68.974,39.983 68.974,40.037 68.974,40.092 C68.871,40.173 68.767,40.254 68.664,40.336 C68.664,40.390 68.664,40.444 68.664,40.498 C68.612,40.526 68.561,40.553 68.509,40.580 C68.483,40.797 68.458,41.014 68.432,41.231 C68.406,41.231 68.380,41.231 68.354,41.231 C68.354,41.339 68.354,41.448 68.354,41.556 C68.277,41.800 68.199,42.045 68.122,42.289 C68.040,42.336 67.998,42.432 67.967,42.452 C67.915,42.452 67.864,42.452 67.812,42.452 C67.812,42.479 67.812,42.506 67.812,42.533 C67.631,42.533 67.451,42.533 67.270,42.533 C67.270,42.560 67.270,42.587 67.270,42.614 C66.702,42.781 65.801,42.532 65.411,42.452 C65.365,42.359 65.277,42.325 65.256,42.289 C65.256,42.235 65.256,42.180 65.256,42.126 C65.230,42.126 65.205,42.126 65.179,42.126 C65.179,41.990 65.179,41.855 65.179,41.719 C65.153,41.719 65.127,41.719 65.101,41.719 C65.101,41.611 65.101,41.502 65.101,41.394 C65.076,41.394 65.050,41.394 65.024,41.394 C65.024,41.285 65.024,41.177 65.024,41.068 C64.998,41.068 64.972,41.068 64.946,41.068 C64.946,40.960 64.946,40.851 64.946,40.743 C64.921,40.743 64.895,40.743 64.869,40.743 C64.869,40.688 64.869,40.634 64.869,40.580 C64.766,40.498 64.662,40.417 64.559,40.336 C64.559,40.281 64.559,40.227 64.559,40.173 C64.508,40.146 64.456,40.119 64.404,40.092 C64.379,39.983 64.353,39.875 64.327,39.766 C64.017,39.468 63.707,39.169 63.397,38.871 C63.346,38.871 63.294,38.871 63.243,38.871 C63.165,38.762 63.088,38.654 63.010,38.545 C62.907,38.518 62.804,38.491 62.700,38.464 C62.700,38.437 62.700,38.410 62.700,38.383 C62.184,38.274 61.668,38.166 61.151,38.057 C60.690,37.179 60.715,36.363 60.919,35.209 C61.013,35.156 61.029,35.077 61.074,35.046 C61.126,35.046 61.177,35.046 61.229,35.046 C61.255,34.992 61.281,34.938 61.306,34.883 C61.513,34.883 61.719,34.883 61.926,34.883 C62.236,34.775 62.546,34.666 62.855,34.558 C62.933,34.449 63.010,34.341 63.088,34.232 C63.139,34.232 63.191,34.232 63.243,34.232 C63.243,34.205 63.243,34.178 63.243,34.151 C63.320,34.124 63.397,34.097 63.475,34.070 C63.501,34.015 63.527,33.961 63.552,33.907 C63.604,33.907 63.656,33.907 63.707,33.907 C63.836,33.744 63.965,33.581 64.095,33.419 C64.146,33.391 64.198,33.364 64.249,33.337 C64.249,33.283 64.249,33.229 64.249,33.174 C64.301,33.147 64.353,33.120 64.404,33.093 C64.404,33.039 64.404,32.985 64.404,32.930 C64.456,32.903 64.508,32.876 64.559,32.849 C64.559,32.795 64.559,32.740 64.559,32.686 C64.637,32.632 64.714,32.578 64.792,32.523 C64.817,32.415 64.843,32.306 64.869,32.198 C64.895,32.198 64.921,32.198 64.946,32.198 C65.050,31.710 65.153,31.221 65.256,30.733 C65.365,30.673 65.490,30.587 65.566,30.489 C65.669,30.489 65.773,30.489 65.876,30.489 C65.876,30.462 65.876,30.435 65.876,30.408 ZM66.263,35.290 C66.109,35.535 66.192,35.327 66.031,35.453 C66.005,35.507 65.979,35.561 65.953,35.616 C65.668,35.903 65.514,36.014 65.489,36.592 C65.514,36.592 65.540,36.592 65.566,36.592 C65.566,36.701 65.566,36.809 65.566,36.918 C65.592,36.918 65.618,36.918 65.644,36.918 C65.644,36.972 65.644,37.026 65.644,37.081 C65.669,37.081 65.695,37.081 65.721,37.081 C65.721,37.135 65.721,37.189 65.721,37.243 C65.876,37.379 66.031,37.515 66.186,37.650 C66.499,37.674 66.898,37.783 67.115,37.569 C67.512,37.483 67.564,37.218 67.812,36.999 C67.838,36.728 67.864,36.457 67.890,36.185 C67.627,35.938 67.616,35.570 67.193,35.453 C67.014,35.261 66.632,35.282 66.263,35.290 ZM56.427,71.178 C58.363,71.178 60.300,71.178 62.236,71.178 C62.236,71.205 62.236,71.232 62.236,71.259 C62.313,71.259 62.391,71.259 62.468,71.259 C62.468,71.287 62.468,71.314 62.468,71.341 C62.520,71.341 62.571,71.341 62.623,71.341 C62.804,71.504 62.984,71.666 63.165,71.829 C63.165,71.883 63.165,71.938 63.165,71.992 C63.191,71.992 63.217,71.992 63.243,71.992 C63.332,72.157 63.243,72.174 63.397,72.317 C63.425,73.174 63.303,74.030 62.700,74.189 C62.395,74.562 61.739,74.515 61.074,74.515 C59.990,74.515 58.905,74.515 57.821,74.515 C57.305,74.487 56.788,74.460 56.272,74.433 C56.272,74.406 56.272,74.379 56.272,74.352 C56.169,74.325 56.066,74.298 55.962,74.270 C55.859,74.135 55.756,73.999 55.652,73.864 C55.601,73.836 55.549,73.809 55.498,73.782 C55.408,73.645 55.496,73.598 55.343,73.457 C55.307,72.842 55.211,72.384 55.498,71.910 C55.549,71.883 55.601,71.856 55.652,71.829 C55.678,71.748 55.704,71.666 55.730,71.585 C55.782,71.585 55.833,71.585 55.885,71.585 C55.936,71.504 55.988,71.422 56.040,71.341 C56.169,71.314 56.298,71.287 56.427,71.259 C56.427,71.232 56.427,71.205 56.427,71.178 ZM71.762,71.178 C73.672,71.178 75.583,71.178 77.493,71.178 C77.493,71.205 77.493,71.232 77.493,71.259 C77.571,71.259 77.648,71.259 77.726,71.259 C77.726,71.287 77.726,71.314 77.726,71.341 C77.829,71.368 77.932,71.395 78.036,71.422 C78.139,71.558 78.242,71.693 78.345,71.829 C78.397,71.856 78.449,71.883 78.500,71.910 C78.590,72.047 78.502,72.095 78.655,72.236 C78.681,72.534 78.707,72.833 78.733,73.131 C78.707,73.131 78.681,73.131 78.655,73.131 C78.629,73.294 78.604,73.457 78.578,73.619 C78.526,73.647 78.474,73.674 78.423,73.701 C78.423,73.755 78.423,73.809 78.423,73.864 C78.242,74.026 78.061,74.189 77.881,74.352 C77.829,74.352 77.777,74.352 77.726,74.352 C77.726,74.379 77.726,74.406 77.726,74.433 C77.623,74.433 77.519,74.433 77.416,74.433 C76.669,74.683 75.158,74.515 74.241,74.515 C73.410,74.515 71.931,74.665 71.375,74.352 C71.349,74.298 71.323,74.243 71.297,74.189 C71.246,74.189 71.194,74.189 71.142,74.189 C71.142,74.162 71.142,74.135 71.142,74.108 C71.039,74.026 70.936,73.945 70.833,73.864 C70.833,73.809 70.833,73.755 70.833,73.701 C70.807,73.701 70.781,73.701 70.755,73.701 C70.666,73.535 70.754,73.519 70.600,73.375 C70.591,72.730 70.590,72.207 70.833,71.829 C70.910,71.775 70.988,71.721 71.065,71.666 C71.117,71.585 71.168,71.504 71.220,71.422 C71.272,71.422 71.323,71.422 71.375,71.422 C71.375,71.395 71.375,71.368 71.375,71.341 C71.504,71.314 71.633,71.287 71.762,71.259 C71.762,71.232 71.762,71.205 71.762,71.178 ZM87.020,71.178 C88.362,71.178 89.705,71.178 91.047,71.178 C91.740,71.178 92.763,71.047 93.216,71.341 C93.242,71.395 93.267,71.449 93.293,71.504 C93.345,71.504 93.397,71.504 93.448,71.504 C93.448,71.531 93.448,71.558 93.448,71.585 C93.526,71.639 93.603,71.693 93.681,71.748 C93.681,71.802 93.681,71.856 93.681,71.910 C93.732,71.938 93.784,71.965 93.835,71.992 C93.998,72.271 94.071,73.173 93.913,73.538 C93.887,73.538 93.861,73.538 93.835,73.538 C93.835,73.592 93.835,73.647 93.835,73.701 C93.758,73.755 93.681,73.809 93.603,73.864 C93.577,73.945 93.551,74.026 93.526,74.108 C93.474,74.108 93.422,74.108 93.371,74.108 C93.345,74.162 93.319,74.216 93.293,74.270 C93.190,74.298 93.087,74.325 92.983,74.352 C92.983,74.379 92.983,74.406 92.983,74.433 C92.906,74.433 92.829,74.433 92.751,74.433 C92.751,74.460 92.751,74.487 92.751,74.515 C91.435,74.515 90.118,74.515 88.801,74.515 C88.002,74.515 87.040,74.613 86.555,74.270 C86.503,74.189 86.452,74.108 86.400,74.026 C86.297,73.945 86.194,73.864 86.090,73.782 C85.992,73.627 85.754,72.828 85.858,72.480 C85.884,72.480 85.910,72.480 85.935,72.480 C85.935,72.372 85.935,72.263 85.935,72.155 C85.961,72.155 85.987,72.155 86.013,72.155 C86.059,71.958 86.269,71.602 86.400,71.504 C86.452,71.504 86.503,71.504 86.555,71.504 C86.581,71.449 86.607,71.395 86.633,71.341 C86.762,71.314 86.891,71.287 87.020,71.259 C87.020,71.232 87.020,71.205 87.020,71.178 ZM56.504,76.630 C57.898,76.630 59.293,76.630 60.687,76.630 C61.804,76.630 62.351,76.507 62.933,77.119 C63.010,77.173 63.088,77.227 63.165,77.281 C63.289,77.477 63.529,78.323 63.397,78.746 C63.372,78.746 63.346,78.746 63.320,78.746 C63.320,78.828 63.320,78.909 63.320,78.990 C63.165,79.207 63.010,79.424 62.855,79.641 C62.804,79.641 62.752,79.641 62.700,79.641 C62.675,79.696 62.649,79.750 62.623,79.804 C62.274,79.998 61.680,79.967 61.151,79.967 C60.222,79.967 59.293,79.967 58.363,79.967 C57.529,79.967 56.472,80.083 55.962,79.723 C55.911,79.641 55.859,79.560 55.807,79.479 C55.704,79.397 55.601,79.316 55.498,79.235 C55.498,79.180 55.498,79.126 55.498,79.072 C55.472,79.072 55.446,79.072 55.420,79.072 C55.267,78.771 55.259,78.396 55.265,77.932 C55.291,77.932 55.317,77.932 55.343,77.932 C55.368,77.797 55.394,77.661 55.420,77.526 C55.446,77.526 55.472,77.526 55.498,77.526 C55.498,77.471 55.498,77.417 55.498,77.363 C55.549,77.336 55.601,77.309 55.652,77.281 C55.652,77.227 55.652,77.173 55.652,77.119 C55.730,77.092 55.807,77.064 55.885,77.037 C55.911,76.983 55.936,76.929 55.962,76.875 C56.014,76.875 56.066,76.875 56.117,76.875 C56.117,76.847 56.117,76.820 56.117,76.793 C56.246,76.766 56.375,76.739 56.504,76.712 C56.504,76.685 56.504,76.658 56.504,76.630 ZM71.762,76.630 C73.672,76.630 75.583,76.630 77.493,76.630 C77.493,76.658 77.493,76.685 77.493,76.712 C77.571,76.712 77.648,76.712 77.726,76.712 C77.726,76.739 77.726,76.766 77.726,76.793 C77.829,76.820 77.932,76.847 78.036,76.875 C78.139,77.010 78.242,77.146 78.345,77.281 C78.397,77.309 78.449,77.336 78.500,77.363 C78.590,77.499 78.502,77.547 78.655,77.688 C78.681,77.987 78.707,78.285 78.733,78.584 C78.707,78.584 78.681,78.584 78.655,78.584 C78.655,78.692 78.655,78.801 78.655,78.909 C78.629,78.909 78.604,78.909 78.578,78.909 C78.552,79.018 78.526,79.126 78.500,79.235 C78.449,79.262 78.397,79.289 78.345,79.316 C78.242,79.452 78.139,79.587 78.036,79.723 C77.932,79.750 77.829,79.777 77.726,79.804 C77.726,79.831 77.726,79.858 77.726,79.886 C77.431,80.019 76.965,79.967 76.564,79.967 C75.764,79.967 74.963,79.967 74.163,79.967 C73.537,79.967 71.833,80.104 71.530,79.804 C70.698,79.601 70.262,78.169 70.833,77.281 C71.013,77.119 71.194,76.956 71.375,76.793 C71.504,76.766 71.633,76.739 71.762,76.712 C71.762,76.685 71.762,76.658 71.762,76.630 ZM87.020,76.630 C88.414,76.630 89.808,76.630 91.202,76.630 C91.744,76.630 92.286,76.630 92.829,76.630 C92.829,76.658 92.829,76.685 92.829,76.712 C92.906,76.712 92.983,76.712 93.061,76.712 C93.061,76.739 93.061,76.766 93.061,76.793 C93.113,76.793 93.164,76.793 93.216,76.793 C93.242,76.847 93.267,76.902 93.293,76.956 C93.345,76.956 93.397,76.956 93.448,76.956 C93.448,76.983 93.448,77.010 93.448,77.037 C93.526,77.092 93.603,77.146 93.681,77.200 C93.681,77.254 93.681,77.309 93.681,77.363 C93.732,77.390 93.784,77.417 93.835,77.444 C94.010,77.745 94.092,78.720 93.835,78.990 C93.732,79.450 93.158,79.832 92.751,79.967 C91.357,79.967 89.963,79.967 88.569,79.967 C87.813,79.967 87.018,80.032 86.555,79.723 C86.529,79.669 86.503,79.614 86.478,79.560 C86.426,79.560 86.374,79.560 86.323,79.560 C86.297,79.479 86.271,79.397 86.245,79.316 C86.194,79.289 86.142,79.262 86.090,79.235 C86.090,79.180 86.090,79.126 86.090,79.072 C86.065,79.072 86.039,79.072 86.013,79.072 C85.927,78.901 85.762,78.253 85.858,77.932 C85.884,77.932 85.910,77.932 85.935,77.932 C85.935,77.824 85.935,77.715 85.935,77.607 C85.961,77.607 85.987,77.607 86.013,77.607 C86.059,77.411 86.269,77.054 86.400,76.956 C86.452,76.956 86.503,76.956 86.555,76.956 C86.581,76.902 86.607,76.847 86.633,76.793 C86.762,76.766 86.891,76.739 87.020,76.712 C87.020,76.685 87.020,76.658 87.020,76.630 Z"/>
</svg>