<svg 
 xmlns="http://www.w3.org/2000/svg"
 xmlns:xlink="http://www.w3.org/1999/xlink"
 width="94px" height="99px">
<path fill-rule="evenodd"  fill="rgb(88, 88, 88)"
 d="M35.633,2.516 C35.633,3.608 35.633,4.701 35.633,5.793 C32.536,5.793 29.438,5.793 26.341,5.793 C25.324,5.793 24.306,5.793 23.289,5.793 C22.781,5.793 22.215,5.768 21.831,5.884 C21.755,5.884 21.680,5.884 21.604,5.884 C21.604,5.899 21.604,5.914 21.604,5.929 C21.543,5.929 21.482,5.929 21.421,5.929 C21.421,5.944 21.421,5.960 21.421,5.975 C21.361,5.975 21.300,5.975 21.239,5.975 C21.239,5.990 21.239,6.005 21.239,6.020 C21.194,6.020 21.148,6.020 21.103,6.020 C21.103,6.036 21.103,6.051 21.103,6.066 C21.057,6.066 21.011,6.066 20.966,6.066 C20.966,6.081 20.966,6.096 20.966,6.111 C20.920,6.111 20.875,6.111 20.829,6.111 C20.829,6.127 20.829,6.142 20.829,6.157 C20.738,6.187 20.647,6.218 20.556,6.248 C20.556,6.263 20.556,6.278 20.556,6.293 C20.526,6.293 20.495,6.293 20.465,6.293 C20.465,6.309 20.465,6.324 20.465,6.339 C20.434,6.339 20.404,6.339 20.374,6.339 C20.374,6.354 20.374,6.369 20.374,6.384 C20.283,6.415 20.192,6.445 20.100,6.475 C20.085,6.506 20.070,6.536 20.055,6.566 C20.025,6.566 19.994,6.566 19.964,6.566 C19.949,6.597 19.933,6.627 19.918,6.657 C19.888,6.657 19.858,6.657 19.827,6.657 C19.797,6.703 19.766,6.748 19.736,6.794 C19.706,6.794 19.675,6.794 19.645,6.794 C19.584,6.870 19.523,6.946 19.463,7.021 C19.432,7.021 19.402,7.021 19.372,7.021 C19.311,7.097 19.250,7.173 19.189,7.249 C19.159,7.264 19.129,7.279 19.098,7.295 C19.098,7.325 19.098,7.355 19.098,7.386 C19.022,7.446 18.947,7.507 18.871,7.568 C18.871,7.598 18.871,7.628 18.871,7.659 C18.825,7.689 18.779,7.719 18.734,7.750 C18.734,7.780 18.734,7.810 18.734,7.841 C18.704,7.856 18.673,7.871 18.643,7.886 C18.643,7.916 18.643,7.947 18.643,7.977 C18.612,7.992 18.582,8.007 18.552,8.023 C18.521,8.114 18.491,8.205 18.461,8.296 C18.445,8.296 18.430,8.296 18.415,8.296 C18.415,8.326 18.415,8.356 18.415,8.387 C18.400,8.387 18.385,8.387 18.370,8.387 C18.370,8.417 18.370,8.447 18.370,8.478 C18.354,8.478 18.339,8.478 18.324,8.478 C18.294,8.569 18.263,8.660 18.233,8.751 C18.218,8.751 18.203,8.751 18.187,8.751 C18.187,8.796 18.187,8.842 18.187,8.887 C18.172,8.887 18.157,8.887 18.142,8.887 C18.142,8.933 18.142,8.978 18.142,9.024 C18.127,9.024 18.111,9.024 18.096,9.024 C18.096,9.069 18.096,9.115 18.096,9.160 C18.081,9.160 18.066,9.160 18.051,9.160 C18.051,9.206 18.051,9.251 18.051,9.297 C18.036,9.297 18.020,9.297 18.005,9.297 C18.005,9.357 18.005,9.418 18.005,9.479 C17.990,9.479 17.975,9.479 17.960,9.479 C17.960,9.570 17.960,9.661 17.960,9.752 C17.944,9.752 17.929,9.752 17.914,9.752 C17.914,9.858 17.914,9.964 17.914,10.070 C17.899,10.070 17.884,10.070 17.868,10.070 C17.868,12.027 17.868,13.984 17.868,15.941 C17.868,23.873 17.868,31.808 17.868,39.741 C22.772,39.741 27.677,39.741 32.581,39.741 C33.386,39.741 34.191,39.741 34.995,39.741 C35.306,39.741 35.715,39.715 35.952,39.786 C36.028,39.786 36.104,39.786 36.180,39.786 C36.807,40.000 37.276,40.480 37.273,41.333 C39.004,41.333 40.735,41.333 42.466,41.333 C42.885,41.333 43.445,41.283 43.787,41.379 C44.075,41.379 44.364,41.379 44.652,41.379 C44.652,41.394 44.652,41.409 44.652,41.424 C44.758,41.424 44.865,41.424 44.971,41.424 C44.971,41.439 44.971,41.455 44.971,41.470 C45.153,41.485 45.335,41.500 45.517,41.515 C46.003,41.667 46.489,41.819 46.975,41.970 C46.975,41.986 46.975,42.001 46.975,42.016 C47.036,42.031 47.097,42.046 47.157,42.061 C47.157,42.077 47.157,42.092 47.157,42.107 C47.188,42.107 47.218,42.107 47.248,42.107 C47.248,42.122 47.248,42.137 47.248,42.152 C47.294,42.152 47.339,42.152 47.385,42.152 C47.385,42.168 47.385,42.183 47.385,42.198 C47.415,42.198 47.446,42.198 47.476,42.198 C47.476,42.213 47.476,42.228 47.476,42.243 C47.507,42.243 47.537,42.243 47.567,42.243 C47.582,42.274 47.598,42.304 47.613,42.334 C47.704,42.365 47.795,42.395 47.886,42.425 C47.901,42.456 47.916,42.486 47.932,42.516 C47.992,42.532 48.053,42.547 48.114,42.562 C48.114,42.577 48.114,42.592 48.114,42.607 C48.159,42.623 48.205,42.638 48.250,42.653 C48.266,42.683 48.281,42.714 48.296,42.744 C48.326,42.744 48.357,42.744 48.387,42.744 C48.402,42.774 48.418,42.805 48.433,42.835 C48.463,42.835 48.493,42.835 48.524,42.835 C48.554,42.880 48.585,42.926 48.615,42.971 C48.645,42.971 48.676,42.971 48.706,42.971 C48.736,43.017 48.767,43.062 48.797,43.108 C48.827,43.108 48.858,43.108 48.888,43.108 C48.949,43.184 49.010,43.260 49.070,43.336 C49.101,43.336 49.131,43.336 49.162,43.336 C49.237,43.427 49.313,43.518 49.389,43.609 C49.556,43.760 49.723,43.912 49.890,44.064 C49.890,44.094 49.890,44.124 49.890,44.155 C49.966,44.215 50.042,44.276 50.118,44.337 C50.118,44.367 50.118,44.397 50.118,44.428 C50.164,44.458 50.209,44.488 50.255,44.519 C50.255,44.549 50.255,44.579 50.255,44.610 C50.300,44.640 50.346,44.670 50.391,44.701 C50.391,44.731 50.391,44.761 50.391,44.792 C50.422,44.807 50.452,44.822 50.482,44.837 C50.482,44.868 50.482,44.898 50.482,44.928 C50.513,44.943 50.543,44.959 50.574,44.974 C50.589,45.019 50.604,45.065 50.619,45.110 C50.634,45.110 50.649,45.110 50.665,45.110 C50.680,45.171 50.695,45.232 50.710,45.292 C51.389,46.365 51.838,47.645 51.849,49.388 C51.864,49.388 51.879,49.388 51.895,49.388 C52.026,49.237 52.223,49.183 52.396,49.069 C52.411,49.039 52.426,49.009 52.441,48.978 C52.532,48.948 52.623,48.918 52.714,48.887 C52.730,48.857 52.745,48.827 52.760,48.796 C52.851,48.766 52.942,48.736 53.033,48.705 C53.033,48.690 53.033,48.675 53.033,48.660 C53.124,48.629 53.215,48.599 53.307,48.569 C53.307,48.554 53.307,48.538 53.307,48.523 C53.352,48.523 53.398,48.523 53.443,48.523 C53.443,48.508 53.443,48.493 53.443,48.478 C53.474,48.478 53.504,48.478 53.534,48.478 C53.534,48.463 53.534,48.447 53.534,48.432 C53.580,48.432 53.625,48.432 53.671,48.432 C53.671,48.417 53.671,48.402 53.671,48.387 C53.701,48.387 53.732,48.387 53.762,48.387 C53.762,48.372 53.762,48.356 53.762,48.341 C53.808,48.341 53.853,48.341 53.899,48.341 C53.899,48.326 53.899,48.311 53.899,48.296 C53.944,48.296 53.990,48.296 54.035,48.296 C54.035,48.281 54.035,48.265 54.035,48.250 C54.081,48.250 54.126,48.250 54.172,48.250 C54.172,48.235 54.172,48.220 54.172,48.205 C54.218,48.205 54.263,48.205 54.309,48.205 C54.309,48.190 54.309,48.174 54.309,48.159 C54.354,48.159 54.400,48.159 54.445,48.159 C54.445,48.144 54.445,48.129 54.445,48.114 C54.506,48.114 54.567,48.114 54.628,48.114 C54.628,48.099 54.628,48.083 54.628,48.068 C54.688,48.068 54.749,48.068 54.810,48.068 C54.810,48.053 54.810,48.038 54.810,48.023 C54.886,48.023 54.962,48.023 55.037,48.023 C55.037,48.008 55.037,47.992 55.037,47.977 C55.113,47.977 55.189,47.977 55.265,47.977 C55.265,47.962 55.265,47.947 55.265,47.932 C55.356,47.932 55.447,47.932 55.539,47.932 C55.539,47.916 55.539,47.901 55.539,47.886 C56.024,47.871 56.510,47.856 56.996,47.841 C57.983,47.841 58.970,47.841 59.957,47.841 C59.949,45.811 62.038,46.202 64.011,46.202 C68.049,46.202 72.089,46.202 76.127,46.202 C76.127,37.117 76.127,28.029 76.127,18.944 C76.127,16.790 76.127,14.636 76.127,12.482 C76.127,11.506 76.228,10.291 75.991,9.524 C75.991,9.448 75.991,9.373 75.991,9.297 C75.975,9.297 75.960,9.297 75.945,9.297 C75.945,9.251 75.945,9.206 75.945,9.160 C75.930,9.160 75.915,9.160 75.899,9.160 C75.899,9.115 75.899,9.069 75.899,9.024 C75.884,9.024 75.869,9.024 75.854,9.024 C75.854,8.978 75.854,8.933 75.854,8.887 C75.839,8.887 75.824,8.887 75.808,8.887 C75.808,8.842 75.808,8.796 75.808,8.751 C75.793,8.751 75.778,8.751 75.763,8.751 C75.732,8.660 75.702,8.569 75.672,8.478 C75.657,8.478 75.641,8.478 75.626,8.478 C75.626,8.447 75.626,8.417 75.626,8.387 C75.611,8.387 75.596,8.387 75.581,8.387 C75.581,8.356 75.581,8.326 75.581,8.296 C75.565,8.296 75.550,8.296 75.535,8.296 C75.505,8.205 75.474,8.114 75.444,8.023 C75.429,8.023 75.414,8.023 75.398,8.023 C75.383,7.977 75.368,7.932 75.353,7.886 C75.323,7.871 75.292,7.856 75.262,7.841 C75.262,7.810 75.262,7.780 75.262,7.750 C75.231,7.734 75.201,7.719 75.171,7.704 C75.155,7.659 75.140,7.613 75.125,7.568 C75.049,7.507 74.973,7.446 74.897,7.386 C74.897,7.355 74.897,7.325 74.897,7.295 C74.821,7.234 74.746,7.173 74.670,7.112 C74.654,7.082 74.639,7.052 74.624,7.021 C74.594,7.021 74.563,7.021 74.533,7.021 C74.472,6.946 74.412,6.870 74.351,6.794 C74.320,6.794 74.290,6.794 74.260,6.794 C74.229,6.748 74.199,6.703 74.169,6.657 C74.138,6.657 74.108,6.657 74.077,6.657 C74.062,6.627 74.047,6.597 74.032,6.566 C74.002,6.566 73.971,6.566 73.941,6.566 C73.926,6.536 73.910,6.506 73.895,6.475 C73.804,6.445 73.713,6.415 73.622,6.384 C73.622,6.369 73.622,6.354 73.622,6.339 C73.592,6.339 73.561,6.339 73.531,6.339 C73.531,6.324 73.531,6.309 73.531,6.293 C73.501,6.293 73.470,6.293 73.440,6.293 C73.440,6.278 73.440,6.263 73.440,6.248 C73.349,6.218 73.258,6.187 73.166,6.157 C73.166,6.142 73.166,6.127 73.166,6.111 C73.121,6.111 73.075,6.111 73.030,6.111 C73.030,6.096 73.030,6.081 73.030,6.066 C72.984,6.066 72.939,6.066 72.893,6.066 C72.893,6.051 72.893,6.036 72.893,6.020 C72.848,6.020 72.802,6.020 72.757,6.020 C72.757,6.005 72.757,5.990 72.757,5.975 C72.696,5.975 72.635,5.975 72.574,5.975 C72.574,5.960 72.574,5.944 72.574,5.929 C72.514,5.929 72.453,5.929 72.392,5.929 C72.392,5.914 72.392,5.899 72.392,5.884 C72.316,5.884 72.240,5.884 72.164,5.884 C72.164,5.869 72.164,5.853 72.164,5.838 C71.800,5.823 71.436,5.808 71.071,5.793 C70.388,5.793 69.705,5.793 69.021,5.793 C65.484,5.793 61.946,5.793 58.408,5.793 C58.408,4.701 58.408,3.608 58.408,2.516 C61.490,2.516 64.573,2.516 67.655,2.516 C68.535,2.516 69.416,2.516 70.297,2.516 C70.729,2.516 71.309,2.462 71.663,2.562 C71.861,2.562 72.058,2.562 72.255,2.562 C72.255,2.577 72.255,2.592 72.255,2.607 C72.362,2.607 72.468,2.607 72.574,2.607 C72.574,2.623 72.574,2.638 72.574,2.653 C72.665,2.653 72.757,2.653 72.848,2.653 C72.848,2.668 72.848,2.683 72.848,2.698 C72.924,2.698 72.999,2.698 73.075,2.698 C73.075,2.714 73.075,2.729 73.075,2.744 C73.197,2.759 73.318,2.774 73.440,2.789 C73.440,2.805 73.440,2.820 73.440,2.835 C73.500,2.835 73.561,2.835 73.622,2.835 C73.622,2.850 73.622,2.865 73.622,2.880 C73.668,2.880 73.713,2.880 73.759,2.880 C73.759,2.896 73.759,2.911 73.759,2.926 C73.804,2.926 73.850,2.926 73.895,2.926 C73.895,2.941 73.895,2.956 73.895,2.971 C73.941,2.971 73.986,2.971 74.032,2.971 C74.032,2.987 74.032,3.002 74.032,3.017 C74.077,3.017 74.123,3.017 74.169,3.017 C74.169,3.032 74.169,3.047 74.169,3.062 C74.244,3.078 74.320,3.093 74.396,3.108 C74.396,3.123 74.396,3.138 74.396,3.153 C74.427,3.153 74.457,3.153 74.487,3.153 C74.487,3.169 74.487,3.184 74.487,3.199 C74.533,3.199 74.579,3.199 74.624,3.199 C74.624,3.214 74.624,3.229 74.624,3.244 C74.715,3.275 74.806,3.305 74.897,3.335 C74.897,3.351 74.897,3.366 74.897,3.381 C74.928,3.381 74.958,3.381 74.988,3.381 C74.988,3.396 74.988,3.411 74.988,3.426 C75.019,3.426 75.049,3.426 75.080,3.426 C75.080,3.442 75.080,3.457 75.080,3.472 C75.110,3.472 75.140,3.472 75.171,3.472 C75.171,3.487 75.171,3.502 75.171,3.517 C75.201,3.517 75.231,3.517 75.262,3.517 C75.262,3.533 75.262,3.548 75.262,3.563 C75.292,3.563 75.323,3.563 75.353,3.563 C75.368,3.593 75.383,3.624 75.398,3.654 C75.459,3.669 75.520,3.684 75.581,3.700 C75.596,3.730 75.611,3.760 75.626,3.791 C75.687,3.806 75.748,3.821 75.808,3.836 C75.824,3.866 75.839,3.897 75.854,3.927 C75.884,3.927 75.915,3.927 75.945,3.927 C75.975,3.973 76.006,4.018 76.036,4.064 C76.066,4.064 76.097,4.064 76.127,4.064 C76.158,4.109 76.188,4.155 76.218,4.200 C76.249,4.200 76.279,4.200 76.309,4.200 C76.355,4.261 76.401,4.321 76.446,4.382 C76.476,4.382 76.507,4.382 76.537,4.382 C76.628,4.488 76.719,4.594 76.810,4.701 C76.841,4.701 76.871,4.701 76.902,4.701 C76.977,4.792 77.053,4.883 77.129,4.974 C77.160,4.989 77.190,5.004 77.220,5.019 C77.220,5.050 77.220,5.080 77.220,5.110 C77.327,5.201 77.433,5.292 77.539,5.383 C77.539,5.414 77.539,5.444 77.539,5.474 C77.600,5.520 77.661,5.565 77.721,5.611 C77.721,5.641 77.721,5.671 77.721,5.702 C77.767,5.732 77.813,5.762 77.858,5.793 C77.858,5.823 77.858,5.853 77.858,5.884 C77.904,5.914 77.949,5.944 77.995,5.975 C77.995,6.005 77.995,6.036 77.995,6.066 C78.025,6.081 78.056,6.096 78.086,6.111 C78.101,6.172 78.116,6.233 78.131,6.293 C78.162,6.309 78.192,6.324 78.223,6.339 C78.238,6.384 78.253,6.430 78.268,6.475 C78.283,6.475 78.298,6.475 78.314,6.475 C78.314,6.506 78.314,6.536 78.314,6.566 C78.329,6.566 78.344,6.566 78.359,6.566 C78.359,6.597 78.359,6.627 78.359,6.657 C78.374,6.657 78.390,6.657 78.405,6.657 C78.405,6.688 78.405,6.718 78.405,6.748 C78.420,6.748 78.435,6.748 78.450,6.748 C78.450,6.779 78.450,6.809 78.450,6.839 C78.465,6.839 78.481,6.839 78.496,6.839 C78.496,6.870 78.496,6.900 78.496,6.930 C78.511,6.930 78.526,6.930 78.541,6.930 C78.541,6.961 78.541,6.991 78.541,7.021 C78.557,7.021 78.572,7.021 78.587,7.021 C78.587,7.052 78.587,7.082 78.587,7.112 C78.602,7.112 78.617,7.112 78.632,7.112 C78.663,7.203 78.693,7.295 78.724,7.386 C78.739,7.386 78.754,7.386 78.769,7.386 C78.921,7.871 79.073,8.356 79.225,8.842 C79.240,9.009 79.255,9.175 79.270,9.342 C79.510,10.160 79.407,11.460 79.407,12.482 C79.407,14.757 79.407,17.033 79.407,19.308 C79.407,28.272 79.407,37.239 79.407,46.202 C79.941,46.196 80.790,46.120 81.229,46.248 C81.320,46.248 81.411,46.248 81.502,46.248 C82.154,46.465 82.630,46.983 82.641,47.841 C83.628,47.841 84.615,47.841 85.602,47.841 C86.101,47.841 86.634,47.822 87.014,47.932 C87.120,47.932 87.226,47.932 87.333,47.932 C87.788,48.053 88.244,48.174 88.699,48.296 C88.699,48.311 88.699,48.326 88.699,48.341 C88.775,48.356 88.851,48.372 88.927,48.387 C88.927,48.402 88.927,48.417 88.927,48.432 C88.957,48.432 88.988,48.432 89.018,48.432 C89.018,48.447 89.018,48.463 89.018,48.478 C89.063,48.478 89.109,48.478 89.155,48.478 C89.155,48.493 89.155,48.508 89.155,48.523 C89.246,48.554 89.337,48.584 89.428,48.614 C89.428,48.629 89.428,48.645 89.428,48.660 C89.458,48.660 89.489,48.660 89.519,48.660 C89.519,48.675 89.519,48.690 89.519,48.705 C89.549,48.705 89.580,48.705 89.610,48.705 C89.610,48.720 89.610,48.736 89.610,48.751 C89.640,48.751 89.671,48.751 89.701,48.751 C89.701,48.766 89.701,48.781 89.701,48.796 C89.732,48.796 89.762,48.796 89.792,48.796 C89.792,48.811 89.792,48.827 89.792,48.842 C89.823,48.842 89.853,48.842 89.883,48.842 C89.883,48.857 89.883,48.872 89.883,48.887 C89.914,48.887 89.944,48.887 89.974,48.887 C89.990,48.918 90.005,48.948 90.020,48.978 C90.081,48.993 90.142,49.009 90.202,49.024 C90.202,49.039 90.202,49.054 90.202,49.069 C90.248,49.084 90.293,49.100 90.339,49.115 C90.354,49.145 90.369,49.176 90.384,49.206 C90.415,49.206 90.445,49.206 90.476,49.206 C90.491,49.236 90.506,49.267 90.521,49.297 C90.551,49.297 90.582,49.297 90.612,49.297 C90.627,49.327 90.643,49.358 90.658,49.388 C90.703,49.403 90.749,49.418 90.794,49.433 C90.825,49.479 90.855,49.524 90.886,49.570 C90.916,49.570 90.946,49.570 90.977,49.570 C91.037,49.646 91.098,49.722 91.159,49.797 C91.189,49.797 91.220,49.797 91.250,49.797 C91.371,49.934 91.493,50.070 91.614,50.207 C91.751,50.328 91.888,50.450 92.024,50.571 C92.024,50.601 92.024,50.632 92.024,50.662 C92.100,50.723 92.176,50.783 92.252,50.844 C92.252,50.874 92.252,50.905 92.252,50.935 C92.298,50.965 92.343,50.996 92.389,51.026 C92.389,51.056 92.389,51.087 92.389,51.117 C92.419,51.132 92.449,51.147 92.480,51.163 C92.480,51.193 92.480,51.223 92.480,51.254 C92.525,51.284 92.571,51.314 92.616,51.345 C92.616,51.375 92.616,51.405 92.616,51.436 C92.647,51.451 92.677,51.466 92.708,51.481 C92.723,51.542 92.738,51.603 92.753,51.663 C92.783,51.678 92.814,51.694 92.844,51.709 C92.859,51.769 92.875,51.830 92.890,51.891 C92.920,51.906 92.950,51.921 92.981,51.936 C92.996,51.997 93.011,52.058 93.026,52.118 C93.042,52.118 93.057,52.118 93.072,52.118 C93.072,52.149 93.072,52.179 93.072,52.209 C93.087,52.209 93.102,52.209 93.117,52.209 C93.148,52.300 93.178,52.391 93.209,52.482 C93.224,52.482 93.239,52.482 93.254,52.482 C93.254,52.528 93.254,52.573 93.254,52.619 C93.269,52.619 93.284,52.619 93.300,52.619 C93.315,52.679 93.330,52.740 93.345,52.801 C93.360,52.801 93.376,52.801 93.391,52.801 C93.406,52.892 93.421,52.983 93.436,53.074 C93.451,53.074 93.467,53.074 93.482,53.074 C93.482,53.104 93.482,53.135 93.482,53.165 C93.497,53.165 93.512,53.165 93.527,53.165 C93.543,53.271 93.558,53.377 93.573,53.483 C93.588,53.483 93.603,53.483 93.619,53.483 C93.619,53.529 93.619,53.574 93.619,53.620 C93.634,53.620 93.649,53.620 93.664,53.620 C93.664,53.665 93.664,53.711 93.664,53.756 C93.679,53.756 93.694,53.756 93.710,53.756 C93.710,53.817 93.710,53.878 93.710,53.938 C93.725,53.938 93.740,53.938 93.755,53.938 C93.755,54.014 93.755,54.090 93.755,54.166 C93.770,54.166 93.786,54.166 93.801,54.166 C93.801,54.242 93.801,54.318 93.801,54.394 C93.816,54.394 93.831,54.394 93.846,54.394 C93.846,54.469 93.846,54.545 93.846,54.621 C93.861,54.621 93.877,54.621 93.892,54.621 C93.907,54.924 93.922,55.228 93.937,55.531 C94.044,55.911 93.983,56.528 93.983,56.987 C93.983,57.943 93.983,58.899 93.983,59.854 C93.983,64.996 93.983,70.139 93.983,75.281 C93.983,79.012 93.983,82.744 93.983,86.476 C93.983,87.325 93.983,88.175 93.983,89.024 C93.983,89.429 94.030,89.970 93.937,90.298 C93.937,90.480 93.937,90.662 93.937,90.844 C93.922,90.844 93.907,90.844 93.892,90.844 C93.892,90.965 93.892,91.087 93.892,91.208 C93.877,91.208 93.861,91.208 93.846,91.208 C93.846,91.284 93.846,91.360 93.846,91.436 C93.831,91.436 93.816,91.436 93.801,91.436 C93.770,91.648 93.740,91.860 93.710,92.073 C93.694,92.073 93.679,92.073 93.664,92.073 C93.664,92.118 93.664,92.164 93.664,92.209 C93.649,92.209 93.634,92.209 93.619,92.209 C93.619,92.255 93.619,92.300 93.619,92.346 C93.603,92.346 93.588,92.346 93.573,92.346 C93.573,92.407 93.573,92.467 93.573,92.528 C93.558,92.528 93.543,92.528 93.527,92.528 C93.527,92.558 93.527,92.589 93.527,92.619 C93.512,92.619 93.497,92.619 93.482,92.619 C93.467,92.710 93.451,92.801 93.436,92.892 C93.421,92.892 93.406,92.892 93.391,92.892 C93.391,92.922 93.391,92.953 93.391,92.983 C93.376,92.983 93.360,92.983 93.345,92.983 C93.345,93.028 93.345,93.074 93.345,93.119 C93.330,93.119 93.315,93.119 93.300,93.119 C93.300,93.150 93.300,93.180 93.300,93.210 C93.284,93.210 93.269,93.210 93.254,93.210 C93.254,93.256 93.254,93.301 93.254,93.347 C93.239,93.347 93.224,93.347 93.209,93.347 C93.178,93.438 93.148,93.529 93.117,93.620 C93.102,93.620 93.087,93.620 93.072,93.620 C93.057,93.681 93.042,93.741 93.026,93.802 C92.996,93.817 92.966,93.832 92.935,93.848 C92.905,93.939 92.875,94.030 92.844,94.121 C92.829,94.121 92.814,94.121 92.799,94.121 C92.783,94.166 92.768,94.212 92.753,94.257 C92.723,94.272 92.692,94.287 92.662,94.303 C92.647,94.363 92.632,94.424 92.616,94.485 C92.571,94.515 92.525,94.545 92.480,94.576 C92.480,94.606 92.480,94.636 92.480,94.667 C92.449,94.682 92.419,94.697 92.389,94.712 C92.389,94.743 92.389,94.773 92.389,94.803 C92.358,94.818 92.328,94.834 92.298,94.849 C92.298,94.864 92.298,94.879 92.298,94.894 C92.267,94.909 92.237,94.925 92.206,94.940 C92.206,94.970 92.206,95.000 92.206,95.031 C92.131,95.091 92.055,95.152 91.979,95.213 C91.979,95.243 91.979,95.273 91.979,95.304 C91.812,95.455 91.645,95.607 91.478,95.759 C91.402,95.850 91.326,95.941 91.250,96.032 C91.220,96.032 91.189,96.032 91.159,96.032 C91.098,96.108 91.037,96.184 90.977,96.259 C90.946,96.259 90.916,96.259 90.886,96.259 C90.855,96.305 90.825,96.350 90.794,96.396 C90.764,96.396 90.734,96.396 90.703,96.396 C90.673,96.441 90.643,96.487 90.612,96.532 C90.582,96.532 90.551,96.532 90.521,96.532 C90.506,96.563 90.491,96.593 90.476,96.623 C90.430,96.639 90.384,96.654 90.339,96.669 C90.339,96.684 90.339,96.699 90.339,96.714 C90.309,96.714 90.278,96.714 90.248,96.714 C90.233,96.745 90.217,96.775 90.202,96.805 C90.142,96.821 90.081,96.836 90.020,96.851 C90.005,96.881 89.990,96.912 89.974,96.942 C89.944,96.942 89.914,96.942 89.883,96.942 C89.883,96.957 89.883,96.972 89.883,96.987 C89.853,96.987 89.823,96.987 89.792,96.987 C89.792,97.003 89.792,97.018 89.792,97.033 C89.762,97.033 89.732,97.033 89.701,97.033 C89.701,97.048 89.701,97.063 89.701,97.078 C89.671,97.078 89.640,97.078 89.610,97.078 C89.610,97.094 89.610,97.109 89.610,97.124 C89.580,97.124 89.549,97.124 89.519,97.124 C89.519,97.139 89.519,97.154 89.519,97.170 C89.489,97.170 89.458,97.170 89.428,97.170 C89.428,97.185 89.428,97.200 89.428,97.215 C89.337,97.245 89.246,97.276 89.155,97.306 C89.155,97.321 89.155,97.336 89.155,97.352 C89.109,97.352 89.063,97.352 89.018,97.352 C89.018,97.367 89.018,97.382 89.018,97.397 C88.988,97.397 88.957,97.397 88.927,97.397 C88.927,97.412 88.927,97.427 88.927,97.443 C88.836,97.458 88.745,97.473 88.654,97.488 C88.654,97.503 88.654,97.518 88.654,97.534 C88.623,97.534 88.593,97.534 88.562,97.534 C88.562,97.549 88.562,97.564 88.562,97.579 C88.517,97.579 88.471,97.579 88.426,97.579 C88.426,97.594 88.426,97.609 88.426,97.625 C88.365,97.625 88.304,97.625 88.244,97.625 C88.244,97.640 88.244,97.655 88.244,97.670 C88.198,97.670 88.152,97.670 88.107,97.670 C88.107,97.685 88.107,97.700 88.107,97.716 C87.834,97.761 87.560,97.807 87.287,97.852 C86.719,98.020 85.933,97.989 85.192,97.989 C84.053,97.989 82.914,97.989 81.775,97.989 C77.433,97.989 73.090,97.989 68.748,97.989 C65.697,97.989 62.644,97.989 59.593,97.989 C58.788,97.989 57.983,97.989 57.178,97.989 C56.786,97.989 56.264,98.033 55.948,97.943 C55.721,97.928 55.493,97.913 55.265,97.898 C55.265,97.882 55.265,97.867 55.265,97.852 C55.113,97.837 54.962,97.822 54.810,97.807 C54.810,97.791 54.810,97.776 54.810,97.761 C54.749,97.761 54.688,97.761 54.628,97.761 C54.628,97.746 54.628,97.731 54.628,97.716 C54.521,97.700 54.415,97.685 54.309,97.670 C54.309,97.655 54.309,97.640 54.309,97.625 C54.263,97.625 54.218,97.625 54.172,97.625 C54.172,97.609 54.172,97.594 54.172,97.579 C54.126,97.579 54.081,97.579 54.035,97.579 C54.035,97.564 54.035,97.549 54.035,97.534 C53.944,97.518 53.853,97.503 53.762,97.488 C53.762,97.473 53.762,97.458 53.762,97.443 C53.686,97.427 53.610,97.412 53.534,97.397 C53.534,97.382 53.534,97.367 53.534,97.352 C53.474,97.336 53.413,97.321 53.352,97.306 C53.352,97.291 53.352,97.276 53.352,97.261 C53.307,97.261 53.261,97.261 53.215,97.261 C53.215,97.245 53.215,97.230 53.215,97.215 C53.124,97.185 53.033,97.154 52.942,97.124 C52.942,97.109 52.942,97.094 52.942,97.078 C52.881,97.063 52.821,97.048 52.760,97.033 C52.745,97.003 52.730,96.972 52.714,96.942 C52.623,96.912 52.532,96.881 52.441,96.851 C52.441,96.836 52.441,96.821 52.441,96.805 C52.396,96.790 52.350,96.775 52.304,96.760 C52.289,96.730 52.274,96.699 52.259,96.669 C52.229,96.669 52.198,96.669 52.168,96.669 C52.168,96.654 52.168,96.639 52.168,96.623 C52.122,96.608 52.077,96.593 52.031,96.578 C52.016,96.548 52.001,96.517 51.986,96.487 C51.955,96.487 51.925,96.487 51.895,96.487 C51.864,96.441 51.834,96.396 51.803,96.350 C51.773,96.350 51.743,96.350 51.712,96.350 C51.667,96.290 51.621,96.229 51.576,96.168 C51.545,96.168 51.515,96.168 51.485,96.168 C51.378,96.047 51.272,95.926 51.166,95.804 C51.135,95.804 51.105,95.804 51.075,95.804 C50.801,95.486 50.528,95.167 50.255,94.849 C50.240,94.849 50.224,94.849 50.209,94.849 C50.209,94.864 50.209,94.879 50.209,94.894 C50.164,94.925 50.118,94.955 50.073,94.985 C50.073,95.016 50.073,95.046 50.073,95.076 C49.966,95.167 49.860,95.258 49.754,95.349 C49.754,95.380 49.754,95.410 49.754,95.440 C49.708,95.471 49.663,95.501 49.617,95.531 C49.511,95.653 49.404,95.774 49.298,95.895 C49.268,95.895 49.237,95.895 49.207,95.895 C49.116,96.002 49.025,96.108 48.934,96.214 C48.903,96.214 48.873,96.214 48.843,96.214 C48.812,96.259 48.782,96.305 48.752,96.350 C48.706,96.366 48.660,96.381 48.615,96.396 C48.600,96.426 48.585,96.457 48.569,96.487 C48.539,96.487 48.509,96.487 48.478,96.487 C48.463,96.517 48.448,96.548 48.433,96.578 C48.402,96.578 48.372,96.578 48.342,96.578 C48.326,96.608 48.311,96.639 48.296,96.669 C48.266,96.669 48.235,96.669 48.205,96.669 C48.190,96.699 48.175,96.730 48.159,96.760 C48.129,96.760 48.099,96.760 48.068,96.760 C48.053,96.790 48.038,96.821 48.023,96.851 C47.962,96.866 47.901,96.881 47.841,96.896 C47.825,96.927 47.810,96.957 47.795,96.987 C47.704,97.018 47.613,97.048 47.522,97.078 C47.522,97.094 47.522,97.109 47.522,97.124 C47.491,97.124 47.461,97.124 47.431,97.124 C47.431,97.139 47.431,97.154 47.431,97.170 C47.340,97.200 47.248,97.230 47.157,97.261 C47.157,97.276 47.157,97.291 47.157,97.306 C46.656,97.473 46.155,97.640 45.654,97.807 C45.578,97.807 45.502,97.807 45.426,97.807 C44.639,98.050 43.496,97.989 42.466,97.989 C40.553,97.989 38.639,97.989 36.726,97.989 C30.320,97.989 23.911,97.989 17.504,97.989 C15.075,97.989 12.645,97.989 10.216,97.989 C9.275,97.989 8.333,97.989 7.392,97.989 C7.392,97.973 7.392,97.958 7.392,97.943 C7.255,97.943 7.119,97.943 6.982,97.943 C6.982,97.928 6.982,97.913 6.982,97.898 C6.891,97.898 6.800,97.898 6.709,97.898 C6.709,97.882 6.709,97.867 6.709,97.852 C6.618,97.852 6.526,97.852 6.435,97.852 C6.435,97.837 6.435,97.822 6.435,97.807 C6.375,97.807 6.314,97.807 6.253,97.807 C6.253,97.791 6.253,97.776 6.253,97.761 C6.192,97.761 6.132,97.761 6.071,97.761 C6.071,97.746 6.071,97.731 6.071,97.716 C6.010,97.716 5.950,97.716 5.889,97.716 C5.889,97.700 5.889,97.685 5.889,97.670 C5.843,97.670 5.798,97.670 5.752,97.670 C5.752,97.655 5.752,97.640 5.752,97.625 C5.646,97.609 5.540,97.594 5.433,97.579 C5.433,97.564 5.433,97.549 5.433,97.534 C5.403,97.534 5.373,97.534 5.342,97.534 C5.342,97.518 5.342,97.503 5.342,97.488 C5.251,97.473 5.160,97.458 5.069,97.443 C5.069,97.427 5.069,97.412 5.069,97.397 C5.039,97.397 5.008,97.397 4.978,97.397 C4.978,97.382 4.978,97.367 4.978,97.352 C4.932,97.352 4.887,97.352 4.841,97.352 C4.841,97.336 4.841,97.321 4.841,97.306 C4.750,97.276 4.659,97.245 4.568,97.215 C4.568,97.200 4.568,97.185 4.568,97.170 C4.537,97.170 4.507,97.170 4.477,97.170 C4.477,97.154 4.477,97.139 4.477,97.124 C4.446,97.124 4.416,97.124 4.386,97.124 C4.386,97.109 4.386,97.094 4.386,97.078 C4.355,97.078 4.325,97.078 4.295,97.078 C4.295,97.063 4.295,97.048 4.295,97.033 C4.264,97.033 4.234,97.033 4.203,97.033 C4.203,97.018 4.203,97.003 4.203,96.987 C4.173,96.987 4.143,96.987 4.112,96.987 C4.112,96.972 4.112,96.957 4.112,96.942 C4.082,96.942 4.052,96.942 4.021,96.942 C4.006,96.912 3.991,96.881 3.976,96.851 C3.915,96.836 3.854,96.821 3.793,96.805 C3.793,96.790 3.793,96.775 3.793,96.760 C3.748,96.745 3.702,96.730 3.657,96.714 C3.642,96.684 3.626,96.654 3.611,96.623 C3.581,96.623 3.551,96.623 3.520,96.623 C3.505,96.593 3.490,96.563 3.475,96.532 C3.444,96.532 3.414,96.532 3.384,96.532 C3.368,96.502 3.353,96.472 3.338,96.441 C3.292,96.426 3.247,96.411 3.201,96.396 C3.171,96.350 3.141,96.305 3.110,96.259 C3.080,96.259 3.049,96.259 3.019,96.259 C2.958,96.184 2.898,96.108 2.837,96.032 C2.807,96.032 2.776,96.032 2.746,96.032 C2.594,95.865 2.442,95.698 2.290,95.531 C2.199,95.455 2.108,95.380 2.017,95.304 C2.017,95.273 2.017,95.243 2.017,95.213 C1.941,95.152 1.865,95.091 1.789,95.031 C1.789,95.000 1.789,94.970 1.789,94.940 C1.759,94.925 1.729,94.909 1.698,94.894 C1.698,94.879 1.698,94.864 1.698,94.849 C1.668,94.834 1.637,94.818 1.607,94.803 C1.607,94.773 1.607,94.743 1.607,94.712 C1.577,94.697 1.546,94.682 1.516,94.667 C1.516,94.636 1.516,94.606 1.516,94.576 C1.470,94.545 1.425,94.515 1.379,94.485 C1.379,94.454 1.379,94.424 1.379,94.394 C1.349,94.378 1.319,94.363 1.288,94.348 C1.273,94.287 1.258,94.227 1.243,94.166 C1.212,94.151 1.182,94.136 1.152,94.121 C1.121,94.030 1.091,93.939 1.060,93.848 C1.030,93.832 1.000,93.817 0.969,93.802 C0.954,93.741 0.939,93.681 0.924,93.620 C0.909,93.620 0.893,93.620 0.878,93.620 C0.848,93.529 0.818,93.438 0.787,93.347 C0.772,93.347 0.757,93.347 0.742,93.347 C0.742,93.301 0.742,93.256 0.742,93.210 C0.726,93.210 0.711,93.210 0.696,93.210 C0.681,93.150 0.666,93.089 0.651,93.028 C0.635,93.028 0.620,93.028 0.605,93.028 C0.590,92.937 0.575,92.846 0.559,92.755 C0.544,92.755 0.529,92.755 0.514,92.755 C0.514,92.710 0.514,92.664 0.514,92.619 C0.499,92.619 0.483,92.619 0.468,92.619 C0.468,92.589 0.468,92.558 0.468,92.528 C0.453,92.528 0.438,92.528 0.423,92.528 C0.392,92.376 0.362,92.224 0.332,92.073 C0.316,92.073 0.301,92.073 0.286,92.073 C0.271,91.936 0.256,91.800 0.241,91.663 C-0.072,90.651 0.013,89.195 0.013,87.886 C0.013,85.368 0.013,82.850 0.013,80.332 C0.013,72.460 0.013,64.586 0.013,56.714 C0.013,54.773 0.013,52.831 0.013,50.890 C0.013,49.979 -0.063,48.884 0.149,48.159 C0.165,47.992 0.180,47.825 0.195,47.659 C0.210,47.659 0.225,47.659 0.241,47.659 C0.256,47.537 0.271,47.416 0.286,47.295 C0.301,47.295 0.316,47.295 0.332,47.295 C0.347,47.188 0.362,47.082 0.377,46.976 C0.392,46.976 0.408,46.976 0.423,46.976 C0.423,46.931 0.423,46.885 0.423,46.840 C0.438,46.840 0.453,46.840 0.468,46.840 C0.468,46.794 0.468,46.748 0.468,46.703 C0.483,46.703 0.499,46.703 0.514,46.703 C0.514,46.657 0.514,46.612 0.514,46.566 C0.529,46.566 0.544,46.566 0.559,46.566 C0.575,46.491 0.590,46.415 0.605,46.339 C0.620,46.339 0.635,46.339 0.651,46.339 C0.651,46.309 0.651,46.278 0.651,46.248 C0.666,46.248 0.681,46.248 0.696,46.248 C0.696,46.202 0.696,46.157 0.696,46.111 C0.711,46.111 0.726,46.111 0.742,46.111 C0.772,46.020 0.802,45.929 0.833,45.838 C0.848,45.838 0.863,45.838 0.878,45.838 C0.878,45.808 0.878,45.778 0.878,45.747 C0.893,45.747 0.909,45.747 0.924,45.747 C0.954,45.656 0.985,45.565 1.015,45.474 C1.045,45.459 1.076,45.444 1.106,45.429 C1.136,45.338 1.167,45.247 1.197,45.156 C1.227,45.141 1.258,45.125 1.288,45.110 C1.288,45.080 1.288,45.050 1.288,45.019 C1.303,45.019 1.319,45.019 1.334,45.019 C1.349,44.974 1.364,44.928 1.379,44.883 C1.410,44.868 1.440,44.852 1.470,44.837 C1.470,44.807 1.470,44.777 1.470,44.746 C1.516,44.716 1.562,44.686 1.607,44.655 C1.607,44.625 1.607,44.595 1.607,44.564 C1.637,44.549 1.668,44.534 1.698,44.519 C1.713,44.473 1.729,44.428 1.744,44.382 C1.804,44.337 1.865,44.291 1.926,44.246 C1.926,44.215 1.926,44.185 1.926,44.155 C2.108,43.988 2.290,43.821 2.473,43.654 C2.594,43.518 2.715,43.381 2.837,43.245 C2.867,43.245 2.898,43.245 2.928,43.245 C2.974,43.184 3.019,43.123 3.065,43.062 C3.095,43.062 3.125,43.062 3.156,43.062 C3.186,43.017 3.217,42.971 3.247,42.926 C3.277,42.926 3.308,42.926 3.338,42.926 C3.368,42.880 3.399,42.835 3.429,42.789 C3.459,42.789 3.490,42.789 3.520,42.789 C3.535,42.759 3.551,42.729 3.566,42.698 C3.611,42.683 3.657,42.668 3.702,42.653 C3.702,42.638 3.702,42.623 3.702,42.607 C3.763,42.592 3.824,42.577 3.885,42.562 C3.900,42.532 3.915,42.501 3.930,42.471 C3.991,42.456 4.052,42.441 4.112,42.425 C4.128,42.395 4.143,42.365 4.158,42.334 C4.219,42.319 4.279,42.304 4.340,42.289 C4.340,42.274 4.340,42.259 4.340,42.243 C4.370,42.243 4.401,42.243 4.431,42.243 C4.431,42.228 4.431,42.213 4.431,42.198 C4.522,42.168 4.613,42.137 4.704,42.107 C4.704,42.092 4.704,42.077 4.704,42.061 C4.750,42.061 4.796,42.061 4.841,42.061 C4.841,42.046 4.841,42.031 4.841,42.016 C4.871,42.016 4.902,42.016 4.932,42.016 C4.932,42.001 4.932,41.986 4.932,41.970 C4.978,41.970 5.023,41.970 5.069,41.970 C5.069,41.955 5.069,41.940 5.069,41.925 C5.099,41.925 5.130,41.925 5.160,41.925 C5.160,41.910 5.160,41.894 5.160,41.879 C5.251,41.864 5.342,41.849 5.433,41.834 C5.433,41.819 5.433,41.803 5.433,41.788 C5.479,41.788 5.524,41.788 5.570,41.788 C5.570,41.773 5.570,41.758 5.570,41.743 C5.615,41.743 5.661,41.743 5.707,41.743 C5.707,41.728 5.707,41.712 5.707,41.697 C5.752,41.697 5.798,41.697 5.843,41.697 C5.843,41.682 5.843,41.667 5.843,41.652 C5.904,41.652 5.965,41.652 6.025,41.652 C6.025,41.637 6.025,41.621 6.025,41.606 C6.147,41.591 6.268,41.576 6.390,41.561 C6.390,41.546 6.390,41.530 6.390,41.515 C6.557,41.500 6.724,41.485 6.891,41.470 C6.891,41.455 6.891,41.439 6.891,41.424 C7.286,41.409 7.680,41.394 8.075,41.379 C8.465,41.314 9.024,41.333 9.487,41.333 C11.188,41.333 12.889,41.333 14.589,41.333 C14.589,32.824 14.589,24.313 14.589,15.804 C14.589,14.363 14.589,12.922 14.589,11.481 C14.589,10.739 14.555,9.924 14.726,9.342 C14.741,9.175 14.756,9.009 14.771,8.842 C14.923,8.356 15.075,7.871 15.227,7.386 C15.242,7.386 15.257,7.386 15.272,7.386 C15.302,7.295 15.333,7.203 15.363,7.112 C15.378,7.112 15.394,7.112 15.409,7.112 C15.409,7.082 15.409,7.052 15.409,7.021 C15.424,7.021 15.439,7.021 15.454,7.021 C15.454,6.991 15.454,6.961 15.454,6.930 C15.470,6.930 15.485,6.930 15.500,6.930 C15.500,6.900 15.500,6.870 15.500,6.839 C15.515,6.839 15.530,6.839 15.545,6.839 C15.545,6.809 15.545,6.779 15.545,6.748 C15.561,6.748 15.576,6.748 15.591,6.748 C15.591,6.718 15.591,6.688 15.591,6.657 C15.606,6.657 15.621,6.657 15.637,6.657 C15.637,6.627 15.637,6.597 15.637,6.566 C15.652,6.566 15.667,6.566 15.682,6.566 C15.682,6.536 15.682,6.506 15.682,6.475 C15.697,6.475 15.712,6.475 15.728,6.475 C15.743,6.430 15.758,6.384 15.773,6.339 C15.804,6.324 15.834,6.309 15.864,6.293 C15.879,6.233 15.895,6.172 15.910,6.111 C15.940,6.096 15.971,6.081 16.001,6.066 C16.001,6.036 16.001,6.005 16.001,5.975 C16.046,5.944 16.092,5.914 16.138,5.884 C16.138,5.853 16.138,5.823 16.138,5.793 C16.183,5.762 16.229,5.732 16.274,5.702 C16.274,5.671 16.274,5.641 16.274,5.611 C16.335,5.565 16.396,5.520 16.456,5.474 C16.456,5.444 16.456,5.414 16.456,5.383 C16.563,5.292 16.669,5.201 16.775,5.110 C16.775,5.080 16.775,5.050 16.775,5.019 C16.866,4.943 16.958,4.867 17.049,4.792 C17.064,4.761 17.079,4.731 17.094,4.701 C17.125,4.701 17.155,4.701 17.185,4.701 C17.276,4.594 17.367,4.488 17.459,4.382 C17.489,4.382 17.519,4.382 17.550,4.382 C17.595,4.321 17.641,4.261 17.686,4.200 C17.717,4.200 17.747,4.200 17.777,4.200 C17.808,4.155 17.838,4.109 17.868,4.064 C17.899,4.064 17.929,4.064 17.960,4.064 C17.990,4.018 18.020,3.973 18.051,3.927 C18.081,3.927 18.111,3.927 18.142,3.927 C18.157,3.897 18.172,3.866 18.187,3.836 C18.248,3.821 18.309,3.806 18.370,3.791 C18.385,3.760 18.400,3.730 18.415,3.700 C18.476,3.684 18.537,3.669 18.597,3.654 C18.612,3.624 18.628,3.593 18.643,3.563 C18.673,3.563 18.704,3.563 18.734,3.563 C18.734,3.548 18.734,3.533 18.734,3.517 C18.764,3.517 18.795,3.517 18.825,3.517 C18.825,3.502 18.825,3.487 18.825,3.472 C18.855,3.472 18.886,3.472 18.916,3.472 C18.916,3.457 18.916,3.442 18.916,3.426 C18.947,3.426 18.977,3.426 19.007,3.426 C19.007,3.411 19.007,3.396 19.007,3.381 C19.038,3.381 19.068,3.381 19.098,3.381 C19.098,3.366 19.098,3.351 19.098,3.335 C19.189,3.305 19.281,3.275 19.372,3.244 C19.372,3.229 19.372,3.214 19.372,3.199 C19.417,3.199 19.463,3.199 19.508,3.199 C19.508,3.184 19.508,3.169 19.508,3.153 C19.539,3.153 19.569,3.153 19.599,3.153 C19.599,3.138 19.599,3.123 19.599,3.108 C20.040,2.971 20.480,2.835 20.920,2.698 C20.996,2.698 21.072,2.698 21.148,2.698 C21.148,2.683 21.148,2.668 21.148,2.653 C21.239,2.653 21.330,2.653 21.421,2.653 C21.421,2.638 21.421,2.623 21.421,2.607 C21.528,2.607 21.634,2.607 21.740,2.607 C21.740,2.592 21.740,2.577 21.740,2.562 C21.938,2.562 22.135,2.562 22.332,2.562 C22.635,2.477 23.138,2.516 23.517,2.516 C24.276,2.516 25.035,2.516 25.794,2.516 C29.074,2.516 32.354,2.516 35.633,2.516 ZM17.868,43.017 C17.868,48.872 17.868,54.728 17.868,60.582 C17.884,60.582 17.899,60.582 17.914,60.582 C17.944,60.537 17.975,60.491 18.005,60.446 C18.036,60.446 18.066,60.446 18.096,60.446 C18.157,60.370 18.218,60.294 18.278,60.218 C18.309,60.218 18.339,60.218 18.370,60.218 C18.415,60.158 18.461,60.097 18.506,60.036 C18.537,60.036 18.567,60.036 18.597,60.036 C18.658,59.961 18.719,59.885 18.780,59.809 C18.810,59.809 18.840,59.809 18.871,59.809 C18.886,59.778 18.901,59.748 18.916,59.718 C18.931,59.718 18.947,59.718 18.962,59.718 C18.977,59.687 18.992,59.657 19.007,59.627 C19.038,59.627 19.068,59.627 19.098,59.627 C19.159,59.551 19.220,59.475 19.281,59.399 C19.311,59.399 19.341,59.399 19.372,59.399 C19.417,59.339 19.463,59.278 19.508,59.217 C19.539,59.217 19.569,59.217 19.599,59.217 C19.660,59.141 19.721,59.066 19.782,58.990 C19.812,58.990 19.842,58.990 19.873,58.990 C19.918,58.929 19.964,58.868 20.009,58.808 C20.040,58.808 20.070,58.808 20.100,58.808 C20.161,58.732 20.222,58.656 20.283,58.580 C20.313,58.580 20.343,58.580 20.374,58.580 C20.419,58.519 20.465,58.459 20.510,58.398 C20.541,58.398 20.571,58.398 20.602,58.398 C20.662,58.322 20.723,58.246 20.784,58.171 C21.765,57.463 22.626,56.648 23.608,55.941 C23.669,55.865 23.729,55.789 23.790,55.713 C23.820,55.713 23.851,55.713 23.881,55.713 C23.927,55.653 23.972,55.592 24.018,55.531 C24.048,55.531 24.079,55.531 24.109,55.531 C24.170,55.455 24.230,55.380 24.291,55.304 C24.321,55.304 24.352,55.304 24.382,55.304 C24.428,55.243 24.473,55.182 24.519,55.122 C24.549,55.122 24.580,55.122 24.610,55.122 C24.671,55.046 24.731,54.970 24.792,54.894 C25.139,54.645 25.744,54.277 26.386,54.485 C26.447,54.485 26.508,54.485 26.569,54.485 C26.569,54.500 26.569,54.515 26.569,54.530 C26.599,54.530 26.629,54.530 26.660,54.530 C26.660,54.545 26.660,54.560 26.660,54.576 C26.736,54.591 26.812,54.606 26.887,54.621 C26.903,54.651 26.918,54.682 26.933,54.712 C26.963,54.712 26.994,54.712 27.024,54.712 C27.054,54.758 27.085,54.803 27.115,54.849 C27.146,54.849 27.176,54.849 27.206,54.849 C27.267,54.924 27.328,55.000 27.388,55.076 C27.419,55.076 27.449,55.076 27.480,55.076 C27.525,55.137 27.571,55.198 27.616,55.258 C27.647,55.258 27.677,55.258 27.707,55.258 C27.768,55.334 27.829,55.410 27.890,55.486 C27.920,55.486 27.950,55.486 27.981,55.486 C28.026,55.546 28.072,55.607 28.117,55.668 C28.148,55.668 28.178,55.668 28.208,55.668 C28.269,55.744 28.330,55.819 28.391,55.895 C28.421,55.895 28.451,55.895 28.482,55.895 C28.527,55.956 28.573,56.017 28.618,56.077 C29.521,56.727 30.311,57.475 31.215,58.125 C31.275,58.201 31.336,58.277 31.397,58.353 C31.427,58.353 31.458,58.353 31.488,58.353 C31.503,58.383 31.518,58.413 31.534,58.444 C31.549,58.444 31.564,58.444 31.579,58.444 C31.594,58.474 31.609,58.504 31.625,58.535 C31.655,58.535 31.685,58.535 31.716,58.535 C31.776,58.610 31.837,58.686 31.898,58.762 C31.928,58.762 31.959,58.762 31.989,58.762 C32.035,58.823 32.080,58.884 32.126,58.944 C32.156,58.944 32.186,58.944 32.217,58.944 C32.278,59.020 32.338,59.096 32.399,59.172 C32.429,59.172 32.460,59.172 32.490,59.172 C32.536,59.232 32.581,59.293 32.627,59.354 C32.657,59.354 32.688,59.354 32.718,59.354 C32.779,59.430 32.839,59.505 32.900,59.581 C32.930,59.581 32.961,59.581 32.991,59.581 C33.037,59.642 33.082,59.703 33.128,59.763 C33.158,59.763 33.189,59.763 33.219,59.763 C33.280,59.839 33.340,59.915 33.401,59.991 C33.431,59.991 33.462,59.991 33.492,59.991 C33.538,60.052 33.583,60.112 33.629,60.173 C33.659,60.173 33.690,60.173 33.720,60.173 C33.750,60.218 33.781,60.264 33.811,60.309 C33.933,60.400 34.054,60.491 34.175,60.582 C34.175,54.940 34.175,49.296 34.175,43.654 C34.065,43.545 34.037,43.247 34.039,43.017 C28.649,43.017 23.258,43.017 17.868,43.017 ZM37.273,44.610 C37.273,48.690 37.273,52.771 37.273,56.851 C37.273,57.913 37.273,58.975 37.273,60.036 C37.273,60.507 37.273,60.977 37.273,61.447 C37.258,61.447 37.243,61.447 37.227,61.447 C37.227,61.523 37.227,61.599 37.227,61.675 C37.212,61.675 37.197,61.675 37.182,61.675 C37.182,61.720 37.182,61.766 37.182,61.811 C37.167,61.811 37.151,61.811 37.136,61.811 C37.136,61.857 37.136,61.902 37.136,61.948 C37.121,61.948 37.106,61.948 37.091,61.948 C37.091,61.993 37.091,62.039 37.091,62.084 C37.076,62.084 37.060,62.084 37.045,62.084 C37.045,62.114 37.045,62.145 37.045,62.175 C37.030,62.175 37.015,62.175 37.000,62.175 C37.000,62.221 37.000,62.266 37.000,62.312 C36.984,62.312 36.969,62.312 36.954,62.312 C36.954,62.342 36.954,62.372 36.954,62.403 C36.924,62.418 36.893,62.433 36.863,62.448 C36.848,62.509 36.833,62.570 36.817,62.630 C36.772,62.661 36.726,62.691 36.681,62.721 C36.681,62.752 36.681,62.782 36.681,62.812 C36.620,62.858 36.559,62.903 36.499,62.949 C36.499,62.979 36.499,63.009 36.499,63.040 C36.483,63.040 36.468,63.040 36.453,63.040 C36.423,63.085 36.392,63.131 36.362,63.176 C36.332,63.176 36.301,63.176 36.271,63.176 C36.210,63.252 36.149,63.328 36.089,63.404 C36.058,63.404 36.028,63.404 35.997,63.404 C35.982,63.434 35.967,63.464 35.952,63.495 C35.861,63.525 35.770,63.556 35.679,63.586 C35.679,63.601 35.679,63.616 35.679,63.631 C35.588,63.662 35.496,63.692 35.405,63.722 C35.405,63.738 35.405,63.753 35.405,63.768 C35.360,63.768 35.314,63.768 35.269,63.768 C34.734,63.980 34.129,64.059 33.538,63.859 C33.432,63.844 33.325,63.829 33.219,63.813 C33.219,63.798 33.219,63.783 33.219,63.768 C33.189,63.768 33.158,63.768 33.128,63.768 C33.128,63.753 33.128,63.738 33.128,63.722 C33.082,63.722 33.037,63.722 32.991,63.722 C32.991,63.707 32.991,63.692 32.991,63.677 C32.961,63.677 32.930,63.677 32.900,63.677 C32.900,63.662 32.900,63.647 32.900,63.631 C32.870,63.631 32.839,63.631 32.809,63.631 C32.794,63.601 32.779,63.571 32.763,63.540 C32.703,63.525 32.642,63.510 32.581,63.495 C32.551,63.449 32.520,63.404 32.490,63.358 C32.460,63.358 32.429,63.358 32.399,63.358 C32.369,63.313 32.338,63.267 32.308,63.222 C32.278,63.222 32.247,63.222 32.217,63.222 C32.156,63.146 32.095,63.070 32.035,62.994 C32.004,62.994 31.974,62.994 31.944,62.994 C31.883,62.918 31.822,62.843 31.761,62.767 C31.731,62.767 31.701,62.767 31.670,62.767 C31.625,62.706 31.579,62.645 31.534,62.585 C30.535,61.866 29.663,61.029 28.664,60.309 C28.649,60.279 28.634,60.249 28.618,60.218 C28.573,60.188 28.527,60.158 28.482,60.127 C28.482,60.112 28.482,60.097 28.482,60.082 C28.451,60.082 28.421,60.082 28.391,60.082 C28.330,60.006 28.269,59.930 28.208,59.854 C28.178,59.854 28.148,59.854 28.117,59.854 C28.102,59.824 28.087,59.794 28.072,59.763 C28.057,59.763 28.041,59.763 28.026,59.763 C28.011,59.733 27.996,59.703 27.981,59.672 C27.950,59.672 27.920,59.672 27.890,59.672 C27.829,59.596 27.768,59.521 27.707,59.445 C27.677,59.445 27.647,59.445 27.616,59.445 C27.571,59.384 27.525,59.323 27.480,59.263 C27.449,59.263 27.419,59.263 27.388,59.263 C27.328,59.187 27.267,59.111 27.206,59.035 C27.176,59.035 27.146,59.035 27.115,59.035 C27.070,58.975 27.024,58.914 26.979,58.853 C26.948,58.853 26.918,58.853 26.887,58.853 C26.827,58.777 26.766,58.701 26.705,58.626 C26.675,58.626 26.645,58.626 26.614,58.626 C26.553,58.550 26.493,58.474 26.432,58.398 C26.402,58.398 26.371,58.398 26.341,58.398 C26.295,58.337 26.250,58.277 26.204,58.216 C26.174,58.216 26.143,58.216 26.113,58.216 C26.068,58.155 26.022,58.095 25.976,58.034 C25.925,58.072 25.970,58.028 25.931,58.080 C25.840,58.140 25.749,58.201 25.658,58.262 C25.642,58.292 25.627,58.322 25.612,58.353 C25.582,58.353 25.551,58.353 25.521,58.353 C25.460,58.428 25.399,58.504 25.339,58.580 C25.308,58.580 25.278,58.580 25.248,58.580 C25.202,58.641 25.157,58.701 25.111,58.762 C25.081,58.762 25.050,58.762 25.020,58.762 C24.959,58.838 24.898,58.914 24.838,58.990 C24.807,58.990 24.777,58.990 24.747,58.990 C24.701,59.050 24.655,59.111 24.610,59.172 C24.580,59.172 24.549,59.172 24.519,59.172 C24.458,59.248 24.397,59.323 24.337,59.399 C23.069,60.315 21.961,61.397 20.693,62.312 C20.632,62.387 20.571,62.463 20.510,62.539 C20.480,62.539 20.450,62.539 20.419,62.539 C20.374,62.600 20.328,62.661 20.283,62.721 C20.252,62.721 20.222,62.721 20.192,62.721 C20.131,62.797 20.070,62.873 20.009,62.949 C19.979,62.949 19.949,62.949 19.918,62.949 C19.873,63.009 19.827,63.070 19.782,63.131 C19.751,63.131 19.721,63.131 19.691,63.131 C19.615,63.222 19.539,63.313 19.463,63.404 C19.417,63.419 19.372,63.434 19.326,63.449 C19.311,63.480 19.296,63.510 19.281,63.540 C19.220,63.555 19.159,63.571 19.098,63.586 C19.083,63.616 19.068,63.647 19.053,63.677 C19.022,63.677 18.992,63.677 18.962,63.677 C18.962,63.692 18.962,63.707 18.962,63.722 C18.931,63.722 18.901,63.722 18.871,63.722 C18.871,63.738 18.871,63.753 18.871,63.768 C18.825,63.768 18.779,63.768 18.734,63.768 C18.734,63.783 18.734,63.798 18.734,63.813 C18.704,63.813 18.673,63.813 18.643,63.813 C18.643,63.829 18.643,63.844 18.643,63.859 C18.385,63.920 18.127,63.980 17.868,64.041 C17.747,64.041 17.626,64.041 17.504,64.041 C17.504,64.026 17.504,64.011 17.504,63.995 C17.413,63.995 17.322,63.995 17.231,63.995 C17.231,63.980 17.231,63.965 17.231,63.950 C17.170,63.950 17.109,63.950 17.049,63.950 C17.049,63.935 17.049,63.920 17.049,63.904 C17.003,63.904 16.957,63.904 16.912,63.904 C16.912,63.889 16.912,63.874 16.912,63.859 C16.866,63.859 16.821,63.859 16.775,63.859 C16.775,63.844 16.775,63.829 16.775,63.813 C16.684,63.798 16.593,63.783 16.502,63.768 C16.502,63.753 16.502,63.738 16.502,63.722 C16.472,63.722 16.441,63.722 16.411,63.722 C16.411,63.707 16.411,63.692 16.411,63.677 C16.365,63.677 16.320,63.677 16.274,63.677 C16.274,63.662 16.274,63.647 16.274,63.631 C16.244,63.631 16.214,63.631 16.183,63.631 C16.183,63.616 16.183,63.601 16.183,63.586 C16.153,63.586 16.122,63.586 16.092,63.586 C16.077,63.556 16.062,63.525 16.046,63.495 C16.016,63.495 15.986,63.495 15.955,63.495 C15.940,63.464 15.925,63.434 15.910,63.404 C15.879,63.404 15.849,63.404 15.819,63.404 C15.788,63.358 15.758,63.313 15.728,63.267 C15.697,63.267 15.667,63.267 15.637,63.267 C15.621,63.237 15.606,63.207 15.591,63.176 C15.500,63.100 15.409,63.025 15.318,62.949 C15.318,62.918 15.318,62.888 15.318,62.858 C15.257,62.812 15.196,62.767 15.135,62.721 C15.014,62.479 14.893,62.236 14.771,61.993 C14.558,61.456 14.589,60.689 14.589,59.945 C14.589,58.823 14.589,57.700 14.589,56.578 C14.589,52.589 14.589,48.599 14.589,44.610 C12.949,44.610 11.309,44.610 9.669,44.610 C9.076,44.610 8.161,44.515 7.665,44.655 C7.544,44.655 7.422,44.655 7.301,44.655 C7.301,44.670 7.301,44.686 7.301,44.701 C7.225,44.701 7.149,44.701 7.073,44.701 C7.073,44.716 7.073,44.731 7.073,44.746 C6.997,44.746 6.921,44.746 6.845,44.746 C6.845,44.761 6.845,44.777 6.845,44.792 C6.800,44.792 6.754,44.792 6.709,44.792 C6.709,44.807 6.709,44.822 6.709,44.837 C6.648,44.837 6.587,44.837 6.526,44.837 C6.526,44.852 6.526,44.868 6.526,44.883 C6.496,44.883 6.466,44.883 6.435,44.883 C6.435,44.898 6.435,44.913 6.435,44.928 C6.344,44.943 6.253,44.959 6.162,44.974 C6.162,44.989 6.162,45.004 6.162,45.019 C6.071,45.050 5.980,45.080 5.889,45.110 C5.889,45.125 5.889,45.141 5.889,45.156 C5.858,45.156 5.828,45.156 5.798,45.156 C5.798,45.171 5.798,45.186 5.798,45.201 C5.737,45.216 5.676,45.232 5.615,45.247 C5.600,45.277 5.585,45.307 5.570,45.338 C5.540,45.338 5.509,45.338 5.479,45.338 C5.479,45.353 5.479,45.368 5.479,45.383 C5.433,45.398 5.388,45.414 5.342,45.429 C5.327,45.459 5.312,45.489 5.297,45.520 C5.266,45.520 5.236,45.520 5.206,45.520 C5.175,45.565 5.145,45.611 5.114,45.656 C5.084,45.656 5.054,45.656 5.023,45.656 C4.917,45.778 4.811,45.899 4.704,46.020 C4.583,46.127 4.462,46.233 4.340,46.339 C4.340,46.369 4.340,46.400 4.340,46.430 C4.295,46.460 4.249,46.491 4.203,46.521 C4.203,46.551 4.203,46.582 4.203,46.612 C4.173,46.627 4.143,46.642 4.112,46.657 C4.112,46.688 4.112,46.718 4.112,46.748 C4.082,46.764 4.052,46.779 4.021,46.794 C4.006,46.840 3.991,46.885 3.976,46.931 C3.960,46.931 3.945,46.931 3.930,46.931 C3.915,46.991 3.900,47.052 3.885,47.113 C3.869,47.113 3.854,47.113 3.839,47.113 C3.839,47.143 3.839,47.173 3.839,47.204 C3.824,47.204 3.809,47.204 3.793,47.204 C3.763,47.295 3.733,47.386 3.702,47.477 C3.687,47.477 3.672,47.477 3.657,47.477 C3.551,47.841 3.444,48.205 3.338,48.569 C3.338,48.675 3.338,48.781 3.338,48.887 C3.207,49.349 3.292,50.197 3.292,50.753 C3.292,52.300 3.292,53.848 3.292,55.395 C3.292,62.190 3.292,68.987 3.292,75.782 C3.292,79.391 3.292,83.002 3.292,86.612 C3.292,87.416 3.292,88.220 3.292,89.024 C3.292,89.839 3.274,90.612 3.475,91.208 C3.505,91.360 3.535,91.512 3.566,91.663 C4.106,92.914 4.969,93.843 6.208,94.394 C6.253,94.394 6.299,94.394 6.344,94.394 C6.344,94.409 6.344,94.424 6.344,94.439 C6.375,94.439 6.405,94.439 6.435,94.439 C6.435,94.454 6.435,94.469 6.435,94.485 C6.754,94.560 7.073,94.636 7.392,94.712 C7.544,94.712 7.696,94.712 7.847,94.712 C7.847,94.727 7.847,94.743 7.847,94.758 C8.682,94.758 9.518,94.758 10.353,94.758 C12.448,94.758 14.544,94.758 16.639,94.758 C23.850,94.758 31.064,94.758 38.275,94.758 C39.748,94.758 41.221,94.758 42.693,94.758 C43.514,94.758 44.361,94.780 44.971,94.576 C45.092,94.560 45.214,94.545 45.335,94.530 C46.878,93.927 47.873,92.929 48.433,91.345 C48.448,91.208 48.463,91.072 48.478,90.935 C48.727,90.127 48.615,88.858 48.615,87.841 C48.615,85.566 48.615,83.290 48.615,81.015 C48.615,73.279 48.615,65.542 48.615,57.807 C48.615,55.698 48.615,53.589 48.615,51.481 C48.615,50.677 48.615,49.873 48.615,49.069 C48.600,49.069 48.585,49.069 48.569,49.069 C48.554,48.842 48.539,48.614 48.524,48.387 C48.509,48.387 48.493,48.387 48.478,48.387 C48.478,48.326 48.478,48.265 48.478,48.205 C48.463,48.205 48.448,48.205 48.433,48.205 C48.433,48.144 48.433,48.083 48.433,48.023 C48.418,48.023 48.402,48.023 48.387,48.023 C48.387,47.977 48.387,47.932 48.387,47.886 C48.372,47.886 48.357,47.886 48.342,47.886 C48.342,47.841 48.342,47.795 48.342,47.750 C48.326,47.750 48.311,47.750 48.296,47.750 C48.296,47.704 48.296,47.659 48.296,47.613 C48.281,47.613 48.266,47.613 48.250,47.613 C48.235,47.552 48.220,47.492 48.205,47.431 C48.190,47.431 48.175,47.431 48.159,47.431 C48.159,47.386 48.159,47.340 48.159,47.295 C48.144,47.295 48.129,47.295 48.114,47.295 C48.114,47.264 48.114,47.234 48.114,47.204 C48.099,47.204 48.083,47.204 48.068,47.204 C48.068,47.173 48.068,47.143 48.068,47.113 C48.038,47.097 48.008,47.082 47.977,47.067 C47.962,47.006 47.947,46.946 47.932,46.885 C47.901,46.870 47.871,46.855 47.841,46.840 C47.825,46.779 47.810,46.718 47.795,46.657 C47.765,46.642 47.734,46.627 47.704,46.612 C47.689,46.566 47.674,46.521 47.658,46.475 C47.613,46.445 47.567,46.415 47.522,46.384 C47.522,46.354 47.522,46.324 47.522,46.293 C47.415,46.202 47.309,46.111 47.203,46.020 C47.112,45.914 47.021,45.808 46.930,45.702 C46.899,45.702 46.869,45.702 46.838,45.702 C46.808,45.656 46.778,45.611 46.747,45.565 C46.717,45.565 46.687,45.565 46.656,45.565 C46.626,45.520 46.596,45.474 46.565,45.429 C46.535,45.429 46.504,45.429 46.474,45.429 C46.459,45.398 46.444,45.368 46.428,45.338 C46.337,45.307 46.246,45.277 46.155,45.247 C46.140,45.216 46.125,45.186 46.110,45.156 C46.079,45.156 46.049,45.156 46.019,45.156 C46.019,45.141 46.019,45.125 46.019,45.110 C45.958,45.095 45.897,45.080 45.836,45.065 C45.836,45.050 45.836,45.034 45.836,45.019 C45.791,45.019 45.745,45.019 45.700,45.019 C45.700,45.004 45.700,44.989 45.700,44.974 C45.669,44.974 45.639,44.974 45.609,44.974 C45.609,44.959 45.609,44.943 45.609,44.928 C45.563,44.928 45.517,44.928 45.472,44.928 C45.472,44.913 45.472,44.898 45.472,44.883 C45.426,44.883 45.381,44.883 45.335,44.883 C45.335,44.868 45.335,44.852 45.335,44.837 C45.290,44.837 45.244,44.837 45.199,44.837 C45.199,44.822 45.199,44.807 45.199,44.792 C45.138,44.792 45.077,44.792 45.016,44.792 C45.016,44.777 45.016,44.761 45.016,44.746 C44.956,44.746 44.895,44.746 44.834,44.746 C44.834,44.731 44.834,44.716 44.834,44.701 C44.758,44.701 44.682,44.701 44.606,44.701 C44.606,44.686 44.606,44.670 44.606,44.655 C44.470,44.655 44.333,44.655 44.197,44.655 C43.710,44.519 42.820,44.610 42.238,44.610 C40.583,44.610 38.928,44.610 37.273,44.610 ZM63.191,49.479 C63.191,55.333 63.191,61.190 63.191,67.044 C63.221,67.044 63.252,67.044 63.282,67.044 C63.400,66.847 63.599,66.767 63.783,66.635 C63.844,66.559 63.905,66.483 63.965,66.407 C63.996,66.407 64.026,66.407 64.056,66.407 C64.102,66.347 64.148,66.286 64.193,66.225 C64.223,66.225 64.254,66.225 64.284,66.225 C64.345,66.149 64.406,66.074 64.466,65.998 C64.497,65.998 64.527,65.998 64.557,65.998 C64.603,65.937 64.649,65.876 64.694,65.816 C64.724,65.816 64.755,65.816 64.785,65.816 C64.846,65.740 64.907,65.664 64.967,65.588 C64.998,65.588 65.028,65.588 65.059,65.588 C65.104,65.527 65.150,65.467 65.195,65.406 C65.226,65.406 65.256,65.406 65.286,65.406 C65.347,65.330 65.408,65.254 65.468,65.179 C65.499,65.179 65.529,65.179 65.560,65.179 C65.575,65.148 65.590,65.118 65.605,65.088 C65.620,65.088 65.635,65.088 65.651,65.088 C65.666,65.057 65.681,65.027 65.696,64.997 C65.727,64.997 65.757,64.997 65.787,64.997 C65.848,64.921 65.909,64.845 65.970,64.769 C66.000,64.769 66.030,64.769 66.061,64.769 C66.076,64.739 66.091,64.708 66.106,64.678 C66.121,64.678 66.137,64.678 66.152,64.678 C66.167,64.648 66.182,64.617 66.197,64.587 C66.228,64.587 66.258,64.587 66.288,64.587 C66.349,64.511 66.410,64.435 66.471,64.359 C66.501,64.359 66.531,64.359 66.562,64.359 C66.577,64.329 66.592,64.299 66.607,64.268 C66.622,64.268 66.638,64.268 66.653,64.268 C66.668,64.238 66.683,64.208 66.698,64.177 C66.729,64.177 66.759,64.177 66.789,64.177 C66.850,64.102 66.911,64.026 66.972,63.950 C67.002,63.950 67.032,63.950 67.063,63.950 C67.078,63.920 67.093,63.889 67.108,63.859 C67.123,63.859 67.139,63.859 67.154,63.859 C67.169,63.829 67.184,63.798 67.199,63.768 C67.230,63.768 67.260,63.768 67.290,63.768 C67.351,63.692 67.412,63.616 67.473,63.540 C67.503,63.540 67.533,63.540 67.564,63.540 C67.609,63.480 67.655,63.419 67.700,63.358 C67.731,63.358 67.761,63.358 67.792,63.358 C67.852,63.282 67.913,63.207 67.974,63.131 C68.004,63.131 68.034,63.131 68.065,63.131 C68.110,63.070 68.156,63.009 68.201,62.949 C68.232,62.949 68.262,62.949 68.293,62.949 C68.353,62.873 68.414,62.797 68.475,62.721 C68.505,62.721 68.536,62.721 68.566,62.721 C68.581,62.691 68.596,62.661 68.611,62.630 C68.627,62.630 68.642,62.630 68.657,62.630 C68.672,62.600 68.687,62.570 68.703,62.539 C68.733,62.539 68.763,62.539 68.794,62.539 C68.854,62.463 68.915,62.387 68.976,62.312 C69.006,62.312 69.037,62.312 69.067,62.312 C69.112,62.251 69.158,62.190 69.204,62.130 C69.234,62.130 69.264,62.130 69.295,62.130 C69.355,62.054 69.416,61.978 69.477,61.902 C69.507,61.902 69.538,61.902 69.568,61.902 C69.614,61.841 69.659,61.781 69.705,61.720 C69.735,61.720 69.765,61.720 69.796,61.720 C69.811,61.690 69.826,61.659 69.841,61.629 C69.887,61.599 69.932,61.568 69.978,61.538 C69.978,61.523 69.978,61.508 69.978,61.493 C70.008,61.493 70.039,61.493 70.069,61.493 C70.069,61.477 70.069,61.462 70.069,61.447 C70.148,61.382 70.179,61.343 70.297,61.311 C70.297,61.280 70.297,61.250 70.297,61.220 C70.312,61.220 70.327,61.220 70.342,61.220 C70.418,61.129 70.494,61.037 70.570,60.946 C70.600,60.946 70.631,60.946 70.661,60.946 C70.798,60.789 71.251,60.740 71.481,60.810 C71.557,60.810 71.633,60.810 71.709,60.810 C71.709,60.825 71.709,60.840 71.709,60.855 C71.754,60.855 71.800,60.855 71.846,60.855 C71.846,60.871 71.846,60.886 71.846,60.901 C71.891,60.901 71.937,60.901 71.982,60.901 C71.982,60.916 71.982,60.931 71.982,60.946 C72.013,60.946 72.043,60.946 72.073,60.946 C72.073,60.962 72.073,60.977 72.073,60.992 C72.104,60.992 72.134,60.992 72.164,60.992 C72.195,61.037 72.225,61.083 72.255,61.128 C72.286,61.128 72.316,61.128 72.347,61.128 C72.392,61.189 72.438,61.250 72.483,61.311 C72.514,61.311 72.544,61.311 72.574,61.311 C72.635,61.386 72.696,61.462 72.757,61.538 C72.787,61.538 72.817,61.538 72.848,61.538 C72.893,61.599 72.939,61.659 72.984,61.720 C73.015,61.720 73.045,61.720 73.075,61.720 C73.136,61.796 73.197,61.872 73.258,61.948 C73.288,61.948 73.318,61.948 73.349,61.948 C73.394,62.008 73.440,62.069 73.485,62.130 C73.516,62.130 73.546,62.130 73.576,62.130 C73.637,62.205 73.698,62.281 73.759,62.357 C73.789,62.357 73.819,62.357 73.850,62.357 C73.895,62.418 73.941,62.479 73.986,62.539 C74.017,62.539 74.047,62.539 74.077,62.539 C74.138,62.615 74.199,62.691 74.260,62.767 C74.290,62.767 74.320,62.767 74.351,62.767 C74.396,62.827 74.442,62.888 74.487,62.949 C74.518,62.949 74.548,62.949 74.579,62.949 C74.639,63.025 74.700,63.100 74.761,63.176 C75.742,63.884 76.603,64.699 77.585,65.406 C77.646,65.482 77.706,65.558 77.767,65.634 C77.797,65.634 77.828,65.634 77.858,65.634 C77.904,65.694 77.949,65.755 77.995,65.816 C78.025,65.816 78.056,65.816 78.086,65.816 C78.147,65.891 78.207,65.967 78.268,66.043 C78.298,66.043 78.329,66.043 78.359,66.043 C78.405,66.104 78.450,66.165 78.496,66.225 C78.526,66.225 78.557,66.225 78.587,66.225 C78.648,66.301 78.708,66.377 78.769,66.453 C78.800,66.453 78.830,66.453 78.860,66.453 C78.875,66.483 78.891,66.513 78.906,66.544 C78.921,66.544 78.936,66.544 78.951,66.544 C78.967,66.574 78.982,66.604 78.997,66.635 C79.027,66.635 79.058,66.635 79.088,66.635 C79.206,66.719 79.164,66.807 79.361,66.862 C79.361,61.068 79.361,55.273 79.361,49.479 C73.972,49.479 68.581,49.479 63.191,49.479 ZM82.641,51.072 C82.641,55.197 82.641,59.324 82.641,63.449 C82.641,64.466 82.641,65.482 82.641,66.498 C82.641,67.128 82.658,67.726 82.504,68.182 C82.489,68.288 82.474,68.394 82.459,68.501 C82.444,68.501 82.428,68.501 82.413,68.501 C82.398,68.561 82.383,68.622 82.368,68.683 C82.352,68.683 82.337,68.683 82.322,68.683 C82.322,68.728 82.322,68.774 82.322,68.819 C82.292,68.834 82.261,68.849 82.231,68.865 C82.216,68.925 82.201,68.986 82.185,69.047 C82.170,69.047 82.155,69.047 82.140,69.047 C82.125,69.092 82.109,69.138 82.094,69.183 C82.064,69.198 82.034,69.213 82.003,69.229 C82.003,69.259 82.003,69.289 82.003,69.320 C81.927,69.380 81.851,69.441 81.775,69.502 C81.700,69.593 81.624,69.684 81.548,69.775 C81.061,70.123 80.468,70.316 79.817,70.503 C79.544,70.581 79.171,70.468 78.997,70.412 C78.936,70.412 78.875,70.412 78.815,70.412 C78.815,70.397 78.815,70.381 78.815,70.366 C78.769,70.366 78.724,70.366 78.678,70.366 C78.678,70.351 78.678,70.336 78.678,70.321 C78.632,70.321 78.587,70.321 78.541,70.321 C78.541,70.306 78.541,70.290 78.541,70.275 C78.496,70.275 78.450,70.275 78.405,70.275 C78.405,70.260 78.405,70.245 78.405,70.230 C78.359,70.230 78.314,70.230 78.268,70.230 C78.268,70.215 78.268,70.199 78.268,70.184 C78.177,70.154 78.086,70.124 77.995,70.093 C77.995,70.078 77.995,70.063 77.995,70.048 C77.964,70.048 77.934,70.048 77.904,70.048 C77.904,70.033 77.904,70.017 77.904,70.002 C77.843,69.987 77.782,69.972 77.721,69.957 C77.706,69.926 77.691,69.896 77.676,69.866 C77.646,69.866 77.615,69.866 77.585,69.866 C77.539,69.805 77.494,69.744 77.448,69.684 C77.418,69.684 77.387,69.684 77.357,69.684 C77.281,69.593 77.205,69.502 77.129,69.411 C77.099,69.411 77.069,69.411 77.038,69.411 C76.978,69.335 76.917,69.259 76.856,69.183 C76.826,69.183 76.795,69.183 76.765,69.183 C76.689,69.092 76.613,69.001 76.537,68.910 C76.507,68.910 76.476,68.910 76.446,68.910 C76.385,68.834 76.325,68.758 76.264,68.683 C76.234,68.683 76.203,68.683 76.173,68.683 C76.097,68.592 76.021,68.501 75.945,68.410 C75.915,68.410 75.884,68.410 75.854,68.410 C75.824,68.364 75.793,68.318 75.763,68.273 C75.748,68.273 75.732,68.273 75.717,68.273 C75.702,68.243 75.687,68.212 75.672,68.182 C75.641,68.182 75.611,68.182 75.581,68.182 C75.505,68.091 75.429,68.000 75.353,67.909 C74.488,67.284 73.758,66.530 72.893,65.907 C72.832,65.831 72.772,65.755 72.711,65.679 C72.681,65.679 72.650,65.679 72.620,65.679 C72.544,65.588 72.468,65.497 72.392,65.406 C72.362,65.406 72.331,65.406 72.301,65.406 C72.240,65.330 72.180,65.254 72.119,65.179 C72.088,65.179 72.058,65.179 72.028,65.179 C71.952,65.088 71.876,64.997 71.800,64.906 C71.770,64.906 71.739,64.906 71.709,64.906 C71.694,64.875 71.678,64.845 71.663,64.815 C71.618,64.784 71.572,64.754 71.527,64.723 C71.527,64.708 71.527,64.693 71.527,64.678 C71.496,64.678 71.466,64.678 71.436,64.678 C71.405,64.632 71.375,64.587 71.344,64.541 C71.299,64.541 71.253,64.541 71.208,64.541 C71.162,64.602 71.117,64.663 71.071,64.723 C71.041,64.723 71.010,64.723 70.980,64.723 C70.919,64.799 70.859,64.875 70.798,64.951 C70.767,64.951 70.737,64.951 70.707,64.951 C70.646,65.027 70.585,65.103 70.525,65.179 C70.494,65.179 70.464,65.179 70.433,65.179 C70.418,65.209 70.403,65.239 70.388,65.270 C70.373,65.270 70.358,65.270 70.342,65.270 C70.327,65.300 70.312,65.330 70.297,65.361 C70.266,65.361 70.236,65.361 70.206,65.361 C70.145,65.436 70.084,65.512 70.024,65.588 C69.993,65.588 69.963,65.588 69.932,65.588 C69.887,65.649 69.841,65.709 69.796,65.770 C69.765,65.770 69.735,65.770 69.705,65.770 C69.644,65.846 69.583,65.922 69.522,65.998 C69.492,65.998 69.462,65.998 69.431,65.998 C69.386,66.058 69.340,66.119 69.295,66.180 C69.264,66.180 69.234,66.180 69.204,66.180 C69.188,66.210 69.173,66.240 69.158,66.271 C69.113,66.301 69.067,66.331 69.021,66.362 C69.021,66.377 69.021,66.392 69.021,66.407 C68.991,66.407 68.961,66.407 68.930,66.407 C68.870,66.483 68.809,66.559 68.748,66.635 C67.670,67.412 66.729,68.316 65.651,69.092 C65.590,69.168 65.529,69.244 65.468,69.320 C65.438,69.320 65.408,69.320 65.377,69.320 C65.317,69.395 65.256,69.471 65.195,69.547 C65.165,69.547 65.134,69.547 65.104,69.547 C65.059,69.608 65.013,69.669 64.967,69.729 C64.937,69.729 64.907,69.729 64.876,69.729 C64.846,69.775 64.816,69.820 64.785,69.866 C64.755,69.866 64.724,69.866 64.694,69.866 C64.679,69.896 64.664,69.926 64.649,69.957 C64.618,69.957 64.588,69.957 64.557,69.957 C64.542,69.987 64.527,70.017 64.512,70.048 C64.451,70.063 64.390,70.078 64.330,70.093 C64.330,70.108 64.330,70.124 64.330,70.139 C64.269,70.154 64.208,70.169 64.148,70.184 C64.148,70.199 64.148,70.215 64.148,70.230 C64.102,70.230 64.056,70.230 64.011,70.230 C64.011,70.245 64.011,70.260 64.011,70.275 C63.981,70.275 63.950,70.275 63.920,70.275 C63.920,70.290 63.920,70.306 63.920,70.321 C63.859,70.321 63.798,70.321 63.738,70.321 C63.255,70.484 62.722,70.503 62.234,70.321 C62.189,70.321 62.143,70.321 62.098,70.321 C62.098,70.306 62.098,70.290 62.098,70.275 C62.052,70.275 62.007,70.275 61.961,70.275 C61.961,70.260 61.961,70.245 61.961,70.230 C61.916,70.230 61.870,70.230 61.824,70.230 C61.824,70.215 61.824,70.199 61.824,70.184 C61.779,70.184 61.733,70.184 61.688,70.184 C61.688,70.169 61.688,70.154 61.688,70.139 C61.627,70.124 61.566,70.108 61.506,70.093 C61.506,70.078 61.506,70.063 61.506,70.048 C61.475,70.048 61.445,70.048 61.415,70.048 C61.399,70.017 61.384,69.987 61.369,69.957 C61.339,69.957 61.308,69.957 61.278,69.957 C61.263,69.926 61.247,69.896 61.232,69.866 C61.202,69.866 61.172,69.866 61.141,69.866 C61.096,69.805 61.050,69.744 61.005,69.684 C60.974,69.684 60.944,69.684 60.913,69.684 C60.898,69.653 60.883,69.623 60.868,69.593 C60.807,69.547 60.746,69.502 60.686,69.456 C60.686,69.426 60.686,69.395 60.686,69.365 C60.625,69.320 60.564,69.274 60.504,69.229 C60.504,69.198 60.504,69.168 60.504,69.138 C60.473,69.122 60.443,69.107 60.412,69.092 C60.397,69.031 60.382,68.971 60.367,68.910 C60.336,68.895 60.306,68.880 60.276,68.865 C60.276,68.834 60.276,68.804 60.276,68.774 C60.261,68.774 60.245,68.774 60.230,68.774 C60.230,68.728 60.230,68.683 60.230,68.637 C60.215,68.637 60.200,68.637 60.185,68.637 C60.185,68.607 60.185,68.576 60.185,68.546 C60.169,68.546 60.154,68.546 60.139,68.546 C60.139,68.501 60.139,68.455 60.139,68.410 C60.124,68.410 60.109,68.410 60.094,68.410 C60.094,68.364 60.094,68.318 60.094,68.273 C60.078,68.273 60.063,68.273 60.048,68.273 C60.048,68.212 60.048,68.152 60.048,68.091 C60.033,68.091 60.018,68.091 60.002,68.091 C60.002,68.015 60.002,67.939 60.002,67.863 C59.987,67.863 59.972,67.863 59.957,67.863 C59.957,67.408 59.957,66.953 59.957,66.498 C59.957,65.437 59.957,64.375 59.957,63.313 C59.957,59.233 59.957,55.152 59.957,51.072 C59.183,51.072 58.408,51.072 57.634,51.072 C57.241,51.072 56.720,51.028 56.404,51.117 C56.161,51.132 55.918,51.147 55.675,51.163 C55.675,51.178 55.675,51.193 55.675,51.208 C55.554,51.223 55.432,51.238 55.311,51.254 C55.311,51.269 55.311,51.284 55.311,51.299 C55.265,51.299 55.220,51.299 55.174,51.299 C55.174,51.314 55.174,51.329 55.174,51.345 C55.129,51.345 55.083,51.345 55.037,51.345 C55.037,51.360 55.037,51.375 55.037,51.390 C54.992,51.390 54.946,51.390 54.901,51.390 C54.901,51.405 54.901,51.420 54.901,51.436 C54.855,51.436 54.810,51.436 54.764,51.436 C54.764,51.451 54.764,51.466 54.764,51.481 C54.673,51.511 54.582,51.542 54.491,51.572 C54.491,51.587 54.491,51.603 54.491,51.618 C54.461,51.618 54.430,51.618 54.400,51.618 C54.400,51.633 54.400,51.648 54.400,51.663 C54.339,51.678 54.278,51.694 54.218,51.709 C54.202,51.739 54.187,51.769 54.172,51.800 C54.111,51.815 54.051,51.830 53.990,51.845 C53.975,51.876 53.959,51.906 53.944,51.936 C53.914,51.936 53.884,51.936 53.853,51.936 C53.823,51.982 53.792,52.027 53.762,52.073 C53.732,52.073 53.701,52.073 53.671,52.073 C53.610,52.149 53.549,52.224 53.489,52.300 C53.458,52.300 53.428,52.300 53.398,52.300 C53.322,52.391 53.246,52.482 53.170,52.573 C53.140,52.588 53.109,52.604 53.079,52.619 C53.079,52.649 53.079,52.679 53.079,52.710 C53.003,52.770 52.927,52.831 52.851,52.892 C52.851,52.922 52.851,52.953 52.851,52.983 C52.836,52.983 52.821,52.983 52.806,52.983 C52.790,53.028 52.775,53.074 52.760,53.119 C52.714,53.150 52.669,53.180 52.623,53.210 C52.608,53.271 52.593,53.332 52.578,53.392 C52.547,53.408 52.517,53.423 52.487,53.438 C52.471,53.499 52.456,53.559 52.441,53.620 C52.426,53.620 52.411,53.620 52.396,53.620 C52.365,53.711 52.335,53.802 52.304,53.893 C52.289,53.893 52.274,53.893 52.259,53.893 C52.259,53.938 52.259,53.984 52.259,54.030 C52.244,54.030 52.229,54.030 52.213,54.030 C52.213,54.060 52.213,54.090 52.213,54.121 C52.198,54.121 52.183,54.121 52.168,54.121 C52.168,54.166 52.168,54.212 52.168,54.257 C52.153,54.257 52.137,54.257 52.122,54.257 C52.122,54.303 52.122,54.348 52.122,54.394 C52.107,54.394 52.092,54.394 52.077,54.394 C52.077,54.439 52.077,54.485 52.077,54.530 C52.062,54.530 52.046,54.530 52.031,54.530 C52.031,54.591 52.031,54.651 52.031,54.712 C52.016,54.712 52.001,54.712 51.986,54.712 C51.970,54.864 51.955,55.015 51.940,55.167 C51.925,55.167 51.910,55.167 51.895,55.167 C51.879,55.819 51.864,56.472 51.849,57.124 C51.849,58.489 51.849,59.854 51.849,61.220 C51.849,67.332 51.849,73.446 51.849,79.559 C51.849,82.228 51.849,84.898 51.849,87.568 C51.849,88.909 51.740,90.462 52.122,91.436 C52.137,91.527 52.153,91.618 52.168,91.709 C52.183,91.709 52.198,91.709 52.213,91.709 C52.213,91.739 52.213,91.769 52.213,91.800 C52.229,91.800 52.244,91.800 52.259,91.800 C52.259,91.845 52.259,91.891 52.259,91.936 C52.274,91.936 52.289,91.936 52.304,91.936 C52.335,92.027 52.365,92.118 52.396,92.209 C52.411,92.209 52.426,92.209 52.441,92.209 C52.456,92.270 52.471,92.331 52.487,92.391 C52.517,92.407 52.547,92.422 52.578,92.437 C52.578,92.467 52.578,92.498 52.578,92.528 C52.608,92.543 52.639,92.558 52.669,92.573 C52.669,92.604 52.669,92.634 52.669,92.664 C52.699,92.680 52.730,92.695 52.760,92.710 C52.760,92.740 52.760,92.771 52.760,92.801 C52.790,92.816 52.821,92.831 52.851,92.846 C52.851,92.877 52.851,92.907 52.851,92.937 C52.942,93.013 53.033,93.089 53.124,93.165 C53.124,93.195 53.124,93.226 53.124,93.256 C53.155,93.271 53.185,93.286 53.215,93.301 C53.261,93.362 53.307,93.423 53.352,93.483 C53.382,93.483 53.413,93.483 53.443,93.483 C53.519,93.575 53.595,93.666 53.671,93.757 C53.701,93.757 53.732,93.757 53.762,93.757 C53.777,93.787 53.792,93.817 53.808,93.848 C53.853,93.863 53.899,93.878 53.944,93.893 C53.944,93.908 53.944,93.923 53.944,93.939 C53.975,93.939 54.005,93.939 54.035,93.939 C54.051,93.969 54.066,93.999 54.081,94.030 C54.111,94.030 54.142,94.030 54.172,94.030 C54.187,94.060 54.202,94.090 54.218,94.121 C54.278,94.136 54.339,94.151 54.400,94.166 C54.400,94.181 54.400,94.196 54.400,94.212 C54.491,94.242 54.582,94.272 54.673,94.303 C54.673,94.318 54.673,94.333 54.673,94.348 C54.719,94.348 54.764,94.348 54.810,94.348 C54.810,94.363 54.810,94.378 54.810,94.394 C54.840,94.394 54.870,94.394 54.901,94.394 C54.901,94.409 54.901,94.424 54.901,94.439 C54.946,94.439 54.992,94.439 55.037,94.439 C55.037,94.454 55.037,94.469 55.037,94.485 C55.083,94.485 55.129,94.485 55.174,94.485 C55.174,94.500 55.174,94.515 55.174,94.530 C55.220,94.530 55.265,94.530 55.311,94.530 C55.311,94.545 55.311,94.560 55.311,94.576 C55.372,94.576 55.432,94.576 55.493,94.576 C55.493,94.591 55.493,94.606 55.493,94.621 C55.554,94.621 55.614,94.621 55.675,94.621 C55.675,94.636 55.675,94.651 55.675,94.667 C55.766,94.667 55.857,94.667 55.948,94.667 C55.948,94.682 55.948,94.697 55.948,94.712 C56.115,94.712 56.283,94.712 56.450,94.712 C56.450,94.727 56.450,94.743 56.450,94.758 C57.178,94.758 57.907,94.758 58.636,94.758 C60.549,94.758 62.462,94.758 64.375,94.758 C69.628,94.758 74.883,94.758 80.136,94.758 C81.639,94.758 83.142,94.758 84.645,94.758 C85.598,94.758 86.552,94.774 87.241,94.530 C87.302,94.530 87.363,94.530 87.424,94.530 C87.758,94.378 88.092,94.227 88.426,94.075 C88.441,94.045 88.456,94.014 88.471,93.984 C88.532,93.969 88.593,93.954 88.654,93.939 C88.669,93.908 88.684,93.878 88.699,93.848 C88.745,93.832 88.790,93.817 88.836,93.802 C88.866,93.757 88.896,93.711 88.927,93.666 C88.957,93.666 88.988,93.666 89.018,93.666 C89.124,93.544 89.231,93.423 89.337,93.301 C89.428,93.226 89.519,93.150 89.610,93.074 C89.610,93.044 89.610,93.013 89.610,92.983 C89.671,92.937 89.732,92.892 89.792,92.846 C89.792,92.816 89.792,92.786 89.792,92.755 C89.823,92.740 89.853,92.725 89.883,92.710 C89.899,92.664 89.914,92.619 89.929,92.573 C89.944,92.573 89.959,92.573 89.974,92.573 C89.990,92.513 90.005,92.452 90.020,92.391 C90.050,92.376 90.081,92.361 90.111,92.346 C90.126,92.285 90.142,92.224 90.157,92.164 C90.172,92.164 90.187,92.164 90.202,92.164 C90.233,92.073 90.263,91.982 90.293,91.891 C90.309,91.891 90.324,91.891 90.339,91.891 C90.339,91.845 90.339,91.800 90.339,91.754 C90.354,91.754 90.369,91.754 90.384,91.754 C90.384,91.724 90.384,91.694 90.384,91.663 C90.400,91.663 90.415,91.663 90.430,91.663 C90.430,91.618 90.430,91.572 90.430,91.527 C90.445,91.527 90.460,91.527 90.476,91.527 C90.476,91.481 90.476,91.436 90.476,91.390 C90.491,91.390 90.506,91.390 90.521,91.390 C90.521,91.330 90.521,91.269 90.521,91.208 C90.536,91.208 90.551,91.208 90.567,91.208 C90.567,91.148 90.567,91.087 90.567,91.026 C90.582,91.026 90.597,91.026 90.612,91.026 C90.627,90.829 90.643,90.632 90.658,90.435 C90.673,90.435 90.688,90.435 90.703,90.435 C90.703,89.676 90.703,88.918 90.703,88.159 C90.703,86.203 90.703,84.246 90.703,82.289 C90.703,75.797 90.703,69.304 90.703,62.812 C90.703,61.053 90.703,59.293 90.703,57.533 C90.703,56.932 90.797,55.886 90.658,55.395 C90.658,55.273 90.658,55.152 90.658,55.031 C90.551,54.667 90.445,54.303 90.339,53.938 C90.324,53.938 90.309,53.938 90.293,53.938 C90.263,53.847 90.233,53.756 90.202,53.665 C90.187,53.665 90.172,53.665 90.157,53.665 C90.142,53.605 90.126,53.544 90.111,53.483 C90.081,53.468 90.050,53.453 90.020,53.438 C90.005,53.377 89.990,53.317 89.974,53.256 C89.959,53.256 89.944,53.256 89.929,53.256 C89.914,53.210 89.899,53.165 89.883,53.119 C89.853,53.104 89.823,53.089 89.792,53.074 C89.792,53.044 89.792,53.013 89.792,52.983 C89.732,52.937 89.671,52.892 89.610,52.846 C89.610,52.816 89.610,52.786 89.610,52.755 C89.504,52.664 89.398,52.573 89.291,52.482 C89.200,52.376 89.109,52.270 89.018,52.164 C88.988,52.164 88.957,52.164 88.927,52.164 C88.896,52.118 88.866,52.073 88.836,52.027 C88.805,52.027 88.775,52.027 88.745,52.027 C88.714,51.982 88.684,51.936 88.654,51.891 C88.623,51.891 88.593,51.891 88.562,51.891 C88.547,51.860 88.532,51.830 88.517,51.800 C88.426,51.769 88.335,51.739 88.244,51.709 C88.228,51.678 88.213,51.648 88.198,51.618 C88.168,51.618 88.137,51.618 88.107,51.618 C88.107,51.603 88.107,51.587 88.107,51.572 C88.077,51.572 88.046,51.572 88.016,51.572 C88.016,51.557 88.016,51.542 88.016,51.527 C87.970,51.527 87.925,51.527 87.879,51.527 C87.879,51.511 87.879,51.496 87.879,51.481 C87.818,51.466 87.758,51.451 87.697,51.436 C87.697,51.420 87.697,51.405 87.697,51.390 C87.651,51.390 87.606,51.390 87.560,51.390 C87.560,51.375 87.560,51.360 87.560,51.345 C87.515,51.345 87.469,51.345 87.424,51.345 C87.424,51.329 87.424,51.314 87.424,51.299 C87.378,51.299 87.333,51.299 87.287,51.299 C87.287,51.284 87.287,51.269 87.287,51.254 C87.226,51.254 87.166,51.254 87.105,51.254 C87.105,51.238 87.105,51.223 87.105,51.208 C86.953,51.193 86.801,51.178 86.649,51.163 C86.649,51.147 86.649,51.132 86.649,51.117 C86.194,51.102 85.738,51.087 85.283,51.072 C84.402,51.072 83.521,51.072 82.641,51.072 Z"/>
<path fill-rule="evenodd"  fill="rgb(255, 196, 0)"
 d="M57.470,24.326 C57.440,24.326 57.409,24.326 57.379,24.326 C57.303,24.417 57.227,24.508 57.151,24.599 C57.121,24.599 57.091,24.599 57.060,24.599 C57.045,24.629 57.030,24.660 57.015,24.690 C56.984,24.690 56.954,24.690 56.924,24.690 C56.909,24.720 56.893,24.751 56.878,24.781 C56.817,24.796 56.757,24.811 56.696,24.827 C56.696,24.842 56.696,24.857 56.696,24.872 C56.635,24.887 56.575,24.902 56.514,24.917 C56.514,24.933 56.514,24.948 56.514,24.963 C56.469,24.963 56.423,24.963 56.377,24.963 C56.377,24.978 56.377,24.993 56.377,25.008 C56.332,25.008 56.286,25.008 56.241,25.008 C56.241,25.024 56.241,25.039 56.241,25.054 C56.195,25.054 56.150,25.054 56.104,25.054 C56.104,25.069 56.104,25.084 56.104,25.099 C56.059,25.099 56.013,25.099 55.968,25.099 C55.968,25.114 55.968,25.130 55.968,25.145 C55.922,25.145 55.877,25.145 55.831,25.145 C55.831,25.160 55.831,25.175 55.831,25.190 C55.771,25.190 55.710,25.190 55.649,25.190 C55.649,25.205 55.649,25.221 55.649,25.236 C55.543,25.236 55.437,25.236 55.331,25.236 C54.849,25.237 54.493,25.192 54.147,25.054 C54.147,25.039 54.147,25.024 54.147,25.008 C54.102,25.008 54.056,25.008 54.011,25.008 C54.011,24.993 54.011,24.978 54.011,24.963 C53.980,24.963 53.950,24.963 53.919,24.963 C53.919,24.948 53.919,24.933 53.919,24.917 C53.874,24.917 53.828,24.917 53.783,24.917 C53.783,24.902 53.783,24.887 53.783,24.872 C53.722,24.857 53.662,24.842 53.601,24.827 C53.601,24.811 53.601,24.796 53.601,24.781 C53.571,24.781 53.540,24.781 53.510,24.781 C53.495,24.751 53.479,24.720 53.464,24.690 C53.404,24.675 53.343,24.660 53.282,24.645 C53.222,24.569 53.161,24.493 53.100,24.417 C53.070,24.417 53.039,24.417 53.009,24.417 C52.933,24.326 52.857,24.235 52.782,24.145 C52.751,24.145 52.721,24.145 52.691,24.145 C52.630,24.069 52.569,23.993 52.508,23.917 C52.478,23.917 52.448,23.917 52.417,23.917 C52.342,23.826 52.266,23.735 52.190,23.644 C52.159,23.644 52.129,23.644 52.099,23.644 C52.068,23.599 52.038,23.554 52.008,23.508 C51.993,23.508 51.977,23.508 51.962,23.508 C51.947,23.478 51.932,23.447 51.917,23.417 C51.886,23.417 51.856,23.417 51.826,23.417 C51.750,23.326 51.674,23.235 51.598,23.144 C50.847,22.601 50.210,21.959 49.459,21.417 C49.383,21.326 49.307,21.235 49.231,21.144 C49.201,21.144 49.170,21.144 49.140,21.144 C49.125,21.114 49.110,21.083 49.095,21.053 C49.079,21.053 49.064,21.053 49.049,21.053 C49.019,21.008 48.988,20.962 48.958,20.917 C48.928,20.917 48.897,20.917 48.867,20.917 C48.791,20.826 48.715,20.735 48.639,20.644 C48.609,20.644 48.579,20.644 48.548,20.644 C48.488,20.568 48.427,20.492 48.366,20.417 C48.336,20.417 48.306,20.417 48.275,20.417 C48.199,20.326 48.124,20.235 48.048,20.144 C48.017,20.144 47.987,20.144 47.957,20.144 C47.896,20.068 47.835,19.992 47.775,19.917 C47.744,19.917 47.714,19.917 47.684,19.917 C47.608,19.826 47.532,19.735 47.456,19.644 C47.426,19.644 47.395,19.644 47.365,19.644 C47.304,19.568 47.243,19.492 47.183,19.416 C47.152,19.416 47.122,19.416 47.092,19.416 C47.061,19.371 47.031,19.326 47.001,19.280 C46.986,19.280 46.970,19.280 46.955,19.280 C46.955,19.295 46.955,19.310 46.955,19.326 C46.849,19.374 46.762,19.433 46.682,19.507 C46.667,19.538 46.652,19.568 46.637,19.598 C46.606,19.598 46.576,19.598 46.546,19.598 C46.500,19.659 46.455,19.720 46.409,19.780 C46.379,19.780 46.348,19.780 46.318,19.780 C46.257,19.856 46.197,19.932 46.136,20.008 C46.106,20.008 46.075,20.008 46.045,20.008 C45.999,20.068 45.954,20.129 45.908,20.189 C45.878,20.189 45.848,20.189 45.817,20.189 C45.757,20.265 45.696,20.341 45.635,20.417 C45.605,20.417 45.574,20.417 45.544,20.417 C45.483,20.492 45.423,20.568 45.362,20.644 C45.332,20.644 45.301,20.644 45.271,20.644 C45.226,20.705 45.180,20.765 45.134,20.826 C45.104,20.826 45.074,20.826 45.043,20.826 C44.983,20.902 44.922,20.977 44.861,21.053 C44.831,21.053 44.801,21.053 44.770,21.053 C44.725,21.114 44.679,21.174 44.634,21.235 C44.603,21.235 44.573,21.235 44.543,21.235 C44.482,21.311 44.421,21.387 44.361,21.462 C44.330,21.462 44.300,21.462 44.270,21.462 C44.224,21.523 44.179,21.584 44.133,21.644 C44.103,21.644 44.072,21.644 44.042,21.644 C43.981,21.720 43.921,21.796 43.860,21.871 C43.830,21.871 43.799,21.871 43.769,21.871 C43.708,21.947 43.648,22.023 43.587,22.099 C43.557,22.099 43.526,22.099 43.496,22.099 C43.481,22.129 43.465,22.159 43.450,22.190 C43.435,22.190 43.420,22.190 43.405,22.190 C43.390,22.220 43.374,22.250 43.359,22.281 C43.329,22.281 43.299,22.281 43.268,22.281 C43.208,22.356 43.147,22.432 43.086,22.508 C43.056,22.508 43.025,22.508 42.995,22.508 C42.980,22.538 42.965,22.569 42.950,22.599 C42.934,22.599 42.919,22.599 42.904,22.599 C42.889,22.629 42.874,22.659 42.859,22.690 C42.828,22.690 42.798,22.690 42.768,22.690 C42.707,22.766 42.646,22.841 42.585,22.917 C42.555,22.917 42.525,22.917 42.494,22.917 C42.479,22.947 42.464,22.978 42.449,23.008 C42.434,23.008 42.419,23.008 42.403,23.008 C42.388,23.038 42.373,23.069 42.358,23.099 C42.328,23.099 42.297,23.099 42.267,23.099 C42.206,23.175 42.145,23.250 42.085,23.326 C42.054,23.326 42.024,23.326 41.994,23.326 C41.933,23.402 41.872,23.478 41.812,23.554 C41.781,23.554 41.751,23.554 41.721,23.554 C41.675,23.614 41.630,23.675 41.584,23.735 C41.554,23.735 41.523,23.735 41.493,23.735 C41.432,23.811 41.372,23.887 41.311,23.963 C41.281,23.963 41.250,23.963 41.220,23.963 C41.174,24.023 41.129,24.084 41.083,24.145 C41.053,24.145 41.023,24.145 40.992,24.145 C40.932,24.220 40.871,24.296 40.810,24.372 C40.780,24.372 40.750,24.372 40.719,24.372 C40.674,24.432 40.628,24.493 40.583,24.554 C40.552,24.554 40.522,24.554 40.492,24.554 C40.461,24.599 40.431,24.645 40.401,24.690 C40.340,24.705 40.279,24.720 40.219,24.736 C40.203,24.766 40.188,24.796 40.173,24.827 C40.143,24.827 40.112,24.827 40.082,24.827 C40.082,24.842 40.082,24.857 40.082,24.872 C39.991,24.902 39.900,24.933 39.809,24.963 C39.809,24.978 39.809,24.993 39.809,25.008 C39.672,25.039 39.536,25.069 39.399,25.099 C39.399,25.114 39.399,25.130 39.399,25.145 C39.323,25.145 39.247,25.145 39.172,25.145 C39.027,25.188 38.424,25.251 38.216,25.190 C38.216,25.175 38.216,25.160 38.216,25.145 C38.140,25.145 38.064,25.145 37.988,25.145 C37.988,25.130 37.988,25.114 37.988,25.099 C37.882,25.084 37.776,25.069 37.670,25.054 C37.670,25.039 37.670,25.024 37.670,25.008 C37.594,24.993 37.518,24.978 37.442,24.963 C37.442,24.948 37.442,24.933 37.442,24.917 C37.381,24.902 37.321,24.887 37.260,24.872 C37.260,24.857 37.260,24.842 37.260,24.827 C37.199,24.811 37.138,24.796 37.078,24.781 C37.063,24.751 37.047,24.720 37.032,24.690 C37.002,24.690 36.972,24.690 36.941,24.690 C36.926,24.660 36.911,24.629 36.896,24.599 C36.865,24.599 36.835,24.599 36.805,24.599 C36.805,24.584 36.805,24.569 36.805,24.554 C36.700,24.467 36.636,24.368 36.486,24.326 C36.486,24.296 36.486,24.266 36.486,24.235 C36.260,24.102 36.215,23.908 36.076,23.690 C36.046,23.675 36.016,23.660 35.985,23.644 C35.985,23.614 35.985,23.584 35.985,23.554 C35.970,23.554 35.955,23.554 35.940,23.554 C35.940,23.523 35.940,23.493 35.940,23.463 C35.925,23.463 35.909,23.463 35.894,23.463 C35.894,23.417 35.894,23.372 35.894,23.326 C35.879,23.326 35.864,23.326 35.849,23.326 C35.849,23.296 35.849,23.266 35.849,23.235 C35.834,23.235 35.818,23.235 35.803,23.235 C35.803,23.190 35.803,23.144 35.803,23.099 C35.788,23.099 35.773,23.099 35.758,23.099 C35.758,23.038 35.758,22.978 35.758,22.917 C35.743,22.917 35.727,22.917 35.712,22.917 C35.712,22.841 35.712,22.766 35.712,22.690 C35.697,22.690 35.682,22.690 35.667,22.690 C35.667,22.569 35.667,22.447 35.667,22.326 C35.589,22.050 35.621,21.586 35.621,21.235 C35.621,20.523 35.621,19.810 35.621,19.098 C35.621,14.931 35.621,10.763 35.621,6.596 C35.621,5.551 35.621,4.505 35.621,3.459 C35.621,2.745 35.609,2.071 35.894,1.641 C35.940,1.610 35.985,1.580 36.031,1.550 C36.488,0.912 37.156,1.004 38.216,1.004 C39.141,1.004 40.067,1.004 40.992,1.004 C46.348,1.004 51.705,1.004 57.060,1.004 C57.060,1.019 57.060,1.035 57.060,1.050 C57.121,1.050 57.182,1.050 57.242,1.050 C57.242,1.065 57.242,1.080 57.242,1.095 C57.288,1.095 57.333,1.095 57.379,1.095 C57.379,1.110 57.379,1.125 57.379,1.141 C57.440,1.156 57.500,1.171 57.561,1.186 C57.561,1.201 57.561,1.216 57.561,1.232 C57.591,1.232 57.622,1.232 57.652,1.232 C57.697,1.292 57.743,1.353 57.789,1.413 C57.834,1.429 57.880,1.444 57.925,1.459 C57.925,1.489 57.925,1.520 57.925,1.550 C57.971,1.580 58.016,1.610 58.062,1.641 C58.062,1.671 58.062,1.701 58.062,1.732 C58.077,1.732 58.092,1.732 58.107,1.732 C58.122,1.792 58.138,1.853 58.153,1.914 C58.168,1.914 58.183,1.914 58.198,1.914 C58.213,2.004 58.229,2.095 58.244,2.186 C58.259,2.186 58.274,2.186 58.289,2.186 C58.289,2.292 58.289,2.398 58.289,2.505 C58.304,2.505 58.320,2.505 58.335,2.505 C58.335,2.535 58.335,2.565 58.335,2.595 C58.350,2.595 58.365,2.595 58.380,2.595 C58.380,3.050 58.380,3.505 58.380,3.959 C58.365,4.929 58.350,5.899 58.335,6.869 C58.335,10.490 58.335,14.113 58.335,17.734 C58.335,18.841 58.335,19.947 58.335,21.053 C58.320,21.599 58.304,22.144 58.289,22.690 C58.274,22.690 58.259,22.690 58.244,22.690 C58.213,22.872 58.183,23.053 58.153,23.235 C58.138,23.235 58.122,23.235 58.107,23.235 C58.107,23.266 58.107,23.296 58.107,23.326 C58.092,23.326 58.077,23.326 58.062,23.326 C58.062,23.372 58.062,23.417 58.062,23.463 C58.046,23.463 58.031,23.463 58.016,23.463 C58.016,23.493 58.016,23.523 58.016,23.554 C58.001,23.554 57.986,23.554 57.971,23.554 C57.971,23.584 57.971,23.614 57.971,23.644 C57.940,23.660 57.910,23.675 57.880,23.690 C57.864,23.751 57.849,23.811 57.834,23.872 C57.789,23.902 57.743,23.932 57.697,23.963 C57.697,23.993 57.697,24.023 57.697,24.054 C57.613,24.171 57.525,24.129 57.470,24.326 ZM38.898,4.232 C38.898,10.096 38.898,15.962 38.898,21.826 C38.914,21.826 38.929,21.826 38.944,21.826 C38.990,21.765 39.035,21.705 39.081,21.644 C39.111,21.644 39.141,21.644 39.172,21.644 C39.217,21.584 39.263,21.523 39.308,21.462 C39.339,21.462 39.369,21.462 39.399,21.462 C39.460,21.387 39.521,21.311 39.581,21.235 C39.612,21.235 39.642,21.235 39.672,21.235 C39.687,21.205 39.703,21.174 39.718,21.144 C39.733,21.144 39.748,21.144 39.763,21.144 C39.779,21.114 39.794,21.083 39.809,21.053 C39.839,21.053 39.870,21.053 39.900,21.053 C39.961,20.977 40.021,20.902 40.082,20.826 C40.112,20.826 40.143,20.826 40.173,20.826 C40.219,20.765 40.264,20.705 40.310,20.644 C40.340,20.644 40.370,20.644 40.401,20.644 C40.461,20.568 40.522,20.492 40.583,20.417 C40.613,20.417 40.643,20.417 40.674,20.417 C40.719,20.356 40.765,20.295 40.810,20.235 C40.841,20.235 40.871,20.235 40.901,20.235 C40.962,20.159 41.023,20.083 41.083,20.008 C41.114,20.008 41.144,20.008 41.174,20.008 C41.220,19.947 41.265,19.886 41.311,19.826 C41.341,19.826 41.372,19.826 41.402,19.826 C41.463,19.750 41.523,19.674 41.584,19.598 C41.614,19.598 41.645,19.598 41.675,19.598 C41.721,19.538 41.766,19.477 41.812,19.416 C41.842,19.416 41.872,19.416 41.903,19.416 C41.963,19.341 42.024,19.265 42.085,19.189 C42.115,19.189 42.145,19.189 42.176,19.189 C42.221,19.129 42.267,19.068 42.312,19.007 C42.343,19.007 42.373,19.007 42.403,19.007 C42.464,18.932 42.525,18.856 42.585,18.780 C42.616,18.780 42.646,18.780 42.677,18.780 C42.692,18.750 42.707,18.719 42.722,18.689 C42.737,18.689 42.752,18.689 42.768,18.689 C42.783,18.659 42.798,18.628 42.813,18.598 C42.843,18.598 42.874,18.598 42.904,18.598 C42.965,18.522 43.025,18.447 43.086,18.371 C43.117,18.371 43.147,18.371 43.177,18.371 C43.192,18.341 43.208,18.310 43.223,18.280 C43.238,18.280 43.253,18.280 43.268,18.280 C43.283,18.250 43.299,18.219 43.314,18.189 C43.344,18.189 43.374,18.189 43.405,18.189 C43.465,18.113 43.526,18.037 43.587,17.962 C43.617,17.962 43.648,17.962 43.678,17.962 C43.693,17.931 43.708,17.901 43.723,17.871 C43.739,17.871 43.754,17.871 43.769,17.871 C43.784,17.840 43.799,17.810 43.814,17.780 C43.845,17.780 43.875,17.780 43.905,17.780 C43.966,17.704 44.027,17.628 44.088,17.553 C44.118,17.553 44.148,17.553 44.179,17.553 C44.224,17.492 44.270,17.431 44.315,17.371 C44.346,17.371 44.376,17.371 44.406,17.371 C44.467,17.295 44.528,17.219 44.588,17.143 C44.619,17.143 44.649,17.143 44.679,17.143 C44.725,17.083 44.770,17.022 44.816,16.962 C44.846,16.962 44.877,16.962 44.907,16.962 C44.968,16.886 45.028,16.810 45.089,16.734 C45.119,16.734 45.150,16.734 45.180,16.734 C45.226,16.674 45.271,16.613 45.317,16.552 C45.347,16.552 45.377,16.552 45.408,16.552 C45.468,16.477 45.529,16.401 45.590,16.325 C45.620,16.325 45.650,16.325 45.681,16.325 C45.726,16.264 45.772,16.204 45.817,16.143 C45.848,16.143 45.878,16.143 45.908,16.143 C45.954,16.083 45.999,16.022 46.045,15.961 C46.106,15.946 46.166,15.931 46.227,15.916 C46.242,15.886 46.257,15.855 46.272,15.825 C46.318,15.825 46.363,15.825 46.409,15.825 C46.409,15.810 46.409,15.795 46.409,15.780 C46.439,15.780 46.470,15.780 46.500,15.780 C46.500,15.764 46.500,15.749 46.500,15.734 C46.561,15.734 46.621,15.734 46.682,15.734 C46.781,15.702 47.016,15.597 47.183,15.643 C47.183,15.658 47.183,15.673 47.183,15.689 C47.274,15.689 47.365,15.689 47.456,15.689 C47.456,15.704 47.456,15.719 47.456,15.734 C47.547,15.749 47.638,15.764 47.729,15.780 C47.729,15.795 47.729,15.810 47.729,15.825 C47.790,15.840 47.850,15.855 47.911,15.870 C47.911,15.886 47.911,15.901 47.911,15.916 C47.941,15.916 47.972,15.916 48.002,15.916 C48.017,15.946 48.032,15.977 48.048,16.007 C48.078,16.007 48.108,16.007 48.139,16.007 C48.199,16.083 48.260,16.158 48.321,16.234 C48.351,16.234 48.381,16.234 48.412,16.234 C48.457,16.295 48.503,16.355 48.548,16.416 C48.579,16.416 48.609,16.416 48.639,16.416 C48.700,16.492 48.761,16.568 48.821,16.643 C48.852,16.643 48.882,16.643 48.912,16.643 C48.958,16.704 49.004,16.765 49.049,16.825 C49.079,16.825 49.110,16.825 49.140,16.825 C49.201,16.901 49.261,16.977 49.322,17.052 C49.352,17.052 49.383,17.052 49.413,17.052 C49.459,17.113 49.504,17.174 49.550,17.234 C49.580,17.234 49.610,17.234 49.641,17.234 C49.701,17.310 49.762,17.386 49.823,17.462 C49.853,17.462 49.884,17.462 49.914,17.462 C49.959,17.522 50.005,17.583 50.050,17.643 C50.081,17.643 50.111,17.643 50.141,17.643 C50.202,17.719 50.263,17.795 50.324,17.871 C50.354,17.871 50.384,17.871 50.415,17.871 C50.460,17.931 50.506,17.992 50.551,18.053 C50.581,18.053 50.612,18.053 50.642,18.053 C50.703,18.128 50.764,18.204 50.824,18.280 C51.805,18.987 52.665,19.801 53.646,20.508 C53.707,20.583 53.768,20.659 53.828,20.735 C53.859,20.735 53.889,20.735 53.919,20.735 C53.965,20.796 54.011,20.856 54.056,20.917 C54.086,20.917 54.117,20.917 54.147,20.917 C54.208,20.993 54.268,21.068 54.329,21.144 C54.359,21.144 54.390,21.144 54.420,21.144 C54.466,21.205 54.511,21.265 54.557,21.326 C54.587,21.326 54.617,21.326 54.648,21.326 C54.708,21.402 54.769,21.477 54.830,21.553 C54.860,21.553 54.891,21.553 54.921,21.553 C54.936,21.584 54.951,21.614 54.966,21.644 C55.057,21.705 55.148,21.765 55.240,21.826 C55.240,16.220 55.240,10.611 55.240,5.005 C55.122,4.888 55.057,4.487 55.057,4.232 C49.672,4.232 44.284,4.232 38.898,4.232 ZM35.439,81.791 C37.593,81.791 39.748,81.791 41.903,81.791 C42.676,81.791 44.122,81.686 44.588,81.973 C44.603,82.003 44.619,82.033 44.634,82.064 C44.664,82.064 44.694,82.064 44.725,82.064 C44.740,82.094 44.755,82.124 44.770,82.154 C44.801,82.154 44.831,82.154 44.861,82.154 C44.892,82.200 44.922,82.245 44.952,82.291 C44.968,82.291 44.983,82.291 44.998,82.291 C44.998,82.321 44.998,82.351 44.998,82.382 C45.043,82.412 45.089,82.442 45.134,82.473 C45.134,82.503 45.134,82.533 45.134,82.564 C45.150,82.564 45.165,82.564 45.180,82.564 C45.306,82.792 45.362,83.077 45.362,83.427 C45.362,83.549 45.362,83.670 45.362,83.791 C45.347,83.791 45.332,83.791 45.317,83.791 C45.317,83.852 45.317,83.912 45.317,83.973 C45.301,83.973 45.286,83.973 45.271,83.973 C45.271,84.018 45.271,84.064 45.271,84.109 C45.256,84.109 45.241,84.109 45.226,84.109 C45.226,84.140 45.226,84.170 45.226,84.200 C45.210,84.200 45.195,84.200 45.180,84.200 C45.180,84.231 45.180,84.261 45.180,84.291 C45.165,84.291 45.150,84.291 45.134,84.291 C45.134,84.321 45.134,84.352 45.134,84.382 C45.104,84.397 45.074,84.412 45.043,84.428 C45.043,84.458 45.043,84.488 45.043,84.519 C45.028,84.519 45.013,84.519 44.998,84.519 C44.952,84.579 44.907,84.640 44.861,84.700 C44.831,84.700 44.801,84.700 44.770,84.700 C44.740,84.746 44.710,84.791 44.679,84.837 C44.216,85.140 43.259,85.064 42.494,85.064 C40.886,85.064 39.278,85.064 37.670,85.064 C36.754,85.064 35.268,85.203 34.711,84.837 C34.680,84.791 34.650,84.746 34.620,84.700 C34.589,84.700 34.559,84.700 34.529,84.700 C34.529,84.685 34.529,84.670 34.529,84.655 C34.483,84.625 34.438,84.594 34.392,84.564 C34.392,84.534 34.392,84.503 34.392,84.473 C34.347,84.443 34.301,84.412 34.256,84.382 C34.256,84.352 34.256,84.321 34.256,84.291 C34.240,84.291 34.225,84.291 34.210,84.291 C34.195,84.231 34.180,84.170 34.165,84.109 C34.149,84.109 34.134,84.109 34.119,84.109 C34.119,84.064 34.119,84.018 34.119,83.973 C34.104,83.973 34.089,83.973 34.074,83.973 C34.074,83.897 34.074,83.821 34.074,83.746 C34.058,83.746 34.043,83.746 34.028,83.746 C33.960,83.509 34.054,82.894 34.119,82.745 C34.134,82.745 34.149,82.745 34.165,82.745 C34.180,82.685 34.195,82.624 34.210,82.564 C34.225,82.564 34.240,82.564 34.256,82.564 C34.256,82.533 34.256,82.503 34.256,82.473 C34.301,82.442 34.347,82.412 34.392,82.382 C34.392,82.351 34.392,82.321 34.392,82.291 C34.423,82.276 34.453,82.261 34.483,82.245 C34.483,82.230 34.483,82.215 34.483,82.200 C34.514,82.200 34.544,82.200 34.574,82.200 C34.605,82.154 34.635,82.109 34.665,82.064 C34.696,82.064 34.726,82.064 34.756,82.064 C34.772,82.033 34.787,82.003 34.802,81.973 C34.832,81.973 34.863,81.973 34.893,81.973 C34.893,81.957 34.893,81.942 34.893,81.927 C34.938,81.927 34.984,81.927 35.029,81.927 C35.029,81.912 35.029,81.897 35.029,81.882 C35.075,81.882 35.120,81.882 35.166,81.882 C35.166,81.867 35.166,81.851 35.166,81.836 C35.257,81.836 35.348,81.836 35.439,81.836 C35.439,81.821 35.439,81.806 35.439,81.791 ZM77.498,81.791 C79.652,81.791 81.807,81.791 83.961,81.791 C84.854,81.791 86.185,81.669 86.738,82.018 C86.753,82.048 86.768,82.079 86.784,82.109 C87.231,82.410 87.422,82.725 87.421,83.473 C87.421,83.594 87.421,83.715 87.421,83.837 C87.295,84.252 87.069,84.629 86.738,84.837 C86.242,85.149 85.303,85.064 84.508,85.064 C82.915,85.064 81.321,85.064 79.728,85.064 C78.851,85.064 77.442,85.197 76.861,84.882 C76.845,84.852 76.830,84.822 76.815,84.791 C76.785,84.791 76.754,84.791 76.724,84.791 C76.633,84.685 76.542,84.579 76.451,84.473 C76.421,84.458 76.390,84.443 76.360,84.428 C76.360,84.397 76.360,84.367 76.360,84.337 C76.330,84.322 76.299,84.306 76.269,84.291 C76.269,84.246 76.269,84.200 76.269,84.155 C76.254,84.155 76.239,84.155 76.223,84.155 C76.223,84.124 76.223,84.094 76.223,84.064 C76.208,84.064 76.193,84.064 76.178,84.064 C76.066,83.801 76.064,83.053 76.178,82.791 C76.193,82.791 76.208,82.791 76.223,82.791 C76.239,82.730 76.254,82.670 76.269,82.609 C76.284,82.609 76.299,82.609 76.314,82.609 C76.330,82.548 76.345,82.488 76.360,82.427 C76.405,82.397 76.451,82.367 76.496,82.336 C76.572,82.245 76.648,82.154 76.724,82.064 C76.754,82.064 76.785,82.064 76.815,82.064 C76.815,82.048 76.815,82.033 76.815,82.018 C76.906,81.988 76.997,81.957 77.088,81.927 C77.088,81.912 77.088,81.897 77.088,81.882 C77.229,81.826 77.394,81.882 77.498,81.791 ZM38.807,88.246 C40.021,88.246 41.235,88.246 42.449,88.246 C42.881,88.246 43.461,88.192 43.814,88.292 C43.936,88.292 44.057,88.292 44.179,88.292 C44.179,88.307 44.179,88.322 44.179,88.337 C44.270,88.352 44.361,88.368 44.452,88.383 C44.452,88.398 44.452,88.413 44.452,88.428 C44.512,88.443 44.573,88.459 44.634,88.474 C44.634,88.489 44.634,88.504 44.634,88.519 C44.664,88.519 44.694,88.519 44.725,88.519 C44.801,88.610 44.877,88.701 44.952,88.792 C44.998,88.822 45.043,88.853 45.089,88.883 C45.283,89.158 45.465,89.786 45.317,90.247 C45.301,90.353 45.286,90.459 45.271,90.565 C45.256,90.565 45.241,90.565 45.226,90.565 C45.226,90.595 45.226,90.626 45.226,90.656 C45.210,90.656 45.195,90.656 45.180,90.656 C45.165,90.717 45.150,90.777 45.134,90.838 C45.104,90.853 45.074,90.868 45.043,90.883 C45.043,90.914 45.043,90.944 45.043,90.974 C44.983,91.020 44.922,91.065 44.861,91.111 C44.846,91.141 44.831,91.171 44.816,91.201 C44.786,91.201 44.755,91.201 44.725,91.201 C44.710,91.232 44.694,91.262 44.679,91.292 C44.619,91.308 44.558,91.323 44.497,91.338 C44.497,91.353 44.497,91.368 44.497,91.383 C44.467,91.383 44.437,91.383 44.406,91.383 C44.406,91.398 44.406,91.414 44.406,91.429 C44.361,91.429 44.315,91.429 44.270,91.429 C44.270,91.444 44.270,91.459 44.270,91.474 C43.920,91.592 43.372,91.520 42.950,91.520 C42.039,91.520 41.129,91.520 40.219,91.520 C39.264,91.520 38.366,91.598 37.806,91.201 C37.791,91.171 37.776,91.141 37.761,91.111 C37.700,91.065 37.639,91.020 37.578,90.974 C37.578,90.944 37.578,90.914 37.578,90.883 C37.548,90.868 37.518,90.853 37.487,90.838 C37.487,90.807 37.487,90.777 37.487,90.747 C37.472,90.747 37.457,90.747 37.442,90.747 C37.427,90.686 37.412,90.626 37.396,90.565 C37.381,90.565 37.366,90.565 37.351,90.565 C37.351,90.520 37.351,90.474 37.351,90.429 C37.336,90.429 37.321,90.429 37.305,90.429 C37.305,90.353 37.305,90.277 37.305,90.201 C37.290,90.201 37.275,90.201 37.260,90.201 C37.165,89.871 37.323,89.427 37.396,89.247 C37.412,89.171 37.427,89.095 37.442,89.019 C37.472,89.004 37.503,88.989 37.533,88.974 C37.533,88.944 37.533,88.913 37.533,88.883 C37.639,88.792 37.745,88.701 37.852,88.610 C37.867,88.580 37.882,88.549 37.897,88.519 C37.988,88.489 38.079,88.459 38.170,88.428 C38.170,88.413 38.170,88.398 38.170,88.383 C38.216,88.383 38.261,88.383 38.307,88.383 C38.307,88.368 38.307,88.352 38.307,88.337 C38.352,88.337 38.398,88.337 38.443,88.337 C38.443,88.322 38.443,88.307 38.443,88.292 C38.565,88.292 38.686,88.292 38.807,88.292 C38.807,88.277 38.807,88.262 38.807,88.246 ZM80.866,88.246 C82.141,88.246 83.415,88.246 84.690,88.246 C85.841,88.246 86.624,88.179 87.102,88.883 C87.117,88.883 87.133,88.883 87.148,88.883 C87.163,88.928 87.178,88.974 87.193,89.019 C87.224,89.034 87.254,89.050 87.284,89.065 C87.284,89.110 87.284,89.156 87.284,89.201 C87.299,89.201 87.315,89.201 87.330,89.201 C87.345,89.292 87.360,89.383 87.375,89.474 C87.391,89.474 87.406,89.474 87.421,89.474 C87.492,89.699 87.386,90.482 87.330,90.610 C87.315,90.610 87.299,90.610 87.284,90.610 C87.269,90.671 87.254,90.732 87.239,90.792 C87.208,90.807 87.178,90.823 87.148,90.838 C87.148,90.868 87.148,90.898 87.148,90.929 C87.057,91.004 86.966,91.080 86.875,91.156 C86.859,91.186 86.844,91.217 86.829,91.247 C86.799,91.247 86.768,91.247 86.738,91.247 C86.723,91.277 86.708,91.308 86.693,91.338 C86.662,91.338 86.632,91.338 86.602,91.338 C86.602,91.353 86.602,91.368 86.602,91.383 C86.217,91.557 85.607,91.520 85.054,91.520 C84.113,91.520 83.172,91.520 82.232,91.520 C81.385,91.520 80.452,91.597 79.956,91.247 C79.910,91.186 79.865,91.126 79.819,91.065 C79.743,91.004 79.668,90.944 79.592,90.883 C79.592,90.853 79.592,90.823 79.592,90.792 C79.561,90.777 79.531,90.762 79.501,90.747 C79.501,90.701 79.501,90.656 79.501,90.610 C79.486,90.610 79.470,90.610 79.455,90.610 C79.455,90.580 79.455,90.550 79.455,90.520 C79.440,90.520 79.425,90.520 79.410,90.520 C79.410,90.459 79.410,90.398 79.410,90.338 C79.394,90.338 79.379,90.338 79.364,90.338 C79.364,90.262 79.364,90.186 79.364,90.110 C79.349,90.110 79.334,90.110 79.319,90.110 C79.249,89.866 79.400,89.429 79.455,89.292 C79.455,89.247 79.455,89.201 79.455,89.156 C79.470,89.156 79.486,89.156 79.501,89.156 C79.501,89.125 79.501,89.095 79.501,89.065 C79.516,89.065 79.531,89.065 79.546,89.065 C79.546,89.034 79.546,89.004 79.546,88.974 C79.577,88.959 79.607,88.943 79.637,88.928 C79.637,88.898 79.637,88.868 79.637,88.837 C79.668,88.822 79.698,88.807 79.728,88.792 C79.789,88.716 79.850,88.640 79.910,88.565 C79.941,88.565 79.971,88.565 80.001,88.565 C80.017,88.534 80.032,88.504 80.047,88.474 C80.108,88.459 80.168,88.443 80.229,88.428 C80.229,88.413 80.229,88.398 80.229,88.383 C80.335,88.368 80.441,88.352 80.548,88.337 C80.548,88.322 80.548,88.307 80.548,88.292 C80.654,88.292 80.760,88.292 80.866,88.292 C80.866,88.277 80.866,88.262 80.866,88.246 Z"/>
</svg>