<svg 
 xmlns="http://www.w3.org/2000/svg"
 xmlns:xlink="http://www.w3.org/1999/xlink"
 width="22px" height="30px">
<path fill-rule="evenodd"  fill="rgb(255, 196, 0)"
 d="M3.945,0.002 C4.943,-0.019 5.708,0.189 6.306,0.557 C6.348,0.571 6.391,0.584 6.433,0.598 C6.440,0.612 6.447,0.626 6.454,0.639 C6.482,0.646 6.510,0.653 6.538,0.660 C6.545,0.674 6.552,0.687 6.559,0.701 C6.573,0.701 6.587,0.701 6.601,0.701 C6.601,0.708 6.601,0.715 6.601,0.722 C6.622,0.728 6.644,0.735 6.665,0.742 C6.672,0.756 6.679,0.770 6.686,0.783 C6.700,0.783 6.714,0.783 6.728,0.783 C6.742,0.804 6.756,0.824 6.770,0.845 C6.784,0.845 6.798,0.845 6.812,0.845 C6.819,0.859 6.826,0.872 6.833,0.886 C6.847,0.886 6.861,0.886 6.875,0.886 C6.897,0.913 6.918,0.941 6.939,0.968 C6.953,0.968 6.967,0.968 6.981,0.968 C7.002,0.996 7.023,1.023 7.044,1.051 C7.058,1.051 7.072,1.051 7.086,1.051 C7.114,1.085 7.142,1.119 7.171,1.153 C7.185,1.153 7.199,1.153 7.213,1.153 C7.241,1.188 7.269,1.222 7.297,1.256 C7.311,1.256 7.325,1.256 7.339,1.256 C7.360,1.284 7.381,1.311 7.403,1.338 C7.417,1.338 7.431,1.338 7.445,1.338 C7.473,1.373 7.501,1.407 7.529,1.441 C7.543,1.441 7.557,1.441 7.571,1.441 C7.599,1.475 7.627,1.510 7.655,1.544 C7.670,1.544 7.684,1.544 7.698,1.544 C7.726,1.578 7.754,1.613 7.782,1.647 C7.796,1.647 7.810,1.647 7.824,1.647 C7.845,1.674 7.866,1.702 7.887,1.729 C7.901,1.729 7.916,1.729 7.930,1.729 C7.958,1.763 7.986,1.798 8.014,1.832 C8.028,1.832 8.042,1.832 8.056,1.832 C8.063,1.846 8.070,1.859 8.077,1.873 C8.098,1.887 8.119,1.900 8.140,1.914 C8.140,1.921 8.140,1.928 8.140,1.935 C8.154,1.935 8.168,1.935 8.183,1.935 C8.211,1.969 8.239,2.003 8.267,2.037 C8.281,2.037 8.295,2.037 8.309,2.037 C8.316,2.051 8.323,2.065 8.330,2.079 C8.337,2.079 8.344,2.079 8.351,2.079 C8.358,2.092 8.365,2.106 8.372,2.120 C8.386,2.120 8.400,2.120 8.414,2.120 C8.443,2.154 8.471,2.188 8.499,2.222 C8.513,2.222 8.527,2.222 8.541,2.222 C8.569,2.257 8.597,2.291 8.625,2.325 C8.639,2.325 8.653,2.325 8.667,2.325 C8.696,2.360 8.724,2.394 8.752,2.428 C8.766,2.428 8.780,2.428 8.794,2.428 C8.815,2.456 8.836,2.483 8.857,2.510 C8.871,2.510 8.885,2.510 8.899,2.510 C8.927,2.545 8.956,2.579 8.984,2.613 C8.998,2.613 9.012,2.613 9.026,2.613 C9.054,2.647 9.082,2.682 9.110,2.716 C9.124,2.716 9.138,2.716 9.152,2.716 C9.180,2.750 9.209,2.784 9.237,2.819 C9.251,2.819 9.265,2.819 9.279,2.819 C9.300,2.846 9.321,2.874 9.342,2.901 C9.356,2.901 9.370,2.901 9.384,2.901 C9.412,2.935 9.440,2.970 9.469,3.004 C9.483,3.004 9.497,3.004 9.511,3.004 C9.539,3.038 9.567,3.072 9.595,3.107 C9.609,3.107 9.623,3.107 9.637,3.107 C9.665,3.141 9.693,3.175 9.722,3.209 C9.736,3.209 9.750,3.209 9.764,3.209 C9.785,3.237 9.806,3.264 9.827,3.292 C9.841,3.292 9.855,3.292 9.869,3.292 C9.897,3.326 9.925,3.360 9.953,3.394 C9.968,3.394 9.982,3.394 9.996,3.394 C10.024,3.429 10.052,3.463 10.080,3.497 C10.094,3.497 10.108,3.497 10.122,3.497 C10.150,3.532 10.178,3.566 10.206,3.600 C10.221,3.600 10.235,3.600 10.249,3.600 C10.270,3.627 10.291,3.655 10.312,3.682 C10.326,3.682 10.340,3.682 10.354,3.682 C10.382,3.717 10.410,3.751 10.438,3.785 C10.452,3.785 10.466,3.785 10.481,3.785 C10.509,3.819 10.537,3.854 10.565,3.888 C10.579,3.888 10.593,3.888 10.607,3.888 C10.635,3.922 10.663,3.956 10.691,3.991 C10.705,3.991 10.719,3.991 10.734,3.991 C10.755,4.018 10.776,4.046 10.797,4.073 C10.811,4.073 10.825,4.073 10.839,4.073 C10.867,4.107 10.895,4.141 10.923,4.176 C10.937,4.176 10.951,4.176 10.965,4.176 C10.972,4.189 10.979,4.203 10.986,4.217 C11.008,4.231 11.029,4.244 11.050,4.258 C11.050,4.265 11.050,4.272 11.050,4.279 C11.064,4.279 11.078,4.279 11.092,4.279 C11.120,4.313 11.148,4.347 11.176,4.381 C11.190,4.381 11.204,4.381 11.218,4.381 C11.225,4.395 11.232,4.409 11.239,4.422 C11.247,4.422 11.254,4.422 11.261,4.422 C11.268,4.436 11.275,4.450 11.282,4.464 C11.296,4.464 11.310,4.464 11.324,4.464 C11.352,4.498 11.380,4.532 11.408,4.566 C11.422,4.566 11.436,4.566 11.450,4.566 C11.478,4.601 11.507,4.635 11.535,4.669 C11.549,4.669 11.563,4.669 11.577,4.669 C11.605,4.703 11.633,4.738 11.661,4.772 C11.675,4.772 11.689,4.772 11.703,4.772 C11.724,4.799 11.745,4.827 11.767,4.854 C11.781,4.854 11.795,4.854 11.809,4.854 C11.816,4.868 11.823,4.882 11.830,4.895 C11.851,4.909 11.872,4.923 11.893,4.936 C11.893,4.943 11.893,4.950 11.893,4.957 C11.907,4.957 11.921,4.957 11.935,4.957 C11.963,4.991 11.991,5.026 12.020,5.060 C12.034,5.060 12.048,5.060 12.062,5.060 C12.090,5.094 12.118,5.128 12.146,5.163 C12.160,5.163 12.174,5.163 12.188,5.163 C12.195,5.176 12.202,5.190 12.209,5.204 C12.216,5.204 12.223,5.204 12.230,5.204 C12.237,5.217 12.244,5.231 12.251,5.245 C12.265,5.245 12.280,5.245 12.294,5.245 C12.322,5.279 12.350,5.313 12.378,5.348 C12.392,5.348 12.406,5.348 12.420,5.348 C12.448,5.382 12.476,5.416 12.504,5.451 C12.518,5.451 12.533,5.451 12.547,5.451 C12.575,5.485 12.603,5.519 12.631,5.553 C12.645,5.553 12.659,5.553 12.673,5.553 C12.694,5.581 12.715,5.608 12.736,5.636 C12.750,5.636 12.764,5.636 12.778,5.636 C12.786,5.649 12.793,5.663 12.800,5.677 C12.821,5.690 12.842,5.704 12.863,5.718 C12.863,5.725 12.863,5.732 12.863,5.738 C12.877,5.738 12.891,5.738 12.905,5.738 C12.933,5.773 12.961,5.807 12.989,5.841 C13.003,5.841 13.017,5.841 13.031,5.841 C13.060,5.875 13.088,5.910 13.116,5.944 C13.130,5.944 13.144,5.944 13.158,5.944 C13.165,5.958 13.172,5.971 13.179,5.985 C13.186,5.985 13.193,5.985 13.200,5.985 C13.207,5.999 13.214,6.013 13.221,6.026 C13.235,6.026 13.249,6.026 13.263,6.026 C13.291,6.060 13.320,6.095 13.348,6.129 C13.362,6.129 13.376,6.129 13.390,6.129 C13.418,6.163 13.446,6.198 13.474,6.232 C13.488,6.232 13.502,6.232 13.516,6.232 C13.544,6.266 13.573,6.300 13.601,6.335 C13.615,6.335 13.629,6.335 13.643,6.335 C13.664,6.362 13.685,6.389 13.706,6.417 C13.720,6.417 13.734,6.417 13.748,6.417 C13.776,6.451 13.804,6.485 13.833,6.520 C13.847,6.520 13.861,6.520 13.875,6.520 C13.903,6.554 13.931,6.588 13.959,6.622 C13.973,6.622 13.987,6.622 14.001,6.622 C14.029,6.657 14.057,6.691 14.086,6.725 C14.100,6.725 14.114,6.725 14.128,6.725 C14.135,6.739 14.142,6.753 14.149,6.766 C14.156,6.766 14.163,6.766 14.170,6.766 C14.177,6.780 14.184,6.794 14.191,6.808 C14.205,6.808 14.219,6.808 14.233,6.808 C14.261,6.842 14.289,6.876 14.317,6.910 C14.332,6.910 14.346,6.910 14.360,6.910 C14.367,6.924 14.374,6.938 14.381,6.951 C14.402,6.965 14.423,6.979 14.444,6.993 C14.444,6.999 14.444,7.006 14.444,7.013 C14.458,7.013 14.472,7.013 14.486,7.013 C14.514,7.047 14.542,7.082 14.570,7.116 C14.585,7.116 14.599,7.116 14.613,7.116 C14.620,7.130 14.627,7.143 14.634,7.157 C14.641,7.157 14.648,7.157 14.655,7.157 C14.662,7.171 14.669,7.184 14.676,7.198 C14.690,7.198 14.704,7.198 14.718,7.198 C14.746,7.232 14.774,7.267 14.802,7.301 C14.816,7.301 14.830,7.301 14.845,7.301 C14.873,7.335 14.901,7.370 14.929,7.404 C14.943,7.404 14.957,7.404 14.971,7.404 C14.999,7.438 15.027,7.472 15.055,7.507 C15.069,7.507 15.083,7.507 15.098,7.507 C15.119,7.534 15.140,7.561 15.161,7.589 C15.175,7.589 15.189,7.589 15.203,7.589 C15.231,7.623 15.259,7.657 15.287,7.692 C15.301,7.692 15.315,7.692 15.329,7.692 C15.358,7.726 15.386,7.760 15.414,7.794 C15.428,7.794 15.442,7.794 15.456,7.794 C15.484,7.829 15.512,7.863 15.540,7.897 C15.554,7.897 15.568,7.897 15.582,7.897 C15.604,7.925 15.625,7.952 15.646,7.979 C15.660,7.979 15.674,7.979 15.688,7.979 C15.716,8.014 15.744,8.048 15.772,8.082 C15.786,8.082 15.800,8.082 15.814,8.082 C15.842,8.117 15.871,8.151 15.899,8.185 C15.913,8.185 15.927,8.185 15.941,8.185 C15.969,8.219 15.997,8.254 16.025,8.288 C16.039,8.288 16.053,8.288 16.067,8.288 C16.088,8.315 16.109,8.343 16.131,8.370 C16.145,8.370 16.159,8.370 16.173,8.370 C16.201,8.404 16.229,8.439 16.257,8.473 C16.271,8.473 16.285,8.473 16.299,8.473 C16.306,8.487 16.313,8.500 16.320,8.514 C16.341,8.528 16.362,8.541 16.384,8.555 C16.384,8.562 16.384,8.569 16.384,8.576 C16.398,8.576 16.412,8.576 16.426,8.576 C16.454,8.610 16.482,8.644 16.510,8.679 C16.524,8.679 16.538,8.679 16.552,8.679 C16.559,8.692 16.566,8.706 16.573,8.720 C16.580,8.720 16.587,8.720 16.594,8.720 C16.601,8.733 16.608,8.747 16.615,8.761 C16.630,8.761 16.644,8.761 16.658,8.761 C16.686,8.795 16.714,8.829 16.742,8.864 C16.756,8.864 16.770,8.864 16.784,8.864 C16.812,8.898 16.840,8.932 16.868,8.966 C16.882,8.966 16.897,8.966 16.911,8.966 C16.939,9.001 16.967,9.035 16.995,9.069 C17.009,9.069 17.023,9.069 17.037,9.069 C17.058,9.097 17.079,9.124 17.100,9.151 C17.114,9.151 17.128,9.151 17.143,9.151 C17.171,9.186 17.199,9.220 17.227,9.254 C17.241,9.254 17.255,9.254 17.269,9.254 C17.297,9.289 17.325,9.323 17.353,9.357 C17.367,9.357 17.381,9.357 17.396,9.357 C17.424,9.391 17.452,9.426 17.480,9.460 C17.494,9.460 17.508,9.460 17.522,9.460 C17.543,9.487 17.564,9.515 17.585,9.542 C17.599,9.542 17.613,9.542 17.627,9.542 C17.656,9.576 17.684,9.611 17.712,9.645 C17.726,9.645 17.740,9.645 17.754,9.645 C17.782,9.679 17.810,9.713 17.838,9.748 C17.852,9.748 17.866,9.748 17.880,9.748 C17.909,9.782 17.937,9.816 17.965,9.851 C17.979,9.851 17.993,9.851 18.007,9.851 C18.028,9.878 18.049,9.905 18.070,9.933 C18.084,9.933 18.098,9.933 18.112,9.933 C18.140,9.967 18.169,10.001 18.197,10.036 C18.211,10.036 18.225,10.036 18.239,10.036 C18.267,10.070 18.295,10.104 18.323,10.138 C18.337,10.138 18.351,10.138 18.365,10.138 C18.393,10.173 18.422,10.207 18.450,10.241 C18.464,10.241 18.478,10.241 18.492,10.241 C18.513,10.269 18.534,10.296 18.555,10.323 C18.569,10.323 18.583,10.323 18.597,10.323 C18.625,10.358 18.653,10.392 18.682,10.426 C18.696,10.426 18.710,10.426 18.724,10.426 C18.752,10.460 18.780,10.495 18.808,10.529 C18.822,10.529 18.836,10.529 18.850,10.529 C18.850,10.536 18.850,10.543 18.850,10.550 C18.871,10.563 18.892,10.577 18.913,10.591 C18.920,10.604 18.927,10.618 18.935,10.632 C18.949,10.632 18.963,10.632 18.977,10.632 C18.984,10.646 18.991,10.659 18.998,10.673 C19.005,10.673 19.012,10.673 19.019,10.673 C19.026,10.687 19.033,10.700 19.040,10.714 C19.054,10.714 19.068,10.714 19.082,10.714 C19.110,10.748 19.138,10.783 19.166,10.817 C19.180,10.817 19.195,10.817 19.209,10.817 C19.237,10.851 19.265,10.885 19.293,10.920 C19.307,10.920 19.321,10.920 19.335,10.920 C19.363,10.954 19.391,10.988 19.419,11.022 C19.433,11.022 19.448,11.022 19.462,11.022 C19.483,11.050 19.504,11.077 19.525,11.105 C19.539,11.105 19.553,11.105 19.567,11.105 C19.595,11.139 19.623,11.173 19.651,11.208 C19.665,11.208 19.679,11.208 19.693,11.208 C19.722,11.242 19.750,11.276 19.778,11.310 C19.792,11.310 19.806,11.310 19.820,11.310 C19.848,11.345 19.876,11.379 19.904,11.413 C19.918,11.413 19.932,11.413 19.946,11.413 C19.968,11.441 19.989,11.468 20.010,11.495 C20.024,11.495 20.038,11.495 20.052,11.495 C20.080,11.530 20.108,11.564 20.136,11.598 C20.449,11.819 20.732,12.053 20.958,12.359 C20.994,12.386 21.029,12.414 21.064,12.441 C21.064,12.455 21.064,12.469 21.064,12.482 C21.085,12.496 21.106,12.510 21.127,12.523 C21.127,12.537 21.127,12.551 21.127,12.565 C21.148,12.578 21.169,12.592 21.190,12.606 C21.190,12.619 21.190,12.633 21.190,12.647 C21.204,12.654 21.218,12.660 21.232,12.667 C21.240,12.688 21.247,12.708 21.254,12.729 C21.261,12.729 21.268,12.729 21.275,12.729 C21.275,12.743 21.275,12.756 21.275,12.770 C21.289,12.777 21.303,12.784 21.317,12.791 C21.324,12.811 21.331,12.832 21.338,12.852 C21.345,12.852 21.352,12.852 21.359,12.852 C21.366,12.880 21.373,12.907 21.380,12.935 C21.394,12.941 21.408,12.948 21.422,12.955 C21.436,12.996 21.450,13.037 21.464,13.079 C21.478,13.085 21.492,13.092 21.507,13.099 C21.514,13.127 21.521,13.154 21.528,13.181 C21.535,13.181 21.542,13.181 21.549,13.181 C21.556,13.209 21.563,13.236 21.570,13.264 C21.577,13.264 21.584,13.264 21.591,13.264 C21.591,13.284 21.591,13.305 21.591,13.325 C21.598,13.325 21.605,13.325 21.612,13.325 C21.612,13.339 21.612,13.353 21.612,13.366 C21.619,13.366 21.626,13.366 21.633,13.366 C21.640,13.394 21.647,13.421 21.654,13.449 C21.661,13.449 21.668,13.449 21.675,13.449 C21.738,13.634 21.802,13.819 21.865,14.004 C21.872,14.065 21.879,14.127 21.886,14.189 C22.002,14.558 22.051,15.285 21.928,15.690 C21.921,15.765 21.914,15.841 21.907,15.916 C21.851,16.108 21.795,16.300 21.738,16.492 C21.731,16.492 21.724,16.492 21.717,16.492 C21.717,16.505 21.717,16.519 21.717,16.533 C21.710,16.533 21.703,16.533 21.696,16.533 C21.696,16.553 21.696,16.574 21.696,16.594 C21.689,16.594 21.682,16.594 21.675,16.594 C21.675,16.608 21.675,16.622 21.675,16.636 C21.668,16.636 21.661,16.636 21.654,16.636 C21.654,16.656 21.654,16.677 21.654,16.697 C21.647,16.697 21.640,16.697 21.633,16.697 C21.626,16.725 21.619,16.752 21.612,16.779 C21.605,16.779 21.598,16.779 21.591,16.779 C21.591,16.800 21.591,16.821 21.591,16.841 C21.584,16.841 21.577,16.841 21.570,16.841 C21.556,16.882 21.542,16.923 21.528,16.965 C21.521,16.965 21.514,16.965 21.507,16.965 C21.507,16.978 21.507,16.992 21.507,17.006 C21.500,17.006 21.492,17.006 21.485,17.006 C21.478,17.033 21.471,17.060 21.464,17.088 C21.450,17.095 21.436,17.102 21.422,17.108 C21.408,17.150 21.394,17.191 21.380,17.232 C21.366,17.239 21.352,17.246 21.338,17.252 C21.331,17.280 21.324,17.307 21.317,17.335 C21.303,17.341 21.289,17.348 21.275,17.355 C21.275,17.369 21.275,17.383 21.275,17.396 C21.268,17.396 21.261,17.396 21.254,17.396 C21.247,17.417 21.240,17.437 21.232,17.458 C21.218,17.465 21.204,17.472 21.190,17.479 C21.190,17.492 21.190,17.506 21.190,17.520 C21.169,17.533 21.148,17.547 21.127,17.561 C21.127,17.574 21.127,17.588 21.127,17.602 C21.113,17.609 21.099,17.616 21.085,17.622 C21.085,17.636 21.085,17.650 21.085,17.664 C21.057,17.684 21.029,17.705 21.001,17.725 C21.001,17.739 21.001,17.753 21.001,17.766 C20.965,17.794 20.930,17.821 20.895,17.849 C20.895,17.862 20.895,17.876 20.895,17.890 C20.818,17.958 20.741,18.027 20.663,18.095 C20.593,18.171 20.523,18.246 20.452,18.322 C20.438,18.322 20.424,18.322 20.410,18.322 C20.382,18.356 20.354,18.390 20.326,18.424 C20.312,18.424 20.298,18.424 20.284,18.424 C20.277,18.438 20.270,18.452 20.263,18.465 C20.256,18.465 20.249,18.465 20.242,18.465 C20.235,18.479 20.228,18.493 20.221,18.507 C20.206,18.507 20.192,18.507 20.178,18.507 C20.150,18.541 20.122,18.575 20.094,18.609 C20.080,18.609 20.066,18.609 20.052,18.609 C20.045,18.623 20.038,18.637 20.031,18.650 C20.024,18.650 20.017,18.650 20.010,18.650 C20.003,18.664 19.996,18.678 19.989,18.692 C19.975,18.692 19.961,18.692 19.946,18.692 C19.918,18.726 19.890,18.760 19.862,18.794 C19.848,18.794 19.834,18.794 19.820,18.794 C19.813,18.808 19.806,18.822 19.799,18.836 C19.792,18.836 19.785,18.836 19.778,18.836 C19.771,18.849 19.764,18.863 19.757,18.877 C19.743,18.877 19.729,18.877 19.715,18.877 C19.686,18.911 19.658,18.945 19.630,18.979 C19.616,18.979 19.602,18.979 19.588,18.979 C19.567,19.007 19.546,19.034 19.525,19.062 C19.511,19.062 19.497,19.062 19.483,19.062 C19.455,19.096 19.426,19.130 19.398,19.165 C19.384,19.165 19.370,19.165 19.356,19.165 C19.335,19.192 19.314,19.219 19.293,19.247 C19.279,19.247 19.265,19.247 19.251,19.247 C19.223,19.281 19.195,19.315 19.166,19.350 C19.152,19.350 19.138,19.350 19.124,19.350 C19.103,19.377 19.082,19.404 19.061,19.432 C19.047,19.432 19.033,19.432 19.019,19.432 C18.991,19.466 18.963,19.500 18.935,19.535 C18.920,19.535 18.906,19.535 18.892,19.535 C18.871,19.562 18.850,19.589 18.829,19.617 C18.815,19.617 18.801,19.617 18.787,19.617 C18.759,19.651 18.731,19.685 18.703,19.720 C18.689,19.720 18.674,19.720 18.660,19.720 C18.632,19.754 18.604,19.788 18.576,19.822 C18.562,19.822 18.548,19.822 18.534,19.822 C18.527,19.836 18.520,19.850 18.513,19.864 C18.506,19.864 18.499,19.864 18.492,19.864 C18.485,19.877 18.478,19.891 18.471,19.905 C18.457,19.905 18.443,19.905 18.429,19.905 C18.400,19.939 18.372,19.973 18.344,20.007 C18.330,20.007 18.316,20.007 18.302,20.007 C18.295,20.021 18.288,20.035 18.281,20.049 C18.274,20.049 18.267,20.049 18.260,20.049 C18.253,20.062 18.246,20.076 18.239,20.090 C18.225,20.090 18.211,20.090 18.197,20.090 C18.169,20.124 18.140,20.158 18.112,20.193 C18.098,20.193 18.084,20.193 18.070,20.193 C18.063,20.206 18.056,20.220 18.049,20.234 C18.042,20.234 18.035,20.234 18.028,20.234 C18.021,20.247 18.014,20.261 18.007,20.275 C17.993,20.275 17.979,20.275 17.965,20.275 C17.937,20.309 17.909,20.343 17.880,20.378 C17.866,20.378 17.852,20.378 17.838,20.378 C17.817,20.405 17.796,20.432 17.775,20.460 C17.761,20.460 17.747,20.460 17.733,20.460 C17.705,20.494 17.677,20.528 17.648,20.563 C17.634,20.563 17.620,20.563 17.606,20.563 C17.585,20.590 17.564,20.617 17.543,20.645 C17.529,20.645 17.515,20.645 17.501,20.645 C17.473,20.679 17.445,20.713 17.417,20.748 C17.403,20.748 17.388,20.748 17.374,20.748 C17.353,20.775 17.332,20.803 17.311,20.830 C17.297,20.830 17.283,20.830 17.269,20.830 C17.241,20.864 17.213,20.898 17.185,20.933 C17.171,20.933 17.157,20.933 17.143,20.933 C17.135,20.946 17.128,20.960 17.121,20.974 C17.114,20.974 17.107,20.974 17.100,20.974 C17.093,20.988 17.086,21.001 17.079,21.015 C17.065,21.015 17.051,21.015 17.037,21.015 C17.009,21.049 16.981,21.084 16.953,21.118 C16.939,21.118 16.925,21.118 16.911,21.118 C16.904,21.131 16.897,21.145 16.890,21.159 C16.883,21.159 16.875,21.159 16.868,21.159 C16.861,21.173 16.854,21.186 16.847,21.200 C16.833,21.200 16.819,21.200 16.805,21.200 C16.777,21.234 16.749,21.269 16.721,21.303 C16.707,21.303 16.693,21.303 16.679,21.303 C16.651,21.337 16.622,21.371 16.594,21.406 C16.580,21.406 16.566,21.406 16.552,21.406 C16.531,21.433 16.510,21.460 16.489,21.488 C16.475,21.488 16.461,21.488 16.447,21.488 C16.419,21.522 16.391,21.556 16.362,21.591 C16.348,21.591 16.334,21.591 16.320,21.591 C16.299,21.618 16.278,21.646 16.257,21.673 C16.243,21.673 16.229,21.673 16.215,21.673 C16.187,21.707 16.159,21.741 16.131,21.776 C16.117,21.776 16.102,21.776 16.088,21.776 C16.067,21.803 16.046,21.831 16.025,21.858 C16.011,21.858 15.997,21.858 15.983,21.858 C15.955,21.892 15.927,21.926 15.899,21.961 C15.885,21.961 15.871,21.961 15.856,21.961 C15.835,21.988 15.814,22.016 15.793,22.043 C15.779,22.043 15.765,22.043 15.751,22.043 C15.723,22.077 15.695,22.112 15.667,22.146 C15.653,22.146 15.639,22.146 15.625,22.146 C15.604,22.173 15.582,22.201 15.561,22.228 C15.547,22.228 15.533,22.228 15.519,22.228 C15.491,22.262 15.463,22.297 15.435,22.331 C15.421,22.331 15.407,22.331 15.393,22.331 C15.372,22.358 15.351,22.386 15.329,22.413 C15.315,22.413 15.301,22.413 15.287,22.413 C15.259,22.447 15.231,22.482 15.203,22.516 C15.189,22.516 15.175,22.516 15.161,22.516 C15.140,22.543 15.119,22.571 15.098,22.598 C15.083,22.598 15.069,22.598 15.055,22.598 C15.027,22.632 14.999,22.667 14.971,22.701 C14.553,22.995 14.188,23.332 13.769,23.626 C13.741,23.660 13.713,23.695 13.685,23.729 C13.671,23.729 13.657,23.729 13.643,23.729 C13.636,23.743 13.629,23.756 13.622,23.770 C13.615,23.770 13.608,23.770 13.601,23.770 C13.594,23.784 13.587,23.798 13.580,23.811 C13.566,23.811 13.552,23.811 13.537,23.811 C13.509,23.845 13.481,23.880 13.453,23.914 C13.439,23.914 13.425,23.914 13.411,23.914 C13.390,23.941 13.369,23.969 13.348,23.996 C13.334,23.996 13.320,23.996 13.306,23.996 C13.277,24.031 13.249,24.065 13.221,24.099 C13.207,24.099 13.193,24.099 13.179,24.099 C13.158,24.126 13.137,24.154 13.116,24.181 C13.102,24.181 13.088,24.181 13.074,24.181 C13.046,24.216 13.017,24.250 12.989,24.284 C12.975,24.284 12.961,24.284 12.947,24.284 C12.940,24.298 12.933,24.312 12.926,24.325 C12.919,24.325 12.912,24.325 12.905,24.325 C12.898,24.339 12.891,24.353 12.884,24.366 C12.870,24.366 12.856,24.366 12.842,24.366 C12.814,24.401 12.786,24.435 12.757,24.469 C12.743,24.469 12.729,24.469 12.715,24.469 C12.694,24.497 12.673,24.524 12.652,24.551 C12.638,24.551 12.624,24.551 12.610,24.551 C12.582,24.586 12.554,24.620 12.525,24.654 C12.511,24.654 12.497,24.654 12.483,24.654 C12.455,24.688 12.427,24.723 12.399,24.757 C12.385,24.757 12.371,24.757 12.357,24.757 C12.336,24.784 12.315,24.812 12.294,24.839 C12.280,24.839 12.265,24.839 12.251,24.839 C12.223,24.874 12.195,24.908 12.167,24.942 C12.153,24.942 12.139,24.942 12.125,24.942 C12.104,24.969 12.083,24.997 12.062,25.024 C12.048,25.024 12.034,25.024 12.020,25.024 C11.991,25.059 11.963,25.093 11.935,25.127 C11.921,25.127 11.907,25.127 11.893,25.127 C11.886,25.141 11.879,25.155 11.872,25.168 C11.865,25.168 11.858,25.168 11.851,25.168 C11.844,25.182 11.837,25.196 11.830,25.209 C11.816,25.209 11.802,25.209 11.788,25.209 C11.760,25.244 11.731,25.278 11.703,25.312 C11.689,25.312 11.675,25.312 11.661,25.312 C11.654,25.326 11.647,25.340 11.640,25.353 C11.633,25.353 11.626,25.353 11.619,25.353 C11.612,25.367 11.605,25.381 11.598,25.394 C11.584,25.394 11.570,25.394 11.556,25.394 C11.528,25.429 11.499,25.463 11.471,25.497 C11.457,25.497 11.443,25.497 11.429,25.497 C11.408,25.525 11.387,25.552 11.366,25.579 C11.352,25.579 11.338,25.579 11.324,25.579 C11.296,25.614 11.268,25.648 11.239,25.682 C11.225,25.682 11.211,25.682 11.197,25.682 C11.176,25.710 11.155,25.737 11.134,25.764 C11.120,25.764 11.106,25.764 11.092,25.764 C11.064,25.799 11.036,25.833 11.008,25.867 C10.994,25.867 10.979,25.867 10.965,25.867 C10.944,25.895 10.923,25.922 10.902,25.950 C10.888,25.950 10.874,25.950 10.860,25.950 C10.832,25.984 10.804,26.018 10.776,26.052 C10.762,26.052 10.748,26.052 10.734,26.052 C10.726,26.066 10.719,26.080 10.712,26.093 C10.705,26.093 10.698,26.093 10.691,26.093 C10.684,26.107 10.677,26.121 10.670,26.135 C10.656,26.135 10.642,26.135 10.628,26.135 C10.600,26.169 10.572,26.203 10.544,26.237 C10.530,26.237 10.516,26.237 10.502,26.237 C10.495,26.251 10.488,26.265 10.481,26.279 C10.473,26.279 10.466,26.279 10.459,26.279 C10.452,26.292 10.445,26.306 10.438,26.320 C10.424,26.320 10.410,26.320 10.396,26.320 C10.368,26.354 10.340,26.388 10.312,26.422 C10.298,26.422 10.284,26.422 10.270,26.422 C10.242,26.457 10.213,26.491 10.185,26.525 C10.171,26.525 10.157,26.525 10.143,26.525 C10.122,26.553 10.101,26.580 10.080,26.607 C10.066,26.607 10.052,26.607 10.038,26.607 C10.010,26.642 9.982,26.676 9.953,26.710 C9.939,26.710 9.925,26.710 9.911,26.710 C9.890,26.738 9.869,26.765 9.848,26.793 C9.834,26.793 9.820,26.793 9.806,26.793 C9.778,26.827 9.750,26.861 9.722,26.895 C9.708,26.895 9.693,26.895 9.679,26.895 C9.658,26.923 9.637,26.950 9.616,26.978 C9.602,26.978 9.588,26.978 9.574,26.978 C9.546,27.012 9.518,27.046 9.490,27.080 C9.476,27.080 9.462,27.080 9.447,27.080 C9.426,27.108 9.405,27.135 9.384,27.163 C9.370,27.163 9.356,27.163 9.342,27.163 C9.314,27.197 9.286,27.231 9.258,27.265 C9.244,27.265 9.230,27.265 9.216,27.265 C9.195,27.293 9.173,27.320 9.152,27.348 C9.138,27.348 9.124,27.348 9.110,27.348 C9.082,27.382 9.054,27.416 9.026,27.450 C9.012,27.450 8.998,27.450 8.984,27.450 C8.963,27.478 8.942,27.505 8.920,27.533 C8.906,27.533 8.892,27.533 8.878,27.533 C8.850,27.567 8.822,27.601 8.794,27.636 C8.780,27.636 8.766,27.636 8.752,27.636 C8.745,27.649 8.738,27.663 8.731,27.677 C8.724,27.677 8.717,27.677 8.710,27.677 C8.703,27.690 8.696,27.704 8.689,27.718 C8.674,27.718 8.660,27.718 8.646,27.718 C8.618,27.752 8.590,27.786 8.562,27.821 C8.548,27.821 8.534,27.821 8.520,27.821 C8.499,27.848 8.478,27.875 8.457,27.903 C8.443,27.903 8.429,27.903 8.414,27.903 C8.386,27.937 8.358,27.971 8.330,28.006 C8.316,28.006 8.302,28.006 8.288,28.006 C8.260,28.040 8.232,28.074 8.204,28.108 C8.190,28.108 8.176,28.108 8.161,28.108 C8.154,28.122 8.147,28.136 8.140,28.150 C8.133,28.150 8.126,28.150 8.119,28.150 C8.112,28.163 8.105,28.177 8.098,28.191 C8.084,28.191 8.070,28.191 8.056,28.191 C8.028,28.225 8.000,28.259 7.972,28.293 C7.958,28.293 7.944,28.293 7.930,28.293 C7.923,28.307 7.916,28.321 7.908,28.335 C7.901,28.335 7.894,28.335 7.887,28.335 C7.880,28.348 7.873,28.362 7.866,28.376 C7.852,28.376 7.838,28.376 7.824,28.376 C7.796,28.410 7.768,28.444 7.740,28.479 C7.726,28.479 7.712,28.479 7.698,28.479 C7.677,28.506 7.655,28.533 7.634,28.561 C7.620,28.561 7.606,28.561 7.592,28.561 C7.564,28.595 7.536,28.629 7.508,28.664 C7.494,28.664 7.480,28.664 7.466,28.664 C7.445,28.691 7.424,28.718 7.403,28.746 C7.388,28.746 7.374,28.746 7.360,28.746 C7.332,28.780 7.304,28.814 7.276,28.849 C7.262,28.849 7.248,28.849 7.234,28.849 C7.227,28.862 7.220,28.876 7.213,28.890 C7.206,28.890 7.199,28.890 7.192,28.890 C7.185,28.903 7.178,28.917 7.171,28.931 C7.157,28.931 7.142,28.931 7.128,28.931 C7.100,28.965 7.072,28.999 7.044,29.034 C7.030,29.034 7.016,29.034 7.002,29.034 C6.974,29.068 6.946,29.102 6.918,29.136 C6.904,29.136 6.890,29.136 6.875,29.136 C6.854,29.164 6.833,29.191 6.812,29.219 C6.798,29.219 6.784,29.219 6.770,29.219 C6.756,29.239 6.742,29.260 6.728,29.280 C6.714,29.280 6.700,29.280 6.686,29.280 C6.679,29.294 6.672,29.308 6.665,29.321 C6.651,29.321 6.637,29.321 6.622,29.321 C6.608,29.342 6.594,29.363 6.580,29.383 C6.552,29.390 6.524,29.397 6.496,29.404 C6.489,29.417 6.482,29.431 6.475,29.445 C6.447,29.452 6.419,29.459 6.391,29.465 C6.384,29.479 6.377,29.493 6.369,29.507 C6.355,29.507 6.341,29.507 6.327,29.507 C6.327,29.513 6.327,29.520 6.327,29.527 C6.313,29.527 6.299,29.527 6.285,29.527 C6.285,29.534 6.285,29.541 6.285,29.548 C6.271,29.548 6.257,29.548 6.243,29.548 C6.243,29.555 6.243,29.561 6.243,29.568 C6.229,29.568 6.215,29.568 6.201,29.568 C6.201,29.575 6.201,29.582 6.201,29.589 C6.187,29.589 6.173,29.589 6.159,29.589 C6.159,29.596 6.159,29.602 6.159,29.609 C6.116,29.623 6.074,29.637 6.032,29.650 C6.032,29.657 6.032,29.664 6.032,29.671 C6.011,29.671 5.990,29.671 5.969,29.671 C5.969,29.678 5.969,29.685 5.969,29.692 C5.955,29.692 5.941,29.692 5.927,29.692 C5.927,29.698 5.927,29.705 5.927,29.712 C5.906,29.712 5.885,29.712 5.864,29.712 C5.864,29.719 5.864,29.726 5.864,29.733 C5.849,29.733 5.835,29.733 5.821,29.733 C5.821,29.740 5.821,29.746 5.821,29.753 C5.758,29.767 5.695,29.781 5.632,29.794 C5.632,29.801 5.632,29.808 5.632,29.815 C5.603,29.815 5.575,29.815 5.547,29.815 C5.547,29.822 5.547,29.829 5.547,29.836 C5.526,29.836 5.505,29.836 5.484,29.836 C5.484,29.842 5.484,29.849 5.484,29.856 C5.456,29.856 5.428,29.856 5.400,29.856 C5.400,29.863 5.400,29.870 5.400,29.877 C5.372,29.877 5.343,29.877 5.315,29.877 C5.315,29.883 5.315,29.890 5.315,29.897 C5.280,29.897 5.245,29.897 5.210,29.897 C5.210,29.904 5.210,29.911 5.210,29.918 C5.175,29.918 5.140,29.918 5.105,29.918 C5.105,29.925 5.105,29.931 5.105,29.938 C5.062,29.938 5.020,29.938 4.978,29.938 C4.978,29.945 4.978,29.952 4.978,29.959 C4.922,29.959 4.866,29.959 4.809,29.959 C4.809,29.966 4.809,29.973 4.809,29.979 C4.732,29.979 4.655,29.979 4.577,29.979 C4.577,29.986 4.577,29.993 4.577,30.000 C4.444,30.000 4.310,30.000 4.177,30.000 C3.808,30.000 3.444,29.968 3.165,29.877 C3.109,29.870 3.053,29.863 2.996,29.856 C2.996,29.849 2.996,29.842 2.996,29.836 C2.975,29.836 2.954,29.836 2.933,29.836 C2.933,29.829 2.933,29.822 2.933,29.815 C2.912,29.815 2.891,29.815 2.870,29.815 C2.870,29.808 2.870,29.801 2.870,29.794 C2.849,29.794 2.828,29.794 2.807,29.794 C2.807,29.788 2.807,29.781 2.807,29.774 C2.793,29.774 2.778,29.774 2.764,29.774 C2.764,29.767 2.764,29.760 2.764,29.753 C2.743,29.753 2.722,29.753 2.701,29.753 C2.701,29.746 2.701,29.740 2.701,29.733 C2.687,29.733 2.673,29.733 2.659,29.733 C2.659,29.726 2.659,29.719 2.659,29.712 C2.638,29.712 2.617,29.712 2.596,29.712 C2.596,29.705 2.596,29.698 2.596,29.692 C2.554,29.678 2.511,29.664 2.469,29.650 C2.469,29.644 2.469,29.637 2.469,29.630 C2.455,29.630 2.441,29.630 2.427,29.630 C2.427,29.623 2.427,29.616 2.427,29.609 C2.413,29.609 2.399,29.609 2.385,29.609 C2.385,29.602 2.385,29.596 2.385,29.589 C2.371,29.589 2.357,29.589 2.343,29.589 C2.343,29.582 2.343,29.575 2.343,29.568 C2.329,29.568 2.315,29.568 2.301,29.568 C2.301,29.561 2.301,29.555 2.301,29.548 C2.287,29.548 2.272,29.548 2.258,29.548 C2.258,29.541 2.258,29.534 2.258,29.527 C2.244,29.527 2.230,29.527 2.216,29.527 C2.209,29.513 2.202,29.500 2.195,29.486 C2.167,29.479 2.139,29.472 2.111,29.465 C2.104,29.452 2.097,29.438 2.090,29.424 C2.062,29.417 2.034,29.411 2.005,29.404 C1.998,29.390 1.991,29.376 1.984,29.363 C1.970,29.363 1.956,29.363 1.942,29.363 C1.942,29.356 1.942,29.349 1.942,29.342 C1.921,29.335 1.900,29.328 1.879,29.321 C1.872,29.308 1.865,29.294 1.858,29.280 C1.844,29.280 1.830,29.280 1.816,29.280 C1.809,29.267 1.802,29.253 1.795,29.239 C1.774,29.232 1.752,29.226 1.731,29.219 C1.717,29.198 1.703,29.178 1.689,29.157 C1.675,29.157 1.661,29.157 1.647,29.157 C1.640,29.143 1.633,29.130 1.626,29.116 C1.619,29.116 1.612,29.116 1.605,29.116 C1.598,29.102 1.591,29.088 1.584,29.075 C1.570,29.075 1.556,29.075 1.542,29.075 C1.514,29.041 1.485,29.006 1.457,28.972 C1.443,28.972 1.429,28.972 1.415,28.972 C1.352,28.903 1.289,28.835 1.225,28.766 C1.162,28.712 1.099,28.657 1.036,28.602 C1.036,28.588 1.036,28.574 1.036,28.561 C1.001,28.533 0.965,28.506 0.930,28.479 C0.930,28.465 0.930,28.451 0.930,28.437 C0.902,28.417 0.874,28.396 0.846,28.376 C0.839,28.355 0.832,28.335 0.825,28.314 C0.811,28.307 0.797,28.300 0.783,28.293 C0.783,28.280 0.783,28.266 0.783,28.252 C0.769,28.245 0.755,28.239 0.741,28.232 C0.733,28.211 0.726,28.191 0.719,28.170 C0.712,28.170 0.705,28.170 0.698,28.170 C0.698,28.156 0.698,28.143 0.698,28.129 C0.684,28.122 0.670,28.115 0.656,28.108 C0.649,28.088 0.642,28.067 0.635,28.047 C0.628,28.047 0.621,28.047 0.614,28.047 C0.607,28.019 0.600,27.992 0.593,27.964 C0.579,27.958 0.565,27.951 0.551,27.944 C0.551,27.930 0.551,27.917 0.551,27.903 C0.544,27.903 0.537,27.903 0.530,27.903 C0.530,27.889 0.530,27.875 0.530,27.862 C0.523,27.862 0.516,27.862 0.509,27.862 C0.509,27.848 0.509,27.834 0.509,27.821 C0.502,27.821 0.495,27.821 0.488,27.821 C0.488,27.807 0.488,27.793 0.488,27.779 C0.481,27.779 0.473,27.779 0.466,27.779 C0.466,27.766 0.466,27.752 0.466,27.738 C0.452,27.731 0.438,27.725 0.424,27.718 C0.424,27.697 0.424,27.677 0.424,27.656 C0.417,27.656 0.410,27.656 0.403,27.656 C0.403,27.642 0.403,27.629 0.403,27.615 C0.396,27.615 0.389,27.615 0.382,27.615 C0.375,27.588 0.368,27.560 0.361,27.533 C0.354,27.533 0.347,27.533 0.340,27.533 C0.340,27.512 0.340,27.492 0.340,27.471 C0.333,27.471 0.326,27.471 0.319,27.471 C0.312,27.444 0.305,27.416 0.298,27.389 C0.291,27.389 0.284,27.389 0.277,27.389 C0.270,27.348 0.263,27.307 0.256,27.265 C0.249,27.265 0.242,27.265 0.235,27.265 C0.235,27.245 0.235,27.224 0.235,27.204 C0.228,27.204 0.220,27.204 0.213,27.204 C0.213,27.183 0.213,27.163 0.213,27.142 C0.206,27.142 0.199,27.142 0.192,27.142 C0.192,27.122 0.192,27.101 0.192,27.080 C0.185,27.080 0.178,27.080 0.171,27.080 C0.164,27.032 0.157,26.984 0.150,26.936 C0.143,26.936 0.136,26.936 0.129,26.936 C0.129,26.909 0.129,26.882 0.129,26.854 C0.122,26.854 0.115,26.854 0.108,26.854 C0.108,26.820 0.108,26.786 0.108,26.751 C0.101,26.751 0.094,26.751 0.087,26.751 C0.087,26.717 0.087,26.683 0.087,26.649 C0.080,26.649 0.073,26.649 0.066,26.649 C0.066,26.607 0.066,26.566 0.066,26.525 C0.059,26.525 0.052,26.525 0.045,26.525 C0.045,26.477 0.045,26.429 0.045,26.381 C0.038,26.381 0.031,26.381 0.024,26.381 C0.024,26.313 0.024,26.244 0.024,26.176 C-0.011,26.056 0.003,25.856 0.003,25.703 C0.003,25.408 0.003,25.113 0.003,24.819 C0.003,23.619 0.003,22.420 0.003,21.221 C0.003,17.054 0.003,12.886 0.003,8.720 C0.003,7.514 0.003,6.307 0.003,5.101 C0.003,4.397 -0.030,3.650 0.150,3.127 C0.157,3.072 0.164,3.017 0.171,2.963 C0.178,2.963 0.185,2.963 0.192,2.963 C0.192,2.942 0.192,2.922 0.192,2.901 C0.199,2.901 0.206,2.901 0.213,2.901 C0.213,2.880 0.213,2.860 0.213,2.839 C0.220,2.839 0.228,2.839 0.235,2.839 C0.235,2.819 0.235,2.798 0.235,2.778 C0.242,2.778 0.249,2.778 0.256,2.778 C0.256,2.757 0.256,2.736 0.256,2.716 C0.263,2.716 0.270,2.716 0.277,2.716 C0.277,2.702 0.277,2.689 0.277,2.675 C0.284,2.675 0.291,2.675 0.298,2.675 C0.298,2.654 0.298,2.634 0.298,2.613 C0.305,2.613 0.312,2.613 0.319,2.613 C0.319,2.599 0.319,2.586 0.319,2.572 C0.326,2.572 0.333,2.572 0.340,2.572 C0.340,2.551 0.340,2.531 0.340,2.510 C0.347,2.510 0.354,2.510 0.361,2.510 C0.375,2.469 0.389,2.428 0.403,2.387 C0.410,2.387 0.417,2.387 0.424,2.387 C0.424,2.373 0.424,2.360 0.424,2.346 C0.431,2.346 0.438,2.346 0.445,2.346 C0.445,2.332 0.445,2.318 0.445,2.305 C0.452,2.305 0.459,2.305 0.466,2.305 C0.466,2.291 0.466,2.277 0.466,2.264 C0.473,2.264 0.481,2.264 0.488,2.264 C0.488,2.250 0.488,2.236 0.488,2.222 C0.495,2.222 0.502,2.222 0.509,2.222 C0.509,2.209 0.509,2.195 0.509,2.181 C0.516,2.181 0.523,2.181 0.530,2.181 C0.530,2.168 0.530,2.154 0.530,2.140 C0.544,2.133 0.558,2.127 0.572,2.120 C0.579,2.092 0.586,2.065 0.593,2.037 C0.607,2.031 0.621,2.024 0.635,2.017 C0.642,1.989 0.649,1.962 0.656,1.935 C0.670,1.928 0.684,1.921 0.698,1.914 C0.698,1.900 0.698,1.887 0.698,1.873 C0.719,1.859 0.741,1.846 0.762,1.832 C0.762,1.818 0.762,1.804 0.762,1.791 C0.776,1.784 0.790,1.777 0.804,1.770 C0.804,1.756 0.804,1.743 0.804,1.729 C0.825,1.715 0.846,1.702 0.867,1.688 C0.867,1.674 0.867,1.660 0.867,1.647 C0.895,1.626 0.923,1.606 0.951,1.585 C0.951,1.571 0.951,1.558 0.951,1.544 C1.001,1.503 1.050,1.462 1.099,1.421 C1.099,1.407 1.099,1.393 1.099,1.379 C1.127,1.359 1.155,1.338 1.183,1.318 C1.239,1.256 1.296,1.194 1.352,1.133 C1.366,1.133 1.380,1.133 1.394,1.133 C1.436,1.085 1.478,1.037 1.521,0.989 C1.535,0.989 1.549,0.989 1.563,0.989 C1.584,0.961 1.605,0.934 1.626,0.907 C1.640,0.907 1.654,0.907 1.668,0.907 C1.682,0.886 1.696,0.865 1.710,0.845 C1.724,0.845 1.738,0.845 1.752,0.845 C1.767,0.824 1.781,0.804 1.795,0.783 C1.809,0.783 1.823,0.783 1.837,0.783 C1.844,0.770 1.851,0.756 1.858,0.742 C1.879,0.735 1.900,0.728 1.921,0.722 C1.921,0.715 1.921,0.708 1.921,0.701 C1.935,0.701 1.949,0.701 1.963,0.701 C1.970,0.687 1.977,0.674 1.984,0.660 C1.998,0.660 2.012,0.660 2.027,0.660 C2.034,0.646 2.041,0.632 2.048,0.619 C2.076,0.612 2.104,0.605 2.132,0.598 C2.139,0.584 2.146,0.571 2.153,0.557 C2.167,0.557 2.181,0.557 2.195,0.557 C2.195,0.550 2.195,0.543 2.195,0.537 C2.209,0.537 2.223,0.537 2.237,0.537 C2.237,0.530 2.237,0.523 2.237,0.516 C2.251,0.516 2.265,0.516 2.280,0.516 C2.280,0.509 2.280,0.502 2.280,0.495 C2.294,0.495 2.308,0.495 2.322,0.495 C2.329,0.482 2.336,0.468 2.343,0.454 C2.371,0.447 2.399,0.441 2.427,0.434 C2.427,0.427 2.427,0.420 2.427,0.413 C2.455,0.406 2.483,0.399 2.511,0.393 C2.511,0.386 2.511,0.379 2.511,0.372 C2.533,0.372 2.554,0.372 2.575,0.372 C2.575,0.365 2.575,0.358 2.575,0.351 C2.589,0.351 2.603,0.351 2.617,0.351 C2.617,0.345 2.617,0.338 2.617,0.331 C2.645,0.324 2.673,0.317 2.701,0.310 C2.701,0.303 2.701,0.297 2.701,0.290 C2.743,0.283 2.785,0.276 2.828,0.269 C2.828,0.262 2.828,0.256 2.828,0.249 C2.842,0.249 2.856,0.249 2.870,0.249 C2.870,0.242 2.870,0.235 2.870,0.228 C3.074,0.173 3.277,0.118 3.481,0.064 C3.566,0.057 3.650,0.050 3.734,0.043 C3.734,0.036 3.734,0.029 3.734,0.022 C3.808,0.002 3.897,0.043 3.945,0.002 ZM4.261,2.798 C4.057,2.832 3.854,2.867 3.650,2.901 C3.650,2.908 3.650,2.915 3.650,2.922 C3.622,2.928 3.594,2.935 3.566,2.942 C3.559,2.956 3.551,2.970 3.544,2.983 C3.516,2.990 3.488,2.997 3.460,3.004 C3.446,3.024 3.432,3.045 3.418,3.065 C3.404,3.065 3.390,3.065 3.376,3.065 C3.270,3.175 3.165,3.285 3.060,3.394 C3.060,3.408 3.060,3.422 3.060,3.436 C3.046,3.442 3.031,3.449 3.017,3.456 C2.776,3.828 2.828,4.474 2.828,5.080 C2.828,6.218 2.828,7.356 2.828,8.493 C2.828,12.831 2.828,17.171 2.828,21.508 C2.828,22.667 2.828,23.825 2.828,24.983 C2.828,25.333 2.828,25.682 2.828,26.032 C2.835,26.032 2.842,26.032 2.849,26.032 C2.849,26.080 2.849,26.128 2.849,26.176 C2.856,26.176 2.863,26.176 2.870,26.176 C2.870,26.203 2.870,26.231 2.870,26.258 C2.877,26.258 2.884,26.258 2.891,26.258 C2.898,26.299 2.905,26.340 2.912,26.381 C2.919,26.381 2.926,26.381 2.933,26.381 C2.947,26.422 2.961,26.464 2.975,26.505 C2.982,26.505 2.989,26.505 2.996,26.505 C2.996,26.518 2.996,26.532 2.996,26.546 C3.003,26.546 3.010,26.546 3.017,26.546 C3.024,26.573 3.031,26.601 3.038,26.628 C3.053,26.635 3.067,26.642 3.081,26.649 C3.088,26.669 3.095,26.690 3.102,26.710 C3.130,26.731 3.158,26.751 3.186,26.772 C3.186,26.786 3.186,26.799 3.186,26.813 C3.200,26.820 3.214,26.827 3.228,26.834 C3.249,26.861 3.270,26.888 3.291,26.916 C3.306,26.916 3.320,26.916 3.334,26.916 C3.355,26.943 3.376,26.971 3.397,26.998 C3.411,26.998 3.425,26.998 3.439,26.998 C3.453,27.019 3.467,27.039 3.481,27.060 C3.509,27.067 3.537,27.074 3.566,27.080 C3.573,27.094 3.580,27.108 3.587,27.122 C3.615,27.128 3.643,27.135 3.671,27.142 C3.671,27.149 3.671,27.156 3.671,27.163 C3.699,27.169 3.727,27.176 3.755,27.183 C3.755,27.190 3.755,27.197 3.755,27.204 C3.776,27.204 3.797,27.204 3.819,27.204 C3.819,27.211 3.819,27.217 3.819,27.224 C3.840,27.224 3.861,27.224 3.882,27.224 C3.882,27.231 3.882,27.238 3.882,27.245 C3.903,27.245 3.924,27.245 3.945,27.245 C3.945,27.252 3.945,27.259 3.945,27.265 C3.973,27.265 4.001,27.265 4.029,27.265 C4.029,27.272 4.029,27.279 4.029,27.286 C4.079,27.286 4.128,27.286 4.177,27.286 C4.177,27.293 4.177,27.300 4.177,27.307 C4.261,27.307 4.346,27.307 4.430,27.307 C4.430,27.300 4.430,27.293 4.430,27.286 C4.472,27.286 4.514,27.286 4.556,27.286 C4.556,27.279 4.556,27.272 4.556,27.265 C4.585,27.265 4.613,27.265 4.641,27.265 C4.641,27.259 4.641,27.252 4.641,27.245 C4.662,27.245 4.683,27.245 4.704,27.245 C4.704,27.238 4.704,27.231 4.704,27.224 C4.725,27.224 4.746,27.224 4.767,27.224 C4.767,27.217 4.767,27.211 4.767,27.204 C4.809,27.190 4.852,27.176 4.894,27.163 C4.894,27.156 4.894,27.149 4.894,27.142 C4.922,27.135 4.950,27.128 4.978,27.122 C4.985,27.108 4.992,27.094 4.999,27.080 C5.013,27.080 5.027,27.080 5.041,27.080 C5.048,27.067 5.055,27.053 5.062,27.039 C5.076,27.039 5.090,27.039 5.105,27.039 C5.126,27.012 5.147,26.984 5.168,26.957 C5.182,26.957 5.196,26.957 5.210,26.957 C5.238,26.923 5.266,26.888 5.294,26.854 C5.308,26.854 5.322,26.854 5.336,26.854 C5.358,26.827 5.379,26.799 5.400,26.772 C5.414,26.772 5.428,26.772 5.442,26.772 C5.470,26.738 5.498,26.703 5.526,26.669 C5.540,26.669 5.554,26.669 5.568,26.669 C5.589,26.642 5.611,26.614 5.632,26.587 C5.646,26.587 5.660,26.587 5.674,26.587 C5.702,26.553 5.730,26.518 5.758,26.484 C5.772,26.484 5.786,26.484 5.800,26.484 C5.821,26.457 5.842,26.429 5.864,26.402 C5.878,26.402 5.892,26.402 5.906,26.402 C5.934,26.368 5.962,26.333 5.990,26.299 C6.004,26.299 6.018,26.299 6.032,26.299 C6.053,26.272 6.074,26.244 6.095,26.217 C6.109,26.217 6.124,26.217 6.138,26.217 C6.166,26.183 6.194,26.148 6.222,26.114 C6.639,25.820 7.006,25.483 7.424,25.189 C7.452,25.155 7.480,25.120 7.508,25.086 C7.522,25.086 7.536,25.086 7.550,25.086 C7.571,25.059 7.592,25.031 7.613,25.004 C7.627,25.004 7.641,25.004 7.655,25.004 C7.684,24.969 7.712,24.935 7.740,24.901 C7.754,24.901 7.768,24.901 7.782,24.901 C7.803,24.874 7.824,24.846 7.845,24.819 C7.859,24.819 7.873,24.819 7.887,24.819 C7.916,24.784 7.944,24.750 7.972,24.716 C7.986,24.716 8.000,24.716 8.014,24.716 C8.021,24.702 8.028,24.688 8.035,24.675 C8.042,24.675 8.049,24.675 8.056,24.675 C8.063,24.661 8.070,24.647 8.077,24.634 C8.091,24.634 8.105,24.634 8.119,24.634 C8.147,24.599 8.176,24.565 8.204,24.531 C8.218,24.531 8.232,24.531 8.246,24.531 C8.253,24.517 8.260,24.503 8.267,24.490 C8.274,24.490 8.281,24.490 8.288,24.490 C8.295,24.476 8.302,24.462 8.309,24.449 C8.323,24.449 8.337,24.449 8.351,24.449 C8.379,24.414 8.407,24.380 8.436,24.346 C8.450,24.346 8.464,24.346 8.478,24.346 C8.506,24.312 8.534,24.277 8.562,24.243 C8.576,24.243 8.590,24.243 8.604,24.243 C8.625,24.216 8.646,24.188 8.667,24.161 C8.681,24.161 8.696,24.161 8.710,24.161 C8.738,24.126 8.766,24.092 8.794,24.058 C8.808,24.058 8.822,24.058 8.836,24.058 C8.843,24.044 8.850,24.031 8.857,24.017 C8.864,24.017 8.871,24.017 8.878,24.017 C8.885,24.003 8.892,23.989 8.899,23.976 C8.913,23.976 8.927,23.976 8.942,23.976 C8.970,23.941 8.998,23.907 9.026,23.873 C9.040,23.873 9.054,23.873 9.068,23.873 C9.089,23.845 9.110,23.818 9.131,23.791 C9.145,23.791 9.159,23.791 9.173,23.791 C9.202,23.756 9.230,23.722 9.258,23.688 C9.272,23.688 9.286,23.688 9.300,23.688 C9.321,23.660 9.342,23.633 9.363,23.606 C9.377,23.606 9.391,23.606 9.405,23.606 C9.433,23.571 9.462,23.537 9.490,23.503 C9.504,23.503 9.518,23.503 9.532,23.503 C9.553,23.475 9.574,23.448 9.595,23.421 C9.609,23.421 9.623,23.421 9.637,23.421 C9.665,23.386 9.693,23.352 9.722,23.318 C9.736,23.318 9.750,23.318 9.764,23.318 C9.785,23.290 9.806,23.263 9.827,23.236 C9.841,23.236 9.855,23.236 9.869,23.236 C9.897,23.201 9.925,23.167 9.953,23.133 C9.968,23.133 9.982,23.133 9.996,23.133 C10.017,23.105 10.038,23.078 10.059,23.050 C10.073,23.050 10.087,23.050 10.101,23.050 C10.129,23.016 10.157,22.982 10.185,22.948 C10.199,22.948 10.213,22.948 10.228,22.948 C10.249,22.920 10.270,22.893 10.291,22.865 C10.305,22.865 10.319,22.865 10.333,22.865 C10.361,22.831 10.389,22.797 10.417,22.763 C10.431,22.763 10.445,22.763 10.459,22.763 C10.481,22.735 10.502,22.708 10.523,22.680 C10.537,22.680 10.551,22.680 10.565,22.680 C10.593,22.646 10.621,22.612 10.649,22.578 C10.663,22.578 10.677,22.578 10.691,22.578 C10.719,22.543 10.748,22.509 10.776,22.475 C10.790,22.475 10.804,22.475 10.818,22.475 C10.825,22.461 10.832,22.447 10.839,22.434 C10.846,22.434 10.853,22.434 10.860,22.434 C10.867,22.420 10.874,22.406 10.881,22.393 C10.895,22.393 10.909,22.393 10.923,22.393 C10.951,22.358 10.979,22.324 11.008,22.290 C11.022,22.290 11.036,22.290 11.050,22.290 C11.057,22.276 11.064,22.262 11.071,22.249 C11.078,22.249 11.085,22.249 11.092,22.249 C11.099,22.235 11.106,22.221 11.113,22.207 C11.127,22.207 11.141,22.207 11.155,22.207 C11.183,22.173 11.211,22.139 11.239,22.105 C11.254,22.105 11.268,22.105 11.282,22.105 C11.303,22.077 11.324,22.050 11.345,22.022 C11.359,22.022 11.373,22.022 11.387,22.022 C11.415,21.988 11.443,21.954 11.471,21.920 C11.485,21.920 11.499,21.920 11.514,21.920 C11.535,21.892 11.556,21.865 11.577,21.837 C11.591,21.837 11.605,21.837 11.619,21.837 C11.647,21.803 11.675,21.769 11.703,21.735 C11.717,21.735 11.731,21.735 11.745,21.735 C11.752,21.721 11.760,21.707 11.767,21.693 C11.774,21.693 11.781,21.693 11.788,21.693 C11.795,21.680 11.802,21.666 11.809,21.652 C11.823,21.652 11.837,21.652 11.851,21.652 C11.879,21.618 11.907,21.584 11.935,21.550 C11.949,21.550 11.963,21.550 11.977,21.550 C11.984,21.536 11.991,21.522 11.998,21.508 C12.005,21.508 12.012,21.508 12.020,21.508 C12.027,21.495 12.034,21.481 12.041,21.467 C12.055,21.467 12.069,21.467 12.083,21.467 C12.111,21.433 12.139,21.399 12.167,21.365 C12.181,21.365 12.195,21.365 12.209,21.365 C12.230,21.337 12.251,21.310 12.273,21.282 C12.287,21.282 12.301,21.282 12.315,21.282 C12.343,21.248 12.371,21.214 12.399,21.179 C12.413,21.179 12.427,21.179 12.441,21.179 C12.462,21.152 12.483,21.125 12.504,21.097 C12.518,21.097 12.533,21.097 12.547,21.097 C12.554,21.084 12.561,21.070 12.568,21.056 C12.589,21.042 12.610,21.029 12.631,21.015 C12.631,21.008 12.631,21.001 12.631,20.994 C12.645,20.994 12.659,20.994 12.673,20.994 C12.701,20.960 12.729,20.926 12.757,20.892 C13.212,20.572 13.610,20.204 14.065,19.884 C14.093,19.850 14.121,19.816 14.149,19.781 C14.163,19.781 14.177,19.781 14.191,19.781 C14.212,19.754 14.233,19.726 14.254,19.699 C14.268,19.699 14.282,19.699 14.296,19.699 C14.325,19.665 14.353,19.631 14.381,19.596 C14.395,19.596 14.409,19.596 14.423,19.596 C14.430,19.583 14.437,19.569 14.444,19.555 C14.451,19.555 14.458,19.555 14.465,19.555 C14.472,19.541 14.479,19.528 14.486,19.514 C14.500,19.514 14.514,19.514 14.528,19.514 C14.556,19.480 14.585,19.446 14.613,19.411 C14.627,19.411 14.641,19.411 14.655,19.411 C14.662,19.398 14.669,19.384 14.676,19.370 C14.683,19.370 14.690,19.370 14.697,19.370 C14.704,19.356 14.711,19.343 14.718,19.329 C14.732,19.329 14.746,19.329 14.760,19.329 C14.788,19.295 14.816,19.260 14.845,19.226 C14.859,19.226 14.873,19.226 14.887,19.226 C14.915,19.192 14.943,19.158 14.971,19.123 C14.985,19.123 14.999,19.123 15.013,19.123 C15.034,19.096 15.055,19.069 15.076,19.041 C15.091,19.041 15.105,19.041 15.119,19.041 C15.147,19.007 15.175,18.973 15.203,18.938 C15.217,18.938 15.231,18.938 15.245,18.938 C15.266,18.911 15.287,18.884 15.308,18.856 C15.322,18.856 15.336,18.856 15.351,18.856 C15.379,18.822 15.407,18.788 15.435,18.753 C15.449,18.753 15.463,18.753 15.477,18.753 C15.498,18.726 15.519,18.698 15.540,18.671 C15.554,18.671 15.568,18.671 15.582,18.671 C15.611,18.637 15.639,18.603 15.667,18.568 C15.681,18.568 15.695,18.568 15.709,18.568 C15.730,18.541 15.751,18.513 15.772,18.486 C15.786,18.486 15.800,18.486 15.814,18.486 C15.842,18.452 15.871,18.417 15.899,18.383 C15.913,18.383 15.927,18.383 15.941,18.383 C15.962,18.356 15.983,18.328 16.004,18.301 C16.018,18.301 16.032,18.301 16.046,18.301 C16.074,18.267 16.102,18.232 16.131,18.198 C16.629,17.847 17.065,17.439 17.564,17.088 C17.592,17.054 17.620,17.019 17.648,16.985 C17.663,16.985 17.677,16.985 17.691,16.985 C17.712,16.958 17.733,16.930 17.754,16.903 C17.768,16.903 17.782,16.903 17.796,16.903 C17.824,16.869 17.852,16.834 17.880,16.800 C17.894,16.800 17.909,16.800 17.923,16.800 C17.944,16.773 17.965,16.745 17.986,16.718 C18.000,16.718 18.014,16.718 18.028,16.718 C18.056,16.684 18.084,16.649 18.112,16.615 C18.126,16.615 18.140,16.615 18.154,16.615 C18.176,16.588 18.197,16.560 18.218,16.533 C18.232,16.533 18.246,16.533 18.260,16.533 C18.288,16.498 18.316,16.464 18.344,16.430 C18.358,16.430 18.372,16.430 18.386,16.430 C18.407,16.403 18.429,16.375 18.450,16.348 C18.464,16.348 18.478,16.348 18.492,16.348 C18.520,16.313 18.548,16.279 18.576,16.245 C18.590,16.245 18.604,16.245 18.618,16.245 C18.639,16.217 18.660,16.190 18.682,16.163 C18.696,16.163 18.710,16.163 18.724,16.163 C18.745,16.135 18.766,16.108 18.787,16.080 C18.822,16.053 18.857,16.026 18.892,15.998 C18.892,15.984 18.892,15.971 18.892,15.957 C18.913,15.943 18.935,15.930 18.956,15.916 C18.956,15.902 18.956,15.888 18.956,15.875 C18.970,15.868 18.984,15.861 18.998,15.854 C19.012,15.813 19.026,15.772 19.040,15.731 C19.047,15.731 19.054,15.731 19.061,15.731 C19.061,15.717 19.061,15.703 19.061,15.690 C19.068,15.690 19.075,15.690 19.082,15.690 C19.089,15.649 19.096,15.608 19.103,15.566 C19.110,15.566 19.117,15.566 19.124,15.566 C19.124,15.532 19.124,15.498 19.124,15.464 C19.131,15.464 19.138,15.464 19.145,15.464 C19.145,15.416 19.145,15.368 19.145,15.320 C19.242,14.987 19.071,14.497 18.956,14.292 C18.949,14.292 18.942,14.292 18.935,14.292 C18.935,14.278 18.935,14.264 18.935,14.250 C18.920,14.244 18.906,14.237 18.892,14.230 C18.892,14.216 18.892,14.203 18.892,14.189 C18.878,14.182 18.864,14.175 18.850,14.168 C18.850,14.155 18.850,14.141 18.850,14.127 C18.815,14.100 18.780,14.072 18.745,14.045 C18.745,14.031 18.745,14.017 18.745,14.004 C18.731,13.997 18.717,13.990 18.703,13.983 C18.703,13.976 18.703,13.970 18.703,13.963 C18.689,13.963 18.674,13.963 18.660,13.963 C18.632,13.928 18.604,13.894 18.576,13.860 C18.562,13.860 18.548,13.860 18.534,13.860 C18.513,13.832 18.492,13.805 18.471,13.778 C18.457,13.778 18.443,13.778 18.429,13.778 C18.400,13.743 18.372,13.709 18.344,13.675 C18.330,13.675 18.316,13.675 18.302,13.675 C18.274,13.641 18.246,13.606 18.218,13.572 C18.204,13.572 18.190,13.572 18.176,13.572 C18.147,13.538 18.119,13.503 18.091,13.469 C18.077,13.469 18.063,13.469 18.049,13.469 C18.028,13.442 18.007,13.414 17.986,13.387 C17.972,13.387 17.958,13.387 17.944,13.387 C17.916,13.353 17.887,13.318 17.859,13.284 C17.845,13.284 17.831,13.284 17.817,13.284 C17.789,13.250 17.761,13.216 17.733,13.181 C17.719,13.181 17.705,13.181 17.691,13.181 C17.663,13.147 17.634,13.113 17.606,13.079 C17.592,13.079 17.578,13.079 17.564,13.079 C17.557,13.065 17.550,13.051 17.543,13.037 C17.536,13.037 17.529,13.037 17.522,13.037 C17.515,13.024 17.508,13.010 17.501,12.996 C17.487,12.996 17.473,12.996 17.459,12.996 C17.431,12.962 17.403,12.928 17.374,12.893 C17.360,12.893 17.346,12.893 17.332,12.893 C17.304,12.859 17.276,12.825 17.248,12.791 C17.234,12.791 17.220,12.791 17.206,12.791 C17.178,12.756 17.150,12.722 17.121,12.688 C17.107,12.688 17.093,12.688 17.079,12.688 C17.058,12.660 17.037,12.633 17.016,12.606 C17.002,12.606 16.988,12.606 16.974,12.606 C16.967,12.592 16.960,12.578 16.953,12.565 C16.932,12.551 16.911,12.537 16.890,12.523 C16.890,12.517 16.890,12.510 16.890,12.503 C16.875,12.503 16.861,12.503 16.847,12.503 C16.819,12.469 16.791,12.434 16.763,12.400 C16.749,12.400 16.735,12.400 16.721,12.400 C16.693,12.366 16.665,12.331 16.637,12.297 C16.622,12.297 16.608,12.297 16.594,12.297 C16.573,12.270 16.552,12.242 16.531,12.215 C16.517,12.215 16.503,12.215 16.489,12.215 C16.461,12.181 16.433,12.146 16.405,12.112 C16.391,12.112 16.377,12.112 16.362,12.112 C16.355,12.098 16.348,12.085 16.341,12.071 C16.320,12.057 16.299,12.044 16.278,12.030 C16.278,12.023 16.278,12.016 16.278,12.009 C16.264,12.009 16.250,12.009 16.236,12.009 C16.208,11.975 16.180,11.941 16.152,11.907 C16.138,11.907 16.124,11.907 16.109,11.907 C16.102,11.893 16.095,11.879 16.088,11.865 C16.081,11.865 16.074,11.865 16.067,11.865 C16.060,11.852 16.053,11.838 16.046,11.824 C16.032,11.824 16.018,11.824 16.004,11.824 C15.976,11.790 15.948,11.756 15.920,11.722 C15.906,11.722 15.892,11.722 15.878,11.722 C15.871,11.708 15.864,11.694 15.856,11.680 C15.835,11.667 15.814,11.653 15.793,11.639 C15.793,11.632 15.793,11.626 15.793,11.619 C15.779,11.619 15.765,11.619 15.751,11.619 C15.723,11.584 15.695,11.550 15.667,11.516 C15.653,11.516 15.639,11.516 15.625,11.516 C15.618,11.502 15.611,11.489 15.604,11.475 C15.596,11.475 15.589,11.475 15.582,11.475 C15.575,11.461 15.568,11.447 15.561,11.434 C15.547,11.434 15.533,11.434 15.519,11.434 C15.491,11.399 15.463,11.365 15.435,11.331 C15.421,11.331 15.407,11.331 15.393,11.331 C15.365,11.297 15.336,11.262 15.308,11.228 C15.294,11.228 15.280,11.228 15.266,11.228 C15.238,11.194 15.210,11.160 15.182,11.125 C15.168,11.125 15.154,11.125 15.140,11.125 C15.119,11.098 15.098,11.070 15.076,11.043 C15.062,11.043 15.048,11.043 15.034,11.043 C15.006,11.009 14.978,10.974 14.950,10.940 C14.936,10.940 14.922,10.940 14.908,10.940 C14.880,10.906 14.852,10.872 14.823,10.837 C14.809,10.837 14.795,10.837 14.781,10.837 C14.753,10.803 14.725,10.769 14.697,10.735 C14.683,10.735 14.669,10.735 14.655,10.735 C14.634,10.707 14.613,10.680 14.592,10.652 C14.578,10.652 14.563,10.652 14.549,10.652 C14.521,10.618 14.493,10.584 14.465,10.550 C14.451,10.550 14.437,10.550 14.423,10.550 C14.395,10.515 14.367,10.481 14.339,10.447 C14.325,10.447 14.310,10.447 14.296,10.447 C14.268,10.413 14.240,10.378 14.212,10.344 C14.198,10.344 14.184,10.344 14.170,10.344 C14.149,10.317 14.128,10.289 14.107,10.262 C14.093,10.262 14.079,10.262 14.065,10.262 C14.036,10.227 14.008,10.193 13.980,10.159 C13.966,10.159 13.952,10.159 13.938,10.159 C13.910,10.125 13.882,10.090 13.854,10.056 C13.840,10.056 13.826,10.056 13.812,10.056 C13.783,10.022 13.755,9.988 13.727,9.953 C13.713,9.953 13.699,9.953 13.685,9.953 C13.664,9.926 13.643,9.898 13.622,9.871 C13.608,9.871 13.594,9.871 13.580,9.871 C13.552,9.837 13.523,9.803 13.495,9.768 C13.481,9.768 13.467,9.768 13.453,9.768 C13.446,9.755 13.439,9.741 13.432,9.727 C13.411,9.713 13.390,9.700 13.369,9.686 C13.369,9.679 13.369,9.672 13.369,9.665 C13.355,9.665 13.341,9.665 13.327,9.665 C13.299,9.631 13.270,9.597 13.242,9.563 C13.228,9.563 13.214,9.563 13.200,9.563 C13.193,9.549 13.186,9.535 13.179,9.522 C13.172,9.522 13.165,9.522 13.158,9.522 C13.151,9.508 13.144,9.494 13.137,9.480 C13.123,9.480 13.109,9.480 13.095,9.480 C13.067,9.446 13.038,9.412 13.010,9.378 C12.996,9.378 12.982,9.378 12.968,9.378 C12.940,9.343 12.912,9.309 12.884,9.275 C12.870,9.275 12.856,9.275 12.842,9.275 C12.814,9.241 12.786,9.206 12.757,9.172 C12.743,9.172 12.729,9.172 12.715,9.172 C12.694,9.145 12.673,9.117 12.652,9.090 C12.638,9.090 12.624,9.090 12.610,9.090 C12.603,9.076 12.596,9.062 12.589,9.049 C12.568,9.035 12.547,9.021 12.525,9.008 C12.525,9.001 12.525,8.994 12.525,8.987 C12.511,8.987 12.497,8.987 12.483,8.987 C12.455,8.953 12.427,8.918 12.399,8.884 C12.385,8.884 12.371,8.884 12.357,8.884 C12.329,8.850 12.301,8.816 12.273,8.781 C12.258,8.781 12.244,8.781 12.230,8.781 C12.209,8.754 12.188,8.727 12.167,8.699 C12.153,8.699 12.139,8.699 12.125,8.699 C12.097,8.665 12.069,8.631 12.041,8.596 C12.027,8.596 12.012,8.596 11.998,8.596 C11.970,8.562 11.942,8.528 11.914,8.493 C11.900,8.493 11.886,8.493 11.872,8.493 C11.851,8.466 11.830,8.439 11.809,8.411 C11.795,8.411 11.781,8.411 11.767,8.411 C11.760,8.398 11.752,8.384 11.745,8.370 C11.724,8.356 11.703,8.343 11.682,8.329 C11.682,8.322 11.682,8.315 11.682,8.308 C11.668,8.308 11.654,8.308 11.640,8.308 C11.612,8.274 11.584,8.240 11.556,8.206 C11.542,8.206 11.528,8.206 11.514,8.206 C11.485,8.171 11.457,8.137 11.429,8.103 C11.415,8.103 11.401,8.103 11.387,8.103 C11.380,8.089 11.373,8.075 11.366,8.062 C11.359,8.062 11.352,8.062 11.345,8.062 C11.338,8.048 11.331,8.034 11.324,8.021 C11.310,8.021 11.296,8.021 11.282,8.021 C11.254,7.986 11.225,7.952 11.197,7.918 C11.183,7.918 11.169,7.918 11.155,7.918 C11.127,7.884 11.099,7.849 11.071,7.815 C11.057,7.815 11.043,7.815 11.029,7.815 C11.001,7.781 10.972,7.746 10.944,7.712 C10.930,7.712 10.916,7.712 10.902,7.712 C10.881,7.685 10.860,7.657 10.839,7.630 C10.825,7.630 10.811,7.630 10.797,7.630 C10.769,7.596 10.741,7.561 10.712,7.527 C10.698,7.527 10.684,7.527 10.670,7.527 C10.663,7.513 10.656,7.500 10.649,7.486 C10.628,7.472 10.607,7.459 10.586,7.445 C10.586,7.438 10.586,7.431 10.586,7.424 C10.572,7.424 10.558,7.424 10.544,7.424 C10.516,7.390 10.488,7.356 10.459,7.322 C10.445,7.322 10.431,7.322 10.417,7.322 C10.410,7.308 10.403,7.294 10.396,7.280 C10.389,7.280 10.382,7.280 10.375,7.280 C10.368,7.267 10.361,7.253 10.354,7.239 C10.340,7.239 10.326,7.239 10.312,7.239 C10.284,7.205 10.256,7.171 10.228,7.136 C10.213,7.136 10.199,7.136 10.185,7.136 C10.178,7.123 10.171,7.109 10.164,7.095 C10.143,7.082 10.122,7.068 10.101,7.054 C10.101,7.047 10.101,7.041 10.101,7.034 C10.087,7.034 10.073,7.034 10.059,7.034 C10.031,6.999 10.003,6.965 9.975,6.931 C9.960,6.931 9.946,6.931 9.932,6.931 C9.925,6.917 9.918,6.903 9.911,6.890 C9.904,6.890 9.897,6.890 9.890,6.890 C9.883,6.876 9.876,6.862 9.869,6.849 C9.855,6.849 9.841,6.849 9.827,6.849 C9.799,6.814 9.771,6.780 9.743,6.746 C9.729,6.746 9.715,6.746 9.700,6.746 C9.672,6.712 9.644,6.677 9.616,6.643 C9.602,6.643 9.588,6.643 9.574,6.643 C9.546,6.609 9.518,6.574 9.490,6.540 C9.476,6.540 9.462,6.540 9.447,6.540 C9.426,6.513 9.405,6.485 9.384,6.458 C9.370,6.458 9.356,6.458 9.342,6.458 C9.314,6.424 9.286,6.389 9.258,6.355 C9.244,6.355 9.230,6.355 9.216,6.355 C9.187,6.321 9.159,6.287 9.131,6.252 C9.117,6.252 9.103,6.252 9.089,6.252 C9.061,6.218 9.033,6.184 9.005,6.150 C8.991,6.150 8.977,6.150 8.963,6.150 C8.942,6.122 8.920,6.095 8.899,6.067 C8.885,6.067 8.871,6.067 8.857,6.067 C8.829,6.033 8.801,5.999 8.773,5.965 C8.759,5.965 8.745,5.965 8.731,5.965 C8.703,5.930 8.674,5.896 8.646,5.862 C8.632,5.862 8.618,5.862 8.604,5.862 C8.576,5.827 8.548,5.793 8.520,5.759 C8.506,5.759 8.492,5.759 8.478,5.759 C8.471,5.745 8.464,5.732 8.457,5.718 C8.450,5.718 8.443,5.718 8.436,5.718 C8.429,5.704 8.421,5.690 8.414,5.677 C8.400,5.677 8.386,5.677 8.372,5.677 C8.344,5.642 8.316,5.608 8.288,5.574 C8.274,5.574 8.260,5.574 8.246,5.574 C8.218,5.540 8.190,5.505 8.161,5.471 C8.147,5.471 8.133,5.471 8.119,5.471 C8.091,5.437 8.063,5.403 8.035,5.368 C8.021,5.368 8.007,5.368 7.993,5.368 C7.972,5.341 7.951,5.313 7.930,5.286 C7.916,5.286 7.901,5.286 7.887,5.286 C7.859,5.252 7.831,5.217 7.803,5.183 C7.789,5.183 7.775,5.183 7.761,5.183 C7.733,5.149 7.705,5.115 7.677,5.080 C7.663,5.080 7.648,5.080 7.634,5.080 C7.606,5.046 7.578,5.012 7.550,4.978 C7.536,4.978 7.522,4.978 7.508,4.978 C7.487,4.950 7.466,4.923 7.445,4.895 C7.431,4.895 7.417,4.895 7.403,4.895 C7.374,4.861 7.346,4.827 7.318,4.793 C7.304,4.793 7.290,4.793 7.276,4.793 C7.269,4.779 7.262,4.765 7.255,4.751 C7.234,4.738 7.213,4.724 7.192,4.710 C7.192,4.703 7.192,4.697 7.192,4.690 C7.178,4.690 7.164,4.690 7.150,4.690 C7.121,4.656 7.093,4.621 7.065,4.587 C7.051,4.587 7.037,4.587 7.023,4.587 C7.002,4.560 6.981,4.532 6.960,4.505 C6.946,4.505 6.932,4.505 6.918,4.505 C6.890,4.470 6.861,4.436 6.833,4.402 C6.819,4.402 6.805,4.402 6.791,4.402 C6.763,4.368 6.735,4.333 6.707,4.299 C6.693,4.299 6.679,4.299 6.665,4.299 C6.637,4.265 6.608,4.231 6.580,4.196 C6.566,4.196 6.552,4.196 6.538,4.196 C6.531,4.183 6.524,4.169 6.517,4.155 C6.510,4.155 6.503,4.155 6.496,4.155 C6.489,4.141 6.482,4.128 6.475,4.114 C6.461,4.114 6.447,4.114 6.433,4.114 C6.405,4.080 6.377,4.046 6.348,4.011 C6.334,4.011 6.320,4.011 6.306,4.011 C6.278,3.977 6.250,3.943 6.222,3.908 C6.208,3.908 6.194,3.908 6.180,3.908 C6.152,3.874 6.124,3.840 6.095,3.806 C6.081,3.806 6.067,3.806 6.053,3.806 C6.032,3.778 6.011,3.751 5.990,3.723 C5.976,3.723 5.962,3.723 5.948,3.723 C5.920,3.689 5.892,3.655 5.864,3.621 C5.849,3.621 5.835,3.621 5.821,3.621 C5.793,3.586 5.765,3.552 5.737,3.518 C5.723,3.518 5.709,3.518 5.695,3.518 C5.667,3.484 5.639,3.449 5.611,3.415 C5.596,3.415 5.582,3.415 5.568,3.415 C5.547,3.388 5.526,3.360 5.505,3.333 C5.491,3.333 5.477,3.333 5.463,3.333 C5.435,3.298 5.407,3.264 5.379,3.230 C5.365,3.230 5.351,3.230 5.336,3.230 C5.308,3.196 5.280,3.161 5.252,3.127 C5.012,2.959 4.658,2.806 4.261,2.798 Z"/>
</svg>