<svg 
 xmlns="http://www.w3.org/2000/svg"
 xmlns:xlink="http://www.w3.org/1999/xlink"
 width="14px" height="26px">
<path fill-rule="evenodd"  fill="rgb(0, 0, 0)"
 d="M14.000,0.183 C14.000,1.561 14.000,2.939 14.000,4.317 C13.280,4.318 12.561,4.319 11.841,4.319 C11.718,4.319 11.596,4.319 11.473,4.319 C11.435,4.319 11.397,4.319 11.359,4.319 C11.340,4.319 11.315,4.318 11.300,4.322 C11.275,4.322 11.250,4.322 11.225,4.322 C11.210,4.326 11.183,4.320 11.168,4.324 C11.168,4.325 11.168,4.326 11.168,4.327 C11.149,4.328 11.130,4.329 11.111,4.329 C11.101,4.329 11.092,4.329 11.082,4.329 C11.082,4.330 11.082,4.331 11.082,4.332 C11.071,4.332 11.060,4.332 11.049,4.332 C11.049,4.333 11.049,4.334 11.049,4.334 C11.028,4.335 11.007,4.336 10.987,4.337 C10.987,4.338 10.987,4.339 10.987,4.339 C10.978,4.339 10.969,4.339 10.961,4.339 C10.961,4.340 10.961,4.341 10.961,4.342 C10.952,4.342 10.944,4.342 10.935,4.342 C10.935,4.343 10.935,4.344 10.935,4.344 C10.926,4.344 10.918,4.344 10.909,4.344 C10.909,4.345 10.909,4.346 10.909,4.347 C10.901,4.347 10.893,4.347 10.886,4.347 C10.856,4.355 10.817,4.354 10.787,4.362 C10.764,4.364 10.741,4.367 10.717,4.369 C10.651,4.382 10.585,4.394 10.518,4.407 C10.471,4.422 10.416,4.431 10.371,4.447 C10.367,4.447 10.364,4.447 10.360,4.447 C10.360,4.448 10.360,4.448 10.360,4.449 C10.358,4.449 10.355,4.449 10.352,4.449 C10.352,4.450 10.352,4.451 10.352,4.452 C10.349,4.452 10.346,4.452 10.342,4.452 C10.342,4.453 10.342,4.453 10.342,4.454 C10.339,4.454 10.337,4.454 10.334,4.454 C10.334,4.455 10.334,4.456 10.334,4.457 C10.332,4.457 10.329,4.457 10.327,4.457 C10.327,4.458 10.327,4.458 10.327,4.459 C10.324,4.459 10.321,4.459 10.319,4.459 C10.319,4.460 10.319,4.461 10.319,4.462 C10.316,4.462 10.314,4.462 10.311,4.462 C10.311,4.463 10.311,4.463 10.311,4.464 C10.308,4.464 10.306,4.464 10.303,4.464 C10.303,4.465 10.303,4.466 10.303,4.467 C10.292,4.469 10.281,4.472 10.270,4.474 C10.270,4.475 10.270,4.476 10.270,4.477 C10.268,4.477 10.266,4.477 10.264,4.477 C10.264,4.478 10.264,4.478 10.264,4.479 C10.262,4.479 10.259,4.479 10.257,4.479 C10.257,4.480 10.257,4.481 10.257,4.482 C10.254,4.482 10.251,4.482 10.249,4.482 C10.249,4.483 10.249,4.483 10.249,4.484 C10.246,4.484 10.244,4.484 10.241,4.484 C10.241,4.485 10.241,4.486 10.241,4.487 C10.239,4.487 10.236,4.487 10.233,4.487 C10.233,4.488 10.233,4.488 10.233,4.489 C10.231,4.489 10.228,4.489 10.226,4.489 C10.226,4.490 10.226,4.491 10.226,4.492 C10.224,4.492 10.222,4.492 10.220,4.492 C10.220,4.493 10.220,4.493 10.220,4.494 C10.215,4.495 10.210,4.496 10.205,4.497 C10.205,4.498 10.205,4.498 10.205,4.499 C10.203,4.499 10.201,4.499 10.200,4.499 C10.200,4.500 10.200,4.501 10.200,4.502 C10.197,4.502 10.195,4.502 10.192,4.502 C10.192,4.503 10.192,4.503 10.192,4.504 C10.189,4.504 10.187,4.504 10.184,4.504 C10.184,4.505 10.184,4.506 10.184,4.507 C10.182,4.507 10.181,4.507 10.179,4.507 C10.179,4.508 10.179,4.508 10.179,4.509 C10.176,4.509 10.174,4.509 10.171,4.509 C10.171,4.510 10.171,4.511 10.171,4.512 C10.167,4.513 10.163,4.513 10.158,4.514 C10.158,4.515 10.158,4.516 10.158,4.517 C10.157,4.517 10.155,4.517 10.153,4.517 C10.153,4.518 10.153,4.518 10.153,4.519 C10.151,4.519 10.148,4.519 10.145,4.519 C10.145,4.520 10.145,4.521 10.145,4.522 C10.142,4.523 10.138,4.523 10.135,4.524 C10.135,4.525 10.135,4.526 10.135,4.527 C10.132,4.527 10.130,4.527 10.127,4.527 C10.127,4.528 10.127,4.528 10.127,4.529 C10.125,4.529 10.124,4.529 10.122,4.529 C10.122,4.530 10.122,4.531 10.122,4.532 C10.119,4.532 10.117,4.532 10.114,4.532 C10.114,4.533 10.114,4.533 10.114,4.534 C10.111,4.535 10.107,4.536 10.104,4.537 C10.104,4.537 10.104,4.538 10.104,4.539 C10.102,4.539 10.100,4.539 10.099,4.539 C10.099,4.540 10.099,4.541 10.099,4.542 C10.096,4.542 10.094,4.542 10.091,4.542 C10.091,4.542 10.091,4.543 10.091,4.544 C10.089,4.544 10.088,4.544 10.086,4.544 C10.086,4.545 10.086,4.546 10.086,4.547 C10.081,4.548 10.075,4.550 10.070,4.552 C10.070,4.552 10.070,4.553 10.070,4.554 C10.068,4.554 10.065,4.554 10.063,4.554 C10.063,4.555 10.063,4.556 10.063,4.557 C10.059,4.557 10.056,4.558 10.052,4.559 C10.052,4.560 10.052,4.561 10.052,4.562 C10.047,4.563 10.042,4.565 10.037,4.567 C10.037,4.567 10.037,4.568 10.037,4.569 C10.033,4.570 10.030,4.571 10.026,4.572 C10.026,4.572 10.026,4.573 10.026,4.574 C10.023,4.575 10.019,4.576 10.016,4.577 C10.016,4.577 10.016,4.578 10.016,4.579 C10.014,4.579 10.012,4.579 10.011,4.579 C10.011,4.580 10.011,4.581 10.011,4.582 C10.009,4.582 10.007,4.582 10.006,4.582 C10.006,4.582 10.006,4.583 10.006,4.584 C10.004,4.584 10.002,4.584 10.000,4.584 C10.000,4.585 10.000,4.586 10.000,4.587 C9.999,4.587 9.997,4.587 9.995,4.587 C9.995,4.587 9.995,4.588 9.995,4.589 C9.993,4.589 9.992,4.589 9.990,4.589 C9.990,4.590 9.990,4.591 9.990,4.592 C9.988,4.592 9.987,4.592 9.985,4.592 C9.985,4.592 9.985,4.593 9.985,4.594 C9.983,4.594 9.981,4.594 9.980,4.594 C9.980,4.595 9.980,4.596 9.980,4.597 C9.978,4.597 9.976,4.597 9.974,4.597 C9.974,4.597 9.974,4.598 9.974,4.599 C9.973,4.599 9.971,4.599 9.969,4.599 C9.968,4.601 9.968,4.602 9.967,4.604 C9.965,4.604 9.963,4.604 9.962,4.604 C9.962,4.605 9.962,4.606 9.962,4.607 C9.960,4.607 9.958,4.607 9.956,4.607 C9.956,4.607 9.956,4.608 9.956,4.609 C9.955,4.609 9.953,4.609 9.951,4.609 C9.951,4.610 9.951,4.611 9.951,4.612 C9.949,4.612 9.948,4.612 9.946,4.612 C9.946,4.612 9.946,4.613 9.946,4.614 C9.944,4.614 9.943,4.614 9.941,4.614 C9.940,4.616 9.939,4.617 9.938,4.619 C9.933,4.621 9.928,4.622 9.923,4.624 C9.922,4.626 9.921,4.627 9.920,4.629 C9.917,4.630 9.913,4.631 9.910,4.632 C9.909,4.633 9.908,4.635 9.907,4.637 C9.904,4.637 9.900,4.638 9.897,4.639 C9.896,4.641 9.895,4.642 9.894,4.644 C9.891,4.645 9.887,4.646 9.884,4.647 C9.884,4.647 9.884,4.648 9.884,4.649 C9.881,4.650 9.879,4.651 9.876,4.651 C9.875,4.653 9.874,4.655 9.874,4.656 C9.870,4.657 9.867,4.658 9.863,4.659 C9.862,4.661 9.861,4.662 9.861,4.664 C9.859,4.664 9.857,4.664 9.855,4.664 C9.855,4.666 9.854,4.667 9.853,4.669 C9.851,4.669 9.849,4.669 9.848,4.669 C9.848,4.670 9.848,4.671 9.848,4.671 C9.845,4.672 9.842,4.673 9.840,4.674 C9.839,4.676 9.838,4.677 9.837,4.679 C9.836,4.679 9.834,4.679 9.832,4.679 C9.831,4.681 9.830,4.682 9.830,4.684 C9.828,4.684 9.826,4.684 9.824,4.684 C9.824,4.685 9.824,4.686 9.824,4.686 C9.822,4.687 9.819,4.688 9.817,4.689 C9.816,4.691 9.815,4.692 9.814,4.694 C9.812,4.694 9.811,4.694 9.809,4.694 C9.807,4.696 9.805,4.699 9.804,4.701 C9.802,4.701 9.800,4.701 9.798,4.701 C9.798,4.703 9.797,4.705 9.796,4.706 C9.794,4.706 9.792,4.706 9.791,4.706 C9.789,4.709 9.787,4.711 9.786,4.714 C9.784,4.714 9.782,4.714 9.780,4.714 C9.779,4.716 9.779,4.717 9.778,4.719 C9.776,4.719 9.774,4.719 9.773,4.719 C9.772,4.721 9.771,4.722 9.770,4.724 C9.767,4.725 9.765,4.726 9.762,4.726 C9.760,4.730 9.757,4.733 9.754,4.736 C9.753,4.736 9.751,4.736 9.749,4.736 C9.748,4.739 9.746,4.741 9.744,4.744 C9.742,4.744 9.741,4.744 9.739,4.744 C9.736,4.747 9.734,4.751 9.731,4.754 C9.729,4.754 9.728,4.754 9.726,4.754 C9.723,4.757 9.721,4.761 9.718,4.764 C9.716,4.764 9.715,4.764 9.713,4.764 C9.710,4.768 9.706,4.772 9.703,4.776 C9.701,4.776 9.699,4.776 9.697,4.776 C9.693,4.781 9.689,4.786 9.685,4.791 C9.683,4.791 9.681,4.791 9.679,4.791 C9.673,4.798 9.667,4.805 9.661,4.811 C9.660,4.811 9.658,4.811 9.656,4.811 C9.647,4.821 9.637,4.831 9.628,4.841 C9.607,4.861 9.585,4.878 9.568,4.901 C9.560,4.908 9.553,4.914 9.545,4.921 C9.545,4.923 9.545,4.924 9.545,4.926 C9.540,4.930 9.534,4.934 9.529,4.939 C9.529,4.940 9.529,4.942 9.529,4.944 C9.525,4.947 9.521,4.950 9.516,4.954 C9.516,4.955 9.516,4.957 9.516,4.959 C9.513,4.961 9.509,4.964 9.506,4.966 C9.506,4.968 9.506,4.969 9.506,4.971 C9.502,4.974 9.499,4.976 9.496,4.979 C9.495,4.981 9.494,4.984 9.493,4.986 C9.491,4.987 9.490,4.988 9.488,4.988 C9.488,4.990 9.488,4.992 9.488,4.993 C9.485,4.995 9.483,4.997 9.480,4.998 C9.480,5.000 9.480,5.002 9.480,5.003 C9.477,5.005 9.475,5.007 9.472,5.008 C9.472,5.010 9.472,5.012 9.472,5.013 C9.470,5.015 9.467,5.017 9.464,5.018 C9.464,5.020 9.464,5.022 9.464,5.023 C9.463,5.024 9.461,5.025 9.459,5.026 C9.459,5.028 9.459,5.029 9.459,5.031 C9.457,5.033 9.454,5.034 9.452,5.036 C9.452,5.038 9.452,5.039 9.452,5.041 C9.450,5.042 9.448,5.043 9.446,5.043 C9.446,5.046 9.445,5.048 9.444,5.051 C9.443,5.051 9.442,5.051 9.441,5.051 C9.441,5.053 9.441,5.054 9.441,5.056 C9.439,5.057 9.438,5.058 9.436,5.058 C9.436,5.060 9.436,5.062 9.436,5.063 C9.434,5.064 9.433,5.065 9.431,5.066 C9.431,5.068 9.431,5.069 9.431,5.071 C9.429,5.072 9.427,5.073 9.426,5.073 C9.426,5.075 9.426,5.077 9.426,5.078 C9.424,5.079 9.422,5.080 9.420,5.081 C9.420,5.083 9.420,5.084 9.420,5.086 C9.419,5.087 9.417,5.088 9.415,5.088 C9.414,5.091 9.414,5.093 9.413,5.096 C9.412,5.096 9.411,5.096 9.410,5.096 C9.409,5.099 9.408,5.102 9.408,5.106 C9.407,5.106 9.406,5.106 9.405,5.106 C9.404,5.108 9.403,5.111 9.402,5.113 C9.401,5.114 9.399,5.115 9.397,5.116 C9.396,5.119 9.395,5.122 9.395,5.126 C9.393,5.127 9.391,5.127 9.389,5.128 C9.389,5.132 9.388,5.135 9.387,5.138 C9.385,5.139 9.383,5.140 9.382,5.141 C9.380,5.146 9.378,5.151 9.376,5.156 C9.375,5.157 9.373,5.157 9.371,5.158 C9.371,5.160 9.371,5.162 9.371,5.163 C9.370,5.163 9.370,5.163 9.369,5.163 C9.369,5.165 9.369,5.167 9.369,5.168 C9.368,5.168 9.367,5.168 9.366,5.168 C9.366,5.170 9.366,5.172 9.366,5.173 C9.365,5.173 9.364,5.173 9.364,5.173 C9.364,5.175 9.364,5.177 9.364,5.178 C9.362,5.179 9.360,5.180 9.358,5.181 C9.358,5.182 9.358,5.184 9.358,5.186 C9.357,5.186 9.357,5.186 9.356,5.186 C9.356,5.187 9.356,5.189 9.356,5.191 C9.355,5.191 9.354,5.191 9.353,5.191 C9.353,5.192 9.353,5.194 9.353,5.196 C9.352,5.196 9.351,5.196 9.351,5.196 C9.351,5.197 9.351,5.199 9.351,5.201 C9.350,5.201 9.349,5.201 9.348,5.201 C9.348,5.202 9.348,5.204 9.348,5.206 C9.347,5.206 9.346,5.206 9.345,5.206 C9.345,5.207 9.345,5.209 9.345,5.211 C9.345,5.211 9.344,5.211 9.343,5.211 C9.343,5.212 9.343,5.214 9.343,5.216 C9.342,5.216 9.341,5.216 9.340,5.216 C9.339,5.219 9.339,5.222 9.338,5.226 C9.337,5.226 9.336,5.226 9.335,5.226 C9.334,5.229 9.333,5.232 9.332,5.236 C9.332,5.236 9.331,5.236 9.330,5.236 C9.330,5.237 9.330,5.239 9.330,5.241 C9.329,5.241 9.328,5.241 9.327,5.241 C9.327,5.242 9.327,5.244 9.327,5.246 C9.326,5.246 9.326,5.246 9.325,5.246 C9.325,5.247 9.325,5.249 9.325,5.251 C9.324,5.251 9.323,5.251 9.322,5.251 C9.322,5.252 9.322,5.254 9.322,5.256 C9.321,5.256 9.320,5.256 9.320,5.256 C9.320,5.257 9.320,5.259 9.320,5.261 C9.319,5.261 9.318,5.261 9.317,5.261 C9.316,5.264 9.315,5.267 9.314,5.271 C9.313,5.271 9.313,5.271 9.312,5.271 C9.312,5.272 9.312,5.274 9.312,5.276 C9.311,5.276 9.310,5.276 9.309,5.276 C9.309,5.278 9.309,5.281 9.309,5.283 C9.308,5.283 9.307,5.283 9.307,5.283 C9.307,5.285 9.307,5.286 9.307,5.288 C9.306,5.288 9.305,5.288 9.304,5.288 C9.303,5.291 9.302,5.295 9.301,5.298 C9.301,5.298 9.300,5.298 9.299,5.298 C9.299,5.301 9.299,5.303 9.299,5.306 C9.298,5.306 9.297,5.306 9.296,5.306 C9.296,5.307 9.296,5.309 9.296,5.311 C9.295,5.311 9.295,5.311 9.294,5.311 C9.294,5.312 9.294,5.314 9.294,5.316 C9.293,5.316 9.292,5.316 9.291,5.316 C9.291,5.317 9.291,5.319 9.291,5.321 C9.290,5.321 9.289,5.321 9.288,5.321 C9.288,5.323 9.288,5.326 9.288,5.328 C9.288,5.328 9.287,5.328 9.286,5.328 C9.286,5.330 9.286,5.331 9.286,5.333 C9.285,5.333 9.284,5.333 9.283,5.333 C9.283,5.335 9.283,5.338 9.283,5.340 C9.282,5.340 9.282,5.340 9.281,5.340 C9.280,5.344 9.279,5.347 9.278,5.350 C9.277,5.350 9.276,5.350 9.276,5.350 C9.276,5.353 9.276,5.355 9.276,5.358 C9.275,5.358 9.274,5.358 9.273,5.358 C9.273,5.360 9.273,5.361 9.273,5.363 C9.272,5.363 9.271,5.363 9.270,5.363 C9.269,5.368 9.269,5.373 9.268,5.378 C9.267,5.378 9.266,5.378 9.265,5.378 C9.265,5.380 9.265,5.381 9.265,5.383 C9.264,5.383 9.263,5.383 9.263,5.383 C9.262,5.387 9.261,5.391 9.260,5.395 C9.259,5.395 9.258,5.395 9.257,5.395 C9.256,5.403 9.254,5.410 9.252,5.418 C9.251,5.418 9.250,5.418 9.250,5.418 C9.250,5.420 9.250,5.421 9.250,5.423 C9.249,5.423 9.248,5.423 9.247,5.423 C9.247,5.425 9.247,5.428 9.247,5.430 C9.246,5.430 9.245,5.430 9.244,5.430 C9.244,5.433 9.244,5.435 9.244,5.438 C9.244,5.438 9.243,5.438 9.242,5.438 C9.242,5.440 9.242,5.443 9.242,5.445 C9.241,5.445 9.240,5.445 9.239,5.445 C9.239,5.448 9.239,5.450 9.239,5.453 C9.238,5.453 9.238,5.453 9.237,5.453 C9.237,5.455 9.237,5.458 9.237,5.460 C9.213,5.517 9.200,5.582 9.180,5.643 C9.179,5.650 9.178,5.658 9.177,5.665 C9.164,5.702 9.161,5.747 9.149,5.785 C9.149,5.790 9.149,5.795 9.149,5.800 C9.148,5.800 9.147,5.800 9.146,5.800 C9.146,5.805 9.146,5.810 9.146,5.815 C9.145,5.815 9.144,5.815 9.143,5.815 C9.143,5.819 9.143,5.823 9.143,5.827 C9.143,5.827 9.142,5.827 9.141,5.827 C9.141,5.833 9.141,5.839 9.141,5.845 C9.133,5.869 9.133,5.902 9.125,5.927 C9.125,5.940 9.124,5.954 9.123,5.967 C9.115,5.994 9.118,6.030 9.110,6.057 C9.110,6.065 9.110,6.074 9.110,6.082 C9.109,6.082 9.108,6.082 9.107,6.082 C9.107,6.092 9.107,6.102 9.107,6.112 C9.106,6.112 9.106,6.112 9.105,6.112 C9.104,6.133 9.103,6.155 9.102,6.177 C9.101,6.177 9.100,6.177 9.099,6.177 C9.099,6.189 9.099,6.202 9.099,6.214 C9.099,6.214 9.098,6.214 9.097,6.214 C9.097,6.229 9.097,6.244 9.097,6.259 C9.096,6.259 9.095,6.259 9.094,6.259 C9.094,6.277 9.094,6.294 9.094,6.312 C9.094,6.312 9.092,6.312 9.092,6.317 C9.092,6.338 9.092,6.360 9.092,6.381 C9.084,6.408 9.089,6.466 9.089,6.499 C9.089,6.511 9.089,6.524 9.089,6.536 C9.088,6.536 9.087,6.536 9.087,6.536 C9.087,6.576 9.087,6.616 9.087,6.656 C9.087,6.738 9.087,6.821 9.087,6.903 C9.087,7.775 9.087,8.647 9.087,9.519 C10.669,9.519 12.252,9.519 13.834,9.519 C13.834,9.520 13.834,9.521 13.834,9.522 C13.827,9.530 13.833,9.547 13.829,9.559 C13.828,9.559 13.827,9.559 13.827,9.559 C13.827,9.566 13.827,9.573 13.827,9.579 C13.826,9.579 13.825,9.579 13.824,9.579 C13.824,9.586 13.824,9.593 13.824,9.599 C13.823,9.599 13.822,9.599 13.821,9.599 C13.821,9.605 13.821,9.611 13.821,9.617 C13.821,9.617 13.820,9.617 13.819,9.617 C13.819,9.623 13.819,9.630 13.819,9.637 C13.807,9.677 13.810,9.731 13.798,9.771 C13.796,9.791 13.795,9.811 13.793,9.831 C13.782,9.866 13.785,9.911 13.775,9.946 C13.774,9.959 13.773,9.973 13.772,9.986 C13.764,10.014 13.765,10.053 13.757,10.081 C13.756,10.094 13.755,10.108 13.754,10.121 C13.747,10.144 13.748,10.175 13.741,10.198 C13.741,10.205 13.741,10.212 13.741,10.218 C13.740,10.218 13.739,10.218 13.739,10.218 C13.739,10.225 13.739,10.232 13.739,10.238 C13.738,10.238 13.737,10.238 13.736,10.238 C13.736,10.244 13.736,10.250 13.736,10.256 C13.735,10.256 13.734,10.256 13.733,10.256 C13.733,10.262 13.733,10.269 13.733,10.276 C13.732,10.276 13.732,10.276 13.731,10.276 C13.731,10.282 13.731,10.289 13.731,10.296 C13.730,10.296 13.729,10.296 13.728,10.296 C13.728,10.302 13.728,10.309 13.728,10.316 C13.727,10.316 13.726,10.316 13.726,10.316 C13.726,10.321 13.726,10.327 13.726,10.333 C13.725,10.333 13.724,10.333 13.723,10.333 C13.723,10.340 13.723,10.346 13.723,10.353 C13.722,10.353 13.721,10.353 13.720,10.353 C13.720,10.360 13.720,10.366 13.720,10.373 C13.720,10.373 13.719,10.373 13.718,10.373 C13.718,10.380 13.718,10.386 13.718,10.393 C13.717,10.393 13.716,10.393 13.715,10.393 C13.715,10.399 13.715,10.405 13.715,10.411 C13.714,10.411 13.714,10.411 13.713,10.411 C13.713,10.417 13.713,10.424 13.713,10.430 C13.700,10.471 13.704,10.525 13.692,10.565 C13.691,10.579 13.690,10.592 13.689,10.605 C13.679,10.640 13.682,10.685 13.671,10.720 C13.670,10.733 13.670,10.747 13.669,10.760 C13.658,10.796 13.661,10.842 13.651,10.877 C13.650,10.890 13.649,10.902 13.648,10.915 C13.647,10.915 13.646,10.915 13.645,10.915 C13.644,10.928 13.644,10.941 13.643,10.955 C13.632,10.989 13.635,11.035 13.625,11.070 C13.624,11.083 13.623,11.096 13.622,11.109 C13.612,11.144 13.614,11.189 13.604,11.224 C13.603,11.238 13.602,11.251 13.601,11.264 C13.593,11.293 13.594,11.331 13.586,11.359 C13.586,11.366 13.586,11.372 13.586,11.379 C13.579,11.402 13.580,11.433 13.573,11.456 C13.573,11.463 13.573,11.470 13.573,11.476 C13.572,11.476 13.571,11.476 13.570,11.476 C13.570,11.483 13.570,11.490 13.570,11.496 C13.569,11.496 13.569,11.496 13.568,11.496 C13.568,11.502 13.568,11.508 13.568,11.514 C13.567,11.514 13.566,11.514 13.565,11.514 C13.565,11.521 13.565,11.527 13.565,11.534 C13.564,11.534 13.563,11.534 13.562,11.534 C13.562,11.540 13.562,11.547 13.562,11.554 C13.562,11.554 13.561,11.554 13.560,11.554 C13.560,11.560 13.560,11.567 13.560,11.574 C13.559,11.574 13.558,11.574 13.557,11.574 C13.557,11.580 13.557,11.587 13.557,11.594 C13.556,11.594 13.556,11.594 13.555,11.594 C13.555,11.600 13.555,11.605 13.555,11.611 C13.554,11.611 13.553,11.611 13.552,11.611 C13.552,11.618 13.552,11.625 13.552,11.631 C13.540,11.672 13.544,11.725 13.531,11.766 C13.530,11.786 13.528,11.806 13.526,11.826 C13.525,11.826 13.525,11.826 13.524,11.826 C13.524,11.832 13.524,11.838 13.524,11.843 C13.523,11.843 13.522,11.843 13.521,11.843 C13.521,11.850 13.521,11.857 13.521,11.863 C13.509,11.904 13.513,11.958 13.500,11.998 C13.499,12.018 13.497,12.038 13.495,12.058 C13.487,12.086 13.488,12.125 13.480,12.153 C13.479,12.166 13.478,12.180 13.477,12.193 C13.468,12.222 13.470,12.261 13.462,12.290 C13.462,12.297 13.462,12.304 13.462,12.310 C13.461,12.310 13.460,12.310 13.459,12.310 C13.459,12.316 13.459,12.322 13.459,12.328 C13.458,12.328 13.457,12.328 13.456,12.328 C13.456,12.334 13.456,12.341 13.456,12.348 C13.455,12.348 13.455,12.348 13.454,12.348 C13.454,12.354 13.454,12.361 13.454,12.368 C13.453,12.368 13.452,12.368 13.451,12.368 C13.451,12.374 13.451,12.381 13.451,12.388 C13.450,12.388 13.449,12.388 13.449,12.388 C13.449,12.393 13.449,12.399 13.449,12.405 C13.448,12.405 13.447,12.405 13.446,12.405 C13.446,12.412 13.446,12.418 13.446,12.425 C13.445,12.425 13.444,12.425 13.443,12.425 C13.443,12.432 13.443,12.438 13.443,12.445 C13.443,12.445 13.442,12.445 13.441,12.445 C13.441,12.452 13.441,12.458 13.441,12.465 C13.440,12.465 13.439,12.465 13.438,12.465 C13.438,12.471 13.438,12.477 13.438,12.482 C13.437,12.482 13.437,12.482 13.436,12.482 C13.436,12.489 13.436,12.496 13.436,12.502 C13.423,12.543 13.427,12.597 13.415,12.637 C13.415,12.644 13.415,12.651 13.415,12.657 C13.414,12.657 13.413,12.657 13.412,12.657 C13.412,12.664 13.412,12.670 13.412,12.677 C13.411,12.677 13.411,12.677 13.410,12.677 C13.410,12.684 13.410,12.690 13.410,12.697 C13.399,12.732 13.402,12.777 13.392,12.812 C13.391,12.825 13.390,12.839 13.389,12.852 C13.388,12.852 13.387,12.852 13.386,12.852 C13.386,12.858 13.386,12.864 13.386,12.869 C13.386,12.869 13.385,12.869 13.384,12.869 C13.384,12.876 13.384,12.883 13.384,12.889 C13.383,12.889 13.382,12.889 13.381,12.889 C13.381,12.896 13.381,12.903 13.381,12.909 C13.380,12.909 13.380,12.909 13.379,12.909 C13.379,12.916 13.379,12.923 13.379,12.929 C13.378,12.929 13.377,12.929 13.376,12.929 C13.376,12.935 13.376,12.941 13.376,12.947 C13.375,12.947 13.374,12.947 13.374,12.947 C13.374,12.953 13.374,12.960 13.374,12.967 C13.373,12.967 13.372,12.967 13.371,12.967 C13.371,12.973 13.371,12.980 13.371,12.987 C13.370,12.987 13.369,12.987 13.368,12.987 C13.368,12.993 13.368,13.000 13.368,13.007 C13.367,13.007 13.367,13.007 13.366,13.007 C13.366,13.013 13.366,13.020 13.366,13.027 C13.365,13.027 13.364,13.027 13.363,13.027 C13.363,13.032 13.363,13.038 13.363,13.044 C13.362,13.044 13.361,13.044 13.361,13.044 C13.361,13.051 13.361,13.057 13.361,13.064 C13.360,13.064 13.359,13.064 13.358,13.064 C13.358,13.071 13.358,13.077 13.358,13.084 C13.357,13.084 13.356,13.084 13.355,13.084 C13.355,13.091 13.355,13.097 13.355,13.104 C13.345,13.139 13.348,13.184 13.337,13.219 C13.333,13.258 13.329,13.297 13.324,13.336 C13.323,13.336 13.323,13.336 13.322,13.336 C13.322,13.342 13.322,13.348 13.322,13.354 C13.321,13.354 13.320,13.354 13.319,13.354 C13.319,13.360 13.319,13.367 13.319,13.374 C13.318,13.374 13.317,13.374 13.317,13.374 C13.317,13.380 13.317,13.387 13.317,13.394 C13.316,13.394 13.315,13.394 13.314,13.394 C13.314,13.400 13.314,13.407 13.314,13.414 C13.313,13.414 13.312,13.414 13.311,13.414 C13.311,13.419 13.311,13.425 13.311,13.431 C13.311,13.431 13.310,13.431 13.309,13.431 C13.309,13.438 13.309,13.444 13.309,13.451 C13.297,13.492 13.300,13.545 13.288,13.586 C13.286,13.606 13.285,13.626 13.283,13.646 C13.274,13.674 13.276,13.712 13.267,13.741 C13.267,13.754 13.266,13.767 13.265,13.781 C13.264,13.781 13.263,13.781 13.262,13.781 C13.261,13.794 13.260,13.807 13.260,13.820 C13.251,13.849 13.253,13.887 13.244,13.915 C13.243,13.929 13.242,13.942 13.241,13.955 C13.241,13.955 13.240,13.955 13.239,13.955 C13.239,13.962 13.239,13.969 13.239,13.975 C13.238,13.975 13.237,13.975 13.236,13.975 C13.236,13.981 13.236,13.987 13.236,13.993 C13.235,13.993 13.235,13.993 13.234,13.993 C13.234,13.999 13.234,14.006 13.234,14.013 C13.233,14.013 13.232,14.013 13.231,14.013 C13.231,14.019 13.231,14.026 13.231,14.033 C13.230,14.033 13.229,14.033 13.229,14.033 C13.229,14.039 13.229,14.046 13.229,14.053 C13.228,14.053 13.227,14.053 13.226,14.053 C13.226,14.058 13.226,14.064 13.226,14.070 C13.225,14.070 13.224,14.070 13.223,14.070 C13.223,14.077 13.223,14.083 13.223,14.090 C13.219,14.104 13.217,14.124 13.216,14.140 C11.839,14.140 10.463,14.140 9.087,14.140 C9.087,18.093 9.087,22.047 9.087,26.000 C7.437,26.000 5.787,26.000 4.137,26.000 C4.137,22.047 4.137,18.093 4.137,14.140 C2.758,14.140 1.379,14.140 0.000,14.140 C0.000,12.600 0.000,11.059 0.000,9.519 C1.379,9.519 2.758,9.519 4.137,9.519 C4.137,8.800 4.137,8.081 4.137,7.362 C4.137,7.054 4.137,6.745 4.137,6.436 C4.137,6.342 4.137,6.247 4.137,6.152 C4.137,6.107 4.137,6.062 4.137,6.017 C4.138,6.017 4.139,6.017 4.139,6.017 C4.139,5.971 4.139,5.925 4.139,5.880 C4.141,5.863 4.142,5.840 4.142,5.820 C4.142,5.810 4.142,5.800 4.142,5.790 C4.143,5.790 4.144,5.790 4.145,5.790 C4.145,5.767 4.145,5.745 4.145,5.722 C4.145,5.722 4.146,5.722 4.147,5.722 C4.147,5.712 4.147,5.701 4.147,5.690 C4.148,5.666 4.149,5.642 4.150,5.618 C4.151,5.618 4.152,5.618 4.152,5.618 C4.152,5.608 4.152,5.599 4.152,5.590 C4.153,5.571 4.154,5.552 4.155,5.533 C4.156,5.533 4.157,5.533 4.158,5.533 C4.161,5.475 4.164,5.418 4.168,5.360 C4.169,5.360 4.170,5.360 4.170,5.360 C4.170,5.350 4.170,5.340 4.170,5.330 C4.171,5.330 4.172,5.330 4.173,5.330 C4.173,5.321 4.173,5.312 4.173,5.303 C4.174,5.303 4.175,5.303 4.176,5.303 C4.176,5.294 4.176,5.285 4.176,5.276 C4.177,5.276 4.177,5.276 4.178,5.276 C4.178,5.267 4.178,5.259 4.178,5.251 C4.179,5.251 4.180,5.251 4.181,5.251 C4.181,5.242 4.181,5.234 4.181,5.226 C4.182,5.226 4.183,5.226 4.183,5.226 C4.183,5.217 4.183,5.209 4.183,5.201 C4.184,5.201 4.185,5.201 4.186,5.201 C4.186,5.192 4.186,5.184 4.186,5.176 C4.187,5.176 4.188,5.176 4.189,5.176 C4.189,5.168 4.189,5.161 4.189,5.153 C4.189,5.153 4.190,5.153 4.191,5.153 C4.191,5.146 4.191,5.138 4.191,5.131 C4.192,5.131 4.193,5.131 4.194,5.131 C4.194,5.123 4.194,5.116 4.194,5.108 C4.195,5.108 4.196,5.108 4.196,5.108 C4.196,5.101 4.196,5.093 4.196,5.086 C4.197,5.086 4.198,5.086 4.199,5.086 C4.199,5.079 4.199,5.073 4.199,5.066 C4.200,5.066 4.201,5.066 4.202,5.066 C4.202,5.058 4.202,5.051 4.202,5.043 C4.202,5.043 4.203,5.043 4.204,5.043 C4.204,5.037 4.204,5.030 4.204,5.023 C4.205,5.023 4.206,5.023 4.207,5.023 C4.207,5.017 4.207,5.010 4.207,5.003 C4.217,4.970 4.215,4.927 4.225,4.894 C4.227,4.876 4.228,4.859 4.230,4.841 C4.239,4.812 4.239,4.775 4.248,4.746 C4.248,4.741 4.248,4.736 4.248,4.731 C4.254,4.714 4.256,4.689 4.261,4.671 C4.261,4.666 4.261,4.661 4.261,4.656 C4.266,4.640 4.269,4.618 4.274,4.602 C4.274,4.597 4.274,4.592 4.274,4.587 C4.288,4.543 4.291,4.490 4.305,4.447 C4.305,4.443 4.305,4.438 4.305,4.434 C4.310,4.420 4.313,4.401 4.318,4.387 C4.318,4.383 4.318,4.379 4.318,4.374 C4.319,4.374 4.320,4.374 4.321,4.374 C4.321,4.367 4.322,4.359 4.323,4.352 C4.324,4.352 4.325,4.352 4.326,4.352 C4.326,4.349 4.326,4.345 4.326,4.342 C4.327,4.342 4.328,4.342 4.328,4.342 C4.329,4.334 4.330,4.327 4.331,4.319 C4.332,4.319 4.333,4.319 4.334,4.319 C4.334,4.312 4.335,4.305 4.336,4.297 C4.337,4.297 4.338,4.297 4.339,4.297 C4.339,4.293 4.339,4.289 4.339,4.285 C4.357,4.230 4.366,4.166 4.385,4.112 C4.386,4.106 4.387,4.099 4.388,4.092 C4.393,4.078 4.398,4.059 4.403,4.045 C4.403,4.042 4.403,4.038 4.403,4.035 C4.404,4.035 4.405,4.035 4.406,4.035 C4.406,4.032 4.406,4.030 4.406,4.027 C4.407,4.027 4.408,4.027 4.409,4.027 C4.410,4.018 4.412,4.009 4.414,4.000 C4.415,4.000 4.416,4.000 4.416,4.000 C4.417,3.994 4.418,3.988 4.419,3.982 C4.420,3.982 4.421,3.982 4.422,3.982 C4.422,3.976 4.423,3.969 4.424,3.963 C4.438,3.925 4.449,3.882 4.463,3.845 C4.466,3.831 4.470,3.817 4.473,3.803 C4.517,3.688 4.551,3.565 4.600,3.456 C4.601,3.451 4.602,3.446 4.603,3.441 C4.604,3.441 4.605,3.441 4.605,3.441 C4.605,3.439 4.605,3.437 4.605,3.436 C4.606,3.436 4.607,3.436 4.608,3.436 C4.608,3.433 4.608,3.431 4.608,3.428 C4.609,3.428 4.610,3.428 4.611,3.428 C4.611,3.427 4.611,3.425 4.611,3.423 C4.611,3.423 4.612,3.423 4.613,3.423 C4.614,3.418 4.615,3.413 4.616,3.408 C4.617,3.408 4.617,3.408 4.618,3.408 C4.618,3.407 4.618,3.405 4.618,3.403 C4.619,3.403 4.620,3.403 4.621,3.403 C4.621,3.401 4.621,3.398 4.621,3.396 C4.622,3.396 4.623,3.396 4.624,3.396 C4.624,3.394 4.624,3.393 4.624,3.391 C4.624,3.391 4.625,3.391 4.626,3.391 C4.626,3.388 4.626,3.386 4.626,3.383 C4.627,3.383 4.628,3.383 4.629,3.383 C4.629,3.382 4.629,3.380 4.629,3.378 C4.630,3.378 4.630,3.378 4.631,3.378 C4.631,3.376 4.631,3.373 4.631,3.371 C4.632,3.371 4.633,3.371 4.634,3.371 C4.634,3.369 4.634,3.368 4.634,3.366 C4.635,3.366 4.636,3.366 4.636,3.366 C4.636,3.363 4.636,3.361 4.636,3.358 C4.637,3.358 4.638,3.358 4.639,3.358 C4.639,3.357 4.639,3.355 4.639,3.353 C4.640,3.353 4.641,3.353 4.642,3.353 C4.642,3.351 4.642,3.348 4.642,3.346 C4.643,3.346 4.643,3.346 4.644,3.346 C4.644,3.344 4.644,3.343 4.644,3.341 C4.645,3.341 4.646,3.341 4.647,3.341 C4.647,3.338 4.647,3.336 4.647,3.333 C4.648,3.333 4.649,3.333 4.649,3.333 C4.649,3.332 4.649,3.330 4.649,3.328 C4.650,3.328 4.651,3.328 4.652,3.328 C4.652,3.326 4.652,3.323 4.652,3.321 C4.653,3.321 4.654,3.321 4.655,3.321 C4.655,3.319 4.655,3.318 4.655,3.316 C4.655,3.316 4.656,3.316 4.657,3.316 C4.657,3.313 4.657,3.311 4.657,3.308 C4.658,3.308 4.659,3.308 4.660,3.308 C4.661,3.304 4.661,3.300 4.662,3.296 C4.663,3.296 4.664,3.296 4.665,3.296 C4.665,3.294 4.665,3.293 4.665,3.291 C4.666,3.291 4.667,3.291 4.668,3.291 C4.668,3.289 4.668,3.286 4.668,3.284 C4.668,3.284 4.669,3.284 4.670,3.284 C4.671,3.280 4.672,3.277 4.673,3.274 C4.674,3.274 4.674,3.274 4.675,3.274 C4.675,3.271 4.675,3.269 4.675,3.266 C4.676,3.266 4.677,3.266 4.678,3.266 C4.678,3.264 4.678,3.263 4.678,3.261 C4.679,3.261 4.680,3.261 4.680,3.261 C4.680,3.259 4.680,3.256 4.680,3.254 C4.681,3.254 4.682,3.254 4.683,3.254 C4.684,3.250 4.685,3.247 4.686,3.244 C4.687,3.244 4.687,3.244 4.688,3.244 C4.688,3.241 4.688,3.239 4.688,3.236 C4.689,3.236 4.690,3.236 4.691,3.236 C4.692,3.233 4.693,3.229 4.693,3.226 C4.694,3.226 4.695,3.226 4.696,3.226 C4.696,3.224 4.696,3.221 4.696,3.219 C4.697,3.219 4.698,3.219 4.699,3.219 C4.699,3.215 4.700,3.212 4.701,3.209 C4.702,3.209 4.703,3.209 4.704,3.209 C4.704,3.206 4.704,3.204 4.704,3.201 C4.705,3.201 4.705,3.201 4.706,3.201 C4.707,3.198 4.708,3.194 4.709,3.191 C4.710,3.191 4.711,3.191 4.712,3.191 C4.712,3.189 4.712,3.186 4.712,3.184 C4.712,3.184 4.713,3.184 4.714,3.184 C4.714,3.182 4.714,3.180 4.714,3.179 C4.715,3.179 4.716,3.179 4.717,3.179 C4.718,3.175 4.718,3.172 4.719,3.169 C4.720,3.169 4.721,3.169 4.722,3.169 C4.722,3.166 4.722,3.164 4.722,3.161 C4.723,3.161 4.724,3.161 4.724,3.161 C4.724,3.160 4.724,3.158 4.724,3.156 C4.725,3.156 4.726,3.156 4.727,3.156 C4.728,3.153 4.729,3.150 4.730,3.146 C4.731,3.146 4.731,3.146 4.732,3.146 C4.732,3.144 4.732,3.141 4.732,3.139 C4.733,3.139 4.734,3.139 4.735,3.139 C4.735,3.137 4.735,3.135 4.735,3.134 C4.736,3.134 4.737,3.134 4.737,3.134 C4.738,3.130 4.739,3.127 4.740,3.124 C4.741,3.124 4.742,3.124 4.743,3.124 C4.743,3.121 4.743,3.119 4.743,3.116 C4.743,3.116 4.744,3.116 4.745,3.116 C4.745,3.115 4.745,3.113 4.745,3.111 C4.746,3.111 4.747,3.111 4.748,3.111 C4.750,3.106 4.751,3.101 4.753,3.096 C4.754,3.096 4.755,3.096 4.756,3.096 C4.756,3.094 4.756,3.091 4.756,3.089 C4.756,3.089 4.757,3.089 4.758,3.089 C4.758,3.087 4.758,3.085 4.758,3.084 C4.759,3.084 4.760,3.084 4.761,3.084 C4.761,3.082 4.761,3.080 4.761,3.079 C4.762,3.079 4.762,3.079 4.763,3.079 C4.765,3.074 4.767,3.069 4.768,3.064 C4.769,3.064 4.770,3.064 4.771,3.064 C4.771,3.061 4.771,3.059 4.771,3.056 C4.772,3.056 4.773,3.056 4.774,3.056 C4.775,3.053 4.775,3.050 4.776,3.046 C4.777,3.046 4.778,3.046 4.779,3.046 C4.781,3.041 4.782,3.036 4.784,3.031 C4.785,3.031 4.786,3.031 4.787,3.031 C4.787,3.028 4.788,3.025 4.789,3.021 C4.790,3.021 4.791,3.021 4.792,3.021 C4.792,3.019 4.792,3.016 4.792,3.014 C4.793,3.014 4.794,3.014 4.794,3.014 C4.796,3.009 4.798,3.004 4.800,2.999 C4.800,2.999 4.801,2.999 4.802,2.999 C4.802,2.997 4.802,2.996 4.802,2.994 C4.803,2.994 4.804,2.994 4.805,2.994 C4.805,2.992 4.805,2.991 4.805,2.989 C4.806,2.989 4.806,2.989 4.807,2.989 C4.807,2.987 4.807,2.986 4.807,2.984 C4.808,2.984 4.809,2.984 4.810,2.984 C4.810,2.982 4.810,2.981 4.810,2.979 C4.811,2.979 4.812,2.979 4.812,2.979 C4.812,2.977 4.812,2.976 4.812,2.974 C4.813,2.974 4.814,2.974 4.815,2.974 C4.815,2.972 4.815,2.971 4.815,2.969 C4.816,2.969 4.817,2.969 4.818,2.969 C4.818,2.967 4.818,2.966 4.818,2.964 C4.819,2.964 4.819,2.964 4.820,2.964 C4.820,2.962 4.820,2.961 4.820,2.959 C4.821,2.959 4.822,2.959 4.823,2.959 C4.823,2.957 4.823,2.956 4.823,2.954 C4.824,2.954 4.825,2.954 4.825,2.954 C4.827,2.949 4.829,2.944 4.831,2.939 C4.831,2.939 4.832,2.939 4.833,2.939 C4.833,2.937 4.833,2.934 4.833,2.932 C4.834,2.932 4.835,2.932 4.836,2.932 C4.838,2.927 4.839,2.922 4.841,2.917 C4.842,2.917 4.843,2.917 4.844,2.917 C4.844,2.915 4.844,2.913 4.844,2.912 C4.844,2.912 4.845,2.912 4.846,2.912 C4.847,2.908 4.848,2.905 4.849,2.902 C4.850,2.901 4.852,2.900 4.854,2.899 C4.854,2.897 4.854,2.896 4.854,2.894 C4.855,2.894 4.856,2.894 4.857,2.894 C4.857,2.892 4.857,2.891 4.857,2.889 C4.857,2.889 4.858,2.889 4.859,2.889 C4.859,2.887 4.859,2.886 4.859,2.884 C4.860,2.884 4.861,2.884 4.862,2.884 C4.862,2.882 4.862,2.881 4.862,2.879 C4.863,2.879 4.863,2.879 4.864,2.879 C4.864,2.877 4.864,2.876 4.864,2.874 C4.865,2.874 4.866,2.874 4.867,2.874 C4.867,2.872 4.867,2.871 4.867,2.869 C4.868,2.869 4.869,2.869 4.869,2.869 C4.869,2.867 4.869,2.866 4.869,2.864 C4.870,2.864 4.871,2.864 4.872,2.864 C4.873,2.861 4.874,2.857 4.875,2.854 C4.875,2.854 4.876,2.854 4.877,2.854 C4.877,2.852 4.877,2.851 4.877,2.849 C4.878,2.849 4.879,2.849 4.880,2.849 C4.880,2.847 4.880,2.846 4.880,2.844 C4.881,2.844 4.882,2.844 4.882,2.844 C4.882,2.842 4.882,2.841 4.882,2.839 C4.883,2.839 4.884,2.839 4.885,2.839 C4.885,2.838 4.885,2.836 4.885,2.834 C4.886,2.834 4.887,2.834 4.888,2.834 C4.889,2.829 4.891,2.824 4.893,2.819 C4.894,2.818 4.896,2.818 4.898,2.817 C4.898,2.815 4.898,2.813 4.898,2.812 C4.899,2.812 4.900,2.812 4.901,2.812 C4.901,2.810 4.901,2.808 4.901,2.807 C4.901,2.807 4.902,2.807 4.903,2.807 C4.903,2.805 4.903,2.803 4.903,2.802 C4.904,2.802 4.905,2.802 4.906,2.802 C4.906,2.800 4.906,2.798 4.906,2.797 C4.907,2.797 4.907,2.797 4.908,2.797 C4.908,2.795 4.908,2.793 4.908,2.792 C4.909,2.792 4.910,2.792 4.911,2.792 C4.911,2.790 4.911,2.788 4.911,2.787 C4.912,2.787 4.913,2.787 4.913,2.787 C4.913,2.785 4.913,2.783 4.913,2.782 C4.915,2.781 4.917,2.780 4.919,2.779 C4.919,2.778 4.919,2.776 4.919,2.774 C4.920,2.774 4.920,2.774 4.921,2.774 C4.921,2.773 4.921,2.771 4.921,2.769 C4.922,2.769 4.923,2.769 4.924,2.769 C4.924,2.768 4.924,2.766 4.924,2.764 C4.925,2.764 4.926,2.764 4.926,2.764 C4.926,2.763 4.926,2.761 4.926,2.759 C4.927,2.759 4.928,2.759 4.929,2.759 C4.930,2.756 4.931,2.753 4.932,2.749 C4.933,2.748 4.935,2.748 4.937,2.747 C4.937,2.745 4.937,2.743 4.937,2.742 C4.938,2.742 4.938,2.742 4.939,2.742 C4.939,2.740 4.939,2.738 4.939,2.737 C4.940,2.737 4.941,2.737 4.942,2.737 C4.942,2.735 4.942,2.733 4.942,2.732 C4.943,2.732 4.944,2.732 4.945,2.732 C4.945,2.730 4.945,2.729 4.945,2.727 C4.946,2.726 4.948,2.725 4.950,2.724 C4.950,2.723 4.950,2.721 4.950,2.719 C4.951,2.719 4.951,2.719 4.952,2.719 C4.952,2.718 4.952,2.716 4.952,2.714 C4.953,2.714 4.954,2.714 4.955,2.714 C4.955,2.713 4.955,2.711 4.955,2.709 C4.956,2.709 4.957,2.709 4.957,2.709 C4.957,2.708 4.957,2.706 4.957,2.704 C4.959,2.704 4.961,2.703 4.963,2.702 C4.963,2.700 4.963,2.699 4.963,2.697 C4.964,2.697 4.964,2.697 4.965,2.697 C4.965,2.695 4.965,2.694 4.965,2.692 C4.966,2.692 4.967,2.692 4.968,2.692 C4.968,2.690 4.968,2.689 4.968,2.687 C4.969,2.687 4.970,2.687 4.970,2.687 C4.970,2.685 4.970,2.684 4.970,2.682 C4.972,2.681 4.974,2.680 4.976,2.679 C4.977,2.674 4.979,2.669 4.981,2.664 C4.982,2.664 4.984,2.663 4.986,2.662 C4.986,2.660 4.986,2.659 4.986,2.657 C4.987,2.657 4.988,2.657 4.989,2.657 C4.989,2.655 4.989,2.654 4.989,2.652 C4.989,2.652 4.990,2.652 4.991,2.652 C4.991,2.650 4.991,2.649 4.991,2.647 C4.993,2.646 4.995,2.645 4.996,2.644 C4.998,2.639 5.000,2.634 5.001,2.629 C5.003,2.629 5.005,2.628 5.007,2.627 C5.007,2.625 5.007,2.624 5.007,2.622 C5.008,2.622 5.008,2.622 5.009,2.622 C5.009,2.620 5.009,2.619 5.009,2.617 C5.011,2.616 5.013,2.615 5.014,2.615 C5.016,2.610 5.018,2.605 5.020,2.600 C5.021,2.599 5.023,2.598 5.025,2.597 C5.026,2.594 5.027,2.590 5.027,2.587 C5.029,2.586 5.031,2.585 5.033,2.585 C5.033,2.581 5.034,2.578 5.035,2.575 C5.037,2.574 5.039,2.573 5.040,2.572 C5.041,2.569 5.042,2.565 5.043,2.562 C5.045,2.561 5.046,2.560 5.048,2.560 C5.049,2.556 5.050,2.553 5.051,2.550 C5.052,2.549 5.054,2.548 5.056,2.547 C5.057,2.544 5.058,2.540 5.058,2.537 C5.060,2.536 5.062,2.535 5.064,2.535 C5.064,2.531 5.065,2.528 5.066,2.525 C5.068,2.524 5.070,2.523 5.071,2.522 C5.071,2.520 5.071,2.519 5.071,2.517 C5.072,2.517 5.073,2.517 5.074,2.517 C5.074,2.515 5.074,2.514 5.074,2.512 C5.075,2.512 5.076,2.512 5.077,2.512 C5.077,2.510 5.078,2.507 5.079,2.505 C5.081,2.504 5.083,2.503 5.084,2.502 C5.084,2.501 5.084,2.499 5.084,2.497 C5.085,2.497 5.086,2.497 5.087,2.497 C5.087,2.496 5.087,2.494 5.087,2.492 C5.089,2.491 5.090,2.491 5.092,2.490 C5.092,2.488 5.092,2.486 5.092,2.485 C5.094,2.484 5.096,2.483 5.097,2.482 C5.098,2.479 5.099,2.476 5.100,2.472 C5.102,2.471 5.103,2.471 5.105,2.470 C5.105,2.468 5.105,2.466 5.105,2.465 C5.107,2.464 5.108,2.463 5.110,2.462 C5.111,2.459 5.112,2.456 5.113,2.452 C5.115,2.451 5.116,2.451 5.118,2.450 C5.118,2.448 5.118,2.446 5.118,2.445 C5.120,2.444 5.121,2.443 5.123,2.442 C5.123,2.441 5.123,2.439 5.123,2.437 C5.125,2.436 5.127,2.436 5.128,2.435 C5.129,2.431 5.130,2.428 5.131,2.425 C5.133,2.424 5.134,2.423 5.136,2.422 C5.136,2.421 5.136,2.419 5.136,2.417 C5.138,2.416 5.140,2.416 5.141,2.415 C5.141,2.413 5.141,2.411 5.141,2.410 C5.143,2.409 5.145,2.408 5.146,2.407 C5.146,2.406 5.146,2.404 5.146,2.402 C5.148,2.401 5.150,2.401 5.152,2.400 C5.152,2.396 5.153,2.393 5.154,2.390 C5.156,2.389 5.158,2.388 5.159,2.387 C5.159,2.386 5.159,2.384 5.159,2.382 C5.161,2.382 5.163,2.381 5.165,2.380 C5.165,2.378 5.165,2.377 5.165,2.375 C5.166,2.374 5.168,2.373 5.170,2.372 C5.170,2.371 5.170,2.369 5.170,2.367 C5.171,2.367 5.173,2.366 5.175,2.365 C5.175,2.363 5.175,2.362 5.175,2.360 C5.176,2.360 5.177,2.360 5.178,2.360 C5.178,2.357 5.179,2.355 5.180,2.352 C5.182,2.352 5.184,2.351 5.185,2.350 C5.185,2.348 5.185,2.347 5.185,2.345 C5.187,2.344 5.189,2.343 5.190,2.342 C5.190,2.341 5.190,2.339 5.190,2.337 C5.192,2.337 5.194,2.336 5.196,2.335 C5.196,2.333 5.196,2.332 5.196,2.330 C5.196,2.330 5.197,2.330 5.198,2.330 C5.199,2.327 5.200,2.325 5.201,2.322 C5.203,2.322 5.204,2.321 5.206,2.320 C5.206,2.318 5.206,2.317 5.206,2.315 C5.209,2.313 5.211,2.312 5.214,2.310 C5.214,2.308 5.214,2.307 5.214,2.305 C5.215,2.304 5.217,2.303 5.219,2.302 C5.220,2.300 5.221,2.297 5.222,2.295 C5.222,2.295 5.223,2.295 5.224,2.295 C5.224,2.293 5.224,2.292 5.224,2.290 C5.226,2.289 5.228,2.288 5.229,2.287 C5.229,2.286 5.229,2.284 5.229,2.282 C5.231,2.282 5.233,2.281 5.234,2.280 C5.234,2.278 5.234,2.277 5.234,2.275 C5.237,2.273 5.240,2.272 5.242,2.270 C5.242,2.268 5.242,2.267 5.242,2.265 C5.243,2.265 5.244,2.265 5.245,2.265 C5.246,2.263 5.247,2.260 5.247,2.258 C5.249,2.257 5.251,2.256 5.253,2.255 C5.253,2.253 5.253,2.252 5.253,2.250 C5.255,2.248 5.258,2.247 5.260,2.245 C5.260,2.243 5.260,2.242 5.260,2.240 C5.261,2.240 5.262,2.240 5.263,2.240 C5.264,2.238 5.265,2.235 5.266,2.233 C5.267,2.232 5.269,2.231 5.271,2.230 C5.271,2.228 5.271,2.227 5.271,2.225 C5.273,2.223 5.276,2.222 5.278,2.220 C5.278,2.218 5.278,2.217 5.278,2.215 C5.280,2.214 5.282,2.213 5.284,2.213 C5.284,2.211 5.284,2.209 5.284,2.208 C5.285,2.207 5.287,2.206 5.289,2.205 C5.290,2.203 5.291,2.200 5.291,2.198 C5.294,2.196 5.297,2.194 5.299,2.193 C5.299,2.191 5.299,2.189 5.299,2.188 C5.301,2.187 5.303,2.186 5.304,2.185 C5.304,2.183 5.304,2.182 5.304,2.180 C5.306,2.179 5.308,2.178 5.310,2.178 C5.310,2.175 5.311,2.173 5.312,2.170 C5.315,2.168 5.317,2.167 5.320,2.165 C5.320,2.164 5.320,2.162 5.320,2.160 C5.322,2.159 5.323,2.159 5.325,2.158 C5.325,2.156 5.325,2.154 5.325,2.153 C5.328,2.151 5.330,2.149 5.333,2.148 C5.333,2.146 5.333,2.144 5.333,2.143 C5.335,2.141 5.338,2.139 5.341,2.138 C5.341,2.136 5.341,2.134 5.341,2.133 C5.343,2.131 5.346,2.129 5.348,2.128 C5.348,2.126 5.348,2.124 5.348,2.123 C5.351,2.121 5.354,2.119 5.356,2.118 C5.356,2.116 5.356,2.114 5.356,2.113 C5.359,2.111 5.361,2.109 5.364,2.108 C5.364,2.106 5.364,2.104 5.364,2.103 C5.366,2.101 5.369,2.099 5.372,2.098 C5.372,2.096 5.372,2.094 5.372,2.093 C5.374,2.091 5.377,2.089 5.379,2.088 C5.379,2.086 5.379,2.084 5.379,2.083 C5.383,2.080 5.386,2.078 5.390,2.075 C5.391,2.073 5.392,2.070 5.392,2.068 C5.394,2.067 5.396,2.066 5.398,2.065 C5.398,2.064 5.398,2.062 5.398,2.060 C5.401,2.058 5.404,2.055 5.408,2.053 C5.408,2.051 5.408,2.050 5.408,2.048 C5.410,2.047 5.411,2.046 5.413,2.045 C5.414,2.043 5.415,2.040 5.416,2.038 C5.419,2.035 5.423,2.033 5.426,2.030 C5.426,2.029 5.426,2.027 5.426,2.025 C5.429,2.023 5.433,2.020 5.436,2.018 C5.436,2.016 5.436,2.015 5.436,2.013 C5.439,2.011 5.442,2.010 5.444,2.008 C5.444,2.006 5.444,2.005 5.444,2.003 C5.448,2.000 5.451,1.998 5.455,1.995 C5.455,1.994 5.455,1.992 5.455,1.990 C5.459,1.987 5.463,1.984 5.467,1.980 C5.467,1.979 5.467,1.977 5.467,1.975 C5.469,1.975 5.471,1.974 5.473,1.973 C5.473,1.972 5.473,1.971 5.473,1.970 C5.474,1.970 5.476,1.969 5.478,1.968 C5.478,1.966 5.478,1.965 5.478,1.963 C5.480,1.962 5.481,1.961 5.483,1.960 C5.483,1.960 5.483,1.959 5.483,1.958 C5.485,1.957 5.486,1.956 5.488,1.955 C5.488,1.954 5.488,1.952 5.488,1.950 C5.492,1.947 5.497,1.944 5.501,1.940 C5.501,1.939 5.501,1.937 5.501,1.936 C5.505,1.932 5.510,1.929 5.514,1.926 C5.514,1.924 5.514,1.922 5.514,1.921 C5.518,1.917 5.523,1.914 5.527,1.911 C5.527,1.909 5.527,1.907 5.527,1.906 C5.531,1.902 5.536,1.899 5.540,1.896 C5.540,1.894 5.540,1.892 5.540,1.891 C5.545,1.886 5.550,1.882 5.555,1.878 C5.555,1.876 5.555,1.875 5.555,1.873 C5.561,1.869 5.566,1.865 5.571,1.861 C5.571,1.859 5.571,1.857 5.571,1.856 C5.577,1.851 5.583,1.846 5.589,1.841 C5.589,1.839 5.589,1.837 5.589,1.836 C5.595,1.831 5.601,1.826 5.607,1.821 C5.607,1.819 5.607,1.817 5.607,1.816 C5.613,1.811 5.619,1.806 5.625,1.801 C5.625,1.799 5.625,1.797 5.625,1.796 C5.633,1.789 5.641,1.782 5.649,1.776 C5.649,1.774 5.649,1.772 5.649,1.771 C5.657,1.763 5.666,1.756 5.675,1.748 C5.675,1.747 5.675,1.745 5.675,1.743 C5.684,1.735 5.694,1.727 5.703,1.718 C5.703,1.717 5.703,1.717 5.703,1.716 C5.705,1.715 5.706,1.714 5.708,1.713 C5.708,1.712 5.708,1.710 5.708,1.708 C5.711,1.707 5.713,1.705 5.716,1.703 C5.720,1.698 5.725,1.693 5.729,1.688 C5.738,1.681 5.746,1.673 5.755,1.666 C5.776,1.637 5.804,1.616 5.830,1.591 C5.855,1.567 5.876,1.541 5.905,1.521 C5.916,1.509 5.927,1.498 5.939,1.486 C5.942,1.484 5.946,1.481 5.949,1.479 C5.949,1.478 5.949,1.477 5.949,1.476 C5.951,1.476 5.952,1.476 5.954,1.476 C5.961,1.469 5.968,1.461 5.975,1.454 C5.977,1.452 5.980,1.450 5.983,1.449 C5.983,1.448 5.983,1.447 5.983,1.446 C5.984,1.446 5.986,1.446 5.988,1.446 C5.996,1.438 6.003,1.430 6.011,1.421 C6.013,1.421 6.015,1.421 6.016,1.421 C6.023,1.414 6.030,1.406 6.037,1.399 C6.039,1.399 6.040,1.399 6.042,1.399 C6.042,1.398 6.042,1.397 6.042,1.396 C6.046,1.394 6.049,1.391 6.053,1.389 C6.055,1.385 6.058,1.382 6.060,1.379 C6.062,1.379 6.064,1.379 6.065,1.379 C6.071,1.373 6.076,1.367 6.081,1.361 C6.083,1.361 6.084,1.361 6.086,1.361 C6.086,1.361 6.086,1.360 6.086,1.359 C6.089,1.357 6.091,1.356 6.094,1.354 C6.096,1.351 6.097,1.349 6.099,1.346 C6.101,1.346 6.103,1.346 6.104,1.346 C6.106,1.344 6.108,1.341 6.109,1.339 C6.112,1.337 6.115,1.336 6.117,1.334 C6.117,1.333 6.117,1.332 6.117,1.331 C6.119,1.331 6.121,1.331 6.122,1.331 C6.127,1.326 6.131,1.321 6.135,1.316 C6.137,1.316 6.139,1.316 6.141,1.316 C6.144,1.312 6.147,1.308 6.151,1.304 C6.153,1.304 6.154,1.304 6.156,1.304 C6.160,1.300 6.163,1.296 6.166,1.291 C6.168,1.291 6.170,1.291 6.172,1.291 C6.175,1.287 6.179,1.283 6.182,1.279 C6.184,1.279 6.185,1.279 6.187,1.279 C6.191,1.275 6.194,1.271 6.197,1.266 C6.199,1.266 6.201,1.266 6.203,1.266 C6.205,1.263 6.208,1.260 6.210,1.257 C6.212,1.257 6.214,1.257 6.216,1.257 C6.219,1.252 6.223,1.248 6.226,1.244 C6.228,1.244 6.229,1.244 6.231,1.244 C6.234,1.241 6.236,1.237 6.239,1.234 C6.241,1.234 6.242,1.234 6.244,1.234 C6.247,1.231 6.249,1.227 6.252,1.224 C6.254,1.224 6.255,1.224 6.257,1.224 C6.260,1.221 6.262,1.217 6.265,1.214 C6.267,1.214 6.268,1.214 6.270,1.214 C6.271,1.212 6.272,1.211 6.273,1.209 C6.275,1.208 6.278,1.207 6.280,1.207 C6.283,1.203 6.286,1.200 6.288,1.197 C6.290,1.197 6.292,1.197 6.293,1.197 C6.296,1.193 6.298,1.190 6.301,1.187 C6.303,1.187 6.304,1.187 6.306,1.187 C6.308,1.184 6.310,1.182 6.311,1.179 C6.313,1.179 6.315,1.179 6.317,1.179 C6.318,1.177 6.320,1.174 6.322,1.172 C6.323,1.172 6.325,1.172 6.327,1.172 C6.330,1.168 6.332,1.165 6.335,1.162 C6.336,1.162 6.338,1.162 6.340,1.162 C6.342,1.159 6.343,1.157 6.345,1.154 C6.347,1.154 6.348,1.154 6.350,1.154 C6.352,1.152 6.354,1.149 6.355,1.147 C6.357,1.147 6.359,1.147 6.361,1.147 C6.362,1.144 6.364,1.142 6.366,1.139 C6.367,1.139 6.369,1.139 6.371,1.139 C6.373,1.137 6.374,1.134 6.376,1.132 C6.378,1.132 6.380,1.132 6.381,1.132 C6.383,1.129 6.385,1.127 6.386,1.124 C6.388,1.124 6.390,1.124 6.392,1.124 C6.393,1.122 6.395,1.119 6.397,1.117 C6.399,1.117 6.400,1.117 6.402,1.117 C6.404,1.114 6.405,1.112 6.407,1.109 C6.409,1.109 6.411,1.109 6.412,1.109 C6.413,1.108 6.414,1.106 6.415,1.104 C6.417,1.104 6.418,1.104 6.420,1.104 C6.421,1.103 6.422,1.101 6.423,1.099 C6.425,1.098 6.428,1.098 6.430,1.097 C6.432,1.094 6.434,1.092 6.436,1.089 C6.437,1.089 6.439,1.089 6.441,1.089 C6.442,1.088 6.443,1.086 6.443,1.084 C6.445,1.084 6.447,1.084 6.449,1.084 C6.449,1.083 6.450,1.081 6.451,1.079 C6.454,1.078 6.456,1.078 6.459,1.077 C6.461,1.074 6.462,1.072 6.464,1.069 C6.466,1.069 6.468,1.069 6.469,1.069 C6.470,1.068 6.471,1.066 6.472,1.064 C6.474,1.064 6.475,1.064 6.477,1.064 C6.479,1.062 6.481,1.059 6.482,1.057 C6.484,1.057 6.486,1.057 6.487,1.057 C6.487,1.056 6.487,1.055 6.487,1.054 C6.490,1.053 6.493,1.053 6.495,1.052 C6.496,1.050 6.497,1.048 6.498,1.047 C6.500,1.047 6.501,1.047 6.503,1.047 C6.505,1.044 6.506,1.042 6.508,1.039 C6.510,1.039 6.512,1.039 6.513,1.039 C6.513,1.038 6.513,1.038 6.513,1.037 C6.516,1.036 6.518,1.035 6.521,1.034 C6.522,1.033 6.523,1.031 6.524,1.029 C6.525,1.029 6.527,1.029 6.529,1.029 C6.531,1.027 6.532,1.024 6.534,1.022 C6.536,1.022 6.537,1.022 6.539,1.022 C6.540,1.020 6.541,1.019 6.542,1.017 C6.544,1.016 6.547,1.015 6.550,1.014 C6.550,1.014 6.550,1.013 6.550,1.012 C6.551,1.012 6.553,1.012 6.555,1.012 C6.556,1.010 6.556,1.009 6.557,1.007 C6.559,1.007 6.561,1.007 6.563,1.007 C6.563,1.005 6.564,1.004 6.565,1.002 C6.567,1.002 6.569,1.002 6.570,1.002 C6.571,1.000 6.572,0.999 6.573,0.997 C6.575,0.997 6.576,0.997 6.578,0.997 C6.580,0.994 6.581,0.992 6.583,0.989 C6.585,0.989 6.587,0.989 6.588,0.989 C6.589,0.988 6.590,0.986 6.591,0.984 C6.594,0.984 6.596,0.983 6.599,0.982 C6.599,0.981 6.599,0.980 6.599,0.979 C6.600,0.979 6.602,0.979 6.604,0.979 C6.605,0.978 6.606,0.976 6.607,0.974 C6.608,0.974 6.610,0.974 6.612,0.974 C6.613,0.973 6.613,0.971 6.614,0.969 C6.616,0.969 6.618,0.969 6.619,0.969 C6.620,0.968 6.621,0.966 6.622,0.964 C6.624,0.964 6.625,0.964 6.627,0.964 C6.628,0.963 6.629,0.961 6.630,0.959 C6.633,0.959 6.637,0.958 6.640,0.957 C6.641,0.955 6.642,0.954 6.643,0.952 C6.644,0.952 6.646,0.952 6.648,0.952 C6.649,0.950 6.650,0.949 6.651,0.947 C6.652,0.947 6.654,0.947 6.656,0.947 C6.656,0.946 6.656,0.945 6.656,0.944 C6.658,0.944 6.661,0.943 6.663,0.942 C6.664,0.940 6.665,0.939 6.666,0.937 C6.668,0.937 6.670,0.937 6.671,0.937 C6.672,0.935 6.673,0.934 6.674,0.932 C6.676,0.931 6.679,0.930 6.682,0.929 C6.682,0.929 6.682,0.928 6.682,0.927 C6.685,0.926 6.688,0.925 6.692,0.924 C6.692,0.924 6.692,0.923 6.692,0.922 C6.695,0.921 6.697,0.920 6.700,0.920 C6.701,0.918 6.701,0.916 6.702,0.915 C6.704,0.915 6.706,0.915 6.707,0.915 C6.708,0.913 6.709,0.911 6.710,0.910 C6.714,0.909 6.717,0.908 6.720,0.907 C6.721,0.905 6.722,0.904 6.723,0.902 C6.725,0.902 6.726,0.902 6.728,0.902 C6.729,0.900 6.730,0.899 6.731,0.897 C6.734,0.896 6.738,0.895 6.741,0.895 C6.742,0.893 6.743,0.891 6.744,0.890 C6.745,0.890 6.747,0.890 6.749,0.890 C6.750,0.888 6.751,0.886 6.751,0.885 C6.755,0.884 6.758,0.883 6.762,0.882 C6.762,0.881 6.762,0.880 6.762,0.880 C6.764,0.879 6.767,0.878 6.770,0.877 C6.770,0.875 6.771,0.874 6.772,0.872 C6.774,0.872 6.776,0.872 6.777,0.872 C6.777,0.871 6.777,0.870 6.777,0.870 C6.779,0.870 6.781,0.870 6.783,0.870 C6.783,0.868 6.784,0.866 6.785,0.865 C6.789,0.864 6.792,0.863 6.795,0.862 C6.796,0.860 6.797,0.859 6.798,0.857 C6.802,0.856 6.805,0.855 6.808,0.855 C6.809,0.853 6.810,0.851 6.811,0.850 C6.814,0.849 6.818,0.848 6.821,0.847 C6.822,0.845 6.823,0.844 6.824,0.842 C6.827,0.841 6.831,0.840 6.834,0.840 C6.835,0.838 6.836,0.836 6.837,0.835 C6.840,0.834 6.844,0.833 6.847,0.832 C6.848,0.830 6.849,0.829 6.850,0.827 C6.852,0.827 6.853,0.827 6.855,0.827 C6.855,0.826 6.855,0.825 6.855,0.825 C6.857,0.825 6.858,0.825 6.860,0.825 C6.861,0.823 6.862,0.821 6.863,0.820 C6.866,0.819 6.870,0.818 6.873,0.817 C6.874,0.815 6.875,0.814 6.876,0.812 C6.877,0.812 6.879,0.812 6.881,0.812 C6.881,0.811 6.881,0.810 6.881,0.810 C6.883,0.810 6.884,0.810 6.886,0.810 C6.886,0.809 6.886,0.808 6.886,0.807 C6.888,0.807 6.890,0.807 6.891,0.807 C6.892,0.806 6.893,0.804 6.894,0.802 C6.899,0.801 6.904,0.799 6.909,0.797 C6.910,0.796 6.911,0.794 6.912,0.792 C6.917,0.791 6.922,0.789 6.928,0.787 C6.928,0.786 6.929,0.784 6.930,0.782 C6.935,0.781 6.940,0.779 6.946,0.777 C6.946,0.776 6.947,0.774 6.948,0.772 C6.953,0.771 6.959,0.769 6.964,0.767 C6.965,0.766 6.965,0.764 6.966,0.762 C6.968,0.762 6.970,0.762 6.972,0.762 C6.972,0.761 6.972,0.761 6.972,0.760 C6.973,0.760 6.975,0.760 6.977,0.760 C6.977,0.759 6.977,0.758 6.977,0.757 C6.978,0.757 6.980,0.757 6.982,0.757 C6.982,0.756 6.982,0.756 6.982,0.755 C6.984,0.755 6.985,0.755 6.987,0.755 C6.988,0.753 6.989,0.751 6.990,0.750 C6.991,0.750 6.993,0.750 6.995,0.750 C6.995,0.749 6.995,0.748 6.995,0.747 C6.997,0.747 6.998,0.747 7.000,0.747 C7.000,0.746 7.000,0.746 7.000,0.745 C7.002,0.745 7.003,0.745 7.005,0.745 C7.005,0.744 7.005,0.743 7.005,0.742 C7.007,0.742 7.009,0.742 7.010,0.742 C7.010,0.741 7.010,0.741 7.010,0.740 C7.012,0.740 7.014,0.740 7.016,0.740 C7.016,0.738 7.017,0.736 7.018,0.735 C7.020,0.735 7.022,0.735 7.023,0.735 C7.023,0.734 7.023,0.733 7.023,0.732 C7.025,0.732 7.027,0.732 7.028,0.732 C7.028,0.731 7.028,0.731 7.028,0.730 C7.030,0.730 7.032,0.730 7.034,0.730 C7.034,0.729 7.034,0.728 7.034,0.727 C7.035,0.727 7.037,0.727 7.039,0.727 C7.039,0.726 7.039,0.726 7.039,0.725 C7.042,0.724 7.046,0.723 7.049,0.722 C7.050,0.721 7.051,0.719 7.052,0.717 C7.054,0.717 7.055,0.717 7.057,0.717 C7.057,0.716 7.057,0.716 7.057,0.715 C7.059,0.715 7.060,0.715 7.062,0.715 C7.062,0.714 7.062,0.713 7.062,0.712 C7.064,0.712 7.066,0.712 7.067,0.712 C7.067,0.711 7.067,0.711 7.067,0.710 C7.069,0.710 7.071,0.710 7.072,0.710 C7.072,0.709 7.072,0.708 7.072,0.707 C7.074,0.707 7.076,0.707 7.078,0.707 C7.078,0.706 7.078,0.706 7.078,0.705 C7.081,0.704 7.085,0.703 7.088,0.702 C7.089,0.701 7.090,0.699 7.091,0.697 C7.092,0.697 7.094,0.697 7.096,0.697 C7.096,0.696 7.096,0.696 7.096,0.695 C7.098,0.695 7.099,0.695 7.101,0.695 C7.101,0.694 7.101,0.693 7.101,0.692 C7.103,0.692 7.104,0.692 7.106,0.692 C7.106,0.692 7.106,0.691 7.106,0.690 C7.108,0.690 7.110,0.690 7.111,0.690 C7.111,0.689 7.111,0.688 7.111,0.687 C7.113,0.687 7.115,0.687 7.116,0.687 C7.116,0.687 7.116,0.686 7.116,0.685 C7.122,0.683 7.127,0.682 7.132,0.680 C7.132,0.679 7.132,0.678 7.132,0.677 C7.137,0.676 7.142,0.674 7.148,0.672 C7.148,0.672 7.148,0.671 7.148,0.670 C7.151,0.669 7.154,0.668 7.158,0.667 C7.158,0.667 7.158,0.666 7.158,0.665 C7.161,0.664 7.165,0.663 7.168,0.662 C7.168,0.662 7.168,0.661 7.168,0.660 C7.170,0.660 7.172,0.660 7.173,0.660 C7.173,0.659 7.173,0.658 7.173,0.657 C7.175,0.657 7.177,0.657 7.179,0.657 C7.179,0.657 7.179,0.656 7.179,0.655 C7.180,0.655 7.182,0.655 7.184,0.655 C7.184,0.654 7.184,0.653 7.184,0.652 C7.186,0.652 7.187,0.652 7.189,0.652 C7.189,0.652 7.189,0.651 7.189,0.650 C7.191,0.650 7.192,0.650 7.194,0.650 C7.194,0.649 7.194,0.648 7.194,0.647 C7.196,0.647 7.198,0.647 7.199,0.647 C7.199,0.647 7.199,0.646 7.199,0.645 C7.201,0.645 7.203,0.645 7.205,0.645 C7.205,0.644 7.205,0.643 7.205,0.642 C7.206,0.642 7.208,0.642 7.210,0.642 C7.210,0.642 7.210,0.641 7.210,0.640 C7.211,0.640 7.213,0.640 7.215,0.640 C7.325,0.583 7.445,0.536 7.562,0.485 C7.577,0.480 7.593,0.475 7.608,0.470 C7.608,0.469 7.608,0.469 7.608,0.468 C7.610,0.468 7.612,0.468 7.614,0.468 C7.614,0.467 7.614,0.466 7.614,0.465 C7.618,0.464 7.622,0.464 7.626,0.463 C7.626,0.462 7.626,0.461 7.626,0.460 C7.629,0.460 7.632,0.460 7.634,0.460 C7.634,0.459 7.634,0.459 7.634,0.458 C7.636,0.458 7.638,0.458 7.639,0.458 C7.639,0.457 7.639,0.456 7.639,0.455 C7.642,0.455 7.645,0.455 7.647,0.455 C7.647,0.454 7.647,0.454 7.647,0.453 C7.649,0.453 7.651,0.453 7.652,0.453 C7.652,0.452 7.652,0.451 7.652,0.450 C7.655,0.450 7.658,0.450 7.660,0.450 C7.660,0.449 7.660,0.449 7.660,0.448 C7.662,0.448 7.664,0.448 7.665,0.448 C7.665,0.447 7.665,0.446 7.665,0.445 C7.668,0.445 7.670,0.445 7.673,0.445 C7.673,0.444 7.673,0.444 7.673,0.443 C7.675,0.443 7.677,0.443 7.678,0.443 C7.678,0.442 7.678,0.441 7.678,0.440 C7.683,0.439 7.689,0.439 7.694,0.438 C7.694,0.437 7.694,0.436 7.694,0.435 C7.696,0.435 7.697,0.435 7.699,0.435 C7.699,0.434 7.699,0.434 7.699,0.433 C7.702,0.433 7.704,0.433 7.707,0.433 C7.707,0.432 7.707,0.431 7.707,0.430 C7.708,0.430 7.710,0.430 7.712,0.430 C7.712,0.429 7.712,0.429 7.712,0.428 C7.717,0.427 7.722,0.426 7.727,0.425 C7.727,0.424 7.727,0.424 7.727,0.423 C7.729,0.423 7.731,0.423 7.733,0.423 C7.733,0.422 7.733,0.421 7.733,0.420 C7.735,0.420 7.738,0.420 7.740,0.420 C7.740,0.419 7.740,0.419 7.740,0.418 C7.743,0.418 7.746,0.418 7.748,0.418 C7.748,0.417 7.748,0.416 7.748,0.415 C7.750,0.415 7.752,0.415 7.753,0.415 C7.753,0.414 7.753,0.414 7.753,0.413 C7.759,0.412 7.764,0.411 7.769,0.410 C7.769,0.409 7.769,0.409 7.769,0.408 C7.771,0.408 7.772,0.408 7.774,0.408 C7.774,0.407 7.774,0.406 7.774,0.405 C7.779,0.404 7.784,0.404 7.790,0.403 C7.790,0.402 7.790,0.401 7.790,0.400 C7.792,0.400 7.795,0.400 7.797,0.400 C7.797,0.399 7.797,0.399 7.797,0.398 C7.799,0.398 7.801,0.398 7.803,0.398 C7.803,0.397 7.803,0.396 7.803,0.395 C7.810,0.394 7.818,0.392 7.826,0.390 C7.826,0.389 7.826,0.389 7.826,0.388 C7.828,0.388 7.829,0.388 7.831,0.388 C7.831,0.387 7.831,0.386 7.831,0.385 C7.834,0.385 7.836,0.385 7.839,0.385 C7.839,0.384 7.839,0.384 7.839,0.383 C7.841,0.383 7.844,0.383 7.847,0.383 C7.847,0.382 7.847,0.381 7.847,0.380 C7.849,0.380 7.852,0.380 7.854,0.380 C7.854,0.379 7.854,0.379 7.854,0.378 C7.857,0.378 7.859,0.378 7.862,0.378 C7.862,0.377 7.862,0.376 7.862,0.375 C7.865,0.375 7.867,0.375 7.870,0.375 C7.870,0.374 7.870,0.374 7.870,0.373 C7.872,0.373 7.873,0.373 7.875,0.373 C7.875,0.372 7.875,0.371 7.875,0.370 C7.880,0.369 7.885,0.369 7.891,0.368 C7.891,0.367 7.891,0.366 7.891,0.365 C7.893,0.365 7.896,0.365 7.898,0.365 C7.898,0.364 7.898,0.364 7.898,0.363 C7.901,0.363 7.903,0.363 7.906,0.363 C7.906,0.362 7.906,0.361 7.906,0.360 C7.909,0.360 7.911,0.360 7.914,0.360 C7.914,0.359 7.914,0.359 7.914,0.358 C7.916,0.358 7.919,0.358 7.922,0.358 C7.922,0.357 7.922,0.356 7.922,0.355 C7.924,0.355 7.927,0.355 7.929,0.355 C7.929,0.355 7.929,0.354 7.929,0.353 C7.932,0.353 7.935,0.353 7.937,0.353 C7.937,0.352 7.937,0.351 7.937,0.350 C7.945,0.349 7.953,0.347 7.960,0.345 C8.050,0.311 8.152,0.290 8.245,0.258 C8.252,0.257 8.259,0.256 8.266,0.255 C8.298,0.244 8.337,0.237 8.369,0.226 C8.380,0.224 8.390,0.222 8.401,0.221 C8.426,0.212 8.458,0.206 8.483,0.198 C8.488,0.198 8.492,0.198 8.496,0.198 C8.534,0.186 8.580,0.180 8.618,0.168 C8.627,0.167 8.635,0.166 8.644,0.166 C8.644,0.165 8.644,0.164 8.644,0.163 C8.647,0.163 8.651,0.163 8.654,0.163 C8.654,0.162 8.654,0.161 8.654,0.161 C8.659,0.161 8.663,0.161 8.667,0.161 C8.667,0.160 8.667,0.159 8.667,0.158 C8.671,0.158 8.676,0.158 8.680,0.158 C8.680,0.157 8.680,0.156 8.680,0.156 C8.684,0.156 8.687,0.156 8.690,0.156 C8.690,0.155 8.690,0.154 8.690,0.153 C8.695,0.153 8.699,0.153 8.703,0.153 C8.719,0.148 8.740,0.145 8.755,0.141 C8.764,0.140 8.772,0.139 8.781,0.138 C8.801,0.132 8.828,0.129 8.848,0.123 C8.854,0.123 8.859,0.123 8.864,0.123 C8.891,0.115 8.925,0.113 8.952,0.106 C8.962,0.105 8.973,0.104 8.983,0.103 C9.018,0.093 9.062,0.093 9.097,0.083 C9.103,0.083 9.109,0.083 9.115,0.083 C9.115,0.082 9.115,0.082 9.115,0.081 C9.121,0.081 9.127,0.081 9.133,0.081 C9.133,0.080 9.133,0.079 9.133,0.078 C9.139,0.078 9.145,0.078 9.151,0.078 C9.151,0.077 9.151,0.077 9.151,0.076 C9.157,0.076 9.163,0.076 9.169,0.076 C9.169,0.075 9.169,0.074 9.169,0.073 C9.175,0.073 9.181,0.073 9.188,0.073 C9.188,0.072 9.188,0.072 9.188,0.071 C9.194,0.071 9.200,0.071 9.206,0.071 C9.206,0.070 9.206,0.069 9.206,0.068 C9.213,0.068 9.219,0.068 9.226,0.068 C9.250,0.062 9.283,0.062 9.307,0.056 C9.314,0.056 9.322,0.056 9.330,0.056 C9.330,0.055 9.330,0.054 9.330,0.053 C9.337,0.053 9.344,0.053 9.351,0.053 C9.351,0.052 9.351,0.052 9.351,0.051 C9.358,0.051 9.366,0.051 9.374,0.051 C9.374,0.050 9.374,0.049 9.374,0.048 C9.382,0.048 9.389,0.048 9.397,0.048 C9.397,0.047 9.397,0.047 9.397,0.046 C9.406,0.046 9.414,0.046 9.423,0.046 C9.423,0.045 9.423,0.044 9.423,0.043 C9.431,0.043 9.439,0.043 9.446,0.043 C9.446,0.042 9.446,0.042 9.446,0.041 C9.455,0.041 9.464,0.041 9.472,0.041 C9.472,0.040 9.472,0.039 9.472,0.038 C9.481,0.038 9.490,0.038 9.498,0.038 C9.498,0.037 9.498,0.037 9.498,0.036 C9.508,0.036 9.517,0.036 9.527,0.036 C9.527,0.035 9.527,0.034 9.527,0.033 C9.536,0.033 9.546,0.033 9.555,0.033 C9.555,0.032 9.555,0.032 9.555,0.031 C9.565,0.031 9.576,0.031 9.586,0.031 C9.586,0.030 9.586,0.029 9.586,0.028 C9.597,0.028 9.607,0.028 9.617,0.028 C9.617,0.027 9.617,0.027 9.617,0.026 C9.628,0.026 9.638,0.026 9.648,0.026 C9.648,0.025 9.648,0.024 9.648,0.023 C9.672,0.022 9.697,0.022 9.721,0.021 C9.721,0.020 9.721,0.019 9.721,0.018 C9.739,0.018 9.757,0.017 9.775,0.016 C9.785,0.016 9.794,0.016 9.804,0.016 C9.804,0.015 9.804,0.014 9.804,0.013 C9.819,0.013 9.835,0.013 9.850,0.013 C9.850,0.013 9.850,0.012 9.850,0.011 C9.867,0.011 9.885,0.011 9.902,0.011 C9.902,0.010 9.902,0.009 9.902,0.008 C9.923,0.008 9.943,0.008 9.964,0.008 C9.964,0.008 9.964,0.007 9.964,0.006 C9.976,0.006 9.988,0.006 10.000,0.006 C10.013,0.006 10.026,0.006 10.039,0.006 C10.061,0.000 10.096,0.003 10.122,0.003 C10.131,0.003 10.139,0.003 10.148,0.003 C10.169,-0.002 10.203,0.001 10.228,0.001 C10.282,0.001 10.335,0.001 10.389,0.001 C10.537,0.002 10.686,0.003 10.834,0.003 C10.834,0.004 10.834,0.005 10.834,0.006 C10.842,0.006 10.849,0.006 10.857,0.006 C10.901,0.006 10.945,0.006 10.989,0.006 C10.989,0.007 10.989,0.008 10.989,0.008 C10.999,0.008 11.008,0.008 11.018,0.008 C11.048,0.008 11.090,0.004 11.116,0.011 C11.216,0.013 11.316,0.014 11.416,0.016 C11.438,0.022 11.471,0.014 11.497,0.018 C11.507,0.020 11.521,0.021 11.536,0.021 C11.550,0.021 11.565,0.021 11.580,0.021 C11.580,0.022 11.580,0.022 11.580,0.023 C11.605,0.023 11.630,0.023 11.655,0.023 C11.655,0.024 11.655,0.025 11.655,0.026 C11.664,0.026 11.674,0.026 11.683,0.026 C11.697,0.026 11.711,0.026 11.724,0.026 C11.724,0.027 11.724,0.027 11.724,0.028 C11.747,0.028 11.769,0.028 11.792,0.028 C11.792,0.029 11.792,0.030 11.792,0.031 C11.813,0.031 11.835,0.031 11.857,0.031 C11.857,0.032 11.857,0.032 11.857,0.033 C11.877,0.033 11.898,0.033 11.919,0.033 C11.935,0.038 11.962,0.031 11.978,0.036 C11.993,0.040 12.020,0.034 12.035,0.038 C12.067,0.047 12.115,0.037 12.146,0.046 C12.198,0.047 12.250,0.049 12.302,0.051 C12.302,0.052 12.302,0.052 12.302,0.053 C12.318,0.053 12.335,0.053 12.351,0.053 C12.351,0.054 12.351,0.055 12.351,0.056 C12.355,0.056 12.360,0.056 12.364,0.056 C12.375,0.056 12.386,0.056 12.398,0.056 C12.398,0.057 12.398,0.057 12.398,0.058 C12.419,0.059 12.441,0.060 12.462,0.061 C12.472,0.061 12.481,0.061 12.491,0.061 C12.491,0.062 12.491,0.062 12.491,0.063 C12.511,0.064 12.530,0.065 12.550,0.066 C12.560,0.066 12.569,0.066 12.579,0.066 C12.579,0.067 12.579,0.067 12.579,0.068 C12.593,0.068 12.608,0.068 12.623,0.068 C12.623,0.069 12.623,0.070 12.623,0.071 C12.637,0.071 12.650,0.071 12.664,0.071 C12.664,0.072 12.664,0.072 12.664,0.073 C12.682,0.074 12.700,0.075 12.719,0.076 C12.728,0.076 12.738,0.076 12.747,0.076 C12.747,0.077 12.747,0.077 12.747,0.078 C12.760,0.078 12.773,0.078 12.786,0.078 C12.786,0.079 12.786,0.080 12.786,0.081 C12.825,0.082 12.864,0.084 12.902,0.086 C12.902,0.087 12.902,0.087 12.902,0.088 C12.919,0.089 12.935,0.090 12.952,0.091 C12.960,0.091 12.969,0.091 12.977,0.091 C12.977,0.092 12.977,0.092 12.977,0.093 C12.990,0.093 13.002,0.093 13.014,0.093 C13.014,0.094 13.014,0.095 13.014,0.096 C13.016,0.096 13.019,0.096 13.021,0.096 C13.030,0.096 13.039,0.096 13.047,0.096 C13.047,0.097 13.047,0.097 13.047,0.098 C13.059,0.098 13.072,0.098 13.084,0.098 C13.084,0.099 13.084,0.100 13.084,0.101 C13.095,0.101 13.106,0.101 13.117,0.101 C13.117,0.102 13.117,0.102 13.117,0.103 C13.129,0.103 13.141,0.103 13.153,0.103 C13.153,0.104 13.153,0.105 13.153,0.106 C13.156,0.106 13.159,0.106 13.161,0.106 C13.170,0.106 13.179,0.106 13.187,0.106 C13.187,0.107 13.187,0.107 13.187,0.108 C13.197,0.108 13.208,0.108 13.218,0.108 C13.218,0.109 13.218,0.110 13.218,0.111 C13.241,0.112 13.263,0.112 13.286,0.113 C13.286,0.114 13.286,0.115 13.286,0.116 C13.296,0.116 13.306,0.116 13.317,0.116 C13.317,0.117 13.317,0.117 13.317,0.118 C13.327,0.118 13.337,0.118 13.348,0.118 C13.348,0.119 13.348,0.120 13.348,0.121 C13.358,0.121 13.368,0.121 13.379,0.121 C13.379,0.122 13.379,0.122 13.379,0.123 C13.389,0.123 13.399,0.123 13.410,0.123 C13.410,0.124 13.410,0.125 13.410,0.126 C13.419,0.126 13.429,0.126 13.438,0.126 C13.438,0.127 13.438,0.127 13.438,0.128 C13.449,0.128 13.459,0.128 13.469,0.128 C13.469,0.129 13.469,0.130 13.469,0.131 C13.488,0.131 13.507,0.132 13.526,0.133 C13.526,0.134 13.526,0.135 13.526,0.136 C13.536,0.136 13.545,0.136 13.555,0.136 C13.555,0.136 13.555,0.137 13.555,0.138 C13.564,0.138 13.574,0.138 13.583,0.138 C13.583,0.139 13.583,0.140 13.583,0.141 C13.593,0.141 13.602,0.141 13.612,0.141 C13.612,0.141 13.612,0.142 13.612,0.143 C13.620,0.143 13.629,0.143 13.638,0.143 C13.638,0.144 13.638,0.145 13.638,0.146 C13.646,0.146 13.655,0.146 13.663,0.146 C13.663,0.146 13.663,0.147 13.663,0.148 C13.673,0.148 13.682,0.148 13.692,0.148 C13.692,0.149 13.692,0.150 13.692,0.151 C13.701,0.151 13.709,0.151 13.718,0.151 C13.718,0.151 13.718,0.152 13.718,0.153 C13.726,0.153 13.733,0.153 13.741,0.153 C13.741,0.154 13.741,0.155 13.741,0.156 C13.750,0.156 13.758,0.156 13.767,0.156 C13.767,0.156 13.767,0.157 13.767,0.158 C13.776,0.158 13.784,0.158 13.793,0.158 C13.793,0.159 13.793,0.160 13.793,0.161 C13.801,0.161 13.808,0.161 13.816,0.161 C13.816,0.161 13.816,0.162 13.816,0.163 C13.824,0.163 13.832,0.163 13.839,0.163 C13.839,0.164 13.839,0.165 13.839,0.166 C13.847,0.166 13.855,0.166 13.863,0.166 C13.863,0.166 13.863,0.167 13.863,0.168 C13.871,0.168 13.878,0.168 13.886,0.168 C13.886,0.169 13.886,0.170 13.886,0.171 C13.894,0.171 13.902,0.171 13.909,0.171 C13.909,0.171 13.909,0.172 13.909,0.173 C13.916,0.173 13.923,0.173 13.930,0.173 C13.953,0.176 13.977,0.180 14.000,0.183 Z"/>
</svg>