<svg 
 xmlns="http://www.w3.org/2000/svg"
 xmlns:xlink="http://www.w3.org/1999/xlink"
 width="24px" height="20px">
<path fill-rule="evenodd"  fill="rgb(0, 0, 0)"
 d="M11.803,5.837 C11.791,5.779 11.766,5.713 11.751,5.664 C11.746,5.578 11.740,5.492 11.734,5.405 C11.728,5.405 11.723,5.405 11.717,5.405 C11.717,5.227 11.717,5.049 11.717,4.870 C11.717,4.345 11.753,3.907 11.888,3.524 C11.894,3.483 11.900,3.443 11.906,3.403 C11.911,3.403 11.917,3.403 11.923,3.403 C11.923,3.386 11.923,3.368 11.923,3.351 C11.929,3.351 11.934,3.351 11.940,3.351 C11.940,3.334 11.940,3.317 11.940,3.299 C11.946,3.299 11.951,3.299 11.957,3.299 C11.957,3.282 11.957,3.265 11.957,3.247 C11.963,3.247 11.969,3.247 11.974,3.247 C11.974,3.230 11.974,3.213 11.974,3.196 C11.980,3.196 11.986,3.196 11.991,3.196 C11.991,3.178 11.991,3.161 11.991,3.144 C11.997,3.144 12.003,3.144 12.009,3.144 C12.009,3.132 12.009,3.121 12.009,3.109 C12.014,3.109 12.020,3.109 12.026,3.109 C12.026,3.092 12.026,3.075 12.026,3.058 C12.031,3.058 12.037,3.058 12.043,3.058 C12.043,3.046 12.043,3.035 12.043,3.023 C12.049,3.023 12.054,3.023 12.060,3.023 C12.060,3.006 12.060,2.989 12.060,2.971 C12.066,2.971 12.071,2.971 12.077,2.971 C12.083,2.948 12.089,2.925 12.094,2.902 C12.100,2.902 12.106,2.902 12.112,2.902 C12.112,2.891 12.112,2.879 12.112,2.868 C12.117,2.868 12.123,2.868 12.129,2.868 C12.129,2.850 12.129,2.833 12.129,2.816 C12.134,2.816 12.140,2.816 12.146,2.816 C12.157,2.781 12.169,2.747 12.180,2.712 C12.186,2.712 12.192,2.712 12.197,2.712 C12.197,2.701 12.197,2.689 12.197,2.678 C12.203,2.678 12.209,2.678 12.214,2.678 C12.226,2.643 12.237,2.609 12.249,2.574 C12.260,2.569 12.272,2.563 12.283,2.557 C12.294,2.522 12.306,2.488 12.317,2.453 C12.329,2.448 12.340,2.442 12.352,2.436 C12.357,2.413 12.363,2.390 12.369,2.367 C12.380,2.361 12.392,2.356 12.403,2.350 C12.409,2.327 12.415,2.304 12.420,2.281 C12.426,2.281 12.432,2.281 12.437,2.281 C12.443,2.264 12.449,2.246 12.455,2.229 C12.466,2.223 12.477,2.218 12.489,2.212 C12.489,2.200 12.489,2.189 12.489,2.177 C12.495,2.177 12.500,2.177 12.506,2.177 C12.512,2.160 12.518,2.143 12.523,2.125 C12.535,2.120 12.546,2.114 12.558,2.108 C12.558,2.097 12.558,2.085 12.558,2.074 C12.575,2.062 12.592,2.051 12.609,2.039 C12.609,2.028 12.609,2.016 12.609,2.005 C12.626,1.993 12.643,1.982 12.660,1.970 C12.660,1.959 12.660,1.947 12.660,1.936 C12.678,1.924 12.695,1.913 12.712,1.901 C12.712,1.890 12.712,1.878 12.712,1.867 C12.729,1.855 12.746,1.843 12.763,1.832 C12.763,1.826 12.763,1.820 12.763,1.815 C12.775,1.809 12.786,1.803 12.798,1.797 C12.798,1.786 12.798,1.774 12.798,1.763 C12.832,1.734 12.866,1.705 12.901,1.677 C12.901,1.665 12.901,1.654 12.901,1.642 C12.952,1.596 13.004,1.550 13.055,1.504 C13.129,1.423 13.204,1.343 13.278,1.262 C13.289,1.262 13.301,1.262 13.312,1.262 C13.341,1.228 13.370,1.193 13.398,1.159 C13.410,1.159 13.421,1.159 13.432,1.159 C13.455,1.130 13.478,1.101 13.501,1.072 C13.513,1.072 13.524,1.072 13.535,1.072 C13.547,1.055 13.558,1.038 13.570,1.021 C13.581,1.021 13.593,1.021 13.604,1.021 C13.615,1.003 13.627,0.986 13.638,0.969 C13.650,0.969 13.661,0.969 13.673,0.969 C13.684,0.952 13.695,0.934 13.707,0.917 C13.718,0.917 13.730,0.917 13.741,0.917 C13.747,0.906 13.753,0.894 13.758,0.883 C13.776,0.877 13.793,0.871 13.810,0.865 C13.810,0.860 13.810,0.854 13.810,0.848 C13.821,0.848 13.833,0.848 13.844,0.848 C13.850,0.837 13.856,0.825 13.861,0.813 C13.878,0.808 13.896,0.802 13.913,0.796 C13.913,0.790 13.913,0.785 13.913,0.779 C13.936,0.773 13.959,0.767 13.981,0.762 C13.987,0.750 13.993,0.739 13.999,0.727 C14.021,0.721 14.044,0.716 14.067,0.710 C14.073,0.698 14.079,0.687 14.084,0.675 C14.119,0.664 14.153,0.652 14.187,0.641 C14.193,0.629 14.199,0.618 14.204,0.606 C14.216,0.606 14.227,0.606 14.239,0.606 C14.239,0.601 14.239,0.595 14.239,0.589 C14.250,0.589 14.262,0.589 14.273,0.589 C14.273,0.583 14.273,0.578 14.273,0.572 C14.284,0.572 14.296,0.572 14.307,0.572 C14.307,0.566 14.307,0.560 14.307,0.555 C14.319,0.555 14.330,0.555 14.342,0.555 C14.342,0.549 14.342,0.543 14.342,0.537 C14.353,0.537 14.365,0.537 14.376,0.537 C14.376,0.532 14.376,0.526 14.376,0.520 C14.387,0.520 14.399,0.520 14.410,0.520 C14.410,0.514 14.410,0.509 14.410,0.503 C14.422,0.503 14.433,0.503 14.445,0.503 C14.445,0.497 14.445,0.491 14.445,0.486 C14.479,0.474 14.513,0.462 14.548,0.451 C14.548,0.445 14.548,0.439 14.548,0.434 C14.565,0.434 14.582,0.434 14.599,0.434 C14.599,0.428 14.599,0.422 14.599,0.416 C14.622,0.411 14.645,0.405 14.668,0.399 C14.668,0.393 14.668,0.388 14.668,0.382 C14.685,0.382 14.702,0.382 14.719,0.382 C14.719,0.376 14.719,0.370 14.719,0.365 C14.731,0.365 14.742,0.365 14.753,0.365 C14.753,0.359 14.753,0.353 14.753,0.347 C14.788,0.342 14.822,0.336 14.856,0.330 C14.856,0.324 14.856,0.319 14.856,0.313 C14.868,0.313 14.879,0.313 14.891,0.313 C14.891,0.307 14.891,0.301 14.891,0.296 C15.085,0.238 15.280,0.181 15.474,0.123 C15.502,0.123 15.531,0.123 15.560,0.123 C15.560,0.117 15.560,0.111 15.560,0.106 C15.583,0.106 15.605,0.106 15.628,0.106 C15.628,0.100 15.628,0.094 15.628,0.088 C15.663,0.088 15.697,0.088 15.731,0.088 C15.731,0.083 15.731,0.077 15.731,0.071 C15.766,0.071 15.800,0.071 15.834,0.071 C15.834,0.065 15.834,0.060 15.834,0.054 C16.000,0.042 16.166,0.031 16.332,0.019 C16.332,0.014 16.332,0.008 16.332,0.002 C16.520,0.002 16.709,0.002 16.898,0.002 C16.898,0.008 16.898,0.014 16.898,0.019 C16.972,0.019 17.046,0.019 17.121,0.019 C17.121,0.025 17.121,0.031 17.121,0.037 C17.172,0.037 17.224,0.037 17.275,0.037 C17.275,0.042 17.275,0.048 17.275,0.054 C17.315,0.054 17.355,0.054 17.395,0.054 C17.395,0.060 17.395,0.065 17.395,0.071 C17.430,0.071 17.464,0.071 17.498,0.071 C17.498,0.077 17.498,0.083 17.498,0.088 C17.555,0.094 17.613,0.100 17.670,0.106 C17.670,0.111 17.670,0.117 17.670,0.123 C17.721,0.129 17.773,0.135 17.824,0.140 C17.824,0.146 17.824,0.152 17.824,0.158 C17.847,0.158 17.870,0.158 17.893,0.158 C17.893,0.163 17.893,0.169 17.893,0.175 C17.933,0.181 17.973,0.186 18.013,0.192 C18.013,0.198 18.013,0.204 18.013,0.209 C18.030,0.209 18.047,0.209 18.064,0.209 C18.064,0.215 18.064,0.221 18.064,0.227 C18.087,0.227 18.110,0.227 18.133,0.227 C18.133,0.232 18.133,0.238 18.133,0.244 C18.150,0.244 18.167,0.244 18.184,0.244 C18.184,0.250 18.184,0.255 18.184,0.261 C18.202,0.261 18.219,0.261 18.236,0.261 C18.236,0.267 18.236,0.273 18.236,0.278 C18.253,0.278 18.270,0.278 18.287,0.278 C18.287,0.284 18.287,0.290 18.287,0.296 C18.305,0.296 18.322,0.296 18.339,0.296 C18.339,0.301 18.339,0.307 18.339,0.313 C18.350,0.313 18.362,0.313 18.373,0.313 C18.373,0.319 18.373,0.324 18.373,0.330 C18.407,0.336 18.442,0.342 18.476,0.347 C18.476,0.353 18.476,0.359 18.476,0.365 C18.499,0.370 18.522,0.376 18.545,0.382 C18.545,0.388 18.545,0.393 18.545,0.399 C18.562,0.399 18.579,0.399 18.596,0.399 C18.596,0.405 18.596,0.411 18.596,0.416 C18.608,0.416 18.619,0.416 18.630,0.416 C18.630,0.422 18.630,0.428 18.630,0.434 C18.648,0.434 18.665,0.434 18.682,0.434 C18.682,0.439 18.682,0.445 18.682,0.451 C18.716,0.462 18.751,0.474 18.785,0.486 C18.785,0.491 18.785,0.497 18.785,0.503 C18.796,0.503 18.808,0.503 18.819,0.503 C18.819,0.509 18.819,0.514 18.819,0.520 C18.831,0.520 18.842,0.520 18.853,0.520 C18.853,0.526 18.853,0.532 18.853,0.537 C18.882,0.543 18.911,0.549 18.939,0.555 C18.945,0.566 18.951,0.578 18.956,0.589 C18.968,0.589 18.979,0.589 18.991,0.589 C18.991,0.595 18.991,0.601 18.991,0.606 C19.002,0.606 19.014,0.606 19.025,0.606 C19.025,0.612 19.025,0.618 19.025,0.624 C19.036,0.624 19.048,0.624 19.059,0.624 C19.059,0.629 19.059,0.635 19.059,0.641 C19.071,0.641 19.082,0.641 19.094,0.641 C19.094,0.647 19.094,0.652 19.094,0.658 C19.105,0.658 19.117,0.658 19.128,0.658 C19.134,0.670 19.139,0.681 19.145,0.693 C19.179,0.704 19.214,0.716 19.248,0.727 C19.254,0.739 19.259,0.750 19.265,0.762 C19.277,0.762 19.288,0.762 19.299,0.762 C19.299,0.767 19.299,0.773 19.299,0.779 C19.311,0.779 19.322,0.779 19.334,0.779 C19.334,0.785 19.334,0.790 19.334,0.796 C19.351,0.802 19.368,0.808 19.385,0.813 C19.391,0.825 19.397,0.837 19.402,0.848 C19.425,0.854 19.448,0.860 19.471,0.865 C19.477,0.877 19.482,0.888 19.488,0.900 C19.500,0.900 19.511,0.900 19.523,0.900 C19.528,0.911 19.534,0.923 19.540,0.934 C19.551,0.934 19.563,0.934 19.574,0.934 C19.585,0.952 19.597,0.969 19.608,0.986 C19.620,0.986 19.631,0.986 19.643,0.986 C19.648,0.998 19.654,1.009 19.660,1.021 C19.671,1.021 19.683,1.021 19.694,1.021 C19.706,1.038 19.717,1.055 19.728,1.072 C19.740,1.072 19.751,1.072 19.763,1.072 C19.774,1.090 19.786,1.107 19.797,1.124 C19.808,1.124 19.820,1.124 19.831,1.124 C19.848,1.147 19.866,1.170 19.883,1.193 C19.894,1.193 19.906,1.193 19.917,1.193 C19.934,1.216 19.951,1.239 19.969,1.262 C19.980,1.262 19.991,1.262 20.003,1.262 C20.031,1.297 20.060,1.331 20.089,1.366 C20.100,1.366 20.112,1.366 20.123,1.366 C20.180,1.429 20.237,1.492 20.294,1.556 C20.323,1.556 20.352,1.556 20.380,1.556 C20.425,1.518 20.489,1.542 20.552,1.521 C20.552,1.515 20.552,1.510 20.552,1.504 C20.580,1.504 20.609,1.504 20.638,1.504 C20.638,1.498 20.638,1.492 20.638,1.487 C20.666,1.487 20.695,1.487 20.723,1.487 C20.723,1.481 20.723,1.475 20.723,1.469 C20.746,1.469 20.769,1.469 20.792,1.469 C20.792,1.464 20.792,1.458 20.792,1.452 C20.815,1.452 20.838,1.452 20.861,1.452 C20.861,1.446 20.861,1.441 20.861,1.435 C20.883,1.435 20.906,1.435 20.929,1.435 C20.929,1.429 20.929,1.423 20.929,1.418 C20.952,1.418 20.975,1.418 20.998,1.418 C20.998,1.412 20.998,1.406 20.998,1.400 C21.044,1.395 21.089,1.389 21.135,1.383 C21.135,1.377 21.135,1.372 21.135,1.366 C21.192,1.354 21.249,1.343 21.307,1.331 C21.307,1.326 21.307,1.320 21.307,1.314 C21.324,1.314 21.341,1.314 21.358,1.314 C21.358,1.308 21.358,1.303 21.358,1.297 C21.375,1.297 21.392,1.297 21.410,1.297 C21.410,1.291 21.410,1.285 21.410,1.280 C21.427,1.280 21.444,1.280 21.461,1.280 C21.461,1.274 21.461,1.268 21.461,1.262 C21.484,1.262 21.507,1.262 21.530,1.262 C21.530,1.257 21.530,1.251 21.530,1.245 C21.564,1.239 21.598,1.234 21.633,1.228 C21.633,1.222 21.633,1.216 21.633,1.211 C21.644,1.211 21.655,1.211 21.667,1.211 C21.667,1.205 21.667,1.199 21.667,1.193 C21.690,1.193 21.713,1.193 21.736,1.193 C21.736,1.188 21.736,1.182 21.736,1.176 C21.747,1.176 21.758,1.176 21.770,1.176 C21.770,1.170 21.770,1.164 21.770,1.159 C21.804,1.153 21.838,1.147 21.873,1.141 C21.873,1.136 21.873,1.130 21.873,1.124 C21.884,1.124 21.896,1.124 21.907,1.124 C21.907,1.118 21.907,1.113 21.907,1.107 C21.924,1.107 21.941,1.107 21.959,1.107 C21.959,1.101 21.959,1.095 21.959,1.090 C21.970,1.090 21.981,1.090 21.993,1.090 C21.993,1.084 21.993,1.078 21.993,1.072 C22.027,1.067 22.061,1.061 22.096,1.055 C22.096,1.049 22.096,1.044 22.096,1.038 C22.119,1.032 22.142,1.026 22.164,1.021 C22.164,1.015 22.164,1.009 22.164,1.003 C22.182,1.003 22.199,1.003 22.216,1.003 C22.216,0.998 22.216,0.992 22.216,0.986 C22.227,0.986 22.239,0.986 22.250,0.986 C22.250,0.980 22.250,0.975 22.250,0.969 C22.267,0.969 22.284,0.969 22.302,0.969 C22.302,0.963 22.302,0.957 22.302,0.952 C22.325,0.946 22.347,0.940 22.370,0.934 C22.370,0.929 22.370,0.923 22.370,0.917 C22.382,0.917 22.393,0.917 22.405,0.917 C22.405,0.911 22.405,0.906 22.405,0.900 C22.422,0.900 22.439,0.900 22.456,0.900 C22.456,0.894 22.456,0.888 22.456,0.883 C22.467,0.883 22.479,0.883 22.490,0.883 C22.490,0.877 22.490,0.871 22.490,0.865 C22.502,0.865 22.513,0.865 22.525,0.865 C22.525,0.860 22.525,0.854 22.525,0.848 C22.559,0.837 22.593,0.825 22.628,0.813 C22.628,0.808 22.628,0.802 22.628,0.796 C22.679,0.779 22.731,0.762 22.782,0.744 C22.782,0.739 22.782,0.733 22.782,0.727 C22.816,0.716 22.851,0.704 22.885,0.693 C22.891,0.681 22.896,0.670 22.902,0.658 C22.914,0.658 22.925,0.658 22.936,0.658 C22.936,0.652 22.936,0.647 22.936,0.641 C22.948,0.641 22.959,0.641 22.971,0.641 C22.971,0.635 22.971,0.629 22.971,0.624 C22.982,0.624 22.994,0.624 23.005,0.624 C23.005,0.618 23.005,0.612 23.005,0.606 C23.016,0.606 23.028,0.606 23.039,0.606 C23.039,0.601 23.039,0.595 23.039,0.589 C23.051,0.589 23.062,0.589 23.074,0.589 C23.074,0.583 23.074,0.578 23.074,0.572 C23.085,0.572 23.096,0.572 23.108,0.572 C23.108,0.566 23.108,0.560 23.108,0.555 C23.119,0.555 23.131,0.555 23.142,0.555 C23.142,0.549 23.142,0.543 23.142,0.537 C23.154,0.537 23.165,0.537 23.177,0.537 C23.182,0.526 23.188,0.514 23.194,0.503 C23.217,0.497 23.239,0.491 23.262,0.486 C23.315,0.457 23.348,0.415 23.417,0.399 C23.417,0.405 23.417,0.411 23.417,0.416 C23.378,0.452 23.388,0.488 23.365,0.537 C23.360,0.537 23.354,0.537 23.348,0.537 C23.348,0.555 23.348,0.572 23.348,0.589 C23.342,0.589 23.337,0.589 23.331,0.589 C23.320,0.624 23.308,0.658 23.297,0.693 C23.291,0.693 23.285,0.693 23.279,0.693 C23.279,0.704 23.279,0.716 23.279,0.727 C23.274,0.727 23.268,0.727 23.262,0.727 C23.262,0.744 23.262,0.762 23.262,0.779 C23.257,0.779 23.251,0.779 23.245,0.779 C23.234,0.813 23.222,0.848 23.211,0.883 C23.205,0.883 23.199,0.883 23.194,0.883 C23.194,0.894 23.194,0.906 23.194,0.917 C23.188,0.917 23.182,0.917 23.177,0.917 C23.171,0.940 23.165,0.963 23.159,0.986 C23.148,0.992 23.137,0.998 23.125,1.003 C23.125,1.015 23.125,1.026 23.125,1.038 C23.119,1.038 23.114,1.038 23.108,1.038 C23.108,1.049 23.108,1.061 23.108,1.072 C23.102,1.072 23.096,1.072 23.091,1.072 C23.091,1.084 23.091,1.095 23.091,1.107 C23.085,1.107 23.079,1.107 23.074,1.107 C23.074,1.118 23.074,1.130 23.074,1.141 C23.062,1.147 23.051,1.153 23.039,1.159 C23.034,1.182 23.028,1.205 23.022,1.228 C23.011,1.234 22.999,1.239 22.988,1.245 C22.982,1.268 22.976,1.291 22.971,1.314 C22.965,1.314 22.959,1.314 22.954,1.314 C22.948,1.331 22.942,1.349 22.936,1.366 C22.925,1.372 22.914,1.377 22.902,1.383 C22.902,1.395 22.902,1.406 22.902,1.418 C22.896,1.418 22.891,1.418 22.885,1.418 C22.879,1.435 22.873,1.452 22.868,1.469 C22.856,1.475 22.845,1.481 22.833,1.487 C22.833,1.498 22.833,1.510 22.833,1.521 C22.816,1.533 22.799,1.544 22.782,1.556 C22.782,1.567 22.782,1.579 22.782,1.590 C22.765,1.602 22.748,1.613 22.731,1.625 C22.731,1.636 22.731,1.648 22.731,1.659 C22.713,1.671 22.696,1.682 22.679,1.694 C22.679,1.705 22.679,1.717 22.679,1.728 C22.662,1.740 22.645,1.751 22.628,1.763 C22.628,1.774 22.628,1.786 22.628,1.797 C22.605,1.815 22.582,1.832 22.559,1.849 C22.559,1.861 22.559,1.872 22.559,1.884 C22.525,1.913 22.490,1.941 22.456,1.970 C22.450,1.987 22.445,2.005 22.439,2.022 C22.382,2.074 22.325,2.125 22.267,2.177 C22.187,2.264 22.107,2.350 22.027,2.436 C22.016,2.436 22.004,2.436 21.993,2.436 C21.964,2.471 21.936,2.505 21.907,2.540 C21.896,2.540 21.884,2.540 21.873,2.540 C21.850,2.569 21.827,2.597 21.804,2.626 C21.787,2.632 21.770,2.638 21.753,2.643 C21.747,2.655 21.741,2.666 21.736,2.678 C21.724,2.678 21.713,2.678 21.701,2.678 C21.690,2.695 21.678,2.712 21.667,2.730 C21.655,2.730 21.644,2.730 21.633,2.730 C21.621,2.747 21.610,2.764 21.598,2.781 C21.587,2.781 21.575,2.781 21.564,2.781 C21.558,2.793 21.553,2.804 21.547,2.816 C21.535,2.816 21.524,2.816 21.513,2.816 C21.507,2.827 21.501,2.839 21.495,2.850 C21.484,2.850 21.472,2.850 21.461,2.850 C21.455,2.862 21.450,2.873 21.444,2.885 C21.432,2.885 21.421,2.885 21.410,2.885 C21.404,2.896 21.398,2.908 21.392,2.920 C21.343,2.953 21.288,2.956 21.255,3.006 C21.249,3.006 21.244,3.006 21.238,3.006 C21.238,3.012 21.238,3.017 21.238,3.023 C21.249,3.023 21.261,3.023 21.272,3.023 C21.325,2.980 21.469,3.012 21.547,2.989 C21.547,2.983 21.547,2.977 21.547,2.971 C21.621,2.966 21.696,2.960 21.770,2.954 C21.770,2.948 21.770,2.943 21.770,2.937 C21.833,2.931 21.896,2.925 21.959,2.920 C21.959,2.914 21.959,2.908 21.959,2.902 C21.987,2.902 22.016,2.902 22.044,2.902 C22.044,2.896 22.044,2.891 22.044,2.885 C22.067,2.885 22.090,2.885 22.113,2.885 C22.113,2.879 22.113,2.873 22.113,2.868 C22.136,2.868 22.159,2.868 22.182,2.868 C22.182,2.862 22.182,2.856 22.182,2.850 C22.210,2.850 22.239,2.850 22.267,2.850 C22.267,2.845 22.267,2.839 22.267,2.833 C22.313,2.827 22.359,2.822 22.405,2.816 C22.405,2.810 22.405,2.804 22.405,2.799 C22.450,2.793 22.496,2.787 22.542,2.781 C22.542,2.776 22.542,2.770 22.542,2.764 C22.559,2.764 22.576,2.764 22.593,2.764 C22.593,2.758 22.593,2.753 22.593,2.747 C22.633,2.741 22.673,2.735 22.713,2.730 C22.713,2.724 22.713,2.718 22.713,2.712 C22.736,2.712 22.759,2.712 22.782,2.712 C23.192,2.563 23.616,2.423 24.000,2.246 C24.000,2.258 24.000,2.269 24.000,2.281 C23.948,2.313 23.949,2.352 23.914,2.402 C23.897,2.413 23.880,2.425 23.863,2.436 C23.863,2.448 23.863,2.459 23.863,2.471 C23.846,2.482 23.828,2.494 23.811,2.505 C23.811,2.517 23.811,2.528 23.811,2.540 C23.800,2.545 23.788,2.551 23.777,2.557 C23.771,2.574 23.766,2.592 23.760,2.609 C23.737,2.626 23.714,2.643 23.691,2.661 C23.691,2.672 23.691,2.684 23.691,2.695 C23.668,2.712 23.645,2.730 23.623,2.747 C23.623,2.758 23.623,2.770 23.623,2.781 C23.600,2.799 23.577,2.816 23.554,2.833 C23.554,2.845 23.554,2.856 23.554,2.868 C23.531,2.885 23.508,2.902 23.485,2.920 C23.485,2.931 23.485,2.943 23.485,2.954 C23.451,2.983 23.417,3.012 23.382,3.040 C23.382,3.052 23.382,3.063 23.382,3.075 C23.348,3.104 23.314,3.132 23.279,3.161 C23.279,3.173 23.279,3.184 23.279,3.196 C23.234,3.236 23.188,3.276 23.142,3.317 C23.142,3.328 23.142,3.340 23.142,3.351 C23.068,3.420 22.994,3.489 22.919,3.558 C22.919,3.570 22.919,3.581 22.919,3.593 C22.868,3.639 22.816,3.685 22.765,3.731 C22.742,3.760 22.719,3.788 22.696,3.817 C22.685,3.817 22.673,3.817 22.662,3.817 C22.588,3.898 22.513,3.978 22.439,4.059 C22.427,4.059 22.416,4.059 22.405,4.059 C22.370,4.099 22.336,4.139 22.302,4.180 C22.290,4.180 22.279,4.180 22.267,4.180 C22.244,4.208 22.222,4.237 22.199,4.266 C22.187,4.266 22.176,4.266 22.164,4.266 C22.142,4.295 22.119,4.324 22.096,4.352 C22.084,4.352 22.073,4.352 22.061,4.352 C22.044,4.375 22.027,4.398 22.010,4.421 C21.999,4.421 21.987,4.421 21.976,4.421 C21.970,4.433 21.964,4.444 21.959,4.456 C21.953,4.456 21.947,4.456 21.941,4.456 C21.936,4.467 21.930,4.479 21.924,4.490 C21.913,4.490 21.901,4.490 21.890,4.490 C21.878,4.508 21.867,4.525 21.856,4.542 C21.844,4.542 21.833,4.542 21.821,4.542 C21.810,4.559 21.798,4.577 21.787,4.594 C21.770,4.600 21.753,4.605 21.736,4.611 C21.730,4.623 21.724,4.634 21.718,4.646 C21.707,4.646 21.695,4.646 21.684,4.646 C21.678,4.657 21.673,4.669 21.667,4.680 C21.655,4.680 21.644,4.680 21.633,4.680 C21.627,4.692 21.621,4.703 21.615,4.715 C21.604,4.715 21.593,4.715 21.581,4.715 C21.581,4.721 21.581,4.726 21.581,4.732 C21.556,4.752 21.551,4.756 21.513,4.767 C21.513,5.008 21.513,5.250 21.513,5.492 C21.513,5.620 21.524,5.789 21.495,5.889 C21.495,5.992 21.495,6.096 21.495,6.199 C21.490,6.199 21.484,6.199 21.478,6.199 C21.478,6.274 21.478,6.349 21.478,6.424 C21.472,6.424 21.467,6.424 21.461,6.424 C21.461,6.487 21.461,6.550 21.461,6.614 C21.455,6.614 21.450,6.614 21.444,6.614 C21.444,6.665 21.444,6.717 21.444,6.769 C21.438,6.769 21.432,6.769 21.427,6.769 C21.427,6.821 21.427,6.873 21.427,6.924 C21.385,7.069 21.383,7.265 21.341,7.408 C21.341,7.442 21.341,7.477 21.341,7.511 C21.275,7.727 21.254,7.992 21.187,8.202 C21.187,8.231 21.187,8.259 21.187,8.288 C21.181,8.288 21.175,8.288 21.169,8.288 C21.164,8.334 21.158,8.380 21.152,8.426 C21.147,8.426 21.141,8.426 21.135,8.426 C21.129,8.472 21.124,8.518 21.118,8.564 C21.112,8.564 21.107,8.564 21.101,8.564 C21.101,8.587 21.101,8.610 21.101,8.633 C21.095,8.633 21.089,8.633 21.084,8.633 C21.084,8.656 21.084,8.679 21.084,8.702 C21.078,8.702 21.072,8.702 21.066,8.702 C21.066,8.725 21.066,8.748 21.066,8.771 C21.061,8.771 21.055,8.771 21.049,8.771 C21.049,8.789 21.049,8.806 21.049,8.823 C21.044,8.823 21.038,8.823 21.032,8.823 C21.026,8.869 21.021,8.915 21.015,8.961 C20.886,9.320 20.784,9.711 20.638,10.049 C20.632,10.083 20.626,10.118 20.620,10.152 C20.615,10.152 20.609,10.152 20.603,10.152 C20.603,10.164 20.603,10.175 20.603,10.187 C20.598,10.187 20.592,10.187 20.586,10.187 C20.586,10.204 20.586,10.222 20.586,10.239 C20.580,10.239 20.575,10.239 20.569,10.239 C20.569,10.250 20.569,10.262 20.569,10.273 C20.563,10.273 20.558,10.273 20.552,10.273 C20.552,10.291 20.552,10.308 20.552,10.325 C20.546,10.325 20.540,10.325 20.535,10.325 C20.529,10.354 20.523,10.383 20.518,10.411 C20.512,10.411 20.506,10.411 20.500,10.411 C20.500,10.423 20.500,10.434 20.500,10.446 C20.495,10.446 20.489,10.446 20.483,10.446 C20.483,10.463 20.483,10.480 20.483,10.498 C20.477,10.498 20.472,10.498 20.466,10.498 C20.460,10.521 20.455,10.544 20.449,10.567 C20.443,10.567 20.437,10.567 20.432,10.567 C20.432,10.584 20.432,10.601 20.432,10.619 C20.426,10.619 20.420,10.619 20.415,10.619 C20.409,10.642 20.403,10.665 20.397,10.688 C20.392,10.688 20.386,10.688 20.380,10.688 C20.380,10.705 20.380,10.722 20.380,10.739 C20.375,10.739 20.369,10.739 20.363,10.739 C20.363,10.751 20.363,10.762 20.363,10.774 C20.357,10.774 20.352,10.774 20.346,10.774 C20.340,10.797 20.335,10.820 20.329,10.843 C20.323,10.843 20.317,10.843 20.312,10.843 C20.312,10.860 20.312,10.877 20.312,10.895 C20.306,10.895 20.300,10.895 20.294,10.895 C20.294,10.906 20.294,10.918 20.294,10.929 C20.289,10.929 20.283,10.929 20.277,10.929 C20.272,10.952 20.266,10.975 20.260,10.998 C20.254,10.998 20.249,10.998 20.243,10.998 C20.243,11.016 20.243,11.033 20.243,11.050 C20.237,11.050 20.232,11.050 20.226,11.050 C20.226,11.062 20.226,11.073 20.226,11.085 C20.220,11.085 20.214,11.085 20.209,11.085 C20.203,11.108 20.197,11.131 20.192,11.154 C20.186,11.154 20.180,11.154 20.174,11.154 C20.169,11.177 20.163,11.200 20.157,11.223 C20.152,11.223 20.146,11.223 20.140,11.223 C20.134,11.246 20.129,11.269 20.123,11.292 C20.117,11.292 20.112,11.292 20.106,11.292 C20.106,11.303 20.106,11.315 20.106,11.326 C20.100,11.326 20.094,11.326 20.089,11.326 C20.089,11.338 20.089,11.349 20.089,11.361 C20.083,11.361 20.077,11.361 20.071,11.361 C20.071,11.372 20.071,11.384 20.071,11.395 C20.066,11.395 20.060,11.395 20.054,11.395 C20.054,11.407 20.054,11.418 20.054,11.430 C20.049,11.430 20.043,11.430 20.037,11.430 C20.031,11.453 20.026,11.476 20.020,11.499 C20.014,11.499 20.009,11.499 20.003,11.499 C20.003,11.510 20.003,11.522 20.003,11.533 C19.997,11.533 19.991,11.533 19.986,11.533 C19.986,11.545 19.986,11.556 19.986,11.568 C19.980,11.568 19.974,11.568 19.969,11.568 C19.969,11.579 19.969,11.591 19.969,11.603 C19.963,11.603 19.957,11.603 19.951,11.603 C19.951,11.614 19.951,11.626 19.951,11.637 C19.946,11.637 19.940,11.637 19.934,11.637 C19.934,11.649 19.934,11.660 19.934,11.672 C19.929,11.672 19.923,11.672 19.917,11.672 C19.911,11.695 19.906,11.718 19.900,11.741 C19.888,11.746 19.877,11.752 19.866,11.758 C19.866,11.769 19.866,11.781 19.866,11.792 C19.860,11.792 19.854,11.792 19.848,11.792 C19.848,11.804 19.848,11.815 19.848,11.827 C19.843,11.827 19.837,11.827 19.831,11.827 C19.831,11.838 19.831,11.850 19.831,11.861 C19.826,11.861 19.820,11.861 19.814,11.861 C19.814,11.873 19.814,11.884 19.814,11.896 C19.808,11.896 19.803,11.896 19.797,11.896 C19.797,11.907 19.797,11.919 19.797,11.930 C19.786,11.936 19.774,11.942 19.763,11.948 C19.763,11.959 19.763,11.971 19.763,11.982 C19.757,11.982 19.751,11.982 19.746,11.982 C19.746,11.994 19.746,12.005 19.746,12.017 C19.740,12.017 19.734,12.017 19.728,12.017 C19.728,12.028 19.728,12.040 19.728,12.051 C19.717,12.057 19.706,12.063 19.694,12.069 C19.694,12.080 19.694,12.092 19.694,12.103 C19.688,12.103 19.683,12.103 19.677,12.103 C19.677,12.115 19.677,12.126 19.677,12.138 C19.671,12.138 19.665,12.138 19.660,12.138 C19.660,12.149 19.660,12.161 19.660,12.172 C19.654,12.172 19.648,12.172 19.643,12.172 C19.643,12.184 19.643,12.195 19.643,12.207 C19.631,12.212 19.620,12.218 19.608,12.224 C19.603,12.247 19.597,12.270 19.591,12.293 C19.580,12.299 19.568,12.305 19.557,12.310 C19.551,12.333 19.545,12.356 19.540,12.379 C19.528,12.385 19.517,12.391 19.505,12.397 C19.500,12.420 19.494,12.443 19.488,12.466 C19.482,12.466 19.477,12.466 19.471,12.466 C19.465,12.483 19.460,12.500 19.454,12.517 C19.442,12.523 19.431,12.529 19.420,12.535 C19.414,12.558 19.408,12.581 19.402,12.604 C19.397,12.604 19.391,12.604 19.385,12.604 C19.380,12.621 19.374,12.638 19.368,12.656 C19.357,12.661 19.345,12.667 19.334,12.673 C19.328,12.696 19.322,12.719 19.317,12.742 C19.305,12.748 19.294,12.753 19.282,12.759 C19.282,12.771 19.282,12.782 19.282,12.794 C19.277,12.794 19.271,12.794 19.265,12.794 C19.259,12.811 19.254,12.828 19.248,12.845 C19.237,12.851 19.225,12.857 19.214,12.863 C19.214,12.874 19.214,12.886 19.214,12.897 C19.202,12.903 19.191,12.909 19.179,12.914 C19.179,12.926 19.179,12.937 19.179,12.949 C19.174,12.949 19.168,12.949 19.162,12.949 C19.157,12.966 19.151,12.984 19.145,13.001 C19.134,13.007 19.122,13.012 19.111,13.018 C19.111,13.030 19.111,13.041 19.111,13.053 C19.094,13.064 19.076,13.076 19.059,13.087 C19.059,13.099 19.059,13.110 19.059,13.122 C19.048,13.127 19.036,13.133 19.025,13.139 C19.025,13.150 19.025,13.162 19.025,13.173 C19.019,13.173 19.014,13.173 19.008,13.173 C19.002,13.191 18.996,13.208 18.991,13.225 C18.979,13.231 18.968,13.237 18.956,13.242 C18.956,13.254 18.956,13.265 18.956,13.277 C18.945,13.283 18.934,13.288 18.922,13.294 C18.916,13.311 18.911,13.329 18.905,13.346 C18.888,13.358 18.871,13.369 18.853,13.381 C18.853,13.392 18.853,13.404 18.853,13.415 C18.842,13.421 18.831,13.427 18.819,13.432 C18.819,13.444 18.819,13.455 18.819,13.467 C18.802,13.478 18.785,13.490 18.768,13.501 C18.768,13.513 18.768,13.524 18.768,13.536 C18.751,13.547 18.733,13.559 18.716,13.570 C18.716,13.582 18.716,13.593 18.716,13.605 C18.693,13.622 18.670,13.639 18.648,13.657 C18.648,13.668 18.648,13.680 18.648,13.691 C18.630,13.703 18.613,13.714 18.596,13.726 C18.596,13.737 18.596,13.749 18.596,13.760 C18.579,13.772 18.562,13.783 18.545,13.795 C18.545,13.806 18.545,13.818 18.545,13.829 C18.522,13.847 18.499,13.864 18.476,13.881 C18.476,13.893 18.476,13.904 18.476,13.916 C18.447,13.939 18.419,13.962 18.390,13.985 C18.390,13.996 18.390,14.008 18.390,14.019 C18.367,14.037 18.345,14.054 18.322,14.071 C18.322,14.083 18.322,14.094 18.322,14.106 C18.287,14.134 18.253,14.163 18.219,14.192 C18.219,14.203 18.219,14.215 18.219,14.226 C18.190,14.249 18.162,14.272 18.133,14.295 C18.133,14.307 18.133,14.318 18.133,14.330 C18.087,14.370 18.041,14.411 17.996,14.451 C17.996,14.462 17.996,14.474 17.996,14.485 C17.933,14.543 17.870,14.600 17.807,14.658 C17.807,14.669 17.807,14.681 17.807,14.692 C17.733,14.762 17.658,14.831 17.584,14.900 C17.442,15.042 17.320,15.194 17.155,15.314 C17.092,15.383 17.029,15.452 16.966,15.521 C16.955,15.521 16.944,15.521 16.932,15.521 C16.898,15.561 16.863,15.602 16.829,15.642 C16.818,15.642 16.806,15.642 16.795,15.642 C16.766,15.676 16.738,15.711 16.709,15.745 C16.698,15.745 16.686,15.745 16.675,15.745 C16.652,15.774 16.629,15.803 16.606,15.832 C16.595,15.832 16.583,15.832 16.572,15.832 C16.543,15.866 16.515,15.901 16.486,15.935 C16.475,15.935 16.463,15.935 16.452,15.935 C16.446,15.947 16.440,15.958 16.435,15.970 C16.417,15.976 16.400,15.981 16.383,15.987 C16.366,16.010 16.349,16.033 16.332,16.056 C16.320,16.056 16.309,16.056 16.297,16.056 C16.280,16.079 16.263,16.102 16.246,16.125 C16.234,16.125 16.223,16.125 16.212,16.125 C16.200,16.143 16.189,16.160 16.177,16.177 C16.166,16.177 16.154,16.177 16.143,16.177 C16.132,16.194 16.120,16.212 16.109,16.229 C16.097,16.229 16.086,16.229 16.074,16.229 C16.063,16.246 16.051,16.263 16.040,16.281 C16.029,16.281 16.017,16.281 16.006,16.281 C15.989,16.304 15.971,16.327 15.954,16.350 C15.943,16.350 15.931,16.350 15.920,16.350 C15.914,16.361 15.909,16.373 15.903,16.384 C15.886,16.390 15.868,16.396 15.851,16.401 C15.851,16.407 15.851,16.413 15.851,16.419 C15.840,16.419 15.828,16.419 15.817,16.419 C15.806,16.436 15.794,16.453 15.783,16.471 C15.771,16.471 15.760,16.471 15.748,16.471 C15.743,16.482 15.737,16.494 15.731,16.505 C15.720,16.505 15.708,16.505 15.697,16.505 C15.685,16.522 15.674,16.540 15.663,16.557 C15.651,16.557 15.640,16.557 15.628,16.557 C15.623,16.568 15.617,16.580 15.611,16.591 C15.594,16.597 15.577,16.603 15.560,16.609 C15.560,16.614 15.560,16.620 15.560,16.626 C15.548,16.626 15.537,16.626 15.525,16.626 C15.520,16.637 15.514,16.649 15.508,16.660 C15.497,16.660 15.485,16.660 15.474,16.660 C15.468,16.672 15.462,16.683 15.457,16.695 C15.445,16.695 15.434,16.695 15.422,16.695 C15.417,16.706 15.411,16.718 15.405,16.729 C15.394,16.729 15.382,16.729 15.371,16.729 C15.365,16.741 15.360,16.752 15.354,16.764 C15.342,16.764 15.331,16.764 15.320,16.764 C15.314,16.775 15.308,16.787 15.302,16.799 C15.279,16.804 15.257,16.810 15.234,16.816 C15.234,16.822 15.234,16.827 15.234,16.833 C15.217,16.839 15.199,16.845 15.182,16.850 C15.177,16.862 15.171,16.873 15.165,16.885 C15.154,16.885 15.142,16.885 15.131,16.885 C15.125,16.896 15.119,16.908 15.114,16.919 C15.091,16.925 15.068,16.931 15.045,16.937 C15.039,16.948 15.034,16.960 15.028,16.971 C15.005,16.977 14.982,16.983 14.959,16.988 C14.954,17.000 14.948,17.011 14.942,17.023 C14.919,17.029 14.896,17.034 14.873,17.040 C14.868,17.052 14.862,17.063 14.856,17.075 C14.833,17.080 14.811,17.086 14.788,17.092 C14.782,17.103 14.776,17.115 14.771,17.126 C14.736,17.138 14.702,17.150 14.668,17.161 C14.662,17.173 14.656,17.184 14.650,17.196 C14.616,17.207 14.582,17.219 14.548,17.230 C14.542,17.242 14.536,17.253 14.530,17.265 C14.519,17.265 14.508,17.265 14.496,17.265 C14.496,17.270 14.496,17.276 14.496,17.282 C14.485,17.282 14.473,17.282 14.462,17.282 C14.462,17.288 14.462,17.293 14.462,17.299 C14.450,17.299 14.439,17.299 14.427,17.299 C14.427,17.305 14.427,17.311 14.427,17.316 C14.416,17.316 14.405,17.316 14.393,17.316 C14.393,17.322 14.393,17.328 14.393,17.334 C14.382,17.334 14.370,17.334 14.359,17.334 C14.359,17.339 14.359,17.345 14.359,17.351 C14.336,17.357 14.313,17.362 14.290,17.368 C14.284,17.380 14.279,17.391 14.273,17.403 C14.256,17.403 14.239,17.403 14.222,17.403 C14.216,17.414 14.210,17.426 14.204,17.437 C14.193,17.437 14.182,17.437 14.170,17.437 C14.170,17.443 14.170,17.449 14.170,17.454 C14.159,17.454 14.147,17.454 14.136,17.454 C14.136,17.460 14.136,17.466 14.136,17.472 C14.124,17.472 14.113,17.472 14.102,17.472 C14.102,17.477 14.102,17.483 14.102,17.489 C14.090,17.489 14.079,17.489 14.067,17.489 C14.067,17.495 14.067,17.501 14.067,17.506 C14.056,17.506 14.044,17.506 14.033,17.506 C14.033,17.512 14.033,17.518 14.033,17.524 C14.021,17.524 14.010,17.524 13.999,17.524 C13.999,17.529 13.999,17.535 13.999,17.541 C13.987,17.541 13.976,17.541 13.964,17.541 C13.964,17.547 13.964,17.552 13.964,17.558 C13.953,17.558 13.941,17.558 13.930,17.558 C13.930,17.564 13.930,17.570 13.930,17.575 C13.896,17.587 13.861,17.598 13.827,17.610 C13.827,17.616 13.827,17.621 13.827,17.627 C13.810,17.627 13.793,17.627 13.776,17.627 C13.776,17.633 13.776,17.639 13.776,17.644 C13.764,17.644 13.753,17.644 13.741,17.644 C13.741,17.650 13.741,17.656 13.741,17.662 C13.730,17.662 13.718,17.662 13.707,17.662 C13.707,17.667 13.707,17.673 13.707,17.679 C13.673,17.690 13.638,17.702 13.604,17.713 C13.604,17.719 13.604,17.725 13.604,17.731 C13.587,17.731 13.570,17.731 13.553,17.731 C13.553,17.736 13.553,17.742 13.553,17.748 C13.530,17.754 13.507,17.759 13.484,17.765 C13.484,17.771 13.484,17.777 13.484,17.782 C13.467,17.782 13.450,17.782 13.432,17.782 C13.432,17.788 13.432,17.794 13.432,17.800 C13.421,17.800 13.410,17.800 13.398,17.800 C13.398,17.805 13.398,17.811 13.398,17.817 C13.375,17.823 13.352,17.828 13.330,17.834 C13.330,17.840 13.330,17.846 13.330,17.852 C13.312,17.852 13.295,17.852 13.278,17.852 C13.278,17.857 13.278,17.863 13.278,17.869 C13.255,17.875 13.232,17.880 13.209,17.886 C13.209,17.892 13.209,17.898 13.209,17.903 C13.192,17.903 13.175,17.903 13.158,17.903 C13.158,17.909 13.158,17.915 13.158,17.921 C13.147,17.921 13.135,17.921 13.124,17.921 C13.124,17.926 13.124,17.932 13.124,17.938 C13.107,17.938 13.089,17.938 13.072,17.938 C13.072,17.944 13.072,17.949 13.072,17.955 C13.061,17.955 13.049,17.955 13.038,17.955 C13.038,17.961 13.038,17.967 13.038,17.972 C13.009,17.978 12.981,17.984 12.952,17.990 C12.952,17.995 12.952,18.001 12.952,18.007 C12.935,18.007 12.918,18.007 12.901,18.007 C12.901,18.013 12.901,18.018 12.901,18.024 C12.889,18.024 12.878,18.024 12.866,18.024 C12.866,18.030 12.866,18.036 12.866,18.041 C12.815,18.053 12.763,18.064 12.712,18.076 C12.712,18.082 12.712,18.087 12.712,18.093 C12.701,18.093 12.689,18.093 12.678,18.093 C12.678,18.099 12.678,18.105 12.678,18.110 C12.643,18.116 12.609,18.122 12.575,18.128 C12.575,18.133 12.575,18.139 12.575,18.145 C12.563,18.145 12.552,18.145 12.540,18.145 C12.540,18.151 12.540,18.156 12.540,18.162 C12.523,18.162 12.506,18.162 12.489,18.162 C12.489,18.168 12.489,18.174 12.489,18.179 C12.472,18.179 12.455,18.179 12.437,18.179 C12.437,18.185 12.437,18.191 12.437,18.197 C12.420,18.197 12.403,18.197 12.386,18.197 C12.386,18.203 12.386,18.208 12.386,18.214 C12.369,18.214 12.352,18.214 12.335,18.214 C12.148,18.289 11.926,18.352 11.734,18.421 C11.688,18.427 11.643,18.433 11.597,18.438 C11.344,18.530 11.037,18.578 10.773,18.663 C10.745,18.663 10.716,18.663 10.688,18.663 C10.688,18.669 10.688,18.674 10.688,18.680 C10.659,18.680 10.630,18.680 10.602,18.680 C10.602,18.686 10.602,18.692 10.602,18.697 C10.573,18.697 10.545,18.697 10.516,18.697 C10.516,18.703 10.516,18.709 10.516,18.715 C10.487,18.715 10.459,18.715 10.430,18.715 C10.430,18.720 10.430,18.726 10.430,18.732 C10.367,18.738 10.304,18.743 10.242,18.749 C9.994,18.826 9.673,18.814 9.418,18.887 C9.367,18.887 9.315,18.887 9.264,18.887 C9.264,18.893 9.264,18.899 9.264,18.905 C9.212,18.905 9.161,18.905 9.109,18.905 C9.109,18.910 9.109,18.916 9.109,18.922 C9.046,18.922 8.984,18.922 8.921,18.922 C8.921,18.928 8.921,18.933 8.921,18.939 C8.846,18.939 8.772,18.939 8.698,18.939 C8.698,18.945 8.698,18.951 8.698,18.956 C8.475,18.962 8.252,18.968 8.029,18.974 C7.876,19.017 7.629,18.991 7.445,18.991 C7.252,18.991 6.990,19.020 6.828,18.974 C6.771,18.974 6.713,18.974 6.656,18.974 C6.541,18.974 6.402,18.971 6.313,18.956 C6.204,18.956 6.096,18.956 5.987,18.956 C5.987,18.951 5.987,18.945 5.987,18.939 C5.901,18.939 5.816,18.939 5.730,18.939 C5.730,18.933 5.730,18.928 5.730,18.922 C5.713,18.922 5.695,18.922 5.678,18.922 C5.621,18.922 5.564,18.922 5.507,18.922 C5.507,18.916 5.507,18.910 5.507,18.905 C5.444,18.905 5.381,18.905 5.318,18.905 C5.318,18.899 5.318,18.893 5.318,18.887 C5.204,18.882 5.089,18.876 4.975,18.870 C4.586,18.812 4.197,18.755 3.808,18.697 C3.609,18.636 3.367,18.605 3.174,18.542 C3.145,18.542 3.117,18.542 3.088,18.542 C3.088,18.536 3.088,18.530 3.088,18.525 C2.979,18.502 2.871,18.479 2.762,18.456 C2.762,18.450 2.762,18.444 2.762,18.438 C2.682,18.421 2.602,18.404 2.522,18.387 C2.522,18.381 2.522,18.375 2.522,18.369 C2.482,18.364 2.442,18.358 2.402,18.352 C2.402,18.346 2.402,18.341 2.402,18.335 C2.385,18.335 2.367,18.335 2.350,18.335 C2.350,18.329 2.350,18.323 2.350,18.318 C2.333,18.318 2.316,18.318 2.299,18.318 C2.299,18.312 2.299,18.306 2.299,18.300 C2.282,18.300 2.264,18.300 2.247,18.300 C2.247,18.295 2.247,18.289 2.247,18.283 C2.230,18.283 2.213,18.283 2.196,18.283 C2.196,18.277 2.196,18.272 2.196,18.266 C2.179,18.266 2.162,18.266 2.144,18.266 C2.144,18.260 2.144,18.254 2.144,18.249 C2.127,18.249 2.110,18.249 2.093,18.249 C2.093,18.243 2.093,18.237 2.093,18.231 C2.076,18.231 2.059,18.231 2.041,18.231 C2.041,18.226 2.041,18.220 2.041,18.214 C2.024,18.214 2.007,18.214 1.990,18.214 C1.990,18.208 1.990,18.203 1.990,18.197 C1.973,18.197 1.956,18.197 1.939,18.197 C1.939,18.191 1.939,18.185 1.939,18.179 C1.921,18.179 1.904,18.179 1.887,18.179 C1.887,18.174 1.887,18.168 1.887,18.162 C1.870,18.162 1.853,18.162 1.836,18.162 C1.836,18.156 1.836,18.151 1.836,18.145 C1.824,18.145 1.813,18.145 1.801,18.145 C1.801,18.139 1.801,18.133 1.801,18.128 C1.767,18.122 1.733,18.116 1.698,18.110 C1.698,18.105 1.698,18.099 1.698,18.093 C1.687,18.093 1.675,18.093 1.664,18.093 C1.664,18.087 1.664,18.082 1.664,18.076 C1.647,18.076 1.630,18.076 1.613,18.076 C1.613,18.070 1.613,18.064 1.613,18.059 C1.601,18.059 1.590,18.059 1.578,18.059 C1.578,18.053 1.578,18.047 1.578,18.041 C1.561,18.041 1.544,18.041 1.527,18.041 C1.527,18.036 1.527,18.030 1.527,18.024 C1.510,18.024 1.492,18.024 1.475,18.024 C1.475,18.018 1.475,18.013 1.475,18.007 C1.452,18.001 1.430,17.995 1.407,17.990 C1.407,17.984 1.407,17.978 1.407,17.972 C1.390,17.972 1.372,17.972 1.355,17.972 C1.355,17.967 1.355,17.961 1.355,17.955 C1.344,17.955 1.332,17.955 1.321,17.955 C1.321,17.949 1.321,17.944 1.321,17.938 C1.304,17.938 1.287,17.938 1.269,17.938 C1.269,17.932 1.269,17.926 1.269,17.921 C1.247,17.915 1.224,17.909 1.201,17.903 C1.201,17.898 1.201,17.892 1.201,17.886 C1.189,17.886 1.178,17.886 1.167,17.886 C1.167,17.880 1.167,17.875 1.167,17.869 C1.149,17.869 1.132,17.869 1.115,17.869 C1.115,17.863 1.115,17.857 1.115,17.852 C1.104,17.852 1.092,17.852 1.081,17.852 C1.081,17.846 1.081,17.840 1.081,17.834 C1.069,17.834 1.058,17.834 1.046,17.834 C1.046,17.828 1.046,17.823 1.046,17.817 C1.012,17.805 0.978,17.794 0.944,17.782 C0.944,17.777 0.944,17.771 0.944,17.765 C0.926,17.765 0.909,17.765 0.892,17.765 C0.892,17.759 0.892,17.754 0.892,17.748 C0.858,17.736 0.823,17.725 0.789,17.713 C0.789,17.708 0.789,17.702 0.789,17.696 C0.778,17.696 0.766,17.696 0.755,17.696 C0.755,17.690 0.755,17.685 0.755,17.679 C0.743,17.679 0.732,17.679 0.721,17.679 C0.721,17.673 0.721,17.667 0.721,17.662 C0.709,17.662 0.698,17.662 0.686,17.662 C0.686,17.656 0.686,17.650 0.686,17.644 C0.675,17.644 0.663,17.644 0.652,17.644 C0.652,17.639 0.652,17.633 0.652,17.627 C0.640,17.627 0.629,17.627 0.618,17.627 C0.618,17.621 0.618,17.616 0.618,17.610 C0.606,17.610 0.595,17.610 0.583,17.610 C0.578,17.598 0.572,17.587 0.566,17.575 C0.555,17.575 0.543,17.575 0.532,17.575 C0.532,17.570 0.532,17.564 0.532,17.558 C0.520,17.558 0.509,17.558 0.497,17.558 C0.497,17.552 0.497,17.547 0.497,17.541 C0.486,17.541 0.475,17.541 0.463,17.541 C0.463,17.535 0.463,17.529 0.463,17.524 C0.452,17.524 0.440,17.524 0.429,17.524 C0.429,17.518 0.429,17.512 0.429,17.506 C0.417,17.506 0.406,17.506 0.395,17.506 C0.395,17.501 0.395,17.495 0.395,17.489 C0.383,17.489 0.372,17.489 0.360,17.489 C0.355,17.477 0.349,17.466 0.343,17.454 C0.309,17.443 0.274,17.431 0.240,17.420 C0.234,17.408 0.229,17.397 0.223,17.385 C0.200,17.380 0.177,17.374 0.154,17.368 C0.149,17.357 0.143,17.345 0.137,17.334 C0.126,17.334 0.114,17.334 0.103,17.334 C0.103,17.328 0.103,17.322 0.103,17.316 C0.091,17.316 0.080,17.316 0.069,17.316 C0.063,17.305 0.057,17.293 0.051,17.282 C0.040,17.282 0.029,17.282 0.017,17.282 C0.017,17.276 0.017,17.270 0.017,17.265 C0.297,17.265 0.578,17.265 0.858,17.265 C1.000,17.265 1.190,17.280 1.304,17.247 C1.367,17.247 1.430,17.247 1.492,17.247 C1.624,17.242 1.756,17.236 1.887,17.230 C1.887,17.224 1.887,17.219 1.887,17.213 C2.093,17.196 2.299,17.178 2.505,17.161 C2.819,17.098 3.134,17.034 3.448,16.971 C3.448,16.965 3.448,16.960 3.448,16.954 C3.511,16.942 3.574,16.931 3.637,16.919 C3.637,16.914 3.637,16.908 3.637,16.902 C3.677,16.896 3.717,16.891 3.757,16.885 C3.757,16.879 3.757,16.873 3.757,16.868 C3.774,16.868 3.791,16.868 3.808,16.868 C3.808,16.862 3.808,16.856 3.808,16.850 C3.826,16.850 3.843,16.850 3.860,16.850 C3.860,16.845 3.860,16.839 3.860,16.833 C3.877,16.833 3.894,16.833 3.911,16.833 C3.911,16.827 3.911,16.822 3.911,16.816 C3.929,16.816 3.946,16.816 3.963,16.816 C3.963,16.810 3.963,16.804 3.963,16.799 C3.986,16.799 4.009,16.799 4.031,16.799 C4.031,16.793 4.031,16.787 4.031,16.781 C4.043,16.781 4.054,16.781 4.066,16.781 C4.066,16.775 4.066,16.770 4.066,16.764 C4.083,16.764 4.100,16.764 4.117,16.764 C4.117,16.758 4.117,16.752 4.117,16.747 C4.134,16.747 4.152,16.747 4.169,16.747 C4.169,16.741 4.169,16.735 4.169,16.729 C4.186,16.729 4.203,16.729 4.220,16.729 C4.220,16.724 4.220,16.718 4.220,16.712 C4.237,16.712 4.254,16.712 4.272,16.712 C4.272,16.706 4.272,16.701 4.272,16.695 C4.283,16.695 4.294,16.695 4.306,16.695 C4.306,16.689 4.306,16.683 4.306,16.678 C4.323,16.678 4.340,16.678 4.357,16.678 C4.357,16.672 4.357,16.666 4.357,16.660 C4.369,16.660 4.380,16.660 4.392,16.660 C4.392,16.655 4.392,16.649 4.392,16.643 C4.420,16.637 4.449,16.632 4.477,16.626 C4.477,16.620 4.477,16.614 4.477,16.609 C4.495,16.609 4.512,16.609 4.529,16.609 C4.529,16.603 4.529,16.597 4.529,16.591 C4.540,16.591 4.552,16.591 4.563,16.591 C4.563,16.586 4.563,16.580 4.563,16.574 C4.580,16.574 4.598,16.574 4.615,16.574 C4.615,16.568 4.615,16.563 4.615,16.557 C4.638,16.551 4.660,16.545 4.683,16.540 C4.683,16.534 4.683,16.528 4.683,16.522 C4.695,16.522 4.706,16.522 4.718,16.522 C4.718,16.517 4.718,16.511 4.718,16.505 C4.735,16.505 4.752,16.505 4.769,16.505 C4.769,16.499 4.769,16.494 4.769,16.488 C4.781,16.488 4.792,16.488 4.803,16.488 C4.803,16.482 4.803,16.476 4.803,16.471 C4.815,16.471 4.826,16.471 4.838,16.471 C4.838,16.465 4.838,16.459 4.838,16.453 C4.872,16.442 4.906,16.430 4.941,16.419 C4.941,16.413 4.941,16.407 4.941,16.401 C4.958,16.401 4.975,16.401 4.992,16.401 C4.992,16.396 4.992,16.390 4.992,16.384 C5.026,16.373 5.061,16.361 5.095,16.350 C5.095,16.344 5.095,16.338 5.095,16.332 C5.107,16.332 5.118,16.332 5.129,16.332 C5.129,16.327 5.129,16.321 5.129,16.315 C5.164,16.304 5.198,16.292 5.232,16.281 C5.238,16.269 5.244,16.258 5.249,16.246 C5.261,16.246 5.272,16.246 5.284,16.246 C5.284,16.240 5.284,16.235 5.284,16.229 C5.295,16.229 5.307,16.229 5.318,16.229 C5.318,16.223 5.318,16.217 5.318,16.212 C5.330,16.212 5.341,16.212 5.352,16.212 C5.352,16.206 5.352,16.200 5.352,16.194 C5.364,16.194 5.375,16.194 5.387,16.194 C5.387,16.189 5.387,16.183 5.387,16.177 C5.398,16.177 5.410,16.177 5.421,16.177 C5.421,16.171 5.421,16.166 5.421,16.160 C5.432,16.160 5.444,16.160 5.455,16.160 C5.461,16.148 5.467,16.137 5.472,16.125 C5.507,16.114 5.541,16.102 5.575,16.091 C5.581,16.079 5.587,16.068 5.593,16.056 C5.627,16.045 5.661,16.033 5.695,16.022 C5.695,16.016 5.695,16.010 5.695,16.004 C5.713,15.999 5.730,15.993 5.747,15.987 C5.753,15.976 5.758,15.964 5.764,15.953 C5.798,15.941 5.833,15.930 5.867,15.918 C5.873,15.907 5.878,15.895 5.884,15.884 C5.896,15.884 5.907,15.884 5.919,15.884 C5.924,15.872 5.930,15.861 5.936,15.849 C5.947,15.849 5.959,15.849 5.970,15.849 C5.976,15.838 5.981,15.826 5.987,15.815 C6.010,15.809 6.033,15.803 6.056,15.797 C6.061,15.786 6.067,15.774 6.073,15.763 C6.084,15.763 6.096,15.763 6.107,15.763 C6.113,15.751 6.119,15.740 6.124,15.728 C6.136,15.728 6.147,15.728 6.159,15.728 C6.164,15.717 6.170,15.705 6.176,15.694 C6.187,15.694 6.199,15.694 6.210,15.694 C6.216,15.682 6.222,15.671 6.227,15.659 C6.239,15.659 6.250,15.659 6.262,15.659 C6.262,15.653 6.262,15.648 6.262,15.642 C6.279,15.636 6.296,15.630 6.313,15.625 C6.319,15.613 6.325,15.602 6.330,15.590 C6.342,15.590 6.353,15.590 6.365,15.590 C6.370,15.579 6.376,15.567 6.382,15.556 C6.393,15.556 6.405,15.556 6.416,15.556 C6.427,15.538 6.439,15.521 6.450,15.504 C6.462,15.504 6.473,15.504 6.485,15.504 C6.490,15.492 6.496,15.481 6.502,15.469 C6.513,15.469 6.525,15.469 6.536,15.469 C6.536,15.464 6.536,15.458 6.536,15.452 C6.553,15.446 6.570,15.441 6.588,15.435 C6.593,15.423 6.599,15.412 6.605,15.400 C6.616,15.400 6.628,15.400 6.639,15.400 C6.650,15.383 6.662,15.366 6.673,15.348 C6.685,15.348 6.696,15.348 6.708,15.348 C6.713,15.337 6.719,15.325 6.725,15.314 C6.736,15.314 6.748,15.314 6.759,15.314 C6.771,15.297 6.782,15.279 6.793,15.262 C6.805,15.262 6.816,15.262 6.828,15.262 C6.833,15.251 6.839,15.239 6.845,15.228 C6.856,15.228 6.868,15.228 6.879,15.228 C6.891,15.210 6.902,15.193 6.914,15.176 C6.925,15.176 6.936,15.176 6.948,15.176 C6.954,15.164 6.959,15.153 6.965,15.141 C6.976,15.141 6.988,15.141 6.999,15.141 C7.011,15.124 7.022,15.107 7.034,15.090 C7.045,15.090 7.056,15.090 7.068,15.090 C7.079,15.072 7.091,15.055 7.102,15.038 C7.114,15.038 7.125,15.038 7.137,15.038 C7.148,15.020 7.159,15.003 7.171,14.986 C7.182,14.986 7.194,14.986 7.205,14.986 C7.211,14.974 7.217,14.963 7.222,14.951 C7.245,14.940 7.268,14.928 7.291,14.917 C7.291,14.911 7.291,14.905 7.291,14.900 C7.199,14.900 7.108,14.900 7.016,14.900 C6.833,14.871 6.650,14.842 6.467,14.813 C6.250,14.750 6.033,14.687 5.816,14.623 C5.816,14.618 5.816,14.612 5.816,14.606 C5.787,14.600 5.758,14.595 5.730,14.589 C5.730,14.583 5.730,14.577 5.730,14.572 C5.718,14.572 5.707,14.572 5.695,14.572 C5.695,14.566 5.695,14.560 5.695,14.554 C5.661,14.549 5.627,14.543 5.593,14.537 C5.593,14.531 5.593,14.526 5.593,14.520 C5.570,14.514 5.547,14.508 5.524,14.503 C5.524,14.497 5.524,14.491 5.524,14.485 C5.513,14.485 5.501,14.485 5.490,14.485 C5.490,14.480 5.490,14.474 5.490,14.468 C5.472,14.468 5.455,14.468 5.438,14.468 C5.438,14.462 5.438,14.457 5.438,14.451 C5.427,14.451 5.415,14.451 5.404,14.451 C5.404,14.445 5.404,14.439 5.404,14.434 C5.370,14.422 5.335,14.411 5.301,14.399 C5.301,14.393 5.301,14.388 5.301,14.382 C5.284,14.382 5.267,14.382 5.249,14.382 C5.249,14.376 5.249,14.370 5.249,14.364 C5.215,14.353 5.181,14.341 5.147,14.330 C5.147,14.324 5.147,14.318 5.147,14.313 C5.135,14.313 5.124,14.313 5.112,14.313 C5.112,14.307 5.112,14.301 5.112,14.295 C5.101,14.295 5.089,14.295 5.078,14.295 C5.078,14.290 5.078,14.284 5.078,14.278 C5.066,14.278 5.055,14.278 5.044,14.278 C5.044,14.272 5.044,14.267 5.044,14.261 C5.032,14.261 5.021,14.261 5.009,14.261 C5.009,14.255 5.009,14.249 5.009,14.244 C4.998,14.244 4.986,14.244 4.975,14.244 C4.975,14.238 4.975,14.232 4.975,14.226 C4.964,14.226 4.952,14.226 4.941,14.226 C4.935,14.215 4.929,14.203 4.924,14.192 C4.889,14.180 4.855,14.169 4.821,14.157 C4.815,14.146 4.809,14.134 4.803,14.123 C4.769,14.111 4.735,14.100 4.701,14.088 C4.695,14.077 4.689,14.065 4.683,14.054 C4.660,14.048 4.638,14.042 4.615,14.037 C4.609,14.025 4.603,14.013 4.598,14.002 C4.575,13.996 4.552,13.990 4.529,13.985 C4.523,13.973 4.518,13.962 4.512,13.950 C4.500,13.950 4.489,13.950 4.477,13.950 C4.472,13.939 4.466,13.927 4.460,13.916 C4.449,13.916 4.437,13.916 4.426,13.916 C4.420,13.904 4.415,13.893 4.409,13.881 C4.397,13.881 4.386,13.881 4.375,13.881 C4.369,13.870 4.363,13.858 4.357,13.847 C4.335,13.841 4.312,13.835 4.289,13.829 C4.277,13.812 4.266,13.795 4.254,13.778 C4.243,13.778 4.232,13.778 4.220,13.778 C4.220,13.772 4.220,13.766 4.220,13.760 C4.203,13.755 4.186,13.749 4.169,13.743 C4.163,13.732 4.157,13.720 4.152,13.709 C4.140,13.709 4.129,13.709 4.117,13.709 C4.106,13.691 4.094,13.674 4.083,13.657 C4.071,13.657 4.060,13.657 4.049,13.657 C4.037,13.639 4.026,13.622 4.014,13.605 C4.003,13.605 3.991,13.605 3.980,13.605 C3.969,13.588 3.957,13.570 3.946,13.553 C3.934,13.553 3.923,13.553 3.911,13.553 C3.900,13.536 3.888,13.519 3.877,13.501 C3.866,13.501 3.854,13.501 3.843,13.501 C3.826,13.478 3.808,13.455 3.791,13.432 C3.780,13.432 3.768,13.432 3.757,13.432 C3.751,13.421 3.746,13.409 3.740,13.398 C3.723,13.392 3.706,13.386 3.688,13.381 C3.665,13.352 3.643,13.323 3.620,13.294 C3.603,13.288 3.585,13.283 3.568,13.277 C3.545,13.248 3.523,13.219 3.500,13.191 C3.488,13.191 3.477,13.191 3.465,13.191 C3.420,13.139 3.374,13.087 3.328,13.035 C3.317,13.035 3.305,13.035 3.294,13.035 C3.254,12.989 3.214,12.943 3.174,12.897 C3.071,12.799 2.968,12.702 2.865,12.604 C2.865,12.592 2.865,12.581 2.865,12.569 C2.813,12.523 2.762,12.477 2.711,12.431 C2.711,12.420 2.711,12.408 2.711,12.397 C2.682,12.374 2.653,12.351 2.625,12.328 C2.625,12.316 2.625,12.305 2.625,12.293 C2.596,12.270 2.568,12.247 2.539,12.224 C2.539,12.212 2.539,12.201 2.539,12.189 C2.522,12.178 2.505,12.166 2.487,12.155 C2.487,12.143 2.487,12.132 2.487,12.120 C2.470,12.109 2.453,12.097 2.436,12.086 C2.436,12.074 2.436,12.063 2.436,12.051 C2.419,12.040 2.402,12.028 2.385,12.017 C2.379,12.000 2.373,11.982 2.367,11.965 C2.356,11.959 2.345,11.954 2.333,11.948 C2.333,11.936 2.333,11.925 2.333,11.913 C2.322,11.907 2.310,11.902 2.299,11.896 C2.299,11.884 2.299,11.873 2.299,11.861 C2.282,11.850 2.264,11.838 2.247,11.827 C2.242,11.804 2.236,11.781 2.230,11.758 C2.219,11.752 2.207,11.746 2.196,11.741 C2.196,11.729 2.196,11.718 2.196,11.706 C2.184,11.700 2.173,11.695 2.162,11.689 C2.162,11.677 2.162,11.666 2.162,11.654 C2.150,11.649 2.139,11.643 2.127,11.637 C2.127,11.626 2.127,11.614 2.127,11.603 C2.122,11.603 2.116,11.603 2.110,11.603 C2.110,11.591 2.110,11.579 2.110,11.568 C2.099,11.562 2.087,11.556 2.076,11.551 C2.070,11.528 2.064,11.505 2.059,11.482 C2.047,11.476 2.036,11.470 2.024,11.464 C2.024,11.453 2.024,11.441 2.024,11.430 C2.019,11.430 2.013,11.430 2.007,11.430 C2.007,11.418 2.007,11.407 2.007,11.395 C2.001,11.395 1.996,11.395 1.990,11.395 C1.990,11.384 1.990,11.372 1.990,11.361 C1.984,11.361 1.979,11.361 1.973,11.361 C1.973,11.349 1.973,11.338 1.973,11.326 C1.967,11.326 1.961,11.326 1.956,11.326 C1.956,11.315 1.956,11.303 1.956,11.292 C1.950,11.292 1.944,11.292 1.939,11.292 C1.939,11.280 1.939,11.269 1.939,11.257 C1.933,11.257 1.927,11.257 1.921,11.257 C1.921,11.246 1.921,11.234 1.921,11.223 C1.916,11.223 1.910,11.223 1.904,11.223 C1.898,11.200 1.893,11.177 1.887,11.154 C1.881,11.154 1.876,11.154 1.870,11.154 C1.864,11.131 1.858,11.108 1.853,11.085 C1.847,11.085 1.841,11.085 1.836,11.085 C1.836,11.067 1.836,11.050 1.836,11.033 C1.794,10.938 1.739,10.840 1.716,10.722 C1.784,10.730 1.847,10.757 1.904,10.774 C1.990,10.780 2.076,10.785 2.162,10.791 C2.162,10.797 2.162,10.803 2.162,10.808 C2.322,10.808 2.482,10.808 2.642,10.808 C3.011,10.808 3.353,10.761 3.637,10.670 C3.665,10.670 3.694,10.670 3.723,10.670 C3.774,10.653 3.826,10.636 3.877,10.619 C3.877,10.613 3.877,10.607 3.877,10.601 C3.848,10.601 3.820,10.601 3.791,10.601 C3.752,10.568 3.692,10.586 3.637,10.567 C3.637,10.561 3.637,10.555 3.637,10.550 C3.614,10.550 3.591,10.550 3.568,10.550 C3.568,10.544 3.568,10.538 3.568,10.532 C3.545,10.532 3.523,10.532 3.500,10.532 C3.500,10.526 3.500,10.521 3.500,10.515 C3.482,10.515 3.465,10.515 3.448,10.515 C3.448,10.509 3.448,10.503 3.448,10.498 C3.408,10.492 3.368,10.486 3.328,10.480 C3.328,10.475 3.328,10.469 3.328,10.463 C3.311,10.463 3.294,10.463 3.277,10.463 C3.277,10.457 3.277,10.452 3.277,10.446 C3.259,10.446 3.242,10.446 3.225,10.446 C3.225,10.440 3.225,10.434 3.225,10.429 C3.208,10.429 3.191,10.429 3.174,10.429 C3.174,10.423 3.174,10.417 3.174,10.411 C3.157,10.411 3.139,10.411 3.122,10.411 C3.122,10.406 3.122,10.400 3.122,10.394 C3.105,10.394 3.088,10.394 3.071,10.394 C3.071,10.388 3.071,10.383 3.071,10.377 C3.059,10.377 3.048,10.377 3.036,10.377 C3.036,10.371 3.036,10.365 3.036,10.360 C3.019,10.360 3.002,10.360 2.985,10.360 C2.985,10.354 2.985,10.348 2.985,10.342 C2.974,10.342 2.962,10.342 2.951,10.342 C2.951,10.337 2.951,10.331 2.951,10.325 C2.934,10.325 2.916,10.325 2.899,10.325 C2.899,10.319 2.899,10.314 2.899,10.308 C2.876,10.302 2.853,10.296 2.831,10.291 C2.831,10.285 2.831,10.279 2.831,10.273 C2.819,10.273 2.808,10.273 2.796,10.273 C2.796,10.268 2.796,10.262 2.796,10.256 C2.779,10.256 2.762,10.256 2.745,10.256 C2.745,10.250 2.745,10.245 2.745,10.239 C2.711,10.227 2.676,10.216 2.642,10.204 C2.642,10.198 2.642,10.193 2.642,10.187 C2.630,10.187 2.619,10.187 2.608,10.187 C2.608,10.181 2.608,10.175 2.608,10.170 C2.573,10.158 2.539,10.147 2.505,10.135 C2.499,10.124 2.493,10.112 2.487,10.101 C2.476,10.101 2.465,10.101 2.453,10.101 C2.453,10.095 2.453,10.089 2.453,10.083 C2.442,10.083 2.430,10.083 2.419,10.083 C2.419,10.078 2.419,10.072 2.419,10.066 C2.407,10.066 2.396,10.066 2.385,10.066 C2.385,10.060 2.385,10.055 2.385,10.049 C2.373,10.049 2.362,10.049 2.350,10.049 C2.350,10.043 2.350,10.037 2.350,10.032 C2.333,10.026 2.316,10.020 2.299,10.014 C2.293,10.003 2.287,9.991 2.282,9.980 C2.259,9.974 2.236,9.968 2.213,9.963 C2.213,9.957 2.213,9.951 2.213,9.945 C2.196,9.940 2.179,9.934 2.162,9.928 C2.156,9.917 2.150,9.905 2.144,9.894 C2.133,9.894 2.122,9.894 2.110,9.894 C2.110,9.888 2.110,9.882 2.110,9.876 C2.093,9.871 2.076,9.865 2.059,9.859 C2.053,9.847 2.047,9.836 2.041,9.824 C2.030,9.824 2.019,9.824 2.007,9.824 C1.996,9.807 1.984,9.790 1.973,9.773 C1.961,9.773 1.950,9.773 1.939,9.773 C1.933,9.761 1.927,9.750 1.921,9.738 C1.910,9.738 1.898,9.738 1.887,9.738 C1.881,9.727 1.876,9.715 1.870,9.704 C1.864,9.704 1.858,9.704 1.853,9.704 C1.847,9.692 1.841,9.681 1.836,9.669 C1.824,9.669 1.813,9.669 1.801,9.669 C1.784,9.646 1.767,9.623 1.750,9.600 C1.738,9.600 1.727,9.600 1.716,9.600 C1.687,9.566 1.658,9.531 1.630,9.496 C1.618,9.496 1.607,9.496 1.595,9.496 C1.538,9.433 1.481,9.370 1.424,9.307 C1.344,9.232 1.264,9.157 1.184,9.082 C1.184,9.071 1.184,9.059 1.184,9.048 C1.149,9.019 1.115,8.990 1.081,8.961 C1.081,8.950 1.081,8.938 1.081,8.927 C1.058,8.910 1.035,8.892 1.012,8.875 C1.012,8.864 1.012,8.852 1.012,8.841 C0.995,8.829 0.978,8.818 0.961,8.806 C0.961,8.794 0.961,8.783 0.961,8.771 C0.944,8.760 0.926,8.748 0.909,8.737 C0.904,8.720 0.898,8.702 0.892,8.685 C0.881,8.679 0.869,8.674 0.858,8.668 C0.858,8.656 0.858,8.645 0.858,8.633 C0.846,8.628 0.835,8.622 0.823,8.616 C0.818,8.599 0.812,8.582 0.806,8.564 C0.801,8.564 0.795,8.564 0.789,8.564 C0.789,8.553 0.789,8.541 0.789,8.530 C0.778,8.524 0.766,8.518 0.755,8.513 C0.749,8.490 0.743,8.466 0.738,8.443 C0.726,8.438 0.715,8.432 0.703,8.426 C0.698,8.409 0.692,8.392 0.686,8.374 C0.680,8.374 0.675,8.374 0.669,8.374 C0.658,8.340 0.646,8.305 0.635,8.271 C0.623,8.265 0.612,8.259 0.600,8.254 C0.600,8.242 0.600,8.231 0.600,8.219 C0.595,8.219 0.589,8.219 0.583,8.219 C0.583,8.208 0.583,8.196 0.583,8.185 C0.578,8.185 0.572,8.185 0.566,8.185 C0.566,8.173 0.566,8.162 0.566,8.150 C0.560,8.150 0.555,8.150 0.549,8.150 C0.549,8.139 0.549,8.127 0.549,8.115 C0.543,8.115 0.538,8.115 0.532,8.115 C0.532,8.104 0.532,8.092 0.532,8.081 C0.526,8.081 0.520,8.081 0.515,8.081 C0.509,8.058 0.503,8.035 0.497,8.012 C0.486,8.006 0.475,8.000 0.463,7.995 C0.463,7.977 0.463,7.960 0.463,7.943 C0.457,7.943 0.452,7.943 0.446,7.943 C0.446,7.931 0.446,7.920 0.446,7.908 C0.440,7.908 0.435,7.908 0.429,7.908 C0.417,7.874 0.406,7.839 0.395,7.805 C0.389,7.805 0.383,7.805 0.377,7.805 C0.377,7.788 0.377,7.770 0.377,7.753 C0.372,7.753 0.366,7.753 0.360,7.753 C0.360,7.741 0.360,7.730 0.360,7.718 C0.355,7.718 0.349,7.718 0.343,7.718 C0.269,7.483 0.194,7.247 0.120,7.011 C0.114,6.953 0.109,6.896 0.103,6.838 C0.023,6.578 0.011,6.176 -0.000,5.854 C0.066,5.860 0.079,5.887 0.120,5.906 C0.137,5.906 0.154,5.906 0.172,5.906 C0.172,5.912 0.172,5.917 0.172,5.923 C0.194,5.929 0.217,5.935 0.240,5.940 C0.240,5.946 0.240,5.952 0.240,5.958 C0.257,5.958 0.274,5.958 0.292,5.958 C0.292,5.963 0.292,5.969 0.292,5.975 C0.303,5.975 0.315,5.975 0.326,5.975 C0.326,5.981 0.326,5.986 0.326,5.992 C0.360,5.998 0.395,6.004 0.429,6.009 C0.429,6.015 0.429,6.021 0.429,6.027 C0.440,6.027 0.452,6.027 0.463,6.027 C0.463,6.032 0.463,6.038 0.463,6.044 C0.480,6.044 0.497,6.044 0.515,6.044 C0.515,6.050 0.515,6.056 0.515,6.061 C0.532,6.061 0.549,6.061 0.566,6.061 C0.566,6.067 0.566,6.073 0.566,6.079 C0.583,6.079 0.600,6.079 0.618,6.079 C0.618,6.084 0.618,6.090 0.618,6.096 C0.635,6.096 0.652,6.096 0.669,6.096 C0.669,6.102 0.669,6.107 0.669,6.113 C0.938,6.182 1.207,6.251 1.475,6.320 C1.510,6.320 1.544,6.320 1.578,6.320 C1.701,6.358 1.872,6.383 2.007,6.407 C2.066,6.417 2.168,6.429 2.196,6.407 C2.179,6.401 2.162,6.395 2.144,6.389 C2.144,6.384 2.144,6.378 2.144,6.372 C2.127,6.366 2.110,6.360 2.093,6.355 C2.087,6.343 2.081,6.332 2.076,6.320 C2.064,6.320 2.053,6.320 2.041,6.320 C2.036,6.309 2.030,6.297 2.024,6.286 C2.013,6.286 2.001,6.286 1.990,6.286 C1.973,6.263 1.956,6.240 1.939,6.217 C1.927,6.217 1.916,6.217 1.904,6.217 C1.893,6.199 1.881,6.182 1.870,6.165 C1.858,6.165 1.847,6.165 1.836,6.165 C1.818,6.142 1.801,6.119 1.784,6.096 C1.773,6.096 1.761,6.096 1.750,6.096 C1.716,6.056 1.681,6.015 1.647,5.975 C1.635,5.975 1.624,5.975 1.613,5.975 C1.544,5.900 1.475,5.825 1.407,5.751 C1.350,5.699 1.292,5.647 1.235,5.595 C1.235,5.584 1.235,5.572 1.235,5.561 C1.201,5.532 1.167,5.503 1.132,5.474 C1.132,5.463 1.132,5.451 1.132,5.440 C1.104,5.417 1.075,5.394 1.046,5.371 C1.046,5.359 1.046,5.348 1.046,5.336 C1.029,5.325 1.012,5.313 0.995,5.302 C0.995,5.290 0.995,5.279 0.995,5.267 C0.972,5.250 0.949,5.233 0.926,5.215 C0.926,5.204 0.926,5.192 0.926,5.181 C0.915,5.175 0.904,5.169 0.892,5.164 C0.892,5.152 0.892,5.141 0.892,5.129 C0.875,5.118 0.858,5.106 0.841,5.095 C0.841,5.083 0.841,5.072 0.841,5.060 C0.829,5.054 0.818,5.049 0.806,5.043 C0.801,5.026 0.795,5.008 0.789,4.991 C0.783,4.991 0.778,4.991 0.772,4.991 C0.772,4.979 0.772,4.968 0.772,4.956 C0.761,4.951 0.749,4.945 0.738,4.939 C0.732,4.916 0.726,4.893 0.721,4.870 C0.709,4.864 0.698,4.859 0.686,4.853 C0.680,4.830 0.675,4.807 0.669,4.784 C0.658,4.778 0.646,4.772 0.635,4.767 C0.623,4.732 0.612,4.698 0.600,4.663 C0.589,4.657 0.578,4.652 0.566,4.646 C0.566,4.634 0.566,4.623 0.566,4.611 C0.560,4.611 0.555,4.611 0.549,4.611 C0.549,4.600 0.549,4.588 0.549,4.577 C0.543,4.577 0.538,4.577 0.532,4.577 C0.532,4.565 0.532,4.554 0.532,4.542 C0.526,4.542 0.520,4.542 0.515,4.542 C0.515,4.531 0.515,4.519 0.515,4.508 C0.509,4.508 0.503,4.508 0.497,4.508 C0.497,4.496 0.497,4.485 0.497,4.473 C0.492,4.473 0.486,4.473 0.480,4.473 C0.480,4.462 0.480,4.450 0.480,4.439 C0.475,4.439 0.469,4.439 0.463,4.439 C0.452,4.404 0.440,4.370 0.429,4.335 C0.423,4.335 0.417,4.335 0.412,4.335 C0.412,4.318 0.412,4.301 0.412,4.283 C0.406,4.283 0.400,4.283 0.395,4.283 C0.389,4.260 0.383,4.237 0.377,4.214 C0.372,4.214 0.366,4.214 0.360,4.214 C0.360,4.197 0.360,4.180 0.360,4.162 C0.355,4.162 0.349,4.162 0.343,4.162 C0.343,4.151 0.343,4.139 0.343,4.128 C0.337,4.128 0.332,4.128 0.326,4.128 C0.326,4.111 0.326,4.093 0.326,4.076 C0.320,4.076 0.315,4.076 0.309,4.076 C0.309,4.065 0.309,4.053 0.309,4.042 C0.303,4.042 0.297,4.042 0.292,4.042 C0.234,3.852 0.177,3.662 0.120,3.472 C0.109,3.386 0.097,3.299 0.086,3.213 C0.019,2.983 0.017,2.700 0.017,2.402 C0.017,2.273 0.006,2.105 0.034,2.005 C0.034,1.947 0.034,1.890 0.034,1.832 C0.063,1.659 0.091,1.487 0.120,1.314 C0.183,1.113 0.246,0.911 0.309,0.710 C0.315,0.710 0.320,0.710 0.326,0.710 C0.326,0.698 0.326,0.687 0.326,0.675 C0.332,0.675 0.337,0.675 0.343,0.675 C0.343,0.658 0.343,0.641 0.343,0.624 C0.349,0.624 0.355,0.624 0.360,0.624 C0.372,0.589 0.383,0.555 0.395,0.520 C0.400,0.520 0.406,0.520 0.412,0.520 C0.412,0.509 0.412,0.497 0.412,0.486 C0.417,0.486 0.423,0.486 0.429,0.486 C0.429,0.474 0.429,0.462 0.429,0.451 C0.435,0.451 0.440,0.451 0.446,0.451 C0.446,0.439 0.446,0.428 0.446,0.416 C0.452,0.416 0.457,0.416 0.463,0.416 C0.463,0.405 0.463,0.393 0.463,0.382 C0.469,0.382 0.475,0.382 0.480,0.382 C0.480,0.370 0.480,0.359 0.480,0.347 C0.486,0.347 0.492,0.347 0.497,0.347 C0.497,0.336 0.497,0.324 0.497,0.313 C0.503,0.313 0.509,0.313 0.515,0.313 C0.515,0.301 0.515,0.290 0.515,0.278 C0.520,0.278 0.526,0.278 0.532,0.278 C0.538,0.261 0.543,0.244 0.549,0.227 C0.560,0.221 0.572,0.215 0.583,0.209 C0.589,0.186 0.595,0.163 0.600,0.140 C0.612,0.135 0.623,0.129 0.635,0.123 C0.635,0.111 0.635,0.100 0.635,0.088 C0.646,0.083 0.658,0.077 0.669,0.071 C0.680,0.048 0.692,0.025 0.703,0.002 C0.723,0.017 0.706,-0.000 0.721,0.019 C0.749,0.043 0.764,0.079 0.789,0.106 C0.801,0.111 0.812,0.117 0.823,0.123 C0.823,0.135 0.823,0.146 0.823,0.158 C0.852,0.181 0.881,0.204 0.909,0.227 C0.909,0.238 0.909,0.250 0.909,0.261 C0.949,0.296 0.989,0.330 1.029,0.365 C1.029,0.376 1.029,0.388 1.029,0.399 C1.064,0.428 1.098,0.457 1.132,0.486 C1.132,0.497 1.132,0.509 1.132,0.520 C1.155,0.537 1.178,0.555 1.201,0.572 C1.218,0.595 1.235,0.618 1.252,0.641 C1.258,0.641 1.264,0.641 1.269,0.641 C1.269,0.652 1.269,0.664 1.269,0.675 C1.315,0.716 1.361,0.756 1.407,0.796 C1.598,1.062 1.848,1.275 2.076,1.504 C2.228,1.657 2.362,1.824 2.539,1.953 C2.602,2.022 2.665,2.091 2.728,2.160 C2.739,2.160 2.751,2.160 2.762,2.160 C2.802,2.206 2.842,2.252 2.882,2.298 C2.893,2.298 2.905,2.298 2.916,2.298 C2.956,2.344 2.996,2.390 3.036,2.436 C3.048,2.436 3.059,2.436 3.071,2.436 C3.094,2.465 3.117,2.494 3.139,2.522 C3.151,2.522 3.162,2.522 3.174,2.522 C3.197,2.551 3.219,2.580 3.242,2.609 C3.254,2.609 3.265,2.609 3.277,2.609 C3.305,2.643 3.334,2.678 3.362,2.712 C3.374,2.712 3.385,2.712 3.397,2.712 C3.402,2.724 3.408,2.735 3.414,2.747 C3.420,2.747 3.425,2.747 3.431,2.747 C3.437,2.758 3.442,2.770 3.448,2.781 C3.460,2.781 3.471,2.781 3.482,2.781 C3.500,2.804 3.517,2.827 3.534,2.850 C3.545,2.850 3.557,2.850 3.568,2.850 C3.585,2.873 3.603,2.896 3.620,2.920 C3.631,2.920 3.643,2.920 3.654,2.920 C3.660,2.931 3.665,2.943 3.671,2.954 C3.688,2.960 3.706,2.966 3.723,2.971 C3.740,2.994 3.757,3.017 3.774,3.040 C3.786,3.040 3.797,3.040 3.808,3.040 C3.820,3.058 3.831,3.075 3.843,3.092 C3.854,3.092 3.866,3.092 3.877,3.092 C3.888,3.109 3.900,3.127 3.911,3.144 C3.923,3.144 3.934,3.144 3.946,3.144 C3.957,3.161 3.969,3.178 3.980,3.196 C3.991,3.196 4.003,3.196 4.014,3.196 C4.026,3.213 4.037,3.230 4.049,3.247 C4.066,3.253 4.083,3.259 4.100,3.265 C4.106,3.276 4.112,3.288 4.117,3.299 C4.129,3.299 4.140,3.299 4.152,3.299 C4.157,3.311 4.163,3.322 4.169,3.334 C4.180,3.334 4.192,3.334 4.203,3.334 C4.214,3.351 4.226,3.368 4.237,3.386 C4.249,3.386 4.260,3.386 4.272,3.386 C4.272,3.391 4.272,3.397 4.272,3.403 C4.289,3.409 4.306,3.414 4.323,3.420 C4.329,3.432 4.335,3.443 4.340,3.455 C4.352,3.455 4.363,3.455 4.375,3.455 C4.386,3.472 4.397,3.489 4.409,3.506 C4.420,3.506 4.432,3.506 4.443,3.506 C4.449,3.518 4.455,3.529 4.460,3.541 C4.477,3.547 4.495,3.552 4.512,3.558 C4.512,3.564 4.512,3.570 4.512,3.575 C4.523,3.575 4.535,3.575 4.546,3.575 C4.552,3.587 4.558,3.598 4.563,3.610 C4.575,3.610 4.586,3.610 4.598,3.610 C4.603,3.622 4.609,3.633 4.615,3.645 C4.626,3.645 4.638,3.645 4.649,3.645 C4.655,3.656 4.660,3.668 4.666,3.679 C4.678,3.679 4.689,3.679 4.701,3.679 C4.706,3.691 4.712,3.702 4.718,3.714 C4.729,3.714 4.741,3.714 4.752,3.714 C4.758,3.725 4.763,3.737 4.769,3.748 C4.781,3.748 4.792,3.748 4.803,3.748 C4.809,3.760 4.815,3.771 4.821,3.783 C4.843,3.788 4.866,3.794 4.889,3.800 C4.895,3.811 4.901,3.823 4.906,3.834 C4.929,3.840 4.952,3.846 4.975,3.852 C4.975,3.857 4.975,3.863 4.975,3.869 C4.992,3.875 5.009,3.880 5.026,3.886 C5.032,3.898 5.038,3.909 5.044,3.921 C5.066,3.926 5.089,3.932 5.112,3.938 C5.118,3.949 5.124,3.961 5.129,3.973 C5.152,3.978 5.175,3.984 5.198,3.990 C5.204,4.001 5.209,4.013 5.215,4.024 C5.232,4.030 5.249,4.036 5.267,4.042 C5.267,4.047 5.267,4.053 5.267,4.059 C5.301,4.070 5.335,4.082 5.370,4.093 C5.375,4.105 5.381,4.116 5.387,4.128 C5.421,4.139 5.455,4.151 5.490,4.162 C5.495,4.174 5.501,4.185 5.507,4.197 C5.518,4.197 5.530,4.197 5.541,4.197 C5.541,4.203 5.541,4.208 5.541,4.214 C5.553,4.214 5.564,4.214 5.575,4.214 C5.575,4.220 5.575,4.226 5.575,4.231 C5.587,4.231 5.598,4.231 5.610,4.231 C5.610,4.237 5.610,4.243 5.610,4.249 C5.621,4.249 5.633,4.249 5.644,4.249 C5.644,4.254 5.644,4.260 5.644,4.266 C5.655,4.266 5.667,4.266 5.678,4.266 C5.684,4.277 5.690,4.289 5.695,4.301 C5.707,4.301 5.718,4.301 5.730,4.301 C5.730,4.306 5.730,4.312 5.730,4.318 C5.741,4.318 5.753,4.318 5.764,4.318 C5.764,4.324 5.764,4.329 5.764,4.335 C5.776,4.335 5.787,4.335 5.798,4.335 C5.798,4.341 5.798,4.347 5.798,4.352 C5.810,4.352 5.821,4.352 5.833,4.352 C5.833,4.358 5.833,4.364 5.833,4.370 C5.844,4.370 5.856,4.370 5.867,4.370 C5.867,4.375 5.867,4.381 5.867,4.387 C5.878,4.387 5.890,4.387 5.901,4.387 C5.907,4.398 5.913,4.410 5.919,4.421 C5.947,4.427 5.976,4.433 6.004,4.439 C6.010,4.450 6.016,4.462 6.021,4.473 C6.044,4.479 6.067,4.485 6.090,4.490 C6.090,4.496 6.090,4.502 6.090,4.508 C6.113,4.513 6.136,4.519 6.159,4.525 C6.159,4.531 6.159,4.536 6.159,4.542 C6.176,4.542 6.193,4.542 6.210,4.542 C6.210,4.548 6.210,4.554 6.210,4.559 C6.233,4.565 6.256,4.571 6.279,4.577 C6.279,4.582 6.279,4.588 6.279,4.594 C6.290,4.594 6.302,4.594 6.313,4.594 C6.313,4.600 6.313,4.605 6.313,4.611 C6.325,4.611 6.336,4.611 6.347,4.611 C6.347,4.617 6.347,4.623 6.347,4.628 C6.359,4.628 6.370,4.628 6.382,4.628 C6.382,4.634 6.382,4.640 6.382,4.646 C6.416,4.657 6.450,4.669 6.485,4.680 C6.485,4.686 6.485,4.692 6.485,4.698 C6.502,4.698 6.519,4.698 6.536,4.698 C6.536,4.703 6.536,4.709 6.536,4.715 C6.548,4.715 6.559,4.715 6.570,4.715 C6.570,4.721 6.570,4.726 6.570,4.732 C6.605,4.744 6.639,4.755 6.673,4.767 C6.673,4.772 6.673,4.778 6.673,4.784 C6.690,4.784 6.708,4.784 6.725,4.784 C6.725,4.790 6.725,4.795 6.725,4.801 C6.736,4.801 6.748,4.801 6.759,4.801 C6.759,4.807 6.759,4.813 6.759,4.818 C6.776,4.818 6.793,4.818 6.811,4.818 C6.811,4.824 6.811,4.830 6.811,4.836 C6.833,4.841 6.856,4.847 6.879,4.853 C6.879,4.859 6.879,4.864 6.879,4.870 C6.896,4.870 6.914,4.870 6.931,4.870 C6.931,4.876 6.931,4.882 6.931,4.887 C6.942,4.887 6.954,4.887 6.965,4.887 C6.965,4.893 6.965,4.899 6.965,4.905 C6.982,4.905 6.999,4.905 7.016,4.905 C7.016,4.910 7.016,4.916 7.016,4.922 C7.039,4.928 7.062,4.933 7.085,4.939 C7.085,4.945 7.085,4.951 7.085,4.956 C7.114,4.962 7.142,4.968 7.171,4.974 C7.171,4.979 7.171,4.985 7.171,4.991 C7.205,4.997 7.239,5.003 7.274,5.008 C7.274,5.014 7.274,5.020 7.274,5.026 C7.285,5.026 7.297,5.026 7.308,5.026 C7.308,5.031 7.308,5.037 7.308,5.043 C7.342,5.049 7.377,5.054 7.411,5.060 C7.411,5.066 7.411,5.072 7.411,5.077 C7.422,5.077 7.434,5.077 7.445,5.077 C7.445,5.083 7.445,5.089 7.445,5.095 C7.497,5.106 7.548,5.118 7.600,5.129 C7.600,5.135 7.600,5.141 7.600,5.146 C7.617,5.146 7.634,5.146 7.651,5.146 C7.651,5.152 7.651,5.158 7.651,5.164 C7.668,5.164 7.685,5.164 7.703,5.164 C7.703,5.169 7.703,5.175 7.703,5.181 C7.720,5.181 7.737,5.181 7.754,5.181 C7.754,5.187 7.754,5.192 7.754,5.198 C7.771,5.198 7.788,5.198 7.806,5.198 C7.806,5.204 7.806,5.210 7.806,5.215 C7.823,5.215 7.840,5.215 7.857,5.215 C7.857,5.221 7.857,5.227 7.857,5.233 C7.891,5.238 7.926,5.244 7.960,5.250 C7.960,5.256 7.960,5.261 7.960,5.267 C8.000,5.273 8.040,5.279 8.080,5.284 C8.080,5.290 8.080,5.296 8.080,5.302 C8.097,5.302 8.114,5.302 8.132,5.302 C8.132,5.307 8.132,5.313 8.132,5.319 C8.149,5.319 8.166,5.319 8.183,5.319 C8.183,5.325 8.183,5.330 8.183,5.336 C8.200,5.336 8.217,5.336 8.234,5.336 C8.234,5.342 8.234,5.348 8.234,5.354 C8.297,5.365 8.360,5.377 8.423,5.388 C8.423,5.394 8.423,5.400 8.423,5.405 C8.469,5.411 8.515,5.417 8.560,5.423 C8.560,5.428 8.560,5.434 8.560,5.440 C8.578,5.440 8.595,5.440 8.612,5.440 C8.612,5.446 8.612,5.451 8.612,5.457 C8.640,5.457 8.669,5.457 8.698,5.457 C8.698,5.463 8.698,5.469 8.698,5.474 C8.715,5.474 8.732,5.474 8.749,5.474 C8.749,5.480 8.749,5.486 8.749,5.492 C8.778,5.492 8.806,5.492 8.835,5.492 C8.835,5.497 8.835,5.503 8.835,5.509 C8.858,5.509 8.881,5.509 8.904,5.509 C8.904,5.515 8.904,5.520 8.904,5.526 C8.932,5.526 8.961,5.526 8.989,5.526 C9.139,5.575 9.332,5.600 9.487,5.647 C9.555,5.653 9.624,5.658 9.693,5.664 C9.829,5.705 10.015,5.710 10.156,5.751 C10.207,5.751 10.259,5.751 10.310,5.751 C10.310,5.756 10.310,5.762 10.310,5.768 C10.356,5.768 10.402,5.768 10.447,5.768 C10.447,5.774 10.447,5.779 10.447,5.785 C10.510,5.785 10.573,5.785 10.636,5.785 C10.636,5.791 10.636,5.797 10.636,5.802 C10.705,5.802 10.773,5.802 10.842,5.802 C10.842,5.808 10.842,5.814 10.842,5.820 C10.939,5.820 11.036,5.820 11.134,5.820 C11.311,5.870 11.594,5.836 11.803,5.837 Z"/>
</svg>