<svg xmlns="http://www.w3.org/2000/svg" width="16.8" height="10.014" viewBox="0 0 16.8 10.014">
  <g id="eye" transform="translate(0 -98.725)" opacity="0.7">
    <path id="Path_20" data-name="Path 20" d="M8.4,98.725c-3.21,0-6.12,1.756-8.268,4.608a.665.665,0,0,0,0,.794c2.148,2.856,5.059,4.612,8.268,4.612s6.12-1.756,8.268-4.608a.665.665,0,0,0,0-.794C14.52,100.481,11.61,98.725,8.4,98.725Zm.23,8.533a3.533,3.533,0,1,1,3.3-3.3A3.536,3.536,0,0,1,8.63,107.258Zm-.107-1.629a1.9,1.9,0,1,1,1.777-1.777A1.9,1.9,0,0,1,8.523,105.629Z" fill="#fff"/>
  </g>
</svg>
