<svg xmlns="http://www.w3.org/2000/svg" width="16.208" height="14.587" viewBox="0 0 16.208 14.587">
  <g id="noun_filter_1656720" transform="translate(-12.9 -16.2)">
    <path id="Path_1045" data-name="Path 1045" d="M13.332,20.263h2.4v1.556a.867.867,0,0,0,.864.864h3.134a.867.867,0,0,0,.864-.864V20.263h8.083a.433.433,0,0,0,.432-.432v-.756a.433.433,0,0,0-.432-.432H20.594V17.064a.867.867,0,0,0-.864-.864H16.6a.867.867,0,0,0-.864.864V18.62h-2.4a.433.433,0,0,0-.432.432v.778A.433.433,0,0,0,13.332,20.263Zm4.02-2.442h1.621v3.242H17.352Z" fill="#304fff"/>
    <path id="Path_1046" data-name="Path 1046" d="M13.332,57.841h8.083V59.4a.867.867,0,0,0,.864.864h3.134a.867.867,0,0,0,.864-.864V57.841h2.4a.433.433,0,0,0,.432-.432v-.756a.433.433,0,0,0-.432-.432h-2.4V54.664a.867.867,0,0,0-.864-.864H22.279a.867.867,0,0,0-.864.864V56.22H13.332a.433.433,0,0,0-.432.432v.756a.433.433,0,0,0,.432.432Zm9.7-2.442h1.621v3.242H23.036Z" transform="translate(0 -29.474)" fill="#304fff"/>
  </g>
</svg>
