<svg 
 xmlns="http://www.w3.org/2000/svg"
 xmlns:xlink="http://www.w3.org/1999/xlink"
 width="37px" height="56px">
<path fill-rule="evenodd"  fill="rgb(255, 255, 255)"
 d="M36.659,-0.000 C36.400,0.995 34.638,2.008 33.931,2.710 C33.590,3.105 33.249,3.500 32.908,3.895 C31.544,3.895 30.180,3.895 28.816,3.895 C28.816,3.951 28.816,4.008 28.816,4.064 C28.929,4.064 29.043,4.064 29.157,4.064 C29.270,4.234 29.384,4.403 29.498,4.572 C29.611,4.572 29.725,4.572 29.839,4.572 C30.066,4.855 30.293,5.137 30.521,5.419 C30.634,5.475 30.748,5.532 30.862,5.588 C30.862,5.701 30.862,5.814 30.862,5.927 C31.032,6.040 31.203,6.153 31.373,6.266 C31.373,6.379 31.373,6.492 31.373,6.604 C31.487,6.661 31.601,6.717 31.714,6.774 C32.112,7.677 32.510,8.580 32.908,9.483 C32.908,9.709 32.908,9.935 32.908,10.161 C33.489,11.954 33.350,14.493 32.737,16.088 C32.737,16.257 32.737,16.426 32.737,16.596 C32.680,16.596 32.624,16.596 32.567,16.596 C32.510,16.821 32.453,17.047 32.396,17.273 C32.339,17.273 32.283,17.273 32.226,17.273 C32.169,17.499 32.112,17.725 32.055,17.950 C31.942,18.007 31.828,18.063 31.714,18.120 C31.714,18.233 31.714,18.346 31.714,18.459 C31.601,18.515 31.487,18.571 31.373,18.628 C31.373,18.741 31.373,18.854 31.373,18.967 C31.203,19.079 31.032,19.192 30.862,19.305 C30.862,19.418 30.862,19.531 30.862,19.644 C30.407,20.039 29.952,20.434 29.498,20.829 C29.327,21.055 29.157,21.281 28.986,21.507 C27.289,22.718 25.044,23.878 24.894,26.587 C24.951,26.587 25.008,26.587 25.065,26.587 C25.065,26.813 25.065,27.039 25.065,27.264 C25.121,27.264 25.178,27.264 25.235,27.264 C25.235,27.377 25.235,27.490 25.235,27.603 C25.292,27.603 25.349,27.603 25.406,27.603 C25.406,27.716 25.406,27.829 25.406,27.942 C26.031,28.619 26.656,29.297 27.281,29.974 C27.395,29.974 27.508,29.974 27.622,29.974 C27.793,30.200 27.963,30.426 28.134,30.651 C28.304,30.708 28.475,30.764 28.645,30.821 C28.702,30.934 28.759,31.046 28.816,31.159 C28.929,31.159 29.043,31.159 29.157,31.159 C29.270,31.329 29.384,31.498 29.498,31.667 C29.611,31.667 29.725,31.667 29.839,31.667 C29.952,31.837 30.066,32.006 30.180,32.175 C30.293,32.175 30.407,32.175 30.521,32.175 C30.634,32.345 30.748,32.514 30.862,32.683 C30.975,32.683 31.089,32.683 31.203,32.683 C31.373,32.909 31.544,33.135 31.714,33.361 C31.828,33.361 31.942,33.361 32.055,33.361 C32.567,33.925 33.078,34.490 33.590,35.054 C33.931,35.336 34.272,35.619 34.613,35.901 C34.613,36.014 34.613,36.127 34.613,36.240 C34.783,36.353 34.954,36.465 35.124,36.578 C35.124,36.691 35.124,36.804 35.124,36.917 C35.238,36.973 35.352,37.030 35.465,37.086 C35.522,37.312 35.579,37.538 35.636,37.764 C35.750,37.820 35.863,37.877 35.977,37.933 C36.034,38.215 36.091,38.498 36.147,38.780 C36.204,38.780 36.261,38.780 36.318,38.780 C36.318,38.893 36.318,39.006 36.318,39.119 C36.375,39.119 36.432,39.119 36.488,39.119 C36.602,39.796 36.716,40.473 36.829,41.151 C36.886,41.151 36.943,41.151 37.000,41.151 C37.000,41.828 37.000,42.505 37.000,43.183 C37.000,44.433 37.022,45.485 36.659,46.400 C36.602,46.400 36.545,46.400 36.488,46.400 C36.488,46.570 36.488,46.739 36.488,46.908 C36.432,46.908 36.375,46.908 36.318,46.908 C36.318,47.021 36.318,47.134 36.318,47.247 C36.261,47.247 36.204,47.247 36.147,47.247 C36.091,47.529 36.034,47.812 35.977,48.094 C35.863,48.150 35.750,48.207 35.636,48.263 C35.579,48.489 35.522,48.715 35.465,48.940 C35.352,48.997 35.238,49.053 35.124,49.110 C35.124,49.223 35.124,49.336 35.124,49.448 C34.897,49.618 34.670,49.787 34.442,49.957 C34.442,50.069 34.442,50.182 34.442,50.295 C34.045,50.634 33.647,50.973 33.249,51.311 C33.192,51.424 33.135,51.537 33.078,51.650 C32.965,51.650 32.851,51.650 32.737,51.650 C32.567,51.876 32.396,52.102 32.226,52.327 C32.112,52.327 31.998,52.327 31.885,52.327 C31.828,52.440 31.771,52.553 31.714,52.666 C31.601,52.666 31.487,52.666 31.373,52.666 C31.316,52.779 31.260,52.892 31.203,53.005 C30.862,53.118 30.521,53.231 30.180,53.343 C30.180,53.400 30.180,53.456 30.180,53.513 C30.066,53.513 29.952,53.513 29.839,53.513 C29.839,53.569 29.839,53.626 29.839,53.682 C29.725,53.682 29.611,53.682 29.498,53.682 C29.498,53.739 29.498,53.795 29.498,53.851 C29.157,53.964 28.816,54.077 28.475,54.190 C28.475,54.247 28.475,54.303 28.475,54.359 C28.134,54.416 27.793,54.472 27.452,54.529 C22.582,56.424 14.418,56.494 9.378,54.698 C9.151,54.698 8.923,54.698 8.696,54.698 C8.696,54.642 8.696,54.585 8.696,54.529 C8.582,54.529 8.468,54.529 8.355,54.529 C8.355,54.472 8.355,54.416 8.355,54.359 C8.014,54.303 7.673,54.247 7.332,54.190 C7.332,54.134 7.332,54.077 7.332,54.021 C6.991,53.908 6.650,53.795 6.309,53.682 C6.309,53.626 6.309,53.569 6.309,53.513 C6.195,53.513 6.081,53.513 5.968,53.513 C5.968,53.456 5.968,53.400 5.968,53.343 C5.740,53.287 5.513,53.231 5.286,53.174 C5.229,53.061 5.172,52.948 5.115,52.835 C4.888,52.779 4.660,52.722 4.433,52.666 C4.320,52.497 4.206,52.327 4.092,52.158 C3.979,52.158 3.865,52.158 3.751,52.158 C3.637,51.989 3.524,51.819 3.410,51.650 C3.296,51.650 3.183,51.650 3.069,51.650 C3.012,51.537 2.955,51.424 2.899,51.311 C2.614,51.086 2.330,50.860 2.046,50.634 C2.046,50.521 2.046,50.408 2.046,50.295 C1.819,50.126 1.591,49.957 1.364,49.787 C1.307,49.561 1.250,49.336 1.194,49.110 C1.080,49.053 0.966,48.997 0.853,48.940 C0.568,48.150 0.284,47.360 -0.000,46.570 C-0.000,45.779 -0.000,44.989 -0.000,44.199 C0.003,43.280 0.132,42.793 0.341,42.167 C0.341,41.941 0.341,41.715 0.341,41.489 C0.398,41.489 0.455,41.489 0.512,41.489 C0.512,41.376 0.512,41.264 0.512,41.151 C0.568,41.151 0.625,41.151 0.682,41.151 C0.682,40.981 0.682,40.812 0.682,40.643 C0.739,40.643 0.796,40.643 0.853,40.643 C0.909,40.417 0.966,40.191 1.023,39.965 C1.080,39.965 1.137,39.965 1.194,39.965 C1.250,39.739 1.307,39.514 1.364,39.288 C1.478,39.231 1.591,39.175 1.705,39.119 C1.705,39.006 1.705,38.893 1.705,38.780 C1.876,38.667 2.046,38.554 2.217,38.441 C2.217,38.328 2.217,38.215 2.217,38.102 C2.330,38.046 2.444,37.990 2.558,37.933 C2.842,37.594 3.126,37.256 3.410,36.917 C3.524,36.917 3.637,36.917 3.751,36.917 C3.922,36.691 4.092,36.465 4.263,36.240 C4.376,36.240 4.490,36.240 4.604,36.240 C4.661,36.127 4.717,36.014 4.774,35.901 C4.888,35.901 5.002,35.901 5.115,35.901 C8.720,33.535 13.596,32.677 19.608,32.683 C19.608,32.627 19.608,32.571 19.608,32.514 C19.267,32.232 18.926,31.950 18.585,31.667 C18.585,31.554 18.585,31.442 18.585,31.329 C18.472,31.272 18.358,31.216 18.244,31.159 C18.074,30.651 17.903,30.143 17.733,29.635 C17.676,29.635 17.619,29.635 17.562,29.635 C17.562,28.676 17.562,27.716 17.562,26.756 C17.790,26.248 18.017,25.740 18.244,25.232 C17.392,25.232 16.539,25.232 15.687,25.232 C14.607,25.007 13.527,24.781 12.447,24.555 C12.447,24.498 12.447,24.442 12.447,24.386 C11.936,24.273 11.424,24.160 10.912,24.047 C10.912,23.990 10.912,23.934 10.912,23.878 C10.571,23.765 10.230,23.652 9.889,23.539 C9.889,23.482 9.889,23.426 9.889,23.369 C9.776,23.369 9.662,23.369 9.548,23.369 C9.492,23.257 9.435,23.144 9.378,23.031 C9.264,23.031 9.151,23.031 9.037,23.031 C9.037,22.974 9.037,22.918 9.037,22.861 C8.866,22.805 8.696,22.749 8.525,22.692 C8.469,22.579 8.412,22.466 8.355,22.353 C8.241,22.353 8.127,22.353 8.014,22.353 C7.673,21.958 7.332,21.563 6.991,21.168 C6.707,20.942 6.422,20.716 6.138,20.491 C6.138,20.378 6.138,20.265 6.138,20.152 C6.025,20.096 5.911,20.039 5.797,19.983 C5.740,19.813 5.684,19.644 5.627,19.475 C5.570,19.475 5.513,19.475 5.456,19.475 C5.399,19.249 5.343,19.023 5.286,18.797 C5.229,18.797 5.172,18.797 5.115,18.797 C5.115,18.684 5.115,18.571 5.115,18.459 C5.058,18.459 5.002,18.459 4.945,18.459 C4.831,18.120 4.717,17.781 4.604,17.442 C4.547,17.442 4.490,17.442 4.433,17.442 C4.433,17.273 4.433,17.104 4.433,16.934 C4.376,16.934 4.320,16.934 4.263,16.934 C4.206,16.483 4.149,16.031 4.092,15.580 C4.035,15.580 3.978,15.580 3.922,15.580 C3.922,15.128 3.922,14.676 3.922,14.225 C3.865,14.225 3.808,14.225 3.751,14.225 C3.751,13.378 3.751,12.531 3.751,11.685 C3.808,11.685 3.865,11.685 3.922,11.685 C3.978,11.007 4.035,10.330 4.092,9.653 C4.149,9.653 4.206,9.653 4.263,9.653 C4.376,9.145 4.490,8.637 4.604,8.129 C4.661,8.129 4.717,8.129 4.774,8.129 C4.888,7.790 5.002,7.451 5.115,7.112 C5.172,7.112 5.229,7.112 5.286,7.112 C5.286,7.000 5.286,6.887 5.286,6.774 C5.343,6.774 5.399,6.774 5.456,6.774 C5.513,6.604 5.570,6.435 5.627,6.266 C5.740,6.209 5.854,6.153 5.968,6.096 C5.968,5.984 5.968,5.871 5.968,5.758 C6.138,5.645 6.309,5.532 6.479,5.419 C8.341,2.814 11.093,1.576 14.493,0.508 C15.175,0.452 15.857,0.395 16.539,0.339 C16.539,0.282 16.539,0.226 16.539,0.169 C18.585,0.113 20.632,0.056 22.677,-0.000 C27.337,-0.000 31.999,-0.000 36.659,-0.000 ZM24.553,21.168 C24.679,20.726 24.821,20.624 25.065,20.321 C25.121,20.321 25.178,20.321 25.235,20.321 C25.235,20.208 25.235,20.095 25.235,19.983 C25.292,19.983 25.349,19.983 25.406,19.983 C26.200,18.553 26.432,16.987 26.429,14.733 C26.429,14.281 26.429,13.830 26.429,13.378 C26.372,13.378 26.315,13.378 26.258,13.378 C26.258,13.040 26.258,12.701 26.258,12.362 C26.201,12.362 26.144,12.362 26.088,12.362 C26.088,12.136 26.088,11.911 26.088,11.685 C26.031,11.685 25.974,11.685 25.917,11.685 C25.917,11.459 25.917,11.233 25.917,11.007 C25.860,11.007 25.803,11.007 25.747,11.007 C25.747,10.838 25.747,10.669 25.747,10.499 C25.690,10.499 25.633,10.499 25.576,10.499 C25.576,10.330 25.576,10.161 25.576,9.991 C25.519,9.991 25.462,9.991 25.406,9.991 C25.406,9.878 25.406,9.766 25.406,9.653 C25.349,9.653 25.292,9.653 25.235,9.653 C25.235,9.483 25.235,9.314 25.235,9.145 C25.178,9.145 25.121,9.145 25.065,9.145 C25.008,8.919 24.951,8.693 24.894,8.467 C24.837,8.467 24.780,8.467 24.724,8.467 C24.667,8.241 24.610,8.016 24.553,7.790 C24.439,7.733 24.326,7.677 24.212,7.620 C24.212,7.508 24.212,7.395 24.212,7.282 C24.098,7.225 23.985,7.169 23.871,7.112 C23.871,7.000 23.871,6.887 23.871,6.774 C23.757,6.717 23.644,6.661 23.530,6.604 C23.530,6.492 23.530,6.379 23.530,6.266 C23.189,5.984 22.848,5.701 22.507,5.419 C22.223,5.080 21.939,4.742 21.654,4.403 C21.541,4.403 21.427,4.403 21.313,4.403 C21.200,4.234 21.086,4.064 20.972,3.895 C20.631,3.782 20.290,3.669 19.949,3.556 C18.608,2.858 16.917,2.401 15.175,3.048 C15.005,3.048 14.834,3.048 14.664,3.048 C14.664,3.105 14.664,3.161 14.664,3.218 C14.550,3.218 14.436,3.218 14.323,3.218 C14.323,3.274 14.323,3.330 14.323,3.387 C14.095,3.443 13.868,3.500 13.641,3.556 C13.584,3.669 13.527,3.782 13.470,3.895 C13.356,3.895 13.243,3.895 13.129,3.895 C12.959,4.121 12.788,4.347 12.618,4.572 C12.333,4.798 12.049,5.024 11.765,5.250 C11.765,5.363 11.765,5.475 11.765,5.588 C11.651,5.645 11.538,5.701 11.424,5.758 C11.253,6.266 11.083,6.774 10.912,7.282 C10.856,7.282 10.799,7.282 10.742,7.282 C10.742,7.451 10.742,7.621 10.742,7.790 C10.685,7.790 10.628,7.790 10.571,7.790 C10.571,7.959 10.571,8.129 10.571,8.298 C10.515,8.298 10.458,8.298 10.401,8.298 C10.401,8.580 10.401,8.862 10.401,9.145 C9.639,11.708 10.600,14.917 11.594,16.765 C11.708,17.104 11.822,17.442 11.935,17.781 C12.049,17.838 12.163,17.894 12.276,17.950 C12.276,18.063 12.276,18.176 12.276,18.289 C12.390,18.346 12.504,18.402 12.618,18.459 C12.618,18.571 12.618,18.684 12.618,18.797 C12.845,18.967 13.072,19.136 13.300,19.305 C13.754,19.813 14.209,20.321 14.664,20.829 C14.777,20.829 14.891,20.829 15.005,20.829 C15.118,20.999 15.232,21.168 15.346,21.337 C15.459,21.337 15.573,21.337 15.687,21.337 C15.687,21.394 15.687,21.450 15.687,21.507 C15.800,21.507 15.914,21.507 16.028,21.507 C16.028,21.563 16.028,21.620 16.028,21.676 C16.141,21.676 16.255,21.676 16.369,21.676 C16.369,21.732 16.369,21.789 16.369,21.845 C16.482,21.845 16.596,21.845 16.710,21.845 C16.710,21.902 16.710,21.958 16.710,22.015 C16.823,22.015 16.937,22.015 17.051,22.015 C17.051,22.071 17.051,22.128 17.051,22.184 C17.392,22.241 17.733,22.297 18.074,22.353 C18.644,22.563 20.482,22.994 21.484,22.692 C21.484,22.636 21.484,22.579 21.484,22.523 C21.711,22.523 21.939,22.523 22.166,22.523 C22.166,22.466 22.166,22.410 22.166,22.353 C22.336,22.353 22.507,22.353 22.677,22.353 C22.677,22.297 22.677,22.241 22.677,22.184 C22.905,22.128 23.132,22.071 23.359,22.015 C23.359,21.958 23.359,21.902 23.359,21.845 C23.473,21.845 23.587,21.845 23.700,21.845 C23.700,21.789 23.700,21.732 23.700,21.676 C24.006,21.434 24.108,21.292 24.553,21.168 ZM17.051,34.716 C17.051,34.772 17.051,34.828 17.051,34.885 C16.653,34.885 16.255,34.885 15.857,34.885 C15.857,34.941 15.857,34.998 15.857,35.054 C15.630,35.054 15.402,35.054 15.175,35.054 C15.175,35.111 15.175,35.167 15.175,35.224 C14.948,35.224 14.720,35.224 14.493,35.224 C14.493,35.280 14.493,35.336 14.493,35.393 C14.323,35.393 14.152,35.393 13.982,35.393 C13.982,35.449 13.982,35.506 13.982,35.562 C13.811,35.562 13.641,35.562 13.470,35.562 C13.470,35.619 13.470,35.675 13.470,35.732 C13.300,35.732 13.129,35.732 12.959,35.732 C12.959,35.788 12.959,35.845 12.959,35.901 C12.731,35.957 12.504,36.014 12.276,36.070 C12.276,36.127 12.276,36.183 12.276,36.240 C12.163,36.240 12.049,36.240 11.935,36.240 C11.935,36.296 11.935,36.353 11.935,36.409 C11.822,36.409 11.708,36.409 11.594,36.409 C11.594,36.465 11.594,36.522 11.594,36.578 C11.481,36.578 11.367,36.578 11.253,36.578 C11.253,36.635 11.253,36.691 11.253,36.748 C11.140,36.748 11.026,36.748 10.912,36.748 C10.856,36.861 10.799,36.973 10.742,37.086 C10.628,37.086 10.515,37.086 10.401,37.086 C10.344,37.199 10.287,37.312 10.230,37.425 C10.117,37.425 10.003,37.425 9.889,37.425 C9.662,37.707 9.435,37.990 9.207,38.272 C8.753,38.667 8.298,39.062 7.843,39.457 C7.843,39.570 7.843,39.683 7.843,39.796 C7.730,39.852 7.616,39.909 7.502,39.965 C7.502,40.078 7.502,40.191 7.502,40.304 C7.445,40.304 7.389,40.304 7.332,40.304 C7.218,40.643 7.104,40.981 6.991,41.320 C6.934,41.320 6.877,41.320 6.820,41.320 C6.820,41.489 6.820,41.659 6.820,41.828 C6.763,41.828 6.707,41.828 6.650,41.828 C6.650,42.054 6.650,42.280 6.650,42.505 C6.593,42.505 6.536,42.505 6.479,42.505 C5.944,44.304 7.267,47.450 7.843,48.263 C8.071,48.432 8.298,48.602 8.525,48.771 C8.525,48.884 8.525,48.997 8.525,49.110 C8.639,49.166 8.753,49.223 8.866,49.279 C9.037,49.505 9.207,49.731 9.378,49.957 C9.492,49.957 9.605,49.957 9.719,49.957 C9.833,50.126 9.946,50.295 10.060,50.465 C10.174,50.465 10.287,50.465 10.401,50.465 C10.458,50.577 10.515,50.690 10.571,50.803 C10.685,50.803 10.799,50.803 10.912,50.803 C10.969,50.916 11.026,51.029 11.083,51.142 C11.310,51.198 11.538,51.255 11.765,51.311 C11.765,51.368 11.765,51.424 11.765,51.481 C11.992,51.537 12.220,51.594 12.447,51.650 C12.447,51.706 12.447,51.763 12.447,51.819 C12.617,51.819 12.788,51.819 12.959,51.819 C14.586,52.463 16.393,52.839 18.756,52.835 C19.210,52.835 19.665,52.835 20.120,52.835 C20.120,52.779 20.120,52.722 20.120,52.666 C20.631,52.666 21.143,52.666 21.654,52.666 C21.654,52.610 21.654,52.553 21.654,52.497 C22.223,52.440 22.791,52.384 23.359,52.327 C23.359,52.271 23.359,52.214 23.359,52.158 C23.587,52.158 23.814,52.158 24.041,52.158 C24.041,52.102 24.041,52.045 24.041,51.989 C24.553,51.876 25.065,51.763 25.576,51.650 C25.576,51.594 25.576,51.537 25.576,51.481 C25.917,51.368 26.258,51.255 26.599,51.142 C26.599,51.085 26.599,51.029 26.599,50.973 C26.713,50.973 26.826,50.973 26.940,50.973 C26.997,50.860 27.054,50.747 27.111,50.634 C27.224,50.634 27.338,50.634 27.452,50.634 C27.508,50.521 27.565,50.408 27.622,50.295 C27.736,50.295 27.849,50.295 27.963,50.295 C28.077,50.126 28.190,49.957 28.304,49.787 C28.860,49.245 29.588,48.756 30.009,48.094 C30.123,47.755 30.237,47.416 30.350,47.078 C30.407,47.078 30.464,47.078 30.521,47.078 C30.521,46.965 30.521,46.852 30.521,46.739 C30.578,46.739 30.634,46.739 30.691,46.739 C30.748,46.287 30.805,45.836 30.862,45.384 C30.919,45.384 30.975,45.384 31.032,45.384 C31.032,44.425 31.032,43.465 31.032,42.505 C30.975,42.505 30.919,42.505 30.862,42.505 C30.862,42.280 30.862,42.054 30.862,41.828 C30.805,41.828 30.748,41.828 30.691,41.828 C30.691,41.659 30.691,41.489 30.691,41.320 C30.634,41.320 30.578,41.320 30.521,41.320 C30.521,41.207 30.521,41.094 30.521,40.981 C30.464,40.981 30.407,40.981 30.350,40.981 C30.293,40.699 30.237,40.417 30.180,40.135 C30.123,40.135 30.066,40.135 30.009,40.135 C29.952,39.965 29.896,39.796 29.839,39.627 C29.725,39.570 29.611,39.514 29.498,39.457 C29.498,39.344 29.498,39.231 29.498,39.119 C29.270,38.949 29.043,38.780 28.816,38.610 C28.816,38.498 28.816,38.385 28.816,38.272 C28.702,38.215 28.588,38.159 28.475,38.102 C28.475,38.046 28.475,37.990 28.475,37.933 C28.361,37.933 28.247,37.933 28.134,37.933 C27.906,37.651 27.679,37.369 27.452,37.086 C27.338,37.086 27.224,37.086 27.111,37.086 C27.054,36.973 26.997,36.861 26.940,36.748 C26.826,36.748 26.713,36.748 26.599,36.748 C26.542,36.635 26.485,36.522 26.429,36.409 C25.917,36.240 25.405,36.070 24.894,35.901 C24.894,35.845 24.894,35.788 24.894,35.732 C24.780,35.732 24.667,35.732 24.553,35.732 C24.553,35.675 24.553,35.619 24.553,35.562 C24.383,35.562 24.212,35.562 24.041,35.562 C22.005,34.761 19.974,34.697 17.051,34.716 Z"/>
</svg>