<svg id="linkedin-letters" xmlns="http://www.w3.org/2000/svg" width="16.321" height="15.599" viewBox="0 0 16.321 15.599">
  <g id="Group_26" data-name="Group 26">
    <rect id="Rectangle_50" data-name="Rectangle 50" width="3.507" height="10.53" transform="translate(0.202 5.069)" fill="#fff"/>
    <path id="Path_17" data-name="Path 17" d="M161.171,140.537a3.774,3.774,0,0,0-2.922-1.206,4.212,4.212,0,0,0-1.217.165,2.761,2.761,0,0,0-.924.462,3.959,3.959,0,0,0-1.015,1.115v-1.5h-3.5l.011.51q.011.51.011,3.145t-.021,6.875h3.5v-5.876a2.566,2.566,0,0,1,.117-.861,2.257,2.257,0,0,1,.675-.908,1.72,1.72,0,0,1,1.121-.367,1.512,1.512,0,0,1,1.344.632,3.074,3.074,0,0,1,.43,1.748v5.632h3.5V144.07A5.059,5.059,0,0,0,161.171,140.537Z" transform="translate(-145.955 -134.507)" fill="#fff"/>
    <path id="Path_18" data-name="Path 18" d="M1.976,9.708a2,2,0,0,0-1.429.515A1.711,1.711,0,0,0,0,11.525a1.741,1.741,0,0,0,.531,1.3,1.918,1.918,0,0,0,1.4.521h.021a2,2,0,0,0,1.44-.521,1.682,1.682,0,0,0,.537-1.3,1.772,1.772,0,0,0-.542-1.3A1.943,1.943,0,0,0,1.976,9.708Z" transform="translate(0 -9.708)" fill="#fff"/>
  </g>
</svg>
