<svg xmlns="http://www.w3.org/2000/svg" width="20.254" height="20.254" viewBox="0 0 20.254 20.254">
  <g id="noun_Arrow_712729" transform="translate(-12)">
    <g id="Group_91" data-name="Group 91" transform="translate(32.254 0) rotate(90)">
      <g id="Group_90" data-name="Group 90" transform="translate(0)">
        <path id="Path_1033" data-name="Path 1033" d="M7.858.291a.985.985,0,0,0-1.4,0L.247,6.578A.8.8,0,1,0,1.372,7.7L6.094,2.982c.157-.157.283-.1.283.114V13.5a.8.8,0,1,0,1.591,0V3.1c0-.219.124-.274.283-.114L12.973,7.7A.8.8,0,1,0,14.1,6.578Z" transform="translate(0 10.143) rotate(-45)" fill="#304fff" fill-rule="evenodd"/>
      </g>
    </g>
  </g>
</svg>
