<svg xmlns="http://www.w3.org/2000/svg" width="15.298" height="15.298" viewBox="0 0 15.298 15.298">
  <g id="noun_Share_1263376" transform="translate(33.298 33.298) rotate(180)">
    <g id="Group_141" data-name="Group 141" transform="translate(18 18)">
      <path id="Path_1039" data-name="Path 1039" d="M20.39,970.362a2.39,2.39,0,0,1,2.39,2.39,2.337,2.337,0,0,1-.037.373l6.447,3.219a2.394,2.394,0,1,1,0,3.324l-6.447,3.22a2.432,2.432,0,0,1,.037.381,2.4,2.4,0,1,1-.672-1.658l6.439-3.219a2.347,2.347,0,0,1-.03-.381,2.436,2.436,0,0,1,.03-.381l-6.439-3.22a2.389,2.389,0,1,1-1.718-4.049Z" transform="translate(-18 -970.362)" fill="#304fff"/>
    </g>
  </g>
</svg>
