<svg xmlns="http://www.w3.org/2000/svg" width="14.39" height="13.765" viewBox="0 0 14.39 13.765">
  <g id="Group_159" data-name="Group 159" transform="translate(-563.7 -640.795)">
    <path id="Path_1042" data-name="Path 1042" d="M58.91,29.736a.75.75,0,0,0,1.079,0l2.158-2.158a.763.763,0,1,0-1.038-1.12l-.041.041-.855.855V16.974a.774.774,0,0,0-1.547,0V27.355l-.835-.855a.763.763,0,1,0-1.12,1.038l.041.041Z" transform="translate(515.701 624.595)" fill="#304fff"/>
    <path id="Path_1043" data-name="Path 1043" d="M15.107,59.807H20.4a.408.408,0,0,0,.407-.407V54.107A.408.408,0,0,0,20.4,53.7H15.107a.408.408,0,0,0-.407.407V59.4A.4.4,0,0,0,15.107,59.807Zm1.12-4.58H19.28V58.28H16.227Z" transform="translate(549 594.728)" fill="#304fff"/>
    <path id="Path_1044" data-name="Path 1044" d="M15.107,22.307H20.4a.408.408,0,0,0,.407-.407V16.607A.408.408,0,0,0,20.4,16.2H15.107a.408.408,0,0,0-.407.407V21.9A.4.4,0,0,0,15.107,22.307Zm1.12-4.58H19.28V20.78H16.227Z" transform="translate(549 624.595)" fill="#304fff"/>
  </g>
</svg>
