<svg 
 xmlns="http://www.w3.org/2000/svg"
 xmlns:xlink="http://www.w3.org/1999/xlink"
 width="17px" height="30px">
<path fill-rule="evenodd"  fill="rgb(255, 255, 255)"
 d="M5.810,0.000 C7.245,0.000 8.679,0.000 10.114,0.000 C10.114,2.149 10.114,4.298 10.114,6.447 C12.337,6.447 14.561,6.447 16.785,6.447 C16.785,8.238 16.785,10.029 16.785,11.820 C14.561,11.820 12.337,11.820 10.114,11.820 C10.102,15.389 10.167,19.334 10.329,22.565 C10.759,22.924 11.190,23.282 11.620,23.640 C12.266,23.712 12.911,23.783 13.557,23.855 C14.705,23.497 15.852,23.139 17.000,22.780 C17.000,24.858 17.000,26.936 17.000,29.013 C16.354,29.228 15.709,29.443 15.063,29.657 C14.633,29.657 14.202,29.657 13.772,29.657 C13.772,29.729 13.772,29.801 13.772,29.872 C12.429,30.251 9.426,29.711 8.608,29.443 C8.321,29.443 8.034,29.443 7.747,29.443 C7.747,29.371 7.747,29.299 7.747,29.228 C7.532,29.228 7.316,29.228 7.101,29.228 C7.101,29.156 7.101,29.084 7.101,29.013 C6.814,28.941 6.527,28.869 6.241,28.798 C6.241,28.726 6.241,28.655 6.241,28.583 C6.097,28.583 5.954,28.583 5.810,28.583 C5.667,28.368 5.523,28.153 5.380,27.938 C5.236,27.938 5.093,27.938 4.949,27.938 C4.878,27.795 4.806,27.652 4.734,27.508 C4.662,27.508 4.591,27.508 4.519,27.508 C2.286,24.450 2.973,17.089 3.013,11.820 C2.009,11.820 1.004,11.820 -0.000,11.820 C-0.000,10.029 -0.000,8.238 -0.000,6.447 C1.544,6.457 1.461,6.320 2.367,5.803 C2.511,5.803 2.654,5.803 2.797,5.803 C2.941,5.588 3.084,5.373 3.228,5.158 C3.371,5.158 3.515,5.158 3.658,5.158 C4.837,4.303 5.504,1.809 5.810,0.000 Z"/>
</svg>