<svg xmlns="http://www.w3.org/2000/svg" width="19.479" height="15.827" viewBox="0 0 19.479 15.827">
  <g id="twitter" transform="translate(0)">
    <g id="Group_25" data-name="Group 25">
      <path id="Path_16" data-name="Path 16" d="M19.479,49.874a8.326,8.326,0,0,1-2.3.631A3.971,3.971,0,0,0,18.935,48.3a7.981,7.981,0,0,1-2.532.967,3.993,3.993,0,0,0-6.908,2.731,4.112,4.112,0,0,0,.093.911,11.3,11.3,0,0,1-8.231-4.177,3.994,3.994,0,0,0,1.227,5.337,3.944,3.944,0,0,1-1.8-.492v.044a4.012,4.012,0,0,0,3.2,3.924,3.986,3.986,0,0,1-1.047.131,3.531,3.531,0,0,1-.756-.068,4.031,4.031,0,0,0,3.731,2.782,8.024,8.024,0,0,1-4.951,1.7A7.481,7.481,0,0,1,0,62.035a11.242,11.242,0,0,0,6.126,1.792A11.288,11.288,0,0,0,17.492,52.463c0-.177-.006-.347-.015-.516A7.967,7.967,0,0,0,19.479,49.874Z" transform="translate(0 -48)" fill="#fff"/>
    </g>
  </g>
</svg>
