<svg id="youtube" xmlns="http://www.w3.org/2000/svg" width="22.689" height="15.599" viewBox="0 0 22.689 15.599">
  <g id="Group_27" data-name="Group 27">
    <path id="Path_19" data-name="Path 19" d="M21.725,81.5c-.615-1.095-1.283-1.3-2.643-1.373-1.359-.092-4.775-.13-7.734-.13s-6.383.038-7.74.129S1.581,80.407.96,81.5,0,84.48,0,87.8v.011c0,3.3.326,5.2.96,6.281s1.289,1.293,2.646,1.385,4.776.126,7.741.126,6.376-.047,7.736-.125,2.028-.291,2.643-1.385c.64-1.082.963-2.979.963-6.281V87.8C22.689,84.48,22.366,82.6,21.725,81.5ZM8.508,92.054V83.545L15.6,87.8Z" transform="translate(0 -80)" fill="#fff"/>
  </g>
</svg>
