<svg 
 xmlns="http://www.w3.org/2000/svg"
 xmlns:xlink="http://www.w3.org/1999/xlink"
 width="99px" height="30px">
<path fill-rule="evenodd"  fill="rgb(35, 42, 58)"
 d="M9.019,6.720 C9.019,6.075 9.019,5.430 9.019,4.785 C8.946,4.559 8.778,4.356 8.714,4.072 C8.578,3.970 8.442,3.868 8.306,3.766 C8.306,3.732 8.306,3.698 8.306,3.664 C8.239,3.664 8.171,3.664 8.103,3.664 C8.103,3.631 8.103,3.597 8.103,3.563 C8.035,3.563 7.967,3.563 7.899,3.563 C7.899,3.529 7.899,3.495 7.899,3.461 C7.797,3.461 7.695,3.461 7.594,3.461 C7.594,3.427 7.594,3.393 7.594,3.359 C7.134,3.212 5.906,3.431 5.659,3.563 C5.625,3.630 5.591,3.698 5.557,3.766 C5.489,3.766 5.421,3.766 5.353,3.766 C5.319,3.834 5.285,3.902 5.251,3.970 C5.115,4.072 4.980,4.174 4.844,4.276 C4.844,4.344 4.844,4.411 4.844,4.479 C4.776,4.513 4.708,4.547 4.640,4.581 C4.640,4.683 4.640,4.785 4.640,4.887 C4.606,4.887 4.572,4.887 4.538,4.887 C4.373,5.329 4.602,5.320 4.233,5.600 C4.233,5.634 4.233,5.668 4.233,5.702 C3.893,5.702 3.554,5.702 3.214,5.702 C3.000,5.516 2.635,5.695 2.298,5.600 C2.298,5.566 2.298,5.532 2.298,5.498 C1.958,5.498 1.619,5.498 1.279,5.498 C1.279,5.464 1.279,5.430 1.279,5.396 C1.076,5.362 0.872,5.328 0.668,5.294 C0.579,5.058 0.565,4.845 0.566,4.479 C0.600,4.479 0.634,4.479 0.668,4.479 C0.702,4.242 0.736,4.004 0.770,3.766 C0.804,3.766 0.838,3.766 0.872,3.766 C0.940,3.563 1.008,3.359 1.076,3.155 C1.110,3.155 1.144,3.155 1.178,3.155 C1.211,3.019 1.245,2.883 1.279,2.748 C1.687,2.306 2.094,1.865 2.501,1.423 C2.569,1.423 2.637,1.423 2.705,1.423 C2.739,1.355 2.773,1.288 2.807,1.220 C2.875,1.220 2.943,1.220 3.011,1.220 C3.045,1.152 3.079,1.084 3.113,1.016 C3.180,1.016 3.248,1.016 3.316,1.016 C3.316,0.982 3.316,0.948 3.316,0.914 C3.384,0.914 3.452,0.914 3.520,0.914 C3.520,0.880 3.520,0.846 3.520,0.812 C3.622,0.812 3.724,0.812 3.825,0.812 C3.825,0.778 3.825,0.744 3.825,0.710 C3.893,0.710 3.961,0.710 4.029,0.710 C4.029,0.676 4.029,0.642 4.029,0.608 C4.742,0.439 5.455,0.269 6.168,0.099 C6.851,-0.093 8.684,0.162 9.121,0.303 C9.257,0.303 9.393,0.303 9.529,0.303 C9.529,0.337 9.529,0.371 9.529,0.405 C9.868,0.473 10.208,0.541 10.547,0.608 C10.547,0.642 10.547,0.676 10.547,0.710 C10.751,0.778 10.954,0.846 11.158,0.914 C11.192,0.982 11.226,1.050 11.260,1.118 C11.328,1.118 11.396,1.118 11.464,1.118 C11.498,1.186 11.531,1.254 11.565,1.322 C11.633,1.322 11.701,1.322 11.769,1.322 C11.905,1.491 12.041,1.661 12.176,1.831 C12.278,1.899 12.380,1.967 12.482,2.035 C13.659,3.701 13.399,6.951 13.399,9.776 C13.399,10.693 13.399,11.610 13.399,12.527 C13.433,12.527 13.466,12.527 13.500,12.527 C13.500,12.663 13.500,12.798 13.500,12.934 C13.534,12.934 13.568,12.934 13.602,12.934 C13.670,13.138 13.738,13.342 13.806,13.545 C13.840,13.545 13.874,13.545 13.908,13.545 C13.908,13.613 13.908,13.681 13.908,13.749 C13.976,13.783 14.044,13.817 14.111,13.851 C14.111,13.919 14.111,13.987 14.111,14.055 C14.179,14.089 14.247,14.123 14.315,14.157 C14.483,14.355 14.579,14.547 14.621,14.870 C14.655,14.870 14.689,14.870 14.723,14.870 C14.723,14.904 14.723,14.938 14.723,14.972 C14.689,14.972 14.655,14.972 14.621,14.972 C14.621,15.073 14.621,15.175 14.621,15.277 C14.587,15.277 14.553,15.277 14.519,15.277 C14.380,15.444 14.164,15.534 14.010,15.685 C13.942,15.786 13.874,15.888 13.806,15.990 C13.738,15.990 13.670,15.990 13.602,15.990 C13.433,16.194 13.263,16.398 13.093,16.601 C13.025,16.601 12.957,16.601 12.889,16.601 C12.686,16.839 12.482,17.077 12.278,17.314 C12.108,17.432 12.046,17.314 11.871,17.518 C11.701,17.484 11.531,17.450 11.362,17.416 C11.294,17.315 11.226,17.213 11.158,17.111 C10.853,16.839 10.547,16.567 10.241,16.296 C10.241,16.228 10.241,16.160 10.241,16.092 C10.174,16.058 10.106,16.024 10.038,15.990 C9.877,15.753 9.841,15.554 9.630,15.379 C9.630,15.413 9.630,15.447 9.630,15.481 C9.359,15.685 9.087,15.888 8.816,16.092 C8.748,16.194 8.680,16.296 8.612,16.398 C8.544,16.398 8.476,16.398 8.408,16.398 C8.340,16.500 8.273,16.601 8.205,16.703 C8.069,16.737 7.933,16.771 7.797,16.805 C7.763,16.873 7.729,16.941 7.695,17.009 C7.186,17.179 6.677,17.348 6.168,17.518 C5.489,17.552 4.810,17.586 4.131,17.620 C4.131,17.586 4.131,17.552 4.131,17.518 C3.893,17.518 3.656,17.518 3.418,17.518 C3.418,17.484 3.418,17.450 3.418,17.416 C3.282,17.416 3.146,17.416 3.011,17.416 C3.011,17.382 3.011,17.348 3.011,17.314 C2.909,17.314 2.807,17.314 2.705,17.314 C2.705,17.281 2.705,17.247 2.705,17.213 C2.637,17.213 2.569,17.213 2.501,17.213 C2.501,17.179 2.501,17.145 2.501,17.111 C2.366,17.077 2.230,17.043 2.094,17.009 C2.060,16.941 2.026,16.873 1.992,16.805 C1.924,16.805 1.856,16.805 1.789,16.805 C1.721,16.703 1.653,16.601 1.585,16.500 C1.517,16.500 1.449,16.500 1.381,16.500 C1.381,16.466 1.381,16.432 1.381,16.398 C1.313,16.364 1.245,16.330 1.178,16.296 C1.178,16.228 1.178,16.160 1.178,16.092 C1.042,15.990 0.906,15.888 0.770,15.787 C0.770,15.719 0.770,15.651 0.770,15.583 C0.736,15.583 0.702,15.583 0.668,15.583 C0.600,15.379 0.533,15.175 0.465,14.972 C0.431,14.972 0.397,14.972 0.363,14.972 C0.329,14.768 0.295,14.564 0.261,14.360 C0.133,14.003 -0.114,12.507 0.057,11.916 C0.091,11.916 0.125,11.916 0.159,11.916 C0.227,11.508 0.295,11.101 0.363,10.693 C0.397,10.693 0.431,10.693 0.465,10.693 C0.533,10.489 0.600,10.286 0.668,10.082 C0.702,10.082 0.736,10.082 0.770,10.082 C0.770,10.014 0.770,9.946 0.770,9.878 C0.838,9.844 0.906,9.810 0.974,9.776 C0.974,9.709 0.974,9.641 0.974,9.573 C1.076,9.505 1.178,9.437 1.279,9.369 C1.279,9.301 1.279,9.233 1.279,9.165 C1.313,9.165 1.347,9.165 1.381,9.165 C1.483,9.029 1.585,8.894 1.687,8.758 C1.755,8.758 1.823,8.758 1.890,8.758 C1.992,8.622 2.094,8.486 2.196,8.350 C2.264,8.350 2.332,8.350 2.400,8.350 C2.434,8.282 2.468,8.214 2.501,8.147 C2.637,8.113 2.773,8.079 2.909,8.045 C2.909,8.011 2.909,7.977 2.909,7.943 C3.045,7.909 3.180,7.875 3.316,7.841 C3.316,7.807 3.316,7.773 3.316,7.739 C3.520,7.705 3.724,7.671 3.927,7.637 C3.927,7.603 3.927,7.569 3.927,7.535 C4.029,7.535 4.131,7.535 4.233,7.535 C4.233,7.501 4.233,7.467 4.233,7.433 C4.335,7.433 4.437,7.433 4.538,7.433 C4.538,7.400 4.538,7.366 4.538,7.332 C6.032,7.128 7.526,6.924 9.019,6.720 ZM49.145,6.720 C49.145,6.075 49.145,5.430 49.145,4.785 C49.072,4.559 48.903,4.356 48.840,4.072 C48.704,3.970 48.568,3.868 48.432,3.766 C48.432,3.732 48.432,3.698 48.432,3.664 C48.364,3.664 48.296,3.664 48.229,3.664 C48.229,3.631 48.229,3.597 48.229,3.563 C48.161,3.563 48.093,3.563 48.025,3.563 C48.025,3.529 48.025,3.495 48.025,3.461 C47.923,3.461 47.821,3.461 47.719,3.461 C47.719,3.427 47.719,3.393 47.719,3.359 C47.259,3.212 46.032,3.431 45.784,3.563 C45.750,3.630 45.716,3.698 45.683,3.766 C45.615,3.766 45.547,3.766 45.479,3.766 C45.445,3.834 45.411,3.902 45.377,3.970 C45.241,4.072 45.105,4.174 44.970,4.276 C44.970,4.344 44.970,4.411 44.970,4.479 C44.902,4.513 44.834,4.547 44.766,4.581 C44.766,4.683 44.766,4.785 44.766,4.887 C44.732,4.887 44.698,4.887 44.664,4.887 C44.499,5.329 44.728,5.320 44.359,5.600 C44.359,5.634 44.359,5.668 44.359,5.702 C44.019,5.702 43.680,5.702 43.340,5.702 C43.126,5.516 42.761,5.695 42.424,5.600 C42.424,5.566 42.424,5.532 42.424,5.498 C42.084,5.498 41.745,5.498 41.405,5.498 C41.405,5.464 41.405,5.430 41.405,5.396 C41.201,5.362 40.998,5.328 40.794,5.294 C40.705,5.058 40.690,4.845 40.692,4.479 C40.726,4.479 40.760,4.479 40.794,4.479 C40.828,4.242 40.862,4.004 40.896,3.766 C40.930,3.766 40.964,3.766 40.998,3.766 C41.066,3.563 41.134,3.359 41.201,3.155 C41.235,3.155 41.269,3.155 41.303,3.155 C41.337,3.019 41.371,2.883 41.405,2.748 C41.812,2.306 42.220,1.865 42.627,1.423 C42.695,1.423 42.763,1.423 42.831,1.423 C42.865,1.355 42.899,1.288 42.933,1.220 C43.001,1.220 43.069,1.220 43.136,1.220 C43.170,1.152 43.204,1.084 43.238,1.016 C43.306,1.016 43.374,1.016 43.442,1.016 C43.442,0.982 43.442,0.948 43.442,0.914 C43.510,0.914 43.578,0.914 43.646,0.914 C43.646,0.880 43.646,0.846 43.646,0.812 C43.748,0.812 43.849,0.812 43.951,0.812 C43.951,0.778 43.951,0.744 43.951,0.710 C44.019,0.710 44.087,0.710 44.155,0.710 C44.155,0.676 44.155,0.642 44.155,0.608 C44.257,0.608 44.359,0.608 44.460,0.608 C45.857,0.054 48.061,-0.132 49.654,0.405 C49.994,0.473 50.333,0.541 50.673,0.608 C50.673,0.642 50.673,0.676 50.673,0.710 C50.809,0.744 50.944,0.778 51.080,0.812 C51.080,0.846 51.080,0.880 51.080,0.914 C51.148,0.914 51.216,0.914 51.284,0.914 C51.318,0.982 51.352,1.050 51.386,1.118 C51.454,1.118 51.521,1.118 51.589,1.118 C51.623,1.186 51.657,1.254 51.691,1.322 C51.759,1.322 51.827,1.322 51.895,1.322 C51.963,1.423 52.031,1.525 52.099,1.627 C52.268,1.763 52.438,1.899 52.608,2.035 C52.608,2.103 52.608,2.170 52.608,2.238 C52.676,2.272 52.744,2.306 52.811,2.340 C52.811,2.408 52.811,2.476 52.811,2.544 C52.845,2.544 52.879,2.544 52.913,2.544 C52.981,2.748 53.049,2.951 53.117,3.155 C53.151,3.155 53.185,3.155 53.219,3.155 C53.253,3.427 53.287,3.698 53.321,3.970 C53.355,3.970 53.389,3.970 53.423,3.970 C53.423,4.344 53.423,4.717 53.423,5.091 C53.456,5.091 53.490,5.091 53.524,5.091 C53.524,6.924 53.524,8.758 53.524,10.591 C53.524,11.236 53.524,11.882 53.524,12.527 C53.558,12.527 53.592,12.527 53.626,12.527 C53.626,12.663 53.626,12.798 53.626,12.934 C53.660,12.934 53.694,12.934 53.728,12.934 C53.796,13.138 53.864,13.342 53.932,13.545 C53.966,13.545 54.000,13.545 54.034,13.545 C54.034,13.613 54.034,13.681 54.034,13.749 C54.101,13.783 54.169,13.817 54.237,13.851 C54.237,13.919 54.237,13.987 54.237,14.055 C54.305,14.089 54.373,14.123 54.441,14.157 C54.608,14.355 54.704,14.547 54.746,14.870 C54.780,14.870 54.814,14.870 54.848,14.870 C54.848,14.904 54.848,14.938 54.848,14.972 C54.814,14.972 54.780,14.972 54.746,14.972 C54.746,15.073 54.746,15.175 54.746,15.277 C54.713,15.277 54.679,15.277 54.645,15.277 C54.506,15.444 54.290,15.534 54.135,15.685 C54.068,15.786 54.000,15.888 53.932,15.990 C53.864,15.990 53.796,15.990 53.728,15.990 C53.558,16.194 53.389,16.398 53.219,16.601 C53.151,16.601 53.083,16.601 53.015,16.601 C52.811,16.839 52.608,17.077 52.404,17.314 C52.234,17.432 52.172,17.314 51.997,17.518 C51.174,17.363 50.178,16.078 49.858,15.379 C49.612,15.524 49.525,15.761 49.349,15.888 C49.281,15.888 49.213,15.888 49.145,15.888 C49.009,16.058 48.874,16.228 48.738,16.398 C48.670,16.398 48.602,16.398 48.534,16.398 C48.466,16.500 48.398,16.601 48.330,16.703 C48.195,16.737 48.059,16.771 47.923,16.805 C47.889,16.873 47.855,16.941 47.821,17.009 C47.651,17.043 47.482,17.077 47.312,17.111 C47.312,17.145 47.312,17.179 47.312,17.213 C47.244,17.213 47.176,17.213 47.108,17.213 C47.108,17.247 47.108,17.281 47.108,17.314 C46.973,17.314 46.837,17.314 46.701,17.314 C46.701,17.348 46.701,17.382 46.701,17.416 C46.565,17.416 46.429,17.416 46.294,17.416 C46.294,17.450 46.294,17.484 46.294,17.518 C45.988,17.518 45.682,17.518 45.377,17.518 C45.377,17.552 45.377,17.586 45.377,17.620 C44.851,17.767 43.883,17.526 43.544,17.416 C43.306,17.382 43.069,17.348 42.831,17.314 C42.831,17.281 42.831,17.247 42.831,17.213 C42.695,17.179 42.559,17.145 42.424,17.111 C42.424,17.077 42.424,17.043 42.424,17.009 C42.356,17.009 42.288,17.009 42.220,17.009 C42.186,16.941 42.152,16.873 42.118,16.805 C42.050,16.805 41.982,16.805 41.914,16.805 C41.846,16.703 41.779,16.601 41.711,16.500 C41.643,16.500 41.575,16.500 41.507,16.500 C41.473,16.432 41.439,16.364 41.405,16.296 C41.371,16.296 41.337,16.296 41.303,16.296 C41.303,16.228 41.303,16.160 41.303,16.092 C41.201,16.024 41.100,15.956 40.998,15.888 C40.998,15.820 40.998,15.753 40.998,15.685 C40.930,15.651 40.862,15.617 40.794,15.583 C40.794,15.515 40.794,15.447 40.794,15.379 C40.760,15.379 40.726,15.379 40.692,15.379 C40.658,15.243 40.624,15.107 40.590,14.972 C40.556,14.972 40.523,14.972 40.489,14.972 C40.489,14.870 40.489,14.768 40.489,14.666 C40.455,14.666 40.421,14.666 40.387,14.666 C40.387,14.530 40.387,14.394 40.387,14.259 C40.353,14.259 40.319,14.259 40.285,14.259 C40.285,14.089 40.285,13.919 40.285,13.749 C40.251,13.749 40.217,13.749 40.183,13.749 C39.991,13.082 40.318,11.084 40.489,10.693 C40.523,10.693 40.556,10.693 40.590,10.693 C40.624,10.557 40.658,10.422 40.692,10.286 C40.726,10.286 40.760,10.286 40.794,10.286 C40.828,10.150 40.862,10.014 40.896,9.878 C40.964,9.844 41.032,9.810 41.100,9.776 C41.100,9.709 41.100,9.641 41.100,9.573 C41.201,9.505 41.303,9.437 41.405,9.369 C41.405,9.301 41.405,9.233 41.405,9.165 C41.439,9.165 41.473,9.165 41.507,9.165 C41.609,9.029 41.711,8.894 41.813,8.758 C41.880,8.758 41.948,8.758 42.016,8.758 C42.118,8.622 42.220,8.486 42.322,8.350 C42.458,8.316 42.593,8.282 42.729,8.248 C42.763,8.181 42.797,8.113 42.831,8.045 C43.136,7.943 43.442,7.841 43.748,7.739 C43.748,7.705 43.748,7.671 43.748,7.637 C43.849,7.637 43.951,7.637 44.053,7.637 C44.053,7.603 44.053,7.569 44.053,7.535 C44.155,7.535 44.257,7.535 44.359,7.535 C44.359,7.501 44.359,7.467 44.359,7.433 C44.460,7.433 44.562,7.433 44.664,7.433 C44.664,7.400 44.664,7.366 44.664,7.332 C44.800,7.332 44.936,7.332 45.071,7.332 C45.071,7.298 45.071,7.264 45.071,7.230 C46.429,7.060 47.787,6.890 49.145,6.720 ZM24.601,0.201 C25.442,0.189 26.190,0.325 26.740,0.608 C26.808,0.608 26.876,0.608 26.944,0.608 C26.944,0.642 26.944,0.676 26.944,0.710 C27.045,0.744 27.147,0.778 27.249,0.812 C27.283,0.880 27.317,0.948 27.351,1.016 C27.419,1.016 27.487,1.016 27.555,1.016 C27.656,1.152 27.758,1.288 27.860,1.423 C27.928,1.457 27.996,1.491 28.064,1.525 C28.064,1.593 28.064,1.661 28.064,1.729 C28.166,1.797 28.268,1.865 28.369,1.933 C28.535,2.173 28.816,2.744 28.879,3.053 C28.994,2.967 28.893,3.066 28.980,2.951 C29.183,2.772 29.066,2.753 29.184,2.544 C29.218,2.544 29.252,2.544 29.286,2.544 C29.286,2.476 29.286,2.408 29.286,2.340 C29.320,2.340 29.354,2.340 29.388,2.340 C29.422,2.238 29.456,2.136 29.490,2.035 C29.558,2.001 29.625,1.967 29.693,1.933 C29.693,1.865 29.693,1.797 29.693,1.729 C29.761,1.695 29.829,1.661 29.897,1.627 C29.999,1.491 30.101,1.355 30.203,1.220 C30.270,1.220 30.338,1.220 30.406,1.220 C30.474,1.118 30.542,1.016 30.610,0.914 C30.678,0.914 30.746,0.914 30.814,0.914 C30.814,0.880 30.814,0.846 30.814,0.812 C31.017,0.744 31.221,0.676 31.425,0.608 C31.425,0.575 31.425,0.541 31.425,0.507 C31.526,0.507 31.628,0.507 31.730,0.507 C32.059,0.382 33.027,0.050 33.563,0.201 C33.563,0.235 33.563,0.269 33.563,0.303 C33.801,0.303 34.039,0.303 34.276,0.303 C34.276,0.337 34.276,0.371 34.276,0.405 C34.582,0.473 34.887,0.541 35.193,0.608 C35.193,0.642 35.193,0.676 35.193,0.710 C35.261,0.710 35.329,0.710 35.396,0.710 C35.430,0.778 35.464,0.846 35.498,0.914 C35.566,0.914 35.634,0.914 35.702,0.914 C35.736,0.982 35.770,1.050 35.804,1.118 C35.872,1.118 35.940,1.118 36.008,1.118 C36.143,1.288 36.279,1.457 36.415,1.627 C36.517,1.695 36.619,1.763 36.720,1.831 C37.940,3.559 37.535,8.322 37.535,11.304 C37.535,13.172 37.741,15.424 37.433,17.111 C37.250,17.207 37.273,17.252 37.026,17.314 C36.856,17.469 36.432,17.416 36.109,17.416 C35.260,17.418 34.256,17.449 33.563,17.314 C33.467,17.131 33.422,17.154 33.360,16.907 C33.188,16.707 33.258,16.149 33.258,15.787 C33.258,14.870 33.258,13.953 33.258,13.036 C33.258,11.644 33.258,10.252 33.258,8.860 C33.258,8.282 33.258,7.705 33.258,7.128 C33.258,7.128 33.392,7.129 33.360,6.924 C33.326,6.924 33.292,6.924 33.258,6.924 C33.258,6.449 33.258,5.973 33.258,5.498 C33.224,5.498 33.190,5.498 33.156,5.498 C33.156,5.396 33.156,5.294 33.156,5.192 C33.122,5.192 33.088,5.192 33.054,5.192 C33.054,5.125 33.054,5.057 33.054,4.989 C33.020,4.989 32.986,4.989 32.952,4.989 C32.952,4.921 32.952,4.853 32.952,4.785 C32.749,4.615 32.545,4.445 32.341,4.276 C31.900,4.242 31.459,4.208 31.017,4.174 C30.791,4.247 30.588,4.416 30.304,4.479 C30.169,4.649 30.033,4.819 29.897,4.989 C29.863,4.989 29.829,4.989 29.795,4.989 C29.795,5.057 29.795,5.125 29.795,5.192 C29.727,5.226 29.659,5.260 29.591,5.294 C29.591,5.396 29.591,5.498 29.591,5.600 C29.558,5.600 29.524,5.600 29.490,5.600 C29.456,5.973 29.422,6.347 29.388,6.720 C29.227,7.282 29.286,8.235 29.286,8.961 C29.286,10.320 29.286,11.678 29.286,13.036 C29.286,14.366 29.513,16.332 29.082,17.314 C28.385,17.389 25.749,17.646 25.314,17.213 C24.949,16.872 25.110,14.999 25.110,14.259 C25.110,12.493 25.110,10.727 25.110,8.961 C25.110,8.087 25.213,6.913 25.009,6.211 C25.009,6.007 25.009,5.804 25.009,5.600 C24.975,5.600 24.941,5.600 24.907,5.600 C24.699,5.028 24.693,4.541 24.092,4.378 C23.732,4.006 22.772,4.217 22.259,4.276 C22.259,4.310 22.259,4.344 22.259,4.378 C22.157,4.411 22.055,4.445 21.953,4.479 C21.750,4.785 21.546,5.091 21.342,5.396 C21.342,5.532 21.342,5.668 21.342,5.804 C21.078,6.600 21.139,7.776 21.139,8.860 C21.139,10.591 21.139,12.323 21.139,14.055 C21.139,15.063 21.189,16.263 21.037,17.111 C20.853,17.207 20.876,17.252 20.629,17.314 C20.459,17.469 20.036,17.416 19.713,17.416 C18.863,17.418 17.859,17.449 17.167,17.314 C17.071,17.131 17.026,17.154 16.963,16.907 C16.800,16.722 16.861,16.231 16.861,15.888 C16.861,15.006 16.861,14.123 16.861,13.240 C16.861,10.218 16.861,7.196 16.861,4.174 C16.861,3.464 16.683,1.220 16.963,0.812 C17.136,0.561 17.554,0.610 17.981,0.608 C18.864,0.608 19.747,0.608 20.629,0.608 C20.690,0.726 20.806,0.767 20.833,0.812 C20.833,0.880 20.833,0.948 20.833,1.016 C20.867,1.016 20.901,1.016 20.935,1.016 C21.152,1.593 20.673,2.641 21.037,3.053 C21.037,2.985 21.037,2.917 21.037,2.850 C21.282,2.637 21.262,2.322 21.444,2.035 C21.512,2.001 21.580,1.967 21.648,1.933 C21.648,1.865 21.648,1.797 21.648,1.729 C21.716,1.695 21.784,1.661 21.851,1.627 C22.021,1.423 22.191,1.220 22.361,1.016 C22.429,1.016 22.496,1.016 22.564,1.016 C22.598,0.948 22.632,0.880 22.666,0.812 C22.802,0.778 22.938,0.744 23.074,0.710 C23.074,0.676 23.074,0.642 23.074,0.608 C23.209,0.575 23.345,0.541 23.481,0.507 C23.481,0.473 23.481,0.439 23.481,0.405 C23.802,0.277 24.369,0.405 24.601,0.201 ZM76.541,0.201 C80.318,0.165 82.244,2.072 83.364,4.683 C83.364,4.785 83.364,4.887 83.364,4.989 C83.398,4.989 83.432,4.989 83.466,4.989 C83.466,5.091 83.466,5.192 83.466,5.294 C83.500,5.294 83.534,5.294 83.568,5.294 C83.568,5.396 83.568,5.498 83.568,5.600 C83.602,5.600 83.636,5.600 83.670,5.600 C83.670,5.736 83.670,5.872 83.670,6.007 C83.704,6.007 83.737,6.007 83.771,6.007 C83.771,6.143 83.771,6.279 83.771,6.415 C83.805,6.415 83.839,6.415 83.873,6.415 C83.873,6.619 83.873,6.822 83.873,7.026 C84.289,8.477 84.090,10.774 83.670,12.017 C83.670,12.153 83.670,12.289 83.670,12.425 C83.636,12.425 83.602,12.425 83.568,12.425 C83.568,12.527 83.568,12.629 83.568,12.731 C83.534,12.731 83.500,12.731 83.466,12.731 C83.466,12.798 83.466,12.866 83.466,12.934 C83.432,12.934 83.398,12.934 83.364,12.934 C83.364,13.036 83.364,13.138 83.364,13.240 C83.330,13.240 83.296,13.240 83.262,13.240 C83.228,13.376 83.194,13.512 83.160,13.647 C83.126,13.647 83.092,13.647 83.059,13.647 C83.059,13.749 83.059,13.851 83.059,13.953 C82.991,13.987 82.923,14.021 82.855,14.055 C82.787,14.258 82.719,14.462 82.651,14.666 C82.549,14.734 82.447,14.802 82.346,14.870 C82.346,14.938 82.346,15.006 82.346,15.073 C82.244,15.141 82.142,15.209 82.040,15.277 C82.040,15.345 82.040,15.413 82.040,15.481 C81.938,15.549 81.836,15.617 81.735,15.685 C81.565,15.888 81.395,16.092 81.225,16.296 C81.157,16.296 81.090,16.296 81.022,16.296 C80.954,16.398 80.886,16.500 80.818,16.601 C80.750,16.601 80.682,16.601 80.614,16.601 C80.580,16.669 80.546,16.737 80.512,16.805 C80.445,16.805 80.377,16.805 80.309,16.805 C80.309,16.839 80.309,16.873 80.309,16.907 C80.241,16.907 80.173,16.907 80.105,16.907 C80.105,16.941 80.105,16.975 80.105,17.009 C80.037,17.009 79.969,17.009 79.901,17.009 C79.901,17.043 79.901,17.077 79.901,17.111 C79.834,17.111 79.766,17.111 79.698,17.111 C79.698,17.145 79.698,17.179 79.698,17.213 C79.630,17.213 79.562,17.213 79.494,17.213 C79.494,17.247 79.494,17.281 79.494,17.314 C78.883,17.450 78.272,17.586 77.661,17.722 C77.254,17.722 76.846,17.722 76.439,17.722 C76.439,17.688 76.439,17.654 76.439,17.620 C76.201,17.620 75.964,17.620 75.726,17.620 C75.149,17.416 74.572,17.213 73.995,17.009 C73.961,16.941 73.927,16.873 73.893,16.805 C73.757,16.771 73.621,16.737 73.485,16.703 C73.418,16.601 73.350,16.500 73.282,16.398 C73.214,16.398 73.146,16.398 73.078,16.398 C72.976,16.262 72.874,16.126 72.772,15.990 C72.569,15.820 72.365,15.651 72.161,15.481 C72.161,15.413 72.161,15.345 72.161,15.277 C72.060,15.209 71.958,15.141 71.856,15.073 C71.856,15.006 71.856,14.938 71.856,14.870 C71.788,14.836 71.720,14.802 71.652,14.768 C71.618,14.666 71.584,14.564 71.550,14.462 C71.516,14.462 71.482,14.462 71.449,14.462 C71.177,13.817 70.905,13.172 70.634,12.527 C70.634,12.391 70.634,12.255 70.634,12.119 C70.600,12.119 70.566,12.119 70.532,12.119 C70.532,11.984 70.532,11.848 70.532,11.712 C70.498,11.712 70.464,11.712 70.430,11.712 C70.430,11.542 70.430,11.372 70.430,11.203 C70.396,11.203 70.362,11.203 70.328,11.203 C70.328,10.931 70.328,10.659 70.328,10.388 C70.294,10.388 70.260,10.388 70.226,10.388 C70.088,9.890 70.225,7.796 70.328,7.433 C70.328,7.196 70.328,6.958 70.328,6.720 C70.362,6.720 70.396,6.720 70.430,6.720 C70.430,6.551 70.430,6.381 70.430,6.211 C70.464,6.211 70.498,6.211 70.532,6.211 C70.532,6.075 70.532,5.939 70.532,5.804 C70.566,5.804 70.600,5.804 70.634,5.804 C70.634,5.668 70.634,5.532 70.634,5.396 C70.668,5.396 70.702,5.396 70.736,5.396 C70.736,5.294 70.736,5.192 70.736,5.091 C70.770,5.091 70.804,5.091 70.837,5.091 C70.837,4.989 70.837,4.887 70.837,4.785 C70.871,4.785 70.905,4.785 70.939,4.785 C70.939,4.683 70.939,4.581 70.939,4.479 C70.973,4.479 71.007,4.479 71.041,4.479 C71.041,4.411 71.041,4.344 71.041,4.276 C71.075,4.276 71.109,4.276 71.143,4.276 C71.143,4.208 71.143,4.140 71.143,4.072 C71.177,4.072 71.211,4.072 71.245,4.072 C71.245,4.004 71.245,3.936 71.245,3.868 C71.279,3.868 71.313,3.868 71.347,3.868 C71.347,3.800 71.347,3.732 71.347,3.664 C71.381,3.664 71.415,3.664 71.449,3.664 C71.449,3.597 71.449,3.529 71.449,3.461 C71.482,3.461 71.516,3.461 71.550,3.461 C71.550,3.393 71.550,3.325 71.550,3.257 C71.618,3.223 71.686,3.189 71.754,3.155 C71.754,3.087 71.754,3.019 71.754,2.951 C71.856,2.883 71.958,2.816 72.060,2.748 C72.060,2.680 72.060,2.612 72.060,2.544 C72.195,2.442 72.331,2.340 72.467,2.238 C72.671,2.001 72.874,1.763 73.078,1.525 C73.146,1.525 73.214,1.525 73.282,1.525 C73.350,1.423 73.418,1.322 73.485,1.220 C73.553,1.220 73.621,1.220 73.689,1.220 C73.723,1.152 73.757,1.084 73.791,1.016 C73.927,0.982 74.063,0.948 74.198,0.914 C74.198,0.880 74.198,0.846 74.198,0.812 C74.266,0.812 74.334,0.812 74.402,0.812 C74.402,0.778 74.402,0.744 74.402,0.710 C74.504,0.710 74.606,0.710 74.707,0.710 C74.707,0.676 74.707,0.642 74.707,0.608 C74.809,0.608 74.911,0.608 75.013,0.608 C75.013,0.575 75.013,0.541 75.013,0.507 C75.115,0.507 75.217,0.507 75.319,0.507 C75.319,0.473 75.319,0.439 75.319,0.405 C75.488,0.405 75.658,0.405 75.828,0.405 C75.828,0.371 75.828,0.337 75.828,0.303 C76.065,0.303 76.303,0.303 76.541,0.303 C76.541,0.269 76.541,0.235 76.541,0.201 ZM97.622,1.322 C97.694,1.586 97.782,1.652 97.927,1.831 C97.961,1.831 97.995,1.831 98.029,1.831 C98.029,1.899 98.029,1.967 98.029,2.035 C98.097,2.069 98.165,2.103 98.233,2.136 C98.233,2.204 98.233,2.272 98.233,2.340 C98.267,2.340 98.301,2.340 98.335,2.340 C98.369,2.476 98.403,2.612 98.437,2.748 C98.471,2.748 98.505,2.748 98.539,2.748 C98.539,2.883 98.539,3.019 98.539,3.155 C98.572,3.155 98.606,3.155 98.640,3.155 C98.640,3.257 98.640,3.359 98.640,3.461 C98.674,3.461 98.708,3.461 98.742,3.461 C98.776,3.970 98.810,4.479 98.844,4.989 C99.034,5.666 98.946,6.790 98.946,7.637 C98.946,9.369 98.946,11.101 98.946,12.832 C98.946,14.166 99.160,16.353 98.742,17.314 C97.658,17.425 95.796,17.589 94.872,17.213 C94.599,16.464 94.770,14.813 94.770,13.851 C94.770,11.407 94.770,8.961 94.770,6.517 C94.736,6.517 94.702,6.517 94.669,6.517 C94.669,6.279 94.669,6.041 94.669,5.804 C94.635,5.804 94.601,5.804 94.567,5.804 C94.567,5.668 94.567,5.532 94.567,5.396 C94.533,5.396 94.499,5.396 94.465,5.396 C94.465,5.294 94.465,5.192 94.465,5.091 C94.431,5.091 94.397,5.091 94.363,5.091 C94.180,4.736 94.188,4.493 93.752,4.378 C93.523,4.113 93.024,4.068 92.530,4.072 C92.530,4.106 92.530,4.140 92.530,4.174 C92.360,4.208 92.190,4.242 92.021,4.276 C92.021,4.310 92.021,4.344 92.021,4.378 C91.953,4.378 91.885,4.378 91.817,4.378 C91.783,4.445 91.749,4.513 91.715,4.581 C91.545,4.717 91.376,4.853 91.206,4.989 C91.138,5.192 91.070,5.396 91.002,5.600 C90.968,5.600 90.934,5.600 90.900,5.600 C90.505,6.509 90.595,8.173 90.595,9.471 C90.595,11.983 90.595,14.496 90.595,17.009 C90.449,17.088 90.186,17.291 90.086,17.416 C88.926,17.431 87.360,17.555 86.521,17.213 C86.369,16.796 86.419,16.056 86.419,15.481 C86.419,14.360 86.419,13.240 86.419,12.119 C86.419,8.351 86.419,4.581 86.419,0.812 C87.203,0.406 88.956,0.601 90.086,0.608 C90.161,0.752 90.269,0.916 90.391,1.016 C90.391,1.627 90.391,2.238 90.391,2.850 C90.391,2.998 90.466,3.262 90.289,3.257 C90.289,3.291 90.289,3.325 90.289,3.359 C90.357,3.359 90.425,3.359 90.493,3.359 C90.534,2.910 90.734,2.736 90.900,2.442 C90.900,2.374 90.900,2.306 90.900,2.238 C90.968,2.204 91.036,2.170 91.104,2.136 C91.104,2.069 91.104,2.001 91.104,1.933 C91.172,1.899 91.240,1.865 91.308,1.831 C91.308,1.763 91.308,1.695 91.308,1.627 C91.376,1.593 91.444,1.559 91.511,1.525 C91.647,1.356 91.783,1.186 91.919,1.016 C91.987,1.016 92.055,1.016 92.122,1.016 C92.156,0.948 92.190,0.880 92.224,0.812 C92.292,0.812 92.360,0.812 92.428,0.812 C92.462,0.744 92.496,0.676 92.530,0.608 C92.632,0.608 92.734,0.608 92.835,0.608 C92.835,0.575 92.835,0.541 92.835,0.507 C92.903,0.507 92.971,0.507 93.039,0.507 C93.039,0.473 93.039,0.439 93.039,0.405 C93.412,0.371 93.786,0.337 94.159,0.303 C94.159,0.269 94.159,0.235 94.159,0.201 C94.668,0.235 95.178,0.269 95.687,0.303 C95.687,0.337 95.687,0.371 95.687,0.405 C95.823,0.405 95.959,0.405 96.094,0.405 C96.094,0.439 96.094,0.473 96.094,0.507 C96.162,0.507 96.230,0.507 96.298,0.507 C96.298,0.541 96.298,0.575 96.298,0.608 C96.468,0.642 96.637,0.676 96.807,0.710 C96.841,0.778 96.875,0.846 96.909,0.914 C96.977,0.914 97.045,0.914 97.113,0.914 C97.113,0.948 97.113,0.982 97.113,1.016 C97.293,1.163 97.358,1.246 97.622,1.322 ZM62.486,11.916 C64.517,11.861 65.935,12.136 67.273,12.731 C67.375,12.731 67.477,12.731 67.579,12.731 C67.579,12.764 67.579,12.798 67.579,12.832 C68.038,13.059 68.459,13.104 68.597,13.647 C68.751,13.817 68.698,14.241 68.699,14.564 C68.700,15.322 68.715,16.201 68.597,16.805 C68.407,16.877 68.199,16.906 67.884,16.907 C67.564,16.542 66.959,16.495 66.458,16.296 C64.905,15.679 62.316,15.308 60.450,15.888 C60.280,15.888 60.110,15.888 59.940,15.888 C59.940,15.922 59.940,15.956 59.940,15.990 C59.805,15.990 59.669,15.990 59.533,15.990 C59.533,16.024 59.533,16.058 59.533,16.092 C59.431,16.092 59.329,16.092 59.228,16.092 C59.228,16.126 59.228,16.160 59.228,16.194 C59.126,16.194 59.024,16.194 58.922,16.194 C58.922,16.228 58.922,16.262 58.922,16.296 C58.820,16.296 58.718,16.296 58.616,16.296 C58.616,16.330 58.616,16.364 58.616,16.398 C58.515,16.398 58.413,16.398 58.311,16.398 C58.311,16.432 58.311,16.466 58.311,16.500 C58.107,16.567 57.904,16.635 57.700,16.703 C57.700,16.737 57.700,16.771 57.700,16.805 C57.496,16.873 57.292,16.941 57.089,17.009 C57.089,16.975 57.089,16.941 57.089,16.907 C56.839,16.841 56.912,16.867 56.783,16.703 C56.749,16.703 56.715,16.703 56.681,16.703 C56.681,15.549 56.681,14.394 56.681,13.240 C56.715,13.240 56.749,13.240 56.783,13.240 C56.817,13.070 56.851,12.900 56.885,12.731 C56.919,12.731 56.953,12.731 56.987,12.731 C56.987,12.663 56.987,12.595 56.987,12.527 C57.021,12.527 57.055,12.527 57.089,12.527 C57.123,12.425 57.157,12.323 57.191,12.221 C57.259,12.187 57.326,12.153 57.394,12.119 C57.394,12.051 57.394,11.984 57.394,11.916 C57.462,11.882 57.530,11.848 57.598,11.814 C57.598,11.746 57.598,11.678 57.598,11.610 C57.700,11.542 57.802,11.474 57.904,11.406 C57.904,11.338 57.904,11.270 57.904,11.203 C57.971,11.169 58.039,11.135 58.107,11.101 C58.107,11.033 58.107,10.965 58.107,10.897 C58.141,10.897 58.175,10.897 58.209,10.897 C58.243,10.795 58.277,10.693 58.311,10.591 C58.379,10.557 58.447,10.523 58.515,10.489 C58.515,10.422 58.515,10.354 58.515,10.286 C58.616,10.218 58.718,10.150 58.820,10.082 C58.820,10.014 58.820,9.946 58.820,9.878 C58.854,9.878 58.888,9.878 58.922,9.878 C58.956,9.776 58.990,9.675 59.024,9.573 C59.092,9.539 59.160,9.505 59.228,9.471 C59.228,9.403 59.228,9.335 59.228,9.267 C59.329,9.199 59.431,9.131 59.533,9.063 C59.533,8.995 59.533,8.928 59.533,8.860 C59.567,8.860 59.601,8.860 59.635,8.860 C59.669,8.758 59.703,8.656 59.737,8.554 C59.805,8.520 59.873,8.486 59.940,8.452 C59.940,8.384 59.940,8.316 59.940,8.248 C60.042,8.181 60.144,8.113 60.246,8.045 C60.246,7.977 60.246,7.909 60.246,7.841 C60.314,7.807 60.382,7.773 60.450,7.739 C60.450,7.671 60.450,7.603 60.450,7.535 C60.484,7.535 60.518,7.535 60.551,7.535 C60.585,7.434 60.619,7.332 60.653,7.230 C60.721,7.196 60.789,7.162 60.857,7.128 C60.857,7.060 60.857,6.992 60.857,6.924 C60.959,6.856 61.061,6.788 61.163,6.720 C61.163,6.653 61.163,6.585 61.163,6.517 C61.196,6.517 61.230,6.517 61.264,6.517 C61.298,6.415 61.332,6.313 61.366,6.211 C61.434,6.177 61.502,6.143 61.570,6.109 C61.570,6.041 61.570,5.973 61.570,5.906 C61.672,5.838 61.774,5.770 61.875,5.702 C61.875,5.634 61.875,5.566 61.875,5.498 C61.909,5.498 61.943,5.498 61.977,5.498 C62.011,5.396 62.045,5.294 62.079,5.192 C62.147,5.158 62.215,5.125 62.283,5.091 C62.283,5.023 62.283,4.955 62.283,4.887 C62.385,4.819 62.486,4.751 62.588,4.683 C62.588,4.615 62.588,4.547 62.588,4.479 C62.656,4.445 62.724,4.411 62.792,4.378 C62.792,4.310 62.792,4.242 62.792,4.174 C62.826,4.174 62.860,4.174 62.894,4.174 C62.928,4.072 62.962,3.970 62.996,3.868 C61.163,3.868 59.329,3.868 57.496,3.868 C57.442,3.773 57.191,3.563 57.191,3.563 C57.191,2.680 57.191,1.797 57.191,0.914 C57.307,0.798 57.231,0.914 57.293,0.710 C57.394,0.676 57.496,0.642 57.598,0.608 C57.863,0.377 59.797,0.507 60.348,0.507 C62.928,0.507 65.508,0.507 68.088,0.507 C68.142,0.602 68.393,0.812 68.393,0.812 C68.393,1.661 68.393,2.510 68.393,3.359 C68.192,3.539 68.309,3.582 68.190,3.766 C68.122,3.800 68.054,3.834 67.986,3.868 C67.986,3.936 67.986,4.004 67.986,4.072 C67.918,4.106 67.850,4.140 67.782,4.174 C67.782,4.242 67.782,4.310 67.782,4.378 C67.680,4.445 67.579,4.513 67.477,4.581 C67.477,4.649 67.477,4.717 67.477,4.785 C67.443,4.785 67.409,4.785 67.375,4.785 C67.341,4.887 67.307,4.989 67.273,5.091 C67.205,5.125 67.137,5.158 67.069,5.192 C67.069,5.260 67.069,5.328 67.069,5.396 C66.968,5.464 66.866,5.532 66.764,5.600 C66.764,5.668 66.764,5.736 66.764,5.804 C66.730,5.804 66.696,5.804 66.662,5.804 C66.628,5.905 66.594,6.007 66.560,6.109 C66.492,6.143 66.424,6.177 66.356,6.211 C66.356,6.279 66.356,6.347 66.356,6.415 C66.255,6.483 66.153,6.551 66.051,6.619 C66.051,6.686 66.051,6.754 66.051,6.822 C65.983,6.856 65.915,6.890 65.847,6.924 C65.847,6.992 65.847,7.060 65.847,7.128 C65.779,7.162 65.711,7.196 65.644,7.230 C65.644,7.298 65.644,7.366 65.644,7.433 C65.542,7.501 65.440,7.569 65.338,7.637 C65.338,7.705 65.338,7.773 65.338,7.841 C65.304,7.841 65.270,7.841 65.236,7.841 C65.202,7.943 65.168,8.045 65.134,8.147 C65.066,8.181 64.999,8.214 64.931,8.248 C64.931,8.316 64.931,8.384 64.931,8.452 C64.829,8.520 64.727,8.588 64.625,8.656 C64.625,8.724 64.625,8.792 64.625,8.860 C64.591,8.860 64.557,8.860 64.523,8.860 C64.489,8.961 64.455,9.063 64.421,9.165 C64.354,9.199 64.286,9.233 64.218,9.267 C64.218,9.335 64.218,9.403 64.218,9.471 C64.116,9.539 64.014,9.607 63.912,9.675 C63.912,9.742 63.912,9.810 63.912,9.878 C63.878,9.878 63.844,9.878 63.810,9.878 C63.776,9.980 63.742,10.082 63.709,10.184 C63.641,10.218 63.573,10.252 63.505,10.286 C63.505,10.354 63.505,10.422 63.505,10.489 C63.403,10.557 63.301,10.625 63.199,10.693 C63.199,10.761 63.199,10.829 63.199,10.897 C63.131,10.931 63.064,10.965 62.996,10.999 C62.996,11.067 62.996,11.135 62.996,11.203 C62.928,11.236 62.860,11.270 62.792,11.304 C62.792,11.372 62.792,11.440 62.792,11.508 C62.758,11.508 62.724,11.508 62.690,11.508 C62.571,11.660 62.549,11.689 62.486,11.916 ZM76.541,3.461 C76.541,3.495 76.541,3.529 76.541,3.563 C76.439,3.563 76.337,3.563 76.235,3.563 C76.031,3.868 76.140,3.609 75.930,3.766 C75.896,3.834 75.862,3.902 75.828,3.970 C75.726,4.038 75.624,4.106 75.522,4.174 C75.522,4.242 75.522,4.310 75.522,4.378 C75.454,4.411 75.386,4.445 75.319,4.479 C75.319,4.547 75.319,4.615 75.319,4.683 C75.285,4.683 75.251,4.683 75.217,4.683 C75.217,4.751 75.217,4.819 75.217,4.887 C75.183,4.887 75.149,4.887 75.115,4.887 C75.047,5.294 74.979,5.702 74.911,6.109 C74.877,6.109 74.843,6.109 74.809,6.109 C74.809,6.415 74.809,6.720 74.809,7.026 C74.775,7.026 74.741,7.026 74.707,7.026 C74.707,7.569 74.707,8.113 74.707,8.656 C74.707,10.203 74.781,11.646 75.217,12.731 C75.217,12.832 75.217,12.934 75.217,13.036 C75.251,13.036 75.285,13.036 75.319,13.036 C75.319,13.104 75.319,13.172 75.319,13.240 C75.503,13.593 75.916,14.147 76.337,14.259 C76.530,14.461 76.391,14.261 76.642,14.360 C77.322,14.630 77.730,14.286 78.272,14.157 C78.408,13.987 78.544,13.817 78.679,13.647 C78.713,13.647 78.747,13.647 78.781,13.647 C78.781,13.579 78.781,13.511 78.781,13.444 C78.815,13.444 78.849,13.444 78.883,13.444 C78.951,13.240 79.019,13.036 79.087,12.832 C79.121,12.832 79.155,12.832 79.189,12.832 C79.189,12.697 79.189,12.561 79.189,12.425 C79.222,12.425 79.256,12.425 79.290,12.425 C79.290,12.289 79.290,12.153 79.290,12.017 C79.324,12.017 79.358,12.017 79.392,12.017 C79.392,11.814 79.392,11.610 79.392,11.406 C79.426,11.406 79.460,11.406 79.494,11.406 C79.494,11.033 79.494,10.659 79.494,10.286 C79.528,10.286 79.562,10.286 79.596,10.286 C79.562,9.063 79.528,7.841 79.494,6.619 C79.460,6.619 79.426,6.619 79.392,6.619 C79.392,6.381 79.392,6.143 79.392,5.906 C79.149,5.090 78.887,3.882 78.068,3.664 C77.797,3.387 77.091,3.449 76.541,3.461 ZM9.019,9.165 C8.329,9.158 7.400,9.279 6.881,9.471 C6.779,9.471 6.677,9.471 6.575,9.471 C6.575,9.505 6.575,9.539 6.575,9.573 C6.473,9.573 6.371,9.573 6.270,9.573 C6.270,9.607 6.270,9.641 6.270,9.675 C6.134,9.708 5.998,9.742 5.862,9.776 C5.862,9.810 5.862,9.844 5.862,9.878 C5.794,9.878 5.726,9.878 5.659,9.878 C5.625,9.946 5.591,10.014 5.557,10.082 C5.489,10.082 5.421,10.082 5.353,10.082 C5.353,10.116 5.353,10.150 5.353,10.184 C5.251,10.252 5.149,10.320 5.048,10.388 C5.048,10.456 5.048,10.523 5.048,10.591 C4.980,10.625 4.912,10.659 4.844,10.693 C4.810,10.863 4.776,11.033 4.742,11.203 C4.616,11.524 4.343,12.442 4.538,13.036 C4.613,13.262 4.778,13.466 4.844,13.749 C5.092,13.888 5.180,14.139 5.353,14.259 C5.523,14.376 5.586,14.257 5.760,14.462 C6.168,14.462 6.575,14.462 6.983,14.462 C6.983,14.428 6.983,14.394 6.983,14.360 C7.152,14.326 7.322,14.292 7.492,14.259 C7.560,14.157 7.628,14.055 7.695,13.953 C9.045,12.987 9.045,11.484 9.019,9.165 ZM49.145,9.165 C48.454,9.158 47.525,9.279 47.006,9.471 C46.905,9.471 46.803,9.471 46.701,9.471 C46.701,9.505 46.701,9.539 46.701,9.573 C46.599,9.573 46.497,9.573 46.395,9.573 C46.395,9.607 46.395,9.641 46.395,9.675 C46.260,9.708 46.124,9.742 45.988,9.776 C45.988,9.810 45.988,9.844 45.988,9.878 C45.920,9.878 45.852,9.878 45.784,9.878 C45.750,9.946 45.716,10.014 45.683,10.082 C45.615,10.082 45.547,10.082 45.479,10.082 C45.479,10.116 45.479,10.150 45.479,10.184 C45.377,10.252 45.275,10.320 45.173,10.388 C45.173,10.456 45.173,10.523 45.173,10.591 C45.105,10.625 45.038,10.659 44.970,10.693 C44.936,10.863 44.902,11.033 44.868,11.203 C44.741,11.524 44.469,12.442 44.664,13.036 C44.738,13.262 44.904,13.466 44.970,13.749 C45.218,13.888 45.306,14.139 45.479,14.259 C45.649,14.376 45.712,14.257 45.886,14.462 C46.294,14.462 46.701,14.462 47.108,14.462 C47.108,14.428 47.108,14.394 47.108,14.360 C47.278,14.326 47.448,14.292 47.618,14.259 C47.685,14.157 47.753,14.055 47.821,13.953 C47.889,13.953 47.957,13.953 48.025,13.953 C48.025,13.919 48.025,13.885 48.025,13.851 C48.127,13.783 48.229,13.715 48.330,13.647 C48.330,13.579 48.330,13.511 48.330,13.444 C48.398,13.410 48.466,13.376 48.534,13.342 C49.206,12.278 49.165,10.913 49.145,9.165 ZM61.163,18.129 C62.632,18.093 64.286,18.071 65.338,18.435 C65.474,18.435 65.610,18.435 65.745,18.435 C65.745,18.469 65.745,18.503 65.745,18.537 C66.086,18.701 66.134,18.524 66.255,18.944 C66.668,19.345 66.401,20.708 66.255,21.185 C66.255,21.355 66.255,21.525 66.255,21.695 C66.221,21.695 66.187,21.695 66.153,21.695 C66.085,22.102 66.017,22.510 65.949,22.917 C65.915,22.917 65.881,22.917 65.847,22.917 C65.847,23.019 65.847,23.121 65.847,23.223 C65.813,23.223 65.779,23.223 65.745,23.223 C65.745,23.291 65.745,23.359 65.745,23.426 C65.711,23.426 65.677,23.426 65.644,23.426 C65.610,23.630 65.576,23.834 65.542,24.038 C65.508,24.038 65.474,24.038 65.440,24.038 C65.406,24.173 65.372,24.309 65.338,24.445 C65.304,24.445 65.270,24.445 65.236,24.445 C65.236,24.513 65.236,24.581 65.236,24.649 C65.202,24.649 65.168,24.649 65.134,24.649 C65.134,24.717 65.134,24.785 65.134,24.853 C65.100,24.853 65.066,24.853 65.033,24.853 C65.033,24.920 65.033,24.988 65.033,25.056 C64.999,25.056 64.965,25.056 64.931,25.056 C64.931,25.124 64.931,25.192 64.931,25.260 C64.863,25.294 64.795,25.328 64.727,25.362 C64.693,25.498 64.659,25.634 64.625,25.769 C64.557,25.803 64.489,25.837 64.421,25.871 C64.421,25.939 64.421,26.007 64.421,26.075 C64.320,26.143 64.218,26.211 64.116,26.279 C64.116,26.347 64.116,26.415 64.116,26.482 C63.980,26.584 63.844,26.686 63.709,26.788 C63.324,27.175 63.089,27.742 62.385,27.807 C62.325,27.676 62.284,27.589 62.181,27.501 C62.656,26.245 63.131,24.988 63.607,23.732 C63.607,23.596 63.607,23.460 63.607,23.325 C63.641,23.325 63.675,23.325 63.709,23.325 C63.709,23.189 63.709,23.053 63.709,22.917 C63.742,22.917 63.776,22.917 63.810,22.917 C63.810,22.781 63.810,22.645 63.810,22.510 C63.844,22.510 63.878,22.510 63.912,22.510 C63.912,22.272 63.912,22.034 63.912,21.797 C63.946,21.797 63.980,21.797 64.014,21.797 C63.980,21.457 63.946,21.117 63.912,20.778 C63.675,20.608 63.437,20.438 63.199,20.269 C62.554,20.235 61.909,20.201 61.264,20.167 C60.246,20.201 59.227,20.235 58.209,20.269 C58.209,20.303 58.209,20.337 58.209,20.370 C57.734,20.404 57.259,20.438 56.783,20.472 C56.687,20.289 56.642,20.312 56.580,20.065 C56.614,20.065 56.648,20.065 56.681,20.065 C56.829,19.564 57.035,19.692 57.394,19.454 C57.428,19.386 57.462,19.318 57.496,19.250 C57.802,19.148 58.107,19.046 58.413,18.944 C58.413,18.910 58.413,18.876 58.413,18.842 C58.481,18.842 58.549,18.842 58.616,18.842 C58.616,18.809 58.616,18.775 58.616,18.741 C58.718,18.741 58.820,18.741 58.922,18.741 C58.922,18.707 58.922,18.673 58.922,18.639 C59.024,18.639 59.126,18.639 59.228,18.639 C59.228,18.605 59.228,18.571 59.228,18.537 C59.329,18.537 59.431,18.537 59.533,18.537 C59.533,18.503 59.533,18.469 59.533,18.435 C59.669,18.435 59.805,18.435 59.940,18.435 C59.940,18.401 59.940,18.367 59.940,18.333 C60.305,18.217 60.920,18.345 61.163,18.129 ZM14.111,19.148 C14.557,19.139 14.855,19.180 15.130,19.352 C15.164,19.420 15.198,19.488 15.232,19.556 C15.300,19.556 15.368,19.556 15.435,19.556 C15.435,19.590 15.435,19.623 15.435,19.657 C15.503,19.657 15.571,19.657 15.639,19.657 C15.639,19.691 15.639,19.725 15.639,19.759 C15.707,19.759 15.775,19.759 15.843,19.759 C15.843,19.793 15.843,19.827 15.843,19.861 C15.911,19.861 15.979,19.861 16.046,19.861 C16.080,19.929 16.114,19.997 16.148,20.065 C16.216,20.065 16.284,20.065 16.352,20.065 C16.352,20.099 16.352,20.133 16.352,20.167 C16.420,20.167 16.488,20.167 16.556,20.167 C16.556,20.201 16.556,20.235 16.556,20.269 C16.624,20.269 16.691,20.269 16.759,20.269 C16.759,20.303 16.759,20.337 16.759,20.370 C16.827,20.370 16.895,20.370 16.963,20.370 C16.963,20.404 16.963,20.438 16.963,20.472 C17.031,20.472 17.099,20.472 17.167,20.472 C17.167,20.506 17.167,20.540 17.167,20.574 C17.235,20.574 17.303,20.574 17.370,20.574 C17.370,20.608 17.370,20.642 17.370,20.676 C17.438,20.676 17.506,20.676 17.574,20.676 C17.574,20.710 17.574,20.744 17.574,20.778 C17.642,20.778 17.710,20.778 17.778,20.778 C17.778,20.812 17.778,20.846 17.778,20.880 C17.846,20.880 17.914,20.880 17.981,20.880 C17.981,20.914 17.981,20.948 17.981,20.982 C18.185,21.050 18.389,21.118 18.593,21.185 C18.593,21.219 18.593,21.253 18.593,21.287 C18.694,21.287 18.796,21.287 18.898,21.287 C18.898,21.321 18.898,21.355 18.898,21.389 C19.034,21.423 19.170,21.457 19.305,21.491 C19.305,21.525 19.305,21.559 19.305,21.593 C19.373,21.593 19.441,21.593 19.509,21.593 C19.509,21.627 19.509,21.661 19.509,21.695 C19.611,21.695 19.713,21.695 19.815,21.695 C19.815,21.729 19.815,21.763 19.815,21.797 C19.883,21.797 19.950,21.797 20.018,21.797 C20.018,21.831 20.018,21.865 20.018,21.898 C20.154,21.932 20.290,21.966 20.426,22.000 C20.426,22.034 20.426,22.068 20.426,22.102 C20.528,22.102 20.629,22.102 20.731,22.102 C20.731,22.136 20.731,22.170 20.731,22.204 C20.799,22.204 20.867,22.204 20.935,22.204 C20.935,22.238 20.935,22.272 20.935,22.306 C21.105,22.340 21.274,22.374 21.444,22.408 C21.444,22.442 21.444,22.476 21.444,22.510 C21.546,22.510 21.648,22.510 21.750,22.510 C21.750,22.544 21.750,22.578 21.750,22.612 C21.818,22.612 21.885,22.612 21.953,22.612 C21.953,22.645 21.953,22.679 21.953,22.713 C22.259,22.781 22.564,22.849 22.870,22.917 C22.870,22.951 22.870,22.985 22.870,23.019 C22.938,23.019 23.006,23.019 23.074,23.019 C23.074,23.053 23.074,23.087 23.074,23.121 C23.379,23.189 23.685,23.257 23.990,23.325 C23.990,23.359 23.990,23.393 23.990,23.426 C24.092,23.426 24.194,23.426 24.296,23.426 C24.296,23.460 24.296,23.494 24.296,23.528 C24.398,23.528 24.499,23.528 24.601,23.528 C24.601,23.562 24.601,23.596 24.601,23.630 C24.703,23.630 24.805,23.630 24.907,23.630 C24.907,23.664 24.907,23.698 24.907,23.732 C25.009,23.732 25.110,23.732 25.212,23.732 C25.212,23.766 25.212,23.800 25.212,23.834 C25.552,23.902 25.891,23.970 26.231,24.038 C26.231,24.072 26.231,24.106 26.231,24.140 C26.638,24.207 27.045,24.275 27.453,24.343 C27.453,24.377 27.453,24.411 27.453,24.445 C27.555,24.445 27.656,24.445 27.758,24.445 C27.758,24.479 27.758,24.513 27.758,24.547 C28.335,24.649 28.913,24.751 29.490,24.853 C29.490,24.887 29.490,24.920 29.490,24.954 C29.659,24.954 29.829,24.954 29.999,24.954 C30.844,25.220 31.981,25.306 32.850,25.566 C33.088,25.566 33.326,25.566 33.563,25.566 C34.320,25.786 35.433,25.747 36.211,25.973 C36.686,25.973 37.162,25.973 37.637,25.973 C37.637,26.007 37.637,26.041 37.637,26.075 C38.214,26.075 38.791,26.075 39.368,26.075 C40.633,26.075 42.596,26.277 43.646,25.973 C44.121,25.973 44.596,25.973 45.071,25.973 C45.071,25.939 45.071,25.905 45.071,25.871 C45.411,25.871 45.750,25.871 46.090,25.871 C46.090,25.837 46.090,25.803 46.090,25.769 C46.361,25.769 46.633,25.769 46.905,25.769 C46.905,25.735 46.905,25.701 46.905,25.668 C47.142,25.668 47.380,25.668 47.618,25.668 C47.618,25.634 47.618,25.600 47.618,25.566 C47.855,25.566 48.093,25.566 48.330,25.566 C49.046,25.353 49.982,25.276 50.673,25.056 C50.842,25.056 51.012,25.056 51.182,25.056 C51.968,24.801 52.959,24.608 53.728,24.343 C54.000,24.309 54.271,24.275 54.543,24.241 C54.543,24.207 54.543,24.173 54.543,24.140 C54.882,24.072 55.222,24.004 55.561,23.936 C55.561,23.902 55.561,23.868 55.561,23.834 C55.663,23.834 55.765,23.834 55.867,23.834 C55.867,23.800 55.867,23.766 55.867,23.732 C55.969,23.732 56.070,23.732 56.172,23.732 C56.172,23.698 56.172,23.664 56.172,23.630 C56.274,23.630 56.376,23.630 56.478,23.630 C56.478,23.596 56.478,23.562 56.478,23.528 C56.580,23.528 56.681,23.528 56.783,23.528 C56.783,23.494 56.783,23.460 56.783,23.426 C56.885,23.426 56.987,23.426 57.089,23.426 C57.089,23.393 57.089,23.359 57.089,23.325 C57.191,23.325 57.293,23.325 57.394,23.325 C57.394,23.291 57.394,23.257 57.394,23.223 C57.496,23.223 57.598,23.223 57.700,23.223 C57.700,23.189 57.700,23.155 57.700,23.121 C57.802,23.121 57.904,23.121 58.005,23.121 C58.005,23.087 58.005,23.053 58.005,23.019 C58.107,23.019 58.209,23.019 58.311,23.019 C58.311,22.985 58.311,22.951 58.311,22.917 C58.379,22.917 58.447,22.917 58.515,22.917 C58.515,22.883 58.515,22.849 58.515,22.815 C58.718,22.781 58.922,22.747 59.126,22.713 C59.126,22.679 59.126,22.645 59.126,22.612 C59.295,22.578 59.465,22.544 59.635,22.510 C59.635,22.476 59.635,22.442 59.635,22.408 C59.703,22.408 59.771,22.408 59.839,22.408 C59.839,22.374 59.839,22.340 59.839,22.306 C59.940,22.306 60.042,22.306 60.144,22.306 C60.144,22.272 60.144,22.238 60.144,22.204 C60.212,22.204 60.280,22.204 60.348,22.204 C60.348,22.170 60.348,22.136 60.348,22.102 C60.450,22.102 60.551,22.102 60.653,22.102 C60.653,22.068 60.653,22.034 60.653,22.000 C61.044,21.875 61.688,22.138 61.774,22.306 C61.774,22.544 61.774,22.781 61.774,23.019 C61.658,23.135 61.733,23.019 61.672,23.223 C61.537,23.291 61.536,23.380 61.468,23.426 C61.400,23.426 61.332,23.426 61.264,23.426 C61.196,23.528 61.129,23.630 61.061,23.732 C60.993,23.732 60.925,23.732 60.857,23.732 C60.823,23.800 60.789,23.868 60.755,23.936 C60.653,23.970 60.551,24.004 60.450,24.038 C60.450,24.072 60.450,24.106 60.450,24.140 C60.382,24.140 60.314,24.140 60.246,24.140 C60.212,24.207 60.178,24.275 60.144,24.343 C60.076,24.343 60.008,24.343 59.940,24.343 C59.906,24.411 59.873,24.479 59.839,24.547 C59.703,24.581 59.567,24.615 59.431,24.649 C59.397,24.717 59.363,24.785 59.329,24.853 C59.194,24.887 59.058,24.920 58.922,24.954 C58.888,25.022 58.854,25.090 58.820,25.158 C58.752,25.158 58.684,25.158 58.616,25.158 C58.616,25.192 58.616,25.226 58.616,25.260 C58.549,25.260 58.481,25.260 58.413,25.260 C58.413,25.294 58.413,25.328 58.413,25.362 C58.209,25.430 58.005,25.498 57.802,25.566 C57.768,25.634 57.734,25.701 57.700,25.769 C57.564,25.803 57.428,25.837 57.293,25.871 C57.293,25.905 57.293,25.939 57.293,25.973 C57.157,26.007 57.021,26.041 56.885,26.075 C56.885,26.109 56.885,26.143 56.885,26.177 C56.783,26.177 56.681,26.177 56.580,26.177 C56.580,26.211 56.580,26.245 56.580,26.279 C56.512,26.279 56.444,26.279 56.376,26.279 C56.376,26.313 56.376,26.347 56.376,26.381 C56.172,26.448 55.969,26.516 55.765,26.584 C55.765,26.618 55.765,26.652 55.765,26.686 C55.663,26.686 55.561,26.686 55.459,26.686 C55.459,26.720 55.459,26.754 55.459,26.788 C55.324,26.822 55.188,26.856 55.052,26.890 C55.052,26.924 55.052,26.958 55.052,26.992 C54.950,26.992 54.848,26.992 54.746,26.992 C54.746,27.026 54.746,27.060 54.746,27.094 C54.679,27.094 54.611,27.094 54.543,27.094 C54.543,27.128 54.543,27.162 54.543,27.196 C54.441,27.196 54.339,27.196 54.237,27.196 C54.237,27.229 54.237,27.263 54.237,27.297 C54.169,27.297 54.101,27.297 54.034,27.297 C54.034,27.331 54.034,27.365 54.034,27.399 C53.728,27.467 53.422,27.535 53.117,27.603 C53.117,27.637 53.117,27.671 53.117,27.705 C53.015,27.705 52.913,27.705 52.811,27.705 C52.811,27.739 52.811,27.773 52.811,27.807 C52.710,27.807 52.608,27.807 52.506,27.807 C52.506,27.841 52.506,27.875 52.506,27.909 C52.404,27.909 52.302,27.909 52.200,27.909 C52.200,27.943 52.200,27.976 52.200,28.010 C52.099,28.010 51.997,28.010 51.895,28.010 C51.895,28.044 51.895,28.078 51.895,28.112 C51.793,28.112 51.691,28.112 51.589,28.112 C51.589,28.146 51.589,28.180 51.589,28.214 C51.488,28.214 51.386,28.214 51.284,28.214 C51.284,28.248 51.284,28.282 51.284,28.316 C51.046,28.350 50.809,28.384 50.571,28.418 C50.571,28.452 50.571,28.486 50.571,28.520 C50.299,28.554 50.028,28.588 49.756,28.622 C49.756,28.656 49.756,28.690 49.756,28.723 C49.620,28.723 49.485,28.723 49.349,28.723 C49.349,28.757 49.349,28.791 49.349,28.825 C49.213,28.825 49.077,28.825 48.941,28.825 C48.941,28.859 48.941,28.893 48.941,28.927 C48.636,28.961 48.330,28.995 48.025,29.029 C48.025,29.063 48.025,29.097 48.025,29.131 C47.855,29.131 47.685,29.131 47.516,29.131 C47.516,29.165 47.516,29.199 47.516,29.233 C47.312,29.233 47.108,29.233 46.905,29.233 C46.094,29.473 44.992,29.500 44.155,29.742 C43.782,29.742 43.408,29.742 43.035,29.742 C43.035,29.776 43.035,29.810 43.035,29.844 C42.390,29.844 41.745,29.844 41.100,29.844 C41.100,29.878 41.100,29.912 41.100,29.946 C40.637,30.079 39.380,29.935 39.063,29.844 C38.723,29.844 38.384,29.844 38.044,29.844 C37.351,29.843 36.559,29.800 36.008,29.640 C35.702,29.640 35.396,29.640 35.091,29.640 C35.091,29.606 35.091,29.572 35.091,29.538 C34.853,29.538 34.616,29.538 34.378,29.538 C34.378,29.504 34.378,29.471 34.378,29.437 C34.140,29.437 33.903,29.437 33.665,29.437 C33.665,29.403 33.665,29.369 33.665,29.335 C33.495,29.335 33.326,29.335 33.156,29.335 C33.156,29.301 33.156,29.267 33.156,29.233 C32.952,29.233 32.749,29.233 32.545,29.233 C32.545,29.199 32.545,29.165 32.545,29.131 C32.375,29.131 32.205,29.131 32.036,29.131 C32.036,29.097 32.036,29.063 32.036,29.029 C31.730,28.995 31.425,28.961 31.119,28.927 C31.119,28.893 31.119,28.859 31.119,28.825 C30.983,28.825 30.848,28.825 30.712,28.825 C30.712,28.791 30.712,28.757 30.712,28.723 C30.576,28.723 30.440,28.723 30.304,28.723 C30.304,28.690 30.304,28.656 30.304,28.622 C30.169,28.622 30.033,28.622 29.897,28.622 C29.897,28.588 29.897,28.554 29.897,28.520 C29.659,28.486 29.422,28.452 29.184,28.418 C29.184,28.384 29.184,28.350 29.184,28.316 C28.946,28.282 28.709,28.248 28.471,28.214 C28.471,28.180 28.471,28.146 28.471,28.112 C28.369,28.112 28.268,28.112 28.166,28.112 C28.166,28.078 28.166,28.044 28.166,28.010 C28.064,28.010 27.962,28.010 27.860,28.010 C27.860,27.976 27.860,27.943 27.860,27.909 C27.758,27.909 27.656,27.909 27.555,27.909 C27.555,27.875 27.555,27.841 27.555,27.807 C27.351,27.773 27.147,27.739 26.944,27.705 C26.944,27.671 26.944,27.637 26.944,27.603 C26.876,27.603 26.808,27.603 26.740,27.603 C26.740,27.569 26.740,27.535 26.740,27.501 C26.536,27.467 26.333,27.433 26.129,27.399 C26.129,27.365 26.129,27.331 26.129,27.297 C26.061,27.297 25.993,27.297 25.925,27.297 C25.925,27.263 25.925,27.229 25.925,27.196 C25.823,27.196 25.721,27.196 25.620,27.196 C25.620,27.162 25.620,27.128 25.620,27.094 C25.552,27.094 25.484,27.094 25.416,27.094 C25.416,27.060 25.416,27.026 25.416,26.992 C25.314,26.992 25.212,26.992 25.110,26.992 C25.110,26.958 25.110,26.924 25.110,26.890 C24.975,26.856 24.839,26.822 24.703,26.788 C24.703,26.754 24.703,26.720 24.703,26.686 C24.601,26.686 24.499,26.686 24.398,26.686 C24.398,26.652 24.398,26.618 24.398,26.584 C24.262,26.550 24.126,26.516 23.990,26.482 C23.990,26.448 23.990,26.415 23.990,26.381 C23.922,26.381 23.854,26.381 23.786,26.381 C23.786,26.347 23.786,26.313 23.786,26.279 C23.685,26.279 23.583,26.279 23.481,26.279 C23.481,26.245 23.481,26.211 23.481,26.177 C23.277,26.109 23.074,26.041 22.870,25.973 C22.870,25.939 22.870,25.905 22.870,25.871 C22.802,25.871 22.734,25.871 22.666,25.871 C22.666,25.837 22.666,25.803 22.666,25.769 C22.463,25.701 22.259,25.634 22.055,25.566 C22.021,25.498 21.987,25.430 21.953,25.362 C21.885,25.362 21.818,25.362 21.750,25.362 C21.750,25.328 21.750,25.294 21.750,25.260 C21.682,25.260 21.614,25.260 21.546,25.260 C21.546,25.226 21.546,25.192 21.546,25.158 C21.478,25.158 21.410,25.158 21.342,25.158 C21.342,25.124 21.342,25.090 21.342,25.056 C21.274,25.056 21.206,25.056 21.139,25.056 C21.139,25.022 21.139,24.988 21.139,24.954 C21.071,24.954 21.003,24.954 20.935,24.954 C20.901,24.887 20.867,24.819 20.833,24.751 C20.697,24.717 20.561,24.683 20.426,24.649 C20.392,24.581 20.358,24.513 20.324,24.445 C20.188,24.411 20.052,24.377 19.916,24.343 C19.883,24.275 19.849,24.207 19.815,24.140 C19.679,24.106 19.543,24.072 19.407,24.038 C19.373,23.970 19.339,23.902 19.305,23.834 C19.238,23.834 19.170,23.834 19.102,23.834 C19.102,23.800 19.102,23.766 19.102,23.732 C19.000,23.698 18.898,23.664 18.796,23.630 C18.762,23.562 18.728,23.494 18.694,23.426 C18.626,23.426 18.559,23.426 18.491,23.426 C18.491,23.393 18.491,23.359 18.491,23.325 C18.389,23.291 18.287,23.257 18.185,23.223 C18.151,23.155 18.117,23.087 18.083,23.019 C18.015,23.019 17.948,23.019 17.880,23.019 C17.812,22.917 17.744,22.815 17.676,22.713 C17.608,22.713 17.540,22.713 17.472,22.713 C17.438,22.645 17.404,22.578 17.370,22.510 C17.303,22.510 17.235,22.510 17.167,22.510 C17.099,22.408 17.031,22.306 16.963,22.204 C16.895,22.204 16.827,22.204 16.759,22.204 C16.691,22.102 16.624,22.000 16.556,21.898 C16.488,21.898 16.420,21.898 16.352,21.898 C16.250,21.763 16.148,21.627 16.046,21.491 C15.979,21.491 15.911,21.491 15.843,21.491 C15.707,21.321 15.571,21.151 15.435,20.982 C15.368,20.982 15.300,20.982 15.232,20.982 C15.096,20.812 14.960,20.642 14.824,20.472 C14.756,20.472 14.689,20.472 14.621,20.472 C14.451,20.269 14.281,20.065 14.111,19.861 C14.078,19.861 14.044,19.861 14.010,19.861 C14.010,19.759 14.010,19.657 14.010,19.556 C13.976,19.556 13.942,19.556 13.908,19.556 C13.976,19.420 14.044,19.284 14.111,19.148 Z"/>
</svg>