<svg 
 xmlns="http://www.w3.org/2000/svg"
 xmlns:xlink="http://www.w3.org/1999/xlink"
 width="18px" height="17px">
<path fill-rule="evenodd"  fill="rgb(255, 255, 255)"
 d="M12.275,16.557 C15.242,16.557 17.652,14.205 17.668,11.332 L17.701,7.104 L17.652,6.874 L17.508,6.584 L17.268,6.404 C16.954,6.164 15.368,6.419 14.942,6.042 C14.638,5.772 14.591,5.285 14.499,4.626 C14.331,3.349 14.222,3.281 14.018,2.849 C13.269,1.310 11.244,0.153 9.851,-0.007 L6.081,-0.007 C3.115,-0.007 0.689,2.349 0.689,5.228 L0.689,11.332 C0.689,14.205 3.115,16.557 6.081,16.557 L12.275,16.557 ZM6.150,4.270 L9.140,4.270 C9.710,4.270 10.172,4.721 10.172,5.267 C10.172,5.816 9.710,6.270 9.140,6.270 L6.150,6.270 C5.579,6.270 5.117,5.816 5.117,5.267 C5.117,4.721 5.579,4.270 6.150,4.270 ZM5.117,11.255 C5.117,10.708 5.579,10.259 6.150,10.259 L12.224,10.259 C12.791,10.259 13.253,10.708 13.253,11.255 C13.253,11.796 12.791,12.252 12.224,12.252 L6.150,12.252 C5.579,12.252 5.117,11.796 5.117,11.255 Z"/>
</svg>