<svg 
 xmlns="http://www.w3.org/2000/svg"
 xmlns:xlink="http://www.w3.org/1999/xlink"
 width="14px" height="8px">
<path fill-rule="evenodd"  fill="rgb(161, 161, 161)"
 d="M0.650,0.001 C0.827,-0.002 0.952,0.034 1.057,0.103 C1.066,0.105 1.075,0.108 1.083,0.110 C1.085,0.114 1.088,0.119 1.090,0.124 C1.094,0.124 1.099,0.124 1.103,0.124 C1.105,0.128 1.107,0.133 1.109,0.137 C1.114,0.137 1.118,0.137 1.123,0.137 C1.127,0.144 1.131,0.151 1.136,0.158 C1.206,0.210 1.259,0.272 1.319,0.335 C1.352,0.366 1.385,0.398 1.418,0.430 C1.503,0.521 1.588,0.611 1.674,0.702 C1.720,0.747 1.766,0.793 1.812,0.838 C1.921,0.954 2.030,1.070 2.140,1.185 C2.223,1.269 2.306,1.353 2.389,1.437 C2.389,1.442 2.389,1.446 2.389,1.451 C3.539,2.642 4.690,3.833 5.840,5.024 C6.041,5.235 6.243,5.446 6.444,5.657 C6.527,5.741 6.610,5.825 6.693,5.909 C6.757,5.977 6.820,6.045 6.884,6.113 C6.892,6.120 6.901,6.126 6.910,6.133 C6.934,6.158 6.970,6.216 7.008,6.222 C8.655,4.511 10.302,2.800 11.949,1.090 C12.021,1.017 12.093,0.945 12.165,0.872 C12.181,0.854 12.196,0.836 12.211,0.818 C12.261,0.766 12.314,0.722 12.356,0.661 C12.437,0.580 12.518,0.498 12.599,0.416 C12.667,0.345 12.729,0.265 12.808,0.205 C12.822,0.189 12.835,0.173 12.848,0.158 C12.852,0.158 12.857,0.158 12.861,0.158 C12.865,0.151 12.870,0.144 12.874,0.137 C12.878,0.137 12.883,0.137 12.887,0.137 C12.889,0.133 12.892,0.128 12.894,0.124 C12.898,0.124 12.903,0.124 12.907,0.124 C12.909,0.119 12.911,0.114 12.913,0.110 C12.922,0.108 12.931,0.105 12.940,0.103 C12.942,0.099 12.944,0.094 12.946,0.090 C12.955,0.087 12.964,0.085 12.973,0.083 C12.973,0.080 12.973,0.078 12.973,0.076 C12.981,0.074 12.990,0.071 12.999,0.069 C12.999,0.067 12.999,0.065 12.999,0.062 C13.005,0.062 13.012,0.062 13.018,0.062 C13.018,0.060 13.018,0.058 13.018,0.056 C13.023,0.056 13.027,0.056 13.032,0.056 C13.032,0.053 13.032,0.051 13.032,0.049 C13.038,0.049 13.045,0.049 13.051,0.049 C13.051,0.046 13.051,0.044 13.051,0.042 C13.058,0.042 13.064,0.042 13.071,0.042 C13.071,0.040 13.071,0.037 13.071,0.035 C13.078,0.035 13.084,0.035 13.091,0.035 C13.091,0.033 13.091,0.031 13.091,0.028 C13.099,0.028 13.108,0.028 13.117,0.028 C13.117,0.026 13.117,0.024 13.117,0.021 C13.126,0.021 13.134,0.021 13.143,0.021 C13.143,0.019 13.143,0.017 13.143,0.015 C13.154,0.015 13.165,0.015 13.176,0.015 C13.176,0.012 13.176,0.010 13.176,0.008 C13.193,0.008 13.211,0.008 13.228,0.008 C13.278,-0.007 13.362,0.001 13.406,0.015 C13.417,0.015 13.427,0.015 13.438,0.015 C13.438,0.017 13.438,0.019 13.438,0.021 C13.447,0.021 13.456,0.021 13.465,0.021 C13.465,0.024 13.465,0.026 13.465,0.028 C13.473,0.028 13.482,0.028 13.491,0.028 C13.491,0.031 13.491,0.033 13.491,0.035 C13.497,0.035 13.504,0.035 13.511,0.035 C13.511,0.037 13.511,0.040 13.511,0.042 C13.517,0.042 13.524,0.042 13.530,0.042 C13.530,0.044 13.530,0.046 13.530,0.049 C13.537,0.049 13.543,0.049 13.550,0.049 C13.550,0.051 13.550,0.053 13.550,0.056 C13.554,0.056 13.559,0.056 13.563,0.056 C13.563,0.058 13.563,0.060 13.563,0.062 C13.570,0.062 13.576,0.062 13.583,0.062 C13.583,0.065 13.583,0.067 13.583,0.069 C13.591,0.071 13.600,0.074 13.609,0.076 C13.609,0.078 13.609,0.080 13.609,0.083 C13.618,0.085 13.626,0.087 13.635,0.090 C13.637,0.094 13.640,0.099 13.642,0.103 C13.651,0.105 13.659,0.108 13.668,0.110 C13.670,0.114 13.672,0.119 13.675,0.124 C13.679,0.124 13.683,0.124 13.688,0.124 C13.690,0.128 13.692,0.133 13.694,0.137 C13.699,0.137 13.703,0.137 13.707,0.137 C13.714,0.146 13.721,0.155 13.727,0.164 C13.731,0.164 13.736,0.164 13.740,0.164 C13.758,0.185 13.775,0.205 13.793,0.226 C13.808,0.239 13.823,0.253 13.839,0.266 C13.839,0.271 13.839,0.276 13.839,0.280 C13.847,0.287 13.856,0.294 13.865,0.301 C13.865,0.305 13.865,0.310 13.865,0.314 C13.869,0.316 13.874,0.319 13.878,0.321 C13.880,0.328 13.882,0.335 13.885,0.341 C13.887,0.341 13.889,0.341 13.891,0.341 C13.893,0.350 13.895,0.360 13.898,0.369 C13.902,0.371 13.906,0.373 13.911,0.375 C13.913,0.384 13.915,0.394 13.917,0.403 C13.920,0.403 13.922,0.403 13.924,0.403 C13.926,0.412 13.928,0.421 13.930,0.430 C13.933,0.430 13.935,0.430 13.937,0.430 C13.939,0.441 13.941,0.453 13.944,0.464 C13.946,0.464 13.948,0.464 13.950,0.464 C13.950,0.471 13.950,0.477 13.950,0.484 C13.952,0.484 13.955,0.484 13.957,0.484 C13.957,0.491 13.957,0.498 13.957,0.505 C13.959,0.505 13.961,0.505 13.963,0.505 C13.963,0.512 13.963,0.518 13.963,0.525 C13.965,0.525 13.968,0.525 13.970,0.525 C13.970,0.532 13.970,0.539 13.970,0.546 C13.972,0.546 13.974,0.546 13.976,0.546 C13.976,0.555 13.976,0.564 13.976,0.573 C13.979,0.573 13.981,0.573 13.983,0.573 C13.985,0.600 13.987,0.627 13.990,0.654 C14.017,0.755 13.984,0.904 13.957,0.974 C13.957,0.981 13.957,0.988 13.957,0.995 C13.955,0.995 13.952,0.995 13.950,0.995 C13.950,0.999 13.950,1.004 13.950,1.008 C13.948,1.008 13.946,1.008 13.944,1.008 C13.944,1.015 13.944,1.022 13.944,1.029 C13.941,1.029 13.939,1.029 13.937,1.029 C13.933,1.042 13.928,1.056 13.924,1.070 C13.922,1.070 13.920,1.070 13.917,1.070 C13.917,1.074 13.917,1.079 13.917,1.083 C13.915,1.083 13.913,1.083 13.911,1.083 C13.909,1.092 13.906,1.101 13.904,1.110 C13.900,1.113 13.895,1.115 13.891,1.117 C13.891,1.122 13.891,1.126 13.891,1.131 C13.889,1.131 13.887,1.131 13.885,1.131 C13.882,1.138 13.880,1.144 13.878,1.151 C13.874,1.154 13.869,1.156 13.865,1.158 C13.865,1.163 13.865,1.167 13.865,1.172 C13.858,1.176 13.852,1.181 13.845,1.185 C13.845,1.190 13.845,1.194 13.845,1.199 C13.832,1.210 13.819,1.222 13.806,1.233 C13.806,1.237 13.806,1.242 13.806,1.247 C13.780,1.272 13.753,1.296 13.727,1.321 C13.712,1.340 13.696,1.358 13.681,1.376 C13.616,1.442 13.550,1.507 13.484,1.573 C13.233,1.836 12.981,2.100 12.730,2.363 C11.461,3.676 10.193,4.990 8.924,6.303 C8.699,6.539 8.474,6.775 8.248,7.011 C8.117,7.145 7.986,7.279 7.855,7.413 C7.796,7.476 7.737,7.540 7.677,7.603 C7.651,7.628 7.625,7.653 7.599,7.678 C7.555,7.726 7.511,7.773 7.468,7.821 C7.463,7.821 7.459,7.821 7.454,7.821 C7.448,7.830 7.441,7.839 7.435,7.848 C7.428,7.851 7.422,7.853 7.415,7.855 C7.413,7.860 7.411,7.864 7.408,7.869 C7.404,7.869 7.400,7.869 7.395,7.869 C7.393,7.873 7.391,7.878 7.389,7.882 C7.382,7.885 7.376,7.887 7.369,7.889 C7.369,7.891 7.369,7.894 7.369,7.896 C7.356,7.901 7.343,7.905 7.330,7.910 C7.330,7.912 7.330,7.914 7.330,7.916 C7.325,7.916 7.321,7.916 7.317,7.916 C7.317,7.919 7.317,7.921 7.317,7.923 C7.303,7.928 7.290,7.932 7.277,7.937 C7.277,7.939 7.277,7.941 7.277,7.944 C7.264,7.946 7.251,7.948 7.238,7.950 C7.238,7.953 7.238,7.955 7.238,7.957 C7.233,7.957 7.229,7.957 7.225,7.957 C7.225,7.960 7.225,7.962 7.225,7.964 C7.198,7.969 7.172,7.973 7.146,7.978 C6.934,8.045 6.693,7.946 6.569,7.855 C6.562,7.846 6.555,7.837 6.549,7.828 C6.545,7.828 6.540,7.828 6.536,7.828 C6.496,7.785 6.457,7.742 6.418,7.699 C6.394,7.676 6.370,7.653 6.345,7.631 C6.265,7.544 6.184,7.458 6.103,7.372 C5.996,7.263 5.888,7.154 5.781,7.045 C5.560,6.814 5.339,6.582 5.119,6.351 C4.852,6.077 4.585,5.802 4.318,5.528 C3.382,4.554 2.446,3.581 1.510,2.608 C1.418,2.515 1.326,2.422 1.234,2.329 C0.996,2.079 0.757,1.830 0.519,1.580 C0.462,1.523 0.405,1.467 0.348,1.410 C0.320,1.378 0.292,1.346 0.263,1.315 C0.237,1.290 0.211,1.265 0.184,1.240 C0.184,1.235 0.184,1.231 0.184,1.226 C0.171,1.215 0.158,1.203 0.145,1.192 C0.145,1.188 0.145,1.183 0.145,1.178 C0.138,1.174 0.132,1.169 0.125,1.165 C0.125,1.160 0.125,1.156 0.125,1.151 C0.121,1.149 0.117,1.147 0.112,1.144 C0.110,1.135 0.108,1.126 0.106,1.117 C0.101,1.115 0.097,1.113 0.092,1.110 C0.071,1.058 0.049,1.006 0.027,0.954 C0.027,0.945 0.027,0.936 0.027,0.927 C-0.004,0.833 -0.012,0.674 0.020,0.573 C0.020,0.564 0.020,0.555 0.020,0.546 C0.022,0.546 0.025,0.546 0.027,0.546 C0.027,0.539 0.027,0.532 0.027,0.525 C0.029,0.525 0.031,0.525 0.033,0.525 C0.033,0.518 0.033,0.512 0.033,0.505 C0.036,0.505 0.038,0.505 0.040,0.505 C0.040,0.498 0.040,0.491 0.040,0.484 C0.042,0.484 0.044,0.484 0.047,0.484 C0.047,0.477 0.047,0.471 0.047,0.464 C0.049,0.464 0.051,0.464 0.053,0.464 C0.053,0.459 0.053,0.455 0.053,0.450 C0.055,0.450 0.057,0.450 0.060,0.450 C0.060,0.443 0.060,0.437 0.060,0.430 C0.062,0.430 0.064,0.430 0.066,0.430 C0.068,0.421 0.071,0.412 0.073,0.403 C0.075,0.403 0.077,0.403 0.079,0.403 C0.082,0.394 0.084,0.384 0.086,0.375 C0.090,0.373 0.095,0.371 0.099,0.369 C0.101,0.360 0.103,0.350 0.106,0.341 C0.110,0.339 0.114,0.337 0.119,0.335 C0.119,0.330 0.119,0.325 0.119,0.321 C0.125,0.316 0.132,0.312 0.138,0.307 C0.138,0.303 0.138,0.298 0.138,0.294 C0.145,0.289 0.152,0.285 0.158,0.280 C0.158,0.276 0.158,0.271 0.158,0.266 C0.176,0.251 0.193,0.235 0.211,0.219 C0.226,0.201 0.241,0.183 0.257,0.164 C0.261,0.164 0.265,0.164 0.270,0.164 C0.274,0.158 0.278,0.151 0.283,0.144 C0.287,0.144 0.292,0.144 0.296,0.144 C0.298,0.139 0.300,0.135 0.302,0.130 C0.309,0.128 0.316,0.126 0.322,0.124 C0.322,0.121 0.322,0.119 0.322,0.117 C0.326,0.117 0.331,0.117 0.335,0.117 C0.337,0.112 0.340,0.108 0.342,0.103 C0.355,0.099 0.368,0.094 0.381,0.090 C0.383,0.085 0.386,0.080 0.388,0.076 C0.394,0.076 0.401,0.076 0.407,0.076 C0.407,0.074 0.407,0.071 0.407,0.069 C0.416,0.067 0.425,0.065 0.434,0.062 C0.434,0.060 0.434,0.058 0.434,0.056 C0.440,0.056 0.447,0.056 0.453,0.056 C0.453,0.053 0.453,0.051 0.453,0.049 C0.458,0.049 0.462,0.049 0.466,0.049 C0.466,0.046 0.466,0.044 0.466,0.042 C0.482,0.040 0.497,0.037 0.512,0.035 C0.512,0.033 0.512,0.031 0.512,0.028 C0.519,0.028 0.526,0.028 0.532,0.028 C0.532,0.026 0.532,0.024 0.532,0.021 C0.541,0.021 0.550,0.021 0.558,0.021 C0.558,0.019 0.558,0.017 0.558,0.015 C0.585,0.006 0.633,0.017 0.650,0.001 Z"/>
</svg>