<svg 
 xmlns="http://www.w3.org/2000/svg"
 xmlns:xlink="http://www.w3.org/1999/xlink"
 width="26px" height="18px">
<path fill-rule="evenodd"  fill="rgb(38, 49, 17)"
 d="M12.308,-0.000 C12.769,-0.000 13.229,-0.000 13.690,-0.000 C13.690,0.010 13.690,0.019 13.690,0.029 C13.843,0.029 13.997,0.029 14.150,0.029 C14.150,0.038 14.150,0.048 14.150,0.058 C14.256,0.058 14.362,0.058 14.467,0.058 C14.467,0.067 14.467,0.077 14.467,0.086 C14.553,0.086 14.640,0.086 14.726,0.086 C14.726,0.096 14.726,0.106 14.726,0.115 C14.793,0.115 14.860,0.115 14.928,0.115 C14.928,0.125 14.928,0.134 14.928,0.144 C14.995,0.144 15.062,0.144 15.129,0.144 C15.129,0.154 15.129,0.163 15.129,0.173 C15.196,0.173 15.263,0.173 15.331,0.173 C15.331,0.182 15.331,0.192 15.331,0.201 C15.388,0.201 15.446,0.201 15.503,0.201 C15.503,0.211 15.503,0.221 15.503,0.230 C15.551,0.230 15.599,0.230 15.647,0.230 C15.647,0.240 15.647,0.249 15.647,0.259 C15.743,0.269 15.839,0.278 15.935,0.288 C15.935,0.297 15.935,0.307 15.935,0.317 C15.983,0.317 16.031,0.317 16.079,0.317 C16.079,0.326 16.079,0.336 16.079,0.345 C16.117,0.345 16.156,0.345 16.194,0.345 C16.194,0.355 16.194,0.365 16.194,0.374 C16.242,0.374 16.290,0.374 16.338,0.374 C16.338,0.384 16.338,0.393 16.338,0.403 C16.376,0.403 16.415,0.403 16.453,0.403 C16.453,0.413 16.453,0.422 16.453,0.432 C16.491,0.432 16.530,0.432 16.568,0.432 C16.568,0.441 16.568,0.451 16.568,0.461 C16.597,0.461 16.626,0.461 16.655,0.461 C16.655,0.470 16.655,0.480 16.655,0.489 C16.731,0.499 16.808,0.509 16.885,0.518 C16.885,0.528 16.885,0.537 16.885,0.547 C16.952,0.556 17.019,0.566 17.086,0.576 C17.086,0.585 17.086,0.595 17.086,0.604 C17.115,0.604 17.144,0.604 17.173,0.604 C17.173,0.614 17.173,0.624 17.173,0.633 C17.201,0.633 17.230,0.633 17.259,0.633 C17.259,0.643 17.259,0.652 17.259,0.662 C17.288,0.662 17.317,0.662 17.345,0.662 C17.345,0.672 17.345,0.681 17.345,0.691 C17.374,0.691 17.403,0.691 17.432,0.691 C17.432,0.700 17.432,0.710 17.432,0.720 C17.470,0.720 17.508,0.720 17.547,0.720 C17.547,0.729 17.547,0.739 17.547,0.748 C17.566,0.748 17.585,0.748 17.604,0.748 C17.604,0.758 17.604,0.768 17.604,0.777 C17.633,0.777 17.662,0.777 17.691,0.777 C17.691,0.787 17.691,0.796 17.691,0.806 C17.720,0.806 17.748,0.806 17.777,0.806 C17.777,0.816 17.777,0.825 17.777,0.835 C17.863,0.854 17.950,0.873 18.036,0.892 C18.036,0.902 18.036,0.911 18.036,0.921 C18.055,0.921 18.074,0.921 18.094,0.921 C18.094,0.931 18.094,0.940 18.094,0.950 C18.122,0.950 18.151,0.950 18.180,0.950 C18.180,0.959 18.180,0.969 18.180,0.979 C18.199,0.979 18.218,0.979 18.238,0.979 C18.238,0.988 18.238,0.998 18.238,1.007 C18.286,1.017 18.334,1.027 18.382,1.036 C18.382,1.046 18.382,1.055 18.382,1.065 C18.410,1.065 18.439,1.065 18.468,1.065 C18.468,1.075 18.468,1.084 18.468,1.094 C18.487,1.094 18.506,1.094 18.525,1.094 C18.525,1.103 18.525,1.113 18.525,1.123 C18.554,1.123 18.583,1.123 18.612,1.123 C18.612,1.132 18.612,1.142 18.612,1.151 C18.650,1.161 18.689,1.171 18.727,1.180 C18.727,1.190 18.727,1.199 18.727,1.209 C18.746,1.209 18.765,1.209 18.784,1.209 C18.784,1.218 18.784,1.228 18.784,1.238 C18.813,1.238 18.842,1.238 18.871,1.238 C18.871,1.247 18.871,1.257 18.871,1.266 C18.890,1.266 18.909,1.266 18.928,1.266 C18.928,1.276 18.928,1.286 18.928,1.295 C18.986,1.314 19.044,1.334 19.101,1.353 C19.101,1.362 19.101,1.372 19.101,1.382 C19.130,1.382 19.159,1.382 19.187,1.382 C19.187,1.391 19.187,1.401 19.187,1.410 C19.245,1.430 19.303,1.449 19.360,1.468 C19.360,1.478 19.360,1.487 19.360,1.497 C19.379,1.497 19.399,1.497 19.418,1.497 C19.418,1.506 19.418,1.516 19.418,1.526 C19.437,1.526 19.456,1.526 19.475,1.526 C19.475,1.535 19.475,1.545 19.475,1.554 C19.533,1.573 19.590,1.593 19.648,1.612 C19.658,1.631 19.667,1.650 19.677,1.669 C19.696,1.669 19.715,1.669 19.734,1.669 C19.734,1.679 19.734,1.689 19.734,1.698 C19.753,1.698 19.773,1.698 19.792,1.698 C19.792,1.708 19.792,1.717 19.792,1.727 C19.811,1.727 19.830,1.727 19.849,1.727 C19.849,1.737 19.849,1.746 19.849,1.756 C19.869,1.756 19.888,1.756 19.907,1.756 C19.907,1.765 19.907,1.775 19.907,1.785 C19.926,1.785 19.945,1.785 19.965,1.785 C19.974,1.804 19.984,1.823 19.993,1.842 C20.051,1.861 20.108,1.880 20.166,1.900 C20.176,1.919 20.185,1.938 20.195,1.957 C20.233,1.967 20.272,1.976 20.310,1.986 C20.320,2.005 20.329,2.024 20.339,2.044 C20.377,2.053 20.416,2.063 20.454,2.072 C20.463,2.092 20.473,2.111 20.483,2.130 C20.502,2.130 20.521,2.130 20.540,2.130 C20.540,2.140 20.540,2.149 20.540,2.159 C20.559,2.159 20.579,2.159 20.598,2.159 C20.607,2.178 20.617,2.197 20.627,2.216 C20.646,2.216 20.665,2.216 20.684,2.216 C20.694,2.235 20.703,2.255 20.713,2.274 C20.732,2.274 20.751,2.274 20.770,2.274 C20.780,2.293 20.790,2.312 20.799,2.331 C20.818,2.331 20.838,2.331 20.857,2.331 C20.857,2.341 20.857,2.351 20.857,2.360 C20.886,2.370 20.914,2.379 20.943,2.389 C20.953,2.408 20.962,2.427 20.972,2.447 C20.991,2.447 21.010,2.447 21.030,2.447 C21.039,2.466 21.049,2.485 21.058,2.504 C21.078,2.504 21.097,2.504 21.116,2.504 C21.116,2.514 21.116,2.523 21.116,2.533 C21.145,2.543 21.173,2.552 21.202,2.562 C21.212,2.581 21.221,2.600 21.231,2.619 C21.250,2.619 21.269,2.619 21.289,2.619 C21.298,2.638 21.308,2.658 21.317,2.677 C21.346,2.686 21.375,2.696 21.404,2.706 C21.423,2.734 21.442,2.763 21.461,2.792 C21.480,2.792 21.500,2.792 21.519,2.792 C21.538,2.821 21.557,2.850 21.576,2.878 C21.596,2.878 21.615,2.878 21.634,2.878 C21.653,2.907 21.672,2.936 21.692,2.965 C21.711,2.965 21.730,2.965 21.749,2.965 C21.768,2.993 21.787,3.022 21.807,3.051 C21.826,3.051 21.845,3.051 21.864,3.051 C21.893,3.089 21.922,3.128 21.951,3.166 C21.970,3.166 21.989,3.166 22.008,3.166 C22.047,3.214 22.085,3.262 22.123,3.310 C22.142,3.310 22.162,3.310 22.181,3.310 C22.219,3.358 22.258,3.406 22.296,3.454 C22.315,3.454 22.334,3.454 22.354,3.454 C22.421,3.531 22.488,3.607 22.555,3.684 C22.574,3.684 22.593,3.684 22.613,3.684 C22.785,3.867 22.958,4.049 23.131,4.231 C23.303,4.394 23.476,4.557 23.649,4.720 C23.649,4.740 23.649,4.759 23.649,4.778 C23.716,4.836 23.783,4.893 23.850,4.951 C23.850,4.970 23.850,4.989 23.850,5.008 C23.898,5.047 23.946,5.085 23.994,5.123 C23.994,5.143 23.994,5.162 23.994,5.181 C24.042,5.219 24.090,5.258 24.138,5.296 C24.138,5.315 24.138,5.334 24.138,5.354 C24.176,5.382 24.215,5.411 24.253,5.440 C24.253,5.459 24.253,5.478 24.253,5.498 C24.282,5.517 24.311,5.536 24.340,5.555 C24.340,5.574 24.340,5.594 24.340,5.613 C24.378,5.641 24.416,5.670 24.455,5.699 C24.455,5.718 24.455,5.737 24.455,5.757 C24.474,5.766 24.493,5.776 24.512,5.785 C24.512,5.805 24.512,5.824 24.512,5.843 C24.531,5.853 24.551,5.862 24.570,5.872 C24.579,5.901 24.589,5.929 24.599,5.958 C24.627,5.977 24.656,5.996 24.685,6.016 C24.685,6.035 24.685,6.054 24.685,6.073 C24.704,6.083 24.723,6.092 24.743,6.102 C24.743,6.121 24.743,6.140 24.743,6.160 C24.762,6.169 24.781,6.179 24.800,6.188 C24.800,6.208 24.800,6.227 24.800,6.246 C24.819,6.256 24.838,6.265 24.858,6.275 C24.858,6.294 24.858,6.313 24.858,6.332 C24.877,6.342 24.896,6.351 24.915,6.361 C24.915,6.380 24.915,6.399 24.915,6.419 C24.934,6.428 24.954,6.438 24.973,6.447 C24.973,6.467 24.973,6.486 24.973,6.505 C24.992,6.515 25.011,6.524 25.030,6.534 C25.030,6.553 25.030,6.572 25.030,6.591 C25.050,6.601 25.069,6.611 25.088,6.620 C25.088,6.639 25.088,6.658 25.088,6.678 C25.107,6.687 25.126,6.697 25.146,6.706 C25.155,6.745 25.165,6.783 25.174,6.822 C25.193,6.831 25.213,6.841 25.232,6.850 C25.241,6.889 25.251,6.927 25.261,6.966 C25.280,6.975 25.299,6.985 25.318,6.994 C25.328,7.033 25.337,7.071 25.347,7.109 C25.366,7.119 25.385,7.129 25.405,7.138 C25.424,7.196 25.443,7.253 25.462,7.311 C25.481,7.320 25.500,7.330 25.520,7.340 C25.520,7.359 25.520,7.378 25.520,7.397 C25.529,7.397 25.539,7.397 25.548,7.397 C25.548,7.416 25.548,7.436 25.548,7.455 C25.558,7.455 25.568,7.455 25.577,7.455 C25.577,7.474 25.577,7.493 25.577,7.512 C25.587,7.512 25.596,7.512 25.606,7.512 C25.606,7.532 25.606,7.551 25.606,7.570 C25.616,7.570 25.625,7.570 25.635,7.570 C25.635,7.589 25.635,7.608 25.635,7.628 C25.644,7.628 25.654,7.628 25.664,7.628 C25.664,7.647 25.664,7.666 25.664,7.685 C25.683,7.695 25.702,7.704 25.721,7.714 C25.721,7.733 25.721,7.752 25.721,7.771 C25.731,7.771 25.740,7.771 25.750,7.771 C25.750,7.791 25.750,7.810 25.750,7.829 C25.760,7.829 25.769,7.829 25.779,7.829 C25.779,7.848 25.779,7.867 25.779,7.887 C25.788,7.887 25.798,7.887 25.808,7.887 C25.808,7.906 25.808,7.925 25.808,7.944 C25.876,8.073 26.060,8.400 25.980,8.664 C25.971,8.664 25.961,8.664 25.951,8.664 C25.951,8.702 25.951,8.740 25.951,8.779 C25.942,8.779 25.932,8.779 25.923,8.779 C25.923,8.798 25.923,8.817 25.923,8.836 C25.913,8.836 25.903,8.836 25.894,8.836 C25.894,8.865 25.894,8.894 25.894,8.923 C25.884,8.923 25.875,8.923 25.865,8.923 C25.846,8.980 25.827,9.038 25.808,9.095 C25.798,9.095 25.788,9.095 25.779,9.095 C25.779,9.115 25.779,9.134 25.779,9.153 C25.769,9.153 25.760,9.153 25.750,9.153 C25.740,9.191 25.731,9.230 25.721,9.268 C25.702,9.278 25.683,9.287 25.664,9.297 C25.664,9.316 25.664,9.335 25.664,9.354 C25.654,9.354 25.644,9.354 25.635,9.354 C25.635,9.374 25.635,9.393 25.635,9.412 C25.625,9.412 25.616,9.412 25.606,9.412 C25.606,9.431 25.606,9.450 25.606,9.470 C25.596,9.470 25.587,9.470 25.577,9.470 C25.577,9.489 25.577,9.508 25.577,9.527 C25.568,9.527 25.558,9.527 25.548,9.527 C25.548,9.546 25.548,9.566 25.548,9.585 C25.539,9.585 25.529,9.585 25.520,9.585 C25.520,9.604 25.520,9.623 25.520,9.642 C25.500,9.652 25.481,9.662 25.462,9.671 C25.443,9.729 25.424,9.786 25.405,9.844 C25.385,9.853 25.366,9.863 25.347,9.873 C25.337,9.911 25.328,9.949 25.318,9.988 C25.299,9.997 25.280,10.007 25.261,10.017 C25.251,10.055 25.241,10.093 25.232,10.132 C25.213,10.141 25.193,10.151 25.174,10.160 C25.165,10.199 25.155,10.237 25.146,10.276 C25.126,10.285 25.107,10.295 25.088,10.304 C25.088,10.324 25.088,10.343 25.088,10.362 C25.069,10.371 25.050,10.381 25.030,10.391 C25.030,10.410 25.030,10.429 25.030,10.448 C25.011,10.458 24.992,10.467 24.973,10.477 C24.973,10.496 24.973,10.515 24.973,10.535 C24.954,10.544 24.934,10.554 24.915,10.563 C24.915,10.583 24.915,10.602 24.915,10.621 C24.896,10.631 24.877,10.640 24.858,10.650 C24.858,10.669 24.858,10.688 24.858,10.707 C24.838,10.717 24.819,10.726 24.800,10.736 C24.800,10.755 24.800,10.774 24.800,10.794 C24.781,10.803 24.762,10.813 24.743,10.822 C24.743,10.842 24.743,10.861 24.743,10.880 C24.723,10.890 24.704,10.899 24.685,10.909 C24.685,10.928 24.685,10.947 24.685,10.966 C24.666,10.976 24.647,10.986 24.627,10.995 C24.618,11.024 24.608,11.053 24.599,11.081 C24.570,11.101 24.541,11.120 24.512,11.139 C24.512,11.158 24.512,11.177 24.512,11.197 C24.493,11.206 24.474,11.216 24.455,11.225 C24.455,11.245 24.455,11.264 24.455,11.283 C24.416,11.312 24.378,11.341 24.340,11.369 C24.340,11.388 24.340,11.408 24.340,11.427 C24.311,11.446 24.282,11.465 24.253,11.484 C24.253,11.504 24.253,11.523 24.253,11.542 C24.215,11.571 24.176,11.600 24.138,11.628 C24.138,11.648 24.138,11.667 24.138,11.686 C24.090,11.724 24.042,11.763 23.994,11.801 C23.994,11.820 23.994,11.839 23.994,11.859 C23.946,11.897 23.898,11.935 23.850,11.974 C23.850,11.993 23.850,12.012 23.850,12.031 C23.783,12.089 23.716,12.146 23.649,12.204 C23.464,12.460 23.235,12.647 23.016,12.866 C22.881,13.010 22.747,13.154 22.613,13.298 C22.593,13.298 22.574,13.298 22.555,13.298 C22.488,13.375 22.421,13.451 22.354,13.528 C22.334,13.528 22.315,13.528 22.296,13.528 C22.258,13.576 22.219,13.624 22.181,13.672 C22.162,13.672 22.142,13.672 22.123,13.672 C22.085,13.720 22.047,13.768 22.008,13.816 C21.989,13.816 21.970,13.816 21.951,13.816 C21.922,13.854 21.893,13.893 21.864,13.931 C21.835,13.941 21.807,13.950 21.778,13.960 C21.768,13.979 21.759,13.998 21.749,14.017 C21.730,14.017 21.711,14.017 21.692,14.017 C21.672,14.046 21.653,14.075 21.634,14.104 C21.615,14.104 21.596,14.104 21.576,14.104 C21.557,14.132 21.538,14.161 21.519,14.190 C21.500,14.190 21.480,14.190 21.461,14.190 C21.442,14.219 21.423,14.248 21.404,14.276 C21.385,14.276 21.365,14.276 21.346,14.276 C21.327,14.305 21.308,14.334 21.289,14.363 C21.269,14.363 21.250,14.363 21.231,14.363 C21.221,14.382 21.212,14.401 21.202,14.420 C21.173,14.430 21.145,14.440 21.116,14.449 C21.116,14.459 21.116,14.468 21.116,14.478 C21.097,14.478 21.078,14.478 21.058,14.478 C21.049,14.497 21.039,14.516 21.030,14.535 C21.010,14.535 20.991,14.535 20.972,14.535 C20.962,14.555 20.953,14.574 20.943,14.593 C20.924,14.593 20.905,14.593 20.886,14.593 C20.876,14.612 20.866,14.631 20.857,14.651 C20.838,14.651 20.818,14.651 20.799,14.651 C20.790,14.670 20.780,14.689 20.770,14.708 C20.751,14.708 20.732,14.708 20.713,14.708 C20.703,14.727 20.694,14.747 20.684,14.766 C20.665,14.766 20.646,14.766 20.627,14.766 C20.617,14.785 20.607,14.804 20.598,14.823 C20.559,14.833 20.521,14.842 20.483,14.852 C20.473,14.871 20.463,14.890 20.454,14.910 C20.416,14.919 20.377,14.929 20.339,14.938 C20.329,14.958 20.320,14.977 20.310,14.996 C20.272,15.006 20.233,15.015 20.195,15.025 C20.185,15.044 20.176,15.063 20.166,15.082 C20.128,15.092 20.089,15.102 20.051,15.111 C20.051,15.121 20.051,15.130 20.051,15.140 C20.032,15.140 20.013,15.140 19.993,15.140 C19.984,15.159 19.974,15.178 19.965,15.197 C19.945,15.197 19.926,15.197 19.907,15.197 C19.907,15.207 19.907,15.217 19.907,15.226 C19.888,15.226 19.869,15.226 19.849,15.226 C19.849,15.236 19.849,15.245 19.849,15.255 C19.830,15.255 19.811,15.255 19.792,15.255 C19.792,15.265 19.792,15.274 19.792,15.284 C19.773,15.284 19.753,15.284 19.734,15.284 C19.734,15.293 19.734,15.303 19.734,15.313 C19.715,15.313 19.696,15.313 19.677,15.313 C19.667,15.332 19.658,15.351 19.648,15.370 C19.590,15.389 19.533,15.409 19.475,15.428 C19.475,15.437 19.475,15.447 19.475,15.457 C19.456,15.457 19.437,15.457 19.418,15.457 C19.418,15.466 19.418,15.476 19.418,15.485 C19.399,15.485 19.379,15.485 19.360,15.485 C19.360,15.495 19.360,15.504 19.360,15.514 C19.303,15.533 19.245,15.552 19.187,15.572 C19.187,15.581 19.187,15.591 19.187,15.600 C19.159,15.600 19.130,15.600 19.101,15.600 C19.101,15.610 19.101,15.620 19.101,15.629 C19.082,15.629 19.063,15.629 19.044,15.629 C19.044,15.639 19.044,15.648 19.044,15.658 C18.986,15.677 18.928,15.696 18.871,15.716 C18.871,15.725 18.871,15.735 18.871,15.744 C18.842,15.744 18.813,15.744 18.784,15.744 C18.784,15.754 18.784,15.764 18.784,15.773 C18.765,15.773 18.746,15.773 18.727,15.773 C18.727,15.783 18.727,15.792 18.727,15.802 C18.708,15.802 18.689,15.802 18.669,15.802 C18.669,15.811 18.669,15.821 18.669,15.831 C18.650,15.831 18.631,15.831 18.612,15.831 C18.612,15.840 18.612,15.850 18.612,15.859 C18.583,15.859 18.554,15.859 18.525,15.859 C18.525,15.869 18.525,15.879 18.525,15.888 C18.506,15.888 18.487,15.888 18.468,15.888 C18.468,15.898 18.468,15.907 18.468,15.917 C18.439,15.917 18.410,15.917 18.382,15.917 C18.382,15.927 18.382,15.936 18.382,15.946 C18.362,15.946 18.343,15.946 18.324,15.946 C18.324,15.955 18.324,15.965 18.324,15.975 C18.276,15.984 18.228,15.994 18.180,16.003 C18.180,16.013 18.180,16.023 18.180,16.032 C18.151,16.032 18.122,16.032 18.094,16.032 C18.094,16.042 18.094,16.051 18.094,16.061 C18.074,16.061 18.055,16.061 18.036,16.061 C18.036,16.071 18.036,16.080 18.036,16.090 C18.007,16.090 17.979,16.090 17.950,16.090 C17.950,16.099 17.950,16.109 17.950,16.119 C17.921,16.119 17.892,16.119 17.863,16.119 C17.863,16.128 17.863,16.138 17.863,16.147 C17.835,16.147 17.806,16.147 17.777,16.147 C17.777,16.157 17.777,16.166 17.777,16.176 C17.748,16.176 17.720,16.176 17.691,16.176 C17.691,16.186 17.691,16.195 17.691,16.205 C17.662,16.205 17.633,16.205 17.604,16.205 C17.604,16.214 17.604,16.224 17.604,16.234 C17.585,16.234 17.566,16.234 17.547,16.234 C17.547,16.243 17.547,16.253 17.547,16.262 C17.508,16.262 17.470,16.262 17.432,16.262 C17.432,16.272 17.432,16.282 17.432,16.291 C17.403,16.291 17.374,16.291 17.345,16.291 C17.345,16.301 17.345,16.310 17.345,16.320 C17.317,16.320 17.288,16.320 17.259,16.320 C17.259,16.330 17.259,16.339 17.259,16.349 C17.230,16.349 17.201,16.349 17.173,16.349 C17.173,16.358 17.173,16.368 17.173,16.378 C17.144,16.378 17.115,16.378 17.086,16.378 C17.086,16.387 17.086,16.397 17.086,16.406 C17.019,16.416 16.952,16.426 16.885,16.435 C16.885,16.445 16.885,16.454 16.885,16.464 C16.779,16.483 16.674,16.502 16.568,16.521 C16.568,16.531 16.568,16.541 16.568,16.550 C16.443,16.569 16.319,16.589 16.194,16.608 C15.990,16.673 15.713,16.717 15.503,16.781 C15.379,16.790 15.254,16.800 15.129,16.809 C15.129,16.819 15.129,16.829 15.129,16.838 C15.062,16.838 14.995,16.838 14.928,16.838 C14.928,16.848 14.928,16.857 14.928,16.867 C14.860,16.867 14.793,16.867 14.726,16.867 C14.726,16.876 14.726,16.886 14.726,16.896 C14.640,16.896 14.553,16.896 14.467,16.896 C14.467,16.905 14.467,16.915 14.467,16.924 C14.208,16.934 13.949,16.944 13.690,16.953 C13.464,17.016 12.534,17.017 12.308,16.953 C12.155,16.953 12.001,16.953 11.848,16.953 C11.848,16.944 11.848,16.934 11.848,16.924 C11.742,16.924 11.637,16.924 11.531,16.924 C11.531,16.915 11.531,16.905 11.531,16.896 C11.445,16.896 11.358,16.896 11.272,16.896 C11.272,16.886 11.272,16.876 11.272,16.867 C11.205,16.867 11.138,16.867 11.071,16.867 C11.071,16.857 11.071,16.848 11.071,16.838 C11.003,16.838 10.936,16.838 10.869,16.838 C10.869,16.829 10.869,16.819 10.869,16.809 C10.802,16.809 10.735,16.809 10.668,16.809 C10.668,16.800 10.668,16.790 10.668,16.781 C10.610,16.781 10.553,16.781 10.495,16.781 C10.495,16.771 10.495,16.761 10.495,16.752 C10.447,16.752 10.399,16.752 10.351,16.752 C10.351,16.742 10.351,16.733 10.351,16.723 C10.207,16.704 10.063,16.685 9.919,16.665 C9.919,16.656 9.919,16.646 9.919,16.637 C9.833,16.627 9.747,16.617 9.660,16.608 C9.529,16.565 9.357,16.508 9.229,16.464 C9.190,16.464 9.152,16.464 9.113,16.464 C9.113,16.454 9.113,16.445 9.113,16.435 C9.085,16.435 9.056,16.435 9.027,16.435 C9.027,16.426 9.027,16.416 9.027,16.406 C8.989,16.406 8.950,16.406 8.912,16.406 C8.912,16.397 8.912,16.387 8.912,16.378 C8.883,16.378 8.854,16.378 8.826,16.378 C8.826,16.368 8.826,16.358 8.826,16.349 C8.797,16.349 8.768,16.349 8.739,16.349 C8.739,16.339 8.739,16.330 8.739,16.320 C8.710,16.320 8.682,16.320 8.653,16.320 C8.653,16.310 8.653,16.301 8.653,16.291 C8.624,16.291 8.595,16.291 8.567,16.291 C8.567,16.282 8.567,16.272 8.567,16.262 C8.538,16.262 8.509,16.262 8.480,16.262 C8.480,16.253 8.480,16.243 8.480,16.234 C8.451,16.234 8.423,16.234 8.394,16.234 C8.394,16.224 8.394,16.214 8.394,16.205 C8.365,16.205 8.336,16.205 8.307,16.205 C8.307,16.195 8.307,16.186 8.307,16.176 C8.221,16.157 8.135,16.138 8.048,16.119 C8.048,16.109 8.048,16.099 8.048,16.090 C8.029,16.090 8.010,16.090 7.991,16.090 C7.991,16.080 7.991,16.071 7.991,16.061 C7.933,16.051 7.876,16.042 7.818,16.032 C7.818,16.023 7.818,16.013 7.818,16.003 C7.799,16.003 7.780,16.003 7.761,16.003 C7.761,15.994 7.761,15.984 7.761,15.975 C7.732,15.975 7.703,15.975 7.674,15.975 C7.674,15.965 7.674,15.955 7.674,15.946 C7.655,15.946 7.636,15.946 7.617,15.946 C7.617,15.936 7.617,15.927 7.617,15.917 C7.588,15.917 7.559,15.917 7.530,15.917 C7.530,15.907 7.530,15.898 7.530,15.888 C7.511,15.888 7.492,15.888 7.473,15.888 C7.473,15.879 7.473,15.869 7.473,15.859 C7.444,15.859 7.415,15.859 7.386,15.859 C7.386,15.850 7.386,15.840 7.386,15.831 C7.367,15.831 7.348,15.831 7.329,15.831 C7.329,15.821 7.329,15.811 7.329,15.802 C7.310,15.802 7.290,15.802 7.271,15.802 C7.271,15.792 7.271,15.783 7.271,15.773 C7.252,15.773 7.233,15.773 7.214,15.773 C7.214,15.764 7.214,15.754 7.214,15.744 C7.185,15.744 7.156,15.744 7.127,15.744 C7.127,15.735 7.127,15.725 7.127,15.716 C7.108,15.716 7.089,15.716 7.070,15.716 C7.070,15.706 7.070,15.696 7.070,15.687 C7.012,15.668 6.955,15.648 6.897,15.629 C6.897,15.620 6.897,15.610 6.897,15.600 C6.868,15.600 6.840,15.600 6.811,15.600 C6.811,15.591 6.811,15.581 6.811,15.572 C6.753,15.552 6.696,15.533 6.638,15.514 C6.638,15.504 6.638,15.495 6.638,15.485 C6.619,15.485 6.600,15.485 6.581,15.485 C6.581,15.476 6.581,15.466 6.581,15.457 C6.523,15.437 6.465,15.418 6.408,15.399 C6.398,15.380 6.389,15.361 6.379,15.341 C6.360,15.341 6.341,15.341 6.321,15.341 C6.321,15.332 6.321,15.322 6.321,15.313 C6.302,15.313 6.283,15.313 6.264,15.313 C6.264,15.303 6.264,15.293 6.264,15.284 C6.245,15.284 6.226,15.284 6.206,15.284 C6.206,15.274 6.206,15.265 6.206,15.255 C6.187,15.255 6.168,15.255 6.149,15.255 C6.149,15.245 6.149,15.236 6.149,15.226 C6.110,15.217 6.072,15.207 6.034,15.197 C6.024,15.178 6.014,15.159 6.005,15.140 C5.947,15.121 5.890,15.102 5.832,15.082 C5.823,15.063 5.813,15.044 5.803,15.025 C5.784,15.025 5.765,15.025 5.746,15.025 C5.746,15.015 5.746,15.006 5.746,14.996 C5.727,14.996 5.707,14.996 5.688,14.996 C5.679,14.977 5.669,14.958 5.659,14.938 C5.621,14.929 5.583,14.919 5.544,14.910 C5.535,14.890 5.525,14.871 5.516,14.852 C5.496,14.852 5.477,14.852 5.458,14.852 C5.458,14.842 5.458,14.833 5.458,14.823 C5.439,14.823 5.420,14.823 5.400,14.823 C5.400,14.814 5.400,14.804 5.400,14.794 C5.372,14.785 5.343,14.775 5.314,14.766 C5.304,14.747 5.295,14.727 5.285,14.708 C5.266,14.708 5.247,14.708 5.228,14.708 C5.218,14.689 5.209,14.670 5.199,14.651 C5.180,14.651 5.161,14.651 5.141,14.651 C5.132,14.631 5.122,14.612 5.113,14.593 C5.093,14.593 5.074,14.593 5.055,14.593 C5.045,14.574 5.036,14.555 5.026,14.535 C5.007,14.535 4.988,14.535 4.969,14.535 C4.959,14.516 4.949,14.497 4.940,14.478 C4.921,14.478 4.901,14.478 4.882,14.478 C4.882,14.468 4.882,14.459 4.882,14.449 C4.854,14.440 4.825,14.430 4.796,14.420 C4.786,14.401 4.777,14.382 4.767,14.363 C4.748,14.363 4.729,14.363 4.710,14.363 C4.690,14.334 4.671,14.305 4.652,14.276 C4.633,14.276 4.614,14.276 4.594,14.276 C4.575,14.248 4.556,14.219 4.537,14.190 C4.518,14.190 4.499,14.190 4.479,14.190 C4.460,14.161 4.441,14.132 4.422,14.104 C4.403,14.104 4.383,14.104 4.364,14.104 C4.345,14.075 4.326,14.046 4.307,14.017 C4.287,14.017 4.268,14.017 4.249,14.017 C4.230,13.989 4.211,13.960 4.192,13.931 C4.172,13.931 4.153,13.931 4.134,13.931 C4.124,13.912 4.115,13.893 4.105,13.873 C4.096,13.873 4.086,13.873 4.076,13.873 C4.067,13.854 4.057,13.835 4.048,13.816 C4.028,13.816 4.009,13.816 3.990,13.816 C3.952,13.768 3.913,13.720 3.875,13.672 C3.856,13.672 3.837,13.672 3.817,13.672 C3.779,13.624 3.741,13.576 3.702,13.528 C3.406,13.314 3.179,13.062 2.925,12.808 C2.743,12.636 2.560,12.463 2.378,12.290 C2.378,12.271 2.378,12.252 2.378,12.233 C2.301,12.166 2.225,12.098 2.148,12.031 C2.148,12.012 2.148,11.993 2.148,11.974 C2.100,11.935 2.052,11.897 2.004,11.859 C2.004,11.839 2.004,11.820 2.004,11.801 C1.956,11.763 1.908,11.724 1.860,11.686 C1.860,11.667 1.860,11.648 1.860,11.628 C1.822,11.600 1.783,11.571 1.745,11.542 C1.745,11.523 1.745,11.504 1.745,11.484 C1.716,11.465 1.687,11.446 1.659,11.427 C1.659,11.408 1.659,11.388 1.659,11.369 C1.630,11.350 1.601,11.331 1.572,11.312 C1.572,11.293 1.572,11.273 1.572,11.254 C1.543,11.235 1.515,11.216 1.486,11.197 C1.486,11.177 1.486,11.158 1.486,11.139 C1.457,11.120 1.428,11.101 1.400,11.081 C1.400,11.062 1.400,11.043 1.400,11.024 C1.371,11.005 1.342,10.986 1.313,10.966 C1.313,10.947 1.313,10.928 1.313,10.909 C1.294,10.899 1.275,10.890 1.256,10.880 C1.256,10.861 1.256,10.842 1.256,10.822 C1.236,10.813 1.217,10.803 1.198,10.794 C1.198,10.774 1.198,10.755 1.198,10.736 C1.179,10.726 1.160,10.717 1.141,10.707 C1.141,10.688 1.141,10.669 1.141,10.650 C1.121,10.640 1.102,10.631 1.083,10.621 C1.083,10.602 1.083,10.583 1.083,10.563 C1.064,10.554 1.045,10.544 1.025,10.535 C1.025,10.515 1.025,10.496 1.025,10.477 C1.006,10.467 0.987,10.458 0.968,10.448 C0.968,10.429 0.968,10.410 0.968,10.391 C0.949,10.381 0.929,10.371 0.910,10.362 C0.910,10.343 0.910,10.324 0.910,10.304 C0.891,10.295 0.872,10.285 0.853,10.276 C0.843,10.237 0.834,10.199 0.824,10.160 C0.805,10.151 0.786,10.141 0.766,10.132 C0.757,10.093 0.747,10.055 0.738,10.017 C0.718,10.007 0.699,9.997 0.680,9.988 C0.670,9.949 0.661,9.911 0.651,9.873 C0.632,9.863 0.613,9.853 0.594,9.844 C0.594,9.825 0.594,9.805 0.594,9.786 C0.584,9.786 0.574,9.786 0.565,9.786 C0.565,9.767 0.565,9.748 0.565,9.729 C0.555,9.729 0.546,9.729 0.536,9.729 C0.536,9.709 0.536,9.690 0.536,9.671 C0.517,9.662 0.498,9.652 0.479,9.642 C0.459,9.585 0.440,9.527 0.421,9.470 C0.411,9.470 0.402,9.470 0.392,9.470 C0.392,9.450 0.392,9.431 0.392,9.412 C0.383,9.412 0.373,9.412 0.363,9.412 C0.363,9.393 0.363,9.374 0.363,9.354 C0.354,9.354 0.344,9.354 0.335,9.354 C0.335,9.335 0.335,9.316 0.335,9.297 C0.315,9.287 0.296,9.278 0.277,9.268 C0.277,9.249 0.277,9.230 0.277,9.211 C0.267,9.211 0.258,9.211 0.248,9.211 C0.248,9.191 0.248,9.172 0.248,9.153 C0.239,9.153 0.229,9.153 0.219,9.153 C0.219,9.134 0.219,9.115 0.219,9.095 C0.210,9.095 0.200,9.095 0.191,9.095 C0.191,9.076 0.191,9.057 0.191,9.038 C0.181,9.038 0.171,9.038 0.162,9.038 C0.162,9.019 0.162,9.000 0.162,8.980 C0.152,8.980 0.143,8.980 0.133,8.980 C0.133,8.961 0.133,8.942 0.133,8.923 C0.124,8.923 0.114,8.923 0.104,8.923 C0.104,8.894 0.104,8.865 0.104,8.836 C0.060,8.734 -0.043,8.517 0.018,8.318 C0.028,8.318 0.037,8.318 0.047,8.318 C0.047,8.280 0.047,8.242 0.047,8.203 C0.056,8.203 0.066,8.203 0.076,8.203 C0.076,8.184 0.076,8.165 0.076,8.146 C0.085,8.146 0.095,8.146 0.104,8.146 C0.104,8.117 0.104,8.088 0.104,8.059 C0.114,8.059 0.124,8.059 0.133,8.059 C0.152,8.002 0.172,7.944 0.191,7.887 C0.200,7.887 0.210,7.887 0.219,7.887 C0.219,7.867 0.219,7.848 0.219,7.829 C0.229,7.829 0.239,7.829 0.248,7.829 C0.258,7.791 0.267,7.752 0.277,7.714 C0.296,7.704 0.315,7.695 0.335,7.685 C0.335,7.666 0.335,7.647 0.335,7.628 C0.344,7.628 0.354,7.628 0.363,7.628 C0.363,7.608 0.363,7.589 0.363,7.570 C0.373,7.570 0.383,7.570 0.392,7.570 C0.392,7.551 0.392,7.532 0.392,7.512 C0.402,7.512 0.411,7.512 0.421,7.512 C0.421,7.493 0.421,7.474 0.421,7.455 C0.431,7.455 0.440,7.455 0.450,7.455 C0.459,7.416 0.469,7.378 0.479,7.340 C0.498,7.330 0.517,7.320 0.536,7.311 C0.555,7.253 0.574,7.196 0.594,7.138 C0.613,7.129 0.632,7.119 0.651,7.109 C0.661,7.071 0.670,7.033 0.680,6.994 C0.699,6.985 0.718,6.975 0.738,6.966 C0.747,6.927 0.757,6.889 0.766,6.850 C0.786,6.841 0.805,6.831 0.824,6.822 C0.834,6.783 0.843,6.745 0.853,6.706 C0.872,6.697 0.891,6.687 0.910,6.678 C0.910,6.658 0.910,6.639 0.910,6.620 C0.929,6.611 0.949,6.601 0.968,6.591 C0.968,6.572 0.968,6.553 0.968,6.534 C0.987,6.524 1.006,6.515 1.025,6.505 C1.025,6.486 1.025,6.467 1.025,6.447 C1.045,6.438 1.064,6.428 1.083,6.419 C1.083,6.399 1.083,6.380 1.083,6.361 C1.102,6.351 1.121,6.342 1.141,6.332 C1.141,6.313 1.141,6.294 1.141,6.275 C1.160,6.265 1.179,6.256 1.198,6.246 C1.198,6.227 1.198,6.208 1.198,6.188 C1.208,6.188 1.217,6.188 1.227,6.188 C1.236,6.160 1.246,6.131 1.256,6.102 C1.275,6.092 1.294,6.083 1.313,6.073 C1.313,6.054 1.313,6.035 1.313,6.016 C1.342,5.996 1.371,5.977 1.400,5.958 C1.400,5.939 1.400,5.920 1.400,5.901 C1.419,5.891 1.438,5.881 1.457,5.872 C1.467,5.843 1.476,5.814 1.486,5.785 C1.515,5.766 1.543,5.747 1.572,5.728 C1.572,5.709 1.572,5.689 1.572,5.670 C1.601,5.651 1.630,5.632 1.659,5.613 C1.659,5.594 1.659,5.574 1.659,5.555 C1.687,5.536 1.716,5.517 1.745,5.498 C1.745,5.478 1.745,5.459 1.745,5.440 C1.783,5.411 1.822,5.382 1.860,5.354 C1.860,5.334 1.860,5.315 1.860,5.296 C1.908,5.258 1.956,5.219 2.004,5.181 C2.004,5.162 2.004,5.143 2.004,5.123 C2.052,5.085 2.100,5.047 2.148,5.008 C2.148,4.989 2.148,4.970 2.148,4.951 C2.225,4.884 2.301,4.816 2.378,4.749 C2.556,4.504 2.773,4.326 2.983,4.116 C3.117,3.972 3.251,3.828 3.386,3.684 C3.405,3.684 3.424,3.684 3.443,3.684 C3.510,3.607 3.577,3.531 3.645,3.454 C3.664,3.454 3.683,3.454 3.702,3.454 C3.741,3.406 3.779,3.358 3.817,3.310 C3.837,3.310 3.856,3.310 3.875,3.310 C3.913,3.262 3.952,3.214 3.990,3.166 C4.009,3.166 4.028,3.166 4.048,3.166 C4.076,3.128 4.105,3.089 4.134,3.051 C4.163,3.041 4.192,3.032 4.220,3.022 C4.230,3.003 4.239,2.984 4.249,2.965 C4.268,2.965 4.287,2.965 4.307,2.965 C4.326,2.936 4.345,2.907 4.364,2.878 C4.383,2.878 4.403,2.878 4.422,2.878 C4.441,2.850 4.460,2.821 4.479,2.792 C4.499,2.792 4.518,2.792 4.537,2.792 C4.556,2.763 4.575,2.734 4.594,2.706 C4.614,2.706 4.633,2.706 4.652,2.706 C4.671,2.677 4.690,2.648 4.710,2.619 C4.729,2.619 4.748,2.619 4.767,2.619 C4.777,2.600 4.786,2.581 4.796,2.562 C4.815,2.562 4.834,2.562 4.854,2.562 C4.863,2.543 4.873,2.523 4.882,2.504 C4.901,2.504 4.921,2.504 4.940,2.504 C4.949,2.485 4.959,2.466 4.969,2.447 C4.988,2.447 5.007,2.447 5.026,2.447 C5.036,2.427 5.045,2.408 5.055,2.389 C5.074,2.389 5.093,2.389 5.113,2.389 C5.122,2.370 5.132,2.351 5.141,2.331 C5.161,2.331 5.180,2.331 5.199,2.331 C5.209,2.312 5.218,2.293 5.228,2.274 C5.247,2.274 5.266,2.274 5.285,2.274 C5.295,2.255 5.304,2.235 5.314,2.216 C5.333,2.216 5.352,2.216 5.372,2.216 C5.381,2.197 5.391,2.178 5.400,2.159 C5.439,2.149 5.477,2.140 5.516,2.130 C5.525,2.111 5.535,2.092 5.544,2.072 C5.583,2.063 5.621,2.053 5.659,2.044 C5.669,2.024 5.679,2.005 5.688,1.986 C5.727,1.976 5.765,1.967 5.803,1.957 C5.813,1.938 5.823,1.919 5.832,1.900 C5.890,1.880 5.947,1.861 6.005,1.842 C6.014,1.823 6.024,1.804 6.034,1.785 C6.053,1.785 6.072,1.785 6.091,1.785 C6.091,1.775 6.091,1.765 6.091,1.756 C6.110,1.756 6.130,1.756 6.149,1.756 C6.149,1.746 6.149,1.737 6.149,1.727 C6.168,1.727 6.187,1.727 6.206,1.727 C6.206,1.717 6.206,1.708 6.206,1.698 C6.226,1.698 6.245,1.698 6.264,1.698 C6.264,1.689 6.264,1.679 6.264,1.669 C6.302,1.660 6.341,1.650 6.379,1.641 C6.875,1.329 7.486,1.108 8.048,0.863 C8.077,0.863 8.106,0.863 8.135,0.863 C8.135,0.854 8.135,0.844 8.135,0.835 C8.164,0.835 8.192,0.835 8.221,0.835 C8.221,0.825 8.221,0.816 8.221,0.806 C8.250,0.806 8.279,0.806 8.307,0.806 C8.307,0.796 8.307,0.787 8.307,0.777 C8.336,0.777 8.365,0.777 8.394,0.777 C8.394,0.768 8.394,0.758 8.394,0.748 C8.423,0.748 8.451,0.748 8.480,0.748 C8.480,0.739 8.480,0.729 8.480,0.720 C8.509,0.720 8.538,0.720 8.567,0.720 C8.567,0.710 8.567,0.700 8.567,0.691 C8.595,0.691 8.624,0.691 8.653,0.691 C8.653,0.681 8.653,0.672 8.653,0.662 C8.682,0.662 8.710,0.662 8.739,0.662 C8.739,0.652 8.739,0.643 8.739,0.633 C8.768,0.633 8.797,0.633 8.826,0.633 C8.826,0.624 8.826,0.614 8.826,0.604 C8.854,0.604 8.883,0.604 8.912,0.604 C8.912,0.595 8.912,0.585 8.912,0.576 C8.979,0.566 9.046,0.556 9.113,0.547 C9.113,0.537 9.113,0.528 9.113,0.518 C9.219,0.499 9.324,0.480 9.430,0.461 C9.430,0.451 9.430,0.441 9.430,0.432 C9.593,0.403 9.756,0.374 9.919,0.345 C9.919,0.336 9.919,0.326 9.919,0.317 C9.967,0.317 10.015,0.317 10.063,0.317 C10.305,0.241 10.616,0.218 10.869,0.144 C10.936,0.144 11.003,0.144 11.071,0.144 C11.071,0.134 11.071,0.125 11.071,0.115 C11.138,0.115 11.205,0.115 11.272,0.115 C11.272,0.106 11.272,0.096 11.272,0.086 C11.358,0.086 11.445,0.086 11.531,0.086 C11.531,0.077 11.531,0.067 11.531,0.058 C11.637,0.058 11.742,0.058 11.848,0.058 C11.848,0.048 11.848,0.038 11.848,0.029 C11.986,-0.011 12.216,0.082 12.308,-0.000 ZM12.308,1.813 C12.241,1.868 12.076,1.832 11.963,1.842 C11.771,1.861 11.579,1.880 11.387,1.900 C11.226,1.947 10.998,1.968 10.840,2.015 C10.783,2.015 10.725,2.015 10.668,2.015 C10.668,2.024 10.668,2.034 10.668,2.044 C10.572,2.053 10.476,2.063 10.380,2.072 C10.380,2.082 10.380,2.092 10.380,2.101 C10.341,2.101 10.303,2.101 10.265,2.101 C10.265,2.111 10.265,2.120 10.265,2.130 C10.226,2.130 10.188,2.130 10.150,2.130 C10.150,2.140 10.150,2.149 10.150,2.159 C10.102,2.159 10.054,2.159 10.006,2.159 C10.006,2.168 10.006,2.178 10.006,2.188 C9.967,2.188 9.929,2.188 9.891,2.188 C9.891,2.197 9.891,2.207 9.891,2.216 C9.862,2.216 9.833,2.216 9.804,2.216 C9.804,2.226 9.804,2.235 9.804,2.245 C9.727,2.255 9.651,2.264 9.574,2.274 C9.574,2.283 9.574,2.293 9.574,2.303 C9.545,2.303 9.516,2.303 9.488,2.303 C9.488,2.312 9.488,2.322 9.488,2.331 C9.459,2.331 9.430,2.331 9.401,2.331 C9.401,2.341 9.401,2.351 9.401,2.360 C9.305,2.379 9.209,2.399 9.113,2.418 C9.113,2.427 9.113,2.437 9.113,2.447 C9.085,2.447 9.056,2.447 9.027,2.447 C9.027,2.456 9.027,2.466 9.027,2.475 C8.998,2.475 8.969,2.475 8.941,2.475 C8.941,2.485 8.941,2.495 8.941,2.504 C8.912,2.504 8.883,2.504 8.854,2.504 C8.854,2.514 8.854,2.523 8.854,2.533 C8.835,2.533 8.816,2.533 8.797,2.533 C8.797,2.543 8.797,2.552 8.797,2.562 C8.739,2.571 8.682,2.581 8.624,2.590 C8.624,2.600 8.624,2.610 8.624,2.619 C8.605,2.619 8.586,2.619 8.567,2.619 C8.567,2.629 8.567,2.638 8.567,2.648 C8.509,2.658 8.451,2.667 8.394,2.677 C8.394,2.686 8.394,2.696 8.394,2.706 C8.355,2.715 8.317,2.725 8.279,2.734 C8.279,2.744 8.279,2.754 8.279,2.763 C8.250,2.763 8.221,2.763 8.192,2.763 C8.192,2.773 8.192,2.782 8.192,2.792 C8.173,2.792 8.154,2.792 8.135,2.792 C8.135,2.802 8.135,2.811 8.135,2.821 C8.106,2.821 8.077,2.821 8.048,2.821 C8.048,2.830 8.048,2.840 8.048,2.850 C8.010,2.859 7.972,2.869 7.933,2.878 C7.933,2.888 7.933,2.897 7.933,2.907 C7.914,2.907 7.895,2.907 7.876,2.907 C7.876,2.917 7.876,2.926 7.876,2.936 C7.857,2.936 7.837,2.936 7.818,2.936 C7.818,2.945 7.818,2.955 7.818,2.965 C7.789,2.965 7.761,2.965 7.732,2.965 C7.732,2.974 7.732,2.984 7.732,2.993 C7.674,3.013 7.617,3.032 7.559,3.051 C7.559,3.061 7.559,3.070 7.559,3.080 C7.540,3.080 7.521,3.080 7.502,3.080 C7.502,3.089 7.502,3.099 7.502,3.109 C7.482,3.109 7.463,3.109 7.444,3.109 C7.444,3.118 7.444,3.128 7.444,3.137 C7.425,3.137 7.406,3.137 7.386,3.137 C7.386,3.147 7.386,3.157 7.386,3.166 C7.367,3.166 7.348,3.166 7.329,3.166 C7.329,3.176 7.329,3.185 7.329,3.195 C7.310,3.195 7.290,3.195 7.271,3.195 C7.271,3.205 7.271,3.214 7.271,3.224 C7.252,3.224 7.233,3.224 7.214,3.224 C7.214,3.233 7.214,3.243 7.214,3.252 C7.195,3.252 7.175,3.252 7.156,3.252 C7.156,3.262 7.156,3.272 7.156,3.281 C7.137,3.281 7.118,3.281 7.099,3.281 C7.089,3.300 7.079,3.320 7.070,3.339 C7.051,3.339 7.031,3.339 7.012,3.339 C7.012,3.348 7.012,3.358 7.012,3.368 C6.993,3.368 6.974,3.368 6.955,3.368 C6.955,3.377 6.955,3.387 6.955,3.396 C6.935,3.396 6.916,3.396 6.897,3.396 C6.897,3.406 6.897,3.416 6.897,3.425 C6.878,3.425 6.859,3.425 6.840,3.425 C6.830,3.444 6.820,3.464 6.811,3.483 C6.753,3.502 6.696,3.521 6.638,3.540 C6.628,3.560 6.619,3.579 6.609,3.598 C6.590,3.598 6.571,3.598 6.552,3.598 C6.552,3.607 6.552,3.617 6.552,3.627 C6.533,3.627 6.513,3.627 6.494,3.627 C6.494,3.636 6.494,3.646 6.494,3.655 C6.465,3.665 6.437,3.675 6.408,3.684 C6.398,3.703 6.389,3.723 6.379,3.742 C6.341,3.751 6.302,3.761 6.264,3.771 C6.254,3.790 6.245,3.809 6.235,3.828 C6.216,3.828 6.197,3.828 6.178,3.828 C6.178,3.838 6.178,3.847 6.178,3.857 C6.149,3.867 6.120,3.876 6.091,3.886 C6.082,3.905 6.072,3.924 6.062,3.943 C6.043,3.943 6.024,3.943 6.005,3.943 C6.005,3.953 6.005,3.962 6.005,3.972 C5.976,3.982 5.947,3.991 5.918,4.001 C5.909,4.020 5.899,4.039 5.890,4.058 C5.871,4.058 5.851,4.058 5.832,4.058 C5.813,4.087 5.794,4.116 5.775,4.145 C5.755,4.145 5.736,4.145 5.717,4.145 C5.707,4.164 5.698,4.183 5.688,4.202 C5.669,4.202 5.650,4.202 5.631,4.202 C5.611,4.231 5.592,4.260 5.573,4.289 C5.554,4.289 5.535,4.289 5.516,4.289 C5.496,4.317 5.477,4.346 5.458,4.375 C5.439,4.375 5.420,4.375 5.400,4.375 C5.381,4.404 5.362,4.433 5.343,4.461 C5.324,4.461 5.304,4.461 5.285,4.461 C5.256,4.500 5.228,4.538 5.199,4.577 C5.180,4.577 5.161,4.577 5.141,4.577 C5.132,4.596 5.122,4.615 5.113,4.634 C5.084,4.653 5.055,4.672 5.026,4.692 C5.026,4.701 5.026,4.711 5.026,4.720 C5.007,4.720 4.988,4.720 4.969,4.720 C4.930,4.768 4.892,4.816 4.854,4.864 C4.834,4.864 4.815,4.864 4.796,4.864 C4.729,4.941 4.662,5.018 4.594,5.095 C4.575,5.095 4.556,5.095 4.537,5.095 C4.431,5.210 4.326,5.325 4.220,5.440 C3.967,5.693 3.714,5.921 3.501,6.217 C3.453,6.256 3.405,6.294 3.357,6.332 C3.357,6.351 3.357,6.371 3.357,6.390 C3.318,6.419 3.280,6.447 3.242,6.476 C3.242,6.495 3.242,6.515 3.242,6.534 C3.222,6.543 3.203,6.553 3.184,6.563 C3.184,6.572 3.184,6.582 3.184,6.591 C3.165,6.601 3.146,6.611 3.127,6.620 C3.127,6.639 3.127,6.658 3.127,6.678 C3.098,6.697 3.069,6.716 3.040,6.735 C3.040,6.754 3.040,6.774 3.040,6.793 C3.011,6.812 2.983,6.831 2.954,6.850 C2.954,6.870 2.954,6.889 2.954,6.908 C2.925,6.927 2.896,6.946 2.868,6.966 C2.868,6.985 2.868,7.004 2.868,7.023 C2.839,7.042 2.810,7.061 2.781,7.081 C2.781,7.100 2.781,7.119 2.781,7.138 C2.762,7.148 2.743,7.157 2.724,7.167 C2.714,7.196 2.704,7.225 2.695,7.253 C2.685,7.253 2.676,7.253 2.666,7.253 C2.666,7.273 2.666,7.292 2.666,7.311 C2.647,7.320 2.628,7.330 2.608,7.340 C2.608,7.359 2.608,7.378 2.608,7.397 C2.589,7.407 2.570,7.416 2.551,7.426 C2.551,7.445 2.551,7.464 2.551,7.484 C2.532,7.493 2.513,7.503 2.493,7.512 C2.493,7.532 2.493,7.551 2.493,7.570 C2.474,7.580 2.455,7.589 2.436,7.599 C2.436,7.618 2.436,7.637 2.436,7.656 C2.417,7.666 2.397,7.675 2.378,7.685 C2.369,7.723 2.359,7.762 2.349,7.800 C2.330,7.810 2.311,7.819 2.292,7.829 C2.282,7.867 2.273,7.906 2.263,7.944 C2.244,7.954 2.225,7.963 2.205,7.973 C2.196,8.011 2.186,8.050 2.177,8.088 C2.158,8.098 2.138,8.107 2.119,8.117 C2.119,8.136 2.119,8.155 2.119,8.174 C2.110,8.174 2.100,8.174 2.090,8.174 C2.090,8.194 2.090,8.213 2.090,8.232 C2.081,8.232 2.071,8.232 2.062,8.232 C2.062,8.251 2.062,8.270 2.062,8.290 C2.052,8.290 2.042,8.290 2.033,8.290 C2.033,8.309 2.033,8.328 2.033,8.347 C2.008,8.393 1.905,8.443 1.946,8.549 C1.966,8.558 1.985,8.568 2.004,8.577 C2.004,8.597 2.004,8.616 2.004,8.635 C2.014,8.635 2.023,8.635 2.033,8.635 C2.033,8.654 2.033,8.673 2.033,8.692 C2.042,8.692 2.052,8.692 2.062,8.692 C2.062,8.712 2.062,8.731 2.062,8.750 C2.071,8.750 2.081,8.750 2.090,8.750 C2.090,8.769 2.090,8.788 2.090,8.808 C2.110,8.817 2.129,8.827 2.148,8.836 C2.167,8.894 2.186,8.952 2.205,9.009 C2.225,9.019 2.244,9.028 2.263,9.038 C2.273,9.076 2.282,9.115 2.292,9.153 C2.311,9.163 2.330,9.172 2.349,9.182 C2.349,9.201 2.349,9.220 2.349,9.239 C2.359,9.239 2.369,9.239 2.378,9.239 C2.378,9.259 2.378,9.278 2.378,9.297 C2.388,9.297 2.397,9.297 2.407,9.297 C2.417,9.326 2.426,9.355 2.436,9.383 C2.455,9.393 2.474,9.402 2.493,9.412 C2.493,9.431 2.493,9.450 2.493,9.470 C2.513,9.479 2.532,9.489 2.551,9.498 C2.551,9.518 2.551,9.537 2.551,9.556 C2.570,9.566 2.589,9.575 2.608,9.585 C2.608,9.604 2.608,9.623 2.608,9.642 C2.628,9.652 2.647,9.662 2.666,9.671 C2.666,9.690 2.666,9.709 2.666,9.729 C2.676,9.729 2.685,9.729 2.695,9.729 C2.704,9.757 2.714,9.786 2.724,9.815 C2.743,9.825 2.762,9.834 2.781,9.844 C2.781,9.863 2.781,9.882 2.781,9.901 C2.810,9.921 2.839,9.940 2.868,9.959 C2.868,9.978 2.868,9.997 2.868,10.017 C2.896,10.036 2.925,10.055 2.954,10.074 C2.954,10.093 2.954,10.112 2.954,10.132 C2.983,10.151 3.011,10.170 3.040,10.189 C3.040,10.208 3.040,10.228 3.040,10.247 C3.069,10.266 3.098,10.285 3.127,10.304 C3.127,10.324 3.127,10.343 3.127,10.362 C3.165,10.391 3.203,10.419 3.242,10.448 C3.242,10.467 3.242,10.487 3.242,10.506 C3.280,10.535 3.318,10.563 3.357,10.592 C3.357,10.611 3.357,10.631 3.357,10.650 C3.414,10.698 3.472,10.746 3.530,10.794 C3.530,10.813 3.530,10.832 3.530,10.851 C3.597,10.909 3.664,10.966 3.731,11.024 C3.731,11.043 3.731,11.062 3.731,11.081 C3.894,11.235 4.057,11.389 4.220,11.542 C4.326,11.657 4.431,11.772 4.537,11.887 C4.556,11.887 4.575,11.887 4.594,11.887 C4.662,11.964 4.729,12.041 4.796,12.118 C4.815,12.118 4.834,12.118 4.854,12.118 C4.863,12.137 4.873,12.156 4.882,12.175 C4.911,12.194 4.940,12.214 4.969,12.233 C4.969,12.242 4.969,12.252 4.969,12.262 C4.988,12.262 5.007,12.262 5.026,12.262 C5.065,12.310 5.103,12.358 5.141,12.406 C5.161,12.406 5.180,12.406 5.199,12.406 C5.228,12.444 5.256,12.482 5.285,12.521 C5.304,12.521 5.324,12.521 5.343,12.521 C5.362,12.549 5.381,12.578 5.400,12.607 C5.420,12.607 5.439,12.607 5.458,12.607 C5.477,12.636 5.496,12.665 5.516,12.693 C5.535,12.693 5.554,12.693 5.573,12.693 C5.592,12.722 5.611,12.751 5.631,12.780 C5.650,12.780 5.669,12.780 5.688,12.780 C5.698,12.799 5.707,12.818 5.717,12.837 C5.736,12.837 5.755,12.837 5.775,12.837 C5.794,12.866 5.813,12.895 5.832,12.924 C5.851,12.924 5.871,12.924 5.890,12.924 C5.899,12.943 5.909,12.962 5.918,12.981 C5.938,12.981 5.957,12.981 5.976,12.981 C5.986,13.000 5.995,13.020 6.005,13.039 C6.024,13.039 6.043,13.039 6.062,13.039 C6.072,13.058 6.082,13.077 6.091,13.096 C6.110,13.096 6.130,13.096 6.149,13.096 C6.158,13.115 6.168,13.135 6.178,13.154 C6.197,13.154 6.216,13.154 6.235,13.154 C6.245,13.173 6.254,13.192 6.264,13.211 C6.302,13.221 6.341,13.231 6.379,13.240 C6.379,13.250 6.379,13.259 6.379,13.269 C6.408,13.279 6.437,13.288 6.465,13.298 C6.475,13.317 6.485,13.336 6.494,13.355 C6.533,13.365 6.571,13.375 6.609,13.384 C6.619,13.403 6.628,13.423 6.638,13.442 C6.696,13.461 6.753,13.480 6.811,13.499 C6.820,13.518 6.830,13.538 6.840,13.557 C6.859,13.557 6.878,13.557 6.897,13.557 C6.897,13.566 6.897,13.576 6.897,13.586 C6.916,13.586 6.935,13.586 6.955,13.586 C6.955,13.595 6.955,13.605 6.955,13.614 C6.974,13.614 6.993,13.614 7.012,13.614 C7.012,13.624 7.012,13.634 7.012,13.643 C7.031,13.643 7.051,13.643 7.070,13.643 C7.079,13.662 7.089,13.682 7.099,13.701 C7.118,13.701 7.137,13.701 7.156,13.701 C7.156,13.710 7.156,13.720 7.156,13.730 C7.175,13.730 7.195,13.730 7.214,13.730 C7.214,13.739 7.214,13.749 7.214,13.758 C7.233,13.758 7.252,13.758 7.271,13.758 C7.271,13.768 7.271,13.777 7.271,13.787 C7.290,13.787 7.310,13.787 7.329,13.787 C7.329,13.797 7.329,13.806 7.329,13.816 C7.348,13.816 7.367,13.816 7.386,13.816 C7.386,13.825 7.386,13.835 7.386,13.845 C7.406,13.845 7.425,13.845 7.444,13.845 C7.444,13.854 7.444,13.864 7.444,13.873 C7.463,13.873 7.482,13.873 7.502,13.873 C7.502,13.883 7.502,13.893 7.502,13.902 C7.521,13.902 7.540,13.902 7.559,13.902 C7.559,13.912 7.559,13.921 7.559,13.931 C7.617,13.950 7.674,13.969 7.732,13.989 C7.732,13.998 7.732,14.008 7.732,14.017 C7.761,14.017 7.789,14.017 7.818,14.017 C7.818,14.027 7.818,14.037 7.818,14.046 C7.837,14.046 7.857,14.046 7.876,14.046 C7.876,14.056 7.876,14.065 7.876,14.075 C7.914,14.085 7.952,14.094 7.991,14.104 C7.991,14.113 7.991,14.123 7.991,14.132 C8.020,14.132 8.048,14.132 8.077,14.132 C8.077,14.142 8.077,14.152 8.077,14.161 C8.116,14.171 8.154,14.180 8.192,14.190 C8.192,14.200 8.192,14.209 8.192,14.219 C8.221,14.219 8.250,14.219 8.279,14.219 C8.279,14.228 8.279,14.238 8.279,14.248 C8.298,14.248 8.317,14.248 8.336,14.248 C8.336,14.257 8.336,14.267 8.336,14.276 C8.384,14.286 8.432,14.296 8.480,14.305 C8.480,14.315 8.480,14.324 8.480,14.334 C8.509,14.334 8.538,14.334 8.567,14.334 C8.567,14.344 8.567,14.353 8.567,14.363 C8.586,14.363 8.605,14.363 8.624,14.363 C8.624,14.372 8.624,14.382 8.624,14.392 C8.682,14.401 8.739,14.411 8.797,14.420 C8.797,14.430 8.797,14.440 8.797,14.449 C8.816,14.449 8.835,14.449 8.854,14.449 C8.854,14.459 8.854,14.468 8.854,14.478 C8.941,14.497 9.027,14.516 9.113,14.535 C9.113,14.545 9.113,14.555 9.113,14.564 C9.142,14.564 9.171,14.564 9.200,14.564 C9.200,14.574 9.200,14.583 9.200,14.593 C9.229,14.593 9.257,14.593 9.286,14.593 C9.286,14.603 9.286,14.612 9.286,14.622 C9.382,14.641 9.478,14.660 9.574,14.679 C9.574,14.689 9.574,14.699 9.574,14.708 C9.689,14.727 9.804,14.747 9.919,14.766 C9.919,14.775 9.919,14.785 9.919,14.794 C9.948,14.794 9.977,14.794 10.006,14.794 C10.006,14.804 10.006,14.814 10.006,14.823 C10.178,14.852 10.351,14.881 10.524,14.910 C10.781,14.989 11.121,15.006 11.387,15.082 C11.464,15.082 11.541,15.082 11.618,15.082 C11.618,15.092 11.618,15.102 11.618,15.111 C11.857,15.121 12.097,15.130 12.337,15.140 C12.558,15.201 13.441,15.202 13.661,15.140 C13.805,15.140 13.949,15.140 14.093,15.140 C14.093,15.130 14.093,15.121 14.093,15.111 C14.189,15.111 14.285,15.111 14.381,15.111 C14.381,15.102 14.381,15.092 14.381,15.082 C14.457,15.082 14.534,15.082 14.611,15.082 C14.611,15.073 14.611,15.063 14.611,15.054 C14.678,15.054 14.745,15.054 14.812,15.054 C14.812,15.044 14.812,15.034 14.812,15.025 C14.870,15.025 14.928,15.025 14.985,15.025 C15.128,14.982 15.335,14.953 15.474,14.910 C15.522,14.910 15.570,14.910 15.618,14.910 C15.618,14.900 15.618,14.890 15.618,14.881 C15.657,14.881 15.695,14.881 15.733,14.881 C15.733,14.871 15.733,14.862 15.733,14.852 C15.820,14.842 15.906,14.833 15.993,14.823 C15.993,14.814 15.993,14.804 15.993,14.794 C16.021,14.794 16.050,14.794 16.079,14.794 C16.079,14.785 16.079,14.775 16.079,14.766 C16.117,14.766 16.156,14.766 16.194,14.766 C16.194,14.756 16.194,14.747 16.194,14.737 C16.271,14.727 16.348,14.718 16.424,14.708 C16.424,14.699 16.424,14.689 16.424,14.679 C16.453,14.679 16.482,14.679 16.511,14.679 C16.511,14.670 16.511,14.660 16.511,14.651 C16.539,14.651 16.568,14.651 16.597,14.651 C16.597,14.641 16.597,14.631 16.597,14.622 C16.635,14.622 16.674,14.622 16.712,14.622 C16.712,14.612 16.712,14.603 16.712,14.593 C16.741,14.593 16.770,14.593 16.798,14.593 C16.798,14.583 16.798,14.574 16.798,14.564 C16.827,14.564 16.856,14.564 16.885,14.564 C16.885,14.555 16.885,14.545 16.885,14.535 C16.914,14.535 16.942,14.535 16.971,14.535 C16.971,14.526 16.971,14.516 16.971,14.507 C17.029,14.497 17.086,14.487 17.144,14.478 C17.144,14.468 17.144,14.459 17.144,14.449 C17.163,14.449 17.182,14.449 17.201,14.449 C17.201,14.440 17.201,14.430 17.201,14.420 C17.259,14.411 17.317,14.401 17.374,14.392 C17.374,14.382 17.374,14.372 17.374,14.363 C17.393,14.363 17.412,14.363 17.432,14.363 C17.432,14.353 17.432,14.344 17.432,14.334 C17.460,14.334 17.489,14.334 17.518,14.334 C17.518,14.324 17.518,14.315 17.518,14.305 C17.537,14.305 17.556,14.305 17.576,14.305 C17.576,14.296 17.576,14.286 17.576,14.276 C17.604,14.276 17.633,14.276 17.662,14.276 C17.662,14.267 17.662,14.257 17.662,14.248 C17.681,14.248 17.700,14.248 17.720,14.248 C17.720,14.238 17.720,14.228 17.720,14.219 C17.748,14.219 17.777,14.219 17.806,14.219 C17.806,14.209 17.806,14.200 17.806,14.190 C17.844,14.180 17.883,14.171 17.921,14.161 C17.921,14.152 17.921,14.142 17.921,14.132 C17.950,14.132 17.979,14.132 18.007,14.132 C18.007,14.123 18.007,14.113 18.007,14.104 C18.027,14.104 18.046,14.104 18.065,14.104 C18.065,14.094 18.065,14.085 18.065,14.075 C18.103,14.065 18.142,14.056 18.180,14.046 C18.180,14.037 18.180,14.027 18.180,14.017 C18.209,14.017 18.238,14.017 18.266,14.017 C18.266,14.008 18.266,13.998 18.266,13.989 C18.324,13.969 18.382,13.950 18.439,13.931 C18.439,13.921 18.439,13.912 18.439,13.902 C18.458,13.902 18.477,13.902 18.497,13.902 C18.497,13.893 18.497,13.883 18.497,13.873 C18.516,13.873 18.535,13.873 18.554,13.873 C18.554,13.864 18.554,13.854 18.554,13.845 C18.573,13.845 18.593,13.845 18.612,13.845 C18.612,13.835 18.612,13.825 18.612,13.816 C18.631,13.816 18.650,13.816 18.669,13.816 C18.669,13.806 18.669,13.797 18.669,13.787 C18.689,13.787 18.708,13.787 18.727,13.787 C18.727,13.777 18.727,13.768 18.727,13.758 C18.746,13.758 18.765,13.758 18.784,13.758 C18.784,13.749 18.784,13.739 18.784,13.730 C18.804,13.730 18.823,13.730 18.842,13.730 C18.842,13.720 18.842,13.710 18.842,13.701 C18.861,13.701 18.880,13.701 18.900,13.701 C18.909,13.682 18.919,13.662 18.928,13.643 C18.948,13.643 18.967,13.643 18.986,13.643 C18.986,13.634 18.986,13.624 18.986,13.614 C19.005,13.614 19.024,13.614 19.044,13.614 C19.044,13.605 19.044,13.595 19.044,13.586 C19.063,13.586 19.082,13.586 19.101,13.586 C19.101,13.576 19.101,13.566 19.101,13.557 C19.120,13.557 19.139,13.557 19.159,13.557 C19.168,13.538 19.178,13.518 19.187,13.499 C19.245,13.480 19.303,13.461 19.360,13.442 C19.370,13.423 19.379,13.403 19.389,13.384 C19.427,13.375 19.466,13.365 19.504,13.355 C19.514,13.336 19.523,13.317 19.533,13.298 C19.552,13.298 19.571,13.298 19.590,13.298 C19.600,13.279 19.610,13.259 19.619,13.240 C19.638,13.240 19.658,13.240 19.677,13.240 C19.677,13.231 19.677,13.221 19.677,13.211 C19.696,13.211 19.715,13.211 19.734,13.211 C19.744,13.192 19.754,13.173 19.763,13.154 C19.782,13.154 19.801,13.154 19.821,13.154 C19.830,13.135 19.840,13.115 19.849,13.096 C19.869,13.096 19.888,13.096 19.907,13.096 C19.907,13.087 19.907,13.077 19.907,13.068 C19.936,13.058 19.965,13.048 19.993,13.039 C20.003,13.020 20.013,13.000 20.022,12.981 C20.041,12.981 20.061,12.981 20.080,12.981 C20.089,12.962 20.099,12.943 20.108,12.924 C20.128,12.924 20.147,12.924 20.166,12.924 C20.185,12.895 20.204,12.866 20.224,12.837 C20.243,12.837 20.262,12.837 20.281,12.837 C20.291,12.818 20.300,12.799 20.310,12.780 C20.329,12.780 20.348,12.780 20.368,12.780 C20.387,12.751 20.406,12.722 20.425,12.693 C20.444,12.693 20.463,12.693 20.483,12.693 C20.502,12.665 20.521,12.636 20.540,12.607 C20.559,12.607 20.579,12.607 20.598,12.607 C20.617,12.578 20.636,12.549 20.655,12.521 C20.675,12.521 20.694,12.521 20.713,12.521 C20.742,12.482 20.771,12.444 20.799,12.406 C20.818,12.406 20.838,12.406 20.857,12.406 C20.895,12.358 20.934,12.310 20.972,12.262 C20.991,12.262 21.010,12.262 21.030,12.262 C21.049,12.233 21.068,12.204 21.087,12.175 C21.097,12.175 21.106,12.175 21.116,12.175 C21.125,12.156 21.135,12.137 21.145,12.118 C21.164,12.118 21.183,12.118 21.202,12.118 C21.269,12.041 21.337,11.964 21.404,11.887 C21.423,11.887 21.442,11.887 21.461,11.887 C21.586,11.753 21.711,11.619 21.835,11.484 C21.979,11.350 22.123,11.216 22.267,11.081 C22.267,11.062 22.267,11.043 22.267,11.024 C22.344,10.957 22.421,10.890 22.497,10.822 C22.497,10.803 22.497,10.784 22.497,10.765 C22.545,10.726 22.593,10.688 22.641,10.650 C22.641,10.631 22.641,10.611 22.641,10.592 C22.680,10.563 22.718,10.535 22.757,10.506 C22.757,10.487 22.757,10.467 22.757,10.448 C22.795,10.419 22.833,10.391 22.872,10.362 C22.872,10.343 22.872,10.324 22.872,10.304 C22.900,10.285 22.929,10.266 22.958,10.247 C22.958,10.228 22.958,10.208 22.958,10.189 C22.987,10.170 23.016,10.151 23.044,10.132 C23.044,10.112 23.044,10.093 23.044,10.074 C23.073,10.055 23.102,10.036 23.131,10.017 C23.131,9.997 23.131,9.978 23.131,9.959 C23.159,9.940 23.188,9.921 23.217,9.901 C23.217,9.882 23.217,9.863 23.217,9.844 C23.236,9.834 23.255,9.825 23.275,9.815 C23.284,9.786 23.294,9.757 23.303,9.729 C23.313,9.729 23.323,9.729 23.332,9.729 C23.332,9.709 23.332,9.690 23.332,9.671 C23.351,9.662 23.371,9.652 23.390,9.642 C23.390,9.623 23.390,9.604 23.390,9.585 C23.409,9.575 23.428,9.566 23.447,9.556 C23.447,9.537 23.447,9.518 23.447,9.498 C23.466,9.489 23.486,9.479 23.505,9.470 C23.505,9.450 23.505,9.431 23.505,9.412 C23.524,9.402 23.543,9.393 23.562,9.383 C23.562,9.364 23.562,9.345 23.562,9.326 C23.582,9.316 23.601,9.307 23.620,9.297 C23.630,9.259 23.639,9.220 23.649,9.182 C23.668,9.172 23.687,9.163 23.706,9.153 C23.716,9.115 23.726,9.076 23.735,9.038 C23.754,9.028 23.774,9.019 23.793,9.009 C23.802,8.971 23.812,8.932 23.821,8.894 C23.841,8.884 23.860,8.875 23.879,8.865 C23.889,8.827 23.898,8.788 23.908,8.750 C23.970,8.635 24.040,8.610 24.052,8.433 C23.966,8.360 23.964,8.276 23.908,8.174 C23.898,8.174 23.889,8.174 23.879,8.174 C23.879,8.155 23.879,8.136 23.879,8.117 C23.860,8.107 23.841,8.098 23.821,8.088 C23.812,8.050 23.802,8.011 23.793,7.973 C23.774,7.963 23.754,7.954 23.735,7.944 C23.726,7.906 23.716,7.867 23.706,7.829 C23.687,7.819 23.668,7.810 23.649,7.800 C23.639,7.762 23.630,7.723 23.620,7.685 C23.610,7.685 23.601,7.685 23.591,7.685 C23.582,7.656 23.572,7.628 23.562,7.599 C23.543,7.589 23.524,7.580 23.505,7.570 C23.505,7.551 23.505,7.532 23.505,7.512 C23.486,7.503 23.466,7.493 23.447,7.484 C23.447,7.464 23.447,7.445 23.447,7.426 C23.428,7.416 23.409,7.407 23.390,7.397 C23.390,7.378 23.390,7.359 23.390,7.340 C23.380,7.340 23.371,7.340 23.361,7.340 C23.351,7.311 23.342,7.282 23.332,7.253 C23.313,7.244 23.294,7.234 23.275,7.225 C23.275,7.205 23.275,7.186 23.275,7.167 C23.255,7.157 23.236,7.148 23.217,7.138 C23.217,7.119 23.217,7.100 23.217,7.081 C23.188,7.061 23.159,7.042 23.131,7.023 C23.131,7.004 23.131,6.985 23.131,6.966 C23.102,6.946 23.073,6.927 23.044,6.908 C23.044,6.889 23.044,6.870 23.044,6.850 C23.025,6.841 23.006,6.831 22.987,6.822 C22.987,6.802 22.987,6.783 22.987,6.764 C22.948,6.735 22.910,6.706 22.872,6.678 C22.872,6.658 22.872,6.639 22.872,6.620 C22.852,6.611 22.833,6.601 22.814,6.591 C22.814,6.582 22.814,6.572 22.814,6.563 C22.795,6.553 22.776,6.543 22.757,6.534 C22.757,6.515 22.757,6.495 22.757,6.476 C22.718,6.447 22.680,6.419 22.641,6.390 C22.641,6.371 22.641,6.351 22.641,6.332 C22.593,6.294 22.545,6.256 22.497,6.217 C22.497,6.198 22.497,6.179 22.497,6.160 C22.421,6.092 22.344,6.025 22.267,5.958 C22.267,5.939 22.267,5.920 22.267,5.901 C22.114,5.757 21.960,5.613 21.807,5.469 C21.692,5.344 21.576,5.219 21.461,5.095 C21.433,5.085 21.404,5.075 21.375,5.066 C21.317,4.999 21.260,4.931 21.202,4.864 C21.183,4.864 21.164,4.864 21.145,4.864 C21.106,4.816 21.068,4.768 21.030,4.720 C21.010,4.720 20.991,4.720 20.972,4.720 C20.934,4.672 20.895,4.624 20.857,4.577 C20.838,4.577 20.818,4.577 20.799,4.577 C20.771,4.538 20.742,4.500 20.713,4.461 C20.684,4.452 20.655,4.442 20.627,4.433 C20.617,4.413 20.607,4.394 20.598,4.375 C20.579,4.375 20.559,4.375 20.540,4.375 C20.521,4.346 20.502,4.317 20.483,4.289 C20.454,4.279 20.425,4.269 20.396,4.260 C20.387,4.241 20.377,4.222 20.368,4.202 C20.348,4.202 20.329,4.202 20.310,4.202 C20.300,4.183 20.291,4.164 20.281,4.145 C20.262,4.145 20.243,4.145 20.224,4.145 C20.204,4.116 20.185,4.087 20.166,4.058 C20.147,4.058 20.128,4.058 20.108,4.058 C20.099,4.039 20.089,4.020 20.080,4.001 C20.061,4.001 20.041,4.001 20.022,4.001 C20.013,3.982 20.003,3.962 19.993,3.943 C19.974,3.943 19.955,3.943 19.936,3.943 C19.926,3.924 19.917,3.905 19.907,3.886 C19.888,3.886 19.869,3.886 19.849,3.886 C19.840,3.867 19.830,3.847 19.821,3.828 C19.801,3.828 19.782,3.828 19.763,3.828 C19.754,3.809 19.744,3.790 19.734,3.771 C19.696,3.761 19.658,3.751 19.619,3.742 C19.619,3.732 19.619,3.723 19.619,3.713 C19.590,3.703 19.562,3.694 19.533,3.684 C19.523,3.665 19.514,3.646 19.504,3.627 C19.466,3.617 19.427,3.607 19.389,3.598 C19.379,3.579 19.370,3.560 19.360,3.540 C19.303,3.521 19.245,3.502 19.187,3.483 C19.178,3.464 19.168,3.444 19.159,3.425 C19.139,3.425 19.120,3.425 19.101,3.425 C19.101,3.416 19.101,3.406 19.101,3.396 C19.082,3.396 19.063,3.396 19.044,3.396 C19.044,3.387 19.044,3.377 19.044,3.368 C19.024,3.368 19.005,3.368 18.986,3.368 C18.986,3.358 18.986,3.348 18.986,3.339 C18.967,3.339 18.948,3.339 18.928,3.339 C18.919,3.320 18.909,3.300 18.900,3.281 C18.880,3.281 18.861,3.281 18.842,3.281 C18.842,3.272 18.842,3.262 18.842,3.252 C18.823,3.252 18.804,3.252 18.784,3.252 C18.784,3.243 18.784,3.233 18.784,3.224 C18.765,3.224 18.746,3.224 18.727,3.224 C18.727,3.214 18.727,3.205 18.727,3.195 C18.708,3.195 18.689,3.195 18.669,3.195 C18.669,3.185 18.669,3.176 18.669,3.166 C18.650,3.166 18.631,3.166 18.612,3.166 C18.612,3.157 18.612,3.147 18.612,3.137 C18.593,3.137 18.573,3.137 18.554,3.137 C18.554,3.128 18.554,3.118 18.554,3.109 C18.535,3.109 18.516,3.109 18.497,3.109 C18.497,3.099 18.497,3.089 18.497,3.080 C18.477,3.080 18.458,3.080 18.439,3.080 C18.439,3.070 18.439,3.061 18.439,3.051 C18.382,3.032 18.324,3.013 18.266,2.993 C18.266,2.984 18.266,2.974 18.266,2.965 C18.238,2.965 18.209,2.965 18.180,2.965 C18.180,2.955 18.180,2.945 18.180,2.936 C18.161,2.936 18.142,2.936 18.122,2.936 C18.122,2.926 18.122,2.917 18.122,2.907 C18.065,2.888 18.007,2.869 17.950,2.850 C17.950,2.840 17.950,2.830 17.950,2.821 C17.921,2.821 17.892,2.821 17.863,2.821 C17.863,2.811 17.863,2.802 17.863,2.792 C17.844,2.792 17.825,2.792 17.806,2.792 C17.806,2.782 17.806,2.773 17.806,2.763 C17.777,2.763 17.748,2.763 17.720,2.763 C17.720,2.754 17.720,2.744 17.720,2.734 C17.681,2.725 17.643,2.715 17.604,2.706 C17.604,2.696 17.604,2.686 17.604,2.677 C17.547,2.667 17.489,2.658 17.432,2.648 C17.432,2.638 17.432,2.629 17.432,2.619 C17.412,2.619 17.393,2.619 17.374,2.619 C17.374,2.610 17.374,2.600 17.374,2.590 C17.317,2.581 17.259,2.571 17.201,2.562 C17.201,2.552 17.201,2.543 17.201,2.533 C17.182,2.533 17.163,2.533 17.144,2.533 C17.144,2.523 17.144,2.514 17.144,2.504 C17.086,2.495 17.029,2.485 16.971,2.475 C16.971,2.466 16.971,2.456 16.971,2.447 C16.942,2.447 16.914,2.447 16.885,2.447 C16.885,2.437 16.885,2.427 16.885,2.418 C16.856,2.418 16.827,2.418 16.798,2.418 C16.798,2.408 16.798,2.399 16.798,2.389 C16.770,2.389 16.741,2.389 16.712,2.389 C16.712,2.379 16.712,2.370 16.712,2.360 C16.616,2.341 16.520,2.322 16.424,2.303 C16.424,2.293 16.424,2.283 16.424,2.274 C16.348,2.264 16.271,2.255 16.194,2.245 C16.194,2.235 16.194,2.226 16.194,2.216 C16.165,2.216 16.136,2.216 16.108,2.216 C16.108,2.207 16.108,2.197 16.108,2.188 C16.069,2.188 16.031,2.188 15.993,2.188 C15.993,2.178 15.993,2.168 15.993,2.159 C15.945,2.159 15.897,2.159 15.849,2.159 C15.849,2.149 15.849,2.140 15.849,2.130 C15.810,2.130 15.772,2.130 15.733,2.130 C15.733,2.120 15.733,2.111 15.733,2.101 C15.695,2.101 15.657,2.101 15.618,2.101 C15.618,2.092 15.618,2.082 15.618,2.072 C15.522,2.063 15.426,2.053 15.331,2.044 C15.331,2.034 15.331,2.024 15.331,2.015 C15.215,2.005 15.100,1.996 14.985,1.986 C14.985,1.976 14.985,1.967 14.985,1.957 C14.928,1.957 14.870,1.957 14.812,1.957 C14.812,1.948 14.812,1.938 14.812,1.928 C14.745,1.928 14.678,1.928 14.611,1.928 C14.611,1.919 14.611,1.909 14.611,1.900 C14.534,1.900 14.457,1.900 14.381,1.900 C14.381,1.890 14.381,1.880 14.381,1.871 C14.150,1.861 13.920,1.852 13.690,1.842 C13.369,1.751 12.700,1.816 12.308,1.813 ZM12.567,4.548 C12.998,4.543 13.458,4.535 13.776,4.634 C13.824,4.634 13.872,4.634 13.920,4.634 C13.920,4.644 13.920,4.653 13.920,4.663 C13.959,4.663 13.997,4.663 14.035,4.663 C14.035,4.672 14.035,4.682 14.035,4.692 C14.064,4.692 14.093,4.692 14.122,4.692 C14.122,4.701 14.122,4.711 14.122,4.720 C14.150,4.720 14.179,4.720 14.208,4.720 C14.208,4.730 14.208,4.740 14.208,4.749 C14.237,4.749 14.266,4.749 14.294,4.749 C14.294,4.759 14.294,4.768 14.294,4.778 C14.323,4.778 14.352,4.778 14.381,4.778 C14.381,4.788 14.381,4.797 14.381,4.807 C14.409,4.807 14.438,4.807 14.467,4.807 C14.467,4.816 14.467,4.826 14.467,4.836 C14.486,4.836 14.505,4.836 14.525,4.836 C14.525,4.845 14.525,4.855 14.525,4.864 C14.553,4.864 14.582,4.864 14.611,4.864 C14.611,4.874 14.611,4.884 14.611,4.893 C14.669,4.912 14.726,4.932 14.784,4.951 C14.784,4.960 14.784,4.970 14.784,4.979 C14.841,4.999 14.899,5.018 14.956,5.037 C14.966,5.056 14.976,5.075 14.985,5.095 C15.023,5.104 15.062,5.114 15.100,5.123 C15.100,5.133 15.100,5.143 15.100,5.152 C15.129,5.162 15.158,5.171 15.187,5.181 C15.196,5.200 15.206,5.219 15.215,5.239 C15.235,5.239 15.254,5.239 15.273,5.239 C15.292,5.267 15.311,5.296 15.331,5.325 C15.350,5.325 15.369,5.325 15.388,5.325 C15.407,5.354 15.426,5.382 15.446,5.411 C15.465,5.411 15.484,5.411 15.503,5.411 C15.570,5.488 15.638,5.565 15.705,5.641 C15.724,5.641 15.743,5.641 15.762,5.641 C15.810,5.709 15.858,5.776 15.906,5.843 C15.964,5.891 16.021,5.939 16.079,5.987 C16.079,6.006 16.079,6.025 16.079,6.044 C16.108,6.064 16.136,6.083 16.165,6.102 C16.175,6.131 16.184,6.160 16.194,6.188 C16.213,6.198 16.232,6.208 16.252,6.217 C16.252,6.236 16.252,6.256 16.252,6.275 C16.271,6.284 16.290,6.294 16.309,6.303 C16.309,6.323 16.309,6.342 16.309,6.361 C16.328,6.371 16.348,6.380 16.367,6.390 C16.376,6.428 16.386,6.467 16.395,6.505 C16.415,6.515 16.434,6.524 16.453,6.534 C16.463,6.572 16.472,6.611 16.482,6.649 C16.491,6.649 16.501,6.649 16.511,6.649 C16.511,6.668 16.511,6.687 16.511,6.706 C16.520,6.706 16.530,6.706 16.539,6.706 C16.559,6.764 16.578,6.822 16.597,6.879 C16.607,6.879 16.616,6.879 16.626,6.879 C16.626,6.908 16.626,6.937 16.626,6.966 C16.635,6.966 16.645,6.966 16.655,6.966 C16.655,6.985 16.655,7.004 16.655,7.023 C16.664,7.023 16.674,7.023 16.683,7.023 C16.683,7.052 16.683,7.081 16.683,7.109 C16.693,7.109 16.703,7.109 16.712,7.109 C16.712,7.129 16.712,7.148 16.712,7.167 C16.722,7.167 16.731,7.167 16.741,7.167 C16.750,7.225 16.760,7.282 16.770,7.340 C16.779,7.340 16.789,7.340 16.798,7.340 C16.798,7.378 16.798,7.416 16.798,7.455 C16.903,7.768 16.942,8.086 16.942,8.520 C16.942,8.654 16.942,8.788 16.942,8.923 C16.933,8.923 16.923,8.923 16.914,8.923 C16.914,8.999 16.914,9.076 16.914,9.153 C16.904,9.153 16.894,9.153 16.885,9.153 C16.885,9.201 16.885,9.249 16.885,9.297 C16.875,9.297 16.866,9.297 16.856,9.297 C16.856,9.335 16.856,9.374 16.856,9.412 C16.846,9.412 16.837,9.412 16.827,9.412 C16.827,9.450 16.827,9.489 16.827,9.527 C16.818,9.527 16.808,9.527 16.798,9.527 C16.798,9.566 16.798,9.604 16.798,9.642 C16.789,9.642 16.779,9.642 16.770,9.642 C16.770,9.671 16.770,9.700 16.770,9.729 C16.760,9.729 16.750,9.729 16.741,9.729 C16.741,9.757 16.741,9.786 16.741,9.815 C16.731,9.815 16.722,9.815 16.712,9.815 C16.703,9.863 16.693,9.911 16.683,9.959 C16.674,9.959 16.664,9.959 16.655,9.959 C16.655,9.978 16.655,9.997 16.655,10.017 C16.645,10.017 16.635,10.017 16.626,10.017 C16.626,10.045 16.626,10.074 16.626,10.103 C16.616,10.103 16.607,10.103 16.597,10.103 C16.578,10.160 16.559,10.218 16.539,10.276 C16.530,10.276 16.520,10.276 16.511,10.276 C16.511,10.295 16.511,10.314 16.511,10.333 C16.501,10.333 16.491,10.333 16.482,10.333 C16.472,10.371 16.463,10.410 16.453,10.448 C16.434,10.458 16.415,10.467 16.395,10.477 C16.386,10.515 16.376,10.554 16.367,10.592 C16.348,10.602 16.328,10.611 16.309,10.621 C16.309,10.640 16.309,10.659 16.309,10.679 C16.290,10.688 16.271,10.698 16.252,10.707 C16.252,10.726 16.252,10.746 16.252,10.765 C16.232,10.774 16.213,10.784 16.194,10.794 C16.184,10.822 16.175,10.851 16.165,10.880 C16.136,10.899 16.108,10.918 16.079,10.938 C16.079,10.957 16.079,10.976 16.079,10.995 C16.021,11.043 15.964,11.091 15.906,11.139 C15.858,11.206 15.810,11.273 15.762,11.341 C15.743,11.341 15.724,11.341 15.705,11.341 C15.638,11.417 15.570,11.494 15.503,11.571 C15.484,11.571 15.465,11.571 15.446,11.571 C15.426,11.600 15.407,11.628 15.388,11.657 C15.369,11.657 15.350,11.657 15.331,11.657 C15.311,11.686 15.292,11.715 15.273,11.743 C15.254,11.743 15.235,11.743 15.215,11.743 C15.206,11.763 15.196,11.782 15.187,11.801 C15.158,11.811 15.129,11.820 15.100,11.830 C15.100,11.839 15.100,11.849 15.100,11.859 C15.062,11.868 15.023,11.878 14.985,11.887 C14.976,11.907 14.966,11.926 14.956,11.945 C14.918,11.955 14.880,11.964 14.841,11.974 C14.841,11.983 14.841,11.993 14.841,12.003 C14.822,12.003 14.803,12.003 14.784,12.003 C14.784,12.012 14.784,12.022 14.784,12.031 C14.726,12.051 14.669,12.070 14.611,12.089 C14.611,12.098 14.611,12.108 14.611,12.118 C14.582,12.118 14.553,12.118 14.525,12.118 C14.525,12.127 14.525,12.137 14.525,12.146 C14.505,12.146 14.486,12.146 14.467,12.146 C14.467,12.156 14.467,12.166 14.467,12.175 C14.409,12.185 14.352,12.194 14.294,12.204 C14.294,12.214 14.294,12.223 14.294,12.233 C14.266,12.233 14.237,12.233 14.208,12.233 C14.208,12.242 14.208,12.252 14.208,12.262 C14.179,12.262 14.150,12.262 14.122,12.262 C14.122,12.271 14.122,12.281 14.122,12.290 C14.093,12.290 14.064,12.290 14.035,12.290 C14.035,12.300 14.035,12.310 14.035,12.319 C13.997,12.319 13.959,12.319 13.920,12.319 C13.920,12.329 13.920,12.338 13.920,12.348 C13.872,12.348 13.824,12.348 13.776,12.348 C13.776,12.358 13.776,12.367 13.776,12.377 C13.728,12.377 13.680,12.377 13.632,12.377 C13.632,12.386 13.632,12.396 13.632,12.406 C13.565,12.406 13.498,12.406 13.431,12.406 C13.431,12.415 13.431,12.425 13.431,12.434 C13.258,12.434 13.085,12.434 12.913,12.434 C12.320,12.434 11.881,12.297 11.474,12.118 C11.445,12.118 11.416,12.118 11.387,12.118 C11.387,12.108 11.387,12.098 11.387,12.089 C11.330,12.070 11.272,12.051 11.215,12.031 C11.215,12.022 11.215,12.012 11.215,12.003 C11.195,12.003 11.176,12.003 11.157,12.003 C11.157,11.993 11.157,11.983 11.157,11.974 C11.119,11.964 11.080,11.955 11.042,11.945 C11.032,11.926 11.023,11.907 11.013,11.887 C10.975,11.878 10.936,11.868 10.898,11.859 C10.898,11.849 10.898,11.839 10.898,11.830 C10.869,11.820 10.840,11.811 10.812,11.801 C10.802,11.782 10.792,11.763 10.783,11.743 C10.764,11.743 10.744,11.743 10.725,11.743 C10.706,11.715 10.687,11.686 10.668,11.657 C10.648,11.657 10.629,11.657 10.610,11.657 C10.591,11.628 10.572,11.600 10.553,11.571 C10.533,11.571 10.514,11.571 10.495,11.571 C10.428,11.494 10.361,11.417 10.294,11.341 C10.274,11.341 10.255,11.341 10.236,11.341 C10.188,11.273 10.140,11.206 10.092,11.139 C10.034,11.091 9.977,11.043 9.919,10.995 C9.919,10.976 9.919,10.957 9.919,10.938 C9.891,10.918 9.862,10.899 9.833,10.880 C9.823,10.851 9.814,10.822 9.804,10.794 C9.785,10.784 9.766,10.774 9.747,10.765 C9.747,10.746 9.747,10.726 9.747,10.707 C9.727,10.698 9.708,10.688 9.689,10.679 C9.689,10.659 9.689,10.640 9.689,10.621 C9.670,10.611 9.651,10.602 9.631,10.592 C9.622,10.554 9.612,10.515 9.603,10.477 C9.584,10.467 9.564,10.458 9.545,10.448 C9.536,10.410 9.526,10.371 9.516,10.333 C9.507,10.333 9.497,10.333 9.488,10.333 C9.488,10.314 9.488,10.295 9.488,10.276 C9.478,10.276 9.468,10.276 9.459,10.276 C9.440,10.218 9.420,10.160 9.401,10.103 C9.392,10.103 9.382,10.103 9.372,10.103 C9.372,10.074 9.372,10.045 9.372,10.017 C9.363,10.017 9.353,10.017 9.344,10.017 C9.344,9.997 9.344,9.978 9.344,9.959 C9.334,9.959 9.324,9.959 9.315,9.959 C9.315,9.930 9.315,9.901 9.315,9.873 C9.305,9.873 9.296,9.873 9.286,9.873 C9.286,9.853 9.286,9.834 9.286,9.815 C9.277,9.815 9.267,9.815 9.257,9.815 C9.248,9.757 9.238,9.700 9.229,9.642 C9.219,9.642 9.209,9.642 9.200,9.642 C9.200,9.604 9.200,9.566 9.200,9.527 C9.095,9.215 9.056,8.895 9.056,8.462 C9.056,8.328 9.056,8.194 9.056,8.059 C9.065,8.059 9.075,8.059 9.085,8.059 C9.085,7.983 9.085,7.906 9.085,7.829 C9.094,7.829 9.104,7.829 9.113,7.829 C9.113,7.781 9.113,7.733 9.113,7.685 C9.123,7.685 9.133,7.685 9.142,7.685 C9.142,7.647 9.142,7.608 9.142,7.570 C9.152,7.570 9.161,7.570 9.171,7.570 C9.171,7.532 9.171,7.493 9.171,7.455 C9.181,7.455 9.190,7.455 9.200,7.455 C9.200,7.416 9.200,7.378 9.200,7.340 C9.209,7.340 9.219,7.340 9.229,7.340 C9.229,7.311 9.229,7.282 9.229,7.253 C9.238,7.253 9.248,7.253 9.257,7.253 C9.257,7.225 9.257,7.196 9.257,7.167 C9.267,7.167 9.277,7.167 9.286,7.167 C9.286,7.148 9.286,7.129 9.286,7.109 C9.296,7.109 9.305,7.109 9.315,7.109 C9.315,7.081 9.315,7.052 9.315,7.023 C9.324,7.023 9.334,7.023 9.344,7.023 C9.344,7.004 9.344,6.985 9.344,6.966 C9.353,6.966 9.363,6.966 9.372,6.966 C9.372,6.937 9.372,6.908 9.372,6.879 C9.382,6.879 9.392,6.879 9.401,6.879 C9.420,6.822 9.440,6.764 9.459,6.706 C9.468,6.706 9.478,6.706 9.488,6.706 C9.488,6.687 9.488,6.668 9.488,6.649 C9.497,6.649 9.507,6.649 9.516,6.649 C9.526,6.611 9.536,6.572 9.545,6.534 C9.564,6.524 9.584,6.515 9.603,6.505 C9.612,6.467 9.622,6.428 9.631,6.390 C9.641,6.390 9.651,6.390 9.660,6.390 C9.670,6.361 9.679,6.332 9.689,6.303 C9.708,6.294 9.727,6.284 9.747,6.275 C9.747,6.256 9.747,6.236 9.747,6.217 C9.766,6.208 9.785,6.198 9.804,6.188 C9.814,6.160 9.823,6.131 9.833,6.102 C9.862,6.083 9.891,6.064 9.919,6.044 C9.919,6.025 9.919,6.006 9.919,5.987 C9.996,5.920 10.073,5.853 10.150,5.785 C10.150,5.766 10.150,5.747 10.150,5.728 C10.178,5.709 10.207,5.689 10.236,5.670 C10.236,5.661 10.236,5.651 10.236,5.641 C10.255,5.641 10.274,5.641 10.294,5.641 C10.361,5.565 10.428,5.488 10.495,5.411 C10.514,5.411 10.533,5.411 10.553,5.411 C10.572,5.382 10.591,5.354 10.610,5.325 C10.629,5.325 10.648,5.325 10.668,5.325 C10.687,5.296 10.706,5.267 10.725,5.239 C10.744,5.239 10.764,5.239 10.783,5.239 C10.792,5.219 10.802,5.200 10.812,5.181 C10.840,5.171 10.869,5.162 10.898,5.152 C10.898,5.143 10.898,5.133 10.898,5.123 C10.936,5.114 10.975,5.104 11.013,5.095 C11.023,5.075 11.032,5.056 11.042,5.037 C11.080,5.027 11.119,5.018 11.157,5.008 C11.157,4.999 11.157,4.989 11.157,4.979 C11.176,4.979 11.195,4.979 11.215,4.979 C11.215,4.970 11.215,4.960 11.215,4.951 C11.272,4.932 11.330,4.912 11.387,4.893 C11.387,4.884 11.387,4.874 11.387,4.864 C11.617,4.788 11.848,4.711 12.078,4.634 C12.126,4.634 12.174,4.634 12.222,4.634 C12.222,4.624 12.222,4.615 12.222,4.605 C12.270,4.605 12.318,4.605 12.366,4.605 C12.366,4.596 12.366,4.586 12.366,4.577 C12.433,4.577 12.500,4.577 12.567,4.577 C12.567,4.567 12.567,4.557 12.567,4.548 ZM12.654,6.361 C12.589,6.418 12.486,6.386 12.395,6.419 C12.395,6.428 12.395,6.438 12.395,6.447 C12.337,6.457 12.280,6.467 12.222,6.476 C12.222,6.486 12.222,6.495 12.222,6.505 C12.164,6.524 12.107,6.543 12.049,6.563 C12.049,6.572 12.049,6.582 12.049,6.591 C12.030,6.591 12.011,6.591 11.992,6.591 C11.992,6.601 11.992,6.611 11.992,6.620 C11.953,6.630 11.915,6.639 11.877,6.649 C11.867,6.668 11.857,6.687 11.848,6.706 C11.829,6.706 11.809,6.706 11.790,6.706 C11.781,6.726 11.771,6.745 11.761,6.764 C11.742,6.764 11.723,6.764 11.704,6.764 C11.675,6.802 11.646,6.841 11.618,6.879 C11.598,6.879 11.579,6.879 11.560,6.879 C11.522,6.927 11.483,6.975 11.445,7.023 C11.426,7.033 11.406,7.042 11.387,7.052 C11.387,7.071 11.387,7.090 11.387,7.109 C11.349,7.138 11.310,7.167 11.272,7.196 C11.272,7.215 11.272,7.234 11.272,7.253 C11.253,7.263 11.234,7.273 11.215,7.282 C11.215,7.301 11.215,7.320 11.215,7.340 C11.195,7.349 11.176,7.359 11.157,7.368 C11.147,7.407 11.138,7.445 11.128,7.484 C11.119,7.484 11.109,7.484 11.099,7.484 C11.099,7.503 11.099,7.522 11.099,7.541 C11.090,7.541 11.080,7.541 11.071,7.541 C11.051,7.599 11.032,7.656 11.013,7.714 C11.003,7.714 10.994,7.714 10.984,7.714 C10.984,7.743 10.984,7.771 10.984,7.800 C10.975,7.800 10.965,7.800 10.956,7.800 C10.956,7.829 10.956,7.858 10.956,7.887 C10.946,7.887 10.936,7.887 10.927,7.887 C10.927,7.925 10.927,7.963 10.927,8.002 C10.917,8.002 10.908,8.002 10.898,8.002 C10.898,8.050 10.898,8.098 10.898,8.146 C10.888,8.146 10.879,8.146 10.869,8.146 C10.833,8.271 10.868,8.888 10.898,8.980 C10.908,8.980 10.917,8.980 10.927,8.980 C10.946,9.076 10.965,9.172 10.984,9.268 C10.994,9.268 11.003,9.268 11.013,9.268 C11.032,9.326 11.051,9.383 11.071,9.441 C11.080,9.441 11.090,9.441 11.099,9.441 C11.099,9.460 11.099,9.479 11.099,9.498 C11.109,9.498 11.119,9.498 11.128,9.498 C11.138,9.537 11.147,9.575 11.157,9.614 C11.176,9.623 11.195,9.633 11.215,9.642 C11.215,9.662 11.215,9.681 11.215,9.700 C11.234,9.709 11.253,9.719 11.272,9.729 C11.272,9.748 11.272,9.767 11.272,9.786 C11.310,9.815 11.349,9.844 11.387,9.873 C11.387,9.892 11.387,9.911 11.387,9.930 C11.435,9.969 11.483,10.007 11.531,10.045 C11.541,10.064 11.550,10.084 11.560,10.103 C11.579,10.103 11.598,10.103 11.618,10.103 C11.646,10.141 11.675,10.180 11.704,10.218 C11.723,10.218 11.742,10.218 11.761,10.218 C11.771,10.237 11.781,10.256 11.790,10.276 C11.809,10.276 11.829,10.276 11.848,10.276 C11.857,10.295 11.867,10.314 11.877,10.333 C11.896,10.333 11.915,10.333 11.934,10.333 C11.934,10.343 11.934,10.352 11.934,10.362 C11.953,10.362 11.973,10.362 11.992,10.362 C11.992,10.371 11.992,10.381 11.992,10.391 C12.011,10.391 12.030,10.391 12.049,10.391 C12.049,10.400 12.049,10.410 12.049,10.419 C12.068,10.419 12.088,10.419 12.107,10.419 C12.107,10.429 12.107,10.439 12.107,10.448 C12.145,10.458 12.184,10.467 12.222,10.477 C12.222,10.487 12.222,10.496 12.222,10.506 C12.251,10.506 12.280,10.506 12.308,10.506 C12.308,10.515 12.308,10.525 12.308,10.535 C12.530,10.621 12.810,10.621 13.114,10.621 C13.191,10.621 13.268,10.621 13.344,10.621 C13.344,10.611 13.344,10.602 13.344,10.592 C13.392,10.592 13.440,10.592 13.488,10.592 C13.488,10.583 13.488,10.573 13.488,10.563 C13.527,10.563 13.565,10.563 13.604,10.563 C13.604,10.554 13.604,10.544 13.604,10.535 C13.632,10.535 13.661,10.535 13.690,10.535 C13.690,10.525 13.690,10.515 13.690,10.506 C13.719,10.506 13.747,10.506 13.776,10.506 C13.776,10.496 13.776,10.487 13.776,10.477 C13.834,10.458 13.891,10.439 13.949,10.419 C13.949,10.410 13.949,10.400 13.949,10.391 C13.968,10.391 13.987,10.391 14.007,10.391 C14.007,10.381 14.007,10.371 14.007,10.362 C14.045,10.352 14.083,10.343 14.122,10.333 C14.131,10.314 14.141,10.295 14.150,10.276 C14.170,10.276 14.189,10.276 14.208,10.276 C14.218,10.256 14.227,10.237 14.237,10.218 C14.256,10.218 14.275,10.218 14.294,10.218 C14.323,10.180 14.352,10.141 14.381,10.103 C14.400,10.103 14.419,10.103 14.438,10.103 C14.477,10.055 14.515,10.007 14.553,9.959 C14.573,9.949 14.592,9.940 14.611,9.930 C14.611,9.911 14.611,9.892 14.611,9.873 C14.649,9.844 14.688,9.815 14.726,9.786 C14.726,9.767 14.726,9.748 14.726,9.729 C14.745,9.719 14.764,9.709 14.784,9.700 C14.784,9.681 14.784,9.662 14.784,9.642 C14.803,9.633 14.822,9.623 14.841,9.614 C14.841,9.594 14.841,9.575 14.841,9.556 C14.851,9.556 14.860,9.556 14.870,9.556 C14.870,9.537 14.870,9.518 14.870,9.498 C14.880,9.498 14.889,9.498 14.899,9.498 C14.899,9.479 14.899,9.460 14.899,9.441 C14.908,9.441 14.918,9.441 14.928,9.441 C14.928,9.422 14.928,9.402 14.928,9.383 C14.937,9.383 14.947,9.383 14.956,9.383 C14.966,9.345 14.976,9.307 14.985,9.268 C14.995,9.268 15.004,9.268 15.014,9.268 C15.014,9.239 15.014,9.211 15.014,9.182 C15.024,9.182 15.033,9.182 15.043,9.182 C15.043,9.153 15.043,9.124 15.043,9.095 C15.052,9.095 15.062,9.095 15.071,9.095 C15.071,9.057 15.071,9.019 15.071,8.980 C15.081,8.980 15.091,8.980 15.100,8.980 C15.100,8.932 15.100,8.884 15.100,8.836 C15.110,8.836 15.119,8.836 15.129,8.836 C15.165,8.711 15.130,8.094 15.100,8.002 C15.091,8.002 15.081,8.002 15.071,8.002 C15.071,7.963 15.071,7.925 15.071,7.887 C15.062,7.887 15.052,7.887 15.043,7.887 C15.033,7.829 15.024,7.771 15.014,7.714 C15.004,7.714 14.995,7.714 14.985,7.714 C14.976,7.675 14.966,7.637 14.956,7.599 C14.947,7.599 14.937,7.599 14.928,7.599 C14.928,7.580 14.928,7.560 14.928,7.541 C14.918,7.541 14.908,7.541 14.899,7.541 C14.899,7.522 14.899,7.503 14.899,7.484 C14.889,7.484 14.880,7.484 14.870,7.484 C14.870,7.464 14.870,7.445 14.870,7.426 C14.860,7.426 14.851,7.426 14.841,7.426 C14.841,7.407 14.841,7.388 14.841,7.368 C14.542,6.896 14.076,6.575 13.488,6.390 C13.264,6.319 12.923,6.360 12.654,6.361 Z"/>
</svg>