<svg 
 xmlns="http://www.w3.org/2000/svg"
 xmlns:xlink="http://www.w3.org/1999/xlink"
 width="9px" height="17px">
<path fill-rule="evenodd"  fill="rgb(217, 228, 196)"
 d="M8.612,0.434 L6.464,0.429 C4.052,0.429 2.492,2.030 2.492,4.506 L2.492,6.386 L0.333,6.386 C0.147,6.386 -0.005,6.537 -0.005,6.723 L-0.005,9.447 C-0.005,9.634 0.147,9.784 0.333,9.784 L2.491,9.784 L2.491,16.656 C2.491,16.842 2.644,16.994 2.829,16.994 L5.647,16.994 C5.834,16.994 5.985,16.842 5.985,16.656 L5.985,9.784 L8.509,9.784 C8.695,9.784 8.846,9.634 8.846,9.447 L8.848,6.723 C8.848,6.634 8.812,6.547 8.749,6.484 C8.686,6.421 8.600,6.386 8.511,6.386 L5.985,6.386 L5.985,4.792 C5.985,4.027 6.167,3.637 7.164,3.637 L8.611,3.636 C8.797,3.636 8.949,3.485 8.949,3.301 L8.949,0.772 C8.949,0.583 8.797,0.434 8.612,0.434 Z"/>
</svg>