<svg 
 xmlns="http://www.w3.org/2000/svg"
 xmlns:xlink="http://www.w3.org/1999/xlink"
 width="23px" height="17px">
<path fill-rule="evenodd"  fill="rgb(255, 255, 255)"
 d="M20.566,9.143 L20.566,10.724 L19.173,10.724 L19.173,9.143 L17.547,9.143 L17.547,7.787 L19.173,7.787 L19.173,6.204 L20.566,6.204 L20.566,7.787 L22.192,7.787 L22.192,9.143 L20.566,9.143 ZM8.515,17.002 C3.811,17.002 -0.002,13.292 -0.002,8.711 C-0.002,4.132 3.811,0.421 8.515,0.421 C10.835,0.421 12.937,1.325 14.474,2.789 L12.551,4.824 C11.523,3.811 10.093,3.184 8.515,3.184 C5.379,3.184 2.838,5.659 2.838,8.711 C2.838,11.764 5.378,14.239 8.515,14.239 C11.056,14.239 13.208,12.613 13.932,10.370 L9.082,10.370 L9.082,7.790 L17.030,7.790 L17.030,10.370 C16.240,14.155 12.636,17.002 8.515,17.002 Z"/>
</svg>