<svg 
 xmlns="http://www.w3.org/2000/svg"
 xmlns:xlink="http://www.w3.org/1999/xlink"
 width="50px" height="34px">
<path fill-rule="evenodd"  fill="rgb(122, 161, 54)"
 d="M8.800,11.035 C8.799,10.495 8.645,10.406 8.505,10.060 C8.473,9.833 8.440,9.605 8.407,9.378 C8.374,9.378 8.342,9.378 8.309,9.378 C8.309,9.313 8.309,9.248 8.309,9.183 C8.276,9.183 8.243,9.183 8.210,9.183 C8.145,8.891 8.079,8.598 8.014,8.306 C7.981,8.306 7.948,8.306 7.915,8.306 C7.915,8.241 7.915,8.176 7.915,8.111 C7.883,8.111 7.850,8.111 7.817,8.111 C7.817,7.981 7.817,7.851 7.817,7.721 C7.784,7.721 7.752,7.721 7.719,7.721 C7.719,7.624 7.719,7.526 7.719,7.429 C7.686,7.429 7.653,7.429 7.620,7.429 C7.620,7.364 7.620,7.299 7.620,7.234 C7.588,7.234 7.555,7.234 7.522,7.234 C7.522,7.104 7.522,6.974 7.522,6.844 C7.489,6.844 7.457,6.844 7.424,6.844 C7.424,6.779 7.424,6.714 7.424,6.649 C7.391,6.649 7.358,6.649 7.325,6.649 C7.325,6.519 7.325,6.389 7.325,6.259 C7.293,6.259 7.260,6.259 7.227,6.259 C7.227,6.194 7.227,6.129 7.227,6.064 C7.194,6.064 7.162,6.064 7.129,6.064 C7.129,5.934 7.129,5.804 7.129,5.674 C7.096,5.674 7.063,5.674 7.030,5.674 C7.030,5.609 7.030,5.544 7.030,5.479 C6.998,5.479 6.965,5.479 6.932,5.479 C6.932,5.382 6.932,5.284 6.932,5.187 C6.899,5.187 6.867,5.187 6.834,5.187 C6.834,5.090 6.834,4.992 6.834,4.895 C6.801,4.895 6.768,4.895 6.735,4.895 C6.735,4.797 6.735,4.700 6.735,4.602 C6.703,4.602 6.670,4.602 6.637,4.602 C6.637,4.505 6.637,4.407 6.637,4.310 C6.604,4.310 6.572,4.310 6.539,4.310 C6.539,4.212 6.539,4.115 6.539,4.017 C6.506,4.017 6.473,4.017 6.441,4.017 C6.441,3.920 6.441,3.822 6.441,3.725 C6.408,3.725 6.375,3.725 6.342,3.725 C6.342,3.660 6.342,3.595 6.342,3.530 C6.309,3.530 6.277,3.530 6.244,3.530 C6.244,3.400 6.244,3.270 6.244,3.140 C6.211,3.140 6.178,3.140 6.146,3.140 C6.146,3.075 6.146,3.010 6.146,2.945 C6.113,2.945 6.080,2.945 6.047,2.945 C6.014,2.685 5.982,2.425 5.949,2.166 C5.916,2.166 5.883,2.166 5.851,2.166 C5.916,1.808 5.982,1.451 6.047,1.093 C6.261,0.949 6.192,0.865 6.342,0.704 C6.626,0.400 7.165,0.146 7.620,0.021 C8.139,-0.120 9.113,0.517 9.390,0.704 C9.423,0.769 9.456,0.834 9.489,0.899 C9.554,0.899 9.620,0.899 9.685,0.899 C9.784,1.028 9.882,1.158 9.980,1.288 C10.046,1.288 10.111,1.288 10.177,1.288 C10.243,1.386 10.308,1.483 10.374,1.581 C10.439,1.581 10.505,1.581 10.570,1.581 C10.603,1.646 10.636,1.711 10.669,1.776 C10.734,1.776 10.800,1.776 10.865,1.776 C10.964,1.906 11.062,2.036 11.160,2.166 C11.226,2.166 11.291,2.166 11.357,2.166 C11.422,2.263 11.488,2.360 11.554,2.458 C11.652,2.490 11.750,2.523 11.849,2.555 C11.881,2.620 11.914,2.685 11.947,2.750 C12.012,2.750 12.078,2.750 12.144,2.750 C12.209,2.848 12.275,2.945 12.340,3.043 C12.406,3.043 12.471,3.043 12.537,3.043 C12.602,3.140 12.668,3.238 12.734,3.335 C12.799,3.335 12.865,3.335 12.930,3.335 C12.996,3.433 13.061,3.530 13.127,3.628 C13.192,3.628 13.258,3.628 13.324,3.628 C13.389,3.725 13.455,3.822 13.520,3.920 C13.586,3.920 13.651,3.920 13.717,3.920 C13.815,4.050 13.913,4.180 14.012,4.310 C14.077,4.310 14.143,4.310 14.208,4.310 C14.241,4.375 14.274,4.440 14.307,4.505 C14.372,4.505 14.438,4.505 14.503,4.505 C14.569,4.602 14.635,4.700 14.700,4.797 C14.766,4.797 14.831,4.797 14.897,4.797 C14.962,4.895 15.028,4.992 15.093,5.089 C15.159,5.089 15.225,5.089 15.290,5.089 C15.356,5.187 15.421,5.284 15.487,5.382 C15.552,5.382 15.618,5.382 15.683,5.382 C15.749,5.479 15.814,5.577 15.880,5.674 C15.946,5.674 16.011,5.674 16.077,5.674 C16.175,5.804 16.273,5.934 16.372,6.064 C16.437,6.064 16.503,6.064 16.568,6.064 C16.601,6.129 16.634,6.194 16.667,6.259 C16.732,6.259 16.798,6.259 16.863,6.259 C16.962,6.389 17.060,6.519 17.158,6.649 C17.257,6.681 17.355,6.714 17.453,6.746 C17.486,6.811 17.519,6.876 17.552,6.941 C17.617,6.941 17.683,6.941 17.748,6.941 C17.781,7.006 17.814,7.071 17.847,7.136 C17.912,7.136 17.978,7.136 18.043,7.136 C18.142,7.266 18.240,7.396 18.338,7.526 C18.404,7.526 18.469,7.526 18.535,7.526 C18.568,7.591 18.600,7.656 18.633,7.721 C18.732,7.754 18.830,7.786 18.928,7.819 C19.027,7.948 19.125,8.078 19.223,8.208 C19.289,8.208 19.354,8.208 19.420,8.208 C19.453,8.273 19.485,8.338 19.518,8.403 C19.584,8.403 19.649,8.403 19.715,8.403 C19.813,8.533 19.912,8.663 20.010,8.793 C20.075,8.793 20.141,8.793 20.206,8.793 C20.239,8.858 20.272,8.923 20.305,8.988 C20.370,8.988 20.436,8.988 20.501,8.988 C20.567,9.086 20.633,9.183 20.698,9.280 C20.764,9.280 20.829,9.280 20.895,9.280 C20.960,9.378 21.026,9.475 21.091,9.573 C21.157,9.573 21.223,9.573 21.288,9.573 C21.386,9.703 21.485,9.833 21.583,9.963 C21.649,9.963 21.714,9.963 21.780,9.963 C21.845,10.060 21.911,10.158 21.976,10.255 C22.042,10.255 22.108,10.255 22.173,10.255 C22.435,10.547 22.698,10.840 22.960,11.132 C23.184,11.623 23.156,12.563 23.156,13.277 C23.156,14.608 23.156,15.941 23.156,17.273 C23.156,20.424 23.156,23.576 23.156,26.727 C23.156,28.481 23.156,30.236 23.156,31.990 C23.058,32.315 22.960,32.640 22.861,32.964 C22.665,33.127 22.468,33.289 22.271,33.452 C22.271,33.484 22.271,33.517 22.271,33.549 C22.206,33.549 22.140,33.549 22.075,33.549 C22.042,33.614 22.009,33.679 21.976,33.744 C21.845,33.744 21.714,33.744 21.583,33.744 C21.550,33.809 21.518,33.874 21.485,33.939 C16.307,33.939 11.127,33.939 5.949,33.939 C3.423,33.939 0.892,34.374 0.147,32.672 C-0.012,32.308 0.049,31.620 0.049,31.113 C0.049,30.008 0.049,28.903 0.049,27.799 C0.049,23.933 0.049,20.066 0.049,16.200 C0.049,14.924 -0.178,12.585 0.344,11.815 C0.475,11.717 0.606,11.620 0.737,11.522 C0.803,11.425 0.869,11.327 0.934,11.230 C1.454,10.935 2.585,11.035 3.392,11.035 C5.195,11.035 6.998,11.035 8.800,11.035 ZM35.742,11.035 C35.693,10.414 35.353,9.780 35.152,9.280 C35.120,9.086 35.087,8.891 35.054,8.696 C35.021,8.696 34.989,8.696 34.956,8.696 C34.956,8.631 34.956,8.566 34.956,8.501 C34.923,8.501 34.890,8.501 34.857,8.501 C34.857,8.371 34.857,8.241 34.857,8.111 C34.825,8.111 34.792,8.111 34.759,8.111 C34.759,8.046 34.759,7.981 34.759,7.916 C34.726,7.916 34.694,7.916 34.661,7.916 C34.661,7.819 34.661,7.721 34.661,7.624 C34.628,7.624 34.595,7.624 34.562,7.624 C34.562,7.526 34.562,7.429 34.562,7.331 C34.530,7.331 34.497,7.331 34.464,7.331 C34.464,7.234 34.464,7.136 34.464,7.039 C34.431,7.039 34.399,7.039 34.366,7.039 C34.366,6.909 34.366,6.779 34.366,6.649 C34.333,6.649 34.300,6.649 34.267,6.649 C34.235,6.487 34.202,6.324 34.169,6.162 C34.136,6.162 34.104,6.162 34.071,6.162 C34.071,6.097 34.071,6.032 34.071,5.967 C34.038,5.967 34.005,5.967 33.972,5.967 C33.972,5.837 33.972,5.707 33.972,5.577 C33.940,5.577 33.907,5.577 33.874,5.577 C33.874,5.512 33.874,5.447 33.874,5.382 C33.841,5.382 33.809,5.382 33.776,5.382 C33.776,5.252 33.776,5.122 33.776,4.992 C33.743,4.992 33.710,4.992 33.677,4.992 C33.677,4.927 33.677,4.862 33.677,4.797 C33.645,4.797 33.612,4.797 33.579,4.797 C33.579,4.667 33.579,4.537 33.579,4.407 C33.546,4.407 33.514,4.407 33.481,4.407 C33.481,4.342 33.481,4.277 33.481,4.212 C33.448,4.212 33.415,4.212 33.382,4.212 C33.350,3.985 33.317,3.757 33.284,3.530 C33.251,3.530 33.219,3.530 33.186,3.530 C33.186,3.465 33.186,3.400 33.186,3.335 C33.153,3.335 33.120,3.335 33.088,3.335 C33.088,3.205 33.088,3.075 33.088,2.945 C33.055,2.945 33.022,2.945 32.989,2.945 C32.989,2.880 32.989,2.815 32.989,2.750 C32.956,2.750 32.924,2.750 32.891,2.750 C32.891,2.620 32.891,2.490 32.891,2.360 C32.858,2.360 32.825,2.360 32.793,2.360 C32.825,1.971 32.858,1.581 32.891,1.191 C33.131,1.039 32.951,1.080 33.088,0.899 C33.251,0.769 33.415,0.639 33.579,0.509 C33.612,0.444 33.645,0.379 33.677,0.314 C33.842,0.201 33.902,0.314 34.071,0.119 C34.366,0.086 34.661,0.054 34.956,0.021 C34.956,0.054 34.956,0.086 34.956,0.119 C35.087,0.119 35.218,0.119 35.349,0.119 C35.349,0.151 35.349,0.184 35.349,0.216 C35.415,0.216 35.480,0.216 35.546,0.216 C35.546,0.249 35.546,0.281 35.546,0.314 C35.611,0.314 35.677,0.314 35.742,0.314 C35.775,0.379 35.808,0.444 35.841,0.509 C35.906,0.509 35.972,0.509 36.037,0.509 C36.103,0.606 36.168,0.704 36.234,0.801 C36.300,0.801 36.365,0.801 36.431,0.801 C36.496,0.898 36.562,0.996 36.627,1.093 C36.693,1.093 36.758,1.093 36.824,1.093 C36.890,1.191 36.955,1.288 37.021,1.386 C37.086,1.386 37.152,1.386 37.217,1.386 C37.250,1.451 37.283,1.516 37.316,1.581 C37.381,1.581 37.447,1.581 37.512,1.581 C37.611,1.711 37.709,1.841 37.807,1.971 C37.873,1.971 37.938,1.971 38.004,1.971 C38.069,2.068 38.135,2.166 38.201,2.263 C38.266,2.263 38.332,2.263 38.397,2.263 C38.496,2.393 38.594,2.523 38.692,2.653 C38.758,2.653 38.823,2.653 38.889,2.653 C38.922,2.718 38.954,2.783 38.987,2.848 C39.053,2.848 39.118,2.848 39.184,2.848 C39.282,2.978 39.381,3.108 39.479,3.238 C39.544,3.238 39.610,3.238 39.676,3.238 C39.708,3.303 39.741,3.368 39.774,3.433 C39.839,3.433 39.905,3.433 39.971,3.433 C40.036,3.530 40.102,3.628 40.167,3.725 C40.233,3.725 40.298,3.725 40.364,3.725 C40.462,3.855 40.560,3.985 40.659,4.115 C40.757,4.147 40.855,4.180 40.954,4.212 C40.987,4.277 41.019,4.342 41.052,4.407 C41.118,4.407 41.183,4.407 41.249,4.407 C41.282,4.472 41.314,4.537 41.347,4.602 C41.445,4.635 41.544,4.667 41.642,4.700 C41.708,4.797 41.773,4.895 41.839,4.992 C41.904,4.992 41.970,4.992 42.035,4.992 C42.068,5.057 42.101,5.122 42.134,5.187 C42.232,5.219 42.330,5.252 42.429,5.284 C42.494,5.382 42.560,5.479 42.625,5.577 C42.691,5.577 42.756,5.577 42.822,5.577 C42.855,5.642 42.888,5.707 42.920,5.772 C43.019,5.804 43.117,5.837 43.215,5.869 C43.281,5.967 43.346,6.064 43.412,6.162 C43.478,6.162 43.543,6.162 43.609,6.162 C43.674,6.259 43.740,6.357 43.805,6.454 C43.871,6.454 43.936,6.454 44.002,6.454 C44.068,6.551 44.133,6.649 44.199,6.746 C44.264,6.746 44.330,6.746 44.395,6.746 C44.461,6.844 44.526,6.941 44.592,7.039 C44.657,7.039 44.723,7.039 44.789,7.039 C44.854,7.136 44.920,7.234 44.985,7.331 C45.051,7.331 45.116,7.331 45.182,7.331 C45.215,7.396 45.247,7.461 45.280,7.526 C45.379,7.559 45.477,7.591 45.575,7.624 C45.674,7.754 45.772,7.883 45.870,8.013 C45.936,8.013 46.001,8.013 46.067,8.013 C46.100,8.078 46.132,8.143 46.165,8.208 C46.231,8.208 46.296,8.208 46.362,8.208 C46.460,8.338 46.559,8.468 46.657,8.598 C46.722,8.598 46.788,8.598 46.853,8.598 C46.919,8.696 46.985,8.793 47.050,8.891 C47.116,8.891 47.181,8.891 47.247,8.891 C47.280,8.956 47.312,9.021 47.345,9.086 C47.411,9.086 47.476,9.086 47.542,9.086 C47.640,9.215 47.738,9.345 47.837,9.475 C47.935,9.508 48.033,9.540 48.132,9.573 C48.165,9.638 48.197,9.703 48.230,9.768 C48.296,9.768 48.361,9.768 48.427,9.768 C48.525,9.898 48.623,10.028 48.722,10.158 C48.787,10.158 48.853,10.158 48.918,10.158 C48.951,10.223 48.984,10.288 49.017,10.353 C49.082,10.353 49.148,10.353 49.213,10.353 C49.312,10.483 49.410,10.613 49.508,10.742 C49.541,10.742 49.574,10.742 49.607,10.742 C49.607,10.807 49.607,10.872 49.607,10.937 C49.672,10.970 49.738,11.002 49.803,11.035 C49.803,11.132 49.803,11.230 49.803,11.327 C49.869,11.360 49.934,11.392 50.000,11.425 C50.000,14.706 50.000,17.988 50.000,21.269 C50.000,24.160 50.000,27.052 50.000,29.943 C50.000,30.788 50.000,31.633 50.000,32.477 C49.967,32.477 49.934,32.477 49.902,32.477 C49.869,32.607 49.836,32.737 49.803,32.867 C49.738,32.899 49.672,32.932 49.607,32.964 C49.607,33.029 49.607,33.094 49.607,33.159 C49.574,33.159 49.541,33.159 49.508,33.159 C49.410,33.289 49.312,33.419 49.213,33.549 C48.217,34.212 45.894,33.939 44.297,33.939 C40.364,33.939 36.430,33.939 32.498,33.939 C31.254,33.939 28.938,34.168 28.073,33.744 C28.040,33.679 28.007,33.614 27.974,33.549 C27.876,33.517 27.778,33.484 27.679,33.452 C27.679,33.419 27.679,33.387 27.679,33.354 C27.581,33.322 27.483,33.289 27.384,33.257 C26.835,32.564 26.991,31.073 26.991,29.846 C26.991,27.084 26.991,24.322 26.991,21.561 C26.991,19.287 26.991,17.012 26.991,14.739 C26.991,14.233 26.872,12.548 27.089,12.302 C27.122,12.172 27.155,12.042 27.188,11.912 C27.253,11.880 27.319,11.847 27.384,11.815 C27.384,11.750 27.384,11.685 27.384,11.620 C27.450,11.587 27.516,11.555 27.581,11.522 C27.581,11.490 27.581,11.457 27.581,11.425 C27.647,11.425 27.712,11.425 27.778,11.425 C27.811,11.360 27.843,11.295 27.876,11.230 C28.054,11.116 28.097,11.229 28.269,11.035 C30.760,11.035 33.252,11.035 35.742,11.035 ZM3.884,14.836 C3.884,19.871 3.884,24.908 3.884,29.943 C4.263,30.080 4.928,30.040 5.457,30.040 C6.506,30.040 7.555,30.040 8.604,30.040 C12.110,30.040 15.618,30.040 19.125,30.040 C19.280,29.617 19.223,28.863 19.223,28.286 C19.223,27.117 19.223,25.947 19.223,24.777 C19.223,20.814 19.223,16.850 19.223,12.887 C19.092,12.789 18.961,12.692 18.830,12.594 C18.830,12.562 18.830,12.529 18.830,12.497 C18.764,12.497 18.699,12.497 18.633,12.497 C18.600,12.432 18.568,12.367 18.535,12.302 C18.469,12.302 18.404,12.302 18.338,12.302 C18.240,12.172 18.142,12.042 18.043,11.912 C17.978,11.912 17.912,11.912 17.847,11.912 C17.814,11.847 17.781,11.782 17.748,11.717 C17.683,11.717 17.617,11.717 17.552,11.717 C17.453,11.587 17.355,11.457 17.257,11.327 C17.191,11.327 17.126,11.327 17.060,11.327 C16.994,11.230 16.929,11.132 16.863,11.035 C16.765,11.002 16.667,10.970 16.568,10.937 C16.536,10.872 16.503,10.807 16.470,10.742 C16.404,10.742 16.339,10.742 16.273,10.742 C16.241,10.677 16.208,10.612 16.175,10.548 C16.109,10.548 16.044,10.548 15.978,10.548 C15.880,10.418 15.782,10.288 15.683,10.158 C15.618,10.158 15.552,10.158 15.487,10.158 C15.421,10.060 15.356,9.963 15.290,9.865 C15.225,9.865 15.159,9.865 15.093,9.865 C15.028,9.768 14.962,9.670 14.897,9.573 C14.831,9.573 14.766,9.573 14.700,9.573 C14.635,9.475 14.569,9.378 14.503,9.280 C14.438,9.280 14.372,9.280 14.307,9.280 C14.241,9.183 14.176,9.086 14.110,8.988 C14.045,8.988 13.979,8.988 13.913,8.988 C13.848,8.891 13.782,8.793 13.717,8.696 C13.651,8.696 13.586,8.696 13.520,8.696 C13.455,8.598 13.389,8.501 13.324,8.403 C13.258,8.403 13.192,8.403 13.127,8.403 C13.029,8.273 12.930,8.143 12.832,8.013 C12.766,8.013 12.701,8.013 12.635,8.013 C12.602,7.948 12.570,7.883 12.537,7.819 C12.471,7.819 12.406,7.819 12.340,7.819 C12.307,7.754 12.275,7.689 12.242,7.624 C12.078,7.526 11.914,7.429 11.750,7.331 C11.750,7.429 11.750,7.526 11.750,7.624 C11.783,7.624 11.816,7.624 11.849,7.624 C11.881,7.818 11.914,8.013 11.947,8.208 C11.980,8.208 12.012,8.208 12.045,8.208 C12.045,8.306 12.045,8.403 12.045,8.501 C12.078,8.501 12.111,8.501 12.144,8.501 C12.144,8.631 12.144,8.761 12.144,8.891 C12.209,8.923 12.275,8.956 12.340,8.988 C12.340,9.118 12.340,9.248 12.340,9.378 C12.373,9.378 12.406,9.378 12.439,9.378 C12.439,9.443 12.439,9.508 12.439,9.573 C12.471,9.573 12.504,9.573 12.537,9.573 C12.537,9.703 12.537,9.833 12.537,9.963 C12.570,9.963 12.602,9.963 12.635,9.963 C12.635,10.028 12.635,10.093 12.635,10.158 C12.668,10.158 12.701,10.158 12.734,10.158 C12.734,10.288 12.734,10.418 12.734,10.548 C12.766,10.548 12.799,10.548 12.832,10.548 C12.832,10.612 12.832,10.677 12.832,10.742 C12.865,10.742 12.897,10.742 12.930,10.742 C12.930,10.840 12.930,10.937 12.930,11.035 C12.963,11.035 12.996,11.035 13.029,11.035 C13.029,11.132 13.029,11.230 13.029,11.327 C13.061,11.327 13.094,11.327 13.127,11.327 C13.127,11.425 13.127,11.522 13.127,11.620 C13.160,11.620 13.192,11.620 13.225,11.620 C13.225,11.750 13.225,11.880 13.225,12.009 C13.258,12.009 13.291,12.009 13.324,12.009 C13.324,12.074 13.324,12.139 13.324,12.204 C13.356,12.204 13.389,12.204 13.422,12.204 C13.422,12.399 13.422,12.594 13.422,12.789 C13.455,12.789 13.487,12.789 13.520,12.789 C13.520,12.822 13.520,12.854 13.520,12.887 C13.487,12.887 13.455,12.887 13.422,12.887 C13.422,12.919 13.422,12.952 13.422,12.984 C13.455,12.984 13.487,12.984 13.520,12.984 C13.520,13.017 13.520,13.049 13.520,13.082 C13.487,13.082 13.455,13.082 13.422,13.082 C13.422,13.244 13.422,13.407 13.422,13.569 C13.389,13.569 13.356,13.569 13.324,13.569 C13.291,13.699 13.258,13.829 13.225,13.959 C13.029,14.121 12.832,14.284 12.635,14.446 C12.635,14.479 12.635,14.511 12.635,14.544 C12.570,14.544 12.504,14.544 12.439,14.544 C12.035,14.940 10.889,14.836 10.079,14.836 C8.014,14.836 5.949,14.836 3.884,14.836 ZM30.728,14.836 C30.728,19.871 30.728,24.908 30.728,29.943 C31.106,30.080 31.772,30.040 32.301,30.040 C33.350,30.040 34.399,30.040 35.447,30.040 C38.987,30.040 42.527,30.040 46.067,30.040 C46.222,29.617 46.165,28.863 46.165,28.286 C46.165,27.117 46.165,25.947 46.165,24.777 C46.165,20.814 46.165,16.850 46.165,12.887 C46.039,12.821 46.033,12.735 45.969,12.692 C45.903,12.692 45.837,12.692 45.772,12.692 C45.706,12.594 45.641,12.497 45.575,12.399 C45.510,12.399 45.444,12.399 45.379,12.399 C45.313,12.302 45.247,12.204 45.182,12.107 C45.116,12.107 45.051,12.107 44.985,12.107 C44.920,12.010 44.854,11.912 44.789,11.815 C44.723,11.815 44.657,11.815 44.592,11.815 C44.526,11.717 44.461,11.620 44.395,11.522 C44.330,11.522 44.264,11.522 44.199,11.522 C44.133,11.425 44.068,11.327 44.002,11.230 C43.936,11.230 43.871,11.230 43.805,11.230 C43.740,11.132 43.674,11.035 43.609,10.937 C43.543,10.937 43.478,10.937 43.412,10.937 C43.314,10.807 43.215,10.677 43.117,10.548 C43.051,10.548 42.986,10.548 42.920,10.548 C42.888,10.483 42.855,10.418 42.822,10.353 C42.756,10.353 42.691,10.353 42.625,10.353 C42.527,10.223 42.429,10.093 42.330,9.963 C42.265,9.963 42.199,9.963 42.134,9.963 C42.068,9.865 42.003,9.768 41.937,9.670 C41.872,9.670 41.806,9.670 41.740,9.670 C41.708,9.605 41.675,9.540 41.642,9.475 C41.577,9.475 41.511,9.475 41.445,9.475 C41.347,9.345 41.249,9.215 41.150,9.086 C41.052,9.053 40.954,9.021 40.855,8.988 C40.823,8.923 40.790,8.858 40.757,8.793 C40.692,8.793 40.626,8.793 40.560,8.793 C40.495,8.696 40.429,8.598 40.364,8.501 C40.298,8.501 40.233,8.501 40.167,8.501 C40.102,8.403 40.036,8.306 39.971,8.208 C39.905,8.208 39.839,8.208 39.774,8.208 C39.676,8.078 39.577,7.948 39.479,7.819 C39.413,7.819 39.348,7.819 39.282,7.819 C39.249,7.754 39.217,7.689 39.184,7.624 C39.118,7.624 39.053,7.624 38.987,7.624 C38.922,7.526 38.856,7.429 38.791,7.331 C38.758,7.331 38.725,7.331 38.692,7.331 C38.692,7.364 38.692,7.396 38.692,7.429 C38.659,7.429 38.627,7.429 38.594,7.429 C38.987,8.501 39.381,9.573 39.774,10.645 C39.839,10.937 39.905,11.230 39.971,11.522 C40.134,11.929 40.599,12.629 40.364,13.374 C40.295,13.590 40.125,13.783 40.069,14.056 C39.938,14.154 39.807,14.251 39.676,14.349 C39.676,14.381 39.676,14.414 39.676,14.446 C39.610,14.446 39.544,14.446 39.479,14.446 C39.446,14.511 39.413,14.576 39.381,14.641 C39.151,14.674 38.922,14.706 38.692,14.739 C38.692,14.771 38.692,14.803 38.692,14.836 C36.038,14.836 33.382,14.836 30.728,14.836 Z"/>
</svg>