<svg 
 xmlns="http://www.w3.org/2000/svg"
 xmlns:xlink="http://www.w3.org/1999/xlink"
 width="21px" height="17px">
<path fill-rule="evenodd"  fill="rgb(253, 253, 253)"
 d="M21.005,2.385 C20.235,2.717 19.407,2.944 18.536,3.044 C19.424,2.526 20.105,1.706 20.426,0.729 C19.595,1.208 18.677,1.557 17.697,1.744 C16.913,0.931 15.795,0.423 14.560,0.423 C12.186,0.423 10.262,2.296 10.262,4.608 C10.262,4.936 10.299,5.255 10.372,5.561 C6.801,5.387 3.633,3.720 1.513,1.189 C1.143,1.807 0.931,2.526 0.931,3.293 C0.931,4.745 1.689,6.026 2.843,6.777 C2.139,6.754 1.476,6.566 0.897,6.254 C0.897,6.270 0.897,6.287 0.897,6.306 C0.897,8.334 2.378,10.024 4.344,10.409 C3.983,10.505 3.604,10.556 3.211,10.556 C2.934,10.556 2.665,10.530 2.402,10.481 C2.949,12.143 4.538,13.354 6.418,13.387 C4.947,14.509 3.094,15.178 1.080,15.178 C0.734,15.178 0.391,15.159 0.055,15.120 C1.957,16.307 4.216,17.000 6.642,17.000 C14.549,17.000 18.873,10.623 18.873,5.094 C18.873,4.911 18.868,4.732 18.860,4.553 C19.702,3.962 20.429,3.224 21.005,2.385 Z"/>
</svg>