<svg 
 xmlns="http://www.w3.org/2000/svg"
 xmlns:xlink="http://www.w3.org/1999/xlink"
 width="25px" height="17px">
<path fill-rule="evenodd"  fill="rgb(255, 255, 255)"
 d="M23.905,2.669 C23.609,1.405 22.553,0.473 21.281,0.334 C18.272,0.005 15.225,0.003 12.193,0.005 C9.161,0.003 6.113,0.005 3.104,0.334 C1.832,0.473 0.778,1.405 0.482,2.669 C0.058,4.469 0.053,6.433 0.053,8.287 C0.053,10.139 0.053,12.104 0.477,13.903 C0.773,15.166 1.828,16.099 3.101,16.238 C6.108,16.567 9.156,16.569 12.188,16.567 C15.222,16.569 18.268,16.567 21.277,16.238 C22.548,16.099 23.603,15.166 23.901,13.903 C24.324,12.104 24.326,10.139 24.326,8.287 C24.326,6.433 24.328,4.469 23.905,2.669 ZM9.057,11.975 C9.057,9.347 9.057,6.745 9.057,4.116 C11.630,5.429 14.184,6.735 16.773,8.057 C14.192,9.368 11.637,10.664 9.057,11.975 Z"/>
</svg>