<svg 
 xmlns="http://www.w3.org/2000/svg"
 xmlns:xlink="http://www.w3.org/1999/xlink"
 width="28px" height="18px">
<path fill-rule="evenodd"  fill="rgb(27, 27, 27)"
 d="M-0.000,10.264 C-0.000,9.422 -0.000,8.580 -0.000,7.737 C7.676,7.737 15.355,7.737 23.031,7.737 C23.031,7.729 23.031,7.721 23.031,7.713 C22.963,7.675 22.893,7.578 22.836,7.522 C22.816,7.506 22.795,7.490 22.775,7.474 C22.661,7.358 22.548,7.242 22.434,7.127 C22.324,7.023 22.215,6.919 22.105,6.815 C21.776,6.488 21.448,6.161 21.119,5.833 C20.644,5.370 20.169,4.907 19.694,4.444 C19.227,3.981 18.760,3.518 18.293,3.055 C18.050,2.820 17.806,2.584 17.562,2.349 C17.514,2.297 17.465,2.245 17.416,2.193 C17.327,2.109 17.238,2.025 17.148,1.941 C17.148,1.937 17.148,1.933 17.148,1.929 C17.105,1.887 17.046,1.851 17.014,1.798 C17.082,1.759 17.153,1.662 17.209,1.606 C17.230,1.590 17.250,1.574 17.270,1.558 C17.384,1.443 17.497,1.327 17.611,1.211 C17.684,1.143 17.757,1.075 17.830,1.007 C18.037,0.800 18.244,0.592 18.452,0.385 C18.464,0.377 18.476,0.369 18.488,0.361 C18.565,0.281 18.642,0.201 18.719,0.121 C18.759,0.082 18.812,0.051 18.841,0.001 C18.855,0.012 18.843,-0.000 18.853,0.013 C21.902,3.007 24.951,6.001 28.000,8.995 C28.000,8.999 28.000,9.003 28.000,9.007 C27.996,9.007 27.992,9.007 27.988,9.007 C24.943,12.004 21.898,15.003 18.853,18.000 C18.849,18.000 18.845,18.000 18.841,18.000 C18.841,17.996 18.841,17.992 18.841,17.988 C18.773,17.949 18.703,17.852 18.646,17.796 C18.626,17.780 18.606,17.764 18.585,17.749 C18.472,17.633 18.358,17.517 18.244,17.401 C18.171,17.333 18.098,17.266 18.025,17.198 C17.818,16.990 17.611,16.783 17.404,16.575 C17.392,16.567 17.380,16.559 17.368,16.551 C17.290,16.471 17.213,16.391 17.136,16.312 C17.096,16.272 17.044,16.241 17.014,16.192 C17.069,16.161 17.105,16.103 17.148,16.060 C17.161,16.052 17.173,16.044 17.185,16.036 C17.274,15.944 17.364,15.852 17.453,15.761 C17.522,15.697 17.591,15.633 17.660,15.569 C17.912,15.318 18.163,15.066 18.415,14.815 C18.959,14.284 19.503,13.753 20.047,13.222 C20.534,12.739 21.021,12.256 21.508,11.773 C21.805,11.486 22.101,11.198 22.398,10.911 C22.471,10.835 22.544,10.759 22.617,10.683 C22.718,10.583 22.820,10.484 22.921,10.384 C22.961,10.344 23.026,10.313 23.043,10.252 C23.039,10.252 23.035,10.252 23.031,10.252 C23.010,10.270 22.960,10.264 22.921,10.264 C22.828,10.264 22.735,10.264 22.641,10.264 C22.272,10.264 21.902,10.264 21.533,10.264 C20.076,10.264 18.618,10.264 17.161,10.264 C11.441,10.264 5.720,10.264 -0.000,10.264 Z"/>
</svg>