<svg 
 xmlns="http://www.w3.org/2000/svg"
 xmlns:xlink="http://www.w3.org/1999/xlink"
 width="37px" height="37px">
<path fill-rule="evenodd"  fill="rgb(69, 69, 69)"
 d="M27.676,8.546 C29.794,8.546 31.913,8.546 34.031,8.546 C34.411,8.546 34.791,8.546 35.171,8.546 C35.364,8.552 35.558,8.558 35.751,8.564 C35.751,8.570 35.751,8.576 35.751,8.582 C35.781,8.582 35.811,8.582 35.841,8.582 C35.841,8.588 35.841,8.594 35.841,8.600 C35.865,8.600 35.890,8.600 35.914,8.600 C35.914,8.606 35.914,8.612 35.914,8.618 C35.938,8.618 35.962,8.618 35.986,8.618 C35.986,8.624 35.986,8.630 35.986,8.636 C36.004,8.636 36.022,8.636 36.040,8.636 C36.040,8.643 36.040,8.649 36.040,8.655 C36.052,8.655 36.065,8.655 36.077,8.655 C36.077,8.661 36.077,8.667 36.077,8.673 C36.095,8.673 36.113,8.673 36.131,8.673 C36.131,8.679 36.131,8.685 36.131,8.691 C36.143,8.691 36.155,8.691 36.167,8.691 C36.167,8.697 36.167,8.703 36.167,8.709 C36.203,8.721 36.240,8.733 36.276,8.745 C36.282,8.757 36.288,8.769 36.294,8.781 C36.306,8.781 36.318,8.781 36.330,8.781 C36.336,8.794 36.342,8.806 36.348,8.818 C36.360,8.818 36.372,8.818 36.384,8.818 C36.396,8.836 36.409,8.854 36.421,8.872 C36.433,8.872 36.445,8.872 36.457,8.872 C36.487,8.908 36.517,8.945 36.547,8.981 C36.584,9.011 36.620,9.041 36.656,9.071 C36.656,9.084 36.656,9.096 36.656,9.108 C36.674,9.120 36.692,9.132 36.710,9.144 C36.710,9.156 36.710,9.168 36.710,9.180 C36.722,9.186 36.734,9.192 36.747,9.198 C36.753,9.222 36.759,9.247 36.765,9.271 C36.777,9.277 36.789,9.283 36.801,9.289 C36.819,9.343 36.837,9.398 36.855,9.452 C36.861,9.452 36.867,9.452 36.873,9.452 C36.873,9.464 36.873,9.476 36.873,9.488 C36.879,9.488 36.885,9.488 36.891,9.488 C36.897,9.525 36.903,9.561 36.909,9.597 C36.916,9.597 36.922,9.597 36.928,9.597 C36.940,9.676 36.952,9.754 36.964,9.833 C36.970,9.833 36.976,9.833 36.982,9.833 C36.988,9.941 36.994,10.050 37.000,10.159 C36.994,10.159 36.988,10.159 36.982,10.159 C36.982,10.219 36.982,10.280 36.982,10.340 C36.922,10.541 36.869,10.766 36.801,10.956 C36.795,11.005 36.789,11.053 36.783,11.101 C36.710,11.304 36.656,11.551 36.584,11.754 C36.578,11.802 36.572,11.850 36.565,11.899 C36.559,11.899 36.553,11.899 36.547,11.899 C36.547,11.917 36.547,11.935 36.547,11.953 C36.541,11.953 36.535,11.953 36.529,11.953 C36.517,12.020 36.505,12.086 36.493,12.152 C36.487,12.152 36.481,12.152 36.475,12.152 C36.463,12.219 36.451,12.285 36.439,12.352 C36.433,12.352 36.427,12.352 36.421,12.352 C36.415,12.400 36.409,12.448 36.403,12.497 C36.396,12.497 36.390,12.497 36.384,12.497 C36.384,12.515 36.384,12.533 36.384,12.551 C36.378,12.551 36.372,12.551 36.366,12.551 C36.354,12.618 36.342,12.684 36.330,12.751 C36.324,12.751 36.318,12.751 36.312,12.751 C36.300,12.817 36.288,12.883 36.276,12.950 C36.270,12.950 36.264,12.950 36.258,12.950 C36.252,12.998 36.246,13.047 36.240,13.095 C36.074,13.555 35.988,14.084 35.823,14.545 C35.817,14.593 35.811,14.641 35.805,14.690 C35.732,14.892 35.678,15.140 35.606,15.342 C35.600,15.391 35.594,15.439 35.588,15.487 C35.582,15.487 35.576,15.487 35.570,15.487 C35.570,15.505 35.570,15.523 35.570,15.542 C35.564,15.542 35.558,15.542 35.552,15.542 C35.540,15.608 35.527,15.675 35.515,15.741 C35.509,15.741 35.503,15.741 35.497,15.741 C35.485,15.807 35.473,15.874 35.461,15.940 C35.455,15.940 35.449,15.940 35.443,15.940 C35.437,15.989 35.431,16.037 35.425,16.085 C35.419,16.085 35.413,16.085 35.407,16.085 C35.407,16.103 35.407,16.122 35.407,16.140 C35.401,16.140 35.395,16.140 35.389,16.140 C35.377,16.206 35.365,16.273 35.352,16.339 C35.346,16.339 35.340,16.339 35.334,16.339 C35.322,16.405 35.310,16.472 35.298,16.538 C35.292,16.538 35.286,16.538 35.280,16.538 C35.274,16.587 35.268,16.635 35.262,16.683 C35.088,17.166 35.000,17.723 34.827,18.206 C34.821,18.254 34.815,18.302 34.809,18.351 C34.803,18.351 34.797,18.351 34.791,18.351 C34.791,18.369 34.791,18.387 34.791,18.405 C34.785,18.405 34.779,18.405 34.773,18.405 C34.761,18.472 34.749,18.538 34.737,18.604 C34.731,18.604 34.725,18.604 34.719,18.604 C34.707,18.671 34.695,18.737 34.683,18.804 C34.677,18.804 34.670,18.804 34.664,18.804 C34.658,18.852 34.652,18.901 34.646,18.949 C34.640,18.949 34.634,18.949 34.628,18.949 C34.628,18.967 34.628,18.985 34.628,19.003 C34.622,19.003 34.616,19.003 34.610,19.003 C34.598,19.070 34.586,19.136 34.574,19.203 C34.568,19.203 34.562,19.203 34.556,19.203 C34.544,19.269 34.532,19.335 34.520,19.402 C34.514,19.402 34.508,19.402 34.501,19.402 C34.495,19.450 34.489,19.499 34.483,19.547 C34.341,19.943 34.263,20.401 34.121,20.797 C34.091,20.930 34.061,21.063 34.031,21.196 C34.025,21.196 34.019,21.196 34.013,21.196 C34.007,21.245 34.001,21.293 33.995,21.341 C33.989,21.341 33.982,21.341 33.976,21.341 C33.976,21.359 33.976,21.377 33.976,21.396 C33.970,21.396 33.964,21.396 33.958,21.396 C33.946,21.462 33.934,21.528 33.922,21.595 C33.916,21.595 33.910,21.595 33.904,21.595 C33.904,21.619 33.904,21.643 33.904,21.667 C33.898,21.667 33.892,21.667 33.886,21.667 C33.886,21.692 33.886,21.716 33.886,21.740 C33.743,22.136 33.666,22.594 33.524,22.990 C33.494,23.123 33.463,23.256 33.433,23.389 C33.427,23.389 33.421,23.389 33.415,23.389 C33.409,23.437 33.403,23.486 33.397,23.534 C33.391,23.534 33.385,23.534 33.379,23.534 C33.379,23.552 33.379,23.570 33.379,23.588 C33.373,23.588 33.367,23.588 33.361,23.588 C33.349,23.655 33.337,23.721 33.325,23.788 C33.319,23.788 33.313,23.788 33.307,23.788 C33.307,23.812 33.307,23.836 33.307,23.860 C33.301,23.860 33.294,23.860 33.288,23.860 C33.288,23.885 33.288,23.909 33.288,23.933 C33.123,24.393 33.037,24.922 32.872,25.383 C32.848,25.498 32.824,25.612 32.800,25.727 C32.680,26.059 32.611,26.446 32.492,26.778 C32.468,26.893 32.444,27.008 32.419,27.123 C32.323,27.390 32.261,27.707 32.166,27.974 C32.160,28.023 32.154,28.071 32.148,28.119 C32.075,28.322 32.021,28.570 31.949,28.772 C31.943,28.820 31.937,28.869 31.931,28.917 C31.925,28.917 31.919,28.917 31.912,28.917 C31.912,28.935 31.912,28.953 31.912,28.971 C31.906,28.971 31.900,28.971 31.894,28.971 C31.882,29.038 31.870,29.104 31.858,29.171 C31.852,29.171 31.846,29.171 31.840,29.171 C31.828,29.237 31.816,29.303 31.804,29.370 C31.798,29.370 31.792,29.370 31.786,29.370 C31.780,29.418 31.774,29.467 31.768,29.515 C31.762,29.515 31.756,29.515 31.750,29.515 C31.750,29.533 31.750,29.551 31.750,29.569 C31.743,29.569 31.737,29.569 31.731,29.569 C31.719,29.636 31.707,29.702 31.695,29.769 C31.689,29.769 31.683,29.769 31.677,29.769 C31.665,29.835 31.653,29.902 31.641,29.968 C31.635,29.968 31.629,29.968 31.623,29.968 C31.617,30.016 31.611,30.065 31.605,30.113 C31.439,30.573 31.353,31.102 31.188,31.563 C31.182,31.611 31.176,31.660 31.170,31.708 C31.164,31.708 31.158,31.708 31.152,31.708 C31.152,31.732 31.152,31.756 31.152,31.780 C31.146,31.780 31.140,31.780 31.134,31.780 C31.134,31.799 31.134,31.817 31.134,31.835 C31.128,31.835 31.122,31.835 31.116,31.835 C31.104,31.901 31.092,31.968 31.080,32.034 C31.074,32.034 31.068,32.034 31.062,32.034 C31.055,32.082 31.049,32.131 31.043,32.179 C31.037,32.179 31.031,32.179 31.025,32.179 C31.025,32.197 31.025,32.215 31.025,32.233 C31.019,32.233 31.013,32.233 31.007,32.233 C30.995,32.300 30.983,32.366 30.971,32.433 C30.965,32.433 30.959,32.433 30.953,32.433 C30.941,32.499 30.929,32.566 30.917,32.632 C30.911,32.632 30.905,32.632 30.899,32.632 C30.893,32.681 30.887,32.729 30.880,32.777 C30.874,32.777 30.868,32.777 30.862,32.777 C30.862,32.795 30.862,32.813 30.862,32.832 C30.856,32.832 30.850,32.832 30.844,32.832 C30.832,32.898 30.820,32.964 30.808,33.031 C30.802,33.031 30.796,33.031 30.790,33.031 C30.778,33.097 30.766,33.164 30.754,33.230 C30.748,33.230 30.742,33.230 30.736,33.230 C30.730,33.279 30.724,33.327 30.718,33.375 C30.552,33.836 30.466,34.364 30.301,34.825 C30.295,34.873 30.289,34.922 30.283,34.970 C30.187,35.237 30.125,35.555 30.030,35.822 C30.011,35.900 29.993,35.979 29.975,36.058 C29.969,36.058 29.963,36.058 29.957,36.058 C29.945,36.094 29.933,36.130 29.921,36.166 C29.915,36.166 29.909,36.166 29.903,36.166 C29.897,36.190 29.891,36.215 29.885,36.239 C29.873,36.245 29.861,36.251 29.848,36.257 C29.842,36.281 29.836,36.305 29.830,36.329 C29.812,36.342 29.794,36.354 29.776,36.366 C29.776,36.378 29.776,36.390 29.776,36.402 C29.752,36.420 29.728,36.438 29.704,36.456 C29.704,36.468 29.704,36.480 29.704,36.493 C29.667,36.523 29.631,36.553 29.595,36.583 C29.589,36.595 29.583,36.607 29.577,36.619 C29.565,36.619 29.553,36.619 29.541,36.619 C29.523,36.644 29.504,36.668 29.486,36.692 C29.474,36.692 29.462,36.692 29.450,36.692 C29.438,36.710 29.426,36.728 29.414,36.746 C29.402,36.746 29.390,36.746 29.378,36.746 C29.372,36.758 29.366,36.770 29.360,36.783 C29.348,36.783 29.336,36.783 29.323,36.783 C29.323,36.789 29.323,36.795 29.323,36.801 C29.311,36.801 29.299,36.801 29.287,36.801 C29.287,36.807 29.287,36.813 29.287,36.819 C29.275,36.819 29.263,36.819 29.251,36.819 C29.251,36.825 29.251,36.831 29.251,36.837 C29.239,36.837 29.227,36.837 29.215,36.837 C29.215,36.843 29.215,36.849 29.215,36.855 C29.203,36.855 29.191,36.855 29.179,36.855 C29.179,36.861 29.179,36.867 29.179,36.873 C29.154,36.879 29.130,36.885 29.106,36.891 C29.106,36.897 29.106,36.903 29.106,36.909 C29.088,36.909 29.070,36.909 29.052,36.909 C29.052,36.915 29.052,36.921 29.052,36.928 C29.034,36.928 29.016,36.928 28.998,36.928 C28.998,36.934 28.998,36.940 28.998,36.946 C28.973,36.946 28.949,36.946 28.925,36.946 C28.925,36.952 28.925,36.958 28.925,36.964 C28.901,36.964 28.877,36.964 28.853,36.964 C28.853,36.970 28.853,36.976 28.853,36.982 C28.823,36.982 28.792,36.982 28.762,36.982 C28.762,36.988 28.762,36.994 28.762,37.000 C23.349,37.000 17.935,37.000 12.522,37.000 C11.430,37.000 10.337,37.000 9.245,37.000 C8.913,37.000 8.581,37.000 8.249,37.000 C8.122,36.964 7.996,36.928 7.869,36.891 C7.869,36.885 7.869,36.879 7.869,36.873 C7.833,36.861 7.796,36.849 7.760,36.837 C7.760,36.831 7.760,36.825 7.760,36.819 C7.736,36.813 7.712,36.807 7.688,36.801 C7.682,36.789 7.676,36.776 7.670,36.764 C7.658,36.764 7.646,36.764 7.634,36.764 C7.634,36.758 7.634,36.752 7.634,36.746 C7.615,36.740 7.597,36.734 7.579,36.728 C7.573,36.716 7.567,36.704 7.561,36.692 C7.549,36.692 7.537,36.692 7.525,36.692 C7.495,36.656 7.465,36.619 7.434,36.583 C7.410,36.571 7.386,36.559 7.362,36.547 C7.362,36.535 7.362,36.523 7.362,36.511 C7.326,36.480 7.290,36.450 7.253,36.420 C7.253,36.408 7.253,36.396 7.253,36.384 C7.235,36.372 7.217,36.360 7.199,36.348 C7.199,36.335 7.199,36.323 7.199,36.311 C7.187,36.305 7.175,36.299 7.163,36.293 C7.151,36.257 7.139,36.221 7.127,36.184 C7.121,36.184 7.115,36.184 7.109,36.184 C7.109,36.172 7.109,36.160 7.109,36.148 C7.102,36.148 7.096,36.148 7.090,36.148 C7.078,36.112 7.066,36.076 7.054,36.039 C7.048,36.039 7.042,36.039 7.036,36.039 C7.024,35.979 7.012,35.919 7.000,35.858 C6.927,35.656 6.873,35.409 6.801,35.206 C6.795,35.157 6.789,35.109 6.783,35.061 C6.777,35.061 6.771,35.061 6.765,35.061 C6.765,35.043 6.765,35.025 6.765,35.006 C6.758,35.006 6.752,35.006 6.746,35.006 C6.734,34.940 6.722,34.873 6.710,34.807 C6.704,34.807 6.698,34.807 6.692,34.807 C6.680,34.741 6.668,34.674 6.656,34.608 C6.650,34.608 6.644,34.608 6.638,34.608 C6.632,34.559 6.626,34.511 6.620,34.463 C6.462,34.025 6.378,33.523 6.221,33.085 C6.191,32.952 6.161,32.819 6.131,32.687 C6.125,32.687 6.119,32.687 6.113,32.687 C6.107,32.638 6.101,32.590 6.095,32.542 C6.089,32.542 6.083,32.542 6.077,32.542 C6.077,32.523 6.077,32.505 6.077,32.487 C6.070,32.487 6.064,32.487 6.058,32.487 C6.046,32.421 6.034,32.354 6.022,32.288 C6.016,32.288 6.010,32.288 6.004,32.288 C5.992,32.221 5.980,32.155 5.968,32.088 C5.962,32.088 5.956,32.088 5.950,32.088 C5.944,32.040 5.938,31.992 5.932,31.944 C5.789,31.547 5.711,31.090 5.570,30.693 C5.539,30.560 5.509,30.427 5.479,30.294 C5.473,30.294 5.467,30.294 5.461,30.294 C5.437,30.179 5.413,30.065 5.389,29.950 C5.246,29.554 5.168,29.096 5.026,28.699 C5.002,28.585 4.978,28.470 4.954,28.355 C4.866,28.111 4.806,27.819 4.719,27.576 C4.694,27.461 4.670,27.346 4.646,27.231 C4.550,26.964 4.488,26.647 4.393,26.380 C4.387,26.331 4.381,26.283 4.375,26.235 C4.369,26.235 4.363,26.235 4.357,26.235 C4.357,26.216 4.357,26.198 4.357,26.180 C4.351,26.180 4.344,26.180 4.338,26.180 C4.326,26.114 4.314,26.047 4.302,25.981 C4.296,25.981 4.290,25.981 4.284,25.981 C4.272,25.914 4.260,25.848 4.248,25.781 C4.242,25.781 4.236,25.781 4.230,25.781 C4.224,25.733 4.218,25.685 4.212,25.636 C4.206,25.636 4.200,25.636 4.194,25.636 C4.194,25.618 4.194,25.600 4.194,25.582 C4.188,25.582 4.182,25.582 4.175,25.582 C4.163,25.516 4.151,25.449 4.139,25.383 C4.133,25.383 4.127,25.383 4.121,25.383 C4.109,25.316 4.097,25.250 4.085,25.183 C4.079,25.183 4.073,25.183 4.067,25.183 C4.061,25.135 4.055,25.087 4.049,25.038 C3.906,24.642 3.828,24.184 3.687,23.788 C3.656,23.655 3.626,23.522 3.596,23.389 C3.590,23.389 3.584,23.389 3.578,23.389 C3.554,23.274 3.530,23.160 3.506,23.045 C3.325,22.544 3.232,21.969 3.053,21.468 C3.029,21.353 3.005,21.238 2.981,21.124 C2.838,20.727 2.760,20.270 2.618,19.873 C2.588,19.740 2.558,19.607 2.528,19.474 C2.522,19.474 2.516,19.474 2.510,19.474 C2.486,19.360 2.462,19.245 2.437,19.130 C2.295,18.734 2.217,18.276 2.075,17.880 C2.051,17.765 2.027,17.650 2.003,17.535 C1.907,17.268 1.845,16.951 1.749,16.683 C1.725,16.569 1.701,16.454 1.677,16.339 C1.604,16.137 1.550,15.889 1.478,15.687 C1.472,15.638 1.466,15.590 1.460,15.542 C1.454,15.542 1.448,15.542 1.442,15.542 C1.442,15.523 1.442,15.505 1.442,15.487 C1.436,15.487 1.430,15.487 1.424,15.487 C1.417,15.445 1.411,15.403 1.405,15.360 C1.399,15.360 1.393,15.360 1.387,15.360 C1.375,15.294 1.363,15.227 1.351,15.161 C1.345,15.161 1.339,15.161 1.333,15.161 C1.321,15.095 1.309,15.028 1.297,14.962 C1.291,14.962 1.285,14.962 1.279,14.962 C1.273,14.913 1.267,14.865 1.261,14.817 C1.255,14.817 1.248,14.817 1.242,14.817 C1.242,14.799 1.242,14.780 1.242,14.762 C1.236,14.762 1.230,14.762 1.224,14.762 C1.212,14.696 1.200,14.629 1.188,14.563 C1.182,14.563 1.176,14.563 1.170,14.563 C1.158,14.496 1.146,14.430 1.134,14.364 C1.128,14.364 1.122,14.364 1.116,14.364 C1.110,14.315 1.104,14.267 1.098,14.219 C0.932,13.758 0.846,13.229 0.681,12.769 C0.651,12.636 0.621,12.503 0.591,12.370 C0.585,12.370 0.579,12.370 0.573,12.370 C0.567,12.322 0.561,12.273 0.554,12.225 C0.482,12.022 0.428,11.775 0.355,11.573 C0.349,11.524 0.343,11.476 0.337,11.428 C0.242,11.160 0.178,10.843 0.084,10.576 C0.078,10.527 0.072,10.479 0.066,10.431 C0.038,10.347 -0.025,10.035 0.011,9.905 C0.017,9.905 0.023,9.905 0.029,9.905 C0.029,9.863 0.029,9.821 0.029,9.778 C0.035,9.778 0.041,9.778 0.048,9.778 C0.048,9.748 0.048,9.718 0.048,9.688 C0.054,9.688 0.060,9.688 0.066,9.688 C0.066,9.663 0.066,9.639 0.066,9.615 C0.072,9.615 0.078,9.615 0.084,9.615 C0.084,9.591 0.084,9.567 0.084,9.543 C0.090,9.543 0.096,9.543 0.102,9.543 C0.102,9.525 0.102,9.506 0.102,9.488 C0.108,9.488 0.114,9.488 0.120,9.488 C0.120,9.476 0.120,9.464 0.120,9.452 C0.126,9.452 0.132,9.452 0.138,9.452 C0.138,9.434 0.138,9.416 0.138,9.398 C0.144,9.398 0.150,9.398 0.156,9.398 C0.162,9.374 0.168,9.349 0.174,9.325 C0.180,9.325 0.186,9.325 0.192,9.325 C0.198,9.301 0.204,9.277 0.210,9.253 C0.217,9.253 0.223,9.253 0.229,9.253 C0.235,9.235 0.241,9.216 0.247,9.198 C0.259,9.192 0.271,9.186 0.283,9.180 C0.283,9.168 0.283,9.156 0.283,9.144 C0.295,9.138 0.307,9.132 0.319,9.126 C0.319,9.114 0.319,9.102 0.319,9.090 C0.355,9.059 0.392,9.029 0.428,8.999 C0.464,8.957 0.500,8.914 0.536,8.872 C0.548,8.872 0.561,8.872 0.573,8.872 C0.585,8.854 0.597,8.836 0.609,8.818 C0.621,8.818 0.633,8.818 0.645,8.818 C0.651,8.806 0.657,8.794 0.663,8.781 C0.687,8.775 0.711,8.769 0.736,8.763 C0.736,8.757 0.736,8.751 0.736,8.745 C0.748,8.745 0.760,8.745 0.772,8.745 C0.772,8.739 0.772,8.733 0.772,8.727 C0.808,8.715 0.844,8.703 0.880,8.691 C0.880,8.685 0.880,8.679 0.880,8.673 C0.898,8.673 0.917,8.673 0.935,8.673 C0.935,8.667 0.935,8.661 0.935,8.655 C0.953,8.655 0.971,8.655 0.989,8.655 C0.989,8.649 0.989,8.643 0.989,8.636 C1.007,8.636 1.025,8.636 1.043,8.636 C1.043,8.630 1.043,8.624 1.043,8.618 C1.067,8.618 1.092,8.618 1.116,8.618 C1.116,8.612 1.116,8.606 1.116,8.600 C1.140,8.600 1.164,8.600 1.188,8.600 C1.188,8.594 1.188,8.588 1.188,8.582 C1.224,8.582 1.261,8.582 1.297,8.582 C1.297,8.576 1.297,8.570 1.297,8.564 C1.828,8.564 2.359,8.564 2.890,8.564 C5.032,8.564 7.175,8.564 9.317,8.564 C10.591,5.948 11.864,3.332 13.138,0.716 C13.150,0.710 13.162,0.704 13.174,0.698 C13.174,0.686 13.174,0.674 13.174,0.662 C13.192,0.650 13.210,0.638 13.228,0.626 C13.228,0.614 13.228,0.602 13.228,0.590 C13.264,0.559 13.300,0.529 13.337,0.499 C13.337,0.487 13.337,0.475 13.337,0.463 C13.349,0.457 13.361,0.451 13.373,0.445 C13.373,0.439 13.373,0.433 13.373,0.426 C13.385,0.426 13.397,0.426 13.409,0.426 C13.439,0.390 13.469,0.354 13.500,0.318 C13.512,0.318 13.524,0.318 13.536,0.318 C13.542,0.306 13.548,0.294 13.554,0.281 C13.566,0.281 13.578,0.281 13.590,0.281 C13.596,0.269 13.602,0.257 13.608,0.245 C13.626,0.239 13.644,0.233 13.663,0.227 C13.663,0.221 13.663,0.215 13.663,0.209 C13.687,0.203 13.711,0.197 13.735,0.191 C13.735,0.185 13.735,0.179 13.735,0.173 C13.771,0.161 13.807,0.149 13.844,0.136 C13.844,0.130 13.844,0.124 13.844,0.118 C13.862,0.118 13.880,0.118 13.898,0.118 C13.898,0.112 13.898,0.106 13.898,0.100 C13.910,0.100 13.922,0.100 13.934,0.100 C13.934,0.094 13.934,0.088 13.934,0.082 C13.976,0.076 14.019,0.070 14.061,0.064 C14.061,0.058 14.061,0.052 14.061,0.046 C14.085,0.046 14.109,0.046 14.133,0.046 C14.133,0.040 14.133,0.034 14.133,0.028 C14.193,0.009 14.580,-0.013 14.658,0.010 C14.658,0.016 14.658,0.022 14.658,0.028 C14.695,0.028 14.731,0.028 14.767,0.028 C14.767,0.034 14.767,0.040 14.767,0.046 C14.791,0.046 14.815,0.046 14.839,0.046 C14.839,0.052 14.839,0.058 14.839,0.064 C14.864,0.064 14.888,0.064 14.912,0.064 C14.912,0.070 14.912,0.076 14.912,0.082 C14.930,0.082 14.948,0.082 14.966,0.082 C14.966,0.088 14.966,0.094 14.966,0.100 C14.978,0.100 14.990,0.100 15.002,0.100 C15.002,0.106 15.002,0.112 15.002,0.118 C15.020,0.118 15.039,0.118 15.057,0.118 C15.057,0.124 15.057,0.130 15.057,0.136 C15.093,0.149 15.129,0.161 15.165,0.173 C15.165,0.179 15.165,0.185 15.165,0.191 C15.189,0.197 15.214,0.203 15.238,0.209 C15.244,0.221 15.250,0.233 15.256,0.245 C15.280,0.251 15.304,0.257 15.328,0.263 C15.340,0.281 15.352,0.300 15.364,0.318 C15.376,0.318 15.389,0.318 15.401,0.318 C15.425,0.348 15.449,0.378 15.473,0.408 C15.485,0.408 15.497,0.408 15.509,0.408 C15.515,0.420 15.521,0.433 15.527,0.445 C15.552,0.463 15.576,0.481 15.600,0.499 C15.600,0.511 15.600,0.523 15.600,0.535 C15.630,0.559 15.660,0.584 15.690,0.608 C15.690,0.620 15.690,0.632 15.690,0.644 C15.702,0.650 15.714,0.656 15.727,0.662 C15.727,0.674 15.727,0.686 15.727,0.698 C15.739,0.704 15.751,0.710 15.763,0.716 C15.763,0.729 15.763,0.741 15.763,0.753 C15.775,0.759 15.787,0.765 15.799,0.771 C15.805,0.795 15.811,0.819 15.817,0.843 C15.823,0.843 15.829,0.843 15.835,0.843 C15.841,0.867 15.847,0.892 15.853,0.916 C15.859,0.916 15.865,0.916 15.871,0.916 C15.871,0.934 15.871,0.952 15.871,0.970 C15.877,0.970 15.883,0.970 15.889,0.970 C15.889,0.982 15.889,0.994 15.889,1.006 C15.896,1.006 15.902,1.006 15.908,1.006 C15.908,1.025 15.908,1.043 15.908,1.061 C15.967,1.213 16.041,1.504 15.980,1.713 C15.980,1.756 15.980,1.798 15.980,1.840 C15.974,1.840 15.968,1.840 15.962,1.840 C15.962,1.864 15.962,1.888 15.962,1.913 C15.956,1.913 15.950,1.913 15.944,1.913 C15.944,1.937 15.944,1.961 15.944,1.985 C15.938,1.985 15.932,1.985 15.926,1.985 C15.926,2.003 15.926,2.021 15.926,2.039 C15.920,2.039 15.914,2.039 15.908,2.039 C15.908,2.058 15.908,2.076 15.908,2.094 C15.902,2.094 15.896,2.094 15.889,2.094 C15.889,2.106 15.889,2.118 15.889,2.130 C15.883,2.130 15.877,2.130 15.871,2.130 C15.871,2.148 15.871,2.166 15.871,2.184 C15.865,2.184 15.859,2.184 15.853,2.184 C15.853,2.197 15.853,2.209 15.853,2.221 C15.847,2.221 15.841,2.221 15.835,2.221 C15.793,2.317 15.751,2.414 15.708,2.511 C15.702,2.511 15.696,2.511 15.690,2.511 C15.690,2.523 15.690,2.535 15.690,2.547 C15.684,2.547 15.678,2.547 15.672,2.547 C15.672,2.559 15.672,2.571 15.672,2.583 C15.666,2.583 15.660,2.583 15.654,2.583 C15.642,2.619 15.630,2.656 15.618,2.692 C15.612,2.692 15.606,2.692 15.600,2.692 C15.600,2.710 15.600,2.728 15.600,2.746 C15.594,2.746 15.588,2.746 15.582,2.746 C15.570,2.783 15.558,2.819 15.545,2.855 C15.539,2.855 15.533,2.855 15.527,2.855 C15.527,2.867 15.527,2.879 15.527,2.891 C15.521,2.891 15.515,2.891 15.509,2.891 C15.509,2.903 15.509,2.915 15.509,2.928 C15.503,2.928 15.497,2.928 15.491,2.928 C15.491,2.940 15.491,2.952 15.491,2.964 C15.485,2.964 15.479,2.964 15.473,2.964 C15.473,2.976 15.473,2.988 15.473,3.000 C15.467,3.000 15.461,3.000 15.455,3.000 C15.455,3.012 15.455,3.024 15.455,3.036 C15.449,3.036 15.443,3.036 15.437,3.036 C15.437,3.048 15.437,3.060 15.437,3.073 C15.431,3.073 15.425,3.073 15.419,3.073 C15.419,3.085 15.419,3.097 15.419,3.109 C15.413,3.109 15.407,3.109 15.401,3.109 C15.395,3.133 15.389,3.157 15.383,3.181 C15.376,3.181 15.370,3.181 15.364,3.181 C15.364,3.193 15.364,3.205 15.364,3.218 C15.358,3.218 15.352,3.218 15.346,3.218 C15.346,3.230 15.346,3.242 15.346,3.254 C15.340,3.254 15.334,3.254 15.328,3.254 C15.328,3.266 15.328,3.278 15.328,3.290 C15.322,3.290 15.316,3.290 15.310,3.290 C15.298,3.326 15.286,3.363 15.274,3.399 C15.268,3.399 15.262,3.399 15.256,3.399 C14.803,4.403 14.297,5.349 13.844,6.353 C13.838,6.353 13.832,6.353 13.825,6.353 C13.813,6.389 13.801,6.425 13.789,6.462 C13.783,6.462 13.777,6.462 13.771,6.462 C13.771,6.474 13.771,6.486 13.771,6.498 C13.765,6.498 13.759,6.498 13.753,6.498 C13.753,6.510 13.753,6.522 13.753,6.534 C13.747,6.534 13.741,6.534 13.735,6.534 C13.735,6.546 13.735,6.558 13.735,6.570 C13.729,6.570 13.723,6.570 13.717,6.570 C13.717,6.582 13.717,6.595 13.717,6.607 C13.711,6.607 13.705,6.607 13.699,6.607 C13.699,6.619 13.699,6.631 13.699,6.643 C13.693,6.643 13.687,6.643 13.681,6.643 C13.675,6.667 13.669,6.691 13.663,6.715 C13.657,6.715 13.650,6.715 13.644,6.715 C13.644,6.727 13.644,6.740 13.644,6.752 C13.638,6.752 13.632,6.752 13.626,6.752 C13.626,6.764 13.626,6.776 13.626,6.788 C13.620,6.788 13.614,6.788 13.608,6.788 C13.608,6.800 13.608,6.812 13.608,6.824 C13.602,6.824 13.596,6.824 13.590,6.824 C13.590,6.836 13.590,6.848 13.590,6.860 C13.584,6.860 13.578,6.860 13.572,6.860 C13.566,6.885 13.560,6.909 13.554,6.933 C13.548,6.933 13.542,6.933 13.536,6.933 C13.530,6.957 13.524,6.981 13.518,7.005 C13.512,7.005 13.506,7.005 13.500,7.005 C13.500,7.023 13.500,7.042 13.500,7.060 C13.494,7.060 13.488,7.060 13.481,7.060 C13.481,7.072 13.481,7.084 13.481,7.096 C13.475,7.096 13.469,7.096 13.463,7.096 C13.457,7.120 13.451,7.144 13.445,7.168 C13.439,7.168 13.433,7.168 13.427,7.168 C13.421,7.193 13.415,7.217 13.409,7.241 C13.403,7.241 13.397,7.241 13.391,7.241 C13.385,7.265 13.379,7.289 13.373,7.313 C13.367,7.313 13.361,7.313 13.355,7.313 C13.355,7.326 13.355,7.338 13.355,7.350 C13.349,7.350 13.343,7.350 13.337,7.350 C13.337,7.362 13.337,7.374 13.337,7.386 C13.331,7.386 13.325,7.386 13.319,7.386 C13.319,7.398 13.319,7.410 13.319,7.422 C13.313,7.422 13.306,7.422 13.300,7.422 C13.300,7.434 13.300,7.446 13.300,7.458 C13.294,7.458 13.288,7.458 13.282,7.458 C13.282,7.471 13.282,7.483 13.282,7.495 C13.276,7.495 13.270,7.495 13.264,7.495 C13.264,7.507 13.264,7.519 13.264,7.531 C13.258,7.531 13.252,7.531 13.246,7.531 C13.246,7.543 13.246,7.555 13.246,7.567 C13.240,7.567 13.234,7.567 13.228,7.567 C13.228,7.579 13.228,7.591 13.228,7.603 C13.222,7.603 13.216,7.603 13.210,7.603 C13.210,7.616 13.210,7.628 13.210,7.640 C13.204,7.640 13.198,7.640 13.192,7.640 C13.180,7.676 13.168,7.712 13.156,7.748 C13.150,7.748 13.144,7.748 13.138,7.748 C13.138,7.767 13.138,7.785 13.138,7.803 C13.131,7.803 13.125,7.803 13.119,7.803 C13.107,7.839 13.095,7.875 13.083,7.912 C13.077,7.912 13.071,7.912 13.065,7.912 C13.065,7.924 13.065,7.936 13.065,7.948 C13.059,7.948 13.053,7.948 13.047,7.948 C12.950,8.153 12.854,8.359 12.757,8.564 C16.589,8.564 20.422,8.564 24.254,8.564 C24.254,8.558 24.254,8.552 24.254,8.546 C24.248,8.546 24.242,8.546 24.236,8.546 C24.230,8.516 24.224,8.485 24.218,8.455 C24.212,8.455 24.206,8.455 24.200,8.455 C24.200,8.443 24.200,8.431 24.200,8.419 C24.194,8.419 24.188,8.419 24.182,8.419 C24.182,8.407 24.182,8.395 24.182,8.383 C24.176,8.383 24.170,8.383 24.163,8.383 C24.157,8.359 24.151,8.334 24.145,8.310 C24.139,8.310 24.133,8.310 24.127,8.310 C24.121,8.286 24.115,8.262 24.109,8.238 C24.103,8.238 24.097,8.238 24.091,8.238 C24.091,8.226 24.091,8.214 24.091,8.202 C24.085,8.202 24.079,8.202 24.073,8.202 C24.073,8.189 24.073,8.177 24.073,8.165 C24.067,8.165 24.061,8.165 24.055,8.165 C24.055,8.153 24.055,8.141 24.055,8.129 C24.049,8.129 24.043,8.129 24.037,8.129 C24.037,8.117 24.037,8.105 24.037,8.093 C24.031,8.093 24.025,8.093 24.019,8.093 C24.013,8.069 24.007,8.044 24.001,8.020 C23.995,8.020 23.988,8.020 23.982,8.020 C23.970,7.984 23.958,7.948 23.946,7.912 C23.940,7.912 23.934,7.912 23.928,7.912 C23.916,7.875 23.904,7.839 23.892,7.803 C23.886,7.803 23.880,7.803 23.874,7.803 C23.874,7.785 23.874,7.767 23.874,7.748 C23.868,7.748 23.862,7.748 23.856,7.748 C23.856,7.736 23.856,7.724 23.856,7.712 C23.850,7.712 23.844,7.712 23.838,7.712 C23.832,7.688 23.826,7.664 23.819,7.640 C23.813,7.640 23.807,7.640 23.801,7.640 C23.801,7.628 23.801,7.616 23.801,7.603 C23.795,7.603 23.789,7.603 23.783,7.603 C23.783,7.591 23.783,7.579 23.783,7.567 C23.777,7.567 23.771,7.567 23.765,7.567 C23.765,7.555 23.765,7.543 23.765,7.531 C23.759,7.531 23.753,7.531 23.747,7.531 C23.747,7.519 23.747,7.507 23.747,7.495 C23.741,7.495 23.735,7.495 23.729,7.495 C23.729,7.483 23.729,7.471 23.729,7.458 C23.723,7.458 23.717,7.458 23.711,7.458 C23.699,7.422 23.687,7.386 23.675,7.350 C23.669,7.350 23.663,7.350 23.657,7.350 C23.657,7.338 23.657,7.326 23.657,7.313 C23.651,7.313 23.644,7.313 23.638,7.313 C23.638,7.301 23.638,7.289 23.638,7.277 C23.632,7.277 23.626,7.277 23.620,7.277 C23.620,7.265 23.620,7.253 23.620,7.241 C23.614,7.241 23.608,7.241 23.602,7.241 C23.602,7.229 23.602,7.217 23.602,7.205 C23.596,7.205 23.590,7.205 23.584,7.205 C23.584,7.193 23.584,7.181 23.584,7.168 C23.578,7.168 23.572,7.168 23.566,7.168 C23.560,7.144 23.554,7.120 23.548,7.096 C23.542,7.096 23.536,7.096 23.530,7.096 C23.530,7.084 23.530,7.072 23.530,7.060 C23.524,7.060 23.518,7.060 23.512,7.060 C23.512,7.042 23.512,7.023 23.512,7.005 C23.506,7.005 23.500,7.005 23.494,7.005 C23.482,6.969 23.469,6.933 23.457,6.897 C23.451,6.897 23.445,6.897 23.439,6.897 C23.439,6.885 23.439,6.872 23.439,6.860 C23.433,6.860 23.427,6.860 23.421,6.860 C23.421,6.848 23.421,6.836 23.421,6.824 C23.415,6.824 23.409,6.824 23.403,6.824 C23.403,6.812 23.403,6.800 23.403,6.788 C23.397,6.788 23.391,6.788 23.385,6.788 C23.385,6.776 23.385,6.764 23.385,6.752 C23.379,6.752 23.373,6.752 23.367,6.752 C23.367,6.740 23.367,6.727 23.367,6.715 C23.361,6.715 23.355,6.715 23.349,6.715 C23.349,6.703 23.349,6.691 23.349,6.679 C23.343,6.679 23.337,6.679 23.331,6.679 C23.325,6.655 23.319,6.631 23.313,6.607 C23.307,6.607 23.300,6.607 23.294,6.607 C23.294,6.595 23.294,6.582 23.294,6.570 C23.288,6.570 23.282,6.570 23.276,6.570 C23.276,6.558 23.276,6.546 23.276,6.534 C23.270,6.534 23.264,6.534 23.258,6.534 C23.258,6.522 23.258,6.510 23.258,6.498 C23.252,6.498 23.246,6.498 23.240,6.498 C23.240,6.486 23.240,6.474 23.240,6.462 C23.234,6.462 23.228,6.462 23.222,6.462 C23.216,6.437 23.210,6.413 23.204,6.389 C23.198,6.389 23.192,6.389 23.186,6.389 C23.186,6.377 23.186,6.365 23.186,6.353 C23.180,6.353 23.174,6.353 23.168,6.353 C23.168,6.335 23.168,6.317 23.168,6.299 C23.162,6.299 23.156,6.299 23.150,6.299 C23.138,6.262 23.125,6.226 23.113,6.190 C23.107,6.190 23.101,6.190 23.095,6.190 C23.095,6.178 23.095,6.166 23.095,6.154 C23.089,6.154 23.083,6.154 23.077,6.154 C23.077,6.141 23.077,6.129 23.077,6.117 C23.071,6.117 23.065,6.117 23.059,6.117 C23.059,6.105 23.059,6.093 23.059,6.081 C23.053,6.081 23.047,6.081 23.041,6.081 C23.041,6.069 23.041,6.057 23.041,6.045 C23.035,6.045 23.029,6.045 23.023,6.045 C23.023,6.033 23.023,6.021 23.023,6.009 C23.017,6.009 23.011,6.009 23.005,6.009 C23.005,5.996 23.005,5.984 23.005,5.972 C22.999,5.972 22.993,5.972 22.987,5.972 C22.987,5.960 22.987,5.948 22.987,5.936 C22.981,5.936 22.975,5.936 22.969,5.936 C22.963,5.912 22.956,5.888 22.950,5.864 C22.944,5.864 22.938,5.864 22.932,5.864 C22.932,5.851 22.932,5.839 22.932,5.827 C22.926,5.827 22.920,5.827 22.914,5.827 C22.914,5.815 22.914,5.803 22.914,5.791 C22.908,5.791 22.902,5.791 22.896,5.791 C22.896,5.779 22.896,5.767 22.896,5.755 C22.890,5.755 22.884,5.755 22.878,5.755 C22.878,5.743 22.878,5.731 22.878,5.719 C22.872,5.719 22.866,5.719 22.860,5.719 C22.854,5.694 22.848,5.670 22.842,5.646 C22.836,5.646 22.830,5.646 22.824,5.646 C22.824,5.634 22.824,5.622 22.824,5.610 C22.818,5.610 22.812,5.610 22.806,5.610 C22.806,5.592 22.806,5.574 22.806,5.555 C22.800,5.555 22.794,5.555 22.788,5.555 C22.781,5.531 22.775,5.507 22.769,5.483 C22.763,5.483 22.757,5.483 22.751,5.483 C22.739,5.447 22.727,5.410 22.715,5.374 C22.709,5.374 22.703,5.374 22.697,5.374 C22.691,5.350 22.685,5.326 22.679,5.302 C22.673,5.302 22.667,5.302 22.661,5.302 C22.655,5.278 22.649,5.253 22.643,5.229 C22.637,5.229 22.631,5.229 22.625,5.229 C22.625,5.217 22.625,5.205 22.625,5.193 C22.619,5.193 22.612,5.193 22.606,5.193 C22.606,5.181 22.606,5.169 22.606,5.157 C22.600,5.157 22.594,5.157 22.588,5.157 C22.588,5.145 22.588,5.133 22.588,5.120 C22.582,5.120 22.576,5.120 22.570,5.120 C22.570,5.108 22.570,5.096 22.570,5.084 C22.564,5.084 22.558,5.084 22.552,5.084 C22.540,5.048 22.528,5.012 22.516,4.976 C22.510,4.976 22.504,4.976 22.498,4.976 C22.492,4.951 22.486,4.927 22.480,4.903 C22.474,4.903 22.468,4.903 22.462,4.903 C22.462,4.885 22.462,4.867 22.462,4.849 C22.456,4.849 22.450,4.849 22.444,4.849 C22.431,4.812 22.419,4.776 22.407,4.740 C22.401,4.740 22.395,4.740 22.389,4.740 C22.389,4.728 22.389,4.716 22.389,4.704 C22.383,4.704 22.377,4.704 22.371,4.704 C22.371,4.692 22.371,4.679 22.371,4.667 C22.365,4.667 22.359,4.667 22.353,4.667 C22.353,4.655 22.353,4.643 22.353,4.631 C22.347,4.631 22.341,4.631 22.335,4.631 C22.335,4.619 22.335,4.607 22.335,4.595 C22.329,4.595 22.323,4.595 22.317,4.595 C22.317,4.583 22.317,4.571 22.317,4.559 C22.311,4.559 22.305,4.559 22.299,4.559 C22.293,4.535 22.287,4.510 22.281,4.486 C22.275,4.486 22.268,4.486 22.262,4.486 C22.262,4.474 22.262,4.462 22.262,4.450 C22.256,4.450 22.250,4.450 22.244,4.450 C22.244,4.438 22.244,4.426 22.244,4.414 C22.238,4.414 22.232,4.414 22.226,4.414 C22.226,4.402 22.226,4.390 22.226,4.377 C22.220,4.377 22.214,4.377 22.208,4.377 C22.208,4.365 22.208,4.353 22.208,4.341 C22.202,4.341 22.196,4.341 22.190,4.341 C22.190,4.329 22.190,4.317 22.190,4.305 C22.184,4.305 22.178,4.305 22.172,4.305 C22.166,4.281 22.160,4.257 22.154,4.232 C22.148,4.232 22.142,4.232 22.136,4.232 C22.130,4.208 22.124,4.184 22.118,4.160 C22.112,4.160 22.106,4.160 22.100,4.160 C22.100,4.142 22.100,4.124 22.100,4.106 C22.093,4.106 22.087,4.106 22.081,4.106 C22.081,4.093 22.081,4.081 22.081,4.069 C22.075,4.069 22.069,4.069 22.063,4.069 C22.057,4.045 22.051,4.021 22.045,3.997 C22.039,3.997 22.033,3.997 22.027,3.997 C22.021,3.973 22.015,3.948 22.009,3.924 C22.003,3.924 21.997,3.924 21.991,3.924 C21.985,3.900 21.979,3.876 21.973,3.852 C21.967,3.852 21.961,3.852 21.955,3.852 C21.955,3.840 21.955,3.828 21.955,3.816 C21.949,3.816 21.943,3.816 21.937,3.816 C21.937,3.804 21.937,3.791 21.937,3.779 C21.931,3.779 21.925,3.779 21.918,3.779 C21.918,3.767 21.918,3.755 21.918,3.743 C21.912,3.743 21.906,3.743 21.900,3.743 C21.900,3.731 21.900,3.719 21.900,3.707 C21.894,3.707 21.888,3.707 21.882,3.707 C21.882,3.695 21.882,3.683 21.882,3.671 C21.876,3.671 21.870,3.671 21.864,3.671 C21.852,3.634 21.840,3.598 21.828,3.562 C21.822,3.562 21.816,3.562 21.810,3.562 C21.798,3.526 21.786,3.489 21.774,3.453 C21.768,3.453 21.762,3.453 21.756,3.453 C21.756,3.435 21.756,3.417 21.756,3.399 C21.749,3.399 21.743,3.399 21.737,3.399 C21.725,3.363 21.713,3.326 21.701,3.290 C21.695,3.290 21.689,3.290 21.683,3.290 C21.683,3.278 21.683,3.266 21.683,3.254 C21.677,3.254 21.671,3.254 21.665,3.254 C21.665,3.242 21.665,3.230 21.665,3.218 C21.659,3.218 21.653,3.218 21.647,3.218 C21.647,3.205 21.647,3.193 21.647,3.181 C21.641,3.181 21.635,3.181 21.629,3.181 C21.629,3.169 21.629,3.157 21.629,3.145 C21.623,3.145 21.617,3.145 21.611,3.145 C21.611,3.133 21.611,3.121 21.611,3.109 C21.605,3.109 21.599,3.109 21.593,3.109 C21.587,3.085 21.581,3.060 21.574,3.036 C21.568,3.036 21.562,3.036 21.556,3.036 C21.556,3.024 21.556,3.012 21.556,3.000 C21.550,3.000 21.544,3.000 21.538,3.000 C21.538,2.988 21.538,2.976 21.538,2.964 C21.532,2.964 21.526,2.964 21.520,2.964 C21.520,2.952 21.520,2.940 21.520,2.928 C21.514,2.928 21.508,2.928 21.502,2.928 C21.502,2.915 21.502,2.903 21.502,2.891 C21.496,2.891 21.490,2.891 21.484,2.891 C21.478,2.867 21.472,2.843 21.466,2.819 C21.460,2.819 21.454,2.819 21.448,2.819 C21.442,2.795 21.436,2.770 21.430,2.746 C21.424,2.746 21.418,2.746 21.412,2.746 C21.412,2.728 21.412,2.710 21.412,2.692 C21.405,2.692 21.399,2.692 21.393,2.692 C21.387,2.668 21.381,2.644 21.375,2.619 C21.369,2.619 21.363,2.619 21.357,2.619 C21.267,2.426 21.176,2.233 21.086,2.039 C21.086,2.015 21.086,1.991 21.086,1.967 C21.080,1.967 21.074,1.967 21.068,1.967 C21.068,1.949 21.068,1.931 21.068,1.913 C21.061,1.913 21.055,1.913 21.049,1.913 C21.049,1.882 21.049,1.852 21.049,1.822 C20.993,1.633 21.011,1.379 21.068,1.206 C21.068,1.182 21.068,1.157 21.068,1.133 C21.074,1.133 21.080,1.133 21.086,1.133 C21.086,1.115 21.086,1.097 21.086,1.079 C21.092,1.079 21.098,1.079 21.104,1.079 C21.104,1.061 21.104,1.043 21.104,1.025 C21.110,1.025 21.116,1.025 21.122,1.025 C21.122,1.006 21.122,0.988 21.122,0.970 C21.128,0.970 21.134,0.970 21.140,0.970 C21.140,0.958 21.140,0.946 21.140,0.934 C21.146,0.934 21.152,0.934 21.158,0.934 C21.158,0.916 21.158,0.898 21.158,0.880 C21.164,0.880 21.170,0.880 21.176,0.880 C21.176,0.867 21.176,0.855 21.176,0.843 C21.182,0.843 21.188,0.843 21.194,0.843 C21.194,0.831 21.194,0.819 21.194,0.807 C21.206,0.801 21.218,0.795 21.230,0.789 C21.237,0.765 21.243,0.741 21.249,0.716 C21.261,0.710 21.273,0.704 21.285,0.698 C21.285,0.686 21.285,0.674 21.285,0.662 C21.303,0.650 21.321,0.638 21.339,0.626 C21.339,0.614 21.339,0.602 21.339,0.590 C21.369,0.565 21.399,0.541 21.430,0.517 C21.430,0.505 21.430,0.493 21.430,0.481 C21.454,0.463 21.478,0.445 21.502,0.426 C21.502,0.420 21.502,0.414 21.502,0.408 C21.514,0.408 21.526,0.408 21.538,0.408 C21.562,0.378 21.587,0.348 21.611,0.318 C21.623,0.318 21.635,0.318 21.647,0.318 C21.659,0.300 21.671,0.281 21.683,0.263 C21.707,0.257 21.731,0.251 21.756,0.245 C21.762,0.233 21.768,0.221 21.774,0.209 C21.798,0.203 21.822,0.197 21.846,0.191 C21.846,0.185 21.846,0.179 21.846,0.173 C21.882,0.161 21.918,0.149 21.955,0.136 C21.955,0.130 21.955,0.124 21.955,0.118 C21.973,0.118 21.991,0.118 22.009,0.118 C22.009,0.112 22.009,0.106 22.009,0.100 C22.027,0.100 22.045,0.100 22.063,0.100 C22.063,0.094 22.063,0.088 22.063,0.082 C22.081,0.082 22.100,0.082 22.118,0.082 C22.118,0.076 22.118,0.070 22.118,0.064 C22.136,0.064 22.154,0.064 22.172,0.064 C22.172,0.058 22.172,0.052 22.172,0.046 C22.202,0.046 22.232,0.046 22.262,0.046 C22.262,0.040 22.262,0.034 22.262,0.028 C22.299,0.028 22.335,0.028 22.371,0.028 C22.508,-0.012 22.744,0.008 22.860,0.046 C22.944,0.064 23.029,0.082 23.113,0.100 C23.393,0.221 23.617,0.391 23.783,0.626 C23.801,0.638 23.820,0.650 23.838,0.662 C23.838,0.674 23.838,0.686 23.838,0.698 C23.850,0.704 23.862,0.710 23.874,0.716 C23.886,0.753 23.898,0.789 23.910,0.825 C23.922,0.831 23.934,0.837 23.946,0.843 C23.946,0.861 23.946,0.880 23.946,0.898 C23.952,0.898 23.958,0.898 23.964,0.898 C23.964,0.910 23.964,0.922 23.964,0.934 C23.970,0.934 23.976,0.934 23.982,0.934 C23.982,0.946 23.982,0.958 23.982,0.970 C23.988,0.970 23.995,0.970 24.001,0.970 C24.001,0.982 24.001,0.994 24.001,1.006 C24.007,1.006 24.013,1.006 24.019,1.006 C24.019,1.019 24.019,1.031 24.019,1.043 C24.025,1.043 24.031,1.043 24.037,1.043 C24.037,1.055 24.037,1.067 24.037,1.079 C24.043,1.079 24.049,1.079 24.055,1.079 C24.055,1.091 24.055,1.103 24.055,1.115 C24.061,1.115 24.067,1.115 24.073,1.115 C24.073,1.127 24.073,1.139 24.073,1.151 C24.079,1.151 24.085,1.151 24.091,1.151 C24.091,1.163 24.091,1.176 24.091,1.188 C24.097,1.188 24.103,1.188 24.109,1.188 C24.115,1.212 24.121,1.236 24.127,1.260 C24.133,1.260 24.139,1.260 24.145,1.260 C24.151,1.284 24.157,1.308 24.163,1.333 C24.170,1.333 24.176,1.333 24.182,1.333 C24.182,1.345 24.182,1.357 24.182,1.369 C24.188,1.369 24.194,1.369 24.200,1.369 C24.200,1.381 24.200,1.393 24.200,1.405 C24.206,1.405 24.212,1.405 24.218,1.405 C24.218,1.417 24.218,1.429 24.218,1.441 C24.224,1.441 24.230,1.441 24.236,1.441 C24.236,1.453 24.236,1.466 24.236,1.478 C24.242,1.478 24.248,1.478 24.254,1.478 C24.260,1.502 24.266,1.526 24.272,1.550 C24.278,1.550 24.284,1.550 24.290,1.550 C24.290,1.562 24.290,1.574 24.290,1.586 C24.296,1.586 24.302,1.586 24.308,1.586 C24.308,1.605 24.308,1.623 24.308,1.641 C24.314,1.641 24.320,1.641 24.326,1.641 C24.339,1.677 24.351,1.713 24.363,1.749 C24.369,1.749 24.375,1.749 24.381,1.749 C24.381,1.762 24.381,1.774 24.381,1.786 C24.387,1.786 24.393,1.786 24.399,1.786 C24.399,1.798 24.399,1.810 24.399,1.822 C24.405,1.822 24.411,1.822 24.417,1.822 C24.417,1.834 24.417,1.846 24.417,1.858 C24.423,1.858 24.429,1.858 24.435,1.858 C24.435,1.870 24.435,1.882 24.435,1.894 C24.441,1.894 24.447,1.894 24.453,1.894 C24.453,1.907 24.453,1.919 24.453,1.931 C24.459,1.931 24.465,1.931 24.471,1.931 C24.471,1.943 24.471,1.955 24.471,1.967 C24.477,1.967 24.483,1.967 24.489,1.967 C24.495,1.991 24.501,2.015 24.507,2.039 C24.514,2.039 24.520,2.039 24.526,2.039 C24.526,2.052 24.526,2.064 24.526,2.076 C24.532,2.076 24.538,2.076 24.544,2.076 C24.544,2.088 24.544,2.100 24.544,2.112 C24.550,2.112 24.556,2.112 24.562,2.112 C24.562,2.124 24.562,2.136 24.562,2.148 C24.568,2.148 24.574,2.148 24.580,2.148 C24.580,2.160 24.580,2.172 24.580,2.184 C24.586,2.184 24.592,2.184 24.598,2.184 C24.598,2.197 24.598,2.209 24.598,2.221 C24.604,2.221 24.610,2.221 24.616,2.221 C24.622,2.245 24.628,2.269 24.634,2.293 C24.640,2.293 24.646,2.293 24.652,2.293 C24.652,2.305 24.652,2.317 24.652,2.329 C24.658,2.329 24.664,2.329 24.670,2.329 C24.670,2.348 24.670,2.366 24.670,2.384 C24.676,2.384 24.683,2.384 24.689,2.384 C24.701,2.420 24.713,2.456 24.725,2.493 C24.731,2.493 24.737,2.493 24.743,2.493 C24.743,2.505 24.743,2.517 24.743,2.529 C24.749,2.529 24.755,2.529 24.761,2.529 C24.761,2.541 24.761,2.553 24.761,2.565 C24.767,2.565 24.773,2.565 24.779,2.565 C24.779,2.577 24.779,2.589 24.779,2.601 C24.785,2.601 24.791,2.601 24.797,2.601 C24.797,2.613 24.797,2.625 24.797,2.638 C24.803,2.638 24.809,2.638 24.815,2.638 C24.815,2.650 24.815,2.662 24.815,2.674 C24.821,2.674 24.827,2.674 24.833,2.674 C24.839,2.698 24.845,2.722 24.851,2.746 C24.858,2.746 24.864,2.746 24.870,2.746 C24.870,2.758 24.870,2.770 24.870,2.783 C24.876,2.783 24.882,2.783 24.888,2.783 C24.888,2.795 24.888,2.807 24.888,2.819 C24.894,2.819 24.900,2.819 24.906,2.819 C24.906,2.831 24.906,2.843 24.906,2.855 C24.912,2.855 24.918,2.855 24.924,2.855 C24.924,2.867 24.924,2.879 24.924,2.891 C24.930,2.891 24.936,2.891 24.942,2.891 C24.948,2.915 24.954,2.940 24.960,2.964 C24.966,2.964 24.972,2.964 24.978,2.964 C24.984,2.988 24.990,3.012 24.996,3.036 C25.002,3.036 25.008,3.036 25.014,3.036 C25.014,3.054 25.014,3.073 25.014,3.091 C25.020,3.091 25.027,3.091 25.033,3.091 C25.045,3.127 25.057,3.163 25.069,3.199 C25.075,3.199 25.081,3.199 25.087,3.199 C25.087,3.211 25.087,3.224 25.087,3.236 C25.093,3.236 25.099,3.236 25.105,3.236 C25.105,3.248 25.105,3.260 25.105,3.272 C25.111,3.272 25.117,3.272 25.123,3.272 C25.123,3.284 25.123,3.296 25.123,3.308 C25.129,3.308 25.135,3.308 25.141,3.308 C25.141,3.320 25.141,3.332 25.141,3.344 C25.147,3.344 25.153,3.344 25.159,3.344 C25.159,3.356 25.159,3.369 25.159,3.381 C25.165,3.381 25.171,3.381 25.177,3.381 C25.183,3.405 25.189,3.429 25.195,3.453 C25.202,3.453 25.208,3.453 25.214,3.453 C25.214,3.465 25.214,3.477 25.214,3.489 C25.220,3.489 25.226,3.489 25.232,3.489 C25.232,3.501 25.232,3.514 25.232,3.526 C25.238,3.526 25.244,3.526 25.250,3.526 C25.250,3.538 25.250,3.550 25.250,3.562 C25.256,3.562 25.262,3.562 25.268,3.562 C25.268,3.574 25.268,3.586 25.268,3.598 C25.274,3.598 25.280,3.598 25.286,3.598 C25.286,3.610 25.286,3.622 25.286,3.634 C25.292,3.634 25.298,3.634 25.304,3.634 C25.310,3.659 25.316,3.683 25.322,3.707 C25.328,3.707 25.334,3.707 25.340,3.707 C25.346,3.731 25.352,3.755 25.358,3.779 C25.364,3.779 25.371,3.779 25.377,3.779 C25.377,3.797 25.377,3.816 25.377,3.834 C25.383,3.834 25.389,3.834 25.395,3.834 C25.407,3.870 25.419,3.906 25.431,3.942 C25.437,3.942 25.443,3.942 25.449,3.942 C25.461,3.979 25.473,4.015 25.485,4.051 C25.491,4.051 25.497,4.051 25.503,4.051 C25.509,4.075 25.515,4.100 25.521,4.124 C25.527,4.124 25.533,4.124 25.539,4.124 C25.546,4.148 25.552,4.172 25.558,4.196 C25.564,4.196 25.570,4.196 25.576,4.196 C25.576,4.208 25.576,4.220 25.576,4.232 C25.582,4.232 25.588,4.232 25.594,4.232 C25.594,4.245 25.594,4.257 25.594,4.269 C25.600,4.269 25.606,4.269 25.612,4.269 C25.612,4.281 25.612,4.293 25.612,4.305 C25.618,4.305 25.624,4.305 25.630,4.305 C25.630,4.317 25.630,4.329 25.630,4.341 C25.636,4.341 25.642,4.341 25.648,4.341 C25.660,4.377 25.672,4.414 25.684,4.450 C25.690,4.450 25.696,4.450 25.702,4.450 C25.708,4.474 25.714,4.498 25.721,4.522 C25.727,4.522 25.733,4.522 25.739,4.522 C25.739,4.541 25.739,4.559 25.739,4.577 C25.745,4.577 25.751,4.577 25.757,4.577 C25.769,4.613 25.781,4.649 25.793,4.686 C25.799,4.686 25.805,4.686 25.811,4.686 C25.811,4.698 25.811,4.710 25.811,4.722 C25.817,4.722 25.823,4.722 25.829,4.722 C25.829,4.734 25.829,4.746 25.829,4.758 C25.835,4.758 25.841,4.758 25.847,4.758 C25.847,4.770 25.847,4.782 25.847,4.794 C25.853,4.794 25.859,4.794 25.865,4.794 C25.865,4.806 25.865,4.818 25.865,4.831 C25.871,4.831 25.877,4.831 25.883,4.831 C25.883,4.843 25.883,4.855 25.883,4.867 C25.890,4.867 25.896,4.867 25.902,4.867 C25.908,4.891 25.914,4.915 25.920,4.939 C25.926,4.939 25.932,4.939 25.938,4.939 C25.938,4.951 25.938,4.963 25.938,4.976 C25.944,4.976 25.950,4.976 25.956,4.976 C25.956,4.988 25.956,5.000 25.956,5.012 C25.962,5.012 25.968,5.012 25.974,5.012 C25.974,5.024 25.974,5.036 25.974,5.048 C25.980,5.048 25.986,5.048 25.992,5.048 C25.992,5.060 25.992,5.072 25.992,5.084 C25.998,5.084 26.004,5.084 26.010,5.084 C26.010,5.096 26.010,5.108 26.010,5.120 C26.016,5.120 26.022,5.120 26.028,5.120 C26.034,5.145 26.040,5.169 26.046,5.193 C26.052,5.193 26.058,5.193 26.065,5.193 C26.071,5.217 26.077,5.241 26.083,5.265 C26.089,5.265 26.095,5.265 26.101,5.265 C26.101,5.284 26.101,5.302 26.101,5.320 C26.107,5.320 26.113,5.320 26.119,5.320 C26.131,5.356 26.143,5.392 26.155,5.429 C26.161,5.429 26.167,5.429 26.173,5.429 C26.173,5.441 26.173,5.453 26.173,5.465 C26.179,5.465 26.185,5.465 26.191,5.465 C26.191,5.477 26.191,5.489 26.191,5.501 C26.197,5.501 26.203,5.501 26.209,5.501 C26.209,5.513 26.209,5.525 26.209,5.537 C26.215,5.537 26.221,5.537 26.227,5.537 C26.227,5.549 26.227,5.562 26.227,5.574 C26.234,5.574 26.240,5.574 26.246,5.574 C26.246,5.586 26.246,5.598 26.246,5.610 C26.252,5.610 26.258,5.610 26.264,5.610 C26.270,5.634 26.276,5.658 26.282,5.682 C26.288,5.682 26.294,5.682 26.300,5.682 C26.300,5.694 26.300,5.706 26.300,5.719 C26.306,5.719 26.312,5.719 26.318,5.719 C26.318,5.731 26.318,5.743 26.318,5.755 C26.324,5.755 26.330,5.755 26.336,5.755 C26.336,5.767 26.336,5.779 26.336,5.791 C26.342,5.791 26.348,5.791 26.354,5.791 C26.354,5.803 26.354,5.815 26.354,5.827 C26.360,5.827 26.366,5.827 26.372,5.827 C26.372,5.839 26.372,5.851 26.372,5.864 C26.378,5.864 26.384,5.864 26.390,5.864 C26.396,5.888 26.402,5.912 26.409,5.936 C26.415,5.936 26.421,5.936 26.427,5.936 C26.433,5.960 26.439,5.984 26.445,6.009 C26.451,6.009 26.457,6.009 26.463,6.009 C26.463,6.027 26.463,6.045 26.463,6.063 C26.469,6.063 26.475,6.063 26.481,6.063 C26.487,6.087 26.493,6.111 26.499,6.135 C26.505,6.135 26.511,6.135 26.517,6.135 C26.529,6.172 26.541,6.208 26.553,6.244 C26.559,6.244 26.565,6.244 26.571,6.244 C26.578,6.268 26.584,6.292 26.590,6.317 C26.596,6.317 26.602,6.317 26.608,6.317 C26.614,6.341 26.620,6.365 26.626,6.389 C26.632,6.389 26.638,6.389 26.644,6.389 C26.644,6.401 26.644,6.413 26.644,6.425 C26.650,6.425 26.656,6.425 26.662,6.425 C26.662,6.437 26.662,6.450 26.662,6.462 C26.668,6.462 26.674,6.462 26.680,6.462 C26.680,6.474 26.680,6.486 26.680,6.498 C26.686,6.498 26.692,6.498 26.698,6.498 C26.698,6.510 26.698,6.522 26.698,6.534 C26.704,6.534 26.710,6.534 26.716,6.534 C26.728,6.570 26.740,6.607 26.753,6.643 C26.759,6.643 26.765,6.643 26.771,6.643 C26.783,6.679 26.795,6.715 26.807,6.752 C26.813,6.752 26.819,6.752 26.825,6.752 C26.825,6.770 26.825,6.788 26.825,6.806 C26.831,6.806 26.837,6.806 26.843,6.806 C26.855,6.842 26.867,6.878 26.879,6.915 C26.885,6.915 26.891,6.915 26.897,6.915 C26.897,6.927 26.897,6.939 26.897,6.951 C26.903,6.951 26.909,6.951 26.915,6.951 C26.915,6.963 26.915,6.975 26.915,6.987 C26.922,6.987 26.928,6.987 26.934,6.987 C26.934,6.999 26.934,7.011 26.934,7.023 C26.940,7.023 26.946,7.023 26.952,7.023 C26.952,7.036 26.952,7.048 26.952,7.060 C26.958,7.060 26.964,7.060 26.970,7.060 C26.970,7.072 26.970,7.084 26.970,7.096 C26.976,7.096 26.982,7.096 26.988,7.096 C26.994,7.120 27.000,7.144 27.006,7.168 C27.012,7.168 27.018,7.168 27.024,7.168 C27.024,7.181 27.024,7.193 27.024,7.205 C27.030,7.205 27.036,7.205 27.042,7.205 C27.042,7.217 27.042,7.229 27.042,7.241 C27.048,7.241 27.054,7.241 27.060,7.241 C27.060,7.253 27.060,7.265 27.060,7.277 C27.066,7.277 27.072,7.277 27.078,7.277 C27.078,7.289 27.078,7.301 27.078,7.313 C27.084,7.313 27.090,7.313 27.097,7.313 C27.103,7.338 27.109,7.362 27.115,7.386 C27.121,7.386 27.127,7.386 27.133,7.386 C27.139,7.410 27.145,7.434 27.151,7.458 C27.157,7.458 27.163,7.458 27.169,7.458 C27.169,7.477 27.169,7.495 27.169,7.513 C27.175,7.513 27.181,7.513 27.187,7.513 C27.199,7.549 27.211,7.585 27.223,7.622 C27.229,7.622 27.235,7.622 27.241,7.622 C27.241,7.634 27.241,7.646 27.241,7.658 C27.247,7.658 27.253,7.658 27.259,7.658 C27.259,7.670 27.259,7.682 27.259,7.694 C27.265,7.694 27.272,7.694 27.278,7.694 C27.278,7.706 27.278,7.718 27.278,7.730 C27.284,7.730 27.290,7.730 27.296,7.730 C27.296,7.742 27.296,7.754 27.296,7.767 C27.302,7.767 27.308,7.767 27.314,7.767 C27.314,7.779 27.314,7.791 27.314,7.803 C27.320,7.803 27.326,7.803 27.332,7.803 C27.338,7.827 27.344,7.851 27.350,7.875 C27.356,7.875 27.362,7.875 27.368,7.875 C27.368,7.887 27.368,7.899 27.368,7.912 C27.374,7.912 27.380,7.912 27.386,7.912 C27.386,7.924 27.386,7.936 27.386,7.948 C27.392,7.948 27.398,7.948 27.404,7.948 C27.404,7.960 27.404,7.972 27.404,7.984 C27.410,7.984 27.416,7.984 27.422,7.984 C27.422,7.996 27.422,8.008 27.422,8.020 C27.428,8.020 27.434,8.020 27.441,8.020 C27.441,8.032 27.441,8.044 27.441,8.057 C27.447,8.057 27.453,8.057 27.459,8.057 C27.465,8.081 27.471,8.105 27.477,8.129 C27.483,8.129 27.489,8.129 27.495,8.129 C27.501,8.153 27.507,8.177 27.513,8.202 C27.519,8.202 27.525,8.202 27.531,8.202 C27.531,8.220 27.531,8.238 27.531,8.256 C27.537,8.256 27.543,8.256 27.549,8.256 C27.591,8.353 27.634,8.449 27.676,8.546 ZM9.643,33.919 C15.551,33.919 21.460,33.919 27.368,33.919 C27.392,33.810 27.416,33.701 27.441,33.593 C27.447,33.593 27.453,33.593 27.459,33.593 C27.465,33.544 27.471,33.496 27.477,33.448 C27.483,33.448 27.489,33.448 27.495,33.448 C27.495,33.430 27.495,33.412 27.495,33.393 C27.501,33.393 27.507,33.393 27.513,33.393 C27.525,33.327 27.537,33.260 27.549,33.194 C27.555,33.194 27.561,33.194 27.567,33.194 C27.579,33.122 27.591,33.049 27.603,32.977 C27.723,32.645 27.792,32.257 27.911,31.925 C27.917,31.877 27.923,31.829 27.929,31.780 C27.935,31.780 27.941,31.780 27.947,31.780 C27.947,31.762 27.947,31.744 27.947,31.726 C27.953,31.726 27.960,31.726 27.966,31.726 C27.978,31.660 27.990,31.593 28.002,31.527 C28.008,31.527 28.014,31.527 28.020,31.527 C28.032,31.460 28.044,31.394 28.056,31.327 C28.062,31.327 28.068,31.327 28.074,31.327 C28.080,31.279 28.086,31.231 28.092,31.182 C28.098,31.182 28.104,31.182 28.110,31.182 C28.110,31.164 28.110,31.146 28.110,31.128 C28.116,31.128 28.122,31.128 28.129,31.128 C28.141,31.061 28.153,30.995 28.165,30.929 C28.171,30.929 28.177,30.929 28.183,30.929 C28.195,30.862 28.207,30.796 28.219,30.729 C28.225,30.729 28.231,30.729 28.237,30.729 C28.243,30.681 28.249,30.633 28.255,30.584 C28.261,30.584 28.267,30.584 28.273,30.584 C28.273,30.566 28.273,30.548 28.273,30.530 C28.279,30.530 28.285,30.530 28.291,30.530 C28.304,30.463 28.316,30.397 28.328,30.330 C28.334,30.330 28.340,30.330 28.346,30.330 C28.358,30.264 28.370,30.198 28.382,30.131 C28.388,30.131 28.394,30.131 28.400,30.131 C28.406,30.083 28.412,30.034 28.418,29.986 C28.561,29.590 28.638,29.132 28.780,28.736 C28.810,28.603 28.841,28.470 28.871,28.337 C28.877,28.337 28.883,28.337 28.889,28.337 C28.913,28.222 28.937,28.107 28.961,27.993 C29.066,27.703 29.129,27.360 29.233,27.068 C29.257,26.953 29.281,26.839 29.305,26.724 C29.425,26.392 29.494,26.005 29.613,25.673 C29.637,25.558 29.661,25.443 29.686,25.328 C29.782,25.061 29.843,24.744 29.939,24.477 C29.963,24.362 29.987,24.247 30.011,24.132 C30.084,23.930 30.138,23.682 30.211,23.480 C30.217,23.431 30.223,23.383 30.229,23.335 C30.302,23.133 30.355,22.885 30.428,22.682 C30.434,22.634 30.440,22.586 30.446,22.537 C30.452,22.537 30.458,22.537 30.464,22.537 C30.464,22.519 30.464,22.501 30.464,22.483 C30.470,22.483 30.476,22.483 30.482,22.483 C30.494,22.417 30.506,22.350 30.518,22.284 C30.524,22.284 30.530,22.284 30.536,22.284 C30.549,22.217 30.561,22.151 30.573,22.084 C30.579,22.084 30.585,22.084 30.591,22.084 C30.597,22.036 30.603,21.988 30.609,21.939 C30.783,21.456 30.871,20.900 31.043,20.417 C31.068,20.302 31.092,20.187 31.116,20.073 C31.282,19.612 31.367,19.083 31.532,18.623 C31.556,18.508 31.581,18.393 31.605,18.278 C31.611,18.278 31.617,18.278 31.623,18.278 C31.623,18.260 31.623,18.242 31.623,18.224 C31.629,18.224 31.635,18.224 31.641,18.224 C31.653,18.157 31.665,18.091 31.677,18.025 C31.683,18.025 31.689,18.025 31.695,18.025 C31.707,17.958 31.719,17.892 31.731,17.825 C31.737,17.825 31.743,17.825 31.750,17.825 C31.756,17.777 31.762,17.729 31.768,17.680 C31.933,17.220 32.019,16.691 32.184,16.230 C32.214,16.097 32.244,15.964 32.275,15.832 C32.281,15.832 32.287,15.832 32.293,15.832 C32.299,15.783 32.305,15.735 32.311,15.687 C32.317,15.687 32.323,15.687 32.329,15.687 C32.329,15.668 32.329,15.650 32.329,15.632 C32.335,15.632 32.341,15.632 32.347,15.632 C32.347,15.608 32.347,15.584 32.347,15.560 C32.353,15.560 32.359,15.560 32.365,15.560 C32.365,15.536 32.365,15.511 32.365,15.487 C32.371,15.487 32.377,15.487 32.383,15.487 C32.389,15.445 32.395,15.403 32.401,15.360 C32.407,15.360 32.413,15.360 32.419,15.360 C32.431,15.294 32.444,15.227 32.456,15.161 C32.462,15.161 32.468,15.161 32.474,15.161 C32.480,15.113 32.486,15.064 32.492,15.016 C32.565,14.814 32.619,14.566 32.691,14.364 C32.697,14.315 32.703,14.267 32.709,14.219 C32.852,13.822 32.930,13.365 33.071,12.968 C33.095,12.853 33.119,12.738 33.144,12.624 C33.150,12.624 33.156,12.624 33.162,12.624 C33.162,12.606 33.162,12.587 33.162,12.569 C33.168,12.569 33.174,12.569 33.180,12.569 C33.192,12.503 33.204,12.436 33.216,12.370 C33.222,12.370 33.228,12.370 33.234,12.370 C33.246,12.304 33.258,12.237 33.270,12.171 C33.276,12.171 33.282,12.171 33.288,12.171 C33.294,12.122 33.301,12.074 33.307,12.026 C33.313,12.026 33.319,12.026 33.325,12.026 C33.355,11.899 33.385,11.772 33.415,11.645 C32.009,11.645 30.603,11.645 29.197,11.645 C29.213,11.731 29.270,11.796 29.305,11.862 C29.348,11.959 29.390,12.056 29.432,12.152 C29.438,12.152 29.444,12.152 29.450,12.152 C29.450,12.165 29.450,12.177 29.450,12.189 C29.456,12.189 29.462,12.189 29.468,12.189 C29.468,12.201 29.468,12.213 29.468,12.225 C29.474,12.225 29.480,12.225 29.486,12.225 C29.486,12.237 29.486,12.249 29.486,12.261 C29.492,12.261 29.498,12.261 29.504,12.261 C29.504,12.273 29.504,12.285 29.504,12.297 C29.511,12.297 29.517,12.297 29.523,12.297 C29.535,12.334 29.547,12.370 29.559,12.406 C29.565,12.406 29.571,12.406 29.577,12.406 C29.577,12.424 29.577,12.442 29.577,12.461 C29.583,12.461 29.589,12.461 29.595,12.461 C29.601,12.485 29.607,12.509 29.613,12.533 C29.619,12.533 29.625,12.533 29.631,12.533 C29.643,12.569 29.655,12.606 29.667,12.642 C29.673,12.642 29.680,12.642 29.686,12.642 C29.692,12.666 29.698,12.690 29.704,12.714 C29.710,12.714 29.716,12.714 29.722,12.714 C29.728,12.738 29.734,12.763 29.740,12.787 C29.746,12.787 29.752,12.787 29.758,12.787 C29.758,12.799 29.758,12.811 29.758,12.823 C29.764,12.823 29.770,12.823 29.776,12.823 C29.776,12.835 29.776,12.847 29.776,12.859 C29.782,12.859 29.788,12.859 29.794,12.859 C29.794,12.871 29.794,12.883 29.794,12.896 C29.800,12.896 29.806,12.896 29.812,12.896 C29.812,12.908 29.812,12.920 29.812,12.932 C29.818,12.932 29.824,12.932 29.830,12.932 C29.830,12.944 29.830,12.956 29.830,12.968 C29.836,12.968 29.842,12.968 29.848,12.968 C29.848,12.980 29.848,12.992 29.848,13.004 C29.855,13.004 29.861,13.004 29.867,13.004 C29.867,13.016 29.867,13.028 29.867,13.041 C29.873,13.041 29.879,13.041 29.885,13.041 C29.885,13.053 29.885,13.065 29.885,13.077 C29.891,13.077 29.897,13.077 29.903,13.077 C29.915,13.113 29.927,13.149 29.939,13.186 C29.945,13.186 29.951,13.186 29.957,13.186 C29.957,13.204 29.957,13.222 29.957,13.240 C29.963,13.240 29.969,13.240 29.975,13.240 C29.975,13.252 29.975,13.264 29.975,13.276 C29.981,13.276 29.987,13.276 29.993,13.276 C29.999,13.300 30.005,13.324 30.011,13.349 C30.017,13.349 30.024,13.349 30.030,13.349 C30.030,13.361 30.030,13.373 30.030,13.385 C30.036,13.385 30.042,13.385 30.048,13.385 C30.048,13.397 30.048,13.409 30.048,13.421 C30.054,13.421 30.060,13.421 30.066,13.421 C30.066,13.433 30.066,13.445 30.066,13.457 C30.072,13.457 30.078,13.457 30.084,13.457 C30.084,13.469 30.084,13.482 30.084,13.494 C30.090,13.494 30.096,13.494 30.102,13.494 C30.102,13.506 30.102,13.518 30.102,13.530 C30.108,13.530 30.114,13.530 30.120,13.530 C30.120,13.542 30.120,13.554 30.120,13.566 C30.126,13.566 30.132,13.566 30.138,13.566 C30.144,13.590 30.150,13.614 30.156,13.639 C30.162,13.639 30.168,13.639 30.174,13.639 C30.174,13.651 30.174,13.663 30.174,13.675 C30.180,13.675 30.186,13.675 30.192,13.675 C30.192,13.687 30.192,13.699 30.192,13.711 C30.199,13.711 30.205,13.711 30.211,13.711 C30.211,13.723 30.211,13.735 30.211,13.747 C30.217,13.747 30.223,13.747 30.229,13.747 C30.229,13.759 30.229,13.772 30.229,13.784 C30.235,13.784 30.241,13.784 30.247,13.784 C30.247,13.796 30.247,13.808 30.247,13.820 C30.253,13.820 30.259,13.820 30.265,13.820 C30.271,13.844 30.277,13.868 30.283,13.892 C30.289,13.892 30.295,13.892 30.301,13.892 C30.307,13.917 30.313,13.941 30.319,13.965 C30.325,13.965 30.331,13.965 30.337,13.965 C30.337,13.983 30.337,14.001 30.337,14.019 C30.343,14.019 30.349,14.019 30.355,14.019 C30.368,14.055 30.380,14.092 30.392,14.128 C30.398,14.128 30.404,14.128 30.410,14.128 C30.410,14.140 30.410,14.152 30.410,14.164 C30.416,14.164 30.422,14.164 30.428,14.164 C30.428,14.176 30.428,14.188 30.428,14.200 C30.434,14.200 30.440,14.200 30.446,14.200 C30.446,14.213 30.446,14.225 30.446,14.237 C30.452,14.237 30.458,14.237 30.464,14.237 C30.464,14.249 30.464,14.261 30.464,14.273 C30.470,14.273 30.476,14.273 30.482,14.273 C30.482,14.285 30.482,14.297 30.482,14.309 C30.488,14.309 30.494,14.309 30.500,14.309 C30.500,14.321 30.500,14.333 30.500,14.345 C30.506,14.345 30.512,14.345 30.518,14.345 C30.518,14.364 30.518,14.382 30.518,14.400 C30.524,14.400 30.530,14.400 30.536,14.400 C30.536,14.418 30.536,14.436 30.536,14.454 C30.543,14.454 30.549,14.454 30.555,14.454 C30.555,14.472 30.555,14.490 30.555,14.509 C30.561,14.509 30.567,14.509 30.573,14.509 C30.573,14.533 30.573,14.557 30.573,14.581 C30.579,14.581 30.585,14.581 30.591,14.581 C30.591,14.605 30.591,14.629 30.591,14.654 C30.597,14.654 30.603,14.654 30.609,14.654 C30.609,14.696 30.609,14.738 30.609,14.780 C30.615,14.780 30.621,14.780 30.627,14.780 C30.655,14.878 30.614,15.238 30.591,15.306 C30.585,15.306 30.579,15.306 30.573,15.306 C30.573,15.330 30.573,15.354 30.573,15.378 C30.567,15.378 30.561,15.378 30.555,15.378 C30.555,15.397 30.555,15.415 30.555,15.433 C30.549,15.433 30.543,15.433 30.536,15.433 C30.530,15.469 30.524,15.505 30.518,15.542 C30.512,15.542 30.506,15.542 30.500,15.542 C30.500,15.554 30.500,15.566 30.500,15.578 C30.494,15.578 30.488,15.578 30.482,15.578 C30.482,15.590 30.482,15.602 30.482,15.614 C30.476,15.614 30.470,15.614 30.464,15.614 C30.464,15.626 30.464,15.638 30.464,15.650 C30.458,15.650 30.452,15.650 30.446,15.650 C30.446,15.662 30.446,15.675 30.446,15.687 C30.440,15.687 30.434,15.687 30.428,15.687 C30.428,15.699 30.428,15.711 30.428,15.723 C30.416,15.729 30.404,15.735 30.392,15.741 C30.386,15.765 30.380,15.789 30.374,15.813 C30.355,15.826 30.337,15.838 30.319,15.850 C30.319,15.862 30.319,15.874 30.319,15.886 C30.301,15.898 30.283,15.910 30.265,15.922 C30.265,15.934 30.265,15.946 30.265,15.958 C30.229,15.989 30.192,16.019 30.156,16.049 C30.138,16.073 30.120,16.097 30.102,16.122 C30.090,16.122 30.078,16.122 30.066,16.122 C30.048,16.146 30.030,16.170 30.011,16.194 C29.999,16.194 29.987,16.194 29.975,16.194 C29.969,16.206 29.963,16.218 29.957,16.230 C29.939,16.236 29.921,16.242 29.903,16.248 C29.903,16.254 29.903,16.261 29.903,16.267 C29.879,16.273 29.855,16.279 29.830,16.285 C29.824,16.297 29.818,16.309 29.812,16.321 C29.800,16.321 29.788,16.321 29.776,16.321 C29.776,16.327 29.776,16.333 29.776,16.339 C29.758,16.339 29.740,16.339 29.722,16.339 C29.722,16.345 29.722,16.351 29.722,16.357 C29.698,16.363 29.673,16.369 29.649,16.375 C29.649,16.381 29.649,16.387 29.649,16.393 C29.589,16.405 29.529,16.418 29.468,16.430 C29.468,16.436 29.468,16.442 29.468,16.448 C29.444,16.448 29.420,16.448 29.396,16.448 C29.396,16.454 29.396,16.460 29.396,16.466 C29.337,16.484 28.948,16.506 28.871,16.484 C28.871,16.478 28.871,16.472 28.871,16.466 C28.810,16.460 28.750,16.454 28.690,16.448 C28.690,16.442 28.690,16.436 28.690,16.430 C28.672,16.430 28.654,16.430 28.635,16.430 C28.635,16.424 28.635,16.418 28.635,16.412 C28.617,16.412 28.599,16.412 28.581,16.412 C28.581,16.405 28.581,16.399 28.581,16.393 C28.563,16.393 28.545,16.393 28.527,16.393 C28.527,16.387 28.527,16.381 28.527,16.375 C28.509,16.375 28.491,16.375 28.473,16.375 C28.473,16.369 28.473,16.363 28.473,16.357 C28.436,16.345 28.400,16.333 28.364,16.321 C28.364,16.315 28.364,16.309 28.364,16.303 C28.340,16.297 28.316,16.291 28.291,16.285 C28.285,16.273 28.279,16.261 28.273,16.248 C28.261,16.248 28.249,16.248 28.237,16.248 C28.231,16.236 28.225,16.224 28.219,16.212 C28.207,16.212 28.195,16.212 28.183,16.212 C28.171,16.194 28.159,16.176 28.147,16.158 C28.135,16.158 28.122,16.158 28.110,16.158 C28.080,16.122 28.050,16.085 28.020,16.049 C27.972,16.007 27.923,15.964 27.875,15.922 C27.875,15.910 27.875,15.898 27.875,15.886 C27.857,15.874 27.839,15.862 27.821,15.850 C27.821,15.838 27.821,15.826 27.821,15.813 C27.809,15.807 27.797,15.801 27.785,15.795 C27.785,15.783 27.785,15.771 27.785,15.759 C27.772,15.753 27.760,15.747 27.748,15.741 C27.706,15.644 27.664,15.548 27.622,15.451 C27.616,15.451 27.609,15.451 27.603,15.451 C27.603,15.439 27.603,15.427 27.603,15.415 C27.597,15.415 27.591,15.415 27.585,15.415 C27.585,15.403 27.585,15.391 27.585,15.378 C27.579,15.378 27.573,15.378 27.567,15.378 C27.567,15.366 27.567,15.354 27.567,15.342 C27.561,15.342 27.555,15.342 27.549,15.342 C27.549,15.330 27.549,15.318 27.549,15.306 C27.543,15.306 27.537,15.306 27.531,15.306 C27.531,15.294 27.531,15.282 27.531,15.270 C27.525,15.270 27.519,15.270 27.513,15.270 C27.507,15.246 27.501,15.221 27.495,15.197 C27.489,15.197 27.483,15.197 27.477,15.197 C27.477,15.185 27.477,15.173 27.477,15.161 C27.471,15.161 27.465,15.161 27.459,15.161 C27.459,15.143 27.459,15.125 27.459,15.107 C27.453,15.107 27.447,15.107 27.441,15.107 C27.428,15.070 27.416,15.034 27.404,14.998 C27.398,14.998 27.392,14.998 27.386,14.998 C27.386,14.986 27.386,14.974 27.386,14.962 C27.380,14.962 27.374,14.962 27.368,14.962 C27.368,14.950 27.368,14.937 27.368,14.925 C27.362,14.925 27.356,14.925 27.350,14.925 C27.350,14.913 27.350,14.901 27.350,14.889 C27.344,14.889 27.338,14.889 27.332,14.889 C27.332,14.877 27.332,14.865 27.332,14.853 C27.326,14.853 27.320,14.853 27.314,14.853 C27.314,14.841 27.314,14.829 27.314,14.817 C27.308,14.817 27.302,14.817 27.296,14.817 C27.296,14.805 27.296,14.792 27.296,14.780 C27.290,14.780 27.284,14.780 27.278,14.780 C27.278,14.768 27.278,14.756 27.278,14.744 C27.272,14.744 27.265,14.744 27.259,14.744 C27.253,14.720 27.247,14.696 27.241,14.672 C27.235,14.672 27.229,14.672 27.223,14.672 C27.223,14.660 27.223,14.647 27.223,14.635 C27.217,14.635 27.211,14.635 27.205,14.635 C27.205,14.623 27.205,14.611 27.205,14.599 C27.199,14.599 27.193,14.599 27.187,14.599 C27.187,14.587 27.187,14.575 27.187,14.563 C27.181,14.563 27.175,14.563 27.169,14.563 C27.169,14.551 27.169,14.539 27.169,14.527 C27.163,14.527 27.157,14.527 27.151,14.527 C27.145,14.503 27.139,14.478 27.133,14.454 C27.127,14.454 27.121,14.454 27.115,14.454 C27.115,14.442 27.115,14.430 27.115,14.418 C27.109,14.418 27.103,14.418 27.097,14.418 C27.097,14.400 27.097,14.382 27.097,14.364 C27.090,14.364 27.084,14.364 27.078,14.364 C27.066,14.327 27.054,14.291 27.042,14.255 C27.036,14.255 27.030,14.255 27.024,14.255 C27.024,14.243 27.024,14.231 27.024,14.219 C27.018,14.219 27.012,14.219 27.006,14.219 C27.006,14.206 27.006,14.194 27.006,14.182 C27.000,14.182 26.994,14.182 26.988,14.182 C26.988,14.170 26.988,14.158 26.988,14.146 C26.982,14.146 26.976,14.146 26.970,14.146 C26.970,14.134 26.970,14.122 26.970,14.110 C26.964,14.110 26.958,14.110 26.952,14.110 C26.952,14.098 26.952,14.086 26.952,14.074 C26.946,14.074 26.940,14.074 26.934,14.074 C26.928,14.049 26.922,14.025 26.915,14.001 C26.909,14.001 26.903,14.001 26.897,14.001 C26.897,13.989 26.897,13.977 26.897,13.965 C26.891,13.965 26.885,13.965 26.879,13.965 C26.879,13.953 26.879,13.941 26.879,13.929 C26.873,13.929 26.867,13.929 26.861,13.929 C26.861,13.917 26.861,13.904 26.861,13.892 C26.855,13.892 26.849,13.892 26.843,13.892 C26.843,13.880 26.843,13.868 26.843,13.856 C26.837,13.856 26.831,13.856 26.825,13.856 C26.825,13.844 26.825,13.832 26.825,13.820 C26.819,13.820 26.813,13.820 26.807,13.820 C26.801,13.796 26.795,13.772 26.789,13.747 C26.783,13.747 26.777,13.747 26.771,13.747 C26.765,13.723 26.759,13.699 26.753,13.675 C26.746,13.675 26.740,13.675 26.734,13.675 C26.734,13.657 26.734,13.639 26.734,13.620 C26.728,13.620 26.722,13.620 26.716,13.620 C26.704,13.584 26.692,13.548 26.680,13.512 C26.674,13.512 26.668,13.512 26.662,13.512 C26.662,13.500 26.662,13.488 26.662,13.476 C26.656,13.476 26.650,13.476 26.644,13.476 C26.644,13.463 26.644,13.451 26.644,13.439 C26.638,13.439 26.632,13.439 26.626,13.439 C26.626,13.427 26.626,13.415 26.626,13.403 C26.620,13.403 26.614,13.403 26.608,13.403 C26.608,13.391 26.608,13.379 26.608,13.367 C26.602,13.367 26.596,13.367 26.590,13.367 C26.590,13.355 26.590,13.343 26.590,13.331 C26.584,13.331 26.578,13.331 26.571,13.331 C26.571,13.318 26.571,13.306 26.571,13.294 C26.565,13.294 26.559,13.294 26.553,13.294 C26.553,13.282 26.553,13.270 26.553,13.258 C26.547,13.258 26.541,13.258 26.535,13.258 C26.529,13.234 26.523,13.210 26.517,13.186 C26.511,13.186 26.505,13.186 26.499,13.186 C26.499,13.173 26.499,13.161 26.499,13.149 C26.493,13.149 26.487,13.149 26.481,13.149 C26.481,13.137 26.481,13.125 26.481,13.113 C26.475,13.113 26.469,13.113 26.463,13.113 C26.463,13.101 26.463,13.089 26.463,13.077 C26.457,13.077 26.451,13.077 26.445,13.077 C26.445,13.065 26.445,13.053 26.445,13.041 C26.439,13.041 26.433,13.041 26.427,13.041 C26.415,13.004 26.402,12.968 26.390,12.932 C26.384,12.932 26.378,12.932 26.372,12.932 C26.372,12.914 26.372,12.896 26.372,12.877 C26.366,12.877 26.360,12.877 26.354,12.877 C26.342,12.841 26.330,12.805 26.318,12.769 C26.312,12.769 26.306,12.769 26.300,12.769 C26.300,12.757 26.300,12.745 26.300,12.732 C26.294,12.732 26.288,12.732 26.282,12.732 C26.282,12.720 26.282,12.708 26.282,12.696 C26.276,12.696 26.270,12.696 26.264,12.696 C26.264,12.684 26.264,12.672 26.264,12.660 C26.258,12.660 26.252,12.660 26.246,12.660 C26.246,12.648 26.246,12.636 26.246,12.624 C26.240,12.624 26.234,12.624 26.227,12.624 C26.215,12.587 26.203,12.551 26.191,12.515 C26.185,12.515 26.179,12.515 26.173,12.515 C26.173,12.503 26.173,12.491 26.173,12.479 C26.167,12.479 26.161,12.479 26.155,12.479 C26.155,12.467 26.155,12.455 26.155,12.442 C26.149,12.442 26.143,12.442 26.137,12.442 C26.137,12.430 26.137,12.418 26.137,12.406 C26.131,12.406 26.125,12.406 26.119,12.406 C26.119,12.394 26.119,12.382 26.119,12.370 C26.113,12.370 26.107,12.370 26.101,12.370 C26.101,12.358 26.101,12.346 26.101,12.334 C26.095,12.334 26.089,12.334 26.083,12.334 C26.071,12.297 26.058,12.261 26.046,12.225 C26.040,12.225 26.034,12.225 26.028,12.225 C26.028,12.207 26.028,12.189 26.028,12.171 C26.022,12.171 26.016,12.171 26.010,12.171 C25.998,12.134 25.986,12.098 25.974,12.062 C25.968,12.062 25.962,12.062 25.956,12.062 C25.956,12.050 25.956,12.038 25.956,12.026 C25.950,12.026 25.944,12.026 25.938,12.026 C25.938,12.014 25.938,12.001 25.938,11.989 C25.932,11.989 25.926,11.989 25.920,11.989 C25.914,11.965 25.908,11.941 25.902,11.917 C25.896,11.917 25.890,11.917 25.883,11.917 C25.883,11.905 25.883,11.893 25.883,11.881 C25.877,11.881 25.871,11.881 25.865,11.881 C25.865,11.869 25.865,11.856 25.865,11.844 C25.859,11.844 25.853,11.844 25.847,11.844 C25.847,11.832 25.847,11.820 25.847,11.808 C25.841,11.808 25.835,11.808 25.829,11.808 C25.829,11.796 25.829,11.784 25.829,11.772 C25.823,11.772 25.817,11.772 25.811,11.772 C25.811,11.760 25.811,11.748 25.811,11.736 C25.805,11.736 25.799,11.736 25.793,11.736 C25.781,11.713 25.777,11.656 25.757,11.645 C20.917,11.645 16.076,11.645 11.236,11.645 C11.221,11.731 11.164,11.796 11.128,11.862 C11.128,11.875 11.128,11.887 11.128,11.899 C11.122,11.899 11.116,11.899 11.110,11.899 C11.110,11.911 11.110,11.923 11.110,11.935 C11.104,11.935 11.098,11.935 11.092,11.935 C11.092,11.947 11.092,11.959 11.092,11.971 C11.086,11.971 11.080,11.971 11.074,11.971 C11.074,11.983 11.074,11.995 11.074,12.007 C11.067,12.007 11.061,12.007 11.055,12.007 C11.049,12.038 11.043,12.068 11.037,12.098 C11.031,12.098 11.025,12.098 11.019,12.098 C11.013,12.122 11.007,12.146 11.001,12.171 C10.995,12.171 10.989,12.171 10.983,12.171 C10.977,12.195 10.971,12.219 10.965,12.243 C10.959,12.243 10.953,12.243 10.947,12.243 C10.941,12.267 10.935,12.291 10.929,12.316 C10.923,12.316 10.917,12.316 10.911,12.316 C10.905,12.340 10.899,12.364 10.892,12.388 C10.886,12.388 10.880,12.388 10.874,12.388 C10.868,12.412 10.862,12.436 10.856,12.461 C10.850,12.461 10.844,12.461 10.838,12.461 C10.838,12.473 10.838,12.485 10.838,12.497 C10.832,12.497 10.826,12.497 10.820,12.497 C10.820,12.509 10.820,12.521 10.820,12.533 C10.814,12.533 10.808,12.533 10.802,12.533 C10.802,12.545 10.802,12.557 10.802,12.569 C10.796,12.569 10.790,12.569 10.784,12.569 C10.784,12.581 10.784,12.593 10.784,12.606 C10.778,12.606 10.772,12.606 10.766,12.606 C10.754,12.642 10.742,12.678 10.730,12.714 C10.723,12.714 10.717,12.714 10.711,12.714 C10.705,12.738 10.699,12.763 10.693,12.787 C10.687,12.787 10.681,12.787 10.675,12.787 C10.675,12.805 10.675,12.823 10.675,12.841 C10.669,12.841 10.663,12.841 10.657,12.841 C10.651,12.865 10.645,12.890 10.639,12.914 C10.633,12.914 10.627,12.914 10.621,12.914 C10.609,12.950 10.597,12.986 10.585,13.022 C10.579,13.022 10.573,13.022 10.567,13.022 C10.561,13.047 10.555,13.071 10.548,13.095 C10.542,13.095 10.536,13.095 10.530,13.095 C10.524,13.119 10.518,13.143 10.512,13.167 C10.506,13.167 10.500,13.167 10.494,13.167 C10.494,13.179 10.494,13.192 10.494,13.204 C10.488,13.204 10.482,13.204 10.476,13.204 C10.476,13.216 10.476,13.228 10.476,13.240 C10.470,13.240 10.464,13.240 10.458,13.240 C10.458,13.252 10.458,13.264 10.458,13.276 C10.452,13.276 10.446,13.276 10.440,13.276 C10.440,13.288 10.440,13.300 10.440,13.312 C10.434,13.312 10.428,13.312 10.422,13.312 C10.410,13.349 10.398,13.385 10.386,13.421 C10.379,13.421 10.373,13.421 10.367,13.421 C10.361,13.445 10.355,13.469 10.349,13.494 C10.343,13.494 10.337,13.494 10.331,13.494 C10.331,13.512 10.331,13.530 10.331,13.548 C10.325,13.548 10.319,13.548 10.313,13.548 C10.313,13.560 10.313,13.572 10.313,13.584 C10.307,13.584 10.301,13.584 10.295,13.584 C10.295,13.596 10.295,13.608 10.295,13.620 C10.289,13.620 10.283,13.620 10.277,13.620 C10.277,13.633 10.277,13.645 10.277,13.657 C10.271,13.657 10.265,13.657 10.259,13.657 C10.259,13.669 10.259,13.681 10.259,13.693 C10.253,13.693 10.247,13.693 10.241,13.693 C10.241,13.705 10.241,13.717 10.241,13.729 C10.235,13.729 10.229,13.729 10.223,13.729 C10.223,13.741 10.223,13.753 10.223,13.765 C10.217,13.765 10.211,13.765 10.204,13.765 C10.204,13.778 10.204,13.790 10.204,13.802 C10.198,13.802 10.192,13.802 10.186,13.802 C10.186,13.814 10.186,13.826 10.186,13.838 C10.180,13.838 10.174,13.838 10.168,13.838 C10.162,13.862 10.156,13.886 10.150,13.910 C10.144,13.910 10.138,13.910 10.132,13.910 C10.132,13.923 10.132,13.935 10.132,13.947 C10.126,13.947 10.120,13.947 10.114,13.947 C10.114,13.959 10.114,13.971 10.114,13.983 C10.108,13.983 10.102,13.983 10.096,13.983 C10.096,13.995 10.096,14.007 10.096,14.019 C10.090,14.019 10.084,14.019 10.078,14.019 C10.078,14.031 10.078,14.043 10.078,14.055 C10.072,14.055 10.066,14.055 10.060,14.055 C10.060,14.068 10.060,14.080 10.060,14.092 C10.054,14.092 10.048,14.092 10.042,14.092 C10.035,14.116 10.029,14.140 10.023,14.164 C10.017,14.164 10.011,14.164 10.005,14.164 C9.999,14.188 9.993,14.213 9.987,14.237 C9.981,14.237 9.975,14.237 9.969,14.237 C9.969,14.255 9.969,14.273 9.969,14.291 C9.963,14.291 9.957,14.291 9.951,14.291 C9.939,14.327 9.927,14.364 9.915,14.400 C9.909,14.400 9.903,14.400 9.897,14.400 C9.897,14.412 9.897,14.424 9.897,14.436 C9.891,14.436 9.885,14.436 9.879,14.436 C9.879,14.448 9.879,14.460 9.879,14.472 C9.873,14.472 9.867,14.472 9.860,14.472 C9.860,14.484 9.860,14.496 9.860,14.509 C9.854,14.509 9.848,14.509 9.842,14.509 C9.842,14.521 9.842,14.533 9.842,14.545 C9.836,14.545 9.830,14.545 9.824,14.545 C9.824,14.557 9.824,14.569 9.824,14.581 C9.818,14.581 9.812,14.581 9.806,14.581 C9.800,14.605 9.794,14.629 9.788,14.654 C9.782,14.654 9.776,14.654 9.770,14.654 C9.770,14.666 9.770,14.678 9.770,14.690 C9.764,14.690 9.758,14.690 9.752,14.690 C9.752,14.702 9.752,14.714 9.752,14.726 C9.746,14.726 9.740,14.726 9.734,14.726 C9.734,14.738 9.734,14.750 9.734,14.762 C9.728,14.762 9.722,14.762 9.716,14.762 C9.716,14.774 9.716,14.786 9.716,14.799 C9.710,14.799 9.704,14.799 9.698,14.799 C9.698,14.811 9.698,14.823 9.698,14.835 C9.692,14.835 9.685,14.835 9.679,14.835 C9.673,14.859 9.667,14.883 9.661,14.907 C9.655,14.907 9.649,14.907 9.643,14.907 C9.637,14.931 9.631,14.956 9.625,14.980 C9.619,14.980 9.613,14.980 9.607,14.980 C9.607,14.998 9.607,15.016 9.607,15.034 C9.601,15.034 9.595,15.034 9.589,15.034 C9.583,15.058 9.577,15.082 9.571,15.107 C9.565,15.107 9.559,15.107 9.553,15.107 C9.541,15.143 9.529,15.179 9.516,15.215 C9.510,15.215 9.504,15.215 9.498,15.215 C9.492,15.240 9.486,15.264 9.480,15.288 C9.474,15.288 9.468,15.288 9.462,15.288 C9.456,15.312 9.450,15.336 9.444,15.360 C9.438,15.360 9.432,15.360 9.426,15.360 C9.420,15.385 9.414,15.409 9.408,15.433 C9.402,15.433 9.396,15.433 9.390,15.433 C9.390,15.445 9.390,15.457 9.390,15.469 C9.384,15.469 9.378,15.469 9.372,15.469 C9.372,15.481 9.372,15.493 9.372,15.505 C9.366,15.505 9.360,15.505 9.354,15.505 C9.354,15.517 9.354,15.530 9.354,15.542 C9.348,15.542 9.341,15.542 9.335,15.542 C9.335,15.554 9.335,15.566 9.335,15.578 C9.329,15.578 9.323,15.578 9.317,15.578 C9.317,15.590 9.317,15.602 9.317,15.614 C9.311,15.614 9.305,15.614 9.299,15.614 C9.299,15.626 9.299,15.638 9.299,15.650 C9.293,15.650 9.287,15.650 9.281,15.650 C9.281,15.662 9.281,15.675 9.281,15.687 C9.275,15.687 9.269,15.687 9.263,15.687 C9.263,15.699 9.263,15.711 9.263,15.723 C9.257,15.723 9.251,15.723 9.245,15.723 C9.245,15.735 9.245,15.747 9.245,15.759 C9.233,15.765 9.221,15.771 9.209,15.777 C9.209,15.789 9.209,15.801 9.209,15.813 C9.197,15.819 9.185,15.826 9.172,15.832 C9.172,15.844 9.172,15.856 9.172,15.868 C9.148,15.886 9.124,15.904 9.100,15.922 C9.100,15.934 9.100,15.946 9.100,15.958 C9.052,16.001 9.004,16.043 8.955,16.085 C8.943,16.103 8.931,16.122 8.919,16.140 C8.907,16.140 8.895,16.140 8.883,16.140 C8.871,16.158 8.859,16.176 8.847,16.194 C8.835,16.194 8.822,16.194 8.810,16.194 C8.798,16.212 8.786,16.230 8.774,16.248 C8.750,16.254 8.726,16.261 8.702,16.267 C8.497,16.396 8.279,16.484 7.941,16.484 C7.857,16.484 7.772,16.484 7.688,16.484 C7.688,16.478 7.688,16.472 7.688,16.466 C7.658,16.466 7.628,16.466 7.597,16.466 C7.597,16.460 7.597,16.454 7.597,16.448 C7.573,16.448 7.549,16.448 7.525,16.448 C7.525,16.442 7.525,16.436 7.525,16.430 C7.507,16.430 7.489,16.430 7.471,16.430 C7.471,16.424 7.471,16.418 7.471,16.412 C7.453,16.412 7.434,16.412 7.416,16.412 C7.416,16.405 7.416,16.399 7.416,16.393 C7.380,16.387 7.344,16.381 7.308,16.375 C7.308,16.369 7.308,16.363 7.308,16.357 C7.296,16.357 7.284,16.357 7.271,16.357 C7.271,16.351 7.271,16.345 7.271,16.339 C7.259,16.339 7.247,16.339 7.235,16.339 C7.235,16.333 7.235,16.327 7.235,16.321 C7.223,16.321 7.211,16.321 7.199,16.321 C7.199,16.315 7.199,16.309 7.199,16.303 C7.187,16.303 7.175,16.303 7.163,16.303 C7.163,16.297 7.163,16.291 7.163,16.285 C7.151,16.285 7.139,16.285 7.127,16.285 C7.121,16.273 7.115,16.261 7.109,16.248 C7.096,16.248 7.084,16.248 7.072,16.248 C7.066,16.236 7.060,16.224 7.054,16.212 C7.042,16.212 7.030,16.212 7.018,16.212 C7.006,16.194 6.994,16.176 6.982,16.158 C6.970,16.158 6.958,16.158 6.946,16.158 C6.921,16.128 6.897,16.097 6.873,16.067 C6.819,16.019 6.765,15.971 6.710,15.922 C6.710,15.910 6.710,15.898 6.710,15.886 C6.692,15.874 6.674,15.862 6.656,15.850 C6.656,15.838 6.656,15.826 6.656,15.813 C6.644,15.807 6.632,15.801 6.620,15.795 C6.620,15.783 6.620,15.771 6.620,15.759 C6.608,15.753 6.596,15.747 6.583,15.741 C6.577,15.717 6.571,15.693 6.565,15.668 C6.559,15.668 6.553,15.668 6.547,15.668 C6.535,15.632 6.523,15.596 6.511,15.560 C6.505,15.560 6.499,15.560 6.493,15.560 C6.493,15.542 6.493,15.523 6.493,15.505 C6.487,15.505 6.481,15.505 6.475,15.505 C6.475,15.493 6.475,15.481 6.475,15.469 C6.469,15.469 6.463,15.469 6.457,15.469 C6.457,15.451 6.457,15.433 6.457,15.415 C6.451,15.415 6.445,15.415 6.439,15.415 C6.439,15.391 6.439,15.366 6.439,15.342 C6.356,15.092 6.354,14.795 6.439,14.545 C6.439,14.521 6.439,14.496 6.439,14.472 C6.517,14.303 6.596,14.134 6.674,13.965 C6.680,13.965 6.686,13.965 6.692,13.965 C6.698,13.941 6.704,13.917 6.710,13.892 C6.716,13.892 6.722,13.892 6.728,13.892 C6.728,13.874 6.728,13.856 6.728,13.838 C6.734,13.838 6.740,13.838 6.746,13.838 C6.758,13.802 6.771,13.765 6.783,13.729 C6.789,13.729 6.795,13.729 6.801,13.729 C6.813,13.693 6.825,13.657 6.837,13.620 C6.843,13.620 6.849,13.620 6.855,13.620 C6.861,13.596 6.867,13.572 6.873,13.548 C6.879,13.548 6.885,13.548 6.891,13.548 C6.897,13.524 6.903,13.500 6.909,13.476 C6.915,13.476 6.921,13.476 6.927,13.476 C6.933,13.451 6.940,13.427 6.946,13.403 C6.952,13.403 6.958,13.403 6.964,13.403 C6.964,13.391 6.964,13.379 6.964,13.367 C6.970,13.367 6.976,13.367 6.982,13.367 C6.982,13.355 6.982,13.343 6.982,13.331 C6.988,13.331 6.994,13.331 7.000,13.331 C7.000,13.318 7.000,13.306 7.000,13.294 C7.006,13.294 7.012,13.294 7.018,13.294 C7.018,13.282 7.018,13.270 7.018,13.258 C7.024,13.258 7.030,13.258 7.036,13.258 C7.090,13.131 7.145,13.004 7.199,12.877 C7.205,12.877 7.211,12.877 7.217,12.877 C7.223,12.853 7.229,12.829 7.235,12.805 C7.241,12.805 7.247,12.805 7.253,12.805 C7.259,12.781 7.265,12.757 7.271,12.732 C7.277,12.732 7.284,12.732 7.290,12.732 C7.296,12.708 7.302,12.684 7.308,12.660 C7.314,12.660 7.320,12.660 7.326,12.660 C7.326,12.648 7.326,12.636 7.326,12.624 C7.332,12.624 7.338,12.624 7.344,12.624 C7.344,12.612 7.344,12.600 7.344,12.587 C7.350,12.587 7.356,12.587 7.362,12.587 C7.362,12.575 7.362,12.563 7.362,12.551 C7.368,12.551 7.374,12.551 7.380,12.551 C7.380,12.539 7.380,12.527 7.380,12.515 C7.386,12.515 7.392,12.515 7.398,12.515 C7.410,12.479 7.422,12.442 7.434,12.406 C7.440,12.406 7.446,12.406 7.453,12.406 C7.459,12.382 7.465,12.358 7.471,12.334 C7.477,12.334 7.483,12.334 7.489,12.334 C7.495,12.304 7.501,12.273 7.507,12.243 C7.608,12.049 7.721,11.848 7.815,11.645 C6.403,11.645 4.990,11.645 3.578,11.645 C3.578,11.651 3.578,11.657 3.578,11.663 C3.584,11.663 3.590,11.663 3.596,11.663 C3.602,11.705 3.608,11.748 3.614,11.790 C3.620,11.790 3.626,11.790 3.632,11.790 C3.632,11.814 3.632,11.838 3.632,11.862 C3.638,11.862 3.644,11.862 3.650,11.862 C3.650,11.881 3.650,11.899 3.650,11.917 C3.656,11.917 3.663,11.917 3.669,11.917 C3.669,11.941 3.669,11.965 3.669,11.989 C3.675,11.989 3.681,11.989 3.687,11.989 C3.687,12.014 3.687,12.038 3.687,12.062 C3.783,12.329 3.844,12.647 3.940,12.914 C3.964,13.028 3.988,13.143 4.013,13.258 C4.085,13.460 4.139,13.708 4.212,13.910 C4.218,13.959 4.224,14.007 4.230,14.055 C4.236,14.055 4.242,14.055 4.248,14.055 C4.248,14.074 4.248,14.092 4.248,14.110 C4.254,14.110 4.260,14.110 4.266,14.110 C4.278,14.176 4.290,14.243 4.302,14.309 C4.308,14.309 4.314,14.309 4.320,14.309 C4.332,14.376 4.344,14.442 4.357,14.509 C4.363,14.509 4.369,14.509 4.375,14.509 C4.381,14.557 4.387,14.605 4.393,14.654 C4.399,14.654 4.405,14.654 4.411,14.654 C4.411,14.672 4.411,14.690 4.411,14.708 C4.417,14.708 4.423,14.708 4.429,14.708 C4.441,14.774 4.453,14.841 4.465,14.907 C4.471,14.907 4.477,14.907 4.483,14.907 C4.495,14.974 4.507,15.040 4.519,15.107 C4.526,15.107 4.532,15.107 4.538,15.107 C4.544,15.155 4.550,15.203 4.556,15.252 C4.722,15.712 4.807,16.241 4.972,16.702 C4.978,16.750 4.984,16.798 4.990,16.847 C5.063,17.049 5.117,17.297 5.189,17.499 C5.195,17.547 5.201,17.596 5.207,17.644 C5.373,18.104 5.459,18.633 5.624,19.094 C5.648,19.209 5.672,19.323 5.696,19.438 C5.816,19.770 5.885,20.158 6.004,20.489 C6.028,20.604 6.052,20.719 6.077,20.834 C6.173,21.101 6.234,21.418 6.330,21.686 C6.354,21.800 6.378,21.915 6.402,22.030 C6.499,22.297 6.560,22.615 6.656,22.882 C6.662,22.930 6.668,22.978 6.674,23.027 C6.680,23.027 6.686,23.027 6.692,23.027 C6.692,23.045 6.692,23.063 6.692,23.081 C6.698,23.081 6.704,23.081 6.710,23.081 C6.722,23.147 6.734,23.214 6.746,23.280 C6.752,23.280 6.758,23.280 6.765,23.280 C6.777,23.347 6.789,23.413 6.801,23.480 C6.807,23.480 6.813,23.480 6.819,23.480 C6.825,23.528 6.831,23.576 6.837,23.625 C6.843,23.625 6.849,23.625 6.855,23.625 C6.855,23.643 6.855,23.661 6.855,23.679 C6.861,23.679 6.867,23.679 6.873,23.679 C6.885,23.746 6.897,23.812 6.909,23.878 C6.915,23.878 6.921,23.878 6.927,23.878 C6.940,23.945 6.952,24.011 6.964,24.078 C6.970,24.078 6.976,24.078 6.982,24.078 C6.988,24.126 6.994,24.175 7.000,24.223 C7.143,24.619 7.220,25.077 7.362,25.473 C7.392,25.606 7.422,25.739 7.453,25.872 C7.459,25.872 7.465,25.872 7.471,25.872 C7.495,25.987 7.519,26.102 7.543,26.216 C7.709,26.677 7.795,27.206 7.959,27.666 C7.984,27.781 8.008,27.896 8.032,28.011 C8.105,28.213 8.159,28.461 8.231,28.663 C8.237,28.711 8.243,28.760 8.249,28.808 C8.255,28.808 8.261,28.808 8.267,28.808 C8.267,28.826 8.267,28.844 8.267,28.862 C8.273,28.862 8.279,28.862 8.285,28.862 C8.297,28.929 8.309,28.995 8.322,29.062 C8.328,29.062 8.334,29.062 8.340,29.062 C8.352,29.128 8.364,29.195 8.376,29.261 C8.382,29.261 8.388,29.261 8.394,29.261 C8.400,29.310 8.406,29.358 8.412,29.406 C8.555,29.802 8.632,30.260 8.774,30.657 C8.804,30.790 8.835,30.923 8.865,31.055 C8.871,31.055 8.877,31.055 8.883,31.055 C8.889,31.104 8.895,31.152 8.901,31.200 C8.907,31.200 8.913,31.200 8.919,31.200 C8.919,31.219 8.919,31.237 8.919,31.255 C8.925,31.255 8.931,31.255 8.937,31.255 C8.949,31.321 8.961,31.388 8.973,31.454 C8.979,31.454 8.985,31.454 8.991,31.454 C9.004,31.521 9.016,31.587 9.028,31.654 C9.034,31.654 9.040,31.654 9.046,31.654 C9.052,31.702 9.058,31.750 9.064,31.799 C9.183,32.130 9.253,32.518 9.372,32.850 C9.396,32.964 9.420,33.079 9.444,33.194 C9.450,33.194 9.456,33.194 9.462,33.194 C9.462,33.212 9.462,33.230 9.462,33.248 C9.468,33.248 9.474,33.248 9.480,33.248 C9.492,33.315 9.504,33.381 9.516,33.448 C9.523,33.448 9.529,33.448 9.535,33.448 C9.541,33.496 9.547,33.544 9.553,33.593 C9.559,33.593 9.565,33.593 9.571,33.593 C9.595,33.701 9.619,33.810 9.643,33.919 ZM11.906,19.384 C12.069,19.383 12.338,19.362 12.468,19.402 C12.468,19.408 12.468,19.414 12.468,19.420 C12.492,19.420 12.516,19.420 12.540,19.420 C12.540,19.426 12.540,19.432 12.540,19.438 C12.558,19.438 12.576,19.438 12.594,19.438 C12.594,19.444 12.594,19.450 12.594,19.456 C12.612,19.456 12.631,19.456 12.649,19.456 C12.649,19.462 12.649,19.468 12.649,19.474 C12.667,19.474 12.685,19.474 12.703,19.474 C12.703,19.480 12.703,19.487 12.703,19.493 C12.721,19.493 12.739,19.493 12.757,19.493 C12.757,19.499 12.757,19.505 12.757,19.511 C12.794,19.523 12.830,19.535 12.866,19.547 C12.866,19.553 12.866,19.559 12.866,19.565 C12.878,19.565 12.890,19.565 12.902,19.565 C12.908,19.577 12.914,19.589 12.920,19.601 C12.944,19.607 12.969,19.613 12.993,19.619 C12.999,19.631 13.005,19.644 13.011,19.656 C13.023,19.656 13.035,19.656 13.047,19.656 C13.065,19.680 13.083,19.704 13.101,19.728 C13.113,19.728 13.125,19.728 13.138,19.728 C13.168,19.764 13.198,19.801 13.228,19.837 C13.264,19.867 13.300,19.897 13.337,19.928 C13.337,19.940 13.337,19.952 13.337,19.964 C13.355,19.976 13.373,19.988 13.391,20.000 C13.391,20.012 13.391,20.024 13.391,20.036 C13.403,20.042 13.415,20.048 13.427,20.054 C13.427,20.066 13.427,20.079 13.427,20.091 C13.439,20.097 13.451,20.103 13.463,20.109 C13.469,20.133 13.475,20.157 13.481,20.181 C13.494,20.187 13.506,20.193 13.518,20.199 C13.518,20.211 13.518,20.224 13.518,20.236 C13.524,20.236 13.530,20.236 13.536,20.236 C13.578,20.362 13.620,20.489 13.663,20.616 C13.663,20.659 13.663,20.701 13.663,20.743 C13.699,20.874 13.681,21.089 13.681,21.251 C13.681,21.692 13.681,22.133 13.681,22.574 C13.681,23.721 13.681,24.869 13.681,26.017 C13.681,26.639 13.681,27.262 13.681,27.884 C13.681,28.082 13.710,28.352 13.663,28.518 C13.663,28.560 13.663,28.603 13.663,28.645 C13.657,28.645 13.650,28.645 13.644,28.645 C13.644,28.669 13.644,28.693 13.644,28.717 C13.638,28.717 13.632,28.717 13.626,28.717 C13.626,28.742 13.626,28.766 13.626,28.790 C13.620,28.790 13.614,28.790 13.608,28.790 C13.608,28.808 13.608,28.826 13.608,28.844 C13.602,28.844 13.596,28.844 13.590,28.844 C13.590,28.862 13.590,28.881 13.590,28.899 C13.584,28.899 13.578,28.899 13.572,28.899 C13.572,28.911 13.572,28.923 13.572,28.935 C13.566,28.935 13.560,28.935 13.554,28.935 C13.536,28.989 13.518,29.044 13.500,29.098 C13.302,29.414 13.027,29.651 12.667,29.805 C12.649,29.805 12.631,29.805 12.612,29.805 C12.612,29.811 12.612,29.817 12.612,29.823 C12.588,29.823 12.564,29.823 12.540,29.823 C12.540,29.829 12.540,29.835 12.540,29.841 C12.516,29.841 12.492,29.841 12.468,29.841 C12.468,29.847 12.468,29.853 12.468,29.859 C12.437,29.859 12.407,29.859 12.377,29.859 C12.377,29.865 12.377,29.871 12.377,29.877 C12.317,29.877 12.256,29.877 12.196,29.877 C12.196,29.883 12.196,29.889 12.196,29.896 C12.160,29.896 12.124,29.896 12.087,29.896 C12.087,29.889 12.087,29.883 12.087,29.877 C12.027,29.877 11.967,29.877 11.906,29.877 C11.906,29.871 11.906,29.865 11.906,29.859 C11.870,29.859 11.834,29.859 11.798,29.859 C11.798,29.853 11.798,29.847 11.798,29.841 C11.774,29.841 11.749,29.841 11.725,29.841 C11.725,29.835 11.725,29.829 11.725,29.823 C11.671,29.811 11.617,29.799 11.562,29.787 C11.562,29.781 11.562,29.775 11.562,29.769 C11.526,29.757 11.490,29.744 11.454,29.732 C11.454,29.726 11.454,29.720 11.454,29.714 C11.442,29.714 11.430,29.714 11.418,29.714 C11.418,29.708 11.418,29.702 11.418,29.696 C11.381,29.684 11.345,29.672 11.309,29.660 C11.303,29.648 11.297,29.636 11.291,29.624 C11.279,29.624 11.267,29.624 11.255,29.624 C11.243,29.606 11.230,29.587 11.218,29.569 C11.206,29.569 11.194,29.569 11.182,29.569 C11.128,29.509 11.074,29.448 11.019,29.388 C10.983,29.358 10.947,29.328 10.911,29.297 C10.911,29.285 10.911,29.273 10.911,29.261 C10.899,29.255 10.886,29.249 10.874,29.243 C10.868,29.225 10.862,29.207 10.856,29.189 C10.850,29.189 10.844,29.189 10.838,29.189 C10.838,29.177 10.838,29.165 10.838,29.152 C10.826,29.146 10.814,29.140 10.802,29.134 C10.796,29.110 10.790,29.086 10.784,29.062 C10.778,29.062 10.772,29.062 10.766,29.062 C10.754,29.026 10.742,28.989 10.730,28.953 C10.723,28.953 10.717,28.953 10.711,28.953 C10.711,28.935 10.711,28.917 10.711,28.899 C10.705,28.899 10.699,28.899 10.693,28.899 C10.693,28.887 10.693,28.875 10.693,28.862 C10.687,28.862 10.681,28.862 10.675,28.862 C10.651,28.760 10.627,28.657 10.603,28.554 C10.603,27.999 10.603,27.443 10.603,26.887 C10.603,25.419 10.603,23.951 10.603,22.483 C10.603,22.054 10.603,21.625 10.603,21.196 C10.603,20.991 10.590,20.751 10.639,20.598 C10.639,20.574 10.639,20.550 10.639,20.526 C10.766,20.166 10.915,19.912 11.200,19.710 C11.212,19.692 11.224,19.674 11.236,19.656 C11.249,19.656 11.261,19.656 11.273,19.656 C11.279,19.644 11.285,19.631 11.291,19.619 C11.303,19.619 11.315,19.619 11.327,19.619 C11.333,19.607 11.339,19.595 11.345,19.583 C11.369,19.577 11.393,19.571 11.418,19.565 C11.418,19.559 11.418,19.553 11.418,19.547 C11.454,19.535 11.490,19.523 11.526,19.511 C11.526,19.505 11.526,19.499 11.526,19.493 C11.544,19.493 11.562,19.493 11.580,19.493 C11.580,19.487 11.580,19.480 11.580,19.474 C11.593,19.474 11.605,19.474 11.617,19.474 C11.617,19.468 11.617,19.462 11.617,19.456 C11.635,19.456 11.653,19.456 11.671,19.456 C11.671,19.450 11.671,19.444 11.671,19.438 C11.695,19.438 11.719,19.438 11.743,19.438 C11.743,19.432 11.743,19.426 11.743,19.420 C11.801,19.401 11.867,19.419 11.906,19.384 ZM18.279,19.384 C18.430,19.384 18.581,19.384 18.732,19.384 C18.732,19.390 18.732,19.396 18.732,19.402 C18.762,19.402 18.792,19.402 18.822,19.402 C18.822,19.408 18.822,19.414 18.822,19.420 C18.853,19.420 18.883,19.420 18.913,19.420 C18.913,19.426 18.913,19.432 18.913,19.438 C18.931,19.438 18.949,19.438 18.967,19.438 C18.967,19.444 18.967,19.450 18.967,19.456 C18.985,19.456 19.004,19.456 19.022,19.456 C19.022,19.462 19.022,19.468 19.022,19.474 C19.040,19.474 19.058,19.474 19.076,19.474 C19.076,19.480 19.076,19.487 19.076,19.493 C19.100,19.499 19.124,19.505 19.148,19.511 C19.148,19.517 19.148,19.523 19.148,19.529 C19.179,19.535 19.209,19.541 19.239,19.547 C19.245,19.559 19.251,19.571 19.257,19.583 C19.281,19.589 19.305,19.595 19.329,19.601 C19.329,19.607 19.329,19.613 19.329,19.619 C19.348,19.625 19.366,19.632 19.384,19.638 C19.390,19.650 19.396,19.662 19.402,19.674 C19.414,19.674 19.426,19.674 19.438,19.674 C19.462,19.704 19.486,19.734 19.510,19.764 C19.523,19.764 19.535,19.764 19.547,19.764 C19.577,19.801 19.607,19.837 19.637,19.873 C19.649,19.879 19.661,19.885 19.673,19.891 C19.673,19.903 19.673,19.915 19.673,19.928 C19.698,19.946 19.722,19.964 19.746,19.982 C19.746,19.994 19.746,20.006 19.746,20.018 C19.758,20.024 19.770,20.030 19.782,20.036 C19.782,20.048 19.782,20.060 19.782,20.073 C19.794,20.079 19.806,20.085 19.818,20.091 C19.824,20.109 19.830,20.127 19.836,20.145 C19.842,20.145 19.848,20.145 19.854,20.145 C19.861,20.169 19.867,20.193 19.873,20.217 C19.879,20.217 19.885,20.217 19.891,20.217 C19.897,20.242 19.903,20.266 19.909,20.290 C19.915,20.290 19.921,20.290 19.927,20.290 C19.933,20.320 19.939,20.350 19.945,20.381 C19.951,20.381 19.957,20.381 19.963,20.381 C19.963,20.399 19.963,20.417 19.963,20.435 C19.969,20.435 19.975,20.435 19.981,20.435 C19.993,20.507 20.005,20.580 20.017,20.652 C20.023,20.652 20.030,20.652 20.036,20.652 C20.042,20.864 20.048,21.075 20.054,21.287 C20.054,21.716 20.054,22.145 20.054,22.574 C20.054,23.721 20.054,24.869 20.054,26.017 C20.054,26.621 20.054,27.225 20.054,27.829 C20.054,28.166 20.068,28.509 19.981,28.754 C19.975,28.796 19.969,28.838 19.963,28.881 C19.957,28.881 19.951,28.881 19.945,28.881 C19.945,28.893 19.945,28.905 19.945,28.917 C19.939,28.917 19.933,28.917 19.927,28.917 C19.927,28.935 19.927,28.953 19.927,28.971 C19.921,28.971 19.915,28.971 19.909,28.971 C19.903,28.995 19.897,29.020 19.891,29.044 C19.885,29.044 19.879,29.044 19.873,29.044 C19.867,29.068 19.861,29.092 19.854,29.116 C19.842,29.122 19.830,29.128 19.818,29.134 C19.812,29.158 19.806,29.183 19.800,29.207 C19.782,29.219 19.764,29.231 19.746,29.243 C19.746,29.255 19.746,29.267 19.746,29.279 C19.722,29.297 19.698,29.316 19.673,29.334 C19.673,29.346 19.673,29.358 19.673,29.370 C19.631,29.406 19.589,29.442 19.547,29.479 C19.541,29.491 19.535,29.503 19.529,29.515 C19.517,29.515 19.504,29.515 19.492,29.515 C19.474,29.539 19.456,29.563 19.438,29.587 C19.426,29.587 19.414,29.587 19.402,29.587 C19.396,29.600 19.390,29.612 19.384,29.624 C19.372,29.624 19.360,29.624 19.348,29.624 C19.342,29.636 19.335,29.648 19.329,29.660 C19.317,29.660 19.305,29.660 19.293,29.660 C19.287,29.672 19.281,29.684 19.275,29.696 C19.251,29.702 19.227,29.708 19.203,29.714 C19.203,29.720 19.203,29.726 19.203,29.732 C19.179,29.738 19.154,29.744 19.130,29.751 C19.130,29.757 19.130,29.763 19.130,29.769 C19.112,29.769 19.094,29.769 19.076,29.769 C19.076,29.775 19.076,29.781 19.076,29.787 C19.058,29.787 19.040,29.787 19.022,29.787 C19.022,29.793 19.022,29.799 19.022,29.805 C19.004,29.805 18.985,29.805 18.967,29.805 C18.967,29.811 18.967,29.817 18.967,29.823 C18.949,29.823 18.931,29.823 18.913,29.823 C18.913,29.829 18.913,29.835 18.913,29.841 C18.889,29.841 18.865,29.841 18.841,29.841 C18.841,29.847 18.841,29.853 18.841,29.859 C18.750,29.865 18.660,29.871 18.569,29.877 C18.569,29.883 18.569,29.889 18.569,29.896 C18.527,29.896 18.485,29.896 18.442,29.896 C18.442,29.889 18.442,29.883 18.442,29.877 C18.382,29.877 18.322,29.877 18.261,29.877 C18.261,29.871 18.261,29.865 18.261,29.859 C18.231,29.859 18.201,29.859 18.171,29.859 C18.171,29.853 18.171,29.847 18.171,29.841 C18.147,29.841 18.122,29.841 18.098,29.841 C18.098,29.835 18.098,29.829 18.098,29.823 C18.080,29.823 18.062,29.823 18.044,29.823 C18.044,29.817 18.044,29.811 18.044,29.805 C18.026,29.805 18.008,29.805 17.990,29.805 C17.990,29.799 17.990,29.793 17.990,29.787 C17.972,29.787 17.953,29.787 17.935,29.787 C17.935,29.781 17.935,29.775 17.935,29.769 C17.917,29.769 17.899,29.769 17.881,29.769 C17.881,29.763 17.881,29.757 17.881,29.751 C17.857,29.744 17.833,29.738 17.809,29.732 C17.809,29.726 17.809,29.720 17.809,29.714 C17.784,29.708 17.760,29.702 17.736,29.696 C17.730,29.684 17.724,29.672 17.718,29.660 C17.706,29.660 17.694,29.660 17.682,29.660 C17.676,29.648 17.670,29.636 17.664,29.624 C17.652,29.624 17.640,29.624 17.628,29.624 C17.622,29.612 17.615,29.600 17.609,29.587 C17.597,29.587 17.585,29.587 17.573,29.587 C17.555,29.563 17.537,29.539 17.519,29.515 C17.507,29.515 17.495,29.515 17.483,29.515 C17.447,29.473 17.410,29.430 17.374,29.388 C17.362,29.382 17.350,29.376 17.338,29.370 C17.338,29.358 17.338,29.346 17.338,29.334 C17.314,29.316 17.290,29.297 17.265,29.279 C17.265,29.267 17.265,29.255 17.265,29.243 C17.247,29.231 17.229,29.219 17.211,29.207 C17.205,29.183 17.199,29.158 17.193,29.134 C17.181,29.128 17.169,29.122 17.157,29.116 C17.151,29.092 17.145,29.068 17.139,29.044 C17.133,29.044 17.127,29.044 17.121,29.044 C17.115,29.020 17.109,28.995 17.103,28.971 C17.096,28.971 17.090,28.971 17.084,28.971 C17.078,28.941 17.072,28.911 17.066,28.881 C17.060,28.881 17.054,28.881 17.048,28.881 C17.048,28.862 17.048,28.844 17.048,28.826 C17.042,28.826 17.036,28.826 17.030,28.826 C17.024,28.784 17.018,28.742 17.012,28.699 C17.006,28.699 17.000,28.699 16.994,28.699 C16.994,28.669 16.994,28.639 16.994,28.609 C16.988,28.609 16.982,28.609 16.976,28.609 C16.970,28.415 16.964,28.222 16.958,28.029 C16.958,27.636 16.958,27.243 16.958,26.851 C16.958,25.395 16.958,23.939 16.958,22.483 C16.958,22.072 16.958,21.661 16.958,21.251 C16.958,20.963 16.960,20.715 17.030,20.507 C17.030,20.483 17.030,20.459 17.030,20.435 C17.036,20.435 17.042,20.435 17.048,20.435 C17.048,20.417 17.048,20.399 17.048,20.381 C17.054,20.381 17.060,20.381 17.066,20.381 C17.066,20.369 17.066,20.356 17.066,20.344 C17.072,20.344 17.078,20.344 17.084,20.344 C17.084,20.326 17.084,20.308 17.084,20.290 C17.090,20.290 17.096,20.290 17.103,20.290 C17.109,20.266 17.115,20.242 17.121,20.217 C17.127,20.217 17.133,20.217 17.139,20.217 C17.145,20.193 17.151,20.169 17.157,20.145 C17.163,20.145 17.169,20.145 17.175,20.145 C17.181,20.127 17.187,20.109 17.193,20.091 C17.205,20.085 17.217,20.079 17.229,20.073 C17.229,20.060 17.229,20.048 17.229,20.036 C17.241,20.030 17.253,20.024 17.265,20.018 C17.265,20.006 17.265,19.994 17.265,19.982 C17.290,19.964 17.314,19.946 17.338,19.928 C17.338,19.915 17.338,19.903 17.338,19.891 C17.350,19.885 17.362,19.879 17.374,19.873 C17.404,19.837 17.434,19.801 17.465,19.764 C17.477,19.764 17.489,19.764 17.501,19.764 C17.525,19.734 17.549,19.704 17.573,19.674 C17.585,19.674 17.597,19.674 17.609,19.674 C17.615,19.662 17.622,19.650 17.628,19.638 C17.646,19.632 17.664,19.625 17.682,19.619 C17.682,19.613 17.682,19.607 17.682,19.601 C17.706,19.595 17.730,19.589 17.754,19.583 C17.760,19.571 17.766,19.559 17.772,19.547 C17.784,19.547 17.797,19.547 17.809,19.547 C17.809,19.541 17.809,19.535 17.809,19.529 C17.827,19.529 17.845,19.529 17.863,19.529 C17.863,19.523 17.863,19.517 17.863,19.511 C17.887,19.505 17.911,19.499 17.935,19.493 C17.935,19.487 17.935,19.480 17.935,19.474 C17.953,19.474 17.972,19.474 17.990,19.474 C17.990,19.468 17.990,19.462 17.990,19.456 C18.008,19.456 18.026,19.456 18.044,19.456 C18.044,19.450 18.044,19.444 18.044,19.438 C18.062,19.438 18.080,19.438 18.098,19.438 C18.098,19.432 18.098,19.426 18.098,19.420 C18.163,19.398 18.234,19.424 18.279,19.384 ZM24.652,19.384 C24.833,19.390 25.014,19.396 25.195,19.402 C25.195,19.408 25.195,19.414 25.195,19.420 C25.244,19.426 25.292,19.432 25.340,19.438 C25.340,19.444 25.340,19.450 25.340,19.456 C25.358,19.456 25.377,19.456 25.395,19.456 C25.395,19.462 25.395,19.468 25.395,19.474 C25.407,19.474 25.419,19.474 25.431,19.474 C25.431,19.480 25.431,19.487 25.431,19.493 C25.449,19.493 25.467,19.493 25.485,19.493 C25.485,19.499 25.485,19.505 25.485,19.511 C25.521,19.523 25.558,19.535 25.594,19.547 C25.594,19.553 25.594,19.559 25.594,19.565 C25.618,19.571 25.642,19.577 25.666,19.583 C25.672,19.595 25.678,19.607 25.684,19.619 C25.696,19.619 25.708,19.619 25.721,19.619 C25.727,19.631 25.733,19.644 25.739,19.656 C25.751,19.656 25.763,19.656 25.775,19.656 C25.787,19.674 25.799,19.692 25.811,19.710 C25.823,19.710 25.835,19.710 25.847,19.710 C25.871,19.740 25.896,19.770 25.920,19.801 C25.974,19.849 26.028,19.897 26.083,19.946 C26.083,19.958 26.083,19.970 26.083,19.982 C26.101,19.994 26.119,20.006 26.137,20.018 C26.137,20.030 26.137,20.042 26.137,20.054 C26.149,20.060 26.161,20.066 26.173,20.073 C26.173,20.085 26.173,20.097 26.173,20.109 C26.185,20.115 26.197,20.121 26.209,20.127 C26.215,20.151 26.221,20.175 26.227,20.199 C26.234,20.199 26.240,20.199 26.246,20.199 C26.258,20.236 26.270,20.272 26.282,20.308 C26.288,20.308 26.294,20.308 26.300,20.308 C26.300,20.326 26.300,20.344 26.300,20.362 C26.306,20.362 26.312,20.362 26.318,20.362 C26.318,20.381 26.318,20.399 26.318,20.417 C26.324,20.417 26.330,20.417 26.336,20.417 C26.336,20.435 26.336,20.453 26.336,20.471 C26.342,20.471 26.348,20.471 26.354,20.471 C26.354,20.489 26.354,20.507 26.354,20.526 C26.360,20.526 26.366,20.526 26.372,20.526 C26.372,20.550 26.372,20.574 26.372,20.598 C26.378,20.598 26.384,20.598 26.390,20.598 C26.436,20.748 26.409,21.064 26.409,21.251 C26.409,21.692 26.409,22.133 26.409,22.574 C26.409,23.733 26.409,24.894 26.409,26.053 C26.409,26.657 26.409,27.262 26.409,27.866 C26.409,28.095 26.409,28.325 26.409,28.554 C26.384,28.657 26.360,28.760 26.336,28.862 C26.330,28.862 26.324,28.862 26.318,28.862 C26.312,28.893 26.306,28.923 26.300,28.953 C26.294,28.953 26.288,28.953 26.282,28.953 C26.276,28.977 26.270,29.001 26.264,29.026 C26.258,29.026 26.252,29.026 26.246,29.026 C26.234,29.062 26.221,29.098 26.209,29.134 C26.197,29.140 26.185,29.146 26.173,29.152 C26.173,29.165 26.173,29.177 26.173,29.189 C26.167,29.189 26.161,29.189 26.155,29.189 C26.149,29.207 26.143,29.225 26.137,29.243 C26.125,29.249 26.113,29.255 26.101,29.261 C26.101,29.273 26.101,29.285 26.101,29.297 C26.065,29.328 26.028,29.358 25.992,29.388 C25.938,29.448 25.883,29.509 25.829,29.569 C25.817,29.569 25.805,29.569 25.793,29.569 C25.781,29.587 25.769,29.606 25.757,29.624 C25.745,29.624 25.733,29.624 25.721,29.624 C25.714,29.636 25.708,29.648 25.702,29.660 C25.666,29.672 25.630,29.684 25.594,29.696 C25.594,29.702 25.594,29.708 25.594,29.714 C25.582,29.714 25.570,29.714 25.558,29.714 C25.558,29.720 25.558,29.726 25.558,29.732 C25.521,29.744 25.485,29.757 25.449,29.769 C25.449,29.775 25.449,29.781 25.449,29.787 C25.431,29.787 25.413,29.787 25.395,29.787 C25.395,29.793 25.395,29.799 25.395,29.805 C25.377,29.805 25.358,29.805 25.340,29.805 C25.340,29.811 25.340,29.817 25.340,29.823 C25.322,29.823 25.304,29.823 25.286,29.823 C25.286,29.829 25.286,29.835 25.286,29.841 C25.262,29.841 25.238,29.841 25.214,29.841 C25.214,29.847 25.214,29.853 25.214,29.859 C25.117,29.865 25.020,29.871 24.924,29.877 C24.924,29.883 24.924,29.889 24.924,29.896 C24.888,29.896 24.851,29.896 24.815,29.896 C24.815,29.889 24.815,29.883 24.815,29.877 C24.755,29.877 24.695,29.877 24.634,29.877 C24.634,29.871 24.634,29.865 24.634,29.859 C24.604,29.859 24.574,29.859 24.544,29.859 C24.544,29.853 24.544,29.847 24.544,29.841 C24.520,29.841 24.495,29.841 24.471,29.841 C24.471,29.835 24.471,29.829 24.471,29.823 C24.429,29.817 24.387,29.811 24.345,29.805 C23.983,29.650 23.711,29.416 23.512,29.098 C23.494,29.044 23.476,28.989 23.457,28.935 C23.451,28.935 23.445,28.935 23.439,28.935 C23.439,28.923 23.439,28.911 23.439,28.899 C23.433,28.899 23.427,28.899 23.421,28.899 C23.421,28.881 23.421,28.862 23.421,28.844 C23.415,28.844 23.409,28.844 23.403,28.844 C23.403,28.826 23.403,28.808 23.403,28.790 C23.397,28.790 23.391,28.790 23.385,28.790 C23.385,28.766 23.385,28.742 23.385,28.717 C23.379,28.717 23.373,28.717 23.367,28.717 C23.367,28.693 23.367,28.669 23.367,28.645 C23.361,28.645 23.355,28.645 23.349,28.645 C23.343,28.446 23.337,28.246 23.331,28.047 C23.331,27.648 23.331,27.249 23.331,26.851 C23.331,25.395 23.331,23.939 23.331,22.483 C23.331,22.060 23.331,21.637 23.331,21.214 C23.331,20.957 23.317,20.663 23.385,20.471 C23.391,20.471 23.397,20.471 23.403,20.471 C23.409,20.435 23.415,20.399 23.421,20.362 C23.427,20.362 23.433,20.362 23.439,20.362 C23.445,20.338 23.451,20.314 23.457,20.290 C23.463,20.290 23.469,20.290 23.476,20.290 C23.482,20.260 23.488,20.230 23.494,20.199 C23.506,20.193 23.518,20.187 23.530,20.181 C23.536,20.157 23.542,20.133 23.548,20.109 C23.554,20.109 23.560,20.109 23.566,20.109 C23.572,20.091 23.578,20.073 23.584,20.054 C23.596,20.048 23.608,20.042 23.620,20.036 C23.620,20.024 23.620,20.012 23.620,20.000 C23.638,19.988 23.657,19.976 23.675,19.964 C23.675,19.952 23.675,19.940 23.675,19.928 C23.717,19.891 23.759,19.855 23.801,19.819 C23.826,19.789 23.850,19.758 23.874,19.728 C23.886,19.728 23.898,19.728 23.910,19.728 C23.928,19.704 23.946,19.680 23.964,19.656 C23.976,19.656 23.988,19.656 24.001,19.656 C24.007,19.644 24.013,19.631 24.019,19.619 C24.043,19.613 24.067,19.607 24.091,19.601 C24.097,19.589 24.103,19.577 24.109,19.565 C24.121,19.565 24.133,19.565 24.145,19.565 C24.145,19.559 24.145,19.553 24.145,19.547 C24.200,19.529 24.254,19.511 24.308,19.493 C24.308,19.487 24.308,19.480 24.308,19.474 C24.326,19.474 24.345,19.474 24.363,19.474 C24.363,19.468 24.363,19.462 24.363,19.456 C24.381,19.456 24.399,19.456 24.417,19.456 C24.417,19.450 24.417,19.444 24.417,19.438 C24.435,19.438 24.453,19.438 24.471,19.438 C24.471,19.432 24.471,19.426 24.471,19.420 C24.528,19.400 24.612,19.419 24.652,19.384 Z"/>
</svg>