<svg 
 xmlns="http://www.w3.org/2000/svg"
 xmlns:xlink="http://www.w3.org/1999/xlink"
 width="39px" height="39px">
<path fill-rule="evenodd"  fill="rgb(49, 49, 49)"
 d="M1.455,0.007 C3.540,0.007 5.627,0.007 7.712,0.007 C8.208,0.007 8.704,0.007 9.200,0.007 C9.387,0.007 9.638,-0.018 9.792,0.026 C9.836,0.026 9.881,0.026 9.925,0.026 C9.925,0.032 9.925,0.038 9.925,0.045 C9.951,0.045 9.976,0.045 10.001,0.045 C10.001,0.051 10.001,0.057 10.001,0.064 C10.027,0.064 10.052,0.064 10.078,0.064 C10.078,0.070 10.078,0.077 10.078,0.083 C10.097,0.083 10.116,0.083 10.135,0.083 C10.135,0.089 10.135,0.096 10.135,0.102 C10.154,0.102 10.173,0.102 10.192,0.102 C10.192,0.108 10.192,0.115 10.192,0.121 C10.211,0.121 10.230,0.121 10.249,0.121 C10.249,0.127 10.249,0.134 10.249,0.140 C10.288,0.153 10.326,0.166 10.364,0.178 C10.364,0.185 10.364,0.191 10.364,0.197 C10.389,0.204 10.415,0.210 10.440,0.216 C10.447,0.229 10.453,0.242 10.459,0.255 C10.485,0.261 10.510,0.267 10.536,0.274 C10.542,0.286 10.548,0.299 10.555,0.312 C10.574,0.318 10.593,0.325 10.612,0.331 C10.631,0.356 10.650,0.382 10.669,0.407 C10.682,0.407 10.695,0.407 10.707,0.407 C10.739,0.445 10.771,0.484 10.803,0.522 C10.815,0.528 10.828,0.534 10.841,0.541 C10.841,0.554 10.841,0.566 10.841,0.579 C10.866,0.598 10.892,0.617 10.917,0.636 C10.917,0.649 10.917,0.662 10.917,0.674 C10.936,0.687 10.955,0.700 10.974,0.713 C10.974,0.725 10.974,0.738 10.974,0.751 C10.987,0.757 11.000,0.763 11.013,0.770 C11.019,0.795 11.025,0.821 11.032,0.846 C11.038,0.846 11.044,0.846 11.051,0.846 C11.051,0.859 11.051,0.872 11.051,0.884 C11.057,0.884 11.063,0.884 11.070,0.884 C11.082,0.922 11.095,0.961 11.108,0.999 C11.114,0.999 11.121,0.999 11.127,0.999 C11.127,1.018 11.127,1.037 11.127,1.056 C11.133,1.056 11.140,1.056 11.146,1.056 C11.146,1.069 11.146,1.081 11.146,1.094 C11.152,1.094 11.159,1.094 11.165,1.094 C11.165,1.120 11.165,1.145 11.165,1.170 C11.172,1.170 11.178,1.170 11.184,1.170 C11.184,1.190 11.184,1.209 11.184,1.228 C11.191,1.228 11.197,1.228 11.203,1.228 C11.203,1.253 11.203,1.279 11.203,1.304 C11.210,1.304 11.216,1.304 11.222,1.304 C11.222,1.342 11.222,1.380 11.222,1.418 C11.278,1.611 11.241,1.969 11.241,2.201 C11.241,2.830 11.241,3.460 11.241,4.090 C11.241,7.492 11.241,10.895 11.241,14.297 C11.261,14.304 11.280,14.310 11.299,14.317 C11.305,14.329 11.311,14.342 11.318,14.355 C11.330,14.355 11.343,14.355 11.356,14.355 C11.362,14.367 11.369,14.380 11.375,14.393 C11.400,14.399 11.426,14.406 11.451,14.412 C11.451,14.418 11.451,14.425 11.451,14.431 C11.470,14.437 11.489,14.444 11.509,14.450 C11.515,14.463 11.521,14.476 11.528,14.488 C11.540,14.488 11.553,14.488 11.566,14.488 C11.572,14.501 11.579,14.514 11.585,14.526 C11.598,14.526 11.610,14.526 11.623,14.526 C11.629,14.539 11.636,14.552 11.642,14.565 C11.661,14.571 11.680,14.577 11.699,14.584 C11.699,14.590 11.699,14.596 11.699,14.603 C11.725,14.609 11.750,14.615 11.776,14.622 C11.782,14.635 11.788,14.647 11.795,14.660 C11.807,14.660 11.820,14.660 11.833,14.660 C11.839,14.673 11.846,14.685 11.852,14.698 C11.865,14.698 11.877,14.698 11.890,14.698 C11.896,14.711 11.903,14.724 11.909,14.736 C11.922,14.736 11.935,14.736 11.947,14.736 C11.954,14.749 11.960,14.762 11.966,14.774 C11.992,14.781 12.017,14.787 12.043,14.794 C12.049,14.806 12.055,14.819 12.062,14.832 C12.075,14.832 12.087,14.832 12.100,14.832 C12.106,14.844 12.113,14.857 12.119,14.870 C12.132,14.870 12.144,14.870 12.157,14.870 C12.164,14.883 12.170,14.895 12.176,14.908 C12.189,14.908 12.202,14.908 12.214,14.908 C12.221,14.921 12.227,14.933 12.234,14.946 C12.259,14.952 12.284,14.959 12.310,14.965 C12.316,14.978 12.323,14.991 12.329,15.003 C12.342,15.003 12.354,15.003 12.367,15.003 C12.373,15.016 12.380,15.029 12.386,15.042 C12.399,15.042 12.412,15.042 12.424,15.042 C12.431,15.054 12.437,15.067 12.443,15.080 C12.456,15.080 12.469,15.080 12.482,15.080 C12.488,15.092 12.494,15.105 12.501,15.118 C12.526,15.124 12.551,15.131 12.577,15.137 C12.583,15.150 12.590,15.162 12.596,15.175 C12.609,15.175 12.621,15.175 12.634,15.175 C12.634,15.181 12.634,15.188 12.634,15.194 C12.653,15.201 12.672,15.207 12.691,15.213 C12.698,15.226 12.704,15.239 12.710,15.251 C12.723,15.251 12.736,15.251 12.749,15.251 C12.755,15.264 12.761,15.277 12.768,15.290 C12.787,15.296 12.806,15.302 12.825,15.309 C12.825,15.315 12.825,15.321 12.825,15.328 C12.850,15.334 12.876,15.340 12.901,15.347 C12.908,15.360 12.914,15.372 12.920,15.385 C12.933,15.385 12.946,15.385 12.958,15.385 C12.965,15.398 12.971,15.410 12.978,15.423 C12.990,15.423 13.003,15.423 13.016,15.423 C13.022,15.436 13.028,15.449 13.035,15.461 C13.047,15.461 13.060,15.461 13.073,15.461 C13.079,15.474 13.086,15.487 13.092,15.499 C13.117,15.506 13.143,15.512 13.168,15.519 C13.175,15.531 13.181,15.544 13.187,15.557 C13.200,15.557 13.213,15.557 13.226,15.557 C13.232,15.569 13.238,15.582 13.245,15.595 C13.257,15.595 13.270,15.595 13.283,15.595 C13.289,15.608 13.295,15.620 13.302,15.633 C13.315,15.633 13.327,15.633 13.340,15.633 C13.346,15.646 13.353,15.658 13.359,15.671 C13.385,15.678 13.410,15.684 13.435,15.690 C13.442,15.703 13.448,15.716 13.454,15.728 C13.467,15.728 13.480,15.728 13.493,15.728 C13.499,15.741 13.505,15.754 13.512,15.767 C13.524,15.767 13.537,15.767 13.550,15.767 C13.556,15.779 13.563,15.792 13.569,15.805 C13.582,15.805 13.594,15.805 13.607,15.805 C13.613,15.817 13.620,15.830 13.626,15.843 C13.652,15.849 13.677,15.856 13.702,15.862 C13.709,15.875 13.715,15.887 13.722,15.900 C13.734,15.900 13.747,15.900 13.760,15.900 C13.760,15.906 13.760,15.913 13.760,15.919 C13.779,15.926 13.798,15.932 13.817,15.938 C13.823,15.951 13.830,15.964 13.836,15.976 C13.849,15.976 13.861,15.976 13.874,15.976 C13.881,15.989 13.887,16.002 13.893,16.015 C13.912,16.021 13.931,16.027 13.950,16.034 C13.950,16.040 13.950,16.046 13.950,16.053 C13.976,16.059 14.001,16.065 14.027,16.072 C14.033,16.085 14.040,16.097 14.046,16.110 C14.059,16.110 14.071,16.110 14.084,16.110 C14.090,16.123 14.097,16.135 14.103,16.148 C14.116,16.148 14.129,16.148 14.141,16.148 C14.148,16.161 14.154,16.174 14.160,16.186 C14.173,16.186 14.186,16.186 14.198,16.186 C14.205,16.199 14.211,16.212 14.218,16.224 C14.243,16.231 14.268,16.237 14.294,16.244 C14.294,16.250 14.294,16.256 14.294,16.263 C14.313,16.269 14.332,16.275 14.351,16.282 C14.357,16.294 14.364,16.307 14.370,16.320 C14.383,16.320 14.396,16.320 14.408,16.320 C14.415,16.333 14.421,16.345 14.427,16.358 C14.447,16.364 14.466,16.371 14.485,16.377 C14.485,16.383 14.485,16.390 14.485,16.396 C14.510,16.403 14.536,16.409 14.561,16.415 C14.567,16.428 14.574,16.441 14.580,16.453 C14.593,16.453 14.605,16.453 14.618,16.453 C14.618,16.460 14.618,16.466 14.618,16.473 C14.637,16.479 14.656,16.485 14.675,16.492 C14.682,16.504 14.688,16.517 14.695,16.530 C14.707,16.530 14.720,16.530 14.733,16.530 C14.739,16.542 14.745,16.555 14.752,16.568 C14.771,16.574 14.790,16.581 14.809,16.587 C14.809,16.593 14.809,16.600 14.809,16.606 C14.834,16.612 14.860,16.619 14.885,16.625 C14.892,16.638 14.898,16.651 14.904,16.663 C14.917,16.663 14.930,16.663 14.943,16.663 C14.949,16.676 14.955,16.689 14.962,16.701 C14.974,16.701 14.987,16.701 15.000,16.701 C15.006,16.714 15.012,16.727 15.019,16.740 C15.032,16.740 15.044,16.740 15.057,16.740 C15.063,16.752 15.070,16.765 15.076,16.778 C15.101,16.784 15.127,16.791 15.152,16.797 C15.152,16.803 15.152,16.810 15.152,16.816 C15.171,16.822 15.191,16.829 15.210,16.835 C15.216,16.848 15.222,16.860 15.229,16.873 C15.241,16.873 15.254,16.873 15.267,16.873 C15.273,16.886 15.280,16.899 15.286,16.911 C15.305,16.918 15.324,16.924 15.343,16.930 C15.343,16.937 15.343,16.943 15.343,16.950 C15.369,16.956 15.394,16.962 15.419,16.969 C15.426,16.981 15.432,16.994 15.439,17.007 C15.451,17.007 15.464,17.007 15.477,17.007 C15.483,17.019 15.489,17.032 15.496,17.045 C15.508,17.045 15.521,17.045 15.534,17.045 C15.540,17.058 15.547,17.070 15.553,17.083 C15.566,17.083 15.578,17.083 15.591,17.083 C15.598,17.096 15.604,17.109 15.610,17.121 C15.636,17.128 15.661,17.134 15.687,17.140 C15.693,17.153 15.699,17.166 15.706,17.178 C15.718,17.178 15.731,17.178 15.744,17.178 C15.744,17.185 15.744,17.191 15.744,17.198 C15.763,17.204 15.782,17.210 15.801,17.217 C15.807,17.229 15.814,17.242 15.820,17.255 C15.833,17.255 15.846,17.255 15.858,17.255 C15.865,17.268 15.871,17.280 15.877,17.293 C15.896,17.299 15.915,17.306 15.935,17.312 C15.935,17.318 15.935,17.325 15.935,17.331 C15.960,17.337 15.985,17.344 16.011,17.350 C16.011,17.357 16.011,17.363 16.011,17.369 C16.030,17.376 16.049,17.382 16.068,17.388 C16.074,17.401 16.081,17.414 16.087,17.427 C16.100,17.427 16.113,17.427 16.125,17.427 C16.132,17.439 16.138,17.452 16.144,17.465 C16.163,17.471 16.183,17.477 16.202,17.484 C16.202,17.490 16.202,17.496 16.202,17.503 C16.227,17.509 16.253,17.516 16.278,17.522 C16.284,17.535 16.291,17.547 16.297,17.560 C16.310,17.560 16.322,17.560 16.335,17.560 C16.342,17.573 16.348,17.586 16.354,17.598 C16.367,17.598 16.380,17.598 16.392,17.598 C16.399,17.611 16.405,17.624 16.411,17.636 C16.424,17.636 16.437,17.636 16.450,17.636 C16.456,17.649 16.462,17.662 16.469,17.675 C16.494,17.681 16.520,17.687 16.545,17.694 C16.551,17.706 16.558,17.719 16.564,17.732 C16.577,17.732 16.590,17.732 16.602,17.732 C16.602,17.738 16.602,17.745 16.602,17.751 C16.621,17.757 16.640,17.764 16.660,17.770 C16.666,17.783 16.672,17.795 16.679,17.808 C16.691,17.808 16.704,17.808 16.717,17.808 C16.723,17.821 16.729,17.834 16.736,17.846 C16.755,17.853 16.774,17.859 16.793,17.865 C16.793,17.872 16.793,17.878 16.793,17.884 C16.818,17.891 16.844,17.897 16.869,17.904 C16.876,17.916 16.882,17.929 16.888,17.942 C16.901,17.942 16.914,17.942 16.927,17.942 C16.933,17.954 16.939,17.967 16.946,17.980 C16.958,17.980 16.971,17.980 16.984,17.980 C16.990,17.993 16.997,18.005 17.003,18.018 C17.016,18.018 17.028,18.018 17.041,18.018 C17.047,18.031 17.054,18.043 17.060,18.056 C17.086,18.063 17.111,18.069 17.136,18.075 C17.143,18.088 17.149,18.101 17.156,18.113 C17.168,18.113 17.181,18.113 17.194,18.113 C17.200,18.126 17.206,18.139 17.213,18.152 C17.225,18.152 17.238,18.152 17.251,18.152 C17.257,18.164 17.264,18.177 17.270,18.190 C17.283,18.190 17.295,18.190 17.308,18.190 C17.315,18.202 17.321,18.215 17.327,18.228 C17.353,18.234 17.378,18.241 17.404,18.247 C17.410,18.260 17.416,18.272 17.423,18.285 C17.435,18.285 17.448,18.285 17.461,18.285 C17.467,18.298 17.473,18.311 17.480,18.323 C17.493,18.323 17.505,18.323 17.518,18.323 C17.524,18.336 17.531,18.349 17.537,18.361 C17.550,18.361 17.563,18.361 17.575,18.361 C17.582,18.374 17.588,18.387 17.594,18.400 C17.620,18.406 17.645,18.412 17.671,18.419 C17.677,18.431 17.683,18.444 17.690,18.457 C17.702,18.457 17.715,18.457 17.728,18.457 C17.728,18.463 17.728,18.470 17.728,18.476 C17.747,18.482 17.766,18.489 17.785,18.495 C17.791,18.508 17.798,18.520 17.804,18.533 C17.817,18.533 17.830,18.533 17.842,18.533 C17.849,18.546 17.855,18.559 17.861,18.571 C17.880,18.578 17.900,18.584 17.919,18.590 C17.919,18.597 17.919,18.603 17.919,18.609 C17.944,18.616 17.970,18.622 17.995,18.629 C18.001,18.641 18.008,18.654 18.014,18.667 C18.027,18.667 18.039,18.667 18.052,18.667 C18.059,18.679 18.065,18.692 18.071,18.705 C18.084,18.705 18.097,18.705 18.109,18.705 C18.116,18.718 18.122,18.730 18.128,18.743 C18.141,18.743 18.154,18.743 18.167,18.743 C18.173,18.756 18.179,18.768 18.186,18.781 C18.211,18.788 18.237,18.794 18.262,18.800 C18.268,18.813 18.275,18.826 18.281,18.838 C18.294,18.838 18.307,18.838 18.319,18.838 C18.326,18.851 18.332,18.864 18.338,18.877 C18.351,18.877 18.364,18.877 18.376,18.877 C18.383,18.889 18.389,18.902 18.396,18.915 C18.408,18.915 18.421,18.915 18.434,18.915 C18.440,18.927 18.446,18.940 18.453,18.953 C18.478,18.959 18.504,18.966 18.529,18.972 C18.535,18.985 18.542,18.997 18.548,19.010 C18.561,19.010 18.574,19.010 18.586,19.010 C18.593,19.023 18.599,19.036 18.605,19.048 C18.618,19.048 18.631,19.048 18.644,19.048 C18.650,19.061 18.656,19.074 18.663,19.086 C18.675,19.086 18.688,19.086 18.701,19.086 C18.707,19.099 18.714,19.112 18.720,19.125 C18.745,19.131 18.771,19.137 18.796,19.144 C18.803,19.156 18.809,19.169 18.815,19.182 C18.828,19.182 18.841,19.182 18.853,19.182 C18.853,19.188 18.853,19.195 18.853,19.201 C18.873,19.207 18.892,19.214 18.911,19.220 C18.917,19.233 18.923,19.245 18.930,19.258 C18.942,19.258 18.955,19.258 18.968,19.258 C18.974,19.271 18.981,19.284 18.987,19.296 C19.006,19.303 19.025,19.309 19.044,19.315 C19.044,19.322 19.044,19.328 19.044,19.335 C19.070,19.341 19.095,19.347 19.121,19.354 C19.127,19.366 19.133,19.379 19.140,19.392 C19.152,19.392 19.165,19.392 19.178,19.392 C19.184,19.404 19.190,19.417 19.197,19.430 C19.210,19.430 19.222,19.430 19.235,19.430 C19.241,19.443 19.248,19.455 19.254,19.468 C19.267,19.468 19.279,19.468 19.292,19.468 C19.299,19.481 19.305,19.494 19.311,19.506 C19.337,19.513 19.362,19.519 19.388,19.525 C19.394,19.538 19.400,19.551 19.407,19.563 C19.419,19.563 19.432,19.563 19.445,19.563 C19.451,19.576 19.458,19.589 19.464,19.602 C19.477,19.602 19.489,19.602 19.502,19.602 C19.508,19.614 19.515,19.627 19.521,19.640 C19.534,19.640 19.547,19.640 19.559,19.640 C19.566,19.653 19.572,19.665 19.578,19.678 C19.604,19.684 19.629,19.691 19.655,19.697 C19.661,19.710 19.667,19.722 19.674,19.735 C19.686,19.735 19.699,19.735 19.712,19.735 C19.712,19.742 19.712,19.748 19.712,19.754 C19.731,19.761 19.750,19.767 19.769,19.773 C19.776,19.786 19.782,19.799 19.788,19.812 C19.801,19.812 19.814,19.812 19.826,19.812 C19.833,19.824 19.839,19.837 19.845,19.850 C19.865,19.856 19.884,19.862 19.903,19.869 C19.903,19.875 19.903,19.881 19.903,19.888 C19.928,19.894 19.954,19.901 19.979,19.907 C19.985,19.920 19.992,19.932 19.998,19.945 C20.011,19.945 20.024,19.945 20.036,19.945 C20.043,19.958 20.049,19.971 20.055,19.983 C20.068,19.983 20.081,19.983 20.093,19.983 C20.100,19.996 20.106,20.009 20.113,20.021 C20.125,20.021 20.138,20.021 20.151,20.021 C20.157,20.034 20.163,20.047 20.170,20.060 C20.195,20.066 20.221,20.072 20.246,20.079 C20.252,20.091 20.259,20.104 20.265,20.117 C20.278,20.117 20.291,20.117 20.303,20.117 C20.310,20.130 20.316,20.142 20.322,20.155 C20.335,20.155 20.348,20.155 20.361,20.155 C20.367,20.168 20.373,20.180 20.380,20.193 C20.392,20.193 20.405,20.193 20.418,20.193 C20.424,20.206 20.431,20.219 20.437,20.231 C20.462,20.238 20.488,20.244 20.513,20.250 C20.520,20.263 20.526,20.276 20.532,20.289 C20.545,20.289 20.558,20.289 20.570,20.289 C20.577,20.301 20.583,20.314 20.589,20.327 C20.602,20.327 20.615,20.327 20.628,20.327 C20.634,20.339 20.640,20.352 20.647,20.365 C20.659,20.365 20.672,20.365 20.685,20.365 C20.691,20.378 20.698,20.390 20.704,20.403 C20.729,20.409 20.755,20.416 20.780,20.422 C20.787,20.435 20.793,20.448 20.799,20.460 C20.812,20.460 20.825,20.460 20.837,20.460 C20.844,20.473 20.850,20.486 20.857,20.498 C20.869,20.498 20.882,20.498 20.895,20.498 C20.901,20.511 20.907,20.524 20.914,20.537 C20.927,20.537 20.939,20.537 20.952,20.537 C20.958,20.549 20.965,20.562 20.971,20.575 C20.990,20.581 21.009,20.587 21.028,20.594 C21.028,20.600 21.028,20.607 21.028,20.613 C21.054,20.619 21.079,20.626 21.105,20.632 C21.105,20.638 21.105,20.645 21.105,20.651 C21.124,20.657 21.143,20.664 21.162,20.670 C21.168,20.683 21.175,20.696 21.181,20.708 C21.194,20.708 21.206,20.708 21.219,20.708 C21.225,20.721 21.232,20.734 21.238,20.746 C21.257,20.753 21.276,20.759 21.295,20.766 C21.295,20.772 21.295,20.778 21.295,20.785 C21.321,20.791 21.346,20.797 21.372,20.804 C21.378,20.816 21.384,20.829 21.391,20.842 C21.403,20.842 21.416,20.842 21.429,20.842 C21.435,20.855 21.442,20.867 21.448,20.880 C21.461,20.880 21.473,20.880 21.486,20.880 C21.492,20.893 21.499,20.905 21.505,20.918 C21.518,20.918 21.531,20.918 21.543,20.918 C21.550,20.931 21.556,20.944 21.562,20.956 C21.588,20.963 21.613,20.969 21.639,20.975 C21.645,20.988 21.651,21.001 21.658,21.014 C21.671,21.014 21.683,21.014 21.696,21.014 C21.702,21.026 21.709,21.039 21.715,21.052 C21.728,21.052 21.741,21.052 21.753,21.052 C21.760,21.064 21.766,21.077 21.772,21.090 C21.785,21.090 21.798,21.090 21.810,21.090 C21.822,21.098 21.826,21.115 21.849,21.128 C21.849,19.093 21.849,17.057 21.849,15.022 C21.889,14.975 21.864,14.863 21.887,14.794 C21.893,14.794 21.899,14.794 21.906,14.794 C21.912,14.743 21.919,14.692 21.925,14.641 C21.931,14.641 21.938,14.641 21.944,14.641 C21.944,14.622 21.944,14.603 21.944,14.584 C21.950,14.584 21.957,14.584 21.963,14.584 C21.963,14.571 21.963,14.558 21.963,14.545 C21.969,14.545 21.976,14.545 21.982,14.545 C21.982,14.526 21.982,14.507 21.982,14.488 C21.989,14.488 21.995,14.488 22.001,14.488 C22.014,14.450 22.027,14.412 22.039,14.374 C22.046,14.374 22.052,14.374 22.058,14.374 C22.065,14.348 22.071,14.323 22.078,14.297 C22.090,14.291 22.103,14.285 22.116,14.278 C22.116,14.266 22.116,14.253 22.116,14.240 C22.128,14.234 22.141,14.227 22.154,14.221 C22.154,14.208 22.154,14.196 22.154,14.183 C22.173,14.170 22.192,14.158 22.211,14.145 C22.211,14.132 22.211,14.119 22.211,14.107 C22.237,14.088 22.262,14.068 22.287,14.049 C22.326,14.005 22.364,13.960 22.402,13.916 C22.415,13.916 22.427,13.916 22.440,13.916 C22.453,13.897 22.465,13.878 22.478,13.859 C22.491,13.859 22.504,13.859 22.516,13.859 C22.523,13.846 22.529,13.833 22.535,13.820 C22.548,13.820 22.561,13.820 22.574,13.820 C22.580,13.808 22.586,13.795 22.593,13.782 C22.618,13.776 22.644,13.770 22.669,13.763 C22.669,13.757 22.669,13.750 22.669,13.744 C22.682,13.744 22.694,13.744 22.707,13.744 C22.707,13.738 22.707,13.731 22.707,13.725 C22.745,13.712 22.783,13.700 22.822,13.687 C22.822,13.681 22.822,13.674 22.822,13.668 C22.841,13.668 22.860,13.668 22.879,13.668 C22.879,13.661 22.879,13.655 22.879,13.649 C22.898,13.649 22.917,13.649 22.936,13.649 C22.936,13.642 22.936,13.636 22.936,13.630 C22.955,13.630 22.974,13.630 22.993,13.630 C22.993,13.623 22.993,13.617 22.993,13.611 C23.019,13.611 23.044,13.611 23.070,13.611 C23.070,13.604 23.070,13.598 23.070,13.591 C23.095,13.591 23.120,13.591 23.146,13.591 C23.146,13.585 23.146,13.579 23.146,13.572 C23.190,13.572 23.235,13.572 23.279,13.572 C23.279,13.566 23.279,13.560 23.279,13.553 C23.393,13.521 23.811,13.565 23.890,13.591 C23.890,13.598 23.890,13.604 23.890,13.611 C23.915,13.611 23.941,13.611 23.966,13.611 C23.966,13.617 23.966,13.623 23.966,13.630 C24.004,13.636 24.043,13.642 24.081,13.649 C24.081,13.655 24.081,13.661 24.081,13.668 C24.093,13.668 24.106,13.668 24.119,13.668 C24.119,13.674 24.119,13.681 24.119,13.687 C24.151,13.693 24.182,13.700 24.214,13.706 C24.221,13.719 24.227,13.731 24.233,13.744 C24.259,13.750 24.284,13.757 24.310,13.763 C24.316,13.776 24.322,13.789 24.329,13.801 C24.341,13.801 24.354,13.801 24.367,13.801 C24.373,13.814 24.380,13.827 24.386,13.840 C24.399,13.840 24.411,13.840 24.424,13.840 C24.430,13.852 24.437,13.865 24.443,13.878 C24.469,13.884 24.494,13.890 24.519,13.897 C24.519,13.903 24.519,13.909 24.519,13.916 C24.539,13.922 24.558,13.929 24.577,13.935 C24.583,13.948 24.589,13.960 24.596,13.973 C24.609,13.973 24.621,13.973 24.634,13.973 C24.640,13.986 24.647,13.999 24.653,14.011 C24.666,14.011 24.678,14.011 24.691,14.011 C24.698,14.024 24.704,14.037 24.710,14.049 C24.729,14.056 24.748,14.062 24.767,14.068 C24.767,14.075 24.767,14.081 24.767,14.088 C24.793,14.094 24.818,14.100 24.844,14.107 C24.850,14.119 24.857,14.132 24.863,14.145 C24.876,14.145 24.888,14.145 24.901,14.145 C24.907,14.158 24.914,14.170 24.920,14.183 C24.933,14.183 24.946,14.183 24.958,14.183 C24.965,14.196 24.971,14.208 24.977,14.221 C24.990,14.221 25.003,14.221 25.015,14.221 C25.022,14.234 25.028,14.247 25.035,14.259 C25.060,14.266 25.085,14.272 25.111,14.278 C25.117,14.291 25.124,14.304 25.130,14.317 C25.143,14.317 25.155,14.317 25.168,14.317 C25.174,14.329 25.181,14.342 25.187,14.355 C25.200,14.355 25.213,14.355 25.225,14.355 C25.232,14.367 25.238,14.380 25.244,14.393 C25.257,14.393 25.270,14.393 25.283,14.393 C25.289,14.406 25.295,14.418 25.302,14.431 C25.327,14.437 25.353,14.444 25.378,14.450 C25.378,14.456 25.378,14.463 25.378,14.469 C25.397,14.476 25.416,14.482 25.435,14.488 C25.442,14.501 25.448,14.514 25.454,14.526 C25.467,14.526 25.480,14.526 25.492,14.526 C25.499,14.539 25.505,14.552 25.512,14.565 C25.531,14.571 25.550,14.577 25.569,14.584 C25.569,14.590 25.569,14.596 25.569,14.603 C25.594,14.609 25.620,14.615 25.645,14.622 C25.651,14.635 25.658,14.647 25.664,14.660 C25.677,14.660 25.690,14.660 25.702,14.660 C25.709,14.673 25.715,14.685 25.721,14.698 C25.734,14.698 25.747,14.698 25.760,14.698 C25.766,14.711 25.772,14.724 25.779,14.736 C25.791,14.736 25.804,14.736 25.817,14.736 C25.823,14.749 25.829,14.762 25.836,14.774 C25.861,14.781 25.887,14.787 25.912,14.794 C25.918,14.806 25.925,14.819 25.931,14.832 C25.944,14.832 25.957,14.832 25.969,14.832 C25.969,14.838 25.969,14.844 25.969,14.851 C25.988,14.857 26.008,14.863 26.027,14.870 C26.033,14.883 26.039,14.895 26.046,14.908 C26.058,14.908 26.071,14.908 26.084,14.908 C26.090,14.921 26.097,14.933 26.103,14.946 C26.122,14.952 26.141,14.959 26.160,14.965 C26.160,14.972 26.160,14.978 26.160,14.984 C26.186,14.991 26.211,14.997 26.236,15.003 C26.243,15.016 26.249,15.029 26.256,15.042 C26.268,15.042 26.281,15.042 26.294,15.042 C26.300,15.054 26.306,15.067 26.313,15.080 C26.325,15.080 26.338,15.080 26.351,15.080 C26.357,15.092 26.364,15.105 26.370,15.118 C26.383,15.118 26.395,15.118 26.408,15.118 C26.415,15.131 26.421,15.143 26.427,15.156 C26.453,15.162 26.478,15.169 26.504,15.175 C26.510,15.188 26.516,15.201 26.523,15.213 C26.535,15.213 26.548,15.213 26.561,15.213 C26.567,15.226 26.573,15.239 26.580,15.251 C26.593,15.251 26.605,15.251 26.618,15.251 C26.624,15.264 26.631,15.277 26.637,15.290 C26.650,15.290 26.663,15.290 26.675,15.290 C26.682,15.302 26.688,15.315 26.694,15.328 C26.720,15.334 26.745,15.340 26.771,15.347 C26.777,15.360 26.783,15.372 26.790,15.385 C26.802,15.385 26.815,15.385 26.828,15.385 C26.834,15.398 26.841,15.410 26.847,15.423 C26.860,15.423 26.872,15.423 26.885,15.423 C26.891,15.436 26.898,15.449 26.904,15.461 C26.917,15.461 26.930,15.461 26.942,15.461 C26.949,15.474 26.955,15.487 26.961,15.499 C26.987,15.506 27.012,15.512 27.038,15.519 C27.044,15.531 27.050,15.544 27.057,15.557 C27.070,15.557 27.082,15.557 27.095,15.557 C27.095,15.563 27.095,15.569 27.095,15.576 C27.114,15.582 27.133,15.588 27.152,15.595 C27.159,15.608 27.165,15.620 27.171,15.633 C27.184,15.633 27.197,15.633 27.209,15.633 C27.216,15.646 27.222,15.658 27.228,15.671 C27.248,15.678 27.267,15.684 27.286,15.690 C27.286,15.697 27.286,15.703 27.286,15.709 C27.311,15.716 27.337,15.722 27.362,15.728 C27.368,15.741 27.375,15.754 27.381,15.767 C27.394,15.767 27.407,15.767 27.419,15.767 C27.426,15.779 27.432,15.792 27.438,15.805 C27.451,15.805 27.464,15.805 27.476,15.805 C27.483,15.817 27.489,15.830 27.496,15.843 C27.508,15.843 27.521,15.843 27.534,15.843 C27.540,15.856 27.546,15.868 27.553,15.881 C27.578,15.887 27.604,15.894 27.629,15.900 C27.635,15.913 27.642,15.926 27.648,15.938 C27.661,15.938 27.674,15.938 27.686,15.938 C27.693,15.951 27.699,15.964 27.705,15.976 C27.718,15.976 27.731,15.976 27.744,15.976 C27.750,15.989 27.756,16.002 27.763,16.015 C27.775,16.015 27.788,16.015 27.801,16.015 C27.807,16.027 27.814,16.040 27.820,16.053 C27.845,16.059 27.871,16.065 27.896,16.072 C27.903,16.085 27.909,16.097 27.915,16.110 C27.928,16.110 27.941,16.110 27.953,16.110 C27.960,16.123 27.966,16.135 27.973,16.148 C27.985,16.148 27.998,16.148 28.011,16.148 C28.017,16.161 28.023,16.174 28.030,16.186 C28.042,16.186 28.055,16.186 28.068,16.186 C28.074,16.199 28.081,16.212 28.087,16.224 C28.112,16.231 28.138,16.237 28.163,16.244 C28.170,16.256 28.176,16.269 28.182,16.282 C28.195,16.282 28.208,16.282 28.221,16.282 C28.227,16.294 28.233,16.307 28.240,16.320 C28.252,16.320 28.265,16.320 28.278,16.320 C28.284,16.333 28.290,16.345 28.297,16.358 C28.310,16.358 28.322,16.358 28.335,16.358 C28.341,16.371 28.348,16.383 28.354,16.396 C28.380,16.403 28.405,16.409 28.430,16.415 C28.437,16.428 28.443,16.441 28.449,16.453 C28.462,16.453 28.475,16.453 28.488,16.453 C28.488,16.460 28.488,16.466 28.488,16.473 C28.507,16.479 28.526,16.485 28.545,16.492 C28.551,16.504 28.558,16.517 28.564,16.530 C28.577,16.530 28.589,16.530 28.602,16.530 C28.608,16.542 28.615,16.555 28.621,16.568 C28.640,16.574 28.659,16.581 28.678,16.587 C28.678,16.593 28.678,16.600 28.678,16.606 C28.704,16.612 28.729,16.619 28.755,16.625 C28.761,16.638 28.767,16.651 28.774,16.663 C28.786,16.663 28.799,16.663 28.812,16.663 C28.818,16.676 28.825,16.689 28.831,16.701 C28.844,16.701 28.856,16.701 28.869,16.701 C28.876,16.714 28.882,16.727 28.888,16.740 C28.901,16.740 28.914,16.740 28.926,16.740 C28.933,16.752 28.939,16.765 28.945,16.778 C28.971,16.784 28.996,16.791 29.022,16.797 C29.028,16.810 29.035,16.822 29.041,16.835 C29.054,16.835 29.066,16.835 29.079,16.835 C29.085,16.848 29.092,16.860 29.098,16.873 C29.111,16.873 29.124,16.873 29.136,16.873 C29.143,16.886 29.149,16.899 29.155,16.911 C29.168,16.911 29.181,16.911 29.193,16.911 C29.200,16.924 29.206,16.937 29.213,16.950 C29.238,16.956 29.263,16.962 29.289,16.969 C29.295,16.981 29.302,16.994 29.308,17.007 C29.321,17.007 29.333,17.007 29.346,17.007 C29.352,17.019 29.359,17.032 29.365,17.045 C29.378,17.045 29.391,17.045 29.403,17.045 C29.410,17.058 29.416,17.070 29.422,17.083 C29.435,17.083 29.448,17.083 29.461,17.083 C29.467,17.096 29.473,17.109 29.480,17.121 C29.505,17.128 29.531,17.134 29.556,17.140 C29.562,17.153 29.569,17.166 29.575,17.178 C29.588,17.178 29.600,17.178 29.613,17.178 C29.613,17.185 29.613,17.191 29.613,17.198 C29.632,17.204 29.651,17.210 29.670,17.217 C29.677,17.229 29.683,17.242 29.689,17.255 C29.702,17.255 29.715,17.255 29.728,17.255 C29.734,17.268 29.740,17.280 29.747,17.293 C29.766,17.299 29.785,17.306 29.804,17.312 C29.804,17.318 29.804,17.325 29.804,17.331 C29.829,17.337 29.855,17.344 29.880,17.350 C29.887,17.363 29.893,17.376 29.899,17.388 C29.912,17.388 29.925,17.388 29.938,17.388 C29.944,17.401 29.950,17.414 29.957,17.427 C29.969,17.427 29.982,17.427 29.995,17.427 C30.001,17.439 30.007,17.452 30.014,17.465 C30.027,17.465 30.039,17.465 30.052,17.465 C30.058,17.477 30.065,17.490 30.071,17.503 C30.096,17.509 30.122,17.516 30.147,17.522 C30.154,17.535 30.160,17.547 30.166,17.560 C30.179,17.560 30.192,17.560 30.205,17.560 C30.211,17.573 30.217,17.586 30.224,17.598 C30.236,17.598 30.249,17.598 30.262,17.598 C30.268,17.611 30.275,17.624 30.281,17.636 C30.294,17.636 30.306,17.636 30.319,17.636 C30.325,17.649 30.332,17.662 30.338,17.675 C30.364,17.681 30.389,17.687 30.414,17.694 C30.421,17.706 30.427,17.719 30.434,17.732 C30.446,17.732 30.459,17.732 30.472,17.732 C30.478,17.745 30.484,17.757 30.491,17.770 C30.503,17.770 30.516,17.770 30.529,17.770 C30.535,17.783 30.542,17.795 30.548,17.808 C30.561,17.808 30.573,17.808 30.586,17.808 C30.593,17.821 30.599,17.834 30.605,17.846 C30.631,17.853 30.656,17.859 30.682,17.865 C30.688,17.878 30.694,17.891 30.701,17.904 C30.713,17.904 30.726,17.904 30.739,17.904 C30.745,17.916 30.751,17.929 30.758,17.942 C30.771,17.942 30.783,17.942 30.796,17.942 C30.802,17.954 30.809,17.967 30.815,17.980 C30.828,17.980 30.841,17.980 30.853,17.980 C30.860,17.993 30.866,18.005 30.872,18.018 C30.898,18.024 30.923,18.031 30.949,18.037 C30.955,18.050 30.961,18.063 30.968,18.075 C30.980,18.075 30.993,18.075 31.006,18.075 C31.006,18.082 31.006,18.088 31.006,18.094 C31.025,18.101 31.044,18.107 31.063,18.113 C31.069,18.126 31.076,18.139 31.082,18.152 C31.095,18.152 31.108,18.152 31.120,18.152 C31.127,18.164 31.133,18.177 31.139,18.190 C31.158,18.196 31.178,18.202 31.197,18.209 C31.197,18.215 31.197,18.222 31.197,18.228 C31.222,18.234 31.248,18.241 31.273,18.247 C31.279,18.260 31.286,18.272 31.292,18.285 C31.305,18.285 31.317,18.285 31.330,18.285 C31.337,18.298 31.343,18.311 31.349,18.323 C31.362,18.323 31.375,18.323 31.387,18.323 C31.394,18.336 31.400,18.349 31.406,18.361 C31.419,18.361 31.432,18.361 31.445,18.361 C31.451,18.374 31.457,18.387 31.464,18.400 C31.489,18.406 31.515,18.412 31.540,18.419 C31.546,18.431 31.553,18.444 31.559,18.457 C31.572,18.457 31.585,18.457 31.597,18.457 C31.604,18.470 31.610,18.482 31.616,18.495 C31.629,18.495 31.642,18.495 31.654,18.495 C31.661,18.508 31.667,18.520 31.674,18.533 C31.686,18.533 31.699,18.533 31.712,18.533 C31.718,18.546 31.724,18.559 31.731,18.571 C31.756,18.578 31.782,18.584 31.807,18.590 C31.813,18.603 31.820,18.616 31.826,18.629 C31.839,18.629 31.852,18.629 31.864,18.629 C31.871,18.641 31.877,18.654 31.883,18.667 C31.896,18.667 31.909,18.667 31.922,18.667 C31.928,18.679 31.934,18.692 31.941,18.705 C31.953,18.705 31.966,18.705 31.979,18.705 C31.985,18.718 31.992,18.730 31.998,18.743 C32.023,18.749 32.049,18.756 32.074,18.762 C32.081,18.775 32.087,18.788 32.093,18.800 C32.106,18.800 32.119,18.800 32.131,18.800 C32.131,18.807 32.131,18.813 32.131,18.819 C32.151,18.826 32.170,18.832 32.189,18.838 C32.195,18.851 32.201,18.864 32.208,18.877 C32.220,18.877 32.233,18.877 32.246,18.877 C32.252,18.889 32.259,18.902 32.265,18.915 C32.284,18.921 32.303,18.927 32.322,18.934 C32.322,18.940 32.322,18.947 32.322,18.953 C32.348,18.959 32.373,18.966 32.399,18.972 C32.405,18.985 32.411,18.997 32.418,19.010 C32.430,19.010 32.443,19.010 32.456,19.010 C32.462,19.023 32.468,19.036 32.475,19.048 C32.488,19.048 32.500,19.048 32.513,19.048 C32.519,19.061 32.526,19.074 32.532,19.086 C32.545,19.086 32.557,19.086 32.570,19.086 C32.577,19.099 32.583,19.112 32.589,19.125 C32.615,19.131 32.640,19.137 32.666,19.144 C32.672,19.156 32.678,19.169 32.685,19.182 C32.697,19.182 32.710,19.182 32.723,19.182 C32.729,19.195 32.736,19.207 32.742,19.220 C32.755,19.220 32.767,19.220 32.780,19.220 C32.786,19.233 32.793,19.245 32.799,19.258 C32.812,19.258 32.825,19.258 32.837,19.258 C32.844,19.271 32.850,19.284 32.856,19.296 C32.882,19.303 32.907,19.309 32.933,19.315 C32.939,19.328 32.945,19.341 32.952,19.354 C32.964,19.354 32.977,19.354 32.990,19.354 C32.996,19.366 33.003,19.379 33.009,19.392 C33.022,19.392 33.034,19.392 33.047,19.392 C33.054,19.404 33.060,19.417 33.066,19.430 C33.079,19.430 33.092,19.430 33.104,19.430 C33.111,19.443 33.117,19.455 33.123,19.468 C33.149,19.474 33.174,19.481 33.200,19.487 C33.206,19.500 33.212,19.513 33.219,19.525 C33.232,19.525 33.244,19.525 33.257,19.525 C33.263,19.538 33.270,19.551 33.276,19.563 C33.289,19.563 33.302,19.563 33.314,19.563 C33.321,19.576 33.327,19.589 33.333,19.602 C33.346,19.602 33.359,19.602 33.371,19.602 C33.378,19.614 33.384,19.627 33.391,19.640 C33.416,19.646 33.441,19.653 33.467,19.659 C33.473,19.672 33.480,19.684 33.486,19.697 C33.499,19.697 33.511,19.697 33.524,19.697 C33.524,19.703 33.524,19.710 33.524,19.716 C33.543,19.722 33.562,19.729 33.581,19.735 C33.588,19.748 33.594,19.761 33.600,19.773 C33.613,19.773 33.626,19.773 33.639,19.773 C33.645,19.786 33.651,19.799 33.658,19.812 C33.677,19.818 33.696,19.824 33.715,19.831 C33.715,19.837 33.715,19.843 33.715,19.850 C33.740,19.856 33.766,19.862 33.791,19.869 C33.798,19.881 33.804,19.894 33.810,19.907 C33.823,19.907 33.836,19.907 33.848,19.907 C33.855,19.920 33.861,19.932 33.867,19.945 C33.880,19.945 33.893,19.945 33.906,19.945 C33.912,19.958 33.918,19.971 33.925,19.983 C33.937,19.983 33.950,19.983 33.963,19.983 C33.969,19.996 33.976,20.009 33.982,20.021 C34.007,20.028 34.033,20.034 34.058,20.040 C34.065,20.053 34.071,20.066 34.077,20.079 C34.090,20.079 34.103,20.079 34.116,20.079 C34.122,20.091 34.128,20.104 34.135,20.117 C34.147,20.117 34.160,20.117 34.173,20.117 C34.179,20.130 34.185,20.142 34.192,20.155 C34.205,20.155 34.217,20.155 34.230,20.155 C34.236,20.168 34.243,20.180 34.249,20.193 C34.274,20.199 34.300,20.206 34.325,20.212 C34.332,20.225 34.338,20.238 34.344,20.250 C34.357,20.250 34.370,20.250 34.383,20.250 C34.389,20.263 34.395,20.276 34.402,20.289 C34.414,20.289 34.427,20.289 34.440,20.289 C34.446,20.301 34.453,20.314 34.459,20.327 C34.472,20.327 34.484,20.327 34.497,20.327 C34.503,20.339 34.510,20.352 34.516,20.365 C34.542,20.371 34.567,20.378 34.592,20.384 C34.599,20.397 34.605,20.409 34.612,20.422 C34.624,20.422 34.637,20.422 34.650,20.422 C34.656,20.435 34.662,20.448 34.669,20.460 C34.681,20.460 34.694,20.460 34.707,20.460 C34.713,20.473 34.720,20.486 34.726,20.498 C34.739,20.498 34.751,20.498 34.764,20.498 C34.770,20.511 34.777,20.524 34.783,20.537 C34.809,20.543 34.834,20.549 34.860,20.556 C34.866,20.568 34.872,20.581 34.879,20.594 C34.891,20.594 34.904,20.594 34.917,20.594 C34.917,20.600 34.917,20.607 34.917,20.613 C34.936,20.619 34.955,20.626 34.974,20.632 C34.980,20.645 34.987,20.657 34.993,20.670 C35.006,20.670 35.019,20.670 35.031,20.670 C35.038,20.683 35.044,20.696 35.050,20.708 C35.069,20.715 35.088,20.721 35.108,20.727 C35.108,20.734 35.108,20.740 35.108,20.746 C35.133,20.753 35.158,20.759 35.184,20.766 C35.190,20.778 35.197,20.791 35.203,20.804 C35.216,20.804 35.228,20.804 35.241,20.804 C35.247,20.816 35.254,20.829 35.260,20.842 C35.273,20.842 35.286,20.842 35.298,20.842 C35.305,20.855 35.311,20.867 35.317,20.880 C35.330,20.880 35.343,20.880 35.356,20.880 C35.362,20.893 35.368,20.905 35.375,20.918 C35.400,20.925 35.425,20.931 35.451,20.937 C35.457,20.950 35.464,20.963 35.470,20.975 C35.483,20.975 35.495,20.975 35.508,20.975 C35.515,20.988 35.521,21.001 35.527,21.014 C35.540,21.014 35.553,21.014 35.565,21.014 C35.572,21.026 35.578,21.039 35.584,21.052 C35.597,21.052 35.610,21.052 35.623,21.052 C35.629,21.064 35.635,21.077 35.642,21.090 C35.667,21.096 35.693,21.103 35.718,21.109 C35.724,21.122 35.731,21.134 35.737,21.147 C35.750,21.147 35.763,21.147 35.775,21.147 C35.782,21.160 35.788,21.173 35.794,21.185 C35.807,21.185 35.820,21.185 35.832,21.185 C35.839,21.198 35.845,21.211 35.852,21.223 C35.864,21.223 35.877,21.223 35.890,21.223 C35.896,21.236 35.902,21.249 35.909,21.262 C35.934,21.268 35.960,21.274 35.985,21.281 C35.991,21.293 35.998,21.306 36.004,21.319 C36.017,21.319 36.030,21.319 36.042,21.319 C36.042,21.325 36.042,21.332 36.042,21.338 C36.061,21.344 36.080,21.351 36.100,21.357 C36.106,21.370 36.112,21.382 36.119,21.395 C36.131,21.395 36.144,21.395 36.157,21.395 C36.163,21.408 36.170,21.421 36.176,21.433 C36.195,21.440 36.214,21.446 36.233,21.452 C36.233,21.459 36.233,21.465 36.233,21.471 C36.259,21.478 36.284,21.484 36.309,21.491 C36.316,21.503 36.322,21.516 36.329,21.529 C36.341,21.529 36.354,21.529 36.367,21.529 C36.373,21.541 36.379,21.554 36.386,21.567 C36.398,21.567 36.411,21.567 36.424,21.567 C36.430,21.580 36.437,21.592 36.443,21.605 C36.456,21.605 36.468,21.605 36.481,21.605 C36.487,21.618 36.494,21.630 36.500,21.643 C36.526,21.650 36.551,21.656 36.577,21.662 C36.583,21.675 36.589,21.688 36.596,21.700 C36.608,21.700 36.621,21.700 36.634,21.700 C36.640,21.713 36.646,21.726 36.653,21.739 C36.666,21.739 36.678,21.739 36.691,21.739 C36.697,21.751 36.704,21.764 36.710,21.777 C36.723,21.777 36.735,21.777 36.748,21.777 C36.755,21.789 36.761,21.802 36.767,21.815 C36.793,21.821 36.818,21.828 36.844,21.834 C36.850,21.847 36.856,21.859 36.863,21.872 C36.875,21.872 36.888,21.872 36.901,21.872 C36.907,21.885 36.914,21.898 36.920,21.910 C36.933,21.910 36.945,21.910 36.958,21.910 C36.964,21.923 36.971,21.936 36.977,21.948 C36.990,21.948 37.003,21.948 37.015,21.948 C37.022,21.961 37.028,21.974 37.034,21.987 C37.060,21.993 37.085,21.999 37.111,22.006 C37.117,22.018 37.123,22.031 37.130,22.044 C37.142,22.044 37.155,22.044 37.168,22.044 C37.174,22.057 37.181,22.069 37.187,22.082 C37.200,22.082 37.212,22.082 37.225,22.082 C37.232,22.095 37.238,22.107 37.244,22.120 C37.257,22.120 37.270,22.120 37.282,22.120 C37.289,22.133 37.295,22.146 37.301,22.158 C37.327,22.165 37.352,22.171 37.378,22.177 C37.378,22.184 37.378,22.190 37.378,22.197 C37.397,22.203 37.416,22.209 37.435,22.216 C37.441,22.228 37.448,22.241 37.454,22.254 C37.467,22.254 37.480,22.254 37.492,22.254 C37.499,22.266 37.505,22.279 37.511,22.292 C37.524,22.292 37.537,22.292 37.549,22.292 C37.556,22.305 37.562,22.317 37.569,22.330 C37.581,22.330 37.594,22.330 37.607,22.330 C37.613,22.343 37.619,22.356 37.626,22.368 C37.651,22.375 37.677,22.381 37.702,22.387 C37.708,22.400 37.715,22.413 37.721,22.425 C37.734,22.425 37.747,22.425 37.759,22.425 C37.766,22.438 37.772,22.451 37.778,22.464 C37.791,22.464 37.804,22.464 37.817,22.464 C37.823,22.476 37.829,22.489 37.836,22.502 C37.848,22.502 37.861,22.502 37.874,22.502 C37.880,22.515 37.887,22.527 37.893,22.540 C37.918,22.546 37.944,22.553 37.969,22.559 C37.976,22.572 37.982,22.584 37.988,22.597 C38.001,22.597 38.014,22.597 38.026,22.597 C38.033,22.610 38.039,22.623 38.045,22.635 C38.058,22.635 38.071,22.635 38.084,22.635 C38.090,22.648 38.096,22.661 38.103,22.674 C38.115,22.674 38.128,22.674 38.141,22.674 C38.147,22.686 38.154,22.699 38.160,22.712 C38.185,22.718 38.211,22.724 38.236,22.731 C38.249,22.750 38.262,22.769 38.274,22.788 C38.287,22.788 38.300,22.788 38.313,22.788 C38.325,22.807 38.338,22.826 38.351,22.845 C38.363,22.845 38.376,22.845 38.389,22.845 C38.433,22.896 38.478,22.947 38.522,22.998 C38.548,23.017 38.573,23.036 38.599,23.055 C38.599,23.068 38.599,23.081 38.599,23.093 C38.618,23.106 38.637,23.119 38.656,23.131 C38.656,23.144 38.656,23.157 38.656,23.170 C38.669,23.176 38.681,23.182 38.694,23.189 C38.700,23.208 38.707,23.227 38.713,23.246 C38.720,23.246 38.726,23.246 38.732,23.246 C38.739,23.271 38.745,23.297 38.751,23.322 C38.758,23.322 38.764,23.322 38.770,23.322 C38.770,23.335 38.770,23.348 38.770,23.360 C38.777,23.360 38.783,23.360 38.790,23.360 C38.802,23.399 38.815,23.437 38.828,23.475 C38.834,23.475 38.840,23.475 38.847,23.475 C38.847,23.494 38.847,23.513 38.847,23.532 C38.853,23.532 38.859,23.532 38.866,23.532 C38.866,23.551 38.866,23.570 38.866,23.589 C38.872,23.589 38.879,23.589 38.885,23.589 C38.885,23.608 38.885,23.628 38.885,23.647 C38.891,23.647 38.898,23.647 38.904,23.647 C38.904,23.666 38.904,23.685 38.904,23.704 C38.910,23.704 38.917,23.704 38.923,23.704 C38.929,23.780 38.936,23.856 38.942,23.933 C38.948,23.933 38.955,23.933 38.961,23.933 C38.961,27.691 38.961,31.451 38.961,35.209 C38.961,35.762 38.961,36.316 38.961,36.869 C38.961,37.072 38.991,37.348 38.942,37.518 C38.942,37.562 38.942,37.607 38.942,37.651 C38.936,37.651 38.929,37.651 38.923,37.651 C38.917,37.702 38.910,37.753 38.904,37.804 C38.898,37.804 38.891,37.804 38.885,37.804 C38.879,37.842 38.872,37.880 38.866,37.918 C38.859,37.918 38.853,37.918 38.847,37.918 C38.840,37.950 38.834,37.982 38.828,38.014 C38.821,38.014 38.815,38.014 38.809,38.014 C38.802,38.039 38.796,38.065 38.790,38.090 C38.783,38.090 38.777,38.090 38.770,38.090 C38.764,38.116 38.758,38.141 38.751,38.166 C38.739,38.173 38.726,38.179 38.713,38.185 C38.713,38.198 38.713,38.211 38.713,38.224 C38.707,38.224 38.700,38.224 38.694,38.224 C38.688,38.243 38.681,38.262 38.675,38.281 C38.662,38.287 38.650,38.294 38.637,38.300 C38.637,38.313 38.637,38.325 38.637,38.338 C38.599,38.370 38.561,38.402 38.522,38.434 C38.522,38.446 38.522,38.459 38.522,38.472 C38.516,38.472 38.510,38.472 38.503,38.472 C38.491,38.491 38.478,38.510 38.465,38.529 C38.452,38.529 38.440,38.529 38.427,38.529 C38.395,38.567 38.363,38.605 38.332,38.643 C38.319,38.643 38.306,38.643 38.293,38.643 C38.287,38.656 38.281,38.669 38.274,38.682 C38.262,38.682 38.249,38.682 38.236,38.682 C38.230,38.694 38.224,38.707 38.217,38.720 C38.204,38.720 38.192,38.720 38.179,38.720 C38.173,38.732 38.166,38.745 38.160,38.758 C38.135,38.764 38.109,38.771 38.084,38.777 C38.084,38.783 38.084,38.790 38.084,38.796 C38.058,38.802 38.033,38.809 38.007,38.815 C38.007,38.821 38.007,38.828 38.007,38.834 C37.988,38.834 37.969,38.834 37.950,38.834 C37.950,38.841 37.950,38.847 37.950,38.853 C37.937,38.853 37.925,38.853 37.912,38.853 C37.912,38.860 37.912,38.866 37.912,38.872 C37.893,38.872 37.874,38.872 37.855,38.872 C37.855,38.879 37.855,38.885 37.855,38.891 C37.604,38.990 37.226,38.968 36.882,38.968 C36.373,38.968 35.864,38.968 35.356,38.968 C33.423,38.968 31.489,38.968 29.556,38.968 C22.733,38.968 15.908,38.968 9.086,38.968 C7.070,38.968 5.054,38.968 3.038,38.968 C2.657,38.968 2.275,38.968 1.893,38.968 C1.703,38.961 1.512,38.955 1.321,38.949 C1.321,38.942 1.321,38.936 1.321,38.930 C1.270,38.923 1.219,38.917 1.169,38.911 C1.169,38.904 1.169,38.898 1.169,38.891 C1.130,38.885 1.092,38.879 1.054,38.872 C1.054,38.866 1.054,38.860 1.054,38.853 C1.022,38.847 0.990,38.841 0.959,38.834 C0.959,38.828 0.959,38.821 0.959,38.815 C0.933,38.809 0.908,38.802 0.882,38.796 C0.882,38.790 0.882,38.783 0.882,38.777 C0.857,38.771 0.831,38.764 0.806,38.758 C0.800,38.745 0.793,38.732 0.787,38.720 C0.774,38.720 0.762,38.720 0.749,38.720 C0.749,38.713 0.749,38.707 0.749,38.701 C0.730,38.694 0.711,38.688 0.692,38.682 C0.685,38.669 0.679,38.656 0.672,38.643 C0.660,38.643 0.647,38.643 0.634,38.643 C0.603,38.605 0.571,38.567 0.539,38.529 C0.526,38.529 0.514,38.529 0.501,38.529 C0.501,38.523 0.501,38.516 0.501,38.510 C0.482,38.497 0.463,38.484 0.444,38.472 C0.444,38.459 0.444,38.446 0.444,38.434 C0.405,38.402 0.367,38.370 0.329,38.338 C0.329,38.325 0.329,38.313 0.329,38.300 C0.316,38.294 0.304,38.287 0.291,38.281 C0.285,38.262 0.278,38.243 0.272,38.224 C0.265,38.224 0.259,38.224 0.253,38.224 C0.253,38.211 0.253,38.198 0.253,38.185 C0.240,38.179 0.227,38.173 0.215,38.166 C0.208,38.141 0.202,38.116 0.196,38.090 C0.189,38.090 0.183,38.090 0.176,38.090 C0.170,38.065 0.164,38.039 0.157,38.014 C0.151,38.014 0.145,38.014 0.138,38.014 C0.132,37.982 0.126,37.950 0.119,37.918 C0.113,37.918 0.107,37.918 0.100,37.918 C0.094,37.880 0.087,37.842 0.081,37.804 C0.075,37.804 0.068,37.804 0.062,37.804 C0.056,37.753 0.049,37.702 0.043,37.651 C0.037,37.651 0.030,37.651 0.024,37.651 C0.024,37.607 0.024,37.562 0.024,37.518 C-0.015,37.380 0.005,37.153 0.005,36.983 C0.005,36.519 0.005,36.055 0.005,35.591 C0.005,33.568 0.005,31.545 0.005,29.523 C0.005,22.534 0.005,15.543 0.005,8.554 C0.005,6.825 0.005,5.094 0.005,3.365 C0.005,2.926 0.005,2.487 0.005,2.048 C0.005,1.676 -0.005,1.376 0.100,1.113 C0.100,1.094 0.100,1.075 0.100,1.056 C0.107,1.056 0.113,1.056 0.119,1.056 C0.119,1.043 0.119,1.031 0.119,1.018 C0.126,1.018 0.132,1.018 0.138,1.018 C0.138,0.999 0.138,0.980 0.138,0.961 C0.145,0.961 0.151,0.961 0.157,0.961 C0.164,0.935 0.170,0.910 0.176,0.884 C0.183,0.884 0.189,0.884 0.196,0.884 C0.196,0.872 0.196,0.859 0.196,0.846 C0.208,0.840 0.221,0.833 0.234,0.827 C0.240,0.802 0.246,0.776 0.253,0.751 C0.265,0.744 0.278,0.738 0.291,0.732 C0.291,0.719 0.291,0.706 0.291,0.693 C0.310,0.681 0.329,0.668 0.348,0.655 C0.348,0.643 0.348,0.630 0.348,0.617 C0.412,0.560 0.475,0.503 0.539,0.445 C0.564,0.414 0.590,0.382 0.615,0.350 C0.628,0.350 0.641,0.350 0.653,0.350 C0.666,0.331 0.679,0.312 0.692,0.293 C0.704,0.293 0.717,0.293 0.730,0.293 C0.736,0.280 0.742,0.267 0.749,0.255 C0.774,0.248 0.800,0.242 0.825,0.236 C0.831,0.223 0.838,0.210 0.844,0.197 C0.857,0.197 0.870,0.197 0.882,0.197 C0.882,0.191 0.882,0.185 0.882,0.178 C0.908,0.172 0.933,0.166 0.959,0.159 C0.959,0.153 0.959,0.146 0.959,0.140 C0.978,0.140 0.997,0.140 1.016,0.140 C1.016,0.134 1.016,0.127 1.016,0.121 C1.029,0.121 1.041,0.121 1.054,0.121 C1.054,0.115 1.054,0.108 1.054,0.102 C1.073,0.102 1.092,0.102 1.111,0.102 C1.111,0.096 1.111,0.089 1.111,0.083 C1.130,0.083 1.149,0.083 1.169,0.083 C1.169,0.077 1.169,0.070 1.169,0.064 C1.194,0.064 1.219,0.064 1.245,0.064 C1.245,0.057 1.245,0.051 1.245,0.045 C1.313,0.023 1.408,0.047 1.455,0.007 ZM20.780,0.064 C20.998,0.060 21.303,0.031 21.486,0.083 C21.601,0.116 21.783,0.072 21.887,0.102 C21.969,0.102 22.052,0.102 22.135,0.102 C22.135,0.108 22.135,0.115 22.135,0.121 C22.192,0.121 22.249,0.121 22.306,0.121 C22.306,0.127 22.306,0.134 22.306,0.140 C22.357,0.140 22.408,0.140 22.459,0.140 C22.459,0.146 22.459,0.153 22.459,0.159 C22.504,0.159 22.548,0.159 22.593,0.159 C22.593,0.166 22.593,0.172 22.593,0.178 C22.637,0.178 22.682,0.178 22.726,0.178 C22.726,0.185 22.726,0.191 22.726,0.197 C22.758,0.197 22.790,0.197 22.822,0.197 C22.822,0.204 22.822,0.210 22.822,0.216 C22.853,0.216 22.885,0.216 22.917,0.216 C22.917,0.223 22.917,0.229 22.917,0.236 C22.949,0.236 22.981,0.236 23.012,0.236 C23.012,0.242 23.012,0.248 23.012,0.255 C23.044,0.255 23.076,0.255 23.108,0.255 C23.108,0.261 23.108,0.267 23.108,0.274 C23.133,0.274 23.159,0.274 23.184,0.274 C23.184,0.280 23.184,0.286 23.184,0.293 C23.209,0.293 23.235,0.293 23.260,0.293 C23.260,0.299 23.260,0.305 23.260,0.312 C23.286,0.312 23.311,0.312 23.337,0.312 C23.337,0.318 23.337,0.325 23.337,0.331 C23.362,0.331 23.388,0.331 23.413,0.331 C23.413,0.337 23.413,0.344 23.413,0.350 C23.457,0.356 23.502,0.363 23.547,0.369 C23.547,0.375 23.547,0.382 23.547,0.388 C23.566,0.388 23.585,0.388 23.604,0.388 C23.604,0.395 23.604,0.401 23.604,0.407 C23.623,0.407 23.642,0.407 23.661,0.407 C23.661,0.414 23.661,0.420 23.661,0.426 C23.680,0.426 23.699,0.426 23.718,0.426 C23.718,0.433 23.718,0.439 23.718,0.445 C23.737,0.445 23.756,0.445 23.775,0.445 C23.775,0.452 23.775,0.458 23.775,0.464 C23.795,0.464 23.814,0.464 23.833,0.464 C23.833,0.471 23.833,0.477 23.833,0.484 C23.852,0.484 23.871,0.484 23.890,0.484 C23.890,0.490 23.890,0.496 23.890,0.503 C23.947,0.515 24.004,0.528 24.062,0.541 C24.062,0.547 24.062,0.554 24.062,0.560 C24.074,0.560 24.087,0.560 24.100,0.560 C24.100,0.566 24.100,0.573 24.100,0.579 C24.233,0.623 24.367,0.668 24.500,0.713 C24.500,0.719 24.500,0.725 24.500,0.732 C24.526,0.738 24.551,0.744 24.577,0.751 C24.577,0.757 24.577,0.763 24.577,0.770 C24.596,0.770 24.615,0.770 24.634,0.770 C24.634,0.776 24.634,0.782 24.634,0.789 C24.647,0.789 24.659,0.789 24.672,0.789 C24.672,0.795 24.672,0.802 24.672,0.808 C24.691,0.808 24.710,0.808 24.729,0.808 C24.729,0.814 24.729,0.821 24.729,0.827 C24.755,0.833 24.780,0.840 24.806,0.846 C24.806,0.852 24.806,0.859 24.806,0.865 C24.825,0.865 24.844,0.865 24.863,0.865 C24.863,0.872 24.863,0.878 24.863,0.884 C24.888,0.891 24.914,0.897 24.939,0.903 C24.939,0.910 24.939,0.916 24.939,0.922 C24.958,0.922 24.977,0.922 24.996,0.922 C24.996,0.929 24.996,0.935 24.996,0.941 C25.009,0.941 25.022,0.941 25.035,0.941 C25.035,0.948 25.035,0.954 25.035,0.961 C25.054,0.961 25.073,0.961 25.092,0.961 C25.092,0.967 25.092,0.973 25.092,0.980 C25.117,0.986 25.143,0.992 25.168,0.999 C25.168,1.005 25.168,1.011 25.168,1.018 C25.187,1.018 25.206,1.018 25.225,1.018 C25.225,1.024 25.225,1.031 25.225,1.037 C25.238,1.037 25.251,1.037 25.263,1.037 C25.263,1.043 25.263,1.050 25.263,1.056 C25.283,1.056 25.302,1.056 25.321,1.056 C25.321,1.062 25.321,1.069 25.321,1.075 C25.333,1.075 25.346,1.075 25.359,1.075 C25.359,1.081 25.359,1.088 25.359,1.094 C25.378,1.094 25.397,1.094 25.416,1.094 C25.416,1.100 25.416,1.107 25.416,1.113 C25.429,1.113 25.442,1.113 25.454,1.113 C25.454,1.120 25.454,1.126 25.454,1.132 C25.486,1.139 25.518,1.145 25.550,1.151 C25.550,1.158 25.550,1.164 25.550,1.170 C25.607,1.183 25.664,1.196 25.721,1.209 C25.721,1.215 25.721,1.221 25.721,1.228 C25.734,1.228 25.747,1.228 25.760,1.228 C25.760,1.234 25.760,1.240 25.760,1.247 C25.798,1.253 25.836,1.259 25.874,1.266 C25.874,1.272 25.874,1.279 25.874,1.285 C25.893,1.285 25.912,1.285 25.931,1.285 C25.931,1.291 25.931,1.298 25.931,1.304 C25.976,1.310 26.020,1.317 26.065,1.323 C26.065,1.329 26.065,1.336 26.065,1.342 C26.090,1.342 26.116,1.342 26.141,1.342 C26.141,1.349 26.141,1.355 26.141,1.361 C26.167,1.361 26.192,1.361 26.217,1.361 C26.217,1.368 26.217,1.374 26.217,1.380 C26.281,1.387 26.345,1.393 26.408,1.399 C26.408,1.406 26.408,1.412 26.408,1.418 C26.446,1.418 26.484,1.418 26.523,1.418 C26.523,1.425 26.523,1.431 26.523,1.438 C26.567,1.438 26.612,1.438 26.656,1.438 C26.656,1.444 26.656,1.450 26.656,1.457 C26.707,1.457 26.758,1.457 26.809,1.457 C26.809,1.463 26.809,1.469 26.809,1.476 C26.891,1.476 26.974,1.476 27.057,1.476 C27.057,1.482 27.057,1.488 27.057,1.495 C27.133,1.495 27.209,1.495 27.286,1.495 C27.467,1.495 27.710,1.517 27.858,1.476 C28.023,1.469 28.189,1.463 28.354,1.457 C28.354,1.450 28.354,1.444 28.354,1.438 C28.411,1.438 28.469,1.438 28.526,1.438 C28.526,1.431 28.526,1.425 28.526,1.418 C28.583,1.418 28.640,1.418 28.697,1.418 C28.895,1.362 29.152,1.362 29.346,1.304 C29.429,1.298 29.511,1.291 29.594,1.285 C29.889,1.197 30.254,1.183 30.548,1.094 C30.624,1.088 30.701,1.081 30.777,1.075 C31.015,1.003 31.317,0.995 31.559,0.922 C31.642,0.916 31.724,0.910 31.807,0.903 C32.035,0.837 32.338,0.855 32.570,0.789 C32.640,0.789 32.710,0.789 32.780,0.789 C32.780,0.782 32.780,0.776 32.780,0.770 C32.888,0.763 32.996,0.757 33.104,0.751 C33.174,0.751 33.244,0.751 33.314,0.751 C33.501,0.699 33.799,0.732 34.020,0.732 C34.179,0.732 34.389,0.715 34.516,0.751 C34.612,0.751 34.707,0.751 34.802,0.751 C34.802,0.757 34.802,0.763 34.802,0.770 C34.866,0.770 34.929,0.770 34.993,0.770 C34.993,0.776 34.993,0.782 34.993,0.789 C35.050,0.789 35.108,0.789 35.165,0.789 C35.276,0.821 35.438,0.832 35.546,0.865 C35.610,0.872 35.674,0.878 35.737,0.884 C35.737,0.891 35.737,0.897 35.737,0.903 C35.769,0.903 35.801,0.903 35.832,0.903 C35.832,0.910 35.832,0.916 35.832,0.922 C35.864,0.922 35.896,0.922 35.928,0.922 C35.928,0.929 35.928,0.935 35.928,0.941 C35.953,0.941 35.979,0.941 36.004,0.941 C36.004,0.948 36.004,0.954 36.004,0.961 C36.030,0.961 36.055,0.961 36.080,0.961 C36.080,0.967 36.080,0.973 36.080,0.980 C36.106,0.980 36.131,0.980 36.157,0.980 C36.157,0.986 36.157,0.992 36.157,0.999 C36.208,1.005 36.259,1.011 36.309,1.018 C36.309,1.024 36.309,1.031 36.309,1.037 C36.373,1.050 36.437,1.062 36.500,1.075 C36.500,1.081 36.500,1.088 36.500,1.094 C36.519,1.094 36.538,1.094 36.557,1.094 C36.557,1.100 36.557,1.107 36.557,1.113 C36.577,1.113 36.596,1.113 36.615,1.113 C36.615,1.120 36.615,1.126 36.615,1.132 C36.653,1.139 36.691,1.145 36.729,1.151 C36.729,1.158 36.729,1.164 36.729,1.170 C36.742,1.170 36.755,1.170 36.767,1.170 C36.767,1.177 36.767,1.183 36.767,1.190 C36.825,1.202 36.882,1.215 36.939,1.228 C36.939,1.234 36.939,1.240 36.939,1.247 C36.952,1.247 36.964,1.247 36.977,1.247 C36.977,1.253 36.977,1.259 36.977,1.266 C36.996,1.266 37.015,1.266 37.034,1.266 C37.034,1.272 37.034,1.279 37.034,1.285 C37.060,1.291 37.085,1.298 37.111,1.304 C37.111,1.310 37.111,1.317 37.111,1.323 C37.130,1.323 37.149,1.323 37.168,1.323 C37.168,1.329 37.168,1.336 37.168,1.342 C37.181,1.342 37.193,1.342 37.206,1.342 C37.206,1.349 37.206,1.355 37.206,1.361 C37.232,1.368 37.257,1.374 37.282,1.380 C37.282,1.387 37.282,1.393 37.282,1.399 C37.301,1.399 37.321,1.399 37.340,1.399 C37.340,1.406 37.340,1.412 37.340,1.418 C37.378,1.431 37.416,1.444 37.454,1.457 C37.454,1.463 37.454,1.469 37.454,1.476 C37.467,1.476 37.480,1.476 37.492,1.476 C37.492,1.482 37.492,1.488 37.492,1.495 C37.530,1.508 37.569,1.520 37.607,1.533 C37.613,1.546 37.619,1.558 37.626,1.571 C37.638,1.571 37.651,1.571 37.664,1.571 C37.664,1.577 37.664,1.584 37.664,1.590 C37.677,1.590 37.689,1.590 37.702,1.590 C37.702,1.597 37.702,1.603 37.702,1.609 C37.715,1.609 37.728,1.609 37.740,1.609 C37.740,1.616 37.740,1.622 37.740,1.628 C37.753,1.628 37.766,1.628 37.778,1.628 C37.785,1.641 37.791,1.654 37.797,1.667 C37.810,1.667 37.823,1.667 37.836,1.667 C37.836,1.673 37.836,1.679 37.836,1.686 C37.848,1.686 37.861,1.686 37.874,1.686 C37.880,1.698 37.887,1.711 37.893,1.724 C37.918,1.730 37.944,1.736 37.969,1.743 C37.969,1.749 37.969,1.756 37.969,1.762 C37.988,1.768 38.007,1.775 38.026,1.781 C38.033,1.794 38.039,1.806 38.045,1.819 C38.071,1.826 38.096,1.832 38.122,1.838 C38.128,1.851 38.135,1.864 38.141,1.876 C38.154,1.876 38.166,1.876 38.179,1.876 C38.192,1.895 38.204,1.915 38.217,1.934 C38.230,1.934 38.243,1.934 38.255,1.934 C38.287,1.972 38.319,2.010 38.351,2.048 C38.363,2.048 38.376,2.048 38.389,2.048 C38.389,2.054 38.389,2.061 38.389,2.067 C38.408,2.080 38.427,2.093 38.446,2.105 C38.446,2.118 38.446,2.131 38.446,2.144 C38.478,2.169 38.510,2.194 38.542,2.220 C38.542,2.233 38.542,2.245 38.542,2.258 C38.561,2.271 38.580,2.283 38.599,2.296 C38.599,2.309 38.599,2.322 38.599,2.334 C38.741,2.548 38.865,2.800 38.866,3.155 C38.866,3.256 38.866,3.358 38.866,3.460 C38.859,3.460 38.853,3.460 38.847,3.460 C38.847,3.492 38.847,3.524 38.847,3.555 C38.840,3.555 38.834,3.555 38.828,3.555 C38.828,3.581 38.828,3.606 38.828,3.632 C38.821,3.632 38.815,3.632 38.809,3.632 C38.809,3.657 38.809,3.683 38.809,3.708 C38.802,3.708 38.796,3.708 38.790,3.708 C38.790,3.727 38.790,3.746 38.790,3.765 C38.783,3.765 38.777,3.765 38.770,3.765 C38.770,3.784 38.770,3.803 38.770,3.823 C38.764,3.823 38.758,3.823 38.751,3.823 C38.745,3.848 38.739,3.873 38.732,3.899 C38.726,3.899 38.720,3.899 38.713,3.899 C38.713,3.912 38.713,3.924 38.713,3.937 C38.707,3.937 38.700,3.937 38.694,3.937 C38.694,3.950 38.694,3.962 38.694,3.975 C38.688,3.975 38.681,3.975 38.675,3.975 C38.675,3.988 38.675,4.001 38.675,4.013 C38.669,4.013 38.662,4.013 38.656,4.013 C38.656,4.026 38.656,4.039 38.656,4.052 C38.650,4.052 38.643,4.052 38.637,4.052 C38.637,4.064 38.637,4.077 38.637,4.090 C38.624,4.096 38.611,4.102 38.599,4.109 C38.599,4.121 38.599,4.134 38.599,4.147 C38.586,4.153 38.573,4.160 38.561,4.166 C38.561,4.172 38.561,4.179 38.561,4.185 C38.548,4.191 38.535,4.198 38.522,4.204 C38.522,4.217 38.522,4.230 38.522,4.242 C38.503,4.255 38.484,4.268 38.465,4.280 C38.414,4.338 38.363,4.395 38.313,4.452 C38.300,4.452 38.287,4.452 38.274,4.452 C38.255,4.478 38.236,4.503 38.217,4.529 C38.204,4.529 38.192,4.529 38.179,4.529 C38.173,4.541 38.166,4.554 38.160,4.567 C38.147,4.567 38.135,4.567 38.122,4.567 C38.115,4.579 38.109,4.592 38.103,4.605 C38.090,4.605 38.077,4.605 38.065,4.605 C38.065,4.611 38.065,4.618 38.065,4.624 C38.052,4.624 38.039,4.624 38.026,4.624 C38.026,4.630 38.026,4.637 38.026,4.643 C38.014,4.643 38.001,4.643 37.988,4.643 C37.988,4.649 37.988,4.656 37.988,4.662 C37.976,4.662 37.963,4.662 37.950,4.662 C37.950,4.668 37.950,4.675 37.950,4.681 C37.925,4.687 37.899,4.694 37.874,4.700 C37.874,4.707 37.874,4.713 37.874,4.719 C37.855,4.719 37.836,4.719 37.817,4.719 C37.817,4.726 37.817,4.732 37.817,4.738 C37.797,4.738 37.778,4.738 37.759,4.738 C37.759,4.745 37.759,4.751 37.759,4.757 C37.740,4.757 37.721,4.757 37.702,4.757 C37.702,4.764 37.702,4.770 37.702,4.777 C37.683,4.777 37.664,4.777 37.645,4.777 C37.645,4.783 37.645,4.789 37.645,4.796 C37.619,4.796 37.594,4.796 37.569,4.796 C37.569,4.802 37.569,4.808 37.569,4.815 C37.530,4.815 37.492,4.815 37.454,4.815 C37.454,4.821 37.454,4.827 37.454,4.834 C37.369,4.858 36.964,4.835 36.901,4.815 C36.901,4.808 36.901,4.802 36.901,4.796 C36.869,4.796 36.837,4.796 36.805,4.796 C36.805,4.789 36.805,4.783 36.805,4.777 C36.748,4.764 36.691,4.751 36.634,4.738 C36.634,4.732 36.634,4.726 36.634,4.719 C36.608,4.713 36.583,4.707 36.557,4.700 C36.557,4.694 36.557,4.687 36.557,4.681 C36.538,4.681 36.519,4.681 36.500,4.681 C36.494,4.668 36.487,4.656 36.481,4.643 C36.443,4.630 36.405,4.618 36.367,4.605 C36.360,4.592 36.354,4.579 36.348,4.567 C36.335,4.567 36.322,4.567 36.309,4.567 C36.303,4.554 36.297,4.541 36.290,4.529 C36.278,4.529 36.265,4.529 36.252,4.529 C36.246,4.516 36.239,4.503 36.233,4.490 C36.208,4.484 36.182,4.478 36.157,4.471 C36.150,4.459 36.144,4.446 36.138,4.433 C36.112,4.427 36.087,4.420 36.061,4.414 C36.061,4.408 36.061,4.401 36.061,4.395 C36.049,4.395 36.036,4.395 36.023,4.395 C36.023,4.389 36.023,4.382 36.023,4.376 C35.985,4.363 35.947,4.350 35.909,4.338 C35.909,4.331 35.909,4.325 35.909,4.319 C35.890,4.319 35.871,4.319 35.852,4.319 C35.852,4.312 35.852,4.306 35.852,4.300 C35.826,4.293 35.801,4.287 35.775,4.280 C35.775,4.274 35.775,4.268 35.775,4.261 C35.743,4.255 35.712,4.249 35.680,4.242 C35.680,4.236 35.680,4.230 35.680,4.223 C35.642,4.217 35.604,4.211 35.565,4.204 C35.434,4.152 35.269,4.115 35.127,4.071 C35.063,4.064 34.999,4.058 34.936,4.052 C34.936,4.045 34.936,4.039 34.936,4.032 C34.891,4.032 34.847,4.032 34.802,4.032 C34.802,4.026 34.802,4.020 34.802,4.013 C34.688,4.007 34.573,4.001 34.459,3.994 C34.360,3.967 34.188,4.006 34.077,3.975 C34.008,3.956 33.813,3.928 33.715,3.956 C33.715,3.962 33.715,3.969 33.715,3.975 C33.575,3.975 33.435,3.975 33.295,3.975 C33.295,3.975 33.294,3.991 33.257,3.994 C33.187,3.994 33.117,3.994 33.047,3.994 C33.047,4.001 33.047,4.007 33.047,4.013 C32.977,4.013 32.907,4.013 32.837,4.013 C32.837,4.020 32.837,4.026 32.837,4.032 C32.780,4.032 32.723,4.032 32.666,4.032 C32.456,4.093 32.186,4.086 31.979,4.147 C31.903,4.153 31.826,4.160 31.750,4.166 C31.425,4.265 31.027,4.277 30.701,4.376 C30.624,4.382 30.548,4.389 30.472,4.395 C30.188,4.481 29.828,4.482 29.537,4.567 C29.492,4.567 29.448,4.567 29.403,4.567 C29.403,4.573 29.403,4.579 29.403,4.586 C29.359,4.586 29.314,4.586 29.270,4.586 C29.270,4.592 29.270,4.598 29.270,4.605 C29.219,4.605 29.168,4.605 29.117,4.605 C29.117,4.611 29.117,4.618 29.117,4.624 C29.066,4.624 29.015,4.624 28.965,4.624 C28.965,4.630 28.965,4.637 28.965,4.643 C28.907,4.643 28.850,4.643 28.793,4.643 C28.793,4.649 28.793,4.656 28.793,4.662 C28.729,4.662 28.666,4.662 28.602,4.662 C28.602,4.668 28.602,4.675 28.602,4.681 C28.443,4.687 28.284,4.694 28.125,4.700 C28.119,4.700 28.112,4.700 28.106,4.700 C28.106,4.707 28.106,4.713 28.106,4.719 C27.953,4.719 27.801,4.719 27.648,4.719 C27.648,4.726 27.648,4.732 27.648,4.738 C27.550,4.766 27.262,4.739 27.190,4.719 C27.044,4.719 26.898,4.719 26.752,4.719 C26.752,4.713 26.752,4.707 26.752,4.700 C26.675,4.700 26.599,4.700 26.523,4.700 C26.523,4.694 26.523,4.687 26.523,4.681 C26.459,4.681 26.395,4.681 26.332,4.681 C26.214,4.647 26.046,4.639 25.931,4.605 C25.893,4.605 25.855,4.605 25.817,4.605 C25.817,4.598 25.817,4.592 25.817,4.586 C25.785,4.586 25.753,4.586 25.721,4.586 C25.721,4.579 25.721,4.573 25.721,4.567 C25.690,4.567 25.658,4.567 25.626,4.567 C25.626,4.560 25.626,4.554 25.626,4.548 C25.594,4.548 25.562,4.548 25.531,4.548 C25.531,4.541 25.531,4.535 25.531,4.529 C25.505,4.529 25.480,4.529 25.454,4.529 C25.454,4.522 25.454,4.516 25.454,4.509 C25.422,4.509 25.391,4.509 25.359,4.509 C25.167,4.447 24.949,4.391 24.767,4.319 C24.710,4.306 24.653,4.293 24.596,4.280 C24.596,4.274 24.596,4.268 24.596,4.261 C24.583,4.261 24.570,4.261 24.558,4.261 C24.558,4.255 24.558,4.249 24.558,4.242 C24.519,4.236 24.481,4.230 24.443,4.223 C24.443,4.217 24.443,4.211 24.443,4.204 C24.430,4.204 24.418,4.204 24.405,4.204 C24.405,4.198 24.405,4.191 24.405,4.185 C24.367,4.179 24.329,4.172 24.291,4.166 C24.291,4.160 24.291,4.153 24.291,4.147 C24.259,4.141 24.227,4.134 24.195,4.128 C24.195,4.121 24.195,4.115 24.195,4.109 C24.182,4.109 24.170,4.109 24.157,4.109 C24.157,4.102 24.157,4.096 24.157,4.090 C24.138,4.090 24.119,4.090 24.100,4.090 C24.100,4.083 24.100,4.077 24.100,4.071 C24.087,4.071 24.074,4.071 24.062,4.071 C24.062,4.064 24.062,4.058 24.062,4.052 C24.043,4.052 24.023,4.052 24.004,4.052 C24.004,4.045 24.004,4.039 24.004,4.032 C23.979,4.026 23.954,4.020 23.928,4.013 C23.928,4.007 23.928,4.001 23.928,3.994 C23.909,3.994 23.890,3.994 23.871,3.994 C23.871,3.988 23.871,3.982 23.871,3.975 C23.858,3.975 23.845,3.975 23.833,3.975 C23.833,3.969 23.833,3.962 23.833,3.956 C23.814,3.956 23.795,3.956 23.775,3.956 C23.775,3.950 23.775,3.943 23.775,3.937 C23.750,3.931 23.725,3.924 23.699,3.918 C23.699,3.912 23.699,3.905 23.699,3.899 C23.680,3.899 23.661,3.899 23.642,3.899 C23.642,3.893 23.642,3.886 23.642,3.880 C23.629,3.880 23.616,3.880 23.604,3.880 C23.604,3.873 23.604,3.867 23.604,3.861 C23.585,3.861 23.566,3.861 23.547,3.861 C23.547,3.854 23.547,3.848 23.547,3.842 C23.521,3.835 23.496,3.829 23.470,3.823 C23.470,3.816 23.470,3.810 23.470,3.803 C23.451,3.803 23.432,3.803 23.413,3.803 C23.413,3.797 23.413,3.791 23.413,3.784 C23.400,3.784 23.388,3.784 23.375,3.784 C23.375,3.778 23.375,3.772 23.375,3.765 C23.356,3.765 23.337,3.765 23.318,3.765 C23.318,3.759 23.318,3.753 23.318,3.746 C23.305,3.746 23.292,3.746 23.279,3.746 C23.279,3.740 23.279,3.734 23.279,3.727 C23.260,3.727 23.241,3.727 23.222,3.727 C23.222,3.721 23.222,3.714 23.222,3.708 C23.209,3.708 23.197,3.708 23.184,3.708 C23.184,3.702 23.184,3.695 23.184,3.689 C23.165,3.689 23.146,3.689 23.127,3.689 C23.127,3.683 23.127,3.676 23.127,3.670 C23.114,3.670 23.101,3.670 23.089,3.670 C23.089,3.664 23.089,3.657 23.089,3.651 C23.070,3.651 23.050,3.651 23.031,3.651 C23.031,3.644 23.031,3.638 23.031,3.632 C23.019,3.632 23.006,3.632 22.993,3.632 C22.993,3.625 22.993,3.619 22.993,3.613 C22.955,3.606 22.917,3.600 22.879,3.594 C22.879,3.587 22.879,3.581 22.879,3.575 C22.860,3.575 22.841,3.575 22.822,3.575 C22.822,3.568 22.822,3.562 22.822,3.555 C22.802,3.555 22.783,3.555 22.764,3.555 C22.764,3.549 22.764,3.543 22.764,3.536 C22.745,3.536 22.726,3.536 22.707,3.536 C22.707,3.530 22.707,3.524 22.707,3.517 C22.688,3.517 22.669,3.517 22.650,3.517 C22.650,3.511 22.650,3.505 22.650,3.498 C22.631,3.498 22.612,3.498 22.593,3.498 C22.593,3.492 22.593,3.485 22.593,3.479 C22.567,3.479 22.542,3.479 22.516,3.479 C22.516,3.473 22.516,3.466 22.516,3.460 C22.497,3.460 22.478,3.460 22.459,3.460 C22.459,3.454 22.459,3.447 22.459,3.441 C22.434,3.441 22.408,3.441 22.383,3.441 C22.296,3.412 22.168,3.391 22.078,3.365 C22.027,3.365 21.976,3.365 21.925,3.365 C21.925,3.358 21.925,3.352 21.925,3.346 C21.861,3.346 21.798,3.346 21.734,3.346 C21.734,3.339 21.734,3.333 21.734,3.326 C21.620,3.326 21.505,3.326 21.391,3.326 C21.324,3.308 20.949,3.282 20.857,3.307 C20.857,3.314 20.857,3.320 20.857,3.326 C20.698,3.326 20.539,3.326 20.380,3.326 C20.380,3.333 20.380,3.339 20.380,3.346 C20.265,3.346 20.151,3.346 20.036,3.346 C20.036,3.352 20.036,3.358 20.036,3.365 C19.617,3.377 19.197,3.390 18.777,3.403 C18.777,3.409 18.777,3.416 18.777,3.422 C18.687,3.447 18.327,3.421 18.262,3.403 C18.109,3.403 17.957,3.403 17.804,3.403 C17.804,3.396 17.804,3.390 17.804,3.384 C17.721,3.384 17.639,3.384 17.556,3.384 C17.556,3.377 17.556,3.371 17.556,3.365 C17.499,3.365 17.442,3.365 17.384,3.365 C17.384,3.358 17.384,3.352 17.384,3.346 C17.334,3.346 17.283,3.346 17.232,3.346 C17.232,3.339 17.232,3.333 17.232,3.326 C17.200,3.326 17.168,3.326 17.136,3.326 C16.736,3.198 16.440,3.025 16.221,2.716 C16.202,2.703 16.183,2.690 16.163,2.678 C16.163,2.665 16.163,2.652 16.163,2.640 C16.151,2.633 16.138,2.627 16.125,2.621 C16.125,2.608 16.125,2.595 16.125,2.582 C16.113,2.576 16.100,2.570 16.087,2.563 C16.074,2.525 16.062,2.487 16.049,2.449 C15.952,2.266 15.878,2.062 15.877,1.781 C15.877,1.698 15.877,1.616 15.877,1.533 C15.884,1.533 15.890,1.533 15.896,1.533 C15.896,1.495 15.896,1.457 15.896,1.418 C15.903,1.418 15.909,1.418 15.915,1.418 C15.915,1.393 15.915,1.368 15.915,1.342 C15.922,1.342 15.928,1.342 15.935,1.342 C15.935,1.317 15.935,1.291 15.935,1.266 C15.941,1.266 15.947,1.266 15.954,1.266 C15.954,1.247 15.954,1.228 15.954,1.209 C15.960,1.209 15.966,1.209 15.973,1.209 C15.973,1.190 15.973,1.170 15.973,1.151 C15.979,1.151 15.985,1.151 15.992,1.151 C15.992,1.139 15.992,1.126 15.992,1.113 C15.998,1.113 16.005,1.113 16.011,1.113 C16.011,1.094 16.011,1.075 16.011,1.056 C16.017,1.056 16.024,1.056 16.030,1.056 C16.036,1.031 16.043,1.005 16.049,0.980 C16.055,0.980 16.062,0.980 16.068,0.980 C16.074,0.954 16.081,0.929 16.087,0.903 C16.100,0.897 16.113,0.891 16.125,0.884 C16.125,0.872 16.125,0.859 16.125,0.846 C16.138,0.840 16.151,0.833 16.163,0.827 C16.163,0.814 16.163,0.802 16.163,0.789 C16.183,0.776 16.202,0.763 16.221,0.751 C16.221,0.738 16.221,0.725 16.221,0.713 C16.253,0.687 16.284,0.662 16.316,0.636 C16.373,0.573 16.431,0.509 16.488,0.445 C16.501,0.445 16.513,0.445 16.526,0.445 C16.539,0.426 16.551,0.407 16.564,0.388 C16.577,0.388 16.590,0.388 16.602,0.388 C16.609,0.375 16.615,0.363 16.621,0.350 C16.647,0.344 16.672,0.337 16.698,0.331 C16.704,0.318 16.710,0.305 16.717,0.293 C16.729,0.293 16.742,0.293 16.755,0.293 C16.755,0.286 16.755,0.280 16.755,0.274 C16.780,0.267 16.806,0.261 16.831,0.255 C16.831,0.248 16.831,0.242 16.831,0.236 C16.850,0.236 16.869,0.236 16.888,0.236 C16.888,0.229 16.888,0.223 16.888,0.216 C16.901,0.216 16.914,0.216 16.927,0.216 C16.927,0.210 16.927,0.204 16.927,0.197 C16.971,0.191 17.016,0.185 17.060,0.178 C17.060,0.172 17.060,0.166 17.060,0.159 C17.079,0.159 17.098,0.159 17.117,0.159 C17.117,0.153 17.117,0.146 17.117,0.140 C17.194,0.134 17.270,0.127 17.346,0.121 C17.346,0.115 17.346,0.108 17.346,0.102 C17.452,0.072 17.732,0.120 17.804,0.140 C17.880,0.140 17.957,0.140 18.033,0.140 C18.033,0.146 18.033,0.153 18.033,0.159 C18.135,0.159 18.237,0.159 18.338,0.159 C18.572,0.159 18.926,0.195 19.121,0.140 C19.236,0.108 19.417,0.150 19.521,0.121 C19.814,0.108 20.106,0.096 20.399,0.083 C20.487,0.083 20.735,0.103 20.780,0.064 ZM3.267,3.250 C3.267,14.074 3.267,24.901 3.267,35.724 C4.844,35.724 6.421,35.724 7.998,35.724 C7.998,24.901 7.998,14.074 7.998,3.250 C6.421,3.250 4.844,3.250 3.267,3.250 ZM11.241,18.171 C11.241,24.021 11.241,29.874 11.241,35.724 C14.777,35.724 18.313,35.724 21.849,35.724 C21.849,32.144 21.849,28.562 21.849,24.982 C21.779,24.944 21.709,24.906 21.639,24.868 C21.632,24.855 21.626,24.842 21.620,24.830 C21.607,24.830 21.594,24.830 21.582,24.830 C21.575,24.817 21.569,24.804 21.562,24.791 C21.537,24.785 21.512,24.779 21.486,24.772 C21.480,24.760 21.473,24.747 21.467,24.734 C21.454,24.734 21.442,24.734 21.429,24.734 C21.423,24.721 21.416,24.709 21.410,24.696 C21.397,24.696 21.384,24.696 21.372,24.696 C21.365,24.683 21.359,24.671 21.353,24.658 C21.340,24.658 21.327,24.658 21.314,24.658 C21.308,24.645 21.302,24.632 21.295,24.620 C21.270,24.613 21.244,24.607 21.219,24.601 C21.213,24.588 21.206,24.575 21.200,24.562 C21.187,24.562 21.175,24.562 21.162,24.562 C21.155,24.550 21.149,24.537 21.143,24.524 C21.130,24.524 21.117,24.524 21.105,24.524 C21.098,24.512 21.092,24.499 21.086,24.486 C21.073,24.486 21.060,24.486 21.047,24.486 C21.041,24.473 21.035,24.461 21.028,24.448 C21.003,24.442 20.977,24.435 20.952,24.429 C20.946,24.416 20.939,24.403 20.933,24.391 C20.920,24.391 20.907,24.391 20.895,24.391 C20.895,24.384 20.895,24.378 20.895,24.372 C20.876,24.365 20.857,24.359 20.837,24.353 C20.831,24.340 20.825,24.327 20.818,24.314 C20.806,24.314 20.793,24.314 20.780,24.314 C20.774,24.302 20.768,24.289 20.761,24.276 C20.742,24.270 20.723,24.264 20.704,24.257 C20.704,24.251 20.704,24.244 20.704,24.238 C20.679,24.232 20.653,24.225 20.628,24.219 C20.621,24.206 20.615,24.194 20.609,24.181 C20.596,24.181 20.583,24.181 20.570,24.181 C20.564,24.168 20.558,24.155 20.551,24.143 C20.539,24.143 20.526,24.143 20.513,24.143 C20.507,24.130 20.500,24.117 20.494,24.105 C20.481,24.105 20.469,24.105 20.456,24.105 C20.450,24.092 20.443,24.079 20.437,24.066 C20.411,24.060 20.386,24.054 20.361,24.047 C20.354,24.035 20.348,24.022 20.341,24.009 C20.329,24.009 20.316,24.009 20.303,24.009 C20.297,23.996 20.291,23.984 20.284,23.971 C20.272,23.971 20.259,23.971 20.246,23.971 C20.240,23.958 20.233,23.946 20.227,23.933 C20.214,23.933 20.202,23.933 20.189,23.933 C20.183,23.920 20.176,23.907 20.170,23.895 C20.144,23.888 20.119,23.882 20.093,23.876 C20.093,23.869 20.093,23.863 20.093,23.856 C20.074,23.850 20.055,23.844 20.036,23.837 C20.030,23.825 20.024,23.812 20.017,23.799 C20.004,23.799 19.992,23.799 19.979,23.799 C19.973,23.787 19.966,23.774 19.960,23.761 C19.947,23.761 19.934,23.761 19.922,23.761 C19.915,23.748 19.909,23.736 19.903,23.723 C19.884,23.717 19.865,23.710 19.845,23.704 C19.845,23.697 19.845,23.691 19.845,23.685 C19.820,23.678 19.795,23.672 19.769,23.666 C19.763,23.653 19.756,23.640 19.750,23.628 C19.737,23.628 19.725,23.628 19.712,23.628 C19.706,23.615 19.699,23.602 19.693,23.589 C19.680,23.589 19.667,23.589 19.655,23.589 C19.648,23.577 19.642,23.564 19.636,23.551 C19.623,23.551 19.610,23.551 19.597,23.551 C19.591,23.538 19.585,23.526 19.578,23.513 C19.553,23.507 19.528,23.500 19.502,23.494 C19.496,23.481 19.489,23.469 19.483,23.456 C19.470,23.456 19.458,23.456 19.445,23.456 C19.438,23.443 19.432,23.430 19.426,23.418 C19.413,23.418 19.400,23.418 19.388,23.418 C19.381,23.405 19.375,23.392 19.369,23.379 C19.356,23.379 19.343,23.379 19.330,23.379 C19.324,23.367 19.318,23.354 19.311,23.341 C19.286,23.335 19.260,23.329 19.235,23.322 C19.229,23.310 19.222,23.297 19.216,23.284 C19.203,23.284 19.190,23.284 19.178,23.284 C19.171,23.271 19.165,23.259 19.159,23.246 C19.146,23.246 19.133,23.246 19.121,23.246 C19.114,23.233 19.108,23.220 19.101,23.208 C19.089,23.208 19.076,23.208 19.063,23.208 C19.057,23.195 19.051,23.182 19.044,23.170 C19.019,23.163 18.993,23.157 18.968,23.151 C18.962,23.138 18.955,23.125 18.949,23.112 C18.936,23.112 18.923,23.112 18.911,23.112 C18.911,23.106 18.911,23.100 18.911,23.093 C18.892,23.087 18.873,23.081 18.853,23.074 C18.847,23.061 18.841,23.049 18.834,23.036 C18.822,23.036 18.809,23.036 18.796,23.036 C18.790,23.023 18.783,23.011 18.777,22.998 C18.758,22.992 18.739,22.985 18.720,22.979 C18.720,22.972 18.720,22.966 18.720,22.960 C18.694,22.953 18.669,22.947 18.644,22.941 C18.637,22.928 18.631,22.915 18.624,22.902 C18.612,22.902 18.599,22.902 18.586,22.902 C18.580,22.890 18.574,22.877 18.567,22.864 C18.555,22.864 18.542,22.864 18.529,22.864 C18.523,22.852 18.516,22.839 18.510,22.826 C18.497,22.826 18.485,22.826 18.472,22.826 C18.466,22.813 18.459,22.801 18.453,22.788 C18.427,22.782 18.402,22.775 18.376,22.769 C18.370,22.756 18.364,22.743 18.357,22.731 C18.345,22.731 18.332,22.731 18.319,22.731 C18.313,22.718 18.307,22.705 18.300,22.693 C18.287,22.693 18.275,22.693 18.262,22.693 C18.256,22.680 18.249,22.667 18.243,22.654 C18.230,22.654 18.218,22.654 18.205,22.654 C18.198,22.642 18.192,22.629 18.186,22.616 C18.160,22.610 18.135,22.604 18.109,22.597 C18.103,22.584 18.097,22.572 18.090,22.559 C18.078,22.559 18.065,22.559 18.052,22.559 C18.046,22.546 18.039,22.534 18.033,22.521 C18.020,22.521 18.008,22.521 17.995,22.521 C17.989,22.508 17.982,22.495 17.976,22.483 C17.963,22.483 17.950,22.483 17.938,22.483 C17.931,22.470 17.925,22.457 17.919,22.445 C17.893,22.438 17.868,22.432 17.842,22.425 C17.836,22.413 17.830,22.400 17.823,22.387 C17.811,22.387 17.798,22.387 17.785,22.387 C17.785,22.381 17.785,22.375 17.785,22.368 C17.766,22.362 17.747,22.356 17.728,22.349 C17.721,22.336 17.715,22.324 17.709,22.311 C17.696,22.311 17.683,22.311 17.671,22.311 C17.664,22.298 17.658,22.286 17.652,22.273 C17.632,22.266 17.613,22.260 17.594,22.254 C17.594,22.247 17.594,22.241 17.594,22.235 C17.569,22.228 17.543,22.222 17.518,22.216 C17.518,22.209 17.518,22.203 17.518,22.197 C17.499,22.190 17.480,22.184 17.461,22.177 C17.454,22.165 17.448,22.152 17.442,22.139 C17.429,22.139 17.416,22.139 17.404,22.139 C17.397,22.127 17.391,22.114 17.384,22.101 C17.365,22.095 17.346,22.088 17.327,22.082 C17.327,22.076 17.327,22.069 17.327,22.063 C17.302,22.057 17.276,22.050 17.251,22.044 C17.245,22.031 17.238,22.018 17.232,22.006 C17.219,22.006 17.206,22.006 17.194,22.006 C17.187,21.993 17.181,21.980 17.175,21.968 C17.162,21.968 17.149,21.968 17.136,21.968 C17.130,21.955 17.124,21.942 17.117,21.929 C17.105,21.929 17.092,21.929 17.079,21.929 C17.073,21.917 17.066,21.904 17.060,21.891 C17.035,21.885 17.009,21.879 16.984,21.872 C16.977,21.859 16.971,21.847 16.965,21.834 C16.952,21.834 16.939,21.834 16.927,21.834 C16.927,21.828 16.927,21.821 16.927,21.815 C16.908,21.809 16.888,21.802 16.869,21.796 C16.863,21.783 16.857,21.770 16.850,21.758 C16.838,21.758 16.825,21.758 16.812,21.758 C16.806,21.745 16.799,21.732 16.793,21.720 C16.774,21.713 16.755,21.707 16.736,21.700 C16.736,21.694 16.736,21.688 16.736,21.681 C16.710,21.675 16.685,21.669 16.660,21.662 C16.653,21.650 16.647,21.637 16.640,21.624 C16.628,21.624 16.615,21.624 16.602,21.624 C16.596,21.611 16.590,21.599 16.583,21.586 C16.570,21.586 16.558,21.586 16.545,21.586 C16.539,21.573 16.532,21.561 16.526,21.548 C16.513,21.548 16.501,21.548 16.488,21.548 C16.481,21.535 16.475,21.522 16.469,21.510 C16.443,21.503 16.418,21.497 16.392,21.491 C16.386,21.478 16.380,21.465 16.373,21.452 C16.361,21.452 16.348,21.452 16.335,21.452 C16.329,21.440 16.322,21.427 16.316,21.414 C16.303,21.414 16.291,21.414 16.278,21.414 C16.272,21.402 16.265,21.389 16.259,21.376 C16.246,21.376 16.233,21.376 16.221,21.376 C16.214,21.363 16.208,21.351 16.202,21.338 C16.176,21.332 16.151,21.325 16.125,21.319 C16.119,21.306 16.113,21.293 16.106,21.281 C16.094,21.281 16.081,21.281 16.068,21.281 C16.062,21.268 16.055,21.255 16.049,21.243 C16.036,21.243 16.024,21.243 16.011,21.243 C16.005,21.230 15.998,21.217 15.992,21.204 C15.979,21.204 15.966,21.204 15.954,21.204 C15.947,21.192 15.941,21.179 15.935,21.166 C15.909,21.160 15.884,21.153 15.858,21.147 C15.852,21.134 15.846,21.122 15.839,21.109 C15.826,21.109 15.814,21.109 15.801,21.109 C15.801,21.103 15.801,21.096 15.801,21.090 C15.782,21.084 15.763,21.077 15.744,21.071 C15.737,21.058 15.731,21.045 15.725,21.033 C15.712,21.033 15.699,21.033 15.687,21.033 C15.680,21.020 15.674,21.007 15.667,20.994 C15.648,20.988 15.629,20.982 15.610,20.975 C15.610,20.969 15.610,20.963 15.610,20.956 C15.585,20.950 15.559,20.944 15.534,20.937 C15.534,20.931 15.534,20.925 15.534,20.918 C15.515,20.912 15.496,20.905 15.477,20.899 C15.470,20.886 15.464,20.874 15.458,20.861 C15.445,20.861 15.432,20.861 15.419,20.861 C15.413,20.848 15.407,20.835 15.400,20.823 C15.381,20.816 15.362,20.810 15.343,20.804 C15.343,20.797 15.343,20.791 15.343,20.785 C15.318,20.778 15.292,20.772 15.267,20.766 C15.260,20.753 15.254,20.740 15.248,20.727 C15.235,20.727 15.222,20.727 15.210,20.727 C15.203,20.715 15.197,20.702 15.191,20.689 C15.178,20.689 15.165,20.689 15.152,20.689 C15.146,20.676 15.140,20.664 15.133,20.651 C15.121,20.651 15.108,20.651 15.095,20.651 C15.089,20.638 15.082,20.626 15.076,20.613 C15.051,20.607 15.025,20.600 15.000,20.594 C14.993,20.581 14.987,20.568 14.981,20.556 C14.968,20.556 14.955,20.556 14.943,20.556 C14.943,20.549 14.943,20.543 14.943,20.537 C14.923,20.530 14.904,20.524 14.885,20.517 C14.879,20.505 14.873,20.492 14.866,20.479 C14.853,20.479 14.841,20.479 14.828,20.479 C14.822,20.467 14.815,20.454 14.809,20.441 C14.790,20.435 14.771,20.428 14.752,20.422 C14.752,20.416 14.752,20.409 14.752,20.403 C14.726,20.397 14.701,20.390 14.675,20.384 C14.669,20.371 14.663,20.358 14.656,20.346 C14.644,20.346 14.631,20.346 14.618,20.346 C14.612,20.333 14.605,20.320 14.599,20.308 C14.586,20.308 14.574,20.308 14.561,20.308 C14.555,20.295 14.548,20.282 14.542,20.269 C14.529,20.269 14.516,20.269 14.504,20.269 C14.497,20.257 14.491,20.244 14.485,20.231 C14.459,20.225 14.434,20.219 14.408,20.212 C14.402,20.199 14.396,20.187 14.389,20.174 C14.377,20.174 14.364,20.174 14.351,20.174 C14.345,20.161 14.338,20.149 14.332,20.136 C14.319,20.136 14.307,20.136 14.294,20.136 C14.288,20.123 14.281,20.110 14.275,20.098 C14.262,20.098 14.249,20.098 14.237,20.098 C14.230,20.085 14.224,20.072 14.218,20.060 C14.192,20.053 14.167,20.047 14.141,20.040 C14.135,20.028 14.129,20.015 14.122,20.002 C14.109,20.002 14.097,20.002 14.084,20.002 C14.078,19.990 14.071,19.977 14.065,19.964 C14.052,19.964 14.040,19.964 14.027,19.964 C14.020,19.951 14.014,19.939 14.008,19.926 C13.995,19.926 13.982,19.926 13.970,19.926 C13.963,19.913 13.957,19.901 13.950,19.888 C13.925,19.881 13.900,19.875 13.874,19.869 C13.868,19.856 13.861,19.843 13.855,19.831 C13.842,19.831 13.830,19.831 13.817,19.831 C13.817,19.824 13.817,19.818 13.817,19.812 C13.798,19.805 13.779,19.799 13.760,19.792 C13.753,19.780 13.747,19.767 13.741,19.754 C13.728,19.754 13.715,19.754 13.702,19.754 C13.696,19.742 13.690,19.729 13.683,19.716 C13.664,19.710 13.645,19.703 13.626,19.697 C13.626,19.691 13.626,19.684 13.626,19.678 C13.601,19.672 13.575,19.665 13.550,19.659 C13.543,19.646 13.537,19.633 13.531,19.621 C13.518,19.621 13.505,19.621 13.493,19.621 C13.486,19.608 13.480,19.595 13.474,19.583 C13.461,19.583 13.448,19.583 13.435,19.583 C13.429,19.570 13.423,19.557 13.416,19.544 C13.404,19.544 13.391,19.544 13.378,19.544 C13.372,19.532 13.365,19.519 13.359,19.506 C13.334,19.500 13.308,19.494 13.283,19.487 C13.276,19.474 13.270,19.462 13.264,19.449 C13.251,19.449 13.238,19.449 13.226,19.449 C13.219,19.436 13.213,19.424 13.206,19.411 C13.194,19.411 13.181,19.411 13.168,19.411 C13.162,19.398 13.156,19.385 13.149,19.373 C13.137,19.373 13.124,19.373 13.111,19.373 C13.105,19.360 13.098,19.347 13.092,19.335 C13.067,19.328 13.041,19.322 13.016,19.315 C13.009,19.303 13.003,19.290 12.997,19.277 C12.984,19.277 12.971,19.277 12.958,19.277 C12.952,19.265 12.946,19.252 12.939,19.239 C12.927,19.239 12.914,19.239 12.901,19.239 C12.895,19.226 12.889,19.214 12.882,19.201 C12.869,19.201 12.857,19.201 12.844,19.201 C12.838,19.188 12.831,19.176 12.825,19.163 C12.799,19.156 12.774,19.150 12.749,19.144 C12.742,19.131 12.736,19.118 12.730,19.106 C12.717,19.106 12.704,19.106 12.691,19.106 C12.685,19.093 12.679,19.080 12.672,19.067 C12.660,19.067 12.647,19.067 12.634,19.067 C12.628,19.055 12.621,19.042 12.615,19.029 C12.602,19.029 12.590,19.029 12.577,19.029 C12.571,19.017 12.564,19.004 12.558,18.991 C12.539,18.985 12.520,18.978 12.501,18.972 C12.501,18.966 12.501,18.959 12.501,18.953 C12.475,18.947 12.450,18.940 12.424,18.934 C12.418,18.921 12.412,18.908 12.405,18.896 C12.392,18.896 12.380,18.896 12.367,18.896 C12.361,18.883 12.354,18.870 12.348,18.858 C12.335,18.858 12.323,18.858 12.310,18.858 C12.303,18.845 12.297,18.832 12.291,18.819 C12.278,18.819 12.265,18.819 12.253,18.819 C12.246,18.807 12.240,18.794 12.234,18.781 C12.208,18.775 12.183,18.768 12.157,18.762 C12.151,18.749 12.144,18.737 12.138,18.724 C12.125,18.724 12.113,18.724 12.100,18.724 C12.094,18.711 12.087,18.699 12.081,18.686 C12.068,18.686 12.055,18.686 12.043,18.686 C12.036,18.673 12.030,18.660 12.024,18.648 C12.011,18.648 11.998,18.648 11.985,18.648 C11.979,18.635 11.973,18.622 11.966,18.609 C11.941,18.603 11.916,18.597 11.890,18.590 C11.890,18.584 11.890,18.578 11.890,18.571 C11.871,18.565 11.852,18.559 11.833,18.552 C11.827,18.540 11.820,18.527 11.814,18.514 C11.801,18.514 11.788,18.514 11.776,18.514 C11.769,18.501 11.763,18.489 11.757,18.476 C11.744,18.476 11.731,18.476 11.718,18.476 C11.712,18.463 11.706,18.450 11.699,18.438 C11.687,18.438 11.674,18.438 11.661,18.438 C11.655,18.425 11.648,18.412 11.642,18.400 C11.617,18.393 11.591,18.387 11.566,18.381 C11.559,18.368 11.553,18.355 11.547,18.342 C11.534,18.342 11.521,18.342 11.509,18.342 C11.502,18.330 11.496,18.317 11.489,18.304 C11.477,18.304 11.464,18.304 11.451,18.304 C11.445,18.291 11.439,18.279 11.432,18.266 C11.420,18.266 11.407,18.266 11.394,18.266 C11.388,18.253 11.381,18.241 11.375,18.228 C11.362,18.228 11.350,18.228 11.337,18.228 C11.337,18.222 11.337,18.215 11.337,18.209 C11.324,18.209 11.311,18.209 11.299,18.209 C11.299,18.202 11.299,18.196 11.299,18.190 C11.280,18.183 11.261,18.177 11.241,18.171 ZM25.111,35.724 C28.646,35.724 32.183,35.724 35.718,35.724 C35.718,32.144 35.718,28.562 35.718,24.982 C35.699,24.976 35.680,24.969 35.661,24.963 C35.661,24.957 35.661,24.950 35.661,24.944 C35.648,24.944 35.635,24.944 35.623,24.944 C35.623,24.938 35.623,24.931 35.623,24.925 C35.610,24.925 35.597,24.925 35.584,24.925 C35.578,24.912 35.572,24.900 35.565,24.887 C35.553,24.887 35.540,24.887 35.527,24.887 C35.521,24.874 35.515,24.861 35.508,24.849 C35.495,24.849 35.483,24.849 35.470,24.849 C35.464,24.836 35.457,24.823 35.451,24.810 C35.438,24.810 35.425,24.810 35.413,24.810 C35.406,24.798 35.400,24.785 35.394,24.772 C35.368,24.766 35.343,24.760 35.317,24.753 C35.311,24.741 35.305,24.728 35.298,24.715 C35.286,24.715 35.273,24.715 35.260,24.715 C35.260,24.709 35.260,24.702 35.260,24.696 C35.241,24.690 35.222,24.683 35.203,24.677 C35.197,24.664 35.190,24.651 35.184,24.639 C35.171,24.639 35.158,24.639 35.146,24.639 C35.139,24.626 35.133,24.613 35.127,24.601 C35.108,24.594 35.088,24.588 35.069,24.582 C35.069,24.575 35.069,24.569 35.069,24.562 C35.044,24.556 35.019,24.550 34.993,24.543 C34.987,24.531 34.980,24.518 34.974,24.505 C34.961,24.505 34.949,24.505 34.936,24.505 C34.929,24.492 34.923,24.480 34.917,24.467 C34.904,24.467 34.891,24.467 34.879,24.467 C34.872,24.454 34.866,24.442 34.860,24.429 C34.847,24.429 34.834,24.429 34.821,24.429 C34.815,24.416 34.809,24.403 34.802,24.391 C34.777,24.384 34.751,24.378 34.726,24.372 C34.720,24.359 34.713,24.346 34.707,24.333 C34.694,24.333 34.681,24.333 34.669,24.333 C34.662,24.321 34.656,24.308 34.650,24.295 C34.637,24.295 34.624,24.295 34.612,24.295 C34.605,24.283 34.599,24.270 34.592,24.257 C34.580,24.257 34.567,24.257 34.554,24.257 C34.548,24.244 34.542,24.232 34.535,24.219 C34.510,24.213 34.484,24.206 34.459,24.200 C34.453,24.187 34.446,24.174 34.440,24.162 C34.427,24.162 34.414,24.162 34.402,24.162 C34.402,24.155 34.402,24.149 34.402,24.143 C34.383,24.136 34.364,24.130 34.344,24.124 C34.338,24.111 34.332,24.098 34.325,24.085 C34.313,24.085 34.300,24.085 34.287,24.085 C34.281,24.073 34.274,24.060 34.268,24.047 C34.249,24.041 34.230,24.035 34.211,24.028 C34.211,24.022 34.211,24.015 34.211,24.009 C34.185,24.003 34.160,23.996 34.135,23.990 C34.128,23.977 34.122,23.965 34.116,23.952 C34.103,23.952 34.090,23.952 34.077,23.952 C34.071,23.939 34.065,23.926 34.058,23.914 C34.046,23.914 34.033,23.914 34.020,23.914 C34.014,23.901 34.007,23.888 34.001,23.876 C33.988,23.876 33.976,23.876 33.963,23.876 C33.957,23.863 33.950,23.850 33.944,23.837 C33.918,23.831 33.893,23.825 33.867,23.818 C33.861,23.806 33.855,23.793 33.848,23.780 C33.836,23.780 33.823,23.780 33.810,23.780 C33.804,23.767 33.798,23.755 33.791,23.742 C33.778,23.742 33.766,23.742 33.753,23.742 C33.747,23.729 33.740,23.717 33.734,23.704 C33.721,23.704 33.709,23.704 33.696,23.704 C33.689,23.691 33.683,23.678 33.677,23.666 C33.651,23.659 33.626,23.653 33.600,23.647 C33.594,23.634 33.588,23.621 33.581,23.608 C33.569,23.608 33.556,23.608 33.543,23.608 C33.537,23.596 33.530,23.583 33.524,23.570 C33.511,23.570 33.499,23.570 33.486,23.570 C33.480,23.558 33.473,23.545 33.467,23.532 C33.454,23.532 33.441,23.532 33.429,23.532 C33.422,23.519 33.416,23.507 33.410,23.494 C33.384,23.488 33.359,23.481 33.333,23.475 C33.327,23.462 33.321,23.449 33.314,23.437 C33.302,23.437 33.289,23.437 33.276,23.437 C33.276,23.430 33.276,23.424 33.276,23.418 C33.257,23.411 33.238,23.405 33.219,23.399 C33.212,23.386 33.206,23.373 33.200,23.360 C33.187,23.360 33.174,23.360 33.162,23.360 C33.155,23.348 33.149,23.335 33.143,23.322 C33.123,23.316 33.104,23.310 33.085,23.303 C33.085,23.297 33.085,23.290 33.085,23.284 C33.060,23.278 33.034,23.271 33.009,23.265 C33.003,23.252 32.996,23.240 32.990,23.227 C32.977,23.227 32.964,23.227 32.952,23.227 C32.945,23.214 32.939,23.201 32.933,23.189 C32.920,23.189 32.907,23.189 32.895,23.189 C32.888,23.176 32.882,23.163 32.875,23.151 C32.863,23.151 32.850,23.151 32.837,23.151 C32.831,23.138 32.825,23.125 32.818,23.112 C32.793,23.106 32.767,23.100 32.742,23.093 C32.742,23.087 32.742,23.081 32.742,23.074 C32.723,23.068 32.704,23.061 32.685,23.055 C32.678,23.042 32.672,23.030 32.666,23.017 C32.653,23.017 32.640,23.017 32.627,23.017 C32.621,23.004 32.615,22.992 32.608,22.979 C32.589,22.972 32.570,22.966 32.551,22.960 C32.551,22.953 32.551,22.947 32.551,22.941 C32.526,22.934 32.500,22.928 32.475,22.922 C32.468,22.909 32.462,22.896 32.456,22.883 C32.443,22.883 32.430,22.883 32.418,22.883 C32.411,22.871 32.405,22.858 32.399,22.845 C32.386,22.845 32.373,22.845 32.360,22.845 C32.354,22.833 32.348,22.820 32.341,22.807 C32.329,22.807 32.316,22.807 32.303,22.807 C32.297,22.794 32.290,22.782 32.284,22.769 C32.259,22.763 32.233,22.756 32.208,22.750 C32.201,22.737 32.195,22.724 32.189,22.712 C32.176,22.712 32.163,22.712 32.151,22.712 C32.151,22.705 32.151,22.699 32.151,22.693 C32.131,22.686 32.112,22.680 32.093,22.674 C32.087,22.661 32.081,22.648 32.074,22.635 C32.061,22.635 32.049,22.635 32.036,22.635 C32.030,22.623 32.023,22.610 32.017,22.597 C31.998,22.591 31.979,22.584 31.960,22.578 C31.960,22.572 31.960,22.565 31.960,22.559 C31.934,22.553 31.909,22.546 31.883,22.540 C31.883,22.534 31.883,22.527 31.883,22.521 C31.864,22.515 31.845,22.508 31.826,22.502 C31.820,22.489 31.813,22.476 31.807,22.464 C31.794,22.464 31.782,22.464 31.769,22.464 C31.763,22.451 31.756,22.438 31.750,22.425 C31.731,22.419 31.712,22.413 31.693,22.406 C31.693,22.400 31.693,22.394 31.693,22.387 C31.667,22.381 31.642,22.375 31.616,22.368 C31.610,22.356 31.604,22.343 31.597,22.330 C31.585,22.330 31.572,22.330 31.559,22.330 C31.553,22.317 31.546,22.305 31.540,22.292 C31.527,22.292 31.515,22.292 31.502,22.292 C31.496,22.279 31.489,22.266 31.483,22.254 C31.470,22.254 31.457,22.254 31.445,22.254 C31.438,22.241 31.432,22.228 31.426,22.216 C31.400,22.209 31.375,22.203 31.349,22.197 C31.343,22.184 31.337,22.171 31.330,22.158 C31.317,22.158 31.305,22.158 31.292,22.158 C31.292,22.152 31.292,22.146 31.292,22.139 C31.273,22.133 31.254,22.127 31.235,22.120 C31.228,22.107 31.222,22.095 31.216,22.082 C31.203,22.082 31.190,22.082 31.178,22.082 C31.171,22.069 31.165,22.057 31.158,22.044 C31.139,22.038 31.120,22.031 31.101,22.025 C31.101,22.018 31.101,22.012 31.101,22.006 C31.076,21.999 31.050,21.993 31.025,21.987 C31.019,21.974 31.012,21.961 31.006,21.948 C30.993,21.948 30.980,21.948 30.968,21.948 C30.961,21.936 30.955,21.923 30.949,21.910 C30.936,21.910 30.923,21.910 30.910,21.910 C30.904,21.898 30.898,21.885 30.891,21.872 C30.879,21.872 30.866,21.872 30.853,21.872 C30.847,21.859 30.841,21.847 30.834,21.834 C30.809,21.828 30.783,21.821 30.758,21.815 C30.751,21.802 30.745,21.789 30.739,21.777 C30.726,21.777 30.713,21.777 30.701,21.777 C30.694,21.764 30.688,21.751 30.682,21.739 C30.669,21.739 30.656,21.739 30.643,21.739 C30.637,21.726 30.631,21.713 30.624,21.700 C30.612,21.700 30.599,21.700 30.586,21.700 C30.580,21.688 30.573,21.675 30.567,21.662 C30.542,21.656 30.516,21.650 30.491,21.643 C30.484,21.630 30.478,21.618 30.472,21.605 C30.459,21.605 30.446,21.605 30.434,21.605 C30.427,21.592 30.421,21.580 30.414,21.567 C30.402,21.567 30.389,21.567 30.376,21.567 C30.370,21.554 30.364,21.541 30.357,21.529 C30.344,21.529 30.332,21.529 30.319,21.529 C30.313,21.516 30.306,21.503 30.300,21.491 C30.275,21.484 30.249,21.478 30.224,21.471 C30.217,21.459 30.211,21.446 30.205,21.433 C30.192,21.433 30.179,21.433 30.166,21.433 C30.166,21.427 30.166,21.421 30.166,21.414 C30.147,21.408 30.128,21.402 30.109,21.395 C30.103,21.382 30.096,21.370 30.090,21.357 C30.077,21.357 30.065,21.357 30.052,21.357 C30.046,21.344 30.039,21.332 30.033,21.319 C30.014,21.312 29.995,21.306 29.976,21.300 C29.976,21.293 29.976,21.287 29.976,21.281 C29.950,21.274 29.925,21.268 29.899,21.262 C29.899,21.255 29.899,21.249 29.899,21.243 C29.880,21.236 29.861,21.230 29.842,21.223 C29.836,21.211 29.829,21.198 29.823,21.185 C29.810,21.185 29.798,21.185 29.785,21.185 C29.779,21.173 29.772,21.160 29.766,21.147 C29.747,21.141 29.728,21.134 29.709,21.128 C29.709,21.122 29.709,21.115 29.709,21.109 C29.683,21.103 29.658,21.096 29.632,21.090 C29.626,21.077 29.620,21.064 29.613,21.052 C29.600,21.052 29.588,21.052 29.575,21.052 C29.569,21.039 29.562,21.026 29.556,21.014 C29.543,21.014 29.531,21.014 29.518,21.014 C29.511,21.001 29.505,20.988 29.499,20.975 C29.486,20.975 29.473,20.975 29.461,20.975 C29.454,20.963 29.448,20.950 29.441,20.937 C29.416,20.931 29.391,20.925 29.365,20.918 C29.359,20.905 29.352,20.893 29.346,20.880 C29.333,20.880 29.321,20.880 29.308,20.880 C29.308,20.874 29.308,20.867 29.308,20.861 C29.289,20.855 29.270,20.848 29.251,20.842 C29.244,20.829 29.238,20.816 29.232,20.804 C29.219,20.804 29.206,20.804 29.193,20.804 C29.187,20.791 29.181,20.778 29.174,20.766 C29.155,20.759 29.136,20.753 29.117,20.746 C29.117,20.740 29.117,20.734 29.117,20.727 C29.092,20.721 29.066,20.715 29.041,20.708 C29.035,20.696 29.028,20.683 29.022,20.670 C29.009,20.670 28.996,20.670 28.984,20.670 C28.977,20.657 28.971,20.645 28.965,20.632 C28.952,20.632 28.939,20.632 28.926,20.632 C28.920,20.619 28.914,20.607 28.907,20.594 C28.895,20.594 28.882,20.594 28.869,20.594 C28.863,20.581 28.856,20.568 28.850,20.556 C28.825,20.549 28.799,20.543 28.774,20.537 C28.767,20.524 28.761,20.511 28.755,20.498 C28.742,20.498 28.729,20.498 28.717,20.498 C28.710,20.486 28.704,20.473 28.697,20.460 C28.685,20.460 28.672,20.460 28.659,20.460 C28.653,20.448 28.647,20.435 28.640,20.422 C28.628,20.422 28.615,20.422 28.602,20.422 C28.596,20.409 28.589,20.397 28.583,20.384 C28.558,20.378 28.532,20.371 28.507,20.365 C28.500,20.352 28.494,20.339 28.488,20.327 C28.475,20.327 28.462,20.327 28.449,20.327 C28.443,20.314 28.437,20.301 28.430,20.289 C28.418,20.289 28.405,20.289 28.392,20.289 C28.386,20.276 28.380,20.263 28.373,20.250 C28.360,20.250 28.348,20.250 28.335,20.250 C28.329,20.238 28.322,20.225 28.316,20.212 C28.290,20.206 28.265,20.199 28.240,20.193 C28.233,20.180 28.227,20.168 28.221,20.155 C28.208,20.155 28.195,20.155 28.182,20.155 C28.182,20.149 28.182,20.142 28.182,20.136 C28.163,20.130 28.144,20.123 28.125,20.117 C28.119,20.104 28.112,20.091 28.106,20.079 C28.093,20.079 28.081,20.079 28.068,20.079 C28.062,20.066 28.055,20.053 28.049,20.040 C28.030,20.034 28.011,20.028 27.992,20.021 C27.992,20.015 27.992,20.009 27.992,20.002 C27.966,19.996 27.941,19.990 27.915,19.983 C27.909,19.971 27.903,19.958 27.896,19.945 C27.883,19.945 27.871,19.945 27.858,19.945 C27.852,19.932 27.845,19.920 27.839,19.907 C27.826,19.907 27.814,19.907 27.801,19.907 C27.794,19.894 27.788,19.881 27.782,19.869 C27.769,19.869 27.756,19.869 27.744,19.869 C27.737,19.856 27.731,19.843 27.725,19.831 C27.699,19.824 27.674,19.818 27.648,19.812 C27.642,19.799 27.635,19.786 27.629,19.773 C27.616,19.773 27.604,19.773 27.591,19.773 C27.585,19.761 27.578,19.748 27.572,19.735 C27.559,19.735 27.546,19.735 27.534,19.735 C27.527,19.722 27.521,19.710 27.515,19.697 C27.502,19.697 27.489,19.697 27.476,19.697 C27.470,19.684 27.464,19.672 27.457,19.659 C27.432,19.653 27.407,19.646 27.381,19.640 C27.375,19.627 27.368,19.614 27.362,19.602 C27.349,19.602 27.337,19.602 27.324,19.602 C27.318,19.589 27.311,19.576 27.305,19.563 C27.292,19.563 27.279,19.563 27.267,19.563 C27.260,19.551 27.254,19.538 27.248,19.525 C27.235,19.525 27.222,19.525 27.209,19.525 C27.203,19.513 27.197,19.500 27.190,19.487 C27.165,19.481 27.139,19.474 27.114,19.468 C27.108,19.455 27.101,19.443 27.095,19.430 C27.082,19.430 27.070,19.430 27.057,19.430 C27.057,19.424 27.057,19.417 27.057,19.411 C27.038,19.404 27.019,19.398 27.000,19.392 C26.993,19.379 26.987,19.366 26.980,19.354 C26.968,19.354 26.955,19.354 26.942,19.354 C26.936,19.341 26.930,19.328 26.923,19.315 C26.904,19.309 26.885,19.303 26.866,19.296 C26.866,19.290 26.866,19.284 26.866,19.277 C26.841,19.271 26.815,19.265 26.790,19.258 C26.783,19.245 26.777,19.233 26.771,19.220 C26.758,19.220 26.745,19.220 26.732,19.220 C26.726,19.207 26.720,19.195 26.713,19.182 C26.701,19.182 26.688,19.182 26.675,19.182 C26.669,19.169 26.663,19.156 26.656,19.144 C26.643,19.144 26.631,19.144 26.618,19.144 C26.612,19.131 26.605,19.118 26.599,19.106 C26.573,19.099 26.548,19.093 26.523,19.086 C26.516,19.074 26.510,19.061 26.504,19.048 C26.491,19.048 26.478,19.048 26.465,19.048 C26.459,19.036 26.453,19.023 26.446,19.010 C26.434,19.010 26.421,19.010 26.408,19.010 C26.402,18.997 26.395,18.985 26.389,18.972 C26.376,18.972 26.364,18.972 26.351,18.972 C26.345,18.959 26.338,18.947 26.332,18.934 C26.306,18.927 26.281,18.921 26.256,18.915 C26.249,18.902 26.243,18.889 26.236,18.877 C26.224,18.877 26.211,18.877 26.198,18.877 C26.192,18.864 26.186,18.851 26.179,18.838 C26.167,18.838 26.154,18.838 26.141,18.838 C26.135,18.826 26.128,18.813 26.122,18.800 C26.109,18.800 26.097,18.800 26.084,18.800 C26.077,18.788 26.071,18.775 26.065,18.762 C26.046,18.756 26.027,18.749 26.008,18.743 C26.008,18.737 26.008,18.730 26.008,18.724 C25.982,18.718 25.957,18.711 25.931,18.705 C25.925,18.692 25.918,18.679 25.912,18.667 C25.899,18.667 25.887,18.667 25.874,18.667 C25.868,18.654 25.861,18.641 25.855,18.629 C25.842,18.629 25.829,18.629 25.817,18.629 C25.810,18.616 25.804,18.603 25.798,18.590 C25.785,18.590 25.772,18.590 25.760,18.590 C25.753,18.578 25.747,18.565 25.740,18.552 C25.715,18.546 25.690,18.540 25.664,18.533 C25.658,18.520 25.651,18.508 25.645,18.495 C25.632,18.495 25.620,18.495 25.607,18.495 C25.601,18.482 25.594,18.470 25.588,18.457 C25.575,18.457 25.562,18.457 25.550,18.457 C25.543,18.444 25.537,18.431 25.531,18.419 C25.518,18.419 25.505,18.419 25.492,18.419 C25.486,18.406 25.480,18.393 25.473,18.381 C25.448,18.374 25.422,18.368 25.397,18.361 C25.391,18.349 25.384,18.336 25.378,18.323 C25.365,18.323 25.353,18.323 25.340,18.323 C25.333,18.311 25.327,18.298 25.321,18.285 C25.251,18.247 25.181,18.209 25.111,18.171 C25.111,24.021 25.111,29.874 25.111,35.724 Z"/>
</svg>