<svg 
 xmlns="http://www.w3.org/2000/svg"
 xmlns:xlink="http://www.w3.org/1999/xlink"
 width="50px" height="38px">
<path fill-rule="evenodd"  fill="rgb(49, 49, 49)"
 d="M40.229,26.275 C40.229,27.891 40.229,29.509 40.229,31.125 C40.229,31.517 40.229,31.908 40.229,32.299 C40.229,32.497 40.252,32.760 40.207,32.920 C40.207,32.986 40.207,33.052 40.207,33.119 C40.192,33.237 40.177,33.355 40.163,33.473 C40.096,33.717 40.030,33.961 39.963,34.204 C39.956,34.204 39.948,34.204 39.941,34.204 C39.934,34.241 39.926,34.278 39.919,34.315 C39.911,34.315 39.904,34.315 39.897,34.315 C39.897,34.330 39.897,34.345 39.897,34.359 C39.889,34.359 39.882,34.359 39.875,34.359 C39.875,34.381 39.875,34.404 39.875,34.426 C39.867,34.426 39.860,34.426 39.852,34.426 C39.838,34.470 39.823,34.514 39.808,34.559 C39.801,34.559 39.793,34.559 39.786,34.559 C39.786,34.573 39.786,34.588 39.786,34.603 C39.778,34.603 39.771,34.603 39.764,34.603 C39.764,34.618 39.764,34.633 39.764,34.647 C39.756,34.647 39.749,34.647 39.742,34.647 C39.742,34.662 39.742,34.677 39.742,34.692 C39.734,34.692 39.727,34.692 39.719,34.692 C39.719,34.706 39.719,34.721 39.719,34.736 C39.712,34.736 39.705,34.736 39.697,34.736 C39.697,34.751 39.697,34.765 39.697,34.780 C39.690,34.780 39.682,34.780 39.675,34.780 C39.675,34.795 39.675,34.810 39.675,34.824 C39.668,34.824 39.660,34.824 39.653,34.824 C39.653,34.839 39.653,34.854 39.653,34.869 C39.638,34.876 39.623,34.884 39.609,34.891 C39.601,34.920 39.594,34.950 39.586,34.980 C39.579,34.980 39.572,34.980 39.564,34.980 C39.557,35.002 39.549,35.024 39.542,35.046 C39.527,35.053 39.512,35.061 39.498,35.068 C39.498,35.083 39.498,35.098 39.498,35.112 C39.483,35.120 39.468,35.127 39.453,35.135 C39.453,35.149 39.453,35.164 39.453,35.179 C39.439,35.186 39.424,35.194 39.409,35.201 C39.402,35.223 39.394,35.245 39.387,35.267 C39.365,35.282 39.343,35.297 39.320,35.312 C39.320,35.327 39.320,35.341 39.320,35.356 C39.298,35.371 39.276,35.386 39.254,35.400 C39.246,35.423 39.239,35.445 39.232,35.467 C39.173,35.518 39.113,35.570 39.054,35.622 C39.054,35.637 39.054,35.651 39.054,35.666 C39.010,35.703 38.966,35.740 38.921,35.777 C38.914,35.792 38.907,35.806 38.899,35.821 C38.884,35.821 38.870,35.821 38.855,35.821 C38.803,35.880 38.751,35.939 38.700,35.998 C38.685,35.998 38.670,35.998 38.655,35.998 C38.633,36.028 38.611,36.057 38.589,36.087 C38.567,36.094 38.544,36.102 38.522,36.109 C38.515,36.124 38.508,36.139 38.500,36.153 C38.485,36.153 38.471,36.153 38.456,36.153 C38.441,36.176 38.426,36.198 38.411,36.220 C38.397,36.220 38.382,36.220 38.367,36.220 C38.360,36.235 38.352,36.249 38.345,36.264 C38.323,36.272 38.301,36.279 38.278,36.286 C38.278,36.294 38.278,36.301 38.278,36.309 C38.264,36.309 38.249,36.309 38.234,36.309 C38.227,36.323 38.219,36.338 38.212,36.353 C38.182,36.360 38.153,36.368 38.123,36.375 C38.116,36.390 38.108,36.404 38.101,36.419 C38.057,36.434 38.012,36.449 37.968,36.464 C37.961,36.478 37.953,36.493 37.946,36.508 C37.916,36.515 37.887,36.523 37.857,36.530 C37.857,36.537 37.857,36.545 37.857,36.552 C37.828,36.560 37.798,36.567 37.769,36.574 C37.769,36.582 37.769,36.589 37.769,36.596 C37.746,36.596 37.724,36.596 37.702,36.596 C37.702,36.604 37.702,36.611 37.702,36.619 C37.673,36.626 37.643,36.633 37.613,36.641 C37.613,36.648 37.613,36.656 37.613,36.663 C37.591,36.663 37.569,36.663 37.547,36.663 C37.547,36.670 37.547,36.678 37.547,36.685 C37.532,36.685 37.517,36.685 37.503,36.685 C37.503,36.692 37.503,36.700 37.503,36.707 C37.458,36.715 37.414,36.722 37.370,36.729 C37.370,36.737 37.370,36.744 37.370,36.752 C37.347,36.752 37.325,36.752 37.303,36.752 C37.303,36.759 37.303,36.766 37.303,36.774 C37.281,36.774 37.259,36.774 37.237,36.774 C37.237,36.781 37.237,36.788 37.237,36.796 C37.214,36.796 37.192,36.796 37.170,36.796 C37.170,36.803 37.170,36.811 37.170,36.818 C37.141,36.818 37.111,36.818 37.081,36.818 C37.081,36.825 37.081,36.833 37.081,36.840 C37.052,36.840 37.022,36.840 36.993,36.840 C36.993,36.847 36.993,36.855 36.993,36.862 C36.963,36.862 36.934,36.862 36.904,36.862 C36.904,36.870 36.904,36.877 36.904,36.884 C36.875,36.884 36.845,36.884 36.815,36.884 C36.815,36.892 36.815,36.899 36.815,36.907 C36.778,36.907 36.741,36.907 36.705,36.907 C36.705,36.914 36.705,36.921 36.705,36.929 C36.668,36.929 36.631,36.929 36.594,36.929 C36.594,36.936 36.594,36.943 36.594,36.951 C36.475,36.958 36.357,36.966 36.239,36.973 C36.085,37.016 35.831,36.995 35.640,36.995 C35.264,36.995 34.887,36.995 34.510,36.995 C33.047,36.995 31.584,36.995 30.121,36.995 C23.575,36.995 17.026,36.995 10.480,36.995 C9.150,36.995 7.820,36.995 6.490,36.995 C6.165,36.995 5.840,36.995 5.515,36.995 C5.350,36.995 5.133,37.009 5.005,36.973 C4.931,36.973 4.857,36.973 4.783,36.973 C4.783,36.966 4.783,36.958 4.783,36.951 C4.739,36.951 4.694,36.951 4.650,36.951 C4.650,36.943 4.650,36.936 4.650,36.929 C4.606,36.929 4.561,36.929 4.517,36.929 C4.517,36.921 4.517,36.914 4.517,36.907 C4.487,36.907 4.458,36.907 4.428,36.907 C4.428,36.899 4.428,36.892 4.428,36.884 C4.399,36.884 4.369,36.884 4.340,36.884 C4.340,36.877 4.340,36.870 4.340,36.862 C4.273,36.855 4.207,36.847 4.140,36.840 C4.140,36.833 4.140,36.825 4.140,36.818 C4.118,36.818 4.096,36.818 4.074,36.818 C4.074,36.811 4.074,36.803 4.074,36.796 C4.052,36.796 4.029,36.796 4.007,36.796 C4.007,36.788 4.007,36.781 4.007,36.774 C3.955,36.766 3.904,36.759 3.852,36.752 C3.852,36.744 3.852,36.737 3.852,36.729 C3.837,36.729 3.822,36.729 3.808,36.729 C3.808,36.722 3.808,36.715 3.808,36.707 C3.786,36.707 3.763,36.707 3.741,36.707 C3.741,36.700 3.741,36.692 3.741,36.685 C3.726,36.685 3.712,36.685 3.697,36.685 C3.697,36.678 3.697,36.670 3.697,36.663 C3.675,36.663 3.653,36.663 3.630,36.663 C3.630,36.656 3.630,36.648 3.630,36.641 C3.616,36.641 3.601,36.641 3.586,36.641 C3.586,36.633 3.586,36.626 3.586,36.619 C3.564,36.619 3.542,36.619 3.519,36.619 C3.519,36.611 3.519,36.604 3.519,36.596 C3.475,36.582 3.431,36.567 3.386,36.552 C3.386,36.545 3.386,36.537 3.386,36.530 C3.342,36.515 3.298,36.500 3.253,36.486 C3.246,36.471 3.239,36.456 3.231,36.441 C3.187,36.427 3.143,36.412 3.098,36.397 C3.091,36.382 3.084,36.368 3.076,36.353 C3.061,36.353 3.047,36.353 3.032,36.353 C3.024,36.338 3.017,36.323 3.010,36.309 C2.995,36.309 2.980,36.309 2.965,36.309 C2.958,36.294 2.951,36.279 2.943,36.264 C2.928,36.264 2.914,36.264 2.899,36.264 C2.891,36.249 2.884,36.235 2.877,36.220 C2.862,36.220 2.847,36.220 2.832,36.220 C2.825,36.205 2.818,36.190 2.810,36.176 C2.795,36.176 2.781,36.176 2.766,36.176 C2.751,36.153 2.736,36.131 2.721,36.109 C2.707,36.109 2.692,36.109 2.677,36.109 C2.655,36.080 2.633,36.050 2.611,36.021 C2.596,36.021 2.581,36.021 2.566,36.021 C2.529,35.976 2.492,35.932 2.455,35.888 C2.441,35.888 2.426,35.888 2.411,35.888 C2.352,35.821 2.293,35.755 2.234,35.688 C2.197,35.659 2.160,35.629 2.123,35.600 C2.123,35.585 2.123,35.570 2.123,35.555 C2.079,35.518 2.034,35.482 1.990,35.445 C1.990,35.430 1.990,35.415 1.990,35.400 C1.960,35.378 1.931,35.356 1.901,35.334 C1.894,35.312 1.886,35.290 1.879,35.267 C1.864,35.260 1.850,35.253 1.835,35.245 C1.835,35.231 1.835,35.216 1.835,35.201 C1.820,35.194 1.805,35.186 1.790,35.179 C1.790,35.164 1.790,35.149 1.790,35.135 C1.776,35.127 1.761,35.120 1.746,35.112 C1.746,35.098 1.746,35.083 1.746,35.068 C1.731,35.061 1.717,35.053 1.702,35.046 C1.598,34.861 1.495,34.677 1.391,34.492 C1.391,34.470 1.391,34.448 1.391,34.426 C1.384,34.426 1.377,34.426 1.369,34.426 C1.369,34.411 1.369,34.396 1.369,34.381 C1.362,34.381 1.354,34.381 1.347,34.381 C1.340,34.345 1.332,34.308 1.325,34.271 C1.318,34.271 1.310,34.271 1.303,34.271 C1.303,34.249 1.303,34.226 1.303,34.204 C1.295,34.204 1.288,34.204 1.281,34.204 C1.281,34.190 1.281,34.175 1.281,34.160 C1.273,34.160 1.266,34.160 1.258,34.160 C1.244,34.086 1.229,34.012 1.214,33.938 C1.207,33.938 1.199,33.938 1.192,33.938 C1.192,33.916 1.192,33.894 1.192,33.872 C1.185,33.872 1.177,33.872 1.170,33.872 C1.170,33.842 1.170,33.813 1.170,33.783 C1.162,33.783 1.155,33.783 1.148,33.783 C1.148,33.747 1.148,33.710 1.148,33.673 C1.140,33.673 1.133,33.673 1.125,33.673 C1.125,33.643 1.125,33.614 1.125,33.584 C1.118,33.584 1.111,33.584 1.103,33.584 C1.103,33.555 1.103,33.525 1.103,33.495 C1.096,33.495 1.088,33.495 1.081,33.495 C1.081,33.451 1.081,33.407 1.081,33.363 C0.978,33.013 1.015,32.498 1.015,32.056 C1.015,31.148 1.015,30.239 1.015,29.331 C1.015,25.729 1.015,22.125 1.015,18.522 C1.015,17.599 1.015,16.676 1.015,15.753 C1.015,15.466 0.970,14.969 1.037,14.735 C1.044,14.609 1.051,14.483 1.059,14.358 C1.066,14.358 1.074,14.358 1.081,14.358 C1.088,14.284 1.096,14.210 1.103,14.136 C1.111,14.136 1.118,14.136 1.125,14.136 C1.133,14.077 1.140,14.018 1.148,13.959 C1.155,13.959 1.162,13.959 1.170,13.959 C1.177,13.900 1.185,13.841 1.192,13.782 C1.199,13.782 1.207,13.782 1.214,13.782 C1.214,13.760 1.214,13.738 1.214,13.716 C1.221,13.716 1.229,13.716 1.236,13.716 C1.236,13.693 1.236,13.671 1.236,13.649 C1.244,13.649 1.251,13.649 1.258,13.649 C1.258,13.627 1.258,13.605 1.258,13.583 C1.266,13.583 1.273,13.583 1.281,13.583 C1.288,13.538 1.295,13.494 1.303,13.450 C1.310,13.450 1.318,13.450 1.325,13.450 C1.325,13.435 1.325,13.420 1.325,13.406 C1.332,13.406 1.340,13.406 1.347,13.406 C1.347,13.383 1.347,13.361 1.347,13.339 C1.354,13.339 1.362,13.339 1.369,13.339 C1.384,13.295 1.399,13.250 1.414,13.206 C1.421,13.206 1.428,13.206 1.436,13.206 C1.436,13.191 1.436,13.177 1.436,13.162 C1.443,13.162 1.451,13.162 1.458,13.162 C1.458,13.140 1.458,13.118 1.458,13.095 C1.473,13.088 1.487,13.081 1.502,13.073 C1.502,13.059 1.502,13.044 1.502,13.029 C1.510,13.029 1.517,13.029 1.524,13.029 C1.524,13.014 1.524,12.999 1.524,12.985 C1.532,12.985 1.539,12.985 1.547,12.985 C1.547,12.970 1.547,12.955 1.547,12.940 C1.554,12.940 1.561,12.940 1.569,12.940 C1.569,12.926 1.569,12.911 1.569,12.896 C1.584,12.889 1.598,12.881 1.613,12.874 C1.620,12.844 1.628,12.815 1.635,12.785 C1.650,12.778 1.665,12.771 1.680,12.763 C1.687,12.734 1.694,12.704 1.702,12.675 C1.717,12.667 1.731,12.660 1.746,12.652 C1.746,12.638 1.746,12.623 1.746,12.608 C1.768,12.593 1.790,12.579 1.813,12.564 C1.813,12.549 1.813,12.534 1.813,12.520 C1.835,12.505 1.857,12.490 1.879,12.475 C1.879,12.460 1.879,12.446 1.879,12.431 C1.901,12.416 1.923,12.401 1.946,12.387 C1.946,12.372 1.946,12.357 1.946,12.342 C1.975,12.320 2.005,12.298 2.034,12.276 C2.034,12.261 2.034,12.246 2.034,12.232 C2.130,12.143 2.226,12.054 2.322,11.966 C2.389,11.892 2.455,11.818 2.522,11.744 C2.537,11.744 2.552,11.744 2.566,11.744 C2.588,11.715 2.611,11.685 2.633,11.656 C2.648,11.656 2.662,11.656 2.677,11.656 C2.692,11.634 2.707,11.611 2.721,11.589 C2.736,11.589 2.751,11.589 2.766,11.589 C2.781,11.567 2.795,11.545 2.810,11.523 C2.825,11.523 2.840,11.523 2.854,11.523 C2.862,11.508 2.869,11.493 2.877,11.478 C2.899,11.471 2.921,11.464 2.943,11.456 C2.943,11.449 2.943,11.442 2.943,11.434 C2.958,11.434 2.973,11.434 2.987,11.434 C2.995,11.419 3.002,11.405 3.010,11.390 C3.024,11.390 3.039,11.390 3.054,11.390 C3.061,11.375 3.069,11.360 3.076,11.346 C3.120,11.331 3.165,11.316 3.209,11.301 C3.217,11.287 3.224,11.272 3.231,11.257 C3.276,11.242 3.320,11.227 3.364,11.213 C3.364,11.205 3.364,11.198 3.364,11.191 C3.379,11.191 3.394,11.191 3.409,11.191 C3.409,11.183 3.409,11.176 3.409,11.168 C3.453,11.154 3.497,11.139 3.542,11.124 C3.542,11.117 3.542,11.109 3.542,11.102 C3.564,11.102 3.586,11.102 3.608,11.102 C3.608,11.095 3.608,11.087 3.608,11.080 C3.623,11.080 3.638,11.080 3.653,11.080 C3.653,11.072 3.653,11.065 3.653,11.058 C3.675,11.058 3.697,11.058 3.719,11.058 C3.719,11.050 3.719,11.043 3.719,11.035 C3.734,11.035 3.749,11.035 3.763,11.035 C3.763,11.028 3.763,11.021 3.763,11.013 C3.808,11.006 3.852,10.999 3.896,10.991 C3.896,10.984 3.896,10.976 3.896,10.969 C3.919,10.969 3.941,10.969 3.963,10.969 C3.963,10.962 3.963,10.954 3.963,10.947 C3.985,10.947 4.007,10.947 4.029,10.947 C4.029,10.940 4.029,10.932 4.029,10.925 C4.052,10.925 4.074,10.925 4.096,10.925 C4.096,10.917 4.096,10.910 4.096,10.903 C4.125,10.903 4.155,10.903 4.185,10.903 C4.185,10.895 4.185,10.888 4.185,10.880 C4.244,10.873 4.303,10.866 4.362,10.858 C4.362,10.851 4.362,10.844 4.362,10.836 C4.473,10.821 4.584,10.807 4.694,10.792 C4.694,10.784 4.694,10.777 4.694,10.770 C4.857,10.762 5.020,10.755 5.182,10.748 C5.182,10.740 5.182,10.733 5.182,10.725 C5.574,10.725 5.965,10.725 6.357,10.725 C7.495,10.725 8.633,10.725 9.771,10.725 C9.771,9.109 9.771,7.491 9.771,5.875 C9.771,5.476 9.771,5.077 9.771,4.678 C9.771,4.481 9.748,4.218 9.793,4.058 C9.793,3.992 9.793,3.925 9.793,3.859 C9.797,3.811 9.825,3.700 9.837,3.660 C9.837,3.615 9.837,3.571 9.837,3.527 C9.904,3.283 9.970,3.039 10.037,2.796 C10.044,2.796 10.052,2.796 10.059,2.796 C10.066,2.759 10.074,2.722 10.081,2.685 C10.089,2.685 10.096,2.685 10.103,2.685 C10.103,2.670 10.103,2.655 10.103,2.641 C10.111,2.641 10.118,2.641 10.125,2.641 C10.125,2.619 10.125,2.596 10.125,2.574 C10.133,2.574 10.140,2.574 10.148,2.574 C10.162,2.530 10.177,2.486 10.192,2.441 C10.199,2.441 10.207,2.441 10.214,2.441 C10.214,2.427 10.214,2.412 10.214,2.397 C10.222,2.397 10.229,2.397 10.236,2.397 C10.236,2.382 10.236,2.367 10.236,2.353 C10.244,2.353 10.251,2.353 10.258,2.353 C10.258,2.338 10.258,2.323 10.258,2.308 C10.266,2.308 10.273,2.308 10.281,2.308 C10.281,2.294 10.281,2.279 10.281,2.264 C10.288,2.264 10.295,2.264 10.303,2.264 C10.303,2.249 10.303,2.235 10.303,2.220 C10.310,2.220 10.318,2.220 10.325,2.220 C10.325,2.205 10.325,2.190 10.325,2.176 C10.332,2.176 10.340,2.176 10.347,2.176 C10.347,2.161 10.347,2.146 10.347,2.131 C10.362,2.124 10.377,2.116 10.391,2.109 C10.399,2.080 10.406,2.050 10.414,2.020 C10.421,2.020 10.428,2.020 10.436,2.020 C10.443,1.998 10.451,1.976 10.458,1.954 C10.473,1.947 10.488,1.939 10.502,1.932 C10.502,1.917 10.502,1.902 10.502,1.888 C10.517,1.880 10.532,1.873 10.547,1.865 C10.547,1.851 10.547,1.836 10.547,1.821 C10.561,1.814 10.576,1.806 10.591,1.799 C10.598,1.777 10.606,1.755 10.613,1.733 C10.635,1.718 10.657,1.703 10.680,1.688 C10.680,1.673 10.680,1.659 10.680,1.644 C10.702,1.629 10.724,1.614 10.746,1.600 C10.754,1.577 10.761,1.555 10.768,1.533 C10.827,1.482 10.887,1.430 10.946,1.378 C10.946,1.363 10.946,1.349 10.946,1.334 C10.990,1.297 11.034,1.260 11.079,1.223 C11.086,1.208 11.093,1.194 11.101,1.179 C11.116,1.179 11.130,1.179 11.145,1.179 C11.197,1.120 11.249,1.061 11.300,1.002 C11.315,1.002 11.330,1.002 11.345,1.002 C11.367,0.972 11.389,0.943 11.411,0.913 C11.433,0.906 11.456,0.898 11.478,0.891 C11.485,0.876 11.492,0.861 11.500,0.847 C11.515,0.847 11.529,0.847 11.544,0.847 C11.559,0.824 11.574,0.802 11.589,0.780 C11.603,0.780 11.618,0.780 11.633,0.780 C11.640,0.765 11.648,0.751 11.655,0.736 C11.677,0.728 11.699,0.721 11.722,0.714 C11.722,0.706 11.722,0.699 11.722,0.691 C11.736,0.691 11.751,0.691 11.766,0.691 C11.773,0.677 11.781,0.662 11.788,0.647 C11.818,0.640 11.847,0.632 11.877,0.625 C11.884,0.610 11.892,0.596 11.899,0.581 C11.943,0.566 11.988,0.551 12.032,0.536 C12.039,0.522 12.047,0.507 12.054,0.492 C12.084,0.485 12.113,0.477 12.143,0.470 C12.143,0.463 12.143,0.455 12.143,0.448 C12.172,0.440 12.202,0.433 12.231,0.426 C12.231,0.418 12.231,0.411 12.231,0.404 C12.254,0.404 12.276,0.404 12.298,0.404 C12.298,0.396 12.298,0.389 12.298,0.381 C12.327,0.374 12.357,0.367 12.387,0.359 C12.387,0.352 12.387,0.344 12.387,0.337 C12.409,0.337 12.431,0.337 12.453,0.337 C12.453,0.330 12.453,0.322 12.453,0.315 C12.468,0.315 12.483,0.315 12.497,0.315 C12.497,0.308 12.497,0.300 12.497,0.293 C12.542,0.285 12.586,0.278 12.630,0.271 C12.630,0.263 12.630,0.256 12.630,0.248 C12.653,0.248 12.675,0.248 12.697,0.248 C12.697,0.241 12.697,0.234 12.697,0.226 C12.719,0.226 12.741,0.226 12.763,0.226 C12.763,0.219 12.763,0.212 12.763,0.204 C12.786,0.204 12.808,0.204 12.830,0.204 C12.830,0.197 12.830,0.189 12.830,0.182 C12.859,0.182 12.889,0.182 12.919,0.182 C12.919,0.175 12.919,0.167 12.919,0.160 C12.948,0.160 12.978,0.160 13.007,0.160 C13.007,0.153 13.007,0.145 13.007,0.138 C13.037,0.138 13.066,0.138 13.096,0.138 C13.096,0.130 13.096,0.123 13.096,0.116 C13.125,0.116 13.155,0.116 13.185,0.116 C13.185,0.108 13.185,0.101 13.185,0.093 C13.222,0.093 13.259,0.093 13.295,0.093 C13.295,0.086 13.295,0.079 13.295,0.071 C13.332,0.071 13.369,0.071 13.406,0.071 C13.406,0.064 13.406,0.057 13.406,0.049 C13.525,0.042 13.643,0.034 13.761,0.027 C13.915,-0.016 14.169,0.005 14.360,0.005 C14.736,0.005 15.113,0.005 15.490,0.005 C16.953,0.005 18.416,0.005 19.879,0.005 C26.425,0.005 32.974,0.005 39.520,0.005 C40.850,0.005 42.180,0.005 43.510,0.005 C43.835,0.005 44.160,0.005 44.485,0.005 C44.650,0.005 44.867,-0.009 44.995,0.027 C45.069,0.027 45.143,0.027 45.217,0.027 C45.217,0.034 45.217,0.042 45.217,0.049 C45.261,0.049 45.306,0.049 45.350,0.049 C45.350,0.057 45.350,0.064 45.350,0.071 C45.394,0.071 45.439,0.071 45.483,0.071 C45.483,0.079 45.483,0.086 45.483,0.093 C45.513,0.093 45.542,0.093 45.572,0.093 C45.572,0.101 45.572,0.108 45.572,0.116 C45.601,0.116 45.631,0.116 45.660,0.116 C45.660,0.123 45.660,0.130 45.660,0.138 C45.727,0.145 45.793,0.153 45.860,0.160 C45.860,0.167 45.860,0.175 45.860,0.182 C45.882,0.182 45.904,0.182 45.926,0.182 C45.926,0.189 45.926,0.197 45.926,0.204 C45.948,0.204 45.971,0.204 45.993,0.204 C45.993,0.212 45.993,0.219 45.993,0.226 C46.045,0.234 46.096,0.241 46.148,0.248 C46.148,0.256 46.148,0.263 46.148,0.271 C46.163,0.271 46.178,0.271 46.192,0.271 C46.192,0.278 46.192,0.285 46.192,0.293 C46.214,0.293 46.237,0.293 46.259,0.293 C46.259,0.300 46.259,0.308 46.259,0.315 C46.274,0.315 46.288,0.315 46.303,0.315 C46.303,0.322 46.303,0.330 46.303,0.337 C46.325,0.337 46.347,0.337 46.370,0.337 C46.370,0.344 46.370,0.352 46.370,0.359 C46.384,0.359 46.399,0.359 46.414,0.359 C46.414,0.367 46.414,0.374 46.414,0.381 C46.436,0.381 46.458,0.381 46.481,0.381 C46.481,0.389 46.481,0.396 46.481,0.404 C46.525,0.418 46.569,0.433 46.614,0.448 C46.614,0.455 46.614,0.463 46.614,0.470 C46.658,0.485 46.702,0.500 46.747,0.514 C46.754,0.529 46.761,0.544 46.769,0.559 C46.813,0.573 46.857,0.588 46.902,0.603 C46.909,0.618 46.916,0.632 46.924,0.647 C46.939,0.647 46.953,0.647 46.968,0.647 C46.976,0.662 46.983,0.677 46.990,0.691 C47.005,0.691 47.020,0.691 47.035,0.691 C47.042,0.706 47.049,0.721 47.057,0.736 C47.072,0.736 47.086,0.736 47.101,0.736 C47.109,0.751 47.116,0.765 47.123,0.780 C47.138,0.780 47.153,0.780 47.168,0.780 C47.175,0.795 47.182,0.810 47.190,0.824 C47.205,0.824 47.219,0.824 47.234,0.824 C47.249,0.847 47.264,0.869 47.279,0.891 C47.293,0.891 47.308,0.891 47.323,0.891 C47.345,0.920 47.367,0.950 47.389,0.979 C47.404,0.979 47.419,0.979 47.434,0.979 C47.471,1.024 47.508,1.068 47.545,1.112 C47.559,1.112 47.574,1.112 47.589,1.112 C47.648,1.179 47.707,1.245 47.766,1.312 C47.803,1.341 47.840,1.371 47.877,1.400 C47.877,1.415 47.877,1.430 47.877,1.445 C47.921,1.482 47.966,1.518 48.010,1.555 C48.010,1.570 48.010,1.585 48.010,1.600 C48.040,1.622 48.069,1.644 48.099,1.666 C48.106,1.688 48.114,1.710 48.121,1.733 C48.136,1.740 48.150,1.747 48.165,1.755 C48.165,1.769 48.165,1.784 48.165,1.799 C48.180,1.806 48.195,1.814 48.210,1.821 C48.210,1.836 48.210,1.851 48.210,1.865 C48.224,1.873 48.239,1.880 48.254,1.888 C48.254,1.902 48.254,1.917 48.254,1.932 C48.269,1.939 48.283,1.947 48.298,1.954 C48.402,2.139 48.505,2.323 48.609,2.508 C48.609,2.530 48.609,2.552 48.609,2.574 C48.616,2.574 48.623,2.574 48.631,2.574 C48.631,2.589 48.631,2.604 48.631,2.619 C48.638,2.619 48.646,2.619 48.653,2.619 C48.660,2.655 48.668,2.692 48.675,2.729 C48.682,2.729 48.690,2.729 48.697,2.729 C48.697,2.751 48.697,2.774 48.697,2.796 C48.705,2.796 48.712,2.796 48.719,2.796 C48.719,2.810 48.719,2.825 48.719,2.840 C48.727,2.840 48.734,2.840 48.742,2.840 C48.756,2.914 48.771,2.988 48.786,3.062 C48.793,3.062 48.801,3.062 48.808,3.062 C48.808,3.084 48.808,3.106 48.808,3.128 C48.815,3.128 48.823,3.128 48.830,3.128 C48.830,3.158 48.830,3.187 48.830,3.217 C48.838,3.217 48.845,3.217 48.852,3.217 C48.852,3.253 48.852,3.290 48.852,3.327 C48.860,3.327 48.867,3.327 48.875,3.327 C48.875,3.357 48.875,3.386 48.875,3.416 C48.882,3.416 48.889,3.416 48.897,3.416 C48.897,3.445 48.897,3.475 48.897,3.505 C48.904,3.505 48.912,3.505 48.919,3.505 C48.919,3.549 48.919,3.593 48.919,3.637 C49.022,3.987 48.985,4.502 48.985,4.944 C48.985,5.852 48.985,6.761 48.985,7.669 C48.985,11.271 48.985,14.875 48.985,18.478 C48.985,19.401 48.985,20.324 48.985,21.247 C48.985,21.534 49.030,22.031 48.963,22.265 C48.956,22.391 48.949,22.517 48.941,22.642 C48.934,22.642 48.926,22.642 48.919,22.642 C48.912,22.716 48.904,22.790 48.897,22.864 C48.889,22.864 48.882,22.864 48.875,22.864 C48.867,22.923 48.860,22.982 48.852,23.041 C48.845,23.041 48.838,23.041 48.830,23.041 C48.823,23.100 48.815,23.159 48.808,23.218 C48.801,23.218 48.793,23.218 48.786,23.218 C48.786,23.240 48.786,23.262 48.786,23.284 C48.779,23.284 48.771,23.284 48.764,23.284 C48.764,23.307 48.764,23.329 48.764,23.351 C48.756,23.351 48.749,23.351 48.742,23.351 C48.742,23.373 48.742,23.395 48.742,23.417 C48.734,23.417 48.727,23.417 48.719,23.417 C48.712,23.462 48.705,23.506 48.697,23.550 C48.690,23.550 48.682,23.550 48.675,23.550 C48.675,23.565 48.675,23.580 48.675,23.594 C48.668,23.594 48.660,23.594 48.653,23.594 C48.653,23.617 48.653,23.639 48.653,23.661 C48.646,23.661 48.638,23.661 48.631,23.661 C48.616,23.705 48.601,23.750 48.586,23.794 C48.579,23.794 48.572,23.794 48.564,23.794 C48.564,23.809 48.564,23.823 48.564,23.838 C48.557,23.838 48.549,23.838 48.542,23.838 C48.542,23.853 48.542,23.868 48.542,23.882 C48.535,23.882 48.527,23.882 48.520,23.882 C48.520,23.897 48.520,23.912 48.520,23.927 C48.513,23.927 48.505,23.927 48.498,23.927 C48.498,23.941 48.498,23.956 48.498,23.971 C48.490,23.971 48.483,23.971 48.476,23.971 C48.476,23.986 48.476,24.001 48.476,24.015 C48.468,24.015 48.461,24.015 48.453,24.015 C48.453,24.030 48.453,24.045 48.453,24.060 C48.446,24.060 48.439,24.060 48.431,24.060 C48.431,24.074 48.431,24.089 48.431,24.104 C48.416,24.111 48.402,24.119 48.387,24.126 C48.380,24.156 48.372,24.185 48.365,24.215 C48.350,24.222 48.335,24.229 48.320,24.237 C48.313,24.266 48.306,24.296 48.298,24.325 C48.283,24.333 48.269,24.340 48.254,24.348 C48.254,24.362 48.254,24.377 48.254,24.392 C48.232,24.407 48.210,24.421 48.187,24.436 C48.187,24.451 48.187,24.466 48.187,24.480 C48.165,24.495 48.143,24.510 48.121,24.525 C48.121,24.540 48.121,24.554 48.121,24.569 C48.099,24.584 48.077,24.599 48.054,24.613 C48.054,24.628 48.054,24.643 48.054,24.658 C48.025,24.680 47.995,24.702 47.966,24.724 C47.966,24.739 47.966,24.754 47.966,24.768 C47.870,24.857 47.774,24.946 47.678,25.034 C47.618,25.101 47.559,25.167 47.500,25.234 C47.485,25.234 47.471,25.234 47.456,25.234 C47.426,25.270 47.397,25.307 47.367,25.344 C47.352,25.344 47.338,25.344 47.323,25.344 C47.308,25.366 47.293,25.389 47.279,25.411 C47.264,25.411 47.249,25.411 47.234,25.411 C47.219,25.433 47.205,25.455 47.190,25.477 C47.175,25.477 47.160,25.477 47.146,25.477 C47.138,25.492 47.131,25.507 47.123,25.522 C47.101,25.529 47.079,25.536 47.057,25.544 C47.057,25.551 47.057,25.558 47.057,25.566 C47.042,25.566 47.027,25.566 47.013,25.566 C47.005,25.581 46.998,25.595 46.990,25.610 C46.976,25.610 46.961,25.610 46.946,25.610 C46.939,25.625 46.931,25.640 46.924,25.654 C46.880,25.669 46.835,25.684 46.791,25.699 C46.783,25.713 46.776,25.728 46.769,25.743 C46.724,25.758 46.680,25.773 46.636,25.787 C46.636,25.795 46.636,25.802 46.636,25.809 C46.621,25.809 46.606,25.809 46.591,25.809 C46.591,25.817 46.591,25.824 46.591,25.832 C46.547,25.846 46.503,25.861 46.458,25.876 C46.458,25.883 46.458,25.891 46.458,25.898 C46.436,25.898 46.414,25.898 46.392,25.898 C46.392,25.905 46.392,25.913 46.392,25.920 C46.377,25.920 46.362,25.920 46.347,25.920 C46.347,25.928 46.347,25.935 46.347,25.942 C46.325,25.942 46.303,25.942 46.281,25.942 C46.281,25.950 46.281,25.957 46.281,25.965 C46.266,25.965 46.251,25.965 46.237,25.965 C46.237,25.972 46.237,25.979 46.237,25.987 C46.192,25.994 46.148,26.001 46.104,26.009 C46.104,26.016 46.104,26.024 46.104,26.031 C46.081,26.031 46.059,26.031 46.037,26.031 C46.037,26.038 46.037,26.046 46.037,26.053 C46.015,26.053 45.993,26.053 45.971,26.053 C45.971,26.060 45.971,26.068 45.971,26.075 C45.948,26.075 45.926,26.075 45.904,26.075 C45.904,26.083 45.904,26.090 45.904,26.097 C45.875,26.097 45.845,26.097 45.815,26.097 C45.815,26.105 45.815,26.112 45.815,26.120 C45.756,26.127 45.697,26.134 45.638,26.142 C45.638,26.149 45.638,26.156 45.638,26.164 C45.527,26.179 45.416,26.193 45.306,26.208 C45.306,26.216 45.306,26.223 45.306,26.230 C45.136,26.238 44.966,26.245 44.796,26.252 C44.796,26.260 44.796,26.267 44.796,26.275 C44.412,26.275 44.027,26.275 43.643,26.275 C42.505,26.275 41.367,26.275 40.229,26.275 ZM12.697,5.520 C23.817,5.520 34.940,5.520 46.059,5.520 C46.059,5.181 46.059,4.841 46.059,4.501 C46.052,4.324 46.045,4.147 46.037,3.970 C46.030,3.970 46.022,3.970 46.015,3.970 C46.000,3.903 45.985,3.837 45.971,3.770 C45.963,3.770 45.956,3.770 45.948,3.770 C45.934,3.726 45.919,3.682 45.904,3.637 C45.897,3.637 45.889,3.637 45.882,3.637 C45.882,3.623 45.882,3.608 45.882,3.593 C45.875,3.593 45.867,3.593 45.860,3.593 C45.852,3.571 45.845,3.549 45.838,3.527 C45.823,3.519 45.808,3.512 45.793,3.505 C45.793,3.490 45.793,3.475 45.793,3.460 C45.734,3.409 45.675,3.357 45.616,3.305 C45.586,3.268 45.557,3.231 45.527,3.194 C45.513,3.194 45.498,3.194 45.483,3.194 C45.476,3.180 45.468,3.165 45.461,3.150 C45.439,3.143 45.416,3.135 45.394,3.128 C45.394,3.121 45.394,3.113 45.394,3.106 C45.380,3.106 45.365,3.106 45.350,3.106 C45.350,3.098 45.350,3.091 45.350,3.084 C45.306,3.069 45.261,3.054 45.217,3.039 C45.217,3.032 45.217,3.025 45.217,3.017 C45.150,3.002 45.084,2.988 45.017,2.973 C45.017,2.966 45.017,2.958 45.017,2.951 C44.833,2.943 44.648,2.936 44.463,2.929 C44.109,2.929 43.754,2.929 43.399,2.929 C41.877,2.929 40.355,2.929 38.833,2.929 C32.316,2.929 25.797,2.929 19.281,2.929 C17.921,2.929 16.561,2.929 15.202,2.929 C14.921,2.929 14.640,2.929 14.360,2.929 C14.214,2.929 14.026,2.919 13.916,2.951 C13.835,2.958 13.754,2.966 13.672,2.973 C13.672,2.980 13.672,2.988 13.672,2.995 C13.650,2.995 13.628,2.995 13.606,2.995 C13.606,3.002 13.606,3.010 13.606,3.017 C13.591,3.017 13.576,3.017 13.561,3.017 C13.561,3.025 13.561,3.032 13.561,3.039 C13.539,3.039 13.517,3.039 13.495,3.039 C13.495,3.047 13.495,3.054 13.495,3.062 C13.480,3.062 13.465,3.062 13.451,3.062 C13.451,3.069 13.451,3.076 13.451,3.084 C13.436,3.084 13.421,3.084 13.406,3.084 C13.399,3.098 13.392,3.113 13.384,3.128 C13.355,3.135 13.325,3.143 13.295,3.150 C13.281,3.172 13.266,3.194 13.251,3.217 C13.236,3.217 13.222,3.217 13.207,3.217 C13.185,3.246 13.162,3.276 13.140,3.305 C13.089,3.349 13.037,3.394 12.985,3.438 C12.985,3.453 12.985,3.468 12.985,3.482 C12.963,3.497 12.941,3.512 12.919,3.527 C12.911,3.556 12.904,3.586 12.896,3.615 C12.889,3.615 12.882,3.615 12.874,3.615 C12.874,3.630 12.874,3.645 12.874,3.660 C12.867,3.660 12.859,3.660 12.852,3.660 C12.852,3.674 12.852,3.689 12.852,3.704 C12.845,3.704 12.837,3.704 12.830,3.704 C12.815,3.748 12.800,3.792 12.786,3.837 C12.778,3.837 12.771,3.837 12.763,3.837 C12.763,3.859 12.763,3.881 12.763,3.903 C12.756,3.903 12.749,3.903 12.741,3.903 C12.734,4.021 12.726,4.140 12.719,4.258 C12.712,4.258 12.704,4.258 12.697,4.258 C12.697,4.678 12.697,5.099 12.697,5.520 ZM12.697,8.444 C12.697,9.204 12.697,9.965 12.697,10.725 C23.817,10.733 34.940,10.740 46.059,10.748 C46.059,9.980 46.059,9.212 46.059,8.444 C34.940,8.444 23.817,8.444 12.697,8.444 ZM5.049,13.671 C5.006,13.710 4.931,13.692 4.872,13.716 C4.872,13.723 4.872,13.730 4.872,13.738 C4.850,13.738 4.827,13.738 4.805,13.738 C4.805,13.745 4.805,13.753 4.805,13.760 C4.761,13.775 4.717,13.789 4.672,13.804 C4.672,13.812 4.672,13.819 4.672,13.826 C4.643,13.834 4.613,13.841 4.584,13.849 C4.576,13.863 4.569,13.878 4.561,13.893 C4.547,13.893 4.532,13.893 4.517,13.893 C4.502,13.915 4.487,13.937 4.473,13.959 C4.458,13.959 4.443,13.959 4.428,13.959 C4.414,13.981 4.399,14.004 4.384,14.026 C4.340,14.063 4.295,14.100 4.251,14.136 C4.251,14.151 4.251,14.166 4.251,14.181 C4.229,14.196 4.207,14.210 4.185,14.225 C4.185,14.240 4.185,14.255 4.185,14.269 C4.170,14.277 4.155,14.284 4.140,14.292 C4.140,14.306 4.140,14.321 4.140,14.336 C4.133,14.336 4.125,14.336 4.118,14.336 C4.118,14.351 4.118,14.365 4.118,14.380 C4.111,14.380 4.103,14.380 4.096,14.380 C4.096,14.395 4.096,14.410 4.096,14.424 C4.088,14.424 4.081,14.424 4.074,14.424 C4.074,14.439 4.074,14.454 4.074,14.469 C4.066,14.469 4.059,14.469 4.052,14.469 C4.052,14.483 4.052,14.498 4.052,14.513 C4.044,14.513 4.037,14.513 4.029,14.513 C4.029,14.528 4.029,14.543 4.029,14.557 C4.022,14.557 4.015,14.557 4.007,14.557 C4.007,14.579 4.007,14.602 4.007,14.624 C4.000,14.624 3.992,14.624 3.985,14.624 C3.985,14.653 3.985,14.683 3.985,14.712 C3.978,14.712 3.970,14.712 3.963,14.712 C3.963,14.771 3.963,14.831 3.963,14.890 C3.897,15.125 3.941,15.620 3.941,15.908 C3.941,16.883 3.941,17.858 3.941,18.832 C3.941,22.206 3.941,25.581 3.941,28.955 C3.941,29.885 3.941,30.815 3.941,31.746 C3.941,32.115 3.941,32.484 3.941,32.853 C3.948,32.853 3.955,32.853 3.963,32.853 C3.963,32.912 3.963,32.971 3.963,33.030 C3.970,33.030 3.978,33.030 3.985,33.030 C4.000,33.097 4.015,33.163 4.029,33.230 C4.037,33.230 4.044,33.230 4.052,33.230 C4.066,33.274 4.081,33.318 4.096,33.363 C4.103,33.363 4.111,33.363 4.118,33.363 C4.118,33.377 4.118,33.392 4.118,33.407 C4.125,33.407 4.133,33.407 4.140,33.407 C4.148,33.429 4.155,33.451 4.162,33.473 C4.177,33.481 4.192,33.488 4.207,33.495 C4.207,33.510 4.207,33.525 4.207,33.540 C4.266,33.591 4.325,33.643 4.384,33.695 C4.414,33.732 4.443,33.769 4.473,33.806 C4.487,33.806 4.502,33.806 4.517,33.806 C4.524,33.820 4.532,33.835 4.539,33.850 C4.554,33.850 4.569,33.850 4.584,33.850 C4.591,33.865 4.598,33.879 4.606,33.894 C4.992,34.138 5.733,34.071 6.357,34.071 C7.635,34.071 8.914,34.071 10.192,34.071 C15.046,34.071 19.902,34.071 24.756,34.071 C27.748,34.071 30.742,34.071 33.734,34.071 C34.296,34.071 34.857,34.071 35.419,34.071 C35.629,34.071 35.912,34.098 36.084,34.049 C36.136,34.049 36.187,34.049 36.239,34.049 C36.607,33.937 36.918,33.723 37.104,33.429 C37.111,33.399 37.118,33.370 37.126,33.340 C37.133,33.340 37.141,33.340 37.148,33.340 C37.148,33.326 37.148,33.311 37.148,33.296 C37.155,33.296 37.163,33.296 37.170,33.296 C37.185,33.252 37.200,33.208 37.214,33.163 C37.222,33.163 37.229,33.163 37.237,33.163 C37.237,33.141 37.237,33.119 37.237,33.097 C37.244,33.097 37.251,33.097 37.259,33.097 C37.321,32.914 37.281,32.549 37.281,32.322 C37.281,31.871 37.281,31.421 37.281,30.970 C37.281,29.014 37.281,27.057 37.281,25.101 C37.281,22.384 37.281,19.666 37.281,16.950 C37.281,16.211 37.281,15.473 37.281,14.735 C37.274,14.735 37.266,14.735 37.259,14.735 C37.259,14.705 37.259,14.675 37.259,14.646 C37.251,14.646 37.244,14.646 37.237,14.646 C37.229,14.602 37.222,14.557 37.214,14.513 C37.207,14.513 37.200,14.513 37.192,14.513 C37.177,14.469 37.163,14.424 37.148,14.380 C37.141,14.380 37.133,14.380 37.126,14.380 C37.126,14.365 37.126,14.351 37.126,14.336 C37.111,14.328 37.096,14.321 37.081,14.314 C37.074,14.284 37.067,14.255 37.059,14.225 C37.030,14.203 37.000,14.181 36.971,14.159 C36.971,14.144 36.971,14.129 36.971,14.114 C36.934,14.085 36.897,14.055 36.860,14.026 C36.852,14.011 36.845,13.996 36.838,13.981 C36.649,13.846 36.447,13.744 36.195,13.671 C35.522,13.671 34.850,13.671 34.177,13.671 C32.197,13.671 30.217,13.671 28.236,13.671 C20.508,13.671 12.777,13.671 5.049,13.671 ZM40.008,13.671 C40.059,13.871 40.111,14.070 40.163,14.269 C40.163,14.314 40.163,14.358 40.163,14.402 C40.170,14.402 40.177,14.402 40.185,14.402 C40.185,14.454 40.185,14.506 40.185,14.557 C40.192,14.557 40.200,14.557 40.207,14.557 C40.207,14.639 40.207,14.720 40.207,14.801 C40.214,14.801 40.222,14.801 40.229,14.801 C40.229,17.643 40.229,20.486 40.229,23.329 C41.382,23.329 42.535,23.329 43.687,23.329 C44.109,23.329 44.530,23.329 44.951,23.329 C44.951,23.321 44.951,23.314 44.951,23.307 C44.988,23.307 45.025,23.307 45.062,23.307 C45.062,23.299 45.062,23.292 45.062,23.284 C45.106,23.277 45.150,23.270 45.195,23.262 C45.195,23.255 45.195,23.247 45.195,23.240 C45.239,23.225 45.283,23.211 45.328,23.196 C45.328,23.188 45.328,23.181 45.328,23.174 C45.357,23.166 45.387,23.159 45.416,23.151 C45.424,23.137 45.431,23.122 45.439,23.107 C45.453,23.107 45.468,23.107 45.483,23.107 C45.498,23.085 45.513,23.063 45.527,23.041 C45.542,23.041 45.557,23.041 45.572,23.041 C45.616,22.989 45.660,22.937 45.705,22.886 C45.719,22.878 45.734,22.871 45.749,22.864 C45.749,22.849 45.749,22.834 45.749,22.819 C45.771,22.804 45.793,22.790 45.815,22.775 C45.815,22.760 45.815,22.745 45.815,22.731 C45.830,22.723 45.845,22.716 45.860,22.708 C45.867,22.679 45.875,22.649 45.882,22.620 C45.889,22.620 45.897,22.620 45.904,22.620 C45.904,22.605 45.904,22.590 45.904,22.576 C45.912,22.576 45.919,22.576 45.926,22.576 C45.941,22.531 45.956,22.487 45.971,22.443 C45.978,22.443 45.985,22.443 45.993,22.443 C45.993,22.421 45.993,22.398 45.993,22.376 C46.000,22.376 46.008,22.376 46.015,22.376 C46.015,22.347 46.015,22.317 46.015,22.288 C46.022,22.288 46.030,22.288 46.037,22.288 C46.045,22.081 46.052,21.874 46.059,21.667 C46.059,21.254 46.059,20.840 46.059,20.427 C46.059,18.175 46.059,15.923 46.059,13.671 C44.042,13.671 42.025,13.671 40.008,13.671 ZM16.798,18.101 C17.086,18.101 17.374,18.101 17.662,18.101 C17.906,18.138 18.150,18.175 18.394,18.212 C18.394,18.219 18.394,18.227 18.394,18.234 C18.424,18.234 18.453,18.234 18.483,18.234 C18.483,18.242 18.483,18.249 18.483,18.256 C18.512,18.256 18.542,18.256 18.571,18.256 C18.571,18.264 18.571,18.271 18.571,18.279 C18.601,18.279 18.630,18.279 18.660,18.279 C18.660,18.286 18.660,18.293 18.660,18.301 C18.690,18.301 18.719,18.301 18.749,18.301 C18.749,18.308 18.749,18.315 18.749,18.323 C18.778,18.323 18.808,18.323 18.837,18.323 C18.837,18.330 18.837,18.338 18.837,18.345 C18.860,18.345 18.882,18.345 18.904,18.345 C18.904,18.352 18.904,18.360 18.904,18.367 C18.933,18.367 18.963,18.367 18.993,18.367 C18.993,18.374 18.993,18.382 18.993,18.389 C19.059,18.404 19.126,18.419 19.192,18.434 C19.192,18.441 19.192,18.448 19.192,18.456 C19.207,18.456 19.222,18.456 19.236,18.456 C19.236,18.463 19.236,18.470 19.236,18.478 C19.259,18.478 19.281,18.478 19.303,18.478 C19.303,18.485 19.303,18.493 19.303,18.500 C19.318,18.500 19.332,18.500 19.347,18.500 C19.347,18.507 19.347,18.515 19.347,18.522 C19.369,18.522 19.392,18.522 19.414,18.522 C19.414,18.530 19.414,18.537 19.414,18.544 C19.429,18.544 19.443,18.544 19.458,18.544 C19.458,18.552 19.458,18.559 19.458,18.566 C19.480,18.566 19.502,18.566 19.525,18.566 C19.525,18.574 19.525,18.581 19.525,18.589 C19.539,18.589 19.554,18.589 19.569,18.589 C19.569,18.596 19.569,18.603 19.569,18.611 C19.584,18.611 19.598,18.611 19.613,18.611 C19.613,18.618 19.613,18.626 19.613,18.633 C19.628,18.633 19.643,18.633 19.658,18.633 C19.658,18.640 19.658,18.648 19.658,18.655 C19.680,18.655 19.702,18.655 19.724,18.655 C19.724,18.662 19.724,18.670 19.724,18.677 C19.754,18.685 19.783,18.692 19.813,18.699 C19.813,18.707 19.813,18.714 19.813,18.721 C19.842,18.729 19.872,18.736 19.901,18.744 C19.909,18.758 19.916,18.773 19.924,18.788 C19.938,18.788 19.953,18.788 19.968,18.788 C19.968,18.795 19.968,18.803 19.968,18.810 C19.983,18.810 19.997,18.810 20.012,18.810 C20.012,18.817 20.012,18.825 20.012,18.832 C20.027,18.832 20.042,18.832 20.057,18.832 C20.057,18.840 20.057,18.847 20.057,18.854 C20.071,18.854 20.086,18.854 20.101,18.854 C20.108,18.869 20.116,18.884 20.123,18.899 C20.153,18.906 20.182,18.913 20.212,18.921 C20.212,18.928 20.212,18.936 20.212,18.943 C20.234,18.950 20.256,18.958 20.278,18.965 C20.286,18.980 20.293,18.995 20.300,19.009 C20.330,19.017 20.360,19.024 20.389,19.032 C20.397,19.046 20.404,19.061 20.411,19.076 C20.426,19.076 20.441,19.076 20.456,19.076 C20.470,19.098 20.485,19.120 20.500,19.142 C20.515,19.142 20.530,19.142 20.544,19.142 C20.552,19.157 20.559,19.172 20.566,19.187 C20.589,19.194 20.611,19.201 20.633,19.209 C20.633,19.201 20.633,19.194 20.633,19.187 C20.661,19.172 20.664,19.152 20.677,19.142 C20.692,19.142 20.707,19.142 20.722,19.142 C20.729,19.128 20.736,19.113 20.744,19.098 C20.759,19.098 20.773,19.098 20.788,19.098 C20.796,19.083 20.803,19.069 20.810,19.054 C20.825,19.054 20.840,19.054 20.855,19.054 C20.862,19.039 20.869,19.024 20.877,19.009 C20.892,19.009 20.906,19.009 20.921,19.009 C20.929,18.995 20.936,18.980 20.943,18.965 C20.958,18.965 20.973,18.965 20.988,18.965 C20.988,18.958 20.988,18.950 20.988,18.943 C21.002,18.943 21.017,18.943 21.032,18.943 C21.039,18.928 21.047,18.913 21.054,18.899 C21.084,18.891 21.113,18.884 21.143,18.877 C21.150,18.862 21.158,18.847 21.165,18.832 C21.180,18.832 21.195,18.832 21.209,18.832 C21.209,18.825 21.209,18.817 21.209,18.810 C21.224,18.810 21.239,18.810 21.254,18.810 C21.254,18.803 21.254,18.795 21.254,18.788 C21.268,18.788 21.283,18.788 21.298,18.788 C21.298,18.781 21.298,18.773 21.298,18.766 C21.313,18.766 21.328,18.766 21.342,18.766 C21.342,18.758 21.342,18.751 21.342,18.744 C21.357,18.744 21.372,18.744 21.387,18.744 C21.387,18.736 21.387,18.729 21.387,18.721 C21.401,18.721 21.416,18.721 21.431,18.721 C21.431,18.714 21.431,18.707 21.431,18.699 C21.446,18.699 21.461,18.699 21.475,18.699 C21.475,18.692 21.475,18.685 21.475,18.677 C21.490,18.677 21.505,18.677 21.520,18.677 C21.520,18.670 21.520,18.662 21.520,18.655 C21.564,18.640 21.608,18.626 21.653,18.611 C21.653,18.603 21.653,18.596 21.653,18.589 C21.675,18.589 21.697,18.589 21.719,18.589 C21.719,18.581 21.719,18.574 21.719,18.566 C21.749,18.559 21.778,18.552 21.808,18.544 C21.808,18.537 21.808,18.530 21.808,18.522 C21.830,18.522 21.852,18.522 21.874,18.522 C21.874,18.515 21.874,18.507 21.874,18.500 C21.889,18.500 21.904,18.500 21.919,18.500 C21.919,18.493 21.919,18.485 21.919,18.478 C21.985,18.463 22.052,18.448 22.118,18.434 C22.118,18.426 22.118,18.419 22.118,18.411 C22.140,18.411 22.163,18.411 22.185,18.411 C22.185,18.404 22.185,18.397 22.185,18.389 C22.207,18.389 22.229,18.389 22.251,18.389 C22.251,18.382 22.251,18.374 22.251,18.367 C22.273,18.367 22.296,18.367 22.318,18.367 C22.318,18.360 22.318,18.352 22.318,18.345 C22.340,18.345 22.362,18.345 22.384,18.345 C22.384,18.338 22.384,18.330 22.384,18.323 C22.414,18.323 22.443,18.323 22.473,18.323 C22.473,18.315 22.473,18.308 22.473,18.301 C22.562,18.286 22.650,18.271 22.739,18.256 C22.739,18.249 22.739,18.242 22.739,18.234 C22.805,18.227 22.872,18.219 22.938,18.212 C22.938,18.205 22.938,18.197 22.938,18.190 C22.983,18.190 23.027,18.190 23.071,18.190 C23.071,18.183 23.071,18.175 23.071,18.168 C23.116,18.168 23.160,18.168 23.204,18.168 C23.204,18.160 23.204,18.153 23.204,18.146 C23.256,18.146 23.308,18.146 23.360,18.146 C23.360,18.138 23.360,18.131 23.360,18.123 C23.433,18.123 23.507,18.123 23.581,18.123 C23.581,18.116 23.581,18.109 23.581,18.101 C23.663,18.101 23.744,18.101 23.825,18.101 C24.023,18.101 24.286,18.079 24.446,18.123 C24.623,18.138 24.801,18.153 24.978,18.168 C24.978,18.175 24.978,18.183 24.978,18.190 C25.015,18.190 25.052,18.190 25.089,18.190 C25.089,18.197 25.089,18.205 25.089,18.212 C25.126,18.212 25.163,18.212 25.200,18.212 C25.200,18.219 25.200,18.227 25.200,18.234 C25.229,18.234 25.259,18.234 25.288,18.234 C25.288,18.242 25.288,18.249 25.288,18.256 C25.318,18.256 25.347,18.256 25.377,18.256 C25.377,18.264 25.377,18.271 25.377,18.279 C25.406,18.279 25.436,18.279 25.466,18.279 C25.466,18.286 25.466,18.293 25.466,18.301 C25.525,18.308 25.584,18.315 25.643,18.323 C25.643,18.330 25.643,18.338 25.643,18.345 C25.717,18.360 25.791,18.374 25.865,18.389 C25.865,18.397 25.865,18.404 25.865,18.411 C25.879,18.411 25.894,18.411 25.909,18.411 C25.909,18.419 25.909,18.426 25.909,18.434 C25.931,18.434 25.953,18.434 25.975,18.434 C25.975,18.441 25.975,18.448 25.975,18.456 C26.020,18.463 26.064,18.470 26.108,18.478 C26.108,18.485 26.108,18.493 26.108,18.500 C26.123,18.500 26.138,18.500 26.153,18.500 C26.153,18.507 26.153,18.515 26.153,18.522 C26.175,18.522 26.197,18.522 26.219,18.522 C26.219,18.530 26.219,18.537 26.219,18.544 C26.234,18.544 26.249,18.544 26.264,18.544 C26.264,18.552 26.264,18.559 26.264,18.566 C26.286,18.566 26.308,18.566 26.330,18.566 C26.330,18.574 26.330,18.581 26.330,18.589 C26.374,18.603 26.419,18.618 26.463,18.633 C26.463,18.640 26.463,18.648 26.463,18.655 C26.478,18.655 26.493,18.655 26.507,18.655 C26.507,18.662 26.507,18.670 26.507,18.677 C26.522,18.677 26.537,18.677 26.552,18.677 C26.552,18.685 26.552,18.692 26.552,18.699 C26.567,18.699 26.581,18.699 26.596,18.699 C26.596,18.707 26.596,18.714 26.596,18.721 C26.611,18.721 26.626,18.721 26.640,18.721 C26.640,18.729 26.640,18.736 26.640,18.744 C26.655,18.744 26.670,18.744 26.685,18.744 C26.685,18.751 26.685,18.758 26.685,18.766 C26.700,18.766 26.714,18.766 26.729,18.766 C26.729,18.773 26.729,18.781 26.729,18.788 C26.744,18.788 26.759,18.788 26.773,18.788 C26.773,18.795 26.773,18.803 26.773,18.810 C26.788,18.810 26.803,18.810 26.818,18.810 C26.818,18.817 26.818,18.825 26.818,18.832 C26.833,18.832 26.847,18.832 26.862,18.832 C26.869,18.847 26.877,18.862 26.884,18.877 C26.914,18.884 26.943,18.891 26.973,18.899 C26.980,18.913 26.988,18.928 26.995,18.943 C27.025,18.950 27.054,18.958 27.084,18.965 C27.084,18.973 27.084,18.980 27.084,18.987 C27.106,18.995 27.128,19.002 27.150,19.009 C27.158,19.024 27.165,19.039 27.172,19.054 C27.187,19.054 27.202,19.054 27.217,19.054 C27.217,19.061 27.217,19.069 27.217,19.076 C27.239,19.083 27.261,19.091 27.283,19.098 C27.291,19.113 27.298,19.128 27.305,19.142 C27.320,19.142 27.335,19.142 27.350,19.142 C27.357,19.157 27.365,19.172 27.372,19.187 C27.394,19.194 27.416,19.201 27.438,19.209 C27.453,19.231 27.468,19.253 27.483,19.275 C27.498,19.275 27.512,19.275 27.527,19.275 C27.542,19.297 27.557,19.320 27.571,19.342 C27.586,19.342 27.601,19.342 27.616,19.342 C27.638,19.371 27.660,19.401 27.682,19.430 C27.697,19.430 27.712,19.430 27.727,19.430 C27.771,19.482 27.815,19.534 27.860,19.585 C27.874,19.585 27.889,19.585 27.904,19.585 C27.970,19.659 28.037,19.733 28.103,19.807 C28.170,19.866 28.236,19.925 28.303,19.984 C28.303,19.999 28.303,20.014 28.303,20.028 C28.355,20.073 28.406,20.117 28.458,20.161 C28.466,20.183 28.473,20.206 28.480,20.228 C28.502,20.242 28.525,20.257 28.547,20.272 C28.547,20.287 28.547,20.302 28.547,20.316 C28.569,20.331 28.591,20.346 28.613,20.361 C28.613,20.375 28.613,20.390 28.613,20.405 C28.636,20.420 28.658,20.434 28.680,20.449 C28.680,20.464 28.680,20.479 28.680,20.493 C28.702,20.508 28.724,20.523 28.746,20.538 C28.746,20.553 28.746,20.567 28.746,20.582 C28.761,20.589 28.776,20.597 28.791,20.604 C28.791,20.619 28.791,20.634 28.791,20.649 C28.805,20.656 28.820,20.663 28.835,20.671 C28.835,20.685 28.835,20.700 28.835,20.715 C28.850,20.722 28.865,20.730 28.879,20.737 C28.879,20.752 28.879,20.767 28.879,20.781 C28.894,20.789 28.909,20.796 28.924,20.804 C28.931,20.833 28.938,20.863 28.946,20.892 C28.961,20.900 28.975,20.907 28.990,20.914 C28.998,20.944 29.005,20.973 29.012,21.003 C29.027,21.010 29.042,21.018 29.057,21.025 C29.057,21.040 29.057,21.055 29.057,21.069 C29.064,21.069 29.071,21.069 29.079,21.069 C29.079,21.084 29.079,21.099 29.079,21.114 C29.086,21.114 29.094,21.114 29.101,21.114 C29.101,21.128 29.101,21.143 29.101,21.158 C29.108,21.158 29.116,21.158 29.123,21.158 C29.123,21.173 29.123,21.188 29.123,21.202 C29.131,21.202 29.138,21.202 29.145,21.202 C29.145,21.217 29.145,21.232 29.145,21.247 C29.153,21.247 29.160,21.247 29.168,21.247 C29.168,21.261 29.168,21.276 29.168,21.291 C29.175,21.291 29.182,21.291 29.190,21.291 C29.190,21.306 29.190,21.320 29.190,21.335 C29.197,21.335 29.204,21.335 29.212,21.335 C29.212,21.350 29.212,21.365 29.212,21.379 C29.219,21.379 29.227,21.379 29.234,21.379 C29.249,21.424 29.264,21.468 29.278,21.512 C29.286,21.512 29.293,21.512 29.301,21.512 C29.301,21.535 29.301,21.557 29.301,21.579 C29.308,21.579 29.315,21.579 29.323,21.579 C29.330,21.608 29.337,21.638 29.345,21.667 C29.352,21.667 29.360,21.667 29.367,21.667 C29.367,21.690 29.367,21.712 29.367,21.734 C29.374,21.734 29.382,21.734 29.389,21.734 C29.389,21.749 29.389,21.763 29.389,21.778 C29.397,21.778 29.404,21.778 29.411,21.778 C29.419,21.822 29.426,21.867 29.434,21.911 C29.441,21.911 29.448,21.911 29.456,21.911 C29.456,21.933 29.456,21.955 29.456,21.978 C29.463,21.978 29.470,21.978 29.478,21.978 C29.478,22.000 29.478,22.022 29.478,22.044 C29.485,22.044 29.493,22.044 29.500,22.044 C29.500,22.066 29.500,22.088 29.500,22.110 C29.507,22.110 29.515,22.110 29.522,22.110 C29.522,22.133 29.522,22.155 29.522,22.177 C29.530,22.177 29.537,22.177 29.544,22.177 C29.544,22.199 29.544,22.221 29.544,22.243 C29.552,22.243 29.559,22.243 29.567,22.243 C29.574,22.302 29.581,22.361 29.589,22.421 C29.727,22.834 29.788,23.310 29.788,23.860 C29.781,24.074 29.773,24.289 29.766,24.503 C29.759,24.503 29.751,24.503 29.744,24.503 C29.744,24.562 29.744,24.621 29.744,24.680 C29.736,24.680 29.729,24.680 29.722,24.680 C29.722,24.724 29.722,24.768 29.722,24.813 C29.667,24.994 29.627,25.217 29.567,25.389 C29.559,25.448 29.552,25.507 29.544,25.566 C29.537,25.566 29.530,25.566 29.522,25.566 C29.522,25.588 29.522,25.610 29.522,25.632 C29.515,25.632 29.507,25.632 29.500,25.632 C29.500,25.654 29.500,25.677 29.500,25.699 C29.493,25.699 29.485,25.699 29.478,25.699 C29.478,25.721 29.478,25.743 29.478,25.765 C29.470,25.765 29.463,25.765 29.456,25.765 C29.456,25.787 29.456,25.809 29.456,25.832 C29.448,25.832 29.441,25.832 29.434,25.832 C29.434,25.846 29.434,25.861 29.434,25.876 C29.426,25.876 29.419,25.876 29.411,25.876 C29.404,25.920 29.397,25.965 29.389,26.009 C29.382,26.009 29.374,26.009 29.367,26.009 C29.367,26.024 29.367,26.038 29.367,26.053 C29.360,26.053 29.352,26.053 29.345,26.053 C29.345,26.075 29.345,26.097 29.345,26.120 C29.337,26.120 29.330,26.120 29.323,26.120 C29.315,26.149 29.308,26.179 29.301,26.208 C29.293,26.208 29.286,26.208 29.278,26.208 C29.278,26.223 29.278,26.238 29.278,26.252 C29.271,26.252 29.264,26.252 29.256,26.252 C29.256,26.275 29.256,26.297 29.256,26.319 C29.249,26.319 29.241,26.319 29.234,26.319 C29.219,26.363 29.204,26.408 29.190,26.452 C29.182,26.452 29.175,26.452 29.168,26.452 C29.168,26.467 29.168,26.481 29.168,26.496 C29.160,26.496 29.153,26.496 29.145,26.496 C29.138,26.526 29.131,26.555 29.123,26.585 C29.108,26.592 29.094,26.599 29.079,26.607 C29.064,26.651 29.049,26.695 29.035,26.740 C29.020,26.747 29.005,26.755 28.990,26.762 C28.983,26.791 28.975,26.821 28.968,26.851 C28.953,26.858 28.938,26.865 28.924,26.873 C28.916,26.902 28.909,26.932 28.902,26.961 C28.894,26.961 28.887,26.961 28.879,26.961 C28.872,26.983 28.865,27.006 28.857,27.028 C28.842,27.035 28.828,27.042 28.813,27.050 C28.813,27.065 28.813,27.079 28.813,27.094 C28.798,27.102 28.783,27.109 28.769,27.116 C28.769,27.131 28.769,27.146 28.769,27.161 C28.746,27.175 28.724,27.190 28.702,27.205 C28.702,27.220 28.702,27.234 28.702,27.249 C28.680,27.264 28.658,27.279 28.636,27.294 C28.636,27.308 28.636,27.323 28.636,27.338 C28.613,27.353 28.591,27.367 28.569,27.382 C28.569,27.397 28.569,27.412 28.569,27.426 C28.547,27.441 28.525,27.456 28.502,27.471 C28.502,27.485 28.502,27.500 28.502,27.515 C28.458,27.552 28.414,27.589 28.369,27.626 C28.369,27.641 28.369,27.655 28.369,27.670 C28.236,27.796 28.103,27.921 27.970,28.047 C27.919,28.106 27.867,28.165 27.815,28.224 C27.801,28.224 27.786,28.224 27.771,28.224 C27.741,28.261 27.712,28.298 27.682,28.335 C27.668,28.335 27.653,28.335 27.638,28.335 C27.616,28.364 27.594,28.394 27.571,28.423 C27.557,28.423 27.542,28.423 27.527,28.423 C27.512,28.445 27.498,28.467 27.483,28.490 C27.468,28.490 27.453,28.490 27.438,28.490 C27.424,28.512 27.409,28.534 27.394,28.556 C27.379,28.556 27.365,28.556 27.350,28.556 C27.342,28.571 27.335,28.586 27.328,28.600 C27.305,28.608 27.283,28.615 27.261,28.622 C27.261,28.630 27.261,28.637 27.261,28.645 C27.246,28.645 27.232,28.645 27.217,28.645 C27.209,28.659 27.202,28.674 27.195,28.689 C27.180,28.689 27.165,28.689 27.150,28.689 C27.143,28.704 27.135,28.718 27.128,28.733 C27.106,28.741 27.084,28.748 27.062,28.755 C27.062,28.763 27.062,28.770 27.062,28.778 C27.047,28.778 27.032,28.778 27.017,28.778 C27.017,28.785 27.017,28.792 27.017,28.800 C27.002,28.800 26.988,28.800 26.973,28.800 C26.966,28.814 26.958,28.829 26.951,28.844 C26.921,28.851 26.892,28.859 26.862,28.866 C26.855,28.881 26.847,28.896 26.840,28.910 C26.825,28.910 26.810,28.910 26.796,28.910 C26.796,28.918 26.796,28.925 26.796,28.933 C26.781,28.933 26.766,28.933 26.751,28.933 C26.751,28.940 26.751,28.947 26.751,28.955 C26.736,28.955 26.722,28.955 26.707,28.955 C26.707,28.962 26.707,28.970 26.707,28.977 C26.692,28.977 26.677,28.977 26.663,28.977 C26.663,28.984 26.663,28.992 26.663,28.999 C26.648,28.999 26.633,28.999 26.618,28.999 C26.618,29.006 26.618,29.014 26.618,29.021 C26.603,29.021 26.589,29.021 26.574,29.021 C26.574,29.029 26.574,29.036 26.574,29.043 C26.559,29.043 26.544,29.043 26.530,29.043 C26.530,29.051 26.530,29.058 26.530,29.065 C26.485,29.080 26.441,29.095 26.397,29.110 C26.397,29.117 26.397,29.125 26.397,29.132 C26.374,29.132 26.352,29.132 26.330,29.132 C26.330,29.139 26.330,29.147 26.330,29.154 C26.301,29.161 26.271,29.169 26.241,29.176 C26.241,29.184 26.241,29.191 26.241,29.198 C26.219,29.198 26.197,29.198 26.175,29.198 C26.175,29.206 26.175,29.213 26.175,29.221 C26.160,29.221 26.145,29.221 26.131,29.221 C26.131,29.228 26.131,29.235 26.131,29.243 C26.108,29.243 26.086,29.243 26.064,29.243 C26.064,29.250 26.064,29.257 26.064,29.265 C26.042,29.265 26.020,29.265 25.998,29.265 C25.998,29.272 25.998,29.280 25.998,29.287 C25.983,29.287 25.968,29.287 25.953,29.287 C25.953,29.294 25.953,29.302 25.953,29.309 C25.909,29.317 25.865,29.324 25.820,29.331 C25.820,29.339 25.820,29.346 25.820,29.353 C25.768,29.361 25.717,29.368 25.665,29.376 C25.665,29.383 25.665,29.390 25.665,29.398 C25.643,29.398 25.621,29.398 25.599,29.398 C25.599,29.405 25.599,29.413 25.599,29.420 C25.569,29.420 25.539,29.420 25.510,29.420 C25.510,29.427 25.510,29.435 25.510,29.442 C25.480,29.442 25.451,29.442 25.421,29.442 C25.421,29.449 25.421,29.457 25.421,29.464 C25.392,29.464 25.362,29.464 25.333,29.464 C25.333,29.472 25.333,29.479 25.333,29.486 C25.266,29.494 25.200,29.501 25.133,29.508 C25.133,29.516 25.133,29.523 25.133,29.531 C25.096,29.531 25.059,29.531 25.022,29.531 C25.022,29.538 25.022,29.545 25.022,29.553 C24.978,29.553 24.933,29.553 24.889,29.553 C24.889,29.560 24.889,29.568 24.889,29.575 C24.845,29.575 24.800,29.575 24.756,29.575 C24.756,29.582 24.756,29.590 24.756,29.597 C24.690,29.597 24.623,29.597 24.557,29.597 C24.557,29.604 24.557,29.612 24.557,29.619 C24.468,29.619 24.379,29.619 24.291,29.619 C24.183,29.629 23.916,29.679 23.781,29.641 C23.781,29.634 23.781,29.627 23.781,29.619 C23.677,29.619 23.574,29.619 23.470,29.619 C23.470,29.612 23.470,29.604 23.470,29.597 C23.411,29.597 23.352,29.597 23.293,29.597 C23.293,29.590 23.293,29.582 23.293,29.575 C23.241,29.575 23.190,29.575 23.138,29.575 C23.138,29.568 23.138,29.560 23.138,29.553 C23.094,29.553 23.049,29.553 23.005,29.553 C23.005,29.545 23.005,29.538 23.005,29.531 C22.968,29.531 22.931,29.531 22.894,29.531 C22.894,29.523 22.894,29.516 22.894,29.508 C22.828,29.501 22.761,29.494 22.695,29.486 C22.695,29.479 22.695,29.472 22.695,29.464 C22.665,29.464 22.635,29.464 22.606,29.464 C22.606,29.457 22.606,29.449 22.606,29.442 C22.576,29.442 22.547,29.442 22.517,29.442 C22.517,29.435 22.517,29.427 22.517,29.420 C22.488,29.420 22.458,29.420 22.429,29.420 C22.429,29.413 22.429,29.405 22.429,29.398 C22.406,29.398 22.384,29.398 22.362,29.398 C22.362,29.390 22.362,29.383 22.362,29.376 C22.340,29.376 22.318,29.376 22.296,29.376 C22.296,29.368 22.296,29.361 22.296,29.353 C22.222,29.339 22.148,29.324 22.074,29.309 C22.074,29.302 22.074,29.294 22.074,29.287 C22.059,29.287 22.044,29.287 22.030,29.287 C22.030,29.280 22.030,29.272 22.030,29.265 C21.985,29.257 21.941,29.250 21.897,29.243 C21.897,29.235 21.897,29.228 21.897,29.221 C21.882,29.221 21.867,29.221 21.852,29.221 C21.852,29.213 21.852,29.206 21.852,29.198 C21.830,29.198 21.808,29.198 21.786,29.198 C21.786,29.191 21.786,29.184 21.786,29.176 C21.756,29.169 21.727,29.161 21.697,29.154 C21.697,29.147 21.697,29.139 21.697,29.132 C21.675,29.132 21.653,29.132 21.631,29.132 C21.631,29.125 21.631,29.117 21.631,29.110 C21.601,29.102 21.571,29.095 21.542,29.088 C21.542,29.080 21.542,29.073 21.542,29.065 C21.498,29.051 21.453,29.036 21.409,29.021 C21.409,29.014 21.409,29.006 21.409,28.999 C21.394,28.999 21.379,28.999 21.364,28.999 C21.364,28.992 21.364,28.984 21.364,28.977 C21.350,28.977 21.335,28.977 21.320,28.977 C21.320,28.970 21.320,28.962 21.320,28.955 C21.305,28.955 21.291,28.955 21.276,28.955 C21.276,28.947 21.276,28.940 21.276,28.933 C21.246,28.925 21.217,28.918 21.187,28.910 C21.180,28.896 21.172,28.881 21.165,28.866 C21.135,28.859 21.106,28.851 21.076,28.844 C21.069,28.829 21.062,28.814 21.054,28.800 C21.025,28.792 20.995,28.785 20.965,28.778 C20.958,28.763 20.951,28.748 20.943,28.733 C20.929,28.733 20.914,28.733 20.899,28.733 C20.892,28.718 20.884,28.704 20.877,28.689 C20.862,28.689 20.847,28.689 20.832,28.689 C20.825,28.674 20.818,28.659 20.810,28.645 C20.796,28.645 20.781,28.645 20.766,28.645 C20.759,28.630 20.751,28.615 20.744,28.600 C20.729,28.600 20.714,28.600 20.699,28.600 C20.699,28.593 20.699,28.586 20.699,28.578 C20.660,28.547 20.655,28.544 20.589,28.534 C20.532,28.601 20.462,28.618 20.389,28.667 C20.382,28.682 20.374,28.696 20.367,28.711 C20.352,28.711 20.337,28.711 20.323,28.711 C20.315,28.726 20.308,28.741 20.300,28.755 C20.271,28.763 20.241,28.770 20.212,28.778 C20.204,28.792 20.197,28.807 20.190,28.822 C20.160,28.829 20.130,28.837 20.101,28.844 C20.094,28.859 20.086,28.874 20.079,28.888 C20.064,28.888 20.049,28.888 20.034,28.888 C20.034,28.896 20.034,28.903 20.034,28.910 C20.020,28.910 20.005,28.910 19.990,28.910 C19.990,28.918 19.990,28.925 19.990,28.933 C19.975,28.933 19.961,28.933 19.946,28.933 C19.946,28.940 19.946,28.947 19.946,28.955 C19.931,28.955 19.916,28.955 19.901,28.955 C19.901,28.962 19.901,28.970 19.901,28.977 C19.887,28.977 19.872,28.977 19.857,28.977 C19.850,28.992 19.842,29.006 19.835,29.021 C19.798,29.029 19.761,29.036 19.724,29.043 C19.724,29.051 19.724,29.058 19.724,29.065 C19.709,29.065 19.695,29.065 19.680,29.065 C19.680,29.073 19.680,29.080 19.680,29.088 C19.635,29.102 19.591,29.117 19.547,29.132 C19.547,29.139 19.547,29.147 19.547,29.154 C19.510,29.161 19.473,29.169 19.436,29.176 C19.436,29.184 19.436,29.191 19.436,29.198 C19.421,29.198 19.406,29.198 19.392,29.198 C19.392,29.206 19.392,29.213 19.392,29.221 C19.347,29.228 19.303,29.235 19.259,29.243 C19.259,29.250 19.259,29.257 19.259,29.265 C19.244,29.265 19.229,29.265 19.214,29.265 C19.214,29.272 19.214,29.280 19.214,29.287 C19.170,29.294 19.126,29.302 19.081,29.309 C19.081,29.317 19.081,29.324 19.081,29.331 C19.059,29.331 19.037,29.331 19.015,29.331 C19.015,29.339 19.015,29.346 19.015,29.353 C18.993,29.353 18.970,29.353 18.948,29.353 C18.948,29.361 18.948,29.368 18.948,29.376 C18.896,29.383 18.845,29.390 18.793,29.398 C18.793,29.405 18.793,29.413 18.793,29.420 C18.734,29.427 18.675,29.435 18.616,29.442 C18.616,29.449 18.616,29.457 18.616,29.464 C18.557,29.472 18.497,29.479 18.438,29.486 C18.438,29.494 18.438,29.501 18.438,29.508 C18.328,29.523 18.217,29.538 18.106,29.553 C18.106,29.560 18.106,29.568 18.106,29.575 C17.988,29.582 17.869,29.590 17.751,29.597 C17.751,29.604 17.751,29.612 17.751,29.619 C17.500,29.627 17.249,29.634 16.997,29.641 C16.997,29.634 16.997,29.627 16.997,29.619 C16.894,29.619 16.791,29.619 16.687,29.619 C16.687,29.612 16.687,29.604 16.687,29.597 C16.621,29.597 16.554,29.597 16.488,29.597 C16.488,29.590 16.488,29.582 16.488,29.575 C16.443,29.575 16.399,29.575 16.355,29.575 C16.355,29.568 16.355,29.560 16.355,29.553 C16.207,29.531 16.059,29.508 15.911,29.486 C15.911,29.479 15.911,29.472 15.911,29.464 C15.852,29.457 15.793,29.449 15.734,29.442 C15.734,29.435 15.734,29.427 15.734,29.420 C15.704,29.420 15.675,29.420 15.645,29.420 C15.645,29.413 15.645,29.405 15.645,29.398 C15.594,29.390 15.542,29.383 15.490,29.376 C15.490,29.368 15.490,29.361 15.490,29.353 C15.468,29.353 15.446,29.353 15.424,29.353 C15.424,29.346 15.424,29.339 15.424,29.331 C15.401,29.331 15.379,29.331 15.357,29.331 C15.357,29.324 15.357,29.317 15.357,29.309 C15.313,29.302 15.268,29.294 15.224,29.287 C15.224,29.280 15.224,29.272 15.224,29.265 C15.209,29.265 15.194,29.265 15.180,29.265 C15.180,29.257 15.180,29.250 15.180,29.243 C15.158,29.243 15.135,29.243 15.113,29.243 C15.113,29.235 15.113,29.228 15.113,29.221 C15.076,29.213 15.039,29.206 15.002,29.198 C15.002,29.191 15.002,29.184 15.002,29.176 C14.988,29.176 14.973,29.176 14.958,29.176 C14.958,29.169 14.958,29.161 14.958,29.154 C14.936,29.154 14.914,29.154 14.892,29.154 C14.892,29.147 14.892,29.139 14.892,29.132 C14.847,29.117 14.803,29.102 14.759,29.088 C14.759,29.080 14.759,29.073 14.759,29.065 C14.744,29.065 14.729,29.065 14.714,29.065 C14.714,29.058 14.714,29.051 14.714,29.043 C14.699,29.043 14.685,29.043 14.670,29.043 C14.670,29.036 14.670,29.029 14.670,29.021 C14.655,29.021 14.640,29.021 14.626,29.021 C14.626,29.014 14.626,29.006 14.626,28.999 C14.611,28.999 14.596,28.999 14.581,28.999 C14.581,28.992 14.581,28.984 14.581,28.977 C14.566,28.977 14.552,28.977 14.537,28.977 C14.537,28.970 14.537,28.962 14.537,28.955 C14.522,28.955 14.507,28.955 14.493,28.955 C14.493,28.947 14.493,28.940 14.493,28.933 C14.478,28.933 14.463,28.933 14.448,28.933 C14.448,28.925 14.448,28.918 14.448,28.910 C14.433,28.910 14.419,28.910 14.404,28.910 C14.404,28.903 14.404,28.896 14.404,28.888 C14.389,28.888 14.374,28.888 14.360,28.888 C14.352,28.874 14.345,28.859 14.337,28.844 C14.308,28.837 14.278,28.829 14.249,28.822 C14.249,28.814 14.249,28.807 14.249,28.800 C14.226,28.792 14.204,28.785 14.182,28.778 C14.175,28.763 14.167,28.748 14.160,28.733 C14.130,28.726 14.101,28.718 14.071,28.711 C14.064,28.696 14.057,28.682 14.049,28.667 C14.034,28.667 14.020,28.667 14.005,28.667 C13.997,28.652 13.990,28.637 13.983,28.622 C13.968,28.622 13.953,28.622 13.938,28.622 C13.924,28.600 13.909,28.578 13.894,28.556 C13.879,28.556 13.864,28.556 13.850,28.556 C13.835,28.534 13.820,28.512 13.805,28.490 C13.791,28.490 13.776,28.490 13.761,28.490 C13.754,28.475 13.746,28.460 13.739,28.445 C13.717,28.438 13.694,28.431 13.672,28.423 C13.658,28.401 13.643,28.379 13.628,28.357 C13.613,28.357 13.598,28.357 13.584,28.357 C13.554,28.320 13.525,28.283 13.495,28.246 C13.480,28.246 13.465,28.246 13.451,28.246 C13.399,28.187 13.347,28.128 13.295,28.069 C13.273,28.061 13.251,28.054 13.229,28.047 C13.185,27.995 13.140,27.943 13.096,27.892 C13.081,27.884 13.066,27.877 13.052,27.869 C13.052,27.855 13.052,27.840 13.052,27.825 C12.978,27.759 12.904,27.692 12.830,27.626 C12.823,27.604 12.815,27.581 12.808,27.559 C12.778,27.537 12.749,27.515 12.719,27.493 C12.719,27.478 12.719,27.463 12.719,27.449 C12.697,27.434 12.675,27.419 12.653,27.404 C12.653,27.389 12.653,27.375 12.653,27.360 C12.630,27.345 12.608,27.330 12.586,27.316 C12.586,27.301 12.586,27.286 12.586,27.271 C12.564,27.257 12.542,27.242 12.520,27.227 C12.520,27.212 12.520,27.198 12.520,27.183 C12.505,27.175 12.490,27.168 12.475,27.161 C12.475,27.146 12.475,27.131 12.475,27.116 C12.453,27.102 12.431,27.087 12.409,27.072 C12.401,27.042 12.394,27.013 12.387,26.983 C12.372,26.976 12.357,26.969 12.342,26.961 C12.335,26.939 12.327,26.917 12.320,26.895 C12.313,26.895 12.305,26.895 12.298,26.895 C12.298,26.880 12.298,26.865 12.298,26.851 C12.291,26.851 12.283,26.851 12.276,26.851 C12.276,26.836 12.276,26.821 12.276,26.806 C12.261,26.799 12.246,26.791 12.231,26.784 C12.224,26.755 12.217,26.725 12.209,26.695 C12.194,26.688 12.180,26.681 12.165,26.673 C12.165,26.659 12.165,26.644 12.165,26.629 C12.158,26.629 12.150,26.629 12.143,26.629 C12.143,26.614 12.143,26.599 12.143,26.585 C12.135,26.585 12.128,26.585 12.121,26.585 C12.121,26.570 12.121,26.555 12.121,26.540 C12.113,26.540 12.106,26.540 12.098,26.540 C12.098,26.526 12.098,26.511 12.098,26.496 C12.091,26.496 12.084,26.496 12.076,26.496 C12.076,26.481 12.076,26.467 12.076,26.452 C12.069,26.452 12.061,26.452 12.054,26.452 C12.054,26.437 12.054,26.422 12.054,26.408 C12.047,26.408 12.039,26.408 12.032,26.408 C12.032,26.393 12.032,26.378 12.032,26.363 C12.025,26.363 12.017,26.363 12.010,26.363 C11.995,26.319 11.980,26.275 11.965,26.230 C11.958,26.230 11.951,26.230 11.943,26.230 C11.943,26.208 11.943,26.186 11.943,26.164 C11.936,26.164 11.928,26.164 11.921,26.164 C11.914,26.134 11.906,26.105 11.899,26.075 C11.892,26.075 11.884,26.075 11.877,26.075 C11.877,26.053 11.877,26.031 11.877,26.009 C11.869,26.009 11.862,26.009 11.855,26.009 C11.855,25.994 11.855,25.979 11.855,25.965 C11.847,25.965 11.840,25.965 11.832,25.965 C11.832,25.942 11.832,25.920 11.832,25.898 C11.825,25.898 11.818,25.898 11.810,25.898 C11.810,25.876 11.810,25.854 11.810,25.832 C11.803,25.832 11.795,25.832 11.788,25.832 C11.788,25.809 11.788,25.787 11.788,25.765 C11.781,25.765 11.773,25.765 11.766,25.765 C11.766,25.743 11.766,25.721 11.766,25.699 C11.758,25.699 11.751,25.699 11.744,25.699 C11.744,25.677 11.744,25.654 11.744,25.632 C11.554,25.150 11.456,24.572 11.456,23.905 C11.463,23.661 11.470,23.417 11.478,23.174 C11.485,23.174 11.492,23.174 11.500,23.174 C11.500,23.122 11.500,23.070 11.500,23.019 C11.507,23.019 11.515,23.019 11.522,23.019 C11.522,22.974 11.522,22.930 11.522,22.886 C11.529,22.886 11.537,22.886 11.544,22.886 C11.544,22.849 11.544,22.812 11.544,22.775 C11.552,22.775 11.559,22.775 11.566,22.775 C11.574,22.708 11.581,22.642 11.589,22.576 C11.596,22.576 11.603,22.576 11.611,22.576 C11.618,22.517 11.625,22.457 11.633,22.398 C11.640,22.398 11.648,22.398 11.655,22.398 C11.655,22.369 11.655,22.339 11.655,22.310 C11.662,22.310 11.670,22.310 11.677,22.310 C11.685,22.258 11.692,22.206 11.699,22.155 C11.707,22.155 11.714,22.155 11.722,22.155 C11.722,22.133 11.722,22.110 11.722,22.088 C11.729,22.088 11.736,22.088 11.744,22.088 C11.744,22.066 11.744,22.044 11.744,22.022 C11.751,22.022 11.758,22.022 11.766,22.022 C11.781,21.955 11.795,21.889 11.810,21.822 C11.818,21.822 11.825,21.822 11.832,21.822 C11.832,21.808 11.832,21.793 11.832,21.778 C11.840,21.778 11.847,21.778 11.855,21.778 C11.855,21.756 11.855,21.734 11.855,21.712 C11.862,21.712 11.869,21.712 11.877,21.712 C11.877,21.697 11.877,21.682 11.877,21.667 C11.884,21.667 11.892,21.667 11.899,21.667 C11.899,21.645 11.899,21.623 11.899,21.601 C11.906,21.601 11.914,21.601 11.921,21.601 C11.928,21.571 11.936,21.542 11.943,21.512 C11.951,21.512 11.958,21.512 11.965,21.512 C11.965,21.498 11.965,21.483 11.965,21.468 C11.973,21.468 11.980,21.468 11.988,21.468 C11.988,21.446 11.988,21.424 11.988,21.402 C11.995,21.402 12.002,21.402 12.010,21.402 C12.025,21.357 12.039,21.313 12.054,21.269 C12.061,21.269 12.069,21.269 12.076,21.269 C12.076,21.254 12.076,21.239 12.076,21.224 C12.084,21.224 12.091,21.224 12.098,21.224 C12.106,21.195 12.113,21.165 12.121,21.136 C12.135,21.128 12.150,21.121 12.165,21.114 C12.180,21.069 12.194,21.025 12.209,20.981 C12.224,20.973 12.239,20.966 12.254,20.959 C12.261,20.929 12.268,20.900 12.276,20.870 C12.291,20.863 12.305,20.855 12.320,20.848 C12.327,20.818 12.335,20.789 12.342,20.759 C12.350,20.759 12.357,20.759 12.364,20.759 C12.372,20.737 12.379,20.715 12.387,20.693 C12.401,20.685 12.416,20.678 12.431,20.671 C12.431,20.656 12.431,20.641 12.431,20.626 C12.453,20.612 12.475,20.597 12.497,20.582 C12.497,20.567 12.497,20.553 12.497,20.538 C12.512,20.530 12.527,20.523 12.542,20.516 C12.542,20.501 12.542,20.486 12.542,20.471 C12.557,20.464 12.571,20.457 12.586,20.449 C12.593,20.427 12.601,20.405 12.608,20.383 C12.630,20.368 12.653,20.353 12.675,20.338 C12.675,20.324 12.675,20.309 12.675,20.294 C12.704,20.272 12.734,20.250 12.763,20.228 C12.763,20.213 12.763,20.198 12.763,20.183 C12.808,20.146 12.852,20.110 12.896,20.073 C12.896,20.058 12.896,20.043 12.896,20.028 C12.941,19.991 12.985,19.955 13.029,19.918 C13.148,19.792 13.266,19.667 13.384,19.541 C13.399,19.541 13.414,19.541 13.428,19.541 C13.465,19.497 13.502,19.452 13.539,19.408 C13.554,19.408 13.569,19.408 13.584,19.408 C13.606,19.379 13.628,19.349 13.650,19.320 C13.665,19.320 13.680,19.320 13.694,19.320 C13.709,19.297 13.724,19.275 13.739,19.253 C13.754,19.253 13.768,19.253 13.783,19.253 C13.798,19.231 13.813,19.209 13.827,19.187 C13.842,19.187 13.857,19.187 13.872,19.187 C13.879,19.172 13.887,19.157 13.894,19.142 C13.916,19.135 13.938,19.128 13.960,19.120 C13.960,19.113 13.960,19.105 13.960,19.098 C13.975,19.098 13.990,19.098 14.005,19.098 C14.012,19.083 14.020,19.069 14.027,19.054 C14.042,19.054 14.057,19.054 14.071,19.054 C14.079,19.039 14.086,19.024 14.093,19.009 C14.108,19.009 14.123,19.009 14.138,19.009 C14.145,18.995 14.153,18.980 14.160,18.965 C14.175,18.965 14.190,18.965 14.204,18.965 C14.212,18.950 14.219,18.936 14.226,18.921 C14.256,18.913 14.286,18.906 14.315,18.899 C14.323,18.884 14.330,18.869 14.337,18.854 C14.352,18.854 14.367,18.854 14.382,18.854 C14.382,18.847 14.382,18.840 14.382,18.832 C14.396,18.832 14.411,18.832 14.426,18.832 C14.426,18.825 14.426,18.817 14.426,18.810 C14.441,18.810 14.456,18.810 14.470,18.810 C14.470,18.803 14.470,18.795 14.470,18.788 C14.485,18.788 14.500,18.788 14.515,18.788 C14.515,18.781 14.515,18.773 14.515,18.766 C14.529,18.766 14.544,18.766 14.559,18.766 C14.566,18.751 14.574,18.736 14.581,18.721 C14.596,18.721 14.611,18.721 14.626,18.721 C14.626,18.714 14.626,18.707 14.626,18.699 C14.655,18.692 14.685,18.685 14.714,18.677 C14.714,18.670 14.714,18.662 14.714,18.655 C14.736,18.655 14.759,18.655 14.781,18.655 C14.781,18.648 14.781,18.640 14.781,18.633 C14.795,18.633 14.810,18.633 14.825,18.633 C14.825,18.626 14.825,18.618 14.825,18.611 C14.855,18.603 14.884,18.596 14.914,18.589 C14.914,18.581 14.914,18.574 14.914,18.566 C14.936,18.566 14.958,18.566 14.980,18.566 C14.980,18.559 14.980,18.552 14.980,18.544 C14.995,18.544 15.010,18.544 15.025,18.544 C15.025,18.537 15.025,18.530 15.025,18.522 C15.061,18.515 15.098,18.507 15.135,18.500 C15.135,18.493 15.135,18.485 15.135,18.478 C15.180,18.470 15.224,18.463 15.268,18.456 C15.268,18.448 15.268,18.441 15.268,18.434 C15.283,18.434 15.298,18.434 15.313,18.434 C15.313,18.426 15.313,18.419 15.313,18.411 C15.387,18.397 15.461,18.382 15.534,18.367 C15.534,18.360 15.534,18.352 15.534,18.345 C15.557,18.345 15.579,18.345 15.601,18.345 C15.601,18.338 15.601,18.330 15.601,18.323 C15.630,18.323 15.660,18.323 15.690,18.323 C15.690,18.315 15.690,18.308 15.690,18.301 C15.719,18.301 15.749,18.301 15.778,18.301 C15.778,18.293 15.778,18.286 15.778,18.279 C15.808,18.279 15.837,18.279 15.867,18.279 C15.867,18.271 15.867,18.264 15.867,18.256 C15.896,18.256 15.926,18.256 15.956,18.256 C15.956,18.249 15.956,18.242 15.956,18.234 C15.985,18.234 16.015,18.234 16.044,18.234 C16.044,18.227 16.044,18.219 16.044,18.212 C16.295,18.175 16.547,18.138 16.798,18.101 ZM16.931,21.025 C16.931,21.032 16.931,21.040 16.931,21.047 C16.791,21.062 16.650,21.077 16.510,21.092 C16.510,21.099 16.510,21.106 16.510,21.114 C16.488,21.114 16.465,21.114 16.443,21.114 C16.443,21.121 16.443,21.128 16.443,21.136 C16.421,21.136 16.399,21.136 16.377,21.136 C16.377,21.143 16.377,21.151 16.377,21.158 C16.355,21.158 16.332,21.158 16.310,21.158 C16.310,21.165 16.310,21.173 16.310,21.180 C16.266,21.188 16.222,21.195 16.177,21.202 C16.177,21.210 16.177,21.217 16.177,21.224 C16.148,21.232 16.118,21.239 16.089,21.247 C16.089,21.254 16.089,21.261 16.089,21.269 C16.074,21.269 16.059,21.269 16.044,21.269 C16.044,21.276 16.044,21.284 16.044,21.291 C16.022,21.291 16.000,21.291 15.978,21.291 C15.978,21.298 15.978,21.306 15.978,21.313 C15.963,21.313 15.948,21.313 15.933,21.313 C15.933,21.320 15.933,21.328 15.933,21.335 C15.919,21.335 15.904,21.335 15.889,21.335 C15.882,21.350 15.874,21.365 15.867,21.379 C15.823,21.394 15.778,21.409 15.734,21.424 C15.734,21.431 15.734,21.439 15.734,21.446 C15.712,21.453 15.690,21.461 15.667,21.468 C15.660,21.483 15.653,21.498 15.645,21.512 C15.630,21.512 15.616,21.512 15.601,21.512 C15.594,21.527 15.586,21.542 15.579,21.557 C15.564,21.557 15.549,21.557 15.534,21.557 C15.520,21.579 15.505,21.601 15.490,21.623 C15.475,21.623 15.460,21.623 15.446,21.623 C15.409,21.667 15.372,21.712 15.335,21.756 C15.320,21.756 15.305,21.756 15.291,21.756 C15.246,21.808 15.202,21.859 15.158,21.911 C15.135,21.926 15.113,21.941 15.091,21.955 C15.091,21.970 15.091,21.985 15.091,22.000 C15.054,22.029 15.017,22.059 14.980,22.088 C14.973,22.110 14.965,22.133 14.958,22.155 C14.943,22.162 14.928,22.169 14.914,22.177 C14.914,22.192 14.914,22.206 14.914,22.221 C14.899,22.229 14.884,22.236 14.869,22.243 C14.862,22.265 14.855,22.288 14.847,22.310 C14.840,22.310 14.832,22.310 14.825,22.310 C14.825,22.325 14.825,22.339 14.825,22.354 C14.810,22.361 14.795,22.369 14.781,22.376 C14.773,22.406 14.766,22.435 14.759,22.465 C14.744,22.472 14.729,22.480 14.714,22.487 C14.707,22.517 14.699,22.546 14.692,22.576 C14.685,22.576 14.677,22.576 14.670,22.576 C14.655,22.620 14.640,22.664 14.626,22.708 C14.618,22.708 14.611,22.708 14.603,22.708 C14.603,22.731 14.603,22.753 14.603,22.775 C14.596,22.775 14.589,22.775 14.581,22.775 C14.581,22.790 14.581,22.804 14.581,22.819 C14.574,22.819 14.566,22.819 14.559,22.819 C14.559,22.841 14.559,22.864 14.559,22.886 C14.552,22.886 14.544,22.886 14.537,22.886 C14.537,22.900 14.537,22.915 14.537,22.930 C14.529,22.930 14.522,22.930 14.515,22.930 C14.515,22.952 14.515,22.974 14.515,22.996 C14.507,22.996 14.500,22.996 14.493,22.996 C14.493,23.019 14.493,23.041 14.493,23.063 C14.485,23.063 14.478,23.063 14.470,23.063 C14.470,23.092 14.470,23.122 14.470,23.151 C14.463,23.151 14.456,23.151 14.448,23.151 C14.448,23.181 14.448,23.211 14.448,23.240 C14.441,23.240 14.433,23.240 14.426,23.240 C14.426,23.284 14.426,23.329 14.426,23.373 C14.419,23.373 14.411,23.373 14.404,23.373 C14.404,23.432 14.404,23.491 14.404,23.550 C14.347,23.753 14.374,24.171 14.426,24.348 C14.433,24.429 14.441,24.510 14.448,24.591 C14.456,24.591 14.463,24.591 14.470,24.591 C14.470,24.613 14.470,24.636 14.470,24.658 C14.478,24.658 14.485,24.658 14.493,24.658 C14.493,24.680 14.493,24.702 14.493,24.724 C14.500,24.724 14.507,24.724 14.515,24.724 C14.522,24.768 14.529,24.813 14.537,24.857 C14.544,24.857 14.552,24.857 14.559,24.857 C14.559,24.872 14.559,24.887 14.559,24.901 C14.566,24.901 14.574,24.901 14.581,24.901 C14.581,24.923 14.581,24.946 14.581,24.968 C14.589,24.968 14.596,24.968 14.603,24.968 C14.611,24.997 14.618,25.027 14.626,25.056 C14.633,25.056 14.640,25.056 14.648,25.056 C14.648,25.071 14.648,25.086 14.648,25.101 C14.655,25.101 14.662,25.101 14.670,25.101 C14.670,25.115 14.670,25.130 14.670,25.145 C14.677,25.145 14.685,25.145 14.692,25.145 C14.692,25.160 14.692,25.175 14.692,25.189 C14.699,25.189 14.707,25.189 14.714,25.189 C14.714,25.204 14.714,25.219 14.714,25.234 C14.722,25.234 14.729,25.234 14.736,25.234 C14.736,25.248 14.736,25.263 14.736,25.278 C14.744,25.278 14.751,25.278 14.759,25.278 C14.759,25.293 14.759,25.307 14.759,25.322 C14.773,25.330 14.788,25.337 14.803,25.344 C14.803,25.359 14.803,25.374 14.803,25.389 C14.818,25.396 14.832,25.403 14.847,25.411 C14.847,25.426 14.847,25.440 14.847,25.455 C14.855,25.455 14.862,25.455 14.869,25.455 C14.877,25.477 14.884,25.499 14.892,25.522 C14.906,25.529 14.921,25.536 14.936,25.544 C14.936,25.558 14.936,25.573 14.936,25.588 C14.965,25.610 14.995,25.632 15.025,25.654 C15.032,25.677 15.039,25.699 15.047,25.721 C15.098,25.765 15.150,25.809 15.202,25.854 C15.261,25.920 15.320,25.987 15.379,26.053 C15.394,26.053 15.409,26.053 15.424,26.053 C15.446,26.083 15.468,26.112 15.490,26.142 C15.505,26.142 15.520,26.142 15.534,26.142 C15.542,26.156 15.549,26.171 15.557,26.186 C15.579,26.193 15.601,26.201 15.623,26.208 C15.623,26.216 15.623,26.223 15.623,26.230 C15.638,26.230 15.653,26.230 15.667,26.230 C15.675,26.245 15.682,26.260 15.690,26.275 C15.704,26.275 15.719,26.275 15.734,26.275 C15.741,26.289 15.749,26.304 15.756,26.319 C15.771,26.319 15.786,26.319 15.800,26.319 C15.800,26.326 15.800,26.334 15.800,26.341 C15.815,26.341 15.830,26.341 15.845,26.341 C15.845,26.348 15.845,26.356 15.845,26.363 C15.860,26.363 15.874,26.363 15.889,26.363 C15.889,26.371 15.889,26.378 15.889,26.385 C15.904,26.385 15.919,26.385 15.933,26.385 C15.933,26.393 15.933,26.400 15.933,26.408 C15.948,26.408 15.963,26.408 15.978,26.408 C15.978,26.415 15.978,26.422 15.978,26.430 C15.993,26.430 16.007,26.430 16.022,26.430 C16.022,26.437 16.022,26.444 16.022,26.452 C16.066,26.467 16.111,26.481 16.155,26.496 C16.155,26.503 16.155,26.511 16.155,26.518 C16.199,26.526 16.244,26.533 16.288,26.540 C16.288,26.548 16.288,26.555 16.288,26.563 C16.303,26.563 16.318,26.563 16.332,26.563 C16.332,26.570 16.332,26.577 16.332,26.585 C16.384,26.592 16.436,26.599 16.488,26.607 C16.706,26.680 16.937,26.695 17.241,26.695 C17.360,26.695 17.478,26.695 17.596,26.695 C17.596,26.688 17.596,26.681 17.596,26.673 C17.648,26.673 17.699,26.673 17.751,26.673 C17.751,26.666 17.751,26.659 17.751,26.651 C17.788,26.651 17.825,26.651 17.862,26.651 C17.862,26.644 17.862,26.636 17.862,26.629 C17.892,26.629 17.921,26.629 17.951,26.629 C17.951,26.622 17.951,26.614 17.951,26.607 C17.980,26.607 18.010,26.607 18.039,26.607 C18.039,26.599 18.039,26.592 18.039,26.585 C18.084,26.577 18.128,26.570 18.172,26.563 C18.172,26.555 18.172,26.548 18.172,26.540 C18.187,26.540 18.202,26.540 18.217,26.540 C18.217,26.533 18.217,26.526 18.217,26.518 C18.239,26.518 18.261,26.518 18.283,26.518 C18.283,26.511 18.283,26.503 18.283,26.496 C18.313,26.489 18.342,26.481 18.372,26.474 C18.372,26.467 18.372,26.459 18.372,26.452 C18.394,26.452 18.416,26.452 18.438,26.452 C18.438,26.444 18.438,26.437 18.438,26.430 C18.468,26.422 18.497,26.415 18.527,26.408 C18.527,26.400 18.527,26.393 18.527,26.385 C18.542,26.385 18.557,26.385 18.571,26.385 C18.579,26.371 18.586,26.356 18.594,26.341 C18.638,26.326 18.682,26.312 18.727,26.297 C18.727,26.289 18.727,26.282 18.727,26.275 C18.749,26.267 18.771,26.260 18.793,26.252 C18.800,26.238 18.808,26.223 18.815,26.208 C18.830,26.208 18.845,26.208 18.860,26.208 C18.874,26.186 18.889,26.164 18.904,26.142 C18.919,26.142 18.933,26.142 18.948,26.142 C18.963,26.120 18.978,26.097 18.993,26.075 C19.007,26.075 19.022,26.075 19.037,26.075 C19.096,26.009 19.155,25.942 19.214,25.876 C19.288,25.809 19.362,25.743 19.436,25.677 C19.436,25.662 19.436,25.647 19.436,25.632 C19.458,25.617 19.480,25.603 19.502,25.588 C19.510,25.566 19.517,25.544 19.525,25.522 C19.539,25.514 19.554,25.507 19.569,25.499 C19.569,25.485 19.569,25.470 19.569,25.455 C19.584,25.448 19.598,25.440 19.613,25.433 C19.621,25.403 19.628,25.374 19.635,25.344 C19.650,25.337 19.665,25.330 19.680,25.322 C19.695,25.278 19.709,25.234 19.724,25.189 C19.739,25.182 19.754,25.174 19.768,25.167 C19.776,25.130 19.783,25.093 19.791,25.056 C19.798,25.056 19.805,25.056 19.813,25.056 C19.813,25.042 19.813,25.027 19.813,25.012 C19.820,25.012 19.828,25.012 19.835,25.012 C19.842,24.983 19.850,24.953 19.857,24.923 C19.864,24.923 19.872,24.923 19.879,24.923 C19.931,24.746 19.983,24.569 20.034,24.392 C20.034,24.333 20.034,24.274 20.034,24.215 C20.094,24.003 20.067,23.536 20.012,23.351 C20.005,23.277 19.997,23.203 19.990,23.129 C19.983,23.129 19.975,23.129 19.968,23.129 C19.968,23.107 19.968,23.085 19.968,23.063 C19.961,23.063 19.953,23.063 19.946,23.063 C19.946,23.041 19.946,23.019 19.946,22.996 C19.938,22.996 19.931,22.996 19.924,22.996 C19.916,22.952 19.909,22.908 19.901,22.864 C19.894,22.864 19.887,22.864 19.879,22.864 C19.879,22.849 19.879,22.834 19.879,22.819 C19.872,22.819 19.864,22.819 19.857,22.819 C19.857,22.797 19.857,22.775 19.857,22.753 C19.850,22.753 19.842,22.753 19.835,22.753 C19.820,22.708 19.805,22.664 19.791,22.620 C19.783,22.620 19.776,22.620 19.768,22.620 C19.768,22.605 19.768,22.590 19.768,22.576 C19.761,22.576 19.754,22.576 19.746,22.576 C19.731,22.531 19.717,22.487 19.702,22.443 C19.687,22.435 19.672,22.428 19.658,22.421 C19.650,22.391 19.643,22.361 19.635,22.332 C19.628,22.332 19.621,22.332 19.613,22.332 C19.606,22.310 19.598,22.288 19.591,22.265 C19.576,22.258 19.562,22.251 19.547,22.243 C19.547,22.229 19.547,22.214 19.547,22.199 C19.532,22.192 19.517,22.184 19.502,22.177 C19.495,22.155 19.488,22.133 19.480,22.110 C19.443,22.081 19.406,22.051 19.369,22.022 C19.043,21.571 18.512,21.286 17.929,21.092 C17.892,21.092 17.855,21.092 17.818,21.092 C17.576,21.018 17.252,21.025 16.931,21.025 ZM23.736,21.025 C23.567,21.055 23.397,21.084 23.227,21.114 C23.227,21.121 23.227,21.128 23.227,21.136 C23.160,21.151 23.094,21.165 23.027,21.180 C23.027,21.188 23.027,21.195 23.027,21.202 C23.012,21.202 22.998,21.202 22.983,21.202 C22.983,21.210 22.983,21.217 22.983,21.224 C22.961,21.224 22.938,21.224 22.916,21.224 C22.916,21.232 22.916,21.239 22.916,21.247 C22.901,21.247 22.887,21.247 22.872,21.247 C22.872,21.254 22.872,21.261 22.872,21.269 C22.857,21.269 22.842,21.269 22.828,21.269 C22.828,21.276 22.828,21.284 22.828,21.291 C22.813,21.291 22.798,21.291 22.783,21.291 C22.783,21.298 22.783,21.306 22.783,21.313 C22.768,21.313 22.754,21.313 22.739,21.313 C22.739,21.320 22.739,21.328 22.739,21.335 C22.724,21.335 22.709,21.335 22.695,21.335 C22.621,21.379 22.547,21.424 22.473,21.468 C22.569,21.719 22.665,21.970 22.761,22.221 C22.761,22.251 22.761,22.280 22.761,22.310 C22.768,22.310 22.776,22.310 22.783,22.310 C22.783,22.332 22.783,22.354 22.783,22.376 C22.791,22.376 22.798,22.376 22.805,22.376 C22.805,22.406 22.805,22.435 22.805,22.465 C22.813,22.465 22.820,22.465 22.828,22.465 C22.828,22.502 22.828,22.539 22.828,22.576 C22.835,22.576 22.842,22.576 22.850,22.576 C22.850,22.605 22.850,22.635 22.850,22.664 C22.857,22.664 22.865,22.664 22.872,22.664 C22.872,22.694 22.872,22.723 22.872,22.753 C22.879,22.753 22.887,22.753 22.894,22.753 C22.894,22.790 22.894,22.827 22.894,22.864 C22.901,22.864 22.909,22.864 22.916,22.864 C22.916,22.908 22.916,22.952 22.916,22.996 C22.924,22.996 22.931,22.996 22.938,22.996 C22.938,23.048 22.938,23.100 22.938,23.151 C22.946,23.151 22.953,23.151 22.961,23.151 C22.961,23.218 22.961,23.284 22.961,23.351 C22.968,23.351 22.975,23.351 22.983,23.351 C22.983,23.454 22.983,23.558 22.983,23.661 C22.997,23.745 23.038,23.944 23.005,24.060 C22.998,24.060 22.990,24.060 22.983,24.060 C22.983,24.133 22.983,24.207 22.983,24.281 C22.968,24.429 22.953,24.576 22.938,24.724 C22.931,24.724 22.924,24.724 22.916,24.724 C22.916,24.768 22.916,24.813 22.916,24.857 C22.909,24.857 22.901,24.857 22.894,24.857 C22.894,24.894 22.894,24.931 22.894,24.968 C22.887,24.968 22.879,24.968 22.872,24.968 C22.872,25.005 22.872,25.042 22.872,25.079 C22.798,25.337 22.724,25.595 22.650,25.854 C22.643,25.854 22.635,25.854 22.628,25.854 C22.628,25.869 22.628,25.883 22.628,25.898 C22.621,25.898 22.613,25.898 22.606,25.898 C22.606,25.920 22.606,25.942 22.606,25.965 C22.598,25.965 22.591,25.965 22.584,25.965 C22.584,25.979 22.584,25.994 22.584,26.009 C22.576,26.009 22.569,26.009 22.562,26.009 C22.562,26.031 22.562,26.053 22.562,26.075 C22.554,26.075 22.547,26.075 22.539,26.075 C22.525,26.127 22.510,26.179 22.495,26.230 C22.488,26.230 22.480,26.230 22.473,26.230 C22.463,26.260 22.481,26.234 22.495,26.252 C22.542,26.324 22.598,26.323 22.672,26.363 C22.672,26.371 22.672,26.378 22.672,26.385 C22.687,26.385 22.702,26.385 22.717,26.385 C22.717,26.393 22.717,26.400 22.717,26.408 C22.732,26.408 22.746,26.408 22.761,26.408 C22.761,26.415 22.761,26.422 22.761,26.430 C22.776,26.430 22.791,26.430 22.805,26.430 C22.805,26.437 22.805,26.444 22.805,26.452 C22.820,26.452 22.835,26.452 22.850,26.452 C22.850,26.459 22.850,26.467 22.850,26.474 C22.865,26.474 22.879,26.474 22.894,26.474 C22.894,26.481 22.894,26.489 22.894,26.496 C22.916,26.496 22.938,26.496 22.961,26.496 C22.961,26.503 22.961,26.511 22.961,26.518 C22.975,26.518 22.990,26.518 23.005,26.518 C23.005,26.526 23.005,26.533 23.005,26.540 C23.027,26.540 23.049,26.540 23.071,26.540 C23.071,26.548 23.071,26.555 23.071,26.563 C23.094,26.563 23.116,26.563 23.138,26.563 C23.138,26.570 23.138,26.577 23.138,26.585 C23.160,26.585 23.182,26.585 23.204,26.585 C23.204,26.592 23.204,26.599 23.204,26.607 C23.227,26.607 23.249,26.607 23.271,26.607 C23.271,26.614 23.271,26.622 23.271,26.629 C23.300,26.629 23.330,26.629 23.360,26.629 C23.360,26.636 23.360,26.644 23.360,26.651 C23.404,26.651 23.448,26.651 23.493,26.651 C23.493,26.659 23.493,26.666 23.493,26.673 C23.544,26.673 23.596,26.673 23.648,26.673 C23.648,26.681 23.648,26.688 23.648,26.695 C23.899,26.695 24.150,26.695 24.401,26.695 C24.401,26.688 24.401,26.681 24.401,26.673 C24.453,26.673 24.505,26.673 24.557,26.673 C24.557,26.666 24.557,26.659 24.557,26.651 C24.594,26.651 24.631,26.651 24.667,26.651 C24.667,26.644 24.667,26.636 24.667,26.629 C24.697,26.629 24.727,26.629 24.756,26.629 C24.756,26.622 24.756,26.614 24.756,26.607 C24.778,26.607 24.800,26.607 24.823,26.607 C24.823,26.599 24.823,26.592 24.823,26.585 C24.845,26.585 24.867,26.585 24.889,26.585 C24.889,26.577 24.889,26.570 24.889,26.563 C24.911,26.563 24.933,26.563 24.956,26.563 C24.956,26.555 24.956,26.548 24.956,26.540 C24.978,26.540 25.000,26.540 25.022,26.540 C25.022,26.533 25.022,26.526 25.022,26.518 C25.037,26.518 25.052,26.518 25.067,26.518 C25.067,26.511 25.067,26.503 25.067,26.496 C25.089,26.496 25.111,26.496 25.133,26.496 C25.133,26.489 25.133,26.481 25.133,26.474 C25.177,26.459 25.222,26.444 25.266,26.430 C25.266,26.422 25.266,26.415 25.266,26.408 C25.281,26.408 25.296,26.408 25.310,26.408 C25.310,26.400 25.310,26.393 25.310,26.385 C25.325,26.385 25.340,26.385 25.355,26.385 C25.355,26.378 25.355,26.371 25.355,26.363 C25.399,26.348 25.443,26.334 25.488,26.319 C25.488,26.312 25.488,26.304 25.488,26.297 C25.510,26.289 25.532,26.282 25.554,26.275 C25.562,26.260 25.569,26.245 25.576,26.230 C25.591,26.230 25.606,26.230 25.621,26.230 C25.628,26.216 25.635,26.201 25.643,26.186 C25.658,26.186 25.672,26.186 25.687,26.186 C25.702,26.164 25.717,26.142 25.732,26.120 C25.746,26.120 25.761,26.120 25.776,26.120 C25.798,26.090 25.820,26.060 25.842,26.031 C25.857,26.031 25.872,26.031 25.887,26.031 C25.946,25.965 26.005,25.898 26.064,25.832 C26.101,25.802 26.138,25.773 26.175,25.743 C26.175,25.728 26.175,25.713 26.175,25.699 C26.212,25.669 26.249,25.640 26.286,25.610 C26.286,25.595 26.286,25.581 26.286,25.566 C26.301,25.558 26.315,25.551 26.330,25.544 C26.330,25.529 26.330,25.514 26.330,25.499 C26.352,25.485 26.374,25.470 26.397,25.455 C26.404,25.426 26.411,25.396 26.419,25.366 C26.434,25.359 26.448,25.352 26.463,25.344 C26.470,25.315 26.478,25.285 26.485,25.256 C26.500,25.248 26.515,25.241 26.530,25.234 C26.537,25.204 26.544,25.174 26.552,25.145 C26.559,25.145 26.567,25.145 26.574,25.145 C26.589,25.101 26.603,25.056 26.618,25.012 C26.626,25.012 26.633,25.012 26.640,25.012 C26.640,24.990 26.640,24.968 26.640,24.946 C26.648,24.946 26.655,24.946 26.663,24.946 C26.663,24.931 26.663,24.916 26.663,24.901 C26.670,24.901 26.677,24.901 26.685,24.901 C26.685,24.879 26.685,24.857 26.685,24.835 C26.692,24.835 26.700,24.835 26.707,24.835 C26.707,24.813 26.707,24.791 26.707,24.768 C26.714,24.768 26.722,24.768 26.729,24.768 C26.729,24.746 26.729,24.724 26.729,24.702 C26.736,24.702 26.744,24.702 26.751,24.702 C26.751,24.680 26.751,24.658 26.751,24.636 C26.759,24.636 26.766,24.636 26.773,24.636 C26.773,24.613 26.773,24.591 26.773,24.569 C26.781,24.569 26.788,24.569 26.796,24.569 C26.810,24.421 26.825,24.274 26.840,24.126 C26.847,24.126 26.855,24.126 26.862,24.126 C26.894,24.011 26.863,23.678 26.840,23.594 C26.840,23.528 26.840,23.462 26.840,23.395 C26.833,23.395 26.825,23.395 26.818,23.395 C26.818,23.351 26.818,23.307 26.818,23.262 C26.810,23.262 26.803,23.262 26.796,23.262 C26.796,23.233 26.796,23.203 26.796,23.174 C26.788,23.174 26.781,23.174 26.773,23.174 C26.773,23.144 26.773,23.115 26.773,23.085 C26.766,23.085 26.759,23.085 26.751,23.085 C26.751,23.063 26.751,23.041 26.751,23.019 C26.744,23.019 26.736,23.019 26.729,23.019 C26.729,22.996 26.729,22.974 26.729,22.952 C26.722,22.952 26.714,22.952 26.707,22.952 C26.707,22.930 26.707,22.908 26.707,22.886 C26.700,22.886 26.692,22.886 26.685,22.886 C26.685,22.871 26.685,22.856 26.685,22.841 C26.677,22.841 26.670,22.841 26.663,22.841 C26.663,22.819 26.663,22.797 26.663,22.775 C26.655,22.775 26.648,22.775 26.640,22.775 C26.626,22.731 26.611,22.686 26.596,22.642 C26.589,22.642 26.581,22.642 26.574,22.642 C26.574,22.627 26.574,22.612 26.574,22.598 C26.567,22.598 26.559,22.598 26.552,22.598 C26.552,22.583 26.552,22.568 26.552,22.553 C26.544,22.553 26.537,22.553 26.530,22.553 C26.530,22.539 26.530,22.524 26.530,22.509 C26.522,22.509 26.515,22.509 26.507,22.509 C26.507,22.494 26.507,22.480 26.507,22.465 C26.500,22.465 26.493,22.465 26.485,22.465 C26.485,22.450 26.485,22.435 26.485,22.421 C26.470,22.413 26.456,22.406 26.441,22.398 C26.434,22.369 26.426,22.339 26.419,22.310 C26.404,22.302 26.389,22.295 26.374,22.288 C26.374,22.273 26.374,22.258 26.374,22.243 C26.352,22.229 26.330,22.214 26.308,22.199 C26.308,22.184 26.308,22.169 26.308,22.155 C26.286,22.140 26.264,22.125 26.241,22.110 C26.241,22.096 26.241,22.081 26.241,22.066 C26.190,22.022 26.138,21.978 26.086,21.933 C26.086,21.918 26.086,21.904 26.086,21.889 C26.071,21.882 26.057,21.874 26.042,21.867 C26.027,21.845 26.012,21.822 25.998,21.800 C25.983,21.800 25.968,21.800 25.953,21.800 C25.909,21.749 25.865,21.697 25.820,21.645 C25.805,21.645 25.791,21.645 25.776,21.645 C25.761,21.623 25.746,21.601 25.732,21.579 C25.709,21.571 25.687,21.564 25.665,21.557 C25.658,21.542 25.650,21.527 25.643,21.512 C25.628,21.512 25.613,21.512 25.599,21.512 C25.591,21.498 25.584,21.483 25.576,21.468 C25.547,21.461 25.517,21.453 25.488,21.446 C25.480,21.431 25.473,21.416 25.466,21.402 C25.421,21.387 25.377,21.372 25.333,21.357 C25.333,21.350 25.333,21.343 25.333,21.335 C25.318,21.335 25.303,21.335 25.288,21.335 C25.288,21.328 25.288,21.320 25.288,21.313 C25.273,21.313 25.259,21.313 25.244,21.313 C25.244,21.306 25.244,21.298 25.244,21.291 C25.200,21.276 25.155,21.261 25.111,21.247 C25.111,21.239 25.111,21.232 25.111,21.224 C25.089,21.224 25.067,21.224 25.044,21.224 C25.044,21.217 25.044,21.210 25.044,21.202 C25.030,21.202 25.015,21.202 25.000,21.202 C25.000,21.195 25.000,21.188 25.000,21.180 C24.978,21.180 24.956,21.180 24.933,21.180 C24.933,21.173 24.933,21.165 24.933,21.158 C24.911,21.158 24.889,21.158 24.867,21.158 C24.867,21.151 24.867,21.143 24.867,21.136 C24.845,21.136 24.823,21.136 24.800,21.136 C24.800,21.128 24.800,21.121 24.800,21.114 C24.778,21.114 24.756,21.114 24.734,21.114 C24.734,21.106 24.734,21.099 24.734,21.092 C24.697,21.092 24.660,21.092 24.623,21.092 C24.381,21.018 24.058,21.025 23.736,21.025 Z"/>
</svg>