<svg 
 xmlns="http://www.w3.org/2000/svg"
 xmlns:xlink="http://www.w3.org/1999/xlink"
 width="44px" height="29px">
<path fill-rule="evenodd"  fill="rgb(51, 51, 51)"
 d="M19.738,0.000 C19.738,1.103 19.738,2.207 19.738,3.310 C18.368,3.586 16.997,3.862 15.626,4.137 C13.995,5.012 11.319,7.951 11.103,10.343 C15.977,10.503 21.084,17.290 18.505,23.169 C18.368,23.169 18.231,23.169 18.093,23.169 C17.956,23.721 17.819,24.272 17.682,24.824 C16.997,25.375 16.311,25.927 15.626,26.479 C15.489,26.755 15.352,27.030 15.215,27.306 C14.941,27.306 14.667,27.306 14.393,27.306 C14.393,27.444 14.393,27.582 14.393,27.720 C13.887,28.113 13.599,28.033 13.159,28.547 C10.983,28.680 8.257,29.463 6.168,28.547 C6.168,28.410 6.168,28.272 6.168,28.134 C5.620,27.996 5.072,27.858 4.523,27.720 C4.523,27.582 4.523,27.444 4.523,27.306 C4.249,27.306 3.975,27.306 3.701,27.306 C3.290,26.755 2.878,26.203 2.467,25.651 C2.330,25.651 2.193,25.651 2.056,25.651 C1.385,24.697 1.284,23.532 0.411,22.755 C0.274,20.963 0.137,19.169 0.000,17.377 C0.137,17.377 0.274,17.377 0.411,17.377 C0.411,16.687 0.411,15.998 0.411,15.308 C0.548,15.308 0.685,15.308 0.822,15.308 C0.822,14.756 0.822,14.205 0.822,13.653 C0.959,13.653 1.097,13.653 1.234,13.653 C1.234,13.239 1.234,12.826 1.234,12.412 C1.371,12.412 1.508,12.412 1.645,12.412 C1.919,11.585 2.193,10.757 2.467,9.930 C2.604,9.930 2.741,9.930 2.879,9.930 C2.879,9.654 2.879,9.378 2.879,9.102 C3.290,8.826 3.701,8.550 4.112,8.275 C4.112,7.999 4.112,7.723 4.112,7.447 C4.660,7.033 5.209,6.620 5.757,6.206 C6.305,5.516 6.854,4.827 7.402,4.137 C10.433,1.982 14.730,0.069 19.738,0.000 ZM44.000,0.000 C44.000,1.103 44.000,2.207 44.000,3.310 C42.492,3.724 40.984,4.137 39.477,4.551 C39.340,4.827 39.202,5.103 39.065,5.379 C38.791,5.379 38.517,5.379 38.243,5.379 C38.243,5.516 38.243,5.654 38.243,5.792 C37.832,6.068 37.421,6.344 37.009,6.620 C37.009,6.895 37.009,7.171 37.009,7.447 C36.735,7.585 36.461,7.723 36.187,7.861 C36.187,8.137 36.187,8.413 36.187,8.688 C36.050,8.688 35.913,8.688 35.776,8.688 C35.639,9.102 35.502,9.516 35.364,9.930 C35.502,9.930 35.639,9.930 35.776,9.930 C35.776,10.067 35.776,10.205 35.776,10.343 C36.324,10.343 36.872,10.343 37.421,10.343 C37.421,10.481 37.421,10.619 37.421,10.757 C37.695,10.757 37.969,10.757 38.243,10.757 C38.243,10.895 38.243,11.033 38.243,11.171 C38.517,11.171 38.791,11.171 39.065,11.171 C39.202,11.447 39.340,11.722 39.477,11.998 C39.751,11.998 40.025,11.998 40.299,11.998 C40.299,12.136 40.299,12.274 40.299,12.412 C40.710,12.688 41.122,12.964 41.533,13.239 C41.533,13.515 41.533,13.791 41.533,14.067 C41.807,14.205 42.081,14.343 42.355,14.481 C42.837,15.227 42.353,15.413 43.178,16.136 C43.452,19.764 43.738,22.569 41.944,25.238 C41.533,25.513 41.121,25.789 40.710,26.065 C40.436,26.479 40.162,26.893 39.888,27.306 C39.066,27.582 38.243,27.858 37.421,28.134 C37.421,28.272 37.421,28.410 37.421,28.547 C35.814,29.236 31.488,29.159 30.430,28.134 C28.765,27.723 28.135,26.704 27.140,25.651 C26.866,25.513 26.592,25.376 26.318,25.238 C26.318,24.962 26.318,24.686 26.318,24.410 C26.181,24.410 26.044,24.410 25.907,24.410 C25.514,23.900 25.602,23.611 25.084,23.169 C24.947,20.963 24.810,18.756 24.673,16.549 C25.358,14.481 26.044,12.412 26.729,10.343 C27.003,10.205 27.277,10.067 27.551,9.930 C27.688,9.378 27.826,8.826 27.963,8.275 C28.648,7.723 29.333,7.171 30.019,6.620 C30.841,5.654 31.664,4.689 32.486,3.724 C32.760,3.724 33.034,3.724 33.308,3.724 C33.445,3.448 33.583,3.172 33.720,2.896 C35.894,1.513 40.596,0.050 44.000,0.000 Z"/>
</svg>