<svg 
 xmlns="http://www.w3.org/2000/svg"
 xmlns:xlink="http://www.w3.org/1999/xlink"
 width="38px" height="38px">
<path fill-rule="evenodd"  fill="rgb(49, 49, 49)"
 d="M29.169,17.606 C31.161,17.606 33.153,17.606 35.145,17.606 C35.727,17.606 36.700,17.509 37.122,17.694 C37.122,17.709 37.122,17.724 37.122,17.738 C37.181,17.753 37.239,17.768 37.298,17.782 C37.313,17.812 37.327,17.841 37.342,17.870 C37.371,17.870 37.400,17.870 37.430,17.870 C37.444,17.900 37.459,17.929 37.474,17.958 C37.547,18.017 37.620,18.076 37.693,18.135 C37.693,18.164 37.693,18.193 37.693,18.223 C37.723,18.237 37.752,18.252 37.781,18.267 C37.796,18.326 37.811,18.384 37.825,18.443 C37.840,18.443 37.854,18.443 37.869,18.443 C38.015,18.778 37.957,19.428 37.957,19.897 C37.957,20.895 37.957,21.893 37.957,22.892 C37.957,26.445 37.957,29.998 37.957,33.551 C37.957,34.359 37.957,35.166 37.957,35.974 C37.957,36.380 37.995,36.875 37.869,37.163 C37.686,37.583 37.283,37.860 36.815,38.000 C27.530,38.000 18.242,38.000 8.957,38.000 C6.907,38.000 4.856,38.000 2.806,38.000 C2.264,38.000 1.722,38.000 1.180,38.000 C1.180,37.985 1.180,37.971 1.180,37.956 C1.121,37.956 1.063,37.956 1.004,37.956 C1.004,37.941 1.004,37.927 1.004,37.912 C0.960,37.912 0.916,37.912 0.872,37.912 C0.872,37.897 0.872,37.883 0.872,37.868 C0.814,37.853 0.755,37.838 0.697,37.824 C0.682,37.794 0.667,37.765 0.653,37.736 C0.623,37.736 0.594,37.736 0.565,37.736 C0.521,37.677 0.477,37.618 0.433,37.560 C0.389,37.530 0.345,37.501 0.301,37.471 C0.016,37.066 0.038,36.537 0.038,35.842 C0.038,34.976 0.038,34.109 0.038,33.243 C0.038,29.617 0.038,25.989 0.038,22.363 C0.038,21.526 0.038,20.689 0.038,19.852 C0.038,19.270 -0.013,18.627 0.213,18.267 C0.243,18.252 0.272,18.237 0.301,18.223 C0.301,18.193 0.301,18.164 0.301,18.135 C0.330,18.120 0.360,18.105 0.389,18.091 C0.448,18.017 0.506,17.944 0.565,17.870 C1.093,17.496 2.175,17.606 3.069,17.606 C4.988,17.606 6.907,17.606 8.825,17.606 C8.825,13.525 8.825,9.442 8.825,5.361 C8.825,4.304 8.825,3.247 8.825,2.190 C8.825,1.618 8.779,1.000 9.001,0.648 C9.156,0.402 9.498,0.136 9.792,0.031 C10.097,-0.077 10.601,-0.013 10.978,-0.013 C11.813,-0.013 12.648,-0.013 13.483,-0.013 C17.115,-0.013 20.748,-0.013 24.380,-0.013 C25.258,-0.013 26.137,-0.013 27.016,-0.013 C27.710,-0.013 28.238,-0.035 28.642,0.251 C28.657,0.281 28.671,0.310 28.686,0.340 C28.759,0.398 28.832,0.457 28.906,0.516 C28.906,0.545 28.906,0.574 28.906,0.604 C28.935,0.618 28.964,0.633 28.993,0.648 C29.220,1.008 29.169,1.650 29.169,2.234 C29.169,3.070 29.169,3.907 29.169,4.744 C29.169,9.031 29.169,13.319 29.169,17.606 ZM11.594,2.762 C11.594,7.710 11.594,12.659 11.594,17.606 C16.529,17.606 21.466,17.606 26.401,17.606 C26.401,12.659 26.401,7.710 26.401,2.762 C21.466,2.762 16.529,2.762 11.594,2.762 ZM14.362,12.453 C17.056,12.453 19.752,12.453 22.446,12.453 C23.649,12.452 24.154,12.398 24.599,13.201 C24.685,13.356 24.870,13.766 24.775,14.082 C24.615,14.615 24.316,15.003 23.809,15.183 C23.493,15.296 22.967,15.228 22.578,15.228 C21.714,15.228 20.850,15.228 19.986,15.228 C18.580,15.228 17.174,15.228 15.768,15.228 C14.973,15.228 14.213,15.294 13.747,14.963 C13.717,14.919 13.688,14.875 13.659,14.831 C13.600,14.787 13.541,14.743 13.483,14.699 C13.483,14.670 13.483,14.640 13.483,14.611 C13.454,14.596 13.424,14.581 13.395,14.567 C13.395,14.537 13.395,14.508 13.395,14.479 C13.380,14.479 13.366,14.479 13.351,14.479 C13.351,14.449 13.351,14.420 13.351,14.391 C13.336,14.391 13.322,14.391 13.307,14.391 C13.307,14.347 13.307,14.303 13.307,14.258 C13.292,14.258 13.278,14.258 13.263,14.258 C13.263,14.200 13.263,14.141 13.263,14.082 C13.249,14.082 13.234,14.082 13.219,14.082 C13.125,13.765 13.308,13.358 13.395,13.201 C13.395,13.172 13.395,13.143 13.395,13.113 C13.424,13.099 13.454,13.084 13.483,13.069 C13.483,13.040 13.483,13.010 13.483,12.981 C13.512,12.966 13.541,12.952 13.571,12.937 C13.629,12.864 13.688,12.790 13.747,12.717 C13.776,12.717 13.805,12.717 13.834,12.717 C13.849,12.687 13.864,12.658 13.878,12.629 C13.908,12.629 13.937,12.629 13.966,12.629 C13.966,12.614 13.966,12.599 13.966,12.585 C14.098,12.541 14.230,12.497 14.362,12.453 ZM2.806,20.381 C2.806,25.329 2.806,30.278 2.806,35.225 C7.741,35.225 12.678,35.225 17.613,35.225 C17.613,30.278 17.613,25.329 17.613,20.381 C12.678,20.381 7.741,20.381 2.806,20.381 ZM20.381,20.381 C20.381,25.329 20.381,30.278 20.381,35.225 C25.317,35.225 30.253,35.225 35.189,35.225 C35.189,30.278 35.189,25.329 35.189,20.381 C30.253,20.381 25.317,20.381 20.381,20.381 ZM5.618,30.071 C8.298,30.071 10.979,30.071 13.659,30.071 C14.852,30.071 15.367,30.029 15.812,30.820 C15.898,30.974 16.082,31.387 15.987,31.701 C15.827,32.234 15.529,32.622 15.021,32.802 C14.705,32.915 14.180,32.846 13.790,32.846 C12.941,32.846 12.091,32.846 11.242,32.846 C9.821,32.846 8.400,32.846 6.980,32.846 C6.185,32.846 5.425,32.913 4.959,32.582 C4.929,32.538 4.900,32.494 4.871,32.450 C4.812,32.406 4.754,32.362 4.695,32.318 C4.695,32.289 4.695,32.259 4.695,32.230 C4.666,32.215 4.636,32.200 4.607,32.186 C4.607,32.156 4.607,32.127 4.607,32.098 C4.593,32.098 4.578,32.098 4.563,32.098 C4.563,32.068 4.563,32.039 4.563,32.010 C4.549,32.010 4.534,32.010 4.519,32.010 C4.519,31.966 4.519,31.921 4.519,31.877 C4.505,31.877 4.490,31.877 4.475,31.877 C4.475,31.819 4.475,31.760 4.475,31.701 C4.461,31.701 4.446,31.701 4.431,31.701 C4.338,31.384 4.520,30.977 4.607,30.820 C4.607,30.791 4.607,30.762 4.607,30.732 C4.636,30.718 4.666,30.703 4.695,30.688 C4.695,30.659 4.695,30.629 4.695,30.600 C4.724,30.585 4.754,30.571 4.783,30.556 C4.842,30.483 4.900,30.409 4.959,30.336 C4.988,30.336 5.017,30.336 5.047,30.336 C5.061,30.306 5.076,30.277 5.091,30.248 C5.149,30.233 5.208,30.218 5.266,30.204 C5.266,30.189 5.266,30.174 5.266,30.160 C5.381,30.109 5.530,30.149 5.618,30.071 ZM23.193,30.071 C25.873,30.071 28.554,30.071 31.234,30.071 C32.432,30.071 32.944,30.020 33.387,30.820 C33.473,30.975 33.658,31.385 33.563,31.701 C33.403,32.234 33.104,32.622 32.596,32.802 C32.280,32.915 31.755,32.846 31.366,32.846 C30.502,32.846 29.638,32.846 28.774,32.846 C27.368,32.846 25.961,32.846 24.556,32.846 C23.761,32.846 23.001,32.913 22.534,32.582 C22.505,32.538 22.476,32.494 22.446,32.450 C22.388,32.406 22.329,32.362 22.271,32.318 C22.271,32.289 22.271,32.259 22.271,32.230 C22.241,32.215 22.212,32.200 22.183,32.186 C22.183,32.156 22.183,32.127 22.183,32.098 C22.168,32.098 22.154,32.098 22.139,32.098 C22.139,32.068 22.139,32.039 22.139,32.010 C22.124,32.010 22.110,32.010 22.095,32.010 C22.095,31.966 22.095,31.921 22.095,31.877 C22.080,31.877 22.066,31.877 22.051,31.877 C22.051,31.819 22.051,31.760 22.051,31.701 C22.036,31.701 22.022,31.701 22.007,31.701 C21.913,31.384 22.096,30.977 22.183,30.820 C22.183,30.791 22.183,30.762 22.183,30.732 C22.212,30.718 22.241,30.703 22.271,30.688 C22.271,30.659 22.271,30.629 22.271,30.600 C22.329,30.556 22.388,30.512 22.446,30.468 C22.461,30.439 22.476,30.409 22.490,30.380 C22.520,30.380 22.549,30.380 22.578,30.380 C22.608,30.336 22.637,30.292 22.666,30.248 C22.695,30.248 22.725,30.248 22.754,30.248 C22.754,30.233 22.754,30.218 22.754,30.204 C22.798,30.204 22.842,30.204 22.886,30.204 C22.886,30.189 22.886,30.174 22.886,30.160 C22.915,30.160 22.944,30.160 22.974,30.160 C22.974,30.145 22.974,30.130 22.974,30.116 C23.047,30.116 23.120,30.116 23.193,30.116 C23.193,30.101 23.193,30.086 23.193,30.071 Z"/>
</svg>