<svg 
 xmlns="http://www.w3.org/2000/svg"
 xmlns:xlink="http://www.w3.org/1999/xlink"
 width="29px" height="37px">
<path fill-rule="evenodd"  fill="rgb(51, 51, 51)"
 d="M12.796,1.402 C12.994,0.607 13.303,0.592 13.649,-0.000 C13.839,-0.000 14.028,-0.000 14.218,-0.000 C15.689,2.574 18.743,3.297 21.895,4.205 C23.348,4.623 26.674,3.979 27.582,4.765 C28.307,5.579 27.867,8.710 27.867,10.091 C27.867,15.042 27.867,19.995 27.867,24.947 C27.772,24.947 27.677,24.947 27.582,24.947 C27.488,25.508 27.393,26.068 27.298,26.629 C27.203,26.629 27.108,26.629 27.014,26.629 C27.014,26.816 27.014,27.003 27.014,27.189 C26.824,27.283 26.634,27.376 26.445,27.470 C26.445,27.657 26.445,27.843 26.445,28.030 C26.255,28.124 26.066,28.217 25.876,28.311 C25.876,28.497 25.876,28.684 25.876,28.871 C25.497,29.151 25.118,29.432 24.739,29.712 C23.981,30.553 23.222,31.394 22.464,32.235 C22.274,32.235 22.085,32.235 21.895,32.235 C21.706,32.515 21.516,32.795 21.327,33.076 C21.137,33.076 20.947,33.076 20.758,33.076 C20.663,33.263 20.568,33.450 20.474,33.636 C20.189,33.730 19.905,33.823 19.620,33.917 C19.620,34.010 19.620,34.104 19.620,34.197 C19.431,34.197 19.241,34.197 19.052,34.197 C18.957,34.384 18.862,34.571 18.767,34.758 C18.388,34.851 18.009,34.944 17.630,35.038 C17.535,35.225 17.440,35.412 17.346,35.598 C17.156,35.598 16.966,35.598 16.777,35.598 C15.699,36.196 15.027,36.908 13.365,37.000 C12.642,36.197 11.430,36.161 10.521,35.598 C10.426,35.412 10.332,35.225 10.237,35.038 C10.047,35.038 9.858,35.038 9.668,35.038 C9.668,34.944 9.668,34.851 9.668,34.758 C9.478,34.758 9.289,34.758 9.099,34.758 C9.005,34.571 8.910,34.384 8.815,34.197 C8.625,34.197 8.436,34.197 8.246,34.197 C8.246,34.104 8.246,34.010 8.246,33.917 C7.962,33.823 7.678,33.730 7.393,33.636 C7.298,33.450 7.204,33.263 7.109,33.076 C6.919,33.076 6.730,33.076 6.540,33.076 C6.351,32.795 6.161,32.515 5.971,32.235 C5.782,32.235 5.592,32.235 5.403,32.235 C4.645,31.394 3.886,30.553 3.128,29.712 C2.749,29.432 2.370,29.151 1.990,28.871 C1.990,28.684 1.990,28.497 1.990,28.311 C1.801,28.217 1.611,28.124 1.422,28.030 C1.422,27.843 1.422,27.657 1.422,27.470 C1.232,27.376 1.043,27.283 0.853,27.189 C0.459,26.555 0.562,25.719 0.284,24.947 C0.190,24.947 0.095,24.947 0.000,24.947 C0.000,18.220 0.000,11.492 0.000,4.765 C0.323,4.529 0.041,4.801 0.284,4.485 C3.338,4.543 6.355,4.189 8.531,3.364 C8.815,3.364 9.099,3.364 9.384,3.364 C9.384,3.270 9.384,3.177 9.384,3.083 C9.952,2.896 10.521,2.710 11.090,2.523 C11.090,2.429 11.090,2.336 11.090,2.242 C11.279,2.242 11.469,2.242 11.659,2.242 C11.659,2.149 11.659,2.056 11.659,1.962 C12.090,1.636 12.160,1.579 12.796,1.402 ZM3.128,7.568 C3.128,11.399 3.128,15.230 3.128,19.061 C3.128,20.787 2.843,23.093 3.412,24.386 C3.507,24.386 3.602,24.386 3.697,24.386 C3.886,24.947 4.076,25.508 4.265,26.068 C4.550,26.255 4.834,26.442 5.118,26.629 C5.118,26.816 5.118,27.003 5.118,27.189 C5.497,27.470 5.877,27.750 6.256,28.030 C6.351,28.217 6.445,28.404 6.540,28.591 C6.730,28.591 6.919,28.591 7.109,28.591 C7.393,28.965 7.678,29.338 7.962,29.712 C8.151,29.712 8.341,29.712 8.531,29.712 C8.625,29.899 8.720,30.086 8.815,30.273 C9.005,30.273 9.194,30.273 9.384,30.273 C10.827,31.214 12.235,32.683 14.502,32.795 C15.274,31.939 17.154,31.491 18.199,30.833 C18.293,30.646 18.388,30.460 18.483,30.273 C18.673,30.273 18.862,30.273 19.052,30.273 C19.147,30.086 19.241,29.899 19.336,29.712 C19.526,29.712 19.715,29.712 19.905,29.712 C20.189,29.338 20.474,28.965 20.758,28.591 C20.947,28.591 21.137,28.591 21.327,28.591 C21.421,28.404 21.516,28.217 21.611,28.030 C21.990,27.750 22.369,27.470 22.748,27.189 C22.748,27.003 22.748,26.816 22.748,26.629 C23.033,26.442 23.317,26.255 23.601,26.068 C25.543,23.164 24.770,12.577 24.739,7.568 C21.387,7.626 17.580,7.176 15.639,5.886 C15.639,5.793 15.639,5.699 15.639,5.606 C14.969,5.071 14.592,4.471 13.649,4.205 C11.985,7.041 7.707,7.587 3.128,7.568 ZM22.180,10.932 C23.336,11.251 22.747,11.503 23.601,12.053 C23.601,12.146 23.601,12.240 23.601,12.333 C23.507,12.333 23.412,12.333 23.317,12.333 C22.369,13.361 21.421,14.389 20.474,15.417 C20.284,15.510 20.094,15.604 19.905,15.697 C17.496,18.977 15.170,22.184 13.365,26.068 C13.175,26.068 12.985,26.068 12.796,26.068 C11.090,24.293 9.384,22.517 7.678,20.742 C6.935,20.011 6.009,19.666 5.687,18.500 C6.203,18.220 7.368,17.297 7.678,16.818 C8.057,17.005 8.436,17.192 8.815,17.379 C8.910,17.566 9.005,17.753 9.099,17.939 C9.289,17.939 9.478,17.939 9.668,17.939 C9.952,18.313 10.237,18.687 10.521,19.061 C10.711,19.061 10.900,19.061 11.090,19.061 C11.279,19.341 11.469,19.621 11.659,19.902 C11.753,19.902 11.848,19.902 11.943,19.902 C11.943,19.808 11.943,19.715 11.943,19.621 C13.459,18.220 14.976,16.818 16.493,15.417 C16.682,15.136 16.872,14.856 17.061,14.576 C17.251,14.576 17.440,14.576 17.630,14.576 C17.914,14.202 18.199,13.828 18.483,13.455 C18.767,13.361 19.052,13.268 19.336,13.174 C19.431,12.987 19.526,12.800 19.620,12.614 C20.459,12.029 21.540,11.696 22.180,10.932 Z"/>
</svg>