<svg 
 xmlns="http://www.w3.org/2000/svg"
 xmlns:xlink="http://www.w3.org/1999/xlink"
 width="31px" height="38px">
<path fill-rule="evenodd"  fill="rgb(60, 60, 60)"
 d="M1.447,0.017 C8.464,0.017 15.483,0.017 22.500,0.017 C24.099,0.017 25.698,0.017 27.297,0.017 C27.726,0.017 28.464,-0.046 28.789,0.071 C28.931,0.133 29.073,0.196 29.216,0.259 C29.224,0.277 29.233,0.295 29.242,0.313 C29.260,0.313 29.278,0.313 29.295,0.313 C29.322,0.348 29.349,0.384 29.375,0.420 C29.393,0.420 29.411,0.420 29.429,0.420 C29.464,0.465 29.500,0.510 29.535,0.555 C29.553,0.564 29.571,0.573 29.589,0.582 C29.589,0.599 29.589,0.617 29.589,0.635 C29.624,0.662 29.660,0.689 29.695,0.716 C29.695,0.734 29.695,0.752 29.695,0.770 C29.713,0.779 29.731,0.788 29.748,0.797 C29.757,0.833 29.766,0.868 29.775,0.904 C29.784,0.904 29.793,0.904 29.802,0.904 C29.820,0.958 29.837,1.012 29.855,1.066 C29.864,1.066 29.873,1.066 29.882,1.066 C29.882,1.093 29.882,1.119 29.882,1.146 C29.891,1.146 29.900,1.146 29.908,1.146 C29.908,1.173 29.908,1.200 29.908,1.227 C29.917,1.227 29.926,1.227 29.935,1.227 C29.935,1.263 29.935,1.299 29.935,1.335 C29.944,1.335 29.953,1.335 29.962,1.335 C29.962,1.379 29.962,1.424 29.962,1.469 C29.971,1.469 29.979,1.469 29.988,1.469 C29.988,2.321 29.988,3.172 29.988,4.024 C29.988,6.605 29.988,9.187 29.988,11.769 C29.988,14.422 29.988,17.076 29.988,19.729 C29.988,20.312 29.988,20.894 29.988,21.477 C29.988,21.756 30.027,22.133 29.962,22.365 C29.962,22.472 29.962,22.580 29.962,22.687 C29.914,22.854 29.903,23.091 29.855,23.252 C29.855,23.306 29.855,23.360 29.855,23.413 C29.846,23.413 29.837,23.413 29.828,23.413 C29.828,23.458 29.828,23.503 29.828,23.548 C29.820,23.548 29.811,23.548 29.802,23.548 C29.802,23.584 29.802,23.620 29.802,23.655 C29.793,23.655 29.784,23.655 29.775,23.655 C29.775,23.700 29.775,23.745 29.775,23.790 C29.766,23.790 29.757,23.790 29.748,23.790 C29.748,23.826 29.748,23.862 29.748,23.897 C29.740,23.897 29.731,23.897 29.722,23.897 C29.722,23.933 29.722,23.969 29.722,24.005 C29.713,24.005 29.704,24.005 29.695,24.005 C29.686,24.068 29.677,24.131 29.669,24.193 C29.660,24.193 29.651,24.193 29.642,24.193 C29.642,24.220 29.642,24.247 29.642,24.274 C29.633,24.274 29.624,24.274 29.615,24.274 C29.615,24.301 29.615,24.328 29.615,24.355 C29.606,24.355 29.597,24.355 29.589,24.355 C29.562,24.471 29.535,24.588 29.509,24.704 C29.500,24.704 29.491,24.704 29.482,24.704 C29.482,24.722 29.482,24.740 29.482,24.758 C29.473,24.758 29.464,24.758 29.455,24.758 C29.446,24.812 29.438,24.866 29.429,24.919 C29.420,24.919 29.411,24.919 29.402,24.919 C29.402,24.937 29.402,24.955 29.402,24.973 C29.393,24.973 29.384,24.973 29.375,24.973 C29.375,25.000 29.375,25.027 29.375,25.054 C29.367,25.054 29.358,25.054 29.349,25.054 C29.349,25.072 29.349,25.090 29.349,25.108 C29.340,25.108 29.331,25.108 29.322,25.108 C29.322,25.134 29.322,25.161 29.322,25.188 C29.313,25.188 29.304,25.188 29.295,25.188 C29.295,25.206 29.295,25.224 29.295,25.242 C29.287,25.242 29.278,25.242 29.269,25.242 C29.269,25.269 29.269,25.296 29.269,25.323 C29.260,25.323 29.251,25.323 29.242,25.323 C29.233,25.359 29.224,25.394 29.216,25.430 C29.207,25.430 29.198,25.430 29.189,25.430 C29.180,25.475 29.171,25.520 29.162,25.565 C29.153,25.565 29.144,25.565 29.136,25.565 C29.118,25.619 29.100,25.672 29.082,25.726 C29.073,25.726 29.064,25.726 29.056,25.726 C29.056,25.744 29.056,25.762 29.056,25.780 C29.047,25.780 29.038,25.780 29.029,25.780 C29.029,25.798 29.029,25.816 29.029,25.834 C29.020,25.834 29.011,25.834 29.002,25.834 C29.002,25.852 29.002,25.870 29.002,25.887 C28.993,25.887 28.985,25.887 28.976,25.887 C28.976,25.905 28.976,25.923 28.976,25.941 C28.967,25.941 28.958,25.941 28.949,25.941 C28.949,25.959 28.949,25.977 28.949,25.995 C28.940,25.995 28.931,25.995 28.922,25.995 C28.922,26.013 28.922,26.031 28.922,26.049 C28.913,26.049 28.905,26.049 28.896,26.049 C28.896,26.067 28.896,26.085 28.896,26.103 C28.887,26.103 28.878,26.103 28.869,26.103 C28.869,26.121 28.869,26.138 28.869,26.156 C28.860,26.156 28.851,26.156 28.842,26.156 C28.842,26.174 28.842,26.192 28.842,26.210 C28.834,26.210 28.825,26.210 28.816,26.210 C28.816,26.228 28.816,26.246 28.816,26.264 C28.798,26.273 28.780,26.282 28.762,26.291 C28.762,26.309 28.762,26.327 28.762,26.345 C28.754,26.345 28.745,26.345 28.736,26.345 C28.736,26.363 28.736,26.381 28.736,26.398 C28.727,26.398 28.718,26.398 28.709,26.398 C28.709,26.416 28.709,26.434 28.709,26.452 C28.691,26.461 28.674,26.470 28.656,26.479 C28.638,26.533 28.620,26.587 28.603,26.640 C28.585,26.649 28.567,26.658 28.549,26.667 C28.540,26.703 28.531,26.739 28.523,26.775 C28.505,26.784 28.487,26.793 28.469,26.802 C28.469,26.820 28.469,26.838 28.469,26.856 C28.452,26.865 28.434,26.874 28.416,26.883 C28.416,26.900 28.416,26.918 28.416,26.936 C28.407,26.936 28.398,26.936 28.389,26.936 C28.389,26.954 28.389,26.972 28.389,26.990 C28.372,26.999 28.354,27.008 28.336,27.017 C28.336,27.035 28.336,27.053 28.336,27.071 C28.318,27.080 28.301,27.089 28.283,27.098 C28.283,27.116 28.283,27.134 28.283,27.151 C28.265,27.160 28.247,27.169 28.229,27.178 C28.229,27.196 28.229,27.214 28.229,27.232 C28.221,27.232 28.212,27.232 28.203,27.232 C28.194,27.259 28.185,27.286 28.176,27.313 C28.158,27.322 28.141,27.331 28.123,27.340 C28.123,27.358 28.123,27.376 28.123,27.393 C28.105,27.402 28.087,27.411 28.070,27.420 C28.070,27.438 28.070,27.456 28.070,27.474 C28.043,27.492 28.016,27.510 27.990,27.528 C27.990,27.546 27.990,27.564 27.990,27.582 C27.972,27.591 27.954,27.600 27.936,27.609 C27.936,27.627 27.936,27.644 27.936,27.662 C27.910,27.680 27.883,27.698 27.856,27.716 C27.856,27.734 27.856,27.752 27.856,27.770 C27.830,27.788 27.803,27.806 27.776,27.824 C27.776,27.842 27.776,27.860 27.776,27.878 C27.750,27.895 27.723,27.913 27.696,27.931 C27.696,27.949 27.696,27.967 27.696,27.985 C27.670,28.003 27.643,28.021 27.617,28.039 C27.617,28.057 27.617,28.075 27.617,28.093 C27.581,28.120 27.545,28.146 27.510,28.173 C27.510,28.191 27.510,28.209 27.510,28.227 C27.492,28.236 27.474,28.245 27.457,28.254 C27.457,28.263 27.457,28.272 27.457,28.281 C27.439,28.290 27.421,28.299 27.403,28.308 C27.403,28.326 27.403,28.344 27.403,28.362 C27.368,28.388 27.332,28.415 27.297,28.442 C27.297,28.460 27.297,28.478 27.297,28.496 C27.243,28.541 27.190,28.586 27.137,28.631 C27.137,28.648 27.137,28.666 27.137,28.684 C27.084,28.729 27.030,28.774 26.977,28.819 C26.977,28.837 26.977,28.855 26.977,28.873 C26.906,28.935 26.835,28.998 26.764,29.061 C26.764,29.079 26.764,29.097 26.764,29.115 C26.648,29.222 26.533,29.330 26.417,29.437 C26.417,29.455 26.417,29.473 26.417,29.491 C26.337,29.563 26.257,29.635 26.177,29.706 C26.026,29.868 25.875,30.029 25.724,30.190 C25.707,30.190 25.689,30.190 25.671,30.190 C25.582,30.289 25.493,30.388 25.405,30.486 C25.378,30.504 25.351,30.522 25.325,30.540 C25.325,30.549 25.325,30.558 25.325,30.567 C25.307,30.567 25.289,30.567 25.271,30.567 C25.200,30.647 25.129,30.728 25.058,30.809 C25.040,30.809 25.023,30.809 25.005,30.809 C24.952,30.872 24.898,30.934 24.845,30.997 C24.827,30.997 24.809,30.997 24.792,30.997 C24.738,31.060 24.685,31.123 24.632,31.185 C24.614,31.185 24.596,31.185 24.578,31.185 C24.570,31.203 24.561,31.221 24.552,31.239 C24.525,31.257 24.499,31.275 24.472,31.293 C24.472,31.302 24.472,31.311 24.472,31.320 C24.454,31.320 24.436,31.320 24.419,31.320 C24.383,31.365 24.347,31.409 24.312,31.454 C24.294,31.454 24.276,31.454 24.259,31.454 C24.223,31.499 24.188,31.544 24.152,31.589 C24.134,31.589 24.117,31.589 24.099,31.589 C24.072,31.625 24.045,31.660 24.019,31.696 C24.001,31.696 23.983,31.696 23.966,31.696 C23.939,31.732 23.912,31.768 23.886,31.804 C23.868,31.804 23.850,31.804 23.832,31.804 C23.806,31.840 23.779,31.876 23.752,31.911 C23.735,31.911 23.717,31.911 23.699,31.911 C23.681,31.938 23.663,31.965 23.646,31.992 C23.628,31.992 23.610,31.992 23.592,31.992 C23.566,32.028 23.539,32.064 23.512,32.100 C23.495,32.100 23.477,32.100 23.459,32.100 C23.441,32.127 23.424,32.153 23.406,32.180 C23.388,32.180 23.370,32.180 23.353,32.180 C23.335,32.207 23.317,32.234 23.299,32.261 C23.282,32.261 23.264,32.261 23.246,32.261 C23.228,32.288 23.210,32.315 23.193,32.342 C23.175,32.342 23.157,32.342 23.139,32.342 C23.122,32.369 23.104,32.395 23.086,32.422 C23.068,32.422 23.051,32.422 23.033,32.422 C23.015,32.449 22.997,32.476 22.979,32.503 C22.962,32.503 22.944,32.503 22.926,32.503 C22.908,32.530 22.891,32.557 22.873,32.584 C22.846,32.593 22.820,32.602 22.793,32.611 C22.784,32.629 22.775,32.646 22.766,32.664 C22.749,32.664 22.731,32.664 22.713,32.664 C22.704,32.682 22.695,32.700 22.686,32.718 C22.669,32.718 22.651,32.718 22.633,32.718 C22.624,32.736 22.615,32.754 22.606,32.772 C22.580,32.781 22.553,32.790 22.526,32.799 C22.509,32.826 22.491,32.853 22.473,32.880 C22.455,32.880 22.438,32.880 22.420,32.880 C22.420,32.889 22.420,32.897 22.420,32.906 C22.393,32.915 22.367,32.924 22.340,32.933 C22.331,32.951 22.322,32.969 22.313,32.987 C22.295,32.987 22.278,32.987 22.260,32.987 C22.242,33.014 22.224,33.041 22.207,33.068 C22.189,33.068 22.171,33.068 22.153,33.068 C22.153,33.077 22.153,33.086 22.153,33.095 C22.127,33.104 22.100,33.113 22.073,33.122 C22.065,33.140 22.056,33.157 22.047,33.175 C22.029,33.175 22.011,33.175 21.993,33.175 C21.976,33.202 21.958,33.229 21.940,33.256 C21.922,33.256 21.905,33.256 21.887,33.256 C21.878,33.274 21.869,33.292 21.860,33.310 C21.834,33.319 21.807,33.328 21.780,33.337 C21.780,33.346 21.780,33.355 21.780,33.364 C21.762,33.364 21.745,33.364 21.727,33.364 C21.718,33.382 21.709,33.399 21.700,33.417 C21.683,33.417 21.665,33.417 21.647,33.417 C21.638,33.435 21.629,33.453 21.620,33.471 C21.603,33.471 21.585,33.471 21.567,33.471 C21.558,33.489 21.549,33.507 21.540,33.525 C21.523,33.525 21.505,33.525 21.487,33.525 C21.478,33.543 21.469,33.561 21.460,33.579 C21.443,33.579 21.425,33.579 21.407,33.579 C21.398,33.597 21.389,33.615 21.381,33.633 C21.363,33.633 21.345,33.633 21.327,33.633 C21.318,33.650 21.309,33.668 21.301,33.686 C21.283,33.686 21.265,33.686 21.247,33.686 C21.238,33.704 21.229,33.722 21.221,33.740 C21.203,33.740 21.185,33.740 21.167,33.740 C21.158,33.758 21.150,33.776 21.141,33.794 C21.123,33.794 21.105,33.794 21.087,33.794 C21.078,33.812 21.070,33.830 21.061,33.848 C21.043,33.848 21.025,33.848 21.007,33.848 C20.999,33.866 20.990,33.884 20.981,33.901 C20.963,33.901 20.945,33.901 20.927,33.901 C20.919,33.919 20.910,33.937 20.901,33.955 C20.865,33.964 20.830,33.973 20.794,33.982 C20.785,34.000 20.776,34.018 20.768,34.036 C20.750,34.036 20.732,34.036 20.714,34.036 C20.705,34.054 20.696,34.072 20.688,34.090 C20.670,34.090 20.652,34.090 20.634,34.090 C20.625,34.108 20.617,34.126 20.608,34.144 C20.572,34.152 20.537,34.161 20.501,34.170 C20.501,34.179 20.501,34.188 20.501,34.197 C20.474,34.206 20.448,34.215 20.421,34.224 C20.412,34.242 20.403,34.260 20.394,34.278 C20.359,34.287 20.323,34.296 20.288,34.305 C20.288,34.314 20.288,34.323 20.288,34.332 C20.261,34.341 20.235,34.350 20.208,34.359 C20.199,34.377 20.190,34.395 20.181,34.412 C20.164,34.412 20.146,34.412 20.128,34.412 C20.128,34.421 20.128,34.430 20.128,34.439 C20.110,34.439 20.092,34.439 20.075,34.439 C20.066,34.457 20.057,34.475 20.048,34.493 C20.012,34.502 19.977,34.511 19.941,34.520 C19.933,34.538 19.924,34.556 19.915,34.574 C19.879,34.583 19.844,34.592 19.808,34.601 C19.799,34.619 19.790,34.637 19.782,34.654 C19.755,34.663 19.728,34.672 19.702,34.681 C19.702,34.690 19.702,34.699 19.702,34.708 C19.666,34.717 19.631,34.726 19.595,34.735 C19.595,34.744 19.595,34.753 19.595,34.762 C19.577,34.762 19.559,34.762 19.542,34.762 C19.533,34.780 19.524,34.798 19.515,34.816 C19.480,34.825 19.444,34.834 19.408,34.843 C19.400,34.861 19.391,34.879 19.382,34.896 C19.346,34.905 19.311,34.914 19.275,34.923 C19.266,34.941 19.257,34.959 19.249,34.977 C19.213,34.986 19.177,34.995 19.142,35.004 C19.142,35.013 19.142,35.022 19.142,35.031 C19.124,35.031 19.106,35.031 19.089,35.031 C19.080,35.049 19.071,35.067 19.062,35.085 C19.026,35.094 18.991,35.103 18.955,35.112 C18.947,35.130 18.938,35.147 18.929,35.165 C18.875,35.183 18.822,35.201 18.769,35.219 C18.760,35.237 18.751,35.255 18.742,35.273 C18.707,35.282 18.671,35.291 18.636,35.300 C18.636,35.309 18.636,35.318 18.636,35.327 C18.618,35.327 18.600,35.327 18.582,35.327 C18.582,35.336 18.582,35.345 18.582,35.354 C18.565,35.354 18.547,35.354 18.529,35.354 C18.520,35.372 18.511,35.390 18.502,35.407 C18.485,35.407 18.467,35.407 18.449,35.407 C18.449,35.416 18.449,35.425 18.449,35.434 C18.431,35.434 18.414,35.434 18.396,35.434 C18.396,35.443 18.396,35.452 18.396,35.461 C18.378,35.461 18.360,35.461 18.342,35.461 C18.342,35.470 18.342,35.479 18.342,35.488 C18.325,35.488 18.307,35.488 18.289,35.488 C18.280,35.506 18.271,35.524 18.262,35.542 C18.245,35.542 18.227,35.542 18.209,35.542 C18.209,35.551 18.209,35.560 18.209,35.569 C18.191,35.569 18.174,35.569 18.156,35.569 C18.156,35.578 18.156,35.587 18.156,35.596 C18.138,35.596 18.120,35.596 18.103,35.596 C18.103,35.605 18.103,35.614 18.103,35.623 C18.085,35.623 18.067,35.623 18.049,35.623 C18.040,35.641 18.032,35.658 18.023,35.676 C18.005,35.676 17.987,35.676 17.969,35.676 C17.969,35.685 17.969,35.694 17.969,35.703 C17.952,35.703 17.934,35.703 17.916,35.703 C17.916,35.712 17.916,35.721 17.916,35.730 C17.898,35.730 17.881,35.730 17.863,35.730 C17.863,35.739 17.863,35.748 17.863,35.757 C17.845,35.757 17.827,35.757 17.809,35.757 C17.809,35.766 17.809,35.775 17.809,35.784 C17.774,35.793 17.738,35.802 17.703,35.811 C17.694,35.829 17.685,35.847 17.676,35.865 C17.658,35.865 17.641,35.865 17.623,35.865 C17.623,35.874 17.623,35.883 17.623,35.892 C17.605,35.892 17.587,35.892 17.570,35.892 C17.570,35.900 17.570,35.909 17.570,35.918 C17.427,35.981 17.285,36.044 17.143,36.107 C17.134,36.125 17.125,36.143 17.117,36.160 C17.099,36.160 17.081,36.160 17.063,36.160 C17.063,36.169 17.063,36.178 17.063,36.187 C17.046,36.187 17.028,36.187 17.010,36.187 C17.010,36.196 17.010,36.205 17.010,36.214 C16.992,36.214 16.974,36.214 16.957,36.214 C16.957,36.223 16.957,36.232 16.957,36.241 C16.939,36.241 16.921,36.241 16.903,36.241 C16.903,36.250 16.903,36.259 16.903,36.268 C16.886,36.268 16.868,36.268 16.850,36.268 C16.850,36.277 16.850,36.286 16.850,36.295 C16.832,36.295 16.815,36.295 16.797,36.295 C16.797,36.304 16.797,36.313 16.797,36.322 C16.761,36.331 16.726,36.340 16.690,36.349 C16.690,36.358 16.690,36.367 16.690,36.376 C16.672,36.376 16.655,36.376 16.637,36.376 C16.637,36.385 16.637,36.394 16.637,36.402 C16.619,36.402 16.601,36.402 16.584,36.402 C16.584,36.411 16.584,36.420 16.584,36.429 C16.566,36.429 16.548,36.429 16.530,36.429 C16.530,36.438 16.530,36.447 16.530,36.456 C16.513,36.456 16.495,36.456 16.477,36.456 C16.477,36.465 16.477,36.474 16.477,36.483 C16.459,36.483 16.441,36.483 16.424,36.483 C16.424,36.492 16.424,36.501 16.424,36.510 C16.388,36.519 16.353,36.528 16.317,36.537 C16.317,36.546 16.317,36.555 16.317,36.564 C16.299,36.564 16.282,36.564 16.264,36.564 C16.264,36.573 16.264,36.582 16.264,36.591 C16.237,36.591 16.210,36.591 16.184,36.591 C16.184,36.600 16.184,36.609 16.184,36.618 C16.131,36.636 16.077,36.653 16.024,36.671 C16.024,36.680 16.024,36.689 16.024,36.698 C16.006,36.698 15.988,36.698 15.971,36.698 C15.971,36.707 15.971,36.716 15.971,36.725 C15.953,36.725 15.935,36.725 15.917,36.725 C15.917,36.734 15.917,36.743 15.917,36.752 C15.882,36.761 15.846,36.770 15.811,36.779 C15.811,36.788 15.811,36.797 15.811,36.806 C15.766,36.815 15.722,36.824 15.677,36.833 C15.677,36.842 15.677,36.851 15.677,36.860 C15.660,36.860 15.642,36.860 15.624,36.860 C15.624,36.869 15.624,36.878 15.624,36.887 C15.535,36.904 15.447,36.922 15.358,36.940 C14.816,37.117 14.321,36.860 13.972,36.671 C13.892,36.645 13.812,36.618 13.732,36.591 C13.732,36.582 13.732,36.573 13.732,36.564 C13.679,36.546 13.625,36.528 13.572,36.510 C13.572,36.501 13.572,36.492 13.572,36.483 C13.554,36.483 13.537,36.483 13.519,36.483 C13.519,36.474 13.519,36.465 13.519,36.456 C13.501,36.456 13.483,36.456 13.466,36.456 C13.466,36.447 13.466,36.438 13.466,36.429 C13.430,36.420 13.394,36.411 13.359,36.402 C13.359,36.394 13.359,36.385 13.359,36.376 C13.323,36.367 13.288,36.358 13.252,36.349 C13.252,36.340 13.252,36.331 13.252,36.322 C13.235,36.322 13.217,36.322 13.199,36.322 C13.199,36.313 13.199,36.304 13.199,36.295 C13.181,36.295 13.164,36.295 13.146,36.295 C13.146,36.286 13.146,36.277 13.146,36.268 C13.128,36.268 13.110,36.268 13.092,36.268 C13.092,36.259 13.092,36.250 13.092,36.241 C13.075,36.241 13.057,36.241 13.039,36.241 C13.039,36.232 13.039,36.223 13.039,36.214 C13.021,36.214 13.004,36.214 12.986,36.214 C12.986,36.205 12.986,36.196 12.986,36.187 C12.950,36.178 12.915,36.169 12.879,36.160 C12.870,36.143 12.862,36.125 12.853,36.107 C12.817,36.098 12.782,36.089 12.746,36.080 C12.746,36.071 12.746,36.062 12.746,36.053 C12.728,36.053 12.710,36.053 12.693,36.053 C12.693,36.044 12.693,36.035 12.693,36.026 C12.675,36.026 12.657,36.026 12.639,36.026 C12.639,36.017 12.639,36.008 12.639,35.999 C12.622,35.999 12.604,35.999 12.586,35.999 C12.586,35.990 12.586,35.981 12.586,35.972 C12.568,35.972 12.551,35.972 12.533,35.972 C12.533,35.963 12.533,35.954 12.533,35.945 C12.515,35.945 12.497,35.945 12.480,35.945 C12.480,35.936 12.480,35.927 12.480,35.918 C12.462,35.918 12.444,35.918 12.426,35.918 C12.426,35.909 12.426,35.900 12.426,35.892 C12.408,35.892 12.391,35.892 12.373,35.892 C12.373,35.883 12.373,35.874 12.373,35.865 C12.355,35.865 12.337,35.865 12.320,35.865 C12.311,35.847 12.302,35.829 12.293,35.811 C12.275,35.811 12.257,35.811 12.240,35.811 C12.240,35.802 12.240,35.793 12.240,35.784 C12.222,35.784 12.204,35.784 12.186,35.784 C12.186,35.775 12.186,35.766 12.186,35.757 C12.169,35.757 12.151,35.757 12.133,35.757 C12.133,35.748 12.133,35.739 12.133,35.730 C12.115,35.730 12.098,35.730 12.080,35.730 C12.080,35.721 12.080,35.712 12.080,35.703 C12.044,35.694 12.009,35.685 11.973,35.676 C11.964,35.658 11.955,35.641 11.947,35.623 C11.911,35.614 11.875,35.605 11.840,35.596 C11.840,35.587 11.840,35.578 11.840,35.569 C11.822,35.569 11.804,35.569 11.787,35.569 C11.787,35.560 11.787,35.551 11.787,35.542 C11.769,35.542 11.751,35.542 11.733,35.542 C11.724,35.524 11.716,35.506 11.707,35.488 C11.689,35.488 11.671,35.488 11.653,35.488 C11.653,35.479 11.653,35.470 11.653,35.461 C11.636,35.461 11.618,35.461 11.600,35.461 C11.600,35.452 11.600,35.443 11.600,35.434 C11.582,35.434 11.565,35.434 11.547,35.434 C11.547,35.425 11.547,35.416 11.547,35.407 C11.529,35.407 11.511,35.407 11.493,35.407 C11.485,35.390 11.476,35.372 11.467,35.354 C11.449,35.354 11.431,35.354 11.414,35.354 C11.414,35.345 11.414,35.336 11.414,35.327 C11.396,35.327 11.378,35.327 11.360,35.327 C11.360,35.318 11.360,35.309 11.360,35.300 C11.342,35.300 11.325,35.300 11.307,35.300 C11.307,35.291 11.307,35.282 11.307,35.273 C11.289,35.273 11.271,35.273 11.254,35.273 C11.245,35.255 11.236,35.237 11.227,35.219 C11.174,35.201 11.120,35.183 11.067,35.165 C11.058,35.147 11.049,35.130 11.040,35.112 C11.023,35.112 11.005,35.112 10.987,35.112 C10.987,35.103 10.987,35.094 10.987,35.085 C10.969,35.085 10.952,35.085 10.934,35.085 C10.925,35.067 10.916,35.049 10.907,35.031 C10.854,35.013 10.801,34.995 10.747,34.977 C10.738,34.959 10.730,34.941 10.721,34.923 C10.685,34.914 10.650,34.905 10.614,34.896 C10.605,34.879 10.596,34.861 10.587,34.843 C10.552,34.834 10.516,34.825 10.481,34.816 C10.472,34.798 10.463,34.780 10.454,34.762 C10.401,34.744 10.348,34.726 10.294,34.708 C10.294,34.699 10.294,34.690 10.294,34.681 C10.268,34.672 10.241,34.663 10.214,34.654 C10.205,34.637 10.197,34.619 10.188,34.601 C10.152,34.592 10.117,34.583 10.081,34.574 C10.072,34.556 10.063,34.538 10.054,34.520 C10.019,34.511 9.983,34.502 9.948,34.493 C9.939,34.475 9.930,34.457 9.921,34.439 C9.886,34.430 9.850,34.421 9.815,34.412 C9.815,34.403 9.815,34.394 9.815,34.386 C9.788,34.377 9.761,34.368 9.735,34.359 C9.726,34.341 9.717,34.323 9.708,34.305 C9.690,34.305 9.672,34.305 9.655,34.305 C9.655,34.296 9.655,34.287 9.655,34.278 C9.637,34.278 9.619,34.278 9.601,34.278 C9.592,34.260 9.584,34.242 9.575,34.224 C9.557,34.224 9.539,34.224 9.521,34.224 C9.513,34.206 9.504,34.188 9.495,34.170 C9.459,34.161 9.424,34.152 9.388,34.144 C9.379,34.126 9.370,34.108 9.362,34.090 C9.344,34.090 9.326,34.090 9.308,34.090 C9.299,34.072 9.290,34.054 9.282,34.036 C9.255,34.027 9.228,34.018 9.202,34.009 C9.202,34.000 9.202,33.991 9.202,33.982 C9.166,33.973 9.131,33.964 9.095,33.955 C9.086,33.937 9.077,33.919 9.068,33.901 C9.051,33.901 9.033,33.901 9.015,33.901 C9.006,33.884 8.997,33.866 8.988,33.848 C8.971,33.848 8.953,33.848 8.935,33.848 C8.935,33.839 8.935,33.830 8.935,33.821 C8.908,33.812 8.882,33.803 8.855,33.794 C8.846,33.776 8.837,33.758 8.829,33.740 C8.811,33.740 8.793,33.740 8.775,33.740 C8.766,33.722 8.757,33.704 8.749,33.686 C8.731,33.686 8.713,33.686 8.695,33.686 C8.686,33.668 8.678,33.650 8.669,33.633 C8.651,33.633 8.633,33.633 8.615,33.633 C8.606,33.615 8.598,33.597 8.589,33.579 C8.571,33.579 8.553,33.579 8.535,33.579 C8.526,33.561 8.518,33.543 8.509,33.525 C8.491,33.525 8.473,33.525 8.455,33.525 C8.447,33.507 8.438,33.489 8.429,33.471 C8.411,33.471 8.393,33.471 8.375,33.471 C8.367,33.453 8.358,33.435 8.349,33.417 C8.331,33.417 8.313,33.417 8.296,33.417 C8.287,33.399 8.278,33.382 8.269,33.364 C8.251,33.364 8.233,33.364 8.216,33.364 C8.216,33.355 8.216,33.346 8.216,33.337 C8.189,33.328 8.162,33.319 8.136,33.310 C8.127,33.292 8.118,33.274 8.109,33.256 C8.091,33.256 8.073,33.256 8.056,33.256 C8.038,33.229 8.020,33.202 8.002,33.175 C7.985,33.175 7.967,33.175 7.949,33.175 C7.949,33.166 7.949,33.157 7.949,33.148 C7.922,33.140 7.896,33.131 7.869,33.122 C7.860,33.104 7.851,33.086 7.842,33.068 C7.825,33.068 7.807,33.068 7.789,33.068 C7.771,33.041 7.754,33.014 7.736,32.987 C7.718,32.987 7.700,32.987 7.683,32.987 C7.683,32.978 7.683,32.969 7.683,32.960 C7.656,32.951 7.629,32.942 7.603,32.933 C7.594,32.915 7.585,32.897 7.576,32.880 C7.558,32.880 7.540,32.880 7.523,32.880 C7.514,32.862 7.505,32.844 7.496,32.826 C7.469,32.817 7.443,32.808 7.416,32.799 C7.398,32.772 7.381,32.745 7.363,32.718 C7.345,32.718 7.327,32.718 7.309,32.718 C7.301,32.700 7.292,32.682 7.283,32.664 C7.265,32.664 7.247,32.664 7.230,32.664 C7.221,32.646 7.212,32.629 7.203,32.611 C7.176,32.602 7.150,32.593 7.123,32.584 C7.105,32.557 7.087,32.530 7.070,32.503 C7.052,32.503 7.034,32.503 7.016,32.503 C6.999,32.476 6.981,32.449 6.963,32.422 C6.945,32.422 6.928,32.422 6.910,32.422 C6.892,32.395 6.874,32.369 6.856,32.342 C6.839,32.342 6.821,32.342 6.803,32.342 C6.785,32.315 6.768,32.288 6.750,32.261 C6.732,32.261 6.714,32.261 6.697,32.261 C6.679,32.234 6.661,32.207 6.643,32.180 C6.625,32.180 6.608,32.180 6.590,32.180 C6.572,32.153 6.554,32.127 6.537,32.100 C6.519,32.100 6.501,32.100 6.483,32.100 C6.457,32.064 6.430,32.028 6.403,31.992 C6.377,31.983 6.350,31.974 6.323,31.965 C6.315,31.947 6.306,31.929 6.297,31.911 C6.279,31.911 6.261,31.911 6.244,31.911 C6.217,31.876 6.190,31.840 6.164,31.804 C6.146,31.804 6.128,31.804 6.110,31.804 C6.084,31.768 6.057,31.732 6.030,31.696 C6.013,31.696 5.995,31.696 5.977,31.696 C5.950,31.660 5.924,31.625 5.897,31.589 C5.879,31.589 5.862,31.589 5.844,31.589 C5.808,31.544 5.773,31.499 5.737,31.454 C5.719,31.454 5.702,31.454 5.684,31.454 C5.648,31.409 5.613,31.365 5.577,31.320 C5.560,31.320 5.542,31.320 5.524,31.320 C5.488,31.275 5.453,31.230 5.417,31.185 C5.400,31.185 5.382,31.185 5.364,31.185 C5.311,31.123 5.257,31.060 5.204,30.997 C5.186,30.997 5.169,30.997 5.151,30.997 C5.098,30.934 5.044,30.872 4.991,30.809 C4.973,30.809 4.955,30.809 4.938,30.809 C4.867,30.728 4.796,30.647 4.724,30.567 C4.707,30.567 4.689,30.567 4.671,30.567 C4.556,30.441 4.440,30.316 4.325,30.190 C4.307,30.190 4.289,30.190 4.271,30.190 C4.200,30.110 4.129,30.029 4.058,29.948 C3.898,29.796 3.738,29.643 3.579,29.491 C3.579,29.473 3.579,29.455 3.579,29.437 C3.490,29.357 3.401,29.276 3.312,29.195 C3.294,29.168 3.277,29.141 3.259,29.115 C3.250,29.115 3.241,29.115 3.232,29.115 C3.232,29.097 3.232,29.079 3.232,29.061 C3.161,28.998 3.090,28.935 3.019,28.873 C3.019,28.855 3.019,28.837 3.019,28.819 C2.966,28.774 2.912,28.729 2.859,28.684 C2.859,28.666 2.859,28.648 2.859,28.631 C2.806,28.586 2.752,28.541 2.699,28.496 C2.699,28.478 2.699,28.460 2.699,28.442 C2.681,28.433 2.664,28.424 2.646,28.415 C2.646,28.406 2.646,28.397 2.646,28.388 C2.628,28.380 2.610,28.371 2.593,28.362 C2.593,28.344 2.593,28.326 2.593,28.308 C2.557,28.281 2.521,28.254 2.486,28.227 C2.486,28.209 2.486,28.191 2.486,28.173 C2.450,28.146 2.415,28.120 2.379,28.093 C2.379,28.075 2.379,28.057 2.379,28.039 C2.353,28.021 2.326,28.003 2.299,27.985 C2.299,27.967 2.299,27.949 2.299,27.931 C2.273,27.913 2.246,27.895 2.219,27.878 C2.219,27.860 2.219,27.842 2.219,27.824 C2.193,27.806 2.166,27.788 2.139,27.770 C2.139,27.752 2.139,27.734 2.139,27.716 C2.113,27.698 2.086,27.680 2.060,27.662 C2.060,27.644 2.060,27.627 2.060,27.609 C2.042,27.600 2.024,27.591 2.006,27.582 C2.006,27.564 2.006,27.546 2.006,27.528 C1.980,27.510 1.953,27.492 1.926,27.474 C1.926,27.456 1.926,27.438 1.926,27.420 C1.909,27.411 1.891,27.402 1.873,27.393 C1.873,27.376 1.873,27.358 1.873,27.340 C1.855,27.331 1.837,27.322 1.820,27.313 C1.820,27.295 1.820,27.277 1.820,27.259 C1.802,27.250 1.784,27.241 1.766,27.232 C1.766,27.214 1.766,27.196 1.766,27.178 C1.749,27.169 1.731,27.160 1.713,27.151 C1.713,27.134 1.713,27.116 1.713,27.098 C1.695,27.089 1.678,27.080 1.660,27.071 C1.660,27.053 1.660,27.035 1.660,27.017 C1.642,27.008 1.624,26.999 1.606,26.990 C1.598,26.954 1.589,26.918 1.580,26.883 C1.571,26.883 1.562,26.883 1.553,26.883 C1.544,26.856 1.535,26.829 1.527,26.802 C1.509,26.793 1.491,26.784 1.473,26.775 C1.464,26.739 1.455,26.703 1.447,26.667 C1.429,26.658 1.411,26.649 1.393,26.640 C1.376,26.587 1.358,26.533 1.340,26.479 C1.322,26.470 1.304,26.461 1.287,26.452 C1.269,26.398 1.251,26.345 1.233,26.291 C1.216,26.282 1.198,26.273 1.180,26.264 C1.180,26.246 1.180,26.228 1.180,26.210 C1.171,26.210 1.162,26.210 1.153,26.210 C1.153,26.192 1.153,26.174 1.153,26.156 C1.145,26.156 1.136,26.156 1.127,26.156 C1.127,26.138 1.127,26.121 1.127,26.103 C1.118,26.103 1.109,26.103 1.100,26.103 C1.100,26.085 1.100,26.067 1.100,26.049 C1.091,26.049 1.082,26.049 1.073,26.049 C1.073,26.031 1.073,26.013 1.073,25.995 C1.065,25.995 1.056,25.995 1.047,25.995 C1.047,25.977 1.047,25.959 1.047,25.941 C1.038,25.941 1.029,25.941 1.020,25.941 C1.020,25.923 1.020,25.905 1.020,25.887 C1.011,25.887 1.002,25.887 0.994,25.887 C0.994,25.870 0.994,25.852 0.994,25.834 C0.985,25.834 0.976,25.834 0.967,25.834 C0.967,25.816 0.967,25.798 0.967,25.780 C0.958,25.780 0.949,25.780 0.940,25.780 C0.940,25.762 0.940,25.744 0.940,25.726 C0.931,25.726 0.922,25.726 0.914,25.726 C0.896,25.672 0.878,25.619 0.860,25.565 C0.851,25.565 0.843,25.565 0.834,25.565 C0.825,25.520 0.816,25.475 0.807,25.430 C0.798,25.430 0.789,25.430 0.780,25.430 C0.771,25.394 0.763,25.359 0.754,25.323 C0.745,25.323 0.736,25.323 0.727,25.323 C0.727,25.296 0.727,25.269 0.727,25.242 C0.718,25.242 0.709,25.242 0.700,25.242 C0.700,25.224 0.700,25.206 0.700,25.188 C0.692,25.188 0.683,25.188 0.674,25.188 C0.674,25.161 0.674,25.134 0.674,25.108 C0.665,25.108 0.656,25.108 0.647,25.108 C0.647,25.090 0.647,25.072 0.647,25.054 C0.638,25.054 0.629,25.054 0.620,25.054 C0.620,25.027 0.620,25.000 0.620,24.973 C0.612,24.973 0.603,24.973 0.594,24.973 C0.594,24.955 0.594,24.937 0.594,24.919 C0.585,24.919 0.576,24.919 0.567,24.919 C0.558,24.866 0.549,24.812 0.540,24.758 C0.532,24.758 0.523,24.758 0.514,24.758 C0.514,24.740 0.514,24.722 0.514,24.704 C0.505,24.704 0.496,24.704 0.487,24.704 C0.461,24.588 0.434,24.471 0.407,24.355 C0.398,24.355 0.389,24.355 0.381,24.355 C0.381,24.328 0.381,24.301 0.381,24.274 C0.372,24.274 0.363,24.274 0.354,24.274 C0.354,24.247 0.354,24.220 0.354,24.193 C0.345,24.193 0.336,24.193 0.327,24.193 C0.318,24.131 0.310,24.068 0.301,24.005 C0.292,24.005 0.283,24.005 0.274,24.005 C0.274,23.969 0.274,23.933 0.274,23.897 C0.265,23.897 0.256,23.897 0.247,23.897 C0.247,23.862 0.247,23.826 0.247,23.790 C0.238,23.790 0.230,23.790 0.221,23.790 C0.221,23.745 0.221,23.700 0.221,23.655 C0.212,23.655 0.203,23.655 0.194,23.655 C0.194,23.620 0.194,23.584 0.194,23.548 C0.185,23.548 0.176,23.548 0.167,23.548 C0.167,23.503 0.167,23.458 0.167,23.413 C0.159,23.413 0.150,23.413 0.141,23.413 C0.141,23.360 0.141,23.306 0.141,23.252 C0.132,23.252 0.123,23.252 0.114,23.252 C0.114,23.198 0.114,23.144 0.114,23.091 C0.105,23.091 0.096,23.091 0.087,23.091 C0.087,23.028 0.087,22.965 0.087,22.902 C0.079,22.902 0.070,22.902 0.061,22.902 C0.061,22.831 0.061,22.759 0.061,22.687 C0.052,22.687 0.043,22.687 0.034,22.687 C0.034,22.580 0.034,22.472 0.034,22.365 C-0.022,22.163 0.008,21.832 0.007,21.585 C0.007,21.074 0.007,20.563 0.007,20.052 C0.007,17.677 0.007,15.301 0.007,12.925 C0.007,10.165 0.007,7.403 0.007,4.642 C0.007,3.871 0.007,3.100 0.007,2.330 C0.007,1.877 -0.024,1.382 0.114,1.066 C0.123,1.066 0.132,1.066 0.141,1.066 C0.141,1.048 0.141,1.030 0.141,1.012 C0.150,1.012 0.159,1.012 0.167,1.012 C0.167,0.994 0.167,0.976 0.167,0.958 C0.176,0.958 0.185,0.958 0.194,0.958 C0.194,0.940 0.194,0.922 0.194,0.904 C0.203,0.904 0.212,0.904 0.221,0.904 C0.221,0.886 0.221,0.868 0.221,0.850 C0.230,0.850 0.238,0.850 0.247,0.850 C0.247,0.833 0.247,0.815 0.247,0.797 C0.265,0.788 0.283,0.779 0.301,0.770 C0.301,0.752 0.301,0.734 0.301,0.716 C0.336,0.689 0.372,0.662 0.407,0.635 C0.407,0.617 0.407,0.599 0.407,0.582 C0.452,0.546 0.496,0.510 0.540,0.474 C0.549,0.456 0.558,0.438 0.567,0.420 C0.585,0.420 0.603,0.420 0.620,0.420 C0.647,0.384 0.674,0.348 0.700,0.313 C0.718,0.313 0.736,0.313 0.754,0.313 C0.763,0.295 0.771,0.277 0.780,0.259 C0.798,0.259 0.816,0.259 0.834,0.259 C0.834,0.250 0.834,0.241 0.834,0.232 C0.851,0.232 0.869,0.232 0.887,0.232 C0.887,0.223 0.887,0.214 0.887,0.205 C0.905,0.205 0.922,0.205 0.940,0.205 C0.940,0.196 0.940,0.187 0.940,0.178 C0.958,0.178 0.976,0.178 0.994,0.178 C0.994,0.169 0.994,0.160 0.994,0.151 C1.011,0.151 1.029,0.151 1.047,0.151 C1.047,0.142 1.047,0.133 1.047,0.124 C1.073,0.124 1.100,0.124 1.127,0.124 C1.127,0.115 1.127,0.106 1.127,0.097 C1.153,0.097 1.180,0.097 1.207,0.097 C1.207,0.089 1.207,0.080 1.207,0.071 C1.291,0.041 1.387,0.070 1.447,0.017 ZM3.339,3.378 C3.339,7.905 3.339,12.433 3.339,16.959 C3.339,18.241 3.339,19.523 3.339,20.805 C3.338,21.684 3.321,22.561 3.552,23.198 C3.552,23.234 3.552,23.270 3.552,23.306 C3.561,23.306 3.570,23.306 3.579,23.306 C3.579,23.333 3.579,23.360 3.579,23.386 C3.587,23.386 3.596,23.386 3.605,23.386 C3.605,23.413 3.605,23.440 3.605,23.467 C3.614,23.467 3.623,23.467 3.632,23.467 C3.632,23.494 3.632,23.521 3.632,23.548 C3.641,23.548 3.650,23.548 3.658,23.548 C3.667,23.602 3.676,23.655 3.685,23.709 C3.694,23.709 3.703,23.709 3.712,23.709 C3.712,23.727 3.712,23.745 3.712,23.763 C3.721,23.763 3.730,23.763 3.738,23.763 C3.738,23.790 3.738,23.817 3.738,23.844 C3.747,23.844 3.756,23.844 3.765,23.844 C3.765,23.862 3.765,23.879 3.765,23.897 C3.774,23.897 3.783,23.897 3.792,23.897 C3.792,23.924 3.792,23.951 3.792,23.978 C3.801,23.978 3.810,23.978 3.818,23.978 C3.836,24.032 3.854,24.086 3.872,24.139 C3.881,24.139 3.889,24.139 3.898,24.139 C3.898,24.157 3.898,24.175 3.898,24.193 C3.907,24.193 3.916,24.193 3.925,24.193 C3.925,24.220 3.925,24.247 3.925,24.274 C3.934,24.274 3.943,24.274 3.952,24.274 C3.961,24.310 3.969,24.346 3.978,24.381 C3.987,24.381 3.996,24.381 4.005,24.381 C4.014,24.417 4.023,24.453 4.032,24.489 C4.049,24.498 4.067,24.507 4.085,24.516 C4.085,24.534 4.085,24.552 4.085,24.570 C4.094,24.570 4.103,24.570 4.112,24.570 C4.112,24.588 4.112,24.606 4.112,24.624 C4.120,24.624 4.129,24.624 4.138,24.624 C4.138,24.641 4.138,24.659 4.138,24.677 C4.147,24.677 4.156,24.677 4.165,24.677 C4.165,24.695 4.165,24.713 4.165,24.731 C4.174,24.731 4.183,24.731 4.191,24.731 C4.191,24.749 4.191,24.767 4.191,24.785 C4.209,24.794 4.227,24.803 4.245,24.812 C4.254,24.848 4.263,24.883 4.271,24.919 C4.289,24.928 4.307,24.937 4.325,24.946 C4.325,24.964 4.325,24.982 4.325,25.000 C4.334,25.000 4.343,25.000 4.351,25.000 C4.351,25.018 4.351,25.036 4.351,25.054 C4.360,25.054 4.369,25.054 4.378,25.054 C4.387,25.081 4.396,25.108 4.405,25.134 C4.422,25.143 4.440,25.152 4.458,25.161 C4.467,25.197 4.476,25.233 4.485,25.269 C4.494,25.269 4.502,25.269 4.511,25.269 C4.520,25.296 4.529,25.323 4.538,25.350 C4.556,25.359 4.573,25.368 4.591,25.377 C4.591,25.394 4.591,25.412 4.591,25.430 C4.609,25.439 4.627,25.448 4.645,25.457 C4.645,25.475 4.645,25.493 4.645,25.511 C4.671,25.529 4.698,25.547 4.724,25.565 C4.724,25.583 4.724,25.601 4.724,25.619 C4.742,25.628 4.760,25.636 4.778,25.645 C4.778,25.663 4.778,25.681 4.778,25.699 C4.804,25.717 4.831,25.735 4.858,25.753 C4.858,25.771 4.858,25.789 4.858,25.807 C4.884,25.825 4.911,25.843 4.938,25.861 C4.938,25.879 4.938,25.896 4.938,25.914 C4.964,25.932 4.991,25.950 5.018,25.968 C5.018,25.986 5.018,26.004 5.018,26.022 C5.053,26.049 5.089,26.076 5.124,26.103 C5.124,26.121 5.124,26.138 5.124,26.156 C5.160,26.183 5.195,26.210 5.231,26.237 C5.231,26.255 5.231,26.273 5.231,26.291 C5.275,26.327 5.320,26.363 5.364,26.398 C5.364,26.416 5.364,26.434 5.364,26.452 C5.417,26.497 5.471,26.542 5.524,26.587 C5.524,26.605 5.524,26.623 5.524,26.640 C5.595,26.703 5.666,26.766 5.737,26.829 C5.737,26.847 5.737,26.865 5.737,26.883 C5.933,27.071 6.128,27.259 6.323,27.447 C6.510,27.644 6.697,27.842 6.883,28.039 C6.901,28.039 6.919,28.039 6.936,28.039 C7.007,28.120 7.079,28.200 7.150,28.281 C7.167,28.281 7.185,28.281 7.203,28.281 C7.256,28.344 7.310,28.406 7.363,28.469 C7.381,28.469 7.398,28.469 7.416,28.469 C7.461,28.523 7.505,28.577 7.549,28.631 C7.567,28.631 7.585,28.631 7.603,28.631 C7.647,28.684 7.691,28.738 7.736,28.792 C7.754,28.792 7.771,28.792 7.789,28.792 C7.825,28.837 7.860,28.882 7.896,28.926 C7.914,28.926 7.931,28.926 7.949,28.926 C7.958,28.944 7.967,28.962 7.976,28.980 C7.985,28.980 7.994,28.980 8.002,28.980 C8.011,28.998 8.020,29.016 8.029,29.034 C8.047,29.034 8.065,29.034 8.082,29.034 C8.091,29.052 8.100,29.070 8.109,29.088 C8.118,29.088 8.127,29.088 8.136,29.088 C8.145,29.106 8.153,29.124 8.162,29.141 C8.180,29.141 8.198,29.141 8.216,29.141 C8.242,29.177 8.269,29.213 8.296,29.249 C8.313,29.249 8.331,29.249 8.349,29.249 C8.375,29.285 8.402,29.321 8.429,29.357 C8.447,29.357 8.464,29.357 8.482,29.357 C8.500,29.384 8.518,29.410 8.535,29.437 C8.553,29.437 8.571,29.437 8.589,29.437 C8.606,29.464 8.624,29.491 8.642,29.518 C8.660,29.518 8.678,29.518 8.695,29.518 C8.713,29.545 8.731,29.572 8.749,29.599 C8.766,29.599 8.784,29.599 8.802,29.599 C8.829,29.635 8.855,29.670 8.882,29.706 C8.900,29.706 8.917,29.706 8.935,29.706 C8.944,29.724 8.953,29.742 8.962,29.760 C8.980,29.760 8.997,29.760 9.015,29.760 C9.033,29.787 9.051,29.814 9.068,29.841 C9.086,29.841 9.104,29.841 9.122,29.841 C9.139,29.868 9.157,29.894 9.175,29.921 C9.202,29.930 9.228,29.939 9.255,29.948 C9.264,29.966 9.273,29.984 9.282,30.002 C9.299,30.002 9.317,30.002 9.335,30.002 C9.344,30.020 9.353,30.038 9.362,30.056 C9.379,30.056 9.397,30.056 9.415,30.056 C9.433,30.083 9.450,30.110 9.468,30.137 C9.486,30.137 9.504,30.137 9.521,30.137 C9.530,30.154 9.539,30.172 9.548,30.190 C9.566,30.190 9.584,30.190 9.601,30.190 C9.619,30.217 9.637,30.244 9.655,30.271 C9.672,30.271 9.690,30.271 9.708,30.271 C9.708,30.280 9.708,30.289 9.708,30.298 C9.735,30.307 9.761,30.316 9.788,30.325 C9.797,30.343 9.806,30.361 9.815,30.379 C9.832,30.379 9.850,30.379 9.868,30.379 C9.886,30.405 9.903,30.432 9.921,30.459 C9.939,30.459 9.957,30.459 9.974,30.459 C9.983,30.477 9.992,30.495 10.001,30.513 C10.028,30.522 10.054,30.531 10.081,30.540 C10.081,30.549 10.081,30.558 10.081,30.567 C10.099,30.567 10.117,30.567 10.134,30.567 C10.143,30.585 10.152,30.603 10.161,30.621 C10.179,30.621 10.197,30.621 10.214,30.621 C10.223,30.639 10.232,30.656 10.241,30.674 C10.259,30.674 10.276,30.674 10.294,30.674 C10.303,30.692 10.312,30.710 10.321,30.728 C10.339,30.728 10.356,30.728 10.374,30.728 C10.383,30.746 10.392,30.764 10.401,30.782 C10.419,30.782 10.436,30.782 10.454,30.782 C10.463,30.800 10.472,30.818 10.481,30.836 C10.499,30.836 10.516,30.836 10.534,30.836 C10.543,30.854 10.552,30.872 10.561,30.889 C10.579,30.889 10.596,30.889 10.614,30.889 C10.623,30.907 10.632,30.925 10.641,30.943 C10.658,30.943 10.676,30.943 10.694,30.943 C10.703,30.961 10.712,30.979 10.721,30.997 C10.738,30.997 10.756,30.997 10.774,30.997 C10.783,31.015 10.792,31.033 10.801,31.051 C10.818,31.051 10.836,31.051 10.854,31.051 C10.863,31.069 10.872,31.087 10.881,31.105 C10.916,31.114 10.952,31.123 10.987,31.132 C10.996,31.149 11.005,31.167 11.014,31.185 C11.032,31.185 11.049,31.185 11.067,31.185 C11.076,31.203 11.085,31.221 11.094,31.239 C11.112,31.239 11.129,31.239 11.147,31.239 C11.156,31.257 11.165,31.275 11.174,31.293 C11.191,31.293 11.209,31.293 11.227,31.293 C11.227,31.302 11.227,31.311 11.227,31.320 C11.245,31.320 11.263,31.320 11.280,31.320 C11.289,31.338 11.298,31.356 11.307,31.374 C11.325,31.374 11.342,31.374 11.360,31.374 C11.369,31.391 11.378,31.409 11.387,31.427 C11.422,31.436 11.458,31.445 11.493,31.454 C11.493,31.463 11.493,31.472 11.493,31.481 C11.520,31.490 11.547,31.499 11.573,31.508 C11.582,31.526 11.591,31.544 11.600,31.562 C11.618,31.562 11.636,31.562 11.653,31.562 C11.653,31.571 11.653,31.580 11.653,31.589 C11.671,31.589 11.689,31.589 11.707,31.589 C11.716,31.607 11.724,31.625 11.733,31.642 C11.769,31.651 11.804,31.660 11.840,31.669 C11.849,31.687 11.858,31.705 11.867,31.723 C11.902,31.732 11.938,31.741 11.973,31.750 C11.982,31.768 11.991,31.786 12.000,31.804 C12.035,31.813 12.071,31.822 12.106,31.831 C12.115,31.849 12.124,31.867 12.133,31.885 C12.169,31.893 12.204,31.902 12.240,31.911 C12.249,31.929 12.257,31.947 12.266,31.965 C12.320,31.983 12.373,32.001 12.426,32.019 C12.435,32.037 12.444,32.055 12.453,32.073 C12.471,32.073 12.488,32.073 12.506,32.073 C12.506,32.082 12.506,32.091 12.506,32.100 C12.524,32.100 12.542,32.100 12.559,32.100 C12.568,32.118 12.577,32.136 12.586,32.153 C12.639,32.171 12.693,32.189 12.746,32.207 C12.755,32.225 12.764,32.243 12.773,32.261 C12.826,32.279 12.879,32.297 12.933,32.315 C12.941,32.333 12.950,32.351 12.959,32.369 C12.977,32.369 12.995,32.369 13.013,32.369 C13.013,32.378 13.013,32.387 13.013,32.395 C13.030,32.395 13.048,32.395 13.066,32.395 C13.066,32.404 13.066,32.413 13.066,32.422 C13.084,32.422 13.101,32.422 13.119,32.422 C13.119,32.431 13.119,32.440 13.119,32.449 C13.137,32.449 13.155,32.449 13.172,32.449 C13.181,32.467 13.190,32.485 13.199,32.503 C13.217,32.503 13.235,32.503 13.252,32.503 C13.252,32.512 13.252,32.521 13.252,32.530 C13.270,32.530 13.288,32.530 13.306,32.530 C13.306,32.539 13.306,32.548 13.306,32.557 C13.323,32.557 13.341,32.557 13.359,32.557 C13.359,32.566 13.359,32.575 13.359,32.584 C13.377,32.584 13.394,32.584 13.412,32.584 C13.421,32.602 13.430,32.620 13.439,32.638 C13.457,32.638 13.474,32.638 13.492,32.638 C13.492,32.646 13.492,32.655 13.492,32.664 C13.510,32.664 13.528,32.664 13.546,32.664 C13.546,32.673 13.546,32.682 13.546,32.691 C13.599,32.709 13.652,32.727 13.705,32.745 C13.714,32.763 13.723,32.781 13.732,32.799 C13.750,32.799 13.768,32.799 13.785,32.799 C13.785,32.808 13.785,32.817 13.785,32.826 C13.803,32.826 13.821,32.826 13.839,32.826 C13.839,32.835 13.839,32.844 13.839,32.853 C13.856,32.853 13.874,32.853 13.892,32.853 C13.892,32.862 13.892,32.871 13.892,32.880 C13.910,32.880 13.927,32.880 13.945,32.880 C13.945,32.889 13.945,32.897 13.945,32.906 C13.963,32.906 13.981,32.906 13.999,32.906 C13.999,32.915 13.999,32.924 13.999,32.933 C14.034,32.942 14.070,32.951 14.105,32.960 C14.114,32.978 14.123,32.996 14.132,33.014 C14.185,33.032 14.238,33.050 14.292,33.068 C14.292,33.077 14.292,33.086 14.292,33.095 C14.327,33.104 14.363,33.113 14.398,33.122 C14.398,33.131 14.398,33.140 14.398,33.148 C14.416,33.148 14.434,33.148 14.452,33.148 C14.452,33.157 14.452,33.166 14.452,33.175 C14.469,33.175 14.487,33.175 14.505,33.175 C14.505,33.184 14.505,33.193 14.505,33.202 C14.523,33.202 14.540,33.202 14.558,33.202 C14.558,33.211 14.558,33.220 14.558,33.229 C14.576,33.229 14.594,33.229 14.611,33.229 C14.611,33.238 14.611,33.247 14.611,33.256 C14.629,33.256 14.647,33.256 14.665,33.256 C14.665,33.265 14.665,33.274 14.665,33.283 C14.683,33.283 14.700,33.283 14.718,33.283 C14.718,33.292 14.718,33.301 14.718,33.310 C14.736,33.310 14.754,33.310 14.771,33.310 C14.771,33.319 14.771,33.328 14.771,33.337 C14.789,33.337 14.807,33.337 14.825,33.337 C14.825,33.346 14.825,33.355 14.825,33.364 C14.842,33.364 14.860,33.364 14.878,33.364 C14.878,33.373 14.878,33.382 14.878,33.391 C14.914,33.399 14.949,33.408 14.985,33.417 C14.985,33.426 14.985,33.435 14.985,33.444 C14.993,33.444 15.002,33.444 15.011,33.444 C15.011,33.435 15.011,33.426 15.011,33.417 C15.122,33.397 15.195,33.328 15.278,33.283 C15.313,33.274 15.349,33.265 15.384,33.256 C15.384,33.247 15.384,33.238 15.384,33.229 C15.420,33.220 15.455,33.211 15.491,33.202 C15.491,33.193 15.491,33.184 15.491,33.175 C15.509,33.175 15.526,33.175 15.544,33.175 C15.544,33.166 15.544,33.157 15.544,33.148 C15.562,33.148 15.580,33.148 15.598,33.148 C15.598,33.140 15.598,33.131 15.598,33.122 C15.615,33.122 15.633,33.122 15.651,33.122 C15.651,33.113 15.651,33.104 15.651,33.095 C15.669,33.095 15.686,33.095 15.704,33.095 C15.704,33.086 15.704,33.077 15.704,33.068 C15.722,33.068 15.740,33.068 15.757,33.068 C15.757,33.059 15.757,33.050 15.757,33.041 C15.793,33.032 15.829,33.023 15.864,33.014 C15.873,32.996 15.882,32.978 15.891,32.960 C15.908,32.960 15.926,32.960 15.944,32.960 C15.944,32.951 15.944,32.942 15.944,32.933 C15.962,32.933 15.980,32.933 15.997,32.933 C15.997,32.924 15.997,32.915 15.997,32.906 C16.015,32.906 16.033,32.906 16.051,32.906 C16.051,32.897 16.051,32.889 16.051,32.880 C16.068,32.880 16.086,32.880 16.104,32.880 C16.104,32.871 16.104,32.862 16.104,32.853 C16.122,32.853 16.139,32.853 16.157,32.853 C16.157,32.844 16.157,32.835 16.157,32.826 C16.175,32.826 16.193,32.826 16.210,32.826 C16.210,32.817 16.210,32.808 16.210,32.799 C16.228,32.799 16.246,32.799 16.264,32.799 C16.273,32.781 16.282,32.763 16.290,32.745 C16.308,32.745 16.326,32.745 16.344,32.745 C16.344,32.736 16.344,32.727 16.344,32.718 C16.361,32.718 16.379,32.718 16.397,32.718 C16.397,32.709 16.397,32.700 16.397,32.691 C16.415,32.691 16.433,32.691 16.450,32.691 C16.450,32.682 16.450,32.673 16.450,32.664 C16.468,32.664 16.486,32.664 16.504,32.664 C16.504,32.655 16.504,32.646 16.504,32.638 C16.521,32.638 16.539,32.638 16.557,32.638 C16.566,32.620 16.575,32.602 16.584,32.584 C16.601,32.584 16.619,32.584 16.637,32.584 C16.637,32.575 16.637,32.566 16.637,32.557 C16.655,32.557 16.672,32.557 16.690,32.557 C16.690,32.548 16.690,32.539 16.690,32.530 C16.708,32.530 16.726,32.530 16.743,32.530 C16.743,32.521 16.743,32.512 16.743,32.503 C16.761,32.503 16.779,32.503 16.797,32.503 C16.806,32.485 16.815,32.467 16.823,32.449 C16.841,32.449 16.859,32.449 16.877,32.449 C16.877,32.440 16.877,32.431 16.877,32.422 C16.894,32.422 16.912,32.422 16.930,32.422 C16.930,32.413 16.930,32.404 16.930,32.395 C16.948,32.395 16.966,32.395 16.983,32.395 C16.983,32.387 16.983,32.378 16.983,32.369 C17.001,32.369 17.019,32.369 17.037,32.369 C17.045,32.351 17.054,32.333 17.063,32.315 C17.117,32.297 17.170,32.279 17.223,32.261 C17.232,32.243 17.241,32.225 17.250,32.207 C17.303,32.189 17.356,32.171 17.410,32.153 C17.419,32.136 17.427,32.118 17.436,32.100 C17.454,32.100 17.472,32.100 17.490,32.100 C17.490,32.091 17.490,32.082 17.490,32.073 C17.507,32.073 17.525,32.073 17.543,32.073 C17.552,32.055 17.561,32.037 17.570,32.019 C17.623,32.001 17.676,31.983 17.730,31.965 C17.738,31.947 17.747,31.929 17.756,31.911 C17.792,31.902 17.827,31.893 17.863,31.885 C17.872,31.867 17.881,31.849 17.889,31.831 C17.925,31.822 17.960,31.813 17.996,31.804 C18.005,31.786 18.014,31.768 18.023,31.750 C18.058,31.741 18.094,31.732 18.129,31.723 C18.138,31.705 18.147,31.687 18.156,31.669 C18.191,31.660 18.227,31.651 18.262,31.642 C18.271,31.625 18.280,31.607 18.289,31.589 C18.307,31.589 18.325,31.589 18.342,31.589 C18.342,31.580 18.342,31.571 18.342,31.562 C18.360,31.562 18.378,31.562 18.396,31.562 C18.396,31.553 18.396,31.544 18.396,31.535 C18.422,31.526 18.449,31.517 18.476,31.508 C18.485,31.490 18.493,31.472 18.502,31.454 C18.538,31.445 18.573,31.436 18.609,31.427 C18.609,31.418 18.609,31.409 18.609,31.400 C18.636,31.391 18.662,31.383 18.689,31.374 C18.698,31.356 18.707,31.338 18.716,31.320 C18.751,31.311 18.787,31.302 18.822,31.293 C18.831,31.275 18.840,31.257 18.849,31.239 C18.867,31.239 18.884,31.239 18.902,31.239 C18.911,31.221 18.920,31.203 18.929,31.185 C18.947,31.185 18.964,31.185 18.982,31.185 C18.991,31.167 19.000,31.149 19.009,31.132 C19.044,31.123 19.080,31.114 19.115,31.105 C19.124,31.087 19.133,31.069 19.142,31.051 C19.160,31.051 19.177,31.051 19.195,31.051 C19.204,31.033 19.213,31.015 19.222,30.997 C19.240,30.997 19.257,30.997 19.275,30.997 C19.284,30.979 19.293,30.961 19.302,30.943 C19.320,30.943 19.337,30.943 19.355,30.943 C19.364,30.925 19.373,30.907 19.382,30.889 C19.400,30.889 19.417,30.889 19.435,30.889 C19.444,30.872 19.453,30.854 19.462,30.836 C19.479,30.836 19.497,30.836 19.515,30.836 C19.524,30.818 19.533,30.800 19.542,30.782 C19.559,30.782 19.577,30.782 19.595,30.782 C19.595,30.773 19.595,30.764 19.595,30.755 C19.622,30.746 19.648,30.737 19.675,30.728 C19.684,30.710 19.693,30.692 19.702,30.674 C19.719,30.674 19.737,30.674 19.755,30.674 C19.764,30.656 19.773,30.639 19.782,30.621 C19.799,30.621 19.817,30.621 19.835,30.621 C19.844,30.603 19.853,30.585 19.861,30.567 C19.879,30.567 19.897,30.567 19.915,30.567 C19.915,30.558 19.915,30.549 19.915,30.540 C19.941,30.531 19.968,30.522 19.995,30.513 C20.004,30.495 20.012,30.477 20.021,30.459 C20.039,30.459 20.057,30.459 20.075,30.459 C20.092,30.432 20.110,30.405 20.128,30.379 C20.146,30.379 20.164,30.379 20.181,30.379 C20.181,30.370 20.181,30.361 20.181,30.352 C20.208,30.343 20.235,30.334 20.261,30.325 C20.270,30.307 20.279,30.289 20.288,30.271 C20.306,30.271 20.323,30.271 20.341,30.271 C20.359,30.244 20.377,30.217 20.394,30.190 C20.412,30.190 20.430,30.190 20.448,30.190 C20.457,30.172 20.466,30.154 20.474,30.137 C20.492,30.137 20.510,30.137 20.528,30.137 C20.545,30.110 20.563,30.083 20.581,30.056 C20.599,30.056 20.617,30.056 20.634,30.056 C20.643,30.038 20.652,30.020 20.661,30.002 C20.679,30.002 20.697,30.002 20.714,30.002 C20.732,29.975 20.750,29.948 20.768,29.921 C20.785,29.921 20.803,29.921 20.821,29.921 C20.839,29.894 20.856,29.868 20.874,29.841 C20.892,29.841 20.910,29.841 20.927,29.841 C20.945,29.814 20.963,29.787 20.981,29.760 C20.999,29.760 21.016,29.760 21.034,29.760 C21.043,29.742 21.052,29.724 21.061,29.706 C21.078,29.706 21.096,29.706 21.114,29.706 C21.141,29.670 21.167,29.635 21.194,29.599 C21.212,29.599 21.229,29.599 21.247,29.599 C21.265,29.572 21.283,29.545 21.301,29.518 C21.318,29.518 21.336,29.518 21.354,29.518 C21.372,29.491 21.389,29.464 21.407,29.437 C21.425,29.437 21.443,29.437 21.460,29.437 C21.478,29.410 21.496,29.384 21.514,29.357 C21.532,29.357 21.549,29.357 21.567,29.357 C21.594,29.321 21.620,29.285 21.647,29.249 C21.665,29.249 21.683,29.249 21.700,29.249 C21.727,29.213 21.754,29.177 21.780,29.141 C21.798,29.141 21.816,29.141 21.834,29.141 C21.860,29.106 21.887,29.070 21.913,29.034 C21.931,29.034 21.949,29.034 21.967,29.034 C21.993,28.998 22.020,28.962 22.047,28.926 C22.065,28.926 22.082,28.926 22.100,28.926 C22.136,28.882 22.171,28.837 22.207,28.792 C22.224,28.792 22.242,28.792 22.260,28.792 C22.278,28.765 22.295,28.738 22.313,28.711 C22.340,28.693 22.367,28.675 22.393,28.657 C22.393,28.648 22.393,28.639 22.393,28.631 C22.411,28.631 22.429,28.631 22.446,28.631 C22.491,28.577 22.535,28.523 22.580,28.469 C22.979,28.177 23.302,27.821 23.646,27.474 C23.850,27.277 24.054,27.080 24.259,26.883 C24.259,26.865 24.259,26.847 24.259,26.829 C24.330,26.766 24.401,26.703 24.472,26.640 C24.472,26.623 24.472,26.605 24.472,26.587 C24.525,26.542 24.578,26.497 24.632,26.452 C24.632,26.434 24.632,26.416 24.632,26.398 C24.676,26.363 24.721,26.327 24.765,26.291 C24.765,26.273 24.765,26.255 24.765,26.237 C24.801,26.210 24.836,26.183 24.872,26.156 C24.872,26.138 24.872,26.121 24.872,26.103 C24.907,26.076 24.943,26.049 24.978,26.022 C24.978,26.004 24.978,25.986 24.978,25.968 C25.005,25.950 25.032,25.932 25.058,25.914 C25.058,25.896 25.058,25.879 25.058,25.861 C25.085,25.843 25.111,25.825 25.138,25.807 C25.138,25.789 25.138,25.771 25.138,25.753 C25.165,25.735 25.191,25.717 25.218,25.699 C25.218,25.681 25.218,25.663 25.218,25.645 C25.236,25.636 25.254,25.628 25.271,25.619 C25.271,25.601 25.271,25.583 25.271,25.565 C25.298,25.547 25.325,25.529 25.351,25.511 C25.351,25.493 25.351,25.475 25.351,25.457 C25.369,25.448 25.387,25.439 25.405,25.430 C25.413,25.403 25.422,25.377 25.431,25.350 C25.440,25.350 25.449,25.350 25.458,25.350 C25.458,25.332 25.458,25.314 25.458,25.296 C25.476,25.287 25.493,25.278 25.511,25.269 C25.520,25.233 25.529,25.197 25.538,25.161 C25.547,25.161 25.556,25.161 25.565,25.161 C25.573,25.134 25.582,25.108 25.591,25.081 C25.609,25.072 25.627,25.063 25.644,25.054 C25.653,25.018 25.662,24.982 25.671,24.946 C25.689,24.937 25.707,24.928 25.724,24.919 C25.724,24.901 25.724,24.883 25.724,24.866 C25.733,24.866 25.742,24.866 25.751,24.866 C25.751,24.848 25.751,24.830 25.751,24.812 C25.769,24.803 25.787,24.794 25.804,24.785 C25.804,24.767 25.804,24.749 25.804,24.731 C25.813,24.731 25.822,24.731 25.831,24.731 C25.831,24.713 25.831,24.695 25.831,24.677 C25.840,24.677 25.849,24.677 25.858,24.677 C25.858,24.659 25.858,24.641 25.858,24.624 C25.867,24.624 25.875,24.624 25.884,24.624 C25.884,24.606 25.884,24.588 25.884,24.570 C25.893,24.570 25.902,24.570 25.911,24.570 C25.911,24.552 25.911,24.534 25.911,24.516 C25.929,24.507 25.946,24.498 25.964,24.489 C25.973,24.453 25.982,24.417 25.991,24.381 C26.000,24.381 26.009,24.381 26.018,24.381 C26.026,24.346 26.035,24.310 26.044,24.274 C26.053,24.274 26.062,24.274 26.071,24.274 C26.071,24.247 26.071,24.220 26.071,24.193 C26.080,24.193 26.089,24.193 26.097,24.193 C26.097,24.175 26.097,24.157 26.097,24.139 C26.106,24.139 26.115,24.139 26.124,24.139 C26.142,24.086 26.160,24.032 26.177,23.978 C26.186,23.978 26.195,23.978 26.204,23.978 C26.311,23.655 26.417,23.333 26.524,23.010 C26.533,22.920 26.542,22.831 26.551,22.741 C26.709,22.227 26.657,21.437 26.657,20.778 C26.657,19.451 26.657,18.124 26.657,16.798 C26.657,12.325 26.657,7.851 26.657,3.378 C18.885,3.378 11.111,3.378 3.339,3.378 ZM20.501,11.204 C20.922,11.237 21.274,11.337 21.540,11.527 C21.567,11.563 21.594,11.599 21.620,11.634 C21.638,11.634 21.656,11.634 21.674,11.634 C21.683,11.652 21.691,11.670 21.700,11.688 C21.736,11.715 21.771,11.742 21.807,11.769 C21.807,11.787 21.807,11.805 21.807,11.823 C21.842,11.850 21.878,11.876 21.913,11.903 C21.913,11.921 21.913,11.939 21.913,11.957 C21.931,11.966 21.949,11.975 21.967,11.984 C21.976,12.020 21.985,12.056 21.993,12.092 C22.011,12.101 22.029,12.110 22.047,12.118 C22.047,12.136 22.047,12.154 22.047,12.172 C22.056,12.172 22.065,12.172 22.073,12.172 C22.073,12.199 22.073,12.226 22.073,12.253 C22.082,12.253 22.091,12.253 22.100,12.253 C22.100,12.271 22.100,12.289 22.100,12.307 C22.109,12.307 22.118,12.307 22.127,12.307 C22.127,12.334 22.127,12.361 22.127,12.387 C22.211,12.613 22.256,12.940 22.180,13.194 C22.180,13.239 22.180,13.284 22.180,13.329 C22.171,13.329 22.162,13.329 22.153,13.329 C22.136,13.409 22.118,13.490 22.100,13.571 C22.091,13.571 22.082,13.571 22.073,13.571 C22.056,13.624 22.038,13.678 22.020,13.732 C22.011,13.732 22.002,13.732 21.993,13.732 C21.993,13.750 21.993,13.768 21.993,13.786 C21.976,13.795 21.958,13.804 21.940,13.813 C21.940,13.831 21.940,13.849 21.940,13.866 C21.914,13.884 21.887,13.902 21.860,13.920 C21.860,13.938 21.860,13.956 21.860,13.974 C21.754,14.073 21.647,14.171 21.540,14.270 C21.540,14.288 21.540,14.306 21.540,14.324 C21.363,14.494 21.185,14.664 21.007,14.835 C21.007,14.853 21.007,14.870 21.007,14.888 C20.990,14.897 20.972,14.906 20.954,14.915 C20.919,14.960 20.883,15.005 20.848,15.050 C20.723,15.166 20.599,15.283 20.474,15.399 C20.474,15.417 20.474,15.435 20.474,15.453 C20.368,15.552 20.261,15.650 20.155,15.749 C20.110,15.803 20.066,15.857 20.021,15.910 C19.995,15.928 19.968,15.946 19.941,15.964 C19.941,15.982 19.941,16.000 19.941,16.018 C19.764,16.188 19.586,16.359 19.408,16.529 C19.408,16.547 19.408,16.565 19.408,16.583 C19.231,16.753 19.053,16.923 18.875,17.094 C18.875,17.112 18.875,17.129 18.875,17.147 C18.698,17.318 18.520,17.488 18.342,17.658 C18.342,17.676 18.342,17.694 18.342,17.712 C18.165,17.882 17.987,18.053 17.809,18.223 C17.809,18.241 17.809,18.259 17.809,18.277 C17.703,18.375 17.596,18.474 17.490,18.573 C17.445,18.626 17.401,18.680 17.356,18.734 C17.330,18.752 17.303,18.770 17.276,18.788 C17.276,18.806 17.276,18.824 17.276,18.842 C17.099,19.012 16.921,19.182 16.743,19.353 C16.743,19.371 16.743,19.388 16.743,19.406 C16.664,19.478 16.584,19.550 16.504,19.622 C16.344,19.801 16.184,19.980 16.024,20.159 C15.908,20.267 15.793,20.375 15.677,20.482 C15.677,20.500 15.677,20.518 15.677,20.536 C15.571,20.634 15.464,20.733 15.358,20.832 C15.313,20.885 15.269,20.939 15.224,20.993 C15.198,21.011 15.171,21.029 15.144,21.047 C15.144,21.065 15.144,21.083 15.144,21.101 C14.976,21.262 14.807,21.423 14.638,21.585 C14.629,21.612 14.620,21.638 14.611,21.665 C14.567,21.701 14.523,21.737 14.478,21.773 C14.389,21.872 14.301,21.970 14.212,22.069 C14.194,22.069 14.176,22.069 14.158,22.069 C14.141,22.096 14.123,22.123 14.105,22.149 C14.070,22.158 14.034,22.167 13.999,22.176 C13.990,22.194 13.981,22.212 13.972,22.230 C13.954,22.230 13.936,22.230 13.919,22.230 C13.919,22.239 13.919,22.248 13.919,22.257 C13.901,22.257 13.883,22.257 13.865,22.257 C13.865,22.266 13.865,22.275 13.865,22.284 C13.848,22.284 13.830,22.284 13.812,22.284 C13.812,22.293 13.812,22.302 13.812,22.311 C13.785,22.311 13.759,22.311 13.732,22.311 C13.732,22.320 13.732,22.329 13.732,22.338 C13.581,22.398 13.444,22.402 13.252,22.418 C13.199,22.427 13.146,22.436 13.092,22.445 C13.092,22.436 13.092,22.427 13.092,22.418 C12.968,22.409 12.844,22.400 12.719,22.391 C12.719,22.382 12.719,22.374 12.719,22.365 C12.666,22.356 12.613,22.347 12.559,22.338 C12.559,22.329 12.559,22.320 12.559,22.311 C12.542,22.311 12.524,22.311 12.506,22.311 C12.506,22.302 12.506,22.293 12.506,22.284 C12.480,22.284 12.453,22.284 12.426,22.284 C12.426,22.275 12.426,22.266 12.426,22.257 C12.408,22.257 12.391,22.257 12.373,22.257 C12.373,22.248 12.373,22.239 12.373,22.230 C12.355,22.230 12.337,22.230 12.320,22.230 C12.311,22.212 12.302,22.194 12.293,22.176 C12.275,22.176 12.257,22.176 12.240,22.176 C12.231,22.158 12.222,22.140 12.213,22.123 C12.195,22.123 12.177,22.123 12.160,22.123 C12.142,22.096 12.124,22.069 12.106,22.042 C12.089,22.042 12.071,22.042 12.053,22.042 C11.991,21.970 11.929,21.898 11.867,21.827 C11.831,21.800 11.796,21.773 11.760,21.746 C11.760,21.728 11.760,21.710 11.760,21.692 C11.582,21.522 11.405,21.352 11.227,21.181 C11.227,21.163 11.227,21.145 11.227,21.127 C11.120,21.029 11.014,20.930 10.907,20.832 C10.863,20.778 10.818,20.724 10.774,20.670 C10.747,20.652 10.721,20.634 10.694,20.617 C10.694,20.599 10.694,20.581 10.694,20.563 C10.516,20.392 10.339,20.222 10.161,20.052 C10.161,20.034 10.161,20.016 10.161,19.998 C10.001,19.846 9.841,19.693 9.681,19.541 C9.681,19.532 9.681,19.523 9.681,19.514 C9.664,19.505 9.646,19.496 9.628,19.487 C9.628,19.469 9.628,19.451 9.628,19.433 C9.450,19.263 9.273,19.093 9.095,18.922 C9.095,18.904 9.095,18.886 9.095,18.869 C8.917,18.698 8.740,18.528 8.562,18.358 C8.562,18.340 8.562,18.322 8.562,18.304 C8.429,18.178 8.296,18.053 8.162,17.927 C8.162,17.909 8.162,17.891 8.162,17.873 C8.136,17.856 8.109,17.838 8.082,17.820 C8.082,17.802 8.082,17.784 8.082,17.766 C8.065,17.757 8.047,17.748 8.029,17.739 C8.020,17.712 8.011,17.685 8.002,17.658 C7.994,17.658 7.985,17.658 7.976,17.658 C7.976,17.640 7.976,17.622 7.976,17.605 C7.967,17.605 7.958,17.605 7.949,17.605 C7.949,17.587 7.949,17.569 7.949,17.551 C7.940,17.551 7.931,17.551 7.922,17.551 C7.922,17.524 7.922,17.497 7.922,17.470 C7.914,17.470 7.905,17.470 7.896,17.470 C7.896,17.452 7.896,17.434 7.896,17.416 C7.887,17.416 7.878,17.416 7.869,17.416 C7.860,17.363 7.851,17.309 7.842,17.255 C7.834,17.255 7.825,17.255 7.816,17.255 C7.816,17.210 7.816,17.165 7.816,17.120 C7.742,16.869 7.797,16.504 7.869,16.314 C7.869,16.287 7.869,16.260 7.869,16.233 C7.878,16.233 7.887,16.233 7.896,16.233 C7.896,16.215 7.896,16.197 7.896,16.179 C7.905,16.179 7.914,16.179 7.922,16.179 C7.922,16.152 7.922,16.125 7.922,16.099 C7.931,16.099 7.940,16.099 7.949,16.099 C7.949,16.081 7.949,16.063 7.949,16.045 C7.958,16.045 7.967,16.045 7.976,16.045 C7.976,16.027 7.976,16.009 7.976,15.991 C7.994,15.982 8.011,15.973 8.029,15.964 C8.029,15.946 8.029,15.928 8.029,15.910 C8.047,15.901 8.065,15.892 8.082,15.883 C8.082,15.866 8.082,15.848 8.082,15.830 C8.109,15.812 8.136,15.794 8.162,15.776 C8.162,15.758 8.162,15.740 8.162,15.722 C8.180,15.713 8.198,15.704 8.216,15.695 C8.260,15.641 8.304,15.588 8.349,15.534 C8.367,15.534 8.384,15.534 8.402,15.534 C8.429,15.498 8.455,15.462 8.482,15.426 C8.518,15.417 8.553,15.408 8.589,15.399 C8.598,15.381 8.606,15.364 8.615,15.346 C8.651,15.337 8.686,15.328 8.722,15.319 C8.990,15.176 9.397,15.073 9.761,15.184 C9.806,15.184 9.850,15.184 9.895,15.184 C9.895,15.193 9.895,15.202 9.895,15.211 C9.921,15.211 9.948,15.211 9.974,15.211 C9.974,15.220 9.974,15.229 9.974,15.238 C10.001,15.238 10.028,15.238 10.054,15.238 C10.054,15.247 10.054,15.256 10.054,15.265 C10.072,15.265 10.090,15.265 10.108,15.265 C10.108,15.274 10.108,15.283 10.108,15.292 C10.125,15.292 10.143,15.292 10.161,15.292 C10.161,15.301 10.161,15.310 10.161,15.319 C10.179,15.319 10.197,15.319 10.214,15.319 C10.214,15.328 10.214,15.337 10.214,15.346 C10.232,15.346 10.250,15.346 10.268,15.346 C10.268,15.355 10.268,15.364 10.268,15.372 C10.285,15.372 10.303,15.372 10.321,15.372 C10.321,15.381 10.321,15.390 10.321,15.399 C10.348,15.408 10.374,15.417 10.401,15.426 C10.410,15.444 10.419,15.462 10.428,15.480 C10.445,15.480 10.463,15.480 10.481,15.480 C10.596,15.606 10.712,15.731 10.827,15.857 C10.916,15.937 11.005,16.018 11.094,16.099 C11.094,16.117 11.094,16.134 11.094,16.152 C11.200,16.251 11.307,16.350 11.414,16.448 C11.458,16.502 11.502,16.556 11.547,16.610 C11.573,16.627 11.600,16.645 11.627,16.663 C11.627,16.681 11.627,16.699 11.627,16.717 C11.804,16.887 11.982,17.058 12.160,17.228 C12.160,17.246 12.160,17.264 12.160,17.282 C12.266,17.380 12.373,17.479 12.480,17.578 C12.613,17.730 12.746,17.882 12.879,18.035 C12.967,18.123 13.082,18.193 13.146,18.304 C13.155,18.304 13.164,18.304 13.172,18.304 C13.172,18.286 13.172,18.268 13.172,18.250 C13.226,18.205 13.279,18.160 13.332,18.116 C13.430,18.008 13.528,17.900 13.625,17.793 C13.652,17.775 13.679,17.757 13.705,17.739 C13.705,17.721 13.705,17.703 13.705,17.685 C13.883,17.515 14.061,17.345 14.238,17.174 C14.238,17.156 14.238,17.138 14.238,17.120 C14.345,17.022 14.452,16.923 14.558,16.825 C14.603,16.771 14.647,16.717 14.691,16.663 C14.718,16.645 14.745,16.627 14.771,16.610 C14.771,16.592 14.771,16.574 14.771,16.556 C14.896,16.439 15.020,16.323 15.144,16.206 C15.180,16.161 15.216,16.116 15.251,16.072 C15.269,16.063 15.287,16.054 15.304,16.045 C15.304,16.027 15.304,16.009 15.304,15.991 C15.473,15.830 15.642,15.668 15.811,15.507 C15.811,15.489 15.811,15.471 15.811,15.453 C15.917,15.355 16.024,15.256 16.131,15.157 C16.175,15.104 16.219,15.050 16.264,14.996 C16.290,14.978 16.317,14.960 16.344,14.942 C16.344,14.924 16.344,14.906 16.344,14.888 C16.521,14.718 16.699,14.548 16.877,14.377 C16.877,14.360 16.877,14.342 16.877,14.324 C16.992,14.216 17.108,14.109 17.223,14.001 C17.383,13.822 17.543,13.642 17.703,13.463 C17.783,13.391 17.863,13.320 17.943,13.248 C17.943,13.230 17.943,13.212 17.943,13.194 C18.120,13.024 18.298,12.854 18.476,12.683 C18.476,12.665 18.476,12.647 18.476,12.629 C18.502,12.612 18.529,12.594 18.556,12.576 C18.600,12.522 18.644,12.468 18.689,12.414 C18.795,12.316 18.902,12.217 19.009,12.118 C19.009,12.101 19.009,12.083 19.009,12.065 C19.098,11.984 19.186,11.903 19.275,11.823 C19.346,11.742 19.417,11.661 19.488,11.581 C19.506,11.581 19.524,11.581 19.542,11.581 C19.559,11.554 19.577,11.527 19.595,11.500 C19.613,11.500 19.631,11.500 19.648,11.500 C19.657,11.482 19.666,11.464 19.675,11.446 C19.693,11.446 19.710,11.446 19.728,11.446 C19.728,11.437 19.728,11.428 19.728,11.419 C19.782,11.401 19.835,11.383 19.888,11.365 C19.888,11.357 19.888,11.348 19.888,11.339 C19.968,11.321 20.048,11.303 20.128,11.285 C20.128,11.276 20.128,11.267 20.128,11.258 C20.226,11.225 20.435,11.262 20.501,11.204 Z"/>
</svg>