<svg 
 xmlns="http://www.w3.org/2000/svg"
 xmlns:xlink="http://www.w3.org/1999/xlink"
 width="8px" height="15px">
<path fill-rule="evenodd" fill="rgb(148, 147, 161)"
 d="M7.243,0.754 L5.436,0.751 C3.407,0.751 2.096,2.120 2.096,4.238 L2.096,5.845 L0.280,5.845 C0.123,5.845 -0.004,5.974 -0.004,6.134 L-0.004,8.463 C-0.004,8.623 0.123,8.752 0.280,8.752 L2.096,8.752 L2.096,14.628 C2.096,14.788 2.223,14.917 2.380,14.917 L4.749,14.917 C4.906,14.917 5.034,14.788 5.034,14.628 L5.034,8.752 L7.156,8.752 C7.313,8.752 7.441,8.623 7.441,8.463 L7.442,6.134 C7.442,6.058 7.411,5.983 7.358,5.929 C7.305,5.876 7.233,5.845 7.158,5.845 L5.034,5.845 L5.034,4.482 C5.034,3.828 5.186,3.494 6.026,3.494 L7.242,3.494 C7.399,3.494 7.527,3.364 7.527,3.207 L7.527,1.044 C7.527,0.883 7.399,0.754 7.243,0.754 Z"/>
</svg>