<svg 
 xmlns="http://www.w3.org/2000/svg"
 xmlns:xlink="http://www.w3.org/1999/xlink"
 width="18px" height="16px">
<path fill-rule="evenodd" fill="rgb(148, 147, 161)"
 d="M9.826,0.002 C9.826,0.169 9.849,0.428 9.807,0.559 C9.807,0.575 9.807,0.590 9.807,0.605 C9.804,0.605 9.801,0.605 9.798,0.605 C9.795,0.623 9.792,0.642 9.788,0.660 C9.785,0.660 9.782,0.660 9.779,0.660 C9.779,0.666 9.779,0.672 9.779,0.678 C9.776,0.678 9.773,0.678 9.770,0.678 C9.770,0.687 9.770,0.696 9.770,0.706 C9.767,0.706 9.763,0.706 9.760,0.706 C9.760,0.712 9.760,0.718 9.760,0.724 C9.757,0.724 9.754,0.724 9.751,0.724 C9.751,0.730 9.751,0.736 9.751,0.742 C9.745,0.745 9.738,0.748 9.732,0.751 C9.729,0.764 9.726,0.776 9.723,0.788 C9.716,0.791 9.710,0.794 9.704,0.797 C9.701,0.806 9.698,0.815 9.694,0.824 C9.682,0.834 9.669,0.843 9.657,0.852 C9.657,0.858 9.657,0.864 9.657,0.870 C9.644,0.879 9.632,0.888 9.619,0.898 C9.616,0.904 9.613,0.910 9.610,0.916 C9.604,0.916 9.597,0.916 9.591,0.916 C9.578,0.931 9.566,0.946 9.553,0.962 C9.547,0.962 9.541,0.962 9.535,0.962 C9.528,0.971 9.522,0.980 9.516,0.989 C9.509,0.989 9.503,0.989 9.497,0.989 C9.494,0.995 9.491,1.001 9.487,1.007 C9.481,1.007 9.475,1.007 9.469,1.007 C9.466,1.013 9.462,1.019 9.459,1.025 C9.440,1.032 9.422,1.038 9.403,1.044 C9.400,1.050 9.397,1.056 9.393,1.062 C9.387,1.062 9.381,1.062 9.375,1.062 C9.375,1.065 9.375,1.068 9.375,1.071 C9.362,1.074 9.350,1.077 9.337,1.080 C9.337,1.083 9.337,1.086 9.337,1.089 C9.328,1.089 9.318,1.089 9.309,1.089 C9.309,1.092 9.309,1.096 9.309,1.099 C9.296,1.102 9.284,1.105 9.271,1.108 C9.271,1.111 9.271,1.114 9.271,1.117 C9.262,1.117 9.252,1.117 9.243,1.117 C9.243,1.120 9.243,1.123 9.243,1.126 C9.237,1.126 9.230,1.126 9.224,1.126 C9.224,1.129 9.224,1.132 9.224,1.135 C9.215,1.135 9.205,1.135 9.196,1.135 C9.196,1.138 9.196,1.141 9.196,1.144 C9.190,1.144 9.183,1.144 9.177,1.144 C9.177,1.147 9.177,1.150 9.177,1.153 C9.158,1.156 9.139,1.159 9.121,1.163 C9.121,1.166 9.121,1.169 9.121,1.172 C9.111,1.172 9.102,1.172 9.092,1.172 C9.092,1.175 9.092,1.178 9.092,1.181 C9.083,1.181 9.074,1.181 9.064,1.181 C9.064,1.184 9.064,1.187 9.064,1.190 C9.042,1.193 9.020,1.196 8.998,1.199 C8.998,1.202 8.998,1.205 8.998,1.208 C8.986,1.208 8.973,1.208 8.961,1.208 C8.961,1.211 8.961,1.214 8.961,1.217 C8.936,1.220 8.911,1.223 8.886,1.227 C8.886,1.230 8.886,1.233 8.886,1.236 C8.729,1.263 8.572,1.290 8.415,1.318 C8.366,1.332 8.278,1.316 8.246,1.345 C8.268,1.364 8.290,1.382 8.312,1.400 C8.312,1.406 8.312,1.412 8.312,1.418 C8.331,1.434 8.349,1.449 8.368,1.464 C8.368,1.470 8.368,1.476 8.368,1.482 C8.381,1.492 8.393,1.501 8.406,1.510 C8.406,1.516 8.406,1.522 8.406,1.528 C8.415,1.534 8.425,1.540 8.434,1.546 C8.434,1.552 8.434,1.559 8.434,1.565 C8.440,1.568 8.447,1.571 8.453,1.574 C8.453,1.580 8.453,1.586 8.453,1.592 C8.462,1.598 8.472,1.604 8.481,1.610 C8.481,1.616 8.481,1.622 8.481,1.629 C8.487,1.632 8.494,1.635 8.500,1.638 C8.500,1.644 8.500,1.650 8.500,1.656 C8.506,1.659 8.512,1.662 8.519,1.665 C8.522,1.677 8.525,1.690 8.528,1.702 C8.534,1.705 8.541,1.708 8.547,1.711 C8.550,1.723 8.553,1.735 8.556,1.747 C8.563,1.750 8.569,1.753 8.575,1.757 C8.575,1.763 8.575,1.769 8.575,1.775 C8.578,1.775 8.581,1.775 8.585,1.775 C8.585,1.781 8.585,1.787 8.585,1.793 C8.588,1.793 8.591,1.793 8.594,1.793 C8.594,1.799 8.594,1.805 8.594,1.811 C8.597,1.811 8.600,1.811 8.603,1.811 C8.603,1.817 8.603,1.824 8.603,1.830 C8.606,1.830 8.610,1.830 8.613,1.830 C8.613,1.836 8.613,1.842 8.613,1.848 C8.619,1.851 8.625,1.854 8.632,1.857 C8.632,1.863 8.632,1.869 8.632,1.875 C8.635,1.875 8.638,1.875 8.641,1.875 C8.641,1.881 8.641,1.887 8.641,1.894 C8.644,1.894 8.647,1.894 8.650,1.894 C8.650,1.903 8.650,1.912 8.650,1.921 C8.653,1.921 8.657,1.921 8.660,1.921 C8.660,1.927 8.660,1.933 8.660,1.939 C8.663,1.939 8.666,1.939 8.669,1.939 C8.675,1.958 8.682,1.976 8.688,1.994 C8.691,1.994 8.694,1.994 8.697,1.994 C8.697,2.003 8.697,2.012 8.697,2.022 C8.701,2.022 8.704,2.022 8.707,2.022 C8.707,2.028 8.707,2.034 8.707,2.040 C8.710,2.040 8.713,2.040 8.716,2.040 C8.716,2.049 8.716,2.058 8.716,2.067 C8.719,2.067 8.722,2.067 8.726,2.067 C8.726,2.073 8.726,2.079 8.726,2.085 C8.729,2.085 8.732,2.085 8.735,2.085 C8.738,2.104 8.741,2.122 8.744,2.140 C8.748,2.140 8.751,2.140 8.754,2.140 C8.754,2.146 8.754,2.153 8.754,2.159 C8.757,2.159 8.760,2.159 8.763,2.159 C8.763,2.168 8.763,2.177 8.763,2.186 C8.766,2.186 8.770,2.186 8.773,2.186 C8.773,2.195 8.773,2.204 8.773,2.213 C8.776,2.213 8.779,2.213 8.782,2.213 C8.782,2.223 8.782,2.232 8.782,2.241 C8.785,2.241 8.788,2.241 8.791,2.241 C8.791,2.253 8.791,2.265 8.791,2.277 C8.795,2.277 8.798,2.277 8.801,2.277 C8.801,2.287 8.801,2.296 8.801,2.305 C8.804,2.305 8.807,2.305 8.810,2.305 C8.810,2.317 8.810,2.329 8.810,2.341 C8.813,2.341 8.817,2.341 8.820,2.341 C8.820,2.350 8.820,2.360 8.820,2.369 C8.823,2.369 8.826,2.369 8.829,2.369 C8.829,2.381 8.829,2.393 8.829,2.405 C8.832,2.405 8.835,2.405 8.838,2.405 C8.838,2.418 8.838,2.430 8.838,2.442 C8.842,2.442 8.845,2.442 8.848,2.442 C8.851,2.469 8.854,2.497 8.857,2.524 C8.860,2.524 8.864,2.524 8.867,2.524 C8.867,2.539 8.867,2.555 8.867,2.570 C8.870,2.570 8.873,2.570 8.876,2.570 C8.879,2.603 8.882,2.637 8.886,2.670 C8.889,2.670 8.892,2.670 8.895,2.670 C8.895,2.689 8.895,2.707 8.895,2.725 C8.898,2.725 8.901,2.725 8.904,2.725 C8.904,2.746 8.904,2.768 8.904,2.789 C8.907,2.789 8.911,2.789 8.914,2.789 C8.914,2.813 8.914,2.838 8.914,2.862 C8.917,2.862 8.920,2.862 8.923,2.862 C8.929,2.963 8.936,3.063 8.942,3.164 C8.945,3.164 8.948,3.164 8.951,3.164 C8.951,3.219 8.951,3.273 8.951,3.328 C8.954,3.328 8.958,3.328 8.961,3.328 C8.961,3.478 8.961,3.627 8.961,3.776 C8.961,3.882 8.977,4.025 8.951,4.114 C8.951,4.157 8.951,4.199 8.951,4.242 C8.948,4.242 8.945,4.242 8.942,4.242 C8.942,4.276 8.942,4.309 8.942,4.343 C8.939,4.343 8.936,4.343 8.933,4.343 C8.933,4.370 8.933,4.397 8.933,4.425 C8.929,4.425 8.926,4.425 8.923,4.425 C8.923,4.449 8.923,4.474 8.923,4.498 C8.920,4.498 8.917,4.498 8.914,4.498 C8.914,4.516 8.914,4.535 8.914,4.553 C8.911,4.553 8.907,4.553 8.904,4.553 C8.904,4.574 8.904,4.595 8.904,4.617 C8.883,4.688 8.870,4.778 8.848,4.845 C8.845,4.873 8.842,4.900 8.838,4.927 C8.835,4.927 8.832,4.927 8.829,4.927 C8.823,4.964 8.817,5.001 8.810,5.037 C8.807,5.037 8.804,5.037 8.801,5.037 C8.798,5.058 8.795,5.080 8.791,5.101 C8.788,5.101 8.785,5.101 8.782,5.101 C8.782,5.110 8.782,5.119 8.782,5.128 C8.779,5.128 8.776,5.128 8.773,5.128 C8.773,5.138 8.773,5.147 8.773,5.156 C8.770,5.156 8.766,5.156 8.763,5.156 C8.763,5.165 8.763,5.174 8.763,5.183 C8.760,5.183 8.757,5.183 8.754,5.183 C8.748,5.211 8.741,5.238 8.735,5.266 C8.732,5.266 8.729,5.266 8.726,5.266 C8.726,5.275 8.726,5.284 8.726,5.293 C8.722,5.293 8.719,5.293 8.716,5.293 C8.716,5.302 8.716,5.311 8.716,5.320 C8.713,5.320 8.710,5.320 8.707,5.320 C8.707,5.330 8.707,5.339 8.707,5.348 C8.704,5.348 8.701,5.348 8.697,5.348 C8.697,5.354 8.697,5.360 8.697,5.366 C8.694,5.366 8.691,5.366 8.688,5.366 C8.688,5.375 8.688,5.384 8.688,5.393 C8.685,5.393 8.682,5.393 8.679,5.393 C8.679,5.400 8.679,5.406 8.679,5.412 C8.675,5.412 8.672,5.412 8.669,5.412 C8.669,5.421 8.669,5.430 8.669,5.439 C8.666,5.439 8.663,5.439 8.660,5.439 C8.660,5.445 8.660,5.451 8.660,5.457 C8.657,5.457 8.653,5.457 8.650,5.457 C8.650,5.467 8.650,5.476 8.650,5.485 C8.647,5.485 8.644,5.485 8.641,5.485 C8.638,5.497 8.635,5.509 8.632,5.521 C8.628,5.521 8.625,5.521 8.622,5.521 C8.622,5.531 8.622,5.540 8.622,5.549 C8.619,5.549 8.616,5.549 8.613,5.549 C8.606,5.567 8.600,5.585 8.594,5.604 C8.591,5.604 8.588,5.604 8.585,5.604 C8.585,5.610 8.585,5.616 8.585,5.622 C8.581,5.622 8.578,5.622 8.575,5.622 C8.575,5.628 8.575,5.634 8.575,5.640 C8.572,5.640 8.569,5.640 8.566,5.640 C8.566,5.646 8.566,5.652 8.566,5.658 C8.563,5.658 8.559,5.658 8.556,5.658 C8.553,5.671 8.550,5.683 8.547,5.695 C8.544,5.695 8.541,5.695 8.537,5.695 C8.537,5.701 8.537,5.707 8.537,5.713 C8.534,5.713 8.531,5.713 8.528,5.713 C8.528,5.719 8.528,5.726 8.528,5.732 C8.525,5.732 8.522,5.732 8.519,5.732 C8.519,5.738 8.519,5.744 8.519,5.750 C8.516,5.750 8.512,5.750 8.509,5.750 C8.509,5.756 8.509,5.762 8.509,5.768 C8.506,5.768 8.503,5.768 8.500,5.768 C8.500,5.774 8.500,5.780 8.500,5.786 C8.497,5.786 8.494,5.786 8.490,5.786 C8.487,5.799 8.484,5.811 8.481,5.823 C8.475,5.826 8.469,5.829 8.462,5.832 C8.456,5.850 8.450,5.869 8.443,5.887 C8.437,5.890 8.431,5.893 8.425,5.896 C8.421,5.908 8.418,5.920 8.415,5.933 C8.409,5.936 8.403,5.939 8.396,5.942 C8.393,5.954 8.390,5.966 8.387,5.978 C8.381,5.981 8.374,5.984 8.368,5.987 C8.368,5.994 8.368,6.000 8.368,6.006 C8.362,6.009 8.356,6.012 8.349,6.015 C8.349,6.021 8.349,6.027 8.349,6.033 C8.346,6.033 8.343,6.033 8.340,6.033 C8.337,6.042 8.334,6.051 8.331,6.061 C8.324,6.064 8.318,6.067 8.312,6.070 C8.312,6.076 8.312,6.082 8.312,6.088 C8.305,6.091 8.299,6.094 8.293,6.097 C8.293,6.103 8.293,6.109 8.293,6.115 C8.284,6.121 8.274,6.128 8.265,6.134 C8.265,6.140 8.265,6.146 8.265,6.152 C8.258,6.155 8.252,6.158 8.246,6.161 C8.246,6.167 8.246,6.173 8.246,6.179 C8.236,6.185 8.227,6.192 8.218,6.198 C8.218,6.204 8.218,6.210 8.218,6.216 C8.208,6.222 8.199,6.228 8.189,6.234 C8.189,6.240 8.189,6.246 8.189,6.252 C8.177,6.262 8.164,6.271 8.152,6.280 C8.152,6.286 8.152,6.292 8.152,6.298 C8.139,6.307 8.127,6.316 8.114,6.326 C8.114,6.332 8.114,6.338 8.114,6.344 C8.099,6.356 8.083,6.368 8.067,6.380 C8.067,6.387 8.067,6.393 8.067,6.399 C8.042,6.420 8.017,6.441 7.992,6.463 C7.992,6.469 7.992,6.475 7.992,6.481 C7.942,6.527 7.892,6.572 7.841,6.618 C7.762,6.695 7.690,6.772 7.597,6.837 C7.572,6.865 7.547,6.892 7.522,6.920 C7.515,6.920 7.509,6.920 7.503,6.920 C7.475,6.950 7.446,6.980 7.418,7.011 C7.359,7.066 7.299,7.121 7.239,7.175 C7.239,7.182 7.239,7.188 7.239,7.194 C7.224,7.206 7.208,7.218 7.192,7.230 C7.192,7.236 7.192,7.242 7.192,7.249 C7.186,7.252 7.180,7.255 7.174,7.258 C7.174,7.264 7.174,7.270 7.174,7.276 C7.167,7.279 7.161,7.282 7.155,7.285 C7.152,7.294 7.149,7.303 7.145,7.312 C7.142,7.312 7.139,7.312 7.136,7.312 C7.136,7.319 7.136,7.325 7.136,7.331 C7.133,7.331 7.130,7.331 7.127,7.331 C7.120,7.349 7.114,7.367 7.108,7.386 C7.105,7.386 7.101,7.386 7.098,7.386 C7.098,7.395 7.098,7.404 7.098,7.413 C7.091,7.433 7.069,7.487 7.080,7.523 C7.112,7.630 7.179,7.706 7.239,7.788 C7.268,7.812 7.296,7.836 7.324,7.861 C7.324,7.867 7.324,7.873 7.324,7.879 C7.355,7.906 7.387,7.934 7.418,7.961 C7.434,7.980 7.450,7.998 7.465,8.016 C7.471,8.016 7.478,8.016 7.484,8.016 C7.522,8.056 7.559,8.095 7.597,8.135 C7.603,8.135 7.609,8.135 7.616,8.135 C7.641,8.162 7.666,8.190 7.691,8.217 C7.697,8.217 7.703,8.217 7.710,8.217 C7.729,8.238 7.747,8.260 7.766,8.281 C7.772,8.281 7.779,8.281 7.785,8.281 C7.807,8.306 7.829,8.330 7.851,8.354 C7.857,8.354 7.863,8.354 7.870,8.354 C7.888,8.376 7.907,8.397 7.926,8.418 C7.932,8.418 7.939,8.418 7.945,8.418 C7.964,8.440 7.983,8.461 8.001,8.482 C8.008,8.482 8.014,8.482 8.020,8.482 C8.045,8.510 8.070,8.537 8.095,8.564 C8.102,8.564 8.108,8.564 8.114,8.564 C8.142,8.595 8.171,8.625 8.199,8.656 C8.205,8.656 8.211,8.656 8.218,8.656 C8.258,8.698 8.299,8.741 8.340,8.784 C8.346,8.784 8.352,8.784 8.359,8.784 C8.415,8.842 8.472,8.899 8.528,8.957 C8.559,8.985 8.591,9.012 8.622,9.040 C8.622,9.046 8.622,9.052 8.622,9.058 C8.663,9.094 8.704,9.131 8.744,9.168 C8.744,9.174 8.744,9.180 8.744,9.186 C8.751,9.189 8.757,9.192 8.763,9.195 C8.763,9.198 8.763,9.201 8.763,9.204 C8.779,9.216 8.795,9.228 8.810,9.241 C8.810,9.247 8.810,9.253 8.810,9.259 C8.829,9.274 8.848,9.289 8.867,9.305 C8.867,9.311 8.867,9.317 8.867,9.323 C8.873,9.326 8.879,9.329 8.886,9.332 C8.886,9.335 8.886,9.338 8.886,9.341 C8.895,9.347 8.904,9.353 8.914,9.359 C8.914,9.366 8.914,9.372 8.914,9.378 C8.926,9.387 8.939,9.396 8.951,9.405 C8.951,9.411 8.951,9.417 8.951,9.423 C8.958,9.426 8.964,9.429 8.970,9.433 C8.970,9.436 8.970,9.439 8.970,9.442 C8.976,9.445 8.983,9.448 8.989,9.451 C8.989,9.457 8.989,9.463 8.989,9.469 C8.995,9.472 9.002,9.475 9.008,9.478 C9.011,9.487 9.014,9.497 9.017,9.506 C9.030,9.515 9.042,9.524 9.055,9.533 C9.055,9.539 9.055,9.545 9.055,9.551 C9.061,9.554 9.067,9.557 9.074,9.560 C9.074,9.567 9.074,9.573 9.074,9.579 C9.083,9.585 9.092,9.591 9.102,9.597 C9.102,9.603 9.102,9.609 9.102,9.615 C9.111,9.621 9.121,9.627 9.130,9.634 C9.130,9.640 9.130,9.646 9.130,9.652 C9.136,9.655 9.143,9.658 9.149,9.661 C9.152,9.670 9.155,9.679 9.158,9.688 C9.161,9.688 9.165,9.688 9.168,9.688 C9.168,9.695 9.168,9.701 9.168,9.707 C9.174,9.710 9.180,9.713 9.187,9.716 C9.187,9.722 9.187,9.728 9.187,9.734 C9.193,9.737 9.199,9.740 9.205,9.743 C9.205,9.749 9.205,9.755 9.205,9.762 C9.212,9.765 9.218,9.768 9.224,9.771 C9.224,9.777 9.224,9.783 9.224,9.789 C9.230,9.792 9.237,9.795 9.243,9.798 C9.243,9.804 9.243,9.810 9.243,9.816 C9.249,9.819 9.255,9.822 9.262,9.825 C9.262,9.832 9.262,9.838 9.262,9.844 C9.265,9.844 9.268,9.844 9.271,9.844 C9.271,9.850 9.271,9.856 9.271,9.862 C9.277,9.865 9.284,9.868 9.290,9.871 C9.293,9.883 9.296,9.896 9.299,9.908 C9.306,9.911 9.312,9.914 9.318,9.917 C9.318,9.923 9.318,9.929 9.318,9.935 C9.321,9.935 9.324,9.935 9.328,9.935 C9.328,9.941 9.328,9.947 9.328,9.953 C9.334,9.956 9.340,9.960 9.346,9.963 C9.353,9.981 9.359,9.999 9.365,10.017 C9.371,10.020 9.378,10.023 9.384,10.027 C9.384,10.033 9.384,10.039 9.384,10.045 C9.387,10.045 9.390,10.045 9.393,10.045 C9.393,10.051 9.393,10.057 9.393,10.063 C9.397,10.063 9.400,10.063 9.403,10.063 C9.403,10.069 9.403,10.075 9.403,10.081 C9.406,10.081 9.409,10.081 9.412,10.081 C9.412,10.087 9.412,10.094 9.412,10.100 C9.415,10.100 9.419,10.100 9.422,10.100 C9.422,10.106 9.422,10.112 9.422,10.118 C9.425,10.118 9.428,10.118 9.431,10.118 C9.431,10.124 9.431,10.130 9.431,10.136 C9.434,10.136 9.437,10.136 9.440,10.136 C9.440,10.142 9.440,10.148 9.440,10.154 C9.444,10.154 9.447,10.154 9.450,10.154 C9.450,10.161 9.450,10.167 9.450,10.173 C9.453,10.173 9.456,10.173 9.459,10.173 C9.459,10.179 9.459,10.185 9.459,10.191 C9.462,10.191 9.466,10.191 9.469,10.191 C9.469,10.197 9.469,10.203 9.469,10.209 C9.472,10.209 9.475,10.209 9.478,10.209 C9.478,10.215 9.478,10.221 9.478,10.228 C9.481,10.228 9.484,10.228 9.487,10.228 C9.491,10.240 9.494,10.252 9.497,10.264 C9.500,10.264 9.503,10.264 9.506,10.264 C9.506,10.270 9.506,10.276 9.506,10.282 C9.509,10.282 9.513,10.282 9.516,10.282 C9.516,10.292 9.516,10.301 9.516,10.310 C9.519,10.310 9.522,10.310 9.525,10.310 C9.528,10.322 9.531,10.334 9.535,10.346 C9.538,10.346 9.541,10.346 9.544,10.346 C9.544,10.355 9.544,10.365 9.544,10.374 C9.547,10.374 9.550,10.374 9.553,10.374 C9.556,10.386 9.560,10.398 9.563,10.410 C9.566,10.410 9.569,10.410 9.572,10.410 C9.572,10.419 9.572,10.429 9.572,10.438 C9.575,10.438 9.578,10.438 9.582,10.438 C9.582,10.444 9.582,10.450 9.582,10.456 C9.585,10.456 9.588,10.456 9.591,10.456 C9.594,10.474 9.597,10.493 9.600,10.511 C9.604,10.511 9.607,10.511 9.610,10.511 C9.610,10.517 9.610,10.523 9.610,10.529 C9.613,10.529 9.616,10.529 9.619,10.529 C9.657,10.651 9.694,10.773 9.732,10.895 C9.741,10.949 9.751,11.004 9.760,11.059 C9.763,11.059 9.767,11.059 9.770,11.059 C9.770,11.074 9.770,11.090 9.770,11.105 C9.773,11.105 9.776,11.105 9.779,11.105 C9.779,11.123 9.779,11.141 9.779,11.160 C9.782,11.160 9.785,11.160 9.788,11.160 C9.788,11.181 9.788,11.202 9.788,11.224 C9.792,11.224 9.795,11.224 9.798,11.224 C9.798,11.248 9.798,11.272 9.798,11.297 C9.801,11.297 9.804,11.297 9.807,11.297 C9.814,11.419 9.820,11.540 9.826,11.662 C9.826,11.771 9.843,11.918 9.817,12.009 C9.817,12.055 9.817,12.101 9.817,12.147 C9.814,12.147 9.810,12.147 9.807,12.147 C9.807,12.183 9.807,12.220 9.807,12.256 C9.804,12.256 9.801,12.256 9.798,12.256 C9.798,12.284 9.798,12.311 9.798,12.338 C9.795,12.338 9.792,12.338 9.788,12.338 C9.788,12.363 9.788,12.387 9.788,12.412 C9.785,12.412 9.782,12.412 9.779,12.412 C9.779,12.436 9.779,12.460 9.779,12.485 C9.760,12.547 9.752,12.634 9.732,12.695 C9.732,12.710 9.732,12.725 9.732,12.741 C9.729,12.741 9.726,12.741 9.723,12.741 C9.723,12.756 9.723,12.771 9.723,12.786 C9.720,12.786 9.716,12.786 9.713,12.786 C9.713,12.801 9.713,12.817 9.713,12.832 C9.710,12.832 9.707,12.832 9.704,12.832 C9.704,12.844 9.704,12.856 9.704,12.868 C9.701,12.868 9.698,12.868 9.694,12.868 C9.694,12.881 9.694,12.893 9.694,12.905 C9.691,12.905 9.688,12.905 9.685,12.905 C9.685,12.917 9.685,12.929 9.685,12.942 C9.682,12.942 9.679,12.942 9.676,12.942 C9.672,12.966 9.669,12.990 9.666,13.015 C9.663,13.015 9.660,13.015 9.657,13.015 C9.654,13.036 9.651,13.057 9.647,13.079 C9.644,13.079 9.641,13.079 9.638,13.079 C9.638,13.088 9.638,13.097 9.638,13.106 C9.635,13.106 9.632,13.106 9.629,13.106 C9.629,13.115 9.629,13.124 9.629,13.133 C9.625,13.133 9.622,13.133 9.619,13.133 C9.619,13.143 9.619,13.152 9.619,13.161 C9.616,13.161 9.613,13.161 9.610,13.161 C9.604,13.191 9.597,13.222 9.591,13.252 C9.588,13.252 9.585,13.252 9.582,13.252 C9.582,13.258 9.582,13.264 9.582,13.271 C9.578,13.271 9.575,13.271 9.572,13.271 C9.566,13.298 9.560,13.325 9.553,13.353 C9.550,13.353 9.547,13.353 9.544,13.353 C9.544,13.359 9.544,13.365 9.544,13.371 C9.541,13.371 9.538,13.371 9.535,13.371 C9.535,13.380 9.535,13.389 9.535,13.398 C9.531,13.398 9.528,13.398 9.525,13.398 C9.522,13.414 9.519,13.429 9.516,13.444 C9.513,13.444 9.509,13.444 9.506,13.444 C9.506,13.450 9.506,13.456 9.506,13.462 C9.503,13.462 9.500,13.462 9.497,13.462 C9.497,13.472 9.497,13.481 9.497,13.490 C9.494,13.490 9.491,13.490 9.487,13.490 C9.484,13.502 9.481,13.514 9.478,13.526 C9.475,13.526 9.472,13.526 9.469,13.526 C9.469,13.536 9.469,13.545 9.469,13.554 C9.466,13.554 9.462,13.554 9.459,13.554 C9.459,13.560 9.459,13.566 9.459,13.572 C9.456,13.572 9.453,13.572 9.450,13.572 C9.444,13.590 9.437,13.609 9.431,13.627 C9.428,13.627 9.425,13.627 9.422,13.627 C9.422,13.636 9.422,13.645 9.422,13.654 C9.419,13.654 9.415,13.654 9.412,13.654 C9.406,13.673 9.400,13.691 9.393,13.709 C9.390,13.709 9.387,13.709 9.384,13.709 C9.381,13.721 9.378,13.734 9.375,13.746 C9.368,13.749 9.362,13.752 9.356,13.755 C9.353,13.767 9.350,13.779 9.346,13.791 C9.343,13.791 9.340,13.791 9.337,13.791 C9.337,13.798 9.337,13.804 9.337,13.810 C9.334,13.810 9.331,13.810 9.328,13.810 C9.328,13.816 9.328,13.822 9.328,13.828 C9.324,13.828 9.321,13.828 9.318,13.828 C9.318,13.834 9.318,13.840 9.318,13.846 C9.312,13.849 9.306,13.852 9.299,13.855 C9.293,13.874 9.287,13.892 9.281,13.910 C9.274,13.913 9.268,13.916 9.262,13.919 C9.259,13.932 9.255,13.944 9.252,13.956 C9.246,13.959 9.240,13.962 9.234,13.965 C9.230,13.977 9.227,13.989 9.224,14.002 C9.218,14.005 9.212,14.008 9.205,14.011 C9.205,14.017 9.205,14.023 9.205,14.029 C9.199,14.032 9.193,14.035 9.187,14.038 C9.187,14.044 9.187,14.050 9.187,14.056 C9.183,14.056 9.180,14.056 9.177,14.056 C9.174,14.066 9.171,14.075 9.168,14.084 C9.161,14.087 9.155,14.090 9.149,14.093 C9.149,14.099 9.149,14.105 9.149,14.111 C9.143,14.114 9.136,14.117 9.130,14.120 C9.130,14.126 9.130,14.133 9.130,14.139 C9.121,14.145 9.111,14.151 9.102,14.157 C9.102,14.163 9.102,14.169 9.102,14.175 C9.096,14.178 9.089,14.181 9.083,14.184 C9.083,14.190 9.083,14.197 9.083,14.203 C9.074,14.209 9.064,14.215 9.055,14.221 C9.055,14.227 9.055,14.233 9.055,14.239 C9.045,14.245 9.036,14.251 9.027,14.257 C9.027,14.264 9.027,14.270 9.027,14.276 C9.014,14.285 9.002,14.294 8.989,14.303 C8.989,14.309 8.989,14.315 8.989,14.321 C8.976,14.331 8.964,14.340 8.951,14.349 C8.951,14.355 8.951,14.361 8.951,14.367 C8.933,14.382 8.914,14.398 8.895,14.413 C8.895,14.419 8.895,14.425 8.895,14.431 C8.870,14.452 8.845,14.474 8.820,14.495 C8.820,14.501 8.820,14.507 8.820,14.513 C8.785,14.544 8.751,14.574 8.716,14.605 C8.685,14.638 8.653,14.672 8.622,14.705 C8.616,14.705 8.610,14.705 8.603,14.705 C8.600,14.711 8.597,14.717 8.594,14.724 C8.591,14.724 8.588,14.724 8.585,14.724 C8.566,14.745 8.547,14.766 8.528,14.787 C8.522,14.787 8.516,14.787 8.509,14.787 C8.497,14.803 8.484,14.818 8.472,14.833 C8.465,14.833 8.459,14.833 8.453,14.833 C8.440,14.848 8.428,14.864 8.415,14.879 C8.409,14.879 8.403,14.879 8.396,14.879 C8.387,14.891 8.378,14.903 8.368,14.915 C8.362,14.915 8.356,14.915 8.349,14.915 C8.343,14.925 8.337,14.934 8.331,14.943 C8.324,14.943 8.318,14.943 8.312,14.943 C8.305,14.952 8.299,14.961 8.293,14.970 C8.287,14.970 8.280,14.970 8.274,14.970 C8.268,14.979 8.262,14.989 8.255,14.998 C8.249,14.998 8.243,14.998 8.236,14.998 C8.233,15.004 8.230,15.010 8.227,15.016 C8.221,15.016 8.215,15.016 8.208,15.016 C8.202,15.025 8.196,15.034 8.189,15.043 C8.183,15.043 8.177,15.043 8.171,15.043 C8.168,15.049 8.164,15.056 8.161,15.062 C8.152,15.065 8.142,15.068 8.133,15.071 C8.133,15.074 8.133,15.077 8.133,15.080 C8.127,15.080 8.120,15.080 8.114,15.080 C8.111,15.086 8.108,15.092 8.105,15.098 C8.099,15.098 8.092,15.098 8.086,15.098 C8.083,15.104 8.080,15.110 8.077,15.116 C8.070,15.116 8.064,15.116 8.058,15.116 C8.055,15.123 8.052,15.129 8.048,15.135 C8.042,15.135 8.036,15.135 8.030,15.135 C8.026,15.141 8.023,15.147 8.020,15.153 C8.008,15.156 7.995,15.159 7.983,15.162 C7.979,15.168 7.976,15.174 7.973,15.180 C7.961,15.183 7.948,15.187 7.935,15.190 C7.932,15.196 7.929,15.202 7.926,15.208 C7.914,15.211 7.901,15.214 7.888,15.217 C7.885,15.223 7.882,15.229 7.879,15.235 C7.860,15.241 7.841,15.247 7.823,15.254 C7.819,15.260 7.816,15.266 7.813,15.272 C7.807,15.272 7.801,15.272 7.794,15.272 C7.794,15.275 7.794,15.278 7.794,15.281 C7.788,15.281 7.782,15.281 7.776,15.281 C7.776,15.284 7.776,15.287 7.776,15.290 C7.769,15.290 7.763,15.290 7.757,15.290 C7.757,15.293 7.757,15.296 7.757,15.299 C7.751,15.299 7.744,15.299 7.738,15.299 C7.735,15.305 7.732,15.311 7.729,15.317 C7.722,15.317 7.716,15.317 7.710,15.317 C7.710,15.321 7.710,15.324 7.710,15.327 C7.703,15.327 7.697,15.327 7.691,15.327 C7.691,15.330 7.691,15.333 7.691,15.336 C7.685,15.336 7.678,15.336 7.672,15.336 C7.672,15.339 7.672,15.342 7.672,15.345 C7.666,15.345 7.660,15.345 7.653,15.345 C7.653,15.348 7.653,15.351 7.653,15.354 C7.647,15.354 7.641,15.354 7.635,15.354 C7.635,15.357 7.635,15.360 7.635,15.363 C7.628,15.363 7.622,15.363 7.616,15.363 C7.616,15.366 7.616,15.369 7.616,15.372 C7.609,15.372 7.603,15.372 7.597,15.372 C7.597,15.375 7.597,15.378 7.597,15.381 C7.591,15.381 7.584,15.381 7.578,15.381 C7.578,15.385 7.578,15.388 7.578,15.391 C7.572,15.391 7.566,15.391 7.559,15.391 C7.559,15.394 7.559,15.397 7.559,15.400 C7.553,15.400 7.547,15.400 7.540,15.400 C7.540,15.403 7.540,15.406 7.540,15.409 C7.522,15.415 7.503,15.421 7.484,15.427 C7.484,15.430 7.484,15.433 7.484,15.436 C7.475,15.436 7.465,15.436 7.456,15.436 C7.456,15.439 7.456,15.442 7.456,15.445 C7.450,15.445 7.443,15.445 7.437,15.445 C7.437,15.448 7.437,15.452 7.437,15.455 C7.431,15.455 7.424,15.455 7.418,15.455 C7.418,15.458 7.418,15.461 7.418,15.464 C7.406,15.467 7.393,15.470 7.381,15.473 C7.381,15.476 7.381,15.479 7.381,15.482 C7.371,15.482 7.362,15.482 7.352,15.482 C7.352,15.485 7.352,15.488 7.352,15.491 C7.340,15.494 7.327,15.497 7.315,15.500 C7.315,15.503 7.315,15.506 7.315,15.509 C7.305,15.509 7.296,15.509 7.286,15.509 C7.286,15.512 7.286,15.515 7.286,15.519 C7.280,15.519 7.274,15.519 7.268,15.519 C7.268,15.522 7.268,15.525 7.268,15.528 C7.258,15.528 7.249,15.528 7.239,15.528 C7.239,15.531 7.239,15.534 7.239,15.537 C7.227,15.540 7.214,15.543 7.202,15.546 C7.202,15.549 7.202,15.552 7.202,15.555 C7.192,15.555 7.183,15.555 7.174,15.555 C7.174,15.558 7.174,15.561 7.174,15.564 C7.164,15.564 7.155,15.564 7.145,15.564 C7.145,15.567 7.145,15.570 7.145,15.573 C7.139,15.573 7.133,15.573 7.127,15.573 C7.127,15.576 7.127,15.579 7.127,15.583 C7.117,15.583 7.108,15.583 7.098,15.583 C7.098,15.586 7.098,15.589 7.098,15.592 C7.092,15.592 7.086,15.592 7.080,15.592 C7.080,15.595 7.080,15.598 7.080,15.601 C7.070,15.601 7.061,15.601 7.051,15.601 C7.051,15.604 7.051,15.607 7.051,15.610 C7.042,15.610 7.033,15.610 7.023,15.610 C7.023,15.613 7.023,15.616 7.023,15.619 C7.014,15.619 7.004,15.619 6.995,15.619 C6.995,15.622 6.995,15.625 6.995,15.628 C6.985,15.628 6.976,15.628 6.967,15.628 C6.967,15.631 6.967,15.634 6.967,15.637 C6.960,15.637 6.954,15.637 6.948,15.637 C6.948,15.640 6.948,15.643 6.948,15.646 C6.938,15.646 6.929,15.646 6.920,15.646 C6.920,15.650 6.920,15.653 6.920,15.656 C6.910,15.656 6.901,15.656 6.891,15.656 C6.891,15.659 6.891,15.662 6.891,15.665 C6.882,15.665 6.873,15.665 6.863,15.665 C6.863,15.668 6.863,15.671 6.863,15.674 C6.854,15.674 6.844,15.674 6.835,15.674 C6.835,15.677 6.835,15.680 6.835,15.683 C6.822,15.683 6.810,15.683 6.797,15.683 C6.797,15.686 6.797,15.689 6.797,15.692 C6.788,15.692 6.779,15.692 6.769,15.692 C6.769,15.695 6.769,15.698 6.769,15.701 C6.760,15.701 6.750,15.701 6.741,15.701 C6.741,15.704 6.741,15.707 6.741,15.710 C6.732,15.710 6.722,15.710 6.713,15.710 C6.713,15.713 6.713,15.717 6.713,15.720 C6.700,15.720 6.688,15.720 6.675,15.720 C6.675,15.723 6.675,15.726 6.675,15.729 C6.666,15.729 6.656,15.729 6.647,15.729 C6.647,15.732 6.647,15.735 6.647,15.738 C6.625,15.741 6.603,15.744 6.581,15.747 C6.581,15.750 6.581,15.753 6.581,15.756 C6.556,15.759 6.531,15.762 6.506,15.765 C6.506,15.768 6.506,15.771 6.506,15.774 C6.481,15.777 6.456,15.780 6.431,15.784 C6.431,15.787 6.431,15.790 6.431,15.793 C6.418,15.793 6.405,15.793 6.393,15.793 C6.393,15.796 6.393,15.799 6.393,15.802 C6.380,15.802 6.368,15.802 6.355,15.802 C6.355,15.805 6.355,15.808 6.355,15.811 C6.343,15.811 6.330,15.811 6.318,15.811 C6.318,15.814 6.318,15.817 6.318,15.820 C6.305,15.820 6.293,15.820 6.280,15.820 C6.280,15.823 6.280,15.826 6.280,15.829 C6.264,15.829 6.249,15.829 6.233,15.829 C6.233,15.832 6.233,15.835 6.233,15.838 C6.220,15.838 6.208,15.838 6.195,15.838 C6.195,15.841 6.195,15.844 6.195,15.848 C6.180,15.848 6.164,15.848 6.148,15.848 C6.148,15.851 6.148,15.854 6.148,15.857 C6.133,15.857 6.117,15.857 6.101,15.857 C6.101,15.860 6.101,15.863 6.101,15.866 C6.086,15.866 6.070,15.866 6.054,15.866 C6.054,15.869 6.054,15.872 6.054,15.875 C5.938,15.890 5.822,15.905 5.706,15.921 C5.706,15.924 5.706,15.927 5.706,15.930 C5.684,15.930 5.662,15.930 5.640,15.930 C5.640,15.933 5.640,15.936 5.640,15.939 C5.615,15.939 5.590,15.939 5.565,15.939 C5.565,15.942 5.565,15.945 5.565,15.948 C5.537,15.948 5.509,15.948 5.481,15.948 C5.481,15.951 5.481,15.954 5.481,15.957 C5.449,15.957 5.418,15.957 5.386,15.957 C5.386,15.960 5.386,15.963 5.386,15.966 C5.352,15.966 5.317,15.966 5.283,15.966 C5.283,15.969 5.283,15.972 5.283,15.975 C5.274,15.975 5.264,15.975 5.255,15.975 C5.220,15.975 5.186,15.975 5.151,15.975 C5.106,15.988 5.024,15.971 4.973,15.985 C4.910,16.002 4.806,15.994 4.728,15.994 C4.604,15.994 4.387,16.012 4.286,15.985 C4.223,15.985 4.161,15.985 4.098,15.985 C4.098,15.982 4.098,15.978 4.098,15.975 C4.057,15.975 4.016,15.975 3.976,15.975 C3.976,15.972 3.976,15.969 3.976,15.966 C3.941,15.966 3.907,15.966 3.872,15.966 C3.872,15.963 3.872,15.960 3.872,15.957 C3.841,15.957 3.809,15.957 3.778,15.957 C3.778,15.954 3.778,15.951 3.778,15.948 C3.684,15.939 3.590,15.930 3.496,15.921 C3.496,15.918 3.496,15.915 3.496,15.911 C3.477,15.911 3.458,15.911 3.439,15.911 C3.439,15.908 3.439,15.905 3.439,15.902 C3.421,15.902 3.402,15.902 3.383,15.902 C3.383,15.899 3.383,15.896 3.383,15.893 C3.364,15.893 3.345,15.893 3.327,15.893 C3.327,15.890 3.327,15.887 3.327,15.884 C3.311,15.884 3.295,15.884 3.279,15.884 C3.279,15.881 3.279,15.878 3.279,15.875 C3.261,15.875 3.242,15.875 3.223,15.875 C3.094,15.836 2.941,15.817 2.819,15.774 C2.794,15.771 2.768,15.768 2.743,15.765 C2.743,15.762 2.743,15.759 2.743,15.756 C2.721,15.753 2.699,15.750 2.677,15.747 C2.677,15.744 2.677,15.741 2.677,15.738 C2.646,15.732 2.615,15.726 2.583,15.720 C2.583,15.717 2.583,15.713 2.583,15.710 C2.574,15.710 2.565,15.710 2.555,15.710 C2.555,15.707 2.555,15.704 2.555,15.701 C2.546,15.701 2.536,15.701 2.527,15.701 C2.527,15.698 2.527,15.695 2.527,15.692 C2.518,15.692 2.508,15.692 2.499,15.692 C2.499,15.689 2.499,15.686 2.499,15.683 C2.489,15.683 2.480,15.683 2.471,15.683 C2.471,15.680 2.471,15.677 2.471,15.674 C2.442,15.668 2.414,15.662 2.386,15.656 C2.386,15.653 2.386,15.650 2.386,15.646 C2.380,15.646 2.373,15.646 2.367,15.646 C2.367,15.643 2.367,15.640 2.367,15.637 C2.348,15.634 2.329,15.631 2.311,15.628 C2.311,15.625 2.311,15.622 2.311,15.619 C2.304,15.619 2.298,15.619 2.292,15.619 C2.292,15.616 2.292,15.613 2.292,15.610 C2.273,15.607 2.254,15.604 2.235,15.601 C2.235,15.598 2.235,15.595 2.235,15.592 C2.220,15.589 2.204,15.586 2.188,15.583 C2.188,15.579 2.188,15.576 2.188,15.573 C2.182,15.573 2.176,15.573 2.170,15.573 C2.170,15.570 2.170,15.567 2.170,15.564 C2.160,15.564 2.151,15.564 2.141,15.564 C2.141,15.561 2.141,15.558 2.141,15.555 C2.129,15.552 2.116,15.549 2.104,15.546 C2.104,15.543 2.104,15.540 2.104,15.537 C2.094,15.537 2.085,15.537 2.076,15.537 C2.076,15.534 2.076,15.531 2.076,15.528 C2.069,15.528 2.063,15.528 2.057,15.528 C2.057,15.525 2.057,15.522 2.057,15.519 C2.044,15.515 2.032,15.512 2.019,15.509 C2.019,15.506 2.019,15.503 2.019,15.500 C2.010,15.500 2.000,15.500 1.991,15.500 C1.991,15.497 1.991,15.494 1.991,15.491 C1.985,15.491 1.978,15.491 1.972,15.491 C1.972,15.488 1.972,15.485 1.972,15.482 C1.960,15.479 1.947,15.476 1.934,15.473 C1.934,15.470 1.934,15.467 1.934,15.464 C1.928,15.464 1.922,15.464 1.916,15.464 C1.916,15.461 1.916,15.458 1.916,15.455 C1.909,15.455 1.903,15.455 1.897,15.455 C1.897,15.452 1.897,15.448 1.897,15.445 C1.891,15.445 1.884,15.445 1.878,15.445 C1.878,15.442 1.878,15.439 1.878,15.436 C1.872,15.436 1.865,15.436 1.859,15.436 C1.859,15.433 1.859,15.430 1.859,15.427 C1.853,15.427 1.847,15.427 1.840,15.427 C1.840,15.424 1.840,15.421 1.840,15.418 C1.834,15.418 1.828,15.418 1.822,15.418 C1.822,15.415 1.822,15.412 1.822,15.409 C1.815,15.409 1.809,15.409 1.803,15.409 C1.803,15.406 1.803,15.403 1.803,15.400 C1.796,15.400 1.790,15.400 1.784,15.400 C1.784,15.397 1.784,15.394 1.784,15.391 C1.778,15.391 1.771,15.391 1.765,15.391 C1.765,15.388 1.765,15.385 1.765,15.381 C1.759,15.381 1.753,15.381 1.746,15.381 C1.746,15.378 1.746,15.375 1.746,15.372 C1.740,15.372 1.734,15.372 1.727,15.372 C1.724,15.366 1.721,15.360 1.718,15.354 C1.712,15.354 1.706,15.354 1.699,15.354 C1.699,15.351 1.699,15.348 1.699,15.345 C1.693,15.345 1.687,15.345 1.680,15.345 C1.680,15.342 1.680,15.339 1.680,15.336 C1.674,15.336 1.668,15.336 1.662,15.336 C1.662,15.333 1.662,15.330 1.662,15.327 C1.655,15.327 1.649,15.327 1.643,15.327 C1.640,15.321 1.637,15.314 1.633,15.308 C1.621,15.305 1.608,15.302 1.596,15.299 C1.593,15.293 1.590,15.287 1.586,15.281 C1.574,15.278 1.561,15.275 1.549,15.272 C1.546,15.266 1.542,15.260 1.539,15.254 C1.527,15.250 1.514,15.247 1.502,15.244 C1.499,15.238 1.495,15.232 1.492,15.226 C1.486,15.226 1.480,15.226 1.474,15.226 C1.470,15.220 1.467,15.214 1.464,15.208 C1.458,15.208 1.452,15.208 1.445,15.208 C1.445,15.205 1.445,15.202 1.445,15.199 C1.436,15.196 1.426,15.193 1.417,15.190 C1.414,15.183 1.411,15.177 1.408,15.171 C1.401,15.171 1.395,15.171 1.389,15.171 C1.386,15.165 1.383,15.159 1.379,15.153 C1.373,15.153 1.367,15.153 1.361,15.153 C1.354,15.144 1.348,15.135 1.342,15.126 C1.336,15.126 1.329,15.126 1.323,15.126 C1.320,15.120 1.317,15.113 1.314,15.107 C1.307,15.107 1.301,15.107 1.295,15.107 C1.289,15.098 1.282,15.089 1.276,15.080 C1.270,15.080 1.263,15.080 1.257,15.080 C1.251,15.071 1.245,15.062 1.238,15.052 C1.232,15.052 1.226,15.052 1.220,15.052 C1.210,15.040 1.201,15.028 1.191,15.016 C1.185,15.016 1.179,15.016 1.173,15.016 C1.160,15.001 1.147,14.985 1.135,14.970 C1.129,14.970 1.122,14.970 1.116,14.970 C1.100,14.952 1.085,14.934 1.069,14.915 C1.063,14.915 1.057,14.915 1.050,14.915 C1.022,14.885 0.994,14.854 0.966,14.824 C0.906,14.769 0.846,14.714 0.787,14.660 C0.787,14.653 0.787,14.647 0.787,14.641 C0.768,14.626 0.749,14.611 0.730,14.596 C0.730,14.589 0.730,14.583 0.730,14.577 C0.718,14.568 0.705,14.559 0.693,14.550 C0.693,14.544 0.693,14.538 0.693,14.532 C0.680,14.522 0.668,14.513 0.655,14.504 C0.655,14.498 0.655,14.492 0.655,14.486 C0.646,14.480 0.636,14.474 0.627,14.468 C0.624,14.459 0.621,14.449 0.618,14.440 C0.611,14.437 0.605,14.434 0.599,14.431 C0.599,14.425 0.599,14.419 0.599,14.413 C0.592,14.410 0.586,14.407 0.580,14.404 C0.580,14.398 0.580,14.391 0.580,14.385 C0.574,14.382 0.567,14.379 0.561,14.376 C0.561,14.370 0.561,14.364 0.561,14.358 C0.555,14.355 0.549,14.352 0.542,14.349 C0.542,14.343 0.542,14.337 0.542,14.331 C0.536,14.328 0.530,14.324 0.524,14.321 C0.524,14.315 0.524,14.309 0.524,14.303 C0.517,14.300 0.511,14.297 0.505,14.294 C0.505,14.288 0.505,14.282 0.505,14.276 C0.498,14.273 0.492,14.270 0.486,14.267 C0.483,14.254 0.480,14.242 0.476,14.230 C0.470,14.227 0.464,14.224 0.458,14.221 C0.455,14.209 0.451,14.197 0.448,14.184 C0.445,14.184 0.442,14.184 0.439,14.184 C0.439,14.178 0.439,14.172 0.439,14.166 C0.433,14.163 0.426,14.160 0.420,14.157 C0.420,14.151 0.420,14.145 0.420,14.139 C0.417,14.139 0.414,14.139 0.411,14.139 C0.411,14.133 0.411,14.126 0.411,14.120 C0.407,14.120 0.404,14.120 0.401,14.120 C0.401,14.114 0.401,14.108 0.401,14.102 C0.398,14.102 0.395,14.102 0.392,14.102 C0.392,14.096 0.392,14.090 0.392,14.084 C0.389,14.084 0.386,14.084 0.382,14.084 C0.382,14.078 0.382,14.072 0.382,14.066 C0.376,14.063 0.370,14.059 0.364,14.056 C0.364,14.050 0.364,14.044 0.364,14.038 C0.360,14.038 0.357,14.038 0.354,14.038 C0.354,14.032 0.354,14.026 0.354,14.020 C0.351,14.020 0.348,14.020 0.345,14.020 C0.345,14.011 0.345,14.002 0.345,13.992 C0.342,13.992 0.339,13.992 0.335,13.992 C0.335,13.986 0.335,13.980 0.335,13.974 C0.332,13.974 0.329,13.974 0.326,13.974 C0.326,13.968 0.326,13.962 0.326,13.956 C0.323,13.956 0.320,13.956 0.317,13.956 C0.310,13.938 0.304,13.919 0.298,13.901 C0.295,13.901 0.291,13.901 0.288,13.901 C0.288,13.892 0.288,13.883 0.288,13.874 C0.285,13.874 0.282,13.874 0.279,13.874 C0.276,13.861 0.273,13.849 0.270,13.837 C0.266,13.837 0.263,13.837 0.260,13.837 C0.260,13.828 0.260,13.819 0.260,13.810 C0.257,13.810 0.254,13.810 0.251,13.810 C0.251,13.804 0.251,13.798 0.251,13.791 C0.248,13.791 0.244,13.791 0.241,13.791 C0.238,13.773 0.235,13.755 0.232,13.737 C0.229,13.737 0.226,13.737 0.223,13.737 C0.223,13.731 0.223,13.724 0.223,13.718 C0.219,13.718 0.216,13.718 0.213,13.718 C0.210,13.700 0.207,13.682 0.204,13.663 C0.201,13.663 0.197,13.663 0.194,13.663 C0.194,13.654 0.194,13.645 0.194,13.636 C0.191,13.636 0.188,13.636 0.185,13.636 C0.185,13.627 0.185,13.618 0.185,13.609 C0.182,13.609 0.179,13.609 0.175,13.609 C0.175,13.600 0.175,13.590 0.175,13.581 C0.172,13.581 0.169,13.581 0.166,13.581 C0.166,13.569 0.166,13.557 0.166,13.545 C0.163,13.545 0.160,13.545 0.157,13.545 C0.157,13.536 0.157,13.526 0.157,13.517 C0.154,13.517 0.150,13.517 0.147,13.517 C0.147,13.508 0.147,13.499 0.147,13.490 C0.144,13.490 0.141,13.490 0.138,13.490 C0.135,13.466 0.132,13.441 0.128,13.417 C0.125,13.417 0.122,13.417 0.119,13.417 C0.119,13.405 0.119,13.392 0.119,13.380 C0.116,13.380 0.113,13.380 0.110,13.380 C0.110,13.368 0.110,13.356 0.110,13.344 C0.107,13.344 0.103,13.344 0.100,13.344 C0.100,13.331 0.100,13.319 0.100,13.307 C0.097,13.307 0.094,13.307 0.091,13.307 C0.091,13.292 0.091,13.277 0.091,13.261 C0.088,13.261 0.085,13.261 0.081,13.261 C0.081,13.246 0.081,13.231 0.081,13.216 C0.078,13.216 0.075,13.216 0.072,13.216 C0.072,13.197 0.072,13.179 0.072,13.161 C0.069,13.161 0.066,13.161 0.063,13.161 C0.063,13.146 0.063,13.130 0.063,13.115 C0.059,13.115 0.056,13.115 0.053,13.115 C0.053,13.094 0.053,13.073 0.053,13.051 C0.050,13.051 0.047,13.051 0.044,13.051 C0.044,13.030 0.044,13.009 0.044,12.987 C0.041,12.987 0.038,12.987 0.034,12.987 C0.034,12.960 0.034,12.932 0.034,12.905 C0.031,12.905 0.028,12.905 0.025,12.905 C0.025,12.875 0.025,12.844 0.025,12.814 C0.022,12.814 0.019,12.814 0.016,12.814 C0.016,12.768 0.016,12.722 0.016,12.677 C-0.005,12.604 -0.005,12.301 0.016,12.229 C0.016,12.186 0.016,12.144 0.016,12.101 C0.019,12.101 0.022,12.101 0.025,12.101 C0.028,12.046 0.031,11.991 0.034,11.936 C0.056,11.821 0.078,11.705 0.100,11.589 C0.144,11.455 0.188,11.321 0.232,11.187 C0.235,11.187 0.238,11.187 0.241,11.187 C0.244,11.175 0.248,11.163 0.251,11.151 C0.254,11.151 0.257,11.151 0.260,11.151 C0.260,11.141 0.260,11.132 0.260,11.123 C0.263,11.123 0.266,11.123 0.270,11.123 C0.273,11.111 0.276,11.099 0.279,11.087 C0.282,11.087 0.285,11.087 0.288,11.087 C0.288,11.077 0.288,11.068 0.288,11.059 C0.291,11.059 0.295,11.059 0.298,11.059 C0.304,11.041 0.310,11.023 0.317,11.004 C0.320,11.004 0.323,11.004 0.326,11.004 C0.326,10.998 0.326,10.992 0.326,10.986 C0.329,10.986 0.332,10.986 0.335,10.986 C0.335,10.980 0.335,10.974 0.335,10.968 C0.339,10.968 0.342,10.968 0.345,10.968 C0.345,10.962 0.345,10.956 0.345,10.949 C0.348,10.949 0.351,10.949 0.354,10.949 C0.354,10.943 0.354,10.937 0.354,10.931 C0.357,10.931 0.360,10.931 0.364,10.931 C0.364,10.925 0.364,10.919 0.364,10.913 C0.367,10.913 0.370,10.913 0.373,10.913 C0.373,10.907 0.373,10.901 0.373,10.895 C0.376,10.895 0.379,10.895 0.382,10.895 C0.382,10.889 0.382,10.882 0.382,10.876 C0.389,10.873 0.395,10.870 0.401,10.867 C0.407,10.849 0.414,10.831 0.420,10.812 C0.426,10.809 0.433,10.806 0.439,10.803 C0.442,10.791 0.445,10.779 0.448,10.767 C0.455,10.764 0.461,10.761 0.467,10.758 C0.470,10.745 0.473,10.733 0.476,10.721 C0.480,10.721 0.483,10.721 0.486,10.721 C0.489,10.712 0.492,10.703 0.495,10.694 C0.502,10.691 0.508,10.688 0.514,10.684 C0.514,10.678 0.514,10.672 0.514,10.666 C0.517,10.666 0.520,10.666 0.524,10.666 C0.527,10.657 0.530,10.648 0.533,10.639 C0.539,10.636 0.545,10.633 0.552,10.630 C0.552,10.624 0.552,10.617 0.552,10.611 C0.561,10.605 0.571,10.599 0.580,10.593 C0.580,10.587 0.580,10.581 0.580,10.575 C0.589,10.569 0.599,10.563 0.608,10.557 C0.608,10.550 0.608,10.544 0.608,10.538 C0.618,10.532 0.627,10.526 0.636,10.520 C0.636,10.514 0.636,10.508 0.636,10.502 C0.646,10.496 0.655,10.490 0.665,10.483 C0.665,10.477 0.665,10.471 0.665,10.465 C0.680,10.453 0.696,10.441 0.712,10.429 C0.712,10.423 0.712,10.416 0.712,10.410 C0.730,10.395 0.749,10.380 0.768,10.365 C0.768,10.359 0.768,10.352 0.768,10.346 C0.809,10.310 0.850,10.273 0.890,10.237 C0.934,10.191 0.978,10.145 1.022,10.100 C1.028,10.100 1.035,10.100 1.041,10.100 C1.060,10.078 1.078,10.057 1.097,10.036 C1.104,10.036 1.110,10.036 1.116,10.036 C1.125,10.023 1.135,10.011 1.144,9.999 C1.151,9.999 1.157,9.999 1.163,9.999 C1.173,9.987 1.182,9.975 1.191,9.963 C1.198,9.963 1.204,9.963 1.210,9.963 C1.220,9.950 1.229,9.938 1.238,9.926 C1.245,9.926 1.251,9.926 1.257,9.926 C1.263,9.917 1.270,9.908 1.276,9.899 C1.282,9.899 1.289,9.899 1.295,9.899 C1.298,9.892 1.301,9.886 1.304,9.880 C1.310,9.880 1.317,9.880 1.323,9.880 C1.329,9.871 1.336,9.862 1.342,9.853 C1.348,9.853 1.354,9.853 1.361,9.853 C1.364,9.847 1.367,9.841 1.370,9.835 C1.379,9.832 1.389,9.829 1.398,9.825 C1.398,9.822 1.398,9.819 1.398,9.816 C1.405,9.816 1.411,9.816 1.417,9.816 C1.420,9.810 1.423,9.804 1.426,9.798 C1.433,9.798 1.439,9.798 1.445,9.798 C1.448,9.792 1.452,9.786 1.455,9.780 C1.461,9.780 1.467,9.780 1.474,9.780 C1.477,9.774 1.480,9.768 1.483,9.762 C1.492,9.758 1.502,9.755 1.511,9.752 C1.511,9.749 1.511,9.746 1.511,9.743 C1.524,9.740 1.536,9.737 1.549,9.734 C1.552,9.728 1.555,9.722 1.558,9.716 C1.568,9.713 1.577,9.710 1.586,9.707 C1.586,9.704 1.586,9.701 1.586,9.698 C1.593,9.698 1.599,9.698 1.605,9.698 C1.605,9.695 1.605,9.691 1.605,9.688 C1.611,9.688 1.618,9.688 1.624,9.688 C1.624,9.685 1.624,9.682 1.624,9.679 C1.630,9.679 1.637,9.679 1.643,9.679 C1.646,9.673 1.649,9.667 1.652,9.661 C1.671,9.655 1.690,9.649 1.709,9.643 C1.712,9.637 1.715,9.631 1.718,9.624 C1.724,9.624 1.731,9.624 1.737,9.624 C1.737,9.621 1.737,9.618 1.737,9.615 C1.743,9.615 1.749,9.615 1.756,9.615 C1.756,9.612 1.756,9.609 1.756,9.606 C1.762,9.606 1.768,9.606 1.775,9.606 C1.775,9.603 1.775,9.600 1.775,9.597 C1.781,9.597 1.787,9.597 1.793,9.597 C1.793,9.594 1.793,9.591 1.793,9.588 C1.806,9.585 1.818,9.582 1.831,9.579 C1.834,9.573 1.837,9.567 1.840,9.560 C1.853,9.557 1.865,9.554 1.878,9.551 C1.878,9.548 1.878,9.545 1.878,9.542 C1.884,9.542 1.891,9.542 1.897,9.542 C1.897,9.539 1.897,9.536 1.897,9.533 C1.916,9.527 1.934,9.521 1.953,9.515 C1.953,9.512 1.953,9.509 1.953,9.506 C1.963,9.506 1.972,9.506 1.981,9.506 C1.981,9.503 1.981,9.500 1.981,9.497 C1.988,9.497 1.994,9.497 2.000,9.497 C2.000,9.493 2.000,9.490 2.000,9.487 C2.007,9.487 2.013,9.487 2.019,9.487 C2.019,9.484 2.019,9.481 2.019,9.478 C2.038,9.472 2.057,9.466 2.076,9.460 C2.076,9.457 2.076,9.454 2.076,9.451 C2.085,9.451 2.094,9.451 2.104,9.451 C2.104,9.448 2.104,9.445 2.104,9.442 C2.116,9.439 2.129,9.436 2.141,9.433 C2.141,9.429 2.141,9.426 2.141,9.423 C2.151,9.423 2.160,9.423 2.170,9.423 C2.170,9.420 2.170,9.417 2.170,9.414 C2.182,9.411 2.195,9.408 2.207,9.405 C2.207,9.402 2.207,9.399 2.207,9.396 C2.217,9.396 2.226,9.396 2.235,9.396 C2.235,9.393 2.235,9.390 2.235,9.387 C2.242,9.387 2.248,9.387 2.254,9.387 C2.254,9.384 2.254,9.381 2.254,9.378 C2.270,9.375 2.286,9.372 2.301,9.369 C2.301,9.366 2.301,9.362 2.301,9.359 C2.311,9.359 2.320,9.359 2.329,9.359 C2.329,9.356 2.329,9.353 2.329,9.350 C2.336,9.350 2.342,9.350 2.348,9.350 C2.348,9.347 2.348,9.344 2.348,9.341 C2.367,9.338 2.386,9.335 2.405,9.332 C2.405,9.329 2.405,9.326 2.405,9.323 C2.411,9.323 2.417,9.323 2.424,9.323 C2.424,9.320 2.424,9.317 2.424,9.314 C2.442,9.311 2.461,9.308 2.480,9.305 C2.480,9.302 2.480,9.299 2.480,9.295 C2.489,9.295 2.499,9.295 2.508,9.295 C2.508,9.292 2.508,9.289 2.508,9.286 C2.514,9.286 2.521,9.286 2.527,9.286 C2.527,9.283 2.527,9.280 2.527,9.277 C2.536,9.277 2.546,9.277 2.555,9.277 C2.555,9.274 2.555,9.271 2.555,9.268 C2.565,9.268 2.574,9.268 2.583,9.268 C2.583,9.265 2.583,9.262 2.583,9.259 C2.593,9.259 2.602,9.259 2.612,9.259 C2.612,9.256 2.612,9.253 2.612,9.250 C2.621,9.250 2.630,9.250 2.640,9.250 C2.640,9.247 2.640,9.244 2.640,9.241 C2.652,9.241 2.665,9.241 2.677,9.241 C2.677,9.238 2.677,9.235 2.677,9.232 C2.687,9.232 2.696,9.232 2.706,9.232 C2.706,9.228 2.706,9.225 2.706,9.222 C2.715,9.222 2.725,9.222 2.734,9.222 C2.734,9.219 2.734,9.216 2.734,9.213 C2.743,9.213 2.753,9.213 2.762,9.213 C2.762,9.210 2.762,9.207 2.762,9.204 C2.772,9.204 2.781,9.204 2.790,9.204 C2.790,9.201 2.790,9.198 2.790,9.195 C2.803,9.195 2.815,9.195 2.828,9.195 C2.828,9.192 2.828,9.189 2.828,9.186 C2.837,9.186 2.847,9.186 2.856,9.186 C2.856,9.183 2.856,9.180 2.856,9.177 C2.878,9.174 2.900,9.171 2.922,9.168 C2.922,9.164 2.922,9.161 2.922,9.158 C2.935,9.158 2.947,9.158 2.960,9.158 C2.960,9.155 2.960,9.152 2.960,9.149 C2.994,9.143 3.029,9.137 3.063,9.131 C3.063,9.128 3.063,9.125 3.063,9.122 C3.091,9.119 3.120,9.116 3.148,9.113 C3.148,9.110 3.148,9.107 3.148,9.104 C3.160,9.104 3.173,9.104 3.185,9.104 C3.185,9.101 3.185,9.097 3.185,9.094 C3.198,9.094 3.211,9.094 3.223,9.094 C3.223,9.091 3.223,9.088 3.223,9.085 C3.236,9.085 3.248,9.085 3.261,9.085 C3.261,9.082 3.261,9.079 3.261,9.076 C3.289,9.073 3.317,9.070 3.345,9.067 C3.345,9.064 3.345,9.061 3.345,9.058 C3.361,9.058 3.377,9.058 3.392,9.058 C3.392,9.055 3.392,9.052 3.392,9.049 C3.408,9.049 3.424,9.049 3.439,9.049 C3.439,9.046 3.439,9.043 3.439,9.040 C3.455,9.040 3.471,9.040 3.486,9.040 C3.486,9.037 3.486,9.034 3.486,9.030 C3.502,9.030 3.518,9.030 3.533,9.030 C3.533,9.027 3.533,9.024 3.533,9.021 C3.552,9.021 3.571,9.021 3.590,9.021 C3.694,8.990 3.830,8.988 3.938,8.957 C3.960,8.957 3.982,8.957 4.004,8.957 C4.004,8.954 4.004,8.951 4.004,8.948 C4.029,8.948 4.054,8.948 4.079,8.948 C4.079,8.945 4.079,8.942 4.079,8.939 C4.107,8.939 4.135,8.939 4.164,8.939 C4.164,8.936 4.164,8.933 4.164,8.930 C4.189,8.930 4.214,8.930 4.239,8.930 C4.239,8.927 4.239,8.924 4.239,8.921 C4.270,8.921 4.302,8.921 4.333,8.921 C4.333,8.918 4.333,8.915 4.333,8.912 C4.367,8.912 4.402,8.912 4.436,8.912 C4.436,8.909 4.436,8.906 4.436,8.903 C4.474,8.903 4.512,8.903 4.549,8.903 C4.549,8.899 4.549,8.896 4.549,8.893 C4.596,8.893 4.643,8.893 4.690,8.893 C4.690,8.890 4.690,8.887 4.690,8.884 C4.697,8.884 4.703,8.884 4.709,8.884 C4.703,8.852 4.684,8.835 4.672,8.811 C4.672,8.805 4.672,8.799 4.672,8.793 C4.668,8.793 4.665,8.793 4.662,8.793 C4.662,8.784 4.662,8.775 4.662,8.765 C4.659,8.765 4.656,8.765 4.653,8.765 C4.653,8.759 4.653,8.753 4.653,8.747 C4.650,8.747 4.647,8.747 4.643,8.747 C4.640,8.732 4.637,8.717 4.634,8.701 C4.631,8.701 4.628,8.701 4.625,8.701 C4.625,8.692 4.625,8.683 4.625,8.674 C4.621,8.674 4.618,8.674 4.615,8.674 C4.615,8.668 4.615,8.662 4.615,8.656 C4.612,8.656 4.609,8.656 4.606,8.656 C4.603,8.638 4.599,8.619 4.596,8.601 C4.593,8.601 4.590,8.601 4.587,8.601 C4.587,8.592 4.587,8.583 4.587,8.574 C4.584,8.574 4.581,8.574 4.578,8.574 C4.578,8.564 4.578,8.555 4.578,8.546 C4.574,8.546 4.571,8.546 4.568,8.546 C4.568,8.537 4.568,8.528 4.568,8.519 C4.565,8.519 4.562,8.519 4.559,8.519 C4.559,8.510 4.559,8.500 4.559,8.491 C4.556,8.491 4.552,8.491 4.549,8.491 C4.549,8.482 4.549,8.473 4.549,8.464 C4.546,8.464 4.543,8.464 4.540,8.464 C4.540,8.452 4.540,8.440 4.540,8.427 C4.537,8.427 4.534,8.427 4.530,8.427 C4.527,8.406 4.524,8.385 4.521,8.363 C4.518,8.363 4.515,8.363 4.512,8.363 C4.512,8.351 4.512,8.339 4.512,8.327 C4.509,8.327 4.505,8.327 4.502,8.327 C4.502,8.315 4.502,8.302 4.502,8.290 C4.499,8.290 4.496,8.290 4.493,8.290 C4.493,8.275 4.493,8.260 4.493,8.245 C4.453,8.125 4.429,7.949 4.427,7.797 C4.314,7.791 4.201,7.785 4.088,7.779 C4.088,7.775 4.088,7.772 4.088,7.769 C4.057,7.769 4.026,7.769 3.994,7.769 C3.994,7.766 3.994,7.763 3.994,7.760 C3.969,7.760 3.944,7.760 3.919,7.760 C3.919,7.757 3.919,7.754 3.919,7.751 C3.894,7.751 3.869,7.751 3.844,7.751 C3.844,7.748 3.844,7.745 3.844,7.742 C3.825,7.742 3.806,7.742 3.787,7.742 C3.787,7.739 3.787,7.736 3.787,7.733 C3.769,7.733 3.750,7.733 3.731,7.733 C3.731,7.730 3.731,7.727 3.731,7.724 C3.712,7.724 3.693,7.724 3.675,7.724 C3.675,7.721 3.675,7.718 3.675,7.715 C3.659,7.715 3.643,7.715 3.628,7.715 C3.628,7.712 3.628,7.708 3.628,7.705 C3.612,7.705 3.596,7.705 3.580,7.705 C3.580,7.702 3.580,7.699 3.580,7.696 C3.565,7.696 3.549,7.696 3.533,7.696 C3.386,7.657 3.239,7.617 3.091,7.578 C3.091,7.574 3.091,7.571 3.091,7.568 C3.085,7.568 3.079,7.568 3.073,7.568 C3.073,7.565 3.073,7.562 3.073,7.559 C3.044,7.553 3.016,7.547 2.988,7.541 C2.988,7.538 2.988,7.535 2.988,7.532 C2.982,7.532 2.975,7.532 2.969,7.532 C2.969,7.529 2.969,7.526 2.969,7.523 C2.950,7.520 2.931,7.517 2.913,7.514 C2.913,7.510 2.913,7.507 2.913,7.504 C2.900,7.501 2.888,7.498 2.875,7.495 C2.875,7.492 2.875,7.489 2.875,7.486 C2.866,7.486 2.856,7.486 2.847,7.486 C2.847,7.483 2.847,7.480 2.847,7.477 C2.834,7.474 2.822,7.471 2.809,7.468 C2.809,7.465 2.809,7.462 2.809,7.459 C2.800,7.459 2.790,7.459 2.781,7.459 C2.781,7.456 2.781,7.453 2.781,7.450 C2.762,7.443 2.743,7.437 2.725,7.431 C2.725,7.428 2.725,7.425 2.725,7.422 C2.718,7.422 2.712,7.422 2.706,7.422 C2.706,7.419 2.706,7.416 2.706,7.413 C2.678,7.404 2.649,7.395 2.621,7.386 C2.618,7.380 2.615,7.373 2.612,7.367 C2.605,7.367 2.599,7.367 2.593,7.367 C2.593,7.364 2.593,7.361 2.593,7.358 C2.587,7.358 2.580,7.358 2.574,7.358 C2.574,7.355 2.574,7.352 2.574,7.349 C2.568,7.349 2.561,7.349 2.555,7.349 C2.555,7.346 2.555,7.343 2.555,7.340 C2.549,7.340 2.543,7.340 2.536,7.340 C2.536,7.337 2.536,7.334 2.536,7.331 C2.524,7.328 2.511,7.325 2.499,7.322 C2.496,7.316 2.493,7.309 2.489,7.303 C2.477,7.300 2.464,7.297 2.452,7.294 C2.449,7.288 2.445,7.282 2.442,7.276 C2.430,7.273 2.417,7.270 2.405,7.267 C2.402,7.261 2.398,7.255 2.395,7.249 C2.383,7.245 2.370,7.242 2.358,7.239 C2.355,7.233 2.351,7.227 2.348,7.221 C2.342,7.221 2.336,7.221 2.329,7.221 C2.329,7.218 2.329,7.215 2.329,7.212 C2.320,7.209 2.311,7.206 2.301,7.203 C2.298,7.197 2.295,7.191 2.292,7.185 C2.286,7.185 2.279,7.185 2.273,7.185 C2.270,7.178 2.267,7.172 2.264,7.166 C2.257,7.166 2.251,7.166 2.245,7.166 C2.239,7.157 2.232,7.148 2.226,7.139 C2.220,7.139 2.213,7.139 2.207,7.139 C2.204,7.133 2.201,7.127 2.198,7.121 C2.192,7.121 2.185,7.121 2.179,7.121 C2.176,7.115 2.173,7.108 2.170,7.102 C2.160,7.099 2.151,7.096 2.141,7.093 C2.135,7.084 2.129,7.075 2.123,7.066 C2.116,7.066 2.110,7.066 2.104,7.066 C2.094,7.054 2.085,7.041 2.076,7.029 C2.069,7.029 2.063,7.029 2.057,7.029 C2.044,7.014 2.032,6.999 2.019,6.984 C1.909,6.906 1.797,6.807 1.718,6.700 C1.699,6.685 1.680,6.670 1.662,6.655 C1.662,6.648 1.662,6.642 1.662,6.636 C1.646,6.624 1.630,6.612 1.615,6.600 C1.615,6.594 1.615,6.588 1.615,6.581 C1.602,6.572 1.590,6.563 1.577,6.554 C1.577,6.548 1.577,6.542 1.577,6.536 C1.568,6.530 1.558,6.524 1.549,6.517 C1.546,6.508 1.542,6.499 1.539,6.490 C1.533,6.487 1.527,6.484 1.521,6.481 C1.521,6.475 1.521,6.469 1.521,6.463 C1.517,6.463 1.514,6.463 1.511,6.463 C1.508,6.454 1.505,6.444 1.502,6.435 C1.495,6.432 1.489,6.429 1.483,6.426 C1.483,6.420 1.483,6.414 1.483,6.408 C1.474,6.402 1.464,6.396 1.455,6.390 C1.452,6.377 1.448,6.365 1.445,6.353 C1.439,6.350 1.433,6.347 1.426,6.344 C1.426,6.338 1.426,6.332 1.426,6.326 C1.420,6.323 1.414,6.319 1.408,6.316 C1.408,6.310 1.408,6.304 1.408,6.298 C1.401,6.295 1.395,6.292 1.389,6.289 C1.389,6.283 1.389,6.277 1.389,6.271 C1.386,6.271 1.383,6.271 1.379,6.271 C1.379,6.265 1.379,6.259 1.379,6.252 C1.373,6.249 1.367,6.246 1.361,6.243 C1.354,6.225 1.348,6.207 1.342,6.189 C1.336,6.185 1.329,6.182 1.323,6.179 C1.323,6.173 1.323,6.167 1.323,6.161 C1.320,6.161 1.317,6.161 1.314,6.161 C1.314,6.155 1.314,6.149 1.314,6.143 C1.310,6.143 1.307,6.143 1.304,6.143 C1.304,6.137 1.304,6.131 1.304,6.125 C1.301,6.125 1.298,6.125 1.295,6.125 C1.295,6.118 1.295,6.112 1.295,6.106 C1.292,6.106 1.289,6.106 1.285,6.106 C1.285,6.100 1.285,6.094 1.285,6.088 C1.282,6.088 1.279,6.088 1.276,6.088 C1.276,6.082 1.276,6.076 1.276,6.070 C1.273,6.070 1.270,6.070 1.267,6.070 C1.267,6.064 1.267,6.058 1.267,6.051 C1.263,6.051 1.260,6.051 1.257,6.051 C1.257,6.045 1.257,6.039 1.257,6.033 C1.254,6.033 1.251,6.033 1.248,6.033 C1.248,6.027 1.248,6.021 1.248,6.015 C1.245,6.015 1.242,6.015 1.238,6.015 C1.238,6.009 1.238,6.003 1.238,5.997 C1.235,5.997 1.232,5.997 1.229,5.997 C1.223,5.978 1.216,5.960 1.210,5.942 C1.207,5.942 1.204,5.942 1.201,5.942 C1.201,5.933 1.201,5.924 1.201,5.914 C1.198,5.914 1.194,5.914 1.191,5.914 C1.188,5.902 1.185,5.890 1.182,5.878 C1.179,5.878 1.176,5.878 1.173,5.878 C1.173,5.869 1.173,5.860 1.173,5.850 C1.169,5.850 1.166,5.850 1.163,5.850 C1.163,5.844 1.163,5.838 1.163,5.832 C1.160,5.832 1.157,5.832 1.154,5.832 C1.154,5.823 1.154,5.814 1.154,5.805 C1.151,5.805 1.147,5.805 1.144,5.805 C1.144,5.799 1.144,5.793 1.144,5.786 C1.141,5.786 1.138,5.786 1.135,5.786 C1.135,5.777 1.135,5.768 1.135,5.759 C1.132,5.759 1.129,5.759 1.125,5.759 C1.125,5.753 1.125,5.747 1.125,5.741 C1.122,5.741 1.119,5.741 1.116,5.741 C1.113,5.722 1.110,5.704 1.107,5.686 C1.104,5.686 1.100,5.686 1.097,5.686 C1.097,5.677 1.097,5.668 1.097,5.658 C1.094,5.658 1.091,5.658 1.088,5.658 C1.088,5.649 1.088,5.640 1.088,5.631 C1.085,5.631 1.082,5.631 1.078,5.631 C1.078,5.622 1.078,5.613 1.078,5.604 C1.075,5.604 1.072,5.604 1.069,5.604 C1.069,5.595 1.069,5.585 1.069,5.576 C1.066,5.576 1.063,5.576 1.060,5.576 C1.060,5.567 1.060,5.558 1.060,5.549 C1.057,5.549 1.053,5.549 1.050,5.549 C1.050,5.540 1.050,5.531 1.050,5.521 C1.047,5.521 1.044,5.521 1.041,5.521 C1.003,5.366 0.966,5.211 0.928,5.055 C0.928,5.037 0.928,5.019 0.928,5.001 C0.925,5.001 0.922,5.001 0.919,5.001 C0.919,4.979 0.919,4.958 0.919,4.937 C0.915,4.937 0.912,4.937 0.909,4.937 C0.909,4.915 0.909,4.894 0.909,4.873 C0.906,4.873 0.903,4.873 0.900,4.873 C0.900,4.848 0.900,4.824 0.900,4.800 C0.897,4.800 0.893,4.800 0.890,4.800 C0.890,4.772 0.890,4.745 0.890,4.717 C0.887,4.717 0.884,4.717 0.881,4.717 C0.881,4.684 0.881,4.650 0.881,4.617 C0.878,4.617 0.875,4.617 0.872,4.617 C0.868,4.483 0.865,4.349 0.862,4.215 C0.859,4.215 0.856,4.215 0.853,4.215 C0.839,4.166 0.859,4.095 0.862,4.059 C0.868,3.988 0.855,3.898 0.872,3.840 C0.878,3.740 0.884,3.639 0.890,3.538 C0.893,3.538 0.897,3.538 0.900,3.538 C0.900,3.517 0.900,3.496 0.900,3.474 C0.903,3.474 0.906,3.474 0.909,3.474 C0.909,3.453 0.909,3.432 0.909,3.411 C0.912,3.411 0.915,3.411 0.919,3.411 C0.919,3.392 0.919,3.374 0.919,3.356 C0.922,3.356 0.925,3.356 0.928,3.356 C0.931,3.322 0.934,3.289 0.937,3.255 C0.941,3.255 0.944,3.255 0.947,3.255 C0.950,3.225 0.953,3.194 0.956,3.164 C0.959,3.164 0.962,3.164 0.966,3.164 C0.966,3.149 0.966,3.133 0.966,3.118 C0.969,3.118 0.972,3.118 0.975,3.118 C0.975,3.106 0.975,3.094 0.975,3.082 C0.978,3.082 0.981,3.082 0.984,3.082 C0.984,3.069 0.984,3.057 0.984,3.045 C0.988,3.045 0.991,3.045 0.994,3.045 C0.994,3.033 0.994,3.021 0.994,3.008 C0.997,3.008 1.000,3.008 1.003,3.008 C1.006,2.984 1.009,2.960 1.013,2.935 C1.066,2.786 1.119,2.637 1.173,2.488 C1.176,2.488 1.179,2.488 1.182,2.488 C1.182,2.481 1.182,2.475 1.182,2.469 C1.185,2.469 1.188,2.469 1.191,2.469 C1.194,2.454 1.198,2.439 1.201,2.424 C1.204,2.424 1.207,2.424 1.210,2.424 C1.216,2.405 1.223,2.387 1.229,2.369 C1.232,2.369 1.235,2.369 1.238,2.369 C1.238,2.363 1.238,2.357 1.238,2.350 C1.242,2.350 1.245,2.350 1.248,2.350 C1.248,2.344 1.248,2.338 1.248,2.332 C1.251,2.332 1.254,2.332 1.257,2.332 C1.257,2.323 1.257,2.314 1.257,2.305 C1.260,2.305 1.263,2.305 1.267,2.305 C1.270,2.293 1.273,2.280 1.276,2.268 C1.279,2.268 1.282,2.268 1.285,2.268 C1.285,2.262 1.285,2.256 1.285,2.250 C1.292,2.247 1.298,2.244 1.304,2.241 C1.307,2.229 1.310,2.216 1.314,2.204 C1.317,2.204 1.320,2.204 1.323,2.204 C1.323,2.198 1.323,2.192 1.323,2.186 C1.326,2.186 1.329,2.186 1.332,2.186 C1.332,2.180 1.332,2.174 1.332,2.168 C1.336,2.168 1.339,2.168 1.342,2.168 C1.342,2.162 1.342,2.156 1.342,2.149 C1.345,2.149 1.348,2.149 1.351,2.149 C1.351,2.143 1.351,2.137 1.351,2.131 C1.358,2.128 1.364,2.125 1.370,2.122 C1.376,2.104 1.383,2.085 1.389,2.067 C1.395,2.064 1.401,2.061 1.408,2.058 C1.411,2.046 1.414,2.034 1.417,2.022 C1.420,2.022 1.423,2.022 1.426,2.022 C1.430,2.012 1.433,2.003 1.436,1.994 C1.442,1.991 1.448,1.988 1.455,1.985 C1.458,1.973 1.461,1.961 1.464,1.948 C1.467,1.948 1.470,1.948 1.474,1.948 C1.477,1.939 1.480,1.930 1.483,1.921 C1.489,1.918 1.495,1.915 1.502,1.912 C1.502,1.906 1.502,1.900 1.502,1.894 C1.508,1.891 1.514,1.887 1.521,1.884 C1.521,1.878 1.521,1.872 1.521,1.866 C1.530,1.860 1.539,1.854 1.549,1.848 C1.549,1.842 1.549,1.836 1.549,1.830 C1.555,1.827 1.561,1.824 1.568,1.820 C1.568,1.814 1.568,1.808 1.568,1.802 C1.577,1.796 1.586,1.790 1.596,1.784 C1.596,1.778 1.596,1.772 1.596,1.766 C1.605,1.760 1.615,1.753 1.624,1.747 C1.624,1.741 1.624,1.735 1.624,1.729 C1.633,1.723 1.643,1.717 1.652,1.711 C1.652,1.705 1.652,1.699 1.652,1.693 C1.665,1.683 1.677,1.674 1.690,1.665 C1.690,1.659 1.690,1.653 1.690,1.647 C1.702,1.638 1.715,1.629 1.727,1.619 C1.727,1.613 1.727,1.607 1.727,1.601 C1.746,1.586 1.765,1.571 1.784,1.555 C1.784,1.549 1.784,1.543 1.784,1.537 C1.806,1.519 1.828,1.501 1.850,1.482 C1.856,1.473 1.862,1.464 1.869,1.455 C1.872,1.455 1.875,1.455 1.878,1.455 C1.878,1.449 1.878,1.443 1.878,1.437 C1.909,1.409 1.941,1.382 1.972,1.354 C1.991,1.333 2.010,1.312 2.028,1.290 C2.035,1.290 2.041,1.290 2.047,1.290 C2.076,1.260 2.104,1.230 2.132,1.199 C2.138,1.199 2.144,1.199 2.151,1.199 C2.154,1.193 2.157,1.187 2.160,1.181 C2.163,1.181 2.166,1.181 2.170,1.181 C2.179,1.169 2.188,1.156 2.198,1.144 C2.204,1.144 2.210,1.144 2.217,1.144 C2.226,1.132 2.235,1.120 2.245,1.108 C2.251,1.108 2.257,1.108 2.264,1.108 C2.273,1.096 2.282,1.083 2.292,1.071 C2.298,1.071 2.304,1.071 2.311,1.071 C2.320,1.059 2.329,1.047 2.339,1.035 C2.345,1.035 2.351,1.035 2.358,1.035 C2.364,1.025 2.370,1.016 2.377,1.007 C2.383,1.007 2.389,1.007 2.395,1.007 C2.402,0.998 2.408,0.989 2.414,0.980 C2.420,0.980 2.427,0.980 2.433,0.980 C2.436,0.974 2.439,0.968 2.442,0.962 C2.449,0.962 2.455,0.962 2.461,0.962 C2.467,0.952 2.474,0.943 2.480,0.934 C2.486,0.934 2.493,0.934 2.499,0.934 C2.502,0.928 2.505,0.922 2.508,0.916 C2.518,0.913 2.527,0.910 2.536,0.907 C2.536,0.904 2.536,0.901 2.536,0.898 C2.543,0.898 2.549,0.898 2.555,0.898 C2.558,0.891 2.561,0.885 2.565,0.879 C2.571,0.879 2.577,0.879 2.583,0.879 C2.587,0.873 2.590,0.867 2.593,0.861 C2.599,0.861 2.605,0.861 2.612,0.861 C2.615,0.855 2.618,0.849 2.621,0.843 C2.630,0.840 2.640,0.837 2.649,0.834 C2.649,0.831 2.649,0.827 2.649,0.824 C2.662,0.821 2.674,0.818 2.687,0.815 C2.687,0.812 2.687,0.809 2.687,0.806 C2.696,0.803 2.706,0.800 2.715,0.797 C2.718,0.791 2.721,0.785 2.725,0.779 C2.731,0.779 2.737,0.779 2.743,0.779 C2.743,0.776 2.743,0.773 2.743,0.770 C2.750,0.770 2.756,0.770 2.762,0.770 C2.765,0.764 2.768,0.757 2.772,0.751 C2.790,0.745 2.809,0.739 2.828,0.733 C2.831,0.727 2.834,0.721 2.837,0.715 C2.850,0.712 2.862,0.709 2.875,0.706 C2.875,0.703 2.875,0.700 2.875,0.696 C2.881,0.696 2.888,0.696 2.894,0.696 C2.897,0.690 2.900,0.684 2.903,0.678 C2.910,0.678 2.916,0.678 2.922,0.678 C2.922,0.675 2.922,0.672 2.922,0.669 C2.928,0.669 2.935,0.669 2.941,0.669 C2.941,0.666 2.941,0.663 2.941,0.660 C2.947,0.660 2.953,0.660 2.960,0.660 C2.960,0.657 2.960,0.654 2.960,0.651 C2.966,0.651 2.972,0.651 2.978,0.651 C2.978,0.648 2.978,0.645 2.978,0.642 C2.985,0.642 2.991,0.642 2.997,0.642 C2.997,0.639 2.997,0.636 2.997,0.633 C3.004,0.633 3.010,0.633 3.016,0.633 C3.016,0.629 3.016,0.626 3.016,0.623 C3.022,0.623 3.029,0.623 3.035,0.623 C3.035,0.620 3.035,0.617 3.035,0.614 C3.041,0.614 3.047,0.614 3.054,0.614 C3.057,0.608 3.060,0.602 3.063,0.596 C3.098,0.584 3.132,0.572 3.167,0.559 C3.167,0.556 3.167,0.553 3.167,0.550 C3.173,0.550 3.179,0.550 3.185,0.550 C3.185,0.547 3.185,0.544 3.185,0.541 C3.192,0.541 3.198,0.541 3.204,0.541 C3.204,0.538 3.204,0.535 3.204,0.532 C3.223,0.526 3.242,0.520 3.261,0.514 C3.261,0.511 3.261,0.508 3.261,0.505 C3.276,0.502 3.292,0.499 3.308,0.495 C3.308,0.492 3.308,0.489 3.308,0.486 C3.320,0.483 3.333,0.480 3.345,0.477 C3.345,0.474 3.345,0.471 3.345,0.468 C3.355,0.468 3.364,0.468 3.374,0.468 C3.374,0.465 3.374,0.462 3.374,0.459 C3.386,0.456 3.399,0.453 3.411,0.450 C3.411,0.447 3.411,0.444 3.411,0.441 C3.421,0.441 3.430,0.441 3.439,0.441 C3.439,0.438 3.439,0.435 3.439,0.431 C3.446,0.431 3.452,0.431 3.458,0.431 C3.458,0.428 3.458,0.425 3.458,0.422 C3.474,0.419 3.490,0.416 3.505,0.413 C3.505,0.410 3.505,0.407 3.505,0.404 C3.515,0.404 3.524,0.404 3.533,0.404 C3.533,0.401 3.533,0.398 3.533,0.395 C3.540,0.395 3.546,0.395 3.552,0.395 C3.552,0.392 3.552,0.389 3.552,0.386 C3.571,0.383 3.590,0.380 3.609,0.377 C3.609,0.374 3.609,0.371 3.609,0.368 C3.615,0.368 3.621,0.368 3.628,0.368 C3.628,0.364 3.628,0.361 3.628,0.358 C3.637,0.358 3.646,0.358 3.656,0.358 C3.656,0.355 3.656,0.352 3.656,0.349 C3.665,0.349 3.675,0.349 3.684,0.349 C3.684,0.346 3.684,0.343 3.684,0.340 C3.693,0.340 3.703,0.340 3.712,0.340 C3.712,0.337 3.712,0.334 3.712,0.331 C3.722,0.331 3.731,0.331 3.740,0.331 C3.740,0.328 3.740,0.325 3.740,0.322 C3.747,0.322 3.753,0.322 3.759,0.322 C3.759,0.319 3.759,0.316 3.759,0.313 C3.778,0.310 3.797,0.307 3.816,0.304 C3.816,0.301 3.816,0.297 3.816,0.294 C3.825,0.294 3.834,0.294 3.844,0.294 C3.844,0.291 3.844,0.288 3.844,0.285 C3.853,0.285 3.863,0.285 3.872,0.285 C3.872,0.282 3.872,0.279 3.872,0.276 C3.903,0.270 3.935,0.264 3.966,0.258 C3.966,0.255 3.966,0.252 3.966,0.249 C3.976,0.249 3.985,0.249 3.994,0.249 C3.994,0.246 3.994,0.243 3.994,0.240 C4.007,0.240 4.019,0.240 4.032,0.240 C4.032,0.237 4.032,0.233 4.032,0.230 C4.041,0.230 4.051,0.230 4.060,0.230 C4.060,0.227 4.060,0.224 4.060,0.221 C4.073,0.221 4.085,0.221 4.098,0.221 C4.198,0.186 4.322,0.163 4.427,0.130 C4.455,0.127 4.483,0.124 4.512,0.121 C4.512,0.118 4.512,0.115 4.512,0.112 C4.527,0.112 4.543,0.112 4.559,0.112 C4.616,0.094 4.698,0.083 4.756,0.066 C4.778,0.066 4.800,0.066 4.822,0.066 C4.876,0.051 4.955,0.045 5.010,0.029 C5.064,0.026 5.117,0.023 5.170,0.020 C5.275,-0.009 5.434,0.002 5.565,0.002 C5.894,0.002 6.224,0.002 6.553,0.002 C7.644,0.002 8.735,0.002 9.826,0.002 ZM4.455,1.747 C4.432,1.767 4.385,1.755 4.352,1.766 C4.352,1.769 4.352,1.772 4.352,1.775 C4.342,1.775 4.333,1.775 4.324,1.775 C4.324,1.778 4.324,1.781 4.324,1.784 C4.311,1.784 4.298,1.784 4.286,1.784 C4.286,1.787 4.286,1.790 4.286,1.793 C4.277,1.793 4.267,1.793 4.258,1.793 C4.258,1.796 4.258,1.799 4.258,1.802 C4.251,1.802 4.245,1.802 4.239,1.802 C4.239,1.805 4.239,1.808 4.239,1.811 C4.230,1.811 4.220,1.811 4.211,1.811 C4.211,1.814 4.211,1.817 4.211,1.820 C4.192,1.827 4.173,1.833 4.154,1.839 C4.154,1.842 4.154,1.845 4.154,1.848 C4.148,1.848 4.142,1.848 4.135,1.848 C4.135,1.851 4.135,1.854 4.135,1.857 C4.123,1.860 4.110,1.863 4.098,1.866 C4.095,1.872 4.092,1.878 4.088,1.884 C4.082,1.884 4.076,1.884 4.070,1.884 C4.070,1.887 4.070,1.891 4.070,1.894 C4.060,1.897 4.051,1.900 4.041,1.903 C4.038,1.909 4.035,1.915 4.032,1.921 C4.026,1.921 4.019,1.921 4.013,1.921 C4.010,1.927 4.007,1.933 4.004,1.939 C3.994,1.942 3.985,1.945 3.976,1.948 C3.963,1.964 3.950,1.979 3.938,1.994 C3.932,1.994 3.925,1.994 3.919,1.994 C3.913,2.003 3.907,2.012 3.900,2.022 C3.878,2.040 3.856,2.058 3.834,2.076 C3.834,2.082 3.834,2.089 3.834,2.095 C3.816,2.110 3.797,2.125 3.778,2.140 C3.775,2.149 3.772,2.159 3.769,2.168 C3.762,2.171 3.756,2.174 3.750,2.177 C3.750,2.183 3.750,2.189 3.750,2.195 C3.744,2.198 3.737,2.201 3.731,2.204 C3.728,2.213 3.725,2.223 3.722,2.232 C3.718,2.232 3.715,2.232 3.712,2.232 C3.712,2.238 3.712,2.244 3.712,2.250 C3.706,2.253 3.700,2.256 3.693,2.259 C3.693,2.265 3.693,2.271 3.693,2.277 C3.687,2.280 3.681,2.283 3.675,2.287 C3.671,2.299 3.668,2.311 3.665,2.323 C3.659,2.326 3.653,2.329 3.646,2.332 C3.646,2.338 3.646,2.344 3.646,2.350 C3.643,2.350 3.640,2.350 3.637,2.350 C3.637,2.357 3.637,2.363 3.637,2.369 C3.634,2.369 3.631,2.369 3.628,2.369 C3.628,2.375 3.628,2.381 3.628,2.387 C3.624,2.387 3.621,2.387 3.618,2.387 C3.618,2.393 3.618,2.399 3.618,2.405 C3.615,2.405 3.612,2.405 3.609,2.405 C3.609,2.411 3.609,2.418 3.609,2.424 C3.606,2.424 3.602,2.424 3.599,2.424 C3.599,2.430 3.599,2.436 3.599,2.442 C3.596,2.442 3.593,2.442 3.590,2.442 C3.590,2.448 3.590,2.454 3.590,2.460 C3.587,2.460 3.584,2.460 3.580,2.460 C3.574,2.478 3.568,2.497 3.562,2.515 C3.559,2.515 3.555,2.515 3.552,2.515 C3.552,2.524 3.552,2.533 3.552,2.542 C3.549,2.542 3.546,2.542 3.543,2.542 C3.543,2.548 3.543,2.555 3.543,2.561 C3.540,2.561 3.537,2.561 3.533,2.561 C3.533,2.570 3.533,2.579 3.533,2.588 C3.530,2.588 3.527,2.588 3.524,2.588 C3.524,2.594 3.524,2.600 3.524,2.606 C3.521,2.606 3.518,2.606 3.515,2.606 C3.477,2.734 3.439,2.862 3.402,2.990 C3.395,3.048 3.389,3.106 3.383,3.164 C3.380,3.164 3.377,3.164 3.374,3.164 C3.370,3.206 3.367,3.249 3.364,3.292 C3.364,3.325 3.364,3.359 3.364,3.392 C3.361,3.392 3.358,3.392 3.355,3.392 C3.341,3.439 3.355,3.533 3.364,3.566 C3.364,3.615 3.364,3.663 3.364,3.712 C3.367,3.712 3.370,3.712 3.374,3.712 C3.374,3.743 3.374,3.773 3.374,3.803 C3.390,3.858 3.395,3.934 3.411,3.986 C3.414,4.020 3.417,4.053 3.421,4.087 C3.424,4.087 3.427,4.087 3.430,4.087 C3.433,4.114 3.436,4.142 3.439,4.169 C3.443,4.169 3.446,4.169 3.449,4.169 C3.449,4.181 3.449,4.193 3.449,4.206 C3.452,4.206 3.455,4.206 3.458,4.206 C3.458,4.218 3.458,4.230 3.458,4.242 C3.461,4.242 3.464,4.242 3.468,4.242 C3.468,4.254 3.468,4.266 3.468,4.279 C3.471,4.279 3.474,4.279 3.477,4.279 C3.480,4.303 3.483,4.327 3.486,4.352 C3.490,4.352 3.493,4.352 3.496,4.352 C3.496,4.361 3.496,4.370 3.496,4.379 C3.499,4.379 3.502,4.379 3.505,4.379 C3.505,4.388 3.505,4.397 3.505,4.407 C3.508,4.407 3.512,4.407 3.515,4.407 C3.515,4.419 3.515,4.431 3.515,4.443 C3.518,4.443 3.521,4.443 3.524,4.443 C3.524,4.452 3.524,4.461 3.524,4.471 C3.527,4.471 3.530,4.471 3.533,4.471 C3.533,4.480 3.533,4.489 3.533,4.498 C3.537,4.498 3.540,4.498 3.543,4.498 C3.543,4.507 3.543,4.516 3.543,4.525 C3.546,4.525 3.549,4.525 3.552,4.525 C3.555,4.544 3.559,4.562 3.562,4.580 C3.565,4.580 3.568,4.580 3.571,4.580 C3.571,4.586 3.571,4.592 3.571,4.598 C3.574,4.598 3.577,4.598 3.580,4.598 C3.584,4.617 3.587,4.635 3.590,4.653 C3.593,4.653 3.596,4.653 3.599,4.653 C3.599,4.659 3.599,4.665 3.599,4.672 C3.602,4.672 3.606,4.672 3.609,4.672 C3.609,4.681 3.609,4.690 3.609,4.699 C3.612,4.699 3.615,4.699 3.618,4.699 C3.618,4.705 3.618,4.711 3.618,4.717 C3.621,4.717 3.624,4.717 3.628,4.717 C3.628,4.726 3.628,4.736 3.628,4.745 C3.631,4.745 3.634,4.745 3.637,4.745 C3.640,4.757 3.643,4.769 3.646,4.781 C3.649,4.781 3.653,4.781 3.656,4.781 C3.656,4.790 3.656,4.800 3.656,4.809 C3.659,4.809 3.662,4.809 3.665,4.809 C3.665,4.815 3.665,4.821 3.665,4.827 C3.668,4.827 3.671,4.827 3.675,4.827 C3.678,4.839 3.681,4.851 3.684,4.863 C3.687,4.863 3.690,4.863 3.693,4.863 C3.693,4.870 3.693,4.876 3.693,4.882 C3.696,4.882 3.700,4.882 3.703,4.882 C3.703,4.888 3.703,4.894 3.703,4.900 C3.706,4.900 3.709,4.900 3.712,4.900 C3.712,4.906 3.712,4.912 3.712,4.918 C3.715,4.918 3.718,4.918 3.722,4.918 C3.722,4.924 3.722,4.930 3.722,4.937 C3.725,4.937 3.728,4.937 3.731,4.937 C3.731,4.943 3.731,4.949 3.731,4.955 C3.734,4.955 3.737,4.955 3.740,4.955 C3.740,4.961 3.740,4.967 3.740,4.973 C3.744,4.973 3.747,4.973 3.750,4.973 C3.750,4.979 3.750,4.985 3.750,4.991 C3.753,4.991 3.756,4.991 3.759,4.991 C3.759,4.998 3.759,5.004 3.759,5.010 C3.762,5.010 3.765,5.010 3.769,5.010 C3.769,5.016 3.769,5.022 3.769,5.028 C3.772,5.028 3.775,5.028 3.778,5.028 C3.778,5.034 3.778,5.040 3.778,5.046 C3.781,5.046 3.784,5.046 3.787,5.046 C3.787,5.052 3.787,5.058 3.787,5.065 C3.791,5.065 3.794,5.065 3.797,5.065 C3.797,5.071 3.797,5.077 3.797,5.083 C3.803,5.086 3.809,5.089 3.816,5.092 C3.819,5.104 3.822,5.116 3.825,5.128 C3.831,5.132 3.838,5.135 3.844,5.138 C3.847,5.150 3.850,5.162 3.853,5.174 C3.860,5.177 3.866,5.180 3.872,5.183 C3.875,5.195 3.878,5.208 3.881,5.220 C3.888,5.223 3.894,5.226 3.900,5.229 C3.900,5.235 3.900,5.241 3.900,5.247 C3.903,5.247 3.907,5.247 3.910,5.247 C3.913,5.256 3.916,5.266 3.919,5.275 C3.925,5.278 3.932,5.281 3.938,5.284 C3.938,5.290 3.938,5.296 3.938,5.302 C3.947,5.308 3.957,5.314 3.966,5.320 C3.966,5.326 3.966,5.333 3.966,5.339 C3.972,5.342 3.979,5.345 3.985,5.348 C3.985,5.354 3.985,5.360 3.985,5.366 C3.991,5.369 3.997,5.372 4.004,5.375 C4.007,5.384 4.010,5.393 4.013,5.403 C4.023,5.409 4.032,5.415 4.041,5.421 C4.041,5.427 4.041,5.433 4.041,5.439 C4.048,5.442 4.054,5.445 4.060,5.448 C4.060,5.451 4.060,5.454 4.060,5.457 C4.066,5.461 4.073,5.464 4.079,5.467 C4.079,5.473 4.079,5.479 4.079,5.485 C4.095,5.497 4.110,5.509 4.126,5.521 C4.126,5.528 4.126,5.534 4.126,5.540 C4.164,5.573 4.201,5.607 4.239,5.640 C4.280,5.683 4.320,5.726 4.361,5.768 C4.367,5.768 4.374,5.768 4.380,5.768 C4.393,5.783 4.405,5.799 4.418,5.814 C4.424,5.814 4.430,5.814 4.436,5.814 C4.443,5.823 4.449,5.832 4.455,5.841 C4.462,5.841 4.468,5.841 4.474,5.841 C4.480,5.850 4.487,5.860 4.493,5.869 C4.499,5.869 4.505,5.869 4.512,5.869 C4.515,5.875 4.518,5.881 4.521,5.887 C4.527,5.887 4.534,5.887 4.540,5.887 C4.543,5.893 4.546,5.899 4.549,5.905 C4.556,5.905 4.562,5.905 4.568,5.905 C4.571,5.911 4.574,5.917 4.578,5.924 C4.584,5.924 4.590,5.924 4.596,5.924 C4.599,5.930 4.603,5.936 4.606,5.942 C4.618,5.945 4.631,5.948 4.643,5.951 C4.647,5.957 4.650,5.963 4.653,5.969 C4.672,5.975 4.690,5.981 4.709,5.987 C4.709,5.991 4.709,5.994 4.709,5.997 C4.715,5.997 4.722,5.997 4.728,5.997 C4.728,6.000 4.728,6.003 4.728,6.006 C4.747,6.012 4.766,6.018 4.784,6.024 C4.784,6.027 4.784,6.030 4.784,6.033 C4.794,6.033 4.803,6.033 4.813,6.033 C4.813,6.036 4.813,6.039 4.813,6.042 C4.819,6.042 4.825,6.042 4.831,6.042 C4.831,6.045 4.831,6.048 4.831,6.051 C4.910,6.073 4.988,6.094 5.067,6.115 C5.085,6.115 5.104,6.115 5.123,6.115 C5.204,6.138 5.364,6.127 5.433,6.106 C5.449,6.106 5.465,6.106 5.481,6.106 C5.481,6.103 5.481,6.100 5.481,6.097 C5.502,6.094 5.524,6.091 5.546,6.088 C5.546,6.085 5.546,6.082 5.546,6.079 C5.556,6.079 5.565,6.079 5.575,6.079 C5.575,6.076 5.575,6.073 5.575,6.070 C5.581,6.070 5.587,6.070 5.593,6.070 C5.593,6.067 5.593,6.064 5.593,6.061 C5.603,6.061 5.612,6.061 5.622,6.061 C5.622,6.058 5.622,6.054 5.622,6.051 C5.640,6.045 5.659,6.039 5.678,6.033 C5.678,6.030 5.678,6.027 5.678,6.024 C5.691,6.021 5.703,6.018 5.716,6.015 C6.081,5.793 6.294,5.435 6.449,5.010 C6.449,4.998 6.449,4.985 6.449,4.973 C6.452,4.973 6.456,4.973 6.459,4.973 C6.459,4.964 6.459,4.955 6.459,4.946 C6.462,4.946 6.465,4.946 6.468,4.946 C6.468,4.934 6.468,4.921 6.468,4.909 C6.471,4.909 6.474,4.909 6.478,4.909 C6.478,4.897 6.478,4.885 6.478,4.873 C6.481,4.873 6.484,4.873 6.487,4.873 C6.487,4.860 6.487,4.848 6.487,4.836 C6.490,4.836 6.493,4.836 6.496,4.836 C6.496,4.824 6.496,4.812 6.496,4.800 C6.500,4.800 6.503,4.800 6.506,4.800 C6.509,4.769 6.512,4.739 6.515,4.708 C6.518,4.708 6.521,4.708 6.525,4.708 C6.528,4.669 6.531,4.629 6.534,4.589 C6.567,4.477 6.562,4.330 6.562,4.187 C6.562,4.122 6.567,4.037 6.553,3.986 C6.553,3.953 6.553,3.919 6.553,3.886 C6.550,3.886 6.547,3.886 6.543,3.886 C6.543,3.861 6.543,3.837 6.543,3.813 C6.540,3.813 6.537,3.813 6.534,3.813 C6.534,3.791 6.534,3.770 6.534,3.749 C6.531,3.749 6.528,3.749 6.525,3.749 C6.525,3.730 6.525,3.712 6.525,3.694 C6.521,3.694 6.518,3.694 6.515,3.694 C6.515,3.679 6.515,3.663 6.515,3.648 C6.512,3.648 6.509,3.648 6.506,3.648 C6.506,3.633 6.506,3.618 6.506,3.602 C6.503,3.602 6.500,3.602 6.496,3.602 C6.496,3.587 6.496,3.572 6.496,3.557 C6.452,3.411 6.409,3.264 6.365,3.118 C6.362,3.118 6.358,3.118 6.355,3.118 C6.355,3.112 6.355,3.106 6.355,3.100 C6.352,3.100 6.349,3.100 6.346,3.100 C6.340,3.072 6.333,3.045 6.327,3.018 C6.324,3.018 6.321,3.018 6.318,3.018 C6.318,3.011 6.318,3.005 6.318,2.999 C6.315,2.999 6.311,2.999 6.308,2.999 C6.305,2.981 6.302,2.963 6.299,2.944 C6.296,2.944 6.293,2.944 6.289,2.944 C6.289,2.938 6.289,2.932 6.289,2.926 C6.286,2.926 6.283,2.926 6.280,2.926 C6.280,2.917 6.280,2.908 6.280,2.899 C6.277,2.899 6.274,2.899 6.271,2.899 C6.267,2.887 6.264,2.874 6.261,2.862 C6.258,2.862 6.255,2.862 6.252,2.862 C6.252,2.853 6.252,2.844 6.252,2.835 C6.249,2.835 6.246,2.835 6.242,2.835 C6.239,2.823 6.236,2.810 6.233,2.798 C6.230,2.798 6.227,2.798 6.224,2.798 C6.224,2.789 6.224,2.780 6.224,2.771 C6.220,2.771 6.217,2.771 6.214,2.771 C6.208,2.753 6.202,2.734 6.195,2.716 C6.192,2.716 6.189,2.716 6.186,2.716 C6.186,2.710 6.186,2.704 6.186,2.698 C6.183,2.698 6.180,2.698 6.177,2.698 C6.177,2.692 6.177,2.686 6.177,2.679 C6.173,2.679 6.170,2.679 6.167,2.679 C6.167,2.673 6.167,2.667 6.167,2.661 C6.164,2.661 6.161,2.661 6.158,2.661 C6.158,2.655 6.158,2.649 6.158,2.643 C6.155,2.643 6.151,2.643 6.148,2.643 C6.148,2.637 6.148,2.631 6.148,2.625 C6.145,2.625 6.142,2.625 6.139,2.625 C6.139,2.619 6.139,2.612 6.139,2.606 C6.136,2.606 6.133,2.606 6.130,2.606 C6.130,2.600 6.130,2.594 6.130,2.588 C6.123,2.585 6.117,2.582 6.111,2.579 C6.104,2.561 6.098,2.542 6.092,2.524 C6.086,2.521 6.079,2.518 6.073,2.515 C6.070,2.503 6.067,2.491 6.064,2.478 C6.057,2.475 6.051,2.472 6.045,2.469 C6.045,2.463 6.045,2.457 6.045,2.451 C6.039,2.448 6.032,2.445 6.026,2.442 C6.026,2.436 6.026,2.430 6.026,2.424 C6.020,2.421 6.014,2.418 6.007,2.414 C6.007,2.408 6.007,2.402 6.007,2.396 C6.001,2.393 5.995,2.390 5.988,2.387 C5.988,2.381 5.988,2.375 5.988,2.369 C5.982,2.366 5.976,2.363 5.970,2.360 C5.970,2.354 5.970,2.347 5.970,2.341 C5.963,2.338 5.957,2.335 5.951,2.332 C5.948,2.323 5.945,2.314 5.941,2.305 C5.929,2.296 5.916,2.287 5.904,2.277 C5.904,2.271 5.904,2.265 5.904,2.259 C5.879,2.238 5.854,2.216 5.829,2.195 C5.829,2.189 5.829,2.183 5.829,2.177 C5.822,2.174 5.816,2.171 5.810,2.168 C5.800,2.156 5.791,2.143 5.782,2.131 C5.772,2.128 5.763,2.125 5.753,2.122 C5.738,2.104 5.722,2.085 5.706,2.067 C5.700,2.067 5.694,2.067 5.687,2.067 C5.678,2.055 5.669,2.043 5.659,2.031 C5.650,2.028 5.640,2.025 5.631,2.022 C5.628,2.015 5.625,2.009 5.622,2.003 C5.615,2.003 5.609,2.003 5.603,2.003 C5.600,1.997 5.597,1.991 5.593,1.985 C5.587,1.985 5.581,1.985 5.575,1.985 C5.571,1.979 5.568,1.973 5.565,1.967 C5.553,1.964 5.540,1.961 5.528,1.958 C5.524,1.951 5.521,1.945 5.518,1.939 C5.499,1.933 5.481,1.927 5.462,1.921 C5.462,1.918 5.462,1.915 5.462,1.912 C5.455,1.912 5.449,1.912 5.443,1.912 C5.443,1.909 5.443,1.906 5.443,1.903 C5.424,1.897 5.405,1.891 5.386,1.884 C5.386,1.881 5.386,1.878 5.386,1.875 C5.377,1.875 5.368,1.875 5.358,1.875 C5.358,1.872 5.358,1.869 5.358,1.866 C5.352,1.866 5.346,1.866 5.339,1.866 C5.339,1.863 5.339,1.860 5.339,1.857 C5.321,1.854 5.302,1.851 5.283,1.848 C5.058,1.754 4.779,1.749 4.455,1.747 ZM14.905,4.242 C15.181,4.242 15.457,4.242 15.733,4.242 C15.733,4.976 15.733,5.710 15.733,6.444 C16.489,6.444 17.244,6.444 18.000,6.444 C18.000,6.712 18.000,6.981 18.000,7.249 C17.244,7.249 16.489,7.249 15.733,7.249 C15.733,7.983 15.733,8.717 15.733,9.451 C15.457,9.451 15.181,9.451 14.905,9.451 C14.905,8.717 14.905,7.983 14.905,7.249 C14.150,7.249 13.394,7.249 12.639,7.249 C12.639,6.981 12.639,6.712 12.639,6.444 C13.394,6.444 14.150,6.444 14.905,6.444 C14.905,5.710 14.905,4.976 14.905,4.242 ZM5.085,10.310 C5.054,10.335 4.981,10.306 4.935,10.319 C4.935,10.322 4.935,10.325 4.935,10.328 C4.900,10.328 4.866,10.328 4.831,10.328 C4.773,10.344 4.690,10.348 4.634,10.365 C4.615,10.365 4.596,10.365 4.578,10.365 C4.578,10.368 4.578,10.371 4.578,10.374 C4.562,10.374 4.546,10.374 4.530,10.374 C4.530,10.377 4.530,10.380 4.530,10.383 C4.502,10.386 4.474,10.389 4.446,10.392 C4.446,10.395 4.446,10.398 4.446,10.401 C4.433,10.401 4.421,10.401 4.408,10.401 C4.408,10.404 4.408,10.407 4.408,10.410 C4.396,10.410 4.383,10.410 4.371,10.410 C4.371,10.413 4.371,10.416 4.371,10.419 C4.346,10.423 4.320,10.426 4.295,10.429 C4.295,10.432 4.295,10.435 4.295,10.438 C4.264,10.444 4.233,10.450 4.201,10.456 C4.201,10.459 4.201,10.462 4.201,10.465 C4.192,10.465 4.182,10.465 4.173,10.465 C4.173,10.468 4.173,10.471 4.173,10.474 C4.164,10.474 4.154,10.474 4.145,10.474 C4.145,10.477 4.145,10.480 4.145,10.483 C4.135,10.483 4.126,10.483 4.117,10.483 C4.117,10.486 4.117,10.490 4.117,10.493 C4.098,10.496 4.079,10.499 4.060,10.502 C4.060,10.505 4.060,10.508 4.060,10.511 C4.054,10.511 4.048,10.511 4.041,10.511 C4.041,10.514 4.041,10.517 4.041,10.520 C4.032,10.520 4.023,10.520 4.013,10.520 C4.013,10.523 4.013,10.526 4.013,10.529 C4.007,10.529 4.001,10.529 3.994,10.529 C3.994,10.532 3.994,10.535 3.994,10.538 C3.985,10.538 3.976,10.538 3.966,10.538 C3.966,10.541 3.966,10.544 3.966,10.547 C3.960,10.547 3.954,10.547 3.947,10.547 C3.947,10.550 3.947,10.553 3.947,10.557 C3.938,10.557 3.929,10.557 3.919,10.557 C3.919,10.560 3.919,10.563 3.919,10.566 C3.913,10.566 3.907,10.566 3.900,10.566 C3.900,10.569 3.900,10.572 3.900,10.575 C3.891,10.575 3.881,10.575 3.872,10.575 C3.872,10.578 3.872,10.581 3.872,10.584 C3.853,10.590 3.834,10.596 3.816,10.602 C3.816,10.605 3.816,10.608 3.816,10.611 C3.809,10.611 3.803,10.611 3.797,10.611 C3.797,10.614 3.797,10.617 3.797,10.621 C3.791,10.621 3.784,10.621 3.778,10.621 C3.778,10.624 3.778,10.627 3.778,10.630 C3.772,10.630 3.765,10.630 3.759,10.630 C3.759,10.633 3.759,10.636 3.759,10.639 C3.753,10.639 3.747,10.639 3.740,10.639 C3.740,10.642 3.740,10.645 3.740,10.648 C3.734,10.648 3.728,10.648 3.722,10.648 C3.722,10.651 3.722,10.654 3.722,10.657 C3.715,10.657 3.709,10.657 3.703,10.657 C3.703,10.660 3.703,10.663 3.703,10.666 C3.696,10.666 3.690,10.666 3.684,10.666 C3.684,10.669 3.684,10.672 3.684,10.675 C3.678,10.675 3.671,10.675 3.665,10.675 C3.665,10.678 3.665,10.681 3.665,10.684 C3.659,10.684 3.653,10.684 3.646,10.684 C3.646,10.688 3.646,10.691 3.646,10.694 C3.640,10.694 3.634,10.694 3.628,10.694 C3.628,10.697 3.628,10.700 3.628,10.703 C3.621,10.703 3.615,10.703 3.609,10.703 C3.606,10.709 3.602,10.715 3.599,10.721 C3.587,10.724 3.574,10.727 3.562,10.730 C3.559,10.736 3.555,10.742 3.552,10.748 C3.540,10.751 3.527,10.755 3.515,10.758 C3.515,10.761 3.515,10.764 3.515,10.767 C3.505,10.770 3.496,10.773 3.486,10.776 C3.483,10.782 3.480,10.788 3.477,10.794 C3.464,10.797 3.452,10.800 3.439,10.803 C3.436,10.809 3.433,10.815 3.430,10.822 C3.424,10.822 3.417,10.822 3.411,10.822 C3.405,10.831 3.399,10.840 3.392,10.849 C3.386,10.849 3.380,10.849 3.374,10.849 C3.370,10.855 3.367,10.861 3.364,10.867 C3.358,10.867 3.352,10.867 3.345,10.867 C3.339,10.876 3.333,10.886 3.327,10.895 C3.320,10.895 3.314,10.895 3.308,10.895 C3.301,10.904 3.295,10.913 3.289,10.922 C3.283,10.922 3.276,10.922 3.270,10.922 C3.261,10.934 3.251,10.946 3.242,10.959 C3.236,10.959 3.229,10.959 3.223,10.959 C3.214,10.971 3.204,10.983 3.195,10.995 C3.185,10.998 3.176,11.001 3.167,11.004 C3.138,11.035 3.110,11.065 3.082,11.096 C3.076,11.096 3.069,11.096 3.063,11.096 C3.051,11.111 3.038,11.126 3.026,11.141 C3.019,11.144 3.013,11.147 3.007,11.151 C3.007,11.157 3.007,11.163 3.007,11.169 C2.978,11.193 2.950,11.218 2.922,11.242 C2.922,11.248 2.922,11.254 2.922,11.260 C2.906,11.272 2.891,11.285 2.875,11.297 C2.875,11.303 2.875,11.309 2.875,11.315 C2.869,11.318 2.862,11.321 2.856,11.324 C2.856,11.327 2.856,11.330 2.856,11.333 C2.850,11.336 2.844,11.339 2.837,11.342 C2.837,11.349 2.837,11.355 2.837,11.361 C2.831,11.364 2.825,11.367 2.819,11.370 C2.819,11.376 2.819,11.382 2.819,11.388 C2.809,11.394 2.800,11.400 2.790,11.406 C2.790,11.412 2.790,11.419 2.790,11.425 C2.784,11.428 2.778,11.431 2.772,11.434 C2.768,11.443 2.765,11.452 2.762,11.461 C2.759,11.461 2.756,11.461 2.753,11.461 C2.750,11.473 2.746,11.486 2.743,11.498 C2.737,11.501 2.731,11.504 2.725,11.507 C2.721,11.519 2.718,11.531 2.715,11.543 C2.709,11.546 2.703,11.550 2.696,11.553 C2.696,11.559 2.696,11.565 2.696,11.571 C2.693,11.571 2.690,11.571 2.687,11.571 C2.687,11.577 2.687,11.583 2.687,11.589 C2.684,11.589 2.681,11.589 2.677,11.589 C2.677,11.595 2.677,11.601 2.677,11.607 C2.674,11.607 2.671,11.607 2.668,11.607 C2.668,11.614 2.668,11.620 2.668,11.626 C2.665,11.626 2.662,11.626 2.659,11.626 C2.659,11.632 2.659,11.638 2.659,11.644 C2.656,11.644 2.652,11.644 2.649,11.644 C2.649,11.650 2.649,11.656 2.649,11.662 C2.646,11.662 2.643,11.662 2.640,11.662 C2.634,11.681 2.627,11.699 2.621,11.717 C2.618,11.717 2.615,11.717 2.612,11.717 C2.612,11.726 2.612,11.735 2.612,11.744 C2.609,11.744 2.605,11.744 2.602,11.744 C2.602,11.751 2.602,11.757 2.602,11.763 C2.599,11.763 2.596,11.763 2.593,11.763 C2.590,11.778 2.587,11.793 2.583,11.808 C2.580,11.808 2.577,11.808 2.574,11.808 C2.552,11.888 2.530,11.967 2.508,12.046 C2.508,12.064 2.508,12.083 2.508,12.101 C2.461,12.259 2.491,12.528 2.536,12.658 C2.536,12.670 2.536,12.683 2.536,12.695 C2.540,12.695 2.543,12.695 2.546,12.695 C2.546,12.704 2.546,12.713 2.546,12.722 C2.549,12.722 2.552,12.722 2.555,12.722 C2.555,12.731 2.555,12.741 2.555,12.750 C2.558,12.750 2.561,12.750 2.565,12.750 C2.565,12.759 2.565,12.768 2.565,12.777 C2.568,12.777 2.571,12.777 2.574,12.777 C2.574,12.786 2.574,12.795 2.574,12.805 C2.577,12.805 2.580,12.805 2.583,12.805 C2.583,12.811 2.583,12.817 2.583,12.823 C2.587,12.823 2.590,12.823 2.593,12.823 C2.593,12.832 2.593,12.841 2.593,12.850 C2.596,12.850 2.599,12.850 2.602,12.850 C2.609,12.868 2.615,12.887 2.621,12.905 C2.624,12.905 2.627,12.905 2.630,12.905 C2.630,12.911 2.630,12.917 2.630,12.923 C2.634,12.923 2.637,12.923 2.640,12.923 C2.646,12.942 2.652,12.960 2.659,12.978 C2.665,12.981 2.671,12.984 2.677,12.987 C2.681,12.999 2.684,13.012 2.687,13.024 C2.693,13.027 2.699,13.030 2.706,13.033 C2.706,13.039 2.706,13.045 2.706,13.051 C2.712,13.054 2.718,13.057 2.725,13.060 C2.725,13.066 2.725,13.073 2.725,13.079 C2.731,13.082 2.737,13.085 2.743,13.088 C2.743,13.094 2.743,13.100 2.743,13.106 C2.750,13.109 2.756,13.112 2.762,13.115 C2.765,13.124 2.768,13.133 2.772,13.143 C2.784,13.152 2.797,13.161 2.809,13.170 C2.809,13.176 2.809,13.182 2.809,13.188 C2.831,13.207 2.853,13.225 2.875,13.243 C2.875,13.249 2.875,13.255 2.875,13.261 C2.881,13.264 2.888,13.268 2.894,13.271 C2.906,13.286 2.919,13.301 2.931,13.316 C2.938,13.316 2.944,13.316 2.950,13.316 C2.972,13.341 2.994,13.365 3.016,13.389 C3.022,13.389 3.029,13.389 3.035,13.389 C3.044,13.402 3.054,13.414 3.063,13.426 C3.073,13.429 3.082,13.432 3.091,13.435 C3.095,13.441 3.098,13.447 3.101,13.453 C3.107,13.453 3.113,13.453 3.120,13.453 C3.126,13.462 3.132,13.472 3.138,13.481 C3.145,13.481 3.151,13.481 3.157,13.481 C3.160,13.487 3.163,13.493 3.167,13.499 C3.176,13.502 3.185,13.505 3.195,13.508 C3.195,13.511 3.195,13.514 3.195,13.517 C3.201,13.517 3.207,13.517 3.214,13.517 C3.217,13.523 3.220,13.529 3.223,13.536 C3.232,13.539 3.242,13.542 3.251,13.545 C3.251,13.548 3.251,13.551 3.251,13.554 C3.264,13.557 3.276,13.560 3.289,13.563 C3.289,13.566 3.289,13.569 3.289,13.572 C3.295,13.572 3.301,13.572 3.308,13.572 C3.311,13.578 3.314,13.584 3.317,13.590 C3.323,13.590 3.330,13.590 3.336,13.590 C3.336,13.593 3.336,13.596 3.336,13.600 C3.342,13.600 3.348,13.600 3.355,13.600 C3.355,13.603 3.355,13.606 3.355,13.609 C3.361,13.609 3.367,13.609 3.374,13.609 C3.374,13.612 3.374,13.615 3.374,13.618 C3.380,13.618 3.386,13.618 3.392,13.618 C3.392,13.621 3.392,13.624 3.392,13.627 C3.399,13.627 3.405,13.627 3.411,13.627 C3.411,13.630 3.411,13.633 3.411,13.636 C3.417,13.636 3.424,13.636 3.430,13.636 C3.430,13.639 3.430,13.642 3.430,13.645 C3.436,13.645 3.443,13.645 3.449,13.645 C3.449,13.648 3.449,13.651 3.449,13.654 C3.455,13.654 3.461,13.654 3.468,13.654 C3.468,13.657 3.468,13.660 3.468,13.663 C3.486,13.670 3.505,13.676 3.524,13.682 C3.524,13.685 3.524,13.688 3.524,13.691 C3.533,13.691 3.543,13.691 3.552,13.691 C3.552,13.694 3.552,13.697 3.552,13.700 C3.565,13.703 3.577,13.706 3.590,13.709 C3.590,13.712 3.590,13.715 3.590,13.718 C3.599,13.718 3.609,13.718 3.618,13.718 C3.618,13.721 3.618,13.724 3.618,13.727 C3.624,13.727 3.631,13.727 3.637,13.727 C3.637,13.731 3.637,13.734 3.637,13.737 C3.665,13.743 3.693,13.749 3.722,13.755 C3.722,13.758 3.722,13.761 3.722,13.764 C3.728,13.764 3.734,13.764 3.740,13.764 C3.740,13.767 3.740,13.770 3.740,13.773 C3.772,13.779 3.803,13.785 3.834,13.791 C3.834,13.794 3.834,13.798 3.834,13.801 C3.844,13.801 3.853,13.801 3.863,13.801 C3.863,13.804 3.863,13.807 3.863,13.810 C3.885,13.813 3.907,13.816 3.929,13.819 C3.929,13.822 3.929,13.825 3.929,13.828 C3.941,13.828 3.954,13.828 3.966,13.828 C3.966,13.831 3.966,13.834 3.966,13.837 C3.991,13.840 4.016,13.843 4.041,13.846 C4.041,13.849 4.041,13.852 4.041,13.855 C4.057,13.855 4.073,13.855 4.088,13.855 C4.149,13.873 4.233,13.883 4.295,13.901 C4.377,13.907 4.458,13.913 4.540,13.919 C4.540,13.922 4.540,13.925 4.540,13.929 C4.590,13.929 4.640,13.929 4.690,13.929 C4.766,13.949 4.992,13.949 5.067,13.929 C5.120,13.929 5.173,13.929 5.227,13.929 C5.227,13.925 5.227,13.922 5.227,13.919 C5.261,13.919 5.296,13.919 5.330,13.919 C5.330,13.916 5.330,13.913 5.330,13.910 C5.358,13.910 5.386,13.910 5.415,13.910 C5.415,13.907 5.415,13.904 5.415,13.901 C5.459,13.898 5.502,13.895 5.546,13.892 C5.546,13.889 5.546,13.886 5.546,13.883 C5.565,13.883 5.584,13.883 5.603,13.883 C5.603,13.880 5.603,13.877 5.603,13.874 C5.622,13.874 5.640,13.874 5.659,13.874 C5.659,13.871 5.659,13.868 5.659,13.865 C5.675,13.865 5.691,13.865 5.706,13.865 C5.706,13.861 5.706,13.858 5.706,13.855 C5.738,13.852 5.769,13.849 5.800,13.846 C5.800,13.843 5.800,13.840 5.800,13.837 C5.813,13.837 5.825,13.837 5.838,13.837 C5.838,13.834 5.838,13.831 5.838,13.828 C5.850,13.828 5.863,13.828 5.876,13.828 C5.876,13.825 5.876,13.822 5.876,13.819 C5.888,13.819 5.901,13.819 5.913,13.819 C5.913,13.816 5.913,13.813 5.913,13.810 C5.926,13.810 5.938,13.810 5.951,13.810 C5.951,13.807 5.951,13.804 5.951,13.801 C5.960,13.801 5.970,13.801 5.979,13.801 C5.979,13.798 5.979,13.794 5.979,13.791 C5.992,13.791 6.004,13.791 6.017,13.791 C6.017,13.788 6.017,13.785 6.017,13.782 C6.026,13.782 6.035,13.782 6.045,13.782 C6.045,13.779 6.045,13.776 6.045,13.773 C6.054,13.773 6.064,13.773 6.073,13.773 C6.073,13.770 6.073,13.767 6.073,13.764 C6.082,13.764 6.092,13.764 6.101,13.764 C6.101,13.761 6.101,13.758 6.101,13.755 C6.111,13.755 6.120,13.755 6.130,13.755 C6.130,13.752 6.130,13.749 6.130,13.746 C6.139,13.746 6.148,13.746 6.158,13.746 C6.158,13.743 6.158,13.740 6.158,13.737 C6.177,13.734 6.195,13.731 6.214,13.727 C6.214,13.724 6.214,13.721 6.214,13.718 C6.220,13.718 6.227,13.718 6.233,13.718 C6.233,13.715 6.233,13.712 6.233,13.709 C6.242,13.709 6.252,13.709 6.261,13.709 C6.261,13.706 6.261,13.703 6.261,13.700 C6.267,13.700 6.274,13.700 6.280,13.700 C6.280,13.697 6.280,13.694 6.280,13.691 C6.289,13.691 6.299,13.691 6.308,13.691 C6.308,13.688 6.308,13.685 6.308,13.682 C6.321,13.679 6.333,13.676 6.346,13.673 C6.346,13.670 6.346,13.667 6.346,13.663 C6.355,13.663 6.365,13.663 6.374,13.663 C6.374,13.660 6.374,13.657 6.374,13.654 C6.393,13.648 6.412,13.642 6.431,13.636 C6.431,13.633 6.431,13.630 6.431,13.627 C6.437,13.627 6.443,13.627 6.449,13.627 C6.449,13.624 6.449,13.621 6.449,13.618 C6.456,13.618 6.462,13.618 6.468,13.618 C6.468,13.615 6.468,13.612 6.468,13.609 C6.474,13.609 6.481,13.609 6.487,13.609 C6.487,13.606 6.487,13.603 6.487,13.600 C6.493,13.600 6.500,13.600 6.506,13.600 C6.506,13.596 6.506,13.593 6.506,13.590 C6.512,13.590 6.518,13.590 6.525,13.590 C6.525,13.587 6.525,13.584 6.525,13.581 C6.531,13.581 6.537,13.581 6.543,13.581 C6.543,13.578 6.543,13.575 6.543,13.572 C6.550,13.572 6.556,13.572 6.562,13.572 C6.562,13.569 6.562,13.566 6.562,13.563 C6.568,13.563 6.575,13.563 6.581,13.563 C6.581,13.560 6.581,13.557 6.581,13.554 C6.587,13.554 6.594,13.554 6.600,13.554 C6.603,13.548 6.606,13.542 6.609,13.536 C6.622,13.533 6.634,13.529 6.647,13.526 C6.650,13.520 6.653,13.514 6.656,13.508 C6.669,13.505 6.681,13.502 6.694,13.499 C6.694,13.496 6.694,13.493 6.694,13.490 C6.703,13.487 6.713,13.484 6.722,13.481 C6.725,13.475 6.728,13.469 6.732,13.462 C6.738,13.462 6.744,13.462 6.750,13.462 C6.750,13.459 6.750,13.456 6.750,13.453 C6.760,13.450 6.769,13.447 6.779,13.444 C6.782,13.438 6.785,13.432 6.788,13.426 C6.794,13.426 6.800,13.426 6.807,13.426 C6.813,13.417 6.819,13.408 6.826,13.398 C6.832,13.398 6.838,13.398 6.844,13.398 C6.851,13.389 6.857,13.380 6.863,13.371 C6.869,13.371 6.876,13.371 6.882,13.371 C6.895,13.356 6.907,13.341 6.920,13.325 C6.926,13.325 6.932,13.325 6.938,13.325 C6.964,13.298 6.989,13.271 7.014,13.243 C7.020,13.243 7.026,13.243 7.033,13.243 C7.036,13.237 7.039,13.231 7.042,13.225 C7.051,13.219 7.061,13.213 7.070,13.207 C7.070,13.200 7.070,13.194 7.070,13.188 C7.098,13.164 7.127,13.140 7.155,13.115 C7.158,13.106 7.161,13.097 7.164,13.088 C7.174,13.082 7.183,13.076 7.192,13.070 C7.192,13.063 7.192,13.057 7.192,13.051 C7.202,13.045 7.211,13.039 7.221,13.033 C7.221,13.027 7.221,13.021 7.221,13.015 C7.227,13.012 7.233,13.009 7.239,13.006 C7.243,12.996 7.246,12.987 7.249,12.978 C7.252,12.978 7.255,12.978 7.258,12.978 C7.258,12.972 7.258,12.966 7.258,12.960 C7.265,12.957 7.271,12.954 7.277,12.951 C7.277,12.945 7.277,12.939 7.277,12.932 C7.283,12.929 7.290,12.926 7.296,12.923 C7.299,12.911 7.302,12.899 7.305,12.887 C7.312,12.884 7.318,12.881 7.324,12.878 C7.330,12.859 7.337,12.841 7.343,12.823 C7.346,12.823 7.349,12.823 7.352,12.823 C7.352,12.817 7.352,12.811 7.352,12.805 C7.355,12.805 7.359,12.805 7.362,12.805 C7.362,12.798 7.362,12.792 7.362,12.786 C7.365,12.786 7.368,12.786 7.371,12.786 C7.377,12.768 7.384,12.750 7.390,12.731 C7.393,12.731 7.396,12.731 7.399,12.731 C7.399,12.722 7.399,12.713 7.399,12.704 C7.402,12.704 7.406,12.704 7.409,12.704 C7.409,12.698 7.409,12.692 7.409,12.686 C7.412,12.686 7.415,12.686 7.418,12.686 C7.424,12.658 7.431,12.631 7.437,12.603 C7.558,12.304 7.534,11.866 7.418,11.580 C7.415,11.562 7.412,11.543 7.409,11.525 C7.406,11.525 7.402,11.525 7.399,11.525 C7.399,11.519 7.399,11.513 7.399,11.507 C7.396,11.507 7.393,11.507 7.390,11.507 C7.390,11.498 7.390,11.489 7.390,11.479 C7.387,11.479 7.384,11.479 7.381,11.479 C7.374,11.461 7.368,11.443 7.362,11.425 C7.359,11.425 7.355,11.425 7.352,11.425 C7.352,11.419 7.352,11.412 7.352,11.406 C7.349,11.406 7.346,11.406 7.343,11.406 C7.343,11.400 7.343,11.394 7.343,11.388 C7.340,11.388 7.337,11.388 7.334,11.388 C7.334,11.382 7.334,11.376 7.334,11.370 C7.330,11.370 7.327,11.370 7.324,11.370 C7.324,11.364 7.324,11.358 7.324,11.352 C7.321,11.352 7.318,11.352 7.315,11.352 C7.315,11.345 7.315,11.339 7.315,11.333 C7.312,11.333 7.308,11.333 7.305,11.333 C7.305,11.327 7.305,11.321 7.305,11.315 C7.302,11.315 7.299,11.315 7.296,11.315 C7.296,11.309 7.296,11.303 7.296,11.297 C7.290,11.294 7.283,11.291 7.277,11.288 C7.274,11.275 7.271,11.263 7.268,11.251 C7.265,11.251 7.261,11.251 7.258,11.251 C7.255,11.242 7.252,11.233 7.249,11.224 C7.243,11.221 7.236,11.218 7.230,11.214 C7.230,11.208 7.230,11.202 7.230,11.196 C7.224,11.193 7.217,11.190 7.211,11.187 C7.211,11.181 7.211,11.175 7.211,11.169 C7.202,11.163 7.192,11.157 7.183,11.151 C7.183,11.144 7.183,11.138 7.183,11.132 C7.174,11.126 7.164,11.120 7.155,11.114 C7.155,11.108 7.155,11.102 7.155,11.096 C7.142,11.087 7.130,11.077 7.117,11.068 C7.117,11.062 7.117,11.056 7.117,11.050 C7.086,11.023 7.054,10.995 7.023,10.968 C6.985,10.928 6.948,10.889 6.910,10.849 C6.904,10.849 6.898,10.849 6.891,10.849 C6.879,10.834 6.866,10.818 6.854,10.803 C6.848,10.803 6.841,10.803 6.835,10.803 C6.829,10.794 6.822,10.785 6.816,10.776 C6.807,10.773 6.797,10.770 6.788,10.767 C6.785,10.761 6.782,10.755 6.779,10.748 C6.772,10.748 6.766,10.748 6.760,10.748 C6.757,10.742 6.753,10.736 6.750,10.730 C6.741,10.727 6.732,10.724 6.722,10.721 C6.722,10.718 6.722,10.715 6.722,10.712 C6.716,10.712 6.710,10.712 6.703,10.712 C6.700,10.706 6.697,10.700 6.694,10.694 C6.684,10.691 6.675,10.688 6.666,10.684 C6.666,10.681 6.666,10.678 6.666,10.675 C6.653,10.672 6.641,10.669 6.628,10.666 C6.625,10.660 6.622,10.654 6.619,10.648 C6.606,10.645 6.594,10.642 6.581,10.639 C6.578,10.633 6.575,10.627 6.572,10.621 C6.565,10.621 6.559,10.621 6.553,10.621 C6.553,10.617 6.553,10.614 6.553,10.611 C6.547,10.611 6.540,10.611 6.534,10.611 C6.534,10.608 6.534,10.605 6.534,10.602 C6.528,10.602 6.521,10.602 6.515,10.602 C6.515,10.599 6.515,10.596 6.515,10.593 C6.509,10.593 6.503,10.593 6.496,10.593 C6.496,10.590 6.496,10.587 6.496,10.584 C6.490,10.584 6.484,10.584 6.478,10.584 C6.478,10.581 6.478,10.578 6.478,10.575 C6.471,10.575 6.465,10.575 6.459,10.575 C6.459,10.572 6.459,10.569 6.459,10.566 C6.440,10.560 6.421,10.553 6.402,10.547 C6.402,10.544 6.402,10.541 6.402,10.538 C6.387,10.535 6.371,10.532 6.355,10.529 C6.355,10.526 6.355,10.523 6.355,10.520 C6.349,10.520 6.343,10.520 6.336,10.520 C6.336,10.517 6.336,10.514 6.336,10.511 C6.327,10.511 6.318,10.511 6.308,10.511 C6.308,10.508 6.308,10.505 6.308,10.502 C6.302,10.502 6.296,10.502 6.289,10.502 C6.289,10.499 6.289,10.496 6.289,10.493 C6.280,10.493 6.271,10.493 6.261,10.493 C6.261,10.490 6.261,10.486 6.261,10.483 C6.255,10.483 6.249,10.483 6.242,10.483 C6.242,10.480 6.242,10.477 6.242,10.474 C6.214,10.468 6.186,10.462 6.158,10.456 C6.158,10.453 6.158,10.450 6.158,10.447 C6.148,10.447 6.139,10.447 6.130,10.447 C6.130,10.444 6.130,10.441 6.130,10.438 C6.120,10.438 6.111,10.438 6.101,10.438 C6.101,10.435 6.101,10.432 6.101,10.429 C6.092,10.429 6.082,10.429 6.073,10.429 C6.073,10.426 6.073,10.423 6.073,10.419 C6.039,10.413 6.004,10.407 5.970,10.401 C5.970,10.398 5.970,10.395 5.970,10.392 C5.941,10.389 5.913,10.386 5.885,10.383 C5.885,10.380 5.885,10.377 5.885,10.374 C5.869,10.374 5.854,10.374 5.838,10.374 C5.793,10.360 5.724,10.350 5.678,10.337 C5.625,10.334 5.571,10.331 5.518,10.328 C5.518,10.325 5.518,10.322 5.518,10.319 C5.468,10.319 5.418,10.319 5.368,10.319 C5.294,10.299 5.175,10.311 5.085,10.310 Z"/>
</svg>