<svg 
 xmlns="http://www.w3.org/2000/svg"
 xmlns:xlink="http://www.w3.org/1999/xlink"
 width="17px" height="16px">
<path fill-rule="evenodd" fill="rgb(148, 147, 161)"
 d="M1.842,0.006 C1.962,0.004 2.181,-0.012 2.278,0.015 C2.335,0.019 2.392,0.022 2.449,0.025 C2.494,0.038 2.557,0.049 2.601,0.062 C2.616,0.062 2.632,0.062 2.648,0.062 C2.718,0.084 2.800,0.111 2.866,0.137 C2.885,0.140 2.904,0.143 2.923,0.146 C2.923,0.149 2.923,0.152 2.923,0.156 C2.929,0.156 2.936,0.156 2.942,0.156 C2.942,0.159 2.942,0.162 2.942,0.165 C2.952,0.165 2.961,0.165 2.971,0.165 C3.357,0.335 3.637,0.583 3.853,0.922 C3.853,0.928 3.853,0.934 3.853,0.940 C3.856,0.940 3.859,0.940 3.862,0.940 C3.862,0.947 3.862,0.953 3.862,0.959 C3.865,0.959 3.869,0.959 3.872,0.959 C3.872,0.965 3.872,0.971 3.872,0.978 C3.875,0.978 3.878,0.978 3.881,0.978 C3.881,0.984 3.881,0.990 3.881,0.996 C3.884,0.996 3.887,0.996 3.891,0.996 C3.891,1.003 3.891,1.009 3.891,1.015 C3.894,1.015 3.897,1.015 3.900,1.015 C3.900,1.021 3.900,1.028 3.900,1.034 C3.903,1.034 3.906,1.034 3.910,1.034 C3.916,1.052 3.922,1.071 3.929,1.090 C3.932,1.090 3.935,1.090 3.938,1.090 C3.938,1.099 3.938,1.109 3.938,1.118 C3.941,1.118 3.944,1.118 3.948,1.118 C3.951,1.130 3.954,1.143 3.957,1.155 C3.960,1.155 3.963,1.155 3.967,1.155 C3.970,1.174 3.973,1.193 3.976,1.211 C3.979,1.211 3.982,1.211 3.986,1.211 C3.986,1.221 3.986,1.230 3.986,1.239 C3.989,1.239 3.992,1.239 3.995,1.239 C3.995,1.249 3.995,1.258 3.995,1.267 C3.998,1.267 4.001,1.267 4.004,1.267 C4.004,1.277 4.004,1.286 4.004,1.295 C4.008,1.295 4.011,1.295 4.014,1.295 C4.014,1.305 4.014,1.314 4.014,1.323 C4.017,1.323 4.020,1.323 4.023,1.323 C4.023,1.333 4.023,1.342 4.023,1.351 C4.027,1.351 4.030,1.351 4.033,1.351 C4.033,1.364 4.033,1.376 4.033,1.389 C4.036,1.389 4.039,1.389 4.042,1.389 C4.042,1.401 4.042,1.414 4.042,1.426 C4.046,1.426 4.049,1.426 4.052,1.426 C4.052,1.442 4.052,1.457 4.052,1.473 C4.055,1.473 4.058,1.473 4.061,1.473 C4.061,1.488 4.061,1.504 4.061,1.520 C4.065,1.520 4.068,1.520 4.071,1.520 C4.077,1.585 4.084,1.650 4.090,1.716 C4.093,1.716 4.096,1.716 4.099,1.716 C4.099,1.747 4.099,1.778 4.099,1.809 C4.099,1.887 4.108,1.990 4.090,2.052 C4.084,2.117 4.077,2.183 4.071,2.248 C4.068,2.248 4.065,2.248 4.061,2.248 C4.061,2.264 4.061,2.279 4.061,2.295 C4.058,2.295 4.055,2.295 4.052,2.295 C4.052,2.307 4.052,2.320 4.052,2.332 C4.049,2.332 4.046,2.332 4.042,2.332 C4.042,2.345 4.042,2.357 4.042,2.370 C4.039,2.370 4.036,2.370 4.033,2.370 C4.033,2.382 4.033,2.395 4.033,2.407 C4.030,2.407 4.027,2.407 4.023,2.407 C4.023,2.416 4.023,2.426 4.023,2.435 C4.020,2.435 4.017,2.435 4.014,2.435 C4.014,2.444 4.014,2.454 4.014,2.463 C4.011,2.463 4.008,2.463 4.004,2.463 C4.004,2.472 4.004,2.482 4.004,2.491 C4.001,2.491 3.998,2.491 3.995,2.491 C3.995,2.501 3.995,2.510 3.995,2.519 C3.992,2.519 3.989,2.519 3.986,2.519 C3.986,2.529 3.986,2.538 3.986,2.547 C3.982,2.547 3.979,2.547 3.976,2.547 C3.976,2.553 3.976,2.560 3.976,2.566 C3.973,2.566 3.970,2.566 3.967,2.566 C3.967,2.575 3.967,2.585 3.967,2.594 C3.963,2.594 3.960,2.594 3.957,2.594 C3.957,2.600 3.957,2.606 3.957,2.613 C3.954,2.613 3.951,2.613 3.948,2.613 C3.948,2.622 3.948,2.631 3.948,2.641 C3.944,2.641 3.941,2.641 3.938,2.641 C3.932,2.659 3.925,2.678 3.919,2.697 C3.916,2.697 3.913,2.697 3.910,2.697 C3.910,2.703 3.910,2.709 3.910,2.715 C3.906,2.715 3.903,2.715 3.900,2.715 C3.900,2.722 3.900,2.728 3.900,2.734 C3.897,2.734 3.894,2.734 3.891,2.734 C3.891,2.740 3.891,2.747 3.891,2.753 C3.887,2.753 3.884,2.753 3.881,2.753 C3.881,2.759 3.881,2.765 3.881,2.771 C3.878,2.771 3.875,2.771 3.872,2.771 C3.872,2.778 3.872,2.784 3.872,2.790 C3.865,2.793 3.859,2.796 3.853,2.799 C3.850,2.812 3.846,2.824 3.843,2.837 C3.837,2.840 3.831,2.843 3.824,2.846 C3.821,2.859 3.818,2.871 3.815,2.884 C3.812,2.884 3.808,2.884 3.805,2.884 C3.802,2.893 3.799,2.902 3.796,2.912 C3.789,2.915 3.783,2.918 3.777,2.921 C3.777,2.927 3.777,2.933 3.777,2.940 C3.767,2.946 3.758,2.952 3.748,2.958 C3.748,2.964 3.748,2.971 3.748,2.977 C3.742,2.980 3.736,2.983 3.729,2.986 C3.726,2.996 3.723,3.005 3.720,3.014 C3.707,3.024 3.695,3.033 3.682,3.042 C3.682,3.049 3.682,3.055 3.682,3.061 C3.641,3.098 3.600,3.136 3.559,3.173 C3.530,3.204 3.502,3.235 3.473,3.267 C3.467,3.267 3.461,3.267 3.454,3.267 C3.442,3.282 3.429,3.298 3.416,3.313 C3.410,3.313 3.404,3.313 3.397,3.313 C3.391,3.323 3.385,3.332 3.378,3.341 C3.372,3.341 3.366,3.341 3.359,3.341 C3.356,3.348 3.353,3.354 3.350,3.360 C3.344,3.360 3.337,3.360 3.331,3.360 C3.325,3.369 3.318,3.379 3.312,3.388 C3.306,3.388 3.299,3.388 3.293,3.388 C3.290,3.394 3.287,3.400 3.284,3.407 C3.271,3.410 3.258,3.413 3.246,3.416 C3.242,3.422 3.239,3.428 3.236,3.435 C3.223,3.438 3.211,3.441 3.198,3.444 C3.195,3.450 3.192,3.457 3.189,3.463 C3.182,3.463 3.176,3.463 3.170,3.463 C3.170,3.466 3.170,3.469 3.170,3.472 C3.163,3.472 3.157,3.472 3.151,3.472 C3.151,3.475 3.151,3.478 3.151,3.481 C3.144,3.481 3.138,3.481 3.132,3.481 C3.132,3.485 3.132,3.488 3.132,3.491 C3.125,3.491 3.119,3.491 3.113,3.491 C3.113,3.494 3.113,3.497 3.113,3.500 C3.106,3.500 3.100,3.500 3.094,3.500 C3.094,3.503 3.094,3.506 3.094,3.509 C3.088,3.509 3.081,3.509 3.075,3.509 C3.075,3.513 3.075,3.516 3.075,3.519 C3.069,3.519 3.062,3.519 3.056,3.519 C3.056,3.522 3.056,3.525 3.056,3.528 C3.037,3.534 3.018,3.541 2.999,3.547 C2.999,3.550 2.999,3.553 2.999,3.556 C2.990,3.556 2.980,3.556 2.971,3.556 C2.971,3.559 2.971,3.562 2.971,3.566 C2.958,3.569 2.945,3.572 2.933,3.575 C2.933,3.578 2.933,3.581 2.933,3.584 C2.904,3.590 2.876,3.597 2.847,3.603 C2.847,3.606 2.847,3.609 2.847,3.612 C2.838,3.612 2.828,3.612 2.819,3.612 C2.819,3.615 2.819,3.618 2.819,3.622 C2.809,3.622 2.800,3.622 2.790,3.622 C2.790,3.625 2.790,3.628 2.790,3.631 C2.781,3.631 2.771,3.631 2.762,3.631 C2.762,3.634 2.762,3.637 2.762,3.640 C2.752,3.640 2.743,3.640 2.733,3.640 C2.733,3.643 2.733,3.646 2.733,3.650 C2.721,3.650 2.708,3.650 2.695,3.650 C2.695,3.653 2.695,3.656 2.695,3.659 C2.683,3.659 2.670,3.659 2.658,3.659 C2.658,3.662 2.658,3.665 2.658,3.668 C2.645,3.668 2.632,3.668 2.620,3.668 C2.620,3.671 2.620,3.675 2.620,3.678 C2.607,3.678 2.594,3.678 2.582,3.678 C2.582,3.681 2.582,3.684 2.582,3.687 C2.566,3.687 2.550,3.687 2.534,3.687 C2.534,3.690 2.534,3.693 2.534,3.696 C2.518,3.696 2.503,3.696 2.487,3.696 C2.487,3.699 2.487,3.703 2.487,3.706 C2.411,3.712 2.335,3.718 2.259,3.724 C2.193,3.742 2.085,3.734 2.003,3.734 C1.779,3.734 1.582,3.714 1.415,3.659 C1.402,3.659 1.390,3.659 1.377,3.659 C1.377,3.656 1.377,3.653 1.377,3.650 C1.367,3.650 1.358,3.650 1.348,3.650 C1.348,3.646 1.348,3.643 1.348,3.640 C1.339,3.640 1.329,3.640 1.320,3.640 C1.320,3.637 1.320,3.634 1.320,3.631 C1.307,3.631 1.295,3.631 1.282,3.631 C1.282,3.628 1.282,3.625 1.282,3.622 C1.273,3.622 1.263,3.622 1.254,3.622 C1.254,3.618 1.254,3.615 1.254,3.612 C1.247,3.612 1.241,3.612 1.235,3.612 C1.235,3.609 1.235,3.606 1.235,3.603 C1.216,3.600 1.197,3.597 1.178,3.594 C1.178,3.590 1.178,3.587 1.178,3.584 C1.171,3.584 1.165,3.584 1.159,3.584 C1.159,3.581 1.159,3.578 1.159,3.575 C1.149,3.575 1.140,3.575 1.130,3.575 C1.130,3.572 1.130,3.569 1.130,3.566 C1.118,3.562 1.105,3.559 1.092,3.556 C1.092,3.553 1.092,3.550 1.092,3.547 C1.083,3.547 1.073,3.547 1.064,3.547 C1.064,3.544 1.064,3.541 1.064,3.537 C1.045,3.531 1.026,3.525 1.007,3.519 C1.007,3.516 1.007,3.513 1.007,3.509 C1.001,3.509 0.994,3.509 0.988,3.509 C0.988,3.506 0.988,3.503 0.988,3.500 C0.975,3.497 0.963,3.494 0.950,3.491 C0.947,3.485 0.944,3.478 0.941,3.472 C0.922,3.466 0.903,3.460 0.884,3.453 C0.884,3.450 0.884,3.447 0.884,3.444 C0.874,3.441 0.865,3.438 0.855,3.435 C0.852,3.428 0.849,3.422 0.846,3.416 C0.839,3.416 0.833,3.416 0.827,3.416 C0.824,3.410 0.820,3.404 0.817,3.397 C0.811,3.397 0.805,3.397 0.798,3.397 C0.798,3.394 0.798,3.391 0.798,3.388 C0.789,3.385 0.779,3.382 0.770,3.379 C0.767,3.372 0.764,3.366 0.760,3.360 C0.754,3.360 0.748,3.360 0.741,3.360 C0.735,3.351 0.729,3.341 0.722,3.332 C0.716,3.332 0.710,3.332 0.703,3.332 C0.697,3.323 0.691,3.313 0.684,3.304 C0.675,3.301 0.665,3.298 0.656,3.295 C0.640,3.276 0.624,3.257 0.609,3.239 C0.602,3.239 0.596,3.239 0.590,3.239 C0.564,3.211 0.539,3.182 0.514,3.154 C0.501,3.145 0.488,3.136 0.476,3.126 C0.476,3.120 0.476,3.114 0.476,3.108 C0.454,3.089 0.432,3.070 0.409,3.052 C0.409,3.045 0.409,3.039 0.409,3.033 C0.400,3.027 0.390,3.021 0.381,3.014 C0.381,3.008 0.381,3.002 0.381,2.996 C0.371,2.989 0.362,2.983 0.352,2.977 C0.352,2.971 0.352,2.964 0.352,2.958 C0.343,2.952 0.333,2.946 0.324,2.940 C0.324,2.933 0.324,2.927 0.324,2.921 C0.318,2.918 0.311,2.915 0.305,2.912 C0.305,2.905 0.305,2.899 0.305,2.893 C0.299,2.890 0.292,2.887 0.286,2.884 C0.283,2.871 0.280,2.859 0.277,2.846 C0.270,2.843 0.264,2.840 0.258,2.837 C0.254,2.824 0.251,2.812 0.248,2.799 C0.242,2.796 0.235,2.793 0.229,2.790 C0.223,2.771 0.216,2.753 0.210,2.734 C0.207,2.734 0.204,2.734 0.201,2.734 C0.201,2.728 0.201,2.722 0.201,2.715 C0.198,2.715 0.194,2.715 0.191,2.715 C0.185,2.697 0.179,2.678 0.172,2.659 C0.169,2.659 0.166,2.659 0.163,2.659 C0.160,2.644 0.156,2.628 0.153,2.613 C0.150,2.613 0.147,2.613 0.144,2.613 C0.144,2.606 0.144,2.600 0.144,2.594 C0.141,2.594 0.137,2.594 0.134,2.594 C0.131,2.575 0.128,2.557 0.125,2.538 C0.122,2.538 0.118,2.538 0.115,2.538 C0.115,2.532 0.115,2.525 0.115,2.519 C0.112,2.519 0.109,2.519 0.106,2.519 C0.103,2.501 0.100,2.482 0.096,2.463 C0.093,2.463 0.090,2.463 0.087,2.463 C0.087,2.451 0.087,2.438 0.087,2.426 C0.036,2.283 0.002,2.115 0.001,1.921 C0.001,1.849 -0.005,1.754 0.011,1.697 C0.014,1.647 0.017,1.597 0.020,1.548 C0.024,1.548 0.027,1.548 0.030,1.548 C0.036,1.501 0.043,1.454 0.049,1.407 C0.052,1.407 0.055,1.407 0.058,1.407 C0.058,1.395 0.058,1.383 0.058,1.370 C0.062,1.370 0.065,1.370 0.068,1.370 C0.071,1.348 0.074,1.326 0.077,1.305 C0.081,1.305 0.084,1.305 0.087,1.305 C0.087,1.295 0.087,1.286 0.087,1.277 C0.090,1.277 0.093,1.277 0.096,1.277 C0.096,1.267 0.096,1.258 0.096,1.249 C0.100,1.249 0.103,1.249 0.106,1.249 C0.109,1.230 0.112,1.211 0.115,1.193 C0.118,1.193 0.122,1.193 0.125,1.193 C0.125,1.186 0.125,1.180 0.125,1.174 C0.128,1.174 0.131,1.174 0.134,1.174 C0.134,1.165 0.134,1.155 0.134,1.146 C0.354,0.658 0.697,0.359 1.197,0.146 C1.216,0.143 1.235,0.140 1.254,0.137 C1.254,0.134 1.254,0.131 1.254,0.128 C1.263,0.128 1.273,0.128 1.282,0.128 C1.282,0.124 1.282,0.121 1.282,0.118 C1.292,0.118 1.301,0.118 1.311,0.118 C1.311,0.115 1.311,0.112 1.311,0.109 C1.320,0.109 1.329,0.109 1.339,0.109 C1.339,0.106 1.339,0.103 1.339,0.100 C1.348,0.100 1.358,0.100 1.367,0.100 C1.367,0.096 1.367,0.093 1.367,0.090 C1.380,0.090 1.393,0.090 1.405,0.090 C1.453,0.074 1.517,0.058 1.567,0.043 C1.586,0.043 1.605,0.043 1.624,0.043 C1.624,0.040 1.624,0.037 1.624,0.034 C1.643,0.034 1.661,0.034 1.680,0.034 C1.680,0.031 1.680,0.028 1.680,0.025 C1.703,0.025 1.725,0.025 1.747,0.025 C1.747,0.022 1.747,0.019 1.747,0.015 C1.780,0.006 1.820,0.025 1.842,0.006 ZM17.000,16.000 C15.786,16.000 14.572,16.000 13.357,16.000 C13.357,14.409 13.357,12.817 13.357,11.226 C13.357,10.971 13.357,10.715 13.357,10.460 C13.357,10.348 13.375,10.179 13.348,10.086 C13.348,10.043 13.348,9.999 13.348,9.956 C13.342,9.856 13.335,9.756 13.329,9.657 C13.307,9.523 13.285,9.389 13.263,9.255 C13.231,9.146 13.199,9.037 13.168,8.928 C13.165,8.928 13.161,8.928 13.158,8.928 C13.158,8.922 13.158,8.915 13.158,8.909 C13.155,8.909 13.152,8.909 13.149,8.909 C13.146,8.891 13.142,8.872 13.139,8.853 C13.136,8.853 13.133,8.853 13.130,8.853 C13.130,8.847 13.130,8.841 13.130,8.835 C13.127,8.835 13.123,8.835 13.120,8.835 C13.120,8.825 13.120,8.816 13.120,8.806 C13.117,8.806 13.114,8.806 13.111,8.806 C13.108,8.794 13.105,8.782 13.101,8.769 C13.098,8.769 13.095,8.769 13.092,8.769 C13.092,8.763 13.092,8.757 13.092,8.750 C13.089,8.750 13.086,8.750 13.082,8.750 C13.082,8.741 13.082,8.732 13.082,8.722 C13.079,8.722 13.076,8.722 13.073,8.722 C13.067,8.704 13.060,8.685 13.054,8.666 C13.051,8.666 13.048,8.666 13.044,8.666 C13.041,8.654 13.038,8.641 13.035,8.629 C13.029,8.626 13.022,8.623 13.016,8.620 C13.010,8.601 13.003,8.582 12.997,8.564 C12.991,8.560 12.984,8.557 12.978,8.554 C12.975,8.542 12.972,8.529 12.969,8.517 C12.962,8.514 12.956,8.511 12.950,8.508 C12.950,8.501 12.950,8.495 12.950,8.489 C12.946,8.489 12.943,8.489 12.940,8.489 C12.937,8.480 12.934,8.470 12.931,8.461 C12.924,8.458 12.918,8.455 12.912,8.451 C12.912,8.445 12.912,8.439 12.912,8.433 C12.902,8.427 12.893,8.420 12.883,8.414 C12.883,8.408 12.883,8.402 12.883,8.395 C12.877,8.392 12.871,8.389 12.864,8.386 C12.861,8.377 12.858,8.367 12.855,8.358 C12.839,8.346 12.823,8.333 12.807,8.321 C12.648,8.103 12.386,7.961 12.105,7.863 C12.093,7.863 12.080,7.863 12.067,7.863 C12.067,7.860 12.067,7.857 12.067,7.854 C12.058,7.854 12.048,7.854 12.039,7.854 C12.039,7.850 12.039,7.847 12.039,7.844 C11.950,7.829 11.862,7.813 11.773,7.798 C11.735,7.798 11.697,7.798 11.660,7.798 C11.660,7.794 11.660,7.791 11.660,7.788 C11.609,7.788 11.558,7.788 11.508,7.788 C11.375,7.788 11.241,7.795 11.138,7.826 C11.106,7.829 11.075,7.832 11.043,7.835 C11.043,7.838 11.043,7.841 11.043,7.844 C11.018,7.847 10.992,7.850 10.967,7.854 C10.967,7.857 10.967,7.860 10.967,7.863 C10.958,7.863 10.948,7.863 10.939,7.863 C10.939,7.866 10.939,7.869 10.939,7.872 C10.929,7.872 10.920,7.872 10.910,7.872 C10.910,7.875 10.910,7.879 10.910,7.882 C10.897,7.882 10.885,7.882 10.872,7.882 C10.872,7.885 10.872,7.888 10.872,7.891 C10.866,7.891 10.860,7.891 10.853,7.891 C10.853,7.894 10.853,7.897 10.853,7.900 C10.834,7.903 10.815,7.907 10.796,7.910 C10.796,7.913 10.796,7.916 10.796,7.919 C10.790,7.919 10.784,7.919 10.777,7.919 C10.777,7.922 10.777,7.925 10.777,7.928 C10.768,7.928 10.758,7.928 10.749,7.928 C10.749,7.931 10.749,7.935 10.749,7.938 C10.730,7.944 10.711,7.950 10.692,7.956 C10.692,7.959 10.692,7.963 10.692,7.966 C10.686,7.966 10.679,7.966 10.673,7.966 C10.673,7.969 10.673,7.972 10.673,7.975 C10.657,7.978 10.641,7.981 10.626,7.984 C10.622,7.991 10.619,7.997 10.616,8.003 C10.610,8.003 10.603,8.003 10.597,8.003 C10.597,8.006 10.597,8.009 10.597,8.012 C10.591,8.012 10.584,8.012 10.578,8.012 C10.578,8.016 10.578,8.019 10.578,8.022 C10.572,8.022 10.565,8.022 10.559,8.022 C10.559,8.025 10.559,8.028 10.559,8.031 C10.553,8.031 10.547,8.031 10.540,8.031 C10.537,8.037 10.534,8.044 10.531,8.050 C10.518,8.053 10.505,8.056 10.493,8.059 C10.490,8.065 10.486,8.072 10.483,8.078 C10.477,8.078 10.471,8.078 10.464,8.078 C10.461,8.084 10.458,8.090 10.455,8.096 C10.448,8.096 10.442,8.096 10.436,8.096 C10.433,8.103 10.430,8.109 10.426,8.115 C10.420,8.115 10.414,8.115 10.407,8.115 C10.404,8.121 10.401,8.128 10.398,8.134 C10.392,8.134 10.385,8.134 10.379,8.134 C10.373,8.143 10.366,8.153 10.360,8.162 C10.354,8.162 10.347,8.162 10.341,8.162 C10.331,8.174 10.322,8.187 10.313,8.199 C10.306,8.199 10.300,8.199 10.294,8.199 C10.281,8.215 10.268,8.230 10.256,8.246 C10.249,8.246 10.243,8.246 10.237,8.246 C10.208,8.277 10.180,8.308 10.151,8.339 C10.116,8.371 10.082,8.402 10.047,8.433 C10.047,8.439 10.047,8.445 10.047,8.451 C10.031,8.464 10.015,8.476 9.999,8.489 C9.999,8.495 9.999,8.501 9.999,8.508 C9.987,8.517 9.974,8.526 9.962,8.536 C9.958,8.545 9.955,8.554 9.952,8.564 C9.946,8.567 9.939,8.570 9.933,8.573 C9.933,8.579 9.933,8.585 9.933,8.592 C9.927,8.595 9.920,8.598 9.914,8.601 C9.911,8.610 9.908,8.620 9.905,8.629 C9.901,8.629 9.898,8.629 9.895,8.629 C9.895,8.635 9.895,8.641 9.895,8.648 C9.886,8.654 9.876,8.660 9.867,8.666 C9.864,8.679 9.860,8.691 9.857,8.704 C9.851,8.707 9.845,8.710 9.838,8.713 C9.835,8.722 9.832,8.732 9.829,8.741 C9.826,8.741 9.822,8.741 9.819,8.741 C9.816,8.754 9.813,8.766 9.810,8.778 C9.803,8.782 9.797,8.785 9.791,8.788 C9.791,8.794 9.791,8.800 9.791,8.806 C9.788,8.806 9.784,8.806 9.781,8.806 C9.781,8.813 9.781,8.819 9.781,8.825 C9.778,8.825 9.775,8.825 9.772,8.825 C9.772,8.831 9.772,8.838 9.772,8.844 C9.769,8.844 9.766,8.844 9.762,8.844 C9.762,8.850 9.762,8.856 9.762,8.863 C9.759,8.863 9.756,8.863 9.753,8.863 C9.753,8.869 9.753,8.875 9.753,8.881 C9.747,8.884 9.740,8.887 9.734,8.891 C9.724,8.919 9.715,8.947 9.705,8.975 C9.702,8.975 9.699,8.975 9.696,8.975 C9.696,8.981 9.696,8.987 9.696,8.993 C9.693,8.993 9.690,8.993 9.686,8.993 C9.680,9.012 9.674,9.031 9.667,9.049 C9.664,9.049 9.661,9.049 9.658,9.049 C9.658,9.059 9.658,9.068 9.658,9.077 C9.655,9.077 9.652,9.077 9.649,9.077 C9.649,9.084 9.649,9.090 9.649,9.096 C9.645,9.096 9.642,9.096 9.639,9.096 C9.639,9.105 9.639,9.115 9.639,9.124 C9.636,9.124 9.633,9.124 9.630,9.124 C9.630,9.130 9.630,9.137 9.630,9.143 C9.626,9.143 9.623,9.143 9.620,9.143 C9.617,9.165 9.614,9.186 9.611,9.208 C9.607,9.208 9.604,9.208 9.601,9.208 C9.601,9.218 9.601,9.227 9.601,9.236 C9.598,9.236 9.595,9.236 9.592,9.236 C9.582,9.299 9.573,9.361 9.563,9.423 C9.560,9.423 9.557,9.423 9.554,9.423 C9.554,9.445 9.554,9.467 9.554,9.488 C9.551,9.488 9.547,9.488 9.544,9.488 C9.544,9.517 9.544,9.545 9.544,9.573 C9.541,9.573 9.538,9.573 9.535,9.573 C9.535,9.616 9.535,9.660 9.535,9.703 C9.508,9.796 9.525,9.965 9.525,10.077 C9.525,10.535 9.525,10.993 9.525,11.450 C9.525,12.967 9.525,14.484 9.525,16.000 C8.308,16.000 7.090,16.000 5.873,16.000 C5.876,15.243 5.880,14.486 5.883,13.730 C5.883,13.490 5.883,13.250 5.883,13.010 C5.883,12.900 5.866,12.749 5.892,12.655 C5.892,11.435 5.892,10.214 5.892,8.993 C5.892,7.966 5.892,6.938 5.892,5.910 C5.873,5.843 5.883,5.732 5.883,5.649 C5.880,5.502 5.876,5.356 5.873,5.210 C7.090,5.210 8.308,5.210 9.525,5.210 C9.525,5.714 9.525,6.219 9.525,6.723 C9.528,6.723 9.532,6.723 9.535,6.723 C9.535,6.717 9.535,6.711 9.535,6.704 C9.558,6.689 9.557,6.672 9.573,6.648 C9.579,6.645 9.585,6.642 9.592,6.639 C9.595,6.630 9.598,6.620 9.601,6.611 C9.604,6.611 9.607,6.611 9.611,6.611 C9.611,6.605 9.611,6.599 9.611,6.592 C9.617,6.589 9.623,6.586 9.630,6.583 C9.630,6.577 9.630,6.571 9.630,6.564 C9.636,6.561 9.642,6.558 9.649,6.555 C9.649,6.549 9.649,6.543 9.649,6.536 C9.658,6.530 9.667,6.524 9.677,6.518 C9.677,6.511 9.677,6.505 9.677,6.499 C9.683,6.496 9.690,6.493 9.696,6.490 C9.696,6.483 9.696,6.477 9.696,6.471 C9.705,6.465 9.715,6.458 9.724,6.452 C9.724,6.446 9.724,6.440 9.724,6.434 C9.734,6.427 9.743,6.421 9.753,6.415 C9.753,6.409 9.753,6.402 9.753,6.396 C9.762,6.390 9.772,6.384 9.781,6.378 C9.781,6.371 9.781,6.365 9.781,6.359 C9.791,6.353 9.800,6.346 9.810,6.340 C9.810,6.334 9.810,6.328 9.810,6.321 C9.822,6.312 9.835,6.303 9.848,6.293 C9.848,6.287 9.848,6.281 9.848,6.275 C9.864,6.262 9.879,6.250 9.895,6.237 C9.895,6.231 9.895,6.225 9.895,6.219 C9.911,6.206 9.927,6.194 9.943,6.181 C9.943,6.175 9.943,6.169 9.943,6.163 C9.971,6.138 9.999,6.113 10.028,6.088 C10.028,6.082 10.028,6.075 10.028,6.069 C10.047,6.054 10.066,6.038 10.085,6.023 C10.139,5.966 10.192,5.910 10.246,5.854 C10.252,5.854 10.259,5.854 10.265,5.854 C10.287,5.829 10.309,5.805 10.331,5.780 C10.338,5.780 10.344,5.780 10.350,5.780 C10.363,5.764 10.376,5.748 10.388,5.733 C10.395,5.733 10.401,5.733 10.407,5.733 C10.420,5.717 10.433,5.702 10.445,5.686 C10.452,5.686 10.458,5.686 10.464,5.686 C10.471,5.677 10.477,5.668 10.483,5.658 C10.490,5.658 10.496,5.658 10.502,5.658 C10.509,5.649 10.515,5.639 10.521,5.630 C10.528,5.630 10.534,5.630 10.540,5.630 C10.547,5.621 10.553,5.611 10.559,5.602 C10.565,5.602 10.572,5.602 10.578,5.602 C10.581,5.596 10.584,5.590 10.588,5.583 C10.594,5.583 10.600,5.583 10.607,5.583 C10.613,5.574 10.619,5.565 10.626,5.555 C10.632,5.555 10.638,5.555 10.645,5.555 C10.648,5.549 10.651,5.543 10.654,5.537 C10.663,5.534 10.673,5.530 10.682,5.527 C10.682,5.524 10.682,5.521 10.682,5.518 C10.695,5.515 10.708,5.512 10.720,5.509 C10.720,5.506 10.720,5.502 10.720,5.499 C10.730,5.496 10.739,5.493 10.749,5.490 C10.752,5.484 10.755,5.478 10.758,5.471 C10.765,5.471 10.771,5.471 10.777,5.471 C10.777,5.468 10.777,5.465 10.777,5.462 C10.784,5.462 10.790,5.462 10.796,5.462 C10.799,5.456 10.803,5.450 10.806,5.443 C10.818,5.440 10.831,5.437 10.844,5.434 C10.847,5.428 10.850,5.421 10.853,5.415 C10.860,5.415 10.866,5.415 10.872,5.415 C10.872,5.412 10.872,5.409 10.872,5.406 C10.879,5.406 10.885,5.406 10.891,5.406 C10.891,5.403 10.891,5.400 10.891,5.397 C10.897,5.397 10.904,5.397 10.910,5.397 C10.910,5.393 10.910,5.390 10.910,5.387 C10.916,5.387 10.923,5.387 10.929,5.387 C10.932,5.381 10.935,5.375 10.939,5.369 C10.945,5.369 10.951,5.369 10.958,5.369 C10.958,5.365 10.958,5.362 10.958,5.359 C10.964,5.359 10.970,5.359 10.977,5.359 C10.977,5.356 10.977,5.353 10.977,5.350 C10.983,5.350 10.989,5.350 10.996,5.350 C10.996,5.347 10.996,5.344 10.996,5.341 C11.002,5.341 11.008,5.341 11.014,5.341 C11.014,5.337 11.014,5.334 11.014,5.331 C11.021,5.331 11.027,5.331 11.033,5.331 C11.033,5.328 11.033,5.325 11.033,5.322 C11.040,5.322 11.046,5.322 11.052,5.322 C11.052,5.319 11.052,5.316 11.052,5.313 C11.071,5.306 11.090,5.300 11.109,5.294 C11.109,5.291 11.109,5.288 11.109,5.284 C11.125,5.281 11.141,5.278 11.157,5.275 C11.157,5.272 11.157,5.269 11.157,5.266 C11.163,5.266 11.169,5.266 11.176,5.266 C11.176,5.263 11.176,5.260 11.176,5.256 C11.185,5.256 11.195,5.256 11.204,5.256 C11.204,5.253 11.204,5.250 11.204,5.247 C11.217,5.244 11.229,5.241 11.242,5.238 C11.242,5.235 11.242,5.232 11.242,5.228 C11.252,5.228 11.261,5.228 11.271,5.228 C11.271,5.225 11.271,5.222 11.271,5.219 C11.277,5.219 11.283,5.219 11.290,5.219 C11.290,5.216 11.290,5.213 11.290,5.210 C11.299,5.210 11.309,5.210 11.318,5.210 C11.318,5.207 11.318,5.204 11.318,5.200 C11.324,5.200 11.331,5.200 11.337,5.200 C11.337,5.197 11.337,5.194 11.337,5.191 C11.346,5.191 11.356,5.191 11.365,5.191 C11.365,5.188 11.365,5.185 11.365,5.182 C11.375,5.182 11.384,5.182 11.394,5.182 C11.394,5.179 11.394,5.175 11.394,5.172 C11.403,5.172 11.413,5.172 11.422,5.172 C11.422,5.169 11.422,5.166 11.422,5.163 C11.432,5.163 11.441,5.163 11.451,5.163 C11.451,5.160 11.451,5.157 11.451,5.154 C11.460,5.154 11.470,5.154 11.479,5.154 C11.479,5.151 11.479,5.147 11.479,5.144 C11.489,5.144 11.498,5.144 11.508,5.144 C11.508,5.141 11.508,5.138 11.508,5.135 C11.517,5.135 11.527,5.135 11.536,5.135 C11.536,5.132 11.536,5.129 11.536,5.126 C11.546,5.126 11.555,5.126 11.565,5.126 C11.565,5.123 11.565,5.119 11.565,5.116 C11.587,5.113 11.609,5.110 11.631,5.107 C11.631,5.104 11.631,5.101 11.631,5.098 C11.653,5.095 11.675,5.091 11.697,5.088 C11.697,5.085 11.697,5.082 11.697,5.079 C11.723,5.076 11.748,5.073 11.773,5.070 C11.773,5.066 11.773,5.063 11.773,5.060 C11.789,5.060 11.805,5.060 11.821,5.060 C11.821,5.057 11.821,5.054 11.821,5.051 C11.833,5.051 11.846,5.051 11.859,5.051 C11.859,5.048 11.859,5.045 11.859,5.042 C11.875,5.042 11.890,5.042 11.906,5.042 C11.906,5.038 11.906,5.035 11.906,5.032 C11.922,5.032 11.938,5.032 11.954,5.032 C11.954,5.029 11.954,5.026 11.954,5.023 C11.969,5.023 11.985,5.023 12.001,5.023 C12.001,5.020 12.001,5.017 12.001,5.014 C12.020,5.014 12.039,5.014 12.058,5.014 C12.058,5.010 12.058,5.007 12.058,5.004 C12.080,5.004 12.102,5.004 12.124,5.004 C12.124,5.001 12.124,4.998 12.124,4.995 C12.146,4.995 12.169,4.995 12.191,4.995 C12.191,4.992 12.191,4.989 12.191,4.986 C12.216,4.986 12.241,4.986 12.267,4.986 C12.267,4.982 12.267,4.979 12.267,4.976 C12.298,4.976 12.330,4.976 12.361,4.976 C12.361,4.973 12.361,4.970 12.361,4.967 C12.440,4.964 12.520,4.961 12.599,4.958 C12.633,4.958 12.668,4.958 12.703,4.958 C12.703,4.954 12.703,4.951 12.703,4.948 C12.749,4.935 12.879,4.948 12.912,4.958 C12.988,4.958 13.063,4.958 13.139,4.958 C13.139,4.961 13.139,4.964 13.139,4.967 C13.180,4.967 13.222,4.967 13.263,4.967 C13.263,4.970 13.263,4.973 13.263,4.976 C13.294,4.976 13.326,4.976 13.357,4.976 C13.357,4.979 13.357,4.982 13.357,4.986 C13.386,4.986 13.414,4.986 13.443,4.986 C13.588,5.010 13.734,5.035 13.879,5.060 C13.879,5.063 13.879,5.066 13.879,5.070 C13.892,5.070 13.904,5.070 13.917,5.070 C13.917,5.073 13.917,5.076 13.917,5.079 C13.930,5.079 13.942,5.079 13.955,5.079 C13.955,5.082 13.955,5.085 13.955,5.088 C13.968,5.088 13.980,5.088 13.993,5.088 C13.993,5.091 13.993,5.095 13.993,5.098 C14.006,5.098 14.018,5.098 14.031,5.098 C14.031,5.101 14.031,5.104 14.031,5.107 C14.040,5.107 14.050,5.107 14.059,5.107 C14.059,5.110 14.059,5.113 14.059,5.116 C14.085,5.119 14.110,5.123 14.135,5.126 C14.135,5.129 14.135,5.132 14.135,5.135 C14.145,5.135 14.154,5.135 14.164,5.135 C14.164,5.138 14.164,5.141 14.164,5.144 C14.173,5.144 14.183,5.144 14.192,5.144 C14.192,5.147 14.192,5.151 14.192,5.154 C14.202,5.154 14.211,5.154 14.221,5.154 C14.221,5.157 14.221,5.160 14.221,5.163 C14.230,5.163 14.240,5.163 14.249,5.163 C14.249,5.166 14.249,5.169 14.249,5.172 C14.259,5.172 14.268,5.172 14.278,5.172 C14.278,5.175 14.278,5.179 14.278,5.182 C14.287,5.182 14.297,5.182 14.306,5.182 C14.306,5.185 14.306,5.188 14.306,5.191 C14.316,5.191 14.325,5.191 14.334,5.191 C14.334,5.194 14.334,5.197 14.334,5.200 C14.363,5.207 14.391,5.213 14.420,5.219 C14.420,5.222 14.420,5.225 14.420,5.228 C14.426,5.228 14.433,5.228 14.439,5.228 C14.439,5.232 14.439,5.235 14.439,5.238 C14.448,5.238 14.458,5.238 14.467,5.238 C14.467,5.241 14.467,5.244 14.467,5.247 C14.474,5.247 14.480,5.247 14.486,5.247 C14.486,5.250 14.486,5.253 14.486,5.256 C14.496,5.256 14.505,5.256 14.515,5.256 C14.515,5.260 14.515,5.263 14.515,5.266 C14.521,5.266 14.527,5.266 14.534,5.266 C14.534,5.269 14.534,5.272 14.534,5.275 C14.543,5.275 14.553,5.275 14.562,5.275 C14.562,5.278 14.562,5.281 14.562,5.284 C14.575,5.288 14.587,5.291 14.600,5.294 C14.600,5.297 14.600,5.300 14.600,5.303 C14.610,5.303 14.619,5.303 14.629,5.303 C14.629,5.306 14.629,5.309 14.629,5.313 C14.648,5.319 14.666,5.325 14.685,5.331 C14.685,5.334 14.685,5.337 14.685,5.341 C14.692,5.341 14.698,5.341 14.704,5.341 C14.704,5.344 14.704,5.347 14.704,5.350 C14.711,5.350 14.717,5.350 14.723,5.350 C14.723,5.353 14.723,5.356 14.723,5.359 C14.730,5.359 14.736,5.359 14.742,5.359 C14.742,5.362 14.742,5.365 14.742,5.369 C14.755,5.372 14.768,5.375 14.780,5.378 C14.780,5.381 14.780,5.384 14.780,5.387 C14.787,5.387 14.793,5.387 14.799,5.387 C14.799,5.390 14.799,5.393 14.799,5.397 C14.806,5.397 14.812,5.397 14.818,5.397 C14.818,5.400 14.818,5.403 14.818,5.406 C14.825,5.406 14.831,5.406 14.837,5.406 C14.837,5.409 14.837,5.412 14.837,5.415 C14.844,5.415 14.850,5.415 14.856,5.415 C14.856,5.418 14.856,5.422 14.856,5.425 C14.863,5.425 14.869,5.425 14.875,5.425 C14.875,5.428 14.875,5.431 14.875,5.434 C14.888,5.437 14.900,5.440 14.913,5.443 C14.916,5.450 14.919,5.456 14.923,5.462 C14.942,5.468 14.961,5.474 14.980,5.481 C14.983,5.487 14.986,5.493 14.989,5.499 C15.002,5.502 15.014,5.506 15.027,5.509 C15.030,5.515 15.033,5.521 15.036,5.527 C15.049,5.530 15.062,5.534 15.074,5.537 C15.078,5.543 15.081,5.549 15.084,5.555 C15.090,5.555 15.097,5.555 15.103,5.555 C15.106,5.562 15.109,5.568 15.112,5.574 C15.119,5.574 15.125,5.574 15.131,5.574 C15.134,5.580 15.138,5.587 15.141,5.593 C15.147,5.593 15.153,5.593 15.160,5.593 C15.163,5.599 15.166,5.605 15.169,5.611 C15.176,5.611 15.182,5.611 15.188,5.611 C15.188,5.615 15.188,5.618 15.188,5.621 C15.198,5.624 15.207,5.627 15.217,5.630 C15.220,5.636 15.223,5.643 15.226,5.649 C15.232,5.649 15.239,5.649 15.245,5.649 C15.248,5.655 15.251,5.661 15.255,5.668 C15.261,5.668 15.267,5.668 15.274,5.668 C15.280,5.677 15.286,5.686 15.293,5.696 C15.299,5.696 15.305,5.696 15.312,5.696 C15.318,5.705 15.324,5.714 15.331,5.724 C15.337,5.724 15.343,5.724 15.349,5.724 C15.359,5.736 15.368,5.748 15.378,5.761 C15.384,5.761 15.391,5.761 15.397,5.761 C15.406,5.773 15.416,5.786 15.425,5.798 C15.432,5.798 15.438,5.798 15.444,5.798 C15.454,5.811 15.463,5.823 15.473,5.836 C15.479,5.836 15.485,5.836 15.492,5.836 C15.511,5.857 15.530,5.879 15.549,5.901 C15.555,5.901 15.561,5.901 15.568,5.901 C15.606,5.942 15.644,5.982 15.681,6.023 C15.732,6.069 15.783,6.116 15.833,6.163 C15.833,6.169 15.833,6.175 15.833,6.181 C15.855,6.200 15.878,6.219 15.900,6.237 C15.900,6.244 15.900,6.250 15.900,6.256 C15.915,6.269 15.931,6.281 15.947,6.293 C15.947,6.300 15.947,6.306 15.947,6.312 C15.960,6.321 15.972,6.331 15.985,6.340 C15.985,6.346 15.985,6.353 15.985,6.359 C15.998,6.368 16.010,6.378 16.023,6.387 C16.023,6.393 16.023,6.399 16.023,6.406 C16.032,6.412 16.042,6.418 16.051,6.424 C16.055,6.434 16.058,6.443 16.061,6.452 C16.067,6.455 16.074,6.458 16.080,6.462 C16.080,6.468 16.080,6.474 16.080,6.480 C16.086,6.483 16.093,6.487 16.099,6.490 C16.099,6.496 16.099,6.502 16.099,6.508 C16.108,6.515 16.118,6.521 16.127,6.527 C16.127,6.533 16.127,6.539 16.127,6.546 C16.134,6.549 16.140,6.552 16.146,6.555 C16.146,6.561 16.146,6.567 16.146,6.574 C16.153,6.577 16.159,6.580 16.165,6.583 C16.165,6.589 16.165,6.596 16.165,6.602 C16.172,6.605 16.178,6.608 16.184,6.611 C16.184,6.617 16.184,6.624 16.184,6.630 C16.191,6.633 16.197,6.636 16.203,6.639 C16.206,6.652 16.210,6.664 16.213,6.676 C16.216,6.676 16.219,6.676 16.222,6.676 C16.225,6.686 16.228,6.695 16.232,6.704 C16.238,6.708 16.244,6.711 16.251,6.714 C16.254,6.726 16.257,6.739 16.260,6.751 C16.266,6.754 16.273,6.757 16.279,6.761 C16.282,6.773 16.285,6.785 16.289,6.798 C16.295,6.801 16.301,6.804 16.308,6.807 C16.314,6.826 16.320,6.845 16.327,6.863 C16.333,6.866 16.339,6.870 16.345,6.873 C16.349,6.885 16.352,6.898 16.355,6.910 C16.358,6.910 16.361,6.910 16.364,6.910 C16.364,6.916 16.364,6.922 16.364,6.929 C16.368,6.929 16.371,6.929 16.374,6.929 C16.374,6.935 16.374,6.941 16.374,6.947 C16.377,6.947 16.380,6.947 16.383,6.947 C16.383,6.954 16.383,6.960 16.383,6.966 C16.387,6.966 16.390,6.966 16.393,6.966 C16.393,6.972 16.393,6.979 16.393,6.985 C16.396,6.985 16.399,6.985 16.402,6.985 C16.402,6.991 16.402,6.997 16.402,7.003 C16.406,7.003 16.409,7.003 16.412,7.003 C16.415,7.016 16.418,7.028 16.421,7.041 C16.425,7.041 16.428,7.041 16.431,7.041 C16.431,7.047 16.431,7.053 16.431,7.060 C16.434,7.060 16.437,7.060 16.440,7.060 C16.440,7.066 16.440,7.072 16.440,7.078 C16.444,7.078 16.447,7.078 16.450,7.078 C16.450,7.084 16.450,7.091 16.450,7.097 C16.453,7.097 16.456,7.097 16.459,7.097 C16.459,7.103 16.459,7.109 16.459,7.116 C16.462,7.116 16.466,7.116 16.469,7.116 C16.469,7.122 16.469,7.128 16.469,7.134 C16.472,7.134 16.475,7.134 16.478,7.134 C16.481,7.147 16.485,7.159 16.488,7.172 C16.491,7.172 16.494,7.172 16.497,7.172 C16.497,7.178 16.497,7.184 16.497,7.190 C16.500,7.190 16.504,7.190 16.507,7.190 C16.507,7.200 16.507,7.209 16.507,7.218 C16.510,7.218 16.513,7.218 16.516,7.218 C16.519,7.231 16.523,7.243 16.526,7.256 C16.529,7.256 16.532,7.256 16.535,7.256 C16.535,7.265 16.535,7.274 16.535,7.284 C16.538,7.284 16.542,7.284 16.545,7.284 C16.548,7.296 16.551,7.309 16.554,7.321 C16.557,7.321 16.560,7.321 16.564,7.321 C16.564,7.330 16.564,7.340 16.564,7.349 C16.567,7.349 16.570,7.349 16.573,7.349 C16.573,7.355 16.573,7.362 16.573,7.368 C16.576,7.368 16.579,7.368 16.583,7.368 C16.586,7.383 16.589,7.399 16.592,7.415 C16.595,7.415 16.598,7.415 16.602,7.415 C16.605,7.433 16.608,7.452 16.611,7.471 C16.614,7.471 16.617,7.471 16.621,7.471 C16.621,7.477 16.621,7.483 16.621,7.489 C16.624,7.489 16.627,7.489 16.630,7.489 C16.636,7.517 16.643,7.545 16.649,7.573 C16.652,7.573 16.655,7.573 16.659,7.573 C16.659,7.580 16.659,7.586 16.659,7.592 C16.662,7.592 16.665,7.592 16.668,7.592 C16.668,7.601 16.668,7.611 16.668,7.620 C16.671,7.620 16.674,7.620 16.677,7.620 C16.677,7.629 16.677,7.639 16.677,7.648 C16.681,7.648 16.684,7.648 16.687,7.648 C16.687,7.657 16.687,7.667 16.687,7.676 C16.690,7.676 16.693,7.676 16.696,7.676 C16.696,7.685 16.696,7.695 16.696,7.704 C16.700,7.704 16.703,7.704 16.706,7.704 C16.706,7.717 16.706,7.729 16.706,7.741 C16.709,7.741 16.712,7.741 16.715,7.741 C16.715,7.751 16.715,7.760 16.715,7.770 C16.719,7.770 16.722,7.770 16.725,7.770 C16.725,7.779 16.725,7.788 16.725,7.798 C16.728,7.798 16.731,7.798 16.734,7.798 C16.741,7.829 16.747,7.860 16.753,7.891 C16.757,7.891 16.760,7.891 16.763,7.891 C16.769,7.928 16.776,7.966 16.782,8.003 C16.785,8.003 16.788,8.003 16.791,8.003 C16.791,8.012 16.791,8.022 16.791,8.031 C16.794,8.031 16.798,8.031 16.801,8.031 C16.801,8.044 16.801,8.056 16.801,8.068 C16.804,8.068 16.807,8.068 16.810,8.068 C16.810,8.084 16.810,8.100 16.810,8.115 C16.813,8.115 16.817,8.115 16.820,8.115 C16.820,8.128 16.820,8.140 16.820,8.153 C16.823,8.153 16.826,8.153 16.829,8.153 C16.829,8.165 16.829,8.177 16.829,8.190 C16.832,8.190 16.836,8.190 16.839,8.190 C16.845,8.234 16.851,8.277 16.858,8.321 C16.861,8.321 16.864,8.321 16.867,8.321 C16.867,8.339 16.867,8.358 16.867,8.377 C16.886,8.437 16.896,8.520 16.915,8.582 C16.915,8.604 16.915,8.626 16.915,8.648 C16.918,8.648 16.921,8.648 16.924,8.648 C16.927,8.691 16.930,8.735 16.934,8.778 C16.937,8.778 16.940,8.778 16.943,8.778 C16.946,8.831 16.949,8.884 16.953,8.937 C16.956,8.937 16.959,8.937 16.962,8.937 C16.962,8.968 16.962,9.000 16.962,9.031 C16.965,9.031 16.968,9.031 16.972,9.031 C16.972,9.068 16.972,9.105 16.972,9.143 C16.975,9.143 16.978,9.143 16.981,9.143 C16.981,9.186 16.981,9.230 16.981,9.274 C16.984,9.274 16.987,9.274 16.991,9.274 C16.991,9.336 16.991,9.398 16.991,9.460 C16.994,9.460 16.997,9.460 17.000,9.460 C17.000,9.616 17.000,9.772 17.000,9.928 C17.000,10.258 17.000,10.588 17.000,10.918 C17.000,12.612 17.000,14.306 17.000,16.000 ZM0.220,5.210 C1.434,5.210 2.648,5.210 3.862,5.210 C3.862,8.806 3.862,12.404 3.862,16.000 C2.648,16.000 1.434,16.000 0.220,16.000 C0.220,12.404 0.220,8.806 0.220,5.210 ZM9.506,6.751 C9.506,6.757 9.506,6.764 9.506,6.770 C9.509,6.770 9.513,6.770 9.516,6.770 C9.510,6.751 9.517,6.762 9.506,6.751 Z"/>
</svg>