<svg 
 xmlns="http://www.w3.org/2000/svg"
 xmlns:xlink="http://www.w3.org/1999/xlink"
 width="15px" height="19px">
<path fill-rule="evenodd" fill="rgb(148, 147, 161)"
 d="M7.503,0.000 C7.773,0.000 8.043,0.000 8.314,0.000 C8.314,0.005 8.314,0.010 8.314,0.015 C8.363,0.015 8.412,0.015 8.461,0.015 C8.545,0.015 8.660,0.025 8.727,0.044 C8.855,0.054 8.983,0.064 9.110,0.074 C9.110,0.078 9.110,0.083 9.110,0.088 C9.169,0.093 9.228,0.098 9.287,0.103 C9.287,0.108 9.287,0.113 9.287,0.118 C9.317,0.118 9.346,0.118 9.376,0.118 C9.376,0.123 9.376,0.127 9.376,0.132 C9.405,0.132 9.435,0.132 9.464,0.132 C9.464,0.137 9.464,0.142 9.464,0.147 C9.489,0.147 9.514,0.147 9.538,0.147 C9.538,0.152 9.538,0.157 9.538,0.162 C9.563,0.162 9.587,0.162 9.612,0.162 C9.612,0.167 9.612,0.172 9.612,0.176 C9.632,0.176 9.651,0.176 9.671,0.176 C9.671,0.181 9.671,0.186 9.671,0.191 C9.696,0.191 9.720,0.191 9.745,0.191 C9.745,0.196 9.745,0.201 9.745,0.206 C9.784,0.211 9.823,0.216 9.863,0.221 C9.863,0.225 9.863,0.230 9.863,0.235 C9.902,0.240 9.941,0.245 9.981,0.250 C9.981,0.255 9.981,0.260 9.981,0.265 C10.000,0.265 10.020,0.265 10.040,0.265 C10.040,0.270 10.040,0.274 10.040,0.279 C10.055,0.279 10.069,0.279 10.084,0.279 C10.084,0.284 10.084,0.289 10.084,0.294 C10.118,0.299 10.153,0.304 10.187,0.309 C10.187,0.314 10.187,0.319 10.187,0.323 C10.207,0.323 10.227,0.323 10.246,0.323 C10.246,0.328 10.246,0.333 10.246,0.338 C10.261,0.338 10.276,0.338 10.291,0.338 C10.291,0.343 10.291,0.348 10.291,0.353 C10.305,0.353 10.320,0.353 10.335,0.353 C10.335,0.358 10.335,0.363 10.335,0.368 C10.350,0.368 10.364,0.368 10.379,0.368 C10.379,0.372 10.379,0.377 10.379,0.382 C10.394,0.382 10.409,0.382 10.423,0.382 C10.423,0.387 10.423,0.392 10.423,0.397 C10.438,0.397 10.453,0.397 10.468,0.397 C10.468,0.402 10.468,0.407 10.468,0.412 C10.482,0.412 10.497,0.412 10.512,0.412 C10.512,0.417 10.512,0.421 10.512,0.426 C10.527,0.426 10.541,0.426 10.556,0.426 C10.556,0.431 10.556,0.436 10.556,0.441 C10.600,0.451 10.645,0.461 10.689,0.470 C10.689,0.475 10.689,0.480 10.689,0.485 C10.699,0.485 10.709,0.485 10.718,0.485 C10.718,0.490 10.718,0.495 10.718,0.500 C10.733,0.500 10.748,0.500 10.763,0.500 C10.763,0.505 10.763,0.510 10.763,0.515 C10.772,0.515 10.782,0.515 10.792,0.515 C10.792,0.519 10.792,0.524 10.792,0.529 C10.807,0.529 10.822,0.529 10.836,0.529 C10.836,0.534 10.836,0.539 10.836,0.544 C10.846,0.544 10.856,0.544 10.866,0.544 C10.866,0.549 10.866,0.554 10.866,0.559 C10.881,0.559 10.895,0.559 10.910,0.559 C10.910,0.564 10.910,0.568 10.910,0.573 C10.920,0.573 10.930,0.573 10.940,0.573 C10.940,0.578 10.940,0.583 10.940,0.588 C10.954,0.588 10.969,0.588 10.984,0.588 C10.984,0.593 10.984,0.598 10.984,0.603 C11.004,0.608 11.023,0.613 11.043,0.617 C11.043,0.622 11.043,0.627 11.043,0.632 C11.058,0.632 11.072,0.632 11.087,0.632 C11.087,0.637 11.087,0.642 11.087,0.647 C11.107,0.652 11.126,0.657 11.146,0.662 C11.146,0.666 11.146,0.671 11.146,0.676 C11.171,0.681 11.195,0.686 11.220,0.691 C11.220,0.696 11.220,0.701 11.220,0.706 C11.249,0.715 11.279,0.725 11.308,0.735 C11.308,0.740 11.308,0.745 11.308,0.750 C11.318,0.750 11.328,0.750 11.338,0.750 C11.338,0.755 11.338,0.760 11.338,0.764 C11.348,0.764 11.358,0.764 11.367,0.764 C11.367,0.769 11.367,0.774 11.367,0.779 C11.377,0.779 11.387,0.779 11.397,0.779 C11.397,0.784 11.397,0.789 11.397,0.794 C11.407,0.794 11.417,0.794 11.426,0.794 C11.426,0.799 11.426,0.804 11.426,0.809 C11.436,0.809 11.446,0.809 11.456,0.809 C11.456,0.813 11.456,0.818 11.456,0.823 C11.466,0.823 11.476,0.823 11.485,0.823 C11.485,0.828 11.485,0.833 11.485,0.838 C11.495,0.838 11.505,0.838 11.515,0.838 C11.515,0.843 11.515,0.848 11.515,0.853 C11.525,0.853 11.535,0.853 11.544,0.853 C11.544,0.858 11.544,0.862 11.544,0.867 C11.554,0.867 11.564,0.867 11.574,0.867 C11.579,0.877 11.584,0.887 11.589,0.897 C11.599,0.897 11.608,0.897 11.618,0.897 C11.618,0.902 11.618,0.907 11.618,0.911 C11.628,0.911 11.638,0.911 11.648,0.911 C11.648,0.916 11.648,0.921 11.648,0.926 C11.658,0.926 11.667,0.926 11.677,0.926 C11.677,0.931 11.677,0.936 11.677,0.941 C11.687,0.941 11.697,0.941 11.707,0.941 C11.712,0.951 11.717,0.960 11.721,0.970 C11.751,0.980 11.780,0.990 11.810,1.000 C11.815,1.009 11.820,1.019 11.825,1.029 C11.844,1.034 11.864,1.039 11.884,1.044 C11.889,1.054 11.894,1.063 11.898,1.073 C11.918,1.078 11.938,1.083 11.957,1.088 C11.962,1.098 11.967,1.107 11.972,1.117 C11.982,1.117 11.992,1.117 12.002,1.117 C12.007,1.127 12.012,1.137 12.017,1.147 C12.026,1.147 12.036,1.147 12.046,1.147 C12.051,1.156 12.056,1.166 12.061,1.176 C12.080,1.181 12.100,1.186 12.120,1.191 C12.125,1.201 12.130,1.210 12.135,1.220 C12.144,1.220 12.154,1.220 12.164,1.220 C12.174,1.235 12.184,1.250 12.194,1.264 C12.203,1.264 12.213,1.264 12.223,1.264 C12.223,1.269 12.223,1.274 12.223,1.279 C12.238,1.284 12.253,1.289 12.267,1.294 C12.272,1.303 12.277,1.313 12.282,1.323 C12.292,1.323 12.302,1.323 12.312,1.323 C12.321,1.338 12.331,1.352 12.341,1.367 C12.351,1.367 12.361,1.367 12.371,1.367 C12.375,1.377 12.380,1.387 12.385,1.397 C12.395,1.397 12.405,1.397 12.415,1.397 C12.425,1.411 12.434,1.426 12.444,1.441 C12.454,1.441 12.464,1.441 12.474,1.441 C12.489,1.460 12.503,1.480 12.518,1.499 C12.528,1.499 12.538,1.499 12.548,1.499 C12.557,1.514 12.567,1.529 12.577,1.544 C12.587,1.544 12.597,1.544 12.607,1.544 C12.626,1.568 12.646,1.593 12.666,1.617 C12.675,1.617 12.685,1.617 12.695,1.617 C12.715,1.642 12.734,1.666 12.754,1.691 C12.764,1.691 12.774,1.691 12.784,1.691 C12.813,1.725 12.843,1.759 12.872,1.794 C12.882,1.794 12.892,1.794 12.902,1.794 C12.980,1.877 13.059,1.960 13.138,2.043 C13.226,2.127 13.315,2.210 13.403,2.293 C13.403,2.303 13.403,2.313 13.403,2.323 C13.433,2.347 13.462,2.372 13.492,2.396 C13.492,2.406 13.492,2.416 13.492,2.426 C13.516,2.445 13.541,2.465 13.565,2.484 C13.565,2.494 13.565,2.504 13.565,2.514 C13.590,2.533 13.615,2.553 13.639,2.573 C13.639,2.582 13.639,2.592 13.639,2.602 C13.649,2.607 13.659,2.612 13.669,2.617 C13.674,2.631 13.679,2.646 13.683,2.661 C13.703,2.676 13.723,2.690 13.742,2.705 C13.742,2.715 13.742,2.725 13.742,2.734 C13.752,2.739 13.762,2.744 13.772,2.749 C13.772,2.759 13.772,2.769 13.772,2.778 C13.787,2.788 13.801,2.798 13.816,2.808 C13.816,2.818 13.816,2.827 13.816,2.837 C13.831,2.847 13.846,2.857 13.860,2.867 C13.860,2.876 13.860,2.886 13.860,2.896 C13.870,2.901 13.880,2.906 13.890,2.911 C13.895,2.925 13.900,2.940 13.905,2.955 C13.910,2.955 13.915,2.955 13.919,2.955 C13.919,2.965 13.919,2.974 13.919,2.984 C13.929,2.989 13.939,2.994 13.949,2.999 C13.949,3.009 13.949,3.019 13.949,3.028 C13.959,3.033 13.969,3.038 13.978,3.043 C13.978,3.053 13.978,3.063 13.978,3.072 C13.988,3.077 13.998,3.082 14.008,3.087 C14.013,3.102 14.018,3.117 14.023,3.131 C14.028,3.131 14.033,3.131 14.037,3.131 C14.042,3.151 14.047,3.170 14.052,3.190 C14.057,3.190 14.062,3.190 14.067,3.190 C14.072,3.205 14.077,3.219 14.082,3.234 C14.092,3.239 14.101,3.244 14.111,3.249 C14.116,3.268 14.121,3.288 14.126,3.308 C14.136,3.313 14.146,3.318 14.155,3.322 C14.165,3.352 14.175,3.381 14.185,3.411 C14.195,3.416 14.205,3.420 14.214,3.425 C14.214,3.435 14.214,3.445 14.214,3.455 C14.219,3.455 14.224,3.455 14.229,3.455 C14.229,3.465 14.229,3.474 14.229,3.484 C14.234,3.484 14.239,3.484 14.244,3.484 C14.244,3.494 14.244,3.504 14.244,3.514 C14.249,3.514 14.254,3.514 14.259,3.514 C14.259,3.523 14.259,3.533 14.259,3.543 C14.264,3.543 14.269,3.543 14.273,3.543 C14.273,3.553 14.273,3.563 14.273,3.572 C14.283,3.577 14.293,3.582 14.303,3.587 C14.308,3.607 14.313,3.626 14.318,3.646 C14.323,3.646 14.328,3.646 14.332,3.646 C14.332,3.656 14.332,3.665 14.332,3.675 C14.337,3.675 14.342,3.675 14.347,3.675 C14.357,3.705 14.367,3.734 14.377,3.763 C14.382,3.763 14.387,3.763 14.391,3.763 C14.391,3.778 14.391,3.793 14.391,3.808 C14.396,3.808 14.401,3.808 14.406,3.808 C14.406,3.817 14.406,3.827 14.406,3.837 C14.411,3.837 14.416,3.837 14.421,3.837 C14.421,3.847 14.421,3.857 14.421,3.866 C14.426,3.866 14.431,3.866 14.436,3.866 C14.446,3.896 14.455,3.925 14.465,3.955 C14.470,3.955 14.475,3.955 14.480,3.955 C14.480,3.969 14.480,3.984 14.480,3.999 C14.485,3.999 14.490,3.999 14.495,3.999 C14.500,4.018 14.505,4.038 14.510,4.057 C14.514,4.057 14.519,4.057 14.524,4.057 C14.524,4.072 14.524,4.087 14.524,4.102 C14.529,4.102 14.534,4.102 14.539,4.102 C14.539,4.111 14.539,4.121 14.539,4.131 C14.544,4.131 14.549,4.131 14.554,4.131 C14.559,4.155 14.564,4.180 14.569,4.204 C14.573,4.204 14.578,4.204 14.583,4.204 C14.583,4.219 14.583,4.234 14.583,4.249 C14.588,4.249 14.593,4.249 14.598,4.249 C14.598,4.258 14.598,4.268 14.598,4.278 C14.603,4.278 14.608,4.278 14.613,4.278 C14.613,4.293 14.613,4.307 14.613,4.322 C14.618,4.322 14.623,4.322 14.628,4.322 C14.628,4.337 14.628,4.351 14.628,4.366 C14.632,4.366 14.637,4.366 14.642,4.366 C14.642,4.381 14.642,4.396 14.642,4.410 C14.647,4.410 14.652,4.410 14.657,4.410 C14.657,4.425 14.657,4.440 14.657,4.454 C14.662,4.454 14.667,4.454 14.672,4.454 C14.672,4.464 14.672,4.474 14.672,4.484 C14.677,4.484 14.682,4.484 14.687,4.484 C14.687,4.498 14.687,4.513 14.687,4.528 C14.691,4.528 14.696,4.528 14.701,4.528 C14.721,4.611 14.741,4.694 14.760,4.778 C14.921,5.224 14.996,5.810 14.996,6.410 C14.996,6.541 15.012,6.715 14.982,6.821 C14.959,6.902 14.987,7.029 14.967,7.101 C14.967,7.169 14.967,7.238 14.967,7.306 C14.962,7.306 14.957,7.306 14.952,7.306 C14.947,7.404 14.942,7.502 14.937,7.600 C14.932,7.600 14.927,7.600 14.923,7.600 C14.923,7.644 14.923,7.689 14.923,7.733 C14.879,7.881 14.877,8.073 14.834,8.218 C14.834,8.247 14.834,8.277 14.834,8.306 C14.829,8.306 14.824,8.306 14.819,8.306 C14.819,8.331 14.819,8.355 14.819,8.380 C14.814,8.380 14.809,8.380 14.805,8.380 C14.805,8.404 14.805,8.429 14.805,8.453 C14.800,8.453 14.795,8.453 14.790,8.453 C14.790,8.478 14.790,8.502 14.790,8.527 C14.785,8.527 14.780,8.527 14.775,8.527 C14.775,8.551 14.775,8.576 14.775,8.600 C14.770,8.600 14.765,8.600 14.760,8.600 C14.755,8.644 14.750,8.688 14.746,8.732 C14.741,8.732 14.736,8.732 14.731,8.732 C14.731,8.752 14.731,8.772 14.731,8.791 C14.726,8.791 14.721,8.791 14.716,8.791 C14.716,8.811 14.716,8.830 14.716,8.850 C14.711,8.850 14.706,8.850 14.701,8.850 C14.701,8.870 14.701,8.889 14.701,8.909 C14.696,8.909 14.691,8.909 14.687,8.909 C14.687,8.928 14.687,8.948 14.687,8.968 C14.682,8.968 14.677,8.968 14.672,8.968 C14.667,9.007 14.662,9.046 14.657,9.085 C14.652,9.085 14.647,9.085 14.642,9.085 C14.637,9.119 14.632,9.154 14.628,9.188 C14.623,9.188 14.618,9.188 14.613,9.188 C14.608,9.222 14.603,9.257 14.598,9.291 C14.593,9.291 14.588,9.291 14.583,9.291 C14.573,9.340 14.564,9.389 14.554,9.438 C14.549,9.438 14.544,9.438 14.539,9.438 C14.539,9.453 14.539,9.467 14.539,9.482 C14.534,9.482 14.529,9.482 14.524,9.482 C14.524,9.497 14.524,9.511 14.524,9.526 C14.519,9.526 14.514,9.526 14.510,9.526 C14.510,9.541 14.510,9.556 14.510,9.570 C14.505,9.570 14.500,9.570 14.495,9.570 C14.485,9.614 14.475,9.658 14.465,9.703 C14.460,9.703 14.455,9.703 14.451,9.703 C14.451,9.712 14.451,9.722 14.451,9.732 C14.446,9.732 14.441,9.732 14.436,9.732 C14.426,9.776 14.416,9.820 14.406,9.864 C14.245,10.232 14.095,10.614 13.890,10.937 C13.880,10.967 13.870,10.996 13.860,11.026 C13.851,11.031 13.841,11.035 13.831,11.040 C13.831,11.050 13.831,11.060 13.831,11.070 C13.826,11.070 13.821,11.070 13.816,11.070 C13.816,11.080 13.816,11.089 13.816,11.099 C13.806,11.104 13.797,11.109 13.787,11.114 C13.782,11.133 13.777,11.153 13.772,11.173 C13.762,11.178 13.752,11.182 13.742,11.187 C13.742,11.197 13.742,11.207 13.742,11.217 C13.738,11.217 13.733,11.217 13.728,11.217 C13.728,11.227 13.728,11.236 13.728,11.246 C13.718,11.251 13.708,11.256 13.698,11.261 C13.698,11.271 13.698,11.280 13.698,11.290 C13.693,11.290 13.688,11.290 13.683,11.290 C13.679,11.305 13.674,11.320 13.669,11.334 C13.659,11.339 13.649,11.344 13.639,11.349 C13.639,11.359 13.639,11.369 13.639,11.378 C13.629,11.383 13.620,11.388 13.610,11.393 C13.610,11.403 13.610,11.413 13.610,11.423 C13.600,11.428 13.590,11.432 13.580,11.437 C13.580,11.447 13.580,11.457 13.580,11.467 C13.575,11.467 13.570,11.467 13.565,11.467 C13.560,11.481 13.556,11.496 13.551,11.511 C13.541,11.516 13.531,11.521 13.521,11.526 C13.521,11.535 13.521,11.545 13.521,11.555 C13.511,11.560 13.501,11.565 13.492,11.570 C13.487,11.584 13.482,11.599 13.477,11.614 C13.462,11.624 13.447,11.633 13.433,11.643 C13.433,11.653 13.433,11.663 13.433,11.673 C13.423,11.677 13.413,11.682 13.403,11.687 C13.403,11.697 13.403,11.707 13.403,11.717 C13.383,11.731 13.364,11.746 13.344,11.761 C13.344,11.771 13.344,11.780 13.344,11.790 C13.329,11.800 13.315,11.810 13.300,11.820 C13.300,11.829 13.300,11.839 13.300,11.849 C13.280,11.864 13.261,11.878 13.241,11.893 C13.241,11.903 13.241,11.913 13.241,11.922 C13.211,11.947 13.182,11.971 13.152,11.996 C13.152,12.006 13.152,12.016 13.152,12.025 C13.123,12.050 13.093,12.074 13.064,12.099 C12.977,12.219 12.872,12.305 12.769,12.408 C12.715,12.466 12.661,12.525 12.607,12.584 C12.597,12.584 12.587,12.584 12.577,12.584 C12.548,12.618 12.518,12.653 12.489,12.687 C12.479,12.687 12.469,12.687 12.459,12.687 C12.454,12.697 12.449,12.706 12.444,12.716 C12.439,12.716 12.434,12.716 12.430,12.716 C12.420,12.731 12.410,12.746 12.400,12.760 C12.390,12.760 12.380,12.760 12.371,12.760 C12.356,12.780 12.341,12.800 12.326,12.819 C12.316,12.819 12.307,12.819 12.297,12.819 C12.292,12.829 12.287,12.839 12.282,12.849 C12.267,12.853 12.253,12.858 12.238,12.863 C12.223,12.883 12.208,12.902 12.194,12.922 C12.184,12.922 12.174,12.922 12.164,12.922 C12.159,12.932 12.154,12.942 12.149,12.951 C12.139,12.951 12.130,12.951 12.120,12.951 C12.110,12.966 12.100,12.981 12.090,12.996 C12.080,12.996 12.071,12.996 12.061,12.996 C12.056,13.005 12.051,13.015 12.046,13.025 C12.031,13.030 12.017,13.035 12.002,13.040 C12.002,13.045 12.002,13.050 12.002,13.054 C11.992,13.054 11.982,13.054 11.972,13.054 C11.967,13.064 11.962,13.074 11.957,13.084 C11.948,13.084 11.938,13.084 11.928,13.084 C11.923,13.094 11.918,13.103 11.913,13.113 C11.903,13.113 11.894,13.113 11.884,13.113 C11.879,13.123 11.874,13.133 11.869,13.143 C11.859,13.143 11.849,13.143 11.839,13.143 C11.835,13.152 11.830,13.162 11.825,13.172 C11.805,13.177 11.785,13.182 11.766,13.187 C11.761,13.197 11.756,13.206 11.751,13.216 C11.731,13.221 11.712,13.226 11.692,13.231 C11.687,13.241 11.682,13.250 11.677,13.260 C11.648,13.270 11.618,13.280 11.589,13.290 C11.584,13.299 11.579,13.309 11.574,13.319 C11.564,13.319 11.554,13.319 11.544,13.319 C11.544,13.324 11.544,13.329 11.544,13.334 C11.535,13.334 11.525,13.334 11.515,13.334 C11.515,13.339 11.515,13.344 11.515,13.348 C11.505,13.348 11.495,13.348 11.485,13.348 C11.485,13.353 11.485,13.358 11.485,13.363 C11.476,13.363 11.466,13.363 11.456,13.363 C11.456,13.368 11.456,13.373 11.456,13.378 C11.446,13.378 11.436,13.378 11.426,13.378 C11.426,13.383 11.426,13.388 11.426,13.393 C11.417,13.393 11.407,13.393 11.397,13.393 C11.397,13.397 11.397,13.402 11.397,13.407 C11.387,13.407 11.377,13.407 11.367,13.407 C11.367,13.412 11.367,13.417 11.367,13.422 C11.358,13.422 11.348,13.422 11.338,13.422 C11.338,13.427 11.338,13.432 11.338,13.437 C11.328,13.437 11.318,13.437 11.308,13.437 C11.308,13.442 11.308,13.446 11.308,13.451 C11.299,13.451 11.289,13.451 11.279,13.451 C11.279,13.456 11.279,13.461 11.279,13.466 C11.249,13.476 11.220,13.486 11.190,13.495 C11.190,13.500 11.190,13.505 11.190,13.510 C11.176,13.510 11.161,13.510 11.146,13.510 C11.146,13.515 11.146,13.520 11.146,13.525 C11.126,13.530 11.107,13.535 11.087,13.540 C11.087,13.544 11.087,13.549 11.087,13.554 C11.072,13.554 11.058,13.554 11.043,13.554 C11.043,13.559 11.043,13.564 11.043,13.569 C11.033,13.569 11.023,13.569 11.013,13.569 C11.013,13.574 11.013,13.579 11.013,13.584 C10.999,13.584 10.984,13.584 10.969,13.584 C10.969,13.589 10.969,13.593 10.969,13.598 C10.959,13.598 10.949,13.598 10.940,13.598 C10.940,13.603 10.940,13.608 10.940,13.613 C10.925,13.613 10.910,13.613 10.895,13.613 C10.895,13.618 10.895,13.623 10.895,13.628 C10.886,13.628 10.876,13.628 10.866,13.628 C10.866,13.633 10.866,13.638 10.866,13.642 C10.836,13.647 10.807,13.652 10.777,13.657 C10.777,13.662 10.777,13.667 10.777,13.672 C10.763,13.672 10.748,13.672 10.733,13.672 C10.733,13.677 10.733,13.682 10.733,13.687 C10.718,13.687 10.704,13.687 10.689,13.687 C10.689,13.691 10.689,13.696 10.689,13.701 C10.674,13.701 10.659,13.701 10.645,13.701 C10.645,13.706 10.645,13.711 10.645,13.716 C10.630,13.716 10.615,13.716 10.600,13.716 C10.600,13.721 10.600,13.726 10.600,13.731 C10.586,13.731 10.571,13.731 10.556,13.731 C10.556,13.736 10.556,13.740 10.556,13.745 C10.541,13.745 10.527,13.745 10.512,13.745 C10.512,13.750 10.512,13.755 10.512,13.760 C10.492,13.760 10.473,13.760 10.453,13.760 C10.453,13.765 10.453,13.770 10.453,13.775 C10.438,13.775 10.423,13.775 10.409,13.775 C10.409,13.780 10.409,13.785 10.409,13.789 C10.389,13.789 10.369,13.789 10.350,13.789 C10.350,13.794 10.350,13.799 10.350,13.804 C10.330,13.804 10.310,13.804 10.291,13.804 C10.291,13.809 10.291,13.814 10.291,13.819 C10.271,13.819 10.251,13.819 10.232,13.819 C10.232,13.824 10.232,13.829 10.232,13.834 C10.212,13.834 10.192,13.834 10.173,13.834 C10.173,13.838 10.173,13.843 10.173,13.848 C10.128,13.853 10.084,13.858 10.040,13.863 C10.040,13.868 10.040,13.873 10.040,13.878 C10.010,13.878 9.981,13.878 9.951,13.878 C9.951,13.883 9.951,13.887 9.951,13.892 C9.927,13.892 9.902,13.892 9.878,13.892 C9.878,13.897 9.878,13.902 9.878,13.907 C9.848,13.907 9.819,13.907 9.789,13.907 C9.789,13.912 9.789,13.917 9.789,13.922 C9.755,13.922 9.720,13.922 9.686,13.922 C9.686,13.927 9.686,13.932 9.686,13.936 C9.646,13.936 9.607,13.936 9.568,13.936 C9.568,13.941 9.568,13.946 9.568,13.951 C9.519,13.951 9.469,13.951 9.420,13.951 C9.420,13.956 9.420,13.961 9.420,13.966 C9.342,13.966 9.263,13.966 9.184,13.966 C9.184,13.971 9.184,13.976 9.184,13.981 C9.115,13.981 9.047,13.981 8.978,13.981 C8.793,13.981 8.593,13.979 8.447,13.936 C8.338,13.922 8.230,13.907 8.122,13.892 C8.122,13.887 8.122,13.883 8.122,13.878 C8.083,13.873 8.043,13.868 8.004,13.863 C8.004,13.858 8.004,13.853 8.004,13.848 C7.970,13.843 7.935,13.838 7.901,13.834 C7.901,13.829 7.901,13.824 7.901,13.819 C7.886,13.819 7.871,13.819 7.857,13.819 C7.857,13.814 7.857,13.809 7.857,13.804 C7.842,13.804 7.827,13.804 7.812,13.804 C7.812,13.799 7.812,13.794 7.812,13.789 C7.798,13.789 7.783,13.789 7.768,13.789 C7.768,13.785 7.768,13.780 7.768,13.775 C7.753,13.775 7.739,13.775 7.724,13.775 C7.724,13.770 7.724,13.765 7.724,13.760 C7.680,13.750 7.635,13.740 7.591,13.731 C7.591,13.726 7.591,13.721 7.591,13.716 C7.581,13.716 7.571,13.716 7.562,13.716 C7.562,13.711 7.562,13.706 7.562,13.701 C7.547,13.701 7.532,13.701 7.517,13.701 C7.517,13.696 7.517,13.691 7.517,13.687 C7.498,13.682 7.478,13.677 7.458,13.672 C7.458,13.667 7.458,13.662 7.458,13.657 C7.444,13.657 7.429,13.657 7.414,13.657 C7.414,13.652 7.414,13.647 7.414,13.642 C7.385,13.633 7.355,13.623 7.326,13.613 C7.326,13.608 7.326,13.603 7.326,13.598 C7.316,13.598 7.306,13.598 7.296,13.598 C7.296,13.593 7.296,13.589 7.296,13.584 C7.286,13.584 7.276,13.584 7.267,13.584 C7.267,13.579 7.267,13.574 7.267,13.569 C7.257,13.569 7.247,13.569 7.237,13.569 C7.237,13.564 7.237,13.559 7.237,13.554 C7.227,13.554 7.217,13.554 7.208,13.554 C7.208,13.549 7.208,13.544 7.208,13.540 C7.198,13.540 7.188,13.540 7.178,13.540 C7.178,13.535 7.178,13.530 7.178,13.525 C7.168,13.525 7.158,13.525 7.148,13.525 C7.148,13.520 7.148,13.515 7.148,13.510 C7.139,13.510 7.129,13.510 7.119,13.510 C7.119,13.505 7.119,13.500 7.119,13.495 C7.109,13.495 7.099,13.495 7.089,13.495 C7.085,13.486 7.080,13.476 7.075,13.466 C7.055,13.461 7.035,13.456 7.016,13.451 C7.011,13.442 7.006,13.432 7.001,13.422 C6.981,13.417 6.962,13.412 6.942,13.407 C6.942,13.402 6.942,13.397 6.942,13.393 C6.927,13.388 6.912,13.383 6.898,13.378 C6.893,13.368 6.888,13.358 6.883,13.348 C6.873,13.348 6.863,13.348 6.853,13.348 C6.849,13.339 6.844,13.329 6.839,13.319 C6.829,13.319 6.819,13.319 6.809,13.319 C6.799,13.304 6.790,13.290 6.780,13.275 C6.770,13.275 6.760,13.275 6.750,13.275 C6.740,13.260 6.731,13.246 6.721,13.231 C6.711,13.231 6.701,13.231 6.691,13.231 C6.676,13.211 6.662,13.192 6.647,13.172 C6.637,13.172 6.627,13.172 6.617,13.172 C6.608,13.157 6.598,13.143 6.588,13.128 C6.549,13.099 6.509,13.069 6.470,13.040 C6.466,13.100 6.442,13.155 6.426,13.201 C6.421,13.241 6.416,13.280 6.411,13.319 C6.406,13.319 6.401,13.319 6.396,13.319 C6.396,13.339 6.396,13.358 6.396,13.378 C6.391,13.378 6.386,13.378 6.381,13.378 C6.381,13.397 6.381,13.417 6.381,13.437 C6.377,13.437 6.372,13.437 6.367,13.437 C6.367,13.456 6.367,13.476 6.367,13.495 C6.362,13.495 6.357,13.495 6.352,13.495 C6.352,13.510 6.352,13.525 6.352,13.540 C6.347,13.540 6.342,13.540 6.337,13.540 C6.337,13.559 6.337,13.579 6.337,13.598 C6.332,13.598 6.327,13.598 6.322,13.598 C6.322,13.618 6.322,13.638 6.322,13.657 C6.317,13.657 6.313,13.657 6.308,13.657 C6.308,13.677 6.308,13.696 6.308,13.716 C6.303,13.716 6.298,13.716 6.293,13.716 C6.293,13.736 6.293,13.755 6.293,13.775 C6.217,13.994 6.176,14.248 6.101,14.466 C6.101,14.485 6.101,14.505 6.101,14.524 C6.096,14.524 6.091,14.524 6.086,14.524 C6.086,14.544 6.086,14.564 6.086,14.583 C6.081,14.583 6.077,14.583 6.072,14.583 C6.072,14.603 6.072,14.623 6.072,14.642 C6.067,14.642 6.062,14.642 6.057,14.642 C6.057,14.662 6.057,14.681 6.057,14.701 C5.985,14.909 5.939,15.157 5.865,15.362 C5.865,15.382 5.865,15.402 5.865,15.421 C5.860,15.421 5.855,15.421 5.850,15.421 C5.850,15.436 5.850,15.451 5.850,15.465 C5.845,15.465 5.841,15.465 5.836,15.465 C5.836,15.485 5.836,15.505 5.836,15.524 C5.831,15.524 5.826,15.524 5.821,15.524 C5.816,15.554 5.811,15.583 5.806,15.612 C5.801,15.612 5.796,15.612 5.791,15.612 C5.791,15.627 5.791,15.642 5.791,15.656 C5.786,15.656 5.782,15.656 5.777,15.656 C5.777,15.671 5.777,15.686 5.777,15.701 C5.772,15.701 5.767,15.701 5.762,15.701 C5.762,15.715 5.762,15.730 5.762,15.745 C5.757,15.745 5.752,15.745 5.747,15.745 C5.747,15.759 5.747,15.774 5.747,15.789 C5.742,15.789 5.737,15.789 5.732,15.789 C5.732,15.803 5.732,15.818 5.732,15.833 C5.727,15.833 5.723,15.833 5.718,15.833 C5.713,15.862 5.708,15.892 5.703,15.921 C5.698,15.921 5.693,15.921 5.688,15.921 C5.683,15.950 5.678,15.980 5.673,16.009 C5.668,16.009 5.664,16.009 5.659,16.009 C5.659,16.024 5.659,16.039 5.659,16.053 C5.654,16.053 5.649,16.053 5.644,16.053 C5.644,16.068 5.644,16.083 5.644,16.097 C5.639,16.097 5.634,16.097 5.629,16.097 C5.629,16.112 5.629,16.127 5.629,16.142 C5.624,16.142 5.619,16.142 5.614,16.142 C5.614,16.156 5.614,16.171 5.614,16.186 C5.609,16.186 5.605,16.186 5.600,16.186 C5.600,16.195 5.600,16.205 5.600,16.215 C5.595,16.215 5.590,16.215 5.585,16.215 C5.580,16.244 5.575,16.274 5.570,16.303 C5.565,16.303 5.560,16.303 5.555,16.303 C5.555,16.313 5.555,16.323 5.555,16.333 C5.550,16.333 5.545,16.333 5.541,16.333 C5.536,16.362 5.531,16.392 5.526,16.421 C5.521,16.421 5.516,16.421 5.511,16.421 C5.511,16.431 5.511,16.441 5.511,16.450 C5.506,16.450 5.501,16.450 5.496,16.450 C5.491,16.480 5.486,16.509 5.482,16.539 C5.477,16.539 5.472,16.539 5.467,16.539 C5.467,16.548 5.467,16.558 5.467,16.568 C5.462,16.568 5.457,16.568 5.452,16.568 C5.452,16.583 5.452,16.597 5.452,16.612 C5.447,16.612 5.442,16.612 5.437,16.612 C5.437,16.622 5.437,16.632 5.437,16.641 C5.432,16.641 5.427,16.641 5.423,16.641 C5.418,16.666 5.413,16.690 5.408,16.715 C5.403,16.715 5.398,16.715 5.393,16.715 C5.393,16.730 5.393,16.744 5.393,16.759 C5.388,16.759 5.383,16.759 5.378,16.759 C5.378,16.769 5.378,16.779 5.378,16.788 C5.373,16.788 5.368,16.788 5.364,16.788 C5.364,16.803 5.364,16.818 5.364,16.833 C5.359,16.833 5.354,16.833 5.349,16.833 C5.344,16.852 5.339,16.872 5.334,16.891 C5.329,16.891 5.324,16.891 5.319,16.891 C5.319,16.906 5.319,16.921 5.319,16.935 C5.314,16.935 5.309,16.935 5.305,16.935 C5.300,16.955 5.295,16.975 5.290,16.994 C5.285,16.994 5.280,16.994 5.275,16.994 C5.275,17.009 5.275,17.024 5.275,17.038 C5.270,17.038 5.265,17.038 5.260,17.038 C5.255,17.058 5.250,17.078 5.246,17.097 C5.241,17.097 5.236,17.097 5.231,17.097 C5.231,17.112 5.231,17.127 5.231,17.141 C5.226,17.141 5.221,17.141 5.216,17.141 C5.216,17.151 5.216,17.161 5.216,17.171 C5.211,17.171 5.206,17.171 5.201,17.171 C5.191,17.200 5.182,17.229 5.172,17.259 C5.167,17.259 5.162,17.259 5.157,17.259 C5.157,17.274 5.157,17.288 5.157,17.303 C5.152,17.303 5.147,17.303 5.142,17.303 C5.142,17.313 5.142,17.323 5.142,17.332 C5.137,17.332 5.132,17.332 5.128,17.332 C5.123,17.352 5.118,17.372 5.113,17.391 C5.108,17.391 5.103,17.391 5.098,17.391 C5.098,17.401 5.098,17.411 5.098,17.421 C5.093,17.421 5.088,17.421 5.083,17.421 C5.083,17.430 5.083,17.440 5.083,17.450 C5.078,17.450 5.073,17.450 5.069,17.450 C5.069,17.460 5.069,17.470 5.069,17.479 C5.064,17.479 5.059,17.479 5.054,17.479 C5.054,17.489 5.054,17.499 5.054,17.509 C5.049,17.509 5.044,17.509 5.039,17.509 C5.039,17.519 5.039,17.528 5.039,17.538 C5.034,17.538 5.029,17.538 5.024,17.538 C5.024,17.548 5.024,17.558 5.024,17.568 C5.019,17.568 5.014,17.568 5.010,17.568 C5.010,17.577 5.010,17.587 5.010,17.597 C5.005,17.597 5.000,17.597 4.995,17.597 C4.995,17.607 4.995,17.617 4.995,17.626 C4.990,17.626 4.985,17.626 4.980,17.626 C4.980,17.636 4.980,17.646 4.980,17.656 C4.975,17.656 4.970,17.656 4.965,17.656 C4.965,17.666 4.965,17.675 4.965,17.685 C4.960,17.685 4.955,17.685 4.951,17.685 C4.951,17.695 4.951,17.705 4.951,17.715 C4.941,17.719 4.931,17.724 4.921,17.729 C4.921,17.739 4.921,17.749 4.921,17.759 C4.916,17.759 4.911,17.759 4.906,17.759 C4.906,17.768 4.906,17.778 4.906,17.788 C4.901,17.788 4.896,17.788 4.892,17.788 C4.892,17.798 4.892,17.808 4.892,17.817 C4.887,17.817 4.882,17.817 4.877,17.817 C4.877,17.827 4.877,17.837 4.877,17.847 C4.867,17.852 4.857,17.857 4.847,17.862 C4.837,17.891 4.828,17.920 4.818,17.950 C4.808,17.955 4.798,17.960 4.788,17.965 C4.788,17.974 4.788,17.984 4.788,17.994 C4.783,17.994 4.778,17.994 4.774,17.994 C4.774,18.004 4.774,18.014 4.774,18.023 C4.769,18.023 4.764,18.023 4.759,18.023 C4.754,18.038 4.749,18.053 4.744,18.067 C4.734,18.072 4.724,18.077 4.714,18.082 C4.710,18.102 4.705,18.121 4.700,18.141 C4.690,18.146 4.680,18.151 4.670,18.156 C4.670,18.165 4.670,18.175 4.670,18.185 C4.660,18.190 4.651,18.195 4.641,18.200 C4.641,18.210 4.641,18.219 4.641,18.229 C4.626,18.239 4.611,18.249 4.596,18.259 C4.596,18.268 4.596,18.278 4.596,18.288 C4.587,18.293 4.577,18.298 4.567,18.303 C4.567,18.312 4.567,18.322 4.567,18.332 C4.557,18.337 4.547,18.342 4.537,18.347 C4.533,18.361 4.528,18.376 4.523,18.391 C4.503,18.406 4.483,18.420 4.464,18.435 C4.464,18.445 4.464,18.455 4.464,18.464 C4.439,18.484 4.415,18.504 4.390,18.523 C4.390,18.533 4.390,18.543 4.390,18.553 C4.301,18.636 4.213,18.719 4.124,18.802 C4.115,18.802 4.105,18.802 4.095,18.802 C4.085,18.817 4.075,18.832 4.065,18.847 C4.056,18.847 4.046,18.847 4.036,18.847 C4.031,18.856 4.026,18.866 4.021,18.876 C3.992,18.886 3.962,18.896 3.933,18.905 C3.933,18.910 3.933,18.915 3.933,18.920 C3.913,18.925 3.893,18.930 3.874,18.935 C3.874,18.940 3.874,18.945 3.874,18.949 C3.825,18.970 3.601,19.017 3.520,18.994 C3.520,18.989 3.520,18.984 3.520,18.979 C3.495,18.979 3.470,18.979 3.446,18.979 C3.446,18.974 3.446,18.969 3.446,18.964 C3.431,18.964 3.416,18.964 3.402,18.964 C3.402,18.959 3.402,18.954 3.402,18.949 C3.382,18.945 3.362,18.940 3.343,18.935 C3.343,18.930 3.343,18.925 3.343,18.920 C3.333,18.920 3.323,18.920 3.313,18.920 C3.308,18.910 3.303,18.900 3.298,18.891 C3.289,18.891 3.279,18.891 3.269,18.891 C3.259,18.876 3.249,18.861 3.239,18.847 C3.210,18.822 3.180,18.798 3.151,18.773 C3.151,18.763 3.151,18.753 3.151,18.744 C3.141,18.739 3.131,18.734 3.121,18.729 C3.121,18.719 3.121,18.709 3.121,18.700 C3.111,18.695 3.102,18.690 3.092,18.685 C3.087,18.665 3.082,18.646 3.077,18.626 C3.072,18.626 3.067,18.626 3.062,18.626 C3.052,18.597 3.043,18.567 3.033,18.538 C3.028,18.538 3.023,18.538 3.018,18.538 C3.018,18.523 3.018,18.508 3.018,18.494 C2.887,18.194 2.841,17.790 2.841,17.362 C2.841,17.174 2.811,16.886 2.856,16.730 C2.856,16.651 2.856,16.573 2.856,16.494 C2.861,16.494 2.866,16.494 2.871,16.494 C2.871,16.431 2.871,16.367 2.871,16.303 C2.875,16.303 2.880,16.303 2.885,16.303 C2.885,16.249 2.885,16.195 2.885,16.142 C2.890,16.142 2.895,16.142 2.900,16.142 C2.900,16.097 2.900,16.053 2.900,16.009 C2.905,16.009 2.910,16.009 2.915,16.009 C2.915,15.965 2.915,15.921 2.915,15.877 C2.955,15.739 2.949,15.557 2.989,15.421 C2.989,15.387 2.989,15.353 2.989,15.318 C3.020,15.213 3.031,15.071 3.062,14.966 C3.062,14.936 3.062,14.907 3.062,14.877 C3.067,14.877 3.072,14.877 3.077,14.877 C3.077,14.853 3.077,14.828 3.077,14.804 C3.082,14.804 3.087,14.804 3.092,14.804 C3.092,14.779 3.092,14.755 3.092,14.730 C3.097,14.730 3.102,14.730 3.107,14.730 C3.107,14.706 3.107,14.681 3.107,14.657 C3.111,14.657 3.116,14.657 3.121,14.657 C3.121,14.632 3.121,14.608 3.121,14.583 C3.190,14.371 3.230,14.119 3.298,13.907 C3.298,13.883 3.298,13.858 3.298,13.834 C3.303,13.834 3.308,13.834 3.313,13.834 C3.313,13.814 3.313,13.794 3.313,13.775 C3.318,13.775 3.323,13.775 3.328,13.775 C3.328,13.755 3.328,13.736 3.328,13.716 C3.333,13.716 3.338,13.716 3.343,13.716 C3.343,13.696 3.343,13.677 3.343,13.657 C3.348,13.657 3.352,13.657 3.357,13.657 C3.357,13.633 3.357,13.608 3.357,13.584 C3.491,13.173 3.549,12.701 3.682,12.290 C3.682,12.265 3.682,12.241 3.682,12.216 C3.687,12.216 3.692,12.216 3.697,12.216 C3.697,12.197 3.697,12.177 3.697,12.158 C3.702,12.158 3.706,12.158 3.711,12.158 C3.711,12.138 3.711,12.118 3.711,12.099 C3.716,12.099 3.721,12.099 3.726,12.099 C3.726,12.079 3.726,12.060 3.726,12.040 C3.731,12.040 3.736,12.040 3.741,12.040 C3.741,12.016 3.741,11.991 3.741,11.967 C3.816,11.737 3.858,11.462 3.933,11.231 C3.933,11.207 3.933,11.182 3.933,11.158 C3.938,11.158 3.943,11.158 3.947,11.158 C3.947,11.138 3.947,11.119 3.947,11.099 C3.952,11.099 3.957,11.099 3.962,11.099 C3.962,11.080 3.962,11.060 3.962,11.040 C3.967,11.040 3.972,11.040 3.977,11.040 C3.977,11.021 3.977,11.001 3.977,10.982 C3.982,10.982 3.987,10.982 3.992,10.982 C3.992,10.957 3.992,10.933 3.992,10.908 C4.060,10.697 4.097,10.443 4.169,10.232 C4.174,10.188 4.179,10.144 4.183,10.100 C4.232,9.950 4.268,9.764 4.316,9.614 C4.316,9.590 4.316,9.565 4.316,9.541 C4.321,9.541 4.326,9.541 4.331,9.541 C4.331,9.521 4.331,9.502 4.331,9.482 C4.336,9.482 4.341,9.482 4.346,9.482 C4.346,9.462 4.346,9.443 4.346,9.423 C4.351,9.423 4.356,9.423 4.360,9.423 C4.360,9.404 4.360,9.384 4.360,9.364 C4.365,9.364 4.370,9.364 4.375,9.364 C4.380,9.320 4.385,9.276 4.390,9.232 C4.395,9.232 4.400,9.232 4.405,9.232 C4.405,9.213 4.405,9.193 4.405,9.173 C4.410,9.173 4.415,9.173 4.419,9.173 C4.419,9.154 4.419,9.134 4.419,9.115 C4.424,9.115 4.429,9.115 4.434,9.115 C4.444,9.051 4.454,8.987 4.464,8.923 C4.469,8.923 4.474,8.923 4.478,8.923 C4.493,8.866 4.448,8.825 4.434,8.791 C4.429,8.767 4.424,8.742 4.419,8.718 C4.415,8.718 4.410,8.718 4.405,8.718 C4.395,8.674 4.385,8.629 4.375,8.585 C4.370,8.585 4.365,8.585 4.360,8.585 C4.360,8.566 4.360,8.546 4.360,8.527 C4.356,8.527 4.351,8.527 4.346,8.527 C4.346,8.512 4.346,8.497 4.346,8.482 C4.341,8.482 4.336,8.482 4.331,8.482 C4.326,8.448 4.321,8.414 4.316,8.380 C4.311,8.380 4.306,8.380 4.301,8.380 C4.297,8.340 4.292,8.301 4.287,8.262 C4.282,8.262 4.277,8.262 4.272,8.262 C4.267,8.218 4.262,8.174 4.257,8.130 C4.252,8.130 4.247,8.130 4.242,8.130 C4.242,8.105 4.242,8.081 4.242,8.056 C4.238,8.056 4.233,8.056 4.228,8.056 C4.228,8.027 4.228,7.997 4.228,7.968 C4.223,7.968 4.218,7.968 4.213,7.968 C4.213,7.938 4.213,7.909 4.213,7.880 C4.208,7.880 4.203,7.880 4.198,7.880 C4.198,7.845 4.198,7.811 4.198,7.777 C4.193,7.777 4.188,7.777 4.183,7.777 C4.183,7.733 4.183,7.689 4.183,7.644 C4.179,7.644 4.174,7.644 4.169,7.644 C4.169,7.581 4.169,7.517 4.169,7.453 C4.164,7.453 4.159,7.453 4.154,7.453 C4.154,7.385 4.154,7.316 4.154,7.248 C4.159,7.081 4.164,6.914 4.169,6.748 C4.174,6.748 4.179,6.748 4.183,6.748 C4.183,6.709 4.183,6.669 4.183,6.630 C4.218,6.459 4.252,6.287 4.287,6.116 C4.292,6.116 4.297,6.116 4.301,6.116 C4.301,6.101 4.301,6.086 4.301,6.071 C4.306,6.071 4.311,6.071 4.316,6.071 C4.316,6.057 4.316,6.042 4.316,6.027 C4.321,6.027 4.326,6.027 4.331,6.027 C4.341,5.978 4.351,5.929 4.360,5.880 C4.365,5.880 4.370,5.880 4.375,5.880 C4.375,5.871 4.375,5.861 4.375,5.851 C4.380,5.851 4.385,5.851 4.390,5.851 C4.395,5.822 4.400,5.792 4.405,5.763 C4.410,5.763 4.415,5.763 4.419,5.763 C4.419,5.753 4.419,5.743 4.419,5.733 C4.424,5.733 4.429,5.733 4.434,5.733 C4.434,5.719 4.434,5.704 4.434,5.689 C4.439,5.689 4.444,5.689 4.449,5.689 C4.454,5.670 4.459,5.650 4.464,5.630 C4.469,5.630 4.474,5.630 4.478,5.630 C4.478,5.616 4.478,5.601 4.478,5.586 C4.483,5.586 4.488,5.586 4.493,5.586 C4.503,5.557 4.513,5.528 4.523,5.498 C4.528,5.498 4.533,5.498 4.537,5.498 C4.537,5.488 4.537,5.479 4.537,5.469 C4.542,5.469 4.547,5.469 4.552,5.469 C4.557,5.449 4.562,5.430 4.567,5.410 C4.577,5.405 4.587,5.400 4.596,5.395 C4.606,5.366 4.616,5.336 4.626,5.307 C4.636,5.302 4.646,5.297 4.655,5.292 C4.660,5.273 4.665,5.253 4.670,5.234 C4.675,5.234 4.680,5.234 4.685,5.234 C4.690,5.219 4.695,5.204 4.700,5.189 C4.710,5.185 4.719,5.180 4.729,5.175 C4.729,5.165 4.729,5.155 4.729,5.145 C4.734,5.145 4.739,5.145 4.744,5.145 C4.749,5.131 4.754,5.116 4.759,5.101 C4.769,5.096 4.778,5.091 4.788,5.087 C4.788,5.077 4.788,5.067 4.788,5.057 C4.803,5.047 4.818,5.038 4.833,5.028 C4.833,5.018 4.833,5.008 4.833,4.998 C4.857,4.979 4.882,4.959 4.906,4.940 C4.906,4.930 4.906,4.920 4.906,4.910 C4.941,4.881 4.975,4.851 5.010,4.822 C5.010,4.812 5.010,4.802 5.010,4.792 C5.034,4.773 5.059,4.753 5.083,4.734 C5.088,4.724 5.093,4.714 5.098,4.704 C5.108,4.704 5.118,4.704 5.128,4.704 C5.162,4.665 5.196,4.626 5.231,4.587 C5.241,4.587 5.250,4.587 5.260,4.587 C5.270,4.572 5.280,4.557 5.290,4.543 C5.305,4.538 5.319,4.533 5.334,4.528 C5.339,4.518 5.344,4.508 5.349,4.498 C5.359,4.498 5.368,4.498 5.378,4.498 C5.383,4.489 5.388,4.479 5.393,4.469 C5.403,4.469 5.413,4.469 5.423,4.469 C5.427,4.459 5.432,4.449 5.437,4.440 C5.447,4.440 5.457,4.440 5.467,4.440 C5.472,4.430 5.477,4.420 5.482,4.410 C5.501,4.405 5.521,4.400 5.541,4.396 C5.545,4.386 5.550,4.376 5.555,4.366 C5.575,4.361 5.595,4.356 5.614,4.351 C5.614,4.347 5.614,4.342 5.614,4.337 C5.624,4.337 5.634,4.337 5.644,4.337 C5.644,4.332 5.644,4.327 5.644,4.322 C5.673,4.312 5.703,4.302 5.732,4.293 C5.732,4.288 5.732,4.283 5.732,4.278 C5.747,4.278 5.762,4.278 5.777,4.278 C5.777,4.273 5.777,4.268 5.777,4.263 C5.786,4.263 5.796,4.263 5.806,4.263 C5.806,4.258 5.806,4.253 5.806,4.249 C5.836,4.244 5.865,4.239 5.895,4.234 C5.895,4.229 5.895,4.224 5.895,4.219 C5.909,4.219 5.924,4.219 5.939,4.219 C5.939,4.214 5.939,4.209 5.939,4.204 C5.954,4.204 5.968,4.204 5.983,4.204 C5.983,4.200 5.983,4.195 5.983,4.190 C5.998,4.190 6.013,4.190 6.027,4.190 C6.027,4.185 6.027,4.180 6.027,4.175 C6.052,4.175 6.077,4.175 6.101,4.175 C6.312,4.109 6.659,4.092 6.883,4.160 C6.927,4.165 6.971,4.170 7.016,4.175 C7.016,4.180 7.016,4.185 7.016,4.190 C7.065,4.200 7.114,4.209 7.163,4.219 C7.163,4.224 7.163,4.229 7.163,4.234 C7.173,4.234 7.183,4.234 7.193,4.234 C7.193,4.239 7.193,4.244 7.193,4.249 C7.208,4.249 7.222,4.249 7.237,4.249 C7.237,4.253 7.237,4.258 7.237,4.263 C7.267,4.273 7.296,4.283 7.326,4.293 C7.326,4.298 7.326,4.302 7.326,4.307 C7.335,4.307 7.345,4.307 7.355,4.307 C7.355,4.312 7.355,4.317 7.355,4.322 C7.385,4.332 7.414,4.342 7.444,4.351 C7.448,4.361 7.453,4.371 7.458,4.381 C7.468,4.381 7.478,4.381 7.488,4.381 C7.493,4.391 7.498,4.400 7.503,4.410 C7.512,4.410 7.522,4.410 7.532,4.410 C7.542,4.425 7.552,4.440 7.562,4.454 C7.571,4.454 7.581,4.454 7.591,4.454 C7.601,4.469 7.611,4.484 7.621,4.498 C7.630,4.498 7.640,4.498 7.650,4.498 C7.675,4.528 7.699,4.557 7.724,4.587 C7.758,4.616 7.793,4.645 7.827,4.675 C7.827,4.685 7.827,4.694 7.827,4.704 C7.847,4.719 7.866,4.734 7.886,4.748 C7.886,4.758 7.886,4.768 7.886,4.778 C7.901,4.788 7.916,4.797 7.930,4.807 C7.930,4.817 7.930,4.827 7.930,4.837 C7.940,4.841 7.950,4.846 7.960,4.851 C7.965,4.871 7.970,4.891 7.975,4.910 C7.984,4.915 7.994,4.920 8.004,4.925 C8.004,4.935 8.004,4.944 8.004,4.954 C8.009,4.954 8.014,4.954 8.019,4.954 C8.019,4.964 8.019,4.974 8.019,4.984 C8.024,4.984 8.029,4.984 8.034,4.984 C8.034,4.993 8.034,5.003 8.034,5.013 C8.039,5.013 8.043,5.013 8.048,5.013 C8.048,5.023 8.048,5.033 8.048,5.042 C8.053,5.042 8.058,5.042 8.063,5.042 C8.063,5.052 8.063,5.062 8.063,5.072 C8.068,5.072 8.073,5.072 8.078,5.072 C8.083,5.091 8.088,5.111 8.093,5.131 C8.098,5.131 8.102,5.131 8.107,5.131 C8.107,5.145 8.107,5.160 8.107,5.175 C8.112,5.175 8.117,5.175 8.122,5.175 C8.122,5.185 8.122,5.194 8.122,5.204 C8.127,5.204 8.132,5.204 8.137,5.204 C8.171,5.332 8.206,5.459 8.240,5.586 C8.245,5.665 8.250,5.743 8.255,5.822 C8.260,5.822 8.265,5.822 8.270,5.822 C8.289,5.893 8.270,6.182 8.255,6.233 C8.250,6.321 8.245,6.410 8.240,6.498 C8.235,6.498 8.230,6.498 8.225,6.498 C8.220,6.557 8.216,6.615 8.211,6.674 C8.206,6.674 8.201,6.674 8.196,6.674 C8.196,6.704 8.196,6.733 8.196,6.762 C8.191,6.762 8.186,6.762 8.181,6.762 C8.181,6.787 8.181,6.811 8.181,6.836 C8.176,6.836 8.171,6.836 8.166,6.836 C8.161,6.880 8.157,6.924 8.152,6.968 C8.147,6.968 8.142,6.968 8.137,6.968 C8.137,6.988 8.137,7.007 8.137,7.027 C8.132,7.027 8.127,7.027 8.122,7.027 C8.117,7.071 8.112,7.115 8.107,7.159 C8.102,7.159 8.098,7.159 8.093,7.159 C8.093,7.179 8.093,7.199 8.093,7.218 C8.088,7.218 8.083,7.218 8.078,7.218 C8.068,7.272 8.058,7.326 8.048,7.380 C8.043,7.380 8.039,7.380 8.034,7.380 C8.034,7.399 8.034,7.419 8.034,7.439 C8.029,7.439 8.024,7.439 8.019,7.439 C8.019,7.453 8.019,7.468 8.019,7.483 C8.014,7.483 8.009,7.483 8.004,7.483 C7.999,7.517 7.994,7.551 7.989,7.586 C7.984,7.586 7.980,7.586 7.975,7.586 C7.975,7.605 7.975,7.625 7.975,7.644 C7.970,7.644 7.965,7.644 7.960,7.644 C7.960,7.659 7.960,7.674 7.960,7.689 C7.955,7.689 7.950,7.689 7.945,7.689 C7.945,7.708 7.945,7.728 7.945,7.747 C7.812,8.118 7.709,8.526 7.576,8.894 C7.576,8.914 7.576,8.933 7.576,8.953 C7.571,8.953 7.566,8.953 7.562,8.953 C7.562,8.968 7.562,8.982 7.562,8.997 C7.557,8.997 7.552,8.997 7.547,8.997 C7.547,9.017 7.547,9.036 7.547,9.056 C7.542,9.056 7.537,9.056 7.532,9.056 C7.532,9.070 7.532,9.085 7.532,9.100 C7.527,9.100 7.522,9.100 7.517,9.100 C7.517,9.115 7.517,9.129 7.517,9.144 C7.512,9.144 7.507,9.144 7.503,9.144 C7.498,9.178 7.493,9.213 7.488,9.247 C7.483,9.247 7.478,9.247 7.473,9.247 C7.468,9.281 7.463,9.315 7.458,9.350 C7.453,9.350 7.448,9.350 7.444,9.350 C7.434,9.404 7.424,9.458 7.414,9.511 C7.409,9.511 7.404,9.511 7.399,9.511 C7.360,9.688 7.321,9.864 7.281,10.041 C7.263,10.106 7.281,10.417 7.296,10.467 C7.301,10.467 7.306,10.467 7.311,10.467 C7.311,10.492 7.311,10.516 7.311,10.541 C7.316,10.541 7.321,10.541 7.326,10.541 C7.326,10.555 7.326,10.570 7.326,10.585 C7.330,10.585 7.335,10.585 7.340,10.585 C7.350,10.629 7.360,10.673 7.370,10.717 C7.375,10.717 7.380,10.717 7.385,10.717 C7.394,10.746 7.404,10.776 7.414,10.805 C7.419,10.805 7.424,10.805 7.429,10.805 C7.434,10.825 7.439,10.844 7.444,10.864 C7.453,10.869 7.463,10.874 7.473,10.879 C7.473,10.888 7.473,10.898 7.473,10.908 C7.483,10.913 7.493,10.918 7.503,10.923 C7.503,10.933 7.503,10.942 7.503,10.952 C7.517,10.962 7.532,10.972 7.547,10.982 C7.547,10.991 7.547,11.001 7.547,11.011 C7.571,11.031 7.596,11.050 7.621,11.070 C7.621,11.080 7.621,11.089 7.621,11.099 C7.625,11.099 7.630,11.099 7.635,11.099 C7.645,11.114 7.655,11.129 7.665,11.143 C7.675,11.143 7.684,11.143 7.694,11.143 C7.719,11.173 7.743,11.202 7.768,11.231 C7.778,11.231 7.788,11.231 7.798,11.231 C7.802,11.241 7.807,11.251 7.812,11.261 C7.827,11.266 7.842,11.271 7.857,11.276 C7.857,11.280 7.857,11.285 7.857,11.290 C7.866,11.290 7.876,11.290 7.886,11.290 C7.891,11.300 7.896,11.310 7.901,11.320 C7.930,11.329 7.960,11.339 7.989,11.349 C7.989,11.354 7.989,11.359 7.989,11.364 C7.999,11.364 8.009,11.364 8.019,11.364 C8.019,11.369 8.019,11.374 8.019,11.378 C8.048,11.388 8.078,11.398 8.107,11.408 C8.107,11.413 8.107,11.418 8.107,11.423 C8.122,11.423 8.137,11.423 8.152,11.423 C8.152,11.428 8.152,11.432 8.152,11.437 C8.161,11.437 8.171,11.437 8.181,11.437 C8.181,11.442 8.181,11.447 8.181,11.452 C8.201,11.452 8.220,11.452 8.240,11.452 C8.240,11.457 8.240,11.462 8.240,11.467 C8.255,11.467 8.270,11.467 8.284,11.467 C8.284,11.472 8.284,11.477 8.284,11.481 C8.304,11.481 8.324,11.481 8.343,11.481 C8.343,11.486 8.343,11.491 8.343,11.496 C8.373,11.496 8.402,11.496 8.432,11.496 C8.432,11.501 8.432,11.506 8.432,11.511 C8.466,11.511 8.501,11.511 8.535,11.511 C8.535,11.516 8.535,11.521 8.535,11.526 C8.609,11.546 8.821,11.526 8.874,11.511 C8.943,11.506 9.012,11.501 9.081,11.496 C9.081,11.491 9.081,11.486 9.081,11.481 C9.145,11.472 9.209,11.462 9.273,11.452 C9.273,11.447 9.273,11.442 9.273,11.437 C9.317,11.428 9.361,11.418 9.405,11.408 C9.405,11.403 9.405,11.398 9.405,11.393 C9.415,11.393 9.425,11.393 9.435,11.393 C9.435,11.388 9.435,11.383 9.435,11.378 C9.450,11.378 9.464,11.378 9.479,11.378 C9.479,11.374 9.479,11.369 9.479,11.364 C9.509,11.354 9.538,11.344 9.568,11.334 C9.568,11.329 9.568,11.325 9.568,11.320 C9.578,11.320 9.587,11.320 9.597,11.320 C9.597,11.315 9.597,11.310 9.597,11.305 C9.607,11.305 9.617,11.305 9.627,11.305 C9.627,11.300 9.627,11.295 9.627,11.290 C9.637,11.290 9.646,11.290 9.656,11.290 C9.656,11.285 9.656,11.280 9.656,11.276 C9.686,11.266 9.715,11.256 9.745,11.246 C9.745,11.241 9.745,11.236 9.745,11.231 C9.760,11.227 9.774,11.222 9.789,11.217 C9.794,11.207 9.799,11.197 9.804,11.187 C9.814,11.187 9.823,11.187 9.833,11.187 C9.833,11.182 9.833,11.178 9.833,11.173 C9.848,11.168 9.863,11.163 9.878,11.158 C9.882,11.148 9.887,11.138 9.892,11.129 C9.902,11.129 9.912,11.129 9.922,11.129 C9.932,11.114 9.941,11.099 9.951,11.084 C9.961,11.084 9.971,11.084 9.981,11.084 C9.991,11.070 10.000,11.055 10.010,11.040 C10.020,11.040 10.030,11.040 10.040,11.040 C10.059,11.016 10.079,10.991 10.099,10.967 C10.109,10.967 10.118,10.967 10.128,10.967 C10.168,10.923 10.207,10.879 10.246,10.835 C10.295,10.790 10.345,10.746 10.394,10.702 C10.394,10.692 10.394,10.683 10.394,10.673 C10.423,10.648 10.453,10.624 10.482,10.599 C10.482,10.590 10.482,10.580 10.482,10.570 C10.502,10.555 10.522,10.541 10.541,10.526 C10.541,10.516 10.541,10.506 10.541,10.496 C10.556,10.487 10.571,10.477 10.586,10.467 C10.586,10.457 10.586,10.447 10.586,10.438 C10.600,10.428 10.615,10.418 10.630,10.408 C10.630,10.398 10.630,10.389 10.630,10.379 C10.640,10.374 10.650,10.369 10.659,10.364 C10.664,10.349 10.669,10.335 10.674,10.320 C10.679,10.320 10.684,10.320 10.689,10.320 C10.689,10.310 10.689,10.300 10.689,10.291 C10.699,10.286 10.709,10.281 10.718,10.276 C10.718,10.266 10.718,10.256 10.718,10.247 C10.728,10.242 10.738,10.237 10.748,10.232 C10.748,10.222 10.748,10.212 10.748,10.202 C10.758,10.198 10.768,10.193 10.777,10.188 C10.777,10.178 10.777,10.168 10.777,10.158 C10.787,10.153 10.797,10.149 10.807,10.144 C10.807,10.134 10.807,10.124 10.807,10.114 C10.812,10.114 10.817,10.114 10.822,10.114 C10.822,10.104 10.822,10.095 10.822,10.085 C10.831,10.080 10.841,10.075 10.851,10.070 C10.861,10.041 10.871,10.011 10.881,9.982 C11.105,9.626 11.258,9.204 11.412,8.776 C11.412,8.757 11.412,8.737 11.412,8.718 C11.417,8.718 11.422,8.718 11.426,8.718 C11.426,8.703 11.426,8.688 11.426,8.674 C11.431,8.674 11.436,8.674 11.441,8.674 C11.441,8.659 11.441,8.644 11.441,8.629 C11.446,8.629 11.451,8.629 11.456,8.629 C11.461,8.590 11.466,8.551 11.471,8.512 C11.476,8.512 11.481,8.512 11.485,8.512 C11.485,8.492 11.485,8.473 11.485,8.453 C11.490,8.453 11.495,8.453 11.500,8.453 C11.500,8.438 11.500,8.424 11.500,8.409 C11.505,8.409 11.510,8.409 11.515,8.409 C11.525,8.345 11.535,8.282 11.544,8.218 C11.549,8.218 11.554,8.218 11.559,8.218 C11.564,8.174 11.569,8.130 11.574,8.085 C11.579,8.085 11.584,8.085 11.589,8.085 C11.594,8.032 11.599,7.978 11.603,7.924 C11.608,7.924 11.613,7.924 11.618,7.924 C11.618,7.899 11.618,7.875 11.618,7.850 C11.623,7.850 11.628,7.850 11.633,7.850 C11.633,7.821 11.633,7.791 11.633,7.762 C11.638,7.762 11.643,7.762 11.648,7.762 C11.648,7.733 11.648,7.703 11.648,7.674 C11.653,7.674 11.658,7.674 11.662,7.674 C11.662,7.640 11.662,7.605 11.662,7.571 C11.667,7.571 11.672,7.571 11.677,7.571 C11.677,7.537 11.677,7.502 11.677,7.468 C11.682,7.468 11.687,7.468 11.692,7.468 C11.692,7.429 11.692,7.390 11.692,7.350 C11.697,7.350 11.702,7.350 11.707,7.350 C11.707,7.306 11.707,7.262 11.707,7.218 C11.712,7.218 11.717,7.218 11.721,7.218 C11.721,7.169 11.721,7.120 11.721,7.071 C11.726,7.071 11.731,7.071 11.736,7.071 C11.741,6.924 11.746,6.777 11.751,6.630 C11.786,6.503 11.766,6.298 11.766,6.145 C11.766,6.057 11.766,5.969 11.766,5.880 C11.761,5.880 11.756,5.880 11.751,5.880 C11.751,5.831 11.751,5.782 11.751,5.733 C11.748,5.705 11.736,5.704 11.736,5.704 C11.736,5.660 11.736,5.616 11.736,5.572 C11.731,5.572 11.726,5.572 11.721,5.572 C11.721,5.537 11.721,5.503 11.721,5.469 C11.717,5.469 11.712,5.469 11.707,5.469 C11.707,5.439 11.707,5.410 11.707,5.381 C11.702,5.381 11.697,5.381 11.692,5.381 C11.692,5.356 11.692,5.332 11.692,5.307 C11.687,5.307 11.682,5.307 11.677,5.307 C11.677,5.283 11.677,5.258 11.677,5.234 C11.672,5.234 11.667,5.234 11.662,5.234 C11.662,5.214 11.662,5.194 11.662,5.175 C11.658,5.175 11.653,5.175 11.648,5.175 C11.648,5.150 11.648,5.126 11.648,5.101 C11.643,5.101 11.638,5.101 11.633,5.101 C11.623,5.047 11.613,4.993 11.603,4.940 C11.599,4.940 11.594,4.940 11.589,4.940 C11.589,4.925 11.589,4.910 11.589,4.895 C11.584,4.895 11.579,4.895 11.574,4.895 C11.574,4.881 11.574,4.866 11.574,4.851 C11.569,4.851 11.564,4.851 11.559,4.851 C11.554,4.822 11.549,4.792 11.544,4.763 C11.540,4.763 11.535,4.763 11.530,4.763 C11.530,4.753 11.530,4.743 11.530,4.734 C11.525,4.734 11.520,4.734 11.515,4.734 C11.510,4.704 11.505,4.675 11.500,4.645 C11.412,4.469 11.323,4.293 11.235,4.116 C11.225,4.111 11.215,4.106 11.205,4.102 C11.205,4.092 11.205,4.082 11.205,4.072 C11.195,4.067 11.185,4.062 11.176,4.057 C11.176,4.048 11.176,4.038 11.176,4.028 C11.171,4.028 11.166,4.028 11.161,4.028 C11.156,4.013 11.151,3.999 11.146,3.984 C11.136,3.979 11.126,3.974 11.117,3.969 C11.117,3.959 11.117,3.950 11.117,3.940 C11.102,3.930 11.087,3.920 11.072,3.910 C11.072,3.901 11.072,3.891 11.072,3.881 C11.058,3.871 11.043,3.861 11.028,3.852 C11.028,3.842 11.028,3.832 11.028,3.822 C11.008,3.808 10.989,3.793 10.969,3.778 C10.969,3.768 10.969,3.759 10.969,3.749 C10.935,3.719 10.900,3.690 10.866,3.661 C10.866,3.651 10.866,3.641 10.866,3.631 C10.841,3.612 10.817,3.592 10.792,3.572 C10.753,3.528 10.713,3.484 10.674,3.440 C10.664,3.440 10.654,3.440 10.645,3.440 C10.615,3.406 10.586,3.371 10.556,3.337 C10.546,3.337 10.536,3.337 10.527,3.337 C10.512,3.318 10.497,3.298 10.482,3.278 C10.473,3.278 10.463,3.278 10.453,3.278 C10.443,3.264 10.433,3.249 10.423,3.234 C10.414,3.234 10.404,3.234 10.394,3.234 C10.384,3.219 10.374,3.205 10.364,3.190 C10.354,3.190 10.345,3.190 10.335,3.190 C10.330,3.180 10.325,3.170 10.320,3.161 C10.305,3.156 10.291,3.151 10.276,3.146 C10.276,3.141 10.276,3.136 10.276,3.131 C10.266,3.131 10.256,3.131 10.246,3.131 C10.241,3.121 10.236,3.112 10.232,3.102 C10.222,3.102 10.212,3.102 10.202,3.102 C10.197,3.092 10.192,3.082 10.187,3.072 C10.177,3.072 10.168,3.072 10.158,3.072 C10.153,3.063 10.148,3.053 10.143,3.043 C10.123,3.038 10.104,3.033 10.084,3.028 C10.079,3.019 10.074,3.009 10.069,2.999 C10.059,2.999 10.050,2.999 10.040,2.999 C10.040,2.994 10.040,2.989 10.040,2.984 C10.030,2.984 10.020,2.984 10.010,2.984 C10.010,2.979 10.010,2.974 10.010,2.970 C10.000,2.970 9.991,2.970 9.981,2.970 C9.981,2.965 9.981,2.960 9.981,2.955 C9.971,2.955 9.961,2.955 9.951,2.955 C9.951,2.950 9.951,2.945 9.951,2.940 C9.941,2.940 9.932,2.940 9.922,2.940 C9.922,2.935 9.922,2.930 9.922,2.925 C9.912,2.925 9.902,2.925 9.892,2.925 C9.892,2.921 9.892,2.916 9.892,2.911 C9.882,2.911 9.873,2.911 9.863,2.911 C9.863,2.906 9.863,2.901 9.863,2.896 C9.853,2.896 9.843,2.896 9.833,2.896 C9.833,2.891 9.833,2.886 9.833,2.881 C9.823,2.881 9.814,2.881 9.804,2.881 C9.804,2.876 9.804,2.872 9.804,2.867 C9.794,2.867 9.784,2.867 9.774,2.867 C9.774,2.862 9.774,2.857 9.774,2.852 C9.755,2.847 9.735,2.842 9.715,2.837 C9.715,2.832 9.715,2.827 9.715,2.823 C9.705,2.823 9.696,2.823 9.686,2.823 C9.686,2.818 9.686,2.813 9.686,2.808 C9.671,2.808 9.656,2.808 9.642,2.808 C9.642,2.803 9.642,2.798 9.642,2.793 C9.622,2.788 9.602,2.783 9.583,2.778 C9.583,2.774 9.583,2.769 9.583,2.764 C9.553,2.759 9.523,2.754 9.494,2.749 C9.494,2.744 9.494,2.739 9.494,2.734 C9.484,2.734 9.474,2.734 9.464,2.734 C9.464,2.729 9.464,2.725 9.464,2.720 C9.435,2.715 9.405,2.710 9.376,2.705 C9.376,2.700 9.376,2.695 9.376,2.690 C9.361,2.690 9.346,2.690 9.332,2.690 C9.332,2.685 9.332,2.680 9.332,2.676 C9.317,2.676 9.302,2.676 9.287,2.676 C9.287,2.671 9.287,2.666 9.287,2.661 C9.273,2.661 9.258,2.661 9.243,2.661 C9.243,2.656 9.243,2.651 9.243,2.646 C9.228,2.646 9.214,2.646 9.199,2.646 C9.199,2.641 9.199,2.636 9.199,2.631 C9.165,2.627 9.130,2.622 9.096,2.617 C9.096,2.612 9.096,2.607 9.096,2.602 C9.076,2.602 9.056,2.602 9.037,2.602 C9.037,2.597 9.037,2.592 9.037,2.587 C9.017,2.587 8.997,2.587 8.978,2.587 C8.978,2.582 8.978,2.578 8.978,2.573 C8.953,2.573 8.929,2.573 8.904,2.573 C8.904,2.568 8.904,2.563 8.904,2.558 C8.884,2.558 8.865,2.558 8.845,2.558 C8.845,2.553 8.845,2.548 8.845,2.543 C8.820,2.543 8.796,2.543 8.771,2.543 C8.771,2.538 8.771,2.533 8.771,2.529 C8.683,2.519 8.594,2.509 8.506,2.499 C8.306,2.442 8.074,2.451 7.827,2.440 C7.750,2.437 7.614,2.398 7.517,2.426 C7.517,2.431 7.517,2.435 7.517,2.440 C7.355,2.445 7.193,2.450 7.030,2.455 C7.030,2.460 7.030,2.465 7.030,2.470 C6.986,2.470 6.942,2.470 6.898,2.470 C6.898,2.475 6.898,2.480 6.898,2.484 C6.863,2.484 6.829,2.484 6.794,2.484 C6.696,2.513 6.565,2.529 6.470,2.558 C6.445,2.558 6.421,2.558 6.396,2.558 C6.396,2.563 6.396,2.568 6.396,2.573 C6.377,2.573 6.357,2.573 6.337,2.573 C6.337,2.578 6.337,2.582 6.337,2.587 C6.317,2.587 6.298,2.587 6.278,2.587 C6.278,2.592 6.278,2.597 6.278,2.602 C6.258,2.602 6.239,2.602 6.219,2.602 C6.219,2.607 6.219,2.612 6.219,2.617 C6.199,2.617 6.180,2.617 6.160,2.617 C6.160,2.622 6.160,2.627 6.160,2.631 C6.145,2.631 6.131,2.631 6.116,2.631 C6.116,2.636 6.116,2.641 6.116,2.646 C6.096,2.646 6.077,2.646 6.057,2.646 C6.057,2.651 6.057,2.656 6.057,2.661 C6.042,2.661 6.027,2.661 6.013,2.661 C6.013,2.666 6.013,2.671 6.013,2.676 C5.998,2.676 5.983,2.676 5.968,2.676 C5.968,2.680 5.968,2.685 5.968,2.690 C5.954,2.690 5.939,2.690 5.924,2.690 C5.924,2.695 5.924,2.700 5.924,2.705 C5.909,2.705 5.895,2.705 5.880,2.705 C5.880,2.710 5.880,2.715 5.880,2.720 C5.865,2.720 5.850,2.720 5.836,2.720 C5.836,2.725 5.836,2.729 5.836,2.734 C5.806,2.739 5.777,2.744 5.747,2.749 C5.747,2.754 5.747,2.759 5.747,2.764 C5.737,2.764 5.727,2.764 5.718,2.764 C5.718,2.769 5.718,2.774 5.718,2.778 C5.703,2.778 5.688,2.778 5.673,2.778 C5.673,2.783 5.673,2.788 5.673,2.793 C5.664,2.793 5.654,2.793 5.644,2.793 C5.644,2.798 5.644,2.803 5.644,2.808 C5.629,2.808 5.614,2.808 5.600,2.808 C5.600,2.813 5.600,2.818 5.600,2.823 C5.580,2.827 5.560,2.832 5.541,2.837 C5.541,2.842 5.541,2.847 5.541,2.852 C5.526,2.852 5.511,2.852 5.496,2.852 C5.496,2.857 5.496,2.862 5.496,2.867 C5.486,2.867 5.477,2.867 5.467,2.867 C5.467,2.872 5.467,2.876 5.467,2.881 C5.447,2.886 5.427,2.891 5.408,2.896 C5.408,2.901 5.408,2.906 5.408,2.911 C5.398,2.911 5.388,2.911 5.378,2.911 C5.378,2.916 5.378,2.921 5.378,2.925 C5.368,2.925 5.359,2.925 5.349,2.925 C5.349,2.930 5.349,2.935 5.349,2.940 C5.339,2.940 5.329,2.940 5.319,2.940 C5.319,2.945 5.319,2.950 5.319,2.955 C5.309,2.955 5.300,2.955 5.290,2.955 C5.290,2.960 5.290,2.965 5.290,2.970 C5.280,2.970 5.270,2.970 5.260,2.970 C5.260,2.974 5.260,2.979 5.260,2.984 C5.250,2.984 5.241,2.984 5.231,2.984 C5.231,2.989 5.231,2.994 5.231,2.999 C5.221,2.999 5.211,2.999 5.201,2.999 C5.201,3.004 5.201,3.009 5.201,3.014 C5.191,3.014 5.182,3.014 5.172,3.014 C5.172,3.019 5.172,3.023 5.172,3.028 C5.162,3.028 5.152,3.028 5.142,3.028 C5.142,3.033 5.142,3.038 5.142,3.043 C5.132,3.043 5.123,3.043 5.113,3.043 C5.113,3.048 5.113,3.053 5.113,3.058 C5.103,3.058 5.093,3.058 5.083,3.058 C5.078,3.068 5.073,3.077 5.069,3.087 C5.049,3.092 5.029,3.097 5.010,3.102 C5.005,3.112 5.000,3.121 4.995,3.131 C4.985,3.131 4.975,3.131 4.965,3.131 C4.965,3.136 4.965,3.141 4.965,3.146 C4.955,3.146 4.946,3.146 4.936,3.146 C4.936,3.151 4.936,3.156 4.936,3.161 C4.921,3.166 4.906,3.170 4.892,3.175 C4.887,3.185 4.882,3.195 4.877,3.205 C4.857,3.210 4.837,3.215 4.818,3.219 C4.813,3.229 4.808,3.239 4.803,3.249 C4.793,3.249 4.783,3.249 4.774,3.249 C4.764,3.264 4.754,3.278 4.744,3.293 C4.734,3.293 4.724,3.293 4.714,3.293 C4.710,3.303 4.705,3.313 4.700,3.322 C4.690,3.322 4.680,3.322 4.670,3.322 C4.665,3.332 4.660,3.342 4.655,3.352 C4.641,3.357 4.626,3.362 4.611,3.367 C4.601,3.381 4.592,3.396 4.582,3.411 C4.572,3.411 4.562,3.411 4.552,3.411 C4.547,3.420 4.542,3.430 4.537,3.440 C4.523,3.445 4.508,3.450 4.493,3.455 C4.478,3.474 4.464,3.494 4.449,3.514 C4.439,3.514 4.429,3.514 4.419,3.514 C4.405,3.533 4.390,3.553 4.375,3.572 C4.370,3.572 4.365,3.572 4.360,3.572 C4.356,3.582 4.351,3.592 4.346,3.602 C4.336,3.602 4.326,3.602 4.316,3.602 C4.262,3.661 4.208,3.719 4.154,3.778 C4.144,3.778 4.134,3.778 4.124,3.778 C4.115,3.793 4.105,3.808 4.095,3.822 C4.090,3.822 4.085,3.822 4.080,3.822 C4.080,3.832 4.080,3.842 4.080,3.852 C4.021,3.906 3.962,3.959 3.903,4.013 C3.903,4.023 3.903,4.033 3.903,4.043 C3.874,4.067 3.844,4.092 3.815,4.116 C3.815,4.126 3.815,4.136 3.815,4.146 C3.795,4.160 3.775,4.175 3.756,4.190 C3.756,4.200 3.756,4.209 3.756,4.219 C3.736,4.234 3.716,4.249 3.697,4.263 C3.697,4.273 3.697,4.283 3.697,4.293 C3.682,4.302 3.667,4.312 3.652,4.322 C3.652,4.332 3.652,4.342 3.652,4.351 C3.643,4.356 3.633,4.361 3.623,4.366 C3.623,4.376 3.623,4.386 3.623,4.396 C3.608,4.405 3.593,4.415 3.579,4.425 C3.579,4.435 3.579,4.445 3.579,4.454 C3.569,4.459 3.559,4.464 3.549,4.469 C3.549,4.479 3.549,4.489 3.549,4.498 C3.539,4.503 3.529,4.508 3.520,4.513 C3.520,4.523 3.520,4.533 3.520,4.543 C3.510,4.547 3.500,4.552 3.490,4.557 C3.490,4.567 3.490,4.577 3.490,4.587 C3.480,4.592 3.470,4.596 3.461,4.601 C3.456,4.621 3.451,4.641 3.446,4.660 C3.436,4.665 3.426,4.670 3.416,4.675 C3.411,4.690 3.407,4.704 3.402,4.719 C3.397,4.719 3.392,4.719 3.387,4.719 C3.377,4.748 3.367,4.778 3.357,4.807 C3.348,4.812 3.338,4.817 3.328,4.822 C3.293,4.900 3.259,4.979 3.225,5.057 C3.220,5.057 3.215,5.057 3.210,5.057 C3.210,5.067 3.210,5.077 3.210,5.087 C3.205,5.087 3.200,5.087 3.195,5.087 C3.195,5.096 3.195,5.106 3.195,5.116 C3.190,5.116 3.185,5.116 3.180,5.116 C3.180,5.126 3.180,5.136 3.180,5.145 C3.175,5.145 3.171,5.145 3.166,5.145 C3.156,5.175 3.146,5.204 3.136,5.234 C3.131,5.234 3.126,5.234 3.121,5.234 C3.121,5.248 3.121,5.263 3.121,5.278 C3.116,5.278 3.111,5.278 3.107,5.278 C3.102,5.297 3.097,5.317 3.092,5.336 C3.087,5.336 3.082,5.336 3.077,5.336 C3.077,5.351 3.077,5.366 3.077,5.381 C3.072,5.381 3.067,5.381 3.062,5.381 C3.062,5.390 3.062,5.400 3.062,5.410 C3.057,5.410 3.052,5.410 3.048,5.410 C3.048,5.425 3.048,5.439 3.048,5.454 C3.043,5.454 3.038,5.454 3.033,5.454 C3.033,5.464 3.033,5.474 3.033,5.483 C3.028,5.483 3.023,5.483 3.018,5.483 C3.013,5.513 3.008,5.542 3.003,5.572 C2.998,5.572 2.993,5.572 2.989,5.572 C2.989,5.581 2.989,5.591 2.989,5.601 C2.984,5.601 2.979,5.601 2.974,5.601 C2.959,5.665 2.944,5.728 2.930,5.792 C2.925,5.792 2.920,5.792 2.915,5.792 C2.915,5.807 2.915,5.822 2.915,5.836 C2.910,5.836 2.905,5.836 2.900,5.836 C2.900,5.851 2.900,5.866 2.900,5.880 C2.895,5.880 2.890,5.880 2.885,5.880 C2.880,5.920 2.875,5.959 2.871,5.998 C2.866,5.998 2.861,5.998 2.856,5.998 C2.856,6.018 2.856,6.037 2.856,6.057 C2.851,6.057 2.846,6.057 2.841,6.057 C2.841,6.076 2.841,6.096 2.841,6.116 C2.836,6.116 2.831,6.116 2.826,6.116 C2.826,6.135 2.826,6.155 2.826,6.174 C2.821,6.174 2.816,6.174 2.812,6.174 C2.812,6.199 2.812,6.223 2.812,6.248 C2.807,6.248 2.802,6.248 2.797,6.248 C2.797,6.272 2.797,6.297 2.797,6.321 C2.792,6.321 2.787,6.321 2.782,6.321 C2.782,6.351 2.782,6.380 2.782,6.410 C2.777,6.410 2.772,6.410 2.767,6.410 C2.767,6.439 2.767,6.468 2.767,6.498 C2.762,6.498 2.757,6.498 2.753,6.498 C2.753,6.532 2.753,6.566 2.753,6.601 C2.748,6.601 2.743,6.601 2.738,6.601 C2.733,6.709 2.728,6.816 2.723,6.924 C2.691,7.037 2.691,7.370 2.723,7.483 C2.723,7.537 2.723,7.591 2.723,7.644 C2.728,7.644 2.733,7.644 2.738,7.644 C2.738,7.684 2.738,7.723 2.738,7.762 C2.743,7.762 2.748,7.762 2.753,7.762 C2.753,7.791 2.753,7.821 2.753,7.850 C2.757,7.850 2.762,7.850 2.767,7.850 C2.767,7.875 2.767,7.899 2.767,7.924 C2.772,7.924 2.777,7.924 2.782,7.924 C2.782,7.948 2.782,7.973 2.782,7.997 C2.787,7.997 2.792,7.997 2.797,7.997 C2.797,8.017 2.797,8.036 2.797,8.056 C2.802,8.056 2.807,8.056 2.812,8.056 C2.812,8.076 2.812,8.095 2.812,8.115 C2.816,8.115 2.821,8.115 2.826,8.115 C2.826,8.134 2.826,8.154 2.826,8.174 C2.831,8.174 2.836,8.174 2.841,8.174 C2.841,8.188 2.841,8.203 2.841,8.218 C2.846,8.218 2.851,8.218 2.856,8.218 C2.856,8.233 2.856,8.247 2.856,8.262 C2.861,8.262 2.866,8.262 2.871,8.262 C2.871,8.277 2.871,8.291 2.871,8.306 C2.875,8.306 2.880,8.306 2.885,8.306 C2.885,8.316 2.885,8.326 2.885,8.335 C2.890,8.335 2.895,8.335 2.900,8.335 C2.905,8.365 2.910,8.394 2.915,8.424 C2.920,8.424 2.925,8.424 2.930,8.424 C2.939,8.453 2.949,8.482 2.959,8.512 C2.964,8.512 2.969,8.512 2.974,8.512 C2.974,8.522 2.974,8.531 2.974,8.541 C2.979,8.541 2.984,8.541 2.989,8.541 C2.989,8.551 2.989,8.561 2.989,8.571 C2.993,8.571 2.998,8.571 3.003,8.571 C3.003,8.580 3.003,8.590 3.003,8.600 C3.008,8.600 3.013,8.600 3.018,8.600 C3.018,8.610 3.018,8.620 3.018,8.629 C3.023,8.629 3.028,8.629 3.033,8.629 C3.043,8.659 3.052,8.688 3.062,8.718 C3.072,8.723 3.082,8.727 3.092,8.732 C3.097,8.752 3.102,8.772 3.107,8.791 C3.116,8.796 3.126,8.801 3.136,8.806 C3.136,8.816 3.136,8.825 3.136,8.835 C3.141,8.835 3.146,8.835 3.151,8.835 C3.156,8.850 3.161,8.865 3.166,8.879 C3.175,8.884 3.185,8.889 3.195,8.894 C3.195,8.904 3.195,8.914 3.195,8.923 C3.210,8.933 3.225,8.943 3.239,8.953 C3.239,8.963 3.239,8.972 3.239,8.982 C3.249,8.987 3.259,8.992 3.269,8.997 C3.274,9.012 3.279,9.026 3.284,9.041 C3.308,9.061 3.333,9.080 3.357,9.100 C3.450,9.228 3.543,9.357 3.593,9.526 C3.612,9.589 3.591,9.763 3.579,9.806 C3.579,9.830 3.579,9.855 3.579,9.879 C3.544,9.987 3.512,10.124 3.475,10.232 C3.470,10.271 3.466,10.310 3.461,10.349 C3.456,10.349 3.451,10.349 3.446,10.349 C3.441,10.389 3.436,10.428 3.431,10.467 C3.426,10.467 3.421,10.467 3.416,10.467 C3.416,10.487 3.416,10.506 3.416,10.526 C3.411,10.526 3.407,10.526 3.402,10.526 C3.402,10.545 3.402,10.565 3.402,10.585 C3.397,10.585 3.392,10.585 3.387,10.585 C3.387,10.604 3.387,10.624 3.387,10.643 C3.382,10.643 3.377,10.643 3.372,10.643 C3.372,10.663 3.372,10.683 3.372,10.702 C3.367,10.702 3.362,10.702 3.357,10.702 C3.357,10.717 3.357,10.732 3.357,10.746 C3.352,10.746 3.348,10.746 3.343,10.746 C3.333,10.800 3.323,10.854 3.313,10.908 C3.308,10.908 3.303,10.908 3.298,10.908 C3.289,10.937 3.279,10.967 3.269,10.996 C3.264,10.996 3.259,10.996 3.254,10.996 C3.249,11.016 3.244,11.035 3.239,11.055 C3.225,11.065 3.210,11.075 3.195,11.084 C3.195,11.094 3.195,11.104 3.195,11.114 C3.166,11.138 3.136,11.163 3.107,11.187 C3.102,11.197 3.097,11.207 3.092,11.217 C3.082,11.217 3.072,11.217 3.062,11.217 C3.057,11.227 3.052,11.236 3.048,11.246 C3.038,11.246 3.028,11.246 3.018,11.246 C3.013,11.256 3.008,11.266 3.003,11.276 C2.993,11.276 2.984,11.276 2.974,11.276 C2.974,11.280 2.974,11.285 2.974,11.290 C2.959,11.290 2.944,11.290 2.930,11.290 C2.930,11.295 2.930,11.300 2.930,11.305 C2.920,11.305 2.910,11.305 2.900,11.305 C2.900,11.310 2.900,11.315 2.900,11.320 C2.864,11.334 2.659,11.365 2.605,11.349 C2.605,11.344 2.605,11.339 2.605,11.334 C2.576,11.334 2.546,11.334 2.517,11.334 C2.517,11.329 2.517,11.325 2.517,11.320 C2.497,11.320 2.477,11.320 2.458,11.320 C2.458,11.315 2.458,11.310 2.458,11.305 C2.443,11.305 2.428,11.305 2.413,11.305 C2.413,11.300 2.413,11.295 2.413,11.290 C2.403,11.290 2.394,11.290 2.384,11.290 C2.384,11.285 2.384,11.280 2.384,11.276 C2.369,11.276 2.354,11.276 2.340,11.276 C2.340,11.271 2.340,11.266 2.340,11.261 C2.320,11.256 2.300,11.251 2.280,11.246 C2.280,11.241 2.280,11.236 2.280,11.231 C2.271,11.231 2.261,11.231 2.251,11.231 C2.251,11.227 2.251,11.222 2.251,11.217 C2.236,11.217 2.221,11.217 2.207,11.217 C2.207,11.212 2.207,11.207 2.207,11.202 C2.187,11.197 2.167,11.192 2.148,11.187 C2.148,11.182 2.148,11.178 2.148,11.173 C2.128,11.168 2.108,11.163 2.089,11.158 C2.084,11.148 2.079,11.138 2.074,11.129 C2.064,11.129 2.054,11.129 2.044,11.129 C2.044,11.124 2.044,11.119 2.044,11.114 C2.035,11.114 2.025,11.114 2.015,11.114 C2.015,11.109 2.015,11.104 2.015,11.099 C2.005,11.099 1.995,11.099 1.985,11.099 C1.985,11.094 1.985,11.089 1.985,11.084 C1.976,11.084 1.966,11.084 1.956,11.084 C1.951,11.075 1.946,11.065 1.941,11.055 C1.922,11.050 1.902,11.045 1.882,11.040 C1.877,11.031 1.872,11.021 1.867,11.011 C1.858,11.011 1.848,11.011 1.838,11.011 C1.838,11.006 1.838,11.001 1.838,10.996 C1.823,10.991 1.808,10.986 1.794,10.982 C1.789,10.972 1.784,10.962 1.779,10.952 C1.769,10.952 1.759,10.952 1.749,10.952 C1.740,10.937 1.730,10.923 1.720,10.908 C1.710,10.908 1.700,10.908 1.690,10.908 C1.686,10.898 1.681,10.888 1.676,10.879 C1.666,10.879 1.656,10.879 1.646,10.879 C1.631,10.859 1.617,10.839 1.602,10.820 C1.592,10.820 1.582,10.820 1.572,10.820 C1.558,10.800 1.543,10.781 1.528,10.761 C1.518,10.761 1.508,10.761 1.499,10.761 C1.469,10.727 1.440,10.692 1.410,10.658 C1.400,10.658 1.390,10.658 1.381,10.658 C1.361,10.634 1.341,10.609 1.322,10.585 C1.277,10.545 1.233,10.506 1.189,10.467 C1.189,10.457 1.189,10.447 1.189,10.438 C1.154,10.408 1.120,10.379 1.086,10.349 C1.086,10.340 1.086,10.330 1.086,10.320 C1.061,10.300 1.036,10.281 1.012,10.261 C1.007,10.247 1.002,10.232 0.997,10.217 C0.987,10.212 0.977,10.207 0.968,10.202 C0.968,10.193 0.968,10.183 0.968,10.173 C0.953,10.163 0.938,10.153 0.923,10.144 C0.918,10.129 0.914,10.114 0.909,10.100 C0.899,10.095 0.889,10.090 0.879,10.085 C0.879,10.075 0.879,10.065 0.879,10.055 C0.869,10.051 0.859,10.046 0.850,10.041 C0.845,10.026 0.840,10.011 0.835,9.997 C0.830,9.997 0.825,9.997 0.820,9.997 C0.820,9.987 0.820,9.977 0.820,9.967 C0.810,9.962 0.800,9.957 0.791,9.953 C0.786,9.938 0.781,9.923 0.776,9.908 C0.771,9.908 0.766,9.908 0.761,9.908 C0.756,9.889 0.751,9.869 0.746,9.850 C0.737,9.845 0.727,9.840 0.717,9.835 C0.712,9.815 0.707,9.796 0.702,9.776 C0.692,9.771 0.682,9.766 0.673,9.761 C0.673,9.752 0.673,9.742 0.673,9.732 C0.668,9.732 0.663,9.732 0.658,9.732 C0.658,9.722 0.658,9.712 0.658,9.703 C0.653,9.703 0.648,9.703 0.643,9.703 C0.643,9.693 0.643,9.683 0.643,9.673 C0.638,9.673 0.633,9.673 0.628,9.673 C0.628,9.663 0.628,9.654 0.628,9.644 C0.623,9.644 0.618,9.644 0.614,9.644 C0.614,9.634 0.614,9.624 0.614,9.614 C0.604,9.609 0.594,9.605 0.584,9.600 C0.569,9.556 0.555,9.511 0.540,9.467 C0.535,9.467 0.530,9.467 0.525,9.467 C0.525,9.458 0.525,9.448 0.525,9.438 C0.520,9.438 0.515,9.438 0.510,9.438 C0.500,9.409 0.491,9.379 0.481,9.350 C0.476,9.350 0.471,9.350 0.466,9.350 C0.466,9.335 0.466,9.320 0.466,9.306 C0.461,9.306 0.456,9.306 0.451,9.306 C0.446,9.286 0.441,9.266 0.437,9.247 C0.432,9.247 0.427,9.247 0.422,9.247 C0.422,9.232 0.422,9.217 0.422,9.203 C0.417,9.203 0.412,9.203 0.407,9.203 C0.407,9.193 0.407,9.183 0.407,9.173 C0.402,9.173 0.397,9.173 0.392,9.173 C0.387,9.144 0.382,9.115 0.378,9.085 C0.373,9.085 0.368,9.085 0.363,9.085 C0.363,9.075 0.363,9.066 0.363,9.056 C0.358,9.056 0.353,9.056 0.348,9.056 C0.338,9.012 0.328,8.968 0.319,8.923 C0.314,8.923 0.309,8.923 0.304,8.923 C0.304,8.909 0.304,8.894 0.304,8.879 C0.299,8.879 0.294,8.879 0.289,8.879 C0.289,8.865 0.289,8.850 0.289,8.835 C0.284,8.835 0.279,8.835 0.274,8.835 C0.274,8.821 0.274,8.806 0.274,8.791 C0.269,8.791 0.264,8.791 0.260,8.791 C0.255,8.757 0.250,8.723 0.245,8.688 C0.240,8.688 0.235,8.688 0.230,8.688 C0.225,8.654 0.220,8.620 0.215,8.585 C0.210,8.585 0.205,8.585 0.201,8.585 C0.196,8.546 0.191,8.507 0.186,8.468 C0.181,8.468 0.176,8.468 0.171,8.468 C0.171,8.443 0.171,8.419 0.171,8.394 C0.166,8.394 0.161,8.394 0.156,8.394 C0.156,8.375 0.156,8.355 0.156,8.335 C0.151,8.335 0.146,8.335 0.142,8.335 C0.142,8.311 0.142,8.286 0.142,8.262 C0.137,8.262 0.132,8.262 0.127,8.262 C0.117,8.179 0.107,8.095 0.097,8.012 C0.092,8.012 0.087,8.012 0.083,8.012 C0.083,7.983 0.083,7.953 0.083,7.924 C0.078,7.924 0.073,7.924 0.068,7.924 C0.068,7.885 0.068,7.845 0.068,7.806 C0.063,7.806 0.058,7.806 0.053,7.806 C0.053,7.762 0.053,7.718 0.053,7.674 C0.048,7.674 0.043,7.674 0.038,7.674 C0.038,7.625 0.038,7.576 0.038,7.527 C0.033,7.527 0.028,7.527 0.024,7.527 C0.024,7.448 0.024,7.370 0.024,7.292 C-0.007,7.180 -0.008,6.741 0.024,6.630 C0.033,6.473 0.043,6.316 0.053,6.160 C0.058,6.160 0.063,6.160 0.068,6.160 C0.068,6.125 0.068,6.091 0.068,6.057 C0.073,6.057 0.078,6.057 0.083,6.057 C0.083,6.022 0.083,5.988 0.083,5.954 C0.087,5.954 0.092,5.954 0.097,5.954 C0.097,5.929 0.097,5.905 0.097,5.880 C0.102,5.880 0.107,5.880 0.112,5.880 C0.112,5.851 0.112,5.822 0.112,5.792 C0.176,5.542 0.240,5.292 0.304,5.042 C0.466,4.596 0.643,4.152 0.879,3.778 C0.889,3.749 0.899,3.719 0.909,3.690 C0.918,3.685 0.928,3.680 0.938,3.675 C0.943,3.656 0.948,3.636 0.953,3.616 C0.963,3.612 0.973,3.607 0.982,3.602 C0.987,3.582 0.992,3.563 0.997,3.543 C1.002,3.543 1.007,3.543 1.012,3.543 C1.017,3.528 1.022,3.514 1.027,3.499 C1.036,3.494 1.046,3.489 1.056,3.484 C1.061,3.465 1.066,3.445 1.071,3.425 C1.076,3.425 1.081,3.425 1.086,3.425 C1.091,3.411 1.095,3.396 1.100,3.381 C1.110,3.376 1.120,3.371 1.130,3.367 C1.130,3.357 1.130,3.347 1.130,3.337 C1.135,3.337 1.140,3.337 1.145,3.337 C1.150,3.322 1.154,3.308 1.159,3.293 C1.169,3.288 1.179,3.283 1.189,3.278 C1.189,3.269 1.189,3.259 1.189,3.249 C1.204,3.239 1.218,3.229 1.233,3.219 C1.233,3.210 1.233,3.200 1.233,3.190 C1.238,3.190 1.243,3.190 1.248,3.190 C1.253,3.175 1.258,3.161 1.263,3.146 C1.272,3.141 1.282,3.136 1.292,3.131 C1.292,3.121 1.292,3.112 1.292,3.102 C1.307,3.092 1.322,3.082 1.336,3.072 C1.336,3.063 1.336,3.053 1.336,3.043 C1.351,3.033 1.366,3.023 1.381,3.014 C1.381,3.004 1.381,2.994 1.381,2.984 C1.395,2.974 1.410,2.965 1.425,2.955 C1.425,2.945 1.425,2.935 1.425,2.925 C1.445,2.911 1.464,2.896 1.484,2.881 C1.484,2.872 1.484,2.862 1.484,2.852 C1.504,2.837 1.523,2.823 1.543,2.808 C1.543,2.798 1.543,2.788 1.543,2.778 C1.568,2.759 1.592,2.739 1.617,2.720 C1.617,2.710 1.617,2.700 1.617,2.690 C1.646,2.666 1.676,2.641 1.705,2.617 C1.705,2.607 1.705,2.597 1.705,2.587 C1.745,2.553 1.784,2.519 1.823,2.484 C1.823,2.475 1.823,2.465 1.823,2.455 C1.872,2.411 1.922,2.367 1.971,2.323 C2.059,2.230 2.148,2.137 2.236,2.043 C2.246,2.043 2.256,2.043 2.266,2.043 C2.305,1.999 2.344,1.955 2.384,1.911 C2.394,1.911 2.403,1.911 2.413,1.911 C2.418,1.901 2.423,1.892 2.428,1.882 C2.433,1.882 2.438,1.882 2.443,1.882 C2.458,1.862 2.472,1.843 2.487,1.823 C2.497,1.823 2.507,1.823 2.517,1.823 C2.521,1.813 2.526,1.803 2.531,1.794 C2.536,1.794 2.541,1.794 2.546,1.794 C2.551,1.784 2.556,1.774 2.561,1.764 C2.571,1.764 2.580,1.764 2.590,1.764 C2.610,1.740 2.630,1.715 2.649,1.691 C2.659,1.691 2.669,1.691 2.679,1.691 C2.689,1.676 2.698,1.661 2.708,1.647 C2.718,1.647 2.728,1.647 2.738,1.647 C2.748,1.632 2.757,1.617 2.767,1.602 C2.777,1.602 2.787,1.602 2.797,1.602 C2.807,1.588 2.816,1.573 2.826,1.558 C2.836,1.558 2.846,1.558 2.856,1.558 C2.866,1.544 2.875,1.529 2.885,1.514 C2.895,1.514 2.905,1.514 2.915,1.514 C2.925,1.499 2.934,1.485 2.944,1.470 C2.954,1.470 2.964,1.470 2.974,1.470 C2.974,1.465 2.974,1.460 2.974,1.455 C2.989,1.450 3.003,1.446 3.018,1.441 C3.023,1.431 3.028,1.421 3.033,1.411 C3.043,1.411 3.052,1.411 3.062,1.411 C3.072,1.397 3.082,1.382 3.092,1.367 C3.102,1.367 3.111,1.367 3.121,1.367 C3.126,1.357 3.131,1.348 3.136,1.338 C3.151,1.333 3.166,1.328 3.180,1.323 C3.180,1.318 3.180,1.313 3.180,1.308 C3.190,1.308 3.200,1.308 3.210,1.308 C3.215,1.299 3.220,1.289 3.225,1.279 C3.244,1.274 3.264,1.269 3.284,1.264 C3.284,1.259 3.284,1.254 3.284,1.250 C3.298,1.245 3.313,1.240 3.328,1.235 C3.333,1.225 3.338,1.215 3.343,1.205 C3.362,1.201 3.382,1.196 3.402,1.191 C3.407,1.181 3.411,1.171 3.416,1.161 C3.436,1.156 3.456,1.152 3.475,1.147 C3.480,1.137 3.485,1.127 3.490,1.117 C3.510,1.112 3.529,1.107 3.549,1.103 C3.554,1.093 3.559,1.083 3.564,1.073 C3.574,1.073 3.584,1.073 3.593,1.073 C3.593,1.068 3.593,1.063 3.593,1.058 C3.603,1.058 3.613,1.058 3.623,1.058 C3.623,1.054 3.623,1.049 3.623,1.044 C3.633,1.044 3.643,1.044 3.652,1.044 C3.652,1.039 3.652,1.034 3.652,1.029 C3.662,1.029 3.672,1.029 3.682,1.029 C3.687,1.019 3.692,1.009 3.697,1.000 C3.716,0.995 3.736,0.990 3.756,0.985 C3.756,0.980 3.756,0.975 3.756,0.970 C3.765,0.970 3.775,0.970 3.785,0.970 C3.785,0.965 3.785,0.960 3.785,0.956 C3.795,0.956 3.805,0.956 3.815,0.956 C3.815,0.951 3.815,0.946 3.815,0.941 C3.824,0.941 3.834,0.941 3.844,0.941 C3.844,0.936 3.844,0.931 3.844,0.926 C3.854,0.926 3.864,0.926 3.874,0.926 C3.874,0.921 3.874,0.916 3.874,0.911 C3.893,0.907 3.913,0.902 3.933,0.897 C3.933,0.892 3.933,0.887 3.933,0.882 C3.952,0.877 3.972,0.872 3.992,0.867 C3.992,0.862 3.992,0.858 3.992,0.853 C4.002,0.853 4.011,0.853 4.021,0.853 C4.021,0.848 4.021,0.843 4.021,0.838 C4.031,0.838 4.041,0.838 4.051,0.838 C4.051,0.833 4.051,0.828 4.051,0.823 C4.061,0.823 4.070,0.823 4.080,0.823 C4.080,0.818 4.080,0.813 4.080,0.809 C4.090,0.809 4.100,0.809 4.110,0.809 C4.110,0.804 4.110,0.799 4.110,0.794 C4.139,0.784 4.169,0.774 4.198,0.764 C4.198,0.760 4.198,0.755 4.198,0.750 C4.223,0.745 4.247,0.740 4.272,0.735 C4.272,0.730 4.272,0.725 4.272,0.720 C4.292,0.715 4.311,0.711 4.331,0.706 C4.331,0.701 4.331,0.696 4.331,0.691 C4.346,0.691 4.360,0.691 4.375,0.691 C4.375,0.686 4.375,0.681 4.375,0.676 C4.395,0.671 4.415,0.666 4.434,0.662 C4.434,0.657 4.434,0.652 4.434,0.647 C4.449,0.647 4.464,0.647 4.478,0.647 C4.478,0.642 4.478,0.637 4.478,0.632 C4.488,0.632 4.498,0.632 4.508,0.632 C4.508,0.627 4.508,0.622 4.508,0.617 C4.523,0.617 4.537,0.617 4.552,0.617 C4.552,0.613 4.552,0.608 4.552,0.603 C4.562,0.603 4.572,0.603 4.582,0.603 C4.582,0.598 4.582,0.593 4.582,0.588 C4.611,0.583 4.641,0.578 4.670,0.573 C4.670,0.568 4.670,0.564 4.670,0.559 C4.680,0.559 4.690,0.559 4.700,0.559 C4.700,0.554 4.700,0.549 4.700,0.544 C4.714,0.544 4.729,0.544 4.744,0.544 C4.744,0.539 4.744,0.534 4.744,0.529 C4.759,0.529 4.774,0.529 4.788,0.529 C4.788,0.524 4.788,0.519 4.788,0.515 C4.798,0.515 4.808,0.515 4.818,0.515 C4.818,0.510 4.818,0.505 4.818,0.500 C4.862,0.490 4.906,0.480 4.951,0.470 C4.951,0.466 4.951,0.461 4.951,0.456 C4.965,0.456 4.980,0.456 4.995,0.456 C4.995,0.451 4.995,0.446 4.995,0.441 C5.010,0.441 5.024,0.441 5.039,0.441 C5.039,0.436 5.039,0.431 5.039,0.426 C5.054,0.426 5.069,0.426 5.083,0.426 C5.083,0.421 5.083,0.417 5.083,0.412 C5.098,0.412 5.113,0.412 5.128,0.412 C5.128,0.407 5.128,0.402 5.128,0.397 C5.177,0.387 5.226,0.377 5.275,0.368 C5.275,0.363 5.275,0.358 5.275,0.353 C5.309,0.348 5.344,0.343 5.378,0.338 C5.378,0.333 5.378,0.328 5.378,0.323 C5.418,0.319 5.457,0.314 5.496,0.309 C5.670,0.247 5.888,0.217 6.072,0.162 C6.101,0.162 6.131,0.162 6.160,0.162 C6.160,0.157 6.160,0.152 6.160,0.147 C6.185,0.147 6.209,0.147 6.234,0.147 C6.234,0.142 6.234,0.137 6.234,0.132 C6.263,0.132 6.293,0.132 6.322,0.132 C6.322,0.127 6.322,0.123 6.322,0.118 C6.357,0.118 6.391,0.118 6.426,0.118 C6.426,0.113 6.426,0.108 6.426,0.103 C6.455,0.103 6.485,0.103 6.514,0.103 C6.514,0.098 6.514,0.093 6.514,0.088 C6.554,0.088 6.593,0.088 6.632,0.088 C6.632,0.083 6.632,0.078 6.632,0.074 C6.672,0.074 6.711,0.074 6.750,0.074 C6.750,0.069 6.750,0.064 6.750,0.059 C6.794,0.059 6.839,0.059 6.883,0.059 C6.883,0.054 6.883,0.049 6.883,0.044 C6.937,0.044 6.991,0.044 7.045,0.044 C7.045,0.039 7.045,0.034 7.045,0.029 C7.148,0.025 7.252,0.020 7.355,0.015 C7.405,0.015 7.476,0.024 7.503,0.000 Z"/>
</svg>