<svg 
 xmlns="http://www.w3.org/2000/svg"
 xmlns:xlink="http://www.w3.org/1999/xlink"
 width="19px" height="15px">
<path fill-rule="evenodd" fill="rgb(148, 147, 161)"
 d="M18.368,2.423 C17.720,2.707 17.023,2.901 16.292,2.987 C17.038,2.544 17.611,1.843 17.882,1.007 C17.182,1.417 16.410,1.715 15.586,1.875 C14.926,1.180 13.986,0.746 12.947,0.746 C10.951,0.746 9.331,2.348 9.331,4.325 C9.331,4.605 9.363,4.878 9.425,5.140 C6.420,4.991 3.757,3.565 1.974,1.401 C1.662,1.930 1.483,2.544 1.483,3.200 C1.483,4.442 2.121,5.537 3.092,6.180 C2.499,6.160 1.942,5.999 1.455,5.732 C1.455,5.746 1.455,5.760 1.455,5.777 C1.455,7.511 2.700,8.957 4.354,9.286 C4.051,9.368 3.731,9.412 3.401,9.412 C3.169,9.412 2.942,9.389 2.721,9.347 C3.181,10.769 4.517,11.804 6.099,11.832 C4.862,12.793 3.303,13.364 1.609,13.364 C1.317,13.364 1.029,13.348 0.746,13.314 C2.346,14.330 4.247,14.922 6.288,14.922 C12.938,14.922 16.575,9.469 16.575,4.740 C16.575,4.584 16.570,4.431 16.564,4.277 C17.272,3.772 17.883,3.141 18.368,2.423 Z"/>
</svg>