<svg 
 xmlns="http://www.w3.org/2000/svg"
 xmlns:xlink="http://www.w3.org/1999/xlink"
 width="21px" height="15px">
<path fill-rule="evenodd" fill="rgb(148, 147, 161)"
 d="M20.640,2.358 C20.391,1.278 19.502,0.481 18.433,0.362 C15.902,0.080 13.339,0.078 10.788,0.080 C8.239,0.078 5.675,0.080 3.144,0.362 C2.074,0.481 1.188,1.278 0.938,2.358 C0.583,3.898 0.577,5.578 0.577,7.163 C0.577,8.747 0.577,10.427 0.934,11.965 C1.184,13.047 2.071,13.844 3.141,13.963 C5.670,14.244 8.234,14.246 10.785,14.244 C13.336,14.246 15.898,14.244 18.429,13.963 C19.498,13.844 20.385,13.047 20.636,11.965 C20.992,10.427 20.993,8.747 20.993,7.163 C20.993,5.578 20.996,3.898 20.640,2.358 ZM8.151,10.317 C8.151,8.069 8.151,5.845 8.151,3.596 C10.315,4.719 12.464,5.836 14.642,6.967 C12.471,8.087 10.321,9.197 8.151,10.317 Z"/>
</svg>