<?xml version="1.0" standalone="no"?>
<!DOCTYPE svg PUBLIC "-//W3C//DTD SVG 1.1//EN" "http://www.w3.org/Graphics/SVG/1.1/DTD/svg11.dtd" >
<svg xmlns="http://www.w3.org/2000/svg" xmlns:xlink="http://www.w3.org/1999/xlink" version="1.1">
<metadata>
Created by FontForge 20160405 at Fri Dec  8 06:56:42 2017
 By www-data
Copyright (c) 2010 Parachute :, www.parachute.gr.  All rights reserved.
</metadata>
<defs>
<font id="PFRegalDisplayPro-UBlack" horiz-adv-x="655" >
  <font-face 
    font-family="PF Regal Display Pro UBlack"
    font-weight="1000"
    font-stretch="normal"
    units-per-em="1000"
    panose-1="2 0 5 5 0 0 0 2 0 4"
    ascent="750"
    descent="-250"
    x-height="435"
    cap-height="674"
    bbox="-273 -357 1319 970"
    underline-thickness="60"
    underline-position="-100"
    stemh="20"
    stemv="218"
    unicode-range="U+0020-FB06"
  />
<missing-glyph horiz-adv-x="432" 
d="M2 0v700h429v-700h-429zM111 75h210l-105 200zM216 425l105 200h-211zM73 539v-377l101 188zM260 350l98 -188v378z" />
    <glyph glyph-name="f_t" unicode="ft" horiz-adv-x="739" 
d="M69 416h-55v18c19 1 37 2 56 4c0 139 111 299 286 299c66 0 134 -39 134 -116c0 -50 -35 -88 -86 -88c-64 0 -91 51 -91 107c0 26 7 55 19 77c-34 -7 -46 -46 -46 -127v-155h124c104 35 171 116 199 217h17v-216h100v-20h-99v-296c0 -51 17 -70 49 -70c17 0 34 5 55 16
l5 -16c-75 -58 -156 -65 -191 -65c-108 0 -137 61 -137 148v283h-121v-324c0 -82 55 -62 55 -86v-6h-329v6c0 24 56 5 56 86v324z" />
    <glyph glyph-name="f_f_t" unicode="fft" horiz-adv-x="1062" 
d="M69 92v324h-55v18l56 3c0 154 111 283 313 283c44 0 97 -17 127 -48c47 42 108 71 180 71c66 0 133 -39 133 -116c0 -50 -35 -88 -85 -88c-65 0 -92 48 -92 103c0 28 7 56 20 81c-34 -7 -48 -46 -48 -127v-161h112c105 35 172 116 202 217h17v-216h99v-20h-99v-296
c0 -50 17 -70 49 -70c18 0 33 5 56 16l4 -16c-74 -58 -155 -65 -190 -65c-108 0 -137 61 -137 148v283h-112v-324c0 -81 56 -62 56 -86v-6h-321v6c0 24 49 4 49 86v324h-117v-324c0 -83 48 -63 48 -86v-6h-321v6c0 24 56 5 56 86zM286 555v-119h117c0 29 4 60 15 93
c-44 17 -63 57 -63 100c0 24 5 47 15 72c-52 -3 -84 -36 -84 -146z" />
    <glyph glyph-name="fj" unicode="fj" horiz-adv-x="667" 
d="M617 83c0 -91 -30 -199 -127 -259c-50 -31 -93 -51 -174 -51c-74 0 -140 28 -140 93c0 43 34 84 83 84c67 0 106 -64 100 -151c36 14 40 53 40 98v453c0 27 -4 66 -62 66h-51c0 -107 1 -216 1 -324c0 -89 46 -57 46 -86v-6h-320v6c0 30 56 -2 56 86v324h-54v18l56 3
c0 154 102 301 324 301c87 0 167 -40 167 -125c0 -51 -38 -96 -95 -96c-72 0 -105 53 -105 118c0 26 6 53 19 81c-58 -5 -95 -38 -95 -143v-137h25c63 0 252 11 300 20l6 -7v-366z" />
    <glyph glyph-name="ffj" unicode="ffj" horiz-adv-x="1023" 
d="M287 554v-118h117c0 19 0 58 13 93c-43 17 -62 59 -62 103c0 23 6 48 15 68c-52 -6 -83 -36 -83 -146zM621 416v-324c0 -88 48 -57 48 -86v-6h-315v6c0 29 50 -2 50 86v324h-116v-324c0 -88 48 -57 48 -86v-6h-323v6c0 24 56 5 56 86v324h-55v18l56 3
c0 154 111 283 313 283c45 0 99 -16 129 -49c53 41 125 67 219 67c87 0 167 -38 167 -123c0 -54 -37 -97 -94 -97c-70 0 -105 52 -105 115c0 27 5 55 17 83c-58 -5 -95 -38 -95 -143v-137h25c63 0 252 11 300 20l6 -7v-366c0 -91 -30 -199 -127 -259
c-50 -31 -93 -51 -174 -51c-74 0 -140 28 -140 93c0 43 34 84 83 84c67 0 106 -64 100 -151c36 14 40 53 40 98v453c0 27 -4 66 -62 66h-51z" />
    <glyph glyph-name="fb" unicode="fb" horiz-adv-x="981" 
d="M618 760v-224c0 -37 -4 -121 -31 -171c2 0 3 -1 5 -1c36 74 107 94 159 94c97 0 201 -75 201 -234c0 -117 -73 -238 -211 -238c-58 0 -118 13 -149 70c-61 -14 -120 -40 -173 -83h-19v681c0 46 -17 62 -41 62c-49 0 -73 -49 -73 -141v-139h75v-20h-75v-324
c0 -89 47 -57 47 -86v-6h-318v6c0 30 53 -2 54 86v324h-55v18l56 3c0 154 104 301 326 301c10 0 20 -1 30 -2l188 28zM657 396c-19 0 -39 -16 -51 -41v-289c8 -15 28 -34 51 -34c42 0 59 43 59 185c0 115 -12 179 -59 179z" />
    <glyph glyph-name="ffb" unicode="ffb" horiz-adv-x="1315" 
d="M953 758c1 -74 -1 -148 -1 -222c0 -37 -5 -121 -32 -171c2 0 3 -1 5 -1c37 74 108 94 160 94c97 0 200 -75 200 -234c0 -117 -72 -238 -211 -238c-57 0 -118 13 -148 70c-61 -14 -121 -40 -174 -83h-19v673c0 54 -17 71 -40 71c-50 0 -74 -49 -74 -141v-140h79v-20h-79
v-324c0 -89 48 -57 48 -86v-6h-314v6c0 29 49 -2 49 86v324h-116v-324c0 -88 48 -57 48 -86v-6h-321v6c0 24 56 5 56 86v324h-55v18l56 3c0 154 111 283 310 283c47 0 101 -18 131 -50c46 38 121 67 213 67c11 0 23 0 35 -1l188 28zM286 555v-119h116c0 29 4 61 15 93
c-43 17 -60 57 -60 99c0 25 4 48 13 73c-52 -3 -84 -36 -84 -146zM991 396c-19 0 -39 -16 -52 -41v-289c8 -15 29 -34 52 -34c42 0 59 43 59 185c0 115 -12 179 -59 179z" />
    <glyph glyph-name="fh" unicode="fh" horiz-adv-x="997" 
d="M614 342v-250c0 -82 38 -63 38 -86v-6h-301v6c0 23 49 2 49 86v537c0 64 -11 87 -41 87c-55 0 -73 -58 -73 -164v-116h75v-20h-75v-324c0 -85 45 -63 45 -86v-6h-316v6c0 23 52 4 54 86v324h-55v18l56 3c0 154 104 301 326 301c10 0 20 -1 30 -2l188 28c1 -2 2 -3 4 -4
v-263c0 -44 -6 -100 -21 -143h4c49 87 132 103 184 103c76 0 148 -37 148 -141v-230c0 -76 49 -57 49 -79v-7h-308v8c0 18 41 3 41 71v263c0 37 -15 53 -35 53c-22 0 -48 -20 -66 -53z" />
    <glyph glyph-name="ffh" unicode="ffh" horiz-adv-x="1331" 
d="M716 738c10 0 33 -2 43 -3l188 28c1 -2 2 -3 4 -4v-263c0 -44 -6 -100 -21 -143h4c49 87 132 103 184 103c76 0 148 -37 148 -141v-229c0 -76 49 -57 49 -79v-7h-308v8c0 18 41 3 41 71v262c0 37 -15 53 -35 53c-22 0 -48 -20 -66 -53v-249c0 -82 38 -63 38 -86v-6h-301
v6c0 23 49 2 49 86v536c0 64 -11 87 -41 87c-50 0 -73 -48 -73 -139v-140h79v-20h-79v-324c0 -84 48 -62 48 -86v-6h-313v6c0 23 48 3 48 86v324h-116v-324c0 -83 48 -63 48 -86v-6h-321v6c0 24 56 5 56 86v324h-55v18l56 3c0 154 111 283 310 283c47 0 101 -18 131 -50
c45 35 117 68 205 68zM286 555v-119h116c0 29 4 61 15 93c-44 18 -60 59 -60 103c0 22 5 47 13 69c-52 -3 -84 -36 -84 -146z" />
    <glyph glyph-name="fk" unicode="fk" horiz-adv-x="983" 
d="M618 760v-544h26c33 35 70 68 103 103l24 25c12 13 17 23 17 30c0 39 -95 30 -95 52v10h261v-7c0 -26 -77 -5 -149 -77l-24 -24l98 -199c62 -126 106 -95 106 -122v-7h-263c-26 66 -56 129 -90 197h-14v-109c0 -79 43 -58 43 -81v-7h-317v6c0 24 56 5 56 86v537
c0 64 -11 87 -41 87c-49 0 -73 -49 -73 -141v-139h75v-20h-75v-324c0 -82 44 -62 44 -86v-6h-315v6c0 24 54 4 54 86v324h-55v18l56 3c0 154 104 301 326 301c10 0 20 -1 30 -2l188 28z" />
    <glyph glyph-name="ffk" unicode="ffk" horiz-adv-x="1315" 
d="M721 737c10 0 29 0 39 -1l188 28l4 -4v-544h26c33 35 70 68 103 103l24 25c12 13 17 23 17 30c0 39 -95 30 -95 52v10h261v-7c0 -26 -77 -5 -149 -77l-24 -24l98 -199c62 -126 106 -95 106 -122v-7h-263c-26 66 -56 129 -90 197h-14v-109c0 -79 43 -58 43 -81v-7h-317v6
c0 24 56 5 56 86v537c0 64 -11 88 -41 88c-50 0 -74 -49 -74 -141v-140h79v-20h-79v-324c0 -84 48 -62 48 -86v-6h-314v6c0 24 49 4 49 86v324h-116v-324c0 -83 48 -63 48 -86v-6h-321v6c0 24 56 5 56 86v324h-55v18l56 3c0 154 111 283 310 283c47 0 101 -18 131 -50
c46 38 120 67 210 67zM286 555v-119h116c0 29 4 61 15 93c-43 17 -60 58 -60 101c0 25 4 47 13 71c-52 -3 -84 -36 -84 -146z" />
    <glyph glyph-name="f_y" unicode="fy" horiz-adv-x="917" 
d="M431 -227c-61 0 -109 38 -109 95c0 51 39 89 88 89c71 0 103 -62 109 -111c18 16 58 77 80 133l7 18l-17 1l-183 342c-37 68 -47 76 -87 76h-32v-324c0 -82 55 -62 55 -86v-6h-329v6c0 24 56 5 56 86v324h-55v18c19 1 37 2 56 4c0 139 111 299 286 299
c66 0 134 -39 134 -116c0 -50 -35 -88 -86 -88c-64 0 -91 51 -91 107c0 26 7 55 19 77c-24 -5 -46 -34 -46 -86v-196h399v-9c0 -20 -57 -8 -57 -46c-1 -11 4 -24 14 -43l72 -130l63 138c6 13 8 22 8 30c0 45 -61 28 -61 51v9h187v-8c0 -23 -70 2 -119 -100l-182 -377
c-44 -91 -101 -177 -179 -177z" />
    <glyph glyph-name="f_f_y" unicode="ffy" horiz-adv-x="1249" 
d="M286 555v-119h117c0 31 5 62 15 93c-41 15 -59 54 -59 98c0 21 4 53 11 74c-52 -3 -84 -36 -84 -146zM619 416v-324c0 -81 56 -62 56 -86v-6h-321v6c0 24 49 4 49 86v324h-117v-324c0 -83 48 -63 48 -86v-6h-321v6c0 24 56 5 56 86v324h-55v18l56 3
c0 154 111 283 313 283c44 0 97 -17 127 -48c47 42 108 71 180 71c66 0 133 -39 133 -116c0 -52 -37 -88 -85 -88c-64 0 -91 51 -91 107c0 26 7 55 19 77c-34 -7 -48 -46 -48 -127v-161h399v-9c0 -20 -57 -8 -57 -46c-1 -11 4 -24 14 -43l72 -130l63 138c6 13 8 22 8 30
c0 45 -61 28 -61 51v9h187v-8c0 -23 -70 2 -119 -100l-182 -377c-44 -91 -101 -177 -179 -177c-61 0 -109 38 -109 95c0 51 39 89 88 89c71 0 103 -62 109 -111c18 16 58 77 80 133l7 18l-17 1l-183 342c-37 68 -47 76 -87 76h-32z" />
    <glyph glyph-name="k_y" unicode="ky" horiz-adv-x="1169" 
d="M838 7l-176 325c-17 31 -45 81 -84 81c-26 0 -57 -12 -99 -52l-32 -30l95 -202c58 -124 106 -97 106 -122v-7h-261l-89 197h-14v-109c0 -79 44 -58 44 -81v-7h-318v6c0 24 56 5 56 86v522c0 75 -58 52 -58 74v7c90 13 180 26 270 38l6 -6v-511h21l137 136
c13 12 16 22 16 29c-3 31 -71 24 -71 45v9h549v-9c0 -20 -57 -8 -57 -49c0 -10 5 -23 14 -40l68 -127h3l49 100c13 27 18 46 18 60c0 55 -61 34 -61 56v9h198v-8c0 -23 -73 3 -134 -123l-173 -357c-45 -92 -96 -178 -186 -178c-67 0 -106 42 -106 97c0 47 37 87 90 87
c71 0 107 -57 113 -107c19 18 47 63 75 120l19 41h-28z" />
    <glyph glyph-name="longs_b" unicode="&#x17f;b" horiz-adv-x="981" 
d="M618 760v-224c0 -37 -4 -121 -31 -171c2 0 3 -1 5 -1c36 74 107 94 159 94c97 0 201 -75 201 -234c0 -117 -73 -238 -211 -238c-58 0 -118 13 -149 70c-61 -14 -120 -40 -173 -83h-19v681c0 46 -17 62 -41 62c-49 0 -73 -49 -73 -141v-483c0 -89 47 -57 47 -86v-6h-318v6
c0 30 53 -2 54 86v324h-55v18l56 3c0 154 104 301 326 301c10 0 20 -1 30 -2l188 28zM657 396c-19 0 -39 -16 -51 -41v-289c8 -15 28 -34 51 -34c42 0 59 43 59 185c0 115 -12 179 -59 179z" />
    <glyph glyph-name="longs_h" unicode="&#x17f;h" horiz-adv-x="997" 
d="M614 342v-250c0 -82 38 -63 38 -86v-6h-301v6c0 23 49 2 49 86v537c0 64 -11 87 -41 87c-55 0 -73 -58 -73 -164v-460c0 -85 45 -63 45 -86v-6h-316v6c0 23 52 4 54 86v324h-55v18l56 3c0 154 104 301 326 301c10 0 20 -1 30 -2l188 28c1 -2 2 -3 4 -4v-263
c0 -44 -6 -100 -21 -143h4c49 87 132 103 184 103c76 0 148 -37 148 -141v-230c0 -76 49 -57 49 -79v-7h-308v8c0 18 41 3 41 71v263c0 37 -15 53 -35 53c-22 0 -48 -20 -66 -53z" />
    <glyph glyph-name="longs_i" unicode="&#x17f;i" horiz-adv-x="689" 
d="M286 573c0 -160 1 -320 1 -481c0 -90 43 -58 43 -86v-6h-317v6c0 24 56 5 56 86v324h-55v18l56 3c0 154 102 301 324 301c88 0 167 -38 167 -123c0 -54 -35 -96 -92 -96c-69 0 -107 49 -107 112c0 28 5 56 18 85c-58 -5 -94 -38 -94 -143zM613 458l6 -7v-359
c0 -82 55 -62 55 -86v-6h-323v6c0 24 50 4 50 86v243c0 75 -58 52 -58 74v8c90 13 181 27 270 41z" />
    <glyph glyph-name="longs_k" unicode="&#x17f;k" horiz-adv-x="983" 
d="M618 760v-544h26c33 35 70 68 103 103l24 25c12 13 17 23 17 30c0 39 -95 30 -95 52v10h261v-7c0 -26 -77 -5 -149 -77l-24 -24l98 -199c62 -126 106 -95 106 -122v-7h-263c-26 66 -56 129 -90 197h-14v-109c0 -79 43 -58 43 -81v-7h-317v6c0 24 56 5 56 86v537
c0 64 -11 87 -41 87c-49 0 -73 -49 -73 -141v-483c0 -82 44 -62 44 -86v-6h-315v6c0 24 54 4 54 86v324h-55v18l56 3c0 154 104 301 326 301c10 0 20 -1 30 -2l188 28z" />
    <glyph glyph-name="longs_l" unicode="&#x17f;l" horiz-adv-x="685" 
d="M400 654c0 46 -17 62 -41 62c-55 0 -73 -58 -73 -164v-460c0 -83 47 -62 47 -86v-6h-318v6c0 23 54 4 54 86v324h-55v18l56 3c0 154 104 301 326 301c10 0 20 -1 30 -2l188 28c1 -2 2 -3 4 -4v-668c0 -82 54 -62 54 -86v-6h-318v6c0 24 46 3 46 86v562z" />
    <glyph glyph-name="longs_longs" unicode="&#x17f;&#x17f;" horiz-adv-x="716" 
d="M286 555v-463c0 -83 48 -63 48 -86v-6h-321v6c0 24 56 5 56 86v324h-55v18l56 3c0 154 111 283 313 283c44 0 97 -17 127 -48c47 42 108 71 180 71c66 0 133 -39 133 -116c0 -50 -35 -88 -85 -88c-65 0 -93 49 -93 104c0 27 7 55 21 80c-35 -7 -47 -47 -47 -130v-501
c0 -81 56 -62 56 -86v-6h-321v6c0 24 49 4 49 86v324h-55v18l55 3c0 32 5 61 15 92c-46 18 -62 58 -62 104c0 22 6 45 14 68c-52 -3 -84 -36 -84 -146z" />
    <glyph glyph-name="longs_longs_i" unicode="&#x17f;&#x17f;i" horiz-adv-x="1022" 
d="M620 575v-483c0 -83 47 -62 47 -86v-6h-311v6c0 24 48 5 48 86v324h-56v18l56 3c0 32 4 62 13 92c-42 17 -62 57 -62 101c0 23 5 48 15 70c-52 -6 -83 -36 -83 -146v-462c0 -82 49 -62 49 -86v-6h-323v6c0 24 56 5 56 86v324h-55v18l56 3c0 154 111 283 313 283
c52 0 100 -17 130 -49c52 41 124 67 217 67c87 0 167 -38 167 -123c0 -54 -35 -96 -92 -96c-70 0 -106 48 -106 112c0 28 4 56 16 85c-58 -5 -95 -40 -95 -141zM945 458c3 -3 4 -5 7 -7v-359c0 -82 54 -62 54 -86v-6h-321v6c0 23 48 3 48 86v243c0 75 -58 52 -58 74v8
c90 13 181 27 270 41z" />
    <glyph glyph-name="longs_longs_l" unicode="&#x17f;&#x17f;l" horiz-adv-x="1019" 
d="M286 555v-463c0 -83 48 -63 48 -86v-6h-321v6c0 24 56 5 56 86v324h-55v18l56 3c0 154 111 283 310 283c50 0 101 -18 131 -50c45 35 117 68 205 68c14 0 28 -1 43 -2l188 28l6 -6v-666c0 -82 53 -62 53 -86v-6h-321v6c0 24 48 2 48 86v554c0 54 -17 71 -40 71
c-50 0 -74 -49 -74 -141v-484c0 -84 48 -62 48 -86v-6h-314v6c0 24 49 4 49 86v324h-54v18l54 3c0 29 4 60 15 92c-41 17 -62 54 -62 95c0 26 5 51 15 77c-52 -3 -84 -36 -84 -146z" />
    <glyph glyph-name="longs_s" unicode="&#x17f;s" horiz-adv-x="852" 
d="M286 573c0 -160 1 -320 1 -481c0 -83 53 -62 53 -86v-6h-327v6c0 24 56 5 56 86v324h-55v18l56 3c0 154 102 301 324 301c88 0 167 -41 167 -126c0 -52 -35 -93 -92 -93c-70 0 -108 51 -108 114c0 27 5 55 19 83c-58 -5 -94 -38 -94 -143zM593 458
c155 0 214 -56 214 -115c0 -45 -31 -69 -67 -69c-59 0 -89 43 -89 92c0 18 5 47 13 65c-4 0 -10 1 -15 1c-41 0 -80 -20 -80 -67c0 -85 260 -101 260 -239c0 -98 -113 -141 -255 -141c-174 0 -227 63 -227 115c0 48 34 69 68 69c58 0 86 -47 86 -96c0 -20 -4 -44 -13 -61
c16 -4 31 -6 44 -6c49 0 77 25 77 64c0 81 -243 100 -243 231c0 112 103 157 227 157z" />
    <glyph glyph-name="t_y" unicode="ty" horiz-adv-x="899" 
d="M278 416l-1 -296c0 -51 20 -71 51 -71c14 0 33 5 54 17l5 -16c-75 -58 -155 -65 -190 -65c-109 0 -137 61 -137 148v283h-51v17l55 6c103 34 168 113 196 213h17v-217h399v-9c0 -20 -57 -8 -57 -46c-1 -11 4 -24 14 -43l72 -130l63 138c6 13 8 22 8 30
c0 45 -61 28 -61 51v9h187v-8c0 -23 -70 2 -119 -100l-182 -377c-44 -91 -101 -177 -179 -177c-61 0 -109 38 -109 95c0 51 39 89 88 89c71 0 103 -62 109 -111c18 16 58 77 80 133l7 18l-17 1l-183 342c-37 68 -47 76 -87 76h-32z" />
    <glyph glyph-name="t_w" unicode="tw" horiz-adv-x="1143" 
d="M277 436h369v-8c0 -17 -44 -8 -44 -45c0 -9 2 -26 11 -45l47 -102h4l42 104c9 21 12 37 12 47c0 36 -47 20 -47 43v6h254v-8c0 -18 -35 -9 -35 -41c0 -10 4 -24 13 -45l48 -107h4l35 83c10 24 15 45 15 58c0 44 -57 30 -57 50v10h190v-8c-1 -24 -77 0 -131 -123
l-143 -322l-20 -2c-47 99 -96 205 -136 302h-2l-134 -300l-21 -2l-176 382c-20 43 -36 53 -80 53h-18v-296c0 -51 20 -71 51 -71c14 0 33 5 54 17l5 -16c-75 -58 -155 -65 -190 -65c-109 0 -137 61 -137 148v283h-51v17l55 6c103 34 168 113 196 213h17v-216z" />
    <glyph glyph-name="ff" unicode="ff" horiz-adv-x="716" 
d="M69 92v324h-55v18l56 3c0 154 111 283 313 283c44 0 97 -17 127 -48c47 42 108 71 180 71c66 0 133 -39 133 -116c0 -50 -34 -88 -84 -88c-68 0 -93 49 -93 104c0 28 8 56 20 80c-34 -7 -48 -46 -48 -127v-160h98v-20h-97v-324c0 -81 56 -62 56 -86v-6h-321v6
c0 24 49 4 49 86v324h-117v-324c0 -83 48 -63 48 -86v-6h-321v6c0 24 56 5 56 86zM286 555v-119h117c0 29 4 60 15 93c-44 17 -62 58 -62 101c0 24 6 48 14 71c-52 -3 -84 -36 -84 -146z" />
    <glyph glyph-name="f_i" unicode="fi" horiz-adv-x="689" 
d="M69 92v324h-55v18l56 3c0 154 102 301 324 301c88 0 167 -38 167 -123c0 -54 -35 -96 -92 -96c-69 0 -105 51 -105 115c0 27 4 55 16 82c-58 -5 -94 -38 -94 -143v-137h25c62 0 253 11 301 20l6 -7v-357c0 -81 56 -62 56 -86v-6h-322v6c0 23 48 3 48 86v258
c0 27 -6 66 -64 66h-50c0 -107 1 -216 1 -324c0 -82 46 -62 46 -86v-6h-320v6c0 24 56 5 56 86z" />
    <glyph glyph-name="f_l" unicode="fl" horiz-adv-x="685" 
d="M400 654c0 46 -17 62 -41 62c-55 0 -73 -58 -73 -164v-116h75v-20h-75v-324c0 -83 47 -62 47 -86v-6h-318v6c0 23 54 4 54 86v324h-55v18l56 3c0 154 104 301 326 301c10 0 20 -1 30 -2l188 28c1 -2 2 -3 4 -4v-668c0 -82 54 -62 54 -86v-6h-318v6c0 24 46 3 46 86v562z
" />
    <glyph glyph-name="ffi" unicode="ffi" horiz-adv-x="1023" 
d="M404 92v324h-116v-324c0 -83 48 -63 48 -86v-6h-323v6c0 24 56 5 56 86v324h-55v18l56 3c0 154 111 283 313 283c45 0 99 -16 129 -49c53 41 125 67 219 67c87 0 167 -38 167 -123c0 -54 -35 -96 -92 -96c-73 0 -107 54 -107 119c0 26 6 52 17 78
c-58 -5 -95 -38 -95 -143v-137h25c63 0 253 11 302 20c2 -3 4 -4 6 -6v-358c0 -82 55 -62 55 -86v-6h-321v6c0 23 47 3 47 86v258c0 27 -5 66 -63 66h-51v-324c0 -83 48 -63 48 -86v-6h-315v6c0 24 50 4 50 86zM287 554v-118h117c0 19 0 58 13 93c-43 17 -62 59 -62 103
c0 23 6 48 15 68c-52 -6 -83 -36 -83 -146z" />
    <glyph glyph-name="ffl" unicode="ffl" horiz-adv-x="1019" 
d="M733 646c0 54 -17 71 -40 71c-50 0 -74 -49 -74 -141v-140h79v-20h-79v-324c0 -84 48 -62 48 -86v-6h-314v6c0 24 49 4 49 86v324h-116v-324c0 -83 48 -63 48 -86v-6h-321v6c0 24 56 5 56 86v324h-55v18l56 3c0 154 111 283 310 283c47 0 101 -18 131 -50
c45 35 117 68 205 68c14 0 28 -1 43 -2l188 28l6 -6v-666c0 -82 53 -62 53 -86v-6h-321v6c0 24 48 2 48 86v554zM286 555v-119h116c0 29 4 61 15 93c-43 17 -61 58 -61 101c0 24 6 48 14 71c-52 -3 -84 -36 -84 -146z" />
    <glyph glyph-name="longs_t" unicode="&#x17f;t" horiz-adv-x="739" 
d="M69 416h-55v18c19 1 37 2 56 4c0 139 111 299 286 299c66 0 134 -39 134 -116c0 -50 -35 -88 -86 -88c-61 0 -93 47 -93 100c0 29 6 57 21 84c-34 -7 -46 -48 -46 -133v-492c0 -81 56 -62 56 -86v-6h-329v6c0 24 54 5 56 86v324zM545 -15c-102 0 -133 55 -137 132v299
h-50v17l55 6c103 34 168 113 196 213h17v-216h99v-20h-99v-296c0 -51 19 -71 51 -71c14 0 32 5 54 17l4 -16c-74 -58 -155 -65 -190 -65z" />
    <glyph glyph-name=".notdef" horiz-adv-x="432" 
d="M2 0v700h429v-700h-429zM111 75h210l-105 200zM216 425l105 200h-211zM73 539v-377l101 188zM260 350l98 -188v378z" />
    <glyph glyph-name="exclam" unicode="!" horiz-adv-x="396" 
d="M212 216h-23l-114 349c-21 62 18 156 124 156c111 0 143 -92 121 -160zM103 81c0 53 44 97 96 97c54 0 97 -44 97 -97s-43 -97 -97 -97c-52 0 -96 44 -96 97z" />
    <glyph glyph-name="quotedbl" unicode="&#x22;" horiz-adv-x="406" 
d="M132 395h-19l-63 231c-10 40 13 88 71 88c60 0 79 -47 68 -91zM296 395h-18l-62 231c-11 40 11 88 70 88c61 0 80 -47 68 -91z" />
    <glyph glyph-name="numbersign" unicode="#" 
d="M342 30l30 184h-140l-31 -184h-47l32 184h-87v47h94l24 146h-90v46h98l28 173h46l-28 -173h140l29 173h47l-30 -173h88v-46h-96l-24 -146h93v-47h-100l-31 -184h-45zM263 407l-24 -146h140l24 146h-140z" />
    <glyph glyph-name="dollar" unicode="$" 
d="M342 -92v836h19v-70c169 -8 219 -79 219 -139c0 -53 -39 -84 -83 -84c-58 0 -91 47 -91 110c0 29 5 62 15 87c-18 4 -38 6 -60 7v-196c109 -55 251 -122 251 -259c0 -107 -85 -197 -251 -210v-82h-19zM416 101c0 32 -23 61 -55 85v-169c41 14 55 49 55 84zM294 744v-836
h-19v81c-180 10 -240 103 -240 173c0 56 40 89 85 89c68 0 95 -60 95 -121c0 -39 -11 -79 -30 -105c21 -11 59 -17 90 -18v226c-103 53 -228 114 -228 234c0 125 102 192 228 205v72h19zM222 577c0 -30 22 -53 53 -74v144c-29 -10 -53 -34 -53 -70z" />
    <glyph glyph-name="ampersand" unicode="&#x26;" horiz-adv-x="901" 
d="M439 -35c-258 0 -392 104 -392 229c0 88 57 216 321 222v4c-227 0 -266 79 -266 141c0 92 109 160 286 160c171 0 232 -74 232 -135c0 -54 -38 -85 -84 -85c-66 0 -90 61 -90 119c0 24 7 53 15 73c-13 3 -24 3 -34 3c-75 -2 -95 -74 -95 -131c0 -116 78 -131 127 -136
l-1 -21c-87 -12 -150 -84 -150 -210c0 -119 30 -210 155 -210c186 0 293 116 293 248c0 78 -47 139 -140 139s-134 -40 -134 -87c0 -44 34 -81 103 -81c-3 8 -5 22 -5 32c0 33 17 63 52 63c26 0 42 -21 42 -45c0 -46 -42 -68 -86 -68c-79 0 -126 40 -126 104
c0 221 376 146 376 247c0 30 -32 43 -64 43c-12 0 -23 -2 -30 -5c4 -10 7 -21 7 -32c0 -29 -18 -57 -51 -57c-19 0 -37 14 -37 39c0 48 64 73 107 73c71 0 102 -36 102 -78c0 -35 -18 -106 -153 -142c44 -45 56 -87 56 -142c0 -125 -91 -274 -336 -274z" />
    <glyph glyph-name="quotesingle" unicode="'" horiz-adv-x="258" 
d="M141 395h-19l-62 231c-11 40 12 88 70 88c61 0 80 -47 69 -91z" />
    <glyph glyph-name="parenleft" unicode="(" horiz-adv-x="386" 
d="M47 262c0 174 105 376 308 485l8 -11c-120 -95 -155 -316 -155 -472c0 -165 33 -358 152 -458l-9 -12c-205 111 -304 294 -304 468z" />
    <glyph glyph-name="parenright" unicode=")" horiz-adv-x="386" 
d="M338 262c0 -174 -99 -357 -304 -468l-8 13c118 100 151 291 151 457c0 156 -35 377 -155 472c3 4 6 7 8 11c203 -109 308 -311 308 -485z" />
    <glyph glyph-name="asterisk" unicode="*" horiz-adv-x="428" 
d="M214 715c37 0 54 -23 54 -45c0 -5 -1 -9 -3 -14l-43 -105h-15l-45 105c-1 5 -3 11 -3 16c0 25 26 43 55 43zM38 563c0 43 28 63 49 63c10 0 18 -4 25 -10l81 -78l-5 -14c-31 -2 -103 -8 -103 -8c-28 -2 -47 17 -47 47zM85 409c0 14 7 27 17 34l93 68l11 -7l-20 -117
c-4 -25 -22 -35 -41 -35c-35 0 -60 35 -60 57zM391 562c0 -29 -16 -48 -39 -46l-111 8l-4 14l80 78c7 6 15 9 25 9c23 0 49 -20 49 -63zM345 410c0 -30 -32 -57 -61 -57c-22 0 -36 13 -39 32l-22 117l12 9l93 -67c9 -7 17 -20 17 -34z" />
    <glyph glyph-name="plus" unicode="+" 
d="M365 526v-188h185v-57h-185v-201h-54v201h-185v57h185v188h54z" />
    <glyph glyph-name="comma" unicode="," horiz-adv-x="271" 
d="M133 189c67 0 99 -58 99 -111c0 -98 -65 -229 -155 -299l-12 15c70 69 108 156 115 217c-14 -10 -35 -13 -50 -13c-58 0 -92 41 -92 93c0 48 37 98 95 98z" />
    <glyph glyph-name="hyphen" unicode="-" horiz-adv-x="351" 
d="M40 286h273v-80h-273v80z" />
    <glyph glyph-name="period" unicode="." horiz-adv-x="272" 
d="M37 89c0 56 44 101 98 101c56 0 100 -45 100 -101c0 -55 -44 -99 -100 -99c-54 0 -98 44 -98 99z" />
    <glyph glyph-name="slash" unicode="/" horiz-adv-x="296" 
d="M296 737l-259 -818h-38l259 818h38z" />
    <glyph glyph-name="zero" unicode="0" 
d="M25 335c0 183 104 343 301 343c223 0 304 -180 304 -343c0 -167 -92 -350 -305 -350c-210 0 -300 173 -300 350zM265 329c0 -240 10 -327 64 -327c51 0 61 92 61 327c0 232 -9 331 -63 331c-52 0 -62 -132 -62 -331z" />
    <glyph glyph-name="one" unicode="1" 
d="M439 677v-584c0 -83 84 -62 84 -86v-7h-389v6c0 24 84 6 84 86l-1 456c0 69 -84 26 -87 59l-1 9l304 68z" />
    <glyph glyph-name="two" unicode="2" 
d="M528 0h-513l-3 10c128 219 290 241 290 467c0 75 -23 167 -106 167c-6 0 -12 0 -19 -1c31 -27 46 -71 46 -107c0 -50 -30 -101 -95 -101c-51 0 -80 37 -80 81c0 31 25 162 236 162c189 0 254 -95 254 -178c0 -182 -304 -229 -387 -345l3 -3h295c120 0 114 101 143 96
l6 -1z" />
    <glyph glyph-name="three" unicode="3" 
d="M342 361c169 -1 245 -84 245 -176c0 -112 -104 -200 -291 -200c-185 0 -264 79 -264 166c0 88 76 126 152 126c11 0 23 -1 33 -3l5 -15c-15 -23 -20 -85 -20 -111c0 -71 8 -144 72 -144c63 0 76 85 76 170c0 111 -49 173 -143 173c-11 0 -23 -2 -39 -4l-3 18
c140 26 157 106 157 177c0 63 -30 114 -77 114c-6 0 -11 0 -17 -1c18 -22 27 -52 27 -82c0 -57 -33 -111 -96 -111c-53 0 -81 38 -81 82c0 36 17 138 231 138c180 0 249 -82 249 -161c0 -73 -64 -149 -216 -152v-4z" />
    <glyph glyph-name="four" unicode="4" 
d="M528 428c2 0 4 -1 6 -2v-224h77v-20h-77v-89c0 -83 83 -62 83 -86v-7h-382v6c0 24 79 6 79 86v90h-295v19c94 147 179 311 248 460h264c-110 -204 -384 -397 -491 -459h274v131c81 16 154 47 214 95z" />
    <glyph glyph-name="five" unicode="5" 
d="M353 401c148 0 237 -84 237 -202c0 -112 -88 -214 -301 -214c-165 0 -240 70 -240 158c0 99 96 148 181 132l7 -16c-12 -23 -20 -85 -20 -111c0 -63 5 -147 68 -147c60 0 75 85 75 175c0 115 -51 171 -131 171c-28 0 -59 -6 -92 -20l-18 5l40 317h295
c120 0 103 84 133 79l6 -1l-52 -244c-70 10 -220 15 -258 15h-124l-20 -153c64 40 154 56 214 56z" />
    <glyph glyph-name="six" unicode="6" 
d="M325 -15c-214 0 -290 110 -290 248c0 205 190 379 483 447l5 -17c-192 -65 -261 -222 -261 -450c0 -170 17 -211 65 -211c53 0 67 91 67 198c0 41 -7 163 -78 178l-1 17c27 6 56 10 83 10c113 0 221 -57 221 -195c0 -120 -105 -225 -294 -225z" />
    <glyph glyph-name="seven" unicode="7" 
d="M595 661l5 -5c-121 -182 -187 -435 -209 -656h-274c93 211 246 387 380 507h-257c-73 0 -92 -17 -118 -53c-13 -18 -21 -37 -34 -33l-6 2l68 253c110 -14 262 -15 305 -15h140z" />
    <glyph glyph-name="eight" unicode="8" 
d="M568 534c0 -54 -41 -110 -129 -124c88 -52 177 -116 177 -212c0 -159 -149 -213 -296 -213c-102 0 -275 40 -275 170c0 77 64 138 147 153c-62 46 -119 103 -119 174c0 132 125 196 259 196c107 0 236 -37 236 -144zM420 99c0 81 -113 127 -213 196
c-25 -34 -35 -87 -35 -120c0 -90 47 -170 154 -170c58 0 94 45 94 94zM246 572c0 -58 83 -97 174 -150c7 25 14 61 14 97c0 68 -22 139 -103 139c-52 0 -85 -40 -85 -86z" />
    <glyph glyph-name="nine" unicode="9" 
d="M324 679c213 0 290 -109 290 -249c0 -205 -191 -379 -483 -446l-5 17c193 66 261 222 261 450c0 169 -18 210 -66 210c-52 0 -67 -90 -67 -197c0 -41 7 -164 78 -178l1 -18c-26 -6 -55 -10 -82 -10c-113 0 -221 58 -221 196c0 120 105 225 294 225z" />
    <glyph glyph-name="colon" unicode=":" horiz-adv-x="272" 
d="M39 348c0 55 43 98 97 98s97 -43 97 -98c0 -53 -43 -97 -97 -97s-97 44 -97 97zM40 89c0 54 43 98 97 98s97 -44 97 -98s-43 -98 -97 -98s-97 44 -97 98z" />
    <glyph glyph-name="semicolon" unicode=";" horiz-adv-x="272" 
d="M38 348c0 54 44 98 97 98s97 -44 97 -98c0 -55 -44 -98 -97 -98s-97 43 -97 98zM133 189c66 0 99 -58 99 -110c0 -99 -65 -232 -155 -302l-12 15c70 68 108 158 115 220c-15 -11 -35 -14 -50 -14c-58 0 -92 41 -92 94c0 48 37 97 95 97z" />
    <glyph glyph-name="less" unicode="&#x3c;" 
d="M594 112v-66l-531 242v43l531 243v-66l-442 -198z" />
    <glyph glyph-name="equal" unicode="=" 
d="M550 183h-424v57h424v-57zM550 376h-424v57h424v-57z" />
    <glyph glyph-name="greater" unicode="&#x3e;" 
d="M63 46v66l443 198l-443 198v66l531 -243v-43z" />
    <glyph glyph-name="question" unicode="?" horiz-adv-x="589" 
d="M82 339c0 128 261 177 261 285c0 53 -48 70 -94 70c-19 0 -37 -2 -53 -6c17 -23 24 -51 24 -80c0 -57 -33 -112 -96 -112c-42 0 -77 29 -77 82c0 64 60 141 238 141c137 0 266 -42 266 -170c0 -168 -275 -207 -275 -289c0 -17 14 -33 54 -44l-6 -18
c-173 3 -242 67 -242 141zM166 73c0 53 43 97 96 97c54 0 97 -44 97 -97s-43 -96 -97 -96c-53 0 -96 43 -96 96z" />
    <glyph glyph-name="at" unicode="@" horiz-adv-x="972" 
d="M358 94c-68 0 -117 31 -117 98c0 106 122 139 221 139c16 0 36 0 49 -2v63c0 58 -18 101 -66 101c-11 0 -18 -1 -26 -2c11 -19 16 -40 16 -59c0 -48 -29 -90 -84 -90c-41 0 -61 28 -61 60c0 50 40 114 204 114c163 0 208 -79 208 -163v-178c0 -28 12 -36 27 -36
c88 0 162 114 162 242c0 224 -169 346 -378 346c-248 0 -424 -180 -424 -420c0 -250 159 -430 392 -430c33 0 87 2 144 21c2 -10 5 -19 6 -29c-56 -19 -122 -21 -155 -21c-243 0 -416 197 -416 456c0 252 189 451 453 451c232 0 406 -134 406 -373
c0 -156 -93 -293 -283 -293c-47 0 -109 13 -122 67c-51 -54 -113 -61 -156 -62zM511 312c-64 -3 -78 -43 -78 -77c0 -38 16 -75 43 -75c13 0 22 4 35 15v137z" />
    <glyph glyph-name="A" unicode="A" horiz-adv-x="760" 
d="M430 102l-39 109h-202l-17 -49c-11 -31 -22 -62 -22 -81c0 -75 91 -49 91 -73v-8h-235v7c0 27 86 -6 129 112l153 424c8 23 12 41 12 55c0 64 -76 42 -76 67v9h257l204 -582c31 -89 68 -57 68 -84v-8h-367v7c0 22 52 9 52 59c0 9 -2 20 -8 36zM289 491l-93 -261h189
l-92 261h-4z" />
    <glyph glyph-name="B" unicode="B" horiz-adv-x="775" 
d="M467 0h-444v8c0 23 75 -2 75 82v494c0 82 -72 58 -72 82v8h427c191 0 250 -81 250 -156c0 -58 -47 -140 -195 -147v-4c192 -9 236 -107 236 -179c0 -83 -68 -188 -277 -188zM345 355v-269c0 -38 10 -66 56 -66c55 0 86 60 86 158c0 113 -45 177 -127 177h-15zM345 653
v-279h9c62 0 101 54 101 137s-27 142 -102 142h-8z" />
    <glyph glyph-name="C" unicode="C" horiz-adv-x="684" 
d="M397 690c77 0 142 -17 183 -30l35 47c4 0 7 -1 10 -1l9 -276h-4c-11 0 -11 3 -22 32c-41 113 -88 206 -167 206c-83 0 -122 -102 -122 -340c0 -260 50 -318 128 -318c84 0 151 116 179 235c7 32 12 44 21 44h6l-11 -308c-3 0 -7 -1 -11 -1l-33 48
c-52 -21 -114 -42 -202 -42c-224 0 -358 146 -358 344s137 360 359 360z" />
    <glyph glyph-name="D" unicode="D" horiz-adv-x="831" 
d="M410 0h-387v8c0 23 75 -3 75 82v494c0 82 -72 58 -72 82v8h372c225 0 395 -113 395 -337c0 -120 -70 -337 -383 -337zM346 653v-573c0 -32 11 -60 59 -60c75 0 112 93 112 292c0 243 -36 341 -158 341h-13z" />
    <glyph glyph-name="E" unicode="E" horiz-adv-x="700" 
d="M369 674c103 0 177 13 242 36l6 -2l27 -276c-1 0 -2 0 -4 -1c-11 0 -14 2 -23 27c-58 149 -112 195 -234 195h-36v-290h23c121 0 92 134 123 134h6v-298h-7c-35 0 -1 144 -119 144h-26v-254c0 -38 5 -68 68 -68h17c91 0 152 64 228 242c10 20 11 29 21 29c5 0 5 -1 8 -2
c-17 -104 -34 -210 -52 -314l-5 -2c-46 19 -106 26 -187 26h-424v8c0 24 77 -3 77 82v493c0 82 -74 58 -74 82v9h345z" />
    <glyph glyph-name="F" unicode="F" horiz-adv-x="644" 
d="M98 90v493c0 83 -74 57 -74 82v9h382c72 0 146 4 202 32l6 -3l27 -271c-1 0 -2 0 -4 -1c-18 0 -20 27 -38 62c-62 118 -104 160 -219 160h-33v-304h32c121 0 92 135 123 135h6v-298h-7c-35 0 1 143 -119 143h-35v-239c0 -84 80 -59 80 -82v-8h-406v8c0 24 77 -3 77 82z
" />
    <glyph glyph-name="G" unicode="G" horiz-adv-x="772" 
d="M703 4c-3 -2 -8 -3 -11 -4l-73 49c-70 -36 -136 -63 -229 -63c-218 0 -352 146 -352 344s141 361 393 361c74 0 142 -17 190 -38l38 54c3 0 6 -1 10 -1l10 -285h-3c-10 0 -16 4 -25 36c-29 102 -94 212 -191 212c-93 0 -140 -105 -140 -341c0 -242 20 -323 91 -323
c34 0 61 26 74 51v184c0 82 -72 58 -72 82v8h353v-8c0 -23 -63 0 -63 -82v-236z" />
    <glyph glyph-name="H" unicode="H" horiz-adv-x="857" 
d="M834 0h-384v8c0 23 61 -1 61 81v257h-166v-257c0 -82 60 -58 60 -81v-8h-383v8c0 23 74 -1 74 82v494c0 81 -71 57 -71 81v9h380v-9c0 -24 -60 1 -60 -81v-218h166v218c0 82 -61 57 -61 81v9h381v-9c0 -24 -72 0 -72 -81v-494c0 -83 75 -59 75 -82v-8z" />
    <glyph glyph-name="I" unicode="I" horiz-adv-x="457" 
d="M427 0h-398v8c0 23 75 -1 75 81v495c0 82 -75 57 -75 81v9h398v-9c0 -24 -75 1 -75 -81v-495c0 -82 75 -58 75 -81v-8z" />
    <glyph glyph-name="J" unicode="J" horiz-adv-x="429" 
d="M346 584c0 -147 1 -295 1 -442c0 -117 -43 -248 -173 -327c-54 -33 -121 -62 -210 -62c-63 0 -139 27 -139 107c0 51 36 96 93 96c77 0 107 -65 107 -137c0 -13 -1 -26 -3 -39c43 6 75 31 75 189v615c0 82 -74 57 -74 81v9h397v-9c0 -24 -74 1 -74 -81z" />
    <glyph glyph-name="K" unicode="K" horiz-adv-x="812" 
d="M516 473l205 -383c43 -80 91 -59 91 -83v-7h-368v8c0 17 39 10 39 39c0 8 -3 20 -12 36l-123 230h-14v-224c0 -82 63 -58 63 -81v-8h-375v8c0 23 64 -1 64 81v495c0 82 -64 57 -64 81v9h375v-9c0 -24 -63 1 -63 -81v-250h24l194 205c32 33 42 57 43 73
c0 44 -93 30 -93 54v8h277v-7c0 -28 -71 8 -190 -117z" />
    <glyph glyph-name="L" unicode="L" horiz-adv-x="690" 
d="M630 -23l-5 -2c-46 21 -143 25 -202 25h-401v8c0 23 76 -3 76 82v494c0 82 -75 57 -75 81v9h398v-9c0 -24 -75 1 -75 -81v-495c0 -38 6 -68 69 -68h8c104 0 153 70 229 248l6 13c4 11 8 16 16 16c3 0 5 -1 8 -2z" />
    <glyph glyph-name="M" unicode="M" horiz-adv-x="1013" 
d="M675 579h-4l-141 -389l56 -141l-17 -9l-9 18c-45 89 -145 112 -247 102l-153 426h-4l-7 -417c0 -176 116 -129 116 -161v-8h-255v8c0 25 81 0 107 79c7 22 13 49 14 85c2 137 4 274 7 411c0 85 -86 58 -86 82v9h306l163 -458l166 458h312v-9c0 -24 -81 1 -81 -81
c4 -164 7 -329 10 -494c2 -85 75 -59 75 -82v-8h-386v8c0 23 66 0 66 80c0 40 -4 443 -8 491z" />
    <glyph glyph-name="N" unicode="N" horiz-adv-x="814" 
d="M130 149v434c0 84 -84 58 -84 82v9h335l282 -378l3 2v229c0 146 -117 111 -117 138v9h255v-9c0 -32 -119 19 -119 -167v-508l-100 -9l-433 596c-1 0 -2 -1 -3 -1v-430c0 -146 116 -110 116 -138v-8h-254v8c0 26 119 -8 119 141z" />
    <glyph glyph-name="O" unicode="O" horiz-adv-x="821" 
d="M38 341c0 191 126 350 371 350c277 0 374 -180 374 -350c0 -173 -112 -356 -375 -356c-261 0 -370 172 -370 356zM320 336c0 -220 21 -333 92 -333c73 0 90 117 90 333c0 228 -17 336 -92 336c-73 0 -90 -149 -90 -336z" />
    <glyph glyph-name="P" unicode="P" horiz-adv-x="744" 
d="M346 259v-169c0 -82 75 -59 75 -82v-8h-398v8c0 23 74 0 74 82v493c0 83 -71 59 -71 83v8h434c130 0 274 -45 274 -203c0 -149 -144 -218 -301 -218c-29 0 -58 2 -87 6zM346 653v-374c85 0 126 94 126 191c0 101 -30 183 -111 183h-15z" />
    <glyph glyph-name="Q" unicode="Q" horiz-adv-x="820" 
d="M38 341c0 191 127 350 369 350c274 0 376 -180 376 -350c0 -169 -111 -346 -356 -355c39 -23 129 -27 162 -21c47 -40 111 -90 158 -90c24 0 55 13 79 33l12 -9c-48 -86 -129 -149 -186 -149c-98 0 -205 124 -253 235c-252 3 -361 173 -361 356zM320 337
c0 -203 20 -335 92 -335s89 135 89 335c0 210 -17 336 -92 336c-72 0 -89 -165 -89 -336z" />
    <glyph glyph-name="R" unicode="R" horiz-adv-x="829" 
d="M345 653v-312h8c72 0 113 65 113 155c0 88 -36 157 -121 157zM383 318c26 -44 110 -57 169 -57c35 0 67 4 90 8l113 -204c32 -57 68 -36 68 -59v-6h-288c-60 107 -121 214 -182 321h-8v-232c0 -82 75 -58 75 -81v-8h-397v8c0 23 74 1 74 81v494c0 82 -71 58 -71 82v9h464
c117 0 238 -54 238 -177c0 -127 -120 -184 -268 -184c-25 0 -51 2 -77 5z" />
    <glyph glyph-name="S" unicode="S" horiz-adv-x="658" 
d="M299 -15c-199 0 -282 95 -282 167c0 59 40 93 87 93c67 0 98 -61 98 -122c0 -31 -8 -71 -24 -97c24 -9 56 -15 86 -15c64 0 126 24 126 97c0 139 -351 189 -351 366c0 157 142 217 293 217c196 0 262 -81 262 -147c0 -55 -39 -86 -85 -86c-43 0 -96 32 -96 104
c0 27 5 68 15 95c-19 6 -50 7 -66 7c-59 0 -94 -32 -94 -74c0 -124 369 -178 369 -378c0 -142 -125 -227 -338 -227z" />
    <glyph glyph-name="T" unicode="T" horiz-adv-x="704" 
d="M476 653v-564c0 -82 74 -58 74 -81v-8h-397v8c0 23 74 -1 74 81v564h-6c-66 0 -135 -53 -187 -206c-6 -18 -11 -29 -23 -27l-5 1c9 92 18 187 26 279l3 3c68 -20 151 -29 324 -29c162 0 245 7 311 29l4 -3l25 -277l-6 -1c-8 -1 -14 5 -21 27c-49 154 -129 203 -190 204
h-6z" />
    <glyph glyph-name="U" unicode="U" horiz-adv-x="806" 
d="M671 283v244c0 146 -119 111 -119 138v9h256v-9c0 -26 -118 10 -118 -141v-226c0 -173 -49 -313 -288 -313c-237 0 -319 116 -319 300l-1 299c0 83 -67 58 -67 82v8h387v-8c0 -24 -71 1 -71 -82v-349c0 -130 41 -211 162 -211c111 0 178 98 178 259z" />
    <glyph glyph-name="V" unicode="V" horiz-adv-x="742" 
d="M380 -9l-61 -8l-240 600c-32 79 -76 56 -76 82v9h388v-8c0 -23 -56 -11 -56 -56c0 -9 2 -22 9 -38l121 -307h5l65 165c8 20 48 123 48 158c0 76 -94 53 -94 77v9h252v-8c0 -27 -69 -1 -122 -87c-12 -19 -23 -42 -34 -70z" />
    <glyph glyph-name="W" unicode="W" horiz-adv-x="1112" 
d="M443 297l81 254c39 123 -70 79 -70 115v8h352v-7c0 -26 -55 -11 -55 -61c0 -7 3 -19 8 -34l97 -272h4l70 218c7 20 14 54 14 65c0 84 -93 52 -93 82v9h257v-8c0 -28 -97 6 -154 -157l-183 -520l-56 -6l-182 501h-4l-172 -495l-56 -6l-222 600c-30 80 -76 59 -76 82v9h394
v-8c0 -23 -61 -9 -61 -62c0 -9 2 -19 7 -32l96 -275h4z" />
    <glyph glyph-name="X" unicode="X" horiz-adv-x="774" 
d="M373 109l-86 152l-51 -81c-33 -52 -49 -90 -49 -111c0 -56 82 -36 82 -61v-8h-264v8c0 23 59 4 132 80c30 31 61 70 96 124l43 66l-178 317c-39 69 -77 49 -77 71v8h417v-8c0 -24 -61 -7 -61 -53c0 -18 15 -50 36 -85l59 -98l40 62c36 56 48 93 48 114
c0 50 -74 34 -74 59v9h258v-9c0 -24 -63 -7 -135 -81c-28 -29 -56 -66 -88 -113l-39 -58l185 -321c47 -82 101 -62 101 -85v-7h-443v7c0 19 62 6 62 56c0 12 -3 26 -14 46z" />
    <glyph glyph-name="Y" unicode="Y" horiz-adv-x="734" 
d="M162 8c0 23 74 -1 74 81v166l-155 328c-36 76 -83 59 -82 82v9h408v-8c0 -22 -70 -13 -70 -57c0 -10 4 -22 12 -37l122 -240h2l86 192c11 26 17 45 17 61c0 78 -102 53 -102 80v9h259v-9c0 -25 -65 1 -124 -95c-11 -17 -22 -37 -32 -60l-92 -201v-220
c0 -82 74 -58 74 -81v-8h-397v8z" />
    <glyph glyph-name="Z" unicode="Z" horiz-adv-x="708" 
d="M660 674v-19l-349 -634h116c91 0 152 66 229 244c10 23 12 30 20 29c3 0 6 -1 9 -1c-17 -105 -37 -213 -54 -317l-4 -2c-53 21 -121 26 -191 26h-420v19c118 212 237 422 355 634h-43c-127 0 -172 -41 -238 -200c-9 -22 -13 -28 -20 -28c-2 0 -4 0 -7 2l31 275l4 2
c69 -28 143 -30 214 -30h348z" />
    <glyph glyph-name="bracketleft" unicode="[" horiz-adv-x="340" 
d="M66 -186v921h246v-20h-84v-882h84v-19h-246z" />
    <glyph glyph-name="backslash" unicode="\" horiz-adv-x="296" 
d="M257 -81l-258 818h37l260 -818h-39z" />
    <glyph glyph-name="bracketright" unicode="]" horiz-adv-x="340" 
d="M274 735v-921h-246v19h84v882h-84v20h246z" />
    <glyph glyph-name="asciicircum" unicode="^" horiz-adv-x="536" 
d="M109 357h-66l207 347h42l208 -347h-71l-160 269z" />
    <glyph glyph-name="underscore" unicode="_" horiz-adv-x="475" 
d="M475 -109h-475v51h475v-51z" />
    <glyph glyph-name="grave" unicode="`" horiz-adv-x="609" 
d="M408 517l-6 -13c-200 46 -246 137 -246 175c0 31 21 66 68 66c34 0 52 -24 69 -59c16 -34 35 -109 115 -169z" />
    <glyph glyph-name="a" unicode="a" horiz-adv-x="599" 
d="M319 228c-70 0 -77 -37 -77 -94c0 -58 15 -83 35 -83c12 0 28 12 44 32c-2 16 -2 28 -2 39v106zM536 264v-163c0 -46 13 -56 43 -58l2 -18c-32 -24 -98 -37 -133 -37c-66 0 -112 19 -124 74c-47 -65 -124 -81 -167 -81c-75 0 -132 35 -132 110c0 118 134 159 248 159
c15 0 33 -1 46 -2v55c0 84 -21 126 -78 126c-15 0 -29 -3 -46 -8c18 -19 29 -50 29 -76c0 -40 -23 -85 -79 -85c-44 0 -65 35 -65 67c0 41 29 130 228 130c185 0 228 -96 228 -193z" />
    <glyph glyph-name="b" unicode="b" horiz-adv-x="646" 
d="M382 217c0 116 -12 180 -58 180c-19 0 -39 -17 -52 -42v-289c8 -15 28 -34 52 -34c41 0 58 43 58 185zM284 728v-191c0 -40 -5 -123 -31 -172l5 -1c36 74 107 94 159 94c97 0 200 -75 200 -234c0 -117 -72 -238 -210 -238c-58 0 -119 13 -149 70
c-41 -3 -139 -50 -173 -83h-19v636c0 80 -61 54 -61 77v8l274 41z" />
    <glyph glyph-name="c" unicode="c" horiz-adv-x="512" 
d="M311 457c136 0 177 -62 177 -118c0 -45 -36 -80 -81 -80c-58 0 -86 44 -86 96c0 25 7 52 19 77c-69 -14 -81 -125 -81 -201c0 -138 46 -189 132 -189c29 0 62 7 101 30l8 -15c-61 -52 -133 -71 -215 -71c-172 0 -257 97 -257 223c0 129 96 248 283 248z" />
    <glyph glyph-name="d" unicode="d" horiz-adv-x="665" 
d="M598 728v-631c0 -75 57 -52 57 -74v-8c-87 -13 -176 -18 -264 -32l-6 7l5 82h-3c-50 -73 -115 -87 -159 -87c-150 0 -200 109 -200 232c0 159 105 241 212 241c39 0 93 -8 135 -39h4v190c0 80 -62 54 -62 77v8l274 40zM326 417c-47 0 -62 -64 -62 -184
c0 -126 16 -182 62 -182c19 0 38 16 52 39v305c-13 12 -36 22 -52 22z" />
    <glyph glyph-name="e" unicode="e" horiz-adv-x="571" 
d="M254 260l100 4c-1 96 -7 174 -50 174c-41 0 -50 -70 -50 -178zM306 457c132 0 232 -70 236 -202l-4 -9l-284 -6c0 -133 53 -198 140 -198c45 0 100 23 141 60l9 -12c-43 -53 -117 -104 -242 -104c-187 0 -274 104 -274 232c0 129 98 239 278 239z" />
    <glyph glyph-name="f" unicode="f" horiz-adv-x="390" 
d="M68 92l1 324h-55v18c19 1 37 2 56 4c0 139 111 299 286 299c66 0 135 -39 135 -116c0 -50 -36 -88 -87 -88c-68 0 -94 51 -94 107c0 26 8 55 20 77c-25 -5 -42 -34 -44 -86v-195h97v-20h-96v-324c0 -82 55 -62 55 -86v-6h-330v6c0 24 56 4 56 86z" />
    <glyph glyph-name="g" unicode="g" horiz-adv-x="629" 
d="M292 -227c-229 0 -270 69 -270 122c0 42 23 81 81 81c60 0 87 -49 87 -104c0 -25 -6 -50 -16 -72c15 -3 34 -5 53 -5c63 0 137 20 137 87c0 139 -336 62 -336 162c0 25 29 71 90 96c-51 33 -74 81 -74 134c0 97 86 183 255 183c48 0 87 -6 120 -15c36 53 89 93 137 93
c53 0 94 -25 94 -76c0 -42 -37 -65 -66 -65c-34 0 -83 23 -87 98c-23 -12 -43 -33 -61 -56c89 -32 122 -95 122 -157c0 -89 -76 -181 -259 -181c-71 0 -124 12 -164 32c-25 -12 -37 -24 -37 -34c0 -76 507 46 507 -164c0 -85 -106 -159 -313 -159zM252 276
c0 -95 6 -163 52 -163c40 0 47 71 47 163c0 98 -5 163 -51 163c-42 0 -48 -83 -48 -163z" />
    <glyph glyph-name="h" unicode="h" horiz-adv-x="668" 
d="M70 92v515c0 81 -61 56 -61 79v8l274 40l6 -6v-187c0 -54 0 -126 -21 -187h4c49 87 132 103 183 103c76 0 148 -37 148 -141v-224c0 -82 53 -62 53 -86v-6h-309v6c0 23 39 4 39 86v250c0 37 -16 53 -36 53c-21 0 -47 -20 -65 -53v-250c0 -82 38 -63 38 -86v-6h-309v6
c0 24 56 4 56 86z" />
    <glyph glyph-name="i" unicode="i" horiz-adv-x="368" 
d="M291 458c1 -3 3 -5 5 -7v-359c0 -82 55 -62 55 -86v-6h-329v6c0 24 56 4 56 86v243c0 75 -57 52 -57 74v8c89 13 180 27 270 41zM185 729c64 0 115 -52 115 -114c0 -64 -51 -115 -115 -115c-62 0 -113 51 -113 115c0 62 51 114 113 114z" />
    <glyph glyph-name="j" unicode="j" horiz-adv-x="341" 
d="M-14 -227c-74 0 -140 28 -140 93c0 43 34 84 83 84c67 0 106 -64 100 -151c36 14 40 53 40 98v434c0 73 -54 48 -54 75v10l265 41l7 -7v-367c0 -91 -30 -199 -127 -259c-50 -31 -93 -51 -174 -51zM172 729c64 0 115 -52 115 -114c0 -64 -51 -116 -115 -116
c-63 0 -113 52 -113 116c0 62 50 114 113 114z" />
    <glyph glyph-name="k" unicode="k" horiz-adv-x="647" 
d="M278 733l6 -6v-511h26c33 35 70 68 103 103l24 25c12 13 17 23 17 30c0 39 -95 30 -95 52v10h261v-7c0 -26 -77 -5 -149 -77l-24 -24l98 -199c62 -126 106 -95 106 -122v-7h-263c-26 66 -56 129 -90 197h-14v-109c0 -79 43 -58 43 -81v-7h-317v6c0 24 56 5 56 86v522
c0 75 -58 52 -58 74v7c90 13 180 26 270 38z" />
    <glyph glyph-name="l" unicode="l" horiz-adv-x="366" 
d="M289 733l5 -6v-635c0 -82 55 -62 55 -86v-6h-328v6c0 24 55 4 55 86v522c0 75 -57 52 -57 74v7c89 13 180 26 270 38z" />
    <glyph glyph-name="m" unicode="m" horiz-adv-x="952" 
d="M637 0v8c0 18 32 1 32 70v279c0 25 -11 35 -25 35c-19 0 -40 -20 -59 -50c2 -10 3 -19 3 -30v-236c0 -69 31 -49 31 -68v-8h-281v8c0 17 32 2 32 70v279c0 26 -10 36 -24 36c-19 0 -42 -21 -59 -49v-270c0 -65 33 -47 33 -66v-8h-304v6c0 25 55 5 55 86v243
c0 75 -57 52 -57 74v8l263 40l6 -6l-12 -94c1 0 3 -1 4 -1c48 81 117 101 169 101c59 0 119 -25 137 -93c47 74 110 93 162 93c71 0 144 -36 144 -140v-225c0 -81 50 -61 50 -86v-6h-300z" />
    <glyph glyph-name="n" unicode="n" horiz-adv-x="669" 
d="M70 92v243c0 75 -56 52 -56 74v8c87 13 173 27 261 41l6 -7l-11 -91h4c50 77 131 97 182 97c76 0 147 -37 147 -141v-224c0 -82 51 -62 51 -86v-6h-307v8c0 16 39 3 39 71v241c0 32 -3 74 -35 74c-19 0 -47 -19 -66 -49v-271c0 -64 39 -48 39 -66v-8h-310v6
c0 24 56 4 56 86z" />
    <glyph glyph-name="o" unicode="o" horiz-adv-x="646" 
d="M28 223c0 128 101 234 294 234c218 0 296 -120 296 -234c0 -116 -90 -238 -297 -238c-205 0 -293 115 -293 238zM265 220c0 -142 9 -218 59 -218c49 0 58 74 58 218c0 150 -8 218 -59 218c-49 0 -58 -92 -58 -218z" />
    <glyph glyph-name="p" unicode="p" horiz-adv-x="666" 
d="M286 19v-137c0 -82 55 -62 55 -86v-6h-328v6c0 24 55 4 55 86v453c0 75 -57 52 -57 74v8c88 13 177 27 265 41l6 -7l-12 -91h4c45 79 121 96 163 96c149 0 200 -111 200 -235c0 -159 -107 -237 -212 -237c-39 0 -92 6 -134 36c-2 0 -3 -1 -5 -1zM340 21
c47 0 63 65 63 186c0 127 -16 182 -63 182c-15 0 -36 -11 -52 -38v-306c13 -13 36 -24 52 -24z" />
    <glyph glyph-name="q" unicode="q" horiz-adv-x="645" 
d="M590 466v-584c0 -83 56 -62 56 -86v-7h-325v7c0 24 55 3 55 86v173h-3c-34 -49 -90 -73 -147 -73c-100 0 -198 70 -198 234c0 120 72 238 213 238c54 0 108 -15 141 -59c80 10 142 38 190 71h18zM319 43c19 0 39 17 52 42v291c-8 15 -28 30 -48 30
c-45 0 -62 -47 -62 -184c0 -115 12 -179 58 -179z" />
    <glyph glyph-name="r" unicode="r" horiz-adv-x="526" 
d="M76 92v243c0 75 -57 52 -57 74v8l265 39c2 -2 4 -4 5 -6l-15 -164c1 -1 3 -1 5 -2c29 113 85 173 157 173c55 0 103 -37 103 -92c0 -56 -43 -87 -91 -87c-56 0 -97 50 -97 108c-38 -33 -57 -110 -57 -147v-147c0 -82 55 -62 55 -86v-6h-329v6c0 24 56 4 56 86z" />
    <glyph glyph-name="s" unicode="s" horiz-adv-x="528" 
d="M269 458c155 0 214 -56 214 -115c0 -45 -31 -69 -67 -69c-59 0 -89 43 -89 92c0 18 5 47 13 65c-4 0 -10 1 -15 1c-41 0 -80 -20 -80 -67c0 -85 260 -101 260 -239c0 -98 -113 -141 -255 -141c-174 0 -227 63 -227 115c0 48 34 69 68 69c58 0 86 -47 86 -96
c0 -20 -4 -44 -13 -61c16 -4 31 -6 44 -6c49 0 77 25 77 64c0 81 -243 100 -243 231c0 112 103 157 227 157z" />
    <glyph glyph-name="t" unicode="t" horiz-adv-x="393" 
d="M197 -15c-103 0 -137 55 -137 132v299h-51v17l55 6c103 34 169 119 196 213h17v-216h95v-20h-95v-296c0 -51 20 -71 51 -71c14 0 33 5 54 17l5 -16c-75 -58 -155 -65 -190 -65z" />
    <glyph glyph-name="u" unicode="u" horiz-adv-x="668" 
d="M596 452v-348c0 -75 59 -52 59 -74v-8c-87 -13 -176 -18 -264 -32l-6 7l5 82h-3c-50 -78 -120 -94 -175 -94c-71 0 -143 34 -143 138v211c0 76 -57 53 -57 74v8c89 13 179 26 269 38l6 -6v-350c0 -28 9 -49 32 -49c20 0 43 20 60 48v241c0 76 -57 53 -57 74v8l268 39z
" />
    <glyph glyph-name="v" unicode="v" horiz-adv-x="584" 
d="M380 217h4l33 68c20 42 29 70 29 89c0 50 -58 31 -58 52v10h191v-8c0 -24 -62 5 -131 -127l-164 -314l-14 -2l-203 380c-31 57 -61 43 -61 63v8h355v-8c0 -21 -57 -9 -57 -47c0 -10 3 -25 13 -43z" />
    <glyph glyph-name="w" unicode="w" horiz-adv-x="837" 
d="M357 236l42 104c9 21 12 37 12 47c0 36 -47 20 -47 43v6h254v-8c0 -18 -35 -9 -35 -41c0 -10 4 -24 13 -45l48 -107h4l35 83c10 24 15 45 15 58c0 44 -57 30 -57 50v10h190v-8c-1 -24 -77 0 -131 -123l-143 -322l-20 -2c-47 99 -96 205 -136 302h-2l-134 -300l-21 -2
l-176 382c-29 62 -62 44 -62 66v7h333v-8c0 -17 -44 -8 -44 -45c0 -9 2 -26 11 -45l47 -102h4z" />
    <glyph glyph-name="x" unicode="x" horiz-adv-x="617" 
d="M351 342l50 -78l38 64c15 25 23 43 23 58c0 37 -52 23 -52 41v8h186v-8c0 -21 -63 7 -143 -116l-41 -63l108 -165c48 -74 88 -58 88 -77v-6h-373v7c0 19 54 8 54 45c0 10 -18 38 -31 58l-47 74l-44 -69c-19 -30 -27 -50 -27 -64c0 -37 55 -26 55 -44v-7h-190v7
c1 20 62 -4 141 114l54 81l-97 150c-50 77 -79 58 -79 77v7h356v-8c0 -16 -45 -7 -45 -46c0 -10 5 -23 16 -40z" />
    <glyph glyph-name="y" unicode="y" horiz-adv-x="587" 
d="M378 210h3l49 100c13 27 18 46 18 60c0 55 -61 34 -61 56v9h198v-8c0 -23 -73 3 -134 -123l-173 -357c-45 -92 -96 -178 -186 -178c-67 0 -106 42 -106 97c0 47 37 87 90 87c71 0 107 -57 113 -107c19 18 47 63 75 120l19 41h-28l-182 335c-43 80 -73 64 -73 85v8h353v-9
c0 -20 -57 -8 -57 -49c0 -10 5 -23 14 -40z" />
    <glyph glyph-name="z" unicode="z" horiz-adv-x="566" 
d="M520 435v-15c-80 -134 -160 -268 -241 -402h39c83 0 133 40 197 174c9 22 13 26 19 26c3 0 5 -1 8 -1l-39 -234l-6 -4c-54 18 -109 21 -183 21h-297v14l241 404h-23c-62 0 -115 -29 -161 -145c-6 -15 -10 -30 -21 -28l-5 1c11 69 21 142 31 211l7 4
c76 -26 150 -26 234 -26h200z" />
    <glyph glyph-name="braceleft" unicode="{" horiz-adv-x="391" 
d="M279 112v-187c0 -55 4 -93 84 -93v-16c-18 -2 -35 -3 -50 -3c-149 0 -194 83 -194 180v177c0 64 -8 119 -72 127v16c62 18 72 53 72 128v102c0 98 46 193 205 193c12 0 24 -1 38 -2v-16c-82 0 -83 -60 -83 -109v-106c0 -121 -57 -188 -172 -195v-4
c117 -9 172 -55 172 -192z" />
    <glyph glyph-name="bar" unicode="|" horiz-adv-x="302" 
d="M134 -141v885h38v-885h-38z" />
    <glyph glyph-name="braceright" unicode="}" horiz-adv-x="391" 
d="M113 -75v187c0 137 54 183 172 192v4c-115 7 -172 74 -172 195v106c0 49 -2 109 -84 109v16c13 1 26 2 38 2c158 0 206 -95 206 -193v-102c0 -75 10 -110 72 -128v-16c-64 -8 -72 -63 -72 -127v-177c0 -97 -45 -180 -194 -180c-15 0 -32 1 -50 3v16c63 0 84 24 84 93z
" />
    <glyph glyph-name="asciitilde" unicode="~" 
d="M541 376l15 -4c-18 -83 -62 -172 -145 -172c-57 0 -132 32 -194 32c-35 0 -79 -3 -101 -47l-15 4c8 55 45 168 136 168c48 0 150 -34 207 -34c43 0 73 5 97 53z" />
    <glyph glyph-name="Alpha.2" unicode="&#xe578;" horiz-adv-x="760" 
d="M430 102l-39 109h-202l-28 -81c-7 -20 -11 -38 -11 -51c0 -72 91 -47 91 -71v-8h-235v7c0 27 86 -6 129 112l201 555l141 13l208 -595c31 -88 68 -57 68 -84v-8h-367v7c0 22 51 9 51 59c0 9 -1 20 -7 36zM289 491l-93 -261h189l-92 261h-4z" />
    <glyph glyph-name="quoteleft" unicode="&#x2018;" horiz-adv-x="263" 
d="M134 406c-63 0 -90 53 -90 102c0 87 53 198 131 265l12 -14c-58 -60 -92 -134 -97 -190c15 12 37 15 51 15c51 0 81 -43 81 -88s-36 -90 -88 -90z" />
    <glyph glyph-name="quoteright" unicode="&#x2019;" horiz-adv-x="263" 
d="M133 751c62 0 90 -54 90 -102c0 -87 -53 -198 -131 -265l-12 14c58 60 91 134 97 190c-15 -12 -34 -16 -48 -16c-53 0 -84 40 -84 89c0 45 35 90 88 90z" />
    <glyph glyph-name="quotedblleft" unicode="&#x201c;" horiz-adv-x="453" 
d="M134 404c-63 0 -90 54 -90 103c0 87 53 198 131 265l12 -14c-58 -61 -92 -135 -97 -190c14 11 34 15 48 15c53 0 84 -41 84 -88c0 -46 -36 -91 -88 -91zM329 404c-63 0 -91 54 -91 103c0 87 54 198 132 265l12 -14c-58 -61 -91 -135 -97 -190c15 11 34 15 48 15
c53 0 84 -41 84 -88c0 -46 -36 -91 -88 -91z" />
    <glyph glyph-name="quotedblright" unicode="&#x201d;" horiz-adv-x="453" 
d="M129 752c63 0 90 -54 90 -103c0 -87 -53 -198 -131 -265l-12 14c58 61 92 135 97 190c-14 -11 -34 -15 -48 -15c-53 0 -84 40 -84 88c0 46 36 91 88 91zM323 752c63 0 90 -54 90 -103c0 -87 -53 -198 -131 -265l-12 14c58 61 91 135 97 190c-15 -11 -34 -15 -48 -15
c-53 0 -84 40 -84 88c0 46 36 91 88 91z" />
    <glyph glyph-name="bullet" unicode="&#x2022;" horiz-adv-x="452" 
d="M378 227c0 -86 -67 -156 -153 -156c-84 0 -151 70 -151 156c0 89 67 159 151 159c86 0 153 -70 153 -159z" />
    <glyph glyph-name="endash" unicode="&#x2013;" horiz-adv-x="658" 
d="M617 236h-571v51h571v-51z" />
    <glyph glyph-name="emdash" unicode="&#x2014;" horiz-adv-x="945" 
d="M901 236h-855v51h855v-51z" />
    <glyph glyph-name="quotesinglbase" unicode="&#x201a;" horiz-adv-x="263" 
d="M130 164c63 0 90 -53 90 -102c0 -86 -53 -196 -131 -263l-12 14c58 60 92 134 97 188c-14 -10 -34 -14 -48 -14c-53 0 -84 39 -84 87c0 45 36 90 88 90z" />
    <glyph glyph-name="florin" unicode="&#x192;" 
d="M142 364h93c20 158 122 318 306 318c65 0 132 -31 132 -103c0 -35 -19 -81 -78 -81c-61 0 -87 54 -87 113c0 16 1 33 6 50c-40 -3 -50 -121 -62 -297h100v-15h-101c-19 -229 -79 -475 -331 -475c-73 0 -138 41 -138 106c0 35 20 85 82 85c59 0 88 -51 88 -107
c0 -22 -4 -45 -12 -66c73 4 63 259 91 457h-89v15z" />
    <glyph glyph-name="quotedblbase" unicode="&#x201e;" horiz-adv-x="453" 
d="M130 164c63 0 90 -53 90 -102c0 -86 -53 -196 -131 -263l-12 14c58 60 92 134 97 188c-14 -10 -34 -14 -48 -14c-53 0 -84 39 -84 87c0 45 36 90 88 90zM324 164c63 0 90 -53 90 -102c0 -86 -53 -196 -131 -263l-12 14c58 60 92 134 97 188c-14 -10 -34 -14 -48 -14
c-53 0 -84 39 -84 87c0 45 36 90 88 90z" />
    <glyph glyph-name="ellipsis" unicode="&#x2026;" horiz-adv-x="785" 
d="M37 89c0 56 44 101 98 101c56 0 100 -45 100 -101c0 -55 -44 -99 -100 -99c-54 0 -98 44 -98 99zM293 89c0 56 44 101 98 101c56 0 100 -45 100 -101c0 -55 -44 -99 -100 -99c-54 0 -98 44 -98 99zM550 89c0 56 44 101 99 101s99 -45 99 -101c0 -55 -44 -99 -99 -99
s-99 44 -99 99z" />
    <glyph glyph-name="dagger" unicode="&#x2020;" horiz-adv-x="551" 
d="M281 482c7 -69 37 -163 63 -234c-29 -153 -58 -323 -61 -486h-16c0 136 -30 351 -60 486c23 69 46 157 60 234c-59 -32 -131 -64 -163 -64c-36 0 -70 25 -70 75c0 55 37 73 68 73c33 0 128 -47 163 -66c-31 69 -61 146 -61 181c0 39 25 73 73 73c55 0 70 -38 70 -71
c0 -36 -44 -142 -64 -182c32 19 132 67 165 67c30 0 66 -17 66 -73c0 -51 -33 -77 -68 -77c-32 0 -106 33 -165 64z" />
    <glyph glyph-name="daggerdbl" unicode="&#x2021;" horiz-adv-x="551" 
d="M209 250c23 69 46 158 60 234c-59 -31 -131 -63 -163 -63c-36 0 -69 24 -69 74c0 56 36 73 67 73c33 0 128 -46 163 -65c-31 68 -61 146 -61 180c0 39 25 74 73 74c54 0 70 -38 70 -72c0 -36 -44 -141 -64 -181c31 19 132 66 164 66c31 0 67 -16 67 -73
c0 -51 -33 -76 -69 -76c-31 0 -105 33 -164 64c6 -69 37 -163 63 -235c-26 -71 -57 -165 -63 -234c59 31 133 64 164 64c36 0 69 -25 69 -76c0 -57 -36 -73 -67 -73c-32 0 -133 47 -164 66c20 -40 64 -145 64 -181c0 -34 -16 -72 -70 -72c-48 0 -73 35 -73 73
c0 35 30 113 61 181c-35 -19 -130 -65 -163 -65c-31 0 -67 16 -67 72c0 49 33 75 69 75c32 0 104 -32 163 -63c-14 76 -37 164 -60 233z" />
    <glyph glyph-name="trademark" unicode="&#x2122;" horiz-adv-x="861" 
d="M28 553l14 132c70 -10 126 -11 157 -11c35 -1 114 1 155 11l14 -132l-2 -1c-6 -1 -10 2 -14 15c-26 60 -47 94 -87 94h-5v-277c0 -43 22 -30 22 -42v-6h-171v6c0 13 26 2 26 44v275h-4c-39 0 -63 -34 -88 -94c-5 -13 -8 -16 -14 -15zM610 479l69 195h149v-6
c0 -12 -29 0 -29 -42v-242c0 -41 26 -29 26 -42v-6h-174v6c0 13 26 2 26 44v243l-106 -295l-24 -1l-124 293v-236c0 -50 47 -33 47 -50v-4h-109v4c0 19 48 0 48 50v226c0 32 -7 39 -22 44c-4 1 -8 3 -9 9v5h150z" />
    <glyph glyph-name="exclamdown" unicode="&#xa1;" horiz-adv-x="396" 
d="M190 222h22l108 -345c22 -68 -10 -161 -120 -161c-107 0 -146 94 -125 157zM105 357c0 54 43 98 95 98c53 0 96 -44 96 -98s-43 -98 -96 -98c-52 0 -95 44 -95 98z" />
    <glyph glyph-name="currency" unicode="&#xa4;" 
d="M168 390l-61 63l57 63l65 -63c34 21 67 33 103 33c37 0 69 -10 103 -31l61 61l60 -63l-61 -63c19 -37 30 -73 30 -108c0 -39 -7 -70 -29 -108l61 -61l-58 -64l-62 62c-33 -21 -68 -32 -105 -32c-36 0 -73 12 -104 32l-61 -59l-60 59l60 62c-21 34 -31 71 -31 107
c0 37 11 75 32 110zM212 281c0 -69 54 -126 120 -126s121 56 121 126c0 71 -55 125 -121 125c-65 0 -120 -54 -120 -125z" />
    <glyph glyph-name="brokenbar" unicode="&#xa6;" horiz-adv-x="302" 
d="M172 366h-37v378h37v-378zM135 271h37v-412h-37v412z" />
    <glyph glyph-name="logicalnot" unicode="&#xac;" 
d="M126 338h424v-258h-55v201h-369v57z" />
    <glyph glyph-name="sfthyphen" unicode="&#xad;" horiz-adv-x="351" 
d="M40 286h273v-80h-273v80z" />
    <glyph glyph-name="registered" unicode="&#xae;" horiz-adv-x="640" 
d="M319 171c-166 0 -272 125 -272 279c0 156 115 281 272 281c158 0 274 -125 274 -281c0 -154 -116 -279 -274 -279zM320 206c144 0 233 105 233 244c0 142 -98 246 -233 246c-134 0 -232 -97 -232 -246c0 -146 98 -244 232 -244zM290 593v-129h5c31 0 49 30 49 64
c0 36 -15 65 -50 65h-4zM310 454c20 -25 81 -27 114 -24l48 -85c10 -18 22 -14 22 -22v-4h-114l-81 136h-9v-99c0 -32 19 -23 19 -32v-5h-147v5c0 10 23 0 23 32v209c0 33 -23 21 -23 33v4h193c46 0 98 -18 98 -76c0 -63 -74 -77 -143 -72z" />
    <glyph glyph-name="plusminus" unicode="&#xb1;" 
d="M123 55h424v-55h-424v55zM363 529v-174h184v-57h-184v-186h-54v186h-186v57h186v174h54z" />
    <glyph glyph-name="Euro" unicode="&#x20ac;" 
d="M493 365h-470v20h56c25 172 146 286 321 286c167 0 220 -85 220 -139c0 -50 -35 -82 -76 -82c-64 0 -88 52 -88 107c0 31 8 63 20 87c-11 3 -21 4 -31 4c-108 0 -126 -151 -126 -263h174v-20zM23 302h470v-20h-175c1 -135 19 -270 122 -270c13 0 27 3 44 8
c-11 23 -18 51 -18 79c0 57 27 111 89 111c41 0 76 -32 76 -81c0 -56 -57 -140 -239 -140c-179 0 -302 112 -317 293h-52v20z" />
    <glyph glyph-name="sterling" unicode="&#xa3;" horiz-adv-x="649" 
d="M352 671c166 0 219 -85 219 -139c0 -50 -35 -82 -76 -82c-64 0 -84 53 -84 105c0 31 6 65 17 87c-13 2 -25 3 -35 3c-72 0 -91 -47 -91 -105c0 -67 25 -151 27 -199h163v-24h-164c-3 -30 -14 -62 -41 -94c-20 -24 -48 -47 -89 -71v-5h273c116 0 114 96 141 96h2l5 -1
l-68 -242h-506v16c50 57 154 147 154 215c0 34 -18 60 -40 86h-111v24h90c-30 34 -59 73 -59 135c0 131 123 195 273 195z" />
    <glyph glyph-name="yen" unicode="&#xa5;" 
d="M559 290h-481v20h105c-38 87 -74 173 -111 260c-33 78 -73 61 -73 82v8h366v-7c0 -22 -52 -11 -52 -54c0 -41 51 -142 75 -204l33 -86h1l80 205c11 28 15 50 15 66c0 75 -85 46 -85 72v8h231v-8c0 -28 -81 7 -141 -142l-80 -200h117v-20zM78 220h481v-20h-123v-112
c0 -82 62 -58 62 -80v-8h-353v8c0 22 62 -2 62 80v112h-129v20z" />
    <glyph glyph-name="section" unicode="&#xa7;" horiz-adv-x="693" 
d="M286 377c-48 52 -104 116 -104 182c0 30 6 51 28 77c-59 -30 -77 -73 -77 -111c0 -77 72 -161 132 -221c100 -100 231 -203 231 -305c0 -23 -9 -75 -20 -90c55 28 76 66 76 110c0 128 -156 238 -266 358zM371 -52c0 126 -314 283 -314 469c0 152 114 278 333 278
c138 0 198 -60 198 -124c0 -52 -33 -84 -80 -84c-62 0 -93 57 -93 116c0 23 6 48 15 68c-6 1 -14 2 -21 2c-53 0 -93 -30 -93 -79c0 -141 320 -235 320 -473c0 -130 -101 -274 -372 -274c-139 0 -185 70 -185 124c0 55 40 86 77 86c60 0 93 -55 93 -112
c0 -23 -4 -53 -15 -75c12 -2 23 -2 35 -2c49 0 102 30 102 80z" />
    <glyph glyph-name="paragraph" unicode="&#xb6;" horiz-adv-x="711" 
d="M347 -151v-5c100 34 124 135 124 214v596h-45v-634c0 -70 -15 -133 -79 -171zM243 -190c-141 0 -186 77 -186 133c0 57 42 89 80 89c67 0 97 -55 97 -115c0 -28 -7 -57 -19 -82c5 -1 9 -1 14 -1c76 0 92 66 92 210v196h-37c-129 0 -218 96 -218 219c0 119 90 215 218 215
h369v-8c0 -27 -76 4 -76 -85v-457c0 -183 -111 -314 -334 -314z" />
    <glyph glyph-name="copyright" unicode="&#xa9;" horiz-adv-x="806" 
d="M413 563c51 0 88 -12 113 -21l20 26h9v-172h-4c-7 0 -13 2 -18 24c-12 58 -46 126 -100 126c-46 0 -71 -66 -71 -215c0 -171 35 -199 75 -199c68 0 88 65 101 120c7 30 12 52 22 52h5v-189h-9l-22 25c-32 -16 -72 -27 -128 -27c-139 0 -226 94 -226 220s92 230 233 230z
M403 30c169 0 292 141 292 310c0 170 -123 311 -292 311c-170 0 -292 -141 -292 -311c0 -169 113 -310 292 -310zM403 -6c-206 0 -337 153 -337 346c0 192 144 347 337 347s336 -155 336 -347c0 -193 -143 -346 -336 -346z" />
    <glyph glyph-name="cent" unicode="&#xa2;" 
d="M315 -47l10 119c-159 6 -231 99 -231 217c0 125 93 239 271 241l9 110h22l-10 -111c120 -5 165 -60 165 -108c0 -43 -29 -73 -66 -73c-54 0 -77 46 -77 95c0 22 4 42 14 62c-4 1 -9 2 -15 2c-8 0 -16 -2 -23 -4l-30 -340c25 -15 57 -21 88 -21c34 0 69 7 96 15l8 -14
c-43 -39 -130 -69 -199 -71l-11 -119h-21zM296 311c0 -64 15 -104 39 -130l27 314c-52 -35 -66 -128 -66 -184z" />
    <glyph glyph-name="circumflex" unicode="&#x2c6;" horiz-adv-x="609" 
d="M490 522l-173 88l-180 -88l-11 13l172 192c8 8 15 13 22 13s14 -5 21 -13l159 -192z" />
    <glyph glyph-name="guilsinglleft" unicode="&#x2039;" horiz-adv-x="313" 
d="M164 206l112 -201l-10 -11l-211 186c-10 9 -15 17 -15 25c0 9 5 18 15 27l209 187l12 -11z" />
    <glyph glyph-name="tilde" unicode="&#x2dc;" horiz-adv-x="661" 
d="M509 688l13 -4c-13 -78 -52 -146 -122 -146c-49 0 -127 30 -180 30c-32 0 -63 -6 -83 -44l-13 4c8 47 34 147 118 147c42 0 144 -31 194 -31c37 0 57 6 73 44z" />
    <glyph glyph-name="guilsinglright" unicode="&#x203a;" horiz-adv-x="313" 
d="M40 5l113 201l-113 202l12 11l210 -187c10 -9 14 -18 14 -27c0 -8 -5 -16 -14 -25l-211 -186z" />
    <glyph glyph-name="oe" unicode="&#x153;" horiz-adv-x="940" 
d="M674 457c132 0 235 -66 239 -205l-4 -6l-284 -6c1 -173 39 -207 114 -207c60 0 122 28 167 69l9 -12c-46 -55 -120 -104 -245 -104c-71 0 -130 19 -171 64c-44 -37 -104 -65 -178 -65c-205 0 -293 115 -293 238c0 128 101 234 294 234c73 0 142 -23 184 -65
c44 43 101 65 168 65zM264 220c0 -142 9 -218 58 -218c50 0 58 74 58 218c0 150 -8 218 -59 218c-49 0 -57 -92 -57 -218zM625 260l100 4c-1 96 -7 174 -50 174c-41 0 -50 -70 -50 -178z" />
    <glyph glyph-name="dieresis" unicode="&#xa8;" horiz-adv-x="609" 
d="M119 623c0 49 40 90 90 90s90 -41 90 -90c0 -51 -40 -91 -90 -91s-90 40 -90 91zM332 623c0 49 40 90 90 90s90 -41 90 -90c0 -51 -40 -91 -90 -91s-90 40 -90 91z" />
    <glyph glyph-name="guillemotleft" unicode="&#xab;" horiz-adv-x="487" 
d="M164 206l112 -201l-10 -11l-211 186c-10 9 -15 17 -15 25c0 9 5 18 15 27l209 187l12 -11zM337 206l113 -201l-12 -11l-210 186c-9 9 -15 17 -15 25c0 9 5 18 15 27l210 187l11 -11z" />
    <glyph glyph-name="macron" unicode="&#xaf;" horiz-adv-x="608" 
d="M486 653l-2 -109c-94 8 -225 7 -341 0v89c103 16 238 18 343 20z" />
    <glyph glyph-name="degree" unicode="&#xb0;" horiz-adv-x="336" 
d="M85 565c0 -52 36 -90 86 -90c48 0 85 38 85 90c0 51 -37 90 -85 90c-50 0 -86 -39 -86 -90zM47 565c0 71 55 128 124 128c67 0 123 -57 123 -128c0 -72 -56 -128 -123 -128c-69 0 -124 56 -124 128z" />
    <glyph glyph-name="acute" unicode="&#xb4;" horiz-adv-x="609" 
d="M224 503l-6 15c80 60 98 134 115 168c17 35 34 59 68 59c47 0 69 -35 69 -66c0 -38 -46 -130 -246 -176z" />
    <glyph glyph-name="periodcentered" unicode="&#xb7;" horiz-adv-x="272" 
d="M39 246c0 55 43 98 97 98s97 -43 97 -98c0 -54 -43 -98 -97 -98s-97 44 -97 98z" />
    <glyph glyph-name="cedilla" unicode="&#xb8;" horiz-adv-x="514" 
d="M235 9l-33 -67c147 -1 206 -51 206 -103c0 -57 -74 -111 -213 -111c-17 0 -34 0 -61 2v17c117 -2 140 44 140 78c0 30 -36 61 -116 62l61 126z" />
    <glyph glyph-name="guillemotright" unicode="&#xbb;" horiz-adv-x="487" 
d="M213 5l113 201l-112 202l11 11l211 -187c9 -9 14 -18 14 -27c0 -8 -5 -16 -14 -25l-211 -186zM40 5l113 201l-113 202l12 11l210 -187c10 -9 14 -18 14 -27c0 -8 -5 -16 -14 -25l-211 -186z" />
    <glyph glyph-name="primemod" unicode="&#x2b9;" horiz-adv-x="261" 
d="M39 331l-17 10l89 313c13 47 44 67 73 67c37 0 72 -30 72 -73c0 -20 -8 -42 -26 -66z" />
    <glyph glyph-name="caron" unicode="&#x2c7;" horiz-adv-x="609" 
d="M309 642l172 94l11 -12l-160 -196c-7 -8 -13 -13 -20 -13c-8 0 -15 5 -22 13l-172 194l11 13z" />
    <glyph glyph-name="breve" unicode="&#x2d8;" horiz-adv-x="609" 
d="M307 516c-102 0 -160 86 -173 201l15 4c44 -77 100 -103 157 -103c54 0 117 26 161 105l14 -4c-20 -129 -89 -203 -174 -203z" />
    <glyph glyph-name="dotaccent" unicode="&#x2d9;" horiz-adv-x="514" 
d="M170 633c0 53 43 96 95 96c55 0 98 -43 98 -96s-43 -97 -98 -97c-52 0 -95 44 -95 97z" />
    <glyph glyph-name="ring" unicode="&#x2da;" horiz-adv-x="609" 
d="M308 523c-65 0 -114 47 -114 111c0 63 49 112 114 112c62 0 111 -47 111 -112c0 -64 -49 -111 -111 -111zM308 709c-44 0 -75 -33 -75 -75c0 -43 31 -76 75 -76c41 0 72 33 72 76c0 42 -31 75 -72 75z" />
    <glyph glyph-name="ogonek" unicode="&#x2db;" horiz-adv-x="573" 
d="M459 39l2 -11c-80 -52 -105 -114 -105 -161c0 -68 50 -93 106 -93c20 0 42 4 63 12l5 -12c-29 -25 -104 -51 -169 -51c-64 0 -120 24 -120 94c0 46 36 141 218 222z" />
    <glyph glyph-name="hungarumlaut" unicode="&#x2dd;" horiz-adv-x="662" 
d="M97 524l-3 16c85 47 117 116 137 148c17 27 34 45 63 45c49 0 67 -34 67 -63c0 -30 -40 -127 -264 -146zM300 522l-4 16c86 47 118 117 138 148c17 27 35 45 64 45c48 0 67 -34 67 -63s-41 -127 -265 -146z" />
    <glyph glyph-name="tonos" unicode="&#x384;" horiz-adv-x="609" 
d="M224 503l-6 15c80 60 98 134 115 168c17 35 34 59 68 59c47 0 69 -35 69 -66c0 -38 -46 -130 -246 -176z" />
    <glyph glyph-name="dieresistonos" unicode="&#x385;" horiz-adv-x="609" 
d="M229 487l-12 12c50 93 39 151 45 199c6 44 23 86 80 86c35 0 58 -26 58 -62c0 -47 -30 -136 -171 -235zM62 619c0 48 39 88 87 88c50 0 88 -40 88 -88c0 -49 -38 -89 -88 -89c-48 0 -87 40 -87 89zM392 619c0 48 38 88 87 88s88 -40 88 -88c0 -49 -39 -89 -88 -89
s-87 40 -87 89z" />
    <glyph glyph-name="anoteleia" unicode="&#x387;" horiz-adv-x="272" 
d="M39 350c0 54 43 98 96 98c54 0 97 -44 97 -98c0 -55 -43 -99 -97 -99c-53 0 -96 44 -96 99z" />
    <glyph glyph-name="OE" unicode="&#x152;" horiz-adv-x="1071" 
d="M528 0c-36 -9 -76 -15 -121 -15c-260 0 -369 172 -369 356c0 191 126 350 370 350c41 0 92 -6 132 -17h230c95 0 161 15 218 36l6 -4l28 -274l-5 -1c-11 -2 -13 3 -22 27c-55 148 -107 195 -235 195h-36v-290h24c118 0 94 134 121 134h7v-298h-7c-32 0 -1 144 -118 144
h-27v-254c0 -38 6 -68 68 -68h18c90 0 146 66 227 242c11 24 15 29 22 29c3 0 5 -1 8 -2l-52 -312l-5 -4c-50 19 -117 26 -202 26h-280zM412 2c45 0 70 49 70 94v478c0 55 -27 97 -73 97c-72 0 -89 -143 -89 -335c0 -226 21 -334 92 -334z" />
    <glyph glyph-name="Circumflex" unicode="&#xf6c0;" horiz-adv-x="826" 
d="M585 732l-172 77l-180 -76l-11 15l172 176c8 8 15 13 22 13s14 -5 21 -13l159 -179z" />
    <glyph glyph-name="commaaccent" unicode="&#xf6c3;" horiz-adv-x="813" 
d="M406 -48c54 0 78 -45 78 -86c0 -72 -45 -157 -110 -212c-4 5 -8 11 -13 15c52 51 75 97 82 144c-14 -10 -31 -15 -42 -15c-46 0 -72 36 -72 76c0 39 31 78 77 78z" />
    <glyph glyph-name="Acute" unicode="&#xf6c9;" horiz-adv-x="826" 
d="M315 728c-1 6 -3 10 -4 15c89 46 121 118 141 148c18 28 36 45 64 45c48 0 69 -37 69 -66c0 -28 -36 -129 -270 -142z" />
    <glyph glyph-name="Caron" unicode="&#xf6ca;" horiz-adv-x="826" 
d="M412 850l173 80l10 -12l-159 -179c-7 -8 -14 -13 -21 -13s-13 6 -22 13l-171 177l11 13z" />
    <glyph glyph-name="Dieresis" unicode="&#xf6cb;" horiz-adv-x="826" 
d="M222 829c0 49 39 89 89 89s90 -40 90 -89c0 -50 -40 -90 -90 -90s-89 40 -89 90zM439 829c0 49 39 89 89 89s90 -40 90 -89c0 -50 -40 -90 -90 -90s-89 40 -89 90z" />
    <glyph glyph-name="Grave" unicode="&#xf6ce;" horiz-adv-x="826" 
d="M531 743l-4 -15c-234 13 -270 114 -270 142c0 29 21 66 70 66c28 0 46 -17 63 -45c22 -30 53 -102 141 -148z" />
    <glyph glyph-name="Hungarumlaut" unicode="&#xf6cf;" horiz-adv-x="771" 
d="M239 724c-1 6 -2 10 -4 15c88 46 119 120 139 151c17 28 34 45 64 45c48 0 70 -33 70 -65c0 -28 -35 -130 -269 -146zM445 728c-2 5 -3 9 -4 15c86 46 118 120 138 150c18 28 35 46 63 46c49 0 71 -36 71 -65c0 -28 -34 -130 -268 -146z" />
    <glyph glyph-name="Macron" unicode="&#xf6d0;" horiz-adv-x="826" 
d="M581 863l-2 -109c-94 8 -225 7 -341 0v89c103 16 238 18 343 20z" />
    <glyph glyph-name="cyrBreve" unicode="&#xf6d1;" horiz-adv-x="826" 
d="M378 775c88 1 173 47 235 123l14 -9c-73 -122 -180 -156 -246 -156c-104 0 -152 49 -152 112c0 46 33 79 80 79c48 0 77 -47 77 -98c0 -17 -2 -35 -8 -51z" />
    <glyph glyph-name="cyrbreve" unicode="&#xf6d4;" horiz-adv-x="609" 
d="M280 568c81 1 153 40 211 110c4 -4 8 -7 13 -10c-70 -119 -171 -141 -230 -141c-90 0 -132 50 -132 105c0 43 31 74 74 74c46 0 72 -45 72 -93c0 -15 -3 -31 -8 -45z" />
    <glyph glyph-name="Scaron" unicode="&#x160;" horiz-adv-x="658" 
d="M299 -15c-199 0 -282 95 -282 167c0 59 40 93 87 93c67 0 98 -61 98 -122c0 -31 -8 -71 -24 -97c24 -9 56 -15 86 -15c64 0 126 24 126 97c0 139 -351 189 -351 366c0 157 142 217 293 217c196 0 262 -81 262 -147c0 -55 -39 -86 -85 -86c-43 0 -96 32 -96 104
c0 27 5 68 15 95c-19 6 -50 7 -66 7c-59 0 -94 -32 -94 -74c0 -124 369 -178 369 -378c0 -142 -125 -227 -338 -227zM316 850l173 80l10 -12l-159 -179c-7 -8 -14 -13 -21 -13s-13 6 -22 13l-171 177l11 13z" />
    <glyph glyph-name="Zcaron" unicode="&#x17d;" horiz-adv-x="708" 
d="M660 674v-19l-349 -634h116c91 0 152 66 229 244c10 23 12 30 20 29c3 0 6 -1 9 -1c-17 -105 -37 -213 -54 -317l-4 -2c-53 21 -121 26 -191 26h-420v19c118 212 237 422 355 634h-43c-127 0 -172 -41 -238 -200c-9 -22 -13 -28 -20 -28c-2 0 -4 0 -7 2l31 275l4 2
c69 -28 143 -30 214 -30h348zM393 850l173 80l10 -12l-159 -179c-7 -8 -14 -13 -21 -13s-13 6 -22 13l-171 177l11 13z" />
    <glyph glyph-name="scaron" unicode="&#x161;" horiz-adv-x="528" 
d="M269 458c155 0 214 -56 214 -115c0 -45 -31 -69 -67 -69c-59 0 -89 43 -89 92c0 18 5 47 13 65c-4 0 -10 1 -15 1c-41 0 -80 -20 -80 -67c0 -85 260 -101 260 -239c0 -98 -113 -141 -255 -141c-174 0 -227 63 -227 115c0 48 34 69 68 69c58 0 86 -47 86 -96
c0 -20 -4 -44 -13 -61c16 -4 31 -6 44 -6c49 0 77 25 77 64c0 81 -243 100 -243 231c0 112 103 157 227 157zM267 642l172 94l11 -12l-160 -196c-7 -8 -13 -13 -20 -13c-8 0 -15 5 -22 13l-172 194l11 13z" />
    <glyph glyph-name="zcaron" unicode="&#x17e;" horiz-adv-x="566" 
d="M520 435v-15c-80 -134 -160 -268 -241 -402h39c83 0 133 40 197 174c9 22 13 26 19 26c3 0 5 -1 8 -1l-39 -234l-6 -4c-54 18 -109 21 -183 21h-297v14l241 404h-23c-62 0 -115 -29 -161 -145c-6 -15 -10 -30 -21 -28l-5 1c11 69 21 142 31 211l7 4
c76 -26 150 -26 234 -26h200zM314 642l172 94l11 -12l-160 -196c-7 -8 -13 -13 -20 -13c-8 0 -15 5 -22 13l-172 194l11 13z" />
    <glyph glyph-name="Ydieresis" unicode="&#x178;" horiz-adv-x="734" 
d="M162 8c0 23 74 -1 74 81v166l-155 328c-36 76 -83 59 -82 82v9h408v-8c0 -22 -70 -13 -70 -57c0 -10 4 -22 12 -37l122 -240h2l86 192c11 26 17 45 17 61c0 78 -102 53 -102 80v9h259v-9c0 -25 -65 1 -124 -95c-11 -17 -22 -37 -32 -60l-92 -201v-220
c0 -82 74 -58 74 -81v-8h-397v8zM181 829c0 49 39 89 89 89s90 -40 90 -89c0 -50 -40 -90 -90 -90s-89 40 -89 90zM398 829c0 49 39 89 89 89s90 -40 90 -89c0 -50 -40 -90 -90 -90s-89 40 -89 90z" />
    <glyph glyph-name="questiondown" unicode="&#xbf;" horiz-adv-x="589" 
d="M296 -299c-136 0 -266 42 -266 170c0 168 275 207 275 288c0 17 -14 34 -53 45l5 18c173 -3 243 -67 243 -141c0 -128 -262 -177 -262 -286c0 -53 48 -70 94 -70c19 0 38 2 53 7c-16 22 -24 51 -24 79c0 58 33 113 96 113c43 0 77 -29 77 -82c0 -64 -60 -141 -238 -141z
M221 351c0 53 44 96 97 96s96 -43 96 -96s-43 -97 -96 -97s-97 44 -97 97z" />
    <glyph glyph-name="AE" unicode="&#xc6;" horiz-adv-x="1079" 
d="M414 665v9h339c103 0 177 13 242 36l6 -2l27 -276c-1 0 -2 0 -4 -1c-11 0 -14 2 -23 27c-58 149 -112 195 -234 195h-36v-290h23c121 0 92 134 123 134h6v-298h-7c-35 0 -1 144 -119 144h-26v-254c0 -38 5 -68 68 -68h17c91 0 152 64 228 242c10 20 11 29 21 29
c5 0 5 -1 8 -2c-17 -104 -34 -210 -52 -314l-5 -2c-46 19 -106 26 -187 26h-415v8c0 23 68 -1 68 81v145h-236l-69 -103c-20 -30 -28 -52 -28 -67c0 -53 90 -35 90 -56v-8h-245v7c0 25 72 -4 155 118l329 484c-10 50 -64 34 -64 56zM480 579c-74 -108 -147 -217 -221 -326
h223v326h-2z" />
    <glyph glyph-name="multiply" unicode="&#xd7;" 
d="M324 269l-133 -140c-12 14 -25 27 -37 40l132 140l-129 136l38 39l129 -136l129 135l37 -39l-128 -135l129 -136c-12 -14 -25 -27 -37 -40c-43 45 -87 90 -130 136z" />
    <glyph glyph-name="Agrave" unicode="&#xc0;" horiz-adv-x="760" 
d="M430 102l-39 109h-202l-17 -49c-11 -31 -22 -62 -22 -81c0 -75 91 -49 91 -73v-8h-235v7c0 27 86 -6 129 112l153 424c8 23 12 41 12 55c0 64 -76 42 -76 67v9h257l204 -582c31 -89 68 -57 68 -84v-8h-367v7c0 22 52 9 52 59c0 9 -2 20 -8 36zM289 491l-93 -261h189
l-92 261h-4zM496 743l-4 -15c-234 13 -270 114 -270 142c0 29 21 66 70 66c28 0 46 -17 63 -45c22 -30 53 -102 141 -148z" />
    <glyph glyph-name="Aacute" unicode="&#xc1;" horiz-adv-x="760" 
d="M430 102l-39 109h-202l-17 -49c-11 -31 -22 -62 -22 -81c0 -75 91 -49 91 -73v-8h-235v7c0 27 86 -6 129 112l153 424c8 23 12 41 12 55c0 64 -76 42 -76 67v9h257l204 -582c31 -89 68 -57 68 -84v-8h-367v7c0 22 52 9 52 59c0 9 -2 20 -8 36zM289 491l-93 -261h189
l-92 261h-4zM289 728c-1 6 -3 10 -4 15c89 46 121 118 141 148c18 28 36 45 64 45c48 0 69 -37 69 -66c0 -28 -36 -129 -270 -142z" />
    <glyph glyph-name="Acircumflex" unicode="&#xc2;" horiz-adv-x="760" 
d="M430 102l-39 109h-202l-17 -49c-11 -31 -22 -62 -22 -81c0 -75 91 -49 91 -73v-8h-235v7c0 27 86 -6 129 112l153 424c8 23 12 41 12 55c0 64 -76 42 -76 67v9h257l204 -582c31 -89 68 -57 68 -84v-8h-367v7c0 22 52 9 52 59c0 9 -2 20 -8 36zM289 491l-93 -261h189
l-92 261h-4zM569 722l-172 77l-180 -76l-11 15l172 176c8 8 15 13 22 13s14 -5 21 -13l159 -179z" />
    <glyph glyph-name="Atilde" unicode="&#xc3;" horiz-adv-x="760" 
d="M430 102l-39 109h-202l-17 -49c-11 -31 -22 -62 -22 -81c0 -75 91 -49 91 -73v-8h-235v7c0 27 86 -6 129 112l153 424c8 23 12 41 12 55c0 64 -76 42 -76 67v9h257l204 -582c31 -89 68 -57 68 -84v-8h-367v7c0 22 52 9 52 59c0 9 -2 20 -8 36zM289 491l-93 -261h189
l-92 261h-4zM581 885l13 -4c-13 -78 -52 -146 -122 -146c-49 0 -127 30 -180 30c-32 0 -63 -6 -83 -44l-13 4c8 47 34 147 118 147c42 0 144 -31 194 -31c37 0 57 6 73 44z" />
    <glyph glyph-name="Adieresis" unicode="&#xc4;" horiz-adv-x="760" 
d="M430 102l-39 109h-202l-17 -49c-11 -31 -22 -62 -22 -81c0 -75 91 -49 91 -73v-8h-235v7c0 27 86 -6 129 112l153 424c8 23 12 41 12 55c0 64 -76 42 -76 67v9h257l204 -582c31 -89 68 -57 68 -84v-8h-367v7c0 22 52 9 52 59c0 9 -2 20 -8 36zM289 491l-93 -261h189
l-92 261h-4zM189 829c0 49 39 89 89 89s90 -40 90 -89c0 -50 -40 -90 -90 -90s-89 40 -89 90zM406 829c0 49 39 89 89 89s90 -40 90 -89c0 -50 -40 -90 -90 -90s-89 40 -89 90z" />
    <glyph glyph-name="Aring" unicode="&#xc5;" horiz-adv-x="760" 
d="M430 102l-39 109h-202l-17 -49c-11 -31 -22 -62 -22 -81c0 -75 91 -49 91 -73v-8h-235v7c0 27 86 -6 129 112l153 424c8 23 12 41 12 55c0 64 -76 42 -76 67v9h257l204 -582c31 -89 68 -57 68 -84v-8h-367v7c0 22 52 9 52 59c0 9 -2 20 -8 36zM289 491l-93 -261h189
l-92 261h-4zM385 710c-65 0 -114 47 -114 111c0 63 49 112 114 112c62 0 111 -47 111 -112c0 -64 -49 -111 -111 -111zM385 896c-44 0 -75 -33 -75 -75c0 -43 31 -76 75 -76c41 0 72 33 72 76c0 42 -31 75 -72 75z" />
    <glyph glyph-name="Ccedilla" unicode="&#xc7;" horiz-adv-x="684" 
d="M397 690c77 0 142 -17 183 -30l35 47c4 0 7 -1 10 -1l9 -276h-4c-11 0 -11 3 -22 32c-41 113 -88 206 -167 206c-83 0 -122 -102 -122 -340c0 -260 50 -318 128 -318c84 0 151 116 179 235c7 32 12 44 21 44h6l-11 -308c-3 0 -7 -1 -11 -1l-33 48
c-52 -21 -114 -42 -202 -42c-11 0 -21 1 -31 1l-22 -45c147 -1 206 -51 206 -103c0 -57 -74 -111 -213 -111c-17 0 -34 0 -61 2v17c117 -2 140 44 140 78c0 30 -36 61 -116 62l49 102c-195 19 -310 157 -310 341c0 198 137 360 359 360z" />
    <glyph glyph-name="Egrave" unicode="&#xc8;" horiz-adv-x="700" 
d="M369 674c103 0 177 13 242 36l6 -2l27 -276c-1 0 -2 0 -4 -1c-11 0 -14 2 -23 27c-58 149 -112 195 -234 195h-36v-290h23c121 0 92 134 123 134h6v-298h-7c-35 0 -1 144 -119 144h-26v-254c0 -38 5 -68 68 -68h17c91 0 152 64 228 242c10 20 11 29 21 29c5 0 5 -1 8 -2
c-17 -104 -34 -210 -52 -314l-5 -2c-46 19 -106 26 -187 26h-424v8c0 24 77 -3 77 82v493c0 82 -74 58 -74 82v9h345zM470 743l-4 -15c-234 13 -270 114 -270 142c0 29 21 66 70 66c28 0 46 -17 63 -45c22 -30 53 -102 141 -148z" />
    <glyph glyph-name="Eacute" unicode="&#xc9;" horiz-adv-x="700" 
d="M369 674c103 0 177 13 242 36l6 -2l27 -276c-1 0 -2 0 -4 -1c-11 0 -14 2 -23 27c-58 149 -112 195 -234 195h-36v-290h23c121 0 92 134 123 134h6v-298h-7c-35 0 -1 144 -119 144h-26v-254c0 -38 5 -68 68 -68h17c91 0 152 64 228 242c10 20 11 29 21 29c5 0 5 -1 8 -2
c-17 -104 -34 -210 -52 -314l-5 -2c-46 19 -106 26 -187 26h-424v8c0 24 77 -3 77 82v493c0 82 -74 58 -74 82v9h345zM234 728c-1 6 -3 10 -4 15c89 46 121 118 141 148c18 28 36 45 64 45c48 0 69 -37 69 -66c0 -28 -36 -129 -270 -142z" />
    <glyph glyph-name="Ecircumflex" unicode="&#xca;" horiz-adv-x="700" 
d="M369 674c103 0 177 13 242 36l6 -2l27 -276c-1 0 -2 0 -4 -1c-11 0 -14 2 -23 27c-58 149 -112 195 -234 195h-36v-290h23c121 0 92 134 123 134h6v-298h-7c-35 0 -1 144 -119 144h-26v-254c0 -38 5 -68 68 -68h17c91 0 152 64 228 242c10 20 11 29 21 29c5 0 5 -1 8 -2
c-17 -104 -34 -210 -52 -314l-5 -2c-46 19 -106 26 -187 26h-424v8c0 24 77 -3 77 82v493c0 82 -74 58 -74 82v9h345zM523 732l-172 77l-180 -76l-11 15l172 176c8 8 15 13 22 13s14 -5 21 -13l159 -179z" />
    <glyph glyph-name="Edieresis" unicode="&#xcb;" horiz-adv-x="700" 
d="M369 674c103 0 177 13 242 36l6 -2l27 -276c-1 0 -2 0 -4 -1c-11 0 -14 2 -23 27c-58 149 -112 195 -234 195h-36v-290h23c121 0 92 134 123 134h6v-298h-7c-35 0 -1 144 -119 144h-26v-254c0 -38 5 -68 68 -68h17c91 0 152 64 228 242c10 20 11 29 21 29c5 0 5 -1 8 -2
c-17 -104 -34 -210 -52 -314l-5 -2c-46 19 -106 26 -187 26h-424v8c0 24 77 -3 77 82v493c0 82 -74 58 -74 82v9h345zM146 829c0 49 39 89 89 89s90 -40 90 -89c0 -50 -40 -90 -90 -90s-89 40 -89 90zM363 829c0 49 39 89 89 89s90 -40 90 -89c0 -50 -40 -90 -90 -90
s-89 40 -89 90z" />
    <glyph glyph-name="Igrave" unicode="&#xcc;" horiz-adv-x="457" 
d="M427 0h-398v8c0 23 75 -1 75 81v495c0 82 -75 57 -75 81v9h398v-9c0 -24 -75 1 -75 -81v-495c0 -82 75 -58 75 -81v-8zM362 743l-4 -15c-234 13 -270 114 -270 142c0 29 21 66 70 66c28 0 46 -17 63 -45c22 -30 53 -102 141 -148z" />
    <glyph glyph-name="Iacute" unicode="&#xcd;" horiz-adv-x="457" 
d="M427 0h-398v8c0 23 75 -1 75 81v495c0 82 -75 57 -75 81v9h398v-9c0 -24 -75 1 -75 -81v-495c0 -82 75 -58 75 -81v-8zM115 728c-1 6 -3 10 -4 15c89 46 121 118 141 148c18 28 36 45 64 45c48 0 69 -37 69 -66c0 -28 -36 -129 -270 -142z" />
    <glyph glyph-name="Icircumflex" unicode="&#xce;" horiz-adv-x="457" 
d="M427 0h-398v8c0 23 75 -1 75 81v495c0 82 -75 57 -75 81v9h398v-9c0 -24 -75 1 -75 -81v-495c0 -82 75 -58 75 -81v-8zM405 732l-172 77l-180 -76l-11 15l172 176c8 8 15 13 22 13s14 -5 21 -13l159 -179z" />
    <glyph glyph-name="Idieresis" unicode="&#xcf;" horiz-adv-x="457" 
d="M427 0h-398v8c0 23 75 -1 75 81v495c0 82 -75 57 -75 81v9h398v-9c0 -24 -75 1 -75 -81v-495c0 -82 75 -58 75 -81v-8zM33 829c0 49 39 89 89 89s90 -40 90 -89c0 -50 -40 -90 -90 -90s-89 40 -89 90zM250 829c0 49 39 89 89 89s90 -40 90 -89c0 -50 -40 -90 -90 -90
s-89 40 -89 90z" />
    <glyph glyph-name="Eth" unicode="&#xd0;" horiz-adv-x="824" 
d="M414 0h-386v8c0 23 64 -1 64 82v256h-66v20h66v218c0 80 -64 58 -64 82v8h374c224 0 384 -113 384 -337c0 -120 -59 -337 -372 -337zM340 653v-287h85v-20h-85v-266c0 -32 10 -60 59 -60c75 0 112 93 112 292c0 243 -36 341 -158 341h-13z" />
    <glyph glyph-name="Ntilde" unicode="&#xd1;" horiz-adv-x="814" 
d="M130 149v434c0 84 -84 58 -84 82v9h335l282 -378l3 2v229c0 146 -117 111 -117 138v9h255v-9c0 -32 -119 19 -119 -167v-508l-100 -9l-433 596c-1 0 -2 -1 -3 -1v-430c0 -146 116 -110 116 -138v-8h-254v8c0 26 119 -8 119 141zM615 901l13 -4
c-13 -78 -52 -146 -122 -146c-49 0 -127 30 -180 30c-32 0 -63 -6 -83 -44l-13 4c8 47 34 147 118 147c42 0 144 -31 194 -31c37 0 57 6 73 44z" />
    <glyph glyph-name="Ograve" unicode="&#xd2;" horiz-adv-x="821" 
d="M38 341c0 191 126 350 371 350c277 0 374 -180 374 -350c0 -173 -112 -356 -375 -356c-261 0 -370 172 -370 356zM320 336c0 -220 21 -333 92 -333c73 0 90 117 90 333c0 228 -17 336 -92 336c-73 0 -90 -149 -90 -336zM540 746l-4 -15c-234 13 -270 114 -270 142
c0 29 21 66 70 66c28 0 46 -17 63 -45c22 -30 53 -102 141 -148z" />
    <glyph glyph-name="Oacute" unicode="&#xd3;" horiz-adv-x="821" 
d="M38 341c0 191 126 350 371 350c277 0 374 -180 374 -350c0 -173 -112 -356 -375 -356c-261 0 -370 172 -370 356zM320 336c0 -220 21 -333 92 -333c73 0 90 117 90 333c0 228 -17 336 -92 336c-73 0 -90 -149 -90 -336zM309 732c-1 6 -3 10 -4 15c89 46 121 118 141 148
c18 28 36 45 64 45c48 0 69 -37 69 -66c0 -28 -36 -129 -270 -142z" />
    <glyph glyph-name="Ocircumflex" unicode="&#xd4;" horiz-adv-x="821" 
d="M38 341c0 191 126 350 371 350c277 0 374 -180 374 -350c0 -173 -112 -356 -375 -356c-261 0 -370 172 -370 356zM320 336c0 -220 21 -333 92 -333c73 0 90 117 90 333c0 228 -17 336 -92 336c-73 0 -90 -149 -90 -336zM587 732l-172 77l-180 -76l-11 15l172 176
c8 8 15 13 22 13s14 -5 21 -13l159 -179z" />
    <glyph glyph-name="Otilde" unicode="&#xd5;" horiz-adv-x="821" 
d="M38 341c0 191 126 350 371 350c277 0 374 -180 374 -350c0 -173 -112 -356 -375 -356c-261 0 -370 172 -370 356zM320 336c0 -220 21 -333 92 -333c73 0 90 117 90 333c0 228 -17 336 -92 336c-73 0 -90 -149 -90 -336zM599 912l13 -4c-13 -78 -52 -146 -122 -146
c-49 0 -127 30 -180 30c-32 0 -63 -6 -83 -44l-13 4c8 47 34 147 118 147c42 0 144 -31 194 -31c37 0 57 6 73 44z" />
    <glyph glyph-name="Odieresis" unicode="&#xd6;" horiz-adv-x="821" 
d="M38 341c0 191 126 350 371 350c277 0 374 -180 374 -350c0 -173 -112 -356 -375 -356c-261 0 -370 172 -370 356zM320 336c0 -220 21 -333 92 -333c73 0 90 117 90 333c0 228 -17 336 -92 336c-73 0 -90 -149 -90 -336zM212 829c0 49 39 89 89 89s90 -40 90 -89
c0 -50 -40 -90 -90 -90s-89 40 -89 90zM429 829c0 49 39 89 89 89s90 -40 90 -89c0 -50 -40 -90 -90 -90s-89 40 -89 90z" />
    <glyph glyph-name="Oslash" unicode="&#xd8;" horiz-adv-x="821" 
d="M38 341c0 191 126 350 371 350c79 0 144 -16 196 -41l35 53l16 -11l-34 -51c116 -65 161 -185 161 -300c0 -173 -112 -356 -375 -356c-79 0 -144 16 -196 42l-37 -57l-16 11l37 56c-110 64 -158 181 -158 304zM502 336c0 45 -1 85 -3 121l-175 -262
c9 -129 35 -192 88 -192c73 0 90 117 90 333zM320 336c0 -40 0 -77 2 -110l176 262c-9 125 -33 184 -88 184c-73 0 -90 -149 -90 -336z" />
    <glyph glyph-name="Ugrave" unicode="&#xd9;" horiz-adv-x="806" 
d="M671 283v244c0 146 -119 111 -119 138v9h256v-9c0 -26 -118 10 -118 -141v-226c0 -173 -49 -313 -288 -313c-237 0 -319 116 -319 300l-1 299c0 83 -67 58 -67 82v8h387v-8c0 -24 -71 1 -71 -82v-349c0 -130 41 -211 162 -211c111 0 178 98 178 259zM556 743l-4 -15
c-234 13 -270 114 -270 142c0 29 21 66 70 66c28 0 46 -17 63 -45c22 -30 53 -102 141 -148z" />
    <glyph glyph-name="Uacute" unicode="&#xda;" horiz-adv-x="806" 
d="M671 283v244c0 146 -119 111 -119 138v9h256v-9c0 -26 -118 10 -118 -141v-226c0 -173 -49 -313 -288 -313c-237 0 -319 116 -319 300l-1 299c0 83 -67 58 -67 82v8h387v-8c0 -24 -71 1 -71 -82v-349c0 -130 41 -211 162 -211c111 0 178 98 178 259zM321 728
c-1 6 -3 10 -4 15c89 46 121 118 141 148c18 28 36 45 64 45c48 0 69 -37 69 -66c0 -28 -36 -129 -270 -142z" />
    <glyph glyph-name="Ucircumflex" unicode="&#xdb;" horiz-adv-x="806" 
d="M671 283v244c0 146 -119 111 -119 138v9h256v-9c0 -26 -118 10 -118 -141v-226c0 -173 -49 -313 -288 -313c-237 0 -319 116 -319 300l-1 299c0 83 -67 58 -67 82v8h387v-8c0 -24 -71 1 -71 -82v-349c0 -130 41 -211 162 -211c111 0 178 98 178 259zM595 732l-172 77
l-180 -76l-11 15l172 176c8 8 15 13 22 13s14 -5 21 -13l159 -179z" />
    <glyph glyph-name="Udieresis" unicode="&#xdc;" horiz-adv-x="806" 
d="M671 283v244c0 146 -119 111 -119 138v9h256v-9c0 -26 -118 10 -118 -141v-226c0 -173 -49 -313 -288 -313c-237 0 -319 116 -319 300l-1 299c0 83 -67 58 -67 82v8h387v-8c0 -24 -71 1 -71 -82v-349c0 -130 41 -211 162 -211c111 0 178 98 178 259zM209 829
c0 49 39 89 89 89s90 -40 90 -89c0 -50 -40 -90 -90 -90s-89 40 -89 90zM426 829c0 49 39 89 89 89s90 -40 90 -89c0 -50 -40 -90 -90 -90s-89 40 -89 90z" />
    <glyph glyph-name="Yacute" unicode="&#xdd;" horiz-adv-x="734" 
d="M162 8c0 23 74 -1 74 81v166l-155 328c-36 76 -83 59 -82 82v9h408v-8c0 -22 -70 -13 -70 -57c0 -10 4 -22 12 -37l122 -240h2l86 192c11 26 17 45 17 61c0 78 -102 53 -102 80v9h259v-9c0 -25 -65 1 -124 -95c-11 -17 -22 -37 -32 -60l-92 -201v-220
c0 -82 74 -58 74 -81v-8h-397v8zM275 728c-1 6 -3 10 -4 15c89 46 121 118 141 148c18 28 36 45 64 45c48 0 69 -37 69 -66c0 -28 -36 -129 -270 -142z" />
    <glyph glyph-name="Thorn" unicode="&#xde;" horiz-adv-x="724" 
d="M393 0h-376v8c0 23 64 -1 64 81v495c0 82 -64 57 -64 81v9h376v-9c0 -24 -63 1 -63 -81v-37c45 7 86 9 113 9c121 0 271 -45 271 -210c0 -145 -138 -212 -297 -212c-28 0 -60 1 -87 5v-50c0 -82 63 -58 63 -81v-8zM330 529v-372c86 0 124 94 124 194
c0 88 -18 174 -124 178z" />
    <glyph glyph-name="germandbls" unicode="&#xdf;" horiz-adv-x="698" 
d="M334 731c188 0 253 -86 253 -171c0 -59 -41 -131 -146 -151v-4c197 -7 229 -131 229 -209c0 -112 -80 -211 -207 -211c-80 0 -182 31 -182 121c0 41 32 67 62 67c41 0 63 -35 63 -73c0 -28 -11 -57 -34 -76c70 12 70 89 70 185c0 86 -19 180 -117 188l-2 19
c40 7 66 47 66 158c0 120 -37 137 -64 137c-34 0 -57 -31 -57 -73v-630l-6 -8h-267v6c0 24 56 6 56 80v326c0 163 87 319 283 319z" />
    <glyph glyph-name="agrave" unicode="&#xe0;" horiz-adv-x="599" 
d="M319 228c-70 0 -77 -37 -77 -94c0 -58 15 -83 35 -83c12 0 28 12 44 32c-2 16 -2 28 -2 39v106zM536 264v-163c0 -46 13 -56 43 -58l2 -18c-32 -24 -98 -37 -133 -37c-66 0 -112 19 -124 74c-47 -65 -124 -81 -167 -81c-75 0 -132 35 -132 110c0 118 134 159 248 159
c15 0 33 -1 46 -2v55c0 84 -21 126 -78 126c-15 0 -29 -3 -46 -8c18 -19 29 -50 29 -76c0 -40 -23 -85 -79 -85c-44 0 -65 35 -65 67c0 41 29 130 228 130c185 0 228 -96 228 -193zM419 517l-6 -13c-200 46 -246 137 -246 175c0 31 21 66 68 66c34 0 52 -24 69 -59
c16 -34 35 -109 115 -169z" />
    <glyph glyph-name="aacute" unicode="&#xe1;" horiz-adv-x="599" 
d="M319 228c-70 0 -77 -37 -77 -94c0 -58 15 -83 35 -83c12 0 28 12 44 32c-2 16 -2 28 -2 39v106zM536 264v-163c0 -46 13 -56 43 -58l2 -18c-32 -24 -98 -37 -133 -37c-66 0 -112 19 -124 74c-47 -65 -124 -81 -167 -81c-75 0 -132 35 -132 110c0 118 134 159 248 159
c15 0 33 -1 46 -2v55c0 84 -21 126 -78 126c-15 0 -29 -3 -46 -8c18 -19 29 -50 29 -76c0 -40 -23 -85 -79 -85c-44 0 -65 35 -65 67c0 41 29 130 228 130c185 0 228 -96 228 -193zM209 503l-6 15c80 60 98 134 115 168c17 35 34 59 68 59c47 0 69 -35 69 -66
c0 -38 -46 -130 -246 -176z" />
    <glyph glyph-name="acircumflex" unicode="&#xe2;" horiz-adv-x="599" 
d="M319 228c-70 0 -77 -37 -77 -94c0 -58 15 -83 35 -83c12 0 28 12 44 32c-2 16 -2 28 -2 39v106zM536 264v-163c0 -46 13 -56 43 -58l2 -18c-32 -24 -98 -37 -133 -37c-66 0 -112 19 -124 74c-47 -65 -124 -81 -167 -81c-75 0 -132 35 -132 110c0 118 134 159 248 159
c15 0 33 -1 46 -2v55c0 84 -21 126 -78 126c-15 0 -29 -3 -46 -8c18 -19 29 -50 29 -76c0 -40 -23 -85 -79 -85c-44 0 -65 35 -65 67c0 41 29 130 228 130c185 0 228 -96 228 -193zM487 522l-173 88l-180 -88l-11 13l172 192c8 8 15 13 22 13s14 -5 21 -13l159 -192z" />
    <glyph glyph-name="atilde" unicode="&#xe3;" horiz-adv-x="599" 
d="M319 228c-70 0 -77 -37 -77 -94c0 -58 15 -83 35 -83c12 0 28 12 44 32c-2 16 -2 28 -2 39v106zM536 264v-163c0 -46 13 -56 43 -58l2 -18c-32 -24 -98 -37 -133 -37c-66 0 -112 19 -124 74c-47 -65 -124 -81 -167 -81c-75 0 -132 35 -132 110c0 118 134 159 248 159
c15 0 33 -1 46 -2v55c0 84 -21 126 -78 126c-15 0 -29 -3 -46 -8c18 -19 29 -50 29 -76c0 -40 -23 -85 -79 -85c-44 0 -65 35 -65 67c0 41 29 130 228 130c185 0 228 -96 228 -193zM496 688l13 -4c-13 -78 -52 -146 -122 -146c-49 0 -127 30 -180 30c-32 0 -63 -6 -83 -44
l-13 4c8 47 34 147 118 147c42 0 144 -31 194 -31c37 0 57 6 73 44z" />
    <glyph glyph-name="adieresis" unicode="&#xe4;" horiz-adv-x="599" 
d="M319 228c-70 0 -77 -37 -77 -94c0 -58 15 -83 35 -83c12 0 28 12 44 32c-2 16 -2 28 -2 39v106zM536 264v-163c0 -46 13 -56 43 -58l2 -18c-32 -24 -98 -37 -133 -37c-66 0 -112 19 -124 74c-47 -65 -124 -81 -167 -81c-75 0 -132 35 -132 110c0 118 134 159 248 159
c15 0 33 -1 46 -2v55c0 84 -21 126 -78 126c-15 0 -29 -3 -46 -8c18 -19 29 -50 29 -76c0 -40 -23 -85 -79 -85c-44 0 -65 35 -65 67c0 41 29 130 228 130c185 0 228 -96 228 -193zM114 623c0 49 40 90 90 90s90 -41 90 -90c0 -51 -40 -91 -90 -91s-90 40 -90 91zM327 623
c0 49 40 90 90 90s90 -41 90 -90c0 -51 -40 -91 -90 -91s-90 40 -90 91z" />
    <glyph glyph-name="aring" unicode="&#xe5;" horiz-adv-x="599" 
d="M319 228c-70 0 -77 -37 -77 -94c0 -58 15 -83 35 -83c12 0 28 12 44 32c-2 16 -2 28 -2 39v106zM536 264v-163c0 -46 13 -56 43 -58l2 -18c-32 -24 -98 -37 -133 -37c-66 0 -112 19 -124 74c-47 -65 -124 -81 -167 -81c-75 0 -132 35 -132 110c0 118 134 159 248 159
c15 0 33 -1 46 -2v55c0 84 -21 126 -78 126c-15 0 -29 -3 -46 -8c18 -19 29 -50 29 -76c0 -40 -23 -85 -79 -85c-44 0 -65 35 -65 67c0 41 29 130 228 130c185 0 228 -96 228 -193zM304 512c-65 0 -114 47 -114 111c0 63 49 112 114 112c62 0 111 -47 111 -112
c0 -64 -49 -111 -111 -111zM304 698c-44 0 -75 -33 -75 -75c0 -43 31 -76 75 -76c41 0 72 33 72 76c0 42 -31 75 -72 75z" />
    <glyph glyph-name="ae" unicode="&#xe6;" horiz-adv-x="853" 
d="M824 236l-284 -4c0 -152 29 -199 107 -199c63 0 131 29 172 69l10 -12c-44 -53 -116 -104 -241 -104c-103 0 -174 31 -218 82c-62 -64 -136 -88 -213 -88c-76 0 -133 38 -133 113c0 118 136 157 250 157c12 0 29 0 41 -1c1 9 2 39 2 66c0 73 -25 116 -83 116
c-11 0 -21 -1 -35 -4c22 -20 34 -50 34 -78c0 -45 -28 -93 -89 -93c-45 0 -68 35 -68 69c0 54 39 133 211 133c56 0 119 -17 158 -55c40 40 104 54 152 54c140 0 227 -76 232 -212zM539 252l101 5c-1 79 -4 181 -50 181s-51 -98 -51 -186zM359 81c-31 38 -43 85 -44 148
c-65 -1 -71 -49 -71 -89c0 -66 18 -95 48 -95c23 0 46 16 67 36z" />
    <glyph glyph-name="ccedilla" unicode="&#xe7;" horiz-adv-x="512" 
d="M311 457c136 0 177 -62 177 -118c0 -45 -36 -80 -81 -80c-58 0 -86 44 -86 96c0 25 7 52 19 77c-69 -14 -81 -125 -81 -201c0 -138 46 -189 132 -189c29 0 62 7 101 30l8 -15c-61 -52 -133 -71 -215 -71c-13 0 -25 1 -37 2l-22 -46c147 -1 206 -51 206 -103
c0 -57 -74 -111 -213 -111c-17 0 -34 0 -61 2v17c117 -2 140 44 140 78c0 30 -36 61 -116 62l49 103c-136 17 -203 107 -203 219c0 129 96 248 283 248z" />
    <glyph glyph-name="egrave" unicode="&#xe8;" horiz-adv-x="571" 
d="M254 260l100 4c-1 96 -7 174 -50 174c-41 0 -50 -70 -50 -178zM306 457c132 0 232 -70 236 -202l-4 -9l-284 -6c0 -133 53 -198 140 -198c45 0 100 23 141 60l9 -12c-43 -53 -117 -104 -242 -104c-187 0 -274 104 -274 232c0 129 98 239 278 239zM405 517l-6 -13
c-200 46 -246 137 -246 175c0 31 21 66 68 66c34 0 52 -24 69 -59c16 -34 35 -109 115 -169z" />
    <glyph glyph-name="eacute" unicode="&#xe9;" horiz-adv-x="571" 
d="M254 260l100 4c-1 96 -7 174 -50 174c-41 0 -50 -70 -50 -178zM306 457c132 0 232 -70 236 -202l-4 -9l-284 -6c0 -133 53 -198 140 -198c45 0 100 23 141 60l9 -12c-43 -53 -117 -104 -242 -104c-187 0 -274 104 -274 232c0 129 98 239 278 239zM193 503l-6 15
c80 60 98 134 115 168c17 35 34 59 68 59c47 0 69 -35 69 -66c0 -38 -46 -130 -246 -176z" />
    <glyph glyph-name="ecircumflex" unicode="&#xea;" horiz-adv-x="571" 
d="M254 260l100 4c-1 96 -7 174 -50 174c-41 0 -50 -70 -50 -178zM306 457c132 0 232 -70 236 -202l-4 -9l-284 -6c0 -133 53 -198 140 -198c45 0 100 23 141 60l9 -12c-43 -53 -117 -104 -242 -104c-187 0 -274 104 -274 232c0 129 98 239 278 239zM475 522l-173 88
l-180 -88l-11 13l172 192c8 8 15 13 22 13s14 -5 21 -13l159 -192z" />
    <glyph glyph-name="edieresis" unicode="&#xeb;" horiz-adv-x="571" 
d="M254 260l100 4c-1 96 -7 174 -50 174c-41 0 -50 -70 -50 -178zM306 457c132 0 232 -70 236 -202l-4 -9l-284 -6c0 -133 53 -198 140 -198c45 0 100 23 141 60l9 -12c-43 -53 -117 -104 -242 -104c-187 0 -274 104 -274 232c0 129 98 239 278 239zM101 623
c0 49 40 90 90 90s90 -41 90 -90c0 -51 -40 -91 -90 -91s-90 40 -90 91zM314 623c0 49 40 90 90 90s90 -41 90 -90c0 -51 -40 -91 -90 -91s-90 40 -90 91z" />
    <glyph glyph-name="eth" unicode="&#xf0;" horiz-adv-x="652" 
d="M231 537l99 72c-39 53 -89 98 -145 127l7 17c75 -20 151 -48 215 -89l86 62l11 -16l-80 -57c117 -78 199 -197 199 -371c0 -136 -75 -297 -299 -297c-209 0 -296 115 -296 238s95 236 274 236c43 0 77 -10 99 -23l7 5c-12 53 -35 105 -66 152l-100 -72zM265 220
c0 -142 9 -218 59 -218c49 0 58 74 58 218c0 150 -8 218 -59 218c-49 0 -58 -92 -58 -218z" />
    <glyph glyph-name="ntilde" unicode="&#xf1;" horiz-adv-x="669" 
d="M70 92v243c0 75 -56 52 -56 74v8c87 13 173 27 261 41l6 -7l-11 -91h4c50 77 131 97 182 97c76 0 147 -37 147 -141v-224c0 -82 51 -62 51 -86v-6h-307v8c0 16 39 3 39 71v241c0 32 -3 74 -35 74c-19 0 -47 -19 -66 -49v-271c0 -64 39 -48 39 -66v-8h-310v6
c0 24 56 4 56 86zM512 688l13 -4c-13 -78 -52 -146 -122 -146c-49 0 -127 30 -180 30c-32 0 -63 -6 -83 -44l-13 4c8 47 34 147 118 147c42 0 144 -31 194 -31c37 0 57 6 73 44z" />
    <glyph glyph-name="ograve" unicode="&#xf2;" horiz-adv-x="646" 
d="M28 223c0 128 101 234 294 234c218 0 296 -120 296 -234c0 -116 -90 -238 -297 -238c-205 0 -293 115 -293 238zM265 220c0 -142 9 -218 59 -218c49 0 58 74 58 218c0 150 -8 218 -59 218c-49 0 -58 -92 -58 -218zM443 517l-6 -13c-200 46 -246 137 -246 175
c0 31 21 66 68 66c34 0 52 -24 69 -59c16 -34 35 -109 115 -169z" />
    <glyph glyph-name="oacute" unicode="&#xf3;" horiz-adv-x="646" 
d="M28 223c0 128 101 234 294 234c218 0 296 -120 296 -234c0 -116 -90 -238 -297 -238c-205 0 -293 115 -293 238zM265 220c0 -142 9 -218 59 -218c49 0 58 74 58 218c0 150 -8 218 -59 218c-49 0 -58 -92 -58 -218zM237 503l-6 15c80 60 98 134 115 168c17 35 34 59 68 59
c47 0 69 -35 69 -66c0 -38 -46 -130 -246 -176z" />
    <glyph glyph-name="ocircumflex" unicode="&#xf4;" horiz-adv-x="646" 
d="M28 223c0 128 101 234 294 234c218 0 296 -120 296 -234c0 -116 -90 -238 -297 -238c-205 0 -293 115 -293 238zM265 220c0 -142 9 -218 59 -218c49 0 58 74 58 218c0 150 -8 218 -59 218c-49 0 -58 -92 -58 -218zM501 522l-173 88l-180 -88l-11 13l172 192
c8 8 15 13 22 13s14 -5 21 -13l159 -192z" />
    <glyph glyph-name="otilde" unicode="&#xf5;" horiz-adv-x="646" 
d="M28 223c0 128 101 234 294 234c218 0 296 -120 296 -234c0 -116 -90 -238 -297 -238c-205 0 -293 115 -293 238zM265 220c0 -142 9 -218 59 -218c49 0 58 74 58 218c0 150 -8 218 -59 218c-49 0 -58 -92 -58 -218zM513 688l13 -4c-13 -78 -52 -146 -122 -146
c-49 0 -127 30 -180 30c-32 0 -63 -6 -83 -44l-13 4c8 47 34 147 118 147c42 0 144 -31 194 -31c37 0 57 6 73 44z" />
    <glyph glyph-name="odieresis" unicode="&#xf6;" horiz-adv-x="646" 
d="M28 223c0 128 101 234 294 234c218 0 296 -120 296 -234c0 -116 -90 -238 -297 -238c-205 0 -293 115 -293 238zM265 220c0 -142 9 -218 59 -218c49 0 58 74 58 218c0 150 -8 218 -59 218c-49 0 -58 -92 -58 -218zM129 623c0 49 40 90 90 90s90 -41 90 -90
c0 -51 -40 -91 -90 -91s-90 40 -90 91zM342 623c0 49 40 90 90 90s90 -41 90 -90c0 -51 -40 -91 -90 -91s-90 40 -90 91z" />
    <glyph glyph-name="divide" unicode="&#xf7;" 
d="M116 333h424v-57h-424v57zM329 376c-36 0 -67 31 -67 70c0 40 31 72 67 72c39 0 68 -32 68 -72c0 -39 -29 -70 -68 -70zM331 88c-37 0 -67 30 -67 70c0 39 30 72 67 72c39 0 68 -33 68 -72c0 -40 -29 -70 -68 -70z" />
    <glyph glyph-name="oslash" unicode="&#xf8;" horiz-adv-x="646" 
d="M28 223c0 128 101 234 294 234c56 0 102 -8 140 -22l27 38l16 -11l-24 -34c98 -42 137 -125 137 -205c0 -116 -90 -238 -297 -238c-54 0 -98 8 -136 22l-33 -47l-16 11l30 42c-96 42 -138 124 -138 210zM265 220c0 -17 0 -51 1 -64l113 160c-5 87 -19 122 -56 122
c-49 0 -58 -92 -58 -218zM382 220c0 24 -1 46 -1 65l-113 -160c5 -82 19 -123 56 -123c49 0 58 74 58 218z" />
    <glyph glyph-name="ugrave" unicode="&#xf9;" horiz-adv-x="668" 
d="M596 452v-348c0 -75 59 -52 59 -74v-8c-87 -13 -176 -18 -264 -32l-6 7l5 82h-3c-50 -78 -120 -94 -175 -94c-71 0 -143 34 -143 138v211c0 76 -57 53 -57 74v8c89 13 179 26 269 38l6 -6v-350c0 -28 9 -49 32 -49c20 0 43 20 60 48v241c0 76 -57 53 -57 74v8l268 39z
M436 517l-6 -13c-200 46 -246 137 -246 175c0 31 21 66 68 66c34 0 52 -24 69 -59c16 -34 35 -109 115 -169z" />
    <glyph glyph-name="uacute" unicode="&#xfa;" horiz-adv-x="668" 
d="M596 452v-348c0 -75 59 -52 59 -74v-8c-87 -13 -176 -18 -264 -32l-6 7l5 82h-3c-50 -78 -120 -94 -175 -94c-71 0 -143 34 -143 138v211c0 76 -57 53 -57 74v8c89 13 179 26 269 38l6 -6v-350c0 -28 9 -49 32 -49c20 0 43 20 60 48v241c0 76 -57 53 -57 74v8l268 39z
M241 503l-6 15c80 60 98 134 115 168c17 35 34 59 68 59c47 0 69 -35 69 -66c0 -38 -46 -130 -246 -176z" />
    <glyph glyph-name="ucircumflex" unicode="&#xfb;" horiz-adv-x="668" 
d="M596 452v-348c0 -75 59 -52 59 -74v-8c-87 -13 -176 -18 -264 -32l-6 7l5 82h-3c-50 -78 -120 -94 -175 -94c-71 0 -143 34 -143 138v211c0 76 -57 53 -57 74v8c89 13 179 26 269 38l6 -6v-350c0 -28 9 -49 32 -49c20 0 43 20 60 48v241c0 76 -57 53 -57 74v8l268 39z
M505 522l-173 88l-180 -88l-11 13l172 192c8 8 15 13 22 13s14 -5 21 -13l159 -192z" />
    <glyph glyph-name="udieresis" unicode="&#xfc;" horiz-adv-x="668" 
d="M596 452v-348c0 -75 59 -52 59 -74v-8c-87 -13 -176 -18 -264 -32l-6 7l5 82h-3c-50 -78 -120 -94 -175 -94c-71 0 -143 34 -143 138v211c0 76 -57 53 -57 74v8c89 13 179 26 269 38l6 -6v-350c0 -28 9 -49 32 -49c20 0 43 20 60 48v241c0 76 -57 53 -57 74v8l268 39z
M123 623c0 49 40 90 90 90s90 -41 90 -90c0 -51 -40 -91 -90 -91s-90 40 -90 91zM336 623c0 49 40 90 90 90s90 -41 90 -90c0 -51 -40 -91 -90 -91s-90 40 -90 91z" />
    <glyph glyph-name="yacute" unicode="&#xfd;" horiz-adv-x="587" 
d="M378 210h3l49 100c13 27 18 46 18 60c0 55 -61 34 -61 56v9h198v-8c0 -23 -73 3 -134 -123l-173 -357c-45 -92 -96 -178 -186 -178c-67 0 -106 42 -106 97c0 47 37 87 90 87c71 0 107 -57 113 -107c19 18 47 63 75 120l19 41h-28l-182 335c-43 80 -73 64 -73 85v8h353v-9
c0 -20 -57 -8 -57 -49c0 -10 5 -23 14 -40zM221 503l-6 15c80 60 98 134 115 168c17 35 34 59 68 59c47 0 69 -35 69 -66c0 -38 -46 -130 -246 -176z" />
    <glyph glyph-name="thorn" unicode="&#xfe;" horiz-adv-x="666" 
d="M68 -118v725c0 81 -61 56 -61 79v8l274 40l6 -6v-194c0 -48 0 -110 -17 -168h5c47 72 120 90 165 90c147 0 197 -111 197 -235c0 -159 -107 -237 -212 -237c-39 0 -92 6 -134 36c-2 0 -3 -1 -5 -1v-137c0 -82 55 -62 55 -86v-6h-328v6c0 24 55 4 55 86zM338 21
c46 0 61 65 61 185c0 126 -16 182 -61 182c-15 0 -35 -11 -50 -39v-304c13 -13 34 -24 50 -24z" />
    <glyph glyph-name="ydieresis" unicode="&#xff;" horiz-adv-x="587" 
d="M378 210h3l49 100c13 27 18 46 18 60c0 55 -61 34 -61 56v9h198v-8c0 -23 -73 3 -134 -123l-173 -357c-45 -92 -96 -178 -186 -178c-67 0 -106 42 -106 97c0 47 37 87 90 87c71 0 107 -57 113 -107c19 18 47 63 75 120l19 41h-28l-182 335c-43 80 -73 64 -73 85v8h353v-9
c0 -20 -57 -8 -57 -49c0 -10 5 -23 14 -40zM108 623c0 49 40 90 90 90s90 -41 90 -90c0 -51 -40 -91 -90 -91s-90 40 -90 91zM321 623c0 49 40 90 90 90s90 -41 90 -90c0 -51 -40 -91 -90 -91s-90 40 -90 91z" />
    <glyph glyph-name="space" unicode=" " horiz-adv-x="264" 
 />
    <glyph glyph-name="Amacron" unicode="&#x100;" horiz-adv-x="760" 
d="M430 102l-39 109h-202l-17 -49c-11 -31 -22 -62 -22 -81c0 -75 91 -49 91 -73v-8h-235v7c0 27 86 -6 129 112l153 424c8 23 12 41 12 55c0 64 -76 42 -76 67v9h257l204 -582c31 -89 68 -57 68 -84v-8h-367v7c0 22 52 9 52 59c0 9 -2 20 -8 36zM289 491l-93 -261h189
l-92 261h-4zM543 863l-2 -109c-94 8 -225 7 -341 0v89c103 16 238 18 343 20z" />
    <glyph glyph-name="amacron" unicode="&#x101;" horiz-adv-x="599" 
d="M319 228c-70 0 -77 -37 -77 -94c0 -58 15 -83 35 -83c12 0 28 12 44 32c-2 16 -2 28 -2 39v106zM536 264v-163c0 -46 13 -56 43 -58l2 -18c-32 -24 -98 -37 -133 -37c-66 0 -112 19 -124 74c-47 -65 -124 -81 -167 -81c-75 0 -132 35 -132 110c0 118 134 159 248 159
c15 0 33 -1 46 -2v55c0 84 -21 126 -78 126c-15 0 -29 -3 -46 -8c18 -19 29 -50 29 -76c0 -40 -23 -85 -79 -85c-44 0 -65 35 -65 67c0 41 29 130 228 130c185 0 228 -96 228 -193zM475 653l-2 -109c-94 8 -225 7 -341 0v89c103 16 238 18 343 20z" />
    <glyph glyph-name="Abreve" unicode="&#x102;" horiz-adv-x="760" 
d="M430 102l-39 109h-202l-17 -49c-11 -31 -22 -62 -22 -81c0 -75 91 -49 91 -73v-8h-235v7c0 27 86 -6 129 112l153 424c8 23 12 41 12 55c0 64 -76 42 -76 67v9h257l204 -582c31 -89 68 -57 68 -84v-8h-367v7c0 22 52 9 52 59c0 9 -2 20 -8 36zM289 491l-93 -261h189
l-92 261h-4zM387 727c-103 0 -159 82 -173 192l15 4c41 -79 107 -99 158 -99c46 0 117 20 161 100l12 -3c-19 -123 -84 -194 -173 -194z" />
    <glyph glyph-name="abreve" unicode="&#x103;" horiz-adv-x="599" 
d="M319 228c-70 0 -77 -37 -77 -94c0 -58 15 -83 35 -83c12 0 28 12 44 32c-2 16 -2 28 -2 39v106zM536 264v-163c0 -46 13 -56 43 -58l2 -18c-32 -24 -98 -37 -133 -37c-66 0 -112 19 -124 74c-47 -65 -124 -81 -167 -81c-75 0 -132 35 -132 110c0 118 134 159 248 159
c15 0 33 -1 46 -2v55c0 84 -21 126 -78 126c-15 0 -29 -3 -46 -8c18 -19 29 -50 29 -76c0 -40 -23 -85 -79 -85c-44 0 -65 35 -65 67c0 41 29 130 228 130c185 0 228 -96 228 -193zM310 516c-102 0 -160 86 -173 201l15 4c44 -77 100 -103 157 -103c54 0 117 26 161 105
l14 -4c-20 -129 -89 -203 -174 -203z" />
    <glyph glyph-name="Aogonek" unicode="&#x104;" horiz-adv-x="760" 
d="M430 102l-39 109h-202l-17 -49c-11 -31 -22 -62 -22 -81c0 -75 91 -49 91 -73v-8h-235v7c0 27 86 -6 129 112l153 424c8 23 12 41 12 55c0 64 -76 42 -76 67v9h257l204 -582c31 -89 68 -57 68 -84v-8h-121c-72 -50 -95 -109 -95 -154c0 -68 50 -93 106 -93
c20 0 42 4 63 12l5 -12c-29 -25 -104 -51 -169 -51c-64 0 -120 24 -120 94c0 43 31 128 180 204h-216v7c0 22 52 9 52 59c0 9 -2 20 -8 36zM289 491l-93 -261h189l-92 261h-4z" />
    <glyph glyph-name="aogonek" unicode="&#x105;" horiz-adv-x="599" 
d="M536 264v-163c0 -46 13 -56 43 -58l2 -18c-32 -24 -98 -37 -133 -37h-13c-70 -50 -92 -107 -92 -152c0 -68 50 -93 106 -93c20 0 42 4 63 12l5 -12c-29 -25 -104 -51 -169 -51c-64 0 -120 24 -120 94c0 43 31 128 181 205c-45 7 -76 27 -85 71c-47 -65 -124 -81 -167 -81
c-75 0 -132 35 -132 110c0 118 134 159 248 159c15 0 33 -1 46 -2v55c0 84 -21 126 -78 126c-15 0 -29 -3 -46 -8c18 -19 29 -50 29 -76c0 -40 -23 -85 -79 -85c-44 0 -65 35 -65 67c0 41 29 130 228 130c185 0 228 -96 228 -193zM319 228c-70 0 -77 -37 -77 -94
c0 -58 15 -83 35 -83c12 0 28 12 44 32c-2 16 -2 28 -2 39v106z" />
    <glyph glyph-name="Cacute" unicode="&#x106;" horiz-adv-x="684" 
d="M397 690c77 0 142 -17 183 -30l35 47c4 0 7 -1 10 -1l9 -276h-4c-11 0 -11 3 -22 32c-41 113 -88 206 -167 206c-83 0 -122 -102 -122 -340c0 -260 50 -318 128 -318c84 0 151 116 179 235c7 32 12 44 21 44h6l-11 -308c-3 0 -7 -1 -11 -1l-33 48
c-52 -21 -114 -42 -202 -42c-224 0 -358 146 -358 344s137 360 359 360zM268 734c-1 6 -3 10 -4 15c89 46 121 118 141 148c18 28 36 45 64 45c48 0 69 -37 69 -66c0 -28 -36 -129 -270 -142z" />
    <glyph glyph-name="cacute" unicode="&#x107;" horiz-adv-x="512" 
d="M311 457c136 0 177 -62 177 -118c0 -45 -36 -80 -81 -80c-58 0 -86 44 -86 96c0 25 7 52 19 77c-69 -14 -81 -125 -81 -201c0 -138 46 -189 132 -189c29 0 62 7 101 30l8 -15c-61 -52 -133 -71 -215 -71c-172 0 -257 97 -257 223c0 129 96 248 283 248zM162 503l-6 15
c80 60 98 134 115 168c17 35 34 59 68 59c47 0 69 -35 69 -66c0 -38 -46 -130 -246 -176z" />
    <glyph glyph-name="Ccircumflex" unicode="&#x108;" horiz-adv-x="684" 
d="M397 690c77 0 142 -17 183 -30l35 47c4 0 7 -1 10 -1l9 -276h-4c-11 0 -11 3 -22 32c-41 113 -88 206 -167 206c-83 0 -122 -102 -122 -340c0 -260 50 -318 128 -318c84 0 151 116 179 235c7 32 12 44 21 44h6l-11 -308c-3 0 -7 -1 -11 -1l-33 48
c-52 -21 -114 -42 -202 -42c-224 0 -358 146 -358 344s137 360 359 360zM551 738l-172 77l-180 -76l-11 15l172 176c8 8 15 13 22 13s14 -5 21 -13l159 -179z" />
    <glyph glyph-name="ccircumflex" unicode="&#x109;" horiz-adv-x="512" 
d="M311 457c136 0 177 -62 177 -118c0 -45 -36 -80 -81 -80c-58 0 -86 44 -86 96c0 25 7 52 19 77c-69 -14 -81 -125 -81 -201c0 -138 46 -189 132 -189c29 0 62 7 101 30l8 -15c-61 -52 -133 -71 -215 -71c-172 0 -257 97 -257 223c0 129 96 248 283 248zM444 522l-173 88
l-180 -88l-11 13l172 192c8 8 15 13 22 13s14 -5 21 -13l159 -192z" />
    <glyph glyph-name="Cdotaccent" unicode="&#x10a;" horiz-adv-x="684" 
d="M397 690c77 0 142 -17 183 -30l35 47c4 0 7 -1 10 -1l9 -276h-4c-11 0 -11 3 -22 32c-41 113 -88 206 -167 206c-83 0 -122 -102 -122 -340c0 -260 50 -318 128 -318c84 0 151 116 179 235c7 32 12 44 21 44h6l-11 -308c-3 0 -7 -1 -11 -1l-33 48
c-52 -21 -114 -42 -202 -42c-224 0 -358 146 -358 344s137 360 359 360zM283 841c0 53 43 96 95 96c55 0 98 -43 98 -96s-43 -97 -98 -97c-52 0 -95 44 -95 97z" />
    <glyph glyph-name="cdotaccent" unicode="&#x10b;" horiz-adv-x="512" 
d="M311 457c136 0 177 -62 177 -118c0 -45 -36 -80 -81 -80c-58 0 -86 44 -86 96c0 25 7 52 19 77c-69 -14 -81 -125 -81 -201c0 -138 46 -189 132 -189c29 0 62 7 101 30l8 -15c-61 -52 -133 -71 -215 -71c-172 0 -257 97 -257 223c0 129 96 248 283 248zM182 633
c0 53 43 96 95 96c55 0 98 -43 98 -96s-43 -97 -98 -97c-52 0 -95 44 -95 97z" />
    <glyph glyph-name="Ccaron" unicode="&#x10c;" horiz-adv-x="684" 
d="M397 690c77 0 142 -17 183 -30l35 47c4 0 7 -1 10 -1l9 -276h-4c-11 0 -11 3 -22 32c-41 113 -88 206 -167 206c-83 0 -122 -102 -122 -340c0 -260 50 -318 128 -318c84 0 151 116 179 235c7 32 12 44 21 44h6l-11 -308c-3 0 -7 -1 -11 -1l-33 48
c-52 -21 -114 -42 -202 -42c-224 0 -358 146 -358 344s137 360 359 360zM379 850l173 80l10 -12l-159 -179c-7 -8 -14 -13 -21 -13s-13 6 -22 13l-171 177l11 13z" />
    <glyph glyph-name="ccaron" unicode="&#x10d;" horiz-adv-x="512" 
d="M311 457c136 0 177 -62 177 -118c0 -45 -36 -80 -81 -80c-58 0 -86 44 -86 96c0 25 7 52 19 77c-69 -14 -81 -125 -81 -201c0 -138 46 -189 132 -189c29 0 62 7 101 30l8 -15c-61 -52 -133 -71 -215 -71c-172 0 -257 97 -257 223c0 129 96 248 283 248zM265 642l172 94
l11 -12l-160 -196c-7 -8 -13 -13 -20 -13c-8 0 -15 5 -22 13l-172 194l11 13z" />
    <glyph glyph-name="Dcaron" unicode="&#x10e;" horiz-adv-x="831" 
d="M410 0h-387v8c0 23 75 -3 75 82v494c0 82 -72 58 -72 82v8h372c225 0 395 -113 395 -337c0 -120 -70 -337 -383 -337zM346 653v-573c0 -32 11 -60 59 -60c75 0 112 93 112 292c0 243 -36 341 -158 341h-13zM399 850l173 80l10 -12l-159 -179c-7 -8 -14 -13 -21 -13
s-13 6 -22 13l-171 177l11 13z" />
    <glyph glyph-name="dcaron" unicode="&#x10f;" horiz-adv-x="711" 
d="M598 728v-631c0 -75 57 -52 57 -74v-8c-87 -13 -176 -18 -264 -32l-6 7l5 82h-3c-50 -73 -115 -87 -159 -87c-150 0 -200 109 -200 232c0 159 105 241 212 241c39 0 93 -8 135 -39h4v190c0 80 -62 54 -62 77v8l274 40zM326 417c-47 0 -62 -64 -62 -184
c0 -126 16 -182 62 -182c19 0 38 16 52 39v305c-13 12 -36 22 -52 22zM713 734c54 0 78 -45 78 -86c0 -72 -45 -157 -110 -212c-4 5 -8 11 -13 15c52 51 75 97 82 144c-14 -10 -31 -15 -42 -15c-46 0 -72 36 -72 76c0 39 31 78 77 78z" />
    <glyph glyph-name="Dcroat" unicode="&#x110;" horiz-adv-x="824" 
d="M414 0h-386v8c0 23 64 -1 64 82v256h-66v20h66v218c0 80 -64 58 -64 82v8h374c224 0 384 -113 384 -337c0 -120 -59 -337 -372 -337zM340 653v-287h85v-20h-85v-266c0 -32 10 -60 59 -60c75 0 112 93 112 292c0 243 -36 341 -158 341h-13z" />
    <glyph glyph-name="dcroat" unicode="&#x111;" horiz-adv-x="663" 
d="M598 728v-171h50v-20h-50v-440c0 -75 57 -52 57 -74v-8c-87 -13 -176 -18 -264 -32l-6 7l5 82h-3c-50 -73 -115 -87 -159 -87c-150 0 -200 109 -200 232c0 159 105 241 212 241c39 0 93 -8 135 -39h4v118h-129v20h129v52c0 80 -62 54 -62 77v8l274 40zM326 417
c-47 0 -62 -64 -62 -184c0 -126 16 -182 62 -182c19 0 38 16 52 39v305c-13 12 -36 22 -52 22z" />
    <glyph glyph-name="Emacron" unicode="&#x112;" horiz-adv-x="700" 
d="M369 674c103 0 177 13 242 36l6 -2l27 -276c-1 0 -2 0 -4 -1c-11 0 -14 2 -23 27c-58 149 -112 195 -234 195h-36v-290h23c121 0 92 134 123 134h6v-298h-7c-35 0 -1 144 -119 144h-26v-254c0 -38 5 -68 68 -68h17c91 0 152 64 228 242c10 20 11 29 21 29c5 0 5 -1 8 -2
c-17 -104 -34 -210 -52 -314l-5 -2c-46 19 -106 26 -187 26h-424v8c0 24 77 -3 77 82v493c0 82 -74 58 -74 82v9h345zM508 863l-2 -109c-94 8 -225 7 -341 0v89c103 16 238 18 343 20z" />
    <glyph glyph-name="emacron" unicode="&#x113;" horiz-adv-x="571" 
d="M254 260l100 4c-1 96 -7 174 -50 174c-41 0 -50 -70 -50 -178zM306 457c132 0 232 -70 236 -202l-4 -9l-284 -6c0 -133 53 -198 140 -198c45 0 100 23 141 60l9 -12c-43 -53 -117 -104 -242 -104c-187 0 -274 104 -274 232c0 129 98 239 278 239zM461 653l-2 -109
c-94 8 -225 7 -341 0v89c103 16 238 18 343 20z" />
    <glyph glyph-name="Ebreve" unicode="&#x114;" horiz-adv-x="700" 
d="M369 674c103 0 177 13 242 36l6 -2l27 -276c-1 0 -2 0 -4 -1c-11 0 -14 2 -23 27c-58 149 -112 195 -234 195h-36v-290h23c121 0 92 134 123 134h6v-298h-7c-35 0 -1 144 -119 144h-26v-254c0 -38 5 -68 68 -68h17c91 0 152 64 228 242c10 20 11 29 21 29c5 0 5 -1 8 -2
c-17 -104 -34 -210 -52 -314l-5 -2c-46 19 -106 26 -187 26h-424v8c0 24 77 -3 77 82v493c0 82 -74 58 -74 82v9h345zM344 727c-103 0 -159 82 -173 192l15 4c41 -79 107 -99 158 -99c46 0 117 20 161 100l12 -3c-19 -123 -84 -194 -173 -194z" />
    <glyph glyph-name="ebreve" unicode="&#x115;" horiz-adv-x="571" 
d="M254 260l100 4c-1 96 -7 174 -50 174c-41 0 -50 -70 -50 -178zM306 457c132 0 232 -70 236 -202l-4 -9l-284 -6c0 -133 53 -198 140 -198c45 0 100 23 141 60l9 -12c-43 -53 -117 -104 -242 -104c-187 0 -274 104 -274 232c0 129 98 239 278 239zM290 516
c-102 0 -160 86 -173 201l15 4c44 -77 100 -103 157 -103c54 0 117 26 161 105l14 -4c-20 -129 -89 -203 -174 -203z" />
    <glyph glyph-name="Edotaccent" unicode="&#x116;" horiz-adv-x="700" 
d="M369 674c103 0 177 13 242 36l6 -2l27 -276c-1 0 -2 0 -4 -1c-11 0 -14 2 -23 27c-58 149 -112 195 -234 195h-36v-290h23c121 0 92 134 123 134h6v-298h-7c-35 0 -1 144 -119 144h-26v-254c0 -38 5 -68 68 -68h17c91 0 152 64 228 242c10 20 11 29 21 29c5 0 5 -1 8 -2
c-17 -104 -34 -210 -52 -314l-5 -2c-46 19 -106 26 -187 26h-424v8c0 24 77 -3 77 82v493c0 82 -74 58 -74 82v9h345zM248 839c0 53 43 96 95 96c55 0 98 -43 98 -96s-43 -97 -98 -97c-52 0 -95 44 -95 97z" />
    <glyph glyph-name="edotaccent" unicode="&#x117;" horiz-adv-x="571" 
d="M254 260l100 4c-1 96 -7 174 -50 174c-41 0 -50 -70 -50 -178zM306 457c132 0 232 -70 236 -202l-4 -9l-284 -6c0 -133 53 -198 140 -198c45 0 100 23 141 60l9 -12c-43 -53 -117 -104 -242 -104c-187 0 -274 104 -274 232c0 129 98 239 278 239zM199 633
c0 53 43 96 95 96c55 0 98 -43 98 -96s-43 -97 -98 -97c-52 0 -95 44 -95 97z" />
    <glyph glyph-name="Eogonek" unicode="&#x118;" horiz-adv-x="700" 
d="M369 674c103 0 177 13 242 36l6 -2l27 -276c-1 0 -2 0 -4 -1c-11 0 -14 2 -23 27c-58 149 -112 195 -234 195h-36v-290h23c121 0 92 134 123 134h6v-298h-7c-35 0 -1 144 -119 144h-26v-254c0 -38 5 -68 68 -68h17c91 0 152 64 228 242c10 20 11 29 21 29c5 0 5 -1 8 -2
c-17 -104 -34 -210 -52 -314l-5 -2c-27 11 -57 18 -94 22c-73 -50 -96 -110 -96 -155c0 -68 50 -93 106 -93c20 0 42 4 63 12l5 -12c-29 -25 -104 -51 -169 -51c-64 0 -120 24 -120 94c0 43 32 130 186 207c-21 2 -44 2 -68 2h-424v8c0 24 77 -3 77 82v493
c0 82 -74 58 -74 82v9h345z" />
    <glyph glyph-name="eogonek" unicode="&#x119;" horiz-adv-x="571" 
d="M306 457c132 0 232 -70 236 -202l-4 -9l-284 -6c0 -133 53 -198 140 -198c45 0 100 23 141 60l9 -12c-19 -23 -43 -45 -74 -63c-67 -49 -89 -106 -89 -150c0 -68 50 -93 106 -93c20 0 42 4 63 12l5 -12c-29 -25 -104 -51 -169 -51c-64 0 -120 24 -120 94
c0 36 22 102 117 167c-24 -5 -51 -8 -81 -8c-187 0 -274 104 -274 232c0 129 98 239 278 239zM254 260l100 4c-1 96 -7 174 -50 174c-41 0 -50 -70 -50 -178z" />
    <glyph glyph-name="Ecaron" unicode="&#x11a;" horiz-adv-x="700" 
d="M369 674c103 0 177 13 242 36l6 -2l27 -276c-1 0 -2 0 -4 -1c-11 0 -14 2 -23 27c-58 149 -112 195 -234 195h-36v-290h23c121 0 92 134 123 134h6v-298h-7c-35 0 -1 144 -119 144h-26v-254c0 -38 5 -68 68 -68h17c91 0 152 64 228 242c10 20 11 29 21 29c5 0 5 -1 8 -2
c-17 -104 -34 -210 -52 -314l-5 -2c-46 19 -106 26 -187 26h-424v8c0 24 77 -3 77 82v493c0 82 -74 58 -74 82v9h345zM342 850l173 80l10 -12l-159 -179c-7 -8 -14 -13 -21 -13s-13 6 -22 13l-171 177l11 13z" />
    <glyph glyph-name="ecaron" unicode="&#x11b;" horiz-adv-x="571" 
d="M254 260l100 4c-1 96 -7 174 -50 174c-41 0 -50 -70 -50 -178zM306 457c132 0 232 -70 236 -202l-4 -9l-284 -6c0 -133 53 -198 140 -198c45 0 100 23 141 60l9 -12c-43 -53 -117 -104 -242 -104c-187 0 -274 104 -274 232c0 129 98 239 278 239zM294 642l172 94l11 -12
l-160 -196c-7 -8 -13 -13 -20 -13c-8 0 -15 5 -22 13l-172 194l11 13z" />
    <glyph glyph-name="Gcircumflex" unicode="&#x11c;" horiz-adv-x="772" 
d="M703 4c-3 -2 -8 -3 -11 -4l-73 49c-70 -36 -136 -63 -229 -63c-218 0 -352 146 -352 344s141 361 393 361c74 0 142 -17 190 -38l38 54c3 0 6 -1 10 -1l10 -285h-3c-10 0 -16 4 -25 36c-29 102 -94 212 -191 212c-93 0 -140 -105 -140 -341c0 -242 20 -323 91 -323
c34 0 61 26 74 51v184c0 82 -72 58 -72 82v8h353v-8c0 -23 -63 0 -63 -82v-236zM583 735l-172 77l-180 -76l-11 15l172 176c8 8 15 13 22 13s14 -5 21 -13l159 -179z" />
    <glyph glyph-name="gcircumflex" unicode="&#x11d;" horiz-adv-x="629" 
d="M292 -227c-229 0 -270 69 -270 122c0 42 23 81 81 81c60 0 87 -49 87 -104c0 -25 -6 -50 -16 -72c15 -3 34 -5 53 -5c63 0 137 20 137 87c0 139 -336 62 -336 162c0 25 29 71 90 96c-51 33 -74 81 -74 134c0 97 86 183 255 183c48 0 87 -6 120 -15c36 53 89 93 137 93
c53 0 94 -25 94 -76c0 -42 -37 -65 -66 -65c-34 0 -83 23 -87 98c-23 -12 -43 -33 -61 -56c89 -32 122 -95 122 -157c0 -89 -76 -181 -259 -181c-71 0 -124 12 -164 32c-25 -12 -37 -24 -37 -34c0 -76 507 46 507 -164c0 -85 -106 -159 -313 -159zM252 276
c0 -95 6 -163 52 -163c40 0 47 71 47 163c0 98 -5 163 -51 163c-42 0 -48 -83 -48 -163zM478 552l-173 88l-180 -88l-11 13l172 192c8 8 15 13 22 13s14 -5 21 -13l159 -192z" />
    <glyph glyph-name="Gbreve" unicode="&#x11e;" horiz-adv-x="772" 
d="M703 4c-3 -2 -8 -3 -11 -4l-73 49c-70 -36 -136 -63 -229 -63c-218 0 -352 146 -352 344s141 361 393 361c74 0 142 -17 190 -38l38 54c3 0 6 -1 10 -1l10 -285h-3c-10 0 -16 4 -25 36c-29 102 -94 212 -191 212c-93 0 -140 -105 -140 -341c0 -242 20 -323 91 -323
c34 0 61 26 74 51v184c0 82 -72 58 -72 82v8h353v-8c0 -23 -63 0 -63 -82v-236zM409 727c-103 0 -159 82 -173 192l15 4c41 -79 107 -99 158 -99c46 0 117 20 161 100l12 -3c-19 -123 -84 -194 -173 -194z" />
    <glyph glyph-name="gbreve" unicode="&#x11f;" horiz-adv-x="629" 
d="M292 -227c-229 0 -270 69 -270 122c0 42 23 81 81 81c60 0 87 -49 87 -104c0 -25 -6 -50 -16 -72c15 -3 34 -5 53 -5c63 0 137 20 137 87c0 139 -336 62 -336 162c0 25 29 71 90 96c-51 33 -74 81 -74 134c0 97 86 183 255 183c48 0 87 -6 120 -15c36 53 89 93 137 93
c53 0 94 -25 94 -76c0 -42 -37 -65 -66 -65c-34 0 -83 23 -87 98c-23 -12 -43 -33 -61 -56c89 -32 122 -95 122 -157c0 -89 -76 -181 -259 -181c-71 0 -124 12 -164 32c-25 -12 -37 -24 -37 -34c0 -76 507 46 507 -164c0 -85 -106 -159 -313 -159zM252 276
c0 -95 6 -163 52 -163c40 0 47 71 47 163c0 98 -5 163 -51 163c-42 0 -48 -83 -48 -163zM307 518c-102 0 -160 86 -173 201l15 4c44 -77 100 -103 157 -103c54 0 117 26 161 105l14 -4c-20 -129 -89 -203 -174 -203z" />
    <glyph glyph-name="Gdotaccent" unicode="&#x120;" horiz-adv-x="772" 
d="M703 4c-3 -2 -8 -3 -11 -4l-73 49c-70 -36 -136 -63 -229 -63c-218 0 -352 146 -352 344s141 361 393 361c74 0 142 -17 190 -38l38 54c3 0 6 -1 10 -1l10 -285h-3c-10 0 -16 4 -25 36c-29 102 -94 212 -191 212c-93 0 -140 -105 -140 -341c0 -242 20 -323 91 -323
c34 0 61 26 74 51v184c0 82 -72 58 -72 82v8h353v-8c0 -23 -63 0 -63 -82v-236zM321 835c0 53 43 96 95 96c55 0 98 -43 98 -96s-43 -97 -98 -97c-52 0 -95 44 -95 97z" />
    <glyph glyph-name="gdotaccent" unicode="&#x121;" horiz-adv-x="629" 
d="M292 -227c-229 0 -270 69 -270 122c0 42 23 81 81 81c60 0 87 -49 87 -104c0 -25 -6 -50 -16 -72c15 -3 34 -5 53 -5c63 0 137 20 137 87c0 139 -336 62 -336 162c0 25 29 71 90 96c-51 33 -74 81 -74 134c0 97 86 183 255 183c48 0 87 -6 120 -15c36 53 89 93 137 93
c53 0 94 -25 94 -76c0 -42 -37 -65 -66 -65c-34 0 -83 23 -87 98c-23 -12 -43 -33 -61 -56c89 -32 122 -95 122 -157c0 -89 -76 -181 -259 -181c-71 0 -124 12 -164 32c-25 -12 -37 -24 -37 -34c0 -76 507 46 507 -164c0 -85 -106 -159 -313 -159zM252 276
c0 -95 6 -163 52 -163c40 0 47 71 47 163c0 98 -5 163 -51 163c-42 0 -48 -83 -48 -163zM208 633c0 53 43 96 95 96c55 0 98 -43 98 -96s-43 -97 -98 -97c-52 0 -95 44 -95 97z" />
    <glyph glyph-name="Gcommaaccent" unicode="&#x122;" horiz-adv-x="772" 
d="M703 4c-3 -2 -8 -3 -11 -4l-73 49c-70 -36 -136 -63 -229 -63c-218 0 -352 146 -352 344s141 361 393 361c74 0 142 -17 190 -38l38 54c3 0 6 -1 10 -1l10 -285h-3c-10 0 -16 4 -25 36c-29 102 -94 212 -191 212c-93 0 -140 -105 -140 -341c0 -242 20 -323 91 -323
c34 0 61 26 74 51v184c0 82 -72 58 -72 82v8h353v-8c0 -23 -63 0 -63 -82v-236zM420 -58c54 0 78 -45 78 -86c0 -72 -45 -157 -110 -212c-4 5 -8 11 -13 15c52 51 75 97 82 144c-14 -10 -31 -15 -42 -15c-46 0 -72 36 -72 76c0 39 31 78 77 78z" />
    <glyph glyph-name="gcommaaccent" unicode="&#x123;" horiz-adv-x="629" 
d="M336 812l10 -13c-56 -54 -79 -102 -86 -140c15 12 32 15 45 15c45 0 75 -35 75 -78c0 -38 -28 -77 -73 -77c-54 0 -78 45 -78 87c0 70 43 153 107 206zM292 -227c-229 0 -270 69 -270 122c0 42 23 81 81 81c60 0 87 -49 87 -104c0 -25 -6 -50 -16 -72c15 -3 34 -5 53 -5
c63 0 137 20 137 87c0 139 -336 62 -336 162c0 25 29 71 90 96c-51 33 -74 81 -74 134c0 97 86 183 255 183c48 0 87 -6 120 -15c36 53 89 93 137 93c53 0 94 -25 94 -76c0 -42 -37 -65 -66 -65c-34 0 -83 23 -87 98c-23 -12 -43 -33 -61 -56c89 -32 122 -95 122 -157
c0 -89 -76 -181 -259 -181c-71 0 -124 12 -164 32c-25 -12 -37 -24 -37 -34c0 -76 507 46 507 -164c0 -85 -106 -159 -313 -159zM252 276c0 -95 6 -163 52 -163c40 0 47 71 47 163c0 98 -5 163 -51 163c-42 0 -48 -83 -48 -163z" />
    <glyph glyph-name="Hcircumflex" unicode="&#x124;" horiz-adv-x="857" 
d="M834 0h-384v8c0 23 61 -1 61 81v257h-166v-257c0 -82 60 -58 60 -81v-8h-383v8c0 23 74 -1 74 82v494c0 81 -71 57 -71 81v9h380v-9c0 -24 -60 1 -60 -81v-218h166v218c0 82 -61 57 -61 81v9h381v-9c0 -24 -72 0 -72 -81v-494c0 -83 75 -59 75 -82v-8zM602 732l-172 77
l-180 -76l-11 15l172 176c8 8 15 13 22 13s14 -5 21 -13l159 -179z" />
    <glyph glyph-name="hcircumflex" unicode="&#x125;" horiz-adv-x="668" 
d="M70 92v515c0 81 -61 56 -61 79v8l274 40l6 -6v-187c0 -54 0 -126 -21 -187h4c49 87 132 103 183 103c76 0 148 -37 148 -141v-224c0 -82 53 -62 53 -86v-6h-309v6c0 23 39 4 39 86v250c0 37 -16 53 -36 53c-21 0 -47 -20 -65 -53v-250c0 -82 38 -63 38 -86v-6h-309v6
c0 24 56 4 56 86zM349 753l-172 77l-180 -76l-11 15l172 176c8 8 15 13 22 13s14 -5 21 -13l159 -179z" />
    <glyph glyph-name="Hbar" unicode="&#x126;" horiz-adv-x="846" 
d="M817 0h-371v8c0 23 59 -1 59 81v257h-165v-257c0 -82 59 -58 59 -81v-8h-371v8c0 23 64 -1 64 81v412h-52v20h52v63c0 80 -64 57 -64 81v9h371v-9c0 -24 -59 1 -59 -81v-63h165v63c0 82 -59 57 -59 81v9h371v-9c0 -24 -63 1 -63 -81v-63h60v-20h-60v-412
c0 -82 63 -58 63 -81v-8zM340 365h165v136h-165v-136z" />
    <glyph glyph-name="hbar" unicode="&#x127;" horiz-adv-x="664" 
d="M70 92v445h-53v20h53v50c0 81 -61 56 -61 79v8l274 40l6 -6v-171h166v-20h-166c0 -54 -1 -124 -21 -183h4c49 87 132 103 183 103c76 0 148 -37 148 -141v-224c0 -82 53 -62 53 -86v-6h-309v6c0 23 39 4 39 86v250c0 37 -16 53 -36 53c-21 0 -47 -20 -65 -53v-250
c0 -82 38 -63 38 -86v-6h-309v6c0 24 56 4 56 86z" />
    <glyph glyph-name="dotlessi" unicode="&#x131;" horiz-adv-x="368" 
d="M291 458c1 -3 3 -5 5 -7v-359c0 -82 55 -62 55 -86v-6h-329v6c0 24 56 4 56 86v243c0 75 -57 52 -57 74v8c89 13 180 27 270 41z" />
    <glyph glyph-name="Itilde" unicode="&#x128;" horiz-adv-x="457" 
d="M427 0h-398v8c0 23 75 -1 75 81v495c0 82 -75 57 -75 81v9h398v-9c0 -24 -75 1 -75 -81v-495c0 -82 75 -58 75 -81v-8zM418 895l13 -4c-13 -78 -52 -146 -122 -146c-49 0 -127 30 -180 30c-32 0 -63 -6 -83 -44l-13 4c8 47 34 147 118 147c42 0 144 -31 194 -31
c37 0 57 6 73 44z" />
    <glyph glyph-name="itilde" unicode="&#x129;" horiz-adv-x="368" 
d="M376 688l13 -4c-13 -78 -52 -146 -122 -146c-49 0 -127 30 -180 30c-32 0 -63 -6 -83 -44l-13 4c8 47 34 147 118 147c42 0 144 -31 194 -31c37 0 57 6 73 44zM291 458c1 -3 3 -5 5 -7v-359c0 -82 55 -62 55 -86v-6h-329v6c0 24 56 4 56 86v243c0 75 -57 52 -57 74v8
c89 13 180 27 270 41z" />
    <glyph glyph-name="Imacron" unicode="&#x12a;" horiz-adv-x="457" 
d="M427 0h-398v8c0 23 75 -1 75 81v495c0 82 -75 57 -75 81v9h398v-9c0 -24 -75 1 -75 -81v-495c0 -82 75 -58 75 -81v-8zM396 863l-2 -109c-94 8 -225 7 -341 0v89c103 16 238 18 343 20z" />
    <glyph glyph-name="imacron" unicode="&#x12b;" horiz-adv-x="368" 
d="M350 653l-2 -109c-94 8 -225 7 -341 0v89c103 16 238 18 343 20zM291 458c1 -3 3 -5 5 -7v-359c0 -82 55 -62 55 -86v-6h-329v6c0 24 56 4 56 86v243c0 75 -57 52 -57 74v8c89 13 180 27 270 41z" />
    <glyph glyph-name="Ibreve" unicode="&#x12c;" horiz-adv-x="457" 
d="M233 727c-103 0 -159 82 -173 192l15 4c41 -79 107 -99 158 -99c46 0 117 20 161 100l12 -3c-19 -123 -84 -194 -173 -194zM427 0h-398v8c0 23 75 -1 75 81v495c0 82 -75 57 -75 81v9h398v-9c0 -24 -75 1 -75 -81v-495c0 -82 75 -58 75 -81v-8z" />
    <glyph glyph-name="ibreve" unicode="&#x12d;" horiz-adv-x="368" 
d="M179 522c-102 0 -160 86 -173 201l15 4c44 -77 100 -103 157 -103c54 0 117 26 161 105l14 -4c-20 -129 -89 -203 -174 -203zM291 458c1 -3 3 -5 5 -7v-359c0 -82 55 -62 55 -86v-6h-329v6c0 24 56 4 56 86v243c0 75 -57 52 -57 74v8c89 13 180 27 270 41z" />
    <glyph glyph-name="Iogonek" unicode="&#x12e;" horiz-adv-x="457" 
d="M427 0h-180c-71 -50 -93 -108 -93 -153c0 -68 50 -93 106 -93c20 0 42 4 63 12l5 -12c-29 -25 -104 -51 -169 -51c-64 0 -120 24 -120 94c0 43 31 127 178 203h-188v8c0 23 75 -1 75 81v495c0 82 -75 57 -75 81v9h398v-9c0 -24 -75 1 -75 -81v-495c0 -82 75 -58 75 -81
v-8z" />
    <glyph glyph-name="iogonek" unicode="&#x12f;" horiz-adv-x="368" 
d="M291 458c1 -3 3 -5 5 -7v-359c0 -82 55 -62 55 -86v-6h-131c-67 -49 -88 -105 -88 -149c0 -68 50 -93 106 -93c20 0 42 4 63 12l5 -12c-29 -25 -104 -51 -169 -51c-64 0 -120 24 -120 94c0 42 29 124 170 199h-165v6c0 24 56 4 56 86v243c0 75 -57 52 -57 74v8
c89 13 180 27 270 41zM185 729c64 0 115 -52 115 -114c0 -64 -51 -115 -115 -115c-62 0 -113 51 -113 115c0 62 51 114 113 114z" />
    <glyph glyph-name="Idotaccent" unicode="&#x130;" horiz-adv-x="457" 
d="M427 0h-398v8c0 23 75 -1 75 81v495c0 82 -75 57 -75 81v9h398v-9c0 -24 -75 1 -75 -81v-495c0 -82 75 -58 75 -81v-8zM137 832c0 53 43 96 95 96c55 0 98 -43 98 -96s-43 -97 -98 -97c-52 0 -95 44 -95 97z" />
    <glyph glyph-name="IJ" unicode="&#x132;" horiz-adv-x="857" 
d="M420 0h-398v8c0 23 75 -1 75 81v495c0 82 -75 57 -75 81v9h398v-9c0 -24 -75 1 -75 -81v-495c0 -82 75 -58 75 -81v-8zM766 584c0 -147 1 -295 1 -442c0 -117 -43 -248 -173 -327c-54 -33 -121 -62 -210 -62c-63 0 -139 27 -139 107c0 51 36 96 93 96
c77 0 107 -65 107 -137c0 -13 -1 -26 -3 -39c43 6 75 31 75 189v615c0 82 -74 57 -74 81v9h397v-9c0 -24 -74 1 -74 -81z" />
    <glyph glyph-name="ij" unicode="&#x133;" horiz-adv-x="673" 
d="M289 458c1 -3 3 -5 5 -7v-359c0 -82 55 -62 55 -86v-6h-329v6c0 24 56 4 56 86v243c0 75 -57 52 -57 74v8c89 13 180 27 270 41zM183 729c64 0 115 -52 115 -114c0 -64 -51 -115 -115 -115c-62 0 -113 51 -113 115c0 62 51 114 113 114zM326 -227c-74 0 -140 28 -140 93
c0 43 34 84 83 84c67 0 106 -64 100 -151c36 14 40 53 40 98v434c0 73 -54 48 -54 75v10l265 41l7 -7v-367c0 -91 -30 -199 -127 -259c-50 -31 -93 -51 -174 -51zM512 729c64 0 115 -52 115 -114c0 -64 -51 -116 -115 -116c-63 0 -113 52 -113 116c0 62 50 114 113 114z" />
    <glyph glyph-name="Jcircumflex" unicode="&#x134;" horiz-adv-x="429" 
d="M346 585c0 -147 1 -295 1 -442c0 -117 -43 -248 -173 -327c-54 -33 -121 -62 -210 -62c-63 0 -139 27 -139 107c0 51 36 96 93 96c77 0 107 -65 107 -137c0 -13 -1 -26 -3 -39c43 6 75 31 75 189v615c0 82 -74 57 -74 81v9h397v-9c0 -24 -74 1 -74 -81zM397 734l-172 77
l-180 -76l-11 15l172 176c8 8 15 13 22 13s14 -5 21 -13l159 -179z" />
    <glyph glyph-name="jcircumflex" unicode="&#x135;" horiz-adv-x="342" 
d="M-14 -227c-74 0 -140 28 -140 93c0 43 34 84 83 84c67 0 106 -64 100 -151c36 14 40 53 40 98v434c0 73 -54 48 -54 75v10l265 41l7 -7v-367c0 -91 -30 -199 -127 -259c-50 -31 -93 -51 -174 -51zM351 522l-173 88l-180 -88l-11 13l172 192c8 8 15 13 22 13s14 -5 21 -13
l159 -192z" />
    <glyph glyph-name="Kcommaaccent" unicode="&#x136;" horiz-adv-x="812" 
d="M516 473l205 -383c43 -80 91 -59 91 -83v-7h-368v8c0 17 39 10 39 39c0 8 -3 20 -12 36l-123 230h-14v-224c0 -82 63 -58 63 -81v-8h-375v8c0 23 64 -1 64 81v495c0 82 -64 57 -64 81v9h375v-9c0 -24 -63 1 -63 -81v-250h24l194 205c32 33 42 57 43 73
c0 44 -93 30 -93 54v8h277v-7c0 -28 -71 8 -190 -117zM395 -48c54 0 78 -45 78 -86c0 -72 -45 -157 -110 -212c-4 5 -8 11 -13 15c52 51 75 97 82 144c-14 -10 -31 -15 -42 -15c-46 0 -72 36 -72 76c0 39 31 78 77 78z" />
    <glyph glyph-name="kcommaaccent" unicode="&#x137;" horiz-adv-x="647" 
d="M278 733l6 -6v-511h26c33 35 70 68 103 103l24 25c12 13 17 23 17 30c0 39 -95 30 -95 52v10h261v-7c0 -26 -77 -5 -149 -77l-24 -24l98 -199c62 -126 106 -95 106 -122v-7h-263c-26 66 -56 129 -90 197h-14v-109c0 -79 43 -58 43 -81v-7h-317v6c0 24 56 5 56 86v522
c0 75 -58 52 -58 74v7c90 13 180 26 270 38zM320 -48c54 0 78 -45 78 -86c0 -72 -45 -157 -110 -212c-4 5 -8 11 -13 15c52 51 75 97 82 144c-14 -10 -31 -15 -42 -15c-46 0 -72 36 -72 76c0 39 31 78 77 78z" />
    <glyph glyph-name="kappa" unicode="&#x3ba;" horiz-adv-x="653" 
d="M316 218l124 125c12 12 17 23 17 31c0 37 -96 34 -96 53v9h261v-7c0 -26 -78 -5 -148 -77l-26 -28l103 -200c63 -122 104 -89 104 -117v-7h-256l-100 199h-13v-111c0 -80 51 -57 51 -81v-7h-325v6c0 27 55 4 55 86v243c0 75 -57 52 -57 74v7c90 11 180 21 269 31l7 -6
v-223h30z" />
    <glyph glyph-name="kgreenlandic" unicode="&#x138;" horiz-adv-x="653" 
d="M316 218l124 125c12 12 17 23 17 31c0 37 -96 34 -96 53v9h261v-7c0 -26 -78 -5 -148 -77l-26 -28l103 -200c63 -122 104 -89 104 -117v-7h-256l-100 199h-13v-111c0 -80 51 -57 51 -81v-7h-325v6c0 27 55 4 55 86v243c0 75 -57 52 -57 74v7c90 11 180 21 269 31l7 -6
v-223h30z" />
    <glyph glyph-name="Lacute" unicode="&#x139;" horiz-adv-x="690" 
d="M630 -23l-5 -2c-46 21 -143 25 -202 25h-401v8c0 23 76 -3 76 82v494c0 82 -75 57 -75 81v9h398v-9c0 -24 -75 1 -75 -81v-495c0 -38 6 -68 69 -68h8c104 0 153 70 229 248l6 13c4 11 8 16 16 16c3 0 5 -1 8 -2zM102 728c-1 6 -3 10 -4 15c89 46 121 118 141 148
c18 28 36 45 64 45c48 0 69 -37 69 -66c0 -28 -36 -129 -270 -142z" />
    <glyph glyph-name="lacute" unicode="&#x13a;" horiz-adv-x="366" 
d="M289 733l5 -6v-635c0 -82 55 -62 55 -86v-6h-328v6c0 24 55 4 55 86v522c0 75 -57 52 -57 74v7c89 13 180 26 270 38zM44 762c-1 6 -3 10 -4 15c89 46 121 118 141 148c18 28 36 45 64 45c48 0 69 -37 69 -66c0 -28 -36 -129 -270 -142z" />
    <glyph glyph-name="Lcommaaccent" unicode="&#x13b;" horiz-adv-x="690" 
d="M630 -23l-5 -2c-46 21 -143 25 -202 25h-401v8c0 23 76 -3 76 82v494c0 82 -75 57 -75 81v9h398v-9c0 -24 -75 1 -75 -81v-495c0 -38 6 -68 69 -68h8c104 0 153 70 229 248l6 13c4 11 8 16 16 16c3 0 5 -1 8 -2zM332 -48c54 0 78 -45 78 -86c0 -72 -45 -157 -110 -212
c-4 5 -8 11 -13 15c52 51 75 97 82 144c-14 -10 -31 -15 -42 -15c-46 0 -72 36 -72 76c0 39 31 78 77 78z" />
    <glyph glyph-name="lcommaaccent" unicode="&#x13c;" horiz-adv-x="366" 
d="M289 733l5 -6v-635c0 -82 55 -62 55 -86v-6h-328v6c0 24 55 4 55 86v522c0 75 -57 52 -57 74v7c89 13 180 26 270 38zM186 -48c54 0 78 -45 78 -86c0 -72 -45 -157 -110 -212c-4 5 -8 11 -13 15c52 51 75 97 82 144c-14 -10 -31 -15 -42 -15c-46 0 -72 36 -72 76
c0 39 31 78 77 78z" />
    <glyph glyph-name="Lcaron" unicode="&#x13d;" horiz-adv-x="690" 
d="M630 -23l-5 -2c-46 21 -143 25 -202 25h-401v8c0 23 76 -3 76 82v494c0 82 -75 57 -75 81v9h398v-9c0 -24 -75 1 -75 -81v-495c0 -38 6 -68 69 -68h8c104 0 153 70 229 248l6 13c4 11 8 16 16 16c3 0 5 -1 8 -2zM555 685c54 0 78 -45 78 -86c0 -72 -45 -157 -110 -212
c-4 5 -8 11 -13 15c52 51 75 97 82 144c-14 -10 -31 -15 -42 -15c-46 0 -72 36 -72 76c0 39 31 78 77 78z" />
    <glyph glyph-name="lcaron" unicode="&#x13e;" horiz-adv-x="413" 
d="M289 733l5 -6v-635c0 -82 55 -62 55 -86v-6h-328v6c0 24 55 4 55 86v522c0 75 -57 52 -57 74v7c89 13 180 26 270 38zM415 735c54 0 78 -45 78 -86c0 -72 -45 -157 -110 -212c-4 5 -8 11 -13 15c52 51 75 97 82 144c-14 -10 -31 -15 -42 -15c-46 0 -72 36 -72 76
c0 39 31 78 77 78z" />
    <glyph glyph-name="Ldot" unicode="&#x13f;" horiz-adv-x="680" 
d="M630 -23l-5 -2c-46 21 -143 25 -202 25h-401v8c0 23 76 -3 76 82v494c0 82 -75 57 -75 81v9h398v-9c0 -24 -75 1 -75 -81v-495c0 -38 6 -68 69 -68h8c104 0 153 70 229 248l6 13c4 11 8 16 16 16c3 0 5 -1 8 -2zM398 366c0 53 43 96 95 96c55 0 98 -43 98 -96
s-43 -97 -98 -97c-52 0 -95 44 -95 97z" />
    <glyph glyph-name="ldot" unicode="&#x140;" horiz-adv-x="510" 
d="M317 370c0 53 43 96 95 96c55 0 98 -43 98 -96s-43 -97 -98 -97c-52 0 -95 44 -95 97zM289 733l5 -6v-635c0 -82 55 -62 55 -86v-6h-328v6c0 24 55 4 55 86v522c0 75 -57 52 -57 74v7c89 13 180 26 270 38z" />
    <glyph glyph-name="Lslash" unicode="&#x141;" horiz-adv-x="690" 
d="M630 -23l-5 -2c-46 21 -143 25 -202 25h-401v8c0 23 76 -3 76 82v153l-86 -43l-9 18l95 47v319c0 82 -75 57 -75 81v9h398v-9c0 -24 -75 1 -75 -81v-194l75 38l8 -18l-83 -42v-279c0 -38 6 -68 69 -68h8c104 0 153 70 229 248l6 13c4 11 8 16 16 16c3 0 5 -1 8 -2z" />
    <glyph glyph-name="lslash" unicode="&#x142;" horiz-adv-x="366" 
d="M289 733l5 -6v-356l63 33l9 -18c-24 -12 -48 -24 -72 -37v-257c0 -82 55 -62 55 -86v-6h-328v6c0 24 55 4 55 86v146l-68 -34c-3 6 -7 12 -8 17c24 13 50 26 76 39v354c0 75 -57 52 -57 74v7c89 13 180 26 270 38z" />
    <glyph glyph-name="Nacute" unicode="&#x143;" horiz-adv-x="814" 
d="M130 149v434c0 84 -84 58 -84 82v9h335l282 -378l3 2v229c0 146 -117 111 -117 138v9h255v-9c0 -32 -119 19 -119 -167v-508l-100 -9l-433 596c-1 0 -2 -1 -3 -1v-430c0 -146 116 -110 116 -138v-8h-254v8c0 26 119 -8 119 141zM320 728c-1 6 -3 10 -4 15
c89 46 121 118 141 148c18 28 36 45 64 45c48 0 69 -37 69 -66c0 -28 -36 -129 -270 -142z" />
    <glyph glyph-name="nacute" unicode="&#x144;" horiz-adv-x="669" 
d="M70 92v243c0 75 -56 52 -56 74v8c87 13 173 27 261 41l6 -7l-11 -91h4c50 77 131 97 182 97c76 0 147 -37 147 -141v-224c0 -82 51 -62 51 -86v-6h-307v8c0 16 39 3 39 71v241c0 32 -3 74 -35 74c-19 0 -47 -19 -66 -49v-271c0 -64 39 -48 39 -66v-8h-310v6
c0 24 56 4 56 86zM233 503l-6 15c80 60 98 134 115 168c17 35 34 59 68 59c47 0 69 -35 69 -66c0 -38 -46 -130 -246 -176z" />
    <glyph glyph-name="Ncommaaccent" unicode="&#x145;" horiz-adv-x="814" 
d="M130 149v434c0 84 -84 58 -84 82v9h335l282 -378l3 2v229c0 146 -117 111 -117 138v9h255v-9c0 -32 -119 19 -119 -167v-508l-100 -9l-433 596c-1 0 -2 -1 -3 -1v-430c0 -146 116 -110 116 -138v-8h-254v8c0 26 119 -8 119 141zM389 -28c54 0 78 -45 78 -86
c0 -72 -45 -157 -110 -212c-4 5 -8 11 -13 15c52 51 75 97 82 144c-14 -10 -31 -15 -42 -15c-46 0 -72 36 -72 76c0 39 31 78 77 78z" />
    <glyph glyph-name="ncommaaccent" unicode="&#x146;" horiz-adv-x="669" 
d="M70 92v243c0 75 -56 52 -56 74v8c87 13 173 27 261 41l6 -7l-11 -91h4c50 77 131 97 182 97c76 0 147 -37 147 -141v-224c0 -82 51 -62 51 -86v-6h-307v8c0 16 39 3 39 71v241c0 32 -3 74 -35 74c-19 0 -47 -19 -66 -49v-271c0 -64 39 -48 39 -66v-8h-310v6
c0 24 56 4 56 86zM329 -48c54 0 78 -45 78 -86c0 -72 -45 -157 -110 -212c-4 5 -8 11 -13 15c52 51 75 97 82 144c-14 -10 -31 -15 -42 -15c-46 0 -72 36 -72 76c0 39 31 78 77 78z" />
    <glyph glyph-name="Ncaron" unicode="&#x147;" horiz-adv-x="814" 
d="M130 149v434c0 84 -84 58 -84 82v9h335l282 -378l3 2v229c0 146 -117 111 -117 138v9h255v-9c0 -32 -119 19 -119 -167v-508l-100 -9l-433 596c-1 0 -2 -1 -3 -1v-430c0 -146 116 -110 116 -138v-8h-254v8c0 26 119 -8 119 141zM427 850l173 80l10 -12l-159 -179
c-7 -8 -14 -13 -21 -13s-13 6 -22 13l-171 177l11 13z" />
    <glyph glyph-name="ncaron" unicode="&#x148;" horiz-adv-x="669" 
d="M70 92v243c0 75 -56 52 -56 74v8c87 13 173 27 261 41l6 -7l-11 -91h4c50 77 131 97 182 97c76 0 147 -37 147 -141v-224c0 -82 51 -62 51 -86v-6h-307v8c0 16 39 3 39 71v241c0 32 -3 74 -35 74c-19 0 -47 -19 -66 -49v-271c0 -64 39 -48 39 -66v-8h-310v6
c0 24 56 4 56 86zM320 642l172 94l11 -12l-160 -196c-7 -8 -13 -13 -20 -13c-8 0 -15 5 -22 13l-172 194l11 13z" />
    <glyph glyph-name="napostrophe" unicode="&#x149;" horiz-adv-x="669" 
d="M70 92v243c0 75 -56 52 -56 74v8c87 13 173 27 261 41l6 -7l-11 -91h4c50 77 131 97 182 97c76 0 147 -37 147 -141v-224c0 -82 51 -62 51 -86v-6h-307v8c0 16 39 3 39 71v241c0 32 -3 74 -35 74c-19 0 -47 -19 -66 -49v-271c0 -64 39 -48 39 -66v-8h-310v6
c0 24 56 4 56 86zM21 750c54 0 78 -45 78 -86c0 -72 -45 -157 -110 -212c-4 5 -8 11 -13 15c52 51 75 97 82 144c-14 -10 -31 -15 -42 -15c-46 0 -72 36 -72 76c0 39 31 78 77 78z" />
    <glyph glyph-name="Eng" unicode="&#x14a;" horiz-adv-x="785" 
d="M650 -48l-512 625c-1 0 -3 -1 -4 -1v-466c0 -106 100 -74 100 -102v-8h-220v8c0 26 102 -3 102 102v474c0 82 -69 57 -69 81v9h308l294 -357l3 2v244c0 106 -100 75 -100 102v9h220v-9c0 -27 -102 4 -102 -102v-558c0 -102 -1 -290 -233 -290c-54 0 -113 29 -113 100
c0 41 36 79 77 79c62 0 116 -50 118 -149c94 26 125 106 131 207z" />
    <glyph glyph-name="eng" unicode="&#x14b;" horiz-adv-x="664" 
d="M386 -103l1 445c0 29 -11 52 -36 52c-19 0 -45 -19 -64 -49v-271c0 -68 39 -43 39 -66v-8h-310v6c0 23 55 4 55 86v243c0 75 -57 52 -57 74v8c87 13 175 27 263 41l6 -7l-11 -91h4c50 77 129 97 180 97c76 0 148 -37 148 -141v-233c0 -91 -30 -199 -127 -259
c-50 -31 -93 -51 -174 -51c-74 0 -140 28 -140 93c0 43 34 84 83 84c67 0 106 -64 100 -151c36 14 40 53 40 98z" />
    <glyph glyph-name="Omacron" unicode="&#x14c;" horiz-adv-x="821" 
d="M38 341c0 191 126 350 371 350c277 0 374 -180 374 -350c0 -173 -112 -356 -375 -356c-261 0 -370 172 -370 356zM320 336c0 -220 21 -333 92 -333c73 0 90 117 90 333c0 228 -17 336 -92 336c-73 0 -90 -149 -90 -336zM584 863l-2 -109c-94 8 -225 7 -341 0v89
c103 16 238 18 343 20z" />
    <glyph glyph-name="omacron" unicode="&#x14d;" horiz-adv-x="646" 
d="M28 223c0 128 101 234 294 234c218 0 296 -120 296 -234c0 -116 -90 -238 -297 -238c-205 0 -293 115 -293 238zM265 220c0 -142 9 -218 59 -218c49 0 58 74 58 218c0 150 -8 218 -59 218c-49 0 -58 -92 -58 -218zM499 653l-2 -109c-94 8 -225 7 -341 0v89
c103 16 238 18 343 20z" />
    <glyph glyph-name="Obreve" unicode="&#x14e;" horiz-adv-x="821" 
d="M409 727c-103 0 -159 82 -173 192l15 4c41 -79 107 -99 158 -99c46 0 117 20 161 100l12 -3c-19 -123 -84 -194 -173 -194zM38 341c0 191 126 350 371 350c277 0 374 -180 374 -350c0 -173 -112 -356 -375 -356c-261 0 -370 172 -370 356zM320 336
c0 -220 21 -333 92 -333c73 0 90 117 90 333c0 228 -17 336 -92 336c-73 0 -90 -149 -90 -336z" />
    <glyph glyph-name="obreve" unicode="&#x14f;" horiz-adv-x="646" 
d="M28 223c0 128 101 234 294 234c218 0 296 -120 296 -234c0 -116 -90 -238 -297 -238c-205 0 -293 115 -293 238zM265 220c0 -142 9 -218 59 -218c49 0 58 74 58 218c0 150 -8 218 -59 218c-49 0 -58 -92 -58 -218zM322 516c-102 0 -160 86 -173 201l15 4
c44 -77 100 -103 157 -103c54 0 117 26 161 105l14 -4c-20 -129 -89 -203 -174 -203z" />
    <glyph glyph-name="Ohungarumlaut" unicode="&#x150;" horiz-adv-x="821" 
d="M38 341c0 191 126 350 371 350c277 0 374 -180 374 -350c0 -173 -112 -356 -375 -356c-261 0 -370 172 -370 356zM320 336c0 -220 21 -333 92 -333c73 0 90 117 90 333c0 228 -17 336 -92 336c-73 0 -90 -149 -90 -336zM210 724c-1 6 -2 10 -4 15c88 46 119 120 139 151
c17 28 34 45 64 45c48 0 70 -33 70 -65c0 -28 -35 -130 -269 -146zM416 728c-2 5 -3 9 -4 15c86 46 118 120 138 150c18 28 35 46 63 46c49 0 71 -36 71 -65c0 -28 -34 -130 -268 -146z" />
    <glyph glyph-name="ohungarumlaut" unicode="&#x151;" horiz-adv-x="646" 
d="M28 223c0 128 101 234 294 234c218 0 296 -120 296 -234c0 -116 -90 -238 -297 -238c-205 0 -293 115 -293 238zM265 220c0 -142 9 -218 59 -218c49 0 58 74 58 218c0 150 -8 218 -59 218c-49 0 -58 -92 -58 -218zM133 524l-3 16c85 47 117 116 137 148
c17 27 34 45 63 45c49 0 67 -34 67 -63c0 -30 -40 -127 -264 -146zM336 522l-4 16c86 47 118 117 138 148c17 27 35 45 64 45c48 0 67 -34 67 -63s-41 -127 -265 -146z" />
    <glyph glyph-name="Racute" unicode="&#x154;" horiz-adv-x="829" 
d="M345 653v-312h8c72 0 113 65 113 155c0 88 -36 157 -121 157zM383 318c26 -44 110 -57 169 -57c35 0 67 4 90 8l113 -204c32 -57 68 -36 68 -59v-6h-288c-60 107 -121 214 -182 321h-8v-232c0 -82 75 -58 75 -81v-8h-397v8c0 23 74 1 74 81v494c0 82 -71 58 -71 82v9h464
c117 0 238 -54 238 -177c0 -127 -120 -184 -268 -184c-25 0 -51 2 -77 5zM268 728c-1 6 -3 10 -4 15c89 46 121 118 141 148c18 28 36 45 64 45c48 0 69 -37 69 -66c0 -28 -36 -129 -270 -142z" />
    <glyph glyph-name="racute" unicode="&#x155;" horiz-adv-x="526" 
d="M76 92v243c0 75 -57 52 -57 74v8l265 39c2 -2 4 -4 5 -6l-15 -164c1 -1 3 -1 5 -2c29 113 85 173 157 173c55 0 103 -37 103 -92c0 -56 -43 -87 -91 -87c-56 0 -97 50 -97 108c-38 -33 -57 -110 -57 -147v-147c0 -82 55 -62 55 -86v-6h-329v6c0 24 56 4 56 86zM111 503
l-6 15c80 60 98 134 115 168c17 35 34 59 68 59c47 0 69 -35 69 -66c0 -38 -46 -130 -246 -176z" />
    <glyph glyph-name="Rcommaaccent" unicode="&#x156;" horiz-adv-x="829" 
d="M345 653v-312h8c72 0 113 65 113 155c0 88 -36 157 -121 157zM383 318c26 -44 110 -57 169 -57c35 0 67 4 90 8l113 -204c32 -57 68 -36 68 -59v-6h-288c-60 107 -121 214 -182 321h-8v-232c0 -82 75 -58 75 -81v-8h-397v8c0 23 74 1 74 81v494c0 82 -71 58 -71 82v9h464
c117 0 238 -54 238 -177c0 -127 -120 -184 -268 -184c-25 0 -51 2 -77 5zM424 -42c54 0 78 -45 78 -86c0 -72 -45 -157 -110 -212c-4 5 -8 11 -13 15c52 51 75 97 82 144c-14 -10 -31 -15 -42 -15c-46 0 -72 36 -72 76c0 39 31 78 77 78z" />
    <glyph glyph-name="rcommaaccent" unicode="&#x157;" horiz-adv-x="526" 
d="M76 92v243c0 75 -57 52 -57 74v8l265 39c2 -2 4 -4 5 -6l-15 -164c1 -1 3 -1 5 -2c29 113 85 173 157 173c55 0 103 -37 103 -92c0 -56 -43 -87 -91 -87c-56 0 -97 50 -97 108c-38 -33 -57 -110 -57 -147v-147c0 -82 55 -62 55 -86v-6h-329v6c0 24 56 4 56 86zM185 -48
c54 0 78 -45 78 -86c0 -72 -45 -157 -110 -212c-4 5 -8 11 -13 15c52 51 75 97 82 144c-14 -10 -31 -15 -42 -15c-46 0 -72 36 -72 76c0 39 31 78 77 78z" />
    <glyph glyph-name="Rcaron" unicode="&#x158;" horiz-adv-x="829" 
d="M345 653v-312h8c72 0 113 65 113 155c0 88 -36 157 -121 157zM383 318c26 -44 110 -57 169 -57c35 0 67 4 90 8l113 -204c32 -57 68 -36 68 -59v-6h-288c-60 107 -121 214 -182 321h-8v-232c0 -82 75 -58 75 -81v-8h-397v8c0 23 74 1 74 81v494c0 82 -71 58 -71 82v9h464
c117 0 238 -54 238 -177c0 -127 -120 -184 -268 -184c-25 0 -51 2 -77 5zM373 850l173 80l10 -12l-159 -179c-7 -8 -14 -13 -21 -13s-13 6 -22 13l-171 177l11 13z" />
    <glyph glyph-name="rcaron" unicode="&#x159;" horiz-adv-x="526" 
d="M76 92v243c0 75 -57 52 -57 74v8l265 39c2 -2 4 -4 5 -6l-15 -164c1 -1 3 -1 5 -2c29 113 85 173 157 173c55 0 103 -37 103 -92c0 -56 -43 -87 -91 -87c-56 0 -97 50 -97 108c-38 -33 -57 -110 -57 -147v-147c0 -82 55 -62 55 -86v-6h-329v6c0 24 56 4 56 86zM235 642
l172 94l11 -12l-160 -196c-7 -8 -13 -13 -20 -13c-8 0 -15 5 -22 13l-172 194l11 13z" />
    <glyph glyph-name="Sacute" unicode="&#x15a;" horiz-adv-x="658" 
d="M299 -15c-199 0 -282 95 -282 167c0 59 40 93 87 93c67 0 98 -61 98 -122c0 -31 -8 -71 -24 -97c24 -9 56 -15 86 -15c64 0 126 24 126 97c0 139 -351 189 -351 366c0 157 142 217 293 217c196 0 262 -81 262 -147c0 -55 -39 -86 -85 -86c-43 0 -96 32 -96 104
c0 27 5 68 15 95c-19 6 -50 7 -66 7c-59 0 -94 -32 -94 -74c0 -124 369 -178 369 -378c0 -142 -125 -227 -338 -227zM207 728c-1 6 -3 10 -4 15c89 46 121 118 141 148c18 28 36 45 64 45c48 0 69 -37 69 -66c0 -28 -36 -129 -270 -142z" />
    <glyph glyph-name="sacute" unicode="&#x15b;" horiz-adv-x="528" 
d="M269 458c155 0 214 -56 214 -115c0 -45 -31 -69 -67 -69c-59 0 -89 43 -89 92c0 18 5 47 13 65c-4 0 -10 1 -15 1c-41 0 -80 -20 -80 -67c0 -85 260 -101 260 -239c0 -98 -113 -141 -255 -141c-174 0 -227 63 -227 115c0 48 34 69 68 69c58 0 86 -47 86 -96
c0 -20 -4 -44 -13 -61c16 -4 31 -6 44 -6c49 0 77 25 77 64c0 81 -243 100 -243 231c0 112 103 157 227 157zM159 503l-6 15c80 60 98 134 115 168c17 35 34 59 68 59c47 0 69 -35 69 -66c0 -38 -46 -130 -246 -176z" />
    <glyph glyph-name="Scircumflex" unicode="&#x15c;" horiz-adv-x="658" 
d="M299 -15c-199 0 -282 95 -282 167c0 59 40 93 87 93c67 0 98 -61 98 -122c0 -31 -8 -71 -24 -97c24 -9 56 -15 86 -15c64 0 126 24 126 97c0 139 -351 189 -351 366c0 157 142 217 293 217c196 0 262 -81 262 -147c0 -55 -39 -86 -85 -86c-43 0 -96 32 -96 104
c0 27 5 68 15 95c-19 6 -50 7 -66 7c-59 0 -94 -32 -94 -74c0 -124 369 -178 369 -378c0 -142 -125 -227 -338 -227zM492 732l-172 77l-180 -76l-11 15l172 176c8 8 15 13 22 13s14 -5 21 -13l159 -179z" />
    <glyph glyph-name="scircumflex" unicode="&#x15d;" horiz-adv-x="528" 
d="M269 458c155 0 214 -56 214 -115c0 -45 -31 -69 -67 -69c-59 0 -89 43 -89 92c0 18 5 47 13 65c-4 0 -10 1 -15 1c-41 0 -80 -20 -80 -67c0 -85 260 -101 260 -239c0 -98 -113 -141 -255 -141c-174 0 -227 63 -227 115c0 48 34 69 68 69c58 0 86 -47 86 -96
c0 -20 -4 -44 -13 -61c16 -4 31 -6 44 -6c49 0 77 25 77 64c0 81 -243 100 -243 231c0 112 103 157 227 157zM424 522l-173 88l-180 -88l-11 13l172 192c8 8 15 13 22 13s14 -5 21 -13l159 -192z" />
    <glyph glyph-name="Scedilla" unicode="&#x15e;" horiz-adv-x="658" 
d="M348 -186c0 30 -36 61 -116 62l53 109c-189 5 -268 96 -268 167c0 59 40 93 87 93c67 0 98 -61 98 -122c0 -31 -8 -71 -24 -97c24 -9 56 -15 86 -15c64 0 126 24 126 97c0 139 -351 189 -351 366c0 157 142 217 293 217c196 0 262 -81 262 -147c0 -55 -39 -86 -85 -86
c-43 0 -96 32 -96 104c0 27 5 68 15 95c-19 6 -50 7 -66 7c-59 0 -94 -32 -94 -74c0 -124 369 -178 369 -378c0 -141 -124 -226 -335 -227l-26 -54c147 -1 206 -51 206 -103c0 -57 -74 -111 -213 -111c-17 0 -34 0 -61 2v17c117 -2 140 44 140 78z" />
    <glyph glyph-name="scedilla" unicode="&#x15f;" horiz-adv-x="528" 
d="M269 458c155 0 214 -56 214 -115c0 -45 -31 -69 -67 -69c-59 0 -89 43 -89 92c0 18 5 47 13 65c-4 0 -10 1 -15 1c-41 0 -80 -20 -80 -67c0 -85 260 -101 260 -239c0 -98 -113 -141 -255 -141h-11l-28 -57c147 -1 206 -51 206 -103c0 -57 -74 -111 -213 -111
c-17 0 -34 0 -61 2v17c117 -2 140 44 140 78c0 30 -36 61 -116 62l54 113c-151 6 -198 65 -198 114c0 48 34 69 68 69c58 0 86 -47 86 -96c0 -20 -4 -44 -13 -61c16 -4 31 -6 44 -6c49 0 77 25 77 64c0 81 -243 100 -243 231c0 112 103 157 227 157z" />
    <glyph glyph-name="Tcommaaccent" unicode="&#x162;" horiz-adv-x="704" 
d="M476 653v-564c0 -82 74 -58 74 -81v-8h-186l-28 -58c147 -1 206 -51 206 -103c0 -57 -74 -111 -213 -111c-17 0 -34 0 -61 2v17c117 -2 140 44 140 78c0 30 -36 61 -116 62l54 113h-193v8c0 23 74 -1 74 81v564h-6c-66 0 -135 -53 -187 -206c-6 -18 -11 -29 -23 -27l-5 1
c9 92 18 187 26 279l3 3c68 -20 151 -29 324 -29c162 0 245 7 311 29l4 -3l25 -277l-6 -1c-8 -1 -14 5 -21 27c-49 154 -129 203 -190 204h-6z" />
    <glyph glyph-name="tcommaaccent" unicode="&#x163;" horiz-adv-x="393" 
d="M197 -15c-8 0 -16 1 -23 1l-21 -44c147 -1 206 -51 206 -103c0 -57 -74 -111 -213 -111c-17 0 -34 0 -61 2v17c117 -2 140 44 140 78c0 30 -36 61 -116 62l49 101c-73 12 -98 62 -98 129v299h-51v17l55 6c103 34 169 119 196 213h17v-216h95v-20h-95v-296
c0 -51 20 -71 51 -71c14 0 33 5 54 17l5 -16c-75 -58 -155 -65 -190 -65z" />
    <glyph glyph-name="Tcaron" unicode="&#x164;" horiz-adv-x="704" 
d="M476 653v-564c0 -82 74 -58 74 -81v-8h-397v8c0 23 74 -1 74 81v564h-6c-66 0 -135 -53 -187 -206c-6 -18 -11 -29 -23 -27l-5 1c9 92 18 187 26 279l3 3c68 -20 151 -29 324 -29c162 0 245 7 311 29l4 -3l25 -277l-6 -1c-8 -1 -14 5 -21 27c-49 154 -129 203 -190 204
h-6zM354 850l173 80l10 -12l-159 -179c-7 -8 -14 -13 -21 -13s-13 6 -22 13l-171 177l11 13z" />
    <glyph glyph-name="tcaron" unicode="&#x165;" horiz-adv-x="393" 
d="M197 -15c-103 0 -137 55 -137 132v299h-51v17l55 6c103 34 169 119 196 213h17v-216h95v-20h-95v-296c0 -51 20 -71 51 -71c14 0 33 5 54 17l5 -16c-75 -58 -155 -65 -190 -65zM399 777c54 0 78 -45 78 -86c0 -72 -45 -157 -110 -212c-4 5 -8 11 -13 15
c52 51 75 97 82 144c-14 -10 -31 -15 -42 -15c-46 0 -72 36 -72 76c0 39 31 78 77 78z" />
    <glyph glyph-name="Tbar" unicode="&#x166;" horiz-adv-x="704" 
d="M476 653v-279h112v-20h-112v-265c0 -82 74 -58 74 -81v-8h-397v8c0 23 74 -1 74 81v265h-115v20h115v279h-6c-66 0 -135 -53 -187 -206c-6 -18 -11 -29 -23 -27l-5 1c9 92 18 187 26 279l3 3c68 -20 151 -29 324 -29c162 0 245 7 311 29l4 -3l25 -277l-6 -1
c-8 -1 -14 5 -21 27c-49 154 -129 203 -190 204h-6z" />
    <glyph glyph-name="tbar" unicode="&#x167;" horiz-adv-x="393" 
d="M197 -15c-109 0 -137 61 -137 148v135h-48v20h48v128h-51v17l55 6c103 34 168 113 196 213h17v-216h99v-20h-99v-128h105v-20h-105v-148c0 -50 19 -71 49 -71c14 0 34 6 56 17l5 -16c-75 -58 -155 -65 -190 -65z" />
    <glyph glyph-name="Utilde" unicode="&#x168;" horiz-adv-x="806" 
d="M671 283v244c0 146 -119 111 -119 138v9h256v-9c0 -26 -118 10 -118 -141v-226c0 -173 -49 -313 -288 -313c-237 0 -319 116 -319 300l-1 299c0 83 -67 58 -67 82v8h387v-8c0 -24 -71 1 -71 -82v-349c0 -130 41 -211 162 -211c111 0 178 98 178 259zM625 904l13 -4
c-13 -78 -52 -146 -122 -146c-49 0 -127 30 -180 30c-32 0 -63 -6 -83 -44l-13 4c8 47 34 147 118 147c42 0 144 -31 194 -31c37 0 57 6 73 44z" />
    <glyph glyph-name="utilde" unicode="&#x169;" horiz-adv-x="668" 
d="M596 452v-348c0 -75 59 -52 59 -74v-8c-87 -13 -176 -18 -264 -32l-6 7l5 82h-3c-50 -78 -120 -94 -175 -94c-71 0 -143 34 -143 138v211c0 76 -57 53 -57 74v8c89 13 179 26 269 38l6 -6v-350c0 -28 9 -49 32 -49c20 0 43 20 60 48v241c0 76 -57 53 -57 74v8l268 39z
M523 688l13 -4c-13 -78 -52 -146 -122 -146c-49 0 -127 30 -180 30c-32 0 -63 -6 -83 -44l-13 4c8 47 34 147 118 147c42 0 144 -31 194 -31c37 0 57 6 73 44z" />
    <glyph glyph-name="Umacron" unicode="&#x16a;" horiz-adv-x="806" 
d="M671 283v244c0 146 -119 111 -119 138v9h256v-9c0 -26 -118 10 -118 -141v-226c0 -173 -49 -313 -288 -313c-237 0 -319 116 -319 300l-1 299c0 83 -67 58 -67 82v8h387v-8c0 -24 -71 1 -71 -82v-349c0 -130 41 -211 162 -211c111 0 178 98 178 259zM585 863l-2 -109
c-94 8 -225 7 -341 0v89c103 16 238 18 343 20z" />
    <glyph glyph-name="umacron" unicode="&#x16b;" horiz-adv-x="668" 
d="M596 452v-348c0 -75 59 -52 59 -74v-8c-87 -13 -176 -18 -264 -32l-6 7l5 82h-3c-50 -78 -120 -94 -175 -94c-71 0 -143 34 -143 138v211c0 76 -57 53 -57 74v8c89 13 179 26 269 38l6 -6v-350c0 -28 9 -49 32 -49c20 0 43 20 60 48v241c0 76 -57 53 -57 74v8l268 39z
M502 653l-2 -109c-94 8 -225 7 -341 0v89c103 16 238 18 343 20z" />
    <glyph glyph-name="Ubreve" unicode="&#x16c;" horiz-adv-x="806" 
d="M671 283v244c0 146 -119 111 -119 138v9h256v-9c0 -26 -118 10 -118 -141v-226c0 -173 -49 -313 -288 -313c-237 0 -319 116 -319 300l-1 299c0 83 -67 58 -67 82v8h387v-8c0 -24 -71 1 -71 -82v-349c0 -130 41 -211 162 -211c111 0 178 98 178 259zM445 723
c-102 0 -160 86 -173 201l15 4c44 -77 100 -103 157 -103c54 0 117 26 161 105l14 -4c-20 -129 -89 -203 -174 -203z" />
    <glyph glyph-name="ubreve" unicode="&#x16d;" horiz-adv-x="668" 
d="M596 452v-348c0 -75 59 -52 59 -74v-8c-87 -13 -176 -18 -264 -32l-6 7l5 82h-3c-50 -78 -120 -94 -175 -94c-71 0 -143 34 -143 138v211c0 76 -57 53 -57 74v8c89 13 179 26 269 38l6 -6v-350c0 -28 9 -49 32 -49c20 0 43 20 60 48v241c0 76 -57 53 -57 74v8l268 39z
M334 516c-102 0 -160 86 -173 201l15 4c44 -77 100 -103 157 -103c54 0 117 26 161 105l14 -4c-20 -129 -89 -203 -174 -203z" />
    <glyph glyph-name="Uring" unicode="&#x16e;" horiz-adv-x="806" 
d="M671 283v244c0 146 -119 111 -119 138v9h256v-9c0 -26 -118 10 -118 -141v-226c0 -173 -49 -313 -288 -313c-237 0 -319 116 -319 300l-1 299c0 83 -67 58 -67 82v8h387v-8c0 -24 -71 1 -71 -82v-349c0 -130 41 -211 162 -211c111 0 178 98 178 259zM451 721
c-65 0 -114 47 -114 111c0 63 49 112 114 112c62 0 111 -47 111 -112c0 -64 -49 -111 -111 -111zM451 907c-44 0 -75 -33 -75 -75c0 -43 31 -76 75 -76c41 0 72 33 72 76c0 42 -31 75 -72 75z" />
    <glyph glyph-name="uring" unicode="&#x16f;" horiz-adv-x="668" 
d="M596 452v-348c0 -75 59 -52 59 -74v-8c-87 -13 -176 -18 -264 -32l-6 7l5 82h-3c-50 -78 -120 -94 -175 -94c-71 0 -143 34 -143 138v211c0 76 -57 53 -57 74v8c89 13 179 26 269 38l6 -6v-350c0 -28 9 -49 32 -49c20 0 43 20 60 48v241c0 76 -57 53 -57 74v8l268 39z
M341 523c-65 0 -114 47 -114 111c0 63 49 112 114 112c62 0 111 -47 111 -112c0 -64 -49 -111 -111 -111zM341 709c-44 0 -75 -33 -75 -75c0 -43 31 -76 75 -76c41 0 72 33 72 76c0 42 -31 75 -72 75z" />
    <glyph glyph-name="Uhungarumlaut" unicode="&#x170;" horiz-adv-x="806" 
d="M671 283v244c0 146 -119 111 -119 138v9h256v-9c0 -26 -118 10 -118 -141v-226c0 -173 -49 -313 -288 -313c-237 0 -319 116 -319 300l-1 299c0 83 -67 58 -67 82v8h387v-8c0 -24 -71 1 -71 -82v-349c0 -130 41 -211 162 -211c111 0 178 98 178 259zM242 724
c-1 6 -2 10 -4 15c88 46 119 120 139 151c17 28 34 45 64 45c48 0 70 -33 70 -65c0 -28 -35 -130 -269 -146zM448 728c-2 5 -3 9 -4 15c86 46 118 120 138 150c18 28 35 46 63 46c49 0 71 -36 71 -65c0 -28 -34 -130 -268 -146z" />
    <glyph glyph-name="uhungarumlaut" unicode="&#x171;" horiz-adv-x="668" 
d="M596 452v-348c0 -75 59 -52 59 -74v-8c-87 -13 -176 -18 -264 -32l-6 7l5 82h-3c-50 -78 -120 -94 -175 -94c-71 0 -143 34 -143 138v211c0 76 -57 53 -57 74v8c89 13 179 26 269 38l6 -6v-350c0 -28 9 -49 32 -49c20 0 43 20 60 48v241c0 76 -57 53 -57 74v8l268 39z
M122 524l-3 16c85 47 117 116 137 148c17 27 34 45 63 45c49 0 67 -34 67 -63c0 -30 -40 -127 -264 -146zM325 522l-4 16c86 47 118 117 138 148c17 27 35 45 64 45c48 0 67 -34 67 -63s-41 -127 -265 -146z" />
    <glyph glyph-name="Uogonek" unicode="&#x172;" horiz-adv-x="806" 
d="M671 283v244c0 146 -119 111 -119 138v9h256v-9c0 -26 -118 10 -118 -141v-226c0 -158 -41 -289 -231 -310c-73 -51 -96 -109 -96 -155c0 -68 50 -93 106 -93c20 0 42 4 63 12l5 -12c-29 -25 -104 -51 -169 -51c-64 0 -120 24 -120 94c0 43 31 127 177 203
c-7 -1 -15 -1 -23 -1c-237 0 -319 116 -319 300l-1 299c0 83 -67 58 -67 82v8h387v-8c0 -24 -71 1 -71 -82v-349c0 -130 41 -211 162 -211c111 0 178 98 178 259z" />
    <glyph glyph-name="uogonek" unicode="&#x173;" horiz-adv-x="668" 
d="M596 452v-348c0 -75 59 -52 59 -74v-8c-80 -12 -161 -17 -242 -28c-66 -49 -87 -105 -87 -149c0 -68 50 -93 106 -93c20 0 42 4 63 12l5 -12c-29 -25 -104 -51 -169 -51c-64 0 -120 24 -120 94c0 42 30 125 174 201v1l5 82h-3c-50 -78 -120 -94 -175 -94
c-71 0 -143 34 -143 138v211c0 76 -57 53 -57 74v8c89 13 179 26 269 38l6 -6v-350c0 -28 9 -49 32 -49c20 0 43 20 60 48v241c0 76 -57 53 -57 74v8l268 39z" />
    <glyph glyph-name="Wcircumflex" unicode="&#x174;" horiz-adv-x="1112" 
d="M443 297l81 254c39 123 -70 79 -70 115v8h352v-7c0 -26 -55 -11 -55 -61c0 -7 3 -19 8 -34l97 -272h4l70 218c7 20 14 54 14 65c0 84 -93 52 -93 82v9h257v-8c0 -28 -97 6 -154 -157l-183 -520l-56 -6l-182 501h-4l-172 -495l-56 -6l-222 600c-30 80 -76 59 -76 82v9h394
v-8c0 -23 -61 -9 -61 -62c0 -9 2 -19 7 -32l96 -275h4zM763 726l-172 77l-180 -76l-11 15l172 176c8 8 15 13 22 13s14 -5 21 -13l159 -179z" />
    <glyph glyph-name="wcircumflex" unicode="&#x175;" horiz-adv-x="837" 
d="M357 236l42 104c9 21 12 37 12 47c0 36 -47 20 -47 43v6h254v-8c0 -18 -35 -9 -35 -41c0 -10 4 -24 13 -45l48 -107h4l35 83c10 24 15 45 15 58c0 44 -57 30 -57 50v10h190v-8c-1 -24 -77 0 -131 -123l-143 -322l-20 -2c-47 99 -96 205 -136 302h-2l-134 -300l-21 -2
l-176 382c-29 62 -62 44 -62 66v7h333v-8c0 -17 -44 -8 -44 -45c0 -9 2 -26 11 -45l47 -102h4zM603 522l-173 88l-180 -88l-11 13l172 192c8 8 15 13 22 13s14 -5 21 -13l159 -192z" />
    <glyph glyph-name="Ycircumflex" unicode="&#x176;" horiz-adv-x="734" 
d="M162 8c0 23 74 -1 74 81v166l-155 328c-36 76 -83 59 -82 82v9h408v-8c0 -22 -70 -13 -70 -57c0 -10 4 -22 12 -37l122 -240h2l86 192c11 26 17 45 17 61c0 78 -102 53 -102 80v9h259v-9c0 -25 -65 1 -124 -95c-11 -17 -22 -37 -32 -60l-92 -201v-220
c0 -82 74 -58 74 -81v-8h-397v8zM571 732l-172 77l-180 -76l-11 15l172 176c8 8 15 13 22 13s14 -5 21 -13l159 -179z" />
    <glyph glyph-name="ycircumflex" unicode="&#x177;" horiz-adv-x="587" 
d="M378 210h3l49 100c13 27 18 46 18 60c0 55 -61 34 -61 56v9h198v-8c0 -23 -73 3 -134 -123l-173 -357c-45 -92 -96 -178 -186 -178c-67 0 -106 42 -106 97c0 47 37 87 90 87c71 0 107 -57 113 -107c19 18 47 63 75 120l19 41h-28l-182 335c-43 80 -73 64 -73 85v8h353v-9
c0 -20 -57 -8 -57 -49c0 -10 5 -23 14 -40zM481 522l-173 88l-180 -88l-11 13l172 192c8 8 15 13 22 13s14 -5 21 -13l159 -192z" />
    <glyph glyph-name="Zacute" unicode="&#x179;" horiz-adv-x="708" 
d="M660 674v-19l-349 -634h116c91 0 152 66 229 244c10 23 12 30 20 29c3 0 6 -1 9 -1c-17 -105 -37 -213 -54 -317l-4 -2c-53 21 -121 26 -191 26h-420v19c118 212 237 422 355 634h-43c-127 0 -172 -41 -238 -200c-9 -22 -13 -28 -20 -28c-2 0 -4 0 -7 2l31 275l4 2
c69 -28 143 -30 214 -30h348zM291 740c-1 6 -3 10 -4 15c89 46 121 118 141 148c18 28 36 45 64 45c48 0 69 -37 69 -66c0 -28 -36 -129 -270 -142z" />
    <glyph glyph-name="zacute" unicode="&#x17a;" horiz-adv-x="566" 
d="M520 435v-15c-80 -134 -160 -268 -241 -402h39c83 0 133 40 197 174c9 22 13 26 19 26c3 0 5 -1 8 -1l-39 -234l-6 -4c-54 18 -109 21 -183 21h-297v14l241 404h-23c-62 0 -115 -29 -161 -145c-6 -15 -10 -30 -21 -28l-5 1c11 69 21 142 31 211l7 4
c76 -26 150 -26 234 -26h200zM218 503l-6 15c80 60 98 134 115 168c17 35 34 59 68 59c47 0 69 -35 69 -66c0 -38 -46 -130 -246 -176z" />
    <glyph glyph-name="Zdotaccent" unicode="&#x17b;" horiz-adv-x="708" 
d="M660 674v-19l-349 -634h116c91 0 152 66 229 244c10 23 12 30 20 29c3 0 6 -1 9 -1c-17 -105 -37 -213 -54 -317l-4 -2c-53 21 -121 26 -191 26h-420v19c118 212 237 422 355 634h-43c-127 0 -172 -41 -238 -200c-9 -22 -13 -28 -20 -28c-2 0 -4 0 -7 2l31 275l4 2
c69 -28 143 -30 214 -30h348zM299 839c0 53 43 96 95 96c55 0 98 -43 98 -96s-43 -97 -98 -97c-52 0 -95 44 -95 97z" />
    <glyph glyph-name="zdotaccent" unicode="&#x17c;" horiz-adv-x="566" 
d="M520 435v-15c-80 -134 -160 -268 -241 -402h39c83 0 133 40 197 174c9 22 13 26 19 26c3 0 5 -1 8 -1l-39 -234l-6 -4c-54 18 -109 21 -183 21h-297v14l241 404h-23c-62 0 -115 -29 -161 -145c-6 -15 -10 -30 -21 -28l-5 1c11 69 21 142 31 211l7 4
c76 -26 150 -26 234 -26h200zM224 633c0 53 43 96 95 96c55 0 98 -43 98 -96s-43 -97 -98 -97c-52 0 -95 44 -95 97z" />
    <glyph glyph-name="AEacute" unicode="&#x1fc;" horiz-adv-x="1079" 
d="M414 665v9h339c103 0 177 13 242 36l6 -2l27 -276c-1 0 -2 0 -4 -1c-11 0 -14 2 -23 27c-58 149 -112 195 -234 195h-36v-290h23c121 0 92 134 123 134h6v-298h-7c-35 0 -1 144 -119 144h-26v-254c0 -38 5 -68 68 -68h17c91 0 152 64 228 242c10 20 11 29 21 29
c5 0 5 -1 8 -2c-17 -104 -34 -210 -52 -314l-5 -2c-46 19 -106 26 -187 26h-415v8c0 23 68 -1 68 81v145h-236l-69 -103c-20 -30 -28 -52 -28 -67c0 -53 90 -35 90 -56v-8h-245v7c0 25 72 -4 155 118l329 484c-10 50 -64 34 -64 56zM480 579c-74 -108 -147 -217 -221 -326
h223v326h-2zM582 728c-1 6 -3 10 -4 15c89 46 121 118 141 148c18 28 36 45 64 45c48 0 69 -37 69 -66c0 -28 -36 -129 -270 -142z" />
    <glyph glyph-name="aeacute" unicode="&#x1fd;" horiz-adv-x="853" 
d="M824 236l-284 -4c0 -152 29 -199 107 -199c63 0 131 29 172 69l10 -12c-44 -53 -116 -104 -241 -104c-103 0 -174 31 -218 82c-62 -64 -136 -88 -213 -88c-76 0 -133 38 -133 113c0 118 136 157 250 157c12 0 29 0 41 -1c1 9 2 39 2 66c0 73 -25 116 -83 116
c-11 0 -21 -1 -35 -4c22 -20 34 -50 34 -78c0 -45 -28 -93 -89 -93c-45 0 -68 35 -68 69c0 54 39 133 211 133c56 0 119 -17 158 -55c40 40 104 54 152 54c140 0 227 -76 232 -212zM539 252l101 5c-1 79 -4 181 -50 181s-51 -98 -51 -186zM359 81c-31 38 -43 85 -44 148
c-65 -1 -71 -49 -71 -89c0 -66 18 -95 48 -95c23 0 46 16 67 36zM380 503l-6 15c80 60 98 134 115 168c17 35 34 59 68 59c47 0 69 -35 69 -66c0 -38 -46 -130 -246 -176z" />
    <glyph glyph-name="Oslashacute" unicode="&#x1fe;" horiz-adv-x="821" 
d="M306 728c-1 6 -3 10 -4 15c89 46 121 118 141 148c18 28 36 45 64 45c48 0 69 -37 69 -66c0 -28 -36 -129 -270 -142zM38 341c0 191 126 350 371 350c79 0 144 -16 196 -41l35 53l16 -11l-34 -51c116 -65 161 -185 161 -300c0 -173 -112 -356 -375 -356
c-79 0 -144 16 -196 42l-37 -57l-16 11l37 56c-110 64 -158 181 -158 304zM502 336c0 45 -1 85 -3 121l-175 -262c9 -129 35 -192 88 -192c73 0 90 117 90 333zM320 336c0 -40 0 -77 2 -110l176 262c-9 125 -33 184 -88 184c-73 0 -90 -149 -90 -336z" />
    <glyph glyph-name="oslashacute" unicode="&#x1ff;" horiz-adv-x="646" 
d="M233 503l-6 15c80 60 98 134 115 168c17 35 34 59 68 59c47 0 69 -35 69 -66c0 -38 -46 -130 -246 -176zM28 223c0 128 101 234 294 234c56 0 102 -8 140 -22l27 38l16 -11l-24 -34c98 -42 137 -125 137 -205c0 -116 -90 -238 -297 -238c-54 0 -98 8 -136 22l-33 -47
l-16 11l30 42c-96 42 -138 124 -138 210zM265 220c0 -17 0 -51 1 -64l113 160c-5 87 -19 122 -56 122c-49 0 -58 -92 -58 -218zM382 220c0 24 -1 46 -1 65l-113 -160c5 -82 19 -123 56 -123c49 0 58 74 58 218z" />
    <glyph glyph-name="Scommaaccent" unicode="&#x218;" horiz-adv-x="658" 
d="M299 -15c-199 0 -282 95 -282 167c0 59 40 93 87 93c67 0 98 -61 98 -122c0 -31 -8 -71 -24 -97c24 -9 56 -15 86 -15c64 0 126 24 126 97c0 139 -351 189 -351 366c0 157 142 217 293 217c196 0 262 -81 262 -147c0 -55 -39 -86 -85 -86c-43 0 -96 32 -96 104
c0 27 5 68 15 95c-19 6 -50 7 -66 7c-59 0 -94 -32 -94 -74c0 -124 369 -178 369 -378c0 -142 -125 -227 -338 -227zM319 -57c54 0 78 -45 78 -86c0 -72 -45 -157 -110 -212c-4 5 -8 11 -13 15c52 51 75 97 82 144c-14 -10 -31 -15 -42 -15c-46 0 -72 36 -72 76
c0 39 31 78 77 78z" />
    <glyph glyph-name="scommaaccent" unicode="&#x219;" horiz-adv-x="528" 
d="M269 458c155 0 214 -56 214 -115c0 -45 -31 -69 -67 -69c-59 0 -89 43 -89 92c0 18 5 47 13 65c-4 0 -10 1 -15 1c-41 0 -80 -20 -80 -67c0 -85 260 -101 260 -239c0 -98 -113 -141 -255 -141c-174 0 -227 63 -227 115c0 48 34 69 68 69c58 0 86 -47 86 -96
c0 -20 -4 -44 -13 -61c16 -4 31 -6 44 -6c49 0 77 25 77 64c0 81 -243 100 -243 231c0 112 103 157 227 157zM247 -59c54 0 78 -45 78 -86c0 -72 -45 -157 -110 -212c-4 5 -8 11 -13 15c52 51 75 97 82 144c-14 -10 -31 -15 -42 -15c-46 0 -72 36 -72 76c0 39 31 78 77 78z
" />
    <glyph glyph-name="uni021A" unicode="&#x21a;" horiz-adv-x="704" 
d="M476 653v-564c0 -82 74 -58 74 -81v-8h-397v8c0 23 74 -1 74 81v564h-6c-66 0 -135 -53 -187 -206c-6 -18 -11 -29 -23 -27l-5 1c9 92 18 187 26 279l3 3c68 -20 151 -29 324 -29c162 0 245 7 311 29l4 -3l25 -277l-6 -1c-8 -1 -14 5 -21 27c-49 154 -129 203 -190 204
h-6zM356 -48c54 0 78 -45 78 -86c0 -72 -45 -157 -110 -212c-4 5 -8 11 -13 15c52 51 75 97 82 144c-14 -10 -31 -15 -42 -15c-46 0 -72 36 -72 76c0 39 31 78 77 78z" />
    <glyph glyph-name="uni021B" unicode="&#x21b;" horiz-adv-x="393" 
d="M197 -15c-103 0 -137 55 -137 132v299h-51v17l55 6c103 34 169 119 196 213h17v-216h95v-20h-95v-296c0 -51 20 -71 51 -71c14 0 33 5 54 17l5 -16c-75 -58 -155 -65 -190 -65zM183 -48c54 0 78 -45 78 -86c0 -72 -45 -157 -110 -212c-4 5 -8 11 -13 15
c52 51 75 97 82 144c-14 -10 -31 -15 -42 -15c-46 0 -72 36 -72 76c0 39 31 78 77 78z" />
    <glyph glyph-name="schwa" unicode="&#x259;" horiz-adv-x="568" 
d="M318 183l-100 -4c1 -96 7 -174 50 -174c41 0 50 70 50 178zM266 -14c-132 0 -232 70 -236 202l4 9l284 6c0 133 -48 198 -134 198c-47 0 -101 -23 -142 -60l-9 12c43 53 117 104 242 104c196 0 269 -104 269 -232c0 -129 -98 -239 -278 -239z" />
    <glyph glyph-name="schwacyrillic" unicode="&#x4d9;" horiz-adv-x="571" 
d="M318 183l-100 -4c1 -96 7 -174 50 -174c41 0 50 70 50 178zM266 -14c-132 0 -232 70 -236 202l4 9l284 6c0 133 -48 198 -134 198c-47 0 -101 -23 -142 -60l-9 12c43 53 117 104 242 104c196 0 269 -104 269 -232c0 -129 -98 -239 -278 -239z" />
    <glyph glyph-name="igrave" unicode="&#xec;" horiz-adv-x="368" 
d="M290 517l-6 -13c-200 46 -246 137 -246 175c0 31 21 66 68 66c34 0 52 -24 69 -59c16 -34 35 -109 115 -169zM291 458c1 -3 3 -5 5 -7v-359c0 -82 55 -62 55 -86v-6h-329v6c0 24 56 4 56 86v243c0 75 -57 52 -57 74v8c89 13 180 27 270 41z" />
    <glyph glyph-name="iacute" unicode="&#xed;" horiz-adv-x="368" 
d="M75 503l-6 15c80 60 98 134 115 168c17 35 34 59 68 59c47 0 69 -35 69 -66c0 -38 -46 -130 -246 -176zM291 458c1 -3 3 -5 5 -7v-359c0 -82 55 -62 55 -86v-6h-329v6c0 24 56 4 56 86v243c0 75 -57 52 -57 74v8c89 13 180 27 270 41z" />
    <glyph glyph-name="icircumflex" unicode="&#xee;" horiz-adv-x="368" 
d="M291 458c1 -3 3 -5 5 -7v-359c0 -82 55 -62 55 -86v-6h-329v6c0 24 56 4 56 86v243c0 75 -57 52 -57 74v8c89 13 180 27 270 41zM363 522l-173 88l-180 -88l-11 13l172 192c8 8 15 13 22 13s14 -5 21 -13l159 -192z" />
    <glyph glyph-name="idieresis" unicode="&#xef;" horiz-adv-x="368" 
d="M-16 623c0 49 40 90 90 90s90 -41 90 -90c0 -51 -40 -91 -90 -91s-90 40 -90 91zM197 623c0 49 40 90 90 90s90 -41 90 -90c0 -51 -40 -91 -90 -91s-90 40 -90 91zM291 458c1 -3 3 -5 5 -7v-359c0 -82 55 -62 55 -86v-6h-329v6c0 24 56 4 56 86v243c0 75 -57 52 -57 74v8
c89 13 180 27 270 41z" />
    <glyph glyph-name="Alphatonos" unicode="&#x386;" horiz-adv-x="760" 
d="M430 102l-39 109h-202l-17 -49c-11 -31 -22 -62 -22 -81c0 -75 91 -49 91 -73v-8h-235v7c0 27 86 -6 129 112l153 424c8 23 12 41 12 55c0 64 -76 42 -76 67v9h257l204 -582c31 -89 68 -57 68 -84v-8h-367v7c0 22 52 9 52 59c0 9 -2 20 -8 36zM289 491l-93 -261h189
l-92 261h-4zM-62 461l-6 15c80 60 98 134 115 168c17 35 34 59 68 59c47 0 69 -35 69 -66c0 -38 -46 -130 -246 -176z" />
    <glyph glyph-name="Epsilontonos" unicode="&#x388;" horiz-adv-x="700" 
d="M369 674c103 0 177 13 242 36l6 -2l27 -276c-1 0 -2 0 -4 -1c-11 0 -14 2 -23 27c-58 149 -112 195 -234 195h-36v-290h23c121 0 92 134 123 134h6v-298h-7c-35 0 -1 144 -119 144h-26v-254c0 -38 5 -68 68 -68h17c91 0 152 64 228 242c10 20 11 29 21 29c5 0 5 -1 8 -2
c-17 -104 -34 -210 -52 -314l-5 -2c-46 19 -106 26 -187 26h-424v8c0 24 77 -3 77 82v493c0 82 -74 58 -74 82v9h345zM-238 461l-6 15c80 60 98 134 115 168c17 35 34 59 68 59c47 0 69 -35 69 -66c0 -38 -46 -130 -246 -176z" />
    <glyph glyph-name="Etatonos" unicode="&#x389;" horiz-adv-x="857" 
d="M834 0h-384v8c0 23 61 -1 61 81v257h-166v-257c0 -82 60 -58 60 -81v-8h-383v8c0 23 74 -1 74 82v494c0 81 -71 57 -71 81v9h380v-9c0 -24 -60 1 -60 -81v-218h166v218c0 82 -61 57 -61 81v9h381v-9c0 -24 -72 0 -72 -81v-494c0 -83 75 -59 75 -82v-8zM-242 461l-6 15
c80 60 98 134 115 168c17 35 34 59 68 59c47 0 69 -35 69 -66c0 -38 -46 -130 -246 -176z" />
    <glyph glyph-name="Iotatonos" unicode="&#x38a;" horiz-adv-x="457" 
d="M427 0h-398v8c0 23 75 -1 75 81v495c0 82 -75 57 -75 81v9h398v-9c0 -24 -75 1 -75 -81v-495c0 -82 75 -58 75 -81v-8zM-233 461l-6 15c80 60 98 134 115 168c17 35 34 59 68 59c47 0 69 -35 69 -66c0 -38 -46 -130 -246 -176z" />
    <glyph glyph-name="Omicrontonos" unicode="&#x38c;" horiz-adv-x="821" 
d="M38 341c0 191 126 350 371 350c277 0 374 -180 374 -350c0 -173 -112 -356 -375 -356c-261 0 -370 172 -370 356zM320 336c0 -220 21 -333 92 -333c73 0 90 117 90 333c0 228 -17 336 -92 336c-73 0 -90 -149 -90 -336zM-177 461l-6 15c80 60 98 134 115 168
c17 35 34 59 68 59c47 0 69 -35 69 -66c0 -38 -46 -130 -246 -176z" />
    <glyph glyph-name="Upsilontonos" unicode="&#x38e;" horiz-adv-x="734" 
d="M162 8c0 23 74 -1 74 81v166l-155 328c-36 76 -83 59 -82 82v9h408v-8c0 -22 -70 -13 -70 -57c0 -10 4 -22 12 -37l122 -240h2l86 192c11 26 17 45 17 61c0 78 -102 53 -102 80v9h259v-9c0 -25 -65 1 -124 -95c-11 -17 -22 -37 -32 -60l-92 -201v-220
c0 -82 74 -58 74 -81v-8h-397v8zM-267 461l-6 15c80 60 98 134 115 168c17 35 34 59 68 59c47 0 69 -35 69 -66c0 -38 -46 -130 -246 -176z" />
    <glyph glyph-name="Omegatonos" unicode="&#x38f;" horiz-adv-x="859" 
d="M69 -19l-4 2l-54 277l7 2c13 0 17 -9 28 -33c63 -135 112 -208 245 -208h84c-31 105 -316 65 -316 366c0 125 102 306 380 306s377 -166 377 -306c0 -291 -285 -273 -315 -366h47c159 0 212 73 276 208c13 27 19 32 28 33l6 -2l-54 -277l-3 -2c-54 8 -141 19 -253 19h-74
c7 83 75 46 75 363c0 215 -39 310 -110 310c-63 0 -112 -75 -112 -311c0 -296 69 -283 75 -362h-65c-98 0 -200 -7 -268 -19zM-183 457l-6 15c80 60 98 134 115 168c17 35 34 59 68 59c47 0 69 -35 69 -66c0 -38 -46 -130 -246 -176z" />
    <glyph glyph-name="iotadieresistonos" unicode="&#x390;" horiz-adv-x="371" 
d="M211 -14c-49 0 -131 16 -131 108l-1 241c0 75 -57 52 -57 74v8c90 13 180 27 270 41l5 -7l1 -352c0 -46 18 -56 49 -58l2 -18c-32 -24 -103 -37 -138 -37zM105 487l-12 12c50 93 39 151 45 199c6 44 23 86 80 86c35 0 58 -26 58 -62c0 -47 -30 -136 -171 -235zM-62 619
c0 48 39 88 87 88c50 0 88 -40 88 -88c0 -49 -38 -89 -88 -89c-48 0 -87 40 -87 89zM268 619c0 48 38 88 87 88s88 -40 88 -88c0 -49 -39 -89 -88 -89s-87 40 -87 89z" />
    <glyph glyph-name="Alpha" unicode="&#x391;" horiz-adv-x="760" 
d="M430 102l-39 109h-202l-17 -49c-11 -31 -22 -62 -22 -81c0 -75 91 -49 91 -73v-8h-235v7c0 27 86 -6 129 112l153 424c8 23 12 41 12 55c0 64 -76 42 -76 67v9h257l204 -582c31 -89 68 -57 68 -84v-8h-367v7c0 22 52 9 52 59c0 9 -2 20 -8 36zM289 491l-93 -261h189
l-92 261h-4z" />
    <glyph glyph-name="Beta" unicode="&#x392;" horiz-adv-x="775" 
d="M467 0h-444v8c0 23 75 -2 75 82v494c0 82 -72 58 -72 82v8h427c191 0 250 -81 250 -156c0 -58 -47 -140 -195 -147v-4c192 -9 236 -107 236 -179c0 -83 -68 -188 -277 -188zM345 355v-269c0 -38 10 -66 56 -66c55 0 86 60 86 158c0 113 -45 177 -127 177h-15zM345 653
v-279h9c62 0 101 54 101 137s-27 142 -102 142h-8z" />
    <glyph glyph-name="Gamma" unicode="&#x393;" horiz-adv-x="646" 
d="M347 653v-563c0 -84 78 -60 78 -82v-8h-402v8c0 23 76 -2 76 82v494c0 82 -73 58 -73 82v8h343c85 0 173 3 241 32l7 -4l27 -269l-5 -1c-9 -2 -14 7 -22 26c-60 146 -109 195 -234 195h-36z" />
    <glyph glyph-name="Delta" unicode="&#x394;" horiz-adv-x="724" 
d="M705 18v-18h-686v20l278 654l149 14zM252 507l-143 -336h278l-131 336h-4z" />
    <glyph glyph-name="Epsilon" unicode="&#x395;" horiz-adv-x="700" 
d="M369 674c103 0 177 13 242 36l6 -2l27 -276c-1 0 -2 0 -4 -1c-11 0 -14 2 -23 27c-58 149 -112 195 -234 195h-36v-290h23c121 0 92 134 123 134h6v-298h-7c-35 0 -1 144 -119 144h-26v-254c0 -38 5 -68 68 -68h17c91 0 152 64 228 242c10 20 11 29 21 29c5 0 5 -1 8 -2
c-17 -104 -34 -210 -52 -314l-5 -2c-46 19 -106 26 -187 26h-424v8c0 24 77 -3 77 82v493c0 82 -74 58 -74 82v9h345z" />
    <glyph glyph-name="Zeta" unicode="&#x396;" horiz-adv-x="708" 
d="M660 674v-19l-349 -634h116c91 0 152 66 229 244c10 23 12 30 20 29c3 0 6 -1 9 -1c-17 -105 -37 -213 -54 -317l-4 -2c-53 21 -121 26 -191 26h-420v19c118 212 237 422 355 634h-43c-127 0 -172 -41 -238 -200c-9 -22 -13 -28 -20 -28c-2 0 -4 0 -7 2l31 275l4 2
c69 -28 143 -30 214 -30h348z" />
    <glyph glyph-name="Eta" unicode="&#x397;" horiz-adv-x="857" 
d="M834 0h-384v8c0 23 61 -1 61 81v257h-166v-257c0 -82 60 -58 60 -81v-8h-383v8c0 23 74 -1 74 82v494c0 81 -71 57 -71 81v9h380v-9c0 -24 -60 1 -60 -81v-218h166v218c0 82 -61 57 -61 81v9h381v-9c0 -24 -72 0 -72 -81v-494c0 -83 75 -59 75 -82v-8z" />
    <glyph glyph-name="Theta" unicode="&#x398;" horiz-adv-x="902" 
d="M38 341c0 191 157 350 411 350c286 0 415 -180 415 -350c0 -173 -143 -356 -416 -356c-269 0 -410 172 -410 356zM320 336c0 -238 49 -334 133 -334c83 0 131 103 131 334c0 236 -44 336 -134 336c-89 0 -130 -132 -130 -336zM555 411l15 -5c-10 -81 -43 -114 -84 -114
c-32 0 -65 21 -94 21c-17 0 -32 -7 -45 -27l-16 8c20 85 55 113 94 113c25 0 59 -24 88 -26c17 0 31 4 42 30z" />
    <glyph glyph-name="Iota" unicode="&#x399;" horiz-adv-x="457" 
d="M427 0h-398v8c0 23 75 -1 75 81v495c0 82 -75 57 -75 81v9h398v-9c0 -24 -75 1 -75 -81v-495c0 -82 75 -58 75 -81v-8z" />
    <glyph glyph-name="Kappa" unicode="&#x39a;" horiz-adv-x="812" 
d="M516 473l205 -383c43 -80 91 -59 91 -83v-7h-368v8c0 17 39 10 39 39c0 8 -3 20 -12 36l-123 230h-14v-224c0 -82 63 -58 63 -81v-8h-375v8c0 23 64 -1 64 81v495c0 82 -64 57 -64 81v9h375v-9c0 -24 -63 1 -63 -81v-250h24l194 205c32 33 42 57 43 73
c0 44 -93 30 -93 54v8h277v-7c0 -28 -71 8 -190 -117z" />
    <glyph glyph-name="Lambda" unicode="&#x39b;" horiz-adv-x="760" 
d="M289 491l-128 -361c-7 -20 -11 -38 -11 -51c0 -72 91 -47 91 -71v-8h-235v7c0 27 86 -6 129 112l201 555l141 13l208 -595c31 -88 68 -57 68 -84v-8h-367v7c0 22 51 9 51 59c0 9 -1 20 -7 36l-137 389h-4z" />
    <glyph glyph-name="Mu" unicode="&#x39c;" horiz-adv-x="1013" 
d="M675 579h-4l-141 -389l56 -141l-17 -9l-9 18c-45 89 -145 112 -247 102l-153 426h-4l-7 -417c0 -176 116 -129 116 -161v-8h-255v8c0 25 81 0 107 79c7 22 13 49 14 85c2 137 4 274 7 411c0 85 -86 58 -86 82v9h306l163 -458l166 458h312v-9c0 -24 -81 1 -81 -81
c4 -164 7 -329 10 -494c2 -85 75 -59 75 -82v-8h-386v8c0 23 66 0 66 80c0 40 -4 443 -8 491z" />
    <glyph glyph-name="Nu" unicode="&#x39d;" horiz-adv-x="814" 
d="M130 149v434c0 84 -84 58 -84 82v9h335l282 -378l3 2v229c0 146 -117 111 -117 138v9h255v-9c0 -32 -119 19 -119 -167v-508l-100 -9l-433 596c-1 0 -2 -1 -3 -1v-430c0 -146 116 -110 116 -138v-8h-254v8c0 26 119 -8 119 141z" />
    <glyph glyph-name="Xi" unicode="&#x39e;" horiz-adv-x="663" 
d="M623 -17l-5 -3c-77 14 -153 20 -278 20c-121 0 -228 -9 -293 -20l-6 2l-26 289l5 1c16 3 18 -2 28 -27c26 -63 38 -75 116 -75h336c76 0 92 15 118 78c8 21 12 30 26 27l5 -1zM51 692l4 2c69 -12 147 -19 283 -19c138 0 206 6 263 19l4 -2l15 -245l-5 -1
c-12 -2 -18 7 -28 27c-15 32 -35 38 -81 38h-365c-28 0 -57 -1 -73 -35c-12 -24 -15 -29 -27 -27l-6 1zM503 435l20 -1c-5 -119 -68 -168 -137 -168c-63 0 -107 33 -149 33c-24 0 -55 -4 -70 -49l-20 2c15 128 79 166 157 166c49 0 99 -29 147 -29c26 0 44 6 52 46z" />
    <glyph glyph-name="Omicron" unicode="&#x39f;" horiz-adv-x="821" 
d="M38 341c0 191 126 350 371 350c277 0 374 -180 374 -350c0 -173 -112 -356 -375 -356c-261 0 -370 172 -370 356zM320 336c0 -220 21 -333 92 -333c73 0 90 117 90 333c0 228 -17 336 -92 336c-73 0 -90 -149 -90 -336z" />
    <glyph glyph-name="Pi" unicode="&#x3a0;" horiz-adv-x="848" 
d="M504 651h-161v-562c0 -82 60 -58 60 -81v-8h-372v8c0 23 64 -1 64 81v495c0 81 -67 57 -67 81v9h791v-9c0 -23 -67 3 -67 -81v-495c0 -82 63 -58 63 -81v-8h-371v8c0 23 60 -1 60 81v562z" />
    <glyph glyph-name="Rho" unicode="&#x3a1;" horiz-adv-x="744" 
d="M346 259v-169c0 -82 75 -59 75 -82v-8h-398v8c0 23 74 0 74 82v493c0 83 -71 59 -71 83v8h434c130 0 274 -45 274 -203c0 -149 -144 -218 -301 -218c-29 0 -58 2 -87 6zM346 653v-374c85 0 126 94 126 191c0 101 -30 183 -111 183h-15z" />
    <glyph glyph-name="Sigma" unicode="&#x3a3;" horiz-adv-x="670" 
d="M12 0v20l241 243l-241 390c0 6 1 14 2 21h338c88 0 167 5 238 35l7 -4l27 -267c-1 0 -2 0 -4 -1c-14 0 -16 7 -24 29c-57 148 -110 187 -233 187h-77l143 -241l1 -4l-237 -235h267c94 0 139 17 175 111c9 23 11 33 22 33l6 -2l-36 -317c-78 1 -172 2 -255 2h-360z" />
    <glyph glyph-name="Tau" unicode="&#x3a4;" horiz-adv-x="704" 
d="M476 653v-564c0 -82 74 -58 74 -81v-8h-397v8c0 23 74 -1 74 81v564h-6c-66 0 -135 -53 -187 -206c-6 -18 -11 -29 -23 -27l-5 1c9 92 18 187 26 279l3 3c68 -20 151 -29 324 -29c162 0 245 7 311 29l4 -3l25 -277l-6 -1c-8 -1 -14 5 -21 27c-49 154 -129 203 -190 204
h-6z" />
    <glyph glyph-name="Upsilon" unicode="&#x3a5;" horiz-adv-x="734" 
d="M162 8c0 23 74 -1 74 81v166l-155 328c-36 76 -83 59 -82 82v9h408v-8c0 -22 -70 -13 -70 -57c0 -10 4 -22 12 -37l122 -240h2l86 192c11 26 17 45 17 61c0 78 -102 53 -102 80v9h259v-9c0 -25 -65 1 -124 -95c-11 -17 -22 -37 -32 -60l-92 -201v-220
c0 -82 74 -58 74 -81v-8h-397v8z" />
    <glyph glyph-name="Phi" unicode="&#x3a6;" horiz-adv-x="1025" 
d="M712 0h-398v8c0 23 75 -1 75 81v21c-250 20 -363 111 -363 239c0 126 135 214 363 227v8c0 82 -75 57 -75 81v9h398v-9c0 -24 -75 1 -75 -81v-7c226 -5 360 -104 360 -224c0 -122 -103 -222 -360 -243v-21c0 -82 75 -58 75 -81v-8zM286 347c0 -146 54 -213 103 -217v424
c-57 -15 -103 -83 -103 -207zM738 339c0 121 -40 202 -101 215v-423c60 12 101 96 101 208z" />
    <glyph glyph-name="Chi" unicode="&#x3a7;" horiz-adv-x="774" 
d="M373 109l-86 152l-51 -81c-33 -52 -49 -90 -49 -111c0 -56 82 -36 82 -61v-8h-264v8c0 23 59 4 132 80c30 31 61 70 96 124l43 66l-178 317c-39 69 -77 49 -77 71v8h417v-8c0 -24 -61 -7 -61 -53c0 -18 15 -50 36 -85l59 -98l40 62c36 56 48 93 48 114
c0 50 -74 34 -74 59v9h258v-9c0 -24 -63 -7 -135 -81c-28 -29 -56 -66 -88 -113l-39 -58l185 -321c47 -82 101 -62 101 -85v-7h-443v7c0 19 62 6 62 56c0 12 -3 26 -14 46z" />
    <glyph glyph-name="Psi" unicode="&#x3a8;" horiz-adv-x="1059" 
d="M651 210c52 11 95 57 95 158v32c0 89 1 177 1 266c1 3 3 5 5 8h297v-9c0 -24 -62 1 -62 -81v-74c0 -123 -70 -290 -336 -321v-100c0 -82 74 -58 74 -81v-8h-394v8c0 23 74 -1 74 81v100c-265 32 -335 179 -335 302v92c0 82 -62 56 -62 81v7l295 5c2 -3 3 -6 5 -8v-300
c0 -102 50 -152 97 -158v374c0 82 -63 57 -63 81v9h372v-9c0 -24 -63 1 -63 -81v-374z" />
    <glyph glyph-name="Omega" unicode="&#x3a9;" horiz-adv-x="874" 
d="M70 -19l-4 2l-54 277l7 2c13 0 17 -9 28 -33c63 -135 112 -208 245 -208h84c-31 105 -316 65 -316 366c0 125 102 306 380 306s377 -166 377 -306c0 -291 -285 -273 -315 -366h47c159 0 212 73 276 208c13 27 19 32 28 33l6 -2l-54 -277l-3 -2c-54 8 -141 19 -253 19h-74
c7 83 75 46 75 363c0 215 -39 310 -110 310c-63 0 -112 -75 -112 -311c0 -296 69 -283 75 -362h-65c-98 0 -200 -7 -268 -19z" />
    <glyph glyph-name="Iotadieresis" unicode="&#x3aa;" horiz-adv-x="457" 
d="M427 0h-398v8c0 23 75 -1 75 81v495c0 82 -75 57 -75 81v9h398v-9c0 -24 -75 1 -75 -81v-495c0 -82 75 -58 75 -81v-8zM33 817c0 49 40 90 90 90s90 -41 90 -90c0 -51 -40 -91 -90 -91s-90 40 -90 91zM246 817c0 49 40 90 90 90s90 -41 90 -90c0 -51 -40 -91 -90 -91
s-90 40 -90 91z" />
    <glyph glyph-name="Upsilondieresis" unicode="&#x3ab;" horiz-adv-x="734" 
d="M162 8c0 23 74 -1 74 81v166l-155 328c-36 76 -83 59 -82 82v9h408v-8c0 -22 -70 -13 -70 -57c0 -10 4 -22 12 -37l122 -240h2l86 192c11 26 17 45 17 61c0 78 -102 53 -102 80v9h259v-9c0 -25 -65 1 -124 -95c-11 -17 -22 -37 -32 -60l-92 -201v-220
c0 -82 74 -58 74 -81v-8h-397v8zM181 815c0 49 40 90 90 90s90 -41 90 -90c0 -51 -40 -91 -90 -91s-90 40 -90 91zM394 815c0 49 40 90 90 90s90 -41 90 -90c0 -51 -40 -91 -90 -91s-90 40 -90 91z" />
    <glyph glyph-name="alphatonos" unicode="&#x3ac;" horiz-adv-x="651" 
d="M590 283v-182c0 -46 13 -56 43 -58l2 -18c-32 -24 -98 -37 -133 -37c-65 0 -114 17 -126 71c-36 -54 -92 -78 -150 -78c-100 0 -198 69 -198 234c0 120 70 239 212 239c54 0 109 -13 142 -57c65 7 132 28 193 68h18c-2 -66 -3 -114 -3 -182zM319 43c18 0 39 16 52 42v293
c-10 15 -29 29 -50 29c-43 0 -60 -50 -60 -187c0 -123 13 -177 58 -177zM238 503l-6 15c80 60 98 134 115 168c17 35 34 59 68 59c47 0 69 -35 69 -66c0 -38 -46 -130 -246 -176z" />
    <glyph glyph-name="epsilontonos" unicode="&#x3ad;" horiz-adv-x="493" 
d="M159 503l-6 15c80 60 98 134 115 168c17 35 34 59 68 59c47 0 69 -35 69 -66c0 -38 -46 -130 -246 -176zM359 241v-19c-85 -10 -106 -58 -106 -101c0 -66 44 -92 99 -92c43 0 91 16 124 41l8 -13c-63 -51 -136 -73 -232 -73c-152 0 -228 54 -228 127c0 43 30 105 129 123
v5c-90 10 -113 59 -113 95c0 68 76 124 229 124c146 0 195 -55 195 -113c0 -34 -24 -70 -69 -70c-53 0 -81 36 -81 92c0 19 4 47 14 65c-57 0 -88 -38 -88 -94c0 -48 24 -96 119 -97z" />
    <glyph glyph-name="etatonos" unicode="&#x3ae;" horiz-adv-x="669" 
d="M607 316l-1 -217c0 -46 16 -56 47 -58l2 -18c-32 -24 -103 -37 -138 -37c-63 0 -128 26 -128 113v243c0 29 -11 52 -36 52c-19 0 -45 -19 -64 -49v-271c0 -64 39 -48 39 -66v-8h-310v6c0 24 56 4 56 86v243c0 75 -57 52 -57 74v8c87 13 174 27 262 41l6 -7l-11 -91h4
c50 77 129 97 180 97c76 0 149 -37 149 -141zM225 503l-6 15c80 60 98 134 115 168c17 35 34 59 68 59c47 0 69 -35 69 -66c0 -38 -46 -130 -246 -176z" />
    <glyph glyph-name="iotatonos" unicode="&#x3af;" horiz-adv-x="371" 
d="M211 -14c-49 0 -131 16 -131 108l-1 241c0 75 -57 52 -57 74v8c90 13 180 27 270 41l5 -7l1 -352c0 -46 18 -56 49 -58l2 -18c-32 -24 -103 -37 -138 -37zM76 503l-6 15c80 60 98 134 115 168c17 35 34 59 68 59c47 0 69 -35 69 -66c0 -38 -46 -130 -246 -176z" />
    <glyph glyph-name="upsilondieresistonos" unicode="&#x3b0;" horiz-adv-x="649" 
d="M70 186v151c0 75 -57 52 -57 74v7l269 39l6 -7c0 -132 -1 -264 -1 -397c0 -31 14 -51 39 -51c55 0 61 122 61 221c0 113 -7 201 -46 222l4 18c201 -2 278 -111 278 -235c0 -116 -88 -243 -299 -243c-168 0 -254 97 -254 201zM247 487l-12 12c50 93 39 151 45 199
c6 44 23 86 80 86c35 0 58 -26 58 -62c0 -47 -30 -136 -171 -235zM80 619c0 48 39 88 87 88c50 0 88 -40 88 -88c0 -49 -38 -89 -88 -89c-48 0 -87 40 -87 89zM410 619c0 48 38 88 87 88s88 -40 88 -88c0 -49 -39 -89 -88 -89s-87 40 -87 89z" />
    <glyph glyph-name="alpha" unicode="&#x3b1;" horiz-adv-x="651" 
d="M590 283v-182c0 -46 13 -56 43 -58l2 -18c-32 -24 -98 -37 -133 -37c-65 0 -114 17 -126 71c-36 -54 -92 -78 -150 -78c-100 0 -198 69 -198 234c0 120 70 239 212 239c54 0 109 -13 142 -57c65 7 132 28 193 68h18c-2 -66 -3 -114 -3 -182zM319 43c18 0 39 16 52 42v293
c-10 15 -29 29 -50 29c-43 0 -60 -50 -60 -187c0 -123 13 -177 58 -177z" />
    <glyph glyph-name="gamma" unicode="&#x3b3;" horiz-adv-x="585" 
d="M167 -243l1 316l-82 230c-17 46 -31 68 -58 68c-5 0 -10 -1 -16 -2l-7 17c37 36 113 71 174 71c67 0 95 -19 121 -94l77 -220h6l65 202c5 13 7 23 7 31c0 49 -73 23 -73 54v6h198v-9c0 -27 -81 3 -112 -86l-84 -243v-263c-69 -7 -129 -29 -196 -78h-21z" />
    <glyph glyph-name="delta" unicode="&#x3b4;" horiz-adv-x="648" 
d="M247 422l2 5c-59 34 -140 89 -140 170c0 111 117 149 220 149c163 0 218 -60 218 -117c0 -44 -35 -71 -71 -71c-60 0 -91 45 -91 98c0 19 5 43 14 66c-14 3 -24 4 -37 4c-37 0 -77 -11 -77 -51c0 -106 331 -191 331 -441c0 -110 -76 -249 -293 -249
c-203 0 -295 105 -295 223c0 89 54 205 219 214zM387 174c0 92 -17 159 -105 230c-14 -43 -21 -133 -21 -193c0 -149 14 -209 64 -209c41 0 62 59 62 172z" />
    <glyph glyph-name="epsilon" unicode="&#x3b5;" horiz-adv-x="493" 
d="M359 241v-19c-85 -10 -106 -58 -106 -101c0 -66 44 -92 99 -92c43 0 91 16 124 41l8 -13c-63 -51 -136 -73 -232 -73c-152 0 -228 54 -228 127c0 43 30 105 129 123v5c-90 10 -113 59 -113 95c0 68 76 124 229 124c146 0 195 -55 195 -113c0 -34 -24 -70 -69 -70
c-53 0 -81 36 -81 92c0 19 4 47 14 65c-57 0 -88 -38 -88 -94c0 -48 24 -96 119 -97z" />
    <glyph glyph-name="zeta" unicode="&#x3b6;" horiz-adv-x="487" 
d="M527 731l8 -11c-140 -89 -342 -229 -342 -376c0 -81 75 -129 165 -185c66 -42 127 -87 127 -159c0 -73 -64 -168 -280 -184c0 6 -2 13 -2 19c100 11 128 37 128 66c0 71 -306 105 -306 307c0 158 164 301 356 432l-3 3c-54 -35 -132 -73 -202 -73c-61 0 -110 28 -110 103
c0 23 7 66 33 101h17c13 -68 82 -96 189 -96c76 0 160 19 222 53z" />
    <glyph glyph-name="eta" unicode="&#x3b7;" horiz-adv-x="669" 
d="M607 316l-1 -217c0 -46 16 -56 47 -58l2 -18c-32 -24 -103 -37 -138 -37c-63 0 -128 26 -128 113v243c0 29 -11 52 -36 52c-19 0 -45 -19 -64 -49v-271c0 -64 39 -48 39 -66v-8h-310v6c0 24 56 4 56 86v243c0 75 -57 52 -57 74v8c87 13 174 27 262 41l6 -7l-11 -91h4
c50 77 129 97 180 97c76 0 149 -37 149 -141z" />
    <glyph glyph-name="theta" unicode="&#x3b8;" horiz-adv-x="647" 
d="M28 368c0 225 97 376 295 376c221 0 295 -173 295 -376c0 -208 -84 -383 -296 -383s-294 165 -294 383zM324 2c48 0 60 97 60 362h-120c0 -276 10 -362 60 -362zM323 726c-48 0 -59 -130 -59 -340h120c0 241 -10 340 -61 340z" />
    <glyph glyph-name="iota" unicode="&#x3b9;" horiz-adv-x="371" 
d="M211 -14c-49 0 -131 16 -131 108l-1 241c0 75 -57 52 -57 74v8c90 13 180 27 270 41l5 -7l1 -352c0 -46 18 -56 49 -58l2 -18c-32 -24 -103 -37 -138 -37z" />
    <glyph glyph-name="lambda" unicode="&#x3bb;" horiz-adv-x="580" 
d="M229 367h-3l-93 -271c-31 -92 66 -55 66 -89v-7h-197v8c0 30 81 0 114 95l103 299l-50 191c-12 45 -23 68 -63 68c-4 0 -10 0 -17 -1l-6 17c36 30 106 63 154 63c76 0 115 -32 136 -113l131 -495c10 -40 22 -72 64 -73l4 -17c-36 -30 -91 -57 -139 -57
c-76 0 -112 32 -133 113z" />
    <glyph glyph-name="mu" unicode="&#xb5;" horiz-adv-x="668" 
d="M596 452v-348c0 -75 59 -52 59 -74v-8c-87 -13 -176 -18 -264 -32l-6 7l5 82h-3c-29 -46 -65 -70 -101 -82v-115c0 -82 55 -62 55 -86v-6h-328v6c0 24 56 5 56 86v452c0 76 -57 53 -57 74v8c89 13 179 26 269 38l6 -6v-350c0 -28 9 -49 32 -49c20 0 43 20 60 48v241
c0 76 -57 53 -57 74v8l268 39z" />
    <glyph glyph-name="mu" unicode="&#x3bc;" horiz-adv-x="668" 
d="M596 452v-348c0 -75 59 -52 59 -74v-8c-87 -13 -176 -18 -264 -32l-6 7l5 82h-3c-29 -46 -65 -70 -101 -82v-115c0 -82 55 -62 55 -86v-6h-328v6c0 24 56 5 56 86v452c0 76 -57 53 -57 74v8c89 13 179 26 269 38l6 -6v-350c0 -28 9 -49 32 -49c20 0 43 20 60 48v241
c0 76 -57 53 -57 74v8l268 39z" />
    <glyph glyph-name="nu" unicode="&#x3bd;" horiz-adv-x="584" 
d="M380 217h4l33 68c20 42 29 70 29 89c0 50 -58 31 -58 52v10h191v-8c0 -24 -62 5 -131 -127l-164 -314l-14 -2l-203 380c-31 57 -61 43 -61 63v8h355v-8c0 -21 -57 -9 -57 -47c0 -10 3 -25 13 -43z" />
    <glyph glyph-name="xi" unicode="&#x3be;" horiz-adv-x="507" 
d="M422 423l-3 -21c-114 -1 -200 -26 -200 -94c0 -104 283 -170 283 -311c0 -73 -60 -157 -271 -191c-1 6 -3 12 -3 18c75 17 112 38 112 71c0 82 -313 117 -313 312c0 99 89 191 252 201c0 1 1 3 1 4c-177 0 -241 81 -241 156c0 92 83 172 246 172c165 0 208 -81 208 -128
c0 -45 -34 -76 -74 -76c-63 0 -90 46 -90 98c0 27 8 56 20 79c-10 2 -18 3 -26 3c-67 0 -102 -55 -102 -140c0 -62 26 -146 201 -153z" />
    <glyph glyph-name="omicron" unicode="&#x3bf;" horiz-adv-x="646" 
d="M28 223c0 128 101 234 294 234c218 0 296 -120 296 -234c0 -116 -90 -238 -297 -238c-205 0 -293 115 -293 238zM265 220c0 -142 9 -218 59 -218c49 0 58 74 58 218c0 150 -8 218 -59 218c-49 0 -58 -92 -58 -218z" />
    <glyph glyph-name="pi" unicode="&#x3c0;" horiz-adv-x="672" 
d="M385 415h-95v-331c0 -76 50 -52 50 -74v-10h-322v10c0 24 54 4 54 78v327h-60v21h645v-21h-54v-316c0 -46 17 -56 48 -58l2 -18c-32 -24 -108 -37 -143 -37c-49 0 -125 10 -125 117v312z" />
    <glyph glyph-name="rho" unicode="&#x3c1;" horiz-adv-x="637" 
d="M37 -246l1 426c0 134 72 278 288 278c201 0 282 -114 282 -245c0 -161 -132 -231 -253 -231c-31 0 -68 4 -98 12c-1 0 -2 -1 -3 -1v-164c-69 -7 -129 -26 -196 -75h-21zM372 215c0 150 -10 224 -59 224c-48 0 -57 -68 -57 -142v-283c15 -4 27 -6 38 -6c64 0 78 80 78 207
z" />
    <glyph glyph-name="sigma1" unicode="&#x3c2;" horiz-adv-x="516" 
d="M209 -180l-3 19c78 15 107 39 107 62c0 73 -285 118 -285 325c0 131 102 231 273 231c144 0 190 -69 190 -126c0 -47 -36 -80 -78 -80c-64 0 -93 47 -93 101c0 29 8 53 21 80c-7 1 -14 2 -22 2c-48 0 -95 -30 -95 -94c0 -142 259 -201 259 -329c0 -69 -42 -160 -274 -191
z" />
    <glyph glyph-name="sigma" unicode="&#x3c3;" horiz-adv-x="648" 
d="M319 436c142 0 212 -1 300 0v-22h-140c0 -2 -1 -3 -1 -4c84 -31 134 -113 134 -192c0 -111 -90 -233 -294 -233c-199 0 -290 110 -290 227c0 123 103 224 291 224zM264 210c0 -126 7 -208 57 -208c49 0 61 85 61 208c0 128 -12 207 -62 207c-49 0 -56 -104 -56 -207z" />
    <glyph glyph-name="tau" unicode="&#x3c4;" horiz-adv-x="423" 
d="M226 -15c-108 0 -136 68 -136 156v276h-87v19h415v-19h-112v-288c0 -55 31 -66 63 -66c15 0 29 2 41 4l3 -17c-76 -60 -153 -65 -187 -65z" />
    <glyph glyph-name="upsilon" unicode="&#x3c5;" horiz-adv-x="649" 
d="M70 186v151c0 75 -57 52 -57 74v7l269 39l6 -7c0 -132 -1 -264 -1 -397c0 -31 14 -51 39 -51c55 0 61 122 61 221c0 113 -7 201 -46 222l4 18c201 -2 278 -111 278 -235c0 -116 -88 -243 -299 -243c-168 0 -254 97 -254 201z" />
    <glyph glyph-name="phi" unicode="&#x3c6;" horiz-adv-x="889" 
d="M330 -246l2 223c-215 22 -304 123 -304 246c0 124 100 225 300 234c1 -6 2 -11 2 -17c-36 -18 -68 -55 -68 -240c0 -143 18 -197 70 -203v183c0 131 60 278 261 278c194 0 268 -109 268 -230c0 -124 -83 -231 -314 -251v-148c-69 -7 -129 -26 -196 -75h-21zM547 381v-384
c53 5 77 78 77 208c0 188 -9 234 -44 234c-26 0 -33 -30 -33 -58z" />
    <glyph glyph-name="chi" unicode="&#x3c7;" horiz-adv-x="617" 
d="M351 342l50 -78l38 64c15 25 23 43 23 58c0 37 -52 23 -52 41v8h186v-8c0 -21 -63 7 -143 -116l-41 -63l108 -165c48 -74 88 -58 88 -77v-6h-373v7c0 19 54 8 54 45c0 10 -18 38 -31 58l-47 74l-44 -69c-19 -30 -27 -50 -27 -64c0 -37 55 -26 55 -44v-7h-190v7
c1 20 62 -4 141 114l54 81l-97 150c-50 77 -79 58 -79 77v7h356v-8c0 -16 -45 -7 -45 -46c0 -10 5 -23 16 -40z" />
    <glyph glyph-name="psi" unicode="&#x3c8;" horiz-adv-x="908" 
d="M61 246v88c0 76 -57 53 -57 74v8l264 39l6 -7v-268c0 -95 7 -167 77 -181v503c0 76 -57 53 -57 74v8l267 36l6 -7v-615c56 10 72 67 72 145v168c0 127 64 145 129 145c35 0 98 -13 130 -37l-2 -16c-32 -2 -44 -7 -44 -59v-69c0 -134 -56 -277 -285 -298v-96
c0 -88 55 -58 55 -86v-7h-326v7c0 28 55 -2 55 86v96c-216 22 -290 146 -290 269z" />
    <glyph glyph-name="omega" unicode="&#x3c9;" horiz-adv-x="911" 
d="M883 223c0 -127 -88 -238 -256 -238c-66 0 -103 28 -115 76c-36 -44 -97 -76 -195 -76c-209 0 -289 115 -289 238c0 124 95 228 280 234l2 -19c-35 -25 -41 -120 -41 -218c0 -170 7 -219 49 -219c25 0 43 27 43 73v167c0 70 -44 49 -44 70v8l248 39c3 -3 4 -5 7 -7v-88
c0 -36 -1 -118 -45 -184c8 -48 36 -67 55 -67c38 0 60 40 60 205c0 109 -9 200 -43 221c1 6 2 13 4 19c185 -6 280 -110 280 -234z" />
    <glyph glyph-name="iotadieresis" unicode="&#x3ca;" horiz-adv-x="371" 
d="M211 -14c-49 0 -131 16 -131 108l-1 241c0 75 -57 52 -57 74v8c90 13 180 27 270 41l5 -7l1 -352c0 -46 18 -56 49 -58l2 -18c-32 -24 -103 -37 -138 -37zM-17 623c0 49 40 90 90 90s90 -41 90 -90c0 -51 -40 -91 -90 -91s-90 40 -90 91zM196 623c0 49 40 90 90 90
s90 -41 90 -90c0 -51 -40 -91 -90 -91s-90 40 -90 91z" />
    <glyph glyph-name="upsilondieresis" unicode="&#x3cb;" horiz-adv-x="649" 
d="M70 186v151c0 75 -57 52 -57 74v7l269 39l6 -7c0 -132 -1 -264 -1 -397c0 -31 14 -51 39 -51c55 0 61 122 61 221c0 113 -7 201 -46 222l4 18c201 -2 278 -111 278 -235c0 -116 -88 -243 -299 -243c-168 0 -254 97 -254 201zM123 623c0 49 40 90 90 90s90 -41 90 -90
c0 -51 -40 -91 -90 -91s-90 40 -90 91zM336 623c0 49 40 90 90 90s90 -41 90 -90c0 -51 -40 -91 -90 -91s-90 40 -90 91z" />
    <glyph glyph-name="omicrontonos" unicode="&#x3cc;" horiz-adv-x="646" 
d="M28 223c0 128 101 234 294 234c218 0 296 -120 296 -234c0 -116 -90 -238 -297 -238c-205 0 -293 115 -293 238zM265 220c0 -142 9 -218 59 -218c49 0 58 74 58 218c0 150 -8 218 -59 218c-49 0 -58 -92 -58 -218zM239 503l-6 15c80 60 98 134 115 168c17 35 34 59 68 59
c47 0 69 -35 69 -66c0 -38 -46 -130 -246 -176z" />
    <glyph glyph-name="upsilontonos" unicode="&#x3cd;" horiz-adv-x="649" 
d="M226 503l-6 15c80 60 98 134 115 168c17 35 34 59 68 59c47 0 69 -35 69 -66c0 -38 -46 -130 -246 -176zM70 186v151c0 75 -57 52 -57 74v7l269 39l6 -7c0 -132 -1 -264 -1 -397c0 -31 14 -51 39 -51c55 0 61 122 61 221c0 113 -7 201 -46 222l4 18
c201 -2 278 -111 278 -235c0 -116 -88 -243 -299 -243c-168 0 -254 97 -254 201z" />
    <glyph glyph-name="omegatonos" unicode="&#x3ce;" horiz-adv-x="911" 
d="M883 223c0 -127 -88 -238 -256 -238c-66 0 -103 28 -115 76c-36 -44 -97 -76 -195 -76c-209 0 -289 115 -289 238c0 124 95 228 280 234l2 -19c-35 -25 -41 -120 -41 -218c0 -170 7 -219 49 -219c25 0 43 27 43 73v167c0 70 -44 49 -44 70v8l248 39c3 -3 4 -5 7 -7v-88
c0 -36 -1 -118 -45 -184c8 -48 36 -67 55 -67c38 0 60 40 60 205c0 109 -9 200 -43 221c1 6 2 13 4 19c185 -6 280 -110 280 -234zM366 503l-6 15c80 60 98 134 115 168c17 35 34 59 68 59c47 0 69 -35 69 -66c0 -38 -46 -130 -246 -176z" />
    <glyph glyph-name="uni1E9E" unicode="&#x1e9e;" horiz-adv-x="880" 
d="M467 692c128 0 246 -49 302 -104c-53 -84 -116 -152 -213 -192v-4c226 0 294 -105 294 -196c0 -103 -78 -212 -271 -212c-117 0 -204 44 -204 147c0 41 33 82 78 82c55 0 83 -47 83 -98c0 -31 -10 -76 -45 -98c4 -1 8 -1 12 -1c76 0 97 85 97 158c0 100 -42 193 -139 193
c-19 0 -40 -4 -65 -12c-2 6 -4 12 -7 18c101 43 176 174 214 277c-33 14 -81 20 -111 20c-137 0 -161 -136 -161 -230v-351c0 -82 54 -59 54 -81v-8h-366v8c0 22 64 -2 64 81v271c0 186 136 332 384 332z" />
    <glyph glyph-name="afii00208" unicode="&#x2015;" horiz-adv-x="945" 
d="M901 236h-855v51h855v-51z" />
    <glyph glyph-name="fraction" unicode="&#x2044;" horiz-adv-x="133" 
d="M241 720l-335 -759h-22l336 759h21z" />
    <glyph glyph-name="fraction" unicode="&#x2215;" horiz-adv-x="133" 
d="M241 720l-335 -759h-22l336 759h21z" />
    <glyph glyph-name="zero.text" unicode="&#xe000;" 
d="M25 335c0 183 104 343 301 343c223 0 304 -180 304 -343c0 -167 -92 -350 -305 -350c-210 0 -300 173 -300 350zM265 329c0 -240 10 -327 64 -327c51 0 61 92 61 327c0 232 -9 331 -63 331c-52 0 -62 -132 -62 -331z" />
    <glyph glyph-name="one.text" unicode="&#xe001;" horiz-adv-x="528" 
d="M378 677v-584c0 -83 84 -62 84 -86v-7h-389v6c0 24 84 6 84 86l-1 456c0 69 -84 26 -87 59l-1 9l304 68z" />
    <glyph glyph-name="two.text" unicode="&#xe002;" horiz-adv-x="642" 
d="M525 0h-513l-3 10c128 219 290 241 290 467c0 75 -23 167 -106 167c-6 0 -12 0 -19 -1c31 -27 46 -71 46 -107c0 -50 -30 -101 -95 -101c-51 0 -80 37 -80 81c0 31 25 162 236 162c189 0 254 -95 254 -178c0 -182 -304 -229 -387 -345l3 -3h295c120 0 114 101 143 96
l6 -1z" />
    <glyph glyph-name="three.text" unicode="&#xe003;" horiz-adv-x="645" 
d="M338 361c169 -1 245 -84 245 -176c0 -112 -104 -200 -291 -200c-185 0 -264 79 -264 166c0 88 76 126 152 126c11 0 23 -1 33 -3l5 -15c-15 -23 -20 -85 -20 -111c0 -71 8 -144 72 -144c63 0 76 85 76 170c0 111 -49 173 -143 173c-11 0 -23 -2 -39 -4l-3 18
c140 26 157 106 157 177c0 63 -30 114 -77 114c-6 0 -11 0 -17 -1c18 -22 27 -52 27 -82c0 -57 -33 -111 -96 -111c-53 0 -81 38 -81 82c0 36 17 138 231 138c180 0 249 -82 249 -161c0 -73 -64 -149 -216 -152v-4z" />
    <glyph glyph-name="four.text" unicode="&#xe004;" horiz-adv-x="645" 
d="M530 428c2 0 4 -1 6 -2v-224h77v-20h-77v-89c0 -83 83 -62 83 -86v-7h-382v6c0 24 79 6 79 86v90h-295v19c94 147 179 311 248 460h264c-110 -204 -384 -397 -491 -459h274v131c81 16 154 47 214 95z" />
    <glyph glyph-name="five.text" unicode="&#xe005;" horiz-adv-x="637" 
d="M343 401c148 0 237 -84 237 -202c0 -112 -88 -214 -301 -214c-165 0 -240 70 -240 158c0 99 96 148 181 132l7 -16c-12 -23 -20 -85 -20 -111c0 -63 5 -147 68 -147c60 0 75 85 75 175c0 115 -51 171 -131 171c-28 0 -59 -6 -92 -20l-18 5l40 317h295
c120 0 103 84 133 79l6 -1l-52 -244c-70 10 -220 15 -258 15h-124l-20 -153c64 40 154 56 214 56z" />
    <glyph glyph-name="six.text" unicode="&#xe006;" 
d="M325 -15c-214 0 -290 110 -290 248c0 205 190 379 483 447l5 -17c-192 -65 -261 -222 -261 -450c0 -170 17 -211 65 -211c53 0 67 91 67 198c0 41 -7 163 -78 178l-1 17c27 6 56 10 83 10c113 0 221 -57 221 -195c0 -120 -105 -225 -294 -225z" />
    <glyph glyph-name="seven.text" unicode="&#xe007;" horiz-adv-x="557" 
d="M551 661l5 -5c-121 -182 -187 -435 -209 -656h-274c93 211 246 387 380 507h-257c-73 0 -92 -17 -118 -53c-13 -18 -21 -37 -34 -33l-6 2l68 253c110 -14 262 -15 305 -15h140z" />
    <glyph glyph-name="eight.text" unicode="&#xe008;" 
d="M568 534c0 -54 -41 -110 -129 -124c88 -52 177 -116 177 -212c0 -159 -149 -213 -296 -213c-102 0 -275 40 -275 170c0 77 64 138 147 153c-62 46 -119 103 -119 174c0 132 125 196 259 196c107 0 236 -37 236 -144zM420 99c0 81 -113 127 -213 196
c-25 -34 -35 -87 -35 -120c0 -90 47 -170 154 -170c58 0 94 45 94 94zM246 572c0 -58 83 -97 174 -150c7 25 14 61 14 97c0 68 -22 139 -103 139c-52 0 -85 -40 -85 -86z" />
    <glyph glyph-name="nine.text" unicode="&#xe009;" 
d="M324 679c213 0 290 -109 290 -249c0 -205 -191 -379 -483 -446l-5 17c193 66 261 222 261 450c0 169 -18 210 -66 210c-52 0 -67 -90 -67 -197c0 -41 7 -164 78 -178l1 -18c-26 -6 -55 -10 -82 -10c-113 0 -221 58 -221 196c0 120 105 225 294 225z" />
    <glyph glyph-name="numbersign.text" unicode="&#xe00a;" horiz-adv-x="580" 
d="M313 30l30 184h-140l-31 -184h-47l32 184h-87v47h94l24 146h-90v46h98l28 173h46l-28 -173h140l29 173h47l-30 -173h88v-46h-96l-24 -146h93v-47h-100l-31 -184h-45zM234 407l-24 -146h140l24 146h-140z" />
    <glyph glyph-name="dollar.text" unicode="&#xe00b;" 
d="M342 -92v836h19v-70c169 -8 219 -79 219 -139c0 -53 -39 -84 -83 -84c-58 0 -91 47 -91 110c0 29 5 62 15 87c-18 4 -38 6 -60 7v-196c109 -55 251 -122 251 -259c0 -107 -85 -197 -251 -210v-82h-19zM416 101c0 32 -23 61 -55 85v-169c41 14 55 49 55 84zM294 744v-836
h-19v81c-180 10 -240 103 -240 173c0 56 40 89 85 89c68 0 95 -60 95 -121c0 -39 -11 -79 -30 -105c21 -11 59 -17 90 -18v226c-103 53 -228 114 -228 234c0 125 102 192 228 205v72h19zM222 577c0 -30 22 -53 53 -74v144c-29 -10 -53 -34 -53 -70z" />
    <glyph glyph-name="euro.text" unicode="&#xe00c;" 
d="M493 365h-470v20h56c25 172 146 286 321 286c167 0 220 -85 220 -139c0 -50 -35 -82 -76 -82c-64 0 -88 52 -88 107c0 31 8 63 20 87c-11 3 -21 4 -31 4c-108 0 -126 -151 -126 -263h174v-20zM23 302h470v-20h-175c1 -135 19 -270 122 -270c13 0 27 3 44 8
c-11 23 -18 51 -18 79c0 57 27 111 89 111c41 0 76 -32 76 -81c0 -56 -57 -140 -239 -140c-179 0 -302 112 -317 293h-52v20z" />
    <glyph glyph-name="florin.text" unicode="&#xe00d;" horiz-adv-x="591" 
d="M101 364h93c20 158 122 318 306 318c65 0 132 -31 132 -103c0 -35 -19 -81 -78 -81c-61 0 -87 54 -87 113c0 16 1 33 6 50c-40 -3 -50 -121 -62 -297h100v-15h-101c-19 -229 -79 -475 -331 -475c-73 0 -138 41 -138 106c0 35 20 85 82 85c59 0 88 -51 88 -107
c0 -22 -4 -45 -12 -66c73 4 63 259 91 457h-89v15z" />
    <glyph glyph-name="sterling.text" unicode="&#xe00e;" horiz-adv-x="642" 
d="M352 671c166 0 219 -85 219 -139c0 -50 -35 -82 -76 -82c-64 0 -84 53 -84 105c0 31 6 65 17 87c-13 2 -25 3 -35 3c-72 0 -91 -47 -91 -105c0 -67 25 -151 27 -199h163v-24h-164c-3 -30 -14 -62 -41 -94c-20 -24 -48 -47 -89 -71v-5h273c116 0 114 96 141 96h2l5 -1
l-68 -242h-506v16c50 57 154 147 154 215c0 34 -18 60 -40 86h-111v24h90c-30 34 -59 73 -59 135c0 131 123 195 273 195z" />
    <glyph glyph-name="cent.text" unicode="&#xe00f;" horiz-adv-x="579" 
d="M289 -47l10 119c-159 6 -231 99 -231 217c0 125 93 239 271 241l9 110h22l-10 -111c120 -5 165 -60 165 -108c0 -43 -29 -73 -66 -73c-54 0 -77 46 -77 95c0 22 4 42 14 62c-4 1 -9 2 -15 2c-8 0 -16 -2 -23 -4l-30 -340c25 -15 57 -21 88 -21c34 0 69 7 96 15l8 -14
c-43 -39 -130 -69 -199 -71l-11 -119h-21zM270 311c0 -64 15 -104 39 -130l27 314c-52 -35 -66 -128 -66 -184z" />
    <glyph glyph-name="yen.text" unicode="&#xe010;" 
d="M559 290h-481v20h105c-38 87 -74 173 -111 260c-33 78 -73 61 -73 82v8h366v-7c0 -22 -52 -11 -52 -54c0 -41 51 -142 75 -204l33 -86h1l80 205c11 28 15 50 15 66c0 75 -85 46 -85 72v8h231v-8c0 -28 -81 7 -141 -142l-80 -200h117v-20zM78 220h481v-20h-123v-112
c0 -82 62 -58 62 -80v-8h-353v8c0 22 62 -2 62 80v112h-129v20z" />
    <glyph glyph-name="zero.taboldstyle" unicode="&#xe024;" 
d="M14 233c0 128 111 244 313 244c233 0 314 -130 314 -244c0 -116 -90 -248 -315 -248c-216 0 -312 125 -312 248zM249 230c0 -144 24 -228 80 -228c59 0 79 94 79 228c0 139 -19 228 -80 228c-57 0 -79 -111 -79 -228z" />
    <glyph glyph-name="one.taboldstyle" unicode="&#xe025;" 
d="M442 486v-402c0 -75 79 -50 79 -74v-10h-377v10c0 24 79 8 79 78v271c0 69 -76 26 -78 59l-1 9l291 66z" />
    <glyph glyph-name="two.taboldstyle" unicode="&#xe026;" 
d="M545 0h-501l-3 11c70 180 304 176 304 331c0 69 -46 102 -103 102c-10 0 -21 -1 -32 -3c29 -25 41 -64 41 -98c0 -47 -30 -96 -93 -96c-50 0 -78 36 -78 78c0 28 14 152 245 152c165 0 248 -54 248 -132c0 -161 -305 -133 -377 -199h271c110 0 106 89 135 89
c1 0 7 -1 10 -1z" />
    <glyph glyph-name="three.taboldstyle" unicode="&#xe027;" 
d="M346 184v-4c155 -3 229 -83 229 -164c0 -105 -100 -188 -278 -188c-179 0 -254 74 -254 163s105 125 175 112l10 -16c-13 -22 -18 -82 -18 -105c0 -58 5 -134 64 -134s71 76 71 158c0 108 -50 155 -136 155c-9 0 -17 0 -35 -1l-4 19c124 31 149 93 149 153
c0 40 -11 73 -30 94c-15 15 -33 23 -57 23c17 -24 26 -56 26 -83c0 -50 -32 -97 -93 -97c-50 0 -78 36 -78 78c0 33 17 130 234 130c164 0 226 -79 226 -151c0 -66 -53 -133 -201 -142z" />
    <glyph glyph-name="four.taboldstyle" unicode="&#xe028;" 
d="M524 246l6 1v-226h70v-21h-70v-77c0 -71 65 -47 65 -74v-10h-348v10c0 24 64 8 64 78v73h-283v20c96 143 170 299 235 440h263c-124 -201 -370 -382 -475 -439h260v135c69 13 145 41 213 90z" />
    <glyph glyph-name="five.taboldstyle" unicode="&#xe029;" 
d="M357 222c144 0 230 -80 230 -191c0 -105 -85 -202 -292 -202c-159 0 -232 67 -232 149c0 97 96 141 178 125l7 -16c-12 -21 -19 -79 -19 -104c0 -57 4 -135 63 -135c56 0 71 79 71 161c0 107 -49 158 -125 158c-25 0 -55 -5 -87 -19l-22 5l40 300h288c74 0 92 33 104 55
c7 13 12 21 20 20l11 -2l-52 -233c-68 8 -167 15 -245 15h-123l-19 -137c63 36 147 51 204 51z" />
    <glyph glyph-name="six.taboldstyle" unicode="&#xe02a;" 
d="M327 -15c-206 0 -280 104 -280 234c0 194 183 356 465 421l4 -19c-184 -60 -250 -206 -250 -422c0 -159 16 -196 63 -196c50 0 64 84 64 185c0 38 -7 152 -75 165v19c26 5 54 9 78 9c109 0 216 -53 216 -183c0 -112 -104 -213 -285 -213z" />
    <glyph glyph-name="seven.taboldstyle" unicode="&#xe02b;" 
d="M469 313h-264c-68 0 -86 -32 -100 -55c-9 -15 -14 -22 -24 -20l-8 2l66 236c87 -14 236 -15 294 -15h136l6 -6c-116 -169 -180 -406 -200 -615h-270c89 199 234 361 364 473z" />
    <glyph glyph-name="eight.taboldstyle" unicode="&#xe02c;" 
d="M558 502c0 -52 -41 -104 -125 -116c86 -49 174 -110 174 -200c0 -149 -148 -201 -291 -201c-114 0 -271 39 -271 160c0 72 63 129 142 143c-61 42 -115 97 -115 164c0 124 125 185 255 185c104 0 231 -35 231 -135zM411 91c0 73 -110 120 -207 184
c-25 -32 -34 -81 -34 -112c0 -85 47 -158 151 -158c55 0 90 36 90 86zM245 541c0 -58 80 -98 170 -144c6 23 12 56 12 90c0 64 -23 130 -101 130c-52 0 -81 -33 -81 -76z" />
    <glyph glyph-name="nine.taboldstyle" unicode="&#xe02d;" 
d="M329 477c206 0 280 -104 280 -234c0 -194 -184 -357 -465 -421l-5 18c184 61 250 207 250 422c0 159 -16 197 -62 197c-51 0 -65 -84 -65 -185c0 -38 7 -153 75 -166v-18c-25 -5 -54 -9 -78 -9c-109 0 -215 53 -215 183c0 112 103 213 285 213z" />
    <glyph glyph-name="numbersign.taboldstyle" unicode="&#xe02e;" 
d="M346 25l29 161h-128l-28 -161h-41l27 161h-75v42h83l20 112h-79v39h85l27 152h42l-27 -152h128l27 152h41l-27 -152h75v-39h-82l-19 -112h77v-42h-85l-28 -161h-42zM275 340l-20 -112h127l20 112h-127z" />
    <glyph glyph-name="dollar.taboldstyle" unicode="&#xe02f;" 
d="M345 -87v721h20v-61c156 -8 197 -72 197 -125c0 -43 -31 -74 -76 -74c-59 0 -84 51 -84 100c0 25 5 51 13 72c-16 4 -33 6 -50 6v-164c99 -47 226 -104 226 -224c0 -92 -76 -169 -226 -181v-70h-20zM413 79c0 26 -19 51 -48 70v-138c36 12 48 40 48 68zM303 634v-721h-20
v69c-160 9 -215 89 -215 149c0 49 35 80 76 80c67 0 90 -58 90 -106c0 -34 -11 -66 -27 -90c18 -7 50 -13 76 -13v189c-92 46 -204 99 -204 202c0 108 91 166 204 178v63h20zM237 487c0 -24 18 -45 46 -61v120c-26 -9 -46 -29 -46 -59z" />
    <glyph glyph-name="euro.taboldstyle" unicode="&#xe030;" 
d="M467 310h-412v21h49c24 144 132 239 290 239c151 0 200 -74 200 -123c0 -44 -33 -74 -71 -74c-58 0 -81 48 -81 98c0 25 6 51 15 72c-9 2 -17 3 -25 3c-92 0 -105 -136 -106 -215h141v-21zM55 254h412v-20h-142c1 -98 15 -223 106 -223c10 0 21 2 34 6
c-10 20 -15 46 -15 68c0 52 25 102 83 102c39 0 72 -29 72 -73c0 -52 -52 -125 -217 -125c-163 0 -274 92 -288 245h-45v20z" />
    <glyph glyph-name="florin.taboldstyle" unicode="&#xe031;" 
d="M548 326h-98c-19 -216 -79 -444 -324 -444c-71 0 -134 40 -134 101c0 33 19 80 79 80c59 0 87 -47 87 -101c0 -21 -4 -42 -12 -61c71 4 61 239 90 425h-88v20h91c21 147 118 289 298 289c63 0 128 -30 128 -98c0 -33 -19 -76 -76 -76c-61 0 -85 53 -85 109
c0 15 2 30 6 44c-38 -2 -49 -108 -58 -268h96v-20z" />
    <glyph glyph-name="sterling.taboldstyle" unicode="&#xe032;" 
d="M79 269v23h80c-27 29 -53 62 -53 110c0 112 110 166 245 166c149 0 197 -73 197 -119c0 -44 -31 -72 -70 -72c-59 0 -78 47 -78 92c0 24 6 52 11 71c-8 1 -17 1 -24 1c-61 0 -78 -39 -78 -85c0 -55 22 -107 24 -164h145v-23h-146c-2 -26 -14 -56 -40 -84
c-19 -20 -45 -39 -81 -56h236c114 0 105 81 135 81c0 0 6 -1 10 -1l-63 -209h-453v18c90 82 137 135 137 178c0 28 -15 51 -35 73h-99z" />
    <glyph glyph-name="cent.taboldstyle" unicode="&#xe033;" 
d="M316 -39l8 99c-137 0 -204 77 -204 178c0 107 77 208 240 213l8 88h23l-8 -88c113 -5 148 -54 148 -95c0 -38 -26 -64 -61 -64c-50 0 -71 39 -71 83c0 17 3 37 11 53c-11 0 -21 -2 -30 -5l-26 -283c21 -11 46 -15 74 -15c30 0 61 5 92 13l8 -16
c-40 -34 -106 -56 -181 -61l-9 -100h-22zM299 254c0 -47 13 -79 35 -99l22 256c-40 -29 -57 -93 -57 -157z" />
    <glyph glyph-name="yen.taboldstyle" unicode="&#xe034;" 
d="M541 244h-447v20h97l-104 222c-28 59 -67 46 -67 67v9h343v-8c0 -22 -48 -7 -48 -44c0 -29 39 -103 60 -153l39 -93l80 198c6 15 8 27 8 36c0 54 -82 31 -82 55v9h218v-8c0 -24 -78 2 -118 -90l-86 -200h107v-20zM213 81v89h-119v20h447v-20h-113v-89
c0 -74 60 -52 60 -73v-8h-334v8c0 21 59 -2 59 73z" />
    <glyph glyph-name="zero.textoldstyle" unicode="&#xe048;" 
d="M14 233c0 128 111 244 313 244c233 0 314 -130 314 -244c0 -116 -90 -248 -315 -248c-216 0 -312 125 -312 248zM249 230c0 -144 24 -228 80 -228c59 0 79 94 79 228c0 139 -19 228 -80 228c-57 0 -79 -111 -79 -228z" />
    <glyph glyph-name="one.textoldstyle" unicode="&#xe049;" horiz-adv-x="527" 
d="M374 486v-402c0 -75 79 -50 79 -74v-10h-377v10c0 24 79 8 79 78v271c0 69 -76 26 -78 59l-1 9l291 66z" />
    <glyph glyph-name="two.textoldstyle" unicode="&#xe04a;" 
d="M533 0h-501l-3 11c70 180 304 176 304 331c0 69 -46 102 -103 102c-10 0 -21 -1 -32 -3c29 -25 41 -64 41 -98c0 -47 -30 -96 -93 -96c-50 0 -78 36 -78 78c0 28 14 152 245 152c165 0 248 -54 248 -132c0 -161 -305 -133 -377 -199h271c110 0 106 89 135 89
c1 0 7 -1 10 -1z" />
    <glyph glyph-name="three.textoldstyle" unicode="&#xe04b;" horiz-adv-x="640" 
d="M331 184v-4c155 -3 229 -83 229 -164c0 -105 -100 -188 -278 -188c-179 0 -254 74 -254 163s105 125 175 112l10 -16c-13 -22 -18 -82 -18 -105c0 -58 5 -134 64 -134s71 76 71 158c0 108 -50 155 -136 155c-9 0 -17 0 -35 -1l-4 19c124 31 149 93 149 153
c0 40 -11 73 -30 94c-15 15 -33 23 -57 23c17 -24 26 -56 26 -83c0 -50 -32 -97 -93 -97c-50 0 -78 36 -78 78c0 33 17 130 234 130c164 0 226 -79 226 -151c0 -66 -53 -133 -201 -142z" />
    <glyph glyph-name="four.textoldstyle" unicode="&#xe04c;" horiz-adv-x="623" 
d="M507 246l6 1v-226h70v-21h-70v-77c0 -71 65 -47 65 -74v-10h-348v10c0 24 64 8 64 78v73h-283v20c96 143 170 299 235 440h263c-124 -201 -370 -382 -475 -439h260v135c69 13 145 41 213 90z" />
    <glyph glyph-name="five.textoldstyle" unicode="&#xe04d;" horiz-adv-x="615" 
d="M317 222c144 0 230 -80 230 -191c0 -105 -85 -202 -292 -202c-159 0 -232 67 -232 149c0 97 96 141 178 125l7 -16c-12 -21 -19 -79 -19 -104c0 -57 4 -135 63 -135c56 0 71 79 71 161c0 107 -49 158 -125 158c-25 0 -55 -5 -87 -19l-22 5l40 300h288c74 0 92 33 104 55
c7 13 12 21 20 20l11 -2l-52 -233c-68 8 -167 15 -245 15h-123l-19 -137c63 36 147 51 204 51z" />
    <glyph glyph-name="six.textoldstyle" unicode="&#xe04e;" 
d="M327 -15c-206 0 -280 104 -280 234c0 194 183 356 465 421l4 -19c-184 -60 -250 -206 -250 -422c0 -159 16 -196 63 -196c50 0 64 84 64 185c0 38 -7 152 -75 165v19c26 5 54 9 78 9c109 0 216 -53 216 -183c0 -112 -104 -213 -285 -213z" />
    <glyph glyph-name="seven.textoldstyle" unicode="&#xe04f;" horiz-adv-x="574" 
d="M435 313h-264c-68 0 -86 -32 -100 -55c-9 -15 -14 -22 -24 -20l-8 2l66 236c87 -14 236 -15 294 -15h136l6 -6c-116 -169 -180 -406 -200 -615h-270c89 199 234 361 364 473z" />
    <glyph glyph-name="eight.textoldstyle" unicode="&#xe050;" 
d="M558 502c0 -52 -41 -104 -125 -116c86 -49 174 -110 174 -200c0 -149 -148 -201 -291 -201c-114 0 -271 39 -271 160c0 72 63 129 142 143c-61 42 -115 97 -115 164c0 124 125 185 255 185c104 0 231 -35 231 -135zM411 91c0 73 -110 120 -207 184
c-25 -32 -34 -81 -34 -112c0 -85 47 -158 151 -158c55 0 90 36 90 86zM245 541c0 -58 80 -96 170 -144c6 23 12 56 12 90c0 64 -23 130 -101 130c-52 0 -81 -33 -81 -76z" />
    <glyph glyph-name="nine.textoldstyle" unicode="&#xe051;" 
d="M329 477c206 0 280 -104 280 -234c0 -194 -184 -357 -465 -421l-5 18c184 61 250 207 250 422c0 159 -16 197 -62 197c-51 0 -65 -84 -65 -185c0 -38 7 -153 75 -166v-18c-25 -5 -54 -9 -78 -9c-109 0 -215 53 -215 183c0 112 103 213 285 213z" />
    <glyph glyph-name="numbersign.textoldstyle" unicode="&#xe052;" horiz-adv-x="545" 
d="M299 25l28 161h-127l-29 -161h-41l28 161h-75v42h82l20 112h-79v39h86l26 152h43l-27 -152h127l27 152h41l-26 -152h75v-39h-83l-19 -112h77v-42h-84l-28 -161h-42zM227 340l-20 -112h128l20 112h-128z" />
    <glyph glyph-name="dollar.textoldstyle" unicode="&#xe053;" 
d="M345 -87v721h20v-61c156 -8 197 -72 197 -125c0 -43 -31 -74 -76 -74c-59 0 -84 51 -84 100c0 25 5 51 13 72c-16 4 -33 6 -50 6v-164c99 -47 226 -104 226 -224c0 -92 -76 -169 -226 -181v-70h-20zM413 79c0 26 -19 51 -48 70v-138c36 12 48 40 48 68zM303 634v-721h-20
v69c-160 9 -215 89 -215 149c0 49 35 80 76 80c65 0 90 -58 90 -106c0 -34 -11 -66 -27 -90c18 -7 50 -13 76 -13v189c-92 46 -204 99 -204 202c0 108 91 166 204 178v63h20zM237 487c0 -24 18 -45 46 -61v120c-26 -9 -46 -29 -46 -59z" />
    <glyph glyph-name="euro.textoldstyle" unicode="&#xe054;" 
d="M467 310h-412v21h49c24 144 132 239 290 239c151 0 200 -74 200 -123c0 -44 -33 -74 -71 -74c-58 0 -81 48 -81 98c0 25 6 51 15 72c-9 2 -17 3 -25 3c-92 0 -105 -136 -106 -215h141v-21zM55 254h412v-20h-142c1 -98 15 -223 106 -223c10 0 21 2 34 6
c-10 20 -15 46 -15 68c0 52 25 102 83 102c39 0 72 -29 72 -73c0 -52 -52 -125 -217 -125c-163 0 -274 92 -288 245h-45v20z" />
    <glyph glyph-name="florin.textoldstyle" unicode="&#xe055;" horiz-adv-x="591" 
d="M509 326h-98c-20 -216 -79 -444 -325 -444c-71 0 -134 40 -134 101c0 33 20 80 80 80c59 0 86 -47 86 -101c0 -21 -4 -42 -12 -61c71 4 61 239 90 425h-88v20h91c21 147 119 289 298 289c63 0 128 -30 128 -98c0 -33 -19 -76 -77 -76c-60 0 -84 53 -84 108
c0 15 2 31 7 45c-40 -2 -50 -107 -59 -268h97v-20z" />
    <glyph glyph-name="sterling.textoldstyle" unicode="&#xe056;" 
d="M81 269v23h80c-27 29 -53 62 -53 110c0 112 110 166 245 166c149 0 197 -73 197 -119c0 -44 -31 -72 -70 -72c-59 0 -78 47 -78 92c0 24 6 52 11 71c-8 1 -17 1 -24 1c-61 0 -78 -39 -78 -85c0 -55 22 -107 24 -164h145v-23h-146c-2 -26 -14 -56 -40 -84
c-19 -20 -45 -39 -81 -56h236c114 0 105 81 135 81c0 0 6 -1 10 -1l-63 -209h-453v18c90 82 137 135 137 178c0 28 -15 51 -35 73h-99z" />
    <glyph glyph-name="cent.textoldstyle" unicode="&#xe057;" horiz-adv-x="579" 
d="M282 -39l8 99c-137 0 -204 77 -204 178c0 107 77 208 240 213l8 88h23l-8 -88c113 -5 148 -54 148 -95c0 -38 -26 -64 -61 -64c-50 0 -71 39 -71 83c0 17 3 37 11 53c-11 0 -21 -2 -30 -5l-26 -283c21 -11 46 -15 74 -15c30 0 61 5 92 13l8 -16
c-40 -34 -106 -56 -181 -61l-9 -100h-22zM265 254c0 -47 13 -79 35 -99l22 256c-40 -29 -57 -93 -57 -157z" />
    <glyph glyph-name="yen.textoldstyle" unicode="&#xe058;" 
d="M541 244h-447v20h97l-104 222c-28 59 -67 46 -67 67v9h343v-8c0 -22 -48 -7 -48 -44c0 -29 39 -103 60 -153l39 -93l80 198c6 15 8 27 8 36c0 54 -82 31 -82 55v9h218v-8c0 -24 -78 2 -118 -90l-86 -200h107v-20zM213 81v89h-119v20h447v-20h-113v-89
c0 -74 60 -52 60 -73v-8h-334v8c0 21 59 -2 59 73z" />
    <glyph glyph-name="percent.text" unicode="&#xe059;" horiz-adv-x="843" 
d="M29 466c0 103 66 191 190 191c142 0 192 -101 192 -191c0 -92 -58 -194 -193 -194c-132 0 -189 95 -189 194zM183 463c0 -130 6 -177 37 -177s37 50 37 177c0 125 -5 179 -38 179c-30 0 -36 -71 -36 -179zM432 176c0 103 66 191 190 191c142 0 193 -101 193 -191
c0 -92 -58 -194 -194 -194c-131 0 -189 95 -189 194zM587 173c0 -130 6 -176 37 -176c30 0 36 49 36 176c0 125 -5 179 -37 179c-30 0 -36 -71 -36 -179zM608 720l-337 -759h-20l337 759h20z" />
    <glyph glyph-name="perthousand.text" unicode="&#xe05a;" horiz-adv-x="1252" 
d="M29 466c0 103 66 191 190 191c142 0 192 -101 192 -191c0 -92 -58 -194 -193 -194c-132 0 -189 95 -189 194zM183 463c0 -130 6 -177 37 -177s37 50 37 177c0 125 -5 179 -38 179c-30 0 -36 -71 -36 -179zM432 176c0 103 66 191 190 191c142 0 193 -101 193 -191
c0 -92 -58 -194 -194 -194c-131 0 -189 95 -189 194zM587 173c0 -130 6 -176 37 -176c30 0 36 49 36 176c0 125 -5 179 -37 179c-30 0 -36 -71 -36 -179zM843 176c0 103 65 191 190 191c141 0 192 -101 192 -191c0 -92 -59 -194 -193 -194c-132 0 -189 95 -189 194zM997 173
c0 -130 6 -176 37 -176c30 0 36 49 36 176c0 125 -5 179 -37 179c-30 0 -36 -71 -36 -179zM608 720l-337 -759h-20l337 759h20z" />
    <glyph glyph-name="zero.numerator" unicode="&#xe2d0;" horiz-adv-x="426" 
d="M14 498c0 109 69 202 197 202c145 0 198 -106 198 -202c0 -98 -60 -207 -199 -207c-136 0 -196 102 -196 207zM174 494c0 -138 6 -187 38 -187c31 0 38 52 38 187c0 133 -6 191 -39 191c-31 0 -37 -76 -37 -191z" />
    <glyph glyph-name="one.numerator" unicode="&#xe2d1;" horiz-adv-x="406" 
d="M280 692v-334c0 -44 45 -34 45 -49v-9h-246v7c0 17 52 8 52 53v256c0 18 -14 21 -24 22c-15 2 -28 2 -28 12v8l192 43z" />
    <glyph glyph-name="two.numerator" unicode="&#xe2d2;" horiz-adv-x="426" 
d="M345 300h-337l-3 13c87 105 188 148 188 275c0 50 -22 104 -75 88c19 -14 24 -47 24 -61c0 -29 -17 -63 -58 -63c-37 0 -56 27 -56 55c0 18 15 95 156 95c124 0 166 -56 166 -109c0 -108 -160 -139 -241 -199h176c62 0 77 29 86 46c5 9 8 13 16 12l5 -1z" />
    <glyph glyph-name="three.numerator" unicode="&#xe2d3;" horiz-adv-x="426" 
d="M251 515c90 -9 131 -54 131 -105c0 -67 -69 -119 -190 -119c-123 0 -174 47 -174 100c0 52 43 75 103 75c7 0 14 0 22 -1l4 -12c-11 -13 -14 -49 -14 -64c0 -40 5 -82 44 -82s46 49 46 97c0 63 -29 98 -87 98c-8 0 -16 -1 -24 -1l-3 14c91 16 96 64 96 102
c0 26 -14 65 -43 65c-2 0 -7 0 -9 -1c9 -12 14 -29 14 -45c0 -35 -22 -69 -63 -69c-37 0 -56 24 -56 52c0 21 11 83 151 83c119 0 164 -50 164 -97c0 -38 -35 -81 -112 -90z" />
    <glyph glyph-name="four.numerator" unicode="&#xe2d4;" horiz-adv-x="426" 
d="M201 407h-191v15c65 90 120 186 163 270h176c-71 -119 -240 -228 -314 -268h166v74c53 10 99 27 140 54c2 0 4 -1 6 -2v-126h51v-17h-51v-49c0 -44 43 -34 43 -49v-9h-237v7c0 17 48 8 48 53v47z" />
    <glyph glyph-name="five.numerator" unicode="&#xe2d5;" horiz-adv-x="426" 
d="M73 492l29 192h184c62 0 73 20 84 37c4 7 8 11 14 10l6 -1l-36 -149c-43 4 -125 10 -179 10h-68l-14 -84c42 23 97 33 135 33c103 0 158 -51 158 -122c0 -67 -59 -127 -200 -127c-109 0 -159 44 -159 95c0 53 46 80 99 80c8 0 16 -1 25 -2l6 -14c-12 -16 -15 -46 -15 -61
c0 -24 2 -82 41 -82c38 0 47 52 47 98c0 65 -32 96 -84 96c-17 0 -37 -3 -59 -13z" />
    <glyph glyph-name="six.numerator" unicode="&#xe2d6;" horiz-adv-x="426" 
d="M210 291c-140 0 -189 65 -189 149c0 120 124 224 315 264l5 -15c-124 -37 -169 -130 -169 -262c0 -97 11 -120 40 -120c32 0 42 51 42 113c0 24 -4 97 -48 102l-1 14c17 4 35 5 53 5c72 0 144 -31 144 -115c0 -73 -68 -135 -192 -135z" />
    <glyph glyph-name="seven.numerator" unicode="&#xe2d7;" horiz-adv-x="409" 
d="M374 690l6 -9c-78 -109 -119 -253 -137 -381c-60 -2 -120 -2 -180 -4c29 97 154 229 235 298h-158c-90 0 -73 -51 -98 -47l-6 1l44 152c52 -6 137 -10 198 -10h96z" />
    <glyph glyph-name="eight.numerator" unicode="&#xe2d8;" horiz-adv-x="426" 
d="M369 614c0 -33 -25 -64 -79 -74c55 -31 109 -68 109 -123c0 -94 -98 -126 -192 -126c-66 0 -180 24 -180 101c0 46 40 82 93 92c-37 26 -74 59 -74 99c0 79 80 117 168 117c70 0 155 -22 155 -86zM268 359c0 34 -44 66 -86 89l-44 24c-20 -25 -24 -50 -24 -67
c0 -51 30 -98 96 -98c35 0 58 25 58 52zM213 684c-32 0 -51 -19 -51 -46c0 -30 39 -53 107 -87c4 15 8 50 8 67c0 34 -19 66 -64 66z" />
    <glyph glyph-name="nine.numerator" unicode="&#xe2d9;" horiz-adv-x="426" 
d="M210 702c139 0 189 -64 189 -148c0 -121 -125 -224 -315 -265l-5 14c124 39 169 132 169 263c0 98 -11 120 -39 120c-32 0 -42 -51 -42 -113c0 -23 4 -97 48 -101v-15c-17 -3 -35 -5 -54 -5c-72 0 -144 30 -144 116c0 72 69 134 193 134z" />
    </font>
</defs>
</svg>
