<svg 
 xmlns="http://www.w3.org/2000/svg"
 xmlns:xlink="http://www.w3.org/1999/xlink"
 width="12px" height="21px">
<path fill-rule="evenodd"  fill="rgb(86, 193, 178)"
 d="M2.226,0.265 C2.226,0.281 2.226,0.298 2.226,0.313 C2.243,0.313 2.259,0.313 2.275,0.313 C2.275,0.330 2.275,0.345 2.275,0.362 C2.292,0.362 2.308,0.362 2.324,0.362 C2.324,0.378 2.324,0.394 2.324,0.410 C2.341,0.410 2.357,0.410 2.373,0.410 C2.373,0.426 2.373,0.442 2.373,0.459 C2.390,0.459 2.406,0.459 2.422,0.459 C2.422,0.475 2.422,0.491 2.422,0.507 C2.439,0.507 2.455,0.507 2.471,0.507 C2.471,0.523 2.471,0.539 2.471,0.555 C2.487,0.555 2.504,0.555 2.520,0.555 C2.520,0.571 2.520,0.588 2.520,0.603 C2.536,0.603 2.553,0.603 2.569,0.603 C2.569,0.620 2.569,0.636 2.569,0.652 C2.585,0.652 2.602,0.652 2.618,0.652 C2.618,0.668 2.618,0.684 2.618,0.700 C2.634,0.700 2.651,0.700 2.667,0.700 C2.667,0.716 2.667,0.733 2.667,0.749 C2.683,0.749 2.699,0.749 2.716,0.749 C2.716,0.765 2.716,0.781 2.716,0.797 C2.732,0.797 2.748,0.797 2.765,0.797 C2.765,0.813 2.765,0.829 2.765,0.845 C2.781,0.845 2.797,0.845 2.814,0.845 C2.814,0.862 2.814,0.878 2.814,0.894 C2.830,0.894 2.846,0.894 2.863,0.894 C2.863,0.910 2.863,0.926 2.863,0.942 C2.879,0.942 2.895,0.942 2.912,0.942 C2.912,0.958 2.912,0.974 2.912,0.990 C2.928,0.990 2.944,0.990 2.960,0.990 C2.960,1.007 2.960,1.023 2.960,1.039 C2.977,1.039 2.993,1.039 3.009,1.039 C3.009,1.055 3.009,1.071 3.009,1.088 C3.026,1.088 3.042,1.088 3.058,1.088 C3.058,1.103 3.058,1.120 3.058,1.136 C3.075,1.136 3.091,1.136 3.107,1.136 C3.107,1.152 3.107,1.168 3.107,1.184 C3.124,1.184 3.140,1.184 3.156,1.184 C3.156,1.200 3.156,1.216 3.156,1.233 C3.173,1.233 3.189,1.233 3.205,1.233 C3.205,1.248 3.205,1.265 3.205,1.281 C3.221,1.281 3.238,1.281 3.254,1.281 C3.254,1.297 3.254,1.313 3.254,1.329 C3.270,1.329 3.287,1.329 3.303,1.329 C3.303,1.345 3.303,1.361 3.303,1.378 C3.319,1.378 3.336,1.378 3.352,1.378 C3.352,1.394 3.352,1.409 3.352,1.425 C3.368,1.425 3.385,1.425 3.401,1.425 C3.401,1.442 3.401,1.458 3.401,1.474 C3.417,1.474 3.433,1.474 3.450,1.474 C3.450,1.490 3.450,1.507 3.450,1.522 C3.466,1.522 3.482,1.522 3.499,1.522 C3.499,1.539 3.499,1.555 3.499,1.571 C3.515,1.571 3.531,1.571 3.548,1.571 C3.548,1.587 3.548,1.603 3.548,1.619 C3.564,1.619 3.580,1.619 3.597,1.619 C3.597,1.635 3.597,1.651 3.597,1.668 C3.613,1.668 3.629,1.668 3.646,1.668 C3.646,1.683 3.646,1.699 3.646,1.716 C3.662,1.716 3.678,1.716 3.695,1.716 C3.695,1.732 3.695,1.748 3.695,1.764 C3.711,1.764 3.727,1.764 3.743,1.764 C3.743,1.781 3.743,1.797 3.743,1.813 C3.760,1.813 3.776,1.813 3.792,1.813 C3.792,1.829 3.792,1.845 3.792,1.861 C3.809,1.861 3.825,1.861 3.841,1.861 C3.841,1.877 3.841,1.894 3.841,1.910 C3.858,1.910 3.874,1.910 3.890,1.910 C3.890,1.926 3.890,1.942 3.890,1.958 C3.907,1.958 3.923,1.958 3.939,1.958 C3.939,1.974 3.939,1.990 3.939,2.006 C3.955,2.006 3.972,2.006 3.988,2.006 C3.988,2.022 3.988,2.038 3.988,2.054 C4.004,2.054 4.021,2.054 4.037,2.054 C4.037,2.071 4.037,2.087 4.037,2.103 C4.053,2.103 4.070,2.103 4.086,2.103 C4.086,2.119 4.086,2.135 4.086,2.152 C4.102,2.152 4.119,2.152 4.135,2.152 C4.135,2.167 4.135,2.184 4.135,2.199 C4.151,2.199 4.167,2.199 4.184,2.199 C4.184,2.216 4.184,2.232 4.184,2.248 C4.200,2.248 4.216,2.248 4.233,2.248 C4.233,2.265 4.233,2.280 4.233,2.296 C4.249,2.296 4.265,2.296 4.282,2.296 C4.282,2.312 4.282,2.329 4.282,2.345 C4.298,2.345 4.314,2.345 4.331,2.345 C4.331,2.361 4.331,2.377 4.331,2.393 C4.347,2.393 4.363,2.393 4.380,2.393 C4.380,2.409 4.380,2.426 4.380,2.441 C4.396,2.441 4.412,2.441 4.429,2.441 C4.429,2.457 4.429,2.473 4.429,2.490 C4.445,2.490 4.461,2.490 4.478,2.490 C4.478,2.506 4.478,2.522 4.478,2.538 C4.494,2.538 4.510,2.538 4.526,2.538 C4.526,2.554 4.526,2.570 4.526,2.586 C4.543,2.586 4.559,2.586 4.575,2.586 C4.575,2.603 4.575,2.619 4.575,2.635 C4.592,2.635 4.608,2.635 4.624,2.635 C4.624,2.651 4.624,2.667 4.624,2.683 C4.641,2.683 4.657,2.683 4.673,2.683 C4.673,2.699 4.673,2.716 4.673,2.732 C4.690,2.732 4.706,2.732 4.722,2.732 C4.722,2.747 4.722,2.764 4.722,2.780 C4.738,2.780 4.755,2.780 4.771,2.780 C4.771,2.796 4.771,2.812 4.771,2.828 C4.787,2.828 4.804,2.828 4.820,2.828 C4.820,2.844 4.820,2.860 4.820,2.877 C4.836,2.877 4.853,2.877 4.869,2.877 C4.869,2.893 4.869,2.909 4.869,2.925 C4.885,2.925 4.902,2.925 4.918,2.925 C4.918,2.941 4.918,2.957 4.918,2.974 C4.934,2.974 4.951,2.974 4.967,2.974 C4.967,2.990 4.967,3.006 4.967,3.022 C4.983,3.022 4.999,3.022 5.016,3.022 C5.016,3.038 5.016,3.054 5.016,3.070 C5.032,3.070 5.048,3.070 5.065,3.070 C5.065,3.086 5.065,3.102 5.065,3.118 C5.081,3.118 5.097,3.118 5.114,3.118 C5.114,3.135 5.114,3.151 5.114,3.167 C5.130,3.167 5.146,3.167 5.163,3.167 C5.163,3.183 5.163,3.199 5.163,3.215 C5.179,3.215 5.195,3.215 5.212,3.215 C5.212,3.232 5.212,3.248 5.212,3.264 C5.228,3.264 5.244,3.264 5.260,3.264 C5.260,3.279 5.260,3.296 5.260,3.312 C5.277,3.312 5.293,3.312 5.309,3.312 C5.309,3.328 5.309,3.344 5.309,3.361 C5.326,3.361 5.342,3.361 5.358,3.361 C5.358,3.376 5.358,3.392 5.358,3.409 C5.375,3.409 5.391,3.409 5.407,3.409 C5.407,3.425 5.407,3.441 5.407,3.457 C5.424,3.457 5.440,3.457 5.456,3.457 C5.456,3.473 5.456,3.489 5.456,3.505 C5.472,3.505 5.489,3.505 5.505,3.505 C5.505,3.521 5.505,3.537 5.505,3.554 C5.521,3.554 5.538,3.554 5.554,3.554 C5.554,3.570 5.554,3.586 5.554,3.602 C5.570,3.602 5.587,3.602 5.603,3.602 C5.603,3.618 5.603,3.634 5.603,3.650 C5.619,3.650 5.636,3.650 5.652,3.650 C5.652,3.666 5.652,3.682 5.652,3.699 C5.668,3.699 5.685,3.699 5.701,3.699 C5.701,3.715 5.701,3.731 5.701,3.747 C5.717,3.747 5.734,3.747 5.750,3.747 C5.750,3.763 5.750,3.780 5.750,3.795 C5.766,3.795 5.782,3.795 5.799,3.795 C5.799,3.812 5.799,3.827 5.799,3.844 C5.815,3.844 5.831,3.844 5.848,3.844 C5.848,3.860 5.848,3.876 5.848,3.892 C5.864,3.892 5.880,3.892 5.897,3.892 C5.897,3.908 5.897,3.924 5.897,3.941 C5.913,3.941 5.929,3.941 5.946,3.941 C5.946,3.957 5.946,3.973 5.946,3.989 C5.962,3.989 5.978,3.989 5.995,3.989 C5.995,4.005 5.995,4.021 5.995,4.037 C6.011,4.037 6.027,4.037 6.043,4.037 C6.043,4.054 6.043,4.070 6.043,4.086 C6.060,4.086 6.076,4.086 6.092,4.086 C6.092,4.101 6.092,4.119 6.092,4.134 C6.109,4.134 6.125,4.134 6.141,4.134 C6.141,4.150 6.141,4.166 6.141,4.183 C6.158,4.183 6.174,4.183 6.190,4.183 C6.190,4.199 6.190,4.215 6.190,4.231 C6.206,4.231 6.223,4.231 6.239,4.231 C6.239,4.247 6.239,4.263 6.239,4.279 C6.255,4.279 6.272,4.279 6.288,4.279 C6.288,4.295 6.288,4.312 6.288,4.328 C6.304,4.328 6.321,4.328 6.337,4.328 C6.337,4.344 6.337,4.360 6.337,4.376 C6.353,4.376 6.370,4.376 6.386,4.376 C6.386,4.393 6.386,4.408 6.386,4.424 C6.402,4.424 6.419,4.424 6.435,4.424 C6.435,4.440 6.435,4.457 6.435,4.473 C6.451,4.473 6.468,4.473 6.484,4.473 C6.484,4.489 6.484,4.505 6.484,4.521 C6.500,4.521 6.517,4.521 6.533,4.521 C6.533,4.537 6.533,4.553 6.533,4.569 C6.549,4.569 6.565,4.569 6.582,4.569 C6.582,4.585 6.582,4.601 6.582,4.618 C6.598,4.618 6.614,4.618 6.631,4.618 C6.631,4.634 6.631,4.650 6.631,4.666 C6.647,4.666 6.663,4.666 6.680,4.666 C6.680,4.682 6.680,4.698 6.680,4.714 C6.696,4.714 6.712,4.714 6.729,4.714 C6.729,4.730 6.729,4.747 6.729,4.763 C6.745,4.763 6.761,4.763 6.777,4.763 C6.777,4.779 6.777,4.795 6.777,4.811 C6.794,4.811 6.810,4.811 6.826,4.811 C6.826,4.828 6.826,4.843 6.826,4.860 C6.843,4.860 6.859,4.860 6.875,4.860 C6.875,4.875 6.875,4.892 6.875,4.908 C6.892,4.908 6.908,4.908 6.924,4.908 C6.924,4.924 6.924,4.940 6.924,4.957 C6.941,4.957 6.957,4.957 6.973,4.957 C6.973,4.972 6.973,4.989 6.973,5.004 C6.989,5.004 7.006,5.004 7.022,5.004 C7.022,5.021 7.022,5.037 7.022,5.053 C7.038,5.053 7.055,5.053 7.071,5.053 C7.071,5.069 7.071,5.085 7.071,5.102 C7.087,5.102 7.104,5.102 7.120,5.102 C7.120,5.118 7.120,5.133 7.120,5.149 C7.136,5.149 7.153,5.149 7.169,5.149 C7.169,5.166 7.169,5.182 7.169,5.198 C7.185,5.198 7.202,5.198 7.218,5.198 C7.218,5.214 7.218,5.230 7.218,5.246 C7.234,5.246 7.251,5.246 7.267,5.246 C7.267,5.262 7.267,5.279 7.267,5.295 C7.283,5.295 7.299,5.295 7.316,5.295 C7.316,5.311 7.316,5.328 7.316,5.343 C7.332,5.343 7.348,5.343 7.365,5.343 C7.365,5.359 7.365,5.376 7.365,5.392 C7.381,5.392 7.397,5.392 7.414,5.392 C7.414,5.408 7.414,5.424 7.414,5.440 C7.430,5.440 7.446,5.440 7.463,5.440 C7.463,5.456 7.463,5.472 7.463,5.488 C7.479,5.488 7.495,5.488 7.511,5.488 C7.511,5.504 7.511,5.521 7.511,5.536 C7.528,5.536 7.544,5.536 7.560,5.536 C7.560,5.553 7.560,5.569 7.560,5.585 C7.577,5.585 7.593,5.585 7.609,5.585 C7.609,5.601 7.609,5.617 7.609,5.633 C7.626,5.633 7.642,5.633 7.658,5.633 C7.658,5.649 7.658,5.666 7.658,5.682 C7.675,5.682 7.691,5.682 7.707,5.682 C7.707,5.698 7.707,5.713 7.707,5.730 C7.724,5.730 7.740,5.730 7.756,5.730 C7.756,5.746 7.756,5.762 7.756,5.778 C7.772,5.778 7.789,5.778 7.805,5.778 C7.805,5.794 7.805,5.811 7.805,5.827 C7.821,5.827 7.838,5.827 7.854,5.827 C7.854,5.843 7.854,5.859 7.854,5.875 C7.870,5.875 7.887,5.875 7.903,5.875 C7.903,5.891 7.903,5.908 7.903,5.923 C7.919,5.923 7.936,5.923 7.952,5.923 C7.952,5.940 7.952,5.956 7.952,5.972 C7.968,5.972 7.985,5.972 8.001,5.972 C8.001,5.988 8.001,6.004 8.001,6.020 C8.017,6.020 8.034,6.020 8.050,6.020 C8.050,6.037 8.050,6.052 8.050,6.068 C8.066,6.068 8.082,6.068 8.099,6.068 C8.099,6.085 8.099,6.101 8.099,6.117 C8.115,6.117 8.131,6.117 8.148,6.117 C8.148,6.133 8.148,6.149 8.148,6.166 C8.164,6.166 8.180,6.166 8.197,6.166 C8.197,6.181 8.197,6.198 8.197,6.214 C8.213,6.214 8.229,6.214 8.246,6.214 C8.246,6.229 8.246,6.246 8.246,6.262 C8.262,6.262 8.278,6.262 8.294,6.262 C8.294,6.278 8.294,6.294 8.294,6.310 C8.311,6.310 8.327,6.310 8.343,6.310 C8.343,6.327 8.343,6.343 8.343,6.359 C8.360,6.359 8.376,6.359 8.392,6.359 C8.392,6.375 8.392,6.391 8.392,6.407 C8.409,6.407 8.425,6.407 8.441,6.407 C8.441,6.423 8.441,6.440 8.441,6.456 C8.458,6.456 8.474,6.456 8.490,6.456 C8.490,6.472 8.490,6.488 8.490,6.504 C8.507,6.504 8.523,6.504 8.539,6.504 C8.539,6.520 8.539,6.536 8.539,6.552 C8.556,6.552 8.572,6.552 8.588,6.552 C8.588,6.568 8.588,6.584 8.588,6.600 C8.604,6.600 8.621,6.600 8.637,6.600 C8.637,6.617 8.637,6.633 8.637,6.649 C8.653,6.649 8.670,6.649 8.686,6.649 C8.686,6.665 8.686,6.681 8.686,6.697 C8.702,6.697 8.719,6.697 8.735,6.697 C8.735,6.713 8.735,6.729 8.735,6.746 C8.751,6.746 8.768,6.746 8.784,6.746 C8.784,6.762 8.784,6.778 8.784,6.794 C8.800,6.794 8.816,6.794 8.833,6.794 C8.833,6.810 8.833,6.826 8.833,6.842 C8.849,6.842 8.865,6.842 8.882,6.842 C8.882,6.858 8.882,6.874 8.882,6.891 C8.898,6.891 8.914,6.891 8.931,6.891 C8.931,6.907 8.931,6.923 8.931,6.939 C8.947,6.939 8.963,6.939 8.980,6.939 C8.980,6.955 8.980,6.972 8.980,6.987 C8.996,6.987 9.012,6.987 9.028,6.987 C9.028,7.003 9.028,7.020 9.028,7.036 C9.045,7.036 9.061,7.036 9.077,7.036 C9.077,7.052 9.077,7.068 9.077,7.085 C9.094,7.085 9.110,7.085 9.126,7.085 C9.126,7.100 9.126,7.116 9.126,7.133 C9.143,7.133 9.159,7.133 9.175,7.133 C9.175,7.149 9.175,7.165 9.175,7.181 C9.192,7.181 9.208,7.181 9.224,7.181 C9.224,7.197 9.224,7.213 9.224,7.229 C9.241,7.229 9.257,7.229 9.273,7.229 C9.273,7.246 9.273,7.262 9.273,7.277 C9.290,7.277 9.306,7.277 9.322,7.277 C9.322,7.294 9.322,7.310 9.322,7.326 C9.338,7.326 9.355,7.326 9.371,7.326 C9.371,7.342 9.371,7.359 9.371,7.374 C9.387,7.374 9.404,7.374 9.420,7.374 C9.420,7.391 9.420,7.406 9.420,7.423 C9.436,7.423 9.453,7.423 9.469,7.423 C9.469,7.439 9.469,7.455 9.469,7.471 C9.485,7.471 9.502,7.471 9.518,7.471 C9.518,7.487 9.518,7.504 9.518,7.520 C9.534,7.520 9.550,7.520 9.567,7.520 C9.567,7.536 9.567,7.552 9.567,7.568 C9.583,7.568 9.599,7.568 9.616,7.568 C9.616,7.584 9.616,7.600 9.616,7.616 C9.632,7.616 9.648,7.616 9.665,7.616 C9.665,7.632 9.665,7.648 9.665,7.664 C9.681,7.664 9.697,7.664 9.714,7.664 C9.714,7.681 9.714,7.697 9.714,7.713 C9.730,7.713 9.746,7.713 9.763,7.713 C9.763,7.729 9.763,7.745 9.763,7.761 C9.779,7.761 9.795,7.761 9.811,7.761 C9.811,7.777 9.811,7.794 9.811,7.810 C9.828,7.810 9.844,7.810 9.860,7.810 C9.860,7.826 9.860,7.842 9.860,7.858 C9.877,7.858 9.893,7.858 9.909,7.858 C9.909,7.874 9.909,7.890 9.909,7.906 C9.926,7.906 9.942,7.906 9.958,7.906 C9.958,7.922 9.958,7.938 9.958,7.955 C9.975,7.955 9.991,7.955 10.007,7.955 C10.007,7.971 10.007,7.987 10.007,8.003 C10.024,8.003 10.040,8.003 10.056,8.003 C10.056,8.019 10.056,8.035 10.056,8.051 C10.073,8.051 10.089,8.051 10.105,8.051 C10.105,8.068 10.105,8.084 10.105,8.100 C10.121,8.100 10.138,8.100 10.154,8.100 C10.154,8.116 10.154,8.132 10.154,8.148 C10.170,8.148 10.187,8.148 10.203,8.148 C10.203,8.164 10.203,8.181 10.203,8.196 C10.219,8.196 10.236,8.196 10.252,8.196 C10.252,8.212 10.252,8.229 10.252,8.245 C10.268,8.245 10.285,8.245 10.301,8.245 C10.301,8.261 10.301,8.277 10.301,8.293 C10.317,8.293 10.333,8.293 10.350,8.293 C10.350,8.310 10.350,8.325 10.350,8.342 C10.366,8.342 10.382,8.342 10.399,8.342 C10.399,8.358 10.399,8.374 10.399,8.390 C10.415,8.390 10.431,8.390 10.448,8.390 C10.448,8.407 10.448,8.422 10.448,8.439 C10.464,8.439 10.480,8.439 10.497,8.439 C10.497,8.454 10.497,8.471 10.497,8.487 C10.513,8.487 10.529,8.487 10.546,8.487 C10.546,8.503 10.546,8.519 10.546,8.535 C10.562,8.535 10.578,8.535 10.594,8.535 C10.594,8.551 10.594,8.567 10.594,8.584 C10.611,8.584 10.627,8.584 10.643,8.584 C10.643,8.600 10.643,8.616 10.643,8.632 C10.660,8.632 10.676,8.632 10.692,8.632 C10.692,8.648 10.692,8.664 10.692,8.680 C10.709,8.680 10.725,8.680 10.741,8.680 C10.741,8.696 10.741,8.712 10.741,8.728 C10.758,8.728 10.774,8.728 10.790,8.728 C10.790,8.744 10.790,8.761 10.790,8.777 C10.807,8.777 10.823,8.777 10.839,8.777 C10.839,8.793 10.839,8.809 10.839,8.825 C10.855,8.825 10.872,8.825 10.888,8.825 C10.888,8.842 10.888,8.858 10.888,8.874 C10.904,8.874 10.921,8.874 10.937,8.874 C10.937,8.890 10.937,8.906 10.937,8.921 C10.953,8.921 10.970,8.921 10.986,8.921 C10.986,8.938 10.986,8.954 10.986,8.970 C11.002,8.970 11.019,8.970 11.035,8.970 C11.035,8.987 11.035,9.002 11.035,9.019 C11.051,9.019 11.067,9.019 11.084,9.019 C11.084,9.034 11.084,9.051 11.084,9.067 C11.100,9.067 11.116,9.067 11.133,9.067 C11.133,9.083 11.133,9.099 11.133,9.115 C11.149,9.115 11.165,9.115 11.182,9.115 C11.182,9.132 11.182,9.148 11.182,9.164 C11.198,9.164 11.214,9.164 11.231,9.164 C11.231,9.180 11.231,9.196 11.231,9.212 C11.247,9.212 11.263,9.212 11.280,9.212 C11.280,9.228 11.280,9.244 11.280,9.260 C11.296,9.260 11.312,9.260 11.329,9.260 C11.329,9.277 11.329,9.293 11.329,9.309 C11.345,9.309 11.361,9.309 11.377,9.309 C11.377,9.325 11.377,9.341 11.377,9.357 C11.394,9.357 11.410,9.357 11.426,9.357 C11.426,9.373 11.426,9.390 11.426,9.406 C11.443,9.406 11.459,9.406 11.475,9.406 C11.475,9.422 11.475,9.438 11.475,9.454 C11.492,9.454 11.508,9.454 11.524,9.454 C11.524,9.470 11.524,9.487 11.524,9.502 C11.541,9.502 11.557,9.502 11.573,9.502 C11.573,9.519 11.573,9.534 11.573,9.551 C11.589,9.551 11.606,9.551 11.622,9.551 C11.622,9.567 11.622,9.583 11.622,9.599 C11.638,9.599 11.655,9.599 11.671,9.599 C11.671,9.615 11.671,9.631 11.671,9.648 C11.687,9.648 11.704,9.648 11.720,9.648 C11.738,9.712 11.759,9.723 11.793,9.768 C11.802,9.768 11.810,9.768 11.818,9.768 C11.818,9.792 11.818,9.817 11.818,9.841 C11.834,9.849 11.850,9.857 11.867,9.866 C11.867,9.889 11.867,9.913 11.867,9.938 C11.883,9.946 11.899,9.953 11.916,9.962 C11.916,9.994 11.916,10.027 11.916,10.059 C11.924,10.059 11.932,10.059 11.940,10.059 C11.940,10.074 11.940,10.091 11.940,10.107 C11.948,10.107 11.956,10.107 11.965,10.107 C11.965,10.139 11.965,10.171 11.965,10.204 C11.973,10.204 11.981,10.204 11.989,10.204 C12.016,10.293 11.987,10.774 11.965,10.832 C11.956,10.832 11.948,10.832 11.940,10.832 C11.940,10.849 11.940,10.865 11.940,10.880 C11.932,10.880 11.924,10.880 11.916,10.880 C11.916,10.913 11.916,10.945 11.916,10.977 C11.899,10.986 11.883,10.994 11.867,11.001 C11.867,11.026 11.867,11.050 11.867,11.075 C11.850,11.082 11.834,11.090 11.818,11.098 C11.818,11.123 11.818,11.147 11.818,11.171 C11.802,11.179 11.785,11.187 11.769,11.195 C11.769,11.219 11.769,11.243 11.769,11.268 C11.761,11.268 11.753,11.268 11.745,11.268 C11.710,11.313 11.689,11.324 11.671,11.388 C11.655,11.388 11.638,11.388 11.622,11.388 C11.622,11.405 11.622,11.421 11.622,11.437 C11.606,11.437 11.589,11.437 11.573,11.437 C11.573,11.453 11.573,11.469 11.573,11.485 C11.557,11.485 11.541,11.485 11.524,11.485 C11.524,11.501 11.524,11.518 11.524,11.534 C11.508,11.534 11.492,11.534 11.475,11.534 C11.475,11.550 11.475,11.566 11.475,11.582 C11.459,11.582 11.443,11.582 11.426,11.582 C11.426,11.598 11.426,11.615 11.426,11.631 C11.410,11.631 11.394,11.631 11.377,11.631 C11.377,11.646 11.377,11.663 11.377,11.679 C11.361,11.679 11.345,11.679 11.329,11.679 C11.329,11.695 11.329,11.711 11.329,11.727 C11.312,11.727 11.296,11.727 11.280,11.727 C11.280,11.743 11.280,11.759 11.280,11.775 C11.263,11.775 11.247,11.775 11.231,11.775 C11.231,11.792 11.231,11.808 11.231,11.824 C11.214,11.824 11.198,11.824 11.182,11.824 C11.182,11.840 11.182,11.856 11.182,11.872 C11.165,11.872 11.149,11.872 11.133,11.872 C11.133,11.888 11.133,11.904 11.133,11.920 C11.116,11.920 11.100,11.920 11.084,11.920 C11.084,11.936 11.084,11.953 11.084,11.969 C11.067,11.969 11.051,11.969 11.035,11.969 C11.035,11.985 11.035,12.001 11.035,12.017 C11.019,12.017 11.002,12.017 10.986,12.017 C10.986,12.033 10.986,12.050 10.986,12.065 C10.970,12.065 10.953,12.065 10.937,12.065 C10.937,12.082 10.937,12.098 10.937,12.114 C10.921,12.114 10.904,12.114 10.888,12.114 C10.888,12.130 10.888,12.146 10.888,12.163 C10.872,12.163 10.855,12.163 10.839,12.163 C10.839,12.178 10.839,12.195 10.839,12.210 C10.823,12.210 10.807,12.210 10.790,12.210 C10.790,12.226 10.790,12.243 10.790,12.259 C10.774,12.259 10.758,12.259 10.741,12.259 C10.741,12.275 10.741,12.291 10.741,12.307 C10.725,12.307 10.709,12.307 10.692,12.307 C10.692,12.324 10.692,12.340 10.692,12.356 C10.676,12.356 10.660,12.356 10.643,12.356 C10.643,12.372 10.643,12.388 10.643,12.404 C10.627,12.404 10.611,12.404 10.594,12.404 C10.594,12.420 10.594,12.437 10.594,12.452 C10.578,12.452 10.562,12.452 10.546,12.452 C10.546,12.469 10.546,12.484 10.546,12.501 C10.529,12.501 10.513,12.501 10.497,12.501 C10.497,12.517 10.497,12.533 10.497,12.549 C10.480,12.549 10.464,12.549 10.448,12.549 C10.448,12.565 10.448,12.581 10.448,12.598 C10.431,12.598 10.415,12.598 10.399,12.598 C10.399,12.614 10.399,12.630 10.399,12.645 C10.382,12.645 10.366,12.645 10.350,12.645 C10.350,12.662 10.350,12.678 10.350,12.694 C10.333,12.694 10.317,12.694 10.301,12.694 C10.301,12.711 10.301,12.727 10.301,12.743 C10.285,12.743 10.268,12.743 10.252,12.743 C10.252,12.758 10.252,12.775 10.252,12.791 C10.236,12.791 10.219,12.791 10.203,12.791 C10.203,12.807 10.203,12.823 10.203,12.839 C10.187,12.839 10.170,12.839 10.154,12.839 C10.154,12.855 10.154,12.872 10.154,12.888 C10.138,12.888 10.121,12.888 10.105,12.888 C10.105,12.904 10.105,12.920 10.105,12.936 C10.089,12.936 10.073,12.936 10.056,12.936 C10.056,12.952 10.056,12.968 10.056,12.984 C10.040,12.984 10.024,12.984 10.007,12.984 C10.007,13.001 10.007,13.017 10.007,13.033 C9.991,13.033 9.975,13.033 9.958,13.033 C9.958,13.049 9.958,13.065 9.958,13.081 C9.942,13.081 9.926,13.081 9.909,13.081 C9.909,13.097 9.909,13.113 9.909,13.129 C9.893,13.129 9.877,13.129 9.860,13.129 C9.860,13.146 9.860,13.162 9.860,13.178 C9.844,13.178 9.828,13.178 9.811,13.178 C9.811,13.194 9.811,13.210 9.811,13.226 C9.795,13.226 9.779,13.226 9.763,13.226 C9.763,13.242 9.763,13.258 9.763,13.274 C9.746,13.274 9.730,13.274 9.714,13.274 C9.714,13.291 9.714,13.307 9.714,13.323 C9.697,13.323 9.681,13.323 9.665,13.323 C9.665,13.339 9.665,13.355 9.665,13.371 C9.648,13.371 9.632,13.371 9.616,13.371 C9.616,13.388 9.616,13.404 9.616,13.420 C9.599,13.420 9.583,13.420 9.567,13.420 C9.567,13.436 9.567,13.452 9.567,13.468 C9.550,13.468 9.534,13.468 9.518,13.468 C9.518,13.484 9.518,13.500 9.518,13.517 C9.502,13.517 9.485,13.517 9.469,13.517 C9.469,13.533 9.469,13.549 9.469,13.564 C9.453,13.564 9.436,13.564 9.420,13.564 C9.420,13.581 9.420,13.597 9.420,13.613 C9.404,13.613 9.387,13.613 9.371,13.613 C9.371,13.629 9.371,13.646 9.371,13.662 C9.355,13.662 9.338,13.662 9.322,13.662 C9.322,13.678 9.322,13.694 9.322,13.710 C9.306,13.710 9.290,13.710 9.273,13.710 C9.273,13.726 9.273,13.742 9.273,13.759 C9.257,13.759 9.241,13.759 9.224,13.759 C9.224,13.775 9.224,13.791 9.224,13.807 C9.208,13.807 9.192,13.807 9.175,13.807 C9.175,13.823 9.175,13.839 9.175,13.855 C9.159,13.855 9.143,13.855 9.126,13.855 C9.126,13.871 9.126,13.887 9.126,13.903 C9.110,13.903 9.094,13.903 9.077,13.903 C9.077,13.919 9.077,13.936 9.077,13.952 C9.061,13.952 9.045,13.952 9.028,13.952 C9.028,13.968 9.028,13.984 9.028,14.000 C9.012,14.000 8.996,14.000 8.980,14.000 C8.980,14.016 8.980,14.032 8.980,14.049 C8.963,14.049 8.947,14.049 8.931,14.049 C8.931,14.065 8.931,14.081 8.931,14.096 C8.914,14.096 8.898,14.096 8.882,14.096 C8.882,14.113 8.882,14.129 8.882,14.145 C8.865,14.145 8.849,14.145 8.833,14.145 C8.833,14.161 8.833,14.177 8.833,14.193 C8.816,14.193 8.800,14.193 8.784,14.193 C8.784,14.209 8.784,14.226 8.784,14.242 C8.768,14.242 8.751,14.242 8.735,14.242 C8.735,14.258 8.735,14.274 8.735,14.291 C8.719,14.291 8.702,14.291 8.686,14.291 C8.686,14.306 8.686,14.322 8.686,14.338 C8.670,14.338 8.653,14.338 8.637,14.338 C8.637,14.355 8.637,14.371 8.637,14.387 C8.621,14.387 8.604,14.387 8.588,14.387 C8.588,14.403 8.588,14.419 8.588,14.435 C8.572,14.435 8.556,14.435 8.539,14.435 C8.539,14.451 8.539,14.468 8.539,14.484 C8.523,14.484 8.507,14.484 8.490,14.484 C8.490,14.500 8.490,14.516 8.490,14.532 C8.474,14.532 8.458,14.532 8.441,14.532 C8.441,14.548 8.441,14.565 8.441,14.580 C8.425,14.580 8.409,14.580 8.392,14.580 C8.392,14.597 8.392,14.612 8.392,14.629 C8.376,14.629 8.360,14.629 8.343,14.629 C8.343,14.645 8.343,14.661 8.343,14.677 C8.327,14.677 8.311,14.677 8.294,14.677 C8.294,14.694 8.294,14.709 8.294,14.726 C8.278,14.726 8.262,14.726 8.246,14.726 C8.246,14.742 8.246,14.758 8.246,14.774 C8.229,14.774 8.213,14.774 8.197,14.774 C8.197,14.790 8.197,14.806 8.197,14.822 C8.180,14.822 8.164,14.822 8.148,14.822 C8.148,14.839 8.148,14.855 8.148,14.871 C8.131,14.871 8.115,14.871 8.099,14.871 C8.099,14.887 8.099,14.903 8.099,14.919 C8.082,14.919 8.066,14.919 8.050,14.919 C8.050,14.935 8.050,14.951 8.050,14.967 C8.034,14.967 8.017,14.967 8.001,14.967 C8.001,14.983 8.001,14.999 8.001,15.016 C7.985,15.016 7.968,15.016 7.952,15.016 C7.952,15.032 7.952,15.048 7.952,15.064 C7.936,15.064 7.919,15.064 7.903,15.064 C7.903,15.080 7.903,15.096 7.903,15.113 C7.887,15.113 7.870,15.113 7.854,15.113 C7.854,15.129 7.854,15.144 7.854,15.161 C7.838,15.161 7.821,15.161 7.805,15.161 C7.805,15.177 7.805,15.193 7.805,15.209 C7.789,15.209 7.772,15.209 7.756,15.209 C7.756,15.225 7.756,15.241 7.756,15.257 C7.740,15.257 7.724,15.257 7.707,15.257 C7.707,15.274 7.707,15.290 7.707,15.306 C7.691,15.306 7.675,15.306 7.658,15.306 C7.658,15.322 7.658,15.338 7.658,15.354 C7.642,15.354 7.626,15.354 7.609,15.354 C7.609,15.370 7.609,15.387 7.609,15.403 C7.593,15.403 7.577,15.403 7.560,15.403 C7.560,15.418 7.560,15.435 7.560,15.451 C7.544,15.451 7.528,15.451 7.511,15.451 C7.511,15.467 7.511,15.483 7.511,15.500 C7.495,15.500 7.479,15.500 7.463,15.500 C7.463,15.515 7.463,15.532 7.463,15.548 C7.446,15.548 7.430,15.548 7.414,15.548 C7.414,15.564 7.414,15.580 7.414,15.596 C7.397,15.596 7.381,15.596 7.365,15.596 C7.365,15.612 7.365,15.628 7.365,15.645 C7.348,15.645 7.332,15.645 7.316,15.645 C7.316,15.661 7.316,15.677 7.316,15.693 C7.299,15.693 7.283,15.693 7.267,15.693 C7.267,15.709 7.267,15.725 7.267,15.742 C7.251,15.742 7.234,15.742 7.218,15.742 C7.218,15.757 7.218,15.774 7.218,15.789 C7.202,15.789 7.185,15.789 7.169,15.789 C7.169,15.806 7.169,15.822 7.169,15.838 C7.153,15.838 7.136,15.838 7.120,15.838 C7.120,15.854 7.120,15.870 7.120,15.887 C7.104,15.887 7.087,15.887 7.071,15.887 C7.071,15.903 7.071,15.919 7.071,15.935 C7.055,15.935 7.038,15.935 7.022,15.935 C7.022,15.950 7.022,15.967 7.022,15.983 C7.006,15.983 6.989,15.983 6.973,15.983 C6.973,15.999 6.973,16.015 6.973,16.031 C6.957,16.031 6.941,16.031 6.924,16.031 C6.924,16.047 6.924,16.063 6.924,16.080 C6.908,16.080 6.892,16.080 6.875,16.080 C6.875,16.095 6.875,16.112 6.875,16.128 C6.859,16.128 6.843,16.128 6.826,16.128 C6.826,16.144 6.826,16.160 6.826,16.176 C6.810,16.176 6.794,16.176 6.777,16.176 C6.777,16.193 6.777,16.209 6.777,16.225 C6.761,16.225 6.745,16.225 6.729,16.225 C6.729,16.241 6.729,16.257 6.729,16.273 C6.712,16.273 6.696,16.273 6.680,16.273 C6.680,16.289 6.680,16.305 6.680,16.322 C6.663,16.322 6.647,16.322 6.631,16.322 C6.631,16.338 6.631,16.354 6.631,16.370 C6.614,16.370 6.598,16.370 6.582,16.370 C6.582,16.386 6.582,16.402 6.582,16.418 C6.565,16.418 6.549,16.418 6.533,16.418 C6.533,16.434 6.533,16.451 6.533,16.466 C6.517,16.466 6.500,16.466 6.484,16.466 C6.484,16.483 6.484,16.499 6.484,16.515 C6.468,16.515 6.451,16.515 6.435,16.515 C6.435,16.531 6.435,16.547 6.435,16.563 C6.419,16.563 6.402,16.563 6.386,16.563 C6.386,16.579 6.386,16.595 6.386,16.612 C6.370,16.612 6.353,16.612 6.337,16.612 C6.337,16.628 6.337,16.644 6.337,16.660 C6.321,16.660 6.304,16.660 6.288,16.660 C6.288,16.676 6.288,16.692 6.288,16.708 C6.272,16.708 6.255,16.708 6.239,16.708 C6.239,16.725 6.239,16.740 6.239,16.757 C6.223,16.757 6.206,16.757 6.190,16.757 C6.190,16.773 6.190,16.789 6.190,16.805 C6.174,16.805 6.158,16.805 6.141,16.805 C6.141,16.821 6.141,16.838 6.141,16.853 C6.125,16.853 6.109,16.853 6.092,16.853 C6.092,16.870 6.092,16.886 6.092,16.902 C6.076,16.902 6.060,16.902 6.043,16.902 C6.043,16.918 6.043,16.934 6.043,16.950 C6.027,16.950 6.011,16.950 5.995,16.950 C5.995,16.966 5.995,16.983 5.995,16.998 C5.978,16.998 5.962,16.998 5.946,16.998 C5.946,17.015 5.946,17.031 5.946,17.047 C5.929,17.047 5.913,17.047 5.897,17.047 C5.897,17.063 5.897,17.079 5.897,17.095 C5.880,17.095 5.864,17.095 5.848,17.095 C5.848,17.111 5.848,17.128 5.848,17.144 C5.831,17.144 5.815,17.144 5.799,17.144 C5.799,17.160 5.799,17.176 5.799,17.192 C5.782,17.192 5.766,17.192 5.750,17.192 C5.750,17.208 5.750,17.224 5.750,17.241 C5.734,17.241 5.717,17.241 5.701,17.241 C5.701,17.257 5.701,17.272 5.701,17.288 C5.685,17.288 5.668,17.288 5.652,17.288 C5.652,17.305 5.652,17.321 5.652,17.337 C5.636,17.337 5.619,17.337 5.603,17.337 C5.603,17.353 5.603,17.370 5.603,17.385 C5.587,17.385 5.570,17.385 5.554,17.385 C5.554,17.402 5.554,17.418 5.554,17.434 C5.538,17.434 5.521,17.434 5.505,17.434 C5.505,17.450 5.505,17.466 5.505,17.482 C5.489,17.482 5.472,17.482 5.456,17.482 C5.456,17.498 5.456,17.514 5.456,17.531 C5.440,17.531 5.424,17.531 5.407,17.531 C5.407,17.547 5.407,17.563 5.407,17.579 C5.391,17.579 5.375,17.579 5.358,17.579 C5.358,17.595 5.358,17.611 5.358,17.627 C5.342,17.627 5.326,17.627 5.309,17.627 C5.309,17.643 5.309,17.659 5.309,17.676 C5.293,17.676 5.277,17.676 5.260,17.676 C5.260,17.692 5.260,17.708 5.260,17.724 C5.244,17.724 5.228,17.724 5.212,17.724 C5.212,17.740 5.212,17.756 5.212,17.773 C5.195,17.773 5.179,17.773 5.163,17.773 C5.163,17.788 5.163,17.805 5.163,17.821 C5.146,17.821 5.130,17.821 5.114,17.821 C5.114,17.837 5.114,17.853 5.114,17.869 C5.097,17.869 5.081,17.869 5.065,17.869 C5.065,17.886 5.065,17.902 5.065,17.917 C5.048,17.917 5.032,17.917 5.016,17.917 C5.016,17.934 5.016,17.950 5.016,17.966 C4.999,17.966 4.983,17.966 4.967,17.966 C4.967,17.982 4.967,17.998 4.967,18.014 C4.951,18.014 4.934,18.014 4.918,18.014 C4.918,18.030 4.918,18.046 4.918,18.062 C4.902,18.062 4.885,18.062 4.869,18.062 C4.869,18.079 4.869,18.095 4.869,18.111 C4.853,18.111 4.836,18.111 4.820,18.111 C4.820,18.127 4.820,18.143 4.820,18.159 C4.804,18.159 4.787,18.159 4.771,18.159 C4.771,18.176 4.771,18.191 4.771,18.208 C4.755,18.208 4.738,18.208 4.722,18.208 C4.722,18.223 4.722,18.240 4.722,18.256 C4.706,18.256 4.690,18.256 4.673,18.256 C4.673,18.272 4.673,18.288 4.673,18.304 C4.657,18.304 4.641,18.304 4.624,18.304 C4.624,18.320 4.624,18.336 4.624,18.353 C4.608,18.353 4.592,18.353 4.575,18.353 C4.575,18.368 4.575,18.385 4.575,18.401 C4.559,18.401 4.543,18.401 4.526,18.401 C4.526,18.417 4.526,18.433 4.526,18.449 C4.510,18.449 4.494,18.449 4.478,18.449 C4.478,18.466 4.478,18.482 4.478,18.498 C4.461,18.498 4.445,18.498 4.429,18.498 C4.429,18.514 4.429,18.530 4.429,18.546 C4.412,18.546 4.396,18.546 4.380,18.546 C4.380,18.562 4.380,18.579 4.380,18.595 C4.363,18.595 4.347,18.595 4.331,18.595 C4.331,18.611 4.331,18.627 4.331,18.643 C4.314,18.643 4.298,18.643 4.282,18.643 C4.282,18.659 4.282,18.675 4.282,18.691 C4.265,18.691 4.249,18.691 4.233,18.691 C4.233,18.707 4.233,18.724 4.233,18.740 C4.216,18.740 4.200,18.740 4.184,18.740 C4.184,18.756 4.184,18.772 4.184,18.788 C4.167,18.788 4.151,18.788 4.135,18.788 C4.135,18.804 4.135,18.820 4.135,18.837 C4.119,18.837 4.102,18.837 4.086,18.837 C4.086,18.853 4.086,18.869 4.086,18.885 C4.070,18.885 4.053,18.885 4.037,18.885 C4.037,18.901 4.037,18.917 4.037,18.933 C4.021,18.933 4.004,18.933 3.988,18.933 C3.988,18.949 3.988,18.965 3.988,18.982 C3.972,18.982 3.955,18.982 3.939,18.982 C3.939,18.998 3.939,19.014 3.939,19.030 C3.923,19.030 3.907,19.030 3.890,19.030 C3.890,19.046 3.890,19.062 3.890,19.078 C3.874,19.078 3.858,19.078 3.841,19.078 C3.841,19.094 3.841,19.111 3.841,19.126 C3.825,19.126 3.809,19.126 3.792,19.126 C3.792,19.142 3.792,19.159 3.792,19.175 C3.776,19.175 3.760,19.175 3.743,19.175 C3.743,19.191 3.743,19.207 3.743,19.224 C3.727,19.224 3.711,19.224 3.695,19.224 C3.695,19.239 3.695,19.255 3.695,19.272 C3.678,19.272 3.662,19.272 3.646,19.272 C3.646,19.288 3.646,19.304 3.646,19.320 C3.629,19.320 3.613,19.320 3.597,19.320 C3.597,19.336 3.597,19.352 3.597,19.368 C3.580,19.368 3.564,19.368 3.548,19.368 C3.548,19.384 3.548,19.400 3.548,19.416 C3.531,19.416 3.515,19.416 3.499,19.416 C3.499,19.433 3.499,19.448 3.499,19.465 C3.482,19.465 3.466,19.465 3.450,19.465 C3.450,19.481 3.450,19.497 3.450,19.513 C3.433,19.513 3.417,19.513 3.401,19.513 C3.401,19.529 3.401,19.546 3.401,19.562 C3.385,19.562 3.368,19.562 3.352,19.562 C3.352,19.578 3.352,19.594 3.352,19.610 C3.336,19.610 3.319,19.610 3.303,19.610 C3.303,19.626 3.303,19.643 3.303,19.659 C3.287,19.659 3.270,19.659 3.254,19.659 C3.254,19.675 3.254,19.691 3.254,19.707 C3.238,19.707 3.221,19.707 3.205,19.707 C3.205,19.723 3.205,19.739 3.205,19.755 C3.189,19.755 3.173,19.755 3.156,19.755 C3.156,19.772 3.156,19.787 3.156,19.804 C3.140,19.804 3.124,19.804 3.107,19.804 C3.107,19.820 3.107,19.836 3.107,19.852 C3.091,19.852 3.075,19.852 3.058,19.852 C3.058,19.868 3.058,19.884 3.058,19.901 C3.042,19.901 3.026,19.901 3.009,19.901 C3.009,19.917 3.009,19.933 3.009,19.949 C2.993,19.949 2.977,19.949 2.960,19.949 C2.960,19.965 2.960,19.981 2.960,19.997 C2.944,19.997 2.928,19.997 2.912,19.997 C2.912,20.013 2.912,20.029 2.912,20.045 C2.895,20.045 2.879,20.045 2.863,20.045 C2.863,20.062 2.863,20.078 2.863,20.094 C2.846,20.094 2.830,20.094 2.814,20.094 C2.814,20.110 2.814,20.126 2.814,20.142 C2.797,20.142 2.781,20.142 2.765,20.142 C2.765,20.158 2.765,20.174 2.765,20.190 C2.748,20.190 2.732,20.190 2.716,20.190 C2.716,20.207 2.716,20.223 2.716,20.238 C2.699,20.238 2.683,20.238 2.667,20.238 C2.667,20.255 2.667,20.271 2.667,20.287 C2.651,20.287 2.634,20.287 2.618,20.287 C2.618,20.303 2.618,20.320 2.618,20.335 C2.602,20.335 2.585,20.335 2.569,20.335 C2.569,20.352 2.569,20.368 2.569,20.384 C2.553,20.384 2.536,20.384 2.520,20.384 C2.520,20.400 2.520,20.416 2.520,20.432 C2.504,20.432 2.487,20.432 2.471,20.432 C2.471,20.448 2.471,20.464 2.471,20.481 C2.455,20.481 2.439,20.481 2.422,20.481 C2.422,20.497 2.422,20.513 2.422,20.529 C2.406,20.529 2.390,20.529 2.373,20.529 C2.373,20.545 2.373,20.561 2.373,20.577 C2.357,20.577 2.341,20.577 2.324,20.577 C2.324,20.593 2.324,20.610 2.324,20.626 C2.308,20.626 2.292,20.626 2.275,20.626 C2.275,20.642 2.275,20.658 2.275,20.674 C2.210,20.692 2.199,20.713 2.153,20.747 C2.153,20.755 2.153,20.763 2.153,20.771 C2.129,20.771 2.104,20.771 2.080,20.771 C2.072,20.787 2.063,20.803 2.055,20.820 C2.031,20.820 2.006,20.820 1.982,20.820 C1.974,20.835 1.965,20.852 1.957,20.868 C1.933,20.868 1.908,20.868 1.884,20.868 C1.876,20.884 1.868,20.900 1.859,20.916 C1.827,20.916 1.794,20.916 1.761,20.916 C1.761,20.924 1.761,20.932 1.761,20.940 C1.745,20.940 1.729,20.940 1.713,20.940 C1.713,20.948 1.713,20.956 1.713,20.964 C1.654,20.987 1.166,21.015 1.076,20.989 C1.076,20.981 1.076,20.972 1.076,20.964 C1.044,20.964 1.011,20.964 0.979,20.964 C0.979,20.956 0.979,20.948 0.979,20.940 C0.962,20.940 0.946,20.940 0.930,20.940 C0.930,20.932 0.930,20.924 0.930,20.916 C0.897,20.916 0.864,20.916 0.832,20.916 C0.824,20.900 0.815,20.884 0.807,20.868 C0.783,20.868 0.758,20.868 0.734,20.868 C0.726,20.852 0.718,20.835 0.709,20.820 C0.685,20.820 0.660,20.820 0.636,20.820 C0.636,20.811 0.636,20.803 0.636,20.795 C0.591,20.761 0.579,20.740 0.514,20.722 C0.514,20.707 0.514,20.690 0.514,20.674 C0.497,20.674 0.481,20.674 0.465,20.674 C0.465,20.658 0.465,20.642 0.465,20.626 C0.448,20.626 0.432,20.626 0.416,20.626 C0.416,20.610 0.416,20.593 0.416,20.577 C0.400,20.577 0.383,20.577 0.367,20.577 C0.367,20.561 0.367,20.545 0.367,20.529 C0.351,20.529 0.334,20.529 0.318,20.529 C0.318,20.513 0.318,20.497 0.318,20.481 C0.302,20.481 0.285,20.481 0.269,20.481 C0.251,20.418 0.230,20.403 0.196,20.360 C0.187,20.360 0.179,20.360 0.171,20.360 C0.171,20.344 0.171,20.327 0.171,20.312 C0.163,20.312 0.155,20.312 0.147,20.312 C0.147,20.295 0.147,20.279 0.147,20.263 C0.138,20.263 0.130,20.263 0.122,20.263 C0.122,20.247 0.122,20.231 0.122,20.215 C0.114,20.215 0.106,20.215 0.098,20.215 C0.098,20.199 0.098,20.183 0.098,20.167 C0.090,20.167 0.081,20.167 0.073,20.167 C0.073,20.142 0.073,20.118 0.073,20.094 C0.057,20.085 0.041,20.078 0.024,20.070 C0.024,20.038 0.024,20.005 0.024,19.973 C0.016,19.973 0.008,19.973 -0.000,19.973 C-0.000,19.747 -0.000,19.521 -0.000,19.296 C0.008,19.296 0.016,19.296 0.024,19.296 C0.024,19.263 0.024,19.231 0.024,19.199 C0.033,19.199 0.041,19.199 0.049,19.199 C0.049,19.183 0.049,19.167 0.049,19.150 C0.057,19.150 0.065,19.150 0.073,19.150 C0.073,19.119 0.073,19.086 0.073,19.054 C0.090,19.046 0.106,19.037 0.122,19.030 C0.122,19.006 0.122,18.982 0.122,18.957 C0.147,18.941 0.171,18.925 0.196,18.909 C0.204,18.876 0.212,18.844 0.220,18.812 C0.228,18.812 0.236,18.812 0.245,18.812 C0.279,18.769 0.300,18.755 0.318,18.691 C0.334,18.691 0.351,18.691 0.367,18.691 C0.367,18.675 0.367,18.659 0.367,18.643 C0.383,18.643 0.400,18.643 0.416,18.643 C0.416,18.627 0.416,18.611 0.416,18.595 C0.432,18.595 0.448,18.595 0.465,18.595 C0.465,18.579 0.465,18.562 0.465,18.546 C0.481,18.546 0.497,18.546 0.514,18.546 C0.514,18.530 0.514,18.514 0.514,18.498 C0.530,18.498 0.546,18.498 0.563,18.498 C0.563,18.482 0.563,18.466 0.563,18.449 C0.579,18.449 0.595,18.449 0.612,18.449 C0.612,18.433 0.612,18.417 0.612,18.401 C0.628,18.401 0.644,18.401 0.660,18.401 C0.660,18.385 0.660,18.368 0.660,18.353 C0.677,18.353 0.693,18.353 0.709,18.353 C0.709,18.336 0.709,18.320 0.709,18.304 C0.726,18.304 0.742,18.304 0.758,18.304 C0.758,18.288 0.758,18.272 0.758,18.256 C0.775,18.256 0.791,18.256 0.807,18.256 C0.807,18.240 0.807,18.223 0.807,18.208 C0.824,18.208 0.840,18.208 0.856,18.208 C0.856,18.191 0.856,18.176 0.856,18.159 C0.873,18.159 0.889,18.159 0.905,18.159 C0.905,18.143 0.905,18.127 0.905,18.111 C0.921,18.111 0.938,18.111 0.954,18.111 C0.954,18.095 0.954,18.079 0.954,18.062 C0.970,18.062 0.987,18.062 1.003,18.062 C1.003,18.046 1.003,18.030 1.003,18.014 C1.019,18.014 1.036,18.014 1.052,18.014 C1.052,17.998 1.052,17.982 1.052,17.966 C1.068,17.966 1.085,17.966 1.101,17.966 C1.101,17.950 1.101,17.934 1.101,17.917 C1.117,17.917 1.134,17.917 1.150,17.917 C1.150,17.902 1.150,17.886 1.150,17.869 C1.166,17.869 1.182,17.869 1.199,17.869 C1.199,17.853 1.199,17.837 1.199,17.821 C1.215,17.821 1.231,17.821 1.248,17.821 C1.248,17.805 1.248,17.788 1.248,17.773 C1.264,17.773 1.280,17.773 1.297,17.773 C1.297,17.756 1.297,17.740 1.297,17.724 C1.313,17.724 1.329,17.724 1.346,17.724 C1.346,17.708 1.346,17.692 1.346,17.676 C1.362,17.676 1.378,17.676 1.394,17.676 C1.394,17.659 1.394,17.643 1.394,17.627 C1.411,17.627 1.427,17.627 1.443,17.627 C1.443,17.611 1.443,17.595 1.443,17.579 C1.460,17.579 1.476,17.579 1.492,17.579 C1.492,17.563 1.492,17.547 1.492,17.531 C1.509,17.531 1.525,17.531 1.541,17.531 C1.541,17.514 1.541,17.498 1.541,17.482 C1.558,17.482 1.574,17.482 1.590,17.482 C1.590,17.466 1.590,17.450 1.590,17.434 C1.607,17.434 1.623,17.434 1.639,17.434 C1.639,17.418 1.639,17.402 1.639,17.385 C1.656,17.385 1.672,17.385 1.688,17.385 C1.688,17.370 1.688,17.353 1.688,17.337 C1.704,17.337 1.721,17.337 1.737,17.337 C1.737,17.321 1.737,17.305 1.737,17.288 C1.753,17.288 1.770,17.288 1.786,17.288 C1.786,17.272 1.786,17.257 1.786,17.241 C1.802,17.241 1.819,17.241 1.835,17.241 C1.835,17.224 1.835,17.208 1.835,17.192 C1.851,17.192 1.868,17.192 1.884,17.192 C1.884,17.176 1.884,17.160 1.884,17.144 C1.900,17.144 1.917,17.144 1.933,17.144 C1.933,17.128 1.933,17.111 1.933,17.095 C1.949,17.095 1.965,17.095 1.982,17.095 C1.982,17.079 1.982,17.063 1.982,17.047 C1.998,17.047 2.014,17.047 2.031,17.047 C2.031,17.031 2.031,17.015 2.031,16.998 C2.047,16.998 2.063,16.998 2.080,16.998 C2.080,16.983 2.080,16.966 2.080,16.950 C2.096,16.950 2.112,16.950 2.129,16.950 C2.129,16.934 2.129,16.918 2.129,16.902 C2.145,16.902 2.161,16.902 2.177,16.902 C2.177,16.886 2.177,16.870 2.177,16.853 C2.194,16.853 2.210,16.853 2.226,16.853 C2.226,16.838 2.226,16.821 2.226,16.805 C2.243,16.805 2.259,16.805 2.275,16.805 C2.275,16.789 2.275,16.773 2.275,16.757 C2.292,16.757 2.308,16.757 2.324,16.757 C2.324,16.740 2.324,16.725 2.324,16.708 C2.341,16.708 2.357,16.708 2.373,16.708 C2.373,16.692 2.373,16.676 2.373,16.660 C2.390,16.660 2.406,16.660 2.422,16.660 C2.422,16.644 2.422,16.628 2.422,16.612 C2.439,16.612 2.455,16.612 2.471,16.612 C2.471,16.595 2.471,16.579 2.471,16.563 C2.487,16.563 2.504,16.563 2.520,16.563 C2.520,16.547 2.520,16.531 2.520,16.515 C2.536,16.515 2.553,16.515 2.569,16.515 C2.569,16.499 2.569,16.483 2.569,16.466 C2.585,16.466 2.602,16.466 2.618,16.466 C2.618,16.451 2.618,16.434 2.618,16.418 C2.634,16.418 2.651,16.418 2.667,16.418 C2.667,16.402 2.667,16.386 2.667,16.370 C2.683,16.370 2.699,16.370 2.716,16.370 C2.716,16.354 2.716,16.338 2.716,16.322 C2.732,16.322 2.748,16.322 2.765,16.322 C2.765,16.305 2.765,16.289 2.765,16.273 C2.781,16.273 2.797,16.273 2.814,16.273 C2.814,16.257 2.814,16.241 2.814,16.225 C2.830,16.225 2.846,16.225 2.863,16.225 C2.863,16.209 2.863,16.193 2.863,16.176 C2.879,16.176 2.895,16.176 2.912,16.176 C2.912,16.160 2.912,16.144 2.912,16.128 C2.928,16.128 2.944,16.128 2.960,16.128 C2.960,16.112 2.960,16.095 2.960,16.080 C2.977,16.080 2.993,16.080 3.009,16.080 C3.009,16.063 3.009,16.047 3.009,16.031 C3.026,16.031 3.042,16.031 3.058,16.031 C3.058,16.015 3.058,15.999 3.058,15.983 C3.075,15.983 3.091,15.983 3.107,15.983 C3.107,15.967 3.107,15.950 3.107,15.935 C3.124,15.935 3.140,15.935 3.156,15.935 C3.156,15.919 3.156,15.903 3.156,15.887 C3.173,15.887 3.189,15.887 3.205,15.887 C3.205,15.870 3.205,15.854 3.205,15.838 C3.221,15.838 3.238,15.838 3.254,15.838 C3.254,15.822 3.254,15.806 3.254,15.789 C3.270,15.789 3.287,15.789 3.303,15.789 C3.303,15.774 3.303,15.757 3.303,15.742 C3.319,15.742 3.336,15.742 3.352,15.742 C3.352,15.725 3.352,15.709 3.352,15.693 C3.368,15.693 3.385,15.693 3.401,15.693 C3.401,15.677 3.401,15.661 3.401,15.645 C3.417,15.645 3.433,15.645 3.450,15.645 C3.450,15.628 3.450,15.612 3.450,15.596 C3.466,15.596 3.482,15.596 3.499,15.596 C3.499,15.580 3.499,15.564 3.499,15.548 C3.515,15.548 3.531,15.548 3.548,15.548 C3.548,15.532 3.548,15.515 3.548,15.500 C3.564,15.500 3.580,15.500 3.597,15.500 C3.597,15.483 3.597,15.467 3.597,15.451 C3.613,15.451 3.629,15.451 3.646,15.451 C3.646,15.435 3.646,15.418 3.646,15.403 C3.662,15.403 3.678,15.403 3.695,15.403 C3.695,15.387 3.695,15.370 3.695,15.354 C3.711,15.354 3.727,15.354 3.743,15.354 C3.743,15.338 3.743,15.322 3.743,15.306 C3.760,15.306 3.776,15.306 3.792,15.306 C3.792,15.290 3.792,15.274 3.792,15.257 C3.809,15.257 3.825,15.257 3.841,15.257 C3.841,15.241 3.841,15.225 3.841,15.209 C3.858,15.209 3.874,15.209 3.890,15.209 C3.890,15.193 3.890,15.177 3.890,15.161 C3.907,15.161 3.923,15.161 3.939,15.161 C3.939,15.144 3.939,15.129 3.939,15.113 C3.955,15.113 3.972,15.113 3.988,15.113 C3.988,15.096 3.988,15.080 3.988,15.064 C4.004,15.064 4.021,15.064 4.037,15.064 C4.037,15.048 4.037,15.032 4.037,15.016 C4.053,15.016 4.070,15.016 4.086,15.016 C4.086,14.999 4.086,14.983 4.086,14.967 C4.102,14.967 4.119,14.967 4.135,14.967 C4.135,14.951 4.135,14.935 4.135,14.919 C4.151,14.919 4.167,14.919 4.184,14.919 C4.184,14.903 4.184,14.887 4.184,14.871 C4.200,14.871 4.216,14.871 4.233,14.871 C4.233,14.855 4.233,14.839 4.233,14.822 C4.249,14.822 4.265,14.822 4.282,14.822 C4.282,14.806 4.282,14.790 4.282,14.774 C4.298,14.774 4.314,14.774 4.331,14.774 C4.331,14.758 4.331,14.742 4.331,14.726 C4.347,14.726 4.363,14.726 4.380,14.726 C4.380,14.709 4.380,14.694 4.380,14.677 C4.396,14.677 4.412,14.677 4.429,14.677 C4.429,14.661 4.429,14.645 4.429,14.629 C4.445,14.629 4.461,14.629 4.478,14.629 C4.478,14.612 4.478,14.597 4.478,14.580 C4.494,14.580 4.510,14.580 4.526,14.580 C4.526,14.565 4.526,14.548 4.526,14.532 C4.543,14.532 4.559,14.532 4.575,14.532 C4.575,14.516 4.575,14.500 4.575,14.484 C4.592,14.484 4.608,14.484 4.624,14.484 C4.624,14.468 4.624,14.451 4.624,14.435 C4.641,14.435 4.657,14.435 4.673,14.435 C4.673,14.419 4.673,14.403 4.673,14.387 C4.690,14.387 4.706,14.387 4.722,14.387 C4.722,14.371 4.722,14.355 4.722,14.338 C4.738,14.338 4.755,14.338 4.771,14.338 C4.771,14.322 4.771,14.306 4.771,14.291 C4.787,14.291 4.804,14.291 4.820,14.291 C4.820,14.274 4.820,14.258 4.820,14.242 C4.836,14.242 4.853,14.242 4.869,14.242 C4.869,14.226 4.869,14.209 4.869,14.193 C4.885,14.193 4.902,14.193 4.918,14.193 C4.918,14.177 4.918,14.161 4.918,14.145 C4.934,14.145 4.951,14.145 4.967,14.145 C4.967,14.129 4.967,14.113 4.967,14.096 C4.983,14.096 4.999,14.096 5.016,14.096 C5.016,14.081 5.016,14.065 5.016,14.049 C5.032,14.049 5.048,14.049 5.065,14.049 C5.065,14.032 5.065,14.016 5.065,14.000 C5.081,14.000 5.097,14.000 5.114,14.000 C5.114,13.984 5.114,13.968 5.114,13.952 C5.130,13.952 5.146,13.952 5.163,13.952 C5.163,13.936 5.163,13.919 5.163,13.903 C5.179,13.903 5.195,13.903 5.212,13.903 C5.212,13.887 5.212,13.871 5.212,13.855 C5.228,13.855 5.244,13.855 5.260,13.855 C5.260,13.839 5.260,13.823 5.260,13.807 C5.277,13.807 5.293,13.807 5.309,13.807 C5.309,13.791 5.309,13.775 5.309,13.759 C5.326,13.759 5.342,13.759 5.358,13.759 C5.358,13.742 5.358,13.726 5.358,13.710 C5.375,13.710 5.391,13.710 5.407,13.710 C5.407,13.694 5.407,13.678 5.407,13.662 C5.424,13.662 5.440,13.662 5.456,13.662 C5.456,13.646 5.456,13.629 5.456,13.613 C5.472,13.613 5.489,13.613 5.505,13.613 C5.505,13.597 5.505,13.581 5.505,13.564 C5.521,13.564 5.538,13.564 5.554,13.564 C5.554,13.549 5.554,13.533 5.554,13.517 C5.570,13.517 5.587,13.517 5.603,13.517 C5.603,13.500 5.603,13.484 5.603,13.468 C5.619,13.468 5.636,13.468 5.652,13.468 C5.652,13.452 5.652,13.436 5.652,13.420 C5.668,13.420 5.685,13.420 5.701,13.420 C5.701,13.404 5.701,13.388 5.701,13.371 C5.717,13.371 5.734,13.371 5.750,13.371 C5.750,13.355 5.750,13.339 5.750,13.323 C5.766,13.323 5.782,13.323 5.799,13.323 C5.799,13.307 5.799,13.291 5.799,13.274 C5.815,13.274 5.831,13.274 5.848,13.274 C5.848,13.258 5.848,13.242 5.848,13.226 C5.864,13.226 5.880,13.226 5.897,13.226 C5.897,13.210 5.897,13.194 5.897,13.178 C5.913,13.178 5.929,13.178 5.946,13.178 C5.946,13.162 5.946,13.146 5.946,13.129 C5.962,13.129 5.978,13.129 5.995,13.129 C5.995,13.113 5.995,13.097 5.995,13.081 C6.011,13.081 6.027,13.081 6.043,13.081 C6.043,13.065 6.043,13.049 6.043,13.033 C6.060,13.033 6.076,13.033 6.092,13.033 C6.092,13.017 6.092,13.001 6.092,12.984 C6.109,12.984 6.125,12.984 6.141,12.984 C6.141,12.968 6.141,12.952 6.141,12.936 C6.158,12.936 6.174,12.936 6.190,12.936 C6.190,12.920 6.190,12.904 6.190,12.888 C6.206,12.888 6.223,12.888 6.239,12.888 C6.239,12.872 6.239,12.855 6.239,12.839 C6.255,12.839 6.272,12.839 6.288,12.839 C6.288,12.823 6.288,12.807 6.288,12.791 C6.304,12.791 6.321,12.791 6.337,12.791 C6.337,12.775 6.337,12.758 6.337,12.743 C6.353,12.743 6.370,12.743 6.386,12.743 C6.386,12.727 6.386,12.711 6.386,12.694 C6.402,12.694 6.419,12.694 6.435,12.694 C6.435,12.678 6.435,12.662 6.435,12.645 C6.451,12.645 6.468,12.645 6.484,12.645 C6.484,12.630 6.484,12.614 6.484,12.598 C6.500,12.598 6.517,12.598 6.533,12.598 C6.533,12.581 6.533,12.565 6.533,12.549 C6.549,12.549 6.565,12.549 6.582,12.549 C6.582,12.533 6.582,12.517 6.582,12.501 C6.598,12.501 6.614,12.501 6.631,12.501 C6.631,12.484 6.631,12.469 6.631,12.452 C6.647,12.452 6.663,12.452 6.680,12.452 C6.680,12.437 6.680,12.420 6.680,12.404 C6.696,12.404 6.712,12.404 6.729,12.404 C6.729,12.388 6.729,12.372 6.729,12.356 C6.745,12.356 6.761,12.356 6.777,12.356 C6.777,12.340 6.777,12.324 6.777,12.307 C6.794,12.307 6.810,12.307 6.826,12.307 C6.826,12.291 6.826,12.275 6.826,12.259 C6.843,12.259 6.859,12.259 6.875,12.259 C6.875,12.243 6.875,12.226 6.875,12.210 C6.892,12.210 6.908,12.210 6.924,12.210 C6.924,12.195 6.924,12.178 6.924,12.163 C6.941,12.163 6.957,12.163 6.973,12.163 C6.973,12.146 6.973,12.130 6.973,12.114 C6.989,12.114 7.006,12.114 7.022,12.114 C7.022,12.098 7.022,12.082 7.022,12.065 C7.038,12.065 7.055,12.065 7.071,12.065 C7.071,12.050 7.071,12.033 7.071,12.017 C7.087,12.017 7.104,12.017 7.120,12.017 C7.120,12.001 7.120,11.985 7.120,11.969 C7.136,11.969 7.153,11.969 7.169,11.969 C7.169,11.953 7.169,11.936 7.169,11.920 C7.185,11.920 7.202,11.920 7.218,11.920 C7.218,11.904 7.218,11.888 7.218,11.872 C7.234,11.872 7.251,11.872 7.267,11.872 C7.267,11.856 7.267,11.840 7.267,11.824 C7.283,11.824 7.299,11.824 7.316,11.824 C7.316,11.808 7.316,11.792 7.316,11.775 C7.332,11.775 7.348,11.775 7.365,11.775 C7.365,11.759 7.365,11.743 7.365,11.727 C7.381,11.727 7.397,11.727 7.414,11.727 C7.414,11.711 7.414,11.695 7.414,11.679 C7.430,11.679 7.446,11.679 7.463,11.679 C7.463,11.663 7.463,11.646 7.463,11.631 C7.479,11.631 7.495,11.631 7.511,11.631 C7.511,11.615 7.511,11.598 7.511,11.582 C7.528,11.582 7.544,11.582 7.560,11.582 C7.560,11.566 7.560,11.550 7.560,11.534 C7.577,11.534 7.593,11.534 7.609,11.534 C7.609,11.518 7.609,11.501 7.609,11.485 C7.626,11.485 7.642,11.485 7.658,11.485 C7.658,11.469 7.658,11.453 7.658,11.437 C7.675,11.437 7.691,11.437 7.707,11.437 C7.707,11.421 7.707,11.405 7.707,11.388 C7.724,11.388 7.740,11.388 7.756,11.388 C7.756,11.373 7.756,11.356 7.756,11.340 C7.772,11.340 7.789,11.340 7.805,11.340 C7.805,11.324 7.805,11.308 7.805,11.292 C7.821,11.292 7.838,11.292 7.854,11.292 C7.854,11.276 7.854,11.260 7.854,11.243 C7.870,11.243 7.887,11.243 7.903,11.243 C7.903,11.227 7.903,11.211 7.903,11.195 C7.919,11.195 7.936,11.195 7.952,11.195 C7.952,11.179 7.952,11.163 7.952,11.147 C7.968,11.147 7.985,11.147 8.001,11.147 C8.001,11.130 8.001,11.114 8.001,11.098 C8.017,11.098 8.034,11.098 8.050,11.098 C8.050,11.082 8.050,11.066 8.050,11.050 C8.066,11.050 8.082,11.050 8.099,11.050 C8.099,11.034 8.099,11.017 8.099,11.001 C8.115,11.001 8.131,11.001 8.148,11.001 C8.148,10.986 8.148,10.969 8.148,10.953 C8.164,10.953 8.180,10.953 8.197,10.953 C8.197,10.937 8.197,10.921 8.197,10.905 C8.213,10.905 8.229,10.905 8.246,10.905 C8.246,10.888 8.246,10.873 8.246,10.856 C8.262,10.856 8.278,10.856 8.294,10.856 C8.294,10.840 8.294,10.824 8.294,10.808 C8.311,10.808 8.327,10.808 8.343,10.808 C8.343,10.792 8.343,10.776 8.343,10.760 C8.360,10.760 8.376,10.760 8.392,10.760 C8.392,10.744 8.392,10.727 8.392,10.711 C8.409,10.711 8.425,10.711 8.441,10.711 C8.441,10.695 8.441,10.679 8.441,10.663 C8.458,10.663 8.474,10.663 8.490,10.663 C8.490,10.647 8.490,10.631 8.490,10.615 C8.507,10.615 8.523,10.615 8.539,10.615 C8.539,10.599 8.539,10.583 8.539,10.567 C8.556,10.567 8.572,10.567 8.588,10.567 C8.606,10.472 8.606,10.468 8.588,10.373 C8.572,10.373 8.556,10.373 8.539,10.373 C8.539,10.357 8.539,10.341 8.539,10.325 C8.523,10.325 8.507,10.325 8.490,10.325 C8.490,10.308 8.490,10.292 8.490,10.276 C8.474,10.276 8.458,10.276 8.441,10.276 C8.441,10.260 8.441,10.244 8.441,10.228 C8.425,10.228 8.409,10.228 8.392,10.228 C8.392,10.212 8.392,10.196 8.392,10.179 C8.376,10.179 8.360,10.179 8.343,10.179 C8.343,10.163 8.343,10.147 8.343,10.131 C8.327,10.131 8.311,10.131 8.294,10.131 C8.294,10.115 8.294,10.099 8.294,10.082 C8.278,10.082 8.262,10.082 8.246,10.082 C8.246,10.066 8.246,10.050 8.246,10.035 C8.229,10.035 8.213,10.035 8.197,10.035 C8.197,10.018 8.197,10.002 8.197,9.986 C8.180,9.986 8.164,9.986 8.148,9.986 C8.148,9.969 8.148,9.953 8.148,9.938 C8.131,9.938 8.115,9.938 8.099,9.938 C8.099,9.922 8.099,9.905 8.099,9.889 C8.082,9.889 8.066,9.889 8.050,9.889 C8.050,9.873 8.050,9.857 8.050,9.841 C8.034,9.841 8.017,9.841 8.001,9.841 C8.001,9.825 8.001,9.809 8.001,9.792 C7.985,9.792 7.968,9.792 7.952,9.792 C7.952,9.776 7.952,9.760 7.952,9.744 C7.936,9.744 7.919,9.744 7.903,9.744 C7.903,9.728 7.903,9.712 7.903,9.696 C7.887,9.696 7.870,9.696 7.854,9.696 C7.854,9.679 7.854,9.664 7.854,9.648 C7.838,9.648 7.821,9.648 7.805,9.648 C7.805,9.631 7.805,9.615 7.805,9.599 C7.789,9.599 7.772,9.599 7.756,9.599 C7.756,9.583 7.756,9.567 7.756,9.551 C7.740,9.551 7.724,9.551 7.707,9.551 C7.707,9.534 7.707,9.519 7.707,9.502 C7.691,9.502 7.675,9.502 7.658,9.502 C7.658,9.487 7.658,9.470 7.658,9.454 C7.642,9.454 7.626,9.454 7.609,9.454 C7.609,9.438 7.609,9.422 7.609,9.406 C7.593,9.406 7.577,9.406 7.560,9.406 C7.560,9.390 7.560,9.373 7.560,9.357 C7.544,9.357 7.528,9.357 7.511,9.357 C7.511,9.341 7.511,9.325 7.511,9.309 C7.495,9.309 7.479,9.309 7.463,9.309 C7.463,9.293 7.463,9.277 7.463,9.260 C7.446,9.260 7.430,9.260 7.414,9.260 C7.414,9.244 7.414,9.228 7.414,9.212 C7.397,9.212 7.381,9.212 7.365,9.212 C7.365,9.196 7.365,9.180 7.365,9.164 C7.348,9.164 7.332,9.164 7.316,9.164 C7.316,9.148 7.316,9.132 7.316,9.115 C7.299,9.115 7.283,9.115 7.267,9.115 C7.267,9.099 7.267,9.083 7.267,9.067 C7.251,9.067 7.234,9.067 7.218,9.067 C7.218,9.051 7.218,9.034 7.218,9.019 C7.202,9.019 7.185,9.019 7.169,9.019 C7.169,9.002 7.169,8.987 7.169,8.970 C7.153,8.970 7.136,8.970 7.120,8.970 C7.120,8.954 7.120,8.938 7.120,8.921 C7.104,8.921 7.087,8.921 7.071,8.921 C7.071,8.906 7.071,8.890 7.071,8.874 C7.055,8.874 7.038,8.874 7.022,8.874 C7.022,8.858 7.022,8.842 7.022,8.825 C7.006,8.825 6.989,8.825 6.973,8.825 C6.973,8.809 6.973,8.793 6.973,8.777 C6.957,8.777 6.941,8.777 6.924,8.777 C6.924,8.761 6.924,8.744 6.924,8.728 C6.908,8.728 6.892,8.728 6.875,8.728 C6.875,8.712 6.875,8.696 6.875,8.680 C6.859,8.680 6.843,8.680 6.826,8.680 C6.826,8.664 6.826,8.648 6.826,8.632 C6.810,8.632 6.794,8.632 6.777,8.632 C6.777,8.616 6.777,8.600 6.777,8.584 C6.761,8.584 6.745,8.584 6.729,8.584 C6.729,8.567 6.729,8.551 6.729,8.535 C6.712,8.535 6.696,8.535 6.680,8.535 C6.680,8.519 6.680,8.503 6.680,8.487 C6.663,8.487 6.647,8.487 6.631,8.487 C6.631,8.471 6.631,8.454 6.631,8.439 C6.614,8.439 6.598,8.439 6.582,8.439 C6.582,8.422 6.582,8.407 6.582,8.390 C6.565,8.390 6.549,8.390 6.533,8.390 C6.533,8.374 6.533,8.358 6.533,8.342 C6.517,8.342 6.500,8.342 6.484,8.342 C6.484,8.325 6.484,8.310 6.484,8.293 C6.468,8.293 6.451,8.293 6.435,8.293 C6.435,8.277 6.435,8.261 6.435,8.245 C6.419,8.245 6.402,8.245 6.386,8.245 C6.386,8.229 6.386,8.212 6.386,8.196 C6.370,8.196 6.353,8.196 6.337,8.196 C6.337,8.181 6.337,8.164 6.337,8.148 C6.321,8.148 6.304,8.148 6.288,8.148 C6.288,8.132 6.288,8.116 6.288,8.100 C6.272,8.100 6.255,8.100 6.239,8.100 C6.239,8.084 6.239,8.068 6.239,8.051 C6.223,8.051 6.206,8.051 6.190,8.051 C6.190,8.035 6.190,8.019 6.190,8.003 C6.174,8.003 6.158,8.003 6.141,8.003 C6.141,7.987 6.141,7.971 6.141,7.955 C6.125,7.955 6.109,7.955 6.092,7.955 C6.092,7.938 6.092,7.922 6.092,7.906 C6.076,7.906 6.060,7.906 6.043,7.906 C6.043,7.890 6.043,7.874 6.043,7.858 C6.027,7.858 6.011,7.858 5.995,7.858 C5.995,7.842 5.995,7.826 5.995,7.810 C5.978,7.810 5.962,7.810 5.946,7.810 C5.946,7.794 5.946,7.777 5.946,7.761 C5.929,7.761 5.913,7.761 5.897,7.761 C5.897,7.745 5.897,7.729 5.897,7.713 C5.880,7.713 5.864,7.713 5.848,7.713 C5.848,7.697 5.848,7.681 5.848,7.664 C5.831,7.664 5.815,7.664 5.799,7.664 C5.799,7.648 5.799,7.632 5.799,7.616 C5.782,7.616 5.766,7.616 5.750,7.616 C5.750,7.600 5.750,7.584 5.750,7.568 C5.734,7.568 5.717,7.568 5.701,7.568 C5.701,7.552 5.701,7.536 5.701,7.520 C5.685,7.520 5.668,7.520 5.652,7.520 C5.652,7.504 5.652,7.487 5.652,7.471 C5.636,7.471 5.619,7.471 5.603,7.471 C5.603,7.455 5.603,7.439 5.603,7.423 C5.587,7.423 5.570,7.423 5.554,7.423 C5.554,7.406 5.554,7.391 5.554,7.374 C5.538,7.374 5.521,7.374 5.505,7.374 C5.505,7.359 5.505,7.342 5.505,7.326 C5.489,7.326 5.472,7.326 5.456,7.326 C5.456,7.310 5.456,7.294 5.456,7.277 C5.440,7.277 5.424,7.277 5.407,7.277 C5.407,7.262 5.407,7.246 5.407,7.229 C5.391,7.229 5.375,7.229 5.358,7.229 C5.358,7.213 5.358,7.197 5.358,7.181 C5.342,7.181 5.326,7.181 5.309,7.181 C5.309,7.165 5.309,7.149 5.309,7.133 C5.293,7.133 5.277,7.133 5.260,7.133 C5.260,7.116 5.260,7.100 5.260,7.085 C5.244,7.085 5.228,7.085 5.212,7.085 C5.212,7.068 5.212,7.052 5.212,7.036 C5.195,7.036 5.179,7.036 5.163,7.036 C5.163,7.020 5.163,7.003 5.163,6.987 C5.146,6.987 5.130,6.987 5.114,6.987 C5.114,6.972 5.114,6.955 5.114,6.939 C5.097,6.939 5.081,6.939 5.065,6.939 C5.065,6.923 5.065,6.907 5.065,6.891 C5.048,6.891 5.032,6.891 5.016,6.891 C5.016,6.874 5.016,6.858 5.016,6.842 C4.999,6.842 4.983,6.842 4.967,6.842 C4.967,6.826 4.967,6.810 4.967,6.794 C4.951,6.794 4.934,6.794 4.918,6.794 C4.918,6.778 4.918,6.762 4.918,6.746 C4.902,6.746 4.885,6.746 4.869,6.746 C4.869,6.729 4.869,6.713 4.869,6.697 C4.853,6.697 4.836,6.697 4.820,6.697 C4.820,6.681 4.820,6.665 4.820,6.649 C4.804,6.649 4.787,6.649 4.771,6.649 C4.771,6.633 4.771,6.617 4.771,6.600 C4.755,6.600 4.738,6.600 4.722,6.600 C4.722,6.584 4.722,6.568 4.722,6.552 C4.706,6.552 4.690,6.552 4.673,6.552 C4.673,6.536 4.673,6.520 4.673,6.504 C4.657,6.504 4.641,6.504 4.624,6.504 C4.624,6.488 4.624,6.472 4.624,6.456 C4.608,6.456 4.592,6.456 4.575,6.456 C4.575,6.440 4.575,6.423 4.575,6.407 C4.559,6.407 4.543,6.407 4.526,6.407 C4.526,6.391 4.526,6.375 4.526,6.359 C4.510,6.359 4.494,6.359 4.478,6.359 C4.478,6.343 4.478,6.327 4.478,6.310 C4.461,6.310 4.445,6.310 4.429,6.310 C4.429,6.294 4.429,6.278 4.429,6.262 C4.412,6.262 4.396,6.262 4.380,6.262 C4.380,6.246 4.380,6.229 4.380,6.214 C4.363,6.214 4.347,6.214 4.331,6.214 C4.331,6.198 4.331,6.181 4.331,6.166 C4.314,6.166 4.298,6.166 4.282,6.166 C4.282,6.149 4.282,6.133 4.282,6.117 C4.265,6.117 4.249,6.117 4.233,6.117 C4.233,6.101 4.233,6.085 4.233,6.068 C4.216,6.068 4.200,6.068 4.184,6.068 C4.184,6.052 4.184,6.037 4.184,6.020 C4.167,6.020 4.151,6.020 4.135,6.020 C4.135,6.004 4.135,5.988 4.135,5.972 C4.119,5.972 4.102,5.972 4.086,5.972 C4.086,5.956 4.086,5.940 4.086,5.923 C4.070,5.923 4.053,5.923 4.037,5.923 C4.037,5.908 4.037,5.891 4.037,5.875 C4.021,5.875 4.004,5.875 3.988,5.875 C3.988,5.859 3.988,5.843 3.988,5.827 C3.972,5.827 3.955,5.827 3.939,5.827 C3.939,5.811 3.939,5.794 3.939,5.778 C3.923,5.778 3.907,5.778 3.890,5.778 C3.890,5.762 3.890,5.746 3.890,5.730 C3.874,5.730 3.858,5.730 3.841,5.730 C3.841,5.713 3.841,5.698 3.841,5.682 C3.825,5.682 3.809,5.682 3.792,5.682 C3.792,5.666 3.792,5.649 3.792,5.633 C3.776,5.633 3.760,5.633 3.743,5.633 C3.743,5.617 3.743,5.601 3.743,5.585 C3.727,5.585 3.711,5.585 3.695,5.585 C3.695,5.569 3.695,5.553 3.695,5.536 C3.678,5.536 3.662,5.536 3.646,5.536 C3.646,5.521 3.646,5.504 3.646,5.488 C3.629,5.488 3.613,5.488 3.597,5.488 C3.597,5.472 3.597,5.456 3.597,5.440 C3.580,5.440 3.564,5.440 3.548,5.440 C3.548,5.424 3.548,5.408 3.548,5.392 C3.531,5.392 3.515,5.392 3.499,5.392 C3.499,5.376 3.499,5.359 3.499,5.343 C3.482,5.343 3.466,5.343 3.450,5.343 C3.450,5.328 3.450,5.311 3.450,5.295 C3.433,5.295 3.417,5.295 3.401,5.295 C3.401,5.279 3.401,5.262 3.401,5.246 C3.385,5.246 3.368,5.246 3.352,5.246 C3.352,5.230 3.352,5.214 3.352,5.198 C3.336,5.198 3.319,5.198 3.303,5.198 C3.303,5.182 3.303,5.166 3.303,5.149 C3.287,5.149 3.270,5.149 3.254,5.149 C3.254,5.133 3.254,5.118 3.254,5.102 C3.238,5.102 3.221,5.102 3.205,5.102 C3.205,5.085 3.205,5.069 3.205,5.053 C3.189,5.053 3.173,5.053 3.156,5.053 C3.156,5.037 3.156,5.021 3.156,5.004 C3.140,5.004 3.124,5.004 3.107,5.004 C3.107,4.989 3.107,4.972 3.107,4.957 C3.091,4.957 3.075,4.957 3.058,4.957 C3.058,4.940 3.058,4.924 3.058,4.908 C3.042,4.908 3.026,4.908 3.009,4.908 C3.009,4.892 3.009,4.875 3.009,4.860 C2.993,4.860 2.977,4.860 2.960,4.860 C2.960,4.843 2.960,4.828 2.960,4.811 C2.944,4.811 2.928,4.811 2.912,4.811 C2.912,4.795 2.912,4.779 2.912,4.763 C2.895,4.763 2.879,4.763 2.863,4.763 C2.863,4.747 2.863,4.730 2.863,4.714 C2.846,4.714 2.830,4.714 2.814,4.714 C2.814,4.698 2.814,4.682 2.814,4.666 C2.797,4.666 2.781,4.666 2.765,4.666 C2.765,4.650 2.765,4.634 2.765,4.618 C2.748,4.618 2.732,4.618 2.716,4.618 C2.716,4.601 2.716,4.585 2.716,4.569 C2.699,4.569 2.683,4.569 2.667,4.569 C2.667,4.553 2.667,4.537 2.667,4.521 C2.651,4.521 2.634,4.521 2.618,4.521 C2.618,4.505 2.618,4.489 2.618,4.473 C2.602,4.473 2.585,4.473 2.569,4.473 C2.569,4.457 2.569,4.440 2.569,4.424 C2.553,4.424 2.536,4.424 2.520,4.424 C2.520,4.408 2.520,4.393 2.520,4.376 C2.504,4.376 2.487,4.376 2.471,4.376 C2.471,4.360 2.471,4.344 2.471,4.328 C2.455,4.328 2.439,4.328 2.422,4.328 C2.422,4.312 2.422,4.295 2.422,4.279 C2.406,4.279 2.390,4.279 2.373,4.279 C2.373,4.263 2.373,4.247 2.373,4.231 C2.357,4.231 2.341,4.231 2.324,4.231 C2.324,4.215 2.324,4.199 2.324,4.183 C2.308,4.183 2.292,4.183 2.275,4.183 C2.275,4.166 2.275,4.150 2.275,4.134 C2.259,4.134 2.243,4.134 2.226,4.134 C2.226,4.119 2.226,4.101 2.226,4.086 C2.210,4.086 2.194,4.086 2.177,4.086 C2.177,4.070 2.177,4.054 2.177,4.037 C2.161,4.037 2.145,4.037 2.129,4.037 C2.129,4.021 2.129,4.005 2.129,3.989 C2.112,3.989 2.096,3.989 2.080,3.989 C2.080,3.973 2.080,3.957 2.080,3.941 C2.063,3.941 2.047,3.941 2.031,3.941 C2.031,3.924 2.031,3.908 2.031,3.892 C2.014,3.892 1.998,3.892 1.982,3.892 C1.982,3.876 1.982,3.860 1.982,3.844 C1.965,3.844 1.949,3.844 1.933,3.844 C1.933,3.827 1.933,3.812 1.933,3.795 C1.917,3.795 1.900,3.795 1.884,3.795 C1.884,3.780 1.884,3.763 1.884,3.747 C1.868,3.747 1.851,3.747 1.835,3.747 C1.835,3.731 1.835,3.715 1.835,3.699 C1.819,3.699 1.802,3.699 1.786,3.699 C1.786,3.682 1.786,3.666 1.786,3.650 C1.770,3.650 1.753,3.650 1.737,3.650 C1.737,3.634 1.737,3.618 1.737,3.602 C1.721,3.602 1.704,3.602 1.688,3.602 C1.688,3.586 1.688,3.570 1.688,3.554 C1.672,3.554 1.656,3.554 1.639,3.554 C1.639,3.537 1.639,3.521 1.639,3.505 C1.623,3.505 1.607,3.505 1.590,3.505 C1.590,3.489 1.590,3.473 1.590,3.457 C1.574,3.457 1.558,3.457 1.541,3.457 C1.541,3.441 1.541,3.425 1.541,3.409 C1.525,3.409 1.509,3.409 1.492,3.409 C1.492,3.392 1.492,3.376 1.492,3.361 C1.476,3.361 1.460,3.361 1.443,3.361 C1.443,3.344 1.443,3.328 1.443,3.312 C1.427,3.312 1.411,3.312 1.394,3.312 C1.394,3.296 1.394,3.279 1.394,3.264 C1.378,3.264 1.362,3.264 1.346,3.264 C1.346,3.248 1.346,3.232 1.346,3.215 C1.329,3.215 1.313,3.215 1.297,3.215 C1.297,3.199 1.297,3.183 1.297,3.167 C1.280,3.167 1.264,3.167 1.248,3.167 C1.248,3.151 1.248,3.135 1.248,3.118 C1.231,3.118 1.215,3.118 1.199,3.118 C1.199,3.102 1.199,3.086 1.199,3.070 C1.182,3.070 1.166,3.070 1.150,3.070 C1.150,3.054 1.150,3.038 1.150,3.022 C1.134,3.022 1.117,3.022 1.101,3.022 C1.101,3.006 1.101,2.990 1.101,2.974 C1.085,2.974 1.068,2.974 1.052,2.974 C1.052,2.957 1.052,2.941 1.052,2.925 C1.036,2.925 1.019,2.925 1.003,2.925 C1.003,2.909 1.003,2.893 1.003,2.877 C0.987,2.877 0.970,2.877 0.954,2.877 C0.954,2.860 0.954,2.844 0.954,2.828 C0.938,2.828 0.921,2.828 0.905,2.828 C0.905,2.812 0.905,2.796 0.905,2.780 C0.889,2.780 0.873,2.780 0.856,2.780 C0.856,2.764 0.856,2.747 0.856,2.732 C0.840,2.732 0.824,2.732 0.807,2.732 C0.807,2.716 0.807,2.699 0.807,2.683 C0.791,2.683 0.775,2.683 0.758,2.683 C0.758,2.667 0.758,2.651 0.758,2.635 C0.742,2.635 0.726,2.635 0.709,2.635 C0.709,2.619 0.709,2.603 0.709,2.586 C0.693,2.586 0.677,2.586 0.660,2.586 C0.660,2.570 0.660,2.554 0.660,2.538 C0.644,2.538 0.628,2.538 0.612,2.538 C0.612,2.522 0.612,2.506 0.612,2.490 C0.595,2.490 0.579,2.490 0.563,2.490 C0.563,2.473 0.563,2.457 0.563,2.441 C0.546,2.441 0.530,2.441 0.514,2.441 C0.514,2.426 0.514,2.409 0.514,2.393 C0.497,2.393 0.481,2.393 0.465,2.393 C0.465,2.377 0.465,2.361 0.465,2.345 C0.448,2.345 0.432,2.345 0.416,2.345 C0.416,2.329 0.416,2.312 0.416,2.296 C0.400,2.296 0.383,2.296 0.367,2.296 C0.367,2.280 0.367,2.265 0.367,2.248 C0.351,2.248 0.334,2.248 0.318,2.248 C0.318,2.232 0.318,2.216 0.318,2.199 C0.302,2.199 0.285,2.199 0.269,2.199 C0.251,2.136 0.230,2.124 0.196,2.079 C0.187,2.079 0.179,2.079 0.171,2.079 C0.171,2.054 0.171,2.030 0.171,2.006 C0.155,1.998 0.138,1.990 0.122,1.982 C0.122,1.958 0.122,1.933 0.122,1.910 C0.106,1.902 0.090,1.893 0.073,1.885 C0.073,1.853 0.073,1.821 0.073,1.789 C0.065,1.789 0.057,1.789 0.049,1.789 C0.049,1.772 0.049,1.756 0.049,1.741 C0.041,1.741 0.033,1.741 0.024,1.741 C0.024,1.708 0.024,1.676 0.024,1.643 C0.016,1.643 0.008,1.643 -0.000,1.643 C-0.000,1.434 -0.000,1.224 -0.000,1.014 C0.008,1.014 0.016,1.014 0.024,1.014 C0.024,0.982 0.024,0.950 0.024,0.918 C0.033,0.918 0.041,0.918 0.049,0.918 C0.049,0.901 0.049,0.885 0.049,0.870 C0.057,0.870 0.065,0.870 0.073,0.870 C0.073,0.837 0.073,0.805 0.073,0.773 C0.090,0.765 0.106,0.757 0.122,0.749 C0.122,0.725 0.122,0.700 0.122,0.676 C0.138,0.668 0.155,0.660 0.171,0.652 C0.171,0.628 0.171,0.603 0.171,0.580 C0.179,0.580 0.187,0.580 0.196,0.580 C0.230,0.534 0.251,0.523 0.269,0.459 C0.285,0.459 0.302,0.459 0.318,0.459 C0.318,0.442 0.318,0.426 0.318,0.410 C0.334,0.410 0.351,0.410 0.367,0.410 C0.367,0.394 0.367,0.378 0.367,0.362 C0.383,0.362 0.400,0.362 0.416,0.362 C0.416,0.345 0.416,0.330 0.416,0.313 C0.432,0.313 0.448,0.313 0.465,0.313 C0.465,0.298 0.465,0.281 0.465,0.265 C0.530,0.247 0.542,0.226 0.587,0.193 C0.587,0.185 0.587,0.176 0.587,0.169 C0.612,0.169 0.636,0.169 0.660,0.169 C0.669,0.153 0.677,0.136 0.685,0.120 C0.709,0.120 0.734,0.120 0.758,0.120 C0.767,0.104 0.775,0.088 0.783,0.071 C0.815,0.071 0.848,0.071 0.881,0.071 C0.881,0.063 0.881,0.056 0.881,0.047 C0.897,0.047 0.913,0.047 0.930,0.047 C0.930,0.040 0.930,0.031 0.930,0.024 C0.962,0.024 0.995,0.024 1.027,0.024 C1.027,0.015 1.027,0.007 1.027,-0.001 C1.256,-0.001 1.484,-0.001 1.713,-0.001 C1.713,0.007 1.713,0.015 1.713,0.024 C1.745,0.024 1.778,0.024 1.810,0.024 C1.819,0.040 1.827,0.056 1.835,0.071 C1.859,0.071 1.884,0.071 1.908,0.071 C1.916,0.088 1.925,0.104 1.933,0.120 C1.957,0.120 1.982,0.120 2.006,0.120 C2.014,0.136 2.023,0.153 2.031,0.169 C2.055,0.169 2.080,0.169 2.104,0.169 C2.104,0.176 2.104,0.185 2.104,0.193 C2.150,0.226 2.161,0.247 2.226,0.265 Z"/>
</svg>