<svg 
 xmlns="http://www.w3.org/2000/svg"
 xmlns:xlink="http://www.w3.org/1999/xlink"
 width="12px" height="21px">
<path fill-rule="evenodd"  fill="rgb(86, 193, 178)"
 d="M9.773,0.265 C9.773,0.281 9.773,0.298 9.773,0.313 C9.757,0.313 9.741,0.313 9.724,0.313 C9.724,0.330 9.724,0.345 9.724,0.362 C9.708,0.362 9.692,0.362 9.675,0.362 C9.675,0.378 9.675,0.394 9.675,0.410 C9.659,0.410 9.643,0.410 9.626,0.410 C9.626,0.426 9.626,0.442 9.626,0.459 C9.610,0.459 9.594,0.459 9.577,0.459 C9.577,0.475 9.577,0.491 9.577,0.507 C9.561,0.507 9.545,0.507 9.528,0.507 C9.528,0.523 9.528,0.539 9.528,0.555 C9.512,0.555 9.496,0.555 9.480,0.555 C9.480,0.571 9.480,0.588 9.480,0.603 C9.463,0.603 9.447,0.603 9.431,0.603 C9.431,0.620 9.431,0.636 9.431,0.652 C9.414,0.652 9.398,0.652 9.382,0.652 C9.382,0.668 9.382,0.684 9.382,0.700 C9.365,0.700 9.349,0.700 9.333,0.700 C9.333,0.716 9.333,0.733 9.333,0.749 C9.316,0.749 9.300,0.749 9.284,0.749 C9.284,0.765 9.284,0.781 9.284,0.797 C9.268,0.797 9.251,0.797 9.235,0.797 C9.235,0.813 9.235,0.829 9.235,0.845 C9.219,0.845 9.202,0.845 9.186,0.845 C9.186,0.862 9.186,0.878 9.186,0.894 C9.170,0.894 9.153,0.894 9.137,0.894 C9.137,0.910 9.137,0.926 9.137,0.942 C9.121,0.942 9.104,0.942 9.088,0.942 C9.088,0.958 9.088,0.974 9.088,0.990 C9.072,0.990 9.055,0.990 9.039,0.990 C9.039,1.007 9.039,1.023 9.039,1.039 C9.023,1.039 9.007,1.039 8.990,1.039 C8.990,1.055 8.990,1.071 8.990,1.088 C8.974,1.088 8.958,1.088 8.941,1.088 C8.941,1.103 8.941,1.120 8.941,1.136 C8.925,1.136 8.909,1.136 8.892,1.136 C8.892,1.152 8.892,1.168 8.892,1.184 C8.876,1.184 8.860,1.184 8.843,1.184 C8.843,1.200 8.843,1.216 8.843,1.233 C8.827,1.233 8.811,1.233 8.794,1.233 C8.794,1.248 8.794,1.265 8.794,1.281 C8.778,1.281 8.762,1.281 8.746,1.281 C8.746,1.297 8.746,1.313 8.746,1.329 C8.729,1.329 8.713,1.329 8.697,1.329 C8.697,1.345 8.697,1.361 8.697,1.378 C8.680,1.378 8.664,1.378 8.648,1.378 C8.648,1.394 8.648,1.409 8.648,1.425 C8.631,1.425 8.615,1.425 8.599,1.425 C8.599,1.442 8.599,1.458 8.599,1.474 C8.582,1.474 8.566,1.474 8.550,1.474 C8.550,1.490 8.550,1.507 8.550,1.522 C8.534,1.522 8.517,1.522 8.501,1.522 C8.501,1.539 8.501,1.555 8.501,1.571 C8.485,1.571 8.468,1.571 8.452,1.571 C8.452,1.587 8.452,1.603 8.452,1.619 C8.436,1.619 8.419,1.619 8.403,1.619 C8.403,1.635 8.403,1.651 8.403,1.668 C8.387,1.668 8.370,1.668 8.354,1.668 C8.354,1.683 8.354,1.699 8.354,1.716 C8.338,1.716 8.321,1.716 8.305,1.716 C8.305,1.732 8.305,1.748 8.305,1.764 C8.289,1.764 8.272,1.764 8.256,1.764 C8.256,1.781 8.256,1.797 8.256,1.813 C8.240,1.813 8.224,1.813 8.207,1.813 C8.207,1.829 8.207,1.845 8.207,1.861 C8.191,1.861 8.175,1.861 8.158,1.861 C8.158,1.877 8.158,1.894 8.158,1.910 C8.142,1.910 8.126,1.910 8.109,1.910 C8.109,1.926 8.109,1.942 8.109,1.958 C8.093,1.958 8.077,1.958 8.060,1.958 C8.060,1.974 8.060,1.990 8.060,2.006 C8.044,2.006 8.028,2.006 8.011,2.006 C8.011,2.022 8.011,2.038 8.011,2.054 C7.995,2.054 7.979,2.054 7.963,2.054 C7.963,2.071 7.963,2.087 7.963,2.103 C7.946,2.103 7.930,2.103 7.914,2.103 C7.914,2.119 7.914,2.135 7.914,2.152 C7.897,2.152 7.881,2.152 7.865,2.152 C7.865,2.167 7.865,2.184 7.865,2.199 C7.848,2.199 7.832,2.199 7.816,2.199 C7.816,2.216 7.816,2.232 7.816,2.248 C7.800,2.248 7.783,2.248 7.767,2.248 C7.767,2.265 7.767,2.280 7.767,2.296 C7.751,2.296 7.734,2.296 7.718,2.296 C7.718,2.312 7.718,2.329 7.718,2.345 C7.702,2.345 7.685,2.345 7.669,2.345 C7.669,2.361 7.669,2.377 7.669,2.393 C7.653,2.393 7.636,2.393 7.620,2.393 C7.620,2.409 7.620,2.426 7.620,2.441 C7.604,2.441 7.587,2.441 7.571,2.441 C7.571,2.457 7.571,2.473 7.571,2.490 C7.555,2.490 7.538,2.490 7.522,2.490 C7.522,2.506 7.522,2.522 7.522,2.538 C7.506,2.538 7.489,2.538 7.473,2.538 C7.473,2.554 7.473,2.570 7.473,2.586 C7.457,2.586 7.441,2.586 7.424,2.586 C7.424,2.603 7.424,2.619 7.424,2.635 C7.408,2.635 7.392,2.635 7.375,2.635 C7.375,2.651 7.375,2.667 7.375,2.683 C7.359,2.683 7.343,2.683 7.326,2.683 C7.326,2.699 7.326,2.716 7.326,2.732 C7.310,2.732 7.294,2.732 7.277,2.732 C7.277,2.747 7.277,2.764 7.277,2.780 C7.261,2.780 7.245,2.780 7.229,2.780 C7.229,2.796 7.229,2.812 7.229,2.828 C7.212,2.828 7.196,2.828 7.180,2.828 C7.180,2.844 7.180,2.860 7.180,2.877 C7.163,2.877 7.147,2.877 7.131,2.877 C7.131,2.893 7.131,2.909 7.131,2.925 C7.114,2.925 7.098,2.925 7.082,2.925 C7.082,2.941 7.082,2.957 7.082,2.974 C7.065,2.974 7.049,2.974 7.033,2.974 C7.033,2.990 7.033,3.006 7.033,3.022 C7.017,3.022 7.000,3.022 6.984,3.022 C6.984,3.038 6.984,3.054 6.984,3.070 C6.968,3.070 6.951,3.070 6.935,3.070 C6.935,3.086 6.935,3.102 6.935,3.118 C6.919,3.118 6.902,3.118 6.886,3.118 C6.886,3.135 6.886,3.151 6.886,3.167 C6.870,3.167 6.853,3.167 6.837,3.167 C6.837,3.183 6.837,3.199 6.837,3.215 C6.821,3.215 6.804,3.215 6.788,3.215 C6.788,3.232 6.788,3.248 6.788,3.264 C6.772,3.264 6.755,3.264 6.739,3.264 C6.739,3.279 6.739,3.296 6.739,3.312 C6.723,3.312 6.707,3.312 6.690,3.312 C6.690,3.328 6.690,3.344 6.690,3.361 C6.674,3.361 6.658,3.361 6.641,3.361 C6.641,3.376 6.641,3.392 6.641,3.409 C6.625,3.409 6.609,3.409 6.592,3.409 C6.592,3.425 6.592,3.441 6.592,3.457 C6.576,3.457 6.560,3.457 6.543,3.457 C6.543,3.473 6.543,3.489 6.543,3.505 C6.527,3.505 6.511,3.505 6.495,3.505 C6.495,3.521 6.495,3.537 6.495,3.554 C6.478,3.554 6.462,3.554 6.446,3.554 C6.446,3.570 6.446,3.586 6.446,3.602 C6.429,3.602 6.413,3.602 6.397,3.602 C6.397,3.618 6.397,3.634 6.397,3.650 C6.380,3.650 6.364,3.650 6.348,3.650 C6.348,3.666 6.348,3.682 6.348,3.699 C6.331,3.699 6.315,3.699 6.299,3.699 C6.299,3.715 6.299,3.731 6.299,3.747 C6.282,3.747 6.266,3.747 6.250,3.747 C6.250,3.763 6.250,3.780 6.250,3.795 C6.233,3.795 6.217,3.795 6.201,3.795 C6.201,3.812 6.201,3.827 6.201,3.844 C6.185,3.844 6.168,3.844 6.152,3.844 C6.152,3.860 6.152,3.876 6.152,3.892 C6.136,3.892 6.119,3.892 6.103,3.892 C6.103,3.908 6.103,3.924 6.103,3.941 C6.087,3.941 6.070,3.941 6.054,3.941 C6.054,3.957 6.054,3.973 6.054,3.989 C6.038,3.989 6.021,3.989 6.005,3.989 C6.005,4.005 6.005,4.021 6.005,4.037 C5.989,4.037 5.972,4.037 5.956,4.037 C5.956,4.054 5.956,4.070 5.956,4.086 C5.940,4.086 5.924,4.086 5.907,4.086 C5.907,4.101 5.907,4.119 5.907,4.134 C5.891,4.134 5.875,4.134 5.858,4.134 C5.858,4.150 5.858,4.166 5.858,4.183 C5.842,4.183 5.826,4.183 5.809,4.183 C5.809,4.199 5.809,4.215 5.809,4.231 C5.793,4.231 5.777,4.231 5.760,4.231 C5.760,4.247 5.760,4.263 5.760,4.279 C5.744,4.279 5.728,4.279 5.712,4.279 C5.712,4.295 5.712,4.312 5.712,4.328 C5.695,4.328 5.679,4.328 5.663,4.328 C5.663,4.344 5.663,4.360 5.663,4.376 C5.646,4.376 5.630,4.376 5.614,4.376 C5.614,4.393 5.614,4.408 5.614,4.424 C5.597,4.424 5.581,4.424 5.565,4.424 C5.565,4.440 5.565,4.457 5.565,4.473 C5.548,4.473 5.532,4.473 5.516,4.473 C5.516,4.489 5.516,4.505 5.516,4.521 C5.499,4.521 5.483,4.521 5.467,4.521 C5.467,4.537 5.467,4.553 5.467,4.569 C5.450,4.569 5.434,4.569 5.418,4.569 C5.418,4.585 5.418,4.601 5.418,4.618 C5.402,4.618 5.385,4.618 5.369,4.618 C5.369,4.634 5.369,4.650 5.369,4.666 C5.353,4.666 5.336,4.666 5.320,4.666 C5.320,4.682 5.320,4.698 5.320,4.714 C5.304,4.714 5.287,4.714 5.271,4.714 C5.271,4.730 5.271,4.747 5.271,4.763 C5.255,4.763 5.238,4.763 5.222,4.763 C5.222,4.779 5.222,4.795 5.222,4.811 C5.206,4.811 5.190,4.811 5.173,4.811 C5.173,4.828 5.173,4.843 5.173,4.860 C5.157,4.860 5.141,4.860 5.124,4.860 C5.124,4.875 5.124,4.892 5.124,4.908 C5.108,4.908 5.092,4.908 5.075,4.908 C5.075,4.924 5.075,4.940 5.075,4.957 C5.059,4.957 5.043,4.957 5.026,4.957 C5.026,4.972 5.026,4.989 5.026,5.004 C5.010,5.004 4.994,5.004 4.978,5.004 C4.978,5.021 4.978,5.037 4.978,5.053 C4.961,5.053 4.945,5.053 4.929,5.053 C4.929,5.069 4.929,5.085 4.929,5.102 C4.912,5.102 4.896,5.102 4.880,5.102 C4.880,5.118 4.880,5.133 4.880,5.149 C4.863,5.149 4.847,5.149 4.831,5.149 C4.831,5.166 4.831,5.182 4.831,5.198 C4.814,5.198 4.798,5.198 4.782,5.198 C4.782,5.214 4.782,5.230 4.782,5.246 C4.765,5.246 4.749,5.246 4.733,5.246 C4.733,5.262 4.733,5.279 4.733,5.295 C4.716,5.295 4.700,5.295 4.684,5.295 C4.684,5.311 4.684,5.328 4.684,5.343 C4.668,5.343 4.651,5.343 4.635,5.343 C4.635,5.359 4.635,5.376 4.635,5.392 C4.619,5.392 4.602,5.392 4.586,5.392 C4.586,5.408 4.586,5.424 4.586,5.440 C4.570,5.440 4.553,5.440 4.537,5.440 C4.537,5.456 4.537,5.472 4.537,5.488 C4.521,5.488 4.504,5.488 4.488,5.488 C4.488,5.504 4.488,5.521 4.488,5.536 C4.472,5.536 4.456,5.536 4.439,5.536 C4.439,5.553 4.439,5.569 4.439,5.585 C4.423,5.585 4.407,5.585 4.390,5.585 C4.390,5.601 4.390,5.617 4.390,5.633 C4.374,5.633 4.358,5.633 4.341,5.633 C4.341,5.649 4.341,5.666 4.341,5.682 C4.325,5.682 4.309,5.682 4.292,5.682 C4.292,5.698 4.292,5.713 4.292,5.730 C4.276,5.730 4.260,5.730 4.243,5.730 C4.243,5.746 4.243,5.762 4.243,5.778 C4.227,5.778 4.211,5.778 4.195,5.778 C4.195,5.794 4.195,5.811 4.195,5.827 C4.178,5.827 4.162,5.827 4.146,5.827 C4.146,5.843 4.146,5.859 4.146,5.875 C4.129,5.875 4.113,5.875 4.097,5.875 C4.097,5.891 4.097,5.908 4.097,5.923 C4.080,5.923 4.064,5.923 4.048,5.923 C4.048,5.940 4.048,5.956 4.048,5.972 C4.031,5.972 4.015,5.972 3.999,5.972 C3.999,5.988 3.999,6.004 3.999,6.020 C3.982,6.020 3.966,6.020 3.950,6.020 C3.950,6.037 3.950,6.052 3.950,6.068 C3.933,6.068 3.917,6.068 3.901,6.068 C3.901,6.085 3.901,6.101 3.901,6.117 C3.885,6.117 3.868,6.117 3.852,6.117 C3.852,6.133 3.852,6.149 3.852,6.166 C3.836,6.166 3.819,6.166 3.803,6.166 C3.803,6.181 3.803,6.198 3.803,6.214 C3.787,6.214 3.770,6.214 3.754,6.214 C3.754,6.229 3.754,6.246 3.754,6.262 C3.738,6.262 3.721,6.262 3.705,6.262 C3.705,6.278 3.705,6.294 3.705,6.310 C3.689,6.310 3.673,6.310 3.656,6.310 C3.656,6.327 3.656,6.343 3.656,6.359 C3.640,6.359 3.624,6.359 3.607,6.359 C3.607,6.375 3.607,6.391 3.607,6.407 C3.591,6.407 3.575,6.407 3.558,6.407 C3.558,6.423 3.558,6.440 3.558,6.456 C3.542,6.456 3.526,6.456 3.509,6.456 C3.509,6.472 3.509,6.488 3.509,6.504 C3.493,6.504 3.477,6.504 3.460,6.504 C3.460,6.520 3.460,6.536 3.460,6.552 C3.444,6.552 3.428,6.552 3.411,6.552 C3.411,6.568 3.411,6.584 3.411,6.600 C3.395,6.600 3.379,6.600 3.363,6.600 C3.363,6.617 3.363,6.633 3.363,6.649 C3.346,6.649 3.330,6.649 3.314,6.649 C3.314,6.665 3.314,6.681 3.314,6.697 C3.297,6.697 3.281,6.697 3.265,6.697 C3.265,6.713 3.265,6.729 3.265,6.746 C3.248,6.746 3.232,6.746 3.216,6.746 C3.216,6.762 3.216,6.778 3.216,6.794 C3.199,6.794 3.183,6.794 3.167,6.794 C3.167,6.810 3.167,6.826 3.167,6.842 C3.151,6.842 3.134,6.842 3.118,6.842 C3.118,6.858 3.118,6.874 3.118,6.891 C3.102,6.891 3.085,6.891 3.069,6.891 C3.069,6.907 3.069,6.923 3.069,6.939 C3.053,6.939 3.036,6.939 3.020,6.939 C3.020,6.955 3.020,6.972 3.020,6.987 C3.004,6.987 2.987,6.987 2.971,6.987 C2.971,7.003 2.971,7.020 2.971,7.036 C2.955,7.036 2.939,7.036 2.922,7.036 C2.922,7.052 2.922,7.068 2.922,7.085 C2.906,7.085 2.890,7.085 2.873,7.085 C2.873,7.100 2.873,7.116 2.873,7.133 C2.857,7.133 2.841,7.133 2.824,7.133 C2.824,7.149 2.824,7.165 2.824,7.181 C2.808,7.181 2.792,7.181 2.775,7.181 C2.775,7.197 2.775,7.213 2.775,7.229 C2.759,7.229 2.743,7.229 2.726,7.229 C2.726,7.246 2.726,7.262 2.726,7.277 C2.710,7.277 2.694,7.277 2.677,7.277 C2.677,7.294 2.677,7.310 2.677,7.326 C2.661,7.326 2.645,7.326 2.629,7.326 C2.629,7.342 2.629,7.359 2.629,7.374 C2.612,7.374 2.596,7.374 2.580,7.374 C2.580,7.391 2.580,7.406 2.580,7.423 C2.563,7.423 2.547,7.423 2.531,7.423 C2.531,7.439 2.531,7.455 2.531,7.471 C2.514,7.471 2.498,7.471 2.482,7.471 C2.482,7.487 2.482,7.504 2.482,7.520 C2.465,7.520 2.449,7.520 2.433,7.520 C2.433,7.536 2.433,7.552 2.433,7.568 C2.417,7.568 2.400,7.568 2.384,7.568 C2.384,7.584 2.384,7.600 2.384,7.616 C2.368,7.616 2.351,7.616 2.335,7.616 C2.335,7.632 2.335,7.648 2.335,7.664 C2.319,7.664 2.302,7.664 2.286,7.664 C2.286,7.681 2.286,7.697 2.286,7.713 C2.270,7.713 2.253,7.713 2.237,7.713 C2.237,7.729 2.237,7.745 2.237,7.761 C2.221,7.761 2.204,7.761 2.188,7.761 C2.188,7.777 2.188,7.794 2.188,7.810 C2.172,7.810 2.156,7.810 2.139,7.810 C2.139,7.826 2.139,7.842 2.139,7.858 C2.123,7.858 2.107,7.858 2.090,7.858 C2.090,7.874 2.090,7.890 2.090,7.906 C2.074,7.906 2.058,7.906 2.041,7.906 C2.041,7.922 2.041,7.938 2.041,7.955 C2.025,7.955 2.009,7.955 1.992,7.955 C1.992,7.971 1.992,7.987 1.992,8.003 C1.976,8.003 1.960,8.003 1.943,8.003 C1.943,8.019 1.943,8.035 1.943,8.051 C1.927,8.051 1.911,8.051 1.894,8.051 C1.894,8.068 1.894,8.084 1.894,8.100 C1.878,8.100 1.862,8.100 1.846,8.100 C1.846,8.116 1.846,8.132 1.846,8.148 C1.829,8.148 1.813,8.148 1.797,8.148 C1.797,8.164 1.797,8.181 1.797,8.196 C1.780,8.196 1.764,8.196 1.748,8.196 C1.748,8.212 1.748,8.229 1.748,8.245 C1.731,8.245 1.715,8.245 1.699,8.245 C1.699,8.261 1.699,8.277 1.699,8.293 C1.682,8.293 1.666,8.293 1.650,8.293 C1.650,8.310 1.650,8.325 1.650,8.342 C1.634,8.342 1.617,8.342 1.601,8.342 C1.601,8.358 1.601,8.374 1.601,8.390 C1.585,8.390 1.568,8.390 1.552,8.390 C1.552,8.407 1.552,8.422 1.552,8.439 C1.536,8.439 1.519,8.439 1.503,8.439 C1.503,8.454 1.503,8.471 1.503,8.487 C1.487,8.487 1.470,8.487 1.454,8.487 C1.454,8.503 1.454,8.519 1.454,8.535 C1.438,8.535 1.421,8.535 1.405,8.535 C1.405,8.551 1.405,8.567 1.405,8.584 C1.389,8.584 1.373,8.584 1.356,8.584 C1.356,8.600 1.356,8.616 1.356,8.632 C1.340,8.632 1.324,8.632 1.307,8.632 C1.307,8.648 1.307,8.664 1.307,8.680 C1.291,8.680 1.275,8.680 1.258,8.680 C1.258,8.696 1.258,8.712 1.258,8.728 C1.242,8.728 1.226,8.728 1.209,8.728 C1.209,8.744 1.209,8.761 1.209,8.777 C1.193,8.777 1.177,8.777 1.160,8.777 C1.160,8.793 1.160,8.809 1.160,8.825 C1.144,8.825 1.128,8.825 1.112,8.825 C1.112,8.842 1.112,8.858 1.112,8.874 C1.095,8.874 1.079,8.874 1.063,8.874 C1.063,8.890 1.063,8.906 1.063,8.921 C1.046,8.921 1.030,8.921 1.014,8.921 C1.014,8.938 1.014,8.954 1.014,8.970 C0.997,8.970 0.981,8.970 0.965,8.970 C0.965,8.987 0.965,9.002 0.965,9.019 C0.948,9.019 0.932,9.019 0.916,9.019 C0.916,9.034 0.916,9.051 0.916,9.067 C0.900,9.067 0.883,9.067 0.867,9.067 C0.867,9.083 0.867,9.099 0.867,9.115 C0.851,9.115 0.834,9.115 0.818,9.115 C0.818,9.132 0.818,9.148 0.818,9.164 C0.802,9.164 0.785,9.164 0.769,9.164 C0.769,9.180 0.769,9.196 0.769,9.212 C0.753,9.212 0.736,9.212 0.720,9.212 C0.720,9.228 0.720,9.244 0.720,9.260 C0.704,9.260 0.687,9.260 0.671,9.260 C0.671,9.277 0.671,9.293 0.671,9.309 C0.655,9.309 0.638,9.309 0.622,9.309 C0.622,9.325 0.622,9.341 0.622,9.357 C0.606,9.357 0.590,9.357 0.573,9.357 C0.573,9.373 0.573,9.390 0.573,9.406 C0.557,9.406 0.541,9.406 0.524,9.406 C0.524,9.422 0.524,9.438 0.524,9.454 C0.508,9.454 0.492,9.454 0.475,9.454 C0.475,9.470 0.475,9.487 0.475,9.502 C0.459,9.502 0.443,9.502 0.426,9.502 C0.426,9.519 0.426,9.534 0.426,9.551 C0.410,9.551 0.394,9.551 0.378,9.551 C0.378,9.567 0.378,9.583 0.378,9.599 C0.361,9.599 0.345,9.599 0.329,9.599 C0.329,9.615 0.329,9.631 0.329,9.648 C0.312,9.648 0.296,9.648 0.280,9.648 C0.262,9.712 0.240,9.723 0.206,9.768 C0.198,9.768 0.190,9.768 0.182,9.768 C0.182,9.792 0.182,9.817 0.182,9.841 C0.165,9.849 0.149,9.857 0.133,9.866 C0.133,9.889 0.133,9.913 0.133,9.938 C0.117,9.946 0.100,9.953 0.084,9.962 C0.084,9.994 0.084,10.027 0.084,10.059 C0.076,10.059 0.068,10.059 0.059,10.059 C0.059,10.074 0.059,10.091 0.059,10.107 C0.051,10.107 0.043,10.107 0.035,10.107 C0.035,10.139 0.035,10.171 0.035,10.204 C0.027,10.204 0.019,10.204 0.011,10.204 C-0.016,10.293 0.012,10.774 0.035,10.832 C0.043,10.832 0.051,10.832 0.059,10.832 C0.059,10.849 0.059,10.865 0.059,10.880 C0.068,10.880 0.076,10.880 0.084,10.880 C0.084,10.913 0.084,10.945 0.084,10.977 C0.100,10.986 0.117,10.994 0.133,11.001 C0.133,11.026 0.133,11.050 0.133,11.075 C0.149,11.082 0.165,11.090 0.182,11.098 C0.182,11.123 0.182,11.147 0.182,11.171 C0.198,11.179 0.214,11.187 0.231,11.195 C0.231,11.219 0.231,11.243 0.231,11.268 C0.239,11.268 0.247,11.268 0.255,11.268 C0.289,11.313 0.311,11.324 0.329,11.388 C0.345,11.388 0.361,11.388 0.378,11.388 C0.378,11.405 0.378,11.421 0.378,11.437 C0.394,11.437 0.410,11.437 0.426,11.437 C0.426,11.453 0.426,11.469 0.426,11.485 C0.443,11.485 0.459,11.485 0.475,11.485 C0.475,11.501 0.475,11.518 0.475,11.534 C0.492,11.534 0.508,11.534 0.524,11.534 C0.524,11.550 0.524,11.566 0.524,11.582 C0.541,11.582 0.557,11.582 0.573,11.582 C0.573,11.598 0.573,11.615 0.573,11.631 C0.590,11.631 0.606,11.631 0.622,11.631 C0.622,11.646 0.622,11.663 0.622,11.679 C0.638,11.679 0.655,11.679 0.671,11.679 C0.671,11.695 0.671,11.711 0.671,11.727 C0.687,11.727 0.704,11.727 0.720,11.727 C0.720,11.743 0.720,11.759 0.720,11.775 C0.736,11.775 0.753,11.775 0.769,11.775 C0.769,11.792 0.769,11.808 0.769,11.824 C0.785,11.824 0.802,11.824 0.818,11.824 C0.818,11.840 0.818,11.856 0.818,11.872 C0.834,11.872 0.851,11.872 0.867,11.872 C0.867,11.888 0.867,11.904 0.867,11.920 C0.883,11.920 0.900,11.920 0.916,11.920 C0.916,11.936 0.916,11.953 0.916,11.969 C0.932,11.969 0.948,11.969 0.965,11.969 C0.965,11.985 0.965,12.001 0.965,12.017 C0.981,12.017 0.997,12.017 1.014,12.017 C1.014,12.033 1.014,12.050 1.014,12.065 C1.030,12.065 1.046,12.065 1.063,12.065 C1.063,12.082 1.063,12.098 1.063,12.114 C1.079,12.114 1.095,12.114 1.112,12.114 C1.112,12.130 1.112,12.146 1.112,12.163 C1.128,12.163 1.144,12.163 1.160,12.163 C1.160,12.178 1.160,12.195 1.160,12.210 C1.177,12.210 1.193,12.210 1.209,12.210 C1.209,12.226 1.209,12.243 1.209,12.259 C1.226,12.259 1.242,12.259 1.258,12.259 C1.258,12.275 1.258,12.291 1.258,12.307 C1.275,12.307 1.291,12.307 1.307,12.307 C1.307,12.324 1.307,12.340 1.307,12.356 C1.324,12.356 1.340,12.356 1.356,12.356 C1.356,12.372 1.356,12.388 1.356,12.404 C1.373,12.404 1.389,12.404 1.405,12.404 C1.405,12.420 1.405,12.437 1.405,12.452 C1.421,12.452 1.438,12.452 1.454,12.452 C1.454,12.469 1.454,12.484 1.454,12.501 C1.470,12.501 1.487,12.501 1.503,12.501 C1.503,12.517 1.503,12.533 1.503,12.549 C1.519,12.549 1.536,12.549 1.552,12.549 C1.552,12.565 1.552,12.581 1.552,12.598 C1.568,12.598 1.585,12.598 1.601,12.598 C1.601,12.614 1.601,12.630 1.601,12.645 C1.617,12.645 1.634,12.645 1.650,12.645 C1.650,12.662 1.650,12.678 1.650,12.694 C1.666,12.694 1.682,12.694 1.699,12.694 C1.699,12.711 1.699,12.727 1.699,12.743 C1.715,12.743 1.731,12.743 1.748,12.743 C1.748,12.758 1.748,12.775 1.748,12.791 C1.764,12.791 1.780,12.791 1.797,12.791 C1.797,12.807 1.797,12.823 1.797,12.839 C1.813,12.839 1.829,12.839 1.846,12.839 C1.846,12.855 1.846,12.872 1.846,12.888 C1.862,12.888 1.878,12.888 1.894,12.888 C1.894,12.904 1.894,12.920 1.894,12.936 C1.911,12.936 1.927,12.936 1.943,12.936 C1.943,12.952 1.943,12.968 1.943,12.984 C1.960,12.984 1.976,12.984 1.992,12.984 C1.992,13.001 1.992,13.017 1.992,13.033 C2.009,13.033 2.025,13.033 2.041,13.033 C2.041,13.049 2.041,13.065 2.041,13.081 C2.058,13.081 2.074,13.081 2.090,13.081 C2.090,13.097 2.090,13.113 2.090,13.129 C2.107,13.129 2.123,13.129 2.139,13.129 C2.139,13.146 2.139,13.162 2.139,13.178 C2.156,13.178 2.172,13.178 2.188,13.178 C2.188,13.194 2.188,13.210 2.188,13.226 C2.204,13.226 2.221,13.226 2.237,13.226 C2.237,13.242 2.237,13.258 2.237,13.274 C2.253,13.274 2.270,13.274 2.286,13.274 C2.286,13.291 2.286,13.307 2.286,13.323 C2.302,13.323 2.319,13.323 2.335,13.323 C2.335,13.339 2.335,13.355 2.335,13.371 C2.351,13.371 2.368,13.371 2.384,13.371 C2.384,13.388 2.384,13.404 2.384,13.420 C2.400,13.420 2.417,13.420 2.433,13.420 C2.433,13.436 2.433,13.452 2.433,13.468 C2.449,13.468 2.465,13.468 2.482,13.468 C2.482,13.484 2.482,13.500 2.482,13.517 C2.498,13.517 2.514,13.517 2.531,13.517 C2.531,13.533 2.531,13.549 2.531,13.564 C2.547,13.564 2.563,13.564 2.580,13.564 C2.580,13.581 2.580,13.597 2.580,13.613 C2.596,13.613 2.612,13.613 2.629,13.613 C2.629,13.629 2.629,13.646 2.629,13.662 C2.645,13.662 2.661,13.662 2.677,13.662 C2.677,13.678 2.677,13.694 2.677,13.710 C2.694,13.710 2.710,13.710 2.726,13.710 C2.726,13.726 2.726,13.742 2.726,13.759 C2.743,13.759 2.759,13.759 2.775,13.759 C2.775,13.775 2.775,13.791 2.775,13.807 C2.792,13.807 2.808,13.807 2.824,13.807 C2.824,13.823 2.824,13.839 2.824,13.855 C2.841,13.855 2.857,13.855 2.873,13.855 C2.873,13.871 2.873,13.887 2.873,13.903 C2.890,13.903 2.906,13.903 2.922,13.903 C2.922,13.919 2.922,13.936 2.922,13.952 C2.939,13.952 2.955,13.952 2.971,13.952 C2.971,13.968 2.971,13.984 2.971,14.000 C2.987,14.000 3.004,14.000 3.020,14.000 C3.020,14.016 3.020,14.032 3.020,14.049 C3.036,14.049 3.053,14.049 3.069,14.049 C3.069,14.065 3.069,14.081 3.069,14.096 C3.085,14.096 3.102,14.096 3.118,14.096 C3.118,14.113 3.118,14.129 3.118,14.145 C3.134,14.145 3.151,14.145 3.167,14.145 C3.167,14.161 3.167,14.177 3.167,14.193 C3.183,14.193 3.199,14.193 3.216,14.193 C3.216,14.209 3.216,14.226 3.216,14.242 C3.232,14.242 3.248,14.242 3.265,14.242 C3.265,14.258 3.265,14.274 3.265,14.291 C3.281,14.291 3.297,14.291 3.314,14.291 C3.314,14.306 3.314,14.322 3.314,14.338 C3.330,14.338 3.346,14.338 3.363,14.338 C3.363,14.355 3.363,14.371 3.363,14.387 C3.379,14.387 3.395,14.387 3.411,14.387 C3.411,14.403 3.411,14.419 3.411,14.435 C3.428,14.435 3.444,14.435 3.460,14.435 C3.460,14.451 3.460,14.468 3.460,14.484 C3.477,14.484 3.493,14.484 3.509,14.484 C3.509,14.500 3.509,14.516 3.509,14.532 C3.526,14.532 3.542,14.532 3.558,14.532 C3.558,14.548 3.558,14.565 3.558,14.580 C3.575,14.580 3.591,14.580 3.607,14.580 C3.607,14.597 3.607,14.612 3.607,14.629 C3.624,14.629 3.640,14.629 3.656,14.629 C3.656,14.645 3.656,14.661 3.656,14.677 C3.673,14.677 3.689,14.677 3.705,14.677 C3.705,14.694 3.705,14.709 3.705,14.726 C3.721,14.726 3.738,14.726 3.754,14.726 C3.754,14.742 3.754,14.758 3.754,14.774 C3.770,14.774 3.787,14.774 3.803,14.774 C3.803,14.790 3.803,14.806 3.803,14.822 C3.819,14.822 3.836,14.822 3.852,14.822 C3.852,14.839 3.852,14.855 3.852,14.871 C3.868,14.871 3.885,14.871 3.901,14.871 C3.901,14.887 3.901,14.903 3.901,14.919 C3.917,14.919 3.933,14.919 3.950,14.919 C3.950,14.935 3.950,14.951 3.950,14.967 C3.966,14.967 3.982,14.967 3.999,14.967 C3.999,14.983 3.999,14.999 3.999,15.016 C4.015,15.016 4.031,15.016 4.048,15.016 C4.048,15.032 4.048,15.048 4.048,15.064 C4.064,15.064 4.080,15.064 4.097,15.064 C4.097,15.080 4.097,15.096 4.097,15.113 C4.113,15.113 4.129,15.113 4.146,15.113 C4.146,15.129 4.146,15.144 4.146,15.161 C4.162,15.161 4.178,15.161 4.195,15.161 C4.195,15.177 4.195,15.193 4.195,15.209 C4.211,15.209 4.227,15.209 4.243,15.209 C4.243,15.225 4.243,15.241 4.243,15.257 C4.260,15.257 4.276,15.257 4.292,15.257 C4.292,15.274 4.292,15.290 4.292,15.306 C4.309,15.306 4.325,15.306 4.341,15.306 C4.341,15.322 4.341,15.338 4.341,15.354 C4.358,15.354 4.374,15.354 4.390,15.354 C4.390,15.370 4.390,15.387 4.390,15.403 C4.407,15.403 4.423,15.403 4.439,15.403 C4.439,15.418 4.439,15.435 4.439,15.451 C4.456,15.451 4.472,15.451 4.488,15.451 C4.488,15.467 4.488,15.483 4.488,15.500 C4.504,15.500 4.521,15.500 4.537,15.500 C4.537,15.515 4.537,15.532 4.537,15.548 C4.553,15.548 4.570,15.548 4.586,15.548 C4.586,15.564 4.586,15.580 4.586,15.596 C4.602,15.596 4.619,15.596 4.635,15.596 C4.635,15.612 4.635,15.628 4.635,15.645 C4.651,15.645 4.668,15.645 4.684,15.645 C4.684,15.661 4.684,15.677 4.684,15.693 C4.700,15.693 4.716,15.693 4.733,15.693 C4.733,15.709 4.733,15.725 4.733,15.742 C4.749,15.742 4.765,15.742 4.782,15.742 C4.782,15.757 4.782,15.774 4.782,15.789 C4.798,15.789 4.814,15.789 4.831,15.789 C4.831,15.806 4.831,15.822 4.831,15.838 C4.847,15.838 4.863,15.838 4.880,15.838 C4.880,15.854 4.880,15.870 4.880,15.887 C4.896,15.887 4.912,15.887 4.929,15.887 C4.929,15.903 4.929,15.919 4.929,15.935 C4.945,15.935 4.961,15.935 4.978,15.935 C4.978,15.950 4.978,15.967 4.978,15.983 C4.994,15.983 5.010,15.983 5.026,15.983 C5.026,15.999 5.026,16.015 5.026,16.031 C5.043,16.031 5.059,16.031 5.075,16.031 C5.075,16.047 5.075,16.063 5.075,16.080 C5.092,16.080 5.108,16.080 5.124,16.080 C5.124,16.095 5.124,16.112 5.124,16.128 C5.141,16.128 5.157,16.128 5.173,16.128 C5.173,16.144 5.173,16.160 5.173,16.176 C5.190,16.176 5.206,16.176 5.222,16.176 C5.222,16.193 5.222,16.209 5.222,16.225 C5.238,16.225 5.255,16.225 5.271,16.225 C5.271,16.241 5.271,16.257 5.271,16.273 C5.287,16.273 5.304,16.273 5.320,16.273 C5.320,16.289 5.320,16.305 5.320,16.322 C5.336,16.322 5.353,16.322 5.369,16.322 C5.369,16.338 5.369,16.354 5.369,16.370 C5.385,16.370 5.402,16.370 5.418,16.370 C5.418,16.386 5.418,16.402 5.418,16.418 C5.434,16.418 5.450,16.418 5.467,16.418 C5.467,16.434 5.467,16.451 5.467,16.466 C5.483,16.466 5.499,16.466 5.516,16.466 C5.516,16.483 5.516,16.499 5.516,16.515 C5.532,16.515 5.548,16.515 5.565,16.515 C5.565,16.531 5.565,16.547 5.565,16.563 C5.581,16.563 5.597,16.563 5.614,16.563 C5.614,16.579 5.614,16.595 5.614,16.612 C5.630,16.612 5.646,16.612 5.663,16.612 C5.663,16.628 5.663,16.644 5.663,16.660 C5.679,16.660 5.695,16.660 5.712,16.660 C5.712,16.676 5.712,16.692 5.712,16.708 C5.728,16.708 5.744,16.708 5.760,16.708 C5.760,16.725 5.760,16.740 5.760,16.757 C5.777,16.757 5.793,16.757 5.809,16.757 C5.809,16.773 5.809,16.789 5.809,16.805 C5.826,16.805 5.842,16.805 5.858,16.805 C5.858,16.821 5.858,16.838 5.858,16.853 C5.875,16.853 5.891,16.853 5.907,16.853 C5.907,16.870 5.907,16.886 5.907,16.902 C5.924,16.902 5.940,16.902 5.956,16.902 C5.956,16.918 5.956,16.934 5.956,16.950 C5.972,16.950 5.989,16.950 6.005,16.950 C6.005,16.966 6.005,16.983 6.005,16.998 C6.021,16.998 6.038,16.998 6.054,16.998 C6.054,17.015 6.054,17.031 6.054,17.047 C6.070,17.047 6.087,17.047 6.103,17.047 C6.103,17.063 6.103,17.079 6.103,17.095 C6.119,17.095 6.136,17.095 6.152,17.095 C6.152,17.111 6.152,17.128 6.152,17.144 C6.168,17.144 6.185,17.144 6.201,17.144 C6.201,17.160 6.201,17.176 6.201,17.192 C6.217,17.192 6.233,17.192 6.250,17.192 C6.250,17.208 6.250,17.224 6.250,17.241 C6.266,17.241 6.282,17.241 6.299,17.241 C6.299,17.257 6.299,17.272 6.299,17.288 C6.315,17.288 6.331,17.288 6.348,17.288 C6.348,17.305 6.348,17.321 6.348,17.337 C6.364,17.337 6.380,17.337 6.397,17.337 C6.397,17.353 6.397,17.370 6.397,17.385 C6.413,17.385 6.429,17.385 6.446,17.385 C6.446,17.402 6.446,17.418 6.446,17.434 C6.462,17.434 6.478,17.434 6.495,17.434 C6.495,17.450 6.495,17.466 6.495,17.482 C6.511,17.482 6.527,17.482 6.543,17.482 C6.543,17.498 6.543,17.514 6.543,17.531 C6.560,17.531 6.576,17.531 6.592,17.531 C6.592,17.547 6.592,17.563 6.592,17.579 C6.609,17.579 6.625,17.579 6.641,17.579 C6.641,17.595 6.641,17.611 6.641,17.627 C6.658,17.627 6.674,17.627 6.690,17.627 C6.690,17.643 6.690,17.659 6.690,17.676 C6.707,17.676 6.723,17.676 6.739,17.676 C6.739,17.692 6.739,17.708 6.739,17.724 C6.755,17.724 6.772,17.724 6.788,17.724 C6.788,17.740 6.788,17.756 6.788,17.773 C6.804,17.773 6.821,17.773 6.837,17.773 C6.837,17.788 6.837,17.805 6.837,17.821 C6.853,17.821 6.870,17.821 6.886,17.821 C6.886,17.837 6.886,17.853 6.886,17.869 C6.902,17.869 6.919,17.869 6.935,17.869 C6.935,17.886 6.935,17.902 6.935,17.917 C6.951,17.917 6.968,17.917 6.984,17.917 C6.984,17.934 6.984,17.950 6.984,17.966 C7.000,17.966 7.017,17.966 7.033,17.966 C7.033,17.982 7.033,17.998 7.033,18.014 C7.049,18.014 7.065,18.014 7.082,18.014 C7.082,18.030 7.082,18.046 7.082,18.062 C7.098,18.062 7.114,18.062 7.131,18.062 C7.131,18.079 7.131,18.095 7.131,18.111 C7.147,18.111 7.163,18.111 7.180,18.111 C7.180,18.127 7.180,18.143 7.180,18.159 C7.196,18.159 7.212,18.159 7.229,18.159 C7.229,18.176 7.229,18.191 7.229,18.208 C7.245,18.208 7.261,18.208 7.277,18.208 C7.277,18.223 7.277,18.240 7.277,18.256 C7.294,18.256 7.310,18.256 7.326,18.256 C7.326,18.272 7.326,18.288 7.326,18.304 C7.343,18.304 7.359,18.304 7.375,18.304 C7.375,18.320 7.375,18.336 7.375,18.353 C7.392,18.353 7.408,18.353 7.424,18.353 C7.424,18.368 7.424,18.385 7.424,18.401 C7.441,18.401 7.457,18.401 7.473,18.401 C7.473,18.417 7.473,18.433 7.473,18.449 C7.489,18.449 7.506,18.449 7.522,18.449 C7.522,18.466 7.522,18.482 7.522,18.498 C7.538,18.498 7.555,18.498 7.571,18.498 C7.571,18.514 7.571,18.530 7.571,18.546 C7.587,18.546 7.604,18.546 7.620,18.546 C7.620,18.562 7.620,18.579 7.620,18.595 C7.636,18.595 7.653,18.595 7.669,18.595 C7.669,18.611 7.669,18.627 7.669,18.643 C7.685,18.643 7.702,18.643 7.718,18.643 C7.718,18.659 7.718,18.675 7.718,18.691 C7.734,18.691 7.751,18.691 7.767,18.691 C7.767,18.707 7.767,18.724 7.767,18.740 C7.783,18.740 7.800,18.740 7.816,18.740 C7.816,18.756 7.816,18.772 7.816,18.788 C7.832,18.788 7.848,18.788 7.865,18.788 C7.865,18.804 7.865,18.820 7.865,18.837 C7.881,18.837 7.897,18.837 7.914,18.837 C7.914,18.853 7.914,18.869 7.914,18.885 C7.930,18.885 7.946,18.885 7.963,18.885 C7.963,18.901 7.963,18.917 7.963,18.933 C7.979,18.933 7.995,18.933 8.011,18.933 C8.011,18.949 8.011,18.965 8.011,18.982 C8.028,18.982 8.044,18.982 8.060,18.982 C8.060,18.998 8.060,19.014 8.060,19.030 C8.077,19.030 8.093,19.030 8.109,19.030 C8.109,19.046 8.109,19.062 8.109,19.078 C8.126,19.078 8.142,19.078 8.158,19.078 C8.158,19.094 8.158,19.111 8.158,19.126 C8.175,19.126 8.191,19.126 8.207,19.126 C8.207,19.142 8.207,19.159 8.207,19.175 C8.224,19.175 8.240,19.175 8.256,19.175 C8.256,19.191 8.256,19.207 8.256,19.224 C8.272,19.224 8.289,19.224 8.305,19.224 C8.305,19.239 8.305,19.255 8.305,19.272 C8.321,19.272 8.338,19.272 8.354,19.272 C8.354,19.288 8.354,19.304 8.354,19.320 C8.370,19.320 8.387,19.320 8.403,19.320 C8.403,19.336 8.403,19.352 8.403,19.368 C8.419,19.368 8.436,19.368 8.452,19.368 C8.452,19.384 8.452,19.400 8.452,19.416 C8.468,19.416 8.485,19.416 8.501,19.416 C8.501,19.433 8.501,19.448 8.501,19.465 C8.517,19.465 8.534,19.465 8.550,19.465 C8.550,19.481 8.550,19.497 8.550,19.513 C8.566,19.513 8.582,19.513 8.599,19.513 C8.599,19.529 8.599,19.546 8.599,19.562 C8.615,19.562 8.631,19.562 8.648,19.562 C8.648,19.578 8.648,19.594 8.648,19.610 C8.664,19.610 8.680,19.610 8.697,19.610 C8.697,19.626 8.697,19.643 8.697,19.659 C8.713,19.659 8.729,19.659 8.746,19.659 C8.746,19.675 8.746,19.691 8.746,19.707 C8.762,19.707 8.778,19.707 8.794,19.707 C8.794,19.723 8.794,19.739 8.794,19.755 C8.811,19.755 8.827,19.755 8.843,19.755 C8.843,19.772 8.843,19.787 8.843,19.804 C8.860,19.804 8.876,19.804 8.892,19.804 C8.892,19.820 8.892,19.836 8.892,19.852 C8.909,19.852 8.925,19.852 8.941,19.852 C8.941,19.868 8.941,19.884 8.941,19.901 C8.958,19.901 8.974,19.901 8.990,19.901 C8.990,19.917 8.990,19.933 8.990,19.949 C9.007,19.949 9.023,19.949 9.039,19.949 C9.039,19.965 9.039,19.981 9.039,19.997 C9.055,19.997 9.072,19.997 9.088,19.997 C9.088,20.013 9.088,20.029 9.088,20.045 C9.104,20.045 9.121,20.045 9.137,20.045 C9.137,20.062 9.137,20.078 9.137,20.094 C9.153,20.094 9.170,20.094 9.186,20.094 C9.186,20.110 9.186,20.126 9.186,20.142 C9.202,20.142 9.219,20.142 9.235,20.142 C9.235,20.158 9.235,20.174 9.235,20.190 C9.251,20.190 9.268,20.190 9.284,20.190 C9.284,20.207 9.284,20.223 9.284,20.238 C9.300,20.238 9.316,20.238 9.333,20.238 C9.333,20.255 9.333,20.271 9.333,20.287 C9.349,20.287 9.365,20.287 9.382,20.287 C9.382,20.303 9.382,20.320 9.382,20.335 C9.398,20.335 9.414,20.335 9.431,20.335 C9.431,20.352 9.431,20.368 9.431,20.384 C9.447,20.384 9.463,20.384 9.480,20.384 C9.480,20.400 9.480,20.416 9.480,20.432 C9.496,20.432 9.512,20.432 9.528,20.432 C9.528,20.448 9.528,20.464 9.528,20.481 C9.545,20.481 9.561,20.481 9.577,20.481 C9.577,20.497 9.577,20.513 9.577,20.529 C9.594,20.529 9.610,20.529 9.626,20.529 C9.626,20.545 9.626,20.561 9.626,20.577 C9.643,20.577 9.659,20.577 9.675,20.577 C9.675,20.593 9.675,20.610 9.675,20.626 C9.692,20.626 9.708,20.626 9.724,20.626 C9.724,20.642 9.724,20.658 9.724,20.674 C9.789,20.692 9.801,20.713 9.847,20.747 C9.847,20.755 9.847,20.763 9.847,20.771 C9.871,20.771 9.895,20.771 9.920,20.771 C9.928,20.787 9.936,20.803 9.944,20.820 C9.969,20.820 9.993,20.820 10.018,20.820 C10.026,20.835 10.034,20.852 10.042,20.868 C10.067,20.868 10.091,20.868 10.116,20.868 C10.124,20.884 10.132,20.900 10.140,20.916 C10.173,20.916 10.206,20.916 10.238,20.916 C10.238,20.924 10.238,20.932 10.238,20.940 C10.254,20.940 10.271,20.940 10.287,20.940 C10.287,20.948 10.287,20.956 10.287,20.964 C10.345,20.987 10.833,21.015 10.923,20.989 C10.923,20.981 10.923,20.972 10.923,20.964 C10.956,20.964 10.988,20.964 11.021,20.964 C11.021,20.956 11.021,20.948 11.021,20.940 C11.037,20.940 11.054,20.940 11.070,20.940 C11.070,20.932 11.070,20.924 11.070,20.916 C11.103,20.916 11.135,20.916 11.168,20.916 C11.176,20.900 11.184,20.884 11.192,20.868 C11.217,20.868 11.241,20.868 11.266,20.868 C11.274,20.852 11.282,20.835 11.290,20.820 C11.315,20.820 11.339,20.820 11.364,20.820 C11.364,20.811 11.364,20.803 11.364,20.795 C11.409,20.761 11.421,20.740 11.486,20.722 C11.486,20.707 11.486,20.690 11.486,20.674 C11.502,20.674 11.519,20.674 11.535,20.674 C11.535,20.658 11.535,20.642 11.535,20.626 C11.551,20.626 11.567,20.626 11.584,20.626 C11.584,20.610 11.584,20.593 11.584,20.577 C11.600,20.577 11.616,20.577 11.633,20.577 C11.633,20.561 11.633,20.545 11.633,20.529 C11.649,20.529 11.665,20.529 11.682,20.529 C11.682,20.513 11.682,20.497 11.682,20.481 C11.698,20.481 11.714,20.481 11.731,20.481 C11.748,20.418 11.769,20.403 11.804,20.360 C11.812,20.360 11.820,20.360 11.829,20.360 C11.829,20.344 11.829,20.327 11.829,20.312 C11.837,20.312 11.845,20.312 11.853,20.312 C11.853,20.295 11.853,20.279 11.853,20.263 C11.861,20.263 11.869,20.263 11.877,20.263 C11.877,20.247 11.877,20.231 11.877,20.215 C11.886,20.215 11.894,20.215 11.902,20.215 C11.902,20.199 11.902,20.183 11.902,20.167 C11.910,20.167 11.918,20.167 11.926,20.167 C11.926,20.142 11.926,20.118 11.926,20.094 C11.943,20.085 11.959,20.078 11.975,20.070 C11.975,20.038 11.975,20.005 11.975,19.973 C11.983,19.973 11.992,19.973 12.000,19.973 C12.000,19.747 12.000,19.521 12.000,19.296 C11.992,19.296 11.983,19.296 11.975,19.296 C11.975,19.263 11.975,19.231 11.975,19.199 C11.967,19.199 11.959,19.199 11.951,19.199 C11.951,19.183 11.951,19.167 11.951,19.150 C11.943,19.150 11.934,19.150 11.926,19.150 C11.926,19.119 11.926,19.086 11.926,19.054 C11.910,19.046 11.894,19.037 11.877,19.030 C11.877,19.006 11.877,18.982 11.877,18.957 C11.853,18.941 11.829,18.925 11.804,18.909 C11.796,18.876 11.788,18.844 11.780,18.812 C11.771,18.812 11.763,18.812 11.755,18.812 C11.720,18.769 11.699,18.755 11.682,18.691 C11.665,18.691 11.649,18.691 11.633,18.691 C11.633,18.675 11.633,18.659 11.633,18.643 C11.616,18.643 11.600,18.643 11.584,18.643 C11.584,18.627 11.584,18.611 11.584,18.595 C11.567,18.595 11.551,18.595 11.535,18.595 C11.535,18.579 11.535,18.562 11.535,18.546 C11.519,18.546 11.502,18.546 11.486,18.546 C11.486,18.530 11.486,18.514 11.486,18.498 C11.470,18.498 11.453,18.498 11.437,18.498 C11.437,18.482 11.437,18.466 11.437,18.449 C11.421,18.449 11.404,18.449 11.388,18.449 C11.388,18.433 11.388,18.417 11.388,18.401 C11.372,18.401 11.355,18.401 11.339,18.401 C11.339,18.385 11.339,18.368 11.339,18.353 C11.323,18.353 11.307,18.353 11.290,18.353 C11.290,18.336 11.290,18.320 11.290,18.304 C11.274,18.304 11.258,18.304 11.241,18.304 C11.241,18.288 11.241,18.272 11.241,18.256 C11.225,18.256 11.209,18.256 11.192,18.256 C11.192,18.240 11.192,18.223 11.192,18.208 C11.176,18.208 11.160,18.208 11.143,18.208 C11.143,18.191 11.143,18.176 11.143,18.159 C11.127,18.159 11.111,18.159 11.094,18.159 C11.094,18.143 11.094,18.127 11.094,18.111 C11.078,18.111 11.062,18.111 11.046,18.111 C11.046,18.095 11.046,18.079 11.046,18.062 C11.029,18.062 11.013,18.062 10.997,18.062 C10.997,18.046 10.997,18.030 10.997,18.014 C10.980,18.014 10.964,18.014 10.948,18.014 C10.948,17.998 10.948,17.982 10.948,17.966 C10.931,17.966 10.915,17.966 10.899,17.966 C10.899,17.950 10.899,17.934 10.899,17.917 C10.882,17.917 10.866,17.917 10.850,17.917 C10.850,17.902 10.850,17.886 10.850,17.869 C10.833,17.869 10.817,17.869 10.801,17.869 C10.801,17.853 10.801,17.837 10.801,17.821 C10.785,17.821 10.768,17.821 10.752,17.821 C10.752,17.805 10.752,17.788 10.752,17.773 C10.736,17.773 10.719,17.773 10.703,17.773 C10.703,17.756 10.703,17.740 10.703,17.724 C10.687,17.724 10.670,17.724 10.654,17.724 C10.654,17.708 10.654,17.692 10.654,17.676 C10.638,17.676 10.621,17.676 10.605,17.676 C10.605,17.659 10.605,17.643 10.605,17.627 C10.589,17.627 10.573,17.627 10.556,17.627 C10.556,17.611 10.556,17.595 10.556,17.579 C10.540,17.579 10.524,17.579 10.507,17.579 C10.507,17.563 10.507,17.547 10.507,17.531 C10.491,17.531 10.475,17.531 10.458,17.531 C10.458,17.514 10.458,17.498 10.458,17.482 C10.442,17.482 10.426,17.482 10.409,17.482 C10.409,17.466 10.409,17.450 10.409,17.434 C10.393,17.434 10.377,17.434 10.360,17.434 C10.360,17.418 10.360,17.402 10.360,17.385 C10.344,17.385 10.328,17.385 10.311,17.385 C10.311,17.370 10.311,17.353 10.311,17.337 C10.295,17.337 10.279,17.337 10.263,17.337 C10.263,17.321 10.263,17.305 10.263,17.288 C10.246,17.288 10.230,17.288 10.214,17.288 C10.214,17.272 10.214,17.257 10.214,17.241 C10.197,17.241 10.181,17.241 10.165,17.241 C10.165,17.224 10.165,17.208 10.165,17.192 C10.148,17.192 10.132,17.192 10.116,17.192 C10.116,17.176 10.116,17.160 10.116,17.144 C10.099,17.144 10.083,17.144 10.067,17.144 C10.067,17.128 10.067,17.111 10.067,17.095 C10.051,17.095 10.034,17.095 10.018,17.095 C10.018,17.079 10.018,17.063 10.018,17.047 C10.002,17.047 9.985,17.047 9.969,17.047 C9.969,17.031 9.969,17.015 9.969,16.998 C9.953,16.998 9.936,16.998 9.920,16.998 C9.920,16.983 9.920,16.966 9.920,16.950 C9.904,16.950 9.887,16.950 9.871,16.950 C9.871,16.934 9.871,16.918 9.871,16.902 C9.855,16.902 9.839,16.902 9.822,16.902 C9.822,16.886 9.822,16.870 9.822,16.853 C9.806,16.853 9.790,16.853 9.773,16.853 C9.773,16.838 9.773,16.821 9.773,16.805 C9.757,16.805 9.741,16.805 9.724,16.805 C9.724,16.789 9.724,16.773 9.724,16.757 C9.708,16.757 9.692,16.757 9.675,16.757 C9.675,16.740 9.675,16.725 9.675,16.708 C9.659,16.708 9.643,16.708 9.626,16.708 C9.626,16.692 9.626,16.676 9.626,16.660 C9.610,16.660 9.594,16.660 9.577,16.660 C9.577,16.644 9.577,16.628 9.577,16.612 C9.561,16.612 9.545,16.612 9.528,16.612 C9.528,16.595 9.528,16.579 9.528,16.563 C9.512,16.563 9.496,16.563 9.480,16.563 C9.480,16.547 9.480,16.531 9.480,16.515 C9.463,16.515 9.447,16.515 9.431,16.515 C9.431,16.499 9.431,16.483 9.431,16.466 C9.414,16.466 9.398,16.466 9.382,16.466 C9.382,16.451 9.382,16.434 9.382,16.418 C9.365,16.418 9.349,16.418 9.333,16.418 C9.333,16.402 9.333,16.386 9.333,16.370 C9.316,16.370 9.300,16.370 9.284,16.370 C9.284,16.354 9.284,16.338 9.284,16.322 C9.268,16.322 9.251,16.322 9.235,16.322 C9.235,16.305 9.235,16.289 9.235,16.273 C9.219,16.273 9.202,16.273 9.186,16.273 C9.186,16.257 9.186,16.241 9.186,16.225 C9.170,16.225 9.153,16.225 9.137,16.225 C9.137,16.209 9.137,16.193 9.137,16.176 C9.121,16.176 9.104,16.176 9.088,16.176 C9.088,16.160 9.088,16.144 9.088,16.128 C9.072,16.128 9.055,16.128 9.039,16.128 C9.039,16.112 9.039,16.095 9.039,16.080 C9.023,16.080 9.007,16.080 8.990,16.080 C8.990,16.063 8.990,16.047 8.990,16.031 C8.974,16.031 8.958,16.031 8.941,16.031 C8.941,16.015 8.941,15.999 8.941,15.983 C8.925,15.983 8.909,15.983 8.892,15.983 C8.892,15.967 8.892,15.950 8.892,15.935 C8.876,15.935 8.860,15.935 8.843,15.935 C8.843,15.919 8.843,15.903 8.843,15.887 C8.827,15.887 8.811,15.887 8.794,15.887 C8.794,15.870 8.794,15.854 8.794,15.838 C8.778,15.838 8.762,15.838 8.746,15.838 C8.746,15.822 8.746,15.806 8.746,15.789 C8.729,15.789 8.713,15.789 8.697,15.789 C8.697,15.774 8.697,15.757 8.697,15.742 C8.680,15.742 8.664,15.742 8.648,15.742 C8.648,15.725 8.648,15.709 8.648,15.693 C8.631,15.693 8.615,15.693 8.599,15.693 C8.599,15.677 8.599,15.661 8.599,15.645 C8.582,15.645 8.566,15.645 8.550,15.645 C8.550,15.628 8.550,15.612 8.550,15.596 C8.534,15.596 8.517,15.596 8.501,15.596 C8.501,15.580 8.501,15.564 8.501,15.548 C8.485,15.548 8.468,15.548 8.452,15.548 C8.452,15.532 8.452,15.515 8.452,15.500 C8.436,15.500 8.419,15.500 8.403,15.500 C8.403,15.483 8.403,15.467 8.403,15.451 C8.387,15.451 8.370,15.451 8.354,15.451 C8.354,15.435 8.354,15.418 8.354,15.403 C8.338,15.403 8.321,15.403 8.305,15.403 C8.305,15.387 8.305,15.370 8.305,15.354 C8.289,15.354 8.272,15.354 8.256,15.354 C8.256,15.338 8.256,15.322 8.256,15.306 C8.240,15.306 8.224,15.306 8.207,15.306 C8.207,15.290 8.207,15.274 8.207,15.257 C8.191,15.257 8.175,15.257 8.158,15.257 C8.158,15.241 8.158,15.225 8.158,15.209 C8.142,15.209 8.126,15.209 8.109,15.209 C8.109,15.193 8.109,15.177 8.109,15.161 C8.093,15.161 8.077,15.161 8.060,15.161 C8.060,15.144 8.060,15.129 8.060,15.113 C8.044,15.113 8.028,15.113 8.011,15.113 C8.011,15.096 8.011,15.080 8.011,15.064 C7.995,15.064 7.979,15.064 7.963,15.064 C7.963,15.048 7.963,15.032 7.963,15.016 C7.946,15.016 7.930,15.016 7.914,15.016 C7.914,14.999 7.914,14.983 7.914,14.967 C7.897,14.967 7.881,14.967 7.865,14.967 C7.865,14.951 7.865,14.935 7.865,14.919 C7.848,14.919 7.832,14.919 7.816,14.919 C7.816,14.903 7.816,14.887 7.816,14.871 C7.800,14.871 7.783,14.871 7.767,14.871 C7.767,14.855 7.767,14.839 7.767,14.822 C7.751,14.822 7.734,14.822 7.718,14.822 C7.718,14.806 7.718,14.790 7.718,14.774 C7.702,14.774 7.685,14.774 7.669,14.774 C7.669,14.758 7.669,14.742 7.669,14.726 C7.653,14.726 7.636,14.726 7.620,14.726 C7.620,14.709 7.620,14.694 7.620,14.677 C7.604,14.677 7.587,14.677 7.571,14.677 C7.571,14.661 7.571,14.645 7.571,14.629 C7.555,14.629 7.538,14.629 7.522,14.629 C7.522,14.612 7.522,14.597 7.522,14.580 C7.506,14.580 7.489,14.580 7.473,14.580 C7.473,14.565 7.473,14.548 7.473,14.532 C7.457,14.532 7.441,14.532 7.424,14.532 C7.424,14.516 7.424,14.500 7.424,14.484 C7.408,14.484 7.392,14.484 7.375,14.484 C7.375,14.468 7.375,14.451 7.375,14.435 C7.359,14.435 7.343,14.435 7.326,14.435 C7.326,14.419 7.326,14.403 7.326,14.387 C7.310,14.387 7.294,14.387 7.277,14.387 C7.277,14.371 7.277,14.355 7.277,14.338 C7.261,14.338 7.245,14.338 7.229,14.338 C7.229,14.322 7.229,14.306 7.229,14.291 C7.212,14.291 7.196,14.291 7.180,14.291 C7.180,14.274 7.180,14.258 7.180,14.242 C7.163,14.242 7.147,14.242 7.131,14.242 C7.131,14.226 7.131,14.209 7.131,14.193 C7.114,14.193 7.098,14.193 7.082,14.193 C7.082,14.177 7.082,14.161 7.082,14.145 C7.065,14.145 7.049,14.145 7.033,14.145 C7.033,14.129 7.033,14.113 7.033,14.096 C7.017,14.096 7.000,14.096 6.984,14.096 C6.984,14.081 6.984,14.065 6.984,14.049 C6.968,14.049 6.951,14.049 6.935,14.049 C6.935,14.032 6.935,14.016 6.935,14.000 C6.919,14.000 6.902,14.000 6.886,14.000 C6.886,13.984 6.886,13.968 6.886,13.952 C6.870,13.952 6.853,13.952 6.837,13.952 C6.837,13.936 6.837,13.919 6.837,13.903 C6.821,13.903 6.804,13.903 6.788,13.903 C6.788,13.887 6.788,13.871 6.788,13.855 C6.772,13.855 6.755,13.855 6.739,13.855 C6.739,13.839 6.739,13.823 6.739,13.807 C6.723,13.807 6.707,13.807 6.690,13.807 C6.690,13.791 6.690,13.775 6.690,13.759 C6.674,13.759 6.658,13.759 6.641,13.759 C6.641,13.742 6.641,13.726 6.641,13.710 C6.625,13.710 6.609,13.710 6.592,13.710 C6.592,13.694 6.592,13.678 6.592,13.662 C6.576,13.662 6.560,13.662 6.543,13.662 C6.543,13.646 6.543,13.629 6.543,13.613 C6.527,13.613 6.511,13.613 6.495,13.613 C6.495,13.597 6.495,13.581 6.495,13.564 C6.478,13.564 6.462,13.564 6.446,13.564 C6.446,13.549 6.446,13.533 6.446,13.517 C6.429,13.517 6.413,13.517 6.397,13.517 C6.397,13.500 6.397,13.484 6.397,13.468 C6.380,13.468 6.364,13.468 6.348,13.468 C6.348,13.452 6.348,13.436 6.348,13.420 C6.331,13.420 6.315,13.420 6.299,13.420 C6.299,13.404 6.299,13.388 6.299,13.371 C6.282,13.371 6.266,13.371 6.250,13.371 C6.250,13.355 6.250,13.339 6.250,13.323 C6.233,13.323 6.217,13.323 6.201,13.323 C6.201,13.307 6.201,13.291 6.201,13.274 C6.185,13.274 6.168,13.274 6.152,13.274 C6.152,13.258 6.152,13.242 6.152,13.226 C6.136,13.226 6.119,13.226 6.103,13.226 C6.103,13.210 6.103,13.194 6.103,13.178 C6.087,13.178 6.070,13.178 6.054,13.178 C6.054,13.162 6.054,13.146 6.054,13.129 C6.038,13.129 6.021,13.129 6.005,13.129 C6.005,13.113 6.005,13.097 6.005,13.081 C5.989,13.081 5.972,13.081 5.956,13.081 C5.956,13.065 5.956,13.049 5.956,13.033 C5.940,13.033 5.924,13.033 5.907,13.033 C5.907,13.017 5.907,13.001 5.907,12.984 C5.891,12.984 5.875,12.984 5.858,12.984 C5.858,12.968 5.858,12.952 5.858,12.936 C5.842,12.936 5.826,12.936 5.809,12.936 C5.809,12.920 5.809,12.904 5.809,12.888 C5.793,12.888 5.777,12.888 5.760,12.888 C5.760,12.872 5.760,12.855 5.760,12.839 C5.744,12.839 5.728,12.839 5.712,12.839 C5.712,12.823 5.712,12.807 5.712,12.791 C5.695,12.791 5.679,12.791 5.663,12.791 C5.663,12.775 5.663,12.758 5.663,12.743 C5.646,12.743 5.630,12.743 5.614,12.743 C5.614,12.727 5.614,12.711 5.614,12.694 C5.597,12.694 5.581,12.694 5.565,12.694 C5.565,12.678 5.565,12.662 5.565,12.645 C5.548,12.645 5.532,12.645 5.516,12.645 C5.516,12.630 5.516,12.614 5.516,12.598 C5.499,12.598 5.483,12.598 5.467,12.598 C5.467,12.581 5.467,12.565 5.467,12.549 C5.450,12.549 5.434,12.549 5.418,12.549 C5.418,12.533 5.418,12.517 5.418,12.501 C5.402,12.501 5.385,12.501 5.369,12.501 C5.369,12.484 5.369,12.469 5.369,12.452 C5.353,12.452 5.336,12.452 5.320,12.452 C5.320,12.437 5.320,12.420 5.320,12.404 C5.304,12.404 5.287,12.404 5.271,12.404 C5.271,12.388 5.271,12.372 5.271,12.356 C5.255,12.356 5.238,12.356 5.222,12.356 C5.222,12.340 5.222,12.324 5.222,12.307 C5.206,12.307 5.190,12.307 5.173,12.307 C5.173,12.291 5.173,12.275 5.173,12.259 C5.157,12.259 5.141,12.259 5.124,12.259 C5.124,12.243 5.124,12.226 5.124,12.210 C5.108,12.210 5.092,12.210 5.075,12.210 C5.075,12.195 5.075,12.178 5.075,12.163 C5.059,12.163 5.043,12.163 5.026,12.163 C5.026,12.146 5.026,12.130 5.026,12.114 C5.010,12.114 4.994,12.114 4.978,12.114 C4.978,12.098 4.978,12.082 4.978,12.065 C4.961,12.065 4.945,12.065 4.929,12.065 C4.929,12.050 4.929,12.033 4.929,12.017 C4.912,12.017 4.896,12.017 4.880,12.017 C4.880,12.001 4.880,11.985 4.880,11.969 C4.863,11.969 4.847,11.969 4.831,11.969 C4.831,11.953 4.831,11.936 4.831,11.920 C4.814,11.920 4.798,11.920 4.782,11.920 C4.782,11.904 4.782,11.888 4.782,11.872 C4.765,11.872 4.749,11.872 4.733,11.872 C4.733,11.856 4.733,11.840 4.733,11.824 C4.716,11.824 4.700,11.824 4.684,11.824 C4.684,11.808 4.684,11.792 4.684,11.775 C4.668,11.775 4.651,11.775 4.635,11.775 C4.635,11.759 4.635,11.743 4.635,11.727 C4.619,11.727 4.602,11.727 4.586,11.727 C4.586,11.711 4.586,11.695 4.586,11.679 C4.570,11.679 4.553,11.679 4.537,11.679 C4.537,11.663 4.537,11.646 4.537,11.631 C4.521,11.631 4.504,11.631 4.488,11.631 C4.488,11.615 4.488,11.598 4.488,11.582 C4.472,11.582 4.456,11.582 4.439,11.582 C4.439,11.566 4.439,11.550 4.439,11.534 C4.423,11.534 4.407,11.534 4.390,11.534 C4.390,11.518 4.390,11.501 4.390,11.485 C4.374,11.485 4.358,11.485 4.341,11.485 C4.341,11.469 4.341,11.453 4.341,11.437 C4.325,11.437 4.309,11.437 4.292,11.437 C4.292,11.421 4.292,11.405 4.292,11.388 C4.276,11.388 4.260,11.388 4.243,11.388 C4.243,11.373 4.243,11.356 4.243,11.340 C4.227,11.340 4.211,11.340 4.195,11.340 C4.195,11.324 4.195,11.308 4.195,11.292 C4.178,11.292 4.162,11.292 4.146,11.292 C4.146,11.276 4.146,11.260 4.146,11.243 C4.129,11.243 4.113,11.243 4.097,11.243 C4.097,11.227 4.097,11.211 4.097,11.195 C4.080,11.195 4.064,11.195 4.048,11.195 C4.048,11.179 4.048,11.163 4.048,11.147 C4.031,11.147 4.015,11.147 3.999,11.147 C3.999,11.130 3.999,11.114 3.999,11.098 C3.982,11.098 3.966,11.098 3.950,11.098 C3.950,11.082 3.950,11.066 3.950,11.050 C3.933,11.050 3.917,11.050 3.901,11.050 C3.901,11.034 3.901,11.017 3.901,11.001 C3.885,11.001 3.868,11.001 3.852,11.001 C3.852,10.986 3.852,10.969 3.852,10.953 C3.836,10.953 3.819,10.953 3.803,10.953 C3.803,10.937 3.803,10.921 3.803,10.905 C3.787,10.905 3.770,10.905 3.754,10.905 C3.754,10.888 3.754,10.873 3.754,10.856 C3.738,10.856 3.721,10.856 3.705,10.856 C3.705,10.840 3.705,10.824 3.705,10.808 C3.689,10.808 3.673,10.808 3.656,10.808 C3.656,10.792 3.656,10.776 3.656,10.760 C3.640,10.760 3.624,10.760 3.607,10.760 C3.607,10.744 3.607,10.727 3.607,10.711 C3.591,10.711 3.575,10.711 3.558,10.711 C3.558,10.695 3.558,10.679 3.558,10.663 C3.542,10.663 3.526,10.663 3.509,10.663 C3.509,10.647 3.509,10.631 3.509,10.615 C3.493,10.615 3.477,10.615 3.460,10.615 C3.460,10.599 3.460,10.583 3.460,10.567 C3.444,10.567 3.428,10.567 3.411,10.567 C3.394,10.472 3.394,10.468 3.411,10.373 C3.428,10.373 3.444,10.373 3.460,10.373 C3.460,10.357 3.460,10.341 3.460,10.325 C3.477,10.325 3.493,10.325 3.509,10.325 C3.509,10.308 3.509,10.292 3.509,10.276 C3.526,10.276 3.542,10.276 3.558,10.276 C3.558,10.260 3.558,10.244 3.558,10.228 C3.575,10.228 3.591,10.228 3.607,10.228 C3.607,10.212 3.607,10.196 3.607,10.179 C3.624,10.179 3.640,10.179 3.656,10.179 C3.656,10.163 3.656,10.147 3.656,10.131 C3.673,10.131 3.689,10.131 3.705,10.131 C3.705,10.115 3.705,10.099 3.705,10.082 C3.721,10.082 3.738,10.082 3.754,10.082 C3.754,10.066 3.754,10.050 3.754,10.035 C3.770,10.035 3.787,10.035 3.803,10.035 C3.803,10.018 3.803,10.002 3.803,9.986 C3.819,9.986 3.836,9.986 3.852,9.986 C3.852,9.969 3.852,9.953 3.852,9.938 C3.868,9.938 3.885,9.938 3.901,9.938 C3.901,9.922 3.901,9.905 3.901,9.889 C3.917,9.889 3.933,9.889 3.950,9.889 C3.950,9.873 3.950,9.857 3.950,9.841 C3.966,9.841 3.982,9.841 3.999,9.841 C3.999,9.825 3.999,9.809 3.999,9.792 C4.015,9.792 4.031,9.792 4.048,9.792 C4.048,9.776 4.048,9.760 4.048,9.744 C4.064,9.744 4.080,9.744 4.097,9.744 C4.097,9.728 4.097,9.712 4.097,9.696 C4.113,9.696 4.129,9.696 4.146,9.696 C4.146,9.679 4.146,9.664 4.146,9.648 C4.162,9.648 4.178,9.648 4.195,9.648 C4.195,9.631 4.195,9.615 4.195,9.599 C4.211,9.599 4.227,9.599 4.243,9.599 C4.243,9.583 4.243,9.567 4.243,9.551 C4.260,9.551 4.276,9.551 4.292,9.551 C4.292,9.534 4.292,9.519 4.292,9.502 C4.309,9.502 4.325,9.502 4.341,9.502 C4.341,9.487 4.341,9.470 4.341,9.454 C4.358,9.454 4.374,9.454 4.390,9.454 C4.390,9.438 4.390,9.422 4.390,9.406 C4.407,9.406 4.423,9.406 4.439,9.406 C4.439,9.390 4.439,9.373 4.439,9.357 C4.456,9.357 4.472,9.357 4.488,9.357 C4.488,9.341 4.488,9.325 4.488,9.309 C4.504,9.309 4.521,9.309 4.537,9.309 C4.537,9.293 4.537,9.277 4.537,9.260 C4.553,9.260 4.570,9.260 4.586,9.260 C4.586,9.244 4.586,9.228 4.586,9.212 C4.602,9.212 4.619,9.212 4.635,9.212 C4.635,9.196 4.635,9.180 4.635,9.164 C4.651,9.164 4.668,9.164 4.684,9.164 C4.684,9.148 4.684,9.132 4.684,9.115 C4.700,9.115 4.716,9.115 4.733,9.115 C4.733,9.099 4.733,9.083 4.733,9.067 C4.749,9.067 4.765,9.067 4.782,9.067 C4.782,9.051 4.782,9.034 4.782,9.019 C4.798,9.019 4.814,9.019 4.831,9.019 C4.831,9.002 4.831,8.987 4.831,8.970 C4.847,8.970 4.863,8.970 4.880,8.970 C4.880,8.954 4.880,8.938 4.880,8.921 C4.896,8.921 4.912,8.921 4.929,8.921 C4.929,8.906 4.929,8.890 4.929,8.874 C4.945,8.874 4.961,8.874 4.978,8.874 C4.978,8.858 4.978,8.842 4.978,8.825 C4.994,8.825 5.010,8.825 5.026,8.825 C5.026,8.809 5.026,8.793 5.026,8.777 C5.043,8.777 5.059,8.777 5.075,8.777 C5.075,8.761 5.075,8.744 5.075,8.728 C5.092,8.728 5.108,8.728 5.124,8.728 C5.124,8.712 5.124,8.696 5.124,8.680 C5.141,8.680 5.157,8.680 5.173,8.680 C5.173,8.664 5.173,8.648 5.173,8.632 C5.190,8.632 5.206,8.632 5.222,8.632 C5.222,8.616 5.222,8.600 5.222,8.584 C5.238,8.584 5.255,8.584 5.271,8.584 C5.271,8.567 5.271,8.551 5.271,8.535 C5.287,8.535 5.304,8.535 5.320,8.535 C5.320,8.519 5.320,8.503 5.320,8.487 C5.336,8.487 5.353,8.487 5.369,8.487 C5.369,8.471 5.369,8.454 5.369,8.439 C5.385,8.439 5.402,8.439 5.418,8.439 C5.418,8.422 5.418,8.407 5.418,8.390 C5.434,8.390 5.450,8.390 5.467,8.390 C5.467,8.374 5.467,8.358 5.467,8.342 C5.483,8.342 5.499,8.342 5.516,8.342 C5.516,8.325 5.516,8.310 5.516,8.293 C5.532,8.293 5.548,8.293 5.565,8.293 C5.565,8.277 5.565,8.261 5.565,8.245 C5.581,8.245 5.597,8.245 5.614,8.245 C5.614,8.229 5.614,8.212 5.614,8.196 C5.630,8.196 5.646,8.196 5.663,8.196 C5.663,8.181 5.663,8.164 5.663,8.148 C5.679,8.148 5.695,8.148 5.712,8.148 C5.712,8.132 5.712,8.116 5.712,8.100 C5.728,8.100 5.744,8.100 5.760,8.100 C5.760,8.084 5.760,8.068 5.760,8.051 C5.777,8.051 5.793,8.051 5.809,8.051 C5.809,8.035 5.809,8.019 5.809,8.003 C5.826,8.003 5.842,8.003 5.858,8.003 C5.858,7.987 5.858,7.971 5.858,7.955 C5.875,7.955 5.891,7.955 5.907,7.955 C5.907,7.938 5.907,7.922 5.907,7.906 C5.924,7.906 5.940,7.906 5.956,7.906 C5.956,7.890 5.956,7.874 5.956,7.858 C5.972,7.858 5.989,7.858 6.005,7.858 C6.005,7.842 6.005,7.826 6.005,7.810 C6.021,7.810 6.038,7.810 6.054,7.810 C6.054,7.794 6.054,7.777 6.054,7.761 C6.070,7.761 6.087,7.761 6.103,7.761 C6.103,7.745 6.103,7.729 6.103,7.713 C6.119,7.713 6.136,7.713 6.152,7.713 C6.152,7.697 6.152,7.681 6.152,7.664 C6.168,7.664 6.185,7.664 6.201,7.664 C6.201,7.648 6.201,7.632 6.201,7.616 C6.217,7.616 6.233,7.616 6.250,7.616 C6.250,7.600 6.250,7.584 6.250,7.568 C6.266,7.568 6.282,7.568 6.299,7.568 C6.299,7.552 6.299,7.536 6.299,7.520 C6.315,7.520 6.331,7.520 6.348,7.520 C6.348,7.504 6.348,7.487 6.348,7.471 C6.364,7.471 6.380,7.471 6.397,7.471 C6.397,7.455 6.397,7.439 6.397,7.423 C6.413,7.423 6.429,7.423 6.446,7.423 C6.446,7.406 6.446,7.391 6.446,7.374 C6.462,7.374 6.478,7.374 6.495,7.374 C6.495,7.359 6.495,7.342 6.495,7.326 C6.511,7.326 6.527,7.326 6.543,7.326 C6.543,7.310 6.543,7.294 6.543,7.277 C6.560,7.277 6.576,7.277 6.592,7.277 C6.592,7.262 6.592,7.246 6.592,7.229 C6.609,7.229 6.625,7.229 6.641,7.229 C6.641,7.213 6.641,7.197 6.641,7.181 C6.658,7.181 6.674,7.181 6.690,7.181 C6.690,7.165 6.690,7.149 6.690,7.133 C6.707,7.133 6.723,7.133 6.739,7.133 C6.739,7.116 6.739,7.100 6.739,7.085 C6.755,7.085 6.772,7.085 6.788,7.085 C6.788,7.068 6.788,7.052 6.788,7.036 C6.804,7.036 6.821,7.036 6.837,7.036 C6.837,7.020 6.837,7.003 6.837,6.987 C6.853,6.987 6.870,6.987 6.886,6.987 C6.886,6.972 6.886,6.955 6.886,6.939 C6.902,6.939 6.919,6.939 6.935,6.939 C6.935,6.923 6.935,6.907 6.935,6.891 C6.951,6.891 6.968,6.891 6.984,6.891 C6.984,6.874 6.984,6.858 6.984,6.842 C7.000,6.842 7.017,6.842 7.033,6.842 C7.033,6.826 7.033,6.810 7.033,6.794 C7.049,6.794 7.065,6.794 7.082,6.794 C7.082,6.778 7.082,6.762 7.082,6.746 C7.098,6.746 7.114,6.746 7.131,6.746 C7.131,6.729 7.131,6.713 7.131,6.697 C7.147,6.697 7.163,6.697 7.180,6.697 C7.180,6.681 7.180,6.665 7.180,6.649 C7.196,6.649 7.212,6.649 7.229,6.649 C7.229,6.633 7.229,6.617 7.229,6.600 C7.245,6.600 7.261,6.600 7.277,6.600 C7.277,6.584 7.277,6.568 7.277,6.552 C7.294,6.552 7.310,6.552 7.326,6.552 C7.326,6.536 7.326,6.520 7.326,6.504 C7.343,6.504 7.359,6.504 7.375,6.504 C7.375,6.488 7.375,6.472 7.375,6.456 C7.392,6.456 7.408,6.456 7.424,6.456 C7.424,6.440 7.424,6.423 7.424,6.407 C7.441,6.407 7.457,6.407 7.473,6.407 C7.473,6.391 7.473,6.375 7.473,6.359 C7.489,6.359 7.506,6.359 7.522,6.359 C7.522,6.343 7.522,6.327 7.522,6.310 C7.538,6.310 7.555,6.310 7.571,6.310 C7.571,6.294 7.571,6.278 7.571,6.262 C7.587,6.262 7.604,6.262 7.620,6.262 C7.620,6.246 7.620,6.229 7.620,6.214 C7.636,6.214 7.653,6.214 7.669,6.214 C7.669,6.198 7.669,6.181 7.669,6.166 C7.685,6.166 7.702,6.166 7.718,6.166 C7.718,6.149 7.718,6.133 7.718,6.117 C7.734,6.117 7.751,6.117 7.767,6.117 C7.767,6.101 7.767,6.085 7.767,6.068 C7.783,6.068 7.800,6.068 7.816,6.068 C7.816,6.052 7.816,6.037 7.816,6.020 C7.832,6.020 7.848,6.020 7.865,6.020 C7.865,6.004 7.865,5.988 7.865,5.972 C7.881,5.972 7.897,5.972 7.914,5.972 C7.914,5.956 7.914,5.940 7.914,5.923 C7.930,5.923 7.946,5.923 7.963,5.923 C7.963,5.908 7.963,5.891 7.963,5.875 C7.979,5.875 7.995,5.875 8.011,5.875 C8.011,5.859 8.011,5.843 8.011,5.827 C8.028,5.827 8.044,5.827 8.060,5.827 C8.060,5.811 8.060,5.794 8.060,5.778 C8.077,5.778 8.093,5.778 8.109,5.778 C8.109,5.762 8.109,5.746 8.109,5.730 C8.126,5.730 8.142,5.730 8.158,5.730 C8.158,5.713 8.158,5.698 8.158,5.682 C8.175,5.682 8.191,5.682 8.207,5.682 C8.207,5.666 8.207,5.649 8.207,5.633 C8.224,5.633 8.240,5.633 8.256,5.633 C8.256,5.617 8.256,5.601 8.256,5.585 C8.272,5.585 8.289,5.585 8.305,5.585 C8.305,5.569 8.305,5.553 8.305,5.536 C8.321,5.536 8.338,5.536 8.354,5.536 C8.354,5.521 8.354,5.504 8.354,5.488 C8.370,5.488 8.387,5.488 8.403,5.488 C8.403,5.472 8.403,5.456 8.403,5.440 C8.419,5.440 8.436,5.440 8.452,5.440 C8.452,5.424 8.452,5.408 8.452,5.392 C8.468,5.392 8.485,5.392 8.501,5.392 C8.501,5.376 8.501,5.359 8.501,5.343 C8.517,5.343 8.534,5.343 8.550,5.343 C8.550,5.328 8.550,5.311 8.550,5.295 C8.566,5.295 8.582,5.295 8.599,5.295 C8.599,5.279 8.599,5.262 8.599,5.246 C8.615,5.246 8.631,5.246 8.648,5.246 C8.648,5.230 8.648,5.214 8.648,5.198 C8.664,5.198 8.680,5.198 8.697,5.198 C8.697,5.182 8.697,5.166 8.697,5.149 C8.713,5.149 8.729,5.149 8.746,5.149 C8.746,5.133 8.746,5.118 8.746,5.102 C8.762,5.102 8.778,5.102 8.794,5.102 C8.794,5.085 8.794,5.069 8.794,5.053 C8.811,5.053 8.827,5.053 8.843,5.053 C8.843,5.037 8.843,5.021 8.843,5.004 C8.860,5.004 8.876,5.004 8.892,5.004 C8.892,4.989 8.892,4.972 8.892,4.957 C8.909,4.957 8.925,4.957 8.941,4.957 C8.941,4.940 8.941,4.924 8.941,4.908 C8.958,4.908 8.974,4.908 8.990,4.908 C8.990,4.892 8.990,4.875 8.990,4.860 C9.007,4.860 9.023,4.860 9.039,4.860 C9.039,4.843 9.039,4.828 9.039,4.811 C9.055,4.811 9.072,4.811 9.088,4.811 C9.088,4.795 9.088,4.779 9.088,4.763 C9.104,4.763 9.121,4.763 9.137,4.763 C9.137,4.747 9.137,4.730 9.137,4.714 C9.153,4.714 9.170,4.714 9.186,4.714 C9.186,4.698 9.186,4.682 9.186,4.666 C9.202,4.666 9.219,4.666 9.235,4.666 C9.235,4.650 9.235,4.634 9.235,4.618 C9.251,4.618 9.268,4.618 9.284,4.618 C9.284,4.601 9.284,4.585 9.284,4.569 C9.300,4.569 9.316,4.569 9.333,4.569 C9.333,4.553 9.333,4.537 9.333,4.521 C9.349,4.521 9.365,4.521 9.382,4.521 C9.382,4.505 9.382,4.489 9.382,4.473 C9.398,4.473 9.414,4.473 9.431,4.473 C9.431,4.457 9.431,4.440 9.431,4.424 C9.447,4.424 9.463,4.424 9.480,4.424 C9.480,4.408 9.480,4.393 9.480,4.376 C9.496,4.376 9.512,4.376 9.528,4.376 C9.528,4.360 9.528,4.344 9.528,4.328 C9.545,4.328 9.561,4.328 9.577,4.328 C9.577,4.312 9.577,4.295 9.577,4.279 C9.594,4.279 9.610,4.279 9.626,4.279 C9.626,4.263 9.626,4.247 9.626,4.231 C9.643,4.231 9.659,4.231 9.675,4.231 C9.675,4.215 9.675,4.199 9.675,4.183 C9.692,4.183 9.708,4.183 9.724,4.183 C9.724,4.166 9.724,4.150 9.724,4.134 C9.741,4.134 9.757,4.134 9.773,4.134 C9.773,4.119 9.773,4.101 9.773,4.086 C9.790,4.086 9.806,4.086 9.822,4.086 C9.822,4.070 9.822,4.054 9.822,4.037 C9.839,4.037 9.855,4.037 9.871,4.037 C9.871,4.021 9.871,4.005 9.871,3.989 C9.887,3.989 9.904,3.989 9.920,3.989 C9.920,3.973 9.920,3.957 9.920,3.941 C9.936,3.941 9.953,3.941 9.969,3.941 C9.969,3.924 9.969,3.908 9.969,3.892 C9.985,3.892 10.002,3.892 10.018,3.892 C10.018,3.876 10.018,3.860 10.018,3.844 C10.034,3.844 10.051,3.844 10.067,3.844 C10.067,3.827 10.067,3.812 10.067,3.795 C10.083,3.795 10.099,3.795 10.116,3.795 C10.116,3.780 10.116,3.763 10.116,3.747 C10.132,3.747 10.148,3.747 10.165,3.747 C10.165,3.731 10.165,3.715 10.165,3.699 C10.181,3.699 10.197,3.699 10.214,3.699 C10.214,3.682 10.214,3.666 10.214,3.650 C10.230,3.650 10.246,3.650 10.263,3.650 C10.263,3.634 10.263,3.618 10.263,3.602 C10.279,3.602 10.295,3.602 10.311,3.602 C10.311,3.586 10.311,3.570 10.311,3.554 C10.328,3.554 10.344,3.554 10.360,3.554 C10.360,3.537 10.360,3.521 10.360,3.505 C10.377,3.505 10.393,3.505 10.409,3.505 C10.409,3.489 10.409,3.473 10.409,3.457 C10.426,3.457 10.442,3.457 10.458,3.457 C10.458,3.441 10.458,3.425 10.458,3.409 C10.475,3.409 10.491,3.409 10.507,3.409 C10.507,3.392 10.507,3.376 10.507,3.361 C10.524,3.361 10.540,3.361 10.556,3.361 C10.556,3.344 10.556,3.328 10.556,3.312 C10.573,3.312 10.589,3.312 10.605,3.312 C10.605,3.296 10.605,3.279 10.605,3.264 C10.621,3.264 10.638,3.264 10.654,3.264 C10.654,3.248 10.654,3.232 10.654,3.215 C10.670,3.215 10.687,3.215 10.703,3.215 C10.703,3.199 10.703,3.183 10.703,3.167 C10.719,3.167 10.736,3.167 10.752,3.167 C10.752,3.151 10.752,3.135 10.752,3.118 C10.768,3.118 10.785,3.118 10.801,3.118 C10.801,3.102 10.801,3.086 10.801,3.070 C10.817,3.070 10.833,3.070 10.850,3.070 C10.850,3.054 10.850,3.038 10.850,3.022 C10.866,3.022 10.882,3.022 10.899,3.022 C10.899,3.006 10.899,2.990 10.899,2.974 C10.915,2.974 10.931,2.974 10.948,2.974 C10.948,2.957 10.948,2.941 10.948,2.925 C10.964,2.925 10.980,2.925 10.997,2.925 C10.997,2.909 10.997,2.893 10.997,2.877 C11.013,2.877 11.029,2.877 11.046,2.877 C11.046,2.860 11.046,2.844 11.046,2.828 C11.062,2.828 11.078,2.828 11.094,2.828 C11.094,2.812 11.094,2.796 11.094,2.780 C11.111,2.780 11.127,2.780 11.143,2.780 C11.143,2.764 11.143,2.747 11.143,2.732 C11.160,2.732 11.176,2.732 11.192,2.732 C11.192,2.716 11.192,2.699 11.192,2.683 C11.209,2.683 11.225,2.683 11.241,2.683 C11.241,2.667 11.241,2.651 11.241,2.635 C11.258,2.635 11.274,2.635 11.290,2.635 C11.290,2.619 11.290,2.603 11.290,2.586 C11.307,2.586 11.323,2.586 11.339,2.586 C11.339,2.570 11.339,2.554 11.339,2.538 C11.355,2.538 11.372,2.538 11.388,2.538 C11.388,2.522 11.388,2.506 11.388,2.490 C11.404,2.490 11.421,2.490 11.437,2.490 C11.437,2.473 11.437,2.457 11.437,2.441 C11.453,2.441 11.470,2.441 11.486,2.441 C11.486,2.426 11.486,2.409 11.486,2.393 C11.502,2.393 11.519,2.393 11.535,2.393 C11.535,2.377 11.535,2.361 11.535,2.345 C11.551,2.345 11.567,2.345 11.584,2.345 C11.584,2.329 11.584,2.312 11.584,2.296 C11.600,2.296 11.616,2.296 11.633,2.296 C11.633,2.280 11.633,2.265 11.633,2.248 C11.649,2.248 11.665,2.248 11.682,2.248 C11.682,2.232 11.682,2.216 11.682,2.199 C11.698,2.199 11.714,2.199 11.731,2.199 C11.749,2.136 11.770,2.124 11.804,2.079 C11.812,2.079 11.820,2.079 11.829,2.079 C11.829,2.054 11.829,2.030 11.829,2.006 C11.845,1.998 11.861,1.990 11.877,1.982 C11.877,1.958 11.877,1.933 11.877,1.910 C11.894,1.902 11.910,1.893 11.926,1.885 C11.926,1.853 11.926,1.821 11.926,1.789 C11.934,1.789 11.943,1.789 11.951,1.789 C11.951,1.772 11.951,1.756 11.951,1.741 C11.959,1.741 11.967,1.741 11.975,1.741 C11.975,1.708 11.975,1.676 11.975,1.643 C11.983,1.643 11.992,1.643 12.000,1.643 C12.000,1.434 12.000,1.224 12.000,1.014 C11.992,1.014 11.983,1.014 11.975,1.014 C11.975,0.982 11.975,0.950 11.975,0.918 C11.967,0.918 11.959,0.918 11.951,0.918 C11.951,0.901 11.951,0.885 11.951,0.870 C11.943,0.870 11.934,0.870 11.926,0.870 C11.926,0.837 11.926,0.805 11.926,0.773 C11.910,0.765 11.894,0.757 11.877,0.749 C11.877,0.725 11.877,0.700 11.877,0.676 C11.861,0.668 11.845,0.660 11.829,0.652 C11.829,0.628 11.829,0.603 11.829,0.580 C11.820,0.580 11.812,0.580 11.804,0.580 C11.770,0.534 11.749,0.523 11.731,0.459 C11.714,0.459 11.698,0.459 11.682,0.459 C11.682,0.442 11.682,0.426 11.682,0.410 C11.665,0.410 11.649,0.410 11.633,0.410 C11.633,0.394 11.633,0.378 11.633,0.362 C11.616,0.362 11.600,0.362 11.584,0.362 C11.584,0.345 11.584,0.330 11.584,0.313 C11.567,0.313 11.551,0.313 11.535,0.313 C11.535,0.298 11.535,0.281 11.535,0.265 C11.470,0.247 11.458,0.226 11.413,0.193 C11.413,0.185 11.413,0.176 11.413,0.169 C11.388,0.169 11.364,0.169 11.339,0.169 C11.331,0.153 11.323,0.136 11.315,0.120 C11.290,0.120 11.266,0.120 11.241,0.120 C11.233,0.104 11.225,0.088 11.217,0.071 C11.184,0.071 11.152,0.071 11.119,0.071 C11.119,0.063 11.119,0.056 11.119,0.047 C11.103,0.047 11.086,0.047 11.070,0.047 C11.070,0.040 11.070,0.031 11.070,0.024 C11.037,0.024 11.005,0.024 10.972,0.024 C10.972,0.015 10.972,0.007 10.972,-0.001 C10.744,-0.001 10.515,-0.001 10.287,-0.001 C10.287,0.007 10.287,0.015 10.287,0.024 C10.254,0.024 10.222,0.024 10.189,0.024 C10.181,0.040 10.173,0.056 10.165,0.071 C10.140,0.071 10.116,0.071 10.091,0.071 C10.083,0.088 10.075,0.104 10.067,0.120 C10.042,0.120 10.018,0.120 9.993,0.120 C9.985,0.136 9.977,0.153 9.969,0.169 C9.944,0.169 9.920,0.169 9.895,0.169 C9.895,0.176 9.895,0.185 9.895,0.193 C9.850,0.226 9.838,0.247 9.773,0.265 Z"/>
</svg>