<svg 
 xmlns="http://www.w3.org/2000/svg"
 xmlns:xlink="http://www.w3.org/1999/xlink"
 width="147px" height="63px">
<path fill-rule="evenodd"  fill="rgb(232, 62, 151)"
 d="M95.086,29.851 C112.389,29.851 129.697,29.851 147.000,29.851 C147.000,31.106 147.000,32.362 147.000,33.618 C128.458,33.618 109.911,33.618 91.370,33.618 C91.333,33.510 91.297,33.403 91.260,33.295 C91.072,33.078 91.160,32.498 91.151,32.111 C91.151,31.968 91.151,31.824 91.151,31.681 C91.115,31.681 91.078,31.681 91.042,31.681 C91.042,30.963 91.042,30.245 91.042,29.528 C90.883,28.973 91.110,27.997 90.932,27.375 C90.774,26.820 91.000,25.844 90.823,25.222 C90.787,25.222 90.750,25.222 90.714,25.222 C90.714,24.684 90.714,24.146 90.714,23.608 C90.641,22.782 90.568,21.957 90.495,21.132 C90.371,21.255 90.452,21.132 90.386,21.347 C90.349,21.347 90.313,21.347 90.277,21.347 C90.277,21.419 90.277,21.491 90.277,21.563 C90.204,21.598 90.131,21.634 90.058,21.670 C90.058,21.742 90.058,21.814 90.058,21.885 C90.022,21.885 89.985,21.885 89.949,21.885 C89.949,21.957 89.949,22.029 89.949,22.101 C89.876,22.137 89.803,22.172 89.730,22.208 C89.730,22.280 89.730,22.352 89.730,22.424 C89.694,22.424 89.657,22.424 89.621,22.424 C89.621,22.495 89.621,22.567 89.621,22.639 C89.584,22.639 89.548,22.639 89.512,22.639 C89.475,22.747 89.439,22.854 89.402,22.962 C89.329,22.998 89.256,23.034 89.184,23.069 C89.147,23.213 89.111,23.356 89.074,23.500 C89.001,23.536 88.929,23.572 88.856,23.608 C88.819,23.751 88.783,23.895 88.746,24.038 C88.674,24.074 88.601,24.110 88.528,24.146 C88.491,24.289 88.455,24.433 88.419,24.576 C88.346,24.612 88.273,24.648 88.200,24.684 C88.164,24.828 88.127,24.971 88.091,25.115 C88.018,25.150 87.945,25.186 87.872,25.222 C87.836,25.366 87.799,25.509 87.763,25.653 C87.690,25.689 87.617,25.725 87.544,25.760 C87.544,25.832 87.544,25.904 87.544,25.976 C87.508,25.976 87.471,25.976 87.435,25.976 C87.435,26.047 87.435,26.119 87.435,26.191 C87.362,26.227 87.289,26.263 87.216,26.299 C87.180,26.442 87.143,26.586 87.107,26.729 C87.034,26.765 86.961,26.801 86.888,26.837 C86.852,26.980 86.816,27.124 86.779,27.267 C86.706,27.303 86.633,27.339 86.561,27.375 C86.524,27.519 86.488,27.662 86.451,27.806 C86.378,27.841 86.306,27.877 86.233,27.913 C86.196,28.057 86.160,28.200 86.123,28.344 C86.051,28.380 85.978,28.416 85.905,28.451 C85.868,28.595 85.832,28.738 85.796,28.882 C85.723,28.918 85.650,28.954 85.577,28.990 C85.541,29.133 85.504,29.277 85.468,29.420 C85.395,29.456 85.322,29.492 85.249,29.528 C85.213,29.671 85.176,29.815 85.140,29.958 C85.067,29.994 84.994,30.030 84.921,30.066 C84.885,30.209 84.848,30.353 84.812,30.497 C84.739,30.532 84.666,30.568 84.593,30.604 C84.593,30.676 84.593,30.748 84.593,30.819 C84.557,30.819 84.520,30.819 84.484,30.819 C84.484,30.891 84.484,30.963 84.484,31.035 C84.448,31.035 84.411,31.035 84.375,31.035 C84.338,31.142 84.302,31.250 84.265,31.358 C84.193,31.394 84.120,31.429 84.047,31.465 C84.010,31.609 83.974,31.752 83.938,31.896 C83.865,31.932 83.792,31.968 83.719,32.003 C83.683,32.147 83.646,32.291 83.610,32.434 C83.537,32.470 83.464,32.506 83.391,32.542 C83.355,32.685 83.318,32.829 83.282,32.972 C83.209,33.008 83.136,33.044 83.063,33.080 C83.027,33.223 82.990,33.367 82.954,33.510 C82.881,33.546 82.808,33.582 82.735,33.618 C82.699,33.762 82.662,33.905 82.626,34.049 C82.553,34.084 82.480,34.120 82.407,34.156 C82.371,34.300 82.335,34.443 82.298,34.587 C82.225,34.623 82.152,34.659 82.080,34.694 C82.043,34.838 82.007,34.981 81.970,35.125 C81.897,35.161 81.825,35.197 81.752,35.233 C81.715,35.376 81.679,35.520 81.642,35.663 C81.570,35.699 81.497,35.735 81.424,35.771 C81.387,35.914 81.351,36.058 81.314,36.201 C81.242,36.237 81.169,36.273 81.096,36.309 C81.059,36.453 81.023,36.596 80.987,36.740 C80.914,36.775 80.841,36.811 80.768,36.847 C80.732,36.991 80.695,37.134 80.659,37.278 C80.586,37.314 80.513,37.350 80.440,37.385 C80.404,37.529 80.367,37.672 80.331,37.816 C80.258,37.852 80.185,37.888 80.112,37.924 C80.076,38.067 80.039,38.211 80.003,38.354 C79.930,38.390 79.857,38.426 79.784,38.462 C79.784,38.534 79.784,38.605 79.784,38.677 C79.748,38.677 79.712,38.677 79.675,38.677 C79.639,38.785 79.602,38.892 79.566,39.000 C79.493,39.000 79.420,39.000 79.347,39.000 C79.303,38.352 78.904,37.585 78.691,37.063 C78.619,36.704 78.546,36.345 78.473,35.986 C78.436,35.986 78.400,35.986 78.364,35.986 C78.364,35.878 78.364,35.771 78.364,35.663 C78.327,35.663 78.291,35.663 78.254,35.663 C78.254,35.556 78.254,35.448 78.254,35.340 C78.218,35.340 78.181,35.340 78.145,35.340 C78.145,35.233 78.145,35.125 78.145,35.017 C78.109,35.017 78.072,35.017 78.036,35.017 C78.036,34.910 78.036,34.802 78.036,34.694 C77.999,34.694 77.963,34.694 77.926,34.694 C77.926,34.587 77.926,34.479 77.926,34.372 C77.890,34.372 77.854,34.372 77.817,34.372 C77.817,34.264 77.817,34.156 77.817,34.049 C77.781,34.049 77.744,34.049 77.708,34.049 C77.671,33.833 77.635,33.618 77.599,33.403 C77.562,33.403 77.526,33.403 77.489,33.403 C77.416,33.044 77.343,32.685 77.271,32.326 C76.765,31.082 76.357,29.596 75.850,28.344 C75.813,28.128 75.777,27.913 75.741,27.698 C75.704,27.698 75.668,27.698 75.631,27.698 C75.631,27.554 75.631,27.411 75.631,27.267 C75.595,27.267 75.558,27.267 75.522,27.267 C75.522,27.160 75.522,27.052 75.522,26.944 C75.486,26.944 75.449,26.944 75.413,26.944 C75.413,26.837 75.413,26.729 75.413,26.622 C75.376,26.622 75.340,26.622 75.303,26.622 C75.303,26.514 75.303,26.406 75.303,26.299 C75.267,26.299 75.230,26.299 75.194,26.299 C75.194,26.191 75.194,26.083 75.194,25.976 C75.158,25.976 75.121,25.976 75.085,25.976 C75.085,25.868 75.085,25.760 75.085,25.653 C75.048,25.653 75.012,25.653 74.975,25.653 C74.939,25.438 74.903,25.222 74.866,25.007 C74.830,25.007 74.793,25.007 74.757,25.007 C74.757,24.863 74.757,24.720 74.757,24.576 C74.720,24.576 74.684,24.576 74.648,24.576 C74.611,24.361 74.575,24.146 74.538,23.931 C74.156,22.986 73.853,21.873 73.445,20.917 C73.321,21.039 73.402,20.917 73.336,21.132 C73.300,21.132 73.263,21.132 73.227,21.132 C73.227,21.275 73.227,21.419 73.227,21.563 C73.190,21.563 73.154,21.563 73.117,21.563 C73.117,21.670 73.117,21.778 73.117,21.885 C73.081,21.885 73.045,21.885 73.008,21.885 C73.008,21.993 73.008,22.101 73.008,22.208 C72.972,22.208 72.935,22.208 72.899,22.208 C72.862,22.459 72.826,22.711 72.790,22.962 C72.753,22.962 72.717,22.962 72.680,22.962 C72.644,23.213 72.607,23.464 72.571,23.715 C72.535,23.715 72.498,23.715 72.462,23.715 C72.462,23.823 72.462,23.931 72.462,24.038 C72.425,24.038 72.389,24.038 72.352,24.038 C72.316,24.289 72.280,24.541 72.243,24.792 C72.207,24.792 72.170,24.792 72.134,24.792 C72.134,24.899 72.134,25.007 72.134,25.115 C72.097,25.115 72.061,25.115 72.025,25.115 C71.988,25.366 71.952,25.617 71.915,25.868 C71.879,25.868 71.842,25.868 71.806,25.868 C71.733,26.227 71.660,26.586 71.587,26.944 C71.551,26.944 71.514,26.944 71.478,26.944 C71.405,27.303 71.332,27.662 71.259,28.021 C71.223,28.021 71.187,28.021 71.150,28.021 C71.114,28.272 71.077,28.523 71.041,28.774 C71.004,28.774 70.968,28.774 70.932,28.774 C70.786,29.384 70.640,29.994 70.494,30.604 C70.458,30.604 70.422,30.604 70.385,30.604 C70.385,30.748 70.385,30.891 70.385,31.035 C70.349,31.035 70.312,31.035 70.276,31.035 C70.276,31.142 70.276,31.250 70.276,31.358 C70.239,31.358 70.203,31.358 70.167,31.358 C70.167,31.465 70.167,31.573 70.167,31.681 C70.130,31.681 70.094,31.681 70.057,31.681 C70.057,31.824 70.057,31.968 70.057,32.111 C70.021,32.111 69.984,32.111 69.948,32.111 C69.875,32.470 69.802,32.829 69.729,33.188 C69.693,33.188 69.657,33.188 69.620,33.188 C69.434,33.348 68.986,33.295 68.636,33.295 C67.799,33.295 66.961,33.295 66.123,33.295 C62.735,33.295 59.346,33.295 55.958,33.295 C55.834,33.173 55.958,33.252 55.740,33.188 C55.663,32.823 55.268,31.433 55.630,31.035 C55.750,30.557 56.078,30.346 56.396,30.066 C56.432,29.994 56.468,29.922 56.505,29.851 C57.306,29.851 58.108,29.851 58.909,29.851 C61.314,29.851 63.718,29.851 66.123,29.851 C66.137,29.341 66.310,29.326 66.451,28.990 C66.487,28.774 66.523,28.559 66.560,28.344 C66.596,28.344 66.633,28.344 66.669,28.344 C66.742,28.021 66.815,27.698 66.888,27.375 C66.924,27.375 66.961,27.375 66.997,27.375 C67.033,27.160 67.070,26.944 67.106,26.729 C67.143,26.729 67.179,26.729 67.216,26.729 C67.216,26.657 67.216,26.586 67.216,26.514 C67.252,26.514 67.288,26.514 67.325,26.514 C67.325,26.406 67.325,26.299 67.325,26.191 C67.361,26.191 67.398,26.191 67.434,26.191 C67.434,26.083 67.434,25.976 67.434,25.868 C67.471,25.868 67.507,25.868 67.543,25.868 C67.543,25.760 67.543,25.653 67.543,25.545 C67.580,25.545 67.616,25.545 67.653,25.545 C67.653,25.438 67.653,25.330 67.653,25.222 C67.689,25.222 67.726,25.222 67.762,25.222 C67.762,25.115 67.762,25.007 67.762,24.899 C67.799,24.899 67.835,24.899 67.871,24.899 C68.054,24.254 68.236,23.608 68.418,22.962 C69.253,20.912 69.880,18.660 70.713,16.611 C70.895,15.965 71.077,15.319 71.259,14.674 C71.296,14.674 71.332,14.674 71.369,14.674 C71.405,14.458 71.442,14.243 71.478,14.028 C71.514,14.028 71.551,14.028 71.587,14.028 C71.587,13.920 71.587,13.812 71.587,13.705 C71.624,13.705 71.660,13.705 71.697,13.705 C71.697,13.597 71.697,13.490 71.697,13.382 C71.733,13.382 71.770,13.382 71.806,13.382 C71.806,13.274 71.806,13.167 71.806,13.059 C71.842,13.059 71.879,13.059 71.915,13.059 C71.915,12.951 71.915,12.844 71.915,12.736 C71.952,12.736 71.988,12.736 72.025,12.736 C72.025,12.628 72.025,12.521 72.025,12.413 C72.061,12.413 72.097,12.413 72.134,12.413 C72.207,12.090 72.280,11.767 72.352,11.444 C72.389,11.444 72.425,11.444 72.462,11.444 C72.462,11.373 72.462,11.301 72.462,11.229 C72.498,11.229 72.535,11.229 72.571,11.229 C72.790,10.476 73.008,9.722 73.227,8.969 C73.300,8.969 73.372,8.969 73.445,8.969 C75.740,16.036 78.036,23.106 80.331,30.174 C80.455,30.051 80.374,30.173 80.440,29.958 C80.588,29.830 80.549,29.776 80.659,29.635 C80.695,29.635 80.732,29.635 80.768,29.635 C80.768,29.564 80.768,29.492 80.768,29.420 C80.877,29.348 80.987,29.277 81.096,29.205 C81.096,29.133 81.096,29.061 81.096,28.990 C81.132,28.990 81.169,28.990 81.205,28.990 C81.242,28.846 81.278,28.703 81.314,28.559 C81.387,28.523 81.460,28.487 81.533,28.451 C81.533,28.380 81.533,28.308 81.533,28.236 C81.570,28.236 81.606,28.236 81.642,28.236 C81.642,28.164 81.642,28.093 81.642,28.021 C81.679,28.021 81.715,28.021 81.752,28.021 C81.825,27.806 81.897,27.590 81.970,27.375 C82.116,27.267 82.262,27.160 82.407,27.052 C82.407,26.980 82.407,26.909 82.407,26.837 C82.444,26.837 82.480,26.837 82.517,26.837 C82.517,26.765 82.517,26.693 82.517,26.622 C82.553,26.622 82.590,26.622 82.626,26.622 C82.626,26.514 82.626,26.406 82.626,26.299 C82.662,26.299 82.699,26.299 82.735,26.299 C82.735,26.227 82.735,26.155 82.735,26.083 C82.808,26.047 82.881,26.012 82.954,25.976 C82.990,25.832 83.027,25.689 83.063,25.545 C83.136,25.509 83.209,25.473 83.282,25.437 C83.282,25.366 83.282,25.294 83.282,25.222 C83.355,25.186 83.428,25.150 83.500,25.115 C83.500,25.043 83.500,24.971 83.500,24.899 C83.537,24.899 83.573,24.899 83.610,24.899 C83.610,24.828 83.610,24.756 83.610,24.684 C83.646,24.684 83.683,24.684 83.719,24.684 C83.719,24.612 83.719,24.541 83.719,24.469 C83.755,24.469 83.792,24.469 83.828,24.469 C83.828,24.397 83.828,24.325 83.828,24.253 C83.865,24.253 83.901,24.253 83.938,24.253 C83.938,24.182 83.938,24.110 83.938,24.038 C86.156,20.568 88.153,16.842 90.386,13.382 C90.386,13.310 90.386,13.238 90.386,13.167 C90.422,13.167 90.459,13.167 90.495,13.167 C90.495,13.095 90.495,13.023 90.495,12.951 C90.568,12.916 90.641,12.880 90.714,12.844 C90.787,12.628 90.859,12.413 90.932,12.198 C91.005,12.162 91.078,12.126 91.151,12.090 C91.151,12.019 91.151,11.947 91.151,11.875 C91.187,11.875 91.224,11.875 91.260,11.875 C91.260,11.803 91.260,11.731 91.260,11.660 C91.333,11.624 91.406,11.588 91.479,11.552 C91.552,11.337 91.625,11.122 91.697,10.906 C91.770,10.870 91.843,10.834 91.916,10.799 C91.952,10.655 91.989,10.512 92.025,10.368 C92.098,10.332 92.171,10.296 92.244,10.260 C92.317,10.045 92.390,9.830 92.462,9.615 C92.535,9.579 92.608,9.543 92.681,9.507 C92.681,9.435 92.681,9.363 92.681,9.292 C92.717,9.292 92.754,9.292 92.790,9.292 C92.790,9.220 92.790,9.148 92.790,9.076 C92.863,9.041 92.936,9.005 93.009,8.969 C93.294,8.524 93.130,8.167 93.774,8.000 C93.774,8.036 93.774,8.072 93.774,8.108 C94.218,8.512 93.797,9.361 93.993,10.045 C94.029,10.045 94.065,10.045 94.102,10.045 C94.138,10.978 94.175,11.911 94.211,12.844 C94.211,13.238 94.211,13.633 94.211,14.028 C94.248,14.028 94.284,14.028 94.320,14.028 C94.357,14.889 94.393,15.750 94.430,16.611 C94.430,17.006 94.430,17.401 94.430,17.795 C94.466,17.795 94.503,17.795 94.539,17.795 C94.539,18.441 94.539,19.087 94.539,19.733 C94.575,19.733 94.612,19.733 94.648,19.733 C94.685,20.630 94.721,21.527 94.758,22.424 C94.758,22.818 94.758,23.213 94.758,23.608 C94.794,23.608 94.830,23.608 94.867,23.608 C94.867,24.253 94.867,24.899 94.867,25.545 C94.903,25.545 94.940,25.545 94.976,25.545 C94.976,26.514 94.976,27.483 94.976,28.451 C95.013,28.451 95.049,28.451 95.086,28.451 C95.086,28.918 95.086,29.384 95.086,29.851 ZM0.000,29.851 C12.094,29.851 24.192,29.851 36.286,29.851 C36.286,30.999 36.286,32.147 36.286,33.295 C24.192,33.295 12.094,33.295 0.000,33.295 C0.000,32.147 0.000,30.999 0.000,29.851 Z"/>
<path fill-rule="evenodd"  fill="rgb(0, 0, 0)"
 d="M36.000,-0.000 C41.108,-0.000 46.218,-0.000 51.327,-0.000 C51.327,0.146 51.327,0.292 51.327,0.437 C51.642,0.502 51.860,0.678 52.110,0.766 C52.520,0.839 52.930,0.911 53.340,0.984 C53.340,1.021 53.340,1.057 53.340,1.094 C53.489,1.130 53.639,1.167 53.788,1.203 C53.788,1.240 53.788,1.276 53.788,1.312 C54.012,1.349 54.235,1.385 54.459,1.422 C54.496,1.495 54.534,1.568 54.571,1.641 C54.646,1.641 54.720,1.641 54.795,1.641 C54.832,1.714 54.869,1.786 54.907,1.859 C55.018,1.859 55.130,1.859 55.242,1.859 C55.242,1.896 55.242,1.932 55.242,1.969 C55.354,2.005 55.466,2.042 55.578,2.078 C55.615,2.151 55.652,2.224 55.690,2.297 C55.839,2.333 55.988,2.370 56.137,2.406 C56.212,2.516 56.286,2.625 56.361,2.734 C56.473,2.771 56.585,2.807 56.697,2.844 C56.697,2.953 56.697,3.063 56.697,3.172 C57.181,3.609 57.666,4.047 58.151,4.484 C58.151,4.557 58.151,4.630 58.151,4.703 C58.263,4.776 58.375,4.849 58.486,4.922 C58.524,5.031 58.561,5.141 58.598,5.250 C58.673,5.286 58.748,5.323 58.822,5.359 C58.822,5.432 58.822,5.505 58.822,5.578 C58.897,5.615 58.971,5.651 59.046,5.688 C59.083,5.833 59.120,5.979 59.158,6.125 C59.232,6.161 59.307,6.198 59.381,6.234 C59.419,6.344 59.456,6.453 59.493,6.562 C59.531,6.562 59.568,6.562 59.605,6.562 C60.090,7.656 60.575,8.750 61.060,9.844 C61.060,9.990 61.060,10.135 61.060,10.281 C61.097,10.281 61.134,10.281 61.171,10.281 C61.171,10.391 61.171,10.500 61.171,10.609 C61.209,10.609 61.246,10.609 61.283,10.609 C61.283,10.828 61.283,11.047 61.283,11.266 C61.321,11.266 61.358,11.266 61.395,11.266 C61.395,11.484 61.395,11.703 61.395,11.922 C62.378,15.164 62.108,19.866 60.948,22.750 C60.873,23.078 60.799,23.406 60.724,23.734 C60.687,23.734 60.649,23.734 60.612,23.734 C60.612,23.807 60.612,23.880 60.612,23.953 C60.575,23.953 60.537,23.953 60.500,23.953 C60.500,24.062 60.500,24.172 60.500,24.281 C60.463,24.281 60.426,24.281 60.388,24.281 C60.314,24.500 60.239,24.719 60.165,24.938 C60.127,24.938 60.090,24.938 60.053,24.938 C60.053,25.010 60.053,25.083 60.053,25.156 C60.015,25.156 59.978,25.156 59.941,25.156 C59.941,25.229 59.941,25.302 59.941,25.375 C59.904,25.375 59.866,25.375 59.829,25.375 C59.829,25.448 59.829,25.521 59.829,25.594 C59.792,25.594 59.754,25.594 59.717,25.594 C59.643,25.812 59.568,26.031 59.493,26.250 C59.419,26.286 59.344,26.323 59.270,26.359 C59.270,26.432 59.270,26.505 59.270,26.578 C59.195,26.615 59.120,26.651 59.046,26.687 C59.046,26.760 59.046,26.833 59.046,26.906 C59.009,26.906 58.971,26.906 58.934,26.906 C58.897,27.016 58.859,27.125 58.822,27.234 C58.748,27.271 58.673,27.307 58.598,27.344 C58.598,27.417 58.598,27.490 58.598,27.562 C58.449,27.672 58.300,27.781 58.151,27.891 C58.151,27.964 58.151,28.036 58.151,28.109 C57.853,28.365 57.554,28.620 57.256,28.875 C57.219,28.984 57.181,29.094 57.144,29.203 C57.069,29.203 56.995,29.203 56.920,29.203 C56.883,29.276 56.846,29.349 56.808,29.422 C56.771,29.422 56.734,29.422 56.697,29.422 C56.697,29.531 56.697,29.641 56.697,29.750 C56.622,29.786 56.547,29.823 56.473,29.859 C56.064,30.294 55.695,30.541 55.690,31.391 C55.684,32.236 55.952,32.510 56.361,32.922 C56.473,32.995 56.585,33.068 56.697,33.141 C56.697,33.250 56.697,33.359 56.697,33.469 C56.734,33.469 56.771,33.469 56.808,33.469 C56.846,33.542 56.883,33.615 56.920,33.687 C56.995,33.687 57.069,33.687 57.144,33.687 C57.181,33.797 57.219,33.906 57.256,34.016 C57.554,34.271 57.853,34.526 58.151,34.781 C58.151,34.854 58.151,34.927 58.151,35.000 C58.300,35.109 58.449,35.219 58.598,35.328 C58.598,35.401 58.598,35.474 58.598,35.547 C58.673,35.583 58.748,35.620 58.822,35.656 C58.859,35.766 58.897,35.875 58.934,35.984 C58.971,35.984 59.009,35.984 59.046,35.984 C59.046,36.057 59.046,36.130 59.046,36.203 C59.120,36.240 59.195,36.276 59.270,36.313 C59.270,36.385 59.270,36.458 59.270,36.531 C59.344,36.568 59.419,36.604 59.493,36.641 C59.568,36.859 59.643,37.078 59.717,37.297 C59.754,37.297 59.792,37.297 59.829,37.297 C59.829,37.370 59.829,37.443 59.829,37.516 C59.866,37.516 59.904,37.516 59.941,37.516 C59.941,37.589 59.941,37.661 59.941,37.734 C59.978,37.734 60.015,37.734 60.053,37.734 C60.053,37.807 60.053,37.880 60.053,37.953 C60.090,37.953 60.127,37.953 60.165,37.953 C60.239,38.172 60.314,38.391 60.388,38.609 C60.426,38.609 60.463,38.609 60.500,38.609 C60.500,38.719 60.500,38.828 60.500,38.937 C60.537,38.937 60.575,38.937 60.612,38.937 C60.612,39.010 60.612,39.083 60.612,39.156 C60.649,39.156 60.687,39.156 60.724,39.156 C60.799,39.484 60.873,39.813 60.948,40.141 C62.103,43.020 62.384,47.732 61.395,50.969 C61.395,51.187 61.395,51.406 61.395,51.625 C61.358,51.625 61.321,51.625 61.283,51.625 C61.283,51.844 61.283,52.063 61.283,52.281 C61.246,52.281 61.209,52.281 61.171,52.281 C61.171,52.391 61.171,52.500 61.171,52.609 C61.134,52.609 61.097,52.609 61.060,52.609 C61.060,52.755 61.060,52.901 61.060,53.047 C60.575,54.141 60.090,55.234 59.605,56.328 C59.568,56.328 59.531,56.328 59.493,56.328 C59.456,56.437 59.419,56.547 59.381,56.656 C59.307,56.693 59.232,56.729 59.158,56.766 C59.120,56.911 59.083,57.057 59.046,57.203 C58.971,57.240 58.897,57.276 58.822,57.312 C58.822,57.385 58.822,57.458 58.822,57.531 C58.748,57.568 58.673,57.604 58.598,57.641 C58.561,57.750 58.524,57.859 58.486,57.969 C58.375,58.042 58.263,58.115 58.151,58.188 C58.151,58.260 58.151,58.333 58.151,58.406 C57.666,58.844 57.181,59.281 56.697,59.719 C56.697,59.828 56.697,59.938 56.697,60.047 C56.585,60.083 56.473,60.120 56.361,60.156 C56.286,60.266 56.212,60.375 56.137,60.484 C55.988,60.521 55.839,60.557 55.690,60.594 C55.652,60.667 55.615,60.740 55.578,60.813 C55.466,60.849 55.354,60.885 55.242,60.922 C55.242,60.958 55.242,60.995 55.242,61.031 C55.130,61.031 55.018,61.031 54.907,61.031 C54.869,61.104 54.832,61.177 54.795,61.250 C54.720,61.250 54.646,61.250 54.571,61.250 C54.534,61.323 54.496,61.396 54.459,61.469 C54.235,61.505 54.012,61.542 53.788,61.578 C53.788,61.615 53.788,61.651 53.788,61.688 C53.639,61.724 53.489,61.760 53.340,61.797 C53.340,61.833 53.340,61.870 53.340,61.906 C52.930,61.979 52.520,62.052 52.110,62.125 C51.860,62.212 51.642,62.388 51.327,62.453 C51.327,62.635 51.327,62.818 51.327,63.000 C46.218,63.000 41.108,63.000 36.000,63.000 C36.000,42.002 36.000,20.998 36.000,-0.000 ZM43.272,6.891 C43.272,14.291 43.272,21.693 43.272,29.094 C44.971,29.107 46.675,29.157 47.859,28.656 C47.859,28.620 47.859,28.583 47.859,28.547 C47.933,28.547 48.008,28.547 48.082,28.547 C48.082,28.510 48.082,28.474 48.082,28.437 C48.194,28.437 48.306,28.437 48.418,28.437 C48.418,28.401 48.418,28.365 48.418,28.328 C48.492,28.328 48.567,28.328 48.642,28.328 C48.679,28.255 48.716,28.182 48.754,28.109 C48.903,28.073 49.052,28.036 49.201,28.000 C49.238,27.927 49.276,27.854 49.313,27.781 C49.387,27.781 49.462,27.781 49.537,27.781 C49.649,27.635 49.760,27.490 49.872,27.344 C51.844,25.955 52.865,23.846 53.676,21.328 C53.713,20.927 53.751,20.526 53.788,20.125 C54.437,17.916 53.781,14.879 53.117,13.234 C53.079,13.016 53.042,12.797 53.005,12.578 C52.967,12.578 52.930,12.578 52.893,12.578 C52.818,12.359 52.744,12.141 52.669,11.922 C52.632,11.922 52.595,11.922 52.557,11.922 C52.557,11.849 52.557,11.776 52.557,11.703 C52.520,11.703 52.483,11.703 52.445,11.703 C52.445,11.630 52.445,11.557 52.445,11.484 C52.408,11.484 52.371,11.484 52.333,11.484 C52.333,11.411 52.333,11.339 52.333,11.266 C52.296,11.266 52.259,11.266 52.222,11.266 C52.222,11.193 52.222,11.120 52.222,11.047 C52.184,11.047 52.147,11.047 52.110,11.047 C52.110,10.938 52.110,10.828 52.110,10.719 C52.072,10.719 52.035,10.719 51.998,10.719 C51.998,10.646 51.998,10.573 51.998,10.500 C51.961,10.500 51.923,10.500 51.886,10.500 C51.886,10.427 51.886,10.354 51.886,10.281 C51.700,10.135 51.513,9.990 51.327,9.844 C51.327,9.771 51.327,9.698 51.327,9.625 C51.252,9.589 51.177,9.552 51.103,9.516 C51.103,9.443 51.103,9.370 51.103,9.297 C50.954,9.188 50.805,9.078 50.655,8.969 C50.655,8.932 50.655,8.896 50.655,8.859 C50.581,8.859 50.506,8.859 50.432,8.859 C50.394,8.786 50.357,8.714 50.320,8.641 C50.171,8.604 50.021,8.568 49.872,8.531 C49.723,8.349 49.574,8.167 49.425,7.984 C49.238,7.948 49.052,7.911 48.865,7.875 C48.865,7.839 48.865,7.802 48.865,7.766 C48.642,7.693 48.418,7.620 48.194,7.547 C48.194,7.510 48.194,7.474 48.194,7.437 C47.560,7.255 46.926,7.073 46.292,6.891 C45.286,6.891 44.279,6.891 43.272,6.891 ZM43.272,33.797 C43.272,41.197 43.272,48.600 43.272,56.000 C44.279,56.000 45.286,56.000 46.292,56.000 C46.926,55.818 47.560,55.635 48.194,55.453 C48.194,55.417 48.194,55.380 48.194,55.344 C48.418,55.271 48.642,55.198 48.865,55.125 C48.865,55.089 48.865,55.052 48.865,55.016 C49.052,54.979 49.238,54.943 49.425,54.906 C49.574,54.724 49.723,54.542 49.872,54.359 C50.021,54.323 50.171,54.286 50.320,54.250 C50.357,54.177 50.394,54.104 50.432,54.031 C50.506,54.031 50.581,54.031 50.655,54.031 C50.655,53.995 50.655,53.958 50.655,53.922 C50.805,53.813 50.954,53.703 51.103,53.594 C51.103,53.521 51.103,53.448 51.103,53.375 C51.177,53.339 51.252,53.302 51.327,53.266 C51.327,53.193 51.327,53.120 51.327,53.047 C51.513,52.901 51.700,52.755 51.886,52.609 C51.886,52.536 51.886,52.464 51.886,52.391 C51.923,52.391 51.961,52.391 51.998,52.391 C51.998,52.318 51.998,52.245 51.998,52.172 C52.035,52.172 52.072,52.172 52.110,52.172 C52.110,52.063 52.110,51.953 52.110,51.844 C52.147,51.844 52.184,51.844 52.222,51.844 C52.222,51.771 52.222,51.698 52.222,51.625 C52.259,51.625 52.296,51.625 52.333,51.625 C52.333,51.552 52.333,51.479 52.333,51.406 C52.371,51.406 52.408,51.406 52.445,51.406 C52.445,51.333 52.445,51.260 52.445,51.187 C52.483,51.187 52.520,51.187 52.557,51.187 C52.557,51.115 52.557,51.042 52.557,50.969 C52.595,50.969 52.632,50.969 52.669,50.969 C52.744,50.750 52.818,50.531 52.893,50.313 C52.930,50.313 52.967,50.313 53.005,50.313 C53.042,50.094 53.079,49.875 53.117,49.656 C53.774,48.016 54.446,44.969 53.788,42.766 C53.751,42.365 53.713,41.964 53.676,41.562 C52.854,39.044 51.853,36.938 49.872,35.547 C49.760,35.401 49.649,35.255 49.537,35.109 C49.462,35.109 49.387,35.109 49.313,35.109 C49.276,35.036 49.238,34.964 49.201,34.891 C49.052,34.854 48.903,34.818 48.754,34.781 C48.716,34.708 48.679,34.635 48.642,34.563 C48.567,34.563 48.492,34.563 48.418,34.563 C48.418,34.526 48.418,34.490 48.418,34.453 C48.306,34.453 48.194,34.453 48.082,34.453 C48.082,34.417 48.082,34.380 48.082,34.344 C48.008,34.344 47.933,34.344 47.859,34.344 C47.859,34.307 47.859,34.271 47.859,34.234 C46.667,33.734 44.977,33.787 43.272,33.797 Z"/>
</svg>