<svg 
 xmlns="http://www.w3.org/2000/svg"
 xmlns:xlink="http://www.w3.org/1999/xlink"
 width="17px" height="16px">
<path fill-rule="evenodd"  fill="rgb(32, 35, 44)"
 d="M12.027,15.980 C12.027,13.919 12.027,11.857 12.027,9.796 C12.720,9.796 13.412,9.796 14.104,9.796 C14.211,8.998 14.317,8.199 14.424,7.401 C13.625,7.401 12.826,7.401 12.027,7.401 C12.019,6.547 11.883,5.185 12.387,4.848 C12.772,4.590 13.862,4.682 14.504,4.688 C14.504,3.970 14.504,3.252 14.504,2.534 C14.028,2.488 13.541,2.460 12.986,2.454 C12.853,2.441 12.720,2.427 12.587,2.414 C12.587,2.427 12.587,2.441 12.587,2.454 C12.413,2.454 12.240,2.454 12.067,2.454 C11.841,2.507 11.615,2.560 11.388,2.613 C11.388,2.627 11.388,2.640 11.388,2.653 C11.322,2.667 11.255,2.680 11.189,2.693 C11.189,2.707 11.189,2.720 11.189,2.733 C11.135,2.746 11.082,2.760 11.029,2.773 C11.029,2.786 11.029,2.800 11.029,2.813 C10.976,2.826 10.922,2.840 10.869,2.853 C10.856,2.879 10.842,2.906 10.829,2.933 C10.803,2.933 10.776,2.933 10.749,2.933 C10.723,2.973 10.696,3.012 10.669,3.052 C10.122,3.441 9.863,3.911 9.631,4.608 C9.618,4.755 9.604,4.901 9.591,5.047 C9.531,5.256 9.551,5.612 9.551,5.885 C9.551,6.391 9.551,6.896 9.551,7.401 C8.859,7.401 8.166,7.401 7.474,7.401 C7.474,8.199 7.474,8.998 7.474,9.796 C8.166,9.796 8.859,9.796 9.551,9.796 C9.551,11.857 9.551,13.919 9.551,15.980 C7.488,15.980 5.424,15.980 3.360,15.980 C2.481,15.980 1.472,16.132 1.124,15.581 C0.969,15.336 1.004,14.903 1.004,14.504 C1.004,13.746 1.004,12.987 1.004,12.229 C1.004,9.330 1.004,6.430 1.004,3.531 C1.004,2.587 1.004,1.642 1.004,0.698 C1.017,0.698 1.030,0.698 1.044,0.698 C1.044,0.658 1.044,0.618 1.044,0.579 C1.124,0.459 1.203,0.339 1.283,0.219 C1.310,0.219 1.337,0.219 1.363,0.219 C1.377,0.193 1.390,0.166 1.403,0.140 C1.456,0.126 1.510,0.113 1.563,0.100 C1.563,0.086 1.563,0.073 1.563,0.060 C1.808,-0.046 2.285,0.020 2.601,0.020 C3.400,0.020 4.199,0.020 4.998,0.020 C7.793,0.020 10.590,0.020 13.385,0.020 C14.357,0.020 15.329,0.020 16.301,0.020 C16.301,0.033 16.301,0.047 16.301,0.060 C16.341,0.060 16.381,0.060 16.421,0.060 C16.541,0.140 16.661,0.219 16.780,0.299 C16.780,0.326 16.780,0.352 16.780,0.379 C16.807,0.392 16.834,0.406 16.860,0.419 C16.874,0.472 16.887,0.525 16.900,0.579 C16.913,0.579 16.927,0.579 16.940,0.579 C17.046,0.823 16.980,1.300 16.980,1.616 C16.980,2.401 16.980,3.185 16.980,3.970 C16.980,6.723 16.980,9.477 16.980,12.229 C16.980,13.027 16.980,13.826 16.980,14.623 C16.980,14.995 17.004,15.354 16.860,15.581 C16.834,15.594 16.807,15.608 16.780,15.621 C16.780,15.648 16.780,15.674 16.780,15.701 C16.754,15.714 16.727,15.727 16.700,15.741 C16.700,15.754 16.700,15.767 16.700,15.781 C16.356,16.032 15.816,15.980 15.223,15.980 C14.158,15.980 13.092,15.980 12.027,15.980 Z"/>
</svg>