<svg 
 xmlns="http://www.w3.org/2000/svg"
 xmlns:xlink="http://www.w3.org/1999/xlink"
 width="16px" height="13px">
<path fill-rule="evenodd"  fill="rgb(32, 35, 44)"
 d="M16.000,1.551 C15.987,1.590 15.973,1.629 15.960,1.668 C15.946,1.668 15.933,1.668 15.920,1.668 C15.906,1.707 15.893,1.746 15.879,1.785 C15.853,1.798 15.826,1.811 15.799,1.824 C15.799,1.850 15.799,1.876 15.799,1.902 C15.759,1.928 15.719,1.954 15.678,1.980 C15.678,2.006 15.678,2.032 15.678,2.058 C15.611,2.110 15.544,2.162 15.477,2.214 C15.477,2.240 15.477,2.266 15.477,2.292 C15.317,2.435 15.156,2.578 14.995,2.721 C14.941,2.786 14.888,2.851 14.834,2.916 C14.807,2.916 14.781,2.916 14.754,2.916 C14.700,2.981 14.647,3.046 14.593,3.111 C14.566,3.111 14.539,3.111 14.513,3.111 C14.486,3.150 14.459,3.189 14.432,3.228 C14.419,3.228 14.405,3.228 14.392,3.228 C14.392,3.618 14.392,4.008 14.392,4.398 C14.325,4.826 14.258,5.255 14.191,5.684 C14.057,6.126 13.923,6.568 13.789,7.010 C13.776,7.010 13.762,7.010 13.749,7.010 C13.749,7.036 13.749,7.062 13.749,7.088 C13.735,7.088 13.722,7.088 13.709,7.088 C13.709,7.127 13.709,7.166 13.709,7.205 C13.695,7.205 13.682,7.205 13.668,7.205 C13.668,7.231 13.668,7.257 13.668,7.283 C13.655,7.283 13.642,7.283 13.628,7.283 C13.628,7.322 13.628,7.361 13.628,7.400 C13.615,7.400 13.601,7.400 13.588,7.400 C13.588,7.426 13.588,7.452 13.588,7.478 C13.575,7.478 13.561,7.478 13.548,7.478 C13.534,7.543 13.521,7.608 13.508,7.673 C13.494,7.673 13.481,7.673 13.467,7.673 C13.441,7.751 13.414,7.829 13.387,7.907 C13.374,7.907 13.360,7.907 13.347,7.907 C13.347,7.933 13.347,7.959 13.347,7.985 C13.333,7.985 13.320,7.985 13.307,7.985 C13.307,8.011 13.307,8.037 13.307,8.063 C13.293,8.063 13.280,8.063 13.266,8.063 C13.266,8.089 13.266,8.115 13.266,8.141 C13.253,8.141 13.240,8.141 13.226,8.141 C13.226,8.167 13.226,8.193 13.226,8.219 C13.213,8.219 13.199,8.219 13.186,8.219 C13.186,8.245 13.186,8.271 13.186,8.297 C13.159,8.310 13.132,8.323 13.106,8.336 C13.079,8.414 13.052,8.492 13.025,8.570 C12.998,8.583 12.972,8.596 12.945,8.609 C12.931,8.661 12.918,8.713 12.905,8.765 C12.878,8.778 12.851,8.791 12.824,8.804 C12.824,8.830 12.824,8.856 12.824,8.882 C12.797,8.895 12.771,8.908 12.744,8.921 C12.744,8.947 12.744,8.973 12.744,8.999 C12.717,9.012 12.690,9.025 12.663,9.038 C12.663,9.064 12.663,9.090 12.663,9.116 C12.637,9.129 12.610,9.142 12.583,9.155 C12.583,9.181 12.583,9.207 12.583,9.232 C12.556,9.245 12.529,9.258 12.503,9.271 C12.503,9.297 12.503,9.323 12.503,9.349 C12.462,9.375 12.422,9.401 12.382,9.427 C12.382,9.453 12.382,9.479 12.382,9.505 C12.328,9.544 12.275,9.583 12.221,9.622 C12.221,9.648 12.221,9.674 12.221,9.700 C12.168,9.739 12.114,9.778 12.060,9.817 C12.060,9.843 12.060,9.869 12.060,9.895 C11.953,9.986 11.846,10.077 11.739,10.168 C11.739,10.194 11.739,10.220 11.739,10.246 C11.632,10.337 11.524,10.428 11.417,10.519 C11.390,10.558 11.363,10.597 11.337,10.636 C11.310,10.636 11.283,10.636 11.256,10.636 C11.162,10.740 11.069,10.844 10.975,10.948 C10.935,10.961 10.894,10.974 10.854,10.987 C10.827,11.026 10.801,11.065 10.774,11.104 C10.747,11.104 10.720,11.104 10.693,11.104 C10.653,11.156 10.613,11.208 10.573,11.260 C10.546,11.260 10.519,11.260 10.492,11.260 C10.466,11.299 10.439,11.338 10.412,11.377 C10.385,11.377 10.358,11.377 10.332,11.377 C10.318,11.403 10.305,11.429 10.291,11.455 C10.251,11.468 10.211,11.481 10.171,11.494 C10.171,11.507 10.171,11.520 10.171,11.533 C10.144,11.533 10.117,11.533 10.090,11.533 C10.077,11.559 10.064,11.585 10.050,11.611 C10.010,11.624 9.970,11.637 9.930,11.650 C9.930,11.663 9.930,11.676 9.930,11.689 C9.876,11.702 9.822,11.715 9.769,11.728 C9.755,11.754 9.742,11.780 9.729,11.806 C9.702,11.806 9.675,11.806 9.648,11.806 C9.648,11.819 9.648,11.832 9.648,11.845 C9.621,11.845 9.595,11.845 9.568,11.845 C9.568,11.858 9.568,11.871 9.568,11.884 C9.541,11.884 9.514,11.884 9.487,11.884 C9.487,11.897 9.487,11.910 9.487,11.923 C9.461,11.923 9.434,11.923 9.407,11.923 C9.394,11.949 9.380,11.975 9.367,12.001 C9.313,12.014 9.260,12.027 9.206,12.040 C9.206,12.053 9.206,12.066 9.206,12.079 C9.152,12.092 9.099,12.105 9.045,12.118 C9.045,12.131 9.045,12.144 9.045,12.157 C9.005,12.157 8.965,12.157 8.925,12.157 C8.925,12.170 8.925,12.183 8.925,12.196 C8.871,12.209 8.817,12.222 8.764,12.235 C8.764,12.248 8.764,12.261 8.764,12.274 C8.724,12.274 8.683,12.274 8.643,12.274 C8.643,12.287 8.643,12.300 8.643,12.313 C8.590,12.326 8.536,12.339 8.482,12.352 C8.482,12.365 8.482,12.378 8.482,12.391 C8.402,12.404 8.322,12.417 8.241,12.430 C8.241,12.443 8.241,12.456 8.241,12.469 C8.201,12.469 8.161,12.469 8.121,12.469 C8.121,12.482 8.121,12.495 8.121,12.508 C8.080,12.508 8.040,12.508 8.000,12.508 C8.000,12.521 8.000,12.534 8.000,12.547 C7.960,12.547 7.920,12.547 7.879,12.547 C7.879,12.560 7.879,12.573 7.879,12.586 C7.839,12.586 7.799,12.586 7.759,12.586 C7.759,12.599 7.759,12.612 7.759,12.625 C7.665,12.638 7.571,12.651 7.477,12.664 C7.477,12.677 7.477,12.690 7.477,12.703 C7.357,12.716 7.236,12.729 7.116,12.742 C6.932,12.796 6.662,12.845 6.472,12.898 C6.365,12.898 6.258,12.898 6.151,12.898 C6.151,12.911 6.151,12.924 6.151,12.937 C5.990,12.937 5.829,12.937 5.668,12.937 C5.668,12.950 5.668,12.963 5.668,12.976 C5.460,13.032 4.538,12.979 4.382,12.937 C4.235,12.937 4.087,12.937 3.940,12.937 C3.940,12.924 3.940,12.911 3.940,12.898 C3.846,12.898 3.752,12.898 3.658,12.898 C3.658,12.885 3.658,12.872 3.658,12.859 C3.578,12.859 3.497,12.859 3.417,12.859 C3.417,12.846 3.417,12.833 3.417,12.820 C3.350,12.820 3.283,12.820 3.216,12.820 C3.216,12.807 3.216,12.794 3.216,12.781 C3.149,12.781 3.082,12.781 3.015,12.781 C3.015,12.768 3.015,12.755 3.015,12.742 C2.961,12.742 2.908,12.742 2.854,12.742 C2.854,12.729 2.854,12.716 2.854,12.703 C2.801,12.703 2.747,12.703 2.693,12.703 C2.693,12.690 2.693,12.677 2.693,12.664 C2.640,12.664 2.586,12.664 2.533,12.664 C2.533,12.651 2.533,12.638 2.533,12.625 C2.439,12.612 2.345,12.599 2.251,12.586 C2.251,12.573 2.251,12.560 2.251,12.547 C2.211,12.547 2.171,12.547 2.131,12.547 C2.131,12.534 2.131,12.521 2.131,12.508 C2.090,12.508 2.050,12.508 2.010,12.508 C2.010,12.495 2.010,12.482 2.010,12.469 C1.970,12.469 1.930,12.469 1.889,12.469 C1.889,12.456 1.889,12.443 1.889,12.430 C1.863,12.430 1.836,12.430 1.809,12.430 C1.809,12.417 1.809,12.404 1.809,12.391 C1.769,12.391 1.729,12.391 1.688,12.391 C1.688,12.378 1.688,12.365 1.688,12.352 C1.621,12.339 1.554,12.326 1.487,12.313 C1.487,12.300 1.487,12.287 1.487,12.274 C1.461,12.274 1.434,12.274 1.407,12.274 C1.407,12.261 1.407,12.248 1.407,12.235 C1.367,12.235 1.327,12.235 1.286,12.235 C1.286,12.222 1.286,12.209 1.286,12.196 C1.206,12.170 1.126,12.144 1.045,12.118 C1.045,12.105 1.045,12.092 1.045,12.079 C1.018,12.079 0.992,12.079 0.965,12.079 C0.965,12.066 0.965,12.053 0.965,12.040 C0.938,12.040 0.911,12.040 0.884,12.040 C0.884,12.027 0.884,12.014 0.884,12.001 C0.858,12.001 0.831,12.001 0.804,12.001 C0.804,11.988 0.804,11.975 0.804,11.962 C0.777,11.962 0.750,11.962 0.724,11.962 C0.724,11.949 0.724,11.936 0.724,11.923 C0.643,11.897 0.563,11.871 0.482,11.845 C0.469,11.819 0.456,11.793 0.442,11.767 C0.415,11.767 0.389,11.767 0.362,11.767 C0.362,11.754 0.362,11.741 0.362,11.728 C0.335,11.728 0.308,11.728 0.281,11.728 C0.268,11.702 0.255,11.676 0.241,11.650 C0.118,11.574 0.082,11.627 -0.000,11.494 C0.027,11.494 0.054,11.494 0.080,11.494 C0.152,11.557 0.348,11.533 0.482,11.533 C0.791,11.533 1.099,11.533 1.407,11.533 C1.407,11.520 1.407,11.507 1.407,11.494 C1.447,11.494 1.487,11.494 1.528,11.494 C2.157,11.460 2.712,11.264 3.176,11.065 C3.216,11.065 3.256,11.065 3.296,11.065 C3.296,11.052 3.296,11.039 3.296,11.026 C3.350,11.013 3.404,11.000 3.457,10.987 C3.457,10.974 3.457,10.961 3.457,10.948 C3.484,10.948 3.511,10.948 3.538,10.948 C3.538,10.935 3.538,10.922 3.538,10.909 C3.605,10.896 3.672,10.883 3.739,10.870 C3.752,10.844 3.765,10.818 3.779,10.792 C3.806,10.792 3.832,10.792 3.859,10.792 C3.859,10.779 3.859,10.766 3.859,10.753 C3.886,10.753 3.913,10.753 3.940,10.753 C3.940,10.740 3.940,10.727 3.940,10.714 C3.966,10.714 3.993,10.714 4.020,10.714 C4.020,10.701 4.020,10.688 4.020,10.675 C4.047,10.675 4.074,10.675 4.101,10.675 C4.114,10.649 4.127,10.623 4.141,10.597 C4.168,10.597 4.194,10.597 4.221,10.597 C4.221,10.584 4.221,10.571 4.221,10.558 C4.261,10.545 4.302,10.532 4.342,10.519 C4.355,10.493 4.369,10.467 4.382,10.441 C4.409,10.441 4.436,10.441 4.462,10.441 C4.476,10.415 4.489,10.389 4.503,10.363 C4.529,10.363 4.556,10.363 4.583,10.363 C4.610,10.324 4.637,10.285 4.663,10.246 C4.690,10.246 4.717,10.246 4.744,10.246 C4.769,10.230 4.776,10.195 4.824,10.168 C4.824,10.155 4.824,10.142 4.824,10.129 C4.690,10.129 4.556,10.129 4.422,10.129 C4.422,10.116 4.422,10.103 4.422,10.090 C4.342,10.090 4.261,10.090 4.181,10.090 C4.181,10.077 4.181,10.064 4.181,10.051 C4.127,10.051 4.074,10.051 4.020,10.051 C4.020,10.038 4.020,10.025 4.020,10.012 C3.980,10.012 3.940,10.012 3.899,10.012 C3.899,9.999 3.899,9.986 3.899,9.973 C3.859,9.973 3.819,9.973 3.779,9.973 C3.779,9.960 3.779,9.947 3.779,9.934 C3.752,9.934 3.725,9.934 3.698,9.934 C3.698,9.921 3.698,9.908 3.698,9.895 C3.658,9.895 3.618,9.895 3.578,9.895 C3.578,9.882 3.578,9.869 3.578,9.856 C3.551,9.856 3.524,9.856 3.497,9.856 C3.497,9.843 3.497,9.830 3.497,9.817 C3.417,9.791 3.337,9.765 3.256,9.739 C3.243,9.713 3.229,9.687 3.216,9.661 C3.189,9.661 3.162,9.661 3.136,9.661 C3.122,9.635 3.109,9.609 3.095,9.583 C3.069,9.583 3.042,9.583 3.015,9.583 C2.988,9.544 2.961,9.505 2.935,9.466 C2.908,9.466 2.881,9.466 2.854,9.466 C2.747,9.349 2.640,9.232 2.533,9.116 C2.466,9.064 2.399,9.012 2.332,8.960 C2.332,8.934 2.332,8.908 2.332,8.882 C2.291,8.856 2.251,8.830 2.211,8.804 C2.211,8.778 2.211,8.752 2.211,8.726 C2.184,8.713 2.157,8.700 2.131,8.687 C2.117,8.635 2.104,8.583 2.090,8.531 C2.064,8.518 2.037,8.505 2.010,8.492 C2.010,8.466 2.010,8.440 2.010,8.414 C1.918,8.255 1.811,8.078 1.769,7.868 C2.104,7.904 3.015,7.986 3.216,7.790 C2.967,7.779 2.782,7.681 2.613,7.595 C2.586,7.595 2.559,7.595 2.533,7.595 C2.533,7.582 2.533,7.569 2.533,7.556 C2.506,7.556 2.479,7.556 2.452,7.556 C2.452,7.543 2.452,7.530 2.452,7.517 C2.425,7.517 2.399,7.517 2.372,7.517 C2.372,7.504 2.372,7.491 2.372,7.478 C2.318,7.465 2.265,7.452 2.211,7.439 C2.198,7.413 2.184,7.387 2.171,7.361 C2.144,7.361 2.117,7.361 2.090,7.361 C2.077,7.335 2.064,7.309 2.050,7.283 C2.023,7.283 1.997,7.283 1.970,7.283 C1.943,7.244 1.916,7.205 1.889,7.166 C1.863,7.166 1.836,7.166 1.809,7.166 C1.742,7.088 1.675,7.010 1.608,6.932 C1.048,6.389 0.597,5.643 0.603,4.554 C0.616,4.554 0.630,4.554 0.643,4.554 C0.799,4.729 1.408,4.866 1.688,4.943 C1.796,4.973 2.002,4.945 2.050,4.904 C1.830,4.849 1.707,4.652 1.568,4.515 C1.528,4.489 1.487,4.463 1.447,4.437 C1.447,4.411 1.447,4.385 1.447,4.359 C1.394,4.320 1.340,4.281 1.286,4.242 C1.286,4.216 1.286,4.190 1.286,4.164 C1.260,4.151 1.233,4.138 1.206,4.125 C1.206,4.099 1.206,4.073 1.206,4.047 C1.179,4.034 1.152,4.021 1.126,4.008 C1.112,3.956 1.099,3.904 1.085,3.852 C1.059,3.839 1.032,3.826 1.005,3.813 C0.992,3.748 0.978,3.683 0.965,3.618 C0.951,3.618 0.938,3.618 0.925,3.618 C0.911,3.566 0.898,3.514 0.884,3.462 C0.871,3.462 0.858,3.462 0.844,3.462 C0.844,3.423 0.844,3.384 0.844,3.345 C0.831,3.345 0.817,3.345 0.804,3.345 C0.804,3.306 0.804,3.267 0.804,3.228 C0.791,3.228 0.777,3.228 0.764,3.228 C0.764,3.176 0.764,3.124 0.764,3.072 C0.750,3.072 0.737,3.072 0.724,3.072 C0.724,3.020 0.724,2.968 0.724,2.916 C0.710,2.916 0.697,2.916 0.683,2.916 C0.683,2.838 0.683,2.760 0.683,2.682 C0.643,2.544 0.586,1.978 0.643,1.785 C0.697,1.564 0.750,1.343 0.804,1.122 C0.817,1.122 0.831,1.122 0.844,1.122 C0.844,1.096 0.844,1.070 0.844,1.044 C0.858,1.044 0.871,1.044 0.884,1.044 C0.884,1.005 0.884,0.966 0.884,0.927 C0.898,0.927 0.911,0.927 0.925,0.927 C0.972,0.833 1.022,0.718 1.045,0.615 C1.072,0.615 1.099,0.615 1.126,0.615 C1.139,0.654 1.152,0.693 1.166,0.732 C1.246,0.797 1.327,0.862 1.407,0.927 C1.420,0.966 1.434,1.005 1.447,1.044 C1.608,1.187 1.769,1.330 1.930,1.473 C2.010,1.564 2.090,1.655 2.171,1.746 C2.198,1.746 2.224,1.746 2.251,1.746 C2.318,1.824 2.385,1.902 2.452,1.980 C2.492,1.993 2.533,2.006 2.573,2.019 C2.600,2.058 2.626,2.097 2.653,2.136 C2.680,2.136 2.707,2.136 2.734,2.136 C2.760,2.175 2.787,2.214 2.814,2.253 C2.841,2.253 2.868,2.253 2.894,2.253 C2.921,2.292 2.948,2.331 2.975,2.370 C3.002,2.370 3.028,2.370 3.055,2.370 C3.069,2.396 3.082,2.422 3.095,2.448 C3.122,2.448 3.149,2.448 3.176,2.448 C3.189,2.474 3.203,2.500 3.216,2.526 C3.243,2.526 3.270,2.526 3.296,2.526 C3.310,2.552 3.323,2.578 3.337,2.604 C3.363,2.604 3.390,2.604 3.417,2.604 C3.430,2.630 3.444,2.656 3.457,2.682 C3.511,2.695 3.564,2.708 3.618,2.721 C3.631,2.747 3.645,2.773 3.658,2.799 C3.712,2.812 3.765,2.825 3.819,2.838 C3.832,2.864 3.846,2.890 3.859,2.916 C3.886,2.916 3.913,2.916 3.940,2.916 C3.940,2.929 3.940,2.942 3.940,2.955 C3.966,2.955 3.993,2.955 4.020,2.955 C4.020,2.968 4.020,2.981 4.020,2.994 C4.047,2.994 4.074,2.994 4.101,2.994 C4.101,3.007 4.101,3.020 4.101,3.033 C4.127,3.033 4.154,3.033 4.181,3.033 C4.181,3.046 4.181,3.059 4.181,3.072 C4.208,3.072 4.235,3.072 4.261,3.072 C4.261,3.085 4.261,3.098 4.261,3.111 C4.288,3.111 4.315,3.111 4.342,3.111 C4.342,3.124 4.342,3.137 4.342,3.150 C4.422,3.176 4.503,3.202 4.583,3.228 C4.583,3.241 4.583,3.254 4.583,3.267 C4.623,3.267 4.663,3.267 4.704,3.267 C4.704,3.280 4.704,3.293 4.704,3.306 C4.757,3.319 4.811,3.332 4.864,3.345 C4.864,3.358 4.864,3.371 4.864,3.384 C4.905,3.384 4.945,3.384 4.985,3.384 C4.985,3.397 4.985,3.410 4.985,3.423 C5.012,3.423 5.039,3.423 5.065,3.423 C5.065,3.436 5.065,3.449 5.065,3.462 C5.186,3.488 5.307,3.514 5.427,3.540 C6.101,3.799 6.967,3.995 7.879,4.008 C7.545,2.312 8.380,1.048 9.407,0.421 C9.461,0.408 9.514,0.395 9.568,0.382 C9.568,0.369 9.568,0.356 9.568,0.343 C9.648,0.317 9.729,0.291 9.809,0.265 C9.809,0.252 9.809,0.239 9.809,0.226 C9.849,0.226 9.889,0.226 9.930,0.226 C9.930,0.213 9.930,0.200 9.930,0.187 C9.956,0.187 9.983,0.187 10.010,0.187 C10.010,0.174 10.010,0.161 10.010,0.148 C10.104,0.135 10.198,0.122 10.291,0.109 C10.291,0.096 10.291,0.083 10.291,0.070 C10.445,0.020 11.239,-0.069 11.457,-0.008 C11.457,0.005 11.457,0.018 11.457,0.031 C11.551,0.031 11.645,0.031 11.739,0.031 C11.739,0.044 11.739,0.057 11.739,0.070 C11.846,0.083 11.953,0.096 12.060,0.109 C12.060,0.122 12.060,0.135 12.060,0.148 C12.100,0.148 12.141,0.148 12.181,0.148 C12.181,0.161 12.181,0.174 12.181,0.187 C12.248,0.200 12.315,0.213 12.382,0.226 C12.382,0.239 12.382,0.252 12.382,0.265 C12.436,0.278 12.489,0.291 12.543,0.304 C12.543,0.317 12.543,0.330 12.543,0.343 C12.596,0.356 12.650,0.369 12.704,0.382 C12.717,0.408 12.730,0.434 12.744,0.460 C12.797,0.473 12.851,0.486 12.905,0.499 C12.918,0.525 12.931,0.551 12.945,0.576 C12.972,0.576 12.998,0.576 13.025,0.576 C13.065,0.628 13.106,0.680 13.146,0.732 C13.173,0.732 13.199,0.732 13.226,0.732 C13.240,0.758 13.253,0.784 13.266,0.810 C13.320,0.849 13.374,0.888 13.427,0.927 C13.441,0.953 13.454,0.979 13.467,1.005 C13.534,1.005 13.601,1.005 13.668,1.005 C13.761,0.926 13.861,0.972 13.990,0.927 C13.990,0.914 13.990,0.901 13.990,0.888 C14.030,0.888 14.070,0.888 14.111,0.888 C14.111,0.875 14.111,0.862 14.111,0.849 C14.164,0.849 14.218,0.849 14.271,0.849 C14.271,0.836 14.271,0.823 14.271,0.810 C14.312,0.810 14.352,0.810 14.392,0.810 C14.392,0.797 14.392,0.784 14.392,0.771 C14.419,0.771 14.446,0.771 14.472,0.771 C14.472,0.758 14.472,0.745 14.472,0.732 C14.513,0.732 14.553,0.732 14.593,0.732 C14.593,0.719 14.593,0.706 14.593,0.693 C14.620,0.693 14.647,0.693 14.673,0.693 C14.673,0.680 14.673,0.667 14.673,0.654 C14.714,0.654 14.754,0.654 14.794,0.654 C14.794,0.641 14.794,0.628 14.794,0.615 C14.821,0.615 14.848,0.615 14.874,0.615 C14.874,0.602 14.874,0.589 14.874,0.576 C14.928,0.564 14.982,0.551 15.035,0.538 C15.035,0.525 15.035,0.512 15.035,0.499 C15.089,0.486 15.142,0.473 15.196,0.460 C15.330,0.382 15.464,0.304 15.598,0.226 C15.598,0.252 15.598,0.278 15.598,0.304 C15.585,0.304 15.571,0.304 15.558,0.304 C15.558,0.343 15.558,0.382 15.558,0.421 C15.544,0.421 15.531,0.421 15.518,0.421 C15.504,0.473 15.491,0.525 15.477,0.576 C15.464,0.576 15.451,0.576 15.437,0.576 C15.437,0.615 15.437,0.654 15.437,0.693 C15.424,0.693 15.410,0.693 15.397,0.693 C15.397,0.719 15.397,0.745 15.397,0.771 C15.370,0.784 15.343,0.797 15.317,0.810 C15.290,0.888 15.263,0.966 15.236,1.044 C15.209,1.057 15.183,1.070 15.156,1.083 C15.156,1.109 15.156,1.135 15.156,1.161 C15.116,1.187 15.075,1.213 15.035,1.239 C15.035,1.265 15.035,1.291 15.035,1.317 C14.982,1.356 14.928,1.395 14.874,1.434 C14.673,1.631 14.508,1.856 14.231,1.980 C14.231,1.993 14.231,2.006 14.231,2.019 C14.298,2.019 14.365,2.019 14.432,2.019 C14.432,2.006 14.432,1.993 14.432,1.980 C14.513,1.980 14.593,1.980 14.673,1.980 C14.673,1.967 14.673,1.954 14.673,1.941 C14.727,1.941 14.781,1.941 14.834,1.941 C14.834,1.928 14.834,1.915 14.834,1.902 C14.888,1.902 14.941,1.902 14.995,1.902 C15.330,1.785 15.665,1.668 16.000,1.551 Z"/>
</svg>