<svg 
 xmlns="http://www.w3.org/2000/svg"
 xmlns:xlink="http://www.w3.org/1999/xlink"
 width="16px" height="16px">
<path fill-rule="evenodd"  fill="rgb(32, 35, 44)"
 d="M1.601,-0.000 C4.801,-0.000 8.001,-0.000 11.200,-0.000 C12.267,-0.000 13.334,-0.000 14.400,-0.000 C14.400,0.013 14.400,0.027 14.400,0.040 C14.453,0.040 14.507,0.040 14.560,0.040 C14.560,0.053 14.560,0.067 14.560,0.080 C14.613,0.080 14.667,0.080 14.720,0.080 C14.720,0.093 14.720,0.107 14.720,0.120 C14.760,0.120 14.800,0.120 14.840,0.120 C14.840,0.133 14.840,0.147 14.840,0.160 C14.893,0.173 14.947,0.187 15.000,0.200 C15.000,0.213 15.000,0.227 15.000,0.240 C15.027,0.240 15.053,0.240 15.080,0.240 C15.093,0.267 15.107,0.293 15.120,0.320 C15.147,0.320 15.173,0.320 15.200,0.320 C15.227,0.360 15.253,0.400 15.280,0.440 C15.307,0.440 15.333,0.440 15.360,0.440 C15.373,0.467 15.387,0.493 15.400,0.520 C15.453,0.560 15.507,0.600 15.560,0.640 C15.560,0.667 15.560,0.693 15.560,0.720 C15.600,0.747 15.640,0.773 15.680,0.800 C15.680,0.827 15.680,0.853 15.680,0.880 C15.707,0.893 15.733,0.907 15.760,0.920 C15.760,0.947 15.760,0.973 15.760,1.000 C15.773,1.000 15.787,1.000 15.800,1.000 C15.813,1.053 15.827,1.107 15.840,1.160 C15.853,1.160 15.867,1.160 15.880,1.160 C15.893,1.240 15.907,1.320 15.920,1.400 C15.933,1.400 15.947,1.400 15.960,1.400 C15.973,1.667 15.987,1.933 16.000,2.200 C16.000,2.707 16.000,3.213 16.000,3.720 C16.000,6.506 16.000,9.294 16.000,12.080 C16.000,12.640 16.000,13.200 16.000,13.760 C15.987,14.040 15.973,14.320 15.960,14.600 C15.947,14.600 15.933,14.600 15.920,14.600 C15.907,14.680 15.893,14.760 15.880,14.840 C15.867,14.840 15.853,14.840 15.840,14.840 C15.827,14.893 15.813,14.947 15.800,15.000 C15.787,15.000 15.773,15.000 15.760,15.000 C15.760,15.027 15.760,15.053 15.760,15.080 C15.733,15.093 15.707,15.107 15.680,15.120 C15.680,15.147 15.680,15.173 15.680,15.200 C15.640,15.227 15.600,15.253 15.560,15.280 C15.560,15.307 15.560,15.333 15.560,15.360 C15.533,15.373 15.507,15.387 15.480,15.400 C15.440,15.453 15.400,15.507 15.360,15.560 C15.333,15.560 15.307,15.560 15.280,15.560 C15.253,15.600 15.227,15.640 15.200,15.680 C15.173,15.680 15.147,15.680 15.120,15.680 C15.107,15.707 15.093,15.733 15.080,15.760 C15.053,15.760 15.027,15.760 15.000,15.760 C15.000,15.773 15.000,15.787 15.000,15.800 C14.947,15.813 14.893,15.827 14.840,15.840 C14.840,15.853 14.840,15.867 14.840,15.880 C14.800,15.880 14.760,15.880 14.720,15.880 C14.720,15.893 14.720,15.907 14.720,15.920 C14.667,15.920 14.613,15.920 14.560,15.920 C14.560,15.933 14.560,15.947 14.560,15.960 C14.507,15.960 14.453,15.960 14.400,15.960 C14.400,15.973 14.400,15.987 14.400,16.000 C13.534,16.000 12.667,16.000 11.800,16.000 C9.201,16.000 6.600,16.000 4.001,16.000 C3.201,16.000 2.401,16.000 1.601,16.000 C1.601,15.987 1.601,15.973 1.601,15.960 C1.548,15.960 1.494,15.960 1.441,15.960 C1.441,15.947 1.441,15.933 1.441,15.920 C1.388,15.920 1.334,15.920 1.281,15.920 C1.281,15.907 1.281,15.893 1.281,15.880 C1.241,15.880 1.201,15.880 1.161,15.880 C1.161,15.867 1.161,15.853 1.161,15.840 C1.108,15.827 1.054,15.813 1.001,15.800 C1.001,15.787 1.001,15.773 1.001,15.760 C0.975,15.760 0.948,15.760 0.921,15.760 C0.908,15.733 0.895,15.707 0.881,15.680 C0.855,15.680 0.828,15.680 0.801,15.680 C0.775,15.640 0.748,15.600 0.721,15.560 C0.695,15.560 0.668,15.560 0.641,15.560 C0.628,15.533 0.615,15.507 0.601,15.480 C0.548,15.440 0.495,15.400 0.441,15.360 C0.441,15.333 0.441,15.307 0.441,15.280 C0.401,15.253 0.361,15.227 0.321,15.200 C0.321,15.173 0.321,15.147 0.321,15.120 C0.295,15.107 0.268,15.093 0.241,15.080 C0.241,15.053 0.241,15.027 0.241,15.000 C0.228,15.000 0.215,15.000 0.201,15.000 C0.188,14.947 0.175,14.893 0.161,14.840 C0.148,14.840 0.135,14.840 0.121,14.840 C0.108,14.760 0.095,14.680 0.081,14.600 C0.068,14.600 0.055,14.600 0.041,14.600 C0.041,14.533 0.041,14.467 0.041,14.400 C0.028,14.400 0.015,14.400 0.001,14.400 C0.001,13.573 0.001,12.747 0.001,11.920 C0.001,9.467 0.001,7.013 0.001,4.560 C0.001,3.840 0.001,3.120 0.001,2.400 C0.001,1.938 -0.022,1.485 0.121,1.160 C0.135,1.160 0.148,1.160 0.161,1.160 C0.188,1.080 0.215,1.000 0.241,0.920 C0.268,0.907 0.295,0.893 0.321,0.880 C0.321,0.853 0.321,0.827 0.321,0.800 C0.361,0.773 0.401,0.747 0.441,0.720 C0.441,0.693 0.441,0.667 0.441,0.640 C0.468,0.627 0.495,0.613 0.521,0.600 C0.561,0.547 0.601,0.493 0.641,0.440 C0.668,0.440 0.695,0.440 0.721,0.440 C0.748,0.400 0.775,0.360 0.801,0.320 C0.828,0.320 0.855,0.320 0.881,0.320 C0.895,0.293 0.908,0.267 0.921,0.240 C0.948,0.240 0.975,0.240 1.001,0.240 C1.001,0.227 1.001,0.213 1.001,0.200 C1.201,0.133 1.401,0.067 1.601,-0.000 ZM11.880,2.000 C11.787,2.053 11.694,2.107 11.600,2.160 C11.600,2.187 11.600,2.213 11.600,2.240 C11.501,2.327 11.521,2.492 11.520,2.680 C11.520,3.040 11.520,3.400 11.520,3.760 C11.520,3.901 11.492,4.124 11.560,4.200 C11.601,4.360 11.713,4.375 11.800,4.480 C12.475,4.485 13.292,4.518 13.840,4.400 C13.893,4.307 13.947,4.213 14.000,4.120 C14.000,3.947 14.000,3.773 14.000,3.600 C14.000,3.187 14.000,2.773 14.000,2.360 C13.987,2.360 13.973,2.360 13.960,2.360 C13.947,2.307 13.933,2.253 13.920,2.200 C13.827,2.133 13.734,2.067 13.640,2.000 C13.054,2.000 12.467,2.000 11.880,2.000 ZM7.601,4.960 C7.510,5.038 7.328,4.995 7.201,5.040 C7.201,5.053 7.201,5.067 7.201,5.080 C7.161,5.080 7.121,5.080 7.081,5.080 C7.081,5.093 7.081,5.107 7.081,5.120 C7.041,5.120 7.001,5.120 6.961,5.120 C6.961,5.133 6.961,5.147 6.961,5.160 C6.921,5.160 6.881,5.160 6.841,5.160 C6.841,5.173 6.841,5.187 6.841,5.200 C6.814,5.200 6.787,5.200 6.761,5.200 C6.761,5.213 6.761,5.227 6.761,5.240 C6.734,5.240 6.707,5.240 6.681,5.240 C6.681,5.253 6.681,5.267 6.681,5.280 C6.654,5.280 6.627,5.280 6.601,5.280 C6.601,5.293 6.601,5.307 6.601,5.320 C6.574,5.320 6.547,5.320 6.521,5.320 C6.521,5.333 6.521,5.347 6.521,5.360 C6.494,5.360 6.467,5.360 6.441,5.360 C6.427,5.387 6.414,5.413 6.401,5.440 C6.374,5.440 6.347,5.440 6.321,5.440 C6.307,5.467 6.294,5.493 6.281,5.520 C6.254,5.520 6.227,5.520 6.201,5.520 C6.174,5.560 6.147,5.600 6.121,5.640 C6.094,5.640 6.067,5.640 6.041,5.640 C5.961,5.733 5.881,5.827 5.801,5.920 C5.747,5.960 5.694,6.000 5.641,6.040 C5.641,6.067 5.641,6.093 5.641,6.120 C5.587,6.160 5.534,6.200 5.481,6.240 C5.481,6.267 5.481,6.293 5.481,6.320 C5.454,6.333 5.427,6.347 5.401,6.360 C5.401,6.387 5.401,6.413 5.401,6.440 C5.387,6.440 5.374,6.440 5.361,6.440 C5.361,6.467 5.361,6.493 5.361,6.520 C5.348,6.520 5.334,6.520 5.321,6.520 C5.321,6.547 5.321,6.573 5.321,6.600 C5.308,6.600 5.294,6.600 5.281,6.600 C5.281,6.627 5.281,6.653 5.281,6.680 C5.268,6.680 5.254,6.680 5.241,6.680 C5.241,6.707 5.241,6.733 5.241,6.760 C5.228,6.760 5.214,6.760 5.201,6.760 C5.188,6.813 5.174,6.867 5.161,6.920 C5.148,6.920 5.134,6.920 5.121,6.920 C5.121,6.960 5.121,7.000 5.121,7.040 C5.108,7.040 5.094,7.040 5.081,7.040 C5.068,7.133 5.054,7.227 5.041,7.320 C5.028,7.320 5.014,7.320 5.001,7.320 C5.001,7.400 5.001,7.480 5.001,7.560 C4.988,7.560 4.974,7.560 4.961,7.560 C4.885,7.827 4.986,8.513 5.041,8.680 C5.041,8.733 5.041,8.787 5.041,8.840 C5.054,8.840 5.068,8.840 5.081,8.840 C5.081,8.893 5.081,8.947 5.081,9.000 C5.094,9.000 5.108,9.000 5.121,9.000 C5.121,9.027 5.121,9.053 5.121,9.080 C5.134,9.080 5.148,9.080 5.161,9.080 C5.161,9.120 5.161,9.160 5.161,9.200 C5.174,9.200 5.188,9.200 5.201,9.200 C5.228,9.280 5.254,9.360 5.281,9.440 C5.294,9.440 5.308,9.440 5.321,9.440 C5.334,9.493 5.348,9.547 5.361,9.600 C5.387,9.613 5.414,9.627 5.441,9.640 C5.441,9.667 5.441,9.693 5.441,9.720 C5.467,9.733 5.494,9.747 5.521,9.760 C5.521,9.787 5.521,9.813 5.521,9.840 C5.561,9.867 5.601,9.893 5.641,9.920 C5.641,9.947 5.641,9.973 5.641,10.000 C5.694,10.040 5.747,10.080 5.801,10.120 C5.881,10.213 5.961,10.307 6.041,10.400 C6.067,10.400 6.094,10.400 6.121,10.400 C6.147,10.440 6.174,10.480 6.201,10.520 C6.227,10.520 6.254,10.520 6.281,10.520 C6.294,10.547 6.307,10.573 6.321,10.600 C6.347,10.600 6.374,10.600 6.401,10.600 C6.414,10.627 6.427,10.653 6.441,10.680 C6.467,10.680 6.494,10.680 6.521,10.680 C6.521,10.693 6.521,10.707 6.521,10.720 C6.547,10.720 6.574,10.720 6.601,10.720 C6.601,10.733 6.601,10.747 6.601,10.760 C6.627,10.760 6.654,10.760 6.681,10.760 C6.681,10.773 6.681,10.787 6.681,10.800 C6.707,10.800 6.734,10.800 6.761,10.800 C6.761,10.813 6.761,10.827 6.761,10.840 C6.787,10.840 6.814,10.840 6.841,10.840 C6.841,10.853 6.841,10.867 6.841,10.880 C6.881,10.880 6.921,10.880 6.961,10.880 C6.961,10.893 6.961,10.907 6.961,10.920 C7.288,11.049 7.671,11.081 8.121,11.080 C8.227,11.080 8.334,11.080 8.441,11.080 C8.441,11.067 8.441,11.053 8.441,11.040 C8.507,11.040 8.574,11.040 8.641,11.040 C8.641,11.027 8.641,11.013 8.641,11.000 C8.707,11.000 8.774,11.000 8.841,11.000 C8.841,10.987 8.841,10.973 8.841,10.960 C8.881,10.960 8.921,10.960 8.961,10.960 C8.961,10.947 8.961,10.933 8.961,10.920 C9.001,10.920 9.041,10.920 9.081,10.920 C9.081,10.907 9.081,10.893 9.081,10.880 C9.107,10.880 9.134,10.880 9.161,10.880 C9.161,10.867 9.161,10.853 9.161,10.840 C9.201,10.840 9.241,10.840 9.281,10.840 C9.281,10.827 9.281,10.813 9.281,10.800 C9.307,10.800 9.334,10.800 9.361,10.800 C9.361,10.787 9.361,10.773 9.361,10.760 C9.441,10.733 9.521,10.707 9.600,10.680 C9.614,10.653 9.627,10.627 9.640,10.600 C9.667,10.600 9.694,10.600 9.720,10.600 C9.734,10.573 9.747,10.547 9.760,10.520 C9.787,10.520 9.814,10.520 9.840,10.520 C9.867,10.480 9.894,10.440 9.920,10.400 C9.947,10.400 9.974,10.400 10.000,10.400 C10.080,10.307 10.160,10.213 10.240,10.120 C10.294,10.080 10.347,10.040 10.400,10.000 C10.400,9.973 10.400,9.947 10.400,9.920 C10.440,9.893 10.480,9.867 10.520,9.840 C10.520,9.813 10.520,9.787 10.520,9.760 C10.547,9.747 10.574,9.733 10.600,9.720 C10.600,9.693 10.600,9.667 10.600,9.640 C10.627,9.627 10.654,9.613 10.680,9.600 C10.680,9.573 10.680,9.547 10.680,9.520 C10.694,9.520 10.707,9.520 10.720,9.520 C10.720,9.493 10.720,9.467 10.720,9.440 C10.734,9.440 10.747,9.440 10.760,9.440 C10.760,9.413 10.760,9.387 10.760,9.360 C10.774,9.360 10.787,9.360 10.800,9.360 C10.800,9.333 10.800,9.307 10.800,9.280 C10.814,9.280 10.827,9.280 10.840,9.280 C10.840,9.253 10.840,9.227 10.840,9.200 C10.854,9.200 10.867,9.200 10.880,9.200 C10.947,8.960 11.014,8.720 11.080,8.480 C11.156,8.216 11.055,7.525 11.000,7.360 C11.000,7.307 11.000,7.253 11.000,7.200 C10.987,7.200 10.974,7.200 10.960,7.200 C10.960,7.160 10.960,7.120 10.960,7.080 C10.947,7.080 10.934,7.080 10.920,7.080 C10.907,7.000 10.894,6.920 10.880,6.840 C10.867,6.840 10.854,6.840 10.840,6.840 C10.827,6.787 10.814,6.733 10.800,6.680 C10.787,6.680 10.774,6.680 10.760,6.680 C10.734,6.600 10.707,6.520 10.680,6.440 C10.654,6.427 10.627,6.413 10.600,6.400 C10.600,6.373 10.600,6.347 10.600,6.320 C10.574,6.307 10.547,6.293 10.520,6.280 C10.520,6.253 10.520,6.227 10.520,6.200 C10.480,6.173 10.440,6.147 10.400,6.120 C10.400,6.093 10.400,6.067 10.400,6.040 C10.334,5.987 10.267,5.933 10.200,5.880 C10.134,5.800 10.067,5.720 10.000,5.640 C9.618,5.365 9.183,5.154 8.681,5.000 C8.601,5.000 8.521,5.000 8.441,5.000 C8.232,4.940 7.874,4.959 7.601,4.960 ZM1.521,6.520 C1.521,8.413 1.521,10.307 1.521,12.200 C1.521,12.680 1.521,13.160 1.521,13.640 C1.521,13.803 1.481,14.107 1.561,14.200 C1.602,14.360 1.713,14.375 1.801,14.480 C4.867,14.480 7.934,14.480 11.000,14.480 C11.787,14.480 12.574,14.480 13.360,14.480 C13.550,14.480 14.104,14.523 14.200,14.440 C14.360,14.399 14.375,14.288 14.480,14.200 C14.480,11.640 14.480,9.080 14.480,6.520 C13.827,6.520 13.173,6.520 12.520,6.520 C12.520,6.533 12.520,6.547 12.520,6.560 C12.659,6.650 12.653,6.791 12.720,6.960 C12.734,6.960 12.747,6.960 12.760,6.960 C12.760,7.000 12.760,7.040 12.760,7.080 C12.774,7.080 12.787,7.080 12.800,7.080 C12.800,7.147 12.800,7.213 12.800,7.280 C12.814,7.280 12.827,7.280 12.840,7.280 C12.883,7.425 12.933,8.334 12.880,8.520 C12.867,8.520 12.854,8.520 12.840,8.520 C12.827,8.693 12.814,8.867 12.800,9.040 C12.787,9.040 12.774,9.040 12.760,9.040 C12.760,9.093 12.760,9.147 12.760,9.200 C12.747,9.200 12.734,9.200 12.720,9.200 C12.720,9.253 12.720,9.307 12.720,9.360 C12.707,9.360 12.694,9.360 12.680,9.360 C12.680,9.400 12.680,9.440 12.680,9.480 C12.667,9.480 12.654,9.480 12.640,9.480 C12.640,9.520 12.640,9.560 12.640,9.600 C12.627,9.600 12.614,9.600 12.600,9.600 C12.600,9.640 12.600,9.680 12.600,9.720 C12.245,10.538 11.765,11.269 11.080,11.760 C11.040,11.813 11.000,11.867 10.960,11.920 C10.934,11.920 10.907,11.920 10.880,11.920 C10.867,11.947 10.854,11.973 10.840,12.000 C10.800,12.013 10.760,12.027 10.720,12.040 C10.720,12.053 10.720,12.067 10.720,12.080 C10.694,12.080 10.667,12.080 10.640,12.080 C10.627,12.107 10.614,12.133 10.600,12.160 C10.547,12.173 10.494,12.187 10.440,12.200 C10.427,12.227 10.414,12.253 10.400,12.280 C10.347,12.293 10.294,12.307 10.240,12.320 C10.240,12.333 10.240,12.347 10.240,12.360 C10.160,12.387 10.080,12.413 10.000,12.440 C10.000,12.453 10.000,12.467 10.000,12.480 C9.960,12.480 9.920,12.480 9.880,12.480 C9.880,12.493 9.880,12.507 9.880,12.520 C9.854,12.520 9.827,12.520 9.800,12.520 C9.800,12.533 9.800,12.547 9.800,12.560 C9.760,12.560 9.720,12.560 9.680,12.560 C9.680,12.573 9.680,12.587 9.680,12.600 C9.641,12.600 9.600,12.600 9.561,12.600 C9.561,12.613 9.561,12.627 9.561,12.640 C9.521,12.640 9.481,12.640 9.441,12.640 C9.441,12.653 9.441,12.667 9.441,12.680 C9.401,12.680 9.361,12.680 9.321,12.680 C9.321,12.693 9.321,12.707 9.321,12.720 C9.267,12.720 9.214,12.720 9.161,12.720 C8.535,12.928 7.506,12.931 6.881,12.720 C6.827,12.720 6.774,12.720 6.721,12.720 C6.721,12.707 6.721,12.693 6.721,12.680 C6.681,12.680 6.641,12.680 6.601,12.680 C6.601,12.667 6.601,12.653 6.601,12.640 C6.561,12.640 6.521,12.640 6.481,12.640 C6.481,12.627 6.481,12.613 6.481,12.600 C6.441,12.600 6.401,12.600 6.361,12.600 C6.361,12.587 6.361,12.573 6.361,12.560 C6.321,12.560 6.281,12.560 6.241,12.560 C6.241,12.547 6.241,12.533 6.241,12.520 C6.214,12.520 6.187,12.520 6.161,12.520 C6.161,12.507 6.161,12.493 6.161,12.480 C6.121,12.480 6.081,12.480 6.041,12.480 C6.041,12.467 6.041,12.453 6.041,12.440 C5.961,12.413 5.881,12.387 5.801,12.360 C5.801,12.347 5.801,12.333 5.801,12.320 C5.774,12.320 5.747,12.320 5.721,12.320 C5.721,12.307 5.721,12.293 5.721,12.280 C5.667,12.267 5.614,12.253 5.561,12.240 C5.547,12.213 5.534,12.187 5.521,12.160 C5.494,12.160 5.467,12.160 5.441,12.160 C5.427,12.133 5.414,12.107 5.401,12.080 C5.374,12.080 5.347,12.080 5.321,12.080 C5.308,12.053 5.294,12.027 5.281,12.000 C5.254,12.000 5.228,12.000 5.201,12.000 C5.188,11.973 5.174,11.947 5.161,11.920 C5.134,11.920 5.108,11.920 5.081,11.920 C5.041,11.867 5.001,11.813 4.961,11.760 C4.934,11.760 4.908,11.760 4.881,11.760 C4.788,11.653 4.694,11.547 4.601,11.440 C4.481,11.333 4.361,11.227 4.241,11.120 C4.241,11.093 4.241,11.067 4.241,11.040 C4.201,11.013 4.161,10.987 4.121,10.960 C4.121,10.933 4.121,10.907 4.121,10.880 C4.081,10.853 4.041,10.827 4.001,10.800 C4.001,10.773 4.001,10.747 4.001,10.720 C3.974,10.707 3.948,10.693 3.921,10.680 C3.921,10.653 3.921,10.627 3.921,10.600 C3.894,10.587 3.868,10.573 3.841,10.560 C3.841,10.533 3.841,10.507 3.841,10.480 C3.828,10.480 3.814,10.480 3.801,10.480 C3.801,10.453 3.801,10.427 3.801,10.400 C3.788,10.400 3.774,10.400 3.761,10.400 C3.761,10.373 3.761,10.347 3.761,10.320 C3.748,10.320 3.734,10.320 3.721,10.320 C3.721,10.293 3.721,10.267 3.721,10.240 C3.694,10.227 3.668,10.213 3.641,10.200 C3.641,10.160 3.641,10.120 3.641,10.080 C3.628,10.080 3.614,10.080 3.601,10.080 C3.601,10.053 3.601,10.027 3.601,10.000 C3.588,10.000 3.574,10.000 3.561,10.000 C3.548,9.947 3.534,9.893 3.521,9.840 C3.508,9.840 3.494,9.840 3.481,9.840 C3.468,9.760 3.454,9.680 3.441,9.600 C3.270,9.162 3.018,8.199 3.201,7.560 C3.201,7.467 3.201,7.373 3.201,7.280 C3.214,7.280 3.228,7.280 3.241,7.280 C3.268,7.120 3.294,6.960 3.321,6.800 C3.334,6.800 3.348,6.800 3.361,6.800 C3.411,6.697 3.438,6.614 3.481,6.520 C2.828,6.520 2.174,6.520 1.521,6.520 Z"/>
</svg>