<svg 
 xmlns="http://www.w3.org/2000/svg"
 xmlns:xlink="http://www.w3.org/1999/xlink"
 width="120px" height="50px">
<path fill-rule="evenodd"  fill="rgb(232, 62, 151)"
 d="M77.621,23.326 C91.746,23.326 105.875,23.326 120.000,23.326 C120.000,24.380 120.000,25.433 120.000,26.486 C104.864,26.486 89.723,26.486 74.587,26.486 C74.558,26.396 74.528,26.306 74.498,26.215 C74.344,26.033 74.417,25.547 74.409,25.222 C74.409,25.102 74.409,24.981 74.409,24.861 C74.379,24.861 74.349,24.861 74.320,24.861 C74.320,24.259 74.320,23.657 74.320,23.056 C74.191,22.590 74.375,21.771 74.230,21.250 C74.101,20.785 74.286,19.966 74.141,19.444 C74.112,19.444 74.082,19.444 74.052,19.444 C74.052,18.993 74.052,18.542 74.052,18.090 C73.993,17.398 73.933,16.706 73.874,16.014 C73.772,16.117 73.838,16.014 73.784,16.194 C73.755,16.194 73.725,16.194 73.695,16.194 C73.695,16.255 73.695,16.315 73.695,16.375 C73.636,16.405 73.576,16.435 73.517,16.465 C73.517,16.525 73.517,16.586 73.517,16.646 C73.487,16.646 73.457,16.646 73.428,16.646 C73.428,16.706 73.428,16.766 73.428,16.826 C73.368,16.856 73.309,16.887 73.249,16.917 C73.249,16.977 73.249,17.037 73.249,17.097 C73.219,17.097 73.190,17.097 73.160,17.097 C73.160,17.157 73.160,17.218 73.160,17.278 C73.130,17.278 73.100,17.278 73.071,17.278 C73.041,17.368 73.011,17.458 72.981,17.549 C72.922,17.579 72.862,17.609 72.803,17.639 C72.773,17.759 72.743,17.880 72.714,18.000 C72.654,18.030 72.595,18.060 72.535,18.090 C72.506,18.211 72.476,18.331 72.446,18.451 C72.387,18.481 72.327,18.512 72.268,18.542 C72.238,18.662 72.208,18.782 72.178,18.903 C72.119,18.933 72.059,18.963 72.000,18.993 C71.970,19.113 71.941,19.234 71.911,19.354 C71.851,19.384 71.792,19.414 71.732,19.444 C71.703,19.565 71.673,19.685 71.643,19.806 C71.584,19.836 71.524,19.866 71.465,19.896 C71.465,19.956 71.465,20.016 71.465,20.076 C71.435,20.076 71.405,20.076 71.375,20.076 C71.375,20.137 71.375,20.197 71.375,20.257 C71.316,20.287 71.256,20.317 71.197,20.347 C71.167,20.468 71.138,20.588 71.108,20.708 C71.048,20.738 70.989,20.769 70.929,20.799 C70.900,20.919 70.870,21.039 70.840,21.160 C70.781,21.190 70.721,21.220 70.662,21.250 C70.632,21.370 70.602,21.491 70.572,21.611 C70.513,21.641 70.454,21.671 70.394,21.701 C70.364,21.822 70.335,21.942 70.305,22.062 C70.245,22.093 70.186,22.123 70.126,22.153 C70.097,22.273 70.067,22.394 70.037,22.514 C69.978,22.544 69.918,22.574 69.859,22.604 C69.829,22.725 69.799,22.845 69.770,22.965 C69.710,22.995 69.651,23.025 69.591,23.056 C69.561,23.176 69.532,23.296 69.502,23.417 C69.442,23.447 69.383,23.477 69.323,23.507 C69.294,23.627 69.264,23.748 69.234,23.868 C69.175,23.898 69.115,23.928 69.056,23.958 C69.056,24.019 69.056,24.079 69.056,24.139 C69.026,24.139 68.996,24.139 68.967,24.139 C68.967,24.199 68.967,24.259 68.967,24.319 C68.937,24.319 68.907,24.319 68.877,24.319 C68.848,24.410 68.818,24.500 68.788,24.590 C68.729,24.620 68.669,24.650 68.610,24.681 C68.580,24.801 68.550,24.921 68.520,25.042 C68.461,25.072 68.401,25.102 68.342,25.132 C68.312,25.252 68.283,25.373 68.253,25.493 C68.193,25.523 68.134,25.553 68.074,25.583 C68.045,25.704 68.015,25.824 67.985,25.944 C67.926,25.975 67.866,26.005 67.807,26.035 C67.777,26.155 67.747,26.275 67.717,26.396 C67.658,26.426 67.599,26.456 67.539,26.486 C67.509,26.606 67.480,26.727 67.450,26.847 C67.390,26.877 67.331,26.907 67.271,26.937 C67.242,27.058 67.212,27.178 67.182,27.299 C67.123,27.329 67.063,27.359 67.004,27.389 C66.974,27.509 66.944,27.630 66.914,27.750 C66.855,27.780 66.796,27.810 66.736,27.840 C66.706,27.961 66.677,28.081 66.647,28.201 C66.587,28.231 66.528,28.262 66.468,28.292 C66.439,28.412 66.409,28.532 66.379,28.653 C66.320,28.683 66.260,28.713 66.201,28.743 C66.171,28.863 66.141,28.984 66.112,29.104 C66.052,29.134 65.993,29.164 65.933,29.194 C65.903,29.315 65.874,29.435 65.844,29.556 C65.784,29.586 65.725,29.616 65.665,29.646 C65.636,29.766 65.606,29.887 65.576,30.007 C65.517,30.037 65.457,30.067 65.398,30.097 C65.368,30.218 65.338,30.338 65.309,30.458 C65.249,30.488 65.190,30.519 65.130,30.549 C65.130,30.609 65.130,30.669 65.130,30.729 C65.100,30.729 65.071,30.729 65.041,30.729 C65.011,30.819 64.981,30.910 64.952,31.000 C64.892,31.000 64.833,31.000 64.773,31.000 C64.737,30.456 64.411,29.813 64.238,29.375 C64.178,29.074 64.119,28.773 64.059,28.472 C64.030,28.472 64.000,28.472 63.970,28.472 C63.970,28.382 63.970,28.292 63.970,28.201 C63.941,28.201 63.911,28.201 63.881,28.201 C63.881,28.111 63.881,28.021 63.881,27.931 C63.851,27.931 63.822,27.931 63.792,27.931 C63.792,27.840 63.792,27.750 63.792,27.660 C63.762,27.660 63.732,27.660 63.703,27.660 C63.703,27.569 63.703,27.479 63.703,27.389 C63.673,27.389 63.643,27.389 63.613,27.389 C63.613,27.299 63.613,27.208 63.613,27.118 C63.584,27.118 63.554,27.118 63.524,27.118 C63.524,27.028 63.524,26.937 63.524,26.847 C63.494,26.847 63.465,26.847 63.435,26.847 C63.405,26.667 63.375,26.486 63.346,26.306 C63.316,26.306 63.286,26.306 63.257,26.306 C63.197,26.005 63.138,25.704 63.078,25.403 C62.666,24.359 62.332,23.113 61.918,22.062 C61.888,21.882 61.859,21.701 61.829,21.521 C61.799,21.521 61.770,21.521 61.740,21.521 C61.740,21.400 61.740,21.280 61.740,21.160 C61.710,21.160 61.680,21.160 61.651,21.160 C61.651,21.069 61.651,20.979 61.651,20.889 C61.621,20.889 61.591,20.889 61.561,20.889 C61.561,20.799 61.561,20.708 61.561,20.618 C61.532,20.618 61.502,20.618 61.472,20.618 C61.472,20.528 61.472,20.437 61.472,20.347 C61.442,20.347 61.413,20.347 61.383,20.347 C61.383,20.257 61.383,20.167 61.383,20.076 C61.353,20.076 61.323,20.076 61.294,20.076 C61.294,19.986 61.294,19.896 61.294,19.806 C61.264,19.806 61.234,19.806 61.204,19.806 C61.175,19.625 61.145,19.444 61.115,19.264 C61.086,19.264 61.056,19.264 61.026,19.264 C61.026,19.144 61.026,19.023 61.026,18.903 C60.996,18.903 60.967,18.903 60.937,18.903 C60.907,18.722 60.877,18.542 60.848,18.361 C60.536,17.569 60.288,16.635 59.955,15.833 C59.854,15.936 59.920,15.834 59.866,16.014 C59.836,16.014 59.807,16.014 59.777,16.014 C59.777,16.134 59.777,16.255 59.777,16.375 C59.747,16.375 59.717,16.375 59.688,16.375 C59.688,16.465 59.688,16.556 59.688,16.646 C59.658,16.646 59.628,16.646 59.599,16.646 C59.599,16.736 59.599,16.826 59.599,16.917 C59.569,16.917 59.539,16.917 59.509,16.917 C59.480,17.127 59.450,17.338 59.420,17.549 C59.390,17.549 59.361,17.549 59.331,17.549 C59.301,17.759 59.271,17.970 59.242,18.181 C59.212,18.181 59.182,18.181 59.152,18.181 C59.152,18.271 59.152,18.361 59.152,18.451 C59.123,18.451 59.093,18.451 59.063,18.451 C59.033,18.662 59.004,18.873 58.974,19.083 C58.944,19.083 58.914,19.083 58.885,19.083 C58.885,19.174 58.885,19.264 58.885,19.354 C58.855,19.354 58.825,19.354 58.796,19.354 C58.766,19.565 58.736,19.775 58.706,19.986 C58.677,19.986 58.647,19.986 58.617,19.986 C58.558,20.287 58.498,20.588 58.439,20.889 C58.409,20.889 58.379,20.889 58.349,20.889 C58.290,21.190 58.230,21.491 58.171,21.792 C58.141,21.792 58.112,21.792 58.082,21.792 C58.052,22.002 58.022,22.213 57.993,22.424 C57.963,22.424 57.933,22.424 57.903,22.424 C57.784,22.935 57.665,23.447 57.546,23.958 C57.517,23.958 57.487,23.958 57.457,23.958 C57.457,24.079 57.457,24.199 57.457,24.319 C57.428,24.319 57.398,24.319 57.368,24.319 C57.368,24.410 57.368,24.500 57.368,24.590 C57.338,24.590 57.309,24.590 57.279,24.590 C57.279,24.681 57.279,24.771 57.279,24.861 C57.249,24.861 57.219,24.861 57.190,24.861 C57.190,24.981 57.190,25.102 57.190,25.222 C57.160,25.222 57.130,25.222 57.100,25.222 C57.041,25.523 56.981,25.824 56.922,26.125 C56.892,26.125 56.862,26.125 56.833,26.125 C56.681,26.259 56.315,26.215 56.030,26.215 C55.346,26.215 54.662,26.215 53.978,26.215 C51.212,26.215 48.446,26.215 45.680,26.215 C45.579,26.112 45.680,26.179 45.502,26.125 C45.439,25.820 45.117,24.653 45.413,24.319 C45.510,23.919 45.778,23.742 46.037,23.507 C46.067,23.447 46.097,23.387 46.126,23.326 C46.781,23.326 47.435,23.326 48.089,23.326 C50.052,23.326 52.015,23.326 53.978,23.326 C53.989,22.899 54.130,22.886 54.245,22.604 C54.275,22.424 54.305,22.243 54.335,22.062 C54.364,22.062 54.394,22.062 54.424,22.062 C54.483,21.792 54.543,21.521 54.602,21.250 C54.632,21.250 54.662,21.250 54.691,21.250 C54.721,21.069 54.751,20.889 54.781,20.708 C54.810,20.708 54.840,20.708 54.870,20.708 C54.870,20.648 54.870,20.588 54.870,20.528 C54.900,20.528 54.929,20.528 54.959,20.528 C54.959,20.438 54.959,20.347 54.959,20.257 C54.989,20.257 55.019,20.257 55.048,20.257 C55.048,20.167 55.048,20.076 55.048,19.986 C55.078,19.986 55.108,19.986 55.138,19.986 C55.138,19.896 55.138,19.806 55.138,19.715 C55.167,19.715 55.197,19.715 55.227,19.715 C55.227,19.625 55.227,19.535 55.227,19.444 C55.256,19.444 55.286,19.444 55.316,19.444 C55.316,19.354 55.316,19.264 55.316,19.174 C55.346,19.174 55.375,19.174 55.405,19.174 C55.554,18.632 55.703,18.090 55.851,17.549 C56.533,15.829 57.045,13.940 57.725,12.222 C57.874,11.681 58.022,11.139 58.171,10.597 C58.201,10.597 58.230,10.597 58.260,10.597 C58.290,10.417 58.320,10.236 58.349,10.056 C58.379,10.056 58.409,10.056 58.439,10.056 C58.439,9.965 58.439,9.875 58.439,9.785 C58.468,9.785 58.498,9.785 58.528,9.785 C58.528,9.694 58.528,9.604 58.528,9.514 C58.558,9.514 58.587,9.514 58.617,9.514 C58.617,9.424 58.617,9.333 58.617,9.243 C58.647,9.243 58.677,9.243 58.706,9.243 C58.706,9.153 58.706,9.062 58.706,8.972 C58.736,8.972 58.766,8.972 58.796,8.972 C58.796,8.882 58.796,8.792 58.796,8.701 C58.825,8.701 58.855,8.701 58.885,8.701 C58.944,8.431 59.004,8.160 59.063,7.889 C59.093,7.889 59.123,7.889 59.152,7.889 C59.152,7.829 59.152,7.769 59.152,7.708 C59.182,7.708 59.212,7.708 59.242,7.708 C59.420,7.076 59.599,6.444 59.777,5.812 C59.836,5.812 59.896,5.812 59.955,5.812 C61.829,11.740 63.703,17.670 65.576,23.597 C65.678,23.494 65.612,23.597 65.665,23.417 C65.786,23.309 65.754,23.264 65.844,23.146 C65.874,23.146 65.903,23.146 65.933,23.146 C65.933,23.086 65.933,23.025 65.933,22.965 C66.022,22.905 66.112,22.845 66.201,22.785 C66.201,22.725 66.201,22.664 66.201,22.604 C66.230,22.604 66.260,22.604 66.290,22.604 C66.320,22.484 66.349,22.363 66.379,22.243 C66.439,22.213 66.498,22.183 66.558,22.153 C66.558,22.093 66.558,22.032 66.558,21.972 C66.587,21.972 66.617,21.972 66.647,21.972 C66.647,21.912 66.647,21.852 66.647,21.792 C66.677,21.792 66.706,21.792 66.736,21.792 C66.796,21.611 66.855,21.431 66.914,21.250 C67.033,21.160 67.152,21.069 67.271,20.979 C67.271,20.919 67.271,20.859 67.271,20.799 C67.301,20.799 67.331,20.799 67.361,20.799 C67.361,20.738 67.361,20.678 67.361,20.618 C67.390,20.618 67.420,20.618 67.450,20.618 C67.450,20.528 67.450,20.437 67.450,20.347 C67.480,20.347 67.509,20.347 67.539,20.347 C67.539,20.287 67.539,20.227 67.539,20.167 C67.599,20.137 67.658,20.106 67.717,20.076 C67.747,19.956 67.777,19.836 67.807,19.715 C67.866,19.685 67.926,19.655 67.985,19.625 C67.985,19.565 67.985,19.505 67.985,19.444 C68.045,19.414 68.104,19.384 68.164,19.354 C68.164,19.294 68.164,19.234 68.164,19.174 C68.193,19.174 68.223,19.174 68.253,19.174 C68.253,19.113 68.253,19.053 68.253,18.993 C68.283,18.993 68.312,18.993 68.342,18.993 C68.342,18.933 68.342,18.873 68.342,18.812 C68.372,18.812 68.401,18.812 68.431,18.812 C68.431,18.752 68.431,18.692 68.431,18.632 C68.461,18.632 68.491,18.632 68.520,18.632 C68.520,18.572 68.520,18.512 68.520,18.451 C70.331,15.541 71.962,12.415 73.784,9.514 C73.784,9.454 73.784,9.394 73.784,9.333 C73.814,9.333 73.844,9.333 73.874,9.333 C73.874,9.273 73.874,9.213 73.874,9.153 C73.933,9.123 73.993,9.093 74.052,9.062 C74.112,8.882 74.171,8.701 74.230,8.521 C74.290,8.491 74.349,8.461 74.409,8.431 C74.409,8.370 74.409,8.310 74.409,8.250 C74.439,8.250 74.468,8.250 74.498,8.250 C74.498,8.190 74.498,8.130 74.498,8.069 C74.558,8.039 74.617,8.009 74.677,7.979 C74.736,7.799 74.796,7.618 74.855,7.437 C74.914,7.407 74.974,7.377 75.033,7.347 C75.063,7.227 75.093,7.106 75.123,6.986 C75.182,6.956 75.242,6.926 75.301,6.896 C75.361,6.715 75.420,6.535 75.480,6.354 C75.539,6.324 75.599,6.294 75.658,6.264 C75.658,6.204 75.658,6.144 75.658,6.083 C75.688,6.083 75.717,6.083 75.747,6.083 C75.747,6.023 75.747,5.963 75.747,5.903 C75.807,5.873 75.866,5.843 75.926,5.812 C76.159,5.440 76.025,5.140 76.550,5.000 C76.550,5.030 76.550,5.060 76.550,5.090 C76.912,5.429 76.569,6.141 76.729,6.715 C76.758,6.715 76.788,6.715 76.818,6.715 C76.848,7.498 76.877,8.280 76.907,9.062 C76.907,9.393 76.907,9.725 76.907,10.056 C76.937,10.056 76.967,10.056 76.996,10.056 C77.026,10.778 77.056,11.500 77.085,12.222 C77.085,12.553 77.085,12.884 77.085,13.215 C77.115,13.215 77.145,13.215 77.175,13.215 C77.175,13.757 77.175,14.299 77.175,14.840 C77.204,14.840 77.234,14.840 77.264,14.840 C77.294,15.593 77.323,16.345 77.353,17.097 C77.353,17.428 77.353,17.759 77.353,18.090 C77.383,18.090 77.413,18.090 77.442,18.090 C77.442,18.632 77.442,19.174 77.442,19.715 C77.472,19.715 77.502,19.715 77.532,19.715 C77.532,20.528 77.532,21.340 77.532,22.153 C77.561,22.153 77.591,22.153 77.621,22.153 C77.621,22.544 77.621,22.935 77.621,23.326 ZM-0.000,23.326 C9.873,23.326 19.748,23.326 29.621,23.326 C29.621,24.289 29.621,25.252 29.621,26.215 C19.748,26.215 9.873,26.215 -0.000,26.215 C-0.000,25.252 -0.000,24.289 -0.000,23.326 Z"/>
<path fill-rule="evenodd"  fill="rgb(35, 31, 32)"
 d="M30.000,-0.000 C33.930,-0.000 37.860,-0.000 41.790,-0.000 C41.790,0.116 41.790,0.231 41.790,0.347 C42.032,0.398 42.200,0.538 42.392,0.608 C42.708,0.666 43.023,0.723 43.339,0.781 C43.339,0.810 43.339,0.839 43.339,0.868 C43.453,0.897 43.568,0.926 43.683,0.955 C43.683,0.984 43.683,1.013 43.683,1.042 C43.855,1.071 44.027,1.100 44.199,1.128 C44.228,1.186 44.257,1.244 44.285,1.302 C44.343,1.302 44.400,1.302 44.457,1.302 C44.486,1.360 44.515,1.418 44.543,1.476 C44.630,1.476 44.716,1.476 44.802,1.476 C44.802,1.505 44.802,1.534 44.802,1.562 C44.888,1.591 44.974,1.620 45.060,1.649 C45.089,1.707 45.117,1.765 45.146,1.823 C45.261,1.852 45.375,1.881 45.490,1.910 C45.547,1.997 45.605,2.083 45.662,2.170 C45.748,2.199 45.834,2.228 45.920,2.257 C45.920,2.344 45.920,2.431 45.920,2.517 C46.293,2.865 46.666,3.212 47.039,3.559 C47.039,3.617 47.039,3.675 47.039,3.733 C47.125,3.791 47.211,3.848 47.297,3.906 C47.326,3.993 47.355,4.080 47.383,4.167 C47.441,4.196 47.498,4.225 47.555,4.253 C47.555,4.311 47.555,4.369 47.555,4.427 C47.613,4.456 47.670,4.485 47.728,4.514 C47.756,4.630 47.785,4.745 47.814,4.861 C47.871,4.890 47.928,4.919 47.986,4.948 C48.014,5.035 48.043,5.122 48.072,5.208 C48.100,5.208 48.129,5.208 48.158,5.208 C48.531,6.076 48.904,6.945 49.277,7.812 C49.277,7.928 49.277,8.044 49.277,8.160 C49.305,8.160 49.334,8.160 49.363,8.160 C49.363,8.247 49.363,8.333 49.363,8.420 C49.391,8.420 49.420,8.420 49.449,8.420 C49.449,8.594 49.449,8.767 49.449,8.941 C49.477,8.941 49.506,8.941 49.535,8.941 C49.535,9.115 49.535,9.288 49.535,9.462 C50.291,12.035 50.083,15.767 49.191,18.056 C49.133,18.316 49.076,18.576 49.018,18.837 C48.990,18.837 48.961,18.837 48.932,18.837 C48.932,18.895 48.932,18.953 48.932,19.010 C48.904,19.010 48.875,19.010 48.846,19.010 C48.846,19.097 48.846,19.184 48.846,19.271 C48.818,19.271 48.789,19.271 48.760,19.271 C48.703,19.444 48.646,19.618 48.588,19.792 C48.559,19.792 48.531,19.792 48.502,19.792 C48.502,19.850 48.502,19.907 48.502,19.965 C48.473,19.965 48.445,19.965 48.416,19.965 C48.416,20.023 48.416,20.081 48.416,20.139 C48.387,20.139 48.359,20.139 48.330,20.139 C48.330,20.197 48.330,20.255 48.330,20.312 C48.301,20.312 48.273,20.312 48.244,20.312 C48.187,20.486 48.129,20.660 48.072,20.833 C48.014,20.862 47.957,20.891 47.900,20.920 C47.900,20.978 47.900,21.036 47.900,21.094 C47.842,21.123 47.785,21.152 47.728,21.181 C47.728,21.238 47.728,21.296 47.728,21.354 C47.699,21.354 47.670,21.354 47.642,21.354 C47.613,21.441 47.584,21.528 47.555,21.615 C47.498,21.644 47.441,21.672 47.383,21.701 C47.383,21.759 47.383,21.817 47.383,21.875 C47.269,21.962 47.154,22.049 47.039,22.135 C47.039,22.193 47.039,22.251 47.039,22.309 C46.810,22.512 46.580,22.714 46.351,22.917 C46.322,23.003 46.293,23.090 46.265,23.177 C46.207,23.177 46.150,23.177 46.093,23.177 C46.064,23.235 46.035,23.293 46.006,23.351 C45.978,23.351 45.949,23.351 45.920,23.351 C45.920,23.437 45.920,23.524 45.920,23.611 C45.863,23.640 45.806,23.669 45.748,23.698 C45.434,24.043 45.150,24.239 45.146,24.913 C45.141,25.584 45.347,25.802 45.662,26.128 C45.748,26.186 45.834,26.244 45.920,26.302 C45.920,26.389 45.920,26.476 45.920,26.562 C45.949,26.562 45.978,26.562 46.006,26.562 C46.035,26.620 46.064,26.678 46.093,26.736 C46.150,26.736 46.207,26.736 46.265,26.736 C46.293,26.823 46.322,26.910 46.351,26.997 C46.580,27.199 46.810,27.402 47.039,27.604 C47.039,27.662 47.039,27.720 47.039,27.778 C47.154,27.865 47.269,27.951 47.383,28.038 C47.383,28.096 47.383,28.154 47.383,28.212 C47.441,28.241 47.498,28.270 47.555,28.299 C47.584,28.385 47.613,28.472 47.642,28.559 C47.670,28.559 47.699,28.559 47.728,28.559 C47.728,28.617 47.728,28.675 47.728,28.733 C47.785,28.762 47.842,28.791 47.900,28.819 C47.900,28.877 47.900,28.935 47.900,28.993 C47.957,29.022 48.014,29.051 48.072,29.080 C48.129,29.253 48.187,29.427 48.244,29.601 C48.273,29.601 48.301,29.601 48.330,29.601 C48.330,29.659 48.330,29.716 48.330,29.774 C48.359,29.774 48.387,29.774 48.416,29.774 C48.416,29.832 48.416,29.890 48.416,29.948 C48.445,29.948 48.473,29.948 48.502,29.948 C48.502,30.006 48.502,30.064 48.502,30.122 C48.531,30.122 48.559,30.122 48.588,30.122 C48.646,30.295 48.703,30.469 48.760,30.642 C48.789,30.642 48.818,30.642 48.846,30.642 C48.846,30.729 48.846,30.816 48.846,30.903 C48.875,30.903 48.904,30.903 48.932,30.903 C48.932,30.961 48.932,31.019 48.932,31.076 C48.961,31.076 48.990,31.076 49.018,31.076 C49.076,31.337 49.133,31.597 49.191,31.858 C50.080,34.143 50.295,37.882 49.535,40.451 C49.535,40.625 49.535,40.799 49.535,40.972 C49.506,40.972 49.477,40.972 49.449,40.972 C49.449,41.146 49.449,41.319 49.449,41.493 C49.420,41.493 49.391,41.493 49.363,41.493 C49.363,41.580 49.363,41.667 49.363,41.753 C49.334,41.753 49.305,41.753 49.277,41.753 C49.277,41.869 49.277,41.985 49.277,42.101 C48.904,42.969 48.531,43.837 48.158,44.705 C48.129,44.705 48.100,44.705 48.072,44.705 C48.043,44.792 48.014,44.878 47.986,44.965 C47.928,44.994 47.871,45.023 47.814,45.052 C47.785,45.168 47.756,45.284 47.728,45.399 C47.670,45.428 47.613,45.457 47.555,45.486 C47.555,45.544 47.555,45.602 47.555,45.660 C47.498,45.689 47.441,45.718 47.383,45.747 C47.355,45.833 47.326,45.920 47.297,46.007 C47.211,46.065 47.125,46.123 47.039,46.181 C47.039,46.238 47.039,46.296 47.039,46.354 C46.666,46.701 46.293,47.049 45.920,47.396 C45.920,47.483 45.920,47.569 45.920,47.656 C45.834,47.685 45.748,47.714 45.662,47.743 C45.605,47.830 45.547,47.917 45.490,48.003 C45.375,48.032 45.261,48.061 45.146,48.090 C45.117,48.148 45.089,48.206 45.060,48.264 C44.974,48.293 44.888,48.322 44.802,48.351 C44.802,48.380 44.802,48.409 44.802,48.437 C44.716,48.437 44.630,48.437 44.543,48.437 C44.515,48.495 44.486,48.553 44.457,48.611 C44.400,48.611 44.343,48.611 44.285,48.611 C44.257,48.669 44.228,48.727 44.199,48.785 C44.027,48.814 43.855,48.843 43.683,48.872 C43.683,48.900 43.683,48.929 43.683,48.958 C43.568,48.987 43.453,49.016 43.339,49.045 C43.339,49.074 43.339,49.103 43.339,49.132 C43.023,49.190 42.708,49.248 42.392,49.306 C42.200,49.374 42.032,49.514 41.790,49.566 C41.790,49.711 41.790,49.855 41.790,50.000 C37.860,50.000 33.930,50.000 30.000,50.000 C30.000,33.335 30.000,16.665 30.000,-0.000 ZM35.594,5.469 C35.594,11.342 35.594,17.217 35.594,23.090 C36.900,23.101 38.212,23.141 39.122,22.743 C39.122,22.714 39.122,22.685 39.122,22.656 C39.179,22.656 39.237,22.656 39.294,22.656 C39.294,22.627 39.294,22.598 39.294,22.569 C39.380,22.569 39.466,22.569 39.552,22.569 C39.552,22.541 39.552,22.512 39.552,22.483 C39.610,22.483 39.667,22.483 39.724,22.483 C39.753,22.425 39.782,22.367 39.810,22.309 C39.925,22.280 40.040,22.251 40.155,22.222 C40.183,22.164 40.212,22.106 40.241,22.049 C40.298,22.049 40.355,22.049 40.413,22.049 C40.499,21.933 40.585,21.817 40.671,21.701 C42.188,20.600 42.973,18.925 43.597,16.927 C43.626,16.609 43.654,16.290 43.683,15.972 C44.183,14.219 43.678,11.809 43.167,10.503 C43.138,10.330 43.109,10.156 43.081,9.983 C43.052,9.983 43.023,9.983 42.994,9.983 C42.937,9.809 42.880,9.635 42.822,9.462 C42.794,9.462 42.765,9.462 42.736,9.462 C42.736,9.404 42.736,9.346 42.736,9.288 C42.708,9.288 42.679,9.288 42.650,9.288 C42.650,9.230 42.650,9.172 42.650,9.115 C42.622,9.115 42.593,9.115 42.564,9.115 C42.564,9.057 42.564,8.999 42.564,8.941 C42.536,8.941 42.507,8.941 42.478,8.941 C42.478,8.883 42.478,8.825 42.478,8.767 C42.449,8.767 42.421,8.767 42.392,8.767 C42.392,8.681 42.392,8.594 42.392,8.507 C42.363,8.507 42.335,8.507 42.306,8.507 C42.306,8.449 42.306,8.391 42.306,8.333 C42.277,8.333 42.249,8.333 42.220,8.333 C42.220,8.275 42.220,8.218 42.220,8.160 C42.077,8.044 41.933,7.928 41.790,7.812 C41.790,7.755 41.790,7.697 41.790,7.639 C41.732,7.610 41.675,7.581 41.618,7.552 C41.618,7.494 41.618,7.436 41.618,7.378 C41.503,7.292 41.388,7.205 41.273,7.118 C41.273,7.089 41.273,7.060 41.273,7.031 C41.216,7.031 41.159,7.031 41.101,7.031 C41.073,6.973 41.044,6.916 41.015,6.858 C40.900,6.829 40.786,6.800 40.671,6.771 C40.556,6.626 40.441,6.481 40.327,6.337 C40.183,6.308 40.040,6.279 39.896,6.250 C39.896,6.221 39.896,6.192 39.896,6.163 C39.724,6.105 39.552,6.047 39.380,5.990 C39.380,5.961 39.380,5.932 39.380,5.903 C38.893,5.758 38.405,5.613 37.917,5.469 C37.143,5.469 36.368,5.469 35.594,5.469 ZM35.594,26.823 C35.594,32.696 35.594,38.571 35.594,44.444 C36.368,44.444 37.143,44.444 37.917,44.444 C38.405,44.300 38.893,44.155 39.380,44.010 C39.380,43.981 39.380,43.953 39.380,43.924 C39.552,43.866 39.724,43.808 39.896,43.750 C39.896,43.721 39.896,43.692 39.896,43.663 C40.040,43.634 40.183,43.605 40.327,43.576 C40.441,43.432 40.556,43.287 40.671,43.142 C40.786,43.113 40.900,43.084 41.015,43.056 C41.044,42.998 41.073,42.940 41.101,42.882 C41.159,42.882 41.216,42.882 41.273,42.882 C41.273,42.853 41.273,42.824 41.273,42.795 C41.388,42.708 41.503,42.622 41.618,42.535 C41.618,42.477 41.618,42.419 41.618,42.361 C41.675,42.332 41.732,42.303 41.790,42.274 C41.790,42.216 41.790,42.159 41.790,42.101 C41.933,41.985 42.077,41.869 42.220,41.753 C42.220,41.696 42.220,41.638 42.220,41.580 C42.249,41.580 42.277,41.580 42.306,41.580 C42.306,41.522 42.306,41.464 42.306,41.406 C42.335,41.406 42.363,41.406 42.392,41.406 C42.392,41.319 42.392,41.233 42.392,41.146 C42.421,41.146 42.449,41.146 42.478,41.146 C42.478,41.088 42.478,41.030 42.478,40.972 C42.507,40.972 42.536,40.972 42.564,40.972 C42.564,40.914 42.564,40.856 42.564,40.799 C42.593,40.799 42.622,40.799 42.650,40.799 C42.650,40.741 42.650,40.683 42.650,40.625 C42.679,40.625 42.708,40.625 42.736,40.625 C42.736,40.567 42.736,40.509 42.736,40.451 C42.765,40.451 42.794,40.451 42.822,40.451 C42.880,40.278 42.937,40.104 42.994,39.931 C43.023,39.931 43.052,39.931 43.081,39.931 C43.109,39.757 43.138,39.583 43.167,39.410 C43.672,38.108 44.189,35.690 43.683,33.941 C43.654,33.623 43.626,33.304 43.597,32.986 C42.964,30.987 42.195,29.316 40.671,28.212 C40.585,28.096 40.499,27.980 40.413,27.865 C40.355,27.865 40.298,27.865 40.241,27.865 C40.212,27.807 40.183,27.749 40.155,27.691 C40.040,27.662 39.925,27.633 39.810,27.604 C39.782,27.546 39.753,27.488 39.724,27.431 C39.667,27.431 39.610,27.431 39.552,27.431 C39.552,27.402 39.552,27.373 39.552,27.344 C39.466,27.344 39.380,27.344 39.294,27.344 C39.294,27.315 39.294,27.286 39.294,27.257 C39.237,27.257 39.179,27.257 39.122,27.257 C39.122,27.228 39.122,27.199 39.122,27.170 C38.206,26.773 36.905,26.815 35.594,26.823 Z"/>
</svg>