<svg 
 xmlns="http://www.w3.org/2000/svg"
 xmlns:xlink="http://www.w3.org/1999/xlink"
 width="17px" height="11px">
<path fill-rule="evenodd"  fill="rgb(253, 137, 44)"
 d="M17.000,6.273 C17.000,5.758 17.000,5.243 17.000,4.728 C12.339,4.728 7.678,4.728 3.017,4.728 C3.017,4.724 3.017,4.719 3.017,4.714 C3.058,4.690 3.101,4.631 3.135,4.597 C3.148,4.587 3.160,4.577 3.172,4.567 C3.241,4.497 3.310,4.426 3.379,4.355 C3.446,4.292 3.512,4.228 3.579,4.165 C3.779,3.965 3.978,3.765 4.178,3.565 C4.466,3.282 4.755,2.999 5.043,2.716 C5.326,2.433 5.610,2.150 5.893,1.867 C6.041,1.723 6.189,1.579 6.337,1.435 C6.367,1.404 6.396,1.372 6.426,1.340 C6.480,1.289 6.534,1.238 6.589,1.186 C6.589,1.184 6.589,1.182 6.589,1.179 C6.615,1.153 6.651,1.131 6.670,1.099 C6.629,1.075 6.586,1.016 6.552,0.982 C6.539,0.972 6.527,0.962 6.515,0.952 C6.446,0.882 6.377,0.811 6.308,0.740 C6.263,0.699 6.219,0.657 6.174,0.616 C6.049,0.489 5.923,0.362 5.797,0.235 C5.790,0.230 5.783,0.225 5.775,0.220 C5.728,0.172 5.681,0.123 5.635,0.074 C5.610,0.050 5.578,0.031 5.561,0.001 C5.552,0.007 5.560,-0.000 5.553,0.008 C3.702,1.838 1.851,3.667 0.000,5.497 C0.000,5.499 0.000,5.502 0.000,5.504 C0.002,5.504 0.005,5.504 0.007,5.504 C1.856,7.336 3.705,9.168 5.553,11.000 C5.556,11.000 5.558,11.000 5.561,11.000 C5.561,10.998 5.561,10.995 5.561,10.993 C5.602,10.969 5.645,10.910 5.679,10.876 C5.691,10.866 5.704,10.856 5.716,10.846 C5.785,10.776 5.854,10.705 5.923,10.634 C5.967,10.593 6.012,10.551 6.056,10.510 C6.182,10.383 6.308,10.256 6.433,10.129 C6.441,10.124 6.448,10.119 6.455,10.115 C6.502,10.066 6.549,10.017 6.596,9.968 C6.620,9.944 6.652,9.925 6.670,9.895 C6.637,9.876 6.615,9.841 6.589,9.814 C6.581,9.810 6.574,9.805 6.566,9.800 C6.512,9.744 6.458,9.688 6.404,9.632 C6.362,9.592 6.320,9.553 6.278,9.514 C6.125,9.361 5.972,9.207 5.819,9.053 C5.489,8.729 5.159,8.404 4.829,8.080 C4.533,7.785 4.237,7.490 3.941,7.195 C3.761,7.019 3.581,6.843 3.401,6.668 C3.357,6.621 3.313,6.575 3.268,6.529 C3.207,6.468 3.145,6.407 3.084,6.346 C3.059,6.322 3.020,6.302 3.010,6.265 C3.012,6.265 3.015,6.265 3.017,6.265 C3.030,6.276 3.060,6.272 3.084,6.273 C3.140,6.273 3.197,6.273 3.254,6.273 C3.478,6.273 3.702,6.273 3.926,6.273 C4.811,6.273 5.696,6.273 6.581,6.273 C10.054,6.273 13.527,6.273 17.000,6.273 Z"/>
</svg>