<svg 
 xmlns="http://www.w3.org/2000/svg"
 xmlns:xlink="http://www.w3.org/1999/xlink"
 width="17px" height="11px">
<path fill-rule="evenodd"  fill="rgb(253, 137, 44)"
 d="M-0.000,6.273 C-0.000,5.758 -0.000,5.243 -0.000,4.728 C4.661,4.728 9.322,4.728 13.983,4.728 C13.983,4.724 13.983,4.719 13.983,4.714 C13.942,4.690 13.899,4.631 13.865,4.597 C13.852,4.587 13.840,4.577 13.828,4.567 C13.759,4.497 13.690,4.426 13.621,4.355 C13.554,4.292 13.488,4.228 13.421,4.165 C13.221,3.965 13.022,3.765 12.822,3.565 C12.534,3.282 12.245,2.999 11.957,2.716 C11.674,2.433 11.390,2.150 11.107,1.867 C10.959,1.723 10.811,1.579 10.663,1.435 C10.633,1.404 10.604,1.372 10.574,1.340 C10.520,1.289 10.466,1.238 10.411,1.186 C10.411,1.184 10.411,1.182 10.411,1.179 C10.385,1.153 10.349,1.131 10.330,1.099 C10.371,1.075 10.414,1.016 10.448,0.982 C10.461,0.972 10.473,0.962 10.485,0.952 C10.554,0.882 10.623,0.811 10.692,0.740 C10.737,0.699 10.781,0.657 10.826,0.616 C10.951,0.489 11.077,0.362 11.203,0.235 C11.210,0.230 11.217,0.225 11.225,0.220 C11.272,0.172 11.319,0.123 11.365,0.074 C11.390,0.050 11.422,0.031 11.439,0.001 C11.448,0.007 11.440,-0.000 11.447,0.008 C13.298,1.838 15.149,3.667 17.000,5.497 C17.000,5.499 17.000,5.502 17.000,5.504 C16.998,5.504 16.995,5.504 16.993,5.504 C15.144,7.336 13.295,9.168 11.447,11.000 C11.444,11.000 11.442,11.000 11.439,11.000 C11.439,10.998 11.439,10.995 11.439,10.993 C11.398,10.969 11.355,10.910 11.321,10.876 C11.309,10.866 11.296,10.856 11.284,10.846 C11.215,10.776 11.146,10.705 11.077,10.634 C11.033,10.593 10.988,10.551 10.944,10.510 C10.818,10.383 10.692,10.256 10.567,10.129 C10.559,10.124 10.552,10.119 10.545,10.115 C10.498,10.066 10.451,10.017 10.404,9.968 C10.380,9.944 10.348,9.925 10.330,9.895 C10.363,9.876 10.385,9.841 10.411,9.814 C10.419,9.810 10.426,9.805 10.434,9.800 C10.488,9.744 10.542,9.688 10.596,9.632 C10.638,9.592 10.680,9.553 10.722,9.514 C10.875,9.361 11.028,9.207 11.181,9.053 C11.511,8.729 11.841,8.404 12.171,8.080 C12.467,7.785 12.763,7.490 13.059,7.195 C13.239,7.019 13.419,6.843 13.599,6.668 C13.643,6.621 13.687,6.575 13.732,6.529 C13.793,6.468 13.855,6.407 13.916,6.346 C13.941,6.322 13.980,6.302 13.990,6.265 C13.988,6.265 13.985,6.265 13.983,6.265 C13.970,6.276 13.940,6.272 13.916,6.273 C13.860,6.273 13.803,6.273 13.746,6.273 C13.522,6.273 13.298,6.273 13.074,6.273 C12.189,6.273 11.304,6.273 10.419,6.273 C6.946,6.273 3.473,6.273 -0.000,6.273 Z"/>
</svg>