<svg 
 xmlns="http://www.w3.org/2000/svg"
 xmlns:xlink="http://www.w3.org/1999/xlink"
 width="19px" height="19px">
<path fill-rule="evenodd"  fill="rgb(80, 84, 92)"
 d="M8.945,0.002 C10.971,-0.035 12.468,0.350 13.757,1.040 C13.782,1.040 13.807,1.040 13.831,1.040 C13.831,1.052 13.831,1.065 13.831,1.077 C13.856,1.077 13.881,1.077 13.905,1.077 C13.905,1.089 13.905,1.102 13.905,1.114 C13.930,1.114 13.955,1.114 13.979,1.114 C13.979,1.126 13.979,1.139 13.979,1.151 C14.004,1.151 14.029,1.151 14.053,1.151 C14.053,1.164 14.053,1.176 14.053,1.188 C14.078,1.188 14.103,1.188 14.127,1.188 C14.140,1.213 14.152,1.238 14.164,1.262 C14.189,1.262 14.214,1.262 14.238,1.262 C14.238,1.275 14.238,1.287 14.238,1.299 C14.288,1.312 14.337,1.324 14.387,1.336 C14.399,1.361 14.411,1.386 14.424,1.411 C14.448,1.411 14.473,1.411 14.498,1.411 C14.510,1.435 14.522,1.460 14.535,1.485 C14.559,1.485 14.584,1.485 14.609,1.485 C14.621,1.509 14.633,1.534 14.646,1.559 C14.695,1.571 14.744,1.584 14.794,1.596 C14.818,1.633 14.843,1.670 14.868,1.707 C14.892,1.707 14.917,1.707 14.942,1.707 C14.954,1.732 14.966,1.756 14.979,1.781 C15.003,1.781 15.028,1.781 15.053,1.781 C15.078,1.818 15.102,1.855 15.127,1.892 C15.152,1.892 15.176,1.892 15.201,1.892 C15.226,1.929 15.250,1.966 15.275,2.004 C15.300,2.004 15.324,2.004 15.349,2.004 C15.386,2.053 15.423,2.102 15.460,2.152 C16.422,2.845 17.155,3.839 17.792,4.857 C17.792,4.882 17.792,4.907 17.792,4.931 C17.805,4.931 17.817,4.931 17.829,4.931 C17.829,4.956 17.829,4.981 17.829,5.005 C17.842,5.005 17.854,5.005 17.866,5.005 C17.866,5.030 17.866,5.055 17.866,5.079 C17.879,5.079 17.891,5.079 17.903,5.079 C17.903,5.104 17.903,5.129 17.903,5.154 C17.916,5.154 17.928,5.154 17.940,5.154 C17.940,5.178 17.940,5.203 17.940,5.228 C17.953,5.228 17.965,5.228 17.977,5.228 C17.977,5.252 17.977,5.277 17.977,5.302 C17.990,5.302 18.002,5.302 18.014,5.302 C18.014,5.327 18.014,5.351 18.014,5.376 C18.027,5.376 18.039,5.376 18.051,5.376 C18.051,5.401 18.051,5.425 18.051,5.450 C18.064,5.450 18.076,5.450 18.088,5.450 C18.113,5.524 18.138,5.598 18.162,5.672 C18.175,5.672 18.187,5.672 18.199,5.672 C18.199,5.709 18.199,5.747 18.199,5.784 C18.212,5.784 18.224,5.784 18.236,5.784 C18.236,5.808 18.236,5.833 18.236,5.858 C18.249,5.858 18.261,5.858 18.274,5.858 C18.274,5.895 18.274,5.932 18.274,5.969 C18.286,5.969 18.298,5.969 18.311,5.969 C18.311,5.994 18.311,6.018 18.311,6.043 C18.323,6.043 18.335,6.043 18.348,6.043 C18.360,6.105 18.372,6.167 18.385,6.228 C18.397,6.228 18.409,6.228 18.422,6.228 C18.545,6.661 18.668,7.093 18.792,7.525 C18.792,7.587 18.792,7.649 18.792,7.711 C18.804,7.711 18.816,7.711 18.829,7.711 C18.829,7.785 18.829,7.859 18.829,7.933 C18.841,7.933 18.853,7.933 18.866,7.933 C18.866,8.020 18.866,8.106 18.866,8.192 C18.878,8.192 18.890,8.192 18.903,8.192 C18.903,8.279 18.903,8.365 18.903,8.452 C18.915,8.452 18.928,8.452 18.940,8.452 C18.940,8.612 18.940,8.773 18.940,8.934 C18.952,8.934 18.965,8.934 18.977,8.934 C19.029,9.119 18.978,9.908 18.940,10.045 C18.940,10.206 18.940,10.367 18.940,10.527 C18.928,10.527 18.915,10.527 18.903,10.527 C18.903,10.614 18.903,10.700 18.903,10.787 C18.890,10.787 18.878,10.787 18.866,10.787 C18.866,10.873 18.866,10.960 18.866,11.046 C18.853,11.046 18.841,11.046 18.829,11.046 C18.829,11.120 18.829,11.194 18.829,11.268 C18.816,11.268 18.804,11.268 18.792,11.268 C18.792,11.330 18.792,11.392 18.792,11.454 C18.779,11.454 18.767,11.454 18.755,11.454 C18.755,11.503 18.755,11.553 18.755,11.602 C18.742,11.602 18.730,11.602 18.718,11.602 C18.718,11.651 18.718,11.701 18.718,11.750 C18.705,11.750 18.693,11.750 18.681,11.750 C18.681,11.800 18.681,11.849 18.681,11.898 C18.668,11.898 18.656,11.898 18.644,11.898 C18.644,11.948 18.644,11.997 18.644,12.047 C18.631,12.047 18.619,12.047 18.607,12.047 C18.607,12.084 18.607,12.121 18.607,12.158 C18.594,12.158 18.582,12.158 18.570,12.158 C18.570,12.207 18.570,12.257 18.570,12.306 C18.557,12.306 18.545,12.306 18.533,12.306 C18.533,12.343 18.533,12.380 18.533,12.417 C18.520,12.417 18.508,12.417 18.496,12.417 C18.496,12.454 18.496,12.491 18.496,12.528 C18.483,12.528 18.471,12.528 18.459,12.528 C18.459,12.566 18.459,12.603 18.459,12.640 C18.446,12.640 18.434,12.640 18.422,12.640 C18.422,12.677 18.422,12.714 18.422,12.751 C18.409,12.751 18.397,12.751 18.385,12.751 C18.385,12.776 18.385,12.800 18.385,12.825 C18.372,12.825 18.360,12.825 18.348,12.825 C18.348,12.862 18.348,12.899 18.348,12.936 C18.335,12.936 18.323,12.936 18.311,12.936 C18.311,12.961 18.311,12.986 18.311,13.010 C18.298,13.010 18.286,13.010 18.274,13.010 C18.274,13.047 18.274,13.084 18.274,13.121 C18.261,13.121 18.249,13.121 18.236,13.121 C18.236,13.146 18.236,13.171 18.236,13.196 C18.224,13.196 18.212,13.196 18.199,13.196 C18.199,13.233 18.199,13.270 18.199,13.307 C18.187,13.307 18.175,13.307 18.162,13.307 C18.138,13.381 18.113,13.455 18.088,13.529 C18.076,13.529 18.064,13.529 18.051,13.529 C18.051,13.554 18.051,13.578 18.051,13.603 C18.039,13.603 18.027,13.603 18.014,13.603 C18.014,13.628 18.014,13.653 18.014,13.677 C18.002,13.677 17.990,13.677 17.977,13.677 C17.977,13.702 17.977,13.727 17.977,13.751 C17.965,13.751 17.953,13.751 17.940,13.751 C17.940,13.776 17.940,13.801 17.940,13.826 C17.928,13.826 17.916,13.826 17.903,13.826 C17.903,13.850 17.903,13.875 17.903,13.900 C17.891,13.900 17.879,13.900 17.866,13.900 C17.866,13.924 17.866,13.949 17.866,13.974 C17.854,13.974 17.842,13.974 17.829,13.974 C17.829,13.998 17.829,14.023 17.829,14.048 C17.817,14.048 17.805,14.048 17.792,14.048 C17.792,14.073 17.792,14.097 17.792,14.122 C17.768,14.134 17.743,14.147 17.718,14.159 C17.694,14.233 17.669,14.307 17.644,14.381 C17.620,14.394 17.595,14.406 17.570,14.419 C17.570,14.443 17.570,14.468 17.570,14.493 C17.545,14.505 17.521,14.517 17.496,14.530 C17.496,14.554 17.496,14.579 17.496,14.604 C17.471,14.616 17.447,14.629 17.422,14.641 C17.410,14.690 17.397,14.740 17.385,14.789 C17.348,14.814 17.311,14.839 17.274,14.863 C17.274,14.888 17.274,14.913 17.274,14.937 C17.249,14.950 17.225,14.962 17.200,14.974 C17.200,14.999 17.200,15.024 17.200,15.049 C17.175,15.061 17.151,15.073 17.126,15.086 C17.114,15.123 17.101,15.160 17.089,15.197 C17.052,15.221 17.015,15.246 16.978,15.271 C16.978,15.296 16.978,15.320 16.978,15.345 C16.941,15.370 16.904,15.394 16.867,15.419 C16.854,15.456 16.842,15.493 16.830,15.530 C16.756,15.592 16.682,15.654 16.608,15.716 C16.608,15.740 16.608,15.765 16.608,15.790 C16.460,15.926 16.311,16.061 16.163,16.197 C16.040,16.333 15.917,16.469 15.793,16.605 C15.769,16.605 15.744,16.605 15.719,16.605 C15.657,16.679 15.596,16.753 15.534,16.827 C15.509,16.827 15.485,16.827 15.460,16.827 C15.423,16.877 15.386,16.926 15.349,16.976 C15.324,16.976 15.300,16.976 15.275,16.976 C15.250,17.013 15.226,17.050 15.201,17.087 C15.164,17.099 15.127,17.112 15.090,17.124 C15.078,17.149 15.065,17.173 15.053,17.198 C15.028,17.198 15.003,17.198 14.979,17.198 C14.966,17.223 14.954,17.247 14.942,17.272 C14.917,17.272 14.892,17.272 14.868,17.272 C14.843,17.309 14.818,17.346 14.794,17.383 C14.744,17.396 14.695,17.408 14.646,17.420 C14.633,17.445 14.621,17.470 14.609,17.494 C14.584,17.494 14.559,17.494 14.535,17.494 C14.522,17.519 14.510,17.544 14.498,17.569 C14.461,17.581 14.424,17.593 14.387,17.606 C14.387,17.618 14.387,17.630 14.387,17.643 C14.312,17.667 14.238,17.692 14.164,17.717 C14.152,17.742 14.140,17.766 14.127,17.791 C14.103,17.791 14.078,17.791 14.053,17.791 C14.053,17.803 14.053,17.816 14.053,17.828 C14.029,17.828 14.004,17.828 13.979,17.828 C13.979,17.840 13.979,17.853 13.979,17.865 C13.955,17.865 13.930,17.865 13.905,17.865 C13.905,17.877 13.905,17.890 13.905,17.902 C13.881,17.902 13.856,17.902 13.831,17.902 C13.831,17.914 13.831,17.927 13.831,17.939 C13.807,17.939 13.782,17.939 13.757,17.939 C13.757,17.952 13.757,17.964 13.757,17.976 C13.733,17.976 13.708,17.976 13.683,17.976 C13.683,17.989 13.683,18.001 13.683,18.013 C13.658,18.013 13.634,18.013 13.609,18.013 C13.609,18.026 13.609,18.038 13.609,18.050 C13.584,18.050 13.560,18.050 13.535,18.050 C13.535,18.063 13.535,18.075 13.535,18.087 C13.461,18.112 13.387,18.137 13.313,18.162 C13.313,18.174 13.313,18.186 13.313,18.199 C13.276,18.199 13.239,18.199 13.202,18.199 C13.202,18.211 13.202,18.223 13.202,18.236 C13.177,18.236 13.153,18.236 13.128,18.236 C13.128,18.248 13.128,18.260 13.128,18.273 C13.066,18.285 13.004,18.297 12.943,18.310 C12.943,18.322 12.943,18.334 12.943,18.347 C12.906,18.347 12.869,18.347 12.832,18.347 C12.832,18.359 12.832,18.372 12.832,18.384 C12.807,18.384 12.782,18.384 12.758,18.384 C12.758,18.396 12.758,18.409 12.758,18.421 C12.684,18.433 12.610,18.446 12.536,18.458 C12.536,18.470 12.536,18.483 12.536,18.495 C12.499,18.495 12.462,18.495 12.425,18.495 C12.425,18.507 12.425,18.520 12.425,18.532 C12.387,18.532 12.350,18.532 12.313,18.532 C12.313,18.544 12.313,18.557 12.313,18.569 C12.227,18.582 12.141,18.594 12.054,18.606 C12.054,18.619 12.054,18.631 12.054,18.643 C11.956,18.656 11.857,18.668 11.758,18.680 C11.758,18.693 11.758,18.705 11.758,18.717 C11.659,18.730 11.561,18.742 11.462,18.754 C11.462,18.767 11.462,18.779 11.462,18.792 C11.326,18.804 11.191,18.816 11.055,18.829 C11.055,18.841 11.055,18.853 11.055,18.866 C10.968,18.866 10.882,18.866 10.796,18.866 C10.796,18.878 10.796,18.890 10.796,18.903 C10.709,18.903 10.623,18.903 10.537,18.903 C10.537,18.915 10.537,18.927 10.537,18.940 C10.376,18.940 10.216,18.940 10.055,18.940 C10.055,18.952 10.055,18.964 10.055,18.977 C9.870,19.029 9.082,18.978 8.945,18.940 C8.784,18.940 8.624,18.940 8.463,18.940 C8.463,18.927 8.463,18.915 8.463,18.903 C8.155,18.866 7.846,18.829 7.538,18.792 C7.106,18.668 6.674,18.544 6.242,18.421 C6.242,18.409 6.242,18.396 6.242,18.384 C6.218,18.384 6.193,18.384 6.168,18.384 C6.168,18.372 6.168,18.359 6.168,18.347 C6.131,18.347 6.094,18.347 6.057,18.347 C6.057,18.334 6.057,18.322 6.057,18.310 C5.996,18.297 5.934,18.285 5.872,18.273 C5.872,18.260 5.872,18.248 5.872,18.236 C5.847,18.236 5.823,18.236 5.798,18.236 C5.798,18.223 5.798,18.211 5.798,18.199 C5.761,18.199 5.724,18.199 5.687,18.199 C5.687,18.186 5.687,18.174 5.687,18.162 C5.613,18.137 5.539,18.112 5.465,18.087 C5.465,18.075 5.465,18.063 5.465,18.050 C5.440,18.050 5.416,18.050 5.391,18.050 C5.391,18.038 5.391,18.026 5.391,18.013 C5.366,18.013 5.342,18.013 5.317,18.013 C5.317,18.001 5.317,17.989 5.317,17.976 C5.292,17.976 5.267,17.976 5.243,17.976 C5.243,17.964 5.243,17.952 5.243,17.939 C5.218,17.939 5.193,17.939 5.169,17.939 C5.169,17.927 5.169,17.914 5.169,17.902 C5.144,17.902 5.119,17.902 5.095,17.902 C5.095,17.890 5.095,17.877 5.095,17.865 C5.070,17.865 5.045,17.865 5.021,17.865 C5.021,17.853 5.021,17.840 5.021,17.828 C4.996,17.828 4.971,17.828 4.947,17.828 C4.947,17.816 4.947,17.803 4.947,17.791 C4.922,17.791 4.897,17.791 4.873,17.791 C4.860,17.766 4.848,17.742 4.836,17.717 C4.811,17.717 4.786,17.717 4.762,17.717 C4.762,17.704 4.762,17.692 4.762,17.680 C4.712,17.667 4.663,17.655 4.613,17.643 C4.601,17.618 4.589,17.593 4.576,17.569 C4.552,17.569 4.527,17.569 4.502,17.569 C4.490,17.544 4.478,17.519 4.465,17.494 C4.441,17.494 4.416,17.494 4.391,17.494 C4.379,17.470 4.367,17.445 4.354,17.420 C4.305,17.408 4.256,17.396 4.206,17.383 C4.182,17.346 4.157,17.309 4.132,17.272 C4.108,17.272 4.083,17.272 4.058,17.272 C4.046,17.247 4.034,17.223 4.021,17.198 C3.997,17.198 3.972,17.198 3.947,17.198 C3.922,17.161 3.898,17.124 3.873,17.087 C3.848,17.087 3.824,17.087 3.799,17.087 C3.774,17.050 3.750,17.013 3.725,16.976 C3.700,16.976 3.676,16.976 3.651,16.976 C3.614,16.926 3.577,16.877 3.540,16.827 C3.515,16.827 3.491,16.827 3.466,16.827 C3.404,16.753 3.343,16.679 3.281,16.605 C3.256,16.605 3.231,16.605 3.207,16.605 C3.145,16.531 3.083,16.457 3.022,16.383 C2.812,16.185 2.602,15.987 2.392,15.790 C2.392,15.765 2.392,15.740 2.392,15.716 C2.318,15.654 2.244,15.592 2.170,15.530 C2.158,15.493 2.146,15.456 2.133,15.419 C2.096,15.394 2.059,15.370 2.022,15.345 C2.022,15.320 2.022,15.296 2.022,15.271 C1.985,15.246 1.948,15.221 1.911,15.197 C1.899,15.160 1.886,15.123 1.874,15.086 C1.849,15.073 1.825,15.061 1.800,15.049 C1.800,15.024 1.800,14.999 1.800,14.974 C1.775,14.962 1.751,14.950 1.726,14.937 C1.726,14.913 1.726,14.888 1.726,14.863 C1.689,14.839 1.652,14.814 1.615,14.789 C1.603,14.740 1.590,14.690 1.578,14.641 C1.553,14.629 1.529,14.616 1.504,14.604 C1.504,14.579 1.504,14.554 1.504,14.530 C1.479,14.517 1.455,14.505 1.430,14.493 C1.430,14.468 1.430,14.443 1.430,14.419 C1.405,14.406 1.380,14.394 1.356,14.381 C1.331,14.307 1.306,14.233 1.282,14.159 C1.257,14.147 1.232,14.134 1.208,14.122 C1.208,14.097 1.208,14.073 1.208,14.048 C1.195,14.048 1.183,14.048 1.171,14.048 C1.171,14.023 1.171,13.998 1.171,13.974 C1.158,13.974 1.146,13.974 1.134,13.974 C1.134,13.949 1.134,13.924 1.134,13.900 C1.121,13.900 1.109,13.900 1.097,13.900 C1.097,13.875 1.097,13.850 1.097,13.826 C1.084,13.826 1.072,13.826 1.060,13.826 C1.060,13.801 1.060,13.776 1.060,13.751 C1.047,13.751 1.035,13.751 1.023,13.751 C1.023,13.727 1.023,13.702 1.023,13.677 C1.010,13.677 0.998,13.677 0.986,13.677 C0.986,13.653 0.986,13.628 0.986,13.603 C0.973,13.603 0.961,13.603 0.949,13.603 C0.949,13.578 0.949,13.554 0.949,13.529 C0.936,13.529 0.924,13.529 0.912,13.529 C0.887,13.455 0.862,13.381 0.838,13.307 C0.825,13.307 0.813,13.307 0.801,13.307 C0.801,13.270 0.801,13.233 0.801,13.196 C0.788,13.196 0.776,13.196 0.764,13.196 C0.764,13.171 0.764,13.146 0.764,13.121 C0.751,13.121 0.739,13.121 0.726,13.121 C0.726,13.084 0.726,13.047 0.726,13.010 C0.714,13.010 0.702,13.010 0.689,13.010 C0.689,12.986 0.689,12.961 0.689,12.936 C0.677,12.936 0.665,12.936 0.652,12.936 C0.554,12.640 0.455,12.343 0.356,12.047 C0.344,11.948 0.332,11.849 0.319,11.750 C0.307,11.750 0.295,11.750 0.282,11.750 C0.282,11.701 0.282,11.651 0.282,11.602 C0.270,11.602 0.258,11.602 0.245,11.602 C0.245,11.553 0.245,11.503 0.245,11.454 C0.233,11.454 0.221,11.454 0.208,11.454 C0.208,11.392 0.208,11.330 0.208,11.268 C0.196,11.268 0.184,11.268 0.171,11.268 C0.171,11.194 0.171,11.120 0.171,11.046 C0.159,11.046 0.147,11.046 0.134,11.046 C0.122,10.873 0.110,10.700 0.097,10.527 C0.085,10.527 0.072,10.527 0.060,10.527 C0.060,10.367 0.060,10.206 0.060,10.045 C0.048,10.045 0.035,10.045 0.023,10.045 C-0.029,9.860 0.022,9.071 0.060,8.934 C0.060,8.773 0.060,8.612 0.060,8.452 C0.072,8.452 0.085,8.452 0.097,8.452 C0.097,8.365 0.097,8.279 0.097,8.192 C0.110,8.192 0.122,8.192 0.134,8.192 C0.147,8.032 0.159,7.871 0.171,7.711 C0.184,7.711 0.196,7.711 0.208,7.711 C0.208,7.649 0.208,7.587 0.208,7.525 C0.221,7.525 0.233,7.525 0.245,7.525 C0.245,7.476 0.245,7.427 0.245,7.377 C0.258,7.377 0.270,7.377 0.282,7.377 C0.282,7.328 0.282,7.278 0.282,7.229 C0.295,7.229 0.307,7.229 0.319,7.229 C0.319,7.180 0.319,7.130 0.319,7.081 C0.332,7.081 0.344,7.081 0.356,7.081 C0.356,7.031 0.356,6.982 0.356,6.932 C0.369,6.932 0.381,6.932 0.393,6.932 C0.393,6.895 0.393,6.858 0.393,6.821 C0.406,6.821 0.418,6.821 0.430,6.821 C0.430,6.772 0.430,6.722 0.430,6.673 C0.443,6.673 0.455,6.673 0.467,6.673 C0.467,6.636 0.467,6.599 0.467,6.562 C0.480,6.562 0.492,6.562 0.504,6.562 C0.504,6.525 0.504,6.488 0.504,6.451 C0.517,6.451 0.529,6.451 0.541,6.451 C0.541,6.414 0.541,6.377 0.541,6.340 C0.554,6.340 0.566,6.340 0.578,6.340 C0.578,6.302 0.578,6.265 0.578,6.228 C0.591,6.228 0.603,6.228 0.615,6.228 C0.615,6.204 0.615,6.179 0.615,6.154 C0.628,6.154 0.640,6.154 0.652,6.154 C0.652,6.117 0.652,6.080 0.652,6.043 C0.665,6.043 0.677,6.043 0.689,6.043 C0.689,6.018 0.689,5.994 0.689,5.969 C0.702,5.969 0.714,5.969 0.726,5.969 C0.726,5.932 0.726,5.895 0.726,5.858 C0.739,5.858 0.751,5.858 0.764,5.858 C0.764,5.833 0.764,5.808 0.764,5.784 C0.776,5.784 0.788,5.784 0.801,5.784 C0.801,5.747 0.801,5.709 0.801,5.672 C0.813,5.672 0.825,5.672 0.838,5.672 C0.862,5.598 0.887,5.524 0.912,5.450 C0.924,5.450 0.936,5.450 0.949,5.450 C0.949,5.425 0.949,5.401 0.949,5.376 C0.961,5.376 0.973,5.376 0.986,5.376 C0.986,5.351 0.986,5.327 0.986,5.302 C0.998,5.302 1.010,5.302 1.023,5.302 C1.023,5.277 1.023,5.252 1.023,5.228 C1.035,5.228 1.047,5.228 1.060,5.228 C1.060,5.203 1.060,5.178 1.060,5.154 C1.072,5.154 1.084,5.154 1.097,5.154 C1.097,5.129 1.097,5.104 1.097,5.079 C1.109,5.079 1.121,5.079 1.134,5.079 C1.134,5.055 1.134,5.030 1.134,5.005 C1.146,5.005 1.158,5.005 1.171,5.005 C1.171,4.981 1.171,4.956 1.171,4.931 C1.183,4.931 1.195,4.931 1.208,4.931 C1.208,4.907 1.208,4.882 1.208,4.857 C1.232,4.845 1.257,4.832 1.282,4.820 C1.282,4.795 1.282,4.771 1.282,4.746 C1.294,4.746 1.306,4.746 1.319,4.746 C1.331,4.697 1.343,4.647 1.356,4.598 C1.380,4.585 1.405,4.573 1.430,4.561 C1.430,4.536 1.430,4.511 1.430,4.487 C1.455,4.474 1.479,4.462 1.504,4.449 C1.504,4.425 1.504,4.400 1.504,4.375 C1.529,4.363 1.553,4.351 1.578,4.338 C1.590,4.289 1.603,4.239 1.615,4.190 C1.652,4.165 1.689,4.141 1.726,4.116 C1.726,4.091 1.726,4.067 1.726,4.042 C1.751,4.029 1.775,4.017 1.800,4.005 C1.800,3.980 1.800,3.955 1.800,3.931 C1.837,3.906 1.874,3.881 1.911,3.857 C1.911,3.832 1.911,3.807 1.911,3.782 C1.948,3.758 1.985,3.733 2.022,3.708 C2.022,3.684 2.022,3.659 2.022,3.634 C2.072,3.597 2.121,3.560 2.170,3.523 C2.170,3.498 2.170,3.474 2.170,3.449 C2.244,3.387 2.318,3.325 2.392,3.264 C2.392,3.239 2.392,3.214 2.392,3.189 C2.466,3.128 2.540,3.066 2.614,3.004 C2.812,2.794 3.009,2.584 3.207,2.374 C3.231,2.374 3.256,2.374 3.281,2.374 C3.343,2.300 3.404,2.226 3.466,2.152 C3.503,2.139 3.540,2.127 3.577,2.115 C3.602,2.078 3.626,2.041 3.651,2.004 C3.676,2.004 3.700,2.004 3.725,2.004 C3.750,1.966 3.774,1.929 3.799,1.892 C3.836,1.880 3.873,1.868 3.910,1.855 C3.922,1.831 3.935,1.806 3.947,1.781 C3.972,1.781 3.997,1.781 4.021,1.781 C4.034,1.756 4.046,1.732 4.058,1.707 C4.083,1.707 4.108,1.707 4.132,1.707 C4.157,1.670 4.182,1.633 4.206,1.596 C4.256,1.584 4.305,1.571 4.354,1.559 C4.367,1.534 4.379,1.509 4.391,1.485 C4.416,1.485 4.441,1.485 4.465,1.485 C4.478,1.460 4.490,1.435 4.502,1.411 C4.527,1.411 4.552,1.411 4.576,1.411 C4.589,1.386 4.601,1.361 4.613,1.336 C4.688,1.312 4.762,1.287 4.836,1.262 C4.848,1.238 4.860,1.213 4.873,1.188 C4.897,1.188 4.922,1.188 4.947,1.188 C4.947,1.176 4.947,1.164 4.947,1.151 C4.971,1.151 4.996,1.151 5.021,1.151 C5.021,1.139 5.021,1.126 5.021,1.114 C5.045,1.114 5.070,1.114 5.095,1.114 C5.095,1.102 5.095,1.089 5.095,1.077 C5.119,1.077 5.144,1.077 5.169,1.077 C5.169,1.065 5.169,1.052 5.169,1.040 C5.193,1.040 5.218,1.040 5.243,1.040 C5.243,1.028 5.243,1.015 5.243,1.003 C5.267,1.003 5.292,1.003 5.317,1.003 C5.317,0.991 5.317,0.978 5.317,0.966 C5.342,0.966 5.366,0.966 5.391,0.966 C5.391,0.954 5.391,0.941 5.391,0.929 C5.416,0.929 5.440,0.929 5.465,0.929 C5.465,0.916 5.465,0.904 5.465,0.892 C5.539,0.867 5.613,0.842 5.687,0.818 C5.687,0.805 5.687,0.793 5.687,0.781 C5.724,0.781 5.761,0.781 5.798,0.781 C5.798,0.768 5.798,0.756 5.798,0.744 C5.823,0.744 5.847,0.744 5.872,0.744 C5.872,0.731 5.872,0.719 5.872,0.706 C5.909,0.706 5.946,0.706 5.983,0.706 C5.983,0.694 5.983,0.682 5.983,0.669 C6.008,0.669 6.033,0.669 6.057,0.669 C6.057,0.657 6.057,0.645 6.057,0.632 C6.094,0.632 6.131,0.632 6.168,0.632 C6.168,0.620 6.168,0.608 6.168,0.595 C6.193,0.595 6.218,0.595 6.242,0.595 C6.242,0.583 6.242,0.571 6.242,0.558 C6.279,0.558 6.316,0.558 6.353,0.558 C6.353,0.546 6.353,0.534 6.353,0.521 C6.390,0.521 6.427,0.521 6.464,0.521 C6.464,0.509 6.464,0.496 6.464,0.484 C6.501,0.484 6.538,0.484 6.575,0.484 C6.575,0.472 6.575,0.459 6.575,0.447 C6.613,0.447 6.650,0.447 6.687,0.447 C6.687,0.435 6.687,0.422 6.687,0.410 C6.736,0.410 6.785,0.410 6.835,0.410 C6.835,0.398 6.835,0.385 6.835,0.373 C6.872,0.373 6.909,0.373 6.946,0.373 C6.946,0.361 6.946,0.348 6.946,0.336 C6.995,0.336 7.044,0.336 7.094,0.336 C7.094,0.324 7.094,0.311 7.094,0.299 C7.143,0.299 7.192,0.299 7.242,0.299 C7.242,0.286 7.242,0.274 7.242,0.262 C7.291,0.262 7.341,0.262 7.390,0.262 C7.390,0.249 7.390,0.237 7.390,0.225 C7.439,0.225 7.489,0.225 7.538,0.225 C7.538,0.212 7.538,0.200 7.538,0.188 C7.600,0.188 7.661,0.188 7.723,0.188 C7.723,0.175 7.723,0.163 7.723,0.151 C7.797,0.151 7.871,0.151 7.945,0.151 C7.945,0.138 7.945,0.126 7.945,0.113 C8.032,0.113 8.118,0.113 8.204,0.113 C8.204,0.101 8.204,0.089 8.204,0.076 C8.291,0.076 8.377,0.076 8.463,0.076 C8.463,0.064 8.463,0.052 8.463,0.039 C8.618,-0.005 8.844,0.092 8.945,0.002 ZM9.463,2.004 C9.333,2.113 8.675,2.017 8.463,2.078 C8.463,2.090 8.463,2.102 8.463,2.115 C8.377,2.115 8.291,2.115 8.204,2.115 C8.204,2.127 8.204,2.139 8.204,2.152 C8.143,2.152 8.081,2.152 8.019,2.152 C8.019,2.164 8.019,2.176 8.019,2.189 C7.958,2.189 7.896,2.189 7.834,2.189 C7.834,2.201 7.834,2.214 7.834,2.226 C7.785,2.226 7.735,2.226 7.686,2.226 C7.686,2.238 7.686,2.251 7.686,2.263 C7.637,2.263 7.587,2.263 7.538,2.263 C7.538,2.275 7.538,2.288 7.538,2.300 C7.501,2.300 7.464,2.300 7.427,2.300 C7.427,2.312 7.427,2.325 7.427,2.337 C7.378,2.337 7.328,2.337 7.279,2.337 C7.279,2.349 7.279,2.362 7.279,2.374 C7.254,2.374 7.229,2.374 7.205,2.374 C7.205,2.386 7.205,2.399 7.205,2.411 C7.168,2.411 7.131,2.411 7.094,2.411 C7.094,2.424 7.094,2.436 7.094,2.448 C7.020,2.461 6.946,2.473 6.872,2.485 C6.872,2.498 6.872,2.510 6.872,2.522 C6.847,2.522 6.822,2.522 6.798,2.522 C6.798,2.535 6.798,2.547 6.798,2.559 C6.724,2.572 6.650,2.584 6.575,2.596 C6.575,2.609 6.575,2.621 6.575,2.634 C6.501,2.658 6.427,2.683 6.353,2.708 C6.353,2.720 6.353,2.732 6.353,2.745 C6.329,2.745 6.304,2.745 6.279,2.745 C6.279,2.757 6.279,2.769 6.279,2.782 C6.255,2.782 6.230,2.782 6.205,2.782 C6.205,2.794 6.205,2.806 6.205,2.819 C6.181,2.819 6.156,2.819 6.131,2.819 C6.131,2.831 6.131,2.844 6.131,2.856 C6.107,2.856 6.082,2.856 6.057,2.856 C6.057,2.868 6.057,2.881 6.057,2.893 C5.983,2.918 5.909,2.942 5.835,2.967 C5.823,2.992 5.810,3.017 5.798,3.041 C5.749,3.054 5.699,3.066 5.650,3.078 C5.638,3.103 5.625,3.128 5.613,3.152 C5.564,3.165 5.514,3.177 5.465,3.189 C5.465,3.202 5.465,3.214 5.465,3.227 C5.428,3.239 5.391,3.251 5.354,3.264 C5.342,3.288 5.329,3.313 5.317,3.338 C5.292,3.338 5.267,3.338 5.243,3.338 C5.218,3.375 5.193,3.412 5.169,3.449 C5.144,3.449 5.119,3.449 5.095,3.449 C5.070,3.486 5.045,3.523 5.021,3.560 C4.996,3.560 4.971,3.560 4.947,3.560 C4.922,3.597 4.897,3.634 4.873,3.671 C4.848,3.671 4.823,3.671 4.799,3.671 C4.737,3.745 4.675,3.819 4.613,3.894 C4.589,3.894 4.564,3.894 4.539,3.894 C4.441,4.005 4.342,4.116 4.243,4.227 C4.132,4.326 4.021,4.425 3.910,4.524 C3.910,4.548 3.910,4.573 3.910,4.598 C3.836,4.659 3.762,4.721 3.688,4.783 C3.676,4.820 3.663,4.857 3.651,4.894 C3.626,4.907 3.602,4.919 3.577,4.931 C3.577,4.956 3.577,4.981 3.577,5.005 C3.540,5.030 3.503,5.055 3.466,5.079 C3.454,5.117 3.441,5.154 3.429,5.191 C3.404,5.203 3.380,5.215 3.355,5.228 C3.355,5.252 3.355,5.277 3.355,5.302 C3.330,5.314 3.305,5.327 3.281,5.339 C3.268,5.376 3.256,5.413 3.244,5.450 C3.231,5.450 3.219,5.450 3.207,5.450 C3.194,5.499 3.182,5.549 3.170,5.598 C3.145,5.611 3.120,5.623 3.096,5.635 C3.083,5.685 3.071,5.734 3.059,5.784 C3.034,5.796 3.009,5.808 2.985,5.821 C2.985,5.845 2.985,5.870 2.985,5.895 C2.972,5.895 2.960,5.895 2.948,5.895 C2.948,5.919 2.948,5.944 2.948,5.969 C2.935,5.969 2.923,5.969 2.911,5.969 C2.911,5.994 2.911,6.018 2.911,6.043 C2.898,6.043 2.886,6.043 2.874,6.043 C2.874,6.068 2.874,6.092 2.874,6.117 C2.861,6.117 2.849,6.117 2.837,6.117 C2.837,6.142 2.837,6.167 2.837,6.191 C2.824,6.191 2.812,6.191 2.800,6.191 C2.800,6.216 2.800,6.241 2.800,6.265 C2.787,6.265 2.775,6.265 2.763,6.265 C2.763,6.290 2.763,6.315 2.763,6.340 C2.750,6.340 2.738,6.340 2.726,6.340 C2.701,6.414 2.676,6.488 2.651,6.562 C2.639,6.562 2.627,6.562 2.614,6.562 C2.491,6.932 2.368,7.303 2.244,7.674 C2.244,7.723 2.244,7.772 2.244,7.822 C2.232,7.822 2.220,7.822 2.207,7.822 C2.207,7.884 2.207,7.945 2.207,8.007 C2.195,8.007 2.183,8.007 2.170,8.007 C2.170,8.069 2.170,8.131 2.170,8.192 C2.158,8.192 2.146,8.192 2.133,8.192 C2.133,8.279 2.133,8.365 2.133,8.452 C2.121,8.452 2.109,8.452 2.096,8.452 C2.084,8.785 2.072,9.119 2.059,9.453 C1.986,9.787 2.110,10.656 2.207,10.972 C2.220,11.083 2.232,11.194 2.244,11.305 C2.368,11.676 2.491,12.047 2.614,12.417 C2.627,12.417 2.639,12.417 2.651,12.417 C2.676,12.491 2.701,12.566 2.726,12.640 C2.738,12.640 2.750,12.640 2.763,12.640 C2.763,12.664 2.763,12.689 2.763,12.714 C2.775,12.714 2.787,12.714 2.800,12.714 C2.800,12.738 2.800,12.763 2.800,12.788 C2.812,12.788 2.824,12.788 2.837,12.788 C2.837,12.813 2.837,12.837 2.837,12.862 C2.849,12.862 2.861,12.862 2.874,12.862 C2.874,12.887 2.874,12.911 2.874,12.936 C2.886,12.936 2.898,12.936 2.911,12.936 C2.911,12.961 2.911,12.986 2.911,13.010 C2.923,13.010 2.935,13.010 2.948,13.010 C2.948,13.035 2.948,13.060 2.948,13.084 C2.960,13.084 2.972,13.084 2.985,13.084 C2.985,13.109 2.985,13.134 2.985,13.158 C3.009,13.171 3.034,13.183 3.059,13.196 C3.071,13.245 3.083,13.294 3.096,13.344 C3.120,13.356 3.145,13.368 3.170,13.381 C3.182,13.430 3.194,13.480 3.207,13.529 C3.219,13.529 3.231,13.529 3.244,13.529 C3.256,13.566 3.268,13.603 3.281,13.640 C3.305,13.653 3.330,13.665 3.355,13.677 C3.355,13.702 3.355,13.727 3.355,13.751 C3.392,13.776 3.429,13.801 3.466,13.826 C3.466,13.850 3.466,13.875 3.466,13.900 C3.503,13.924 3.540,13.949 3.577,13.974 C3.577,13.998 3.577,14.023 3.577,14.048 C3.614,14.073 3.651,14.097 3.688,14.122 C3.688,14.147 3.688,14.171 3.688,14.196 C3.762,14.258 3.836,14.320 3.910,14.381 C3.910,14.406 3.910,14.431 3.910,14.456 C4.021,14.554 4.132,14.653 4.243,14.752 C4.342,14.863 4.441,14.974 4.539,15.086 C4.564,15.086 4.589,15.086 4.613,15.086 C4.675,15.160 4.737,15.234 4.799,15.308 C4.823,15.308 4.848,15.308 4.873,15.308 C4.897,15.345 4.922,15.382 4.947,15.419 C4.971,15.419 4.996,15.419 5.021,15.419 C5.045,15.456 5.070,15.493 5.095,15.530 C5.119,15.530 5.144,15.530 5.169,15.530 C5.193,15.567 5.218,15.604 5.243,15.641 C5.267,15.641 5.292,15.641 5.317,15.641 C5.329,15.666 5.342,15.691 5.354,15.716 C5.379,15.716 5.403,15.716 5.428,15.716 C5.440,15.740 5.453,15.765 5.465,15.790 C5.514,15.802 5.564,15.814 5.613,15.827 C5.625,15.851 5.638,15.876 5.650,15.901 C5.699,15.913 5.749,15.926 5.798,15.938 C5.810,15.963 5.823,15.987 5.835,16.012 C5.860,16.012 5.884,16.012 5.909,16.012 C5.909,16.024 5.909,16.037 5.909,16.049 C5.934,16.049 5.959,16.049 5.983,16.049 C5.983,16.061 5.983,16.074 5.983,16.086 C6.008,16.086 6.033,16.086 6.057,16.086 C6.057,16.099 6.057,16.111 6.057,16.123 C6.082,16.123 6.107,16.123 6.131,16.123 C6.131,16.136 6.131,16.148 6.131,16.160 C6.156,16.160 6.181,16.160 6.205,16.160 C6.205,16.173 6.205,16.185 6.205,16.197 C6.230,16.197 6.255,16.197 6.279,16.197 C6.279,16.210 6.279,16.222 6.279,16.234 C6.304,16.234 6.329,16.234 6.353,16.234 C6.353,16.247 6.353,16.259 6.353,16.271 C6.427,16.296 6.501,16.321 6.575,16.346 C6.575,16.358 6.575,16.370 6.575,16.383 C6.995,16.519 7.415,16.654 7.834,16.790 C7.896,16.790 7.958,16.790 8.019,16.790 C8.019,16.803 8.019,16.815 8.019,16.827 C8.081,16.827 8.143,16.827 8.204,16.827 C8.204,16.840 8.204,16.852 8.204,16.864 C8.291,16.864 8.377,16.864 8.463,16.864 C8.463,16.877 8.463,16.889 8.463,16.901 C8.784,16.914 9.105,16.926 9.426,16.939 C9.463,16.951 9.500,16.963 9.537,16.976 C9.537,16.963 9.537,16.951 9.537,16.939 C9.771,16.939 10.006,16.939 10.240,16.939 C10.240,16.926 10.240,16.914 10.240,16.901 C10.339,16.901 10.438,16.901 10.537,16.901 C10.537,16.889 10.537,16.877 10.537,16.864 C10.623,16.864 10.709,16.864 10.796,16.864 C10.796,16.852 10.796,16.840 10.796,16.827 C10.919,16.815 11.042,16.803 11.166,16.790 C11.166,16.778 11.166,16.766 11.166,16.753 C11.215,16.753 11.265,16.753 11.314,16.753 C11.314,16.741 11.314,16.729 11.314,16.716 C11.363,16.716 11.413,16.716 11.462,16.716 C11.462,16.704 11.462,16.691 11.462,16.679 C11.499,16.679 11.536,16.679 11.573,16.679 C11.573,16.667 11.573,16.654 11.573,16.642 C11.622,16.642 11.672,16.642 11.721,16.642 C11.721,16.630 11.721,16.617 11.721,16.605 C11.746,16.605 11.771,16.605 11.795,16.605 C11.795,16.593 11.795,16.580 11.795,16.568 C11.869,16.556 11.943,16.543 12.017,16.531 C12.017,16.519 12.017,16.506 12.017,16.494 C12.054,16.494 12.091,16.494 12.128,16.494 C12.128,16.481 12.128,16.469 12.128,16.457 C12.153,16.457 12.178,16.457 12.202,16.457 C12.202,16.444 12.202,16.432 12.202,16.420 C12.239,16.420 12.276,16.420 12.313,16.420 C12.313,16.407 12.313,16.395 12.313,16.383 C12.350,16.383 12.387,16.383 12.425,16.383 C12.425,16.370 12.425,16.358 12.425,16.346 C12.499,16.321 12.573,16.296 12.647,16.271 C12.647,16.259 12.647,16.247 12.647,16.234 C12.671,16.234 12.696,16.234 12.721,16.234 C12.721,16.222 12.721,16.210 12.721,16.197 C12.745,16.197 12.770,16.197 12.795,16.197 C12.795,16.185 12.795,16.173 12.795,16.160 C12.819,16.160 12.844,16.160 12.869,16.160 C12.869,16.148 12.869,16.136 12.869,16.123 C12.893,16.123 12.918,16.123 12.943,16.123 C12.943,16.111 12.943,16.099 12.943,16.086 C12.967,16.086 12.992,16.086 13.017,16.086 C13.017,16.074 13.017,16.061 13.017,16.049 C13.041,16.049 13.066,16.049 13.091,16.049 C13.091,16.037 13.091,16.024 13.091,16.012 C13.116,16.012 13.140,16.012 13.165,16.012 C13.177,15.987 13.190,15.963 13.202,15.938 C13.251,15.926 13.301,15.913 13.350,15.901 C13.362,15.876 13.375,15.851 13.387,15.827 C13.436,15.814 13.486,15.802 13.535,15.790 C13.547,15.765 13.560,15.740 13.572,15.716 C13.597,15.716 13.621,15.716 13.646,15.716 C13.658,15.691 13.671,15.666 13.683,15.641 C13.708,15.641 13.733,15.641 13.757,15.641 C13.782,15.604 13.807,15.567 13.831,15.530 C13.856,15.530 13.881,15.530 13.905,15.530 C13.930,15.493 13.955,15.456 13.979,15.419 C14.004,15.419 14.029,15.419 14.053,15.419 C14.078,15.382 14.103,15.345 14.127,15.308 C14.152,15.308 14.177,15.308 14.201,15.308 C14.263,15.234 14.325,15.160 14.387,15.086 C14.411,15.086 14.436,15.086 14.461,15.086 C14.559,14.974 14.658,14.863 14.757,14.752 C14.868,14.653 14.979,14.554 15.090,14.456 C15.090,14.431 15.090,14.406 15.090,14.381 C15.164,14.320 15.238,14.258 15.312,14.196 C15.312,14.171 15.312,14.147 15.312,14.122 C15.349,14.097 15.386,14.073 15.423,14.048 C15.423,14.023 15.423,13.998 15.423,13.974 C15.460,13.949 15.497,13.924 15.534,13.900 C15.534,13.875 15.534,13.850 15.534,13.826 C15.571,13.801 15.608,13.776 15.645,13.751 C15.645,13.727 15.645,13.702 15.645,13.677 C15.670,13.665 15.695,13.653 15.719,13.640 C15.732,13.603 15.744,13.566 15.756,13.529 C15.769,13.529 15.781,13.529 15.793,13.529 C15.806,13.480 15.818,13.430 15.830,13.381 C15.855,13.368 15.880,13.356 15.904,13.344 C15.917,13.294 15.929,13.245 15.941,13.196 C15.966,13.183 15.991,13.171 16.015,13.158 C16.015,13.134 16.015,13.109 16.015,13.084 C16.028,13.084 16.040,13.084 16.052,13.084 C16.052,13.060 16.052,13.035 16.052,13.010 C16.065,13.010 16.077,13.010 16.089,13.010 C16.089,12.986 16.089,12.961 16.089,12.936 C16.102,12.936 16.114,12.936 16.126,12.936 C16.126,12.911 16.126,12.887 16.126,12.862 C16.139,12.862 16.151,12.862 16.163,12.862 C16.163,12.837 16.163,12.813 16.163,12.788 C16.176,12.788 16.188,12.788 16.200,12.788 C16.200,12.763 16.200,12.738 16.200,12.714 C16.213,12.714 16.225,12.714 16.237,12.714 C16.237,12.689 16.237,12.664 16.237,12.640 C16.250,12.640 16.262,12.640 16.274,12.640 C16.299,12.566 16.324,12.491 16.349,12.417 C16.361,12.417 16.373,12.417 16.386,12.417 C16.386,12.380 16.386,12.343 16.386,12.306 C16.398,12.306 16.410,12.306 16.423,12.306 C16.423,12.269 16.423,12.232 16.423,12.195 C16.435,12.195 16.447,12.195 16.460,12.195 C16.460,12.170 16.460,12.146 16.460,12.121 C16.472,12.121 16.484,12.121 16.497,12.121 C16.509,12.047 16.521,11.973 16.534,11.898 C16.546,11.898 16.558,11.898 16.571,11.898 C16.571,11.874 16.571,11.849 16.571,11.824 C16.583,11.824 16.595,11.824 16.608,11.824 C16.620,11.738 16.632,11.651 16.645,11.565 C16.957,10.678 17.102,9.012 16.793,8.007 C16.768,7.847 16.743,7.686 16.719,7.525 C16.706,7.525 16.694,7.525 16.682,7.525 C16.682,7.488 16.682,7.451 16.682,7.414 C16.669,7.414 16.657,7.414 16.645,7.414 C16.632,7.328 16.620,7.241 16.608,7.155 C16.595,7.155 16.583,7.155 16.571,7.155 C16.571,7.130 16.571,7.105 16.571,7.081 C16.558,7.081 16.546,7.081 16.534,7.081 C16.521,7.007 16.509,6.932 16.497,6.858 C16.484,6.858 16.472,6.858 16.460,6.858 C16.460,6.834 16.460,6.809 16.460,6.784 C16.447,6.784 16.435,6.784 16.423,6.784 C16.410,6.710 16.398,6.636 16.386,6.562 C16.373,6.562 16.361,6.562 16.349,6.562 C16.324,6.488 16.299,6.414 16.274,6.340 C16.262,6.340 16.250,6.340 16.237,6.340 C16.237,6.315 16.237,6.290 16.237,6.265 C16.225,6.265 16.213,6.265 16.200,6.265 C16.200,6.241 16.200,6.216 16.200,6.191 C16.188,6.191 16.176,6.191 16.163,6.191 C16.163,6.167 16.163,6.142 16.163,6.117 C16.151,6.117 16.139,6.117 16.126,6.117 C16.126,6.092 16.126,6.068 16.126,6.043 C16.114,6.043 16.102,6.043 16.089,6.043 C16.089,6.018 16.089,5.994 16.089,5.969 C16.077,5.969 16.065,5.969 16.052,5.969 C16.052,5.944 16.052,5.919 16.052,5.895 C16.040,5.895 16.028,5.895 16.015,5.895 C16.015,5.870 16.015,5.845 16.015,5.821 C15.991,5.808 15.966,5.796 15.941,5.784 C15.929,5.734 15.917,5.685 15.904,5.635 C15.880,5.623 15.855,5.611 15.830,5.598 C15.818,5.549 15.806,5.499 15.793,5.450 C15.769,5.438 15.744,5.425 15.719,5.413 C15.719,5.388 15.719,5.364 15.719,5.339 C15.695,5.327 15.670,5.314 15.645,5.302 C15.645,5.277 15.645,5.252 15.645,5.228 C15.608,5.203 15.571,5.178 15.534,5.154 C15.534,5.129 15.534,5.104 15.534,5.079 C15.497,5.055 15.460,5.030 15.423,5.005 C15.423,4.981 15.423,4.956 15.423,4.931 C15.398,4.919 15.374,4.907 15.349,4.894 C15.337,4.857 15.324,4.820 15.312,4.783 C15.238,4.721 15.164,4.659 15.090,4.598 C15.090,4.573 15.090,4.548 15.090,4.524 C14.979,4.425 14.868,4.326 14.757,4.227 C14.658,4.116 14.559,4.005 14.461,3.894 C14.436,3.894 14.411,3.894 14.387,3.894 C14.325,3.819 14.263,3.745 14.201,3.671 C14.177,3.671 14.152,3.671 14.127,3.671 C14.103,3.634 14.078,3.597 14.053,3.560 C14.029,3.560 14.004,3.560 13.979,3.560 C13.955,3.523 13.930,3.486 13.905,3.449 C13.881,3.449 13.856,3.449 13.831,3.449 C13.807,3.412 13.782,3.375 13.757,3.338 C13.733,3.338 13.708,3.338 13.683,3.338 C13.671,3.313 13.658,3.288 13.646,3.264 C13.621,3.264 13.597,3.264 13.572,3.264 C13.560,3.239 13.547,3.214 13.535,3.189 C13.486,3.177 13.436,3.165 13.387,3.152 C13.375,3.128 13.362,3.103 13.350,3.078 C13.301,3.066 13.251,3.054 13.202,3.041 C13.190,3.017 13.177,2.992 13.165,2.967 C13.140,2.967 13.116,2.967 13.091,2.967 C13.091,2.955 13.091,2.942 13.091,2.930 C13.066,2.930 13.041,2.930 13.017,2.930 C13.017,2.918 13.017,2.905 13.017,2.893 C12.992,2.893 12.967,2.893 12.943,2.893 C12.943,2.881 12.943,2.868 12.943,2.856 C12.918,2.856 12.893,2.856 12.869,2.856 C12.869,2.844 12.869,2.831 12.869,2.819 C12.844,2.819 12.819,2.819 12.795,2.819 C12.795,2.806 12.795,2.794 12.795,2.782 C12.770,2.782 12.745,2.782 12.721,2.782 C12.721,2.769 12.721,2.757 12.721,2.745 C12.696,2.745 12.671,2.745 12.647,2.745 C12.647,2.732 12.647,2.720 12.647,2.708 C12.573,2.683 12.499,2.658 12.425,2.634 C12.425,2.621 12.425,2.609 12.425,2.596 C12.350,2.584 12.276,2.572 12.202,2.559 C12.202,2.547 12.202,2.535 12.202,2.522 C12.178,2.522 12.153,2.522 12.128,2.522 C12.128,2.510 12.128,2.498 12.128,2.485 C12.054,2.473 11.980,2.461 11.906,2.448 C11.906,2.436 11.906,2.424 11.906,2.411 C11.869,2.411 11.832,2.411 11.795,2.411 C11.795,2.399 11.795,2.386 11.795,2.374 C11.771,2.374 11.746,2.374 11.721,2.374 C11.721,2.362 11.721,2.349 11.721,2.337 C11.635,2.325 11.548,2.312 11.462,2.300 C11.462,2.288 11.462,2.275 11.462,2.263 C11.413,2.263 11.363,2.263 11.314,2.263 C11.314,2.251 11.314,2.238 11.314,2.226 C11.265,2.226 11.215,2.226 11.166,2.226 C11.166,2.214 11.166,2.201 11.166,2.189 C11.104,2.189 11.042,2.189 10.981,2.189 C10.981,2.176 10.981,2.164 10.981,2.152 C10.919,2.152 10.857,2.152 10.796,2.152 C10.796,2.139 10.796,2.127 10.796,2.115 C10.709,2.115 10.623,2.115 10.537,2.115 C10.537,2.102 10.537,2.090 10.537,2.078 C10.438,2.078 10.339,2.078 10.240,2.078 C10.240,2.065 10.240,2.053 10.240,2.041 C10.006,2.041 9.771,2.041 9.537,2.041 C9.537,2.028 9.537,2.016 9.537,2.004 C9.512,2.004 9.488,2.004 9.463,2.004 ZM10.166,9.193 C11.363,9.193 12.560,9.193 13.757,9.193 C14.145,9.193 14.630,9.144 14.868,9.304 C14.905,9.354 14.942,9.403 14.979,9.453 C15.049,9.523 15.095,9.518 15.127,9.638 C15.185,9.696 15.251,10.041 15.201,10.194 C15.122,10.435 14.888,10.672 14.646,10.750 C14.103,10.750 13.560,10.750 13.017,10.750 C11.746,10.750 10.475,10.750 9.204,10.750 C9.122,10.723 9.048,10.661 8.945,10.638 C8.861,10.497 8.712,10.406 8.649,10.231 C8.538,9.926 8.612,9.077 8.612,8.674 C8.612,7.513 8.612,6.352 8.612,5.191 C8.612,4.518 8.497,3.552 9.019,3.412 C9.085,3.336 9.421,3.239 9.611,3.301 C9.852,3.379 10.089,3.614 10.166,3.857 C10.166,5.635 10.166,7.414 10.166,9.193 Z"/>
</svg>