<svg 
 xmlns="http://www.w3.org/2000/svg"
 xmlns:xlink="http://www.w3.org/1999/xlink"
 width="42px" height="33px">
<path fill-rule="evenodd"  fill="rgb(253, 137, 44)"
 d="M36.321,11.008 C36.871,11.008 37.421,11.008 37.972,11.008 C38.227,11.008 38.518,10.989 38.719,11.047 C38.764,11.047 38.810,11.047 38.856,11.047 C38.856,11.054 38.856,11.061 38.856,11.067 C38.922,11.074 38.987,11.080 39.053,11.087 C39.053,11.094 39.053,11.100 39.053,11.107 C39.079,11.107 39.105,11.107 39.131,11.107 C39.131,11.113 39.131,11.120 39.131,11.127 C39.158,11.127 39.184,11.127 39.210,11.127 C39.210,11.133 39.210,11.140 39.210,11.146 C39.230,11.146 39.249,11.146 39.269,11.146 C39.269,11.153 39.269,11.160 39.269,11.166 C39.295,11.166 39.321,11.166 39.348,11.166 C39.348,11.173 39.348,11.179 39.348,11.186 C39.387,11.193 39.426,11.199 39.465,11.206 C39.465,11.212 39.465,11.219 39.465,11.226 C39.479,11.226 39.492,11.226 39.505,11.226 C39.505,11.232 39.505,11.239 39.505,11.245 C39.544,11.252 39.583,11.259 39.623,11.265 C39.623,11.272 39.623,11.278 39.623,11.285 C39.636,11.285 39.649,11.285 39.662,11.285 C39.662,11.292 39.662,11.298 39.662,11.305 C39.682,11.305 39.701,11.305 39.721,11.305 C39.721,11.311 39.721,11.318 39.721,11.325 C39.760,11.338 39.800,11.351 39.839,11.364 C39.839,11.371 39.839,11.377 39.839,11.384 C39.852,11.384 39.865,11.384 39.878,11.384 C39.878,11.390 39.878,11.397 39.878,11.404 C39.891,11.404 39.904,11.404 39.918,11.404 C39.918,11.410 39.918,11.417 39.918,11.423 C39.931,11.423 39.944,11.423 39.957,11.423 C39.957,11.430 39.957,11.437 39.957,11.443 C39.970,11.443 39.983,11.443 39.996,11.443 C39.996,11.450 39.996,11.456 39.996,11.463 C40.009,11.463 40.022,11.463 40.035,11.463 C40.035,11.470 40.035,11.476 40.035,11.483 C40.049,11.483 40.062,11.483 40.075,11.483 C40.081,11.496 40.088,11.509 40.094,11.522 C40.121,11.529 40.147,11.536 40.173,11.542 C40.173,11.549 40.173,11.555 40.173,11.562 C40.193,11.569 40.212,11.575 40.232,11.582 C40.239,11.595 40.245,11.608 40.252,11.621 C40.265,11.621 40.278,11.621 40.291,11.621 C40.297,11.635 40.304,11.648 40.311,11.661 C40.324,11.661 40.337,11.661 40.350,11.661 C40.356,11.674 40.363,11.687 40.370,11.701 C40.383,11.701 40.396,11.701 40.409,11.701 C40.415,11.714 40.422,11.727 40.429,11.740 C40.448,11.747 40.468,11.753 40.487,11.760 C40.501,11.780 40.514,11.800 40.527,11.819 C40.540,11.819 40.553,11.819 40.566,11.819 C40.592,11.852 40.619,11.885 40.645,11.918 C40.658,11.918 40.671,11.918 40.684,11.918 C40.743,11.984 40.802,12.050 40.861,12.116 C40.933,12.182 41.005,12.248 41.077,12.314 C41.077,12.327 41.077,12.341 41.077,12.354 C41.103,12.374 41.130,12.393 41.156,12.413 C41.156,12.426 41.156,12.440 41.156,12.453 C41.182,12.472 41.208,12.492 41.234,12.512 C41.234,12.525 41.234,12.538 41.234,12.552 C41.247,12.558 41.261,12.565 41.274,12.571 C41.274,12.585 41.274,12.598 41.274,12.611 C41.293,12.624 41.313,12.637 41.333,12.651 C41.333,12.664 41.333,12.677 41.333,12.690 C41.346,12.697 41.359,12.703 41.372,12.710 C41.379,12.736 41.385,12.763 41.392,12.789 C41.405,12.796 41.418,12.802 41.431,12.809 C41.437,12.835 41.444,12.862 41.451,12.888 C41.464,12.895 41.477,12.901 41.490,12.908 C41.490,12.921 41.490,12.934 41.490,12.948 C41.496,12.948 41.503,12.948 41.510,12.948 C41.510,12.961 41.510,12.974 41.510,12.987 C41.516,12.987 41.523,12.987 41.529,12.987 C41.529,13.000 41.529,13.013 41.529,13.027 C41.536,13.027 41.542,13.027 41.549,13.027 C41.549,13.040 41.549,13.053 41.549,13.066 C41.555,13.066 41.562,13.066 41.569,13.066 C41.569,13.079 41.569,13.093 41.569,13.106 C41.575,13.106 41.582,13.106 41.588,13.106 C41.588,13.119 41.588,13.132 41.588,13.145 C41.595,13.145 41.601,13.145 41.608,13.145 C41.621,13.185 41.634,13.225 41.647,13.264 C41.654,13.264 41.660,13.264 41.667,13.264 C41.667,13.284 41.667,13.304 41.667,13.324 C41.673,13.324 41.680,13.324 41.686,13.324 C41.686,13.337 41.686,13.350 41.686,13.363 C41.693,13.363 41.700,13.363 41.706,13.363 C41.706,13.383 41.706,13.403 41.706,13.423 C41.713,13.423 41.719,13.423 41.726,13.423 C41.726,13.436 41.726,13.449 41.726,13.462 C41.732,13.462 41.739,13.462 41.745,13.462 C41.745,13.482 41.745,13.502 41.745,13.522 C41.752,13.522 41.759,13.522 41.765,13.522 C41.765,13.541 41.765,13.561 41.765,13.581 C41.772,13.581 41.778,13.581 41.785,13.581 C41.785,13.601 41.785,13.620 41.785,13.640 C41.791,13.640 41.798,13.640 41.804,13.640 C41.804,13.660 41.804,13.680 41.804,13.700 C41.811,13.700 41.817,13.700 41.824,13.700 C41.824,13.726 41.824,13.752 41.824,13.779 C41.831,13.779 41.837,13.779 41.844,13.779 C41.844,13.805 41.844,13.832 41.844,13.858 C41.850,13.858 41.857,13.858 41.863,13.858 C41.863,13.884 41.863,13.911 41.863,13.937 C41.870,13.937 41.876,13.937 41.883,13.937 C41.883,13.970 41.883,14.003 41.883,14.036 C41.890,14.036 41.896,14.036 41.903,14.036 C41.903,14.069 41.903,14.102 41.903,14.135 C41.909,14.135 41.916,14.135 41.922,14.135 C41.922,14.175 41.922,14.214 41.922,14.254 C41.997,14.511 41.962,14.905 41.962,15.224 C41.962,15.930 41.962,16.636 41.962,17.342 C41.962,18.245 41.962,19.149 41.962,20.053 C41.962,21.372 41.962,22.692 41.962,24.012 C41.962,24.454 41.962,24.896 41.962,25.338 C41.962,25.619 41.978,25.919 41.903,26.129 C41.731,26.611 41.387,26.955 40.920,27.139 C40.894,27.139 40.867,27.139 40.841,27.139 C40.841,27.145 40.841,27.152 40.841,27.159 C40.822,27.159 40.802,27.159 40.782,27.159 C40.782,27.165 40.782,27.172 40.782,27.178 C40.750,27.178 40.717,27.178 40.684,27.178 C40.684,27.185 40.684,27.192 40.684,27.198 C40.573,27.205 40.461,27.211 40.350,27.218 C40.350,27.211 40.350,27.205 40.350,27.198 C40.291,27.198 40.232,27.198 40.173,27.198 C40.173,27.192 40.173,27.185 40.173,27.178 C40.140,27.178 40.107,27.178 40.075,27.178 C40.075,27.172 40.075,27.165 40.075,27.159 C40.049,27.159 40.022,27.159 39.996,27.159 C39.541,26.996 39.223,26.717 39.013,26.308 C39.007,26.275 39.000,26.242 38.994,26.209 C38.987,26.209 38.981,26.209 38.974,26.209 C38.974,26.195 38.974,26.182 38.974,26.169 C38.968,26.169 38.961,26.169 38.954,26.169 C38.948,26.123 38.941,26.077 38.935,26.030 C38.863,25.815 38.876,25.513 38.876,25.219 C38.876,24.671 38.876,24.124 38.876,23.576 C38.876,21.452 38.876,19.327 38.876,17.203 C38.876,16.543 38.876,15.883 38.876,15.224 C38.876,14.943 38.907,14.607 38.797,14.432 C38.784,14.425 38.771,14.419 38.758,14.412 C38.758,14.399 38.758,14.386 38.758,14.373 C38.745,14.366 38.732,14.359 38.719,14.353 C38.692,14.320 38.666,14.287 38.640,14.254 C38.627,14.254 38.614,14.254 38.601,14.254 C38.594,14.241 38.588,14.227 38.581,14.214 C38.429,14.118 38.200,14.135 37.952,14.135 C37.605,14.135 37.258,14.135 36.910,14.135 C35.463,14.135 34.014,14.135 32.567,14.135 C32.088,14.135 31.610,14.135 31.132,14.135 C31.132,14.142 31.132,14.148 31.132,14.155 C31.112,14.155 31.092,14.155 31.073,14.155 C31.073,14.161 31.073,14.168 31.073,14.175 C31.060,14.175 31.047,14.175 31.034,14.175 C31.034,14.181 31.034,14.188 31.034,14.194 C30.994,14.208 30.955,14.221 30.916,14.234 C30.883,14.274 30.850,14.313 30.817,14.353 C30.798,14.366 30.778,14.379 30.758,14.392 C30.617,14.603 30.660,15.033 30.660,15.382 C30.660,16.141 30.660,16.900 30.660,17.658 C30.660,20.548 30.660,23.438 30.660,26.327 C30.660,27.073 30.660,27.819 30.660,28.564 C30.660,28.821 30.660,29.079 30.660,29.336 C30.667,29.336 30.673,29.336 30.680,29.336 C30.686,29.375 30.693,29.415 30.699,29.455 C30.706,29.455 30.712,29.455 30.719,29.455 C30.719,29.468 30.719,29.481 30.719,29.494 C30.732,29.501 30.745,29.507 30.758,29.514 C30.758,29.527 30.758,29.540 30.758,29.554 C30.771,29.560 30.785,29.567 30.798,29.573 C30.798,29.587 30.798,29.600 30.798,29.613 C30.817,29.626 30.837,29.639 30.857,29.653 C30.857,29.659 30.857,29.666 30.857,29.672 C30.870,29.672 30.883,29.672 30.896,29.672 C30.909,29.692 30.922,29.712 30.935,29.732 C30.975,29.745 31.014,29.758 31.053,29.771 C31.053,29.778 31.053,29.785 31.053,29.791 C31.189,29.851 31.432,29.831 31.623,29.831 C32.010,29.831 32.396,29.831 32.783,29.831 C34.217,29.831 35.653,29.831 37.087,29.831 C37.533,29.831 37.978,29.831 38.424,29.831 C38.424,29.837 38.424,29.844 38.424,29.850 C38.463,29.850 38.502,29.850 38.542,29.850 C38.542,29.857 38.542,29.864 38.542,29.870 C38.568,29.870 38.594,29.870 38.620,29.870 C38.620,29.877 38.620,29.883 38.620,29.890 C38.646,29.890 38.673,29.890 38.699,29.890 C38.699,29.897 38.699,29.903 38.699,29.910 C38.719,29.910 38.738,29.910 38.758,29.910 C38.758,29.916 38.758,29.923 38.758,29.930 C38.778,29.930 38.797,29.930 38.817,29.930 C38.817,29.936 38.817,29.943 38.817,29.949 C38.856,29.963 38.895,29.976 38.935,29.989 C38.935,29.996 38.935,30.002 38.935,30.009 C38.948,30.009 38.961,30.009 38.974,30.009 C38.974,30.015 38.974,30.022 38.974,30.029 C39.000,30.035 39.026,30.042 39.053,30.048 C39.059,30.062 39.066,30.075 39.072,30.088 C39.085,30.088 39.099,30.088 39.112,30.088 C39.125,30.108 39.138,30.128 39.151,30.147 C39.164,30.147 39.177,30.147 39.190,30.147 C39.216,30.180 39.243,30.213 39.269,30.246 C39.282,30.246 39.295,30.246 39.308,30.246 C39.308,30.253 39.308,30.260 39.308,30.266 C39.328,30.279 39.348,30.293 39.367,30.306 C39.367,30.319 39.367,30.332 39.367,30.345 C39.400,30.372 39.433,30.398 39.465,30.424 C39.465,30.438 39.465,30.451 39.465,30.464 C39.485,30.477 39.505,30.490 39.524,30.504 C39.524,30.517 39.524,30.530 39.524,30.543 C39.538,30.550 39.551,30.556 39.564,30.563 C39.570,30.589 39.577,30.616 39.583,30.642 C39.590,30.642 39.596,30.642 39.603,30.642 C39.603,30.655 39.603,30.669 39.603,30.682 C39.610,30.682 39.616,30.682 39.623,30.682 C39.636,30.721 39.649,30.761 39.662,30.801 C39.669,30.801 39.675,30.801 39.682,30.801 C39.701,30.886 39.721,30.972 39.741,31.058 C39.747,31.058 39.754,31.058 39.760,31.058 C39.780,31.120 39.804,31.528 39.780,31.612 C39.741,31.751 39.701,31.889 39.662,32.028 C39.655,32.028 39.649,32.028 39.642,32.028 C39.636,32.054 39.629,32.080 39.623,32.107 C39.616,32.107 39.610,32.107 39.603,32.107 C39.603,32.120 39.603,32.133 39.603,32.146 C39.590,32.153 39.577,32.160 39.564,32.166 C39.557,32.193 39.551,32.219 39.544,32.245 C39.531,32.252 39.518,32.259 39.505,32.265 C39.505,32.278 39.505,32.292 39.505,32.305 C39.479,32.325 39.452,32.344 39.426,32.364 C39.223,32.649 38.950,32.801 38.581,32.918 C38.483,32.925 38.384,32.932 38.286,32.938 C38.081,32.996 37.653,32.958 37.402,32.958 C36.609,32.958 35.816,32.958 35.023,32.958 C34.054,32.958 33.084,32.958 32.115,32.958 C31.408,32.958 30.742,32.964 30.228,32.780 C30.201,32.780 30.175,32.780 30.149,32.780 C29.946,32.694 29.743,32.608 29.540,32.523 C29.533,32.509 29.527,32.496 29.520,32.483 C29.481,32.470 29.441,32.457 29.402,32.443 C29.396,32.430 29.389,32.417 29.382,32.404 C29.356,32.397 29.330,32.391 29.304,32.384 C29.297,32.371 29.291,32.358 29.284,32.344 C29.271,32.344 29.258,32.344 29.245,32.344 C29.245,32.338 29.245,32.331 29.245,32.325 C29.225,32.318 29.206,32.311 29.186,32.305 C29.179,32.292 29.173,32.278 29.166,32.265 C29.153,32.265 29.140,32.265 29.127,32.265 C29.114,32.245 29.101,32.226 29.088,32.206 C29.075,32.206 29.061,32.206 29.048,32.206 C29.035,32.186 29.022,32.166 29.009,32.146 C28.996,32.146 28.983,32.146 28.970,32.146 C28.944,32.113 28.917,32.080 28.891,32.047 C28.878,32.047 28.865,32.047 28.852,32.047 C28.754,31.942 28.655,31.836 28.557,31.731 C28.518,31.698 28.478,31.665 28.439,31.632 C28.439,31.619 28.439,31.605 28.439,31.592 C28.413,31.572 28.387,31.553 28.360,31.533 C28.360,31.520 28.360,31.506 28.360,31.493 C28.347,31.487 28.334,31.480 28.321,31.473 C28.321,31.467 28.321,31.460 28.321,31.454 C28.308,31.447 28.295,31.441 28.282,31.434 C28.282,31.421 28.282,31.408 28.282,31.394 C28.269,31.388 28.256,31.381 28.243,31.375 C28.236,31.355 28.229,31.335 28.223,31.315 C28.216,31.315 28.210,31.315 28.203,31.315 C28.203,31.302 28.203,31.289 28.203,31.276 C28.190,31.269 28.177,31.262 28.164,31.256 C28.164,31.243 28.164,31.229 28.164,31.216 C28.151,31.210 28.138,31.203 28.125,31.196 C28.125,31.183 28.125,31.170 28.125,31.157 C28.111,31.150 28.098,31.144 28.085,31.137 C28.079,31.111 28.072,31.084 28.066,31.058 C28.053,31.051 28.039,31.045 28.026,31.038 C28.013,30.998 28.000,30.959 27.987,30.919 C27.980,30.919 27.974,30.919 27.967,30.919 C27.967,30.906 27.967,30.893 27.967,30.880 C27.961,30.880 27.954,30.880 27.948,30.880 C27.948,30.867 27.948,30.853 27.948,30.840 C27.941,30.840 27.935,30.840 27.928,30.840 C27.915,30.801 27.902,30.761 27.889,30.721 C27.882,30.721 27.876,30.721 27.869,30.721 C27.869,30.702 27.869,30.682 27.869,30.662 C27.863,30.662 27.856,30.662 27.849,30.662 C27.849,30.649 27.849,30.636 27.849,30.622 C27.843,30.622 27.836,30.622 27.830,30.622 C27.830,30.603 27.830,30.583 27.830,30.563 C27.823,30.563 27.817,30.563 27.810,30.563 C27.810,30.550 27.810,30.537 27.810,30.523 C27.804,30.523 27.797,30.523 27.790,30.523 C27.784,30.484 27.777,30.444 27.771,30.405 C27.764,30.405 27.758,30.405 27.751,30.405 C27.751,30.385 27.751,30.365 27.751,30.345 C27.745,30.345 27.738,30.345 27.731,30.345 C27.731,30.326 27.731,30.306 27.731,30.286 C27.725,30.286 27.718,30.286 27.712,30.286 C27.712,30.266 27.712,30.246 27.712,30.227 C27.705,30.227 27.699,30.227 27.692,30.227 C27.686,30.174 27.679,30.121 27.673,30.068 C27.666,30.068 27.659,30.068 27.653,30.068 C27.653,30.042 27.653,30.015 27.653,29.989 C27.622,29.893 27.603,29.754 27.574,29.653 C27.574,29.580 27.574,29.507 27.574,29.435 C27.531,29.281 27.555,29.029 27.555,28.841 C27.555,28.445 27.555,28.049 27.555,27.653 C27.555,25.991 27.555,24.328 27.555,22.666 C27.555,20.792 27.555,18.918 27.555,17.045 C27.555,16.405 27.555,15.765 27.555,15.125 C27.555,14.791 27.538,14.435 27.614,14.175 C27.620,14.102 27.627,14.030 27.633,13.957 C27.699,13.746 27.764,13.535 27.830,13.324 C27.836,13.324 27.843,13.324 27.849,13.324 C27.856,13.297 27.863,13.271 27.869,13.244 C27.876,13.244 27.882,13.244 27.889,13.244 C27.889,13.231 27.889,13.218 27.889,13.205 C27.895,13.205 27.902,13.205 27.908,13.205 C27.908,13.185 27.908,13.165 27.908,13.145 C27.915,13.145 27.921,13.145 27.928,13.145 C27.935,13.119 27.941,13.093 27.948,13.066 C27.954,13.066 27.961,13.066 27.967,13.066 C27.974,13.040 27.980,13.013 27.987,12.987 C28.000,12.981 28.013,12.974 28.026,12.967 C28.039,12.928 28.053,12.888 28.066,12.849 C28.072,12.849 28.079,12.849 28.085,12.849 C28.092,12.829 28.098,12.809 28.105,12.789 C28.118,12.783 28.131,12.776 28.144,12.769 C28.151,12.743 28.157,12.717 28.164,12.690 C28.177,12.684 28.190,12.677 28.203,12.670 C28.203,12.657 28.203,12.644 28.203,12.631 C28.223,12.618 28.243,12.604 28.262,12.591 C28.262,12.578 28.262,12.565 28.262,12.552 C28.282,12.538 28.301,12.525 28.321,12.512 C28.321,12.499 28.321,12.486 28.321,12.472 C28.341,12.459 28.360,12.446 28.380,12.433 C28.380,12.420 28.380,12.407 28.380,12.393 C28.419,12.360 28.459,12.327 28.498,12.294 C28.498,12.281 28.498,12.268 28.498,12.255 C28.564,12.195 28.629,12.136 28.695,12.077 C28.727,12.037 28.760,11.997 28.793,11.958 C28.806,11.958 28.819,11.958 28.832,11.958 C28.865,11.918 28.898,11.879 28.930,11.839 C28.950,11.833 28.970,11.826 28.989,11.819 C29.003,11.800 29.016,11.780 29.029,11.760 C29.042,11.760 29.055,11.760 29.068,11.760 C29.075,11.747 29.081,11.734 29.088,11.720 C29.101,11.720 29.114,11.720 29.127,11.720 C29.140,11.701 29.153,11.681 29.166,11.661 C29.179,11.661 29.192,11.661 29.206,11.661 C29.212,11.648 29.219,11.635 29.225,11.621 C29.245,11.615 29.265,11.608 29.284,11.602 C29.284,11.595 29.284,11.588 29.284,11.582 C29.310,11.575 29.337,11.569 29.363,11.562 C29.369,11.549 29.376,11.536 29.382,11.522 C29.409,11.516 29.435,11.509 29.461,11.503 C29.468,11.489 29.474,11.476 29.481,11.463 C29.507,11.456 29.533,11.450 29.559,11.443 C29.559,11.437 29.559,11.430 29.559,11.423 C29.572,11.423 29.586,11.423 29.599,11.423 C29.599,11.417 29.599,11.410 29.599,11.404 C29.638,11.390 29.677,11.377 29.717,11.364 C29.717,11.358 29.717,11.351 29.717,11.344 C29.736,11.344 29.756,11.344 29.776,11.344 C29.776,11.338 29.776,11.331 29.776,11.325 C29.802,11.318 29.828,11.311 29.854,11.305 C29.854,11.298 29.854,11.292 29.854,11.285 C29.887,11.278 29.920,11.272 29.952,11.265 C29.952,11.259 29.952,11.252 29.952,11.245 C29.992,11.239 30.031,11.232 30.070,11.226 C30.070,11.219 30.070,11.212 30.070,11.206 C30.090,11.206 30.110,11.206 30.129,11.206 C30.129,11.199 30.129,11.193 30.129,11.186 C30.149,11.186 30.169,11.186 30.188,11.186 C30.188,11.179 30.188,11.173 30.188,11.166 C30.208,11.166 30.228,11.166 30.247,11.166 C30.247,11.160 30.247,11.153 30.247,11.146 C30.293,11.140 30.339,11.133 30.385,11.127 C30.385,11.120 30.385,11.113 30.385,11.107 C30.418,11.107 30.450,11.107 30.483,11.107 C30.483,11.100 30.483,11.094 30.483,11.087 C30.509,11.087 30.536,11.087 30.562,11.087 C30.562,11.080 30.562,11.074 30.562,11.067 C30.601,11.067 30.640,11.067 30.680,11.067 C30.680,11.061 30.680,11.054 30.680,11.047 C30.719,11.047 30.758,11.047 30.798,11.047 C30.798,11.041 30.798,11.034 30.798,11.028 C31.060,11.021 31.322,11.014 31.584,11.008 C32.128,11.008 32.671,11.008 33.215,11.008 C33.215,9.227 33.215,7.445 33.215,5.664 C33.215,5.334 33.215,5.004 33.215,4.674 C33.209,4.509 33.202,4.344 33.196,4.179 C33.150,4.054 33.104,3.929 33.058,3.803 C33.045,3.797 33.032,3.790 33.019,3.783 C33.012,3.757 33.006,3.731 32.999,3.704 C32.979,3.691 32.960,3.678 32.940,3.665 C32.940,3.652 32.940,3.638 32.940,3.625 C32.894,3.586 32.848,3.546 32.802,3.506 C32.776,3.473 32.750,3.440 32.724,3.407 C32.711,3.407 32.698,3.407 32.685,3.407 C32.671,3.388 32.658,3.368 32.645,3.348 C32.619,3.341 32.593,3.335 32.567,3.328 C32.560,3.315 32.553,3.302 32.547,3.289 C32.534,3.289 32.521,3.289 32.508,3.289 C32.508,3.282 32.508,3.275 32.508,3.269 C32.481,3.262 32.455,3.256 32.429,3.249 C32.429,3.242 32.429,3.236 32.429,3.229 C32.370,3.216 32.311,3.203 32.252,3.190 C32.252,3.183 32.252,3.177 32.252,3.170 C32.226,3.170 32.200,3.170 32.173,3.170 C32.173,3.163 32.173,3.157 32.173,3.150 C32.134,3.150 32.095,3.150 32.056,3.150 C32.056,3.144 32.056,3.137 32.056,3.130 C31.689,3.130 31.322,3.130 30.955,3.130 C29.867,3.130 28.780,3.130 27.692,3.130 C23.303,3.130 18.913,3.130 14.523,3.130 C11.798,3.130 9.072,3.130 6.347,3.130 C5.849,3.130 5.351,3.130 4.853,3.130 C4.619,3.130 4.343,3.112 4.165,3.170 C4.139,3.170 4.113,3.170 4.087,3.170 C3.689,3.312 3.387,3.567 3.222,3.942 C3.119,4.175 3.124,4.518 3.124,4.852 C3.124,5.301 3.124,5.750 3.124,6.198 C3.124,7.887 3.124,9.576 3.124,11.265 C3.124,14.234 3.124,17.203 3.124,20.172 C3.124,20.719 3.124,21.267 3.124,21.815 C3.130,22.079 3.137,22.342 3.143,22.606 C3.150,22.606 3.156,22.606 3.163,22.606 C3.169,22.659 3.176,22.712 3.183,22.765 C3.189,22.765 3.196,22.765 3.202,22.765 C3.202,22.784 3.202,22.804 3.202,22.824 C3.209,22.824 3.215,22.824 3.222,22.824 C3.235,22.864 3.248,22.903 3.261,22.943 C3.268,22.943 3.274,22.943 3.281,22.943 C3.281,22.956 3.281,22.969 3.281,22.982 C3.287,22.982 3.294,22.982 3.300,22.982 C3.307,23.009 3.314,23.035 3.320,23.062 C3.333,23.068 3.346,23.075 3.359,23.081 C3.359,23.095 3.359,23.108 3.359,23.121 C3.379,23.134 3.399,23.147 3.418,23.161 C3.418,23.174 3.418,23.187 3.418,23.200 C3.458,23.233 3.497,23.266 3.536,23.299 C3.563,23.332 3.589,23.365 3.615,23.398 C3.628,23.398 3.641,23.398 3.654,23.398 C3.661,23.411 3.667,23.424 3.674,23.438 C3.694,23.444 3.713,23.451 3.733,23.457 C3.733,23.464 3.733,23.471 3.733,23.477 C3.746,23.477 3.759,23.477 3.772,23.477 C3.779,23.490 3.785,23.504 3.792,23.517 C3.805,23.517 3.818,23.517 3.831,23.517 C3.831,23.523 3.831,23.530 3.831,23.537 C3.857,23.543 3.884,23.550 3.910,23.556 C3.910,23.563 3.910,23.570 3.910,23.576 C3.929,23.576 3.949,23.576 3.969,23.576 C3.969,23.583 3.969,23.589 3.969,23.596 C3.982,23.596 3.995,23.596 4.008,23.596 C4.008,23.603 4.008,23.609 4.008,23.616 C4.034,23.616 4.060,23.616 4.087,23.616 C4.087,23.622 4.087,23.629 4.087,23.636 C4.113,23.636 4.139,23.636 4.165,23.636 C4.165,23.642 4.165,23.649 4.165,23.655 C4.205,23.655 4.244,23.655 4.283,23.655 C4.283,23.662 4.283,23.669 4.283,23.675 C4.630,23.675 4.978,23.675 5.325,23.675 C6.308,23.675 7.291,23.675 8.273,23.675 C12.060,23.675 15.847,23.675 19.634,23.675 C20.505,23.675 21.376,23.675 22.248,23.675 C22.610,23.675 23.181,23.627 23.466,23.715 C23.499,23.715 23.532,23.715 23.565,23.715 C23.565,23.721 23.565,23.728 23.565,23.735 C23.584,23.735 23.604,23.735 23.624,23.735 C23.624,23.741 23.624,23.748 23.624,23.754 C23.643,23.754 23.663,23.754 23.683,23.754 C23.683,23.761 23.683,23.768 23.683,23.774 C23.702,23.774 23.722,23.774 23.742,23.774 C23.742,23.781 23.742,23.787 23.742,23.794 C23.755,23.794 23.768,23.794 23.781,23.794 C23.781,23.801 23.781,23.807 23.781,23.814 C23.801,23.814 23.820,23.814 23.840,23.814 C23.840,23.820 23.840,23.827 23.840,23.834 C23.853,23.834 23.866,23.834 23.879,23.834 C23.879,23.840 23.879,23.847 23.879,23.853 C23.892,23.853 23.905,23.853 23.918,23.853 C23.925,23.866 23.932,23.880 23.938,23.893 C23.964,23.899 23.991,23.906 24.017,23.913 C24.023,23.926 24.030,23.939 24.036,23.952 C24.049,23.952 24.063,23.952 24.076,23.952 C24.089,23.972 24.102,23.992 24.115,24.012 C24.128,24.012 24.141,24.012 24.154,24.012 C24.207,24.071 24.259,24.130 24.312,24.190 C24.338,24.210 24.364,24.229 24.390,24.249 C24.390,24.262 24.390,24.276 24.390,24.289 C24.410,24.302 24.429,24.315 24.449,24.328 C24.449,24.342 24.449,24.355 24.449,24.368 C24.462,24.375 24.475,24.381 24.488,24.388 C24.495,24.414 24.502,24.440 24.508,24.467 C24.521,24.473 24.534,24.480 24.547,24.487 C24.547,24.500 24.547,24.513 24.547,24.526 C24.554,24.526 24.561,24.526 24.567,24.526 C24.567,24.539 24.567,24.553 24.567,24.566 C24.574,24.566 24.580,24.566 24.587,24.566 C24.587,24.586 24.587,24.605 24.587,24.625 C24.593,24.625 24.600,24.625 24.606,24.625 C24.606,24.638 24.606,24.652 24.606,24.665 C24.613,24.665 24.619,24.665 24.626,24.665 C24.626,24.685 24.626,24.704 24.626,24.724 C24.729,24.985 24.765,25.318 24.665,25.615 C24.665,25.641 24.665,25.668 24.665,25.694 C24.659,25.694 24.652,25.694 24.646,25.694 C24.639,25.734 24.633,25.773 24.626,25.813 C24.619,25.813 24.613,25.813 24.606,25.813 C24.593,25.852 24.580,25.892 24.567,25.932 C24.561,25.932 24.554,25.932 24.547,25.932 C24.547,25.945 24.547,25.958 24.547,25.971 C24.541,25.971 24.534,25.971 24.528,25.971 C24.521,25.998 24.515,26.024 24.508,26.050 C24.502,26.050 24.495,26.050 24.488,26.050 C24.482,26.070 24.475,26.090 24.469,26.110 C24.456,26.116 24.443,26.123 24.429,26.129 C24.429,26.143 24.429,26.156 24.429,26.169 C24.403,26.189 24.377,26.209 24.351,26.228 C24.351,26.242 24.351,26.255 24.351,26.268 C24.312,26.301 24.272,26.334 24.233,26.367 C24.226,26.380 24.220,26.393 24.213,26.407 C24.200,26.407 24.187,26.407 24.174,26.407 C24.154,26.433 24.135,26.459 24.115,26.486 C24.102,26.486 24.089,26.486 24.076,26.486 C24.063,26.506 24.049,26.525 24.036,26.545 C24.010,26.552 23.984,26.558 23.958,26.565 C23.951,26.578 23.945,26.591 23.938,26.604 C23.575,26.834 22.977,26.802 22.385,26.802 C21.501,26.802 20.616,26.802 19.732,26.802 C19.732,27.812 19.732,28.821 19.732,29.831 C20.688,29.831 21.645,29.831 22.602,29.831 C22.949,29.831 23.296,29.831 23.643,29.831 C23.643,29.837 23.643,29.844 23.643,29.850 C23.683,29.850 23.722,29.850 23.761,29.850 C23.761,29.857 23.761,29.864 23.761,29.870 C23.794,29.870 23.827,29.870 23.859,29.870 C23.859,29.877 23.859,29.883 23.859,29.890 C23.879,29.890 23.899,29.890 23.918,29.890 C23.918,29.897 23.918,29.903 23.918,29.910 C23.938,29.910 23.958,29.910 23.977,29.910 C23.977,29.916 23.977,29.923 23.977,29.930 C23.997,29.930 24.017,29.930 24.036,29.930 C24.036,29.936 24.036,29.943 24.036,29.949 C24.076,29.963 24.115,29.976 24.154,29.989 C24.154,29.996 24.154,30.002 24.154,30.009 C24.167,30.009 24.181,30.009 24.194,30.009 C24.194,30.015 24.194,30.022 24.194,30.029 C24.220,30.035 24.246,30.042 24.272,30.048 C24.279,30.062 24.285,30.075 24.292,30.088 C24.305,30.088 24.318,30.088 24.331,30.088 C24.338,30.101 24.344,30.114 24.351,30.128 C24.364,30.128 24.377,30.128 24.390,30.128 C24.416,30.161 24.443,30.194 24.469,30.227 C24.482,30.227 24.495,30.227 24.508,30.227 C24.515,30.240 24.521,30.253 24.528,30.266 C24.554,30.286 24.580,30.306 24.606,30.326 C24.606,30.339 24.606,30.352 24.606,30.365 C24.639,30.391 24.672,30.418 24.705,30.444 C24.705,30.457 24.705,30.471 24.705,30.484 C24.718,30.490 24.731,30.497 24.744,30.504 C24.750,30.523 24.757,30.543 24.764,30.563 C24.770,30.563 24.777,30.563 24.783,30.563 C24.790,30.589 24.796,30.616 24.803,30.642 C24.816,30.649 24.829,30.655 24.842,30.662 C24.849,30.695 24.855,30.728 24.862,30.761 C24.868,30.761 24.875,30.761 24.882,30.761 C24.882,30.774 24.882,30.787 24.882,30.801 C24.888,30.801 24.895,30.801 24.901,30.801 C24.901,30.820 24.901,30.840 24.901,30.860 C24.908,30.860 24.914,30.860 24.921,30.860 C24.921,30.873 24.921,30.886 24.921,30.900 C24.927,30.900 24.934,30.900 24.940,30.900 C24.940,30.926 24.940,30.952 24.940,30.979 C24.947,30.979 24.954,30.979 24.960,30.979 C24.960,31.005 24.960,31.031 24.960,31.058 C24.967,31.058 24.973,31.058 24.980,31.058 C24.980,31.091 24.980,31.124 24.980,31.157 C25.076,31.483 24.920,32.000 24.803,32.186 C24.790,32.193 24.777,32.199 24.764,32.206 C24.764,32.219 24.764,32.232 24.764,32.245 C24.750,32.252 24.737,32.259 24.724,32.265 C24.724,32.278 24.724,32.292 24.724,32.305 C24.705,32.318 24.685,32.331 24.665,32.344 C24.665,32.358 24.665,32.371 24.665,32.384 C24.613,32.430 24.560,32.476 24.508,32.523 C24.488,32.549 24.469,32.575 24.449,32.602 C24.436,32.602 24.423,32.602 24.410,32.602 C24.397,32.621 24.384,32.641 24.371,32.661 C24.357,32.661 24.344,32.661 24.331,32.661 C24.325,32.674 24.318,32.687 24.312,32.701 C24.298,32.701 24.285,32.701 24.272,32.701 C24.266,32.714 24.259,32.727 24.253,32.740 C24.226,32.747 24.200,32.753 24.174,32.760 C24.174,32.767 24.174,32.773 24.174,32.780 C24.135,32.793 24.095,32.806 24.056,32.819 C24.056,32.826 24.056,32.833 24.056,32.839 C23.938,32.872 23.820,32.905 23.702,32.938 C23.453,32.945 23.204,32.951 22.955,32.958 C22.451,32.958 21.946,32.958 21.442,32.958 C19.195,32.958 16.947,32.958 14.700,32.958 C14.242,32.958 13.783,32.958 13.324,32.958 C13.102,32.951 12.879,32.945 12.656,32.938 C12.656,32.932 12.656,32.925 12.656,32.918 C12.623,32.918 12.591,32.918 12.558,32.918 C12.558,32.912 12.558,32.905 12.558,32.899 C12.532,32.899 12.506,32.899 12.479,32.899 C12.479,32.892 12.479,32.885 12.479,32.879 C12.453,32.879 12.427,32.879 12.401,32.879 C12.401,32.872 12.401,32.866 12.401,32.859 C12.388,32.859 12.374,32.859 12.361,32.859 C12.361,32.852 12.361,32.846 12.361,32.839 C12.342,32.839 12.322,32.839 12.302,32.839 C12.302,32.833 12.302,32.826 12.302,32.819 C12.263,32.806 12.224,32.793 12.184,32.780 C12.184,32.773 12.184,32.767 12.184,32.760 C12.171,32.760 12.158,32.760 12.145,32.760 C12.145,32.753 12.145,32.747 12.145,32.740 C12.119,32.734 12.093,32.727 12.067,32.720 C12.060,32.707 12.053,32.694 12.047,32.681 C12.034,32.681 12.021,32.681 12.008,32.681 C11.994,32.661 11.981,32.641 11.968,32.621 C11.955,32.621 11.942,32.621 11.929,32.621 C11.883,32.569 11.837,32.516 11.791,32.463 C11.752,32.430 11.713,32.397 11.673,32.364 C11.547,32.187 11.451,31.981 11.379,31.751 C11.372,31.671 11.366,31.592 11.359,31.513 C11.352,31.513 11.346,31.513 11.339,31.513 C11.339,31.434 11.339,31.355 11.339,31.276 C11.346,31.276 11.352,31.276 11.359,31.276 C11.366,31.190 11.372,31.104 11.379,31.018 C11.385,31.018 11.392,31.018 11.398,31.018 C11.405,30.972 11.411,30.926 11.418,30.880 C11.424,30.880 11.431,30.880 11.438,30.880 C11.438,30.867 11.438,30.853 11.438,30.840 C11.444,30.840 11.451,30.840 11.457,30.840 C11.457,30.820 11.457,30.801 11.457,30.781 C11.464,30.781 11.470,30.781 11.477,30.781 C11.490,30.741 11.503,30.702 11.516,30.662 C11.523,30.662 11.529,30.662 11.536,30.662 C11.542,30.636 11.549,30.609 11.556,30.583 C11.562,30.583 11.569,30.583 11.575,30.583 C11.582,30.563 11.588,30.543 11.595,30.523 C11.608,30.517 11.621,30.510 11.634,30.504 C11.634,30.490 11.634,30.477 11.634,30.464 C11.654,30.451 11.673,30.438 11.693,30.424 C11.889,30.147 12.151,29.994 12.499,29.870 C12.564,29.864 12.630,29.857 12.696,29.850 C12.793,29.822 12.960,29.831 13.089,29.831 C13.331,29.831 13.573,29.831 13.816,29.831 C14.753,29.831 15.690,29.831 16.626,29.831 C16.626,28.821 16.626,27.812 16.626,26.802 C13.338,26.802 10.048,26.802 6.760,26.802 C6.118,26.802 5.476,26.802 4.834,26.802 C4.658,26.802 4.425,26.823 4.283,26.783 C4.185,26.783 4.087,26.783 3.988,26.783 C3.988,26.776 3.988,26.769 3.988,26.763 C3.936,26.763 3.884,26.763 3.831,26.763 C3.831,26.756 3.831,26.750 3.831,26.743 C3.792,26.743 3.753,26.743 3.713,26.743 C3.713,26.736 3.713,26.730 3.713,26.723 C3.674,26.723 3.635,26.723 3.595,26.723 C3.595,26.717 3.595,26.710 3.595,26.703 C3.563,26.703 3.530,26.703 3.497,26.703 C3.314,26.651 3.130,26.598 2.947,26.545 C2.947,26.539 2.947,26.532 2.947,26.525 C2.934,26.525 2.920,26.525 2.907,26.525 C2.907,26.519 2.907,26.512 2.907,26.506 C2.888,26.506 2.868,26.506 2.848,26.506 C2.848,26.499 2.848,26.492 2.848,26.486 C2.816,26.479 2.783,26.473 2.750,26.466 C2.750,26.459 2.750,26.453 2.750,26.446 C2.737,26.446 2.724,26.446 2.711,26.446 C2.711,26.440 2.711,26.433 2.711,26.426 C2.691,26.426 2.672,26.426 2.652,26.426 C2.652,26.420 2.652,26.413 2.652,26.407 C2.613,26.393 2.573,26.380 2.534,26.367 C2.534,26.360 2.534,26.354 2.534,26.347 C2.521,26.347 2.508,26.347 2.495,26.347 C2.495,26.341 2.495,26.334 2.495,26.327 C2.482,26.327 2.468,26.327 2.455,26.327 C2.455,26.321 2.455,26.314 2.455,26.308 C2.442,26.308 2.429,26.308 2.416,26.308 C2.416,26.301 2.416,26.294 2.416,26.288 C2.403,26.288 2.390,26.288 2.377,26.288 C2.377,26.281 2.377,26.275 2.377,26.268 C2.364,26.268 2.350,26.268 2.337,26.268 C2.337,26.261 2.337,26.255 2.337,26.248 C2.324,26.248 2.311,26.248 2.298,26.248 C2.292,26.235 2.285,26.222 2.278,26.209 C2.239,26.195 2.200,26.182 2.160,26.169 C2.154,26.156 2.147,26.143 2.141,26.129 C2.128,26.129 2.115,26.129 2.102,26.129 C2.095,26.116 2.088,26.103 2.082,26.090 C2.069,26.090 2.056,26.090 2.043,26.090 C2.036,26.077 2.029,26.063 2.023,26.050 C2.010,26.050 1.997,26.050 1.984,26.050 C1.977,26.037 1.970,26.024 1.964,26.011 C1.951,26.011 1.938,26.011 1.925,26.011 C1.918,25.998 1.912,25.984 1.905,25.971 C1.892,25.971 1.879,25.971 1.866,25.971 C1.853,25.951 1.839,25.932 1.826,25.912 C1.813,25.912 1.800,25.912 1.787,25.912 C1.774,25.892 1.761,25.872 1.748,25.852 C1.735,25.852 1.722,25.852 1.708,25.852 C1.689,25.826 1.669,25.800 1.649,25.773 C1.636,25.773 1.623,25.773 1.610,25.773 C1.571,25.727 1.532,25.681 1.492,25.635 C1.479,25.635 1.466,25.635 1.453,25.635 C1.427,25.602 1.401,25.569 1.374,25.536 C1.309,25.476 1.243,25.417 1.178,25.358 C1.178,25.344 1.178,25.331 1.178,25.318 C1.132,25.278 1.086,25.239 1.040,25.199 C1.040,25.186 1.040,25.173 1.040,25.160 C1.014,25.140 0.988,25.120 0.962,25.100 C0.962,25.087 0.962,25.074 0.962,25.061 C0.942,25.047 0.922,25.034 0.903,25.021 C0.903,25.008 0.903,24.995 0.903,24.981 C0.883,24.968 0.863,24.955 0.844,24.942 C0.844,24.929 0.844,24.916 0.844,24.902 C0.831,24.896 0.817,24.889 0.804,24.883 C0.798,24.863 0.791,24.843 0.785,24.823 C0.778,24.823 0.772,24.823 0.765,24.823 C0.765,24.810 0.765,24.797 0.765,24.784 C0.752,24.777 0.739,24.770 0.726,24.764 C0.719,24.744 0.713,24.724 0.706,24.704 C0.699,24.704 0.693,24.704 0.686,24.704 C0.680,24.678 0.673,24.652 0.667,24.625 C0.654,24.619 0.641,24.612 0.627,24.605 C0.614,24.566 0.601,24.526 0.588,24.487 C0.575,24.480 0.562,24.473 0.549,24.467 C0.542,24.440 0.536,24.414 0.529,24.388 C0.523,24.388 0.516,24.388 0.509,24.388 C0.509,24.375 0.509,24.361 0.509,24.348 C0.503,24.348 0.496,24.348 0.490,24.348 C0.477,24.309 0.464,24.269 0.451,24.229 C0.444,24.229 0.437,24.229 0.431,24.229 C0.431,24.210 0.431,24.190 0.431,24.170 C0.424,24.170 0.418,24.170 0.411,24.170 C0.405,24.144 0.398,24.117 0.392,24.091 C0.385,24.091 0.378,24.091 0.372,24.091 C0.372,24.071 0.372,24.051 0.372,24.031 C0.365,24.031 0.359,24.031 0.352,24.031 C0.352,24.018 0.352,24.005 0.352,23.992 C0.346,23.992 0.339,23.992 0.333,23.992 C0.333,23.972 0.333,23.952 0.333,23.932 C0.326,23.932 0.319,23.932 0.313,23.932 C0.313,23.919 0.313,23.906 0.313,23.893 C0.306,23.893 0.300,23.893 0.293,23.893 C0.287,23.853 0.280,23.814 0.274,23.774 C0.267,23.774 0.261,23.774 0.254,23.774 C0.254,23.754 0.254,23.735 0.254,23.715 C0.247,23.715 0.241,23.715 0.234,23.715 C0.234,23.695 0.234,23.675 0.234,23.655 C0.228,23.655 0.221,23.655 0.215,23.655 C0.208,23.609 0.202,23.563 0.195,23.517 C0.188,23.517 0.182,23.517 0.175,23.517 C0.169,23.464 0.162,23.411 0.156,23.358 C0.149,23.358 0.143,23.358 0.136,23.358 C0.129,23.293 0.123,23.227 0.116,23.161 C-0.006,22.754 0.038,22.154 0.038,21.637 C0.038,20.601 0.038,19.565 0.038,18.529 C0.038,14.848 0.038,11.166 0.038,7.485 C0.038,6.673 0.038,5.862 0.038,5.050 C0.038,4.727 0.038,4.404 0.038,4.080 C0.044,4.080 0.051,4.080 0.057,4.080 C0.057,4.021 0.057,3.962 0.057,3.902 C0.097,3.698 0.136,3.493 0.175,3.289 C0.182,3.289 0.188,3.289 0.195,3.289 C0.195,3.269 0.195,3.249 0.195,3.229 C0.202,3.229 0.208,3.229 0.215,3.229 C0.215,3.203 0.215,3.177 0.215,3.150 C0.221,3.150 0.228,3.150 0.234,3.150 C0.234,3.130 0.234,3.111 0.234,3.091 C0.241,3.091 0.247,3.091 0.254,3.091 C0.254,3.071 0.254,3.051 0.254,3.031 C0.261,3.031 0.267,3.031 0.274,3.031 C0.274,3.012 0.274,2.992 0.274,2.972 C0.280,2.972 0.287,2.972 0.293,2.972 C0.293,2.959 0.293,2.946 0.293,2.932 C0.300,2.932 0.306,2.932 0.313,2.932 C0.319,2.893 0.326,2.853 0.333,2.814 C0.339,2.814 0.346,2.814 0.352,2.814 C0.352,2.800 0.352,2.787 0.352,2.774 C0.359,2.774 0.365,2.774 0.372,2.774 C0.372,2.754 0.372,2.734 0.372,2.715 C0.378,2.715 0.385,2.715 0.392,2.715 C0.398,2.688 0.405,2.662 0.411,2.636 C0.418,2.636 0.424,2.636 0.431,2.636 C0.431,2.622 0.431,2.609 0.431,2.596 C0.437,2.596 0.444,2.596 0.451,2.596 C0.451,2.576 0.451,2.556 0.451,2.537 C0.457,2.537 0.464,2.537 0.470,2.537 C0.477,2.510 0.483,2.484 0.490,2.457 C0.496,2.457 0.503,2.457 0.509,2.457 C0.516,2.431 0.523,2.405 0.529,2.378 C0.542,2.372 0.555,2.365 0.568,2.358 C0.568,2.345 0.568,2.332 0.568,2.319 C0.575,2.319 0.582,2.319 0.588,2.319 C0.588,2.306 0.588,2.292 0.588,2.279 C0.595,2.279 0.601,2.279 0.608,2.279 C0.608,2.266 0.608,2.253 0.608,2.240 C0.614,2.240 0.621,2.240 0.627,2.240 C0.627,2.226 0.627,2.213 0.627,2.200 C0.634,2.200 0.641,2.200 0.647,2.200 C0.654,2.180 0.660,2.160 0.667,2.141 C0.680,2.134 0.693,2.128 0.706,2.121 C0.713,2.095 0.719,2.068 0.726,2.042 C0.739,2.035 0.752,2.029 0.765,2.022 C0.765,2.009 0.765,1.996 0.765,1.982 C0.778,1.976 0.791,1.969 0.804,1.963 C0.804,1.949 0.804,1.936 0.804,1.923 C0.824,1.910 0.844,1.897 0.863,1.883 C0.863,1.870 0.863,1.857 0.863,1.844 C0.876,1.837 0.889,1.831 0.903,1.824 C0.903,1.811 0.903,1.798 0.903,1.784 C0.929,1.765 0.955,1.745 0.981,1.725 C0.981,1.712 0.981,1.699 0.981,1.685 C1.007,1.666 1.034,1.646 1.060,1.626 C1.060,1.613 1.060,1.600 1.060,1.587 C1.106,1.547 1.152,1.507 1.197,1.468 C1.197,1.455 1.197,1.441 1.197,1.428 C1.224,1.408 1.250,1.389 1.276,1.369 C1.328,1.309 1.381,1.250 1.433,1.191 C1.446,1.191 1.459,1.191 1.473,1.191 C1.512,1.144 1.551,1.098 1.591,1.052 C1.604,1.052 1.617,1.052 1.630,1.052 C1.656,1.019 1.682,0.986 1.708,0.953 C1.722,0.953 1.735,0.953 1.748,0.953 C1.761,0.933 1.774,0.914 1.787,0.894 C1.807,0.887 1.826,0.881 1.846,0.874 C1.853,0.861 1.859,0.848 1.866,0.834 C1.879,0.834 1.892,0.834 1.905,0.834 C1.912,0.821 1.918,0.808 1.925,0.795 C1.944,0.788 1.964,0.782 1.984,0.775 C1.984,0.768 1.984,0.762 1.984,0.755 C1.997,0.755 2.010,0.755 2.023,0.755 C2.029,0.742 2.036,0.729 2.043,0.716 C2.062,0.709 2.082,0.702 2.102,0.696 C2.102,0.689 2.102,0.683 2.102,0.676 C2.128,0.669 2.154,0.663 2.180,0.656 C2.187,0.643 2.193,0.630 2.200,0.617 C2.226,0.610 2.252,0.603 2.278,0.597 C2.285,0.584 2.292,0.570 2.298,0.557 C2.311,0.557 2.324,0.557 2.337,0.557 C2.337,0.551 2.337,0.544 2.337,0.537 C2.350,0.537 2.364,0.537 2.377,0.537 C2.377,0.531 2.377,0.524 2.377,0.518 C2.390,0.518 2.403,0.518 2.416,0.518 C2.416,0.511 2.416,0.505 2.416,0.498 C2.429,0.498 2.442,0.498 2.455,0.498 C2.455,0.491 2.455,0.485 2.455,0.478 C2.468,0.478 2.482,0.478 2.495,0.478 C2.495,0.472 2.495,0.465 2.495,0.458 C2.534,0.445 2.573,0.432 2.613,0.419 C2.613,0.412 2.613,0.406 2.613,0.399 C2.645,0.392 2.678,0.386 2.711,0.379 C2.711,0.373 2.711,0.366 2.711,0.359 C2.724,0.359 2.737,0.359 2.750,0.359 C2.750,0.353 2.750,0.346 2.750,0.340 C2.770,0.340 2.789,0.340 2.809,0.340 C2.809,0.333 2.809,0.326 2.809,0.320 C2.822,0.320 2.835,0.320 2.848,0.320 C2.848,0.313 2.848,0.307 2.848,0.300 C2.966,0.267 3.084,0.234 3.202,0.201 C3.202,0.194 3.202,0.188 3.202,0.181 C3.228,0.181 3.255,0.181 3.281,0.181 C3.281,0.175 3.281,0.168 3.281,0.161 C3.300,0.161 3.320,0.161 3.340,0.161 C3.340,0.155 3.340,0.148 3.340,0.142 C3.366,0.142 3.392,0.142 3.418,0.142 C3.418,0.135 3.418,0.128 3.418,0.122 C3.563,0.102 3.707,0.082 3.851,0.062 C3.851,0.056 3.851,0.049 3.851,0.043 C3.903,0.043 3.956,0.043 4.008,0.043 C4.008,0.036 4.008,0.029 4.008,0.023 C4.119,0.023 4.231,0.023 4.342,0.023 C4.456,-0.009 4.648,0.003 4.794,0.003 C5.076,0.003 5.358,0.003 5.639,0.003 C7.009,0.003 8.378,0.003 9.747,0.003 C15.335,0.003 20.925,0.003 26.513,0.003 C27.895,0.003 29.278,0.003 30.660,0.003 C30.948,0.003 31.237,0.003 31.525,0.003 C31.677,0.003 31.877,-0.011 31.997,0.023 C32.108,0.023 32.219,0.023 32.331,0.023 C32.331,0.029 32.331,0.036 32.331,0.043 C32.383,0.043 32.436,0.043 32.488,0.043 C32.488,0.049 32.488,0.056 32.488,0.062 C32.534,0.062 32.580,0.062 32.626,0.062 C32.626,0.069 32.626,0.076 32.626,0.082 C32.665,0.082 32.704,0.082 32.743,0.082 C32.743,0.089 32.743,0.095 32.743,0.102 C32.770,0.102 32.796,0.102 32.822,0.102 C32.822,0.109 32.822,0.115 32.822,0.122 C32.855,0.122 32.888,0.122 32.920,0.122 C32.920,0.128 32.920,0.135 32.920,0.142 C32.947,0.142 32.973,0.142 32.999,0.142 C32.999,0.148 32.999,0.155 32.999,0.161 C33.025,0.161 33.051,0.161 33.078,0.161 C33.078,0.168 33.078,0.175 33.078,0.181 C33.097,0.181 33.117,0.181 33.137,0.181 C33.137,0.188 33.137,0.194 33.137,0.201 C33.156,0.201 33.176,0.201 33.196,0.201 C33.196,0.208 33.196,0.214 33.196,0.221 C33.222,0.221 33.248,0.221 33.274,0.221 C33.274,0.227 33.274,0.234 33.274,0.241 C33.294,0.241 33.313,0.241 33.333,0.241 C33.333,0.247 33.333,0.254 33.333,0.260 C33.346,0.260 33.359,0.260 33.372,0.260 C33.372,0.267 33.372,0.274 33.372,0.280 C33.412,0.287 33.451,0.293 33.490,0.300 C33.490,0.307 33.490,0.313 33.490,0.320 C33.503,0.320 33.517,0.320 33.530,0.320 C33.530,0.326 33.530,0.333 33.530,0.340 C33.549,0.340 33.569,0.340 33.589,0.340 C33.589,0.346 33.589,0.353 33.589,0.359 C33.602,0.359 33.615,0.359 33.628,0.359 C33.628,0.366 33.628,0.373 33.628,0.379 C33.648,0.379 33.667,0.379 33.687,0.379 C33.687,0.386 33.687,0.392 33.687,0.399 C33.726,0.412 33.766,0.425 33.805,0.439 C33.805,0.445 33.805,0.452 33.805,0.458 C33.818,0.458 33.831,0.458 33.844,0.458 C33.844,0.465 33.844,0.472 33.844,0.478 C33.857,0.478 33.870,0.478 33.883,0.478 C33.883,0.485 33.883,0.491 33.883,0.498 C33.897,0.498 33.910,0.498 33.923,0.498 C33.923,0.505 33.923,0.511 33.923,0.518 C33.936,0.518 33.949,0.518 33.962,0.518 C33.962,0.524 33.962,0.531 33.962,0.537 C33.975,0.537 33.988,0.537 34.001,0.537 C34.001,0.544 34.001,0.551 34.001,0.557 C34.014,0.557 34.028,0.557 34.041,0.557 C34.041,0.564 34.041,0.570 34.041,0.577 C34.054,0.577 34.067,0.577 34.080,0.577 C34.087,0.590 34.093,0.603 34.100,0.617 C34.126,0.623 34.152,0.630 34.178,0.636 C34.185,0.650 34.191,0.663 34.198,0.676 C34.224,0.683 34.250,0.689 34.277,0.696 C34.277,0.702 34.277,0.709 34.277,0.716 C34.296,0.722 34.316,0.729 34.336,0.735 C34.342,0.749 34.349,0.762 34.355,0.775 C34.368,0.775 34.381,0.775 34.394,0.775 C34.408,0.795 34.421,0.815 34.434,0.834 C34.447,0.834 34.460,0.834 34.473,0.834 C34.480,0.848 34.486,0.861 34.493,0.874 C34.506,0.874 34.519,0.874 34.532,0.874 C34.545,0.894 34.558,0.914 34.571,0.933 C34.584,0.933 34.598,0.933 34.611,0.933 C34.630,0.960 34.650,0.986 34.670,1.013 C34.683,1.013 34.696,1.013 34.709,1.013 C34.748,1.059 34.788,1.105 34.827,1.151 C34.840,1.151 34.853,1.151 34.866,1.151 C34.899,1.191 34.932,1.230 34.964,1.270 C35.037,1.336 35.109,1.402 35.181,1.468 C35.181,1.481 35.181,1.494 35.181,1.507 C35.220,1.540 35.259,1.573 35.299,1.606 C35.305,1.626 35.312,1.646 35.318,1.666 C35.338,1.679 35.358,1.692 35.377,1.705 C35.377,1.718 35.377,1.732 35.377,1.745 C35.403,1.765 35.430,1.784 35.456,1.804 C35.456,1.817 35.456,1.831 35.456,1.844 C35.469,1.850 35.482,1.857 35.495,1.864 C35.495,1.877 35.495,1.890 35.495,1.903 C35.515,1.916 35.534,1.930 35.554,1.943 C35.554,1.956 35.554,1.969 35.554,1.982 C35.567,1.989 35.580,1.996 35.593,2.002 C35.600,2.029 35.607,2.055 35.613,2.081 C35.620,2.081 35.626,2.081 35.633,2.081 C35.639,2.101 35.646,2.121 35.652,2.141 C35.666,2.147 35.679,2.154 35.692,2.160 C35.698,2.187 35.705,2.213 35.711,2.240 C35.724,2.246 35.738,2.253 35.751,2.259 C35.751,2.273 35.751,2.286 35.751,2.299 C35.757,2.299 35.764,2.299 35.770,2.299 C35.770,2.312 35.770,2.325 35.770,2.339 C35.777,2.339 35.783,2.339 35.790,2.339 C35.790,2.352 35.790,2.365 35.790,2.378 C35.797,2.378 35.803,2.378 35.810,2.378 C35.810,2.391 35.810,2.405 35.810,2.418 C35.816,2.418 35.823,2.418 35.829,2.418 C35.829,2.431 35.829,2.444 35.829,2.457 C35.836,2.457 35.842,2.457 35.849,2.457 C35.849,2.471 35.849,2.484 35.849,2.497 C35.855,2.497 35.862,2.497 35.869,2.497 C35.869,2.510 35.869,2.523 35.869,2.537 C35.875,2.537 35.882,2.537 35.888,2.537 C35.901,2.576 35.914,2.616 35.928,2.655 C35.934,2.655 35.941,2.655 35.947,2.655 C35.947,2.675 35.947,2.695 35.947,2.715 C35.954,2.715 35.960,2.715 35.967,2.715 C35.967,2.728 35.967,2.741 35.967,2.754 C35.973,2.754 35.980,2.754 35.987,2.754 C35.987,2.774 35.987,2.794 35.987,2.814 C35.993,2.814 36.000,2.814 36.006,2.814 C36.006,2.827 36.006,2.840 36.006,2.853 C36.013,2.853 36.019,2.853 36.026,2.853 C36.032,2.893 36.039,2.932 36.045,2.972 C36.052,2.972 36.059,2.972 36.065,2.972 C36.065,2.985 36.065,2.998 36.065,3.012 C36.072,3.012 36.078,3.012 36.085,3.012 C36.085,3.038 36.085,3.064 36.085,3.091 C36.091,3.091 36.098,3.091 36.104,3.091 C36.104,3.111 36.104,3.130 36.104,3.150 C36.111,3.150 36.118,3.150 36.124,3.150 C36.124,3.170 36.124,3.190 36.124,3.210 C36.131,3.210 36.137,3.210 36.144,3.210 C36.144,3.229 36.144,3.249 36.144,3.269 C36.150,3.269 36.157,3.269 36.163,3.269 C36.163,3.295 36.163,3.322 36.163,3.348 C36.170,3.348 36.177,3.348 36.183,3.348 C36.183,3.374 36.183,3.401 36.183,3.427 C36.190,3.427 36.196,3.427 36.203,3.427 C36.203,3.460 36.203,3.493 36.203,3.526 C36.209,3.526 36.216,3.526 36.222,3.526 C36.222,3.559 36.222,3.592 36.222,3.625 C36.229,3.625 36.235,3.625 36.242,3.625 C36.242,3.658 36.242,3.691 36.242,3.724 C36.249,3.724 36.255,3.724 36.262,3.724 C36.275,3.889 36.288,4.054 36.301,4.219 C36.301,4.292 36.301,4.364 36.301,4.437 C36.353,4.624 36.321,4.926 36.321,5.149 C36.321,5.631 36.321,6.112 36.321,6.594 C36.321,8.065 36.321,9.537 36.321,11.008 Z"/>
</svg>