<svg 
 xmlns="http://www.w3.org/2000/svg"
 xmlns:xlink="http://www.w3.org/1999/xlink"
 width="31px" height="32px">
<path fill-rule="evenodd"  fill="rgb(253, 137, 44)"
 d="M29.251,22.060 C29.363,22.464 29.573,22.596 29.804,22.877 C29.850,22.877 29.896,22.877 29.942,22.877 C29.988,23.058 30.034,23.240 30.080,23.421 C30.172,23.467 30.264,23.512 30.356,23.557 C30.356,23.694 30.356,23.830 30.356,23.966 C30.402,23.966 30.449,23.966 30.495,23.966 C30.495,24.057 30.495,24.148 30.495,24.238 C30.541,24.238 30.587,24.238 30.633,24.238 C30.679,24.601 30.725,24.965 30.771,25.328 C30.817,25.328 30.863,25.328 30.909,25.328 C31.198,26.243 30.704,27.686 30.495,28.187 C30.495,28.323 30.495,28.460 30.495,28.596 C30.449,28.596 30.402,28.596 30.356,28.596 C30.310,28.777 30.264,28.959 30.218,29.140 C30.126,29.186 30.034,29.231 29.942,29.277 C29.942,29.367 29.942,29.458 29.942,29.549 C29.804,29.640 29.665,29.731 29.527,29.821 C29.527,29.912 29.527,30.003 29.527,30.094 C29.481,30.094 29.435,30.094 29.389,30.094 C29.251,30.275 29.112,30.457 28.974,30.638 C28.882,30.638 28.790,30.638 28.698,30.638 C28.606,30.774 28.513,30.911 28.421,31.047 C28.329,31.047 28.237,31.047 28.145,31.047 C28.099,31.138 28.053,31.228 28.007,31.319 C27.822,31.365 27.638,31.410 27.454,31.455 C27.454,31.501 27.454,31.546 27.454,31.591 C27.316,31.591 27.177,31.591 27.039,31.591 C27.039,31.637 27.039,31.682 27.039,31.728 C26.901,31.728 26.763,31.728 26.624,31.728 C26.624,31.773 26.624,31.818 26.624,31.864 C26.394,31.864 26.164,31.864 25.933,31.864 C25.933,31.909 25.933,31.955 25.933,32.000 C25.104,31.955 24.275,31.909 23.445,31.864 C23.445,31.818 23.445,31.773 23.445,31.728 C23.307,31.728 23.169,31.728 23.031,31.728 C23.031,31.682 23.031,31.637 23.031,31.591 C22.939,31.591 22.846,31.591 22.754,31.591 C22.754,31.546 22.754,31.501 22.754,31.455 C22.616,31.455 22.478,31.455 22.340,31.455 C22.294,31.365 22.248,31.274 22.201,31.183 C22.017,31.138 21.833,31.092 21.649,31.047 C21.510,30.865 21.372,30.684 21.234,30.502 C21.142,30.502 21.050,30.502 20.958,30.502 C20.958,30.457 20.958,30.411 20.958,30.366 C20.865,30.321 20.773,30.275 20.681,30.230 C20.681,30.139 20.681,30.048 20.681,29.957 C20.497,29.821 20.312,29.685 20.128,29.549 C20.082,29.367 20.036,29.186 19.990,29.004 C19.898,28.959 19.806,28.913 19.714,28.868 C19.714,28.732 19.714,28.596 19.714,28.460 C19.667,28.460 19.621,28.460 19.575,28.460 C19.575,28.369 19.575,28.278 19.575,28.187 C19.529,28.187 19.483,28.187 19.437,28.187 C19.437,28.006 19.437,27.824 19.437,27.643 C19.391,27.643 19.345,27.643 19.299,27.643 C19.212,27.398 19.030,25.450 19.299,25.328 C19.207,25.328 19.115,25.328 19.022,25.328 C18.587,24.857 17.696,24.695 17.087,24.374 C17.087,24.329 17.087,24.284 17.087,24.238 C16.995,24.238 16.903,24.238 16.811,24.238 C16.811,24.193 16.811,24.148 16.811,24.102 C16.627,24.057 16.442,24.011 16.258,23.966 C16.258,23.921 16.258,23.875 16.258,23.830 C16.120,23.830 15.982,23.830 15.843,23.830 C15.843,23.784 15.843,23.739 15.843,23.694 C15.567,23.603 15.290,23.512 15.014,23.421 C15.014,23.376 15.014,23.330 15.014,23.285 C14.922,23.285 14.830,23.285 14.738,23.285 C14.738,23.240 14.738,23.194 14.738,23.149 C14.645,23.149 14.553,23.149 14.461,23.149 C14.461,23.104 14.461,23.058 14.461,23.013 C14.369,23.013 14.277,23.013 14.185,23.013 C14.185,22.967 14.185,22.922 14.185,22.877 C14.093,22.877 14.000,22.877 13.908,22.877 C13.908,22.831 13.908,22.786 13.908,22.740 C13.816,22.740 13.724,22.740 13.632,22.740 C13.632,22.695 13.632,22.650 13.632,22.604 C13.540,22.604 13.448,22.604 13.355,22.604 C13.355,22.559 13.355,22.513 13.355,22.468 C13.263,22.468 13.171,22.468 13.079,22.468 C13.079,22.423 13.079,22.377 13.079,22.332 C12.987,22.332 12.895,22.332 12.803,22.332 C12.803,22.287 12.803,22.241 12.803,22.196 C12.388,22.060 11.973,21.923 11.559,21.787 C10.886,21.433 10.099,20.808 9.209,20.698 C8.679,21.512 5.832,22.146 4.371,21.651 C4.371,21.606 4.371,21.560 4.371,21.515 C4.233,21.515 4.095,21.515 3.957,21.515 C3.957,21.470 3.957,21.424 3.957,21.379 C3.864,21.379 3.772,21.379 3.680,21.379 C3.680,21.333 3.680,21.288 3.680,21.243 C3.542,21.243 3.404,21.243 3.265,21.243 C3.219,21.152 3.173,21.061 3.127,20.970 C2.943,20.925 2.759,20.879 2.574,20.834 C2.436,20.652 2.298,20.471 2.160,20.289 C2.068,20.289 1.975,20.289 1.883,20.289 C1.837,20.199 1.791,20.108 1.745,20.017 C1.699,20.017 1.653,20.017 1.607,20.017 C1.607,19.926 1.607,19.835 1.607,19.745 C1.423,19.609 1.238,19.472 1.054,19.336 C1.054,19.245 1.054,19.155 1.054,19.064 C0.962,19.018 0.870,18.973 0.777,18.928 C0.639,18.474 0.501,18.020 0.363,17.566 C0.182,17.079 -0.157,15.926 0.086,15.115 C0.567,13.513 0.926,12.591 2.160,11.711 C2.298,11.529 2.436,11.347 2.574,11.166 C2.759,11.121 2.943,11.075 3.127,11.030 C3.173,10.939 3.219,10.848 3.265,10.757 C3.404,10.757 3.542,10.757 3.680,10.757 C3.680,10.712 3.680,10.667 3.680,10.621 C3.772,10.621 3.864,10.621 3.957,10.621 C3.957,10.576 3.957,10.530 3.957,10.485 C4.385,10.306 6.184,10.010 6.859,10.213 C6.859,10.258 6.859,10.304 6.859,10.349 C7.043,10.349 7.228,10.349 7.412,10.349 C7.412,10.394 7.412,10.440 7.412,10.485 C7.596,10.485 7.781,10.485 7.965,10.485 C7.965,10.530 7.965,10.576 7.965,10.621 C8.149,10.667 8.333,10.712 8.518,10.757 C8.518,10.803 8.518,10.848 8.518,10.894 C8.610,10.894 8.702,10.894 8.794,10.894 C8.794,10.939 8.794,10.984 8.794,11.030 C8.886,11.030 8.979,11.030 9.071,11.030 C9.071,11.075 9.071,11.121 9.071,11.166 C9.262,11.290 9.313,11.258 9.624,11.302 C10.060,10.831 10.949,10.670 11.559,10.349 C11.559,10.304 11.559,10.258 11.559,10.213 C11.651,10.213 11.743,10.213 11.835,10.213 C11.835,10.167 11.835,10.122 11.835,10.077 C12.019,10.031 12.204,9.986 12.388,9.940 C12.388,9.895 12.388,9.850 12.388,9.804 C12.526,9.804 12.664,9.804 12.803,9.804 C12.803,9.759 12.803,9.713 12.803,9.668 C13.079,9.577 13.355,9.487 13.632,9.396 C13.632,9.350 13.632,9.305 13.632,9.260 C13.724,9.260 13.816,9.260 13.908,9.260 C13.908,9.214 13.908,9.169 13.908,9.123 C14.000,9.123 14.093,9.123 14.185,9.123 C14.185,9.078 14.185,9.033 14.185,8.987 C14.277,8.987 14.369,8.987 14.461,8.987 C14.461,8.942 14.461,8.896 14.461,8.851 C14.553,8.851 14.645,8.851 14.738,8.851 C14.738,8.806 14.738,8.760 14.738,8.715 C14.830,8.715 14.922,8.715 15.014,8.715 C15.014,8.670 15.014,8.624 15.014,8.579 C15.106,8.579 15.198,8.579 15.291,8.579 C15.291,8.533 15.291,8.488 15.291,8.443 C15.383,8.443 15.475,8.443 15.567,8.443 C15.567,8.397 15.567,8.352 15.567,8.306 C15.659,8.306 15.751,8.306 15.843,8.306 C15.843,8.261 15.843,8.216 15.843,8.170 C15.982,8.170 16.120,8.170 16.258,8.170 C16.258,8.125 16.258,8.079 16.258,8.034 C16.442,7.989 16.627,7.943 16.811,7.898 C16.811,7.852 16.811,7.807 16.811,7.762 C16.995,7.716 17.180,7.671 17.364,7.626 C17.966,7.308 18.547,6.844 19.299,6.672 C18.992,5.888 19.218,4.987 19.437,4.357 C19.529,3.949 19.621,3.540 19.714,3.132 C19.806,3.087 19.898,3.041 19.990,2.996 C20.036,2.814 20.082,2.633 20.128,2.451 C20.312,2.315 20.497,2.179 20.681,2.043 C20.681,1.952 20.681,1.861 20.681,1.770 C20.773,1.725 20.865,1.679 20.958,1.634 C20.958,1.589 20.958,1.543 20.958,1.498 C21.050,1.498 21.142,1.498 21.234,1.498 C21.372,1.316 21.510,1.135 21.649,0.953 C21.833,0.908 22.017,0.862 22.201,0.817 C22.248,0.726 22.294,0.635 22.340,0.545 C22.478,0.545 22.616,0.545 22.754,0.545 C22.754,0.499 22.754,0.454 22.754,0.409 C22.846,0.409 22.939,0.409 23.031,0.409 C23.031,0.363 23.031,0.318 23.031,0.272 C23.169,0.272 23.307,0.272 23.445,0.272 C23.445,0.227 23.445,0.182 23.445,0.136 C24.275,0.091 25.104,0.045 25.933,-0.000 C26.770,0.245 27.770,0.507 28.421,0.953 C28.513,1.089 28.606,1.226 28.698,1.362 C28.790,1.362 28.882,1.362 28.974,1.362 C29.112,1.543 29.251,1.725 29.389,1.906 C29.435,1.906 29.481,1.906 29.527,1.906 C29.527,1.997 29.527,2.088 29.527,2.179 C29.665,2.269 29.804,2.360 29.942,2.451 C29.942,2.542 29.942,2.633 29.942,2.723 C30.034,2.769 30.126,2.814 30.218,2.860 C30.264,3.041 30.310,3.223 30.356,3.404 C30.402,3.404 30.449,3.404 30.495,3.404 C30.495,3.540 30.495,3.677 30.495,3.813 C30.541,3.813 30.587,3.813 30.633,3.813 C30.633,3.949 30.633,4.085 30.633,4.221 C30.679,4.221 30.725,4.221 30.771,4.221 C30.771,4.448 30.771,4.675 30.771,4.902 C30.817,4.902 30.863,4.902 30.909,4.902 C31.107,5.585 30.823,7.329 30.633,7.762 C30.587,7.762 30.541,7.762 30.495,7.762 C30.495,7.852 30.495,7.943 30.495,8.034 C30.449,8.034 30.402,8.034 30.356,8.034 C30.356,8.170 30.356,8.306 30.356,8.443 C30.264,8.488 30.172,8.533 30.080,8.579 C30.034,8.760 29.988,8.942 29.942,9.123 C29.757,9.260 29.573,9.396 29.389,9.532 C29.389,9.623 29.389,9.713 29.389,9.804 C29.297,9.850 29.205,9.895 29.112,9.940 C29.112,9.986 29.112,10.031 29.112,10.077 C29.020,10.077 28.928,10.077 28.836,10.077 C28.698,10.258 28.560,10.440 28.421,10.621 C28.329,10.621 28.237,10.621 28.145,10.621 C28.145,10.667 28.145,10.712 28.145,10.757 C28.053,10.757 27.961,10.757 27.868,10.757 C27.868,10.803 27.868,10.848 27.868,10.894 C27.776,10.894 27.684,10.894 27.592,10.894 C27.592,10.939 27.592,10.984 27.592,11.030 C27.500,11.030 27.408,11.030 27.316,11.030 C27.316,11.075 27.316,11.121 27.316,11.166 C27.223,11.166 27.131,11.166 27.039,11.166 C27.039,11.211 27.039,11.257 27.039,11.302 C24.842,12.155 21.617,11.043 20.819,9.668 C19.622,10.213 18.423,10.758 17.226,11.302 C17.226,11.348 17.226,11.393 17.226,11.438 C17.133,11.438 17.041,11.438 16.949,11.438 C16.949,11.484 16.949,11.529 16.949,11.574 C16.857,11.574 16.765,11.574 16.673,11.574 C16.673,11.620 16.673,11.665 16.673,11.711 C16.534,11.711 16.396,11.711 16.258,11.711 C16.258,11.756 16.258,11.801 16.258,11.847 C16.166,11.847 16.074,11.847 15.982,11.847 C15.982,11.892 15.982,11.938 15.982,11.983 C15.797,12.028 15.613,12.074 15.429,12.119 C15.429,12.165 15.429,12.210 15.429,12.255 C15.244,12.301 15.060,12.346 14.876,12.391 C14.876,12.437 14.876,12.482 14.876,12.528 C14.784,12.528 14.692,12.528 14.599,12.528 C14.599,12.573 14.599,12.618 14.599,12.664 C14.507,12.664 14.415,12.664 14.323,12.664 C14.323,12.709 14.323,12.755 14.323,12.800 C14.231,12.800 14.139,12.800 14.047,12.800 C14.047,12.845 14.047,12.891 14.047,12.936 C13.954,12.936 13.862,12.936 13.770,12.936 C13.770,12.982 13.770,13.027 13.770,13.072 C13.415,13.260 11.676,13.813 11.559,14.026 C11.559,14.207 11.559,14.389 11.559,14.570 C11.605,14.570 11.651,14.570 11.697,14.570 C11.697,14.752 11.697,14.933 11.697,15.115 C12.042,16.134 11.626,17.023 11.559,17.974 C13.908,19.064 16.258,20.153 18.608,21.243 C18.608,21.288 18.608,21.333 18.608,21.379 C18.884,21.469 19.161,21.560 19.437,21.651 C19.437,21.696 19.437,21.742 19.437,21.787 C19.621,21.833 19.806,21.878 19.990,21.923 C19.990,21.969 19.990,22.014 19.990,22.060 C20.128,22.060 20.266,22.060 20.405,22.060 C20.405,22.105 20.405,22.150 20.405,22.196 C20.497,22.196 20.589,22.196 20.681,22.196 C20.681,22.241 20.681,22.287 20.681,22.332 C20.727,22.332 20.773,22.332 20.819,22.332 C20.819,22.287 20.819,22.241 20.819,22.196 C21.050,22.014 21.280,21.833 21.510,21.651 C21.510,21.606 21.510,21.560 21.510,21.515 C21.603,21.515 21.695,21.515 21.787,21.515 C21.833,21.424 21.879,21.333 21.925,21.243 C22.017,21.243 22.109,21.243 22.201,21.243 C22.201,21.197 22.201,21.152 22.201,21.106 C22.386,21.061 22.570,21.016 22.754,20.970 C22.754,20.925 22.754,20.879 22.754,20.834 C23.164,20.658 25.118,20.231 25.795,20.426 C25.795,20.471 25.795,20.516 25.795,20.562 C26.026,20.562 26.256,20.562 26.486,20.562 C26.486,20.607 26.486,20.652 26.486,20.698 C26.671,20.698 26.855,20.698 27.039,20.698 C27.039,20.743 27.039,20.789 27.039,20.834 C27.316,20.925 27.592,21.016 27.868,21.106 C27.868,21.152 27.868,21.197 27.868,21.243 C28.053,21.288 28.237,21.333 28.421,21.379 C28.421,21.424 28.421,21.470 28.421,21.515 C28.707,21.742 28.841,21.947 29.251,22.060 ZM23.307,7.489 C23.623,7.578 23.639,7.608 23.860,7.762 C23.860,7.807 23.860,7.852 23.860,7.898 C23.998,7.898 24.137,7.898 24.275,7.898 C24.275,7.943 24.275,7.989 24.275,8.034 C24.658,8.165 25.707,8.100 25.933,7.898 C26.205,7.833 26.767,7.533 26.901,7.353 C26.901,7.262 26.901,7.172 26.901,7.081 C26.947,7.081 26.993,7.081 27.039,7.081 C27.171,6.914 27.142,6.818 27.316,6.672 C27.363,6.064 27.483,5.934 27.316,5.447 C27.316,5.265 27.316,5.084 27.316,4.902 C27.270,4.902 27.223,4.902 27.177,4.902 C27.111,4.634 26.807,4.081 26.624,3.949 C26.532,3.949 26.440,3.949 26.348,3.949 C26.348,3.904 26.348,3.858 26.348,3.813 C26.178,3.683 26.081,3.712 25.933,3.540 C25.316,3.494 25.184,3.375 24.689,3.540 C24.505,3.540 24.321,3.540 24.137,3.540 C24.137,3.586 24.137,3.631 24.137,3.677 C23.865,3.742 23.303,4.042 23.169,4.221 C23.169,4.312 23.169,4.403 23.169,4.494 C23.123,4.494 23.077,4.494 23.031,4.494 C22.899,4.661 22.928,4.757 22.754,4.902 C22.746,5.341 22.595,6.488 22.754,6.809 C22.800,6.809 22.847,6.809 22.893,6.809 C23.079,7.074 23.203,7.120 23.307,7.489 ZM5.753,13.617 C5.753,13.662 5.753,13.708 5.753,13.753 C5.523,13.753 5.293,13.753 5.062,13.753 C5.062,13.799 5.062,13.844 5.062,13.889 C4.790,13.954 4.229,14.254 4.095,14.434 C4.095,14.525 4.095,14.616 4.095,14.706 C4.049,14.706 4.003,14.706 3.957,14.706 C3.824,14.874 3.854,14.969 3.680,15.115 C3.633,15.724 3.512,15.853 3.680,16.340 C3.680,16.522 3.680,16.704 3.680,16.885 C3.726,16.885 3.772,16.885 3.818,16.885 C3.884,17.153 4.189,17.706 4.371,17.838 C4.463,17.838 4.555,17.838 4.648,17.838 C4.648,17.884 4.648,17.929 4.648,17.974 C4.817,18.105 4.915,18.075 5.062,18.247 C5.690,18.278 6.457,18.481 6.859,18.111 C6.997,18.065 7.136,18.020 7.274,17.974 C7.274,17.929 7.274,17.884 7.274,17.838 C7.660,17.588 7.835,17.675 7.965,17.157 C8.239,16.898 7.965,17.079 8.103,16.749 C8.518,15.759 8.186,15.572 7.965,14.570 C7.223,14.155 6.902,13.728 5.753,13.617 ZM23.307,24.511 C23.190,24.902 23.094,24.906 22.893,25.191 C22.847,25.191 22.800,25.191 22.754,25.191 C22.552,25.609 22.726,26.919 22.893,27.098 C22.959,27.366 23.263,27.919 23.445,28.051 C23.538,28.051 23.630,28.051 23.722,28.051 C23.722,28.096 23.722,28.142 23.722,28.187 C23.892,28.317 23.989,28.288 24.137,28.460 C24.754,28.506 24.886,28.625 25.381,28.460 C25.565,28.460 25.749,28.460 25.933,28.460 C25.933,28.414 25.933,28.369 25.933,28.323 C26.205,28.258 26.767,27.958 26.901,27.779 C26.901,27.688 26.901,27.597 26.901,27.506 C26.947,27.506 26.993,27.506 27.039,27.506 C27.171,27.339 27.142,27.243 27.316,27.098 C27.363,26.489 27.483,26.360 27.316,25.872 C27.316,25.691 27.316,25.509 27.316,25.328 C27.270,25.328 27.223,25.328 27.177,25.328 C26.972,24.426 26.129,23.957 24.966,23.966 C24.736,23.966 24.505,23.966 24.275,23.966 C24.275,24.011 24.275,24.057 24.275,24.102 C24.183,24.102 24.090,24.102 23.998,24.102 C23.998,24.148 23.998,24.193 23.998,24.238 C23.906,24.238 23.814,24.238 23.722,24.238 C23.722,24.284 23.722,24.329 23.722,24.374 C23.584,24.420 23.445,24.465 23.307,24.511 Z"/>
</svg>