<svg 
 xmlns="http://www.w3.org/2000/svg"
 xmlns:xlink="http://www.w3.org/1999/xlink"
 width="35px" height="24px">
<path fill-rule="evenodd"  fill="rgb(238, 238, 238)"
 d="M8.810,8.235 C9.242,8.227 9.647,8.270 9.973,8.371 C10.167,8.405 10.360,8.439 10.554,8.473 C10.554,8.485 10.554,8.496 10.554,8.507 C10.588,8.507 10.622,8.507 10.657,8.507 C10.657,8.519 10.657,8.530 10.657,8.541 C10.691,8.541 10.725,8.541 10.759,8.541 C10.759,8.553 10.759,8.564 10.759,8.576 C10.839,8.587 10.919,8.598 10.999,8.610 C10.999,8.621 10.999,8.632 10.999,8.644 C11.021,8.644 11.044,8.644 11.067,8.644 C11.067,8.655 11.067,8.667 11.067,8.678 C11.135,8.689 11.204,8.701 11.272,8.712 C11.272,8.723 11.272,8.735 11.272,8.746 C11.318,8.757 11.363,8.769 11.409,8.780 C11.409,8.792 11.409,8.803 11.409,8.814 C11.443,8.814 11.477,8.814 11.511,8.814 C11.511,8.826 11.511,8.837 11.511,8.848 C11.580,8.871 11.648,8.894 11.717,8.917 C11.717,8.928 11.717,8.939 11.717,8.951 C11.739,8.951 11.762,8.951 11.785,8.951 C11.785,8.962 11.785,8.973 11.785,8.985 C11.808,8.985 11.830,8.985 11.853,8.985 C11.853,8.996 11.853,9.007 11.853,9.019 C11.876,9.019 11.899,9.019 11.922,9.019 C11.922,9.030 11.922,9.042 11.922,9.053 C11.944,9.053 11.967,9.053 11.990,9.053 C11.990,9.064 11.990,9.076 11.990,9.087 C12.013,9.087 12.036,9.087 12.058,9.087 C12.058,9.098 12.058,9.110 12.058,9.121 C12.081,9.121 12.104,9.121 12.127,9.121 C12.127,9.133 12.127,9.144 12.127,9.155 C12.150,9.155 12.172,9.155 12.195,9.155 C12.207,9.178 12.218,9.201 12.229,9.223 C12.252,9.223 12.275,9.223 12.298,9.223 C12.298,9.235 12.298,9.246 12.298,9.258 C12.343,9.269 12.389,9.280 12.435,9.292 C12.435,9.303 12.435,9.314 12.435,9.326 C12.469,9.337 12.503,9.348 12.537,9.360 C12.548,9.383 12.560,9.405 12.571,9.428 C12.594,9.428 12.617,9.428 12.640,9.428 C12.651,9.451 12.662,9.473 12.674,9.496 C12.697,9.496 12.719,9.496 12.742,9.496 C12.765,9.530 12.788,9.564 12.811,9.599 C12.833,9.599 12.856,9.599 12.879,9.599 C12.890,9.621 12.902,9.644 12.913,9.667 C12.936,9.667 12.959,9.667 12.982,9.667 C13.016,9.712 13.050,9.758 13.084,9.803 C13.107,9.803 13.130,9.803 13.153,9.803 C13.175,9.837 13.198,9.871 13.221,9.905 C13.255,9.917 13.289,9.928 13.323,9.939 C13.403,10.030 13.483,10.121 13.563,10.212 C13.586,10.212 13.608,10.212 13.631,10.212 C13.688,10.280 13.745,10.349 13.802,10.417 C13.825,10.428 13.848,10.440 13.871,10.451 C13.871,10.474 13.871,10.496 13.871,10.519 C13.962,10.599 14.053,10.678 14.144,10.758 C14.144,10.781 14.144,10.803 14.144,10.826 C14.167,10.837 14.190,10.849 14.212,10.860 C14.212,10.871 14.212,10.883 14.212,10.894 C14.247,10.917 14.281,10.940 14.315,10.962 C14.315,10.985 14.315,11.008 14.315,11.031 C14.349,11.053 14.383,11.076 14.418,11.099 C14.429,11.133 14.440,11.167 14.452,11.201 C14.475,11.212 14.497,11.224 14.520,11.235 C14.520,11.258 14.520,11.281 14.520,11.303 C14.543,11.315 14.566,11.326 14.588,11.338 C14.600,11.372 14.611,11.406 14.623,11.440 C14.634,11.440 14.645,11.440 14.657,11.440 C14.657,11.463 14.657,11.485 14.657,11.508 C14.680,11.519 14.702,11.531 14.725,11.542 C14.737,11.576 14.748,11.610 14.759,11.644 C14.771,11.644 14.782,11.644 14.794,11.644 C14.805,11.690 14.816,11.735 14.828,11.781 C14.851,11.792 14.873,11.804 14.896,11.815 C14.908,11.860 14.919,11.906 14.930,11.951 C14.953,11.963 14.976,11.974 14.999,11.985 C15.010,12.031 15.022,12.076 15.033,12.122 C15.044,12.122 15.056,12.122 15.067,12.122 C15.067,12.144 15.067,12.167 15.067,12.190 C15.079,12.190 15.090,12.190 15.101,12.190 C15.124,12.258 15.147,12.326 15.170,12.395 C15.181,12.395 15.193,12.395 15.204,12.395 C15.204,12.429 15.204,12.463 15.204,12.497 C15.215,12.497 15.227,12.497 15.238,12.497 C15.238,12.520 15.238,12.542 15.238,12.565 C15.250,12.565 15.261,12.565 15.272,12.565 C15.284,12.610 15.295,12.656 15.306,12.701 C15.318,12.701 15.329,12.701 15.341,12.701 C15.466,13.099 15.591,13.497 15.717,13.895 C15.740,14.077 15.762,14.259 15.785,14.440 C15.797,14.440 15.808,14.440 15.819,14.440 C15.819,14.520 15.819,14.600 15.819,14.679 C15.831,14.679 15.842,14.679 15.854,14.679 C15.854,14.781 15.854,14.884 15.854,14.986 C15.914,15.203 15.888,15.564 15.888,15.838 C15.888,16.594 15.762,17.271 15.546,17.816 C15.546,17.850 15.546,17.884 15.546,17.918 C15.534,17.918 15.523,17.918 15.512,17.918 C15.512,17.952 15.512,17.987 15.512,18.021 C15.500,18.021 15.489,18.021 15.477,18.021 C15.477,18.055 15.477,18.089 15.477,18.123 C15.466,18.123 15.455,18.123 15.443,18.123 C15.443,18.157 15.443,18.191 15.443,18.225 C15.432,18.225 15.420,18.225 15.409,18.225 C15.409,18.248 15.409,18.271 15.409,18.293 C15.398,18.293 15.386,18.293 15.375,18.293 C15.375,18.328 15.375,18.362 15.375,18.396 C15.363,18.396 15.352,18.396 15.341,18.396 C15.341,18.418 15.341,18.441 15.341,18.464 C15.329,18.464 15.318,18.464 15.306,18.464 C15.306,18.498 15.306,18.532 15.306,18.566 C15.295,18.566 15.284,18.566 15.272,18.566 C15.250,18.634 15.227,18.703 15.204,18.771 C15.193,18.771 15.181,18.771 15.170,18.771 C15.170,18.794 15.170,18.816 15.170,18.839 C15.158,18.839 15.147,18.839 15.136,18.839 C15.136,18.862 15.136,18.884 15.136,18.907 C15.124,18.907 15.113,18.907 15.101,18.907 C15.101,18.930 15.101,18.953 15.101,18.975 C15.090,18.975 15.079,18.975 15.067,18.975 C15.067,18.998 15.067,19.021 15.067,19.044 C15.056,19.044 15.044,19.044 15.033,19.044 C15.033,19.066 15.033,19.089 15.033,19.112 C15.022,19.112 15.010,19.112 14.999,19.112 C14.999,19.135 14.999,19.157 14.999,19.180 C14.987,19.180 14.976,19.180 14.965,19.180 C14.965,19.203 14.965,19.225 14.965,19.248 C14.942,19.260 14.919,19.271 14.896,19.282 C14.885,19.328 14.873,19.373 14.862,19.419 C14.851,19.419 14.839,19.419 14.828,19.419 C14.816,19.453 14.805,19.487 14.794,19.521 C14.771,19.532 14.748,19.544 14.725,19.555 C14.714,19.601 14.702,19.646 14.691,19.691 C14.657,19.714 14.623,19.737 14.588,19.760 C14.588,19.782 14.588,19.805 14.588,19.828 C14.566,19.839 14.543,19.851 14.520,19.862 C14.520,19.885 14.520,19.907 14.520,19.930 C14.486,19.953 14.452,19.976 14.418,19.998 C14.418,20.021 14.418,20.044 14.418,20.067 C14.383,20.089 14.349,20.112 14.315,20.135 C14.315,20.157 14.315,20.180 14.315,20.203 C14.281,20.226 14.247,20.248 14.212,20.271 C14.212,20.282 14.212,20.294 14.212,20.305 C14.190,20.317 14.167,20.328 14.144,20.339 C14.144,20.362 14.144,20.385 14.144,20.408 C14.053,20.487 13.962,20.567 13.871,20.646 C13.871,20.669 13.871,20.692 13.871,20.714 C13.802,20.771 13.734,20.828 13.665,20.885 C13.654,20.908 13.643,20.930 13.631,20.953 C13.608,20.953 13.586,20.953 13.563,20.953 C13.472,21.055 13.380,21.158 13.289,21.260 C13.266,21.260 13.244,21.260 13.221,21.260 C13.187,21.305 13.153,21.351 13.118,21.396 C13.084,21.408 13.050,21.419 13.016,21.430 C13.004,21.453 12.993,21.476 12.982,21.499 C12.959,21.499 12.936,21.499 12.913,21.499 C12.890,21.533 12.868,21.567 12.845,21.601 C12.811,21.612 12.776,21.624 12.742,21.635 C12.731,21.658 12.719,21.680 12.708,21.703 C12.685,21.703 12.662,21.703 12.640,21.703 C12.628,21.726 12.617,21.749 12.605,21.771 C12.560,21.783 12.514,21.794 12.469,21.806 C12.457,21.828 12.446,21.851 12.435,21.874 C12.412,21.874 12.389,21.874 12.366,21.874 C12.355,21.896 12.343,21.919 12.332,21.942 C12.286,21.953 12.241,21.965 12.195,21.976 C12.184,21.999 12.172,22.021 12.161,22.044 C12.138,22.044 12.115,22.044 12.093,22.044 C12.093,22.056 12.093,22.067 12.093,22.078 C12.070,22.078 12.047,22.078 12.024,22.078 C12.024,22.090 12.024,22.101 12.024,22.112 C12.001,22.112 11.979,22.112 11.956,22.112 C11.956,22.124 11.956,22.135 11.956,22.146 C11.933,22.146 11.910,22.146 11.887,22.146 C11.887,22.158 11.887,22.169 11.887,22.181 C11.865,22.181 11.842,22.181 11.819,22.181 C11.819,22.192 11.819,22.203 11.819,22.215 C11.796,22.215 11.774,22.215 11.751,22.215 C11.751,22.226 11.751,22.237 11.751,22.249 C11.728,22.249 11.705,22.249 11.682,22.249 C11.682,22.260 11.682,22.272 11.682,22.283 C11.614,22.306 11.546,22.328 11.477,22.351 C11.477,22.362 11.477,22.374 11.477,22.385 C11.443,22.385 11.409,22.385 11.375,22.385 C11.375,22.397 11.375,22.408 11.375,22.419 C11.352,22.419 11.329,22.419 11.306,22.419 C11.306,22.431 11.306,22.442 11.306,22.453 C11.249,22.465 11.192,22.476 11.135,22.487 C11.135,22.499 11.135,22.510 11.135,22.522 C11.101,22.522 11.067,22.522 11.033,22.522 C11.033,22.533 11.033,22.544 11.033,22.556 C11.010,22.556 10.987,22.556 10.964,22.556 C10.964,22.567 10.964,22.578 10.964,22.590 C10.850,22.612 10.736,22.635 10.622,22.658 C10.622,22.669 10.622,22.681 10.622,22.692 C10.588,22.692 10.554,22.692 10.520,22.692 C10.520,22.703 10.520,22.715 10.520,22.726 C10.486,22.726 10.451,22.726 10.417,22.726 C10.417,22.738 10.417,22.749 10.417,22.760 C10.372,22.760 10.326,22.760 10.281,22.760 C10.281,22.772 10.281,22.783 10.281,22.794 C10.235,22.794 10.189,22.794 10.144,22.794 C10.144,22.806 10.144,22.817 10.144,22.828 C10.087,22.828 10.030,22.828 9.973,22.828 C9.973,22.840 9.973,22.851 9.973,22.863 C9.916,22.863 9.859,22.863 9.802,22.863 C9.802,22.874 9.802,22.885 9.802,22.897 C9.745,22.897 9.688,22.897 9.631,22.897 C9.631,22.908 9.631,22.919 9.631,22.931 C9.403,22.942 9.175,22.953 8.947,22.965 C8.947,22.976 8.947,22.988 8.947,22.999 C8.571,22.999 8.195,22.999 7.819,22.999 C7.819,22.988 7.819,22.976 7.819,22.965 C7.716,22.965 7.614,22.965 7.511,22.965 C7.409,22.960 7.250,22.920 7.169,22.897 C7.089,22.897 7.010,22.897 6.930,22.897 C6.930,22.885 6.930,22.874 6.930,22.863 C6.816,22.851 6.702,22.840 6.588,22.828 C6.588,22.817 6.588,22.806 6.588,22.794 C6.485,22.783 6.383,22.772 6.280,22.760 C6.280,22.749 6.280,22.738 6.280,22.726 C6.201,22.715 6.121,22.703 6.041,22.692 C6.041,22.681 6.041,22.669 6.041,22.658 C6.007,22.658 5.973,22.658 5.938,22.658 C5.938,22.647 5.938,22.635 5.938,22.624 C5.893,22.624 5.847,22.624 5.802,22.624 C5.802,22.612 5.802,22.601 5.802,22.590 C5.767,22.590 5.733,22.590 5.699,22.590 C5.699,22.578 5.699,22.567 5.699,22.556 C5.665,22.556 5.631,22.556 5.596,22.556 C5.596,22.544 5.596,22.533 5.596,22.522 C5.562,22.522 5.528,22.522 5.494,22.522 C5.494,22.510 5.494,22.499 5.494,22.487 C5.471,22.487 5.448,22.487 5.426,22.487 C5.426,22.476 5.426,22.465 5.426,22.453 C5.391,22.453 5.357,22.453 5.323,22.453 C5.323,22.442 5.323,22.431 5.323,22.419 C5.300,22.419 5.277,22.419 5.255,22.419 C5.255,22.408 5.255,22.397 5.255,22.385 C5.220,22.385 5.186,22.385 5.152,22.385 C5.152,22.374 5.152,22.362 5.152,22.351 C5.106,22.340 5.061,22.328 5.015,22.317 C5.015,22.306 5.015,22.294 5.015,22.283 C4.981,22.283 4.947,22.283 4.913,22.283 C4.913,22.272 4.913,22.260 4.913,22.249 C4.844,22.226 4.776,22.203 4.708,22.181 C4.708,22.169 4.708,22.158 4.708,22.146 C4.685,22.146 4.662,22.146 4.639,22.146 C4.639,22.135 4.639,22.124 4.639,22.112 C4.571,22.090 4.502,22.067 4.434,22.044 C4.423,22.021 4.411,21.999 4.400,21.976 C4.331,21.953 4.263,21.931 4.195,21.908 C4.183,21.885 4.172,21.862 4.161,21.840 C4.138,21.840 4.115,21.840 4.092,21.840 C4.092,21.828 4.092,21.817 4.092,21.806 C4.069,21.806 4.047,21.806 4.024,21.806 C4.012,21.783 4.001,21.760 3.990,21.737 C3.967,21.737 3.944,21.737 3.921,21.737 C3.910,21.715 3.898,21.692 3.887,21.669 C3.864,21.669 3.841,21.669 3.819,21.669 C3.819,21.658 3.819,21.646 3.819,21.635 C3.784,21.624 3.750,21.612 3.716,21.601 C3.705,21.578 3.693,21.555 3.682,21.533 C3.659,21.533 3.636,21.533 3.613,21.533 C3.591,21.499 3.568,21.465 3.545,21.430 C3.522,21.430 3.499,21.430 3.477,21.430 C3.454,21.396 3.431,21.362 3.408,21.328 C3.386,21.328 3.363,21.328 3.340,21.328 C3.317,21.294 3.294,21.260 3.272,21.226 C3.249,21.226 3.226,21.226 3.203,21.226 C3.158,21.169 3.112,21.112 3.066,21.055 C3.032,21.044 2.998,21.033 2.964,21.021 C2.873,20.919 2.781,20.817 2.690,20.714 C2.554,20.589 2.417,20.464 2.280,20.339 C2.280,20.317 2.280,20.294 2.280,20.271 C2.223,20.226 2.166,20.180 2.109,20.135 C2.109,20.112 2.109,20.089 2.109,20.067 C2.064,20.032 2.018,19.998 1.972,19.964 C1.972,19.942 1.972,19.919 1.972,19.896 C1.938,19.873 1.904,19.851 1.870,19.828 C1.870,19.805 1.870,19.782 1.870,19.760 C1.836,19.737 1.801,19.714 1.767,19.691 C1.767,19.669 1.767,19.646 1.767,19.623 C1.744,19.612 1.722,19.601 1.699,19.589 C1.699,19.566 1.699,19.544 1.699,19.521 C1.665,19.498 1.630,19.475 1.596,19.453 C1.596,19.430 1.596,19.407 1.596,19.385 C1.573,19.373 1.551,19.362 1.528,19.350 C1.516,19.305 1.505,19.260 1.494,19.214 C1.471,19.203 1.448,19.191 1.425,19.180 C1.414,19.135 1.403,19.089 1.391,19.044 C1.368,19.032 1.346,19.021 1.323,19.009 C1.311,18.964 1.300,18.919 1.289,18.873 C1.266,18.862 1.243,18.850 1.220,18.839 C1.220,18.816 1.220,18.794 1.220,18.771 C1.209,18.771 1.197,18.771 1.186,18.771 C1.186,18.748 1.186,18.725 1.186,18.703 C1.175,18.703 1.163,18.703 1.152,18.703 C1.152,18.680 1.152,18.657 1.152,18.634 C1.140,18.634 1.129,18.634 1.118,18.634 C1.118,18.612 1.118,18.589 1.118,18.566 C1.106,18.566 1.095,18.566 1.083,18.566 C1.083,18.543 1.083,18.521 1.083,18.498 C1.072,18.498 1.061,18.498 1.049,18.498 C1.049,18.475 1.049,18.453 1.049,18.430 C1.038,18.430 1.026,18.430 1.015,18.430 C1.015,18.407 1.015,18.384 1.015,18.362 C1.004,18.362 0.992,18.362 0.981,18.362 C0.958,18.293 0.935,18.225 0.912,18.157 C0.901,18.157 0.890,18.157 0.878,18.157 C0.867,18.100 0.855,18.043 0.844,17.987 C0.833,17.987 0.821,17.987 0.810,17.987 C0.810,17.964 0.810,17.941 0.810,17.918 C0.798,17.918 0.787,17.918 0.776,17.918 C0.776,17.884 0.776,17.850 0.776,17.816 C0.764,17.816 0.753,17.816 0.741,17.816 C0.741,17.793 0.741,17.771 0.741,17.748 C0.730,17.748 0.719,17.748 0.707,17.748 C0.707,17.714 0.707,17.680 0.707,17.646 C0.696,17.646 0.685,17.646 0.673,17.646 C0.673,17.623 0.673,17.600 0.673,17.577 C0.662,17.577 0.650,17.577 0.639,17.577 C0.616,17.475 0.593,17.373 0.571,17.271 C0.559,17.271 0.548,17.271 0.536,17.271 C0.536,17.248 0.536,17.225 0.536,17.202 C0.525,17.202 0.514,17.202 0.502,17.202 C0.502,17.157 0.502,17.111 0.502,17.066 C0.491,17.066 0.479,17.066 0.468,17.066 C0.468,17.032 0.468,16.998 0.468,16.964 C0.457,16.964 0.445,16.964 0.434,16.964 C0.434,16.930 0.434,16.895 0.434,16.861 C0.422,16.861 0.411,16.861 0.400,16.861 C0.400,16.827 0.400,16.793 0.400,16.759 C0.388,16.759 0.377,16.759 0.365,16.759 C0.365,16.714 0.365,16.668 0.365,16.623 C0.354,16.623 0.343,16.623 0.331,16.623 C0.331,16.577 0.331,16.532 0.331,16.486 C0.320,16.486 0.308,16.486 0.297,16.486 C0.297,16.441 0.297,16.395 0.297,16.350 C0.286,16.350 0.274,16.350 0.263,16.350 C0.263,16.304 0.263,16.259 0.263,16.213 C0.251,16.213 0.240,16.213 0.229,16.213 C0.229,16.168 0.229,16.123 0.229,16.077 C0.217,16.077 0.206,16.077 0.194,16.077 C0.194,16.020 0.194,15.963 0.194,15.907 C0.183,15.907 0.172,15.907 0.160,15.907 C0.160,15.850 0.160,15.793 0.160,15.736 C0.149,15.736 0.137,15.736 0.126,15.736 C0.126,15.657 0.126,15.577 0.126,15.497 C0.115,15.497 0.103,15.497 0.092,15.497 C0.080,15.236 0.069,14.975 0.058,14.713 C-0.018,14.439 -0.020,13.281 0.058,13.008 C0.058,12.872 0.058,12.735 0.058,12.599 C0.069,12.599 0.080,12.599 0.092,12.599 C0.092,12.485 0.092,12.372 0.092,12.258 C0.103,12.258 0.115,12.258 0.126,12.258 C0.149,12.031 0.172,11.803 0.194,11.576 C0.206,11.576 0.217,11.576 0.229,11.576 C0.229,11.508 0.229,11.440 0.229,11.372 C0.240,11.372 0.251,11.372 0.263,11.372 C0.263,11.315 0.263,11.258 0.263,11.201 C0.274,11.201 0.286,11.201 0.297,11.201 C0.297,11.144 0.297,11.087 0.297,11.031 C0.308,11.031 0.320,11.031 0.331,11.031 C0.331,10.985 0.331,10.940 0.331,10.894 C0.343,10.894 0.354,10.894 0.365,10.894 C0.365,10.849 0.365,10.803 0.365,10.758 C0.377,10.758 0.388,10.758 0.400,10.758 C0.400,10.701 0.400,10.644 0.400,10.587 C0.411,10.587 0.422,10.587 0.434,10.587 C0.434,10.553 0.434,10.519 0.434,10.485 C0.445,10.485 0.457,10.485 0.468,10.485 C0.479,10.394 0.491,10.303 0.502,10.212 C0.514,10.212 0.525,10.212 0.536,10.212 C0.548,10.133 0.559,10.053 0.571,9.974 C0.582,9.974 0.593,9.974 0.605,9.974 C0.605,9.939 0.605,9.905 0.605,9.871 C0.616,9.871 0.628,9.871 0.639,9.871 C0.639,9.837 0.639,9.803 0.639,9.769 C0.650,9.769 0.662,9.769 0.673,9.769 C0.673,9.735 0.673,9.701 0.673,9.667 C0.685,9.667 0.696,9.667 0.707,9.667 C0.707,9.633 0.707,9.599 0.707,9.564 C0.719,9.564 0.730,9.564 0.741,9.564 C0.753,9.496 0.764,9.428 0.776,9.360 C0.787,9.360 0.798,9.360 0.810,9.360 C0.810,9.337 0.810,9.314 0.810,9.292 C0.821,9.292 0.833,9.292 0.844,9.292 C0.855,9.223 0.867,9.155 0.878,9.087 C0.890,9.087 0.901,9.087 0.912,9.087 C0.912,9.064 0.912,9.042 0.912,9.019 C0.924,9.019 0.935,9.019 0.947,9.019 C0.947,8.985 0.947,8.951 0.947,8.917 C0.958,8.917 0.969,8.917 0.981,8.917 C0.981,8.894 0.981,8.871 0.981,8.848 C0.992,8.848 1.004,8.848 1.015,8.848 C1.015,8.814 1.015,8.780 1.015,8.746 C1.026,8.746 1.038,8.746 1.049,8.746 C1.061,8.701 1.072,8.655 1.083,8.610 C1.095,8.610 1.106,8.610 1.118,8.610 C1.118,8.576 1.118,8.541 1.118,8.507 C1.129,8.507 1.140,8.507 1.152,8.507 C1.152,8.485 1.152,8.462 1.152,8.439 C1.163,8.439 1.175,8.439 1.186,8.439 C1.186,8.416 1.186,8.394 1.186,8.371 C1.197,8.371 1.209,8.371 1.220,8.371 C1.243,8.303 1.266,8.235 1.289,8.166 C1.300,8.166 1.311,8.166 1.323,8.166 C1.323,8.132 1.323,8.098 1.323,8.064 C1.334,8.064 1.346,8.064 1.357,8.064 C1.368,8.019 1.380,7.973 1.391,7.928 C1.403,7.928 1.414,7.928 1.425,7.928 C1.437,7.882 1.448,7.837 1.459,7.791 C1.482,7.780 1.505,7.769 1.528,7.757 C1.528,7.735 1.528,7.712 1.528,7.689 C1.539,7.689 1.551,7.689 1.562,7.689 C1.562,7.666 1.562,7.644 1.562,7.621 C1.573,7.621 1.585,7.621 1.596,7.621 C1.596,7.598 1.596,7.575 1.596,7.553 C1.608,7.553 1.619,7.553 1.630,7.553 C1.630,7.530 1.630,7.507 1.630,7.484 C1.642,7.484 1.653,7.484 1.665,7.484 C1.665,7.462 1.665,7.439 1.665,7.416 C1.687,7.405 1.710,7.394 1.733,7.382 C1.756,7.314 1.779,7.246 1.801,7.178 C1.824,7.166 1.847,7.155 1.870,7.143 C1.870,7.121 1.870,7.098 1.870,7.075 C1.881,7.075 1.893,7.075 1.904,7.075 C1.904,7.053 1.904,7.030 1.904,7.007 C1.927,6.996 1.950,6.984 1.972,6.973 C1.984,6.928 1.995,6.882 2.007,6.837 C2.029,6.825 2.052,6.814 2.075,6.803 C2.075,6.780 2.075,6.757 2.075,6.734 C2.098,6.723 2.121,6.712 2.143,6.700 C2.143,6.677 2.143,6.655 2.143,6.632 C2.166,6.621 2.189,6.609 2.212,6.598 C2.212,6.575 2.212,6.552 2.212,6.530 C2.234,6.518 2.257,6.507 2.280,6.496 C2.280,6.473 2.280,6.450 2.280,6.427 C2.303,6.416 2.326,6.405 2.348,6.393 C2.348,6.371 2.348,6.348 2.348,6.325 C2.371,6.314 2.394,6.302 2.417,6.291 C2.417,6.268 2.417,6.246 2.417,6.223 C2.451,6.200 2.485,6.177 2.519,6.155 C2.519,6.132 2.519,6.109 2.519,6.086 C2.554,6.064 2.588,6.041 2.622,6.018 C2.622,5.996 2.622,5.973 2.622,5.950 C2.656,5.927 2.690,5.905 2.725,5.882 C2.725,5.859 2.725,5.836 2.725,5.814 C2.759,5.791 2.793,5.768 2.827,5.745 C2.827,5.723 2.827,5.700 2.827,5.677 C2.873,5.643 2.918,5.609 2.964,5.575 C2.964,5.552 2.964,5.530 2.964,5.507 C3.021,5.461 3.078,5.416 3.135,5.370 C3.135,5.348 3.135,5.325 3.135,5.302 C3.203,5.245 3.272,5.189 3.340,5.132 C3.340,5.109 3.340,5.086 3.340,5.064 C3.465,4.950 3.591,4.836 3.716,4.723 C3.716,4.700 3.716,4.677 3.716,4.654 C3.762,4.620 3.807,4.586 3.853,4.552 C3.933,4.461 4.012,4.370 4.092,4.279 C4.115,4.279 4.138,4.279 4.161,4.279 C4.286,4.143 4.411,4.006 4.537,3.870 C4.559,3.870 4.582,3.870 4.605,3.870 C4.662,3.802 4.719,3.734 4.776,3.666 C4.799,3.666 4.822,3.666 4.844,3.666 C4.890,3.609 4.935,3.552 4.981,3.495 C5.004,3.495 5.027,3.495 5.049,3.495 C5.084,3.450 5.118,3.404 5.152,3.359 C5.175,3.359 5.198,3.359 5.220,3.359 C5.255,3.313 5.289,3.268 5.323,3.222 C5.346,3.222 5.369,3.222 5.391,3.222 C5.414,3.188 5.437,3.154 5.460,3.120 C5.494,3.109 5.528,3.097 5.562,3.086 C5.574,3.063 5.585,3.040 5.596,3.018 C5.619,3.018 5.642,3.018 5.665,3.018 C5.665,3.006 5.665,2.995 5.665,2.984 C5.699,2.972 5.733,2.961 5.767,2.949 C5.779,2.927 5.790,2.904 5.802,2.881 C5.824,2.881 5.847,2.881 5.870,2.881 C5.893,2.847 5.916,2.813 5.938,2.779 C5.961,2.779 5.984,2.779 6.007,2.779 C6.018,2.756 6.030,2.734 6.041,2.711 C6.064,2.711 6.087,2.711 6.109,2.711 C6.121,2.688 6.132,2.665 6.144,2.643 C6.166,2.643 6.189,2.643 6.212,2.643 C6.223,2.620 6.235,2.597 6.246,2.574 C6.269,2.574 6.292,2.574 6.314,2.574 C6.326,2.552 6.337,2.529 6.349,2.506 C6.394,2.495 6.440,2.483 6.485,2.472 C6.485,2.461 6.485,2.449 6.485,2.438 C6.520,2.427 6.554,2.415 6.588,2.404 C6.599,2.381 6.611,2.358 6.622,2.336 C6.668,2.324 6.713,2.313 6.759,2.302 C6.770,2.279 6.782,2.256 6.793,2.233 C6.816,2.233 6.839,2.233 6.862,2.233 C6.862,2.222 6.862,2.211 6.862,2.199 C6.884,2.199 6.907,2.199 6.930,2.199 C6.941,2.177 6.953,2.154 6.964,2.131 C6.987,2.131 7.010,2.131 7.032,2.131 C7.032,2.120 7.032,2.108 7.032,2.097 C7.055,2.097 7.078,2.097 7.101,2.097 C7.101,2.086 7.101,2.074 7.101,2.063 C7.124,2.063 7.146,2.063 7.169,2.063 C7.169,2.052 7.169,2.040 7.169,2.029 C7.192,2.029 7.215,2.029 7.238,2.029 C8.195,1.430 9.337,1.042 10.486,0.631 C10.531,0.631 10.577,0.631 10.622,0.631 C10.622,0.619 10.622,0.608 10.622,0.597 C10.657,0.597 10.691,0.597 10.725,0.597 C10.725,0.585 10.725,0.574 10.725,0.563 C10.805,0.551 10.885,0.540 10.964,0.529 C10.964,0.517 10.964,0.506 10.964,0.494 C11.056,0.483 11.147,0.472 11.238,0.460 C11.238,0.449 11.238,0.438 11.238,0.426 C11.329,0.415 11.420,0.403 11.511,0.392 C11.511,0.381 11.511,0.369 11.511,0.358 C11.614,0.347 11.717,0.335 11.819,0.324 C11.819,0.313 11.819,0.301 11.819,0.290 C11.876,0.290 11.933,0.290 11.990,0.290 C12.274,0.202 12.655,0.170 12.947,0.085 C13.027,0.085 13.107,0.085 13.187,0.085 C13.455,0.007 13.830,-0.045 14.076,0.051 C14.144,0.214 14.160,0.451 14.212,0.631 C14.212,0.710 14.212,0.790 14.212,0.869 C14.270,1.064 14.292,1.353 14.349,1.551 C14.349,1.631 14.349,1.711 14.349,1.790 C14.439,2.096 14.481,2.468 14.486,2.847 C14.440,2.881 14.395,2.915 14.349,2.949 C14.349,2.961 14.349,2.972 14.349,2.984 C14.133,3.040 13.916,3.097 13.700,3.154 C13.700,3.165 13.700,3.177 13.700,3.188 C13.665,3.188 13.631,3.188 13.597,3.188 C13.597,3.200 13.597,3.211 13.597,3.222 C13.574,3.222 13.551,3.222 13.529,3.222 C13.529,3.234 13.529,3.245 13.529,3.256 C13.460,3.268 13.392,3.279 13.323,3.290 C13.323,3.302 13.323,3.313 13.323,3.325 C13.301,3.325 13.278,3.325 13.255,3.325 C13.255,3.336 13.255,3.347 13.255,3.359 C13.187,3.370 13.118,3.381 13.050,3.393 C13.050,3.404 13.050,3.415 13.050,3.427 C13.004,3.438 12.959,3.450 12.913,3.461 C12.913,3.472 12.913,3.484 12.913,3.495 C12.879,3.495 12.845,3.495 12.811,3.495 C12.811,3.506 12.811,3.518 12.811,3.529 C12.742,3.552 12.674,3.575 12.605,3.597 C12.605,3.609 12.605,3.620 12.605,3.631 C12.583,3.631 12.560,3.631 12.537,3.631 C12.537,3.643 12.537,3.654 12.537,3.666 C12.503,3.666 12.469,3.666 12.435,3.666 C12.435,3.677 12.435,3.688 12.435,3.700 C12.389,3.711 12.343,3.722 12.298,3.734 C12.298,3.745 12.298,3.756 12.298,3.768 C12.275,3.768 12.252,3.768 12.229,3.768 C12.218,3.791 12.207,3.813 12.195,3.836 C12.172,3.836 12.150,3.836 12.127,3.836 C12.127,3.847 12.127,3.859 12.127,3.870 C12.104,3.870 12.081,3.870 12.058,3.870 C12.058,3.881 12.058,3.893 12.058,3.904 C12.036,3.904 12.013,3.904 11.990,3.904 C11.990,3.916 11.990,3.927 11.990,3.938 C11.967,3.938 11.944,3.938 11.922,3.938 C11.910,3.961 11.899,3.984 11.887,4.006 C11.842,4.018 11.796,4.029 11.751,4.041 C11.739,4.063 11.728,4.086 11.717,4.109 C11.694,4.109 11.671,4.109 11.648,4.109 C11.637,4.132 11.625,4.154 11.614,4.177 C11.591,4.177 11.568,4.177 11.546,4.177 C11.534,4.200 11.523,4.222 11.511,4.245 C11.489,4.245 11.466,4.245 11.443,4.245 C11.443,4.257 11.443,4.268 11.443,4.279 C11.409,4.291 11.375,4.302 11.340,4.313 C11.329,4.336 11.318,4.359 11.306,4.382 C11.283,4.382 11.261,4.382 11.238,4.382 C11.215,4.416 11.192,4.450 11.169,4.484 C11.147,4.484 11.124,4.484 11.101,4.484 C11.056,4.541 11.010,4.598 10.964,4.654 C10.942,4.654 10.919,4.654 10.896,4.654 C10.816,4.745 10.736,4.836 10.657,4.927 C10.634,4.927 10.611,4.927 10.588,4.927 C10.577,4.950 10.565,4.973 10.554,4.995 C10.508,5.029 10.463,5.064 10.417,5.098 C10.417,5.120 10.417,5.143 10.417,5.166 C10.326,5.245 10.235,5.325 10.144,5.404 C10.144,5.427 10.144,5.450 10.144,5.473 C10.098,5.507 10.053,5.541 10.007,5.575 C10.007,5.598 10.007,5.620 10.007,5.643 C9.973,5.666 9.939,5.689 9.904,5.711 C9.904,5.734 9.904,5.757 9.904,5.780 C9.882,5.791 9.859,5.802 9.836,5.814 C9.825,5.848 9.813,5.882 9.802,5.916 C9.790,5.916 9.779,5.916 9.768,5.916 C9.768,5.939 9.768,5.961 9.768,5.984 C9.745,5.996 9.722,6.007 9.699,6.018 C9.688,6.052 9.677,6.086 9.665,6.121 C9.654,6.121 9.642,6.121 9.631,6.121 C9.620,6.166 9.608,6.211 9.597,6.257 C9.574,6.268 9.551,6.280 9.528,6.291 C9.528,6.314 9.528,6.337 9.528,6.359 C9.517,6.359 9.506,6.359 9.494,6.359 C9.494,6.382 9.494,6.405 9.494,6.427 C9.483,6.427 9.471,6.427 9.460,6.427 C9.460,6.450 9.460,6.473 9.460,6.496 C9.449,6.496 9.437,6.496 9.426,6.496 C9.426,6.518 9.426,6.541 9.426,6.564 C9.414,6.564 9.403,6.564 9.392,6.564 C9.392,6.587 9.392,6.609 9.392,6.632 C9.380,6.632 9.369,6.632 9.357,6.632 C9.357,6.655 9.357,6.677 9.357,6.700 C9.346,6.700 9.335,6.700 9.323,6.700 C9.323,6.723 9.323,6.746 9.323,6.768 C9.312,6.768 9.300,6.768 9.289,6.768 C9.266,6.837 9.243,6.905 9.221,6.973 C9.209,6.973 9.198,6.973 9.186,6.973 C9.186,7.007 9.186,7.041 9.186,7.075 C9.175,7.075 9.164,7.075 9.152,7.075 C9.152,7.098 9.152,7.121 9.152,7.143 C9.141,7.143 9.129,7.143 9.118,7.143 C9.118,7.178 9.118,7.212 9.118,7.246 C9.107,7.246 9.095,7.246 9.084,7.246 C9.084,7.269 9.084,7.291 9.084,7.314 C9.072,7.314 9.061,7.314 9.050,7.314 C9.027,7.416 9.004,7.519 8.981,7.621 C8.908,7.806 8.818,7.976 8.810,8.235 ZM27.888,8.235 C28.573,8.222 29.162,8.362 29.666,8.541 C29.712,8.541 29.758,8.541 29.803,8.541 C29.803,8.553 29.803,8.564 29.803,8.576 C29.837,8.576 29.871,8.576 29.906,8.576 C29.906,8.587 29.906,8.598 29.906,8.610 C29.940,8.610 29.974,8.610 30.008,8.610 C30.008,8.621 30.008,8.632 30.008,8.644 C30.042,8.644 30.077,8.644 30.111,8.644 C30.111,8.655 30.111,8.667 30.111,8.678 C30.134,8.678 30.156,8.678 30.179,8.678 C30.179,8.689 30.179,8.701 30.179,8.712 C30.213,8.712 30.248,8.712 30.282,8.712 C30.282,8.723 30.282,8.735 30.282,8.746 C30.305,8.746 30.327,8.746 30.350,8.746 C30.350,8.757 30.350,8.769 30.350,8.780 C30.384,8.780 30.419,8.780 30.453,8.780 C30.453,8.792 30.453,8.803 30.453,8.814 C30.498,8.826 30.544,8.837 30.589,8.848 C30.589,8.860 30.589,8.871 30.589,8.882 C30.624,8.882 30.658,8.882 30.692,8.882 C30.692,8.894 30.692,8.905 30.692,8.917 C30.760,8.939 30.829,8.962 30.897,8.985 C30.897,8.996 30.897,9.007 30.897,9.019 C30.943,9.030 30.988,9.042 31.034,9.053 C31.045,9.076 31.057,9.098 31.068,9.121 C31.091,9.121 31.114,9.121 31.137,9.121 C31.137,9.133 31.137,9.144 31.137,9.155 C31.159,9.155 31.182,9.155 31.205,9.155 C31.205,9.167 31.205,9.178 31.205,9.189 C31.228,9.189 31.250,9.189 31.273,9.189 C31.273,9.201 31.273,9.212 31.273,9.223 C31.296,9.223 31.319,9.223 31.342,9.223 C31.353,9.246 31.364,9.269 31.376,9.292 C31.421,9.303 31.467,9.314 31.513,9.326 C31.513,9.337 31.513,9.348 31.513,9.360 C31.547,9.371 31.581,9.383 31.615,9.394 C31.627,9.417 31.638,9.439 31.649,9.462 C31.672,9.462 31.695,9.462 31.718,9.462 C31.718,9.473 31.718,9.485 31.718,9.496 C31.752,9.508 31.786,9.519 31.820,9.530 C31.832,9.553 31.843,9.576 31.855,9.599 C31.877,9.599 31.900,9.599 31.923,9.599 C31.946,9.633 31.968,9.667 31.991,9.701 C32.014,9.701 32.037,9.701 32.060,9.701 C32.082,9.735 32.105,9.769 32.128,9.803 C32.151,9.803 32.174,9.803 32.196,9.803 C32.242,9.860 32.288,9.917 32.333,9.974 C33.103,10.529 33.635,11.309 34.145,12.122 C34.157,12.167 34.168,12.213 34.179,12.258 C34.191,12.258 34.202,12.258 34.214,12.258 C34.236,12.326 34.259,12.395 34.282,12.463 C34.293,12.463 34.305,12.463 34.316,12.463 C34.316,12.497 34.316,12.531 34.316,12.565 C34.328,12.565 34.339,12.565 34.350,12.565 C34.362,12.610 34.373,12.656 34.385,12.701 C34.396,12.701 34.407,12.701 34.419,12.701 C34.419,12.736 34.419,12.770 34.419,12.804 C34.430,12.804 34.442,12.804 34.453,12.804 C34.453,12.826 34.453,12.849 34.453,12.872 C34.464,12.872 34.476,12.872 34.487,12.872 C34.487,12.906 34.487,12.940 34.487,12.974 C34.499,12.974 34.510,12.974 34.521,12.974 C34.521,12.997 34.521,13.020 34.521,13.042 C34.533,13.042 34.544,13.042 34.556,13.042 C34.578,13.145 34.601,13.247 34.624,13.349 C34.635,13.349 34.647,13.349 34.658,13.349 C34.658,13.383 34.658,13.417 34.658,13.452 C34.669,13.452 34.681,13.452 34.692,13.452 C34.715,13.577 34.738,13.702 34.761,13.827 C34.772,13.827 34.783,13.827 34.795,13.827 C34.795,13.883 34.795,13.940 34.795,13.997 C34.806,13.997 34.818,13.997 34.829,13.997 C34.840,14.111 34.852,14.224 34.863,14.338 C34.875,14.338 34.886,14.338 34.897,14.338 C34.909,14.509 34.920,14.679 34.932,14.850 C34.976,15.008 34.912,15.300 34.966,15.497 C34.977,15.497 34.989,15.497 35.000,15.497 C35.000,15.566 35.000,15.634 35.000,15.702 C34.989,15.702 34.977,15.702 34.966,15.702 C34.966,15.816 34.966,15.929 34.966,16.043 C34.943,16.293 34.920,16.543 34.897,16.793 C34.886,16.793 34.875,16.793 34.863,16.793 C34.829,17.009 34.795,17.225 34.761,17.441 C34.658,17.748 34.556,18.055 34.453,18.362 C34.442,18.362 34.430,18.362 34.419,18.362 C34.407,18.407 34.396,18.453 34.385,18.498 C34.373,18.498 34.362,18.498 34.350,18.498 C34.350,18.532 34.350,18.566 34.350,18.600 C34.339,18.600 34.328,18.600 34.316,18.600 C34.293,18.669 34.271,18.737 34.248,18.805 C34.236,18.805 34.225,18.805 34.214,18.805 C34.214,18.828 34.214,18.850 34.214,18.873 C34.202,18.873 34.191,18.873 34.179,18.873 C34.179,18.896 34.179,18.919 34.179,18.941 C34.168,18.941 34.157,18.941 34.145,18.941 C34.145,18.964 34.145,18.987 34.145,19.009 C34.134,19.009 34.122,19.009 34.111,19.009 C34.111,19.032 34.111,19.055 34.111,19.078 C34.100,19.078 34.088,19.078 34.077,19.078 C34.077,19.100 34.077,19.123 34.077,19.146 C34.065,19.146 34.054,19.146 34.043,19.146 C34.043,19.169 34.043,19.191 34.043,19.214 C34.020,19.225 33.997,19.237 33.974,19.248 C33.963,19.294 33.952,19.339 33.940,19.385 C33.917,19.396 33.895,19.407 33.872,19.419 C33.860,19.464 33.849,19.510 33.838,19.555 C33.826,19.555 33.815,19.555 33.803,19.555 C33.792,19.589 33.781,19.623 33.769,19.657 C33.746,19.669 33.724,19.680 33.701,19.691 C33.701,19.714 33.701,19.737 33.701,19.760 C33.667,19.782 33.632,19.805 33.598,19.828 C33.598,19.851 33.598,19.873 33.598,19.896 C33.575,19.907 33.553,19.919 33.530,19.930 C33.530,19.953 33.530,19.976 33.530,19.998 C33.496,20.021 33.461,20.044 33.427,20.067 C33.427,20.089 33.427,20.112 33.427,20.135 C33.393,20.157 33.359,20.180 33.325,20.203 C33.313,20.237 33.302,20.271 33.290,20.305 C33.222,20.362 33.154,20.419 33.085,20.476 C33.085,20.498 33.085,20.521 33.085,20.544 C32.971,20.646 32.857,20.748 32.743,20.851 C32.686,20.919 32.629,20.987 32.573,21.055 C32.550,21.055 32.527,21.055 32.504,21.055 C32.436,21.135 32.367,21.214 32.299,21.294 C32.265,21.305 32.231,21.317 32.196,21.328 C32.174,21.362 32.151,21.396 32.128,21.430 C32.105,21.430 32.082,21.430 32.060,21.430 C32.037,21.465 32.014,21.499 31.991,21.533 C31.957,21.544 31.923,21.555 31.889,21.567 C31.877,21.590 31.866,21.612 31.855,21.635 C31.832,21.635 31.809,21.635 31.786,21.635 C31.775,21.658 31.763,21.680 31.752,21.703 C31.718,21.715 31.684,21.726 31.649,21.737 C31.649,21.749 31.649,21.760 31.649,21.771 C31.627,21.771 31.604,21.771 31.581,21.771 C31.570,21.794 31.558,21.817 31.547,21.840 C31.513,21.851 31.478,21.862 31.444,21.874 C31.444,21.885 31.444,21.896 31.444,21.908 C31.376,21.931 31.307,21.953 31.239,21.976 C31.228,21.999 31.216,22.021 31.205,22.044 C31.182,22.044 31.159,22.044 31.137,22.044 C31.137,22.056 31.137,22.067 31.137,22.078 C31.114,22.078 31.091,22.078 31.068,22.078 C31.068,22.090 31.068,22.101 31.068,22.112 C31.045,22.112 31.023,22.112 31.000,22.112 C31.000,22.124 31.000,22.135 31.000,22.146 C30.977,22.146 30.954,22.146 30.931,22.146 C30.931,22.158 30.931,22.169 30.931,22.181 C30.909,22.181 30.886,22.181 30.863,22.181 C30.852,22.203 30.840,22.226 30.829,22.249 C30.795,22.249 30.760,22.249 30.726,22.249 C30.726,22.260 30.726,22.272 30.726,22.283 C30.703,22.283 30.681,22.283 30.658,22.283 C30.658,22.294 30.658,22.306 30.658,22.317 C30.589,22.340 30.521,22.362 30.453,22.385 C30.453,22.397 30.453,22.408 30.453,22.419 C30.419,22.419 30.384,22.419 30.350,22.419 C30.350,22.431 30.350,22.442 30.350,22.453 C30.327,22.453 30.305,22.453 30.282,22.453 C30.282,22.465 30.282,22.476 30.282,22.487 C30.248,22.487 30.213,22.487 30.179,22.487 C30.179,22.499 30.179,22.510 30.179,22.522 C30.156,22.522 30.134,22.522 30.111,22.522 C30.111,22.533 30.111,22.544 30.111,22.556 C30.042,22.567 29.974,22.578 29.906,22.590 C29.906,22.601 29.906,22.612 29.906,22.624 C29.871,22.624 29.837,22.624 29.803,22.624 C29.803,22.635 29.803,22.647 29.803,22.658 C29.769,22.658 29.735,22.658 29.701,22.658 C29.701,22.669 29.701,22.681 29.701,22.692 C29.621,22.703 29.541,22.715 29.461,22.726 C29.461,22.738 29.461,22.749 29.461,22.760 C29.416,22.760 29.370,22.760 29.324,22.760 C29.324,22.772 29.324,22.783 29.324,22.794 C29.233,22.806 29.142,22.817 29.051,22.828 C29.051,22.840 29.051,22.851 29.051,22.863 C28.983,22.863 28.914,22.863 28.846,22.863 C28.846,22.874 28.846,22.885 28.846,22.897 C28.789,22.897 28.732,22.897 28.675,22.897 C28.675,22.908 28.675,22.919 28.675,22.931 C28.584,22.931 28.492,22.931 28.401,22.931 C28.401,22.942 28.401,22.953 28.401,22.965 C28.265,22.965 28.128,22.965 27.991,22.965 C27.991,22.976 27.991,22.988 27.991,22.999 C27.843,22.999 27.695,22.999 27.547,22.999 C27.165,22.999 26.752,23.016 26.452,22.931 C26.361,22.931 26.270,22.931 26.179,22.931 C26.179,22.919 26.179,22.908 26.179,22.897 C26.111,22.897 26.042,22.897 25.974,22.897 C25.974,22.885 25.974,22.874 25.974,22.863 C25.917,22.863 25.860,22.863 25.803,22.863 C25.803,22.851 25.803,22.840 25.803,22.828 C25.734,22.828 25.666,22.828 25.598,22.828 C25.210,22.715 24.823,22.601 24.435,22.487 C24.435,22.476 24.435,22.465 24.435,22.453 C24.412,22.453 24.390,22.453 24.367,22.453 C24.367,22.442 24.367,22.431 24.367,22.419 C24.333,22.419 24.298,22.419 24.264,22.419 C24.264,22.408 24.264,22.397 24.264,22.385 C24.219,22.374 24.173,22.362 24.128,22.351 C24.128,22.340 24.128,22.328 24.128,22.317 C24.093,22.317 24.059,22.317 24.025,22.317 C24.025,22.306 24.025,22.294 24.025,22.283 C23.957,22.260 23.888,22.237 23.820,22.215 C23.820,22.203 23.820,22.192 23.820,22.181 C23.797,22.181 23.774,22.181 23.751,22.181 C23.751,22.169 23.751,22.158 23.751,22.146 C23.729,22.146 23.706,22.146 23.683,22.146 C23.683,22.135 23.683,22.124 23.683,22.112 C23.660,22.112 23.637,22.112 23.615,22.112 C23.615,22.101 23.615,22.090 23.615,22.078 C23.592,22.078 23.569,22.078 23.546,22.078 C23.546,22.067 23.546,22.056 23.546,22.044 C23.524,22.044 23.501,22.044 23.478,22.044 C23.478,22.033 23.478,22.021 23.478,22.010 C23.455,22.010 23.432,22.010 23.410,22.010 C23.410,21.999 23.410,21.987 23.410,21.976 C23.387,21.976 23.364,21.976 23.341,21.976 C23.330,21.953 23.318,21.931 23.307,21.908 C23.261,21.896 23.216,21.885 23.170,21.874 C23.159,21.851 23.147,21.828 23.136,21.806 C23.090,21.794 23.045,21.783 22.999,21.771 C22.988,21.749 22.976,21.726 22.965,21.703 C22.942,21.703 22.919,21.703 22.897,21.703 C22.897,21.692 22.897,21.680 22.897,21.669 C22.863,21.658 22.828,21.646 22.794,21.635 C22.783,21.612 22.771,21.590 22.760,21.567 C22.737,21.567 22.714,21.567 22.692,21.567 C22.669,21.533 22.646,21.499 22.623,21.465 C22.600,21.465 22.578,21.465 22.555,21.465 C22.532,21.430 22.509,21.396 22.486,21.362 C22.464,21.362 22.441,21.362 22.418,21.362 C22.395,21.328 22.372,21.294 22.350,21.260 C22.327,21.260 22.304,21.260 22.281,21.260 C22.224,21.192 22.167,21.124 22.110,21.055 C22.088,21.055 22.065,21.055 22.042,21.055 C21.974,20.976 21.905,20.896 21.837,20.817 C21.615,20.595 21.337,20.391 21.153,20.135 C21.153,20.112 21.153,20.089 21.153,20.067 C21.107,20.032 21.062,19.998 21.016,19.964 C21.016,19.942 21.016,19.919 21.016,19.896 C20.982,19.873 20.948,19.851 20.914,19.828 C20.914,19.805 20.914,19.782 20.914,19.760 C20.879,19.737 20.845,19.714 20.811,19.691 C20.811,19.669 20.811,19.646 20.811,19.623 C20.788,19.612 20.766,19.601 20.743,19.589 C20.731,19.555 20.720,19.521 20.709,19.487 C20.697,19.487 20.686,19.487 20.674,19.487 C20.674,19.464 20.674,19.441 20.674,19.419 C20.652,19.407 20.629,19.396 20.606,19.385 C20.595,19.350 20.583,19.316 20.572,19.282 C20.560,19.282 20.549,19.282 20.538,19.282 C20.526,19.237 20.515,19.191 20.503,19.146 C20.481,19.135 20.458,19.123 20.435,19.112 C20.424,19.066 20.412,19.021 20.401,18.975 C20.031,18.392 19.763,17.701 19.512,16.998 C19.409,16.566 19.307,16.134 19.204,15.702 C19.193,15.509 19.181,15.316 19.170,15.122 C19.159,15.122 19.147,15.122 19.136,15.122 C19.136,14.986 19.136,14.850 19.136,14.713 C19.051,14.408 19.102,13.919 19.102,13.554 C19.102,13.341 19.091,13.065 19.136,12.906 C19.147,12.667 19.159,12.429 19.170,12.190 C19.229,11.986 19.248,11.704 19.307,11.508 C19.307,11.440 19.307,11.372 19.307,11.303 C19.418,10.939 19.492,10.520 19.614,10.178 C19.614,10.133 19.614,10.087 19.614,10.042 C19.626,10.042 19.637,10.042 19.649,10.042 C19.649,10.008 19.649,9.974 19.649,9.939 C19.660,9.939 19.671,9.939 19.683,9.939 C19.683,9.905 19.683,9.871 19.683,9.837 C19.694,9.837 19.706,9.837 19.717,9.837 C19.717,9.803 19.717,9.769 19.717,9.735 C19.728,9.735 19.740,9.735 19.751,9.735 C19.751,9.701 19.751,9.667 19.751,9.633 C19.763,9.633 19.774,9.633 19.785,9.633 C19.785,9.599 19.785,9.564 19.785,9.530 C19.797,9.530 19.808,9.530 19.820,9.530 C19.820,9.496 19.820,9.462 19.820,9.428 C19.831,9.428 19.842,9.428 19.854,9.428 C19.865,9.360 19.877,9.292 19.888,9.223 C19.899,9.223 19.911,9.223 19.922,9.223 C19.922,9.201 19.922,9.178 19.922,9.155 C19.934,9.155 19.945,9.155 19.956,9.155 C19.956,9.121 19.956,9.087 19.956,9.053 C19.968,9.053 19.979,9.053 19.991,9.053 C19.991,9.030 19.991,9.007 19.991,8.985 C20.002,8.985 20.013,8.985 20.025,8.985 C20.025,8.951 20.025,8.917 20.025,8.882 C20.036,8.882 20.048,8.882 20.059,8.882 C20.059,8.860 20.059,8.837 20.059,8.814 C20.070,8.814 20.082,8.814 20.093,8.814 C20.093,8.780 20.093,8.746 20.093,8.712 C20.105,8.712 20.116,8.712 20.127,8.712 C20.139,8.667 20.150,8.621 20.161,8.576 C20.173,8.576 20.184,8.576 20.196,8.576 C20.196,8.541 20.196,8.507 20.196,8.473 C20.207,8.473 20.218,8.473 20.230,8.473 C20.230,8.451 20.230,8.428 20.230,8.405 C20.241,8.405 20.253,8.405 20.264,8.405 C20.275,8.360 20.287,8.314 20.298,8.269 C20.310,8.269 20.321,8.269 20.332,8.269 C20.332,8.246 20.332,8.223 20.332,8.201 C20.344,8.201 20.355,8.201 20.367,8.201 C20.367,8.178 20.367,8.155 20.367,8.132 C20.378,8.132 20.389,8.132 20.401,8.132 C20.401,8.110 20.401,8.087 20.401,8.064 C20.412,8.064 20.424,8.064 20.435,8.064 C20.435,8.041 20.435,8.019 20.435,7.996 C20.446,7.996 20.458,7.996 20.469,7.996 C20.469,7.973 20.469,7.950 20.469,7.928 C20.481,7.928 20.492,7.928 20.503,7.928 C20.503,7.905 20.503,7.882 20.503,7.860 C20.515,7.860 20.526,7.860 20.538,7.860 C20.538,7.837 20.538,7.814 20.538,7.791 C20.549,7.791 20.560,7.791 20.572,7.791 C20.572,7.769 20.572,7.746 20.572,7.723 C20.583,7.723 20.595,7.723 20.606,7.723 C20.606,7.700 20.606,7.678 20.606,7.655 C20.617,7.655 20.629,7.655 20.640,7.655 C20.640,7.632 20.640,7.609 20.640,7.587 C20.652,7.587 20.663,7.587 20.674,7.587 C20.674,7.564 20.674,7.541 20.674,7.519 C20.686,7.519 20.697,7.519 20.709,7.519 C20.709,7.496 20.709,7.473 20.709,7.450 C20.731,7.439 20.754,7.428 20.777,7.416 C20.800,7.348 20.822,7.280 20.845,7.212 C20.868,7.200 20.891,7.189 20.914,7.178 C20.925,7.132 20.936,7.087 20.948,7.041 C20.971,7.030 20.993,7.018 21.016,7.007 C21.016,6.984 21.016,6.962 21.016,6.939 C21.028,6.939 21.039,6.939 21.050,6.939 C21.050,6.916 21.050,6.893 21.050,6.871 C21.073,6.859 21.096,6.848 21.119,6.837 C21.119,6.814 21.119,6.791 21.119,6.768 C21.142,6.757 21.164,6.746 21.187,6.734 C21.187,6.712 21.187,6.689 21.187,6.666 C21.210,6.655 21.233,6.643 21.256,6.632 C21.256,6.609 21.256,6.587 21.256,6.564 C21.278,6.552 21.301,6.541 21.324,6.530 C21.324,6.507 21.324,6.484 21.324,6.462 C21.347,6.450 21.370,6.439 21.392,6.427 C21.392,6.405 21.392,6.382 21.392,6.359 C21.415,6.348 21.438,6.336 21.461,6.325 C21.461,6.302 21.461,6.280 21.461,6.257 C21.495,6.234 21.529,6.211 21.563,6.189 C21.563,6.166 21.563,6.143 21.563,6.121 C21.586,6.109 21.609,6.098 21.632,6.086 C21.632,6.064 21.632,6.041 21.632,6.018 C21.677,5.984 21.723,5.950 21.768,5.916 C21.768,5.893 21.768,5.870 21.768,5.848 C21.803,5.825 21.837,5.802 21.871,5.780 C21.871,5.757 21.871,5.734 21.871,5.711 C21.917,5.677 21.962,5.643 22.008,5.609 C22.008,5.586 22.008,5.564 22.008,5.541 C22.053,5.507 22.099,5.473 22.145,5.439 C22.145,5.416 22.145,5.393 22.145,5.370 C22.213,5.314 22.281,5.257 22.350,5.200 C22.350,5.177 22.350,5.154 22.350,5.132 C22.372,5.120 22.395,5.109 22.418,5.098 C22.452,5.052 22.486,5.007 22.521,4.961 C22.589,4.904 22.657,4.848 22.726,4.791 C22.726,4.768 22.726,4.745 22.726,4.723 C22.783,4.677 22.840,4.632 22.897,4.586 C22.999,4.472 23.102,4.359 23.204,4.245 C23.227,4.245 23.250,4.245 23.273,4.245 C23.387,4.120 23.501,3.995 23.615,3.870 C23.637,3.870 23.660,3.870 23.683,3.870 C23.740,3.802 23.797,3.734 23.854,3.666 C23.877,3.666 23.900,3.666 23.922,3.666 C23.968,3.609 24.014,3.552 24.059,3.495 C24.082,3.495 24.105,3.495 24.128,3.495 C24.162,3.450 24.196,3.404 24.230,3.359 C24.253,3.359 24.276,3.359 24.298,3.359 C24.321,3.325 24.344,3.290 24.367,3.256 C24.390,3.256 24.412,3.256 24.435,3.256 C24.458,3.222 24.481,3.188 24.504,3.154 C24.526,3.154 24.549,3.154 24.572,3.154 C24.595,3.120 24.618,3.086 24.640,3.052 C24.663,3.052 24.686,3.052 24.709,3.052 C24.732,3.018 24.754,2.984 24.777,2.949 C24.800,2.949 24.823,2.949 24.846,2.949 C24.857,2.927 24.868,2.904 24.880,2.881 C24.914,2.870 24.948,2.859 24.982,2.847 C24.982,2.836 24.982,2.824 24.982,2.813 C25.005,2.813 25.028,2.813 25.051,2.813 C25.062,2.790 25.073,2.768 25.085,2.745 C25.108,2.745 25.130,2.745 25.153,2.745 C25.165,2.722 25.176,2.699 25.187,2.677 C25.210,2.677 25.233,2.677 25.256,2.677 C25.267,2.654 25.279,2.631 25.290,2.608 C25.313,2.608 25.336,2.608 25.358,2.608 C25.370,2.586 25.381,2.563 25.393,2.540 C25.415,2.540 25.438,2.540 25.461,2.540 C25.472,2.518 25.484,2.495 25.495,2.472 C25.518,2.472 25.541,2.472 25.564,2.472 C25.575,2.449 25.586,2.427 25.598,2.404 C25.643,2.393 25.689,2.381 25.734,2.370 C25.746,2.347 25.757,2.324 25.769,2.302 C25.814,2.290 25.860,2.279 25.905,2.268 C25.917,2.245 25.928,2.222 25.940,2.199 C26.008,2.177 26.076,2.154 26.145,2.131 C26.156,2.108 26.168,2.086 26.179,2.063 C26.202,2.063 26.225,2.063 26.247,2.063 C26.247,2.052 26.247,2.040 26.247,2.029 C26.270,2.029 26.293,2.029 26.316,2.029 C26.316,2.017 26.316,2.006 26.316,1.995 C26.339,1.995 26.361,1.995 26.384,1.995 C26.384,1.983 26.384,1.972 26.384,1.961 C26.407,1.961 26.430,1.961 26.452,1.961 C26.464,1.938 26.475,1.915 26.487,1.892 C26.509,1.892 26.532,1.892 26.555,1.892 C26.555,1.881 26.555,1.870 26.555,1.858 C26.578,1.858 26.601,1.858 26.623,1.858 C26.623,1.847 26.623,1.836 26.623,1.824 C26.646,1.824 26.669,1.824 26.692,1.824 C26.692,1.813 26.692,1.801 26.692,1.790 C26.715,1.790 26.737,1.790 26.760,1.790 C26.760,1.779 26.760,1.767 26.760,1.756 C26.783,1.756 26.806,1.756 26.829,1.756 C26.829,1.745 26.829,1.733 26.829,1.722 C26.851,1.722 26.874,1.722 26.897,1.722 C26.897,1.711 26.897,1.699 26.897,1.688 C26.920,1.688 26.943,1.688 26.965,1.688 C26.965,1.676 26.965,1.665 26.965,1.654 C26.988,1.654 27.011,1.654 27.034,1.654 C27.034,1.642 27.034,1.631 27.034,1.620 C27.102,1.597 27.170,1.574 27.239,1.551 C27.239,1.540 27.239,1.529 27.239,1.517 C27.273,1.517 27.307,1.517 27.341,1.517 C27.341,1.506 27.341,1.495 27.341,1.483 C27.364,1.483 27.387,1.483 27.410,1.483 C27.410,1.472 27.410,1.461 27.410,1.449 C27.433,1.449 27.455,1.449 27.478,1.449 C27.478,1.438 27.478,1.426 27.478,1.415 C27.524,1.404 27.569,1.392 27.615,1.381 C27.615,1.370 27.615,1.358 27.615,1.347 C27.649,1.347 27.683,1.347 27.718,1.347 C27.718,1.335 27.718,1.324 27.718,1.313 C27.763,1.301 27.809,1.290 27.854,1.279 C27.854,1.267 27.854,1.256 27.854,1.245 C27.888,1.245 27.923,1.245 27.957,1.245 C27.957,1.233 27.957,1.222 27.957,1.210 C27.980,1.210 28.002,1.210 28.025,1.210 C28.025,1.199 28.025,1.188 28.025,1.176 C28.082,1.165 28.139,1.154 28.196,1.142 C28.196,1.131 28.196,1.120 28.196,1.108 C28.230,1.108 28.265,1.108 28.299,1.108 C28.299,1.097 28.299,1.085 28.299,1.074 C28.322,1.074 28.344,1.074 28.367,1.074 C28.367,1.063 28.367,1.051 28.367,1.040 C28.891,0.870 29.416,0.699 29.940,0.529 C30.031,0.517 30.122,0.506 30.213,0.494 C30.213,0.483 30.213,0.472 30.213,0.460 C30.259,0.460 30.305,0.460 30.350,0.460 C30.350,0.449 30.350,0.438 30.350,0.426 C30.396,0.426 30.441,0.426 30.487,0.426 C30.487,0.415 30.487,0.403 30.487,0.392 C30.532,0.392 30.578,0.392 30.624,0.392 C30.624,0.381 30.624,0.369 30.624,0.358 C30.669,0.358 30.715,0.358 30.760,0.358 C30.760,0.347 30.760,0.335 30.760,0.324 C30.817,0.324 30.874,0.324 30.931,0.324 C30.931,0.313 30.931,0.301 30.931,0.290 C30.977,0.290 31.023,0.290 31.068,0.290 C31.068,0.278 31.068,0.267 31.068,0.256 C31.125,0.256 31.182,0.256 31.239,0.256 C31.239,0.244 31.239,0.233 31.239,0.222 C31.296,0.222 31.353,0.222 31.410,0.222 C31.410,0.210 31.410,0.199 31.410,0.188 C31.478,0.188 31.547,0.188 31.615,0.188 C31.615,0.176 31.615,0.165 31.615,0.153 C31.684,0.153 31.752,0.153 31.820,0.153 C31.820,0.142 31.820,0.131 31.820,0.119 C31.889,0.119 31.957,0.119 32.025,0.119 C32.025,0.108 32.025,0.097 32.025,0.085 C32.105,0.085 32.185,0.085 32.265,0.085 C32.508,0.015 32.828,-0.026 33.085,0.017 C33.147,0.123 33.187,0.133 33.188,0.324 C33.272,0.420 33.214,0.589 33.256,0.733 C33.268,0.733 33.279,0.733 33.290,0.733 C33.290,0.813 33.290,0.892 33.290,0.972 C33.362,1.216 33.391,1.546 33.461,1.790 C33.461,1.870 33.461,1.949 33.461,2.029 C33.473,2.029 33.484,2.029 33.496,2.029 C33.496,2.097 33.496,2.165 33.496,2.233 C33.507,2.233 33.518,2.233 33.530,2.233 C33.530,2.302 33.530,2.370 33.530,2.438 C33.594,2.655 33.611,2.710 33.530,2.915 C33.275,3.023 32.966,3.121 32.709,3.222 C32.607,3.245 32.504,3.268 32.402,3.290 C32.402,3.302 32.402,3.313 32.402,3.325 C32.379,3.325 32.356,3.325 32.333,3.325 C32.333,3.336 32.333,3.347 32.333,3.359 C32.299,3.359 32.265,3.359 32.231,3.359 C32.231,3.370 32.231,3.381 32.231,3.393 C32.174,3.404 32.117,3.415 32.060,3.427 C32.060,3.438 32.060,3.450 32.060,3.461 C32.037,3.461 32.014,3.461 31.991,3.461 C31.991,3.472 31.991,3.484 31.991,3.495 C31.957,3.495 31.923,3.495 31.889,3.495 C31.889,3.506 31.889,3.518 31.889,3.529 C31.820,3.552 31.752,3.575 31.684,3.597 C31.684,3.609 31.684,3.620 31.684,3.631 C31.661,3.631 31.638,3.631 31.615,3.631 C31.615,3.643 31.615,3.654 31.615,3.666 C31.592,3.666 31.570,3.666 31.547,3.666 C31.547,3.677 31.547,3.688 31.547,3.700 C31.524,3.700 31.501,3.700 31.478,3.700 C31.478,3.711 31.478,3.722 31.478,3.734 C31.456,3.734 31.433,3.734 31.410,3.734 C31.410,3.745 31.410,3.756 31.410,3.768 C31.387,3.768 31.364,3.768 31.342,3.768 C31.342,3.779 31.342,3.791 31.342,3.802 C31.319,3.802 31.296,3.802 31.273,3.802 C31.273,3.813 31.273,3.825 31.273,3.836 C31.250,3.836 31.228,3.836 31.205,3.836 C31.205,3.847 31.205,3.859 31.205,3.870 C31.182,3.870 31.159,3.870 31.137,3.870 C31.137,3.881 31.137,3.893 31.137,3.904 C31.114,3.904 31.091,3.904 31.068,3.904 C31.057,3.927 31.045,3.950 31.034,3.972 C30.966,3.995 30.897,4.018 30.829,4.041 C30.817,4.063 30.806,4.086 30.795,4.109 C30.772,4.109 30.749,4.109 30.726,4.109 C30.715,4.132 30.703,4.154 30.692,4.177 C30.669,4.177 30.646,4.177 30.624,4.177 C30.612,4.200 30.601,4.222 30.589,4.245 C30.567,4.245 30.544,4.245 30.521,4.245 C30.510,4.268 30.498,4.291 30.487,4.313 C30.464,4.313 30.441,4.313 30.419,4.313 C30.396,4.347 30.373,4.382 30.350,4.416 C30.327,4.416 30.305,4.416 30.282,4.416 C30.248,4.461 30.213,4.507 30.179,4.552 C30.156,4.552 30.134,4.552 30.111,4.552 C30.065,4.609 30.020,4.666 29.974,4.723 C29.951,4.723 29.928,4.723 29.906,4.723 C29.792,4.848 29.678,4.973 29.564,5.098 C29.495,5.154 29.427,5.211 29.359,5.268 C29.359,5.291 29.359,5.314 29.359,5.336 C29.302,5.382 29.245,5.427 29.188,5.473 C29.188,5.495 29.188,5.518 29.188,5.541 C29.153,5.564 29.119,5.586 29.085,5.609 C29.085,5.632 29.085,5.655 29.085,5.677 C29.051,5.700 29.017,5.723 28.983,5.745 C28.983,5.768 28.983,5.791 28.983,5.814 C28.960,5.825 28.937,5.836 28.914,5.848 C28.914,5.870 28.914,5.893 28.914,5.916 C28.891,5.927 28.869,5.939 28.846,5.950 C28.834,5.984 28.823,6.018 28.812,6.052 C28.800,6.052 28.789,6.052 28.777,6.052 C28.766,6.098 28.755,6.143 28.743,6.189 C28.720,6.200 28.698,6.211 28.675,6.223 C28.663,6.268 28.652,6.314 28.641,6.359 C28.618,6.371 28.595,6.382 28.572,6.393 C28.549,6.462 28.527,6.530 28.504,6.598 C28.492,6.598 28.481,6.598 28.470,6.598 C28.470,6.621 28.470,6.643 28.470,6.666 C28.458,6.666 28.447,6.666 28.435,6.666 C28.413,6.734 28.390,6.803 28.367,6.871 C28.356,6.871 28.344,6.871 28.333,6.871 C28.322,6.928 28.310,6.984 28.299,7.041 C28.287,7.041 28.276,7.041 28.265,7.041 C28.265,7.064 28.265,7.087 28.265,7.109 C28.253,7.109 28.242,7.109 28.230,7.109 C28.230,7.143 28.230,7.178 28.230,7.212 C28.219,7.212 28.208,7.212 28.196,7.212 C28.196,7.234 28.196,7.257 28.196,7.280 C28.185,7.280 28.173,7.280 28.162,7.280 C28.151,7.348 28.139,7.416 28.128,7.484 C28.116,7.484 28.105,7.484 28.094,7.484 C28.094,7.507 28.094,7.530 28.094,7.553 C28.082,7.553 28.071,7.553 28.059,7.553 C28.059,7.587 28.059,7.621 28.059,7.655 C27.993,7.821 27.909,8.025 27.888,8.235 Z"/>
</svg>