<svg 
 xmlns="http://www.w3.org/2000/svg"
 xmlns:xlink="http://www.w3.org/1999/xlink"
 width="12px" height="19px">
<path fill-rule="evenodd"  fill="rgb(255, 196, 99)"
 d="M10.401,0.416 C10.934,0.416 11.467,0.416 12.000,0.416 C12.000,3.735 12.000,7.054 12.000,10.373 C12.000,11.296 12.000,12.219 12.000,13.142 C12.000,13.380 12.000,13.618 12.000,13.857 C11.996,13.857 11.992,13.857 11.987,13.857 C11.987,13.935 11.987,14.013 11.987,14.091 C11.983,14.091 11.979,14.091 11.975,14.091 C11.975,14.138 11.975,14.186 11.975,14.234 C11.971,14.234 11.966,14.234 11.962,14.234 C11.962,14.273 11.962,14.312 11.962,14.351 C11.958,14.351 11.954,14.351 11.950,14.351 C11.950,14.385 11.950,14.420 11.950,14.455 C11.945,14.455 11.941,14.455 11.937,14.455 C11.937,14.485 11.937,14.515 11.937,14.546 C11.919,14.609 11.905,14.704 11.887,14.766 C11.887,14.788 11.887,14.810 11.887,14.831 C11.882,14.831 11.878,14.831 11.874,14.831 C11.874,14.853 11.874,14.875 11.874,14.896 C11.870,14.896 11.866,14.896 11.861,14.896 C11.861,14.914 11.861,14.931 11.861,14.948 C11.857,14.948 11.853,14.948 11.849,14.948 C11.849,14.970 11.849,14.992 11.849,15.013 C11.845,15.013 11.841,15.013 11.836,15.013 C11.836,15.031 11.836,15.048 11.836,15.065 C11.832,15.065 11.828,15.065 11.824,15.065 C11.824,15.083 11.824,15.100 11.824,15.117 C11.820,15.117 11.815,15.117 11.811,15.117 C11.803,15.165 11.794,15.213 11.786,15.260 C11.782,15.260 11.778,15.260 11.773,15.260 C11.773,15.273 11.773,15.286 11.773,15.299 C11.769,15.299 11.765,15.299 11.761,15.299 C11.761,15.312 11.761,15.325 11.761,15.338 C11.757,15.338 11.752,15.338 11.748,15.338 C11.748,15.351 11.748,15.364 11.748,15.377 C11.744,15.377 11.740,15.377 11.736,15.377 C11.723,15.434 11.710,15.490 11.698,15.546 C11.694,15.546 11.689,15.546 11.685,15.546 C11.685,15.555 11.685,15.564 11.685,15.572 C11.681,15.572 11.677,15.572 11.673,15.572 C11.668,15.598 11.664,15.624 11.660,15.650 C11.656,15.650 11.652,15.650 11.647,15.650 C11.647,15.659 11.647,15.668 11.647,15.676 C11.643,15.676 11.639,15.676 11.635,15.676 C11.635,15.689 11.635,15.702 11.635,15.715 C11.631,15.715 11.626,15.715 11.622,15.715 C11.622,15.728 11.622,15.741 11.622,15.754 C11.618,15.754 11.614,15.754 11.610,15.754 C11.605,15.772 11.601,15.789 11.597,15.806 C11.593,15.806 11.589,15.806 11.584,15.806 C11.584,15.819 11.584,15.832 11.584,15.845 C11.580,15.845 11.576,15.845 11.572,15.845 C11.568,15.863 11.563,15.880 11.559,15.897 C11.555,15.897 11.551,15.897 11.547,15.897 C11.547,15.910 11.547,15.923 11.547,15.936 C11.542,15.936 11.538,15.936 11.534,15.936 C11.526,15.962 11.517,15.988 11.509,16.014 C11.505,16.014 11.501,16.014 11.496,16.014 C11.496,16.023 11.496,16.032 11.496,16.040 C11.492,16.040 11.488,16.040 11.484,16.040 C11.484,16.049 11.484,16.058 11.484,16.066 C11.480,16.066 11.475,16.066 11.471,16.066 C11.471,16.075 11.471,16.084 11.471,16.092 C11.467,16.092 11.463,16.092 11.459,16.092 C11.454,16.114 11.450,16.136 11.446,16.157 C11.438,16.162 11.429,16.166 11.421,16.170 C11.421,16.179 11.421,16.188 11.421,16.196 C11.417,16.196 11.412,16.196 11.408,16.196 C11.408,16.205 11.408,16.214 11.408,16.222 C11.404,16.222 11.400,16.222 11.396,16.222 C11.396,16.231 11.396,16.240 11.396,16.248 C11.391,16.248 11.387,16.248 11.383,16.248 C11.383,16.257 11.383,16.266 11.383,16.274 C11.379,16.274 11.375,16.274 11.370,16.274 C11.370,16.283 11.370,16.292 11.370,16.300 C11.366,16.300 11.362,16.300 11.358,16.300 C11.358,16.309 11.358,16.318 11.358,16.326 C11.349,16.331 11.341,16.335 11.333,16.339 C11.324,16.365 11.316,16.391 11.307,16.417 C11.299,16.422 11.291,16.426 11.282,16.430 C11.278,16.448 11.274,16.465 11.270,16.482 C11.261,16.487 11.253,16.491 11.244,16.495 C11.240,16.513 11.236,16.530 11.232,16.547 C11.228,16.547 11.224,16.547 11.219,16.547 C11.215,16.560 11.211,16.573 11.207,16.586 C11.198,16.591 11.190,16.595 11.182,16.599 C11.182,16.608 11.182,16.617 11.182,16.625 C11.173,16.630 11.165,16.634 11.156,16.638 C11.156,16.647 11.156,16.656 11.156,16.664 C11.148,16.669 11.140,16.673 11.131,16.677 C11.131,16.686 11.131,16.695 11.131,16.703 C11.127,16.703 11.123,16.703 11.119,16.703 C11.114,16.716 11.110,16.729 11.106,16.742 C11.098,16.747 11.089,16.751 11.081,16.755 C11.081,16.764 11.081,16.773 11.081,16.781 C11.072,16.786 11.064,16.790 11.056,16.794 C11.051,16.807 11.047,16.820 11.043,16.833 C11.030,16.842 11.018,16.851 11.005,16.859 C11.005,16.868 11.005,16.877 11.005,16.885 C10.993,16.894 10.980,16.903 10.967,16.911 C10.967,16.920 10.967,16.929 10.967,16.937 C10.959,16.942 10.951,16.946 10.942,16.950 C10.942,16.955 10.942,16.959 10.942,16.963 C10.934,16.968 10.925,16.972 10.917,16.976 C10.917,16.985 10.917,16.994 10.917,17.002 C10.900,17.015 10.884,17.028 10.867,17.041 C10.867,17.050 10.867,17.059 10.867,17.067 C10.842,17.089 10.816,17.111 10.791,17.132 C10.791,17.141 10.791,17.150 10.791,17.158 C10.741,17.206 10.690,17.254 10.640,17.301 C10.640,17.310 10.640,17.319 10.640,17.327 C10.632,17.332 10.623,17.336 10.615,17.340 C10.590,17.371 10.565,17.401 10.539,17.431 C10.531,17.431 10.523,17.431 10.514,17.431 C10.472,17.479 10.430,17.527 10.388,17.574 C10.380,17.574 10.371,17.574 10.363,17.574 C10.342,17.600 10.321,17.626 10.300,17.652 C10.292,17.652 10.283,17.652 10.275,17.652 C10.271,17.661 10.267,17.670 10.262,17.678 C10.258,17.678 10.254,17.678 10.250,17.678 C10.241,17.691 10.233,17.704 10.225,17.717 C10.216,17.717 10.208,17.717 10.199,17.717 C10.195,17.726 10.191,17.735 10.187,17.743 C10.174,17.748 10.162,17.752 10.149,17.756 C10.136,17.774 10.124,17.791 10.111,17.808 C10.103,17.808 10.094,17.808 10.086,17.808 C10.082,17.817 10.078,17.826 10.073,17.834 C10.065,17.834 10.057,17.834 10.048,17.834 C10.040,17.847 10.031,17.860 10.023,17.873 C10.015,17.873 10.006,17.873 9.998,17.873 C9.990,17.886 9.981,17.899 9.973,17.912 C9.964,17.912 9.956,17.912 9.948,17.912 C9.943,17.921 9.939,17.930 9.935,17.938 C9.922,17.943 9.910,17.947 9.897,17.951 C9.897,17.956 9.897,17.960 9.897,17.964 C9.889,17.964 9.880,17.964 9.872,17.964 C9.868,17.973 9.864,17.982 9.859,17.990 C9.851,17.990 9.843,17.990 9.834,17.990 C9.830,17.999 9.826,18.007 9.822,18.016 C9.813,18.016 9.805,18.016 9.796,18.016 C9.792,18.025 9.788,18.033 9.784,18.042 C9.767,18.046 9.750,18.051 9.733,18.055 C9.729,18.064 9.725,18.072 9.721,18.081 C9.704,18.085 9.687,18.090 9.671,18.094 C9.666,18.103 9.662,18.111 9.658,18.120 C9.650,18.120 9.641,18.120 9.633,18.120 C9.633,18.124 9.633,18.129 9.633,18.133 C9.624,18.133 9.616,18.133 9.608,18.133 C9.603,18.142 9.599,18.150 9.595,18.159 C9.570,18.168 9.545,18.176 9.519,18.185 C9.515,18.194 9.511,18.202 9.507,18.211 C9.498,18.211 9.490,18.211 9.482,18.211 C9.482,18.215 9.482,18.220 9.482,18.224 C9.473,18.224 9.465,18.224 9.456,18.224 C9.456,18.228 9.456,18.233 9.456,18.237 C9.448,18.237 9.440,18.237 9.431,18.237 C9.431,18.241 9.431,18.246 9.431,18.250 C9.423,18.250 9.414,18.250 9.406,18.250 C9.406,18.254 9.406,18.259 9.406,18.263 C9.398,18.263 9.389,18.263 9.381,18.263 C9.381,18.267 9.381,18.272 9.381,18.276 C9.373,18.276 9.364,18.276 9.356,18.276 C9.356,18.280 9.356,18.285 9.356,18.289 C9.347,18.289 9.339,18.289 9.331,18.289 C9.331,18.293 9.331,18.298 9.331,18.302 C9.322,18.302 9.314,18.302 9.305,18.302 C9.305,18.306 9.305,18.311 9.305,18.315 C9.297,18.315 9.289,18.315 9.280,18.315 C9.280,18.319 9.280,18.324 9.280,18.328 C9.272,18.328 9.263,18.328 9.255,18.328 C9.255,18.332 9.255,18.337 9.255,18.341 C9.247,18.341 9.238,18.341 9.230,18.341 C9.230,18.345 9.230,18.350 9.230,18.354 C9.213,18.358 9.196,18.363 9.179,18.367 C9.179,18.371 9.179,18.376 9.179,18.380 C9.171,18.380 9.163,18.380 9.154,18.380 C9.154,18.384 9.154,18.389 9.154,18.393 C9.142,18.393 9.129,18.393 9.116,18.393 C9.116,18.397 9.116,18.402 9.116,18.406 C9.108,18.406 9.100,18.406 9.091,18.406 C9.091,18.410 9.091,18.415 9.091,18.419 C9.075,18.423 9.058,18.428 9.041,18.432 C9.041,18.436 9.041,18.441 9.041,18.445 C9.028,18.445 9.016,18.445 9.003,18.445 C9.003,18.449 9.003,18.454 9.003,18.458 C8.995,18.458 8.986,18.458 8.978,18.458 C8.978,18.462 8.978,18.467 8.978,18.471 C8.965,18.471 8.953,18.471 8.940,18.471 C8.940,18.475 8.940,18.480 8.940,18.484 C8.932,18.484 8.923,18.484 8.915,18.484 C8.915,18.488 8.915,18.493 8.915,18.497 C8.894,18.501 8.873,18.506 8.852,18.510 C8.852,18.514 8.852,18.519 8.852,18.523 C8.839,18.523 8.827,18.523 8.814,18.523 C8.814,18.527 8.814,18.532 8.814,18.536 C8.806,18.536 8.797,18.536 8.789,18.536 C8.789,18.540 8.789,18.545 8.789,18.549 C8.764,18.553 8.739,18.558 8.714,18.562 C8.714,18.566 8.714,18.571 8.714,18.575 C8.705,18.575 8.697,18.575 8.688,18.575 C8.688,18.579 8.688,18.584 8.688,18.588 C8.474,18.653 8.260,18.718 8.046,18.783 C7.824,18.826 7.601,18.870 7.379,18.913 C7.274,18.922 7.169,18.930 7.064,18.939 C7.064,18.943 7.064,18.948 7.064,18.952 C6.938,18.961 6.812,18.969 6.686,18.978 C6.611,18.978 6.535,18.978 6.460,18.978 C6.359,19.007 6.056,19.007 5.956,18.978 C5.805,18.974 5.654,18.969 5.503,18.965 C5.503,18.961 5.503,18.956 5.503,18.952 C5.456,18.952 5.410,18.952 5.364,18.952 C5.364,18.948 5.364,18.943 5.364,18.939 C5.331,18.939 5.297,18.939 5.263,18.939 C5.033,18.900 4.802,18.861 4.571,18.822 C4.571,18.818 4.571,18.813 4.571,18.809 C4.533,18.805 4.495,18.800 4.458,18.796 C4.458,18.792 4.458,18.787 4.458,18.783 C4.441,18.783 4.424,18.783 4.407,18.783 C4.407,18.779 4.407,18.774 4.407,18.770 C4.390,18.770 4.374,18.770 4.357,18.770 C4.357,18.766 4.357,18.761 4.357,18.757 C4.340,18.757 4.323,18.757 4.306,18.757 C4.306,18.753 4.306,18.748 4.306,18.744 C4.290,18.744 4.273,18.744 4.256,18.744 C4.256,18.740 4.256,18.735 4.256,18.731 C4.243,18.731 4.231,18.731 4.218,18.731 C4.218,18.727 4.218,18.722 4.218,18.718 C4.185,18.714 4.151,18.709 4.118,18.705 C4.118,18.701 4.118,18.696 4.118,18.692 C4.076,18.683 4.034,18.675 3.992,18.666 C3.992,18.662 3.992,18.657 3.992,18.653 C3.979,18.653 3.966,18.653 3.954,18.653 C3.954,18.649 3.954,18.644 3.954,18.640 C3.941,18.640 3.929,18.640 3.916,18.640 C3.916,18.636 3.916,18.631 3.916,18.627 C3.903,18.627 3.891,18.627 3.878,18.627 C3.878,18.623 3.878,18.618 3.878,18.614 C3.866,18.614 3.853,18.614 3.841,18.614 C3.841,18.610 3.841,18.605 3.841,18.601 C3.815,18.597 3.790,18.592 3.765,18.588 C3.765,18.584 3.765,18.579 3.765,18.575 C3.757,18.575 3.748,18.575 3.740,18.575 C3.740,18.571 3.740,18.566 3.740,18.562 C3.715,18.558 3.689,18.553 3.664,18.549 C3.664,18.545 3.664,18.540 3.664,18.536 C3.656,18.536 3.647,18.536 3.639,18.536 C3.639,18.532 3.639,18.527 3.639,18.523 C3.614,18.519 3.589,18.514 3.563,18.510 C3.563,18.506 3.563,18.501 3.563,18.497 C3.555,18.497 3.547,18.497 3.538,18.497 C3.538,18.493 3.538,18.488 3.538,18.484 C3.496,18.471 3.454,18.458 3.412,18.445 C3.412,18.441 3.412,18.436 3.412,18.432 C3.396,18.428 3.379,18.423 3.362,18.419 C3.362,18.415 3.362,18.410 3.362,18.406 C3.349,18.406 3.337,18.406 3.324,18.406 C3.324,18.402 3.324,18.397 3.324,18.393 C3.299,18.384 3.274,18.376 3.249,18.367 C3.249,18.363 3.249,18.358 3.249,18.354 C3.240,18.354 3.232,18.354 3.224,18.354 C3.224,18.350 3.224,18.345 3.224,18.341 C3.215,18.341 3.207,18.341 3.198,18.341 C3.198,18.337 3.198,18.332 3.198,18.328 C3.182,18.324 3.165,18.319 3.148,18.315 C3.148,18.311 3.148,18.306 3.148,18.302 C3.135,18.302 3.123,18.302 3.110,18.302 C3.110,18.298 3.110,18.293 3.110,18.289 C3.102,18.289 3.093,18.289 3.085,18.289 C3.081,18.280 3.077,18.272 3.072,18.263 C3.056,18.259 3.039,18.254 3.022,18.250 C3.022,18.246 3.022,18.241 3.022,18.237 C3.014,18.237 3.005,18.237 2.997,18.237 C2.997,18.233 2.997,18.228 2.997,18.224 C2.988,18.224 2.980,18.224 2.972,18.224 C2.972,18.220 2.972,18.215 2.972,18.211 C2.963,18.211 2.955,18.211 2.946,18.211 C2.946,18.207 2.946,18.202 2.946,18.198 C2.938,18.198 2.930,18.198 2.921,18.198 C2.921,18.194 2.921,18.189 2.921,18.185 C2.913,18.185 2.905,18.185 2.896,18.185 C2.892,18.176 2.888,18.168 2.884,18.159 C2.858,18.150 2.833,18.142 2.808,18.133 C2.804,18.124 2.800,18.116 2.795,18.107 C2.770,18.098 2.745,18.090 2.720,18.081 C2.720,18.077 2.720,18.072 2.720,18.068 C2.707,18.064 2.695,18.059 2.682,18.055 C2.678,18.046 2.674,18.038 2.669,18.029 C2.653,18.025 2.636,18.020 2.619,18.016 C2.615,18.007 2.611,17.999 2.607,17.990 C2.598,17.990 2.590,17.990 2.581,17.990 C2.577,17.982 2.573,17.973 2.569,17.964 C2.560,17.964 2.552,17.964 2.544,17.964 C2.544,17.960 2.544,17.956 2.544,17.951 C2.531,17.947 2.518,17.943 2.506,17.938 C2.502,17.930 2.497,17.921 2.493,17.912 C2.485,17.912 2.476,17.912 2.468,17.912 C2.468,17.908 2.468,17.904 2.468,17.899 C2.455,17.895 2.443,17.891 2.430,17.886 C2.426,17.878 2.422,17.869 2.418,17.860 C2.409,17.860 2.401,17.860 2.392,17.860 C2.384,17.847 2.376,17.834 2.367,17.821 C2.359,17.821 2.350,17.821 2.342,17.821 C2.338,17.813 2.334,17.804 2.329,17.795 C2.321,17.795 2.313,17.795 2.304,17.795 C2.292,17.778 2.279,17.761 2.267,17.743 C2.258,17.743 2.250,17.743 2.241,17.743 C2.233,17.730 2.225,17.717 2.216,17.704 C2.208,17.704 2.199,17.704 2.191,17.704 C2.178,17.687 2.166,17.670 2.153,17.652 C2.145,17.652 2.136,17.652 2.128,17.652 C2.115,17.635 2.103,17.618 2.090,17.600 C2.082,17.600 2.073,17.600 2.065,17.600 C2.044,17.574 2.023,17.548 2.002,17.522 C1.994,17.522 1.985,17.522 1.977,17.522 C1.943,17.483 1.910,17.444 1.876,17.405 C1.868,17.405 1.859,17.405 1.851,17.405 C1.822,17.371 1.792,17.336 1.763,17.301 C1.717,17.258 1.671,17.215 1.624,17.171 C1.624,17.163 1.624,17.154 1.624,17.145 C1.616,17.141 1.608,17.137 1.599,17.132 C1.599,17.128 1.599,17.124 1.599,17.119 C1.570,17.093 1.540,17.067 1.511,17.041 C1.511,17.033 1.511,17.024 1.511,17.015 C1.490,16.998 1.469,16.981 1.448,16.963 C1.448,16.955 1.448,16.946 1.448,16.937 C1.427,16.920 1.406,16.903 1.385,16.885 C1.385,16.877 1.385,16.868 1.385,16.859 C1.368,16.846 1.352,16.833 1.335,16.820 C1.335,16.812 1.335,16.803 1.335,16.794 C1.322,16.786 1.310,16.777 1.297,16.768 C1.293,16.755 1.289,16.742 1.284,16.729 C1.276,16.725 1.268,16.721 1.259,16.716 C1.259,16.708 1.259,16.699 1.259,16.690 C1.255,16.690 1.251,16.690 1.247,16.690 C1.242,16.677 1.238,16.664 1.234,16.651 C1.226,16.647 1.217,16.643 1.209,16.638 C1.209,16.630 1.209,16.621 1.209,16.612 C1.196,16.604 1.184,16.595 1.171,16.586 C1.171,16.578 1.171,16.569 1.171,16.560 C1.163,16.556 1.154,16.552 1.146,16.547 C1.142,16.534 1.137,16.521 1.133,16.508 C1.129,16.508 1.125,16.508 1.121,16.508 C1.116,16.491 1.112,16.474 1.108,16.456 C1.104,16.456 1.100,16.456 1.095,16.456 C1.091,16.443 1.087,16.430 1.083,16.417 C1.075,16.413 1.066,16.409 1.058,16.404 C1.058,16.396 1.058,16.387 1.058,16.378 C1.054,16.378 1.049,16.378 1.045,16.378 C1.045,16.370 1.045,16.361 1.045,16.352 C1.037,16.348 1.028,16.344 1.020,16.339 C1.016,16.322 1.012,16.305 1.007,16.287 C0.999,16.283 0.991,16.279 0.982,16.274 C0.982,16.266 0.982,16.257 0.982,16.248 C0.978,16.248 0.974,16.248 0.970,16.248 C0.970,16.240 0.970,16.231 0.970,16.222 C0.965,16.222 0.961,16.222 0.957,16.222 C0.957,16.214 0.957,16.205 0.957,16.196 C0.953,16.196 0.949,16.196 0.944,16.196 C0.944,16.188 0.944,16.179 0.944,16.170 C0.936,16.166 0.928,16.162 0.919,16.157 C0.919,16.149 0.919,16.140 0.919,16.131 C0.915,16.131 0.911,16.131 0.907,16.131 C0.907,16.123 0.907,16.114 0.907,16.105 C0.902,16.105 0.898,16.105 0.894,16.105 C0.894,16.097 0.894,16.088 0.894,16.079 C0.890,16.079 0.886,16.079 0.881,16.079 C0.881,16.071 0.881,16.062 0.881,16.053 C0.877,16.053 0.873,16.053 0.869,16.053 C0.869,16.045 0.869,16.036 0.869,16.027 C0.865,16.027 0.860,16.027 0.856,16.027 C0.856,16.019 0.856,16.010 0.856,16.001 C0.852,16.001 0.848,16.001 0.844,16.001 C0.835,15.975 0.827,15.949 0.818,15.923 C0.814,15.923 0.810,15.923 0.806,15.923 C0.802,15.902 0.797,15.880 0.793,15.858 C0.789,15.858 0.785,15.858 0.781,15.858 C0.776,15.841 0.772,15.824 0.768,15.806 C0.764,15.806 0.760,15.806 0.756,15.806 C0.756,15.793 0.756,15.780 0.756,15.767 C0.751,15.767 0.747,15.767 0.743,15.767 C0.743,15.759 0.743,15.750 0.743,15.741 C0.739,15.741 0.735,15.741 0.730,15.741 C0.730,15.728 0.730,15.715 0.730,15.702 C0.533,15.248 0.409,14.687 0.403,14.039 C0.936,14.039 1.469,14.039 2.002,14.039 C1.996,14.370 2.056,14.717 2.141,14.961 C2.141,14.979 2.141,14.996 2.141,15.013 C2.145,15.013 2.149,15.013 2.153,15.013 C2.153,15.026 2.153,15.039 2.153,15.052 C2.157,15.052 2.162,15.052 2.166,15.052 C2.166,15.065 2.166,15.078 2.166,15.091 C2.170,15.091 2.174,15.091 2.178,15.091 C2.178,15.104 2.178,15.117 2.178,15.130 C2.183,15.130 2.187,15.130 2.191,15.130 C2.191,15.139 2.191,15.148 2.191,15.156 C2.195,15.156 2.199,15.156 2.204,15.156 C2.204,15.169 2.204,15.182 2.204,15.195 C2.208,15.195 2.212,15.195 2.216,15.195 C2.216,15.204 2.216,15.213 2.216,15.221 C2.220,15.221 2.225,15.221 2.229,15.221 C2.229,15.234 2.229,15.247 2.229,15.260 C2.233,15.260 2.237,15.260 2.241,15.260 C2.246,15.278 2.250,15.295 2.254,15.312 C2.258,15.312 2.262,15.312 2.267,15.312 C2.267,15.325 2.267,15.338 2.267,15.351 C2.271,15.351 2.275,15.351 2.279,15.351 C2.288,15.377 2.296,15.403 2.304,15.429 C2.308,15.429 2.313,15.429 2.317,15.429 C2.317,15.438 2.317,15.447 2.317,15.455 C2.321,15.455 2.325,15.455 2.329,15.455 C2.338,15.481 2.346,15.507 2.355,15.533 C2.363,15.538 2.371,15.542 2.380,15.546 C2.388,15.572 2.397,15.598 2.405,15.624 C2.413,15.629 2.422,15.633 2.430,15.637 C2.430,15.646 2.430,15.655 2.430,15.663 C2.434,15.663 2.439,15.663 2.443,15.663 C2.443,15.672 2.443,15.681 2.443,15.689 C2.447,15.689 2.451,15.689 2.455,15.689 C2.460,15.702 2.464,15.715 2.468,15.728 C2.476,15.733 2.485,15.737 2.493,15.741 C2.493,15.750 2.493,15.759 2.493,15.767 C2.502,15.772 2.510,15.776 2.518,15.780 C2.518,15.789 2.518,15.798 2.518,15.806 C2.531,15.815 2.544,15.824 2.556,15.832 C2.556,15.841 2.556,15.850 2.556,15.858 C2.565,15.863 2.573,15.867 2.581,15.871 C2.581,15.880 2.581,15.889 2.581,15.897 C2.598,15.910 2.615,15.923 2.632,15.936 C2.632,15.945 2.632,15.954 2.632,15.962 C2.653,15.980 2.674,15.997 2.695,16.014 C2.695,16.023 2.695,16.032 2.695,16.040 C2.703,16.045 2.711,16.049 2.720,16.053 C2.749,16.086 2.808,16.139 2.821,16.183 C2.829,16.183 2.837,16.183 2.846,16.183 C2.846,16.192 2.846,16.201 2.846,16.209 C2.888,16.220 2.953,16.296 2.984,16.326 C2.988,16.335 2.993,16.344 2.997,16.352 C3.005,16.352 3.014,16.352 3.022,16.352 C3.039,16.374 3.056,16.396 3.072,16.417 C3.081,16.417 3.089,16.417 3.098,16.417 C3.102,16.426 3.106,16.435 3.110,16.443 C3.114,16.443 3.119,16.443 3.123,16.443 C3.127,16.452 3.131,16.461 3.135,16.469 C3.144,16.469 3.152,16.469 3.161,16.469 C3.169,16.482 3.177,16.495 3.186,16.508 C3.194,16.508 3.203,16.508 3.211,16.508 C3.215,16.517 3.219,16.526 3.224,16.534 C3.232,16.534 3.240,16.534 3.249,16.534 C3.257,16.547 3.265,16.560 3.274,16.573 C3.282,16.573 3.291,16.573 3.299,16.573 C3.303,16.582 3.307,16.591 3.312,16.599 C3.324,16.604 3.337,16.608 3.349,16.612 C3.349,16.617 3.349,16.621 3.349,16.625 C3.366,16.630 3.383,16.634 3.400,16.638 C3.404,16.647 3.408,16.656 3.412,16.664 C3.429,16.669 3.446,16.673 3.463,16.677 C3.467,16.686 3.471,16.695 3.475,16.703 C3.492,16.708 3.509,16.712 3.526,16.716 C3.530,16.725 3.534,16.734 3.538,16.742 C3.547,16.742 3.555,16.742 3.563,16.742 C3.563,16.747 3.563,16.751 3.563,16.755 C3.572,16.755 3.580,16.755 3.589,16.755 C3.589,16.760 3.589,16.764 3.589,16.768 C3.597,16.768 3.605,16.768 3.614,16.768 C3.614,16.773 3.614,16.777 3.614,16.781 C3.622,16.781 3.631,16.781 3.639,16.781 C3.639,16.786 3.639,16.790 3.639,16.794 C3.647,16.794 3.656,16.794 3.664,16.794 C3.664,16.799 3.664,16.803 3.664,16.807 C3.673,16.807 3.681,16.807 3.689,16.807 C3.689,16.812 3.689,16.816 3.689,16.820 C3.698,16.820 3.706,16.820 3.715,16.820 C3.715,16.825 3.715,16.829 3.715,16.833 C3.723,16.833 3.731,16.833 3.740,16.833 C3.740,16.838 3.740,16.842 3.740,16.846 C3.748,16.846 3.757,16.846 3.765,16.846 C3.765,16.851 3.765,16.855 3.765,16.859 C3.790,16.868 3.815,16.877 3.841,16.885 C3.841,16.890 3.841,16.894 3.841,16.898 C3.853,16.898 3.866,16.898 3.878,16.898 C3.878,16.903 3.878,16.907 3.878,16.911 C3.895,16.916 3.912,16.920 3.929,16.924 C3.929,16.929 3.929,16.933 3.929,16.937 C3.941,16.937 3.954,16.937 3.966,16.937 C3.966,16.942 3.966,16.946 3.966,16.950 C3.975,16.950 3.983,16.950 3.992,16.950 C3.992,16.955 3.992,16.959 3.992,16.963 C4.004,16.963 4.017,16.963 4.029,16.963 C4.029,16.968 4.029,16.972 4.029,16.976 C4.038,16.976 4.046,16.976 4.055,16.976 C4.055,16.981 4.055,16.985 4.055,16.989 C4.092,16.998 4.130,17.007 4.168,17.015 C4.168,17.020 4.168,17.024 4.168,17.028 C4.180,17.028 4.193,17.028 4.206,17.028 C4.206,17.033 4.206,17.037 4.206,17.041 C4.218,17.041 4.231,17.041 4.243,17.041 C4.243,17.046 4.243,17.050 4.243,17.054 C4.256,17.054 4.269,17.054 4.281,17.054 C4.281,17.059 4.281,17.063 4.281,17.067 C4.294,17.067 4.306,17.067 4.319,17.067 C4.319,17.072 4.319,17.076 4.319,17.080 C4.332,17.080 4.344,17.080 4.357,17.080 C4.357,17.085 4.357,17.089 4.357,17.093 C4.369,17.093 4.382,17.093 4.395,17.093 C4.395,17.098 4.395,17.102 4.395,17.106 C4.428,17.111 4.462,17.115 4.495,17.119 C4.495,17.124 4.495,17.128 4.495,17.132 C4.508,17.132 4.520,17.132 4.533,17.132 C4.533,17.137 4.533,17.141 4.533,17.145 C4.550,17.145 4.567,17.145 4.583,17.145 C4.583,17.150 4.583,17.154 4.583,17.158 C4.600,17.158 4.617,17.158 4.634,17.158 C4.634,17.163 4.634,17.167 4.634,17.171 C4.672,17.176 4.709,17.180 4.747,17.184 C4.747,17.189 4.747,17.193 4.747,17.197 C4.961,17.232 5.175,17.267 5.389,17.301 C5.431,17.301 5.473,17.301 5.515,17.301 C5.515,17.306 5.515,17.310 5.515,17.314 C5.570,17.314 5.624,17.314 5.679,17.314 C5.679,17.319 5.679,17.323 5.679,17.327 C5.767,17.327 5.855,17.327 5.943,17.327 C6.043,17.356 6.347,17.357 6.447,17.327 C6.523,17.327 6.598,17.327 6.674,17.327 C6.698,17.325 6.699,17.314 6.699,17.314 C6.753,17.314 6.808,17.314 6.863,17.314 C6.863,17.310 6.863,17.306 6.863,17.301 C6.905,17.301 6.946,17.301 6.988,17.301 C6.988,17.297 6.988,17.293 6.988,17.288 C7.026,17.288 7.064,17.288 7.102,17.288 C7.197,17.260 7.324,17.252 7.417,17.223 C7.442,17.223 7.467,17.223 7.492,17.223 C7.492,17.219 7.492,17.215 7.492,17.210 C7.509,17.210 7.526,17.210 7.542,17.210 C7.542,17.206 7.542,17.202 7.542,17.197 C7.580,17.193 7.618,17.189 7.656,17.184 C7.656,17.180 7.656,17.176 7.656,17.171 C7.694,17.167 7.731,17.163 7.769,17.158 C7.769,17.154 7.769,17.150 7.769,17.145 C7.815,17.137 7.861,17.128 7.908,17.119 C7.908,17.115 7.908,17.111 7.908,17.106 C7.920,17.106 7.933,17.106 7.945,17.106 C7.945,17.102 7.945,17.098 7.945,17.093 C7.958,17.093 7.971,17.093 7.983,17.093 C7.983,17.089 7.983,17.085 7.983,17.080 C7.996,17.080 8.008,17.080 8.021,17.080 C8.021,17.076 8.021,17.072 8.021,17.067 C8.034,17.067 8.046,17.067 8.059,17.067 C8.059,17.063 8.059,17.059 8.059,17.054 C8.071,17.054 8.084,17.054 8.097,17.054 C8.097,17.050 8.097,17.046 8.097,17.041 C8.109,17.041 8.122,17.041 8.134,17.041 C8.134,17.037 8.134,17.033 8.134,17.028 C8.172,17.020 8.210,17.011 8.248,17.002 C8.248,16.998 8.248,16.994 8.248,16.989 C8.256,16.989 8.264,16.989 8.273,16.989 C8.273,16.985 8.273,16.981 8.273,16.976 C8.285,16.976 8.298,16.976 8.311,16.976 C8.311,16.972 8.311,16.968 8.311,16.963 C8.327,16.959 8.344,16.955 8.361,16.950 C8.361,16.946 8.361,16.942 8.361,16.937 C8.374,16.937 8.386,16.937 8.399,16.937 C8.399,16.933 8.399,16.929 8.399,16.924 C8.407,16.924 8.416,16.924 8.424,16.924 C8.424,16.920 8.424,16.916 8.424,16.911 C8.445,16.907 8.466,16.903 8.487,16.898 C8.487,16.894 8.487,16.890 8.487,16.885 C8.512,16.877 8.537,16.868 8.562,16.859 C8.562,16.855 8.562,16.851 8.562,16.846 C8.571,16.846 8.579,16.846 8.588,16.846 C8.588,16.842 8.588,16.838 8.588,16.833 C8.596,16.833 8.604,16.833 8.613,16.833 C8.613,16.829 8.613,16.825 8.613,16.820 C8.621,16.820 8.630,16.820 8.638,16.820 C8.638,16.816 8.638,16.812 8.638,16.807 C8.646,16.807 8.655,16.807 8.663,16.807 C8.663,16.803 8.663,16.799 8.663,16.794 C8.672,16.794 8.680,16.794 8.688,16.794 C8.688,16.790 8.688,16.786 8.688,16.781 C8.697,16.781 8.705,16.781 8.714,16.781 C8.718,16.773 8.722,16.764 8.726,16.755 C8.751,16.747 8.776,16.738 8.802,16.729 C8.806,16.721 8.810,16.712 8.814,16.703 C8.831,16.699 8.848,16.695 8.865,16.690 C8.865,16.686 8.865,16.682 8.865,16.677 C8.877,16.673 8.890,16.669 8.902,16.664 C8.907,16.656 8.911,16.647 8.915,16.638 C8.932,16.634 8.949,16.630 8.965,16.625 C8.970,16.617 8.974,16.608 8.978,16.599 C8.986,16.599 8.995,16.599 9.003,16.599 C9.012,16.586 9.020,16.573 9.028,16.560 C9.037,16.560 9.045,16.560 9.054,16.560 C9.058,16.552 9.062,16.543 9.066,16.534 C9.075,16.534 9.083,16.534 9.091,16.534 C9.100,16.521 9.108,16.508 9.116,16.495 C9.125,16.495 9.133,16.495 9.142,16.495 C9.154,16.478 9.167,16.461 9.179,16.443 C9.188,16.443 9.196,16.443 9.205,16.443 C9.217,16.426 9.230,16.409 9.242,16.391 C9.251,16.391 9.259,16.391 9.268,16.391 C9.293,16.361 9.318,16.331 9.343,16.300 C9.352,16.300 9.360,16.300 9.368,16.300 C9.389,16.274 9.410,16.248 9.431,16.222 C9.473,16.183 9.515,16.144 9.557,16.105 C9.557,16.097 9.557,16.088 9.557,16.079 C9.587,16.053 9.616,16.027 9.645,16.001 C9.645,15.993 9.645,15.984 9.645,15.975 C9.662,15.962 9.679,15.949 9.696,15.936 C9.696,15.928 9.696,15.919 9.696,15.910 C9.708,15.902 9.721,15.893 9.733,15.884 C9.733,15.876 9.733,15.867 9.733,15.858 C9.746,15.850 9.759,15.841 9.771,15.832 C9.771,15.824 9.771,15.815 9.771,15.806 C9.784,15.798 9.796,15.789 9.809,15.780 C9.809,15.772 9.809,15.763 9.809,15.754 C9.817,15.750 9.826,15.746 9.834,15.741 C9.834,15.733 9.834,15.724 9.834,15.715 C9.843,15.711 9.851,15.707 9.859,15.702 C9.864,15.689 9.868,15.676 9.872,15.663 C9.876,15.663 9.880,15.663 9.885,15.663 C9.889,15.646 9.893,15.629 9.897,15.611 C9.906,15.607 9.914,15.603 9.922,15.598 C9.931,15.572 9.939,15.546 9.948,15.520 C9.956,15.516 9.964,15.512 9.973,15.507 C9.973,15.499 9.973,15.490 9.973,15.481 C9.977,15.481 9.981,15.481 9.985,15.481 C9.985,15.473 9.985,15.464 9.985,15.455 C9.990,15.455 9.994,15.455 9.998,15.455 C9.998,15.447 9.998,15.438 9.998,15.429 C10.002,15.429 10.006,15.429 10.010,15.429 C10.010,15.421 10.010,15.412 10.010,15.403 C10.015,15.403 10.019,15.403 10.023,15.403 C10.023,15.395 10.023,15.386 10.023,15.377 C10.027,15.377 10.031,15.377 10.036,15.377 C10.036,15.369 10.036,15.360 10.036,15.351 C10.040,15.351 10.044,15.351 10.048,15.351 C10.048,15.343 10.048,15.334 10.048,15.325 C10.052,15.325 10.057,15.325 10.061,15.325 C10.069,15.299 10.078,15.273 10.086,15.247 C10.090,15.247 10.094,15.247 10.099,15.247 C10.099,15.234 10.099,15.221 10.099,15.208 C10.103,15.208 10.107,15.208 10.111,15.208 C10.115,15.191 10.120,15.174 10.124,15.156 C10.128,15.156 10.132,15.156 10.136,15.156 C10.187,14.996 10.237,14.836 10.288,14.676 C10.288,14.654 10.288,14.632 10.288,14.611 C10.292,14.611 10.296,14.611 10.300,14.611 C10.300,14.593 10.300,14.576 10.300,14.559 C10.304,14.559 10.308,14.559 10.313,14.559 C10.313,14.537 10.313,14.515 10.313,14.494 C10.317,14.494 10.321,14.494 10.325,14.494 C10.325,14.472 10.325,14.450 10.325,14.429 C10.329,14.429 10.334,14.429 10.338,14.429 C10.338,14.403 10.338,14.377 10.338,14.351 C10.342,14.351 10.346,14.351 10.350,14.351 C10.350,14.320 10.350,14.290 10.350,14.260 C10.355,14.260 10.359,14.260 10.363,14.260 C10.363,14.229 10.363,14.199 10.363,14.169 C10.367,14.169 10.371,14.169 10.376,14.169 C10.376,14.125 10.376,14.082 10.376,14.039 C10.380,14.039 10.384,14.039 10.388,14.039 C10.388,13.969 10.388,13.900 10.388,13.831 C10.392,13.831 10.397,13.831 10.401,13.831 C10.401,13.592 10.401,13.354 10.401,13.116 C10.401,12.609 10.401,12.102 10.401,11.595 C10.397,11.595 10.392,11.595 10.388,11.595 C10.353,11.657 10.298,11.713 10.250,11.764 C10.237,11.772 10.225,11.781 10.212,11.790 C10.212,11.798 10.212,11.807 10.212,11.816 C10.187,11.837 10.162,11.859 10.136,11.881 C10.099,11.924 10.061,11.967 10.023,12.011 C10.015,12.011 10.006,12.011 9.998,12.011 C9.956,12.058 9.914,12.106 9.872,12.154 C9.864,12.154 9.855,12.154 9.847,12.154 C9.822,12.184 9.796,12.214 9.771,12.245 C9.763,12.245 9.754,12.245 9.746,12.245 C9.733,12.262 9.721,12.279 9.708,12.297 C9.700,12.297 9.691,12.297 9.683,12.297 C9.671,12.314 9.658,12.331 9.645,12.349 C9.637,12.349 9.629,12.349 9.620,12.349 C9.608,12.366 9.595,12.383 9.582,12.401 C9.574,12.401 9.566,12.401 9.557,12.401 C9.549,12.414 9.540,12.427 9.532,12.440 C9.524,12.440 9.515,12.440 9.507,12.440 C9.498,12.453 9.490,12.466 9.482,12.479 C9.473,12.479 9.465,12.479 9.456,12.479 C9.448,12.492 9.440,12.505 9.431,12.518 C9.423,12.518 9.414,12.518 9.406,12.518 C9.402,12.526 9.398,12.535 9.393,12.544 C9.385,12.544 9.377,12.544 9.368,12.544 C9.360,12.557 9.352,12.570 9.343,12.583 C9.335,12.583 9.326,12.583 9.318,12.583 C9.314,12.591 9.310,12.600 9.305,12.609 C9.297,12.609 9.289,12.609 9.280,12.609 C9.276,12.617 9.272,12.626 9.268,12.635 C9.259,12.635 9.251,12.635 9.242,12.635 C9.238,12.643 9.234,12.652 9.230,12.661 C9.221,12.661 9.213,12.661 9.205,12.661 C9.200,12.669 9.196,12.678 9.192,12.687 C9.175,12.691 9.158,12.695 9.142,12.700 C9.142,12.704 9.142,12.708 9.142,12.713 C9.129,12.717 9.116,12.721 9.104,12.726 C9.100,12.734 9.095,12.743 9.091,12.752 C9.075,12.756 9.058,12.760 9.041,12.765 C9.037,12.773 9.033,12.782 9.028,12.791 C9.012,12.795 8.995,12.799 8.978,12.804 C8.974,12.812 8.970,12.821 8.965,12.830 C8.940,12.838 8.915,12.847 8.890,12.856 C8.886,12.864 8.881,12.873 8.877,12.882 C8.810,12.912 8.743,12.942 8.676,12.973 C8.676,12.977 8.676,12.981 8.676,12.986 C8.659,12.990 8.642,12.994 8.625,12.999 C8.625,13.003 8.625,13.007 8.625,13.012 C8.617,13.012 8.609,13.012 8.600,13.012 C8.600,13.016 8.600,13.020 8.600,13.025 C8.592,13.025 8.583,13.025 8.575,13.025 C8.575,13.029 8.575,13.033 8.575,13.038 C8.567,13.038 8.558,13.038 8.550,13.038 C8.550,13.042 8.550,13.046 8.550,13.051 C8.541,13.051 8.533,13.051 8.525,13.051 C8.525,13.055 8.525,13.059 8.525,13.064 C8.508,13.068 8.491,13.072 8.474,13.077 C8.474,13.081 8.474,13.085 8.474,13.090 C8.466,13.090 8.458,13.090 8.449,13.090 C8.449,13.094 8.449,13.098 8.449,13.103 C8.437,13.103 8.424,13.103 8.411,13.103 C8.411,13.107 8.411,13.111 8.411,13.116 C8.395,13.120 8.378,13.124 8.361,13.129 C8.361,13.133 8.361,13.137 8.361,13.142 C8.348,13.142 8.336,13.142 8.323,13.142 C8.323,13.146 8.323,13.150 8.323,13.155 C8.306,13.159 8.290,13.163 8.273,13.168 C8.273,13.172 8.273,13.176 8.273,13.181 C8.260,13.181 8.248,13.181 8.235,13.181 C8.235,13.185 8.235,13.189 8.235,13.194 C8.227,13.194 8.218,13.194 8.210,13.194 C8.210,13.198 8.210,13.202 8.210,13.207 C8.185,13.211 8.159,13.215 8.134,13.220 C8.134,13.224 8.134,13.228 8.134,13.233 C8.126,13.233 8.118,13.233 8.109,13.233 C8.109,13.237 8.109,13.241 8.109,13.246 C8.084,13.250 8.059,13.254 8.034,13.259 C8.034,13.263 8.034,13.267 8.034,13.272 C8.025,13.272 8.017,13.272 8.008,13.272 C8.008,13.276 8.008,13.280 8.008,13.285 C7.996,13.285 7.983,13.285 7.971,13.285 C7.971,13.289 7.971,13.293 7.971,13.298 C7.958,13.298 7.945,13.298 7.933,13.298 C7.933,13.302 7.933,13.306 7.933,13.311 C7.920,13.311 7.908,13.311 7.895,13.311 C7.895,13.315 7.895,13.319 7.895,13.324 C7.882,13.324 7.870,13.324 7.857,13.324 C7.857,13.328 7.857,13.332 7.857,13.337 C7.841,13.337 7.824,13.337 7.807,13.337 C7.807,13.341 7.807,13.345 7.807,13.350 C7.794,13.350 7.782,13.350 7.769,13.350 C7.769,13.354 7.769,13.358 7.769,13.363 C7.757,13.363 7.744,13.363 7.731,13.363 C7.731,13.367 7.731,13.371 7.731,13.376 C7.702,13.380 7.673,13.384 7.643,13.389 C7.643,13.393 7.643,13.397 7.643,13.402 C7.614,13.406 7.584,13.410 7.555,13.415 C7.555,13.419 7.555,13.423 7.555,13.428 C7.501,13.436 7.446,13.445 7.391,13.454 C7.391,13.458 7.391,13.462 7.391,13.467 C7.375,13.467 7.358,13.467 7.341,13.467 C7.341,13.471 7.341,13.475 7.341,13.480 C7.324,13.480 7.307,13.480 7.291,13.480 C7.291,13.484 7.291,13.488 7.291,13.493 C7.270,13.493 7.249,13.493 7.228,13.493 C7.228,13.497 7.228,13.501 7.228,13.506 C7.207,13.506 7.186,13.506 7.165,13.506 C7.165,13.510 7.165,13.514 7.165,13.519 C7.140,13.519 7.114,13.519 7.089,13.519 C7.089,13.523 7.089,13.527 7.089,13.532 C7.039,13.536 6.988,13.540 6.938,13.545 C6.938,13.549 6.938,13.553 6.938,13.558 C6.909,13.558 6.879,13.558 6.850,13.558 C6.850,13.562 6.850,13.566 6.850,13.571 C6.816,13.571 6.783,13.571 6.749,13.571 C6.749,13.575 6.749,13.579 6.749,13.584 C6.669,13.588 6.590,13.592 6.510,13.597 C6.510,13.601 6.510,13.605 6.510,13.610 C6.443,13.610 6.376,13.610 6.308,13.610 C6.209,13.638 5.790,13.639 5.692,13.610 C5.650,13.610 5.608,13.610 5.566,13.610 C5.498,13.605 5.431,13.601 5.364,13.597 C5.364,13.592 5.364,13.588 5.364,13.584 C5.238,13.571 5.112,13.558 4.986,13.545 C4.906,13.519 4.800,13.505 4.722,13.480 C4.701,13.480 4.680,13.480 4.659,13.480 C4.456,13.411 4.228,13.368 4.042,13.285 C4.029,13.285 4.017,13.285 4.004,13.285 C4.004,13.280 4.004,13.276 4.004,13.272 C3.992,13.272 3.979,13.272 3.966,13.272 C3.966,13.267 3.966,13.263 3.966,13.259 C3.954,13.259 3.941,13.259 3.929,13.259 C3.929,13.254 3.929,13.250 3.929,13.246 C3.916,13.246 3.903,13.246 3.891,13.246 C3.891,13.241 3.891,13.237 3.891,13.233 C3.882,13.233 3.874,13.233 3.866,13.233 C3.866,13.228 3.866,13.224 3.866,13.220 C3.790,13.194 3.715,13.168 3.639,13.142 C3.639,13.137 3.639,13.133 3.639,13.129 C3.622,13.124 3.605,13.120 3.589,13.116 C3.589,13.111 3.589,13.107 3.589,13.103 C3.580,13.103 3.572,13.103 3.563,13.103 C3.563,13.098 3.563,13.094 3.563,13.090 C3.551,13.090 3.538,13.090 3.526,13.090 C3.526,13.085 3.526,13.081 3.526,13.077 C3.517,13.077 3.509,13.077 3.501,13.077 C3.501,13.072 3.501,13.068 3.501,13.064 C3.484,13.059 3.467,13.055 3.450,13.051 C3.450,13.046 3.450,13.042 3.450,13.038 C3.442,13.038 3.433,13.038 3.425,13.038 C3.425,13.033 3.425,13.029 3.425,13.025 C3.417,13.025 3.408,13.025 3.400,13.025 C3.400,13.020 3.400,13.016 3.400,13.012 C3.391,13.012 3.383,13.012 3.375,13.012 C3.375,13.007 3.375,13.003 3.375,12.999 C3.366,12.999 3.358,12.999 3.349,12.999 C3.349,12.994 3.349,12.990 3.349,12.986 C3.341,12.986 3.333,12.986 3.324,12.986 C3.324,12.981 3.324,12.977 3.324,12.973 C3.316,12.973 3.307,12.973 3.299,12.973 C3.299,12.968 3.299,12.964 3.299,12.960 C3.291,12.960 3.282,12.960 3.274,12.960 C3.274,12.955 3.274,12.951 3.274,12.947 C3.265,12.947 3.257,12.947 3.249,12.947 C3.249,12.942 3.249,12.938 3.249,12.934 C3.240,12.934 3.232,12.934 3.224,12.934 C3.224,12.929 3.224,12.925 3.224,12.921 C3.215,12.921 3.207,12.921 3.198,12.921 C3.198,12.916 3.198,12.912 3.198,12.908 C3.190,12.908 3.182,12.908 3.173,12.908 C3.169,12.899 3.165,12.890 3.161,12.882 C3.152,12.882 3.144,12.882 3.135,12.882 C3.135,12.877 3.135,12.873 3.135,12.869 C3.127,12.869 3.119,12.869 3.110,12.869 C3.110,12.864 3.110,12.860 3.110,12.856 C3.102,12.856 3.093,12.856 3.085,12.856 C3.085,12.851 3.085,12.847 3.085,12.843 C3.077,12.843 3.068,12.843 3.060,12.843 C3.056,12.834 3.051,12.825 3.047,12.817 C3.039,12.817 3.030,12.817 3.022,12.817 C3.022,12.812 3.022,12.808 3.022,12.804 C3.014,12.804 3.005,12.804 2.997,12.804 C2.993,12.795 2.988,12.786 2.984,12.778 C2.967,12.773 2.951,12.769 2.934,12.765 C2.930,12.756 2.925,12.747 2.921,12.739 C2.913,12.739 2.905,12.739 2.896,12.739 C2.896,12.734 2.896,12.730 2.896,12.726 C2.888,12.726 2.879,12.726 2.871,12.726 C2.867,12.717 2.863,12.708 2.858,12.700 C2.850,12.700 2.842,12.700 2.833,12.700 C2.833,12.695 2.833,12.691 2.833,12.687 C2.821,12.682 2.808,12.678 2.795,12.674 C2.791,12.665 2.787,12.656 2.783,12.648 C2.774,12.648 2.766,12.648 2.758,12.648 C2.753,12.639 2.749,12.630 2.745,12.622 C2.737,12.622 2.728,12.622 2.720,12.622 C2.716,12.613 2.711,12.604 2.707,12.596 C2.699,12.596 2.690,12.596 2.682,12.596 C2.682,12.591 2.682,12.587 2.682,12.583 C2.669,12.578 2.657,12.574 2.644,12.570 C2.640,12.561 2.636,12.552 2.632,12.544 C2.623,12.544 2.615,12.544 2.607,12.544 C2.598,12.531 2.590,12.518 2.581,12.505 C2.573,12.505 2.565,12.505 2.556,12.505 C2.552,12.496 2.548,12.487 2.544,12.479 C2.535,12.479 2.527,12.479 2.518,12.479 C2.514,12.470 2.510,12.461 2.506,12.453 C2.493,12.448 2.481,12.444 2.468,12.440 C2.455,12.422 2.443,12.405 2.430,12.388 C2.422,12.388 2.413,12.388 2.405,12.388 C2.397,12.375 2.388,12.362 2.380,12.349 C2.371,12.349 2.363,12.349 2.355,12.349 C2.338,12.327 2.321,12.305 2.304,12.284 C2.296,12.284 2.288,12.284 2.279,12.284 C2.262,12.262 2.246,12.240 2.229,12.219 C2.220,12.219 2.212,12.219 2.204,12.219 C2.183,12.193 2.162,12.167 2.141,12.141 C2.132,12.141 2.124,12.141 2.115,12.141 C2.065,12.084 2.015,12.028 1.964,11.972 C1.947,11.954 1.901,11.935 1.889,11.920 C1.889,11.911 1.889,11.902 1.889,11.894 C1.880,11.889 1.872,11.885 1.864,11.881 C1.864,11.876 1.864,11.872 1.864,11.868 C1.801,11.807 1.738,11.746 1.675,11.686 C1.675,11.677 1.675,11.668 1.675,11.660 C1.645,11.634 1.616,11.608 1.587,11.582 C1.587,11.573 1.587,11.564 1.587,11.556 C1.566,11.538 1.545,11.521 1.524,11.504 C1.524,11.495 1.524,11.486 1.524,11.478 C1.507,11.465 1.490,11.452 1.473,11.439 C1.473,11.430 1.473,11.422 1.473,11.413 C1.456,11.400 1.440,11.387 1.423,11.374 C1.423,11.365 1.423,11.357 1.423,11.348 C1.414,11.344 1.406,11.339 1.398,11.335 C1.393,11.322 1.389,11.309 1.385,11.296 C1.368,11.283 1.352,11.270 1.335,11.257 C1.335,11.248 1.335,11.240 1.335,11.231 C1.326,11.227 1.318,11.222 1.310,11.218 C1.310,11.209 1.310,11.201 1.310,11.192 C1.297,11.183 1.284,11.175 1.272,11.166 C1.272,11.157 1.272,11.149 1.272,11.140 C1.263,11.136 1.255,11.131 1.247,11.127 C1.247,11.118 1.247,11.110 1.247,11.101 C1.234,11.092 1.221,11.084 1.209,11.075 C1.209,11.066 1.209,11.058 1.209,11.049 C1.200,11.045 1.192,11.040 1.184,11.036 C1.179,11.023 1.175,11.010 1.171,10.997 C1.167,10.997 1.163,10.997 1.158,10.997 C1.158,10.988 1.158,10.980 1.158,10.971 C1.150,10.967 1.142,10.962 1.133,10.958 C1.133,10.949 1.133,10.941 1.133,10.932 C1.125,10.928 1.116,10.923 1.108,10.919 C1.108,10.910 1.108,10.902 1.108,10.893 C1.100,10.889 1.091,10.884 1.083,10.880 C1.079,10.863 1.075,10.845 1.070,10.828 C1.066,10.828 1.062,10.828 1.058,10.828 C1.054,10.815 1.049,10.802 1.045,10.789 C1.037,10.785 1.028,10.780 1.020,10.776 C1.020,10.767 1.020,10.759 1.020,10.750 C1.016,10.750 1.012,10.750 1.007,10.750 C1.007,10.741 1.007,10.733 1.007,10.724 C0.999,10.720 0.991,10.715 0.982,10.711 C0.974,10.685 0.965,10.659 0.957,10.633 C0.949,10.629 0.940,10.624 0.932,10.620 C0.928,10.603 0.923,10.585 0.919,10.568 C0.915,10.568 0.911,10.568 0.907,10.568 C0.907,10.559 0.907,10.551 0.907,10.542 C0.898,10.538 0.890,10.533 0.881,10.529 C0.881,10.520 0.881,10.512 0.881,10.503 C0.877,10.503 0.873,10.503 0.869,10.503 C0.869,10.494 0.869,10.486 0.869,10.477 C0.865,10.477 0.860,10.477 0.856,10.477 C0.856,10.468 0.856,10.460 0.856,10.451 C0.852,10.451 0.848,10.451 0.844,10.451 C0.844,10.442 0.844,10.434 0.844,10.425 C0.839,10.425 0.835,10.425 0.831,10.425 C0.827,10.408 0.823,10.390 0.818,10.373 C0.810,10.369 0.802,10.364 0.793,10.360 C0.785,10.334 0.776,10.308 0.768,10.282 C0.764,10.282 0.760,10.282 0.756,10.282 C0.756,10.273 0.756,10.265 0.756,10.256 C0.751,10.256 0.747,10.256 0.743,10.256 C0.735,10.230 0.726,10.204 0.718,10.178 C0.714,10.178 0.709,10.178 0.705,10.178 C0.705,10.165 0.705,10.152 0.705,10.139 C0.701,10.139 0.697,10.139 0.693,10.139 C0.693,10.130 0.693,10.122 0.693,10.113 C0.688,10.113 0.684,10.113 0.680,10.113 C0.680,10.104 0.680,10.096 0.680,10.087 C0.676,10.087 0.672,10.087 0.667,10.087 C0.659,10.061 0.651,10.035 0.642,10.009 C0.638,10.009 0.634,10.009 0.630,10.009 C0.630,9.996 0.630,9.983 0.630,9.970 C0.625,9.970 0.621,9.970 0.617,9.970 C0.613,9.953 0.609,9.935 0.604,9.918 C0.600,9.918 0.596,9.918 0.592,9.918 C0.592,9.905 0.592,9.892 0.592,9.879 C0.588,9.879 0.583,9.879 0.579,9.879 C0.575,9.862 0.571,9.844 0.567,9.827 C0.562,9.827 0.558,9.827 0.554,9.827 C0.554,9.814 0.554,9.801 0.554,9.788 C0.550,9.788 0.546,9.788 0.541,9.788 C0.541,9.779 0.541,9.771 0.541,9.762 C0.537,9.762 0.533,9.762 0.529,9.762 C0.525,9.740 0.520,9.719 0.516,9.697 C0.512,9.697 0.508,9.697 0.504,9.697 C0.499,9.671 0.495,9.645 0.491,9.619 C0.487,9.619 0.483,9.619 0.478,9.619 C0.478,9.610 0.478,9.602 0.478,9.593 C0.474,9.593 0.470,9.593 0.466,9.593 C0.458,9.554 0.449,9.515 0.441,9.476 C0.437,9.476 0.432,9.476 0.428,9.476 C0.428,9.467 0.428,9.459 0.428,9.450 C0.424,9.450 0.420,9.450 0.416,9.450 C0.344,9.194 0.273,8.939 0.201,8.683 C0.201,8.661 0.201,8.640 0.201,8.618 C0.173,8.526 0.154,8.401 0.126,8.306 C0.126,8.280 0.126,8.254 0.126,8.228 C0.086,8.088 0.091,7.904 0.050,7.760 C0.050,7.721 0.050,7.682 0.050,7.643 C0.046,7.643 0.042,7.643 0.038,7.643 C0.038,7.591 0.038,7.539 0.038,7.487 C0.034,7.487 0.029,7.487 0.025,7.487 C0.021,7.327 0.017,7.167 0.013,7.006 C0.008,6.924 0.004,6.842 -0.000,6.759 C0.019,6.691 0.013,6.575 0.013,6.486 C0.021,6.322 0.029,6.157 0.038,5.992 C0.042,5.992 0.046,5.992 0.050,5.992 C0.050,5.949 0.050,5.906 0.050,5.862 C0.090,5.723 0.087,5.542 0.126,5.407 C0.126,5.381 0.126,5.355 0.126,5.329 C0.149,5.252 0.165,5.146 0.189,5.069 C0.189,5.048 0.189,5.026 0.189,5.004 C0.193,5.004 0.197,5.004 0.201,5.004 C0.201,4.987 0.201,4.970 0.201,4.952 C0.206,4.952 0.210,4.952 0.214,4.952 C0.214,4.935 0.214,4.918 0.214,4.901 C0.218,4.901 0.222,4.901 0.227,4.901 C0.227,4.883 0.227,4.866 0.227,4.849 C0.231,4.849 0.235,4.849 0.239,4.849 C0.239,4.831 0.239,4.814 0.239,4.797 C0.243,4.797 0.248,4.797 0.252,4.797 C0.260,4.745 0.269,4.693 0.277,4.641 C0.281,4.641 0.285,4.641 0.290,4.641 C0.294,4.610 0.298,4.580 0.302,4.550 C0.306,4.550 0.311,4.550 0.315,4.550 C0.323,4.506 0.332,4.463 0.340,4.420 C0.344,4.420 0.348,4.420 0.353,4.420 C0.353,4.407 0.353,4.394 0.353,4.381 C0.357,4.381 0.361,4.381 0.365,4.381 C0.365,4.368 0.365,4.355 0.365,4.342 C0.369,4.342 0.374,4.342 0.378,4.342 C0.378,4.329 0.378,4.316 0.378,4.303 C0.382,4.303 0.386,4.303 0.390,4.303 C0.390,4.290 0.390,4.277 0.390,4.264 C0.395,4.264 0.399,4.264 0.403,4.264 C0.403,4.251 0.403,4.238 0.403,4.225 C0.407,4.225 0.411,4.225 0.416,4.225 C0.416,4.212 0.416,4.199 0.416,4.186 C0.420,4.186 0.424,4.186 0.428,4.186 C0.428,4.173 0.428,4.160 0.428,4.147 C0.432,4.147 0.437,4.147 0.441,4.147 C0.441,4.134 0.441,4.121 0.441,4.108 C0.445,4.108 0.449,4.108 0.453,4.108 C0.453,4.099 0.453,4.090 0.453,4.082 C0.458,4.082 0.462,4.082 0.466,4.082 C0.470,4.056 0.474,4.030 0.478,4.004 C0.483,4.004 0.487,4.004 0.491,4.004 C0.491,3.995 0.491,3.986 0.491,3.978 C0.495,3.978 0.499,3.978 0.504,3.978 C0.508,3.952 0.512,3.926 0.516,3.900 C0.520,3.900 0.525,3.900 0.529,3.900 C0.533,3.882 0.537,3.865 0.541,3.848 C0.546,3.848 0.550,3.848 0.554,3.848 C0.554,3.835 0.554,3.822 0.554,3.809 C0.558,3.809 0.562,3.809 0.567,3.809 C0.567,3.800 0.567,3.791 0.567,3.783 C0.571,3.783 0.575,3.783 0.579,3.783 C0.579,3.770 0.579,3.757 0.579,3.744 C0.583,3.744 0.588,3.744 0.592,3.744 C0.596,3.726 0.600,3.709 0.604,3.692 C0.609,3.692 0.613,3.692 0.617,3.692 C0.617,3.679 0.617,3.666 0.617,3.653 C0.621,3.653 0.625,3.653 0.630,3.653 C0.634,3.635 0.638,3.618 0.642,3.601 C0.646,3.601 0.651,3.601 0.655,3.601 C0.655,3.592 0.655,3.583 0.655,3.575 C0.659,3.575 0.663,3.575 0.667,3.575 C0.667,3.562 0.667,3.549 0.667,3.536 C0.672,3.536 0.676,3.536 0.680,3.536 C0.680,3.527 0.680,3.518 0.680,3.510 C0.684,3.510 0.688,3.510 0.693,3.510 C0.697,3.492 0.701,3.475 0.705,3.458 C0.709,3.458 0.714,3.458 0.718,3.458 C0.718,3.449 0.718,3.440 0.718,3.432 C0.722,3.432 0.726,3.432 0.730,3.432 C0.730,3.423 0.730,3.414 0.730,3.406 C0.735,3.406 0.739,3.406 0.743,3.406 C0.743,3.397 0.743,3.388 0.743,3.380 C0.747,3.380 0.751,3.380 0.756,3.380 C0.756,3.371 0.756,3.362 0.756,3.354 C0.760,3.354 0.764,3.354 0.768,3.354 C0.768,3.345 0.768,3.336 0.768,3.328 C0.772,3.328 0.776,3.328 0.781,3.328 C0.781,3.319 0.781,3.310 0.781,3.302 C0.785,3.302 0.789,3.302 0.793,3.302 C0.793,3.293 0.793,3.284 0.793,3.276 C0.797,3.276 0.802,3.276 0.806,3.276 C0.806,3.267 0.806,3.258 0.806,3.250 C0.810,3.250 0.814,3.250 0.818,3.250 C0.818,3.241 0.818,3.232 0.818,3.224 C0.823,3.224 0.827,3.224 0.831,3.224 C0.831,3.215 0.831,3.206 0.831,3.198 C0.835,3.198 0.839,3.198 0.844,3.198 C0.844,3.189 0.844,3.180 0.844,3.172 C0.852,3.167 0.860,3.163 0.869,3.159 C0.869,3.150 0.869,3.141 0.869,3.133 C0.873,3.133 0.877,3.133 0.881,3.133 C0.881,3.124 0.881,3.115 0.881,3.107 C0.886,3.107 0.890,3.107 0.894,3.107 C0.894,3.098 0.894,3.089 0.894,3.081 C0.898,3.081 0.902,3.081 0.907,3.081 C0.907,3.072 0.907,3.063 0.907,3.055 C0.915,3.050 0.923,3.046 0.932,3.042 C0.940,3.016 0.949,2.990 0.957,2.964 C0.965,2.959 0.974,2.955 0.982,2.951 C0.986,2.933 0.991,2.916 0.995,2.899 C1.003,2.894 1.012,2.890 1.020,2.886 C1.024,2.868 1.028,2.851 1.033,2.834 C1.037,2.834 1.041,2.834 1.045,2.834 C1.049,2.821 1.054,2.808 1.058,2.795 C1.066,2.790 1.075,2.786 1.083,2.782 C1.087,2.764 1.091,2.747 1.095,2.730 C1.100,2.730 1.104,2.730 1.108,2.730 C1.112,2.717 1.116,2.704 1.121,2.691 C1.129,2.686 1.137,2.682 1.146,2.678 C1.146,2.669 1.146,2.660 1.146,2.652 C1.150,2.652 1.154,2.652 1.158,2.652 C1.163,2.639 1.167,2.626 1.171,2.613 C1.179,2.608 1.188,2.604 1.196,2.600 C1.196,2.591 1.196,2.582 1.196,2.574 C1.209,2.565 1.221,2.556 1.234,2.548 C1.234,2.539 1.234,2.530 1.234,2.522 C1.242,2.517 1.251,2.513 1.259,2.509 C1.259,2.500 1.259,2.491 1.259,2.483 C1.272,2.474 1.284,2.465 1.297,2.457 C1.297,2.448 1.297,2.439 1.297,2.431 C1.305,2.426 1.314,2.422 1.322,2.418 C1.322,2.409 1.322,2.400 1.322,2.392 C1.335,2.383 1.347,2.374 1.360,2.366 C1.360,2.357 1.360,2.348 1.360,2.340 C1.373,2.331 1.385,2.322 1.398,2.314 C1.398,2.305 1.398,2.296 1.398,2.288 C1.414,2.275 1.431,2.262 1.448,2.249 C1.448,2.240 1.448,2.231 1.448,2.223 C1.465,2.210 1.482,2.197 1.498,2.184 C1.498,2.175 1.498,2.166 1.498,2.158 C1.519,2.140 1.540,2.123 1.561,2.106 C1.561,2.097 1.561,2.088 1.561,2.080 C1.587,2.058 1.612,2.036 1.637,2.015 C1.637,2.006 1.637,1.997 1.637,1.989 C1.666,1.963 1.696,1.937 1.725,1.911 C1.725,1.906 1.725,1.902 1.725,1.898 C1.733,1.893 1.742,1.889 1.750,1.885 C1.750,1.876 1.750,1.867 1.750,1.859 C1.801,1.811 1.851,1.763 1.901,1.716 C1.943,1.668 1.985,1.620 2.027,1.573 C2.036,1.573 2.044,1.573 2.052,1.573 C2.086,1.534 2.120,1.495 2.153,1.456 C2.162,1.456 2.170,1.456 2.178,1.456 C2.199,1.430 2.220,1.404 2.241,1.378 C2.250,1.378 2.258,1.378 2.267,1.378 C2.283,1.356 2.300,1.335 2.317,1.313 C2.325,1.313 2.334,1.313 2.342,1.313 C2.355,1.296 2.367,1.278 2.380,1.261 C2.388,1.261 2.397,1.261 2.405,1.261 C2.413,1.248 2.422,1.235 2.430,1.222 C2.439,1.222 2.447,1.222 2.455,1.222 C2.464,1.209 2.472,1.196 2.481,1.183 C2.489,1.183 2.497,1.183 2.506,1.183 C2.514,1.170 2.523,1.157 2.531,1.144 C2.539,1.144 2.548,1.144 2.556,1.144 C2.565,1.131 2.573,1.118 2.581,1.105 C2.590,1.105 2.598,1.105 2.607,1.105 C2.607,1.101 2.607,1.096 2.607,1.092 C2.619,1.088 2.632,1.083 2.644,1.079 C2.648,1.070 2.653,1.062 2.657,1.053 C2.665,1.053 2.674,1.053 2.682,1.053 C2.690,1.040 2.699,1.027 2.707,1.014 C2.716,1.014 2.724,1.014 2.732,1.014 C2.737,1.005 2.741,0.997 2.745,0.988 C2.758,0.984 2.770,0.979 2.783,0.975 C2.783,0.971 2.783,0.966 2.783,0.962 C2.800,0.958 2.816,0.953 2.833,0.949 C2.833,0.945 2.833,0.940 2.833,0.936 C2.846,0.932 2.858,0.927 2.871,0.923 C2.875,0.914 2.879,0.906 2.884,0.897 C2.900,0.893 2.917,0.888 2.934,0.884 C2.938,0.875 2.942,0.867 2.946,0.858 C2.963,0.854 2.980,0.849 2.997,0.845 C3.001,0.836 3.005,0.828 3.009,0.819 C3.026,0.815 3.043,0.810 3.060,0.806 C3.064,0.797 3.068,0.789 3.072,0.780 C3.081,0.780 3.089,0.780 3.098,0.780 C3.098,0.776 3.098,0.771 3.098,0.767 C3.106,0.767 3.114,0.767 3.123,0.767 C3.123,0.763 3.123,0.758 3.123,0.754 C3.131,0.754 3.140,0.754 3.148,0.754 C3.148,0.750 3.148,0.745 3.148,0.741 C3.156,0.741 3.165,0.741 3.173,0.741 C3.177,0.732 3.182,0.724 3.186,0.715 C3.194,0.715 3.203,0.715 3.211,0.715 C3.211,0.711 3.211,0.706 3.211,0.702 C3.219,0.702 3.228,0.702 3.236,0.702 C3.236,0.698 3.236,0.693 3.236,0.689 C3.244,0.689 3.253,0.689 3.261,0.689 C3.261,0.685 3.261,0.680 3.261,0.676 C3.270,0.676 3.278,0.676 3.286,0.676 C3.286,0.672 3.286,0.667 3.286,0.663 C3.295,0.663 3.303,0.663 3.312,0.663 C3.312,0.659 3.312,0.654 3.312,0.650 C3.320,0.650 3.328,0.650 3.337,0.650 C3.337,0.646 3.337,0.641 3.337,0.637 C3.345,0.637 3.354,0.637 3.362,0.637 C3.362,0.633 3.362,0.628 3.362,0.624 C3.370,0.624 3.379,0.624 3.387,0.624 C3.387,0.620 3.387,0.615 3.387,0.611 C3.396,0.611 3.404,0.611 3.412,0.611 C3.412,0.607 3.412,0.602 3.412,0.598 C3.438,0.589 3.463,0.581 3.488,0.572 C3.488,0.568 3.488,0.563 3.488,0.559 C3.509,0.555 3.530,0.550 3.551,0.546 C3.551,0.542 3.551,0.537 3.551,0.533 C3.568,0.529 3.584,0.524 3.601,0.520 C3.601,0.516 3.601,0.511 3.601,0.507 C3.614,0.507 3.626,0.507 3.639,0.507 C3.639,0.503 3.639,0.498 3.639,0.494 C3.656,0.490 3.673,0.485 3.689,0.481 C3.689,0.477 3.689,0.472 3.689,0.468 C3.702,0.468 3.715,0.468 3.727,0.468 C3.727,0.464 3.727,0.459 3.727,0.455 C3.736,0.455 3.744,0.455 3.752,0.455 C3.752,0.451 3.752,0.446 3.752,0.442 C3.773,0.438 3.794,0.433 3.815,0.429 C3.815,0.425 3.815,0.420 3.815,0.416 C3.828,0.416 3.841,0.416 3.853,0.416 C3.853,0.412 3.853,0.407 3.853,0.403 C3.861,0.403 3.870,0.403 3.878,0.403 C3.878,0.399 3.878,0.394 3.878,0.390 C3.916,0.381 3.954,0.373 3.992,0.364 C3.992,0.360 3.992,0.355 3.992,0.351 C4.000,0.351 4.008,0.351 4.017,0.351 C4.017,0.347 4.017,0.342 4.017,0.338 C4.042,0.334 4.067,0.329 4.092,0.325 C4.092,0.321 4.092,0.316 4.092,0.312 C4.105,0.312 4.118,0.312 4.130,0.312 C4.130,0.308 4.130,0.303 4.130,0.299 C4.143,0.299 4.155,0.299 4.168,0.299 C4.168,0.295 4.168,0.290 4.168,0.286 C4.210,0.277 4.252,0.269 4.294,0.260 C4.294,0.256 4.294,0.251 4.294,0.247 C4.311,0.247 4.327,0.247 4.344,0.247 C4.344,0.243 4.344,0.238 4.344,0.234 C4.357,0.234 4.369,0.234 4.382,0.234 C4.382,0.230 4.382,0.225 4.382,0.221 C4.399,0.221 4.416,0.221 4.432,0.221 C4.432,0.217 4.432,0.212 4.432,0.208 C4.449,0.208 4.466,0.208 4.483,0.208 C4.483,0.204 4.483,0.199 4.483,0.195 C4.499,0.195 4.516,0.195 4.533,0.195 C4.533,0.191 4.533,0.186 4.533,0.182 C4.550,0.182 4.567,0.182 4.583,0.182 C4.583,0.178 4.583,0.173 4.583,0.169 C4.600,0.169 4.617,0.169 4.634,0.169 C4.634,0.165 4.634,0.160 4.634,0.156 C4.693,0.147 4.751,0.139 4.810,0.130 C4.810,0.126 4.810,0.121 4.810,0.117 C4.835,0.117 4.860,0.117 4.886,0.117 C4.886,0.113 4.886,0.108 4.886,0.104 C4.907,0.104 4.928,0.104 4.949,0.104 C4.949,0.100 4.949,0.095 4.949,0.091 C4.974,0.091 4.999,0.091 5.024,0.091 C5.024,0.087 5.024,0.082 5.024,0.078 C5.054,0.078 5.083,0.078 5.112,0.078 C5.112,0.074 5.112,0.069 5.112,0.065 C5.221,0.056 5.331,0.048 5.440,0.039 C5.440,0.035 5.440,0.030 5.440,0.026 C5.494,0.026 5.549,0.026 5.603,0.026 C5.696,-0.001 5.843,0.016 5.956,0.013 C5.981,0.012 5.999,-0.001 6.006,0.000 C6.006,0.004 6.006,0.009 6.006,0.013 C6.073,0.013 6.141,0.013 6.208,0.013 C6.371,0.022 6.535,0.030 6.699,0.039 C6.699,0.043 6.699,0.048 6.699,0.052 C6.732,0.052 6.766,0.052 6.800,0.052 C6.873,0.074 6.980,0.082 7.051,0.104 C7.077,0.104 7.102,0.104 7.127,0.104 C7.127,0.108 7.127,0.113 7.127,0.117 C7.148,0.117 7.169,0.117 7.190,0.117 C7.190,0.121 7.190,0.126 7.190,0.130 C7.211,0.130 7.232,0.130 7.253,0.130 C7.253,0.134 7.253,0.139 7.253,0.143 C7.274,0.143 7.295,0.143 7.316,0.143 C7.316,0.147 7.316,0.152 7.316,0.156 C7.366,0.165 7.417,0.173 7.467,0.182 C7.467,0.186 7.467,0.191 7.467,0.195 C7.517,0.204 7.568,0.212 7.618,0.221 C7.618,0.225 7.618,0.230 7.618,0.234 C7.647,0.238 7.677,0.243 7.706,0.247 C7.706,0.251 7.706,0.256 7.706,0.260 C7.736,0.264 7.765,0.269 7.794,0.273 C7.794,0.277 7.794,0.282 7.794,0.286 C7.807,0.286 7.820,0.286 7.832,0.286 C7.832,0.290 7.832,0.295 7.832,0.299 C7.845,0.299 7.857,0.299 7.870,0.299 C7.870,0.303 7.870,0.308 7.870,0.312 C7.882,0.312 7.895,0.312 7.908,0.312 C7.908,0.316 7.908,0.321 7.908,0.325 C7.920,0.325 7.933,0.325 7.945,0.325 C7.945,0.329 7.945,0.334 7.945,0.338 C7.958,0.338 7.971,0.338 7.983,0.338 C7.983,0.342 7.983,0.347 7.983,0.351 C7.996,0.351 8.008,0.351 8.021,0.351 C8.021,0.355 8.021,0.360 8.021,0.364 C8.034,0.364 8.046,0.364 8.059,0.364 C8.059,0.368 8.059,0.373 8.059,0.377 C8.067,0.377 8.076,0.377 8.084,0.377 C8.084,0.381 8.084,0.386 8.084,0.390 C8.151,0.412 8.218,0.433 8.285,0.455 C8.285,0.459 8.285,0.464 8.285,0.468 C8.302,0.472 8.319,0.477 8.336,0.481 C8.336,0.485 8.336,0.490 8.336,0.494 C8.348,0.494 8.361,0.494 8.374,0.494 C8.374,0.498 8.374,0.503 8.374,0.507 C8.390,0.511 8.407,0.516 8.424,0.520 C8.424,0.524 8.424,0.529 8.424,0.533 C8.437,0.533 8.449,0.533 8.462,0.533 C8.462,0.537 8.462,0.542 8.462,0.546 C8.470,0.546 8.478,0.546 8.487,0.546 C8.487,0.550 8.487,0.555 8.487,0.559 C8.504,0.563 8.520,0.568 8.537,0.572 C8.537,0.576 8.537,0.581 8.537,0.585 C8.554,0.589 8.571,0.594 8.588,0.598 C8.588,0.602 8.588,0.607 8.588,0.611 C8.596,0.611 8.604,0.611 8.613,0.611 C8.613,0.615 8.613,0.620 8.613,0.624 C8.621,0.624 8.630,0.624 8.638,0.624 C8.638,0.628 8.638,0.633 8.638,0.637 C8.646,0.637 8.655,0.637 8.663,0.637 C8.663,0.641 8.663,0.646 8.663,0.650 C8.672,0.650 8.680,0.650 8.688,0.650 C8.688,0.654 8.688,0.659 8.688,0.663 C8.697,0.663 8.705,0.663 8.714,0.663 C8.714,0.667 8.714,0.672 8.714,0.676 C8.722,0.676 8.730,0.676 8.739,0.676 C8.739,0.680 8.739,0.685 8.739,0.689 C8.747,0.689 8.756,0.689 8.764,0.689 C8.764,0.693 8.764,0.698 8.764,0.702 C8.772,0.702 8.781,0.702 8.789,0.702 C8.789,0.706 8.789,0.711 8.789,0.715 C8.797,0.715 8.806,0.715 8.814,0.715 C8.814,0.719 8.814,0.724 8.814,0.728 C8.823,0.728 8.831,0.728 8.839,0.728 C8.844,0.737 8.848,0.745 8.852,0.754 C8.860,0.754 8.869,0.754 8.877,0.754 C8.877,0.758 8.877,0.763 8.877,0.767 C8.886,0.767 8.894,0.767 8.902,0.767 C8.902,0.771 8.902,0.776 8.902,0.780 C8.911,0.780 8.919,0.780 8.928,0.780 C8.928,0.784 8.928,0.789 8.928,0.793 C8.936,0.793 8.944,0.793 8.953,0.793 C8.957,0.802 8.961,0.810 8.965,0.819 C8.982,0.823 8.999,0.828 9.016,0.832 C9.020,0.841 9.024,0.849 9.028,0.858 C9.045,0.862 9.062,0.867 9.079,0.871 C9.083,0.880 9.087,0.888 9.091,0.897 C9.100,0.897 9.108,0.897 9.116,0.897 C9.116,0.901 9.116,0.906 9.116,0.910 C9.125,0.910 9.133,0.910 9.142,0.910 C9.146,0.919 9.150,0.927 9.154,0.936 C9.163,0.936 9.171,0.936 9.179,0.936 C9.184,0.945 9.188,0.953 9.192,0.962 C9.200,0.962 9.209,0.962 9.217,0.962 C9.221,0.971 9.226,0.979 9.230,0.988 C9.238,0.988 9.247,0.988 9.255,0.988 C9.255,0.992 9.255,0.997 9.255,1.001 C9.268,1.005 9.280,1.010 9.293,1.014 C9.297,1.023 9.301,1.031 9.305,1.040 C9.314,1.040 9.322,1.040 9.331,1.040 C9.335,1.049 9.339,1.057 9.343,1.066 C9.352,1.066 9.360,1.066 9.368,1.066 C9.377,1.079 9.385,1.092 9.393,1.105 C9.402,1.105 9.410,1.105 9.419,1.105 C9.423,1.114 9.427,1.122 9.431,1.131 C9.440,1.131 9.448,1.131 9.456,1.131 C9.465,1.144 9.473,1.157 9.482,1.170 C9.490,1.170 9.498,1.170 9.507,1.170 C9.515,1.183 9.524,1.196 9.532,1.209 C9.540,1.209 9.549,1.209 9.557,1.209 C9.570,1.226 9.582,1.244 9.595,1.261 C9.608,1.265 9.620,1.270 9.633,1.274 C9.637,1.283 9.641,1.291 9.645,1.300 C9.654,1.300 9.662,1.300 9.671,1.300 C9.679,1.313 9.687,1.326 9.696,1.339 C9.700,1.339 9.704,1.339 9.708,1.339 C9.712,1.348 9.717,1.356 9.721,1.365 C9.729,1.365 9.738,1.365 9.746,1.365 C9.767,1.391 9.788,1.417 9.809,1.443 C9.817,1.443 9.826,1.443 9.834,1.443 C9.864,1.478 9.893,1.512 9.922,1.547 C9.931,1.547 9.939,1.547 9.948,1.547 C9.973,1.577 9.998,1.608 10.023,1.638 C10.086,1.698 10.149,1.759 10.212,1.820 C10.275,1.885 10.322,1.980 10.401,2.028 C10.401,1.491 10.401,0.953 10.401,0.416 ZM5.981,1.651 C5.954,1.674 5.877,1.664 5.830,1.664 C5.717,1.668 5.603,1.672 5.490,1.677 C5.490,1.681 5.490,1.685 5.490,1.690 C5.452,1.690 5.414,1.690 5.377,1.690 C5.377,1.694 5.377,1.698 5.377,1.703 C5.347,1.703 5.318,1.703 5.289,1.703 C5.289,1.707 5.289,1.711 5.289,1.716 C5.263,1.716 5.238,1.716 5.213,1.716 C5.213,1.720 5.213,1.724 5.213,1.729 C5.188,1.729 5.163,1.729 5.137,1.729 C5.137,1.733 5.137,1.737 5.137,1.742 C5.116,1.742 5.095,1.742 5.075,1.742 C5.075,1.746 5.075,1.750 5.075,1.755 C5.054,1.755 5.033,1.755 5.012,1.755 C5.012,1.759 5.012,1.763 5.012,1.768 C4.991,1.768 4.970,1.768 4.949,1.768 C4.949,1.772 4.949,1.776 4.949,1.781 C4.932,1.781 4.915,1.781 4.898,1.781 C4.898,1.785 4.898,1.789 4.898,1.794 C4.881,1.794 4.865,1.794 4.848,1.794 C4.848,1.798 4.848,1.802 4.848,1.807 C4.831,1.807 4.814,1.807 4.797,1.807 C4.797,1.811 4.797,1.815 4.797,1.820 C4.768,1.824 4.739,1.828 4.709,1.833 C4.709,1.837 4.709,1.841 4.709,1.846 C4.697,1.846 4.684,1.846 4.672,1.846 C4.672,1.850 4.672,1.854 4.672,1.859 C4.659,1.859 4.646,1.859 4.634,1.859 C4.634,1.863 4.634,1.867 4.634,1.872 C4.617,1.872 4.600,1.872 4.583,1.872 C4.583,1.876 4.583,1.880 4.583,1.885 C4.575,1.885 4.567,1.885 4.558,1.885 C4.558,1.889 4.558,1.893 4.558,1.898 C4.546,1.898 4.533,1.898 4.520,1.898 C4.520,1.902 4.520,1.906 4.520,1.911 C4.483,1.919 4.445,1.928 4.407,1.937 C4.252,2.010 4.097,2.084 3.941,2.158 C3.937,2.166 3.933,2.175 3.929,2.184 C3.903,2.192 3.878,2.201 3.853,2.210 C3.849,2.218 3.845,2.227 3.841,2.236 C3.824,2.240 3.807,2.244 3.790,2.249 C3.786,2.257 3.782,2.266 3.778,2.275 C3.761,2.279 3.744,2.283 3.727,2.288 C3.723,2.296 3.719,2.305 3.715,2.314 C3.706,2.314 3.698,2.314 3.689,2.314 C3.685,2.322 3.681,2.331 3.677,2.340 C3.668,2.340 3.660,2.340 3.652,2.340 C3.652,2.344 3.652,2.348 3.652,2.353 C3.639,2.357 3.626,2.361 3.614,2.366 C3.610,2.374 3.605,2.383 3.601,2.392 C3.593,2.392 3.584,2.392 3.576,2.392 C3.572,2.400 3.568,2.409 3.563,2.418 C3.555,2.418 3.547,2.418 3.538,2.418 C3.530,2.431 3.522,2.444 3.513,2.457 C3.505,2.457 3.496,2.457 3.488,2.457 C3.480,2.470 3.471,2.483 3.463,2.496 C3.454,2.496 3.446,2.496 3.438,2.496 C3.425,2.513 3.412,2.530 3.400,2.548 C3.391,2.548 3.383,2.548 3.375,2.548 C3.370,2.556 3.366,2.565 3.362,2.574 C3.358,2.574 3.354,2.574 3.349,2.574 C3.345,2.582 3.341,2.591 3.337,2.600 C3.328,2.600 3.320,2.600 3.312,2.600 C3.295,2.621 3.278,2.643 3.261,2.665 C3.253,2.665 3.244,2.665 3.236,2.665 C3.198,2.708 3.161,2.751 3.123,2.795 C3.114,2.795 3.106,2.795 3.098,2.795 C3.085,2.812 3.072,2.829 3.060,2.847 C3.026,2.877 2.993,2.907 2.959,2.938 C2.959,2.946 2.959,2.955 2.959,2.964 C2.917,3.003 2.875,3.042 2.833,3.081 C2.833,3.089 2.833,3.098 2.833,3.107 C2.808,3.128 2.783,3.150 2.758,3.172 C2.758,3.180 2.758,3.189 2.758,3.198 C2.741,3.211 2.724,3.224 2.707,3.237 C2.707,3.245 2.707,3.254 2.707,3.263 C2.690,3.276 2.674,3.289 2.657,3.302 C2.657,3.310 2.657,3.319 2.657,3.328 C2.644,3.336 2.632,3.345 2.619,3.354 C2.619,3.362 2.619,3.371 2.619,3.380 C2.611,3.384 2.602,3.388 2.594,3.393 C2.594,3.401 2.594,3.410 2.594,3.419 C2.581,3.427 2.569,3.436 2.556,3.445 C2.556,3.453 2.556,3.462 2.556,3.471 C2.548,3.475 2.539,3.479 2.531,3.484 C2.527,3.497 2.523,3.510 2.518,3.523 C2.514,3.523 2.510,3.523 2.506,3.523 C2.506,3.531 2.506,3.540 2.506,3.549 C2.497,3.553 2.489,3.557 2.481,3.562 C2.481,3.570 2.481,3.579 2.481,3.588 C2.472,3.592 2.464,3.596 2.455,3.601 C2.455,3.609 2.455,3.618 2.455,3.627 C2.447,3.631 2.439,3.635 2.430,3.640 C2.430,3.648 2.430,3.657 2.430,3.666 C2.422,3.670 2.413,3.674 2.405,3.679 C2.401,3.696 2.397,3.713 2.392,3.731 C2.384,3.735 2.376,3.739 2.367,3.744 C2.367,3.752 2.367,3.761 2.367,3.770 C2.363,3.770 2.359,3.770 2.355,3.770 C2.355,3.778 2.355,3.787 2.355,3.796 C2.346,3.800 2.338,3.804 2.329,3.809 C2.329,3.817 2.329,3.826 2.329,3.835 C2.325,3.835 2.321,3.835 2.317,3.835 C2.317,3.843 2.317,3.852 2.317,3.861 C2.313,3.861 2.308,3.861 2.304,3.861 C2.304,3.869 2.304,3.878 2.304,3.887 C2.300,3.887 2.296,3.887 2.292,3.887 C2.292,3.895 2.292,3.904 2.292,3.913 C2.283,3.917 2.275,3.921 2.267,3.926 C2.267,3.934 2.267,3.943 2.267,3.952 C2.262,3.952 2.258,3.952 2.254,3.952 C2.254,3.960 2.254,3.969 2.254,3.978 C2.250,3.978 2.246,3.978 2.241,3.978 C2.241,3.986 2.241,3.995 2.241,4.004 C2.237,4.004 2.233,4.004 2.229,4.004 C2.229,4.012 2.229,4.021 2.229,4.030 C2.225,4.030 2.220,4.030 2.216,4.030 C2.216,4.038 2.216,4.047 2.216,4.056 C2.212,4.056 2.208,4.056 2.204,4.056 C2.204,4.064 2.204,4.073 2.204,4.082 C2.199,4.082 2.195,4.082 2.191,4.082 C2.191,4.090 2.191,4.099 2.191,4.108 C2.187,4.108 2.183,4.108 2.178,4.108 C2.178,4.116 2.178,4.125 2.178,4.134 C2.174,4.134 2.170,4.134 2.166,4.134 C2.166,4.142 2.166,4.151 2.166,4.160 C2.162,4.160 2.157,4.160 2.153,4.160 C2.145,4.186 2.136,4.212 2.128,4.238 C2.124,4.238 2.120,4.238 2.115,4.238 C2.111,4.259 2.107,4.281 2.103,4.303 C2.099,4.303 2.094,4.303 2.090,4.303 C2.086,4.320 2.082,4.337 2.078,4.355 C2.073,4.355 2.069,4.355 2.065,4.355 C2.065,4.368 2.065,4.381 2.065,4.394 C2.061,4.394 2.057,4.394 2.052,4.394 C2.052,4.402 2.052,4.411 2.052,4.420 C2.048,4.420 2.044,4.420 2.040,4.420 C2.040,4.433 2.040,4.446 2.040,4.459 C2.036,4.459 2.031,4.459 2.027,4.459 C2.023,4.476 2.019,4.493 2.015,4.511 C2.010,4.511 2.006,4.511 2.002,4.511 C1.998,4.537 1.994,4.563 1.990,4.589 C1.985,4.589 1.981,4.589 1.977,4.589 C1.977,4.597 1.977,4.606 1.977,4.615 C1.973,4.615 1.969,4.615 1.964,4.615 C1.964,4.628 1.964,4.641 1.964,4.654 C1.960,4.654 1.956,4.654 1.952,4.654 C1.952,4.667 1.952,4.680 1.952,4.693 C1.948,4.693 1.943,4.693 1.939,4.693 C1.939,4.706 1.939,4.719 1.939,4.732 C1.935,4.732 1.931,4.732 1.927,4.732 C1.927,4.745 1.927,4.758 1.927,4.771 C1.922,4.771 1.918,4.771 1.914,4.771 C1.914,4.784 1.914,4.797 1.914,4.810 C1.910,4.810 1.906,4.810 1.901,4.810 C1.901,4.823 1.901,4.836 1.901,4.849 C1.897,4.849 1.893,4.849 1.889,4.849 C1.889,4.862 1.889,4.875 1.889,4.888 C1.885,4.888 1.880,4.888 1.876,4.888 C1.876,4.900 1.876,4.914 1.876,4.926 C1.872,4.926 1.868,4.926 1.864,4.926 C1.864,4.939 1.864,4.952 1.864,4.965 C1.859,4.965 1.855,4.965 1.851,4.965 C1.847,4.996 1.843,5.026 1.838,5.056 C1.834,5.056 1.830,5.056 1.826,5.056 C1.826,5.074 1.826,5.091 1.826,5.108 C1.822,5.108 1.817,5.108 1.813,5.108 C1.813,5.126 1.813,5.143 1.813,5.160 C1.809,5.160 1.805,5.160 1.801,5.160 C1.801,5.173 1.801,5.186 1.801,5.199 C1.796,5.199 1.792,5.199 1.788,5.199 C1.788,5.217 1.788,5.234 1.788,5.251 C1.784,5.251 1.780,5.251 1.775,5.251 C1.775,5.273 1.775,5.295 1.775,5.316 C1.771,5.316 1.767,5.316 1.763,5.316 C1.759,5.355 1.754,5.394 1.750,5.433 C1.746,5.433 1.742,5.433 1.738,5.433 C1.738,5.451 1.738,5.468 1.738,5.485 C1.733,5.485 1.729,5.485 1.725,5.485 C1.725,5.507 1.725,5.529 1.725,5.550 C1.721,5.550 1.717,5.550 1.712,5.550 C1.708,5.598 1.704,5.646 1.700,5.693 C1.696,5.693 1.692,5.693 1.687,5.693 C1.687,5.724 1.687,5.754 1.687,5.784 C1.683,5.784 1.679,5.784 1.675,5.784 C1.675,5.810 1.675,5.836 1.675,5.862 C1.671,5.862 1.666,5.862 1.662,5.862 C1.662,5.897 1.662,5.932 1.662,5.966 C1.658,5.966 1.654,5.966 1.650,5.966 C1.650,6.005 1.650,6.044 1.650,6.083 C1.645,6.083 1.641,6.083 1.637,6.083 C1.637,6.127 1.637,6.170 1.637,6.213 C1.633,6.213 1.629,6.213 1.624,6.213 C1.620,6.330 1.616,6.447 1.612,6.564 C1.612,6.621 1.612,6.677 1.612,6.733 C1.587,6.826 1.612,6.932 1.612,7.045 C1.620,7.214 1.629,7.383 1.637,7.552 C1.641,7.552 1.645,7.552 1.650,7.552 C1.650,7.591 1.650,7.630 1.650,7.669 C1.654,7.669 1.658,7.669 1.662,7.669 C1.662,7.700 1.662,7.730 1.662,7.760 C1.666,7.760 1.671,7.760 1.675,7.760 C1.683,7.843 1.692,7.925 1.700,8.007 C1.704,8.007 1.708,8.007 1.712,8.007 C1.712,8.029 1.712,8.051 1.712,8.072 C1.717,8.072 1.721,8.072 1.725,8.072 C1.725,8.094 1.725,8.116 1.725,8.137 C1.729,8.137 1.733,8.137 1.738,8.137 C1.738,8.159 1.738,8.181 1.738,8.202 C1.742,8.202 1.746,8.202 1.750,8.202 C1.750,8.224 1.750,8.245 1.750,8.267 C1.754,8.267 1.759,8.267 1.763,8.267 C1.771,8.319 1.780,8.371 1.788,8.423 C1.792,8.423 1.796,8.423 1.801,8.423 C1.805,8.458 1.809,8.492 1.813,8.527 C1.817,8.527 1.822,8.527 1.826,8.527 C1.830,8.557 1.834,8.588 1.838,8.618 C1.843,8.618 1.847,8.618 1.851,8.618 C1.855,8.648 1.859,8.679 1.864,8.709 C1.868,8.709 1.872,8.709 1.876,8.709 C1.876,8.722 1.876,8.735 1.876,8.748 C1.880,8.748 1.885,8.748 1.889,8.748 C1.889,8.761 1.889,8.774 1.889,8.787 C1.893,8.787 1.897,8.787 1.901,8.787 C1.901,8.800 1.901,8.813 1.901,8.826 C1.906,8.826 1.910,8.826 1.914,8.826 C1.914,8.839 1.914,8.852 1.914,8.865 C1.918,8.865 1.922,8.865 1.927,8.865 C1.927,8.878 1.927,8.891 1.927,8.904 C1.931,8.904 1.935,8.904 1.939,8.904 C1.939,8.917 1.939,8.930 1.939,8.943 C1.943,8.943 1.948,8.943 1.952,8.943 C1.952,8.956 1.952,8.969 1.952,8.982 C1.956,8.982 1.960,8.982 1.964,8.982 C1.964,8.991 1.964,8.999 1.964,9.008 C1.969,9.008 1.973,9.008 1.977,9.008 C1.981,9.034 1.985,9.060 1.990,9.086 C1.994,9.086 1.998,9.086 2.002,9.086 C2.006,9.108 2.010,9.129 2.015,9.151 C2.019,9.151 2.023,9.151 2.027,9.151 C2.027,9.160 2.027,9.168 2.027,9.177 C2.031,9.177 2.036,9.177 2.040,9.177 C2.040,9.190 2.040,9.203 2.040,9.216 C2.044,9.216 2.048,9.216 2.052,9.216 C2.057,9.233 2.061,9.251 2.065,9.268 C2.069,9.268 2.073,9.268 2.078,9.268 C2.078,9.281 2.078,9.294 2.078,9.307 C2.082,9.307 2.086,9.307 2.090,9.307 C2.099,9.333 2.107,9.359 2.115,9.385 C2.120,9.385 2.124,9.385 2.128,9.385 C2.128,9.394 2.128,9.402 2.128,9.411 C2.132,9.411 2.136,9.411 2.141,9.411 C2.141,9.424 2.141,9.437 2.141,9.450 C2.145,9.450 2.149,9.450 2.153,9.450 C2.162,9.476 2.170,9.502 2.178,9.528 C2.183,9.528 2.187,9.528 2.191,9.528 C2.191,9.537 2.191,9.545 2.191,9.554 C2.195,9.554 2.199,9.554 2.204,9.554 C2.204,9.563 2.204,9.571 2.204,9.580 C2.208,9.580 2.212,9.580 2.216,9.580 C2.225,9.606 2.233,9.632 2.241,9.658 C2.250,9.662 2.258,9.667 2.267,9.671 C2.267,9.680 2.267,9.688 2.267,9.697 C2.271,9.697 2.275,9.697 2.279,9.697 C2.279,9.706 2.279,9.714 2.279,9.723 C2.283,9.723 2.288,9.723 2.292,9.723 C2.292,9.732 2.292,9.740 2.292,9.749 C2.296,9.749 2.300,9.749 2.304,9.749 C2.304,9.758 2.304,9.766 2.304,9.775 C2.313,9.779 2.321,9.784 2.329,9.788 C2.338,9.814 2.346,9.840 2.355,9.866 C2.359,9.866 2.363,9.866 2.367,9.866 C2.371,9.879 2.376,9.892 2.380,9.905 C2.388,9.909 2.397,9.914 2.405,9.918 C2.409,9.935 2.413,9.953 2.418,9.970 C2.426,9.974 2.434,9.979 2.443,9.983 C2.443,9.992 2.443,10.000 2.443,10.009 C2.451,10.013 2.460,10.018 2.468,10.022 C2.468,10.031 2.468,10.039 2.468,10.048 C2.476,10.052 2.485,10.057 2.493,10.061 C2.493,10.070 2.493,10.078 2.493,10.087 C2.497,10.087 2.502,10.087 2.506,10.087 C2.510,10.100 2.514,10.113 2.518,10.126 C2.527,10.130 2.535,10.135 2.544,10.139 C2.544,10.148 2.544,10.156 2.544,10.165 C2.552,10.169 2.560,10.174 2.569,10.178 C2.569,10.187 2.569,10.195 2.569,10.204 C2.581,10.213 2.594,10.221 2.607,10.230 C2.607,10.239 2.607,10.247 2.607,10.256 C2.619,10.265 2.632,10.273 2.644,10.282 C2.644,10.291 2.644,10.299 2.644,10.308 C2.657,10.317 2.669,10.325 2.682,10.334 C2.682,10.343 2.682,10.351 2.682,10.360 C2.699,10.373 2.716,10.386 2.732,10.399 C2.732,10.408 2.732,10.416 2.732,10.425 C2.749,10.438 2.766,10.451 2.783,10.464 C2.783,10.473 2.783,10.481 2.783,10.490 C2.812,10.516 2.842,10.542 2.871,10.568 C2.871,10.577 2.871,10.585 2.871,10.594 C2.905,10.624 2.938,10.655 2.972,10.685 C3.043,10.763 3.114,10.841 3.186,10.919 C3.194,10.919 3.203,10.919 3.211,10.919 C3.236,10.949 3.261,10.980 3.286,11.010 C3.295,11.010 3.303,11.010 3.312,11.010 C3.328,11.032 3.345,11.053 3.362,11.075 C3.370,11.075 3.379,11.075 3.387,11.075 C3.396,11.088 3.404,11.101 3.412,11.114 C3.421,11.114 3.429,11.114 3.438,11.114 C3.446,11.127 3.454,11.140 3.463,11.153 C3.471,11.153 3.480,11.153 3.488,11.153 C3.496,11.166 3.505,11.179 3.513,11.192 C3.522,11.192 3.530,11.192 3.538,11.192 C3.547,11.205 3.555,11.218 3.563,11.231 C3.572,11.231 3.580,11.231 3.589,11.231 C3.593,11.240 3.597,11.248 3.601,11.257 C3.610,11.257 3.618,11.257 3.626,11.257 C3.631,11.266 3.635,11.274 3.639,11.283 C3.647,11.283 3.656,11.283 3.664,11.283 C3.668,11.292 3.673,11.300 3.677,11.309 C3.685,11.309 3.694,11.309 3.702,11.309 C3.706,11.318 3.710,11.326 3.715,11.335 C3.731,11.339 3.748,11.344 3.765,11.348 C3.769,11.357 3.773,11.365 3.778,11.374 C3.794,11.378 3.811,11.383 3.828,11.387 C3.832,11.396 3.836,11.404 3.841,11.413 C3.866,11.422 3.891,11.430 3.916,11.439 C3.920,11.447 3.924,11.456 3.929,11.465 C3.937,11.465 3.945,11.465 3.954,11.465 C3.954,11.469 3.954,11.473 3.954,11.478 C3.962,11.478 3.971,11.478 3.979,11.478 C3.979,11.482 3.979,11.486 3.979,11.491 C3.987,11.491 3.996,11.491 4.004,11.491 C4.004,11.495 4.004,11.499 4.004,11.504 C4.013,11.504 4.021,11.504 4.029,11.504 C4.029,11.508 4.029,11.512 4.029,11.517 C4.038,11.517 4.046,11.517 4.055,11.517 C4.055,11.521 4.055,11.525 4.055,11.530 C4.063,11.530 4.071,11.530 4.080,11.530 C4.080,11.534 4.080,11.538 4.080,11.543 C4.088,11.543 4.097,11.543 4.105,11.543 C4.105,11.547 4.105,11.551 4.105,11.556 C4.113,11.556 4.122,11.556 4.130,11.556 C4.130,11.560 4.130,11.564 4.130,11.569 C4.155,11.577 4.180,11.586 4.206,11.595 C4.206,11.599 4.206,11.603 4.206,11.608 C4.218,11.608 4.231,11.608 4.243,11.608 C4.243,11.612 4.243,11.616 4.243,11.621 C4.260,11.625 4.277,11.629 4.294,11.634 C4.294,11.638 4.294,11.642 4.294,11.647 C4.306,11.647 4.319,11.647 4.332,11.647 C4.332,11.651 4.332,11.655 4.332,11.660 C4.340,11.660 4.348,11.660 4.357,11.660 C4.357,11.664 4.357,11.668 4.357,11.673 C4.382,11.677 4.407,11.681 4.432,11.686 C4.432,11.690 4.432,11.694 4.432,11.699 C4.441,11.699 4.449,11.699 4.458,11.699 C4.458,11.703 4.458,11.707 4.458,11.712 C4.483,11.716 4.508,11.720 4.533,11.725 C4.533,11.729 4.533,11.733 4.533,11.738 C4.546,11.738 4.558,11.738 4.571,11.738 C4.571,11.742 4.571,11.746 4.571,11.751 C4.583,11.751 4.596,11.751 4.609,11.751 C4.609,11.755 4.609,11.759 4.609,11.764 C4.621,11.764 4.634,11.764 4.646,11.764 C4.646,11.768 4.646,11.772 4.646,11.777 C4.659,11.777 4.672,11.777 4.684,11.777 C4.684,11.781 4.684,11.785 4.684,11.790 C4.701,11.790 4.718,11.790 4.735,11.790 C4.735,11.794 4.735,11.798 4.735,11.803 C4.747,11.803 4.760,11.803 4.772,11.803 C4.772,11.807 4.772,11.811 4.772,11.816 C4.789,11.816 4.806,11.816 4.823,11.816 C4.823,11.820 4.823,11.824 4.823,11.829 C4.839,11.829 4.856,11.829 4.873,11.829 C4.873,11.833 4.873,11.837 4.873,11.842 C4.890,11.842 4.907,11.842 4.923,11.842 C4.923,11.846 4.923,11.850 4.923,11.855 C4.940,11.855 4.957,11.855 4.974,11.855 C4.974,11.859 4.974,11.863 4.974,11.868 C5.125,11.894 5.276,11.920 5.427,11.946 C5.469,11.946 5.511,11.946 5.553,11.946 C5.553,11.950 5.553,11.954 5.553,11.959 C5.725,11.963 5.897,11.967 6.069,11.972 C6.141,11.972 6.212,11.972 6.283,11.972 C6.283,11.967 6.283,11.963 6.283,11.959 C6.338,11.959 6.392,11.959 6.447,11.959 C6.447,11.954 6.447,11.950 6.447,11.946 C6.489,11.946 6.531,11.946 6.573,11.946 C6.573,11.941 6.573,11.937 6.573,11.933 C6.607,11.933 6.640,11.933 6.674,11.933 C6.674,11.928 6.674,11.924 6.674,11.920 C6.703,11.920 6.732,11.920 6.762,11.920 C6.762,11.915 6.762,11.911 6.762,11.907 C6.787,11.907 6.812,11.907 6.837,11.907 C6.837,11.902 6.837,11.898 6.837,11.894 C6.858,11.894 6.879,11.894 6.900,11.894 C6.900,11.889 6.900,11.885 6.900,11.881 C6.925,11.881 6.951,11.881 6.976,11.881 C6.976,11.876 6.976,11.872 6.976,11.868 C6.993,11.868 7.009,11.868 7.026,11.868 C7.026,11.863 7.026,11.859 7.026,11.855 C7.043,11.855 7.060,11.855 7.077,11.855 C7.077,11.850 7.077,11.846 7.077,11.842 C7.093,11.842 7.110,11.842 7.127,11.842 C7.127,11.837 7.127,11.833 7.127,11.829 C7.144,11.829 7.161,11.829 7.177,11.829 C7.177,11.824 7.177,11.820 7.177,11.816 C7.211,11.811 7.244,11.807 7.278,11.803 C7.278,11.798 7.278,11.794 7.278,11.790 C7.291,11.790 7.303,11.790 7.316,11.790 C7.316,11.785 7.316,11.781 7.316,11.777 C7.328,11.777 7.341,11.777 7.354,11.777 C7.354,11.772 7.354,11.768 7.354,11.764 C7.366,11.764 7.379,11.764 7.391,11.764 C7.391,11.759 7.391,11.755 7.391,11.751 C7.408,11.751 7.425,11.751 7.442,11.751 C7.442,11.746 7.442,11.742 7.442,11.738 C7.450,11.738 7.459,11.738 7.467,11.738 C7.467,11.733 7.467,11.729 7.467,11.725 C7.505,11.716 7.543,11.707 7.580,11.699 C7.580,11.694 7.580,11.690 7.580,11.686 C7.589,11.686 7.597,11.686 7.605,11.686 C7.605,11.681 7.605,11.677 7.605,11.673 C7.618,11.673 7.631,11.673 7.643,11.673 C7.643,11.668 7.643,11.664 7.643,11.660 C7.664,11.655 7.685,11.651 7.706,11.647 C7.706,11.642 7.706,11.638 7.706,11.634 C7.715,11.634 7.723,11.634 7.731,11.634 C7.731,11.629 7.731,11.625 7.731,11.621 C7.744,11.621 7.757,11.621 7.769,11.621 C7.769,11.616 7.769,11.612 7.769,11.608 C7.778,11.608 7.786,11.608 7.794,11.608 C7.794,11.603 7.794,11.599 7.794,11.595 C7.811,11.590 7.828,11.586 7.845,11.582 C7.845,11.577 7.845,11.573 7.845,11.569 C7.853,11.569 7.861,11.569 7.870,11.569 C7.870,11.564 7.870,11.560 7.870,11.556 C7.878,11.556 7.887,11.556 7.895,11.556 C7.895,11.551 7.895,11.547 7.895,11.543 C7.903,11.543 7.912,11.543 7.920,11.543 C7.920,11.538 7.920,11.534 7.920,11.530 C7.929,11.530 7.937,11.530 7.945,11.530 C7.945,11.525 7.945,11.521 7.945,11.517 C7.954,11.517 7.962,11.517 7.971,11.517 C7.971,11.512 7.971,11.508 7.971,11.504 C7.979,11.504 7.987,11.504 7.996,11.504 C7.996,11.499 7.996,11.495 7.996,11.491 C8.004,11.491 8.013,11.491 8.021,11.491 C8.021,11.486 8.021,11.482 8.021,11.478 C8.029,11.478 8.038,11.478 8.046,11.478 C8.046,11.473 8.046,11.469 8.046,11.465 C8.055,11.465 8.063,11.465 8.071,11.465 C8.071,11.460 8.071,11.456 8.071,11.452 C8.080,11.452 8.088,11.452 8.097,11.452 C8.097,11.447 8.097,11.443 8.097,11.439 C8.105,11.439 8.113,11.439 8.122,11.439 C8.126,11.430 8.130,11.422 8.134,11.413 C8.151,11.409 8.168,11.404 8.185,11.400 C8.189,11.391 8.193,11.383 8.197,11.374 C8.206,11.374 8.214,11.374 8.222,11.374 C8.222,11.370 8.222,11.365 8.222,11.361 C8.231,11.361 8.239,11.361 8.248,11.361 C8.252,11.352 8.256,11.344 8.260,11.335 C8.269,11.335 8.277,11.335 8.285,11.335 C8.290,11.326 8.294,11.318 8.298,11.309 C8.306,11.309 8.315,11.309 8.323,11.309 C8.327,11.300 8.332,11.292 8.336,11.283 C8.353,11.279 8.369,11.274 8.386,11.270 C8.395,11.257 8.403,11.244 8.411,11.231 C8.420,11.231 8.428,11.231 8.437,11.231 C8.441,11.222 8.445,11.214 8.449,11.205 C8.458,11.205 8.466,11.205 8.474,11.205 C8.483,11.192 8.491,11.179 8.499,11.166 C8.508,11.166 8.516,11.166 8.525,11.166 C8.533,11.153 8.541,11.140 8.550,11.127 C8.558,11.127 8.567,11.127 8.575,11.127 C8.583,11.114 8.592,11.101 8.600,11.088 C8.609,11.088 8.617,11.088 8.625,11.088 C8.630,11.079 8.634,11.071 8.638,11.062 C8.651,11.053 8.663,11.045 8.676,11.036 C8.676,11.032 8.676,11.027 8.676,11.023 C8.684,11.023 8.693,11.023 8.701,11.023 C8.718,11.001 8.735,10.980 8.751,10.958 C8.760,10.958 8.768,10.958 8.776,10.958 C8.818,10.910 8.860,10.863 8.902,10.815 C8.915,10.806 8.928,10.798 8.940,10.789 C8.940,10.785 8.940,10.780 8.940,10.776 C8.949,10.776 8.957,10.776 8.965,10.776 C8.965,10.772 8.965,10.767 8.965,10.763 C8.974,10.759 8.982,10.754 8.991,10.750 C8.991,10.741 8.991,10.733 8.991,10.724 C9.045,10.672 9.100,10.620 9.154,10.568 C9.154,10.559 9.154,10.551 9.154,10.542 C9.179,10.520 9.205,10.499 9.230,10.477 C9.230,10.468 9.230,10.460 9.230,10.451 C9.251,10.434 9.272,10.416 9.293,10.399 C9.293,10.390 9.293,10.382 9.293,10.373 C9.305,10.364 9.318,10.356 9.331,10.347 C9.331,10.338 9.331,10.330 9.331,10.321 C9.343,10.312 9.356,10.304 9.368,10.295 C9.368,10.286 9.368,10.278 9.368,10.269 C9.381,10.260 9.393,10.252 9.406,10.243 C9.406,10.234 9.406,10.226 9.406,10.217 C9.419,10.208 9.431,10.200 9.444,10.191 C9.444,10.182 9.444,10.174 9.444,10.165 C9.452,10.161 9.461,10.156 9.469,10.152 C9.469,10.143 9.469,10.135 9.469,10.126 C9.477,10.122 9.486,10.117 9.494,10.113 C9.494,10.104 9.494,10.096 9.494,10.087 C9.503,10.083 9.511,10.078 9.519,10.074 C9.519,10.065 9.519,10.057 9.519,10.048 C9.528,10.044 9.536,10.039 9.545,10.035 C9.545,10.026 9.545,10.018 9.545,10.009 C9.553,10.005 9.561,10.000 9.570,9.996 C9.570,9.987 9.570,9.979 9.570,9.970 C9.578,9.966 9.587,9.961 9.595,9.957 C9.599,9.940 9.603,9.922 9.608,9.905 C9.616,9.901 9.624,9.896 9.633,9.892 C9.633,9.883 9.633,9.875 9.633,9.866 C9.637,9.866 9.641,9.866 9.645,9.866 C9.645,9.857 9.645,9.849 9.645,9.840 C9.654,9.836 9.662,9.831 9.671,9.827 C9.679,9.801 9.687,9.775 9.696,9.749 C9.704,9.745 9.712,9.740 9.721,9.736 C9.721,9.727 9.721,9.719 9.721,9.710 C9.725,9.710 9.729,9.710 9.733,9.710 C9.733,9.701 9.733,9.693 9.733,9.684 C9.738,9.684 9.742,9.684 9.746,9.684 C9.746,9.675 9.746,9.667 9.746,9.658 C9.750,9.658 9.754,9.658 9.759,9.658 C9.759,9.649 9.759,9.641 9.759,9.632 C9.763,9.632 9.767,9.632 9.771,9.632 C9.771,9.623 9.771,9.615 9.771,9.606 C9.775,9.606 9.780,9.606 9.784,9.606 C9.784,9.597 9.784,9.589 9.784,9.580 C9.788,9.580 9.792,9.580 9.796,9.580 C9.796,9.571 9.796,9.563 9.796,9.554 C9.801,9.554 9.805,9.554 9.809,9.554 C9.809,9.545 9.809,9.537 9.809,9.528 C9.813,9.528 9.817,9.528 9.822,9.528 C9.822,9.519 9.822,9.511 9.822,9.502 C9.826,9.502 9.830,9.502 9.834,9.502 C9.834,9.493 9.834,9.485 9.834,9.476 C9.838,9.476 9.843,9.476 9.847,9.476 C9.847,9.467 9.847,9.459 9.847,9.450 C9.851,9.450 9.855,9.450 9.859,9.450 C9.864,9.433 9.868,9.415 9.872,9.398 C9.876,9.398 9.880,9.398 9.885,9.398 C9.885,9.389 9.885,9.381 9.885,9.372 C9.889,9.372 9.893,9.372 9.897,9.372 C9.897,9.359 9.897,9.346 9.897,9.333 C9.901,9.333 9.906,9.333 9.910,9.333 C9.910,9.324 9.910,9.316 9.910,9.307 C9.914,9.307 9.918,9.307 9.922,9.307 C9.927,9.290 9.931,9.272 9.935,9.255 C9.939,9.255 9.943,9.255 9.948,9.255 C9.948,9.242 9.948,9.229 9.948,9.216 C9.952,9.216 9.956,9.216 9.960,9.216 C9.960,9.207 9.960,9.199 9.960,9.190 C9.964,9.190 9.969,9.190 9.973,9.190 C9.973,9.177 9.973,9.164 9.973,9.151 C9.977,9.151 9.981,9.151 9.985,9.151 C9.985,9.142 9.985,9.134 9.985,9.125 C9.990,9.125 9.994,9.125 9.998,9.125 C9.998,9.112 9.998,9.099 9.998,9.086 C10.002,9.086 10.006,9.086 10.010,9.086 C10.010,9.077 10.010,9.069 10.010,9.060 C10.015,9.060 10.019,9.060 10.023,9.060 C10.027,9.034 10.031,9.008 10.036,8.982 C10.040,8.982 10.044,8.982 10.048,8.982 C10.048,8.973 10.048,8.965 10.048,8.956 C10.052,8.956 10.057,8.956 10.061,8.956 C10.065,8.930 10.069,8.904 10.073,8.878 C10.078,8.878 10.082,8.878 10.086,8.878 C10.086,8.865 10.086,8.852 10.086,8.839 C10.090,8.839 10.094,8.839 10.099,8.839 C10.099,8.826 10.099,8.813 10.099,8.800 C10.103,8.800 10.107,8.800 10.111,8.800 C10.111,8.787 10.111,8.774 10.111,8.761 C10.115,8.761 10.120,8.761 10.124,8.761 C10.124,8.748 10.124,8.735 10.124,8.722 C10.128,8.722 10.132,8.722 10.136,8.722 C10.136,8.705 10.136,8.687 10.136,8.670 C10.141,8.670 10.145,8.670 10.149,8.670 C10.149,8.657 10.149,8.644 10.149,8.631 C10.153,8.631 10.157,8.631 10.162,8.631 C10.166,8.601 10.170,8.570 10.174,8.540 C10.178,8.540 10.183,8.540 10.187,8.540 C10.187,8.523 10.187,8.505 10.187,8.488 C10.191,8.488 10.195,8.488 10.199,8.488 C10.204,8.453 10.208,8.419 10.212,8.384 C10.216,8.384 10.220,8.384 10.225,8.384 C10.229,8.349 10.233,8.315 10.237,8.280 C10.241,8.280 10.246,8.280 10.250,8.280 C10.250,8.258 10.250,8.237 10.250,8.215 C10.254,8.215 10.258,8.215 10.262,8.215 C10.262,8.198 10.262,8.180 10.262,8.163 C10.267,8.163 10.271,8.163 10.275,8.163 C10.275,8.142 10.275,8.120 10.275,8.098 C10.279,8.098 10.283,8.098 10.288,8.098 C10.288,8.072 10.288,8.046 10.288,8.020 C10.292,8.020 10.296,8.020 10.300,8.020 C10.300,7.999 10.300,7.977 10.300,7.955 C10.304,7.955 10.308,7.955 10.313,7.955 C10.313,7.929 10.313,7.903 10.313,7.877 C10.317,7.877 10.321,7.877 10.325,7.877 C10.325,7.847 10.325,7.817 10.325,7.786 C10.329,7.786 10.334,7.786 10.338,7.786 C10.338,7.756 10.338,7.726 10.338,7.695 C10.342,7.695 10.346,7.695 10.350,7.695 C10.350,7.661 10.350,7.626 10.350,7.591 C10.355,7.591 10.359,7.591 10.363,7.591 C10.363,7.548 10.363,7.505 10.363,7.461 C10.367,7.461 10.371,7.461 10.376,7.461 C10.376,7.409 10.376,7.357 10.376,7.305 C10.380,7.305 10.384,7.305 10.388,7.305 C10.388,7.223 10.388,7.141 10.388,7.058 C10.415,6.958 10.416,6.664 10.388,6.564 C10.388,6.486 10.388,6.408 10.388,6.330 C10.384,6.330 10.380,6.330 10.376,6.330 C10.367,6.200 10.359,6.070 10.350,5.940 C10.329,5.863 10.322,5.755 10.300,5.680 C10.300,5.654 10.300,5.628 10.300,5.602 C10.296,5.602 10.292,5.602 10.288,5.602 C10.283,5.559 10.279,5.516 10.275,5.472 C10.271,5.472 10.267,5.472 10.262,5.472 C10.262,5.451 10.262,5.429 10.262,5.407 C10.258,5.407 10.254,5.407 10.250,5.407 C10.246,5.368 10.241,5.329 10.237,5.290 C10.233,5.290 10.229,5.290 10.225,5.290 C10.225,5.273 10.225,5.256 10.225,5.238 C10.220,5.238 10.216,5.238 10.212,5.238 C10.212,5.221 10.212,5.204 10.212,5.186 C10.208,5.186 10.204,5.186 10.199,5.186 C10.199,5.169 10.199,5.152 10.199,5.134 C10.195,5.134 10.191,5.134 10.187,5.134 C10.187,5.121 10.187,5.108 10.187,5.095 C10.183,5.095 10.178,5.095 10.174,5.095 C10.174,5.078 10.174,5.061 10.174,5.043 C10.170,5.043 10.166,5.043 10.162,5.043 C10.157,5.013 10.153,4.983 10.149,4.952 C10.145,4.952 10.141,4.952 10.136,4.952 C10.136,4.939 10.136,4.926 10.136,4.913 C10.132,4.913 10.128,4.913 10.124,4.913 C10.124,4.901 10.124,4.888 10.124,4.875 C10.120,4.875 10.115,4.875 10.111,4.875 C10.111,4.862 10.111,4.849 10.111,4.836 C10.107,4.836 10.103,4.836 10.099,4.836 C10.099,4.823 10.099,4.810 10.099,4.797 C10.094,4.797 10.090,4.797 10.086,4.797 C10.086,4.784 10.086,4.771 10.086,4.758 C10.082,4.758 10.078,4.758 10.073,4.758 C10.065,4.719 10.057,4.680 10.048,4.641 C10.044,4.641 10.040,4.641 10.036,4.641 C10.036,4.632 10.036,4.623 10.036,4.615 C10.031,4.615 10.027,4.615 10.023,4.615 C10.019,4.589 10.015,4.563 10.010,4.537 C10.006,4.537 10.002,4.537 9.998,4.537 C9.994,4.515 9.990,4.493 9.985,4.472 C9.981,4.472 9.977,4.472 9.973,4.472 C9.973,4.463 9.973,4.454 9.973,4.446 C9.969,4.446 9.964,4.446 9.960,4.446 C9.960,4.433 9.960,4.420 9.960,4.407 C9.956,4.407 9.952,4.407 9.948,4.407 C9.943,4.389 9.939,4.372 9.935,4.355 C9.931,4.355 9.927,4.355 9.922,4.355 C9.922,4.342 9.922,4.329 9.922,4.316 C9.918,4.316 9.914,4.316 9.910,4.316 C9.901,4.290 9.893,4.264 9.885,4.238 C9.880,4.238 9.876,4.238 9.872,4.238 C9.872,4.229 9.872,4.220 9.872,4.212 C9.868,4.212 9.864,4.212 9.859,4.212 C9.859,4.199 9.859,4.186 9.859,4.173 C9.855,4.173 9.851,4.173 9.847,4.173 C9.838,4.147 9.830,4.121 9.822,4.095 C9.817,4.095 9.813,4.095 9.809,4.095 C9.809,4.086 9.809,4.077 9.809,4.069 C9.805,4.069 9.801,4.069 9.796,4.069 C9.788,4.043 9.780,4.017 9.771,3.991 C9.763,3.986 9.754,3.982 9.746,3.978 C9.746,3.969 9.746,3.960 9.746,3.952 C9.742,3.952 9.738,3.952 9.733,3.952 C9.733,3.943 9.733,3.934 9.733,3.926 C9.729,3.926 9.725,3.926 9.721,3.926 C9.721,3.917 9.721,3.908 9.721,3.900 C9.717,3.900 9.712,3.900 9.708,3.900 C9.708,3.891 9.708,3.882 9.708,3.874 C9.704,3.874 9.700,3.874 9.696,3.874 C9.696,3.865 9.696,3.856 9.696,3.848 C9.687,3.843 9.679,3.839 9.671,3.835 C9.666,3.817 9.662,3.800 9.658,3.783 C9.650,3.778 9.641,3.774 9.633,3.770 C9.629,3.752 9.624,3.735 9.620,3.718 C9.612,3.713 9.603,3.709 9.595,3.705 C9.591,3.687 9.587,3.670 9.582,3.653 C9.574,3.648 9.566,3.644 9.557,3.640 C9.557,3.631 9.557,3.622 9.557,3.614 C9.549,3.609 9.540,3.605 9.532,3.601 C9.532,3.592 9.532,3.583 9.532,3.575 C9.528,3.575 9.524,3.575 9.519,3.575 C9.515,3.562 9.511,3.549 9.507,3.536 C9.498,3.531 9.490,3.527 9.482,3.523 C9.482,3.514 9.482,3.505 9.482,3.497 C9.473,3.492 9.465,3.488 9.456,3.484 C9.456,3.475 9.456,3.466 9.456,3.458 C9.444,3.449 9.431,3.440 9.419,3.432 C9.419,3.423 9.419,3.414 9.419,3.406 C9.410,3.401 9.402,3.397 9.393,3.393 C9.393,3.384 9.393,3.375 9.393,3.367 C9.381,3.358 9.368,3.349 9.356,3.341 C9.356,3.332 9.356,3.323 9.356,3.315 C9.339,3.302 9.322,3.289 9.305,3.276 C9.305,3.267 9.305,3.258 9.305,3.250 C9.289,3.237 9.272,3.224 9.255,3.211 C9.255,3.202 9.255,3.193 9.255,3.185 C9.234,3.167 9.213,3.150 9.192,3.133 C9.192,3.124 9.192,3.115 9.192,3.107 C9.158,3.076 9.125,3.046 9.091,3.016 C9.091,3.007 9.091,2.998 9.091,2.990 C9.058,2.959 9.024,2.929 8.991,2.899 C8.944,2.847 8.898,2.795 8.852,2.743 C8.839,2.738 8.827,2.734 8.814,2.730 C8.789,2.699 8.764,2.669 8.739,2.639 C8.730,2.639 8.722,2.639 8.714,2.639 C8.697,2.617 8.680,2.595 8.663,2.574 C8.655,2.574 8.646,2.574 8.638,2.574 C8.634,2.565 8.630,2.556 8.625,2.548 C8.621,2.548 8.617,2.548 8.613,2.548 C8.609,2.539 8.604,2.530 8.600,2.522 C8.592,2.522 8.583,2.522 8.575,2.522 C8.567,2.509 8.558,2.496 8.550,2.483 C8.537,2.478 8.525,2.474 8.512,2.470 C8.508,2.461 8.504,2.452 8.499,2.444 C8.491,2.444 8.483,2.444 8.474,2.444 C8.470,2.435 8.466,2.426 8.462,2.418 C8.453,2.418 8.445,2.418 8.437,2.418 C8.428,2.405 8.420,2.392 8.411,2.379 C8.403,2.379 8.395,2.379 8.386,2.379 C8.382,2.370 8.378,2.361 8.374,2.353 C8.361,2.348 8.348,2.344 8.336,2.340 C8.336,2.335 8.336,2.331 8.336,2.327 C8.327,2.327 8.319,2.327 8.311,2.327 C8.306,2.318 8.302,2.309 8.298,2.301 C8.281,2.296 8.264,2.292 8.248,2.288 C8.243,2.279 8.239,2.270 8.235,2.262 C8.218,2.257 8.201,2.253 8.185,2.249 C8.180,2.240 8.176,2.231 8.172,2.223 C8.155,2.218 8.139,2.214 8.122,2.210 C8.118,2.201 8.113,2.192 8.109,2.184 C8.101,2.184 8.092,2.184 8.084,2.184 C8.084,2.179 8.084,2.175 8.084,2.171 C8.076,2.171 8.067,2.171 8.059,2.171 C8.059,2.166 8.059,2.162 8.059,2.158 C8.050,2.158 8.042,2.158 8.034,2.158 C8.034,2.153 8.034,2.149 8.034,2.145 C8.025,2.145 8.017,2.145 8.008,2.145 C8.008,2.140 8.008,2.136 8.008,2.132 C8.000,2.132 7.992,2.132 7.983,2.132 C7.983,2.127 7.983,2.123 7.983,2.119 C7.975,2.119 7.966,2.119 7.958,2.119 C7.958,2.114 7.958,2.110 7.958,2.106 C7.950,2.106 7.941,2.106 7.933,2.106 C7.933,2.101 7.933,2.097 7.933,2.093 C7.924,2.093 7.916,2.093 7.908,2.093 C7.908,2.088 7.908,2.084 7.908,2.080 C7.899,2.080 7.891,2.080 7.882,2.080 C7.882,2.075 7.882,2.071 7.882,2.067 C7.857,2.058 7.832,2.049 7.807,2.041 C7.807,2.036 7.807,2.032 7.807,2.028 C7.794,2.028 7.782,2.028 7.769,2.028 C7.769,2.023 7.769,2.019 7.769,2.015 C7.752,2.010 7.736,2.006 7.719,2.002 C7.719,1.997 7.719,1.993 7.719,1.989 C7.706,1.989 7.694,1.989 7.681,1.989 C7.681,1.984 7.681,1.980 7.681,1.976 C7.664,1.971 7.647,1.967 7.631,1.963 C7.631,1.958 7.631,1.954 7.631,1.950 C7.605,1.945 7.580,1.941 7.555,1.937 C7.555,1.932 7.555,1.928 7.555,1.924 C7.547,1.924 7.538,1.924 7.530,1.924 C7.530,1.919 7.530,1.915 7.530,1.911 C7.370,1.863 7.211,1.815 7.051,1.768 C7.030,1.768 7.009,1.768 6.988,1.768 C6.880,1.733 6.738,1.724 6.623,1.690 C6.409,1.677 6.195,1.664 5.981,1.651 Z"/>
</svg>