<svg 
 xmlns="http://www.w3.org/2000/svg"
 xmlns:xlink="http://www.w3.org/1999/xlink"
 width="19px" height="15px">
<path fill-rule="evenodd"  fill="rgb(255, 192, 89)"
 d="M19.000,1.810 C18.980,1.895 18.953,1.935 18.906,1.991 C18.896,1.991 18.885,1.991 18.875,1.991 C18.875,2.011 18.875,2.031 18.875,2.052 C18.854,2.062 18.833,2.072 18.812,2.082 C18.812,2.102 18.812,2.122 18.812,2.142 C18.770,2.172 18.729,2.202 18.687,2.233 C18.687,2.253 18.687,2.273 18.687,2.293 C18.656,2.313 18.624,2.333 18.593,2.353 C18.593,2.373 18.593,2.393 18.593,2.414 C18.520,2.474 18.447,2.534 18.374,2.595 C18.364,2.625 18.353,2.655 18.343,2.685 C18.217,2.796 18.092,2.906 17.967,3.017 C17.873,3.118 17.779,3.218 17.685,3.319 C17.664,3.319 17.644,3.319 17.623,3.319 C17.612,3.339 17.602,3.359 17.591,3.379 C17.560,3.389 17.529,3.399 17.498,3.409 C17.466,3.449 17.435,3.490 17.404,3.530 C17.383,3.530 17.362,3.530 17.341,3.530 C17.310,3.570 17.278,3.610 17.247,3.651 C17.226,3.651 17.205,3.651 17.185,3.651 C17.174,3.671 17.164,3.691 17.153,3.711 C17.143,3.711 17.132,3.711 17.122,3.711 C17.122,4.063 17.122,4.415 17.122,4.767 C17.045,4.858 17.131,5.055 17.091,5.189 C17.018,5.632 16.945,6.074 16.871,6.517 C16.861,6.517 16.851,6.517 16.840,6.517 C16.840,6.557 16.840,6.597 16.840,6.637 C16.830,6.637 16.819,6.637 16.809,6.637 C16.788,6.758 16.767,6.879 16.746,6.999 C16.736,6.999 16.725,6.999 16.715,6.999 C16.715,7.030 16.715,7.060 16.715,7.090 C16.705,7.090 16.694,7.090 16.684,7.090 C16.684,7.130 16.684,7.170 16.684,7.211 C16.673,7.211 16.663,7.211 16.652,7.211 C16.652,7.241 16.652,7.271 16.652,7.301 C16.642,7.301 16.632,7.301 16.621,7.301 C16.621,7.331 16.621,7.361 16.621,7.392 C16.611,7.392 16.600,7.392 16.590,7.392 C16.590,7.422 16.590,7.452 16.590,7.482 C16.579,7.482 16.569,7.482 16.558,7.482 C16.558,7.512 16.558,7.542 16.558,7.573 C16.548,7.573 16.538,7.573 16.527,7.573 C16.517,7.643 16.506,7.713 16.496,7.784 C16.485,7.784 16.475,7.784 16.465,7.784 C16.465,7.804 16.465,7.824 16.465,7.844 C16.454,7.844 16.444,7.844 16.433,7.844 C16.423,7.904 16.412,7.965 16.402,8.025 C16.392,8.025 16.381,8.025 16.371,8.025 C16.371,8.045 16.371,8.065 16.371,8.085 C16.360,8.085 16.350,8.085 16.339,8.085 C16.339,8.116 16.339,8.146 16.339,8.176 C16.329,8.176 16.319,8.176 16.308,8.176 C16.308,8.206 16.308,8.236 16.308,8.266 C16.298,8.266 16.287,8.266 16.277,8.266 C16.266,8.307 16.256,8.347 16.245,8.387 C16.235,8.387 16.225,8.387 16.214,8.387 C16.214,8.417 16.214,8.448 16.214,8.478 C16.204,8.478 16.193,8.478 16.183,8.478 C16.172,8.518 16.162,8.558 16.152,8.598 C16.141,8.598 16.131,8.598 16.120,8.598 C16.120,8.629 16.120,8.659 16.120,8.689 C16.110,8.689 16.099,8.689 16.089,8.689 C16.068,8.749 16.047,8.810 16.026,8.870 C16.016,8.870 16.005,8.870 15.995,8.870 C15.995,8.890 15.995,8.910 15.995,8.930 C15.985,8.930 15.974,8.930 15.964,8.930 C15.964,8.950 15.964,8.970 15.964,8.991 C15.953,8.991 15.943,8.991 15.932,8.991 C15.932,9.011 15.932,9.031 15.932,9.051 C15.922,9.051 15.912,9.051 15.901,9.051 C15.901,9.071 15.901,9.091 15.901,9.111 C15.891,9.111 15.880,9.111 15.870,9.111 C15.870,9.131 15.870,9.151 15.870,9.172 C15.859,9.172 15.849,9.172 15.839,9.172 C15.839,9.192 15.839,9.212 15.839,9.232 C15.828,9.232 15.818,9.232 15.807,9.232 C15.807,9.252 15.807,9.272 15.807,9.292 C15.797,9.292 15.786,9.292 15.776,9.292 C15.776,9.312 15.776,9.332 15.776,9.353 C15.766,9.353 15.755,9.353 15.745,9.353 C15.745,9.373 15.745,9.393 15.745,9.413 C15.734,9.413 15.724,9.413 15.713,9.413 C15.713,9.433 15.713,9.453 15.713,9.473 C15.703,9.473 15.692,9.473 15.682,9.473 C15.682,9.493 15.682,9.514 15.682,9.534 C15.661,9.544 15.640,9.554 15.619,9.564 C15.599,9.624 15.578,9.684 15.557,9.745 C15.536,9.755 15.515,9.765 15.494,9.775 C15.484,9.815 15.473,9.855 15.463,9.896 C15.452,9.896 15.442,9.896 15.432,9.896 C15.421,9.926 15.411,9.956 15.400,9.986 C15.379,9.996 15.359,10.006 15.338,10.016 C15.327,10.057 15.317,10.097 15.306,10.137 C15.296,10.137 15.286,10.137 15.275,10.137 C15.265,10.167 15.254,10.197 15.244,10.228 C15.223,10.238 15.202,10.248 15.181,10.258 C15.181,10.278 15.181,10.298 15.181,10.318 C15.160,10.328 15.139,10.338 15.119,10.348 C15.119,10.368 15.119,10.388 15.119,10.409 C15.087,10.429 15.056,10.449 15.025,10.469 C15.025,10.489 15.025,10.509 15.025,10.529 C15.014,10.529 15.004,10.529 14.993,10.529 C14.983,10.559 14.973,10.590 14.962,10.620 C14.941,10.630 14.920,10.640 14.900,10.650 C14.900,10.670 14.900,10.690 14.900,10.710 C14.868,10.730 14.837,10.750 14.806,10.771 C14.806,10.791 14.806,10.811 14.806,10.831 C14.774,10.851 14.743,10.871 14.712,10.891 C14.712,10.911 14.712,10.931 14.712,10.952 C14.670,10.982 14.628,11.012 14.586,11.042 C14.586,11.062 14.586,11.082 14.586,11.102 C14.534,11.143 14.482,11.183 14.430,11.223 C14.430,11.243 14.430,11.263 14.430,11.283 C14.378,11.324 14.326,11.364 14.273,11.404 C14.273,11.424 14.273,11.444 14.273,11.464 C14.169,11.555 14.065,11.646 13.960,11.736 C13.960,11.756 13.960,11.776 13.960,11.796 C13.940,11.806 13.919,11.816 13.898,11.827 C13.846,11.887 13.794,11.947 13.741,12.008 C13.720,12.008 13.700,12.008 13.679,12.008 C13.554,12.138 13.428,12.269 13.303,12.400 C13.282,12.400 13.261,12.400 13.241,12.400 C13.188,12.460 13.136,12.520 13.084,12.581 C13.063,12.581 13.042,12.581 13.021,12.581 C12.990,12.621 12.959,12.661 12.928,12.701 C12.907,12.701 12.886,12.701 12.865,12.701 C12.834,12.742 12.802,12.782 12.771,12.822 C12.750,12.822 12.729,12.822 12.708,12.822 C12.688,12.852 12.667,12.882 12.646,12.913 C12.625,12.913 12.604,12.913 12.583,12.913 C12.562,12.943 12.541,12.973 12.521,13.003 C12.500,13.003 12.479,13.003 12.458,13.003 C12.437,13.033 12.416,13.063 12.395,13.094 C12.375,13.094 12.354,13.094 12.333,13.094 C12.322,13.114 12.312,13.134 12.301,13.154 C12.281,13.154 12.260,13.154 12.239,13.154 C12.228,13.174 12.218,13.194 12.208,13.214 C12.176,13.224 12.145,13.234 12.114,13.244 C12.114,13.255 12.114,13.265 12.114,13.275 C12.072,13.285 12.030,13.295 11.988,13.305 C11.978,13.325 11.968,13.345 11.957,13.365 C11.936,13.365 11.915,13.365 11.895,13.365 C11.884,13.385 11.874,13.405 11.863,13.426 C11.842,13.426 11.822,13.426 11.801,13.426 C11.790,13.446 11.780,13.466 11.769,13.486 C11.748,13.486 11.728,13.486 11.707,13.486 C11.707,13.496 11.707,13.506 11.707,13.516 C11.686,13.516 11.665,13.516 11.644,13.516 C11.644,13.526 11.644,13.536 11.644,13.546 C11.623,13.546 11.602,13.546 11.582,13.546 C11.571,13.566 11.561,13.586 11.550,13.607 C11.529,13.607 11.509,13.607 11.488,13.607 C11.488,13.617 11.488,13.627 11.488,13.637 C11.467,13.637 11.446,13.637 11.425,13.637 C11.425,13.647 11.425,13.657 11.425,13.667 C11.404,13.667 11.383,13.667 11.362,13.667 C11.362,13.677 11.362,13.687 11.362,13.697 C11.342,13.697 11.321,13.697 11.300,13.697 C11.289,13.717 11.279,13.737 11.269,13.757 C11.248,13.757 11.227,13.757 11.206,13.757 C11.206,13.767 11.206,13.777 11.206,13.788 C11.185,13.788 11.164,13.788 11.143,13.788 C11.143,13.798 11.143,13.808 11.143,13.818 C11.122,13.818 11.102,13.818 11.081,13.818 C11.081,13.828 11.081,13.838 11.081,13.848 C11.060,13.848 11.039,13.848 11.018,13.848 C11.018,13.858 11.018,13.868 11.018,13.878 C10.997,13.878 10.976,13.878 10.956,13.878 C10.956,13.888 10.956,13.898 10.956,13.908 C10.935,13.908 10.914,13.908 10.893,13.908 C10.893,13.918 10.893,13.928 10.893,13.938 C10.830,13.959 10.768,13.979 10.705,13.999 C10.705,14.009 10.705,14.019 10.705,14.029 C10.674,14.029 10.643,14.029 10.611,14.029 C10.611,14.039 10.611,14.049 10.611,14.059 C10.590,14.059 10.569,14.059 10.549,14.059 C10.549,14.069 10.549,14.079 10.549,14.089 C10.517,14.089 10.486,14.089 10.455,14.089 C10.455,14.099 10.455,14.109 10.455,14.119 C10.434,14.119 10.413,14.119 10.392,14.119 C10.392,14.129 10.392,14.140 10.392,14.150 C10.350,14.160 10.309,14.170 10.267,14.180 C10.267,14.190 10.267,14.200 10.267,14.210 C10.173,14.230 10.079,14.250 9.985,14.270 C9.985,14.280 9.985,14.290 9.985,14.300 C9.964,14.300 9.943,14.300 9.923,14.300 C9.923,14.310 9.923,14.321 9.923,14.331 C9.870,14.341 9.818,14.351 9.766,14.361 C9.766,14.371 9.766,14.381 9.766,14.391 C9.693,14.401 9.620,14.411 9.547,14.421 C9.547,14.431 9.547,14.441 9.547,14.451 C9.516,14.451 9.484,14.451 9.453,14.451 C9.453,14.461 9.453,14.471 9.453,14.481 C9.349,14.502 9.244,14.522 9.140,14.542 C9.140,14.552 9.140,14.562 9.140,14.572 C9.098,14.572 9.057,14.572 9.015,14.572 C9.015,14.582 9.015,14.592 9.015,14.602 C8.973,14.602 8.931,14.602 8.890,14.602 C8.890,14.612 8.890,14.622 8.890,14.632 C8.848,14.632 8.806,14.632 8.764,14.632 C8.764,14.642 8.764,14.652 8.764,14.662 C8.723,14.662 8.681,14.662 8.639,14.662 C8.639,14.673 8.639,14.683 8.639,14.693 C8.597,14.693 8.556,14.693 8.514,14.693 C8.514,14.703 8.514,14.713 8.514,14.723 C8.462,14.723 8.410,14.723 8.357,14.723 C8.357,14.733 8.357,14.743 8.357,14.753 C8.305,14.753 8.253,14.753 8.201,14.753 C8.201,14.763 8.201,14.773 8.201,14.783 C8.138,14.783 8.076,14.783 8.013,14.783 C8.013,14.793 8.013,14.803 8.013,14.813 C7.940,14.813 7.867,14.813 7.794,14.813 C7.794,14.823 7.794,14.833 7.794,14.843 C7.648,14.854 7.502,14.864 7.356,14.874 C7.356,14.884 7.356,14.894 7.356,14.904 C7.116,14.914 6.876,14.924 6.636,14.934 C6.636,14.944 6.636,14.954 6.636,14.964 C6.532,14.964 6.427,14.964 6.323,14.964 C6.063,14.964 5.717,14.991 5.509,14.934 C5.248,14.924 4.987,14.914 4.727,14.904 C4.469,14.832 4.130,14.825 3.881,14.753 C3.819,14.753 3.756,14.753 3.694,14.753 C3.694,14.743 3.694,14.733 3.694,14.723 C3.652,14.723 3.610,14.723 3.568,14.723 C3.421,14.674 3.215,14.620 3.068,14.572 C2.953,14.552 2.838,14.532 2.723,14.512 C2.723,14.502 2.723,14.492 2.723,14.481 C2.702,14.481 2.681,14.481 2.661,14.481 C2.661,14.471 2.661,14.461 2.661,14.451 C2.619,14.451 2.577,14.451 2.535,14.451 C2.535,14.441 2.535,14.431 2.535,14.421 C2.504,14.421 2.473,14.421 2.442,14.421 C2.442,14.411 2.442,14.401 2.442,14.391 C2.410,14.391 2.379,14.391 2.348,14.391 C2.348,14.381 2.348,14.371 2.348,14.361 C2.316,14.361 2.285,14.361 2.254,14.361 C2.254,14.351 2.254,14.341 2.254,14.331 C2.233,14.331 2.212,14.331 2.191,14.331 C2.191,14.321 2.191,14.310 2.191,14.300 C2.097,14.280 2.003,14.260 1.909,14.240 C1.909,14.230 1.909,14.220 1.909,14.210 C1.857,14.200 1.805,14.190 1.753,14.180 C1.753,14.170 1.753,14.160 1.753,14.150 C1.732,14.150 1.711,14.150 1.690,14.150 C1.690,14.140 1.690,14.129 1.690,14.119 C1.649,14.109 1.607,14.099 1.565,14.089 C1.565,14.079 1.565,14.069 1.565,14.059 C1.461,14.029 1.356,13.999 1.252,13.969 C1.242,13.948 1.231,13.928 1.221,13.908 C1.200,13.908 1.179,13.908 1.158,13.908 C1.158,13.898 1.158,13.888 1.158,13.878 C1.064,13.848 0.970,13.818 0.876,13.788 C0.866,13.767 0.856,13.747 0.845,13.727 C0.824,13.727 0.803,13.727 0.783,13.727 C0.783,13.717 0.783,13.707 0.783,13.697 C0.762,13.697 0.741,13.697 0.720,13.697 C0.720,13.687 0.720,13.677 0.720,13.667 C0.689,13.667 0.657,13.667 0.626,13.667 C0.616,13.647 0.605,13.627 0.595,13.607 C0.563,13.596 0.532,13.586 0.501,13.576 C0.501,13.566 0.501,13.556 0.501,13.546 C0.480,13.546 0.459,13.546 0.438,13.546 C0.292,13.456 0.146,13.365 -0.000,13.275 C0.355,13.285 0.710,13.295 1.064,13.305 C1.210,13.305 1.356,13.305 1.502,13.305 C1.502,13.295 1.502,13.285 1.502,13.275 C1.607,13.275 1.711,13.275 1.815,13.275 C1.815,13.265 1.815,13.255 1.815,13.244 C1.899,13.244 1.982,13.244 2.066,13.244 C2.066,13.234 2.066,13.224 2.066,13.214 C2.128,13.214 2.191,13.214 2.254,13.214 C2.254,13.204 2.254,13.194 2.254,13.184 C2.306,13.184 2.358,13.184 2.410,13.184 C2.410,13.174 2.410,13.164 2.410,13.154 C2.462,13.154 2.515,13.154 2.567,13.154 C2.567,13.144 2.567,13.134 2.567,13.124 C2.619,13.124 2.671,13.124 2.723,13.124 C2.723,13.114 2.723,13.104 2.723,13.094 C2.775,13.094 2.828,13.094 2.880,13.094 C2.880,13.084 2.880,13.074 2.880,13.063 C2.911,13.063 2.942,13.063 2.974,13.063 C2.974,13.053 2.974,13.043 2.974,13.033 C3.005,13.033 3.036,13.033 3.068,13.033 C3.068,13.023 3.068,13.013 3.068,13.003 C3.099,13.003 3.130,13.003 3.161,13.003 C3.161,12.993 3.161,12.983 3.161,12.973 C3.193,12.973 3.224,12.973 3.255,12.973 C3.255,12.963 3.255,12.953 3.255,12.943 C3.360,12.923 3.464,12.903 3.568,12.882 C3.568,12.872 3.568,12.862 3.568,12.852 C3.589,12.852 3.610,12.852 3.631,12.852 C3.631,12.842 3.631,12.832 3.631,12.822 C3.798,12.772 3.965,12.722 4.132,12.671 C4.142,12.651 4.153,12.631 4.163,12.611 C4.236,12.591 4.309,12.571 4.382,12.551 C4.382,12.541 4.382,12.530 4.382,12.520 C4.403,12.520 4.424,12.520 4.445,12.520 C4.445,12.510 4.445,12.500 4.445,12.490 C4.466,12.490 4.487,12.490 4.507,12.490 C4.518,12.470 4.528,12.450 4.539,12.430 C4.570,12.430 4.601,12.430 4.633,12.430 C4.633,12.420 4.633,12.410 4.633,12.400 C4.653,12.400 4.674,12.400 4.695,12.400 C4.695,12.390 4.695,12.380 4.695,12.370 C4.716,12.370 4.737,12.370 4.758,12.370 C4.768,12.349 4.779,12.329 4.789,12.309 C4.810,12.309 4.831,12.309 4.852,12.309 C4.862,12.289 4.873,12.269 4.883,12.249 C4.925,12.239 4.967,12.229 5.008,12.219 C5.019,12.199 5.029,12.178 5.040,12.158 C5.081,12.148 5.123,12.138 5.165,12.128 C5.175,12.108 5.186,12.088 5.196,12.068 C5.217,12.068 5.238,12.068 5.259,12.068 C5.259,12.058 5.259,12.048 5.259,12.038 C5.290,12.028 5.321,12.018 5.353,12.008 C5.363,11.987 5.373,11.967 5.384,11.947 C5.405,11.947 5.426,11.947 5.446,11.947 C5.467,11.917 5.488,11.887 5.509,11.857 C5.530,11.857 5.551,11.857 5.572,11.857 C5.593,11.827 5.613,11.796 5.634,11.766 C5.666,11.756 5.697,11.746 5.728,11.736 C5.728,11.726 5.728,11.716 5.728,11.706 C5.686,11.706 5.645,11.706 5.603,11.706 C5.518,11.636 5.232,11.683 5.102,11.645 C5.102,11.635 5.102,11.625 5.102,11.615 C5.050,11.615 4.998,11.615 4.946,11.615 C4.946,11.605 4.946,11.595 4.946,11.585 C4.893,11.585 4.841,11.585 4.789,11.585 C4.789,11.575 4.789,11.565 4.789,11.555 C4.758,11.555 4.727,11.555 4.695,11.555 C4.695,11.545 4.695,11.535 4.695,11.525 C4.664,11.525 4.633,11.525 4.601,11.525 C4.601,11.515 4.601,11.505 4.601,11.495 C4.570,11.495 4.539,11.495 4.507,11.495 C4.507,11.485 4.507,11.475 4.507,11.464 C4.487,11.464 4.466,11.464 4.445,11.464 C4.445,11.454 4.445,11.444 4.445,11.434 C4.382,11.424 4.320,11.414 4.257,11.404 C4.257,11.394 4.257,11.384 4.257,11.374 C4.194,11.354 4.132,11.334 4.069,11.314 C4.069,11.304 4.069,11.294 4.069,11.283 C4.027,11.273 3.986,11.263 3.944,11.253 C3.934,11.233 3.923,11.213 3.913,11.193 C3.871,11.183 3.829,11.173 3.787,11.163 C3.777,11.143 3.767,11.123 3.756,11.102 C3.735,11.102 3.714,11.102 3.694,11.102 C3.683,11.082 3.673,11.062 3.662,11.042 C3.641,11.042 3.621,11.042 3.600,11.042 C3.589,11.022 3.579,11.002 3.568,10.982 C3.548,10.982 3.527,10.982 3.506,10.982 C3.474,10.942 3.443,10.901 3.412,10.861 C3.391,10.861 3.370,10.861 3.349,10.861 C3.297,10.801 3.245,10.740 3.193,10.680 C3.172,10.680 3.151,10.680 3.130,10.680 C3.088,10.630 3.047,10.579 3.005,10.529 C2.984,10.519 2.963,10.509 2.942,10.499 C2.942,10.479 2.942,10.459 2.942,10.439 C2.880,10.388 2.817,10.338 2.755,10.288 C2.755,10.268 2.755,10.248 2.755,10.228 C2.734,10.217 2.713,10.207 2.692,10.197 C2.692,10.177 2.692,10.157 2.692,10.137 C2.661,10.117 2.629,10.097 2.598,10.077 C2.598,10.057 2.598,10.036 2.598,10.016 C2.577,10.006 2.556,9.996 2.535,9.986 C2.535,9.966 2.535,9.946 2.535,9.926 C2.515,9.916 2.494,9.906 2.473,9.896 C2.452,9.835 2.431,9.775 2.410,9.715 C2.302,9.547 2.152,9.325 2.129,9.081 C2.247,9.087 2.353,9.117 2.442,9.141 C2.608,9.141 2.775,9.141 2.942,9.141 C3.015,9.141 3.088,9.141 3.161,9.141 C3.161,9.131 3.161,9.121 3.161,9.111 C3.255,9.111 3.349,9.111 3.443,9.111 C3.443,9.101 3.443,9.091 3.443,9.081 C3.568,9.061 3.694,9.041 3.819,9.021 C3.819,9.011 3.819,9.001 3.819,8.991 C3.601,8.981 3.468,8.902 3.318,8.840 C3.255,8.830 3.193,8.820 3.130,8.810 C3.130,8.799 3.130,8.789 3.130,8.779 C3.109,8.779 3.088,8.779 3.068,8.779 C3.068,8.769 3.068,8.759 3.068,8.749 C3.036,8.749 3.005,8.749 2.974,8.749 C2.974,8.739 2.974,8.729 2.974,8.719 C2.953,8.719 2.932,8.719 2.911,8.719 C2.901,8.699 2.890,8.679 2.880,8.659 C2.859,8.659 2.838,8.659 2.817,8.659 C2.817,8.649 2.817,8.639 2.817,8.629 C2.796,8.629 2.775,8.629 2.755,8.629 C2.755,8.618 2.755,8.608 2.755,8.598 C2.734,8.598 2.713,8.598 2.692,8.598 C2.692,8.588 2.692,8.578 2.692,8.568 C2.671,8.568 2.650,8.568 2.629,8.568 C2.629,8.558 2.629,8.548 2.629,8.538 C2.598,8.528 2.567,8.518 2.535,8.508 C2.525,8.488 2.515,8.468 2.504,8.448 C2.483,8.448 2.462,8.448 2.442,8.448 C2.431,8.427 2.421,8.407 2.410,8.387 C2.389,8.387 2.368,8.387 2.348,8.387 C2.316,8.347 2.285,8.307 2.254,8.266 C2.233,8.266 2.212,8.266 2.191,8.266 C2.170,8.236 2.149,8.206 2.129,8.176 C2.108,8.176 2.087,8.176 2.066,8.176 C2.035,8.136 2.003,8.096 1.972,8.055 C1.889,7.985 1.805,7.915 1.722,7.844 C1.722,7.824 1.722,7.804 1.722,7.784 C1.669,7.744 1.617,7.703 1.565,7.663 C1.565,7.643 1.565,7.623 1.565,7.603 C1.534,7.583 1.502,7.563 1.471,7.542 C1.471,7.522 1.471,7.502 1.471,7.482 C1.440,7.462 1.409,7.442 1.377,7.422 C1.367,7.382 1.356,7.341 1.346,7.301 C1.325,7.291 1.304,7.281 1.283,7.271 C1.273,7.231 1.262,7.190 1.252,7.150 C1.231,7.140 1.210,7.130 1.189,7.120 C1.158,7.030 1.127,6.939 1.096,6.849 C1.085,6.849 1.075,6.849 1.064,6.849 C1.054,6.808 1.043,6.768 1.033,6.728 C1.023,6.728 1.012,6.728 1.002,6.728 C1.002,6.698 1.002,6.667 1.002,6.637 C0.991,6.637 0.981,6.637 0.970,6.637 C0.970,6.617 0.970,6.597 0.970,6.577 C0.960,6.577 0.949,6.577 0.939,6.577 C0.939,6.537 0.939,6.497 0.939,6.456 C0.929,6.456 0.918,6.456 0.908,6.456 C0.908,6.426 0.908,6.396 0.908,6.366 C0.897,6.366 0.887,6.366 0.876,6.366 C0.876,6.336 0.876,6.305 0.876,6.275 C0.866,6.275 0.856,6.275 0.845,6.275 C0.845,6.235 0.845,6.195 0.845,6.155 C0.760,5.902 0.773,5.571 0.720,5.280 C0.880,5.294 0.954,5.375 1.064,5.431 C1.085,5.431 1.106,5.431 1.127,5.431 C1.127,5.441 1.127,5.451 1.127,5.461 C1.189,5.471 1.252,5.481 1.315,5.491 C1.315,5.501 1.315,5.511 1.315,5.521 C1.336,5.521 1.356,5.521 1.377,5.521 C1.377,5.531 1.377,5.541 1.377,5.551 C1.450,5.561 1.523,5.571 1.596,5.581 C1.842,5.662 2.158,5.719 2.473,5.732 C2.473,5.722 2.473,5.712 2.473,5.702 C2.434,5.682 2.430,5.655 2.410,5.642 C2.389,5.642 2.368,5.642 2.348,5.642 C2.327,5.612 2.306,5.581 2.285,5.551 C2.264,5.551 2.243,5.551 2.222,5.551 C2.170,5.491 2.118,5.431 2.066,5.370 C2.045,5.370 2.024,5.370 2.003,5.370 C1.941,5.300 1.878,5.229 1.815,5.159 C1.795,5.149 1.774,5.139 1.753,5.129 C1.753,5.109 1.753,5.089 1.753,5.069 C1.711,5.038 1.669,5.008 1.628,4.978 C1.628,4.958 1.628,4.938 1.628,4.918 C1.607,4.908 1.586,4.898 1.565,4.887 C1.565,4.877 1.565,4.867 1.565,4.857 C1.544,4.847 1.523,4.837 1.502,4.827 C1.502,4.807 1.502,4.787 1.502,4.767 C1.482,4.757 1.461,4.747 1.440,4.737 C1.440,4.717 1.440,4.696 1.440,4.676 C1.419,4.666 1.398,4.656 1.377,4.646 C1.367,4.606 1.356,4.566 1.346,4.525 C1.325,4.515 1.304,4.505 1.283,4.495 C1.273,4.465 1.262,4.435 1.252,4.405 C1.242,4.405 1.231,4.405 1.221,4.405 C1.210,4.354 1.200,4.304 1.189,4.254 C1.179,4.254 1.169,4.254 1.158,4.254 C1.158,4.234 1.158,4.214 1.158,4.194 C1.148,4.194 1.137,4.194 1.127,4.194 C1.106,4.133 1.085,4.073 1.064,4.013 C1.054,4.013 1.043,4.013 1.033,4.013 C1.033,3.982 1.033,3.952 1.033,3.922 C1.023,3.922 1.012,3.922 1.002,3.922 C1.002,3.892 1.002,3.862 1.002,3.832 C0.991,3.832 0.981,3.832 0.970,3.832 C0.970,3.801 0.970,3.771 0.970,3.741 C0.960,3.741 0.949,3.741 0.939,3.741 C0.939,3.711 0.939,3.681 0.939,3.651 C0.929,3.651 0.918,3.651 0.908,3.651 C0.908,3.610 0.908,3.570 0.908,3.530 C0.897,3.530 0.887,3.530 0.876,3.530 C0.876,3.480 0.876,3.429 0.876,3.379 C0.866,3.379 0.856,3.379 0.845,3.379 C0.845,3.339 0.845,3.299 0.845,3.258 C0.835,3.258 0.824,3.258 0.814,3.258 C0.814,3.208 0.814,3.158 0.814,3.107 C0.803,3.107 0.793,3.107 0.783,3.107 C0.783,2.957 0.783,2.806 0.783,2.655 C0.772,2.625 0.762,2.595 0.751,2.564 C0.762,2.564 0.772,2.564 0.783,2.564 C0.783,2.404 0.783,2.243 0.783,2.082 C0.793,2.082 0.803,2.082 0.814,2.082 C0.814,2.031 0.814,1.981 0.814,1.931 C0.824,1.931 0.835,1.931 0.845,1.931 C0.856,1.840 0.866,1.750 0.876,1.659 C0.887,1.659 0.897,1.659 0.908,1.659 C0.908,1.619 0.908,1.579 0.908,1.539 C0.918,1.539 0.929,1.539 0.939,1.539 C0.939,1.508 0.939,1.478 0.939,1.448 C0.949,1.448 0.960,1.448 0.970,1.448 C0.970,1.418 0.970,1.388 0.970,1.358 C0.981,1.358 0.991,1.358 1.002,1.358 C1.012,1.297 1.023,1.237 1.033,1.177 C1.043,1.177 1.054,1.177 1.064,1.177 C1.064,1.157 1.064,1.136 1.064,1.116 C1.075,1.116 1.085,1.116 1.096,1.116 C1.096,1.096 1.096,1.076 1.096,1.056 C1.106,1.056 1.116,1.056 1.127,1.056 C1.127,1.036 1.127,1.016 1.127,0.996 C1.137,0.996 1.148,0.996 1.158,0.996 C1.158,0.975 1.158,0.955 1.158,0.935 C1.169,0.935 1.179,0.935 1.189,0.935 C1.189,0.915 1.189,0.895 1.189,0.875 C1.200,0.875 1.210,0.875 1.221,0.875 C1.221,0.855 1.221,0.835 1.221,0.815 C1.231,0.815 1.242,0.815 1.252,0.815 C1.262,0.784 1.273,0.754 1.283,0.724 C1.304,0.724 1.325,0.724 1.346,0.724 C1.485,0.963 1.715,1.140 1.909,1.327 C2.138,1.548 2.331,1.775 2.598,1.961 C2.650,2.021 2.702,2.082 2.755,2.142 C2.775,2.142 2.796,2.142 2.817,2.142 C2.859,2.192 2.901,2.243 2.942,2.293 C2.963,2.293 2.984,2.293 3.005,2.293 C3.015,2.313 3.026,2.333 3.036,2.353 C3.047,2.353 3.057,2.353 3.068,2.353 C3.078,2.373 3.088,2.393 3.099,2.414 C3.120,2.414 3.141,2.414 3.161,2.414 C3.172,2.434 3.182,2.454 3.193,2.474 C3.214,2.474 3.234,2.474 3.255,2.474 C3.287,2.514 3.318,2.554 3.349,2.595 C3.370,2.595 3.391,2.595 3.412,2.595 C3.422,2.615 3.433,2.635 3.443,2.655 C3.464,2.655 3.485,2.655 3.506,2.655 C3.527,2.685 3.548,2.715 3.568,2.745 C3.589,2.745 3.610,2.745 3.631,2.745 C3.641,2.766 3.652,2.786 3.662,2.806 C3.683,2.806 3.704,2.806 3.725,2.806 C3.735,2.826 3.746,2.846 3.756,2.866 C3.777,2.866 3.798,2.866 3.819,2.866 C3.829,2.886 3.840,2.906 3.850,2.926 C3.871,2.926 3.892,2.926 3.913,2.926 C3.923,2.947 3.934,2.967 3.944,2.987 C3.986,2.997 4.027,3.007 4.069,3.017 C4.080,3.037 4.090,3.057 4.100,3.077 C4.132,3.087 4.163,3.097 4.194,3.107 C4.194,3.118 4.194,3.128 4.194,3.138 C4.236,3.148 4.278,3.158 4.320,3.168 C4.320,3.178 4.320,3.188 4.320,3.198 C4.340,3.198 4.361,3.198 4.382,3.198 C4.393,3.218 4.403,3.238 4.414,3.258 C4.434,3.258 4.455,3.258 4.476,3.258 C4.476,3.268 4.476,3.278 4.476,3.288 C4.497,3.288 4.518,3.288 4.539,3.288 C4.539,3.299 4.539,3.309 4.539,3.319 C4.560,3.319 4.580,3.319 4.601,3.319 C4.601,3.329 4.601,3.339 4.601,3.349 C4.622,3.349 4.643,3.349 4.664,3.349 C4.664,3.359 4.664,3.369 4.664,3.379 C4.685,3.379 4.706,3.379 4.727,3.379 C4.737,3.399 4.747,3.419 4.758,3.439 C4.800,3.449 4.841,3.459 4.883,3.470 C4.883,3.480 4.883,3.490 4.883,3.500 C4.946,3.520 5.008,3.540 5.071,3.560 C5.071,3.570 5.071,3.580 5.071,3.590 C5.102,3.590 5.133,3.590 5.165,3.590 C5.165,3.600 5.165,3.610 5.165,3.620 C5.186,3.620 5.206,3.620 5.227,3.620 C5.238,3.640 5.248,3.661 5.259,3.681 C5.363,3.711 5.467,3.741 5.572,3.771 C5.572,3.781 5.572,3.791 5.572,3.801 C5.613,3.811 5.655,3.821 5.697,3.832 C5.697,3.842 5.697,3.852 5.697,3.862 C5.749,3.872 5.801,3.882 5.853,3.892 C5.853,3.902 5.853,3.912 5.853,3.922 C5.947,3.942 6.041,3.962 6.135,3.982 C7.064,4.372 8.143,4.525 9.359,4.646 C9.354,4.512 9.325,4.412 9.297,4.314 C9.297,4.194 9.297,4.073 9.297,3.952 C9.286,3.952 9.276,3.952 9.265,3.952 C9.265,3.832 9.265,3.711 9.265,3.590 C9.276,3.590 9.286,3.590 9.297,3.590 C9.307,3.409 9.317,3.228 9.328,3.047 C9.401,2.806 9.474,2.564 9.547,2.323 C9.557,2.323 9.568,2.323 9.578,2.323 C9.599,2.263 9.620,2.202 9.641,2.142 C9.651,2.142 9.662,2.142 9.672,2.142 C9.672,2.122 9.672,2.102 9.672,2.082 C9.683,2.082 9.693,2.082 9.703,2.082 C9.724,2.021 9.745,1.961 9.766,1.901 C9.787,1.891 9.808,1.881 9.829,1.871 C9.829,1.850 9.829,1.830 9.829,1.810 C9.850,1.800 9.870,1.790 9.891,1.780 C9.902,1.740 9.912,1.700 9.923,1.659 C9.943,1.649 9.964,1.639 9.985,1.629 C9.996,1.599 10.006,1.569 10.016,1.539 C10.048,1.519 10.079,1.498 10.110,1.478 C10.110,1.458 10.110,1.438 10.110,1.418 C10.173,1.368 10.236,1.317 10.298,1.267 C10.298,1.247 10.298,1.227 10.298,1.207 C10.371,1.146 10.444,1.086 10.517,1.026 C10.528,1.006 10.538,0.986 10.549,0.965 C10.569,0.965 10.590,0.965 10.611,0.965 C10.663,0.905 10.716,0.845 10.768,0.784 C10.789,0.784 10.809,0.784 10.830,0.784 C10.841,0.764 10.851,0.744 10.862,0.724 C10.882,0.724 10.903,0.724 10.924,0.724 C10.945,0.694 10.966,0.664 10.987,0.634 C11.008,0.634 11.029,0.634 11.049,0.634 C11.060,0.613 11.070,0.593 11.081,0.573 C11.143,0.553 11.206,0.533 11.269,0.513 C11.279,0.493 11.289,0.473 11.300,0.453 C11.342,0.442 11.383,0.432 11.425,0.422 C11.425,0.412 11.425,0.402 11.425,0.392 C11.467,0.382 11.509,0.372 11.550,0.362 C11.550,0.352 11.550,0.342 11.550,0.332 C11.582,0.332 11.613,0.332 11.644,0.332 C11.644,0.322 11.644,0.312 11.644,0.302 C11.686,0.292 11.728,0.282 11.769,0.272 C11.769,0.261 11.769,0.251 11.769,0.241 C11.905,0.211 12.041,0.181 12.176,0.151 C12.451,0.062 12.777,0.000 13.147,-0.000 C13.272,-0.000 13.397,-0.000 13.522,-0.000 C13.522,0.010 13.522,0.020 13.522,0.030 C13.668,0.040 13.814,0.050 13.960,0.060 C13.960,0.070 13.960,0.080 13.960,0.091 C14.002,0.091 14.044,0.091 14.086,0.091 C14.086,0.101 14.086,0.111 14.086,0.121 C14.127,0.121 14.169,0.121 14.211,0.121 C14.211,0.131 14.211,0.141 14.211,0.151 C14.253,0.151 14.294,0.151 14.336,0.151 C14.336,0.161 14.336,0.171 14.336,0.181 C14.367,0.181 14.399,0.181 14.430,0.181 C14.430,0.191 14.430,0.201 14.430,0.211 C14.461,0.211 14.493,0.211 14.524,0.211 C14.524,0.221 14.524,0.231 14.524,0.241 C14.576,0.251 14.628,0.261 14.680,0.272 C14.680,0.282 14.680,0.292 14.680,0.302 C14.701,0.302 14.722,0.302 14.743,0.302 C14.743,0.312 14.743,0.322 14.743,0.332 C14.837,0.362 14.931,0.392 15.025,0.422 C15.035,0.442 15.046,0.463 15.056,0.483 C15.119,0.503 15.181,0.523 15.244,0.543 C15.244,0.553 15.244,0.563 15.244,0.573 C15.275,0.583 15.306,0.593 15.338,0.603 C15.348,0.624 15.359,0.644 15.369,0.664 C15.390,0.664 15.411,0.664 15.432,0.664 C15.442,0.684 15.452,0.704 15.463,0.724 C15.599,0.813 15.725,0.887 15.839,0.996 C15.870,1.036 15.901,1.076 15.932,1.116 C15.953,1.116 15.974,1.116 15.995,1.116 C16.005,1.136 16.016,1.157 16.026,1.177 C16.079,1.177 16.131,1.177 16.183,1.177 C16.254,1.116 16.331,1.149 16.433,1.116 C16.433,1.106 16.433,1.096 16.433,1.086 C16.485,1.086 16.538,1.086 16.590,1.086 C16.590,1.076 16.590,1.066 16.590,1.056 C16.632,1.056 16.673,1.056 16.715,1.056 C16.715,1.046 16.715,1.036 16.715,1.026 C16.746,1.026 16.778,1.026 16.809,1.026 C16.809,1.016 16.809,1.006 16.809,0.996 C16.830,0.996 16.851,0.996 16.871,0.996 C16.871,0.986 16.871,0.975 16.871,0.965 C16.934,0.955 16.997,0.945 17.059,0.935 C17.059,0.925 17.059,0.915 17.059,0.905 C17.101,0.905 17.143,0.905 17.185,0.905 C17.185,0.895 17.185,0.885 17.185,0.875 C17.216,0.875 17.247,0.875 17.278,0.875 C17.278,0.865 17.278,0.855 17.278,0.845 C17.320,0.835 17.362,0.825 17.404,0.815 C17.404,0.805 17.404,0.794 17.404,0.784 C17.508,0.754 17.612,0.724 17.717,0.694 C17.717,0.684 17.717,0.674 17.717,0.664 C17.758,0.654 17.800,0.644 17.842,0.634 C17.842,0.624 17.842,0.613 17.842,0.603 C17.936,0.573 18.030,0.543 18.124,0.513 C18.254,0.444 18.359,0.340 18.530,0.302 C18.530,0.312 18.530,0.322 18.530,0.332 C18.520,0.332 18.510,0.332 18.499,0.332 C18.489,0.392 18.478,0.453 18.468,0.513 C18.457,0.513 18.447,0.513 18.437,0.513 C18.437,0.543 18.437,0.573 18.437,0.603 C18.426,0.603 18.416,0.603 18.405,0.603 C18.384,0.664 18.364,0.724 18.343,0.784 C18.332,0.784 18.322,0.784 18.311,0.784 C18.311,0.805 18.311,0.825 18.311,0.845 C18.301,0.845 18.290,0.845 18.280,0.845 C18.270,0.885 18.259,0.925 18.249,0.965 C18.238,0.965 18.228,0.965 18.217,0.965 C18.207,0.996 18.197,1.026 18.186,1.056 C18.165,1.066 18.144,1.076 18.124,1.086 C18.113,1.126 18.103,1.167 18.092,1.207 C18.071,1.217 18.051,1.227 18.030,1.237 C18.030,1.257 18.030,1.277 18.030,1.297 C17.998,1.317 17.967,1.338 17.936,1.358 C17.936,1.378 17.936,1.398 17.936,1.418 C17.915,1.428 17.894,1.438 17.873,1.448 C17.873,1.468 17.873,1.488 17.873,1.508 C17.800,1.569 17.727,1.629 17.654,1.690 C17.644,1.720 17.633,1.750 17.623,1.780 C17.602,1.780 17.581,1.780 17.560,1.780 C17.498,1.850 17.435,1.921 17.372,1.991 C17.362,1.991 17.351,1.991 17.341,1.991 C17.331,2.011 17.320,2.031 17.310,2.052 C17.289,2.052 17.268,2.052 17.247,2.052 C17.216,2.092 17.185,2.132 17.153,2.172 C17.059,2.222 16.965,2.273 16.871,2.323 C16.871,2.333 16.871,2.343 16.871,2.353 C16.913,2.353 16.955,2.353 16.997,2.353 C16.997,2.343 16.997,2.333 16.997,2.323 C17.059,2.323 17.122,2.323 17.185,2.323 C17.185,2.313 17.185,2.303 17.185,2.293 C17.247,2.293 17.310,2.293 17.372,2.293 C17.372,2.283 17.372,2.273 17.372,2.263 C17.424,2.263 17.477,2.263 17.529,2.263 C17.529,2.253 17.529,2.243 17.529,2.233 C17.571,2.233 17.612,2.233 17.654,2.233 C17.654,2.223 17.654,2.212 17.654,2.202 C17.706,2.202 17.758,2.202 17.811,2.202 C18.207,2.072 18.604,1.941 19.000,1.810 Z"/>
</svg>