<svg 
 xmlns="http://www.w3.org/2000/svg"
 xmlns:xlink="http://www.w3.org/1999/xlink"
 width="8px" height="15px">
<path fill-rule="evenodd"  fill="rgb(255, 192, 89)"
 d="M8.000,0.106 C8.000,0.901 8.000,1.696 8.000,2.491 C7.589,2.491 7.177,2.492 6.766,2.492 C6.696,2.492 6.626,2.492 6.556,2.492 C6.535,2.492 6.513,2.492 6.491,2.492 C6.480,2.492 6.466,2.491 6.457,2.493 C6.443,2.493 6.428,2.493 6.414,2.493 C6.405,2.496 6.391,2.492 6.382,2.495 C6.382,2.495 6.382,2.496 6.382,2.496 C6.371,2.497 6.360,2.497 6.349,2.498 C6.344,2.498 6.338,2.498 6.333,2.498 C6.333,2.498 6.333,2.499 6.333,2.499 C6.326,2.499 6.320,2.499 6.314,2.499 C6.314,2.500 6.314,2.500 6.314,2.501 C6.302,2.501 6.290,2.502 6.278,2.502 C6.278,2.503 6.278,2.503 6.278,2.504 C6.273,2.504 6.268,2.504 6.263,2.504 C6.263,2.504 6.263,2.504 6.263,2.505 C6.258,2.505 6.253,2.505 6.249,2.505 C6.249,2.505 6.249,2.506 6.249,2.506 C6.244,2.506 6.239,2.506 6.234,2.506 C6.234,2.507 6.234,2.507 6.234,2.508 C6.229,2.508 6.225,2.508 6.220,2.508 C6.203,2.513 6.181,2.512 6.164,2.516 C6.151,2.518 6.138,2.519 6.124,2.521 C6.086,2.528 6.048,2.535 6.010,2.542 C5.983,2.551 5.952,2.556 5.926,2.565 C5.924,2.565 5.922,2.565 5.920,2.565 C5.920,2.566 5.920,2.566 5.920,2.567 C5.919,2.567 5.917,2.567 5.916,2.567 C5.916,2.567 5.916,2.568 5.916,2.568 C5.914,2.568 5.912,2.568 5.910,2.568 C5.910,2.569 5.910,2.569 5.910,2.570 C5.908,2.570 5.907,2.570 5.905,2.570 C5.905,2.570 5.905,2.571 5.905,2.571 C5.904,2.571 5.902,2.571 5.901,2.571 C5.901,2.572 5.901,2.572 5.901,2.573 C5.899,2.573 5.898,2.573 5.896,2.573 C5.896,2.573 5.896,2.574 5.896,2.574 C5.895,2.574 5.893,2.574 5.892,2.574 C5.892,2.575 5.892,2.575 5.892,2.576 C5.891,2.576 5.889,2.576 5.888,2.576 C5.888,2.576 5.888,2.577 5.888,2.577 C5.881,2.578 5.875,2.580 5.868,2.581 C5.868,2.582 5.868,2.582 5.868,2.583 C5.867,2.583 5.866,2.583 5.865,2.583 C5.865,2.583 5.865,2.584 5.865,2.584 C5.864,2.584 5.862,2.584 5.861,2.584 C5.861,2.585 5.861,2.585 5.861,2.586 C5.859,2.586 5.858,2.586 5.857,2.586 C5.857,2.586 5.857,2.587 5.857,2.587 C5.855,2.587 5.854,2.587 5.852,2.587 C5.852,2.588 5.852,2.588 5.852,2.589 C5.851,2.589 5.849,2.589 5.848,2.589 C5.848,2.589 5.848,2.589 5.848,2.590 C5.846,2.590 5.845,2.590 5.843,2.590 C5.843,2.590 5.843,2.591 5.843,2.591 C5.842,2.591 5.841,2.591 5.840,2.591 C5.840,2.592 5.840,2.592 5.840,2.593 C5.837,2.593 5.834,2.594 5.831,2.594 C5.831,2.595 5.831,2.595 5.831,2.596 C5.830,2.596 5.829,2.596 5.828,2.596 C5.828,2.596 5.828,2.597 5.828,2.597 C5.827,2.597 5.825,2.597 5.824,2.597 C5.824,2.598 5.824,2.598 5.824,2.599 C5.822,2.599 5.821,2.599 5.820,2.599 C5.820,2.599 5.820,2.600 5.820,2.600 C5.819,2.600 5.818,2.600 5.817,2.600 C5.817,2.601 5.817,2.601 5.817,2.601 C5.815,2.601 5.814,2.601 5.812,2.601 C5.812,2.602 5.812,2.602 5.812,2.603 C5.810,2.603 5.807,2.604 5.805,2.604 C5.805,2.605 5.805,2.605 5.805,2.606 C5.804,2.606 5.803,2.606 5.802,2.606 C5.802,2.606 5.802,2.607 5.802,2.607 C5.800,2.607 5.799,2.607 5.797,2.607 C5.797,2.608 5.797,2.608 5.797,2.609 C5.795,2.609 5.793,2.610 5.791,2.610 C5.791,2.611 5.791,2.611 5.791,2.612 C5.790,2.612 5.788,2.612 5.787,2.612 C5.787,2.612 5.787,2.613 5.787,2.613 C5.786,2.613 5.785,2.613 5.784,2.613 C5.784,2.613 5.784,2.614 5.784,2.614 C5.783,2.614 5.781,2.614 5.780,2.614 C5.780,2.615 5.780,2.615 5.780,2.616 C5.778,2.616 5.776,2.617 5.774,2.617 C5.774,2.618 5.774,2.618 5.774,2.619 C5.773,2.619 5.772,2.619 5.771,2.619 C5.771,2.619 5.771,2.620 5.771,2.620 C5.769,2.620 5.768,2.620 5.766,2.620 C5.766,2.621 5.766,2.621 5.766,2.622 C5.765,2.622 5.764,2.622 5.763,2.622 C5.763,2.622 5.763,2.623 5.763,2.623 C5.760,2.624 5.757,2.625 5.754,2.626 C5.754,2.626 5.754,2.627 5.754,2.627 C5.753,2.627 5.751,2.627 5.750,2.627 C5.750,2.628 5.750,2.628 5.750,2.629 C5.748,2.629 5.746,2.630 5.744,2.630 C5.744,2.631 5.744,2.631 5.744,2.632 C5.741,2.633 5.738,2.634 5.735,2.635 C5.735,2.635 5.735,2.636 5.735,2.636 C5.733,2.637 5.731,2.637 5.729,2.637 C5.729,2.638 5.729,2.638 5.729,2.639 C5.727,2.639 5.725,2.640 5.723,2.640 C5.723,2.641 5.723,2.641 5.723,2.642 C5.722,2.642 5.721,2.642 5.720,2.642 C5.720,2.642 5.720,2.643 5.720,2.643 C5.719,2.643 5.718,2.643 5.717,2.643 C5.717,2.644 5.717,2.644 5.717,2.645 C5.716,2.645 5.715,2.645 5.714,2.645 C5.714,2.645 5.714,2.646 5.714,2.646 C5.714,2.646 5.713,2.646 5.712,2.646 C5.712,2.647 5.712,2.647 5.712,2.648 C5.711,2.648 5.710,2.648 5.709,2.648 C5.709,2.648 5.709,2.649 5.709,2.649 C5.708,2.649 5.707,2.649 5.706,2.649 C5.706,2.649 5.706,2.650 5.706,2.650 C5.705,2.650 5.704,2.650 5.703,2.650 C5.703,2.651 5.703,2.651 5.703,2.652 C5.702,2.652 5.701,2.652 5.700,2.652 C5.700,2.652 5.700,2.653 5.700,2.653 C5.699,2.653 5.698,2.653 5.697,2.653 C5.696,2.654 5.696,2.655 5.695,2.656 C5.694,2.656 5.693,2.656 5.692,2.656 C5.692,2.657 5.692,2.657 5.692,2.658 C5.691,2.658 5.690,2.658 5.689,2.658 C5.689,2.658 5.689,2.659 5.689,2.659 C5.688,2.659 5.687,2.659 5.686,2.659 C5.686,2.660 5.686,2.660 5.686,2.661 C5.685,2.661 5.684,2.661 5.683,2.661 C5.683,2.661 5.683,2.661 5.683,2.662 C5.682,2.662 5.681,2.662 5.680,2.662 C5.680,2.663 5.679,2.664 5.679,2.665 C5.676,2.666 5.673,2.667 5.670,2.668 C5.670,2.669 5.669,2.670 5.669,2.671 C5.667,2.671 5.665,2.672 5.663,2.672 C5.662,2.673 5.662,2.674 5.661,2.675 C5.659,2.675 5.657,2.676 5.655,2.676 C5.655,2.677 5.654,2.678 5.654,2.679 C5.652,2.680 5.650,2.680 5.648,2.681 C5.648,2.681 5.648,2.682 5.648,2.682 C5.646,2.683 5.645,2.683 5.643,2.684 C5.643,2.685 5.643,2.685 5.642,2.686 C5.640,2.687 5.638,2.687 5.636,2.688 C5.636,2.689 5.635,2.690 5.635,2.691 C5.634,2.691 5.633,2.691 5.632,2.691 C5.631,2.692 5.631,2.693 5.630,2.694 C5.629,2.694 5.628,2.694 5.627,2.694 C5.627,2.694 5.627,2.695 5.627,2.695 C5.626,2.696 5.624,2.696 5.623,2.697 C5.622,2.697 5.622,2.698 5.621,2.699 C5.620,2.699 5.619,2.699 5.618,2.699 C5.618,2.700 5.617,2.701 5.617,2.702 C5.616,2.702 5.615,2.702 5.614,2.702 C5.614,2.703 5.614,2.703 5.614,2.704 C5.612,2.704 5.611,2.705 5.609,2.705 C5.609,2.706 5.608,2.707 5.608,2.708 C5.607,2.708 5.606,2.708 5.605,2.708 C5.604,2.709 5.603,2.711 5.602,2.712 C5.601,2.712 5.600,2.712 5.599,2.712 C5.599,2.713 5.598,2.714 5.598,2.715 C5.597,2.715 5.596,2.715 5.595,2.715 C5.594,2.717 5.593,2.718 5.592,2.720 C5.591,2.720 5.590,2.720 5.589,2.720 C5.588,2.721 5.588,2.721 5.587,2.722 C5.586,2.722 5.585,2.722 5.584,2.722 C5.584,2.723 5.583,2.724 5.583,2.725 C5.581,2.726 5.580,2.726 5.578,2.727 C5.577,2.729 5.575,2.731 5.574,2.733 C5.573,2.733 5.572,2.733 5.571,2.733 C5.570,2.734 5.569,2.735 5.568,2.737 C5.567,2.737 5.566,2.737 5.565,2.737 C5.564,2.739 5.562,2.741 5.561,2.743 C5.560,2.743 5.559,2.743 5.558,2.743 C5.556,2.745 5.555,2.746 5.553,2.748 C5.552,2.748 5.551,2.748 5.550,2.748 C5.548,2.751 5.546,2.753 5.544,2.756 C5.543,2.756 5.542,2.756 5.541,2.756 C5.539,2.758 5.536,2.761 5.534,2.764 C5.533,2.764 5.532,2.764 5.531,2.764 C5.528,2.768 5.524,2.772 5.521,2.776 C5.520,2.776 5.519,2.776 5.518,2.776 C5.512,2.781 5.507,2.787 5.501,2.793 C5.490,2.804 5.477,2.814 5.467,2.828 C5.463,2.831 5.459,2.835 5.454,2.839 C5.454,2.840 5.454,2.841 5.454,2.842 C5.451,2.844 5.448,2.847 5.445,2.849 C5.445,2.850 5.445,2.851 5.445,2.852 C5.443,2.854 5.440,2.856 5.438,2.858 C5.438,2.859 5.438,2.860 5.438,2.861 C5.436,2.862 5.434,2.864 5.432,2.865 C5.432,2.866 5.432,2.867 5.432,2.868 C5.430,2.869 5.428,2.871 5.426,2.872 C5.426,2.874 5.425,2.875 5.425,2.877 C5.424,2.877 5.423,2.878 5.422,2.878 C5.422,2.879 5.422,2.880 5.422,2.881 C5.420,2.882 5.419,2.883 5.417,2.884 C5.417,2.885 5.417,2.886 5.417,2.887 C5.416,2.888 5.414,2.889 5.413,2.890 C5.413,2.890 5.413,2.891 5.413,2.892 C5.411,2.893 5.410,2.894 5.408,2.895 C5.408,2.896 5.408,2.897 5.408,2.898 C5.407,2.899 5.406,2.899 5.405,2.900 C5.405,2.901 5.405,2.902 5.405,2.902 C5.404,2.903 5.402,2.904 5.401,2.905 C5.401,2.906 5.401,2.907 5.401,2.908 C5.400,2.909 5.399,2.909 5.398,2.910 C5.397,2.911 5.397,2.913 5.396,2.914 C5.396,2.914 5.395,2.914 5.395,2.914 C5.395,2.915 5.395,2.916 5.395,2.917 C5.394,2.917 5.393,2.918 5.392,2.918 C5.392,2.919 5.392,2.920 5.392,2.921 C5.391,2.922 5.390,2.922 5.389,2.923 C5.389,2.924 5.389,2.925 5.389,2.926 C5.388,2.926 5.387,2.926 5.386,2.927 C5.386,2.928 5.386,2.929 5.386,2.930 C5.385,2.930 5.384,2.931 5.383,2.931 C5.383,2.932 5.383,2.933 5.383,2.934 C5.382,2.935 5.381,2.935 5.380,2.936 C5.380,2.937 5.379,2.938 5.379,2.940 C5.378,2.940 5.378,2.940 5.377,2.940 C5.377,2.942 5.376,2.944 5.376,2.946 C5.375,2.946 5.375,2.946 5.374,2.946 C5.374,2.947 5.373,2.949 5.373,2.950 C5.372,2.950 5.371,2.951 5.370,2.951 C5.369,2.953 5.369,2.955 5.368,2.957 C5.367,2.958 5.366,2.958 5.365,2.959 C5.365,2.961 5.364,2.962 5.364,2.964 C5.363,2.965 5.362,2.965 5.361,2.966 C5.360,2.969 5.359,2.972 5.358,2.974 C5.357,2.975 5.356,2.975 5.355,2.976 C5.355,2.977 5.355,2.978 5.355,2.979 C5.355,2.979 5.354,2.979 5.354,2.979 C5.354,2.980 5.354,2.981 5.354,2.982 C5.353,2.982 5.353,2.982 5.352,2.982 C5.352,2.983 5.352,2.984 5.352,2.985 C5.352,2.985 5.351,2.985 5.351,2.985 C5.351,2.986 5.351,2.986 5.351,2.987 C5.350,2.988 5.349,2.988 5.348,2.989 C5.348,2.990 5.348,2.991 5.348,2.992 C5.347,2.992 5.347,2.992 5.346,2.992 C5.346,2.993 5.346,2.994 5.346,2.995 C5.346,2.995 5.345,2.995 5.345,2.995 C5.345,2.996 5.345,2.997 5.345,2.998 C5.344,2.998 5.344,2.998 5.343,2.998 C5.343,2.998 5.343,2.999 5.343,3.000 C5.343,3.000 5.342,3.000 5.342,3.000 C5.342,3.001 5.342,3.002 5.342,3.003 C5.341,3.003 5.341,3.003 5.340,3.003 C5.340,3.004 5.340,3.005 5.340,3.006 C5.340,3.006 5.339,3.006 5.339,3.006 C5.339,3.007 5.339,3.008 5.339,3.009 C5.338,3.009 5.338,3.009 5.337,3.009 C5.337,3.011 5.336,3.013 5.336,3.015 C5.335,3.015 5.335,3.015 5.334,3.015 C5.334,3.017 5.333,3.019 5.333,3.021 C5.332,3.021 5.332,3.021 5.331,3.021 C5.331,3.022 5.331,3.022 5.331,3.023 C5.331,3.023 5.330,3.023 5.330,3.023 C5.330,3.024 5.330,3.025 5.330,3.026 C5.329,3.026 5.329,3.026 5.328,3.026 C5.328,3.027 5.328,3.028 5.328,3.029 C5.328,3.029 5.327,3.029 5.327,3.029 C5.327,3.030 5.327,3.031 5.327,3.032 C5.326,3.032 5.326,3.032 5.325,3.032 C5.325,3.033 5.325,3.034 5.325,3.035 C5.325,3.035 5.324,3.035 5.324,3.035 C5.323,3.037 5.323,3.039 5.322,3.041 C5.322,3.041 5.321,3.041 5.321,3.041 C5.321,3.042 5.321,3.043 5.321,3.044 C5.321,3.044 5.320,3.044 5.320,3.044 C5.320,3.045 5.320,3.046 5.320,3.048 C5.319,3.048 5.319,3.048 5.318,3.048 C5.318,3.049 5.318,3.050 5.318,3.051 C5.318,3.051 5.317,3.051 5.317,3.051 C5.316,3.053 5.316,3.055 5.315,3.057 C5.315,3.057 5.314,3.057 5.314,3.057 C5.314,3.058 5.314,3.059 5.314,3.061 C5.313,3.061 5.313,3.061 5.312,3.061 C5.312,3.062 5.312,3.063 5.312,3.064 C5.312,3.064 5.311,3.064 5.311,3.064 C5.311,3.065 5.311,3.066 5.311,3.067 C5.310,3.067 5.310,3.067 5.309,3.067 C5.309,3.068 5.309,3.069 5.309,3.070 C5.309,3.070 5.308,3.070 5.308,3.070 C5.308,3.071 5.308,3.072 5.308,3.074 C5.307,3.074 5.307,3.074 5.306,3.074 C5.306,3.075 5.306,3.076 5.306,3.077 C5.306,3.077 5.305,3.077 5.305,3.077 C5.305,3.078 5.305,3.080 5.305,3.081 C5.304,3.081 5.304,3.081 5.303,3.081 C5.303,3.083 5.302,3.085 5.302,3.087 C5.301,3.087 5.301,3.087 5.300,3.087 C5.300,3.088 5.300,3.090 5.300,3.091 C5.300,3.091 5.299,3.091 5.299,3.091 C5.299,3.092 5.299,3.093 5.299,3.094 C5.298,3.094 5.298,3.094 5.297,3.094 C5.297,3.097 5.296,3.100 5.296,3.103 C5.295,3.103 5.295,3.103 5.294,3.103 C5.294,3.104 5.294,3.105 5.294,3.106 C5.294,3.106 5.293,3.106 5.293,3.106 C5.292,3.108 5.292,3.110 5.291,3.113 C5.291,3.113 5.290,3.113 5.290,3.113 C5.289,3.117 5.288,3.121 5.287,3.126 C5.286,3.126 5.286,3.126 5.286,3.126 C5.286,3.127 5.286,3.128 5.286,3.129 C5.285,3.129 5.285,3.129 5.284,3.129 C5.284,3.130 5.284,3.131 5.284,3.133 C5.284,3.133 5.283,3.133 5.283,3.133 C5.283,3.134 5.283,3.136 5.283,3.137 C5.282,3.137 5.282,3.137 5.281,3.137 C5.281,3.139 5.281,3.140 5.281,3.142 C5.281,3.142 5.280,3.142 5.280,3.142 C5.280,3.143 5.280,3.144 5.280,3.146 C5.279,3.146 5.279,3.146 5.278,3.146 C5.278,3.147 5.278,3.149 5.278,3.150 C5.265,3.183 5.257,3.220 5.246,3.255 C5.245,3.260 5.245,3.264 5.244,3.268 C5.237,3.289 5.235,3.316 5.228,3.337 C5.228,3.340 5.228,3.343 5.228,3.346 C5.227,3.346 5.227,3.346 5.226,3.346 C5.226,3.349 5.226,3.352 5.226,3.355 C5.226,3.355 5.225,3.355 5.225,3.355 C5.225,3.357 5.225,3.359 5.225,3.362 C5.224,3.362 5.224,3.362 5.223,3.362 C5.223,3.365 5.223,3.369 5.223,3.372 C5.219,3.386 5.219,3.405 5.214,3.419 C5.214,3.427 5.214,3.435 5.213,3.443 C5.208,3.458 5.210,3.479 5.206,3.494 C5.206,3.499 5.206,3.504 5.206,3.509 C5.205,3.509 5.205,3.509 5.204,3.509 C5.204,3.515 5.204,3.520 5.204,3.526 C5.204,3.526 5.203,3.526 5.203,3.526 C5.202,3.539 5.202,3.551 5.201,3.564 C5.201,3.564 5.200,3.564 5.200,3.564 C5.200,3.571 5.200,3.578 5.200,3.585 C5.199,3.585 5.199,3.585 5.198,3.585 C5.198,3.594 5.198,3.602 5.198,3.611 C5.198,3.611 5.197,3.611 5.197,3.611 C5.197,3.621 5.197,3.631 5.197,3.641 C5.197,3.641 5.196,3.641 5.195,3.644 C5.195,3.657 5.195,3.669 5.195,3.682 C5.191,3.697 5.194,3.730 5.194,3.749 C5.194,3.756 5.194,3.764 5.194,3.771 C5.193,3.771 5.193,3.771 5.192,3.771 C5.192,3.794 5.192,3.817 5.192,3.840 C5.192,3.888 5.192,3.935 5.192,3.983 C5.192,4.486 5.192,4.989 5.192,5.492 C6.097,5.492 7.001,5.492 7.905,5.492 C7.905,5.492 7.905,5.493 7.905,5.493 C7.901,5.498 7.904,5.508 7.902,5.515 C7.902,5.515 7.901,5.515 7.901,5.515 C7.901,5.519 7.901,5.523 7.901,5.526 C7.900,5.526 7.900,5.526 7.899,5.526 C7.899,5.530 7.899,5.534 7.899,5.538 C7.899,5.538 7.898,5.538 7.898,5.538 C7.898,5.541 7.898,5.545 7.898,5.548 C7.897,5.548 7.897,5.548 7.896,5.548 C7.896,5.552 7.896,5.556 7.896,5.560 C7.889,5.583 7.892,5.614 7.885,5.637 C7.884,5.649 7.883,5.660 7.882,5.672 C7.876,5.692 7.877,5.718 7.871,5.738 C7.871,5.746 7.870,5.754 7.870,5.761 C7.865,5.778 7.866,5.800 7.861,5.816 C7.860,5.824 7.860,5.831 7.859,5.839 C7.855,5.852 7.856,5.870 7.852,5.884 C7.852,5.887 7.852,5.891 7.852,5.895 C7.852,5.895 7.851,5.895 7.851,5.895 C7.851,5.899 7.851,5.903 7.851,5.907 C7.850,5.907 7.850,5.907 7.849,5.907 C7.849,5.910 7.849,5.913 7.849,5.917 C7.849,5.917 7.848,5.917 7.848,5.917 C7.848,5.921 7.848,5.924 7.848,5.928 C7.847,5.928 7.847,5.928 7.846,5.928 C7.846,5.932 7.846,5.936 7.846,5.940 C7.846,5.940 7.845,5.940 7.845,5.940 C7.845,5.944 7.845,5.947 7.845,5.951 C7.844,5.951 7.844,5.951 7.843,5.951 C7.843,5.955 7.843,5.958 7.843,5.961 C7.843,5.961 7.842,5.961 7.842,5.961 C7.842,5.965 7.842,5.969 7.842,5.973 C7.841,5.973 7.841,5.973 7.840,5.973 C7.840,5.977 7.840,5.981 7.840,5.984 C7.840,5.984 7.839,5.984 7.839,5.984 C7.839,5.988 7.839,5.992 7.839,5.996 C7.838,5.996 7.838,5.996 7.837,5.996 C7.837,5.999 7.837,6.003 7.837,6.006 C7.837,6.006 7.836,6.006 7.836,6.006 C7.836,6.010 7.836,6.014 7.836,6.018 C7.829,6.041 7.831,6.072 7.824,6.095 C7.823,6.103 7.823,6.111 7.822,6.118 C7.817,6.138 7.818,6.165 7.812,6.185 C7.812,6.192 7.811,6.200 7.811,6.208 C7.805,6.228 7.806,6.255 7.800,6.275 C7.800,6.283 7.799,6.290 7.799,6.297 C7.798,6.297 7.798,6.297 7.797,6.297 C7.797,6.305 7.796,6.312 7.796,6.320 C7.790,6.340 7.791,6.366 7.786,6.386 C7.785,6.394 7.785,6.402 7.784,6.409 C7.778,6.429 7.780,6.455 7.774,6.476 C7.773,6.483 7.773,6.491 7.772,6.499 C7.767,6.515 7.768,6.537 7.763,6.553 C7.763,6.557 7.763,6.561 7.763,6.565 C7.759,6.578 7.760,6.596 7.756,6.609 C7.756,6.613 7.756,6.617 7.756,6.621 C7.755,6.621 7.755,6.621 7.754,6.621 C7.754,6.625 7.754,6.629 7.754,6.633 C7.754,6.633 7.753,6.633 7.753,6.633 C7.753,6.636 7.753,6.639 7.753,6.643 C7.752,6.643 7.752,6.643 7.751,6.643 C7.751,6.646 7.751,6.650 7.751,6.654 C7.751,6.654 7.750,6.654 7.750,6.654 C7.750,6.658 7.750,6.662 7.750,6.666 C7.750,6.666 7.749,6.666 7.749,6.666 C7.749,6.670 7.749,6.673 7.749,6.677 C7.748,6.677 7.748,6.677 7.747,6.677 C7.747,6.681 7.747,6.685 7.747,6.689 C7.747,6.689 7.746,6.689 7.746,6.689 C7.746,6.692 7.746,6.695 7.746,6.699 C7.745,6.699 7.745,6.699 7.744,6.699 C7.744,6.703 7.744,6.706 7.744,6.710 C7.737,6.734 7.739,6.765 7.732,6.788 C7.731,6.800 7.730,6.811 7.729,6.823 C7.729,6.823 7.728,6.823 7.728,6.823 C7.728,6.826 7.728,6.829 7.728,6.833 C7.727,6.833 7.727,6.833 7.726,6.833 C7.726,6.837 7.726,6.840 7.726,6.844 C7.719,6.868 7.721,6.899 7.714,6.922 C7.714,6.934 7.713,6.945 7.712,6.957 C7.707,6.973 7.708,6.995 7.703,7.011 C7.702,7.019 7.702,7.027 7.701,7.034 C7.696,7.051 7.697,7.074 7.692,7.091 C7.692,7.094 7.692,7.098 7.692,7.102 C7.692,7.102 7.691,7.102 7.691,7.102 C7.691,7.105 7.691,7.109 7.691,7.112 C7.690,7.112 7.690,7.112 7.689,7.112 C7.689,7.116 7.689,7.120 7.689,7.124 C7.689,7.124 7.688,7.124 7.688,7.124 C7.688,7.127 7.688,7.131 7.688,7.135 C7.687,7.135 7.687,7.135 7.686,7.135 C7.686,7.139 7.686,7.143 7.686,7.147 C7.686,7.147 7.685,7.147 7.685,7.147 C7.685,7.150 7.685,7.153 7.685,7.157 C7.684,7.157 7.684,7.157 7.683,7.157 C7.683,7.161 7.683,7.164 7.683,7.168 C7.683,7.168 7.682,7.168 7.682,7.168 C7.682,7.172 7.682,7.176 7.682,7.180 C7.681,7.180 7.681,7.180 7.680,7.180 C7.680,7.184 7.680,7.187 7.680,7.191 C7.680,7.191 7.679,7.191 7.679,7.191 C7.679,7.195 7.679,7.198 7.679,7.201 C7.679,7.201 7.678,7.201 7.678,7.201 C7.678,7.205 7.678,7.209 7.678,7.213 C7.671,7.236 7.673,7.267 7.666,7.291 C7.666,7.295 7.666,7.298 7.666,7.302 C7.665,7.302 7.665,7.302 7.664,7.302 C7.664,7.306 7.664,7.310 7.664,7.314 C7.664,7.314 7.663,7.314 7.663,7.314 C7.663,7.318 7.663,7.321 7.663,7.325 C7.657,7.345 7.658,7.371 7.652,7.392 C7.652,7.399 7.651,7.407 7.651,7.415 C7.650,7.415 7.650,7.415 7.649,7.415 C7.649,7.418 7.649,7.421 7.649,7.425 C7.649,7.425 7.648,7.425 7.648,7.425 C7.648,7.428 7.648,7.432 7.648,7.436 C7.647,7.436 7.647,7.436 7.646,7.436 C7.646,7.440 7.646,7.444 7.646,7.448 C7.646,7.448 7.645,7.448 7.645,7.448 C7.645,7.452 7.645,7.455 7.645,7.459 C7.644,7.459 7.644,7.459 7.643,7.459 C7.643,7.463 7.643,7.466 7.643,7.469 C7.643,7.469 7.643,7.469 7.642,7.469 C7.642,7.473 7.642,7.477 7.642,7.481 C7.642,7.481 7.641,7.481 7.641,7.481 C7.641,7.485 7.641,7.488 7.641,7.492 C7.640,7.492 7.640,7.492 7.639,7.492 C7.639,7.496 7.639,7.500 7.639,7.504 C7.639,7.504 7.638,7.504 7.638,7.504 C7.638,7.508 7.638,7.512 7.638,7.515 C7.637,7.515 7.637,7.515 7.636,7.515 C7.636,7.519 7.636,7.522 7.636,7.525 C7.636,7.525 7.635,7.525 7.635,7.525 C7.635,7.529 7.635,7.533 7.635,7.537 C7.634,7.537 7.634,7.537 7.633,7.537 C7.633,7.541 7.633,7.545 7.633,7.548 C7.633,7.548 7.632,7.548 7.632,7.548 C7.632,7.552 7.632,7.556 7.632,7.560 C7.626,7.580 7.627,7.606 7.621,7.626 C7.619,7.649 7.616,7.671 7.614,7.694 C7.613,7.694 7.613,7.694 7.612,7.694 C7.612,7.697 7.612,7.701 7.612,7.704 C7.612,7.704 7.611,7.704 7.611,7.704 C7.611,7.708 7.611,7.712 7.611,7.716 C7.610,7.716 7.610,7.716 7.609,7.716 C7.609,7.719 7.609,7.723 7.609,7.727 C7.609,7.727 7.608,7.727 7.608,7.727 C7.608,7.731 7.608,7.735 7.608,7.739 C7.607,7.739 7.607,7.739 7.607,7.739 C7.607,7.742 7.607,7.745 7.607,7.749 C7.606,7.749 7.606,7.749 7.605,7.749 C7.605,7.753 7.605,7.756 7.605,7.760 C7.598,7.784 7.600,7.815 7.593,7.838 C7.592,7.849 7.591,7.861 7.590,7.873 C7.585,7.889 7.586,7.911 7.581,7.927 C7.581,7.935 7.580,7.943 7.580,7.950 C7.579,7.950 7.579,7.950 7.578,7.950 C7.578,7.958 7.577,7.966 7.577,7.973 C7.572,7.990 7.573,8.012 7.568,8.028 C7.568,8.036 7.567,8.043 7.567,8.051 C7.566,8.051 7.566,8.051 7.565,8.051 C7.565,8.055 7.565,8.059 7.565,8.063 C7.565,8.063 7.564,8.063 7.564,8.063 C7.564,8.066 7.564,8.069 7.564,8.073 C7.563,8.073 7.563,8.073 7.562,8.073 C7.562,8.077 7.562,8.080 7.562,8.084 C7.562,8.084 7.561,8.084 7.561,8.084 C7.561,8.088 7.561,8.092 7.561,8.096 C7.560,8.096 7.560,8.096 7.559,8.096 C7.559,8.100 7.559,8.103 7.559,8.107 C7.559,8.107 7.558,8.107 7.558,8.107 C7.558,8.111 7.558,8.114 7.558,8.117 C7.557,8.117 7.557,8.117 7.556,8.117 C7.556,8.121 7.556,8.125 7.556,8.129 C7.554,8.137 7.552,8.149 7.552,8.158 C6.765,8.158 5.979,8.158 5.192,8.158 C5.192,10.438 5.192,12.719 5.192,15.000 C4.250,15.000 3.307,15.000 2.364,15.000 C2.364,12.719 2.364,10.438 2.364,8.158 C1.576,8.158 0.788,8.158 0.000,8.158 C0.000,7.269 0.000,6.380 0.000,5.492 C0.788,5.492 1.576,5.492 2.364,5.492 C2.364,5.077 2.364,4.662 2.364,4.248 C2.364,4.070 2.364,3.891 2.364,3.713 C2.364,3.659 2.364,3.604 2.364,3.549 C2.364,3.523 2.364,3.497 2.364,3.471 C2.364,3.471 2.365,3.471 2.365,3.471 C2.365,3.445 2.365,3.419 2.365,3.392 C2.366,3.383 2.367,3.369 2.367,3.358 C2.367,3.352 2.367,3.346 2.367,3.340 C2.367,3.340 2.368,3.340 2.368,3.340 C2.368,3.327 2.368,3.314 2.368,3.301 C2.369,3.301 2.369,3.301 2.370,3.301 C2.370,3.295 2.370,3.289 2.370,3.283 C2.370,3.269 2.371,3.255 2.371,3.241 C2.372,3.241 2.372,3.241 2.373,3.241 C2.373,3.236 2.373,3.230 2.373,3.225 C2.373,3.214 2.374,3.203 2.374,3.192 C2.375,3.192 2.375,3.192 2.376,3.192 C2.378,3.159 2.380,3.126 2.382,3.093 C2.382,3.093 2.383,3.093 2.383,3.093 C2.383,3.087 2.383,3.081 2.383,3.075 C2.384,3.075 2.384,3.075 2.385,3.075 C2.385,3.070 2.385,3.065 2.385,3.059 C2.385,3.059 2.386,3.059 2.386,3.059 C2.386,3.054 2.386,3.049 2.386,3.044 C2.387,3.044 2.387,3.044 2.388,3.044 C2.388,3.039 2.388,3.034 2.388,3.029 C2.388,3.029 2.389,3.029 2.389,3.029 C2.389,3.024 2.389,3.020 2.389,3.015 C2.390,3.015 2.390,3.015 2.391,3.015 C2.391,3.010 2.391,3.005 2.391,3.000 C2.391,3.000 2.392,3.000 2.392,3.000 C2.392,2.996 2.392,2.991 2.392,2.986 C2.393,2.986 2.393,2.986 2.393,2.986 C2.393,2.982 2.393,2.977 2.393,2.973 C2.394,2.973 2.394,2.973 2.395,2.973 C2.395,2.969 2.395,2.964 2.395,2.960 C2.395,2.960 2.396,2.960 2.396,2.960 C2.396,2.956 2.396,2.951 2.396,2.947 C2.397,2.947 2.397,2.947 2.398,2.947 C2.398,2.943 2.398,2.938 2.398,2.934 C2.398,2.934 2.399,2.934 2.399,2.934 C2.399,2.930 2.399,2.926 2.399,2.923 C2.400,2.923 2.400,2.923 2.401,2.923 C2.401,2.918 2.401,2.914 2.401,2.910 C2.401,2.910 2.402,2.910 2.402,2.910 C2.402,2.906 2.402,2.902 2.402,2.898 C2.403,2.898 2.403,2.898 2.404,2.898 C2.404,2.894 2.404,2.890 2.404,2.887 C2.410,2.867 2.408,2.842 2.414,2.823 C2.415,2.813 2.416,2.803 2.417,2.793 C2.422,2.776 2.422,2.755 2.428,2.738 C2.428,2.735 2.428,2.733 2.428,2.730 C2.431,2.719 2.432,2.705 2.435,2.695 C2.435,2.692 2.435,2.689 2.435,2.686 C2.438,2.677 2.439,2.664 2.442,2.655 C2.442,2.652 2.442,2.649 2.442,2.646 C2.450,2.621 2.452,2.591 2.460,2.565 C2.460,2.563 2.460,2.561 2.460,2.558 C2.463,2.550 2.465,2.539 2.467,2.531 C2.467,2.528 2.467,2.526 2.467,2.524 C2.468,2.524 2.468,2.524 2.469,2.524 C2.469,2.519 2.470,2.515 2.470,2.511 C2.471,2.511 2.471,2.511 2.472,2.511 C2.472,2.509 2.472,2.507 2.472,2.505 C2.472,2.505 2.473,2.505 2.473,2.505 C2.474,2.501 2.474,2.496 2.475,2.492 C2.475,2.492 2.476,2.492 2.476,2.492 C2.477,2.488 2.477,2.483 2.478,2.479 C2.478,2.479 2.479,2.479 2.479,2.479 C2.479,2.477 2.479,2.474 2.479,2.472 C2.490,2.440 2.495,2.404 2.506,2.372 C2.506,2.369 2.507,2.365 2.507,2.361 C2.510,2.353 2.513,2.342 2.516,2.334 C2.516,2.332 2.516,2.330 2.516,2.328 C2.517,2.328 2.517,2.328 2.518,2.328 C2.518,2.326 2.518,2.325 2.518,2.324 C2.518,2.324 2.519,2.324 2.519,2.324 C2.520,2.318 2.521,2.313 2.522,2.308 C2.523,2.308 2.523,2.308 2.524,2.308 C2.524,2.304 2.525,2.301 2.525,2.298 C2.526,2.298 2.526,2.298 2.527,2.298 C2.527,2.294 2.528,2.290 2.528,2.286 C2.536,2.265 2.542,2.240 2.550,2.218 C2.552,2.210 2.554,2.202 2.556,2.194 C2.581,2.128 2.600,2.057 2.629,1.994 C2.629,1.991 2.630,1.988 2.630,1.985 C2.631,1.985 2.631,1.985 2.632,1.985 C2.632,1.984 2.632,1.983 2.632,1.982 C2.632,1.982 2.633,1.982 2.633,1.982 C2.633,1.981 2.633,1.979 2.633,1.978 C2.634,1.978 2.634,1.978 2.635,1.978 C2.635,1.977 2.635,1.976 2.635,1.975 C2.635,1.975 2.636,1.975 2.636,1.975 C2.637,1.972 2.637,1.969 2.638,1.966 C2.638,1.966 2.639,1.966 2.639,1.966 C2.639,1.965 2.639,1.964 2.639,1.963 C2.640,1.963 2.640,1.963 2.641,1.963 C2.641,1.962 2.641,1.961 2.641,1.959 C2.641,1.959 2.642,1.959 2.642,1.959 C2.642,1.958 2.642,1.957 2.642,1.956 C2.643,1.956 2.643,1.956 2.643,1.956 C2.643,1.955 2.643,1.953 2.643,1.952 C2.644,1.952 2.644,1.952 2.645,1.952 C2.645,1.951 2.645,1.950 2.645,1.949 C2.645,1.949 2.646,1.949 2.646,1.949 C2.646,1.948 2.646,1.946 2.646,1.945 C2.647,1.945 2.647,1.945 2.648,1.945 C2.648,1.944 2.648,1.943 2.648,1.942 C2.648,1.942 2.649,1.942 2.649,1.942 C2.649,1.940 2.649,1.939 2.649,1.938 C2.650,1.938 2.650,1.938 2.651,1.938 C2.651,1.937 2.651,1.936 2.651,1.935 C2.651,1.935 2.652,1.935 2.652,1.935 C2.652,1.933 2.652,1.932 2.652,1.930 C2.653,1.930 2.653,1.930 2.654,1.930 C2.654,1.929 2.654,1.928 2.654,1.927 C2.654,1.927 2.655,1.927 2.655,1.927 C2.655,1.926 2.655,1.925 2.655,1.923 C2.656,1.923 2.656,1.923 2.657,1.923 C2.657,1.922 2.657,1.921 2.657,1.920 C2.657,1.920 2.658,1.920 2.658,1.920 C2.658,1.919 2.658,1.917 2.658,1.916 C2.659,1.916 2.659,1.916 2.660,1.916 C2.660,1.915 2.660,1.914 2.660,1.913 C2.660,1.913 2.661,1.913 2.661,1.913 C2.661,1.912 2.661,1.910 2.661,1.909 C2.662,1.909 2.662,1.909 2.663,1.909 C2.663,1.906 2.664,1.904 2.664,1.902 C2.665,1.902 2.665,1.902 2.666,1.902 C2.666,1.901 2.666,1.900 2.666,1.899 C2.666,1.899 2.667,1.899 2.667,1.899 C2.667,1.897 2.667,1.896 2.667,1.894 C2.668,1.894 2.668,1.894 2.669,1.894 C2.669,1.892 2.670,1.890 2.670,1.889 C2.671,1.889 2.671,1.889 2.672,1.889 C2.672,1.887 2.672,1.886 2.672,1.884 C2.672,1.884 2.673,1.884 2.673,1.884 C2.673,1.883 2.673,1.882 2.673,1.881 C2.674,1.881 2.674,1.881 2.675,1.881 C2.675,1.880 2.675,1.878 2.675,1.877 C2.675,1.877 2.676,1.877 2.676,1.877 C2.677,1.875 2.677,1.873 2.678,1.871 C2.678,1.871 2.679,1.871 2.679,1.871 C2.679,1.870 2.679,1.868 2.679,1.867 C2.679,1.867 2.680,1.867 2.680,1.867 C2.681,1.865 2.681,1.863 2.682,1.861 C2.682,1.861 2.683,1.861 2.683,1.861 C2.683,1.860 2.683,1.858 2.683,1.857 C2.684,1.857 2.684,1.857 2.685,1.857 C2.685,1.855 2.686,1.853 2.686,1.851 C2.687,1.851 2.687,1.851 2.688,1.851 C2.688,1.850 2.688,1.848 2.688,1.847 C2.688,1.847 2.689,1.847 2.689,1.847 C2.690,1.845 2.690,1.843 2.691,1.841 C2.691,1.841 2.692,1.841 2.692,1.841 C2.692,1.840 2.692,1.838 2.692,1.837 C2.693,1.837 2.693,1.837 2.694,1.837 C2.694,1.836 2.694,1.835 2.694,1.834 C2.694,1.834 2.695,1.834 2.695,1.834 C2.696,1.832 2.696,1.830 2.697,1.828 C2.697,1.828 2.698,1.828 2.698,1.828 C2.698,1.827 2.698,1.825 2.698,1.824 C2.699,1.824 2.699,1.824 2.700,1.824 C2.700,1.823 2.700,1.822 2.700,1.821 C2.700,1.821 2.701,1.821 2.701,1.821 C2.702,1.819 2.702,1.817 2.703,1.815 C2.703,1.815 2.704,1.815 2.704,1.815 C2.704,1.814 2.704,1.812 2.704,1.811 C2.705,1.811 2.705,1.811 2.706,1.811 C2.706,1.810 2.706,1.809 2.706,1.808 C2.706,1.808 2.707,1.808 2.707,1.808 C2.708,1.806 2.708,1.804 2.709,1.802 C2.709,1.802 2.710,1.802 2.710,1.802 C2.710,1.801 2.710,1.799 2.710,1.798 C2.711,1.798 2.711,1.798 2.712,1.798 C2.712,1.797 2.712,1.796 2.712,1.795 C2.712,1.795 2.713,1.795 2.713,1.795 C2.714,1.792 2.715,1.789 2.716,1.786 C2.716,1.786 2.717,1.786 2.717,1.786 C2.717,1.785 2.717,1.783 2.717,1.782 C2.718,1.782 2.718,1.782 2.719,1.782 C2.719,1.781 2.719,1.780 2.719,1.779 C2.719,1.779 2.720,1.779 2.720,1.779 C2.720,1.778 2.720,1.777 2.720,1.776 C2.721,1.776 2.721,1.776 2.722,1.776 C2.723,1.773 2.724,1.770 2.725,1.768 C2.725,1.768 2.726,1.768 2.726,1.768 C2.726,1.766 2.726,1.765 2.726,1.763 C2.727,1.763 2.727,1.763 2.728,1.763 C2.728,1.761 2.729,1.759 2.729,1.758 C2.730,1.758 2.730,1.758 2.731,1.758 C2.732,1.755 2.733,1.752 2.734,1.749 C2.734,1.749 2.735,1.749 2.735,1.749 C2.736,1.747 2.736,1.745 2.737,1.743 C2.737,1.743 2.738,1.743 2.738,1.743 C2.738,1.742 2.738,1.740 2.738,1.739 C2.739,1.739 2.739,1.739 2.740,1.739 C2.741,1.736 2.742,1.733 2.743,1.730 C2.743,1.730 2.744,1.730 2.744,1.730 C2.744,1.729 2.744,1.728 2.744,1.727 C2.745,1.727 2.745,1.727 2.746,1.727 C2.746,1.726 2.746,1.725 2.746,1.724 C2.746,1.724 2.747,1.724 2.747,1.724 C2.747,1.723 2.747,1.722 2.747,1.722 C2.748,1.722 2.748,1.722 2.749,1.722 C2.749,1.721 2.749,1.720 2.749,1.719 C2.749,1.719 2.750,1.719 2.750,1.719 C2.750,1.718 2.750,1.717 2.750,1.716 C2.750,1.716 2.751,1.716 2.751,1.716 C2.751,1.715 2.751,1.714 2.751,1.713 C2.752,1.713 2.752,1.713 2.753,1.713 C2.753,1.712 2.753,1.711 2.753,1.710 C2.753,1.710 2.754,1.710 2.754,1.710 C2.754,1.709 2.754,1.708 2.754,1.707 C2.755,1.707 2.755,1.707 2.756,1.707 C2.756,1.706 2.756,1.705 2.756,1.704 C2.756,1.704 2.757,1.704 2.757,1.704 C2.758,1.701 2.759,1.698 2.760,1.696 C2.761,1.696 2.761,1.696 2.762,1.696 C2.762,1.694 2.762,1.693 2.762,1.691 C2.762,1.691 2.763,1.691 2.763,1.691 C2.764,1.688 2.765,1.686 2.766,1.683 C2.767,1.683 2.767,1.683 2.768,1.683 C2.768,1.682 2.768,1.681 2.768,1.680 C2.768,1.680 2.769,1.680 2.769,1.680 C2.770,1.678 2.770,1.676 2.771,1.674 C2.772,1.674 2.773,1.673 2.774,1.673 C2.774,1.672 2.774,1.671 2.774,1.670 C2.774,1.670 2.775,1.670 2.775,1.670 C2.775,1.669 2.775,1.668 2.775,1.667 C2.776,1.667 2.776,1.667 2.777,1.667 C2.777,1.666 2.777,1.665 2.777,1.664 C2.777,1.664 2.778,1.664 2.778,1.664 C2.778,1.663 2.778,1.662 2.778,1.661 C2.779,1.661 2.779,1.661 2.780,1.661 C2.780,1.660 2.780,1.659 2.780,1.658 C2.780,1.658 2.781,1.658 2.781,1.658 C2.781,1.657 2.781,1.656 2.781,1.655 C2.782,1.655 2.782,1.655 2.783,1.655 C2.783,1.654 2.783,1.653 2.783,1.652 C2.783,1.652 2.784,1.652 2.784,1.652 C2.785,1.650 2.785,1.649 2.786,1.647 C2.786,1.647 2.786,1.647 2.787,1.647 C2.787,1.646 2.787,1.645 2.787,1.644 C2.787,1.644 2.788,1.644 2.788,1.644 C2.788,1.643 2.788,1.642 2.788,1.641 C2.789,1.641 2.789,1.641 2.790,1.641 C2.790,1.640 2.790,1.639 2.790,1.638 C2.790,1.638 2.791,1.638 2.791,1.638 C2.791,1.637 2.791,1.636 2.791,1.635 C2.792,1.635 2.792,1.635 2.793,1.635 C2.794,1.632 2.795,1.629 2.796,1.626 C2.797,1.626 2.798,1.626 2.799,1.625 C2.799,1.624 2.799,1.623 2.799,1.622 C2.799,1.622 2.800,1.622 2.800,1.622 C2.800,1.621 2.800,1.620 2.800,1.619 C2.801,1.619 2.801,1.619 2.802,1.619 C2.802,1.618 2.802,1.617 2.802,1.616 C2.802,1.616 2.803,1.616 2.803,1.616 C2.803,1.615 2.803,1.614 2.803,1.613 C2.804,1.613 2.804,1.613 2.805,1.613 C2.805,1.613 2.805,1.612 2.805,1.611 C2.805,1.611 2.806,1.611 2.806,1.611 C2.806,1.610 2.806,1.609 2.806,1.608 C2.807,1.608 2.807,1.608 2.808,1.608 C2.808,1.607 2.808,1.606 2.808,1.605 C2.809,1.604 2.810,1.604 2.811,1.603 C2.811,1.602 2.811,1.601 2.811,1.601 C2.811,1.601 2.812,1.601 2.812,1.601 C2.812,1.600 2.812,1.599 2.812,1.598 C2.813,1.598 2.813,1.598 2.814,1.598 C2.814,1.597 2.814,1.596 2.814,1.595 C2.814,1.595 2.815,1.595 2.815,1.595 C2.815,1.594 2.815,1.593 2.815,1.592 C2.816,1.592 2.816,1.592 2.817,1.592 C2.817,1.590 2.818,1.588 2.818,1.586 C2.819,1.586 2.820,1.585 2.821,1.585 C2.821,1.584 2.821,1.583 2.821,1.582 C2.821,1.582 2.822,1.582 2.822,1.582 C2.822,1.581 2.822,1.580 2.822,1.579 C2.823,1.579 2.823,1.579 2.824,1.579 C2.824,1.578 2.824,1.577 2.824,1.576 C2.824,1.576 2.825,1.576 2.825,1.576 C2.825,1.575 2.825,1.574 2.825,1.573 C2.826,1.573 2.827,1.572 2.828,1.572 C2.828,1.571 2.828,1.570 2.828,1.569 C2.829,1.569 2.829,1.569 2.830,1.569 C2.830,1.568 2.830,1.567 2.830,1.566 C2.830,1.566 2.831,1.566 2.831,1.566 C2.831,1.565 2.831,1.564 2.831,1.563 C2.832,1.563 2.832,1.563 2.833,1.563 C2.833,1.562 2.833,1.561 2.833,1.560 C2.834,1.560 2.835,1.559 2.836,1.559 C2.836,1.558 2.836,1.557 2.836,1.556 C2.836,1.556 2.837,1.556 2.837,1.556 C2.837,1.555 2.837,1.554 2.837,1.553 C2.838,1.553 2.838,1.553 2.839,1.553 C2.839,1.552 2.839,1.551 2.839,1.550 C2.839,1.550 2.840,1.550 2.840,1.550 C2.840,1.549 2.840,1.548 2.840,1.547 C2.841,1.547 2.842,1.546 2.843,1.546 C2.844,1.543 2.845,1.540 2.846,1.537 C2.847,1.537 2.848,1.536 2.849,1.536 C2.849,1.535 2.849,1.534 2.849,1.533 C2.850,1.533 2.850,1.533 2.851,1.533 C2.851,1.532 2.851,1.531 2.851,1.530 C2.851,1.530 2.852,1.530 2.852,1.530 C2.852,1.529 2.852,1.528 2.852,1.527 C2.853,1.527 2.854,1.526 2.855,1.526 C2.856,1.523 2.857,1.520 2.858,1.517 C2.859,1.517 2.860,1.516 2.861,1.516 C2.861,1.515 2.861,1.514 2.861,1.513 C2.861,1.513 2.862,1.513 2.862,1.513 C2.862,1.512 2.862,1.511 2.862,1.510 C2.863,1.509 2.864,1.509 2.865,1.508 C2.866,1.505 2.867,1.503 2.868,1.500 C2.869,1.499 2.870,1.499 2.871,1.498 C2.872,1.496 2.872,1.494 2.873,1.493 C2.874,1.492 2.875,1.492 2.876,1.491 C2.876,1.489 2.877,1.487 2.877,1.485 C2.878,1.485 2.879,1.484 2.880,1.484 C2.881,1.482 2.881,1.480 2.882,1.478 C2.883,1.478 2.884,1.477 2.885,1.477 C2.885,1.475 2.886,1.473 2.886,1.471 C2.887,1.470 2.888,1.470 2.889,1.469 C2.890,1.468 2.890,1.466 2.891,1.464 C2.892,1.463 2.893,1.463 2.893,1.462 C2.894,1.460 2.894,1.458 2.895,1.457 C2.896,1.456 2.897,1.456 2.898,1.455 C2.898,1.454 2.898,1.453 2.898,1.452 C2.898,1.452 2.899,1.452 2.899,1.452 C2.899,1.451 2.899,1.450 2.899,1.449 C2.900,1.449 2.900,1.449 2.901,1.449 C2.901,1.448 2.902,1.446 2.902,1.445 C2.903,1.445 2.904,1.444 2.905,1.444 C2.905,1.443 2.905,1.442 2.905,1.441 C2.906,1.441 2.906,1.441 2.907,1.441 C2.907,1.440 2.907,1.439 2.907,1.438 C2.908,1.437 2.909,1.437 2.910,1.436 C2.910,1.435 2.910,1.434 2.910,1.433 C2.911,1.433 2.912,1.433 2.913,1.432 C2.913,1.430 2.914,1.428 2.914,1.426 C2.915,1.426 2.916,1.425 2.917,1.425 C2.917,1.424 2.917,1.423 2.917,1.422 C2.918,1.421 2.919,1.421 2.920,1.421 C2.921,1.419 2.921,1.417 2.922,1.415 C2.923,1.414 2.924,1.414 2.925,1.413 C2.925,1.412 2.925,1.411 2.925,1.410 C2.926,1.410 2.927,1.409 2.928,1.409 C2.928,1.408 2.928,1.407 2.928,1.406 C2.929,1.406 2.929,1.405 2.930,1.405 C2.931,1.403 2.931,1.401 2.932,1.399 C2.933,1.398 2.934,1.398 2.935,1.397 C2.935,1.397 2.935,1.396 2.935,1.395 C2.936,1.394 2.937,1.394 2.938,1.393 C2.938,1.392 2.938,1.391 2.938,1.390 C2.939,1.390 2.940,1.389 2.941,1.389 C2.941,1.388 2.941,1.387 2.941,1.386 C2.942,1.385 2.943,1.385 2.944,1.385 C2.944,1.383 2.945,1.381 2.945,1.379 C2.946,1.378 2.947,1.378 2.948,1.377 C2.948,1.376 2.948,1.375 2.948,1.374 C2.949,1.374 2.950,1.373 2.951,1.373 C2.951,1.372 2.951,1.371 2.951,1.370 C2.952,1.370 2.953,1.369 2.954,1.369 C2.954,1.368 2.954,1.367 2.954,1.366 C2.955,1.365 2.956,1.365 2.957,1.364 C2.957,1.363 2.957,1.362 2.957,1.361 C2.958,1.361 2.958,1.361 2.959,1.361 C2.959,1.360 2.960,1.359 2.960,1.357 C2.961,1.357 2.962,1.356 2.963,1.356 C2.963,1.355 2.963,1.354 2.963,1.353 C2.964,1.352 2.965,1.352 2.966,1.351 C2.966,1.350 2.966,1.349 2.966,1.349 C2.967,1.348 2.968,1.348 2.969,1.347 C2.969,1.346 2.969,1.345 2.969,1.344 C2.969,1.344 2.970,1.344 2.970,1.344 C2.971,1.343 2.971,1.341 2.972,1.340 C2.973,1.339 2.974,1.339 2.975,1.338 C2.975,1.337 2.975,1.337 2.975,1.336 C2.976,1.335 2.978,1.334 2.979,1.333 C2.979,1.332 2.979,1.331 2.979,1.330 C2.980,1.329 2.981,1.329 2.982,1.328 C2.983,1.327 2.983,1.325 2.984,1.324 C2.984,1.324 2.985,1.324 2.985,1.324 C2.985,1.323 2.985,1.322 2.985,1.321 C2.986,1.321 2.987,1.320 2.988,1.320 C2.988,1.319 2.988,1.318 2.988,1.317 C2.989,1.316 2.990,1.316 2.991,1.315 C2.991,1.314 2.991,1.313 2.991,1.313 C2.993,1.312 2.994,1.311 2.996,1.310 C2.996,1.309 2.996,1.308 2.996,1.307 C2.996,1.307 2.997,1.307 2.997,1.307 C2.998,1.305 2.998,1.304 2.999,1.302 C3.000,1.302 3.000,1.301 3.001,1.301 C3.001,1.300 3.001,1.299 3.001,1.298 C3.003,1.297 3.004,1.296 3.006,1.295 C3.006,1.294 3.006,1.293 3.006,1.292 C3.006,1.292 3.007,1.292 3.007,1.292 C3.008,1.291 3.008,1.289 3.009,1.288 C3.010,1.288 3.011,1.287 3.012,1.287 C3.012,1.286 3.012,1.285 3.012,1.284 C3.013,1.283 3.015,1.282 3.016,1.281 C3.016,1.280 3.016,1.279 3.016,1.278 C3.017,1.277 3.018,1.277 3.019,1.276 C3.019,1.276 3.019,1.275 3.019,1.274 C3.020,1.273 3.021,1.273 3.022,1.272 C3.023,1.271 3.023,1.269 3.024,1.268 C3.025,1.267 3.027,1.266 3.028,1.265 C3.028,1.264 3.028,1.263 3.028,1.262 C3.029,1.262 3.030,1.261 3.031,1.261 C3.031,1.260 3.031,1.259 3.031,1.258 C3.032,1.257 3.033,1.257 3.034,1.256 C3.035,1.255 3.035,1.253 3.036,1.252 C3.037,1.251 3.038,1.250 3.040,1.249 C3.040,1.248 3.040,1.247 3.040,1.246 C3.041,1.246 3.042,1.245 3.043,1.245 C3.043,1.244 3.043,1.243 3.043,1.242 C3.044,1.241 3.046,1.240 3.047,1.239 C3.047,1.238 3.047,1.237 3.047,1.236 C3.049,1.235 3.050,1.234 3.052,1.233 C3.052,1.232 3.052,1.231 3.052,1.230 C3.053,1.229 3.055,1.228 3.056,1.228 C3.056,1.227 3.056,1.226 3.056,1.225 C3.058,1.224 3.059,1.223 3.061,1.222 C3.061,1.221 3.061,1.220 3.061,1.219 C3.062,1.218 3.064,1.217 3.065,1.216 C3.065,1.215 3.065,1.214 3.065,1.213 C3.067,1.212 3.068,1.211 3.070,1.210 C3.070,1.209 3.070,1.208 3.070,1.207 C3.071,1.206 3.072,1.205 3.074,1.204 C3.074,1.204 3.074,1.203 3.074,1.202 C3.076,1.200 3.078,1.199 3.080,1.197 C3.080,1.196 3.081,1.194 3.081,1.193 C3.082,1.192 3.083,1.192 3.084,1.192 C3.084,1.191 3.084,1.190 3.084,1.189 C3.086,1.187 3.088,1.186 3.090,1.184 C3.090,1.183 3.090,1.182 3.090,1.181 C3.091,1.181 3.092,1.180 3.093,1.180 C3.094,1.179 3.094,1.177 3.095,1.176 C3.097,1.174 3.099,1.173 3.101,1.171 C3.101,1.170 3.101,1.169 3.101,1.168 C3.103,1.167 3.105,1.166 3.107,1.164 C3.107,1.163 3.107,1.162 3.107,1.161 C3.108,1.160 3.109,1.159 3.111,1.158 C3.111,1.157 3.111,1.156 3.111,1.156 C3.113,1.154 3.115,1.153 3.117,1.151 C3.117,1.150 3.117,1.149 3.117,1.148 C3.119,1.146 3.122,1.144 3.124,1.143 C3.124,1.142 3.124,1.141 3.124,1.140 C3.125,1.139 3.126,1.139 3.127,1.138 C3.127,1.138 3.127,1.137 3.127,1.137 C3.128,1.136 3.129,1.136 3.130,1.135 C3.130,1.134 3.130,1.133 3.130,1.132 C3.131,1.132 3.132,1.132 3.133,1.131 C3.133,1.131 3.133,1.130 3.133,1.130 C3.134,1.129 3.135,1.129 3.136,1.128 C3.136,1.127 3.136,1.126 3.136,1.125 C3.139,1.123 3.141,1.121 3.143,1.120 C3.143,1.119 3.143,1.118 3.143,1.117 C3.146,1.115 3.148,1.113 3.151,1.111 C3.151,1.110 3.151,1.109 3.151,1.108 C3.153,1.106 3.156,1.104 3.158,1.102 C3.158,1.101 3.158,1.100 3.158,1.099 C3.161,1.097 3.163,1.096 3.166,1.094 C3.166,1.093 3.166,1.092 3.166,1.091 C3.169,1.088 3.172,1.086 3.175,1.084 C3.175,1.083 3.175,1.082 3.175,1.081 C3.178,1.078 3.180,1.076 3.183,1.073 C3.183,1.072 3.183,1.072 3.183,1.071 C3.187,1.068 3.190,1.065 3.194,1.062 C3.194,1.061 3.194,1.060 3.194,1.059 C3.197,1.056 3.201,1.053 3.204,1.050 C3.204,1.049 3.204,1.048 3.204,1.048 C3.208,1.045 3.211,1.042 3.214,1.039 C3.214,1.038 3.214,1.037 3.214,1.036 C3.219,1.032 3.223,1.028 3.228,1.024 C3.228,1.024 3.228,1.023 3.228,1.022 C3.233,1.017 3.238,1.013 3.243,1.009 C3.243,1.008 3.243,1.007 3.243,1.006 C3.248,1.001 3.253,0.996 3.259,0.991 C3.259,0.991 3.259,0.990 3.259,0.990 C3.260,0.989 3.261,0.989 3.262,0.988 C3.262,0.988 3.262,0.987 3.262,0.986 C3.263,0.985 3.265,0.984 3.266,0.983 C3.269,0.980 3.271,0.977 3.274,0.974 C3.279,0.970 3.284,0.965 3.288,0.961 C3.301,0.945 3.317,0.932 3.331,0.918 C3.345,0.904 3.358,0.889 3.374,0.878 C3.381,0.871 3.387,0.864 3.393,0.857 C3.395,0.856 3.397,0.855 3.399,0.853 C3.399,0.853 3.399,0.852 3.399,0.852 C3.400,0.852 3.401,0.852 3.402,0.852 C3.406,0.847 3.410,0.843 3.414,0.839 C3.416,0.838 3.417,0.837 3.419,0.836 C3.419,0.835 3.419,0.835 3.419,0.834 C3.420,0.834 3.421,0.834 3.422,0.834 C3.426,0.830 3.430,0.825 3.435,0.820 C3.436,0.820 3.437,0.820 3.438,0.820 C3.442,0.816 3.446,0.811 3.450,0.807 C3.451,0.807 3.452,0.807 3.453,0.807 C3.453,0.807 3.453,0.806 3.453,0.806 C3.455,0.804 3.457,0.803 3.459,0.801 C3.460,0.799 3.462,0.797 3.463,0.795 C3.464,0.795 3.465,0.795 3.466,0.795 C3.469,0.792 3.472,0.789 3.475,0.785 C3.476,0.785 3.477,0.785 3.478,0.785 C3.478,0.785 3.478,0.784 3.478,0.784 C3.479,0.783 3.481,0.782 3.482,0.781 C3.483,0.780 3.484,0.778 3.485,0.777 C3.486,0.777 3.487,0.777 3.488,0.777 C3.489,0.775 3.490,0.774 3.491,0.772 C3.493,0.771 3.494,0.771 3.496,0.770 C3.496,0.769 3.496,0.769 3.496,0.768 C3.497,0.768 3.498,0.768 3.499,0.768 C3.501,0.765 3.503,0.762 3.506,0.759 C3.507,0.759 3.508,0.759 3.509,0.759 C3.511,0.757 3.513,0.755 3.515,0.752 C3.516,0.752 3.517,0.752 3.518,0.752 C3.520,0.750 3.522,0.747 3.524,0.745 C3.525,0.745 3.526,0.745 3.527,0.745 C3.529,0.743 3.531,0.740 3.533,0.738 C3.534,0.738 3.535,0.738 3.536,0.738 C3.537,0.735 3.539,0.733 3.541,0.731 C3.542,0.731 3.543,0.731 3.544,0.731 C3.546,0.729 3.547,0.727 3.549,0.725 C3.550,0.725 3.551,0.725 3.552,0.725 C3.554,0.723 3.556,0.720 3.558,0.718 C3.559,0.718 3.560,0.718 3.561,0.718 C3.562,0.716 3.564,0.714 3.565,0.712 C3.566,0.712 3.567,0.712 3.568,0.712 C3.570,0.710 3.571,0.708 3.572,0.706 C3.573,0.706 3.574,0.706 3.575,0.706 C3.577,0.704 3.578,0.702 3.580,0.700 C3.581,0.700 3.582,0.700 3.583,0.700 C3.583,0.699 3.584,0.699 3.584,0.698 C3.586,0.697 3.587,0.697 3.589,0.696 C3.590,0.694 3.592,0.692 3.593,0.690 C3.594,0.690 3.595,0.690 3.596,0.690 C3.598,0.688 3.599,0.687 3.601,0.685 C3.602,0.685 3.603,0.685 3.604,0.685 C3.605,0.683 3.606,0.682 3.607,0.680 C3.607,0.680 3.608,0.680 3.609,0.680 C3.610,0.679 3.611,0.677 3.612,0.676 C3.613,0.676 3.614,0.676 3.615,0.676 C3.617,0.674 3.618,0.672 3.620,0.670 C3.621,0.670 3.622,0.670 3.623,0.670 C3.624,0.669 3.625,0.667 3.626,0.666 C3.627,0.666 3.628,0.666 3.629,0.666 C3.630,0.664 3.631,0.663 3.632,0.662 C3.633,0.662 3.634,0.662 3.635,0.662 C3.636,0.660 3.637,0.659 3.638,0.657 C3.639,0.657 3.640,0.657 3.641,0.657 C3.642,0.656 3.643,0.654 3.643,0.653 C3.644,0.653 3.645,0.653 3.646,0.653 C3.647,0.651 3.648,0.650 3.649,0.649 C3.650,0.649 3.651,0.649 3.652,0.649 C3.653,0.647 3.654,0.646 3.655,0.644 C3.656,0.644 3.657,0.644 3.658,0.644 C3.659,0.643 3.660,0.641 3.661,0.640 C3.662,0.640 3.663,0.640 3.664,0.640 C3.665,0.639 3.665,0.638 3.666,0.637 C3.667,0.637 3.668,0.637 3.669,0.637 C3.669,0.636 3.670,0.635 3.670,0.634 C3.672,0.634 3.673,0.633 3.675,0.633 C3.676,0.631 3.677,0.630 3.678,0.628 C3.679,0.628 3.679,0.628 3.680,0.628 C3.681,0.627 3.681,0.626 3.682,0.626 C3.683,0.626 3.684,0.626 3.685,0.626 C3.685,0.625 3.686,0.624 3.686,0.623 C3.688,0.622 3.689,0.622 3.691,0.621 C3.692,0.620 3.693,0.618 3.694,0.617 C3.695,0.617 3.696,0.617 3.697,0.617 C3.697,0.616 3.698,0.615 3.698,0.614 C3.699,0.614 3.700,0.614 3.701,0.614 C3.702,0.613 3.703,0.611 3.704,0.610 C3.705,0.610 3.706,0.610 3.707,0.610 C3.707,0.609 3.707,0.609 3.707,0.608 C3.709,0.608 3.710,0.607 3.712,0.607 C3.712,0.606 3.713,0.605 3.713,0.604 C3.714,0.604 3.715,0.604 3.716,0.604 C3.717,0.602 3.718,0.601 3.719,0.600 C3.720,0.600 3.721,0.600 3.722,0.600 C3.722,0.599 3.722,0.599 3.722,0.598 C3.723,0.598 3.725,0.597 3.726,0.597 C3.727,0.596 3.727,0.595 3.728,0.594 C3.729,0.594 3.730,0.594 3.731,0.594 C3.732,0.592 3.733,0.591 3.734,0.590 C3.735,0.590 3.736,0.590 3.737,0.590 C3.737,0.589 3.738,0.588 3.738,0.587 C3.740,0.586 3.741,0.586 3.743,0.585 C3.743,0.585 3.743,0.584 3.743,0.584 C3.744,0.584 3.745,0.584 3.746,0.584 C3.746,0.583 3.747,0.582 3.747,0.581 C3.748,0.581 3.749,0.581 3.750,0.581 C3.750,0.580 3.751,0.579 3.751,0.578 C3.752,0.578 3.753,0.578 3.754,0.578 C3.755,0.577 3.755,0.576 3.756,0.575 C3.757,0.575 3.758,0.575 3.759,0.575 C3.760,0.574 3.761,0.572 3.762,0.571 C3.763,0.571 3.764,0.571 3.765,0.571 C3.765,0.570 3.766,0.569 3.766,0.568 C3.768,0.567 3.769,0.567 3.771,0.566 C3.771,0.566 3.771,0.566 3.771,0.565 C3.772,0.565 3.773,0.565 3.774,0.565 C3.774,0.564 3.775,0.563 3.775,0.562 C3.776,0.562 3.777,0.562 3.778,0.562 C3.779,0.561 3.779,0.560 3.780,0.559 C3.781,0.559 3.782,0.559 3.783,0.559 C3.783,0.558 3.784,0.557 3.784,0.556 C3.785,0.556 3.786,0.556 3.787,0.556 C3.787,0.555 3.788,0.554 3.788,0.554 C3.790,0.553 3.792,0.553 3.794,0.552 C3.795,0.551 3.795,0.550 3.796,0.549 C3.797,0.549 3.798,0.549 3.799,0.549 C3.799,0.548 3.800,0.547 3.800,0.546 C3.801,0.546 3.802,0.546 3.803,0.546 C3.803,0.546 3.803,0.545 3.803,0.545 C3.805,0.544 3.806,0.544 3.808,0.543 C3.808,0.542 3.809,0.542 3.809,0.541 C3.810,0.541 3.811,0.541 3.812,0.541 C3.813,0.540 3.813,0.539 3.814,0.538 C3.815,0.537 3.817,0.537 3.818,0.536 C3.818,0.536 3.818,0.535 3.818,0.535 C3.820,0.534 3.822,0.534 3.824,0.533 C3.824,0.533 3.824,0.532 3.824,0.532 C3.825,0.531 3.827,0.531 3.828,0.530 C3.829,0.530 3.829,0.529 3.830,0.528 C3.831,0.528 3.832,0.528 3.833,0.528 C3.833,0.527 3.834,0.526 3.834,0.525 C3.836,0.524 3.838,0.524 3.840,0.523 C3.841,0.522 3.841,0.521 3.842,0.520 C3.843,0.520 3.844,0.520 3.845,0.520 C3.845,0.519 3.846,0.518 3.846,0.518 C3.848,0.517 3.850,0.517 3.852,0.516 C3.853,0.515 3.853,0.514 3.854,0.513 C3.855,0.513 3.856,0.513 3.857,0.513 C3.857,0.512 3.857,0.511 3.858,0.510 C3.860,0.510 3.862,0.509 3.864,0.509 C3.864,0.508 3.864,0.508 3.864,0.507 C3.865,0.507 3.867,0.506 3.868,0.506 C3.869,0.505 3.869,0.504 3.870,0.503 C3.871,0.503 3.872,0.503 3.873,0.503 C3.873,0.503 3.873,0.502 3.873,0.502 C3.874,0.502 3.875,0.502 3.876,0.502 C3.876,0.501 3.877,0.500 3.877,0.499 C3.879,0.498 3.881,0.498 3.883,0.497 C3.884,0.496 3.884,0.495 3.885,0.494 C3.887,0.494 3.889,0.494 3.891,0.493 C3.891,0.492 3.892,0.491 3.892,0.490 C3.894,0.490 3.896,0.489 3.898,0.489 C3.898,0.488 3.899,0.487 3.899,0.486 C3.901,0.485 3.903,0.485 3.905,0.484 C3.906,0.483 3.906,0.482 3.907,0.482 C3.909,0.481 3.911,0.481 3.913,0.480 C3.913,0.479 3.914,0.478 3.914,0.477 C3.915,0.477 3.916,0.477 3.917,0.477 C3.917,0.477 3.917,0.476 3.917,0.476 C3.918,0.476 3.919,0.476 3.920,0.476 C3.921,0.475 3.921,0.474 3.922,0.473 C3.924,0.472 3.926,0.472 3.928,0.471 C3.928,0.470 3.929,0.470 3.929,0.469 C3.930,0.469 3.931,0.469 3.932,0.469 C3.932,0.468 3.932,0.468 3.932,0.467 C3.933,0.467 3.934,0.467 3.935,0.467 C3.935,0.467 3.935,0.466 3.935,0.466 C3.936,0.466 3.937,0.466 3.938,0.466 C3.938,0.465 3.939,0.464 3.939,0.463 C3.942,0.462 3.945,0.461 3.948,0.460 C3.949,0.459 3.949,0.458 3.950,0.457 C3.953,0.456 3.956,0.455 3.959,0.454 C3.959,0.453 3.960,0.452 3.960,0.451 C3.963,0.450 3.966,0.449 3.969,0.448 C3.969,0.447 3.970,0.446 3.970,0.446 C3.973,0.445 3.976,0.444 3.979,0.443 C3.980,0.442 3.980,0.441 3.981,0.440 C3.982,0.440 3.983,0.440 3.984,0.440 C3.984,0.439 3.984,0.439 3.984,0.438 C3.985,0.438 3.986,0.438 3.987,0.438 C3.987,0.438 3.987,0.437 3.987,0.437 C3.988,0.437 3.989,0.437 3.990,0.437 C3.990,0.436 3.990,0.436 3.990,0.435 C3.991,0.435 3.992,0.435 3.993,0.435 C3.993,0.434 3.994,0.434 3.994,0.433 C3.995,0.433 3.996,0.433 3.997,0.433 C3.997,0.432 3.997,0.432 3.997,0.431 C3.998,0.431 3.999,0.431 4.000,0.431 C4.000,0.431 4.000,0.430 4.000,0.430 C4.001,0.430 4.002,0.430 4.003,0.430 C4.003,0.429 4.003,0.429 4.003,0.428 C4.004,0.428 4.005,0.428 4.006,0.428 C4.006,0.428 4.006,0.427 4.006,0.427 C4.007,0.427 4.008,0.427 4.009,0.427 C4.009,0.426 4.010,0.425 4.010,0.424 C4.011,0.424 4.012,0.424 4.013,0.424 C4.013,0.423 4.013,0.423 4.013,0.422 C4.014,0.422 4.015,0.422 4.016,0.422 C4.016,0.422 4.016,0.422 4.016,0.421 C4.017,0.421 4.018,0.421 4.019,0.421 C4.019,0.421 4.019,0.420 4.019,0.420 C4.020,0.420 4.021,0.420 4.022,0.420 C4.022,0.419 4.022,0.419 4.022,0.418 C4.024,0.418 4.026,0.417 4.028,0.417 C4.029,0.416 4.029,0.415 4.030,0.414 C4.031,0.414 4.032,0.414 4.033,0.414 C4.033,0.413 4.033,0.413 4.033,0.412 C4.034,0.412 4.035,0.412 4.036,0.412 C4.036,0.412 4.036,0.411 4.036,0.411 C4.036,0.411 4.037,0.411 4.038,0.411 C4.038,0.410 4.038,0.410 4.038,0.410 C4.039,0.410 4.040,0.410 4.041,0.410 C4.041,0.409 4.041,0.409 4.041,0.408 C4.042,0.408 4.043,0.408 4.044,0.408 C4.044,0.408 4.044,0.407 4.044,0.407 C4.046,0.406 4.048,0.406 4.050,0.405 C4.051,0.404 4.051,0.403 4.052,0.402 C4.053,0.402 4.054,0.402 4.055,0.402 C4.055,0.402 4.055,0.401 4.055,0.401 C4.056,0.401 4.057,0.401 4.058,0.401 C4.058,0.400 4.058,0.400 4.058,0.399 C4.059,0.399 4.060,0.399 4.061,0.399 C4.061,0.399 4.061,0.398 4.061,0.398 C4.062,0.398 4.063,0.398 4.064,0.398 C4.064,0.398 4.064,0.397 4.064,0.397 C4.065,0.397 4.066,0.397 4.067,0.397 C4.067,0.396 4.067,0.396 4.067,0.395 C4.070,0.394 4.072,0.393 4.075,0.392 C4.075,0.392 4.075,0.391 4.075,0.391 C4.078,0.390 4.081,0.389 4.084,0.388 C4.084,0.387 4.084,0.387 4.084,0.386 C4.086,0.386 4.088,0.386 4.090,0.385 C4.090,0.385 4.090,0.384 4.090,0.384 C4.092,0.383 4.094,0.383 4.096,0.382 C4.096,0.382 4.096,0.381 4.096,0.381 C4.097,0.381 4.098,0.381 4.099,0.381 C4.099,0.380 4.099,0.380 4.099,0.379 C4.100,0.379 4.101,0.379 4.102,0.379 C4.102,0.379 4.102,0.378 4.102,0.378 C4.103,0.378 4.104,0.378 4.105,0.378 C4.105,0.377 4.105,0.377 4.105,0.376 C4.106,0.376 4.107,0.376 4.108,0.376 C4.108,0.376 4.108,0.375 4.108,0.375 C4.109,0.375 4.110,0.375 4.111,0.375 C4.111,0.374 4.111,0.374 4.111,0.374 C4.112,0.374 4.113,0.374 4.114,0.374 C4.114,0.373 4.114,0.373 4.114,0.372 C4.115,0.372 4.116,0.372 4.117,0.372 C4.117,0.372 4.117,0.371 4.117,0.371 C4.118,0.371 4.119,0.371 4.120,0.371 C4.120,0.370 4.120,0.370 4.120,0.369 C4.121,0.369 4.122,0.369 4.123,0.369 C4.186,0.336 4.255,0.309 4.321,0.280 C4.330,0.277 4.339,0.274 4.348,0.271 C4.348,0.271 4.348,0.270 4.348,0.270 C4.349,0.270 4.350,0.270 4.351,0.270 C4.351,0.269 4.351,0.269 4.351,0.268 C4.353,0.268 4.356,0.267 4.358,0.267 C4.358,0.266 4.358,0.266 4.358,0.265 C4.359,0.265 4.361,0.265 4.362,0.265 C4.362,0.265 4.362,0.265 4.362,0.264 C4.363,0.264 4.364,0.264 4.365,0.264 C4.365,0.264 4.365,0.263 4.365,0.263 C4.367,0.263 4.368,0.263 4.370,0.263 C4.370,0.262 4.370,0.262 4.370,0.261 C4.371,0.261 4.372,0.261 4.373,0.261 C4.373,0.261 4.373,0.260 4.373,0.260 C4.374,0.260 4.376,0.260 4.377,0.260 C4.377,0.259 4.377,0.259 4.377,0.258 C4.378,0.258 4.379,0.258 4.380,0.258 C4.380,0.258 4.380,0.257 4.380,0.257 C4.382,0.257 4.383,0.257 4.385,0.257 C4.385,0.256 4.385,0.256 4.385,0.255 C4.386,0.255 4.387,0.255 4.388,0.255 C4.388,0.255 4.388,0.254 4.388,0.254 C4.391,0.253 4.393,0.253 4.396,0.253 C4.396,0.252 4.396,0.252 4.396,0.251 C4.397,0.251 4.398,0.251 4.399,0.251 C4.399,0.251 4.399,0.250 4.399,0.250 C4.401,0.250 4.402,0.250 4.404,0.250 C4.404,0.249 4.404,0.249 4.404,0.248 C4.405,0.248 4.406,0.248 4.407,0.248 C4.407,0.248 4.407,0.247 4.407,0.247 C4.410,0.246 4.413,0.246 4.416,0.245 C4.416,0.245 4.416,0.244 4.416,0.244 C4.417,0.244 4.418,0.244 4.419,0.244 C4.419,0.243 4.419,0.243 4.419,0.242 C4.420,0.242 4.422,0.242 4.423,0.242 C4.423,0.242 4.423,0.241 4.423,0.241 C4.425,0.241 4.426,0.241 4.428,0.241 C4.428,0.241 4.428,0.240 4.428,0.240 C4.429,0.240 4.429,0.240 4.430,0.240 C4.430,0.239 4.430,0.239 4.430,0.238 C4.433,0.238 4.436,0.237 4.439,0.237 C4.439,0.236 4.439,0.236 4.439,0.235 C4.440,0.235 4.441,0.235 4.442,0.235 C4.442,0.235 4.442,0.234 4.442,0.234 C4.445,0.233 4.448,0.233 4.451,0.232 C4.451,0.232 4.451,0.231 4.451,0.231 C4.453,0.231 4.454,0.231 4.456,0.231 C4.456,0.230 4.456,0.230 4.456,0.229 C4.457,0.229 4.458,0.229 4.459,0.229 C4.459,0.229 4.459,0.229 4.459,0.228 C4.463,0.227 4.467,0.226 4.472,0.225 C4.472,0.225 4.472,0.224 4.472,0.224 C4.473,0.224 4.474,0.224 4.475,0.224 C4.475,0.223 4.475,0.223 4.475,0.222 C4.476,0.222 4.478,0.222 4.479,0.222 C4.479,0.222 4.479,0.221 4.479,0.221 C4.481,0.221 4.482,0.221 4.484,0.221 C4.484,0.220 4.484,0.220 4.484,0.219 C4.485,0.219 4.487,0.219 4.488,0.219 C4.488,0.219 4.488,0.218 4.488,0.218 C4.490,0.218 4.491,0.218 4.493,0.218 C4.493,0.217 4.493,0.217 4.493,0.217 C4.494,0.217 4.496,0.217 4.497,0.217 C4.497,0.216 4.497,0.216 4.497,0.215 C4.498,0.215 4.499,0.215 4.500,0.215 C4.500,0.215 4.500,0.214 4.500,0.214 C4.503,0.213 4.506,0.213 4.509,0.212 C4.509,0.212 4.509,0.211 4.509,0.211 C4.510,0.211 4.512,0.211 4.513,0.211 C4.513,0.210 4.513,0.210 4.513,0.209 C4.515,0.209 4.516,0.209 4.518,0.209 C4.518,0.209 4.518,0.208 4.518,0.208 C4.519,0.208 4.521,0.208 4.522,0.208 C4.522,0.207 4.522,0.207 4.522,0.206 C4.524,0.206 4.525,0.206 4.527,0.206 C4.527,0.206 4.527,0.205 4.527,0.205 C4.528,0.205 4.530,0.205 4.531,0.205 C4.531,0.205 4.531,0.204 4.531,0.204 C4.533,0.204 4.534,0.204 4.536,0.204 C4.536,0.203 4.536,0.203 4.536,0.202 C4.540,0.201 4.544,0.200 4.549,0.199 C4.600,0.179 4.658,0.167 4.712,0.149 C4.715,0.148 4.719,0.148 4.723,0.147 C4.742,0.141 4.764,0.137 4.783,0.130 C4.788,0.129 4.794,0.128 4.800,0.127 C4.815,0.122 4.833,0.119 4.848,0.114 C4.850,0.114 4.853,0.114 4.855,0.114 C4.877,0.107 4.903,0.104 4.925,0.097 C4.929,0.097 4.934,0.096 4.939,0.096 C4.939,0.095 4.939,0.095 4.939,0.094 C4.941,0.094 4.943,0.094 4.945,0.094 C4.945,0.094 4.945,0.093 4.945,0.093 C4.948,0.093 4.950,0.093 4.953,0.093 C4.953,0.092 4.953,0.092 4.953,0.091 C4.955,0.091 4.958,0.091 4.960,0.091 C4.960,0.091 4.960,0.090 4.960,0.090 C4.962,0.090 4.964,0.090 4.966,0.090 C4.966,0.089 4.966,0.089 4.966,0.088 C4.968,0.088 4.971,0.088 4.973,0.088 C4.982,0.086 4.994,0.084 5.003,0.081 C5.008,0.081 5.013,0.080 5.018,0.080 C5.029,0.076 5.045,0.074 5.056,0.071 C5.059,0.071 5.062,0.071 5.065,0.071 C5.080,0.067 5.100,0.065 5.115,0.061 C5.121,0.061 5.127,0.060 5.133,0.060 C5.153,0.054 5.178,0.054 5.198,0.048 C5.202,0.048 5.205,0.048 5.209,0.048 C5.209,0.048 5.209,0.047 5.209,0.047 C5.212,0.047 5.215,0.047 5.219,0.047 C5.219,0.046 5.219,0.046 5.219,0.045 C5.222,0.045 5.226,0.045 5.229,0.045 C5.229,0.045 5.229,0.044 5.229,0.044 C5.233,0.044 5.236,0.044 5.240,0.044 C5.240,0.043 5.240,0.043 5.240,0.042 C5.243,0.042 5.247,0.042 5.250,0.042 C5.250,0.042 5.250,0.041 5.250,0.041 C5.253,0.041 5.257,0.041 5.260,0.041 C5.260,0.040 5.260,0.040 5.260,0.039 C5.264,0.039 5.268,0.039 5.272,0.039 C5.286,0.036 5.304,0.036 5.318,0.032 C5.322,0.032 5.327,0.032 5.331,0.032 C5.331,0.032 5.331,0.031 5.331,0.031 C5.335,0.031 5.339,0.031 5.343,0.031 C5.343,0.030 5.343,0.030 5.343,0.029 C5.348,0.029 5.352,0.029 5.357,0.029 C5.357,0.029 5.357,0.028 5.357,0.028 C5.361,0.028 5.365,0.028 5.370,0.028 C5.370,0.027 5.370,0.027 5.370,0.026 C5.375,0.026 5.380,0.026 5.385,0.026 C5.385,0.026 5.385,0.025 5.385,0.025 C5.389,0.025 5.393,0.025 5.398,0.025 C5.398,0.024 5.398,0.024 5.398,0.024 C5.403,0.024 5.408,0.024 5.413,0.024 C5.413,0.023 5.413,0.023 5.413,0.022 C5.418,0.022 5.423,0.022 5.428,0.022 C5.428,0.022 5.428,0.021 5.428,0.021 C5.433,0.021 5.438,0.021 5.444,0.021 C5.444,0.020 5.444,0.020 5.444,0.019 C5.449,0.019 5.455,0.019 5.460,0.019 C5.460,0.019 5.460,0.018 5.460,0.018 C5.466,0.018 5.472,0.018 5.478,0.018 C5.478,0.017 5.478,0.017 5.478,0.016 C5.484,0.016 5.490,0.016 5.496,0.016 C5.496,0.016 5.496,0.015 5.496,0.015 C5.501,0.015 5.507,0.015 5.513,0.015 C5.513,0.014 5.513,0.014 5.513,0.013 C5.527,0.013 5.541,0.012 5.555,0.012 C5.555,0.012 5.555,0.011 5.555,0.011 C5.565,0.010 5.575,0.010 5.586,0.009 C5.591,0.009 5.597,0.009 5.602,0.009 C5.602,0.009 5.602,0.008 5.602,0.008 C5.611,0.008 5.620,0.008 5.629,0.008 C5.629,0.007 5.629,0.007 5.629,0.006 C5.639,0.006 5.648,0.006 5.658,0.006 C5.658,0.006 5.658,0.005 5.658,0.005 C5.670,0.005 5.682,0.005 5.694,0.005 C5.694,0.004 5.694,0.004 5.694,0.003 C5.701,0.003 5.708,0.003 5.714,0.003 C5.722,0.003 5.729,0.003 5.737,0.003 C5.749,0.000 5.769,0.002 5.784,0.002 C5.789,0.002 5.794,0.002 5.799,0.002 C5.811,-0.001 5.830,0.000 5.845,0.000 C5.875,0.000 5.906,0.000 5.936,0.000 C6.021,0.001 6.106,0.001 6.191,0.002 C6.191,0.002 6.191,0.003 6.191,0.003 C6.195,0.003 6.200,0.003 6.204,0.003 C6.229,0.003 6.254,0.003 6.280,0.003 C6.280,0.004 6.280,0.004 6.280,0.005 C6.285,0.005 6.290,0.005 6.296,0.005 C6.313,0.005 6.337,0.002 6.352,0.006 C6.409,0.007 6.466,0.008 6.524,0.009 C6.536,0.013 6.555,0.008 6.570,0.011 C6.576,0.012 6.583,0.012 6.592,0.012 C6.600,0.012 6.608,0.012 6.617,0.012 C6.617,0.012 6.617,0.013 6.617,0.013 C6.631,0.013 6.645,0.013 6.660,0.013 C6.660,0.014 6.660,0.014 6.660,0.015 C6.665,0.015 6.671,0.015 6.676,0.015 C6.684,0.015 6.692,0.015 6.700,0.015 C6.700,0.015 6.700,0.016 6.700,0.016 C6.713,0.016 6.725,0.016 6.738,0.016 C6.738,0.017 6.738,0.017 6.738,0.018 C6.750,0.018 6.763,0.018 6.775,0.018 C6.775,0.018 6.775,0.019 6.775,0.019 C6.787,0.019 6.799,0.019 6.811,0.019 C6.820,0.022 6.835,0.018 6.845,0.021 C6.853,0.023 6.868,0.020 6.877,0.022 C6.895,0.027 6.923,0.021 6.941,0.026 C6.970,0.027 7.000,0.028 7.030,0.029 C7.030,0.030 7.030,0.030 7.030,0.031 C7.039,0.031 7.048,0.031 7.058,0.031 C7.058,0.031 7.058,0.032 7.058,0.032 C7.060,0.032 7.063,0.032 7.065,0.032 C7.071,0.032 7.078,0.032 7.084,0.032 C7.084,0.033 7.084,0.033 7.084,0.034 C7.097,0.034 7.109,0.035 7.121,0.035 C7.127,0.035 7.132,0.035 7.138,0.035 C7.138,0.036 7.138,0.036 7.138,0.036 C7.149,0.037 7.160,0.037 7.172,0.038 C7.177,0.038 7.182,0.038 7.188,0.038 C7.188,0.038 7.188,0.039 7.188,0.039 C7.196,0.039 7.205,0.039 7.213,0.039 C7.213,0.040 7.213,0.040 7.213,0.041 C7.221,0.041 7.229,0.041 7.237,0.041 C7.237,0.041 7.237,0.042 7.237,0.042 C7.247,0.043 7.257,0.043 7.268,0.044 C7.273,0.044 7.279,0.044 7.284,0.044 C7.284,0.044 7.284,0.045 7.284,0.045 C7.291,0.045 7.299,0.045 7.306,0.045 C7.306,0.046 7.306,0.046 7.306,0.047 C7.328,0.048 7.351,0.049 7.373,0.049 C7.373,0.050 7.373,0.050 7.373,0.051 C7.382,0.051 7.392,0.052 7.401,0.052 C7.406,0.052 7.411,0.052 7.416,0.052 C7.416,0.053 7.416,0.053 7.416,0.054 C7.423,0.054 7.429,0.054 7.436,0.054 C7.436,0.054 7.436,0.055 7.436,0.055 C7.438,0.055 7.439,0.055 7.441,0.055 C7.446,0.055 7.451,0.055 7.456,0.055 C7.456,0.056 7.456,0.056 7.456,0.057 C7.463,0.057 7.469,0.057 7.476,0.057 C7.476,0.057 7.476,0.058 7.476,0.058 C7.483,0.058 7.489,0.058 7.496,0.058 C7.496,0.059 7.496,0.059 7.496,0.060 C7.502,0.060 7.509,0.060 7.516,0.060 C7.516,0.060 7.516,0.061 7.516,0.061 C7.518,0.061 7.519,0.061 7.521,0.061 C7.526,0.061 7.531,0.061 7.536,0.061 C7.536,0.061 7.536,0.062 7.536,0.062 C7.541,0.062 7.547,0.062 7.553,0.062 C7.553,0.063 7.553,0.063 7.553,0.064 C7.566,0.064 7.579,0.065 7.592,0.065 C7.592,0.066 7.592,0.066 7.592,0.067 C7.598,0.067 7.604,0.067 7.609,0.067 C7.609,0.067 7.609,0.068 7.609,0.068 C7.615,0.068 7.621,0.068 7.627,0.068 C7.627,0.069 7.627,0.069 7.627,0.070 C7.633,0.070 7.639,0.070 7.645,0.070 C7.645,0.070 7.645,0.071 7.645,0.071 C7.651,0.071 7.657,0.071 7.663,0.071 C7.663,0.072 7.663,0.072 7.663,0.073 C7.668,0.073 7.674,0.073 7.679,0.073 C7.679,0.073 7.679,0.073 7.679,0.074 C7.685,0.074 7.691,0.074 7.697,0.074 C7.697,0.074 7.697,0.075 7.697,0.075 C7.708,0.076 7.718,0.076 7.729,0.077 C7.729,0.077 7.729,0.078 7.729,0.078 C7.735,0.078 7.740,0.078 7.746,0.078 C7.746,0.079 7.746,0.079 7.746,0.080 C7.751,0.080 7.756,0.080 7.762,0.080 C7.762,0.080 7.762,0.081 7.762,0.081 C7.767,0.081 7.773,0.081 7.778,0.081 C7.778,0.082 7.778,0.082 7.778,0.083 C7.783,0.083 7.788,0.083 7.793,0.083 C7.793,0.083 7.793,0.084 7.793,0.084 C7.798,0.084 7.803,0.084 7.808,0.084 C7.808,0.085 7.808,0.085 7.808,0.085 C7.813,0.085 7.819,0.085 7.824,0.085 C7.824,0.086 7.824,0.086 7.824,0.087 C7.829,0.087 7.834,0.087 7.839,0.087 C7.839,0.087 7.839,0.088 7.839,0.088 C7.843,0.088 7.848,0.088 7.852,0.088 C7.852,0.089 7.852,0.089 7.852,0.090 C7.857,0.090 7.862,0.090 7.867,0.090 C7.867,0.090 7.867,0.091 7.867,0.091 C7.872,0.091 7.877,0.091 7.882,0.091 C7.882,0.092 7.882,0.092 7.882,0.093 C7.886,0.093 7.891,0.093 7.895,0.093 C7.895,0.093 7.895,0.094 7.895,0.094 C7.899,0.094 7.904,0.094 7.908,0.094 C7.908,0.095 7.908,0.095 7.908,0.096 C7.913,0.096 7.917,0.096 7.922,0.096 C7.922,0.096 7.922,0.097 7.922,0.097 C7.926,0.097 7.930,0.097 7.935,0.097 C7.935,0.097 7.935,0.098 7.935,0.098 C7.939,0.098 7.944,0.098 7.948,0.098 C7.948,0.099 7.948,0.099 7.948,0.100 C7.952,0.100 7.956,0.100 7.960,0.100 C7.973,0.102 7.987,0.104 8.000,0.106 Z"/>
</svg>