<svg 
 xmlns="http://www.w3.org/2000/svg"
 xmlns:xlink="http://www.w3.org/1999/xlink"
 width="36px" height="23px">
<path fill-rule="evenodd"  fill="rgb(238, 238, 238)"
 d="M16.150,0.000 C16.150,0.874 16.150,1.747 16.150,2.621 C15.028,2.839 13.906,3.058 12.785,3.276 C11.450,3.968 9.261,6.296 9.084,8.191 C13.072,8.317 17.251,13.691 15.140,18.347 C15.028,18.347 14.916,18.347 14.804,18.347 C14.692,18.784 14.579,19.220 14.467,19.657 C13.907,20.094 13.346,20.531 12.785,20.968 C12.673,21.186 12.561,21.405 12.449,21.623 C12.224,21.623 12.000,21.623 11.776,21.623 C11.776,21.732 11.776,21.841 11.776,21.951 C11.362,22.262 11.127,22.198 10.766,22.606 C8.986,22.711 6.756,23.331 5.047,22.606 C5.047,22.497 5.047,22.387 5.047,22.278 C4.598,22.169 4.149,22.060 3.701,21.951 C3.701,21.841 3.701,21.732 3.701,21.623 C3.477,21.623 3.252,21.623 3.028,21.623 C2.692,21.186 2.355,20.749 2.019,20.312 C1.907,20.312 1.794,20.312 1.682,20.312 C1.133,19.557 1.050,18.634 0.336,18.019 C0.224,16.600 0.112,15.180 -0.000,13.760 C0.112,13.760 0.224,13.760 0.336,13.760 C0.336,13.214 0.336,12.668 0.336,12.122 C0.449,12.122 0.561,12.122 0.673,12.122 C0.673,11.685 0.673,11.248 0.673,10.811 C0.785,10.811 0.897,10.811 1.009,10.811 C1.009,10.484 1.009,10.156 1.009,9.829 C1.121,9.829 1.234,9.829 1.346,9.829 C1.570,9.173 1.794,8.518 2.019,7.863 C2.131,7.863 2.243,7.863 2.355,7.863 C2.355,7.644 2.355,7.426 2.355,7.208 C2.692,6.989 3.028,6.771 3.364,6.552 C3.364,6.334 3.364,6.116 3.364,5.897 C3.813,5.570 4.262,5.242 4.710,4.914 C5.159,4.368 5.608,3.822 6.056,3.276 C8.536,1.570 12.052,0.055 16.150,0.000 ZM36.000,0.000 C36.000,0.874 36.000,1.747 36.000,2.621 C34.766,2.949 33.533,3.276 32.299,3.604 C32.187,3.822 32.075,4.041 31.963,4.259 C31.738,4.259 31.514,4.259 31.290,4.259 C31.290,4.368 31.290,4.477 31.290,4.587 C30.953,4.805 30.617,5.024 30.280,5.242 C30.280,5.460 30.280,5.679 30.280,5.897 C30.056,6.006 29.832,6.116 29.607,6.225 C29.607,6.443 29.607,6.662 29.607,6.880 C29.495,6.880 29.383,6.880 29.271,6.880 C29.159,7.208 29.047,7.535 28.935,7.863 C29.047,7.863 29.159,7.863 29.271,7.863 C29.271,7.972 29.271,8.081 29.271,8.191 C29.720,8.191 30.168,8.191 30.617,8.191 C30.617,8.300 30.617,8.409 30.617,8.518 C30.841,8.518 31.065,8.518 31.290,8.518 C31.290,8.627 31.290,8.737 31.290,8.846 C31.514,8.846 31.738,8.846 31.963,8.846 C32.075,9.064 32.187,9.283 32.299,9.501 C32.523,9.501 32.748,9.501 32.972,9.501 C32.972,9.610 32.972,9.719 32.972,9.829 C33.308,10.047 33.645,10.265 33.981,10.484 C33.981,10.702 33.981,10.921 33.981,11.139 C34.206,11.248 34.430,11.358 34.654,11.467 C35.048,12.057 34.653,12.205 35.327,12.777 C35.552,15.650 35.786,17.872 34.318,19.985 C33.981,20.203 33.645,20.422 33.308,20.640 C33.084,20.968 32.860,21.295 32.636,21.623 C31.963,21.841 31.290,22.060 30.617,22.278 C30.617,22.387 30.617,22.497 30.617,22.606 C29.302,23.151 25.763,23.090 24.897,22.278 C23.535,21.953 23.020,21.146 22.206,20.312 C21.981,20.203 21.757,20.094 21.533,19.985 C21.533,19.766 21.533,19.548 21.533,19.330 C21.421,19.330 21.308,19.330 21.196,19.330 C20.875,18.926 20.947,18.697 20.523,18.347 C20.411,16.600 20.299,14.852 20.187,13.105 C20.748,11.467 21.308,9.828 21.869,8.191 C22.093,8.081 22.318,7.972 22.542,7.863 C22.654,7.426 22.766,6.989 22.879,6.552 C23.439,6.116 24.000,5.679 24.561,5.242 C25.234,4.478 25.907,3.713 26.579,2.949 C26.804,2.949 27.028,2.949 27.252,2.949 C27.364,2.730 27.477,2.512 27.589,2.293 C29.368,1.198 33.215,0.040 36.000,0.000 Z"/>
</svg>