<svg 
 xmlns="http://www.w3.org/2000/svg"
 xmlns:xlink="http://www.w3.org/1999/xlink"
 width="21px" height="15px">
<path fill-rule="evenodd"  fill="rgb(255, 192, 89)"
 d="M1.713,0.000 C6.140,0.000 10.568,0.000 14.995,0.000 C15.963,0.000 16.930,0.000 17.898,0.000 C18.245,0.000 18.593,0.000 18.941,0.000 C19.140,0.000 19.349,-0.008 19.501,0.040 C19.518,0.040 19.534,0.040 19.551,0.040 C19.551,0.044 19.551,0.047 19.551,0.050 C19.577,0.054 19.603,0.057 19.629,0.060 C19.629,0.064 19.629,0.067 19.629,0.070 C19.642,0.070 19.656,0.070 19.669,0.070 C19.669,0.074 19.669,0.077 19.669,0.080 C19.679,0.080 19.688,0.080 19.698,0.080 C19.698,0.084 19.698,0.087 19.698,0.090 C19.708,0.090 19.718,0.090 19.728,0.090 C19.728,0.094 19.728,0.097 19.728,0.100 C19.738,0.100 19.747,0.100 19.757,0.100 C19.757,0.104 19.757,0.107 19.757,0.110 C19.767,0.110 19.777,0.110 19.787,0.110 C19.787,0.114 19.787,0.117 19.787,0.120 C19.803,0.124 19.820,0.127 19.836,0.130 C19.836,0.134 19.836,0.137 19.836,0.140 C19.843,0.140 19.849,0.140 19.856,0.140 C19.856,0.144 19.856,0.147 19.856,0.150 C19.865,0.150 19.875,0.150 19.885,0.150 C19.885,0.154 19.885,0.157 19.885,0.160 C19.898,0.164 19.911,0.167 19.925,0.170 C19.925,0.174 19.925,0.177 19.925,0.180 C19.931,0.180 19.938,0.180 19.944,0.180 C19.944,0.184 19.944,0.187 19.944,0.190 C19.954,0.190 19.964,0.190 19.974,0.190 C19.977,0.197 19.980,0.203 19.984,0.210 C19.990,0.210 19.997,0.210 20.003,0.210 C20.003,0.213 20.003,0.217 20.003,0.220 C20.010,0.220 20.016,0.220 20.023,0.220 C20.023,0.223 20.023,0.227 20.023,0.230 C20.029,0.230 20.036,0.230 20.043,0.230 C20.043,0.233 20.043,0.237 20.043,0.240 C20.049,0.240 20.056,0.240 20.062,0.240 C20.062,0.243 20.062,0.247 20.062,0.250 C20.069,0.250 20.075,0.250 20.082,0.250 C20.085,0.257 20.088,0.263 20.092,0.270 C20.098,0.270 20.105,0.270 20.111,0.270 C20.111,0.273 20.111,0.277 20.111,0.280 C20.118,0.280 20.125,0.280 20.131,0.280 C20.131,0.283 20.131,0.287 20.131,0.290 C20.141,0.293 20.151,0.297 20.161,0.300 C20.164,0.307 20.167,0.313 20.170,0.320 C20.177,0.320 20.184,0.320 20.190,0.320 C20.193,0.327 20.197,0.333 20.200,0.340 C20.207,0.340 20.213,0.340 20.220,0.340 C20.226,0.350 20.233,0.360 20.239,0.370 C20.246,0.370 20.252,0.370 20.259,0.370 C20.266,0.380 20.272,0.390 20.279,0.400 C20.285,0.400 20.292,0.400 20.298,0.400 C20.311,0.417 20.325,0.433 20.338,0.450 C20.344,0.450 20.351,0.450 20.357,0.450 C20.390,0.487 20.423,0.523 20.456,0.560 C20.489,0.590 20.521,0.620 20.554,0.650 C20.554,0.656 20.554,0.663 20.554,0.670 C20.567,0.680 20.580,0.690 20.594,0.700 C20.594,0.706 20.594,0.713 20.594,0.720 C20.607,0.730 20.620,0.740 20.633,0.750 C20.633,0.756 20.633,0.763 20.633,0.770 C20.639,0.773 20.646,0.776 20.653,0.780 C20.653,0.786 20.653,0.793 20.653,0.800 C20.662,0.806 20.672,0.813 20.682,0.820 C20.682,0.826 20.682,0.833 20.682,0.840 C20.689,0.843 20.695,0.846 20.702,0.850 C20.705,0.863 20.708,0.876 20.712,0.890 C20.718,0.893 20.725,0.896 20.731,0.900 C20.735,0.910 20.738,0.920 20.741,0.930 C20.744,0.930 20.748,0.930 20.751,0.930 C20.751,0.936 20.751,0.943 20.751,0.950 C20.754,0.950 20.758,0.950 20.761,0.950 C20.761,0.956 20.761,0.963 20.761,0.970 C20.764,0.970 20.767,0.970 20.771,0.970 C20.771,0.976 20.771,0.983 20.771,0.990 C20.774,0.990 20.777,0.990 20.780,0.990 C20.780,0.996 20.780,1.003 20.780,1.010 C20.784,1.010 20.787,1.010 20.790,1.010 C20.790,1.016 20.790,1.023 20.790,1.029 C20.794,1.029 20.797,1.029 20.800,1.029 C20.800,1.036 20.800,1.043 20.800,1.049 C20.803,1.049 20.807,1.049 20.810,1.049 C20.810,1.056 20.810,1.063 20.810,1.069 C20.813,1.069 20.817,1.069 20.820,1.069 C20.826,1.089 20.833,1.109 20.840,1.129 C20.843,1.129 20.846,1.129 20.849,1.129 C20.849,1.139 20.849,1.149 20.849,1.159 C20.853,1.159 20.856,1.159 20.859,1.159 C20.859,1.166 20.859,1.173 20.859,1.179 C20.862,1.179 20.866,1.179 20.869,1.179 C20.869,1.189 20.869,1.199 20.869,1.209 C20.872,1.209 20.876,1.209 20.879,1.209 C20.879,1.216 20.879,1.223 20.879,1.229 C20.882,1.229 20.885,1.229 20.889,1.229 C20.895,1.259 20.902,1.289 20.908,1.319 C20.912,1.319 20.915,1.319 20.918,1.319 C20.918,1.333 20.918,1.346 20.918,1.359 C20.921,1.359 20.925,1.359 20.928,1.359 C20.928,1.369 20.928,1.379 20.928,1.389 C20.931,1.389 20.935,1.389 20.938,1.389 C20.938,1.403 20.938,1.416 20.938,1.429 C20.941,1.429 20.944,1.429 20.948,1.429 C20.948,1.443 20.948,1.456 20.948,1.469 C20.951,1.469 20.954,1.469 20.958,1.469 C20.961,1.502 20.964,1.536 20.967,1.569 C20.971,1.569 20.974,1.569 20.977,1.569 C20.977,1.592 20.977,1.616 20.977,1.639 C21.011,1.760 20.997,1.939 20.997,2.089 C20.997,2.422 20.997,2.755 20.997,3.088 C20.997,4.863 20.997,6.639 20.997,8.414 C20.997,9.629 20.997,10.845 20.997,12.061 C20.997,12.360 20.997,12.660 20.997,12.960 C20.997,13.096 21.008,13.252 20.977,13.360 C20.977,13.383 20.977,13.406 20.977,13.430 C20.974,13.430 20.971,13.430 20.967,13.430 C20.967,13.446 20.967,13.463 20.967,13.480 C20.964,13.480 20.961,13.480 20.958,13.480 C20.958,13.496 20.958,13.513 20.958,13.530 C20.954,13.530 20.951,13.530 20.948,13.530 C20.948,13.543 20.948,13.556 20.948,13.570 C20.944,13.570 20.941,13.570 20.938,13.570 C20.938,13.583 20.938,13.596 20.938,13.610 C20.935,13.610 20.931,13.610 20.928,13.610 C20.928,13.623 20.928,13.636 20.928,13.650 C20.925,13.650 20.921,13.650 20.918,13.650 C20.918,13.659 20.918,13.669 20.918,13.679 C20.915,13.679 20.912,13.679 20.908,13.679 C20.908,13.689 20.908,13.699 20.908,13.709 C20.905,13.709 20.902,13.709 20.899,13.709 C20.899,13.719 20.899,13.729 20.899,13.739 C20.895,13.739 20.892,13.739 20.889,13.739 C20.889,13.749 20.889,13.759 20.889,13.769 C20.885,13.769 20.882,13.769 20.879,13.769 C20.879,13.776 20.879,13.783 20.879,13.789 C20.876,13.789 20.872,13.789 20.869,13.789 C20.869,13.799 20.869,13.809 20.869,13.819 C20.866,13.819 20.862,13.819 20.859,13.819 C20.859,13.826 20.859,13.833 20.859,13.839 C20.856,13.839 20.853,13.839 20.849,13.839 C20.849,13.849 20.849,13.859 20.849,13.869 C20.846,13.869 20.843,13.869 20.840,13.869 C20.833,13.889 20.826,13.909 20.820,13.929 C20.817,13.929 20.813,13.929 20.810,13.929 C20.810,13.936 20.810,13.943 20.810,13.949 C20.807,13.949 20.803,13.949 20.800,13.949 C20.800,13.956 20.800,13.963 20.800,13.969 C20.797,13.969 20.794,13.969 20.790,13.969 C20.790,13.976 20.790,13.983 20.790,13.989 C20.787,13.989 20.784,13.989 20.780,13.989 C20.780,13.996 20.780,14.003 20.780,14.009 C20.777,14.009 20.774,14.009 20.771,14.009 C20.771,14.016 20.771,14.023 20.771,14.029 C20.767,14.029 20.764,14.029 20.761,14.029 C20.761,14.036 20.761,14.043 20.761,14.049 C20.758,14.049 20.754,14.049 20.751,14.049 C20.751,14.056 20.751,14.063 20.751,14.069 C20.744,14.073 20.738,14.076 20.731,14.079 C20.728,14.092 20.725,14.106 20.721,14.119 C20.715,14.122 20.708,14.126 20.702,14.129 C20.702,14.136 20.702,14.142 20.702,14.149 C20.698,14.149 20.695,14.149 20.692,14.149 C20.689,14.159 20.685,14.169 20.682,14.179 C20.676,14.182 20.669,14.186 20.662,14.189 C20.662,14.196 20.662,14.202 20.662,14.209 C20.653,14.216 20.643,14.222 20.633,14.229 C20.633,14.236 20.633,14.242 20.633,14.249 C20.626,14.252 20.620,14.256 20.613,14.259 C20.610,14.269 20.607,14.279 20.603,14.289 C20.587,14.302 20.571,14.316 20.554,14.329 C20.554,14.336 20.554,14.342 20.554,14.349 C20.515,14.386 20.475,14.422 20.436,14.459 C20.410,14.489 20.384,14.519 20.357,14.549 C20.351,14.549 20.344,14.549 20.338,14.549 C20.328,14.562 20.318,14.575 20.308,14.589 C20.302,14.589 20.295,14.589 20.289,14.589 C20.285,14.595 20.282,14.602 20.279,14.609 C20.275,14.609 20.272,14.609 20.269,14.609 C20.266,14.615 20.262,14.622 20.259,14.629 C20.252,14.629 20.246,14.629 20.239,14.629 C20.236,14.635 20.233,14.642 20.230,14.649 C20.223,14.649 20.216,14.649 20.210,14.649 C20.203,14.659 20.197,14.669 20.190,14.679 C20.184,14.679 20.177,14.679 20.170,14.679 C20.167,14.685 20.164,14.692 20.161,14.699 C20.148,14.702 20.134,14.705 20.121,14.709 C20.118,14.715 20.115,14.722 20.111,14.729 C20.102,14.732 20.092,14.735 20.082,14.739 C20.082,14.742 20.082,14.745 20.082,14.749 C20.075,14.749 20.069,14.749 20.062,14.749 C20.062,14.752 20.062,14.755 20.062,14.759 C20.056,14.759 20.049,14.759 20.043,14.759 C20.043,14.762 20.043,14.765 20.043,14.769 C20.036,14.769 20.029,14.769 20.023,14.769 C20.023,14.772 20.023,14.775 20.023,14.779 C20.016,14.779 20.010,14.779 20.003,14.779 C20.003,14.782 20.003,14.785 20.003,14.789 C19.997,14.789 19.990,14.789 19.984,14.789 C19.984,14.792 19.984,14.795 19.984,14.799 C19.977,14.799 19.970,14.799 19.964,14.799 C19.964,14.802 19.964,14.805 19.964,14.809 C19.957,14.809 19.951,14.809 19.944,14.809 C19.944,14.812 19.944,14.815 19.944,14.819 C19.925,14.825 19.905,14.832 19.885,14.839 C19.885,14.842 19.885,14.845 19.885,14.849 C19.875,14.849 19.865,14.849 19.856,14.849 C19.856,14.852 19.856,14.855 19.856,14.859 C19.849,14.859 19.843,14.859 19.836,14.859 C19.836,14.862 19.836,14.865 19.836,14.869 C19.820,14.872 19.803,14.875 19.787,14.879 C19.787,14.882 19.787,14.885 19.787,14.889 C19.777,14.889 19.767,14.889 19.757,14.889 C19.757,14.892 19.757,14.895 19.757,14.899 C19.747,14.899 19.738,14.899 19.728,14.899 C19.728,14.902 19.728,14.905 19.728,14.909 C19.718,14.909 19.708,14.909 19.698,14.909 C19.698,14.912 19.698,14.915 19.698,14.919 C19.675,14.922 19.652,14.925 19.629,14.928 C19.629,14.932 19.629,14.935 19.629,14.938 C19.603,14.942 19.577,14.945 19.551,14.948 C19.551,14.952 19.551,14.955 19.551,14.958 C19.534,14.958 19.518,14.958 19.501,14.958 C19.330,15.012 19.085,14.998 18.862,14.998 C18.449,14.998 18.035,14.998 17.622,14.998 C15.681,14.998 13.739,14.998 11.798,14.998 C9.233,14.998 6.668,14.998 4.104,14.998 C3.527,14.998 2.949,14.998 2.372,14.998 C2.228,14.998 2.084,14.998 1.939,14.998 C1.866,14.998 1.770,15.005 1.713,14.988 C1.657,14.985 1.602,14.982 1.546,14.978 C1.434,14.948 1.323,14.918 1.211,14.889 C1.211,14.885 1.211,14.882 1.211,14.879 C1.205,14.879 1.198,14.879 1.192,14.879 C1.192,14.875 1.192,14.872 1.192,14.869 C1.182,14.869 1.172,14.869 1.162,14.869 C1.162,14.865 1.162,14.862 1.162,14.859 C1.156,14.859 1.149,14.859 1.143,14.859 C1.143,14.855 1.143,14.852 1.143,14.849 C1.133,14.849 1.123,14.849 1.113,14.849 C1.113,14.845 1.113,14.842 1.113,14.839 C1.093,14.832 1.074,14.825 1.054,14.819 C1.054,14.815 1.054,14.812 1.054,14.809 C1.047,14.809 1.041,14.809 1.034,14.809 C1.034,14.805 1.034,14.802 1.034,14.799 C1.028,14.799 1.021,14.799 1.015,14.799 C1.015,14.795 1.015,14.792 1.015,14.789 C1.008,14.789 1.001,14.789 0.995,14.789 C0.995,14.785 0.995,14.782 0.995,14.779 C0.975,14.772 0.956,14.765 0.936,14.759 C0.933,14.752 0.929,14.745 0.926,14.739 C0.913,14.735 0.900,14.732 0.887,14.729 C0.883,14.722 0.880,14.715 0.877,14.709 C0.864,14.705 0.851,14.702 0.838,14.699 C0.834,14.692 0.831,14.685 0.828,14.679 C0.821,14.679 0.815,14.679 0.808,14.679 C0.801,14.669 0.795,14.659 0.788,14.649 C0.782,14.649 0.775,14.649 0.769,14.649 C0.765,14.642 0.762,14.635 0.759,14.629 C0.752,14.629 0.746,14.629 0.739,14.629 C0.736,14.622 0.733,14.615 0.729,14.609 C0.726,14.609 0.723,14.609 0.719,14.609 C0.716,14.602 0.713,14.595 0.710,14.589 C0.703,14.589 0.696,14.589 0.690,14.589 C0.677,14.572 0.664,14.555 0.651,14.539 C0.407,14.360 0.236,14.067 0.109,13.769 C0.106,13.749 0.103,13.729 0.100,13.709 C0.096,13.709 0.093,13.709 0.090,13.709 C0.090,13.699 0.090,13.689 0.090,13.679 C0.086,13.679 0.083,13.679 0.080,13.679 C0.080,13.669 0.080,13.659 0.080,13.650 C0.077,13.650 0.073,13.650 0.070,13.650 C0.070,13.636 0.070,13.623 0.070,13.610 C0.067,13.610 0.064,13.610 0.060,13.610 C0.060,13.596 0.060,13.583 0.060,13.570 C0.057,13.570 0.054,13.570 0.050,13.570 C0.050,13.556 0.050,13.543 0.050,13.530 C0.047,13.530 0.044,13.530 0.041,13.530 C0.037,13.496 0.034,13.463 0.031,13.430 C0.027,13.430 0.024,13.430 0.021,13.430 C0.018,13.373 0.014,13.316 0.011,13.260 C0.008,13.260 0.005,13.260 0.001,13.260 C0.001,13.097 0.001,12.933 0.001,12.770 C0.001,12.324 0.001,11.878 0.001,11.431 C0.001,9.067 0.001,6.701 0.001,4.337 C0.001,3.684 0.001,3.031 0.001,2.378 C0.001,2.004 -0.016,1.634 0.080,1.359 C0.090,1.316 0.100,1.273 0.109,1.229 C0.252,0.894 0.434,0.611 0.710,0.410 C0.719,0.397 0.729,0.383 0.739,0.370 C0.746,0.370 0.752,0.370 0.759,0.370 C0.762,0.363 0.765,0.357 0.769,0.350 C0.775,0.350 0.782,0.350 0.788,0.350 C0.795,0.340 0.801,0.330 0.808,0.320 C0.815,0.320 0.821,0.320 0.828,0.320 C0.831,0.313 0.834,0.307 0.838,0.300 C0.851,0.297 0.864,0.293 0.877,0.290 C0.880,0.283 0.883,0.277 0.887,0.270 C0.897,0.267 0.906,0.263 0.916,0.260 C0.916,0.257 0.916,0.253 0.916,0.250 C0.923,0.250 0.929,0.250 0.936,0.250 C0.936,0.247 0.936,0.243 0.936,0.240 C0.942,0.240 0.949,0.240 0.956,0.240 C0.956,0.237 0.956,0.233 0.956,0.230 C0.962,0.230 0.969,0.230 0.975,0.230 C0.975,0.227 0.975,0.223 0.975,0.220 C0.982,0.220 0.988,0.220 0.995,0.220 C0.995,0.217 0.995,0.213 0.995,0.210 C1.001,0.210 1.008,0.210 1.015,0.210 C1.015,0.207 1.015,0.203 1.015,0.200 C1.021,0.200 1.028,0.200 1.034,0.200 C1.034,0.197 1.034,0.193 1.034,0.190 C1.041,0.190 1.047,0.190 1.054,0.190 C1.054,0.187 1.054,0.184 1.054,0.180 C1.074,0.174 1.093,0.167 1.113,0.160 C1.113,0.157 1.113,0.154 1.113,0.150 C1.123,0.150 1.133,0.150 1.143,0.150 C1.143,0.147 1.143,0.144 1.143,0.140 C1.149,0.140 1.156,0.140 1.162,0.140 C1.162,0.137 1.162,0.134 1.162,0.130 C1.179,0.127 1.195,0.124 1.211,0.120 C1.211,0.117 1.211,0.114 1.211,0.110 C1.306,0.084 1.402,0.057 1.497,0.030 C1.536,0.027 1.575,0.024 1.615,0.020 C1.615,0.017 1.615,0.014 1.615,0.010 C1.649,0.000 1.691,0.020 1.713,0.000 ZM2.117,1.259 C4.261,3.427 6.406,5.596 8.551,7.764 C8.685,7.897 8.820,8.031 8.954,8.164 C9.056,8.270 9.158,8.377 9.259,8.484 C9.266,8.484 9.273,8.484 9.279,8.484 C9.295,8.504 9.312,8.524 9.328,8.544 C9.338,8.547 9.348,8.550 9.358,8.554 C9.364,8.564 9.371,8.574 9.377,8.584 C9.384,8.584 9.391,8.584 9.397,8.584 C9.400,8.590 9.404,8.597 9.407,8.604 C9.414,8.604 9.420,8.604 9.427,8.604 C9.433,8.613 9.440,8.623 9.446,8.633 C9.453,8.633 9.459,8.633 9.466,8.633 C9.469,8.640 9.473,8.647 9.476,8.653 C9.486,8.657 9.496,8.660 9.505,8.663 C9.505,8.667 9.505,8.670 9.505,8.673 C9.518,8.677 9.532,8.680 9.545,8.683 C9.548,8.690 9.551,8.697 9.555,8.703 C9.568,8.707 9.581,8.710 9.594,8.713 C9.597,8.720 9.600,8.727 9.604,8.733 C9.623,8.740 9.643,8.747 9.663,8.753 C9.663,8.757 9.663,8.760 9.663,8.763 C9.669,8.763 9.676,8.763 9.682,8.763 C9.682,8.767 9.682,8.770 9.682,8.773 C9.702,8.780 9.722,8.787 9.742,8.793 C9.742,8.797 9.742,8.800 9.742,8.803 C9.758,8.807 9.774,8.810 9.791,8.813 C9.791,8.817 9.791,8.820 9.791,8.823 C9.797,8.823 9.804,8.823 9.810,8.823 C9.810,8.827 9.810,8.830 9.810,8.833 C9.830,8.837 9.850,8.840 9.869,8.843 C9.869,8.847 9.869,8.850 9.869,8.853 C9.876,8.853 9.883,8.853 9.889,8.853 C9.889,8.857 9.889,8.860 9.889,8.863 C9.909,8.867 9.928,8.870 9.948,8.873 C9.948,8.877 9.948,8.880 9.948,8.883 C9.961,8.883 9.974,8.883 9.987,8.883 C9.987,8.887 9.987,8.890 9.987,8.893 C9.997,8.893 10.007,8.893 10.017,8.893 C10.017,8.897 10.017,8.900 10.017,8.903 C10.106,8.920 10.194,8.937 10.283,8.953 C10.322,8.953 10.361,8.953 10.401,8.953 C10.401,8.957 10.401,8.960 10.401,8.963 C10.446,8.976 10.566,8.962 10.597,8.953 C10.660,8.950 10.722,8.947 10.784,8.943 C10.784,8.940 10.784,8.937 10.784,8.933 C10.804,8.933 10.824,8.933 10.843,8.933 C10.843,8.930 10.843,8.927 10.843,8.923 C10.876,8.920 10.909,8.917 10.942,8.913 C10.942,8.910 10.942,8.907 10.942,8.903 C10.955,8.903 10.968,8.903 10.981,8.903 C10.981,8.900 10.981,8.897 10.981,8.893 C11.004,8.890 11.027,8.887 11.050,8.883 C11.050,8.880 11.050,8.877 11.050,8.873 C11.060,8.873 11.070,8.873 11.080,8.873 C11.080,8.870 11.080,8.867 11.080,8.863 C11.089,8.863 11.099,8.863 11.109,8.863 C11.109,8.860 11.109,8.857 11.109,8.853 C11.116,8.853 11.122,8.853 11.129,8.853 C11.129,8.850 11.129,8.847 11.129,8.843 C11.148,8.840 11.168,8.837 11.188,8.833 C11.188,8.830 11.188,8.827 11.188,8.823 C11.201,8.820 11.214,8.817 11.227,8.813 C11.227,8.810 11.227,8.807 11.227,8.803 C11.237,8.803 11.247,8.803 11.257,8.803 C11.257,8.800 11.257,8.797 11.257,8.793 C11.276,8.787 11.296,8.780 11.316,8.773 C11.316,8.770 11.316,8.767 11.316,8.763 C11.322,8.763 11.329,8.763 11.335,8.763 C11.335,8.760 11.335,8.757 11.335,8.753 C11.355,8.747 11.375,8.740 11.394,8.733 C11.398,8.727 11.401,8.720 11.404,8.713 C11.417,8.710 11.430,8.707 11.444,8.703 C11.447,8.697 11.450,8.690 11.453,8.683 C11.467,8.680 11.480,8.677 11.493,8.673 C11.493,8.670 11.493,8.667 11.493,8.663 C11.503,8.660 11.512,8.657 11.522,8.653 C11.526,8.647 11.529,8.640 11.532,8.633 C11.539,8.633 11.545,8.633 11.552,8.633 C11.558,8.623 11.565,8.613 11.571,8.604 C11.578,8.604 11.585,8.604 11.591,8.604 C11.594,8.597 11.598,8.590 11.601,8.584 C11.608,8.584 11.614,8.584 11.621,8.584 C11.627,8.574 11.634,8.564 11.640,8.554 C11.650,8.550 11.660,8.547 11.670,8.544 C11.686,8.524 11.703,8.504 11.719,8.484 C11.726,8.484 11.732,8.484 11.739,8.484 C11.886,8.330 12.034,8.177 12.181,8.024 C12.345,7.861 12.509,7.698 12.673,7.534 C12.777,7.430 12.869,7.313 12.988,7.225 C13.080,7.128 13.172,7.031 13.264,6.935 C14.077,6.116 14.890,5.296 15.704,4.477 C16.097,4.074 16.491,3.671 16.884,3.268 C16.891,3.268 16.897,3.268 16.904,3.268 C16.937,3.231 16.970,3.194 17.002,3.158 C17.075,3.088 17.147,3.018 17.219,2.948 C17.514,2.645 17.809,2.342 18.104,2.039 C18.193,1.952 18.281,1.865 18.370,1.779 C18.468,1.676 18.567,1.572 18.665,1.469 C18.682,1.456 18.698,1.443 18.714,1.429 C18.767,1.376 18.811,1.303 18.882,1.269 C18.882,1.266 18.882,1.263 18.882,1.259 C13.294,1.259 7.704,1.259 2.117,1.259 ZM1.241,2.149 C1.241,5.715 1.241,9.283 1.241,12.850 C1.244,12.850 1.247,12.850 1.251,12.850 C2.569,11.518 3.888,10.185 5.206,8.853 C5.455,8.604 5.704,8.354 5.954,8.104 C6.029,8.024 6.104,7.944 6.180,7.864 C6.239,7.807 6.298,7.751 6.357,7.694 C6.383,7.664 6.409,7.634 6.436,7.604 C6.472,7.568 6.529,7.551 6.544,7.494 C6.496,7.466 6.464,7.413 6.426,7.374 C6.413,7.364 6.400,7.354 6.387,7.344 C6.318,7.271 6.249,7.198 6.180,7.125 C6.098,7.045 6.016,6.965 5.934,6.885 C5.898,6.845 5.862,6.805 5.826,6.765 C5.819,6.765 5.813,6.765 5.806,6.765 C5.672,6.625 5.537,6.485 5.403,6.345 C4.458,5.393 3.514,4.440 2.569,3.488 C2.346,3.258 2.123,3.028 1.900,2.798 C1.894,2.798 1.887,2.798 1.880,2.798 C1.861,2.775 1.841,2.751 1.821,2.728 C1.769,2.678 1.716,2.628 1.664,2.578 C1.582,2.492 1.500,2.405 1.418,2.318 C1.405,2.308 1.392,2.298 1.379,2.289 C1.335,2.244 1.296,2.181 1.241,2.149 ZM19.747,2.149 C19.720,2.197 19.667,2.230 19.629,2.269 C19.620,2.282 19.610,2.295 19.600,2.308 C19.524,2.382 19.449,2.455 19.374,2.528 C19.288,2.618 19.203,2.708 19.118,2.798 C19.023,2.868 18.953,2.955 18.872,3.038 C18.757,3.151 18.642,3.264 18.527,3.378 C18.072,3.844 17.616,4.310 17.160,4.777 C17.054,4.854 16.975,4.954 16.884,5.046 C16.747,5.183 16.609,5.319 16.471,5.456 C16.245,5.689 16.019,5.922 15.792,6.155 C15.671,6.275 15.550,6.395 15.428,6.515 C15.344,6.601 15.271,6.693 15.172,6.765 C15.054,6.888 14.936,7.011 14.818,7.135 C14.736,7.215 14.654,7.295 14.572,7.374 C14.569,7.381 14.566,7.388 14.562,7.394 C14.528,7.430 14.469,7.461 14.454,7.514 C14.474,7.531 14.494,7.548 14.513,7.564 C14.513,7.568 14.513,7.571 14.513,7.574 C14.633,7.662 14.725,7.779 14.828,7.884 C14.887,7.941 14.946,7.997 15.005,8.054 C15.205,8.260 15.405,8.467 15.605,8.673 C15.707,8.773 15.809,8.873 15.910,8.973 C15.988,9.052 16.055,9.136 16.146,9.203 C16.396,9.459 16.645,9.716 16.894,9.972 C17.402,10.482 17.911,10.992 18.419,11.501 C18.580,11.668 18.741,11.834 18.901,12.001 C18.947,12.044 18.993,12.087 19.039,12.131 C19.149,12.242 19.247,12.367 19.374,12.460 C19.403,12.494 19.433,12.527 19.462,12.560 C19.531,12.627 19.600,12.694 19.669,12.760 C19.698,12.790 19.720,12.828 19.757,12.850 C19.757,9.283 19.757,5.715 19.757,2.149 C19.754,2.149 19.751,2.149 19.747,2.149 ZM7.410,8.394 C7.384,8.438 7.337,8.468 7.302,8.504 C7.295,8.514 7.288,8.524 7.282,8.534 C7.213,8.600 7.144,8.667 7.075,8.733 C7.000,8.813 6.924,8.893 6.849,8.973 C6.758,9.040 6.691,9.124 6.613,9.203 C6.508,9.306 6.403,9.410 6.298,9.513 C5.944,9.876 5.590,10.239 5.235,10.602 C5.123,10.685 5.037,10.793 4.940,10.892 C4.789,11.042 4.639,11.191 4.488,11.341 C4.199,11.638 3.910,11.934 3.622,12.231 C3.491,12.326 3.390,12.456 3.278,12.570 C3.110,12.737 2.943,12.903 2.776,13.070 C2.730,13.120 2.684,13.170 2.638,13.220 C2.533,13.323 2.428,13.426 2.323,13.530 C2.310,13.546 2.297,13.563 2.284,13.580 C2.238,13.626 2.158,13.684 2.126,13.739 C7.708,13.739 13.291,13.739 18.872,13.739 C18.872,13.736 18.872,13.733 18.872,13.729 C17.560,12.407 16.248,11.085 14.936,9.763 C14.681,9.499 14.425,9.236 14.169,8.973 C14.162,8.973 14.156,8.973 14.149,8.973 C14.133,8.953 14.116,8.933 14.100,8.913 C14.054,8.870 14.008,8.827 13.962,8.783 C13.880,8.697 13.798,8.610 13.716,8.524 C13.706,8.517 13.697,8.510 13.687,8.504 C13.652,8.468 13.622,8.408 13.569,8.394 C13.555,8.417 13.537,8.426 13.520,8.444 C13.480,8.484 13.441,8.524 13.401,8.564 C13.349,8.620 13.297,8.677 13.244,8.733 C13.238,8.733 13.231,8.733 13.224,8.733 C13.205,8.757 13.185,8.780 13.165,8.803 C13.110,8.857 13.054,8.910 12.998,8.963 C12.851,9.116 12.703,9.270 12.555,9.423 C12.549,9.423 12.542,9.423 12.536,9.423 C12.516,9.446 12.496,9.469 12.477,9.493 C12.470,9.493 12.464,9.493 12.457,9.493 C12.447,9.506 12.437,9.519 12.427,9.533 C12.421,9.533 12.414,9.533 12.408,9.533 C12.398,9.546 12.388,9.559 12.378,9.573 C12.372,9.573 12.365,9.573 12.359,9.573 C12.352,9.583 12.345,9.593 12.339,9.603 C12.329,9.606 12.319,9.609 12.309,9.613 C12.306,9.619 12.303,9.626 12.300,9.633 C12.293,9.633 12.286,9.633 12.280,9.633 C12.277,9.639 12.273,9.646 12.270,9.653 C12.263,9.653 12.257,9.653 12.250,9.653 C12.247,9.659 12.244,9.666 12.241,9.673 C12.234,9.673 12.227,9.673 12.221,9.673 C12.218,9.679 12.214,9.686 12.211,9.693 C12.204,9.693 12.198,9.693 12.191,9.693 C12.188,9.699 12.185,9.706 12.181,9.713 C12.175,9.713 12.168,9.713 12.162,9.713 C12.159,9.719 12.155,9.726 12.152,9.733 C12.145,9.733 12.139,9.733 12.132,9.733 C12.129,9.739 12.126,9.746 12.122,9.753 C12.116,9.753 12.109,9.753 12.103,9.753 C12.103,9.756 12.103,9.759 12.103,9.763 C12.096,9.763 12.090,9.763 12.083,9.763 C12.080,9.769 12.077,9.776 12.073,9.783 C12.060,9.786 12.047,9.789 12.034,9.793 C12.031,9.799 12.027,9.806 12.024,9.813 C12.018,9.813 12.011,9.813 12.004,9.813 C12.004,9.816 12.004,9.819 12.004,9.823 C11.998,9.823 11.991,9.823 11.985,9.823 C11.985,9.826 11.985,9.829 11.985,9.833 C11.978,9.833 11.972,9.833 11.965,9.833 C11.965,9.836 11.965,9.839 11.965,9.843 C11.958,9.843 11.952,9.843 11.945,9.843 C11.942,9.849 11.939,9.856 11.936,9.863 C11.922,9.866 11.909,9.869 11.896,9.872 C11.896,9.876 11.896,9.879 11.896,9.882 C11.890,9.882 11.883,9.882 11.876,9.882 C11.876,9.886 11.876,9.889 11.876,9.892 C11.857,9.899 11.837,9.906 11.817,9.912 C11.817,9.916 11.817,9.919 11.817,9.922 C11.808,9.922 11.798,9.922 11.788,9.922 C11.788,9.926 11.788,9.929 11.788,9.932 C11.781,9.932 11.775,9.932 11.768,9.932 C11.768,9.936 11.768,9.939 11.768,9.942 C11.755,9.946 11.742,9.949 11.729,9.952 C11.729,9.956 11.729,9.959 11.729,9.962 C11.719,9.962 11.709,9.962 11.699,9.962 C11.699,9.966 11.699,9.969 11.699,9.972 C11.693,9.972 11.686,9.972 11.680,9.972 C11.680,9.976 11.680,9.979 11.680,9.982 C11.670,9.982 11.660,9.982 11.650,9.982 C11.650,9.986 11.650,9.989 11.650,9.992 C11.644,9.992 11.637,9.992 11.631,9.992 C11.631,9.996 11.631,9.999 11.631,10.002 C11.522,10.039 11.414,10.076 11.306,10.112 C11.250,10.122 11.194,10.132 11.139,10.142 C10.973,10.194 10.761,10.212 10.548,10.212 C10.464,10.212 10.351,10.222 10.283,10.202 C10.247,10.202 10.210,10.202 10.174,10.202 C10.040,10.179 9.905,10.156 9.771,10.132 C9.771,10.129 9.771,10.126 9.771,10.122 C9.745,10.119 9.719,10.116 9.692,10.112 C9.692,10.109 9.692,10.106 9.692,10.102 C9.669,10.099 9.646,10.096 9.623,10.092 C9.623,10.089 9.623,10.086 9.623,10.082 C9.614,10.082 9.604,10.082 9.594,10.082 C9.594,10.079 9.594,10.076 9.594,10.072 C9.584,10.072 9.574,10.072 9.564,10.072 C9.564,10.069 9.564,10.066 9.564,10.062 C9.555,10.062 9.545,10.062 9.535,10.062 C9.535,10.059 9.535,10.056 9.535,10.052 C9.525,10.052 9.515,10.052 9.505,10.052 C9.505,10.049 9.505,10.046 9.505,10.042 C9.496,10.042 9.486,10.042 9.476,10.042 C9.476,10.039 9.476,10.036 9.476,10.032 C9.456,10.029 9.437,10.026 9.417,10.022 C9.417,10.019 9.417,10.016 9.417,10.012 C9.410,10.012 9.404,10.012 9.397,10.012 C9.397,10.009 9.397,10.006 9.397,10.002 C9.387,10.002 9.377,10.002 9.368,10.002 C9.368,9.999 9.368,9.996 9.368,9.992 C9.351,9.989 9.335,9.986 9.318,9.982 C9.318,9.979 9.318,9.976 9.318,9.972 C9.312,9.972 9.305,9.972 9.299,9.972 C9.299,9.969 9.299,9.966 9.299,9.962 C9.289,9.962 9.279,9.962 9.269,9.962 C9.269,9.959 9.269,9.956 9.269,9.952 C9.250,9.946 9.230,9.939 9.210,9.932 C9.210,9.929 9.210,9.926 9.210,9.922 C9.204,9.922 9.197,9.922 9.191,9.922 C9.191,9.919 9.191,9.916 9.191,9.912 C9.181,9.912 9.171,9.912 9.161,9.912 C9.161,9.909 9.161,9.906 9.161,9.902 C9.141,9.896 9.122,9.889 9.102,9.882 C9.102,9.879 9.102,9.876 9.102,9.872 C9.089,9.869 9.076,9.866 9.063,9.863 C9.059,9.856 9.056,9.849 9.053,9.843 C9.046,9.843 9.040,9.843 9.033,9.843 C9.033,9.839 9.033,9.836 9.033,9.833 C9.027,9.833 9.020,9.833 9.013,9.833 C9.013,9.829 9.013,9.826 9.013,9.823 C9.007,9.823 9.000,9.823 8.994,9.823 C8.994,9.819 8.994,9.816 8.994,9.813 C8.987,9.813 8.981,9.813 8.974,9.813 C8.971,9.806 8.968,9.799 8.964,9.793 C8.951,9.789 8.938,9.786 8.925,9.783 C8.922,9.776 8.918,9.769 8.915,9.763 C8.908,9.763 8.902,9.763 8.895,9.763 C8.895,9.759 8.895,9.756 8.895,9.753 C8.889,9.753 8.882,9.753 8.876,9.753 C8.872,9.746 8.869,9.739 8.866,9.733 C8.859,9.733 8.853,9.733 8.846,9.733 C8.843,9.726 8.840,9.719 8.836,9.713 C8.830,9.713 8.823,9.713 8.817,9.713 C8.813,9.706 8.810,9.699 8.807,9.693 C8.800,9.693 8.794,9.693 8.787,9.693 C8.784,9.686 8.781,9.679 8.777,9.673 C8.771,9.673 8.764,9.673 8.758,9.673 C8.754,9.666 8.751,9.659 8.748,9.653 C8.741,9.653 8.735,9.653 8.728,9.653 C8.725,9.646 8.722,9.639 8.718,9.633 C8.712,9.633 8.705,9.633 8.699,9.633 C8.692,9.623 8.685,9.613 8.679,9.603 C8.672,9.603 8.666,9.603 8.659,9.603 C8.653,9.593 8.646,9.583 8.640,9.573 C8.633,9.573 8.626,9.573 8.620,9.573 C8.610,9.559 8.600,9.546 8.590,9.533 C8.584,9.533 8.577,9.533 8.571,9.533 C8.561,9.519 8.551,9.506 8.541,9.493 C8.535,9.493 8.528,9.493 8.522,9.493 C8.318,9.290 8.115,9.086 7.912,8.883 C7.866,8.833 7.820,8.783 7.774,8.733 C7.767,8.733 7.761,8.733 7.754,8.733 C7.738,8.713 7.721,8.693 7.705,8.673 C7.656,8.627 7.607,8.580 7.557,8.534 C7.522,8.498 7.459,8.407 7.410,8.394 Z"/>
</svg>