<svg 
 xmlns="http://www.w3.org/2000/svg"
 xmlns:xlink="http://www.w3.org/1999/xlink"
 width="9px" height="17px">
<path fill-rule="evenodd"  fill="rgb(82, 88, 101)"
 d="M0.749,-0.000 C0.654,-0.000 0.558,-0.000 0.463,-0.000 C0.463,0.010 0.463,0.021 0.463,0.031 C0.430,0.039 0.396,0.047 0.363,0.055 C0.360,0.060 0.358,0.065 0.355,0.070 C0.350,0.070 0.345,0.070 0.340,0.070 C0.340,0.073 0.340,0.075 0.340,0.078 C0.332,0.078 0.324,0.078 0.316,0.078 C0.316,0.081 0.316,0.083 0.316,0.086 C0.311,0.086 0.306,0.086 0.301,0.086 C0.298,0.091 0.296,0.096 0.293,0.102 C0.288,0.102 0.283,0.102 0.278,0.102 C0.275,0.107 0.273,0.112 0.270,0.117 C0.265,0.117 0.260,0.117 0.255,0.117 C0.247,0.128 0.239,0.138 0.232,0.148 C0.226,0.148 0.221,0.148 0.216,0.148 C0.201,0.167 0.185,0.185 0.170,0.203 C0.162,0.208 0.154,0.213 0.147,0.219 C0.147,0.224 0.147,0.229 0.147,0.234 C0.136,0.242 0.126,0.250 0.116,0.258 C0.113,0.268 0.111,0.279 0.108,0.289 C0.100,0.294 0.093,0.299 0.085,0.305 C0.082,0.318 0.080,0.331 0.077,0.344 C0.075,0.344 0.072,0.344 0.069,0.344 C0.069,0.349 0.069,0.354 0.069,0.359 C0.064,0.362 0.059,0.364 0.054,0.367 C0.046,0.401 0.039,0.435 0.031,0.469 C0.021,0.469 0.010,0.469 -0.000,0.469 C-0.000,0.565 -0.000,0.661 -0.000,0.757 C0.010,0.757 0.021,0.757 0.031,0.757 C0.039,0.791 0.046,0.825 0.054,0.859 C0.059,0.862 0.064,0.864 0.069,0.867 C0.069,0.875 0.069,0.882 0.069,0.890 C0.072,0.890 0.075,0.890 0.077,0.890 C0.077,0.895 0.077,0.901 0.077,0.906 C0.080,0.906 0.082,0.906 0.085,0.906 C0.085,0.911 0.085,0.916 0.085,0.921 C0.093,0.927 0.100,0.932 0.108,0.937 C0.113,0.953 0.118,0.968 0.123,0.984 C0.224,1.083 0.324,1.182 0.425,1.281 C0.486,1.346 0.548,1.411 0.610,1.476 C0.666,1.533 0.724,1.581 0.772,1.648 C1.024,1.900 1.276,2.153 1.528,2.405 C2.977,3.876 4.426,5.347 5.874,6.817 C6.159,7.103 6.445,7.390 6.731,7.676 C6.857,7.806 6.983,7.936 7.109,8.067 C7.202,8.158 7.294,8.249 7.387,8.340 C7.397,8.353 7.407,8.366 7.418,8.379 C7.454,8.413 7.490,8.447 7.526,8.480 C7.526,8.493 7.526,8.507 7.526,8.520 C7.502,8.533 7.490,8.556 7.472,8.574 C7.433,8.613 7.395,8.652 7.356,8.691 C7.335,8.710 7.315,8.728 7.294,8.746 C7.189,8.855 7.083,8.965 6.978,9.074 C6.857,9.194 6.736,9.313 6.615,9.433 C6.332,9.722 6.049,10.011 5.766,10.300 C5.236,10.834 4.706,11.367 4.176,11.901 C4.098,12.010 3.991,12.095 3.898,12.190 C3.859,12.231 3.821,12.273 3.782,12.315 C3.648,12.447 3.515,12.580 3.381,12.713 C2.864,13.239 2.346,13.765 1.829,14.290 C1.477,14.644 1.124,14.998 0.772,15.352 C0.772,15.358 0.772,15.363 0.772,15.368 C0.741,15.397 0.710,15.425 0.679,15.454 C0.620,15.516 0.561,15.579 0.502,15.641 C0.479,15.662 0.455,15.683 0.432,15.704 C0.363,15.777 0.293,15.849 0.224,15.922 C0.190,15.954 0.157,15.985 0.123,16.016 C0.118,16.032 0.113,16.047 0.108,16.063 C0.100,16.068 0.093,16.073 0.085,16.079 C0.082,16.089 0.080,16.099 0.077,16.110 C0.075,16.110 0.072,16.110 0.069,16.110 C0.069,16.118 0.069,16.125 0.069,16.133 C0.064,16.136 0.059,16.138 0.054,16.141 C0.046,16.175 0.039,16.209 0.031,16.243 C0.021,16.243 0.010,16.243 -0.000,16.243 C-0.000,16.339 -0.000,16.435 -0.000,16.531 C0.010,16.531 0.021,16.531 0.031,16.531 C0.039,16.565 0.046,16.599 0.054,16.633 C0.059,16.636 0.064,16.638 0.069,16.641 C0.069,16.646 0.069,16.651 0.069,16.656 C0.072,16.656 0.075,16.656 0.077,16.656 C0.080,16.669 0.082,16.682 0.085,16.695 C0.093,16.701 0.100,16.706 0.108,16.711 C0.111,16.721 0.113,16.732 0.116,16.742 C0.126,16.750 0.136,16.758 0.147,16.766 C0.147,16.771 0.147,16.776 0.147,16.781 C0.167,16.800 0.188,16.818 0.208,16.836 C0.216,16.846 0.224,16.857 0.232,16.867 C0.237,16.867 0.242,16.867 0.247,16.867 C0.250,16.872 0.252,16.878 0.255,16.883 C0.262,16.885 0.270,16.888 0.278,16.891 C0.278,16.893 0.278,16.896 0.278,16.898 C0.283,16.898 0.288,16.898 0.293,16.898 C0.298,16.906 0.304,16.914 0.309,16.922 C0.316,16.922 0.324,16.922 0.332,16.922 C0.332,16.925 0.332,16.927 0.332,16.930 C0.337,16.930 0.342,16.930 0.347,16.930 C0.347,16.932 0.347,16.935 0.347,16.938 C0.358,16.940 0.368,16.943 0.378,16.945 C0.378,16.948 0.378,16.951 0.378,16.953 C0.386,16.953 0.394,16.953 0.401,16.953 C0.422,16.961 0.443,16.969 0.463,16.977 C0.463,16.984 0.463,16.992 0.463,17.000 C0.558,17.000 0.654,17.000 0.749,17.000 C0.749,16.990 0.749,16.979 0.749,16.969 C0.782,16.961 0.816,16.953 0.849,16.945 C0.852,16.940 0.854,16.935 0.857,16.930 C0.862,16.930 0.867,16.930 0.872,16.930 C0.872,16.927 0.872,16.925 0.872,16.922 C0.885,16.919 0.898,16.917 0.911,16.914 C0.916,16.906 0.921,16.898 0.926,16.891 C0.937,16.888 0.947,16.885 0.957,16.883 C0.965,16.872 0.973,16.862 0.980,16.852 C0.985,16.852 0.991,16.852 0.996,16.852 C1.106,16.737 1.217,16.623 1.328,16.508 C1.469,16.367 1.611,16.227 1.752,16.086 C2.048,15.784 2.344,15.482 2.640,15.181 C3.743,14.067 4.847,12.952 5.951,11.838 C6.003,11.766 6.067,11.713 6.129,11.651 C6.149,11.627 6.170,11.604 6.190,11.581 C6.273,11.500 6.355,11.419 6.437,11.339 C6.741,11.029 7.045,10.719 7.348,10.409 C7.747,10.006 8.146,9.602 8.545,9.199 C8.563,9.183 8.581,9.168 8.599,9.152 C8.660,9.087 8.722,9.022 8.784,8.957 C8.831,8.909 8.879,8.868 8.915,8.808 C8.918,8.795 8.920,8.782 8.923,8.769 C8.925,8.769 8.928,8.769 8.931,8.769 C8.931,8.764 8.931,8.759 8.931,8.754 C8.936,8.751 8.941,8.749 8.946,8.746 C8.954,8.712 8.961,8.678 8.969,8.644 C8.979,8.644 8.990,8.644 9.000,8.644 C9.000,8.548 9.000,8.452 9.000,8.356 C8.990,8.356 8.979,8.356 8.969,8.356 C8.961,8.322 8.954,8.288 8.946,8.254 C8.941,8.251 8.936,8.249 8.931,8.246 C8.931,8.241 8.931,8.236 8.931,8.231 C8.928,8.231 8.925,8.231 8.923,8.231 C8.920,8.218 8.918,8.205 8.915,8.192 C8.879,8.132 8.831,8.091 8.784,8.043 C8.768,8.025 8.753,8.007 8.738,7.989 C8.663,7.916 8.588,7.843 8.514,7.770 C8.372,7.624 8.231,7.478 8.089,7.333 C7.793,7.036 7.497,6.739 7.202,6.442 C6.913,6.148 6.625,5.854 6.337,5.560 C6.306,5.531 6.275,5.503 6.244,5.474 C6.178,5.404 6.111,5.333 6.044,5.263 C5.985,5.204 5.923,5.153 5.874,5.084 C4.747,3.946 3.620,2.808 2.493,1.671 C2.094,1.268 1.696,0.864 1.297,0.461 C1.281,0.443 1.266,0.424 1.250,0.406 C1.191,0.349 1.132,0.292 1.073,0.234 C1.047,0.206 1.021,0.177 0.996,0.148 C0.991,0.148 0.985,0.148 0.980,0.148 C0.975,0.141 0.970,0.133 0.965,0.125 C0.960,0.125 0.955,0.125 0.949,0.125 C0.947,0.120 0.944,0.115 0.942,0.109 C0.937,0.109 0.931,0.109 0.926,0.109 C0.924,0.104 0.921,0.099 0.919,0.094 C0.913,0.094 0.908,0.094 0.903,0.094 C0.901,0.089 0.898,0.083 0.895,0.078 C0.888,0.078 0.880,0.078 0.872,0.078 C0.872,0.075 0.872,0.073 0.872,0.070 C0.867,0.070 0.862,0.070 0.857,0.070 C0.854,0.065 0.852,0.060 0.849,0.055 C0.816,0.047 0.782,0.039 0.749,0.031 C0.749,0.021 0.749,0.010 0.749,-0.000 Z"/>
</svg>