<svg 
 xmlns="http://www.w3.org/2000/svg"
 xmlns:xlink="http://www.w3.org/1999/xlink"
 width="8px" height="15px">
<path fill-rule="evenodd"  fill="rgb(250, 177, 58)"
 d="M8.000,0.115 C8.000,0.909 8.000,1.702 8.000,2.495 C7.577,2.495 7.154,2.495 6.731,2.495 C6.512,2.495 6.272,2.482 6.101,2.532 C6.067,2.535 6.032,2.538 5.998,2.541 C5.998,2.544 5.998,2.547 5.998,2.550 C5.976,2.553 5.954,2.556 5.932,2.559 C5.932,2.563 5.932,2.566 5.932,2.569 C5.922,2.569 5.913,2.569 5.904,2.569 C5.904,2.572 5.904,2.575 5.904,2.578 C5.894,2.578 5.885,2.578 5.875,2.578 C5.875,2.581 5.875,2.584 5.875,2.587 C5.866,2.587 5.857,2.587 5.847,2.587 C5.847,2.590 5.847,2.593 5.847,2.596 C5.828,2.599 5.810,2.602 5.791,2.605 C5.791,2.608 5.791,2.611 5.791,2.614 C5.772,2.620 5.753,2.627 5.734,2.633 C5.734,2.636 5.734,2.639 5.734,2.642 C5.728,2.642 5.722,2.642 5.716,2.642 C5.716,2.645 5.716,2.648 5.716,2.651 C5.697,2.657 5.678,2.663 5.659,2.669 C5.656,2.675 5.653,2.682 5.650,2.688 C5.637,2.691 5.625,2.694 5.612,2.697 C5.609,2.703 5.606,2.709 5.603,2.715 C5.593,2.718 5.584,2.721 5.575,2.724 C5.565,2.736 5.556,2.749 5.546,2.761 C5.540,2.761 5.534,2.761 5.528,2.761 C5.509,2.782 5.490,2.804 5.471,2.825 C5.462,2.831 5.452,2.837 5.443,2.843 C5.443,2.849 5.443,2.855 5.443,2.862 C5.430,2.871 5.418,2.880 5.405,2.889 C5.405,2.895 5.405,2.901 5.405,2.907 C5.399,2.910 5.393,2.913 5.387,2.916 C5.383,2.926 5.380,2.935 5.377,2.944 C5.374,2.944 5.371,2.944 5.368,2.944 C5.365,2.956 5.362,2.968 5.358,2.981 C5.352,2.984 5.346,2.987 5.340,2.990 C5.330,3.017 5.321,3.045 5.311,3.072 C5.308,3.072 5.305,3.072 5.302,3.072 C5.302,3.078 5.302,3.084 5.302,3.090 C5.299,3.090 5.296,3.090 5.293,3.090 C5.289,3.106 5.286,3.121 5.283,3.136 C5.280,3.136 5.277,3.136 5.274,3.136 C5.271,3.158 5.268,3.179 5.264,3.200 C5.185,3.419 5.189,3.715 5.189,4.015 C5.189,4.509 5.189,5.004 5.189,5.498 C6.092,5.498 6.994,5.498 7.897,5.498 C7.781,6.386 7.665,7.274 7.549,8.162 C6.762,8.162 5.976,8.162 5.189,8.162 C5.189,10.441 5.189,12.721 5.189,15.000 C4.249,15.000 3.309,15.000 2.369,15.000 C2.369,12.721 2.369,10.441 2.369,8.162 C1.579,8.162 0.790,8.162 -0.000,8.162 C-0.000,7.274 -0.000,6.386 -0.000,5.498 C0.790,5.498 1.579,5.498 2.369,5.498 C2.369,5.083 2.369,4.668 2.369,4.253 C2.369,4.012 2.369,3.771 2.369,3.530 C2.369,3.454 2.361,3.353 2.378,3.292 C2.378,3.240 2.378,3.188 2.378,3.136 C2.382,3.136 2.385,3.136 2.388,3.136 C2.388,3.100 2.388,3.063 2.388,3.026 C2.391,3.026 2.394,3.026 2.397,3.026 C2.397,2.999 2.397,2.971 2.397,2.944 C2.400,2.944 2.403,2.944 2.407,2.944 C2.407,2.920 2.407,2.895 2.407,2.871 C2.410,2.871 2.413,2.871 2.416,2.871 C2.416,2.849 2.416,2.828 2.416,2.807 C2.419,2.807 2.422,2.807 2.425,2.807 C2.425,2.785 2.425,2.764 2.425,2.743 C2.443,2.684 2.454,2.607 2.472,2.550 C2.472,2.535 2.472,2.520 2.472,2.505 C2.476,2.505 2.479,2.505 2.482,2.505 C2.482,2.492 2.482,2.480 2.482,2.468 C2.485,2.468 2.488,2.468 2.491,2.468 C2.491,2.456 2.491,2.443 2.491,2.431 C2.494,2.431 2.497,2.431 2.501,2.431 C2.501,2.419 2.501,2.407 2.501,2.395 C2.504,2.395 2.507,2.395 2.510,2.395 C2.510,2.382 2.510,2.370 2.510,2.358 C2.513,2.358 2.516,2.358 2.519,2.358 C2.523,2.334 2.526,2.309 2.529,2.285 C2.532,2.285 2.535,2.285 2.538,2.285 C2.544,2.254 2.551,2.224 2.557,2.193 C2.560,2.193 2.563,2.193 2.566,2.193 C2.566,2.184 2.566,2.175 2.566,2.166 C2.570,2.166 2.573,2.166 2.576,2.166 C2.576,2.157 2.576,2.148 2.576,2.138 C2.579,2.138 2.582,2.138 2.585,2.138 C2.585,2.129 2.585,2.120 2.585,2.111 C2.588,2.111 2.591,2.111 2.595,2.111 C2.598,2.093 2.601,2.074 2.604,2.056 C2.607,2.056 2.610,2.056 2.613,2.056 C2.613,2.050 2.613,2.044 2.613,2.038 C2.617,2.038 2.620,2.038 2.623,2.038 C2.626,2.019 2.629,2.001 2.632,1.983 C2.635,1.983 2.638,1.983 2.642,1.983 C2.642,1.977 2.642,1.971 2.642,1.964 C2.645,1.964 2.648,1.964 2.651,1.964 C2.651,1.955 2.651,1.946 2.651,1.937 C2.654,1.937 2.657,1.937 2.660,1.937 C2.660,1.931 2.660,1.925 2.660,1.919 C2.664,1.919 2.667,1.919 2.670,1.919 C2.670,1.910 2.670,1.900 2.670,1.891 C2.673,1.891 2.676,1.891 2.679,1.891 C2.679,1.885 2.679,1.879 2.679,1.873 C2.682,1.873 2.685,1.873 2.689,1.873 C2.692,1.858 2.695,1.842 2.698,1.827 C2.701,1.827 2.704,1.827 2.707,1.827 C2.714,1.809 2.720,1.791 2.726,1.772 C2.729,1.772 2.732,1.772 2.736,1.772 C2.736,1.766 2.736,1.760 2.736,1.754 C2.739,1.754 2.742,1.754 2.745,1.754 C2.745,1.745 2.745,1.736 2.745,1.726 C2.748,1.726 2.751,1.726 2.754,1.726 C2.758,1.714 2.761,1.702 2.764,1.690 C2.767,1.690 2.770,1.690 2.773,1.690 C2.776,1.678 2.779,1.665 2.783,1.653 C2.789,1.650 2.795,1.647 2.801,1.644 C2.801,1.638 2.801,1.632 2.801,1.626 C2.805,1.626 2.808,1.626 2.811,1.626 C2.811,1.620 2.811,1.614 2.811,1.607 C2.814,1.607 2.817,1.607 2.820,1.607 C2.820,1.601 2.820,1.595 2.820,1.589 C2.823,1.589 2.826,1.589 2.830,1.589 C2.830,1.583 2.830,1.577 2.830,1.571 C2.833,1.571 2.836,1.571 2.839,1.571 C2.839,1.565 2.839,1.559 2.839,1.552 C2.845,1.549 2.852,1.546 2.858,1.543 C2.864,1.525 2.870,1.507 2.877,1.488 C2.883,1.485 2.889,1.482 2.895,1.479 C2.895,1.473 2.895,1.467 2.895,1.461 C2.899,1.461 2.902,1.461 2.905,1.461 C2.905,1.455 2.905,1.449 2.905,1.443 C2.911,1.440 2.917,1.437 2.924,1.433 C2.924,1.427 2.924,1.421 2.924,1.415 C2.930,1.412 2.936,1.409 2.942,1.406 C2.942,1.400 2.942,1.394 2.942,1.388 C2.949,1.385 2.955,1.382 2.961,1.379 C2.961,1.372 2.961,1.366 2.961,1.360 C2.967,1.357 2.974,1.354 2.980,1.351 C2.980,1.345 2.980,1.339 2.980,1.333 C2.986,1.330 2.993,1.327 2.999,1.324 C2.999,1.318 2.999,1.311 2.999,1.305 C3.005,1.302 3.011,1.299 3.018,1.296 C3.018,1.290 3.018,1.284 3.018,1.278 C3.027,1.272 3.036,1.266 3.046,1.260 C3.046,1.253 3.046,1.247 3.046,1.241 C3.055,1.235 3.065,1.229 3.074,1.223 C3.074,1.217 3.074,1.211 3.074,1.205 C3.087,1.195 3.099,1.186 3.112,1.177 C3.112,1.171 3.112,1.165 3.112,1.159 C3.124,1.150 3.137,1.141 3.149,1.131 C3.149,1.125 3.149,1.119 3.149,1.113 C3.168,1.098 3.187,1.083 3.206,1.067 C3.206,1.061 3.206,1.055 3.206,1.049 C3.234,1.025 3.262,1.000 3.290,0.976 C3.347,0.918 3.403,0.860 3.459,0.802 C3.466,0.802 3.472,0.802 3.478,0.802 C3.494,0.784 3.510,0.765 3.525,0.747 C3.532,0.747 3.538,0.747 3.544,0.747 C3.553,0.735 3.563,0.723 3.572,0.710 C3.579,0.710 3.585,0.710 3.591,0.710 C3.600,0.698 3.610,0.686 3.619,0.674 C3.626,0.674 3.632,0.674 3.638,0.674 C3.644,0.665 3.651,0.655 3.657,0.646 C3.663,0.646 3.669,0.646 3.676,0.646 C3.679,0.640 3.682,0.634 3.685,0.628 C3.691,0.628 3.698,0.628 3.704,0.628 C3.710,0.619 3.716,0.610 3.723,0.600 C3.729,0.600 3.735,0.600 3.741,0.600 C3.745,0.594 3.748,0.588 3.751,0.582 C3.757,0.582 3.763,0.582 3.770,0.582 C3.773,0.576 3.776,0.570 3.779,0.564 C3.785,0.564 3.792,0.564 3.798,0.564 C3.801,0.558 3.804,0.552 3.807,0.546 C3.814,0.546 3.820,0.546 3.826,0.546 C3.829,0.539 3.832,0.533 3.835,0.527 C3.848,0.524 3.861,0.521 3.873,0.518 C3.876,0.512 3.879,0.506 3.882,0.500 C3.889,0.500 3.895,0.500 3.901,0.500 C3.901,0.497 3.901,0.494 3.901,0.491 C3.908,0.491 3.914,0.491 3.920,0.491 C3.923,0.485 3.926,0.478 3.929,0.472 C3.948,0.466 3.967,0.460 3.986,0.454 C3.989,0.448 3.992,0.442 3.995,0.436 C4.002,0.436 4.008,0.436 4.014,0.436 C4.014,0.433 4.014,0.430 4.014,0.427 C4.020,0.427 4.027,0.427 4.033,0.427 C4.033,0.423 4.033,0.420 4.033,0.417 C4.039,0.417 4.045,0.417 4.052,0.417 C4.052,0.414 4.052,0.411 4.052,0.408 C4.058,0.408 4.064,0.408 4.071,0.408 C4.071,0.405 4.071,0.402 4.071,0.399 C4.077,0.399 4.083,0.399 4.089,0.399 C4.089,0.396 4.089,0.393 4.089,0.390 C4.096,0.390 4.102,0.390 4.108,0.390 C4.108,0.387 4.108,0.384 4.108,0.381 C4.114,0.381 4.121,0.381 4.127,0.381 C4.127,0.378 4.127,0.375 4.127,0.372 C4.133,0.372 4.139,0.372 4.146,0.372 C4.146,0.369 4.146,0.365 4.146,0.362 C4.152,0.362 4.158,0.362 4.165,0.362 C4.165,0.359 4.165,0.356 4.165,0.353 C4.183,0.347 4.202,0.341 4.221,0.335 C4.221,0.332 4.221,0.329 4.221,0.326 C4.237,0.323 4.252,0.320 4.268,0.317 C4.268,0.314 4.268,0.311 4.268,0.308 C4.280,0.304 4.293,0.301 4.306,0.298 C4.306,0.295 4.306,0.292 4.306,0.289 C4.315,0.289 4.324,0.289 4.334,0.289 C4.334,0.286 4.334,0.283 4.334,0.280 C4.340,0.280 4.346,0.280 4.353,0.280 C4.353,0.277 4.353,0.274 4.353,0.271 C4.371,0.268 4.390,0.265 4.409,0.262 C4.409,0.259 4.409,0.256 4.409,0.253 C4.415,0.253 4.421,0.253 4.428,0.253 C4.428,0.250 4.428,0.246 4.428,0.243 C4.456,0.237 4.484,0.231 4.512,0.225 C4.512,0.222 4.512,0.219 4.512,0.216 C4.519,0.216 4.525,0.216 4.531,0.216 C4.531,0.213 4.531,0.210 4.531,0.207 C4.553,0.204 4.575,0.201 4.597,0.198 C4.597,0.195 4.597,0.192 4.597,0.189 C4.606,0.189 4.616,0.189 4.625,0.189 C4.625,0.185 4.625,0.182 4.625,0.179 C4.635,0.179 4.644,0.179 4.653,0.179 C4.653,0.176 4.653,0.173 4.653,0.170 C4.663,0.170 4.672,0.170 4.682,0.170 C4.682,0.167 4.682,0.164 4.682,0.161 C4.703,0.158 4.725,0.155 4.747,0.152 C4.747,0.149 4.747,0.146 4.747,0.143 C4.760,0.143 4.772,0.143 4.785,0.143 C4.861,0.117 4.959,0.102 5.039,0.079 C5.058,0.079 5.076,0.079 5.095,0.079 C5.095,0.076 5.095,0.073 5.095,0.070 C5.111,0.070 5.127,0.070 5.142,0.070 C5.142,0.066 5.142,0.063 5.142,0.060 C5.164,0.060 5.186,0.060 5.208,0.060 C5.208,0.057 5.208,0.054 5.208,0.051 C5.230,0.051 5.252,0.051 5.274,0.051 C5.274,0.048 5.274,0.045 5.274,0.042 C5.371,0.036 5.468,0.030 5.565,0.024 C5.621,0.009 5.715,0.030 5.772,0.015 C5.844,-0.005 6.057,-0.005 6.129,0.015 C6.273,0.015 6.418,0.015 6.562,0.015 C6.562,0.018 6.562,0.021 6.562,0.024 C6.643,0.024 6.725,0.024 6.806,0.024 C6.806,0.027 6.806,0.030 6.806,0.033 C6.831,0.033 6.856,0.033 6.881,0.033 C6.925,0.033 6.969,0.033 7.013,0.033 C7.013,0.036 7.013,0.039 7.013,0.042 C7.085,0.045 7.157,0.048 7.229,0.051 C7.264,0.051 7.298,0.051 7.333,0.051 C7.333,0.054 7.333,0.057 7.333,0.060 C7.376,0.060 7.420,0.060 7.464,0.060 C7.464,0.063 7.464,0.066 7.464,0.070 C7.474,0.070 7.483,0.070 7.492,0.070 C7.524,0.070 7.555,0.070 7.586,0.070 C7.586,0.073 7.586,0.076 7.586,0.079 C7.624,0.079 7.662,0.079 7.699,0.079 C7.699,0.082 7.699,0.085 7.699,0.088 C7.734,0.088 7.768,0.088 7.803,0.088 C7.803,0.091 7.803,0.094 7.803,0.097 C7.834,0.097 7.865,0.097 7.897,0.097 C7.897,0.100 7.897,0.103 7.897,0.106 C7.931,0.109 7.966,0.112 8.000,0.115 Z"/>
</svg>