<svg 
 xmlns="http://www.w3.org/2000/svg"
 xmlns:xlink="http://www.w3.org/1999/xlink"
 width="12px" height="18px">
<path fill-rule="evenodd"  fill="rgb(250, 181, 68)"
 d="M10.401,0.394 C10.934,0.394 11.467,0.394 12.000,0.394 C12.000,3.538 12.000,6.683 12.000,9.827 C12.000,10.701 12.000,11.576 12.000,12.450 C12.000,12.676 12.000,12.902 12.000,13.127 C11.996,13.127 11.992,13.127 11.987,13.127 C11.987,13.201 11.987,13.275 11.987,13.349 C11.983,13.349 11.979,13.349 11.975,13.349 C11.975,13.394 11.975,13.439 11.975,13.484 C11.971,13.484 11.966,13.484 11.962,13.484 C11.962,13.521 11.962,13.558 11.962,13.595 C11.958,13.595 11.954,13.595 11.950,13.595 C11.950,13.628 11.950,13.661 11.950,13.694 C11.945,13.694 11.941,13.694 11.937,13.694 C11.937,13.722 11.937,13.751 11.937,13.780 C11.919,13.841 11.905,13.930 11.887,13.989 C11.887,14.010 11.887,14.030 11.887,14.051 C11.882,14.051 11.878,14.051 11.874,14.051 C11.874,14.071 11.874,14.092 11.874,14.112 C11.870,14.112 11.866,14.112 11.861,14.112 C11.861,14.129 11.861,14.145 11.861,14.162 C11.857,14.162 11.853,14.162 11.849,14.162 C11.849,14.182 11.849,14.203 11.849,14.223 C11.845,14.223 11.841,14.223 11.836,14.223 C11.836,14.240 11.836,14.256 11.836,14.273 C11.832,14.273 11.828,14.273 11.824,14.273 C11.824,14.289 11.824,14.305 11.824,14.322 C11.820,14.322 11.815,14.322 11.811,14.322 C11.803,14.367 11.794,14.412 11.786,14.457 C11.782,14.457 11.778,14.457 11.773,14.457 C11.773,14.470 11.773,14.482 11.773,14.494 C11.769,14.494 11.765,14.494 11.761,14.494 C11.761,14.507 11.761,14.519 11.761,14.531 C11.757,14.531 11.752,14.531 11.748,14.531 C11.748,14.543 11.748,14.556 11.748,14.568 C11.744,14.568 11.740,14.568 11.736,14.568 C11.723,14.621 11.710,14.675 11.698,14.728 C11.694,14.728 11.689,14.728 11.685,14.728 C11.685,14.736 11.685,14.745 11.685,14.753 C11.681,14.753 11.677,14.753 11.673,14.753 C11.668,14.777 11.664,14.802 11.660,14.827 C11.656,14.827 11.652,14.827 11.647,14.827 C11.647,14.835 11.647,14.843 11.647,14.851 C11.643,14.851 11.639,14.851 11.635,14.851 C11.635,14.864 11.635,14.876 11.635,14.888 C11.631,14.888 11.626,14.888 11.622,14.888 C11.622,14.901 11.622,14.913 11.622,14.925 C11.618,14.925 11.614,14.925 11.610,14.925 C11.605,14.942 11.601,14.958 11.597,14.974 C11.593,14.974 11.589,14.974 11.584,14.974 C11.584,14.987 11.584,14.999 11.584,15.011 C11.580,15.011 11.576,15.011 11.572,15.011 C11.568,15.028 11.563,15.044 11.559,15.061 C11.555,15.061 11.551,15.061 11.547,15.061 C11.547,15.073 11.547,15.085 11.547,15.098 C11.542,15.098 11.538,15.098 11.534,15.098 C11.526,15.122 11.517,15.147 11.509,15.172 C11.505,15.172 11.501,15.172 11.496,15.172 C11.496,15.180 11.496,15.188 11.496,15.196 C11.492,15.196 11.488,15.196 11.484,15.196 C11.484,15.204 11.484,15.213 11.484,15.221 C11.480,15.221 11.475,15.221 11.471,15.221 C11.471,15.229 11.471,15.237 11.471,15.245 C11.467,15.245 11.463,15.245 11.459,15.245 C11.454,15.266 11.450,15.286 11.446,15.307 C11.438,15.311 11.429,15.315 11.421,15.319 C11.421,15.327 11.421,15.336 11.421,15.344 C11.417,15.344 11.412,15.344 11.408,15.344 C11.408,15.352 11.408,15.360 11.408,15.369 C11.404,15.369 11.400,15.369 11.396,15.369 C11.396,15.377 11.396,15.385 11.396,15.393 C11.391,15.393 11.387,15.393 11.383,15.393 C11.383,15.401 11.383,15.410 11.383,15.418 C11.379,15.418 11.375,15.418 11.370,15.418 C11.370,15.426 11.370,15.434 11.370,15.442 C11.366,15.442 11.362,15.442 11.358,15.442 C11.358,15.451 11.358,15.459 11.358,15.467 C11.349,15.471 11.341,15.475 11.333,15.479 C11.324,15.504 11.316,15.529 11.307,15.553 C11.299,15.557 11.291,15.561 11.282,15.566 C11.278,15.582 11.274,15.598 11.270,15.615 C11.261,15.619 11.253,15.623 11.244,15.627 C11.240,15.644 11.236,15.660 11.232,15.676 C11.228,15.676 11.224,15.676 11.219,15.676 C11.215,15.689 11.211,15.701 11.207,15.713 C11.198,15.717 11.190,15.722 11.182,15.726 C11.182,15.734 11.182,15.742 11.182,15.750 C11.173,15.754 11.165,15.758 11.156,15.763 C11.156,15.771 11.156,15.779 11.156,15.787 C11.148,15.791 11.140,15.795 11.131,15.800 C11.131,15.808 11.131,15.816 11.131,15.824 C11.127,15.824 11.123,15.824 11.119,15.824 C11.114,15.836 11.110,15.849 11.106,15.861 C11.098,15.865 11.089,15.869 11.081,15.873 C11.081,15.882 11.081,15.890 11.081,15.898 C11.072,15.902 11.064,15.906 11.056,15.910 C11.051,15.923 11.047,15.935 11.043,15.947 C11.030,15.956 11.018,15.964 11.005,15.972 C11.005,15.980 11.005,15.988 11.005,15.997 C10.993,16.005 10.980,16.013 10.967,16.021 C10.967,16.029 10.967,16.038 10.967,16.046 C10.959,16.050 10.951,16.054 10.942,16.058 C10.942,16.062 10.942,16.066 10.942,16.070 C10.934,16.075 10.925,16.079 10.917,16.083 C10.917,16.091 10.917,16.099 10.917,16.107 C10.900,16.120 10.884,16.132 10.867,16.144 C10.867,16.153 10.867,16.161 10.867,16.169 C10.842,16.190 10.816,16.210 10.791,16.231 C10.791,16.239 10.791,16.247 10.791,16.255 C10.741,16.300 10.690,16.345 10.640,16.391 C10.640,16.399 10.640,16.407 10.640,16.415 C10.632,16.419 10.623,16.423 10.615,16.428 C10.590,16.456 10.565,16.485 10.539,16.514 C10.531,16.514 10.523,16.514 10.514,16.514 C10.472,16.559 10.430,16.604 10.388,16.649 C10.380,16.649 10.371,16.649 10.363,16.649 C10.342,16.674 10.321,16.699 10.300,16.723 C10.292,16.723 10.283,16.723 10.275,16.723 C10.271,16.731 10.267,16.740 10.262,16.748 C10.258,16.748 10.254,16.748 10.250,16.748 C10.241,16.760 10.233,16.772 10.225,16.785 C10.216,16.785 10.208,16.785 10.199,16.785 C10.195,16.793 10.191,16.801 10.187,16.809 C10.174,16.813 10.162,16.818 10.149,16.822 C10.136,16.838 10.124,16.854 10.111,16.871 C10.103,16.871 10.094,16.871 10.086,16.871 C10.082,16.879 10.078,16.887 10.073,16.896 C10.065,16.896 10.057,16.896 10.048,16.896 C10.040,16.908 10.031,16.920 10.023,16.932 C10.015,16.932 10.006,16.932 9.998,16.932 C9.990,16.945 9.981,16.957 9.973,16.969 C9.964,16.969 9.956,16.969 9.948,16.969 C9.943,16.978 9.939,16.986 9.935,16.994 C9.922,16.998 9.910,17.002 9.897,17.006 C9.897,17.010 9.897,17.015 9.897,17.019 C9.889,17.019 9.880,17.019 9.872,17.019 C9.868,17.027 9.864,17.035 9.859,17.043 C9.851,17.043 9.843,17.043 9.834,17.043 C9.830,17.052 9.826,17.060 9.822,17.068 C9.813,17.068 9.805,17.068 9.796,17.068 C9.792,17.076 9.788,17.084 9.784,17.093 C9.767,17.097 9.750,17.101 9.733,17.105 C9.729,17.113 9.725,17.121 9.721,17.130 C9.704,17.134 9.687,17.138 9.671,17.142 C9.666,17.150 9.662,17.158 9.658,17.166 C9.650,17.166 9.641,17.166 9.633,17.166 C9.633,17.171 9.633,17.175 9.633,17.179 C9.624,17.179 9.616,17.179 9.608,17.179 C9.603,17.187 9.599,17.195 9.595,17.203 C9.570,17.212 9.545,17.220 9.519,17.228 C9.515,17.236 9.511,17.244 9.507,17.253 C9.498,17.253 9.490,17.253 9.482,17.253 C9.482,17.257 9.482,17.261 9.482,17.265 C9.473,17.265 9.465,17.265 9.456,17.265 C9.456,17.269 9.456,17.273 9.456,17.277 C9.448,17.277 9.440,17.277 9.431,17.277 C9.431,17.281 9.431,17.286 9.431,17.290 C9.423,17.290 9.414,17.290 9.406,17.290 C9.406,17.294 9.406,17.298 9.406,17.302 C9.398,17.302 9.389,17.302 9.381,17.302 C9.381,17.306 9.381,17.310 9.381,17.314 C9.373,17.314 9.364,17.314 9.356,17.314 C9.356,17.318 9.356,17.322 9.356,17.327 C9.347,17.327 9.339,17.327 9.331,17.327 C9.331,17.331 9.331,17.335 9.331,17.339 C9.322,17.339 9.314,17.339 9.305,17.339 C9.305,17.343 9.305,17.347 9.305,17.351 C9.297,17.351 9.289,17.351 9.280,17.351 C9.280,17.355 9.280,17.359 9.280,17.363 C9.272,17.363 9.263,17.363 9.255,17.363 C9.255,17.368 9.255,17.372 9.255,17.376 C9.247,17.376 9.238,17.376 9.230,17.376 C9.230,17.380 9.230,17.384 9.230,17.388 C9.213,17.392 9.196,17.396 9.179,17.400 C9.179,17.405 9.179,17.409 9.179,17.413 C9.171,17.413 9.163,17.413 9.154,17.413 C9.154,17.417 9.154,17.421 9.154,17.425 C9.142,17.425 9.129,17.425 9.116,17.425 C9.116,17.429 9.116,17.433 9.116,17.437 C9.108,17.437 9.100,17.437 9.091,17.437 C9.091,17.441 9.091,17.446 9.091,17.450 C9.075,17.454 9.058,17.458 9.041,17.462 C9.041,17.466 9.041,17.470 9.041,17.474 C9.028,17.474 9.016,17.474 9.003,17.474 C9.003,17.478 9.003,17.483 9.003,17.487 C8.995,17.487 8.986,17.487 8.978,17.487 C8.978,17.491 8.978,17.495 8.978,17.499 C8.965,17.499 8.953,17.499 8.940,17.499 C8.940,17.503 8.940,17.507 8.940,17.511 C8.932,17.511 8.923,17.511 8.915,17.511 C8.915,17.515 8.915,17.519 8.915,17.524 C8.894,17.528 8.873,17.532 8.852,17.536 C8.852,17.540 8.852,17.544 8.852,17.548 C8.839,17.548 8.827,17.548 8.814,17.548 C8.814,17.552 8.814,17.556 8.814,17.561 C8.806,17.561 8.797,17.561 8.789,17.561 C8.789,17.565 8.789,17.569 8.789,17.573 C8.764,17.577 8.739,17.581 8.714,17.585 C8.714,17.589 8.714,17.593 8.714,17.597 C8.705,17.597 8.697,17.597 8.688,17.597 C8.688,17.602 8.688,17.606 8.688,17.610 C8.474,17.671 8.260,17.733 8.046,17.795 C7.824,17.836 7.601,17.877 7.379,17.918 C7.274,17.926 7.169,17.934 7.064,17.942 C7.064,17.946 7.064,17.950 7.064,17.955 C6.938,17.963 6.812,17.971 6.686,17.979 C6.611,17.979 6.535,17.979 6.460,17.979 C6.359,18.006 6.056,18.007 5.956,17.979 C5.805,17.975 5.654,17.971 5.503,17.967 C5.503,17.963 5.503,17.959 5.503,17.955 C5.456,17.955 5.410,17.955 5.364,17.955 C5.364,17.950 5.364,17.946 5.364,17.942 C5.331,17.942 5.297,17.942 5.263,17.942 C5.033,17.905 4.802,17.868 4.571,17.831 C4.571,17.827 4.571,17.823 4.571,17.819 C4.533,17.815 4.495,17.811 4.458,17.807 C4.458,17.803 4.458,17.799 4.458,17.795 C4.441,17.795 4.424,17.795 4.407,17.795 C4.407,17.790 4.407,17.786 4.407,17.782 C4.390,17.782 4.374,17.782 4.357,17.782 C4.357,17.778 4.357,17.774 4.357,17.770 C4.340,17.770 4.323,17.770 4.306,17.770 C4.306,17.766 4.306,17.762 4.306,17.758 C4.290,17.758 4.273,17.758 4.256,17.758 C4.256,17.753 4.256,17.749 4.256,17.745 C4.243,17.745 4.231,17.745 4.218,17.745 C4.218,17.741 4.218,17.737 4.218,17.733 C4.185,17.729 4.151,17.725 4.118,17.721 C4.118,17.717 4.118,17.712 4.118,17.708 C4.076,17.700 4.034,17.692 3.992,17.684 C3.992,17.680 3.992,17.675 3.992,17.671 C3.979,17.671 3.966,17.671 3.954,17.671 C3.954,17.667 3.954,17.663 3.954,17.659 C3.941,17.659 3.929,17.659 3.916,17.659 C3.916,17.655 3.916,17.651 3.916,17.647 C3.903,17.647 3.891,17.647 3.878,17.647 C3.878,17.643 3.878,17.639 3.878,17.634 C3.866,17.634 3.853,17.634 3.841,17.634 C3.841,17.630 3.841,17.626 3.841,17.622 C3.815,17.618 3.790,17.614 3.765,17.610 C3.765,17.606 3.765,17.602 3.765,17.597 C3.757,17.597 3.748,17.597 3.740,17.597 C3.740,17.593 3.740,17.589 3.740,17.585 C3.715,17.581 3.689,17.577 3.664,17.573 C3.664,17.569 3.664,17.565 3.664,17.561 C3.656,17.561 3.647,17.561 3.639,17.561 C3.639,17.556 3.639,17.552 3.639,17.548 C3.614,17.544 3.589,17.540 3.563,17.536 C3.563,17.532 3.563,17.528 3.563,17.524 C3.555,17.524 3.547,17.524 3.538,17.524 C3.538,17.519 3.538,17.515 3.538,17.511 C3.496,17.499 3.454,17.487 3.412,17.474 C3.412,17.470 3.412,17.466 3.412,17.462 C3.396,17.458 3.379,17.454 3.362,17.450 C3.362,17.446 3.362,17.441 3.362,17.437 C3.349,17.437 3.337,17.437 3.324,17.437 C3.324,17.433 3.324,17.429 3.324,17.425 C3.299,17.417 3.274,17.409 3.249,17.400 C3.249,17.396 3.249,17.392 3.249,17.388 C3.240,17.388 3.232,17.388 3.224,17.388 C3.224,17.384 3.224,17.380 3.224,17.376 C3.215,17.376 3.207,17.376 3.198,17.376 C3.198,17.372 3.198,17.368 3.198,17.363 C3.182,17.359 3.165,17.355 3.148,17.351 C3.148,17.347 3.148,17.343 3.148,17.339 C3.135,17.339 3.123,17.339 3.110,17.339 C3.110,17.335 3.110,17.331 3.110,17.327 C3.102,17.327 3.093,17.327 3.085,17.327 C3.081,17.318 3.077,17.310 3.072,17.302 C3.056,17.298 3.039,17.294 3.022,17.290 C3.022,17.286 3.022,17.281 3.022,17.277 C3.014,17.277 3.005,17.277 2.997,17.277 C2.997,17.273 2.997,17.269 2.997,17.265 C2.988,17.265 2.980,17.265 2.972,17.265 C2.972,17.261 2.972,17.257 2.972,17.253 C2.963,17.253 2.955,17.253 2.946,17.253 C2.946,17.249 2.946,17.244 2.946,17.240 C2.938,17.240 2.930,17.240 2.921,17.240 C2.921,17.236 2.921,17.232 2.921,17.228 C2.913,17.228 2.905,17.228 2.896,17.228 C2.892,17.220 2.888,17.212 2.884,17.203 C2.858,17.195 2.833,17.187 2.808,17.179 C2.804,17.171 2.800,17.162 2.795,17.154 C2.770,17.146 2.745,17.138 2.720,17.130 C2.720,17.125 2.720,17.121 2.720,17.117 C2.707,17.113 2.695,17.109 2.682,17.105 C2.678,17.097 2.674,17.088 2.669,17.080 C2.653,17.076 2.636,17.072 2.619,17.068 C2.615,17.060 2.611,17.052 2.607,17.043 C2.598,17.043 2.590,17.043 2.581,17.043 C2.577,17.035 2.573,17.027 2.569,17.019 C2.560,17.019 2.552,17.019 2.544,17.019 C2.544,17.015 2.544,17.010 2.544,17.006 C2.531,17.002 2.518,16.998 2.506,16.994 C2.502,16.986 2.497,16.978 2.493,16.969 C2.485,16.969 2.476,16.969 2.468,16.969 C2.468,16.965 2.468,16.961 2.468,16.957 C2.455,16.953 2.443,16.949 2.430,16.945 C2.426,16.937 2.422,16.928 2.418,16.920 C2.409,16.920 2.401,16.920 2.392,16.920 C2.384,16.908 2.376,16.896 2.367,16.883 C2.359,16.883 2.350,16.883 2.342,16.883 C2.338,16.875 2.334,16.867 2.329,16.859 C2.321,16.859 2.313,16.859 2.304,16.859 C2.292,16.842 2.279,16.826 2.267,16.809 C2.258,16.809 2.250,16.809 2.241,16.809 C2.233,16.797 2.225,16.785 2.216,16.772 C2.208,16.772 2.199,16.772 2.191,16.772 C2.178,16.756 2.166,16.740 2.153,16.723 C2.145,16.723 2.136,16.723 2.128,16.723 C2.115,16.707 2.103,16.690 2.090,16.674 C2.082,16.674 2.073,16.674 2.065,16.674 C2.044,16.649 2.023,16.625 2.002,16.600 C1.994,16.600 1.985,16.600 1.977,16.600 C1.943,16.563 1.910,16.526 1.876,16.489 C1.868,16.489 1.859,16.489 1.851,16.489 C1.822,16.456 1.792,16.423 1.763,16.391 C1.717,16.350 1.671,16.309 1.624,16.267 C1.624,16.259 1.624,16.251 1.624,16.243 C1.616,16.239 1.608,16.235 1.599,16.231 C1.599,16.226 1.599,16.222 1.599,16.218 C1.570,16.194 1.540,16.169 1.511,16.144 C1.511,16.136 1.511,16.128 1.511,16.120 C1.490,16.103 1.469,16.087 1.448,16.070 C1.448,16.062 1.448,16.054 1.448,16.046 C1.427,16.029 1.406,16.013 1.385,15.997 C1.385,15.988 1.385,15.980 1.385,15.972 C1.368,15.960 1.352,15.947 1.335,15.935 C1.335,15.927 1.335,15.919 1.335,15.910 C1.322,15.902 1.310,15.894 1.297,15.886 C1.293,15.873 1.289,15.861 1.284,15.849 C1.276,15.845 1.268,15.841 1.259,15.836 C1.259,15.828 1.259,15.820 1.259,15.812 C1.255,15.812 1.251,15.812 1.247,15.812 C1.242,15.800 1.238,15.787 1.234,15.775 C1.226,15.771 1.217,15.767 1.209,15.763 C1.209,15.754 1.209,15.746 1.209,15.738 C1.196,15.730 1.184,15.722 1.171,15.713 C1.171,15.705 1.171,15.697 1.171,15.689 C1.163,15.685 1.154,15.681 1.146,15.676 C1.142,15.664 1.137,15.652 1.133,15.639 C1.129,15.639 1.125,15.639 1.121,15.639 C1.116,15.623 1.112,15.607 1.108,15.590 C1.104,15.590 1.100,15.590 1.095,15.590 C1.091,15.578 1.087,15.566 1.083,15.553 C1.075,15.549 1.066,15.545 1.058,15.541 C1.058,15.533 1.058,15.525 1.058,15.516 C1.054,15.516 1.049,15.516 1.045,15.516 C1.045,15.508 1.045,15.500 1.045,15.492 C1.037,15.488 1.028,15.483 1.020,15.479 C1.016,15.463 1.012,15.447 1.007,15.430 C0.999,15.426 0.991,15.422 0.982,15.418 C0.982,15.410 0.982,15.401 0.982,15.393 C0.978,15.393 0.974,15.393 0.970,15.393 C0.970,15.385 0.970,15.377 0.970,15.369 C0.965,15.369 0.961,15.369 0.957,15.369 C0.957,15.360 0.957,15.352 0.957,15.344 C0.953,15.344 0.949,15.344 0.944,15.344 C0.944,15.336 0.944,15.327 0.944,15.319 C0.936,15.315 0.928,15.311 0.919,15.307 C0.919,15.299 0.919,15.291 0.919,15.282 C0.915,15.282 0.911,15.282 0.907,15.282 C0.907,15.274 0.907,15.266 0.907,15.258 C0.902,15.258 0.898,15.258 0.894,15.258 C0.894,15.249 0.894,15.241 0.894,15.233 C0.890,15.233 0.886,15.233 0.881,15.233 C0.881,15.225 0.881,15.217 0.881,15.208 C0.877,15.208 0.873,15.208 0.869,15.208 C0.869,15.200 0.869,15.192 0.869,15.184 C0.865,15.184 0.860,15.184 0.856,15.184 C0.856,15.176 0.856,15.167 0.856,15.159 C0.852,15.159 0.848,15.159 0.844,15.159 C0.835,15.135 0.827,15.110 0.818,15.085 C0.814,15.085 0.810,15.085 0.806,15.085 C0.802,15.065 0.797,15.044 0.793,15.024 C0.789,15.024 0.785,15.024 0.781,15.024 C0.776,15.007 0.772,14.991 0.768,14.974 C0.764,14.974 0.760,14.974 0.756,14.974 C0.756,14.962 0.756,14.950 0.756,14.938 C0.751,14.938 0.747,14.938 0.743,14.938 C0.743,14.929 0.743,14.921 0.743,14.913 C0.739,14.913 0.735,14.913 0.730,14.913 C0.730,14.901 0.730,14.888 0.730,14.876 C0.533,14.446 0.409,13.914 0.403,13.300 C0.936,13.300 1.469,13.300 2.002,13.300 C1.996,13.613 2.056,13.943 2.141,14.174 C2.141,14.190 2.141,14.207 2.141,14.223 C2.145,14.223 2.149,14.223 2.153,14.223 C2.153,14.236 2.153,14.248 2.153,14.260 C2.157,14.260 2.162,14.260 2.166,14.260 C2.166,14.273 2.166,14.285 2.166,14.297 C2.170,14.297 2.174,14.297 2.178,14.297 C2.178,14.309 2.178,14.322 2.178,14.334 C2.183,14.334 2.187,14.334 2.191,14.334 C2.191,14.342 2.191,14.351 2.191,14.359 C2.195,14.359 2.199,14.359 2.204,14.359 C2.204,14.371 2.204,14.383 2.204,14.396 C2.208,14.396 2.212,14.396 2.216,14.396 C2.216,14.404 2.216,14.412 2.216,14.420 C2.220,14.420 2.225,14.420 2.229,14.420 C2.229,14.433 2.229,14.445 2.229,14.457 C2.233,14.457 2.237,14.457 2.241,14.457 C2.246,14.474 2.250,14.490 2.254,14.507 C2.258,14.507 2.262,14.507 2.267,14.507 C2.267,14.519 2.267,14.531 2.267,14.543 C2.271,14.543 2.275,14.543 2.279,14.543 C2.288,14.568 2.296,14.593 2.304,14.617 C2.308,14.617 2.313,14.617 2.317,14.617 C2.317,14.626 2.317,14.634 2.317,14.642 C2.321,14.642 2.325,14.642 2.329,14.642 C2.338,14.667 2.346,14.691 2.355,14.716 C2.363,14.720 2.371,14.724 2.380,14.728 C2.388,14.753 2.397,14.777 2.405,14.802 C2.413,14.806 2.422,14.810 2.430,14.814 C2.430,14.823 2.430,14.831 2.430,14.839 C2.434,14.839 2.439,14.839 2.443,14.839 C2.443,14.847 2.443,14.855 2.443,14.864 C2.447,14.864 2.451,14.864 2.455,14.864 C2.460,14.876 2.464,14.888 2.468,14.901 C2.476,14.905 2.485,14.909 2.493,14.913 C2.493,14.921 2.493,14.929 2.493,14.938 C2.502,14.942 2.510,14.946 2.518,14.950 C2.518,14.958 2.518,14.966 2.518,14.974 C2.531,14.983 2.544,14.991 2.556,14.999 C2.556,15.007 2.556,15.016 2.556,15.024 C2.565,15.028 2.573,15.032 2.581,15.036 C2.581,15.044 2.581,15.052 2.581,15.061 C2.598,15.073 2.615,15.085 2.632,15.098 C2.632,15.106 2.632,15.114 2.632,15.122 C2.653,15.139 2.674,15.155 2.695,15.172 C2.695,15.180 2.695,15.188 2.695,15.196 C2.703,15.200 2.711,15.204 2.720,15.208 C2.749,15.239 2.808,15.290 2.821,15.332 C2.829,15.332 2.837,15.332 2.846,15.332 C2.846,15.340 2.846,15.348 2.846,15.356 C2.888,15.366 2.953,15.438 2.984,15.467 C2.988,15.475 2.993,15.483 2.997,15.492 C3.005,15.492 3.014,15.492 3.022,15.492 C3.039,15.512 3.056,15.533 3.072,15.553 C3.081,15.553 3.089,15.553 3.098,15.553 C3.102,15.561 3.106,15.570 3.110,15.578 C3.114,15.578 3.119,15.578 3.123,15.578 C3.127,15.586 3.131,15.594 3.135,15.603 C3.144,15.603 3.152,15.603 3.161,15.603 C3.169,15.615 3.177,15.627 3.186,15.639 C3.194,15.639 3.203,15.639 3.211,15.639 C3.215,15.648 3.219,15.656 3.224,15.664 C3.232,15.664 3.240,15.664 3.249,15.664 C3.257,15.676 3.265,15.689 3.274,15.701 C3.282,15.701 3.291,15.701 3.299,15.701 C3.303,15.709 3.307,15.717 3.312,15.726 C3.324,15.730 3.337,15.734 3.349,15.738 C3.349,15.742 3.349,15.746 3.349,15.750 C3.366,15.754 3.383,15.758 3.400,15.763 C3.404,15.771 3.408,15.779 3.412,15.787 C3.429,15.791 3.446,15.795 3.463,15.800 C3.467,15.808 3.471,15.816 3.475,15.824 C3.492,15.828 3.509,15.832 3.526,15.836 C3.530,15.845 3.534,15.853 3.538,15.861 C3.547,15.861 3.555,15.861 3.563,15.861 C3.563,15.865 3.563,15.869 3.563,15.873 C3.572,15.873 3.580,15.873 3.589,15.873 C3.589,15.878 3.589,15.882 3.589,15.886 C3.597,15.886 3.605,15.886 3.614,15.886 C3.614,15.890 3.614,15.894 3.614,15.898 C3.622,15.898 3.631,15.898 3.639,15.898 C3.639,15.902 3.639,15.906 3.639,15.910 C3.647,15.910 3.656,15.910 3.664,15.910 C3.664,15.914 3.664,15.919 3.664,15.923 C3.673,15.923 3.681,15.923 3.689,15.923 C3.689,15.927 3.689,15.931 3.689,15.935 C3.698,15.935 3.706,15.935 3.715,15.935 C3.715,15.939 3.715,15.943 3.715,15.947 C3.723,15.947 3.731,15.947 3.740,15.947 C3.740,15.951 3.740,15.956 3.740,15.960 C3.748,15.960 3.757,15.960 3.765,15.960 C3.765,15.964 3.765,15.968 3.765,15.972 C3.790,15.980 3.815,15.988 3.841,15.997 C3.841,16.001 3.841,16.005 3.841,16.009 C3.853,16.009 3.866,16.009 3.878,16.009 C3.878,16.013 3.878,16.017 3.878,16.021 C3.895,16.025 3.912,16.029 3.929,16.034 C3.929,16.038 3.929,16.042 3.929,16.046 C3.941,16.046 3.954,16.046 3.966,16.046 C3.966,16.050 3.966,16.054 3.966,16.058 C3.975,16.058 3.983,16.058 3.992,16.058 C3.992,16.062 3.992,16.066 3.992,16.070 C4.004,16.070 4.017,16.070 4.029,16.070 C4.029,16.075 4.029,16.079 4.029,16.083 C4.038,16.083 4.046,16.083 4.055,16.083 C4.055,16.087 4.055,16.091 4.055,16.095 C4.092,16.103 4.130,16.112 4.168,16.120 C4.168,16.124 4.168,16.128 4.168,16.132 C4.180,16.132 4.193,16.132 4.206,16.132 C4.206,16.136 4.206,16.140 4.206,16.144 C4.218,16.144 4.231,16.144 4.243,16.144 C4.243,16.148 4.243,16.153 4.243,16.157 C4.256,16.157 4.269,16.157 4.281,16.157 C4.281,16.161 4.281,16.165 4.281,16.169 C4.294,16.169 4.306,16.169 4.319,16.169 C4.319,16.173 4.319,16.177 4.319,16.181 C4.332,16.181 4.344,16.181 4.357,16.181 C4.357,16.185 4.357,16.190 4.357,16.194 C4.369,16.194 4.382,16.194 4.395,16.194 C4.395,16.198 4.395,16.202 4.395,16.206 C4.428,16.210 4.462,16.214 4.495,16.218 C4.495,16.222 4.495,16.226 4.495,16.231 C4.508,16.231 4.520,16.231 4.533,16.231 C4.533,16.235 4.533,16.239 4.533,16.243 C4.550,16.243 4.567,16.243 4.583,16.243 C4.583,16.247 4.583,16.251 4.583,16.255 C4.600,16.255 4.617,16.255 4.634,16.255 C4.634,16.259 4.634,16.263 4.634,16.267 C4.672,16.272 4.709,16.276 4.747,16.280 C4.747,16.284 4.747,16.288 4.747,16.292 C4.961,16.325 5.175,16.358 5.389,16.391 C5.431,16.391 5.473,16.391 5.515,16.391 C5.515,16.395 5.515,16.399 5.515,16.403 C5.570,16.403 5.624,16.403 5.679,16.403 C5.679,16.407 5.679,16.411 5.679,16.415 C5.767,16.415 5.855,16.415 5.943,16.415 C6.043,16.442 6.347,16.443 6.447,16.415 C6.523,16.415 6.598,16.415 6.674,16.415 C6.698,16.413 6.699,16.403 6.699,16.403 C6.753,16.403 6.808,16.403 6.863,16.403 C6.863,16.399 6.863,16.395 6.863,16.391 C6.905,16.391 6.946,16.391 6.988,16.391 C6.988,16.387 6.988,16.382 6.988,16.378 C7.026,16.378 7.064,16.378 7.102,16.378 C7.197,16.351 7.324,16.344 7.417,16.317 C7.442,16.317 7.467,16.317 7.492,16.317 C7.492,16.313 7.492,16.309 7.492,16.304 C7.509,16.304 7.526,16.304 7.542,16.304 C7.542,16.300 7.542,16.296 7.542,16.292 C7.580,16.288 7.618,16.284 7.656,16.280 C7.656,16.276 7.656,16.272 7.656,16.267 C7.694,16.263 7.731,16.259 7.769,16.255 C7.769,16.251 7.769,16.247 7.769,16.243 C7.815,16.235 7.861,16.226 7.908,16.218 C7.908,16.214 7.908,16.210 7.908,16.206 C7.920,16.206 7.933,16.206 7.945,16.206 C7.945,16.202 7.945,16.198 7.945,16.194 C7.958,16.194 7.971,16.194 7.983,16.194 C7.983,16.190 7.983,16.185 7.983,16.181 C7.996,16.181 8.008,16.181 8.021,16.181 C8.021,16.177 8.021,16.173 8.021,16.169 C8.034,16.169 8.046,16.169 8.059,16.169 C8.059,16.165 8.059,16.161 8.059,16.157 C8.071,16.157 8.084,16.157 8.097,16.157 C8.097,16.153 8.097,16.148 8.097,16.144 C8.109,16.144 8.122,16.144 8.134,16.144 C8.134,16.140 8.134,16.136 8.134,16.132 C8.172,16.124 8.210,16.116 8.248,16.107 C8.248,16.103 8.248,16.099 8.248,16.095 C8.256,16.095 8.264,16.095 8.273,16.095 C8.273,16.091 8.273,16.087 8.273,16.083 C8.285,16.083 8.298,16.083 8.311,16.083 C8.311,16.079 8.311,16.075 8.311,16.070 C8.327,16.066 8.344,16.062 8.361,16.058 C8.361,16.054 8.361,16.050 8.361,16.046 C8.374,16.046 8.386,16.046 8.399,16.046 C8.399,16.042 8.399,16.038 8.399,16.034 C8.407,16.034 8.416,16.034 8.424,16.034 C8.424,16.029 8.424,16.025 8.424,16.021 C8.445,16.017 8.466,16.013 8.487,16.009 C8.487,16.005 8.487,16.001 8.487,15.997 C8.512,15.988 8.537,15.980 8.562,15.972 C8.562,15.968 8.562,15.964 8.562,15.960 C8.571,15.960 8.579,15.960 8.588,15.960 C8.588,15.956 8.588,15.951 8.588,15.947 C8.596,15.947 8.604,15.947 8.613,15.947 C8.613,15.943 8.613,15.939 8.613,15.935 C8.621,15.935 8.630,15.935 8.638,15.935 C8.638,15.931 8.638,15.927 8.638,15.923 C8.646,15.923 8.655,15.923 8.663,15.923 C8.663,15.919 8.663,15.914 8.663,15.910 C8.672,15.910 8.680,15.910 8.688,15.910 C8.688,15.906 8.688,15.902 8.688,15.898 C8.697,15.898 8.705,15.898 8.714,15.898 C8.718,15.890 8.722,15.882 8.726,15.873 C8.751,15.865 8.776,15.857 8.802,15.849 C8.806,15.841 8.810,15.832 8.814,15.824 C8.831,15.820 8.848,15.816 8.865,15.812 C8.865,15.808 8.865,15.804 8.865,15.800 C8.877,15.795 8.890,15.791 8.902,15.787 C8.907,15.779 8.911,15.771 8.915,15.763 C8.932,15.758 8.949,15.754 8.965,15.750 C8.970,15.742 8.974,15.734 8.978,15.726 C8.986,15.726 8.995,15.726 9.003,15.726 C9.012,15.713 9.020,15.701 9.028,15.689 C9.037,15.689 9.045,15.689 9.054,15.689 C9.058,15.681 9.062,15.672 9.066,15.664 C9.075,15.664 9.083,15.664 9.091,15.664 C9.100,15.652 9.108,15.639 9.116,15.627 C9.125,15.627 9.133,15.627 9.142,15.627 C9.154,15.611 9.167,15.594 9.179,15.578 C9.188,15.578 9.196,15.578 9.205,15.578 C9.217,15.561 9.230,15.545 9.242,15.529 C9.251,15.529 9.259,15.529 9.268,15.529 C9.293,15.500 9.318,15.471 9.343,15.442 C9.352,15.442 9.360,15.442 9.368,15.442 C9.389,15.418 9.410,15.393 9.431,15.369 C9.473,15.332 9.515,15.295 9.557,15.258 C9.557,15.249 9.557,15.241 9.557,15.233 C9.587,15.208 9.616,15.184 9.645,15.159 C9.645,15.151 9.645,15.143 9.645,15.135 C9.662,15.122 9.679,15.110 9.696,15.098 C9.696,15.089 9.696,15.081 9.696,15.073 C9.708,15.065 9.721,15.057 9.733,15.048 C9.733,15.040 9.733,15.032 9.733,15.024 C9.746,15.016 9.759,15.007 9.771,14.999 C9.771,14.991 9.771,14.983 9.771,14.974 C9.784,14.966 9.796,14.958 9.809,14.950 C9.809,14.942 9.809,14.933 9.809,14.925 C9.817,14.921 9.826,14.917 9.834,14.913 C9.834,14.905 9.834,14.896 9.834,14.888 C9.843,14.884 9.851,14.880 9.859,14.876 C9.864,14.864 9.868,14.851 9.872,14.839 C9.876,14.839 9.880,14.839 9.885,14.839 C9.889,14.823 9.893,14.806 9.897,14.790 C9.906,14.786 9.914,14.782 9.922,14.777 C9.931,14.753 9.939,14.728 9.948,14.704 C9.956,14.699 9.964,14.695 9.973,14.691 C9.973,14.683 9.973,14.675 9.973,14.667 C9.977,14.667 9.981,14.667 9.985,14.667 C9.985,14.658 9.985,14.650 9.985,14.642 C9.990,14.642 9.994,14.642 9.998,14.642 C9.998,14.634 9.998,14.626 9.998,14.617 C10.002,14.617 10.006,14.617 10.010,14.617 C10.010,14.609 10.010,14.601 10.010,14.593 C10.015,14.593 10.019,14.593 10.023,14.593 C10.023,14.585 10.023,14.576 10.023,14.568 C10.027,14.568 10.031,14.568 10.036,14.568 C10.036,14.560 10.036,14.552 10.036,14.543 C10.040,14.543 10.044,14.543 10.048,14.543 C10.048,14.535 10.048,14.527 10.048,14.519 C10.052,14.519 10.057,14.519 10.061,14.519 C10.069,14.494 10.078,14.470 10.086,14.445 C10.090,14.445 10.094,14.445 10.099,14.445 C10.099,14.433 10.099,14.420 10.099,14.408 C10.103,14.408 10.107,14.408 10.111,14.408 C10.115,14.392 10.120,14.375 10.124,14.359 C10.128,14.359 10.132,14.359 10.136,14.359 C10.187,14.207 10.237,14.055 10.288,13.903 C10.288,13.883 10.288,13.862 10.288,13.842 C10.292,13.842 10.296,13.842 10.300,13.842 C10.300,13.825 10.300,13.809 10.300,13.792 C10.304,13.792 10.308,13.792 10.313,13.792 C10.313,13.772 10.313,13.751 10.313,13.731 C10.317,13.731 10.321,13.731 10.325,13.731 C10.325,13.710 10.325,13.690 10.325,13.669 C10.329,13.669 10.334,13.669 10.338,13.669 C10.338,13.645 10.338,13.620 10.338,13.595 C10.342,13.595 10.346,13.595 10.350,13.595 C10.350,13.567 10.350,13.538 10.350,13.509 C10.355,13.509 10.359,13.509 10.363,13.509 C10.363,13.480 10.363,13.452 10.363,13.423 C10.367,13.423 10.371,13.423 10.376,13.423 C10.376,13.382 10.376,13.341 10.376,13.300 C10.380,13.300 10.384,13.300 10.388,13.300 C10.388,13.234 10.388,13.168 10.388,13.103 C10.392,13.103 10.397,13.103 10.401,13.103 C10.401,12.877 10.401,12.651 10.401,12.425 C10.401,11.945 10.401,11.465 10.401,10.985 C10.397,10.985 10.392,10.985 10.388,10.985 C10.353,11.044 10.298,11.097 10.250,11.145 C10.237,11.153 10.225,11.161 10.212,11.169 C10.212,11.177 10.212,11.186 10.212,11.194 C10.187,11.214 10.162,11.235 10.136,11.255 C10.099,11.297 10.061,11.338 10.023,11.379 C10.015,11.379 10.006,11.379 9.998,11.379 C9.956,11.424 9.914,11.469 9.872,11.514 C9.864,11.514 9.855,11.514 9.847,11.514 C9.822,11.543 9.796,11.572 9.771,11.600 C9.763,11.600 9.754,11.600 9.746,11.600 C9.733,11.617 9.721,11.633 9.708,11.650 C9.700,11.650 9.691,11.650 9.683,11.650 C9.671,11.666 9.658,11.682 9.645,11.699 C9.637,11.699 9.629,11.699 9.620,11.699 C9.608,11.715 9.595,11.732 9.582,11.748 C9.574,11.748 9.566,11.748 9.557,11.748 C9.549,11.760 9.540,11.773 9.532,11.785 C9.524,11.785 9.515,11.785 9.507,11.785 C9.498,11.797 9.490,11.810 9.482,11.822 C9.473,11.822 9.465,11.822 9.456,11.822 C9.448,11.834 9.440,11.847 9.431,11.859 C9.423,11.859 9.414,11.859 9.406,11.859 C9.402,11.867 9.398,11.875 9.393,11.884 C9.385,11.884 9.377,11.884 9.368,11.884 C9.360,11.896 9.352,11.908 9.343,11.920 C9.335,11.920 9.326,11.920 9.318,11.920 C9.314,11.929 9.310,11.937 9.305,11.945 C9.297,11.945 9.289,11.945 9.280,11.945 C9.276,11.953 9.272,11.962 9.268,11.970 C9.259,11.970 9.251,11.970 9.242,11.970 C9.238,11.978 9.234,11.986 9.230,11.994 C9.221,11.994 9.213,11.994 9.205,11.994 C9.200,12.003 9.196,12.011 9.192,12.019 C9.175,12.023 9.158,12.027 9.142,12.031 C9.142,12.035 9.142,12.040 9.142,12.044 C9.129,12.048 9.116,12.052 9.104,12.056 C9.100,12.064 9.095,12.072 9.091,12.081 C9.075,12.085 9.058,12.089 9.041,12.093 C9.037,12.101 9.033,12.109 9.028,12.118 C9.012,12.122 8.995,12.126 8.978,12.130 C8.974,12.138 8.970,12.146 8.965,12.154 C8.940,12.163 8.915,12.171 8.890,12.179 C8.886,12.187 8.881,12.195 8.877,12.204 C8.810,12.232 8.743,12.261 8.676,12.290 C8.676,12.294 8.676,12.298 8.676,12.302 C8.659,12.306 8.642,12.310 8.625,12.315 C8.625,12.319 8.625,12.323 8.625,12.327 C8.617,12.327 8.609,12.327 8.600,12.327 C8.600,12.331 8.600,12.335 8.600,12.339 C8.592,12.339 8.583,12.339 8.575,12.339 C8.575,12.343 8.575,12.347 8.575,12.351 C8.567,12.351 8.558,12.351 8.550,12.351 C8.550,12.356 8.550,12.360 8.550,12.364 C8.541,12.364 8.533,12.364 8.525,12.364 C8.525,12.368 8.525,12.372 8.525,12.376 C8.508,12.380 8.491,12.384 8.474,12.388 C8.474,12.393 8.474,12.397 8.474,12.401 C8.466,12.401 8.458,12.401 8.449,12.401 C8.449,12.405 8.449,12.409 8.449,12.413 C8.437,12.413 8.424,12.413 8.411,12.413 C8.411,12.417 8.411,12.421 8.411,12.425 C8.395,12.429 8.378,12.434 8.361,12.438 C8.361,12.442 8.361,12.446 8.361,12.450 C8.348,12.450 8.336,12.450 8.323,12.450 C8.323,12.454 8.323,12.458 8.323,12.462 C8.306,12.466 8.290,12.471 8.273,12.475 C8.273,12.479 8.273,12.483 8.273,12.487 C8.260,12.487 8.248,12.487 8.235,12.487 C8.235,12.491 8.235,12.495 8.235,12.499 C8.227,12.499 8.218,12.499 8.210,12.499 C8.210,12.503 8.210,12.507 8.210,12.512 C8.185,12.516 8.159,12.520 8.134,12.524 C8.134,12.528 8.134,12.532 8.134,12.536 C8.126,12.536 8.118,12.536 8.109,12.536 C8.109,12.540 8.109,12.544 8.109,12.549 C8.084,12.553 8.059,12.557 8.034,12.561 C8.034,12.565 8.034,12.569 8.034,12.573 C8.025,12.573 8.017,12.573 8.008,12.573 C8.008,12.577 8.008,12.581 8.008,12.585 C7.996,12.585 7.983,12.585 7.971,12.585 C7.971,12.590 7.971,12.594 7.971,12.598 C7.958,12.598 7.945,12.598 7.933,12.598 C7.933,12.602 7.933,12.606 7.933,12.610 C7.920,12.610 7.908,12.610 7.895,12.610 C7.895,12.614 7.895,12.618 7.895,12.622 C7.882,12.622 7.870,12.622 7.857,12.622 C7.857,12.627 7.857,12.631 7.857,12.635 C7.841,12.635 7.824,12.635 7.807,12.635 C7.807,12.639 7.807,12.643 7.807,12.647 C7.794,12.647 7.782,12.647 7.769,12.647 C7.769,12.651 7.769,12.655 7.769,12.659 C7.757,12.659 7.744,12.659 7.731,12.659 C7.731,12.663 7.731,12.668 7.731,12.672 C7.702,12.676 7.673,12.680 7.643,12.684 C7.643,12.688 7.643,12.692 7.643,12.696 C7.614,12.700 7.584,12.704 7.555,12.709 C7.555,12.713 7.555,12.717 7.555,12.721 C7.501,12.729 7.446,12.737 7.391,12.746 C7.391,12.750 7.391,12.754 7.391,12.758 C7.375,12.758 7.358,12.758 7.341,12.758 C7.341,12.762 7.341,12.766 7.341,12.770 C7.324,12.770 7.307,12.770 7.291,12.770 C7.291,12.774 7.291,12.778 7.291,12.782 C7.270,12.782 7.249,12.782 7.228,12.782 C7.228,12.787 7.228,12.791 7.228,12.795 C7.207,12.795 7.186,12.795 7.165,12.795 C7.165,12.799 7.165,12.803 7.165,12.807 C7.140,12.807 7.114,12.807 7.089,12.807 C7.089,12.811 7.089,12.815 7.089,12.819 C7.039,12.824 6.988,12.828 6.938,12.832 C6.938,12.836 6.938,12.840 6.938,12.844 C6.909,12.844 6.879,12.844 6.850,12.844 C6.850,12.848 6.850,12.852 6.850,12.856 C6.816,12.856 6.783,12.856 6.749,12.856 C6.749,12.860 6.749,12.865 6.749,12.869 C6.669,12.873 6.590,12.877 6.510,12.881 C6.510,12.885 6.510,12.889 6.510,12.893 C6.443,12.893 6.376,12.893 6.308,12.893 C6.209,12.920 5.790,12.921 5.692,12.893 C5.650,12.893 5.608,12.893 5.566,12.893 C5.498,12.889 5.431,12.885 5.364,12.881 C5.364,12.877 5.364,12.873 5.364,12.869 C5.238,12.856 5.112,12.844 4.986,12.832 C4.906,12.808 4.800,12.794 4.722,12.770 C4.701,12.770 4.680,12.770 4.659,12.770 C4.456,12.705 4.228,12.664 4.042,12.585 C4.029,12.585 4.017,12.585 4.004,12.585 C4.004,12.581 4.004,12.577 4.004,12.573 C3.992,12.573 3.979,12.573 3.966,12.573 C3.966,12.569 3.966,12.565 3.966,12.561 C3.954,12.561 3.941,12.561 3.929,12.561 C3.929,12.557 3.929,12.553 3.929,12.549 C3.916,12.549 3.903,12.549 3.891,12.549 C3.891,12.544 3.891,12.540 3.891,12.536 C3.882,12.536 3.874,12.536 3.866,12.536 C3.866,12.532 3.866,12.528 3.866,12.524 C3.790,12.499 3.715,12.475 3.639,12.450 C3.639,12.446 3.639,12.442 3.639,12.438 C3.622,12.434 3.605,12.429 3.589,12.425 C3.589,12.421 3.589,12.417 3.589,12.413 C3.580,12.413 3.572,12.413 3.563,12.413 C3.563,12.409 3.563,12.405 3.563,12.401 C3.551,12.401 3.538,12.401 3.526,12.401 C3.526,12.397 3.526,12.393 3.526,12.388 C3.517,12.388 3.509,12.388 3.501,12.388 C3.501,12.384 3.501,12.380 3.501,12.376 C3.484,12.372 3.467,12.368 3.450,12.364 C3.450,12.360 3.450,12.356 3.450,12.351 C3.442,12.351 3.433,12.351 3.425,12.351 C3.425,12.347 3.425,12.343 3.425,12.339 C3.417,12.339 3.408,12.339 3.400,12.339 C3.400,12.335 3.400,12.331 3.400,12.327 C3.391,12.327 3.383,12.327 3.375,12.327 C3.375,12.323 3.375,12.319 3.375,12.315 C3.366,12.315 3.358,12.315 3.349,12.315 C3.349,12.310 3.349,12.306 3.349,12.302 C3.341,12.302 3.333,12.302 3.324,12.302 C3.324,12.298 3.324,12.294 3.324,12.290 C3.316,12.290 3.307,12.290 3.299,12.290 C3.299,12.286 3.299,12.282 3.299,12.278 C3.291,12.278 3.282,12.278 3.274,12.278 C3.274,12.273 3.274,12.269 3.274,12.265 C3.265,12.265 3.257,12.265 3.249,12.265 C3.249,12.261 3.249,12.257 3.249,12.253 C3.240,12.253 3.232,12.253 3.224,12.253 C3.224,12.249 3.224,12.245 3.224,12.241 C3.215,12.241 3.207,12.241 3.198,12.241 C3.198,12.237 3.198,12.232 3.198,12.228 C3.190,12.228 3.182,12.228 3.173,12.228 C3.169,12.220 3.165,12.212 3.161,12.204 C3.152,12.204 3.144,12.204 3.135,12.204 C3.135,12.200 3.135,12.195 3.135,12.191 C3.127,12.191 3.119,12.191 3.110,12.191 C3.110,12.187 3.110,12.183 3.110,12.179 C3.102,12.179 3.093,12.179 3.085,12.179 C3.085,12.175 3.085,12.171 3.085,12.167 C3.077,12.167 3.068,12.167 3.060,12.167 C3.056,12.159 3.051,12.150 3.047,12.142 C3.039,12.142 3.030,12.142 3.022,12.142 C3.022,12.138 3.022,12.134 3.022,12.130 C3.014,12.130 3.005,12.130 2.997,12.130 C2.993,12.122 2.988,12.113 2.984,12.105 C2.967,12.101 2.951,12.097 2.934,12.093 C2.930,12.085 2.925,12.076 2.921,12.068 C2.913,12.068 2.905,12.068 2.896,12.068 C2.896,12.064 2.896,12.060 2.896,12.056 C2.888,12.056 2.879,12.056 2.871,12.056 C2.867,12.048 2.863,12.040 2.858,12.031 C2.850,12.031 2.842,12.031 2.833,12.031 C2.833,12.027 2.833,12.023 2.833,12.019 C2.821,12.015 2.808,12.011 2.795,12.007 C2.791,11.998 2.787,11.990 2.783,11.982 C2.774,11.982 2.766,11.982 2.758,11.982 C2.753,11.974 2.749,11.966 2.745,11.957 C2.737,11.957 2.728,11.957 2.720,11.957 C2.716,11.949 2.711,11.941 2.707,11.933 C2.699,11.933 2.690,11.933 2.682,11.933 C2.682,11.929 2.682,11.925 2.682,11.920 C2.669,11.916 2.657,11.912 2.644,11.908 C2.640,11.900 2.636,11.892 2.632,11.884 C2.623,11.884 2.615,11.884 2.607,11.884 C2.598,11.871 2.590,11.859 2.581,11.847 C2.573,11.847 2.565,11.847 2.556,11.847 C2.552,11.838 2.548,11.830 2.544,11.822 C2.535,11.822 2.527,11.822 2.518,11.822 C2.514,11.814 2.510,11.806 2.506,11.797 C2.493,11.793 2.481,11.789 2.468,11.785 C2.455,11.769 2.443,11.752 2.430,11.736 C2.422,11.736 2.413,11.736 2.405,11.736 C2.397,11.723 2.388,11.711 2.380,11.699 C2.371,11.699 2.363,11.699 2.355,11.699 C2.338,11.678 2.321,11.658 2.304,11.637 C2.296,11.637 2.288,11.637 2.279,11.637 C2.262,11.617 2.246,11.596 2.229,11.576 C2.220,11.576 2.212,11.576 2.204,11.576 C2.183,11.551 2.162,11.526 2.141,11.502 C2.132,11.502 2.124,11.502 2.115,11.502 C2.065,11.448 2.015,11.395 1.964,11.342 C1.947,11.325 1.901,11.307 1.889,11.292 C1.889,11.284 1.889,11.276 1.889,11.268 C1.880,11.264 1.872,11.260 1.864,11.255 C1.864,11.251 1.864,11.247 1.864,11.243 C1.801,11.186 1.738,11.128 1.675,11.071 C1.675,11.063 1.675,11.054 1.675,11.046 C1.645,11.022 1.616,10.997 1.587,10.972 C1.587,10.964 1.587,10.956 1.587,10.948 C1.566,10.931 1.545,10.915 1.524,10.898 C1.524,10.890 1.524,10.882 1.524,10.874 C1.507,10.861 1.490,10.849 1.473,10.837 C1.473,10.829 1.473,10.820 1.473,10.812 C1.456,10.800 1.440,10.788 1.423,10.775 C1.423,10.767 1.423,10.759 1.423,10.751 C1.414,10.746 1.406,10.742 1.398,10.738 C1.393,10.726 1.389,10.714 1.385,10.701 C1.368,10.689 1.352,10.677 1.335,10.664 C1.335,10.656 1.335,10.648 1.335,10.640 C1.326,10.636 1.318,10.632 1.310,10.627 C1.310,10.619 1.310,10.611 1.310,10.603 C1.297,10.595 1.284,10.586 1.272,10.578 C1.272,10.570 1.272,10.562 1.272,10.554 C1.263,10.549 1.255,10.545 1.247,10.541 C1.247,10.533 1.247,10.525 1.247,10.517 C1.234,10.508 1.221,10.500 1.209,10.492 C1.209,10.484 1.209,10.476 1.209,10.467 C1.200,10.463 1.192,10.459 1.184,10.455 C1.179,10.443 1.175,10.430 1.171,10.418 C1.167,10.418 1.163,10.418 1.158,10.418 C1.158,10.410 1.158,10.402 1.158,10.393 C1.150,10.389 1.142,10.385 1.133,10.381 C1.133,10.373 1.133,10.365 1.133,10.357 C1.125,10.352 1.116,10.348 1.108,10.344 C1.108,10.336 1.108,10.328 1.108,10.320 C1.100,10.315 1.091,10.311 1.083,10.307 C1.079,10.291 1.075,10.274 1.070,10.258 C1.066,10.258 1.062,10.258 1.058,10.258 C1.054,10.246 1.049,10.233 1.045,10.221 C1.037,10.217 1.028,10.213 1.020,10.209 C1.020,10.201 1.020,10.192 1.020,10.184 C1.016,10.184 1.012,10.184 1.007,10.184 C1.007,10.176 1.007,10.168 1.007,10.159 C0.999,10.155 0.991,10.151 0.982,10.147 C0.974,10.123 0.965,10.098 0.957,10.073 C0.949,10.069 0.940,10.065 0.932,10.061 C0.928,10.045 0.923,10.028 0.919,10.012 C0.915,10.012 0.911,10.012 0.907,10.012 C0.907,10.004 0.907,9.995 0.907,9.987 C0.898,9.983 0.890,9.979 0.881,9.975 C0.881,9.967 0.881,9.958 0.881,9.950 C0.877,9.950 0.873,9.950 0.869,9.950 C0.869,9.942 0.869,9.934 0.869,9.926 C0.865,9.926 0.860,9.926 0.856,9.926 C0.856,9.917 0.856,9.909 0.856,9.901 C0.852,9.901 0.848,9.901 0.844,9.901 C0.844,9.893 0.844,9.884 0.844,9.876 C0.839,9.876 0.835,9.876 0.831,9.876 C0.827,9.860 0.823,9.843 0.818,9.827 C0.810,9.823 0.802,9.819 0.793,9.815 C0.785,9.790 0.776,9.765 0.768,9.741 C0.764,9.741 0.760,9.741 0.756,9.741 C0.756,9.733 0.756,9.724 0.756,9.716 C0.751,9.716 0.747,9.716 0.743,9.716 C0.735,9.692 0.726,9.667 0.718,9.642 C0.714,9.642 0.709,9.642 0.705,9.642 C0.705,9.630 0.705,9.618 0.705,9.605 C0.701,9.605 0.697,9.605 0.693,9.605 C0.693,9.597 0.693,9.589 0.693,9.581 C0.688,9.581 0.684,9.581 0.680,9.581 C0.680,9.572 0.680,9.564 0.680,9.556 C0.676,9.556 0.672,9.556 0.667,9.556 C0.659,9.531 0.651,9.507 0.642,9.482 C0.638,9.482 0.634,9.482 0.630,9.482 C0.630,9.470 0.630,9.458 0.630,9.445 C0.625,9.445 0.621,9.445 0.617,9.445 C0.613,9.429 0.609,9.412 0.604,9.396 C0.600,9.396 0.596,9.396 0.592,9.396 C0.592,9.384 0.592,9.371 0.592,9.359 C0.588,9.359 0.583,9.359 0.579,9.359 C0.575,9.343 0.571,9.326 0.567,9.310 C0.562,9.310 0.558,9.310 0.554,9.310 C0.554,9.297 0.554,9.285 0.554,9.273 C0.550,9.273 0.546,9.273 0.541,9.273 C0.541,9.265 0.541,9.256 0.541,9.248 C0.537,9.248 0.533,9.248 0.529,9.248 C0.525,9.228 0.520,9.207 0.516,9.187 C0.512,9.187 0.508,9.187 0.504,9.187 C0.499,9.162 0.495,9.137 0.491,9.113 C0.487,9.113 0.483,9.113 0.478,9.113 C0.478,9.105 0.478,9.096 0.478,9.088 C0.474,9.088 0.470,9.088 0.466,9.088 C0.458,9.051 0.449,9.014 0.441,8.977 C0.437,8.977 0.432,8.977 0.428,8.977 C0.428,8.969 0.428,8.961 0.428,8.953 C0.424,8.953 0.420,8.953 0.416,8.953 C0.344,8.711 0.273,8.468 0.201,8.226 C0.201,8.206 0.201,8.185 0.201,8.165 C0.173,8.077 0.154,7.958 0.126,7.869 C0.126,7.844 0.126,7.820 0.126,7.795 C0.086,7.663 0.091,7.488 0.050,7.352 C0.050,7.315 0.050,7.278 0.050,7.241 C0.046,7.241 0.042,7.241 0.038,7.241 C0.038,7.192 0.038,7.142 0.038,7.093 C0.034,7.093 0.029,7.093 0.025,7.093 C0.021,6.941 0.017,6.789 0.013,6.638 C0.008,6.560 0.004,6.482 -0.000,6.404 C0.019,6.339 0.013,6.229 0.013,6.145 C0.021,5.989 0.029,5.833 0.038,5.677 C0.042,5.677 0.046,5.677 0.050,5.677 C0.050,5.636 0.050,5.595 0.050,5.554 C0.090,5.422 0.087,5.251 0.126,5.123 C0.126,5.098 0.126,5.074 0.126,5.049 C0.149,4.976 0.165,4.876 0.189,4.803 C0.189,4.782 0.189,4.762 0.189,4.741 C0.193,4.741 0.197,4.741 0.201,4.741 C0.201,4.725 0.201,4.708 0.201,4.692 C0.206,4.692 0.210,4.692 0.214,4.692 C0.214,4.675 0.214,4.659 0.214,4.643 C0.218,4.643 0.222,4.643 0.227,4.643 C0.227,4.626 0.227,4.610 0.227,4.593 C0.231,4.593 0.235,4.593 0.239,4.593 C0.239,4.577 0.239,4.560 0.239,4.544 C0.243,4.544 0.248,4.544 0.252,4.544 C0.260,4.495 0.269,4.446 0.277,4.396 C0.281,4.396 0.285,4.396 0.290,4.396 C0.294,4.368 0.298,4.339 0.302,4.310 C0.306,4.310 0.311,4.310 0.315,4.310 C0.323,4.269 0.332,4.228 0.340,4.187 C0.344,4.187 0.348,4.187 0.353,4.187 C0.353,4.175 0.353,4.162 0.353,4.150 C0.357,4.150 0.361,4.150 0.365,4.150 C0.365,4.138 0.365,4.125 0.365,4.113 C0.369,4.113 0.374,4.113 0.378,4.113 C0.378,4.101 0.378,4.088 0.378,4.076 C0.382,4.076 0.386,4.076 0.390,4.076 C0.390,4.064 0.390,4.051 0.390,4.039 C0.395,4.039 0.399,4.039 0.403,4.039 C0.403,4.027 0.403,4.015 0.403,4.002 C0.407,4.002 0.411,4.002 0.416,4.002 C0.416,3.990 0.416,3.978 0.416,3.965 C0.420,3.965 0.424,3.965 0.428,3.965 C0.428,3.953 0.428,3.941 0.428,3.928 C0.432,3.928 0.437,3.928 0.441,3.928 C0.441,3.916 0.441,3.904 0.441,3.891 C0.445,3.891 0.449,3.891 0.453,3.891 C0.453,3.883 0.453,3.875 0.453,3.867 C0.458,3.867 0.462,3.867 0.466,3.867 C0.470,3.842 0.474,3.818 0.478,3.793 C0.483,3.793 0.487,3.793 0.491,3.793 C0.491,3.785 0.491,3.776 0.491,3.768 C0.495,3.768 0.499,3.768 0.504,3.768 C0.508,3.744 0.512,3.719 0.516,3.694 C0.520,3.694 0.525,3.694 0.529,3.694 C0.533,3.678 0.537,3.662 0.541,3.645 C0.546,3.645 0.550,3.645 0.554,3.645 C0.554,3.633 0.554,3.620 0.554,3.608 C0.558,3.608 0.562,3.608 0.567,3.608 C0.567,3.600 0.567,3.592 0.567,3.584 C0.571,3.584 0.575,3.584 0.579,3.584 C0.579,3.571 0.579,3.559 0.579,3.547 C0.583,3.547 0.588,3.547 0.592,3.547 C0.596,3.530 0.600,3.514 0.604,3.497 C0.609,3.497 0.613,3.497 0.617,3.497 C0.617,3.485 0.617,3.473 0.617,3.460 C0.621,3.460 0.625,3.460 0.630,3.460 C0.634,3.444 0.638,3.428 0.642,3.411 C0.646,3.411 0.651,3.411 0.655,3.411 C0.655,3.403 0.655,3.395 0.655,3.386 C0.659,3.386 0.663,3.386 0.667,3.386 C0.667,3.374 0.667,3.362 0.667,3.350 C0.672,3.350 0.676,3.350 0.680,3.350 C0.680,3.341 0.680,3.333 0.680,3.325 C0.684,3.325 0.688,3.325 0.693,3.325 C0.697,3.309 0.701,3.292 0.705,3.276 C0.709,3.276 0.714,3.276 0.718,3.276 C0.718,3.267 0.718,3.259 0.718,3.251 C0.722,3.251 0.726,3.251 0.730,3.251 C0.730,3.243 0.730,3.235 0.730,3.226 C0.735,3.226 0.739,3.226 0.743,3.226 C0.743,3.218 0.743,3.210 0.743,3.202 C0.747,3.202 0.751,3.202 0.756,3.202 C0.756,3.194 0.756,3.185 0.756,3.177 C0.760,3.177 0.764,3.177 0.768,3.177 C0.768,3.169 0.768,3.161 0.768,3.153 C0.772,3.153 0.776,3.153 0.781,3.153 C0.781,3.144 0.781,3.136 0.781,3.128 C0.785,3.128 0.789,3.128 0.793,3.128 C0.793,3.120 0.793,3.111 0.793,3.103 C0.797,3.103 0.802,3.103 0.806,3.103 C0.806,3.095 0.806,3.087 0.806,3.079 C0.810,3.079 0.814,3.079 0.818,3.079 C0.818,3.070 0.818,3.062 0.818,3.054 C0.823,3.054 0.827,3.054 0.831,3.054 C0.831,3.046 0.831,3.038 0.831,3.029 C0.835,3.029 0.839,3.029 0.844,3.029 C0.844,3.021 0.844,3.013 0.844,3.005 C0.852,3.001 0.860,2.997 0.869,2.992 C0.869,2.984 0.869,2.976 0.869,2.968 C0.873,2.968 0.877,2.968 0.881,2.968 C0.881,2.960 0.881,2.951 0.881,2.943 C0.886,2.943 0.890,2.943 0.894,2.943 C0.894,2.935 0.894,2.927 0.894,2.919 C0.898,2.919 0.902,2.919 0.907,2.919 C0.907,2.910 0.907,2.902 0.907,2.894 C0.915,2.890 0.923,2.886 0.932,2.882 C0.940,2.857 0.949,2.832 0.957,2.808 C0.965,2.804 0.974,2.800 0.982,2.795 C0.986,2.779 0.991,2.763 0.995,2.746 C1.003,2.742 1.012,2.738 1.020,2.734 C1.024,2.717 1.028,2.701 1.033,2.685 C1.037,2.685 1.041,2.685 1.045,2.685 C1.049,2.672 1.054,2.660 1.058,2.648 C1.066,2.644 1.075,2.639 1.083,2.635 C1.087,2.619 1.091,2.602 1.095,2.586 C1.100,2.586 1.104,2.586 1.108,2.586 C1.112,2.574 1.116,2.561 1.121,2.549 C1.129,2.545 1.137,2.541 1.146,2.537 C1.146,2.529 1.146,2.520 1.146,2.512 C1.150,2.512 1.154,2.512 1.158,2.512 C1.163,2.500 1.167,2.488 1.171,2.475 C1.179,2.471 1.188,2.467 1.196,2.463 C1.196,2.455 1.196,2.446 1.196,2.438 C1.209,2.430 1.221,2.422 1.234,2.414 C1.234,2.405 1.234,2.397 1.234,2.389 C1.242,2.385 1.251,2.381 1.259,2.377 C1.259,2.368 1.259,2.360 1.259,2.352 C1.272,2.344 1.284,2.336 1.297,2.327 C1.297,2.319 1.297,2.311 1.297,2.303 C1.305,2.299 1.314,2.295 1.322,2.291 C1.322,2.282 1.322,2.274 1.322,2.266 C1.335,2.258 1.347,2.249 1.360,2.241 C1.360,2.233 1.360,2.225 1.360,2.217 C1.373,2.208 1.385,2.200 1.398,2.192 C1.398,2.184 1.398,2.176 1.398,2.167 C1.414,2.155 1.431,2.143 1.448,2.130 C1.448,2.122 1.448,2.114 1.448,2.106 C1.465,2.093 1.482,2.081 1.498,2.069 C1.498,2.061 1.498,2.052 1.498,2.044 C1.519,2.028 1.540,2.011 1.561,1.995 C1.561,1.987 1.561,1.979 1.561,1.970 C1.587,1.950 1.612,1.929 1.637,1.909 C1.637,1.901 1.637,1.892 1.637,1.884 C1.666,1.859 1.696,1.835 1.725,1.810 C1.725,1.806 1.725,1.802 1.725,1.798 C1.733,1.794 1.742,1.790 1.750,1.786 C1.750,1.777 1.750,1.769 1.750,1.761 C1.801,1.716 1.851,1.671 1.901,1.626 C1.943,1.580 1.985,1.535 2.027,1.490 C2.036,1.490 2.044,1.490 2.052,1.490 C2.086,1.453 2.120,1.416 2.153,1.379 C2.162,1.379 2.170,1.379 2.178,1.379 C2.199,1.355 2.220,1.330 2.241,1.305 C2.250,1.305 2.258,1.305 2.267,1.305 C2.283,1.285 2.300,1.264 2.317,1.244 C2.325,1.244 2.334,1.244 2.342,1.244 C2.355,1.227 2.367,1.211 2.380,1.195 C2.388,1.195 2.397,1.195 2.405,1.195 C2.413,1.182 2.422,1.170 2.430,1.158 C2.439,1.158 2.447,1.158 2.455,1.158 C2.464,1.145 2.472,1.133 2.481,1.121 C2.489,1.121 2.497,1.121 2.506,1.121 C2.514,1.108 2.523,1.096 2.531,1.084 C2.539,1.084 2.548,1.084 2.556,1.084 C2.565,1.071 2.573,1.059 2.581,1.047 C2.590,1.047 2.598,1.047 2.607,1.047 C2.607,1.043 2.607,1.039 2.607,1.034 C2.619,1.030 2.632,1.026 2.644,1.022 C2.648,1.014 2.653,1.006 2.657,0.997 C2.665,0.997 2.674,0.997 2.682,0.997 C2.690,0.985 2.699,0.973 2.707,0.961 C2.716,0.961 2.724,0.961 2.732,0.961 C2.737,0.952 2.741,0.944 2.745,0.936 C2.758,0.932 2.770,0.928 2.783,0.924 C2.783,0.919 2.783,0.915 2.783,0.911 C2.800,0.907 2.816,0.903 2.833,0.899 C2.833,0.895 2.833,0.891 2.833,0.887 C2.846,0.883 2.858,0.878 2.871,0.874 C2.875,0.866 2.879,0.858 2.884,0.850 C2.900,0.846 2.917,0.841 2.934,0.837 C2.938,0.829 2.942,0.821 2.946,0.813 C2.963,0.809 2.980,0.805 2.997,0.800 C3.001,0.792 3.005,0.784 3.009,0.776 C3.026,0.772 3.043,0.768 3.060,0.764 C3.064,0.755 3.068,0.747 3.072,0.739 C3.081,0.739 3.089,0.739 3.098,0.739 C3.098,0.735 3.098,0.731 3.098,0.727 C3.106,0.727 3.114,0.727 3.123,0.727 C3.123,0.722 3.123,0.718 3.123,0.714 C3.131,0.714 3.140,0.714 3.148,0.714 C3.148,0.710 3.148,0.706 3.148,0.702 C3.156,0.702 3.165,0.702 3.173,0.702 C3.177,0.694 3.182,0.686 3.186,0.677 C3.194,0.677 3.203,0.677 3.211,0.677 C3.211,0.673 3.211,0.669 3.211,0.665 C3.219,0.665 3.228,0.665 3.236,0.665 C3.236,0.661 3.236,0.657 3.236,0.653 C3.244,0.653 3.253,0.653 3.261,0.653 C3.261,0.649 3.261,0.644 3.261,0.640 C3.270,0.640 3.278,0.640 3.286,0.640 C3.286,0.636 3.286,0.632 3.286,0.628 C3.295,0.628 3.303,0.628 3.312,0.628 C3.312,0.624 3.312,0.620 3.312,0.616 C3.320,0.616 3.328,0.616 3.337,0.616 C3.337,0.612 3.337,0.608 3.337,0.603 C3.345,0.603 3.354,0.603 3.362,0.603 C3.362,0.599 3.362,0.595 3.362,0.591 C3.370,0.591 3.379,0.591 3.387,0.591 C3.387,0.587 3.387,0.583 3.387,0.579 C3.396,0.579 3.404,0.579 3.412,0.579 C3.412,0.575 3.412,0.571 3.412,0.566 C3.438,0.558 3.463,0.550 3.488,0.542 C3.488,0.538 3.488,0.534 3.488,0.530 C3.509,0.525 3.530,0.521 3.551,0.517 C3.551,0.513 3.551,0.509 3.551,0.505 C3.568,0.501 3.584,0.497 3.601,0.493 C3.601,0.488 3.601,0.484 3.601,0.480 C3.614,0.480 3.626,0.480 3.639,0.480 C3.639,0.476 3.639,0.472 3.639,0.468 C3.656,0.464 3.673,0.460 3.689,0.456 C3.689,0.452 3.689,0.447 3.689,0.443 C3.702,0.443 3.715,0.443 3.727,0.443 C3.727,0.439 3.727,0.435 3.727,0.431 C3.736,0.431 3.744,0.431 3.752,0.431 C3.752,0.427 3.752,0.423 3.752,0.419 C3.773,0.415 3.794,0.410 3.815,0.406 C3.815,0.402 3.815,0.398 3.815,0.394 C3.828,0.394 3.841,0.394 3.853,0.394 C3.853,0.390 3.853,0.386 3.853,0.382 C3.861,0.382 3.870,0.382 3.878,0.382 C3.878,0.378 3.878,0.374 3.878,0.369 C3.916,0.361 3.954,0.353 3.992,0.345 C3.992,0.341 3.992,0.337 3.992,0.332 C4.000,0.332 4.008,0.332 4.017,0.332 C4.017,0.328 4.017,0.324 4.017,0.320 C4.042,0.316 4.067,0.312 4.092,0.308 C4.092,0.304 4.092,0.300 4.092,0.296 C4.105,0.296 4.118,0.296 4.130,0.296 C4.130,0.291 4.130,0.287 4.130,0.283 C4.143,0.283 4.155,0.283 4.168,0.283 C4.168,0.279 4.168,0.275 4.168,0.271 C4.210,0.263 4.252,0.254 4.294,0.246 C4.294,0.242 4.294,0.238 4.294,0.234 C4.311,0.234 4.327,0.234 4.344,0.234 C4.344,0.230 4.344,0.226 4.344,0.222 C4.357,0.222 4.369,0.222 4.382,0.222 C4.382,0.218 4.382,0.213 4.382,0.209 C4.399,0.209 4.416,0.209 4.432,0.209 C4.432,0.205 4.432,0.201 4.432,0.197 C4.449,0.197 4.466,0.197 4.483,0.197 C4.483,0.193 4.483,0.189 4.483,0.185 C4.499,0.185 4.516,0.185 4.533,0.185 C4.533,0.181 4.533,0.177 4.533,0.172 C4.550,0.172 4.567,0.172 4.583,0.172 C4.583,0.168 4.583,0.164 4.583,0.160 C4.600,0.160 4.617,0.160 4.634,0.160 C4.634,0.156 4.634,0.152 4.634,0.148 C4.693,0.140 4.751,0.131 4.810,0.123 C4.810,0.119 4.810,0.115 4.810,0.111 C4.835,0.111 4.860,0.111 4.886,0.111 C4.886,0.107 4.886,0.103 4.886,0.099 C4.907,0.099 4.928,0.099 4.949,0.099 C4.949,0.094 4.949,0.090 4.949,0.086 C4.974,0.086 4.999,0.086 5.024,0.086 C5.024,0.082 5.024,0.078 5.024,0.074 C5.054,0.074 5.083,0.074 5.112,0.074 C5.112,0.070 5.112,0.066 5.112,0.062 C5.221,0.053 5.331,0.045 5.440,0.037 C5.440,0.033 5.440,0.029 5.440,0.025 C5.494,0.025 5.549,0.025 5.603,0.025 C5.696,-0.001 5.843,0.015 5.956,0.012 C5.981,0.012 5.999,-0.001 6.006,0.000 C6.006,0.004 6.006,0.008 6.006,0.012 C6.073,0.012 6.141,0.012 6.208,0.012 C6.371,0.021 6.535,0.029 6.699,0.037 C6.699,0.041 6.699,0.045 6.699,0.049 C6.732,0.049 6.766,0.049 6.800,0.049 C6.873,0.070 6.980,0.077 7.051,0.099 C7.077,0.099 7.102,0.099 7.127,0.099 C7.127,0.103 7.127,0.107 7.127,0.111 C7.148,0.111 7.169,0.111 7.190,0.111 C7.190,0.115 7.190,0.119 7.190,0.123 C7.211,0.123 7.232,0.123 7.253,0.123 C7.253,0.127 7.253,0.131 7.253,0.135 C7.274,0.135 7.295,0.135 7.316,0.135 C7.316,0.140 7.316,0.144 7.316,0.148 C7.366,0.156 7.417,0.164 7.467,0.172 C7.467,0.177 7.467,0.181 7.467,0.185 C7.517,0.193 7.568,0.201 7.618,0.209 C7.618,0.213 7.618,0.218 7.618,0.222 C7.647,0.226 7.677,0.230 7.706,0.234 C7.706,0.238 7.706,0.242 7.706,0.246 C7.736,0.250 7.765,0.255 7.794,0.259 C7.794,0.263 7.794,0.267 7.794,0.271 C7.807,0.271 7.820,0.271 7.832,0.271 C7.832,0.275 7.832,0.279 7.832,0.283 C7.845,0.283 7.857,0.283 7.870,0.283 C7.870,0.287 7.870,0.291 7.870,0.296 C7.882,0.296 7.895,0.296 7.908,0.296 C7.908,0.300 7.908,0.304 7.908,0.308 C7.920,0.308 7.933,0.308 7.945,0.308 C7.945,0.312 7.945,0.316 7.945,0.320 C7.958,0.320 7.971,0.320 7.983,0.320 C7.983,0.324 7.983,0.328 7.983,0.332 C7.996,0.332 8.008,0.332 8.021,0.332 C8.021,0.337 8.021,0.341 8.021,0.345 C8.034,0.345 8.046,0.345 8.059,0.345 C8.059,0.349 8.059,0.353 8.059,0.357 C8.067,0.357 8.076,0.357 8.084,0.357 C8.084,0.361 8.084,0.365 8.084,0.369 C8.151,0.390 8.218,0.410 8.285,0.431 C8.285,0.435 8.285,0.439 8.285,0.443 C8.302,0.447 8.319,0.452 8.336,0.456 C8.336,0.460 8.336,0.464 8.336,0.468 C8.348,0.468 8.361,0.468 8.374,0.468 C8.374,0.472 8.374,0.476 8.374,0.480 C8.390,0.484 8.407,0.488 8.424,0.493 C8.424,0.497 8.424,0.501 8.424,0.505 C8.437,0.505 8.449,0.505 8.462,0.505 C8.462,0.509 8.462,0.513 8.462,0.517 C8.470,0.517 8.478,0.517 8.487,0.517 C8.487,0.521 8.487,0.525 8.487,0.530 C8.504,0.534 8.520,0.538 8.537,0.542 C8.537,0.546 8.537,0.550 8.537,0.554 C8.554,0.558 8.571,0.562 8.588,0.566 C8.588,0.571 8.588,0.575 8.588,0.579 C8.596,0.579 8.604,0.579 8.613,0.579 C8.613,0.583 8.613,0.587 8.613,0.591 C8.621,0.591 8.630,0.591 8.638,0.591 C8.638,0.595 8.638,0.599 8.638,0.603 C8.646,0.603 8.655,0.603 8.663,0.603 C8.663,0.608 8.663,0.612 8.663,0.616 C8.672,0.616 8.680,0.616 8.688,0.616 C8.688,0.620 8.688,0.624 8.688,0.628 C8.697,0.628 8.705,0.628 8.714,0.628 C8.714,0.632 8.714,0.636 8.714,0.640 C8.722,0.640 8.730,0.640 8.739,0.640 C8.739,0.644 8.739,0.649 8.739,0.653 C8.747,0.653 8.756,0.653 8.764,0.653 C8.764,0.657 8.764,0.661 8.764,0.665 C8.772,0.665 8.781,0.665 8.789,0.665 C8.789,0.669 8.789,0.673 8.789,0.677 C8.797,0.677 8.806,0.677 8.814,0.677 C8.814,0.681 8.814,0.686 8.814,0.690 C8.823,0.690 8.831,0.690 8.839,0.690 C8.844,0.698 8.848,0.706 8.852,0.714 C8.860,0.714 8.869,0.714 8.877,0.714 C8.877,0.718 8.877,0.722 8.877,0.727 C8.886,0.727 8.894,0.727 8.902,0.727 C8.902,0.731 8.902,0.735 8.902,0.739 C8.911,0.739 8.919,0.739 8.928,0.739 C8.928,0.743 8.928,0.747 8.928,0.751 C8.936,0.751 8.944,0.751 8.953,0.751 C8.957,0.759 8.961,0.768 8.965,0.776 C8.982,0.780 8.999,0.784 9.016,0.788 C9.020,0.796 9.024,0.805 9.028,0.813 C9.045,0.817 9.062,0.821 9.079,0.825 C9.083,0.833 9.087,0.841 9.091,0.850 C9.100,0.850 9.108,0.850 9.116,0.850 C9.116,0.854 9.116,0.858 9.116,0.862 C9.125,0.862 9.133,0.862 9.142,0.862 C9.146,0.870 9.150,0.878 9.154,0.887 C9.163,0.887 9.171,0.887 9.179,0.887 C9.184,0.895 9.188,0.903 9.192,0.911 C9.200,0.911 9.209,0.911 9.217,0.911 C9.221,0.919 9.226,0.928 9.230,0.936 C9.238,0.936 9.247,0.936 9.255,0.936 C9.255,0.940 9.255,0.944 9.255,0.948 C9.268,0.952 9.280,0.956 9.293,0.961 C9.297,0.969 9.301,0.977 9.305,0.985 C9.314,0.985 9.322,0.985 9.331,0.985 C9.335,0.993 9.339,1.002 9.343,1.010 C9.352,1.010 9.360,1.010 9.368,1.010 C9.377,1.022 9.385,1.034 9.393,1.047 C9.402,1.047 9.410,1.047 9.419,1.047 C9.423,1.055 9.427,1.063 9.431,1.071 C9.440,1.071 9.448,1.071 9.456,1.071 C9.465,1.084 9.473,1.096 9.482,1.108 C9.490,1.108 9.498,1.108 9.507,1.108 C9.515,1.121 9.524,1.133 9.532,1.145 C9.540,1.145 9.549,1.145 9.557,1.145 C9.570,1.162 9.582,1.178 9.595,1.195 C9.608,1.199 9.620,1.203 9.633,1.207 C9.637,1.215 9.641,1.223 9.645,1.231 C9.654,1.231 9.662,1.231 9.671,1.231 C9.679,1.244 9.687,1.256 9.696,1.268 C9.700,1.268 9.704,1.268 9.708,1.268 C9.712,1.277 9.717,1.285 9.721,1.293 C9.729,1.293 9.738,1.293 9.746,1.293 C9.767,1.318 9.788,1.342 9.809,1.367 C9.817,1.367 9.826,1.367 9.834,1.367 C9.864,1.400 9.893,1.433 9.922,1.465 C9.931,1.465 9.939,1.465 9.948,1.465 C9.973,1.494 9.998,1.523 10.023,1.552 C10.086,1.609 10.149,1.667 10.212,1.724 C10.275,1.786 10.322,1.876 10.401,1.921 C10.401,1.412 10.401,0.903 10.401,0.394 ZM5.981,1.564 C5.954,1.586 5.877,1.576 5.830,1.576 C5.717,1.580 5.603,1.584 5.490,1.589 C5.490,1.593 5.490,1.597 5.490,1.601 C5.452,1.601 5.414,1.601 5.377,1.601 C5.377,1.605 5.377,1.609 5.377,1.613 C5.347,1.613 5.318,1.613 5.289,1.613 C5.289,1.617 5.289,1.621 5.289,1.626 C5.263,1.626 5.238,1.626 5.213,1.626 C5.213,1.630 5.213,1.634 5.213,1.638 C5.188,1.638 5.163,1.638 5.137,1.638 C5.137,1.642 5.137,1.646 5.137,1.650 C5.116,1.650 5.095,1.650 5.075,1.650 C5.075,1.654 5.075,1.658 5.075,1.662 C5.054,1.662 5.033,1.662 5.012,1.662 C5.012,1.667 5.012,1.671 5.012,1.675 C4.991,1.675 4.970,1.675 4.949,1.675 C4.949,1.679 4.949,1.683 4.949,1.687 C4.932,1.687 4.915,1.687 4.898,1.687 C4.898,1.691 4.898,1.695 4.898,1.699 C4.881,1.699 4.865,1.699 4.848,1.699 C4.848,1.704 4.848,1.708 4.848,1.712 C4.831,1.712 4.814,1.712 4.797,1.712 C4.797,1.716 4.797,1.720 4.797,1.724 C4.768,1.728 4.739,1.732 4.709,1.736 C4.709,1.740 4.709,1.745 4.709,1.749 C4.697,1.749 4.684,1.749 4.672,1.749 C4.672,1.753 4.672,1.757 4.672,1.761 C4.659,1.761 4.646,1.761 4.634,1.761 C4.634,1.765 4.634,1.769 4.634,1.773 C4.617,1.773 4.600,1.773 4.583,1.773 C4.583,1.777 4.583,1.782 4.583,1.786 C4.575,1.786 4.567,1.786 4.558,1.786 C4.558,1.790 4.558,1.794 4.558,1.798 C4.546,1.798 4.533,1.798 4.520,1.798 C4.520,1.802 4.520,1.806 4.520,1.810 C4.483,1.818 4.445,1.827 4.407,1.835 C4.252,1.905 4.097,1.974 3.941,2.044 C3.937,2.052 3.933,2.061 3.929,2.069 C3.903,2.077 3.878,2.085 3.853,2.093 C3.849,2.102 3.845,2.110 3.841,2.118 C3.824,2.122 3.807,2.126 3.790,2.130 C3.786,2.139 3.782,2.147 3.778,2.155 C3.761,2.159 3.744,2.163 3.727,2.167 C3.723,2.176 3.719,2.184 3.715,2.192 C3.706,2.192 3.698,2.192 3.689,2.192 C3.685,2.200 3.681,2.208 3.677,2.217 C3.668,2.217 3.660,2.217 3.652,2.217 C3.652,2.221 3.652,2.225 3.652,2.229 C3.639,2.233 3.626,2.237 3.614,2.241 C3.610,2.249 3.605,2.258 3.601,2.266 C3.593,2.266 3.584,2.266 3.576,2.266 C3.572,2.274 3.568,2.282 3.563,2.291 C3.555,2.291 3.547,2.291 3.538,2.291 C3.530,2.303 3.522,2.315 3.513,2.327 C3.505,2.327 3.496,2.327 3.488,2.327 C3.480,2.340 3.471,2.352 3.463,2.364 C3.454,2.364 3.446,2.364 3.438,2.364 C3.425,2.381 3.412,2.397 3.400,2.414 C3.391,2.414 3.383,2.414 3.375,2.414 C3.370,2.422 3.366,2.430 3.362,2.438 C3.358,2.438 3.354,2.438 3.349,2.438 C3.345,2.446 3.341,2.455 3.337,2.463 C3.328,2.463 3.320,2.463 3.312,2.463 C3.295,2.483 3.278,2.504 3.261,2.524 C3.253,2.524 3.244,2.524 3.236,2.524 C3.198,2.566 3.161,2.607 3.123,2.648 C3.114,2.648 3.106,2.648 3.098,2.648 C3.085,2.664 3.072,2.680 3.060,2.697 C3.026,2.726 2.993,2.754 2.959,2.783 C2.959,2.791 2.959,2.800 2.959,2.808 C2.917,2.845 2.875,2.882 2.833,2.919 C2.833,2.927 2.833,2.935 2.833,2.943 C2.808,2.964 2.783,2.984 2.758,3.005 C2.758,3.013 2.758,3.021 2.758,3.029 C2.741,3.042 2.724,3.054 2.707,3.066 C2.707,3.075 2.707,3.083 2.707,3.091 C2.690,3.103 2.674,3.116 2.657,3.128 C2.657,3.136 2.657,3.144 2.657,3.153 C2.644,3.161 2.632,3.169 2.619,3.177 C2.619,3.185 2.619,3.194 2.619,3.202 C2.611,3.206 2.602,3.210 2.594,3.214 C2.594,3.222 2.594,3.231 2.594,3.239 C2.581,3.247 2.569,3.255 2.556,3.263 C2.556,3.272 2.556,3.280 2.556,3.288 C2.548,3.292 2.539,3.296 2.531,3.300 C2.527,3.313 2.523,3.325 2.518,3.337 C2.514,3.337 2.510,3.337 2.506,3.337 C2.506,3.345 2.506,3.354 2.506,3.362 C2.497,3.366 2.489,3.370 2.481,3.374 C2.481,3.382 2.481,3.391 2.481,3.399 C2.472,3.403 2.464,3.407 2.455,3.411 C2.455,3.419 2.455,3.428 2.455,3.436 C2.447,3.440 2.439,3.444 2.430,3.448 C2.430,3.456 2.430,3.464 2.430,3.473 C2.422,3.477 2.413,3.481 2.405,3.485 C2.401,3.501 2.397,3.518 2.392,3.534 C2.384,3.538 2.376,3.542 2.367,3.547 C2.367,3.555 2.367,3.563 2.367,3.571 C2.363,3.571 2.359,3.571 2.355,3.571 C2.355,3.579 2.355,3.588 2.355,3.596 C2.346,3.600 2.338,3.604 2.329,3.608 C2.329,3.616 2.329,3.625 2.329,3.633 C2.325,3.633 2.321,3.633 2.317,3.633 C2.317,3.641 2.317,3.649 2.317,3.657 C2.313,3.657 2.308,3.657 2.304,3.657 C2.304,3.666 2.304,3.674 2.304,3.682 C2.300,3.682 2.296,3.682 2.292,3.682 C2.292,3.690 2.292,3.698 2.292,3.707 C2.283,3.711 2.275,3.715 2.267,3.719 C2.267,3.727 2.267,3.735 2.267,3.744 C2.262,3.744 2.258,3.744 2.254,3.744 C2.254,3.752 2.254,3.760 2.254,3.768 C2.250,3.768 2.246,3.768 2.241,3.768 C2.241,3.776 2.241,3.785 2.241,3.793 C2.237,3.793 2.233,3.793 2.229,3.793 C2.229,3.801 2.229,3.809 2.229,3.818 C2.225,3.818 2.220,3.818 2.216,3.818 C2.216,3.826 2.216,3.834 2.216,3.842 C2.212,3.842 2.208,3.842 2.204,3.842 C2.204,3.850 2.204,3.859 2.204,3.867 C2.199,3.867 2.195,3.867 2.191,3.867 C2.191,3.875 2.191,3.883 2.191,3.891 C2.187,3.891 2.183,3.891 2.178,3.891 C2.178,3.900 2.178,3.908 2.178,3.916 C2.174,3.916 2.170,3.916 2.166,3.916 C2.166,3.924 2.166,3.932 2.166,3.941 C2.162,3.941 2.157,3.941 2.153,3.941 C2.145,3.965 2.136,3.990 2.128,4.015 C2.124,4.015 2.120,4.015 2.115,4.015 C2.111,4.035 2.107,4.056 2.103,4.076 C2.099,4.076 2.094,4.076 2.090,4.076 C2.086,4.093 2.082,4.109 2.078,4.125 C2.073,4.125 2.069,4.125 2.065,4.125 C2.065,4.138 2.065,4.150 2.065,4.162 C2.061,4.162 2.057,4.162 2.052,4.162 C2.052,4.171 2.052,4.179 2.052,4.187 C2.048,4.187 2.044,4.187 2.040,4.187 C2.040,4.199 2.040,4.212 2.040,4.224 C2.036,4.224 2.031,4.224 2.027,4.224 C2.023,4.240 2.019,4.257 2.015,4.273 C2.010,4.273 2.006,4.273 2.002,4.273 C1.998,4.298 1.994,4.322 1.990,4.347 C1.985,4.347 1.981,4.347 1.977,4.347 C1.977,4.355 1.977,4.363 1.977,4.372 C1.973,4.372 1.969,4.372 1.964,4.372 C1.964,4.384 1.964,4.396 1.964,4.409 C1.960,4.409 1.956,4.409 1.952,4.409 C1.952,4.421 1.952,4.433 1.952,4.446 C1.948,4.446 1.943,4.446 1.939,4.446 C1.939,4.458 1.939,4.470 1.939,4.482 C1.935,4.482 1.931,4.482 1.927,4.482 C1.927,4.495 1.927,4.507 1.927,4.519 C1.922,4.519 1.918,4.519 1.914,4.519 C1.914,4.532 1.914,4.544 1.914,4.556 C1.910,4.556 1.906,4.556 1.901,4.556 C1.901,4.569 1.901,4.581 1.901,4.593 C1.897,4.593 1.893,4.593 1.889,4.593 C1.889,4.606 1.889,4.618 1.889,4.630 C1.885,4.630 1.880,4.630 1.876,4.630 C1.876,4.643 1.876,4.655 1.876,4.667 C1.872,4.667 1.868,4.667 1.864,4.667 C1.864,4.680 1.864,4.692 1.864,4.704 C1.859,4.704 1.855,4.704 1.851,4.704 C1.847,4.733 1.843,4.762 1.838,4.790 C1.834,4.790 1.830,4.790 1.826,4.790 C1.826,4.807 1.826,4.823 1.826,4.840 C1.822,4.840 1.817,4.840 1.813,4.840 C1.813,4.856 1.813,4.872 1.813,4.889 C1.809,4.889 1.805,4.889 1.801,4.889 C1.801,4.901 1.801,4.914 1.801,4.926 C1.796,4.926 1.792,4.926 1.788,4.926 C1.788,4.942 1.788,4.959 1.788,4.975 C1.784,4.975 1.780,4.975 1.775,4.975 C1.775,4.996 1.775,5.016 1.775,5.037 C1.771,5.037 1.767,5.037 1.763,5.037 C1.759,5.074 1.754,5.111 1.750,5.147 C1.746,5.147 1.742,5.147 1.738,5.147 C1.738,5.164 1.738,5.180 1.738,5.197 C1.733,5.197 1.729,5.197 1.725,5.197 C1.725,5.217 1.725,5.238 1.725,5.258 C1.721,5.258 1.717,5.258 1.712,5.258 C1.708,5.303 1.704,5.349 1.700,5.394 C1.696,5.394 1.692,5.394 1.687,5.394 C1.687,5.422 1.687,5.451 1.687,5.480 C1.683,5.480 1.679,5.480 1.675,5.480 C1.675,5.505 1.675,5.529 1.675,5.554 C1.671,5.554 1.666,5.554 1.662,5.554 C1.662,5.587 1.662,5.620 1.662,5.652 C1.658,5.652 1.654,5.652 1.650,5.652 C1.650,5.689 1.650,5.726 1.650,5.763 C1.645,5.763 1.641,5.763 1.637,5.763 C1.637,5.804 1.637,5.845 1.637,5.886 C1.633,5.886 1.629,5.886 1.624,5.886 C1.620,5.997 1.616,6.108 1.612,6.219 C1.612,6.272 1.612,6.326 1.612,6.379 C1.587,6.467 1.612,6.567 1.612,6.674 C1.620,6.835 1.629,6.995 1.637,7.155 C1.641,7.155 1.645,7.155 1.650,7.155 C1.650,7.192 1.650,7.229 1.650,7.266 C1.654,7.266 1.658,7.266 1.662,7.266 C1.662,7.294 1.662,7.323 1.662,7.352 C1.666,7.352 1.671,7.352 1.675,7.352 C1.683,7.430 1.692,7.508 1.700,7.586 C1.704,7.586 1.708,7.586 1.712,7.586 C1.712,7.606 1.712,7.627 1.712,7.647 C1.717,7.647 1.721,7.647 1.725,7.647 C1.725,7.668 1.725,7.688 1.725,7.709 C1.729,7.709 1.733,7.709 1.738,7.709 C1.738,7.729 1.738,7.750 1.738,7.770 C1.742,7.770 1.746,7.770 1.750,7.770 C1.750,7.791 1.750,7.812 1.750,7.832 C1.754,7.832 1.759,7.832 1.763,7.832 C1.771,7.881 1.780,7.931 1.788,7.980 C1.792,7.980 1.796,7.980 1.801,7.980 C1.805,8.013 1.809,8.045 1.813,8.078 C1.817,8.078 1.822,8.078 1.826,8.078 C1.830,8.107 1.834,8.136 1.838,8.165 C1.843,8.165 1.847,8.165 1.851,8.165 C1.855,8.193 1.859,8.222 1.864,8.251 C1.868,8.251 1.872,8.251 1.876,8.251 C1.876,8.263 1.876,8.275 1.876,8.288 C1.880,8.288 1.885,8.288 1.889,8.288 C1.889,8.300 1.889,8.312 1.889,8.325 C1.893,8.325 1.897,8.325 1.901,8.325 C1.901,8.337 1.901,8.349 1.901,8.362 C1.906,8.362 1.910,8.362 1.914,8.362 C1.914,8.374 1.914,8.386 1.914,8.399 C1.918,8.399 1.922,8.399 1.927,8.399 C1.927,8.411 1.927,8.423 1.927,8.435 C1.931,8.435 1.935,8.435 1.939,8.435 C1.939,8.448 1.939,8.460 1.939,8.472 C1.943,8.472 1.948,8.472 1.952,8.472 C1.952,8.485 1.952,8.497 1.952,8.509 C1.956,8.509 1.960,8.509 1.964,8.509 C1.964,8.518 1.964,8.526 1.964,8.534 C1.969,8.534 1.973,8.534 1.977,8.534 C1.981,8.559 1.985,8.583 1.990,8.608 C1.994,8.608 1.998,8.608 2.002,8.608 C2.006,8.628 2.010,8.649 2.015,8.669 C2.019,8.669 2.023,8.669 2.027,8.669 C2.027,8.678 2.027,8.686 2.027,8.694 C2.031,8.694 2.036,8.694 2.040,8.694 C2.040,8.706 2.040,8.719 2.040,8.731 C2.044,8.731 2.048,8.731 2.052,8.731 C2.057,8.747 2.061,8.764 2.065,8.780 C2.069,8.780 2.073,8.780 2.078,8.780 C2.078,8.793 2.078,8.805 2.078,8.817 C2.082,8.817 2.086,8.817 2.090,8.817 C2.099,8.842 2.107,8.866 2.115,8.891 C2.120,8.891 2.124,8.891 2.128,8.891 C2.128,8.899 2.128,8.908 2.128,8.916 C2.132,8.916 2.136,8.916 2.141,8.916 C2.141,8.928 2.141,8.940 2.141,8.953 C2.145,8.953 2.149,8.953 2.153,8.953 C2.162,8.977 2.170,9.002 2.178,9.027 C2.183,9.027 2.187,9.027 2.191,9.027 C2.191,9.035 2.191,9.043 2.191,9.051 C2.195,9.051 2.199,9.051 2.204,9.051 C2.204,9.059 2.204,9.068 2.204,9.076 C2.208,9.076 2.212,9.076 2.216,9.076 C2.225,9.100 2.233,9.125 2.241,9.150 C2.250,9.154 2.258,9.158 2.267,9.162 C2.267,9.170 2.267,9.178 2.267,9.187 C2.271,9.187 2.275,9.187 2.279,9.187 C2.279,9.195 2.279,9.203 2.279,9.211 C2.283,9.211 2.288,9.211 2.292,9.211 C2.292,9.219 2.292,9.228 2.292,9.236 C2.296,9.236 2.300,9.236 2.304,9.236 C2.304,9.244 2.304,9.252 2.304,9.261 C2.313,9.265 2.321,9.269 2.329,9.273 C2.338,9.297 2.346,9.322 2.355,9.347 C2.359,9.347 2.363,9.347 2.367,9.347 C2.371,9.359 2.376,9.371 2.380,9.384 C2.388,9.388 2.397,9.392 2.405,9.396 C2.409,9.412 2.413,9.429 2.418,9.445 C2.426,9.449 2.434,9.453 2.443,9.458 C2.443,9.466 2.443,9.474 2.443,9.482 C2.451,9.486 2.460,9.490 2.468,9.495 C2.468,9.503 2.468,9.511 2.468,9.519 C2.476,9.523 2.485,9.527 2.493,9.531 C2.493,9.540 2.493,9.548 2.493,9.556 C2.497,9.556 2.502,9.556 2.506,9.556 C2.510,9.568 2.514,9.581 2.518,9.593 C2.527,9.597 2.535,9.601 2.544,9.605 C2.544,9.614 2.544,9.622 2.544,9.630 C2.552,9.634 2.560,9.638 2.569,9.642 C2.569,9.650 2.569,9.659 2.569,9.667 C2.581,9.675 2.594,9.683 2.607,9.692 C2.607,9.700 2.607,9.708 2.607,9.716 C2.619,9.724 2.632,9.733 2.644,9.741 C2.644,9.749 2.644,9.757 2.644,9.765 C2.657,9.774 2.669,9.782 2.682,9.790 C2.682,9.798 2.682,9.806 2.682,9.815 C2.699,9.827 2.716,9.839 2.732,9.852 C2.732,9.860 2.732,9.868 2.732,9.876 C2.749,9.889 2.766,9.901 2.783,9.913 C2.783,9.921 2.783,9.930 2.783,9.938 C2.812,9.962 2.842,9.987 2.871,10.012 C2.871,10.020 2.871,10.028 2.871,10.036 C2.905,10.065 2.938,10.094 2.972,10.123 C3.043,10.196 3.114,10.270 3.186,10.344 C3.194,10.344 3.203,10.344 3.211,10.344 C3.236,10.373 3.261,10.402 3.286,10.430 C3.295,10.430 3.303,10.430 3.312,10.430 C3.328,10.451 3.345,10.471 3.362,10.492 C3.370,10.492 3.379,10.492 3.387,10.492 C3.396,10.504 3.404,10.517 3.412,10.529 C3.421,10.529 3.429,10.529 3.438,10.529 C3.446,10.541 3.454,10.554 3.463,10.566 C3.471,10.566 3.480,10.566 3.488,10.566 C3.496,10.578 3.505,10.591 3.513,10.603 C3.522,10.603 3.530,10.603 3.538,10.603 C3.547,10.615 3.555,10.627 3.563,10.640 C3.572,10.640 3.580,10.640 3.589,10.640 C3.593,10.648 3.597,10.656 3.601,10.664 C3.610,10.664 3.618,10.664 3.626,10.664 C3.631,10.673 3.635,10.681 3.639,10.689 C3.647,10.689 3.656,10.689 3.664,10.689 C3.668,10.697 3.673,10.705 3.677,10.714 C3.685,10.714 3.694,10.714 3.702,10.714 C3.706,10.722 3.710,10.730 3.715,10.738 C3.731,10.742 3.748,10.746 3.765,10.751 C3.769,10.759 3.773,10.767 3.778,10.775 C3.794,10.779 3.811,10.783 3.828,10.788 C3.832,10.796 3.836,10.804 3.841,10.812 C3.866,10.820 3.891,10.829 3.916,10.837 C3.920,10.845 3.924,10.853 3.929,10.861 C3.937,10.861 3.945,10.861 3.954,10.861 C3.954,10.866 3.954,10.870 3.954,10.874 C3.962,10.874 3.971,10.874 3.979,10.874 C3.979,10.878 3.979,10.882 3.979,10.886 C3.987,10.886 3.996,10.886 4.004,10.886 C4.004,10.890 4.004,10.894 4.004,10.898 C4.013,10.898 4.021,10.898 4.029,10.898 C4.029,10.902 4.029,10.907 4.029,10.911 C4.038,10.911 4.046,10.911 4.055,10.911 C4.055,10.915 4.055,10.919 4.055,10.923 C4.063,10.923 4.071,10.923 4.080,10.923 C4.080,10.927 4.080,10.931 4.080,10.935 C4.088,10.935 4.097,10.935 4.105,10.935 C4.105,10.939 4.105,10.944 4.105,10.948 C4.113,10.948 4.122,10.948 4.130,10.948 C4.130,10.952 4.130,10.956 4.130,10.960 C4.155,10.968 4.180,10.976 4.206,10.985 C4.206,10.989 4.206,10.993 4.206,10.997 C4.218,10.997 4.231,10.997 4.243,10.997 C4.243,11.001 4.243,11.005 4.243,11.009 C4.260,11.013 4.277,11.017 4.294,11.022 C4.294,11.026 4.294,11.030 4.294,11.034 C4.306,11.034 4.319,11.034 4.332,11.034 C4.332,11.038 4.332,11.042 4.332,11.046 C4.340,11.046 4.348,11.046 4.357,11.046 C4.357,11.050 4.357,11.054 4.357,11.058 C4.382,11.063 4.407,11.067 4.432,11.071 C4.432,11.075 4.432,11.079 4.432,11.083 C4.441,11.083 4.449,11.083 4.458,11.083 C4.458,11.087 4.458,11.091 4.458,11.095 C4.483,11.099 4.508,11.104 4.533,11.108 C4.533,11.112 4.533,11.116 4.533,11.120 C4.546,11.120 4.558,11.120 4.571,11.120 C4.571,11.124 4.571,11.128 4.571,11.132 C4.583,11.132 4.596,11.132 4.609,11.132 C4.609,11.136 4.609,11.141 4.609,11.145 C4.621,11.145 4.634,11.145 4.646,11.145 C4.646,11.149 4.646,11.153 4.646,11.157 C4.659,11.157 4.672,11.157 4.684,11.157 C4.684,11.161 4.684,11.165 4.684,11.169 C4.701,11.169 4.718,11.169 4.735,11.169 C4.735,11.173 4.735,11.177 4.735,11.182 C4.747,11.182 4.760,11.182 4.772,11.182 C4.772,11.186 4.772,11.190 4.772,11.194 C4.789,11.194 4.806,11.194 4.823,11.194 C4.823,11.198 4.823,11.202 4.823,11.206 C4.839,11.206 4.856,11.206 4.873,11.206 C4.873,11.210 4.873,11.214 4.873,11.219 C4.890,11.219 4.907,11.219 4.923,11.219 C4.923,11.223 4.923,11.227 4.923,11.231 C4.940,11.231 4.957,11.231 4.974,11.231 C4.974,11.235 4.974,11.239 4.974,11.243 C5.125,11.268 5.276,11.292 5.427,11.317 C5.469,11.317 5.511,11.317 5.553,11.317 C5.553,11.321 5.553,11.325 5.553,11.329 C5.725,11.333 5.897,11.338 6.069,11.342 C6.141,11.342 6.212,11.342 6.283,11.342 C6.283,11.338 6.283,11.333 6.283,11.329 C6.338,11.329 6.392,11.329 6.447,11.329 C6.447,11.325 6.447,11.321 6.447,11.317 C6.489,11.317 6.531,11.317 6.573,11.317 C6.573,11.313 6.573,11.309 6.573,11.305 C6.607,11.305 6.640,11.305 6.674,11.305 C6.674,11.301 6.674,11.297 6.674,11.292 C6.703,11.292 6.732,11.292 6.762,11.292 C6.762,11.288 6.762,11.284 6.762,11.280 C6.787,11.280 6.812,11.280 6.837,11.280 C6.837,11.276 6.837,11.272 6.837,11.268 C6.858,11.268 6.879,11.268 6.900,11.268 C6.900,11.264 6.900,11.260 6.900,11.255 C6.925,11.255 6.951,11.255 6.976,11.255 C6.976,11.251 6.976,11.247 6.976,11.243 C6.993,11.243 7.009,11.243 7.026,11.243 C7.026,11.239 7.026,11.235 7.026,11.231 C7.043,11.231 7.060,11.231 7.077,11.231 C7.077,11.227 7.077,11.223 7.077,11.219 C7.093,11.219 7.110,11.219 7.127,11.219 C7.127,11.214 7.127,11.210 7.127,11.206 C7.144,11.206 7.161,11.206 7.177,11.206 C7.177,11.202 7.177,11.198 7.177,11.194 C7.211,11.190 7.244,11.186 7.278,11.182 C7.278,11.177 7.278,11.173 7.278,11.169 C7.291,11.169 7.303,11.169 7.316,11.169 C7.316,11.165 7.316,11.161 7.316,11.157 C7.328,11.157 7.341,11.157 7.354,11.157 C7.354,11.153 7.354,11.149 7.354,11.145 C7.366,11.145 7.379,11.145 7.391,11.145 C7.391,11.141 7.391,11.136 7.391,11.132 C7.408,11.132 7.425,11.132 7.442,11.132 C7.442,11.128 7.442,11.124 7.442,11.120 C7.450,11.120 7.459,11.120 7.467,11.120 C7.467,11.116 7.467,11.112 7.467,11.108 C7.505,11.100 7.543,11.091 7.580,11.083 C7.580,11.079 7.580,11.075 7.580,11.071 C7.589,11.071 7.597,11.071 7.605,11.071 C7.605,11.067 7.605,11.063 7.605,11.058 C7.618,11.058 7.631,11.058 7.643,11.058 C7.643,11.054 7.643,11.050 7.643,11.046 C7.664,11.042 7.685,11.038 7.706,11.034 C7.706,11.030 7.706,11.026 7.706,11.022 C7.715,11.022 7.723,11.022 7.731,11.022 C7.731,11.017 7.731,11.013 7.731,11.009 C7.744,11.009 7.757,11.009 7.769,11.009 C7.769,11.005 7.769,11.001 7.769,10.997 C7.778,10.997 7.786,10.997 7.794,10.997 C7.794,10.993 7.794,10.989 7.794,10.985 C7.811,10.980 7.828,10.976 7.845,10.972 C7.845,10.968 7.845,10.964 7.845,10.960 C7.853,10.960 7.861,10.960 7.870,10.960 C7.870,10.956 7.870,10.952 7.870,10.948 C7.878,10.948 7.887,10.948 7.895,10.948 C7.895,10.944 7.895,10.939 7.895,10.935 C7.903,10.935 7.912,10.935 7.920,10.935 C7.920,10.931 7.920,10.927 7.920,10.923 C7.929,10.923 7.937,10.923 7.945,10.923 C7.945,10.919 7.945,10.915 7.945,10.911 C7.954,10.911 7.962,10.911 7.971,10.911 C7.971,10.907 7.971,10.902 7.971,10.898 C7.979,10.898 7.987,10.898 7.996,10.898 C7.996,10.894 7.996,10.890 7.996,10.886 C8.004,10.886 8.013,10.886 8.021,10.886 C8.021,10.882 8.021,10.878 8.021,10.874 C8.029,10.874 8.038,10.874 8.046,10.874 C8.046,10.870 8.046,10.866 8.046,10.861 C8.055,10.861 8.063,10.861 8.071,10.861 C8.071,10.857 8.071,10.853 8.071,10.849 C8.080,10.849 8.088,10.849 8.097,10.849 C8.097,10.845 8.097,10.841 8.097,10.837 C8.105,10.837 8.113,10.837 8.122,10.837 C8.126,10.829 8.130,10.820 8.134,10.812 C8.151,10.808 8.168,10.804 8.185,10.800 C8.189,10.792 8.193,10.783 8.197,10.775 C8.206,10.775 8.214,10.775 8.222,10.775 C8.222,10.771 8.222,10.767 8.222,10.763 C8.231,10.763 8.239,10.763 8.248,10.763 C8.252,10.755 8.256,10.746 8.260,10.738 C8.269,10.738 8.277,10.738 8.285,10.738 C8.290,10.730 8.294,10.722 8.298,10.714 C8.306,10.714 8.315,10.714 8.323,10.714 C8.327,10.705 8.332,10.697 8.336,10.689 C8.353,10.685 8.369,10.681 8.386,10.677 C8.395,10.664 8.403,10.652 8.411,10.640 C8.420,10.640 8.428,10.640 8.437,10.640 C8.441,10.632 8.445,10.623 8.449,10.615 C8.458,10.615 8.466,10.615 8.474,10.615 C8.483,10.603 8.491,10.590 8.499,10.578 C8.508,10.578 8.516,10.578 8.525,10.578 C8.533,10.566 8.541,10.554 8.550,10.541 C8.558,10.541 8.567,10.541 8.575,10.541 C8.583,10.529 8.592,10.517 8.600,10.504 C8.609,10.504 8.617,10.504 8.625,10.504 C8.630,10.496 8.634,10.488 8.638,10.480 C8.651,10.471 8.663,10.463 8.676,10.455 C8.676,10.451 8.676,10.447 8.676,10.443 C8.684,10.443 8.693,10.443 8.701,10.443 C8.718,10.422 8.735,10.402 8.751,10.381 C8.760,10.381 8.768,10.381 8.776,10.381 C8.818,10.336 8.860,10.291 8.902,10.246 C8.915,10.237 8.928,10.229 8.940,10.221 C8.940,10.217 8.940,10.213 8.940,10.209 C8.949,10.209 8.957,10.209 8.965,10.209 C8.965,10.205 8.965,10.201 8.965,10.196 C8.974,10.192 8.982,10.188 8.991,10.184 C8.991,10.176 8.991,10.168 8.991,10.159 C9.045,10.110 9.100,10.061 9.154,10.012 C9.154,10.004 9.154,9.995 9.154,9.987 C9.179,9.967 9.205,9.946 9.230,9.926 C9.230,9.917 9.230,9.909 9.230,9.901 C9.251,9.884 9.272,9.868 9.293,9.852 C9.293,9.843 9.293,9.835 9.293,9.827 C9.305,9.819 9.318,9.811 9.331,9.802 C9.331,9.794 9.331,9.786 9.331,9.778 C9.343,9.770 9.356,9.761 9.368,9.753 C9.368,9.745 9.368,9.737 9.368,9.728 C9.381,9.720 9.393,9.712 9.406,9.704 C9.406,9.696 9.406,9.687 9.406,9.679 C9.419,9.671 9.431,9.663 9.444,9.655 C9.444,9.646 9.444,9.638 9.444,9.630 C9.452,9.626 9.461,9.622 9.469,9.618 C9.469,9.609 9.469,9.601 9.469,9.593 C9.477,9.589 9.486,9.585 9.494,9.581 C9.494,9.572 9.494,9.564 9.494,9.556 C9.503,9.552 9.511,9.548 9.519,9.544 C9.519,9.536 9.519,9.527 9.519,9.519 C9.528,9.515 9.536,9.511 9.545,9.507 C9.545,9.499 9.545,9.490 9.545,9.482 C9.553,9.478 9.561,9.474 9.570,9.470 C9.570,9.462 9.570,9.453 9.570,9.445 C9.578,9.441 9.587,9.437 9.595,9.433 C9.599,9.417 9.603,9.400 9.608,9.384 C9.616,9.380 9.624,9.375 9.633,9.371 C9.633,9.363 9.633,9.355 9.633,9.347 C9.637,9.347 9.641,9.347 9.645,9.347 C9.645,9.339 9.645,9.330 9.645,9.322 C9.654,9.318 9.662,9.314 9.671,9.310 C9.679,9.285 9.687,9.261 9.696,9.236 C9.704,9.232 9.712,9.228 9.721,9.224 C9.721,9.215 9.721,9.207 9.721,9.199 C9.725,9.199 9.729,9.199 9.733,9.199 C9.733,9.191 9.733,9.183 9.733,9.174 C9.738,9.174 9.742,9.174 9.746,9.174 C9.746,9.166 9.746,9.158 9.746,9.150 C9.750,9.150 9.754,9.150 9.759,9.150 C9.759,9.141 9.759,9.133 9.759,9.125 C9.763,9.125 9.767,9.125 9.771,9.125 C9.771,9.117 9.771,9.109 9.771,9.100 C9.775,9.100 9.780,9.100 9.784,9.100 C9.784,9.092 9.784,9.084 9.784,9.076 C9.788,9.076 9.792,9.076 9.796,9.076 C9.796,9.068 9.796,9.059 9.796,9.051 C9.801,9.051 9.805,9.051 9.809,9.051 C9.809,9.043 9.809,9.035 9.809,9.027 C9.813,9.027 9.817,9.027 9.822,9.027 C9.822,9.018 9.822,9.010 9.822,9.002 C9.826,9.002 9.830,9.002 9.834,9.002 C9.834,8.994 9.834,8.986 9.834,8.977 C9.838,8.977 9.843,8.977 9.847,8.977 C9.847,8.969 9.847,8.961 9.847,8.953 C9.851,8.953 9.855,8.953 9.859,8.953 C9.864,8.936 9.868,8.920 9.872,8.903 C9.876,8.903 9.880,8.903 9.885,8.903 C9.885,8.895 9.885,8.887 9.885,8.879 C9.889,8.879 9.893,8.879 9.897,8.879 C9.897,8.866 9.897,8.854 9.897,8.842 C9.901,8.842 9.906,8.842 9.910,8.842 C9.910,8.834 9.910,8.825 9.910,8.817 C9.914,8.817 9.918,8.817 9.922,8.817 C9.927,8.801 9.931,8.784 9.935,8.768 C9.939,8.768 9.943,8.768 9.948,8.768 C9.948,8.756 9.948,8.743 9.948,8.731 C9.952,8.731 9.956,8.731 9.960,8.731 C9.960,8.723 9.960,8.715 9.960,8.706 C9.964,8.706 9.969,8.706 9.973,8.706 C9.973,8.694 9.973,8.682 9.973,8.669 C9.977,8.669 9.981,8.669 9.985,8.669 C9.985,8.661 9.985,8.653 9.985,8.645 C9.990,8.645 9.994,8.645 9.998,8.645 C9.998,8.632 9.998,8.620 9.998,8.608 C10.002,8.608 10.006,8.608 10.010,8.608 C10.010,8.600 10.010,8.591 10.010,8.583 C10.015,8.583 10.019,8.583 10.023,8.583 C10.027,8.559 10.031,8.534 10.036,8.509 C10.040,8.509 10.044,8.509 10.048,8.509 C10.048,8.501 10.048,8.493 10.048,8.485 C10.052,8.485 10.057,8.485 10.061,8.485 C10.065,8.460 10.069,8.435 10.073,8.411 C10.078,8.411 10.082,8.411 10.086,8.411 C10.086,8.399 10.086,8.386 10.086,8.374 C10.090,8.374 10.094,8.374 10.099,8.374 C10.099,8.362 10.099,8.349 10.099,8.337 C10.103,8.337 10.107,8.337 10.111,8.337 C10.111,8.325 10.111,8.312 10.111,8.300 C10.115,8.300 10.120,8.300 10.124,8.300 C10.124,8.288 10.124,8.275 10.124,8.263 C10.128,8.263 10.132,8.263 10.136,8.263 C10.136,8.247 10.136,8.230 10.136,8.214 C10.141,8.214 10.145,8.214 10.149,8.214 C10.149,8.201 10.149,8.189 10.149,8.177 C10.153,8.177 10.157,8.177 10.162,8.177 C10.166,8.148 10.170,8.119 10.174,8.091 C10.178,8.091 10.183,8.091 10.187,8.091 C10.187,8.074 10.187,8.058 10.187,8.041 C10.191,8.041 10.195,8.041 10.199,8.041 C10.204,8.009 10.208,7.976 10.212,7.943 C10.216,7.943 10.220,7.943 10.225,7.943 C10.229,7.910 10.233,7.877 10.237,7.844 C10.241,7.844 10.246,7.844 10.250,7.844 C10.250,7.824 10.250,7.803 10.250,7.783 C10.254,7.783 10.258,7.783 10.262,7.783 C10.262,7.766 10.262,7.750 10.262,7.734 C10.267,7.734 10.271,7.734 10.275,7.734 C10.275,7.713 10.275,7.692 10.275,7.672 C10.279,7.672 10.283,7.672 10.288,7.672 C10.288,7.647 10.288,7.623 10.288,7.598 C10.292,7.598 10.296,7.598 10.300,7.598 C10.300,7.578 10.300,7.557 10.300,7.536 C10.304,7.536 10.308,7.536 10.313,7.536 C10.313,7.512 10.313,7.487 10.313,7.463 C10.317,7.463 10.321,7.463 10.325,7.463 C10.325,7.434 10.325,7.405 10.325,7.376 C10.329,7.376 10.334,7.376 10.338,7.376 C10.338,7.348 10.338,7.319 10.338,7.290 C10.342,7.290 10.346,7.290 10.350,7.290 C10.350,7.257 10.350,7.225 10.350,7.192 C10.355,7.192 10.359,7.192 10.363,7.192 C10.363,7.151 10.363,7.110 10.363,7.069 C10.367,7.069 10.371,7.069 10.376,7.069 C10.376,7.019 10.376,6.970 10.376,6.921 C10.380,6.921 10.384,6.921 10.388,6.921 C10.388,6.843 10.388,6.765 10.388,6.687 C10.415,6.592 10.416,6.313 10.388,6.219 C10.388,6.145 10.388,6.071 10.388,5.997 C10.384,5.997 10.380,5.997 10.376,5.997 C10.367,5.874 10.359,5.751 10.350,5.628 C10.329,5.554 10.322,5.452 10.300,5.381 C10.300,5.357 10.300,5.332 10.300,5.308 C10.296,5.308 10.292,5.308 10.288,5.308 C10.283,5.267 10.279,5.225 10.275,5.184 C10.271,5.184 10.267,5.184 10.262,5.184 C10.262,5.164 10.262,5.143 10.262,5.123 C10.258,5.123 10.254,5.123 10.250,5.123 C10.246,5.086 10.241,5.049 10.237,5.012 C10.233,5.012 10.229,5.012 10.225,5.012 C10.225,4.996 10.225,4.979 10.225,4.963 C10.220,4.963 10.216,4.963 10.212,4.963 C10.212,4.946 10.212,4.930 10.212,4.913 C10.208,4.913 10.204,4.913 10.199,4.913 C10.199,4.897 10.199,4.881 10.199,4.864 C10.195,4.864 10.191,4.864 10.187,4.864 C10.187,4.852 10.187,4.840 10.187,4.827 C10.183,4.827 10.178,4.827 10.174,4.827 C10.174,4.811 10.174,4.794 10.174,4.778 C10.170,4.778 10.166,4.778 10.162,4.778 C10.157,4.749 10.153,4.721 10.149,4.692 C10.145,4.692 10.141,4.692 10.136,4.692 C10.136,4.680 10.136,4.667 10.136,4.655 C10.132,4.655 10.128,4.655 10.124,4.655 C10.124,4.643 10.124,4.630 10.124,4.618 C10.120,4.618 10.115,4.618 10.111,4.618 C10.111,4.606 10.111,4.593 10.111,4.581 C10.107,4.581 10.103,4.581 10.099,4.581 C10.099,4.569 10.099,4.556 10.099,4.544 C10.094,4.544 10.090,4.544 10.086,4.544 C10.086,4.532 10.086,4.519 10.086,4.507 C10.082,4.507 10.078,4.507 10.073,4.507 C10.065,4.470 10.057,4.433 10.048,4.396 C10.044,4.396 10.040,4.396 10.036,4.396 C10.036,4.388 10.036,4.380 10.036,4.372 C10.031,4.372 10.027,4.372 10.023,4.372 C10.019,4.347 10.015,4.322 10.010,4.298 C10.006,4.298 10.002,4.298 9.998,4.298 C9.994,4.277 9.990,4.257 9.985,4.236 C9.981,4.236 9.977,4.236 9.973,4.236 C9.973,4.228 9.973,4.220 9.973,4.212 C9.969,4.212 9.964,4.212 9.960,4.212 C9.960,4.199 9.960,4.187 9.960,4.175 C9.956,4.175 9.952,4.175 9.948,4.175 C9.943,4.158 9.939,4.142 9.935,4.125 C9.931,4.125 9.927,4.125 9.922,4.125 C9.922,4.113 9.922,4.101 9.922,4.088 C9.918,4.088 9.914,4.088 9.910,4.088 C9.901,4.064 9.893,4.039 9.885,4.015 C9.880,4.015 9.876,4.015 9.872,4.015 C9.872,4.006 9.872,3.998 9.872,3.990 C9.868,3.990 9.864,3.990 9.859,3.990 C9.859,3.978 9.859,3.965 9.859,3.953 C9.855,3.953 9.851,3.953 9.847,3.953 C9.838,3.928 9.830,3.904 9.822,3.879 C9.817,3.879 9.813,3.879 9.809,3.879 C9.809,3.871 9.809,3.863 9.809,3.854 C9.805,3.854 9.801,3.854 9.796,3.854 C9.788,3.830 9.780,3.805 9.771,3.781 C9.763,3.776 9.754,3.772 9.746,3.768 C9.746,3.760 9.746,3.752 9.746,3.744 C9.742,3.744 9.738,3.744 9.733,3.744 C9.733,3.735 9.733,3.727 9.733,3.719 C9.729,3.719 9.725,3.719 9.721,3.719 C9.721,3.711 9.721,3.703 9.721,3.694 C9.717,3.694 9.712,3.694 9.708,3.694 C9.708,3.686 9.708,3.678 9.708,3.670 C9.704,3.670 9.700,3.670 9.696,3.670 C9.696,3.662 9.696,3.653 9.696,3.645 C9.687,3.641 9.679,3.637 9.671,3.633 C9.666,3.616 9.662,3.600 9.658,3.584 C9.650,3.579 9.641,3.575 9.633,3.571 C9.629,3.555 9.624,3.538 9.620,3.522 C9.612,3.518 9.603,3.514 9.595,3.510 C9.591,3.493 9.587,3.477 9.582,3.460 C9.574,3.456 9.566,3.452 9.557,3.448 C9.557,3.440 9.557,3.432 9.557,3.423 C9.549,3.419 9.540,3.415 9.532,3.411 C9.532,3.403 9.532,3.395 9.532,3.386 C9.528,3.386 9.524,3.386 9.519,3.386 C9.515,3.374 9.511,3.362 9.507,3.350 C9.498,3.345 9.490,3.341 9.482,3.337 C9.482,3.329 9.482,3.321 9.482,3.313 C9.473,3.309 9.465,3.304 9.456,3.300 C9.456,3.292 9.456,3.284 9.456,3.276 C9.444,3.267 9.431,3.259 9.419,3.251 C9.419,3.243 9.419,3.235 9.419,3.226 C9.410,3.222 9.402,3.218 9.393,3.214 C9.393,3.206 9.393,3.198 9.393,3.189 C9.381,3.181 9.368,3.173 9.356,3.165 C9.356,3.157 9.356,3.148 9.356,3.140 C9.339,3.128 9.322,3.116 9.305,3.103 C9.305,3.095 9.305,3.087 9.305,3.079 C9.289,3.066 9.272,3.054 9.255,3.042 C9.255,3.033 9.255,3.025 9.255,3.017 C9.234,3.001 9.213,2.984 9.192,2.968 C9.192,2.960 9.192,2.951 9.192,2.943 C9.158,2.914 9.125,2.886 9.091,2.857 C9.091,2.849 9.091,2.841 9.091,2.832 C9.058,2.804 9.024,2.775 8.991,2.746 C8.944,2.697 8.898,2.648 8.852,2.598 C8.839,2.594 8.827,2.590 8.814,2.586 C8.789,2.557 8.764,2.529 8.739,2.500 C8.730,2.500 8.722,2.500 8.714,2.500 C8.697,2.479 8.680,2.459 8.663,2.438 C8.655,2.438 8.646,2.438 8.638,2.438 C8.634,2.430 8.630,2.422 8.625,2.414 C8.621,2.414 8.617,2.414 8.613,2.414 C8.609,2.405 8.604,2.397 8.600,2.389 C8.592,2.389 8.583,2.389 8.575,2.389 C8.567,2.377 8.558,2.364 8.550,2.352 C8.537,2.348 8.525,2.344 8.512,2.340 C8.508,2.332 8.504,2.323 8.499,2.315 C8.491,2.315 8.483,2.315 8.474,2.315 C8.470,2.307 8.466,2.299 8.462,2.291 C8.453,2.291 8.445,2.291 8.437,2.291 C8.428,2.278 8.420,2.266 8.411,2.254 C8.403,2.254 8.395,2.254 8.386,2.254 C8.382,2.245 8.378,2.237 8.374,2.229 C8.361,2.225 8.348,2.221 8.336,2.217 C8.336,2.213 8.336,2.208 8.336,2.204 C8.327,2.204 8.319,2.204 8.311,2.204 C8.306,2.196 8.302,2.188 8.298,2.180 C8.281,2.176 8.264,2.171 8.248,2.167 C8.243,2.159 8.239,2.151 8.235,2.143 C8.218,2.139 8.201,2.135 8.185,2.130 C8.180,2.122 8.176,2.114 8.172,2.106 C8.155,2.102 8.139,2.098 8.122,2.093 C8.118,2.085 8.113,2.077 8.109,2.069 C8.101,2.069 8.092,2.069 8.084,2.069 C8.084,2.065 8.084,2.061 8.084,2.057 C8.076,2.057 8.067,2.057 8.059,2.057 C8.059,2.052 8.059,2.048 8.059,2.044 C8.050,2.044 8.042,2.044 8.034,2.044 C8.034,2.040 8.034,2.036 8.034,2.032 C8.025,2.032 8.017,2.032 8.008,2.032 C8.008,2.028 8.008,2.024 8.008,2.020 C8.000,2.020 7.992,2.020 7.983,2.020 C7.983,2.015 7.983,2.011 7.983,2.007 C7.975,2.007 7.966,2.007 7.958,2.007 C7.958,2.003 7.958,1.999 7.958,1.995 C7.950,1.995 7.941,1.995 7.933,1.995 C7.933,1.991 7.933,1.987 7.933,1.983 C7.924,1.983 7.916,1.983 7.908,1.983 C7.908,1.979 7.908,1.974 7.908,1.970 C7.899,1.970 7.891,1.970 7.882,1.970 C7.882,1.966 7.882,1.962 7.882,1.958 C7.857,1.950 7.832,1.942 7.807,1.933 C7.807,1.929 7.807,1.925 7.807,1.921 C7.794,1.921 7.782,1.921 7.769,1.921 C7.769,1.917 7.769,1.913 7.769,1.909 C7.752,1.905 7.736,1.901 7.719,1.896 C7.719,1.892 7.719,1.888 7.719,1.884 C7.706,1.884 7.694,1.884 7.681,1.884 C7.681,1.880 7.681,1.876 7.681,1.872 C7.664,1.868 7.647,1.864 7.631,1.859 C7.631,1.855 7.631,1.851 7.631,1.847 C7.605,1.843 7.580,1.839 7.555,1.835 C7.555,1.831 7.555,1.827 7.555,1.823 C7.547,1.823 7.538,1.823 7.530,1.823 C7.530,1.818 7.530,1.814 7.530,1.810 C7.370,1.765 7.211,1.720 7.051,1.675 C7.030,1.675 7.009,1.675 6.988,1.675 C6.880,1.642 6.738,1.633 6.623,1.601 C6.409,1.589 6.195,1.576 5.981,1.564 Z"/>
</svg>