<svg 
 xmlns="http://www.w3.org/2000/svg"
 xmlns:xlink="http://www.w3.org/1999/xlink"
 width="15px" height="22px">
<path fill-rule="evenodd"  fill="rgb(35, 42, 58)"
 d="M8.512,18.473 C8.525,18.473 8.538,18.473 8.551,18.473 C10.158,16.844 11.766,15.214 13.374,13.585 C13.387,13.585 13.400,13.585 13.413,13.585 C13.420,13.572 13.426,13.559 13.432,13.546 C13.445,13.546 13.458,13.546 13.471,13.546 C13.471,13.539 13.471,13.533 13.471,13.526 C13.484,13.526 13.497,13.526 13.510,13.526 C13.510,13.519 13.510,13.513 13.510,13.506 C13.549,13.493 13.588,13.480 13.627,13.467 C13.627,13.461 13.627,13.454 13.627,13.447 C13.672,13.441 13.718,13.434 13.763,13.428 C13.763,13.421 13.763,13.415 13.763,13.408 C13.808,13.408 13.854,13.408 13.899,13.408 C13.899,13.402 13.899,13.395 13.899,13.389 C13.990,13.363 14.135,13.409 14.191,13.428 C14.256,13.441 14.321,13.454 14.386,13.467 C14.386,13.474 14.386,13.480 14.386,13.487 C14.398,13.487 14.411,13.487 14.424,13.487 C14.424,13.493 14.424,13.500 14.424,13.506 C14.450,13.513 14.476,13.519 14.502,13.526 C14.509,13.539 14.515,13.552 14.522,13.565 C14.535,13.565 14.548,13.565 14.561,13.565 C14.567,13.578 14.574,13.591 14.580,13.605 C14.593,13.605 14.606,13.605 14.619,13.605 C14.658,13.650 14.697,13.696 14.736,13.742 C14.755,13.755 14.775,13.768 14.794,13.781 C14.794,13.794 14.794,13.807 14.794,13.820 C14.807,13.827 14.820,13.834 14.833,13.840 C14.833,13.853 14.833,13.866 14.833,13.879 C14.846,13.886 14.859,13.892 14.872,13.899 C14.878,13.925 14.885,13.951 14.891,13.978 C15.018,14.219 15.038,14.491 14.930,14.763 C14.930,14.782 14.930,14.802 14.930,14.822 C14.846,15.014 14.697,15.135 14.561,15.273 C14.522,15.319 14.483,15.365 14.444,15.411 C14.275,15.574 14.107,15.738 13.938,15.901 C13.309,16.543 12.680,17.184 12.052,17.825 C11.137,18.741 10.223,19.658 9.309,20.574 C9.095,20.796 8.881,21.019 8.667,21.241 C8.596,21.307 8.525,21.372 8.453,21.437 C8.301,21.591 8.164,21.783 7.967,21.889 C7.935,21.896 7.902,21.902 7.870,21.909 C7.870,21.915 7.870,21.922 7.870,21.928 C7.789,21.960 7.460,22.028 7.325,21.987 C7.215,21.948 7.105,21.909 6.995,21.869 C6.995,21.863 6.995,21.856 6.995,21.850 C6.975,21.843 6.956,21.837 6.936,21.830 C6.930,21.817 6.923,21.804 6.917,21.791 C6.904,21.791 6.891,21.791 6.878,21.791 C6.761,21.666 6.645,21.542 6.528,21.418 C6.482,21.379 6.437,21.339 6.392,21.300 C6.197,21.097 6.003,20.894 5.808,20.691 C5.439,20.325 5.069,19.959 4.700,19.592 C4.077,18.957 3.455,18.323 2.832,17.688 C1.957,16.811 1.082,15.934 0.207,15.057 C0.207,15.044 0.207,15.031 0.207,15.018 C0.187,15.005 0.168,14.992 0.148,14.979 C0.142,14.953 0.135,14.926 0.129,14.900 C0.122,14.900 0.116,14.900 0.109,14.900 C0.103,14.874 0.096,14.848 0.090,14.822 C0.083,14.822 0.077,14.822 0.071,14.822 C0.071,14.802 0.071,14.782 0.071,14.763 C0.064,14.763 0.058,14.763 0.051,14.763 C0.051,14.743 0.051,14.724 0.051,14.704 C-0.029,14.486 -0.010,14.279 0.071,14.076 C0.071,14.056 0.071,14.036 0.071,14.017 C0.077,14.017 0.083,14.017 0.090,14.017 C0.090,14.004 0.090,13.991 0.090,13.978 C0.096,13.978 0.103,13.978 0.109,13.978 C0.116,13.951 0.122,13.925 0.129,13.899 C0.135,13.899 0.142,13.899 0.148,13.899 C0.155,13.879 0.161,13.860 0.168,13.840 C0.181,13.834 0.194,13.827 0.207,13.820 C0.207,13.807 0.207,13.794 0.207,13.781 C0.233,13.762 0.259,13.742 0.284,13.722 C0.317,13.683 0.349,13.644 0.382,13.605 C0.599,13.449 0.973,13.320 1.296,13.447 C1.335,13.454 1.374,13.461 1.413,13.467 C1.413,13.474 1.413,13.480 1.413,13.487 C1.426,13.487 1.438,13.487 1.451,13.487 C1.451,13.493 1.451,13.500 1.451,13.506 C1.490,13.519 1.529,13.533 1.568,13.546 C1.575,13.559 1.581,13.572 1.588,13.585 C1.601,13.585 1.614,13.585 1.626,13.585 C1.672,13.637 1.717,13.690 1.763,13.742 C1.873,13.847 1.983,13.951 2.093,14.056 C3.027,15.005 3.961,15.954 4.894,16.903 C5.017,17.020 5.140,17.138 5.264,17.256 C5.510,17.511 5.756,17.766 6.003,18.022 C6.042,18.054 6.080,18.087 6.119,18.120 C6.230,18.238 6.340,18.355 6.450,18.473 C6.463,18.473 6.476,18.473 6.489,18.473 C6.489,13.697 6.489,8.919 6.489,4.142 C6.489,3.350 6.489,2.559 6.489,1.767 C6.489,1.459 6.489,1.152 6.489,0.844 C6.528,0.733 6.567,0.622 6.606,0.510 C6.612,0.510 6.619,0.510 6.625,0.510 C6.632,0.491 6.638,0.471 6.645,0.452 C6.657,0.445 6.670,0.438 6.683,0.432 C6.683,0.419 6.683,0.406 6.683,0.393 C6.722,0.360 6.761,0.327 6.800,0.294 C6.826,0.262 6.852,0.229 6.878,0.196 C6.891,0.196 6.904,0.196 6.917,0.196 C6.923,0.183 6.930,0.170 6.936,0.157 C6.956,0.151 6.975,0.144 6.995,0.137 C6.995,0.131 6.995,0.124 6.995,0.118 C7.008,0.118 7.021,0.118 7.034,0.118 C7.034,0.111 7.034,0.105 7.034,0.098 C7.046,0.098 7.059,0.098 7.072,0.098 C7.072,0.092 7.072,0.085 7.072,0.079 C7.092,0.079 7.111,0.079 7.131,0.079 C7.131,0.072 7.131,0.065 7.131,0.059 C7.150,0.059 7.170,0.059 7.189,0.059 C7.189,0.052 7.189,0.046 7.189,0.039 C7.209,0.039 7.228,0.039 7.247,0.039 C7.247,0.033 7.247,0.026 7.247,0.020 C7.273,0.020 7.299,0.020 7.325,0.020 C7.325,0.013 7.325,0.007 7.325,-0.000 C7.442,-0.000 7.559,-0.000 7.675,-0.000 C7.786,0.039 7.896,0.079 8.006,0.118 C8.006,0.124 8.006,0.131 8.006,0.137 C8.025,0.144 8.045,0.151 8.064,0.157 C8.071,0.170 8.077,0.183 8.084,0.196 C8.097,0.196 8.110,0.196 8.123,0.196 C8.162,0.242 8.200,0.288 8.239,0.334 C8.265,0.353 8.291,0.373 8.317,0.393 C8.317,0.406 8.317,0.419 8.317,0.432 C8.330,0.438 8.343,0.445 8.356,0.452 C8.356,0.465 8.356,0.478 8.356,0.491 C8.369,0.497 8.382,0.504 8.395,0.510 C8.395,0.524 8.395,0.537 8.395,0.550 C8.401,0.550 8.408,0.550 8.414,0.550 C8.414,0.563 8.414,0.576 8.414,0.589 C8.421,0.589 8.427,0.589 8.434,0.589 C8.434,0.609 8.434,0.628 8.434,0.648 C8.440,0.648 8.447,0.648 8.453,0.648 C8.453,0.661 8.453,0.674 8.453,0.687 C8.460,0.687 8.466,0.687 8.473,0.687 C8.473,0.713 8.473,0.739 8.473,0.766 C8.557,1.016 8.512,1.557 8.512,1.885 C8.512,2.768 8.512,3.652 8.512,4.535 C8.512,9.180 8.512,13.827 8.512,18.473 Z"/>
</svg>