<svg 
 xmlns="http://www.w3.org/2000/svg"
 xmlns:xlink="http://www.w3.org/1999/xlink"
 width="36px" height="37px">
<path fill-rule="evenodd"  fill="rgb(71, 77, 115)"
 d="M14.190,3.281 C16.731,3.281 19.273,3.281 21.814,3.281 C21.814,2.849 21.814,2.416 21.814,1.983 C21.814,1.689 21.809,1.440 21.882,1.224 C21.893,1.168 21.904,1.112 21.915,1.056 C22.039,0.775 22.217,0.533 22.455,0.365 C22.466,0.348 22.478,0.331 22.489,0.314 C22.500,0.314 22.511,0.314 22.523,0.314 C22.528,0.303 22.534,0.292 22.539,0.280 C22.556,0.275 22.573,0.269 22.590,0.263 C22.590,0.258 22.590,0.252 22.590,0.247 C22.612,0.241 22.635,0.235 22.657,0.230 C22.663,0.218 22.669,0.207 22.674,0.196 C22.686,0.196 22.697,0.196 22.708,0.196 C22.708,0.190 22.708,0.185 22.708,0.179 C22.719,0.179 22.731,0.179 22.742,0.179 C22.742,0.174 22.742,0.168 22.742,0.162 C22.759,0.162 22.776,0.162 22.792,0.162 C22.792,0.157 22.792,0.151 22.792,0.145 C22.815,0.140 22.837,0.134 22.860,0.129 C22.860,0.123 22.860,0.117 22.860,0.112 C22.877,0.112 22.894,0.112 22.910,0.112 C22.910,0.106 22.910,0.100 22.910,0.095 C22.927,0.095 22.944,0.095 22.961,0.095 C22.961,0.089 22.961,0.084 22.961,0.078 C22.984,0.078 23.006,0.078 23.029,0.078 C23.029,0.072 23.029,0.067 23.029,0.061 C23.051,0.061 23.074,0.061 23.096,0.061 C23.096,0.055 23.096,0.050 23.096,0.044 C23.119,0.044 23.141,0.044 23.163,0.044 C23.163,0.039 23.163,0.033 23.163,0.027 C23.208,0.027 23.253,0.027 23.298,0.027 C23.349,0.013 23.544,-0.011 23.619,0.011 C23.619,0.016 23.619,0.022 23.619,0.027 C23.658,0.027 23.698,0.027 23.737,0.027 C23.737,0.033 23.737,0.039 23.737,0.044 C23.765,0.044 23.793,0.044 23.821,0.044 C23.821,0.050 23.821,0.055 23.821,0.061 C23.844,0.061 23.866,0.061 23.889,0.061 C23.889,0.067 23.889,0.072 23.889,0.078 C23.906,0.078 23.923,0.078 23.939,0.078 C23.939,0.084 23.939,0.089 23.939,0.095 C23.956,0.095 23.973,0.095 23.990,0.095 C23.990,0.100 23.990,0.106 23.990,0.112 C24.007,0.112 24.024,0.112 24.041,0.112 C24.041,0.117 24.041,0.123 24.041,0.129 C24.057,0.129 24.074,0.129 24.091,0.129 C24.091,0.134 24.091,0.140 24.091,0.145 C24.114,0.151 24.136,0.157 24.159,0.162 C24.159,0.168 24.159,0.174 24.159,0.179 C24.170,0.179 24.181,0.179 24.192,0.179 C24.192,0.185 24.192,0.190 24.192,0.196 C24.204,0.196 24.215,0.196 24.226,0.196 C24.226,0.202 24.226,0.207 24.226,0.213 C24.237,0.213 24.249,0.213 24.260,0.213 C24.260,0.218 24.260,0.224 24.260,0.230 C24.271,0.230 24.282,0.230 24.294,0.230 C24.299,0.241 24.305,0.252 24.310,0.263 C24.322,0.263 24.333,0.263 24.344,0.263 C24.344,0.269 24.344,0.275 24.344,0.280 C24.361,0.286 24.378,0.292 24.395,0.297 C24.400,0.308 24.406,0.320 24.412,0.331 C24.423,0.331 24.434,0.331 24.445,0.331 C24.462,0.353 24.479,0.376 24.496,0.398 C24.507,0.398 24.518,0.398 24.530,0.398 C24.563,0.438 24.597,0.477 24.631,0.516 C24.653,0.533 24.676,0.550 24.698,0.567 C24.698,0.578 24.698,0.589 24.698,0.601 C24.721,0.617 24.743,0.634 24.766,0.651 C24.766,0.662 24.766,0.674 24.766,0.685 C24.783,0.696 24.800,0.707 24.816,0.719 C24.816,0.730 24.816,0.741 24.816,0.752 C24.828,0.758 24.839,0.764 24.850,0.769 C24.856,0.792 24.861,0.814 24.867,0.837 C24.878,0.842 24.890,0.848 24.901,0.854 C24.901,0.865 24.901,0.876 24.901,0.887 C24.906,0.887 24.912,0.887 24.918,0.887 C24.923,0.910 24.929,0.932 24.935,0.955 C24.940,0.955 24.946,0.955 24.951,0.955 C24.991,1.078 25.030,1.202 25.069,1.326 C25.075,1.449 25.081,1.573 25.086,1.697 C25.086,1.938 25.086,2.180 25.086,2.422 C25.086,2.708 25.086,2.995 25.086,3.281 C27.594,3.281 30.102,3.281 32.609,3.281 C33.076,3.281 33.543,3.281 34.009,3.281 C34.226,3.281 34.483,3.265 34.650,3.315 C34.678,3.315 34.706,3.315 34.734,3.315 C35.132,3.441 35.428,3.616 35.645,3.922 C35.662,3.933 35.679,3.945 35.696,3.956 C35.696,3.967 35.696,3.978 35.696,3.990 C35.707,3.995 35.718,4.001 35.730,4.006 C35.735,4.023 35.741,4.040 35.746,4.057 C35.752,4.057 35.758,4.057 35.763,4.057 C35.769,4.079 35.775,4.102 35.780,4.124 C35.791,4.130 35.803,4.136 35.814,4.141 C35.814,4.153 35.814,4.164 35.814,4.175 C35.820,4.175 35.825,4.175 35.831,4.175 C35.836,4.197 35.842,4.220 35.848,4.242 C35.853,4.242 35.859,4.242 35.865,4.242 C35.865,4.259 35.865,4.276 35.865,4.293 C35.870,4.293 35.876,4.293 35.881,4.293 C35.881,4.304 35.881,4.315 35.881,4.327 C35.887,4.327 35.893,4.327 35.898,4.327 C35.910,4.383 35.921,4.439 35.932,4.495 C36.010,4.716 35.999,5.016 35.999,5.321 C35.999,5.726 35.999,6.131 35.999,6.535 C35.999,8.171 35.999,9.806 35.999,11.442 C35.999,17.207 35.999,22.975 35.999,28.740 C35.999,30.156 35.999,31.573 35.999,32.989 C35.999,33.354 35.999,33.720 35.999,34.085 C35.999,34.361 36.000,34.575 35.932,34.776 C35.921,34.832 35.910,34.888 35.898,34.945 C35.775,35.226 35.596,35.468 35.359,35.636 C35.347,35.653 35.336,35.670 35.325,35.687 C35.314,35.687 35.302,35.687 35.291,35.687 C35.285,35.698 35.280,35.709 35.274,35.720 C35.257,35.726 35.240,35.731 35.224,35.737 C35.224,35.743 35.224,35.748 35.224,35.754 C35.201,35.760 35.179,35.765 35.156,35.771 C35.150,35.782 35.145,35.793 35.139,35.805 C35.128,35.805 35.117,35.805 35.106,35.805 C35.106,35.810 35.106,35.816 35.106,35.821 C35.094,35.821 35.083,35.821 35.072,35.821 C35.072,35.827 35.072,35.833 35.072,35.838 C35.055,35.838 35.038,35.838 35.021,35.838 C35.021,35.844 35.021,35.849 35.021,35.855 C34.999,35.861 34.976,35.866 34.954,35.872 C34.954,35.878 34.954,35.883 34.954,35.889 C34.937,35.889 34.920,35.889 34.903,35.889 C34.903,35.894 34.903,35.900 34.903,35.906 C34.886,35.906 34.869,35.906 34.852,35.906 C34.852,35.911 34.852,35.917 34.852,35.923 C34.830,35.923 34.808,35.923 34.785,35.923 C34.785,35.928 34.785,35.934 34.785,35.939 C34.763,35.939 34.740,35.939 34.718,35.939 C34.718,35.945 34.718,35.951 34.718,35.956 C34.695,35.956 34.673,35.956 34.650,35.956 C34.650,35.962 34.650,35.968 34.650,35.973 C34.605,35.973 34.560,35.973 34.515,35.973 C34.347,36.020 34.042,35.990 33.840,35.990 C33.273,35.990 32.705,35.990 32.137,35.990 C30.276,35.990 28.415,35.990 26.554,35.990 C20.448,35.990 14.341,35.990 8.236,35.990 C6.516,35.990 4.795,35.990 3.075,35.990 C2.692,35.990 2.310,35.990 1.928,35.990 C1.736,35.984 1.545,35.979 1.354,35.973 C1.354,35.968 1.354,35.962 1.354,35.956 C1.332,35.956 1.309,35.956 1.287,35.956 C1.287,35.951 1.287,35.945 1.287,35.939 C1.264,35.939 1.242,35.939 1.219,35.939 C1.219,35.934 1.219,35.928 1.219,35.923 C1.197,35.923 1.174,35.923 1.152,35.923 C1.152,35.917 1.152,35.911 1.152,35.906 C1.135,35.906 1.118,35.906 1.101,35.906 C1.101,35.900 1.101,35.894 1.101,35.889 C1.084,35.889 1.067,35.889 1.051,35.889 C1.051,35.883 1.051,35.878 1.051,35.872 C1.028,35.866 1.006,35.861 0.983,35.855 C0.983,35.849 0.983,35.844 0.983,35.838 C0.966,35.838 0.949,35.838 0.932,35.838 C0.932,35.833 0.932,35.827 0.932,35.821 C0.921,35.821 0.910,35.821 0.899,35.821 C0.899,35.816 0.899,35.810 0.899,35.805 C0.887,35.805 0.876,35.805 0.865,35.805 C0.859,35.793 0.854,35.782 0.848,35.771 C0.826,35.765 0.803,35.760 0.781,35.754 C0.781,35.748 0.781,35.743 0.781,35.737 C0.764,35.731 0.747,35.726 0.730,35.720 C0.724,35.709 0.719,35.698 0.713,35.687 C0.702,35.687 0.691,35.687 0.679,35.687 C0.668,35.670 0.657,35.653 0.646,35.636 C0.634,35.636 0.623,35.636 0.612,35.636 C0.567,35.585 0.522,35.535 0.477,35.484 C0.438,35.450 0.398,35.417 0.359,35.383 C0.359,35.372 0.359,35.361 0.359,35.349 C0.342,35.338 0.325,35.327 0.308,35.316 C0.308,35.304 0.308,35.293 0.308,35.282 C0.297,35.276 0.286,35.271 0.275,35.265 C0.275,35.254 0.275,35.243 0.275,35.231 C0.263,35.226 0.252,35.220 0.241,35.214 C0.235,35.192 0.230,35.169 0.224,35.147 C0.213,35.141 0.202,35.136 0.190,35.130 C0.190,35.119 0.190,35.108 0.190,35.096 C0.185,35.096 0.179,35.096 0.173,35.096 C0.173,35.085 0.173,35.074 0.173,35.063 C0.168,35.063 0.162,35.063 0.157,35.063 C0.157,35.046 0.157,35.029 0.157,35.012 C0.151,35.012 0.145,35.012 0.140,35.012 C0.134,34.990 0.128,34.967 0.123,34.945 C0.117,34.945 0.112,34.945 0.106,34.945 C0.106,34.928 0.106,34.911 0.106,34.894 C0.100,34.894 0.095,34.894 0.089,34.894 C0.089,34.877 0.089,34.860 0.089,34.844 C0.083,34.844 0.078,34.844 0.072,34.844 C0.072,34.821 0.072,34.799 0.072,34.776 C0.067,34.776 0.061,34.776 0.055,34.776 C0.055,34.754 0.055,34.731 0.055,34.709 C0.050,34.709 0.044,34.709 0.038,34.709 C0.038,34.686 0.038,34.664 0.038,34.641 C0.033,34.641 0.027,34.641 0.022,34.641 C0.022,34.596 0.022,34.551 0.022,34.506 C-0.014,34.380 0.005,34.173 0.005,34.017 C0.005,33.596 0.005,33.174 0.005,32.753 C0.005,31.157 0.005,29.561 0.005,27.965 C0.005,22.300 0.005,16.634 0.005,10.970 C0.005,9.340 0.005,7.710 0.005,6.080 C0.005,5.760 0.005,5.439 0.005,5.119 C0.010,4.956 0.016,4.793 0.022,4.630 C0.027,4.630 0.033,4.630 0.038,4.630 C0.038,4.602 0.038,4.574 0.038,4.546 C0.044,4.546 0.050,4.546 0.055,4.546 C0.061,4.507 0.067,4.467 0.072,4.428 C0.078,4.428 0.083,4.428 0.089,4.428 C0.089,4.411 0.089,4.394 0.089,4.377 C0.095,4.377 0.100,4.377 0.106,4.377 C0.106,4.360 0.106,4.344 0.106,4.327 C0.112,4.327 0.117,4.327 0.123,4.327 C0.123,4.315 0.123,4.304 0.123,4.293 C0.128,4.293 0.134,4.293 0.140,4.293 C0.157,4.242 0.173,4.192 0.190,4.141 C0.202,4.136 0.213,4.130 0.224,4.124 C0.230,4.102 0.235,4.079 0.241,4.057 C0.247,4.057 0.252,4.057 0.258,4.057 C0.263,4.040 0.269,4.023 0.275,4.006 C0.286,4.001 0.297,3.995 0.308,3.990 C0.308,3.978 0.308,3.967 0.308,3.956 C0.325,3.945 0.342,3.933 0.359,3.922 C0.359,3.911 0.359,3.900 0.359,3.888 C0.410,3.843 0.460,3.798 0.511,3.753 C0.544,3.714 0.578,3.675 0.612,3.635 C0.623,3.635 0.634,3.635 0.646,3.635 C0.657,3.619 0.668,3.602 0.679,3.585 C0.691,3.585 0.702,3.585 0.713,3.585 C0.719,3.574 0.724,3.562 0.730,3.551 C0.741,3.551 0.753,3.551 0.764,3.551 C0.769,3.540 0.775,3.529 0.781,3.517 C0.798,3.512 0.814,3.506 0.831,3.501 C0.831,3.495 0.831,3.489 0.831,3.484 C0.854,3.478 0.876,3.472 0.899,3.467 C0.899,3.461 0.899,3.456 0.899,3.450 C0.921,3.444 0.944,3.439 0.966,3.433 C0.966,3.428 0.966,3.422 0.966,3.416 C0.994,3.411 1.022,3.405 1.051,3.399 C1.051,3.394 1.051,3.388 1.051,3.383 C1.101,3.371 1.152,3.360 1.202,3.349 C1.202,3.343 1.202,3.338 1.202,3.332 C1.253,3.326 1.304,3.321 1.354,3.315 C1.354,3.309 1.354,3.304 1.354,3.298 C1.393,3.298 1.433,3.298 1.472,3.298 C1.646,3.249 1.925,3.281 2.130,3.281 C2.675,3.281 3.221,3.281 3.766,3.281 C6.150,3.281 8.534,3.281 10.918,3.281 C10.918,2.837 10.918,2.393 10.918,1.949 C10.918,1.687 10.898,1.388 10.968,1.191 C10.974,1.191 10.980,1.191 10.985,1.191 C10.985,1.174 10.985,1.157 10.985,1.140 C10.991,1.140 10.997,1.140 11.002,1.140 C11.002,1.123 11.002,1.106 11.002,1.090 C11.008,1.090 11.013,1.090 11.019,1.090 C11.019,1.073 11.019,1.056 11.019,1.039 C11.025,1.039 11.030,1.039 11.036,1.039 C11.036,1.028 11.036,1.017 11.036,1.005 C11.042,1.005 11.047,1.005 11.053,1.005 C11.070,0.955 11.087,0.904 11.103,0.854 C11.115,0.848 11.126,0.842 11.137,0.837 C11.143,0.814 11.148,0.792 11.154,0.769 C11.165,0.764 11.176,0.758 11.188,0.752 C11.188,0.741 11.188,0.730 11.188,0.719 C11.199,0.713 11.210,0.707 11.221,0.702 C11.227,0.685 11.233,0.668 11.238,0.651 C11.261,0.634 11.283,0.617 11.306,0.601 C11.306,0.589 11.306,0.578 11.306,0.567 C11.351,0.528 11.396,0.488 11.441,0.449 C11.452,0.432 11.463,0.415 11.474,0.398 C11.486,0.398 11.497,0.398 11.508,0.398 C11.525,0.376 11.542,0.353 11.559,0.331 C11.570,0.331 11.581,0.331 11.593,0.331 C11.598,0.320 11.604,0.308 11.609,0.297 C11.626,0.292 11.643,0.286 11.660,0.280 C11.660,0.275 11.660,0.269 11.660,0.263 C11.671,0.263 11.683,0.263 11.694,0.263 C11.699,0.252 11.705,0.241 11.711,0.230 C11.733,0.224 11.756,0.218 11.778,0.213 C11.778,0.207 11.778,0.202 11.778,0.196 C11.789,0.196 11.801,0.196 11.812,0.196 C11.812,0.190 11.812,0.185 11.812,0.179 C11.846,0.168 11.879,0.157 11.913,0.145 C11.913,0.140 11.913,0.134 11.913,0.129 C11.930,0.129 11.947,0.129 11.964,0.129 C11.964,0.123 11.964,0.117 11.964,0.112 C11.980,0.112 11.997,0.112 12.014,0.112 C12.014,0.106 12.014,0.100 12.014,0.095 C12.031,0.095 12.048,0.095 12.065,0.095 C12.065,0.089 12.065,0.084 12.065,0.078 C12.082,0.078 12.099,0.078 12.115,0.078 C12.115,0.072 12.115,0.067 12.115,0.061 C12.138,0.061 12.160,0.061 12.183,0.061 C12.183,0.055 12.183,0.050 12.183,0.044 C12.250,0.039 12.318,0.033 12.385,0.027 C12.446,0.010 12.619,-0.014 12.706,0.011 C12.706,0.016 12.706,0.022 12.706,0.027 C12.751,0.027 12.796,0.027 12.841,0.027 C12.841,0.033 12.841,0.039 12.841,0.044 C12.863,0.044 12.886,0.044 12.908,0.044 C12.908,0.050 12.908,0.055 12.908,0.061 C12.931,0.061 12.953,0.061 12.976,0.061 C12.976,0.067 12.976,0.072 12.976,0.078 C12.998,0.078 13.021,0.078 13.043,0.078 C13.043,0.084 13.043,0.089 13.043,0.095 C13.060,0.095 13.077,0.095 13.094,0.095 C13.094,0.100 13.094,0.106 13.094,0.112 C13.111,0.112 13.127,0.112 13.144,0.112 C13.144,0.117 13.144,0.123 13.144,0.129 C13.167,0.134 13.189,0.140 13.212,0.145 C13.212,0.151 13.212,0.157 13.212,0.162 C13.229,0.162 13.246,0.162 13.262,0.162 C13.262,0.168 13.262,0.174 13.262,0.179 C13.274,0.179 13.285,0.179 13.296,0.179 C13.296,0.185 13.296,0.190 13.296,0.196 C13.307,0.196 13.319,0.196 13.330,0.196 C13.335,0.207 13.341,0.218 13.347,0.230 C13.369,0.235 13.392,0.241 13.414,0.247 C13.420,0.258 13.425,0.269 13.431,0.280 C13.442,0.280 13.454,0.280 13.465,0.280 C13.470,0.292 13.476,0.303 13.482,0.314 C13.493,0.314 13.504,0.314 13.515,0.314 C13.527,0.331 13.538,0.348 13.549,0.365 C13.560,0.365 13.572,0.365 13.583,0.365 C13.639,0.426 13.695,0.488 13.752,0.550 C13.780,0.573 13.808,0.595 13.836,0.618 C13.836,0.629 13.836,0.640 13.836,0.651 C13.853,0.662 13.870,0.674 13.886,0.685 C13.886,0.696 13.886,0.707 13.886,0.719 C13.898,0.724 13.909,0.730 13.920,0.736 C13.926,0.752 13.931,0.769 13.937,0.786 C13.943,0.786 13.948,0.786 13.954,0.786 C13.960,0.809 13.965,0.831 13.971,0.854 C13.982,0.859 13.993,0.865 14.005,0.870 C14.005,0.882 14.005,0.893 14.005,0.904 C14.010,0.904 14.016,0.904 14.021,0.904 C14.021,0.915 14.021,0.927 14.021,0.938 C14.027,0.938 14.033,0.938 14.038,0.938 C14.038,0.955 14.038,0.972 14.038,0.988 C14.044,0.988 14.050,0.988 14.055,0.988 C14.061,1.011 14.066,1.033 14.072,1.056 C14.078,1.056 14.083,1.056 14.089,1.056 C14.089,1.073 14.089,1.090 14.089,1.106 C14.095,1.106 14.100,1.106 14.106,1.106 C14.106,1.123 14.106,1.140 14.106,1.157 C14.111,1.157 14.117,1.157 14.123,1.157 C14.123,1.180 14.123,1.202 14.123,1.224 C14.128,1.224 14.134,1.224 14.140,1.224 C14.140,1.247 14.140,1.269 14.140,1.292 C14.145,1.292 14.151,1.292 14.156,1.292 C14.156,1.320 14.156,1.348 14.156,1.376 C14.162,1.376 14.168,1.376 14.173,1.376 C14.173,1.416 14.173,1.455 14.173,1.494 C14.179,1.494 14.184,1.494 14.190,1.494 C14.190,1.803 14.190,2.112 14.190,2.422 C14.190,2.708 14.190,2.995 14.190,3.281 ZM3.277,6.552 C3.277,7.642 3.277,8.733 3.277,9.823 C13.093,9.823 22.911,9.823 32.727,9.823 C32.727,8.733 32.727,7.642 32.727,6.552 C22.911,6.552 13.093,6.552 3.277,6.552 ZM3.277,13.094 C3.277,19.635 3.277,26.178 3.277,32.719 C13.093,32.719 22.911,32.719 32.727,32.719 C32.727,26.178 32.727,19.635 32.727,13.094 C22.911,13.094 13.093,13.094 3.277,13.094 ZM8.101,23.986 C8.680,23.986 9.259,23.986 9.838,23.986 C10.095,23.986 10.408,23.959 10.614,24.019 C10.648,24.019 10.682,24.019 10.715,24.019 C10.715,24.025 10.715,24.031 10.715,24.036 C10.738,24.036 10.760,24.036 10.783,24.036 C10.783,24.042 10.783,24.047 10.783,24.053 C10.800,24.053 10.817,24.053 10.834,24.053 C10.834,24.059 10.834,24.064 10.834,24.070 C10.856,24.070 10.879,24.070 10.901,24.070 C10.901,24.076 10.901,24.081 10.901,24.087 C10.912,24.087 10.923,24.087 10.935,24.087 C10.935,24.092 10.935,24.098 10.935,24.104 C10.952,24.104 10.968,24.104 10.985,24.104 C10.985,24.109 10.985,24.115 10.985,24.120 C10.997,24.120 11.008,24.120 11.019,24.120 C11.019,24.126 11.019,24.132 11.019,24.137 C11.070,24.154 11.120,24.171 11.171,24.188 C11.176,24.199 11.182,24.210 11.188,24.222 C11.210,24.227 11.233,24.233 11.255,24.239 C11.261,24.250 11.266,24.261 11.272,24.272 C11.283,24.272 11.295,24.272 11.306,24.272 C11.311,24.283 11.317,24.295 11.323,24.306 C11.340,24.312 11.356,24.317 11.373,24.323 C11.396,24.351 11.418,24.379 11.441,24.407 C11.452,24.407 11.463,24.407 11.474,24.407 C11.503,24.441 11.531,24.475 11.559,24.508 C11.570,24.514 11.581,24.520 11.593,24.525 C11.593,24.536 11.593,24.548 11.593,24.559 C11.621,24.581 11.649,24.604 11.677,24.626 C11.812,24.814 11.905,25.037 11.980,25.284 C11.980,25.318 11.980,25.351 11.980,25.385 C12.025,25.540 12.014,25.759 12.014,25.958 C12.014,26.363 12.014,26.768 12.014,27.172 C12.014,27.535 12.038,27.946 11.947,28.217 C11.936,28.274 11.924,28.330 11.913,28.386 C11.792,28.667 11.625,28.908 11.390,29.077 C11.373,29.100 11.356,29.122 11.340,29.145 C11.328,29.145 11.317,29.145 11.306,29.145 C11.300,29.156 11.295,29.167 11.289,29.179 C11.278,29.179 11.266,29.179 11.255,29.179 C11.250,29.190 11.244,29.201 11.238,29.212 C11.205,29.223 11.171,29.235 11.137,29.246 C11.132,29.257 11.126,29.268 11.120,29.280 C11.092,29.285 11.064,29.291 11.036,29.297 C11.036,29.302 11.036,29.308 11.036,29.313 C11.013,29.319 10.991,29.325 10.968,29.330 C10.968,29.336 10.968,29.341 10.968,29.347 C10.952,29.347 10.935,29.347 10.918,29.347 C10.918,29.353 10.918,29.358 10.918,29.364 C10.901,29.364 10.884,29.364 10.867,29.364 C10.867,29.370 10.867,29.375 10.867,29.381 C10.828,29.386 10.789,29.392 10.749,29.398 C10.749,29.403 10.749,29.409 10.749,29.415 C10.721,29.415 10.693,29.415 10.665,29.415 C10.665,29.420 10.665,29.426 10.665,29.431 C10.625,29.431 10.586,29.431 10.547,29.431 C10.547,29.437 10.547,29.443 10.547,29.448 C10.181,29.448 9.816,29.448 9.450,29.448 C9.102,29.448 8.753,29.448 8.405,29.448 C8.226,29.448 8.032,29.455 7.899,29.415 C7.871,29.415 7.842,29.415 7.814,29.415 C7.469,29.305 7.162,29.156 6.971,28.892 C6.943,28.869 6.915,28.847 6.887,28.824 C6.887,28.813 6.887,28.802 6.887,28.791 C6.870,28.779 6.853,28.768 6.836,28.757 C6.836,28.746 6.836,28.735 6.836,28.723 C6.825,28.718 6.813,28.712 6.802,28.706 C6.797,28.684 6.791,28.661 6.785,28.639 C6.774,28.633 6.763,28.628 6.752,28.622 C6.746,28.600 6.740,28.577 6.735,28.555 C6.729,28.555 6.724,28.555 6.718,28.555 C6.712,28.532 6.707,28.510 6.701,28.487 C6.695,28.487 6.690,28.487 6.684,28.487 C6.684,28.470 6.684,28.454 6.684,28.437 C6.679,28.437 6.673,28.437 6.667,28.437 C6.667,28.425 6.667,28.414 6.667,28.403 C6.662,28.403 6.656,28.403 6.650,28.403 C6.650,28.386 6.650,28.369 6.650,28.352 C6.645,28.352 6.639,28.352 6.634,28.352 C6.634,28.336 6.634,28.319 6.634,28.302 C6.628,28.302 6.622,28.302 6.617,28.302 C6.617,28.285 6.617,28.268 6.617,28.251 C6.611,28.251 6.605,28.251 6.600,28.251 C6.600,28.229 6.600,28.206 6.600,28.184 C6.594,28.184 6.589,28.184 6.583,28.184 C6.583,28.156 6.583,28.128 6.583,28.099 C6.545,27.974 6.549,27.797 6.549,27.627 C6.549,27.307 6.549,26.987 6.549,26.666 C6.549,26.369 6.549,26.071 6.549,25.773 C6.549,25.610 6.546,25.455 6.583,25.334 C6.583,25.306 6.583,25.278 6.583,25.250 C6.589,25.250 6.594,25.250 6.600,25.250 C6.600,25.233 6.600,25.216 6.600,25.200 C6.605,25.200 6.611,25.200 6.617,25.200 C6.628,25.143 6.639,25.087 6.650,25.031 C6.656,25.031 6.662,25.031 6.667,25.031 C6.673,25.008 6.679,24.986 6.684,24.963 C6.690,24.963 6.695,24.963 6.701,24.963 C6.707,24.935 6.712,24.907 6.718,24.879 C6.729,24.874 6.740,24.868 6.752,24.862 C6.763,24.829 6.774,24.795 6.785,24.761 C6.791,24.761 6.797,24.761 6.802,24.761 C6.808,24.744 6.813,24.727 6.819,24.711 C6.830,24.705 6.842,24.699 6.853,24.694 C6.853,24.682 6.853,24.671 6.853,24.660 C6.875,24.643 6.898,24.626 6.920,24.609 C6.920,24.598 6.920,24.587 6.920,24.576 C6.960,24.542 6.999,24.508 7.038,24.475 C7.072,24.435 7.106,24.396 7.140,24.357 C7.151,24.357 7.162,24.357 7.173,24.357 C7.185,24.340 7.196,24.323 7.207,24.306 C7.218,24.306 7.230,24.306 7.241,24.306 C7.246,24.295 7.252,24.283 7.258,24.272 C7.269,24.272 7.280,24.272 7.291,24.272 C7.297,24.261 7.303,24.250 7.308,24.239 C7.320,24.239 7.331,24.239 7.342,24.239 C7.348,24.227 7.353,24.216 7.359,24.205 C7.381,24.199 7.404,24.194 7.426,24.188 C7.426,24.182 7.426,24.177 7.426,24.171 C7.460,24.160 7.494,24.149 7.528,24.137 C7.528,24.132 7.528,24.126 7.528,24.120 C7.662,24.081 7.797,24.042 7.932,24.002 C7.992,23.985 8.063,24.019 8.101,23.986 Z"/>
</svg>