<svg 
 xmlns="http://www.w3.org/2000/svg"
 xmlns:xlink="http://www.w3.org/1999/xlink"
 width="10px" height="20px">
<path fill-rule="evenodd"  fill="rgb(218, 219, 221)"
 d="M9.615,0.007 L7.215,0.001 C4.522,0.001 2.781,1.934 2.781,4.922 L2.781,7.189 L0.370,7.189 C0.162,7.189 -0.007,7.372 -0.007,7.597 L-0.007,10.883 C-0.007,11.109 0.162,11.290 0.370,11.290 L2.780,11.290 L2.780,19.581 C2.780,19.808 2.950,19.989 3.156,19.989 L6.304,19.989 C6.512,19.989 6.682,19.808 6.682,19.581 L6.682,11.290 L9.500,11.290 C9.707,11.290 9.876,11.109 9.876,10.883 L9.878,7.597 C9.878,7.489 9.838,7.384 9.768,7.308 C9.697,7.231 9.602,7.189 9.502,7.189 L6.682,7.189 L6.682,5.266 C6.682,4.342 6.885,3.873 7.998,3.873 L9.613,3.872 C9.822,3.872 9.992,3.689 9.992,3.467 L9.992,0.417 C9.992,0.187 9.822,0.007 9.615,0.007 Z"/>
</svg>