<svg 
 xmlns="http://www.w3.org/2000/svg"
 xmlns:xlink="http://www.w3.org/1999/xlink"
 width="48px" height="37px">
<path fill-rule="evenodd"  fill="rgb(71, 77, 115)"
 d="M40.804,12.020 C41.407,12.020 42.011,12.020 42.614,12.020 C42.894,12.020 43.214,11.999 43.434,12.063 C43.484,12.063 43.534,12.063 43.585,12.063 C43.585,12.070 43.585,12.077 43.585,12.084 C43.656,12.092 43.728,12.099 43.800,12.106 C43.800,12.113 43.800,12.120 43.800,12.128 C43.829,12.128 43.858,12.128 43.886,12.128 C43.886,12.135 43.886,12.142 43.886,12.149 C43.915,12.149 43.944,12.149 43.973,12.149 C43.973,12.156 43.973,12.164 43.973,12.171 C43.994,12.171 44.016,12.171 44.037,12.171 C44.037,12.178 44.037,12.185 44.037,12.192 C44.066,12.192 44.095,12.192 44.123,12.192 C44.123,12.200 44.123,12.207 44.123,12.214 C44.167,12.221 44.210,12.229 44.253,12.236 C44.253,12.243 44.253,12.250 44.253,12.257 C44.267,12.257 44.282,12.257 44.296,12.257 C44.296,12.265 44.296,12.272 44.296,12.279 C44.339,12.286 44.382,12.293 44.425,12.301 C44.425,12.308 44.425,12.315 44.425,12.322 C44.440,12.322 44.454,12.322 44.468,12.322 C44.468,12.329 44.468,12.337 44.468,12.344 C44.490,12.344 44.511,12.344 44.533,12.344 C44.533,12.351 44.533,12.358 44.533,12.365 C44.576,12.380 44.619,12.394 44.662,12.409 C44.662,12.416 44.662,12.423 44.662,12.430 C44.677,12.430 44.691,12.430 44.705,12.430 C44.705,12.437 44.705,12.445 44.705,12.452 C44.720,12.452 44.734,12.452 44.749,12.452 C44.749,12.459 44.749,12.466 44.749,12.473 C44.763,12.473 44.777,12.473 44.792,12.473 C44.792,12.481 44.792,12.488 44.792,12.495 C44.806,12.495 44.820,12.495 44.835,12.495 C44.835,12.502 44.835,12.509 44.835,12.517 C44.849,12.517 44.864,12.517 44.878,12.517 C44.878,12.524 44.878,12.531 44.878,12.538 C44.892,12.538 44.907,12.538 44.921,12.538 C44.928,12.553 44.935,12.567 44.943,12.581 C44.971,12.589 45.000,12.596 45.029,12.603 C45.029,12.610 45.029,12.618 45.029,12.625 C45.050,12.632 45.072,12.639 45.094,12.646 C45.101,12.661 45.108,12.675 45.115,12.690 C45.129,12.690 45.144,12.690 45.158,12.690 C45.165,12.704 45.173,12.718 45.180,12.733 C45.194,12.733 45.208,12.733 45.223,12.733 C45.230,12.747 45.237,12.762 45.244,12.776 C45.259,12.776 45.273,12.776 45.288,12.776 C45.295,12.790 45.302,12.805 45.309,12.819 C45.331,12.826 45.352,12.834 45.374,12.841 C45.388,12.862 45.403,12.884 45.417,12.906 C45.431,12.906 45.446,12.906 45.460,12.906 C45.489,12.942 45.517,12.978 45.546,13.014 C45.561,13.014 45.575,13.014 45.589,13.014 C45.654,13.086 45.719,13.158 45.783,13.230 C45.862,13.302 45.941,13.374 46.020,13.446 C46.020,13.460 46.020,13.475 46.020,13.489 C46.049,13.511 46.078,13.532 46.107,13.554 C46.107,13.568 46.107,13.583 46.107,13.597 C46.135,13.619 46.164,13.640 46.193,13.662 C46.193,13.676 46.193,13.691 46.193,13.705 C46.207,13.713 46.222,13.720 46.236,13.727 C46.236,13.741 46.236,13.756 46.236,13.770 C46.258,13.785 46.279,13.799 46.301,13.813 C46.301,13.828 46.301,13.842 46.301,13.857 C46.315,13.864 46.329,13.871 46.344,13.878 C46.351,13.907 46.358,13.936 46.365,13.965 C46.380,13.972 46.394,13.979 46.409,13.986 C46.416,14.015 46.423,14.044 46.430,14.073 C46.444,14.080 46.459,14.087 46.473,14.094 C46.473,14.109 46.473,14.123 46.473,14.138 C46.480,14.138 46.488,14.138 46.495,14.138 C46.495,14.152 46.495,14.166 46.495,14.181 C46.502,14.181 46.509,14.181 46.516,14.181 C46.516,14.195 46.516,14.210 46.516,14.224 C46.523,14.224 46.531,14.224 46.538,14.224 C46.538,14.238 46.538,14.253 46.538,14.267 C46.545,14.267 46.552,14.267 46.559,14.267 C46.559,14.282 46.559,14.296 46.559,14.310 C46.567,14.310 46.574,14.310 46.581,14.310 C46.581,14.325 46.581,14.339 46.581,14.354 C46.588,14.354 46.595,14.354 46.603,14.354 C46.617,14.397 46.631,14.440 46.646,14.483 C46.653,14.483 46.660,14.483 46.667,14.483 C46.667,14.505 46.667,14.527 46.667,14.548 C46.674,14.548 46.682,14.548 46.689,14.548 C46.689,14.563 46.689,14.577 46.689,14.591 C46.696,14.591 46.703,14.591 46.710,14.591 C46.710,14.613 46.710,14.635 46.710,14.656 C46.718,14.656 46.725,14.656 46.732,14.656 C46.732,14.671 46.732,14.685 46.732,14.699 C46.739,14.699 46.746,14.699 46.753,14.699 C46.753,14.721 46.753,14.743 46.753,14.764 C46.761,14.764 46.768,14.764 46.775,14.764 C46.775,14.786 46.775,14.808 46.775,14.829 C46.782,14.829 46.789,14.829 46.797,14.829 C46.797,14.851 46.797,14.872 46.797,14.894 C46.804,14.894 46.811,14.894 46.818,14.894 C46.818,14.916 46.818,14.937 46.818,14.959 C46.825,14.959 46.832,14.959 46.840,14.959 C46.840,14.988 46.840,15.016 46.840,15.045 C46.847,15.045 46.854,15.045 46.861,15.045 C46.861,15.074 46.861,15.103 46.861,15.132 C46.868,15.132 46.876,15.132 46.883,15.132 C46.883,15.161 46.883,15.189 46.883,15.218 C46.890,15.218 46.897,15.218 46.904,15.218 C46.904,15.254 46.904,15.290 46.904,15.326 C46.912,15.326 46.919,15.326 46.926,15.326 C46.926,15.362 46.926,15.398 46.926,15.434 C46.933,15.434 46.940,15.434 46.947,15.434 C46.947,15.477 46.947,15.521 46.947,15.564 C47.029,15.845 46.991,16.275 46.991,16.623 C46.991,17.394 46.991,18.165 46.991,18.935 C46.991,19.922 46.991,20.909 46.991,21.896 C46.991,23.337 46.991,24.778 46.991,26.219 C46.991,26.701 46.991,27.184 46.991,27.667 C46.991,27.973 47.008,28.301 46.926,28.531 C46.738,29.056 46.360,29.432 45.848,29.633 C45.819,29.633 45.791,29.633 45.762,29.633 C45.762,29.640 45.762,29.648 45.762,29.655 C45.740,29.655 45.719,29.655 45.697,29.655 C45.697,29.662 45.697,29.669 45.697,29.676 C45.661,29.676 45.625,29.676 45.589,29.676 C45.589,29.684 45.589,29.691 45.589,29.698 C45.467,29.705 45.345,29.713 45.223,29.720 C45.223,29.713 45.223,29.705 45.223,29.698 C45.158,29.698 45.094,29.698 45.029,29.698 C45.029,29.691 45.029,29.684 45.029,29.676 C44.993,29.676 44.957,29.676 44.921,29.676 C44.921,29.669 44.921,29.662 44.921,29.655 C44.892,29.655 44.864,29.655 44.835,29.655 C44.335,29.477 43.987,29.172 43.757,28.726 C43.750,28.690 43.743,28.654 43.735,28.618 C43.728,28.618 43.721,28.618 43.714,28.618 C43.714,28.603 43.714,28.589 43.714,28.574 C43.707,28.574 43.699,28.574 43.692,28.574 C43.685,28.524 43.678,28.473 43.671,28.423 C43.592,28.187 43.606,27.858 43.606,27.537 C43.606,26.939 43.606,26.341 43.606,25.743 C43.606,23.424 43.606,21.104 43.606,18.784 C43.606,18.064 43.606,17.343 43.606,16.623 C43.606,16.316 43.640,15.950 43.520,15.758 C43.505,15.751 43.491,15.744 43.477,15.737 C43.477,15.722 43.477,15.708 43.477,15.694 C43.462,15.686 43.448,15.679 43.434,15.672 C43.405,15.636 43.376,15.600 43.347,15.564 C43.333,15.564 43.319,15.564 43.304,15.564 C43.297,15.550 43.290,15.535 43.283,15.521 C43.116,15.415 42.865,15.434 42.593,15.434 C42.212,15.434 41.831,15.434 41.450,15.434 C39.862,15.434 38.274,15.434 36.686,15.434 C36.162,15.434 35.637,15.434 35.112,15.434 C35.112,15.441 35.112,15.449 35.112,15.456 C35.091,15.456 35.069,15.456 35.048,15.456 C35.048,15.463 35.048,15.470 35.048,15.477 C35.033,15.477 35.019,15.477 35.005,15.477 C35.005,15.485 35.005,15.492 35.005,15.499 C34.962,15.514 34.918,15.528 34.875,15.542 C34.839,15.586 34.803,15.629 34.768,15.672 C34.746,15.686 34.724,15.701 34.703,15.715 C34.548,15.946 34.595,16.415 34.595,16.796 C34.595,17.624 34.595,18.453 34.595,19.281 C34.595,22.436 34.595,25.592 34.595,28.747 C34.595,29.561 34.595,30.375 34.595,31.189 C34.595,31.470 34.595,31.751 34.595,32.032 C34.602,32.032 34.609,32.032 34.617,32.032 C34.624,32.075 34.631,32.119 34.638,32.162 C34.645,32.162 34.653,32.162 34.660,32.162 C34.660,32.176 34.660,32.191 34.660,32.205 C34.674,32.212 34.689,32.219 34.703,32.227 C34.703,32.241 34.703,32.256 34.703,32.270 C34.717,32.277 34.732,32.284 34.746,32.292 C34.746,32.306 34.746,32.320 34.746,32.335 C34.768,32.349 34.789,32.364 34.811,32.378 C34.811,32.385 34.811,32.392 34.811,32.400 C34.825,32.400 34.839,32.400 34.854,32.400 C34.868,32.421 34.883,32.443 34.897,32.464 C34.940,32.479 34.983,32.493 35.026,32.508 C35.026,32.515 35.026,32.522 35.026,32.529 C35.175,32.594 35.442,32.572 35.651,32.572 C36.075,32.572 36.499,32.572 36.923,32.572 C38.497,32.572 40.071,32.572 41.644,32.572 C42.133,32.572 42.622,32.572 43.110,32.572 C43.110,32.580 43.110,32.587 43.110,32.594 C43.153,32.594 43.196,32.594 43.240,32.594 C43.240,32.601 43.240,32.609 43.240,32.616 C43.268,32.616 43.297,32.616 43.326,32.616 C43.326,32.623 43.326,32.630 43.326,32.637 C43.355,32.637 43.383,32.637 43.412,32.637 C43.412,32.645 43.412,32.652 43.412,32.659 C43.434,32.659 43.455,32.659 43.477,32.659 C43.477,32.666 43.477,32.673 43.477,32.681 C43.498,32.681 43.520,32.681 43.541,32.681 C43.541,32.688 43.541,32.695 43.541,32.702 C43.585,32.717 43.628,32.731 43.671,32.745 C43.671,32.753 43.671,32.760 43.671,32.767 C43.685,32.767 43.699,32.767 43.714,32.767 C43.714,32.774 43.714,32.781 43.714,32.789 C43.743,32.796 43.771,32.803 43.800,32.810 C43.807,32.825 43.814,32.839 43.822,32.853 C43.836,32.853 43.850,32.853 43.865,32.853 C43.879,32.875 43.893,32.897 43.908,32.918 C43.922,32.918 43.937,32.918 43.951,32.918 C43.980,32.954 44.008,32.990 44.037,33.026 C44.052,33.026 44.066,33.026 44.080,33.026 C44.080,33.034 44.080,33.041 44.080,33.048 C44.102,33.062 44.123,33.077 44.145,33.091 C44.145,33.106 44.145,33.120 44.145,33.134 C44.181,33.163 44.217,33.192 44.253,33.221 C44.253,33.235 44.253,33.250 44.253,33.264 C44.274,33.278 44.296,33.293 44.317,33.307 C44.317,33.322 44.317,33.336 44.317,33.351 C44.332,33.358 44.346,33.365 44.361,33.372 C44.368,33.401 44.375,33.430 44.382,33.459 C44.389,33.459 44.397,33.459 44.404,33.459 C44.404,33.473 44.404,33.487 44.404,33.502 C44.411,33.502 44.418,33.502 44.425,33.502 C44.440,33.545 44.454,33.588 44.468,33.631 C44.476,33.631 44.483,33.631 44.490,33.631 C44.511,33.725 44.533,33.819 44.555,33.912 C44.562,33.912 44.569,33.912 44.576,33.912 C44.598,33.980 44.624,34.426 44.598,34.518 C44.555,34.669 44.511,34.820 44.468,34.971 C44.461,34.971 44.454,34.971 44.447,34.971 C44.440,35.000 44.432,35.029 44.425,35.058 C44.418,35.058 44.411,35.058 44.404,35.058 C44.404,35.072 44.404,35.087 44.404,35.101 C44.389,35.108 44.375,35.115 44.361,35.123 C44.353,35.152 44.346,35.180 44.339,35.209 C44.325,35.216 44.310,35.224 44.296,35.231 C44.296,35.245 44.296,35.260 44.296,35.274 C44.267,35.296 44.238,35.317 44.210,35.339 C43.987,35.649 43.687,35.816 43.283,35.944 C43.175,35.951 43.067,35.958 42.959,35.966 C42.734,36.029 42.265,35.987 41.989,35.987 C41.120,35.987 40.250,35.987 39.381,35.987 C38.317,35.987 37.254,35.987 36.190,35.987 C35.415,35.987 34.685,35.994 34.121,35.793 C34.092,35.793 34.063,35.793 34.035,35.793 C33.812,35.699 33.589,35.605 33.366,35.512 C33.359,35.497 33.352,35.483 33.345,35.468 C33.302,35.454 33.259,35.440 33.215,35.425 C33.208,35.411 33.201,35.396 33.194,35.382 C33.165,35.375 33.136,35.368 33.108,35.360 C33.100,35.346 33.093,35.332 33.086,35.317 C33.072,35.317 33.057,35.317 33.043,35.317 C33.043,35.310 33.043,35.303 33.043,35.296 C33.021,35.288 33.000,35.281 32.978,35.274 C32.971,35.260 32.964,35.245 32.957,35.231 C32.942,35.231 32.928,35.231 32.914,35.231 C32.899,35.209 32.885,35.188 32.871,35.166 C32.856,35.166 32.842,35.166 32.827,35.166 C32.813,35.144 32.799,35.123 32.784,35.101 C32.770,35.101 32.756,35.101 32.741,35.101 C32.712,35.065 32.684,35.029 32.655,34.993 C32.641,34.993 32.626,34.993 32.612,34.993 C32.504,34.878 32.396,34.762 32.288,34.647 C32.245,34.611 32.202,34.575 32.159,34.539 C32.159,34.525 32.159,34.510 32.159,34.496 C32.130,34.474 32.102,34.453 32.073,34.431 C32.073,34.417 32.073,34.402 32.073,34.388 C32.059,34.381 32.044,34.373 32.030,34.366 C32.030,34.359 32.030,34.352 32.030,34.345 C32.015,34.337 32.001,34.330 31.987,34.323 C31.987,34.309 31.987,34.294 31.987,34.280 C31.972,34.273 31.958,34.265 31.944,34.258 C31.936,34.237 31.929,34.215 31.922,34.193 C31.915,34.193 31.908,34.193 31.900,34.193 C31.900,34.179 31.900,34.165 31.900,34.150 C31.886,34.143 31.872,34.136 31.857,34.129 C31.857,34.114 31.857,34.100 31.857,34.085 C31.843,34.078 31.829,34.071 31.814,34.064 C31.814,34.049 31.814,34.035 31.814,34.020 C31.800,34.013 31.785,34.006 31.771,33.999 C31.764,33.970 31.757,33.941 31.750,33.912 C31.735,33.905 31.721,33.898 31.706,33.891 C31.692,33.848 31.678,33.804 31.663,33.761 C31.656,33.761 31.649,33.761 31.642,33.761 C31.642,33.747 31.642,33.732 31.642,33.718 C31.635,33.718 31.627,33.718 31.620,33.718 C31.620,33.704 31.620,33.689 31.620,33.675 C31.613,33.675 31.606,33.675 31.599,33.675 C31.584,33.631 31.570,33.588 31.556,33.545 C31.548,33.545 31.541,33.545 31.534,33.545 C31.534,33.523 31.534,33.502 31.534,33.480 C31.527,33.480 31.520,33.480 31.512,33.480 C31.512,33.466 31.512,33.451 31.512,33.437 C31.505,33.437 31.498,33.437 31.491,33.437 C31.491,33.415 31.491,33.394 31.491,33.372 C31.484,33.372 31.476,33.372 31.469,33.372 C31.469,33.358 31.469,33.343 31.469,33.329 C31.462,33.329 31.455,33.329 31.448,33.329 C31.441,33.286 31.433,33.242 31.426,33.199 C31.419,33.199 31.412,33.199 31.405,33.199 C31.405,33.178 31.405,33.156 31.405,33.134 C31.397,33.134 31.390,33.134 31.383,33.134 C31.383,33.113 31.383,33.091 31.383,33.070 C31.376,33.070 31.369,33.070 31.361,33.070 C31.361,33.048 31.361,33.026 31.361,33.005 C31.354,33.005 31.347,33.005 31.340,33.005 C31.333,32.947 31.326,32.889 31.318,32.832 C31.311,32.832 31.304,32.832 31.297,32.832 C31.297,32.803 31.297,32.774 31.297,32.745 C31.263,32.641 31.242,32.489 31.211,32.378 C31.211,32.299 31.211,32.219 31.211,32.140 C31.163,31.972 31.189,31.697 31.189,31.492 C31.189,31.060 31.189,30.627 31.189,30.195 C31.189,28.380 31.189,26.564 31.189,24.749 C31.189,22.703 31.189,20.657 31.189,18.611 C31.189,17.912 31.189,17.214 31.189,16.515 C31.189,16.150 31.170,15.762 31.254,15.477 C31.261,15.398 31.268,15.319 31.275,15.240 C31.347,15.009 31.419,14.779 31.491,14.548 C31.498,14.548 31.505,14.548 31.512,14.548 C31.520,14.519 31.527,14.491 31.534,14.462 C31.541,14.462 31.548,14.462 31.556,14.462 C31.556,14.447 31.556,14.433 31.556,14.419 C31.563,14.419 31.570,14.419 31.577,14.419 C31.577,14.397 31.577,14.375 31.577,14.354 C31.584,14.354 31.591,14.354 31.599,14.354 C31.606,14.325 31.613,14.296 31.620,14.267 C31.627,14.267 31.635,14.267 31.642,14.267 C31.649,14.238 31.656,14.210 31.663,14.181 C31.678,14.174 31.692,14.166 31.706,14.159 C31.721,14.116 31.735,14.073 31.750,14.029 C31.757,14.029 31.764,14.029 31.771,14.029 C31.778,14.008 31.785,13.986 31.793,13.965 C31.807,13.957 31.821,13.950 31.836,13.943 C31.843,13.914 31.850,13.885 31.857,13.857 C31.872,13.849 31.886,13.842 31.900,13.835 C31.900,13.821 31.900,13.806 31.900,13.792 C31.922,13.777 31.944,13.763 31.965,13.749 C31.965,13.734 31.965,13.720 31.965,13.705 C31.987,13.691 32.008,13.676 32.030,13.662 C32.030,13.648 32.030,13.633 32.030,13.619 C32.051,13.604 32.073,13.590 32.094,13.576 C32.094,13.561 32.094,13.547 32.094,13.532 C32.138,13.496 32.181,13.460 32.224,13.424 C32.224,13.410 32.224,13.396 32.224,13.381 C32.296,13.316 32.368,13.251 32.439,13.187 C32.475,13.143 32.511,13.100 32.547,13.057 C32.562,13.057 32.576,13.057 32.590,13.057 C32.626,13.014 32.662,12.971 32.698,12.927 C32.720,12.920 32.741,12.913 32.763,12.906 C32.777,12.884 32.791,12.862 32.806,12.841 C32.820,12.841 32.835,12.841 32.849,12.841 C32.856,12.826 32.863,12.812 32.871,12.798 C32.885,12.798 32.899,12.798 32.914,12.798 C32.928,12.776 32.942,12.754 32.957,12.733 C32.971,12.733 32.985,12.733 33.000,12.733 C33.007,12.718 33.014,12.704 33.021,12.690 C33.043,12.682 33.065,12.675 33.086,12.668 C33.086,12.661 33.086,12.654 33.086,12.646 C33.115,12.639 33.144,12.632 33.172,12.625 C33.179,12.610 33.187,12.596 33.194,12.581 C33.223,12.574 33.251,12.567 33.280,12.560 C33.287,12.545 33.294,12.531 33.302,12.517 C33.330,12.509 33.359,12.502 33.388,12.495 C33.388,12.488 33.388,12.481 33.388,12.473 C33.402,12.473 33.417,12.473 33.431,12.473 C33.431,12.466 33.431,12.459 33.431,12.452 C33.474,12.437 33.517,12.423 33.560,12.409 C33.560,12.401 33.560,12.394 33.560,12.387 C33.582,12.387 33.603,12.387 33.625,12.387 C33.625,12.380 33.625,12.373 33.625,12.365 C33.654,12.358 33.683,12.351 33.711,12.344 C33.711,12.337 33.711,12.329 33.711,12.322 C33.747,12.315 33.783,12.308 33.819,12.301 C33.819,12.293 33.819,12.286 33.819,12.279 C33.862,12.272 33.905,12.265 33.948,12.257 C33.948,12.250 33.948,12.243 33.948,12.236 C33.970,12.236 33.991,12.236 34.013,12.236 C34.013,12.229 34.013,12.221 34.013,12.214 C34.035,12.214 34.056,12.214 34.078,12.214 C34.078,12.207 34.078,12.200 34.078,12.192 C34.099,12.192 34.121,12.192 34.142,12.192 C34.142,12.185 34.142,12.178 34.142,12.171 C34.193,12.164 34.243,12.156 34.293,12.149 C34.293,12.142 34.293,12.135 34.293,12.128 C34.329,12.128 34.365,12.128 34.401,12.128 C34.401,12.120 34.401,12.113 34.401,12.106 C34.430,12.106 34.459,12.106 34.487,12.106 C34.487,12.099 34.487,12.092 34.487,12.084 C34.530,12.084 34.574,12.084 34.617,12.084 C34.617,12.077 34.617,12.070 34.617,12.063 C34.660,12.063 34.703,12.063 34.746,12.063 C34.746,12.056 34.746,12.048 34.746,12.041 C35.033,12.034 35.321,12.027 35.608,12.020 C36.205,12.020 36.801,12.020 37.398,12.020 C37.398,10.075 37.398,8.129 37.398,6.184 C37.398,5.824 37.398,5.464 37.398,5.104 C37.390,4.924 37.383,4.744 37.376,4.563 C37.326,4.427 37.275,4.290 37.225,4.153 C37.211,4.146 37.196,4.138 37.182,4.131 C37.175,4.102 37.168,4.074 37.160,4.045 C37.139,4.030 37.117,4.016 37.096,4.002 C37.096,3.987 37.096,3.973 37.096,3.958 C37.045,3.915 36.995,3.872 36.945,3.829 C36.916,3.793 36.887,3.757 36.859,3.721 C36.844,3.721 36.830,3.721 36.816,3.721 C36.801,3.699 36.787,3.677 36.772,3.656 C36.744,3.649 36.715,3.641 36.686,3.634 C36.679,3.620 36.672,3.605 36.665,3.591 C36.650,3.591 36.636,3.591 36.621,3.591 C36.621,3.584 36.621,3.577 36.621,3.569 C36.593,3.562 36.564,3.555 36.535,3.548 C36.535,3.541 36.535,3.533 36.535,3.526 C36.471,3.512 36.406,3.497 36.341,3.483 C36.341,3.476 36.341,3.468 36.341,3.461 C36.313,3.461 36.284,3.461 36.255,3.461 C36.255,3.454 36.255,3.447 36.255,3.440 C36.212,3.440 36.169,3.440 36.126,3.440 C36.126,3.432 36.126,3.425 36.126,3.418 C35.723,3.418 35.321,3.418 34.918,3.418 C33.726,3.418 32.533,3.418 31.340,3.418 C26.526,3.418 21.711,3.418 16.897,3.418 C13.908,3.418 10.918,3.418 7.929,3.418 C7.383,3.418 6.836,3.418 6.290,3.418 C6.033,3.418 5.731,3.398 5.536,3.461 C5.507,3.461 5.478,3.461 5.450,3.461 C5.013,3.616 4.682,3.895 4.501,4.304 C4.388,4.559 4.393,4.933 4.393,5.298 C4.393,5.788 4.393,6.278 4.393,6.768 C4.393,8.612 4.393,10.457 4.393,12.301 C4.393,15.542 4.393,18.784 4.393,22.026 C4.393,22.624 4.393,23.222 4.393,23.820 C4.400,24.108 4.408,24.396 4.415,24.684 C4.422,24.684 4.429,24.684 4.436,24.684 C4.444,24.742 4.451,24.799 4.458,24.857 C4.465,24.857 4.472,24.857 4.479,24.857 C4.479,24.879 4.479,24.900 4.479,24.922 C4.487,24.922 4.494,24.922 4.501,24.922 C4.515,24.965 4.530,25.008 4.544,25.052 C4.551,25.052 4.559,25.052 4.566,25.052 C4.566,25.066 4.566,25.080 4.566,25.095 C4.573,25.095 4.580,25.095 4.587,25.095 C4.594,25.124 4.602,25.152 4.609,25.181 C4.623,25.188 4.638,25.196 4.652,25.203 C4.652,25.217 4.652,25.232 4.652,25.246 C4.674,25.260 4.695,25.275 4.717,25.289 C4.717,25.304 4.717,25.318 4.717,25.333 C4.760,25.369 4.803,25.405 4.846,25.441 C4.875,25.477 4.903,25.513 4.932,25.549 C4.947,25.549 4.961,25.549 4.975,25.549 C4.982,25.563 4.990,25.577 4.997,25.592 C5.018,25.599 5.040,25.606 5.062,25.613 C5.062,25.621 5.062,25.628 5.062,25.635 C5.076,25.635 5.090,25.635 5.105,25.635 C5.112,25.649 5.119,25.664 5.126,25.678 C5.141,25.678 5.155,25.678 5.169,25.678 C5.169,25.686 5.169,25.693 5.169,25.700 C5.198,25.707 5.227,25.714 5.256,25.722 C5.256,25.729 5.256,25.736 5.256,25.743 C5.277,25.743 5.299,25.743 5.320,25.743 C5.320,25.750 5.320,25.758 5.320,25.765 C5.335,25.765 5.349,25.765 5.363,25.765 C5.363,25.772 5.363,25.779 5.363,25.786 C5.392,25.786 5.421,25.786 5.450,25.786 C5.450,25.794 5.450,25.801 5.450,25.808 C5.478,25.808 5.507,25.808 5.536,25.808 C5.536,25.815 5.536,25.822 5.536,25.830 C5.579,25.830 5.622,25.830 5.665,25.830 C5.665,25.837 5.665,25.844 5.665,25.851 C6.046,25.851 6.427,25.851 6.808,25.851 C7.885,25.851 8.964,25.851 10.041,25.851 C14.194,25.851 18.348,25.851 22.501,25.851 C23.457,25.851 24.413,25.851 25.369,25.851 C25.765,25.851 26.392,25.799 26.705,25.894 C26.741,25.894 26.777,25.894 26.813,25.894 C26.813,25.902 26.813,25.909 26.813,25.916 C26.834,25.916 26.856,25.916 26.878,25.916 C26.878,25.923 26.878,25.930 26.878,25.938 C26.899,25.938 26.921,25.938 26.942,25.938 C26.942,25.945 26.942,25.952 26.942,25.959 C26.964,25.959 26.985,25.959 27.007,25.959 C27.007,25.966 27.007,25.974 27.007,25.981 C27.021,25.981 27.036,25.981 27.050,25.981 C27.050,25.988 27.050,25.995 27.050,26.002 C27.072,26.002 27.093,26.002 27.115,26.002 C27.115,26.010 27.115,26.017 27.115,26.024 C27.129,26.024 27.143,26.024 27.158,26.024 C27.158,26.031 27.158,26.038 27.158,26.046 C27.172,26.046 27.187,26.046 27.201,26.046 C27.208,26.060 27.215,26.075 27.222,26.089 C27.251,26.096 27.280,26.103 27.309,26.111 C27.316,26.125 27.323,26.139 27.330,26.154 C27.345,26.154 27.359,26.154 27.373,26.154 C27.388,26.175 27.402,26.197 27.417,26.219 C27.431,26.219 27.445,26.219 27.460,26.219 C27.517,26.283 27.575,26.348 27.632,26.413 C27.661,26.435 27.690,26.456 27.718,26.478 C27.718,26.492 27.718,26.507 27.718,26.521 C27.740,26.536 27.761,26.550 27.783,26.564 C27.783,26.579 27.783,26.593 27.783,26.608 C27.797,26.615 27.812,26.622 27.826,26.629 C27.833,26.658 27.840,26.687 27.848,26.716 C27.862,26.723 27.876,26.730 27.891,26.737 C27.891,26.752 27.891,26.766 27.891,26.781 C27.898,26.781 27.905,26.781 27.912,26.781 C27.912,26.795 27.912,26.809 27.912,26.824 C27.920,26.824 27.927,26.824 27.934,26.824 C27.934,26.845 27.934,26.867 27.934,26.889 C27.941,26.889 27.948,26.889 27.955,26.889 C27.955,26.903 27.955,26.917 27.955,26.932 C27.963,26.932 27.970,26.932 27.977,26.932 C27.977,26.953 27.977,26.975 27.977,26.997 C28.090,27.281 28.129,27.645 28.020,27.969 C28.020,27.998 28.020,28.027 28.020,28.056 C28.013,28.056 28.006,28.056 27.999,28.056 C27.991,28.099 27.984,28.142 27.977,28.185 C27.970,28.185 27.963,28.185 27.955,28.185 C27.941,28.228 27.927,28.272 27.912,28.315 C27.905,28.315 27.898,28.315 27.891,28.315 C27.891,28.329 27.891,28.344 27.891,28.358 C27.884,28.358 27.876,28.358 27.869,28.358 C27.862,28.387 27.855,28.416 27.848,28.445 C27.840,28.445 27.833,28.445 27.826,28.445 C27.819,28.466 27.812,28.488 27.805,28.509 C27.790,28.517 27.776,28.524 27.761,28.531 C27.761,28.545 27.761,28.560 27.761,28.574 C27.733,28.596 27.704,28.618 27.675,28.639 C27.675,28.654 27.675,28.668 27.675,28.682 C27.632,28.718 27.589,28.754 27.546,28.790 C27.539,28.805 27.531,28.819 27.524,28.834 C27.510,28.834 27.496,28.834 27.481,28.834 C27.460,28.862 27.438,28.891 27.417,28.920 C27.402,28.920 27.388,28.920 27.373,28.920 C27.359,28.942 27.345,28.963 27.330,28.985 C27.302,28.992 27.273,28.999 27.244,29.007 C27.237,29.021 27.230,29.035 27.222,29.050 C26.824,29.300 26.169,29.266 25.519,29.266 C24.549,29.266 23.579,29.266 22.609,29.266 C22.609,30.368 22.609,31.470 22.609,32.572 C23.658,32.572 24.708,32.572 25.757,32.572 C26.137,32.572 26.518,32.572 26.899,32.572 C26.899,32.580 26.899,32.587 26.899,32.594 C26.942,32.594 26.985,32.594 27.028,32.594 C27.028,32.601 27.028,32.609 27.028,32.616 C27.064,32.616 27.100,32.616 27.136,32.616 C27.136,32.623 27.136,32.630 27.136,32.637 C27.158,32.637 27.179,32.637 27.201,32.637 C27.201,32.645 27.201,32.652 27.201,32.659 C27.222,32.659 27.244,32.659 27.266,32.659 C27.266,32.666 27.266,32.673 27.266,32.681 C27.287,32.681 27.309,32.681 27.330,32.681 C27.330,32.688 27.330,32.695 27.330,32.702 C27.373,32.717 27.417,32.731 27.460,32.745 C27.460,32.753 27.460,32.760 27.460,32.767 C27.474,32.767 27.488,32.767 27.503,32.767 C27.503,32.774 27.503,32.781 27.503,32.789 C27.531,32.796 27.560,32.803 27.589,32.810 C27.596,32.825 27.603,32.839 27.611,32.853 C27.625,32.853 27.639,32.853 27.654,32.853 C27.661,32.868 27.668,32.882 27.675,32.897 C27.690,32.897 27.704,32.897 27.718,32.897 C27.747,32.933 27.776,32.969 27.805,33.005 C27.819,33.005 27.833,33.005 27.848,33.005 C27.855,33.019 27.862,33.034 27.869,33.048 C27.898,33.070 27.927,33.091 27.955,33.113 C27.955,33.127 27.955,33.142 27.955,33.156 C27.991,33.185 28.027,33.214 28.063,33.242 C28.063,33.257 28.063,33.271 28.063,33.286 C28.078,33.293 28.092,33.300 28.106,33.307 C28.114,33.329 28.121,33.351 28.128,33.372 C28.135,33.372 28.142,33.372 28.149,33.372 C28.157,33.401 28.164,33.430 28.171,33.459 C28.185,33.466 28.200,33.473 28.214,33.480 C28.221,33.516 28.228,33.552 28.236,33.588 C28.243,33.588 28.250,33.588 28.257,33.588 C28.257,33.603 28.257,33.617 28.257,33.631 C28.264,33.631 28.272,33.631 28.279,33.631 C28.279,33.653 28.279,33.675 28.279,33.696 C28.286,33.696 28.293,33.696 28.300,33.696 C28.300,33.711 28.300,33.725 28.300,33.740 C28.308,33.740 28.315,33.740 28.322,33.740 C28.322,33.768 28.322,33.797 28.322,33.826 C28.329,33.826 28.336,33.826 28.343,33.826 C28.343,33.855 28.343,33.884 28.343,33.912 C28.351,33.912 28.358,33.912 28.365,33.912 C28.365,33.948 28.365,33.984 28.365,34.020 C28.470,34.376 28.299,34.942 28.171,35.144 C28.157,35.152 28.142,35.159 28.128,35.166 C28.128,35.180 28.128,35.195 28.128,35.209 C28.114,35.216 28.099,35.224 28.085,35.231 C28.085,35.245 28.085,35.260 28.085,35.274 C28.063,35.288 28.042,35.303 28.020,35.317 C28.020,35.332 28.020,35.346 28.020,35.360 C27.963,35.411 27.905,35.461 27.848,35.512 C27.826,35.541 27.805,35.569 27.783,35.598 C27.769,35.598 27.754,35.598 27.740,35.598 C27.725,35.620 27.711,35.641 27.697,35.663 C27.682,35.663 27.668,35.663 27.654,35.663 C27.646,35.677 27.639,35.692 27.632,35.706 C27.618,35.706 27.603,35.706 27.589,35.706 C27.582,35.721 27.575,35.735 27.567,35.749 C27.539,35.757 27.510,35.764 27.481,35.771 C27.481,35.778 27.481,35.785 27.481,35.793 C27.438,35.807 27.395,35.821 27.352,35.836 C27.352,35.843 27.352,35.850 27.352,35.857 C27.222,35.894 27.093,35.930 26.964,35.966 C26.691,35.973 26.418,35.980 26.145,35.987 C25.591,35.987 25.038,35.987 24.485,35.987 C22.020,35.987 19.555,35.987 17.091,35.987 C16.588,35.987 16.084,35.987 15.582,35.987 C15.337,35.980 15.093,35.973 14.849,35.966 C14.849,35.958 14.849,35.951 14.849,35.944 C14.813,35.944 14.777,35.944 14.741,35.944 C14.741,35.937 14.741,35.930 14.741,35.922 C14.712,35.922 14.683,35.922 14.655,35.922 C14.655,35.915 14.655,35.908 14.655,35.901 C14.626,35.901 14.597,35.901 14.568,35.901 C14.568,35.894 14.568,35.886 14.568,35.879 C14.554,35.879 14.540,35.879 14.525,35.879 C14.525,35.872 14.525,35.865 14.525,35.857 C14.504,35.857 14.482,35.857 14.461,35.857 C14.461,35.850 14.461,35.843 14.461,35.836 C14.417,35.821 14.374,35.807 14.331,35.793 C14.331,35.785 14.331,35.778 14.331,35.771 C14.317,35.771 14.302,35.771 14.288,35.771 C14.288,35.764 14.288,35.757 14.288,35.749 C14.259,35.742 14.231,35.735 14.202,35.728 C14.195,35.713 14.187,35.699 14.180,35.685 C14.166,35.685 14.152,35.685 14.137,35.685 C14.123,35.663 14.108,35.641 14.094,35.620 C14.080,35.620 14.065,35.620 14.051,35.620 C14.001,35.562 13.950,35.504 13.900,35.447 C13.857,35.411 13.814,35.375 13.771,35.339 C13.632,35.145 13.527,34.921 13.447,34.669 C13.440,34.582 13.433,34.496 13.426,34.410 C13.419,34.410 13.411,34.410 13.404,34.410 C13.404,34.323 13.404,34.237 13.404,34.150 C13.411,34.150 13.419,34.150 13.426,34.150 C13.433,34.057 13.440,33.963 13.447,33.869 C13.455,33.869 13.462,33.869 13.469,33.869 C13.476,33.819 13.483,33.768 13.490,33.718 C13.498,33.718 13.505,33.718 13.512,33.718 C13.512,33.704 13.512,33.689 13.512,33.675 C13.519,33.675 13.526,33.675 13.534,33.675 C13.534,33.653 13.534,33.631 13.534,33.610 C13.541,33.610 13.548,33.610 13.555,33.610 C13.570,33.567 13.584,33.523 13.598,33.480 C13.605,33.480 13.613,33.480 13.620,33.480 C13.627,33.451 13.634,33.423 13.641,33.394 C13.649,33.394 13.656,33.394 13.663,33.394 C13.670,33.372 13.677,33.351 13.684,33.329 C13.699,33.322 13.713,33.314 13.728,33.307 C13.728,33.293 13.728,33.278 13.728,33.264 C13.749,33.250 13.771,33.235 13.792,33.221 C14.007,32.917 14.294,32.750 14.676,32.616 C14.748,32.609 14.820,32.601 14.892,32.594 C14.998,32.563 15.182,32.572 15.323,32.572 C15.589,32.572 15.855,32.572 16.120,32.572 C17.148,32.572 18.176,32.572 19.203,32.572 C19.203,31.470 19.203,30.368 19.203,29.266 C15.596,29.266 11.988,29.266 8.381,29.266 C7.677,29.266 6.973,29.266 6.269,29.266 C6.077,29.266 5.821,29.288 5.665,29.244 C5.557,29.244 5.450,29.244 5.342,29.244 C5.342,29.237 5.342,29.230 5.342,29.223 C5.284,29.223 5.227,29.223 5.169,29.223 C5.169,29.215 5.169,29.208 5.169,29.201 C5.126,29.201 5.083,29.201 5.040,29.201 C5.040,29.194 5.040,29.187 5.040,29.179 C4.997,29.179 4.954,29.179 4.911,29.179 C4.911,29.172 4.911,29.165 4.911,29.158 C4.875,29.158 4.839,29.158 4.803,29.158 C4.602,29.100 4.400,29.043 4.199,28.985 C4.199,28.978 4.199,28.971 4.199,28.963 C4.185,28.963 4.170,28.963 4.156,28.963 C4.156,28.956 4.156,28.949 4.156,28.942 C4.135,28.942 4.113,28.942 4.091,28.942 C4.091,28.934 4.091,28.927 4.091,28.920 C4.056,28.913 4.020,28.906 3.984,28.898 C3.984,28.891 3.984,28.884 3.984,28.877 C3.969,28.877 3.955,28.877 3.941,28.877 C3.941,28.870 3.941,28.862 3.941,28.855 C3.919,28.855 3.897,28.855 3.876,28.855 C3.876,28.848 3.876,28.841 3.876,28.834 C3.833,28.819 3.790,28.805 3.747,28.790 C3.747,28.783 3.747,28.776 3.747,28.769 C3.732,28.769 3.718,28.769 3.703,28.769 C3.703,28.762 3.703,28.754 3.703,28.747 C3.689,28.747 3.675,28.747 3.660,28.747 C3.660,28.740 3.660,28.733 3.660,28.726 C3.646,28.726 3.632,28.726 3.617,28.726 C3.617,28.718 3.617,28.711 3.617,28.704 C3.603,28.704 3.588,28.704 3.574,28.704 C3.574,28.697 3.574,28.690 3.574,28.682 C3.560,28.682 3.545,28.682 3.531,28.682 C3.531,28.675 3.531,28.668 3.531,28.661 C3.517,28.661 3.502,28.661 3.488,28.661 C3.481,28.646 3.473,28.632 3.466,28.618 C3.423,28.603 3.380,28.589 3.337,28.574 C3.330,28.560 3.323,28.545 3.315,28.531 C3.301,28.531 3.287,28.531 3.272,28.531 C3.265,28.517 3.258,28.502 3.251,28.488 C3.236,28.488 3.222,28.488 3.208,28.488 C3.200,28.473 3.193,28.459 3.186,28.445 C3.172,28.445 3.157,28.445 3.143,28.445 C3.136,28.430 3.129,28.416 3.121,28.401 C3.107,28.401 3.093,28.401 3.078,28.401 C3.071,28.387 3.064,28.373 3.057,28.358 C3.042,28.358 3.028,28.358 3.014,28.358 C2.999,28.337 2.985,28.315 2.970,28.293 C2.956,28.293 2.942,28.293 2.927,28.293 C2.913,28.272 2.899,28.250 2.884,28.229 C2.870,28.229 2.856,28.229 2.841,28.229 C2.820,28.200 2.798,28.171 2.776,28.142 C2.762,28.142 2.748,28.142 2.733,28.142 C2.690,28.092 2.647,28.041 2.604,27.991 C2.590,27.991 2.575,27.991 2.561,27.991 C2.532,27.955 2.503,27.919 2.475,27.883 C2.403,27.818 2.331,27.753 2.259,27.688 C2.259,27.674 2.259,27.659 2.259,27.645 C2.209,27.602 2.158,27.559 2.108,27.515 C2.108,27.501 2.108,27.486 2.108,27.472 C2.079,27.450 2.051,27.429 2.022,27.407 C2.022,27.393 2.022,27.378 2.022,27.364 C2.000,27.350 1.979,27.335 1.957,27.321 C1.957,27.306 1.957,27.292 1.957,27.278 C1.936,27.263 1.914,27.249 1.893,27.234 C1.893,27.220 1.893,27.206 1.893,27.191 C1.878,27.184 1.864,27.177 1.849,27.170 C1.842,27.148 1.835,27.126 1.828,27.105 C1.821,27.105 1.814,27.105 1.806,27.105 C1.806,27.090 1.806,27.076 1.806,27.061 C1.792,27.054 1.778,27.047 1.763,27.040 C1.756,27.018 1.749,26.997 1.742,26.975 C1.735,26.975 1.727,26.975 1.720,26.975 C1.713,26.946 1.706,26.917 1.699,26.889 C1.684,26.881 1.670,26.874 1.655,26.867 C1.641,26.824 1.627,26.780 1.612,26.737 C1.598,26.730 1.584,26.723 1.569,26.716 C1.562,26.687 1.555,26.658 1.548,26.629 C1.541,26.629 1.533,26.629 1.526,26.629 C1.526,26.615 1.526,26.600 1.526,26.586 C1.519,26.586 1.512,26.586 1.505,26.586 C1.490,26.543 1.476,26.500 1.461,26.456 C1.454,26.456 1.447,26.456 1.440,26.456 C1.440,26.435 1.440,26.413 1.440,26.391 C1.433,26.391 1.426,26.391 1.418,26.391 C1.411,26.363 1.404,26.334 1.397,26.305 C1.390,26.305 1.382,26.305 1.375,26.305 C1.375,26.283 1.375,26.262 1.375,26.240 C1.368,26.240 1.361,26.240 1.354,26.240 C1.354,26.226 1.354,26.211 1.354,26.197 C1.346,26.197 1.339,26.197 1.332,26.197 C1.332,26.175 1.332,26.154 1.332,26.132 C1.325,26.132 1.318,26.132 1.311,26.132 C1.311,26.118 1.311,26.103 1.311,26.089 C1.303,26.089 1.296,26.089 1.289,26.089 C1.282,26.046 1.275,26.002 1.267,25.959 C1.260,25.959 1.253,25.959 1.246,25.959 C1.246,25.938 1.246,25.916 1.246,25.894 C1.239,25.894 1.232,25.894 1.224,25.894 C1.224,25.873 1.224,25.851 1.224,25.830 C1.217,25.830 1.210,25.830 1.203,25.830 C1.196,25.779 1.188,25.729 1.181,25.678 C1.174,25.678 1.167,25.678 1.160,25.678 C1.152,25.621 1.145,25.563 1.138,25.505 C1.131,25.505 1.124,25.505 1.117,25.505 C1.109,25.433 1.102,25.361 1.095,25.289 C0.960,24.845 1.009,24.190 1.009,23.625 C1.009,22.494 1.009,21.363 1.009,20.232 C1.009,16.213 1.009,12.192 1.009,8.173 C1.009,7.287 1.009,6.400 1.009,5.514 C1.009,5.161 1.009,4.808 1.009,4.455 C1.016,4.455 1.023,4.455 1.030,4.455 C1.030,4.391 1.030,4.326 1.030,4.261 C1.073,4.038 1.117,3.814 1.160,3.591 C1.167,3.591 1.174,3.591 1.181,3.591 C1.181,3.569 1.181,3.548 1.181,3.526 C1.188,3.526 1.196,3.526 1.203,3.526 C1.203,3.497 1.203,3.468 1.203,3.440 C1.210,3.440 1.217,3.440 1.224,3.440 C1.224,3.418 1.224,3.396 1.224,3.375 C1.232,3.375 1.239,3.375 1.246,3.375 C1.246,3.353 1.246,3.332 1.246,3.310 C1.253,3.310 1.260,3.310 1.267,3.310 C1.267,3.288 1.267,3.267 1.267,3.245 C1.275,3.245 1.282,3.245 1.289,3.245 C1.289,3.231 1.289,3.216 1.289,3.202 C1.296,3.202 1.303,3.202 1.311,3.202 C1.318,3.159 1.325,3.115 1.332,3.072 C1.339,3.072 1.346,3.072 1.354,3.072 C1.354,3.058 1.354,3.043 1.354,3.029 C1.361,3.029 1.368,3.029 1.375,3.029 C1.375,3.007 1.375,2.986 1.375,2.964 C1.382,2.964 1.390,2.964 1.397,2.964 C1.404,2.935 1.411,2.907 1.418,2.878 C1.426,2.878 1.433,2.878 1.440,2.878 C1.440,2.863 1.440,2.849 1.440,2.835 C1.447,2.835 1.454,2.835 1.461,2.835 C1.461,2.813 1.461,2.791 1.461,2.770 C1.469,2.770 1.476,2.770 1.483,2.770 C1.490,2.741 1.497,2.712 1.505,2.683 C1.512,2.683 1.519,2.683 1.526,2.683 C1.533,2.654 1.541,2.626 1.548,2.597 C1.562,2.590 1.576,2.582 1.591,2.575 C1.591,2.561 1.591,2.546 1.591,2.532 C1.598,2.532 1.605,2.532 1.612,2.532 C1.612,2.518 1.612,2.503 1.612,2.489 C1.620,2.489 1.627,2.489 1.634,2.489 C1.634,2.474 1.634,2.460 1.634,2.446 C1.641,2.446 1.648,2.446 1.655,2.446 C1.655,2.431 1.655,2.417 1.655,2.402 C1.663,2.402 1.670,2.402 1.677,2.402 C1.684,2.381 1.691,2.359 1.699,2.337 C1.713,2.330 1.727,2.323 1.742,2.316 C1.749,2.287 1.756,2.258 1.763,2.229 C1.778,2.222 1.792,2.215 1.806,2.208 C1.806,2.193 1.806,2.179 1.806,2.165 C1.821,2.157 1.835,2.150 1.849,2.143 C1.849,2.129 1.849,2.114 1.849,2.100 C1.871,2.085 1.893,2.071 1.914,2.057 C1.914,2.042 1.914,2.028 1.914,2.013 C1.929,2.006 1.943,1.999 1.957,1.992 C1.957,1.977 1.957,1.963 1.957,1.948 C1.986,1.927 2.015,1.905 2.044,1.884 C2.044,1.869 2.044,1.855 2.044,1.840 C2.072,1.819 2.101,1.797 2.130,1.776 C2.130,1.761 2.130,1.747 2.130,1.732 C2.180,1.689 2.230,1.646 2.281,1.603 C2.281,1.588 2.281,1.574 2.281,1.559 C2.309,1.538 2.338,1.516 2.367,1.495 C2.424,1.430 2.482,1.365 2.539,1.300 C2.554,1.300 2.568,1.300 2.582,1.300 C2.626,1.250 2.669,1.199 2.712,1.149 C2.726,1.149 2.741,1.149 2.755,1.149 C2.784,1.113 2.812,1.077 2.841,1.041 C2.856,1.041 2.870,1.041 2.884,1.041 C2.899,1.019 2.913,0.998 2.927,0.976 C2.949,0.969 2.970,0.962 2.992,0.954 C2.999,0.940 3.006,0.925 3.014,0.911 C3.028,0.911 3.042,0.911 3.057,0.911 C3.064,0.897 3.071,0.882 3.078,0.868 C3.100,0.861 3.121,0.853 3.143,0.846 C3.143,0.839 3.143,0.832 3.143,0.825 C3.157,0.825 3.172,0.825 3.186,0.825 C3.193,0.810 3.200,0.796 3.208,0.781 C3.229,0.774 3.251,0.767 3.272,0.760 C3.272,0.753 3.272,0.745 3.272,0.738 C3.301,0.731 3.330,0.724 3.359,0.717 C3.366,0.702 3.373,0.688 3.380,0.673 C3.409,0.666 3.438,0.659 3.466,0.652 C3.473,0.637 3.481,0.623 3.488,0.609 C3.502,0.609 3.517,0.609 3.531,0.609 C3.531,0.601 3.531,0.594 3.531,0.587 C3.545,0.587 3.560,0.587 3.574,0.587 C3.574,0.580 3.574,0.572 3.574,0.565 C3.588,0.565 3.603,0.565 3.617,0.565 C3.617,0.558 3.617,0.551 3.617,0.544 C3.632,0.544 3.646,0.544 3.660,0.544 C3.660,0.536 3.660,0.529 3.660,0.522 C3.675,0.522 3.689,0.522 3.703,0.522 C3.703,0.515 3.703,0.508 3.703,0.500 C3.747,0.486 3.790,0.472 3.833,0.457 C3.833,0.450 3.833,0.443 3.833,0.436 C3.869,0.428 3.905,0.421 3.941,0.414 C3.941,0.407 3.941,0.400 3.941,0.392 C3.955,0.392 3.969,0.392 3.984,0.392 C3.984,0.385 3.984,0.378 3.984,0.371 C4.005,0.371 4.027,0.371 4.048,0.371 C4.048,0.364 4.048,0.356 4.048,0.349 C4.063,0.349 4.077,0.349 4.091,0.349 C4.091,0.342 4.091,0.335 4.091,0.328 C4.221,0.292 4.350,0.256 4.479,0.219 C4.479,0.212 4.479,0.205 4.479,0.198 C4.508,0.198 4.537,0.198 4.566,0.198 C4.566,0.191 4.566,0.183 4.566,0.176 C4.587,0.176 4.609,0.176 4.630,0.176 C4.630,0.169 4.630,0.162 4.630,0.155 C4.659,0.155 4.688,0.155 4.717,0.155 C4.717,0.147 4.717,0.140 4.717,0.133 C4.875,0.111 5.033,0.090 5.191,0.068 C5.191,0.061 5.191,0.054 5.191,0.047 C5.248,0.047 5.306,0.047 5.363,0.047 C5.363,0.039 5.363,0.032 5.363,0.025 C5.485,0.025 5.608,0.025 5.730,0.025 C5.855,-0.010 6.065,0.003 6.226,0.003 C6.535,0.003 6.844,0.003 7.153,0.003 C8.654,0.003 10.156,0.003 11.658,0.003 C17.787,0.003 23.918,0.003 30.046,0.003 C31.563,0.003 33.079,0.003 34.595,0.003 C34.911,0.003 35.227,0.003 35.544,0.003 C35.710,0.003 35.930,-0.012 36.061,0.025 C36.183,0.025 36.305,0.025 36.427,0.025 C36.427,0.032 36.427,0.039 36.427,0.047 C36.485,0.047 36.542,0.047 36.600,0.047 C36.600,0.054 36.600,0.061 36.600,0.068 C36.650,0.068 36.701,0.068 36.751,0.068 C36.751,0.075 36.751,0.083 36.751,0.090 C36.794,0.090 36.837,0.090 36.880,0.090 C36.880,0.097 36.880,0.104 36.880,0.111 C36.909,0.111 36.938,0.111 36.966,0.111 C36.966,0.119 36.966,0.126 36.966,0.133 C37.002,0.133 37.038,0.133 37.074,0.133 C37.074,0.140 37.074,0.147 37.074,0.155 C37.103,0.155 37.132,0.155 37.160,0.155 C37.160,0.162 37.160,0.169 37.160,0.176 C37.189,0.176 37.218,0.176 37.247,0.176 C37.247,0.183 37.247,0.191 37.247,0.198 C37.268,0.198 37.290,0.198 37.311,0.198 C37.311,0.205 37.311,0.212 37.311,0.219 C37.333,0.219 37.354,0.219 37.376,0.219 C37.376,0.227 37.376,0.234 37.376,0.241 C37.405,0.241 37.433,0.241 37.462,0.241 C37.462,0.248 37.462,0.256 37.462,0.263 C37.484,0.263 37.505,0.263 37.527,0.263 C37.527,0.270 37.527,0.277 37.527,0.284 C37.541,0.284 37.556,0.284 37.570,0.284 C37.570,0.292 37.570,0.299 37.570,0.306 C37.613,0.313 37.656,0.320 37.699,0.328 C37.699,0.335 37.699,0.342 37.699,0.349 C37.714,0.349 37.728,0.349 37.742,0.349 C37.742,0.356 37.742,0.364 37.742,0.371 C37.764,0.371 37.786,0.371 37.807,0.371 C37.807,0.378 37.807,0.385 37.807,0.392 C37.822,0.392 37.836,0.392 37.850,0.392 C37.850,0.400 37.850,0.407 37.850,0.414 C37.872,0.414 37.893,0.414 37.915,0.414 C37.915,0.421 37.915,0.428 37.915,0.436 C37.958,0.450 38.001,0.464 38.044,0.479 C38.044,0.486 38.044,0.493 38.044,0.500 C38.059,0.500 38.073,0.500 38.087,0.500 C38.087,0.508 38.087,0.515 38.087,0.522 C38.102,0.522 38.116,0.522 38.131,0.522 C38.131,0.529 38.131,0.536 38.131,0.544 C38.145,0.544 38.159,0.544 38.174,0.544 C38.174,0.551 38.174,0.558 38.174,0.565 C38.188,0.565 38.202,0.565 38.217,0.565 C38.217,0.572 38.217,0.580 38.217,0.587 C38.231,0.587 38.245,0.587 38.260,0.587 C38.260,0.594 38.260,0.601 38.260,0.609 C38.274,0.609 38.289,0.609 38.303,0.609 C38.303,0.616 38.303,0.623 38.303,0.630 C38.317,0.630 38.332,0.630 38.346,0.630 C38.353,0.645 38.360,0.659 38.368,0.673 C38.396,0.681 38.425,0.688 38.454,0.695 C38.461,0.709 38.468,0.724 38.475,0.738 C38.504,0.745 38.533,0.753 38.562,0.760 C38.562,0.767 38.562,0.774 38.562,0.781 C38.583,0.789 38.605,0.796 38.626,0.803 C38.634,0.817 38.641,0.832 38.648,0.846 C38.662,0.846 38.677,0.846 38.691,0.846 C38.705,0.868 38.720,0.889 38.734,0.911 C38.748,0.911 38.763,0.911 38.777,0.911 C38.784,0.925 38.792,0.940 38.799,0.954 C38.813,0.954 38.828,0.954 38.842,0.954 C38.856,0.976 38.871,0.998 38.885,1.019 C38.899,1.019 38.914,1.019 38.928,1.019 C38.950,1.048 38.971,1.077 38.993,1.106 C39.007,1.106 39.022,1.106 39.036,1.106 C39.079,1.156 39.122,1.206 39.165,1.257 C39.180,1.257 39.194,1.257 39.208,1.257 C39.244,1.300 39.280,1.343 39.316,1.387 C39.395,1.459 39.474,1.531 39.553,1.603 C39.553,1.617 39.553,1.631 39.553,1.646 C39.596,1.682 39.640,1.718 39.683,1.754 C39.690,1.776 39.697,1.797 39.704,1.819 C39.726,1.833 39.747,1.848 39.769,1.862 C39.769,1.876 39.769,1.891 39.769,1.905 C39.798,1.927 39.826,1.948 39.855,1.970 C39.855,1.984 39.855,1.999 39.855,2.013 C39.869,2.020 39.884,2.028 39.898,2.035 C39.898,2.049 39.898,2.064 39.898,2.078 C39.920,2.093 39.941,2.107 39.963,2.121 C39.963,2.136 39.963,2.150 39.963,2.165 C39.977,2.172 39.992,2.179 40.006,2.186 C40.013,2.215 40.020,2.244 40.028,2.273 C40.035,2.273 40.042,2.273 40.049,2.273 C40.056,2.294 40.063,2.316 40.071,2.337 C40.085,2.345 40.099,2.352 40.114,2.359 C40.121,2.388 40.128,2.417 40.135,2.446 C40.150,2.453 40.164,2.460 40.178,2.467 C40.178,2.482 40.178,2.496 40.178,2.510 C40.186,2.510 40.193,2.510 40.200,2.510 C40.200,2.525 40.200,2.539 40.200,2.554 C40.207,2.554 40.214,2.554 40.222,2.554 C40.222,2.568 40.222,2.582 40.222,2.597 C40.229,2.597 40.236,2.597 40.243,2.597 C40.243,2.611 40.243,2.626 40.243,2.640 C40.250,2.640 40.257,2.640 40.265,2.640 C40.265,2.654 40.265,2.669 40.265,2.683 C40.272,2.683 40.279,2.683 40.286,2.683 C40.286,2.698 40.286,2.712 40.286,2.726 C40.293,2.726 40.301,2.726 40.308,2.726 C40.308,2.741 40.308,2.755 40.308,2.770 C40.315,2.770 40.322,2.770 40.329,2.770 C40.344,2.813 40.358,2.856 40.372,2.899 C40.380,2.899 40.387,2.899 40.394,2.899 C40.394,2.921 40.394,2.943 40.394,2.964 C40.401,2.964 40.408,2.964 40.416,2.964 C40.416,2.979 40.416,2.993 40.416,3.007 C40.423,3.007 40.430,3.007 40.437,3.007 C40.437,3.029 40.437,3.051 40.437,3.072 C40.444,3.072 40.452,3.072 40.459,3.072 C40.459,3.087 40.459,3.101 40.459,3.115 C40.466,3.115 40.473,3.115 40.480,3.115 C40.487,3.159 40.495,3.202 40.502,3.245 C40.509,3.245 40.516,3.245 40.523,3.245 C40.523,3.260 40.523,3.274 40.523,3.288 C40.531,3.288 40.538,3.288 40.545,3.288 C40.545,3.317 40.545,3.346 40.545,3.375 C40.552,3.375 40.559,3.375 40.566,3.375 C40.566,3.396 40.566,3.418 40.566,3.440 C40.574,3.440 40.581,3.440 40.588,3.440 C40.588,3.461 40.588,3.483 40.588,3.505 C40.595,3.505 40.602,3.505 40.610,3.505 C40.610,3.526 40.610,3.548 40.610,3.569 C40.617,3.569 40.624,3.569 40.631,3.569 C40.631,3.598 40.631,3.627 40.631,3.656 C40.638,3.656 40.646,3.656 40.653,3.656 C40.653,3.685 40.653,3.713 40.653,3.742 C40.660,3.742 40.667,3.742 40.674,3.742 C40.674,3.778 40.674,3.814 40.674,3.850 C40.681,3.850 40.689,3.850 40.696,3.850 C40.696,3.886 40.696,3.922 40.696,3.958 C40.703,3.958 40.710,3.958 40.717,3.958 C40.717,3.994 40.717,4.030 40.717,4.066 C40.725,4.066 40.732,4.066 40.739,4.066 C40.753,4.246 40.768,4.427 40.782,4.607 C40.782,4.686 40.782,4.765 40.782,4.844 C40.839,5.049 40.804,5.379 40.804,5.622 C40.804,6.148 40.804,6.674 40.804,7.200 C40.804,8.806 40.804,10.413 40.804,12.020 Z"/>
</svg>