<svg 
 xmlns="http://www.w3.org/2000/svg"
 xmlns:xlink="http://www.w3.org/1999/xlink"
 width="85px" height="85px">
<path fill-rule="evenodd"  fill="rgb(92, 193, 66)"
 d="M0.000,0.000 C28.331,0.000 56.669,0.000 85.000,0.000 C85.000,28.331 85.000,56.669 85.000,85.000 C56.669,85.000 28.331,85.000 0.000,85.000 C0.000,56.669 0.000,28.331 0.000,0.000 ZM5.257,5.257 C5.257,30.083 5.257,54.917 5.257,79.743 C30.083,79.743 54.917,79.743 79.743,79.743 C79.743,54.917 79.743,30.083 79.743,5.257 C54.917,5.257 30.083,5.257 5.257,5.257 ZM31.712,26.034 C31.887,26.052 31.932,26.136 32.048,26.202 C32.077,26.202 32.105,26.202 32.133,26.202 C32.147,26.230 32.161,26.258 32.175,26.286 C32.231,26.301 32.287,26.315 32.343,26.329 C32.357,26.357 32.371,26.385 32.385,26.413 C32.413,26.413 32.441,26.413 32.469,26.413 C32.469,26.427 32.469,26.441 32.469,26.455 C32.497,26.455 32.525,26.455 32.553,26.455 C32.553,26.469 32.553,26.483 32.553,26.497 C32.581,26.497 32.609,26.497 32.637,26.497 C32.651,26.525 32.665,26.553 32.679,26.581 C32.763,26.609 32.848,26.637 32.932,26.665 C32.946,26.693 32.960,26.721 32.974,26.749 C33.030,26.763 33.086,26.777 33.142,26.791 C33.156,26.819 33.170,26.847 33.184,26.875 C33.268,26.903 33.352,26.931 33.436,26.959 C33.450,26.987 33.464,27.016 33.478,27.044 C33.563,27.072 33.647,27.100 33.731,27.128 C33.745,27.156 33.759,27.184 33.773,27.212 C33.857,27.240 33.941,27.268 34.025,27.296 C34.039,27.324 34.053,27.352 34.067,27.380 C34.123,27.394 34.179,27.408 34.236,27.422 C34.250,27.450 34.264,27.478 34.278,27.506 C34.362,27.534 34.446,27.562 34.530,27.590 C34.544,27.618 34.558,27.646 34.572,27.674 C34.656,27.702 34.740,27.730 34.824,27.759 C34.838,27.787 34.852,27.815 34.866,27.843 C34.951,27.871 35.035,27.899 35.119,27.927 C36.525,28.814 38.044,29.604 39.451,30.492 C39.535,30.520 39.619,30.548 39.703,30.576 C39.717,30.604 39.731,30.633 39.745,30.661 C39.829,30.689 39.913,30.717 39.998,30.745 C40.012,30.773 40.026,30.801 40.040,30.829 C40.068,30.829 40.096,30.829 40.124,30.829 C40.124,30.843 40.124,30.857 40.124,30.871 C40.152,30.871 40.180,30.871 40.208,30.871 C40.222,30.899 40.236,30.927 40.250,30.955 C40.334,30.983 40.418,31.011 40.502,31.039 C40.516,31.067 40.530,31.095 40.544,31.123 C40.628,31.151 40.713,31.179 40.797,31.207 C40.811,31.235 40.825,31.263 40.839,31.291 C40.895,31.305 40.951,31.319 41.007,31.333 C41.021,31.362 41.035,31.390 41.049,31.418 C41.133,31.446 41.217,31.474 41.301,31.502 C41.315,31.530 41.329,31.558 41.343,31.586 C41.371,31.586 41.399,31.586 41.428,31.586 C41.428,31.600 41.428,31.614 41.428,31.628 C41.456,31.628 41.484,31.628 41.512,31.628 C41.512,31.642 41.512,31.656 41.512,31.670 C41.540,31.670 41.568,31.670 41.596,31.670 C41.610,31.698 41.624,31.726 41.638,31.754 C41.722,31.782 41.806,31.810 41.890,31.838 C41.904,31.866 41.918,31.894 41.932,31.922 C41.960,31.922 41.988,31.922 42.016,31.922 C42.016,31.936 42.016,31.950 42.016,31.964 C42.044,31.964 42.072,31.964 42.100,31.964 C42.114,31.992 42.128,32.020 42.143,32.048 C42.227,32.077 42.311,32.105 42.395,32.133 C42.409,32.161 42.423,32.189 42.437,32.217 C42.521,32.245 42.605,32.273 42.689,32.301 C42.703,32.329 42.717,32.357 42.731,32.385 C42.787,32.399 42.843,32.413 42.900,32.427 C42.914,32.455 42.928,32.483 42.942,32.511 C43.026,32.539 43.110,32.567 43.194,32.595 C43.208,32.623 43.222,32.651 43.236,32.679 C43.320,32.707 43.404,32.735 43.488,32.763 C43.502,32.792 43.516,32.820 43.530,32.848 C43.615,32.876 43.699,32.904 43.783,32.932 C43.797,32.960 43.811,32.988 43.825,33.016 C43.881,33.030 43.937,33.044 43.993,33.058 C44.007,33.086 44.021,33.114 44.035,33.142 C44.119,33.170 44.203,33.198 44.287,33.226 C44.301,33.254 44.316,33.282 44.330,33.310 C44.414,33.338 44.498,33.366 44.582,33.394 C44.596,33.422 44.610,33.450 44.624,33.478 C44.708,33.507 44.792,33.535 44.876,33.563 C46.543,34.613 48.342,35.538 50.007,36.591 C50.092,36.619 50.176,36.647 50.260,36.675 C50.274,36.703 50.288,36.731 50.302,36.759 C50.386,36.787 50.470,36.815 50.554,36.843 C50.568,36.871 50.582,36.899 50.596,36.927 C50.652,36.941 50.708,36.955 50.764,36.969 C50.778,36.997 50.793,37.025 50.807,37.053 C50.891,37.081 50.975,37.110 51.059,37.138 C51.073,37.166 51.087,37.194 51.101,37.222 C51.185,37.250 51.269,37.278 51.353,37.306 C51.367,37.334 51.381,37.362 51.395,37.390 C51.479,37.418 51.564,37.446 51.648,37.474 C51.662,37.502 51.676,37.530 51.690,37.558 C51.746,37.572 51.802,37.586 51.858,37.600 C51.872,37.628 51.886,37.656 51.900,37.684 C51.984,37.712 52.068,37.740 52.152,37.768 C52.166,37.796 52.180,37.825 52.194,37.853 C52.279,37.881 52.363,37.909 52.447,37.937 C52.461,37.965 52.475,37.993 52.489,38.021 C52.545,38.035 52.601,38.049 52.657,38.063 C52.671,38.091 52.685,38.119 52.699,38.147 C52.783,38.175 52.867,38.203 52.952,38.231 C52.966,38.259 52.980,38.287 52.994,38.315 C53.078,38.343 53.162,38.371 53.246,38.399 C53.260,38.427 53.274,38.455 53.288,38.483 C53.372,38.511 53.456,38.540 53.540,38.568 C53.554,38.596 53.568,38.624 53.582,38.652 C53.610,38.652 53.638,38.652 53.667,38.652 C53.667,38.666 53.667,38.680 53.667,38.694 C53.695,38.694 53.723,38.694 53.751,38.694 C53.765,38.722 53.779,38.750 53.793,38.778 C53.877,38.806 53.961,38.834 54.045,38.862 C54.059,38.890 54.073,38.918 54.087,38.946 C54.115,38.946 54.143,38.946 54.171,38.946 C54.171,38.960 54.171,38.974 54.171,38.988 C54.199,38.988 54.227,38.988 54.255,38.988 C54.255,39.002 54.255,39.016 54.255,39.030 C54.283,39.030 54.311,39.030 54.339,39.030 C54.353,39.058 54.367,39.086 54.381,39.114 C54.466,39.142 54.550,39.170 54.634,39.198 C54.648,39.226 54.662,39.254 54.676,39.283 C54.704,39.283 54.732,39.283 54.760,39.283 C54.760,39.297 54.760,39.311 54.760,39.325 C54.788,39.325 54.816,39.325 54.844,39.325 C54.858,39.353 54.872,39.381 54.886,39.409 C54.970,39.437 55.054,39.465 55.139,39.493 C55.153,39.521 55.167,39.549 55.181,39.577 C55.265,39.605 55.349,39.633 55.433,39.661 C55.447,39.689 55.461,39.717 55.475,39.745 C55.531,39.759 55.587,39.773 55.643,39.787 C55.657,39.815 55.671,39.843 55.685,39.871 C55.741,39.885 55.797,39.899 55.854,39.913 C55.854,39.927 55.854,39.941 55.854,39.955 C55.882,39.955 55.910,39.955 55.938,39.955 C55.952,39.984 55.966,40.012 55.980,40.040 C56.064,40.068 56.148,40.096 56.232,40.124 C56.246,40.152 56.260,40.180 56.274,40.208 C56.358,40.236 56.442,40.264 56.526,40.292 C56.540,40.320 56.555,40.348 56.569,40.376 C56.597,40.376 56.625,40.376 56.653,40.376 C56.653,40.390 56.653,40.404 56.653,40.418 C56.681,40.418 56.709,40.418 56.737,40.418 C56.751,40.446 56.765,40.474 56.779,40.502 C56.863,40.530 56.947,40.558 57.031,40.586 C57.045,40.614 57.059,40.642 57.073,40.670 C57.157,40.698 57.241,40.727 57.326,40.755 C57.340,40.783 57.354,40.811 57.368,40.839 C57.396,40.839 57.424,40.839 57.452,40.839 C57.452,40.853 57.452,40.867 57.452,40.881 C57.480,40.881 57.508,40.881 57.536,40.881 C57.550,40.909 57.564,40.937 57.578,40.965 C57.662,40.993 57.746,41.021 57.830,41.049 C57.844,41.077 57.858,41.105 57.872,41.133 C57.956,41.161 58.041,41.189 58.125,41.217 C58.139,41.245 58.153,41.273 58.167,41.301 C58.251,41.329 58.335,41.357 58.419,41.385 C58.433,41.413 58.447,41.442 58.461,41.470 C58.517,41.484 58.573,41.498 58.629,41.512 C58.643,41.540 58.657,41.568 58.671,41.596 C58.756,41.624 58.840,41.652 58.924,41.680 C58.938,41.708 58.952,41.736 58.966,41.764 C58.994,41.764 59.022,41.764 59.050,41.764 C59.050,41.778 59.050,41.792 59.050,41.806 C59.078,41.806 59.106,41.806 59.134,41.806 C59.134,41.820 59.134,41.834 59.134,41.848 C59.162,41.848 59.190,41.848 59.218,41.848 C59.232,41.876 59.246,41.904 59.260,41.932 C59.344,41.960 59.429,41.988 59.513,42.016 C59.527,42.044 59.541,42.072 59.555,42.100 C59.611,42.114 59.667,42.128 59.723,42.143 C59.737,42.171 59.751,42.199 59.765,42.227 C59.821,42.241 59.877,42.255 59.933,42.269 C59.933,42.283 59.933,42.297 59.933,42.311 C60.045,42.367 60.158,42.423 60.270,42.479 C60.234,42.527 60.275,42.485 60.228,42.521 C60.228,42.535 60.228,42.549 60.228,42.563 C60.172,42.577 60.115,42.591 60.059,42.605 C60.045,42.633 60.031,42.661 60.017,42.689 C59.989,42.689 59.961,42.689 59.933,42.689 C59.933,42.703 59.933,42.717 59.933,42.731 C59.905,42.731 59.877,42.731 59.849,42.731 C59.849,42.745 59.849,42.759 59.849,42.773 C59.821,42.773 59.793,42.773 59.765,42.773 C59.751,42.801 59.737,42.829 59.723,42.857 C59.695,42.857 59.667,42.857 59.639,42.857 C59.639,42.872 59.639,42.886 59.639,42.900 C59.611,42.900 59.583,42.900 59.555,42.900 C59.541,42.928 59.527,42.956 59.513,42.984 C59.429,43.012 59.344,43.040 59.260,43.068 C59.246,43.096 59.232,43.124 59.218,43.152 C59.134,43.180 59.050,43.208 58.966,43.236 C58.952,43.264 58.938,43.292 58.924,43.320 C58.840,43.348 58.756,43.376 58.671,43.404 C58.657,43.432 58.643,43.460 58.629,43.488 C58.573,43.502 58.517,43.516 58.461,43.530 C58.447,43.558 58.433,43.587 58.419,43.615 C58.335,43.643 58.251,43.671 58.167,43.699 C58.153,43.727 58.139,43.755 58.125,43.783 C58.097,43.783 58.069,43.783 58.041,43.783 C58.041,43.797 58.041,43.811 58.041,43.825 C58.013,43.825 57.984,43.825 57.956,43.825 C57.956,43.839 57.956,43.853 57.956,43.867 C57.928,43.867 57.900,43.867 57.872,43.867 C57.858,43.895 57.844,43.923 57.830,43.951 C57.746,43.979 57.662,44.007 57.578,44.035 C57.564,44.063 57.550,44.091 57.536,44.119 C57.480,44.133 57.424,44.147 57.368,44.161 C57.354,44.189 57.340,44.217 57.326,44.245 C57.241,44.273 57.157,44.302 57.073,44.330 C57.059,44.358 57.045,44.386 57.031,44.414 C56.947,44.442 56.863,44.470 56.779,44.498 C56.765,44.526 56.751,44.554 56.737,44.582 C56.709,44.582 56.681,44.582 56.653,44.582 C56.653,44.596 56.653,44.610 56.653,44.624 C56.625,44.624 56.597,44.624 56.569,44.624 C56.555,44.652 56.540,44.680 56.526,44.708 C56.442,44.736 56.358,44.764 56.274,44.792 C56.260,44.820 56.246,44.848 56.232,44.876 C56.204,44.876 56.176,44.876 56.148,44.876 C56.148,44.890 56.148,44.904 56.148,44.918 C56.120,44.918 56.092,44.918 56.064,44.918 C56.064,44.932 56.064,44.946 56.064,44.960 C56.036,44.960 56.008,44.960 55.980,44.960 C55.966,44.988 55.952,45.016 55.938,45.045 C55.854,45.073 55.769,45.101 55.685,45.129 C55.671,45.157 55.657,45.185 55.643,45.213 C55.615,45.213 55.587,45.213 55.559,45.213 C55.559,45.227 55.559,45.241 55.559,45.255 C55.531,45.255 55.503,45.255 55.475,45.255 C55.461,45.283 55.447,45.311 55.433,45.339 C55.349,45.367 55.265,45.395 55.181,45.423 C55.167,45.451 55.153,45.479 55.139,45.507 C55.054,45.535 54.970,45.563 54.886,45.591 C54.872,45.619 54.858,45.647 54.844,45.675 C54.788,45.689 54.732,45.703 54.676,45.717 C54.662,45.746 54.648,45.774 54.634,45.802 C54.578,45.816 54.522,45.830 54.466,45.844 C54.466,45.858 54.466,45.872 54.466,45.886 C54.438,45.886 54.410,45.886 54.381,45.886 C54.367,45.914 54.353,45.942 54.339,45.970 C54.255,45.998 54.171,46.026 54.087,46.054 C54.073,46.082 54.059,46.110 54.045,46.138 C53.961,46.166 53.877,46.194 53.793,46.222 C53.779,46.250 53.765,46.278 53.751,46.306 C53.723,46.306 53.695,46.306 53.667,46.306 C53.667,46.320 53.667,46.334 53.667,46.348 C53.638,46.348 53.610,46.348 53.582,46.348 C53.568,46.376 53.554,46.404 53.540,46.432 C53.456,46.460 53.372,46.489 53.288,46.517 C53.274,46.545 53.260,46.573 53.246,46.601 C53.162,46.629 53.078,46.657 52.994,46.685 C52.980,46.713 52.966,46.741 52.952,46.769 C52.867,46.797 52.783,46.825 52.699,46.853 C52.685,46.881 52.671,46.909 52.657,46.937 C52.601,46.951 52.545,46.965 52.489,46.979 C52.475,47.007 52.461,47.035 52.447,47.063 C52.363,47.091 52.279,47.119 52.194,47.147 C52.180,47.175 52.166,47.204 52.152,47.232 C52.068,47.260 51.984,47.288 51.900,47.316 C51.886,47.344 51.872,47.372 51.858,47.400 C51.830,47.400 51.802,47.400 51.774,47.400 C51.774,47.414 51.774,47.428 51.774,47.442 C51.746,47.442 51.718,47.442 51.690,47.442 C51.676,47.470 51.662,47.498 51.648,47.526 C51.564,47.554 51.479,47.582 51.395,47.610 C51.381,47.638 51.367,47.666 51.353,47.694 C51.269,47.722 51.185,47.750 51.101,47.778 C51.087,47.806 51.073,47.834 51.059,47.862 C50.975,47.890 50.891,47.919 50.807,47.947 C50.793,47.975 50.778,48.003 50.764,48.031 C50.708,48.045 50.652,48.059 50.596,48.073 C50.582,48.101 50.568,48.129 50.554,48.157 C50.470,48.185 50.386,48.213 50.302,48.241 C50.288,48.269 50.274,48.297 50.260,48.325 C50.176,48.353 50.092,48.381 50.007,48.409 C48.340,49.460 46.541,50.385 44.876,51.437 C44.820,51.451 44.764,51.465 44.708,51.479 C44.708,51.493 44.708,51.508 44.708,51.522 C44.680,51.522 44.652,51.522 44.624,51.522 C44.610,51.550 44.596,51.578 44.582,51.606 C44.498,51.634 44.414,51.662 44.330,51.690 C44.316,51.718 44.301,51.746 44.287,51.774 C44.203,51.802 44.119,51.830 44.035,51.858 C44.021,51.886 44.007,51.914 43.993,51.942 C43.965,51.942 43.937,51.942 43.909,51.942 C43.909,51.956 43.909,51.970 43.909,51.984 C43.881,51.984 43.853,51.984 43.825,51.984 C43.811,52.012 43.797,52.040 43.783,52.068 C43.699,52.096 43.615,52.124 43.530,52.152 C43.516,52.180 43.502,52.208 43.488,52.237 C43.460,52.237 43.432,52.237 43.404,52.237 C43.404,52.251 43.404,52.265 43.404,52.279 C43.376,52.279 43.348,52.279 43.320,52.279 C43.320,52.293 43.320,52.307 43.320,52.321 C43.292,52.321 43.264,52.321 43.236,52.321 C43.222,52.349 43.208,52.377 43.194,52.405 C43.110,52.433 43.026,52.461 42.942,52.489 C42.928,52.517 42.914,52.545 42.900,52.573 C42.872,52.573 42.843,52.573 42.815,52.573 C42.815,52.587 42.815,52.601 42.815,52.615 C42.787,52.615 42.759,52.615 42.731,52.615 C42.717,52.643 42.703,52.671 42.689,52.699 C42.605,52.727 42.521,52.755 42.437,52.783 C42.423,52.811 42.409,52.839 42.395,52.867 C42.311,52.895 42.227,52.923 42.143,52.952 C42.128,52.980 42.114,53.008 42.100,53.036 C42.044,53.050 41.988,53.064 41.932,53.078 C41.918,53.106 41.904,53.134 41.890,53.162 C41.862,53.162 41.834,53.162 41.806,53.162 C41.806,53.176 41.806,53.190 41.806,53.204 C41.778,53.204 41.750,53.204 41.722,53.204 C41.722,53.218 41.722,53.232 41.722,53.246 C41.694,53.246 41.666,53.246 41.638,53.246 C41.624,53.274 41.610,53.302 41.596,53.330 C41.512,53.358 41.428,53.386 41.343,53.414 C41.329,53.442 41.315,53.470 41.301,53.498 C41.217,53.526 41.133,53.554 41.049,53.582 C41.035,53.610 41.021,53.638 41.007,53.667 C40.979,53.667 40.951,53.667 40.923,53.667 C40.923,53.681 40.923,53.695 40.923,53.709 C40.895,53.709 40.867,53.709 40.839,53.709 C40.825,53.737 40.811,53.765 40.797,53.793 C40.713,53.821 40.628,53.849 40.544,53.877 C40.530,53.905 40.516,53.933 40.502,53.961 C40.418,53.989 40.334,54.017 40.250,54.045 C40.236,54.073 40.222,54.101 40.208,54.129 C40.152,54.143 40.096,54.157 40.040,54.171 C40.026,54.199 40.012,54.227 39.998,54.255 C39.913,54.283 39.829,54.311 39.745,54.339 C39.731,54.367 39.717,54.396 39.703,54.424 C39.675,54.424 39.647,54.424 39.619,54.424 C39.619,54.438 39.619,54.452 39.619,54.466 C39.591,54.466 39.563,54.466 39.535,54.466 C39.535,54.480 39.535,54.494 39.535,54.508 C39.507,54.508 39.479,54.508 39.451,54.508 C39.437,54.536 39.423,54.564 39.409,54.592 C39.325,54.620 39.240,54.648 39.156,54.676 C37.845,55.502 36.429,56.246 35.119,57.073 C35.035,57.101 34.951,57.129 34.866,57.157 C34.852,57.185 34.838,57.213 34.824,57.241 C34.740,57.270 34.656,57.298 34.572,57.326 C34.558,57.354 34.544,57.382 34.530,57.410 C34.446,57.438 34.362,57.466 34.278,57.494 C34.264,57.522 34.250,57.550 34.236,57.578 C34.179,57.592 34.123,57.606 34.067,57.620 C34.053,57.648 34.039,57.676 34.025,57.704 C33.941,57.732 33.857,57.760 33.773,57.788 C33.759,57.816 33.745,57.844 33.731,57.872 C33.647,57.900 33.563,57.928 33.478,57.956 C33.464,57.984 33.450,58.013 33.436,58.041 C33.352,58.069 33.268,58.097 33.184,58.125 C33.170,58.153 33.156,58.181 33.142,58.209 C33.086,58.223 33.030,58.237 32.974,58.251 C32.960,58.279 32.946,58.307 32.932,58.335 C32.904,58.335 32.876,58.335 32.848,58.335 C32.848,58.349 32.848,58.363 32.848,58.377 C32.820,58.377 32.792,58.377 32.763,58.377 C32.763,58.391 32.763,58.405 32.763,58.419 C32.735,58.419 32.707,58.419 32.679,58.419 C32.665,58.447 32.651,58.475 32.637,58.503 C32.553,58.531 32.469,58.559 32.385,58.587 C32.371,58.615 32.357,58.643 32.343,58.671 C32.287,58.685 32.231,58.699 32.175,58.714 C32.161,58.742 32.147,58.770 32.133,58.798 C32.105,58.798 32.077,58.798 32.048,58.798 C32.048,58.812 32.048,58.826 32.048,58.840 C32.020,58.840 31.992,58.840 31.964,58.840 C31.964,58.854 31.964,58.868 31.964,58.882 C31.936,58.882 31.908,58.882 31.880,58.882 C31.880,58.896 31.880,58.910 31.880,58.924 C31.822,58.962 31.806,58.953 31.712,58.966 C31.712,47.990 31.712,37.010 31.712,26.034 Z"/>
</svg>