<svg 
 xmlns="http://www.w3.org/2000/svg"
 xmlns:xlink="http://www.w3.org/1999/xlink"
 width="47px" height="31px">
<path fill-rule="evenodd"  fill="rgb(92, 193, 66)"
 d="M21.084,-0.000 C21.084,1.179 21.084,2.359 21.084,3.538 C19.620,3.833 18.156,4.128 16.692,4.423 C14.949,5.357 12.091,8.499 11.860,11.057 C17.066,11.228 22.521,18.483 19.766,24.767 C19.620,24.767 19.474,24.767 19.327,24.767 C19.181,25.356 19.034,25.946 18.888,26.536 C18.156,27.126 17.424,27.715 16.692,28.305 C16.545,28.600 16.399,28.895 16.252,29.189 C15.960,29.189 15.667,29.189 15.374,29.189 C15.374,29.337 15.374,29.484 15.374,29.632 C14.834,30.052 14.527,29.966 14.056,30.516 C11.732,30.658 8.820,31.495 6.589,30.516 C6.589,30.369 6.589,30.221 6.589,30.074 C6.003,29.927 5.417,29.779 4.832,29.632 C4.832,29.484 4.832,29.337 4.832,29.189 C4.539,29.189 4.246,29.189 3.953,29.189 C3.514,28.600 3.075,28.010 2.636,27.420 C2.489,27.420 2.343,27.420 2.196,27.420 C1.479,26.401 1.371,25.155 0.439,24.325 C0.293,22.408 0.146,20.491 -0.000,18.575 C0.146,18.575 0.293,18.575 0.439,18.575 C0.439,17.838 0.439,17.101 0.439,16.364 C0.586,16.364 0.732,16.364 0.879,16.364 C0.879,15.774 0.879,15.184 0.879,14.595 C1.025,14.595 1.171,14.595 1.318,14.595 C1.318,14.153 1.318,13.710 1.318,13.268 C1.464,13.268 1.611,13.268 1.757,13.268 C2.050,12.384 2.343,11.499 2.636,10.614 C2.782,10.614 2.928,10.614 3.075,10.614 C3.075,10.320 3.075,10.025 3.075,9.730 C3.514,9.435 3.953,9.140 4.393,8.845 C4.393,8.550 4.393,8.256 4.393,7.961 C4.978,7.519 5.564,7.076 6.150,6.634 C6.735,5.897 7.321,5.160 7.907,4.423 C11.144,2.119 15.734,0.074 21.084,-0.000 ZM47.000,-0.000 C47.000,1.179 47.000,2.359 47.000,3.538 C45.390,3.980 43.779,4.423 42.168,4.865 C42.022,5.160 41.875,5.455 41.729,5.749 C41.436,5.749 41.143,5.749 40.850,5.749 C40.850,5.897 40.850,6.044 40.850,6.192 C40.411,6.487 39.972,6.781 39.533,7.076 C39.533,7.371 39.533,7.666 39.533,7.961 C39.240,8.108 38.947,8.256 38.654,8.403 C38.654,8.698 38.654,8.993 38.654,9.288 C38.508,9.288 38.361,9.288 38.215,9.288 C38.069,9.730 37.922,10.172 37.776,10.614 C37.922,10.614 38.069,10.614 38.215,10.614 C38.215,10.762 38.215,10.909 38.215,11.057 C38.801,11.057 39.386,11.057 39.972,11.057 C39.972,11.204 39.972,11.351 39.972,11.499 C40.265,11.499 40.558,11.499 40.850,11.499 C40.850,11.646 40.850,11.794 40.850,11.941 C41.143,11.941 41.436,11.941 41.729,11.941 C41.875,12.236 42.022,12.531 42.168,12.826 C42.461,12.826 42.754,12.826 43.047,12.826 C43.047,12.973 43.047,13.121 43.047,13.268 C43.486,13.563 43.925,13.858 44.364,14.152 C44.364,14.447 44.364,14.742 44.364,15.037 C44.657,15.184 44.950,15.332 45.243,15.479 C45.757,16.277 45.241,16.476 46.121,17.248 C46.415,21.127 46.720,24.125 44.804,26.978 C44.365,27.273 43.925,27.568 43.486,27.863 C43.193,28.305 42.900,28.747 42.607,29.189 C41.729,29.484 40.850,29.779 39.972,30.074 C39.972,30.221 39.972,30.369 39.972,30.516 C38.256,31.252 33.635,31.170 32.505,30.074 C30.726,29.634 30.053,28.546 28.991,27.420 C28.698,27.273 28.405,27.126 28.112,26.978 C28.112,26.683 28.112,26.388 28.112,26.094 C27.966,26.094 27.819,26.094 27.673,26.094 C27.254,25.549 27.348,25.239 26.794,24.767 C26.648,22.408 26.502,20.049 26.355,17.691 C27.087,15.479 27.819,13.268 28.551,11.057 C28.844,10.909 29.137,10.762 29.430,10.614 C29.576,10.025 29.723,9.435 29.869,8.845 C30.601,8.256 31.333,7.666 32.065,7.076 C32.944,6.044 33.823,5.012 34.701,3.980 C34.994,3.980 35.287,3.980 35.579,3.980 C35.726,3.686 35.872,3.391 36.019,3.096 C38.342,1.618 43.364,0.054 47.000,-0.000 Z"/>
</svg>