<svg 
 xmlns="http://www.w3.org/2000/svg"
 xmlns:xlink="http://www.w3.org/1999/xlink"
 width="32px" height="34px">
<path fill-rule="evenodd"  fill="rgb(71, 77, 115)"
 d="M30.194,23.438 C30.311,23.867 30.527,24.008 30.765,24.306 C30.812,24.306 30.860,24.306 30.908,24.306 C30.955,24.499 31.003,24.692 31.050,24.885 C31.145,24.933 31.241,24.982 31.336,25.030 C31.336,25.174 31.336,25.319 31.336,25.464 C31.383,25.464 31.431,25.464 31.478,25.464 C31.478,25.560 31.478,25.657 31.478,25.753 C31.526,25.753 31.573,25.753 31.621,25.753 C31.669,26.139 31.716,26.525 31.764,26.911 C31.811,26.911 31.859,26.911 31.906,26.911 C32.205,27.883 31.695,29.417 31.478,29.949 C31.478,30.094 31.478,30.238 31.478,30.383 C31.431,30.383 31.383,30.383 31.336,30.383 C31.288,30.576 31.241,30.769 31.193,30.962 C31.098,31.010 31.003,31.058 30.908,31.106 C30.908,31.203 30.908,31.299 30.908,31.396 C30.765,31.492 30.622,31.589 30.480,31.685 C30.480,31.782 30.480,31.878 30.480,31.974 C30.432,31.974 30.384,31.974 30.337,31.974 C30.194,32.167 30.052,32.360 29.909,32.553 C29.814,32.553 29.719,32.553 29.624,32.553 C29.528,32.698 29.433,32.843 29.338,32.987 C29.243,32.987 29.148,32.987 29.053,32.987 C29.005,33.084 28.958,33.180 28.910,33.277 C28.720,33.325 28.530,33.373 28.339,33.421 C28.339,33.469 28.339,33.518 28.339,33.566 C28.197,33.566 28.054,33.566 27.911,33.566 C27.911,33.614 27.911,33.662 27.911,33.711 C27.769,33.711 27.626,33.711 27.483,33.711 C27.483,33.759 27.483,33.807 27.483,33.855 C27.246,33.855 27.008,33.855 26.770,33.855 C26.770,33.904 26.770,33.952 26.770,34.000 C25.914,33.952 25.058,33.904 24.202,33.855 C24.202,33.807 24.202,33.759 24.202,33.711 C24.059,33.711 23.916,33.711 23.774,33.711 C23.774,33.662 23.774,33.614 23.774,33.566 C23.679,33.566 23.583,33.566 23.488,33.566 C23.488,33.518 23.488,33.469 23.488,33.421 C23.346,33.421 23.203,33.421 23.060,33.421 C23.013,33.325 22.965,33.228 22.918,33.132 C22.727,33.084 22.537,33.035 22.347,32.987 C22.204,32.794 22.062,32.601 21.919,32.409 C21.824,32.409 21.729,32.409 21.634,32.409 C21.634,32.360 21.634,32.312 21.634,32.264 C21.538,32.216 21.443,32.167 21.348,32.119 C21.348,32.023 21.348,31.926 21.348,31.830 C21.158,31.685 20.968,31.540 20.777,31.396 C20.730,31.203 20.682,31.010 20.635,30.817 C20.540,30.769 20.445,30.721 20.349,30.672 C20.349,30.528 20.349,30.383 20.349,30.238 C20.302,30.238 20.254,30.238 20.207,30.238 C20.207,30.142 20.207,30.045 20.207,29.949 C20.159,29.949 20.112,29.949 20.064,29.949 C20.064,29.756 20.064,29.563 20.064,29.370 C20.017,29.370 19.969,29.370 19.921,29.370 C19.831,29.110 19.643,27.041 19.921,26.911 C19.826,26.911 19.731,26.911 19.636,26.911 C19.186,26.410 18.267,26.238 17.639,25.898 C17.639,25.850 17.639,25.801 17.639,25.753 C17.543,25.753 17.448,25.753 17.353,25.753 C17.353,25.705 17.353,25.657 17.353,25.609 C17.163,25.560 16.973,25.512 16.782,25.464 C16.782,25.416 16.782,25.367 16.782,25.319 C16.640,25.319 16.497,25.319 16.354,25.319 C16.354,25.271 16.354,25.223 16.354,25.174 C16.069,25.078 15.784,24.982 15.498,24.885 C15.498,24.837 15.498,24.789 15.498,24.740 C15.403,24.740 15.308,24.740 15.213,24.740 C15.213,24.692 15.213,24.644 15.213,24.596 C15.118,24.596 15.023,24.596 14.928,24.596 C14.928,24.548 14.928,24.499 14.928,24.451 C14.833,24.451 14.737,24.451 14.642,24.451 C14.642,24.403 14.642,24.355 14.642,24.306 C14.547,24.306 14.452,24.306 14.357,24.306 C14.357,24.258 14.357,24.210 14.357,24.162 C14.262,24.162 14.167,24.162 14.072,24.162 C14.072,24.113 14.072,24.065 14.072,24.017 C13.977,24.017 13.881,24.017 13.786,24.017 C13.786,23.969 13.786,23.921 13.786,23.872 C13.691,23.872 13.596,23.872 13.501,23.872 C13.501,23.824 13.501,23.776 13.501,23.728 C13.406,23.728 13.311,23.728 13.216,23.728 C13.216,23.679 13.216,23.631 13.216,23.583 C12.788,23.438 12.359,23.294 11.931,23.149 C11.237,22.773 10.424,22.109 9.506,21.991 C8.959,22.856 6.020,23.530 4.512,23.004 C4.512,22.956 4.512,22.908 4.512,22.860 C4.370,22.860 4.227,22.860 4.084,22.860 C4.084,22.811 4.084,22.763 4.084,22.715 C3.989,22.715 3.894,22.715 3.799,22.715 C3.799,22.667 3.799,22.618 3.799,22.570 C3.656,22.570 3.513,22.570 3.371,22.570 C3.323,22.474 3.276,22.377 3.228,22.281 C3.038,22.233 2.848,22.184 2.657,22.136 C2.515,21.943 2.372,21.750 2.229,21.557 C2.134,21.557 2.039,21.557 1.944,21.557 C1.896,21.461 1.849,21.365 1.801,21.268 C1.754,21.268 1.706,21.268 1.659,21.268 C1.659,21.172 1.659,21.075 1.659,20.979 C1.468,20.834 1.278,20.689 1.088,20.545 C1.088,20.448 1.088,20.352 1.088,20.255 C0.993,20.207 0.898,20.159 0.803,20.111 C0.660,19.628 0.517,19.146 0.375,18.664 C0.187,18.147 -0.162,16.921 0.089,16.060 C0.585,14.357 0.956,13.378 2.229,12.443 C2.372,12.250 2.515,12.057 2.657,11.864 C2.848,11.816 3.038,11.767 3.228,11.719 C3.276,11.623 3.323,11.526 3.371,11.430 C3.513,11.430 3.656,11.430 3.799,11.430 C3.799,11.382 3.799,11.333 3.799,11.285 C3.894,11.285 3.989,11.285 4.084,11.285 C4.084,11.237 4.084,11.189 4.084,11.140 C4.527,10.950 6.383,10.636 7.080,10.851 C7.080,10.899 7.080,10.948 7.080,10.996 C7.271,10.996 7.461,10.996 7.651,10.996 C7.651,11.044 7.651,11.092 7.651,11.140 C7.841,11.140 8.032,11.140 8.222,11.140 C8.222,11.189 8.222,11.237 8.222,11.285 C8.412,11.333 8.602,11.382 8.793,11.430 C8.793,11.478 8.793,11.526 8.793,11.574 C8.888,11.574 8.983,11.574 9.078,11.574 C9.078,11.623 9.078,11.671 9.078,11.719 C9.173,11.719 9.268,11.719 9.363,11.719 C9.363,11.767 9.363,11.816 9.363,11.864 C9.561,11.996 9.614,11.962 9.934,12.009 C10.385,11.508 11.302,11.337 11.931,10.996 C11.931,10.948 11.931,10.899 11.931,10.851 C12.027,10.851 12.122,10.851 12.217,10.851 C12.217,10.803 12.217,10.755 12.217,10.706 C12.407,10.658 12.597,10.610 12.788,10.562 C12.788,10.513 12.788,10.465 12.788,10.417 C12.930,10.417 13.073,10.417 13.216,10.417 C13.216,10.369 13.216,10.321 13.216,10.272 C13.501,10.176 13.786,10.079 14.072,9.983 C14.072,9.935 14.072,9.887 14.072,9.838 C14.167,9.838 14.262,9.838 14.357,9.838 C14.357,9.790 14.357,9.742 14.357,9.694 C14.452,9.694 14.547,9.694 14.642,9.694 C14.642,9.645 14.642,9.597 14.642,9.549 C14.737,9.549 14.833,9.549 14.928,9.549 C14.928,9.501 14.928,9.452 14.928,9.404 C15.023,9.404 15.118,9.404 15.213,9.404 C15.213,9.356 15.213,9.308 15.213,9.260 C15.308,9.260 15.403,9.260 15.498,9.260 C15.498,9.211 15.498,9.163 15.498,9.115 C15.594,9.115 15.689,9.115 15.784,9.115 C15.784,9.067 15.784,9.018 15.784,8.970 C15.879,8.970 15.974,8.970 16.069,8.970 C16.069,8.922 16.069,8.874 16.069,8.826 C16.164,8.826 16.259,8.826 16.354,8.826 C16.354,8.777 16.354,8.729 16.354,8.681 C16.497,8.681 16.640,8.681 16.782,8.681 C16.782,8.633 16.782,8.584 16.782,8.536 C16.973,8.488 17.163,8.440 17.353,8.391 C17.353,8.343 17.353,8.295 17.353,8.247 C17.543,8.199 17.734,8.150 17.924,8.102 C18.546,7.765 19.146,7.272 19.921,7.089 C19.605,6.256 19.838,5.298 20.064,4.630 C20.159,4.196 20.254,3.762 20.349,3.328 C20.445,3.279 20.540,3.231 20.635,3.183 C20.682,2.990 20.730,2.797 20.777,2.604 C20.968,2.460 21.158,2.315 21.348,2.170 C21.348,2.074 21.348,1.977 21.348,1.881 C21.443,1.833 21.538,1.784 21.634,1.736 C21.634,1.688 21.634,1.640 21.634,1.591 C21.729,1.591 21.824,1.591 21.919,1.591 C22.062,1.399 22.204,1.206 22.347,1.013 C22.537,0.965 22.727,0.916 22.918,0.868 C22.965,0.772 23.013,0.675 23.060,0.579 C23.203,0.579 23.346,0.579 23.488,0.579 C23.488,0.531 23.488,0.482 23.488,0.434 C23.583,0.434 23.679,0.434 23.774,0.434 C23.774,0.386 23.774,0.338 23.774,0.289 C23.916,0.289 24.059,0.289 24.202,0.289 C24.202,0.241 24.202,0.193 24.202,0.145 C25.058,0.096 25.914,0.048 26.770,0.000 C27.634,0.260 28.666,0.539 29.338,1.013 C29.433,1.157 29.528,1.302 29.624,1.447 C29.719,1.447 29.814,1.447 29.909,1.447 C30.052,1.640 30.194,1.833 30.337,2.026 C30.384,2.026 30.432,2.026 30.480,2.026 C30.480,2.122 30.480,2.218 30.480,2.315 C30.622,2.411 30.765,2.508 30.908,2.604 C30.908,2.701 30.908,2.797 30.908,2.894 C31.003,2.942 31.098,2.990 31.193,3.038 C31.241,3.231 31.288,3.424 31.336,3.617 C31.383,3.617 31.431,3.617 31.478,3.617 C31.478,3.762 31.478,3.906 31.478,4.051 C31.526,4.051 31.573,4.051 31.621,4.051 C31.621,4.196 31.621,4.340 31.621,4.485 C31.669,4.485 31.716,4.485 31.764,4.485 C31.764,4.726 31.764,4.967 31.764,5.209 C31.811,5.209 31.859,5.209 31.906,5.209 C32.110,5.934 31.817,7.787 31.621,8.247 C31.573,8.247 31.526,8.247 31.478,8.247 C31.478,8.343 31.478,8.440 31.478,8.536 C31.431,8.536 31.383,8.536 31.336,8.536 C31.336,8.681 31.336,8.826 31.336,8.970 C31.241,9.018 31.145,9.067 31.050,9.115 C31.003,9.308 30.955,9.501 30.908,9.694 C30.717,9.838 30.527,9.983 30.337,10.128 C30.337,10.224 30.337,10.321 30.337,10.417 C30.242,10.465 30.147,10.513 30.052,10.562 C30.052,10.610 30.052,10.658 30.052,10.706 C29.956,10.706 29.861,10.706 29.766,10.706 C29.624,10.899 29.481,11.092 29.338,11.285 C29.243,11.285 29.148,11.285 29.053,11.285 C29.053,11.333 29.053,11.382 29.053,11.430 C28.958,11.430 28.863,11.430 28.767,11.430 C28.767,11.478 28.767,11.526 28.767,11.574 C28.672,11.574 28.577,11.574 28.482,11.574 C28.482,11.623 28.482,11.671 28.482,11.719 C28.387,11.719 28.292,11.719 28.197,11.719 C28.197,11.767 28.197,11.816 28.197,11.864 C28.102,11.864 28.006,11.864 27.911,11.864 C27.911,11.912 27.911,11.960 27.911,12.009 C25.643,12.915 22.314,11.733 21.491,10.272 C20.254,10.851 19.018,11.430 17.781,12.009 C17.781,12.057 17.781,12.105 17.781,12.153 C17.686,12.153 17.591,12.153 17.496,12.153 C17.496,12.201 17.496,12.250 17.496,12.298 C17.401,12.298 17.306,12.298 17.211,12.298 C17.211,12.346 17.211,12.394 17.211,12.443 C17.068,12.443 16.925,12.443 16.782,12.443 C16.782,12.491 16.782,12.539 16.782,12.587 C16.687,12.587 16.592,12.587 16.497,12.587 C16.497,12.635 16.497,12.684 16.497,12.732 C16.307,12.780 16.117,12.828 15.926,12.877 C15.926,12.925 15.926,12.973 15.926,13.021 C15.736,13.069 15.546,13.118 15.356,13.166 C15.356,13.214 15.356,13.262 15.356,13.311 C15.261,13.311 15.165,13.311 15.070,13.311 C15.070,13.359 15.070,13.407 15.070,13.455 C14.975,13.455 14.880,13.455 14.785,13.455 C14.785,13.504 14.785,13.552 14.785,13.600 C14.690,13.600 14.595,13.600 14.500,13.600 C14.500,13.648 14.500,13.696 14.500,13.745 C14.405,13.745 14.309,13.745 14.214,13.745 C14.214,13.793 14.214,13.841 14.214,13.889 C13.848,14.089 12.053,14.676 11.931,14.902 C11.931,15.095 11.931,15.288 11.931,15.481 C11.979,15.481 12.027,15.481 12.074,15.481 C12.074,15.674 12.074,15.867 12.074,16.060 C12.431,17.142 12.001,18.086 11.931,19.098 C14.357,20.255 16.783,21.413 19.208,22.570 C19.208,22.618 19.208,22.667 19.208,22.715 C19.493,22.811 19.779,22.908 20.064,23.004 C20.064,23.052 20.064,23.101 20.064,23.149 C20.254,23.197 20.445,23.245 20.635,23.294 C20.635,23.342 20.635,23.390 20.635,23.438 C20.777,23.438 20.920,23.438 21.063,23.438 C21.063,23.487 21.063,23.535 21.063,23.583 C21.158,23.583 21.253,23.583 21.348,23.583 C21.348,23.631 21.348,23.679 21.348,23.728 C21.396,23.728 21.443,23.728 21.491,23.728 C21.491,23.679 21.491,23.631 21.491,23.583 C21.729,23.390 21.966,23.197 22.204,23.004 C22.204,22.956 22.204,22.908 22.204,22.860 C22.299,22.860 22.395,22.860 22.490,22.860 C22.537,22.763 22.585,22.667 22.632,22.570 C22.727,22.570 22.823,22.570 22.918,22.570 C22.918,22.522 22.918,22.474 22.918,22.426 C23.108,22.377 23.298,22.329 23.488,22.281 C23.488,22.233 23.488,22.184 23.488,22.136 C23.911,21.949 25.928,21.495 26.627,21.702 C26.627,21.750 26.627,21.799 26.627,21.847 C26.865,21.847 27.103,21.847 27.341,21.847 C27.341,21.895 27.341,21.943 27.341,21.991 C27.531,21.991 27.721,21.991 27.911,21.991 C27.911,22.040 27.911,22.088 27.911,22.136 C28.197,22.233 28.482,22.329 28.767,22.426 C28.767,22.474 28.767,22.522 28.767,22.570 C28.958,22.618 29.148,22.667 29.338,22.715 C29.338,22.763 29.338,22.811 29.338,22.860 C29.633,23.101 29.771,23.319 30.194,23.438 ZM24.059,7.957 C24.385,8.051 24.402,8.084 24.630,8.247 C24.630,8.295 24.630,8.343 24.630,8.391 C24.772,8.391 24.915,8.391 25.058,8.391 C25.058,8.440 25.058,8.488 25.058,8.536 C25.454,8.676 26.537,8.606 26.770,8.391 C27.051,8.322 27.630,8.004 27.769,7.813 C27.769,7.716 27.769,7.620 27.769,7.523 C27.816,7.523 27.864,7.523 27.911,7.523 C28.048,7.346 28.017,7.244 28.197,7.089 C28.246,6.443 28.370,6.305 28.197,5.787 C28.197,5.594 28.197,5.401 28.197,5.209 C28.149,5.209 28.102,5.209 28.054,5.209 C27.986,4.924 27.672,4.336 27.483,4.196 C27.388,4.196 27.293,4.196 27.198,4.196 C27.198,4.148 27.198,4.099 27.198,4.051 C27.023,3.913 26.922,3.944 26.770,3.762 C26.132,3.712 25.997,3.586 25.486,3.762 C25.296,3.762 25.105,3.762 24.915,3.762 C24.915,3.810 24.915,3.858 24.915,3.906 C24.635,3.976 24.055,4.294 23.916,4.485 C23.916,4.582 23.916,4.678 23.916,4.774 C23.869,4.774 23.821,4.774 23.774,4.774 C23.637,4.952 23.668,5.054 23.488,5.209 C23.480,5.675 23.324,6.894 23.488,7.234 C23.536,7.234 23.583,7.234 23.631,7.234 C23.824,7.517 23.952,7.565 24.059,7.957 ZM5.939,14.468 C5.939,14.516 5.939,14.565 5.939,14.613 C5.701,14.613 5.463,14.613 5.226,14.613 C5.226,14.661 5.226,14.709 5.226,14.757 C4.945,14.827 4.365,15.145 4.227,15.336 C4.227,15.433 4.227,15.529 4.227,15.626 C4.179,15.626 4.132,15.626 4.084,15.626 C3.948,15.803 3.978,15.905 3.799,16.060 C3.750,16.706 3.626,16.844 3.799,17.362 C3.799,17.555 3.799,17.748 3.799,17.940 C3.846,17.940 3.894,17.940 3.941,17.940 C4.010,18.225 4.324,18.813 4.512,18.953 C4.607,18.953 4.702,18.953 4.798,18.953 C4.798,19.001 4.798,19.050 4.798,19.098 C4.973,19.236 5.073,19.205 5.226,19.387 C5.873,19.421 6.665,19.636 7.080,19.243 C7.223,19.194 7.366,19.146 7.508,19.098 C7.508,19.050 7.508,19.001 7.508,18.953 C7.907,18.688 8.088,18.779 8.222,18.230 C8.505,17.954 8.222,18.147 8.364,17.796 C8.793,16.743 8.450,16.545 8.222,15.481 C7.456,15.040 7.125,14.586 5.939,14.468 ZM24.059,26.043 C23.938,26.458 23.839,26.462 23.631,26.766 C23.583,26.766 23.536,26.766 23.488,26.766 C23.279,27.210 23.459,28.602 23.631,28.791 C23.699,29.076 24.013,29.664 24.202,29.804 C24.297,29.804 24.392,29.804 24.487,29.804 C24.487,29.852 24.487,29.901 24.487,29.949 C24.662,30.087 24.763,30.056 24.915,30.238 C25.553,30.288 25.688,30.414 26.199,30.238 C26.389,30.238 26.580,30.238 26.770,30.238 C26.770,30.190 26.770,30.142 26.770,30.094 C27.051,30.024 27.630,29.706 27.769,29.515 C27.769,29.418 27.769,29.322 27.769,29.226 C27.816,29.226 27.864,29.226 27.911,29.226 C28.048,29.048 28.017,28.946 28.197,28.791 C28.246,28.145 28.370,28.007 28.197,27.489 C28.197,27.296 28.197,27.104 28.197,26.911 C28.149,26.911 28.102,26.911 28.054,26.911 C27.842,25.953 26.972,25.455 25.771,25.464 C25.533,25.464 25.296,25.464 25.058,25.464 C25.058,25.512 25.058,25.560 25.058,25.609 C24.963,25.609 24.868,25.609 24.772,25.609 C24.772,25.657 24.772,25.705 24.772,25.753 C24.677,25.753 24.582,25.753 24.487,25.753 C24.487,25.801 24.487,25.850 24.487,25.898 C24.344,25.946 24.202,25.994 24.059,26.043 Z"/>
</svg>