<svg 
 xmlns="http://www.w3.org/2000/svg"
 xmlns:xlink="http://www.w3.org/1999/xlink"
 width="15px" height="10px">
<path fill-rule="evenodd"  fill="rgb(25, 25, 25)"
 d="M0.557,0.001 C0.708,-0.001 0.816,0.029 0.906,0.090 C0.913,0.092 0.921,0.094 0.928,0.096 C0.930,0.100 0.932,0.104 0.934,0.108 C0.938,0.108 0.942,0.108 0.945,0.108 C0.947,0.112 0.949,0.116 0.951,0.120 C0.955,0.120 0.958,0.120 0.962,0.120 C0.966,0.126 0.970,0.132 0.973,0.138 C1.034,0.183 1.080,0.238 1.131,0.293 C1.159,0.321 1.187,0.348 1.215,0.376 C1.288,0.456 1.362,0.535 1.435,0.614 C1.474,0.654 1.513,0.694 1.553,0.733 C1.646,0.835 1.740,0.936 1.834,1.037 C1.905,1.111 1.976,1.184 2.048,1.257 C2.048,1.261 2.048,1.265 2.048,1.269 C3.034,2.311 4.020,3.354 5.006,4.396 C5.178,4.580 5.351,4.765 5.523,4.950 C5.595,5.023 5.666,5.097 5.737,5.170 C5.791,5.230 5.846,5.289 5.900,5.349 C5.908,5.355 5.915,5.361 5.923,5.367 C5.943,5.388 5.974,5.439 6.007,5.444 C7.419,3.947 8.830,2.450 10.242,0.954 C10.304,0.890 10.366,0.827 10.428,0.763 C10.441,0.747 10.454,0.731 10.467,0.716 C10.510,0.670 10.555,0.631 10.591,0.579 C10.660,0.507 10.729,0.436 10.799,0.364 C10.858,0.302 10.910,0.232 10.979,0.180 C10.990,0.166 11.001,0.152 11.012,0.138 C11.016,0.138 11.020,0.138 11.024,0.138 C11.027,0.132 11.031,0.126 11.035,0.120 C11.039,0.120 11.042,0.120 11.046,0.120 C11.048,0.116 11.050,0.112 11.052,0.108 C11.056,0.108 11.059,0.108 11.063,0.108 C11.065,0.104 11.067,0.100 11.069,0.096 C11.076,0.094 11.084,0.092 11.091,0.090 C11.093,0.086 11.095,0.082 11.097,0.078 C11.104,0.076 11.112,0.074 11.119,0.072 C11.119,0.070 11.119,0.068 11.119,0.066 C11.127,0.064 11.134,0.062 11.142,0.060 C11.142,0.058 11.142,0.057 11.142,0.055 C11.147,0.055 11.153,0.055 11.159,0.055 C11.159,0.053 11.159,0.051 11.159,0.049 C11.162,0.049 11.166,0.049 11.170,0.049 C11.170,0.047 11.170,0.045 11.170,0.043 C11.176,0.043 11.181,0.043 11.187,0.043 C11.187,0.041 11.187,0.039 11.187,0.037 C11.192,0.037 11.198,0.037 11.204,0.037 C11.204,0.035 11.204,0.033 11.204,0.031 C11.209,0.031 11.215,0.031 11.221,0.031 C11.221,0.029 11.221,0.027 11.221,0.025 C11.228,0.025 11.236,0.025 11.243,0.025 C11.243,0.023 11.243,0.021 11.243,0.019 C11.251,0.019 11.258,0.019 11.266,0.019 C11.266,0.017 11.266,0.015 11.266,0.013 C11.275,0.013 11.284,0.013 11.294,0.013 C11.294,0.011 11.294,0.009 11.294,0.007 C11.309,0.007 11.324,0.007 11.339,0.007 C11.381,-0.006 11.453,0.001 11.490,0.013 C11.500,0.013 11.509,0.013 11.519,0.013 C11.519,0.015 11.519,0.017 11.519,0.019 C11.526,0.019 11.534,0.019 11.541,0.019 C11.541,0.021 11.541,0.023 11.541,0.025 C11.549,0.025 11.556,0.025 11.564,0.025 C11.564,0.027 11.564,0.029 11.564,0.031 C11.569,0.031 11.575,0.031 11.580,0.031 C11.580,0.033 11.580,0.035 11.580,0.037 C11.586,0.037 11.592,0.037 11.597,0.037 C11.597,0.039 11.597,0.041 11.597,0.043 C11.603,0.043 11.609,0.043 11.614,0.043 C11.614,0.045 11.614,0.047 11.614,0.049 C11.618,0.049 11.622,0.049 11.625,0.049 C11.625,0.051 11.625,0.053 11.625,0.055 C11.631,0.055 11.637,0.055 11.642,0.055 C11.642,0.057 11.642,0.058 11.642,0.060 C11.650,0.062 11.657,0.064 11.665,0.066 C11.665,0.068 11.665,0.070 11.665,0.072 C11.672,0.074 11.680,0.076 11.687,0.078 C11.689,0.082 11.691,0.086 11.693,0.090 C11.700,0.092 11.708,0.094 11.715,0.096 C11.717,0.100 11.719,0.104 11.721,0.108 C11.725,0.108 11.729,0.108 11.732,0.108 C11.734,0.112 11.736,0.116 11.738,0.120 C11.742,0.120 11.745,0.120 11.749,0.120 C11.755,0.128 11.760,0.136 11.766,0.144 C11.770,0.144 11.774,0.144 11.777,0.144 C11.792,0.162 11.807,0.180 11.822,0.197 C11.835,0.209 11.849,0.221 11.862,0.233 C11.862,0.237 11.862,0.241 11.862,0.245 C11.869,0.251 11.877,0.257 11.884,0.263 C11.884,0.267 11.884,0.271 11.884,0.275 C11.888,0.277 11.892,0.279 11.895,0.281 C11.897,0.287 11.899,0.293 11.901,0.299 C11.903,0.299 11.905,0.299 11.907,0.299 C11.909,0.307 11.910,0.315 11.912,0.323 C11.916,0.324 11.920,0.326 11.924,0.328 C11.925,0.336 11.927,0.344 11.929,0.352 C11.931,0.352 11.933,0.352 11.935,0.352 C11.937,0.360 11.939,0.368 11.940,0.376 C11.942,0.376 11.944,0.376 11.946,0.376 C11.948,0.386 11.950,0.396 11.952,0.406 C11.954,0.406 11.955,0.406 11.957,0.406 C11.957,0.412 11.957,0.418 11.957,0.424 C11.959,0.424 11.961,0.424 11.963,0.424 C11.963,0.430 11.963,0.436 11.963,0.442 C11.965,0.442 11.967,0.442 11.969,0.442 C11.969,0.448 11.969,0.454 11.969,0.459 C11.970,0.459 11.972,0.459 11.974,0.459 C11.974,0.465 11.974,0.471 11.974,0.477 C11.976,0.477 11.978,0.477 11.980,0.477 C11.980,0.485 11.980,0.493 11.980,0.501 C11.982,0.501 11.984,0.501 11.985,0.501 C11.987,0.525 11.989,0.549 11.991,0.573 C12.015,0.661 11.986,0.791 11.963,0.853 C11.963,0.858 11.963,0.864 11.963,0.870 C11.961,0.870 11.959,0.870 11.957,0.870 C11.957,0.874 11.957,0.878 11.957,0.882 C11.955,0.882 11.954,0.882 11.952,0.882 C11.952,0.888 11.952,0.894 11.952,0.900 C11.950,0.900 11.948,0.900 11.946,0.900 C11.942,0.912 11.939,0.924 11.935,0.936 C11.933,0.936 11.931,0.936 11.929,0.936 C11.929,0.940 11.929,0.944 11.929,0.948 C11.927,0.948 11.925,0.948 11.924,0.948 C11.922,0.956 11.920,0.964 11.918,0.972 C11.914,0.974 11.910,0.976 11.907,0.978 C11.907,0.982 11.907,0.986 11.907,0.989 C11.905,0.989 11.903,0.989 11.901,0.989 C11.899,0.995 11.897,1.001 11.895,1.007 C11.892,1.009 11.888,1.011 11.884,1.013 C11.884,1.017 11.884,1.021 11.884,1.025 C11.879,1.029 11.873,1.033 11.867,1.037 C11.867,1.041 11.867,1.045 11.867,1.049 C11.856,1.059 11.845,1.069 11.834,1.079 C11.834,1.083 11.834,1.087 11.834,1.091 C11.811,1.113 11.789,1.134 11.766,1.156 C11.753,1.172 11.740,1.188 11.727,1.204 C11.670,1.261 11.614,1.319 11.558,1.377 C11.342,1.607 11.127,1.837 10.911,2.067 C9.824,3.217 8.736,4.366 7.649,5.515 C7.456,5.722 7.263,5.928 7.070,6.135 C6.958,6.252 6.845,6.369 6.733,6.486 C6.682,6.542 6.631,6.597 6.581,6.653 C6.558,6.675 6.536,6.697 6.513,6.718 C6.476,6.760 6.438,6.802 6.401,6.843 C6.397,6.843 6.393,6.843 6.389,6.843 C6.384,6.851 6.378,6.859 6.373,6.867 C6.367,6.869 6.361,6.871 6.356,6.873 C6.354,6.877 6.352,6.881 6.350,6.885 C6.346,6.885 6.343,6.885 6.339,6.885 C6.337,6.889 6.335,6.893 6.333,6.897 C6.328,6.899 6.322,6.901 6.316,6.903 C6.316,6.905 6.316,6.907 6.316,6.909 C6.305,6.913 6.294,6.917 6.283,6.921 C6.283,6.923 6.283,6.925 6.283,6.927 C6.279,6.927 6.275,6.927 6.271,6.927 C6.271,6.929 6.271,6.931 6.271,6.933 C6.260,6.937 6.249,6.941 6.238,6.945 C6.238,6.947 6.238,6.949 6.238,6.951 C6.226,6.953 6.215,6.955 6.204,6.957 C6.204,6.959 6.204,6.961 6.204,6.963 C6.200,6.963 6.196,6.963 6.193,6.963 C6.193,6.965 6.193,6.967 6.193,6.969 C6.170,6.973 6.148,6.976 6.125,6.980 C5.944,7.039 5.737,6.953 5.630,6.873 C5.625,6.865 5.619,6.857 5.613,6.849 C5.610,6.849 5.606,6.849 5.602,6.849 C5.568,6.812 5.535,6.774 5.501,6.736 C5.480,6.716 5.460,6.697 5.439,6.677 C5.370,6.601 5.300,6.526 5.231,6.450 C5.139,6.355 5.047,6.260 4.955,6.165 C4.766,5.962 4.577,5.760 4.387,5.557 C4.159,5.317 3.930,5.077 3.701,4.837 C2.899,3.985 2.096,3.133 1.294,2.282 C1.215,2.200 1.137,2.119 1.058,2.038 C0.854,1.819 0.649,1.601 0.445,1.383 C0.396,1.333 0.347,1.283 0.299,1.234 C0.274,1.206 0.250,1.178 0.225,1.150 C0.203,1.128 0.180,1.107 0.158,1.085 C0.158,1.081 0.158,1.077 0.158,1.073 C0.147,1.063 0.136,1.053 0.124,1.043 C0.124,1.039 0.124,1.035 0.124,1.031 C0.119,1.027 0.113,1.023 0.107,1.019 C0.107,1.015 0.107,1.011 0.107,1.007 C0.104,1.005 0.100,1.003 0.096,1.001 C0.094,0.993 0.092,0.986 0.091,0.978 C0.087,0.976 0.083,0.974 0.079,0.972 C0.061,0.926 0.042,0.880 0.023,0.835 C0.023,0.827 0.023,0.819 0.023,0.811 C-0.003,0.729 -0.010,0.590 0.017,0.501 C0.017,0.493 0.017,0.485 0.017,0.477 C0.019,0.477 0.021,0.477 0.023,0.477 C0.023,0.471 0.023,0.465 0.023,0.459 C0.025,0.459 0.027,0.459 0.029,0.459 C0.029,0.454 0.029,0.448 0.029,0.442 C0.031,0.442 0.032,0.442 0.034,0.442 C0.034,0.436 0.034,0.430 0.034,0.424 C0.036,0.424 0.038,0.424 0.040,0.424 C0.040,0.418 0.040,0.412 0.040,0.406 C0.042,0.406 0.044,0.406 0.046,0.406 C0.046,0.402 0.046,0.398 0.046,0.394 C0.047,0.394 0.049,0.394 0.051,0.394 C0.051,0.388 0.051,0.382 0.051,0.376 C0.053,0.376 0.055,0.376 0.057,0.376 C0.059,0.368 0.061,0.360 0.062,0.352 C0.064,0.352 0.066,0.352 0.068,0.352 C0.070,0.344 0.072,0.336 0.074,0.328 C0.077,0.326 0.081,0.324 0.085,0.323 C0.087,0.315 0.089,0.307 0.091,0.299 C0.094,0.297 0.098,0.295 0.102,0.293 C0.102,0.289 0.102,0.285 0.102,0.281 C0.107,0.277 0.113,0.273 0.119,0.269 C0.119,0.265 0.119,0.261 0.119,0.257 C0.124,0.253 0.130,0.249 0.136,0.245 C0.136,0.241 0.136,0.237 0.136,0.233 C0.151,0.219 0.166,0.205 0.180,0.191 C0.194,0.176 0.207,0.160 0.220,0.144 C0.224,0.144 0.227,0.144 0.231,0.144 C0.235,0.138 0.239,0.132 0.242,0.126 C0.246,0.126 0.250,0.126 0.254,0.126 C0.255,0.122 0.257,0.118 0.259,0.114 C0.265,0.112 0.270,0.110 0.276,0.108 C0.276,0.106 0.276,0.104 0.276,0.102 C0.280,0.102 0.284,0.102 0.287,0.102 C0.289,0.098 0.291,0.094 0.293,0.090 C0.304,0.086 0.315,0.082 0.327,0.078 C0.329,0.074 0.330,0.070 0.332,0.066 C0.338,0.066 0.344,0.066 0.349,0.066 C0.349,0.064 0.349,0.062 0.349,0.060 C0.357,0.058 0.364,0.057 0.372,0.055 C0.372,0.053 0.372,0.051 0.372,0.049 C0.377,0.049 0.383,0.049 0.389,0.049 C0.389,0.047 0.389,0.045 0.389,0.043 C0.392,0.043 0.396,0.043 0.400,0.043 C0.400,0.041 0.400,0.039 0.400,0.037 C0.413,0.035 0.426,0.033 0.439,0.031 C0.439,0.029 0.439,0.027 0.439,0.025 C0.445,0.025 0.450,0.025 0.456,0.025 C0.456,0.023 0.456,0.021 0.456,0.019 C0.464,0.019 0.471,0.019 0.479,0.019 C0.479,0.017 0.479,0.015 0.479,0.013 C0.501,0.005 0.542,0.015 0.557,0.001 Z"/>
</svg>