<svg 
 xmlns="http://www.w3.org/2000/svg"
 xmlns:xlink="http://www.w3.org/1999/xlink"
 width="14px" height="14px">
<path fill-rule="evenodd"  fill="rgb(240, 206, 166)"
 d="M9.541,13.988 C11.985,13.988 13.970,12.001 13.984,9.572 L14.010,6.000 L13.970,5.805 L13.852,5.561 L13.654,5.409 C13.396,5.206 12.090,5.421 11.738,5.102 C11.487,4.874 11.449,4.464 11.373,3.907 C11.233,2.826 11.145,2.770 10.976,2.403 C10.359,1.105 8.691,0.125 7.543,-0.008 L4.437,-0.008 C1.994,-0.008 -0.006,1.982 -0.006,4.415 L-0.006,9.572 C-0.006,12.001 1.994,13.988 4.437,13.988 L9.541,13.988 ZM4.493,3.605 L6.957,3.605 C7.426,3.605 7.808,3.987 7.808,4.448 C7.808,4.911 7.426,5.295 6.957,5.295 L4.493,5.295 C4.023,5.295 3.642,4.911 3.642,4.448 C3.642,3.987 4.023,3.605 4.493,3.605 ZM3.642,9.508 C3.642,9.046 4.023,8.667 4.493,8.667 L9.498,8.667 C9.965,8.667 10.346,9.046 10.346,9.508 C10.346,9.965 9.965,10.351 9.498,10.351 L4.493,10.351 C4.023,10.351 3.642,9.965 3.642,9.508 Z"/>
</svg>