<svg 
 xmlns="http://www.w3.org/2000/svg"
 xmlns:xlink="http://www.w3.org/1999/xlink"
 width="97px" height="31px">
<path fill-rule="evenodd"  fill="rgb(69, 76, 92)"
 d="M1.325,-0.000 C1.649,-0.000 1.973,-0.000 2.297,-0.000 C2.297,0.030 2.297,0.061 2.297,0.091 C2.386,0.091 2.474,0.091 2.563,0.091 C2.563,0.121 2.563,0.152 2.563,0.182 C2.621,0.182 2.680,0.182 2.739,0.182 C2.739,0.212 2.739,0.242 2.739,0.273 C2.916,0.333 3.093,0.394 3.269,0.455 C3.623,0.758 3.976,1.061 4.330,1.364 C4.449,1.487 4.576,1.820 4.683,1.909 C4.742,1.909 4.801,1.909 4.860,1.909 C4.948,2.030 5.037,2.152 5.125,2.273 C5.184,2.273 5.243,2.273 5.302,2.273 C5.302,2.303 5.302,2.333 5.302,2.364 C5.390,2.424 5.478,2.485 5.567,2.545 C5.596,2.606 5.626,2.667 5.655,2.727 C5.714,2.727 5.773,2.727 5.832,2.727 C5.920,2.848 6.009,2.970 6.097,3.091 C6.156,3.091 6.215,3.091 6.274,3.091 C6.303,3.152 6.333,3.212 6.362,3.273 C6.421,3.273 6.480,3.273 6.539,3.273 C6.627,3.394 6.716,3.515 6.804,3.636 C6.863,3.636 6.922,3.636 6.981,3.636 C7.010,3.697 7.040,3.758 7.069,3.818 C7.128,3.818 7.187,3.818 7.246,3.818 C7.305,3.909 7.364,4.000 7.422,4.091 C7.481,4.091 7.540,4.091 7.599,4.091 C7.629,4.152 7.658,4.212 7.688,4.273 C7.776,4.303 7.864,4.333 7.953,4.364 C7.953,4.394 7.953,4.424 7.953,4.455 C8.012,4.455 8.070,4.455 8.129,4.455 C8.159,4.515 8.188,4.576 8.218,4.636 C8.277,4.636 8.336,4.636 8.394,4.636 C8.424,4.697 8.453,4.758 8.483,4.818 C8.542,4.818 8.601,4.818 8.660,4.818 C8.718,4.909 8.777,5.000 8.836,5.091 C8.895,5.091 8.954,5.091 9.013,5.091 C9.072,5.182 9.131,5.273 9.190,5.364 C9.249,5.364 9.308,5.364 9.366,5.364 C9.396,5.424 9.425,5.485 9.455,5.545 C9.514,5.545 9.573,5.545 9.632,5.545 C9.661,5.606 9.690,5.667 9.720,5.727 C9.779,5.727 9.838,5.727 9.897,5.727 C9.897,5.758 9.897,5.788 9.897,5.818 C9.956,5.818 10.014,5.818 10.073,5.818 C10.073,5.848 10.073,5.879 10.073,5.909 C10.132,5.909 10.191,5.909 10.250,5.909 C10.250,5.939 10.250,5.970 10.250,6.000 C10.309,6.000 10.368,6.000 10.427,6.000 C10.427,6.030 10.427,6.061 10.427,6.091 C10.486,6.091 10.545,6.091 10.604,6.091 C10.633,6.152 10.662,6.212 10.692,6.273 C10.751,6.273 10.810,6.273 10.869,6.273 C10.898,6.333 10.928,6.394 10.957,6.455 C11.016,6.455 11.075,6.455 11.134,6.455 C11.193,6.545 11.252,6.636 11.310,6.727 C11.369,6.727 11.428,6.727 11.487,6.727 C11.517,6.788 11.546,6.848 11.575,6.909 C11.634,6.909 11.693,6.909 11.752,6.909 C11.811,7.000 11.870,7.091 11.929,7.182 C12.106,7.242 12.282,7.303 12.459,7.364 C12.459,7.394 12.459,7.424 12.459,7.455 C12.518,7.455 12.577,7.455 12.636,7.455 C12.636,7.485 12.636,7.515 12.636,7.545 C12.695,7.545 12.754,7.545 12.813,7.545 C12.813,7.576 12.813,7.606 12.813,7.636 C12.871,7.636 12.930,7.636 12.989,7.636 C12.989,7.667 12.989,7.697 12.989,7.727 C13.048,7.727 13.107,7.727 13.166,7.727 C13.166,7.758 13.166,7.788 13.166,7.818 C13.225,7.818 13.284,7.818 13.343,7.818 C13.343,7.848 13.343,7.879 13.343,7.909 C13.461,7.939 13.578,7.970 13.696,8.000 C13.726,8.061 13.755,8.121 13.785,8.182 C13.843,8.182 13.902,8.182 13.961,8.182 C13.961,8.212 13.961,8.242 13.961,8.273 C14.020,8.273 14.079,8.273 14.138,8.273 C14.138,8.303 14.138,8.333 14.138,8.364 C14.285,8.394 14.433,8.424 14.580,8.455 C14.580,8.485 14.580,8.515 14.580,8.545 C14.639,8.545 14.698,8.545 14.757,8.545 C14.757,8.576 14.757,8.606 14.757,8.636 C14.815,8.636 14.874,8.636 14.933,8.636 C14.933,8.667 14.933,8.697 14.933,8.727 C14.992,8.727 15.051,8.727 15.110,8.727 C15.110,8.758 15.110,8.788 15.110,8.818 C15.169,8.818 15.228,8.818 15.287,8.818 C15.287,8.848 15.287,8.879 15.287,8.909 C15.346,8.909 15.405,8.909 15.463,8.909 C15.463,8.939 15.463,8.970 15.463,9.000 C15.640,9.061 15.817,9.121 15.994,9.182 C16.023,9.242 16.053,9.303 16.082,9.364 C16.200,9.394 16.318,9.424 16.435,9.455 C16.435,9.485 16.435,9.515 16.435,9.545 C16.553,9.576 16.671,9.606 16.789,9.636 C16.789,9.667 16.789,9.697 16.789,9.727 C16.877,9.727 16.966,9.727 17.054,9.727 C17.054,9.758 17.054,9.788 17.054,9.818 C17.172,9.848 17.290,9.879 17.407,9.909 C17.407,9.939 17.407,9.970 17.407,10.000 C17.525,10.030 17.643,10.061 17.761,10.091 C17.790,10.152 17.820,10.212 17.849,10.273 C17.967,10.303 18.085,10.333 18.203,10.364 C18.232,10.424 18.262,10.485 18.291,10.545 C18.409,10.576 18.527,10.606 18.645,10.636 C18.645,10.667 18.645,10.697 18.645,10.727 C18.703,10.727 18.762,10.727 18.821,10.727 C18.821,10.758 18.821,10.788 18.821,10.818 C18.880,10.818 18.939,10.818 18.998,10.818 C18.998,10.848 18.998,10.879 18.998,10.909 C19.057,10.909 19.116,10.909 19.175,10.909 C19.175,10.939 19.175,10.970 19.175,11.000 C19.234,11.000 19.292,11.000 19.351,11.000 C19.351,11.030 19.351,11.061 19.351,11.091 C19.469,11.121 19.587,11.152 19.705,11.182 C19.705,11.212 19.705,11.242 19.705,11.273 C19.764,11.273 19.823,11.273 19.882,11.273 C19.882,11.303 19.882,11.333 19.882,11.364 C19.940,11.364 19.999,11.364 20.058,11.364 C20.058,11.394 20.058,11.424 20.058,11.455 C20.117,11.455 20.176,11.455 20.235,11.455 C20.235,11.485 20.235,11.515 20.235,11.545 C20.294,11.545 20.353,11.545 20.412,11.545 C20.412,11.576 20.412,11.606 20.412,11.636 C20.471,11.636 20.530,11.636 20.588,11.636 C20.588,11.667 20.588,11.697 20.588,11.727 C20.647,11.727 20.706,11.727 20.765,11.727 C20.765,11.758 20.765,11.788 20.765,11.818 C20.824,11.818 20.883,11.818 20.942,11.818 C20.942,11.848 20.942,11.879 20.942,11.909 C21.119,11.970 21.295,12.030 21.472,12.091 C21.472,12.121 21.472,12.152 21.472,12.182 C21.560,12.182 21.649,12.182 21.737,12.182 C21.737,12.212 21.737,12.242 21.737,12.273 C21.796,12.273 21.855,12.273 21.914,12.273 C21.914,12.303 21.914,12.333 21.914,12.364 C21.973,12.364 22.032,12.364 22.091,12.364 C22.091,12.394 22.091,12.424 22.091,12.455 C22.150,12.455 22.208,12.455 22.267,12.455 C22.267,12.485 22.267,12.515 22.267,12.545 C22.326,12.545 22.385,12.545 22.444,12.545 C22.444,12.576 22.444,12.606 22.444,12.636 C22.503,12.636 22.562,12.636 22.621,12.636 C22.621,12.667 22.621,12.697 22.621,12.727 C22.680,12.727 22.739,12.727 22.798,12.727 C22.827,12.788 22.856,12.848 22.886,12.909 C22.945,12.909 23.004,12.909 23.063,12.909 C23.063,12.939 23.063,12.970 23.063,13.000 C23.122,13.000 23.180,13.000 23.239,13.000 C23.239,13.030 23.239,13.061 23.239,13.091 C23.387,13.121 23.534,13.152 23.681,13.182 C23.681,13.212 23.681,13.242 23.681,13.273 C23.858,13.333 24.035,13.394 24.211,13.455 C24.211,13.485 24.211,13.515 24.211,13.545 C24.270,13.545 24.329,13.545 24.388,13.545 C24.388,13.576 24.388,13.606 24.388,13.636 C24.447,13.636 24.506,13.636 24.565,13.636 C24.565,13.667 24.565,13.697 24.565,13.727 C24.624,13.727 24.683,13.727 24.742,13.727 C24.742,13.758 24.742,13.788 24.742,13.818 C24.800,13.818 24.859,13.818 24.918,13.818 C24.918,13.848 24.918,13.879 24.918,13.909 C24.977,13.909 25.036,13.909 25.095,13.909 C25.095,13.939 25.095,13.970 25.095,14.000 C25.154,14.000 25.213,14.000 25.272,14.000 C25.272,14.030 25.272,14.061 25.272,14.091 C25.331,14.091 25.390,14.091 25.448,14.091 C25.448,14.121 25.448,14.152 25.448,14.182 C25.507,14.182 25.566,14.182 25.625,14.182 C25.625,14.212 25.625,14.242 25.625,14.273 C25.713,14.273 25.802,14.273 25.890,14.273 C25.890,14.303 25.890,14.333 25.890,14.364 C26.008,14.394 26.126,14.424 26.244,14.455 C26.244,14.485 26.244,14.515 26.244,14.545 C26.391,14.576 26.538,14.606 26.685,14.636 C26.685,14.667 26.685,14.697 26.685,14.727 C26.774,14.727 26.862,14.727 26.951,14.727 C26.951,14.758 26.951,14.788 26.951,14.818 C27.009,14.818 27.068,14.818 27.127,14.818 C27.127,14.848 27.127,14.879 27.127,14.909 C27.186,14.909 27.245,14.909 27.304,14.909 C27.304,14.939 27.304,14.970 27.304,15.000 C27.363,15.000 27.422,15.000 27.481,15.000 C27.481,15.030 27.481,15.061 27.481,15.091 C27.657,15.152 27.834,15.212 28.011,15.273 C28.011,15.303 28.011,15.333 28.011,15.364 C28.099,15.364 28.188,15.364 28.276,15.364 C28.276,15.394 28.276,15.424 28.276,15.455 C28.335,15.455 28.394,15.455 28.453,15.455 C28.453,15.485 28.453,15.515 28.453,15.545 C28.718,15.606 28.983,15.667 29.248,15.727 C29.248,15.758 29.248,15.788 29.248,15.818 C29.366,15.848 29.484,15.879 29.601,15.909 C29.601,15.939 29.601,15.970 29.601,16.000 C29.690,16.000 29.778,16.000 29.867,16.000 C29.867,16.030 29.867,16.061 29.867,16.091 C29.925,16.091 29.984,16.091 30.043,16.091 C30.043,16.121 30.043,16.152 30.043,16.182 C30.132,16.182 30.220,16.182 30.308,16.182 C30.308,16.212 30.308,16.242 30.308,16.273 C30.367,16.273 30.426,16.273 30.485,16.273 C30.485,16.303 30.485,16.333 30.485,16.364 C30.662,16.394 30.839,16.424 31.015,16.455 C31.015,16.485 31.015,16.515 31.015,16.545 C31.192,16.576 31.369,16.606 31.545,16.636 C31.545,16.667 31.545,16.697 31.545,16.727 C31.604,16.727 31.663,16.727 31.722,16.727 C31.722,16.758 31.722,16.788 31.722,16.818 C31.811,16.818 31.899,16.818 31.987,16.818 C31.987,16.848 31.987,16.879 31.987,16.909 C32.046,16.909 32.105,16.909 32.164,16.909 C32.164,16.939 32.164,16.970 32.164,17.000 C32.282,17.030 32.400,17.061 32.517,17.091 C32.517,17.121 32.517,17.152 32.517,17.182 C32.930,17.273 33.342,17.364 33.754,17.455 C34.196,17.667 34.638,17.879 35.080,18.091 C35.198,18.091 35.316,18.091 35.433,18.091 C35.433,18.121 35.433,18.152 35.433,18.182 C35.522,18.182 35.610,18.182 35.698,18.182 C35.698,18.212 35.698,18.242 35.698,18.273 C35.787,18.273 35.875,18.273 35.964,18.273 C35.964,18.303 35.964,18.333 35.964,18.364 C36.081,18.364 36.199,18.364 36.317,18.364 C36.317,18.394 36.317,18.424 36.317,18.455 C36.376,18.455 36.435,18.455 36.494,18.455 C36.494,18.485 36.494,18.515 36.494,18.545 C37.230,18.758 37.967,18.970 38.703,19.182 C38.703,19.212 38.703,19.242 38.703,19.273 C38.850,19.303 38.997,19.333 39.145,19.364 C39.145,19.394 39.145,19.424 39.145,19.455 C39.204,19.455 39.262,19.455 39.321,19.455 C39.321,19.485 39.321,19.515 39.321,19.545 C39.410,19.545 39.498,19.545 39.586,19.545 C39.586,19.576 39.586,19.606 39.586,19.636 C39.645,19.636 39.704,19.636 39.763,19.636 C39.763,19.667 39.763,19.697 39.763,19.727 C40.175,19.818 40.588,19.909 41.000,20.000 C41.000,20.030 41.000,20.061 41.000,20.091 C41.059,20.091 41.118,20.091 41.177,20.091 C41.177,20.121 41.177,20.152 41.177,20.182 C41.354,20.212 41.530,20.242 41.707,20.273 C41.707,20.303 41.707,20.333 41.707,20.364 C41.795,20.364 41.884,20.364 41.972,20.364 C41.972,20.394 41.972,20.424 41.972,20.455 C42.061,20.455 42.149,20.455 42.237,20.455 C42.237,20.485 42.237,20.515 42.237,20.545 C42.326,20.545 42.414,20.545 42.502,20.545 C42.502,20.576 42.502,20.606 42.502,20.636 C42.620,20.636 42.738,20.636 42.856,20.636 C42.856,20.667 42.856,20.697 42.856,20.727 C42.944,20.727 43.033,20.727 43.121,20.727 C43.121,20.758 43.121,20.788 43.121,20.818 C43.209,20.818 43.298,20.818 43.386,20.818 C43.386,20.848 43.386,20.879 43.386,20.909 C43.474,20.909 43.563,20.909 43.651,20.909 C43.651,20.939 43.651,20.970 43.651,21.000 C43.739,21.000 43.828,21.000 43.916,21.000 C43.916,21.030 43.916,21.061 43.916,21.091 C44.093,21.121 44.270,21.152 44.446,21.182 C44.446,21.212 44.446,21.242 44.446,21.273 C45.006,21.394 45.566,21.515 46.125,21.636 C46.125,21.667 46.125,21.697 46.125,21.727 C46.214,21.727 46.302,21.727 46.390,21.727 C46.390,21.758 46.390,21.788 46.390,21.818 C46.449,21.818 46.508,21.818 46.567,21.818 C46.567,21.848 46.567,21.879 46.567,21.909 C47.068,22.000 47.569,22.091 48.069,22.182 C48.069,22.212 48.069,22.242 48.069,22.273 C48.158,22.273 48.246,22.273 48.334,22.273 C48.334,22.303 48.334,22.333 48.334,22.364 C48.423,22.364 48.511,22.364 48.599,22.364 C48.599,22.394 48.599,22.424 48.599,22.455 C48.688,22.455 48.776,22.455 48.864,22.455 C48.864,22.485 48.864,22.515 48.864,22.545 C48.953,22.545 49.041,22.545 49.130,22.545 C49.130,22.576 49.130,22.606 49.130,22.636 C49.512,22.697 49.895,22.758 50.278,22.818 C50.278,22.848 50.278,22.879 50.278,22.909 C50.661,23.000 51.044,23.091 51.427,23.182 C51.427,23.212 51.427,23.242 51.427,23.273 C51.515,23.273 51.604,23.273 51.692,23.273 C51.692,23.303 51.692,23.333 51.692,23.364 C51.780,23.364 51.869,23.364 51.957,23.364 C51.957,23.394 51.957,23.424 51.957,23.455 C52.163,23.485 52.370,23.515 52.576,23.545 C52.576,23.576 52.576,23.606 52.576,23.636 C52.694,23.636 52.811,23.636 52.929,23.636 C52.929,23.667 52.929,23.697 52.929,23.727 C53.047,23.727 53.165,23.727 53.283,23.727 C53.283,23.758 53.283,23.788 53.283,23.818 C53.400,23.818 53.518,23.818 53.636,23.818 C53.636,23.848 53.636,23.879 53.636,23.909 C53.754,23.909 53.872,23.909 53.990,23.909 C53.990,23.939 53.990,23.970 53.990,24.000 C54.461,24.030 54.932,24.061 55.403,24.091 C55.403,24.121 55.403,24.152 55.403,24.182 C55.521,24.182 55.639,24.182 55.757,24.182 C55.757,24.212 55.757,24.242 55.757,24.273 C55.875,24.273 55.992,24.273 56.110,24.273 C56.110,24.303 56.110,24.333 56.110,24.364 C56.228,24.364 56.346,24.364 56.464,24.364 C56.464,24.394 56.464,24.424 56.464,24.455 C56.729,24.485 56.994,24.515 57.259,24.545 C57.259,24.576 57.259,24.606 57.259,24.636 C57.406,24.636 57.553,24.636 57.701,24.636 C57.701,24.667 57.701,24.697 57.701,24.727 C57.995,24.758 58.290,24.788 58.584,24.818 C58.584,24.848 58.584,24.879 58.584,24.909 C59.114,24.939 59.645,24.970 60.175,25.000 C60.175,25.030 60.175,25.061 60.175,25.091 C60.322,25.091 60.469,25.091 60.617,25.091 C60.617,25.121 60.617,25.152 60.617,25.182 C60.735,25.182 60.852,25.182 60.970,25.182 C60.970,25.212 60.970,25.242 60.970,25.273 C61.530,25.303 62.089,25.333 62.649,25.364 C63.113,25.502 63.765,25.587 64.240,25.727 C64.593,25.727 64.947,25.727 65.300,25.727 C66.158,25.980 67.356,25.930 68.216,26.182 C68.746,26.182 69.276,26.182 69.806,26.182 C70.723,26.448 72.163,26.281 73.076,26.545 C73.635,26.515 74.195,26.485 74.755,26.455 C74.755,26.485 74.755,26.515 74.755,26.545 C75.079,26.545 75.403,26.545 75.727,26.545 C75.749,26.550 75.756,26.661 75.903,26.636 C75.903,26.606 75.903,26.576 75.903,26.545 C76.375,26.545 76.846,26.545 77.317,26.545 C78.256,26.814 79.750,26.636 80.852,26.636 C81.518,26.636 82.359,26.664 82.884,26.545 C83.077,26.502 83.148,26.636 83.149,26.636 C83.503,26.636 83.856,26.636 84.210,26.636 C84.210,26.606 84.210,26.576 84.210,26.545 C84.327,26.545 84.445,26.545 84.563,26.545 C84.563,26.515 84.563,26.485 84.563,26.455 C85.034,26.455 85.506,26.455 85.977,26.455 C85.977,26.424 85.977,26.394 85.977,26.364 C86.065,26.364 86.154,26.364 86.242,26.364 C86.242,26.333 86.242,26.303 86.242,26.273 C86.330,26.273 86.419,26.273 86.507,26.273 C86.507,26.242 86.507,26.212 86.507,26.182 C86.684,26.182 86.860,26.182 87.037,26.182 C87.037,26.152 87.037,26.121 87.037,26.091 C87.125,26.091 87.214,26.091 87.302,26.091 C87.302,26.061 87.302,26.030 87.302,26.000 C87.420,26.000 87.538,26.000 87.656,26.000 C87.656,25.970 87.656,25.939 87.656,25.909 C87.803,25.909 87.950,25.909 88.097,25.909 C88.097,25.879 88.097,25.848 88.097,25.818 C88.304,25.818 88.510,25.818 88.716,25.818 C88.716,25.788 88.716,25.758 88.716,25.727 C88.804,25.727 88.893,25.727 88.981,25.727 C88.981,25.697 88.981,25.667 88.981,25.636 C89.040,25.636 89.099,25.636 89.158,25.636 C89.158,25.606 89.158,25.576 89.158,25.545 C89.246,25.545 89.335,25.545 89.423,25.545 C89.423,25.515 89.423,25.485 89.423,25.455 C89.570,25.455 89.717,25.455 89.865,25.455 C89.894,25.394 89.924,25.333 89.953,25.273 C90.012,25.273 90.071,25.273 90.130,25.273 C90.130,25.242 90.130,25.212 90.130,25.182 C90.189,25.182 90.248,25.182 90.307,25.182 C90.307,25.152 90.307,25.121 90.307,25.091 C90.454,25.091 90.601,25.091 90.748,25.091 C90.748,25.061 90.748,25.030 90.748,25.000 C90.807,25.000 90.866,25.000 90.925,25.000 C90.925,24.970 90.925,24.939 90.925,24.909 C91.013,24.909 91.102,24.909 91.190,24.909 C91.220,24.848 91.249,24.788 91.279,24.727 C91.514,24.697 91.750,24.667 91.985,24.636 C91.985,24.606 91.985,24.576 91.985,24.545 C92.103,24.515 92.221,24.485 92.339,24.455 C92.339,24.424 92.339,24.394 92.339,24.364 C92.427,24.364 92.516,24.364 92.604,24.364 C92.604,24.333 92.604,24.303 92.604,24.273 C92.692,24.273 92.781,24.273 92.869,24.273 C92.869,24.242 92.869,24.212 92.869,24.182 C92.957,24.182 93.046,24.182 93.134,24.182 C93.134,24.152 93.134,24.121 93.134,24.091 C93.252,24.091 93.370,24.091 93.488,24.091 C93.488,24.061 93.488,24.030 93.488,24.000 C93.841,23.970 94.195,23.939 94.548,23.909 C94.548,23.879 94.548,23.848 94.548,23.818 C94.771,23.745 95.595,23.700 95.785,23.818 C95.785,23.848 95.785,23.879 95.785,23.909 C96.259,24.001 96.793,24.469 96.845,25.000 C97.161,25.332 96.901,26.148 96.845,26.636 C96.569,26.801 96.664,26.902 96.492,27.091 C96.462,27.091 96.433,27.091 96.404,27.091 C96.374,27.152 96.345,27.212 96.315,27.273 C96.256,27.273 96.197,27.273 96.138,27.273 C96.138,27.303 96.138,27.333 96.138,27.364 C96.080,27.364 96.021,27.364 95.962,27.364 C95.903,27.455 95.844,27.545 95.785,27.636 C95.667,27.667 95.549,27.697 95.432,27.727 C95.432,27.758 95.432,27.788 95.432,27.818 C95.314,27.818 95.196,27.818 95.078,27.818 C95.078,27.848 95.078,27.879 95.078,27.909 C95.019,27.909 94.960,27.909 94.901,27.909 C94.872,27.970 94.842,28.030 94.813,28.091 C94.754,28.091 94.695,28.091 94.636,28.091 C94.636,28.121 94.636,28.152 94.636,28.182 C94.430,28.212 94.224,28.242 94.018,28.273 C93.988,28.333 93.959,28.394 93.929,28.455 C93.870,28.455 93.812,28.455 93.753,28.455 C93.753,28.485 93.753,28.515 93.753,28.545 C93.694,28.545 93.635,28.545 93.576,28.545 C93.576,28.576 93.576,28.606 93.576,28.636 C93.488,28.636 93.399,28.636 93.311,28.636 C93.311,28.667 93.311,28.697 93.311,28.727 C93.193,28.727 93.075,28.727 92.957,28.727 C92.957,28.758 92.957,28.788 92.957,28.818 C92.840,28.848 92.722,28.879 92.604,28.909 C92.604,28.939 92.604,28.970 92.604,29.000 C92.457,29.000 92.309,29.000 92.162,29.000 C92.162,29.030 92.162,29.061 92.162,29.091 C92.074,29.091 91.985,29.091 91.897,29.091 C91.897,29.121 91.897,29.152 91.897,29.182 C91.809,29.182 91.720,29.182 91.632,29.182 C91.632,29.212 91.632,29.242 91.632,29.273 C91.544,29.273 91.455,29.273 91.367,29.273 C91.367,29.303 91.367,29.333 91.367,29.364 C91.279,29.364 91.190,29.364 91.102,29.364 C91.102,29.394 91.102,29.424 91.102,29.455 C91.043,29.455 90.984,29.455 90.925,29.455 C90.925,29.485 90.925,29.515 90.925,29.545 C90.837,29.545 90.748,29.545 90.660,29.545 C90.660,29.576 90.660,29.606 90.660,29.636 C90.572,29.636 90.483,29.636 90.395,29.636 C90.395,29.667 90.395,29.697 90.395,29.727 C90.307,29.727 90.218,29.727 90.130,29.727 C90.130,29.758 90.130,29.788 90.130,29.818 C90.041,29.818 89.953,29.818 89.865,29.818 C89.865,29.848 89.865,29.879 89.865,29.909 C89.659,29.909 89.452,29.909 89.246,29.909 C89.246,29.939 89.246,29.970 89.246,30.000 C89.128,30.030 89.011,30.061 88.893,30.091 C88.893,30.121 88.893,30.152 88.893,30.182 C88.775,30.182 88.657,30.182 88.539,30.182 C88.539,30.212 88.539,30.242 88.539,30.273 C88.304,30.303 88.068,30.333 87.832,30.364 C87.832,30.394 87.832,30.424 87.832,30.455 C87.626,30.455 87.420,30.455 87.214,30.455 C87.214,30.485 87.214,30.515 87.214,30.545 C86.949,30.545 86.684,30.545 86.419,30.545 C86.419,30.576 86.419,30.606 86.419,30.636 C86.301,30.636 86.183,30.636 86.065,30.636 C86.065,30.667 86.065,30.697 86.065,30.727 C85.623,30.727 85.181,30.727 84.740,30.727 C84.740,30.758 84.740,30.788 84.740,30.818 C84.592,30.818 84.445,30.818 84.298,30.818 C84.298,30.848 84.298,30.879 84.298,30.909 C83.797,30.909 83.296,30.909 82.796,30.909 C82.796,30.939 82.796,30.970 82.796,31.000 C82.383,31.000 81.971,31.000 81.559,31.000 C81.559,30.970 81.559,30.939 81.559,30.909 C81.176,30.939 80.793,30.970 80.410,31.000 C80.145,31.000 79.880,31.000 79.615,31.000 C79.615,30.970 79.615,30.939 79.615,30.909 C78.702,30.909 77.788,30.909 76.875,30.909 C76.875,30.879 76.875,30.848 76.875,30.818 C76.316,30.818 75.756,30.818 75.197,30.818 C74.018,30.758 72.840,30.697 71.662,30.636 C71.662,30.606 71.662,30.576 71.662,30.545 C71.014,30.545 70.366,30.545 69.718,30.545 C69.718,30.515 69.718,30.485 69.718,30.455 C69.541,30.455 69.365,30.455 69.188,30.455 C69.188,30.424 69.188,30.394 69.188,30.364 C68.632,30.199 67.701,30.437 67.156,30.273 C66.979,30.273 66.802,30.273 66.625,30.273 C66.625,30.242 66.625,30.212 66.625,30.182 C66.066,30.182 65.506,30.182 64.946,30.182 C64.946,30.152 64.946,30.121 64.946,30.091 C64.770,30.091 64.593,30.091 64.416,30.091 C64.416,30.061 64.416,30.030 64.416,30.000 C64.240,30.000 64.063,30.000 63.886,30.000 C63.886,29.970 63.886,29.939 63.886,29.909 C63.562,29.909 63.238,29.909 62.914,29.909 C62.914,29.879 62.914,29.848 62.914,29.818 C62.737,29.818 62.561,29.818 62.384,29.818 C62.384,29.788 62.384,29.758 62.384,29.727 C62.178,29.727 61.972,29.727 61.765,29.727 C61.765,29.697 61.765,29.667 61.765,29.636 C61.559,29.636 61.353,29.636 61.147,29.636 C61.147,29.606 61.147,29.576 61.147,29.545 C60.970,29.545 60.793,29.545 60.617,29.545 C60.617,29.515 60.617,29.485 60.617,29.455 C60.293,29.424 59.969,29.394 59.645,29.364 C59.645,29.333 59.645,29.303 59.645,29.273 C59.527,29.273 59.409,29.273 59.291,29.273 C59.291,29.242 59.291,29.212 59.291,29.182 C58.938,29.182 58.584,29.182 58.231,29.182 C57.108,28.843 55.706,28.727 54.608,28.364 C54.019,28.273 53.430,28.182 52.841,28.091 C52.841,28.061 52.841,28.030 52.841,28.000 C52.752,28.000 52.664,28.000 52.576,28.000 C52.576,27.970 52.576,27.939 52.576,27.909 C52.458,27.909 52.340,27.909 52.222,27.909 C52.222,27.879 52.222,27.848 52.222,27.818 C52.104,27.818 51.987,27.818 51.869,27.818 C51.869,27.788 51.869,27.758 51.869,27.727 C51.751,27.727 51.633,27.727 51.515,27.727 C51.515,27.697 51.515,27.667 51.515,27.636 C51.339,27.636 51.162,27.636 50.985,27.636 C50.985,27.606 50.985,27.576 50.985,27.545 C50.867,27.545 50.750,27.545 50.632,27.545 C50.632,27.515 50.632,27.485 50.632,27.455 C50.514,27.455 50.396,27.455 50.278,27.455 C50.278,27.424 50.278,27.394 50.278,27.364 C50.219,27.364 50.160,27.364 50.102,27.364 C50.102,27.333 50.102,27.303 50.102,27.273 C50.013,27.273 49.925,27.273 49.836,27.273 C49.836,27.242 49.836,27.212 49.836,27.182 C49.748,27.182 49.660,27.182 49.571,27.182 C49.571,27.152 49.571,27.121 49.571,27.091 C49.483,27.091 49.395,27.091 49.306,27.091 C49.306,27.061 49.306,27.030 49.306,27.000 C48.894,26.939 48.482,26.879 48.069,26.818 C48.069,26.788 48.069,26.758 48.069,26.727 C47.981,26.727 47.892,26.727 47.804,26.727 C47.804,26.697 47.804,26.667 47.804,26.636 C47.716,26.636 47.627,26.636 47.539,26.636 C47.539,26.606 47.539,26.576 47.539,26.545 C47.451,26.545 47.362,26.545 47.274,26.545 C47.274,26.515 47.274,26.485 47.274,26.455 C47.186,26.455 47.097,26.455 47.009,26.455 C47.009,26.424 47.009,26.394 47.009,26.364 C46.921,26.364 46.832,26.364 46.744,26.364 C46.744,26.333 46.744,26.303 46.744,26.273 C46.597,26.273 46.449,26.273 46.302,26.273 C46.302,26.242 46.302,26.212 46.302,26.182 C46.096,26.152 45.890,26.121 45.683,26.091 C45.683,26.061 45.683,26.030 45.683,26.000 C45.595,26.000 45.507,26.000 45.418,26.000 C45.418,25.970 45.418,25.939 45.418,25.909 C45.330,25.909 45.242,25.909 45.153,25.909 C45.153,25.879 45.153,25.848 45.153,25.818 C45.065,25.818 44.977,25.818 44.888,25.818 C44.888,25.788 44.888,25.758 44.888,25.727 C44.800,25.727 44.711,25.727 44.623,25.727 C44.623,25.697 44.623,25.667 44.623,25.636 C44.535,25.636 44.446,25.636 44.358,25.636 C44.358,25.606 44.358,25.576 44.358,25.545 C44.122,25.515 43.887,25.485 43.651,25.455 C43.651,25.424 43.651,25.394 43.651,25.364 C43.563,25.364 43.474,25.364 43.386,25.364 C43.386,25.333 43.386,25.303 43.386,25.273 C43.298,25.273 43.209,25.273 43.121,25.273 C43.121,25.242 43.121,25.212 43.121,25.182 C43.033,25.182 42.944,25.182 42.856,25.182 C42.856,25.152 42.856,25.121 42.856,25.091 C42.767,25.091 42.679,25.091 42.591,25.091 C42.591,25.061 42.591,25.030 42.591,25.000 C42.502,25.000 42.414,25.000 42.326,25.000 C42.326,24.970 42.326,24.939 42.326,24.909 C41.943,24.848 41.560,24.788 41.177,24.727 C41.177,24.697 41.177,24.667 41.177,24.636 C41.000,24.606 40.823,24.576 40.647,24.545 C40.647,24.515 40.647,24.485 40.647,24.455 C40.588,24.455 40.529,24.455 40.470,24.455 C40.470,24.424 40.470,24.394 40.470,24.364 C40.382,24.364 40.293,24.364 40.205,24.364 C40.205,24.333 40.205,24.303 40.205,24.273 C40.146,24.273 40.087,24.273 40.028,24.273 C40.028,24.242 40.028,24.212 40.028,24.182 C39.498,24.061 38.968,23.939 38.438,23.818 C38.438,23.788 38.438,23.758 38.438,23.727 C38.379,23.727 38.320,23.727 38.261,23.727 C38.261,23.697 38.261,23.667 38.261,23.636 C38.114,23.606 37.966,23.576 37.819,23.545 C37.819,23.515 37.819,23.485 37.819,23.455 C37.731,23.455 37.642,23.455 37.554,23.455 C37.554,23.424 37.554,23.394 37.554,23.364 C37.436,23.364 37.318,23.364 37.201,23.364 C37.201,23.333 37.201,23.303 37.201,23.273 C37.112,23.273 37.024,23.273 36.936,23.273 C36.936,23.242 36.936,23.212 36.936,23.182 C36.847,23.182 36.759,23.182 36.670,23.182 C36.670,23.152 36.670,23.121 36.670,23.091 C36.582,23.091 36.494,23.091 36.405,23.091 C36.405,23.061 36.405,23.030 36.405,23.000 C36.317,23.000 36.229,23.000 36.140,23.000 C36.140,22.970 36.140,22.939 36.140,22.909 C36.081,22.909 36.022,22.909 35.964,22.909 C35.964,22.879 35.964,22.848 35.964,22.818 C35.816,22.788 35.669,22.758 35.522,22.727 C35.522,22.697 35.522,22.667 35.522,22.636 C35.433,22.636 35.345,22.636 35.257,22.636 C35.257,22.606 35.257,22.576 35.257,22.545 C35.139,22.545 35.021,22.545 34.903,22.545 C34.903,22.515 34.903,22.485 34.903,22.455 C34.815,22.455 34.726,22.455 34.638,22.455 C34.638,22.424 34.638,22.394 34.638,22.364 C34.550,22.364 34.461,22.364 34.373,22.364 C34.373,22.333 34.373,22.303 34.373,22.273 C34.285,22.273 34.196,22.273 34.108,22.273 C34.108,22.242 34.108,22.212 34.108,22.182 C33.931,22.152 33.754,22.121 33.578,22.091 C33.578,22.061 33.578,22.030 33.578,22.000 C33.519,22.000 33.460,22.000 33.401,22.000 C33.401,21.970 33.401,21.939 33.401,21.909 C33.136,21.848 32.871,21.788 32.606,21.727 C32.606,21.697 32.606,21.667 32.606,21.636 C32.517,21.636 32.429,21.636 32.341,21.636 C32.341,21.606 32.341,21.576 32.341,21.545 C32.282,21.545 32.223,21.545 32.164,21.545 C32.164,21.515 32.164,21.485 32.164,21.455 C32.076,21.455 31.987,21.455 31.899,21.455 C31.899,21.424 31.899,21.394 31.899,21.364 C31.722,21.333 31.545,21.303 31.369,21.273 C31.369,21.242 31.369,21.212 31.369,21.182 C31.310,21.182 31.251,21.182 31.192,21.182 C31.192,21.152 31.192,21.121 31.192,21.091 C31.104,21.091 31.015,21.091 30.927,21.091 C30.927,21.061 30.927,21.030 30.927,21.000 C30.868,21.000 30.809,21.000 30.750,21.000 C30.750,20.970 30.750,20.939 30.750,20.909 C30.662,20.909 30.573,20.909 30.485,20.909 C30.485,20.879 30.485,20.848 30.485,20.818 C30.397,20.818 30.308,20.818 30.220,20.818 C30.220,20.788 30.220,20.758 30.220,20.727 C30.132,20.727 30.043,20.727 29.955,20.727 C29.955,20.697 29.955,20.667 29.955,20.636 C29.867,20.636 29.778,20.636 29.690,20.636 C29.690,20.606 29.690,20.576 29.690,20.545 C29.631,20.545 29.572,20.545 29.513,20.545 C29.513,20.515 29.513,20.485 29.513,20.455 C29.425,20.455 29.336,20.455 29.248,20.455 C29.248,20.424 29.248,20.394 29.248,20.364 C29.130,20.333 29.012,20.303 28.895,20.273 C28.895,20.242 28.895,20.212 28.895,20.182 C28.806,20.182 28.718,20.182 28.629,20.182 C28.629,20.152 28.629,20.121 28.629,20.091 C28.512,20.061 28.394,20.030 28.276,20.000 C28.276,19.970 28.276,19.939 28.276,19.909 C28.011,19.848 27.746,19.788 27.481,19.727 C27.481,19.697 27.481,19.667 27.481,19.636 C27.422,19.636 27.363,19.636 27.304,19.636 C27.304,19.606 27.304,19.576 27.304,19.545 C27.216,19.545 27.127,19.545 27.039,19.545 C27.039,19.515 27.039,19.485 27.039,19.455 C26.921,19.424 26.803,19.394 26.685,19.364 C26.685,19.333 26.685,19.303 26.685,19.273 C26.597,19.273 26.509,19.273 26.420,19.273 C26.420,19.242 26.420,19.212 26.420,19.182 C26.362,19.182 26.303,19.182 26.244,19.182 C26.244,19.152 26.244,19.121 26.244,19.091 C26.155,19.091 26.067,19.091 25.979,19.091 C25.979,19.061 25.979,19.030 25.979,19.000 C25.920,19.000 25.861,19.000 25.802,19.000 C25.802,18.970 25.802,18.939 25.802,18.909 C25.714,18.909 25.625,18.909 25.537,18.909 C25.537,18.879 25.537,18.848 25.537,18.818 C25.478,18.818 25.419,18.818 25.360,18.818 C25.360,18.788 25.360,18.758 25.360,18.727 C25.272,18.727 25.183,18.727 25.095,18.727 C25.095,18.697 25.095,18.667 25.095,18.636 C24.977,18.606 24.859,18.576 24.742,18.545 C24.742,18.515 24.742,18.485 24.742,18.455 C24.653,18.455 24.565,18.455 24.476,18.455 C24.476,18.424 24.476,18.394 24.476,18.364 C24.418,18.364 24.359,18.364 24.300,18.364 C24.300,18.333 24.300,18.303 24.300,18.273 C24.241,18.273 24.182,18.273 24.123,18.273 C24.123,18.242 24.123,18.212 24.123,18.182 C23.946,18.121 23.770,18.061 23.593,18.000 C23.593,17.970 23.593,17.939 23.593,17.909 C23.504,17.909 23.416,17.909 23.328,17.909 C23.328,17.879 23.328,17.848 23.328,17.818 C23.180,17.788 23.033,17.758 22.886,17.727 C22.886,17.697 22.886,17.667 22.886,17.636 C22.827,17.636 22.768,17.636 22.709,17.636 C22.709,17.606 22.709,17.576 22.709,17.545 C22.562,17.515 22.415,17.485 22.267,17.455 C22.238,17.394 22.208,17.333 22.179,17.273 C22.120,17.273 22.061,17.273 22.002,17.273 C22.002,17.242 22.002,17.212 22.002,17.182 C21.943,17.182 21.884,17.182 21.826,17.182 C21.826,17.152 21.826,17.121 21.826,17.091 C21.767,17.091 21.708,17.091 21.649,17.091 C21.649,17.061 21.649,17.030 21.649,17.000 C21.590,17.000 21.531,17.000 21.472,17.000 C21.472,16.970 21.472,16.939 21.472,16.909 C21.413,16.909 21.354,16.909 21.295,16.909 C21.295,16.879 21.295,16.848 21.295,16.818 C21.236,16.818 21.178,16.818 21.119,16.818 C21.089,16.758 21.060,16.697 21.030,16.636 C20.706,16.515 20.382,16.394 20.058,16.273 C20.058,16.242 20.058,16.212 20.058,16.182 C19.999,16.182 19.940,16.182 19.882,16.182 C19.852,16.121 19.823,16.061 19.793,16.000 C19.734,16.000 19.675,16.000 19.616,16.000 C19.616,15.970 19.616,15.939 19.616,15.909 C19.558,15.909 19.499,15.909 19.440,15.909 C19.440,15.879 19.440,15.848 19.440,15.818 C19.381,15.818 19.322,15.818 19.263,15.818 C19.263,15.788 19.263,15.758 19.263,15.727 C19.204,15.727 19.145,15.727 19.086,15.727 C19.086,15.697 19.086,15.667 19.086,15.636 C19.027,15.636 18.968,15.636 18.910,15.636 C18.880,15.576 18.851,15.515 18.821,15.455 C18.674,15.424 18.527,15.394 18.379,15.364 C18.379,15.333 18.379,15.303 18.379,15.273 C18.203,15.212 18.026,15.152 17.849,15.091 C17.849,15.061 17.849,15.030 17.849,15.000 C17.731,14.970 17.614,14.939 17.496,14.909 C17.466,14.848 17.437,14.788 17.407,14.727 C17.349,14.727 17.290,14.727 17.231,14.727 C17.231,14.697 17.231,14.667 17.231,14.636 C17.172,14.636 17.113,14.636 17.054,14.636 C17.054,14.606 17.054,14.576 17.054,14.545 C16.877,14.485 16.701,14.424 16.524,14.364 C16.524,14.333 16.524,14.303 16.524,14.273 C16.259,14.182 15.994,14.091 15.729,14.000 C15.729,13.970 15.729,13.939 15.729,13.909 C15.670,13.909 15.611,13.909 15.552,13.909 C15.552,13.879 15.552,13.848 15.552,13.818 C15.493,13.818 15.434,13.818 15.375,13.818 C15.375,13.788 15.375,13.758 15.375,13.727 C15.316,13.727 15.257,13.727 15.198,13.727 C15.198,13.697 15.198,13.667 15.198,13.636 C15.081,13.606 14.963,13.576 14.845,13.545 C14.815,13.485 14.786,13.424 14.757,13.364 C14.580,13.303 14.403,13.242 14.226,13.182 C14.226,13.152 14.226,13.121 14.226,13.091 C14.167,13.091 14.109,13.091 14.050,13.091 C14.050,13.061 14.050,13.030 14.050,13.000 C13.961,13.000 13.873,13.000 13.785,13.000 C13.785,12.970 13.785,12.939 13.785,12.909 C13.667,12.879 13.549,12.848 13.431,12.818 C13.431,12.788 13.431,12.758 13.431,12.727 C13.372,12.727 13.313,12.727 13.254,12.727 C13.225,12.667 13.195,12.606 13.166,12.545 C13.048,12.515 12.930,12.485 12.813,12.455 C12.783,12.394 12.754,12.333 12.724,12.273 C12.606,12.242 12.489,12.212 12.371,12.182 C12.371,12.152 12.371,12.121 12.371,12.091 C12.312,12.091 12.253,12.091 12.194,12.091 C12.194,12.061 12.194,12.030 12.194,12.000 C12.135,12.000 12.076,12.000 12.017,12.000 C12.017,11.970 12.017,11.939 12.017,11.909 C11.958,11.909 11.899,11.909 11.841,11.909 C11.841,11.879 11.841,11.848 11.841,11.818 C11.782,11.818 11.723,11.818 11.664,11.818 C11.664,11.788 11.664,11.758 11.664,11.727 C11.546,11.697 11.428,11.667 11.310,11.636 C11.310,11.606 11.310,11.576 11.310,11.545 C11.134,11.485 10.957,11.424 10.780,11.364 C10.751,11.303 10.721,11.242 10.692,11.182 C10.633,11.182 10.574,11.182 10.515,11.182 C10.515,11.152 10.515,11.121 10.515,11.091 C10.456,11.091 10.397,11.091 10.338,11.091 C10.338,11.061 10.338,11.030 10.338,11.000 C10.280,11.000 10.221,11.000 10.162,11.000 C10.162,10.970 10.162,10.939 10.162,10.909 C10.103,10.909 10.044,10.909 9.985,10.909 C9.985,10.879 9.985,10.848 9.985,10.818 C9.867,10.788 9.749,10.758 9.632,10.727 C9.602,10.667 9.573,10.606 9.543,10.545 C9.366,10.485 9.190,10.424 9.013,10.364 C8.984,10.303 8.954,10.242 8.925,10.182 C8.866,10.182 8.807,10.182 8.748,10.182 C8.718,10.121 8.689,10.061 8.660,10.000 C8.601,10.000 8.542,10.000 8.483,10.000 C8.424,9.909 8.365,9.818 8.306,9.727 C8.247,9.727 8.188,9.727 8.129,9.727 C8.100,9.667 8.070,9.606 8.041,9.545 C7.982,9.545 7.923,9.545 7.864,9.545 C7.835,9.485 7.805,9.424 7.776,9.364 C7.599,9.303 7.422,9.242 7.246,9.182 C7.216,9.121 7.187,9.061 7.157,9.000 C7.040,8.970 6.922,8.939 6.804,8.909 C6.774,8.848 6.745,8.788 6.716,8.727 C6.598,8.697 6.480,8.667 6.362,8.636 C6.303,8.545 6.244,8.455 6.185,8.364 C6.126,8.364 6.068,8.364 6.009,8.364 C5.950,8.273 5.891,8.182 5.832,8.091 C5.773,8.091 5.714,8.091 5.655,8.091 C5.596,8.000 5.537,7.909 5.478,7.818 C5.420,7.818 5.361,7.818 5.302,7.818 C5.272,7.758 5.243,7.697 5.213,7.636 C5.154,7.636 5.096,7.636 5.037,7.636 C4.978,7.545 4.919,7.455 4.860,7.364 C4.801,7.364 4.742,7.364 4.683,7.364 C4.654,7.303 4.624,7.242 4.595,7.182 C4.536,7.182 4.477,7.182 4.418,7.182 C4.359,7.091 4.300,7.000 4.241,6.909 C4.183,6.909 4.124,6.909 4.065,6.909 C4.035,6.848 4.006,6.788 3.976,6.727 C3.917,6.727 3.858,6.727 3.800,6.727 C3.682,6.576 3.564,6.424 3.446,6.273 C3.387,6.273 3.328,6.273 3.269,6.273 C3.122,6.091 2.975,5.909 2.828,5.727 C2.769,5.727 2.710,5.727 2.651,5.727 C2.563,5.606 2.474,5.485 2.386,5.364 C2.327,5.364 2.268,5.364 2.209,5.364 C2.180,5.303 2.150,5.242 2.121,5.182 C2.062,5.182 2.003,5.182 1.944,5.182 C1.885,5.091 1.826,5.000 1.767,4.909 C1.738,4.909 1.708,4.909 1.679,4.909 C1.679,4.848 1.679,4.788 1.679,4.727 C1.561,4.636 1.443,4.545 1.325,4.455 C1.325,4.394 1.325,4.333 1.325,4.273 C1.119,4.091 0.913,3.909 0.707,3.727 C0.648,3.545 0.589,3.364 0.530,3.182 C0.471,3.152 0.412,3.121 0.353,3.091 C0.353,3.030 0.353,2.970 0.353,2.909 C0.097,2.432 -0.002,2.147 -0.000,1.364 C0.178,1.206 0.073,1.164 0.177,1.000 C0.236,0.970 0.295,0.939 0.353,0.909 C0.353,0.848 0.353,0.788 0.353,0.727 C0.442,0.667 0.530,0.606 0.619,0.545 C0.619,0.515 0.619,0.485 0.619,0.455 C0.677,0.455 0.736,0.455 0.795,0.455 C0.910,0.384 1.241,0.106 1.325,-0.000 Z"/>
</svg>