<svg 
 xmlns="http://www.w3.org/2000/svg"
 xmlns:xlink="http://www.w3.org/1999/xlink"
 width="7px" height="14px">
<path fill-rule="evenodd"  fill="rgb(240, 206, 166)"
 d="M6.731,-0.008 L5.051,-0.013 C3.165,-0.013 1.946,1.342 1.946,3.435 L1.946,5.023 L0.259,5.023 C0.113,5.023 -0.005,5.151 -0.005,5.309 L-0.005,7.611 C-0.005,7.770 0.113,7.897 0.259,7.897 L1.945,7.897 L1.945,13.705 C1.945,13.864 2.064,13.991 2.209,13.991 L4.413,13.991 C4.558,13.991 4.678,13.864 4.678,13.705 L4.678,7.897 L6.650,7.897 C6.796,7.897 6.914,7.770 6.914,7.611 L6.916,5.309 C6.916,5.234 6.887,5.160 6.838,5.107 C6.788,5.053 6.722,5.023 6.651,5.023 L4.678,5.023 L4.678,3.676 C4.678,3.029 4.819,2.700 5.599,2.700 L6.729,2.699 C6.876,2.699 6.995,2.572 6.995,2.416 L6.995,0.279 C6.995,0.118 6.876,-0.008 6.731,-0.008 Z"/>
</svg>