<svg 
 xmlns="http://www.w3.org/2000/svg"
 xmlns:xlink="http://www.w3.org/1999/xlink"
 width="19px" height="14px">
<path fill-rule="evenodd"  fill="rgb(240, 206, 166)"
 d="M17.604,7.357 L17.604,8.692 L16.412,8.692 L16.412,7.357 L15.021,7.357 L15.021,6.213 L16.412,6.213 L16.412,4.878 L17.604,4.878 L17.604,6.213 L18.996,6.213 L18.996,7.357 L17.604,7.357 ZM7.290,13.988 C3.264,13.988 0.000,10.857 0.000,6.994 C0.000,3.130 3.264,-0.001 7.290,-0.001 C9.275,-0.001 11.075,0.762 12.390,1.997 L10.745,3.714 C9.864,2.859 8.641,2.330 7.290,2.330 C4.606,2.330 2.430,4.418 2.430,6.994 C2.430,9.568 4.605,11.656 7.290,11.656 C9.464,11.656 11.307,10.284 11.926,8.392 L7.775,8.392 L7.775,6.216 L14.578,6.216 L14.578,8.392 C13.902,11.585 10.818,13.988 7.290,13.988 Z"/>
</svg>