<svg 
 xmlns="http://www.w3.org/2000/svg"
 xmlns:xlink="http://www.w3.org/1999/xlink"
 width="39px" height="32px">
<path fill-rule="evenodd"  fill="rgb(51, 59, 77)"
 d="M32.530,14.497 C37.224,15.822 39.974,20.751 38.661,25.486 C37.598,29.321 34.100,32.001 30.155,32.001 C29.351,32.001 28.549,31.889 27.769,31.669 C24.675,30.797 22.347,28.205 21.216,24.372 C20.196,20.914 20.221,16.729 21.285,12.890 C23.357,5.420 28.465,-0.002 33.431,-0.002 C33.829,-0.002 34.228,0.032 34.616,0.101 C34.836,0.140 35.028,0.271 35.147,0.460 C35.266,0.651 35.300,0.882 35.240,1.099 L34.217,4.787 C34.119,5.143 33.784,5.384 33.424,5.368 L33.344,5.367 C31.502,5.367 28.136,8.150 26.420,14.338 C26.352,14.585 26.288,14.836 26.227,15.097 C28.153,14.135 30.450,13.913 32.530,14.497 ZM9.687,32.001 C8.883,32.001 8.081,31.889 7.301,31.669 C4.206,30.797 1.879,28.205 0.749,24.372 C-0.272,20.914 -0.246,16.729 0.818,12.891 C2.889,5.420 7.996,-0.003 12.962,-0.003 C13.361,-0.003 13.760,0.032 14.148,0.101 C14.367,0.140 14.560,0.271 14.679,0.460 C14.798,0.651 14.831,0.882 14.771,1.099 L13.749,4.787 C13.651,5.143 13.310,5.384 12.956,5.368 L12.875,5.367 C11.034,5.367 7.668,8.150 5.952,14.338 C5.885,14.583 5.820,14.835 5.758,15.097 C7.684,14.135 9.982,13.913 12.062,14.497 C16.756,15.822 19.506,20.751 18.193,25.486 C17.130,29.321 13.632,32.001 9.687,32.001 Z"/>
</svg>