<svg 
 xmlns="http://www.w3.org/2000/svg"
 xmlns:xlink="http://www.w3.org/1999/xlink"
 width="162px" height="34px">
<path fill-rule="evenodd"  fill="rgb(51, 59, 77)"
 d="M130.892,13.767 C132.037,13.787 133.613,13.917 134.551,13.649 C135.181,13.609 135.810,13.570 136.440,13.531 C136.440,13.491 136.440,13.452 136.440,13.413 C136.597,13.413 136.754,13.413 136.912,13.413 C136.912,13.373 136.912,13.334 136.912,13.295 C137.069,13.295 137.227,13.295 137.384,13.295 C137.384,13.255 137.384,13.216 137.384,13.177 C137.659,13.137 137.935,13.098 138.210,13.059 C138.210,13.019 138.210,12.980 138.210,12.941 C138.289,12.941 138.367,12.941 138.446,12.941 C138.446,12.901 138.446,12.862 138.446,12.823 C138.564,12.823 138.682,12.823 138.800,12.823 C138.800,12.783 138.800,12.744 138.800,12.705 C139.036,12.626 139.272,12.548 139.508,12.469 C139.508,12.430 139.508,12.390 139.508,12.351 C139.587,12.351 139.666,12.351 139.744,12.351 C139.744,12.312 139.744,12.272 139.744,12.233 C139.823,12.233 139.902,12.233 139.981,12.233 C139.981,12.194 139.981,12.154 139.981,12.115 C140.059,12.115 140.138,12.115 140.217,12.115 C140.217,12.076 140.217,12.036 140.217,11.997 C140.295,11.997 140.374,11.997 140.453,11.997 C140.453,11.958 140.453,11.918 140.453,11.879 C140.531,11.879 140.610,11.879 140.689,11.879 C140.689,11.840 140.689,11.800 140.689,11.761 C140.846,11.722 141.003,11.682 141.161,11.643 C141.161,11.604 141.161,11.564 141.161,11.525 C141.239,11.525 141.318,11.525 141.397,11.525 C141.397,11.486 141.397,11.446 141.397,11.407 C141.476,11.407 141.554,11.407 141.633,11.407 C141.633,11.368 141.633,11.328 141.633,11.289 C141.712,11.289 141.790,11.289 141.869,11.289 C141.869,11.250 141.869,11.210 141.869,11.171 C141.948,11.171 142.026,11.171 142.105,11.171 C142.105,11.132 142.105,11.092 142.105,11.053 C142.262,11.014 142.420,10.974 142.577,10.935 C142.577,10.896 142.577,10.856 142.577,10.817 C142.734,10.778 142.892,10.739 143.049,10.699 C143.049,10.660 143.049,10.621 143.049,10.581 C143.167,10.581 143.285,10.581 143.403,10.581 C143.403,10.542 143.403,10.503 143.403,10.463 C143.482,10.463 143.561,10.463 143.639,10.463 C143.639,10.424 143.639,10.385 143.639,10.345 C143.915,10.306 144.190,10.267 144.466,10.227 C144.466,10.188 144.466,10.149 144.466,10.109 C144.584,10.109 144.702,10.109 144.820,10.109 C144.820,10.070 144.820,10.031 144.820,9.991 C144.977,9.991 145.134,9.991 145.292,9.991 C145.292,9.952 145.292,9.913 145.292,9.873 C145.449,9.873 145.607,9.873 145.764,9.873 C145.764,9.834 145.764,9.795 145.764,9.755 C146.669,9.677 147.574,9.598 148.478,9.519 C149.385,9.266 152.058,9.265 152.964,9.519 C153.672,9.559 154.380,9.598 155.088,9.637 C155.088,9.677 155.088,9.716 155.088,9.755 C155.324,9.755 155.560,9.755 155.796,9.755 C155.796,9.795 155.796,9.834 155.796,9.873 C155.954,9.873 156.111,9.873 156.268,9.873 C156.268,9.913 156.268,9.952 156.268,9.991 C156.426,9.991 156.583,9.991 156.740,9.991 C156.740,10.031 156.740,10.070 156.740,10.109 C156.898,10.109 157.055,10.109 157.213,10.109 C157.213,10.149 157.213,10.188 157.213,10.227 C157.331,10.227 157.449,10.227 157.567,10.227 C157.567,10.267 157.567,10.306 157.567,10.345 C157.645,10.345 157.724,10.345 157.803,10.345 C157.803,10.385 157.803,10.424 157.803,10.463 C157.921,10.463 158.039,10.463 158.157,10.463 C158.157,10.503 158.157,10.542 158.157,10.581 C158.314,10.621 158.471,10.660 158.629,10.699 C158.629,10.739 158.629,10.778 158.629,10.817 C158.786,10.856 158.944,10.896 159.101,10.935 C159.101,10.974 159.101,11.014 159.101,11.053 C159.219,11.092 159.337,11.132 159.455,11.171 C159.494,11.250 159.534,11.328 159.573,11.407 C159.652,11.407 159.730,11.407 159.809,11.407 C159.966,11.604 160.124,11.800 160.281,11.997 C160.439,12.115 160.596,12.233 160.753,12.351 C160.753,12.430 160.753,12.508 160.753,12.587 C160.832,12.626 160.911,12.666 160.989,12.705 C161.029,12.823 161.068,12.941 161.107,13.059 C161.147,13.059 161.186,13.059 161.225,13.059 C161.265,13.255 161.304,13.452 161.343,13.649 C161.383,13.649 161.422,13.649 161.462,13.649 C161.462,13.727 161.462,13.806 161.462,13.885 C161.501,13.885 161.540,13.885 161.580,13.885 C161.580,14.003 161.580,14.121 161.580,14.239 C161.619,14.239 161.658,14.239 161.698,14.239 C161.698,14.435 161.698,14.632 161.698,14.828 C161.737,14.828 161.776,14.828 161.816,14.828 C161.816,15.064 161.816,15.300 161.816,15.536 C161.855,15.536 161.894,15.536 161.934,15.536 C162.088,16.081 161.943,18.773 161.816,19.194 C161.776,19.194 161.737,19.194 161.698,19.194 C161.698,19.390 161.698,19.587 161.698,19.784 C161.658,19.784 161.619,19.784 161.580,19.784 C161.580,19.902 161.580,20.020 161.580,20.137 C161.540,20.137 161.501,20.137 161.462,20.137 C161.462,20.216 161.462,20.295 161.462,20.373 C161.422,20.373 161.383,20.373 161.343,20.373 C161.343,20.491 161.343,20.609 161.343,20.727 C161.304,20.727 161.265,20.727 161.225,20.727 C161.225,20.806 161.225,20.885 161.225,20.963 C161.147,21.003 161.068,21.042 160.989,21.081 C160.989,21.160 160.989,21.239 160.989,21.317 C160.596,21.750 160.203,22.183 159.809,22.615 C156.702,24.812 148.830,25.355 144.466,23.795 C144.308,23.795 144.151,23.795 143.993,23.795 C143.993,23.756 143.993,23.716 143.993,23.677 C143.875,23.677 143.757,23.677 143.639,23.677 C143.639,23.638 143.639,23.598 143.639,23.559 C143.561,23.559 143.482,23.559 143.403,23.559 C143.403,23.520 143.403,23.480 143.403,23.441 C143.285,23.441 143.167,23.441 143.049,23.441 C143.049,23.402 143.049,23.362 143.049,23.323 C142.813,23.244 142.577,23.166 142.341,23.087 C142.341,23.048 142.341,23.008 142.341,22.969 C142.262,22.969 142.184,22.969 142.105,22.969 C142.105,22.930 142.105,22.890 142.105,22.851 C142.026,22.851 141.948,22.851 141.869,22.851 C141.869,22.812 141.869,22.772 141.869,22.733 C141.790,22.733 141.712,22.733 141.633,22.733 C141.633,22.694 141.633,22.654 141.633,22.615 C141.554,22.615 141.476,22.615 141.397,22.615 C141.397,22.576 141.397,22.536 141.397,22.497 C141.318,22.497 141.239,22.497 141.161,22.497 C141.161,22.458 141.161,22.418 141.161,22.379 C141.003,22.340 140.846,22.300 140.689,22.261 C140.689,22.222 140.689,22.182 140.689,22.143 C140.610,22.143 140.531,22.143 140.453,22.143 C140.453,22.104 140.453,22.064 140.453,22.025 C140.374,22.025 140.295,22.025 140.217,22.025 C140.217,21.986 140.217,21.947 140.217,21.907 C140.138,21.907 140.059,21.907 139.981,21.907 C139.981,21.868 139.981,21.829 139.981,21.789 C139.902,21.789 139.823,21.789 139.744,21.789 C139.744,21.750 139.744,21.711 139.744,21.671 C139.666,21.671 139.587,21.671 139.508,21.671 C139.508,21.632 139.508,21.593 139.508,21.553 C139.351,21.514 139.194,21.475 139.036,21.435 C139.036,21.396 139.036,21.357 139.036,21.317 C138.958,21.317 138.879,21.317 138.800,21.317 C138.800,21.278 138.800,21.239 138.800,21.199 C138.682,21.199 138.564,21.199 138.446,21.199 C138.446,21.160 138.446,21.121 138.446,21.081 C138.328,21.081 138.210,21.081 138.092,21.081 C138.092,21.042 138.092,21.003 138.092,20.963 C137.974,20.963 137.856,20.963 137.738,20.963 C137.738,20.924 137.738,20.885 137.738,20.845 C137.620,20.845 137.502,20.845 137.384,20.845 C137.384,20.806 137.384,20.767 137.384,20.727 C137.227,20.727 137.069,20.727 136.912,20.727 C135.300,20.181 133.066,20.278 130.892,20.255 C130.892,22.418 130.892,24.582 130.892,26.744 C130.892,28.355 131.000,30.299 130.538,31.463 C130.499,31.463 130.460,31.463 130.420,31.463 C130.420,31.542 130.420,31.621 130.420,31.699 C130.381,31.699 130.342,31.699 130.302,31.699 C130.302,31.817 130.302,31.935 130.302,32.053 C130.263,32.053 130.224,32.053 130.184,32.053 C130.184,32.132 130.184,32.211 130.184,32.289 C130.106,32.329 130.027,32.368 129.948,32.407 C129.909,32.565 129.869,32.722 129.830,32.879 C129.555,33.115 129.279,33.351 129.004,33.587 C129.004,33.626 129.004,33.666 129.004,33.705 C128.925,33.705 128.847,33.705 128.768,33.705 C128.423,34.042 127.554,33.941 126.879,33.941 C125.227,33.941 123.575,33.941 121.922,33.941 C115.274,33.941 108.624,33.941 101.976,33.941 C85.493,33.941 69.005,33.941 52.522,33.941 C48.156,33.941 43.788,33.941 39.421,33.941 C37.889,33.941 35.153,34.210 34.228,33.587 C34.189,33.508 34.149,33.430 34.110,33.351 C33.953,33.233 33.795,33.115 33.638,32.997 C33.638,32.919 33.638,32.840 33.638,32.761 C33.559,32.722 33.480,32.683 33.402,32.643 C33.362,32.486 33.323,32.329 33.284,32.171 C33.244,32.171 33.205,32.171 33.166,32.171 C33.166,32.093 33.166,32.014 33.166,31.935 C33.126,31.935 33.087,31.935 33.048,31.935 C33.048,31.817 33.048,31.699 33.048,31.581 C33.008,31.581 32.969,31.581 32.930,31.581 C32.930,31.503 32.930,31.424 32.930,31.345 C32.890,31.345 32.851,31.345 32.812,31.345 C32.812,31.188 32.812,31.031 32.812,30.874 C32.466,29.850 32.458,28.642 32.458,27.216 C32.458,24.936 32.458,22.654 32.458,20.373 C31.498,20.021 28.668,20.250 27.382,20.255 C27.111,20.483 26.619,20.252 26.202,20.373 C26.202,20.413 26.202,20.452 26.202,20.491 C25.966,20.491 25.730,20.491 25.494,20.491 C25.494,20.531 25.494,20.570 25.494,20.609 C25.179,20.649 24.864,20.688 24.550,20.727 C24.550,20.767 24.550,20.806 24.550,20.845 C24.432,20.845 24.314,20.845 24.196,20.845 C24.196,20.885 24.196,20.924 24.196,20.963 C24.078,20.963 23.960,20.963 23.842,20.963 C23.842,21.003 23.842,21.042 23.842,21.081 C23.724,21.081 23.605,21.081 23.487,21.081 C23.487,21.121 23.487,21.160 23.487,21.199 C23.369,21.199 23.251,21.199 23.133,21.199 C23.133,21.239 23.133,21.278 23.133,21.317 C22.976,21.357 22.819,21.396 22.661,21.435 C22.661,21.475 22.661,21.514 22.661,21.553 C22.504,21.593 22.347,21.632 22.189,21.671 C22.189,21.711 22.189,21.750 22.189,21.789 C22.032,21.829 21.874,21.868 21.717,21.907 C21.717,21.947 21.717,21.986 21.717,22.025 C21.638,22.025 21.560,22.025 21.481,22.025 C21.481,22.064 21.481,22.104 21.481,22.143 C21.402,22.143 21.324,22.143 21.245,22.143 C21.245,22.182 21.245,22.222 21.245,22.261 C21.166,22.261 21.088,22.261 21.009,22.261 C21.009,22.300 21.009,22.340 21.009,22.379 C20.930,22.379 20.852,22.379 20.773,22.379 C20.773,22.418 20.773,22.458 20.773,22.497 C20.694,22.497 20.615,22.497 20.537,22.497 C20.537,22.536 20.537,22.576 20.537,22.615 C20.458,22.615 20.379,22.615 20.301,22.615 C20.301,22.654 20.301,22.694 20.301,22.733 C20.222,22.733 20.143,22.733 20.065,22.733 C20.065,22.772 20.065,22.812 20.065,22.851 C19.986,22.851 19.907,22.851 19.829,22.851 C19.829,22.890 19.829,22.930 19.829,22.969 C19.750,22.969 19.671,22.969 19.593,22.969 C19.593,23.008 19.593,23.048 19.593,23.087 C19.357,23.166 19.120,23.244 18.884,23.323 C18.884,23.362 18.884,23.402 18.884,23.441 C18.766,23.441 18.648,23.441 18.530,23.441 C18.530,23.480 18.530,23.520 18.530,23.559 C18.452,23.559 18.373,23.559 18.294,23.559 C18.294,23.598 18.294,23.638 18.294,23.677 C18.019,23.716 17.743,23.756 17.468,23.795 C17.468,23.834 17.468,23.873 17.468,23.913 C17.350,23.913 17.232,23.913 17.114,23.913 C17.114,23.952 17.114,23.991 17.114,24.031 C16.957,24.031 16.799,24.031 16.642,24.031 C16.642,24.070 16.642,24.109 16.642,24.149 C16.485,24.149 16.327,24.149 16.170,24.149 C16.170,24.188 16.170,24.227 16.170,24.267 C15.658,24.306 15.147,24.345 14.635,24.385 C13.589,24.683 10.141,24.831 8.970,24.503 C8.537,24.503 8.105,24.503 7.672,24.503 C7.672,24.463 7.672,24.424 7.672,24.385 C7.396,24.385 7.121,24.385 6.846,24.385 C6.846,24.345 6.846,24.306 6.846,24.267 C6.610,24.267 6.373,24.267 6.137,24.267 C6.137,24.227 6.137,24.188 6.137,24.149 C5.980,24.149 5.823,24.149 5.665,24.149 C5.665,24.109 5.665,24.070 5.665,24.031 C5.508,24.031 5.351,24.031 5.193,24.031 C5.193,23.991 5.193,23.952 5.193,23.913 C4.918,23.873 4.642,23.834 4.367,23.795 C1.374,22.512 -0.004,21.004 0.000,16.716 C0.079,15.890 0.157,15.064 0.236,14.239 C1.554,10.379 5.803,9.402 10.977,9.401 C12.603,9.401 14.201,9.384 15.462,9.755 C15.698,9.755 15.934,9.755 16.170,9.755 C16.170,9.795 16.170,9.834 16.170,9.873 C16.327,9.873 16.485,9.873 16.642,9.873 C16.642,9.913 16.642,9.952 16.642,9.991 C16.799,9.991 16.957,9.991 17.114,9.991 C17.114,10.031 17.114,10.070 17.114,10.109 C17.232,10.109 17.350,10.109 17.468,10.109 C17.468,10.149 17.468,10.188 17.468,10.227 C17.743,10.267 18.019,10.306 18.294,10.345 C18.294,10.385 18.294,10.424 18.294,10.463 C18.373,10.463 18.452,10.463 18.530,10.463 C18.530,10.503 18.530,10.542 18.530,10.581 C18.648,10.581 18.766,10.581 18.884,10.581 C18.884,10.621 18.884,10.660 18.884,10.699 C19.120,10.778 19.357,10.857 19.593,10.935 C19.593,10.974 19.593,11.014 19.593,11.053 C19.671,11.053 19.750,11.053 19.829,11.053 C19.829,11.092 19.829,11.132 19.829,11.171 C19.907,11.171 19.986,11.171 20.065,11.171 C20.065,11.210 20.065,11.250 20.065,11.289 C20.143,11.289 20.222,11.289 20.301,11.289 C20.301,11.328 20.301,11.368 20.301,11.407 C20.379,11.407 20.458,11.407 20.537,11.407 C20.537,11.446 20.537,11.486 20.537,11.525 C20.615,11.525 20.694,11.525 20.773,11.525 C20.773,11.564 20.773,11.604 20.773,11.643 C20.930,11.682 21.088,11.722 21.245,11.761 C21.245,11.800 21.245,11.840 21.245,11.879 C21.324,11.879 21.402,11.879 21.481,11.879 C21.481,11.918 21.481,11.958 21.481,11.997 C21.560,11.997 21.638,11.997 21.717,11.997 C21.717,12.036 21.717,12.076 21.717,12.115 C21.796,12.115 21.874,12.115 21.953,12.115 C21.953,12.154 21.953,12.194 21.953,12.233 C22.032,12.233 22.110,12.233 22.189,12.233 C22.189,12.272 22.189,12.312 22.189,12.351 C22.347,12.390 22.504,12.430 22.661,12.469 C22.661,12.508 22.661,12.548 22.661,12.587 C22.819,12.626 22.976,12.666 23.133,12.705 C23.133,12.744 23.133,12.783 23.133,12.823 C23.251,12.823 23.369,12.823 23.487,12.823 C23.487,12.862 23.487,12.901 23.487,12.941 C23.605,12.941 23.724,12.941 23.842,12.941 C23.842,12.980 23.842,13.019 23.842,13.059 C23.920,13.059 23.999,13.059 24.078,13.059 C24.078,13.098 24.078,13.137 24.078,13.177 C24.235,13.177 24.392,13.177 24.550,13.177 C24.550,13.216 24.550,13.255 24.550,13.295 C24.707,13.295 24.864,13.295 25.022,13.295 C25.022,13.334 25.022,13.373 25.022,13.413 C25.179,13.413 25.337,13.413 25.494,13.413 C25.494,13.452 25.494,13.491 25.494,13.531 C25.730,13.531 25.966,13.531 26.202,13.531 C27.847,14.013 30.329,13.746 32.340,13.767 C32.602,13.049 32.458,11.738 32.458,10.817 C32.458,8.694 32.458,6.570 32.458,4.446 C32.497,4.446 32.536,4.446 32.576,4.446 C32.576,4.171 32.576,3.896 32.576,3.620 C32.615,3.620 32.654,3.620 32.694,3.620 C32.694,3.463 32.694,3.306 32.694,3.149 C32.733,3.149 32.772,3.149 32.812,3.149 C32.812,2.991 32.812,2.834 32.812,2.677 C32.851,2.677 32.890,2.677 32.930,2.677 C32.930,2.598 32.930,2.519 32.930,2.441 C32.969,2.441 33.008,2.441 33.048,2.441 C33.048,2.323 33.048,2.205 33.048,2.087 C33.087,2.087 33.126,2.087 33.166,2.087 C33.166,2.008 33.166,1.929 33.166,1.851 C33.205,1.851 33.244,1.851 33.284,1.851 C33.323,1.694 33.362,1.536 33.402,1.379 C33.480,1.340 33.559,1.300 33.638,1.261 C33.638,1.182 33.638,1.104 33.638,1.025 C33.795,0.907 33.953,0.789 34.110,0.671 C34.149,0.592 34.189,0.514 34.228,0.435 C34.385,0.396 34.543,0.356 34.700,0.317 C34.700,0.278 34.700,0.238 34.700,0.199 C34.779,0.199 34.857,0.199 34.936,0.199 C34.936,0.160 34.936,0.120 34.936,0.081 C41.624,0.081 48.313,0.081 55.001,0.081 C72.231,0.081 89.467,0.081 106.697,0.081 C112.086,0.081 117.477,0.081 122.867,0.081 C124.538,0.081 128.138,-0.254 129.122,0.435 C129.201,0.553 129.279,0.671 129.358,0.789 C129.515,0.907 129.673,1.025 129.830,1.143 C130.360,1.923 130.602,3.086 130.892,4.092 C130.892,7.317 130.892,10.542 130.892,13.767 Z"/>
</svg>