<svg 
 xmlns="http://www.w3.org/2000/svg"
 xmlns:xlink="http://www.w3.org/1999/xlink"
 width="17px" height="14px">
<path fill-rule="evenodd"  fill="rgb(240, 206, 166)"
 d="M17.003,1.648 C16.377,1.928 15.704,2.120 14.998,2.205 C15.719,1.766 16.272,1.075 16.532,0.249 C15.857,0.654 15.113,0.950 14.316,1.107 C13.680,0.421 12.773,-0.008 11.769,-0.008 C9.842,-0.008 8.279,1.573 8.279,3.526 C8.279,3.803 8.309,4.072 8.370,4.330 C5.469,4.183 2.898,2.776 1.177,0.637 C0.875,1.160 0.704,1.766 0.704,2.415 C0.704,3.642 1.320,4.723 2.256,5.358 C1.684,5.338 1.146,5.179 0.676,4.915 C0.675,4.930 0.675,4.944 0.675,4.960 C0.675,6.673 1.878,8.100 3.475,8.426 C3.182,8.506 2.873,8.550 2.554,8.550 C2.330,8.550 2.112,8.527 1.898,8.486 C2.342,9.890 3.632,10.912 5.159,10.941 C3.964,11.889 2.459,12.454 0.825,12.454 C0.543,12.454 0.265,12.438 -0.008,12.404 C1.536,13.407 3.372,13.992 5.341,13.992 C11.761,13.992 15.272,8.606 15.272,3.937 C15.272,3.783 15.268,3.630 15.261,3.479 C15.944,2.980 16.535,2.356 17.003,1.648 Z"/>
</svg>