<svg 
 xmlns="http://www.w3.org/2000/svg"
 xmlns:xlink="http://www.w3.org/1999/xlink"
 width="21px" height="15px">
<path fill-rule="evenodd"  fill="rgb(240, 206, 166)"
 d="M19.756,2.536 C19.513,1.468 18.643,0.681 17.596,0.564 C15.117,0.286 12.608,0.283 10.111,0.286 C7.615,0.283 5.105,0.286 2.626,0.564 C1.579,0.681 0.711,1.468 0.467,2.536 C0.119,4.055 0.114,5.715 0.114,7.281 C0.114,8.845 0.114,10.504 0.463,12.024 C0.707,13.091 1.577,13.880 2.623,13.997 C5.100,14.274 7.611,14.276 10.108,14.274 C12.606,14.276 15.115,14.274 17.593,13.997 C18.639,13.880 19.507,13.091 19.753,12.024 C20.101,10.504 20.102,8.845 20.102,7.281 C20.102,5.715 20.106,4.055 19.756,2.536 ZM7.529,10.396 C7.529,8.177 7.529,5.978 7.529,3.758 C9.648,4.867 11.752,5.970 13.883,7.087 C11.758,8.194 9.654,9.288 7.529,10.396 Z"/>
</svg>