<?xml version="1.0" standalone="no"?>
<!DOCTYPE svg PUBLIC "-//W3C//DTD SVG 1.1//EN" "http://www.w3.org/Graphics/SVG/1.1/DTD/svg11.dtd" >
<svg xmlns="http://www.w3.org/2000/svg" xmlns:xlink="http://www.w3.org/1999/xlink" version="1.1">
<metadata>
Created by FontForge 20160405 at Wed Jan  2 05:04:14 2019
 By www-data
Copyright (c) 2015 by Paula Nazal, Marcelo Quiroz and Daniel Hernandez. All rights reserved.
</metadata>
<defs>
<font id="Revista-Black" horiz-adv-x="600" >
  <font-face 
    font-family="Revista-Black"
    font-weight="400"
    font-stretch="normal"
    units-per-em="1000"
    panose-1="0 0 10 0 0 0 0 0 0 0"
    ascent="758"
    descent="-242"
    x-height="551"
    cap-height="648"
    bbox="-188 -330 1351 882"
    underline-thickness="50"
    underline-position="-150"
    unicode-range="U+000D-FB02"
  />
<missing-glyph horiz-adv-x="630" 
d="M100 710h430v-710h-430v710zM165 675l150 -278l150 278h-300zM293 355l-153 284v-568zM338 355l152 -284v568zM315 313l-150 -278h300z" />
    <glyph glyph-name="fi" unicode="fi" horiz-adv-x="868" 
d="M505 551l6 -171h-9l-2 12q-11 65 -52 104.5t-104 39.5h-116v-272h69q43 0 64 24.5t30 69.5l1 5h9v-213h-9l-1 6q-14 93 -94 93h-69v-234l57 -7v-8h-249v8l57 7v521l-57 7v8h469zM832 543l-57 -7v-521l57 -7v-8h-264v8l57 7v521l-57 7v8h264v-8z" />
    <glyph glyph-name="fl" unicode="fl" horiz-adv-x="1066" 
d="M505 551l6 -171h-9l-2 12q-11 65 -52 104.5t-104 39.5h-116v-272h69q43 0 64 24.5t30 69.5l1 5h9v-213h-9l-1 6q-14 93 -94 93h-69v-234l57 -7v-8h-249v8l57 7v521l-57 7v8h469zM1040 161h9l-6 -161h-475v8l57 7v521l-57 7v8h264v-8l-57 -7v-521h106q66 0 107.5 37
t50.5 102z" />
    <glyph glyph-name=".notdef" horiz-adv-x="630" 
d="M100 710h430v-710h-430v710zM165 675l150 -278l150 278h-300zM293 355l-153 284v-568zM338 355l152 -284v568zM315 313l-150 -278h300z" />
    <glyph glyph-name=".null" horiz-adv-x="0" 
 />
    <glyph glyph-name="nonmarkingreturn" horiz-adv-x="333" 
 />
    <glyph glyph-name="CR" unicode="&#xd;" horiz-adv-x="120" 
 />
    <glyph glyph-name="space" unicode=" " horiz-adv-x="236" 
 />
    <glyph glyph-name="exclam" unicode="!" horiz-adv-x="216" 
d="M102 144q0 93 -29 239.5t-29 204.5q0 30 16.5 49t47.5 19t47.5 -19t16.5 -49q0 -58 -29 -204.5t-29 -239.5h-12zM47 50q0 28 17 43t44 15t44 -15t17 -43t-17 -43t-44 -15t-44 15t-17 43z" />
    <glyph glyph-name="quotedbl" unicode="&#x22;" horiz-adv-x="268" 
d="M81 533h-12l-36 164q0 20 11 33t31 13t31 -13t11 -33zM199 533h-12l-36 164q0 20 11 33t31 13t31 -13t11 -33z" />
    <glyph glyph-name="numbersign" unicode="#" horiz-adv-x="531" 
d="M487 352h-106v-166h106v-15h-106v-122h-17v122h-195v-122h-17v122h-108v15h108v166h-108v15h108v133h17v-133h195v133h17v-133h106v-15zM364 186v166h-195v-166h195z" />
    <glyph glyph-name="dollar" unicode="$" horiz-adv-x="522" 
d="M488 185q0 -82 -57 -134t-151 -58v-65h-17v64h-6q-49 0 -101 10.5t-80 21.5l-28 11l-8 153h9l7 -25q8 -21 15 -37t23.5 -40t36.5 -40t53 -27.5t73 -11.5h6v238q-17 11 -48.5 29.5t-51 30.5t-44.5 32t-39.5 38t-25 43.5t-10.5 53.5q0 50 19.5 86.5t52.5 56.5t69.5 30
t77.5 11v66h17v-66q46 0 89 -10t63 -20l19 -10l5 -156h-11l-4 21q-5 22 -8.5 33.5t-16 39t-28 43.5t-44 29.5t-64.5 14.5v-224q8 -5 39.5 -24t43 -27t37 -26.5t36.5 -32.5t26 -34t20.5 -41.5t5.5 -46.5zM168 554q0 -37 24.5 -66.5t70.5 -59.5v213q-95 -6 -95 -87zM280 8
q84 10 84 99q0 69 -84 127v-226z" />
    <glyph glyph-name="percent" unicode="%" horiz-adv-x="810" 
d="M198 298q-78 0 -123.5 52t-45.5 127t45.5 127t123.5 52t123.5 -52t45.5 -127t-45.5 -127t-123.5 -52zM556 656h19l-316 -656h-19zM198 313q58 0 58 164t-58 164t-58 -164t58 -164zM612 -8q-78 0 -123.5 52t-45.5 127t45.5 127t123.5 52t123.5 -52t45.5 -127t-45.5 -127
t-123.5 -52zM612 7q58 0 58 164t-58 164t-58 -164t58 -164z" />
    <glyph glyph-name="ampersand" unicode="&#x26;" horiz-adv-x="704" 
d="M642 352q0 -55 -32.5 -121.5t-72.5 -103.5l84 -114l41 -5v-8h-195l-29 41q-73 -49 -183 -49q-103 0 -165.5 49t-62.5 129q0 48 16.5 85.5t46.5 61.5t54.5 36.5t58.5 24.5q-47 74 -47 142q0 59 39 97.5t115 38.5q84 0 122 -30t38 -80q0 -48 -44 -84.5t-93 -53.5
q11 -17 13 -19l183 -251q20 27 29 39.5t18.5 40t9.5 57.5q0 35 -23.5 59t-71.5 24v8h201v-8zM325 641q-48 0 -48 -84q0 -65 51 -141q20 18 37.5 53t17.5 76q0 43 -16 69.5t-42 26.5zM334 40q63 0 95 14l-191 272l-29 42q-18 -18 -29 -58t-11 -76q0 -99 48 -146.5t117 -47.5z
" />
    <glyph glyph-name="quotesingle" unicode="'" horiz-adv-x="150" 
d="M81 533h-12l-36 164q0 20 11 33t31 13t31 -13t11 -33z" />
    <glyph glyph-name="parenleft" unicode="(" horiz-adv-x="388" 
d="M396 -177q-153 0 -259 130t-106 327q0 196 103 326.5t262 130.5v-15q-38 0 -73.5 -24.5t-67 -74.5t-50.5 -138.5t-19 -204.5t19 -204.5t50.5 -138.5t67 -74.5t73.5 -24.5v-15z" />
    <glyph glyph-name="parenright" unicode=")" horiz-adv-x="388" 
d="M-8 -177v15q38 0 73.5 24.5t67 74.5t50.5 138.5t19 204.5t-19 204.5t-50.5 138.5t-67 74.5t-73.5 24.5v15q159 0 262 -130.5t103 -326.5q0 -197 -106 -327t-259 -130z" />
    <glyph glyph-name="asterisk" unicode="*" horiz-adv-x="452" 
d="M380 510q29 -17 29 -43q0 -19 -13 -33t-31 -14q-14 0 -32 10q-13 8 -45 46.5t-54 54.5q3 -27 21 -74t18 -62q0 -23 -12 -38.5t-35 -15.5t-35 15.5t-12 38.5q0 15 18 62t21 74q-22 -16 -54 -54.5t-45 -46.5q-18 -10 -32 -10q-19 0 -31.5 15t-12.5 32q0 26 29 43
q13 8 63 15.5t75 19.5q-25 12 -75 19.5t-63 15.5q-29 17 -29 43q0 19 13 33t31 14q14 0 32 -10q13 -8 45 -46.5t54 -54.5q-3 27 -21 74t-18 62q0 23 12 38.5t35 15.5t35 -15.5t12 -38.5q0 -15 -18 -62t-21 -74q22 16 54 54.5t45 46.5q18 10 32 10q19 0 31.5 -15t12.5 -32
q0 -26 -29 -43q-13 -8 -63 -15.5t-75 -19.5q25 -12 75 -19.5t63 -15.5z" />
    <glyph glyph-name="plus" unicode="+" horiz-adv-x="439" 
d="M403 267v-15h-175v-171h-17v171h-175v15h175v167h17v-167h175z" />
    <glyph glyph-name="comma" unicode="," horiz-adv-x="258" 
d="M117 137q44 0 73.5 -29t29.5 -95q0 -41 -11 -72t-25.5 -46.5t-34.5 -24.5t-32.5 -11t-24.5 -2v13q44 0 78.5 35t34.5 108q0 29 -8 51l-4 -1q0 -33 -21.5 -52t-54.5 -19t-54.5 19t-21.5 53t21.5 53.5t54.5 19.5z" />
    <glyph glyph-name="hyphen" unicode="-" horiz-adv-x="410" 
d="M50 267h310v-15h-310v15z" />
    <glyph glyph-name="period" unicode="." horiz-adv-x="234" 
d="M41 64q0 34 21.5 53.5t54.5 19.5t54.5 -19.5t21.5 -53.5t-21.5 -53t-54.5 -19t-54.5 19t-21.5 53z" />
    <glyph glyph-name="slash" unicode="/" horiz-adv-x="401" 
d="M357 702h19l-332 -702h-19z" />
    <glyph glyph-name="zero" unicode="0" horiz-adv-x="618" 
d="M309 -8q-126 0 -198 95.5t-72 236.5t72 236.5t198 95.5t198 -95.5t72 -236.5t-72 -236.5t-198 -95.5zM309 7q105 0 105 317t-105 317t-105 -317t105 -317z" />
    <glyph glyph-name="one" unicode="1" horiz-adv-x="429" 
d="M305 18l120 -10v-8h-390v8l120 10v571l-126 -39v14l269 84h7v-630z" />
    <glyph glyph-name="two" unicode="2" horiz-adv-x="532" 
d="M477 193h9l-13 -193h-445v61q12 7 31.5 20t69 56.5t88 90.5t69.5 120.5t31 148.5q0 65 -27 104.5t-83 39.5q-54 0 -96 -28l1 -10h5q32 0 52 -22t20 -50t-20 -50.5t-52 -22.5q-33 0 -52.5 21.5t-19.5 51.5q0 48 50 86.5t142 38.5q123 0 184 -48.5t61 -129.5
q0 -55 -35 -112t-85 -100t-100 -78t-85 -54l-35 -18h267q61 0 67 66z" />
    <glyph glyph-name="three" unicode="3" horiz-adv-x="532" 
d="M284 334q90 0 149.5 -50t59.5 -119q0 -77 -64.5 -125t-196.5 -48q-93 0 -143 40.5t-50 88.5q0 30 19.5 51.5t52.5 21.5q32 0 52 -22.5t20 -50.5t-20 -50t-52 -22h-4l-2 -12q45 -30 97 -30q53 0 89.5 36t36.5 122q0 77 -38 120t-84 43h-13v15h13q39 0 70.5 36.5
t31.5 103.5q0 86 -31 122t-75 36q-54 0 -97 -30l2 -12h4q32 0 52 -22t20 -50t-20 -50.5t-52 -22.5q-33 0 -52.5 21.5t-19.5 51.5q0 50 50 89.5t143 39.5q122 0 181.5 -48t59.5 -125q0 -61 -53.5 -103.5t-135.5 -42.5v-3z" />
    <glyph glyph-name="four" unicode="4" horiz-adv-x="550" 
d="M529 133h-99v-115l90 -10v-8h-340v8l100 10v115h-272v15l415 500h7v-500h99v-15zM29 148h251v300z" />
    <glyph glyph-name="five" unicode="5" horiz-adv-x="524" 
d="M215 399q131 0 206 -52t75 -155q0 -200 -281 -200q-82 0 -132.5 37t-50.5 92q0 30 19.5 51.5t52.5 21.5q32 0 52 -22.5t20 -50.5t-20 -50t-52 -22h-4l-2 -13q40 -29 87 -29q62 0 104 41.5t42 143.5q0 104 -42.5 147.5t-103.5 43.5q-31 0 -60 -6.5t-42 -12.5l-13 -7v291
h360l15 77h9l-13 -193l-354 -1v-151q52 19 128 19z" />
    <glyph glyph-name="six" unicode="6" horiz-adv-x="580" 
d="M305 399q130 0 191 -54t61 -141q0 -91 -69 -151.5t-191 -60.5t-191 74.5t-69 187.5q0 76 26 140t68 106t92 74t103.5 49t95 25t73.5 8v-15q-67 0 -154 -69.5t-122 -190.5q32 18 86 18zM297 7q95 0 95 187q0 102 -27.5 145.5t-78.5 43.5q-41 0 -71 -19q-13 -54 -13 -110
q0 -247 95 -247z" />
    <glyph glyph-name="seven" unicode="7" horiz-adv-x="523" 
d="M520 648v-61l-1 -1q-82 -59 -144 -173q-96 -176 -96 -413h-150q0 78 25 157t58 136t77 111.5t70.5 80.5t50.5 46h-363l-14 -77h-10l13 193z" />
    <glyph glyph-name="eight" unicode="8" horiz-adv-x="634" 
d="M389 334q90 0 149.5 -48.5t59.5 -115.5q0 -79 -69 -128.5t-212 -49.5t-212 49.5t-69 128.5q0 67 59.5 115.5t149.5 48.5v3q-75 0 -124.5 42.5t-49.5 103.5q0 77 60.5 125t185.5 48t185.5 -48t60.5 -125q0 -61 -49.5 -103.5t-124.5 -42.5v-3zM231 483q0 -68 25 -104
t57 -36h8q32 0 57 36t25 104q0 87 -25 122.5t-61 35.5q-86 -4 -86 -158zM317 7q51 0 86 37t35 126q0 75 -36.5 116.5t-80.5 41.5h-8q-44 0 -80.5 -41.5t-36.5 -116.5q0 -89 35 -126t86 -37z" />
    <glyph glyph-name="nine" unicode="9" horiz-adv-x="580" 
d="M283 656q122 0 191 -74.5t69 -187.5q0 -76 -26 -140t-68 -106t-92 -74t-103.5 -49t-95 -25t-73.5 -8v15q66 0 151.5 67.5t122.5 184.5q-40 -10 -84 -10q-130 0 -191 54t-61 141q0 91 69 151.5t191 60.5zM294 265q38 0 69 11q15 52 15 118q0 247 -95 247t-95 -187
q0 -102 27.5 -145.5t78.5 -43.5z" />
    <glyph glyph-name="colon" unicode=":" horiz-adv-x="266" 
d="M57 322q0 34 21.5 53.5t54.5 19.5t54.5 -19.5t21.5 -53.5t-21.5 -53t-54.5 -19t-54.5 19t-21.5 53zM57 64q0 34 21.5 53.5t54.5 19.5t54.5 -19.5t21.5 -53.5t-21.5 -53t-54.5 -19t-54.5 19t-21.5 53z" />
    <glyph glyph-name="semicolon" unicode=";" horiz-adv-x="284" 
d="M139 250q-33 0 -54.5 19t-21.5 53t21.5 53.5t54.5 19.5t54.5 -19.5t21.5 -53.5t-21.5 -53t-54.5 -19zM130 137q44 0 73.5 -29t29.5 -95q0 -41 -11 -72t-25.5 -46.5t-34.5 -24.5t-32.5 -11t-24.5 -2v13q43 0 78 35t35 108q0 29 -8 51l-4 -1q0 -33 -21.5 -52t-54.5 -19
t-54.5 19t-21.5 53t21.5 53.5t54.5 19.5z" />
    <glyph glyph-name="less" unicode="&#x3c;" horiz-adv-x="361" 
d="M31 221l266 187l9 -12l-254 -179l254 -178l-9 -12l-266 187v7z" />
    <glyph glyph-name="equal" unicode="=" horiz-adv-x="483" 
d="M58 324h367v-15h-367v15zM58 156h367v-15h-367v15z" />
    <glyph glyph-name="greater" unicode="&#x3e;" horiz-adv-x="361" 
d="M330 214l-266 -187l-9 12l254 178l-254 179l9 12l266 -187v-7z" />
    <glyph glyph-name="question" unicode="?" horiz-adv-x="435" 
d="M201 656q102 0 153.5 -42t51.5 -111q0 -45 -22 -81t-53 -60l-62 -48t-53 -56.5t-22 -73.5v-40h-18l-1 64q0 57 12.5 100.5t29.5 69.5t34.5 48t30 49t12.5 60q0 46 -29.5 76t-73.5 30q-60 0 -99 -23l2 -15h2q34 0 55.5 -22t21.5 -50t-20 -50.5t-52 -22.5q-33 0 -52.5 21.5
t-19.5 51.5v1q0 60 46.5 92t125.5 32zM193 108q27 0 44 -15t17 -43t-17 -43t-44 -15t-44 15t-17 43t17 43t44 15z" />
    <glyph glyph-name="at" unicode="@" horiz-adv-x="627" 
d="M354 560q126 0 189.5 -82t51.5 -200q-8 -74 -45.5 -125t-109.5 -51q-43 0 -62 23.5t-12 67.5l1 5h-7q-1 -6 -2.5 -13.5t-9.5 -23.5t-20 -28t-36.5 -21.5t-55.5 -9.5q-56 0 -85 40.5t-29 108.5q0 87 49 146t120 59q52 0 72 -20t17 -46h3l17 60h102q0 -1 -2 -21t-5 -47
t-5 -50l-18 -167q-3 -35 22 -35q30 0 53.5 46t29.5 102q13 120 -51 193.5t-173 73.5q-124 0 -210.5 -82.5t-86.5 -213.5q0 -108 66.5 -173t174.5 -65q49 0 89.5 8t56.5 17l16 8l5 -12q-6 -4 -18 -10t-55.5 -16t-95.5 -10q-122 0 -189.5 73t-67.5 181q0 127 86.5 218.5
t229.5 91.5zM298 146q42 0 49 56l13 117l7 62q3 51 -39 51q-38 0 -57 -45t-19 -154q0 -87 46 -87z" />
    <glyph glyph-name="A" unicode="A" horiz-adv-x="637" 
d="M598 15l65 -7v-8h-279v8l59 7l-68 190h-254l-25 -71q-9 -27 -9 -52q0 -35 25.5 -54.5t68.5 -19.5v-8h-208v8l62 7l227 633h112zM127 220h242l-119 333h-4z" />
    <glyph glyph-name="B" unicode="B" horiz-adv-x="626" 
d="M365 325q103 0 166 -43.5t63 -114.5q0 -79 -74.5 -123t-200.5 -44h-281v8l60 7v618l-60 7v8h271q126 0 190.5 -44t64.5 -121q0 -70 -55 -113t-144 -43v-2zM309 633h-61v-300h83q68 0 68 150t-90 150zM319 15q53 0 81.5 34t28.5 118t-25.5 117.5t-72.5 33.5h-83v-303h71z
" />
    <glyph glyph-name="C" unicode="C" horiz-adv-x="620" 
d="M574 188h9l-7 -149q-8 -5 -22.5 -13t-64 -21t-103.5 -13q-173 0 -261.5 94t-88.5 238t88.5 238t261.5 94q53 0 102 -12t72 -24l23 -11v-154h-9l-8 26q-4 13 -10.5 29t-22 40.5t-34.5 43.5t-49 33t-64 14q-89 0 -137 -71t-48 -246t48 -246t137 -71q34 0 64.5 14.5t49 33
t34.5 44.5t22 40t12 29z" />
    <glyph glyph-name="D" unicode="D" horiz-adv-x="696" 
d="M324 648q172 0 253.5 -88.5t81.5 -235.5t-89 -235.5t-281 -88.5h-251v8l60 7v618l-60 7v8h286zM289 15q100 0 152.5 67.5t52.5 241.5q0 90 -12 152t-36 95.5t-53 47.5t-69 14h-76v-618h41z" />
    <glyph glyph-name="E" unicode="E" horiz-adv-x="601" 
d="M557 189h9l-6 -189h-522v8l60 7v618l-60 7v8h498l6 -189h-9l-2 16q-9 71 -52.5 114.5t-109.5 43.5h-121v-305h68q45 0 74 31.5t33 78.5l1 11h9v-255h-9l-1 11q-4 47 -33 77.5t-74 30.5h-68v-298h145q66 0 109.5 43.5t52.5 114.5z" />
    <glyph glyph-name="F" unicode="F" horiz-adv-x="558" 
d="M531 648l6 -189h-9l-2 16q-9 71 -52.5 114.5t-109.5 43.5h-116v-313h66q45 0 69 28t28 75l1 11h9v-243h-9l-1 11q-4 47 -28 75t-69 28h-66v-290l60 -7v-8h-270v8l60 7v618l-60 7v8h493z" />
    <glyph glyph-name="G" unicode="G" horiz-adv-x="652" 
d="M640 245v-8l-57 -7v-181v-84h-9l-11 67q-71 -40 -177 -40q-173 0 -261.5 94t-88.5 238t88.5 238t261.5 94q53 0 102 -12t72 -24l23 -11v-155h-9q-17 87 -68.5 137t-119.5 50q-89 0 -137 -71t-48 -246t48 -246t137 -71q22 0 47 7v216l-58 6v9h265z" />
    <glyph glyph-name="H" unicode="H" horiz-adv-x="747" 
d="M709 640l-60 -7v-617l60 -8v-8h-270v8l60 8v302h-251v-302l60 -8v-8h-270v8l60 8v617l-60 7v8h270v-8l-60 -7v-300h251v300l-60 7v8h270v-8z" />
    <glyph glyph-name="I" unicode="I" horiz-adv-x="346" 
d="M308 640l-60 -7v-618l60 -7v-8h-270v8l60 7v618l-60 7v8h270v-8z" />
    <glyph glyph-name="J" unicode="J" horiz-adv-x="412" 
d="M387 648v-8l-60 -7v-443q0 -88 -45 -143t-148 -55q-54 0 -90.5 29t-36.5 69q0 25 17 42.5t42 17.5t42 -17.5t17 -42.5t-17 -42t-42 -17h-3v-5q27 -20 65 -20q49 0 49 52v575l-60 7v8h270z" />
    <glyph glyph-name="K" unicode="K" horiz-adv-x="662" 
d="M651 13l45 -5v-8h-209l-187 306h-52v-291l60 -7v-8h-270v8l60 7v618l-60 7v8h270v-8l-60 -7v-312h47l184 207q23 26 23 52q0 60 -98 60v8h252v-8l-60 -7l-195 -216z" />
    <glyph glyph-name="L" unicode="L" horiz-adv-x="548" 
d="M523 179h9l-6 -179h-488v8l60 7v618l-60 7v8h270v-8l-60 -7v-618h111q67 0 112 42.5t51 110.5z" />
    <glyph glyph-name="M" unicode="M" horiz-adv-x="839" 
d="M801 640l-60 -7v-618l60 -7v-8h-270v8l60 7v579h-2l-221 -599h-19l-232 597h-2v-508q0 -28 20 -50.5t50 -22.5v-11h-157v11q30 0 50 22.5t20 50.5v549l-60 7v8h225l163 -423h8l157 423h210v-8z" />
    <glyph glyph-name="N" unicode="N" horiz-adv-x="662" 
d="M477 648h157v-8q-28 0 -49 -20t-21 -51v-577h-37l-409 559h-2v-472q0 -31 21 -51t49 -20v-8h-157v8q27 0 48 20t22 51v501l-34 57l-26 3v8h188l318 -419h2v340q0 31 -21 51t-49 20v8z" />
    <glyph glyph-name="O" unicode="O" horiz-adv-x="724" 
d="M362 656q150 0 238.5 -96t88.5 -236t-88 -236t-239 -96t-239 96t-88 236t88.5 236t238.5 96zM362 7q162 0 162 317t-162 317t-162 -317t162 -317z" />
    <glyph glyph-name="P" unicode="P" horiz-adv-x="595" 
d="M324 648q132 0 193.5 -51t61.5 -133q0 -83 -61.5 -133.5t-193.5 -50.5h-76v-265l60 -7v-8h-270v8l60 7v618l-60 7v8h286zM324 295q43 0 66.5 37t23.5 132t-23.5 132t-66.5 37h-76v-338h76z" />
    <glyph glyph-name="Q" unicode="Q" horiz-adv-x="725" 
d="M690 324q0 -125 -70 -216t-194 -111v-31q0 -53 37 -99.5t87 -50.5l25 -2v-9h-25q-122 0 -188 52t-66 129v12q-122 21 -191.5 112t-69.5 214q0 140 88.5 236t241.5 96q150 0 237.5 -96t87.5 -236zM200 324q0 -174 43.5 -245.5t121.5 -71.5q75 0 117.5 71.5t42.5 245.5
t-42.5 245.5t-117.5 71.5q-78 0 -121.5 -71.5t-43.5 -245.5z" />
    <glyph glyph-name="R" unicode="R" horiz-adv-x="665" 
d="M653 117h9v-19q0 -49 -32 -77.5t-95 -28.5q-56 0 -89.5 32.5t-33.5 85.5v96q0 42 -22.5 68t-64.5 26h-77v-285l60 -6v-9h-270v8l60 7v618l-60 7v8h288q127 0 186.5 -48t59.5 -126q0 -73 -50.5 -119t-152.5 -46v-3q96 0 144 -39.5t48 -109.5v-59q0 -62 39 -62q44 0 51 62z
M248 315h78q38 0 59.5 35t21.5 124t-21.5 124t-59.5 35h-78v-318z" />
    <glyph glyph-name="S" unicode="S" horiz-adv-x="529" 
d="M278 656q48 0 92 -10t64 -20l21 -10l4 -151h-9l-4 21q-5 22 -14 43t-27 49t-50.5 45.5t-74.5 17.5q-108 0 -108 -87q0 -41 33 -76t80 -63t94 -57.5t80 -74t33 -98.5q0 -87 -65.5 -140t-168.5 -53q-49 0 -100.5 10.5t-78.5 21.5l-27 11l-8 153h9l7 -25q56 -156 201 -156
q107 0 107 100q0 46 -33 83t-80 64t-94 55t-80 69.5t-33 93.5q0 51 21 89t56 57.5t73 28.5t80 9z" />
    <glyph glyph-name="T" unicode="T" horiz-adv-x="622" 
d="M599 648l6 -189h-9l-2 16q-9 71 -52.5 114.5t-109.5 43.5h-46v-618l60 -7v-8h-270v8l60 7v618h-46q-66 0 -109.5 -43.5t-52.5 -114.5l-2 -16h-9l6 189h576z" />
    <glyph glyph-name="U" unicode="U" horiz-adv-x="651" 
d="M639 648v-8q-28 0 -49 -20t-21 -51v-341q0 -119 -62 -177.5t-147 -58.5q-279 0 -279 248v393l-59 7v8h269v-8l-60 -7v-465q0 -75 32 -118t97 -43q34 0 65.5 11t61 35t47.5 69t18 106v341q0 31 -21 51t-49 20v8h157z" />
    <glyph glyph-name="V" unicode="V" horiz-adv-x="633" 
d="M660 648v-8l-63 -7l-225 -633h-108l-225 633l-65 7v8h279v-8l-59 -6l191 -539h4l144 406q12 34 12 65q0 34 -26.5 54t-69.5 20v8h211z" />
    <glyph glyph-name="W" unicode="W" horiz-adv-x="902" 
d="M-27 640v8h60l5 -15zM922 648v-8l-65 -7l-193 -633h-111l-89 324l-103 -324h-111l-217 648h219v-8l-59 -7l181 -539l82 259l-76 280l-64 7v8h279v-8l-60 -7l141 -536l124 416q8 25 8 52q0 36 -25.5 55.5t-68.5 19.5v8h208z" />
    <glyph glyph-name="X" unicode="X" horiz-adv-x="620" 
d="M574 15l66 -7v-8h-280v8l55 7l-154 258l-115 -158q-22 -30 -22 -54q0 -20 16 -36.5t54 -16.5v-8h-213v8l68 7v-1l203 273l-207 346l-66 7v8h280v-8l-55 -7l149 -249l103 143q24 34 24 63q0 50 -66 50v8h209v-8l-68 -7l-193 -263z" />
    <glyph glyph-name="Y" unicode="Y" horiz-adv-x="602" 
d="M612 648v-8l-65 -7v1l-168 -355v-264l60 -7v-8h-270v8l60 7v264l-187 354l-66 7v8h281v-8l-56 -7l166 -326h8l90 191q20 44 20 87q0 23 -17.5 39t-49.5 16v8h194z" />
    <glyph glyph-name="Z" unicode="Z" horiz-adv-x="569" 
d="M534 189h9l-6 -189h-504v10l336 623h-147q-67 0 -116 -44.5t-58 -113.5l-2 -16h-9l6 189h488v-10l-332 -623h161q67 0 115 44.5t57 113.5z" />
    <glyph glyph-name="bracketleft" unicode="[" horiz-adv-x="334" 
d="M336 722h-131v-865h131v-15h-276v895h276v-15z" />
    <glyph glyph-name="backslash" unicode="\" horiz-adv-x="401" 
d="M376 0h-19l-332 702h19z" />
    <glyph glyph-name="bracketright" unicode="]" horiz-adv-x="334" 
d="M274 737v-895h-276v15h131v865h-131v15h276z" />
    <glyph glyph-name="underscore" unicode="_" horiz-adv-x="454" 
d="M0 -34h454v-15h-454v15z" />
    <glyph glyph-name="grave" unicode="`" 
d="M147 460h-12l-135 127v9h107z" />
    <glyph glyph-name="a" unicode="a" horiz-adv-x="610" 
d="M574 17l64 -9v-8h-277v8l54 9l-64 157h-234l-19 -48q-9 -22 -9 -44q0 -31 23 -52.5t63 -21.5v-8h-199v8l61 9l212 534h108zM123 189h222l-109 267h-8z" />
    <glyph glyph-name="b" unicode="b" horiz-adv-x="597" 
d="M346 276q99 0 160 -36.5t61 -97.5q0 -67 -72 -104.5t-193 -37.5h-266v8l57 7v521l-57 7v8h256q122 0 184 -37.5t62 -102.5q0 -60 -53 -96.5t-139 -36.5v-2zM292 536h-49v-251h70q60 0 60 126q0 125 -81 125zM302 15q49 0 74.5 27t25.5 100q0 74 -22.5 101t-66.5 27h-70
v-255h59z" />
    <glyph glyph-name="c" unicode="c" horiz-adv-x="591" 
d="M546 168h9l-7 -135q-7 -4 -21.5 -11t-61.5 -18t-98 -11q-165 0 -249.5 81t-84.5 201q0 121 84.5 202t249.5 81q49 0 94 -9.5t65 -18.5l21 -10l7 -142h-9l-7 20q-7 19 -18 39.5t-31 46.5t-52 42.5t-70 16.5q-83 0 -126 -57t-43 -211q0 -80 12 -134t36 -82t52.5 -39.5
t68.5 -11.5t75 19t55 45t31.5 47.5t13.5 32.5z" />
    <glyph glyph-name="d" unicode="d" horiz-adv-x="663" 
d="M309 551q164 0 241.5 -76t77.5 -200q0 -123 -84.5 -199t-267.5 -76h-240v8l57 7v521l-57 7v8h273zM276 15q45 0 76 10t57.5 37t40 80t13.5 133t-11 133.5t-33 80.5t-47.5 37t-62.5 10h-66v-521h33z" />
    <glyph glyph-name="e" unicode="e" horiz-adv-x="573" 
d="M518 171h9l-6 -171h-486v8l57 7v521l-57 7v8h474l6 -171h-9l-2 12q-11 65 -52 104.5t-104 39.5h-106v-260h52q80 0 100 98l1 5h9v-221h-9l-1 6q-6 44 -31 70.5t-69 26.5h-52v-246h117q65 0 107.5 40t50.5 107z" />
    <glyph glyph-name="f" unicode="f" horiz-adv-x="532" 
d="M505 551l6 -171h-9l-2 12q-11 65 -52 104.5t-104 39.5h-116v-272h69q43 0 64 24.5t30 69.5l1 5h9v-213h-9l-1 6q-14 93 -94 93h-69v-234l57 -7v-8h-249v8l57 7v521l-57 7v8h469z" />
    <glyph glyph-name="g" unicode="g" horiz-adv-x="620" 
d="M609 220v-8l-54 -7v-163v-75h-9l-11 59q-72 -33 -168 -33q-165 0 -249.5 81t-84.5 201q0 121 84.5 202t249.5 81q50 0 95.5 -9.5t65.5 -18.5l20 -10l7 -143h-9l-7 21q-7 21 -19 42.5t-32 46.5t-51.5 40.5t-69.5 15.5q-83 0 -126 -57t-43 -211q0 -80 12 -134t36 -82
t52.5 -39.5t68.5 -11.5q13 0 37 4v193l-55 7v8h260z" />
    <glyph glyph-name="h" unicode="h" horiz-adv-x="712" 
d="M676 543l-57 -5v-523l57 -7v-8h-264v8l57 7v255h-226v-255l57 -7v-8h-264v8l57 7v523l-57 5v8h264v-8l-57 -5v-255h226v255l-57 5v8h264v-8z" />
    <glyph glyph-name="i" unicode="i" horiz-adv-x="336" 
d="M300 543l-57 -7v-521l57 -7v-8h-264v8l57 7v521l-57 7v8h264v-8z" />
    <glyph glyph-name="j" unicode="j" horiz-adv-x="401" 
d="M378 551v-8l-57 -7v-369q0 -76 -43 -125t-142 -49q-56 0 -91 26.5t-36 61.5v1q0 23 16 40.5t39 17.5q24 0 41 -17.5t17 -40.5t-16.5 -39.5t-40.5 -17.5q27 -17 64 -17q21 0 31 10t10 24v494l-56 7v8h264z" />
    <glyph glyph-name="k" unicode="k" horiz-adv-x="631" 
d="M624 13l44 -5v-8h-212l-170 252h-43v-237l57 -7v-8h-264v8l57 7v521l-57 7v8h264v-8l-57 -7v-269h34l180 179q20 20 20 44q0 53 -91 53v8h242v-8l-57 -7l-183 -180z" />
    <glyph glyph-name="l" unicode="l" horiz-adv-x="534" 
d="M508 161h9l-6 -161h-475v8l57 7v521l-57 7v8h264v-8l-57 -7v-521h106q66 0 107.5 37t50.5 102z" />
    <glyph glyph-name="m" unicode="m" horiz-adv-x="789" 
d="M763 543l-57 -7v-521l57 -7v-8h-264v8l57 7v487h-2l-204 -506h-19l-220 506h-2v-421q0 -25 20.5 -49t48.5 -24v-8h-155v8q28 0 48.5 24t20.5 49v455l-57 7v8h204l162 -371h5l150 371h207v-8z" />
    <glyph glyph-name="n" unicode="n" horiz-adv-x="624" 
d="M596 551v-8q-27 0 -43 -23.5t-16 -49.5v-477h-30l-396 475h-2v-387q0 -26 16 -49.5t43 -23.5v-8h-135v8q27 0 43 23.5t16 49.5v411l-34 48l-23 3v8h199l284 -345h2v264q0 26 -16 49.5t-43 23.5v8h135z" />
    <glyph glyph-name="o" unicode="o" horiz-adv-x="691" 
d="M348 558q143 0 226.5 -82.5t83.5 -200.5q0 -117 -83.5 -199.5t-226.5 -82.5q-145 0 -230 82.5t-85 199.5q0 118 85 200.5t230 82.5zM348 8q69 0 106.5 57.5t37.5 209.5q0 153 -37.5 210.5t-106.5 57.5q-34 0 -59.5 -11.5t-47 -39.5t-32.5 -82.5t-11 -134.5
q0 -79 11 -133.5t32.5 -82.5t47 -39.5t59.5 -11.5z" />
    <glyph glyph-name="p" unicode="p" horiz-adv-x="568" 
d="M307 551q126 0 185.5 -47t59.5 -118q0 -72 -59.5 -120t-185.5 -48h-64v-203l57 -7v-8h-264v8l57 7v521l-57 7v8h271zM307 233q80 0 80 153q0 84 -21 117t-59 33h-64v-303h64z" />
    <glyph glyph-name="q" unicode="q" horiz-adv-x="691" 
d="M658 275q0 -103 -66 -181.5t-183 -96.5v-34q0 -112 115 -127l24 -3v-11h-24q-125 0 -185 38.5t-60 122.5v16q-115 19 -180.5 96.5t-65.5 179.5q0 118 85 200.5t230 82.5q143 0 226.5 -82.5t83.5 -200.5zM198 275q0 -79 11 -133.5t32.5 -82.5t47 -39.5t59.5 -11.5
q69 0 106.5 57.5t37.5 209.5q0 153 -37.5 210.5t-106.5 57.5q-34 0 -59.5 -11.5t-47 -39.5t-32.5 -82.5t-11 -134.5z" />
    <glyph glyph-name="r" unicode="r" horiz-adv-x="629" 
d="M618 99h9v-11q0 -43 -31.5 -69t-92.5 -26q-55 0 -88 30t-33 78v79q0 33 -21 53.5t-58 20.5h-60v-239l57 -7v-8h-264v8l57 7v521l-57 7v8h272q122 0 179.5 -41t57.5 -107q0 -61 -47.5 -100.5t-146.5 -39.5v-3q90 -1 135 -35.5t45 -94.5v-42q0 -52 37 -52q44 0 49 52z
M243 269h65q35 0 53.5 28t18.5 106t-18.5 105.5t-53.5 27.5h-65v-267z" />
    <glyph glyph-name="s" unicode="s" horiz-adv-x="507" 
d="M270 558q44 0 87 -8.5t58.5 -14.5t22.5 -9l4 -142h-9l-3 14q-8 28 -24 58t-52.5 58.5t-81.5 28.5q-100 0 -100 -66q0 -34 31 -64t75.5 -53.5t89 -49t75.5 -63t31 -83.5q0 -77 -62 -124t-160 -47q-47 0 -96.5 9.5t-75.5 18.5l-27 9l-8 137h9l6 -20q18 -45 71.5 -92
t120.5 -47q98 0 98 77q0 38 -31 68.5t-75.5 53t-89 46t-75.5 59.5t-31 82q0 47 20 81t54.5 51t70.5 24.5t77 7.5z" />
    <glyph glyph-name="t" unicode="t" horiz-adv-x="575" 
d="M552 551l6 -171h-9l-2 12q-11 65 -52 104.5t-105 39.5h-28v-521l57 -7v-8h-264v8l57 7v521h-28q-63 0 -104 -39.5t-52 -104.5l-2 -12h-9l6 171h529z" />
    <glyph glyph-name="u" unicode="u" horiz-adv-x="620" 
d="M601 551v-8q-27 0 -43 -23.5t-16 -49.5v-276q0 -101 -58.5 -151t-138.5 -50q-145 0 -206.5 59t-61.5 154v330l-56 7v8h263v-8l-57 -7v-404q0 -55 29 -89.5t89 -34.5q70 0 125 45t55 141v276q0 26 -16 49.5t-43 23.5v8h135z" />
    <glyph glyph-name="v" unicode="v" horiz-adv-x="605" 
d="M630 551v-8l-61 -6l-211 -537h-108l-211 536l-63 7v8h273v-8l-55 -7l177 -442h8l131 333q8 20 8 44q0 30 -24 51t-63 21v8h199z" />
    <glyph glyph-name="w" unicode="w" horiz-adv-x="859" 
d="M879 551v-8l-61 -5l-184 -538h-110l-81 270l-95 -270h-111l-201 537l-62 6v8h273v-8l-55 -7l170 -443h3l70 201l-72 242l-62 7v8h273v-8l-57 -7l131 -443h1l110 330q7 22 7 44q0 33 -20.5 54.5t-65.5 21.5v8h199z" />
    <glyph glyph-name="x" unicode="x" 
d="M554 15l64 -7v-8h-283v8l50 7l-134 206l-99 -123q-24 -31 -23 -47q0 -16 15.5 -29.5t52.5 -13.5v-8h-196v8l66 7l176 217l-198 304l-63 7l-1 8h283l1 -8l-51 -7l128 -197l90 114q25 36 24 47q-2 43 -68 43l-1 8h196l1 -8l-67 -7l-166 -209z" />
    <glyph glyph-name="y" unicode="y" horiz-adv-x="573" 
d="M521 538l-156 -303v-222l57 -5v-8h-264v8l57 5v226l-175 299l-63 5v8h275v-8l-54 -5l156 -274h10l87 173q17 34 17 60q0 19 -15.5 32.5t-45.5 13.5v8h176v-8z" />
    <glyph glyph-name="z" unicode="z" horiz-adv-x="546" 
d="M501 171h9l-6 -171h-466v9l306 529h-134q-65 0 -108.5 -41t-48.5 -105l-1 -12h-9l6 171h457v-9l-303 -529h140q63 0 104.5 40.5t51.5 104.5z" />
    <glyph glyph-name="braceleft" unicode="{" horiz-adv-x="341" 
d="M237 451q0 -65 -41 -110t-106 -63v-2q66 -18 106.5 -61.5t40.5 -106.5v-159q0 -111 102 -111v-15q-51 0 -92.5 11t-78.5 35.5t-58 71.5t-21 112v150q0 64 -43 67h-36v14h36q43 3 43 72v150q0 65 21 112t58 72t79 36t92 11v-15q-102 0 -102 -112v-159z" />
    <glyph glyph-name="bar" unicode="|" horiz-adv-x="137" 
d="M60 737h17v-895h-17v895z" />
    <glyph glyph-name="braceright" unicode="}" horiz-adv-x="340" 
d="M1 -177q51 0 92.5 11t78.5 35.5t58 71.5t21 112v150q0 64 43 67h36v14h-36q-43 3 -43 72v150q0 65 -21 112t-58 72t-79 36t-92 11v-15q102 0 102 -112v-159q0 -65 41 -110t106 -63v-2q-66 -18 -106.5 -61.5t-40.5 -106.5v-159q0 -111 -102 -111v-15z" />
    <glyph glyph-name="asciitilde" unicode="~" horiz-adv-x="476" 
d="M59 307q1 3 3.5 8t11.5 18t20 22.5t30 17.5t40 8q37 0 94 -25.5t87 -25.5q19 0 36 9.5t24 18.5l7 10l8 -5q-1 -3 -3.5 -8t-11.5 -17.5t-20 -22t-29.5 -17.5t-40.5 -8q-40 0 -93.5 24.5t-85.5 24.5q-20 0 -37.5 -9t-24.5 -18l-7 -9z" />
    <glyph glyph-name="exclamdown" unicode="&#xa1;" horiz-adv-x="216" 
d="M47 598q0 28 17 43t44 15t44 -15t17 -43t-17 -43t-44 -15t-44 15t-17 43zM102 504h12q0 -93 29 -239.5t29 -204.5q0 -30 -16.5 -49t-47.5 -19t-47.5 19t-16.5 49q0 58 29 204.5t29 239.5z" />
    <glyph glyph-name="cent" unicode="&#xa2;" horiz-adv-x="444" 
d="M412 248q0 -41 -37.5 -82.5t-116.5 -49.5v-116h-17v115h-13q-95 0 -144.5 57t-49.5 152q0 93 49.5 149.5t157.5 58.5v116h17v-116q67 -3 107.5 -39.5t40.5 -82.5q0 -22 -16 -39t-42 -17t-42 16t-16 40q0 23 14.5 38.5t39.5 16.5l4 24q-40 29 -100 29q-19 0 -31 -14.5
t-20 -59t-8 -120.5q0 -90 19.5 -129.5t67.5 -39.5q64 0 93.5 30t29.5 63h13z" />
    <glyph glyph-name="sterling" unicode="&#xa3;" horiz-adv-x="541" 
d="M493 193h15l-2 -21q-23 -181 -138 -181q-69 0 -140 53q-44 -53 -110 -52q-35 0 -57.5 21t-22.5 55q0 40 27 62.5t66 22.5q24 0 74 -9q-3 24 -15 48.5t-37 61t-35 53.5h-75v15h67q-36 65 -36 131q0 92 62.5 147.5t182.5 55.5q42 0 80.5 -10t56.5 -20l18 -10l5 -156h-11
l-4 21q-18 77 -43 110q-38 49 -102 50q-43 0 -68 -32t-25 -84q0 -25 4 -54.5t8 -47t13 -54.5t11 -47h133v-15h-129q12 -55 12 -92q0 -47 -9 -84q96 -20 137 -20q27 0 45.5 8.5t26 22t10 20.5t3.5 14zM118 7q56 0 78 61q-44 32 -74 32q-22 0 -36 -12.5t-14 -32.5
q0 -24 15.5 -36t30.5 -12z" />
    <glyph glyph-name="currency" unicode="&#xa4;" horiz-adv-x="510" 
d="M469 324q0 -133 -97 -184l75 -131l-13 -7l-76 132q-44 -19 -103 -19q-56 0 -102 18l-76 -131l-13 7l75 131q-98 50 -98 184q0 137 101 185l-78 135l13 7l78 -136q43 17 100 17q58 0 101 -17l78 136l13 -7l-78 -135q100 -50 100 -185zM255 129q31 0 45 41t14 154
t-14 153.5t-45 40.5t-45 -40.5t-14 -153.5q0 -76 8 -120.5t20 -59.5t31 -15z" />
    <glyph glyph-name="yen" unicode="&#xa5;" horiz-adv-x="685" 
d="M660 648v-8l-65 -7v1l-168 -355v-60h113v-15h-113v-65h113v-15h-113v-109l60 -7v-8h-270v8l60 7v109h-113v15h113v65h-113v15h113v60l-187 354l-66 7v8h281v-8l-56 -7l166 -326h8l97 207q18 38 18 71q0 23 -16 39t-48 16v8h186z" />
    <glyph glyph-name="brokenbar" unicode="&#xa6;" horiz-adv-x="151" 
d="M84 737v-358h-17v358h17zM84 200v-358h-17v358h17z" />
    <glyph glyph-name="section" unicode="&#xa7;" horiz-adv-x="536" 
d="M439 44q55 -48 55 -109q0 -87 -64 -140t-167 -53q-49 0 -101 11t-80 21l-28 11l-8 153h9l6 -25q5 -19 13 -37t24 -40.5t37 -39t54.5 -28t73.5 -11.5q107 0 107 100q0 46 -33 83t-80 64t-94 55t-80 69.5t-33 93.5q0 89 63 137q-63 51 -63 113q0 51 21 89t56 57.5t73 28.5
t80 9q48 0 92 -10t64 -20l21 -10l4 -156h-9l-4 21q-4 17 -7 27t-11.5 32.5t-20 37t-28.5 30.5t-42.5 24.5t-56.5 8.5q-108 0 -108 -87q0 -41 33 -76t80 -63t94 -57.5t80 -74t33 -98.5q0 -89 -55 -141zM154 298q0 -29 13.5 -54.5t41 -47.5t52 -37.5t65 -38t61.5 -36.5
q2 18 2 29q0 30 -13 56t-40.5 48t-51 37t-64.5 37.5t-61 34.5q-5 -13 -5 -28z" />
    <glyph glyph-name="dieresis" unicode="&#xa8;" 
d="M30 505q0 24 15 37.5t38 13.5t38 -13.5t15 -37.5t-15 -37t-38 -13t-38 13t-15 37zM200 505q0 24 15 37.5t38 13.5t38 -13.5t15 -37.5t-15 -37t-38 -13t-38 13t-15 37z" />
    <glyph glyph-name="copyright" unicode="&#xa9;" horiz-adv-x="736" 
d="M368 656q153 0 241.5 -96t88.5 -236t-88.5 -236t-241.5 -96t-241.5 96t-88.5 236t88.5 236t241.5 96zM368 7q137 0 224.5 87t87.5 230t-87.5 230t-224.5 87t-224.5 -87t-87.5 -230t87.5 -230t224.5 -87zM416 163q64 0 93.5 30t29.5 63h13q0 -46 -45 -89.5t-139 -43.5
q-95 0 -144.5 57t-49.5 152q0 94 51 151t163 57q71 0 115 -37.5t44 -85.5q0 -28 -20 -49t-52 -21q-33 0 -52.5 20t-19.5 50t19.5 49.5t52.5 19.5q7 0 11 -1l2 12q-40 29 -100 29q-19 0 -31 -14.5t-20 -59t-8 -120.5q0 -90 19.5 -129.5t67.5 -39.5z" />
    <glyph glyph-name="ordfeminine" unicode="&#xaa;" horiz-adv-x="459" 
d="M415 405h15v-17q0 -41 -20 -65.5t-75 -24.5q-71 0 -71 91v5h-8q0 -35 -26.5 -65.5t-88.5 -30.5q-48 0 -76.5 24t-28.5 65q0 101 197 101h14v101q0 24 -13 38.5t-37 14.5q-47 0 -82 -21q0 -1 -0.5 -3t-0.5 -4h5q25 0 42 -14.5t17 -35.5t-17.5 -37t-41.5 -16t-40 15.5
t-16 37.5q0 38 37 65t97 27q90 0 132 -34.5t42 -90.5v-160q0 -35 20 -35q24 0 24 52v17zM201 342q23 0 34.5 24.5t11.5 58.5v46h-13q-35 0 -55 -20t-20 -48q0 -61 42 -61z" />
    <glyph glyph-name="uni00AD" unicode="&#xad;" horiz-adv-x="410" 
d="M50 267h310v-15h-310v15z" />
    <glyph glyph-name="registered" unicode="&#xae;" horiz-adv-x="436" 
d="M218 656q84 0 132.5 -53t48.5 -130q0 -78 -48.5 -130.5t-132.5 -52.5t-132.5 52.5t-48.5 130.5q0 77 48.5 130t132.5 53zM218 304q73 0 118.5 47.5t45.5 121.5t-45.5 121t-118.5 47t-118.5 -47t-45.5 -121t45.5 -121.5t118.5 -47.5zM331 403h10v-7q0 -37 -48 -37
q-21 0 -32.5 11t-11.5 30v34q0 30 -31 30h-27v-91l21 -2v-9h-99v9l21 2v205l-21 2v9h111q44 0 65 -17t21 -44q0 -26 -17.5 -42t-53.5 -16v-1q67 0 67 -52v-21q0 -16 13 -16q12 0 12 16v7zM191 474h28q28 0 28 54q0 51 -28 51h-28v-105z" />
    <glyph glyph-name="macron" unicode="&#xaf;" 
d="M29 499h260v-15h-260v15z" />
    <glyph glyph-name="degree" unicode="&#xb0;" horiz-adv-x="388" 
d="M194 362q-74 0 -117.5 46.5t-43.5 114.5q0 67 43.5 114t117.5 47t117.5 -47t43.5 -114q0 -68 -43.5 -114.5t-117.5 -46.5zM194 377q64 0 104 40t40 106t-40 105.5t-104 39.5t-104 -39.5t-40 -105.5t40 -106t104 -40z" />
    <glyph glyph-name="plusminus" unicode="&#xb1;" horiz-adv-x="497" 
d="M257 331h175v-15h-175v-171h-17v171h-175v15h175v167h17v-167zM65 82v15h367v-15h-367z" />
    <glyph glyph-name="acute" unicode="&#xb4;" 
d="M50 460l40 136h107v-9l-135 -127h-12z" />
    <glyph glyph-name="paragraph" unicode="&#xb6;" horiz-adv-x="626" 
d="M29 464q0 82 56 133t174 51h106v-648h-152v8l60 7v265h-14q-118 0 -174 50.5t-56 133.5zM588 640l-60 -7v-618l60 -7v-8h-152v648h152v-8z" />
    <glyph glyph-name="periodcentered" unicode="&#xb7;" horiz-adv-x="252" 
d="M50 347q0 34 21.5 53.5t54.5 19.5t54.5 -19.5t21.5 -53.5t-21.5 -53t-54.5 -19t-54.5 19t-21.5 53z" />
    <glyph glyph-name="cedilla" unicode="&#xb8;" 
d="M115 -44q55 -2 83.5 -22t28.5 -50q0 -29 -25 -48.5t-75 -19.5q-28 0 -50.5 7t-31.5 14l-9 7l-6 43h6q3 -6 8 -15.5t24.5 -25.5t43.5 -16q42 0 42 54q0 35 -16.5 46.5t-48.5 11.5l35 58l17 -1q-18 -29 -26 -43z" />
    <glyph glyph-name="ordmasculine" unicode="&#xba;" horiz-adv-x="424" 
d="M212 298q-82 0 -130.5 52t-48.5 127t48.5 127t130.5 52t130.5 -52t48.5 -127t-48.5 -127t-130.5 -52zM212 312q68 0 68 165t-68 165t-68 -165t68 -165z" />
    <glyph glyph-name="onequarter" unicode="&#xbc;" horiz-adv-x="728" 
d="M502 656h19l-268 -656h-19zM288 317v-10h-247v10l72 4v288l-76 -22v14l167 50h12v-330zM700 83h-60v-69l54 -4v-10h-217v10l60 4v69h-151v13l237 247h17v-247h60v-13zM406 96h131v135z" />
    <glyph glyph-name="onehalf" unicode="&#xbd;" horiz-adv-x="752" 
d="M498 656h19l-268 -656h-19zM284 317v-10h-247v10l72 4v290l-76 -22v11l167 50h12v-329zM708 116h13l-7 -116h-281v37q7 4 18.5 10.5t41 28.5t52 45.5t41 60t18.5 72.5q0 82 -68 82q-29 0 -56 -16l1 -2h6q19 0 31 -13t12 -30t-12 -30.5t-31 -13.5q-20 0 -31.5 12.5
t-11.5 31.5q0 33 28.5 54t76.5 21q82 0 124.5 -26.5t42.5 -70.5q0 -33 -21.5 -64.5t-52 -52t-61.5 -36t-53 -22.5l-21 -8h150q45 0 50 39z" />
    <glyph glyph-name="threequarters" unicode="&#xbe;" horiz-adv-x="739" 
d="M321 392q0 -41 -40.5 -67.5t-122.5 -26.5q-53 0 -87 23t-34 54q0 19 11.5 31.5t31.5 12.5q19 0 31.5 -13.5t12.5 -30.5t-12.5 -30t-31.5 -13h-2l-1 -3q26 -17 63 -17q75 0 75 80q0 43 -22 64.5t-51 21.5h-7v11h7q24 0 42.5 18t18.5 55q0 80 -63 80q-35 0 -61 -18v-2h1
q19 0 31.5 -13t12.5 -30t-12.5 -30.5t-31.5 -13.5q-20 0 -31.5 12.5t-11.5 31.5q0 31 34 54t87 23q76 0 113.5 -26.5t37.5 -67.5q0 -32 -34 -54.5t-86 -22.5v-2q56 0 94 -27t38 -64zM513 656h19l-268 -656h-19zM711 83h-60v-69l54 -4v-10h-217v10l60 4v69h-151v13l237 247
h17v-247h60v-13zM417 96h131v135z" />
    <glyph glyph-name="questiondown" unicode="&#xbf;" horiz-adv-x="434" 
d="M242 540q-27 0 -44 15t-17 43t17 43t44 15t44 -15t17 -43t-17 -43t-44 -15zM406 117v-1q0 -60 -46.5 -92t-125.5 -32q-102 0 -153.5 42t-51.5 111q0 45 22 81t53 60l62 48t53 56.5t22 73.5v40h18v-64q0 -57 -12 -100.5t-29.5 -69.5t-35 -48t-29.5 -49t-12 -60
q0 -46 29.5 -76t73.5 -30q60 0 99 23l-2 15h-2q-34 0 -55.5 22t-21.5 50t20 50.5t52 22.5q33 0 52.5 -21.5t19.5 -51.5z" />
    <glyph glyph-name="Agrave" unicode="&#xc0;" horiz-adv-x="637" 
d="M378 684h-22l-155 117v9h117zM598 15l65 -7v-8h-279v8l59 7l-68 190h-254l-25 -71q-9 -27 -9 -52q0 -35 25.5 -54.5t68.5 -19.5v-8h-208v8l62 7l227 633h112zM127 220h242l-119 333h-4z" />
    <glyph glyph-name="Aacute" unicode="&#xc1;" horiz-adv-x="637" 
d="M434 801l-155 -117h-22l60 126h117v-9zM598 15l65 -7v-8h-279v8l59 7l-68 190h-254l-25 -71q-9 -27 -9 -52q0 -35 25.5 -54.5t68.5 -19.5v-8h-208v8l62 7l227 633h112zM127 220h242l-119 333h-4z" />
    <glyph glyph-name="Acircumflex" unicode="&#xc2;" horiz-adv-x="637" 
d="M317 760l-122 -77h-12l90 136h87l90 -136h-12zM598 15l65 -7v-8h-279v8l59 7l-68 190h-254l-25 -71q-9 -27 -9 -52q0 -35 25.5 -54.5t68.5 -19.5v-8h-208v8l62 7l227 633h112zM127 220h242l-119 333h-4z" />
    <glyph glyph-name="Atilde" unicode="&#xc3;" horiz-adv-x="637" 
d="M256 740q-16 0 -29.5 -8t-18.5 -16l-6 -7l-8 4q1 4 3 10t10 21t17.5 27t25.5 21.5t34 9.5q27 0 69 -30.5t62 -30.5q15 0 28 8.5t19 16.5l5 8l8 -5q-1 -4 -3 -9.5t-10 -21t-17.5 -27t-25.5 -21t-34 -9.5q-30 0 -68.5 29.5t-60.5 29.5zM598 15l65 -7v-8h-279v8l59 7
l-68 190h-254l-25 -71q-9 -27 -9 -52q0 -35 25.5 -54.5t68.5 -19.5v-8h-208v8l62 7l227 633h112zM127 220h242l-119 333h-4z" />
    <glyph glyph-name="Adieresis" unicode="&#xc4;" horiz-adv-x="637" 
d="M232 689q-23 0 -38 13t-15 37t15 37.5t38 13.5t38 -13.5t15 -37.5t-15 -37t-38 -13zM402 689q-23 0 -38 13t-15 37t15 37.5t38 13.5t38 -13.5t15 -37.5t-15 -37t-38 -13zM598 15l65 -7v-8h-279v8l59 7l-68 190h-254l-25 -71q-9 -27 -9 -52q0 -35 25.5 -54.5t68.5 -19.5
v-8h-208v8l62 7l227 633h112zM127 220h242l-119 333h-4z" />
    <glyph glyph-name="Aring" unicode="&#xc5;" horiz-adv-x="637" 
d="M317 697q-50 0 -77.5 25t-27.5 68q0 42 27.5 67t77.5 25t77.5 -25t27.5 -67q0 -43 -27.5 -68t-77.5 -25zM317 868q-37 0 -37 -78q0 -79 37 -79t37 79q0 78 -37 78zM598 15l65 -7v-8h-279v8l59 7l-68 190h-254l-25 -71q-9 -27 -9 -52q0 -35 25.5 -54.5t68.5 -19.5v-8h-208
v8l62 7l227 633h112zM127 220h242l-119 333h-4z" />
    <glyph glyph-name="AE" unicode="&#xc6;" horiz-adv-x="930" 
d="M876 189h9l-6 -189h-522v8l60 7v190h-244l-42 -71q-22 -36 -27 -52q-13 -35 5 -53t61 -18l-1 -11h-197v11l66 4l373 619l-54 6v8h498l6 -189h-9l-2 16q-9 71 -52.5 114.5t-109.5 43.5h-121v-305h68q45 0 74 31.5t33 78.5l1 11h9v-255h-9l-1 11q-4 47 -33 77.5t-74 30.5
h-68v-298h145q66 0 109.5 43.5t52.5 114.5zM182 220h235v393z" />
    <glyph glyph-name="Ccedilla" unicode="&#xc7;" horiz-adv-x="620" 
d="M386 641q-89 0 -137 -71t-48 -246t48 -246t137 -71q34 0 64.5 14.5t49 33t34.5 44.5t22 40t12 29l6 20h9l-7 -149q-8 -5 -22.5 -13t-63.5 -21t-102 -13l-20 -33q55 -2 83.5 -22t28.5 -50q0 -29 -25 -48.5t-75 -19.5q-28 0 -50.5 7t-31.5 14l-9 7l-6 43h6q3 -6 8 -15.5
t24.5 -25.5t43.5 -16q42 0 42 54q0 35 -16.5 46.5t-48.5 11.5q1 2 12.5 20.5t16.5 26.5q-166 5 -250.5 98t-84.5 234q0 144 88.5 238t261.5 94q53 0 102 -12t72 -24l23 -11v-154h-9l-8 26q-4 13 -10.5 29t-22 40.5t-34.5 43.5t-49 33t-64 14z" />
    <glyph glyph-name="Egrave" unicode="&#xc8;" horiz-adv-x="601" 
d="M399 684h-22l-155 117v9h117zM557 189h9l-6 -189h-522v8l60 7v618l-60 7v8h498l6 -189h-9l-2 16q-9 71 -52.5 114.5t-109.5 43.5h-121v-305h68q45 0 74 31.5t33 78.5l1 11h9v-255h-9l-1 11q-4 47 -33 77.5t-74 30.5h-68v-298h145q66 0 109.5 43.5t52.5 114.5z" />
    <glyph glyph-name="Eacute" unicode="&#xc9;" horiz-adv-x="601" 
d="M432 801l-155 -117h-22l60 126h117v-9zM557 189h9l-6 -189h-522v8l60 7v618l-60 7v8h498l6 -189h-9l-2 16q-9 71 -52.5 114.5t-109.5 43.5h-121v-305h68q45 0 74 31.5t33 78.5l1 11h9v-255h-9l-1 11q-4 47 -33 77.5t-74 30.5h-68v-298h145q66 0 109.5 43.5t52.5 114.5z
" />
    <glyph glyph-name="Ecircumflex" unicode="&#xca;" horiz-adv-x="601" 
d="M316 760l-122 -77h-12l90 136h87l90 -136h-12zM557 189h9l-6 -189h-522v8l60 7v618l-60 7v8h498l6 -189h-9l-2 16q-9 71 -52.5 114.5t-109.5 43.5h-121v-305h68q45 0 74 31.5t33 78.5l1 11h9v-255h-9l-1 11q-4 47 -33 77.5t-74 30.5h-68v-298h145q66 0 109.5 43.5
t52.5 114.5z" />
    <glyph glyph-name="Edieresis" unicode="&#xcb;" horiz-adv-x="601" 
d="M231 689q-23 0 -38 13t-15 37t15 37.5t38 13.5t38 -13.5t15 -37.5t-15 -37t-38 -13zM401 689q-23 0 -38 13t-15 37t15 37.5t38 13.5t38 -13.5t15 -37.5t-15 -37t-38 -13zM557 189h9l-6 -189h-522v8l60 7v618l-60 7v8h498l6 -189h-9l-2 16q-9 71 -52.5 114.5t-109.5 43.5
h-121v-305h68q45 0 74 31.5t33 78.5l1 11h9v-255h-9l-1 11q-4 47 -33 77.5t-74 30.5h-68v-298h145q66 0 109.5 43.5t52.5 114.5z" />
    <glyph glyph-name="Igrave" unicode="&#xcc;" horiz-adv-x="346" 
d="M234 684h-22l-155 117v9h117zM308 640l-60 -7v-618l60 -7v-8h-270v8l60 7v618l-60 7v8h270v-8z" />
    <glyph glyph-name="Iacute" unicode="&#xcd;" horiz-adv-x="346" 
d="M290 801l-155 -117h-22l60 126h117v-9zM308 640l-60 -7v-618l60 -7v-8h-270v8l60 7v618l-60 7v8h270v-8z" />
    <glyph glyph-name="Icircumflex" unicode="&#xce;" horiz-adv-x="346" 
d="M173 760l-122 -77h-12l90 136h87l90 -136h-12zM308 640l-60 -7v-618l60 -7v-8h-270v8l60 7v618l-60 7v8h270v-8z" />
    <glyph glyph-name="Idieresis" unicode="&#xcf;" horiz-adv-x="346" 
d="M88 689q-23 0 -38 13t-15 37t15 37.5t38 13.5t38 -13.5t15 -37.5t-15 -37t-38 -13zM258 689q-23 0 -38 13t-15 37t15 37.5t38 13.5t38 -13.5t15 -37.5t-15 -37t-38 -13zM308 648v-8l-60 -7v-618l60 -7v-8h-270v8l60 7v618l-60 7v8h270z" />
    <glyph glyph-name="Eth" unicode="&#xd0;" horiz-adv-x="696" 
d="M324 648q172 0 253.5 -88.5t81.5 -235.5t-89 -235.5t-281 -88.5h-251v8l60 7v295h-89v15h89v308l-60 7v8h286zM289 15q100 0 152.5 67.5t52.5 241.5q0 90 -12 152t-36 95.5t-53 47.5t-69 14h-76v-308h133v-15h-133v-295h41z" />
    <glyph glyph-name="Ntilde" unicode="&#xd1;" horiz-adv-x="662" 
d="M263 740q-16 0 -29.5 -8t-19.5 -16l-5 -7l-8 4q1 4 3 10t10 21t17.5 27t25.5 21.5t34 9.5q27 0 69 -30.5t62 -30.5q15 0 28 8.5t18 16.5l6 8l8 -5q-1 -4 -3 -9.5t-10 -21t-17.5 -27t-25.5 -21t-34 -9.5q-30 0 -68.5 29.5t-60.5 29.5zM477 648h157v-8q-28 0 -49 -20
t-21 -51v-577h-37l-409 559h-2v-472q0 -31 21 -51t49 -20v-8h-157v8q27 0 48 20t22 51v501l-34 57l-26 3v8h188l318 -419h2v340q0 31 -21 51t-49 20v8z" />
    <glyph glyph-name="Ograve" unicode="&#xd2;" horiz-adv-x="724" 
d="M423 684h-22l-155 117v9h117zM362 656q150 0 238.5 -96t88.5 -236t-88 -236t-239 -96t-239 96t-88 236t88.5 236t238.5 96zM362 7q162 0 162 317t-162 317t-162 -317t162 -317z" />
    <glyph glyph-name="Oacute" unicode="&#xd3;" horiz-adv-x="724" 
d="M479 801l-155 -117h-22l60 126h117v-9zM362 656q150 0 238.5 -96t88.5 -236t-88 -236t-239 -96t-239 96t-88 236t88.5 236t238.5 96zM362 7q162 0 162 317t-162 317t-162 -317t162 -317z" />
    <glyph glyph-name="Ocircumflex" unicode="&#xd4;" horiz-adv-x="724" 
d="M362 760l-122 -77h-12l90 136h87l90 -136h-12zM362 656q150 0 238.5 -96t88.5 -236t-88 -236t-239 -96t-239 96t-88 236t88.5 236t238.5 96zM362 7q162 0 162 317t-162 317t-162 -317t162 -317z" />
    <glyph glyph-name="Otilde" unicode="&#xd5;" horiz-adv-x="724" 
d="M281 740q-16 0 -29.5 -8t-19.5 -16l-5 -7l-8 4q1 4 3 10t10 21t17.5 27t25.5 21.5t34 9.5q27 0 69 -30.5t62 -30.5q15 0 28 8.5t18 16.5l6 8l8 -5q-1 -4 -3 -9.5t-10 -21t-17.5 -27t-25.5 -21t-34 -9.5q-30 0 -68.5 29.5t-60.5 29.5zM362 656q150 0 238.5 -96t88.5 -236
t-88 -236t-239 -96t-239 96t-88 236t88.5 236t238.5 96zM362 7q162 0 162 317t-162 317t-162 -317t162 -317z" />
    <glyph glyph-name="Odieresis" unicode="&#xd6;" horiz-adv-x="724" 
d="M277 689q-23 0 -38 13t-15 37t15 37.5t38 13.5t38 -13.5t15 -37.5t-15 -37t-38 -13zM447 689q-23 0 -38 13t-15 37t15 37.5t38 13.5t38 -13.5t15 -37.5t-15 -37t-38 -13zM362 656q150 0 238.5 -96t88.5 -236t-88 -236t-239 -96t-239 96t-88 236t88.5 236t238.5 96zM362 7
q162 0 162 317t-162 317t-162 -317t162 -317z" />
    <glyph glyph-name="multiply" unicode="&#xd7;" horiz-adv-x="381" 
d="M325 383l-123 -123l120 -121l-12 -12l-120 121l-124 -124l-11 10l124 124l-118 118l12 12l118 -118l124 124z" />
    <glyph glyph-name="Oslash" unicode="&#xd8;" horiz-adv-x="725" 
d="M537 612q73 -43 113 -119.5t40 -168.5q0 -140 -87.5 -236t-237.5 -96q-92 0 -165 38l-34 -59l-13 7l34 59q-73 44 -112.5 120t-39.5 167q0 140 88.5 236t241.5 96q89 0 159 -36l26 44l13 -7zM200 324q0 -135 29 -214l259 448q-39 83 -123 83q-78 0 -121.5 -71.5
t-43.5 -245.5zM365 7q75 0 117.5 71.5t42.5 245.5q0 139 -29 216l-259 -447q39 -86 128 -86z" />
    <glyph glyph-name="Ugrave" unicode="&#xd9;" horiz-adv-x="651" 
d="M402 684h-22l-155 117v9h117zM639 648v-8q-28 0 -49 -20t-21 -51v-341q0 -119 -62 -177.5t-147 -58.5q-279 0 -279 248v393l-59 7v8h269v-8l-60 -7v-465q0 -75 32 -118t97 -43q34 0 65.5 11t61 35t47.5 69t18 106v341q0 31 -21 51t-49 20v8h157z" />
    <glyph glyph-name="Uacute" unicode="&#xda;" horiz-adv-x="651" 
d="M497 801l-155 -117h-22l60 126h117v-9zM639 648v-8q-28 0 -49 -20t-21 -51v-341q0 -119 -62 -177.5t-147 -58.5q-279 0 -279 248v393l-59 7v8h269v-8l-60 -7v-465q0 -75 32 -118t97 -43q34 0 65.5 11t61 35t47.5 69t18 106v341q0 31 -21 51t-49 20v8h157z" />
    <glyph glyph-name="Ucircumflex" unicode="&#xdb;" horiz-adv-x="651" 
d="M382 760l-122 -77h-12l90 136h87l90 -136h-12zM639 648v-8q-28 0 -49 -20t-21 -51v-341q0 -119 -62 -177.5t-147 -58.5q-279 0 -279 248v393l-59 7v8h269v-8l-60 -7v-465q0 -75 32 -118t97 -43q34 0 65.5 11t61 35t47.5 69t18 106v341q0 31 -21 51t-49 20v8h157z" />
    <glyph glyph-name="Udieresis" unicode="&#xdc;" horiz-adv-x="651" 
d="M297 689q-23 0 -38 13t-15 37t15 37.5t38 13.5t38 -13.5t15 -37.5t-15 -37t-38 -13zM467 689q-23 0 -38 13t-15 37t15 37.5t38 13.5t38 -13.5t15 -37.5t-15 -37t-38 -13zM639 648v-8q-28 0 -49 -20t-21 -51v-341q0 -119 -62 -177.5t-147 -58.5q-279 0 -279 248v393l-59 7
v8h269v-8l-60 -7v-465q0 -75 32 -118t97 -43q34 0 65.5 11t61 35t47.5 69t18 106v341q0 31 -21 51t-49 20v8h157z" />
    <glyph glyph-name="Yacute" unicode="&#xdd;" horiz-adv-x="602" 
d="M437 801l-155 -117h-22l60 126h117v-9zM612 648v-8l-65 -7v1l-168 -355v-264l60 -7v-8h-270v8l60 7v264l-187 354l-66 7v8h281v-8l-56 -7l166 -326h8l90 191q20 44 20 87q0 23 -17.5 39t-49.5 16v8h194z" />
    <glyph glyph-name="Thorn" unicode="&#xde;" horiz-adv-x="583" 
d="M309 512q132 0 193.5 -51t61.5 -133q0 -83 -61.5 -133.5t-193.5 -50.5h-61v-129l60 -7v-8h-270v8l60 7v618l-60 7v8h270v-8l-60 -7v-121h61zM309 159q43 0 66.5 37t23.5 132t-23.5 132t-66.5 37h-61v-338h61z" />
    <glyph glyph-name="germandbls" unicode="&#xdf;" horiz-adv-x="587" 
d="M424 272q142 -23 142 -132q0 -76 -55 -111.5t-134 -35.5q-29 0 -54 5t-35 10l-11 5l-6 95h7q30 -102 104 -102q31 0 47 28t16 99q0 78 -34.5 106t-128.5 28v9l122 244q-22 16 -42 22t-58 6q-37 0 -59.5 -32.5t-22.5 -84.5v-431h-193v8l48 6v369q0 80 63 130t164 50
q79 0 139.5 -24t93.5 -58z" />
    <glyph glyph-name="agrave" unicode="&#xe0;" horiz-adv-x="610" 
d="M352 587h-12l-135 127v9h107zM574 17l64 -9v-8h-277v8l54 9l-64 157h-234l-19 -48q-9 -22 -9 -44q0 -31 23 -52.5t63 -21.5v-8h-199v8l61 9l212 534h108zM123 189h222l-109 267h-8z" />
    <glyph glyph-name="aacute" unicode="&#xe1;" horiz-adv-x="610" 
d="M396 714l-135 -127h-12l40 136h107v-9zM574 17l64 -9v-8h-277v8l54 9l-64 157h-234l-19 -48q-9 -22 -9 -44q0 -31 23 -52.5t63 -21.5v-8h-199v8l61 9l212 534h108zM123 189h222l-109 267h-8z" />
    <glyph glyph-name="acircumflex" unicode="&#xe2;" horiz-adv-x="610" 
d="M309 673l-122 -87h-12l100 146h67l100 -146h-12zM574 17l64 -9v-8h-277v8l54 9l-64 157h-234l-19 -48q-9 -22 -9 -44q0 -31 23 -52.5t63 -21.5v-8h-199v8l61 9l212 534h108zM123 189h222l-109 267h-8z" />
    <glyph glyph-name="atilde" unicode="&#xe3;" horiz-adv-x="610" 
d="M240 643q-16 0 -29.5 -7.5t-18.5 -15.5l-6 -8l-8 4q1 4 3 10t10 21t17.5 27t25.5 21.5t34 9.5q27 0 69 -30.5t62 -30.5q15 0 28 8t19 16l5 9l8 -5q-1 -4 -3 -9.5t-10 -21t-17.5 -27t-25.5 -21t-34 -9.5q-30 0 -68.5 29.5t-60.5 29.5zM574 17l64 -9v-8h-277v8l54 9
l-64 157h-234l-19 -48q-9 -22 -9 -44q0 -31 23 -52.5t63 -21.5v-8h-199v8l61 9l212 534h108zM123 189h222l-109 267h-8z" />
    <glyph glyph-name="adieresis" unicode="&#xe4;" horiz-adv-x="610" 
d="M224 592q-23 0 -38 13t-15 37t15 37.5t38 13.5t38 -13.5t15 -37.5t-15 -37t-38 -13zM394 592q-23 0 -38 13t-15 37t15 37.5t38 13.5t38 -13.5t15 -37.5t-15 -37t-38 -13zM574 17l64 -9v-8h-277v8l54 9l-64 157h-234l-19 -48q-9 -22 -9 -44q0 -31 23 -52.5t63 -21.5v-8
h-199v8l61 9l212 534h108zM123 189h222l-109 267h-8z" />
    <glyph glyph-name="aring" unicode="&#xe5;" horiz-adv-x="610" 
d="M309 600q-50 0 -77.5 25t-27.5 68q0 42 27.5 67t77.5 25t77.5 -25t27.5 -67q0 -43 -27.5 -68t-77.5 -25zM309 771q-37 0 -37 -78q0 -79 37 -79t37 79q0 78 -37 78zM574 17l64 -9v-8h-277v8l54 9l-64 157h-234l-19 -48q-9 -22 -9 -44q0 -31 23 -52.5t63 -21.5v-8h-199v8
l61 9l212 534h108zM123 189h222l-109 267h-8z" />
    <glyph glyph-name="ae" unicode="&#xe6;" horiz-adv-x="893" 
d="M828 171h9l-6 -171h-486v8l57 7v159h-235l-42 -60q-21 -31 -26 -44q-12 -29 5 -45.5t58 -16.5v-8h-192v8l66 9l366 518v1l-57 7v8h474l6 -171h-9l-2 12q-11 65 -52 104.5t-104 39.5h-106v-260h52q80 0 100 98l1 5h9v-221h-9l-1 6q-6 44 -31 70.5t-69 26.5h-52v-246h117
q65 0 107.5 40t50.5 107zM177 189h225v322z" />
    <glyph glyph-name="ccedilla" unicode="&#xe7;" horiz-adv-x="591" 
d="M367 -7h-3q-14 -20 -21 -34q55 -2 83.5 -22t28.5 -50q0 -29 -25 -48.5t-75 -19.5q-28 0 -50.5 7t-31.5 14l-9 7l-6 43h6q3 -6 8 -15.5t24.5 -25.5t43.5 -16q42 0 42 54q0 35 -16.5 46.5t-48.5 11.5q1 1 29 48q-155 6 -234 85.5t-79 196.5q0 121 84.5 202t249.5 81
q49 0 94 -9.5t65 -18.5l21 -10l7 -142h-9l-7 20q-7 19 -18 39.5t-31 46.5t-52 42.5t-70 16.5q-83 0 -126 -57t-43 -211q0 -80 12 -134t36 -82t52.5 -39.5t68.5 -11.5t75 19t55 45t31.5 47.5t13.5 32.5l4 16h9l-7 -135q-7 -4 -21.5 -11t-61.5 -18t-98 -11z" />
    <glyph glyph-name="egrave" unicode="&#xe8;" horiz-adv-x="573" 
d="M355 587h-12l-135 127v9h107zM518 171h9l-6 -171h-486v8l57 7v521l-57 7v8h474l6 -171h-9l-2 12q-11 65 -52 104.5t-104 39.5h-106v-260h52q80 0 100 98l1 5h9v-221h-9l-1 6q-6 44 -31 70.5t-69 26.5h-52v-246h117q65 0 107.5 40t50.5 107z" />
    <glyph glyph-name="eacute" unicode="&#xe9;" horiz-adv-x="573" 
d="M402 714l-135 -127h-12l40 136h107v-9zM518 171h9l-6 -171h-486v8l57 7v521l-57 7v8h474l6 -171h-9l-2 12q-11 65 -52 104.5t-104 39.5h-106v-260h52q80 0 100 98l1 5h9v-221h-9l-1 6q-6 44 -31 70.5t-69 26.5h-52v-246h117q65 0 107.5 40t50.5 107z" />
    <glyph glyph-name="ecircumflex" unicode="&#xea;" horiz-adv-x="573" 
d="M312 673l-122 -87h-12l100 146h67l100 -146h-12zM518 171h9l-6 -171h-486v8l57 7v521l-57 7v8h474l6 -171h-9l-2 12q-11 65 -52 104.5t-104 39.5h-106v-260h52q80 0 100 98l1 5h9v-221h-9l-1 6q-6 44 -31 70.5t-69 26.5h-52v-246h117q65 0 107.5 40t50.5 107z" />
    <glyph glyph-name="edieresis" unicode="&#xeb;" horiz-adv-x="573" 
d="M227 592q-23 0 -38 13t-15 37t15 37.5t38 13.5t38 -13.5t15 -37.5t-15 -37t-38 -13zM397 592q-23 0 -38 13t-15 37t15 37.5t38 13.5t38 -13.5t15 -37.5t-15 -37t-38 -13zM518 171h9l-6 -171h-486v8l57 7v521l-57 7v8h474l6 -171h-9l-2 12q-11 65 -52 104.5t-104 39.5
h-106v-260h52q80 0 100 98l1 5h9v-221h-9l-1 6q-6 44 -31 70.5t-69 26.5h-52v-246h117q65 0 107.5 40t50.5 107z" />
    <glyph glyph-name="igrave" unicode="&#xec;" horiz-adv-x="336" 
d="M210 587h-12l-135 127v9h107zM300 540l-57 -4v-521l57 -4v-11h-264v11l57 4v521l-57 4v11h264v-11z" />
    <glyph glyph-name="iacute" unicode="&#xed;" horiz-adv-x="336" 
d="M254 714l-135 -127h-12l40 136h107v-9zM300 540l-57 -4v-521l57 -4v-11h-264v11l57 4v521l-57 4v11h264v-11z" />
    <glyph glyph-name="icircumflex" unicode="&#xee;" horiz-adv-x="336" 
d="M167 673l-122 -87h-12l100 146h67l100 -146h-12zM300 551v-11l-57 -4v-521l57 -4v-11h-264v11l57 4v521l-57 4v11h264z" />
    <glyph glyph-name="idieresis" unicode="&#xef;" horiz-adv-x="336" 
d="M82 592q-23 0 -38 13t-15 37t15 37.5t38 13.5t38 -13.5t15 -37.5t-15 -37t-38 -13zM252 592q-23 0 -38 13t-15 37t15 37.5t38 13.5t38 -13.5t15 -37.5t-15 -37t-38 -13zM300 551v-11l-57 -4v-521l57 -4v-11h-264v11l57 4v521l-57 4v11h264z" />
    <glyph glyph-name="eth" unicode="&#xf0;" horiz-adv-x="663" 
d="M309 551q164 0 241.5 -76t77.5 -200q0 -123 -84.5 -199t-267.5 -76h-240v8l57 7v256h-48v15h48v250l-57 7v8h273zM276 15q45 0 76 10t57.5 37t40 80t13.5 133t-11 133.5t-33 80.5t-47.5 37t-62.5 10h-66v-250h112v-15h-112v-256h33z" />
    <glyph glyph-name="ntilde" unicode="&#xf1;" horiz-adv-x="624" 
d="M265 646q-16 0 -29.5 -8t-19.5 -16l-5 -7l-8 4q1 4 3 10t10 21t17.5 27t25.5 21.5t34 9.5q27 0 69 -30.5t62 -30.5q15 0 28 8.5t18 16.5l6 8l8 -5q-1 -4 -3 -9.5t-10 -21t-17.5 -27t-25.5 -21t-34 -9.5q-30 0 -68.5 29.5t-60.5 29.5zM596 551v-8q-27 0 -43 -23.5
t-16 -49.5v-477h-30l-396 475h-2v-387q0 -26 16 -49.5t43 -23.5v-8h-135v8q27 0 43 23.5t16 49.5v411l-34 48l-23 3v8h199l284 -345h2v264q0 26 -16 49.5t-43 23.5v8h135z" />
    <glyph glyph-name="ograve" unicode="&#xf2;" horiz-adv-x="691" 
d="M391 587h-12l-135 127v9h107zM348 558q143 0 226.5 -82.5t83.5 -200.5q0 -117 -83.5 -199.5t-226.5 -82.5q-145 0 -230 82.5t-85 199.5q0 118 85 200.5t230 82.5zM348 8q69 0 106.5 57.5t37.5 209.5q0 153 -37.5 210.5t-106.5 57.5q-34 0 -59.5 -11.5t-47 -39.5
t-32.5 -82.5t-11 -134.5q0 -79 11 -133.5t32.5 -82.5t47 -39.5t59.5 -11.5z" />
    <glyph glyph-name="oacute" unicode="&#xf3;" horiz-adv-x="691" 
d="M435 714l-135 -127h-12l40 136h107v-9zM348 558q143 0 226.5 -82.5t83.5 -200.5q0 -117 -83.5 -199.5t-226.5 -82.5q-145 0 -230 82.5t-85 199.5q0 118 85 200.5t230 82.5zM348 8q69 0 106.5 57.5t37.5 209.5q0 153 -37.5 210.5t-106.5 57.5q-34 0 -59.5 -11.5t-47 -39.5
t-32.5 -82.5t-11 -134.5q0 -79 11 -133.5t32.5 -82.5t47 -39.5t59.5 -11.5z" />
    <glyph glyph-name="ocircumflex" unicode="&#xf4;" horiz-adv-x="691" 
d="M348 673l-122 -87h-12l100 146h67l100 -146h-12zM348 558q143 0 226.5 -82.5t83.5 -200.5q0 -117 -83.5 -199.5t-226.5 -82.5q-145 0 -230 82.5t-85 199.5q0 118 85 200.5t230 82.5zM348 8q69 0 106.5 57.5t37.5 209.5q0 153 -37.5 210.5t-106.5 57.5q-34 0 -59.5 -11.5
t-47 -39.5t-32.5 -82.5t-11 -134.5q0 -79 11 -133.5t32.5 -82.5t47 -39.5t59.5 -11.5z" />
    <glyph glyph-name="otilde" unicode="&#xf5;" horiz-adv-x="691" 
d="M269 643q-16 0 -29.5 -7.5t-19.5 -15.5l-5 -8l-8 4q1 4 3 10t10 21t17.5 27t25.5 21.5t34 9.5q27 0 69 -30.5t62 -30.5q15 0 28 8t18 16l6 9l8 -5q-1 -4 -3 -9.5t-10 -21t-17.5 -27t-25.5 -21t-34 -9.5q-30 0 -68.5 29.5t-60.5 29.5zM348 558q143 0 226.5 -82.5
t83.5 -200.5q0 -117 -83.5 -199.5t-226.5 -82.5q-145 0 -230 82.5t-85 199.5q0 118 85 200.5t230 82.5zM348 8q69 0 106.5 57.5t37.5 209.5q0 153 -37.5 210.5t-106.5 57.5q-34 0 -59.5 -11.5t-47 -39.5t-32.5 -82.5t-11 -134.5q0 -79 11 -133.5t32.5 -82.5t47 -39.5
t59.5 -11.5z" />
    <glyph glyph-name="odieresis" unicode="&#xf6;" horiz-adv-x="691" 
d="M263 592q-23 0 -38 13t-15 37t15 37.5t38 13.5t38 -13.5t15 -37.5t-15 -37t-38 -13zM433 592q-23 0 -38 13t-15 37t15 37.5t38 13.5t38 -13.5t15 -37.5t-15 -37t-38 -13zM348 558q143 0 226.5 -82.5t83.5 -200.5q0 -117 -83.5 -199.5t-226.5 -82.5q-145 0 -230 82.5
t-85 199.5q0 118 85 200.5t230 82.5zM348 8q69 0 106.5 57.5t37.5 209.5q0 153 -37.5 210.5t-106.5 57.5q-34 0 -59.5 -11.5t-47 -39.5t-32.5 -82.5t-11 -134.5q0 -79 11 -133.5t32.5 -82.5t47 -39.5t59.5 -11.5z" />
    <glyph glyph-name="divide" unicode="&#xf7;" horiz-adv-x="406" 
d="M126 388q0 34 21.5 53.5t54.5 19.5t54.5 -19.5t21.5 -53.5t-21.5 -53t-54.5 -19t-54.5 19t-21.5 53zM37 267h332v-15h-332v15zM126 130q0 34 21.5 53.5t54.5 19.5t54.5 -19.5t21.5 -53.5t-21.5 -53t-54.5 -19t-54.5 19t-21.5 53z" />
    <glyph glyph-name="oslash" unicode="&#xf8;" horiz-adv-x="691" 
d="M471 538q89 -31 138 -102.5t49 -160.5q0 -117 -83.5 -199.5t-226.5 -82.5q-68 0 -125 20l-49 -103h-19l52 109q-83 34 -128.5 103t-45.5 153q0 118 85 200.5t230 82.5q59 0 107 -15l32 69h19zM198 275q0 -136 34 -201l206 434q-34 35 -90 35q-34 0 -59.5 -11.5t-47 -39.5
t-32.5 -82.5t-11 -134.5zM348 8q69 0 106.5 57.5t37.5 209.5q0 153 -42 218l-207 -437q35 -48 105 -48z" />
    <glyph glyph-name="ugrave" unicode="&#xf9;" horiz-adv-x="620" 
d="M393 586h-12l-135 127v9h107zM601 551v-8q-27 0 -43 -23.5t-16 -49.5v-276q0 -101 -58.5 -151t-138.5 -50q-145 0 -206.5 59t-61.5 154v330l-56 7v8h263v-8l-57 -7v-404q0 -55 29 -89.5t89 -34.5q70 0 125 45t55 141v276q0 26 -16 49.5t-43 23.5v8h135z" />
    <glyph glyph-name="uacute" unicode="&#xfa;" horiz-adv-x="620" 
d="M417 713l-135 -127h-12l40 136h107v-9zM601 551v-8q-27 0 -43 -23.5t-16 -49.5v-276q0 -101 -58.5 -151t-138.5 -50q-145 0 -206.5 59t-61.5 154v330l-56 7v8h263v-8l-57 -7v-404q0 -55 29 -89.5t89 -34.5q70 0 125 45t55 141v276q0 26 -16 49.5t-43 23.5v8h135z" />
    <glyph glyph-name="ucircumflex" unicode="&#xfb;" horiz-adv-x="620" 
d="M330 672l-122 -87h-12l100 146h67l100 -146h-12zM601 551v-8q-27 0 -43 -23.5t-16 -49.5v-276q0 -101 -58.5 -151t-138.5 -50q-145 0 -206.5 59t-61.5 154v330l-56 7v8h263v-8l-57 -7v-404q0 -55 29 -89.5t89 -34.5q70 0 125 45t55 141v276q0 26 -16 49.5t-43 23.5v8h135
z" />
    <glyph glyph-name="udieresis" unicode="&#xfc;" horiz-adv-x="620" 
d="M245 591q-23 0 -38 13t-15 37t15 37.5t38 13.5t38 -13.5t15 -37.5t-15 -37t-38 -13zM415 591q-23 0 -38 13t-15 37t15 37.5t38 13.5t38 -13.5t15 -37.5t-15 -37t-38 -13zM601 551v-8q-27 0 -43 -23.5t-16 -49.5v-276q0 -101 -58.5 -151t-138.5 -50q-145 0 -206.5 59
t-61.5 154v330l-56 7v8h263v-8l-57 -7v-404q0 -55 29 -89.5t89 -34.5q70 0 125 45t55 141v276q0 26 -16 49.5t-43 23.5v8h135z" />
    <glyph glyph-name="yacute" unicode="&#xfd;" horiz-adv-x="573" 
d="M414 714l-135 -127h-12l40 136h107v-9zM521 538l-156 -303v-222l57 -5v-8h-264v8l57 5v226l-175 299l-63 5v8h275v-8l-54 -5l156 -274h10l87 173q17 34 17 60q0 19 -15.5 32.5t-45.5 13.5v8h176v-8z" />
    <glyph glyph-name="thorn" unicode="&#xfe;" horiz-adv-x="566" 
d="M303 450q126 0 185.5 -48t59.5 -119t-59.5 -118.5t-185.5 -47.5h-60v-102l60 -4v-11h-270v11l60 4v521l-60 4v11h270v-11l-60 -4v-86h60zM303 132q80 0 80 151q0 152 -80 152h-60v-303h60z" />
    <glyph glyph-name="ydieresis" unicode="&#xff;" horiz-adv-x="573" 
d="M217 592q-23 0 -38 13t-15 37t15 37.5t38 13.5t38 -13.5t15 -37.5t-15 -37t-38 -13zM387 592q-23 0 -38 13t-15 37t15 37.5t38 13.5t38 -13.5t15 -37.5t-15 -37t-38 -13zM521 538l-156 -303v-222l57 -5v-8h-264v8l57 5v226l-175 299l-63 5v8h275v-8l-54 -5l156 -274h10
l87 173q17 34 17 60q0 19 -15.5 32.5t-45.5 13.5v8h176v-8z" />
    <glyph glyph-name="Amacron" unicode="&#x100;" horiz-adv-x="637" 
d="M446 746v-15h-260v15h260zM598 15l65 -7v-8h-279v8l59 7l-68 190h-254l-25 -71q-9 -27 -9 -52q0 -35 25.5 -54.5t68.5 -19.5v-8h-208v8l62 7l227 633h112zM127 220h242l-119 333h-4z" />
    <glyph glyph-name="amacron" unicode="&#x101;" horiz-adv-x="610" 
d="M438 649v-15h-260v15h260zM574 17l64 -9v-8h-277v8l54 9l-64 157h-234l-19 -48q-9 -22 -9 -44q0 -31 23 -52.5t63 -21.5v-8h-199v8l61 9l212 534h108zM123 189h222l-109 267h-8z" />
    <glyph glyph-name="Abreve" unicode="&#x102;" horiz-adv-x="637" 
d="M326 687q-55 0 -86 33t-30 102h13q0 -24 24.5 -43t78.5 -19t79.5 19t25.5 43h13q1 -64 -31.5 -99.5t-86.5 -35.5zM598 15l65 -7v-8h-279v8l59 7l-68 190h-254l-25 -71q-9 -27 -9 -52q0 -35 25.5 -54.5t68.5 -19.5v-8h-208v8l62 7l227 633h112zM127 220h242l-119 333h-4z
" />
    <glyph glyph-name="abreve" unicode="&#x103;" horiz-adv-x="610" 
d="M309 590q-48 0 -77.5 35t-28.5 110h13q0 -31 22 -51.5t71 -20.5t72 21t23 51h13q1 -70 -29.5 -107.5t-78.5 -37.5zM574 17l64 -9v-8h-277v8l54 9l-64 157h-234l-19 -48q-9 -22 -9 -44q0 -31 23 -52.5t63 -21.5v-8h-199v8l61 9l212 534h108zM123 189h222l-109 267h-8z" />
    <glyph glyph-name="Aogonek" unicode="&#x104;" horiz-adv-x="637" 
d="M560 0q-51 -28 -51 -88q0 -77 53 -77q12 0 24.5 5.5t18.5 10.5l6 5l6 -11q-26 -30 -82 -30q-95 0 -95 79q0 71 92 106h-148v8l59 7l-68 190h-254l-25 -71q-9 -27 -9 -52q0 -35 25.5 -54.5t68.5 -19.5v-8h-208v8l62 7l227 633h112l224 -633l65 -7v-8h-103zM127 220h242
l-119 333h-4z" />
    <glyph glyph-name="aogonek" unicode="&#x105;" horiz-adv-x="610" 
d="M574 17l64 -9v-8h-125q-53 -28 -53 -89q0 -77 53 -77q12 0 24.5 5t18.5 11l6 5l6 -11q-26 -30 -82 -30q-95 0 -95 79q0 71 94 107h-124v8l54 9l-64 157h-234l-19 -48q-9 -22 -9 -44q0 -31 23 -52.5t63 -21.5v-8h-199v8l61 9l212 534h108zM123 189h222l-109 267h-8z" />
    <glyph glyph-name="Cacute" unicode="&#x106;" horiz-adv-x="620" 
d="M307 684l60 126h117v-9l-155 -117h-22zM574 188h9l-7 -149q-8 -5 -22.5 -13t-64 -21t-103.5 -13q-173 0 -261.5 94t-88.5 238t88.5 238t261.5 94q53 0 102 -12t72 -24l23 -11v-154h-9l-8 26q-4 13 -10.5 29t-22 40.5t-34.5 43.5t-49 33t-64 14q-89 0 -137 -71t-48 -246
t48 -246t137 -71q34 0 64.5 14.5t49 33t34.5 44.5t22 40t12 29z" />
    <glyph glyph-name="cacute" unicode="&#x107;" horiz-adv-x="591" 
d="M295 587l40 136h107v-9l-135 -127h-12zM546 168h9l-7 -135q-7 -4 -21.5 -11t-61.5 -18t-98 -11q-165 0 -249.5 81t-84.5 201q0 121 84.5 202t249.5 81q49 0 94 -9.5t65 -18.5l21 -10l7 -142h-9l-7 20q-7 19 -18 39.5t-31 46.5t-52 42.5t-70 16.5q-83 0 -126 -57t-43 -211
q0 -80 12 -134t36 -82t52.5 -39.5t68.5 -11.5t75 19t55 45t31.5 47.5t13.5 32.5z" />
    <glyph glyph-name="Cdotaccent" unicode="&#x10a;" horiz-adv-x="620" 
d="M313 750q0 24 15 37.5t38 13.5t38 -13.5t15 -37.5t-15 -37t-38 -13t-38 13t-15 37zM574 188h9l-7 -149q-8 -5 -22.5 -13t-64 -21t-103.5 -13q-173 0 -261.5 94t-88.5 238t88.5 238t261.5 94q53 0 102 -12t72 -24l23 -11v-154h-9l-8 26q-4 13 -10.5 29t-22 40.5
t-34.5 43.5t-49 33t-64 14q-89 0 -137 -71t-48 -246t48 -246t137 -71q34 0 64.5 14.5t49 33t34.5 44.5t22 40t12 29z" />
    <glyph glyph-name="cdotaccent" unicode="&#x10b;" horiz-adv-x="591" 
d="M302 653q0 24 15 37.5t38 13.5t38 -13.5t15 -37.5t-15 -37t-38 -13t-38 13t-15 37zM546 168h9l-7 -135q-7 -4 -21.5 -11t-61.5 -18t-98 -11q-165 0 -249.5 81t-84.5 201q0 121 84.5 202t249.5 81q49 0 94 -9.5t65 -18.5l21 -10l7 -142h-9l-7 20q-7 19 -18 39.5t-31 46.5
t-52 42.5t-70 16.5q-83 0 -126 -57t-43 -211q0 -80 12 -134t36 -82t52.5 -39.5t68.5 -11.5t75 19t55 45t31.5 47.5t13.5 32.5z" />
    <glyph glyph-name="Ccaron" unicode="&#x10c;" horiz-adv-x="620" 
d="M489 824h12l-90 -141h-87l-90 141h12l122 -82zM574 188h9l-7 -149q-8 -5 -22.5 -13t-64 -21t-103.5 -13q-173 0 -261.5 94t-88.5 238t88.5 238t261.5 94q53 0 102 -12t72 -24l23 -11v-154h-9l-8 26q-4 13 -10.5 29t-22 40.5t-34.5 43.5t-49 33t-64 14q-89 0 -137 -71
t-48 -246t48 -246t137 -71q34 0 64.5 14.5t49 33t34.5 44.5t22 40t12 29z" />
    <glyph glyph-name="ccaron" unicode="&#x10d;" horiz-adv-x="591" 
d="M476 737h12l-100 -151h-67l-100 151h12l122 -92zM546 168h9l-7 -135q-7 -4 -21.5 -11t-61.5 -18t-98 -11q-165 0 -249.5 81t-84.5 201q0 121 84.5 202t249.5 81q49 0 94 -9.5t65 -18.5l21 -10l7 -142h-9l-7 20q-7 19 -18 39.5t-31 46.5t-52 42.5t-70 16.5q-83 0 -126 -57
t-43 -211q0 -80 12 -134t36 -82t52.5 -39.5t68.5 -11.5t75 19t55 45t31.5 47.5t13.5 32.5z" />
    <glyph glyph-name="Dcaron" unicode="&#x10e;" horiz-adv-x="696" 
d="M381 683h-87l-90 141h12l122 -82l121 82h12zM324 648q172 0 253.5 -88.5t81.5 -235.5t-89 -235.5t-281 -88.5h-251v8l60 7v618l-60 7v8h286zM289 15q100 0 152.5 67.5t52.5 241.5q0 90 -12 152t-36 95.5t-53 47.5t-69 14h-76v-618h41z" />
    <glyph glyph-name="dcaron" unicode="&#x10f;" horiz-adv-x="663" 
d="M351 586h-67l-100 151h12l122 -92l121 92h12zM309 551q164 0 241.5 -76t77.5 -200q0 -123 -84.5 -199t-267.5 -76h-240v8l57 7v521l-57 7v8h273zM276 15q45 0 76 10t57.5 37t40 80t13.5 133t-11 133.5t-33 80.5t-47.5 37t-62.5 10h-66v-521h33z" />
    <glyph glyph-name="Dcroat" unicode="&#x110;" horiz-adv-x="696" 
d="M324 648q172 0 253.5 -88.5t81.5 -235.5t-89 -235.5t-281 -88.5h-251v8l60 7v295h-89v15h89v308l-60 7v8h286zM289 15q100 0 152.5 67.5t52.5 241.5q0 90 -12 152t-36 95.5t-53 47.5t-69 14h-76v-308h133v-15h-133v-295h41z" />
    <glyph glyph-name="dcroat" unicode="&#x111;" horiz-adv-x="663" 
d="M309 551q164 0 241.5 -76t77.5 -200q0 -123 -84.5 -199t-267.5 -76h-240v8l57 7v256h-64v15h64v250l-57 7v8h273zM276 15q45 0 76 10t57.5 37t40 80t13.5 133t-11 133.5t-33 80.5t-47.5 37t-62.5 10h-66v-250h127v-15h-127v-256h33z" />
    <glyph glyph-name="Emacron" unicode="&#x112;" horiz-adv-x="601" 
d="M446 740v-15h-260v15h260zM557 189h9l-6 -189h-522v8l60 7v618l-60 7v8h498l6 -189h-9l-2 16q-9 71 -52.5 114.5t-109.5 43.5h-121v-305h68q45 0 74 31.5t33 78.5l1 11h9v-255h-9l-1 11q-4 47 -33 77.5t-74 30.5h-68v-298h145q66 0 109.5 43.5t52.5 114.5z" />
    <glyph glyph-name="emacron" unicode="&#x113;" horiz-adv-x="573" 
d="M441 649v-15h-260v15h260zM518 171h9l-6 -171h-486v8l57 7v521l-57 7v8h474l6 -171h-9l-2 12q-11 65 -52 104.5t-104 39.5h-106v-260h52q80 0 100 98l1 5h9v-221h-9l-1 6q-6 44 -31 70.5t-69 26.5h-52v-246h117q65 0 107.5 40t50.5 107z" />
    <glyph glyph-name="Edotaccent" unicode="&#x116;" horiz-adv-x="601" 
d="M315 700q-23 0 -38 13t-15 37t15 37.5t38 13.5t38 -13.5t15 -37.5t-15 -37t-38 -13zM557 189h9l-6 -189h-522v8l60 7v618l-60 7v8h498l6 -189h-9l-2 16q-9 71 -52.5 114.5t-109.5 43.5h-121v-305h68q45 0 74 31.5t33 78.5l1 11h9v-255h-9l-1 11q-4 47 -33 77.5t-74 30.5
h-68v-298h145q66 0 109.5 43.5t52.5 114.5z" />
    <glyph glyph-name="edotaccent" unicode="&#x117;" horiz-adv-x="573" 
d="M312 603q-23 0 -38 13t-15 37t15 37.5t38 13.5t38 -13.5t15 -37.5t-15 -37t-38 -13zM518 171h9l-6 -171h-486v8l57 7v521l-57 7v8h474l6 -171h-9l-2 12q-11 65 -52 104.5t-104 39.5h-106v-260h52q80 0 100 98l1 5h9v-221h-9l-1 6q-6 44 -31 70.5t-69 26.5h-52v-246h117
q65 0 107.5 40t50.5 107z" />
    <glyph glyph-name="Eogonek" unicode="&#x118;" horiz-adv-x="601" 
d="M580 -144l6 -11q-26 -30 -82 -30q-95 0 -95 79q0 71 92 106h-463v8l60 7v618l-60 7v8h498l6 -189h-9l-2 16q-9 71 -52.5 114.5t-109.5 43.5h-121v-305h68q45 0 74 31.5t33 78.5l1 11h9v-255h-9l-1 11q-4 47 -33 77.5t-74 30.5h-68v-298h145q66 0 109.5 43.5t52.5 114.5
l2 16h9l-6 -189h-31q-51 -28 -51 -88q0 -77 53 -77q12 0 24.5 5.5t18.5 10.5z" />
    <glyph glyph-name="eogonek" unicode="&#x119;" horiz-adv-x="573" 
d="M562 -145l6 -11q-26 -30 -82 -30q-95 0 -95 79q0 71 94 107h-450v8l57 7v521l-57 7v8h474l6 -171h-9l-2 12q-11 65 -52 104.5t-104 39.5h-106v-260h52q80 0 100 98l1 5h9v-221h-9l-1 6q-6 44 -31 70.5t-69 26.5h-52v-246h117q65 0 107.5 40t50.5 107l1 9h9l-6 -162h17
q-7 -1 -17 -5v-4h-8q-53 -28 -53 -89q0 -77 53 -77q12 0 24.5 5t18.5 11z" />
    <glyph glyph-name="Ecaron" unicode="&#x11a;" horiz-adv-x="601" 
d="M360 683h-87l-90 141h12l122 -82l121 82h12zM557 189h9l-6 -189h-522v8l60 7v618l-60 7v8h498l6 -189h-9l-2 16q-9 71 -52.5 114.5t-109.5 43.5h-121v-305h68q45 0 74 31.5t33 78.5l1 11h9v-255h-9l-1 11q-4 47 -33 77.5t-74 30.5h-68v-298h145q66 0 109.5 43.5
t52.5 114.5z" />
    <glyph glyph-name="ecaron" unicode="&#x11b;" horiz-adv-x="573" 
d="M345 586h-67l-100 151h12l122 -92l121 92h12zM518 171h9l-6 -171h-486v8l57 7v521l-57 7v8h474l6 -171h-9l-2 12q-11 65 -52 104.5t-104 39.5h-106v-260h52q80 0 100 98l1 5h9v-221h-9l-1 6q-6 44 -31 70.5t-69 26.5h-52v-246h117q65 0 107.5 40t50.5 107z" />
    <glyph glyph-name="Gbreve" unicode="&#x11e;" horiz-adv-x="652" 
d="M376 687q-55 0 -86 33t-30 102h13q0 -24 24.5 -43t78.5 -19t79.5 19t25.5 43h13q1 -64 -31.5 -99.5t-86.5 -35.5zM640 245v-8l-57 -7v-181v-84h-9l-11 67q-71 -40 -177 -40q-173 0 -261.5 94t-88.5 238t88.5 238t261.5 94q53 0 102 -12t72 -24l23 -11v-155h-9
q-17 87 -68.5 137t-119.5 50q-89 0 -137 -71t-48 -246t48 -246t137 -71q22 0 47 7v216l-58 6v9h265z" />
    <glyph glyph-name="gbreve" unicode="&#x11f;" horiz-adv-x="620" 
d="M352 589q-48 0 -77.5 35t-28.5 110h13q0 -31 22 -51.5t71 -20.5t72 21t23 51h13q1 -70 -29.5 -107.5t-78.5 -37.5zM609 220v-8l-54 -7v-163v-75h-9l-11 59q-72 -33 -168 -33q-165 0 -249.5 81t-84.5 201q0 121 84.5 202t249.5 81q50 0 95.5 -9.5t65.5 -18.5l20 -10
l7 -143h-9l-7 21q-7 21 -19 42.5t-32 46.5t-51.5 40.5t-69.5 15.5q-83 0 -126 -57t-43 -211q0 -80 12 -134t36 -82t52.5 -39.5t68.5 -11.5q13 0 37 4v193l-55 7v8h260z" />
    <glyph glyph-name="Gdotaccent" unicode="&#x120;" horiz-adv-x="652" 
d="M366 700q-23 0 -38 13t-15 37t15 37.5t38 13.5t38 -13.5t15 -37.5t-15 -37t-38 -13zM640 245v-8l-57 -7v-181v-84h-9l-11 67q-71 -40 -177 -40q-173 0 -261.5 94t-88.5 238t88.5 238t261.5 94q53 0 102 -12t72 -24l23 -11v-155h-9q-17 87 -68.5 137t-119.5 50
q-89 0 -137 -71t-48 -246t48 -246t137 -71q22 0 47 7v216l-58 6v9h265z" />
    <glyph glyph-name="gdotaccent" unicode="&#x121;" horiz-adv-x="620" 
d="M352 602q-23 0 -38 13t-15 37t15 37.5t38 13.5t38 -13.5t15 -37.5t-15 -37t-38 -13zM609 220v-8l-54 -7v-163v-75h-9l-11 59q-72 -33 -168 -33q-165 0 -249.5 81t-84.5 201q0 121 84.5 202t249.5 81q50 0 95.5 -9.5t65.5 -18.5l20 -10l7 -143h-9l-7 21q-7 21 -19 42.5
t-32 46.5t-51.5 40.5t-69.5 15.5q-83 0 -126 -57t-43 -211q0 -80 12 -134t36 -82t52.5 -39.5t68.5 -11.5q13 0 37 4v193l-55 7v8h260z" />
    <glyph glyph-name="Gcommaaccent" unicode="&#x122;" horiz-adv-x="652" 
d="M640 245v-8l-57 -7v-181v-84h-9l-11 67q-71 -40 -177 -40q-173 0 -261.5 94t-88.5 238t88.5 238t261.5 94q53 0 102 -12t72 -24l23 -11v-155h-9q-17 87 -68.5 137t-119.5 50q-89 0 -137 -71t-48 -246t48 -246t137 -71q22 0 47 7v216l-58 6v9h265zM333 -36q40 0 66.5 -26
t26.5 -83q0 -44 -14.5 -74.5t-37 -43.5t-39.5 -18t-32 -5v13q41 0 74.5 32t33.5 96q0 10 -2 26l-13 -2q-11 -46 -63 -46q-29 0 -47 17t-18 48t18 48.5t47 17.5z" />
    <glyph glyph-name="gcommaaccent" unicode="&#x123;" horiz-adv-x="620" 
d="M609 220v-8l-54 -7v-163v-75h-9l-11 59q-72 -33 -168 -33q-165 0 -249.5 81t-84.5 201q0 121 84.5 202t249.5 81q50 0 95.5 -9.5t65.5 -18.5l20 -10l7 -143h-9l-7 21q-7 21 -19 42.5t-32 46.5t-51.5 40.5t-69.5 15.5q-83 0 -126 -57t-43 -211q0 -80 12 -134t36 -82
t52.5 -39.5t68.5 -11.5q13 0 37 4v193l-55 7v8h260zM341 -36q40 0 66.5 -26t26.5 -83q0 -44 -14.5 -74.5t-37 -43.5t-39.5 -18t-32 -5v13q41 0 74.5 32t33.5 96q0 10 -2 26l-13 -2q-11 -46 -63 -46q-29 0 -47 17t-18 48t18 48.5t47 17.5z" />
    <glyph glyph-name="Hbar" unicode="&#x126;" horiz-adv-x="747" 
d="M709 640l-60 -7v-142h41v-15h-41v-460l60 -8v-8h-270v8l60 8v302h-251v-302l60 -8v-8h-270v8l60 8v460h-53v15h53v142l-60 7v8h270v-8l-60 -7v-142h251v142l-60 7v8h270v-8zM499 333v143h-251v-143h251z" />
    <glyph glyph-name="hbar" unicode="&#x127;" horiz-adv-x="712" 
d="M676 543l-57 -5v-129h51v-15h-51v-379l57 -7v-8h-264v8l57 7v255h-226v-255l57 -7v-8h-264v8l57 7v379h-68v15h68v129l-57 5v8h264v-8l-57 -5v-129h226v129l-57 5v8h264v-8zM469 283v111h-226v-111h226z" />
    <glyph glyph-name="Itilde" unicode="&#x128;" horiz-adv-x="346" 
d="M104 740q-16 0 -29.5 -8t-18.5 -16l-6 -7l-8 4q1 4 3 10t10 21t17.5 27t25.5 21.5t34 9.5q27 0 69 -30.5t62 -30.5q15 0 28 8.5t19 16.5l5 8l8 -5q-1 -4 -3 -9.5t-10 -21t-17.5 -27t-25.5 -21t-34 -9.5q-30 0 -68.5 29.5t-60.5 29.5zM308 648v-8l-60 -7v-618l60 -7v-8
h-270v8l60 7v618l-60 7v8h270z" />
    <glyph glyph-name="itilde" unicode="&#x129;" horiz-adv-x="336" 
d="M98 643q-16 0 -29.5 -7.5t-18.5 -15.5l-6 -8l-8 4q1 4 3 10t10 21t17.5 27t25.5 21.5t34 9.5q27 0 69 -30.5t62 -30.5q15 0 28 8t19 16l5 9l8 -5q-1 -4 -3 -9.5t-10 -21t-17.5 -27t-25.5 -21t-34 -9.5q-30 0 -68.5 29.5t-60.5 29.5zM300 551v-11l-57 -4v-521l57 -4v-11
h-264v11l57 4v521l-57 4v11h264z" />
    <glyph glyph-name="Imacron" unicode="&#x12a;" horiz-adv-x="346" 
d="M303 740v-15h-260v15h260zM308 640l-60 -7v-618l60 -7v-8h-270v8l60 7v618l-60 7v8h270v-8z" />
    <glyph glyph-name="imacron" unicode="&#x12b;" horiz-adv-x="336" 
d="M296 649v-15h-260v15h260zM300 540l-57 -4v-521l57 -4v-11h-264v11l57 4v521l-57 4v11h264v-11z" />
    <glyph glyph-name="Iogonek" unicode="&#x12e;" horiz-adv-x="346" 
d="M308 640l-60 -7v-618l60 -7v-8h-99q-51 -28 -51 -88q0 -77 53 -77q12 0 24.5 5.5t18.5 10.5l6 5l6 -11q-26 -30 -82 -30q-95 0 -95 79q0 71 92 106h-143v8l60 7v618l-60 7v8h270v-8z" />
    <glyph glyph-name="iogonek" unicode="&#x12f;" horiz-adv-x="336" 
d="M300 540l-57 -4v-521l57 -4v-11h-96q-53 -28 -53 -89q0 -77 53 -77q12 0 24.5 5t18.5 11l6 5l6 -11q-26 -30 -82 -30q-95 0 -95 79q0 71 94 107h-140v11l57 4v521l-57 4v11h264v-11z" />
    <glyph glyph-name="Idotaccent" unicode="&#x130;" horiz-adv-x="346" 
d="M172 700q-23 0 -38 13t-15 37t15 37.5t38 13.5t38 -13.5t15 -37.5t-15 -37t-38 -13zM308 640l-60 -7v-618l60 -7v-8h-270v8l60 7v618l-60 7v8h270v-8z" />
    <glyph glyph-name="dotlessi" unicode="&#x131;" horiz-adv-x="336" 
d="M300 540l-57 -4v-521l57 -4v-11h-264v11l57 4v521l-57 4v11h264v-11z" />
    <glyph glyph-name="IJ" unicode="&#x132;" horiz-adv-x="758" 
d="M308 648v-8l-60 -7v-618l60 -7v-8h-270v8l60 7v618l-60 7v8h270zM733 648v-8l-60 -7v-443q0 -88 -45 -143t-148 -55q-54 0 -90.5 29t-36.5 69q0 25 17 42.5t42 17.5t42 -17.5t17 -42.5t-17 -42t-42 -17h-3v-5q27 -20 65 -20q49 0 49 52v575l-60 7v8h270z" />
    <glyph glyph-name="ij" unicode="&#x133;" horiz-adv-x="737" 
d="M300 551v-8l-57 -7v-521l57 -7v-8h-264v8l57 7v521l-57 7v8h264zM714 551v-8l-57 -7v-369q0 -76 -43 -125t-142 -49q-56 0 -91 26.5t-36 61.5v1q0 23 16 40.5t39 17.5q24 0 41 -17.5t17 -40.5t-16.5 -39.5t-40.5 -17.5q27 -17 64 -17q21 0 31 10t10 24v494l-56 7v8h264z
" />
    <glyph glyph-name="Kcommaaccent" unicode="&#x136;" horiz-adv-x="662" 
d="M651 13l45 -5v-8h-209l-187 306h-52v-291l60 -7v-8h-270v8l60 7v618l-60 7v8h270v-8l-60 -7v-312h47l184 207q23 26 23 52q0 60 -98 60v8h252v-8l-60 -7l-195 -216zM350 -36q40 0 66.5 -26t26.5 -83q0 -44 -14.5 -74.5t-37 -43.5t-39.5 -18t-32 -5v13q41 0 74.5 32
t33.5 96q0 10 -2 26l-13 -2q-11 -46 -63 -46q-29 0 -47 17t-18 48t18 48.5t47 17.5z" />
    <glyph glyph-name="kcommaaccent" unicode="&#x137;" horiz-adv-x="631" 
d="M624 13l44 -5v-8h-212l-170 252h-43v-237l57 -7v-8h-264v8l57 7v521l-57 7v8h264v-8l-57 -7v-269h34l180 179q20 20 20 44q0 53 -91 53v8h242v-8l-57 -7l-183 -180zM335 -36q40 0 66.5 -26t26.5 -83q0 -44 -14.5 -74.5t-37 -43.5t-39.5 -18t-32 -5v13q41 0 74.5 32
t33.5 96q0 10 -2 26l-13 -2q-11 -46 -63 -46q-29 0 -47 17t-18 48t18 48.5t47 17.5z" />
    <glyph glyph-name="kgreenlandic" unicode="&#x138;" horiz-adv-x="631" 
d="M624 13l44 -5v-8h-212l-170 252h-43v-237l57 -7v-8h-264v8l57 7v521l-57 7v8h264v-8l-57 -7v-269h34l180 179q20 20 20 44q0 53 -91 53v8h242v-8l-57 -7l-183 -180z" />
    <glyph glyph-name="Lacute" unicode="&#x139;" horiz-adv-x="548" 
d="M287 801l-155 -117h-22l60 126h117v-9zM523 179h9l-6 -179h-488v8l60 7v618l-60 7v8h270v-8l-60 -7v-618h111q67 0 112 42.5t51 110.5z" />
    <glyph glyph-name="lacute" unicode="&#x13a;" horiz-adv-x="534" 
d="M262 714l-135 -127h-12l40 136h107v-9zM508 161h9l-6 -161h-475v8l57 7v521l-57 7v8h264v-8l-57 -7v-521h106q66 0 107.5 37t50.5 102z" />
    <glyph glyph-name="Lcommaaccent" unicode="&#x13b;" horiz-adv-x="548" 
d="M523 179h9l-6 -179h-488v8l60 7v618l-60 7v8h270v-8l-60 -7v-618h111q67 0 112 42.5t51 110.5zM264 -80q40 0 66.5 -26t26.5 -83q0 -44 -14.5 -74.5t-37 -43.5t-39.5 -18t-32 -5v13q41 0 74.5 32t33.5 96q0 10 -2 26l-13 -2q-11 -46 -63 -46q-29 0 -47 17t-18 48t18 48.5
t47 17.5z" />
    <glyph glyph-name="lcommaaccent" unicode="&#x13c;" horiz-adv-x="534" 
d="M508 161h9l-6 -161h-475v8l57 7v521l-57 7v8h264v-8l-57 -7v-521h106q66 0 107.5 37t50.5 102zM271 -36q40 0 66.5 -26t26.5 -83q0 -44 -14.5 -74.5t-37 -43.5t-39.5 -18t-32 -5v13q41 0 74.5 32t33.5 96q0 10 -2 26l-13 -2q-11 -46 -63 -46q-29 0 -47 17t-18 48t18 48.5
t47 17.5z" />
    <glyph glyph-name="Lcaron" unicode="&#x13d;" horiz-adv-x="548" 
d="M523 179h9l-6 -179h-488v8l60 7v618l-60 7v8h270v-8l-60 -7v-618h111q67 0 112 42.5t51 110.5zM453 639l-95 -147h-12v156h107v-9z" />
    <glyph glyph-name="lcaron" unicode="&#x13e;" horiz-adv-x="534" 
d="M477 587l-95 -147h-12v156h107v-9zM508 161h9l-6 -161h-475v8l57 7v521l-57 7v8h264v-8l-57 -7v-521h106q66 0 107.5 37t50.5 102z" />
    <glyph glyph-name="Ldot" unicode="&#x13f;" horiz-adv-x="548" 
d="M523 179h9l-6 -179h-488v8l60 7v618l-60 7v8h270v-8l-60 -7v-618h111q67 0 112 42.5t51 110.5zM373 213q-33 0 -54.5 19t-21.5 53t21.5 53.5t54.5 19.5t54.5 -19.5t21.5 -53.5t-21.5 -53t-54.5 -19z" />
    <glyph glyph-name="ldot" unicode="&#x140;" horiz-adv-x="534" 
d="M508 161h9l-6 -161h-475v8l57 7v521l-57 7v8h264v-8l-57 -7v-521h106q66 0 107.5 37t50.5 102zM378 184q-33 0 -54.5 19t-21.5 53t21.5 53.5t54.5 19.5t54.5 -19.5t21.5 -53.5t-21.5 -53t-54.5 -19z" />
    <glyph glyph-name="Lslash" unicode="&#x141;" horiz-adv-x="548" 
d="M523 179h9l-6 -179h-488v8l60 7v232l-89 -51l-8 12l97 56v369l-60 7v8h270v-8l-60 -7v-282l101 58l8 -12l-109 -63v-319h111q67 0 112 42.5t51 110.5z" />
    <glyph glyph-name="lslash" unicode="&#x142;" horiz-adv-x="534" 
d="M508 161h9l-6 -161h-475v8l57 7v214l-74 -43l-8 12l82 47v291l-57 7v8h264v-8l-57 -7v-204l116 67l8 -12l-124 -72v-300h106q66 0 107.5 37t50.5 102z" />
    <glyph glyph-name="Nacute" unicode="&#x143;" horiz-adv-x="662" 
d="M485 801l-155 -117h-22l60 126h117v-9zM477 648h157v-8q-28 0 -49 -20t-21 -51v-577h-37l-409 559h-2v-472q0 -31 21 -51t49 -20v-8h-157v8q27 0 48 20t22 51v501l-34 57l-26 3v8h188l318 -419h2v340q0 31 -21 51t-49 20v8z" />
    <glyph glyph-name="nacute" unicode="&#x144;" horiz-adv-x="624" 
d="M442 717l-135 -127h-12l40 136h107v-9zM596 551v-8q-27 0 -43 -23.5t-16 -49.5v-477h-30l-396 475h-2v-387q0 -26 16 -49.5t43 -23.5v-8h-135v8q27 0 43 23.5t16 49.5v411l-34 48l-23 3v8h199l284 -345h2v264q0 26 -16 49.5t-43 23.5v8h135z" />
    <glyph glyph-name="Ncommaaccent" unicode="&#x145;" horiz-adv-x="662" 
d="M477 648h157v-8q-28 0 -49 -20t-21 -51v-577h-37l-409 559h-2v-472q0 -31 21 -51t49 -20v-8h-157v8q27 0 48 20t22 51v501l-34 57l-26 3v8h188l318 -419h2v340q0 31 -21 51t-49 20v8zM312 -36q40 0 66.5 -26t26.5 -83q0 -44 -14.5 -74.5t-37 -43.5t-39.5 -18t-32 -5v13
q41 0 74.5 32t33.5 96q0 10 -2 26l-13 -2q-11 -46 -63 -46q-29 0 -47 17t-18 48t18 48.5t47 17.5z" />
    <glyph glyph-name="ncommaaccent" unicode="&#x146;" horiz-adv-x="624" 
d="M596 551v-8q-27 0 -43 -23.5t-16 -49.5v-477h-30l-396 475h-2v-387q0 -26 16 -49.5t43 -23.5v-8h-135v8q27 0 43 23.5t16 49.5v411l-34 48l-23 3v8h199l284 -345h2v264q0 26 -16 49.5t-43 23.5v8h135zM301 -36q40 0 66.5 -26t26.5 -83q0 -44 -14.5 -74.5t-37 -43.5
t-39.5 -18t-32 -5v13q41 0 74.5 32t33.5 96q0 10 -2 26l-13 -2q-11 -46 -63 -46q-29 0 -47 17t-18 48t18 48.5t47 17.5z" />
    <glyph glyph-name="Ncaron" unicode="&#x147;" horiz-adv-x="662" 
d="M388 683h-87l-90 141h12l122 -82l121 82h12zM477 648h157v-8q-28 0 -49 -20t-21 -51v-577h-37l-409 559h-2v-472q0 -31 21 -51t49 -20v-8h-157v8q27 0 48 20t22 51v501l-34 57l-26 3v8h188l318 -419h2v340q0 31 -21 51t-49 20v8z" />
    <glyph glyph-name="ncaron" unicode="&#x148;" horiz-adv-x="624" 
d="M367 589h-67l-100 151h12l122 -92l121 92h12zM596 551v-8q-27 0 -43 -23.5t-16 -49.5v-477h-30l-396 475h-2v-387q0 -26 16 -49.5t43 -23.5v-8h-135v8q27 0 43 23.5t16 49.5v411l-34 48l-23 3v8h199l284 -345h2v264q0 26 -16 49.5t-43 23.5v8h135z" />
    <glyph glyph-name="Eng" unicode="&#x14a;" horiz-adv-x="662" 
d="M477 648h157v-8q-28 0 -49 -20t-21 -51v-630q0 -88 -35 -143t-113 -55q-54 0 -90.5 29t-36.5 69q0 25 17 42.5t42 17.5t42 -17.5t17 -42.5t-17 -42t-42 -17h-3v-4q31 -21 71 -21q64 0 97.5 42.5t33.5 141.5v53h-20l-409 559h-2v-472q0 -31 21 -51t49 -20v-8h-157v8
q27 0 48 20t22 51v501l-34 57l-26 3v8h188l318 -419h2v340q0 31 -21 51t-49 20v8z" />
    <glyph glyph-name="eng" unicode="&#x14b;" horiz-adv-x="624" 
d="M596 551v-8q-27 0 -43 -23.5t-16 -49.5v-531q0 -88 -35 -143t-113 -55q-54 0 -90.5 29t-36.5 69q0 25 17 42.5t42 17.5t42 -17.5t17 -42.5t-17 -42t-42 -17h-3v-4q32 -21 71 -21q64 0 97.5 42.5t33.5 141.5v38l-409 491h-2v-387q0 -26 16 -49.5t43 -23.5v-8h-135v8
q27 0 43 23.5t16 49.5v411l-34 48l-23 3v8h199l284 -345h2v264q0 26 -16 49.5t-43 23.5v8h135z" />
    <glyph glyph-name="Omacron" unicode="&#x14c;" horiz-adv-x="724" 
d="M492 740v-15h-260v15h260zM362 656q150 0 238.5 -96t88.5 -236t-88 -236t-239 -96t-239 96t-88 236t88.5 236t238.5 96zM362 7q162 0 162 317t-162 317t-162 -317t162 -317z" />
    <glyph glyph-name="omacron" unicode="&#x14d;" horiz-adv-x="691" 
d="M477 649v-15h-260v15h260zM348 558q143 0 226.5 -82.5t83.5 -200.5q0 -117 -83.5 -199.5t-226.5 -82.5q-145 0 -230 82.5t-85 199.5q0 118 85 200.5t230 82.5zM348 8q69 0 106.5 57.5t37.5 209.5q0 153 -37.5 210.5t-106.5 57.5q-34 0 -59.5 -11.5t-47 -39.5t-32.5 -82.5
t-11 -134.5q0 -79 11 -133.5t32.5 -82.5t47 -39.5t59.5 -11.5z" />
    <glyph glyph-name="Ohungarumlaut" unicode="&#x150;" horiz-adv-x="724" 
d="M417 801l-155 -117h-22l60 126h117v-9zM411 684h-22l60 126h117v-9zM362 656q150 0 238.5 -96t88.5 -236t-88 -236t-239 -96t-239 96t-88 236t88.5 236t238.5 96zM362 7q162 0 162 317t-162 317t-162 -317t162 -317z" />
    <glyph glyph-name="ohungarumlaut" unicode="&#x151;" horiz-adv-x="691" 
d="M403 714l-135 -127h-12l40 136h107v-9zM572 714l-135 -127h-12l40 136h107v-9zM348 558q143 0 226.5 -82.5t83.5 -200.5q0 -117 -83.5 -199.5t-226.5 -82.5q-145 0 -230 82.5t-85 199.5q0 118 85 200.5t230 82.5zM348 8q69 0 106.5 57.5t37.5 209.5q0 153 -37.5 210.5
t-106.5 57.5q-34 0 -59.5 -11.5t-47 -39.5t-32.5 -82.5t-11 -134.5q0 -79 11 -133.5t32.5 -82.5t47 -39.5t59.5 -11.5z" />
    <glyph glyph-name="OE" unicode="&#x152;" horiz-adv-x="1052" 
d="M1008 189h9l-6 -189h-472v38q-76 -46 -177 -46q-151 0 -239 96t-88 236t88.5 236t238.5 96q101 0 177 -46v38h448l6 -189h-9l-2 16q-9 71 -52.5 114.5t-109.5 43.5h-131v-300h81q45 0 69 28t28 75l1 11h9v-243h-9l-1 11q-4 47 -28 75t-69 28h-81v-303h155
q66 0 109.5 43.5t52.5 114.5zM362 7q162 0 162 317t-162 317t-162 -317t162 -317z" />
    <glyph glyph-name="oe" unicode="&#x153;" horiz-adv-x="977" 
d="M933 171h9l-6 -171h-428v29q-69 -36 -160 -36q-145 0 -230 82.5t-85 199.5q0 118 85 200.5t230 82.5q91 0 160 -36v29h407l6 -171h-12l-1 12q-6 64 -48 104t-106 40h-96v-260h49q43 0 63 24.5t28 69.5l1 5h12v-213h-12l-1 6q-7 45 -27.5 69t-63.5 24h-49v-246h116
q65 0 107.5 40t50.5 107zM348 8q69 0 106.5 57.5t37.5 209.5q0 153 -37.5 210.5t-106.5 57.5q-34 0 -59.5 -11.5t-47 -39.5t-32.5 -82.5t-11 -134.5q0 -79 11 -133.5t32.5 -82.5t47 -39.5t59.5 -11.5z" />
    <glyph glyph-name="Racute" unicode="&#x154;" horiz-adv-x="665" 
d="M427 801l-155 -117h-22l60 126h117v-9zM653 117h9v-19q0 -49 -32 -77.5t-95 -28.5q-56 0 -89.5 32.5t-33.5 85.5v96q0 42 -22.5 68t-64.5 26h-77v-285l60 -6v-9h-270v8l60 7v618l-60 7v8h288q127 0 186.5 -48t59.5 -126q0 -73 -50.5 -119t-152.5 -46v-3q96 0 144 -39.5
t48 -109.5v-59q0 -62 39 -62q44 0 51 62zM248 315h78q38 0 59.5 35t21.5 124t-21.5 124t-59.5 35h-78v-318z" />
    <glyph glyph-name="racute" unicode="&#x155;" horiz-adv-x="629" 
d="M390 714l-135 -127h-12l40 136h107v-9zM618 99h9v-11q0 -43 -31.5 -69t-92.5 -26q-55 0 -88 30t-33 78v79q0 33 -21 53.5t-58 20.5h-60v-239l57 -7v-8h-264v8l57 7v521l-57 7v8h272q122 0 179.5 -41t57.5 -107q0 -61 -47.5 -100.5t-146.5 -39.5v-3q90 -1 135 -35.5
t45 -94.5v-42q0 -52 37 -52q44 0 49 52zM243 269h65q35 0 53.5 28t18.5 106t-18.5 105.5t-53.5 27.5h-65v-267z" />
    <glyph glyph-name="Rcommaaccent" unicode="&#x156;" horiz-adv-x="665" 
d="M653 117h9v-19q0 -49 -32 -77.5t-95 -28.5q-56 0 -89.5 32.5t-33.5 85.5v96q0 42 -22.5 68t-64.5 26h-77v-285l60 -6v-9h-270v8l60 7v618l-60 7v8h288q127 0 186.5 -48t59.5 -126q0 -73 -50.5 -119t-152.5 -46v-3q96 0 144 -39.5t48 -109.5v-59q0 -62 39 -62q44 0 51 62z
M248 315h78q38 0 59.5 35t21.5 124t-21.5 124t-59.5 35h-78v-318zM333 -36q40 0 66.5 -26t26.5 -83q0 -44 -14.5 -74.5t-37 -43.5t-39.5 -18t-32 -5v13q41 0 74.5 32t33.5 96q0 10 -2 26l-13 -2q-11 -46 -63 -46q-29 0 -47 17t-18 48t18 48.5t47 17.5z" />
    <glyph glyph-name="rcommaaccent" unicode="&#x157;" horiz-adv-x="629" 
d="M618 99h9v-11q0 -43 -31.5 -69t-92.5 -26q-55 0 -88 30t-33 78v79q0 33 -21 53.5t-58 20.5h-60v-239l57 -7v-8h-264v8l57 7v521l-57 7v8h272q122 0 179.5 -41t57.5 -107q0 -61 -47.5 -100.5t-146.5 -39.5v-3q90 -1 135 -35.5t45 -94.5v-42q0 -52 37 -52q44 0 49 52z
M243 269h65q35 0 53.5 28t18.5 106t-18.5 105.5t-53.5 27.5h-65v-267zM314 -36q40 0 66.5 -26t26.5 -83q0 -44 -14.5 -74.5t-37 -43.5t-39.5 -18t-32 -5v13q41 0 74.5 32t33.5 96q0 10 -2 26l-13 -2q-11 -46 -63 -46q-29 0 -47 17t-18 48t18 48.5t47 17.5z" />
    <glyph glyph-name="Rcaron" unicode="&#x158;" horiz-adv-x="665" 
d="M355 683h-87l-90 141h12l122 -82l121 82h12zM653 117h9v-19q0 -49 -32 -77.5t-95 -28.5q-56 0 -89.5 32.5t-33.5 85.5v96q0 42 -22.5 68t-64.5 26h-77v-285l60 -6v-9h-270v8l60 7v618l-60 7v8h288q127 0 186.5 -48t59.5 -126q0 -73 -50.5 -119t-152.5 -46v-3
q96 0 144 -39.5t48 -109.5v-59q0 -62 39 -62q44 0 51 62zM248 315h78q38 0 59.5 35t21.5 124t-21.5 124t-59.5 35h-78v-318z" />
    <glyph glyph-name="rcaron" unicode="&#x159;" horiz-adv-x="629" 
d="M336 586h-67l-100 151h12l122 -92l121 92h12zM618 99h9v-11q0 -43 -31.5 -69t-92.5 -26q-55 0 -88 30t-33 78v79q0 33 -21 53.5t-58 20.5h-60v-239l57 -7v-8h-264v8l57 7v521l-57 7v8h272q122 0 179.5 -41t57.5 -107q0 -61 -47.5 -100.5t-146.5 -39.5v-3q90 -1 135 -35.5
t45 -94.5v-42q0 -52 37 -52q44 0 49 52zM243 269h65q35 0 53.5 28t18.5 106t-18.5 105.5t-53.5 27.5h-65v-267z" />
    <glyph glyph-name="Sacute" unicode="&#x15a;" horiz-adv-x="529" 
d="M217 684l60 126h117v-9l-155 -117h-22zM278 656q48 0 92 -10t64 -20l21 -10l4 -151h-9l-4 21q-5 22 -14 43t-27 49t-50.5 45.5t-74.5 17.5q-108 0 -108 -87q0 -41 33 -76t80 -63t94 -57.5t80 -74t33 -98.5q0 -87 -65.5 -140t-168.5 -53q-49 0 -100.5 10.5t-78.5 21.5
l-27 11l-8 153h9l7 -25q56 -156 201 -156q107 0 107 100q0 46 -33 83t-80 64t-94 55t-80 69.5t-33 93.5q0 51 21 89t56 57.5t73 28.5t80 9z" />
    <glyph glyph-name="sacute" unicode="&#x15b;" horiz-adv-x="507" 
d="M204 587l40 136h107v-9l-135 -127h-12zM270 558q44 0 87 -8.5t58.5 -14.5t22.5 -9l4 -142h-9l-3 14q-8 28 -24 58t-52.5 58.5t-81.5 28.5q-100 0 -100 -66q0 -34 31 -64t75.5 -53.5t89 -49t75.5 -63t31 -83.5q0 -77 -62 -124t-160 -47q-47 0 -96.5 9.5t-75.5 18.5l-27 9
l-8 137h9l6 -20q18 -45 71.5 -92t120.5 -47q98 0 98 77q0 38 -31 68.5t-75.5 53t-89 46t-75.5 59.5t-31 82q0 47 20 81t54.5 51t70.5 24.5t77 7.5z" />
    <glyph glyph-name="Scedilla" unicode="&#x15e;" horiz-adv-x="529" 
d="M492 185q0 -84 -61.5 -136.5t-159.5 -56.5l-20 -33q55 -2 83.5 -22t28.5 -50q0 -29 -25 -48.5t-75 -19.5q-28 0 -50.5 7t-31.5 14l-9 7l-6 43h6q3 -6 8 -15.5t24.5 -25.5t43.5 -16q42 0 42 54q0 35 -16.5 46.5t-48.5 11.5q1 2 6 10t12 19.5t11 17.5q-48 0 -98.5 11
t-77.5 21l-26 11l-8 153h9l7 -25q56 -156 201 -156q107 0 107 100q0 46 -33 83t-80 64t-94 55t-80 69.5t-33 93.5q0 51 21 89t56 57.5t73 28.5t80 9q48 0 92 -10t64 -20l21 -10l4 -151h-9l-4 21q-5 22 -14 43t-27 49t-50.5 45.5t-74.5 17.5q-108 0 -108 -87q0 -41 33 -76
t80 -63t94 -57.5t80 -74t33 -98.5z" />
    <glyph glyph-name="scedilla" unicode="&#x15f;" horiz-adv-x="507" 
d="M474 164q0 -75 -58.5 -121.5t-152.5 -49.5q-14 -20 -21 -34q55 -2 83.5 -22t28.5 -50q0 -29 -25 -48.5t-75 -19.5q-28 0 -50.5 7t-31.5 14l-9 7l-6 43h6q3 -6 8 -15.5t24.5 -25.5t43.5 -16q42 0 42 54q0 35 -16.5 46.5t-48.5 11.5q1 1 29 48q-45 1 -93 10t-74 18l-25 9
l-8 137h9l6 -20q18 -45 71.5 -92t120.5 -47q98 0 98 77q0 38 -31 68.5t-75.5 53t-89 46t-75.5 59.5t-31 82q0 47 20 81t54.5 51t70.5 24.5t77 7.5q44 0 87 -8.5t58.5 -14.5t22.5 -9l4 -142h-9l-3 14q-8 28 -24 58t-52.5 58.5t-81.5 28.5q-100 0 -100 -66q0 -34 31 -64
t75.5 -53.5t89 -49t75.5 -63t31 -83.5z" />
    <glyph glyph-name="Scaron" unicode="&#x160;" horiz-adv-x="529" 
d="M399 824h12l-90 -141h-87l-90 141h12l122 -82zM278 656q48 0 92 -10t64 -20l21 -10l4 -151h-9l-4 21q-5 22 -14 43t-27 49t-50.5 45.5t-74.5 17.5q-108 0 -108 -87q0 -41 33 -76t80 -63t94 -57.5t80 -74t33 -98.5q0 -87 -65.5 -140t-168.5 -53q-49 0 -100.5 10.5
t-78.5 21.5l-27 11l-8 153h9l7 -25q56 -156 201 -156q107 0 107 100q0 46 -33 83t-80 64t-94 55t-80 69.5t-33 93.5q0 51 21 89t56 57.5t73 28.5t80 9z" />
    <glyph glyph-name="scaron" unicode="&#x161;" horiz-adv-x="507" 
d="M385 737h12l-100 -151h-67l-100 151h12l122 -92zM270 558q44 0 87 -8.5t58.5 -14.5t22.5 -9l4 -142h-9l-3 14q-8 28 -24 58t-52.5 58.5t-81.5 28.5q-100 0 -100 -66q0 -34 31 -64t75.5 -53.5t89 -49t75.5 -63t31 -83.5q0 -77 -62 -124t-160 -47q-47 0 -96.5 9.5
t-75.5 18.5l-27 9l-8 137h9l6 -20q18 -45 71.5 -92t120.5 -47q98 0 98 77q0 38 -31 68.5t-75.5 53t-89 46t-75.5 59.5t-31 82q0 47 20 81t54.5 51t70.5 24.5t77 7.5z" />
    <glyph glyph-name="uni0162" unicode="&#x162;" horiz-adv-x="622" 
d="M599 648l6 -189h-9l-2 16q-9 71 -52.5 114.5t-109.5 43.5h-46v-618l60 -7v-8h-126l-25 -41q55 -2 83.5 -22t28.5 -50q0 -29 -25 -48.5t-75 -19.5q-28 0 -50.5 7t-31.5 14l-9 7l-6 43h6q3 -6 8 -15.5t24.5 -25.5t43.5 -16q42 0 42 54q0 35 -16.5 46.5t-48.5 11.5
q9 12 33 55h-126v8l60 7v618h-46q-66 0 -109.5 -43.5t-52.5 -114.5l-2 -16h-9l6 189h576z" />
    <glyph glyph-name="uni0163" unicode="&#x163;" horiz-adv-x="575" 
d="M552 551l6 -171h-9l-2 12q-11 65 -52 104.5t-105 39.5h-28v-521l57 -7v-8h-123l-25 -41q55 -2 83.5 -22t28.5 -50q0 -29 -25 -48.5t-75 -19.5q-28 0 -50.5 7t-31.5 14l-9 7l-6 43h6q3 -6 8 -15.5t24.5 -25.5t43.5 -16q42 0 42 54q0 35 -16.5 46.5t-48.5 11.5q9 12 33 55
h-123v8l57 7v521h-28q-63 0 -104 -39.5t-52 -104.5l-2 -12h-9l6 171h529z" />
    <glyph glyph-name="Tcaron" unicode="&#x164;" horiz-adv-x="622" 
d="M355 683h-87l-90 141h12l122 -82l121 82h12zM599 648l6 -189h-9l-2 16q-9 71 -52.5 114.5t-109.5 43.5h-46v-618l60 -7v-8h-270v8l60 7v618h-46q-66 0 -109.5 -43.5t-52.5 -114.5l-2 -16h-9l6 189h576z" />
    <glyph glyph-name="tcaron" unicode="&#x165;" horiz-adv-x="575" 
d="M320 586h-67l-100 151h12l122 -92l121 92h12zM552 551l6 -171h-9l-2 12q-11 65 -52 104.5t-105 39.5h-28v-521l57 -7v-8h-264v8l57 7v521h-28q-63 0 -104 -39.5t-52 -104.5l-2 -12h-9l6 171h529z" />
    <glyph glyph-name="Tbar" unicode="&#x166;" horiz-adv-x="622" 
d="M599 648l6 -189h-9l-2 16q-9 71 -52.5 114.5t-109.5 43.5h-46v-299h92v-15h-92v-304l60 -7v-8h-270v8l60 7v304h-96v15h96v299h-46q-66 0 -109.5 -43.5t-52.5 -114.5l-2 -16h-9l6 189h576z" />
    <glyph glyph-name="tbar" unicode="&#x167;" horiz-adv-x="575" 
d="M552 551l6 -171h-9l-2 12q-11 65 -52 104.5t-105 39.5h-28v-268h79v-15h-79v-238l57 -7v-8h-264v8l57 7v238h-83v15h83v268h-28q-63 0 -104 -39.5t-52 -104.5l-2 -12h-9l6 171h529z" />
    <glyph glyph-name="Utilde" unicode="&#x168;" horiz-adv-x="651" 
d="M301 740q-16 0 -29.5 -8t-19.5 -16l-5 -7l-8 4q1 4 3 10t10 21t17.5 27t25.5 21.5t34 9.5q27 0 69 -30.5t62 -30.5q15 0 28 8.5t18 16.5l6 8l8 -5q-1 -4 -3 -9.5t-10 -21t-17.5 -27t-25.5 -21t-34 -9.5q-30 0 -68.5 29.5t-60.5 29.5zM639 648v-8q-28 0 -49 -20t-21 -51
v-341q0 -119 -62 -177.5t-147 -58.5q-279 0 -279 248v393l-59 7v8h269v-8l-60 -7v-465q0 -75 32 -118t97 -43q34 0 65.5 11t61 35t47.5 69t18 106v341q0 31 -21 51t-49 20v8h157z" />
    <glyph glyph-name="utilde" unicode="&#x169;" horiz-adv-x="620" 
d="M251 642q-16 0 -29.5 -8t-19.5 -16l-5 -7l-8 4q1 4 3 10t10 21t17.5 27t25.5 21.5t34 9.5q27 0 69 -30.5t62 -30.5q15 0 28 8.5t18 16.5l6 8l8 -5q-1 -4 -3 -9.5t-10 -21t-17.5 -27t-25.5 -21t-34 -9.5q-30 0 -68.5 29.5t-60.5 29.5zM601 551v-8q-27 0 -43 -23.5
t-16 -49.5v-276q0 -101 -58.5 -151t-138.5 -50q-145 0 -206.5 59t-61.5 154v330l-56 7v8h263v-8l-57 -7v-404q0 -55 29 -89.5t89 -34.5q70 0 125 45t55 141v276q0 26 -16 49.5t-43 23.5v8h135z" />
    <glyph glyph-name="Umacron" unicode="&#x16a;" horiz-adv-x="651" 
d="M512 740v-15h-260v15h260zM639 648v-8q-28 0 -49 -20t-21 -51v-341q0 -119 -62 -177.5t-147 -58.5q-279 0 -279 248v393l-59 7v8h269v-8l-60 -7v-465q0 -75 32 -118t97 -43q34 0 65.5 11t61 35t47.5 69t18 106v341q0 31 -21 51t-49 20v8h157z" />
    <glyph glyph-name="umacron" unicode="&#x16b;" horiz-adv-x="620" 
d="M459 648v-15h-260v15h260zM601 551v-8q-27 0 -43 -23.5t-16 -49.5v-276q0 -101 -58.5 -151t-138.5 -50q-145 0 -206.5 59t-61.5 154v330l-56 7v8h263v-8l-57 -7v-404q0 -55 29 -89.5t89 -34.5q70 0 125 45t55 141v276q0 26 -16 49.5t-43 23.5v8h135z" />
    <glyph glyph-name="Uring" unicode="&#x16e;" horiz-adv-x="651" 
d="M382 697q-50 0 -77.5 25t-27.5 68q0 42 27.5 67t77.5 25t77.5 -25t27.5 -67q0 -43 -27.5 -68t-77.5 -25zM382 868q-37 0 -37 -78q0 -79 37 -79t37 79q0 78 -37 78zM639 648v-8q-28 0 -49 -20t-21 -51v-341q0 -119 -62 -177.5t-147 -58.5q-279 0 -279 248v393l-59 7v8h269
v-8l-60 -7v-465q0 -75 32 -118t97 -43q34 0 65.5 11t61 35t47.5 69t18 106v341q0 31 -21 51t-49 20v8h157z" />
    <glyph glyph-name="uring" unicode="&#x16f;" horiz-adv-x="620" 
d="M330 599q-50 0 -77.5 25t-27.5 68q0 42 27.5 67t77.5 25t77.5 -25t27.5 -67q0 -43 -27.5 -68t-77.5 -25zM330 770q-37 0 -37 -78q0 -79 37 -79t37 79q0 78 -37 78zM601 551v-8q-27 0 -43 -23.5t-16 -49.5v-276q0 -101 -58.5 -151t-138.5 -50q-145 0 -206.5 59t-61.5 154
v330l-56 7v8h263v-8l-57 -7v-404q0 -55 29 -89.5t89 -34.5q70 0 125 45t55 141v276q0 26 -16 49.5t-43 23.5v8h135z" />
    <glyph glyph-name="Uhungarumlaut" unicode="&#x170;" horiz-adv-x="651" 
d="M437 801l-155 -117h-22l60 126h117v-9zM431 684h-22l60 126h117v-9zM639 648v-8q-28 0 -49 -20t-21 -51v-341q0 -119 -62 -177.5t-147 -58.5q-279 0 -279 248v393l-59 7v8h269v-8l-60 -7v-465q0 -75 32 -118t97 -43q34 0 65.5 11t61 35t47.5 69t18 106v341q0 31 -21 51
t-49 20v8h157z" />
    <glyph glyph-name="uhungarumlaut" unicode="&#x171;" horiz-adv-x="620" 
d="M385 713l-135 -127h-12l40 136h107v-9zM554 713l-135 -127h-12l40 136h107v-9zM601 551v-8q-27 0 -43 -23.5t-16 -49.5v-276q0 -101 -58.5 -151t-138.5 -50q-145 0 -206.5 59t-61.5 154v330l-56 7v8h263v-8l-57 -7v-404q0 -55 29 -89.5t89 -34.5q70 0 125 45t55 141v276
q0 26 -16 49.5t-43 23.5v8h135z" />
    <glyph glyph-name="Uogonek" unicode="&#x172;" horiz-adv-x="651" 
d="M639 648v-8q-28 0 -49 -20t-21 -51v-341q0 -97 -42.5 -154t-108.5 -74q-54 -28 -54 -90q0 -77 53 -77q12 0 24.5 5.5t18.5 10.5l6 5l6 -11q-26 -30 -82 -30q-95 0 -95 79q0 64 78 100h-13q-279 0 -279 248v393l-59 7v8h269v-8l-60 -7v-465q0 -75 32 -118t97 -43
q34 0 65.5 11t61 35t47.5 69t18 106v341q0 31 -21 51t-49 20v8h157z" />
    <glyph glyph-name="uogonek" unicode="&#x173;" horiz-adv-x="620" 
d="M601 551v-8q-27 0 -43 -23.5t-16 -49.5v-276q0 -80 -38 -128.5t-98 -64.5q-55 -26 -55 -90q0 -77 53 -77q12 0 24.5 5t18.5 11l6 5l6 -11q-26 -30 -82 -30q-95 0 -95 79q0 64 78 100h-15q-145 0 -206.5 59t-61.5 154v330l-56 7v8h263v-8l-57 -7v-404q0 -55 29 -89.5
t89 -34.5q70 0 125 45t55 141v276q0 26 -16 49.5t-43 23.5v8h135z" />
    <glyph glyph-name="Wcircumflex" unicode="&#x174;" horiz-adv-x="902" 
d="M457 760l-122 -77h-12l90 136h87l90 -136h-12zM-27 640v8h60l5 -15zM922 648v-8l-65 -7l-193 -633h-111l-89 324l-103 -324h-111l-217 648h219v-8l-59 -7l181 -539l82 259l-76 280l-64 7v8h279v-8l-60 -7l141 -536l124 416q8 25 8 52q0 36 -25.5 55.5t-68.5 19.5v8h208z
" />
    <glyph glyph-name="wcircumflex" unicode="&#x175;" horiz-adv-x="859" 
d="M439 671l-122 -87h-12l100 146h67l100 -146h-12zM879 551v-8l-61 -5l-184 -538h-110l-81 270l-95 -270h-111l-201 537l-62 6v8h273v-8l-55 -7l170 -443h3l70 201l-72 242l-62 7v8h273v-8l-57 -7l131 -443h1l110 330q7 22 7 44q0 33 -20.5 54.5t-65.5 21.5v8h199z" />
    <glyph glyph-name="Ycircumflex" unicode="&#x176;" horiz-adv-x="602" 
d="M343 760l-122 -77h-12l90 136h87l90 -136h-12zM612 648v-8l-65 -7v1l-168 -355v-264l60 -7v-8h-270v8l60 7v264l-187 354l-66 7v8h281v-8l-56 -7l166 -326h8l90 191q20 44 20 87q0 23 -17.5 39t-49.5 16v8h194z" />
    <glyph glyph-name="ycircumflex" unicode="&#x177;" horiz-adv-x="573" 
d="M302 673l-122 -87h-12l100 146h67l100 -146h-12zM521 538l-156 -303v-222l57 -5v-8h-264v8l57 5v226l-175 299l-63 5v8h275v-8l-54 -5l156 -274h10l87 173q17 34 17 60q0 19 -15.5 32.5t-45.5 13.5v8h176v-8z" />
    <glyph glyph-name="Ydieresis" unicode="&#x178;" horiz-adv-x="602" 
d="M258 689q-23 0 -38 13t-15 37t15 37.5t38 13.5t38 -13.5t15 -37.5t-15 -37t-38 -13zM428 689q-23 0 -38 13t-15 37t15 37.5t38 13.5t38 -13.5t15 -37.5t-15 -37t-38 -13zM612 648v-8l-65 -7v1l-168 -355v-264l60 -7v-8h-270v8l60 7v264l-187 354l-66 7v8h281v-8l-56 -7
l166 -326h8l90 191q20 44 20 87q0 23 -17.5 39t-49.5 16v8h194z" />
    <glyph glyph-name="Zacute" unicode="&#x179;" horiz-adv-x="569" 
d="M404 801l-155 -117h-22l60 126h117v-9zM534 189h9l-6 -189h-504v10l336 623h-147q-67 0 -116 -44.5t-58 -113.5l-2 -16h-9l6 189h488v-10l-332 -623h161q67 0 115 44.5t57 113.5z" />
    <glyph glyph-name="zacute" unicode="&#x17a;" horiz-adv-x="546" 
d="M365 714l-135 -127h-12l40 136h107v-9zM501 171h9l-6 -171h-466v9l306 529h-134q-65 0 -108.5 -41t-48.5 -105l-1 -12h-9l6 171h457v-9l-303 -529h140q63 0 104.5 40.5t51.5 104.5z" />
    <glyph glyph-name="Zdotaccent" unicode="&#x17b;" horiz-adv-x="569" 
d="M286 700q-23 0 -38 13t-15 37t15 37.5t38 13.5t38 -13.5t15 -37.5t-15 -37t-38 -13zM534 189h9l-6 -189h-504v10l336 623h-147q-67 0 -116 -44.5t-58 -113.5l-2 -16h-9l6 189h488v-10l-332 -623h161q67 0 115 44.5t57 113.5z" />
    <glyph glyph-name="zdotaccent" unicode="&#x17c;" horiz-adv-x="546" 
d="M278 603q-23 0 -38 13t-15 37t15 37.5t38 13.5t38 -13.5t15 -37.5t-15 -37t-38 -13zM501 171h9l-6 -171h-466v9l306 529h-134q-65 0 -108.5 -41t-48.5 -105l-1 -12h-9l6 171h457v-9l-303 -529h140q63 0 104.5 40.5t51.5 104.5z" />
    <glyph glyph-name="Zcaron" unicode="&#x17d;" horiz-adv-x="569" 
d="M331 683h-87l-90 141h12l122 -82l121 82h12zM534 189h9l-6 -189h-504v10l336 623h-147q-67 0 -116 -44.5t-58 -113.5l-2 -16h-9l6 189h488v-10l-332 -623h161q67 0 115 44.5t57 113.5z" />
    <glyph glyph-name="zcaron" unicode="&#x17e;" horiz-adv-x="546" 
d="M311 586h-67l-100 151h12l122 -92l121 92h12zM501 171h9l-6 -171h-466v9l306 529h-134q-65 0 -108.5 -41t-48.5 -105l-1 -12h-9l6 171h457v-9l-303 -529h140q63 0 104.5 40.5t51.5 104.5z" />
    <glyph glyph-name="uni01EA" unicode="&#x1ea;" horiz-adv-x="724" 
d="M415 -4q-63 -26 -63 -94q0 -77 53 -77q12 0 24.5 5.5t18.5 10.5l6 5l6 -11q-26 -30 -82 -30q-95 0 -95 79q0 75 98 108h-19q-151 0 -239 96t-88 236t88.5 236t238.5 96t238.5 -96t88.5 -236q0 -127 -73.5 -219t-200.5 -109zM200 324q0 -317 162 -317t162 317t-162 317
t-162 -317z" />
    <glyph glyph-name="uni01EB" unicode="&#x1eb;" horiz-adv-x="691" 
d="M390 -5q-51 -28 -51 -88q0 -77 53 -77q12 0 24.5 5t18.5 11l6 5l6 -11q-26 -30 -82 -30q-95 0 -95 79q0 69 87 104h-9q-145 0 -230 82.5t-85 199.5q0 118 85 200.5t230 82.5q143 0 226.5 -82.5t83.5 -200.5q0 -108 -71.5 -187.5t-196.5 -92.5zM198 275q0 -79 11 -133.5
t32.5 -82.5t47 -39.5t59.5 -11.5q69 0 106.5 57.5t37.5 209.5q0 153 -37.5 210.5t-106.5 57.5q-34 0 -59.5 -11.5t-47 -39.5t-32.5 -82.5t-11 -134.5z" />
    <glyph glyph-name="AEacute" unicode="&#x1fc;" horiz-adv-x="930" 
d="M751 801l-155 -117h-22l60 126h117v-9zM876 189h9l-6 -189h-522v8l60 7v190h-244l-42 -71q-22 -36 -27 -52q-13 -35 5 -53t61 -18l-1 -11h-197v11l66 4l373 619l-54 6v8h498l6 -189h-9l-2 16q-9 71 -52.5 114.5t-109.5 43.5h-121v-305h68q45 0 74 31.5t33 78.5l1 11h9
v-255h-9l-1 11q-4 47 -33 77.5t-74 30.5h-68v-298h145q66 0 109.5 43.5t52.5 114.5zM182 220h235v393z" />
    <glyph glyph-name="aeacute" unicode="&#x1fd;" horiz-adv-x="893" 
d="M712 714l-135 -127h-12l40 136h107v-9zM828 171h9l-6 -171h-486v8l57 7v159h-235l-42 -60q-21 -31 -26 -44q-12 -29 5 -45.5t58 -16.5v-8h-192v8l66 9l366 518v1l-57 7v8h474l6 -171h-9l-2 12q-11 65 -52 104.5t-104 39.5h-106v-260h52q80 0 100 98l1 5h9v-221h-9l-1 6
q-6 44 -31 70.5t-69 26.5h-52v-246h117q65 0 107.5 40t50.5 107zM177 189h225v322z" />
    <glyph glyph-name="Oslashacute" unicode="&#x1fe;" horiz-adv-x="725" 
d="M482 801l-155 -117h-22l60 126h117v-9zM537 612q73 -43 113 -119.5t40 -168.5q0 -140 -87.5 -236t-237.5 -96q-92 0 -165 38l-34 -59l-13 7l34 59q-73 44 -112.5 120t-39.5 167q0 140 88.5 236t241.5 96q89 0 159 -36l26 44l13 -7zM200 324q0 -135 29 -214l259 448
q-39 83 -123 83q-78 0 -121.5 -71.5t-43.5 -245.5zM365 7q75 0 117.5 71.5t42.5 245.5q0 139 -29 216l-259 -447q39 -86 128 -86z" />
    <glyph glyph-name="oslashacute" unicode="&#x1ff;" horiz-adv-x="691" 
d="M435 714l-135 -127h-12l40 136h107v-9zM471 538q89 -31 138 -102.5t49 -160.5q0 -117 -83.5 -199.5t-226.5 -82.5q-68 0 -125 20l-49 -103h-19l52 109q-83 34 -128.5 103t-45.5 153q0 118 85 200.5t230 82.5q59 0 107 -15l32 69h19zM198 275q0 -136 34 -201l206 434
q-34 35 -90 35q-34 0 -59.5 -11.5t-47 -39.5t-32.5 -82.5t-11 -134.5zM348 8q69 0 106.5 57.5t37.5 209.5q0 153 -42 218l-207 -437q35 -48 105 -48z" />
    <glyph glyph-name="Scommaaccent" unicode="&#x218;" horiz-adv-x="529" 
d="M172 554q0 -41 33 -76t80 -63t94 -57.5t80 -74t33 -98.5q0 -87 -65.5 -140t-168.5 -53q-49 0 -100.5 10.5t-78.5 21.5l-27 11l-8 153h9l7 -25q56 -156 201 -156q107 0 107 100q0 46 -33 83t-80 64t-94 55t-80 69.5t-33 93.5q0 51 21 89t56 57.5t73 28.5t80 9q48 0 92 -10
t64 -20l21 -10l4 -151h-9l-4 21q-5 22 -14 43t-27 49t-50.5 45.5t-74.5 17.5q-108 0 -108 -87zM248 -80q40 0 66.5 -26t26.5 -83q0 -44 -14.5 -74.5t-37 -43.5t-39.5 -18t-32 -5v13q41 0 74.5 32t33.5 96q0 10 -2 26l-13 -2q-11 -46 -63 -46q-29 0 -47 17t-18 48t18 48.5
t47 17.5z" />
    <glyph glyph-name="scommaaccent" unicode="&#x219;" horiz-adv-x="507" 
d="M172 477q0 -34 31 -64t75.5 -53.5t89 -49t75.5 -63t31 -83.5q0 -77 -62 -124t-160 -47q-47 0 -96.5 9.5t-75.5 18.5l-27 9l-8 137h9l6 -20q18 -45 71.5 -92t120.5 -47q98 0 98 77q0 38 -31 68.5t-75.5 53t-89 46t-75.5 59.5t-31 82q0 47 20 81t54.5 51t70.5 24.5t77 7.5
q44 0 87 -8.5t58.5 -14.5t22.5 -9l4 -142h-9l-3 14q-8 28 -24 58t-52.5 58.5t-81.5 28.5q-100 0 -100 -66zM244 -36q40 0 66.5 -26t26.5 -83q0 -44 -14.5 -74.5t-37 -43.5t-39.5 -18t-32 -5v13q41 0 74.5 32t33.5 96q0 10 -2 26l-13 -2q-11 -46 -63 -46q-29 0 -47 17t-18 48
t18 48.5t47 17.5z" />
    <glyph glyph-name="uni021A" unicode="&#x21a;" horiz-adv-x="622" 
d="M599 648l6 -189h-9l-2 16q-9 71 -52.5 114.5t-109.5 43.5h-46v-618l60 -7v-8h-270v8l60 7v618h-46q-66 0 -109.5 -43.5t-52.5 -114.5l-2 -16h-9l6 189h576zM307 -33q40 0 66.5 -26t26.5 -83q0 -44 -14.5 -74.5t-37 -43.5t-39.5 -18t-32 -5v13q41 0 74.5 32t33.5 96
q0 10 -2 26l-13 -2q-11 -46 -63 -46q-29 0 -47 17t-18 48t18 48.5t47 17.5z" />
    <glyph glyph-name="uni021B" unicode="&#x21b;" horiz-adv-x="575" 
d="M552 551l6 -171h-9l-2 12q-11 65 -52 104.5t-105 39.5h-28v-521l57 -7v-8h-264v8l57 7v521h-28q-63 0 -104 -39.5t-52 -104.5l-2 -12h-9l6 171h529zM273 -36q40 0 66.5 -26t26.5 -83q0 -44 -14.5 -74.5t-37 -43.5t-39.5 -18t-32 -5v13q41 0 74.5 32t33.5 96q0 10 -2 26
l-13 -2q-11 -46 -63 -46q-29 0 -47 17t-18 48t18 48.5t47 17.5z" />
    <glyph glyph-name="uni0237" unicode="&#x237;" horiz-adv-x="396" 
d="M373 551v-11l-57 -4v-369q0 -76 -43 -125t-142 -49q-53 0 -87 26.5t-35 61.5v1q0 23 16.5 40.5t40.5 17.5t41 -17.5t17 -40.5t-17 -40t-41 -17h-3v-1q26 -16 61 -16q21 0 31 10t10 24v494l-56 4v11h264z" />
    <glyph glyph-name="circumflex" unicode="&#x2c6;" 
d="M286 460l-121 87l-122 -87h-12l100 146h67l100 -146h-12z" />
    <glyph glyph-name="caron" unicode="&#x2c7;" 
d="M286 611h12l-100 -151h-67l-100 151h12l122 -92z" />
    <glyph glyph-name="breve" unicode="&#x2d8;" 
d="M245 616q1 -70 -29.5 -107.5t-78.5 -37.5t-77.5 35t-28.5 110h13q0 -31 22 -51.5t71 -20.5t72 21t23 51h13z" />
    <glyph glyph-name="dotaccent" unicode="&#x2d9;" 
d="M30 503q0 24 15 37.5t38 13.5t38 -13.5t15 -37.5t-15 -37t-38 -13t-38 13t-15 37z" />
    <glyph glyph-name="ring" unicode="&#x2da;" 
d="M145 481q-50 0 -77.5 25t-27.5 68q0 42 27.5 67t77.5 25t77.5 -25t27.5 -67q0 -43 -27.5 -68t-77.5 -25zM145 495q37 0 37 79q0 78 -37 78t-37 -78q0 -79 37 -79z" />
    <glyph glyph-name="ogonek" unicode="&#x2db;" 
d="M207 -159q-26 -30 -82 -30q-95 0 -95 79q0 26 13 47.5t31 33.5t36.5 20.5t31.5 11.5l13 3h22q-3 -1 -8.5 -2t-19 -8t-23.5 -17t-18.5 -28.5t-8.5 -42.5q0 -77 53 -77q12 0 24.5 5.5t18.5 10.5l6 5z" />
    <glyph glyph-name="tilde" unicode="&#x2dc;" 
d="M30 485q1 4 3 10t10 21t17.5 27t25.5 21.5t34 9.5q27 0 69 -30.5t62 -30.5q15 0 28 8.5t19 16.5l5 8l8 -5q-1 -4 -3 -9.5t-10 -21t-17.5 -27t-25.5 -21t-34 -9.5q-30 0 -68.5 29.5t-60.5 29.5q-16 0 -29.5 -8t-18.5 -16l-6 -7z" />
    <glyph glyph-name="hungarumlaut" unicode="&#x2dd;" 
d="M50 460l40 136h107v-9l-135 -127h-12zM219 460l40 136h107v-9l-135 -127h-12z" />
    <glyph glyph-name="uni0326" unicode="&#x326;" horiz-adv-x="0" 
d="M-123 -51q40 0 66.5 -26t26.5 -83q0 -44 -14.5 -74.5t-37 -43.5t-39.5 -18t-32 -5v13q41 0 74.5 32t33.5 96q0 10 -2 26l-13 -2q-11 -46 -63 -46q-29 0 -47 17t-18 48t18 48.5t47 17.5z" />
    <glyph glyph-name="Wgrave" unicode="&#x1e80;" horiz-adv-x="902" 
d="M518 684h-22l-155 117v9h117zM-27 640v8h60l5 -15zM922 648v-8l-65 -7l-193 -633h-111l-89 324l-103 -324h-111l-217 648h219v-8l-59 -7l181 -539l82 259l-76 280l-64 7v8h279v-8l-60 -7l141 -536l124 416q8 25 8 52q0 36 -25.5 55.5t-68.5 19.5v8h208z" />
    <glyph glyph-name="wgrave" unicode="&#x1e81;" horiz-adv-x="859" 
d="M482 585h-12l-135 127v9h107zM879 551v-8l-61 -5l-184 -538h-110l-81 270l-95 -270h-111l-201 537l-62 6v8h273v-8l-55 -7l170 -443h3l70 201l-72 242l-62 7v8h273v-8l-57 -7l131 -443h1l110 330q7 22 7 44q0 33 -20.5 54.5t-65.5 21.5v8h199z" />
    <glyph glyph-name="Wacute" unicode="&#x1e82;" horiz-adv-x="902" 
d="M574 801l-155 -117h-22l60 126h117v-9zM-27 640v8h60l5 -15zM922 648v-8l-65 -7l-193 -633h-111l-89 324l-103 -324h-111l-217 648h219v-8l-59 -7l181 -539l82 259l-76 280l-64 7v8h279v-8l-60 -7l141 -536l124 416q8 25 8 52q0 36 -25.5 55.5t-68.5 19.5v8h208z" />
    <glyph glyph-name="wacute" unicode="&#x1e83;" horiz-adv-x="859" 
d="M526 712l-135 -127h-12l40 136h107v-9zM879 551v-8l-61 -5l-184 -538h-110l-81 270l-95 -270h-111l-201 537l-62 6v8h273v-8l-55 -7l170 -443h3l70 201l-72 242l-62 7v8h273v-8l-57 -7l131 -443h1l110 330q7 22 7 44q0 33 -20.5 54.5t-65.5 21.5v8h199z" />
    <glyph glyph-name="Wdieresis" unicode="&#x1e84;" horiz-adv-x="902" 
d="M372 689q-23 0 -38 13t-15 37t15 37.5t38 13.5t38 -13.5t15 -37.5t-15 -37t-38 -13zM542 689q-23 0 -38 13t-15 37t15 37.5t38 13.5t38 -13.5t15 -37.5t-15 -37t-38 -13zM-27 640v8h60l5 -15zM922 648v-8l-65 -7l-193 -633h-111l-89 324l-103 -324h-111l-217 648h219v-8
l-59 -7l181 -539l82 259l-76 280l-64 7v8h279v-8l-60 -7l141 -536l124 416q8 25 8 52q0 36 -25.5 55.5t-68.5 19.5v8h208z" />
    <glyph glyph-name="wdieresis" unicode="&#x1e85;" horiz-adv-x="859" 
d="M354 590q-23 0 -38 13t-15 37t15 37.5t38 13.5t38 -13.5t15 -37.5t-15 -37t-38 -13zM524 590q-23 0 -38 13t-15 37t15 37.5t38 13.5t38 -13.5t15 -37.5t-15 -37t-38 -13zM879 551v-8l-61 -5l-184 -538h-110l-81 270l-95 -270h-111l-201 537l-62 6v8h273v-8l-55 -7
l170 -443h3l70 201l-72 242l-62 7v8h273v-8l-57 -7l131 -443h1l110 330q7 22 7 44q0 33 -20.5 54.5t-65.5 21.5v8h199z" />
    <glyph glyph-name="Ygrave" unicode="&#x1ef2;" horiz-adv-x="602" 
d="M368 684h-22l-155 117v9h117zM612 648v-8l-65 -7v1l-168 -355v-264l60 -7v-8h-270v8l60 7v264l-187 354l-66 7v8h281v-8l-56 -7l166 -326h8l90 191q20 44 20 87q0 23 -17.5 39t-49.5 16v8h194z" />
    <glyph glyph-name="ygrave" unicode="&#x1ef3;" horiz-adv-x="573" 
d="M345 587h-12l-135 127v9h107zM521 538l-156 -303v-222l57 -5v-8h-264v8l57 5v226l-175 299l-63 5v8h275v-8l-54 -5l156 -274h10l87 173q17 34 17 60q0 19 -15.5 32.5t-45.5 13.5v8h176v-8z" />
    <glyph glyph-name="uni1EF8" unicode="&#x1ef8;" horiz-adv-x="602" 
d="M253 740q-16 0 -29.5 -8t-19.5 -16l-5 -7l-8 4q1 4 3 10t10 21t17.5 27t25.5 21.5t34 9.5q27 0 69 -30.5t62 -30.5q15 0 28 8.5t18 16.5l6 8l8 -5q-1 -4 -3 -9.5t-10 -21t-17.5 -27t-25.5 -21t-34 -9.5q-30 0 -68.5 29.5t-60.5 29.5zM612 648v-8l-65 -7v1l-168 -355v-264
l60 -7v-8h-270v8l60 7v264l-187 354l-66 7v8h281v-8l-56 -7l166 -326h8l90 191q20 44 20 87q0 23 -17.5 39t-49.5 16v8h194z" />
    <glyph glyph-name="uni1EF9" unicode="&#x1ef9;" horiz-adv-x="573" 
d="M223 643q-16 0 -29.5 -7.5t-19.5 -15.5l-5 -8l-8 4q1 4 3 10t10 21t17.5 27t25.5 21.5t34 9.5q27 0 69 -30.5t62 -30.5q15 0 28 8t18 16l6 9l8 -5q-1 -4 -3 -9.5t-10 -21t-17.5 -27t-25.5 -21t-34 -9.5q-30 0 -68.5 29.5t-60.5 29.5zM521 538l-156 -303v-222l57 -5v-8
h-264v8l57 5v226l-175 299l-63 5v8h275v-8l-54 -5l156 -274h10l87 173q17 34 17 60q0 19 -15.5 32.5t-45.5 13.5v8h176v-8z" />
    <glyph glyph-name="endash" unicode="&#x2013;" horiz-adv-x="554" 
d="M50 267h454v-15h-454v15z" />
    <glyph glyph-name="emdash" unicode="&#x2014;" horiz-adv-x="807" 
d="M50 267h707v-15h-707v15z" />
    <glyph glyph-name="quoteleft" unicode="&#x2018;" horiz-adv-x="252" 
d="M143 526q33 0 54.5 -19t21.5 -53t-21.5 -53.5t-54.5 -19.5q-44 0 -73.5 29t-29.5 95q0 41 11 72t25.5 46.5t34.5 24.5t32.5 11t24.5 2v-13q-44 0 -78.5 -35t-34.5 -108q0 -29 8 -51l4 1q0 33 21.5 52t54.5 19z" />
    <glyph glyph-name="quoteright" unicode="&#x2019;" horiz-adv-x="251" 
d="M110 658q44 0 73.5 -29t29.5 -95q0 -41 -11 -72t-25.5 -46.5t-34.5 -24.5t-32.5 -11t-24.5 -2v13q43 0 78 34.5t35 108.5q0 29 -8 51l-4 -1q0 -33 -21.5 -52t-54.5 -19t-54.5 19t-21.5 53t21.5 53.5t54.5 19.5z" />
    <glyph glyph-name="quotesinglbase" unicode="&#x201a;" horiz-adv-x="258" 
d="M117 137q44 0 73.5 -29t29.5 -95q0 -41 -11 -72t-25.5 -46.5t-34.5 -24.5t-32.5 -11t-24.5 -2v13q44 0 78.5 35t34.5 108q0 29 -8 51l-4 -1q0 -33 -21.5 -52t-54.5 -19t-54.5 19t-21.5 53t21.5 53.5t54.5 19.5z" />
    <glyph glyph-name="quotedblleft" unicode="&#x201c;" horiz-adv-x="468" 
d="M143 526q33 0 54.5 -19t21.5 -53t-21.5 -53.5t-54.5 -19.5q-44 0 -73.5 29t-29.5 95q0 41 11 72t25.5 46.5t34.5 24.5t32.5 11t24.5 2v-13q-44 0 -78.5 -35t-34.5 -108q0 -29 8 -51l4 1q0 33 21.5 52t54.5 19zM359 526q33 0 54.5 -19t21.5 -53t-21.5 -53.5t-54.5 -19.5
q-44 0 -73.5 29t-29.5 95q0 41 11 72t25.5 46.5t34.5 24.5t32.5 11t24.5 2v-13q-44 0 -78.5 -35t-34.5 -108q0 -29 8 -51l4 1q0 33 21.5 52t54.5 19z" />
    <glyph glyph-name="quotedblright" unicode="&#x201d;" horiz-adv-x="467" 
d="M110 658q44 0 73.5 -29t29.5 -95q0 -41 -11 -72t-25.5 -46.5t-34.5 -24.5t-32.5 -11t-24.5 -2v13q43 0 78 34.5t35 108.5q0 29 -8 51l-4 -1q0 -33 -21.5 -52t-54.5 -19t-54.5 19t-21.5 53t21.5 53.5t54.5 19.5zM326 658q44 0 73.5 -29t29.5 -95q0 -41 -11 -72
t-25.5 -46.5t-34.5 -24.5t-32.5 -11t-24.5 -2v13q43 0 78 34.5t35 108.5q0 29 -8 51l-4 -1q0 -33 -21.5 -52t-54.5 -19t-54.5 19t-21.5 53t21.5 53.5t54.5 19.5z" />
    <glyph glyph-name="quotedblbase" unicode="&#x201e;" horiz-adv-x="474" 
d="M117 137q44 0 73.5 -29t29.5 -95q0 -41 -11 -72t-25.5 -46.5t-34.5 -24.5t-32.5 -11t-24.5 -2v13q44 0 78.5 35t34.5 108q0 29 -8 51l-4 -1q0 -33 -21.5 -52t-54.5 -19t-54.5 19t-21.5 53t21.5 53.5t54.5 19.5zM333 137q44 0 73.5 -29t29.5 -95q0 -41 -11 -72
t-25.5 -46.5t-34.5 -24.5t-32.5 -11t-24.5 -2v13q44 0 78.5 35t34.5 108q0 29 -8 51l-4 -1q0 -33 -21.5 -52t-54.5 -19t-54.5 19t-21.5 53t21.5 53.5t54.5 19.5z" />
    <glyph glyph-name="dagger" unicode="&#x2020;" horiz-adv-x="625" 
d="M513 519q35 0 57.5 -17.5t22.5 -48.5q0 -32 -22.5 -50t-58.5 -17q-30 0 -99 27t-91 30v-20q0 -20 15 -61t29 -72l15 -31q-59 -356 -59 -509h-17q0 68 -14.5 195.5t-28.5 220.5l-15 93q58 118 58 164v21q-21 -3 -91 -30.5t-100 -27.5q-36 -1 -58.5 17t-22.5 50
q-1 31 21.5 48.5t58.5 17.5q30 0 100 -27.5t92 -30.5v11q0 24 -29 97t-29 103q0 36 18 58.5t49 22.5t49 -22.5t18 -58.5q0 -30 -29.5 -103t-29.5 -97v-10q22 3 91.5 30t99.5 27z" />
    <glyph glyph-name="daggerdbl" unicode="&#x2021;" horiz-adv-x="625" 
d="M512 109q36 1 58.5 -17t22.5 -50q0 -31 -22.5 -48.5t-57.5 -17.5q-30 0 -99.5 27t-91.5 30v-10q0 -24 29.5 -97t29.5 -103q0 -36 -18 -58.5t-49 -22.5t-49 22.5t-18 58.5q0 30 29 103t29 97v11q-22 -3 -92 -30.5t-100 -27.5q-36 0 -58.5 17.5t-21.5 48.5q0 32 22.5 50
t58.5 17q30 0 100 -27.5t91 -30.5v34q0 20 -14.5 61t-28.5 72l-15 31q58 119 58 164v31q-21 -3 -91 -30.5t-100 -27.5q-36 -1 -58.5 17t-22.5 50q-1 31 21.5 48.5t58.5 17.5q30 0 100 -27.5t92 -30.5v11q0 24 -29 97t-29 103q0 36 18 58.5t49 22.5t49 -22.5t18 -58.5
q0 -30 -29.5 -103t-29.5 -97v-10q22 3 91.5 30t99.5 27q35 0 57.5 -17.5t22.5 -48.5q0 -32 -22.5 -50t-58.5 -17q-30 0 -99 27t-91 30v-30q0 -20 15 -61t29 -72l15 -31q-59 -119 -59 -164v-33q22 3 91 30t99 27z" />
    <glyph glyph-name="bullet" unicode="&#x2022;" horiz-adv-x="345" 
d="M67 246q0 44 31 75t75 31t74.5 -31t30.5 -75t-31 -74.5t-74 -30.5q-44 0 -75 30.5t-31 74.5z" />
    <glyph glyph-name="ellipsis" unicode="&#x2026;" horiz-adv-x="608" 
d="M41 64q0 34 21.5 53.5t54.5 19.5t54.5 -19.5t21.5 -53.5t-21.5 -53t-54.5 -19t-54.5 19t-21.5 53zM228 64q0 34 21.5 53.5t54.5 19.5t54.5 -19.5t21.5 -53.5t-21.5 -53t-54.5 -19t-54.5 19t-21.5 53zM415 64q0 34 21.5 53.5t54.5 19.5t54.5 -19.5t21.5 -53.5t-21.5 -53
t-54.5 -19t-54.5 19t-21.5 53z" />
    <glyph glyph-name="perthousand" unicode="&#x2030;" horiz-adv-x="1203" 
d="M198 298q-78 0 -123.5 52t-45.5 127t45.5 127t123.5 52t123.5 -52t45.5 -127t-45.5 -127t-123.5 -52zM556 656h19l-316 -656h-19zM198 313q58 0 58 164t-58 164t-58 -164t58 -164zM612 -8q-78 0 -123.5 52t-45.5 127t45.5 127t123.5 52t123.5 -52t45.5 -127t-45.5 -127
t-123.5 -52zM1006 -8q-78 0 -123.5 52t-45.5 127t45.5 127t123.5 52t123.5 -52t45.5 -127t-45.5 -127t-123.5 -52zM612 7q58 0 58 164t-58 164t-58 -164t58 -164zM1006 7q58 0 58 164t-58 164t-58 -164t58 -164z" />
    <glyph glyph-name="guilsinglleft" unicode="&#x2039;" horiz-adv-x="304" 
d="M242 90l-206 160v19l206 160v-12l-85 -157l85 -157v-13z" />
    <glyph glyph-name="guilsinglright" unicode="&#x203a;" horiz-adv-x="304" 
d="M62 103l85 157l-85 157v12l206 -160v-19l-206 -160v13z" />
    <glyph glyph-name="fraction" unicode="&#x2044;" horiz-adv-x="279" 
d="M265 702h19l-271 -702h-19z" />
    <glyph glyph-name="Euro" unicode="&#x20ac;" horiz-adv-x="675" 
d="M617 158h15q-8 -65 -58.5 -115.5t-141.5 -50.5q-139 0 -220 69.5t-103 182.5h-79l5 15h72q-5 35 -5 65q0 21 1 31h-73l5 15h69q14 127 97.5 206.5t235.5 79.5q49 0 92.5 -12t62.5 -24l20 -11l7 -149h-11l-4 20q-2 12 -8.5 29t-20.5 41t-32 43.5t-46 33.5t-60 14
q-76 0 -119.5 -61.5t-49.5 -209.5h161l-5 -15h-157v-31q0 -25 2 -65h118l-5 -15h-112q10 -129 51.5 -183t110.5 -54q83 0 130 46.5t55 104.5z" />
    <glyph glyph-name="trademark" unicode="&#x2122;" horiz-adv-x="872" 
d="M820 637l-36 -3v-309l36 -3v-11h-162v11l36 3v283h-1l-125 -300h-11l-140 307h-2v-269q0 -24 36 -24v-11h-87v11q36 0 36 24v199q0 39 -27.5 64t-68.5 25h-43v-309l46 -3v-11h-182v11l46 3v309h-27q-40 0 -66.5 -25t-29.5 -64v-10h-12l3 113h450l112 -223h3l90 223h126
v-11z" />
    <glyph glyph-name="minus" unicode="&#x2212;" horiz-adv-x="446" 
d="M57 267h332v-15h-332v15z" />
    <glyph glyph-name="approxequal" unicode="&#x2248;" horiz-adv-x="474" 
d="M57 277q1 3 3.5 8t11.5 18t20 22.5t30 17.5t40 8q37 0 94 -25.5t87 -25.5q19 0 36 9.5t24 18.5l7 10l8 -5q-1 -3 -3.5 -8t-11.5 -17.5t-20 -22t-29.5 -17.5t-40.5 -8q-40 0 -93.5 24.5t-85.5 24.5q-20 0 -37.5 -9t-24.5 -18l-7 -9zM57 145q1 3 3.5 8t11.5 18t20 22.5
t30 17.5t40 8q37 0 94 -25.5t87 -25.5q19 0 36 9.5t24 18.5l7 10l8 -5q-1 -3 -3.5 -8t-11.5 -17.5t-20 -22t-29.5 -17.5t-40.5 -8q-40 0 -93.5 24.5t-85.5 24.5q-20 0 -37.5 -9t-24.5 -18l-7 -9z" />
    <glyph glyph-name="notequal" unicode="&#x2260;" horiz-adv-x="483" 
d="M423 309h-163l-58 -153h221v-15h-227l-33 -87h-19l33 87h-121v15h127l58 153h-185v15h191l54 141h19l-54 -141h157v-15z" />
    <glyph glyph-name="uniF8FF" unicode="&#xf8ff;" horiz-adv-x="1451" 
d="M691 583q0 26 17.5 44t43.5 18t44 -18t18 -44t-18 -43.5t-44 -17.5t-43.5 18t-17.5 43zM219 270h-119q0 134 9 314h100q10 -200 10 -314zM694 270q0 92 3 147h-61l3 -65q4 -4 15 -4q13 0 18 5v-74q-14 -15 -68 -15q-82 0 -82 66q0 12 2 49t2 38h-22v79l119 30l1 -17h178
q10 -64 10 -239h-118zM328 265q-92 0 -92 114q0 135 134 135q124 0 124 -117v-127h-83l-8 61q-6 -33 -23.5 -49.5t-51.5 -16.5zM1090 270h-114q0 26 1 56t1 37q0 29 -15 29q-18 0 -18 -29q0 -7 1.5 -37t1.5 -56h-114q0 175 10 239h80q6 -44 6 -76q2 15 6.5 30t24 33t49.5 18
q42 0 58.5 -25t18.5 -81zM1351 391q0 -126 -123 -126q-122 0 -122 124q0 125 124 125q121 0 121 -123zM390 375q0 26 -24 26q-22 0 -22 -26q0 -30 22 -30q24 0 24 30zM1251 375q0 26 -23 26q-21 0 -21 -26q0 -30 21 -30q23 0 23 30zM428 238h104q10 -52 10 -138
q0 -81 -33.5 -115.5t-118.5 -34.5q-61 0 -88 17v83q24 -16 70 -16q21 0 34 6t16.5 11.5t3.5 10.5q-16 -11 -49 -11q-90 0 -90 83v13h-55l3 -65q6 -4 15 -4q13 0 18 5v-73q-19 -15 -68 -15q-45 0 -63 17t-18 54q0 39 3 81h-18v80l117 29l-1 -18h177v-119q0 -16 3 -21.5
t12 -5.5q16 0 16 27v119zM733 243q37 0 58.5 -29t21.5 -84q0 -135 -137 -135q1 -15 1 -39h-119q0 142 10 282h78q7 -42 7 -76q17 81 80 81zM1070 127q0 -21 -3 -35h-124q11 -18 50 -18q34 0 55 12v-75q-23 -16 -78 -16q-141 0 -141 122q0 59 32.5 92.5t92.5 33.5
q55 0 85.5 -30t30.5 -86zM978 109q3 27 -17 27q-23 0 -23 -27h40zM670 72q5 0 12.5 2.5t16 11.5t8.5 23q0 23 -20 23q-22 0 -22 -31q0 -14 5 -29zM1074 13q0 -23 24 -23t24 23t-24 23t-24 -23zM1080 13q0 18 18 18t18 -18t-18 -18t-18 18zM1108 2l-6 9q7 0 7 7t-10 7h-11
v-23h5v9h5l4 -9h6zM1100 15h-7v6h7q4 0 4 -3t-4 -3z" />
    <glyph glyph-name="i.loclTRK" horiz-adv-x="336" 
d="M167 603q-23 0 -38 13t-15 37t15 37.5t38 13.5t38 -13.5t15 -37.5t-15 -37t-38 -13zM300 543l-57 -7v-521l57 -7v-8h-264v8l57 7v521l-57 7v8h264v-8z" />
    <glyph glyph-name="zero.osf" horiz-adv-x="608" 
d="M304 -6q-121 0 -193.5 82.5t-72.5 203.5q0 120 72 199t194 79t194 -79t72 -199q0 -121 -72.5 -203.5t-193.5 -82.5zM304 9q101 0 101 271q0 102 -14.5 162.5t-35 80.5t-51.5 20t-51.5 -20t-35 -80.5t-14.5 -162.5q0 -271 101 -271z" />
    <glyph glyph-name="one.osf" horiz-adv-x="432" 
d="M307 18l120 -10v-8h-390v8l120 10v491l-126 -39v14l269 84h7v-550z" />
    <glyph glyph-name="two.osf" horiz-adv-x="525" 
d="M470 192h9l-13 -193h-435v61q11 6 30 16.5t67 45.5t85 72.5t67 93t30 110.5q0 64 -25.5 104t-74.5 40q-55 0 -96 -29l1 -9h5q32 0 52 -22t20 -50t-20 -50.5t-52 -22.5q-33 0 -52.5 21.5t-19.5 51.5q0 52 52 88.5t140 36.5q116 0 175.5 -48.5t59.5 -129.5q0 -55 -34 -102
t-82.5 -75.5t-97 -49t-82.5 -28.5l-34 -9h257q34 0 47 17.5t19 48.5z" />
    <glyph glyph-name="three.osf" horiz-adv-x="526" 
d="M281 236q90 0 149.5 -50t59.5 -119q0 -77 -64.5 -125t-196.5 -48q-93 0 -143 40.5t-50 88.5q0 30 19.5 51.5t52.5 21.5q32 0 52 -22.5t20 -50.5t-20 -50t-52 -22h-4l-2 -12q45 -30 97 -30q53 0 89.5 36t36.5 122q0 77 -38 120t-84 43h-13v15h13q39 0 70.5 36.5
t31.5 103.5q0 86 -31 122t-75 36q-54 0 -97 -30l2 -12h4q32 0 52 -22t20 -50t-20 -50.5t-52 -22.5q-33 0 -52.5 21.5t-19.5 51.5q0 50 50 89.5t143 39.5q122 0 181.5 -48t59.5 -125q0 -61 -53.5 -103.5t-135.5 -42.5v-3z" />
    <glyph glyph-name="four.osf" horiz-adv-x="541" 
d="M527 48v-15h-99v-133h-150v133h-272v15l415 500h7v-500h99zM27 48h251v300z" />
    <glyph glyph-name="five.osf" horiz-adv-x="527" 
d="M217 302q131 0 206 -52t75 -155q0 -200 -281 -200q-82 0 -132.5 37t-50.5 92q0 30 19.5 51.5t52.5 21.5q32 0 52 -22.5t20 -50.5t-20 -50t-52 -22h-4l-2 -13q40 -29 87 -29q62 0 104 41.5t42 143.5q0 104 -42.5 147.5t-103.5 43.5q-31 0 -60 -6.5t-42 -13.5l-13 -6v291
h360l15 77h9l-13 -193l-354 -1v-151q52 19 128 19z" />
    <glyph glyph-name="six.osf" horiz-adv-x="580" 
d="M305 399q130 0 191 -54t61 -141q0 -91 -69 -151.5t-191 -60.5t-191 74.5t-69 187.5q0 76 26 140t68 106t92 74t103.5 49t95 25t73.5 8v-15q-66 0 -151.5 -67.5t-122.5 -184.5q40 10 84 10zM297 7q95 0 95 187q0 102 -27.5 145.5t-78.5 43.5q-38 0 -69 -11
q-15 -52 -15 -118q0 -247 95 -247z" />
    <glyph glyph-name="seven.osf" horiz-adv-x="519" 
d="M518 551v-61l-1 -1q-82 -59 -144 -173q-96 -176 -96 -413h-150q0 78 25 157t58 136t77 111.5t70.5 80.5t50.5 46h-363l-15 -77h-9l13 193z" />
    <glyph glyph-name="eight.osf" horiz-adv-x="634" 
d="M389 334q90 0 149.5 -48.5t59.5 -115.5q0 -79 -69 -128.5t-212 -49.5t-212 49.5t-69 128.5q0 67 59.5 115.5t149.5 48.5v3q-75 0 -124.5 42.5t-49.5 103.5q0 77 60.5 125t185.5 48t185.5 -48t60.5 -125q0 -61 -49.5 -103.5t-124.5 -42.5v-3zM231 483q0 -68 25 -104
t57 -36h8q32 0 57 36t25 104q0 87 -25 122.5t-61 35.5q-86 -4 -86 -158zM317 7q51 0 86 37t35 126q0 75 -36.5 116.5t-80.5 41.5h-8q-44 0 -80.5 -41.5t-36.5 -116.5q0 -89 35 -126t86 -37z" />
    <glyph glyph-name="nine.osf" horiz-adv-x="577" 
d="M282 551q122 0 191 -74.5t69 -187.5q0 -76 -26 -140t-68 -106t-92 -74t-103.5 -49t-95 -25t-73.5 -8v15q66 0 151.5 67.5t122.5 184.5q-40 -10 -84 -10q-130 0 -191 54t-61 141q0 91 69 151.5t191 60.5zM293 160q38 0 69 11q15 52 15 118q0 247 -95 247t-95 -187
q0 -102 27.5 -145.5t78.5 -43.5z" />
    <glyph glyph-name="guillemotleft" horiz-adv-x="487" 
d="M242 90l-206 160v19l206 160v-12l-85 -157l85 -157v-13zM425 90l-206 160v19l206 160v-12l-85 -157l85 -157v-13z" />
    <glyph glyph-name="guillemotright" horiz-adv-x="477" 
d="M62 103l85 157l-85 157v12l206 -160v-19l-206 -160v13zM235 103l85 157l-85 157v12l206 -160v-19l-206 -160v13z" />
    <glyph glyph-name="caron.alt" 
d="M90 440v156h107v-9l-95 -147h-12z" />
    <glyph glyph-name="acute.case" 
d="M50 460l60 126h117v-9l-155 -117h-22z" />
    <glyph glyph-name="breve.case" 
d="M264 606q1 -64 -31.5 -99.5t-86.5 -35.5q-55 0 -86 33t-30 102h13q0 -24 24.5 -43t78.5 -19t79.5 19t25.5 43h13z" />
    <glyph glyph-name="caron.case" 
d="M286 601h12l-90 -141h-87l-90 141h12l122 -82z" />
    <glyph glyph-name="circumflex.case" 
d="M286 460l-121 77l-122 -77h-12l90 136h87l90 -136h-12z" />
    <glyph glyph-name="dieresis.case" 
d="M183 739q0 24 15 37.5t38 13.5t38 -13.5t15 -37.5t-15 -37t-38 -13t-38 13t-15 37zM353 739q0 24 15 37.5t38 13.5t38 -13.5t15 -37.5t-15 -37t-38 -13t-38 13t-15 37z" />
    <glyph glyph-name="dotaccent.case" 
d="M247 750q0 24 15 37.5t38 13.5t38 -13.5t15 -37.5t-15 -37t-38 -13t-38 13t-15 37z" />
    <glyph glyph-name="grave.case" 
d="M177 460h-22l-155 117v9h117z" />
    <glyph glyph-name="hungarumlaut.case" 
d="M50 460l60 126h117v-9l-155 -117h-22zM199 460l60 126h117v-9l-155 -117h-22z" />
    <glyph glyph-name="macron.case" 
d="M187 740h260v-15h-260v15z" />
    <glyph glyph-name="ring.case" 
d="M317 697q-50 0 -77.5 25t-27.5 68q0 42 27.5 67t77.5 25t77.5 -25t27.5 -67q0 -43 -27.5 -68t-77.5 -25zM317 711q37 0 37 79q0 78 -37 78t-37 -78q0 -79 37 -79z" />
    <glyph glyph-name="tilde.case" 
d="M171 713q1 4 3 10t10 21t17.5 27t25.5 21.5t34 9.5q27 0 69 -30.5t62 -30.5q15 0 28 8.5t18 16.5l6 8l8 -5q-1 -4 -3 -9.5t-10 -21t-17.5 -27t-25.5 -21t-34 -9.5q-30 0 -68.5 29.5t-60.5 29.5q-16 0 -29.5 -8t-19.5 -16l-5 -7z" />
    <glyph glyph-name="NULL" horiz-adv-x="148" 
 />
    <glyph glyph-name="IJacute" horiz-adv-x="758" 
d="M290 801l-155 -117h-22l60 126h117v-9zM708 801l-155 -117h-22l60 126h117v-9zM308 648v-8l-60 -7v-618l60 -7v-8h-270v8l60 7v618l-60 7v8h270zM733 648v-8l-60 -7v-443q0 -88 -45 -143t-148 -55q-54 0 -90.5 29t-36.5 69q0 25 17 42.5t42 17.5t42 -17.5t17 -42.5
t-17 -42t-42 -17h-3v-5q27 -20 65 -20q49 0 49 52v575l-60 7v8h270z" />
    <glyph glyph-name="ijacute" horiz-adv-x="737" 
d="M269 715l-135 -127h-12l40 136h107v-9zM640 715l-135 -127h-12l40 136h107v-9zM300 551v-8l-57 -7v-521l57 -7v-8h-264v8l57 7v521l-57 7v8h264zM714 551v-8l-57 -7v-369q0 -76 -43 -125t-142 -49q-56 0 -91 26.5t-36 61.5v1q0 23 16 40.5t39 17.5q24 0 41 -17.5
t17 -40.5t-16.5 -39.5t-40.5 -17.5q27 -17 64 -17q21 0 31 10t10 24v494l-56 7v8h264z" />
    </font>
</defs>
</svg>
