<svg 
 xmlns="http://www.w3.org/2000/svg"
 xmlns:xlink="http://www.w3.org/1999/xlink"
 width="58px" height="33px">
<path fill-rule="evenodd"  fill="rgb(86, 193, 178)"
 d="M57.265,6.123 C57.221,6.123 57.176,6.123 57.132,6.123 C57.132,6.168 57.132,6.212 57.132,6.257 C57.087,6.257 57.042,6.257 56.998,6.257 C56.998,6.302 56.998,6.347 56.998,6.392 C56.953,6.392 56.909,6.392 56.864,6.392 C56.864,6.436 56.864,6.481 56.864,6.526 C56.820,6.526 56.775,6.526 56.731,6.526 C56.731,6.571 56.731,6.616 56.731,6.661 C56.686,6.661 56.642,6.661 56.597,6.661 C56.597,6.706 56.597,6.750 56.597,6.795 C56.553,6.795 56.508,6.795 56.464,6.795 C56.464,6.840 56.464,6.885 56.464,6.930 C56.419,6.930 56.375,6.930 56.330,6.930 C56.330,6.975 56.330,7.020 56.330,7.064 C56.286,7.064 56.241,7.064 56.197,7.064 C56.197,7.109 56.197,7.154 56.197,7.199 C56.152,7.199 56.108,7.199 56.063,7.199 C56.063,7.244 56.063,7.289 56.063,7.334 C56.018,7.334 55.974,7.334 55.929,7.334 C55.929,7.379 55.929,7.423 55.929,7.468 C55.885,7.468 55.840,7.468 55.796,7.468 C55.796,7.513 55.796,7.558 55.796,7.603 C55.751,7.603 55.707,7.603 55.662,7.603 C55.662,7.648 55.662,7.692 55.662,7.737 C55.618,7.737 55.573,7.737 55.529,7.737 C55.529,7.782 55.529,7.827 55.529,7.872 C55.484,7.872 55.440,7.872 55.395,7.872 C55.395,7.917 55.395,7.962 55.395,8.006 C55.351,8.006 55.306,8.006 55.262,8.006 C55.262,8.051 55.262,8.096 55.262,8.141 C55.217,8.141 55.173,8.141 55.128,8.141 C55.128,8.186 55.128,8.231 55.128,8.276 C55.083,8.276 55.039,8.276 54.994,8.276 C54.994,8.321 54.994,8.365 54.994,8.410 C54.950,8.410 54.905,8.410 54.861,8.410 C54.861,8.455 54.861,8.500 54.861,8.545 C54.816,8.545 54.772,8.545 54.727,8.545 C54.727,8.590 54.727,8.634 54.727,8.679 C54.683,8.679 54.638,8.679 54.594,8.679 C54.594,8.724 54.594,8.769 54.594,8.814 C54.549,8.814 54.505,8.814 54.460,8.814 C54.460,8.859 54.460,8.904 54.460,8.949 C54.416,8.949 54.371,8.949 54.326,8.949 C54.326,8.993 54.326,9.038 54.326,9.083 C54.282,9.083 54.237,9.083 54.193,9.083 C54.193,9.128 54.193,9.173 54.193,9.218 C54.148,9.218 54.104,9.218 54.059,9.218 C54.059,9.263 54.059,9.307 54.059,9.353 C54.015,9.353 53.970,9.353 53.926,9.353 C53.926,9.397 53.926,9.442 53.926,9.487 C53.881,9.487 53.837,9.487 53.792,9.487 C53.792,9.532 53.792,9.577 53.792,9.621 C53.748,9.621 53.703,9.621 53.659,9.621 C53.659,9.666 53.659,9.711 53.659,9.756 C53.614,9.756 53.570,9.756 53.525,9.756 C53.525,9.801 53.525,9.846 53.525,9.891 C53.481,9.891 53.436,9.891 53.391,9.891 C53.391,9.935 53.391,9.981 53.391,10.025 C53.347,10.025 53.302,10.025 53.258,10.025 C53.258,10.070 53.258,10.115 53.258,10.160 C53.213,10.160 53.169,10.160 53.124,10.160 C53.124,10.205 53.124,10.250 53.124,10.294 C53.080,10.294 53.035,10.294 52.991,10.294 C52.991,10.339 52.991,10.384 52.991,10.429 C52.946,10.429 52.902,10.429 52.857,10.429 C52.857,10.474 52.857,10.519 52.857,10.563 C52.813,10.563 52.768,10.563 52.724,10.563 C52.724,10.608 52.724,10.653 52.724,10.698 C52.679,10.698 52.635,10.698 52.590,10.698 C52.590,10.743 52.590,10.787 52.590,10.832 C52.546,10.832 52.501,10.832 52.456,10.832 C52.456,10.877 52.456,10.922 52.456,10.967 C52.412,10.967 52.367,10.967 52.323,10.967 C52.323,11.012 52.323,11.057 52.323,11.102 C52.278,11.102 52.234,11.102 52.189,11.102 C52.189,11.146 52.189,11.191 52.189,11.236 C52.145,11.236 52.100,11.236 52.056,11.236 C52.056,11.281 52.056,11.326 52.056,11.371 C52.011,11.371 51.967,11.371 51.922,11.371 C51.922,11.416 51.922,11.460 51.922,11.506 C51.878,11.506 51.833,11.506 51.789,11.506 C51.789,11.550 51.789,11.595 51.789,11.640 C51.744,11.640 51.700,11.640 51.655,11.640 C51.655,11.685 51.655,11.730 51.655,11.774 C51.611,11.774 51.566,11.774 51.522,11.774 C51.522,11.819 51.522,11.864 51.522,11.909 C51.477,11.909 51.432,11.909 51.388,11.909 C51.388,11.954 51.388,11.999 51.388,12.044 C51.343,12.044 51.299,12.044 51.254,12.044 C51.254,12.088 51.254,12.134 51.254,12.178 C51.210,12.178 51.165,12.178 51.121,12.178 C51.121,12.223 51.121,12.268 51.121,12.313 C51.076,12.313 51.032,12.313 50.987,12.313 C50.987,12.358 50.987,12.403 50.987,12.448 C50.943,12.448 50.898,12.448 50.854,12.448 C50.854,12.492 50.854,12.537 50.854,12.582 C50.809,12.582 50.765,12.582 50.720,12.582 C50.720,12.627 50.720,12.672 50.720,12.717 C50.676,12.717 50.631,12.717 50.586,12.717 C50.586,12.761 50.586,12.806 50.586,12.851 C50.542,12.851 50.497,12.851 50.453,12.851 C50.453,12.896 50.453,12.941 50.453,12.986 C50.408,12.986 50.364,12.986 50.319,12.986 C50.319,13.031 50.319,13.076 50.319,13.120 C50.275,13.120 50.230,13.120 50.186,13.120 C50.186,13.165 50.186,13.210 50.186,13.255 C50.141,13.255 50.097,13.255 50.052,13.255 C50.052,13.300 50.052,13.345 50.052,13.389 C50.008,13.389 49.963,13.389 49.919,13.389 C49.919,13.435 49.919,13.479 49.919,13.524 C49.874,13.524 49.830,13.524 49.785,13.524 C49.785,13.569 49.785,13.614 49.785,13.659 C49.740,13.659 49.696,13.659 49.651,13.659 C49.651,13.703 49.651,13.748 49.651,13.793 C49.607,13.793 49.562,13.793 49.518,13.793 C49.518,13.838 49.518,13.883 49.518,13.928 C49.473,13.928 49.429,13.928 49.384,13.928 C49.384,13.972 49.384,14.017 49.384,14.062 C49.340,14.062 49.295,14.062 49.251,14.062 C49.251,14.107 49.251,14.152 49.251,14.197 C49.206,14.197 49.162,14.197 49.117,14.197 C49.117,14.241 49.117,14.287 49.117,14.331 C49.073,14.331 49.028,14.331 48.984,14.331 C48.984,14.376 48.984,14.421 48.984,14.466 C48.939,14.466 48.895,14.466 48.850,14.466 C48.850,14.511 48.850,14.556 48.850,14.601 C48.805,14.601 48.761,14.601 48.716,14.601 C48.716,14.645 48.716,14.690 48.716,14.735 C48.672,14.735 48.627,14.735 48.583,14.735 C48.583,14.780 48.583,14.825 48.583,14.870 C48.538,14.870 48.494,14.870 48.449,14.870 C48.449,14.915 48.449,14.959 48.449,15.004 C48.405,15.004 48.360,15.004 48.316,15.004 C48.316,15.049 48.316,15.094 48.316,15.139 C48.271,15.139 48.227,15.139 48.182,15.139 C48.182,15.184 48.182,15.229 48.182,15.273 C48.138,15.273 48.093,15.273 48.049,15.273 C48.049,15.318 48.049,15.363 48.049,15.408 C48.004,15.408 47.960,15.408 47.915,15.408 C47.915,15.453 47.915,15.498 47.915,15.543 C47.871,15.543 47.826,15.543 47.781,15.543 C47.781,15.588 47.781,15.632 47.781,15.677 C47.737,15.677 47.692,15.677 47.648,15.677 C47.648,15.722 47.648,15.767 47.648,15.812 C47.603,15.812 47.559,15.812 47.514,15.812 C47.514,15.857 47.514,15.901 47.514,15.946 C47.470,15.946 47.425,15.946 47.381,15.946 C47.381,15.991 47.381,16.036 47.381,16.081 C47.336,16.081 47.292,16.081 47.247,16.081 C47.247,16.126 47.247,16.171 47.247,16.216 C47.203,16.216 47.158,16.216 47.114,16.216 C47.114,16.260 47.114,16.305 47.114,16.350 C47.069,16.350 47.025,16.350 46.980,16.350 C46.980,16.395 46.980,16.440 46.980,16.485 C46.936,16.485 46.891,16.485 46.846,16.485 C46.846,16.530 46.846,16.574 46.846,16.619 C46.802,16.619 46.757,16.619 46.713,16.619 C46.713,16.664 46.713,16.709 46.713,16.754 C46.668,16.754 46.624,16.754 46.579,16.754 C46.579,16.799 46.579,16.843 46.579,16.888 C46.535,16.888 46.490,16.888 46.446,16.888 C46.446,16.933 46.446,16.978 46.446,17.023 C46.401,17.023 46.357,17.023 46.312,17.023 C46.312,17.068 46.312,17.113 46.312,17.158 C46.268,17.158 46.223,17.158 46.178,17.158 C46.178,17.202 46.178,17.247 46.178,17.292 C46.134,17.292 46.089,17.292 46.045,17.292 C46.045,17.337 46.045,17.382 46.045,17.427 C46.000,17.427 45.956,17.427 45.911,17.427 C45.911,17.472 45.911,17.517 45.911,17.561 C45.867,17.561 45.822,17.561 45.778,17.561 C45.778,17.606 45.778,17.651 45.778,17.696 C45.733,17.696 45.689,17.696 45.644,17.696 C45.644,17.741 45.644,17.786 45.644,17.830 C45.600,17.830 45.555,17.830 45.511,17.830 C45.511,17.875 45.511,17.920 45.511,17.965 C45.466,17.965 45.422,17.965 45.377,17.965 C45.377,18.010 45.377,18.054 45.377,18.099 C45.333,18.099 45.288,18.099 45.244,18.099 C45.244,18.144 45.244,18.189 45.244,18.234 C45.199,18.234 45.154,18.234 45.110,18.234 C45.110,18.279 45.110,18.324 45.110,18.369 C45.065,18.369 45.021,18.369 44.976,18.369 C44.976,18.414 44.976,18.458 44.976,18.503 C44.932,18.503 44.887,18.503 44.843,18.503 C44.843,18.548 44.843,18.593 44.843,18.638 C44.798,18.638 44.754,18.638 44.709,18.638 C44.709,18.683 44.709,18.728 44.709,18.773 C44.665,18.773 44.620,18.773 44.576,18.773 C44.576,18.817 44.576,18.862 44.576,18.907 C44.531,18.907 44.487,18.907 44.442,18.907 C44.442,18.952 44.442,18.997 44.442,19.041 C44.398,19.041 44.353,19.041 44.309,19.041 C44.309,19.086 44.309,19.131 44.309,19.176 C44.264,19.176 44.219,19.176 44.175,19.176 C44.175,19.221 44.175,19.266 44.175,19.311 C44.130,19.311 44.086,19.311 44.041,19.311 C44.041,19.355 44.041,19.400 44.041,19.445 C43.997,19.445 43.952,19.445 43.908,19.445 C43.908,19.490 43.908,19.535 43.908,19.580 C43.863,19.580 43.819,19.580 43.774,19.580 C43.774,19.625 43.774,19.670 43.774,19.715 C43.730,19.715 43.685,19.715 43.641,19.715 C43.641,19.759 43.641,19.804 43.641,19.849 C43.596,19.849 43.552,19.849 43.507,19.849 C43.507,19.894 43.507,19.939 43.507,19.984 C43.463,19.984 43.418,19.984 43.374,19.984 C43.374,20.028 43.374,20.073 43.374,20.118 C43.329,20.118 43.284,20.118 43.240,20.118 C43.240,20.163 43.240,20.208 43.240,20.253 C43.195,20.253 43.151,20.253 43.106,20.253 C43.106,20.298 43.106,20.343 43.106,20.387 C43.062,20.387 43.017,20.387 42.973,20.387 C42.973,20.432 42.973,20.477 42.973,20.522 C42.928,20.522 42.884,20.522 42.839,20.522 C42.839,20.567 42.839,20.612 42.839,20.657 C42.795,20.657 42.750,20.657 42.706,20.657 C42.706,20.701 42.706,20.746 42.706,20.791 C42.661,20.791 42.617,20.791 42.572,20.791 C42.572,20.836 42.572,20.881 42.572,20.926 C42.528,20.926 42.483,20.926 42.438,20.926 C42.438,20.971 42.438,21.015 42.438,21.060 C42.394,21.060 42.349,21.060 42.305,21.060 C42.305,21.105 42.305,21.150 42.305,21.195 C42.260,21.195 42.216,21.195 42.171,21.195 C42.171,21.239 42.171,21.284 42.171,21.329 C42.127,21.329 42.082,21.329 42.038,21.329 C42.038,21.374 42.038,21.419 42.038,21.464 C41.993,21.464 41.949,21.464 41.904,21.464 C41.904,21.509 41.904,21.554 41.904,21.598 C41.860,21.598 41.815,21.598 41.771,21.598 C41.771,21.643 41.771,21.688 41.771,21.733 C41.726,21.733 41.682,21.733 41.637,21.733 C41.637,21.778 41.637,21.823 41.637,21.868 C41.593,21.868 41.548,21.868 41.503,21.868 C41.503,21.912 41.503,21.957 41.503,22.002 C41.459,22.002 41.414,22.002 41.370,22.002 C41.370,22.047 41.370,22.092 41.370,22.137 C41.325,22.137 41.281,22.137 41.236,22.137 C41.236,22.181 41.236,22.226 41.236,22.271 C41.192,22.271 41.147,22.271 41.103,22.271 C41.103,22.316 41.103,22.361 41.103,22.406 C41.058,22.406 41.014,22.406 40.969,22.406 C40.969,22.451 40.969,22.496 40.969,22.540 C40.925,22.540 40.880,22.540 40.836,22.540 C40.836,22.585 40.836,22.630 40.836,22.675 C40.791,22.675 40.747,22.675 40.702,22.675 C40.702,22.720 40.702,22.765 40.702,22.810 C40.658,22.810 40.613,22.810 40.568,22.810 C40.568,22.855 40.568,22.900 40.568,22.944 C40.524,22.944 40.479,22.944 40.435,22.944 C40.435,22.989 40.435,23.034 40.435,23.079 C40.390,23.079 40.346,23.079 40.301,23.079 C40.301,23.124 40.301,23.168 40.301,23.213 C40.257,23.213 40.212,23.213 40.168,23.213 C40.168,23.258 40.168,23.303 40.168,23.348 C40.123,23.348 40.079,23.348 40.034,23.348 C40.034,23.393 40.034,23.438 40.034,23.482 C39.990,23.482 39.945,23.482 39.901,23.482 C39.901,23.528 39.901,23.572 39.901,23.617 C39.856,23.617 39.812,23.617 39.767,23.617 C39.767,23.662 39.767,23.707 39.767,23.752 C39.723,23.752 39.678,23.752 39.634,23.752 C39.634,23.797 39.634,23.841 39.634,23.886 C39.589,23.886 39.544,23.886 39.500,23.886 C39.500,23.931 39.500,23.976 39.500,24.021 C39.455,24.021 39.411,24.021 39.366,24.021 C39.366,24.066 39.366,24.110 39.366,24.155 C39.322,24.155 39.277,24.155 39.233,24.155 C39.233,24.200 39.233,24.245 39.233,24.290 C39.188,24.290 39.144,24.290 39.099,24.290 C39.099,24.335 39.099,24.380 39.099,24.425 C39.055,24.425 39.010,24.425 38.966,24.425 C38.966,24.469 38.966,24.514 38.966,24.559 C38.921,24.559 38.877,24.559 38.832,24.559 C38.832,24.604 38.832,24.649 38.832,24.693 C38.787,24.693 38.743,24.693 38.698,24.693 C38.698,24.738 38.698,24.783 38.698,24.828 C38.654,24.828 38.609,24.828 38.565,24.828 C38.565,24.873 38.565,24.918 38.565,24.963 C38.520,24.963 38.476,24.963 38.431,24.963 C38.431,25.008 38.431,25.053 38.431,25.097 C38.387,25.097 38.342,25.097 38.298,25.097 C38.298,25.142 38.298,25.187 38.298,25.232 C38.253,25.232 38.209,25.232 38.164,25.232 C38.164,25.277 38.164,25.321 38.164,25.366 C38.120,25.366 38.075,25.366 38.031,25.366 C38.031,25.411 38.031,25.456 38.031,25.501 C37.986,25.501 37.941,25.501 37.897,25.501 C37.897,25.546 37.897,25.591 37.897,25.635 C37.852,25.635 37.808,25.635 37.763,25.635 C37.763,25.681 37.763,25.725 37.763,25.770 C37.719,25.770 37.674,25.770 37.630,25.770 C37.630,25.815 37.630,25.860 37.630,25.905 C37.585,25.905 37.541,25.905 37.496,25.905 C37.496,25.950 37.496,25.995 37.496,26.039 C37.452,26.039 37.407,26.039 37.363,26.039 C37.363,26.084 37.363,26.129 37.363,26.174 C37.318,26.174 37.274,26.174 37.229,26.174 C37.229,26.219 37.229,26.264 37.229,26.309 C37.185,26.309 37.140,26.309 37.096,26.309 C37.096,26.353 37.096,26.398 37.096,26.443 C37.051,26.443 37.007,26.443 36.962,26.443 C36.962,26.488 36.962,26.533 36.962,26.578 C36.917,26.578 36.873,26.578 36.828,26.578 C36.828,26.623 36.828,26.667 36.828,26.712 C36.784,26.712 36.739,26.712 36.695,26.712 C36.695,26.757 36.695,26.802 36.695,26.847 C36.650,26.847 36.606,26.847 36.561,26.847 C36.561,26.892 36.561,26.936 36.561,26.982 C36.517,26.982 36.472,26.982 36.428,26.982 C36.428,27.026 36.428,27.071 36.428,27.116 C36.383,27.116 36.339,27.116 36.294,27.116 C36.294,27.161 36.294,27.206 36.294,27.251 C36.250,27.251 36.205,27.251 36.161,27.251 C36.161,27.295 36.161,27.340 36.161,27.385 C36.116,27.385 36.072,27.385 36.027,27.385 C36.027,27.430 36.027,27.475 36.027,27.520 C35.982,27.520 35.938,27.520 35.893,27.520 C35.893,27.564 35.893,27.610 35.893,27.654 C35.849,27.654 35.804,27.654 35.760,27.654 C35.760,27.699 35.760,27.744 35.760,27.789 C35.715,27.789 35.671,27.789 35.626,27.789 C35.626,27.834 35.626,27.879 35.626,27.924 C35.582,27.924 35.537,27.924 35.493,27.924 C35.493,27.968 35.493,28.013 35.493,28.058 C35.448,28.058 35.404,28.058 35.359,28.058 C35.359,28.103 35.359,28.148 35.359,28.193 C35.315,28.193 35.270,28.193 35.226,28.193 C35.226,28.237 35.226,28.282 35.226,28.327 C35.181,28.327 35.136,28.327 35.092,28.327 C35.092,28.372 35.092,28.417 35.092,28.462 C35.047,28.462 35.003,28.462 34.958,28.462 C34.958,28.506 34.958,28.551 34.958,28.596 C34.914,28.596 34.869,28.596 34.825,28.596 C34.825,28.641 34.825,28.686 34.825,28.731 C34.780,28.731 34.736,28.731 34.691,28.731 C34.691,28.776 34.691,28.820 34.691,28.866 C34.647,28.866 34.602,28.866 34.558,28.866 C34.558,28.910 34.558,28.955 34.558,29.000 C34.513,29.000 34.469,29.000 34.424,29.000 C34.424,29.045 34.424,29.090 34.424,29.135 C34.380,29.135 34.335,29.135 34.290,29.135 C34.290,29.180 34.290,29.224 34.290,29.269 C34.246,29.269 34.201,29.269 34.157,29.269 C34.157,29.314 34.157,29.359 34.157,29.404 C34.112,29.404 34.068,29.404 34.023,29.404 C34.023,29.448 34.023,29.493 34.023,29.538 C33.979,29.538 33.934,29.538 33.890,29.538 C33.890,29.583 33.890,29.628 33.890,29.673 C33.845,29.673 33.801,29.673 33.756,29.673 C33.756,29.718 33.756,29.763 33.756,29.807 C33.712,29.807 33.667,29.807 33.623,29.807 C33.623,29.852 33.623,29.897 33.623,29.942 C33.578,29.942 33.534,29.942 33.489,29.942 C33.489,29.987 33.489,30.032 33.489,30.077 C33.445,30.077 33.400,30.077 33.356,30.077 C33.356,30.121 33.356,30.167 33.356,30.211 C33.311,30.211 33.266,30.211 33.222,30.211 C33.222,30.256 33.222,30.301 33.222,30.346 C33.177,30.346 33.133,30.346 33.088,30.346 C33.088,30.391 33.088,30.435 33.088,30.480 C33.044,30.480 32.999,30.480 32.955,30.480 C32.955,30.525 32.955,30.570 32.955,30.615 C32.910,30.615 32.866,30.615 32.821,30.615 C32.821,30.660 32.821,30.705 32.821,30.749 C32.777,30.749 32.732,30.749 32.688,30.749 C32.688,30.794 32.688,30.839 32.688,30.884 C32.643,30.884 32.599,30.884 32.554,30.884 C32.554,30.929 32.554,30.974 32.554,31.019 C32.510,31.019 32.465,31.019 32.421,31.019 C32.421,31.064 32.421,31.109 32.421,31.153 C32.376,31.153 32.331,31.153 32.287,31.153 C32.287,31.198 32.287,31.243 32.287,31.288 C32.242,31.288 32.198,31.288 32.153,31.288 C32.153,31.333 32.153,31.377 32.153,31.422 C32.109,31.422 32.064,31.422 32.020,31.422 C32.020,31.467 32.020,31.512 32.020,31.557 C31.975,31.557 31.931,31.557 31.886,31.557 C31.886,31.602 31.886,31.647 31.886,31.692 C31.842,31.692 31.797,31.692 31.753,31.692 C31.753,31.736 31.753,31.781 31.753,31.826 C31.708,31.826 31.664,31.826 31.619,31.826 C31.619,31.871 31.619,31.916 31.619,31.961 C31.575,31.961 31.530,31.961 31.486,31.961 C31.486,32.005 31.486,32.050 31.486,32.095 C31.441,32.095 31.396,32.095 31.352,32.095 C31.352,32.140 31.352,32.185 31.352,32.230 C31.174,32.280 31.142,32.338 31.018,32.432 C31.018,32.454 31.018,32.476 31.018,32.499 C30.951,32.499 30.884,32.499 30.818,32.499 C30.795,32.544 30.773,32.588 30.751,32.633 C30.684,32.633 30.617,32.633 30.550,32.633 C30.528,32.678 30.506,32.723 30.484,32.768 C30.395,32.768 30.306,32.768 30.217,32.768 C30.217,32.790 30.217,32.813 30.217,32.835 C30.172,32.835 30.127,32.835 30.083,32.835 C30.083,32.858 30.083,32.880 30.083,32.902 C29.994,32.902 29.905,32.902 29.816,32.902 C29.816,32.925 29.816,32.948 29.816,32.970 C29.570,33.044 28.239,32.965 28.079,32.902 C28.079,32.880 28.079,32.858 28.079,32.835 C28.035,32.835 27.990,32.835 27.946,32.835 C27.946,32.813 27.946,32.790 27.946,32.768 C27.857,32.768 27.768,32.768 27.679,32.768 C27.656,32.723 27.634,32.678 27.612,32.633 C27.545,32.633 27.478,32.633 27.412,32.633 C27.389,32.588 27.367,32.544 27.345,32.499 C27.278,32.499 27.211,32.499 27.144,32.499 C27.122,32.454 27.100,32.409 27.078,32.364 C27.011,32.364 26.944,32.364 26.877,32.364 C26.877,32.342 26.877,32.320 26.877,32.297 C26.753,32.203 26.721,32.145 26.543,32.095 C26.543,32.050 26.543,32.005 26.543,31.961 C26.499,31.961 26.454,31.961 26.410,31.961 C26.410,31.916 26.410,31.871 26.410,31.826 C26.365,31.826 26.321,31.826 26.276,31.826 C26.276,31.781 26.276,31.736 26.276,31.692 C26.232,31.692 26.187,31.692 26.143,31.692 C26.143,31.647 26.143,31.602 26.143,31.557 C26.098,31.557 26.053,31.557 26.009,31.557 C26.009,31.512 26.009,31.467 26.009,31.422 C25.964,31.422 25.920,31.422 25.875,31.422 C25.875,31.377 25.875,31.333 25.875,31.288 C25.831,31.288 25.786,31.288 25.742,31.288 C25.742,31.243 25.742,31.198 25.742,31.153 C25.697,31.153 25.653,31.153 25.608,31.153 C25.608,31.109 25.608,31.064 25.608,31.019 C25.564,31.019 25.519,31.019 25.475,31.019 C25.475,30.974 25.475,30.929 25.475,30.884 C25.430,30.884 25.386,30.884 25.341,30.884 C25.341,30.839 25.341,30.794 25.341,30.749 C25.297,30.749 25.252,30.749 25.208,30.749 C25.208,30.705 25.208,30.660 25.208,30.615 C25.163,30.615 25.119,30.615 25.074,30.615 C25.074,30.570 25.074,30.525 25.074,30.480 C25.029,30.480 24.985,30.480 24.940,30.480 C24.940,30.435 24.940,30.391 24.940,30.346 C24.896,30.346 24.851,30.346 24.807,30.346 C24.807,30.301 24.807,30.256 24.807,30.211 C24.762,30.211 24.718,30.211 24.673,30.211 C24.673,30.167 24.673,30.121 24.673,30.077 C24.629,30.077 24.584,30.077 24.540,30.077 C24.540,30.032 24.540,29.987 24.540,29.942 C24.495,29.942 24.451,29.942 24.406,29.942 C24.406,29.897 24.406,29.852 24.406,29.807 C24.362,29.807 24.317,29.807 24.273,29.807 C24.273,29.763 24.273,29.718 24.273,29.673 C24.228,29.673 24.184,29.673 24.139,29.673 C24.139,29.628 24.139,29.583 24.139,29.538 C24.094,29.538 24.050,29.538 24.005,29.538 C24.005,29.493 24.005,29.448 24.005,29.404 C23.961,29.404 23.916,29.404 23.872,29.404 C23.872,29.359 23.872,29.314 23.872,29.269 C23.827,29.269 23.783,29.269 23.738,29.269 C23.738,29.224 23.738,29.180 23.738,29.135 C23.694,29.135 23.649,29.135 23.605,29.135 C23.605,29.090 23.605,29.045 23.605,29.000 C23.560,29.000 23.516,29.000 23.471,29.000 C23.471,28.955 23.471,28.910 23.471,28.866 C23.427,28.866 23.382,28.866 23.338,28.866 C23.338,28.820 23.338,28.776 23.338,28.731 C23.293,28.731 23.248,28.731 23.204,28.731 C23.204,28.686 23.204,28.641 23.204,28.596 C23.159,28.596 23.115,28.596 23.070,28.596 C23.070,28.551 23.070,28.506 23.070,28.462 C23.026,28.462 22.981,28.462 22.937,28.462 C22.937,28.417 22.937,28.372 22.937,28.327 C22.892,28.327 22.848,28.327 22.803,28.327 C22.803,28.282 22.803,28.237 22.803,28.193 C22.759,28.193 22.714,28.193 22.670,28.193 C22.670,28.148 22.670,28.103 22.670,28.058 C22.625,28.058 22.581,28.058 22.536,28.058 C22.536,28.013 22.536,27.968 22.536,27.924 C22.492,27.924 22.447,27.924 22.402,27.924 C22.402,27.879 22.402,27.834 22.402,27.789 C22.358,27.789 22.313,27.789 22.269,27.789 C22.269,27.744 22.269,27.699 22.269,27.654 C22.224,27.654 22.180,27.654 22.135,27.654 C22.135,27.610 22.135,27.564 22.135,27.520 C22.091,27.520 22.046,27.520 22.002,27.520 C22.002,27.475 22.002,27.430 22.002,27.385 C21.957,27.385 21.913,27.385 21.868,27.385 C21.868,27.340 21.868,27.295 21.868,27.251 C21.824,27.251 21.779,27.251 21.735,27.251 C21.735,27.206 21.735,27.161 21.735,27.116 C21.690,27.116 21.646,27.116 21.601,27.116 C21.601,27.071 21.601,27.026 21.601,26.982 C21.557,26.982 21.512,26.982 21.467,26.982 C21.467,26.936 21.467,26.892 21.467,26.847 C21.423,26.847 21.378,26.847 21.334,26.847 C21.334,26.802 21.334,26.757 21.334,26.712 C21.289,26.712 21.245,26.712 21.200,26.712 C21.200,26.667 21.200,26.623 21.200,26.578 C21.156,26.578 21.111,26.578 21.067,26.578 C21.067,26.533 21.067,26.488 21.067,26.443 C21.022,26.443 20.978,26.443 20.933,26.443 C20.933,26.398 20.933,26.353 20.933,26.309 C20.889,26.309 20.844,26.309 20.800,26.309 C20.800,26.264 20.800,26.219 20.800,26.174 C20.755,26.174 20.711,26.174 20.666,26.174 C20.666,26.129 20.666,26.084 20.666,26.039 C20.622,26.039 20.577,26.039 20.533,26.039 C20.533,25.995 20.533,25.950 20.533,25.905 C20.488,25.905 20.443,25.905 20.399,25.905 C20.399,25.860 20.399,25.815 20.399,25.770 C20.354,25.770 20.310,25.770 20.265,25.770 C20.265,25.725 20.265,25.681 20.265,25.635 C20.221,25.635 20.176,25.635 20.132,25.635 C20.132,25.591 20.132,25.546 20.132,25.501 C20.087,25.501 20.043,25.501 19.998,25.501 C19.998,25.456 19.998,25.411 19.998,25.366 C19.954,25.366 19.909,25.366 19.865,25.366 C19.865,25.321 19.865,25.277 19.865,25.232 C19.820,25.232 19.776,25.232 19.731,25.232 C19.731,25.187 19.731,25.142 19.731,25.097 C19.687,25.097 19.642,25.097 19.597,25.097 C19.597,25.053 19.597,25.008 19.597,24.963 C19.553,24.963 19.508,24.963 19.464,24.963 C19.464,24.918 19.464,24.873 19.464,24.828 C19.419,24.828 19.375,24.828 19.330,24.828 C19.330,24.783 19.330,24.738 19.330,24.693 C19.286,24.693 19.241,24.693 19.197,24.693 C19.197,24.649 19.197,24.604 19.197,24.559 C19.152,24.559 19.108,24.559 19.063,24.559 C19.063,24.514 19.063,24.469 19.063,24.425 C19.019,24.425 18.974,24.425 18.930,24.425 C18.930,24.380 18.930,24.335 18.930,24.290 C18.885,24.290 18.841,24.290 18.796,24.290 C18.796,24.245 18.796,24.200 18.796,24.155 C18.751,24.155 18.707,24.155 18.662,24.155 C18.662,24.110 18.662,24.066 18.662,24.021 C18.618,24.021 18.573,24.021 18.529,24.021 C18.529,23.976 18.529,23.931 18.529,23.886 C18.484,23.886 18.440,23.886 18.395,23.886 C18.395,23.841 18.395,23.797 18.395,23.752 C18.351,23.752 18.306,23.752 18.262,23.752 C18.262,23.707 18.262,23.662 18.262,23.617 C18.217,23.617 18.173,23.617 18.128,23.617 C18.128,23.572 18.128,23.528 18.128,23.482 C18.084,23.482 18.039,23.482 17.995,23.482 C17.995,23.438 17.995,23.393 17.995,23.348 C17.950,23.348 17.906,23.348 17.861,23.348 C17.861,23.303 17.861,23.258 17.861,23.213 C17.816,23.213 17.772,23.213 17.727,23.213 C17.727,23.168 17.727,23.124 17.727,23.079 C17.683,23.079 17.638,23.079 17.594,23.079 C17.594,23.034 17.594,22.989 17.594,22.944 C17.549,22.944 17.505,22.944 17.460,22.944 C17.460,22.900 17.460,22.855 17.460,22.810 C17.416,22.810 17.371,22.810 17.327,22.810 C17.327,22.765 17.327,22.720 17.327,22.675 C17.282,22.675 17.238,22.675 17.193,22.675 C17.193,22.630 17.193,22.585 17.193,22.540 C17.149,22.540 17.104,22.540 17.060,22.540 C17.060,22.496 17.060,22.451 17.060,22.406 C17.015,22.406 16.971,22.406 16.926,22.406 C16.926,22.361 16.926,22.316 16.926,22.271 C16.882,22.271 16.837,22.271 16.792,22.271 C16.792,22.226 16.792,22.181 16.792,22.137 C16.748,22.137 16.703,22.137 16.659,22.137 C16.659,22.092 16.659,22.047 16.659,22.002 C16.614,22.002 16.570,22.002 16.525,22.002 C16.525,21.957 16.525,21.912 16.525,21.868 C16.481,21.868 16.436,21.868 16.392,21.868 C16.392,21.823 16.392,21.778 16.392,21.733 C16.347,21.733 16.303,21.733 16.258,21.733 C16.258,21.688 16.258,21.643 16.258,21.598 C16.214,21.598 16.169,21.598 16.125,21.598 C16.125,21.554 16.125,21.509 16.125,21.464 C16.080,21.464 16.036,21.464 15.991,21.464 C15.991,21.419 15.991,21.374 15.991,21.329 C15.947,21.329 15.902,21.329 15.857,21.329 C15.857,21.284 15.857,21.239 15.857,21.195 C15.813,21.195 15.768,21.195 15.724,21.195 C15.724,21.150 15.724,21.105 15.724,21.060 C15.679,21.060 15.635,21.060 15.590,21.060 C15.590,21.015 15.590,20.971 15.590,20.926 C15.546,20.926 15.501,20.926 15.457,20.926 C15.457,20.881 15.457,20.836 15.457,20.791 C15.412,20.791 15.368,20.791 15.323,20.791 C15.323,20.746 15.323,20.701 15.323,20.657 C15.279,20.657 15.234,20.657 15.190,20.657 C15.190,20.612 15.190,20.567 15.190,20.522 C15.145,20.522 15.100,20.522 15.056,20.522 C15.056,20.477 15.056,20.432 15.056,20.387 C15.011,20.387 14.967,20.387 14.922,20.387 C14.922,20.343 14.922,20.298 14.922,20.253 C14.878,20.253 14.833,20.253 14.789,20.253 C14.789,20.208 14.789,20.163 14.789,20.118 C14.744,20.118 14.700,20.118 14.655,20.118 C14.655,20.073 14.655,20.028 14.655,19.984 C14.611,19.984 14.566,19.984 14.522,19.984 C14.522,19.939 14.522,19.894 14.522,19.849 C14.477,19.849 14.433,19.849 14.388,19.849 C14.388,19.804 14.388,19.759 14.388,19.715 C14.344,19.715 14.299,19.715 14.255,19.715 C14.255,19.670 14.255,19.625 14.255,19.580 C14.210,19.580 14.165,19.580 14.121,19.580 C14.121,19.535 14.121,19.490 14.121,19.445 C14.076,19.445 14.032,19.445 13.987,19.445 C13.987,19.400 13.987,19.355 13.987,19.311 C13.943,19.311 13.898,19.311 13.854,19.311 C13.854,19.266 13.854,19.221 13.854,19.176 C13.809,19.176 13.765,19.176 13.720,19.176 C13.720,19.131 13.720,19.086 13.720,19.041 C13.676,19.041 13.631,19.041 13.587,19.041 C13.587,18.997 13.587,18.952 13.587,18.907 C13.542,18.907 13.498,18.907 13.453,18.907 C13.453,18.862 13.453,18.817 13.453,18.773 C13.409,18.773 13.364,18.773 13.320,18.773 C13.320,18.728 13.320,18.683 13.320,18.638 C13.275,18.638 13.230,18.638 13.186,18.638 C13.186,18.593 13.186,18.548 13.186,18.503 C13.141,18.503 13.097,18.503 13.052,18.503 C13.052,18.458 13.052,18.414 13.052,18.369 C13.008,18.369 12.963,18.369 12.919,18.369 C12.919,18.324 12.919,18.279 12.919,18.234 C12.874,18.234 12.830,18.234 12.785,18.234 C12.785,18.189 12.785,18.144 12.785,18.099 C12.741,18.099 12.696,18.099 12.652,18.099 C12.652,18.054 12.652,18.010 12.652,17.965 C12.607,17.965 12.563,17.965 12.518,17.965 C12.518,17.920 12.518,17.875 12.518,17.830 C12.474,17.830 12.429,17.830 12.385,17.830 C12.385,17.786 12.385,17.741 12.385,17.696 C12.340,17.696 12.296,17.696 12.251,17.696 C12.251,17.651 12.251,17.606 12.251,17.561 C12.206,17.561 12.162,17.561 12.117,17.561 C12.117,17.517 12.117,17.472 12.117,17.427 C12.073,17.427 12.028,17.427 11.984,17.427 C11.984,17.382 11.984,17.337 11.984,17.292 C11.939,17.292 11.895,17.292 11.850,17.292 C11.850,17.247 11.850,17.202 11.850,17.158 C11.806,17.158 11.761,17.158 11.717,17.158 C11.717,17.113 11.717,17.068 11.717,17.023 C11.672,17.023 11.628,17.023 11.583,17.023 C11.583,16.978 11.583,16.933 11.583,16.888 C11.539,16.888 11.494,16.888 11.449,16.888 C11.449,16.843 11.449,16.799 11.449,16.754 C11.405,16.754 11.360,16.754 11.316,16.754 C11.316,16.709 11.316,16.664 11.316,16.619 C11.271,16.619 11.227,16.619 11.182,16.619 C11.182,16.574 11.182,16.530 11.182,16.485 C11.138,16.485 11.093,16.485 11.049,16.485 C11.049,16.440 11.049,16.395 11.049,16.350 C11.004,16.350 10.960,16.350 10.915,16.350 C10.915,16.305 10.915,16.260 10.915,16.216 C10.871,16.216 10.826,16.216 10.782,16.216 C10.782,16.171 10.782,16.126 10.782,16.081 C10.737,16.081 10.693,16.081 10.648,16.081 C10.648,16.036 10.648,15.991 10.648,15.946 C10.604,15.946 10.559,15.946 10.514,15.946 C10.514,15.901 10.514,15.857 10.514,15.812 C10.470,15.812 10.425,15.812 10.381,15.812 C10.381,15.767 10.381,15.722 10.381,15.677 C10.336,15.677 10.292,15.677 10.247,15.677 C10.247,15.632 10.247,15.588 10.247,15.543 C10.203,15.543 10.158,15.543 10.114,15.543 C10.114,15.498 10.114,15.453 10.114,15.408 C10.069,15.408 10.025,15.408 9.980,15.408 C9.980,15.363 9.980,15.318 9.980,15.273 C9.936,15.273 9.891,15.273 9.847,15.273 C9.847,15.229 9.847,15.184 9.847,15.139 C9.802,15.139 9.758,15.139 9.713,15.139 C9.713,15.094 9.713,15.049 9.713,15.004 C9.669,15.004 9.624,15.004 9.579,15.004 C9.579,14.959 9.579,14.915 9.579,14.870 C9.535,14.870 9.490,14.870 9.446,14.870 C9.446,14.825 9.446,14.780 9.446,14.735 C9.401,14.735 9.357,14.735 9.312,14.735 C9.312,14.690 9.312,14.645 9.312,14.601 C9.268,14.601 9.223,14.601 9.179,14.601 C9.179,14.556 9.179,14.511 9.179,14.466 C9.134,14.466 9.090,14.466 9.045,14.466 C9.045,14.421 9.045,14.376 9.045,14.331 C9.001,14.331 8.956,14.331 8.912,14.331 C8.912,14.287 8.912,14.241 8.912,14.197 C8.867,14.197 8.823,14.197 8.778,14.197 C8.778,14.152 8.778,14.107 8.778,14.062 C8.734,14.062 8.689,14.062 8.645,14.062 C8.645,14.017 8.645,13.972 8.645,13.928 C8.600,13.928 8.555,13.928 8.511,13.928 C8.511,13.883 8.511,13.838 8.511,13.793 C8.466,13.793 8.422,13.793 8.377,13.793 C8.377,13.748 8.377,13.703 8.377,13.659 C8.333,13.659 8.288,13.659 8.244,13.659 C8.244,13.614 8.244,13.569 8.244,13.524 C8.199,13.524 8.155,13.524 8.110,13.524 C8.110,13.479 8.110,13.435 8.110,13.389 C8.066,13.389 8.021,13.389 7.977,13.389 C7.977,13.345 7.977,13.300 7.977,13.255 C7.932,13.255 7.888,13.255 7.843,13.255 C7.843,13.210 7.843,13.165 7.843,13.120 C7.799,13.120 7.754,13.120 7.709,13.120 C7.709,13.076 7.709,13.031 7.709,12.986 C7.665,12.986 7.620,12.986 7.576,12.986 C7.576,12.941 7.576,12.896 7.576,12.851 C7.531,12.851 7.487,12.851 7.442,12.851 C7.442,12.806 7.442,12.761 7.442,12.717 C7.398,12.717 7.353,12.717 7.309,12.717 C7.309,12.672 7.309,12.627 7.309,12.582 C7.264,12.582 7.220,12.582 7.175,12.582 C7.175,12.537 7.175,12.492 7.175,12.448 C7.131,12.448 7.086,12.448 7.042,12.448 C7.042,12.403 7.042,12.358 7.042,12.313 C6.997,12.313 6.952,12.313 6.908,12.313 C6.908,12.268 6.908,12.223 6.908,12.178 C6.863,12.178 6.819,12.178 6.774,12.178 C6.774,12.134 6.774,12.088 6.774,12.044 C6.730,12.044 6.685,12.044 6.641,12.044 C6.641,11.999 6.641,11.954 6.641,11.909 C6.596,11.909 6.552,11.909 6.507,11.909 C6.507,11.864 6.507,11.819 6.507,11.774 C6.463,11.774 6.418,11.774 6.374,11.774 C6.374,11.730 6.374,11.685 6.374,11.640 C6.329,11.640 6.285,11.640 6.240,11.640 C6.240,11.595 6.240,11.550 6.240,11.506 C6.196,11.506 6.151,11.506 6.107,11.506 C6.107,11.460 6.107,11.416 6.107,11.371 C6.062,11.371 6.018,11.371 5.973,11.371 C5.973,11.326 5.973,11.281 5.973,11.236 C5.928,11.236 5.884,11.236 5.839,11.236 C5.839,11.191 5.839,11.146 5.839,11.102 C5.795,11.102 5.750,11.102 5.706,11.102 C5.706,11.057 5.706,11.012 5.706,10.967 C5.661,10.967 5.617,10.967 5.572,10.967 C5.572,10.922 5.572,10.877 5.572,10.832 C5.528,10.832 5.483,10.832 5.439,10.832 C5.439,10.787 5.439,10.743 5.439,10.698 C5.394,10.698 5.350,10.698 5.305,10.698 C5.305,10.653 5.305,10.608 5.305,10.563 C5.261,10.563 5.216,10.563 5.172,10.563 C5.172,10.519 5.172,10.474 5.172,10.429 C5.127,10.429 5.083,10.429 5.038,10.429 C5.038,10.384 5.038,10.339 5.038,10.294 C4.993,10.294 4.949,10.294 4.904,10.294 C4.904,10.250 4.904,10.205 4.904,10.160 C4.860,10.160 4.815,10.160 4.771,10.160 C4.771,10.115 4.771,10.070 4.771,10.025 C4.726,10.025 4.682,10.025 4.637,10.025 C4.637,9.981 4.637,9.935 4.637,9.891 C4.593,9.891 4.548,9.891 4.504,9.891 C4.504,9.846 4.504,9.801 4.504,9.756 C4.459,9.756 4.415,9.756 4.370,9.756 C4.370,9.711 4.370,9.666 4.370,9.621 C4.326,9.621 4.281,9.621 4.237,9.621 C4.237,9.577 4.237,9.532 4.237,9.487 C4.192,9.487 4.148,9.487 4.103,9.487 C4.103,9.442 4.103,9.397 4.103,9.353 C4.059,9.353 4.014,9.353 3.969,9.353 C3.969,9.307 3.969,9.263 3.969,9.218 C3.925,9.218 3.880,9.218 3.836,9.218 C3.836,9.173 3.836,9.128 3.836,9.083 C3.791,9.083 3.747,9.083 3.702,9.083 C3.702,9.038 3.702,8.993 3.702,8.949 C3.658,8.949 3.613,8.949 3.569,8.949 C3.569,8.904 3.569,8.859 3.569,8.814 C3.524,8.814 3.480,8.814 3.435,8.814 C3.435,8.769 3.435,8.724 3.435,8.679 C3.391,8.679 3.346,8.679 3.301,8.679 C3.301,8.634 3.301,8.590 3.301,8.545 C3.257,8.545 3.212,8.545 3.168,8.545 C3.168,8.500 3.168,8.455 3.168,8.410 C3.123,8.410 3.079,8.410 3.034,8.410 C3.034,8.365 3.034,8.321 3.034,8.276 C2.990,8.276 2.945,8.276 2.901,8.276 C2.901,8.231 2.901,8.186 2.901,8.141 C2.856,8.141 2.812,8.141 2.767,8.141 C2.767,8.096 2.767,8.051 2.767,8.006 C2.723,8.006 2.678,8.006 2.634,8.006 C2.634,7.962 2.634,7.917 2.634,7.872 C2.589,7.872 2.545,7.872 2.500,7.872 C2.500,7.827 2.500,7.782 2.500,7.737 C2.456,7.737 2.411,7.737 2.367,7.737 C2.367,7.692 2.367,7.648 2.367,7.603 C2.322,7.603 2.277,7.603 2.233,7.603 C2.233,7.558 2.233,7.513 2.233,7.468 C2.188,7.468 2.144,7.468 2.099,7.468 C2.099,7.423 2.099,7.379 2.099,7.334 C2.055,7.334 2.010,7.334 1.966,7.334 C1.966,7.289 1.966,7.244 1.966,7.199 C1.921,7.199 1.877,7.199 1.832,7.199 C1.832,7.154 1.832,7.109 1.832,7.064 C1.788,7.064 1.743,7.064 1.699,7.064 C1.699,7.020 1.699,6.975 1.699,6.930 C1.654,6.930 1.610,6.930 1.565,6.930 C1.565,6.885 1.565,6.840 1.565,6.795 C1.521,6.795 1.476,6.795 1.432,6.795 C1.432,6.750 1.432,6.706 1.432,6.661 C1.387,6.661 1.342,6.661 1.298,6.661 C1.298,6.616 1.298,6.571 1.298,6.526 C1.253,6.526 1.209,6.526 1.164,6.526 C1.164,6.481 1.164,6.436 1.164,6.392 C1.120,6.392 1.075,6.392 1.031,6.392 C1.031,6.347 1.031,6.302 1.031,6.257 C0.986,6.257 0.942,6.257 0.897,6.257 C0.848,6.078 0.790,6.046 0.697,5.921 C0.675,5.921 0.652,5.921 0.630,5.921 C0.630,5.853 0.630,5.786 0.630,5.719 C0.586,5.696 0.541,5.674 0.497,5.651 C0.497,5.584 0.497,5.517 0.497,5.450 C0.452,5.427 0.407,5.405 0.363,5.382 C0.363,5.315 0.363,5.248 0.363,5.181 C0.318,5.158 0.274,5.136 0.229,5.113 C0.229,5.023 0.229,4.934 0.229,4.844 C0.207,4.844 0.185,4.844 0.163,4.844 C0.163,4.799 0.163,4.754 0.163,4.709 C0.140,4.709 0.118,4.709 0.096,4.709 C0.034,4.549 -0.045,3.207 0.029,2.960 C0.051,2.960 0.074,2.960 0.096,2.960 C0.096,2.870 0.096,2.781 0.096,2.691 C0.118,2.691 0.140,2.691 0.163,2.691 C0.163,2.646 0.163,2.601 0.163,2.556 C0.185,2.556 0.207,2.556 0.229,2.556 C0.229,2.467 0.229,2.377 0.229,2.287 C0.274,2.265 0.318,2.242 0.363,2.220 C0.363,2.153 0.363,2.085 0.363,2.018 C0.407,1.996 0.452,1.973 0.497,1.951 C0.497,1.884 0.497,1.816 0.497,1.749 C0.519,1.749 0.541,1.749 0.563,1.749 C0.656,1.623 0.715,1.591 0.764,1.412 C0.808,1.412 0.853,1.412 0.897,1.412 C0.897,1.367 0.897,1.323 0.897,1.278 C0.942,1.278 0.986,1.278 1.031,1.278 C1.031,1.233 1.031,1.188 1.031,1.143 C1.075,1.143 1.120,1.143 1.164,1.143 C1.164,1.098 1.164,1.054 1.164,1.009 C1.209,1.009 1.253,1.009 1.298,1.009 C1.298,0.964 1.298,0.919 1.298,0.874 C1.342,0.874 1.387,0.874 1.432,0.874 C1.432,0.829 1.432,0.784 1.432,0.740 C1.606,0.691 1.646,0.634 1.765,0.538 C1.765,0.515 1.765,0.493 1.765,0.470 C1.810,0.470 1.854,0.470 1.899,0.470 C1.899,0.448 1.899,0.425 1.899,0.403 C1.944,0.403 1.988,0.403 2.033,0.403 C2.033,0.381 2.033,0.358 2.033,0.336 C2.077,0.336 2.122,0.336 2.166,0.336 C2.166,0.313 2.166,0.291 2.166,0.268 C2.211,0.268 2.255,0.268 2.300,0.268 C2.300,0.246 2.300,0.224 2.300,0.201 C2.367,0.201 2.433,0.201 2.500,0.201 C2.522,0.156 2.545,0.112 2.567,0.067 C2.656,0.067 2.745,0.067 2.834,0.067 C2.834,0.044 2.834,0.022 2.834,-0.001 C3.457,-0.001 4.081,-0.001 4.704,-0.001 C4.704,0.022 4.704,0.044 4.704,0.067 C4.793,0.067 4.882,0.067 4.971,0.067 C4.971,0.089 4.971,0.112 4.971,0.134 C5.016,0.134 5.060,0.134 5.105,0.134 C5.105,0.156 5.105,0.179 5.105,0.201 C5.194,0.201 5.283,0.201 5.372,0.201 C5.394,0.246 5.416,0.291 5.439,0.336 C5.506,0.336 5.572,0.336 5.639,0.336 C5.684,0.403 5.728,0.470 5.773,0.538 C5.862,0.560 5.951,0.582 6.040,0.605 C6.040,0.627 6.040,0.650 6.040,0.672 C6.159,0.768 6.199,0.826 6.374,0.874 C6.374,0.919 6.374,0.964 6.374,1.009 C6.418,1.009 6.463,1.009 6.507,1.009 C6.507,1.054 6.507,1.098 6.507,1.143 C6.552,1.143 6.596,1.143 6.641,1.143 C6.641,1.188 6.641,1.233 6.641,1.278 C6.685,1.278 6.730,1.278 6.774,1.278 C6.774,1.323 6.774,1.367 6.774,1.412 C6.819,1.412 6.863,1.412 6.908,1.412 C6.908,1.457 6.908,1.502 6.908,1.547 C6.952,1.547 6.997,1.547 7.042,1.547 C7.042,1.592 7.042,1.637 7.042,1.682 C7.086,1.682 7.131,1.682 7.175,1.682 C7.175,1.726 7.175,1.771 7.175,1.816 C7.220,1.816 7.264,1.816 7.309,1.816 C7.309,1.861 7.309,1.906 7.309,1.951 C7.353,1.951 7.398,1.951 7.442,1.951 C7.442,1.996 7.442,2.041 7.442,2.085 C7.487,2.085 7.531,2.085 7.576,2.085 C7.576,2.130 7.576,2.175 7.576,2.220 C7.620,2.220 7.665,2.220 7.709,2.220 C7.709,2.265 7.709,2.310 7.709,2.354 C7.754,2.354 7.799,2.354 7.843,2.354 C7.843,2.399 7.843,2.444 7.843,2.489 C7.888,2.489 7.932,2.489 7.977,2.489 C7.977,2.534 7.977,2.579 7.977,2.624 C8.021,2.624 8.066,2.624 8.110,2.624 C8.110,2.668 8.110,2.713 8.110,2.758 C8.155,2.758 8.199,2.758 8.244,2.758 C8.244,2.803 8.244,2.848 8.244,2.893 C8.288,2.893 8.333,2.893 8.377,2.893 C8.377,2.938 8.377,2.983 8.377,3.027 C8.422,3.027 8.466,3.027 8.511,3.027 C8.511,3.072 8.511,3.117 8.511,3.162 C8.555,3.162 8.600,3.162 8.645,3.162 C8.645,3.207 8.645,3.252 8.645,3.296 C8.689,3.296 8.734,3.296 8.778,3.296 C8.778,3.341 8.778,3.386 8.778,3.431 C8.823,3.431 8.867,3.431 8.912,3.431 C8.912,3.476 8.912,3.521 8.912,3.565 C8.956,3.565 9.001,3.565 9.045,3.565 C9.045,3.610 9.045,3.655 9.045,3.700 C9.090,3.700 9.134,3.700 9.179,3.700 C9.179,3.745 9.179,3.790 9.179,3.835 C9.223,3.835 9.268,3.835 9.312,3.835 C9.312,3.879 9.312,3.924 9.312,3.969 C9.357,3.969 9.401,3.969 9.446,3.969 C9.446,4.014 9.446,4.059 9.446,4.104 C9.490,4.104 9.535,4.104 9.579,4.104 C9.579,4.149 9.579,4.194 9.579,4.239 C9.624,4.239 9.669,4.239 9.713,4.239 C9.713,4.283 9.713,4.328 9.713,4.373 C9.758,4.373 9.802,4.373 9.847,4.373 C9.847,4.418 9.847,4.463 9.847,4.507 C9.891,4.507 9.936,4.507 9.980,4.507 C9.980,4.552 9.980,4.597 9.980,4.642 C10.025,4.642 10.069,4.642 10.114,4.642 C10.114,4.687 10.114,4.732 10.114,4.777 C10.158,4.777 10.203,4.777 10.247,4.777 C10.247,4.822 10.247,4.867 10.247,4.911 C10.292,4.911 10.336,4.911 10.381,4.911 C10.381,4.956 10.381,5.001 10.381,5.046 C10.425,5.046 10.470,5.046 10.514,5.046 C10.514,5.091 10.514,5.136 10.514,5.181 C10.559,5.181 10.604,5.181 10.648,5.181 C10.648,5.225 10.648,5.270 10.648,5.315 C10.693,5.315 10.737,5.315 10.782,5.315 C10.782,5.360 10.782,5.405 10.782,5.450 C10.826,5.450 10.871,5.450 10.915,5.450 C10.915,5.494 10.915,5.539 10.915,5.584 C10.960,5.584 11.004,5.584 11.049,5.584 C11.049,5.629 11.049,5.674 11.049,5.719 C11.093,5.719 11.138,5.719 11.182,5.719 C11.182,5.764 11.182,5.808 11.182,5.853 C11.227,5.853 11.271,5.853 11.316,5.853 C11.316,5.898 11.316,5.943 11.316,5.988 C11.360,5.988 11.405,5.988 11.449,5.988 C11.449,6.033 11.449,6.078 11.449,6.123 C11.494,6.123 11.539,6.123 11.583,6.123 C11.583,6.168 11.583,6.212 11.583,6.257 C11.628,6.257 11.672,6.257 11.717,6.257 C11.717,6.302 11.717,6.347 11.717,6.392 C11.761,6.392 11.806,6.392 11.850,6.392 C11.850,6.436 11.850,6.481 11.850,6.526 C11.895,6.526 11.939,6.526 11.984,6.526 C11.984,6.571 11.984,6.616 11.984,6.661 C12.028,6.661 12.073,6.661 12.117,6.661 C12.117,6.706 12.117,6.750 12.117,6.795 C12.162,6.795 12.206,6.795 12.251,6.795 C12.251,6.840 12.251,6.885 12.251,6.930 C12.296,6.930 12.340,6.930 12.385,6.930 C12.385,6.975 12.385,7.020 12.385,7.064 C12.429,7.064 12.474,7.064 12.518,7.064 C12.518,7.109 12.518,7.154 12.518,7.199 C12.563,7.199 12.607,7.199 12.652,7.199 C12.652,7.244 12.652,7.289 12.652,7.334 C12.696,7.334 12.741,7.334 12.785,7.334 C12.785,7.379 12.785,7.423 12.785,7.468 C12.830,7.468 12.874,7.468 12.919,7.468 C12.919,7.513 12.919,7.558 12.919,7.603 C12.963,7.603 13.008,7.603 13.052,7.603 C13.052,7.648 13.052,7.692 13.052,7.737 C13.097,7.737 13.141,7.737 13.186,7.737 C13.186,7.782 13.186,7.827 13.186,7.872 C13.230,7.872 13.275,7.872 13.320,7.872 C13.320,7.917 13.320,7.962 13.320,8.006 C13.364,8.006 13.409,8.006 13.453,8.006 C13.453,8.051 13.453,8.096 13.453,8.141 C13.498,8.141 13.542,8.141 13.587,8.141 C13.587,8.186 13.587,8.231 13.587,8.276 C13.631,8.276 13.676,8.276 13.720,8.276 C13.720,8.321 13.720,8.365 13.720,8.410 C13.765,8.410 13.809,8.410 13.854,8.410 C13.854,8.455 13.854,8.500 13.854,8.545 C13.898,8.545 13.943,8.545 13.987,8.545 C13.987,8.590 13.987,8.634 13.987,8.679 C14.032,8.679 14.076,8.679 14.121,8.679 C14.121,8.724 14.121,8.769 14.121,8.814 C14.165,8.814 14.210,8.814 14.255,8.814 C14.255,8.859 14.255,8.904 14.255,8.949 C14.299,8.949 14.344,8.949 14.388,8.949 C14.388,8.993 14.388,9.038 14.388,9.083 C14.433,9.083 14.477,9.083 14.522,9.083 C14.522,9.128 14.522,9.173 14.522,9.218 C14.566,9.218 14.611,9.218 14.655,9.218 C14.655,9.263 14.655,9.307 14.655,9.353 C14.700,9.353 14.744,9.353 14.789,9.353 C14.789,9.397 14.789,9.442 14.789,9.487 C14.833,9.487 14.878,9.487 14.922,9.487 C14.922,9.532 14.922,9.577 14.922,9.621 C14.967,9.621 15.011,9.621 15.056,9.621 C15.056,9.666 15.056,9.711 15.056,9.756 C15.100,9.756 15.145,9.756 15.190,9.756 C15.190,9.801 15.190,9.846 15.190,9.891 C15.234,9.891 15.279,9.891 15.323,9.891 C15.323,9.935 15.323,9.981 15.323,10.025 C15.368,10.025 15.412,10.025 15.457,10.025 C15.457,10.070 15.457,10.115 15.457,10.160 C15.501,10.160 15.546,10.160 15.590,10.160 C15.590,10.205 15.590,10.250 15.590,10.294 C15.635,10.294 15.679,10.294 15.724,10.294 C15.724,10.339 15.724,10.384 15.724,10.429 C15.768,10.429 15.813,10.429 15.857,10.429 C15.857,10.474 15.857,10.519 15.857,10.563 C15.902,10.563 15.947,10.563 15.991,10.563 C15.991,10.608 15.991,10.653 15.991,10.698 C16.036,10.698 16.080,10.698 16.125,10.698 C16.125,10.743 16.125,10.787 16.125,10.832 C16.169,10.832 16.214,10.832 16.258,10.832 C16.258,10.877 16.258,10.922 16.258,10.967 C16.303,10.967 16.347,10.967 16.392,10.967 C16.392,11.012 16.392,11.057 16.392,11.102 C16.436,11.102 16.481,11.102 16.525,11.102 C16.525,11.146 16.525,11.191 16.525,11.236 C16.570,11.236 16.614,11.236 16.659,11.236 C16.659,11.281 16.659,11.326 16.659,11.371 C16.703,11.371 16.748,11.371 16.792,11.371 C16.792,11.416 16.792,11.460 16.792,11.506 C16.837,11.506 16.882,11.506 16.926,11.506 C16.926,11.550 16.926,11.595 16.926,11.640 C16.971,11.640 17.015,11.640 17.060,11.640 C17.060,11.685 17.060,11.730 17.060,11.774 C17.104,11.774 17.149,11.774 17.193,11.774 C17.193,11.819 17.193,11.864 17.193,11.909 C17.238,11.909 17.282,11.909 17.327,11.909 C17.327,11.954 17.327,11.999 17.327,12.044 C17.371,12.044 17.416,12.044 17.460,12.044 C17.460,12.088 17.460,12.134 17.460,12.178 C17.505,12.178 17.549,12.178 17.594,12.178 C17.594,12.223 17.594,12.268 17.594,12.313 C17.638,12.313 17.683,12.313 17.727,12.313 C17.727,12.358 17.727,12.403 17.727,12.448 C17.772,12.448 17.816,12.448 17.861,12.448 C17.861,12.492 17.861,12.537 17.861,12.582 C17.906,12.582 17.950,12.582 17.995,12.582 C17.995,12.627 17.995,12.672 17.995,12.717 C18.039,12.717 18.084,12.717 18.128,12.717 C18.128,12.761 18.128,12.806 18.128,12.851 C18.173,12.851 18.217,12.851 18.262,12.851 C18.262,12.896 18.262,12.941 18.262,12.986 C18.306,12.986 18.351,12.986 18.395,12.986 C18.395,13.031 18.395,13.076 18.395,13.120 C18.440,13.120 18.484,13.120 18.529,13.120 C18.529,13.165 18.529,13.210 18.529,13.255 C18.573,13.255 18.618,13.255 18.662,13.255 C18.662,13.300 18.662,13.345 18.662,13.389 C18.707,13.389 18.751,13.389 18.796,13.389 C18.796,13.435 18.796,13.479 18.796,13.524 C18.841,13.524 18.885,13.524 18.930,13.524 C18.930,13.569 18.930,13.614 18.930,13.659 C18.974,13.659 19.019,13.659 19.063,13.659 C19.063,13.703 19.063,13.748 19.063,13.793 C19.108,13.793 19.152,13.793 19.197,13.793 C19.197,13.838 19.197,13.883 19.197,13.928 C19.241,13.928 19.286,13.928 19.330,13.928 C19.330,13.972 19.330,14.017 19.330,14.062 C19.375,14.062 19.419,14.062 19.464,14.062 C19.464,14.107 19.464,14.152 19.464,14.197 C19.508,14.197 19.553,14.197 19.597,14.197 C19.597,14.241 19.597,14.287 19.597,14.331 C19.642,14.331 19.687,14.331 19.731,14.331 C19.731,14.376 19.731,14.421 19.731,14.466 C19.776,14.466 19.820,14.466 19.865,14.466 C19.865,14.511 19.865,14.556 19.865,14.601 C19.909,14.601 19.954,14.601 19.998,14.601 C19.998,14.645 19.998,14.690 19.998,14.735 C20.043,14.735 20.087,14.735 20.132,14.735 C20.132,14.780 20.132,14.825 20.132,14.870 C20.176,14.870 20.221,14.870 20.265,14.870 C20.265,14.915 20.265,14.959 20.265,15.004 C20.310,15.004 20.354,15.004 20.399,15.004 C20.399,15.049 20.399,15.094 20.399,15.139 C20.443,15.139 20.488,15.139 20.533,15.139 C20.533,15.184 20.533,15.229 20.533,15.273 C20.577,15.273 20.622,15.273 20.666,15.273 C20.666,15.318 20.666,15.363 20.666,15.408 C20.711,15.408 20.755,15.408 20.800,15.408 C20.800,15.453 20.800,15.498 20.800,15.543 C20.844,15.543 20.889,15.543 20.933,15.543 C20.933,15.588 20.933,15.632 20.933,15.677 C20.978,15.677 21.022,15.677 21.067,15.677 C21.067,15.722 21.067,15.767 21.067,15.812 C21.111,15.812 21.156,15.812 21.200,15.812 C21.200,15.857 21.200,15.901 21.200,15.946 C21.245,15.946 21.289,15.946 21.334,15.946 C21.334,15.991 21.334,16.036 21.334,16.081 C21.378,16.081 21.423,16.081 21.467,16.081 C21.467,16.126 21.467,16.171 21.467,16.216 C21.512,16.216 21.557,16.216 21.601,16.216 C21.601,16.260 21.601,16.305 21.601,16.350 C21.646,16.350 21.690,16.350 21.735,16.350 C21.735,16.395 21.735,16.440 21.735,16.485 C21.779,16.485 21.824,16.485 21.868,16.485 C21.868,16.530 21.868,16.574 21.868,16.619 C21.913,16.619 21.957,16.619 22.002,16.619 C22.002,16.664 22.002,16.709 22.002,16.754 C22.046,16.754 22.091,16.754 22.135,16.754 C22.135,16.799 22.135,16.843 22.135,16.888 C22.180,16.888 22.224,16.888 22.269,16.888 C22.269,16.933 22.269,16.978 22.269,17.023 C22.313,17.023 22.358,17.023 22.402,17.023 C22.402,17.068 22.402,17.113 22.402,17.158 C22.447,17.158 22.492,17.158 22.536,17.158 C22.536,17.202 22.536,17.247 22.536,17.292 C22.581,17.292 22.625,17.292 22.670,17.292 C22.670,17.337 22.670,17.382 22.670,17.427 C22.714,17.427 22.759,17.427 22.803,17.427 C22.803,17.472 22.803,17.517 22.803,17.561 C22.848,17.561 22.892,17.561 22.937,17.561 C22.937,17.606 22.937,17.651 22.937,17.696 C22.981,17.696 23.026,17.696 23.070,17.696 C23.070,17.741 23.070,17.786 23.070,17.830 C23.115,17.830 23.159,17.830 23.204,17.830 C23.204,17.875 23.204,17.920 23.204,17.965 C23.248,17.965 23.293,17.965 23.338,17.965 C23.338,18.010 23.338,18.054 23.338,18.099 C23.382,18.099 23.427,18.099 23.471,18.099 C23.471,18.144 23.471,18.189 23.471,18.234 C23.516,18.234 23.560,18.234 23.605,18.234 C23.605,18.279 23.605,18.324 23.605,18.369 C23.649,18.369 23.694,18.369 23.738,18.369 C23.738,18.414 23.738,18.458 23.738,18.503 C23.783,18.503 23.827,18.503 23.872,18.503 C23.872,18.548 23.872,18.593 23.872,18.638 C23.916,18.638 23.961,18.638 24.005,18.638 C24.005,18.683 24.005,18.728 24.005,18.773 C24.050,18.773 24.094,18.773 24.139,18.773 C24.139,18.817 24.139,18.862 24.139,18.907 C24.184,18.907 24.228,18.907 24.273,18.907 C24.273,18.952 24.273,18.997 24.273,19.041 C24.317,19.041 24.362,19.041 24.406,19.041 C24.406,19.086 24.406,19.131 24.406,19.176 C24.451,19.176 24.495,19.176 24.540,19.176 C24.540,19.221 24.540,19.266 24.540,19.311 C24.584,19.311 24.629,19.311 24.673,19.311 C24.673,19.355 24.673,19.400 24.673,19.445 C24.718,19.445 24.762,19.445 24.807,19.445 C24.807,19.490 24.807,19.535 24.807,19.580 C24.851,19.580 24.896,19.580 24.940,19.580 C24.940,19.625 24.940,19.670 24.940,19.715 C24.985,19.715 25.029,19.715 25.074,19.715 C25.074,19.759 25.074,19.804 25.074,19.849 C25.119,19.849 25.163,19.849 25.208,19.849 C25.208,19.894 25.208,19.939 25.208,19.984 C25.252,19.984 25.297,19.984 25.341,19.984 C25.341,20.028 25.341,20.073 25.341,20.118 C25.386,20.118 25.430,20.118 25.475,20.118 C25.475,20.163 25.475,20.208 25.475,20.253 C25.519,20.253 25.564,20.253 25.608,20.253 C25.608,20.298 25.608,20.343 25.608,20.387 C25.653,20.387 25.697,20.387 25.742,20.387 C25.742,20.432 25.742,20.477 25.742,20.522 C25.786,20.522 25.831,20.522 25.875,20.522 C25.875,20.567 25.875,20.612 25.875,20.657 C25.920,20.657 25.964,20.657 26.009,20.657 C26.009,20.701 26.009,20.746 26.009,20.791 C26.053,20.791 26.098,20.791 26.143,20.791 C26.143,20.836 26.143,20.881 26.143,20.926 C26.187,20.926 26.232,20.926 26.276,20.926 C26.276,20.971 26.276,21.015 26.276,21.060 C26.321,21.060 26.365,21.060 26.410,21.060 C26.410,21.105 26.410,21.150 26.410,21.195 C26.454,21.195 26.499,21.195 26.543,21.195 C26.543,21.239 26.543,21.284 26.543,21.329 C26.588,21.329 26.632,21.329 26.677,21.329 C26.677,21.374 26.677,21.419 26.677,21.464 C26.721,21.464 26.766,21.464 26.810,21.464 C26.810,21.509 26.810,21.554 26.810,21.598 C26.855,21.598 26.899,21.598 26.944,21.598 C26.944,21.643 26.944,21.688 26.944,21.733 C26.988,21.733 27.033,21.733 27.078,21.733 C27.078,21.778 27.078,21.823 27.078,21.868 C27.122,21.868 27.167,21.868 27.211,21.868 C27.211,21.912 27.211,21.957 27.211,22.002 C27.256,22.002 27.300,22.002 27.345,22.002 C27.345,22.047 27.345,22.092 27.345,22.137 C27.389,22.137 27.434,22.137 27.478,22.137 C27.478,22.181 27.478,22.226 27.478,22.271 C27.523,22.271 27.567,22.271 27.612,22.271 C27.612,22.316 27.612,22.361 27.612,22.406 C27.656,22.406 27.701,22.406 27.745,22.406 C27.745,22.451 27.745,22.496 27.745,22.540 C27.790,22.540 27.835,22.540 27.879,22.540 C27.879,22.585 27.879,22.630 27.879,22.675 C27.924,22.675 27.968,22.675 28.013,22.675 C28.013,22.720 28.013,22.765 28.013,22.810 C28.057,22.810 28.102,22.810 28.146,22.810 C28.146,22.855 28.146,22.900 28.146,22.944 C28.191,22.944 28.235,22.944 28.280,22.944 C28.280,22.989 28.280,23.034 28.280,23.079 C28.324,23.079 28.369,23.079 28.413,23.079 C28.413,23.124 28.413,23.168 28.413,23.213 C28.458,23.213 28.502,23.213 28.547,23.213 C28.547,23.258 28.547,23.303 28.547,23.348 C28.591,23.348 28.636,23.348 28.680,23.348 C28.680,23.393 28.680,23.438 28.680,23.482 C28.725,23.482 28.770,23.482 28.814,23.482 C28.814,23.528 28.814,23.572 28.814,23.617 C29.076,23.666 29.087,23.665 29.348,23.617 C29.348,23.572 29.348,23.528 29.348,23.482 C29.393,23.482 29.437,23.482 29.482,23.482 C29.482,23.438 29.482,23.393 29.482,23.348 C29.526,23.348 29.571,23.348 29.615,23.348 C29.615,23.303 29.615,23.258 29.615,23.213 C29.660,23.213 29.704,23.213 29.749,23.213 C29.749,23.168 29.749,23.124 29.749,23.079 C29.794,23.079 29.838,23.079 29.883,23.079 C29.883,23.034 29.883,22.989 29.883,22.944 C29.927,22.944 29.972,22.944 30.016,22.944 C30.016,22.900 30.016,22.855 30.016,22.810 C30.061,22.810 30.105,22.810 30.150,22.810 C30.150,22.765 30.150,22.720 30.150,22.675 C30.194,22.675 30.239,22.675 30.283,22.675 C30.283,22.630 30.283,22.585 30.283,22.540 C30.328,22.540 30.372,22.540 30.417,22.540 C30.417,22.496 30.417,22.451 30.417,22.406 C30.461,22.406 30.506,22.406 30.550,22.406 C30.550,22.361 30.550,22.316 30.550,22.271 C30.595,22.271 30.639,22.271 30.684,22.271 C30.684,22.226 30.684,22.181 30.684,22.137 C30.729,22.137 30.773,22.137 30.818,22.137 C30.818,22.092 30.818,22.047 30.818,22.002 C30.862,22.002 30.907,22.002 30.951,22.002 C30.951,21.957 30.951,21.912 30.951,21.868 C30.996,21.868 31.040,21.868 31.085,21.868 C31.085,21.823 31.085,21.778 31.085,21.733 C31.129,21.733 31.174,21.733 31.218,21.733 C31.218,21.688 31.218,21.643 31.218,21.598 C31.263,21.598 31.307,21.598 31.352,21.598 C31.352,21.554 31.352,21.509 31.352,21.464 C31.396,21.464 31.441,21.464 31.486,21.464 C31.486,21.419 31.486,21.374 31.486,21.329 C31.530,21.329 31.575,21.329 31.619,21.329 C31.619,21.284 31.619,21.239 31.619,21.195 C31.664,21.195 31.708,21.195 31.753,21.195 C31.753,21.150 31.753,21.105 31.753,21.060 C31.797,21.060 31.842,21.060 31.886,21.060 C31.886,21.015 31.886,20.971 31.886,20.926 C31.931,20.926 31.975,20.926 32.020,20.926 C32.020,20.881 32.020,20.836 32.020,20.791 C32.064,20.791 32.109,20.791 32.153,20.791 C32.153,20.746 32.153,20.701 32.153,20.657 C32.198,20.657 32.242,20.657 32.287,20.657 C32.287,20.612 32.287,20.567 32.287,20.522 C32.331,20.522 32.376,20.522 32.421,20.522 C32.421,20.477 32.421,20.432 32.421,20.387 C32.465,20.387 32.510,20.387 32.554,20.387 C32.554,20.343 32.554,20.298 32.554,20.253 C32.599,20.253 32.643,20.253 32.688,20.253 C32.688,20.208 32.688,20.163 32.688,20.118 C32.732,20.118 32.777,20.118 32.821,20.118 C32.821,20.073 32.821,20.028 32.821,19.984 C32.866,19.984 32.910,19.984 32.955,19.984 C32.955,19.939 32.955,19.894 32.955,19.849 C32.999,19.849 33.044,19.849 33.088,19.849 C33.088,19.804 33.088,19.759 33.088,19.715 C33.133,19.715 33.177,19.715 33.222,19.715 C33.222,19.670 33.222,19.625 33.222,19.580 C33.266,19.580 33.311,19.580 33.356,19.580 C33.356,19.535 33.356,19.490 33.356,19.445 C33.400,19.445 33.445,19.445 33.489,19.445 C33.489,19.400 33.489,19.355 33.489,19.311 C33.534,19.311 33.578,19.311 33.623,19.311 C33.623,19.266 33.623,19.221 33.623,19.176 C33.667,19.176 33.712,19.176 33.756,19.176 C33.756,19.131 33.756,19.086 33.756,19.041 C33.801,19.041 33.845,19.041 33.890,19.041 C33.890,18.997 33.890,18.952 33.890,18.907 C33.934,18.907 33.979,18.907 34.023,18.907 C34.023,18.862 34.023,18.817 34.023,18.773 C34.068,18.773 34.112,18.773 34.157,18.773 C34.157,18.728 34.157,18.683 34.157,18.638 C34.201,18.638 34.246,18.638 34.290,18.638 C34.290,18.593 34.290,18.548 34.290,18.503 C34.335,18.503 34.380,18.503 34.424,18.503 C34.424,18.458 34.424,18.414 34.424,18.369 C34.469,18.369 34.513,18.369 34.558,18.369 C34.558,18.324 34.558,18.279 34.558,18.234 C34.602,18.234 34.647,18.234 34.691,18.234 C34.691,18.189 34.691,18.144 34.691,18.099 C34.736,18.099 34.780,18.099 34.825,18.099 C34.825,18.054 34.825,18.010 34.825,17.965 C34.869,17.965 34.914,17.965 34.958,17.965 C34.958,17.920 34.958,17.875 34.958,17.830 C35.003,17.830 35.047,17.830 35.092,17.830 C35.092,17.786 35.092,17.741 35.092,17.696 C35.136,17.696 35.181,17.696 35.226,17.696 C35.226,17.651 35.226,17.606 35.226,17.561 C35.270,17.561 35.315,17.561 35.359,17.561 C35.359,17.517 35.359,17.472 35.359,17.427 C35.404,17.427 35.448,17.427 35.493,17.427 C35.493,17.382 35.493,17.337 35.493,17.292 C35.537,17.292 35.582,17.292 35.626,17.292 C35.626,17.247 35.626,17.202 35.626,17.158 C35.671,17.158 35.715,17.158 35.760,17.158 C35.760,17.113 35.760,17.068 35.760,17.023 C35.804,17.023 35.849,17.023 35.893,17.023 C35.893,16.978 35.893,16.933 35.893,16.888 C35.938,16.888 35.982,16.888 36.027,16.888 C36.027,16.843 36.027,16.799 36.027,16.754 C36.072,16.754 36.116,16.754 36.161,16.754 C36.161,16.709 36.161,16.664 36.161,16.619 C36.205,16.619 36.250,16.619 36.294,16.619 C36.294,16.574 36.294,16.530 36.294,16.485 C36.339,16.485 36.383,16.485 36.428,16.485 C36.428,16.440 36.428,16.395 36.428,16.350 C36.472,16.350 36.517,16.350 36.561,16.350 C36.561,16.305 36.561,16.260 36.561,16.216 C36.606,16.216 36.650,16.216 36.695,16.216 C36.695,16.171 36.695,16.126 36.695,16.081 C36.739,16.081 36.784,16.081 36.828,16.081 C36.828,16.036 36.828,15.991 36.828,15.946 C36.873,15.946 36.917,15.946 36.962,15.946 C36.962,15.901 36.962,15.857 36.962,15.812 C37.007,15.812 37.051,15.812 37.096,15.812 C37.096,15.767 37.096,15.722 37.096,15.677 C37.140,15.677 37.185,15.677 37.229,15.677 C37.229,15.632 37.229,15.588 37.229,15.543 C37.274,15.543 37.318,15.543 37.363,15.543 C37.363,15.498 37.363,15.453 37.363,15.408 C37.407,15.408 37.452,15.408 37.496,15.408 C37.496,15.363 37.496,15.318 37.496,15.273 C37.541,15.273 37.585,15.273 37.630,15.273 C37.630,15.229 37.630,15.184 37.630,15.139 C37.674,15.139 37.719,15.139 37.763,15.139 C37.763,15.094 37.763,15.049 37.763,15.004 C37.808,15.004 37.852,15.004 37.897,15.004 C37.897,14.959 37.897,14.915 37.897,14.870 C37.941,14.870 37.986,14.870 38.031,14.870 C38.031,14.825 38.031,14.780 38.031,14.735 C38.075,14.735 38.120,14.735 38.164,14.735 C38.164,14.690 38.164,14.645 38.164,14.601 C38.209,14.601 38.253,14.601 38.298,14.601 C38.298,14.556 38.298,14.511 38.298,14.466 C38.342,14.466 38.387,14.466 38.431,14.466 C38.431,14.421 38.431,14.376 38.431,14.331 C38.476,14.331 38.520,14.331 38.565,14.331 C38.565,14.287 38.565,14.241 38.565,14.197 C38.609,14.197 38.654,14.197 38.698,14.197 C38.698,14.152 38.698,14.107 38.698,14.062 C38.743,14.062 38.787,14.062 38.832,14.062 C38.832,14.017 38.832,13.972 38.832,13.928 C38.877,13.928 38.921,13.928 38.966,13.928 C38.966,13.883 38.966,13.838 38.966,13.793 C39.010,13.793 39.055,13.793 39.099,13.793 C39.099,13.748 39.099,13.703 39.099,13.659 C39.144,13.659 39.188,13.659 39.233,13.659 C39.233,13.614 39.233,13.569 39.233,13.524 C39.277,13.524 39.322,13.524 39.366,13.524 C39.366,13.479 39.366,13.435 39.366,13.389 C39.411,13.389 39.455,13.389 39.500,13.389 C39.500,13.345 39.500,13.300 39.500,13.255 C39.544,13.255 39.589,13.255 39.634,13.255 C39.634,13.210 39.634,13.165 39.634,13.120 C39.678,13.120 39.723,13.120 39.767,13.120 C39.767,13.076 39.767,13.031 39.767,12.986 C39.812,12.986 39.856,12.986 39.901,12.986 C39.901,12.941 39.901,12.896 39.901,12.851 C39.945,12.851 39.990,12.851 40.034,12.851 C40.034,12.806 40.034,12.761 40.034,12.717 C40.079,12.717 40.123,12.717 40.168,12.717 C40.168,12.672 40.168,12.627 40.168,12.582 C40.212,12.582 40.257,12.582 40.301,12.582 C40.301,12.537 40.301,12.492 40.301,12.448 C40.346,12.448 40.390,12.448 40.435,12.448 C40.435,12.403 40.435,12.358 40.435,12.313 C40.479,12.313 40.524,12.313 40.568,12.313 C40.568,12.268 40.568,12.223 40.568,12.178 C40.613,12.178 40.658,12.178 40.702,12.178 C40.702,12.134 40.702,12.088 40.702,12.044 C40.747,12.044 40.791,12.044 40.836,12.044 C40.836,11.999 40.836,11.954 40.836,11.909 C40.880,11.909 40.925,11.909 40.969,11.909 C40.969,11.864 40.969,11.819 40.969,11.774 C41.014,11.774 41.058,11.774 41.103,11.774 C41.103,11.730 41.103,11.685 41.103,11.640 C41.147,11.640 41.192,11.640 41.236,11.640 C41.236,11.595 41.236,11.550 41.236,11.506 C41.281,11.506 41.325,11.506 41.370,11.506 C41.370,11.460 41.370,11.416 41.370,11.371 C41.414,11.371 41.459,11.371 41.503,11.371 C41.503,11.326 41.503,11.281 41.503,11.236 C41.548,11.236 41.593,11.236 41.637,11.236 C41.637,11.191 41.637,11.146 41.637,11.102 C41.682,11.102 41.726,11.102 41.771,11.102 C41.771,11.057 41.771,11.012 41.771,10.967 C41.815,10.967 41.860,10.967 41.904,10.967 C41.904,10.922 41.904,10.877 41.904,10.832 C41.949,10.832 41.993,10.832 42.038,10.832 C42.038,10.787 42.038,10.743 42.038,10.698 C42.082,10.698 42.127,10.698 42.171,10.698 C42.171,10.653 42.171,10.608 42.171,10.563 C42.216,10.563 42.260,10.563 42.305,10.563 C42.305,10.519 42.305,10.474 42.305,10.429 C42.349,10.429 42.394,10.429 42.438,10.429 C42.438,10.384 42.438,10.339 42.438,10.294 C42.483,10.294 42.528,10.294 42.572,10.294 C42.572,10.250 42.572,10.205 42.572,10.160 C42.617,10.160 42.661,10.160 42.706,10.160 C42.706,10.115 42.706,10.070 42.706,10.025 C42.750,10.025 42.795,10.025 42.839,10.025 C42.839,9.981 42.839,9.935 42.839,9.891 C42.884,9.891 42.928,9.891 42.973,9.891 C42.973,9.846 42.973,9.801 42.973,9.756 C43.017,9.756 43.062,9.756 43.106,9.756 C43.106,9.711 43.106,9.666 43.106,9.621 C43.151,9.621 43.195,9.621 43.240,9.621 C43.240,9.577 43.240,9.532 43.240,9.487 C43.284,9.487 43.329,9.487 43.374,9.487 C43.374,9.442 43.374,9.397 43.374,9.353 C43.418,9.353 43.463,9.353 43.507,9.353 C43.507,9.307 43.507,9.263 43.507,9.218 C43.552,9.218 43.596,9.218 43.641,9.218 C43.641,9.173 43.641,9.128 43.641,9.083 C43.685,9.083 43.730,9.083 43.774,9.083 C43.774,9.038 43.774,8.993 43.774,8.949 C43.819,8.949 43.863,8.949 43.908,8.949 C43.908,8.904 43.908,8.859 43.908,8.814 C43.952,8.814 43.997,8.814 44.041,8.814 C44.041,8.769 44.041,8.724 44.041,8.679 C44.086,8.679 44.130,8.679 44.175,8.679 C44.175,8.634 44.175,8.590 44.175,8.545 C44.219,8.545 44.264,8.545 44.309,8.545 C44.309,8.500 44.309,8.455 44.309,8.410 C44.353,8.410 44.398,8.410 44.442,8.410 C44.442,8.365 44.442,8.321 44.442,8.276 C44.487,8.276 44.531,8.276 44.576,8.276 C44.576,8.231 44.576,8.186 44.576,8.141 C44.620,8.141 44.665,8.141 44.709,8.141 C44.709,8.096 44.709,8.051 44.709,8.006 C44.754,8.006 44.798,8.006 44.843,8.006 C44.843,7.962 44.843,7.917 44.843,7.872 C44.887,7.872 44.932,7.872 44.976,7.872 C44.976,7.827 44.976,7.782 44.976,7.737 C45.021,7.737 45.065,7.737 45.110,7.737 C45.110,7.692 45.110,7.648 45.110,7.603 C45.154,7.603 45.199,7.603 45.244,7.603 C45.244,7.558 45.244,7.513 45.244,7.468 C45.288,7.468 45.333,7.468 45.377,7.468 C45.377,7.423 45.377,7.379 45.377,7.334 C45.422,7.334 45.466,7.334 45.511,7.334 C45.511,7.289 45.511,7.244 45.511,7.199 C45.555,7.199 45.600,7.199 45.644,7.199 C45.644,7.154 45.644,7.109 45.644,7.064 C45.689,7.064 45.733,7.064 45.778,7.064 C45.778,7.020 45.778,6.975 45.778,6.930 C45.822,6.930 45.867,6.930 45.911,6.930 C45.911,6.885 45.911,6.840 45.911,6.795 C45.956,6.795 46.000,6.795 46.045,6.795 C46.045,6.750 46.045,6.706 46.045,6.661 C46.089,6.661 46.134,6.661 46.178,6.661 C46.178,6.616 46.178,6.571 46.178,6.526 C46.223,6.526 46.268,6.526 46.312,6.526 C46.312,6.481 46.312,6.436 46.312,6.392 C46.357,6.392 46.401,6.392 46.446,6.392 C46.446,6.347 46.446,6.302 46.446,6.257 C46.490,6.257 46.535,6.257 46.579,6.257 C46.579,6.212 46.579,6.168 46.579,6.123 C46.624,6.123 46.668,6.123 46.713,6.123 C46.713,6.078 46.713,6.033 46.713,5.988 C46.757,5.988 46.802,5.988 46.846,5.988 C46.846,5.943 46.846,5.898 46.846,5.853 C46.891,5.853 46.936,5.853 46.980,5.853 C46.980,5.808 46.980,5.764 46.980,5.719 C47.025,5.719 47.069,5.719 47.114,5.719 C47.114,5.674 47.114,5.629 47.114,5.584 C47.158,5.584 47.203,5.584 47.247,5.584 C47.247,5.539 47.247,5.494 47.247,5.450 C47.292,5.450 47.336,5.450 47.381,5.450 C47.381,5.405 47.381,5.360 47.381,5.315 C47.425,5.315 47.470,5.315 47.514,5.315 C47.514,5.270 47.514,5.225 47.514,5.181 C47.559,5.181 47.603,5.181 47.648,5.181 C47.648,5.136 47.648,5.091 47.648,5.046 C47.692,5.046 47.737,5.046 47.781,5.046 C47.781,5.001 47.781,4.956 47.781,4.911 C47.826,4.911 47.871,4.911 47.915,4.911 C47.915,4.867 47.915,4.822 47.915,4.777 C47.960,4.777 48.004,4.777 48.049,4.777 C48.049,4.732 48.049,4.687 48.049,4.642 C48.093,4.642 48.138,4.642 48.182,4.642 C48.182,4.597 48.182,4.552 48.182,4.507 C48.227,4.507 48.271,4.507 48.316,4.507 C48.316,4.463 48.316,4.418 48.316,4.373 C48.360,4.373 48.405,4.373 48.449,4.373 C48.449,4.328 48.449,4.283 48.449,4.239 C48.494,4.239 48.538,4.239 48.583,4.239 C48.583,4.194 48.583,4.149 48.583,4.104 C48.627,4.104 48.672,4.104 48.716,4.104 C48.716,4.059 48.716,4.014 48.716,3.969 C48.761,3.969 48.805,3.969 48.850,3.969 C48.850,3.924 48.850,3.879 48.850,3.835 C48.895,3.835 48.939,3.835 48.984,3.835 C48.984,3.790 48.984,3.745 48.984,3.700 C49.028,3.700 49.073,3.700 49.117,3.700 C49.117,3.655 49.117,3.610 49.117,3.565 C49.162,3.565 49.206,3.565 49.251,3.565 C49.251,3.521 49.251,3.476 49.251,3.431 C49.295,3.431 49.340,3.431 49.384,3.431 C49.384,3.386 49.384,3.341 49.384,3.296 C49.429,3.296 49.473,3.296 49.518,3.296 C49.518,3.252 49.518,3.207 49.518,3.162 C49.562,3.162 49.607,3.162 49.651,3.162 C49.651,3.117 49.651,3.072 49.651,3.027 C49.696,3.027 49.740,3.027 49.785,3.027 C49.785,2.983 49.785,2.938 49.785,2.893 C49.830,2.893 49.874,2.893 49.919,2.893 C49.919,2.848 49.919,2.803 49.919,2.758 C49.963,2.758 50.008,2.758 50.052,2.758 C50.052,2.713 50.052,2.668 50.052,2.624 C50.097,2.624 50.141,2.624 50.186,2.624 C50.186,2.579 50.186,2.534 50.186,2.489 C50.230,2.489 50.275,2.489 50.319,2.489 C50.319,2.444 50.319,2.399 50.319,2.354 C50.364,2.354 50.408,2.354 50.453,2.354 C50.453,2.310 50.453,2.265 50.453,2.220 C50.497,2.220 50.542,2.220 50.586,2.220 C50.586,2.175 50.586,2.130 50.586,2.085 C50.631,2.085 50.676,2.085 50.720,2.085 C50.720,2.041 50.720,1.996 50.720,1.951 C50.765,1.951 50.809,1.951 50.854,1.951 C50.854,1.906 50.854,1.861 50.854,1.816 C50.898,1.816 50.943,1.816 50.987,1.816 C50.987,1.771 50.987,1.726 50.987,1.682 C51.032,1.682 51.076,1.682 51.121,1.682 C51.121,1.637 51.121,1.592 51.121,1.547 C51.165,1.547 51.210,1.547 51.254,1.547 C51.254,1.502 51.254,1.457 51.254,1.412 C51.299,1.412 51.343,1.412 51.388,1.412 C51.388,1.367 51.388,1.323 51.388,1.278 C51.432,1.278 51.477,1.278 51.522,1.278 C51.522,1.233 51.522,1.188 51.522,1.143 C51.566,1.143 51.611,1.143 51.655,1.143 C51.655,1.098 51.655,1.054 51.655,1.009 C51.700,1.009 51.744,1.009 51.789,1.009 C51.789,0.964 51.789,0.919 51.789,0.874 C51.833,0.874 51.878,0.874 51.922,0.874 C51.922,0.829 51.922,0.784 51.922,0.740 C52.100,0.690 52.132,0.632 52.256,0.538 C52.256,0.515 52.256,0.493 52.256,0.470 C52.323,0.470 52.390,0.470 52.456,0.470 C52.479,0.425 52.501,0.381 52.523,0.336 C52.590,0.336 52.657,0.336 52.724,0.336 C52.746,0.291 52.768,0.246 52.790,0.201 C52.879,0.201 52.969,0.201 53.058,0.201 C53.058,0.179 53.058,0.156 53.058,0.134 C53.102,0.134 53.147,0.134 53.191,0.134 C53.191,0.112 53.191,0.089 53.191,0.067 C53.280,0.067 53.369,0.067 53.458,0.067 C53.458,0.044 53.458,0.022 53.458,-0.001 C54.037,-0.001 54.616,-0.001 55.195,-0.001 C55.195,0.022 55.195,0.044 55.195,0.067 C55.284,0.067 55.373,0.067 55.462,0.067 C55.462,0.089 55.462,0.112 55.462,0.134 C55.506,0.134 55.551,0.134 55.595,0.134 C55.595,0.156 55.595,0.179 55.595,0.201 C55.685,0.201 55.774,0.201 55.863,0.201 C55.885,0.246 55.907,0.291 55.929,0.336 C55.996,0.336 56.063,0.336 56.130,0.336 C56.152,0.381 56.174,0.425 56.197,0.470 C56.263,0.470 56.330,0.470 56.397,0.470 C56.397,0.493 56.397,0.515 56.397,0.538 C56.521,0.632 56.553,0.690 56.731,0.740 C56.731,0.784 56.731,0.829 56.731,0.874 C56.775,0.874 56.820,0.874 56.864,0.874 C56.864,0.919 56.864,0.964 56.864,1.009 C56.909,1.009 56.953,1.009 56.998,1.009 C56.998,1.054 56.998,1.098 56.998,1.143 C57.042,1.143 57.087,1.143 57.132,1.143 C57.132,1.188 57.132,1.233 57.132,1.278 C57.176,1.278 57.221,1.278 57.265,1.278 C57.314,1.457 57.372,1.489 57.465,1.614 C57.488,1.614 57.510,1.614 57.532,1.614 C57.532,1.682 57.532,1.749 57.532,1.816 C57.577,1.839 57.621,1.861 57.666,1.884 C57.666,1.951 57.666,2.018 57.666,2.085 C57.710,2.108 57.755,2.130 57.799,2.153 C57.799,2.242 57.799,2.332 57.799,2.422 C57.822,2.422 57.844,2.422 57.866,2.422 C57.866,2.467 57.866,2.511 57.866,2.556 C57.888,2.556 57.911,2.556 57.933,2.556 C57.933,2.646 57.933,2.736 57.933,2.825 C57.955,2.825 57.977,2.825 58.000,2.825 C58.000,3.453 58.000,4.082 58.000,4.709 C57.977,4.709 57.955,4.709 57.933,4.709 C57.933,4.799 57.933,4.889 57.933,4.979 C57.888,5.001 57.844,5.023 57.799,5.046 C57.799,5.113 57.799,5.181 57.799,5.248 C57.755,5.270 57.710,5.293 57.666,5.315 C57.666,5.382 57.666,5.450 57.666,5.517 C57.621,5.539 57.577,5.562 57.532,5.584 C57.532,5.651 57.532,5.719 57.532,5.786 C57.510,5.786 57.488,5.786 57.465,5.786 C57.372,5.911 57.314,5.944 57.265,6.123 Z"/>
</svg>