<svg 
 xmlns="http://www.w3.org/2000/svg"
 xmlns:xlink="http://www.w3.org/1999/xlink"
 width="68px" height="75px">
<defs>
<filter filterUnits="userSpaceOnUse" id="Filter_0" x="8px" y="8px" width="56px" height="62px"  >
    <feOffset in="SourceAlpha" dx="2" dy="3.464" />
    <feGaussianBlur result="blurOut" stdDeviation="1.414" />
    <feFlood flood-color="rgb(21, 21, 21)" result="floodOut" />
    <feComposite operator="atop" in="floodOut" in2="blurOut" />
    <feComponentTransfer><feFuncA type="linear" slope="0.07"/></feComponentTransfer>
    <feMerge>
    <feMergeNode/>
    <feMergeNode in="SourceGraphic"/>
  </feMerge>
</filter>

</defs>
<path fill-rule="evenodd"  fill="rgb(215, 243, 239)"
 d="M5.000,-0.000 L63.000,-0.000 C65.761,-0.000 68.000,2.239 68.000,5.000 L68.000,70.000 C68.000,72.761 65.761,75.000 63.000,75.000 L5.000,75.000 C2.239,75.000 -0.000,72.761 -0.000,70.000 L-0.000,5.000 C-0.000,2.239 2.239,-0.000 5.000,-0.000 Z"/>
<g filter="url(#Filter_0)">
<path fill-rule="evenodd"  fill="rgb(255, 255, 255)"
 d="M13.000,8.000 L55.000,8.000 C57.761,8.000 60.000,10.239 60.000,13.000 L60.000,60.000 C60.000,62.761 57.761,65.000 55.000,65.000 L13.000,65.000 C10.239,65.000 8.000,62.761 8.000,60.000 L8.000,13.000 C8.000,10.239 10.239,8.000 13.000,8.000 Z"/>
</g>
<path fill-rule="evenodd"  fill="rgb(86, 193, 178)"
 d="M19.382,41.834 C19.405,41.834 19.429,41.834 19.452,41.834 C19.452,41.811 19.452,41.788 19.452,41.765 C19.475,41.765 19.498,41.765 19.521,41.765 C19.521,41.742 19.521,41.719 19.521,41.696 C19.544,41.696 19.567,41.696 19.590,41.696 C19.590,41.672 19.590,41.649 19.590,41.626 C19.613,41.626 19.636,41.626 19.659,41.626 C19.659,41.603 19.659,41.580 19.659,41.557 C19.682,41.557 19.705,41.557 19.728,41.557 C19.728,41.534 19.728,41.511 19.728,41.488 C19.751,41.488 19.774,41.488 19.797,41.488 C19.797,41.465 19.797,41.442 19.797,41.418 C19.820,41.418 19.843,41.418 19.866,41.418 C19.866,41.395 19.866,41.372 19.866,41.349 C19.889,41.349 19.912,41.349 19.935,41.349 C19.935,41.326 19.935,41.303 19.935,41.280 C19.958,41.280 19.981,41.280 20.004,41.280 C20.004,41.257 20.004,41.233 20.004,41.210 C20.027,41.210 20.051,41.210 20.074,41.210 C20.074,41.187 20.074,41.164 20.074,41.141 C20.097,41.141 20.120,41.141 20.143,41.141 C20.143,41.118 20.143,41.095 20.143,41.071 C20.166,41.071 20.189,41.071 20.212,41.071 C20.212,41.048 20.212,41.025 20.212,41.002 C20.235,41.002 20.258,41.002 20.281,41.002 C20.281,40.979 20.281,40.956 20.281,40.933 C20.304,40.933 20.327,40.933 20.350,40.933 C20.350,40.910 20.350,40.887 20.350,40.864 C20.373,40.864 20.396,40.864 20.419,40.864 C20.419,40.840 20.419,40.817 20.419,40.794 C20.442,40.794 20.465,40.794 20.488,40.794 C20.488,40.771 20.488,40.748 20.488,40.725 C20.511,40.725 20.534,40.725 20.557,40.725 C20.557,40.702 20.557,40.679 20.557,40.655 C20.580,40.655 20.603,40.655 20.626,40.655 C20.626,40.632 20.626,40.609 20.626,40.586 C20.650,40.586 20.673,40.586 20.696,40.586 C20.696,40.563 20.696,40.540 20.696,40.517 C20.719,40.517 20.742,40.517 20.765,40.517 C20.765,40.494 20.765,40.470 20.765,40.447 C20.788,40.447 20.811,40.447 20.834,40.447 C20.834,40.424 20.834,40.401 20.834,40.378 C20.857,40.378 20.880,40.378 20.903,40.378 C20.903,40.355 20.903,40.332 20.903,40.309 C20.926,40.309 20.949,40.309 20.972,40.309 C20.972,40.286 20.972,40.262 20.972,40.239 C20.995,40.239 21.018,40.239 21.041,40.239 C21.041,40.216 21.041,40.193 21.041,40.170 C21.064,40.170 21.087,40.170 21.110,40.170 C21.110,40.147 21.110,40.124 21.110,40.101 C21.133,40.101 21.156,40.101 21.179,40.101 C21.179,40.078 21.179,40.054 21.179,40.031 C21.202,40.031 21.225,40.031 21.248,40.031 C21.248,40.008 21.248,39.985 21.248,39.962 C21.272,39.962 21.295,39.962 21.318,39.962 C21.318,39.939 21.318,39.916 21.318,39.893 C21.341,39.893 21.364,39.893 21.387,39.893 C21.387,39.870 21.387,39.846 21.387,39.823 C21.410,39.823 21.433,39.823 21.456,39.823 C21.456,39.800 21.456,39.777 21.456,39.754 C21.479,39.754 21.502,39.754 21.525,39.754 C21.525,39.731 21.525,39.708 21.525,39.684 C21.548,39.684 21.571,39.684 21.594,39.684 C21.594,39.662 21.594,39.638 21.594,39.615 C21.617,39.615 21.640,39.615 21.663,39.615 C21.663,39.592 21.663,39.569 21.663,39.546 C21.686,39.546 21.709,39.546 21.732,39.546 C21.732,39.523 21.732,39.500 21.732,39.477 C21.755,39.477 21.778,39.477 21.801,39.477 C21.801,39.454 21.801,39.430 21.801,39.407 C21.824,39.407 21.847,39.407 21.871,39.407 C21.871,39.384 21.871,39.361 21.871,39.338 C21.894,39.338 21.917,39.338 21.940,39.338 C21.940,39.315 21.940,39.292 21.940,39.268 C21.963,39.268 21.986,39.268 22.009,39.268 C22.009,39.245 22.009,39.222 22.009,39.199 C22.032,39.199 22.055,39.199 22.078,39.199 C22.078,39.176 22.078,39.153 22.078,39.130 C22.101,39.130 22.124,39.130 22.147,39.130 C22.147,39.107 22.147,39.084 22.147,39.060 C22.170,39.060 22.193,39.060 22.216,39.060 C22.216,39.037 22.216,39.014 22.216,38.991 C22.239,38.991 22.262,38.991 22.285,38.991 C22.285,38.968 22.285,38.945 22.285,38.922 C22.308,38.922 22.331,38.922 22.354,38.922 C22.354,38.899 22.354,38.876 22.354,38.852 C22.377,38.852 22.400,38.852 22.423,38.852 C22.423,38.829 22.423,38.806 22.423,38.783 C22.447,38.783 22.470,38.783 22.493,38.783 C22.493,38.760 22.493,38.737 22.493,38.714 C22.516,38.714 22.539,38.714 22.562,38.714 C22.562,38.690 22.562,38.667 22.562,38.644 C22.585,38.644 22.608,38.644 22.631,38.644 C22.631,38.621 22.631,38.598 22.631,38.575 C22.654,38.575 22.677,38.575 22.700,38.575 C22.700,38.552 22.700,38.529 22.700,38.505 C22.723,38.505 22.746,38.505 22.769,38.505 C22.769,38.483 22.769,38.459 22.769,38.436 C22.792,38.436 22.815,38.436 22.838,38.436 C22.838,38.413 22.838,38.390 22.838,38.367 C22.861,38.367 22.884,38.367 22.907,38.367 C22.907,38.344 22.907,38.321 22.907,38.297 C22.930,38.297 22.953,38.297 22.976,38.297 C22.976,38.274 22.976,38.251 22.976,38.228 C22.999,38.228 23.022,38.228 23.045,38.228 C23.045,38.205 23.045,38.182 23.045,38.159 C23.069,38.159 23.092,38.159 23.115,38.159 C23.115,38.136 23.115,38.113 23.115,38.090 C23.138,38.090 23.161,38.090 23.184,38.090 C23.184,38.066 23.184,38.043 23.184,38.020 C23.207,38.020 23.230,38.020 23.253,38.020 C23.253,37.997 23.253,37.974 23.253,37.951 C23.276,37.951 23.299,37.951 23.322,37.951 C23.322,37.928 23.322,37.905 23.322,37.882 C23.345,37.882 23.368,37.882 23.391,37.882 C23.391,37.858 23.391,37.835 23.391,37.812 C23.414,37.812 23.437,37.812 23.460,37.812 C23.460,37.789 23.460,37.766 23.460,37.743 C23.483,37.743 23.506,37.743 23.529,37.743 C23.529,37.720 23.529,37.697 23.529,37.674 C23.552,37.674 23.575,37.674 23.598,37.674 C23.598,37.650 23.598,37.627 23.598,37.604 C23.621,37.604 23.644,37.604 23.668,37.604 C23.668,37.581 23.668,37.558 23.668,37.535 C23.691,37.535 23.714,37.535 23.737,37.535 C23.737,37.512 23.737,37.489 23.737,37.465 C23.760,37.465 23.783,37.465 23.806,37.465 C23.806,37.442 23.806,37.419 23.806,37.396 C23.829,37.396 23.852,37.396 23.875,37.396 C23.875,37.373 23.875,37.350 23.875,37.327 C23.898,37.327 23.921,37.327 23.944,37.327 C23.944,37.304 23.944,37.280 23.944,37.257 C23.967,37.257 23.990,37.257 24.013,37.257 C24.013,37.234 24.013,37.211 24.013,37.188 C24.036,37.188 24.059,37.188 24.082,37.188 C24.082,37.165 24.082,37.142 24.082,37.119 C24.105,37.119 24.128,37.119 24.151,37.119 C24.151,37.096 24.151,37.072 24.151,37.049 C24.174,37.049 24.197,37.049 24.220,37.049 C24.220,37.026 24.220,37.003 24.220,36.980 C24.243,36.980 24.266,36.980 24.290,36.980 C24.290,36.957 24.290,36.934 24.290,36.911 C24.313,36.911 24.336,36.911 24.359,36.911 C24.359,36.888 24.359,36.864 24.359,36.841 C24.382,36.841 24.405,36.841 24.428,36.841 C24.428,36.818 24.428,36.795 24.428,36.772 C24.451,36.772 24.474,36.772 24.497,36.772 C24.497,36.749 24.497,36.726 24.497,36.703 C24.520,36.703 24.543,36.703 24.566,36.703 C24.566,36.679 24.566,36.656 24.566,36.633 C24.589,36.633 24.612,36.633 24.635,36.633 C24.635,36.610 24.635,36.587 24.635,36.564 C24.658,36.564 24.681,36.564 24.704,36.564 C24.704,36.541 24.704,36.518 24.704,36.494 C24.727,36.494 24.750,36.494 24.773,36.494 C24.773,36.471 24.773,36.448 24.773,36.425 C24.796,36.425 24.819,36.425 24.842,36.425 C24.842,36.402 24.842,36.379 24.842,36.356 C24.865,36.356 24.889,36.356 24.912,36.356 C24.912,36.333 24.912,36.310 24.912,36.286 C24.935,36.286 24.958,36.286 24.981,36.286 C24.981,36.263 24.981,36.240 24.981,36.217 C25.004,36.217 25.027,36.217 25.050,36.217 C25.050,36.194 25.050,36.171 25.050,36.148 C25.073,36.148 25.096,36.148 25.119,36.148 C25.119,36.125 25.119,36.102 25.119,36.078 C25.142,36.078 25.165,36.078 25.188,36.078 C25.188,36.055 25.188,36.032 25.188,36.009 C25.211,36.009 25.234,36.009 25.257,36.009 C25.257,35.986 25.257,35.963 25.257,35.940 C25.280,35.940 25.303,35.940 25.326,35.940 C25.326,35.917 25.326,35.894 25.326,35.870 C25.349,35.870 25.372,35.870 25.395,35.870 C25.395,35.847 25.395,35.824 25.395,35.801 C25.418,35.801 25.441,35.801 25.464,35.801 C25.464,35.778 25.464,35.755 25.464,35.732 C25.488,35.732 25.511,35.732 25.534,35.732 C25.534,35.709 25.534,35.686 25.534,35.662 C25.557,35.662 25.580,35.662 25.603,35.662 C25.603,35.639 25.603,35.616 25.603,35.593 C25.626,35.593 25.649,35.593 25.672,35.593 C25.672,35.570 25.672,35.547 25.672,35.524 C25.695,35.524 25.718,35.524 25.741,35.524 C25.741,35.501 25.741,35.477 25.741,35.454 C25.764,35.454 25.787,35.454 25.810,35.454 C25.810,35.431 25.810,35.408 25.810,35.385 C25.833,35.385 25.856,35.385 25.879,35.385 C25.879,35.362 25.879,35.339 25.879,35.316 C25.902,35.316 25.925,35.316 25.948,35.316 C25.948,35.293 25.948,35.269 25.948,35.246 C25.971,35.246 25.994,35.246 26.017,35.246 C26.017,35.223 26.017,35.200 26.017,35.177 C26.040,35.177 26.063,35.177 26.086,35.177 C26.086,35.154 26.086,35.131 26.086,35.108 C26.110,35.108 26.133,35.108 26.156,35.108 C26.156,35.084 26.156,35.061 26.156,35.038 C26.179,35.038 26.202,35.038 26.225,35.038 C26.225,35.015 26.225,34.992 26.225,34.969 C26.248,34.969 26.271,34.969 26.294,34.969 C26.294,34.946 26.294,34.923 26.294,34.900 C26.317,34.900 26.340,34.900 26.363,34.900 C26.363,34.876 26.363,34.853 26.363,34.830 C26.386,34.830 26.409,34.830 26.432,34.830 C26.432,34.807 26.432,34.784 26.432,34.761 C26.455,34.761 26.478,34.761 26.501,34.761 C26.501,34.738 26.501,34.715 26.501,34.691 C26.524,34.691 26.547,34.691 26.570,34.691 C26.570,34.668 26.570,34.645 26.570,34.622 C26.593,34.622 26.616,34.622 26.639,34.622 C26.639,34.599 26.639,34.576 26.639,34.553 C26.662,34.553 26.686,34.553 26.709,34.553 C26.709,34.530 26.709,34.507 26.709,34.483 C26.732,34.483 26.755,34.483 26.778,34.483 C26.778,34.460 26.778,34.437 26.778,34.414 C26.801,34.414 26.824,34.414 26.847,34.414 C26.847,34.391 26.847,34.368 26.847,34.345 C26.870,34.345 26.893,34.345 26.916,34.345 C26.916,34.322 26.916,34.298 26.916,34.275 C26.939,34.275 26.962,34.275 26.985,34.275 C26.985,34.252 26.985,34.229 26.985,34.206 C27.008,34.206 27.031,34.206 27.054,34.206 C27.054,34.183 27.054,34.160 27.054,34.137 C27.077,34.137 27.100,34.137 27.123,34.137 C27.123,34.114 27.123,34.090 27.123,34.067 C27.146,34.067 27.169,34.067 27.192,34.067 C27.192,34.044 27.192,34.021 27.192,33.998 C27.215,33.998 27.238,33.998 27.261,33.998 C27.261,33.975 27.261,33.952 27.261,33.929 C27.284,33.929 27.307,33.929 27.331,33.929 C27.331,33.906 27.331,33.882 27.331,33.859 C27.354,33.859 27.377,33.859 27.400,33.859 C27.400,33.836 27.400,33.813 27.400,33.790 C27.423,33.790 27.446,33.790 27.469,33.790 C27.469,33.767 27.469,33.744 27.469,33.721 C27.492,33.721 27.515,33.721 27.538,33.721 C27.538,33.698 27.538,33.674 27.538,33.651 C27.561,33.651 27.584,33.651 27.607,33.651 C27.607,33.628 27.607,33.605 27.607,33.582 C27.630,33.582 27.653,33.582 27.676,33.582 C27.676,33.559 27.676,33.536 27.676,33.513 C27.699,33.513 27.722,33.513 27.745,33.513 C27.745,33.489 27.745,33.466 27.745,33.443 C27.768,33.443 27.791,33.443 27.814,33.443 C27.814,33.420 27.814,33.397 27.814,33.374 C27.837,33.374 27.860,33.374 27.883,33.374 C27.883,33.351 27.883,33.328 27.883,33.305 C27.907,33.305 27.930,33.305 27.953,33.305 C27.953,33.281 27.953,33.258 27.953,33.235 C27.976,33.235 27.999,33.235 28.022,33.235 C28.022,33.212 28.022,33.189 28.022,33.166 C28.045,33.166 28.068,33.166 28.091,33.166 C28.091,33.143 28.091,33.120 28.091,33.096 C28.114,33.096 28.137,33.096 28.160,33.096 C28.160,33.073 28.160,33.050 28.160,33.027 C28.183,33.027 28.206,33.027 28.229,33.027 C28.229,33.004 28.229,32.981 28.229,32.958 C28.252,32.958 28.275,32.958 28.298,32.958 C28.298,32.935 28.298,32.912 28.298,32.889 C28.321,32.889 28.344,32.889 28.367,32.889 C28.367,32.865 28.367,32.842 28.367,32.819 C28.390,32.819 28.413,32.819 28.436,32.819 C28.436,32.796 28.436,32.773 28.436,32.750 C28.459,32.750 28.482,32.750 28.505,32.750 C28.505,32.727 28.505,32.703 28.505,32.680 C28.529,32.680 28.552,32.680 28.575,32.680 C28.575,32.657 28.575,32.634 28.575,32.611 C28.598,32.611 28.621,32.611 28.644,32.611 C28.644,32.588 28.644,32.565 28.644,32.542 C28.667,32.542 28.690,32.542 28.713,32.542 C28.713,32.518 28.713,32.495 28.713,32.472 C28.736,32.472 28.759,32.472 28.782,32.472 C28.782,32.449 28.782,32.426 28.782,32.403 C28.805,32.403 28.828,32.403 28.851,32.403 C28.851,32.380 28.851,32.357 28.851,32.334 C28.874,32.334 28.897,32.334 28.920,32.334 C28.920,32.311 28.920,32.287 28.920,32.264 C28.943,32.264 28.966,32.264 28.989,32.264 C28.989,32.241 28.989,32.218 28.989,32.195 C29.012,32.195 29.035,32.195 29.058,32.195 C29.058,32.172 29.058,32.149 29.058,32.126 C29.081,32.126 29.104,32.126 29.128,32.126 C29.128,32.102 29.128,32.079 29.128,32.056 C29.151,32.056 29.174,32.056 29.197,32.056 C29.197,32.033 29.197,32.010 29.197,31.987 C29.220,31.987 29.243,31.987 29.266,31.987 C29.266,31.964 29.266,31.941 29.266,31.918 C29.289,31.918 29.312,31.918 29.335,31.918 C29.335,31.895 29.335,31.871 29.335,31.848 C29.358,31.848 29.381,31.848 29.404,31.848 C29.404,31.825 29.404,31.802 29.404,31.779 C29.427,31.779 29.450,31.779 29.473,31.779 C29.473,31.756 29.473,31.733 29.473,31.709 C29.496,31.709 29.519,31.709 29.542,31.709 C29.542,31.687 29.542,31.663 29.542,31.640 C29.565,31.640 29.588,31.640 29.611,31.640 C29.611,31.617 29.611,31.594 29.611,31.571 C29.634,31.571 29.657,31.571 29.680,31.571 C29.680,31.548 29.680,31.525 29.680,31.501 C29.703,31.501 29.727,31.501 29.750,31.501 C29.750,31.478 29.750,31.455 29.750,31.432 C29.773,31.432 29.796,31.432 29.819,31.432 C29.819,31.409 29.819,31.386 29.819,31.363 C29.842,31.363 29.865,31.363 29.888,31.363 C29.888,31.340 29.888,31.316 29.888,31.293 C29.911,31.293 29.934,31.293 29.957,31.293 C29.957,31.270 29.957,31.247 29.957,31.224 C29.980,31.224 30.003,31.224 30.026,31.224 C30.026,31.201 30.026,31.178 30.026,31.155 C30.049,31.155 30.072,31.155 30.095,31.155 C30.095,31.132 30.095,31.109 30.095,31.085 C30.118,31.085 30.141,31.085 30.164,31.085 C30.164,31.062 30.164,31.039 30.164,31.016 C30.187,31.016 30.210,31.016 30.233,31.016 C30.233,30.993 30.233,30.970 30.233,30.947 C30.256,30.947 30.279,30.947 30.302,30.947 C30.302,30.924 30.302,30.900 30.302,30.877 C30.325,30.877 30.349,30.877 30.372,30.877 C30.372,30.854 30.372,30.831 30.372,30.808 C30.395,30.808 30.418,30.808 30.441,30.808 C30.441,30.785 30.441,30.762 30.441,30.739 C30.464,30.739 30.487,30.739 30.510,30.739 C30.510,30.715 30.510,30.692 30.510,30.669 C30.533,30.669 30.556,30.669 30.579,30.669 C30.579,30.646 30.579,30.623 30.579,30.600 C30.602,30.600 30.625,30.600 30.648,30.600 C30.648,30.577 30.648,30.554 30.648,30.531 C30.671,30.531 30.694,30.531 30.717,30.531 C30.717,30.507 30.717,30.484 30.717,30.461 C30.740,30.461 30.763,30.461 30.786,30.461 C30.786,30.438 30.786,30.415 30.786,30.392 C30.809,30.392 30.832,30.392 30.855,30.392 C30.855,30.369 30.855,30.346 30.855,30.322 C30.878,30.322 30.901,30.322 30.924,30.322 C30.924,30.299 30.924,30.276 30.924,30.253 C30.948,30.253 30.971,30.253 30.994,30.253 C30.994,30.230 30.994,30.207 30.994,30.184 C31.017,30.184 31.040,30.184 31.063,30.184 C31.063,30.161 31.063,30.138 31.063,30.115 C31.086,30.115 31.109,30.115 31.132,30.115 C31.132,30.091 31.132,30.068 31.132,30.045 C31.155,30.045 31.178,30.045 31.201,30.045 C31.201,30.022 31.201,29.999 31.201,29.976 C31.224,29.976 31.247,29.976 31.270,29.976 C31.270,29.953 31.270,29.930 31.270,29.907 C31.293,29.907 31.316,29.907 31.339,29.907 C31.339,29.883 31.339,29.860 31.339,29.837 C31.362,29.837 31.385,29.837 31.408,29.837 C31.408,29.814 31.408,29.791 31.408,29.768 C31.431,29.768 31.454,29.768 31.477,29.768 C31.477,29.745 31.477,29.722 31.477,29.698 C31.500,29.698 31.523,29.698 31.546,29.698 C31.546,29.675 31.546,29.652 31.546,29.629 C31.570,29.629 31.593,29.629 31.616,29.629 C31.616,29.606 31.616,29.583 31.616,29.560 C31.639,29.560 31.662,29.560 31.685,29.560 C31.685,29.537 31.685,29.513 31.685,29.490 C31.708,29.490 31.731,29.490 31.754,29.490 C31.754,29.467 31.754,29.444 31.754,29.421 C31.777,29.421 31.800,29.421 31.823,29.421 C31.823,29.398 31.823,29.375 31.823,29.352 C31.846,29.352 31.869,29.352 31.892,29.352 C31.892,29.328 31.892,29.305 31.892,29.282 C31.915,29.282 31.938,29.282 31.961,29.282 C31.961,29.259 31.961,29.236 31.961,29.213 C31.984,29.213 32.007,29.213 32.030,29.213 C32.030,29.190 32.030,29.167 32.030,29.144 C32.053,29.144 32.076,29.144 32.099,29.144 C32.099,29.121 32.099,29.097 32.099,29.074 C32.122,29.074 32.146,29.074 32.169,29.074 C32.169,29.051 32.169,29.028 32.169,29.005 C32.192,29.005 32.215,29.005 32.238,29.005 C32.238,28.982 32.238,28.959 32.238,28.936 C32.261,28.936 32.284,28.936 32.307,28.936 C32.307,28.912 32.307,28.889 32.307,28.866 C32.330,28.866 32.353,28.866 32.376,28.866 C32.376,28.843 32.376,28.820 32.376,28.797 C32.399,28.797 32.422,28.797 32.445,28.797 C32.445,28.774 32.445,28.751 32.445,28.727 C32.468,28.727 32.491,28.727 32.514,28.727 C32.514,28.704 32.514,28.681 32.514,28.658 C32.537,28.658 32.560,28.658 32.583,28.658 C32.583,28.635 32.583,28.612 32.583,28.589 C32.606,28.589 32.629,28.589 32.652,28.589 C32.652,28.566 32.652,28.543 32.652,28.519 C32.675,28.519 32.698,28.519 32.721,28.519 C32.721,28.496 32.721,28.473 32.721,28.450 C32.744,28.450 32.768,28.450 32.791,28.450 C32.791,28.427 32.791,28.404 32.791,28.381 C32.882,28.355 32.899,28.325 32.963,28.277 C32.963,28.265 32.963,28.254 32.963,28.242 C32.998,28.242 33.032,28.242 33.067,28.242 C33.079,28.219 33.090,28.196 33.102,28.173 C33.136,28.173 33.171,28.173 33.205,28.173 C33.217,28.150 33.228,28.127 33.240,28.103 C33.286,28.103 33.332,28.103 33.378,28.103 C33.378,28.092 33.378,28.080 33.378,28.069 C33.401,28.069 33.424,28.069 33.447,28.069 C33.447,28.057 33.447,28.046 33.447,28.034 C33.493,28.034 33.539,28.034 33.585,28.034 C33.585,28.023 33.585,28.011 33.585,27.999 C33.713,27.961 34.401,28.002 34.484,28.034 C34.484,28.046 34.484,28.057 34.484,28.069 C34.507,28.069 34.530,28.069 34.553,28.069 C34.553,28.080 34.553,28.092 34.553,28.103 C34.599,28.103 34.645,28.103 34.691,28.103 C34.703,28.127 34.714,28.150 34.726,28.173 C34.760,28.173 34.795,28.173 34.829,28.173 C34.841,28.196 34.852,28.219 34.864,28.242 C34.899,28.242 34.933,28.242 34.968,28.242 C34.979,28.265 34.991,28.288 35.002,28.311 C35.037,28.311 35.071,28.311 35.106,28.311 C35.106,28.323 35.106,28.334 35.106,28.346 C35.170,28.395 35.187,28.425 35.279,28.450 C35.279,28.473 35.279,28.496 35.279,28.519 C35.302,28.519 35.325,28.519 35.348,28.519 C35.348,28.543 35.348,28.566 35.348,28.589 C35.371,28.589 35.394,28.589 35.417,28.589 C35.417,28.612 35.417,28.635 35.417,28.658 C35.440,28.658 35.463,28.658 35.486,28.658 C35.486,28.681 35.486,28.704 35.486,28.727 C35.509,28.727 35.532,28.727 35.555,28.727 C35.555,28.751 35.555,28.774 35.555,28.797 C35.578,28.797 35.601,28.797 35.624,28.797 C35.624,28.820 35.624,28.843 35.624,28.866 C35.647,28.866 35.670,28.866 35.693,28.866 C35.693,28.889 35.693,28.912 35.693,28.936 C35.716,28.936 35.739,28.936 35.762,28.936 C35.762,28.959 35.762,28.982 35.762,29.005 C35.785,29.005 35.809,29.005 35.832,29.005 C35.832,29.028 35.832,29.051 35.832,29.074 C35.855,29.074 35.878,29.074 35.901,29.074 C35.901,29.097 35.901,29.121 35.901,29.144 C35.924,29.144 35.947,29.144 35.970,29.144 C35.970,29.167 35.970,29.190 35.970,29.213 C35.993,29.213 36.016,29.213 36.039,29.213 C36.039,29.236 36.039,29.259 36.039,29.282 C36.062,29.282 36.085,29.282 36.108,29.282 C36.108,29.305 36.108,29.328 36.108,29.352 C36.131,29.352 36.154,29.352 36.177,29.352 C36.177,29.375 36.177,29.398 36.177,29.421 C36.200,29.421 36.223,29.421 36.246,29.421 C36.246,29.444 36.246,29.467 36.246,29.490 C36.269,29.490 36.292,29.490 36.315,29.490 C36.315,29.513 36.315,29.537 36.315,29.560 C36.338,29.560 36.361,29.560 36.384,29.560 C36.384,29.583 36.384,29.606 36.384,29.629 C36.408,29.629 36.431,29.629 36.454,29.629 C36.454,29.652 36.454,29.675 36.454,29.698 C36.477,29.698 36.500,29.698 36.523,29.698 C36.523,29.722 36.523,29.745 36.523,29.768 C36.546,29.768 36.569,29.768 36.592,29.768 C36.592,29.791 36.592,29.814 36.592,29.837 C36.615,29.837 36.638,29.837 36.661,29.837 C36.661,29.860 36.661,29.883 36.661,29.907 C36.684,29.907 36.707,29.907 36.730,29.907 C36.730,29.930 36.730,29.953 36.730,29.976 C36.753,29.976 36.776,29.976 36.799,29.976 C36.799,29.999 36.799,30.022 36.799,30.045 C36.822,30.045 36.845,30.045 36.868,30.045 C36.868,30.068 36.868,30.091 36.868,30.115 C36.891,30.115 36.914,30.115 36.937,30.115 C36.937,30.138 36.937,30.161 36.937,30.184 C36.960,30.184 36.984,30.184 37.007,30.184 C37.007,30.207 37.007,30.230 37.007,30.253 C37.030,30.253 37.053,30.253 37.076,30.253 C37.076,30.276 37.076,30.299 37.076,30.322 C37.099,30.322 37.122,30.322 37.145,30.322 C37.145,30.346 37.145,30.369 37.145,30.392 C37.168,30.392 37.191,30.392 37.214,30.392 C37.214,30.415 37.214,30.438 37.214,30.461 C37.237,30.461 37.260,30.461 37.283,30.461 C37.283,30.484 37.283,30.507 37.283,30.531 C37.306,30.531 37.329,30.531 37.352,30.531 C37.352,30.554 37.352,30.577 37.352,30.600 C37.375,30.600 37.398,30.600 37.421,30.600 C37.421,30.623 37.421,30.646 37.421,30.669 C37.444,30.669 37.467,30.669 37.490,30.669 C37.490,30.692 37.490,30.715 37.490,30.739 C37.513,30.739 37.536,30.739 37.559,30.739 C37.559,30.762 37.559,30.785 37.559,30.808 C37.582,30.808 37.606,30.808 37.629,30.808 C37.629,30.831 37.629,30.854 37.629,30.877 C37.652,30.877 37.675,30.877 37.698,30.877 C37.698,30.900 37.698,30.924 37.698,30.947 C37.721,30.947 37.744,30.947 37.767,30.947 C37.767,30.970 37.767,30.993 37.767,31.016 C37.790,31.016 37.813,31.016 37.836,31.016 C37.836,31.039 37.836,31.062 37.836,31.085 C37.859,31.085 37.882,31.085 37.905,31.085 C37.905,31.109 37.905,31.132 37.905,31.155 C37.928,31.155 37.951,31.155 37.974,31.155 C37.974,31.178 37.974,31.201 37.974,31.224 C37.997,31.224 38.020,31.224 38.043,31.224 C38.043,31.247 38.043,31.270 38.043,31.293 C38.066,31.293 38.089,31.293 38.112,31.293 C38.112,31.316 38.112,31.340 38.112,31.363 C38.135,31.363 38.158,31.363 38.181,31.363 C38.181,31.386 38.181,31.409 38.181,31.432 C38.205,31.432 38.228,31.432 38.251,31.432 C38.251,31.455 38.251,31.478 38.251,31.501 C38.274,31.501 38.297,31.501 38.320,31.501 C38.320,31.525 38.320,31.548 38.320,31.571 C38.343,31.571 38.366,31.571 38.389,31.571 C38.389,31.594 38.389,31.617 38.389,31.640 C38.412,31.640 38.435,31.640 38.458,31.640 C38.458,31.663 38.458,31.687 38.458,31.709 C38.481,31.709 38.504,31.709 38.527,31.709 C38.527,31.733 38.527,31.756 38.527,31.779 C38.550,31.779 38.573,31.779 38.596,31.779 C38.596,31.802 38.596,31.825 38.596,31.848 C38.619,31.848 38.642,31.848 38.665,31.848 C38.665,31.871 38.665,31.895 38.665,31.918 C38.688,31.918 38.711,31.918 38.734,31.918 C38.734,31.941 38.734,31.964 38.734,31.987 C38.757,31.987 38.780,31.987 38.803,31.987 C38.803,32.010 38.803,32.033 38.803,32.056 C38.827,32.056 38.850,32.056 38.873,32.056 C38.873,32.079 38.873,32.102 38.873,32.126 C38.896,32.126 38.919,32.126 38.942,32.126 C38.942,32.149 38.942,32.172 38.942,32.195 C38.965,32.195 38.988,32.195 39.011,32.195 C39.011,32.218 39.011,32.241 39.011,32.264 C39.034,32.264 39.057,32.264 39.080,32.264 C39.080,32.287 39.080,32.311 39.080,32.334 C39.103,32.334 39.126,32.334 39.149,32.334 C39.149,32.357 39.149,32.380 39.149,32.403 C39.172,32.403 39.195,32.403 39.218,32.403 C39.218,32.426 39.218,32.449 39.218,32.472 C39.241,32.472 39.264,32.472 39.287,32.472 C39.287,32.495 39.287,32.518 39.287,32.542 C39.310,32.542 39.333,32.542 39.356,32.542 C39.356,32.565 39.356,32.588 39.356,32.611 C39.379,32.611 39.402,32.611 39.426,32.611 C39.426,32.634 39.426,32.657 39.426,32.680 C39.449,32.680 39.472,32.680 39.495,32.680 C39.495,32.703 39.495,32.727 39.495,32.750 C39.518,32.750 39.541,32.750 39.564,32.750 C39.564,32.773 39.564,32.796 39.564,32.819 C39.587,32.819 39.610,32.819 39.633,32.819 C39.633,32.842 39.633,32.865 39.633,32.889 C39.656,32.889 39.679,32.889 39.702,32.889 C39.702,32.912 39.702,32.935 39.702,32.958 C39.725,32.958 39.748,32.958 39.771,32.958 C39.771,32.981 39.771,33.004 39.771,33.027 C39.794,33.027 39.817,33.027 39.840,33.027 C39.840,33.050 39.840,33.073 39.840,33.096 C39.863,33.096 39.886,33.096 39.909,33.096 C39.909,33.120 39.909,33.143 39.909,33.166 C39.932,33.166 39.955,33.166 39.978,33.166 C39.978,33.189 39.978,33.212 39.978,33.235 C40.001,33.235 40.025,33.235 40.048,33.235 C40.048,33.258 40.048,33.281 40.048,33.305 C40.071,33.305 40.094,33.305 40.117,33.305 C40.117,33.328 40.117,33.351 40.117,33.374 C40.140,33.374 40.163,33.374 40.186,33.374 C40.186,33.397 40.186,33.420 40.186,33.443 C40.209,33.443 40.232,33.443 40.255,33.443 C40.255,33.466 40.255,33.489 40.255,33.513 C40.278,33.513 40.301,33.513 40.324,33.513 C40.324,33.536 40.324,33.559 40.324,33.582 C40.347,33.582 40.370,33.582 40.393,33.582 C40.393,33.605 40.393,33.628 40.393,33.651 C40.416,33.651 40.439,33.651 40.462,33.651 C40.462,33.674 40.462,33.698 40.462,33.721 C40.485,33.721 40.508,33.721 40.531,33.721 C40.531,33.744 40.531,33.767 40.531,33.790 C40.554,33.790 40.577,33.790 40.600,33.790 C40.600,33.813 40.600,33.836 40.600,33.859 C40.623,33.859 40.647,33.859 40.670,33.859 C40.670,33.882 40.670,33.906 40.670,33.929 C40.693,33.929 40.716,33.929 40.739,33.929 C40.739,33.952 40.739,33.975 40.739,33.998 C40.762,33.998 40.785,33.998 40.808,33.998 C40.808,34.021 40.808,34.044 40.808,34.067 C40.831,34.067 40.854,34.067 40.877,34.067 C40.877,34.090 40.877,34.114 40.877,34.137 C40.900,34.137 40.923,34.137 40.946,34.137 C40.946,34.160 40.946,34.183 40.946,34.206 C40.969,34.206 40.992,34.206 41.015,34.206 C41.015,34.229 41.015,34.252 41.015,34.275 C41.038,34.275 41.061,34.275 41.084,34.275 C41.084,34.298 41.084,34.322 41.084,34.345 C41.107,34.345 41.130,34.345 41.153,34.345 C41.153,34.368 41.153,34.391 41.153,34.414 C41.176,34.414 41.199,34.414 41.223,34.414 C41.223,34.437 41.223,34.460 41.223,34.483 C41.246,34.483 41.269,34.483 41.292,34.483 C41.292,34.507 41.292,34.530 41.292,34.553 C41.315,34.553 41.338,34.553 41.361,34.553 C41.361,34.576 41.361,34.599 41.361,34.622 C41.384,34.622 41.407,34.622 41.430,34.622 C41.430,34.645 41.430,34.668 41.430,34.691 C41.453,34.691 41.476,34.691 41.499,34.691 C41.499,34.715 41.499,34.738 41.499,34.761 C41.522,34.761 41.545,34.761 41.568,34.761 C41.568,34.784 41.568,34.807 41.568,34.830 C41.591,34.830 41.614,34.830 41.637,34.830 C41.637,34.853 41.637,34.876 41.637,34.900 C41.660,34.900 41.683,34.900 41.706,34.900 C41.706,34.923 41.706,34.946 41.706,34.969 C41.729,34.969 41.752,34.969 41.775,34.969 C41.775,34.992 41.775,35.015 41.775,35.038 C41.798,35.038 41.821,35.038 41.844,35.038 C41.844,35.061 41.844,35.084 41.844,35.108 C41.868,35.108 41.891,35.108 41.914,35.108 C41.914,35.131 41.914,35.154 41.914,35.177 C41.937,35.177 41.960,35.177 41.983,35.177 C41.983,35.200 41.983,35.223 41.983,35.246 C42.006,35.246 42.029,35.246 42.052,35.246 C42.052,35.269 42.052,35.293 42.052,35.316 C42.075,35.316 42.098,35.316 42.121,35.316 C42.121,35.339 42.121,35.362 42.121,35.385 C42.144,35.385 42.167,35.385 42.190,35.385 C42.190,35.408 42.190,35.431 42.190,35.454 C42.213,35.454 42.236,35.454 42.259,35.454 C42.259,35.477 42.259,35.501 42.259,35.524 C42.282,35.524 42.305,35.524 42.328,35.524 C42.328,35.547 42.328,35.570 42.328,35.593 C42.351,35.593 42.374,35.593 42.397,35.593 C42.397,35.616 42.397,35.639 42.397,35.662 C42.420,35.662 42.444,35.662 42.467,35.662 C42.467,35.686 42.467,35.709 42.467,35.732 C42.490,35.732 42.513,35.732 42.536,35.732 C42.536,35.755 42.536,35.778 42.536,35.801 C42.559,35.801 42.582,35.801 42.605,35.801 C42.605,35.824 42.605,35.847 42.605,35.870 C42.628,35.870 42.651,35.870 42.674,35.870 C42.674,35.894 42.674,35.917 42.674,35.940 C42.697,35.940 42.720,35.940 42.743,35.940 C42.743,35.963 42.743,35.986 42.743,36.009 C42.766,36.009 42.789,36.009 42.812,36.009 C42.812,36.032 42.812,36.055 42.812,36.078 C42.835,36.078 42.858,36.078 42.881,36.078 C42.881,36.102 42.881,36.125 42.881,36.148 C42.904,36.148 42.927,36.148 42.950,36.148 C42.950,36.171 42.950,36.194 42.950,36.217 C42.973,36.217 42.996,36.217 43.019,36.217 C43.019,36.240 43.019,36.263 43.019,36.286 C43.042,36.286 43.066,36.286 43.089,36.286 C43.089,36.310 43.089,36.333 43.089,36.356 C43.112,36.356 43.135,36.356 43.158,36.356 C43.158,36.379 43.158,36.402 43.158,36.425 C43.181,36.425 43.204,36.425 43.227,36.425 C43.227,36.448 43.227,36.471 43.227,36.494 C43.250,36.494 43.273,36.494 43.296,36.494 C43.296,36.518 43.296,36.541 43.296,36.564 C43.319,36.564 43.342,36.564 43.365,36.564 C43.365,36.587 43.365,36.610 43.365,36.633 C43.388,36.633 43.411,36.633 43.434,36.633 C43.434,36.656 43.434,36.679 43.434,36.703 C43.457,36.703 43.480,36.703 43.503,36.703 C43.503,36.726 43.503,36.749 43.503,36.772 C43.526,36.772 43.549,36.772 43.572,36.772 C43.572,36.795 43.572,36.818 43.572,36.841 C43.595,36.841 43.618,36.841 43.641,36.841 C43.641,36.864 43.641,36.888 43.641,36.911 C43.665,36.911 43.688,36.911 43.711,36.911 C43.711,36.934 43.711,36.957 43.711,36.980 C43.734,36.980 43.757,36.980 43.780,36.980 C43.780,37.003 43.780,37.026 43.780,37.049 C43.803,37.049 43.826,37.049 43.849,37.049 C43.849,37.072 43.849,37.096 43.849,37.119 C43.872,37.119 43.895,37.119 43.918,37.119 C43.918,37.142 43.918,37.165 43.918,37.188 C43.941,37.188 43.964,37.188 43.987,37.188 C43.987,37.211 43.987,37.234 43.987,37.257 C44.010,37.257 44.033,37.257 44.056,37.257 C44.056,37.280 44.056,37.304 44.056,37.327 C44.079,37.327 44.102,37.327 44.125,37.327 C44.125,37.350 44.125,37.373 44.125,37.396 C44.148,37.396 44.171,37.396 44.194,37.396 C44.194,37.419 44.194,37.442 44.194,37.465 C44.217,37.465 44.240,37.465 44.264,37.465 C44.264,37.489 44.264,37.512 44.264,37.535 C44.287,37.535 44.310,37.535 44.333,37.535 C44.333,37.558 44.333,37.581 44.333,37.604 C44.356,37.604 44.379,37.604 44.402,37.604 C44.402,37.627 44.402,37.650 44.402,37.674 C44.425,37.674 44.448,37.674 44.471,37.674 C44.471,37.697 44.471,37.720 44.471,37.743 C44.494,37.743 44.517,37.743 44.540,37.743 C44.540,37.766 44.540,37.789 44.540,37.812 C44.563,37.812 44.586,37.812 44.609,37.812 C44.609,37.835 44.609,37.858 44.609,37.882 C44.632,37.882 44.655,37.882 44.678,37.882 C44.678,37.905 44.678,37.928 44.678,37.951 C44.701,37.951 44.724,37.951 44.747,37.951 C44.747,37.974 44.747,37.997 44.747,38.020 C44.770,38.020 44.793,38.020 44.816,38.020 C44.816,38.043 44.816,38.066 44.816,38.090 C44.839,38.090 44.862,38.090 44.886,38.090 C44.886,38.113 44.886,38.136 44.886,38.159 C44.909,38.159 44.932,38.159 44.955,38.159 C44.955,38.182 44.955,38.205 44.955,38.228 C44.978,38.228 45.001,38.228 45.024,38.228 C45.024,38.251 45.024,38.274 45.024,38.297 C45.047,38.297 45.070,38.297 45.093,38.297 C45.093,38.321 45.093,38.344 45.093,38.367 C45.116,38.367 45.139,38.367 45.162,38.367 C45.162,38.390 45.162,38.413 45.162,38.436 C45.185,38.436 45.208,38.436 45.231,38.436 C45.231,38.459 45.231,38.483 45.231,38.505 C45.254,38.505 45.277,38.505 45.300,38.505 C45.300,38.529 45.300,38.552 45.300,38.575 C45.323,38.575 45.346,38.575 45.369,38.575 C45.369,38.598 45.369,38.621 45.369,38.644 C45.392,38.644 45.415,38.644 45.438,38.644 C45.438,38.667 45.438,38.690 45.438,38.714 C45.461,38.714 45.485,38.714 45.508,38.714 C45.508,38.737 45.508,38.760 45.508,38.783 C45.531,38.783 45.554,38.783 45.577,38.783 C45.577,38.806 45.577,38.829 45.577,38.852 C45.600,38.852 45.623,38.852 45.646,38.852 C45.646,38.876 45.646,38.899 45.646,38.922 C45.669,38.922 45.692,38.922 45.715,38.922 C45.715,38.945 45.715,38.968 45.715,38.991 C45.738,38.991 45.761,38.991 45.784,38.991 C45.784,39.014 45.784,39.037 45.784,39.060 C45.807,39.060 45.830,39.060 45.853,39.060 C45.853,39.084 45.853,39.107 45.853,39.130 C45.876,39.130 45.899,39.130 45.922,39.130 C45.922,39.153 45.922,39.176 45.922,39.199 C45.945,39.199 45.968,39.199 45.991,39.199 C45.991,39.222 45.991,39.245 45.991,39.268 C46.014,39.268 46.037,39.268 46.060,39.268 C46.060,39.292 46.060,39.315 46.060,39.338 C46.083,39.338 46.107,39.338 46.130,39.338 C46.130,39.361 46.130,39.384 46.130,39.407 C46.153,39.407 46.176,39.407 46.199,39.407 C46.199,39.430 46.199,39.454 46.199,39.477 C46.222,39.477 46.245,39.477 46.268,39.477 C46.268,39.500 46.268,39.523 46.268,39.546 C46.291,39.546 46.314,39.546 46.337,39.546 C46.337,39.569 46.337,39.592 46.337,39.615 C46.360,39.615 46.383,39.615 46.406,39.615 C46.406,39.638 46.406,39.662 46.406,39.684 C46.429,39.684 46.452,39.684 46.475,39.684 C46.475,39.708 46.475,39.731 46.475,39.754 C46.498,39.754 46.521,39.754 46.544,39.754 C46.544,39.777 46.544,39.800 46.544,39.823 C46.567,39.823 46.590,39.823 46.613,39.823 C46.613,39.846 46.613,39.870 46.613,39.893 C46.636,39.893 46.659,39.893 46.683,39.893 C46.683,39.916 46.683,39.939 46.683,39.962 C46.706,39.962 46.729,39.962 46.752,39.962 C46.752,39.985 46.752,40.008 46.752,40.031 C46.775,40.031 46.798,40.031 46.821,40.031 C46.821,40.054 46.821,40.078 46.821,40.101 C46.844,40.101 46.867,40.101 46.890,40.101 C46.890,40.124 46.890,40.147 46.890,40.170 C46.913,40.170 46.936,40.170 46.959,40.170 C46.959,40.193 46.959,40.216 46.959,40.239 C46.982,40.239 47.005,40.239 47.028,40.239 C47.028,40.262 47.028,40.286 47.028,40.309 C47.051,40.309 47.074,40.309 47.097,40.309 C47.097,40.332 47.097,40.355 47.097,40.378 C47.120,40.378 47.143,40.378 47.166,40.378 C47.166,40.401 47.166,40.424 47.166,40.447 C47.189,40.447 47.212,40.447 47.235,40.447 C47.235,40.470 47.235,40.494 47.235,40.517 C47.258,40.517 47.282,40.517 47.305,40.517 C47.305,40.540 47.305,40.563 47.305,40.586 C47.328,40.586 47.351,40.586 47.374,40.586 C47.374,40.609 47.374,40.632 47.374,40.655 C47.397,40.655 47.420,40.655 47.443,40.655 C47.443,40.679 47.443,40.702 47.443,40.725 C47.466,40.725 47.489,40.725 47.512,40.725 C47.512,40.748 47.512,40.771 47.512,40.794 C47.535,40.794 47.558,40.794 47.581,40.794 C47.581,40.817 47.581,40.840 47.581,40.864 C47.604,40.864 47.627,40.864 47.650,40.864 C47.650,40.887 47.650,40.910 47.650,40.933 C47.673,40.933 47.696,40.933 47.719,40.933 C47.719,40.956 47.719,40.979 47.719,41.002 C47.742,41.002 47.765,41.002 47.788,41.002 C47.788,41.025 47.788,41.048 47.788,41.071 C47.811,41.071 47.834,41.071 47.857,41.071 C47.857,41.095 47.857,41.118 47.857,41.141 C47.880,41.141 47.904,41.141 47.927,41.141 C47.927,41.164 47.927,41.187 47.927,41.210 C47.950,41.210 47.973,41.210 47.996,41.210 C47.996,41.233 47.996,41.257 47.996,41.280 C48.019,41.280 48.042,41.280 48.065,41.280 C48.065,41.303 48.065,41.326 48.065,41.349 C48.088,41.349 48.111,41.349 48.134,41.349 C48.134,41.372 48.134,41.395 48.134,41.418 C48.157,41.418 48.180,41.418 48.203,41.418 C48.203,41.442 48.203,41.465 48.203,41.488 C48.226,41.488 48.249,41.488 48.272,41.488 C48.272,41.511 48.272,41.534 48.272,41.557 C48.295,41.557 48.318,41.557 48.341,41.557 C48.341,41.580 48.341,41.603 48.341,41.626 C48.364,41.626 48.387,41.626 48.410,41.626 C48.410,41.649 48.410,41.672 48.410,41.696 C48.433,41.696 48.456,41.696 48.479,41.696 C48.479,41.719 48.479,41.742 48.479,41.765 C48.503,41.765 48.526,41.765 48.549,41.765 C48.574,41.857 48.604,41.874 48.652,41.938 C48.664,41.938 48.675,41.938 48.687,41.938 C48.687,41.973 48.687,42.008 48.687,42.042 C48.710,42.054 48.733,42.066 48.756,42.077 C48.756,42.112 48.756,42.146 48.756,42.181 C48.779,42.193 48.802,42.204 48.825,42.216 C48.825,42.250 48.825,42.285 48.825,42.320 C48.848,42.331 48.871,42.343 48.894,42.354 C48.894,42.401 48.894,42.447 48.894,42.493 C48.906,42.493 48.917,42.493 48.929,42.493 C48.929,42.516 48.929,42.539 48.929,42.563 C48.940,42.563 48.952,42.563 48.963,42.563 C48.995,42.645 49.036,43.337 48.998,43.464 C48.986,43.464 48.975,43.464 48.963,43.464 C48.963,43.510 48.963,43.556 48.963,43.603 C48.952,43.603 48.940,43.603 48.929,43.603 C48.929,43.626 48.929,43.649 48.929,43.672 C48.917,43.672 48.906,43.672 48.894,43.672 C48.894,43.718 48.894,43.765 48.894,43.811 C48.871,43.822 48.848,43.834 48.825,43.846 C48.825,43.880 48.825,43.915 48.825,43.950 C48.802,43.961 48.779,43.973 48.756,43.984 C48.756,44.019 48.756,44.053 48.756,44.088 C48.744,44.088 48.733,44.088 48.721,44.088 C48.673,44.153 48.643,44.169 48.618,44.261 C48.595,44.261 48.572,44.261 48.549,44.261 C48.549,44.285 48.549,44.308 48.549,44.331 C48.526,44.331 48.503,44.331 48.479,44.331 C48.479,44.354 48.479,44.377 48.479,44.400 C48.456,44.400 48.433,44.400 48.410,44.400 C48.410,44.423 48.410,44.446 48.410,44.470 C48.387,44.470 48.364,44.470 48.341,44.470 C48.341,44.493 48.341,44.516 48.341,44.539 C48.318,44.539 48.295,44.539 48.272,44.539 C48.272,44.562 48.272,44.585 48.272,44.608 C48.182,44.634 48.161,44.663 48.099,44.712 C48.099,44.724 48.099,44.735 48.099,44.747 C48.076,44.747 48.053,44.747 48.030,44.747 C48.030,44.759 48.030,44.770 48.030,44.782 C48.007,44.782 47.984,44.782 47.961,44.782 C47.961,44.793 47.961,44.805 47.961,44.816 C47.938,44.816 47.915,44.816 47.892,44.816 C47.892,44.828 47.892,44.839 47.892,44.851 C47.869,44.851 47.846,44.851 47.823,44.851 C47.823,44.863 47.823,44.874 47.823,44.886 C47.788,44.886 47.754,44.886 47.719,44.886 C47.708,44.909 47.696,44.932 47.685,44.955 C47.639,44.955 47.593,44.955 47.546,44.955 C47.546,44.967 47.546,44.978 47.546,44.990 C47.224,44.990 46.901,44.990 46.579,44.990 C46.579,44.978 46.579,44.967 46.579,44.955 C46.533,44.955 46.487,44.955 46.441,44.955 C46.441,44.944 46.441,44.932 46.441,44.920 C46.418,44.920 46.395,44.920 46.372,44.920 C46.372,44.909 46.372,44.897 46.372,44.886 C46.325,44.886 46.279,44.886 46.233,44.886 C46.222,44.863 46.210,44.839 46.199,44.816 C46.164,44.816 46.130,44.816 46.095,44.816 C46.072,44.782 46.049,44.747 46.026,44.712 C45.980,44.701 45.934,44.689 45.888,44.678 C45.888,44.666 45.888,44.655 45.888,44.643 C45.826,44.594 45.805,44.564 45.715,44.539 C45.715,44.516 45.715,44.493 45.715,44.470 C45.692,44.470 45.669,44.470 45.646,44.470 C45.646,44.446 45.646,44.423 45.646,44.400 C45.623,44.400 45.600,44.400 45.577,44.400 C45.577,44.377 45.577,44.354 45.577,44.331 C45.554,44.331 45.531,44.331 45.508,44.331 C45.508,44.308 45.508,44.285 45.508,44.261 C45.485,44.261 45.461,44.261 45.438,44.261 C45.438,44.238 45.438,44.215 45.438,44.192 C45.415,44.192 45.392,44.192 45.369,44.192 C45.369,44.169 45.369,44.146 45.369,44.123 C45.346,44.123 45.323,44.123 45.300,44.123 C45.300,44.100 45.300,44.077 45.300,44.053 C45.277,44.053 45.254,44.053 45.231,44.053 C45.231,44.030 45.231,44.007 45.231,43.984 C45.208,43.984 45.185,43.984 45.162,43.984 C45.162,43.961 45.162,43.938 45.162,43.915 C45.139,43.915 45.116,43.915 45.093,43.915 C45.093,43.892 45.093,43.869 45.093,43.846 C45.070,43.846 45.047,43.846 45.024,43.846 C45.024,43.822 45.024,43.799 45.024,43.776 C45.001,43.776 44.978,43.776 44.955,43.776 C44.955,43.753 44.955,43.730 44.955,43.707 C44.932,43.707 44.909,43.707 44.886,43.707 C44.886,43.684 44.886,43.660 44.886,43.638 C44.862,43.638 44.839,43.638 44.816,43.638 C44.816,43.614 44.816,43.591 44.816,43.568 C44.793,43.568 44.770,43.568 44.747,43.568 C44.747,43.545 44.747,43.522 44.747,43.499 C44.724,43.499 44.701,43.499 44.678,43.499 C44.678,43.475 44.678,43.452 44.678,43.429 C44.655,43.429 44.632,43.429 44.609,43.429 C44.609,43.406 44.609,43.383 44.609,43.360 C44.586,43.360 44.563,43.360 44.540,43.360 C44.540,43.337 44.540,43.314 44.540,43.291 C44.517,43.291 44.494,43.291 44.471,43.291 C44.471,43.268 44.471,43.244 44.471,43.221 C44.448,43.221 44.425,43.221 44.402,43.221 C44.402,43.198 44.402,43.175 44.402,43.152 C44.379,43.152 44.356,43.152 44.333,43.152 C44.333,43.129 44.333,43.106 44.333,43.083 C44.310,43.083 44.287,43.083 44.264,43.083 C44.264,43.060 44.264,43.036 44.264,43.013 C44.240,43.013 44.217,43.013 44.194,43.013 C44.194,42.990 44.194,42.967 44.194,42.944 C44.171,42.944 44.148,42.944 44.125,42.944 C44.125,42.921 44.125,42.898 44.125,42.875 C44.102,42.875 44.079,42.875 44.056,42.875 C44.056,42.852 44.056,42.828 44.056,42.805 C44.033,42.805 44.010,42.805 43.987,42.805 C43.987,42.782 43.987,42.759 43.987,42.736 C43.964,42.736 43.941,42.736 43.918,42.736 C43.918,42.713 43.918,42.690 43.918,42.667 C43.895,42.667 43.872,42.667 43.849,42.667 C43.849,42.644 43.849,42.620 43.849,42.597 C43.826,42.597 43.803,42.597 43.780,42.597 C43.780,42.574 43.780,42.551 43.780,42.528 C43.757,42.528 43.734,42.528 43.711,42.528 C43.711,42.505 43.711,42.482 43.711,42.458 C43.688,42.458 43.665,42.458 43.641,42.458 C43.641,42.435 43.641,42.412 43.641,42.389 C43.618,42.389 43.595,42.389 43.572,42.389 C43.572,42.366 43.572,42.343 43.572,42.320 C43.549,42.320 43.526,42.320 43.503,42.320 C43.503,42.297 43.503,42.273 43.503,42.250 C43.480,42.250 43.457,42.250 43.434,42.250 C43.434,42.227 43.434,42.204 43.434,42.181 C43.411,42.181 43.388,42.181 43.365,42.181 C43.365,42.158 43.365,42.135 43.365,42.112 C43.342,42.112 43.319,42.112 43.296,42.112 C43.296,42.089 43.296,42.066 43.296,42.042 C43.273,42.042 43.250,42.042 43.227,42.042 C43.227,42.019 43.227,41.996 43.227,41.973 C43.204,41.973 43.181,41.973 43.158,41.973 C43.158,41.950 43.158,41.927 43.158,41.904 C43.135,41.904 43.112,41.904 43.089,41.904 C43.089,41.881 43.089,41.858 43.089,41.834 C43.066,41.834 43.042,41.834 43.019,41.834 C43.019,41.811 43.019,41.788 43.019,41.765 C42.996,41.765 42.973,41.765 42.950,41.765 C42.950,41.742 42.950,41.719 42.950,41.696 C42.927,41.696 42.904,41.696 42.881,41.696 C42.881,41.672 42.881,41.649 42.881,41.626 C42.858,41.626 42.835,41.626 42.812,41.626 C42.812,41.603 42.812,41.580 42.812,41.557 C42.789,41.557 42.766,41.557 42.743,41.557 C42.743,41.534 42.743,41.511 42.743,41.488 C42.720,41.488 42.697,41.488 42.674,41.488 C42.674,41.465 42.674,41.442 42.674,41.418 C42.651,41.418 42.628,41.418 42.605,41.418 C42.605,41.395 42.605,41.372 42.605,41.349 C42.582,41.349 42.559,41.349 42.536,41.349 C42.536,41.326 42.536,41.303 42.536,41.280 C42.513,41.280 42.490,41.280 42.467,41.280 C42.467,41.257 42.467,41.233 42.467,41.210 C42.444,41.210 42.420,41.210 42.397,41.210 C42.397,41.187 42.397,41.164 42.397,41.141 C42.374,41.141 42.351,41.141 42.328,41.141 C42.328,41.118 42.328,41.095 42.328,41.071 C42.305,41.071 42.282,41.071 42.259,41.071 C42.259,41.048 42.259,41.025 42.259,41.002 C42.236,41.002 42.213,41.002 42.190,41.002 C42.190,40.979 42.190,40.956 42.190,40.933 C42.167,40.933 42.144,40.933 42.121,40.933 C42.121,40.910 42.121,40.887 42.121,40.864 C42.098,40.864 42.075,40.864 42.052,40.864 C42.052,40.840 42.052,40.817 42.052,40.794 C42.029,40.794 42.006,40.794 41.983,40.794 C41.983,40.771 41.983,40.748 41.983,40.725 C41.960,40.725 41.937,40.725 41.914,40.725 C41.914,40.702 41.914,40.679 41.914,40.655 C41.891,40.655 41.868,40.655 41.844,40.655 C41.844,40.632 41.844,40.609 41.844,40.586 C41.821,40.586 41.798,40.586 41.775,40.586 C41.775,40.563 41.775,40.540 41.775,40.517 C41.752,40.517 41.729,40.517 41.706,40.517 C41.706,40.494 41.706,40.470 41.706,40.447 C41.683,40.447 41.660,40.447 41.637,40.447 C41.637,40.424 41.637,40.401 41.637,40.378 C41.614,40.378 41.591,40.378 41.568,40.378 C41.568,40.355 41.568,40.332 41.568,40.309 C41.545,40.309 41.522,40.309 41.499,40.309 C41.499,40.286 41.499,40.262 41.499,40.239 C41.476,40.239 41.453,40.239 41.430,40.239 C41.430,40.216 41.430,40.193 41.430,40.170 C41.407,40.170 41.384,40.170 41.361,40.170 C41.361,40.147 41.361,40.124 41.361,40.101 C41.338,40.101 41.315,40.101 41.292,40.101 C41.292,40.078 41.292,40.054 41.292,40.031 C41.269,40.031 41.246,40.031 41.223,40.031 C41.223,40.008 41.223,39.985 41.223,39.962 C41.199,39.962 41.176,39.962 41.153,39.962 C41.153,39.939 41.153,39.916 41.153,39.893 C41.130,39.893 41.107,39.893 41.084,39.893 C41.084,39.870 41.084,39.846 41.084,39.823 C41.061,39.823 41.038,39.823 41.015,39.823 C41.015,39.800 41.015,39.777 41.015,39.754 C40.992,39.754 40.969,39.754 40.946,39.754 C40.946,39.731 40.946,39.708 40.946,39.684 C40.923,39.684 40.900,39.684 40.877,39.684 C40.877,39.662 40.877,39.638 40.877,39.615 C40.854,39.615 40.831,39.615 40.808,39.615 C40.808,39.592 40.808,39.569 40.808,39.546 C40.785,39.546 40.762,39.546 40.739,39.546 C40.739,39.523 40.739,39.500 40.739,39.477 C40.716,39.477 40.693,39.477 40.670,39.477 C40.670,39.454 40.670,39.430 40.670,39.407 C40.647,39.407 40.623,39.407 40.600,39.407 C40.600,39.384 40.600,39.361 40.600,39.338 C40.577,39.338 40.554,39.338 40.531,39.338 C40.531,39.315 40.531,39.292 40.531,39.268 C40.508,39.268 40.485,39.268 40.462,39.268 C40.462,39.245 40.462,39.222 40.462,39.199 C40.439,39.199 40.416,39.199 40.393,39.199 C40.393,39.176 40.393,39.153 40.393,39.130 C40.370,39.130 40.347,39.130 40.324,39.130 C40.324,39.107 40.324,39.084 40.324,39.060 C40.301,39.060 40.278,39.060 40.255,39.060 C40.255,39.037 40.255,39.014 40.255,38.991 C40.232,38.991 40.209,38.991 40.186,38.991 C40.186,38.968 40.186,38.945 40.186,38.922 C40.163,38.922 40.140,38.922 40.117,38.922 C40.117,38.899 40.117,38.876 40.117,38.852 C40.094,38.852 40.071,38.852 40.048,38.852 C40.048,38.829 40.048,38.806 40.048,38.783 C40.025,38.783 40.001,38.783 39.978,38.783 C39.978,38.760 39.978,38.737 39.978,38.714 C39.955,38.714 39.932,38.714 39.909,38.714 C39.909,38.690 39.909,38.667 39.909,38.644 C39.886,38.644 39.863,38.644 39.840,38.644 C39.840,38.621 39.840,38.598 39.840,38.575 C39.817,38.575 39.794,38.575 39.771,38.575 C39.771,38.552 39.771,38.529 39.771,38.505 C39.748,38.505 39.725,38.505 39.702,38.505 C39.702,38.483 39.702,38.459 39.702,38.436 C39.679,38.436 39.656,38.436 39.633,38.436 C39.633,38.413 39.633,38.390 39.633,38.367 C39.610,38.367 39.587,38.367 39.564,38.367 C39.564,38.344 39.564,38.321 39.564,38.297 C39.541,38.297 39.518,38.297 39.495,38.297 C39.495,38.274 39.495,38.251 39.495,38.228 C39.472,38.228 39.449,38.228 39.426,38.228 C39.426,38.205 39.426,38.182 39.426,38.159 C39.402,38.159 39.379,38.159 39.356,38.159 C39.356,38.136 39.356,38.113 39.356,38.090 C39.333,38.090 39.310,38.090 39.287,38.090 C39.287,38.066 39.287,38.043 39.287,38.020 C39.264,38.020 39.241,38.020 39.218,38.020 C39.218,37.997 39.218,37.974 39.218,37.951 C39.195,37.951 39.172,37.951 39.149,37.951 C39.149,37.928 39.149,37.905 39.149,37.882 C39.126,37.882 39.103,37.882 39.080,37.882 C39.080,37.858 39.080,37.835 39.080,37.812 C39.057,37.812 39.034,37.812 39.011,37.812 C39.011,37.789 39.011,37.766 39.011,37.743 C38.988,37.743 38.965,37.743 38.942,37.743 C38.942,37.720 38.942,37.697 38.942,37.674 C38.919,37.674 38.896,37.674 38.873,37.674 C38.873,37.650 38.873,37.627 38.873,37.604 C38.850,37.604 38.827,37.604 38.803,37.604 C38.803,37.581 38.803,37.558 38.803,37.535 C38.780,37.535 38.757,37.535 38.734,37.535 C38.734,37.512 38.734,37.489 38.734,37.465 C38.711,37.465 38.688,37.465 38.665,37.465 C38.665,37.442 38.665,37.419 38.665,37.396 C38.642,37.396 38.619,37.396 38.596,37.396 C38.596,37.373 38.596,37.350 38.596,37.327 C38.573,37.327 38.550,37.327 38.527,37.327 C38.527,37.304 38.527,37.280 38.527,37.257 C38.504,37.257 38.481,37.257 38.458,37.257 C38.458,37.234 38.458,37.211 38.458,37.188 C38.435,37.188 38.412,37.188 38.389,37.188 C38.389,37.165 38.389,37.142 38.389,37.119 C38.366,37.119 38.343,37.119 38.320,37.119 C38.320,37.096 38.320,37.072 38.320,37.049 C38.297,37.049 38.274,37.049 38.251,37.049 C38.251,37.026 38.251,37.003 38.251,36.980 C38.228,36.980 38.205,36.980 38.181,36.980 C38.181,36.957 38.181,36.934 38.181,36.911 C38.158,36.911 38.135,36.911 38.112,36.911 C38.112,36.888 38.112,36.864 38.112,36.841 C38.089,36.841 38.066,36.841 38.043,36.841 C38.043,36.818 38.043,36.795 38.043,36.772 C38.020,36.772 37.997,36.772 37.974,36.772 C37.974,36.749 37.974,36.726 37.974,36.703 C37.951,36.703 37.928,36.703 37.905,36.703 C37.905,36.679 37.905,36.656 37.905,36.633 C37.882,36.633 37.859,36.633 37.836,36.633 C37.836,36.610 37.836,36.587 37.836,36.564 C37.813,36.564 37.790,36.564 37.767,36.564 C37.767,36.541 37.767,36.518 37.767,36.494 C37.744,36.494 37.721,36.494 37.698,36.494 C37.698,36.471 37.698,36.448 37.698,36.425 C37.675,36.425 37.652,36.425 37.629,36.425 C37.629,36.402 37.629,36.379 37.629,36.356 C37.606,36.356 37.582,36.356 37.559,36.356 C37.559,36.333 37.559,36.310 37.559,36.286 C37.536,36.286 37.513,36.286 37.490,36.286 C37.490,36.263 37.490,36.240 37.490,36.217 C37.467,36.217 37.444,36.217 37.421,36.217 C37.421,36.194 37.421,36.171 37.421,36.148 C37.398,36.148 37.375,36.148 37.352,36.148 C37.352,36.125 37.352,36.102 37.352,36.078 C37.329,36.078 37.306,36.078 37.283,36.078 C37.283,36.055 37.283,36.032 37.283,36.009 C37.260,36.009 37.237,36.009 37.214,36.009 C37.214,35.986 37.214,35.963 37.214,35.940 C37.191,35.940 37.168,35.940 37.145,35.940 C37.145,35.917 37.145,35.894 37.145,35.870 C37.122,35.870 37.099,35.870 37.076,35.870 C37.076,35.847 37.076,35.824 37.076,35.801 C37.053,35.801 37.030,35.801 37.007,35.801 C37.007,35.778 37.007,35.755 37.007,35.732 C36.984,35.732 36.960,35.732 36.937,35.732 C36.937,35.709 36.937,35.686 36.937,35.662 C36.914,35.662 36.891,35.662 36.868,35.662 C36.868,35.639 36.868,35.616 36.868,35.593 C36.845,35.593 36.822,35.593 36.799,35.593 C36.799,35.570 36.799,35.547 36.799,35.524 C36.776,35.524 36.753,35.524 36.730,35.524 C36.730,35.501 36.730,35.477 36.730,35.454 C36.707,35.454 36.684,35.454 36.661,35.454 C36.661,35.431 36.661,35.408 36.661,35.385 C36.638,35.385 36.615,35.385 36.592,35.385 C36.592,35.362 36.592,35.339 36.592,35.316 C36.569,35.316 36.546,35.316 36.523,35.316 C36.523,35.293 36.523,35.269 36.523,35.246 C36.500,35.246 36.477,35.246 36.454,35.246 C36.454,35.223 36.454,35.200 36.454,35.177 C36.431,35.177 36.408,35.177 36.384,35.177 C36.384,35.154 36.384,35.131 36.384,35.108 C36.361,35.108 36.338,35.108 36.315,35.108 C36.315,35.084 36.315,35.061 36.315,35.038 C36.292,35.038 36.269,35.038 36.246,35.038 C36.246,35.015 36.246,34.992 36.246,34.969 C36.223,34.969 36.200,34.969 36.177,34.969 C36.177,34.946 36.177,34.923 36.177,34.900 C36.154,34.900 36.131,34.900 36.108,34.900 C36.108,34.876 36.108,34.853 36.108,34.830 C36.085,34.830 36.062,34.830 36.039,34.830 C36.039,34.807 36.039,34.784 36.039,34.761 C36.016,34.761 35.993,34.761 35.970,34.761 C35.970,34.738 35.970,34.715 35.970,34.691 C35.947,34.691 35.924,34.691 35.901,34.691 C35.901,34.668 35.901,34.645 35.901,34.622 C35.878,34.622 35.855,34.622 35.832,34.622 C35.832,34.599 35.832,34.576 35.832,34.553 C35.809,34.553 35.785,34.553 35.762,34.553 C35.762,34.530 35.762,34.507 35.762,34.483 C35.739,34.483 35.716,34.483 35.693,34.483 C35.693,34.460 35.693,34.437 35.693,34.414 C35.670,34.414 35.647,34.414 35.624,34.414 C35.624,34.391 35.624,34.368 35.624,34.345 C35.601,34.345 35.578,34.345 35.555,34.345 C35.555,34.322 35.555,34.298 35.555,34.275 C35.532,34.275 35.509,34.275 35.486,34.275 C35.486,34.252 35.486,34.229 35.486,34.206 C35.463,34.206 35.440,34.206 35.417,34.206 C35.417,34.183 35.417,34.160 35.417,34.137 C35.394,34.137 35.371,34.137 35.348,34.137 C35.348,34.114 35.348,34.090 35.348,34.067 C35.325,34.067 35.302,34.067 35.279,34.067 C35.279,34.044 35.279,34.021 35.279,33.998 C35.256,33.998 35.233,33.998 35.210,33.998 C35.210,33.975 35.210,33.952 35.210,33.929 C35.187,33.929 35.163,33.929 35.140,33.929 C35.140,33.906 35.140,33.882 35.140,33.859 C35.117,33.859 35.094,33.859 35.071,33.859 C35.071,33.836 35.071,33.813 35.071,33.790 C35.048,33.790 35.025,33.790 35.002,33.790 C35.002,33.767 35.002,33.744 35.002,33.721 C34.979,33.721 34.956,33.721 34.933,33.721 C34.933,33.698 34.933,33.674 34.933,33.651 C34.910,33.651 34.887,33.651 34.864,33.651 C34.864,33.628 34.864,33.605 34.864,33.582 C34.841,33.582 34.818,33.582 34.795,33.582 C34.795,33.559 34.795,33.536 34.795,33.513 C34.772,33.513 34.749,33.513 34.726,33.513 C34.726,33.489 34.726,33.466 34.726,33.443 C34.703,33.443 34.680,33.443 34.657,33.443 C34.657,33.420 34.657,33.397 34.657,33.374 C34.634,33.374 34.611,33.374 34.588,33.374 C34.588,33.351 34.588,33.328 34.588,33.305 C34.564,33.305 34.541,33.305 34.518,33.305 C34.518,33.281 34.518,33.258 34.518,33.235 C34.495,33.235 34.472,33.235 34.449,33.235 C34.449,33.212 34.449,33.189 34.449,33.166 C34.426,33.166 34.403,33.166 34.380,33.166 C34.380,33.143 34.380,33.120 34.380,33.096 C34.357,33.096 34.334,33.096 34.311,33.096 C34.311,33.073 34.311,33.050 34.311,33.027 C34.288,33.027 34.265,33.027 34.242,33.027 C34.242,33.004 34.242,32.981 34.242,32.958 C34.219,32.958 34.196,32.958 34.173,32.958 C34.173,32.935 34.173,32.912 34.173,32.889 C34.150,32.889 34.127,32.889 34.104,32.889 C34.104,32.865 34.104,32.842 34.104,32.819 C33.968,32.794 33.963,32.794 33.827,32.819 C33.827,32.842 33.827,32.865 33.827,32.889 C33.804,32.889 33.781,32.889 33.758,32.889 C33.758,32.912 33.758,32.935 33.758,32.958 C33.735,32.958 33.712,32.958 33.689,32.958 C33.689,32.981 33.689,33.004 33.689,33.027 C33.666,33.027 33.643,33.027 33.620,33.027 C33.620,33.050 33.620,33.073 33.620,33.096 C33.597,33.096 33.574,33.096 33.551,33.096 C33.551,33.120 33.551,33.143 33.551,33.166 C33.528,33.166 33.505,33.166 33.482,33.166 C33.482,33.189 33.482,33.212 33.482,33.235 C33.459,33.235 33.436,33.235 33.413,33.235 C33.413,33.258 33.413,33.281 33.413,33.305 C33.390,33.305 33.367,33.305 33.343,33.305 C33.343,33.328 33.343,33.351 33.343,33.374 C33.320,33.374 33.297,33.374 33.274,33.374 C33.274,33.397 33.274,33.420 33.274,33.443 C33.251,33.443 33.228,33.443 33.205,33.443 C33.205,33.466 33.205,33.489 33.205,33.513 C33.182,33.513 33.159,33.513 33.136,33.513 C33.136,33.536 33.136,33.559 33.136,33.582 C33.113,33.582 33.090,33.582 33.067,33.582 C33.067,33.605 33.067,33.628 33.067,33.651 C33.044,33.651 33.021,33.651 32.998,33.651 C32.998,33.674 32.998,33.698 32.998,33.721 C32.975,33.721 32.952,33.721 32.929,33.721 C32.929,33.744 32.929,33.767 32.929,33.790 C32.906,33.790 32.883,33.790 32.860,33.790 C32.860,33.813 32.860,33.836 32.860,33.859 C32.837,33.859 32.814,33.859 32.791,33.859 C32.791,33.882 32.791,33.906 32.791,33.929 C32.768,33.929 32.744,33.929 32.721,33.929 C32.721,33.952 32.721,33.975 32.721,33.998 C32.698,33.998 32.675,33.998 32.652,33.998 C32.652,34.021 32.652,34.044 32.652,34.067 C32.629,34.067 32.606,34.067 32.583,34.067 C32.583,34.090 32.583,34.114 32.583,34.137 C32.560,34.137 32.537,34.137 32.514,34.137 C32.514,34.160 32.514,34.183 32.514,34.206 C32.491,34.206 32.468,34.206 32.445,34.206 C32.445,34.229 32.445,34.252 32.445,34.275 C32.422,34.275 32.399,34.275 32.376,34.275 C32.376,34.298 32.376,34.322 32.376,34.345 C32.353,34.345 32.330,34.345 32.307,34.345 C32.307,34.368 32.307,34.391 32.307,34.414 C32.284,34.414 32.261,34.414 32.238,34.414 C32.238,34.437 32.238,34.460 32.238,34.483 C32.215,34.483 32.192,34.483 32.169,34.483 C32.169,34.507 32.169,34.530 32.169,34.553 C32.146,34.553 32.122,34.553 32.099,34.553 C32.099,34.576 32.099,34.599 32.099,34.622 C32.076,34.622 32.053,34.622 32.030,34.622 C32.030,34.645 32.030,34.668 32.030,34.691 C32.007,34.691 31.984,34.691 31.961,34.691 C31.961,34.715 31.961,34.738 31.961,34.761 C31.938,34.761 31.915,34.761 31.892,34.761 C31.892,34.784 31.892,34.807 31.892,34.830 C31.869,34.830 31.846,34.830 31.823,34.830 C31.823,34.853 31.823,34.876 31.823,34.900 C31.800,34.900 31.777,34.900 31.754,34.900 C31.754,34.923 31.754,34.946 31.754,34.969 C31.731,34.969 31.708,34.969 31.685,34.969 C31.685,34.992 31.685,35.015 31.685,35.038 C31.662,35.038 31.639,35.038 31.616,35.038 C31.616,35.061 31.616,35.084 31.616,35.108 C31.593,35.108 31.570,35.108 31.546,35.108 C31.546,35.131 31.546,35.154 31.546,35.177 C31.523,35.177 31.500,35.177 31.477,35.177 C31.477,35.200 31.477,35.223 31.477,35.246 C31.454,35.246 31.431,35.246 31.408,35.246 C31.408,35.269 31.408,35.293 31.408,35.316 C31.385,35.316 31.362,35.316 31.339,35.316 C31.339,35.339 31.339,35.362 31.339,35.385 C31.316,35.385 31.293,35.385 31.270,35.385 C31.270,35.408 31.270,35.431 31.270,35.454 C31.247,35.454 31.224,35.454 31.201,35.454 C31.201,35.477 31.201,35.501 31.201,35.524 C31.178,35.524 31.155,35.524 31.132,35.524 C31.132,35.547 31.132,35.570 31.132,35.593 C31.109,35.593 31.086,35.593 31.063,35.593 C31.063,35.616 31.063,35.639 31.063,35.662 C31.040,35.662 31.017,35.662 30.994,35.662 C30.994,35.686 30.994,35.709 30.994,35.732 C30.971,35.732 30.948,35.732 30.924,35.732 C30.924,35.755 30.924,35.778 30.924,35.801 C30.901,35.801 30.878,35.801 30.855,35.801 C30.855,35.824 30.855,35.847 30.855,35.870 C30.832,35.870 30.809,35.870 30.786,35.870 C30.786,35.894 30.786,35.917 30.786,35.940 C30.763,35.940 30.740,35.940 30.717,35.940 C30.717,35.963 30.717,35.986 30.717,36.009 C30.694,36.009 30.671,36.009 30.648,36.009 C30.648,36.032 30.648,36.055 30.648,36.078 C30.625,36.078 30.602,36.078 30.579,36.078 C30.579,36.102 30.579,36.125 30.579,36.148 C30.556,36.148 30.533,36.148 30.510,36.148 C30.510,36.171 30.510,36.194 30.510,36.217 C30.487,36.217 30.464,36.217 30.441,36.217 C30.441,36.240 30.441,36.263 30.441,36.286 C30.418,36.286 30.395,36.286 30.372,36.286 C30.372,36.310 30.372,36.333 30.372,36.356 C30.349,36.356 30.325,36.356 30.302,36.356 C30.302,36.379 30.302,36.402 30.302,36.425 C30.279,36.425 30.256,36.425 30.233,36.425 C30.233,36.448 30.233,36.471 30.233,36.494 C30.210,36.494 30.187,36.494 30.164,36.494 C30.164,36.518 30.164,36.541 30.164,36.564 C30.141,36.564 30.118,36.564 30.095,36.564 C30.095,36.587 30.095,36.610 30.095,36.633 C30.072,36.633 30.049,36.633 30.026,36.633 C30.026,36.656 30.026,36.679 30.026,36.703 C30.003,36.703 29.980,36.703 29.957,36.703 C29.957,36.726 29.957,36.749 29.957,36.772 C29.934,36.772 29.911,36.772 29.888,36.772 C29.888,36.795 29.888,36.818 29.888,36.841 C29.865,36.841 29.842,36.841 29.819,36.841 C29.819,36.864 29.819,36.888 29.819,36.911 C29.796,36.911 29.773,36.911 29.750,36.911 C29.750,36.934 29.750,36.957 29.750,36.980 C29.727,36.980 29.703,36.980 29.680,36.980 C29.680,37.003 29.680,37.026 29.680,37.049 C29.657,37.049 29.634,37.049 29.611,37.049 C29.611,37.072 29.611,37.096 29.611,37.119 C29.588,37.119 29.565,37.119 29.542,37.119 C29.542,37.142 29.542,37.165 29.542,37.188 C29.519,37.188 29.496,37.188 29.473,37.188 C29.473,37.211 29.473,37.234 29.473,37.257 C29.450,37.257 29.427,37.257 29.404,37.257 C29.404,37.280 29.404,37.304 29.404,37.327 C29.381,37.327 29.358,37.327 29.335,37.327 C29.335,37.350 29.335,37.373 29.335,37.396 C29.312,37.396 29.289,37.396 29.266,37.396 C29.266,37.419 29.266,37.442 29.266,37.465 C29.243,37.465 29.220,37.465 29.197,37.465 C29.197,37.489 29.197,37.512 29.197,37.535 C29.174,37.535 29.151,37.535 29.128,37.535 C29.128,37.558 29.128,37.581 29.128,37.604 C29.104,37.604 29.081,37.604 29.058,37.604 C29.058,37.627 29.058,37.650 29.058,37.674 C29.035,37.674 29.012,37.674 28.989,37.674 C28.989,37.697 28.989,37.720 28.989,37.743 C28.966,37.743 28.943,37.743 28.920,37.743 C28.920,37.766 28.920,37.789 28.920,37.812 C28.897,37.812 28.874,37.812 28.851,37.812 C28.851,37.835 28.851,37.858 28.851,37.882 C28.828,37.882 28.805,37.882 28.782,37.882 C28.782,37.905 28.782,37.928 28.782,37.951 C28.759,37.951 28.736,37.951 28.713,37.951 C28.713,37.974 28.713,37.997 28.713,38.020 C28.690,38.020 28.667,38.020 28.644,38.020 C28.644,38.043 28.644,38.066 28.644,38.090 C28.621,38.090 28.598,38.090 28.575,38.090 C28.575,38.113 28.575,38.136 28.575,38.159 C28.552,38.159 28.529,38.159 28.505,38.159 C28.505,38.182 28.505,38.205 28.505,38.228 C28.482,38.228 28.459,38.228 28.436,38.228 C28.436,38.251 28.436,38.274 28.436,38.297 C28.413,38.297 28.390,38.297 28.367,38.297 C28.367,38.321 28.367,38.344 28.367,38.367 C28.344,38.367 28.321,38.367 28.298,38.367 C28.298,38.390 28.298,38.413 28.298,38.436 C28.275,38.436 28.252,38.436 28.229,38.436 C28.229,38.459 28.229,38.483 28.229,38.505 C28.206,38.505 28.183,38.505 28.160,38.505 C28.160,38.529 28.160,38.552 28.160,38.575 C28.137,38.575 28.114,38.575 28.091,38.575 C28.091,38.598 28.091,38.621 28.091,38.644 C28.068,38.644 28.045,38.644 28.022,38.644 C28.022,38.667 28.022,38.690 28.022,38.714 C27.999,38.714 27.976,38.714 27.953,38.714 C27.953,38.737 27.953,38.760 27.953,38.783 C27.930,38.783 27.907,38.783 27.883,38.783 C27.883,38.806 27.883,38.829 27.883,38.852 C27.860,38.852 27.837,38.852 27.814,38.852 C27.814,38.876 27.814,38.899 27.814,38.922 C27.791,38.922 27.768,38.922 27.745,38.922 C27.745,38.945 27.745,38.968 27.745,38.991 C27.722,38.991 27.699,38.991 27.676,38.991 C27.676,39.014 27.676,39.037 27.676,39.060 C27.653,39.060 27.630,39.060 27.607,39.060 C27.607,39.084 27.607,39.107 27.607,39.130 C27.584,39.130 27.561,39.130 27.538,39.130 C27.538,39.153 27.538,39.176 27.538,39.199 C27.515,39.199 27.492,39.199 27.469,39.199 C27.469,39.222 27.469,39.245 27.469,39.268 C27.446,39.268 27.423,39.268 27.400,39.268 C27.400,39.292 27.400,39.315 27.400,39.338 C27.377,39.338 27.354,39.338 27.331,39.338 C27.331,39.361 27.331,39.384 27.331,39.407 C27.307,39.407 27.284,39.407 27.261,39.407 C27.261,39.430 27.261,39.454 27.261,39.477 C27.238,39.477 27.215,39.477 27.192,39.477 C27.192,39.500 27.192,39.523 27.192,39.546 C27.169,39.546 27.146,39.546 27.123,39.546 C27.123,39.569 27.123,39.592 27.123,39.615 C27.100,39.615 27.077,39.615 27.054,39.615 C27.054,39.638 27.054,39.662 27.054,39.684 C27.031,39.684 27.008,39.684 26.985,39.684 C26.985,39.708 26.985,39.731 26.985,39.754 C26.962,39.754 26.939,39.754 26.916,39.754 C26.916,39.777 26.916,39.800 26.916,39.823 C26.893,39.823 26.870,39.823 26.847,39.823 C26.847,39.846 26.847,39.870 26.847,39.893 C26.824,39.893 26.801,39.893 26.778,39.893 C26.778,39.916 26.778,39.939 26.778,39.962 C26.755,39.962 26.732,39.962 26.709,39.962 C26.709,39.985 26.709,40.008 26.709,40.031 C26.686,40.031 26.662,40.031 26.639,40.031 C26.639,40.054 26.639,40.078 26.639,40.101 C26.616,40.101 26.593,40.101 26.570,40.101 C26.570,40.124 26.570,40.147 26.570,40.170 C26.547,40.170 26.524,40.170 26.501,40.170 C26.501,40.193 26.501,40.216 26.501,40.239 C26.478,40.239 26.455,40.239 26.432,40.239 C26.432,40.262 26.432,40.286 26.432,40.309 C26.409,40.309 26.386,40.309 26.363,40.309 C26.363,40.332 26.363,40.355 26.363,40.378 C26.340,40.378 26.317,40.378 26.294,40.378 C26.294,40.401 26.294,40.424 26.294,40.447 C26.271,40.447 26.248,40.447 26.225,40.447 C26.225,40.470 26.225,40.494 26.225,40.517 C26.202,40.517 26.179,40.517 26.156,40.517 C26.156,40.540 26.156,40.563 26.156,40.586 C26.133,40.586 26.110,40.586 26.086,40.586 C26.086,40.609 26.086,40.632 26.086,40.655 C26.063,40.655 26.040,40.655 26.017,40.655 C26.017,40.679 26.017,40.702 26.017,40.725 C25.994,40.725 25.971,40.725 25.948,40.725 C25.948,40.748 25.948,40.771 25.948,40.794 C25.925,40.794 25.902,40.794 25.879,40.794 C25.879,40.817 25.879,40.840 25.879,40.864 C25.856,40.864 25.833,40.864 25.810,40.864 C25.810,40.887 25.810,40.910 25.810,40.933 C25.787,40.933 25.764,40.933 25.741,40.933 C25.741,40.956 25.741,40.979 25.741,41.002 C25.718,41.002 25.695,41.002 25.672,41.002 C25.672,41.025 25.672,41.048 25.672,41.071 C25.649,41.071 25.626,41.071 25.603,41.071 C25.603,41.095 25.603,41.118 25.603,41.141 C25.580,41.141 25.557,41.141 25.534,41.141 C25.534,41.164 25.534,41.187 25.534,41.210 C25.511,41.210 25.488,41.210 25.464,41.210 C25.464,41.233 25.464,41.257 25.464,41.280 C25.441,41.280 25.418,41.280 25.395,41.280 C25.395,41.303 25.395,41.326 25.395,41.349 C25.372,41.349 25.349,41.349 25.326,41.349 C25.326,41.372 25.326,41.395 25.326,41.418 C25.303,41.418 25.280,41.418 25.257,41.418 C25.257,41.442 25.257,41.465 25.257,41.488 C25.234,41.488 25.211,41.488 25.188,41.488 C25.188,41.511 25.188,41.534 25.188,41.557 C25.165,41.557 25.142,41.557 25.119,41.557 C25.119,41.580 25.119,41.603 25.119,41.626 C25.096,41.626 25.073,41.626 25.050,41.626 C25.050,41.649 25.050,41.672 25.050,41.696 C25.027,41.696 25.004,41.696 24.981,41.696 C24.981,41.719 24.981,41.742 24.981,41.765 C24.958,41.765 24.935,41.765 24.912,41.765 C24.912,41.788 24.912,41.811 24.912,41.834 C24.889,41.834 24.865,41.834 24.842,41.834 C24.842,41.858 24.842,41.881 24.842,41.904 C24.819,41.904 24.796,41.904 24.773,41.904 C24.773,41.927 24.773,41.950 24.773,41.973 C24.750,41.973 24.727,41.973 24.704,41.973 C24.704,41.996 24.704,42.019 24.704,42.042 C24.681,42.042 24.658,42.042 24.635,42.042 C24.635,42.066 24.635,42.089 24.635,42.112 C24.612,42.112 24.589,42.112 24.566,42.112 C24.566,42.135 24.566,42.158 24.566,42.181 C24.543,42.181 24.520,42.181 24.497,42.181 C24.497,42.204 24.497,42.227 24.497,42.250 C24.474,42.250 24.451,42.250 24.428,42.250 C24.428,42.273 24.428,42.297 24.428,42.320 C24.405,42.320 24.382,42.320 24.359,42.320 C24.359,42.343 24.359,42.366 24.359,42.389 C24.336,42.389 24.313,42.389 24.290,42.389 C24.290,42.412 24.290,42.435 24.290,42.458 C24.266,42.458 24.243,42.458 24.220,42.458 C24.220,42.482 24.220,42.505 24.220,42.528 C24.197,42.528 24.174,42.528 24.151,42.528 C24.151,42.551 24.151,42.574 24.151,42.597 C24.128,42.597 24.105,42.597 24.082,42.597 C24.082,42.620 24.082,42.644 24.082,42.667 C24.059,42.667 24.036,42.667 24.013,42.667 C24.013,42.690 24.013,42.713 24.013,42.736 C23.990,42.736 23.967,42.736 23.944,42.736 C23.944,42.759 23.944,42.782 23.944,42.805 C23.921,42.805 23.898,42.805 23.875,42.805 C23.875,42.828 23.875,42.852 23.875,42.875 C23.852,42.875 23.829,42.875 23.806,42.875 C23.806,42.898 23.806,42.921 23.806,42.944 C23.783,42.944 23.760,42.944 23.737,42.944 C23.737,42.967 23.737,42.990 23.737,43.013 C23.714,43.013 23.691,43.013 23.668,43.013 C23.668,43.036 23.668,43.060 23.668,43.083 C23.644,43.083 23.621,43.083 23.598,43.083 C23.598,43.106 23.598,43.129 23.598,43.152 C23.575,43.152 23.552,43.152 23.529,43.152 C23.529,43.175 23.529,43.198 23.529,43.221 C23.506,43.221 23.483,43.221 23.460,43.221 C23.460,43.244 23.460,43.268 23.460,43.291 C23.437,43.291 23.414,43.291 23.391,43.291 C23.391,43.314 23.391,43.337 23.391,43.360 C23.368,43.360 23.345,43.360 23.322,43.360 C23.322,43.383 23.322,43.406 23.322,43.429 C23.299,43.429 23.276,43.429 23.253,43.429 C23.253,43.452 23.253,43.475 23.253,43.499 C23.230,43.499 23.207,43.499 23.184,43.499 C23.184,43.522 23.184,43.545 23.184,43.568 C23.161,43.568 23.138,43.568 23.115,43.568 C23.115,43.591 23.115,43.614 23.115,43.638 C23.092,43.638 23.069,43.638 23.045,43.638 C23.045,43.660 23.045,43.684 23.045,43.707 C23.022,43.707 22.999,43.707 22.976,43.707 C22.976,43.730 22.976,43.753 22.976,43.776 C22.953,43.776 22.930,43.776 22.907,43.776 C22.907,43.799 22.907,43.822 22.907,43.846 C22.884,43.846 22.861,43.846 22.838,43.846 C22.838,43.869 22.838,43.892 22.838,43.915 C22.815,43.915 22.792,43.915 22.769,43.915 C22.769,43.938 22.769,43.961 22.769,43.984 C22.746,43.984 22.723,43.984 22.700,43.984 C22.700,44.007 22.700,44.030 22.700,44.053 C22.677,44.053 22.654,44.053 22.631,44.053 C22.631,44.077 22.631,44.100 22.631,44.123 C22.608,44.123 22.585,44.123 22.562,44.123 C22.562,44.146 22.562,44.169 22.562,44.192 C22.539,44.192 22.516,44.192 22.493,44.192 C22.493,44.215 22.493,44.238 22.493,44.261 C22.470,44.261 22.447,44.261 22.423,44.261 C22.423,44.285 22.423,44.308 22.423,44.331 C22.400,44.331 22.377,44.331 22.354,44.331 C22.354,44.354 22.354,44.377 22.354,44.400 C22.331,44.400 22.308,44.400 22.285,44.400 C22.285,44.423 22.285,44.446 22.285,44.470 C22.262,44.470 22.239,44.470 22.216,44.470 C22.216,44.493 22.216,44.516 22.216,44.539 C22.193,44.539 22.170,44.539 22.147,44.539 C22.147,44.562 22.147,44.585 22.147,44.608 C22.055,44.634 22.039,44.664 21.974,44.712 C21.974,44.724 21.974,44.735 21.974,44.747 C21.940,44.747 21.905,44.747 21.871,44.747 C21.859,44.770 21.847,44.793 21.836,44.816 C21.801,44.816 21.767,44.816 21.732,44.816 C21.721,44.839 21.709,44.863 21.698,44.886 C21.652,44.886 21.606,44.886 21.560,44.886 C21.560,44.897 21.560,44.909 21.560,44.920 C21.537,44.920 21.513,44.920 21.490,44.920 C21.490,44.932 21.490,44.944 21.490,44.955 C21.444,44.955 21.398,44.955 21.352,44.955 C21.352,44.967 21.352,44.978 21.352,44.990 C21.053,44.990 20.753,44.990 20.454,44.990 C20.454,44.978 20.454,44.967 20.454,44.955 C20.408,44.955 20.362,44.955 20.315,44.955 C20.315,44.944 20.315,44.932 20.315,44.920 C20.292,44.920 20.269,44.920 20.246,44.920 C20.246,44.909 20.246,44.897 20.246,44.886 C20.200,44.886 20.154,44.886 20.108,44.886 C20.097,44.863 20.085,44.839 20.074,44.816 C20.039,44.816 20.004,44.816 19.970,44.816 C19.958,44.793 19.947,44.770 19.935,44.747 C19.901,44.747 19.866,44.747 19.832,44.747 C19.832,44.735 19.832,44.724 19.832,44.712 C19.767,44.664 19.751,44.634 19.659,44.608 C19.659,44.585 19.659,44.562 19.659,44.539 C19.636,44.539 19.613,44.539 19.590,44.539 C19.590,44.516 19.590,44.493 19.590,44.470 C19.567,44.470 19.544,44.470 19.521,44.470 C19.521,44.446 19.521,44.423 19.521,44.400 C19.498,44.400 19.475,44.400 19.452,44.400 C19.452,44.377 19.452,44.354 19.452,44.331 C19.429,44.331 19.405,44.331 19.382,44.331 C19.357,44.239 19.327,44.222 19.279,44.158 C19.267,44.158 19.256,44.158 19.244,44.158 C19.244,44.123 19.244,44.088 19.244,44.053 C19.221,44.042 19.198,44.030 19.175,44.019 C19.175,43.984 19.175,43.950 19.175,43.915 C19.152,43.903 19.129,43.892 19.106,43.880 C19.106,43.834 19.106,43.788 19.106,43.741 C19.094,43.741 19.083,43.741 19.071,43.741 C19.071,43.718 19.071,43.695 19.071,43.672 C19.060,43.672 19.048,43.672 19.037,43.672 C19.037,43.626 19.037,43.580 19.037,43.533 C19.025,43.533 19.014,43.533 19.002,43.533 C19.002,43.210 19.002,42.886 19.002,42.563 C19.014,42.563 19.025,42.563 19.037,42.563 C19.037,42.516 19.037,42.470 19.037,42.424 C19.060,42.412 19.083,42.401 19.106,42.389 C19.106,42.354 19.106,42.320 19.106,42.285 C19.129,42.273 19.152,42.262 19.175,42.250 C19.175,42.216 19.175,42.181 19.175,42.146 C19.198,42.135 19.221,42.123 19.244,42.112 C19.244,42.077 19.244,42.042 19.244,42.008 C19.256,42.008 19.267,42.008 19.279,42.008 C19.327,41.943 19.357,41.927 19.382,41.834 Z"/>
</svg>