<svg 
 xmlns="http://www.w3.org/2000/svg"
 xmlns:xlink="http://www.w3.org/1999/xlink"
 width="13px" height="23px">
<path fill-rule="evenodd"  fill="rgb(255, 255, 255)"
 d="M10.588,0.290 C10.588,0.308 10.588,0.326 10.588,0.343 C10.570,0.343 10.552,0.343 10.535,0.343 C10.535,0.361 10.535,0.379 10.535,0.396 C10.517,0.396 10.499,0.396 10.482,0.396 C10.482,0.414 10.482,0.431 10.482,0.449 C10.464,0.449 10.446,0.449 10.429,0.449 C10.429,0.467 10.429,0.485 10.429,0.502 C10.411,0.502 10.393,0.502 10.376,0.502 C10.376,0.520 10.376,0.537 10.376,0.555 C10.358,0.555 10.340,0.555 10.323,0.555 C10.323,0.573 10.323,0.591 10.323,0.608 C10.305,0.608 10.287,0.608 10.270,0.608 C10.270,0.626 10.270,0.644 10.270,0.661 C10.252,0.661 10.234,0.661 10.217,0.661 C10.217,0.679 10.217,0.696 10.217,0.714 C10.199,0.714 10.181,0.714 10.164,0.714 C10.164,0.731 10.164,0.750 10.164,0.767 C10.146,0.767 10.128,0.767 10.111,0.767 C10.111,0.785 10.111,0.802 10.111,0.820 C10.093,0.820 10.075,0.820 10.058,0.820 C10.058,0.838 10.058,0.855 10.058,0.873 C10.040,0.873 10.022,0.873 10.005,0.873 C10.005,0.891 10.005,0.908 10.005,0.926 C9.987,0.926 9.969,0.926 9.952,0.926 C9.952,0.944 9.952,0.961 9.952,0.979 C9.934,0.979 9.916,0.979 9.898,0.979 C9.898,0.997 9.898,1.014 9.898,1.032 C9.881,1.032 9.863,1.032 9.846,1.032 C9.846,1.050 9.846,1.067 9.846,1.085 C9.828,1.085 9.810,1.085 9.792,1.085 C9.792,1.103 9.792,1.120 9.792,1.138 C9.775,1.138 9.757,1.138 9.739,1.138 C9.739,1.155 9.739,1.173 9.739,1.191 C9.722,1.191 9.704,1.191 9.686,1.191 C9.686,1.209 9.686,1.226 9.686,1.244 C9.669,1.244 9.651,1.244 9.633,1.244 C9.633,1.261 9.633,1.279 9.633,1.297 C9.616,1.297 9.598,1.297 9.580,1.297 C9.580,1.314 9.580,1.332 9.580,1.350 C9.563,1.350 9.545,1.350 9.527,1.350 C9.527,1.367 9.527,1.385 9.527,1.403 C9.510,1.403 9.492,1.403 9.474,1.403 C9.474,1.421 9.474,1.438 9.474,1.455 C9.457,1.455 9.439,1.455 9.421,1.455 C9.421,1.473 9.421,1.491 9.421,1.509 C9.404,1.509 9.386,1.509 9.368,1.509 C9.368,1.526 9.368,1.544 9.368,1.561 C9.351,1.561 9.333,1.561 9.315,1.561 C9.315,1.579 9.315,1.597 9.315,1.615 C9.298,1.615 9.280,1.615 9.262,1.615 C9.262,1.632 9.262,1.650 9.262,1.667 C9.245,1.667 9.227,1.667 9.209,1.667 C9.209,1.685 9.209,1.703 9.209,1.721 C9.192,1.721 9.174,1.721 9.156,1.721 C9.156,1.738 9.156,1.755 9.156,1.774 C9.139,1.774 9.121,1.774 9.103,1.774 C9.103,1.791 9.103,1.809 9.103,1.826 C9.086,1.826 9.068,1.826 9.050,1.826 C9.050,1.845 9.050,1.862 9.050,1.879 C9.033,1.879 9.015,1.879 8.997,1.879 C8.997,1.897 8.997,1.915 8.997,1.932 C8.980,1.932 8.962,1.932 8.944,1.932 C8.944,1.950 8.944,1.968 8.944,1.985 C8.927,1.985 8.909,1.985 8.891,1.985 C8.891,2.003 8.891,2.021 8.891,2.039 C8.874,2.039 8.856,2.039 8.838,2.039 C8.838,2.056 8.838,2.074 8.838,2.091 C8.821,2.091 8.803,2.091 8.785,2.091 C8.785,2.109 8.785,2.127 8.785,2.145 C8.768,2.145 8.750,2.145 8.732,2.145 C8.732,2.162 8.732,2.179 8.732,2.197 C8.715,2.197 8.697,2.197 8.679,2.197 C8.679,2.215 8.679,2.233 8.679,2.250 C8.662,2.250 8.644,2.250 8.626,2.250 C8.626,2.268 8.626,2.286 8.626,2.303 C8.609,2.303 8.591,2.303 8.573,2.303 C8.573,2.321 8.573,2.338 8.573,2.356 C8.556,2.356 8.538,2.356 8.520,2.356 C8.520,2.374 8.520,2.392 8.520,2.409 C8.503,2.409 8.485,2.409 8.467,2.409 C8.467,2.427 8.467,2.444 8.467,2.462 C8.449,2.462 8.432,2.462 8.414,2.462 C8.414,2.480 8.414,2.497 8.414,2.515 C8.396,2.515 8.379,2.515 8.361,2.515 C8.361,2.532 8.361,2.550 8.361,2.568 C8.343,2.568 8.326,2.568 8.308,2.568 C8.308,2.586 8.308,2.604 8.308,2.621 C8.290,2.621 8.273,2.621 8.255,2.621 C8.255,2.639 8.255,2.656 8.255,2.674 C8.237,2.674 8.220,2.674 8.202,2.674 C8.202,2.692 8.202,2.709 8.202,2.727 C8.184,2.727 8.167,2.727 8.149,2.727 C8.149,2.745 8.149,2.762 8.149,2.780 C8.131,2.780 8.114,2.780 8.096,2.780 C8.096,2.798 8.096,2.815 8.096,2.833 C8.078,2.833 8.061,2.833 8.043,2.833 C8.043,2.850 8.043,2.869 8.043,2.886 C8.025,2.886 8.008,2.886 7.990,2.886 C7.990,2.903 7.990,2.921 7.990,2.939 C7.972,2.939 7.955,2.939 7.937,2.939 C7.937,2.956 7.937,2.975 7.937,2.992 C7.919,2.992 7.902,2.992 7.884,2.992 C7.884,3.010 7.884,3.027 7.884,3.045 C7.866,3.045 7.849,3.045 7.831,3.045 C7.831,3.062 7.831,3.080 7.831,3.098 C7.813,3.098 7.796,3.098 7.778,3.098 C7.778,3.116 7.778,3.133 7.778,3.151 C7.760,3.151 7.743,3.151 7.725,3.151 C7.725,3.168 7.725,3.186 7.725,3.204 C7.707,3.204 7.690,3.204 7.672,3.204 C7.672,3.221 7.672,3.239 7.672,3.257 C7.654,3.257 7.637,3.257 7.619,3.257 C7.619,3.274 7.619,3.292 7.619,3.310 C7.601,3.310 7.584,3.310 7.566,3.310 C7.566,3.327 7.566,3.345 7.566,3.362 C7.548,3.362 7.531,3.362 7.513,3.362 C7.513,3.380 7.513,3.398 7.513,3.416 C7.495,3.416 7.478,3.416 7.460,3.416 C7.460,3.433 7.460,3.451 7.460,3.469 C7.442,3.469 7.425,3.469 7.407,3.469 C7.407,3.486 7.407,3.504 7.407,3.521 C7.389,3.521 7.372,3.521 7.354,3.521 C7.354,3.539 7.354,3.557 7.354,3.574 C7.336,3.574 7.319,3.574 7.301,3.574 C7.301,3.592 7.301,3.610 7.301,3.627 C7.283,3.627 7.266,3.627 7.248,3.627 C7.248,3.645 7.248,3.663 7.248,3.680 C7.230,3.680 7.212,3.680 7.195,3.680 C7.195,3.698 7.195,3.716 7.195,3.733 C7.177,3.733 7.159,3.733 7.142,3.733 C7.142,3.751 7.142,3.769 7.142,3.786 C7.124,3.786 7.106,3.786 7.089,3.786 C7.089,3.804 7.089,3.822 7.089,3.840 C7.071,3.840 7.053,3.840 7.036,3.840 C7.036,3.857 7.036,3.875 7.036,3.892 C7.018,3.892 7.000,3.892 6.983,3.892 C6.983,3.910 6.983,3.927 6.983,3.945 C6.965,3.945 6.947,3.945 6.930,3.945 C6.930,3.963 6.930,3.980 6.930,3.998 C6.912,3.998 6.894,3.998 6.877,3.998 C6.877,4.016 6.877,4.033 6.877,4.051 C6.859,4.051 6.841,4.051 6.824,4.051 C6.824,4.068 6.824,4.086 6.824,4.104 C6.806,4.104 6.788,4.104 6.771,4.104 C6.771,4.122 6.771,4.140 6.771,4.157 C6.753,4.157 6.735,4.157 6.718,4.157 C6.718,4.175 6.718,4.192 6.718,4.210 C6.700,4.210 6.682,4.210 6.665,4.210 C6.665,4.228 6.665,4.245 6.665,4.263 C6.647,4.263 6.629,4.263 6.612,4.263 C6.612,4.281 6.612,4.298 6.612,4.316 C6.594,4.316 6.576,4.316 6.559,4.316 C6.559,4.334 6.559,4.351 6.559,4.369 C6.541,4.369 6.523,4.369 6.506,4.369 C6.506,4.386 6.506,4.405 6.506,4.422 C6.488,4.422 6.470,4.422 6.453,4.422 C6.453,4.439 6.453,4.457 6.453,4.475 C6.435,4.475 6.417,4.475 6.400,4.475 C6.400,4.493 6.400,4.510 6.400,4.528 C6.382,4.528 6.364,4.528 6.347,4.528 C6.347,4.545 6.347,4.563 6.347,4.581 C6.329,4.581 6.311,4.581 6.294,4.581 C6.294,4.599 6.294,4.616 6.294,4.634 C6.276,4.634 6.258,4.634 6.241,4.634 C6.241,4.651 6.241,4.669 6.241,4.687 C6.223,4.687 6.205,4.687 6.188,4.687 C6.188,4.705 6.188,4.722 6.188,4.740 C6.170,4.740 6.152,4.740 6.135,4.740 C6.135,4.757 6.135,4.775 6.135,4.793 C6.117,4.793 6.099,4.793 6.082,4.793 C6.082,4.810 6.082,4.828 6.082,4.846 C6.064,4.846 6.046,4.846 6.028,4.846 C6.028,4.863 6.028,4.881 6.028,4.898 C6.011,4.898 5.993,4.898 5.975,4.898 C5.975,4.916 5.975,4.934 5.975,4.951 C5.958,4.951 5.940,4.951 5.922,4.951 C5.922,4.969 5.922,4.987 5.922,5.005 C5.905,5.005 5.887,5.005 5.869,5.005 C5.869,5.022 5.869,5.040 5.869,5.058 C5.852,5.058 5.834,5.058 5.817,5.058 C5.817,5.075 5.817,5.093 5.817,5.111 C5.799,5.111 5.781,5.111 5.763,5.111 C5.763,5.128 5.763,5.146 5.763,5.163 C5.746,5.163 5.728,5.163 5.710,5.163 C5.710,5.181 5.710,5.199 5.710,5.217 C5.693,5.217 5.675,5.217 5.657,5.217 C5.657,5.234 5.657,5.252 5.657,5.269 C5.640,5.269 5.622,5.269 5.604,5.269 C5.604,5.287 5.604,5.305 5.604,5.322 C5.587,5.322 5.569,5.322 5.551,5.322 C5.551,5.340 5.551,5.358 5.551,5.375 C5.534,5.375 5.516,5.375 5.498,5.375 C5.498,5.393 5.498,5.411 5.498,5.429 C5.481,5.429 5.463,5.429 5.445,5.429 C5.445,5.446 5.445,5.463 5.445,5.481 C5.428,5.481 5.410,5.481 5.392,5.481 C5.392,5.499 5.392,5.517 5.392,5.534 C5.375,5.534 5.357,5.534 5.339,5.534 C5.339,5.552 5.339,5.570 5.339,5.587 C5.322,5.587 5.304,5.587 5.286,5.587 C5.286,5.605 5.286,5.622 5.286,5.640 C5.269,5.640 5.251,5.640 5.233,5.640 C5.233,5.658 5.233,5.676 5.233,5.693 C5.216,5.693 5.198,5.693 5.180,5.693 C5.180,5.711 5.180,5.728 5.180,5.746 C5.163,5.746 5.145,5.746 5.127,5.746 C5.127,5.764 5.127,5.781 5.127,5.800 C5.110,5.800 5.092,5.800 5.074,5.800 C5.074,5.817 5.074,5.834 5.074,5.852 C5.057,5.852 5.039,5.852 5.021,5.852 C5.021,5.870 5.021,5.888 5.021,5.905 C5.004,5.905 4.986,5.905 4.968,5.905 C4.968,5.922 4.968,5.940 4.968,5.958 C4.951,5.958 4.933,5.958 4.915,5.958 C4.915,5.976 4.915,5.993 4.915,6.011 C4.898,6.011 4.880,6.011 4.862,6.011 C4.862,6.029 4.862,6.046 4.862,6.064 C4.845,6.064 4.827,6.064 4.809,6.064 C4.809,6.082 4.809,6.099 4.809,6.117 C4.792,6.117 4.774,6.117 4.756,6.117 C4.756,6.135 4.756,6.152 4.756,6.170 C4.739,6.170 4.721,6.170 4.703,6.170 C4.703,6.187 4.703,6.205 4.703,6.223 C4.685,6.223 4.668,6.223 4.650,6.223 C4.650,6.241 4.650,6.258 4.650,6.276 C4.632,6.276 4.615,6.276 4.597,6.276 C4.597,6.293 4.597,6.311 4.597,6.329 C4.579,6.329 4.562,6.329 4.544,6.329 C4.544,6.346 4.544,6.364 4.544,6.382 C4.526,6.382 4.509,6.382 4.491,6.382 C4.491,6.400 4.491,6.417 4.491,6.435 C4.473,6.435 4.456,6.435 4.438,6.435 C4.438,6.453 4.438,6.470 4.438,6.487 C4.420,6.487 4.403,6.487 4.385,6.487 C4.385,6.505 4.385,6.523 4.385,6.541 C4.367,6.541 4.350,6.541 4.332,6.541 C4.332,6.558 4.332,6.576 4.332,6.593 C4.314,6.593 4.297,6.593 4.279,6.593 C4.279,6.612 4.279,6.629 4.279,6.647 C4.261,6.647 4.244,6.647 4.226,6.647 C4.226,6.664 4.226,6.682 4.226,6.700 C4.208,6.700 4.191,6.700 4.173,6.700 C4.173,6.717 4.173,6.735 4.173,6.753 C4.155,6.753 4.138,6.753 4.120,6.753 C4.120,6.770 4.120,6.788 4.120,6.805 C4.102,6.805 4.085,6.805 4.067,6.805 C4.067,6.823 4.067,6.841 4.067,6.858 C4.049,6.858 4.032,6.858 4.014,6.858 C4.014,6.876 4.014,6.894 4.014,6.911 C3.996,6.911 3.979,6.911 3.961,6.911 C3.961,6.929 3.961,6.947 3.961,6.965 C3.943,6.965 3.926,6.965 3.908,6.965 C3.908,6.982 3.908,7.000 3.908,7.017 C3.890,7.017 3.873,7.017 3.855,7.017 C3.855,7.035 3.855,7.053 3.855,7.071 C3.837,7.071 3.820,7.071 3.802,7.071 C3.802,7.088 3.802,7.106 3.802,7.123 C3.784,7.123 3.767,7.123 3.749,7.123 C3.749,7.141 3.749,7.159 3.749,7.176 C3.731,7.176 3.714,7.176 3.696,7.176 C3.696,7.194 3.696,7.212 3.696,7.229 C3.678,7.229 3.661,7.229 3.643,7.229 C3.643,7.247 3.643,7.265 3.643,7.282 C3.625,7.282 3.608,7.282 3.590,7.282 C3.590,7.300 3.590,7.317 3.590,7.335 C3.572,7.335 3.554,7.335 3.537,7.335 C3.537,7.353 3.537,7.371 3.537,7.388 C3.519,7.388 3.501,7.388 3.484,7.388 C3.484,7.406 3.484,7.424 3.484,7.441 C3.466,7.441 3.448,7.441 3.431,7.441 C3.431,7.459 3.431,7.477 3.431,7.495 C3.413,7.495 3.396,7.495 3.378,7.495 C3.378,7.512 3.378,7.529 3.378,7.547 C3.360,7.547 3.343,7.547 3.325,7.547 C3.325,7.565 3.325,7.582 3.325,7.600 C3.307,7.600 3.290,7.600 3.272,7.600 C3.272,7.618 3.272,7.636 3.272,7.653 C3.254,7.653 3.236,7.653 3.219,7.653 C3.219,7.671 3.219,7.688 3.219,7.706 C3.201,7.706 3.183,7.706 3.166,7.706 C3.166,7.723 3.166,7.741 3.166,7.759 C3.148,7.759 3.130,7.759 3.113,7.759 C3.113,7.777 3.113,7.795 3.113,7.812 C3.095,7.812 3.077,7.812 3.060,7.812 C3.060,7.830 3.060,7.847 3.060,7.865 C3.042,7.865 3.024,7.865 3.007,7.865 C3.007,7.883 3.007,7.900 3.007,7.918 C2.989,7.918 2.971,7.918 2.954,7.918 C2.954,7.936 2.954,7.953 2.954,7.971 C2.936,7.971 2.918,7.971 2.901,7.971 C2.901,7.988 2.901,8.006 2.901,8.024 C2.883,8.024 2.865,8.024 2.848,8.024 C2.848,8.042 2.848,8.059 2.848,8.077 C2.830,8.077 2.812,8.077 2.795,8.077 C2.795,8.094 2.795,8.112 2.795,8.129 C2.777,8.129 2.759,8.129 2.742,8.129 C2.742,8.147 2.742,8.165 2.742,8.182 C2.724,8.182 2.706,8.182 2.689,8.182 C2.689,8.201 2.689,8.218 2.689,8.236 C2.671,8.236 2.653,8.236 2.636,8.236 C2.636,8.253 2.636,8.271 2.636,8.288 C2.618,8.288 2.600,8.288 2.583,8.288 C2.583,8.306 2.583,8.324 2.583,8.342 C2.565,8.342 2.547,8.342 2.530,8.342 C2.530,8.359 2.530,8.377 2.530,8.394 C2.512,8.394 2.494,8.394 2.477,8.394 C2.477,8.412 2.477,8.430 2.477,8.447 C2.459,8.447 2.441,8.447 2.424,8.447 C2.424,8.465 2.424,8.483 2.424,8.501 C2.406,8.501 2.388,8.501 2.371,8.501 C2.371,8.519 2.371,8.536 2.371,8.553 C2.353,8.553 2.335,8.553 2.318,8.553 C2.318,8.571 2.318,8.589 2.318,8.606 C2.300,8.606 2.282,8.606 2.264,8.606 C2.264,8.624 2.264,8.642 2.264,8.660 C2.247,8.660 2.229,8.660 2.212,8.660 C2.212,8.677 2.212,8.695 2.212,8.712 C2.194,8.712 2.176,8.712 2.159,8.712 C2.159,8.730 2.159,8.748 2.159,8.765 C2.141,8.765 2.123,8.765 2.105,8.765 C2.105,8.783 2.105,8.801 2.105,8.818 C2.088,8.818 2.070,8.818 2.052,8.818 C2.052,8.836 2.052,8.854 2.052,8.872 C2.035,8.872 2.017,8.872 1.999,8.872 C1.999,8.889 1.999,8.907 1.999,8.924 C1.982,8.924 1.964,8.924 1.946,8.924 C1.946,8.942 1.946,8.960 1.946,8.977 C1.929,8.977 1.911,8.977 1.893,8.977 C1.893,8.994 1.893,9.013 1.893,9.030 C1.876,9.030 1.858,9.030 1.840,9.030 C1.840,9.048 1.840,9.066 1.840,9.083 C1.823,9.083 1.805,9.083 1.787,9.083 C1.787,9.101 1.787,9.118 1.787,9.136 C1.770,9.136 1.752,9.136 1.734,9.136 C1.734,9.153 1.734,9.172 1.734,9.189 C1.717,9.189 1.699,9.189 1.681,9.189 C1.681,9.207 1.681,9.224 1.681,9.242 C1.664,9.242 1.646,9.242 1.628,9.242 C1.628,9.260 1.628,9.277 1.628,9.295 C1.611,9.295 1.593,9.295 1.575,9.295 C1.575,9.313 1.575,9.330 1.575,9.348 C1.558,9.348 1.540,9.348 1.522,9.348 C1.522,9.366 1.522,9.383 1.522,9.401 C1.505,9.401 1.487,9.401 1.469,9.401 C1.469,9.419 1.469,9.436 1.469,9.454 C1.452,9.454 1.434,9.454 1.416,9.454 C1.416,9.472 1.416,9.489 1.416,9.507 C1.399,9.507 1.381,9.507 1.363,9.507 C1.363,9.525 1.363,9.542 1.363,9.560 C1.346,9.560 1.328,9.560 1.310,9.560 C1.310,9.577 1.310,9.595 1.310,9.613 C1.293,9.613 1.275,9.613 1.257,9.613 C1.257,9.631 1.257,9.648 1.257,9.666 C1.240,9.666 1.222,9.666 1.204,9.666 C1.204,9.684 1.204,9.701 1.204,9.719 C1.187,9.719 1.169,9.719 1.151,9.719 C1.151,9.736 1.151,9.754 1.151,9.772 C1.134,9.772 1.116,9.772 1.098,9.772 C1.098,9.789 1.098,9.808 1.098,9.825 C1.081,9.825 1.063,9.825 1.045,9.825 C1.045,9.842 1.045,9.860 1.045,9.878 C1.028,9.878 1.010,9.878 0.992,9.878 C0.992,9.896 0.992,9.913 0.992,9.931 C0.975,9.931 0.957,9.931 0.939,9.931 C0.939,9.948 0.939,9.966 0.939,9.984 C0.922,9.984 0.904,9.984 0.886,9.984 C0.886,10.001 0.886,10.019 0.886,10.037 C0.869,10.037 0.851,10.037 0.833,10.037 C0.833,10.054 0.833,10.072 0.833,10.089 C0.815,10.089 0.798,10.089 0.780,10.089 C0.780,10.107 0.780,10.125 0.780,10.143 C0.762,10.143 0.745,10.143 0.727,10.143 C0.727,10.160 0.727,10.177 0.727,10.195 C0.709,10.195 0.692,10.195 0.674,10.195 C0.674,10.213 0.674,10.231 0.674,10.249 C0.656,10.249 0.639,10.249 0.621,10.249 C0.621,10.266 0.621,10.284 0.621,10.301 C0.603,10.301 0.586,10.301 0.568,10.301 C0.568,10.319 0.568,10.337 0.568,10.354 C0.550,10.354 0.533,10.354 0.515,10.354 C0.515,10.372 0.515,10.390 0.515,10.408 C0.497,10.408 0.480,10.408 0.462,10.408 C0.462,10.425 0.462,10.443 0.462,10.460 C0.444,10.460 0.427,10.460 0.409,10.460 C0.409,10.478 0.409,10.496 0.409,10.513 C0.391,10.513 0.374,10.513 0.356,10.513 C0.356,10.531 0.356,10.549 0.356,10.566 C0.338,10.566 0.321,10.566 0.303,10.566 C0.283,10.637 0.261,10.650 0.223,10.699 C0.215,10.699 0.206,10.699 0.197,10.699 C0.197,10.725 0.197,10.752 0.197,10.778 C0.179,10.787 0.162,10.796 0.144,10.805 C0.144,10.831 0.144,10.857 0.144,10.884 C0.126,10.893 0.109,10.902 0.091,10.910 C0.091,10.946 0.091,10.981 0.091,11.017 C0.082,11.017 0.073,11.017 0.064,11.017 C0.064,11.034 0.064,11.052 0.064,11.069 C0.056,11.069 0.047,11.069 0.038,11.069 C0.038,11.105 0.038,11.141 0.038,11.176 C0.029,11.176 0.020,11.176 0.011,11.176 C-0.018,11.273 0.013,11.801 0.038,11.864 C0.047,11.864 0.056,11.864 0.064,11.864 C0.064,11.882 0.064,11.899 0.064,11.917 C0.073,11.917 0.082,11.917 0.091,11.917 C0.091,11.952 0.091,11.988 0.091,12.023 C0.109,12.032 0.126,12.041 0.144,12.050 C0.144,12.076 0.144,12.102 0.144,12.129 C0.162,12.137 0.179,12.147 0.197,12.155 C0.197,12.182 0.197,12.208 0.197,12.235 C0.215,12.244 0.232,12.253 0.250,12.262 C0.250,12.288 0.250,12.314 0.250,12.341 C0.259,12.341 0.268,12.341 0.276,12.341 C0.313,12.390 0.337,12.403 0.356,12.473 C0.374,12.473 0.391,12.473 0.409,12.473 C0.409,12.491 0.409,12.508 0.409,12.526 C0.427,12.526 0.444,12.526 0.462,12.526 C0.462,12.544 0.462,12.561 0.462,12.579 C0.480,12.579 0.497,12.579 0.515,12.579 C0.515,12.597 0.515,12.615 0.515,12.632 C0.533,12.632 0.550,12.632 0.568,12.632 C0.568,12.649 0.568,12.667 0.568,12.685 C0.586,12.685 0.603,12.685 0.621,12.685 C0.621,12.703 0.621,12.720 0.621,12.738 C0.639,12.738 0.656,12.738 0.674,12.738 C0.674,12.756 0.674,12.773 0.674,12.791 C0.692,12.791 0.709,12.791 0.727,12.791 C0.727,12.809 0.727,12.827 0.727,12.844 C0.745,12.844 0.762,12.844 0.780,12.844 C0.780,12.862 0.780,12.879 0.780,12.897 C0.798,12.897 0.815,12.897 0.833,12.897 C0.833,12.914 0.833,12.932 0.833,12.950 C0.851,12.950 0.869,12.950 0.886,12.950 C0.886,12.967 0.886,12.985 0.886,13.003 C0.904,13.003 0.922,13.003 0.939,13.003 C0.939,13.021 0.939,13.038 0.939,13.056 C0.957,13.056 0.975,13.056 0.992,13.056 C0.992,13.074 0.992,13.091 0.992,13.109 C1.010,13.109 1.028,13.109 1.045,13.109 C1.045,13.127 1.045,13.144 1.045,13.162 C1.063,13.162 1.081,13.162 1.098,13.162 C1.098,13.179 1.098,13.197 1.098,13.215 C1.116,13.215 1.134,13.215 1.151,13.215 C1.151,13.232 1.151,13.250 1.151,13.268 C1.169,13.268 1.187,13.268 1.204,13.268 C1.204,13.285 1.204,13.303 1.204,13.321 C1.222,13.321 1.240,13.321 1.257,13.321 C1.257,13.339 1.257,13.356 1.257,13.373 C1.275,13.373 1.293,13.373 1.310,13.373 C1.310,13.391 1.310,13.409 1.310,13.427 C1.328,13.427 1.346,13.427 1.363,13.427 C1.363,13.445 1.363,13.462 1.363,13.480 C1.381,13.480 1.399,13.480 1.416,13.480 C1.416,13.497 1.416,13.515 1.416,13.533 C1.434,13.533 1.452,13.533 1.469,13.533 C1.469,13.550 1.469,13.568 1.469,13.585 C1.487,13.585 1.505,13.585 1.522,13.585 C1.522,13.603 1.522,13.620 1.522,13.639 C1.540,13.639 1.558,13.639 1.575,13.639 C1.575,13.656 1.575,13.674 1.575,13.692 C1.593,13.692 1.611,13.692 1.628,13.692 C1.628,13.709 1.628,13.727 1.628,13.744 C1.646,13.744 1.664,13.744 1.681,13.744 C1.681,13.762 1.681,13.780 1.681,13.797 C1.699,13.797 1.717,13.797 1.734,13.797 C1.734,13.815 1.734,13.833 1.734,13.851 C1.752,13.851 1.770,13.851 1.787,13.851 C1.787,13.868 1.787,13.886 1.787,13.903 C1.805,13.903 1.823,13.903 1.840,13.903 C1.840,13.921 1.840,13.938 1.840,13.956 C1.858,13.956 1.876,13.956 1.893,13.956 C1.893,13.974 1.893,13.992 1.893,14.009 C1.911,14.009 1.929,14.009 1.946,14.009 C1.946,14.027 1.946,14.045 1.946,14.062 C1.964,14.062 1.982,14.062 1.999,14.062 C1.999,14.080 1.999,14.098 1.999,14.115 C2.017,14.115 2.035,14.115 2.052,14.115 C2.052,14.133 2.052,14.150 2.052,14.168 C2.070,14.168 2.088,14.168 2.105,14.168 C2.105,14.186 2.105,14.203 2.105,14.221 C2.123,14.221 2.141,14.221 2.159,14.221 C2.159,14.239 2.159,14.256 2.159,14.274 C2.176,14.274 2.194,14.274 2.212,14.274 C2.212,14.292 2.212,14.310 2.212,14.327 C2.229,14.327 2.247,14.327 2.264,14.327 C2.264,14.345 2.264,14.363 2.264,14.380 C2.282,14.380 2.300,14.380 2.318,14.380 C2.318,14.398 2.318,14.415 2.318,14.433 C2.335,14.433 2.353,14.433 2.371,14.433 C2.371,14.451 2.371,14.468 2.371,14.486 C2.388,14.486 2.406,14.486 2.424,14.486 C2.424,14.504 2.424,14.522 2.424,14.539 C2.441,14.539 2.459,14.539 2.477,14.539 C2.477,14.557 2.477,14.574 2.477,14.592 C2.494,14.592 2.512,14.592 2.530,14.592 C2.530,14.610 2.530,14.628 2.530,14.645 C2.547,14.645 2.565,14.645 2.583,14.645 C2.583,14.663 2.583,14.680 2.583,14.698 C2.600,14.698 2.618,14.698 2.636,14.698 C2.636,14.716 2.636,14.733 2.636,14.751 C2.653,14.751 2.671,14.751 2.689,14.751 C2.689,14.768 2.689,14.786 2.689,14.804 C2.706,14.804 2.724,14.804 2.742,14.804 C2.742,14.822 2.742,14.839 2.742,14.857 C2.759,14.857 2.777,14.857 2.795,14.857 C2.795,14.875 2.795,14.892 2.795,14.910 C2.812,14.910 2.830,14.910 2.848,14.910 C2.848,14.927 2.848,14.945 2.848,14.963 C2.865,14.963 2.883,14.963 2.901,14.963 C2.901,14.980 2.901,14.998 2.901,15.015 C2.918,15.015 2.936,15.015 2.954,15.015 C2.954,15.034 2.954,15.051 2.954,15.069 C2.971,15.069 2.989,15.069 3.007,15.069 C3.007,15.086 3.007,15.104 3.007,15.122 C3.024,15.122 3.042,15.122 3.060,15.122 C3.060,15.139 3.060,15.157 3.060,15.175 C3.077,15.175 3.095,15.175 3.113,15.175 C3.113,15.192 3.113,15.210 3.113,15.227 C3.130,15.227 3.148,15.227 3.166,15.227 C3.166,15.245 3.166,15.263 3.166,15.280 C3.183,15.280 3.201,15.280 3.219,15.280 C3.219,15.298 3.219,15.316 3.219,15.334 C3.236,15.334 3.254,15.334 3.272,15.334 C3.272,15.351 3.272,15.369 3.272,15.387 C3.290,15.387 3.307,15.387 3.325,15.387 C3.325,15.404 3.325,15.422 3.325,15.439 C3.343,15.439 3.360,15.439 3.378,15.439 C3.378,15.457 3.378,15.475 3.378,15.492 C3.396,15.492 3.413,15.492 3.431,15.492 C3.431,15.510 3.431,15.528 3.431,15.545 C3.448,15.545 3.466,15.545 3.484,15.545 C3.484,15.563 3.484,15.581 3.484,15.598 C3.501,15.598 3.519,15.598 3.537,15.598 C3.537,15.616 3.537,15.634 3.537,15.651 C3.554,15.651 3.572,15.651 3.590,15.651 C3.590,15.669 3.590,15.687 3.590,15.704 C3.608,15.704 3.625,15.704 3.643,15.704 C3.643,15.722 3.643,15.739 3.643,15.757 C3.661,15.757 3.678,15.757 3.696,15.757 C3.696,15.775 3.696,15.793 3.696,15.810 C3.714,15.810 3.731,15.810 3.749,15.810 C3.749,15.828 3.749,15.845 3.749,15.863 C3.767,15.863 3.784,15.863 3.802,15.863 C3.802,15.881 3.802,15.899 3.802,15.917 C3.820,15.917 3.837,15.917 3.855,15.917 C3.855,15.934 3.855,15.951 3.855,15.969 C3.873,15.969 3.890,15.969 3.908,15.969 C3.908,15.987 3.908,16.004 3.908,16.022 C3.926,16.022 3.943,16.022 3.961,16.022 C3.961,16.040 3.961,16.058 3.961,16.075 C3.979,16.075 3.996,16.075 4.014,16.075 C4.014,16.093 4.014,16.110 4.014,16.128 C4.032,16.128 4.049,16.128 4.067,16.128 C4.067,16.146 4.067,16.163 4.067,16.181 C4.085,16.181 4.102,16.181 4.120,16.181 C4.120,16.199 4.120,16.216 4.120,16.234 C4.138,16.234 4.155,16.234 4.173,16.234 C4.173,16.251 4.173,16.269 4.173,16.287 C4.191,16.287 4.208,16.287 4.226,16.287 C4.226,16.305 4.226,16.322 4.226,16.340 C4.244,16.340 4.261,16.340 4.279,16.340 C4.279,16.358 4.279,16.375 4.279,16.393 C4.297,16.393 4.314,16.393 4.332,16.393 C4.332,16.411 4.332,16.428 4.332,16.446 C4.350,16.446 4.367,16.446 4.385,16.446 C4.385,16.464 4.385,16.481 4.385,16.499 C4.403,16.499 4.420,16.499 4.438,16.499 C4.438,16.516 4.438,16.534 4.438,16.552 C4.456,16.552 4.473,16.552 4.491,16.552 C4.491,16.569 4.491,16.587 4.491,16.605 C4.509,16.605 4.526,16.605 4.544,16.605 C4.544,16.623 4.544,16.640 4.544,16.658 C4.562,16.658 4.579,16.658 4.597,16.658 C4.597,16.675 4.597,16.693 4.597,16.711 C4.615,16.711 4.632,16.711 4.650,16.711 C4.650,16.728 4.650,16.746 4.650,16.764 C4.668,16.764 4.685,16.764 4.703,16.764 C4.703,16.781 4.703,16.799 4.703,16.816 C4.721,16.816 4.739,16.816 4.756,16.816 C4.756,16.834 4.756,16.852 4.756,16.870 C4.774,16.870 4.792,16.870 4.809,16.870 C4.809,16.887 4.809,16.905 4.809,16.923 C4.827,16.923 4.845,16.923 4.862,16.923 C4.862,16.940 4.862,16.958 4.862,16.975 C4.880,16.975 4.898,16.975 4.915,16.975 C4.915,16.993 4.915,17.011 4.915,17.028 C4.933,17.028 4.951,17.028 4.968,17.028 C4.968,17.046 4.968,17.064 4.968,17.082 C4.986,17.082 5.004,17.082 5.021,17.082 C5.021,17.099 5.021,17.116 5.021,17.134 C5.039,17.134 5.057,17.134 5.074,17.134 C5.074,17.152 5.074,17.170 5.074,17.188 C5.092,17.188 5.110,17.188 5.127,17.188 C5.127,17.205 5.127,17.223 5.127,17.240 C5.145,17.240 5.163,17.240 5.180,17.240 C5.180,17.258 5.180,17.276 5.180,17.293 C5.198,17.293 5.216,17.293 5.233,17.293 C5.233,17.311 5.233,17.329 5.233,17.346 C5.251,17.346 5.269,17.346 5.286,17.346 C5.286,17.364 5.286,17.382 5.286,17.399 C5.304,17.399 5.322,17.399 5.339,17.399 C5.339,17.417 5.339,17.435 5.339,17.452 C5.357,17.452 5.375,17.452 5.392,17.452 C5.392,17.470 5.392,17.488 5.392,17.505 C5.410,17.505 5.428,17.505 5.445,17.505 C5.445,17.523 5.445,17.541 5.445,17.558 C5.463,17.558 5.481,17.558 5.498,17.558 C5.498,17.575 5.498,17.593 5.498,17.611 C5.516,17.611 5.534,17.611 5.551,17.611 C5.551,17.629 5.551,17.647 5.551,17.664 C5.569,17.664 5.587,17.664 5.604,17.664 C5.604,17.682 5.604,17.700 5.604,17.717 C5.622,17.717 5.640,17.717 5.657,17.717 C5.657,17.735 5.657,17.752 5.657,17.770 C5.675,17.770 5.693,17.770 5.710,17.770 C5.710,17.788 5.710,17.806 5.710,17.824 C5.728,17.824 5.746,17.824 5.763,17.824 C5.763,17.841 5.763,17.858 5.763,17.876 C5.781,17.876 5.799,17.876 5.817,17.876 C5.817,17.894 5.817,17.911 5.817,17.929 C5.834,17.929 5.852,17.929 5.869,17.929 C5.869,17.947 5.869,17.964 5.869,17.982 C5.887,17.982 5.905,17.982 5.922,17.982 C5.922,17.999 5.922,18.017 5.922,18.035 C5.940,18.035 5.958,18.035 5.975,18.035 C5.975,18.053 5.975,18.070 5.975,18.088 C5.993,18.088 6.011,18.088 6.028,18.088 C6.028,18.106 6.028,18.123 6.028,18.141 C6.046,18.141 6.064,18.141 6.082,18.141 C6.082,18.158 6.082,18.176 6.082,18.194 C6.099,18.194 6.117,18.194 6.135,18.194 C6.135,18.211 6.135,18.229 6.135,18.247 C6.152,18.247 6.170,18.247 6.188,18.247 C6.188,18.265 6.188,18.282 6.188,18.300 C6.205,18.300 6.223,18.300 6.241,18.300 C6.241,18.317 6.241,18.335 6.241,18.353 C6.258,18.353 6.276,18.353 6.294,18.353 C6.294,18.370 6.294,18.388 6.294,18.406 C6.311,18.406 6.329,18.406 6.347,18.406 C6.347,18.423 6.347,18.441 6.347,18.459 C6.364,18.459 6.382,18.459 6.400,18.459 C6.400,18.476 6.400,18.494 6.400,18.511 C6.417,18.511 6.435,18.511 6.453,18.511 C6.453,18.529 6.453,18.547 6.453,18.564 C6.470,18.564 6.488,18.564 6.506,18.564 C6.506,18.582 6.506,18.600 6.506,18.617 C6.523,18.617 6.541,18.617 6.559,18.617 C6.559,18.635 6.559,18.653 6.559,18.671 C6.576,18.671 6.594,18.671 6.612,18.671 C6.612,18.688 6.612,18.706 6.612,18.724 C6.629,18.724 6.647,18.724 6.665,18.724 C6.665,18.741 6.665,18.759 6.665,18.776 C6.682,18.776 6.700,18.776 6.718,18.776 C6.718,18.794 6.718,18.812 6.718,18.830 C6.735,18.830 6.753,18.830 6.771,18.830 C6.771,18.847 6.771,18.865 6.771,18.882 C6.788,18.882 6.806,18.882 6.824,18.882 C6.824,18.900 6.824,18.918 6.824,18.935 C6.841,18.935 6.859,18.935 6.877,18.935 C6.877,18.953 6.877,18.971 6.877,18.989 C6.894,18.989 6.912,18.989 6.930,18.989 C6.930,19.006 6.930,19.023 6.930,19.041 C6.947,19.041 6.965,19.041 6.983,19.041 C6.983,19.059 6.983,19.077 6.983,19.095 C7.000,19.095 7.018,19.095 7.036,19.095 C7.036,19.112 7.036,19.130 7.036,19.147 C7.053,19.147 7.071,19.147 7.089,19.147 C7.089,19.165 7.089,19.183 7.089,19.200 C7.106,19.200 7.124,19.200 7.142,19.200 C7.142,19.218 7.142,19.235 7.142,19.253 C7.159,19.253 7.177,19.253 7.195,19.253 C7.195,19.271 7.195,19.289 7.195,19.306 C7.212,19.306 7.230,19.306 7.248,19.306 C7.248,19.324 7.248,19.341 7.248,19.359 C7.266,19.359 7.283,19.359 7.301,19.359 C7.301,19.377 7.301,19.394 7.301,19.412 C7.319,19.412 7.336,19.412 7.354,19.412 C7.354,19.430 7.354,19.448 7.354,19.465 C7.372,19.465 7.389,19.465 7.407,19.465 C7.407,19.483 7.407,19.500 7.407,19.518 C7.425,19.518 7.442,19.518 7.460,19.518 C7.460,19.536 7.460,19.553 7.460,19.571 C7.478,19.571 7.495,19.571 7.513,19.571 C7.513,19.588 7.513,19.606 7.513,19.624 C7.531,19.624 7.548,19.624 7.566,19.624 C7.566,19.642 7.566,19.659 7.566,19.677 C7.584,19.677 7.601,19.677 7.619,19.677 C7.619,19.695 7.619,19.712 7.619,19.730 C7.637,19.730 7.654,19.730 7.672,19.730 C7.672,19.748 7.672,19.765 7.672,19.783 C7.690,19.783 7.707,19.783 7.725,19.783 C7.725,19.800 7.725,19.818 7.725,19.836 C7.743,19.836 7.760,19.836 7.778,19.836 C7.778,19.854 7.778,19.871 7.778,19.889 C7.796,19.889 7.813,19.889 7.831,19.889 C7.831,19.906 7.831,19.924 7.831,19.942 C7.849,19.942 7.866,19.942 7.884,19.942 C7.884,19.960 7.884,19.977 7.884,19.995 C7.902,19.995 7.919,19.995 7.937,19.995 C7.937,20.013 7.937,20.030 7.937,20.048 C7.955,20.048 7.972,20.048 7.990,20.048 C7.990,20.065 7.990,20.083 7.990,20.101 C8.008,20.101 8.025,20.101 8.043,20.101 C8.043,20.118 8.043,20.136 8.043,20.154 C8.061,20.154 8.078,20.154 8.096,20.154 C8.096,20.171 8.096,20.189 8.096,20.206 C8.114,20.206 8.131,20.206 8.149,20.206 C8.149,20.224 8.149,20.242 8.149,20.260 C8.167,20.260 8.184,20.260 8.202,20.260 C8.202,20.277 8.202,20.295 8.202,20.312 C8.220,20.312 8.237,20.312 8.255,20.312 C8.255,20.330 8.255,20.348 8.255,20.366 C8.273,20.366 8.290,20.366 8.308,20.366 C8.308,20.383 8.308,20.401 8.308,20.418 C8.326,20.418 8.343,20.418 8.361,20.418 C8.361,20.436 8.361,20.454 8.361,20.472 C8.379,20.472 8.396,20.472 8.414,20.472 C8.414,20.489 8.414,20.507 8.414,20.525 C8.432,20.525 8.449,20.525 8.467,20.525 C8.467,20.542 8.467,20.560 8.467,20.577 C8.485,20.577 8.503,20.577 8.520,20.577 C8.520,20.595 8.520,20.612 8.520,20.630 C8.538,20.630 8.556,20.630 8.573,20.630 C8.573,20.648 8.573,20.666 8.573,20.684 C8.591,20.684 8.609,20.684 8.626,20.684 C8.626,20.701 8.626,20.719 8.626,20.736 C8.644,20.736 8.662,20.736 8.679,20.736 C8.679,20.754 8.679,20.771 8.679,20.789 C8.697,20.789 8.715,20.789 8.732,20.789 C8.732,20.807 8.732,20.825 8.732,20.842 C8.750,20.842 8.768,20.842 8.785,20.842 C8.785,20.860 8.785,20.878 8.785,20.895 C8.803,20.895 8.821,20.895 8.838,20.895 C8.838,20.913 8.838,20.930 8.838,20.948 C8.856,20.948 8.874,20.948 8.891,20.948 C8.891,20.966 8.891,20.984 8.891,21.001 C8.909,21.001 8.927,21.001 8.944,21.001 C8.944,21.019 8.944,21.036 8.944,21.054 C8.962,21.054 8.980,21.054 8.997,21.054 C8.997,21.072 8.997,21.089 8.997,21.107 C9.015,21.107 9.033,21.107 9.050,21.107 C9.050,21.125 9.050,21.142 9.050,21.160 C9.068,21.160 9.086,21.160 9.103,21.160 C9.103,21.178 9.103,21.195 9.103,21.213 C9.121,21.213 9.139,21.213 9.156,21.213 C9.156,21.230 9.156,21.249 9.156,21.266 C9.174,21.266 9.192,21.266 9.209,21.266 C9.209,21.284 9.209,21.301 9.209,21.319 C9.227,21.319 9.245,21.319 9.262,21.319 C9.262,21.337 9.262,21.354 9.262,21.372 C9.280,21.372 9.298,21.372 9.315,21.372 C9.315,21.389 9.315,21.407 9.315,21.425 C9.333,21.425 9.351,21.425 9.368,21.425 C9.368,21.442 9.368,21.460 9.368,21.478 C9.386,21.478 9.404,21.478 9.421,21.478 C9.421,21.495 9.421,21.513 9.421,21.531 C9.439,21.531 9.457,21.531 9.474,21.531 C9.474,21.549 9.474,21.566 9.474,21.584 C9.492,21.584 9.510,21.584 9.527,21.584 C9.527,21.601 9.527,21.619 9.527,21.637 C9.545,21.637 9.563,21.637 9.580,21.637 C9.580,21.655 9.580,21.672 9.580,21.690 C9.598,21.690 9.616,21.690 9.633,21.690 C9.633,21.707 9.633,21.725 9.633,21.743 C9.651,21.743 9.669,21.743 9.686,21.743 C9.686,21.760 9.686,21.778 9.686,21.796 C9.704,21.796 9.722,21.796 9.739,21.796 C9.739,21.813 9.739,21.831 9.739,21.849 C9.757,21.849 9.775,21.849 9.792,21.849 C9.792,21.866 9.792,21.884 9.792,21.902 C9.810,21.902 9.828,21.902 9.846,21.902 C9.846,21.920 9.846,21.937 9.846,21.954 C9.863,21.954 9.881,21.954 9.898,21.954 C9.898,21.972 9.898,21.990 9.898,22.008 C9.916,22.008 9.934,22.008 9.952,22.008 C9.952,22.025 9.952,22.042 9.952,22.061 C9.969,22.061 9.987,22.061 10.005,22.061 C10.005,22.078 10.005,22.096 10.005,22.114 C10.022,22.114 10.040,22.114 10.058,22.114 C10.058,22.131 10.058,22.149 10.058,22.166 C10.075,22.166 10.093,22.166 10.111,22.166 C10.111,22.184 10.111,22.202 10.111,22.219 C10.128,22.219 10.146,22.219 10.164,22.219 C10.164,22.237 10.164,22.254 10.164,22.272 C10.181,22.272 10.199,22.272 10.217,22.272 C10.217,22.290 10.217,22.308 10.217,22.325 C10.234,22.325 10.252,22.325 10.270,22.325 C10.270,22.343 10.270,22.361 10.270,22.378 C10.287,22.378 10.305,22.378 10.323,22.378 C10.323,22.396 10.323,22.414 10.323,22.431 C10.340,22.431 10.358,22.431 10.376,22.431 C10.376,22.449 10.376,22.467 10.376,22.484 C10.393,22.484 10.411,22.484 10.429,22.484 C10.429,22.502 10.429,22.520 10.429,22.537 C10.446,22.537 10.464,22.537 10.482,22.537 C10.482,22.555 10.482,22.573 10.482,22.590 C10.499,22.590 10.517,22.590 10.535,22.590 C10.535,22.608 10.535,22.625 10.535,22.643 C10.605,22.663 10.618,22.686 10.667,22.723 C10.667,22.732 10.667,22.740 10.667,22.749 C10.694,22.749 10.720,22.749 10.747,22.749 C10.756,22.766 10.764,22.784 10.773,22.802 C10.800,22.802 10.826,22.802 10.853,22.802 C10.862,22.820 10.870,22.837 10.879,22.855 C10.906,22.855 10.932,22.855 10.959,22.855 C10.968,22.873 10.977,22.890 10.985,22.908 C11.021,22.908 11.056,22.908 11.091,22.908 C11.091,22.917 11.091,22.926 11.091,22.935 C11.109,22.935 11.127,22.935 11.144,22.935 C11.144,22.943 11.144,22.952 11.144,22.961 C11.208,22.985 11.736,23.017 11.834,22.987 C11.834,22.979 11.834,22.970 11.834,22.961 C11.869,22.961 11.904,22.961 11.940,22.961 C11.940,22.952 11.940,22.943 11.940,22.935 C11.957,22.935 11.975,22.935 11.993,22.935 C11.993,22.926 11.993,22.917 11.993,22.908 C12.028,22.908 12.063,22.908 12.099,22.908 C12.107,22.890 12.116,22.873 12.125,22.855 C12.152,22.855 12.178,22.855 12.205,22.855 C12.213,22.837 12.222,22.820 12.231,22.802 C12.258,22.802 12.284,22.802 12.311,22.802 C12.311,22.793 12.311,22.784 12.311,22.775 C12.360,22.739 12.373,22.715 12.443,22.696 C12.443,22.678 12.443,22.661 12.443,22.643 C12.461,22.643 12.479,22.643 12.496,22.643 C12.496,22.625 12.496,22.608 12.496,22.590 C12.514,22.590 12.532,22.590 12.549,22.590 C12.549,22.573 12.549,22.555 12.549,22.537 C12.567,22.537 12.585,22.537 12.602,22.537 C12.602,22.520 12.602,22.502 12.602,22.484 C12.620,22.484 12.638,22.484 12.655,22.484 C12.655,22.467 12.655,22.449 12.655,22.431 C12.673,22.431 12.691,22.431 12.708,22.431 C12.727,22.362 12.750,22.346 12.788,22.299 C12.797,22.299 12.806,22.299 12.814,22.299 C12.814,22.281 12.814,22.263 12.814,22.246 C12.823,22.246 12.832,22.246 12.841,22.246 C12.841,22.228 12.841,22.211 12.841,22.193 C12.850,22.193 12.859,22.193 12.867,22.193 C12.867,22.175 12.867,22.158 12.867,22.140 C12.876,22.140 12.885,22.140 12.894,22.140 C12.894,22.122 12.894,22.105 12.894,22.087 C12.903,22.087 12.911,22.087 12.920,22.087 C12.920,22.061 12.920,22.034 12.920,22.008 C12.938,21.999 12.956,21.990 12.973,21.981 C12.973,21.945 12.973,21.911 12.973,21.875 C12.982,21.875 12.991,21.875 13.000,21.875 C13.000,21.628 13.000,21.381 13.000,21.134 C12.991,21.134 12.982,21.134 12.973,21.134 C12.973,21.098 12.973,21.063 12.973,21.028 C12.964,21.028 12.956,21.028 12.947,21.028 C12.947,21.010 12.947,20.992 12.947,20.975 C12.938,20.975 12.929,20.975 12.920,20.975 C12.920,20.939 12.920,20.904 12.920,20.869 C12.903,20.860 12.885,20.851 12.867,20.842 C12.867,20.816 12.867,20.789 12.867,20.763 C12.841,20.745 12.814,20.727 12.788,20.710 C12.779,20.674 12.770,20.639 12.761,20.604 C12.753,20.604 12.744,20.604 12.735,20.604 C12.697,20.557 12.674,20.541 12.655,20.472 C12.638,20.472 12.620,20.472 12.602,20.472 C12.602,20.454 12.602,20.436 12.602,20.418 C12.585,20.418 12.567,20.418 12.549,20.418 C12.549,20.401 12.549,20.383 12.549,20.366 C12.532,20.366 12.514,20.366 12.496,20.366 C12.496,20.348 12.496,20.330 12.496,20.312 C12.479,20.312 12.461,20.312 12.443,20.312 C12.443,20.295 12.443,20.277 12.443,20.260 C12.426,20.260 12.408,20.260 12.390,20.260 C12.390,20.242 12.390,20.224 12.390,20.206 C12.372,20.206 12.355,20.206 12.337,20.206 C12.337,20.189 12.337,20.171 12.337,20.154 C12.319,20.154 12.302,20.154 12.284,20.154 C12.284,20.136 12.284,20.118 12.284,20.101 C12.267,20.101 12.249,20.101 12.231,20.101 C12.231,20.083 12.231,20.065 12.231,20.048 C12.213,20.048 12.196,20.048 12.178,20.048 C12.178,20.030 12.178,20.013 12.178,19.995 C12.160,19.995 12.143,19.995 12.125,19.995 C12.125,19.977 12.125,19.960 12.125,19.942 C12.107,19.942 12.090,19.942 12.072,19.942 C12.072,19.924 12.072,19.906 12.072,19.889 C12.054,19.889 12.037,19.889 12.019,19.889 C12.019,19.871 12.019,19.854 12.019,19.836 C12.001,19.836 11.984,19.836 11.966,19.836 C11.966,19.818 11.966,19.800 11.966,19.783 C11.948,19.783 11.931,19.783 11.913,19.783 C11.913,19.765 11.913,19.748 11.913,19.730 C11.895,19.730 11.878,19.730 11.860,19.730 C11.860,19.712 11.860,19.695 11.860,19.677 C11.842,19.677 11.825,19.677 11.807,19.677 C11.807,19.659 11.807,19.642 11.807,19.624 C11.789,19.624 11.772,19.624 11.754,19.624 C11.754,19.606 11.754,19.588 11.754,19.571 C11.736,19.571 11.719,19.571 11.701,19.571 C11.701,19.553 11.701,19.536 11.701,19.518 C11.683,19.518 11.666,19.518 11.648,19.518 C11.648,19.500 11.648,19.483 11.648,19.465 C11.630,19.465 11.613,19.465 11.595,19.465 C11.595,19.448 11.595,19.430 11.595,19.412 C11.577,19.412 11.560,19.412 11.542,19.412 C11.542,19.394 11.542,19.377 11.542,19.359 C11.524,19.359 11.507,19.359 11.489,19.359 C11.489,19.341 11.489,19.324 11.489,19.306 C11.471,19.306 11.454,19.306 11.436,19.306 C11.436,19.289 11.436,19.271 11.436,19.253 C11.418,19.253 11.401,19.253 11.383,19.253 C11.383,19.235 11.383,19.218 11.383,19.200 C11.365,19.200 11.348,19.200 11.330,19.200 C11.330,19.183 11.330,19.165 11.330,19.147 C11.312,19.147 11.295,19.147 11.277,19.147 C11.277,19.130 11.277,19.112 11.277,19.095 C11.259,19.095 11.241,19.095 11.224,19.095 C11.224,19.077 11.224,19.059 11.224,19.041 C11.206,19.041 11.188,19.041 11.171,19.041 C11.171,19.023 11.171,19.006 11.171,18.989 C11.153,18.989 11.135,18.989 11.118,18.989 C11.118,18.971 11.118,18.953 11.118,18.935 C11.100,18.935 11.083,18.935 11.065,18.935 C11.065,18.918 11.065,18.900 11.065,18.882 C11.047,18.882 11.030,18.882 11.012,18.882 C11.012,18.865 11.012,18.847 11.012,18.830 C10.994,18.830 10.977,18.830 10.959,18.830 C10.959,18.812 10.959,18.794 10.959,18.776 C10.941,18.776 10.923,18.776 10.906,18.776 C10.906,18.759 10.906,18.741 10.906,18.724 C10.888,18.724 10.870,18.724 10.853,18.724 C10.853,18.706 10.853,18.688 10.853,18.671 C10.835,18.671 10.817,18.671 10.800,18.671 C10.800,18.653 10.800,18.635 10.800,18.617 C10.782,18.617 10.764,18.617 10.747,18.617 C10.747,18.600 10.747,18.582 10.747,18.564 C10.729,18.564 10.711,18.564 10.694,18.564 C10.694,18.547 10.694,18.529 10.694,18.511 C10.676,18.511 10.658,18.511 10.641,18.511 C10.641,18.494 10.641,18.476 10.641,18.459 C10.623,18.459 10.605,18.459 10.588,18.459 C10.588,18.441 10.588,18.423 10.588,18.406 C10.570,18.406 10.552,18.406 10.535,18.406 C10.535,18.388 10.535,18.370 10.535,18.353 C10.517,18.353 10.499,18.353 10.482,18.353 C10.482,18.335 10.482,18.317 10.482,18.300 C10.464,18.300 10.446,18.300 10.429,18.300 C10.429,18.282 10.429,18.265 10.429,18.247 C10.411,18.247 10.393,18.247 10.376,18.247 C10.376,18.229 10.376,18.211 10.376,18.194 C10.358,18.194 10.340,18.194 10.323,18.194 C10.323,18.176 10.323,18.158 10.323,18.141 C10.305,18.141 10.287,18.141 10.270,18.141 C10.270,18.123 10.270,18.106 10.270,18.088 C10.252,18.088 10.234,18.088 10.217,18.088 C10.217,18.070 10.217,18.053 10.217,18.035 C10.199,18.035 10.181,18.035 10.164,18.035 C10.164,18.017 10.164,17.999 10.164,17.982 C10.146,17.982 10.128,17.982 10.111,17.982 C10.111,17.964 10.111,17.947 10.111,17.929 C10.093,17.929 10.075,17.929 10.058,17.929 C10.058,17.911 10.058,17.894 10.058,17.876 C10.040,17.876 10.022,17.876 10.005,17.876 C10.005,17.858 10.005,17.841 10.005,17.824 C9.987,17.824 9.969,17.824 9.952,17.824 C9.952,17.806 9.952,17.788 9.952,17.770 C9.934,17.770 9.916,17.770 9.898,17.770 C9.898,17.752 9.898,17.735 9.898,17.717 C9.881,17.717 9.863,17.717 9.846,17.717 C9.846,17.700 9.846,17.682 9.846,17.664 C9.828,17.664 9.810,17.664 9.792,17.664 C9.792,17.647 9.792,17.629 9.792,17.611 C9.775,17.611 9.757,17.611 9.739,17.611 C9.739,17.593 9.739,17.575 9.739,17.558 C9.722,17.558 9.704,17.558 9.686,17.558 C9.686,17.541 9.686,17.523 9.686,17.505 C9.669,17.505 9.651,17.505 9.633,17.505 C9.633,17.488 9.633,17.470 9.633,17.452 C9.616,17.452 9.598,17.452 9.580,17.452 C9.580,17.435 9.580,17.417 9.580,17.399 C9.563,17.399 9.545,17.399 9.527,17.399 C9.527,17.382 9.527,17.364 9.527,17.346 C9.510,17.346 9.492,17.346 9.474,17.346 C9.474,17.329 9.474,17.311 9.474,17.293 C9.457,17.293 9.439,17.293 9.421,17.293 C9.421,17.276 9.421,17.258 9.421,17.240 C9.404,17.240 9.386,17.240 9.368,17.240 C9.368,17.223 9.368,17.205 9.368,17.188 C9.351,17.188 9.333,17.188 9.315,17.188 C9.315,17.170 9.315,17.152 9.315,17.134 C9.298,17.134 9.280,17.134 9.262,17.134 C9.262,17.116 9.262,17.099 9.262,17.082 C9.245,17.082 9.227,17.082 9.209,17.082 C9.209,17.064 9.209,17.046 9.209,17.028 C9.192,17.028 9.174,17.028 9.156,17.028 C9.156,17.011 9.156,16.993 9.156,16.975 C9.139,16.975 9.121,16.975 9.103,16.975 C9.103,16.958 9.103,16.940 9.103,16.923 C9.086,16.923 9.068,16.923 9.050,16.923 C9.050,16.905 9.050,16.887 9.050,16.870 C9.033,16.870 9.015,16.870 8.997,16.870 C8.997,16.852 8.997,16.834 8.997,16.816 C8.980,16.816 8.962,16.816 8.944,16.816 C8.944,16.799 8.944,16.781 8.944,16.764 C8.927,16.764 8.909,16.764 8.891,16.764 C8.891,16.746 8.891,16.728 8.891,16.711 C8.874,16.711 8.856,16.711 8.838,16.711 C8.838,16.693 8.838,16.675 8.838,16.658 C8.821,16.658 8.803,16.658 8.785,16.658 C8.785,16.640 8.785,16.623 8.785,16.605 C8.768,16.605 8.750,16.605 8.732,16.605 C8.732,16.587 8.732,16.569 8.732,16.552 C8.715,16.552 8.697,16.552 8.679,16.552 C8.679,16.534 8.679,16.516 8.679,16.499 C8.662,16.499 8.644,16.499 8.626,16.499 C8.626,16.481 8.626,16.464 8.626,16.446 C8.609,16.446 8.591,16.446 8.573,16.446 C8.573,16.428 8.573,16.411 8.573,16.393 C8.556,16.393 8.538,16.393 8.520,16.393 C8.520,16.375 8.520,16.358 8.520,16.340 C8.503,16.340 8.485,16.340 8.467,16.340 C8.467,16.322 8.467,16.305 8.467,16.287 C8.449,16.287 8.432,16.287 8.414,16.287 C8.414,16.269 8.414,16.251 8.414,16.234 C8.396,16.234 8.379,16.234 8.361,16.234 C8.361,16.216 8.361,16.199 8.361,16.181 C8.343,16.181 8.326,16.181 8.308,16.181 C8.308,16.163 8.308,16.146 8.308,16.128 C8.290,16.128 8.273,16.128 8.255,16.128 C8.255,16.110 8.255,16.093 8.255,16.075 C8.237,16.075 8.220,16.075 8.202,16.075 C8.202,16.058 8.202,16.040 8.202,16.022 C8.184,16.022 8.167,16.022 8.149,16.022 C8.149,16.004 8.149,15.987 8.149,15.969 C8.131,15.969 8.114,15.969 8.096,15.969 C8.096,15.951 8.096,15.934 8.096,15.917 C8.078,15.917 8.061,15.917 8.043,15.917 C8.043,15.899 8.043,15.881 8.043,15.863 C8.025,15.863 8.008,15.863 7.990,15.863 C7.990,15.845 7.990,15.828 7.990,15.810 C7.972,15.810 7.955,15.810 7.937,15.810 C7.937,15.793 7.937,15.775 7.937,15.757 C7.919,15.757 7.902,15.757 7.884,15.757 C7.884,15.739 7.884,15.722 7.884,15.704 C7.866,15.704 7.849,15.704 7.831,15.704 C7.831,15.687 7.831,15.669 7.831,15.651 C7.813,15.651 7.796,15.651 7.778,15.651 C7.778,15.634 7.778,15.616 7.778,15.598 C7.760,15.598 7.743,15.598 7.725,15.598 C7.725,15.581 7.725,15.563 7.725,15.545 C7.707,15.545 7.690,15.545 7.672,15.545 C7.672,15.528 7.672,15.510 7.672,15.492 C7.654,15.492 7.637,15.492 7.619,15.492 C7.619,15.475 7.619,15.457 7.619,15.439 C7.601,15.439 7.584,15.439 7.566,15.439 C7.566,15.422 7.566,15.404 7.566,15.387 C7.548,15.387 7.531,15.387 7.513,15.387 C7.513,15.369 7.513,15.351 7.513,15.334 C7.495,15.334 7.478,15.334 7.460,15.334 C7.460,15.316 7.460,15.298 7.460,15.280 C7.442,15.280 7.425,15.280 7.407,15.280 C7.407,15.263 7.407,15.245 7.407,15.227 C7.389,15.227 7.372,15.227 7.354,15.227 C7.354,15.210 7.354,15.192 7.354,15.175 C7.336,15.175 7.319,15.175 7.301,15.175 C7.301,15.157 7.301,15.139 7.301,15.122 C7.283,15.122 7.266,15.122 7.248,15.122 C7.248,15.104 7.248,15.086 7.248,15.069 C7.230,15.069 7.212,15.069 7.195,15.069 C7.195,15.051 7.195,15.034 7.195,15.015 C7.177,15.015 7.159,15.015 7.142,15.015 C7.142,14.998 7.142,14.980 7.142,14.963 C7.124,14.963 7.106,14.963 7.089,14.963 C7.089,14.945 7.089,14.927 7.089,14.910 C7.071,14.910 7.053,14.910 7.036,14.910 C7.036,14.892 7.036,14.875 7.036,14.857 C7.018,14.857 7.000,14.857 6.983,14.857 C6.983,14.839 6.983,14.822 6.983,14.804 C6.965,14.804 6.947,14.804 6.930,14.804 C6.930,14.786 6.930,14.768 6.930,14.751 C6.912,14.751 6.894,14.751 6.877,14.751 C6.877,14.733 6.877,14.716 6.877,14.698 C6.859,14.698 6.841,14.698 6.824,14.698 C6.824,14.680 6.824,14.663 6.824,14.645 C6.806,14.645 6.788,14.645 6.771,14.645 C6.771,14.628 6.771,14.610 6.771,14.592 C6.753,14.592 6.735,14.592 6.718,14.592 C6.718,14.574 6.718,14.557 6.718,14.539 C6.700,14.539 6.682,14.539 6.665,14.539 C6.665,14.522 6.665,14.504 6.665,14.486 C6.647,14.486 6.629,14.486 6.612,14.486 C6.612,14.468 6.612,14.451 6.612,14.433 C6.594,14.433 6.576,14.433 6.559,14.433 C6.559,14.415 6.559,14.398 6.559,14.380 C6.541,14.380 6.523,14.380 6.506,14.380 C6.506,14.363 6.506,14.345 6.506,14.327 C6.488,14.327 6.470,14.327 6.453,14.327 C6.453,14.310 6.453,14.292 6.453,14.274 C6.435,14.274 6.417,14.274 6.400,14.274 C6.400,14.256 6.400,14.239 6.400,14.221 C6.382,14.221 6.364,14.221 6.347,14.221 C6.347,14.203 6.347,14.186 6.347,14.168 C6.329,14.168 6.311,14.168 6.294,14.168 C6.294,14.150 6.294,14.133 6.294,14.115 C6.276,14.115 6.258,14.115 6.241,14.115 C6.241,14.098 6.241,14.080 6.241,14.062 C6.223,14.062 6.205,14.062 6.188,14.062 C6.188,14.045 6.188,14.027 6.188,14.009 C6.170,14.009 6.152,14.009 6.135,14.009 C6.135,13.992 6.135,13.974 6.135,13.956 C6.117,13.956 6.099,13.956 6.082,13.956 C6.082,13.938 6.082,13.921 6.082,13.903 C6.064,13.903 6.046,13.903 6.028,13.903 C6.028,13.886 6.028,13.868 6.028,13.851 C6.011,13.851 5.993,13.851 5.975,13.851 C5.975,13.833 5.975,13.815 5.975,13.797 C5.958,13.797 5.940,13.797 5.922,13.797 C5.922,13.780 5.922,13.762 5.922,13.744 C5.905,13.744 5.887,13.744 5.869,13.744 C5.869,13.727 5.869,13.709 5.869,13.692 C5.852,13.692 5.834,13.692 5.817,13.692 C5.817,13.674 5.817,13.656 5.817,13.639 C5.799,13.639 5.781,13.639 5.763,13.639 C5.763,13.620 5.763,13.603 5.763,13.585 C5.746,13.585 5.728,13.585 5.710,13.585 C5.710,13.568 5.710,13.550 5.710,13.533 C5.693,13.533 5.675,13.533 5.657,13.533 C5.657,13.515 5.657,13.497 5.657,13.480 C5.640,13.480 5.622,13.480 5.604,13.480 C5.604,13.462 5.604,13.445 5.604,13.427 C5.587,13.427 5.569,13.427 5.551,13.427 C5.551,13.409 5.551,13.391 5.551,13.373 C5.534,13.373 5.516,13.373 5.498,13.373 C5.498,13.356 5.498,13.339 5.498,13.321 C5.481,13.321 5.463,13.321 5.445,13.321 C5.445,13.303 5.445,13.285 5.445,13.268 C5.428,13.268 5.410,13.268 5.392,13.268 C5.392,13.250 5.392,13.232 5.392,13.215 C5.375,13.215 5.357,13.215 5.339,13.215 C5.339,13.197 5.339,13.179 5.339,13.162 C5.322,13.162 5.304,13.162 5.286,13.162 C5.286,13.144 5.286,13.127 5.286,13.109 C5.269,13.109 5.251,13.109 5.233,13.109 C5.233,13.091 5.233,13.074 5.233,13.056 C5.216,13.056 5.198,13.056 5.180,13.056 C5.180,13.038 5.180,13.021 5.180,13.003 C5.163,13.003 5.145,13.003 5.127,13.003 C5.127,12.985 5.127,12.967 5.127,12.950 C5.110,12.950 5.092,12.950 5.074,12.950 C5.074,12.932 5.074,12.914 5.074,12.897 C5.057,12.897 5.039,12.897 5.021,12.897 C5.021,12.879 5.021,12.862 5.021,12.844 C5.004,12.844 4.986,12.844 4.968,12.844 C4.968,12.827 4.968,12.809 4.968,12.791 C4.951,12.791 4.933,12.791 4.915,12.791 C4.915,12.773 4.915,12.756 4.915,12.738 C4.898,12.738 4.880,12.738 4.862,12.738 C4.862,12.720 4.862,12.703 4.862,12.685 C4.845,12.685 4.827,12.685 4.809,12.685 C4.809,12.667 4.809,12.649 4.809,12.632 C4.792,12.632 4.774,12.632 4.756,12.632 C4.756,12.615 4.756,12.597 4.756,12.579 C4.739,12.579 4.721,12.579 4.703,12.579 C4.703,12.561 4.703,12.544 4.703,12.526 C4.685,12.526 4.668,12.526 4.650,12.526 C4.650,12.508 4.650,12.491 4.650,12.473 C4.632,12.473 4.615,12.473 4.597,12.473 C4.597,12.455 4.597,12.438 4.597,12.420 C4.579,12.420 4.562,12.420 4.544,12.420 C4.544,12.403 4.544,12.385 4.544,12.367 C4.526,12.367 4.509,12.367 4.491,12.367 C4.491,12.349 4.491,12.332 4.491,12.314 C4.473,12.314 4.456,12.314 4.438,12.314 C4.438,12.297 4.438,12.279 4.438,12.262 C4.420,12.262 4.403,12.262 4.385,12.262 C4.385,12.244 4.385,12.225 4.385,12.208 C4.367,12.208 4.350,12.208 4.332,12.208 C4.332,12.190 4.332,12.173 4.332,12.155 C4.314,12.155 4.297,12.155 4.279,12.155 C4.279,12.137 4.279,12.120 4.279,12.102 C4.261,12.102 4.244,12.102 4.226,12.102 C4.226,12.085 4.226,12.067 4.226,12.050 C4.208,12.050 4.191,12.050 4.173,12.050 C4.173,12.032 4.173,12.014 4.173,11.997 C4.155,11.997 4.138,11.997 4.120,11.997 C4.120,11.979 4.120,11.961 4.120,11.943 C4.102,11.943 4.085,11.943 4.067,11.943 C4.067,11.926 4.067,11.908 4.067,11.891 C4.049,11.891 4.032,11.891 4.014,11.891 C4.014,11.873 4.014,11.855 4.014,11.838 C3.996,11.838 3.979,11.838 3.961,11.838 C3.961,11.819 3.961,11.802 3.961,11.784 C3.943,11.784 3.926,11.784 3.908,11.784 C3.908,11.767 3.908,11.749 3.908,11.732 C3.890,11.732 3.873,11.732 3.855,11.732 C3.855,11.714 3.855,11.696 3.855,11.679 C3.837,11.679 3.820,11.679 3.802,11.679 C3.802,11.661 3.802,11.643 3.802,11.626 C3.784,11.626 3.767,11.626 3.749,11.626 C3.749,11.608 3.749,11.590 3.749,11.572 C3.731,11.572 3.714,11.572 3.696,11.572 C3.676,11.469 3.677,11.464 3.696,11.361 C3.714,11.361 3.731,11.361 3.749,11.361 C3.749,11.343 3.749,11.326 3.749,11.308 C3.767,11.308 3.784,11.308 3.802,11.308 C3.802,11.291 3.802,11.272 3.802,11.255 C3.820,11.255 3.837,11.255 3.855,11.255 C3.855,11.237 3.855,11.220 3.855,11.202 C3.873,11.202 3.890,11.202 3.908,11.202 C3.908,11.184 3.908,11.167 3.908,11.149 C3.926,11.149 3.943,11.149 3.961,11.149 C3.961,11.131 3.961,11.113 3.961,11.096 C3.979,11.096 3.996,11.096 4.014,11.096 C4.014,11.079 4.014,11.061 4.014,11.043 C4.032,11.043 4.049,11.043 4.067,11.043 C4.067,11.026 4.067,11.008 4.067,10.990 C4.085,10.990 4.102,10.990 4.120,10.990 C4.120,10.973 4.120,10.955 4.120,10.937 C4.138,10.937 4.155,10.937 4.173,10.937 C4.173,10.919 4.173,10.902 4.173,10.884 C4.191,10.884 4.208,10.884 4.226,10.884 C4.226,10.867 4.226,10.849 4.226,10.831 C4.244,10.831 4.261,10.831 4.279,10.831 C4.279,10.814 4.279,10.796 4.279,10.778 C4.297,10.778 4.314,10.778 4.332,10.778 C4.332,10.760 4.332,10.743 4.332,10.725 C4.350,10.725 4.367,10.725 4.385,10.725 C4.385,10.708 4.385,10.690 4.385,10.672 C4.403,10.672 4.420,10.672 4.438,10.672 C4.438,10.655 4.438,10.637 4.438,10.619 C4.456,10.619 4.473,10.619 4.491,10.619 C4.491,10.601 4.491,10.584 4.491,10.566 C4.509,10.566 4.526,10.566 4.544,10.566 C4.544,10.549 4.544,10.531 4.544,10.513 C4.562,10.513 4.579,10.513 4.597,10.513 C4.597,10.496 4.597,10.478 4.597,10.460 C4.615,10.460 4.632,10.460 4.650,10.460 C4.650,10.443 4.650,10.425 4.650,10.408 C4.668,10.408 4.685,10.408 4.703,10.408 C4.703,10.390 4.703,10.372 4.703,10.354 C4.721,10.354 4.739,10.354 4.756,10.354 C4.756,10.337 4.756,10.319 4.756,10.301 C4.774,10.301 4.792,10.301 4.809,10.301 C4.809,10.284 4.809,10.266 4.809,10.249 C4.827,10.249 4.845,10.249 4.862,10.249 C4.862,10.231 4.862,10.213 4.862,10.195 C4.880,10.195 4.898,10.195 4.915,10.195 C4.915,10.177 4.915,10.160 4.915,10.143 C4.933,10.143 4.951,10.143 4.968,10.143 C4.968,10.125 4.968,10.107 4.968,10.089 C4.986,10.089 5.004,10.089 5.021,10.089 C5.021,10.072 5.021,10.054 5.021,10.037 C5.039,10.037 5.057,10.037 5.074,10.037 C5.074,10.019 5.074,10.001 5.074,9.984 C5.092,9.984 5.110,9.984 5.127,9.984 C5.127,9.966 5.127,9.948 5.127,9.931 C5.145,9.931 5.163,9.931 5.180,9.931 C5.180,9.913 5.180,9.896 5.180,9.878 C5.198,9.878 5.216,9.878 5.233,9.878 C5.233,9.860 5.233,9.842 5.233,9.825 C5.251,9.825 5.269,9.825 5.286,9.825 C5.286,9.808 5.286,9.789 5.286,9.772 C5.304,9.772 5.322,9.772 5.339,9.772 C5.339,9.754 5.339,9.736 5.339,9.719 C5.357,9.719 5.375,9.719 5.392,9.719 C5.392,9.701 5.392,9.684 5.392,9.666 C5.410,9.666 5.428,9.666 5.445,9.666 C5.445,9.648 5.445,9.631 5.445,9.613 C5.463,9.613 5.481,9.613 5.498,9.613 C5.498,9.595 5.498,9.577 5.498,9.560 C5.516,9.560 5.534,9.560 5.551,9.560 C5.551,9.542 5.551,9.525 5.551,9.507 C5.569,9.507 5.587,9.507 5.604,9.507 C5.604,9.489 5.604,9.472 5.604,9.454 C5.622,9.454 5.640,9.454 5.657,9.454 C5.657,9.436 5.657,9.419 5.657,9.401 C5.675,9.401 5.693,9.401 5.710,9.401 C5.710,9.383 5.710,9.366 5.710,9.348 C5.728,9.348 5.746,9.348 5.763,9.348 C5.763,9.330 5.763,9.313 5.763,9.295 C5.781,9.295 5.799,9.295 5.817,9.295 C5.817,9.277 5.817,9.260 5.817,9.242 C5.834,9.242 5.852,9.242 5.869,9.242 C5.869,9.224 5.869,9.207 5.869,9.189 C5.887,9.189 5.905,9.189 5.922,9.189 C5.922,9.172 5.922,9.153 5.922,9.136 C5.940,9.136 5.958,9.136 5.975,9.136 C5.975,9.118 5.975,9.101 5.975,9.083 C5.993,9.083 6.011,9.083 6.028,9.083 C6.028,9.066 6.028,9.048 6.028,9.030 C6.046,9.030 6.064,9.030 6.082,9.030 C6.082,9.013 6.082,8.994 6.082,8.977 C6.099,8.977 6.117,8.977 6.135,8.977 C6.135,8.960 6.135,8.942 6.135,8.924 C6.152,8.924 6.170,8.924 6.188,8.924 C6.188,8.907 6.188,8.889 6.188,8.872 C6.205,8.872 6.223,8.872 6.241,8.872 C6.241,8.854 6.241,8.836 6.241,8.818 C6.258,8.818 6.276,8.818 6.294,8.818 C6.294,8.801 6.294,8.783 6.294,8.765 C6.311,8.765 6.329,8.765 6.347,8.765 C6.347,8.748 6.347,8.730 6.347,8.712 C6.364,8.712 6.382,8.712 6.400,8.712 C6.400,8.695 6.400,8.677 6.400,8.660 C6.417,8.660 6.435,8.660 6.453,8.660 C6.453,8.642 6.453,8.624 6.453,8.606 C6.470,8.606 6.488,8.606 6.506,8.606 C6.506,8.589 6.506,8.571 6.506,8.553 C6.523,8.553 6.541,8.553 6.559,8.553 C6.559,8.536 6.559,8.519 6.559,8.501 C6.576,8.501 6.594,8.501 6.612,8.501 C6.612,8.483 6.612,8.465 6.612,8.447 C6.629,8.447 6.647,8.447 6.665,8.447 C6.665,8.430 6.665,8.412 6.665,8.394 C6.682,8.394 6.700,8.394 6.718,8.394 C6.718,8.377 6.718,8.359 6.718,8.342 C6.735,8.342 6.753,8.342 6.771,8.342 C6.771,8.324 6.771,8.306 6.771,8.288 C6.788,8.288 6.806,8.288 6.824,8.288 C6.824,8.271 6.824,8.253 6.824,8.236 C6.841,8.236 6.859,8.236 6.877,8.236 C6.877,8.218 6.877,8.201 6.877,8.182 C6.894,8.182 6.912,8.182 6.930,8.182 C6.930,8.165 6.930,8.147 6.930,8.129 C6.947,8.129 6.965,8.129 6.983,8.129 C6.983,8.112 6.983,8.094 6.983,8.077 C7.000,8.077 7.018,8.077 7.036,8.077 C7.036,8.059 7.036,8.042 7.036,8.024 C7.053,8.024 7.071,8.024 7.089,8.024 C7.089,8.006 7.089,7.988 7.089,7.971 C7.106,7.971 7.124,7.971 7.142,7.971 C7.142,7.953 7.142,7.936 7.142,7.918 C7.159,7.918 7.177,7.918 7.195,7.918 C7.195,7.900 7.195,7.883 7.195,7.865 C7.212,7.865 7.230,7.865 7.248,7.865 C7.248,7.847 7.248,7.830 7.248,7.812 C7.266,7.812 7.283,7.812 7.301,7.812 C7.301,7.795 7.301,7.777 7.301,7.759 C7.319,7.759 7.336,7.759 7.354,7.759 C7.354,7.741 7.354,7.723 7.354,7.706 C7.372,7.706 7.389,7.706 7.407,7.706 C7.407,7.688 7.407,7.671 7.407,7.653 C7.425,7.653 7.442,7.653 7.460,7.653 C7.460,7.636 7.460,7.618 7.460,7.600 C7.478,7.600 7.495,7.600 7.513,7.600 C7.513,7.582 7.513,7.565 7.513,7.547 C7.531,7.547 7.548,7.547 7.566,7.547 C7.566,7.529 7.566,7.512 7.566,7.495 C7.584,7.495 7.601,7.495 7.619,7.495 C7.619,7.477 7.619,7.459 7.619,7.441 C7.637,7.441 7.654,7.441 7.672,7.441 C7.672,7.424 7.672,7.406 7.672,7.388 C7.690,7.388 7.707,7.388 7.725,7.388 C7.725,7.371 7.725,7.353 7.725,7.335 C7.743,7.335 7.760,7.335 7.778,7.335 C7.778,7.317 7.778,7.300 7.778,7.282 C7.796,7.282 7.813,7.282 7.831,7.282 C7.831,7.265 7.831,7.247 7.831,7.229 C7.849,7.229 7.866,7.229 7.884,7.229 C7.884,7.212 7.884,7.194 7.884,7.176 C7.902,7.176 7.919,7.176 7.937,7.176 C7.937,7.159 7.937,7.141 7.937,7.123 C7.955,7.123 7.972,7.123 7.990,7.123 C7.990,7.106 7.990,7.088 7.990,7.071 C8.008,7.071 8.025,7.071 8.043,7.071 C8.043,7.053 8.043,7.035 8.043,7.017 C8.061,7.017 8.078,7.017 8.096,7.017 C8.096,7.000 8.096,6.982 8.096,6.965 C8.114,6.965 8.131,6.965 8.149,6.965 C8.149,6.947 8.149,6.929 8.149,6.911 C8.167,6.911 8.184,6.911 8.202,6.911 C8.202,6.894 8.202,6.876 8.202,6.858 C8.220,6.858 8.237,6.858 8.255,6.858 C8.255,6.841 8.255,6.823 8.255,6.805 C8.273,6.805 8.290,6.805 8.308,6.805 C8.308,6.788 8.308,6.770 8.308,6.753 C8.326,6.753 8.343,6.753 8.361,6.753 C8.361,6.735 8.361,6.717 8.361,6.700 C8.379,6.700 8.396,6.700 8.414,6.700 C8.414,6.682 8.414,6.664 8.414,6.647 C8.432,6.647 8.449,6.647 8.467,6.647 C8.467,6.629 8.467,6.612 8.467,6.593 C8.485,6.593 8.503,6.593 8.520,6.593 C8.520,6.576 8.520,6.558 8.520,6.541 C8.538,6.541 8.556,6.541 8.573,6.541 C8.573,6.523 8.573,6.505 8.573,6.487 C8.591,6.487 8.609,6.487 8.626,6.487 C8.626,6.470 8.626,6.453 8.626,6.435 C8.644,6.435 8.662,6.435 8.679,6.435 C8.679,6.417 8.679,6.400 8.679,6.382 C8.697,6.382 8.715,6.382 8.732,6.382 C8.732,6.364 8.732,6.346 8.732,6.329 C8.750,6.329 8.768,6.329 8.785,6.329 C8.785,6.311 8.785,6.293 8.785,6.276 C8.803,6.276 8.821,6.276 8.838,6.276 C8.838,6.258 8.838,6.241 8.838,6.223 C8.856,6.223 8.874,6.223 8.891,6.223 C8.891,6.205 8.891,6.187 8.891,6.170 C8.909,6.170 8.927,6.170 8.944,6.170 C8.944,6.152 8.944,6.135 8.944,6.117 C8.962,6.117 8.980,6.117 8.997,6.117 C8.997,6.099 8.997,6.082 8.997,6.064 C9.015,6.064 9.033,6.064 9.050,6.064 C9.050,6.046 9.050,6.029 9.050,6.011 C9.068,6.011 9.086,6.011 9.103,6.011 C9.103,5.993 9.103,5.976 9.103,5.958 C9.121,5.958 9.139,5.958 9.156,5.958 C9.156,5.940 9.156,5.922 9.156,5.905 C9.174,5.905 9.192,5.905 9.209,5.905 C9.209,5.888 9.209,5.870 9.209,5.852 C9.227,5.852 9.245,5.852 9.262,5.852 C9.262,5.834 9.262,5.817 9.262,5.800 C9.280,5.800 9.298,5.800 9.315,5.800 C9.315,5.781 9.315,5.764 9.315,5.746 C9.333,5.746 9.351,5.746 9.368,5.746 C9.368,5.728 9.368,5.711 9.368,5.693 C9.386,5.693 9.404,5.693 9.421,5.693 C9.421,5.676 9.421,5.658 9.421,5.640 C9.439,5.640 9.457,5.640 9.474,5.640 C9.474,5.622 9.474,5.605 9.474,5.587 C9.492,5.587 9.510,5.587 9.527,5.587 C9.527,5.570 9.527,5.552 9.527,5.534 C9.545,5.534 9.563,5.534 9.580,5.534 C9.580,5.517 9.580,5.499 9.580,5.481 C9.598,5.481 9.616,5.481 9.633,5.481 C9.633,5.463 9.633,5.446 9.633,5.429 C9.651,5.429 9.669,5.429 9.686,5.429 C9.686,5.411 9.686,5.393 9.686,5.375 C9.704,5.375 9.722,5.375 9.739,5.375 C9.739,5.358 9.739,5.340 9.739,5.322 C9.757,5.322 9.775,5.322 9.792,5.322 C9.792,5.305 9.792,5.287 9.792,5.269 C9.810,5.269 9.828,5.269 9.846,5.269 C9.846,5.252 9.846,5.234 9.846,5.217 C9.863,5.217 9.881,5.217 9.898,5.217 C9.898,5.199 9.898,5.181 9.898,5.163 C9.916,5.163 9.934,5.163 9.952,5.163 C9.952,5.146 9.952,5.128 9.952,5.111 C9.969,5.111 9.987,5.111 10.005,5.111 C10.005,5.093 10.005,5.075 10.005,5.058 C10.022,5.058 10.040,5.058 10.058,5.058 C10.058,5.040 10.058,5.022 10.058,5.005 C10.075,5.005 10.093,5.005 10.111,5.005 C10.111,4.987 10.111,4.969 10.111,4.951 C10.128,4.951 10.146,4.951 10.164,4.951 C10.164,4.934 10.164,4.916 10.164,4.898 C10.181,4.898 10.199,4.898 10.217,4.898 C10.217,4.881 10.217,4.863 10.217,4.846 C10.234,4.846 10.252,4.846 10.270,4.846 C10.270,4.828 10.270,4.810 10.270,4.793 C10.287,4.793 10.305,4.793 10.323,4.793 C10.323,4.775 10.323,4.757 10.323,4.740 C10.340,4.740 10.358,4.740 10.376,4.740 C10.376,4.722 10.376,4.705 10.376,4.687 C10.393,4.687 10.411,4.687 10.429,4.687 C10.429,4.669 10.429,4.651 10.429,4.634 C10.446,4.634 10.464,4.634 10.482,4.634 C10.482,4.616 10.482,4.599 10.482,4.581 C10.499,4.581 10.517,4.581 10.535,4.581 C10.535,4.563 10.535,4.545 10.535,4.528 C10.552,4.528 10.570,4.528 10.588,4.528 C10.588,4.510 10.588,4.493 10.588,4.475 C10.605,4.475 10.623,4.475 10.641,4.475 C10.641,4.457 10.641,4.439 10.641,4.422 C10.658,4.422 10.676,4.422 10.694,4.422 C10.694,4.405 10.694,4.386 10.694,4.369 C10.711,4.369 10.729,4.369 10.747,4.369 C10.747,4.351 10.747,4.334 10.747,4.316 C10.764,4.316 10.782,4.316 10.800,4.316 C10.800,4.298 10.800,4.281 10.800,4.263 C10.817,4.263 10.835,4.263 10.853,4.263 C10.853,4.245 10.853,4.228 10.853,4.210 C10.870,4.210 10.888,4.210 10.906,4.210 C10.906,4.192 10.906,4.175 10.906,4.157 C10.923,4.157 10.941,4.157 10.959,4.157 C10.959,4.140 10.959,4.122 10.959,4.104 C10.977,4.104 10.994,4.104 11.012,4.104 C11.012,4.086 11.012,4.068 11.012,4.051 C11.030,4.051 11.047,4.051 11.065,4.051 C11.065,4.033 11.065,4.016 11.065,3.998 C11.083,3.998 11.100,3.998 11.118,3.998 C11.118,3.980 11.118,3.963 11.118,3.945 C11.135,3.945 11.153,3.945 11.171,3.945 C11.171,3.927 11.171,3.910 11.171,3.892 C11.188,3.892 11.206,3.892 11.224,3.892 C11.224,3.875 11.224,3.857 11.224,3.840 C11.241,3.840 11.259,3.840 11.277,3.840 C11.277,3.822 11.277,3.804 11.277,3.786 C11.295,3.786 11.312,3.786 11.330,3.786 C11.330,3.769 11.330,3.751 11.330,3.733 C11.348,3.733 11.365,3.733 11.383,3.733 C11.383,3.716 11.383,3.698 11.383,3.680 C11.401,3.680 11.418,3.680 11.436,3.680 C11.436,3.663 11.436,3.645 11.436,3.627 C11.454,3.627 11.471,3.627 11.489,3.627 C11.489,3.610 11.489,3.592 11.489,3.574 C11.507,3.574 11.524,3.574 11.542,3.574 C11.542,3.557 11.542,3.539 11.542,3.521 C11.560,3.521 11.577,3.521 11.595,3.521 C11.595,3.504 11.595,3.486 11.595,3.469 C11.613,3.469 11.630,3.469 11.648,3.469 C11.648,3.451 11.648,3.433 11.648,3.416 C11.666,3.416 11.683,3.416 11.701,3.416 C11.701,3.398 11.701,3.380 11.701,3.362 C11.719,3.362 11.736,3.362 11.754,3.362 C11.754,3.345 11.754,3.327 11.754,3.310 C11.772,3.310 11.789,3.310 11.807,3.310 C11.807,3.292 11.807,3.274 11.807,3.257 C11.825,3.257 11.842,3.257 11.860,3.257 C11.860,3.239 11.860,3.221 11.860,3.204 C11.878,3.204 11.895,3.204 11.913,3.204 C11.913,3.186 11.913,3.168 11.913,3.151 C11.931,3.151 11.948,3.151 11.966,3.151 C11.966,3.133 11.966,3.116 11.966,3.098 C11.984,3.098 12.001,3.098 12.019,3.098 C12.019,3.080 12.019,3.062 12.019,3.045 C12.037,3.045 12.054,3.045 12.072,3.045 C12.072,3.027 12.072,3.010 12.072,2.992 C12.090,2.992 12.107,2.992 12.125,2.992 C12.125,2.975 12.125,2.956 12.125,2.939 C12.143,2.939 12.160,2.939 12.178,2.939 C12.178,2.921 12.178,2.903 12.178,2.886 C12.196,2.886 12.213,2.886 12.231,2.886 C12.231,2.869 12.231,2.850 12.231,2.833 C12.249,2.833 12.267,2.833 12.284,2.833 C12.284,2.815 12.284,2.798 12.284,2.780 C12.302,2.780 12.319,2.780 12.337,2.780 C12.337,2.762 12.337,2.745 12.337,2.727 C12.355,2.727 12.372,2.727 12.390,2.727 C12.390,2.709 12.390,2.692 12.390,2.674 C12.408,2.674 12.426,2.674 12.443,2.674 C12.443,2.656 12.443,2.639 12.443,2.621 C12.461,2.621 12.479,2.621 12.496,2.621 C12.496,2.604 12.496,2.586 12.496,2.568 C12.514,2.568 12.532,2.568 12.549,2.568 C12.549,2.550 12.549,2.532 12.549,2.515 C12.567,2.515 12.585,2.515 12.602,2.515 C12.602,2.497 12.602,2.480 12.602,2.462 C12.620,2.462 12.638,2.462 12.655,2.462 C12.655,2.444 12.655,2.427 12.655,2.409 C12.673,2.409 12.691,2.409 12.708,2.409 C12.728,2.339 12.751,2.326 12.788,2.277 C12.797,2.277 12.806,2.277 12.814,2.277 C12.814,2.250 12.814,2.224 12.814,2.197 C12.832,2.188 12.850,2.179 12.867,2.171 C12.867,2.145 12.867,2.118 12.867,2.091 C12.885,2.083 12.903,2.074 12.920,2.065 C12.920,2.030 12.920,1.994 12.920,1.959 C12.929,1.959 12.938,1.959 12.947,1.959 C12.947,1.941 12.947,1.924 12.947,1.906 C12.956,1.906 12.964,1.906 12.973,1.906 C12.973,1.870 12.973,1.836 12.973,1.800 C12.982,1.800 12.991,1.800 13.000,1.800 C13.000,1.570 13.000,1.341 13.000,1.112 C12.991,1.112 12.982,1.112 12.973,1.112 C12.973,1.076 12.973,1.041 12.973,1.005 C12.964,1.005 12.956,1.005 12.947,1.005 C12.947,0.988 12.947,0.970 12.947,0.953 C12.938,0.953 12.929,0.953 12.920,0.953 C12.920,0.917 12.920,0.882 12.920,0.846 C12.903,0.838 12.885,0.829 12.867,0.820 C12.867,0.793 12.867,0.767 12.867,0.741 C12.850,0.731 12.832,0.722 12.814,0.714 C12.814,0.688 12.814,0.661 12.814,0.635 C12.806,0.635 12.797,0.635 12.788,0.635 C12.751,0.585 12.728,0.572 12.708,0.502 C12.691,0.502 12.673,0.502 12.655,0.502 C12.655,0.485 12.655,0.467 12.655,0.449 C12.638,0.449 12.620,0.449 12.602,0.449 C12.602,0.431 12.602,0.414 12.602,0.396 C12.585,0.396 12.567,0.396 12.549,0.396 C12.549,0.379 12.549,0.361 12.549,0.343 C12.532,0.343 12.514,0.343 12.496,0.343 C12.496,0.326 12.496,0.308 12.496,0.290 C12.426,0.271 12.413,0.248 12.364,0.211 C12.364,0.202 12.364,0.193 12.364,0.184 C12.337,0.184 12.311,0.184 12.284,0.184 C12.275,0.166 12.267,0.149 12.258,0.131 C12.231,0.131 12.205,0.131 12.178,0.131 C12.169,0.114 12.160,0.096 12.152,0.079 C12.116,0.079 12.081,0.079 12.046,0.079 C12.046,0.069 12.046,0.061 12.046,0.052 C12.028,0.052 12.010,0.052 11.993,0.052 C11.993,0.043 11.993,0.034 11.993,0.026 C11.957,0.026 11.922,0.026 11.887,0.026 C11.887,0.017 11.887,0.008 11.887,-0.001 C11.639,-0.001 11.392,-0.001 11.144,-0.001 C11.144,0.008 11.144,0.017 11.144,0.026 C11.109,0.026 11.074,0.026 11.038,0.026 C11.030,0.043 11.021,0.061 11.012,0.079 C10.985,0.079 10.959,0.079 10.932,0.079 C10.924,0.096 10.915,0.114 10.906,0.131 C10.879,0.131 10.853,0.131 10.826,0.131 C10.817,0.149 10.809,0.166 10.800,0.184 C10.773,0.184 10.747,0.184 10.720,0.184 C10.720,0.193 10.720,0.202 10.720,0.211 C10.671,0.248 10.658,0.271 10.588,0.290 Z"/>
</svg>