<svg 
 xmlns="http://www.w3.org/2000/svg"
 xmlns:xlink="http://www.w3.org/1999/xlink"
 width="13px" height="23px">
<path fill-rule="evenodd"  fill="rgb(255, 255, 255)"
 d="M2.412,22.709 C2.412,22.691 2.412,22.674 2.412,22.656 C2.430,22.656 2.448,22.656 2.465,22.656 C2.465,22.638 2.465,22.620 2.465,22.603 C2.483,22.603 2.501,22.603 2.518,22.603 C2.518,22.585 2.518,22.568 2.518,22.550 C2.536,22.550 2.554,22.550 2.571,22.550 C2.571,22.532 2.571,22.515 2.571,22.497 C2.589,22.497 2.607,22.497 2.624,22.497 C2.624,22.479 2.624,22.462 2.624,22.444 C2.642,22.444 2.660,22.444 2.677,22.444 C2.677,22.426 2.677,22.409 2.677,22.391 C2.695,22.391 2.713,22.391 2.730,22.391 C2.730,22.373 2.730,22.356 2.730,22.338 C2.748,22.338 2.766,22.338 2.783,22.338 C2.783,22.320 2.783,22.303 2.783,22.285 C2.801,22.285 2.819,22.285 2.836,22.285 C2.836,22.268 2.836,22.250 2.836,22.232 C2.854,22.232 2.872,22.232 2.889,22.232 C2.889,22.214 2.889,22.197 2.889,22.179 C2.907,22.179 2.925,22.179 2.942,22.179 C2.942,22.161 2.942,22.144 2.942,22.126 C2.960,22.126 2.978,22.126 2.995,22.126 C2.995,22.109 2.995,22.091 2.995,22.073 C3.013,22.073 3.031,22.073 3.048,22.073 C3.048,22.055 3.048,22.038 3.048,22.020 C3.066,22.020 3.084,22.020 3.101,22.020 C3.101,22.002 3.101,21.985 3.101,21.967 C3.119,21.967 3.137,21.967 3.154,21.967 C3.154,21.949 3.154,21.932 3.154,21.914 C3.172,21.914 3.190,21.914 3.207,21.914 C3.207,21.896 3.207,21.879 3.207,21.861 C3.225,21.861 3.243,21.861 3.260,21.861 C3.260,21.844 3.260,21.826 3.260,21.808 C3.278,21.808 3.296,21.808 3.313,21.808 C3.313,21.791 3.313,21.773 3.313,21.756 C3.331,21.756 3.349,21.756 3.366,21.756 C3.366,21.737 3.366,21.720 3.366,21.702 C3.384,21.702 3.402,21.702 3.419,21.702 C3.419,21.685 3.419,21.667 3.419,21.650 C3.437,21.650 3.455,21.650 3.472,21.650 C3.472,21.632 3.472,21.614 3.472,21.596 C3.490,21.596 3.508,21.596 3.525,21.596 C3.525,21.579 3.525,21.561 3.525,21.544 C3.543,21.544 3.561,21.544 3.579,21.544 C3.579,21.526 3.579,21.508 3.579,21.490 C3.596,21.490 3.614,21.490 3.632,21.490 C3.632,21.473 3.632,21.455 3.632,21.438 C3.649,21.438 3.667,21.438 3.685,21.438 C3.685,21.420 3.685,21.402 3.685,21.385 C3.702,21.385 3.720,21.385 3.737,21.385 C3.737,21.367 3.737,21.349 3.737,21.332 C3.755,21.332 3.773,21.332 3.790,21.332 C3.790,21.314 3.790,21.296 3.790,21.279 C3.808,21.279 3.826,21.279 3.844,21.279 C3.844,21.261 3.844,21.244 3.844,21.226 C3.861,21.226 3.879,21.226 3.897,21.226 C3.897,21.208 3.897,21.190 3.897,21.173 C3.914,21.173 3.932,21.173 3.950,21.173 C3.950,21.155 3.950,21.137 3.950,21.120 C3.967,21.120 3.985,21.120 4.003,21.120 C4.003,21.102 4.003,21.084 4.003,21.067 C4.020,21.067 4.038,21.067 4.056,21.067 C4.056,21.049 4.056,21.031 4.056,21.014 C4.073,21.014 4.091,21.014 4.109,21.014 C4.109,20.996 4.109,20.978 4.109,20.961 C4.126,20.961 4.144,20.961 4.162,20.961 C4.162,20.943 4.162,20.926 4.162,20.908 C4.179,20.908 4.197,20.908 4.215,20.908 C4.215,20.890 4.215,20.872 4.215,20.855 C4.232,20.855 4.250,20.855 4.268,20.855 C4.268,20.837 4.268,20.820 4.268,20.802 C4.285,20.802 4.303,20.802 4.321,20.802 C4.321,20.784 4.321,20.766 4.321,20.749 C4.338,20.749 4.356,20.749 4.374,20.749 C4.374,20.731 4.374,20.714 4.374,20.696 C4.391,20.696 4.409,20.696 4.427,20.696 C4.427,20.679 4.427,20.661 4.427,20.643 C4.444,20.643 4.462,20.643 4.480,20.643 C4.480,20.625 4.480,20.607 4.480,20.590 C4.497,20.590 4.515,20.590 4.533,20.590 C4.533,20.572 4.533,20.555 4.533,20.537 C4.550,20.537 4.568,20.537 4.586,20.537 C4.586,20.520 4.586,20.502 4.586,20.484 C4.603,20.484 4.621,20.484 4.639,20.484 C4.639,20.467 4.639,20.449 4.639,20.431 C4.656,20.431 4.674,20.431 4.692,20.431 C4.692,20.413 4.692,20.396 4.692,20.378 C4.709,20.378 4.727,20.378 4.745,20.378 C4.745,20.361 4.745,20.343 4.745,20.325 C4.763,20.325 4.780,20.325 4.798,20.325 C4.798,20.307 4.798,20.290 4.798,20.272 C4.816,20.272 4.833,20.272 4.851,20.272 C4.851,20.255 4.851,20.237 4.851,20.219 C4.869,20.219 4.886,20.219 4.904,20.219 C4.904,20.202 4.904,20.184 4.904,20.166 C4.921,20.166 4.939,20.166 4.957,20.166 C4.957,20.149 4.957,20.130 4.957,20.113 C4.974,20.113 4.992,20.113 5.010,20.113 C5.010,20.096 5.010,20.078 5.010,20.060 C5.028,20.060 5.045,20.060 5.063,20.060 C5.063,20.043 5.063,20.025 5.063,20.007 C5.081,20.007 5.098,20.007 5.116,20.007 C5.116,19.990 5.116,19.972 5.116,19.954 C5.134,19.954 5.151,19.954 5.169,19.954 C5.169,19.937 5.169,19.919 5.169,19.901 C5.187,19.901 5.204,19.901 5.222,19.901 C5.222,19.884 5.222,19.866 5.222,19.848 C5.240,19.848 5.257,19.848 5.275,19.848 C5.275,19.831 5.275,19.813 5.275,19.795 C5.293,19.795 5.310,19.795 5.328,19.795 C5.328,19.778 5.328,19.760 5.328,19.743 C5.346,19.743 5.363,19.743 5.381,19.743 C5.381,19.725 5.381,19.707 5.381,19.689 C5.399,19.689 5.416,19.689 5.434,19.689 C5.434,19.672 5.434,19.655 5.434,19.637 C5.452,19.637 5.469,19.637 5.487,19.637 C5.487,19.619 5.487,19.601 5.487,19.583 C5.505,19.583 5.522,19.583 5.540,19.583 C5.540,19.566 5.540,19.548 5.540,19.531 C5.558,19.531 5.575,19.531 5.593,19.531 C5.593,19.513 5.593,19.495 5.593,19.478 C5.611,19.478 5.628,19.478 5.646,19.478 C5.646,19.460 5.646,19.443 5.646,19.425 C5.664,19.425 5.681,19.425 5.699,19.425 C5.699,19.407 5.699,19.389 5.699,19.372 C5.717,19.372 5.734,19.372 5.752,19.372 C5.752,19.354 5.752,19.337 5.752,19.319 C5.770,19.319 5.787,19.319 5.805,19.319 C5.805,19.301 5.805,19.283 5.805,19.266 C5.823,19.266 5.840,19.266 5.858,19.266 C5.858,19.248 5.858,19.230 5.858,19.213 C5.876,19.213 5.893,19.213 5.911,19.213 C5.911,19.195 5.911,19.178 5.911,19.160 C5.929,19.160 5.946,19.160 5.964,19.160 C5.964,19.142 5.964,19.125 5.964,19.107 C5.982,19.107 5.999,19.107 6.017,19.107 C6.017,19.089 6.017,19.072 6.017,19.054 C6.035,19.054 6.052,19.054 6.070,19.054 C6.070,19.036 6.070,19.019 6.070,19.001 C6.088,19.001 6.105,19.001 6.123,19.001 C6.123,18.983 6.123,18.965 6.123,18.948 C6.141,18.948 6.158,18.948 6.176,18.948 C6.176,18.931 6.176,18.913 6.176,18.895 C6.194,18.895 6.212,18.895 6.229,18.895 C6.229,18.878 6.229,18.860 6.229,18.842 C6.247,18.842 6.265,18.842 6.282,18.842 C6.282,18.825 6.282,18.807 6.282,18.789 C6.300,18.789 6.318,18.789 6.335,18.789 C6.335,18.771 6.335,18.754 6.335,18.736 C6.353,18.736 6.371,18.736 6.388,18.736 C6.388,18.718 6.388,18.701 6.388,18.683 C6.406,18.683 6.424,18.683 6.441,18.683 C6.441,18.665 6.441,18.648 6.441,18.630 C6.459,18.630 6.477,18.630 6.494,18.630 C6.494,18.613 6.494,18.595 6.494,18.577 C6.512,18.577 6.530,18.577 6.547,18.577 C6.547,18.560 6.547,18.542 6.547,18.524 C6.565,18.524 6.583,18.524 6.600,18.524 C6.600,18.506 6.600,18.489 6.600,18.472 C6.618,18.472 6.636,18.472 6.653,18.472 C6.653,18.454 6.653,18.436 6.653,18.418 C6.671,18.418 6.689,18.418 6.706,18.418 C6.706,18.400 6.706,18.383 6.706,18.365 C6.724,18.365 6.742,18.365 6.759,18.365 C6.759,18.348 6.759,18.330 6.759,18.313 C6.777,18.313 6.795,18.313 6.812,18.313 C6.812,18.295 6.812,18.277 6.812,18.259 C6.830,18.259 6.848,18.259 6.865,18.259 C6.865,18.242 6.865,18.224 6.865,18.206 C6.883,18.206 6.901,18.206 6.918,18.206 C6.918,18.189 6.918,18.171 6.918,18.153 C6.936,18.153 6.954,18.153 6.971,18.153 C6.971,18.136 6.971,18.118 6.971,18.101 C6.989,18.101 7.007,18.101 7.024,18.101 C7.024,18.083 7.024,18.065 7.024,18.048 C7.042,18.048 7.060,18.048 7.077,18.048 C7.077,18.030 7.077,18.013 7.077,17.994 C7.095,17.994 7.113,17.994 7.130,17.994 C7.130,17.977 7.130,17.959 7.130,17.941 C7.148,17.941 7.166,17.941 7.183,17.941 C7.183,17.924 7.183,17.906 7.183,17.889 C7.201,17.889 7.219,17.889 7.237,17.889 C7.237,17.871 7.237,17.853 7.237,17.836 C7.254,17.836 7.272,17.836 7.290,17.836 C7.290,17.818 7.290,17.801 7.290,17.783 C7.307,17.783 7.325,17.783 7.342,17.783 C7.342,17.765 7.342,17.747 7.342,17.730 C7.360,17.730 7.378,17.730 7.395,17.730 C7.395,17.712 7.395,17.694 7.395,17.677 C7.413,17.677 7.431,17.677 7.448,17.677 C7.448,17.659 7.448,17.641 7.448,17.624 C7.466,17.624 7.484,17.624 7.501,17.624 C7.501,17.606 7.501,17.589 7.501,17.570 C7.519,17.570 7.537,17.570 7.554,17.570 C7.554,17.553 7.554,17.536 7.554,17.518 C7.572,17.518 7.590,17.518 7.608,17.518 C7.608,17.500 7.608,17.483 7.608,17.465 C7.625,17.465 7.643,17.465 7.661,17.465 C7.661,17.448 7.661,17.430 7.661,17.412 C7.678,17.412 7.696,17.412 7.714,17.412 C7.714,17.394 7.714,17.377 7.714,17.359 C7.731,17.359 7.749,17.359 7.767,17.359 C7.767,17.341 7.767,17.324 7.767,17.306 C7.784,17.306 7.802,17.306 7.820,17.306 C7.820,17.289 7.820,17.271 7.820,17.253 C7.837,17.253 7.855,17.253 7.873,17.253 C7.873,17.235 7.873,17.218 7.873,17.200 C7.890,17.200 7.908,17.200 7.926,17.200 C7.926,17.183 7.926,17.165 7.926,17.147 C7.943,17.147 7.961,17.147 7.979,17.147 C7.979,17.129 7.979,17.111 7.979,17.094 C7.996,17.094 8.014,17.094 8.032,17.094 C8.032,17.077 8.032,17.059 8.032,17.041 C8.049,17.041 8.067,17.041 8.085,17.041 C8.085,17.024 8.085,17.006 8.085,16.988 C8.102,16.988 8.120,16.988 8.138,16.988 C8.138,16.970 8.138,16.953 8.138,16.935 C8.155,16.935 8.173,16.935 8.191,16.935 C8.191,16.917 8.191,16.900 8.191,16.882 C8.208,16.882 8.226,16.882 8.244,16.882 C8.244,16.865 8.244,16.847 8.244,16.829 C8.261,16.829 8.279,16.829 8.297,16.829 C8.297,16.812 8.297,16.794 8.297,16.776 C8.314,16.776 8.332,16.776 8.350,16.776 C8.350,16.759 8.350,16.741 8.350,16.723 C8.367,16.723 8.385,16.723 8.403,16.723 C8.403,16.706 8.403,16.688 8.403,16.670 C8.420,16.670 8.438,16.670 8.456,16.670 C8.456,16.653 8.456,16.635 8.456,16.617 C8.473,16.617 8.491,16.617 8.509,16.617 C8.509,16.599 8.509,16.582 8.509,16.564 C8.526,16.564 8.544,16.564 8.562,16.564 C8.562,16.547 8.562,16.529 8.562,16.511 C8.579,16.511 8.597,16.511 8.615,16.511 C8.615,16.494 8.615,16.476 8.615,16.459 C8.632,16.459 8.650,16.459 8.668,16.459 C8.668,16.441 8.668,16.424 8.668,16.405 C8.685,16.405 8.703,16.405 8.721,16.405 C8.721,16.388 8.721,16.370 8.721,16.353 C8.739,16.353 8.756,16.353 8.774,16.353 C8.774,16.335 8.774,16.317 8.774,16.299 C8.792,16.299 8.809,16.299 8.827,16.299 C8.827,16.282 8.827,16.264 8.827,16.246 C8.845,16.246 8.862,16.246 8.880,16.246 C8.880,16.229 8.880,16.211 8.880,16.194 C8.898,16.194 8.915,16.194 8.933,16.194 C8.933,16.176 8.933,16.158 8.933,16.141 C8.951,16.141 8.968,16.141 8.986,16.141 C8.986,16.123 8.986,16.105 8.986,16.088 C9.003,16.088 9.021,16.088 9.039,16.088 C9.039,16.070 9.039,16.053 9.039,16.035 C9.057,16.035 9.074,16.035 9.092,16.035 C9.092,16.017 9.092,16.000 9.092,15.982 C9.110,15.982 9.127,15.982 9.145,15.982 C9.145,15.964 9.145,15.946 9.145,15.929 C9.163,15.929 9.180,15.929 9.198,15.929 C9.198,15.912 9.198,15.893 9.198,15.876 C9.216,15.876 9.233,15.876 9.251,15.876 C9.251,15.858 9.251,15.840 9.251,15.823 C9.269,15.823 9.286,15.823 9.304,15.823 C9.304,15.805 9.304,15.788 9.304,15.770 C9.322,15.770 9.339,15.770 9.357,15.770 C9.357,15.752 9.357,15.735 9.357,15.717 C9.375,15.717 9.392,15.717 9.410,15.717 C9.410,15.699 9.410,15.682 9.410,15.664 C9.428,15.664 9.445,15.664 9.463,15.664 C9.463,15.646 9.463,15.629 9.463,15.611 C9.481,15.611 9.498,15.611 9.516,15.611 C9.516,15.593 9.516,15.575 9.516,15.558 C9.534,15.558 9.551,15.558 9.569,15.558 C9.569,15.540 9.569,15.523 9.569,15.505 C9.587,15.505 9.604,15.505 9.622,15.505 C9.622,15.488 9.622,15.470 9.622,15.452 C9.640,15.452 9.657,15.452 9.675,15.452 C9.675,15.434 9.675,15.417 9.675,15.399 C9.693,15.399 9.710,15.399 9.728,15.399 C9.728,15.381 9.728,15.364 9.728,15.346 C9.746,15.346 9.763,15.346 9.781,15.346 C9.781,15.328 9.781,15.311 9.781,15.293 C9.799,15.293 9.816,15.293 9.834,15.293 C9.834,15.276 9.834,15.258 9.834,15.240 C9.852,15.240 9.869,15.240 9.887,15.240 C9.887,15.222 9.887,15.204 9.887,15.187 C9.905,15.187 9.922,15.187 9.940,15.187 C9.940,15.170 9.940,15.152 9.940,15.134 C9.958,15.134 9.976,15.134 9.993,15.134 C9.993,15.117 9.993,15.099 9.993,15.081 C10.011,15.081 10.029,15.081 10.046,15.081 C10.046,15.064 10.046,15.046 10.046,15.029 C10.064,15.029 10.082,15.029 10.099,15.029 C10.099,15.011 10.099,14.993 10.099,14.975 C10.117,14.975 10.135,14.975 10.152,14.975 C10.152,14.958 10.152,14.940 10.152,14.922 C10.170,14.922 10.188,14.922 10.205,14.922 C10.205,14.905 10.205,14.887 10.205,14.870 C10.223,14.870 10.241,14.870 10.258,14.870 C10.258,14.852 10.258,14.834 10.258,14.817 C10.276,14.817 10.294,14.817 10.311,14.817 C10.311,14.799 10.311,14.781 10.311,14.763 C10.329,14.763 10.347,14.763 10.364,14.763 C10.364,14.746 10.364,14.728 10.364,14.711 C10.382,14.711 10.400,14.711 10.417,14.711 C10.417,14.693 10.417,14.675 10.417,14.658 C10.435,14.658 10.453,14.658 10.470,14.658 C10.470,14.640 10.470,14.622 10.470,14.605 C10.488,14.605 10.506,14.605 10.523,14.605 C10.523,14.587 10.523,14.569 10.523,14.552 C10.541,14.552 10.559,14.552 10.576,14.552 C10.576,14.534 10.576,14.517 10.576,14.499 C10.594,14.499 10.612,14.499 10.629,14.499 C10.629,14.480 10.629,14.463 10.629,14.446 C10.647,14.446 10.665,14.446 10.682,14.446 C10.682,14.428 10.682,14.410 10.682,14.393 C10.700,14.393 10.718,14.393 10.735,14.393 C10.735,14.375 10.735,14.357 10.735,14.339 C10.753,14.339 10.771,14.339 10.788,14.339 C10.788,14.322 10.788,14.304 10.788,14.287 C10.806,14.287 10.824,14.287 10.841,14.287 C10.841,14.269 10.841,14.252 10.841,14.234 C10.859,14.234 10.877,14.234 10.894,14.234 C10.894,14.216 10.894,14.198 10.894,14.181 C10.912,14.181 10.930,14.181 10.947,14.181 C10.947,14.163 10.947,14.145 10.947,14.128 C10.965,14.128 10.983,14.128 11.000,14.128 C11.000,14.110 11.000,14.093 11.000,14.075 C11.018,14.075 11.036,14.075 11.053,14.075 C11.053,14.057 11.053,14.039 11.053,14.022 C11.071,14.022 11.089,14.022 11.106,14.022 C11.106,14.005 11.106,13.987 11.106,13.969 C11.124,13.969 11.142,13.969 11.159,13.969 C11.159,13.951 11.159,13.933 11.159,13.916 C11.177,13.916 11.195,13.916 11.212,13.916 C11.212,13.898 11.212,13.881 11.212,13.863 C11.230,13.863 11.248,13.863 11.266,13.863 C11.266,13.845 11.266,13.828 11.266,13.810 C11.283,13.810 11.301,13.810 11.319,13.810 C11.319,13.793 11.319,13.775 11.319,13.757 C11.336,13.757 11.354,13.757 11.371,13.757 C11.371,13.739 11.371,13.722 11.371,13.704 C11.389,13.704 11.407,13.704 11.425,13.704 C11.425,13.687 11.425,13.669 11.425,13.651 C11.442,13.651 11.460,13.651 11.478,13.651 C11.478,13.633 11.478,13.616 11.478,13.598 C11.495,13.598 11.513,13.598 11.531,13.598 C11.531,13.580 11.531,13.563 11.531,13.545 C11.548,13.545 11.566,13.545 11.584,13.545 C11.584,13.527 11.584,13.510 11.584,13.492 C11.601,13.492 11.619,13.492 11.637,13.492 C11.637,13.474 11.637,13.457 11.637,13.439 C11.654,13.439 11.672,13.439 11.690,13.439 C11.690,13.422 11.690,13.404 11.690,13.386 C11.707,13.386 11.725,13.386 11.743,13.386 C11.743,13.369 11.743,13.351 11.743,13.333 C11.760,13.333 11.778,13.333 11.796,13.333 C11.796,13.315 11.796,13.298 11.796,13.280 C11.813,13.280 11.831,13.280 11.849,13.280 C11.849,13.263 11.849,13.245 11.849,13.228 C11.866,13.228 11.884,13.228 11.902,13.228 C11.902,13.210 11.902,13.192 11.902,13.174 C11.919,13.174 11.937,13.174 11.955,13.174 C11.955,13.157 11.955,13.139 11.955,13.122 C11.972,13.122 11.990,13.122 12.008,13.122 C12.008,13.104 12.008,13.086 12.008,13.068 C12.025,13.068 12.043,13.068 12.061,13.068 C12.061,13.051 12.061,13.033 12.061,13.015 C12.078,13.015 12.096,13.015 12.114,13.015 C12.114,12.998 12.114,12.980 12.114,12.962 C12.131,12.962 12.149,12.962 12.167,12.962 C12.167,12.945 12.167,12.927 12.167,12.910 C12.184,12.910 12.202,12.910 12.220,12.910 C12.220,12.892 12.220,12.874 12.220,12.857 C12.237,12.857 12.255,12.857 12.273,12.857 C12.273,12.839 12.273,12.822 12.273,12.804 C12.290,12.804 12.308,12.804 12.326,12.804 C12.326,12.786 12.326,12.768 12.326,12.750 C12.343,12.750 12.361,12.750 12.379,12.750 C12.379,12.733 12.379,12.715 12.379,12.698 C12.397,12.698 12.414,12.698 12.432,12.698 C12.432,12.680 12.432,12.662 12.432,12.645 C12.450,12.645 12.467,12.645 12.485,12.645 C12.485,12.627 12.485,12.609 12.485,12.592 C12.503,12.592 12.520,12.592 12.538,12.592 C12.538,12.574 12.538,12.556 12.538,12.539 C12.556,12.539 12.573,12.539 12.591,12.539 C12.591,12.521 12.591,12.503 12.591,12.486 C12.608,12.486 12.626,12.486 12.644,12.486 C12.644,12.468 12.644,12.450 12.644,12.433 C12.661,12.433 12.679,12.433 12.697,12.433 C12.716,12.362 12.739,12.349 12.776,12.300 C12.785,12.300 12.794,12.300 12.803,12.300 C12.803,12.274 12.803,12.247 12.803,12.221 C12.821,12.212 12.838,12.203 12.856,12.194 C12.856,12.168 12.856,12.142 12.856,12.115 C12.874,12.106 12.891,12.097 12.909,12.089 C12.909,12.053 12.909,12.018 12.909,11.983 C12.918,11.983 12.927,11.983 12.935,11.983 C12.935,11.965 12.935,11.948 12.935,11.930 C12.944,11.930 12.953,11.930 12.962,11.930 C12.962,11.894 12.962,11.859 12.962,11.824 C12.971,11.824 12.980,11.824 12.988,11.824 C13.018,11.726 12.987,11.198 12.962,11.135 C12.953,11.135 12.944,11.135 12.935,11.135 C12.935,11.117 12.935,11.100 12.935,11.083 C12.927,11.083 12.918,11.083 12.909,11.083 C12.909,11.047 12.909,11.011 12.909,10.976 C12.891,10.967 12.874,10.958 12.856,10.949 C12.856,10.923 12.856,10.897 12.856,10.870 C12.838,10.862 12.821,10.853 12.803,10.844 C12.803,10.817 12.803,10.791 12.803,10.764 C12.785,10.755 12.768,10.747 12.750,10.738 C12.750,10.712 12.750,10.685 12.750,10.658 C12.741,10.658 12.732,10.658 12.723,10.658 C12.686,10.609 12.663,10.597 12.644,10.526 C12.626,10.526 12.608,10.526 12.591,10.526 C12.591,10.508 12.591,10.491 12.591,10.473 C12.573,10.473 12.556,10.473 12.538,10.473 C12.538,10.455 12.538,10.438 12.538,10.420 C12.520,10.420 12.503,10.420 12.485,10.420 C12.485,10.403 12.485,10.385 12.485,10.367 C12.467,10.367 12.450,10.367 12.432,10.367 C12.432,10.350 12.432,10.332 12.432,10.314 C12.414,10.314 12.397,10.314 12.379,10.314 C12.379,10.296 12.379,10.279 12.379,10.262 C12.361,10.262 12.343,10.262 12.326,10.262 C12.326,10.243 12.326,10.226 12.326,10.208 C12.308,10.208 12.290,10.208 12.273,10.208 C12.273,10.191 12.273,10.173 12.273,10.155 C12.255,10.155 12.237,10.155 12.220,10.155 C12.220,10.138 12.220,10.120 12.220,10.102 C12.202,10.102 12.184,10.102 12.167,10.102 C12.167,10.085 12.167,10.067 12.167,10.049 C12.149,10.049 12.131,10.049 12.114,10.049 C12.114,10.032 12.114,10.014 12.114,9.996 C12.096,9.996 12.078,9.996 12.061,9.996 C12.061,9.978 12.061,9.961 12.061,9.943 C12.043,9.943 12.025,9.943 12.008,9.943 C12.008,9.926 12.008,9.908 12.008,9.891 C11.990,9.891 11.972,9.891 11.955,9.891 C11.955,9.873 11.955,9.855 11.955,9.837 C11.937,9.837 11.919,9.837 11.902,9.837 C11.902,9.820 11.902,9.802 11.902,9.784 C11.884,9.784 11.866,9.784 11.849,9.784 C11.849,9.767 11.849,9.749 11.849,9.731 C11.831,9.731 11.813,9.731 11.796,9.731 C11.796,9.714 11.796,9.696 11.796,9.678 C11.778,9.678 11.760,9.678 11.743,9.678 C11.743,9.661 11.743,9.643 11.743,9.626 C11.725,9.626 11.707,9.626 11.690,9.626 C11.690,9.608 11.690,9.591 11.690,9.572 C11.672,9.572 11.654,9.572 11.637,9.572 C11.637,9.554 11.637,9.537 11.637,9.519 C11.619,9.519 11.601,9.519 11.584,9.519 C11.584,9.502 11.584,9.484 11.584,9.467 C11.566,9.467 11.548,9.467 11.531,9.467 C11.531,9.449 11.531,9.431 11.531,9.414 C11.513,9.414 11.495,9.414 11.478,9.414 C11.478,9.396 11.478,9.379 11.478,9.360 C11.460,9.360 11.442,9.360 11.425,9.360 C11.425,9.343 11.425,9.326 11.425,9.308 C11.407,9.308 11.389,9.308 11.371,9.308 C11.371,9.290 11.371,9.272 11.371,9.255 C11.354,9.255 11.336,9.255 11.319,9.255 C11.319,9.237 11.319,9.219 11.319,9.202 C11.301,9.202 11.283,9.202 11.266,9.202 C11.266,9.184 11.266,9.167 11.266,9.148 C11.248,9.148 11.230,9.148 11.212,9.148 C11.212,9.131 11.212,9.113 11.212,9.096 C11.195,9.096 11.177,9.096 11.159,9.096 C11.159,9.078 11.159,9.061 11.159,9.043 C11.142,9.043 11.124,9.043 11.106,9.043 C11.106,9.025 11.106,9.008 11.106,8.990 C11.089,8.990 11.071,8.990 11.053,8.990 C11.053,8.972 11.053,8.954 11.053,8.937 C11.036,8.937 11.018,8.937 11.000,8.937 C11.000,8.919 11.000,8.902 11.000,8.884 C10.983,8.884 10.965,8.884 10.947,8.884 C10.947,8.867 10.947,8.849 10.947,8.831 C10.930,8.831 10.912,8.831 10.894,8.831 C10.894,8.813 10.894,8.796 10.894,8.778 C10.877,8.778 10.859,8.778 10.841,8.778 C10.841,8.760 10.841,8.743 10.841,8.725 C10.824,8.725 10.806,8.725 10.788,8.725 C10.788,8.707 10.788,8.689 10.788,8.672 C10.771,8.672 10.753,8.672 10.735,8.672 C10.735,8.654 10.735,8.637 10.735,8.619 C10.718,8.619 10.700,8.619 10.682,8.619 C10.682,8.602 10.682,8.584 10.682,8.566 C10.665,8.566 10.647,8.566 10.629,8.566 C10.629,8.548 10.629,8.531 10.629,8.513 C10.612,8.513 10.594,8.513 10.576,8.513 C10.576,8.495 10.576,8.478 10.576,8.460 C10.559,8.460 10.541,8.460 10.523,8.460 C10.523,8.443 10.523,8.425 10.523,8.407 C10.506,8.407 10.488,8.407 10.470,8.407 C10.470,8.389 10.470,8.372 10.470,8.354 C10.453,8.354 10.435,8.354 10.417,8.354 C10.417,8.337 10.417,8.319 10.417,8.301 C10.400,8.301 10.382,8.301 10.364,8.301 C10.364,8.284 10.364,8.266 10.364,8.248 C10.347,8.248 10.329,8.248 10.311,8.248 C10.311,8.231 10.311,8.213 10.311,8.195 C10.294,8.195 10.276,8.195 10.258,8.195 C10.258,8.178 10.258,8.161 10.258,8.142 C10.241,8.142 10.223,8.142 10.205,8.142 C10.205,8.124 10.205,8.107 10.205,8.089 C10.188,8.089 10.170,8.089 10.152,8.089 C10.152,8.072 10.152,8.054 10.152,8.037 C10.135,8.037 10.117,8.037 10.099,8.037 C10.099,8.019 10.099,8.001 10.099,7.984 C10.082,7.984 10.064,7.984 10.046,7.984 C10.046,7.966 10.046,7.948 10.046,7.930 C10.029,7.930 10.011,7.930 9.993,7.930 C9.993,7.913 9.993,7.895 9.993,7.878 C9.976,7.878 9.958,7.878 9.940,7.878 C9.940,7.860 9.940,7.842 9.940,7.825 C9.922,7.825 9.905,7.825 9.887,7.825 C9.887,7.807 9.887,7.790 9.887,7.772 C9.869,7.772 9.852,7.772 9.834,7.772 C9.834,7.754 9.834,7.736 9.834,7.719 C9.816,7.719 9.799,7.719 9.781,7.719 C9.781,7.701 9.781,7.683 9.781,7.666 C9.763,7.666 9.746,7.666 9.728,7.666 C9.728,7.648 9.728,7.630 9.728,7.613 C9.710,7.613 9.693,7.613 9.675,7.613 C9.675,7.595 9.675,7.578 9.675,7.560 C9.657,7.560 9.640,7.560 9.622,7.560 C9.622,7.542 9.622,7.524 9.622,7.507 C9.604,7.507 9.587,7.507 9.569,7.507 C9.569,7.489 9.569,7.472 9.569,7.454 C9.551,7.454 9.534,7.454 9.516,7.454 C9.516,7.436 9.516,7.419 9.516,7.401 C9.498,7.401 9.481,7.401 9.463,7.401 C9.463,7.383 9.463,7.365 9.463,7.348 C9.445,7.348 9.428,7.348 9.410,7.348 C9.410,7.330 9.410,7.312 9.410,7.295 C9.392,7.295 9.375,7.295 9.357,7.295 C9.357,7.277 9.357,7.260 9.357,7.242 C9.339,7.242 9.322,7.242 9.304,7.242 C9.304,7.224 9.304,7.207 9.304,7.189 C9.286,7.189 9.269,7.189 9.251,7.189 C9.251,7.172 9.251,7.154 9.251,7.136 C9.233,7.136 9.216,7.136 9.198,7.136 C9.198,7.118 9.198,7.100 9.198,7.083 C9.180,7.083 9.163,7.083 9.145,7.083 C9.145,7.066 9.145,7.048 9.145,7.030 C9.127,7.030 9.110,7.030 9.092,7.030 C9.092,7.012 9.092,6.995 9.092,6.977 C9.074,6.977 9.057,6.977 9.039,6.977 C9.039,6.959 9.039,6.942 9.039,6.924 C9.021,6.924 9.003,6.924 8.986,6.924 C8.986,6.906 8.986,6.889 8.986,6.871 C8.968,6.871 8.951,6.871 8.933,6.871 C8.933,6.853 8.933,6.836 8.933,6.818 C8.915,6.818 8.898,6.818 8.880,6.818 C8.880,6.801 8.880,6.783 8.880,6.765 C8.862,6.765 8.845,6.765 8.827,6.765 C8.827,6.748 8.827,6.730 8.827,6.712 C8.809,6.712 8.792,6.712 8.774,6.712 C8.774,6.695 8.774,6.677 8.774,6.659 C8.756,6.659 8.739,6.659 8.721,6.659 C8.721,6.641 8.721,6.624 8.721,6.607 C8.703,6.607 8.685,6.607 8.668,6.607 C8.668,6.588 8.668,6.571 8.668,6.553 C8.650,6.553 8.632,6.553 8.615,6.553 C8.615,6.536 8.615,6.518 8.615,6.500 C8.597,6.500 8.579,6.500 8.562,6.500 C8.562,6.483 8.562,6.465 8.562,6.447 C8.544,6.447 8.526,6.447 8.509,6.447 C8.509,6.430 8.509,6.412 8.509,6.395 C8.491,6.395 8.473,6.395 8.456,6.395 C8.456,6.377 8.456,6.359 8.456,6.341 C8.438,6.341 8.420,6.341 8.403,6.341 C8.403,6.324 8.403,6.306 8.403,6.288 C8.385,6.288 8.367,6.288 8.350,6.288 C8.350,6.271 8.350,6.253 8.350,6.236 C8.332,6.236 8.314,6.236 8.297,6.236 C8.297,6.218 8.297,6.200 8.297,6.183 C8.279,6.183 8.261,6.183 8.244,6.183 C8.244,6.165 8.244,6.147 8.244,6.130 C8.226,6.130 8.208,6.130 8.191,6.130 C8.191,6.112 8.191,6.094 8.191,6.077 C8.173,6.077 8.155,6.077 8.138,6.077 C8.138,6.059 8.138,6.041 8.138,6.024 C8.120,6.024 8.102,6.024 8.085,6.024 C8.085,6.006 8.085,5.988 8.085,5.971 C8.067,5.971 8.049,5.971 8.032,5.971 C8.032,5.953 8.032,5.935 8.032,5.917 C8.014,5.917 7.996,5.917 7.979,5.917 C7.979,5.900 7.979,5.883 7.979,5.865 C7.961,5.865 7.943,5.865 7.926,5.865 C7.926,5.847 7.926,5.829 7.926,5.812 C7.908,5.812 7.890,5.812 7.873,5.812 C7.873,5.794 7.873,5.777 7.873,5.759 C7.855,5.759 7.837,5.759 7.820,5.759 C7.820,5.741 7.820,5.723 7.820,5.706 C7.802,5.706 7.784,5.706 7.767,5.706 C7.767,5.688 7.767,5.671 7.767,5.653 C7.749,5.653 7.731,5.653 7.714,5.653 C7.714,5.635 7.714,5.617 7.714,5.600 C7.696,5.600 7.678,5.600 7.661,5.600 C7.661,5.582 7.661,5.564 7.661,5.547 C7.643,5.547 7.625,5.547 7.608,5.547 C7.608,5.530 7.608,5.512 7.608,5.494 C7.590,5.494 7.572,5.494 7.554,5.494 C7.554,5.476 7.554,5.458 7.554,5.441 C7.537,5.441 7.519,5.441 7.501,5.441 C7.501,5.424 7.501,5.406 7.501,5.388 C7.484,5.388 7.466,5.388 7.448,5.388 C7.448,5.371 7.448,5.352 7.448,5.335 C7.431,5.335 7.413,5.335 7.395,5.335 C7.395,5.317 7.395,5.300 7.395,5.282 C7.378,5.282 7.360,5.282 7.342,5.282 C7.342,5.264 7.342,5.247 7.342,5.229 C7.325,5.229 7.307,5.229 7.290,5.229 C7.290,5.212 7.290,5.193 7.290,5.176 C7.272,5.176 7.254,5.176 7.237,5.176 C7.237,5.159 7.237,5.141 7.237,5.123 C7.219,5.123 7.201,5.123 7.183,5.123 C7.183,5.106 7.183,5.088 7.183,5.070 C7.166,5.070 7.148,5.070 7.130,5.070 C7.130,5.052 7.130,5.035 7.130,5.017 C7.113,5.017 7.095,5.017 7.077,5.017 C7.077,5.000 7.077,4.982 7.077,4.965 C7.060,4.965 7.042,4.965 7.024,4.965 C7.024,4.947 7.024,4.929 7.024,4.911 C7.007,4.911 6.989,4.911 6.971,4.911 C6.971,4.893 6.971,4.876 6.971,4.858 C6.954,4.858 6.936,4.858 6.918,4.858 C6.918,4.841 6.918,4.823 6.918,4.805 C6.901,4.805 6.883,4.805 6.865,4.805 C6.865,4.788 6.865,4.770 6.865,4.752 C6.848,4.752 6.830,4.752 6.812,4.752 C6.812,4.735 6.812,4.717 6.812,4.700 C6.795,4.700 6.777,4.700 6.759,4.700 C6.759,4.682 6.759,4.664 6.759,4.646 C6.742,4.646 6.724,4.646 6.706,4.646 C6.706,4.629 6.706,4.611 6.706,4.593 C6.689,4.593 6.671,4.593 6.653,4.593 C6.653,4.576 6.653,4.558 6.653,4.540 C6.636,4.540 6.618,4.540 6.600,4.540 C6.600,4.523 6.600,4.505 6.600,4.488 C6.583,4.488 6.565,4.488 6.547,4.488 C6.547,4.470 6.547,4.452 6.547,4.435 C6.530,4.435 6.512,4.435 6.494,4.435 C6.494,4.417 6.494,4.400 6.494,4.382 C6.477,4.382 6.459,4.382 6.441,4.382 C6.441,4.364 6.441,4.346 6.441,4.328 C6.424,4.328 6.406,4.328 6.388,4.328 C6.388,4.311 6.388,4.293 6.388,4.276 C6.371,4.276 6.353,4.276 6.335,4.276 C6.335,4.258 6.335,4.240 6.335,4.223 C6.318,4.223 6.300,4.223 6.282,4.223 C6.282,4.205 6.282,4.187 6.282,4.170 C6.265,4.170 6.247,4.170 6.229,4.170 C6.229,4.152 6.229,4.134 6.229,4.117 C6.212,4.117 6.194,4.117 6.176,4.117 C6.176,4.099 6.176,4.081 6.176,4.064 C6.158,4.064 6.141,4.064 6.123,4.064 C6.123,4.046 6.123,4.028 6.123,4.011 C6.105,4.011 6.088,4.011 6.070,4.011 C6.070,3.993 6.070,3.976 6.070,3.958 C6.052,3.958 6.035,3.958 6.017,3.958 C6.017,3.940 6.017,3.922 6.017,3.905 C5.999,3.905 5.982,3.905 5.964,3.905 C5.964,3.887 5.964,3.870 5.964,3.852 C5.946,3.852 5.929,3.852 5.911,3.852 C5.911,3.834 5.911,3.817 5.911,3.799 C5.893,3.799 5.876,3.799 5.858,3.799 C5.858,3.781 5.858,3.764 5.858,3.746 C5.840,3.746 5.823,3.746 5.805,3.746 C5.805,3.728 5.805,3.710 5.805,3.693 C5.787,3.693 5.770,3.693 5.752,3.693 C5.752,3.675 5.752,3.658 5.752,3.640 C5.734,3.640 5.717,3.640 5.699,3.640 C5.699,3.622 5.699,3.605 5.699,3.587 C5.681,3.587 5.664,3.587 5.646,3.587 C5.646,3.569 5.646,3.552 5.646,3.534 C5.628,3.534 5.611,3.534 5.593,3.534 C5.593,3.517 5.593,3.499 5.593,3.481 C5.575,3.481 5.558,3.481 5.540,3.481 C5.540,3.464 5.540,3.446 5.540,3.428 C5.522,3.428 5.505,3.428 5.487,3.428 C5.487,3.411 5.487,3.393 5.487,3.375 C5.469,3.375 5.452,3.375 5.434,3.375 C5.434,3.358 5.434,3.340 5.434,3.322 C5.416,3.322 5.399,3.322 5.381,3.322 C5.381,3.305 5.381,3.287 5.381,3.269 C5.363,3.269 5.346,3.269 5.328,3.269 C5.328,3.252 5.328,3.234 5.328,3.216 C5.310,3.216 5.293,3.216 5.275,3.216 C5.275,3.199 5.275,3.181 5.275,3.163 C5.257,3.163 5.240,3.163 5.222,3.163 C5.222,3.145 5.222,3.128 5.222,3.110 C5.204,3.110 5.187,3.110 5.169,3.110 C5.169,3.093 5.169,3.075 5.169,3.057 C5.151,3.057 5.134,3.057 5.116,3.057 C5.116,3.040 5.116,3.022 5.116,3.005 C5.098,3.005 5.081,3.005 5.063,3.005 C5.063,2.987 5.063,2.970 5.063,2.952 C5.045,2.952 5.028,2.952 5.010,2.952 C5.010,2.934 5.010,2.916 5.010,2.899 C4.992,2.899 4.974,2.899 4.957,2.899 C4.957,2.881 4.957,2.864 4.957,2.845 C4.939,2.845 4.921,2.845 4.904,2.845 C4.904,2.828 4.904,2.810 4.904,2.793 C4.886,2.793 4.869,2.793 4.851,2.793 C4.851,2.775 4.851,2.757 4.851,2.739 C4.833,2.739 4.816,2.739 4.798,2.739 C4.798,2.722 4.798,2.704 4.798,2.687 C4.780,2.687 4.763,2.687 4.745,2.687 C4.745,2.669 4.745,2.651 4.745,2.634 C4.727,2.634 4.709,2.634 4.692,2.634 C4.692,2.616 4.692,2.598 4.692,2.581 C4.674,2.581 4.656,2.581 4.639,2.581 C4.639,2.563 4.639,2.545 4.639,2.527 C4.621,2.527 4.603,2.527 4.586,2.527 C4.586,2.510 4.586,2.493 4.586,2.475 C4.568,2.475 4.550,2.475 4.533,2.475 C4.533,2.457 4.533,2.440 4.533,2.422 C4.515,2.422 4.497,2.422 4.480,2.422 C4.480,2.404 4.480,2.387 4.480,2.369 C4.462,2.369 4.444,2.369 4.427,2.369 C4.427,2.351 4.427,2.334 4.427,2.316 C4.409,2.316 4.391,2.316 4.374,2.316 C4.374,2.298 4.374,2.280 4.374,2.263 C4.356,2.263 4.338,2.263 4.321,2.263 C4.321,2.245 4.321,2.228 4.321,2.210 C4.303,2.210 4.285,2.210 4.268,2.210 C4.268,2.192 4.268,2.175 4.268,2.157 C4.250,2.157 4.232,2.157 4.215,2.157 C4.215,2.139 4.215,2.121 4.215,2.104 C4.197,2.104 4.179,2.104 4.162,2.104 C4.162,2.086 4.162,2.069 4.162,2.051 C4.144,2.051 4.126,2.051 4.109,2.051 C4.109,2.034 4.109,2.016 4.109,1.998 C4.091,1.998 4.073,1.998 4.056,1.998 C4.056,1.980 4.056,1.963 4.056,1.945 C4.038,1.945 4.020,1.945 4.003,1.945 C4.003,1.927 4.003,1.910 4.003,1.892 C3.985,1.892 3.967,1.892 3.950,1.892 C3.950,1.874 3.950,1.857 3.950,1.839 C3.932,1.839 3.914,1.839 3.897,1.839 C3.897,1.821 3.897,1.804 3.897,1.786 C3.879,1.786 3.861,1.786 3.844,1.786 C3.844,1.769 3.844,1.751 3.844,1.733 C3.826,1.733 3.808,1.733 3.790,1.733 C3.790,1.715 3.790,1.698 3.790,1.680 C3.773,1.680 3.755,1.680 3.737,1.680 C3.737,1.662 3.737,1.645 3.737,1.627 C3.720,1.627 3.702,1.627 3.685,1.627 C3.685,1.610 3.685,1.592 3.685,1.574 C3.667,1.574 3.649,1.574 3.632,1.574 C3.632,1.557 3.632,1.539 3.632,1.521 C3.614,1.521 3.596,1.521 3.579,1.521 C3.579,1.504 3.579,1.486 3.579,1.469 C3.561,1.469 3.543,1.469 3.525,1.469 C3.525,1.450 3.525,1.433 3.525,1.416 C3.508,1.416 3.490,1.416 3.472,1.416 C3.472,1.398 3.472,1.380 3.472,1.362 C3.455,1.362 3.437,1.362 3.419,1.362 C3.419,1.345 3.419,1.327 3.419,1.309 C3.402,1.309 3.384,1.309 3.366,1.309 C3.366,1.292 3.366,1.274 3.366,1.256 C3.349,1.256 3.331,1.256 3.313,1.256 C3.313,1.239 3.313,1.221 3.313,1.204 C3.296,1.204 3.278,1.204 3.260,1.204 C3.260,1.186 3.260,1.168 3.260,1.151 C3.243,1.151 3.225,1.151 3.207,1.151 C3.207,1.133 3.207,1.115 3.207,1.097 C3.190,1.097 3.172,1.097 3.154,1.097 C3.154,1.080 3.154,1.062 3.154,1.045 C3.137,1.045 3.119,1.045 3.101,1.045 C3.101,1.027 3.101,1.009 3.101,0.992 C3.084,0.992 3.066,0.992 3.048,0.992 C3.048,0.974 3.048,0.957 3.048,0.938 C3.031,0.938 3.013,0.938 2.995,0.938 C2.995,0.921 2.995,0.903 2.995,0.886 C2.978,0.886 2.960,0.886 2.942,0.886 C2.942,0.868 2.942,0.850 2.942,0.832 C2.925,0.832 2.907,0.832 2.889,0.832 C2.889,0.815 2.889,0.797 2.889,0.780 C2.872,0.780 2.854,0.780 2.836,0.780 C2.836,0.762 2.836,0.745 2.836,0.727 C2.819,0.727 2.801,0.727 2.783,0.727 C2.783,0.709 2.783,0.691 2.783,0.674 C2.766,0.674 2.748,0.674 2.730,0.674 C2.730,0.656 2.730,0.639 2.730,0.621 C2.713,0.621 2.695,0.621 2.677,0.621 C2.677,0.603 2.677,0.586 2.677,0.568 C2.660,0.568 2.642,0.568 2.624,0.568 C2.624,0.550 2.624,0.532 2.624,0.515 C2.607,0.515 2.589,0.515 2.571,0.515 C2.571,0.497 2.571,0.480 2.571,0.462 C2.554,0.462 2.536,0.462 2.518,0.462 C2.518,0.445 2.518,0.426 2.518,0.409 C2.501,0.409 2.483,0.409 2.465,0.409 C2.465,0.391 2.465,0.374 2.465,0.356 C2.395,0.336 2.382,0.314 2.333,0.276 C2.333,0.267 2.333,0.259 2.333,0.250 C2.306,0.250 2.280,0.250 2.253,0.250 C2.244,0.233 2.235,0.215 2.227,0.197 C2.200,0.197 2.174,0.197 2.147,0.197 C2.138,0.179 2.129,0.162 2.121,0.144 C2.094,0.144 2.068,0.144 2.041,0.144 C2.032,0.126 2.023,0.109 2.015,0.091 C1.979,0.091 1.944,0.091 1.908,0.091 C1.908,0.082 1.908,0.074 1.908,0.064 C1.891,0.064 1.873,0.064 1.856,0.064 C1.856,0.056 1.856,0.047 1.856,0.038 C1.792,0.014 1.264,-0.018 1.166,0.012 C1.166,0.021 1.166,0.029 1.166,0.038 C1.131,0.038 1.096,0.038 1.060,0.038 C1.060,0.047 1.060,0.056 1.060,0.064 C1.043,0.064 1.025,0.064 1.007,0.064 C1.007,0.074 1.007,0.082 1.007,0.091 C0.972,0.091 0.937,0.091 0.901,0.091 C0.892,0.109 0.884,0.126 0.875,0.144 C0.848,0.144 0.822,0.144 0.795,0.144 C0.786,0.162 0.778,0.179 0.769,0.197 C0.742,0.197 0.716,0.197 0.689,0.197 C0.689,0.206 0.689,0.215 0.689,0.224 C0.640,0.260 0.627,0.284 0.557,0.303 C0.557,0.321 0.557,0.338 0.557,0.356 C0.539,0.356 0.521,0.356 0.504,0.356 C0.504,0.374 0.504,0.391 0.504,0.409 C0.486,0.409 0.468,0.409 0.451,0.409 C0.451,0.426 0.451,0.445 0.451,0.462 C0.433,0.462 0.415,0.462 0.398,0.462 C0.398,0.480 0.398,0.497 0.398,0.515 C0.380,0.515 0.362,0.515 0.345,0.515 C0.345,0.532 0.345,0.550 0.345,0.568 C0.327,0.568 0.309,0.568 0.292,0.568 C0.272,0.637 0.250,0.653 0.212,0.700 C0.203,0.700 0.194,0.700 0.186,0.700 C0.186,0.718 0.186,0.736 0.186,0.754 C0.177,0.754 0.168,0.754 0.159,0.754 C0.159,0.771 0.159,0.789 0.159,0.806 C0.150,0.806 0.141,0.806 0.133,0.806 C0.133,0.824 0.133,0.841 0.133,0.859 C0.124,0.859 0.115,0.859 0.106,0.859 C0.106,0.877 0.106,0.895 0.106,0.912 C0.097,0.912 0.088,0.912 0.080,0.912 C0.080,0.938 0.080,0.965 0.080,0.992 C0.062,1.000 0.044,1.009 0.027,1.018 C0.027,1.054 0.027,1.089 0.027,1.124 C0.018,1.124 0.009,1.124 0.000,1.124 C0.000,1.371 0.000,1.619 0.000,1.866 C0.009,1.866 0.018,1.866 0.027,1.866 C0.027,1.901 0.027,1.936 0.027,1.971 C0.035,1.971 0.044,1.971 0.053,1.971 C0.053,1.989 0.053,2.007 0.053,2.025 C0.062,2.025 0.071,2.025 0.080,2.025 C0.080,2.060 0.080,2.095 0.080,2.131 C0.097,2.139 0.115,2.148 0.133,2.157 C0.133,2.183 0.133,2.210 0.133,2.236 C0.159,2.254 0.186,2.272 0.212,2.289 C0.221,2.325 0.230,2.360 0.239,2.395 C0.247,2.395 0.256,2.395 0.265,2.395 C0.303,2.442 0.326,2.459 0.345,2.527 C0.362,2.527 0.380,2.527 0.398,2.527 C0.398,2.545 0.398,2.563 0.398,2.581 C0.415,2.581 0.433,2.581 0.451,2.581 C0.451,2.598 0.451,2.616 0.451,2.634 C0.468,2.634 0.486,2.634 0.504,2.634 C0.504,2.651 0.504,2.669 0.504,2.687 C0.521,2.687 0.539,2.687 0.557,2.687 C0.557,2.704 0.557,2.722 0.557,2.739 C0.574,2.739 0.592,2.739 0.610,2.739 C0.610,2.757 0.610,2.775 0.610,2.793 C0.627,2.793 0.645,2.793 0.663,2.793 C0.663,2.810 0.663,2.828 0.663,2.845 C0.680,2.845 0.698,2.845 0.716,2.845 C0.716,2.864 0.716,2.881 0.716,2.899 C0.733,2.899 0.751,2.899 0.769,2.899 C0.769,2.916 0.769,2.934 0.769,2.952 C0.786,2.952 0.804,2.952 0.822,2.952 C0.822,2.970 0.822,2.987 0.822,3.005 C0.839,3.005 0.857,3.005 0.875,3.005 C0.875,3.022 0.875,3.040 0.875,3.057 C0.892,3.057 0.910,3.057 0.928,3.057 C0.928,3.075 0.928,3.093 0.928,3.110 C0.945,3.110 0.963,3.110 0.981,3.110 C0.981,3.128 0.981,3.145 0.981,3.163 C0.999,3.163 1.016,3.163 1.034,3.163 C1.034,3.181 1.034,3.199 1.034,3.216 C1.052,3.216 1.069,3.216 1.087,3.216 C1.087,3.234 1.087,3.252 1.087,3.269 C1.105,3.269 1.122,3.269 1.140,3.269 C1.140,3.287 1.140,3.305 1.140,3.322 C1.158,3.322 1.175,3.322 1.193,3.322 C1.193,3.340 1.193,3.358 1.193,3.375 C1.211,3.375 1.228,3.375 1.246,3.375 C1.246,3.393 1.246,3.411 1.246,3.428 C1.264,3.428 1.281,3.428 1.299,3.428 C1.299,3.446 1.299,3.464 1.299,3.481 C1.316,3.481 1.334,3.481 1.352,3.481 C1.352,3.499 1.352,3.517 1.352,3.534 C1.370,3.534 1.387,3.534 1.405,3.534 C1.405,3.552 1.405,3.569 1.405,3.587 C1.423,3.587 1.440,3.587 1.458,3.587 C1.458,3.605 1.458,3.622 1.458,3.640 C1.476,3.640 1.493,3.640 1.511,3.640 C1.511,3.658 1.511,3.675 1.511,3.693 C1.529,3.693 1.546,3.693 1.564,3.693 C1.564,3.710 1.564,3.728 1.564,3.746 C1.582,3.746 1.599,3.746 1.617,3.746 C1.617,3.764 1.617,3.781 1.617,3.799 C1.635,3.799 1.652,3.799 1.670,3.799 C1.670,3.817 1.670,3.834 1.670,3.852 C1.688,3.852 1.705,3.852 1.723,3.852 C1.723,3.870 1.723,3.887 1.723,3.905 C1.741,3.905 1.758,3.905 1.776,3.905 C1.776,3.922 1.776,3.940 1.776,3.958 C1.794,3.958 1.811,3.958 1.829,3.958 C1.829,3.976 1.829,3.993 1.829,4.011 C1.847,4.011 1.864,4.011 1.882,4.011 C1.882,4.028 1.882,4.046 1.882,4.064 C1.900,4.064 1.917,4.064 1.935,4.064 C1.935,4.081 1.935,4.099 1.935,4.117 C1.953,4.117 1.970,4.117 1.988,4.117 C1.988,4.134 1.988,4.152 1.988,4.170 C2.006,4.170 2.023,4.170 2.041,4.170 C2.041,4.187 2.041,4.205 2.041,4.223 C2.059,4.223 2.076,4.223 2.094,4.223 C2.094,4.240 2.094,4.258 2.094,4.276 C2.112,4.276 2.129,4.276 2.147,4.276 C2.147,4.293 2.147,4.311 2.147,4.328 C2.165,4.328 2.182,4.328 2.200,4.328 C2.200,4.346 2.200,4.364 2.200,4.382 C2.218,4.382 2.235,4.382 2.253,4.382 C2.253,4.400 2.253,4.417 2.253,4.435 C2.271,4.435 2.288,4.435 2.306,4.435 C2.306,4.452 2.306,4.470 2.306,4.488 C2.324,4.488 2.341,4.488 2.359,4.488 C2.359,4.505 2.359,4.523 2.359,4.540 C2.377,4.540 2.395,4.540 2.412,4.540 C2.412,4.558 2.412,4.576 2.412,4.593 C2.430,4.593 2.448,4.593 2.465,4.593 C2.465,4.611 2.465,4.629 2.465,4.646 C2.483,4.646 2.501,4.646 2.518,4.646 C2.518,4.664 2.518,4.682 2.518,4.700 C2.536,4.700 2.554,4.700 2.571,4.700 C2.571,4.717 2.571,4.735 2.571,4.752 C2.589,4.752 2.607,4.752 2.624,4.752 C2.624,4.770 2.624,4.788 2.624,4.805 C2.642,4.805 2.660,4.805 2.677,4.805 C2.677,4.823 2.677,4.841 2.677,4.858 C2.695,4.858 2.713,4.858 2.730,4.858 C2.730,4.876 2.730,4.893 2.730,4.911 C2.748,4.911 2.766,4.911 2.783,4.911 C2.783,4.929 2.783,4.947 2.783,4.965 C2.801,4.965 2.819,4.965 2.836,4.965 C2.836,4.982 2.836,5.000 2.836,5.017 C2.854,5.017 2.872,5.017 2.889,5.017 C2.889,5.035 2.889,5.052 2.889,5.070 C2.907,5.070 2.925,5.070 2.942,5.070 C2.942,5.088 2.942,5.106 2.942,5.123 C2.960,5.123 2.978,5.123 2.995,5.123 C2.995,5.141 2.995,5.159 2.995,5.176 C3.013,5.176 3.031,5.176 3.048,5.176 C3.048,5.193 3.048,5.212 3.048,5.229 C3.066,5.229 3.084,5.229 3.101,5.229 C3.101,5.247 3.101,5.264 3.101,5.282 C3.119,5.282 3.137,5.282 3.154,5.282 C3.154,5.300 3.154,5.317 3.154,5.335 C3.172,5.335 3.190,5.335 3.207,5.335 C3.207,5.352 3.207,5.371 3.207,5.388 C3.225,5.388 3.243,5.388 3.260,5.388 C3.260,5.406 3.260,5.424 3.260,5.441 C3.278,5.441 3.296,5.441 3.313,5.441 C3.313,5.458 3.313,5.476 3.313,5.494 C3.331,5.494 3.349,5.494 3.366,5.494 C3.366,5.512 3.366,5.530 3.366,5.547 C3.384,5.547 3.402,5.547 3.419,5.547 C3.419,5.564 3.419,5.582 3.419,5.600 C3.437,5.600 3.455,5.600 3.472,5.600 C3.472,5.617 3.472,5.635 3.472,5.653 C3.490,5.653 3.508,5.653 3.525,5.653 C3.525,5.671 3.525,5.688 3.525,5.706 C3.543,5.706 3.561,5.706 3.579,5.706 C3.579,5.723 3.579,5.741 3.579,5.759 C3.596,5.759 3.614,5.759 3.632,5.759 C3.632,5.777 3.632,5.794 3.632,5.812 C3.649,5.812 3.667,5.812 3.685,5.812 C3.685,5.829 3.685,5.847 3.685,5.865 C3.702,5.865 3.720,5.865 3.737,5.865 C3.737,5.883 3.737,5.900 3.737,5.917 C3.755,5.917 3.773,5.917 3.790,5.917 C3.790,5.935 3.790,5.953 3.790,5.971 C3.808,5.971 3.826,5.971 3.844,5.971 C3.844,5.988 3.844,6.006 3.844,6.024 C3.861,6.024 3.879,6.024 3.897,6.024 C3.897,6.041 3.897,6.059 3.897,6.077 C3.914,6.077 3.932,6.077 3.950,6.077 C3.950,6.094 3.950,6.112 3.950,6.130 C3.967,6.130 3.985,6.130 4.003,6.130 C4.003,6.147 4.003,6.165 4.003,6.183 C4.020,6.183 4.038,6.183 4.056,6.183 C4.056,6.200 4.056,6.218 4.056,6.236 C4.073,6.236 4.091,6.236 4.109,6.236 C4.109,6.253 4.109,6.271 4.109,6.288 C4.126,6.288 4.144,6.288 4.162,6.288 C4.162,6.306 4.162,6.324 4.162,6.341 C4.179,6.341 4.197,6.341 4.215,6.341 C4.215,6.359 4.215,6.377 4.215,6.395 C4.232,6.395 4.250,6.395 4.268,6.395 C4.268,6.412 4.268,6.430 4.268,6.447 C4.285,6.447 4.303,6.447 4.321,6.447 C4.321,6.465 4.321,6.483 4.321,6.500 C4.338,6.500 4.356,6.500 4.374,6.500 C4.374,6.518 4.374,6.536 4.374,6.553 C4.391,6.553 4.409,6.553 4.427,6.553 C4.427,6.571 4.427,6.588 4.427,6.607 C4.444,6.607 4.462,6.607 4.480,6.607 C4.480,6.624 4.480,6.641 4.480,6.659 C4.497,6.659 4.515,6.659 4.533,6.659 C4.533,6.677 4.533,6.695 4.533,6.712 C4.550,6.712 4.568,6.712 4.586,6.712 C4.586,6.730 4.586,6.748 4.586,6.765 C4.603,6.765 4.621,6.765 4.639,6.765 C4.639,6.783 4.639,6.801 4.639,6.818 C4.656,6.818 4.674,6.818 4.692,6.818 C4.692,6.836 4.692,6.853 4.692,6.871 C4.709,6.871 4.727,6.871 4.745,6.871 C4.745,6.889 4.745,6.906 4.745,6.924 C4.763,6.924 4.780,6.924 4.798,6.924 C4.798,6.942 4.798,6.959 4.798,6.977 C4.816,6.977 4.833,6.977 4.851,6.977 C4.851,6.995 4.851,7.012 4.851,7.030 C4.869,7.030 4.886,7.030 4.904,7.030 C4.904,7.048 4.904,7.066 4.904,7.083 C4.921,7.083 4.939,7.083 4.957,7.083 C4.957,7.100 4.957,7.118 4.957,7.136 C4.974,7.136 4.992,7.136 5.010,7.136 C5.010,7.154 5.010,7.172 5.010,7.189 C5.028,7.189 5.045,7.189 5.063,7.189 C5.063,7.207 5.063,7.224 5.063,7.242 C5.081,7.242 5.098,7.242 5.116,7.242 C5.116,7.260 5.116,7.277 5.116,7.295 C5.134,7.295 5.151,7.295 5.169,7.295 C5.169,7.312 5.169,7.330 5.169,7.348 C5.187,7.348 5.204,7.348 5.222,7.348 C5.222,7.365 5.222,7.383 5.222,7.401 C5.240,7.401 5.257,7.401 5.275,7.401 C5.275,7.419 5.275,7.436 5.275,7.454 C5.293,7.454 5.310,7.454 5.328,7.454 C5.328,7.472 5.328,7.489 5.328,7.507 C5.346,7.507 5.363,7.507 5.381,7.507 C5.381,7.524 5.381,7.542 5.381,7.560 C5.399,7.560 5.416,7.560 5.434,7.560 C5.434,7.578 5.434,7.595 5.434,7.613 C5.452,7.613 5.469,7.613 5.487,7.613 C5.487,7.630 5.487,7.648 5.487,7.666 C5.505,7.666 5.522,7.666 5.540,7.666 C5.540,7.683 5.540,7.701 5.540,7.719 C5.558,7.719 5.575,7.719 5.593,7.719 C5.593,7.736 5.593,7.754 5.593,7.772 C5.611,7.772 5.628,7.772 5.646,7.772 C5.646,7.790 5.646,7.807 5.646,7.825 C5.664,7.825 5.681,7.825 5.699,7.825 C5.699,7.842 5.699,7.860 5.699,7.878 C5.717,7.878 5.734,7.878 5.752,7.878 C5.752,7.895 5.752,7.913 5.752,7.930 C5.770,7.930 5.787,7.930 5.805,7.930 C5.805,7.948 5.805,7.966 5.805,7.984 C5.823,7.984 5.840,7.984 5.858,7.984 C5.858,8.001 5.858,8.019 5.858,8.037 C5.876,8.037 5.893,8.037 5.911,8.037 C5.911,8.054 5.911,8.072 5.911,8.089 C5.929,8.089 5.946,8.089 5.964,8.089 C5.964,8.107 5.964,8.124 5.964,8.142 C5.982,8.142 5.999,8.142 6.017,8.142 C6.017,8.161 6.017,8.178 6.017,8.195 C6.035,8.195 6.052,8.195 6.070,8.195 C6.070,8.213 6.070,8.231 6.070,8.248 C6.088,8.248 6.105,8.248 6.123,8.248 C6.123,8.266 6.123,8.284 6.123,8.301 C6.141,8.301 6.158,8.301 6.176,8.301 C6.176,8.319 6.176,8.337 6.176,8.354 C6.194,8.354 6.212,8.354 6.229,8.354 C6.229,8.372 6.229,8.389 6.229,8.407 C6.247,8.407 6.265,8.407 6.282,8.407 C6.282,8.425 6.282,8.443 6.282,8.460 C6.300,8.460 6.318,8.460 6.335,8.460 C6.335,8.478 6.335,8.495 6.335,8.513 C6.353,8.513 6.371,8.513 6.388,8.513 C6.388,8.531 6.388,8.548 6.388,8.566 C6.406,8.566 6.424,8.566 6.441,8.566 C6.441,8.584 6.441,8.602 6.441,8.619 C6.459,8.619 6.477,8.619 6.494,8.619 C6.494,8.637 6.494,8.654 6.494,8.672 C6.512,8.672 6.530,8.672 6.547,8.672 C6.547,8.689 6.547,8.707 6.547,8.725 C6.565,8.725 6.583,8.725 6.600,8.725 C6.600,8.743 6.600,8.760 6.600,8.778 C6.618,8.778 6.636,8.778 6.653,8.778 C6.653,8.796 6.653,8.813 6.653,8.831 C6.671,8.831 6.689,8.831 6.706,8.831 C6.706,8.849 6.706,8.867 6.706,8.884 C6.724,8.884 6.742,8.884 6.759,8.884 C6.759,8.902 6.759,8.919 6.759,8.937 C6.777,8.937 6.795,8.937 6.812,8.937 C6.812,8.954 6.812,8.972 6.812,8.990 C6.830,8.990 6.848,8.990 6.865,8.990 C6.865,9.008 6.865,9.025 6.865,9.043 C6.883,9.043 6.901,9.043 6.918,9.043 C6.918,9.061 6.918,9.078 6.918,9.096 C6.936,9.096 6.954,9.096 6.971,9.096 C6.971,9.113 6.971,9.131 6.971,9.148 C6.989,9.148 7.007,9.148 7.024,9.148 C7.024,9.167 7.024,9.184 7.024,9.202 C7.042,9.202 7.060,9.202 7.077,9.202 C7.077,9.219 7.077,9.237 7.077,9.255 C7.095,9.255 7.113,9.255 7.130,9.255 C7.130,9.272 7.130,9.290 7.130,9.308 C7.148,9.308 7.166,9.308 7.183,9.308 C7.183,9.326 7.183,9.343 7.183,9.360 C7.201,9.360 7.219,9.360 7.237,9.360 C7.237,9.379 7.237,9.396 7.237,9.414 C7.254,9.414 7.272,9.414 7.290,9.414 C7.290,9.431 7.290,9.449 7.290,9.467 C7.307,9.467 7.325,9.467 7.342,9.467 C7.342,9.484 7.342,9.502 7.342,9.519 C7.360,9.519 7.378,9.519 7.395,9.519 C7.395,9.537 7.395,9.554 7.395,9.572 C7.413,9.572 7.431,9.572 7.448,9.572 C7.448,9.591 7.448,9.608 7.448,9.626 C7.466,9.626 7.484,9.626 7.501,9.626 C7.501,9.643 7.501,9.661 7.501,9.678 C7.519,9.678 7.537,9.678 7.554,9.678 C7.554,9.696 7.554,9.714 7.554,9.731 C7.572,9.731 7.590,9.731 7.608,9.731 C7.608,9.749 7.608,9.767 7.608,9.784 C7.625,9.784 7.643,9.784 7.661,9.784 C7.661,9.802 7.661,9.820 7.661,9.837 C7.678,9.837 7.696,9.837 7.714,9.837 C7.714,9.855 7.714,9.873 7.714,9.891 C7.731,9.891 7.749,9.891 7.767,9.891 C7.767,9.908 7.767,9.926 7.767,9.943 C7.784,9.943 7.802,9.943 7.820,9.943 C7.820,9.961 7.820,9.978 7.820,9.996 C7.837,9.996 7.855,9.996 7.873,9.996 C7.873,10.014 7.873,10.032 7.873,10.049 C7.890,10.049 7.908,10.049 7.926,10.049 C7.926,10.067 7.926,10.085 7.926,10.102 C7.943,10.102 7.961,10.102 7.979,10.102 C7.979,10.120 7.979,10.138 7.979,10.155 C7.996,10.155 8.014,10.155 8.032,10.155 C8.032,10.173 8.032,10.191 8.032,10.208 C8.049,10.208 8.067,10.208 8.085,10.208 C8.085,10.226 8.085,10.243 8.085,10.262 C8.102,10.262 8.120,10.262 8.138,10.262 C8.138,10.279 8.138,10.296 8.138,10.314 C8.155,10.314 8.173,10.314 8.191,10.314 C8.191,10.332 8.191,10.350 8.191,10.367 C8.208,10.367 8.226,10.367 8.244,10.367 C8.244,10.385 8.244,10.403 8.244,10.420 C8.261,10.420 8.279,10.420 8.297,10.420 C8.297,10.438 8.297,10.455 8.297,10.473 C8.314,10.473 8.332,10.473 8.350,10.473 C8.350,10.491 8.350,10.508 8.350,10.526 C8.367,10.526 8.385,10.526 8.403,10.526 C8.403,10.544 8.403,10.561 8.403,10.579 C8.420,10.579 8.438,10.579 8.456,10.579 C8.456,10.597 8.456,10.614 8.456,10.632 C8.473,10.632 8.491,10.632 8.509,10.632 C8.509,10.650 8.509,10.667 8.509,10.685 C8.526,10.685 8.544,10.685 8.562,10.685 C8.562,10.703 8.562,10.720 8.562,10.738 C8.579,10.738 8.597,10.738 8.615,10.738 C8.615,10.755 8.615,10.774 8.615,10.791 C8.632,10.791 8.650,10.791 8.668,10.791 C8.668,10.809 8.668,10.826 8.668,10.844 C8.685,10.844 8.703,10.844 8.721,10.844 C8.721,10.862 8.721,10.879 8.721,10.897 C8.739,10.897 8.756,10.897 8.774,10.897 C8.774,10.914 8.774,10.932 8.774,10.949 C8.792,10.949 8.809,10.949 8.827,10.949 C8.827,10.967 8.827,10.985 8.827,11.003 C8.845,11.003 8.862,11.003 8.880,11.003 C8.880,11.020 8.880,11.038 8.880,11.056 C8.898,11.056 8.915,11.056 8.933,11.056 C8.933,11.073 8.933,11.091 8.933,11.109 C8.951,11.109 8.968,11.109 8.986,11.109 C8.986,11.126 8.986,11.144 8.986,11.162 C9.003,11.162 9.021,11.162 9.039,11.162 C9.039,11.179 9.039,11.197 9.039,11.215 C9.057,11.215 9.074,11.215 9.092,11.215 C9.092,11.232 9.092,11.250 9.092,11.267 C9.110,11.267 9.127,11.267 9.145,11.267 C9.145,11.285 9.145,11.303 9.145,11.321 C9.163,11.321 9.180,11.321 9.198,11.321 C9.198,11.338 9.198,11.356 9.198,11.373 C9.216,11.373 9.233,11.373 9.251,11.373 C9.251,11.391 9.251,11.409 9.251,11.427 C9.269,11.427 9.286,11.427 9.304,11.427 C9.323,11.531 9.323,11.535 9.304,11.639 C9.286,11.639 9.269,11.639 9.251,11.639 C9.251,11.656 9.251,11.674 9.251,11.691 C9.233,11.691 9.216,11.691 9.198,11.691 C9.198,11.709 9.198,11.727 9.198,11.744 C9.180,11.744 9.163,11.744 9.145,11.744 C9.145,11.762 9.145,11.779 9.145,11.798 C9.127,11.798 9.110,11.798 9.092,11.798 C9.092,11.815 9.092,11.833 9.092,11.850 C9.074,11.850 9.057,11.850 9.039,11.850 C9.039,11.868 9.039,11.886 9.039,11.903 C9.021,11.903 9.003,11.903 8.986,11.903 C8.986,11.921 8.986,11.939 8.986,11.956 C8.968,11.956 8.951,11.956 8.933,11.956 C8.933,11.974 8.933,11.992 8.933,12.009 C8.915,12.009 8.898,12.009 8.880,12.009 C8.880,12.027 8.880,12.044 8.880,12.062 C8.862,12.062 8.845,12.062 8.827,12.062 C8.827,12.080 8.827,12.097 8.827,12.115 C8.809,12.115 8.792,12.115 8.774,12.115 C8.774,12.133 8.774,12.150 8.774,12.168 C8.756,12.168 8.739,12.168 8.721,12.168 C8.721,12.185 8.721,12.203 8.721,12.221 C8.703,12.221 8.685,12.221 8.668,12.221 C8.668,12.239 8.668,12.257 8.668,12.274 C8.650,12.274 8.632,12.274 8.615,12.274 C8.615,12.291 8.615,12.309 8.615,12.327 C8.597,12.327 8.579,12.327 8.562,12.327 C8.562,12.344 8.562,12.362 8.562,12.380 C8.544,12.380 8.526,12.380 8.509,12.380 C8.509,12.398 8.509,12.415 8.509,12.433 C8.491,12.433 8.473,12.433 8.456,12.433 C8.456,12.450 8.456,12.468 8.456,12.486 C8.438,12.486 8.420,12.486 8.403,12.486 C8.403,12.503 8.403,12.521 8.403,12.539 C8.385,12.539 8.367,12.539 8.350,12.539 C8.350,12.556 8.350,12.574 8.350,12.592 C8.332,12.592 8.314,12.592 8.297,12.592 C8.297,12.609 8.297,12.627 8.297,12.645 C8.279,12.645 8.261,12.645 8.244,12.645 C8.244,12.662 8.244,12.680 8.244,12.698 C8.226,12.698 8.208,12.698 8.191,12.698 C8.191,12.715 8.191,12.733 8.191,12.750 C8.173,12.750 8.155,12.750 8.138,12.750 C8.138,12.768 8.138,12.786 8.138,12.804 C8.120,12.804 8.102,12.804 8.085,12.804 C8.085,12.822 8.085,12.839 8.085,12.857 C8.067,12.857 8.049,12.857 8.032,12.857 C8.032,12.874 8.032,12.892 8.032,12.910 C8.014,12.910 7.996,12.910 7.979,12.910 C7.979,12.927 7.979,12.945 7.979,12.962 C7.961,12.962 7.943,12.962 7.926,12.962 C7.926,12.980 7.926,12.998 7.926,13.015 C7.908,13.015 7.890,13.015 7.873,13.015 C7.873,13.033 7.873,13.051 7.873,13.068 C7.855,13.068 7.837,13.068 7.820,13.068 C7.820,13.086 7.820,13.104 7.820,13.122 C7.802,13.122 7.784,13.122 7.767,13.122 C7.767,13.139 7.767,13.157 7.767,13.174 C7.749,13.174 7.731,13.174 7.714,13.174 C7.714,13.192 7.714,13.210 7.714,13.228 C7.696,13.228 7.678,13.228 7.661,13.228 C7.661,13.245 7.661,13.263 7.661,13.280 C7.643,13.280 7.625,13.280 7.608,13.280 C7.608,13.298 7.608,13.315 7.608,13.333 C7.590,13.333 7.572,13.333 7.554,13.333 C7.554,13.351 7.554,13.369 7.554,13.386 C7.537,13.386 7.519,13.386 7.501,13.386 C7.501,13.404 7.501,13.422 7.501,13.439 C7.484,13.439 7.466,13.439 7.448,13.439 C7.448,13.457 7.448,13.474 7.448,13.492 C7.431,13.492 7.413,13.492 7.395,13.492 C7.395,13.510 7.395,13.527 7.395,13.545 C7.378,13.545 7.360,13.545 7.342,13.545 C7.342,13.563 7.342,13.580 7.342,13.598 C7.325,13.598 7.307,13.598 7.290,13.598 C7.290,13.616 7.290,13.633 7.290,13.651 C7.272,13.651 7.254,13.651 7.237,13.651 C7.237,13.669 7.237,13.687 7.237,13.704 C7.219,13.704 7.201,13.704 7.183,13.704 C7.183,13.722 7.183,13.739 7.183,13.757 C7.166,13.757 7.148,13.757 7.130,13.757 C7.130,13.775 7.130,13.793 7.130,13.810 C7.113,13.810 7.095,13.810 7.077,13.810 C7.077,13.828 7.077,13.845 7.077,13.863 C7.060,13.863 7.042,13.863 7.024,13.863 C7.024,13.881 7.024,13.898 7.024,13.916 C7.007,13.916 6.989,13.916 6.971,13.916 C6.971,13.933 6.971,13.951 6.971,13.969 C6.954,13.969 6.936,13.969 6.918,13.969 C6.918,13.987 6.918,14.005 6.918,14.022 C6.901,14.022 6.883,14.022 6.865,14.022 C6.865,14.039 6.865,14.057 6.865,14.075 C6.848,14.075 6.830,14.075 6.812,14.075 C6.812,14.093 6.812,14.110 6.812,14.128 C6.795,14.128 6.777,14.128 6.759,14.128 C6.759,14.145 6.759,14.163 6.759,14.181 C6.742,14.181 6.724,14.181 6.706,14.181 C6.706,14.198 6.706,14.216 6.706,14.234 C6.689,14.234 6.671,14.234 6.653,14.234 C6.653,14.252 6.653,14.269 6.653,14.287 C6.636,14.287 6.618,14.287 6.600,14.287 C6.600,14.304 6.600,14.322 6.600,14.339 C6.583,14.339 6.565,14.339 6.547,14.339 C6.547,14.357 6.547,14.375 6.547,14.393 C6.530,14.393 6.512,14.393 6.494,14.393 C6.494,14.410 6.494,14.428 6.494,14.446 C6.477,14.446 6.459,14.446 6.441,14.446 C6.441,14.463 6.441,14.480 6.441,14.499 C6.424,14.499 6.406,14.499 6.388,14.499 C6.388,14.517 6.388,14.534 6.388,14.552 C6.371,14.552 6.353,14.552 6.335,14.552 C6.335,14.569 6.335,14.587 6.335,14.605 C6.318,14.605 6.300,14.605 6.282,14.605 C6.282,14.622 6.282,14.640 6.282,14.658 C6.265,14.658 6.247,14.658 6.229,14.658 C6.229,14.675 6.229,14.693 6.229,14.711 C6.212,14.711 6.194,14.711 6.176,14.711 C6.176,14.728 6.176,14.746 6.176,14.763 C6.158,14.763 6.141,14.763 6.123,14.763 C6.123,14.781 6.123,14.799 6.123,14.817 C6.105,14.817 6.088,14.817 6.070,14.817 C6.070,14.834 6.070,14.852 6.070,14.870 C6.052,14.870 6.035,14.870 6.017,14.870 C6.017,14.887 6.017,14.905 6.017,14.922 C5.999,14.922 5.982,14.922 5.964,14.922 C5.964,14.940 5.964,14.958 5.964,14.975 C5.946,14.975 5.929,14.975 5.911,14.975 C5.911,14.993 5.911,15.011 5.911,15.029 C5.893,15.029 5.876,15.029 5.858,15.029 C5.858,15.046 5.858,15.064 5.858,15.081 C5.840,15.081 5.823,15.081 5.805,15.081 C5.805,15.099 5.805,15.117 5.805,15.134 C5.787,15.134 5.770,15.134 5.752,15.134 C5.752,15.152 5.752,15.170 5.752,15.187 C5.734,15.187 5.717,15.187 5.699,15.187 C5.699,15.204 5.699,15.222 5.699,15.240 C5.681,15.240 5.664,15.240 5.646,15.240 C5.646,15.258 5.646,15.276 5.646,15.293 C5.628,15.293 5.611,15.293 5.593,15.293 C5.593,15.311 5.593,15.328 5.593,15.346 C5.575,15.346 5.558,15.346 5.540,15.346 C5.540,15.364 5.540,15.381 5.540,15.399 C5.522,15.399 5.505,15.399 5.487,15.399 C5.487,15.417 5.487,15.434 5.487,15.452 C5.469,15.452 5.452,15.452 5.434,15.452 C5.434,15.470 5.434,15.488 5.434,15.505 C5.416,15.505 5.399,15.505 5.381,15.505 C5.381,15.523 5.381,15.540 5.381,15.558 C5.363,15.558 5.346,15.558 5.328,15.558 C5.328,15.575 5.328,15.593 5.328,15.611 C5.310,15.611 5.293,15.611 5.275,15.611 C5.275,15.629 5.275,15.646 5.275,15.664 C5.257,15.664 5.240,15.664 5.222,15.664 C5.222,15.682 5.222,15.699 5.222,15.717 C5.204,15.717 5.187,15.717 5.169,15.717 C5.169,15.735 5.169,15.752 5.169,15.770 C5.151,15.770 5.134,15.770 5.116,15.770 C5.116,15.788 5.116,15.805 5.116,15.823 C5.098,15.823 5.081,15.823 5.063,15.823 C5.063,15.840 5.063,15.858 5.063,15.876 C5.045,15.876 5.028,15.876 5.010,15.876 C5.010,15.893 5.010,15.912 5.010,15.929 C4.992,15.929 4.974,15.929 4.957,15.929 C4.957,15.946 4.957,15.964 4.957,15.982 C4.939,15.982 4.921,15.982 4.904,15.982 C4.904,16.000 4.904,16.017 4.904,16.035 C4.886,16.035 4.869,16.035 4.851,16.035 C4.851,16.053 4.851,16.070 4.851,16.088 C4.833,16.088 4.816,16.088 4.798,16.088 C4.798,16.105 4.798,16.123 4.798,16.141 C4.780,16.141 4.763,16.141 4.745,16.141 C4.745,16.158 4.745,16.176 4.745,16.194 C4.727,16.194 4.709,16.194 4.692,16.194 C4.692,16.211 4.692,16.229 4.692,16.246 C4.674,16.246 4.656,16.246 4.639,16.246 C4.639,16.264 4.639,16.282 4.639,16.299 C4.621,16.299 4.603,16.299 4.586,16.299 C4.586,16.317 4.586,16.335 4.586,16.353 C4.568,16.353 4.550,16.353 4.533,16.353 C4.533,16.370 4.533,16.388 4.533,16.405 C4.515,16.405 4.497,16.405 4.480,16.405 C4.480,16.424 4.480,16.441 4.480,16.459 C4.462,16.459 4.444,16.459 4.427,16.459 C4.427,16.476 4.427,16.494 4.427,16.511 C4.409,16.511 4.391,16.511 4.374,16.511 C4.374,16.529 4.374,16.547 4.374,16.564 C4.356,16.564 4.338,16.564 4.321,16.564 C4.321,16.582 4.321,16.599 4.321,16.617 C4.303,16.617 4.285,16.617 4.268,16.617 C4.268,16.635 4.268,16.653 4.268,16.670 C4.250,16.670 4.232,16.670 4.215,16.670 C4.215,16.688 4.215,16.706 4.215,16.723 C4.197,16.723 4.179,16.723 4.162,16.723 C4.162,16.741 4.162,16.759 4.162,16.776 C4.144,16.776 4.126,16.776 4.109,16.776 C4.109,16.794 4.109,16.812 4.109,16.829 C4.091,16.829 4.073,16.829 4.056,16.829 C4.056,16.847 4.056,16.865 4.056,16.882 C4.038,16.882 4.020,16.882 4.003,16.882 C4.003,16.900 4.003,16.917 4.003,16.935 C3.985,16.935 3.967,16.935 3.950,16.935 C3.950,16.953 3.950,16.970 3.950,16.988 C3.932,16.988 3.914,16.988 3.897,16.988 C3.897,17.006 3.897,17.024 3.897,17.041 C3.879,17.041 3.861,17.041 3.844,17.041 C3.844,17.059 3.844,17.077 3.844,17.094 C3.826,17.094 3.808,17.094 3.790,17.094 C3.790,17.111 3.790,17.129 3.790,17.147 C3.773,17.147 3.755,17.147 3.737,17.147 C3.737,17.165 3.737,17.183 3.737,17.200 C3.720,17.200 3.702,17.200 3.685,17.200 C3.685,17.218 3.685,17.235 3.685,17.253 C3.667,17.253 3.649,17.253 3.632,17.253 C3.632,17.271 3.632,17.289 3.632,17.306 C3.614,17.306 3.596,17.306 3.579,17.306 C3.579,17.324 3.579,17.341 3.579,17.359 C3.561,17.359 3.543,17.359 3.525,17.359 C3.525,17.377 3.525,17.394 3.525,17.412 C3.508,17.412 3.490,17.412 3.472,17.412 C3.472,17.430 3.472,17.448 3.472,17.465 C3.455,17.465 3.437,17.465 3.419,17.465 C3.419,17.483 3.419,17.500 3.419,17.518 C3.402,17.518 3.384,17.518 3.366,17.518 C3.366,17.536 3.366,17.553 3.366,17.570 C3.349,17.570 3.331,17.570 3.313,17.570 C3.313,17.589 3.313,17.606 3.313,17.624 C3.296,17.624 3.278,17.624 3.260,17.624 C3.260,17.641 3.260,17.659 3.260,17.677 C3.243,17.677 3.225,17.677 3.207,17.677 C3.207,17.694 3.207,17.712 3.207,17.730 C3.190,17.730 3.172,17.730 3.154,17.730 C3.154,17.747 3.154,17.765 3.154,17.783 C3.137,17.783 3.119,17.783 3.101,17.783 C3.101,17.801 3.101,17.818 3.101,17.836 C3.084,17.836 3.066,17.836 3.048,17.836 C3.048,17.853 3.048,17.871 3.048,17.889 C3.031,17.889 3.013,17.889 2.995,17.889 C2.995,17.906 2.995,17.924 2.995,17.941 C2.978,17.941 2.960,17.941 2.942,17.941 C2.942,17.959 2.942,17.977 2.942,17.994 C2.925,17.994 2.907,17.994 2.889,17.994 C2.889,18.013 2.889,18.030 2.889,18.048 C2.872,18.048 2.854,18.048 2.836,18.048 C2.836,18.065 2.836,18.083 2.836,18.101 C2.819,18.101 2.801,18.101 2.783,18.101 C2.783,18.118 2.783,18.136 2.783,18.153 C2.766,18.153 2.748,18.153 2.730,18.153 C2.730,18.171 2.730,18.189 2.730,18.206 C2.713,18.206 2.695,18.206 2.677,18.206 C2.677,18.224 2.677,18.242 2.677,18.259 C2.660,18.259 2.642,18.259 2.624,18.259 C2.624,18.277 2.624,18.295 2.624,18.313 C2.607,18.313 2.589,18.313 2.571,18.313 C2.571,18.330 2.571,18.348 2.571,18.365 C2.554,18.365 2.536,18.365 2.518,18.365 C2.518,18.383 2.518,18.400 2.518,18.418 C2.501,18.418 2.483,18.418 2.465,18.418 C2.465,18.436 2.465,18.454 2.465,18.472 C2.448,18.472 2.430,18.472 2.412,18.472 C2.412,18.489 2.412,18.506 2.412,18.524 C2.395,18.524 2.377,18.524 2.359,18.524 C2.359,18.542 2.359,18.560 2.359,18.577 C2.341,18.577 2.324,18.577 2.306,18.577 C2.306,18.595 2.306,18.613 2.306,18.630 C2.288,18.630 2.271,18.630 2.253,18.630 C2.253,18.648 2.253,18.665 2.253,18.683 C2.235,18.683 2.218,18.683 2.200,18.683 C2.200,18.701 2.200,18.718 2.200,18.736 C2.182,18.736 2.165,18.736 2.147,18.736 C2.147,18.754 2.147,18.771 2.147,18.789 C2.129,18.789 2.112,18.789 2.094,18.789 C2.094,18.807 2.094,18.825 2.094,18.842 C2.076,18.842 2.059,18.842 2.041,18.842 C2.041,18.860 2.041,18.878 2.041,18.895 C2.023,18.895 2.006,18.895 1.988,18.895 C1.988,18.913 1.988,18.931 1.988,18.948 C1.970,18.948 1.953,18.948 1.935,18.948 C1.935,18.965 1.935,18.983 1.935,19.001 C1.917,19.001 1.900,19.001 1.882,19.001 C1.882,19.019 1.882,19.036 1.882,19.054 C1.864,19.054 1.847,19.054 1.829,19.054 C1.829,19.072 1.829,19.089 1.829,19.107 C1.811,19.107 1.794,19.107 1.776,19.107 C1.776,19.125 1.776,19.142 1.776,19.160 C1.758,19.160 1.741,19.160 1.723,19.160 C1.723,19.178 1.723,19.195 1.723,19.213 C1.705,19.213 1.688,19.213 1.670,19.213 C1.670,19.230 1.670,19.248 1.670,19.266 C1.652,19.266 1.635,19.266 1.617,19.266 C1.617,19.283 1.617,19.301 1.617,19.319 C1.599,19.319 1.582,19.319 1.564,19.319 C1.564,19.337 1.564,19.354 1.564,19.372 C1.546,19.372 1.529,19.372 1.511,19.372 C1.511,19.389 1.511,19.407 1.511,19.425 C1.493,19.425 1.476,19.425 1.458,19.425 C1.458,19.443 1.458,19.460 1.458,19.478 C1.440,19.478 1.423,19.478 1.405,19.478 C1.405,19.495 1.405,19.513 1.405,19.531 C1.387,19.531 1.370,19.531 1.352,19.531 C1.352,19.548 1.352,19.566 1.352,19.583 C1.334,19.583 1.316,19.583 1.299,19.583 C1.299,19.601 1.299,19.619 1.299,19.637 C1.281,19.637 1.264,19.637 1.246,19.637 C1.246,19.655 1.246,19.672 1.246,19.689 C1.228,19.689 1.211,19.689 1.193,19.689 C1.193,19.707 1.193,19.725 1.193,19.743 C1.175,19.743 1.158,19.743 1.140,19.743 C1.140,19.760 1.140,19.778 1.140,19.795 C1.122,19.795 1.105,19.795 1.087,19.795 C1.087,19.813 1.087,19.831 1.087,19.848 C1.069,19.848 1.052,19.848 1.034,19.848 C1.034,19.866 1.034,19.884 1.034,19.901 C1.016,19.901 0.999,19.901 0.981,19.901 C0.981,19.919 0.981,19.937 0.981,19.954 C0.963,19.954 0.945,19.954 0.928,19.954 C0.928,19.972 0.928,19.990 0.928,20.007 C0.910,20.007 0.892,20.007 0.875,20.007 C0.875,20.025 0.875,20.043 0.875,20.060 C0.857,20.060 0.839,20.060 0.822,20.060 C0.822,20.078 0.822,20.096 0.822,20.113 C0.804,20.113 0.786,20.113 0.769,20.113 C0.769,20.130 0.769,20.149 0.769,20.166 C0.751,20.166 0.733,20.166 0.716,20.166 C0.716,20.184 0.716,20.202 0.716,20.219 C0.698,20.219 0.680,20.219 0.663,20.219 C0.663,20.237 0.663,20.255 0.663,20.272 C0.645,20.272 0.627,20.272 0.610,20.272 C0.610,20.290 0.610,20.307 0.610,20.325 C0.592,20.325 0.574,20.325 0.557,20.325 C0.557,20.343 0.557,20.361 0.557,20.378 C0.539,20.378 0.521,20.378 0.504,20.378 C0.504,20.396 0.504,20.413 0.504,20.431 C0.486,20.431 0.468,20.431 0.451,20.431 C0.451,20.449 0.451,20.467 0.451,20.484 C0.433,20.484 0.415,20.484 0.398,20.484 C0.398,20.502 0.398,20.520 0.398,20.537 C0.380,20.537 0.362,20.537 0.345,20.537 C0.345,20.555 0.345,20.572 0.345,20.590 C0.327,20.590 0.309,20.590 0.292,20.590 C0.272,20.661 0.249,20.673 0.212,20.722 C0.203,20.722 0.194,20.722 0.186,20.722 C0.186,20.749 0.186,20.775 0.186,20.802 C0.168,20.811 0.150,20.820 0.133,20.829 C0.133,20.855 0.133,20.881 0.133,20.908 C0.115,20.917 0.097,20.926 0.080,20.935 C0.080,20.970 0.080,21.005 0.080,21.040 C0.071,21.040 0.062,21.040 0.053,21.040 C0.053,21.058 0.053,21.076 0.053,21.093 C0.044,21.093 0.035,21.093 0.027,21.093 C0.027,21.129 0.027,21.164 0.027,21.199 C0.018,21.199 0.009,21.199 0.000,21.199 C0.000,21.429 0.000,21.658 0.000,21.887 C0.009,21.887 0.018,21.887 0.027,21.887 C0.027,21.923 0.027,21.959 0.027,21.994 C0.035,21.994 0.044,21.994 0.053,21.994 C0.053,22.011 0.053,22.029 0.053,22.046 C0.062,22.046 0.071,22.046 0.080,22.046 C0.080,22.082 0.080,22.117 0.080,22.153 C0.097,22.161 0.115,22.170 0.133,22.179 C0.133,22.206 0.133,22.232 0.133,22.258 C0.150,22.268 0.168,22.277 0.186,22.285 C0.186,22.311 0.186,22.338 0.186,22.365 C0.194,22.365 0.203,22.365 0.212,22.365 C0.249,22.414 0.272,22.427 0.292,22.497 C0.309,22.497 0.327,22.497 0.345,22.497 C0.345,22.515 0.345,22.532 0.345,22.550 C0.362,22.550 0.380,22.550 0.398,22.550 C0.398,22.568 0.398,22.585 0.398,22.603 C0.415,22.603 0.433,22.603 0.451,22.603 C0.451,22.620 0.451,22.638 0.451,22.656 C0.468,22.656 0.486,22.656 0.504,22.656 C0.504,22.674 0.504,22.691 0.504,22.709 C0.574,22.728 0.587,22.751 0.636,22.788 C0.636,22.797 0.636,22.806 0.636,22.815 C0.663,22.815 0.689,22.815 0.716,22.815 C0.725,22.833 0.733,22.850 0.742,22.868 C0.769,22.868 0.795,22.868 0.822,22.868 C0.831,22.885 0.839,22.903 0.848,22.921 C0.884,22.921 0.919,22.921 0.954,22.921 C0.954,22.930 0.954,22.939 0.954,22.947 C0.972,22.947 0.990,22.947 1.007,22.947 C1.007,22.956 1.007,22.965 1.007,22.974 C1.043,22.974 1.078,22.974 1.113,22.974 C1.113,22.982 1.113,22.991 1.113,23.000 C1.361,23.000 1.608,23.000 1.856,23.000 C1.856,22.991 1.856,22.982 1.856,22.974 C1.891,22.974 1.926,22.974 1.962,22.974 C1.970,22.956 1.979,22.939 1.988,22.921 C2.015,22.921 2.041,22.921 2.068,22.921 C2.076,22.903 2.085,22.885 2.094,22.868 C2.121,22.868 2.147,22.868 2.174,22.868 C2.182,22.850 2.191,22.833 2.200,22.815 C2.227,22.815 2.253,22.815 2.280,22.815 C2.280,22.806 2.280,22.797 2.280,22.788 C2.329,22.751 2.342,22.728 2.412,22.709 Z"/>
</svg>