<svg 
 xmlns="http://www.w3.org/2000/svg"
 xmlns:xlink="http://www.w3.org/1999/xlink"
 width="25px" height="15px">
<path fill-rule="evenodd"  fill="rgb(86, 193, 178)"
 d="M0.765,11.809 C0.783,11.809 0.802,11.809 0.820,11.809 C0.820,11.791 0.820,11.773 0.820,11.754 C0.838,11.754 0.857,11.754 0.875,11.754 C0.875,11.736 0.875,11.718 0.875,11.699 C0.893,11.699 0.912,11.699 0.930,11.699 C0.930,11.681 0.930,11.663 0.930,11.644 C0.948,11.644 0.967,11.644 0.985,11.644 C0.985,11.626 0.985,11.608 0.985,11.589 C1.003,11.589 1.022,11.589 1.040,11.589 C1.040,11.571 1.040,11.553 1.040,11.534 C1.058,11.534 1.077,11.534 1.095,11.534 C1.095,11.516 1.095,11.498 1.095,11.479 C1.113,11.479 1.132,11.479 1.150,11.479 C1.150,11.461 1.150,11.443 1.150,11.425 C1.168,11.425 1.187,11.425 1.205,11.425 C1.205,11.406 1.205,11.388 1.205,11.369 C1.224,11.369 1.242,11.369 1.260,11.369 C1.260,11.351 1.260,11.333 1.260,11.315 C1.279,11.315 1.297,11.315 1.315,11.315 C1.315,11.296 1.315,11.278 1.315,11.260 C1.334,11.260 1.352,11.260 1.370,11.260 C1.370,11.241 1.370,11.223 1.370,11.205 C1.389,11.205 1.407,11.205 1.425,11.205 C1.425,11.186 1.425,11.168 1.425,11.150 C1.444,11.150 1.462,11.150 1.480,11.150 C1.480,11.131 1.480,11.113 1.480,11.095 C1.499,11.095 1.517,11.095 1.535,11.095 C1.535,11.076 1.535,11.058 1.535,11.040 C1.554,11.040 1.572,11.040 1.590,11.040 C1.590,11.021 1.590,11.003 1.590,10.985 C1.609,10.985 1.627,10.985 1.645,10.985 C1.645,10.966 1.645,10.948 1.645,10.930 C1.664,10.930 1.682,10.930 1.701,10.930 C1.701,10.911 1.701,10.893 1.701,10.875 C1.719,10.875 1.737,10.875 1.756,10.875 C1.756,10.857 1.756,10.838 1.756,10.820 C1.774,10.820 1.792,10.820 1.811,10.820 C1.811,10.802 1.811,10.783 1.811,10.765 C1.829,10.765 1.847,10.765 1.866,10.765 C1.866,10.746 1.866,10.728 1.866,10.710 C1.884,10.710 1.902,10.710 1.921,10.710 C1.921,10.692 1.921,10.673 1.921,10.655 C1.939,10.655 1.957,10.655 1.976,10.655 C1.976,10.637 1.976,10.618 1.976,10.600 C1.994,10.600 2.012,10.600 2.031,10.600 C2.031,10.582 2.031,10.563 2.031,10.545 C2.049,10.545 2.067,10.545 2.086,10.545 C2.086,10.527 2.086,10.508 2.086,10.490 C2.104,10.490 2.123,10.490 2.141,10.490 C2.141,10.472 2.141,10.453 2.141,10.435 C2.159,10.435 2.178,10.435 2.196,10.435 C2.196,10.417 2.196,10.398 2.196,10.380 C2.214,10.380 2.233,10.380 2.251,10.380 C2.251,10.362 2.251,10.343 2.251,10.325 C2.269,10.325 2.288,10.325 2.306,10.325 C2.306,10.307 2.306,10.288 2.306,10.270 C2.324,10.270 2.343,10.270 2.361,10.270 C2.361,10.252 2.361,10.233 2.361,10.215 C2.379,10.215 2.398,10.215 2.416,10.215 C2.416,10.197 2.416,10.178 2.416,10.160 C2.434,10.160 2.453,10.160 2.471,10.160 C2.471,10.142 2.471,10.124 2.471,10.105 C2.489,10.105 2.508,10.105 2.526,10.105 C2.526,10.087 2.526,10.069 2.526,10.050 C2.544,10.050 2.563,10.050 2.581,10.050 C2.581,10.032 2.581,10.014 2.581,9.995 C2.600,9.995 2.618,9.995 2.636,9.995 C2.636,9.977 2.636,9.959 2.636,9.940 C2.655,9.940 2.673,9.940 2.691,9.940 C2.691,9.922 2.691,9.904 2.691,9.885 C2.710,9.885 2.728,9.885 2.746,9.885 C2.746,9.867 2.746,9.849 2.746,9.830 C2.765,9.830 2.783,9.830 2.801,9.830 C2.801,9.812 2.801,9.794 2.801,9.775 C2.820,9.775 2.838,9.775 2.856,9.775 C2.856,9.757 2.856,9.739 2.856,9.721 C2.875,9.721 2.893,9.721 2.911,9.721 C2.911,9.702 2.911,9.684 2.911,9.666 C2.930,9.666 2.948,9.666 2.967,9.666 C2.967,9.647 2.967,9.629 2.967,9.610 C2.985,9.610 3.003,9.610 3.022,9.610 C3.022,9.592 3.022,9.574 3.022,9.556 C3.040,9.556 3.058,9.556 3.077,9.556 C3.077,9.537 3.077,9.519 3.077,9.501 C3.095,9.501 3.113,9.501 3.132,9.501 C3.132,9.482 3.132,9.464 3.132,9.445 C3.150,9.445 3.168,9.445 3.187,9.445 C3.187,9.427 3.187,9.409 3.187,9.391 C3.205,9.391 3.223,9.391 3.242,9.391 C3.242,9.372 3.242,9.354 3.242,9.336 C3.260,9.336 3.278,9.336 3.297,9.336 C3.297,9.317 3.297,9.299 3.297,9.281 C3.315,9.281 3.333,9.281 3.352,9.281 C3.352,9.262 3.352,9.244 3.352,9.226 C3.370,9.226 3.388,9.226 3.407,9.226 C3.407,9.207 3.407,9.189 3.407,9.171 C3.425,9.171 3.444,9.171 3.462,9.171 C3.462,9.152 3.462,9.134 3.462,9.116 C3.480,9.116 3.499,9.116 3.517,9.116 C3.517,9.097 3.517,9.079 3.517,9.061 C3.535,9.061 3.554,9.061 3.572,9.061 C3.572,9.043 3.572,9.024 3.572,9.006 C3.590,9.006 3.609,9.006 3.627,9.006 C3.627,8.987 3.627,8.969 3.627,8.951 C3.645,8.951 3.664,8.951 3.682,8.951 C3.682,8.933 3.682,8.914 3.682,8.896 C3.700,8.896 3.719,8.896 3.737,8.896 C3.737,8.878 3.737,8.859 3.737,8.841 C3.755,8.841 3.774,8.841 3.792,8.841 C3.792,8.823 3.792,8.804 3.792,8.786 C3.810,8.786 3.829,8.786 3.847,8.786 C3.847,8.768 3.847,8.749 3.847,8.731 C3.866,8.731 3.884,8.731 3.902,8.731 C3.902,8.713 3.902,8.694 3.902,8.676 C3.921,8.676 3.939,8.676 3.957,8.676 C3.957,8.658 3.957,8.639 3.957,8.621 C3.976,8.621 3.994,8.621 4.012,8.621 C4.012,8.603 4.012,8.585 4.012,8.566 C4.031,8.566 4.049,8.566 4.067,8.566 C4.067,8.548 4.067,8.529 4.067,8.511 C4.086,8.511 4.104,8.511 4.122,8.511 C4.122,8.493 4.122,8.475 4.122,8.456 C4.141,8.456 4.159,8.456 4.177,8.456 C4.177,8.438 4.177,8.420 4.177,8.401 C4.196,8.401 4.214,8.401 4.232,8.401 C4.232,8.383 4.232,8.365 4.232,8.346 C4.251,8.346 4.269,8.346 4.287,8.346 C4.287,8.328 4.287,8.310 4.287,8.291 C4.306,8.291 4.324,8.291 4.343,8.291 C4.343,8.273 4.343,8.255 4.343,8.236 C4.361,8.236 4.379,8.236 4.398,8.236 C4.398,8.218 4.398,8.200 4.398,8.181 C4.416,8.181 4.434,8.181 4.453,8.181 C4.453,8.163 4.453,8.145 4.453,8.126 C4.471,8.126 4.489,8.126 4.508,8.126 C4.508,8.108 4.508,8.090 4.508,8.071 C4.526,8.071 4.544,8.071 4.563,8.071 C4.563,8.053 4.563,8.035 4.563,8.016 C4.581,8.016 4.599,8.016 4.618,8.016 C4.618,7.998 4.618,7.980 4.618,7.962 C4.636,7.962 4.654,7.962 4.673,7.962 C4.673,7.943 4.673,7.925 4.673,7.907 C4.691,7.907 4.710,7.907 4.728,7.907 C4.728,7.888 4.728,7.870 4.728,7.852 C4.746,7.852 4.765,7.852 4.783,7.852 C4.783,7.833 4.783,7.815 4.783,7.797 C4.801,7.797 4.820,7.797 4.838,7.797 C4.838,7.778 4.838,7.760 4.838,7.742 C4.856,7.742 4.875,7.742 4.893,7.742 C4.893,7.723 4.893,7.705 4.893,7.687 C4.911,7.687 4.930,7.687 4.948,7.687 C4.948,7.668 4.948,7.650 4.948,7.632 C4.966,7.632 4.985,7.632 5.003,7.632 C5.003,7.613 5.003,7.595 5.003,7.577 C5.021,7.577 5.040,7.577 5.058,7.577 C5.058,7.558 5.058,7.540 5.058,7.522 C5.076,7.522 5.095,7.522 5.113,7.522 C5.113,7.503 5.113,7.485 5.113,7.467 C5.131,7.467 5.150,7.467 5.168,7.467 C5.168,7.449 5.168,7.430 5.168,7.412 C5.187,7.412 5.205,7.412 5.223,7.412 C5.223,7.393 5.223,7.375 5.223,7.357 C5.242,7.357 5.260,7.357 5.278,7.357 C5.278,7.338 5.278,7.320 5.278,7.302 C5.297,7.302 5.315,7.302 5.333,7.302 C5.333,7.284 5.333,7.265 5.333,7.247 C5.352,7.247 5.370,7.247 5.388,7.247 C5.388,7.229 5.388,7.210 5.388,7.192 C5.407,7.192 5.425,7.192 5.443,7.192 C5.443,7.174 5.443,7.155 5.443,7.137 C5.462,7.137 5.480,7.137 5.498,7.137 C5.498,7.119 5.498,7.100 5.498,7.082 C5.517,7.082 5.535,7.082 5.553,7.082 C5.553,7.064 5.553,7.045 5.553,7.027 C5.572,7.027 5.590,7.027 5.608,7.027 C5.608,7.009 5.608,6.990 5.608,6.972 C5.627,6.972 5.645,6.972 5.664,6.972 C5.664,6.954 5.664,6.936 5.664,6.917 C5.682,6.917 5.700,6.917 5.719,6.917 C5.719,6.899 5.719,6.881 5.719,6.862 C5.737,6.862 5.755,6.862 5.774,6.862 C5.774,6.844 5.774,6.826 5.774,6.807 C5.792,6.807 5.810,6.807 5.829,6.807 C5.829,6.789 5.829,6.771 5.829,6.752 C5.847,6.752 5.865,6.752 5.884,6.752 C5.884,6.734 5.884,6.716 5.884,6.697 C5.902,6.697 5.920,6.697 5.939,6.697 C5.939,6.679 5.939,6.661 5.939,6.642 C5.957,6.642 5.975,6.642 5.994,6.642 C5.994,6.624 5.994,6.606 5.994,6.587 C6.012,6.587 6.030,6.587 6.049,6.587 C6.049,6.569 6.049,6.551 6.049,6.532 C6.067,6.532 6.086,6.532 6.104,6.532 C6.104,6.514 6.104,6.496 6.104,6.477 C6.122,6.477 6.141,6.477 6.159,6.477 C6.159,6.459 6.159,6.441 6.159,6.422 C6.177,6.422 6.196,6.422 6.214,6.422 C6.214,6.404 6.214,6.386 6.214,6.367 C6.232,6.367 6.251,6.367 6.269,6.367 C6.269,6.349 6.269,6.331 6.269,6.312 C6.287,6.312 6.306,6.312 6.324,6.312 C6.324,6.294 6.324,6.276 6.324,6.257 C6.342,6.257 6.361,6.257 6.379,6.257 C6.379,6.239 6.379,6.221 6.379,6.203 C6.397,6.203 6.416,6.203 6.434,6.203 C6.434,6.184 6.434,6.166 6.434,6.148 C6.452,6.148 6.471,6.148 6.489,6.148 C6.489,6.129 6.489,6.111 6.489,6.093 C6.507,6.093 6.526,6.093 6.544,6.093 C6.544,6.074 6.544,6.056 6.544,6.038 C6.563,6.038 6.581,6.038 6.599,6.038 C6.599,6.019 6.599,6.001 6.599,5.983 C6.618,5.983 6.636,5.983 6.654,5.983 C6.654,5.964 6.654,5.946 6.654,5.928 C6.673,5.928 6.691,5.928 6.709,5.928 C6.709,5.909 6.709,5.891 6.709,5.873 C6.728,5.873 6.746,5.873 6.764,5.873 C6.764,5.855 6.764,5.836 6.764,5.818 C6.783,5.818 6.801,5.818 6.819,5.818 C6.819,5.799 6.819,5.781 6.819,5.763 C6.838,5.763 6.856,5.763 6.874,5.763 C6.874,5.744 6.874,5.726 6.874,5.708 C6.893,5.708 6.911,5.708 6.930,5.708 C6.930,5.690 6.930,5.671 6.930,5.653 C6.948,5.653 6.966,5.653 6.985,5.653 C6.985,5.635 6.985,5.616 6.985,5.598 C7.003,5.598 7.021,5.598 7.040,5.598 C7.040,5.580 7.040,5.561 7.040,5.543 C7.058,5.543 7.076,5.543 7.095,5.543 C7.095,5.525 7.095,5.506 7.095,5.488 C7.113,5.488 7.131,5.488 7.150,5.488 C7.150,5.470 7.150,5.451 7.150,5.433 C7.168,5.433 7.186,5.433 7.205,5.433 C7.205,5.415 7.205,5.396 7.205,5.378 C7.223,5.378 7.241,5.378 7.260,5.378 C7.260,5.360 7.260,5.341 7.260,5.323 C7.278,5.323 7.296,5.323 7.315,5.323 C7.315,5.305 7.315,5.286 7.315,5.268 C7.333,5.268 7.351,5.268 7.370,5.268 C7.370,5.250 7.370,5.232 7.370,5.213 C7.388,5.213 7.407,5.213 7.425,5.213 C7.425,5.195 7.425,5.176 7.425,5.158 C7.443,5.158 7.462,5.158 7.480,5.158 C7.480,5.140 7.480,5.122 7.480,5.103 C7.498,5.103 7.517,5.103 7.535,5.103 C7.535,5.085 7.535,5.067 7.535,5.048 C7.553,5.048 7.572,5.048 7.590,5.048 C7.590,5.030 7.590,5.012 7.590,4.993 C7.608,4.993 7.627,4.993 7.645,4.993 C7.645,4.975 7.645,4.957 7.645,4.938 C7.663,4.938 7.682,4.938 7.700,4.938 C7.700,4.920 7.700,4.902 7.700,4.883 C7.718,4.883 7.737,4.883 7.755,4.883 C7.755,4.865 7.755,4.847 7.755,4.828 C7.773,4.828 7.792,4.828 7.810,4.828 C7.810,4.810 7.810,4.792 7.810,4.773 C7.829,4.773 7.847,4.773 7.865,4.773 C7.865,4.755 7.865,4.737 7.865,4.718 C7.884,4.718 7.902,4.718 7.920,4.718 C7.920,4.700 7.920,4.682 7.920,4.664 C7.939,4.664 7.957,4.664 7.975,4.664 C7.975,4.645 7.975,4.627 7.975,4.608 C7.994,4.608 8.012,4.608 8.030,4.608 C8.030,4.590 8.030,4.572 8.030,4.554 C8.049,4.554 8.067,4.554 8.085,4.554 C8.085,4.535 8.085,4.517 8.085,4.499 C8.104,4.499 8.122,4.499 8.140,4.499 C8.140,4.480 8.140,4.462 8.140,4.444 C8.159,4.444 8.177,4.444 8.195,4.444 C8.195,4.425 8.195,4.407 8.195,4.389 C8.214,4.389 8.232,4.389 8.250,4.389 C8.250,4.370 8.250,4.352 8.250,4.334 C8.269,4.334 8.287,4.334 8.306,4.334 C8.306,4.315 8.306,4.297 8.306,4.279 C8.324,4.279 8.342,4.279 8.361,4.279 C8.361,4.260 8.361,4.242 8.361,4.224 C8.379,4.224 8.397,4.224 8.416,4.224 C8.416,4.206 8.416,4.187 8.416,4.169 C8.434,4.169 8.452,4.169 8.471,4.169 C8.471,4.151 8.471,4.132 8.471,4.114 C8.489,4.114 8.507,4.114 8.526,4.114 C8.526,4.096 8.526,4.077 8.526,4.059 C8.544,4.059 8.562,4.059 8.581,4.059 C8.581,4.041 8.581,4.022 8.581,4.004 C8.599,4.004 8.617,4.004 8.636,4.004 C8.636,3.986 8.636,3.967 8.636,3.949 C8.654,3.949 8.673,3.949 8.691,3.949 C8.691,3.931 8.691,3.912 8.691,3.894 C8.709,3.894 8.728,3.894 8.746,3.894 C8.746,3.876 8.746,3.857 8.746,3.839 C8.764,3.839 8.783,3.839 8.801,3.839 C8.801,3.821 8.801,3.802 8.801,3.784 C8.819,3.784 8.838,3.784 8.856,3.784 C8.856,3.766 8.856,3.747 8.856,3.729 C8.874,3.729 8.893,3.729 8.911,3.729 C8.911,3.711 8.911,3.692 8.911,3.674 C8.929,3.674 8.948,3.674 8.966,3.674 C8.966,3.656 8.966,3.637 8.966,3.619 C8.984,3.619 9.003,3.619 9.021,3.619 C9.021,3.601 9.021,3.583 9.021,3.564 C9.039,3.564 9.058,3.564 9.076,3.564 C9.076,3.546 9.076,3.528 9.076,3.509 C9.094,3.509 9.113,3.509 9.131,3.509 C9.131,3.491 9.131,3.473 9.131,3.454 C9.150,3.454 9.168,3.454 9.186,3.454 C9.186,3.436 9.186,3.418 9.186,3.399 C9.205,3.399 9.223,3.399 9.241,3.399 C9.241,3.381 9.241,3.363 9.241,3.344 C9.260,3.344 9.278,3.344 9.296,3.344 C9.296,3.326 9.296,3.308 9.296,3.289 C9.315,3.289 9.333,3.289 9.351,3.289 C9.351,3.271 9.351,3.253 9.351,3.234 C9.370,3.234 9.388,3.234 9.406,3.234 C9.406,3.216 9.406,3.198 9.406,3.179 C9.425,3.179 9.443,3.179 9.461,3.179 C9.461,3.161 9.461,3.143 9.461,3.124 C9.480,3.124 9.498,3.124 9.516,3.124 C9.516,3.106 9.516,3.088 9.516,3.069 C9.535,3.069 9.553,3.069 9.571,3.069 C9.571,3.051 9.571,3.033 9.571,3.015 C9.590,3.015 9.608,3.015 9.627,3.015 C9.627,2.996 9.627,2.978 9.627,2.960 C9.645,2.960 9.663,2.960 9.682,2.960 C9.682,2.941 9.682,2.923 9.682,2.905 C9.700,2.905 9.718,2.905 9.737,2.905 C9.737,2.886 9.737,2.868 9.737,2.850 C9.755,2.850 9.773,2.850 9.792,2.850 C9.792,2.831 9.792,2.813 9.792,2.795 C9.810,2.795 9.828,2.795 9.847,2.795 C9.847,2.776 9.847,2.758 9.847,2.740 C9.865,2.740 9.883,2.740 9.902,2.740 C9.902,2.721 9.902,2.703 9.902,2.685 C9.920,2.685 9.938,2.685 9.957,2.685 C9.957,2.666 9.957,2.648 9.957,2.630 C9.975,2.630 9.993,2.630 10.012,2.630 C10.012,2.611 10.012,2.593 10.012,2.575 C10.030,2.575 10.049,2.575 10.067,2.575 C10.067,2.557 10.067,2.538 10.067,2.520 C10.085,2.520 10.104,2.520 10.122,2.520 C10.122,2.501 10.122,2.483 10.122,2.465 C10.140,2.465 10.159,2.465 10.177,2.465 C10.177,2.447 10.177,2.428 10.177,2.410 C10.195,2.410 10.214,2.410 10.232,2.410 C10.232,2.392 10.232,2.373 10.232,2.355 C10.250,2.355 10.269,2.355 10.287,2.355 C10.287,2.336 10.287,2.318 10.287,2.300 C10.305,2.300 10.324,2.300 10.342,2.300 C10.342,2.282 10.342,2.263 10.342,2.245 C10.360,2.245 10.379,2.245 10.397,2.245 C10.397,2.227 10.397,2.208 10.397,2.190 C10.415,2.190 10.434,2.190 10.452,2.190 C10.452,2.172 10.452,2.153 10.452,2.135 C10.470,2.135 10.489,2.135 10.507,2.135 C10.507,2.117 10.507,2.098 10.507,2.080 C10.526,2.080 10.544,2.080 10.562,2.080 C10.562,2.062 10.562,2.043 10.562,2.025 C10.581,2.025 10.599,2.025 10.617,2.025 C10.617,2.007 10.617,1.988 10.617,1.970 C10.636,1.970 10.654,1.970 10.672,1.970 C10.672,1.952 10.672,1.934 10.672,1.915 C10.691,1.915 10.709,1.915 10.727,1.915 C10.727,1.897 10.727,1.878 10.727,1.860 C10.746,1.860 10.764,1.860 10.782,1.860 C10.782,1.842 10.782,1.824 10.782,1.805 C10.801,1.805 10.819,1.805 10.837,1.805 C10.837,1.787 10.837,1.769 10.837,1.750 C10.856,1.750 10.874,1.750 10.893,1.750 C10.893,1.732 10.893,1.714 10.893,1.695 C10.911,1.695 10.929,1.695 10.948,1.695 C10.948,1.677 10.948,1.659 10.948,1.640 C10.966,1.640 10.984,1.640 11.003,1.640 C11.003,1.622 11.003,1.604 11.003,1.585 C11.021,1.585 11.039,1.585 11.058,1.585 C11.058,1.567 11.058,1.549 11.058,1.530 C11.076,1.530 11.094,1.530 11.113,1.530 C11.113,1.512 11.113,1.494 11.113,1.475 C11.131,1.475 11.149,1.475 11.168,1.475 C11.168,1.457 11.168,1.439 11.168,1.420 C11.186,1.420 11.204,1.420 11.223,1.420 C11.223,1.402 11.223,1.384 11.223,1.365 C11.241,1.365 11.259,1.365 11.278,1.365 C11.278,1.347 11.278,1.329 11.278,1.311 C11.296,1.311 11.314,1.311 11.333,1.311 C11.333,1.292 11.333,1.274 11.333,1.256 C11.351,1.256 11.370,1.256 11.388,1.256 C11.388,1.237 11.388,1.219 11.388,1.201 C11.406,1.201 11.425,1.201 11.443,1.201 C11.443,1.182 11.443,1.164 11.443,1.146 C11.516,1.125 11.529,1.102 11.581,1.063 C11.581,1.054 11.581,1.045 11.581,1.036 C11.608,1.036 11.636,1.036 11.663,1.036 C11.672,1.017 11.681,0.999 11.691,0.981 C11.718,0.981 11.746,0.981 11.773,0.981 C11.782,0.963 11.792,0.944 11.801,0.926 C11.837,0.926 11.874,0.926 11.911,0.926 C11.911,0.917 11.911,0.907 11.911,0.898 C11.929,0.898 11.947,0.898 11.966,0.898 C11.966,0.889 11.966,0.880 11.966,0.871 C12.003,0.871 12.039,0.871 12.076,0.871 C12.076,0.862 12.076,0.852 12.076,0.843 C12.177,0.813 12.726,0.845 12.791,0.871 C12.791,0.880 12.791,0.889 12.791,0.898 C12.810,0.898 12.828,0.898 12.846,0.898 C12.846,0.907 12.846,0.917 12.846,0.926 C12.883,0.926 12.920,0.926 12.957,0.926 C12.966,0.944 12.975,0.963 12.984,0.981 C13.012,0.981 13.039,0.981 13.067,0.981 C13.076,0.999 13.085,1.017 13.094,1.036 C13.122,1.036 13.149,1.036 13.177,1.036 C13.186,1.054 13.195,1.072 13.204,1.091 C13.232,1.091 13.259,1.091 13.287,1.091 C13.287,1.100 13.287,1.109 13.287,1.118 C13.338,1.157 13.351,1.180 13.424,1.201 C13.424,1.219 13.424,1.237 13.424,1.256 C13.443,1.256 13.461,1.256 13.479,1.256 C13.479,1.274 13.479,1.292 13.479,1.311 C13.498,1.311 13.516,1.311 13.534,1.311 C13.534,1.329 13.534,1.347 13.534,1.365 C13.553,1.365 13.571,1.365 13.590,1.365 C13.590,1.384 13.590,1.402 13.590,1.420 C13.608,1.420 13.626,1.420 13.645,1.420 C13.645,1.439 13.645,1.457 13.645,1.475 C13.663,1.475 13.681,1.475 13.700,1.475 C13.700,1.494 13.700,1.512 13.700,1.530 C13.718,1.530 13.736,1.530 13.755,1.530 C13.755,1.549 13.755,1.567 13.755,1.585 C13.773,1.585 13.791,1.585 13.810,1.585 C13.810,1.604 13.810,1.622 13.810,1.640 C13.828,1.640 13.846,1.640 13.865,1.640 C13.865,1.659 13.865,1.677 13.865,1.695 C13.883,1.695 13.901,1.695 13.920,1.695 C13.920,1.714 13.920,1.732 13.920,1.750 C13.938,1.750 13.956,1.750 13.975,1.750 C13.975,1.769 13.975,1.787 13.975,1.805 C13.993,1.805 14.012,1.805 14.030,1.805 C14.030,1.824 14.030,1.842 14.030,1.860 C14.048,1.860 14.067,1.860 14.085,1.860 C14.085,1.878 14.085,1.897 14.085,1.915 C14.103,1.915 14.122,1.915 14.140,1.915 C14.140,1.934 14.140,1.952 14.140,1.970 C14.158,1.970 14.177,1.970 14.195,1.970 C14.195,1.988 14.195,2.007 14.195,2.025 C14.213,2.025 14.232,2.025 14.250,2.025 C14.250,2.043 14.250,2.062 14.250,2.080 C14.268,2.080 14.287,2.080 14.305,2.080 C14.305,2.098 14.305,2.117 14.305,2.135 C14.323,2.135 14.342,2.135 14.360,2.135 C14.360,2.153 14.360,2.172 14.360,2.190 C14.378,2.190 14.397,2.190 14.415,2.190 C14.415,2.208 14.415,2.227 14.415,2.245 C14.433,2.245 14.452,2.245 14.470,2.245 C14.470,2.263 14.470,2.282 14.470,2.300 C14.489,2.300 14.507,2.300 14.525,2.300 C14.525,2.318 14.525,2.336 14.525,2.355 C14.544,2.355 14.562,2.355 14.580,2.355 C14.580,2.373 14.580,2.392 14.580,2.410 C14.599,2.410 14.617,2.410 14.635,2.410 C14.635,2.428 14.635,2.447 14.635,2.465 C14.654,2.465 14.672,2.465 14.690,2.465 C14.690,2.483 14.690,2.501 14.690,2.520 C14.709,2.520 14.727,2.520 14.745,2.520 C14.745,2.538 14.745,2.557 14.745,2.575 C14.764,2.575 14.782,2.575 14.800,2.575 C14.800,2.593 14.800,2.611 14.800,2.630 C14.819,2.630 14.837,2.630 14.856,2.630 C14.856,2.648 14.856,2.666 14.856,2.685 C14.874,2.685 14.892,2.685 14.911,2.685 C14.911,2.703 14.911,2.721 14.911,2.740 C14.929,2.740 14.947,2.740 14.966,2.740 C14.966,2.758 14.966,2.776 14.966,2.795 C14.984,2.795 15.002,2.795 15.021,2.795 C15.021,2.813 15.021,2.831 15.021,2.850 C15.039,2.850 15.057,2.850 15.076,2.850 C15.076,2.868 15.076,2.886 15.076,2.905 C15.094,2.905 15.112,2.905 15.131,2.905 C15.131,2.923 15.131,2.941 15.131,2.960 C15.149,2.960 15.167,2.960 15.186,2.960 C15.186,2.978 15.186,2.996 15.186,3.015 C15.204,3.015 15.222,3.015 15.241,3.015 C15.241,3.033 15.241,3.051 15.241,3.069 C15.259,3.069 15.277,3.069 15.296,3.069 C15.296,3.088 15.296,3.106 15.296,3.124 C15.314,3.124 15.333,3.124 15.351,3.124 C15.351,3.143 15.351,3.161 15.351,3.179 C15.369,3.179 15.388,3.179 15.406,3.179 C15.406,3.198 15.406,3.216 15.406,3.234 C15.424,3.234 15.443,3.234 15.461,3.234 C15.461,3.253 15.461,3.271 15.461,3.289 C15.479,3.289 15.498,3.289 15.516,3.289 C15.516,3.308 15.516,3.326 15.516,3.344 C15.534,3.344 15.553,3.344 15.571,3.344 C15.571,3.363 15.571,3.381 15.571,3.399 C15.589,3.399 15.608,3.399 15.626,3.399 C15.626,3.418 15.626,3.436 15.626,3.454 C15.644,3.454 15.663,3.454 15.681,3.454 C15.681,3.473 15.681,3.491 15.681,3.509 C15.699,3.509 15.718,3.509 15.736,3.509 C15.736,3.528 15.736,3.546 15.736,3.564 C15.755,3.564 15.773,3.564 15.791,3.564 C15.791,3.583 15.791,3.601 15.791,3.619 C15.810,3.619 15.828,3.619 15.846,3.619 C15.846,3.637 15.846,3.656 15.846,3.674 C15.865,3.674 15.883,3.674 15.901,3.674 C15.901,3.692 15.901,3.711 15.901,3.729 C15.920,3.729 15.938,3.729 15.956,3.729 C15.956,3.747 15.956,3.766 15.956,3.784 C15.975,3.784 15.993,3.784 16.011,3.784 C16.011,3.802 16.011,3.821 16.011,3.839 C16.030,3.839 16.048,3.839 16.066,3.839 C16.066,3.857 16.066,3.876 16.066,3.894 C16.085,3.894 16.103,3.894 16.121,3.894 C16.121,3.912 16.121,3.931 16.121,3.949 C16.140,3.949 16.158,3.949 16.176,3.949 C16.176,3.967 16.176,3.986 16.176,4.004 C16.195,4.004 16.213,4.004 16.232,4.004 C16.232,4.022 16.232,4.041 16.232,4.059 C16.250,4.059 16.268,4.059 16.287,4.059 C16.287,4.077 16.287,4.096 16.287,4.114 C16.305,4.114 16.323,4.114 16.342,4.114 C16.342,4.132 16.342,4.151 16.342,4.169 C16.360,4.169 16.378,4.169 16.397,4.169 C16.397,4.187 16.397,4.206 16.397,4.224 C16.415,4.224 16.433,4.224 16.452,4.224 C16.452,4.242 16.452,4.260 16.452,4.279 C16.470,4.279 16.488,4.279 16.507,4.279 C16.507,4.297 16.507,4.315 16.507,4.334 C16.525,4.334 16.543,4.334 16.562,4.334 C16.562,4.352 16.562,4.370 16.562,4.389 C16.580,4.389 16.599,4.389 16.617,4.389 C16.617,4.407 16.617,4.425 16.617,4.444 C16.635,4.444 16.654,4.444 16.672,4.444 C16.672,4.462 16.672,4.480 16.672,4.499 C16.690,4.499 16.709,4.499 16.727,4.499 C16.727,4.517 16.727,4.535 16.727,4.554 C16.745,4.554 16.764,4.554 16.782,4.554 C16.782,4.572 16.782,4.590 16.782,4.608 C16.800,4.608 16.819,4.608 16.837,4.608 C16.837,4.627 16.837,4.645 16.837,4.664 C16.855,4.664 16.874,4.664 16.892,4.664 C16.892,4.682 16.892,4.700 16.892,4.718 C16.910,4.718 16.929,4.718 16.947,4.718 C16.947,4.737 16.947,4.755 16.947,4.773 C16.965,4.773 16.984,4.773 17.002,4.773 C17.002,4.792 17.002,4.810 17.002,4.828 C17.020,4.828 17.039,4.828 17.057,4.828 C17.057,4.847 17.057,4.865 17.057,4.883 C17.076,4.883 17.094,4.883 17.112,4.883 C17.112,4.902 17.112,4.920 17.112,4.938 C17.131,4.938 17.149,4.938 17.167,4.938 C17.167,4.957 17.167,4.975 17.167,4.993 C17.186,4.993 17.204,4.993 17.222,4.993 C17.222,5.012 17.222,5.030 17.222,5.048 C17.241,5.048 17.259,5.048 17.277,5.048 C17.277,5.067 17.277,5.085 17.277,5.103 C17.296,5.103 17.314,5.103 17.332,5.103 C17.332,5.122 17.332,5.140 17.332,5.158 C17.351,5.158 17.369,5.158 17.387,5.158 C17.387,5.176 17.387,5.195 17.387,5.213 C17.406,5.213 17.424,5.213 17.442,5.213 C17.442,5.232 17.442,5.250 17.442,5.268 C17.461,5.268 17.479,5.268 17.498,5.268 C17.498,5.286 17.498,5.305 17.498,5.323 C17.516,5.323 17.534,5.323 17.553,5.323 C17.553,5.341 17.553,5.360 17.553,5.378 C17.571,5.378 17.589,5.378 17.608,5.378 C17.608,5.396 17.608,5.415 17.608,5.433 C17.626,5.433 17.644,5.433 17.663,5.433 C17.663,5.451 17.663,5.470 17.663,5.488 C17.681,5.488 17.699,5.488 17.718,5.488 C17.718,5.506 17.718,5.525 17.718,5.543 C17.736,5.543 17.754,5.543 17.773,5.543 C17.773,5.561 17.773,5.580 17.773,5.598 C17.791,5.598 17.809,5.598 17.828,5.598 C17.828,5.616 17.828,5.635 17.828,5.653 C17.846,5.653 17.864,5.653 17.883,5.653 C17.883,5.671 17.883,5.690 17.883,5.708 C17.901,5.708 17.919,5.708 17.938,5.708 C17.938,5.726 17.938,5.744 17.938,5.763 C17.956,5.763 17.975,5.763 17.993,5.763 C17.993,5.781 17.993,5.799 17.993,5.818 C18.011,5.818 18.030,5.818 18.048,5.818 C18.048,5.836 18.048,5.855 18.048,5.873 C18.066,5.873 18.085,5.873 18.103,5.873 C18.103,5.891 18.103,5.909 18.103,5.928 C18.121,5.928 18.140,5.928 18.158,5.928 C18.158,5.946 18.158,5.964 18.158,5.983 C18.176,5.983 18.195,5.983 18.213,5.983 C18.213,6.001 18.213,6.019 18.213,6.038 C18.231,6.038 18.250,6.038 18.268,6.038 C18.268,6.056 18.268,6.074 18.268,6.093 C18.286,6.093 18.305,6.093 18.323,6.093 C18.323,6.111 18.323,6.129 18.323,6.148 C18.341,6.148 18.360,6.148 18.378,6.148 C18.378,6.166 18.378,6.184 18.378,6.203 C18.396,6.203 18.415,6.203 18.433,6.203 C18.433,6.221 18.433,6.239 18.433,6.257 C18.452,6.257 18.470,6.257 18.488,6.257 C18.488,6.276 18.488,6.294 18.488,6.312 C18.507,6.312 18.525,6.312 18.543,6.312 C18.543,6.331 18.543,6.349 18.543,6.367 C18.562,6.367 18.580,6.367 18.598,6.367 C18.598,6.386 18.598,6.404 18.598,6.422 C18.617,6.422 18.635,6.422 18.653,6.422 C18.653,6.441 18.653,6.459 18.653,6.477 C18.672,6.477 18.690,6.477 18.708,6.477 C18.708,6.496 18.708,6.514 18.708,6.532 C18.727,6.532 18.745,6.532 18.763,6.532 C18.763,6.551 18.763,6.569 18.763,6.587 C18.782,6.587 18.800,6.587 18.818,6.587 C18.818,6.606 18.818,6.624 18.818,6.642 C18.837,6.642 18.855,6.642 18.874,6.642 C18.874,6.661 18.874,6.679 18.874,6.697 C18.892,6.697 18.910,6.697 18.929,6.697 C18.929,6.716 18.929,6.734 18.929,6.752 C18.947,6.752 18.965,6.752 18.984,6.752 C18.984,6.771 18.984,6.789 18.984,6.807 C19.002,6.807 19.020,6.807 19.039,6.807 C19.039,6.826 19.039,6.844 19.039,6.862 C19.057,6.862 19.075,6.862 19.094,6.862 C19.094,6.881 19.094,6.899 19.094,6.917 C19.112,6.917 19.130,6.917 19.149,6.917 C19.149,6.936 19.149,6.954 19.149,6.972 C19.167,6.972 19.185,6.972 19.204,6.972 C19.204,6.990 19.204,7.009 19.204,7.027 C19.222,7.027 19.240,7.027 19.259,7.027 C19.259,7.045 19.259,7.064 19.259,7.082 C19.277,7.082 19.295,7.082 19.314,7.082 C19.314,7.100 19.314,7.119 19.314,7.137 C19.332,7.137 19.351,7.137 19.369,7.137 C19.369,7.155 19.369,7.174 19.369,7.192 C19.387,7.192 19.406,7.192 19.424,7.192 C19.424,7.210 19.424,7.229 19.424,7.247 C19.442,7.247 19.461,7.247 19.479,7.247 C19.479,7.265 19.479,7.284 19.479,7.302 C19.497,7.302 19.516,7.302 19.534,7.302 C19.534,7.320 19.534,7.338 19.534,7.357 C19.552,7.357 19.571,7.357 19.589,7.357 C19.589,7.375 19.589,7.393 19.589,7.412 C19.607,7.412 19.626,7.412 19.644,7.412 C19.644,7.430 19.644,7.449 19.644,7.467 C19.662,7.467 19.681,7.467 19.699,7.467 C19.699,7.485 19.699,7.503 19.699,7.522 C19.718,7.522 19.736,7.522 19.754,7.522 C19.754,7.540 19.754,7.558 19.754,7.577 C19.773,7.577 19.791,7.577 19.809,7.577 C19.809,7.595 19.809,7.613 19.809,7.632 C19.828,7.632 19.846,7.632 19.864,7.632 C19.864,7.650 19.864,7.668 19.864,7.687 C19.883,7.687 19.901,7.687 19.919,7.687 C19.919,7.705 19.919,7.723 19.919,7.742 C19.938,7.742 19.956,7.742 19.974,7.742 C19.974,7.760 19.974,7.778 19.974,7.797 C19.993,7.797 20.011,7.797 20.029,7.797 C20.029,7.815 20.029,7.833 20.029,7.852 C20.048,7.852 20.066,7.852 20.084,7.852 C20.084,7.870 20.084,7.888 20.084,7.907 C20.103,7.907 20.121,7.907 20.139,7.907 C20.139,7.925 20.139,7.943 20.139,7.962 C20.158,7.962 20.176,7.962 20.195,7.962 C20.195,7.980 20.195,7.998 20.195,8.016 C20.213,8.016 20.231,8.016 20.250,8.016 C20.250,8.035 20.250,8.053 20.250,8.071 C20.268,8.071 20.286,8.071 20.305,8.071 C20.305,8.090 20.305,8.108 20.305,8.126 C20.323,8.126 20.341,8.126 20.360,8.126 C20.360,8.145 20.360,8.163 20.360,8.181 C20.378,8.181 20.396,8.181 20.415,8.181 C20.415,8.200 20.415,8.218 20.415,8.236 C20.433,8.236 20.451,8.236 20.470,8.236 C20.470,8.255 20.470,8.273 20.470,8.291 C20.488,8.291 20.506,8.291 20.525,8.291 C20.525,8.310 20.525,8.328 20.525,8.346 C20.543,8.346 20.561,8.346 20.580,8.346 C20.580,8.365 20.580,8.383 20.580,8.401 C20.598,8.401 20.617,8.401 20.635,8.401 C20.635,8.420 20.635,8.438 20.635,8.456 C20.653,8.456 20.672,8.456 20.690,8.456 C20.690,8.475 20.690,8.493 20.690,8.511 C20.708,8.511 20.727,8.511 20.745,8.511 C20.745,8.529 20.745,8.548 20.745,8.566 C20.763,8.566 20.782,8.566 20.800,8.566 C20.800,8.585 20.800,8.603 20.800,8.621 C20.818,8.621 20.837,8.621 20.855,8.621 C20.855,8.639 20.855,8.658 20.855,8.676 C20.873,8.676 20.892,8.676 20.910,8.676 C20.910,8.694 20.910,8.713 20.910,8.731 C20.928,8.731 20.947,8.731 20.965,8.731 C20.965,8.749 20.965,8.768 20.965,8.786 C20.983,8.786 21.002,8.786 21.020,8.786 C21.020,8.804 21.020,8.823 21.020,8.841 C21.038,8.841 21.057,8.841 21.075,8.841 C21.075,8.859 21.075,8.878 21.075,8.896 C21.094,8.896 21.112,8.896 21.130,8.896 C21.130,8.914 21.130,8.933 21.130,8.951 C21.149,8.951 21.167,8.951 21.185,8.951 C21.185,8.969 21.185,8.987 21.185,9.006 C21.204,9.006 21.222,9.006 21.240,9.006 C21.240,9.024 21.240,9.043 21.240,9.061 C21.259,9.061 21.277,9.061 21.295,9.061 C21.295,9.079 21.295,9.097 21.295,9.116 C21.314,9.116 21.332,9.116 21.350,9.116 C21.350,9.134 21.350,9.152 21.350,9.171 C21.369,9.171 21.387,9.171 21.405,9.171 C21.405,9.189 21.405,9.207 21.405,9.226 C21.424,9.226 21.442,9.226 21.461,9.226 C21.461,9.244 21.461,9.262 21.461,9.281 C21.479,9.281 21.497,9.281 21.516,9.281 C21.516,9.299 21.516,9.317 21.516,9.336 C21.534,9.336 21.552,9.336 21.571,9.336 C21.571,9.354 21.571,9.372 21.571,9.391 C21.589,9.391 21.607,9.391 21.626,9.391 C21.626,9.409 21.626,9.427 21.626,9.445 C21.644,9.445 21.662,9.445 21.681,9.445 C21.681,9.464 21.681,9.482 21.681,9.501 C21.699,9.501 21.717,9.501 21.736,9.501 C21.736,9.519 21.736,9.537 21.736,9.556 C21.754,9.556 21.772,9.556 21.791,9.556 C21.791,9.574 21.791,9.592 21.791,9.610 C21.809,9.610 21.827,9.610 21.846,9.610 C21.846,9.629 21.846,9.647 21.846,9.666 C21.864,9.666 21.882,9.666 21.901,9.666 C21.901,9.684 21.901,9.702 21.901,9.721 C21.919,9.721 21.938,9.721 21.956,9.721 C21.956,9.739 21.956,9.757 21.956,9.775 C21.974,9.775 21.993,9.775 22.011,9.775 C22.011,9.794 22.011,9.812 22.011,9.830 C22.029,9.830 22.048,9.830 22.066,9.830 C22.066,9.849 22.066,9.867 22.066,9.885 C22.084,9.885 22.103,9.885 22.121,9.885 C22.121,9.904 22.121,9.922 22.121,9.940 C22.139,9.940 22.158,9.940 22.176,9.940 C22.176,9.959 22.176,9.977 22.176,9.995 C22.194,9.995 22.213,9.995 22.231,9.995 C22.231,10.014 22.231,10.032 22.231,10.050 C22.249,10.050 22.268,10.050 22.286,10.050 C22.286,10.069 22.286,10.087 22.286,10.105 C22.304,10.105 22.323,10.105 22.341,10.105 C22.341,10.124 22.341,10.142 22.341,10.160 C22.359,10.160 22.378,10.160 22.396,10.160 C22.396,10.178 22.396,10.197 22.396,10.215 C22.415,10.215 22.433,10.215 22.451,10.215 C22.451,10.233 22.451,10.252 22.451,10.270 C22.470,10.270 22.488,10.270 22.506,10.270 C22.506,10.288 22.506,10.307 22.506,10.325 C22.525,10.325 22.543,10.325 22.561,10.325 C22.561,10.343 22.561,10.362 22.561,10.380 C22.580,10.380 22.598,10.380 22.616,10.380 C22.616,10.398 22.616,10.417 22.616,10.435 C22.635,10.435 22.653,10.435 22.671,10.435 C22.671,10.453 22.671,10.472 22.671,10.490 C22.690,10.490 22.708,10.490 22.726,10.490 C22.726,10.508 22.726,10.527 22.726,10.545 C22.745,10.545 22.763,10.545 22.781,10.545 C22.781,10.563 22.781,10.582 22.781,10.600 C22.800,10.600 22.818,10.600 22.837,10.600 C22.837,10.618 22.837,10.637 22.837,10.655 C22.855,10.655 22.873,10.655 22.892,10.655 C22.892,10.673 22.892,10.692 22.892,10.710 C22.910,10.710 22.928,10.710 22.947,10.710 C22.947,10.728 22.947,10.746 22.947,10.765 C22.965,10.765 22.983,10.765 23.002,10.765 C23.002,10.783 23.002,10.802 23.002,10.820 C23.020,10.820 23.038,10.820 23.057,10.820 C23.057,10.838 23.057,10.857 23.057,10.875 C23.075,10.875 23.093,10.875 23.112,10.875 C23.112,10.893 23.112,10.911 23.112,10.930 C23.130,10.930 23.148,10.930 23.167,10.930 C23.167,10.948 23.167,10.966 23.167,10.985 C23.185,10.985 23.203,10.985 23.222,10.985 C23.222,11.003 23.222,11.021 23.222,11.040 C23.240,11.040 23.258,11.040 23.277,11.040 C23.277,11.058 23.277,11.076 23.277,11.095 C23.295,11.095 23.314,11.095 23.332,11.095 C23.332,11.113 23.332,11.131 23.332,11.150 C23.350,11.150 23.369,11.150 23.387,11.150 C23.387,11.168 23.387,11.186 23.387,11.205 C23.405,11.205 23.424,11.205 23.442,11.205 C23.442,11.223 23.442,11.241 23.442,11.260 C23.460,11.260 23.479,11.260 23.497,11.260 C23.497,11.278 23.497,11.296 23.497,11.315 C23.515,11.315 23.534,11.315 23.552,11.315 C23.552,11.333 23.552,11.351 23.552,11.369 C23.570,11.369 23.589,11.369 23.607,11.369 C23.607,11.388 23.607,11.406 23.607,11.425 C23.625,11.425 23.644,11.425 23.662,11.425 C23.662,11.443 23.662,11.461 23.662,11.479 C23.681,11.479 23.699,11.479 23.717,11.479 C23.717,11.498 23.717,11.516 23.717,11.534 C23.736,11.534 23.754,11.534 23.772,11.534 C23.772,11.553 23.772,11.571 23.772,11.589 C23.791,11.589 23.809,11.589 23.827,11.589 C23.827,11.608 23.827,11.626 23.827,11.644 C23.846,11.644 23.864,11.644 23.882,11.644 C23.882,11.663 23.882,11.681 23.882,11.699 C23.901,11.699 23.919,11.699 23.937,11.699 C23.937,11.718 23.937,11.736 23.937,11.754 C23.956,11.754 23.974,11.754 23.992,11.754 C24.013,11.827 24.037,11.840 24.075,11.892 C24.084,11.892 24.093,11.892 24.102,11.892 C24.102,11.919 24.102,11.947 24.102,11.974 C24.121,11.983 24.139,11.992 24.158,12.002 C24.158,12.029 24.158,12.056 24.158,12.084 C24.176,12.093 24.194,12.102 24.213,12.112 C24.213,12.139 24.213,12.166 24.213,12.194 C24.231,12.203 24.249,12.212 24.268,12.221 C24.268,12.258 24.268,12.295 24.268,12.331 C24.277,12.331 24.286,12.331 24.295,12.331 C24.295,12.350 24.295,12.368 24.295,12.386 C24.304,12.386 24.313,12.386 24.323,12.386 C24.348,12.452 24.381,13.000 24.350,13.101 C24.341,13.101 24.332,13.101 24.323,13.101 C24.323,13.138 24.323,13.174 24.323,13.211 C24.313,13.211 24.304,13.211 24.295,13.211 C24.295,13.229 24.295,13.247 24.295,13.266 C24.286,13.266 24.277,13.266 24.268,13.266 C24.268,13.302 24.268,13.339 24.268,13.376 C24.249,13.385 24.231,13.394 24.213,13.403 C24.213,13.431 24.213,13.458 24.213,13.486 C24.194,13.495 24.176,13.504 24.158,13.513 C24.158,13.541 24.158,13.568 24.158,13.596 C24.148,13.596 24.139,13.596 24.130,13.596 C24.092,13.647 24.067,13.660 24.047,13.733 C24.029,13.733 24.011,13.733 23.992,13.733 C23.992,13.751 23.992,13.770 23.992,13.788 C23.974,13.788 23.956,13.788 23.937,13.788 C23.937,13.806 23.937,13.825 23.937,13.843 C23.919,13.843 23.901,13.843 23.882,13.843 C23.882,13.861 23.882,13.880 23.882,13.898 C23.864,13.898 23.846,13.898 23.827,13.898 C23.827,13.916 23.827,13.935 23.827,13.953 C23.809,13.953 23.791,13.953 23.772,13.953 C23.772,13.971 23.772,13.990 23.772,14.008 C23.700,14.028 23.684,14.051 23.635,14.090 C23.635,14.099 23.635,14.109 23.635,14.118 C23.616,14.118 23.598,14.118 23.580,14.118 C23.580,14.127 23.580,14.136 23.580,14.145 C23.561,14.145 23.543,14.145 23.525,14.145 C23.525,14.154 23.525,14.164 23.525,14.173 C23.506,14.173 23.488,14.173 23.470,14.173 C23.470,14.182 23.470,14.191 23.470,14.200 C23.451,14.200 23.433,14.200 23.414,14.200 C23.414,14.209 23.414,14.219 23.414,14.228 C23.387,14.228 23.359,14.228 23.332,14.228 C23.323,14.246 23.314,14.264 23.304,14.283 C23.268,14.283 23.231,14.283 23.194,14.283 C23.194,14.292 23.194,14.301 23.194,14.310 C22.937,14.310 22.681,14.310 22.424,14.310 C22.424,14.301 22.424,14.292 22.424,14.283 C22.387,14.283 22.350,14.283 22.314,14.283 C22.314,14.274 22.314,14.264 22.314,14.255 C22.295,14.255 22.277,14.255 22.259,14.255 C22.259,14.246 22.259,14.237 22.259,14.228 C22.222,14.228 22.185,14.228 22.148,14.228 C22.139,14.209 22.130,14.191 22.121,14.173 C22.093,14.173 22.066,14.173 22.038,14.173 C22.020,14.145 22.002,14.118 21.983,14.090 C21.947,14.081 21.910,14.072 21.873,14.063 C21.873,14.054 21.873,14.045 21.873,14.035 C21.824,13.996 21.807,13.973 21.736,13.953 C21.736,13.935 21.736,13.916 21.736,13.898 C21.717,13.898 21.699,13.898 21.681,13.898 C21.681,13.880 21.681,13.861 21.681,13.843 C21.662,13.843 21.644,13.843 21.626,13.843 C21.626,13.825 21.626,13.806 21.626,13.788 C21.607,13.788 21.589,13.788 21.571,13.788 C21.571,13.770 21.571,13.751 21.571,13.733 C21.552,13.733 21.534,13.733 21.516,13.733 C21.516,13.715 21.516,13.696 21.516,13.678 C21.497,13.678 21.479,13.678 21.461,13.678 C21.461,13.660 21.461,13.641 21.461,13.623 C21.442,13.623 21.424,13.623 21.405,13.623 C21.405,13.605 21.405,13.586 21.405,13.568 C21.387,13.568 21.369,13.568 21.350,13.568 C21.350,13.550 21.350,13.531 21.350,13.513 C21.332,13.513 21.314,13.513 21.295,13.513 C21.295,13.495 21.295,13.476 21.295,13.458 C21.277,13.458 21.259,13.458 21.240,13.458 C21.240,13.440 21.240,13.422 21.240,13.403 C21.222,13.403 21.204,13.403 21.185,13.403 C21.185,13.385 21.185,13.366 21.185,13.348 C21.167,13.348 21.149,13.348 21.130,13.348 C21.130,13.330 21.130,13.312 21.130,13.293 C21.112,13.293 21.094,13.293 21.075,13.293 C21.075,13.275 21.075,13.257 21.075,13.238 C21.057,13.238 21.038,13.238 21.020,13.238 C21.020,13.220 21.020,13.202 21.020,13.183 C21.002,13.183 20.983,13.183 20.965,13.183 C20.965,13.165 20.965,13.147 20.965,13.128 C20.947,13.128 20.928,13.128 20.910,13.128 C20.910,13.110 20.910,13.092 20.910,13.073 C20.892,13.073 20.873,13.073 20.855,13.073 C20.855,13.055 20.855,13.037 20.855,13.018 C20.837,13.018 20.818,13.018 20.800,13.018 C20.800,13.000 20.800,12.982 20.800,12.963 C20.782,12.963 20.763,12.963 20.745,12.963 C20.745,12.945 20.745,12.927 20.745,12.909 C20.727,12.909 20.708,12.909 20.690,12.909 C20.690,12.890 20.690,12.872 20.690,12.854 C20.672,12.854 20.653,12.854 20.635,12.854 C20.635,12.835 20.635,12.817 20.635,12.799 C20.617,12.799 20.598,12.799 20.580,12.799 C20.580,12.780 20.580,12.762 20.580,12.744 C20.561,12.744 20.543,12.744 20.525,12.744 C20.525,12.725 20.525,12.707 20.525,12.689 C20.506,12.689 20.488,12.689 20.470,12.689 C20.470,12.670 20.470,12.652 20.470,12.634 C20.451,12.634 20.433,12.634 20.415,12.634 C20.415,12.615 20.415,12.597 20.415,12.579 C20.396,12.579 20.378,12.579 20.360,12.579 C20.360,12.560 20.360,12.542 20.360,12.524 C20.341,12.524 20.323,12.524 20.305,12.524 C20.305,12.505 20.305,12.487 20.305,12.469 C20.286,12.469 20.268,12.469 20.250,12.469 C20.250,12.450 20.250,12.432 20.250,12.414 C20.231,12.414 20.213,12.414 20.195,12.414 C20.195,12.395 20.195,12.377 20.195,12.359 C20.176,12.359 20.158,12.359 20.139,12.359 C20.139,12.341 20.139,12.322 20.139,12.304 C20.121,12.304 20.103,12.304 20.084,12.304 C20.084,12.286 20.084,12.267 20.084,12.249 C20.066,12.249 20.048,12.249 20.029,12.249 C20.029,12.231 20.029,12.212 20.029,12.194 C20.011,12.194 19.993,12.194 19.974,12.194 C19.974,12.176 19.974,12.157 19.974,12.139 C19.956,12.139 19.938,12.139 19.919,12.139 C19.919,12.121 19.919,12.102 19.919,12.084 C19.901,12.084 19.883,12.084 19.864,12.084 C19.864,12.066 19.864,12.047 19.864,12.029 C19.846,12.029 19.828,12.029 19.809,12.029 C19.809,12.011 19.809,11.992 19.809,11.974 C19.791,11.974 19.773,11.974 19.754,11.974 C19.754,11.956 19.754,11.937 19.754,11.919 C19.736,11.919 19.718,11.919 19.699,11.919 C19.699,11.901 19.699,11.882 19.699,11.864 C19.681,11.864 19.662,11.864 19.644,11.864 C19.644,11.846 19.644,11.827 19.644,11.809 C19.626,11.809 19.607,11.809 19.589,11.809 C19.589,11.791 19.589,11.773 19.589,11.754 C19.571,11.754 19.552,11.754 19.534,11.754 C19.534,11.736 19.534,11.718 19.534,11.699 C19.516,11.699 19.497,11.699 19.479,11.699 C19.479,11.681 19.479,11.663 19.479,11.644 C19.461,11.644 19.442,11.644 19.424,11.644 C19.424,11.626 19.424,11.608 19.424,11.589 C19.406,11.589 19.387,11.589 19.369,11.589 C19.369,11.571 19.369,11.553 19.369,11.534 C19.351,11.534 19.332,11.534 19.314,11.534 C19.314,11.516 19.314,11.498 19.314,11.479 C19.295,11.479 19.277,11.479 19.259,11.479 C19.259,11.461 19.259,11.443 19.259,11.425 C19.240,11.425 19.222,11.425 19.204,11.425 C19.204,11.406 19.204,11.388 19.204,11.369 C19.185,11.369 19.167,11.369 19.149,11.369 C19.149,11.351 19.149,11.333 19.149,11.315 C19.130,11.315 19.112,11.315 19.094,11.315 C19.094,11.296 19.094,11.278 19.094,11.260 C19.075,11.260 19.057,11.260 19.039,11.260 C19.039,11.241 19.039,11.223 19.039,11.205 C19.020,11.205 19.002,11.205 18.984,11.205 C18.984,11.186 18.984,11.168 18.984,11.150 C18.965,11.150 18.947,11.150 18.929,11.150 C18.929,11.131 18.929,11.113 18.929,11.095 C18.910,11.095 18.892,11.095 18.874,11.095 C18.874,11.076 18.874,11.058 18.874,11.040 C18.855,11.040 18.837,11.040 18.818,11.040 C18.818,11.021 18.818,11.003 18.818,10.985 C18.800,10.985 18.782,10.985 18.763,10.985 C18.763,10.966 18.763,10.948 18.763,10.930 C18.745,10.930 18.727,10.930 18.708,10.930 C18.708,10.911 18.708,10.893 18.708,10.875 C18.690,10.875 18.672,10.875 18.653,10.875 C18.653,10.857 18.653,10.838 18.653,10.820 C18.635,10.820 18.617,10.820 18.598,10.820 C18.598,10.802 18.598,10.783 18.598,10.765 C18.580,10.765 18.562,10.765 18.543,10.765 C18.543,10.746 18.543,10.728 18.543,10.710 C18.525,10.710 18.507,10.710 18.488,10.710 C18.488,10.692 18.488,10.673 18.488,10.655 C18.470,10.655 18.452,10.655 18.433,10.655 C18.433,10.637 18.433,10.618 18.433,10.600 C18.415,10.600 18.396,10.600 18.378,10.600 C18.378,10.582 18.378,10.563 18.378,10.545 C18.360,10.545 18.341,10.545 18.323,10.545 C18.323,10.527 18.323,10.508 18.323,10.490 C18.305,10.490 18.286,10.490 18.268,10.490 C18.268,10.472 18.268,10.453 18.268,10.435 C18.250,10.435 18.231,10.435 18.213,10.435 C18.213,10.417 18.213,10.398 18.213,10.380 C18.195,10.380 18.176,10.380 18.158,10.380 C18.158,10.362 18.158,10.343 18.158,10.325 C18.140,10.325 18.121,10.325 18.103,10.325 C18.103,10.307 18.103,10.288 18.103,10.270 C18.085,10.270 18.066,10.270 18.048,10.270 C18.048,10.252 18.048,10.233 18.048,10.215 C18.030,10.215 18.011,10.215 17.993,10.215 C17.993,10.197 17.993,10.178 17.993,10.160 C17.975,10.160 17.956,10.160 17.938,10.160 C17.938,10.142 17.938,10.124 17.938,10.105 C17.919,10.105 17.901,10.105 17.883,10.105 C17.883,10.087 17.883,10.069 17.883,10.050 C17.864,10.050 17.846,10.050 17.828,10.050 C17.828,10.032 17.828,10.014 17.828,9.995 C17.809,9.995 17.791,9.995 17.773,9.995 C17.773,9.977 17.773,9.959 17.773,9.940 C17.754,9.940 17.736,9.940 17.718,9.940 C17.718,9.922 17.718,9.904 17.718,9.885 C17.699,9.885 17.681,9.885 17.663,9.885 C17.663,9.867 17.663,9.849 17.663,9.830 C17.644,9.830 17.626,9.830 17.608,9.830 C17.608,9.812 17.608,9.794 17.608,9.775 C17.589,9.775 17.571,9.775 17.553,9.775 C17.553,9.757 17.553,9.739 17.553,9.721 C17.534,9.721 17.516,9.721 17.498,9.721 C17.498,9.702 17.498,9.684 17.498,9.666 C17.479,9.666 17.461,9.666 17.442,9.666 C17.442,9.647 17.442,9.629 17.442,9.610 C17.424,9.610 17.406,9.610 17.387,9.610 C17.387,9.592 17.387,9.574 17.387,9.556 C17.369,9.556 17.351,9.556 17.332,9.556 C17.332,9.537 17.332,9.519 17.332,9.501 C17.314,9.501 17.296,9.501 17.277,9.501 C17.277,9.482 17.277,9.464 17.277,9.445 C17.259,9.445 17.241,9.445 17.222,9.445 C17.222,9.427 17.222,9.409 17.222,9.391 C17.204,9.391 17.186,9.391 17.167,9.391 C17.167,9.372 17.167,9.354 17.167,9.336 C17.149,9.336 17.131,9.336 17.112,9.336 C17.112,9.317 17.112,9.299 17.112,9.281 C17.094,9.281 17.076,9.281 17.057,9.281 C17.057,9.262 17.057,9.244 17.057,9.226 C17.039,9.226 17.020,9.226 17.002,9.226 C17.002,9.207 17.002,9.189 17.002,9.171 C16.984,9.171 16.965,9.171 16.947,9.171 C16.947,9.152 16.947,9.134 16.947,9.116 C16.929,9.116 16.910,9.116 16.892,9.116 C16.892,9.097 16.892,9.079 16.892,9.061 C16.874,9.061 16.855,9.061 16.837,9.061 C16.837,9.043 16.837,9.024 16.837,9.006 C16.819,9.006 16.800,9.006 16.782,9.006 C16.782,8.987 16.782,8.969 16.782,8.951 C16.764,8.951 16.745,8.951 16.727,8.951 C16.727,8.933 16.727,8.914 16.727,8.896 C16.709,8.896 16.690,8.896 16.672,8.896 C16.672,8.878 16.672,8.859 16.672,8.841 C16.654,8.841 16.635,8.841 16.617,8.841 C16.617,8.823 16.617,8.804 16.617,8.786 C16.599,8.786 16.580,8.786 16.562,8.786 C16.562,8.768 16.562,8.749 16.562,8.731 C16.543,8.731 16.525,8.731 16.507,8.731 C16.507,8.713 16.507,8.694 16.507,8.676 C16.488,8.676 16.470,8.676 16.452,8.676 C16.452,8.658 16.452,8.639 16.452,8.621 C16.433,8.621 16.415,8.621 16.397,8.621 C16.397,8.603 16.397,8.585 16.397,8.566 C16.378,8.566 16.360,8.566 16.342,8.566 C16.342,8.548 16.342,8.529 16.342,8.511 C16.323,8.511 16.305,8.511 16.287,8.511 C16.287,8.493 16.287,8.475 16.287,8.456 C16.268,8.456 16.250,8.456 16.232,8.456 C16.232,8.438 16.232,8.420 16.232,8.401 C16.213,8.401 16.195,8.401 16.176,8.401 C16.176,8.383 16.176,8.365 16.176,8.346 C16.158,8.346 16.140,8.346 16.121,8.346 C16.121,8.328 16.121,8.310 16.121,8.291 C16.103,8.291 16.085,8.291 16.066,8.291 C16.066,8.273 16.066,8.255 16.066,8.236 C16.048,8.236 16.030,8.236 16.011,8.236 C16.011,8.218 16.011,8.200 16.011,8.181 C15.993,8.181 15.975,8.181 15.956,8.181 C15.956,8.163 15.956,8.145 15.956,8.126 C15.938,8.126 15.920,8.126 15.901,8.126 C15.901,8.108 15.901,8.090 15.901,8.071 C15.883,8.071 15.865,8.071 15.846,8.071 C15.846,8.053 15.846,8.035 15.846,8.016 C15.828,8.016 15.810,8.016 15.791,8.016 C15.791,7.998 15.791,7.980 15.791,7.962 C15.773,7.962 15.755,7.962 15.736,7.962 C15.736,7.943 15.736,7.925 15.736,7.907 C15.718,7.907 15.699,7.907 15.681,7.907 C15.681,7.888 15.681,7.870 15.681,7.852 C15.663,7.852 15.644,7.852 15.626,7.852 C15.626,7.833 15.626,7.815 15.626,7.797 C15.608,7.797 15.589,7.797 15.571,7.797 C15.571,7.778 15.571,7.760 15.571,7.742 C15.553,7.742 15.534,7.742 15.516,7.742 C15.516,7.723 15.516,7.705 15.516,7.687 C15.498,7.687 15.479,7.687 15.461,7.687 C15.461,7.668 15.461,7.650 15.461,7.632 C15.443,7.632 15.424,7.632 15.406,7.632 C15.406,7.613 15.406,7.595 15.406,7.577 C15.388,7.577 15.369,7.577 15.351,7.577 C15.351,7.558 15.351,7.540 15.351,7.522 C15.333,7.522 15.314,7.522 15.296,7.522 C15.296,7.503 15.296,7.485 15.296,7.467 C15.277,7.467 15.259,7.467 15.241,7.467 C15.241,7.449 15.241,7.430 15.241,7.412 C15.222,7.412 15.204,7.412 15.186,7.412 C15.186,7.393 15.186,7.375 15.186,7.357 C15.167,7.357 15.149,7.357 15.131,7.357 C15.131,7.338 15.131,7.320 15.131,7.302 C15.112,7.302 15.094,7.302 15.076,7.302 C15.076,7.284 15.076,7.265 15.076,7.247 C15.057,7.247 15.039,7.247 15.021,7.247 C15.021,7.229 15.021,7.210 15.021,7.192 C15.002,7.192 14.984,7.192 14.966,7.192 C14.966,7.174 14.966,7.155 14.966,7.137 C14.947,7.137 14.929,7.137 14.911,7.137 C14.911,7.119 14.911,7.100 14.911,7.082 C14.892,7.082 14.874,7.082 14.856,7.082 C14.856,7.064 14.856,7.045 14.856,7.027 C14.837,7.027 14.819,7.027 14.800,7.027 C14.800,7.009 14.800,6.990 14.800,6.972 C14.782,6.972 14.764,6.972 14.745,6.972 C14.745,6.954 14.745,6.936 14.745,6.917 C14.727,6.917 14.709,6.917 14.690,6.917 C14.690,6.899 14.690,6.881 14.690,6.862 C14.672,6.862 14.654,6.862 14.635,6.862 C14.635,6.844 14.635,6.826 14.635,6.807 C14.617,6.807 14.599,6.807 14.580,6.807 C14.580,6.789 14.580,6.771 14.580,6.752 C14.562,6.752 14.544,6.752 14.525,6.752 C14.525,6.734 14.525,6.716 14.525,6.697 C14.507,6.697 14.489,6.697 14.470,6.697 C14.470,6.679 14.470,6.661 14.470,6.642 C14.452,6.642 14.433,6.642 14.415,6.642 C14.415,6.624 14.415,6.606 14.415,6.587 C14.397,6.587 14.378,6.587 14.360,6.587 C14.360,6.569 14.360,6.551 14.360,6.532 C14.342,6.532 14.323,6.532 14.305,6.532 C14.305,6.514 14.305,6.496 14.305,6.477 C14.287,6.477 14.268,6.477 14.250,6.477 C14.250,6.459 14.250,6.441 14.250,6.422 C14.232,6.422 14.213,6.422 14.195,6.422 C14.195,6.404 14.195,6.386 14.195,6.367 C14.177,6.367 14.158,6.367 14.140,6.367 C14.140,6.349 14.140,6.331 14.140,6.312 C14.122,6.312 14.103,6.312 14.085,6.312 C14.085,6.294 14.085,6.276 14.085,6.257 C14.067,6.257 14.048,6.257 14.030,6.257 C14.030,6.239 14.030,6.221 14.030,6.203 C14.012,6.203 13.993,6.203 13.975,6.203 C13.975,6.184 13.975,6.166 13.975,6.148 C13.956,6.148 13.938,6.148 13.920,6.148 C13.920,6.129 13.920,6.111 13.920,6.093 C13.901,6.093 13.883,6.093 13.865,6.093 C13.865,6.074 13.865,6.056 13.865,6.038 C13.846,6.038 13.828,6.038 13.810,6.038 C13.810,6.019 13.810,6.001 13.810,5.983 C13.791,5.983 13.773,5.983 13.755,5.983 C13.755,5.964 13.755,5.946 13.755,5.928 C13.736,5.928 13.718,5.928 13.700,5.928 C13.700,5.909 13.700,5.891 13.700,5.873 C13.681,5.873 13.663,5.873 13.645,5.873 C13.645,5.855 13.645,5.836 13.645,5.818 C13.626,5.818 13.608,5.818 13.590,5.818 C13.590,5.799 13.590,5.781 13.590,5.763 C13.571,5.763 13.553,5.763 13.534,5.763 C13.534,5.744 13.534,5.726 13.534,5.708 C13.516,5.708 13.498,5.708 13.479,5.708 C13.479,5.690 13.479,5.671 13.479,5.653 C13.461,5.653 13.443,5.653 13.424,5.653 C13.424,5.635 13.424,5.616 13.424,5.598 C13.406,5.598 13.388,5.598 13.369,5.598 C13.369,5.580 13.369,5.561 13.369,5.543 C13.351,5.543 13.333,5.543 13.314,5.543 C13.314,5.525 13.314,5.506 13.314,5.488 C13.296,5.488 13.278,5.488 13.259,5.488 C13.259,5.470 13.259,5.451 13.259,5.433 C13.241,5.433 13.223,5.433 13.204,5.433 C13.204,5.415 13.204,5.396 13.204,5.378 C13.186,5.378 13.168,5.378 13.149,5.378 C13.149,5.360 13.149,5.341 13.149,5.323 C13.131,5.323 13.113,5.323 13.094,5.323 C13.094,5.305 13.094,5.286 13.094,5.268 C13.076,5.268 13.057,5.268 13.039,5.268 C13.039,5.250 13.039,5.232 13.039,5.213 C13.021,5.213 13.002,5.213 12.984,5.213 C12.984,5.195 12.984,5.176 12.984,5.158 C12.966,5.158 12.947,5.158 12.929,5.158 C12.929,5.140 12.929,5.122 12.929,5.103 C12.911,5.103 12.892,5.103 12.874,5.103 C12.874,5.085 12.874,5.067 12.874,5.048 C12.856,5.048 12.837,5.048 12.819,5.048 C12.819,5.030 12.819,5.012 12.819,4.993 C12.801,4.993 12.782,4.993 12.764,4.993 C12.764,4.975 12.764,4.957 12.764,4.938 C12.746,4.938 12.727,4.938 12.709,4.938 C12.709,4.920 12.709,4.902 12.709,4.883 C12.691,4.883 12.672,4.883 12.654,4.883 C12.654,4.865 12.654,4.847 12.654,4.828 C12.636,4.828 12.617,4.828 12.599,4.828 C12.599,4.810 12.599,4.792 12.599,4.773 C12.580,4.773 12.562,4.773 12.544,4.773 C12.544,4.755 12.544,4.737 12.544,4.718 C12.525,4.718 12.507,4.718 12.489,4.718 C12.489,4.700 12.489,4.682 12.489,4.664 C12.381,4.643 12.376,4.644 12.269,4.664 C12.269,4.682 12.269,4.700 12.269,4.718 C12.250,4.718 12.232,4.718 12.213,4.718 C12.213,4.737 12.213,4.755 12.213,4.773 C12.195,4.773 12.177,4.773 12.158,4.773 C12.158,4.792 12.158,4.810 12.158,4.828 C12.140,4.828 12.122,4.828 12.103,4.828 C12.103,4.847 12.103,4.865 12.103,4.883 C12.085,4.883 12.067,4.883 12.048,4.883 C12.048,4.902 12.048,4.920 12.048,4.938 C12.030,4.938 12.012,4.938 11.993,4.938 C11.993,4.957 11.993,4.975 11.993,4.993 C11.975,4.993 11.957,4.993 11.938,4.993 C11.938,5.012 11.938,5.030 11.938,5.048 C11.920,5.048 11.902,5.048 11.883,5.048 C11.883,5.067 11.883,5.085 11.883,5.103 C11.865,5.103 11.847,5.103 11.828,5.103 C11.828,5.122 11.828,5.140 11.828,5.158 C11.810,5.158 11.792,5.158 11.773,5.158 C11.773,5.176 11.773,5.195 11.773,5.213 C11.755,5.213 11.736,5.213 11.718,5.213 C11.718,5.232 11.718,5.250 11.718,5.268 C11.700,5.268 11.681,5.268 11.663,5.268 C11.663,5.286 11.663,5.305 11.663,5.323 C11.645,5.323 11.626,5.323 11.608,5.323 C11.608,5.341 11.608,5.360 11.608,5.378 C11.590,5.378 11.571,5.378 11.553,5.378 C11.553,5.396 11.553,5.415 11.553,5.433 C11.535,5.433 11.516,5.433 11.498,5.433 C11.498,5.451 11.498,5.470 11.498,5.488 C11.480,5.488 11.461,5.488 11.443,5.488 C11.443,5.506 11.443,5.525 11.443,5.543 C11.425,5.543 11.406,5.543 11.388,5.543 C11.388,5.561 11.388,5.580 11.388,5.598 C11.370,5.598 11.351,5.598 11.333,5.598 C11.333,5.616 11.333,5.635 11.333,5.653 C11.314,5.653 11.296,5.653 11.278,5.653 C11.278,5.671 11.278,5.690 11.278,5.708 C11.259,5.708 11.241,5.708 11.223,5.708 C11.223,5.726 11.223,5.744 11.223,5.763 C11.204,5.763 11.186,5.763 11.168,5.763 C11.168,5.781 11.168,5.799 11.168,5.818 C11.149,5.818 11.131,5.818 11.113,5.818 C11.113,5.836 11.113,5.855 11.113,5.873 C11.094,5.873 11.076,5.873 11.058,5.873 C11.058,5.891 11.058,5.909 11.058,5.928 C11.039,5.928 11.021,5.928 11.003,5.928 C11.003,5.946 11.003,5.964 11.003,5.983 C10.984,5.983 10.966,5.983 10.948,5.983 C10.948,6.001 10.948,6.019 10.948,6.038 C10.929,6.038 10.911,6.038 10.893,6.038 C10.893,6.056 10.893,6.074 10.893,6.093 C10.874,6.093 10.856,6.093 10.837,6.093 C10.837,6.111 10.837,6.129 10.837,6.148 C10.819,6.148 10.801,6.148 10.782,6.148 C10.782,6.166 10.782,6.184 10.782,6.203 C10.764,6.203 10.746,6.203 10.727,6.203 C10.727,6.221 10.727,6.239 10.727,6.257 C10.709,6.257 10.691,6.257 10.672,6.257 C10.672,6.276 10.672,6.294 10.672,6.312 C10.654,6.312 10.636,6.312 10.617,6.312 C10.617,6.331 10.617,6.349 10.617,6.367 C10.599,6.367 10.581,6.367 10.562,6.367 C10.562,6.386 10.562,6.404 10.562,6.422 C10.544,6.422 10.526,6.422 10.507,6.422 C10.507,6.441 10.507,6.459 10.507,6.477 C10.489,6.477 10.470,6.477 10.452,6.477 C10.452,6.496 10.452,6.514 10.452,6.532 C10.434,6.532 10.415,6.532 10.397,6.532 C10.397,6.551 10.397,6.569 10.397,6.587 C10.379,6.587 10.360,6.587 10.342,6.587 C10.342,6.606 10.342,6.624 10.342,6.642 C10.324,6.642 10.305,6.642 10.287,6.642 C10.287,6.661 10.287,6.679 10.287,6.697 C10.269,6.697 10.250,6.697 10.232,6.697 C10.232,6.716 10.232,6.734 10.232,6.752 C10.214,6.752 10.195,6.752 10.177,6.752 C10.177,6.771 10.177,6.789 10.177,6.807 C10.159,6.807 10.140,6.807 10.122,6.807 C10.122,6.826 10.122,6.844 10.122,6.862 C10.104,6.862 10.085,6.862 10.067,6.862 C10.067,6.881 10.067,6.899 10.067,6.917 C10.049,6.917 10.030,6.917 10.012,6.917 C10.012,6.936 10.012,6.954 10.012,6.972 C9.993,6.972 9.975,6.972 9.957,6.972 C9.957,6.990 9.957,7.009 9.957,7.027 C9.938,7.027 9.920,7.027 9.902,7.027 C9.902,7.045 9.902,7.064 9.902,7.082 C9.883,7.082 9.865,7.082 9.847,7.082 C9.847,7.100 9.847,7.119 9.847,7.137 C9.828,7.137 9.810,7.137 9.792,7.137 C9.792,7.155 9.792,7.174 9.792,7.192 C9.773,7.192 9.755,7.192 9.737,7.192 C9.737,7.210 9.737,7.229 9.737,7.247 C9.718,7.247 9.700,7.247 9.682,7.247 C9.682,7.265 9.682,7.284 9.682,7.302 C9.663,7.302 9.645,7.302 9.627,7.302 C9.627,7.320 9.627,7.338 9.627,7.357 C9.608,7.357 9.590,7.357 9.571,7.357 C9.571,7.375 9.571,7.393 9.571,7.412 C9.553,7.412 9.535,7.412 9.516,7.412 C9.516,7.430 9.516,7.449 9.516,7.467 C9.498,7.467 9.480,7.467 9.461,7.467 C9.461,7.485 9.461,7.503 9.461,7.522 C9.443,7.522 9.425,7.522 9.406,7.522 C9.406,7.540 9.406,7.558 9.406,7.577 C9.388,7.577 9.370,7.577 9.351,7.577 C9.351,7.595 9.351,7.613 9.351,7.632 C9.333,7.632 9.315,7.632 9.296,7.632 C9.296,7.650 9.296,7.668 9.296,7.687 C9.278,7.687 9.260,7.687 9.241,7.687 C9.241,7.705 9.241,7.723 9.241,7.742 C9.223,7.742 9.205,7.742 9.186,7.742 C9.186,7.760 9.186,7.778 9.186,7.797 C9.168,7.797 9.150,7.797 9.131,7.797 C9.131,7.815 9.131,7.833 9.131,7.852 C9.113,7.852 9.094,7.852 9.076,7.852 C9.076,7.870 9.076,7.888 9.076,7.907 C9.058,7.907 9.039,7.907 9.021,7.907 C9.021,7.925 9.021,7.943 9.021,7.962 C9.003,7.962 8.984,7.962 8.966,7.962 C8.966,7.980 8.966,7.998 8.966,8.016 C8.948,8.016 8.929,8.016 8.911,8.016 C8.911,8.035 8.911,8.053 8.911,8.071 C8.893,8.071 8.874,8.071 8.856,8.071 C8.856,8.090 8.856,8.108 8.856,8.126 C8.838,8.126 8.819,8.126 8.801,8.126 C8.801,8.145 8.801,8.163 8.801,8.181 C8.783,8.181 8.764,8.181 8.746,8.181 C8.746,8.200 8.746,8.218 8.746,8.236 C8.728,8.236 8.709,8.236 8.691,8.236 C8.691,8.255 8.691,8.273 8.691,8.291 C8.673,8.291 8.654,8.291 8.636,8.291 C8.636,8.310 8.636,8.328 8.636,8.346 C8.617,8.346 8.599,8.346 8.581,8.346 C8.581,8.365 8.581,8.383 8.581,8.401 C8.562,8.401 8.544,8.401 8.526,8.401 C8.526,8.420 8.526,8.438 8.526,8.456 C8.507,8.456 8.489,8.456 8.471,8.456 C8.471,8.475 8.471,8.493 8.471,8.511 C8.452,8.511 8.434,8.511 8.416,8.511 C8.416,8.529 8.416,8.548 8.416,8.566 C8.397,8.566 8.379,8.566 8.361,8.566 C8.361,8.585 8.361,8.603 8.361,8.621 C8.342,8.621 8.324,8.621 8.306,8.621 C8.306,8.639 8.306,8.658 8.306,8.676 C8.287,8.676 8.269,8.676 8.250,8.676 C8.250,8.694 8.250,8.713 8.250,8.731 C8.232,8.731 8.214,8.731 8.195,8.731 C8.195,8.749 8.195,8.768 8.195,8.786 C8.177,8.786 8.159,8.786 8.140,8.786 C8.140,8.804 8.140,8.823 8.140,8.841 C8.122,8.841 8.104,8.841 8.085,8.841 C8.085,8.859 8.085,8.878 8.085,8.896 C8.067,8.896 8.049,8.896 8.030,8.896 C8.030,8.914 8.030,8.933 8.030,8.951 C8.012,8.951 7.994,8.951 7.975,8.951 C7.975,8.969 7.975,8.987 7.975,9.006 C7.957,9.006 7.939,9.006 7.920,9.006 C7.920,9.024 7.920,9.043 7.920,9.061 C7.902,9.061 7.884,9.061 7.865,9.061 C7.865,9.079 7.865,9.097 7.865,9.116 C7.847,9.116 7.829,9.116 7.810,9.116 C7.810,9.134 7.810,9.152 7.810,9.171 C7.792,9.171 7.773,9.171 7.755,9.171 C7.755,9.189 7.755,9.207 7.755,9.226 C7.737,9.226 7.718,9.226 7.700,9.226 C7.700,9.244 7.700,9.262 7.700,9.281 C7.682,9.281 7.663,9.281 7.645,9.281 C7.645,9.299 7.645,9.317 7.645,9.336 C7.627,9.336 7.608,9.336 7.590,9.336 C7.590,9.354 7.590,9.372 7.590,9.391 C7.572,9.391 7.553,9.391 7.535,9.391 C7.535,9.409 7.535,9.427 7.535,9.445 C7.517,9.445 7.498,9.445 7.480,9.445 C7.480,9.464 7.480,9.482 7.480,9.501 C7.462,9.501 7.443,9.501 7.425,9.501 C7.425,9.519 7.425,9.537 7.425,9.556 C7.407,9.556 7.388,9.556 7.370,9.556 C7.370,9.574 7.370,9.592 7.370,9.610 C7.351,9.610 7.333,9.610 7.315,9.610 C7.315,9.629 7.315,9.647 7.315,9.666 C7.296,9.666 7.278,9.666 7.260,9.666 C7.260,9.684 7.260,9.702 7.260,9.721 C7.241,9.721 7.223,9.721 7.205,9.721 C7.205,9.739 7.205,9.757 7.205,9.775 C7.186,9.775 7.168,9.775 7.150,9.775 C7.150,9.794 7.150,9.812 7.150,9.830 C7.131,9.830 7.113,9.830 7.095,9.830 C7.095,9.849 7.095,9.867 7.095,9.885 C7.076,9.885 7.058,9.885 7.040,9.885 C7.040,9.904 7.040,9.922 7.040,9.940 C7.021,9.940 7.003,9.940 6.985,9.940 C6.985,9.959 6.985,9.977 6.985,9.995 C6.966,9.995 6.948,9.995 6.930,9.995 C6.930,10.014 6.930,10.032 6.930,10.050 C6.911,10.050 6.893,10.050 6.874,10.050 C6.874,10.069 6.874,10.087 6.874,10.105 C6.856,10.105 6.838,10.105 6.819,10.105 C6.819,10.124 6.819,10.142 6.819,10.160 C6.801,10.160 6.783,10.160 6.764,10.160 C6.764,10.178 6.764,10.197 6.764,10.215 C6.746,10.215 6.728,10.215 6.709,10.215 C6.709,10.233 6.709,10.252 6.709,10.270 C6.691,10.270 6.673,10.270 6.654,10.270 C6.654,10.288 6.654,10.307 6.654,10.325 C6.636,10.325 6.618,10.325 6.599,10.325 C6.599,10.343 6.599,10.362 6.599,10.380 C6.581,10.380 6.563,10.380 6.544,10.380 C6.544,10.398 6.544,10.417 6.544,10.435 C6.526,10.435 6.507,10.435 6.489,10.435 C6.489,10.453 6.489,10.472 6.489,10.490 C6.471,10.490 6.452,10.490 6.434,10.490 C6.434,10.508 6.434,10.527 6.434,10.545 C6.416,10.545 6.397,10.545 6.379,10.545 C6.379,10.563 6.379,10.582 6.379,10.600 C6.361,10.600 6.342,10.600 6.324,10.600 C6.324,10.618 6.324,10.637 6.324,10.655 C6.306,10.655 6.287,10.655 6.269,10.655 C6.269,10.673 6.269,10.692 6.269,10.710 C6.251,10.710 6.232,10.710 6.214,10.710 C6.214,10.728 6.214,10.746 6.214,10.765 C6.196,10.765 6.177,10.765 6.159,10.765 C6.159,10.783 6.159,10.802 6.159,10.820 C6.141,10.820 6.122,10.820 6.104,10.820 C6.104,10.838 6.104,10.857 6.104,10.875 C6.086,10.875 6.067,10.875 6.049,10.875 C6.049,10.893 6.049,10.911 6.049,10.930 C6.030,10.930 6.012,10.930 5.994,10.930 C5.994,10.948 5.994,10.966 5.994,10.985 C5.975,10.985 5.957,10.985 5.939,10.985 C5.939,11.003 5.939,11.021 5.939,11.040 C5.920,11.040 5.902,11.040 5.884,11.040 C5.884,11.058 5.884,11.076 5.884,11.095 C5.865,11.095 5.847,11.095 5.829,11.095 C5.829,11.113 5.829,11.131 5.829,11.150 C5.810,11.150 5.792,11.150 5.774,11.150 C5.774,11.168 5.774,11.186 5.774,11.205 C5.755,11.205 5.737,11.205 5.719,11.205 C5.719,11.223 5.719,11.241 5.719,11.260 C5.700,11.260 5.682,11.260 5.664,11.260 C5.664,11.278 5.664,11.296 5.664,11.315 C5.645,11.315 5.627,11.315 5.608,11.315 C5.608,11.333 5.608,11.351 5.608,11.369 C5.590,11.369 5.572,11.369 5.553,11.369 C5.553,11.388 5.553,11.406 5.553,11.425 C5.535,11.425 5.517,11.425 5.498,11.425 C5.498,11.443 5.498,11.461 5.498,11.479 C5.480,11.479 5.462,11.479 5.443,11.479 C5.443,11.498 5.443,11.516 5.443,11.534 C5.425,11.534 5.407,11.534 5.388,11.534 C5.388,11.553 5.388,11.571 5.388,11.589 C5.370,11.589 5.352,11.589 5.333,11.589 C5.333,11.608 5.333,11.626 5.333,11.644 C5.315,11.644 5.297,11.644 5.278,11.644 C5.278,11.663 5.278,11.681 5.278,11.699 C5.260,11.699 5.242,11.699 5.223,11.699 C5.223,11.718 5.223,11.736 5.223,11.754 C5.205,11.754 5.187,11.754 5.168,11.754 C5.168,11.773 5.168,11.791 5.168,11.809 C5.150,11.809 5.131,11.809 5.113,11.809 C5.113,11.827 5.113,11.846 5.113,11.864 C5.095,11.864 5.076,11.864 5.058,11.864 C5.058,11.882 5.058,11.901 5.058,11.919 C5.040,11.919 5.021,11.919 5.003,11.919 C5.003,11.937 5.003,11.956 5.003,11.974 C4.985,11.974 4.966,11.974 4.948,11.974 C4.948,11.992 4.948,12.011 4.948,12.029 C4.930,12.029 4.911,12.029 4.893,12.029 C4.893,12.047 4.893,12.066 4.893,12.084 C4.875,12.084 4.856,12.084 4.838,12.084 C4.838,12.102 4.838,12.121 4.838,12.139 C4.820,12.139 4.801,12.139 4.783,12.139 C4.783,12.157 4.783,12.176 4.783,12.194 C4.765,12.194 4.746,12.194 4.728,12.194 C4.728,12.212 4.728,12.231 4.728,12.249 C4.710,12.249 4.691,12.249 4.673,12.249 C4.673,12.267 4.673,12.286 4.673,12.304 C4.654,12.304 4.636,12.304 4.618,12.304 C4.618,12.322 4.618,12.341 4.618,12.359 C4.599,12.359 4.581,12.359 4.563,12.359 C4.563,12.377 4.563,12.395 4.563,12.414 C4.544,12.414 4.526,12.414 4.508,12.414 C4.508,12.432 4.508,12.450 4.508,12.469 C4.489,12.469 4.471,12.469 4.453,12.469 C4.453,12.487 4.453,12.505 4.453,12.524 C4.434,12.524 4.416,12.524 4.398,12.524 C4.398,12.542 4.398,12.560 4.398,12.579 C4.379,12.579 4.361,12.579 4.343,12.579 C4.343,12.597 4.343,12.615 4.343,12.634 C4.324,12.634 4.306,12.634 4.287,12.634 C4.287,12.652 4.287,12.670 4.287,12.689 C4.269,12.689 4.251,12.689 4.232,12.689 C4.232,12.707 4.232,12.725 4.232,12.744 C4.214,12.744 4.196,12.744 4.177,12.744 C4.177,12.762 4.177,12.780 4.177,12.799 C4.159,12.799 4.141,12.799 4.122,12.799 C4.122,12.817 4.122,12.835 4.122,12.854 C4.104,12.854 4.086,12.854 4.067,12.854 C4.067,12.872 4.067,12.890 4.067,12.909 C4.049,12.909 4.031,12.909 4.012,12.909 C4.012,12.927 4.012,12.945 4.012,12.963 C3.994,12.963 3.976,12.963 3.957,12.963 C3.957,12.982 3.957,13.000 3.957,13.018 C3.939,13.018 3.921,13.018 3.902,13.018 C3.902,13.037 3.902,13.055 3.902,13.073 C3.884,13.073 3.866,13.073 3.847,13.073 C3.847,13.092 3.847,13.110 3.847,13.128 C3.829,13.128 3.810,13.128 3.792,13.128 C3.792,13.147 3.792,13.165 3.792,13.183 C3.774,13.183 3.755,13.183 3.737,13.183 C3.737,13.202 3.737,13.220 3.737,13.238 C3.719,13.238 3.700,13.238 3.682,13.238 C3.682,13.257 3.682,13.275 3.682,13.293 C3.664,13.293 3.645,13.293 3.627,13.293 C3.627,13.312 3.627,13.330 3.627,13.348 C3.609,13.348 3.590,13.348 3.572,13.348 C3.572,13.366 3.572,13.385 3.572,13.403 C3.554,13.403 3.535,13.403 3.517,13.403 C3.517,13.422 3.517,13.440 3.517,13.458 C3.499,13.458 3.480,13.458 3.462,13.458 C3.462,13.476 3.462,13.495 3.462,13.513 C3.444,13.513 3.425,13.513 3.407,13.513 C3.407,13.531 3.407,13.550 3.407,13.568 C3.388,13.568 3.370,13.568 3.352,13.568 C3.352,13.586 3.352,13.605 3.352,13.623 C3.333,13.623 3.315,13.623 3.297,13.623 C3.297,13.641 3.297,13.660 3.297,13.678 C3.278,13.678 3.260,13.678 3.242,13.678 C3.242,13.696 3.242,13.715 3.242,13.733 C3.223,13.733 3.205,13.733 3.187,13.733 C3.187,13.751 3.187,13.770 3.187,13.788 C3.168,13.788 3.150,13.788 3.132,13.788 C3.132,13.806 3.132,13.825 3.132,13.843 C3.113,13.843 3.095,13.843 3.077,13.843 C3.077,13.861 3.077,13.880 3.077,13.898 C3.058,13.898 3.040,13.898 3.022,13.898 C3.022,13.916 3.022,13.935 3.022,13.953 C3.003,13.953 2.985,13.953 2.967,13.953 C2.967,13.971 2.967,13.990 2.967,14.008 C2.893,14.028 2.880,14.052 2.829,14.090 C2.829,14.099 2.829,14.109 2.829,14.118 C2.801,14.118 2.774,14.118 2.746,14.118 C2.737,14.136 2.728,14.154 2.719,14.173 C2.691,14.173 2.664,14.173 2.636,14.173 C2.627,14.191 2.618,14.209 2.609,14.228 C2.572,14.228 2.535,14.228 2.499,14.228 C2.499,14.237 2.499,14.246 2.499,14.255 C2.480,14.255 2.462,14.255 2.444,14.255 C2.444,14.264 2.444,14.274 2.444,14.283 C2.407,14.283 2.370,14.283 2.334,14.283 C2.334,14.292 2.334,14.301 2.334,14.310 C2.095,14.310 1.856,14.310 1.618,14.310 C1.618,14.301 1.618,14.292 1.618,14.283 C1.581,14.283 1.545,14.283 1.508,14.283 C1.508,14.274 1.508,14.264 1.508,14.255 C1.490,14.255 1.471,14.255 1.453,14.255 C1.453,14.246 1.453,14.237 1.453,14.228 C1.416,14.228 1.379,14.228 1.343,14.228 C1.334,14.209 1.324,14.191 1.315,14.173 C1.288,14.173 1.260,14.173 1.233,14.173 C1.224,14.154 1.214,14.136 1.205,14.118 C1.178,14.118 1.150,14.118 1.123,14.118 C1.123,14.109 1.123,14.099 1.123,14.090 C1.071,14.052 1.058,14.028 0.985,14.008 C0.985,13.990 0.985,13.971 0.985,13.953 C0.967,13.953 0.948,13.953 0.930,13.953 C0.930,13.935 0.930,13.916 0.930,13.898 C0.912,13.898 0.893,13.898 0.875,13.898 C0.875,13.880 0.875,13.861 0.875,13.843 C0.857,13.843 0.838,13.843 0.820,13.843 C0.820,13.825 0.820,13.806 0.820,13.788 C0.802,13.788 0.783,13.788 0.765,13.788 C0.745,13.715 0.721,13.702 0.682,13.651 C0.673,13.651 0.664,13.651 0.655,13.651 C0.655,13.623 0.655,13.596 0.655,13.568 C0.636,13.559 0.618,13.550 0.600,13.541 C0.600,13.513 0.600,13.486 0.600,13.458 C0.581,13.449 0.563,13.440 0.545,13.431 C0.545,13.394 0.545,13.357 0.545,13.321 C0.535,13.321 0.526,13.321 0.517,13.321 C0.517,13.302 0.517,13.284 0.517,13.266 C0.508,13.266 0.499,13.266 0.490,13.266 C0.490,13.229 0.490,13.192 0.490,13.156 C0.480,13.156 0.471,13.156 0.462,13.156 C0.462,12.899 0.462,12.643 0.462,12.386 C0.471,12.386 0.480,12.386 0.490,12.386 C0.490,12.350 0.490,12.313 0.490,12.276 C0.508,12.267 0.526,12.258 0.545,12.249 C0.545,12.221 0.545,12.194 0.545,12.166 C0.563,12.157 0.581,12.148 0.600,12.139 C0.600,12.112 0.600,12.084 0.600,12.056 C0.618,12.047 0.636,12.038 0.655,12.029 C0.655,12.002 0.655,11.974 0.655,11.947 C0.664,11.947 0.673,11.947 0.682,11.947 C0.721,11.895 0.745,11.882 0.765,11.809 Z"/>
</svg>