<svg 
 xmlns="http://www.w3.org/2000/svg"
 xmlns:xlink="http://www.w3.org/1999/xlink"
 width="38px" height="53px">
<path fill-rule="evenodd"  fill="rgb(248, 255, 254)"
 d="M31.072,4.247 C31.072,4.297 31.072,4.346 31.072,4.396 C31.123,4.396 31.174,4.396 31.224,4.396 C31.224,4.446 31.224,4.495 31.224,4.545 C31.275,4.545 31.325,4.545 31.376,4.545 C31.376,4.594 31.376,4.644 31.376,4.694 C31.427,4.694 31.477,4.694 31.528,4.694 C31.528,4.743 31.528,4.793 31.528,4.843 C31.578,4.843 31.629,4.843 31.680,4.843 C31.680,4.892 31.680,4.942 31.680,4.991 C31.730,4.991 31.781,4.991 31.831,4.991 C31.831,5.041 31.831,5.091 31.831,5.140 C31.882,5.140 31.933,5.140 31.983,5.140 C31.983,5.190 31.983,5.240 31.983,5.289 C32.034,5.289 32.085,5.289 32.135,5.289 C32.135,5.339 32.135,5.388 32.135,5.438 C32.186,5.438 32.236,5.438 32.287,5.438 C32.287,5.488 32.287,5.537 32.287,5.587 C32.338,5.587 32.388,5.587 32.439,5.587 C32.439,5.637 32.439,5.686 32.439,5.736 C32.489,5.736 32.540,5.736 32.591,5.736 C32.591,5.785 32.591,5.835 32.591,5.885 C32.641,5.885 32.692,5.885 32.743,5.885 C32.743,5.934 32.743,5.984 32.743,6.033 C32.793,6.033 32.844,6.033 32.894,6.033 C32.894,6.083 32.894,6.133 32.894,6.182 C32.945,6.182 32.996,6.182 33.046,6.182 C33.046,6.232 33.046,6.282 33.046,6.331 C33.097,6.331 33.147,6.331 33.198,6.331 C33.198,6.381 33.198,6.430 33.198,6.480 C33.249,6.480 33.299,6.480 33.350,6.480 C33.350,6.530 33.350,6.579 33.350,6.629 C33.400,6.629 33.451,6.629 33.502,6.629 C33.502,6.679 33.502,6.728 33.502,6.778 C33.794,6.953 33.772,7.116 33.957,7.373 C34.058,7.448 34.160,7.522 34.261,7.597 C34.261,7.646 34.261,7.696 34.261,7.745 C34.312,7.770 34.362,7.795 34.413,7.820 C34.413,7.869 34.413,7.919 34.413,7.969 C34.514,8.043 34.615,8.118 34.716,8.192 C34.716,8.266 34.716,8.341 34.716,8.415 C34.767,8.440 34.818,8.465 34.868,8.490 C34.894,8.589 34.919,8.688 34.944,8.788 C35.020,8.837 35.096,8.887 35.172,8.936 C35.172,9.011 35.172,9.085 35.172,9.160 C35.223,9.184 35.273,9.209 35.324,9.234 C35.349,9.333 35.374,9.433 35.400,9.532 C35.476,9.581 35.552,9.631 35.628,9.681 C35.628,9.755 35.628,9.829 35.628,9.904 C35.678,9.929 35.729,9.953 35.779,9.978 C35.779,10.053 35.779,10.127 35.779,10.202 C35.830,10.227 35.881,10.251 35.931,10.276 C35.931,10.350 35.931,10.425 35.931,10.499 C35.982,10.524 36.032,10.549 36.083,10.574 C36.083,10.648 36.083,10.723 36.083,10.797 C36.134,10.822 36.184,10.847 36.235,10.872 C36.235,10.946 36.235,11.020 36.235,11.095 C36.285,11.120 36.336,11.144 36.387,11.169 C36.437,11.392 36.488,11.616 36.538,11.839 C36.589,11.864 36.640,11.889 36.690,11.914 C36.690,12.013 36.690,12.112 36.690,12.211 C36.716,12.211 36.741,12.211 36.766,12.211 C36.766,12.261 36.766,12.311 36.766,12.360 C36.792,12.360 36.817,12.360 36.842,12.360 C36.842,12.435 36.842,12.509 36.842,12.583 C36.893,12.608 36.943,12.633 36.994,12.658 C36.994,12.757 36.994,12.856 36.994,12.956 C37.019,12.956 37.045,12.956 37.070,12.956 C37.070,13.005 37.070,13.055 37.070,13.105 C37.095,13.105 37.120,13.105 37.146,13.105 C37.171,13.303 37.196,13.501 37.222,13.700 C37.342,14.051 37.481,14.540 37.601,14.891 C37.601,14.990 37.601,15.089 37.601,15.188 C37.627,15.188 37.652,15.188 37.677,15.188 C37.677,15.337 37.677,15.486 37.677,15.635 C37.703,15.635 37.728,15.635 37.753,15.635 C37.779,15.809 37.804,15.983 37.829,16.156 C37.829,16.379 37.829,16.603 37.829,16.826 C37.854,16.826 37.880,16.826 37.905,16.826 C37.905,16.925 37.905,17.025 37.905,17.124 C37.930,17.124 37.956,17.124 37.981,17.124 C37.981,17.546 37.981,17.967 37.981,18.389 C37.981,19.437 38.078,20.779 37.829,21.590 C37.829,21.838 37.829,22.086 37.829,22.334 C37.804,22.334 37.779,22.334 37.753,22.334 C37.728,22.582 37.703,22.830 37.677,23.078 C37.652,23.078 37.627,23.078 37.601,23.078 C37.601,23.178 37.601,23.277 37.601,23.376 C37.576,23.376 37.551,23.376 37.525,23.376 C37.500,23.624 37.475,23.872 37.450,24.120 C37.424,24.120 37.399,24.120 37.374,24.120 C37.374,24.170 37.374,24.220 37.374,24.269 C37.348,24.269 37.323,24.269 37.298,24.269 C37.298,24.369 37.298,24.468 37.298,24.567 C37.272,24.567 37.247,24.567 37.222,24.567 C37.222,24.666 37.222,24.765 37.222,24.865 C37.196,24.865 37.171,24.865 37.146,24.865 C37.146,24.964 37.146,25.063 37.146,25.162 C37.095,25.187 37.045,25.212 36.994,25.237 C36.994,25.311 36.994,25.386 36.994,25.460 C36.969,25.460 36.943,25.460 36.918,25.460 C36.918,25.510 36.918,25.559 36.918,25.609 C36.893,25.609 36.867,25.609 36.842,25.609 C36.842,25.708 36.842,25.808 36.842,25.907 C36.817,25.907 36.792,25.907 36.766,25.907 C36.766,25.956 36.766,26.006 36.766,26.056 C36.741,26.056 36.716,26.056 36.690,26.056 C36.690,26.155 36.690,26.254 36.690,26.353 C36.640,26.378 36.589,26.403 36.538,26.428 C36.538,26.502 36.538,26.577 36.538,26.651 C36.513,26.651 36.488,26.651 36.463,26.651 C36.463,26.701 36.463,26.750 36.463,26.800 C36.437,26.800 36.412,26.800 36.387,26.800 C36.387,26.899 36.387,26.998 36.387,27.098 C36.336,27.122 36.285,27.147 36.235,27.172 C36.235,27.246 36.235,27.321 36.235,27.395 C36.184,27.420 36.134,27.445 36.083,27.470 C36.083,27.544 36.083,27.619 36.083,27.693 C36.032,27.718 35.982,27.743 35.931,27.768 C35.931,27.842 35.931,27.916 35.931,27.991 C35.881,28.016 35.830,28.040 35.779,28.065 C35.779,28.140 35.779,28.214 35.779,28.289 C35.729,28.313 35.678,28.338 35.628,28.363 C35.628,28.437 35.628,28.512 35.628,28.586 C35.552,28.636 35.476,28.685 35.400,28.735 C35.374,28.834 35.349,28.934 35.324,29.033 C35.273,29.058 35.223,29.082 35.172,29.107 C35.172,29.182 35.172,29.256 35.172,29.331 C35.096,29.380 35.020,29.430 34.944,29.479 C34.919,29.579 34.894,29.678 34.868,29.777 C34.792,29.827 34.716,29.876 34.641,29.926 C34.615,30.025 34.590,30.124 34.565,30.224 C34.489,30.273 34.413,30.323 34.337,30.373 C34.312,30.472 34.286,30.571 34.261,30.670 C34.160,30.745 34.058,30.819 33.957,30.894 C33.957,30.943 33.957,30.993 33.957,31.043 C33.907,31.067 33.856,31.092 33.805,31.117 C33.805,31.167 33.805,31.216 33.805,31.266 C33.729,31.315 33.654,31.365 33.578,31.415 C33.552,31.514 33.527,31.613 33.502,31.712 C33.426,31.762 33.350,31.812 33.274,31.861 C33.249,31.960 33.223,32.060 33.198,32.159 C33.122,32.209 33.046,32.258 32.970,32.308 C32.945,32.407 32.920,32.506 32.894,32.606 C32.818,32.655 32.743,32.705 32.667,32.754 C32.641,32.854 32.616,32.953 32.591,33.052 C32.515,33.102 32.439,33.151 32.363,33.201 C32.338,33.300 32.312,33.400 32.287,33.499 C32.211,33.548 32.135,33.598 32.059,33.648 C32.034,33.747 32.009,33.846 31.983,33.945 C31.907,33.995 31.831,34.045 31.756,34.094 C31.730,34.194 31.705,34.293 31.680,34.392 C31.629,34.417 31.578,34.442 31.528,34.466 C31.528,34.541 31.528,34.615 31.528,34.690 C31.452,34.739 31.376,34.789 31.300,34.839 C31.275,34.938 31.249,35.037 31.224,35.136 C31.148,35.186 31.072,35.236 30.996,35.285 C30.971,35.384 30.946,35.484 30.920,35.583 C30.845,35.633 30.769,35.682 30.693,35.732 C30.667,35.831 30.642,35.930 30.617,36.029 C30.541,36.079 30.465,36.129 30.389,36.178 C30.364,36.278 30.338,36.377 30.313,36.476 C30.237,36.526 30.161,36.575 30.085,36.625 C30.060,36.724 30.035,36.823 30.009,36.923 C29.959,36.947 29.908,36.972 29.858,36.997 C29.858,37.072 29.858,37.146 29.858,37.220 C29.782,37.270 29.706,37.320 29.630,37.369 C29.604,37.468 29.579,37.568 29.554,37.667 C29.478,37.717 29.402,37.766 29.326,37.816 C29.301,37.915 29.276,38.014 29.250,38.114 C29.200,38.138 29.149,38.163 29.098,38.188 C29.098,38.262 29.098,38.337 29.098,38.411 C29.023,38.461 28.947,38.511 28.871,38.560 C28.845,38.659 28.820,38.759 28.795,38.858 C28.719,38.907 28.643,38.957 28.567,39.007 C28.567,39.056 28.567,39.106 28.567,39.156 C28.542,39.156 28.516,39.156 28.491,39.156 C28.491,39.205 28.491,39.255 28.491,39.305 C28.415,39.354 28.339,39.404 28.263,39.453 C28.238,39.553 28.213,39.652 28.187,39.751 C28.137,39.776 28.086,39.801 28.035,39.825 C28.035,39.900 28.035,39.974 28.035,40.049 C27.960,40.098 27.884,40.148 27.808,40.198 C27.782,40.297 27.757,40.396 27.732,40.495 C27.656,40.545 27.580,40.595 27.504,40.644 C27.479,40.743 27.453,40.843 27.428,40.942 C27.378,40.967 27.327,40.992 27.276,41.016 C27.276,41.091 27.276,41.165 27.276,41.240 C27.200,41.289 27.125,41.339 27.049,41.388 C27.023,41.488 26.998,41.587 26.973,41.686 C26.897,41.736 26.821,41.785 26.745,41.835 C26.720,41.934 26.694,42.034 26.669,42.133 C26.618,42.158 26.568,42.182 26.517,42.207 C26.517,42.282 26.517,42.356 26.517,42.431 C26.441,42.480 26.365,42.530 26.289,42.579 C26.264,42.679 26.239,42.778 26.213,42.877 C26.163,42.902 26.112,42.927 26.062,42.952 C26.062,43.026 26.062,43.101 26.062,43.175 C25.986,43.224 25.910,43.274 25.834,43.324 C25.809,43.423 25.783,43.522 25.758,43.621 C25.682,43.671 25.606,43.721 25.530,43.770 C25.505,43.870 25.480,43.969 25.454,44.068 C25.404,44.093 25.353,44.118 25.302,44.143 C25.302,44.217 25.302,44.291 25.302,44.366 C25.227,44.415 25.151,44.465 25.075,44.515 C25.049,44.614 25.024,44.713 24.999,44.812 C24.923,44.862 24.847,44.912 24.771,44.961 C24.746,45.060 24.720,45.160 24.695,45.259 C24.644,45.284 24.594,45.309 24.543,45.333 C24.543,45.408 24.543,45.482 24.543,45.557 C24.467,45.606 24.391,45.656 24.315,45.705 C24.290,45.805 24.265,45.904 24.240,46.003 C24.189,46.028 24.138,46.053 24.088,46.078 C24.088,46.152 24.088,46.227 24.088,46.301 C24.012,46.351 23.936,46.400 23.860,46.450 C23.835,46.549 23.809,46.648 23.784,46.748 C23.708,46.797 23.632,46.847 23.556,46.896 C23.531,46.996 23.506,47.095 23.480,47.194 C23.430,47.219 23.379,47.244 23.329,47.269 C23.329,47.343 23.329,47.418 23.329,47.492 C23.253,47.542 23.177,47.591 23.101,47.641 C23.076,47.740 23.050,47.839 23.025,47.939 C22.974,47.963 22.924,47.988 22.873,48.013 C22.873,48.087 22.873,48.162 22.873,48.236 C22.797,48.286 22.721,48.336 22.645,48.385 C22.620,48.484 22.595,48.584 22.569,48.683 C22.493,48.732 22.417,48.782 22.342,48.832 C22.316,48.931 22.291,49.030 22.266,49.130 C22.215,49.154 22.164,49.179 22.114,49.204 C22.114,49.278 22.114,49.353 22.114,49.427 C22.038,49.477 21.962,49.526 21.886,49.576 C21.861,49.675 21.835,49.775 21.810,49.874 C21.760,49.899 21.709,49.923 21.658,49.948 C21.658,50.023 21.658,50.097 21.658,50.171 C21.582,50.221 21.506,50.271 21.431,50.320 C21.405,50.420 21.380,50.519 21.355,50.618 C21.304,50.643 21.253,50.668 21.203,50.692 C21.203,50.767 21.203,50.841 21.203,50.916 C21.127,50.965 21.051,51.015 20.975,51.065 C20.950,51.164 20.924,51.263 20.899,51.362 C20.848,51.387 20.798,51.412 20.747,51.437 C20.747,51.511 20.747,51.586 20.747,51.660 C20.671,51.710 20.595,51.759 20.519,51.809 C20.494,51.908 20.469,52.008 20.444,52.107 C20.418,52.107 20.393,52.107 20.368,52.107 C20.259,52.239 20.195,52.285 20.140,52.479 C20.089,52.479 20.039,52.479 19.988,52.479 C19.988,52.528 19.988,52.578 19.988,52.628 C19.784,52.685 19.755,52.749 19.609,52.851 C19.609,52.876 19.609,52.901 19.609,52.925 C19.305,52.950 19.001,52.975 18.697,53.000 C18.697,52.975 18.697,52.950 18.697,52.925 C18.596,52.925 18.495,52.925 18.394,52.925 C18.394,52.901 18.394,52.876 18.394,52.851 C18.248,52.749 18.219,52.684 18.014,52.628 C18.014,52.578 18.014,52.528 18.014,52.479 C17.964,52.479 17.913,52.479 17.862,52.479 C17.814,52.284 17.741,52.238 17.635,52.107 C17.609,52.107 17.584,52.107 17.559,52.107 C17.533,52.008 17.508,51.908 17.483,51.809 C17.407,51.759 17.331,51.710 17.255,51.660 C17.255,51.586 17.255,51.511 17.255,51.437 C17.204,51.412 17.154,51.387 17.103,51.362 C17.078,51.263 17.052,51.164 17.027,51.065 C16.951,51.015 16.875,50.965 16.799,50.916 C16.799,50.841 16.799,50.767 16.799,50.692 C16.749,50.668 16.698,50.643 16.648,50.618 C16.622,50.519 16.597,50.420 16.572,50.320 C16.496,50.271 16.420,50.221 16.344,50.171 C16.319,50.072 16.293,49.973 16.268,49.874 C16.192,49.824 16.116,49.775 16.040,49.725 C16.040,49.650 16.040,49.576 16.040,49.502 C15.990,49.477 15.939,49.452 15.888,49.427 C15.863,49.328 15.838,49.229 15.813,49.130 C15.737,49.080 15.661,49.030 15.585,48.981 C15.585,48.906 15.585,48.832 15.585,48.757 C15.534,48.732 15.483,48.708 15.433,48.683 C15.408,48.584 15.382,48.484 15.357,48.385 C15.281,48.336 15.205,48.286 15.129,48.236 C15.104,48.137 15.079,48.038 15.053,47.939 C14.977,47.889 14.901,47.839 14.826,47.790 C14.826,47.715 14.826,47.641 14.826,47.566 C14.775,47.542 14.724,47.517 14.674,47.492 C14.648,47.393 14.623,47.293 14.598,47.194 C14.522,47.145 14.446,47.095 14.370,47.045 C14.370,46.971 14.370,46.896 14.370,46.822 C14.319,46.797 14.269,46.772 14.218,46.748 C14.193,46.648 14.168,46.549 14.142,46.450 C14.066,46.400 13.991,46.351 13.915,46.301 C13.889,46.202 13.864,46.103 13.839,46.003 C13.763,45.954 13.687,45.904 13.611,45.854 C13.611,45.780 13.611,45.705 13.611,45.631 C13.560,45.606 13.510,45.582 13.459,45.557 C13.434,45.457 13.408,45.358 13.383,45.259 C13.307,45.209 13.231,45.160 13.155,45.110 C13.130,45.011 13.105,44.912 13.079,44.812 C13.004,44.763 12.928,44.713 12.852,44.664 C12.852,44.589 12.852,44.515 12.852,44.440 C12.801,44.415 12.750,44.391 12.700,44.366 C12.675,44.266 12.649,44.167 12.624,44.068 C12.548,44.018 12.472,43.969 12.396,43.919 C12.371,43.820 12.346,43.721 12.320,43.621 C12.244,43.572 12.168,43.522 12.092,43.473 C12.092,43.398 12.092,43.324 12.092,43.249 C12.042,43.224 11.991,43.200 11.941,43.175 C11.915,43.076 11.890,42.976 11.865,42.877 C11.789,42.827 11.713,42.778 11.637,42.728 C11.612,42.629 11.586,42.530 11.561,42.431 C11.485,42.381 11.409,42.331 11.333,42.282 C11.333,42.207 11.333,42.133 11.333,42.058 C11.283,42.034 11.232,42.009 11.181,41.984 C11.156,41.885 11.131,41.785 11.106,41.686 C11.030,41.637 10.954,41.587 10.878,41.537 C10.852,41.438 10.827,41.339 10.802,41.240 C10.726,41.190 10.650,41.140 10.574,41.091 C10.574,41.016 10.574,40.942 10.574,40.868 C10.524,40.843 10.473,40.818 10.422,40.793 C10.397,40.694 10.372,40.595 10.346,40.495 C10.270,40.446 10.194,40.396 10.119,40.346 C10.093,40.247 10.068,40.148 10.043,40.049 C9.967,39.999 9.891,39.949 9.815,39.900 C9.815,39.825 9.815,39.751 9.815,39.677 C9.764,39.652 9.714,39.627 9.663,39.602 C9.638,39.503 9.612,39.404 9.587,39.305 C9.511,39.255 9.435,39.205 9.359,39.156 C9.359,39.106 9.359,39.056 9.359,39.007 C9.334,39.007 9.309,39.007 9.283,39.007 C9.283,38.957 9.283,38.907 9.283,38.858 C9.208,38.808 9.132,38.759 9.056,38.709 C9.030,38.610 9.005,38.510 8.980,38.411 C8.904,38.362 8.828,38.312 8.752,38.262 C8.752,38.188 8.752,38.114 8.752,38.039 C8.701,38.014 8.651,37.989 8.600,37.965 C8.575,37.866 8.550,37.766 8.524,37.667 C8.448,37.617 8.372,37.568 8.296,37.518 C8.271,37.419 8.246,37.320 8.221,37.220 C8.145,37.171 8.069,37.121 7.993,37.072 C7.967,36.972 7.942,36.873 7.917,36.774 C7.841,36.724 7.765,36.675 7.689,36.625 C7.689,36.550 7.689,36.476 7.689,36.402 C7.639,36.377 7.588,36.352 7.537,36.327 C7.512,36.228 7.487,36.129 7.461,36.029 C7.385,35.980 7.310,35.930 7.234,35.881 C7.208,35.781 7.183,35.682 7.158,35.583 C7.082,35.533 7.006,35.484 6.930,35.434 C6.930,35.384 6.930,35.335 6.930,35.285 C6.905,35.285 6.879,35.285 6.854,35.285 C6.854,35.236 6.854,35.186 6.854,35.136 C6.778,35.087 6.702,35.037 6.626,34.987 C6.601,34.888 6.576,34.789 6.550,34.690 C6.474,34.640 6.398,34.590 6.323,34.541 C6.323,34.466 6.323,34.392 6.323,34.318 C6.272,34.293 6.221,34.268 6.171,34.243 C6.145,34.144 6.120,34.045 6.095,33.945 C6.019,33.896 5.943,33.846 5.867,33.796 C5.867,33.747 5.867,33.697 5.867,33.648 C5.842,33.648 5.816,33.648 5.791,33.648 C5.791,33.598 5.791,33.548 5.791,33.499 C5.715,33.449 5.639,33.400 5.563,33.350 C5.538,33.251 5.513,33.151 5.488,33.052 C5.412,33.003 5.336,32.953 5.260,32.903 C5.234,32.804 5.209,32.705 5.184,32.606 C5.108,32.556 5.032,32.506 4.956,32.457 C4.931,32.357 4.905,32.258 4.880,32.159 C4.804,32.109 4.728,32.060 4.652,32.010 C4.627,31.911 4.602,31.812 4.576,31.712 C4.500,31.663 4.425,31.613 4.349,31.563 C4.323,31.464 4.298,31.365 4.273,31.266 C4.197,31.216 4.121,31.167 4.045,31.117 C4.020,31.018 3.994,30.918 3.969,30.819 C3.893,30.770 3.817,30.720 3.741,30.670 C3.741,30.621 3.741,30.571 3.741,30.521 C3.716,30.521 3.691,30.521 3.665,30.521 C3.665,30.472 3.665,30.422 3.665,30.373 C3.590,30.323 3.514,30.273 3.438,30.224 C3.412,30.124 3.387,30.025 3.362,29.926 C3.286,29.876 3.210,29.827 3.134,29.777 C3.109,29.678 3.083,29.579 3.058,29.479 C2.982,29.430 2.906,29.380 2.830,29.331 C2.830,29.256 2.830,29.182 2.830,29.107 C2.780,29.082 2.729,29.058 2.678,29.033 C2.653,28.934 2.628,28.834 2.603,28.735 C2.527,28.685 2.451,28.636 2.375,28.586 C2.375,28.512 2.375,28.437 2.375,28.363 C2.324,28.338 2.274,28.313 2.223,28.289 C2.223,28.214 2.223,28.140 2.223,28.065 C2.172,28.040 2.122,28.016 2.071,27.991 C2.071,27.916 2.071,27.842 2.071,27.768 C2.021,27.743 1.970,27.718 1.919,27.693 C1.919,27.619 1.919,27.544 1.919,27.470 C1.869,27.445 1.818,27.420 1.767,27.395 C1.767,27.321 1.767,27.246 1.767,27.172 C1.717,27.147 1.666,27.122 1.616,27.098 C1.616,26.998 1.616,26.899 1.616,26.800 C1.590,26.800 1.565,26.800 1.540,26.800 C1.540,26.750 1.540,26.701 1.540,26.651 C1.514,26.651 1.489,26.651 1.464,26.651 C1.464,26.577 1.464,26.502 1.464,26.428 C1.413,26.403 1.363,26.378 1.312,26.353 C1.312,26.254 1.312,26.155 1.312,26.056 C1.287,26.056 1.261,26.056 1.236,26.056 C1.236,26.006 1.236,25.956 1.236,25.907 C1.211,25.907 1.185,25.907 1.160,25.907 C1.160,25.808 1.160,25.708 1.160,25.609 C1.135,25.609 1.109,25.609 1.084,25.609 C1.084,25.559 1.084,25.510 1.084,25.460 C1.059,25.460 1.034,25.460 1.008,25.460 C1.008,25.386 1.008,25.311 1.008,25.237 C0.958,25.212 0.907,25.187 0.856,25.162 C0.856,25.063 0.856,24.964 0.856,24.865 C0.831,24.865 0.806,24.865 0.780,24.865 C0.780,24.765 0.780,24.666 0.780,24.567 C0.755,24.567 0.730,24.567 0.705,24.567 C0.705,24.468 0.705,24.369 0.705,24.269 C0.679,24.269 0.654,24.269 0.629,24.269 C0.629,24.220 0.629,24.170 0.629,24.120 C0.603,24.120 0.578,24.120 0.553,24.120 C0.527,23.872 0.502,23.624 0.477,23.376 C0.451,23.376 0.426,23.376 0.401,23.376 C0.401,23.277 0.401,23.178 0.401,23.078 C0.376,23.078 0.350,23.078 0.325,23.078 C0.300,22.830 0.274,22.582 0.249,22.334 C0.224,22.334 0.198,22.334 0.173,22.334 C0.173,22.086 0.173,21.838 0.173,21.590 C-0.083,20.740 0.022,19.330 0.021,18.240 C0.021,17.818 0.021,17.397 0.021,16.975 C0.047,16.975 0.072,16.975 0.097,16.975 C0.097,16.876 0.097,16.776 0.097,16.677 C0.123,16.677 0.148,16.677 0.173,16.677 C0.173,16.429 0.173,16.181 0.173,15.933 C0.198,15.933 0.224,15.933 0.249,15.933 C0.249,15.834 0.249,15.734 0.249,15.635 C0.274,15.635 0.300,15.635 0.325,15.635 C0.325,15.486 0.325,15.337 0.325,15.188 C0.350,15.188 0.376,15.188 0.401,15.188 C0.401,15.089 0.401,14.990 0.401,14.891 C0.426,14.891 0.451,14.891 0.477,14.891 C0.477,14.792 0.477,14.692 0.477,14.593 C0.502,14.593 0.527,14.593 0.553,14.593 C0.553,14.494 0.553,14.395 0.553,14.295 C0.578,14.295 0.603,14.295 0.629,14.295 C0.629,14.196 0.629,14.097 0.629,13.998 C0.654,13.998 0.679,13.998 0.705,13.998 C0.705,13.898 0.705,13.799 0.705,13.700 C0.730,13.700 0.755,13.700 0.780,13.700 C0.780,13.650 0.780,13.601 0.780,13.551 C0.806,13.551 0.831,13.551 0.856,13.551 C0.856,13.452 0.856,13.353 0.856,13.253 C0.882,13.253 0.907,13.253 0.932,13.253 C0.932,13.204 0.932,13.154 0.932,13.105 C0.958,13.105 0.983,13.105 1.008,13.105 C1.008,13.005 1.008,12.906 1.008,12.807 C1.034,12.807 1.059,12.807 1.084,12.807 C1.084,12.757 1.084,12.708 1.084,12.658 C1.109,12.658 1.135,12.658 1.160,12.658 C1.160,12.559 1.160,12.459 1.160,12.360 C1.185,12.360 1.211,12.360 1.236,12.360 C1.236,12.311 1.236,12.261 1.236,12.211 C1.261,12.211 1.287,12.211 1.312,12.211 C1.312,12.112 1.312,12.013 1.312,11.914 C1.363,11.889 1.413,11.864 1.464,11.839 C1.514,11.616 1.565,11.392 1.616,11.169 C1.666,11.144 1.717,11.120 1.767,11.095 C1.767,11.020 1.767,10.946 1.767,10.872 C1.818,10.847 1.869,10.822 1.919,10.797 C1.919,10.723 1.919,10.648 1.919,10.574 C1.970,10.549 2.021,10.524 2.071,10.499 C2.071,10.425 2.071,10.350 2.071,10.276 C2.122,10.251 2.172,10.227 2.223,10.202 C2.223,10.127 2.223,10.053 2.223,9.978 C2.274,9.953 2.324,9.929 2.375,9.904 C2.375,9.829 2.375,9.755 2.375,9.681 C2.451,9.631 2.527,9.581 2.603,9.532 C2.628,9.433 2.653,9.333 2.678,9.234 C2.729,9.209 2.780,9.184 2.830,9.160 C2.830,9.085 2.830,9.011 2.830,8.936 C2.906,8.887 2.982,8.837 3.058,8.788 C3.083,8.688 3.109,8.589 3.134,8.490 C3.210,8.440 3.286,8.390 3.362,8.341 C3.387,8.242 3.412,8.142 3.438,8.043 C3.539,7.969 3.640,7.894 3.741,7.820 C3.741,7.770 3.741,7.721 3.741,7.671 C3.792,7.646 3.843,7.621 3.893,7.597 C3.893,7.547 3.893,7.497 3.893,7.448 C3.918,7.448 3.944,7.448 3.969,7.448 C4.078,7.317 4.142,7.268 4.197,7.076 C4.247,7.076 4.298,7.076 4.349,7.076 C4.349,7.026 4.349,6.976 4.349,6.927 C4.399,6.927 4.450,6.927 4.500,6.927 C4.587,6.581 4.863,6.509 4.956,6.182 C5.007,6.182 5.057,6.182 5.108,6.182 C5.108,6.133 5.108,6.083 5.108,6.033 C5.159,6.033 5.209,6.033 5.260,6.033 C5.260,5.984 5.260,5.934 5.260,5.885 C5.310,5.885 5.361,5.885 5.412,5.885 C5.412,5.835 5.412,5.785 5.412,5.736 C5.462,5.736 5.513,5.736 5.563,5.736 C5.563,5.686 5.563,5.637 5.563,5.587 C5.614,5.587 5.665,5.587 5.715,5.587 C5.715,5.537 5.715,5.488 5.715,5.438 C5.766,5.438 5.816,5.438 5.867,5.438 C5.867,5.388 5.867,5.339 5.867,5.289 C5.918,5.289 5.968,5.289 6.019,5.289 C6.019,5.240 6.019,5.190 6.019,5.140 C6.069,5.140 6.120,5.140 6.171,5.140 C6.171,5.091 6.171,5.041 6.171,4.991 C6.221,4.991 6.272,4.991 6.323,4.991 C6.323,4.942 6.323,4.892 6.323,4.843 C6.373,4.843 6.424,4.843 6.474,4.843 C6.474,4.793 6.474,4.743 6.474,4.694 C6.525,4.694 6.576,4.694 6.626,4.694 C6.626,4.644 6.626,4.594 6.626,4.545 C6.958,4.460 7.026,4.192 7.385,4.098 C7.385,4.049 7.385,3.999 7.385,3.949 C7.436,3.949 7.487,3.949 7.537,3.949 C7.761,3.592 8.168,3.513 8.524,3.279 C8.575,3.205 8.626,3.131 8.676,3.056 C8.727,3.056 8.777,3.056 8.828,3.056 C8.828,3.031 8.828,3.007 8.828,2.982 C8.879,2.982 8.929,2.982 8.980,2.982 C9.030,2.907 9.081,2.833 9.132,2.759 C9.233,2.734 9.334,2.709 9.435,2.684 C9.486,2.610 9.537,2.535 9.587,2.461 C9.663,2.461 9.739,2.461 9.815,2.461 C9.840,2.411 9.865,2.362 9.891,2.312 C9.967,2.312 10.043,2.312 10.119,2.312 C10.144,2.262 10.169,2.213 10.194,2.163 C10.270,2.163 10.346,2.163 10.422,2.163 C10.448,2.113 10.473,2.064 10.498,2.014 C10.574,2.014 10.650,2.014 10.726,2.014 C10.751,1.965 10.777,1.915 10.802,1.865 C10.878,1.865 10.954,1.865 11.030,1.865 C11.055,1.816 11.080,1.766 11.106,1.716 C11.181,1.716 11.257,1.716 11.333,1.716 C11.359,1.667 11.384,1.617 11.409,1.568 C11.485,1.568 11.561,1.568 11.637,1.568 C11.662,1.518 11.688,1.468 11.713,1.419 C11.814,1.419 11.915,1.419 12.017,1.419 C12.017,1.394 12.017,1.369 12.017,1.344 C12.067,1.344 12.118,1.344 12.168,1.344 C12.168,1.320 12.168,1.295 12.168,1.270 C12.244,1.270 12.320,1.270 12.396,1.270 C12.421,1.220 12.447,1.171 12.472,1.121 C12.573,1.121 12.675,1.121 12.776,1.121 C12.776,1.096 12.776,1.071 12.776,1.047 C12.826,1.047 12.877,1.047 12.928,1.047 C12.928,1.022 12.928,0.997 12.928,0.972 C13.029,0.972 13.130,0.972 13.231,0.972 C13.231,0.947 13.231,0.923 13.231,0.898 C13.282,0.898 13.332,0.898 13.383,0.898 C13.383,0.873 13.383,0.848 13.383,0.823 C13.687,0.774 13.991,0.724 14.294,0.674 C14.294,0.650 14.294,0.625 14.294,0.600 C14.345,0.600 14.395,0.600 14.446,0.600 C14.446,0.575 14.446,0.550 14.446,0.526 C14.699,0.501 14.952,0.476 15.205,0.451 C15.205,0.426 15.205,0.402 15.205,0.377 C15.306,0.377 15.408,0.377 15.509,0.377 C15.509,0.352 15.509,0.327 15.509,0.302 C15.762,0.278 16.015,0.253 16.268,0.228 C16.268,0.203 16.268,0.178 16.268,0.153 C16.521,0.153 16.774,0.153 17.027,0.153 C17.027,0.129 17.027,0.104 17.027,0.079 C17.128,0.079 17.230,0.079 17.331,0.079 C17.331,0.054 17.331,0.029 17.331,0.004 C18.115,0.004 18.900,0.004 19.684,0.004 C20.131,0.004 20.625,-0.031 20.975,0.079 C20.975,0.104 20.975,0.129 20.975,0.153 C21.228,0.153 21.481,0.153 21.734,0.153 C21.734,0.178 21.734,0.203 21.734,0.228 C21.987,0.253 22.240,0.278 22.493,0.302 C22.493,0.327 22.493,0.352 22.493,0.377 C22.595,0.377 22.696,0.377 22.797,0.377 C22.797,0.402 22.797,0.426 22.797,0.451 C23.253,0.526 23.708,0.600 24.164,0.674 C24.164,0.699 24.164,0.724 24.164,0.749 C24.214,0.749 24.265,0.749 24.315,0.749 C24.315,0.774 24.315,0.798 24.315,0.823 C24.417,0.823 24.518,0.823 24.619,0.823 C24.619,0.848 24.619,0.873 24.619,0.898 C24.670,0.898 24.720,0.898 24.771,0.898 C24.771,0.923 24.771,0.947 24.771,0.972 C24.872,0.972 24.974,0.972 25.075,0.972 C25.075,0.997 25.075,1.022 25.075,1.047 C25.125,1.047 25.176,1.047 25.227,1.047 C25.227,1.071 25.227,1.096 25.227,1.121 C25.328,1.121 25.429,1.121 25.530,1.121 C25.555,1.171 25.581,1.220 25.606,1.270 C25.834,1.320 26.062,1.369 26.289,1.419 C26.315,1.468 26.340,1.518 26.365,1.568 C26.593,1.617 26.821,1.667 27.049,1.716 C27.074,1.766 27.099,1.816 27.125,1.865 C27.200,1.865 27.276,1.865 27.352,1.865 C27.378,1.915 27.403,1.965 27.428,2.014 C27.504,2.014 27.580,2.014 27.656,2.014 C27.707,2.089 27.757,2.163 27.808,2.237 C27.909,2.262 28.010,2.287 28.111,2.312 C28.137,2.362 28.162,2.411 28.187,2.461 C28.263,2.461 28.339,2.461 28.415,2.461 C28.440,2.510 28.466,2.560 28.491,2.610 C28.567,2.610 28.643,2.610 28.719,2.610 C28.769,2.684 28.820,2.759 28.871,2.833 C28.972,2.858 29.073,2.882 29.174,2.907 C29.225,2.982 29.276,3.056 29.326,3.131 C29.377,3.131 29.427,3.131 29.478,3.131 C29.478,3.155 29.478,3.180 29.478,3.205 C29.529,3.205 29.579,3.205 29.630,3.205 C29.706,3.304 29.782,3.404 29.858,3.503 C29.908,3.503 29.959,3.503 30.009,3.503 C30.035,3.552 30.060,3.602 30.085,3.652 C30.136,3.652 30.187,3.652 30.237,3.652 C30.288,3.726 30.338,3.801 30.389,3.875 C30.490,3.900 30.592,3.924 30.693,3.949 C30.693,3.974 30.693,3.999 30.693,4.024 C30.828,4.130 30.874,4.193 31.072,4.247 ZM13.915,13.030 C13.915,13.080 13.915,13.129 13.915,13.179 C13.864,13.179 13.813,13.179 13.763,13.179 C13.763,13.229 13.763,13.278 13.763,13.328 C13.712,13.328 13.661,13.328 13.611,13.328 C13.611,13.377 13.611,13.427 13.611,13.477 C13.560,13.477 13.510,13.477 13.459,13.477 C13.459,13.526 13.459,13.576 13.459,13.626 C13.408,13.626 13.358,13.626 13.307,13.626 C13.307,13.675 13.307,13.725 13.307,13.774 C13.257,13.774 13.206,13.774 13.155,13.774 C13.155,13.824 13.155,13.874 13.155,13.923 C13.105,13.923 13.054,13.923 13.003,13.923 C12.978,13.998 12.953,14.072 12.928,14.147 C12.902,14.147 12.877,14.147 12.852,14.147 C12.826,14.221 12.801,14.295 12.776,14.370 C12.725,14.395 12.675,14.419 12.624,14.444 C12.599,14.543 12.573,14.643 12.548,14.742 C12.497,14.767 12.447,14.792 12.396,14.816 C12.396,14.891 12.396,14.965 12.396,15.040 C12.320,15.089 12.244,15.139 12.168,15.188 C12.143,15.288 12.118,15.387 12.092,15.486 C12.042,15.511 11.991,15.536 11.941,15.561 C11.941,15.635 11.941,15.710 11.941,15.784 C11.890,15.809 11.839,15.834 11.789,15.858 C11.738,16.082 11.688,16.305 11.637,16.528 C11.612,16.528 11.586,16.528 11.561,16.528 C11.561,16.578 11.561,16.627 11.561,16.677 C11.536,16.677 11.510,16.677 11.485,16.677 C11.485,16.776 11.485,16.876 11.485,16.975 C11.460,16.975 11.434,16.975 11.409,16.975 C11.409,17.025 11.409,17.074 11.409,17.124 C11.384,17.124 11.359,17.124 11.333,17.124 C11.333,17.223 11.333,17.322 11.333,17.421 C11.308,17.421 11.283,17.421 11.257,17.421 C11.257,17.943 11.257,18.464 11.257,18.985 C11.257,19.555 11.257,20.126 11.257,20.697 C11.283,20.697 11.308,20.697 11.333,20.697 C11.333,20.796 11.333,20.895 11.333,20.994 C11.359,20.994 11.384,20.994 11.409,20.994 C11.409,21.094 11.409,21.193 11.409,21.292 C11.434,21.292 11.460,21.292 11.485,21.292 C11.485,21.391 11.485,21.491 11.485,21.590 C11.510,21.590 11.536,21.590 11.561,21.590 C11.561,21.639 11.561,21.689 11.561,21.739 C11.586,21.739 11.612,21.739 11.637,21.739 C11.688,21.962 11.738,22.185 11.789,22.408 C11.839,22.433 11.890,22.458 11.941,22.483 C11.941,22.557 11.941,22.632 11.941,22.706 C11.991,22.731 12.042,22.756 12.092,22.781 C12.092,22.855 12.092,22.930 12.092,23.004 C12.143,23.029 12.194,23.053 12.244,23.078 C12.270,23.178 12.295,23.277 12.320,23.376 C12.396,23.426 12.472,23.475 12.548,23.525 C12.573,23.624 12.599,23.723 12.624,23.823 C12.675,23.847 12.725,23.872 12.776,23.897 C12.801,23.972 12.826,24.046 12.852,24.120 C12.877,24.120 12.902,24.120 12.928,24.120 C12.953,24.195 12.978,24.269 13.003,24.344 C13.054,24.344 13.105,24.344 13.155,24.344 C13.155,24.393 13.155,24.443 13.155,24.493 C13.206,24.493 13.257,24.493 13.307,24.493 C13.307,24.542 13.307,24.592 13.307,24.641 C13.358,24.641 13.408,24.641 13.459,24.641 C13.459,24.691 13.459,24.741 13.459,24.790 C13.510,24.790 13.560,24.790 13.611,24.790 C13.611,24.840 13.611,24.889 13.611,24.939 C13.661,24.939 13.712,24.939 13.763,24.939 C13.763,24.989 13.763,25.038 13.763,25.088 C13.813,25.088 13.864,25.088 13.915,25.088 C13.915,25.138 13.915,25.187 13.915,25.237 C13.991,25.262 14.066,25.286 14.142,25.311 C14.142,25.336 14.142,25.361 14.142,25.386 C14.218,25.411 14.294,25.435 14.370,25.460 C14.395,25.510 14.421,25.559 14.446,25.609 C14.547,25.634 14.648,25.659 14.750,25.683 C14.800,25.758 14.851,25.832 14.901,25.907 C15.003,25.932 15.104,25.956 15.205,25.981 C15.230,26.031 15.256,26.080 15.281,26.130 C15.357,26.130 15.433,26.130 15.509,26.130 C15.534,26.180 15.559,26.229 15.585,26.279 C15.661,26.279 15.737,26.279 15.813,26.279 C15.838,26.328 15.863,26.378 15.888,26.428 C16.116,26.477 16.344,26.527 16.572,26.577 C16.572,26.601 16.572,26.626 16.572,26.651 C16.622,26.651 16.673,26.651 16.724,26.651 C16.724,26.676 16.724,26.701 16.724,26.725 C16.825,26.725 16.926,26.725 17.027,26.725 C17.027,26.750 17.027,26.775 17.027,26.800 C17.078,26.800 17.128,26.800 17.179,26.800 C17.179,26.825 17.179,26.850 17.179,26.874 C17.280,26.874 17.382,26.874 17.483,26.874 C17.483,26.899 17.483,26.924 17.483,26.949 C18.014,26.949 18.546,26.949 19.077,26.949 C19.558,26.949 20.039,26.949 20.519,26.949 C20.519,26.924 20.519,26.899 20.519,26.874 C20.621,26.874 20.722,26.874 20.823,26.874 C20.823,26.850 20.823,26.825 20.823,26.800 C20.874,26.800 20.924,26.800 20.975,26.800 C20.975,26.775 20.975,26.750 20.975,26.725 C21.076,26.725 21.178,26.725 21.279,26.725 C21.279,26.701 21.279,26.676 21.279,26.651 C21.329,26.651 21.380,26.651 21.431,26.651 C21.431,26.626 21.431,26.601 21.431,26.577 C21.658,26.527 21.886,26.477 22.114,26.428 C22.139,26.378 22.164,26.328 22.190,26.279 C22.266,26.279 22.342,26.279 22.417,26.279 C22.443,26.229 22.468,26.180 22.493,26.130 C22.569,26.130 22.645,26.130 22.721,26.130 C22.746,26.080 22.772,26.031 22.797,25.981 C22.898,25.956 23.000,25.932 23.101,25.907 C23.151,25.832 23.202,25.758 23.253,25.683 C23.354,25.659 23.455,25.634 23.556,25.609 C23.582,25.559 23.607,25.510 23.632,25.460 C23.708,25.435 23.784,25.411 23.860,25.386 C23.860,25.361 23.860,25.336 23.860,25.311 C23.936,25.286 24.012,25.262 24.088,25.237 C24.088,25.187 24.088,25.138 24.088,25.088 C24.138,25.088 24.189,25.088 24.240,25.088 C24.240,25.038 24.240,24.989 24.240,24.939 C24.290,24.939 24.341,24.939 24.391,24.939 C24.391,24.889 24.391,24.840 24.391,24.790 C24.442,24.790 24.493,24.790 24.543,24.790 C24.543,24.741 24.543,24.691 24.543,24.641 C24.594,24.641 24.644,24.641 24.695,24.641 C24.695,24.592 24.695,24.542 24.695,24.493 C24.746,24.493 24.796,24.493 24.847,24.493 C24.847,24.443 24.847,24.393 24.847,24.344 C24.898,24.344 24.948,24.344 24.999,24.344 C25.024,24.269 25.049,24.195 25.075,24.120 C25.100,24.120 25.125,24.120 25.151,24.120 C25.176,24.046 25.201,23.972 25.227,23.897 C25.277,23.872 25.328,23.847 25.378,23.823 C25.404,23.723 25.429,23.624 25.454,23.525 C25.530,23.475 25.606,23.426 25.682,23.376 C25.707,23.277 25.733,23.178 25.758,23.078 C25.809,23.053 25.859,23.029 25.910,23.004 C25.910,22.930 25.910,22.855 25.910,22.781 C25.960,22.756 26.011,22.731 26.062,22.706 C26.062,22.632 26.062,22.557 26.062,22.483 C26.112,22.458 26.163,22.433 26.213,22.408 C26.264,22.185 26.315,21.962 26.365,21.739 C26.391,21.739 26.416,21.739 26.441,21.739 C26.441,21.689 26.441,21.639 26.441,21.590 C26.467,21.590 26.492,21.590 26.517,21.590 C26.517,21.491 26.517,21.391 26.517,21.292 C26.542,21.292 26.568,21.292 26.593,21.292 C26.593,21.193 26.593,21.094 26.593,20.994 C26.618,20.994 26.644,20.994 26.669,20.994 C26.669,20.895 26.669,20.796 26.669,20.697 C26.694,20.697 26.720,20.697 26.745,20.697 C26.745,20.126 26.745,19.555 26.745,18.985 C26.745,18.464 26.745,17.943 26.745,17.421 C26.720,17.421 26.694,17.421 26.669,17.421 C26.669,17.322 26.669,17.223 26.669,17.124 C26.644,17.124 26.618,17.124 26.593,17.124 C26.593,17.074 26.593,17.025 26.593,16.975 C26.568,16.975 26.542,16.975 26.517,16.975 C26.517,16.876 26.517,16.776 26.517,16.677 C26.492,16.677 26.467,16.677 26.441,16.677 C26.441,16.627 26.441,16.578 26.441,16.528 C26.416,16.528 26.391,16.528 26.365,16.528 C26.315,16.305 26.264,16.082 26.213,15.858 C26.163,15.834 26.112,15.809 26.062,15.784 C26.062,15.710 26.062,15.635 26.062,15.561 C26.011,15.536 25.960,15.511 25.910,15.486 C25.910,15.412 25.910,15.337 25.910,15.263 C25.859,15.238 25.809,15.213 25.758,15.188 C25.733,15.089 25.707,14.990 25.682,14.891 C25.606,14.841 25.530,14.792 25.454,14.742 C25.429,14.643 25.404,14.543 25.378,14.444 C25.328,14.419 25.277,14.395 25.227,14.370 C25.201,14.295 25.176,14.221 25.151,14.147 C25.125,14.147 25.100,14.147 25.075,14.147 C25.049,14.072 25.024,13.998 24.999,13.923 C24.948,13.923 24.898,13.923 24.847,13.923 C24.847,13.874 24.847,13.824 24.847,13.774 C24.796,13.774 24.746,13.774 24.695,13.774 C24.695,13.725 24.695,13.675 24.695,13.626 C24.644,13.626 24.594,13.626 24.543,13.626 C24.543,13.576 24.543,13.526 24.543,13.477 C24.493,13.477 24.442,13.477 24.391,13.477 C24.391,13.427 24.391,13.377 24.391,13.328 C24.341,13.328 24.290,13.328 24.240,13.328 C24.240,13.278 24.240,13.229 24.240,13.179 C24.189,13.179 24.138,13.179 24.088,13.179 C24.088,13.129 24.088,13.080 24.088,13.030 C24.012,13.005 23.936,12.980 23.860,12.956 C23.860,12.931 23.860,12.906 23.860,12.881 C23.784,12.856 23.708,12.832 23.632,12.807 C23.607,12.757 23.582,12.708 23.556,12.658 C23.455,12.633 23.354,12.608 23.253,12.583 C23.202,12.509 23.151,12.435 23.101,12.360 C23.000,12.335 22.898,12.311 22.797,12.286 C22.772,12.236 22.746,12.186 22.721,12.137 C22.645,12.137 22.569,12.137 22.493,12.137 C22.468,12.087 22.443,12.038 22.417,11.988 C22.342,11.988 22.266,11.988 22.190,11.988 C22.164,11.938 22.139,11.889 22.114,11.839 C21.886,11.789 21.658,11.740 21.431,11.690 C21.431,11.666 21.431,11.641 21.431,11.616 C21.380,11.616 21.329,11.616 21.279,11.616 C21.279,11.591 21.279,11.566 21.279,11.541 C21.178,11.541 21.076,11.541 20.975,11.541 C20.975,11.517 20.975,11.492 20.975,11.467 C20.874,11.467 20.773,11.467 20.671,11.467 C20.671,11.442 20.671,11.417 20.671,11.392 C20.570,11.392 20.469,11.392 20.368,11.392 C20.368,11.368 20.368,11.343 20.368,11.318 C19.912,11.318 19.457,11.318 19.001,11.318 C18.546,11.318 18.090,11.318 17.635,11.318 C17.635,11.343 17.635,11.368 17.635,11.392 C17.533,11.392 17.432,11.392 17.331,11.392 C17.331,11.417 17.331,11.442 17.331,11.467 C17.230,11.467 17.128,11.467 17.027,11.467 C17.027,11.492 17.027,11.517 17.027,11.541 C16.926,11.541 16.825,11.541 16.724,11.541 C16.724,11.566 16.724,11.591 16.724,11.616 C16.673,11.616 16.622,11.616 16.572,11.616 C16.572,11.641 16.572,11.666 16.572,11.690 C16.471,11.690 16.369,11.690 16.268,11.690 C16.268,11.715 16.268,11.740 16.268,11.765 C16.217,11.765 16.167,11.765 16.116,11.765 C16.116,11.789 16.116,11.814 16.116,11.839 C16.040,11.839 15.964,11.839 15.888,11.839 C15.863,11.889 15.838,11.938 15.813,11.988 C15.737,11.988 15.661,11.988 15.585,11.988 C15.559,12.038 15.534,12.087 15.509,12.137 C15.433,12.137 15.357,12.137 15.281,12.137 C15.256,12.186 15.230,12.236 15.205,12.286 C15.104,12.311 15.003,12.335 14.901,12.360 C14.851,12.435 14.800,12.509 14.750,12.583 C14.648,12.608 14.547,12.633 14.446,12.658 C14.421,12.708 14.395,12.757 14.370,12.807 C14.294,12.832 14.218,12.856 14.142,12.881 C14.142,12.906 14.142,12.931 14.142,12.956 C14.066,12.980 13.991,13.005 13.915,13.030 Z"/>
</svg>