<svg 
 xmlns="http://www.w3.org/2000/svg"
 xmlns:xlink="http://www.w3.org/1999/xlink"
 width="37px" height="37px">
<path fill-rule="evenodd"  fill="rgb(53, 53, 53)"
 d="M18.499,37.010 C8.294,37.010 -0.011,28.706 -0.011,18.500 C-0.011,8.295 8.294,-0.010 18.499,-0.010 C28.705,-0.010 37.009,8.295 37.009,18.500 C37.009,28.706 28.705,37.010 18.499,37.010 ZM18.499,1.840 C9.312,1.840 1.839,9.314 1.839,18.500 C1.839,27.686 9.312,35.161 18.499,35.161 C27.686,35.161 35.160,27.686 35.160,18.500 C35.160,9.314 27.686,1.840 18.499,1.840 ZM23.051,16.318 L19.428,12.695 L19.428,26.540 C19.428,27.053 19.020,27.468 18.506,27.468 C17.994,27.468 17.578,27.053 17.578,26.540 L17.578,12.687 L13.955,16.311 C13.592,16.673 13.012,16.673 12.649,16.311 C12.287,15.948 12.287,15.367 12.649,15.004 L17.850,9.804 C18.212,9.442 18.794,9.442 19.156,9.804 L24.357,15.004 C24.539,15.186 24.629,15.420 24.629,15.661 C24.629,15.903 24.539,16.137 24.357,16.318 C23.995,16.681 23.414,16.681 23.051,16.318 Z"/>
</svg>