<svg 
 xmlns="http://www.w3.org/2000/svg"
 xmlns:xlink="http://www.w3.org/1999/xlink"
 width="10px" height="9px">
<path fill-rule="evenodd"  fill="rgb(60, 186, 228)"
 d="M0.622,5.588 L7.883,5.588 L5.459,7.966 C5.216,8.205 5.216,8.586 5.459,8.824 C5.581,8.943 5.737,9.003 5.899,9.003 C6.061,9.003 6.216,8.943 6.339,8.824 L9.817,5.410 C10.060,5.172 10.060,4.790 9.817,4.552 L6.339,1.138 C6.096,0.900 5.707,0.900 5.464,1.138 C5.222,1.376 5.222,1.757 5.464,1.995 L7.888,4.374 L0.622,4.374 C0.278,4.374 0.000,4.646 0.000,4.983 C0.000,5.320 0.278,5.588 0.622,5.588 Z"/>
</svg>