<svg 
 xmlns="http://www.w3.org/2000/svg"
 xmlns:xlink="http://www.w3.org/1999/xlink"
 width="37px" height="37px">
<path fill-rule="evenodd"  opacity="0.502" fill="rgb(53, 53, 53)"
 d="M18.499,37.010 C8.294,37.010 -0.011,28.706 -0.011,18.501 C-0.011,8.294 8.294,-0.010 18.499,-0.010 C28.705,-0.010 37.009,8.294 37.009,18.501 C37.009,28.706 28.705,37.010 18.499,37.010 ZM18.499,1.840 C9.312,1.840 1.839,9.312 1.839,18.501 C1.839,27.687 9.312,35.161 18.499,35.161 C27.686,35.161 35.160,27.687 35.160,18.501 C35.160,9.312 27.686,1.840 18.499,1.840 ZM19.156,27.196 C18.794,27.559 18.212,27.559 17.850,27.196 L12.649,21.996 C12.287,21.632 12.287,21.052 12.649,20.690 C13.012,20.327 13.592,20.327 13.955,20.690 L17.578,24.312 L17.578,10.461 C17.578,9.947 17.994,9.532 18.506,9.532 C19.020,9.532 19.428,9.947 19.428,10.461 L19.428,24.304 L23.051,20.681 C23.414,20.319 23.995,20.319 24.357,20.681 C24.539,20.863 24.629,21.096 24.629,21.339 C24.629,21.580 24.539,21.814 24.357,21.996 L19.156,27.196 Z"/>
</svg>