<svg 
 xmlns="http://www.w3.org/2000/svg"
 xmlns:xlink="http://www.w3.org/1999/xlink"
 width="21px" height="20px">
<path fill-rule="evenodd"  opacity="0.4" fill="rgb(255, 255, 255)"
 d="M14.014,19.481 C17.587,19.481 20.490,16.714 20.509,13.334 L20.548,8.361 L20.490,8.090 L20.317,7.749 L20.026,7.536 C19.650,7.255 17.740,7.555 17.227,7.111 C16.861,6.792 16.804,6.221 16.693,5.444 C16.490,3.941 16.359,3.863 16.112,3.354 C15.211,1.544 12.773,0.183 11.096,-0.006 L6.556,-0.006 C2.984,-0.006 0.063,2.767 0.063,6.154 L0.063,13.334 C0.063,16.714 2.984,19.481 6.556,19.481 L14.014,19.481 ZM6.638,5.026 L10.239,5.026 C10.925,5.026 11.481,5.556 11.481,6.201 C11.481,6.844 10.925,7.380 10.239,7.380 L6.638,7.380 C5.952,7.380 5.395,6.844 5.395,6.201 C5.395,5.556 5.952,5.026 6.638,5.026 ZM5.395,13.244 C5.395,12.599 5.952,12.073 6.638,12.073 L13.953,12.073 C14.637,12.073 15.191,12.599 15.191,13.244 C15.191,13.880 14.637,14.415 13.953,14.415 L6.638,14.415 C5.952,14.415 5.395,13.880 5.395,13.244 Z"/>
</svg>