<svg 
 xmlns="http://www.w3.org/2000/svg"
 xmlns:xlink="http://www.w3.org/1999/xlink"
 width="11px" height="20px">
<path fill-rule="evenodd"  opacity="0.4" fill="rgb(255, 255, 255)"
 d="M10.372,0.512 L7.784,0.507 C4.880,0.507 3.001,2.391 3.001,5.304 L3.001,7.515 L0.402,7.515 C0.177,7.515 -0.006,7.693 -0.006,7.912 L-0.006,11.117 C-0.006,11.336 0.177,11.514 0.402,11.514 L3.001,11.514 L3.001,19.598 C3.001,19.818 3.184,19.996 3.407,19.996 L6.801,19.996 C7.027,19.996 7.208,19.818 7.208,19.598 L7.208,11.514 L10.246,11.514 C10.470,11.514 10.654,11.336 10.654,11.117 L10.656,7.912 C10.656,7.807 10.612,7.706 10.535,7.632 C10.460,7.557 10.356,7.515 10.249,7.515 L7.208,7.515 L7.208,5.640 C7.208,4.739 7.427,4.283 8.628,4.283 L10.370,4.280 C10.594,4.280 10.776,4.103 10.776,3.885 L10.776,0.910 C10.776,0.689 10.594,0.512 10.372,0.512 Z"/>
</svg>