<svg 
 xmlns="http://www.w3.org/2000/svg"
 xmlns:xlink="http://www.w3.org/1999/xlink"
 width="27px" height="20px">
<path fill-rule="evenodd"  opacity="0.4" fill="rgb(255, 255, 255)"
 d="M25.056,10.759 L25.056,12.620 L23.378,12.620 L23.378,10.759 L21.419,10.759 L21.419,9.163 L23.378,9.163 L23.378,7.301 L25.056,7.301 L25.056,9.163 L27.013,9.163 L27.013,10.759 L25.056,10.759 ZM10.542,20.007 C4.879,20.007 0.287,15.640 0.287,10.252 C0.287,4.865 4.879,0.497 10.542,0.497 C13.336,0.497 15.869,1.561 17.720,3.284 L15.404,5.678 C14.164,4.487 12.444,3.749 10.542,3.749 C6.767,3.749 3.706,6.659 3.706,10.252 C3.706,13.843 6.766,16.754 10.542,16.754 C13.604,16.754 16.195,14.841 17.065,12.203 L11.225,12.203 L11.225,9.168 L20.798,9.168 L20.798,12.203 C19.846,16.655 15.506,20.007 10.542,20.007 Z"/>
</svg>