<svg 
 xmlns="http://www.w3.org/2000/svg"
 xmlns:xlink="http://www.w3.org/1999/xlink"
 width="63px" height="50px">
<path fill-rule="evenodd"  fill="rgb(60, 186, 228)"
 d="M52.715,22.652 C60.177,24.722 64.549,32.424 62.462,39.821 C60.771,45.815 55.210,50.002 48.938,50.002 C47.661,50.002 46.385,49.827 45.146,49.484 C40.226,48.120 36.527,44.069 34.729,38.081 C33.106,32.678 33.147,26.140 34.839,20.141 C38.132,8.469 46.252,-0.003 54.147,-0.003 C54.780,-0.003 55.414,0.051 56.031,0.159 C56.380,0.218 56.686,0.423 56.875,0.720 C57.064,1.017 57.117,1.379 57.022,1.717 L55.396,7.480 C55.239,8.037 54.708,8.413 54.135,8.387 L54.007,8.385 C51.080,8.385 45.729,12.735 43.002,22.403 C42.893,22.789 42.791,23.182 42.693,23.589 C45.756,22.087 49.408,21.739 52.715,22.652 ZM16.400,50.002 C15.122,50.002 13.846,49.827 12.608,49.484 C7.687,48.120 3.987,44.069 2.190,38.081 C0.569,32.678 0.609,26.140 2.300,20.141 C5.592,8.469 13.712,-0.004 21.606,-0.004 C22.240,-0.004 22.874,0.051 23.491,0.159 C23.840,0.219 24.147,0.423 24.336,0.720 C24.525,1.017 24.578,1.379 24.482,1.717 L22.858,7.480 C22.701,8.037 22.160,8.413 21.597,8.387 L21.468,8.385 C18.541,8.385 13.190,12.735 10.463,22.403 C10.355,22.787 10.252,23.180 10.154,23.589 C13.216,22.087 16.869,21.739 20.176,22.652 C27.637,24.722 32.009,32.424 29.922,39.821 C28.232,45.815 22.671,50.002 16.400,50.002 Z"/>
</svg>