<svg 
 xmlns="http://www.w3.org/2000/svg"
 xmlns:xlink="http://www.w3.org/1999/xlink"
 width="26px" height="20px">
<path fill-rule="evenodd"  opacity="0.4" fill="rgb(253, 253, 253)"
 d="M26.006,2.809 C25.079,3.200 24.081,3.466 23.033,3.583 C24.102,2.974 24.924,2.009 25.310,0.860 C24.310,1.424 23.204,1.835 22.023,2.055 C21.079,1.098 19.733,0.501 18.245,0.501 C15.386,0.501 13.069,2.704 13.069,5.425 C13.069,5.810 13.113,6.185 13.202,6.545 C8.901,6.340 5.087,4.379 2.535,1.401 C2.088,2.129 1.833,2.974 1.833,3.876 C1.833,5.585 2.745,7.092 4.135,7.975 C3.287,7.949 2.489,7.728 1.791,7.359 C1.791,7.380 1.791,7.399 1.791,7.421 C1.791,9.807 3.576,11.796 5.942,12.248 C5.509,12.361 5.051,12.422 4.578,12.422 C4.245,12.422 3.921,12.391 3.605,12.333 C4.263,14.289 6.176,15.713 8.440,15.752 C6.669,17.073 4.437,17.860 2.013,17.860 C1.595,17.860 1.182,17.837 0.777,17.790 C3.069,19.188 5.790,20.002 8.710,20.002 C18.232,20.002 23.439,12.500 23.439,5.995 C23.439,5.781 23.433,5.569 23.425,5.358 C24.437,4.663 25.313,3.796 26.006,2.809 Z"/>
</svg>