<svg 
 xmlns="http://www.w3.org/2000/svg"
 xmlns:xlink="http://www.w3.org/1999/xlink"
 width="30px" height="20px">
<path fill-rule="evenodd"  opacity="0.4" fill="rgb(255, 255, 255)"
 d="M29.146,3.142 C28.789,1.655 27.519,0.559 25.986,0.395 C22.364,0.008 18.694,0.006 15.042,0.008 C11.391,0.006 7.721,0.008 4.097,0.395 C2.567,0.559 1.297,1.655 0.940,3.142 C0.430,5.260 0.424,7.571 0.424,9.751 C0.424,11.931 0.424,14.242 0.934,16.359 C1.290,17.846 2.562,18.943 4.093,19.106 C7.715,19.493 11.385,19.496 15.037,19.493 C18.691,19.496 22.359,19.493 25.983,19.106 C27.511,18.943 28.783,17.846 29.143,16.359 C29.651,14.242 29.652,11.931 29.652,9.751 C29.652,7.571 29.657,5.260 29.146,3.142 ZM11.266,14.090 C11.266,10.998 11.266,7.938 11.266,4.844 C14.365,6.391 17.441,7.926 20.559,9.482 C17.450,11.024 14.373,12.549 11.266,14.090 Z"/>
</svg>