<svg 
 xmlns="http://www.w3.org/2000/svg"
 xmlns:xlink="http://www.w3.org/1999/xlink"
 width="442px" height="356px">
<path fill-rule="evenodd"  opacity="0.749" fill="rgb(214, 214, 214)"
 d="M409.666,355.679 L394.533,346.948 L420.025,315.630 L394.533,284.131 L409.666,275.672 L442.004,314.550 L442.004,316.890 L409.666,355.679 ZM401.379,316.890 L369.132,355.679 L353.999,346.948 L379.401,315.630 L353.999,284.131 L369.132,275.672 L401.379,314.550 L401.379,316.890 ZM73.345,79.962 L41.290,41.250 L41.290,38.914 L73.345,0.111 L88.429,8.555 L63.019,39.992 L88.429,71.249 L73.345,79.962 ZM47.935,71.249 L32.850,79.962 L0.885,41.250 L0.885,38.914 L32.850,0.111 L47.935,8.555 L22.614,39.992 L47.935,71.249 Z"/>
</svg>