<svg xmlns="http://www.w3.org/2000/svg" width="78" height="78">
    <path fill="none" d="M0-.001h78v78H0v-78z"/>
    <path fill="#535353" fill-rule="evenodd" d="M51.91 46.408a1.109 1.109 0 0 1-1.113-1.105 1.11 1.11 0 0 1 1.113-1.106h10.403a1.11 1.11 0 0 1 1.113 1.106c0 .61-.498 1.105-1.113 1.105H51.91zM67.886 26.6a1.11 1.11 0 0 1 1.113 1.106V70.68c0 1.829-1.499 3.318-3.342 3.318H12.342C10.499 73.998 9 72.51 9 70.68V13.955c0-1.83 1.499-3.318 3.342-3.318h7.561l7.112-6.355c.013-.011.028-.02.041-.03.025-.021.05-.04.076-.059a1.087 1.087 0 0 1 .154-.087 1.12 1.12 0 0 1 .251-.082c.028-.006.058-.011.087-.015.031-.003.061-.006.092-.007l.045-.003h22.477l.017.001a.92.92 0 0 1 .139.011l.052.008a1.078 1.078 0 0 1 .271.089l.075.039c.026.015.05.03.075.047.026.019.051.037.075.057l.041.031 7.113 6.355h7.561c1.843 0 3.342 1.489 3.342 3.318v9.919c0 .611-.498 1.105-1.113 1.105a1.11 1.11 0 0 1-1.114-1.105v-9.919c0-.611-.5-1.107-1.115-1.107h-7.23l-8.128 20.504a1.112 1.112 0 0 1-1.152.694l-.043-.005-.077-.013a1.234 1.234 0 0 1-.26-.092l-.033-.016c-.025-.014-.05-.03-.074-.045a1.334 1.334 0 0 1-.127-.092l-3.847-3.317-2.071 3.157 1.463 8.332a1.106 1.106 0 0 1-.905 1.279 1.113 1.113 0 0 1-1.288-.9l-1.358-7.735h-3.041l-4.129 25.624L39 64.887l5.642-4.663-2.238-13.889a1.106 1.106 0 0 1 .923-1.266 1.112 1.112 0 0 1 1.276.917l2.338 14.51a1.1 1.1 0 0 1-.387 1.024l-6.842 5.655a1.122 1.122 0 0 1-1.153.166c-.022-.009-.043-.02-.064-.031h-.001a1.071 1.071 0 0 1-.207-.136l-6.842-5.655a1.098 1.098 0 0 1-.387-1.023l4.311-26.755-2.115-3.225-3.788 3.267a1.348 1.348 0 0 1-.126.092c-.025.015-.05.031-.076.045a1.348 1.348 0 0 1-.146.066 1.3 1.3 0 0 1-.106.033l-.039.008c-.026.006-.053.01-.079.015a1.05 1.05 0 0 1-.423-.021 1.108 1.108 0 0 1-.771-.668l-8.128-20.505h-7.23c-.615 0-1.115.496-1.115 1.107V70.68c0 .611.5 1.107 1.115 1.107h53.315c.615 0 1.116-.496 1.116-1.107V27.706a1.11 1.11 0 0 1 1.113-1.106zM49.302 6.209H28.695l-.002.025-.01.113a27.486 27.486 0 0 0-.016.217l-.002.046a3.187 3.187 0 0 0-.006.141l-.003.068-.003.137-.002.07v.181l.001.036c.001.073.002.148.005.225l.003.071.009.171.006.086c.003.059.008.119.013.181l.006.077a13.936 13.936 0 0 0 .032.307l.03.235.014.092.031.204.016.098a31.506 31.506 0 0 0 .056.302c.02.103.042.206.065.311l.02.082.057.242.029.11.063.236.029.104a14.403 14.403 0 0 0 .296.912l.047.126a5.967 5.967 0 0 0 .12.31l.067.167.062.149.071.166.07.156.075.166.077.163c.026.055.052.111.08.166.027.056.055.114.084.17l.085.168.092.175.09.169.099.179.097.173.107.184c.033.058.068.116.102.173.038.064.076.127.116.19.035.058.071.117.108.175l.123.194.116.177.132.198c.04.06.08.12.122.18l.14.201.13.182.149.205.137.184.158.208.145.187a30.324 30.324 0 0 0 .321.4c.058.07.115.142.175.212l.162.193c.061.071.122.143.185.214.056.066.115.131.172.196a37.507 37.507 0 0 0 .375.415c.067.072.134.145.203.217l.192.203.211.218.204.206.219.219.216.209.228.219.229.213.235.219.244.219.242.216c.085.075.174.151.262.227.081.07.161.14.244.21.094.081.192.161.289.241a15.93 15.93 0 0 0 .571.466c.074.06.146.119.221.178.147.116.297.233.448.349l.127.098c.193.146.39.295.591.442.196-.144.389-.289.578-.432l.047-.037c5.943-4.539 8.252-8.74 9.135-11.541.642-2.035.635-3.623.543-4.51zm-.498 24.879L56.35 12.05l-4.782-4.271-.002.023-.004.062-.011.179-.004.059-.019.225-.008.07a7.642 7.642 0 0 1-.021.201l-.006.049a10.647 10.647 0 0 1-.041.317c-.011.077-.022.155-.035.234l-.007.044-.042.244-.015.079-.051.266-.01.047c-.016.078-.034.158-.052.237l-.018.082a11.07 11.07 0 0 1-.084.343c-.019.079-.041.159-.063.24l-.021.079-.084.29-.023.076-.079.251-.023.073a27.096 27.096 0 0 1-.132.388c-.032.089-.064.179-.098.269l-.023.061c-.039.104-.08.209-.123.316l-.036.09c-.04.101-.082.201-.125.302l-.015.035c-.047.11-.096.22-.146.331l-.043.094a19.981 19.981 0 0 1-.333.689 40.007 40.007 0 0 1-.229.439l-.038.069-.167.301-.052.091c-.067.117-.136.234-.206.352l-.051.083c-.061.102-.124.204-.188.307l-.053.083c-.075.12-.153.241-.233.362l-.063.094c-.07.106-.143.213-.217.321l-.047.067c-.086.124-.174.248-.263.372l-.073.1a24.235 24.235 0 0 1-.67.877c-.102.128-.206.256-.313.386-.01.012-.022.025-.032.039-.1.12-.202.24-.306.361l-.089.103c-.112.129-.227.26-.343.39l-.063.069c-.104.115-.209.23-.317.346l-.093.098a27.229 27.229 0 0 1-.802.824c-.032.03-.062.062-.093.092a31.864 31.864 0 0 1-.894.849 48.584 48.584 0 0 1-.535.482l-.12.105c-.143.125-.288.25-.435.376l-.057.048c-.161.137-.327.274-.494.412l-.134.11c-.17.138-.342.277-.518.416l-.036.028a38.195 38.195 0 0 1-.656.506l-.112.086 8.025 6.92zM37.14 32.389h3.627l2.189-3.337-4.002-3.451-4.002 3.451 2.188 3.337zm-7.944-1.301l3.562-3.073.002-.001 3.702-3.192.758-.654-.111-.085a45.486 45.486 0 0 1-.656-.506l-.037-.029a85.667 85.667 0 0 1-.519-.416l-.132-.109a36.04 36.04 0 0 1-.495-.413l-.055-.047a44.255 44.255 0 0 1-.437-.377l-.118-.104a47.79 47.79 0 0 1-.454-.407l-.08-.073a44.436 44.436 0 0 1-.898-.853l-.088-.087a56.439 56.439 0 0 1-.428-.432 23.315 23.315 0 0 1-.468-.491c-.11-.119-.219-.236-.324-.353a32.392 32.392 0 0 1-.403-.455l-.086-.1c-.106-.123-.21-.246-.312-.369l-.027-.032a24.803 24.803 0 0 1-.395-.489c-.102-.13-.202-.257-.3-.386a36.285 36.285 0 0 1-.291-.391l-.07-.096c-.09-.126-.179-.251-.265-.376l-.044-.061c-.075-.11-.149-.219-.221-.328l-.061-.09c-.08-.122-.159-.244-.235-.364l-.049-.079c-.066-.105-.129-.209-.192-.312l-.048-.08a23.125 23.125 0 0 1-.208-.355l-.049-.086-.171-.309-.035-.064a16.628 16.628 0 0 1-.229-.438 15.184 15.184 0 0 1-.335-.692 43.215 43.215 0 0 1-.201-.453c-.044-.103-.086-.206-.128-.308l-.035-.088a18.848 18.848 0 0 1-.124-.319l-.021-.055c-.034-.093-.068-.184-.1-.276l-.028-.082a9.956 9.956 0 0 1-.103-.305l-.022-.068a12.774 12.774 0 0 1-.081-.258l-.021-.072c-.03-.099-.058-.197-.085-.293l-.02-.073-.066-.25-.015-.057c-.023-.096-.046-.189-.067-.282a4.247 4.247 0 0 0-.018-.075l-.053-.247-.009-.041-.052-.27-.014-.073-.044-.258-.004-.024a13.25 13.25 0 0 1-.036-.245l-.01-.07-.032-.247-.004-.039-.023-.214-.006-.062-.02-.231-.003-.048a12.63 12.63 0 0 1-.013-.194l-.003-.053a.21.21 0 0 0-.002-.025l-4.782 4.271 7.547 19.038zm14.309-19.905h-9.103a1.11 1.11 0 0 1-1.113-1.105c0-.61.498-1.105 1.113-1.105h9.103a1.11 1.11 0 0 1 1.114 1.105 1.11 1.11 0 0 1-1.114 1.105z"/>
</svg>
