<svg xmlns="http://www.w3.org/2000/svg" width="30" height="30">
    <path fill="#FFF" fill-rule="evenodd" d="M21.176.01H8.828C3.975.01.005 3.976 0 8.824v12.36c.005 4.845 3.969 8.807 8.816 8.814h6.186V18.336h-3.336c-.351 0-.832-.478-.834-.833v-2.499c-.001-.367.482-.832.834-.832h3.336V10.84c0-3.875 2.381-5.831 5.838-5.831h2.502c.362 0 .833.469.833.832V8.34c0 .363-.471.832-.833.833h-1.669c-1.879 0-2.501 1.188-2.501 2.5v2.499h4.17c.393 0 .88.441.833.832v2.499c-.039.331-.501.833-.833.833h-4.17v11.662h2.004c4.852 0 8.822-3.966 8.827-8.814V8.824C29.998 3.976 26.028.01 21.176.01z"/>
</svg>
