<svg xmlns="http://www.w3.org/2000/svg" width="36" height="36">
    <path fill="#3B5998" fill-rule="evenodd" d="M25.403-.003H10.594C4.777-.003.016 4.758.01 10.578v14.838c.006 5.816 4.759 10.573 10.57 10.581h7.418v-14h-4c-.42 0-.998-.572-.999-1.001v-2.998c-.002-.441.577-1.001.999-1.001h4v-4c0-4.65 2.855-7 7.001-7h2.999c.436 0 1 .564 1 1v3c0 .436-.564 1-1 1h-1.999c-2.255 0-3 1.427-3 3v3h4.999c.473 0 1.056.531 1 1.001v2.998c-.046.398-.6 1.001-1 1.001h-4.999v14h2.404c5.817 0 10.579-4.76 10.585-10.581V10.578C35.982 4.758 31.22-.003 25.403-.003z"/>
</svg>
