<svg xmlns="http://www.w3.org/2000/svg" width="30" height="30">
    <path fill="#FFF" fill-rule="evenodd" d="M21.067 29.997H8.94c-4.928 0-8.938-4.007-8.938-8.933V8.944C.002 4.018 4.012.01 8.94.01h12.127c4.929 0 8.939 4.008 8.939 8.934v12.12c0 4.926-4.01 8.933-8.939 8.933zM15.004 6.676c-4.595 0-8.333 3.735-8.333 8.328 0 4.591 3.738 8.328 8.333 8.328 4.594 0 8.332-3.736 8.332-8.328 0-4.593-3.738-8.328-8.332-8.328zm8.334-1.67a1.664 1.664 0 1 0 0 3.328 1.664 1.664 0 0 0 0-3.328zm-8.334 15.087a5.09 5.09 0 0 1 0-10.178 5.09 5.09 0 1 1 0 10.178z"/>
</svg>
