<svg xmlns="http://www.w3.org/2000/svg" width="78" height="78">
    <path fill="none" d="M-.001-.001H78v78H-.001v-78z"/>
    <path fill="#535353" fill-rule="evenodd" d="M72.865 63.508c-2.767 0-5.916-1.085-9.249-2.232-3.82-1.316-8.15-2.806-12.458-2.806-3.694 0-6.684 1.216-8.887 3.615-.42.458-1.134.49-1.595.072a1.118 1.118 0 0 1-.072-1.586c1.821-1.983 5.13-4.347 10.554-4.347 4.688 0 9.209 1.556 13.196 2.929 2.67.92 5.214 1.796 7.382 2.041V18.227c-2.483-.235-5.232-1.182-8.12-2.177-3.82-1.315-8.15-2.806-12.458-2.806-8.768 0-11.062 7.098-11.084 7.171a1.131 1.131 0 0 1-2.159 0c-.091-.29-2.371-7.171-11.084-7.171-4.308 0-8.638 1.491-12.457 2.806-2.888.995-5.638 1.942-8.12 2.177v42.967c2.167-.245 4.711-1.121 7.381-2.041 3.988-1.373 8.508-2.93 13.196-2.93 5.424 0 8.733 2.364 10.554 4.347a1.118 1.118 0 0 1-.072 1.587 1.134 1.134 0 0 1-1.595-.072c-2.203-2.399-5.193-3.615-8.887-3.615-4.308 0-8.638 1.49-12.457 2.805-3.334 1.148-6.482 2.233-9.249 2.233a1.126 1.126 0 0 1-1.129-1.124V17.16c0-.621.505-1.123 1.129-1.123 2.387 0 5.361-1.024 8.511-2.108 3.987-1.374 8.507-2.93 13.196-2.93 5.424 0 8.733 2.364 10.554 4.347a13.666 13.666 0 0 1 1.609 2.144c.4-.659.928-1.402 1.609-2.144 1.821-1.983 5.13-4.347 10.554-4.347 4.688 0 9.209 1.556 13.196 2.93 3.149 1.084 6.124 2.108 8.511 2.108.623 0 1.128.503 1.128 1.123v45.225c0 .621-.505 1.123-1.128 1.123zm-34.999-5.51V24.472c0-.62.505-1.123 1.129-1.123.623 0 1.129.503 1.129 1.123v33.526c0 .62-.506 1.123-1.129 1.123a1.126 1.126 0 0 1-1.129-1.123zM5.125 65.753c2.387 0 5.361-1.024 8.51-2.108 3.988-1.374 8.508-2.93 13.196-2.93 5.094 0 8.323 2.085 10.205 3.981h3.917c1.882-1.896 5.111-3.981 10.205-3.981 4.688 0 9.209 1.556 13.196 2.93 3.149 1.084 6.124 2.108 8.511 2.108.623 0 1.128.503 1.128 1.123 0 .621-.505 1.123-1.128 1.123-2.767 0-5.916-1.085-9.249-2.233-3.82-1.315-8.15-2.805-12.458-2.805-3.694 0-6.684 1.216-8.887 3.615a1.13 1.13 0 0 1-.833.365h-4.886c-.317 0-.62-.132-.834-.365-2.203-2.399-5.193-3.615-8.887-3.615-4.308 0-8.638 1.49-12.457 2.805-3.334 1.148-6.482 2.233-9.249 2.233a1.125 1.125 0 0 1-1.129-1.123c0-.62.505-1.123 1.129-1.123z"/>
</svg>
