<svg xmlns="http://www.w3.org/2000/svg" width="78" height="78">
    <path fill="none" d="M-.001-.001H78v78H-.001v-78z"/>
    <path fill="#535353" fill-rule="evenodd" d="M71.582 72.996H6.415a1.417 1.417 0 1 1 0-2.832h4.249V31.913c0-3.904 3.178-7.083 7.085-7.083h4.249v-8.5c0-6.249 5.083-11.334 11.332-11.334 2.064 0 3.999.559 5.668 1.525a11.275 11.275 0 0 1 5.667-1.525c6.248 0 11.332 5.085 11.332 11.334v8.5h4.251c3.905 0 7.083 3.179 7.083 7.083v38.251h4.251a1.417 1.417 0 0 1 0 2.832zm-58.084-2.832h8.5v-9.917h-8.5v9.917zm4.251-42.5a4.253 4.253 0 0 0-4.251 4.249v25.499h8.5V43.246h-.102a1.418 1.418 0 1 1 0-2.834h.102v-8.499c0-1.593.529-3.065 1.42-4.249h-5.669zM33.33 7.83c-4.687 0-8.499 3.813-8.499 8.5v8.5h8.5v-8.5c0-3.057 1.219-5.834 3.194-7.875a8.45 8.45 0 0 0-3.195-.625zm5.668 2.171a8.476 8.476 0 0 0-2.833 6.329v8.5h5.667v-8.5a8.48 8.48 0 0 0-2.834-6.329zm14.167 6.329c0-4.687-3.814-8.5-8.5-8.5-1.13 0-2.209.223-3.194.625a11.303 11.303 0 0 1 3.194 7.875v8.5h8.5v-8.5zm11.332 15.583a4.252 4.252 0 0 0-4.249-4.249h-4.251v7.083a1.416 1.416 0 0 1-2.832 0v-7.083h-17v7.083a1.416 1.416 0 0 1-2.834 0v-7.083h-4.25a4.254 4.254 0 0 0-4.25 4.249v8.499h39.666v-8.499zm0 11.333H24.831v14.166h29.456a1.417 1.417 0 0 1 0 2.835H24.831v9.917h39.666V43.246zm-35.415 21.25h8.249a1.417 1.417 0 0 1 0 2.833h-8.249a1.415 1.415 0 1 1 0-2.833zm13.349 0h.849a1.417 1.417 0 0 1 0 2.833h-.849a1.417 1.417 0 0 1 0-2.833zm11.914-10.954v-6.386c0-.958.465-1.436 1.398-1.436h3.918c.242 0 .364.118.364.353v.912c0 .202-.122.301-.364.301h-3.096c-.279 0-.418.162-.418.484v1.605h3.187c.243 0 .366.118.366.353v.914c0 .211-.123.314-.366.314h-3.187v1.906c0 .184.036.314.111.393.075.078.203.117.385.117h3.239c.244 0 .366.117.366.353v.9c0 .211-.122.314-.366.315h-4.139c-.471 0-.822-.106-1.051-.32-.232-.213-.347-.574-.347-1.078zm5.042 3.87h.85a1.417 1.417 0 0 1 0 2.835h-.85a1.418 1.418 0 0 1 0-2.835zM52.38 54.94h-4.088c-.915 0-1.372-.446-1.372-1.333v-7.508c0-.261.118-.393.353-.393h1.124c.217 0 .326.127.326.379v6.804c0 .322.161.483.484.483h3.173c.243 0 .366.117.366.353v.901c0 .21-.123.314-.366.314zm-7.294-.028c-.105.045-.535.068-1.293.068-.123 0-.215-.033-.28-.098-.066-.067-.126-.183-.176-.348l-.668-1.971h-3.172l-.641 1.971a.948.948 0 0 1-.169.348c-.06.065-.152.098-.275.098-.669 0-1.101-.023-1.293-.068-.122-.033-.183-.121-.183-.26 0-.113.031-.253.092-.418l2.559-7.444c.149-.426.309-.721.484-.882.174-.161.479-.241.913-.241h.419c.401 0 .675.073.823.222.147.149.291.436.432.861l2.507 7.458c.06.167.091.308.091.431 0 .131-.057.222-.17.273zm-3.971-7.677c-.165.617-.555 1.884-1.175 3.799h2.325c-.601-1.915-.984-3.182-1.15-3.799zm-8.86 2.102l1.149.287c.854.235 1.435.532 1.744.894.31.362.464.935.464 1.718 0 .932-.263 1.644-.79 2.135-.527.492-1.418.738-2.671.738-1.062 0-1.976-.126-2.742-.378-.219-.071-.327-.206-.327-.405 0-.086.056-.344.17-.771.069-.226.209-.339.418-.339.087 0 .246.035.483.104a6.958 6.958 0 0 0 2.036.287c.611 0 1.021-.103 1.234-.307.214-.204.321-.48.321-.83 0-.328-.076-.581-.228-.749-.152-.171-.486-.321-1-.451l-1.136-.275c-.723-.174-1.256-.468-1.6-.886-.343-.42-.515-1.003-.515-1.751 0-.897.261-1.59.783-2.077.523-.487 1.381-.732 2.573-.732 1.01 0 1.801.092 2.377.275.21.061.313.196.313.405 0 .13-.052.388-.157.771-.043.199-.152.299-.326.299-.113 0-.266-.02-.457-.064-.618-.115-1.24-.17-1.868-.17-.523 0-.883.099-1.084.293-.2.197-.299.473-.299.83 0 .277.075.511.226.698.154.188.456.339.909.451zm-14.707-6.091h-.849a1.416 1.416 0 1 1 0-2.834h.849a1.416 1.416 0 1 1 0 2.834z"/>
</svg>
