<svg xmlns="http://www.w3.org/2000/svg" width="36" height="36">
    <path fill="#3FA8E0" fill-rule="evenodd" d="M25.351 35.993H10.645c-5.884 0-10.653-4.768-10.653-10.65V10.642c0-5.881 4.769-10.649 10.653-10.649h14.706c5.882 0 10.652 4.768 10.652 10.649v14.701c0 5.882-4.77 10.65-10.652 10.65zm2.113-27.907L5.499 16.542c-.712.273-.669 1.283.064 1.497l5.581 1.628 2.084 6.53c.217.681 1.092.889 1.598.377l2.886-2.91 5.662 4.106c.693.502 1.68.129 1.856-.703l3.749-17.712c.185-.869-.68-1.591-1.515-1.269zM14.507 20.93a.54.54 0 0 0-.181.346l-.393 3.45c-.013.111-.173.127-.206.018L12.111 19.6a.537.537 0 0 1 .234-.62l12.049-7.384c.276-.17.56.208.315.42L14.507 20.93z"/>
</svg>
