<svg xmlns="http://www.w3.org/2000/svg" width="36" height="36">
    <path fill="#7B519D" fill-rule="evenodd" d="M25.351 35.996h-14.7C4.772 35.996.005 31.228.004 25.347V10.646C.005 4.765 4.772-.003 10.651-.003h14.7c5.881 0 10.647 4.768 10.648 10.649v14.701c-.001 5.882-4.767 10.649-10.648 10.649zm5.047-24.512l-.008-.031c-.627-2.55-3.453-5.285-6.049-5.854l-.03-.005a33.449 33.449 0 0 0-12.653 0l-.029.005c-2.596.569-5.422 3.304-6.05 5.854l-.007.031a25.05 25.05 0 0 0 0 10.73l.007.03c.601 2.441 3.217 5.051 5.716 5.769v2.845c0 1.029 1.248 1.537 1.957.792l2.867-2.996a33.517 33.517 0 0 0 8.192-.55l.03-.006c2.596-.568 5.422-3.304 6.049-5.854l.008-.03a25.05 25.05 0 0 0 0-10.73zm-6.539 14.327c-2.232.426-6.73.545-6.73.545s-.681-.071-1.212.21c-.531.28-2.226 2.298-2.226 2.298a.261.261 0 0 1-.45-.18v-2.715a.16.16 0 0 0-.13-.158h-.001c-1.705-.383-4.85-2.451-5.27-4.113a22.72 22.72 0 0 1 0-9.698c.42-1.662 2.564-3.73 4.269-4.112a31.166 31.166 0 0 1 11.75 0c1.706.382 3.851 2.45 4.27 4.112a22.72 22.72 0 0 1 0 9.698c-.419 1.663-2.564 3.73-4.27 4.113zm-9.144-10.122a1.18 1.18 0 0 1 .269-.282c.116-.094.231-.193.357-.278.515-.346.593-.969.309-1.479-.463-.827-1.035-1.578-1.657-2.293-.289-.331-.677-.44-1.072-.252-.505.24-.971.566-1.335.991-.386.454-.753 1.074-.504 1.678.273.659.542 1.324.859 1.963.671 1.348 1.465 2.621 2.479 3.75 1.782 1.983 4.033 3.278 6.478 4.28.236.099.49.151.756.232.233-.071.478-.107.683-.215.729-.387 1.234-.993 1.58-1.722.19-.397.074-.781-.263-1.075-.349-.305-.727-.567-1.107-.833a24.41 24.41 0 0 0-1.176-.792c-.401-.252-.877-.248-1.249.053-.381.31-.556.897-1.101.961-.324.037-.606-.098-.889-.214-1.761-.724-2.833-2.069-3.469-3.799a.756.756 0 0 1 .052-.674zm6.627.818a.398.398 0 0 0 .362-.316c.028-.116.016-.249.004-.371-.16-1.755-1.281-2.526-2.849-2.632-.25-.018-.472.153-.512.371-.042.239.107.446.376.509.247.057.504.039.753.107.195.053.382.137.546.25.349.242.57.608.671 1.001.052.201.07.409.095.613.033.282.201.456.511.466a.73.73 0 0 0 .043.002zm-2.504-4.458a5.647 5.647 0 0 1 1.529.445c.796.37 1.473.983 1.918 1.71.432.71.618 1.522.62 2.336 0 .125.006.256.048.372.142.389.757.341.865-.045.029-.106.033-.219.039-.267-.015-.264-.026-.465-.042-.663-.007-.08-.026-.163-.039-.243-.28-1.778-1.238-3.111-2.916-3.955-.825-.416-1.721-.607-2.65-.658-.281-.015-.471.162-.482.41-.014.261.136.432.416.469.232.03.464.052.694.089zm6.95 3.438c-.711-3.797-4.027-6.347-8.065-6.458.054-.052.034 0-.245 0-.287.014-.541.242-.488.529.065.341.443.357.732.387.457.045.92.064 1.37.142 2.998.507 5.4 2.877 5.818 5.739.08.543.108 1.091.15 1.639.02.276.167.535.491.529.314-.003.478-.266.456-.543-.054-.656-.098-1.318-.219-1.964z"/>
</svg>
