<svg xmlns="http://www.w3.org/2000/svg" width="36" height="36">
    <path fill="#5B7AA8" fill-rule="evenodd" d="M25.285-.003H10.722C4.824-.003-.002 4.821-.002 10.717v14.56c0 5.896 4.826 10.72 10.723 10.72h14.565c5.897 0 10.722-4.824 10.722-10.72v-14.56c0-5.896-4.825-10.72-10.723-10.72zm4.662 12.808c-.194.794-.658 1.468-1.153 2.116-.796 1.04-1.719 1.85-2.559 2.927a4.11 4.11 0 0 0-.29.431c-.314.533-.293.833.167 1.277.729.707 1.51 1.368 2.217 2.095a12.52 12.52 0 0 1 1.396 1.705c.514.763.196 1.481-.765 1.609-.606.081-3.56 0-3.713 0-.794-.003-1.49-.262-2.051-.769-.624-.563-1.191-1.182-1.79-1.771a4.943 4.943 0 0 0-.581-.497c-.49-.35-.971-.272-1.199.268-.196.464-.365 1.684-.373 1.787-.041.545-.41.891-1.059.925-1.874.096-3.69-.1-5.382-.952-1.435-.721-2.58-1.741-3.571-2.929-1.577-1.89-3.245-5.03-3.245-5.03s-1.918-2.942-1.95-3.059c-.108-.39-.007-.763.337-.891.215-.081 4.203-.001 4.269.002.637.034 1.338.924 1.338.924s1.352 2.732 2.563 4.155c.16.188.363.357.576.494.311.202.604.13.731-.204.134-.351.257-1.062.264-1.43a28.69 28.69 0 0 0-.058-2.556c-.036-.616-.268-1.156-1.233-1.32-.298-.05-.326-.281-.135-.511.399-.478.954-.554 1.556-.584.976-.05 1.955-.009 2.931 0 .398.004.799.033 1.191.113.51.105.784.442.869.91.044.242.066.49.06.735-.026 1.051-.08 2.103-.093 3.153-.005.412.027.834.121 1.236.132.559.537.7.952.295.527-.513 1.428-1.678 1.428-1.678l2.085-3.044s.451-.725 1.144-.726c1.3-.004 2.602-.005 3.904 0 .23.001.471.021.69.085.353.104.493.371.411.709z"/>
</svg>
