<svg xmlns="http://www.w3.org/2000/svg" width="30" height="30">
    <path fill="#FFF" fill-rule="evenodd" d="M21.067.01H8.933C4.019.01-.001 4.028-.001 8.94v12.127c0 4.912 4.02 8.93 8.934 8.93h12.134c4.915 0 8.935-4.018 8.935-8.93V8.94c0-4.912-4.02-8.93-8.935-8.93zm4.718 10.67c-.161.66-.547 1.222-.961 1.762-.664.865-1.431 1.541-2.132 2.437a3.474 3.474 0 0 0-.241.36c-.262.444-.244.693.138 1.063.608.589 1.259 1.141 1.849 1.745.427.441.823.917 1.162 1.419.429.638.164 1.235-.637 1.342-.504.067-2.967 0-3.094 0-.662-.003-1.242-.218-1.709-.64-.52-.47-.992-.985-1.491-1.476a4.153 4.153 0 0 0-.484-.413c-.408-.292-.809-.227-1 .223-.162.386-.303 1.401-.31 1.489-.034.453-.342.741-.882.77-1.562.079-3.076-.085-4.485-.794-1.195-.601-2.15-1.449-2.976-2.44-1.313-1.574-2.703-4.19-2.703-4.19s-1.598-2.451-1.625-2.547c-.09-.325-.006-.636.281-.742.178-.067 3.502 0 3.557.002.53.028 1.115.77 1.115.77s1.127 2.275 2.135 3.46c.134.158.303.298.48.412.259.167.504.108.61-.17.111-.293.214-.885.22-1.193a23.968 23.968 0 0 0-.049-2.127c-.03-.513-.224-.963-1.027-1.099-.249-.044-.272-.235-.113-.427.332-.398.795-.462 1.297-.486.812-.042 1.628-.008 2.442 0 .332.002.665.028.991.094.427.087.655.369.725.758.036.201.055.408.05.613-.021.875-.066 1.75-.077 2.625-.004.344.023.695.1 1.03.11.466.448.583.794.246.439-.428 1.189-1.397 1.189-1.397l1.738-2.537s.376-.603.952-.605c1.085-.002 2.169-.003 3.253 0 .193.002.394.018.576.071.294.088.411.31.342.592z"/>
</svg>
