<svg xmlns="http://www.w3.org/2000/svg" width="36" height="36">
    <path fill="#00B77D" fill-rule="evenodd" d="M25.345 35.993H10.648c-5.88 0-10.645-4.768-10.646-10.649V10.64C.003 4.76 4.769-.007 10.648-.007h14.696c5.881 0 10.647 4.768 10.647 10.649v14.702c0 5.881-4.766 10.649-10.646 10.649zM18.012 5.984c-6.604 0-11.977 5.375-11.977 11.98 0 2.147.569 4.235 1.649 6.07l-1.68 5.968 6.153-1.584a11.96 11.96 0 0 0 5.855 1.527c6.604 0 11.977-5.375 11.977-11.981 0-6.605-5.373-11.98-11.977-11.98zm-.013 22.013c-1.831 0-3.607-.586-5.161-1.535l-.367-.224-3.473.759.886-3.28-.247-.385c-1.028-1.6-1.638-3.424-1.638-5.334 0-5.486 4.516-10.001 10-10.001 5.483 0 9.999 4.515 9.999 10.001 0 5.485-4.516 9.999-9.999 9.999zm5.765-8.041l-2.586-1.17a.401.401 0 0 0-.48.116l-1.015 1.292a.294.294 0 0 1-.327.096c-.695-.24-3.024-1.198-4.302-3.616a.285.285 0 0 1 .038-.322l.969-1.104a.382.382 0 0 0 .065-.407l-1.115-2.562a.395.395 0 0 0-.343-.236l-.765-.041a.942.942 0 0 0-.658.221c-.37.317-.964.928-1.146 1.727-.272 1.188.148 2.644 1.235 4.099 1.086 1.455 3.111 3.785 6.692 4.78 1.155.321 2.062.104 2.762-.336a2.422 2.422 0 0 0 1.075-1.54l.122-.561a.387.387 0 0 0-.221-.436z"/>
</svg>
