<svg xmlns="http://www.w3.org/2000/svg" width="162" height="28">
    <path fill="#FFF" fill-rule="evenodd" d="M161.454 19.789a.304.304 0 0 1 .054.096l.471 1.308a.291.291 0 0 1 .019.109v6.265a.333.333 0 0 1-.338.329h-3.986a.334.334 0 0 1-.339-.329v-5.403a.327.327 0 0 0-.074-.206l-3.305-4.056a.344.344 0 0 0-.53 0l-3.306 4.056a.327.327 0 0 0-.074.206v5.403a.334.334 0 0 1-.338.329h-3.987a.333.333 0 0 1-.338-.329v-6.265c0-.038.007-.073.019-.109l.471-1.308a.328.328 0 0 1 .055-.096l4.616-5.637a.322.322 0 0 0 0-.411l-4.616-5.637a.326.326 0 0 1-.055-.098l-.471-1.306a.34.34 0 0 1-.019-.111V-.004h4.663v5.732c0 .076.026.148.074.206l3.306 4.056a.343.343 0 0 0 .53 0l3.305-4.056a.321.321 0 0 0 .074-.206V-.004h4.663v6.593a.295.295 0 0 1-.019.111l-.471 1.306a.303.303 0 0 1-.054.098l-4.616 5.637a.322.322 0 0 0 0 .411l4.616 5.637zm-26.461 8.107h-20.596c-3.871 0-7.018-2.981-7.018-6.649V6.646c0-3.668 3.147-6.65 7.018-6.65h20.596c3.872 0 7.018 2.982 7.018 6.65v14.601c0 3.668-3.146 6.649-7.018 6.649zm2.218-21.25c0-1.147-.969-2.102-2.218-2.102h-20.596c-1.25 0-2.218.955-2.218 2.102v14.601c0 1.184.968 2.102 2.218 2.102h20.596c1.249 0 2.218-.918 2.218-2.102V6.646zm-40.548 21.25h-7.007a.343.343 0 0 1-.238-.095l-2.114-2.063a.321.321 0 0 1-.1-.232V2.424c0-.086.035-.169.097-.232l2.216-2.196h5.657c3.953 0 7.157 3.124 7.157 6.98v2.575c0 1.239-.336 2.38-.915 3.361a.325.325 0 0 0 .079.412 6.553 6.553 0 0 1 2.325 5.018v2.575c0 3.855-3.204 6.979-7.157 6.979zm1.005-21.25c0-1.147-.941-2.101-2.156-2.101h-3.306a.333.333 0 0 0-.338.329v6.488c0 .182.151.329.338.329h2.968c1.377 0 2.494-1.088 2.494-2.432V6.646zm1.488 12.025c0-1.343-1.116-2.432-2.493-2.432h-4.457a.335.335 0 0 0-.338.331v6.449c0 .182.151.33.338.33h4.457c1.377 0 2.493-1.089 2.493-2.432v-2.246zm-27.577 9.225a.333.333 0 0 1-.338-.329v-5.402a.334.334 0 0 0-.074-.207L66.6 16.364a.34.34 0 0 0-.264-.125H64.29a.335.335 0 0 0-.338.331v10.997a.334.334 0 0 1-.339.329h-3.986a.334.334 0 0 1-.339-.329V-.004h4.664v11.366c0 .182.151.329.338.329a.338.338 0 0 0 .303-.185l5.824-11.51h5.33l-6.466 12.46.118.076 5.96 7.257a.304.304 0 0 1 .054.096l.472 1.308a.313.313 0 0 1 .019.109v6.265a.334.334 0 0 1-.338.329h-3.987zm-23.366 0h-2.301c-3.954 0-7.157-3.124-7.157-6.979V6.976c0-3.856 3.203-6.98 7.157-6.98h2.301c3.953 0 7.157 3.124 7.157 6.98v13.941c0 3.855-3.204 6.979-7.157 6.979zm2.494-21.25c0-1.147-.941-2.101-2.155-2.101h-2.978c-1.216 0-2.157.954-2.157 2.101v14.271c0 1.343 1.117 2.432 2.494 2.432h2.302c1.378 0 2.494-1.089 2.494-2.432V6.646zM27.68 27.896h-2.302c-3.953 0-7.157-3.124-7.157-6.979V6.976c0-3.856 3.204-6.98 7.157-6.98h2.302c3.952 0 7.157 3.124 7.157 6.98v13.941c0 3.855-3.205 6.979-7.157 6.979zm2.494-21.25c0-1.147-.941-2.101-2.156-2.101h-2.979c-1.213 0-2.154.954-2.154 2.101v14.271c0 1.343 1.116 2.432 2.493 2.432h2.302c1.377 0 2.494-1.089 2.494-2.432V6.646zM2.451 27.896a.343.343 0 0 1-.239-.095L.099 25.738a.321.321 0 0 1-.1-.232V-.004h4.663v23.023c0 .182.152.33.339.33h8.964c.187 0 .338.147.338.329v3.889a.333.333 0 0 1-.338.329H2.451z"/>
</svg>
