<svg xmlns="http://www.w3.org/2000/svg" width="516" height="90">
    <path fill="#FFF" fill-rule="evenodd" d="M514.262 63.842c.075.093.135.198.175.313l1.5 4.219c.041.112.06.231.06.353v20.206a1.07 1.07 0 0 1-1.075 1.065h-12.7a1.071 1.071 0 0 1-1.078-1.065V71.504c0-.24-.082-.471-.234-.663l-10.53-13.085a1.087 1.087 0 0 0-1.688 0l-10.53 13.085a1.06 1.06 0 0 0-.235.663v17.429c0 .589-.483 1.065-1.077 1.065h-12.699a1.07 1.07 0 0 1-1.077-1.065V68.727c0-.122.02-.241.061-.353l1.501-4.219c.04-.115.099-.22.174-.313l14.702-18.182a1.055 1.055 0 0 0 0-1.329L464.81 26.149a1.038 1.038 0 0 1-.174-.312l-1.501-4.22a1.017 1.017 0 0 1-.061-.351V-.006h14.853v18.493c0 .242.082.472.235.662l10.53 13.087a1.088 1.088 0 0 0 1.688 0l10.53-13.087c.152-.19.234-.42.234-.662V-.006h14.853v21.272c0 .12-.019.24-.06.351l-1.5 4.22c-.04.115-.1.219-.175.312L499.56 44.331c-.313.39-.313.94 0 1.329l14.702 18.182zm-84.283 26.156H364.38c-12.333 0-22.355-9.617-22.355-21.455V21.448c0-11.838 10.022-21.454 22.355-21.454h65.599c12.334 0 22.354 9.616 22.354 21.454v47.095c0 11.838-10.02 21.455-22.354 21.455zm7.067-68.55c0-3.7-3.085-6.784-7.067-6.784H364.38c-3.984 0-7.067 3.084-7.067 6.784v47.095c0 3.823 3.083 6.782 7.067 6.782h65.599c3.982 0 7.067-2.959 7.067-6.782V21.448zm-129.154 68.55h-22.317c-.284 0-.56-.113-.761-.313l-6.734-6.65a1.05 1.05 0 0 1-.316-.751V7.827c0-.279.111-.547.309-.747l7.057-7.086h18.019c12.591 0 22.798 10.081 22.798 22.518v8.305a21.41 21.41 0 0 1-2.916 10.843c-.257.443-.136.995.253 1.331a21.243 21.243 0 0 1 7.405 16.184v8.305c0 12.437-10.206 22.518-22.797 22.518zm3.2-68.55c0-3.7-2.996-6.781-6.865-6.781h-10.531a1.07 1.07 0 0 0-1.077 1.062v20.929a1.07 1.07 0 0 0 1.077 1.063h9.453c4.387 0 7.943-3.511 7.943-7.845v-8.428zm4.743 38.788c0-4.332-3.556-7.842-7.942-7.842h-14.197a1.07 1.07 0 0 0-1.077 1.065v20.803a1.07 1.07 0 0 0 1.077 1.063h14.197c4.386 0 7.942-3.51 7.942-7.845v-7.244zm-75.141 29.762h-12.699a1.07 1.07 0 0 1-1.078-1.065V71.506c0-.242-.083-.473-.233-.665l-14.546-18.046a1.083 1.083 0 0 0-.844-.401h-6.517c-.595 0-1.076.475-1.076 1.065v35.474c0 .589-.483 1.065-1.078 1.065h-12.699a1.071 1.071 0 0 1-1.078-1.065V-.006h14.855v36.664a1.07 1.07 0 0 0 1.076 1.063c.411 0 .786-.229.967-.593L224.295-.006h16.977l-20.595 40.194.373.245 18.984 23.409c.076.093.135.198.175.313l1.501 4.219c.042.112.062.231.062.353v20.206c0 .589-.483 1.065-1.078 1.065zm-87.123 0h-7.33c-12.592 0-22.798-10.081-22.798-22.518V22.513c0-12.438 10.206-22.519 22.798-22.519h7.33c12.591 0 22.797 10.081 22.797 22.518V67.48c0 12.437-10.206 22.518-22.797 22.518zm7.942-68.55c0-3.7-2.995-6.781-6.864-6.781h-9.486c-3.871 0-6.866 3.081-6.866 6.781V67.48c0 4.335 3.556 7.845 7.942 7.845h7.332c4.387 0 7.942-3.51 7.942-7.845V21.448zm-73.345 68.55h-7.332c-12.589 0-22.798-10.081-22.798-22.518V22.512c0-12.437 10.209-22.518 22.798-22.518h7.332c12.589 0 22.796 10.081 22.796 22.519V67.48c0 12.437-10.207 22.518-22.796 22.518zm7.943-68.55c0-3.7-2.996-6.781-6.866-6.781h-9.487c-3.868 0-6.864 3.081-6.864 6.781V67.48c0 4.335 3.555 7.845 7.942 7.845h7.332c4.387 0 7.943-3.51 7.943-7.845V21.448zm-51.629 68.55H7.81c-.286 0-.56-.113-.762-.313l-6.734-6.65A1.056 1.056 0 0 1 0 82.284V-.006h14.853v74.268a1.07 1.07 0 0 0 1.078 1.063h28.551c.595 0 1.077.477 1.077 1.065v12.543a1.07 1.07 0 0 1-1.077 1.065z"/>
</svg>
